<?xml version="1.0" encoding="UTF-8" standalone="no"?>
<!-- Created with Inkscape (http://www.inkscape.org/) -->

<svg
   xmlns:dc="http://purl.org/dc/elements/1.1/"
   xmlns:cc="http://creativecommons.org/ns#"
   xmlns:rdf="http://www.w3.org/1999/02/22-rdf-syntax-ns#"
   xmlns:svg="http://www.w3.org/2000/svg"
   xmlns="http://www.w3.org/2000/svg"
   xmlns:sodipodi="http://sodipodi.sourceforge.net/DTD/sodipodi-0.dtd"
   xmlns:inkscape="http://www.inkscape.org/namespaces/inkscape"
   width="100"
   height="100"
   viewBox="0 0 26.458333 26.458334"
   version="1.1"
   id="svg2638"
   inkscape:version="0.92.3 (2405546, 2018-03-11)"
   sodipodi:docname="butterfly3.svg">
  <defs
     id="defs2632" />
  <sodipodi:namedview
     id="base"
     pagecolor="#ffffff"
     bordercolor="#666666"
     borderopacity="1.0"
     inkscape:pageopacity="0.0"
     inkscape:pageshadow="2"
     inkscape:zoom="6.9384565"
     inkscape:cx="84.507747"
     inkscape:cy="21.458507"
     inkscape:document-units="mm"
     inkscape:current-layer="layer1"
     showgrid="false"
     units="px"
     inkscape:window-width="1920"
     inkscape:window-height="1017"
     inkscape:window-x="-8"
     inkscape:window-y="-8"
     inkscape:window-maximized="1" />
  <metadata
     id="metadata2635">
    <rdf:RDF>
      <cc:Work
         rdf:about="">
        <dc:format>image/svg+xml</dc:format>
        <dc:type
           rdf:resource="http://purl.org/dc/dcmitype/StillImage" />
        <dc:title />
      </cc:Work>
    </rdf:RDF>
  </metadata>
  <g
     inkscape:label="Layer 1"
     inkscape:groupmode="layer"
     id="layer1"
     transform="translate(0,-270.54165)">
    <path
       style="fill:#ff0000;stroke:none;stroke-width:0.099723px;stroke-linecap:butt;stroke-linejoin:miter;stroke-opacity:1"
       d="m 12.680784,280.70167 c -2.9566384,-2.46578 -8.2236605,-5.48118 -11.74290225,-4.6873 -0.7689182,0.17346 -0.9286961,1.38277 -0.93746669665,2.17096 -0.0209180033,1.88121 0.74967709665,3.94272 2.12161824665,5.23004 0.5689055,0.53381 1.4420494,0.68598 2.2203035,0.7401 2.8865638,0.20071 6.8043092,0.7394 8.5358102,-1.57888 0.376051,-0.5035 0.285254,-1.47243 -0.197363,-1.87492 z"
       id="path2143"
       inkscape:connector-curvature="0"
       sodipodi:nodetypes="sssssss" />
    <path
       style="fill:#ff0000;stroke:none;stroke-width:0.099723px;stroke-linecap:butt;stroke-linejoin:miter;stroke-opacity:1"
       d="m 12.039366,281.39243 c -2.9939484,-1.32459 -6.9466096,1.55275 -8.881192,4.19389 -0.5786448,0.78998 -0.7899646,2.01514 -0.3947147,2.91106 0.8636308,1.95761 3.1652031,3.32196 5.2793695,3.65116 1.0024302,0.15609 2.1812602,-0.18341 2.9110632,-0.88812 1.601363,-1.54631 2.132506,-4.08977 2.170959,-6.31551 0.02137,-1.23803 0.04685,-3.05151 -1.085485,-3.55248 z"
       id="path2145"
       inkscape:connector-curvature="0"
       sodipodi:nodetypes="sssssss" />
    <path
       inkscape:connector-curvature="0"
       style="opacity:1;vector-effect:none;fill:#0000ff;fill-opacity:1;fill-rule:nonzero;stroke:none;stroke-width:0.43909532;stroke-linecap:butt;stroke-linejoin:miter;stroke-miterlimit:4;stroke-dasharray:none;stroke-dashoffset:0;stroke-opacity:0.44186048"
       d="m 3.0549417,275.93976 a 4.9833356,14.505948 0 0 0 -1.3115872,7.08345 c 0.1205854,0.1372 0.2467546,0.26834 0.3786283,0.39208 0.56891,0.53381 1.4421444,0.68601 2.220403,0.74013 0.014239,0.001 0.030107,0.002 0.044407,0.003 -0.4634329,0.46621 -0.8792781,0.95074 -1.2286174,1.42768 -0.578653,0.78998 -0.7900558,2.01513 -0.3948036,2.91105 0.8636311,1.95761 3.1653082,3.32179 5.2794758,3.65099 1.0024256,0.1561 2.1812514,-0.18325 2.9110544,-0.88796 0.124724,-0.12043 0.242277,-0.2475 0.354286,-0.37942 a 4.9833356,14.505948 0 0 0 0.287093,-4.80131 4.9833356,14.505948 0 0 0 -0.55101,-6.62534 c -2.3423639,-1.641 -5.3747813,-3.20893 -7.989329,-3.51474 z"
       id="path2147" />
    <path
       style="fill:#ff0000;stroke:none;stroke-width:0.099723px;stroke-linecap:butt;stroke-linejoin:miter;stroke-opacity:1"
       d="m 13.77755,280.70167 c 2.956638,-2.46578 8.223661,-5.48118 11.742902,-4.6873 0.768919,0.17346 0.928696,1.38277 0.937467,2.17096 0.02092,1.88122 -0.749677,3.94273 -2.121619,5.23004 -0.568905,0.53381 -1.442049,0.68598 -2.220302,0.7401 -2.886565,0.20072 -6.804309,0.73941 -8.535811,-1.57888 -0.37605,-0.50349 -0.285254,-1.47243 0.197363,-1.87492 z"
       id="path2143-9"
       inkscape:connector-curvature="0"
       sodipodi:nodetypes="sssssss" />
    <path
       style="fill:#ff0000;stroke:none;stroke-width:0.099723px;stroke-linecap:butt;stroke-linejoin:miter;stroke-opacity:1"
       d="m 14.418968,281.39243 c 2.993949,-1.32459 6.94661,1.55275 8.881193,4.1939 0.578644,0.78997 0.789963,2.01513 0.394714,2.91105 -0.863631,1.95761 -3.165203,3.32196 -5.27937,3.65116 -1.00243,0.15609 -2.18126,-0.18341 -2.911063,-0.88812 -1.60136,-1.5463 -2.132506,-4.08977 -2.170959,-6.31551 -0.02137,-1.23802 -0.04685,-3.05151 1.085485,-3.55248 z"
       id="path2145-1"
       inkscape:connector-curvature="0"
       sodipodi:nodetypes="sssssss" />
    <path
       inkscape:connector-curvature="0"
       style="opacity:1;vector-effect:none;fill:#0000ff;fill-opacity:1;fill-rule:nonzero;stroke:none;stroke-width:0.43909532;stroke-linecap:butt;stroke-linejoin:miter;stroke-miterlimit:4;stroke-dasharray:none;stroke-dashoffset:0;stroke-opacity:0.44186048"
       d="m 23.403395,275.93977 a 4.9833356,14.505948 0 0 1 1.311587,7.08344 c -0.120587,0.1372 -0.246757,0.26834 -0.378628,0.39208 -0.568909,0.53381 -1.442144,0.68601 -2.220406,0.74013 -0.01425,0.001 -0.03011,0.002 -0.0444,0.003 0.463432,0.46621 0.879276,0.95074 1.228616,1.42768 0.578651,0.78998 0.790054,2.01513 0.394804,2.91106 -0.86363,1.9576 -3.165308,3.32178 -5.279475,3.65098 -1.002427,0.1561 -2.181252,-0.18325 -2.911056,-0.88796 -0.124725,-0.12043 -0.242279,-0.2475 -0.354287,-0.37941 a 4.9833356,14.505948 0 0 1 -0.287093,-4.80132 4.9833356,14.505948 0 0 1 0.551009,-6.62535 c 2.342366,-1.64091 5.374785,-3.20884 7.989332,-3.51465 z"
       id="path2147-0" />
    <ellipse
       style="opacity:1;vector-effect:none;fill:#000000;fill-opacity:1;fill-rule:nonzero;stroke:none;stroke-width:0.43909532;stroke-linecap:butt;stroke-linejoin:miter;stroke-miterlimit:4;stroke-dasharray:none;stroke-dashoffset:0;stroke-opacity:0.44186048"
       id="path2208"
       cx="13.350569"
       cy="284.22528"
       rx="0.94199264"
       ry="4.6052976" />
    <path
       style="opacity:1;vector-effect:none;fill:#00ff00;fill-opacity:1;fill-rule:nonzero;stroke:none;stroke-width:6.90380669;stroke-linecap:butt;stroke-linejoin:miter;stroke-miterlimit:4;stroke-dasharray:none;stroke-dashoffset:0;stroke-opacity:0.44186048"
       d="M 71.220703 25.986328 C 66.630603 28.237146 62.186615 30.933282 58.257812 33.685547 A 18.834654 54.82563 0 0 0 56.175781 58.724609 A 18.834654 54.82563 0 0 0 57.259766 76.873047 C 57.683103 77.371604 58.128208 77.851472 58.599609 78.306641 C 60.642976 80.279747 63.617433 81.488508 66.5625 81.746094 A 30.193018 35.518799 0 0 0 80.652344 51.716797 A 30.193018 35.518799 0 0 0 71.220703 25.986328 z M 29.384766 26.289062 A 30.193018 35.518799 0 0 0 20.265625 51.716797 A 30.193018 35.518799 0 0 0 34.25 81.638672 C 36.921387 81.246189 39.545217 80.098027 41.400391 78.306641 C 41.871788 77.851472 42.316893 77.371642 42.740234 76.873047 A 18.834654 54.82563 0 0 0 43.824219 58.724609 A 18.834654 54.82563 0 0 0 41.742188 33.685547 C 37.986757 31.054589 33.759175 28.477594 29.384766 26.289062 z "
       transform="matrix(0.26458333,0,0,0.26458333,0,270.54165)"
       id="path2208-9" />
  </g>
</svg>
