<?xml version="1.0" encoding="UTF-8" standalone="no"?>
<!-- Created with Inkscape (http://www.inkscape.org/) -->

<svg
   xmlns:dc="http://purl.org/dc/elements/1.1/"
   xmlns:cc="http://creativecommons.org/ns#"
   xmlns:rdf="http://www.w3.org/1999/02/22-rdf-syntax-ns#"
   xmlns:svg="http://www.w3.org/2000/svg"
   xmlns="http://www.w3.org/2000/svg"
   xmlns:sodipodi="http://sodipodi.sourceforge.net/DTD/sodipodi-0.dtd"
   xmlns:inkscape="http://www.inkscape.org/namespaces/inkscape"
   width="100"
   height="100"
   viewBox="0 0 26.458333 26.458334"
   version="1.1"
   id="svg2638"
   inkscape:version="0.92.3 (2405546, 2018-03-11)"
   sodipodi:docname="butterfly7.svg">
  <defs
     id="defs2632" />
  <sodipodi:namedview
     id="base"
     pagecolor="#ffffff"
     bordercolor="#666666"
     borderopacity="1.0"
     inkscape:pageopacity="0.0"
     inkscape:pageshadow="2"
     inkscape:zoom="6.796875"
     inkscape:cx="79.068503"
     inkscape:cy="38.03388"
     inkscape:document-units="mm"
     inkscape:current-layer="layer1"
     showgrid="false"
     units="px"
     inkscape:window-width="1920"
     inkscape:window-height="1017"
     inkscape:window-x="-8"
     inkscape:window-y="-8"
     inkscape:window-maximized="1" />
  <metadata
     id="metadata2635">
    <rdf:RDF>
      <cc:Work
         rdf:about="">
        <dc:format>image/svg+xml</dc:format>
        <dc:type
           rdf:resource="http://purl.org/dc/dcmitype/StillImage" />
        <dc:title />
      </cc:Work>
    </rdf:RDF>
  </metadata>
  <g
     inkscape:label="Layer 1"
     inkscape:groupmode="layer"
     id="layer1"
     transform="translate(0,-270.54165)">
    <g
       id="g2047"
       transform="matrix(0.38365638,0,0,0.38365638,-175.2131,288.12723)">
      <path
         sodipodi:nodetypes="sssssss"
         inkscape:connector-curvature="0"
         id="path2013"
         d="m 482.26815,-4.5795887 c -1.32816,1.264743 -3.59323,1.662558 -5.36882,1.2033562 -3.59712,-0.9302846 -7.12256,-3.8917894 -8.33093,-7.4052695 -0.49994,-1.453631 -0.45711,-3.700039 0.83309,-4.535727 6.0321,-3.907114 13.48635,-6.383896 19.43883,-5.183688 2.55293,0.51475 0.59258,5.519387 -0.55539,7.682967 -2.04121,3.8470666 -3.60311,5.9399347 -6.01678,8.2383613 z"
         style="fill:#ff0000;stroke:none;stroke-width:0.26458332px;stroke-linecap:butt;stroke-linejoin:miter;stroke-opacity:1" />
      <path
         sodipodi:nodetypes="sssssss"
         inkscape:connector-curvature="0"
         id="path2011"
         d="m 489.30316,-20.408352 c 1.47444,0.622115 0.0183,4.372126 -1.57361,4.535728 -4.95784,0.509516 -12.32451,0.874504 -18.05035,-0.555395 -1.918,-0.478977 -3.96347,-1.59461 -4.90598,-3.332371 -1.48607,-2.739938 -1.60193,-6.572748 -0.18516,-9.349153 1.00763,-1.974631 3.31595,-4.353349 5.4614,-3.795199 6.43261,1.673476 13.50529,10.07095 19.2537,12.49639 z"
         style="fill:#0000ff;stroke:none;stroke-width:0.26458332px;stroke-linecap:butt;stroke-linejoin:miter;stroke-opacity:1" />
      <path
         sodipodi:nodetypes="sccccccss"
         inkscape:connector-curvature="0"
         id="path2015"
         d="m 488.09981,-19.575259 c -6.53668,-4.296925 -18.37434,-10.182245 -18.37434,-10.182245 4.07924,4.871015 10.99717,6.745643 16.52302,10.089679 l -19.53139,-7.682966 c 4.57685,4.230116 12.31542,5.976033 19.16111,8.423493 l -20.17935,-4.165463 c 5.67067,3.372683 13.10359,4.257482 20.17935,5.646517 0,0 1.55346,0.295813 2.03647,-0.185131 0.46124,-0.459262 0.72903,-1.586347 0.18513,-1.943884 z"
         style="fill:#00ff00;stroke:none;stroke-width:0.26458332px;stroke-linecap:butt;stroke-linejoin:miter;stroke-opacity:1" />
      <path
         sodipodi:nodetypes="sssssss"
         inkscape:connector-curvature="0"
         id="path2013-2"
         d="m 500.08105,-4.5795948 c 1.32816,1.264743 3.59323,1.662557 5.36882,1.203357 3.59712,-0.930286 7.12256,-3.891791 8.33093,-7.4052712 0.49994,-1.453631 0.45711,-3.700039 -0.83309,-4.535727 -6.0321,-3.907114 -13.48635,-6.383896 -19.43883,-5.183688 -2.55293,0.51475 -0.59258,5.519387 0.55539,7.682967 2.04121,3.8470672 3.60311,5.9399352 6.01678,8.2383622 z"
         style="fill:#ff0000;stroke:none;stroke-width:0.26458332px;stroke-linecap:butt;stroke-linejoin:miter;stroke-opacity:1" />
      <path
         sodipodi:nodetypes="sssssss"
         inkscape:connector-curvature="0"
         id="path2011-0"
         d="m 493.04604,-20.408359 c -1.47444,0.622115 -0.0183,4.372126 1.57361,4.535728 4.95784,0.509516 12.32451,0.874504 18.05035,-0.555395 1.918,-0.478977 3.96347,-1.59461 4.90598,-3.332371 1.48607,-2.739938 1.60193,-6.572748 0.18516,-9.349153 -1.00763,-1.974631 -3.31595,-4.353349 -5.4614,-3.795199 -6.43261,1.673476 -13.50529,10.07095 -19.2537,12.49639 z"
         style="fill:#0000ff;stroke:none;stroke-width:0.26458332px;stroke-linecap:butt;stroke-linejoin:miter;stroke-opacity:1" />
      <path
         sodipodi:nodetypes="sccccccss"
         inkscape:connector-curvature="0"
         id="path2015-0"
         d="m 494.24939,-19.575266 c 6.53668,-4.296925 18.37434,-10.182245 18.37434,-10.182245 -4.07924,4.871015 -10.99717,6.745643 -16.52302,10.089679 l 19.53139,-7.682966 c -4.57685,4.230116 -12.31542,5.976033 -19.16111,8.423493 l 20.17935,-4.165463 c -5.67067,3.372683 -13.10359,4.257482 -20.17935,5.646517 0,0 -1.55346,0.295813 -2.03647,-0.185131 -0.46124,-0.459262 -0.72903,-1.586347 -0.18513,-1.943884 z"
         style="fill:#00ff00;stroke:none;stroke-width:0.26458332px;stroke-linecap:butt;stroke-linejoin:miter;stroke-opacity:1" />
      <ellipse
         ry="12.496391"
         rx="4.535727"
         cy="-9.1153164"
         cx="490.13623"
         id="path2038"
         style="opacity:1;vector-effect:none;fill:#000000;fill-opacity:1;fill-rule:nonzero;stroke:none;stroke-width:1.16499996;stroke-linecap:butt;stroke-linejoin:miter;stroke-miterlimit:4;stroke-dasharray:none;stroke-dashoffset:0;stroke-opacity:0.44186048" />
    </g>
  </g>
</svg>
