<?xml version="1.0" encoding="UTF-8" standalone="no"?>
<!-- Created with Inkscape (http://www.inkscape.org/) -->

<svg
   width="80"
   height="80"
   viewBox="0 0 21.166666 21.166667"
   version="1.1"
   id="svg591"
   inkscape:version="1.1.1 (3bf5ae0d25, 2021-09-20)"
   sodipodi:docname="testfame..svg"
   xmlns:inkscape="http://www.inkscape.org/namespaces/inkscape"
   xmlns:sodipodi="http://sodipodi.sourceforge.net/DTD/sodipodi-0.dtd"
   xmlns="http://www.w3.org/2000/svg"
   xmlns:svg="http://www.w3.org/2000/svg">
  <sodipodi:namedview
     id="namedview593"
     pagecolor="#ffffff"
     bordercolor="#666666"
     borderopacity="1.0"
     inkscape:pageshadow="2"
     inkscape:pageopacity="0.0"
     inkscape:pagecheckerboard="0"
     inkscape:document-units="mm"
     showgrid="false"
     inkscape:zoom="3.1072952"
     inkscape:cx="41.193383"
     inkscape:cy="71.12295"
     inkscape:window-width="1671"
     inkscape:window-height="1000"
     inkscape:window-x="240"
     inkscape:window-y="0"
     inkscape:window-maximized="0"
     inkscape:current-layer="layer1"
     units="px"
     inkscape:snap-global="false" />
  <defs
     id="defs588" />
  <g
     inkscape:label="Layer 1"
     inkscape:groupmode="layer"
     id="layer1">
    <rect
       style="fill:#ba8cd7;fill-opacity:1;stroke-width:2;stop-color:#000000"
       id="rect1281"
       width="14.976758"
       height="18.508472"
       x="2.964299"
       y="1.2755637" />
    <ellipse
       style="fill:#ffffff;fill-opacity:1;stroke-width:2.85981;stop-color:#000000"
       id="path2614"
       ry="6.5139046"
       rx="4.2614331"
       cy="10.157048"
       cx="10.473337" />
    <circle
       style="fill:#000000;fill-opacity:1;stroke-width:7.55906;stop-color:#000000"
       id="path2780"
       cx="8.42976"
       cy="8.4966326"
       r="1.1920871" />
    <circle
       style="fill:#000000;fill-opacity:1;stroke-width:7.55906;stop-color:#000000"
       id="path2780-1"
       cx="8.42976"
       cy="8.4966326"
       r="1.1920871" />
    <circle
       style="fill:#000000;fill-opacity:1;stroke-width:7.55906;stop-color:#000000"
       id="path2780-1-8"
       cx="12.663097"
       cy="8.4966326"
       r="1.1920871" />
    <rect
       style="fill:#000000;fill-opacity:1;stroke-width:2;stop-color:#000000"
       id="rect2950"
       width="5.0237961"
       height="0.59604353"
       x="7.8337154"
       y="12.754095" />
    <path
       id="rect621-2-4"
       style="fill:#ffff00;stroke-width:7.96396;stop-color:#000000"
       d="m 2.7936307,1.1886668 c 0,0 -1.0583333,6.2644548 -1.0583333,9.4262962 0,3.161842 1.0583333,9.426297 1.0583333,9.426297 0,0 4.9960434,1.058334 7.5310653,1.058334 2.535021,0 7.531064,-1.058334 7.531064,-1.058334 0,0 1.058334,-6.264455 1.058334,-9.426297 0,-3.1618414 -1.058334,-9.4262962 -1.058334,-9.4262962 0,0 -4.996043,-1.05833338 -7.531064,-1.05833338 -2.5350219,0 -7.5310653,1.05833338 -7.5310653,1.05833338 z m 1.0221597,1.2789905 c 0,0 4.3109499,-1.0583333 6.5091636,-1.0583333 2.198213,0 6.509163,1.0583333 6.509163,1.0583333 0,0 1.058333,5.4087209 1.058333,8.1473057 0,2.738586 -1.058333,8.147307 -1.058333,8.147307 0,0 -4.31095,1.058333 -6.509163,1.058333 -2.1982137,0 -6.5091636,-1.058333 -6.5091636,-1.058333 0,0 -1.0583333,-5.408721 -1.0583333,-8.147307 0,-2.7385848 1.0583333,-8.1473057 1.0583333,-8.1473057 z"
       sodipodi:nodetypes="cscsczcsccsczcscsc" />
  </g>
</svg>
