<?xml version="1.0" encoding="UTF-8" standalone="no"?>
<!-- Created with Inkscape (http://www.inkscape.org/) -->

<svg
   xmlns:dc="http://purl.org/dc/elements/1.1/"
   xmlns:cc="http://creativecommons.org/ns#"
   xmlns:rdf="http://www.w3.org/1999/02/22-rdf-syntax-ns#"
   xmlns:svg="http://www.w3.org/2000/svg"
   xmlns="http://www.w3.org/2000/svg"
   xmlns:sodipodi="http://sodipodi.sourceforge.net/DTD/sodipodi-0.dtd"
   xmlns:inkscape="http://www.inkscape.org/namespaces/inkscape"
   width="80"
   height="113"
   viewBox="0 0 21.166666 29.897918"
   version="1.1"
   id="svg29547"
   inkscape:version="0.92.3 (2405546, 2018-03-11)"
   sodipodi:docname="wallCross1.svg"
   inkscape:export-filename="C:\Users\Narthan\Projects\vdna\assets\png\wallpaperCross.png"
   inkscape:export-xdpi="96"
   inkscape:export-ydpi="96">
  <defs
     id="defs29541" />
  <sodipodi:namedview
     id="base"
     pagecolor="#ffffff"
     bordercolor="#666666"
     borderopacity="1.0"
     inkscape:pageopacity="0.0"
     inkscape:pageshadow="2"
     inkscape:zoom="4.0422821"
     inkscape:cx="2.3426006"
     inkscape:cy="39.729977"
     inkscape:document-units="mm"
     inkscape:current-layer="layer1"
     showgrid="false"
     units="px"
     inkscape:window-width="1920"
     inkscape:window-height="1017"
     inkscape:window-x="-8"
     inkscape:window-y="-8"
     inkscape:window-maximized="1" />
  <metadata
     id="metadata29544">
    <rdf:RDF>
      <cc:Work
         rdf:about="">
        <dc:format>image/svg+xml</dc:format>
        <dc:type
           rdf:resource="http://purl.org/dc/dcmitype/StillImage" />
        <dc:title />
      </cc:Work>
    </rdf:RDF>
  </metadata>
  <g
     inkscape:label="Layer 1"
     inkscape:groupmode="layer"
     id="layer1"
     transform="translate(0,-267.10207)">
    <ellipse
       style="opacity:1;vector-effect:none;fill:#1a1a1a;fill-opacity:0.98477155;fill-rule:nonzero;stroke:#2b0000;stroke-width:0.0861176;stroke-linecap:butt;stroke-linejoin:miter;stroke-miterlimit:4;stroke-dasharray:none;stroke-dashoffset:0;stroke-opacity:1"
       id="path30092"
       cx="10.683042"
       cy="276.54367"
       rx="3.8307672"
       ry="2.3675444"
       inkscape:export-filename="C:\Users\Narthan\Projects\vdna\assets\png\wallpaperCross.png"
       inkscape:export-xdpi="96"
       inkscape:export-ydpi="96" />
    <path
       id="path28051"
       d="m 10.604588,271.73049 a 0.98415926,2.1874235 0 0 0 -0.9841494,2.18744 0.98415926,2.1874235 0 0 0 0.090052,0.90788 1.8833701,1.8833701 0 0 0 -0.7337226,0.71506 2.1874235,0.98415926 0 0 0 -0.9356574,-0.0959 2.1874235,0.98415926 0 0 0 -2.1874316,0.98416 2.1874235,0.98415926 0 0 0 2.1874316,0.9842 2.1874235,0.98415926 0 0 0 0.8844294,-0.0853 1.8833701,1.8833701 0 0 0 0.8953075,0.86389 0.97535003,3.7742475 0 0 0 -0.1916043,2.23944 0.97535003,3.7742475 0 0 0 0.9753378,3.77429 0.97535003,3.7742475 0 0 0 0.975339,-3.77429 0.97535003,3.7742475 0 0 0 -0.191724,-2.23974 1.8833701,1.8833701 0 0 0 0.91153,-0.89361 2.1874235,0.98415926 0 0 0 1.02523,0.11545 2.1874235,0.98415926 0 0 0 2.187434,-0.9842 2.1874235,0.98415926 0 0 0 -2.187434,-0.98416 2.1874235,0.98415926 0 0 0 -1.071534,0.12753 1.8833701,1.8833701 0 0 0 -0.754324,-0.74795 0.98415926,2.1874235 0 0 0 0.08964,-0.90662 0.98415926,2.1874235 0 0 0 -0.984151,-2.18743 z"
       style="opacity:1;vector-effect:none;fill:#1a1a1a;fill-opacity:0.98477155;fill-rule:nonzero;stroke:#2b0000;stroke-width:0.0861176;stroke-linecap:butt;stroke-linejoin:miter;stroke-miterlimit:4;stroke-dasharray:none;stroke-dashoffset:0;stroke-opacity:1"
       inkscape:connector-curvature="0"
       inkscape:export-filename="C:\Users\Narthan\Projects\vdna\assets\png\wallpaperCross.png"
       inkscape:export-xdpi="96"
       inkscape:export-ydpi="96" />
    <path
       inkscape:transform-center-y="-3.469763"
       inkscape:transform-center-x="3.1100154"
       sodipodi:nodetypes="ssscs"
       inkscape:connector-curvature="0"
       d="m 8.076126,272.45241 c -0.1064584,-0.18021 -0.046671,-0.4126 0.1335412,-0.51906 0.1802111,-0.10646 0.4126041,-0.0467 0.5190633,0.13353 0.1064591,0.18022 -0.053496,0.65457 0.011847,0.76518 -0.065343,-0.11061 -0.5579923,-0.19944 -0.6644515,-0.37965 z"
       style="opacity:1;vector-effect:none;fill:#550000;fill-opacity:0.98477155;fill-rule:nonzero;stroke:none;stroke-width:0.19755386;stroke-linecap:butt;stroke-linejoin:miter;stroke-miterlimit:4;stroke-dasharray:none;stroke-dashoffset:0;stroke-opacity:1"
       id="path30116" />
    <path
       inkscape:transform-center-y="-3.4698473"
       inkscape:transform-center-x="3.1100153"
       sodipodi:nodetypes="ssscs"
       inkscape:connector-curvature="0"
       d="m 6.4829623,274.14502 c -0.1823022,-0.10284 -0.2467201,-0.334 -0.1438823,-0.5163 0.1028385,-0.1823 0.3339902,-0.24672 0.5162917,-0.14388 0.1823013,0.10284 0.2809522,0.59361 0.3928459,0.65674 -0.1118937,-0.0631 -0.5829546,0.10627 -0.7652553,0.003 z"
       style="opacity:1;vector-effect:none;fill:#550000;fill-opacity:0.98477155;fill-rule:nonzero;stroke:none;stroke-width:0.19755386;stroke-linecap:butt;stroke-linejoin:miter;stroke-miterlimit:4;stroke-dasharray:none;stroke-dashoffset:0;stroke-opacity:1"
       id="path30118" />
    <path
       inkscape:transform-center-y="-3.469759"
       inkscape:transform-center-x="3.1100121"
       sodipodi:nodetypes="ssscs"
       inkscape:connector-curvature="0"
       d="m 12.868804,272.3245 c 0.10284,-0.18231 0.33399,-0.24672 0.516294,-0.14388 0.1823,0.10283 0.24672,0.33398 0.143882,0.51629 -0.102836,0.18229 -0.593615,0.28095 -0.656733,0.39284 0.06311,-0.11189 -0.106278,-0.58295 -0.0034,-0.76525 z"
       style="opacity:1;vector-effect:none;fill:#550000;fill-opacity:0.98477155;fill-rule:nonzero;stroke:none;stroke-width:0.19755386;stroke-linecap:butt;stroke-linejoin:miter;stroke-miterlimit:4;stroke-dasharray:none;stroke-dashoffset:0;stroke-opacity:1"
       id="path30120" />
    <path
       inkscape:transform-center-y="-3.4697663"
       inkscape:transform-center-x="3.1100155"
       sodipodi:nodetypes="ssscs"
       inkscape:connector-curvature="0"
       d="m 14.561405,273.91766 c 0.180213,-0.10646 0.412604,-0.0467 0.519065,0.13355 0.106458,0.1802 0.04667,0.4126 -0.133539,0.51905 -0.18021,0.10647 -0.654562,-0.0535 -0.765172,0.0119 0.11061,-0.0654 0.199439,-0.55799 0.379649,-0.66445 z"
       style="opacity:1;vector-effect:none;fill:#550000;fill-opacity:0.98477155;fill-rule:nonzero;stroke:none;stroke-width:0.19755386;stroke-linecap:butt;stroke-linejoin:miter;stroke-miterlimit:4;stroke-dasharray:none;stroke-dashoffset:0;stroke-opacity:1"
       id="path30122" />
    <path
       inkscape:transform-center-y="-3.4696694"
       inkscape:transform-center-x="3.1100154"
       sodipodi:nodetypes="ssscs"
       inkscape:connector-curvature="0"
       d="m 14.689321,278.71034 c 0.182302,0.10283 0.24672,0.33399 0.143882,0.51629 -0.102838,0.1823 -0.33399,0.24672 -0.516292,0.14389 -0.182301,-0.10285 -0.280952,-0.59362 -0.392846,-0.65674 0.111894,0.0631 0.582955,-0.10627 0.765256,-0.003 z"
       style="opacity:1;vector-effect:none;fill:#550000;fill-opacity:0.98477155;fill-rule:nonzero;stroke:none;stroke-width:0.19755386;stroke-linecap:butt;stroke-linejoin:miter;stroke-miterlimit:4;stroke-dasharray:none;stroke-dashoffset:0;stroke-opacity:1"
       id="path30124" />
    <path
       inkscape:transform-center-y="-3.4697547"
       inkscape:transform-center-x="3.1100151"
       sodipodi:nodetypes="ssscs"
       inkscape:connector-curvature="0"
       d="m 13.096157,280.40294 c 0.106458,0.18022 0.04667,0.4126 -0.133541,0.51906 -0.180211,0.10646 -0.412604,0.0467 -0.519064,-0.13353 -0.106459,-0.18021 0.0535,-0.65456 -0.01185,-0.76518 0.06535,0.11062 0.557992,0.19944 0.664451,0.37966 z"
       style="opacity:1;vector-effect:none;fill:#550000;fill-opacity:0.98477155;fill-rule:nonzero;stroke:none;stroke-width:0.19755386;stroke-linecap:butt;stroke-linejoin:miter;stroke-miterlimit:4;stroke-dasharray:none;stroke-dashoffset:0;stroke-opacity:1"
       id="path30126" />
    <path
       inkscape:transform-center-y="-3.4697564"
       inkscape:transform-center-x="3.1100154"
       sodipodi:nodetypes="ssscs"
       inkscape:connector-curvature="0"
       d="m 8.3034798,280.53086 c -0.1028399,0.1823 -0.3339905,0.24671 -0.5162939,0.14387 -0.1823007,-0.10283 -0.2467202,-0.33398 -0.1438832,-0.51628 0.102837,-0.1823 0.5936155,-0.28096 0.6567338,-0.39284 -0.063118,0.11188 0.1062775,0.58294 0.00344,0.76525 z"
       style="opacity:1;vector-effect:none;fill:#550000;fill-opacity:0.98477155;fill-rule:nonzero;stroke:none;stroke-width:0.19755386;stroke-linecap:butt;stroke-linejoin:miter;stroke-miterlimit:4;stroke-dasharray:none;stroke-dashoffset:0;stroke-opacity:1"
       id="path30128" />
    <path
       id="path30112"
       style="opacity:1;vector-effect:none;fill:#550000;fill-opacity:0.98477155;fill-rule:nonzero;stroke:none;stroke-width:0.19755386;stroke-linecap:butt;stroke-linejoin:miter;stroke-miterlimit:4;stroke-dasharray:none;stroke-dashoffset:0;stroke-opacity:1"
       d="m 6.6108778,278.93769 c -0.180213,0.10647 -0.4126043,0.0467 -0.5190648,-0.13353 -0.1064578,-0.18021 -0.046671,-0.41261 0.1335393,-0.51907 0.1802103,-0.10646 0.6545623,0.0535 0.7651712,-0.0119 -0.1106089,0.0654 -0.1994382,0.55799 -0.3796485,0.66445 z"
       inkscape:connector-curvature="0"
       sodipodi:nodetypes="ssscs"
       inkscape:transform-center-x="4.0713447"
       inkscape:transform-center-y="2.1912628" />
  </g>
</svg>
