<?xml version="1.0" encoding="UTF-8" standalone="no"?>
<!-- Created with Inkscape (http://www.inkscape.org/) -->

<svg
   xmlns:dc="http://purl.org/dc/elements/1.1/"
   xmlns:cc="http://creativecommons.org/ns#"
   xmlns:rdf="http://www.w3.org/1999/02/22-rdf-syntax-ns#"
   xmlns:svg="http://www.w3.org/2000/svg"
   xmlns="http://www.w3.org/2000/svg"
   xmlns:sodipodi="http://sodipodi.sourceforge.net/DTD/sodipodi-0.dtd"
   xmlns:inkscape="http://www.inkscape.org/namespaces/inkscape"
   width="100"
   height="100"
   id="svg2"
   version="1.1"
   inkscape:version="0.92.3 (2405546, 2018-03-11)"
   sodipodi:docname="f.svg">
  <defs
     id="defs4" />
  <sodipodi:namedview
     id="base"
     pagecolor="#ffffff"
     bordercolor="#666666"
     borderopacity="1.0"
     inkscape:pageopacity="0.0"
     inkscape:pageshadow="2"
     inkscape:zoom="1.6710138"
     inkscape:cx="61.327926"
     inkscape:cy="-56.103186"
     inkscape:document-units="px"
     inkscape:current-layer="layer1"
     showgrid="false"
     inkscape:window-width="789"
     inkscape:window-height="800"
     inkscape:window-x="1150"
     inkscape:window-y="122"
     inkscape:window-maximized="0" />
  <metadata
     id="metadata7">
    <rdf:RDF>
      <cc:Work
         rdf:about="">
        <dc:format>image/svg+xml</dc:format>
        <dc:type
           rdf:resource="http://purl.org/dc/dcmitype/StillImage" />
        <dc:title></dc:title>
      </cc:Work>
    </rdf:RDF>
  </metadata>
  <g
     inkscape:label="Layer 1"
     inkscape:groupmode="layer"
     id="layer1"
     transform="translate(0,-952.3622)">
    <path
       class="fil0"
       d="m 25.664214,1007.8864 c 0.548848,-1.3836 1.093704,-2.6977 1.518966,-4.0495 1.521269,-4.83375 2.868442,-10.42685 3.048832,-15.46301 0.07507,-2.09606 0.03577,-4.26321 0.573105,-6.25702 0.558674,-2.07335 2.503208,-3.12514 4.477987,-3.72542 1.272868,-0.38688 2.065359,0.72111 1.749406,2.03389 -0.35464,1.47291 -0.694389,2.97391 -0.767773,4.47599 -0.02349,0.48283 0.741213,1.32814 1.27824,1.45817 2.324814,0.56297 4.684938,1.102 7.060414,1.28438 1.290216,0.099 2.680222,-0.41605 3.942649,-0.87908 0.85912,-0.31487 1.529099,-0.46026 2.245442,0.1827 1.162483,1.04319 2.578895,1.11013 4.068385,1.29835 3.008302,0.38013 5.903918,-0.12973 8.836841,-0.52305 1.986601,-0.26637 2.817468,-1.15957 2.918795,-3.15062 0.223994,-4.40799 1.320154,-5.15687 5.152881,-6.99364 1.784102,-0.85497 2.09898,0.41099 2.022216,1.76906 -0.11376,2.01193 -0.437082,4.02801 -0.362776,6.03088 0.108236,2.91834 0.435547,5.83361 0.795252,8.73447 0.09933,0.8014 0.509239,1.6531 1.011878,2.2988 1.001284,1.2863 1.284535,2.0643 0.742442,2.8459 -0.254081,0.3668 -2.57736,2.25885 -2.966235,2.45635 -0.887215,0.4503 -1.874376,1.0551 -2.796594,1.0193 -2.869056,-0.1112 -5.722757,-0.5731 -8.591662,-0.7415 -3.736466,-0.2194 -6.048537,0.3898 -9.545813,0.7901 -1.926573,0.2204 -3.879244,3.1185 -3.085065,4.8764 0.167035,0.3698 1.167397,0.628 1.703349,0.5238 3.594764,-0.6992 6.912417,0.059 10.00224,1.847 3.453523,1.9988 3.269141,4.8796 0.84776,7.7858 -3.015211,3.6183 -6.932069,5.9953 -11.273573,7.6748 -1.258129,0.4867 -2.627716,0.807 -3.970744,0.9249 -2.240836,0.1965 -3.913786,1.3955 -5.589347,2.6868 -0.608262,0.4689 -1.24861,0.9162 -1.932099,1.2577 -0.773761,0.3864 -1.48995,-0.2284 -1.152658,-1.106 0.95538,-2.4866 2.092532,-4.9116 2.911429,-7.4402 1.32875,-4.1037 2.032964,-9.1445 2.754219,-13.436 0.09918,-0.5902 0.161508,-2.6968 0.178549,-3.2948 0.06126,-2.1584 -0.623308,-1.2108 -2.805343,-0.926 -4.408134,0.5754 -8.422019,2.2199 -12.253209,4.3995 -1.095394,0.6232 -3.614415,1.5142 -2.748386,-0.6692 z M 42.00116,992.59505 c -1.248457,-0.2914 -2.493537,-0.5975 -3.739537,-0.9 -1.652839,-0.40114 -3.525064,0.6278 -3.983179,2.2624 -0.692547,2.4712 -1.364214,4.9497 -1.966336,7.44405 -0.144005,0.597 -0.689168,2.0023 -0.665833,2.5381 2.170522,-0.2822 7.521446,-3.1557 9.885869,-4.07425 2.275993,-0.884 2.798589,-1.1892 2.936607,-3.0192 0.162275,-2.154 0.183307,-3.6321 -2.467591,-4.2511 z m 23.333187,3.9876 c 2.146112,0.018 2.752225,-0.7756 2.109574,-2.7493 -0.07968,-0.2447 -0.09994,-0.5083 -0.159206,-0.7606 -0.372143,-1.58616 -1.638716,-2.34994 -3.264994,-2.10062 -3.307213,0.50724 -6.619032,0.99102 -9.938221,1.41102 -2.17175,0.275 -3.557303,1.8228 -3.1193,3.8624 0.110998,0.5167 0.42081,1.3005 0.881228,1.3169 2.151639,0.077 4.72685,0 6.870965,-0.1939 2.62787,-0.243 4.19842,-0.8055 6.619954,-0.7859 z m -10.360872,23.65645 c 1.563027,-1.3305 1.711792,-2.3116 0.188834,-3.6844 -1.354849,-1.2215 -3.092587,-2.0826 -4.773674,-2.8596 -1.648847,-0.7622 -2.81087,-0.04 -3.279886,1.7253 -0.417432,1.5718 -0.726629,3.1832 -1.281158,4.7051 -0.622386,1.7083 -0.155212,2.6889 1.665735,2.9282 2.750075,0.3618 5.45394,-1.0898 7.480149,-2.8146 z"
       id="path4199"
       inkscape:connector-curvature="0"
       style="clip-rule:evenodd;fill:#000000;fill-rule:nonzero;stroke-width:0.0153524;image-rendering:optimizeQuality;shape-rendering:geometricPrecision;text-rendering:geometricPrecision" />
  </g>
</svg>
