<?xml version="1.0" encoding="UTF-8" standalone="no"?>
<!-- Created with Inkscape (http://www.inkscape.org/) -->

<svg
   xmlns:dc="http://purl.org/dc/elements/1.1/"
   xmlns:cc="http://creativecommons.org/ns#"
   xmlns:rdf="http://www.w3.org/1999/02/22-rdf-syntax-ns#"
   xmlns:svg="http://www.w3.org/2000/svg"
   xmlns="http://www.w3.org/2000/svg"
   xmlns:sodipodi="http://sodipodi.sourceforge.net/DTD/sodipodi-0.dtd"
   xmlns:inkscape="http://www.inkscape.org/namespaces/inkscape"
   width="210mm"
   height="297mm"
   viewBox="0 0 210 297"
   version="1.1"
   id="svg8"
   inkscape:version="0.92.3 (2405546, 2018-03-11)"
   sodipodi:docname="frame.svg">
  <defs
     id="defs2" />
  <sodipodi:namedview
     id="base"
     pagecolor="#ffffff"
     bordercolor="#666666"
     borderopacity="1.0"
     inkscape:pageopacity="0.0"
     inkscape:pageshadow="2"
     inkscape:zoom="5.6"
     inkscape:cx="614.65393"
     inkscape:cy="1051.6459"
     inkscape:document-units="mm"
     inkscape:current-layer="layer1"
     showgrid="false"
     inkscape:window-width="1920"
     inkscape:window-height="1017"
     inkscape:window-x="-8"
     inkscape:window-y="-8"
     inkscape:window-maximized="1" />
  <metadata
     id="metadata5">
    <rdf:RDF>
      <cc:Work
         rdf:about="">
        <dc:format>image/svg+xml</dc:format>
        <dc:type
           rdf:resource="http://purl.org/dc/dcmitype/StillImage" />
        <dc:title></dc:title>
      </cc:Work>
    </rdf:RDF>
  </metadata>
  <g
     inkscape:label="Layer 1"
     inkscape:groupmode="layer"
     id="layer1">
    <circle
       transform="rotate(89.33398)"
       style="opacity:1;vector-effect:none;fill:#000000;fill-opacity:1;fill-rule:nonzero;stroke:#000000;stroke-width:0.241;stroke-linecap:butt;stroke-linejoin:miter;stroke-miterlimit:4;stroke-dasharray:none;stroke-dashoffset:0;stroke-opacity:1"
       id="circle4530"
       cx="76.408806"
       cy="-109.12788"
       r="9.6383924" />
    <circle
       r="9.6383924"
       cy="-128.59894"
       cx="76.611526"
       id="circle4522"
       style="opacity:1;vector-effect:none;fill:#000000;fill-opacity:1;fill-rule:nonzero;stroke:#000000;stroke-width:0.241;stroke-linecap:butt;stroke-linejoin:miter;stroke-miterlimit:4;stroke-dasharray:none;stroke-dashoffset:0;stroke-opacity:1"
       transform="rotate(89.33398)" />
    <circle
       r="9.6383924"
       cy="-119.07756"
       cx="59.628986"
       id="circle4522-4"
       style="opacity:1;vector-effect:none;fill:#000000;fill-opacity:1;fill-rule:nonzero;stroke:#000000;stroke-width:0.241;stroke-linecap:butt;stroke-linejoin:miter;stroke-miterlimit:4;stroke-dasharray:none;stroke-dashoffset:0;stroke-opacity:1"
       transform="rotate(89.33398)" />
    <circle
       transform="rotate(89.33398)"
       style="opacity:1;vector-effect:none;fill:#808000;fill-opacity:1;fill-rule:nonzero;stroke:none;stroke-width:0.16869999;stroke-linecap:butt;stroke-linejoin:miter;stroke-miterlimit:4;stroke-dasharray:none;stroke-dashoffset:0;stroke-opacity:1"
       id="circle4530-7"
       cx="76.408806"
       cy="-109.12788"
       r="6.7468748" />
    <circle
       cy="-128.59894"
       cx="76.611526"
       id="circle4522-9"
       style="opacity:1;vector-effect:none;fill:#808000;fill-opacity:1;fill-rule:nonzero;stroke:none;stroke-width:0.16869999;stroke-linecap:butt;stroke-linejoin:miter;stroke-miterlimit:4;stroke-dasharray:none;stroke-dashoffset:0;stroke-opacity:1"
       transform="rotate(89.33398)"
       r="6.7468748" />
    <circle
       cy="-119.07756"
       cx="59.628986"
       id="circle4522-4-5"
       style="opacity:1;vector-effect:none;fill:#808000;fill-opacity:1;fill-rule:nonzero;stroke:none;stroke-width:0.16869999;stroke-linecap:butt;stroke-linejoin:miter;stroke-miterlimit:4;stroke-dasharray:none;stroke-dashoffset:0;stroke-opacity:1"
       transform="rotate(89.33398)"
       r="6.7468748" />
    <path
       style="opacity:1;vector-effect:none;fill:#ffffff;fill-opacity:1;fill-rule:nonzero;stroke:#ff0000;stroke-width:0.241;stroke-linecap:butt;stroke-linejoin:miter;stroke-miterlimit:4;stroke-dasharray:none;stroke-dashoffset:0;stroke-opacity:1"
       d="m 177.85891,43.689546 a 9.6383924,9.6383924 0 0 0 -9.52552,9.749792 9.6383924,9.6383924 0 0 0 9.74979,9.525516 9.6383924,9.6383924 0 0 0 9.52552,-9.749793 9.6383924,9.6383924 0 0 0 -9.74979,-9.525515 z"
       id="path4639"
       inkscape:connector-curvature="0" />
    <path
       style="opacity:1;vector-effect:none;fill:#ffffff;fill-opacity:1;fill-rule:nonzero;stroke:#ff0000;stroke-width:0.241;stroke-linecap:butt;stroke-linejoin:miter;stroke-miterlimit:4;stroke-dasharray:none;stroke-dashoffset:0;stroke-opacity:1"
       d="m 177.89251,46.580841 a 6.7468747,6.7468747 0 0 1 6.8249,6.667809 6.7468747,6.7468747 0 0 1 -6.66781,6.824906 6.7468747,6.7468747 0 0 1 -6.8249,-6.667809 6.7468747,6.7468747 0 0 1 6.66781,-6.824906 z"
       id="path4637"
       inkscape:connector-curvature="0" />
    <path
       style="opacity:1;vector-effect:none;fill:#ffffff;fill-opacity:1;fill-rule:nonzero;stroke:#ff0000;stroke-width:0.241;stroke-linecap:butt;stroke-linejoin:miter;stroke-miterlimit:4;stroke-dasharray:none;stroke-dashoffset:0;stroke-opacity:1"
       d="m 186.53776,57.72501 a 9.6383924,9.6383924 0 0 0 -9.52604,9.749793 9.6383924,9.6383924 0 0 0 9.7498,9.526034 9.6383924,9.6383924 0 0 0 9.52603,-9.749792 9.6383924,9.6383924 0 0 0 -9.74979,-9.526035 z"
       id="path4635"
       inkscape:connector-curvature="0" />
    <path
       style="opacity:1;vector-effect:none;fill:#ffffff;fill-opacity:1;fill-rule:nonzero;stroke:#ff0000;stroke-width:0.241;stroke-linecap:butt;stroke-linejoin:miter;stroke-miterlimit:4;stroke-dasharray:none;stroke-dashoffset:0;stroke-opacity:1"
       d="m 186.57135,60.616841 a 6.7468747,6.7468747 0 0 1 6.8249,6.66781 6.7468747,6.7468747 0 0 1 -6.66832,6.824908 6.7468747,6.7468747 0 0 1 -6.82491,-6.668328 6.7468747,6.7468747 0 0 1 6.66833,-6.82439 z"
       id="path4631"
       inkscape:connector-curvature="0" />
    <path
       style="opacity:1;vector-effect:none;fill:none;fill-opacity:1;fill-rule:nonzero;stroke:#800080;stroke-width:0.91086614;stroke-linecap:butt;stroke-linejoin:miter;stroke-miterlimit:4;stroke-dasharray:none;stroke-dashoffset:0;stroke-opacity:1"
       d="m 596.69727,-21.201172 a 36.42857,36.42857 0 0 0 -36.00196,36.84961 36.42857,36.42857 0 0 0 4.42383,16.9375 36.42857,36.42857 0 0 0 -35.40625,36.8125 36.42857,36.42857 0 0 0 36.84961,36.003902 36.42857,36.42857 0 0 0 30.57812,-17.316402 36.42857,36.42857 0 0 0 31.38672,17.316402 36.42857,36.42857 0 0 0 36.00196,-36.849606 36.42857,36.42857 0 0 0 -35.42969,-35.970703 36.42857,36.42857 0 0 0 4.44727,-17.779297 36.42857,36.42857 0 0 0 -36.84961,-36.003906 z m 0.12695,10.927734 a 25.499999,25.499999 0 0 1 25.79492,25.203126 25.499999,25.499999 0 0 1 -25.20117,25.792968 25.499999,25.499999 0 0 1 -25.79492,-25.201172 25.499999,25.499999 0 0 1 25.20117,-25.794922 z m -30.98242,53.75 A 25.499999,25.499999 0 0 1 591.63672,68.679688 25.499999,25.499999 0 0 1 566.43555,94.472656 25.499999,25.499999 0 0 1 540.64062,69.271484 25.499999,25.499999 0 0 1 565.8418,43.476562 Z m 61.96484,0 a 25.499999,25.499999 0 0 1 25.79492,25.203126 25.499999,25.499999 0 0 1 -25.20117,25.792968 25.499999,25.499999 0 0 1 -25.79492,-25.201172 25.499999,25.499999 0 0 1 25.20117,-25.794922 z"
       id="path4692"
       inkscape:connector-curvature="0"
       transform="scale(0.26458333)" />
    <path
       id="circle4522-4-3-1"
       style="opacity:1;vector-effect:none;fill:#00ffff;fill-opacity:1;fill-rule:nonzero;stroke:#ff0000;stroke-width:0.241;stroke-linecap:butt;stroke-linejoin:miter;stroke-miterlimit:4;stroke-dasharray:none;stroke-dashoffset:0;stroke-opacity:1"
       d="m 103.6539,-43.209483 a 6.7468747,6.7468747 0 0 1 6.82491,6.668329 6.7468747,6.7468747 0 0 1 -6.66781,6.824391 6.7468747,6.7468747 0 0 1 -6.824914,-6.667813 6.7468747,6.7468747 0 0 1 6.667814,-6.824907 z m -0.0336,-2.8913 a 9.6383925,9.6383925 0 0 0 -9.525524,9.749793 9.6383925,9.6383925 0 0 0 9.749804,9.526032 9.6383925,9.6383925 0 0 0 9.52551,-9.749793 9.6383925,9.6383925 0 0 0 -9.74979,-9.526032 z"
       inkscape:connector-curvature="0" />
    <path
       inkscape:connector-curvature="0"
       d="m 101.33647,16.046779 a 6.7468747,6.7468747 0 0 1 6.82491,6.668328 6.7468747,6.7468747 0 0 1 -6.66781,6.824389 6.7468747,6.7468747 0 0 1 -6.824915,-6.667811 6.7468747,6.7468747 0 0 1 6.667815,-6.824906 z m -0.0336,-2.891301 a 9.6383925,9.6383925 0 0 0 -9.525525,9.749793 9.6383925,9.6383925 0 0 0 9.749805,9.526031 9.6383925,9.6383925 0 0 0 9.52551,-9.749792 9.6383925,9.6383925 0 0 0 -9.74979,-9.526032 z"
       style="opacity:1;vector-effect:none;fill:#ff0000;fill-opacity:1;fill-rule:nonzero;stroke:#0000ff;stroke-width:0.241;stroke-linecap:butt;stroke-linejoin:miter;stroke-miterlimit:4;stroke-dasharray:none;stroke-dashoffset:0;stroke-opacity:1"
       id="path4692-6" />
    <path
       inkscape:connector-curvature="0"
       d="m 157.91734,-2.0649102 a 6.093579,6.093579 0 0 1 6.16406,6.0226379 6.093579,6.093579 0 0 1 -6.02217,6.1635883 6.093579,6.093579 0 0 1 -6.16406,-6.0221716 6.093579,6.093579 0 0 1 6.02217,-6.1640546 z m -0.0303,-2.6113381 a 8.7051129,8.7051129 0 0 0 -8.60317,8.8057266 8.7051129,8.7051129 0 0 0 8.80573,8.6036317 8.7051129,8.7051129 0 0 0 8.60316,-8.8057261 8.7051129,8.7051129 0 0 0 -8.80572,-8.6036322 z"
       style="opacity:1;vector-effect:none;fill:none;fill-opacity:1;fill-rule:nonzero;stroke:#0000ff;stroke-width:0.21766412;stroke-linecap:butt;stroke-linejoin:miter;stroke-miterlimit:4;stroke-dasharray:none;stroke-dashoffset:0;stroke-opacity:1"
       id="path4892" />
    <path
       inkscape:connector-curvature="0"
       d="m 157.92495,-1.41164 a 5.4402833,5.4402833 0 0 1 5.50321,5.3769479 5.4402833,5.4402833 0 0 1 -5.37653,5.5027866 5.4402833,5.4402833 0 0 1 -5.50321,-5.3765313 5.4402833,5.4402833 0 0 1 5.37653,-5.5032032 z m -0.0271,-2.3313752 a 7.7718334,7.7718334 0 0 0 -7.68082,7.8616601 7.7718334,7.7718334 0 0 0 7.86166,7.6812321 7.7718334,7.7718334 0 0 0 7.68081,-7.8616598 7.7718334,7.7718334 0 0 0 -7.86165,-7.6812324 z"
       style="opacity:1;vector-effect:none;fill:none;fill-opacity:1;fill-rule:nonzero;stroke:#0000ff;stroke-width:0.19432823;stroke-linecap:butt;stroke-linejoin:miter;stroke-miterlimit:4;stroke-dasharray:none;stroke-dashoffset:0;stroke-opacity:1"
       id="path4894" />
    <path
       id="circle4522-4-3-1-7"
       style="opacity:1;vector-effect:none;fill:none;fill-opacity:1;fill-rule:nonzero;stroke:#0000ff;stroke-width:0.241;stroke-linecap:butt;stroke-linejoin:miter;stroke-miterlimit:4;stroke-dasharray:none;stroke-dashoffset:0;stroke-opacity:1"
       d="m 125.43636,-39.601344 a 6.7468747,6.7468747 0 0 1 6.82491,6.668329 6.7468747,6.7468747 0 0 1 -6.66781,6.824391 6.7468747,6.7468747 0 0 1 -6.82491,-6.667813 6.7468747,6.7468747 0 0 1 6.66781,-6.824907 z m -0.0336,-2.891301 a 9.6383925,9.6383925 0 0 0 -9.52552,9.749794 9.6383925,9.6383925 0 0 0 9.7498,9.526032 9.6383925,9.6383925 0 0 0 9.52551,-9.749793 9.6383925,9.6383925 0 0 0 -9.74979,-9.526033 z"
       inkscape:connector-curvature="0" />
    <path
       id="path4980"
       style="opacity:1;vector-effect:none;fill:none;fill-opacity:1;fill-rule:nonzero;stroke:#0000ff;stroke-width:0.13599129;stroke-linecap:butt;stroke-linejoin:miter;stroke-miterlimit:4;stroke-dasharray:none;stroke-dashoffset:0;stroke-opacity:1"
       d="m 149.74654,14.442812 a 3.8071214,3.8071214 0 0 1 3.85115,3.762799 3.8071214,3.8071214 0 0 1 -3.7625,3.850861 3.8071214,3.8071214 0 0 1 -3.85116,-3.762507 3.8071214,3.8071214 0 0 1 3.76251,-3.851153 z m -0.019,-1.631502 a 5.4387449,5.4387449 0 0 0 -5.37505,5.501607 5.4387449,5.4387449 0 0 0 5.50161,5.375341 5.4387449,5.4387449 0 0 0 5.37504,-5.501605 5.4387449,5.4387449 0 0 0 -5.5016,-5.375343 z"
       inkscape:connector-curvature="0" />
    <path
       inkscape:connector-curvature="0"
       d="m 149.71232,11.503174 a 6.7468747,6.7468747 0 0 1 6.82491,6.668328 6.7468747,6.7468747 0 0 1 -6.66781,6.824388 6.7468747,6.7468747 0 0 1 -6.82491,-6.66781 6.7468747,6.7468747 0 0 1 6.66781,-6.824906 z m -0.0336,-2.891302 a 9.6383925,9.6383925 0 0 0 -9.52552,9.749794 9.6383925,9.6383925 0 0 0 9.7498,9.52603 9.6383925,9.6383925 0 0 0 9.52551,-9.749791 9.6383925,9.6383925 0 0 0 -9.74979,-9.526033 z"
       style="opacity:1;vector-effect:none;fill:none;fill-opacity:1;fill-rule:nonzero;stroke:#0000ff;stroke-width:0.241;stroke-linecap:butt;stroke-linejoin:miter;stroke-miterlimit:4;stroke-dasharray:none;stroke-dashoffset:0;stroke-opacity:1"
       id="path4692-6-4"
       transform="matrix(0.56427925,0,0,0.56427925,65.266983,7.9518095)" />
    <path
       inkscape:connector-curvature="0"
       d="m 166.1163,12.287098 a 5.9629198,5.9629198 0 0 1 6.03188,5.8935 5.9629198,5.9629198 0 0 1 -5.89304,6.031426 5.9629198,5.9629198 0 0 1 -6.03189,-5.893042 5.9629198,5.9629198 0 0 1 5.89305,-6.031884 z m -0.0297,-2.5553467 a 8.518457,8.518457 0 0 0 -8.4187,8.6169147 8.518457,8.518457 0 0 0 8.61692,8.41915 8.518457,8.518457 0 0 0 8.41869,-8.616911 8.518457,8.518457 0 0 0 -8.61691,-8.4191537 z"
       style="opacity:1;vector-effect:none;fill:none;fill-opacity:1;fill-rule:nonzero;stroke:#0000ff;stroke-width:0.21299694;stroke-linecap:butt;stroke-linejoin:miter;stroke-miterlimit:4;stroke-dasharray:none;stroke-dashoffset:0;stroke-opacity:1"
       id="path5014" />
    <path
       inkscape:connector-curvature="0"
       d="m 166.1239,12.940368 a 5.3096241,5.3096241 0 0 1 5.37104,5.24781 5.3096241,5.3096241 0 0 1 -5.24741,5.370625 5.3096241,5.3096241 0 0 1 -5.37103,-5.247402 5.3096241,5.3096241 0 0 1 5.2474,-5.371033 z m -0.0264,-2.275384 a 7.5851774,7.5851774 0 0 0 -7.49635,7.672848 7.5851774,7.5851774 0 0 0 7.67285,7.496751 7.5851774,7.5851774 0 0 0 7.49634,-7.672845 7.5851774,7.5851774 0 0 0 -7.67284,-7.496754 z"
       style="opacity:1;vector-effect:none;fill:none;fill-opacity:1;fill-rule:nonzero;stroke:#0000ff;stroke-width:0.18966106;stroke-linecap:butt;stroke-linejoin:miter;stroke-miterlimit:4;stroke-dasharray:none;stroke-dashoffset:0;stroke-opacity:1"
       id="path5016" />
    <path
       id="circle4522-4-3-6-4"
       style="opacity:1;vector-effect:none;fill:none;fill-opacity:1;fill-rule:nonzero;stroke:#0000ff;stroke-width:0.11498956;stroke-linecap:butt;stroke-linejoin:miter;stroke-miterlimit:4;stroke-dasharray:none;stroke-dashoffset:0;stroke-opacity:1"
       d="m 166.14823,15.030739 a 3.2191708,3.2191708 0 0 1 3.25641,3.181694 3.2191708,3.2191708 0 0 1 -3.18145,3.256155 3.2191708,3.2191708 0 0 1 -3.2564,-3.181446 3.2191708,3.2191708 0 0 1 3.18144,-3.256403 z m -0.016,-1.379542 a 4.5988155,4.5988155 0 0 0 -4.54496,4.65197 4.5988155,4.5988155 0 0 0 4.65197,4.545203 4.5988155,4.5988155 0 0 0 4.54496,-4.651967 4.5988155,4.5988155 0 0 0 -4.65197,-4.545206 z"
       inkscape:connector-curvature="0" />
    <path
       id="circle4522-4-3-1-7-8"
       style="opacity:1;vector-effect:none;fill:#ff0000;fill-opacity:1;fill-rule:nonzero;stroke:#0000ff;stroke-width:0.241;stroke-linecap:butt;stroke-linejoin:miter;stroke-miterlimit:4;stroke-dasharray:none;stroke-dashoffset:0;stroke-opacity:1"
       d="m 87.517499,-35.224806 a 6.7468747,6.7468747 0 0 1 6.82491,6.66833 6.7468747,6.7468747 0 0 1 -6.66781,6.824392 6.7468747,6.7468747 0 0 1 -6.82491,-6.667814 6.7468747,6.7468747 0 0 1 6.66781,-6.824908 z m -0.0336,-2.8913 a 9.6383925,9.6383925 0 0 0 -9.52552,9.749794 9.6383925,9.6383925 0 0 0 9.7498,9.526031 9.6383925,9.6383925 0 0 0 9.52551,-9.749792 9.6383925,9.6383925 0 0 0 -9.74979,-9.526033 z"
       inkscape:connector-curvature="0" />
    <path
       inkscape:connector-curvature="0"
       d="m 79.954903,-1.4593741 a 6.7468747,6.7468747 0 0 1 6.82491,6.668329 6.7468747,6.7468747 0 0 1 -6.66781,6.8243871 6.7468747,6.7468747 0 0 1 -6.82491,-6.6678091 6.7468747,6.7468747 0 0 1 6.66781,-6.824907 z m -0.0336,-2.8913024 a 9.6383925,9.6383925 0 0 0 -9.52552,9.7497954 9.6383925,9.6383925 0 0 0 9.7498,9.5260291 9.6383925,9.6383925 0 0 0 9.52551,-9.7497901 9.6383925,9.6383925 0 0 0 -9.74979,-9.5260344 z"
       style="opacity:1;vector-effect:none;fill:none;fill-opacity:1;fill-rule:nonzero;stroke:#800080;stroke-width:0.241;stroke-linecap:butt;stroke-linejoin:miter;stroke-miterlimit:4;stroke-dasharray:none;stroke-dashoffset:0;stroke-opacity:1"
       id="path4692-6-4-0" />
    <path
       id="circle4522-4-3-6-4-0"
       style="opacity:1;vector-effect:none;fill:none;fill-opacity:1;fill-rule:nonzero;stroke:#800080;stroke-width:0.241;stroke-linecap:butt;stroke-linejoin:miter;stroke-miterlimit:4;stroke-dasharray:none;stroke-dashoffset:0;stroke-opacity:1"
       d="m 211.67642,-15.891929 a 6.7468747,6.7468747 0 0 1 6.82491,6.6683294 6.7468747,6.7468747 0 0 1 -6.66781,6.824387 6.7468747,6.7468747 0 0 1 -6.82491,-6.667809 6.7468747,6.7468747 0 0 1 6.66781,-6.8249074 z m -0.0336,-2.891302 a 9.6383925,9.6383925 0 0 0 -9.52552,9.7497954 9.6383925,9.6383925 0 0 0 9.7498,9.526029 9.6383925,9.6383925 0 0 0 9.52551,-9.74979 9.6383925,9.6383925 0 0 0 -9.74979,-9.5260344 z"
       inkscape:connector-curvature="0" />
    <path
       style="opacity:1;vector-effect:none;fill:none;fill-opacity:1;fill-rule:nonzero;stroke:#800080;stroke-width:0.91086614;stroke-linecap:butt;stroke-linejoin:miter;stroke-miterlimit:4;stroke-dasharray:none;stroke-dashoffset:0;stroke-opacity:1"
       d="m 609.31046,37.796678 c -5.45359,3.29572 -10.04356,8.020541 -13.18741,13.822463 0.4737,0.02032 0.94774,0.03139 1.42187,0.0332 m 18.36811,-5.24834 c 5.45325,-3.295707 10.0429,-8.020353 13.18658,-13.821973"
       transform="scale(0.26458333)"
       id="circle4522-4-3-1-7-1-4"
       inkscape:connector-curvature="0"
       sodipodi:nodetypes="ccccc" />
    <path
       style="opacity:1;vector-effect:none;fill:none;fill-opacity:1;fill-rule:nonzero;stroke:#800080;stroke-width:0.91086614;stroke-linecap:butt;stroke-linejoin:miter;stroke-miterlimit:4;stroke-dasharray:none;stroke-dashoffset:0;stroke-opacity:1"
       d="m 578.2186,46.351886 c 5.71746,3.476442 12.38634,5.376599 19.32632,5.300455 M 584.57795,37.573473 c -5.61294,-3.300618 -12.10962,-5.098384 -18.86311,-5.024645 -0.19866,0.01074 -0.39724,0.02311 -0.5957,0.03711"
       transform="scale(0.26458333)"
       id="circle4522-4-3-1-7-1-3"
       inkscape:connector-curvature="0"
       sodipodi:nodetypes="ccccc" />
    <path
       style="opacity:1;vector-effect:none;fill:none;fill-opacity:1;fill-rule:nonzero;stroke:#800080;stroke-width:0.91086614;stroke-linecap:butt;stroke-linejoin:miter;stroke-miterlimit:4;stroke-dasharray:none;stroke-dashoffset:0;stroke-opacity:1"
       d="m 602.56445,68.552734 c -0.0921,-6.608763 -1.98054,-13.067941 -5.46289,-18.685546 m -5.42383,19.53125 c 0.0918,6.609428 1.9802,13.069328 5.46289,18.6875"
       transform="scale(0.26458333)"
       id="path4692-6-4-0-1"
       inkscape:connector-curvature="0"
       sodipodi:nodetypes="cccc" />
    <path
       style="opacity:1;vector-effect:none;fill:none;fill-opacity:1;fill-rule:nonzero;stroke:#800080;stroke-width:0.241;stroke-linecap:butt;stroke-linejoin:miter;stroke-miterlimit:4;stroke-dasharray:none;stroke-dashoffset:0;stroke-opacity:1"
       d="m 157.87615,-5.6094762 a 9.6383925,9.6383925 0 0 0 -9.52552,9.7497927 9.6383925,9.6383925 0 0 0 1.17047,4.4813797 9.6383925,9.6383925 0 0 0 -9.3679,9.7399738 9.6383925,9.6383925 0 0 0 9.74979,9.526034 9.6383925,9.6383925 0 0 0 8.09046,-4.581634 9.6383925,9.6383925 0 0 0 8.30441,4.581634 9.6383925,9.6383925 0 0 0 9.52551,-9.749793 9.6383925,9.6383925 0 0 0 -9.3741,-9.5172478 9.6383925,9.6383925 0 0 0 1.17667,-4.7041059 9.6383925,9.6383925 0 0 0 -9.74979,-9.5260335 z m 0.0336,2.8912963 a 6.7468747,6.7468747 0 0 1 6.8249,6.6683271 6.7468747,6.7468747 0 0 1 -6.6678,6.8243888 6.7468747,6.7468747 0 0 1 -6.82491,-6.6678095 6.7468747,6.7468747 0 0 1 6.66781,-6.8249064 z m -8.19743,14.2213539 a 6.7468747,6.7468747 0 0 1 6.8249,6.668327 6.7468747,6.7468747 0 0 1 -6.66781,6.824389 6.7468747,6.7468747 0 0 1 -6.8249,-6.667809 6.7468747,6.7468747 0 0 1 6.66781,-6.824907 z m 16.39486,0 a 6.7468747,6.7468747 0 0 1 6.82491,6.668327 6.7468747,6.7468747 0 0 1 -6.66781,6.824389 6.7468747,6.7468747 0 0 1 -6.82491,-6.667809 6.7468747,6.7468747 0 0 1 6.66781,-6.824907 z"
       id="path4692-5"
       inkscape:connector-curvature="0" />
    <path
       style="opacity:1;vector-effect:none;fill:none;fill-opacity:1;fill-rule:nonzero;stroke:#800080;stroke-width:0.241;stroke-linecap:butt;stroke-linejoin:miter;stroke-miterlimit:4;stroke-dasharray:none;stroke-dashoffset:0;stroke-opacity:1"
       d="m 161.21339,10.000371 c -1.44293,0.871993 -2.65736,2.122102 -3.48917,3.657194 0.12533,0.0054 0.25076,0.0083 0.3762,0.0088 m 4.8599,-1.388623 c 1.44284,-0.87199 2.65718,-2.122052 3.48895,-3.6570638"
       id="circle4522-4-3-1-7-1-4-4"
       inkscape:connector-curvature="0"
       sodipodi:nodetypes="ccccc" />
    <path
       style="opacity:1;vector-effect:none;fill:none;fill-opacity:1;fill-rule:nonzero;stroke:#800080;stroke-width:0.241;stroke-linecap:butt;stroke-linejoin:miter;stroke-miterlimit:4;stroke-dasharray:none;stroke-dashoffset:0;stroke-opacity:1"
       d="m 152.987,12.263937 c 1.51275,0.919808 3.27722,1.422558 5.11342,1.402412 m -3.43084,-3.7250338 c -1.48509,-0.873288 -3.204,-1.348947 -4.99086,-1.329437 -0.0526,0.0028 -0.10511,0.0061 -0.15762,0.0098"
       id="circle4522-4-3-1-7-1-3-4"
       inkscape:connector-curvature="0"
       sodipodi:nodetypes="ccccc" />
    <path
       style="opacity:1;vector-effect:none;fill:none;fill-opacity:1;fill-rule:nonzero;stroke:#800080;stroke-width:0.241;stroke-linecap:butt;stroke-linejoin:miter;stroke-miterlimit:4;stroke-dasharray:none;stroke-dashoffset:0;stroke-opacity:1"
       d="m 159.42851,18.137911 c -0.0244,-1.748568 -0.52402,-3.457559 -1.44539,-4.943884 m -1.43506,5.167643 c 0.0243,1.748745 0.52393,3.457926 1.44539,4.9444"
       id="path4692-6-4-0-1-4"
       inkscape:connector-curvature="0"
       sodipodi:nodetypes="cccc" />
    <path
       inkscape:connector-curvature="0"
       d="m 149.72299,12.417726 a 5.8322847,5.8322847 0 0 1 5.89973,5.764387 5.8322847,5.8322847 0 0 1 -5.76393,5.89929 5.8322847,5.8322847 0 0 1 -5.89974,-5.763939 5.8322847,5.8322847 0 0 1 5.76394,-5.899738 z m -0.0291,-2.4993634 a 8.3318354,8.3318354 0 0 0 -8.23426,8.4281354 8.3318354,8.3318354 0 0 0 8.42814,8.234704 8.3318354,8.3318354 0 0 0 8.23425,-8.428133 8.3318354,8.3318354 0 0 0 -8.42813,-8.2347064 z"
       style="opacity:1;vector-effect:none;fill:none;fill-opacity:1;fill-rule:nonzero;stroke:#0000ff;stroke-width:0.20833062;stroke-linecap:butt;stroke-linejoin:miter;stroke-miterlimit:4;stroke-dasharray:none;stroke-dashoffset:0;stroke-opacity:1"
       id="path4692-6-4-7" />
    <path
       inkscape:connector-curvature="0"
       d="m 157.93276,-0.74067609 a 4.769287,4.769287 0 0 1 4.82444,4.71376309 4.769287,4.769287 0 0 1 -4.71339,4.8240811 4.769287,4.769287 0 0 1 -4.82445,-4.7133978 4.769287,4.769287 0 0 1 4.7134,-4.82444639 z m -0.0237,-2.04382701 a 6.8132669,6.8132669 0 0 0 -6.73348,6.8920149 6.8132669,6.8132669 0 0 0 6.89202,6.7338412 6.8132669,6.8132669 0 0 0 6.73347,-6.8920154 6.8132669,6.8132669 0 0 0 -6.89201,-6.7338407 z"
       style="opacity:1;vector-effect:none;fill:none;fill-opacity:1;fill-rule:nonzero;stroke:#0000ff;stroke-width:0.17036007;stroke-linecap:butt;stroke-linejoin:miter;stroke-miterlimit:4;stroke-dasharray:none;stroke-dashoffset:0;stroke-opacity:1"
       id="path5048" />
    <path
       id="circle4522-4-3-6-85"
       style="opacity:1;vector-effect:none;fill:none;fill-opacity:1;fill-rule:nonzero;stroke:#0000ff;stroke-width:0.22976354;stroke-linecap:butt;stroke-linejoin:miter;stroke-miterlimit:4;stroke-dasharray:none;stroke-dashoffset:0;stroke-opacity:1"
       d="m 157.9134,-2.4036308 a 6.4323067,6.4323067 0 0 1 6.5067,6.357422 6.4323067,6.4323067 0 0 1 -6.35693,6.5062068 6.4323067,6.4323067 0 0 1 -6.5067,-6.356929 6.4323067,6.4323067 0 0 1 6.35693,-6.5066998 z m -0.032,-2.7564963 a 9.1890092,9.1890092 0 0 0 -9.0814,9.295216 9.1890092,9.1890092 0 0 0 9.29522,9.0818881 9.1890092,9.1890092 0 0 0 9.08139,-9.2952165 9.1890092,9.1890092 0 0 0 -9.29521,-9.0818876 z"
       inkscape:connector-curvature="0" />
    <path
       id="path5065"
       style="opacity:1;vector-effect:none;fill:none;fill-opacity:1;fill-rule:nonzero;stroke:#0000ff;stroke-width:0.18616347;stroke-linecap:butt;stroke-linejoin:miter;stroke-miterlimit:4;stroke-dasharray:none;stroke-dashoffset:0;stroke-opacity:1"
       d="m 149.73021,13.038278 a 5.2117081,5.2117081 0 0 1 5.27198,5.151035 5.2117081,5.2117081 0 0 1 -5.15063,5.271584 5.2117081,5.2117081 0 0 1 -5.27199,-5.150634 5.2117081,5.2117081 0 0 1 5.15064,-5.271985 z m -0.026,-2.233421 a 7.4452974,7.4452974 0 0 0 -7.3581,7.53135 7.4452974,7.4452974 0 0 0 7.53135,7.358502 7.4452974,7.4452974 0 0 0 7.35809,-7.531349 7.4452974,7.4452974 0 0 0 -7.53134,-7.358503 z"
       inkscape:connector-curvature="0" />
    <path
       inkscape:connector-curvature="0"
       d="m 149.71767,11.960382 a 6.2896466,6.2896466 0 0 1 6.36238,6.216424 6.2896466,6.2896466 0 0 1 -6.21592,6.361906 6.2896466,6.2896466 0 0 1 -6.36241,-6.21594 6.2896466,6.2896466 0 0 1 6.21595,-6.36239 z m -0.0314,-2.6953609 a 8.9852096,8.9852096 0 0 0 -8.87998,9.0890609 8.9852096,8.9852096 0 0 0 9.08907,8.880462 8.9852096,8.9852096 0 0 0 8.87996,-9.089059 8.9852096,8.9852096 0 0 0 -9.08905,-8.8804639 z"
       style="opacity:1;vector-effect:none;fill:none;fill-opacity:1;fill-rule:nonzero;stroke:#0000ff;stroke-width:0.2246677;stroke-linecap:butt;stroke-linejoin:miter;stroke-miterlimit:4;stroke-dasharray:none;stroke-dashoffset:0;stroke-opacity:1"
       id="path4692-6-4-5" />
  </g>
</svg>
