<?xml version="1.0" encoding="UTF-8" standalone="no"?>
<!-- Created with Inkscape (http://www.inkscape.org/) -->

<svg
   xmlns:dc="http://purl.org/dc/elements/1.1/"
   xmlns:cc="http://creativecommons.org/ns#"
   xmlns:rdf="http://www.w3.org/1999/02/22-rdf-syntax-ns#"
   xmlns:svg="http://www.w3.org/2000/svg"
   xmlns="http://www.w3.org/2000/svg"
   xmlns:sodipodi="http://sodipodi.sourceforge.net/DTD/sodipodi-0.dtd"
   xmlns:inkscape="http://www.inkscape.org/namespaces/inkscape"
   width="100"
   height="100"
   id="svg2"
   version="1.1"
   inkscape:version="0.92.3 (2405546, 2018-03-11)"
   sodipodi:docname="c.svg">
  <defs
     id="defs4" />
  <sodipodi:namedview
     id="base"
     pagecolor="#ffffff"
     bordercolor="#666666"
     borderopacity="1.0"
     inkscape:pageopacity="0.0"
     inkscape:pageshadow="2"
     inkscape:zoom="4.2623907"
     inkscape:cx="51.756808"
     inkscape:cy="40.599531"
     inkscape:document-units="px"
     inkscape:current-layer="layer1"
     showgrid="false"
     inkscape:window-width="789"
     inkscape:window-height="800"
     inkscape:window-x="1150"
     inkscape:window-y="122"
     inkscape:window-maximized="0" />
  <metadata
     id="metadata7">
    <rdf:RDF>
      <cc:Work
         rdf:about="">
        <dc:format>image/svg+xml</dc:format>
        <dc:type
           rdf:resource="http://purl.org/dc/dcmitype/StillImage" />
        <dc:title />
      </cc:Work>
    </rdf:RDF>
  </metadata>
  <g
     inkscape:label="Layer 1"
     inkscape:groupmode="layer"
     id="layer1"
     transform="translate(0,-952.3622)">
    <path
       class="fil0"
       d="m 66.139251,980.9189 c 3.097113,2.45512 5.515494,6.6135 3.787984,10.54107 -2.197871,4.99591 -5.177647,9.34193 -10.476171,11.54713 -0.882047,0.367 -1.343976,0.9487 -1.307729,1.9536 0.105703,2.9283 0.190166,5.8581 0.238888,8.7877 0.03675,2.2143 -0.125599,4.4252 1.143694,6.4579 0.241249,0.3866 -0.05783,1.5365 -0.466986,1.8255 -1.373142,0.9702 -2.820462,2.0208 -4.401471,2.4717 -3.834682,1.0934 -7.811988,1.9348 -11.792666,1.8734 -4.080988,-0.064 -8.110219,0.2468 -11.998511,1.6214 -0.306829,0.1084 -0.661536,0.1758 -0.978142,0.1362 -0.974939,-0.1221 -1.407871,-0.7995 -0.702671,-1.5062 1.470416,-1.4735 3.0784,-2.8098 4.511895,-4.3199 1.616919,-1.7035 8.996313,-12.4957 9.968217,-14.7372 0.565104,-1.3034 -0.153583,-2.0873 -1.58337,-2.0604 -1.83861,0.035 -3.598828,0.1 -5.264131,-1.1223 -2.787419,-2.0451 -3.354882,-7.66052 -1.555047,-10.67807 1.216862,-2.04023 7.445985,-8.61108 9.942254,-10.43553 5.698749,-4.16596 14.821333,-7.2017 20.933963,-2.356 z m -23.721213,18.06697 c 0.961452,2.18143 3.706049,2.34033 5.131621,0.47051 0.714641,-0.93717 1.503797,-1.91834 2.480085,-2.5234 0.78157,-0.48435 2.161455,-0.89351 2.809841,-0.52228 1.482892,0.84917 2.729931,2.14577 3.979667,3.35655 1.123632,1.08875 2.14999,1.20505 3.569156,0.40835 1.624,-0.91191 2.206805,-2.47623 2.929707,-4.02571 1.227651,-2.63113 0.587188,-6.64739 -1.431473,-8.77343 -2.324141,-2.44789 -5.241878,-3.57101 -8.484819,-4.1282 -4.027882,-0.69239 -6.688861,1.13679 -9.602214,3.85525 -4.02097,3.75241 -3.297226,7.53668 -1.381571,11.88236 z m 9.134048,22.48853 c 0.594269,-0.1096 1.466371,-0.8141 1.535659,-1.3373 0.547908,-4.1417 0.432763,-8.2782 -0.723069,-12.3279 -0.53223,-1.8647 -2.524761,-2.3309 -3.844629,-0.8468 -0.486374,0.5471 -0.920486,1.1404 -1.341784,1.7449 -2.905093,4.17 -6.249355,8.4264 -8.833457,12.6418 -0.479462,0.782 -0.612645,1.0997 0.553976,1.134 2.99613,0.085 9.933488,-0.5068 12.653304,-1.0087 z"
       id="path4215"
       inkscape:connector-curvature="0"
       style="clip-rule:evenodd;fill:#000000;fill-rule:nonzero;stroke-width:0.0168587;image-rendering:optimizeQuality;shape-rendering:geometricPrecision;text-rendering:geometricPrecision" />
  </g>
</svg>
