<?xml version="1.0" encoding="UTF-8" standalone="no"?>
<!-- Created with Inkscape (http://www.inkscape.org/) -->

<svg
   xmlns:dc="http://purl.org/dc/elements/1.1/"
   xmlns:cc="http://creativecommons.org/ns#"
   xmlns:rdf="http://www.w3.org/1999/02/22-rdf-syntax-ns#"
   xmlns:svg="http://www.w3.org/2000/svg"
   xmlns="http://www.w3.org/2000/svg"
   xmlns:sodipodi="http://sodipodi.sourceforge.net/DTD/sodipodi-0.dtd"
   xmlns:inkscape="http://www.inkscape.org/namespaces/inkscape"
   width="100"
   height="100"
   id="svg2"
   version="1.1"
   inkscape:version="0.92.3 (2405546, 2018-03-11)"
   sodipodi:docname="d.svg">
  <defs
     id="defs4" />
  <sodipodi:namedview
     id="base"
     pagecolor="#ffffff"
     bordercolor="#666666"
     borderopacity="1.0"
     inkscape:pageopacity="0.0"
     inkscape:pageshadow="2"
     inkscape:zoom="1.6710138"
     inkscape:cx="51.756808"
     inkscape:cy="-25.091303"
     inkscape:document-units="px"
     inkscape:current-layer="layer1"
     showgrid="false"
     inkscape:window-width="789"
     inkscape:window-height="800"
     inkscape:window-x="1150"
     inkscape:window-y="122"
     inkscape:window-maximized="0" />
  <metadata
     id="metadata7">
    <rdf:RDF>
      <cc:Work
         rdf:about="">
        <dc:format>image/svg+xml</dc:format>
        <dc:type
           rdf:resource="http://purl.org/dc/dcmitype/StillImage" />
        <dc:title></dc:title>
      </cc:Work>
    </rdf:RDF>
  </metadata>
  <g
     inkscape:label="Layer 1"
     inkscape:groupmode="layer"
     id="layer1"
     transform="translate(0,-952.3622)">
    <path
       class="fil0"
       d="m 72.903871,983.63096 c 0.604331,0.0698 1.585119,0.12902 2.544722,0.30393 4.760516,0.86698 8.307757,4.67796 8.700506,9.02264 0.294692,3.26041 -4.36316,7.87427 -6.615626,10.46377 -2.927417,3.3633 -7.834068,5.9629 -12.007635,7.4726 -2.447756,0.8851 -5.454759,0.8189 -8.100247,0.4261 -4.184706,-0.6209 -5.290162,-0.041 -5.617724,4.0082 -0.26808,3.3155 -1.551168,8.2145 0.202078,10.0528 0.52937,0.5552 1.785026,0.5093 2.165824,1.0913 0.834932,1.2774 0.924291,2.3191 -0.296055,3.0742 -3.407085,2.1109 -6.552337,4.8645 -10.857638,4.9884 -2.417607,0.07 -3.975294,-1.58 -3.049645,-3.8102 2.407014,-5.7999 1.85157,-15.2211 2.185923,-21.9008 0.111089,-2.222 -1.249138,-3.1886 -3.386985,-2.599 -2.691935,0.7426 -5.38088,1.6318 -8.132025,1.9923 -4.16162,0.5453 -7.362823,-1.332 -9.584056,-4.8391 -1.684258,-2.6593 -1.189926,-5.28332 -0.03775,-8.06244 2.587364,-6.24135 10.452395,-14.48446 16.918088,-17.10523 3.620571,-1.46806 7.593692,-1.70273 11.805287,-0.52774 1.545193,0.43105 3.425555,0.1836 5.029416,-0.2287 3.134387,-0.80533 6.153612,-2.05419 9.282839,-2.88614 0.988934,-0.26291 2.42304,-0.1339 3.221848,0.4286 1.646232,1.15978 5.005513,3.65589 5.339866,5.75626 0.131727,0.82732 0.120322,1.83363 0.288993,2.87825 z M 39.26054,1000.979 v 0 c 3.379923,0 5.131269,-0.4995 5.538685,-2.1631 0.898488,-3.6681 1.740209,-7.44051 0.06274,-11.11947 -1.274126,-2.7946 -3.799019,-4.35555 -6.637622,-4.5302 -3.472543,-0.21376 -7.009186,5.49523 -7.282427,8.60191 -0.403613,4.5761 3.16508,10.34616 8.318622,9.21086 z m 28.76276,-8.78768 c -2.43119,-0.76513 -7.102622,0.80967 -8.654062,2.85734 -0.777894,1.02696 -1.59517,2.04224 -2.5124,2.9429 -2.39968,2.35704 -2.218244,4.37324 0.894958,5.58784 2.665859,1.04 5.491425,1.8027 8.315361,2.2717 7.108323,1.1805 11.402221,-10.68592 1.956143,-13.65978 z m -12.476712,-2.43608 c 0.350106,0.96286 1.00496,1.31948 1.883077,1.01799 2.13133,-0.73144 4.197472,-1.69539 6.207391,-2.72452 1.261904,-0.64589 1.482452,-1.67095 0.309908,-2.7468 -1.177975,-1.08074 -2.166095,-2.53467 -3.540445,-3.18681 -1.278743,-0.60732 -3.109942,-0.83113 -4.418292,-0.39166 -1.536773,0.51606 -1.585662,2.19597 -1.022885,3.74388 0.542406,1.49332 0.06464,2.86902 0.581246,4.28792 z"
       id="path4225"
       inkscape:connector-curvature="0"
       style="clip-rule:evenodd;fill:#000000;fill-rule:nonzero;stroke-width:0.02716107;image-rendering:optimizeQuality;shape-rendering:geometricPrecision;text-rendering:geometricPrecision" />
  </g>
</svg>
