<?xml version="1.0" encoding="UTF-8" standalone="no"?>
<!-- Created with Inkscape (http://www.inkscape.org/) -->

<svg
   xmlns:dc="http://purl.org/dc/elements/1.1/"
   xmlns:cc="http://creativecommons.org/ns#"
   xmlns:rdf="http://www.w3.org/1999/02/22-rdf-syntax-ns#"
   xmlns:svg="http://www.w3.org/2000/svg"
   xmlns="http://www.w3.org/2000/svg"
   xmlns:sodipodi="http://sodipodi.sourceforge.net/DTD/sodipodi-0.dtd"
   xmlns:inkscape="http://www.inkscape.org/namespaces/inkscape"
   width="100"
   height="100"
   id="svg2"
   version="1.1"
   inkscape:version="0.92.3 (2405546, 2018-03-11)"
   sodipodi:docname="e.svg">
  <defs
     id="defs4" />
  <sodipodi:namedview
     id="base"
     pagecolor="#ffffff"
     bordercolor="#666666"
     borderopacity="1.0"
     inkscape:pageopacity="0.0"
     inkscape:pageshadow="2"
     inkscape:zoom="1.6710138"
     inkscape:cx="61.327926"
     inkscape:cy="-56.103186"
     inkscape:document-units="px"
     inkscape:current-layer="layer1"
     showgrid="false"
     inkscape:window-width="789"
     inkscape:window-height="800"
     inkscape:window-x="1150"
     inkscape:window-y="122"
     inkscape:window-maximized="0" />
  <metadata
     id="metadata7">
    <rdf:RDF>
      <cc:Work
         rdf:about="">
        <dc:format>image/svg+xml</dc:format>
        <dc:type
           rdf:resource="http://purl.org/dc/dcmitype/StillImage" />
        <dc:title></dc:title>
      </cc:Work>
    </rdf:RDF>
  </metadata>
  <g
     inkscape:label="Layer 1"
     inkscape:groupmode="layer"
     id="layer1"
     transform="translate(0,-952.3622)">
    <path
       class="fil0"
       d="m 36.027725,988.57195 c 2.23866,0.1772 4.457086,1.6891 5.284547,3.73766 0.654505,1.62017 1.226957,3.25879 1.208248,5.03988 -9.35e-4,0.0854 0.01382,0.17128 0.0079,0.2561 -0.117134,1.69409 0.04088,1.85197 1.799306,1.99167 1.013431,0.081 2.019948,0.278 3.033685,0.3177 2.904859,0.11414 6.311197,-0.1844 9.365014,-0.1307 0.641694,0.011 1.28644,0.1867 1.918678,0.33424 2.349386,0.5482 3.36902,-0.32774 4.244678,-2.15703 0.989435,-2.06749 6.461784,-7.73064 8.604661,-9.14238 2.171042,-1.43027 5.47855,-1.81364 7.741816,0.2149 0.801735,0.7186 0.716324,1.47397 -0.23183,1.95883 -0.829901,0.42426 -1.647903,0.88622 -2.51553,1.21452 -0.300153,0.11356 -0.839863,0 -1.089486,-0.22113 -2.749596,-2.40271 -4.77961,-1.29755 -6.821929,1.00633 -1.584764,1.78786 -2.353761,3.09694 -2.905773,5.37854 -0.174683,0.72196 0.283176,0.94776 0.91277,1.0205 1.468749,0.16968 2.935667,0.35588 4.401263,0.55148 0.928632,0.12414 1.180592,0.66904 0.518562,1.31484 -1.130973,1.1032 -2.419443,1.9016 -4.139239,1.5024 -0.433862,-0.1006 -0.93778,-0.1255 -1.357309,-0.01 -0.534321,0.1543 -0.954559,0.5234 -0.84566,1.2099 0.267515,1.6867 0.462943,3.3966 1.204994,4.9587 0.622984,1.3121 2.056857,2.5033 3.405118,3.4729 1.6233,1.1674 1.241293,0.8327 3.015686,1.3265 0.839767,0.2335 1.75701,0.7825 0.694163,1.6715 -0.848814,0.71 -1.773888,1.3458 -2.731598,1.9033 -0.731886,0.4261 -1.45065,0.2059 -2.137083,-0.3115 -1.763515,-1.3292 -5.591312,-3.4497 -6.148105,-5.6469 -0.576517,-2.2761 -0.885824,-4.6213 -1.267526,-6.9445 -0.150485,-0.9164 -0.677892,-1.4917 -1.672208,-1.5093 -0.589431,-0.011 -1.202044,0.084 -1.763007,0.2614 -0.232031,0.073 -0.559843,0.5636 -0.496192,0.7352 0.423085,1.1406 -0.196036,1.9839 -0.681553,2.886 -1.049934,1.9506 -5.454451,5.3544 -7.814617,5.2333 -1.227465,-0.063 -3.838573,-1.7555 -4.216005,-2.9079 -0.155467,-0.475 -0.229794,-1.1426 -0.01088,-1.5415 1.054103,-1.921 2.044758,-2.6395 2.999013,-4.7102 -1.596254,-0.2346 -2.822804,-0.2825 -4.439902,-0.318 -0.644032,-0.014 -1.125176,0.2031 -1.415367,0.6747 -0.881859,1.4332 -1.271899,2.5967 -1.895494,3.8381 -0.916227,1.8239 -2.103122,3.6869 -4.177876,5.7583 -1.969211,1.9658 -3.971976,3.9852 -6.733163,4.8761 -0.947036,0.3056 -3.218029,-0.3462 -4.386216,-0.3135 -1.108804,0.031 -2.163619,-0.022 -3.149803,-0.5554 -0.766656,-0.4145 -0.781299,-0.923 -0.06283,-1.4204 0.593601,-0.4111 1.092436,-0.9511 1.724878,-1.2467 1.060101,-0.4952 2.095089,-0.2163 3.181119,0.841 1.604082,1.5618 2.698755,1.7464 4.343104,0.587 0.488972,-0.3448 0.846271,-0.919 1.155476,-1.4511 0.097,-0.167 -0.100662,-0.5829 -0.265788,-0.8107 -0.636813,-0.8779 -1.330669,-1.7142 -1.972262,-2.5888 -0.442403,-0.6033 -0.290293,-1.1212 0.331371,-1.5187 0.599599,-0.3835 1.183031,-0.7936 1.795747,-1.1544 0.588313,-0.3464 1.028277,-0.084 1.375916,0.4244 0.256943,0.3757 0.480636,0.7838 0.787706,1.1134 0.672705,0.7225 1.499963,0.78 2.029812,-0.02 1.892951,-2.8574 1.741755,-2.6517 2.25147,-5.8562 0.125676,-0.7912 -0.121098,-1.1231 -0.91104,-0.9831 -0.770217,0.1365 -1.501795,0.4804 -2.260114,0.6991 -0.323746,0.093 -0.688568,0.1848 -1.005298,0.1238 -1.034072,-0.199 -1.091114,-1.0125 -0.340928,-1.3777 1.163712,-0.5669 2.241201,-1.3233 3.629014,-1.4022 1.056848,-0.06 1.364731,-0.80234 1.41313,-1.86199 0.117947,-2.58256 -1.110637,-4.58158 -2.686046,-6.38471 -0.599396,-0.68605 -1.594424,-1.02666 -2.409887,-1.52367 -0.39431,-0.24028 -0.790145,-0.478 -1.18537,-0.71696 0.364518,-0.3206 0.67901,-0.76799 1.103824,-0.93522 0.854914,-0.33656 1.770022,-0.52061 2.660219,-0.76759 z m 12.638764,16.69055 c -0.411902,0.7791 -0.144994,1.3597 0.404376,1.9103 1.026954,1.0292 1.618825,2.2331 3.239076,1.8101 0.774994,-0.2023 0.961778,-2.0744 0.894366,-2.7864 -0.08602,-0.9084 -0.661419,-1.6971 -1.494577,-2.0682 -1.272813,-0.567 -2.364537,-0.1496 -3.043241,1.1342 z"
       id="path4197"
       inkscape:connector-curvature="0"
       style="clip-rule:evenodd;fill:#000000;fill-rule:nonzero;stroke-width:0.01016787;image-rendering:optimizeQuality;shape-rendering:geometricPrecision;text-rendering:geometricPrecision" />
  </g>
</svg>
