<?xml version="1.0" encoding="UTF-8" standalone="no"?>
<!-- Created with Inkscape (http://www.inkscape.org/) -->

<svg
   xmlns:dc="http://purl.org/dc/elements/1.1/"
   xmlns:cc="http://creativecommons.org/ns#"
   xmlns:rdf="http://www.w3.org/1999/02/22-rdf-syntax-ns#"
   xmlns:svg="http://www.w3.org/2000/svg"
   xmlns="http://www.w3.org/2000/svg"
   xmlns:sodipodi="http://sodipodi.sourceforge.net/DTD/sodipodi-0.dtd"
   xmlns:inkscape="http://www.inkscape.org/namespaces/inkscape"
   width="100"
   height="100"
   id="svg2"
   version="1.1"
   inkscape:version="0.92.3 (2405546, 2018-03-11)"
   sodipodi:docname="i.svg">
  <defs
     id="defs4" />
  <sodipodi:namedview
     id="base"
     pagecolor="#ffffff"
     bordercolor="#666666"
     borderopacity="1.0"
     inkscape:pageopacity="0.0"
     inkscape:pageshadow="2"
     inkscape:zoom="4.2623907"
     inkscape:cx="51.756808"
     inkscape:cy="49.983936"
     inkscape:document-units="px"
     inkscape:current-layer="layer1"
     showgrid="false"
     inkscape:window-width="789"
     inkscape:window-height="800"
     inkscape:window-x="1150"
     inkscape:window-y="122"
     inkscape:window-maximized="0" />
  <metadata
     id="metadata7">
    <rdf:RDF>
      <cc:Work
         rdf:about="">
        <dc:format>image/svg+xml</dc:format>
        <dc:type
           rdf:resource="http://purl.org/dc/dcmitype/StillImage" />
        <dc:title></dc:title>
      </cc:Work>
    </rdf:RDF>
  </metadata>
  <g
     inkscape:label="Layer 1"
     inkscape:groupmode="layer"
     id="layer1"
     transform="translate(0,-952.3622)">
    <path
       class="fil0"
       d="m 44.540423,1022.6196 c -0.947515,0.046 -1.954723,0.3874 -2.779294,0.8636 -0.469969,0.2712 -0.892461,1.0964 -0.870192,1.6536 0.0515,1.2955 -0.529198,2.0973 -1.562541,2.6226 -1.188917,0.6047 -2.394691,1.2462 -3.669436,1.5852 -2.290923,0.6091 -2.481292,-0.4151 -2.191331,-2.0891 0.322591,-1.8628 1.961064,-2.7369 3.126629,-3.8974 2.648619,-2.6369 5.552248,-4.0272 8.502271,-4.6204 1.544448,-0.3105 2.854452,-0.304 4.679427,-0.3565 1.688887,-0.048 2.466292,-0.8848 2.026633,-2.4399 -1.168194,-4.1319 -2.171691,-6.99 -3.119051,-11.3043 -0.407491,-1.8557 -1.285725,-5.45159 -1.912349,-7.23544 -0.31223,-1.26838 -0.858748,-1.04804 -2.893578,-0.35692 -1.712238,0.58164 -4.166931,1.2899 -5.882726,1.86163 -0.836325,0.27869 -2.573615,1.23903 -3.37298,1.15293 -1.194329,-0.12872 -1.70234,-1.01017 -0.785446,-1.94487 1.239177,-1.26269 2.614752,-2.23291 4.219202,-2.80852 2.411392,-0.86494 4.093165,-0.68556 6.830086,-2.0246 0.515898,-0.25242 0.419554,-0.53834 0.478474,-1.1645 0.389398,-4.13322 -0.363263,-8.09277 2.167206,-11.49049 1.260828,-1.69291 2.991159,-3.32999 4.265905,-4.27086 2.502169,-1.84693 5.148003,-3.41427 8.469795,-3.44257 3.002448,-0.0256 5.5473,1.28465 7.422998,3.63572 1.054221,1.32145 0.979372,2.91647 0.03805,4.2622 -0.806323,1.15288 -1.817398,2.19628 -2.876567,3.13111 -4.059606,3.58314 -7.687288,5.65648 -10.783606,7.58971 -0.315013,0.24573 -0.463782,0.94628 -0.398677,1.39739 0.351975,2.43704 0.644874,4.89838 1.238713,7.28138 1.136647,4.5604 2.523356,9.0583 3.675931,13.6151 0.398677,1.5758 0.427595,3.2479 0.582551,4.8802 0.169182,1.7801 -4.726131,4.1063 -6.69771,3.8984 -2.267262,-0.2392 -5.641478,-0.095 -7.928381,0.016 z m 16.035841,-43.06926 c -0.918132,-0.73379 -2.03251,-1.25015 -3.115494,-1.74409 -2.531242,-1.15459 -3.781708,-0.62307 -4.272709,2.12762 -0.46069,2.58072 -0.568323,5.22795 -0.745702,7.85183 -0.02521,0.37192 0.03108,1.61388 0.342541,1.6895 0.566003,0.13748 1.606615,-0.51651 2.157463,-0.73596 2.102874,-0.83787 4.771596,-3.35488 6.376356,-4.93258 1.456454,-1.43125 0.597242,-3.18617 -0.742455,-4.25632 z"
       id="path4217"
       inkscape:connector-curvature="0"
       style="clip-rule:evenodd;fill:#000000;fill-rule:nonzero;stroke-width:0.01546458;image-rendering:optimizeQuality;shape-rendering:geometricPrecision;text-rendering:geometricPrecision" />
  </g>
</svg>
