<?xml version="1.0" encoding="UTF-8" standalone="no"?>
<!-- Created with Inkscape (http://www.inkscape.org/) -->

<svg
   xmlns:dc="http://purl.org/dc/elements/1.1/"
   xmlns:cc="http://creativecommons.org/ns#"
   xmlns:rdf="http://www.w3.org/1999/02/22-rdf-syntax-ns#"
   xmlns:svg="http://www.w3.org/2000/svg"
   xmlns="http://www.w3.org/2000/svg"
   xmlns:sodipodi="http://sodipodi.sourceforge.net/DTD/sodipodi-0.dtd"
   xmlns:inkscape="http://www.inkscape.org/namespaces/inkscape"
   width="100"
   height="100"
   id="svg2"
   version="1.1"
   inkscape:version="0.92.3 (2405546, 2018-03-11)"
   sodipodi:docname="k.svg">
  <defs
     id="defs4" />
  <sodipodi:namedview
     id="base"
     pagecolor="#ffffff"
     bordercolor="#666666"
     borderopacity="1.0"
     inkscape:pageopacity="0.0"
     inkscape:pageshadow="2"
     inkscape:zoom="4.2623907"
     inkscape:cx="51.756808"
     inkscape:cy="49.983936"
     inkscape:document-units="px"
     inkscape:current-layer="layer1"
     showgrid="false"
     inkscape:window-width="789"
     inkscape:window-height="800"
     inkscape:window-x="1150"
     inkscape:window-y="122"
     inkscape:window-maximized="0" />
  <metadata
     id="metadata7">
    <rdf:RDF>
      <cc:Work
         rdf:about="">
        <dc:format>image/svg+xml</dc:format>
        <dc:type
           rdf:resource="http://purl.org/dc/dcmitype/StillImage" />
        <dc:title></dc:title>
      </cc:Work>
    </rdf:RDF>
  </metadata>
  <g
     inkscape:label="Layer 1"
     inkscape:groupmode="layer"
     id="layer1"
     transform="translate(0,-952.3622)">
    <path
       class="fil0"
       d="m 54.361374,994.72927 c -4.503213,-0.61297 -8.999758,-0.95707 -13.452792,0.41226 -1.312805,0.40376 -2.085986,1.09508 -2.461239,2.50441 -1.255458,4.71526 -3.410459,9.30976 -4.663584,13.98576 -0.178208,0.6645 -0.239723,1.644 0.124195,2.0891 0.352082,0.4306 1.313972,0.454 2.016636,0.4906 6.616871,0.3445 13.28142,1.0875 19.837109,1.2828 2.986028,0.089 5.967888,0.2078 8.857559,1.1573 1.785915,0.5868 2.016468,1.9061 0.383923,2.9444 -1.17144,0.7451 -2.419563,1.4079 -3.711696,1.9104 -0.710498,0.2762 -1.688726,0.4379 -2.349379,0.1686 -1.921781,-0.7838 -3.89674,-1.2103 -5.906706,-1.4481 -5.36308,-0.6348 -10.574625,-0.6396 -16.082571,-1.4537 -3.546491,-0.5242 -7.032135,-0.394 -10.445927,0.7583 -1.953455,0.6594 -3.050709,-1.219 -1.213949,-2.3508 3.036038,-1.8705 3.226583,-5.1525 4.101619,-8.0895 1.355649,-4.5485 2.675289,-8.748 4.154466,-13.27008 0.227386,-0.69567 0.292068,-1.45434 0.359083,-2.19068 0.224052,-2.46257 0.335412,-4.93898 0.666322,-7.38621 0.102856,-0.76001 0.60314,-1.65972 1.207614,-2.11933 1.401492,-1.06558 2.945017,-1.96313 4.504547,-2.79031 1.195444,-0.63398 2.546091,0.70266 2.273361,1.83759 -0.484946,2.01864 -1.136264,3.99993 -1.783914,5.97622 -0.358917,1.09476 0.368751,2.10865 1.581201,2.0083 1.816755,-0.15054 3.633343,-0.32141 5.441597,-0.55079 1.669889,-0.21172 2.288698,-1.1486 2.38322,-2.82983 0.128197,-2.27752 1.571699,-3.85023 3.277429,-5.1632 1.029239,-0.79235 2.095987,-1.6007 3.272094,-2.11115 1.52152,-0.66049 2.665286,-0.0685 1.95562,1.82042 -0.74784,1.99163 -1.630878,3.93691 -2.287531,5.95655 -0.320241,0.98523 0.593138,1.46167 1.393658,1.5797 2.198177,0.32441 4.40969,0.58397 6.624705,0.75968 1.13293,0.0898 1.915779,-0.52029 2.36305,-1.62355 0.538792,-1.32864 1.0039,-2.74663 1.83159,-3.88573 1.59704,-2.19834 3.168235,-4.53056 5.994559,-5.37276 1.230285,-0.36641 1.464342,1.26314 1.068248,1.9578 -0.669486,1.1736 -1.465674,2.28903 -2.31937,3.34011 -1.174441,1.446 -2.462405,2.79915 -3.666685,4.22181 -0.250556,0.29624 -0.532624,0.76284 -0.463106,1.07625 0.06652,0.29974 0.567795,0.705 0.884871,0.71116 0.478279,0.009 4.152132,-0.27739 4.174467,-0.26823 1.683225,0.69433 2.736305,1.18828 0.496452,2.54859 -2.2837,1.38683 -4.731435,2.05232 -7.269023,2.29338 -5.218046,0.49527 -7.532751,-0.1227 -13.151723,-0.88754 z"
       id="path4219"
       inkscape:connector-curvature="0"
       style="clip-rule:evenodd;fill:#000000;fill-rule:nonzero;stroke-width:0.01667054;image-rendering:optimizeQuality;shape-rendering:geometricPrecision;text-rendering:geometricPrecision" />
  </g>
</svg>
