<?xml version="1.0" encoding="UTF-8" standalone="no"?>
<!-- Created with Inkscape (http://www.inkscape.org/) -->

<svg
   xmlns:dc="http://purl.org/dc/elements/1.1/"
   xmlns:cc="http://creativecommons.org/ns#"
   xmlns:rdf="http://www.w3.org/1999/02/22-rdf-syntax-ns#"
   xmlns:svg="http://www.w3.org/2000/svg"
   xmlns="http://www.w3.org/2000/svg"
   xmlns:sodipodi="http://sodipodi.sourceforge.net/DTD/sodipodi-0.dtd"
   xmlns:inkscape="http://www.inkscape.org/namespaces/inkscape"
   width="100"
   height="100"
   id="svg2"
   version="1.1"
   inkscape:version="0.92.3 (2405546, 2018-03-11)"
   sodipodi:docname="l.svg">
  <defs
     id="defs4" />
  <sodipodi:namedview
     id="base"
     pagecolor="#ffffff"
     bordercolor="#666666"
     borderopacity="1.0"
     inkscape:pageopacity="0.0"
     inkscape:pageshadow="2"
     inkscape:zoom="4.2623907"
     inkscape:cx="51.756808"
     inkscape:cy="49.983936"
     inkscape:document-units="px"
     inkscape:current-layer="layer1"
     showgrid="false"
     inkscape:window-width="789"
     inkscape:window-height="800"
     inkscape:window-x="1150"
     inkscape:window-y="122"
     inkscape:window-maximized="0" />
  <metadata
     id="metadata7">
    <rdf:RDF>
      <cc:Work
         rdf:about="">
        <dc:format>image/svg+xml</dc:format>
        <dc:type
           rdf:resource="http://purl.org/dc/dcmitype/StillImage" />
        <dc:title></dc:title>
      </cc:Work>
    </rdf:RDF>
  </metadata>
  <g
     inkscape:label="Layer 1"
     inkscape:groupmode="layer"
     id="layer1"
     transform="translate(0,-952.3622)">
    <path
       class="fil0"
       d="m 40.116481,1005.986 c 1.684545,0.7005 2.526976,0.6185 3.690365,-0.7457 1.128932,-1.3239 2.256587,-2.6837 3.123585,-4.1792 0.348714,-0.6015 0.229073,-1.70622 -0.07865,-2.4054 -1.04965,-2.38628 -4.324302,-7.33973 -5.898458,-9.17247 -0.881036,-1.02604 -2.047455,-1.83625 -3.176227,-2.61248 -1.333917,-0.91709 -1.678004,-1.84837 -0.557527,-2.95035 1.319081,-1.29722 2.755729,-2.48119 4.689446,-2.95353 2.207934,-0.53934 3.078919,1.06799 4.104801,2.33459 1.828911,2.25802 3.417902,4.68195 4.373434,7.4707 0.153779,0.44922 0.474576,0.86301 0.791066,1.23071 1.14616,1.33168 2.48263,1.38384 3.468151,-0.0623 2.22564,-3.2662 5.094631,-5.8463 8.271815,-8.11484 0.710986,-0.5076 1.550227,-0.87976 2.383564,-1.14984 0.809571,-0.26224 1.702892,0.64973 0.889173,1.5614 -2.739617,3.06951 -5.503642,6.11795 -8.301963,9.13419 -0.666799,0.7188 -1.526299,1.25559 -2.223088,1.9503 -0.951066,0.94819 -1.206938,1.98397 -0.471066,3.27641 1.48259,2.60401 2.161034,4.93281 4.030623,7.50641 0.704446,0.9696 3.057863,1.0576 4.226036,0.075 2.592541,-2.1808 5.611799,-3.166 8.906548,-3.5745 2.358526,-0.2925 4.713536,1.515 5.273775,4.3308 0.540777,2.7186 0.367536,5.375 -1.53364,7.6015 -2.779178,3.255 -8.220288,5.7217 -12.30116,6.5348 -0.983289,0.1959 -2.299339,-0.509 -3.259338,-1.1199 -2.175391,-1.3847 -3.808409,-3.3612 -5.119515,-5.5669 -1.533159,-2.5792 -2.892598,-5.303 -4.520513,-8.0034 -0.834296,-1.3837 -2.380216,-1.6227 -3.450284,-0.4014 -2.034535,2.3217 -3.84861,4.8604 -6.053513,7.0007 -2.907594,2.8221 -7.272733,5.4435 -11.036477,6.9988 -0.914854,0.3784 -1.870068,0.5969 -2.980814,0.3369 -2.207933,-0.5167 -3.269866,-2.1557 -4.300693,-3.8827 -0.887736,-1.4873 -0.687696,-2.7079 0.351426,-4.2444 3.493355,-5.1658 6.422006,-5.2831 11.725289,-6.9848 1.315253,-0.4222 2.055432,-0.4282 4.963823,0.781 z m 30.179983,10.3938 c 1.685662,-0.5311 1.782172,-2.5623 2.0599,-4.0711 0.541892,-2.9418 -0.956969,-5.2253 -3.85547,-5.8875 -1.030028,-0.2353 -2.514056,0.1798 -3.566256,0.8517 -1.511305,0.9656 -1.670667,2.7219 -1.513697,4.4005 0.173718,1.8613 2.136309,3.0684 3.58444,3.9519 1.089849,0.6649 2.075851,1.1378 3.291083,0.7545 z m -42.183477,-5.2847 c -0.188873,1.4847 2.025281,4.7184 3.469108,5.2957 1.816149,0.7261 2.749667,-0.2609 3.922627,-1.5278 0.279003,-0.3015 0.299103,-1.1985 0.05392,-1.5699 -0.969889,-1.47 -2.130885,-2.7129 -3.814312,-3.208 -1.128613,-0.3317 -3.429707,-0.5746 -3.631343,1.01 z"
       id="path4209"
       inkscape:connector-curvature="0"
       style="clip-rule:evenodd;fill:#000000;fill-rule:nonzero;stroke-width:0.01595212;image-rendering:optimizeQuality;shape-rendering:geometricPrecision;text-rendering:geometricPrecision" />
  </g>
</svg>
