<?xml version="1.0" encoding="UTF-8" standalone="no"?>
<!-- Created with Inkscape (http://www.inkscape.org/) -->

<svg
   xmlns:dc="http://purl.org/dc/elements/1.1/"
   xmlns:cc="http://creativecommons.org/ns#"
   xmlns:rdf="http://www.w3.org/1999/02/22-rdf-syntax-ns#"
   xmlns:svg="http://www.w3.org/2000/svg"
   xmlns="http://www.w3.org/2000/svg"
   xmlns:sodipodi="http://sodipodi.sourceforge.net/DTD/sodipodi-0.dtd"
   xmlns:inkscape="http://www.inkscape.org/namespaces/inkscape"
   width="100"
   height="100"
   id="svg2"
   version="1.1"
   inkscape:version="0.92.3 (2405546, 2018-03-11)"
   sodipodi:docname="n.svg">
  <defs
     id="defs4" />
  <sodipodi:namedview
     id="base"
     pagecolor="#ffffff"
     bordercolor="#666666"
     borderopacity="1.0"
     inkscape:pageopacity="0.0"
     inkscape:pageshadow="2"
     inkscape:zoom="4.2623907"
     inkscape:cx="51.756808"
     inkscape:cy="49.983936"
     inkscape:document-units="px"
     inkscape:current-layer="layer1"
     showgrid="false"
     inkscape:window-width="789"
     inkscape:window-height="800"
     inkscape:window-x="1150"
     inkscape:window-y="122"
     inkscape:window-maximized="0" />
  <metadata
     id="metadata7">
    <rdf:RDF>
      <cc:Work
         rdf:about="">
        <dc:format>image/svg+xml</dc:format>
        <dc:type
           rdf:resource="http://purl.org/dc/dcmitype/StillImage" />
        <dc:title></dc:title>
      </cc:Work>
    </rdf:RDF>
  </metadata>
  <g
     inkscape:label="Layer 1"
     inkscape:groupmode="layer"
     id="layer1"
     transform="translate(0,-952.3622)">
    <path
       class="fil0"
       d="m 79.304271,1009.9581 c 0.106685,2.8041 -1.512648,5.5058 -4.693445,7.3679 -3.066191,1.7948 -7.065872,2.7736 -10.882246,2.5856 -4.751153,-0.2339 -9.219109,-2.2764 -11.249984,-6.8035 -0.509173,-1.1347 -1.387214,-1.5164 -2.601795,-1.5775 -2.371939,-0.1193 -4.564618,0.3863 -6.715269,1.3643 -0.995717,0.4527 -1.352623,1.1617 -1.685606,2.1078 -2.380022,6.7607 -7.135055,10.8759 -14.579654,10.2478 -4.881922,-0.4119 -7.66508,-6.441 -4.342036,-10.7193 2.770711,-3.5672 6.570761,-5.5101 10.973574,-6.1922 2.181202,-0.3378 4.321185,-0.2793 6.355939,1.1016 0.863331,0.5859 2.404914,0.6312 3.4842,0.3436 2.118161,-0.5643 4.130609,-1.5281 6.182173,-2.3381 1.017377,-0.4017 1.09642,-1.1707 0.880951,-2.1303 -0.286431,-1.2749 -0.590641,-2.5643 -0.67809,-3.8616 -0.180877,-2.68286 -0.304049,-5.37551 -0.294674,-8.06346 0.0061,-1.79698 -1.611574,-3.17999 -3.602684,-2.3249 -2.303889,0.98925 -4.973896,1.42682 -7.498588,1.48242 -6.342361,0.13982 -4.913766,-7.98157 -2.405238,-10.65627 3.350684,-3.57423 9.022552,-5.66443 13.874731,-6.03605 1.379941,-0.10571 2.744526,-0.10506 4.125436,-0.14095 1.16237,-0.0302 2.088742,0.33654 2.078397,1.75139 -0.0086,1.1648 0.0881,2.34253 -0.04962,3.49213 -0.800614,6.67776 -0.781056,13.32967 0.393276,19.96839 0.689081,3.8965 0.666613,3.9547 4.600017,3.4915 1.824619,-0.2149 3.626123,-0.6513 5.426009,-1.0425 2.965006,-0.6443 5.9389,-0.6529 8.858971,0.092 2.582559,0.6584 4.115091,2.9248 4.045259,6.4904 z m -6.763598,3.6229 v 0 c 0.04217,-3.2412 -3.483717,-6.5775 -6.668392,-6.0732 -1.557264,0.2467 -3.066841,0.9477 -4.526148,1.6032 -0.933161,0.4189 -1.191789,1.3843 -0.90358,2.3441 0.756486,2.5191 7.803768,4.5687 10.127701,4.5881 1.237048,0.01 1.94892,-0.8171 1.970419,-2.4622 z M 49.430507,982.12944 v 0 c 0.115251,-1.02578 -0.482018,-1.6405 -1.383659,-2.04057 -3.138609,-1.39271 -5.215713,0.18427 -7.037745,3.03257 -1.879739,2.93802 0.477329,5.3557 2.843289,5.15704 2.92815,-0.24618 5.553545,-3.11549 5.578115,-6.14904 z m -14.365963,34.20576 c -0.737089,-1.5465 -2.368222,-2.8831 -3.78534,-2.808 -0.949972,0.051 -2.177646,-0.084 -2.694093,1.1393 -1.033218,2.448 2.970501,6.6596 5.267601,5.8783 1.735877,-0.5902 1.883456,-2.7995 1.211832,-4.2096 z"
       id="path4203"
       inkscape:connector-curvature="0"
       style="clip-rule:evenodd;fill:#000000;fill-rule:nonzero;stroke-width:0.01616423;image-rendering:optimizeQuality;shape-rendering:geometricPrecision;text-rendering:geometricPrecision" />
  </g>
</svg>
