<?xml version="1.0" encoding="UTF-8" standalone="no"?>
<!-- Created with Inkscape (http://www.inkscape.org/) -->

<svg
   xmlns:dc="http://purl.org/dc/elements/1.1/"
   xmlns:cc="http://creativecommons.org/ns#"
   xmlns:rdf="http://www.w3.org/1999/02/22-rdf-syntax-ns#"
   xmlns:svg="http://www.w3.org/2000/svg"
   xmlns="http://www.w3.org/2000/svg"
   xmlns:sodipodi="http://sodipodi.sourceforge.net/DTD/sodipodi-0.dtd"
   xmlns:inkscape="http://www.inkscape.org/namespaces/inkscape"
   width="100"
   height="100"
   id="svg2"
   version="1.1"
   inkscape:version="0.92.3 (2405546, 2018-03-11)"
   sodipodi:docname="o.svg">
  <defs
     id="defs4" />
  <sodipodi:namedview
     id="base"
     pagecolor="#ffffff"
     bordercolor="#666666"
     borderopacity="1.0"
     inkscape:pageopacity="0.0"
     inkscape:pageshadow="2"
     inkscape:zoom="4.2623907"
     inkscape:cx="51.756808"
     inkscape:cy="49.983936"
     inkscape:document-units="px"
     inkscape:current-layer="layer1"
     showgrid="false"
     inkscape:window-width="789"
     inkscape:window-height="800"
     inkscape:window-x="1150"
     inkscape:window-y="122"
     inkscape:window-maximized="0" />
  <metadata
     id="metadata7">
    <rdf:RDF>
      <cc:Work
         rdf:about="">
        <dc:format>image/svg+xml</dc:format>
        <dc:type
           rdf:resource="http://purl.org/dc/dcmitype/StillImage" />
        <dc:title></dc:title>
      </cc:Work>
    </rdf:RDF>
  </metadata>
  <g
     inkscape:label="Layer 1"
     inkscape:groupmode="layer"
     id="layer1"
     transform="translate(0,-952.3622)">
    <path
       class="fil0"
       d="m 42.006162,1023.4072 c -3.11387,0.064 -3.083999,0.067 -2.71012,-3.1803 0.241141,-2.0971 -1.527568,-11.3731 -1.870402,-14.1418 -0.338136,-2.7306 -0.408448,-2.7703 -2.874574,-1.5059 -4.261517,2.1848 -13.928003,1.8949 -14.276543,-3.6982 -0.397205,-6.37881 7.935869,-12.70371 13.244516,-14.56505 2.247805,-0.78803 4.405162,-0.57777 6.244016,1.20185 1.107541,1.0718 1.565493,2.32533 3.642804,0.24785 2.146281,-1.91521 5.785225,-3.06688 8.505078,-3.39226 1.776933,-0.21262 3.164716,0.72191 4.415398,1.87174 1.562976,1.43679 2.240422,1.52371 4.001245,0.42254 2.934649,-1.83516 6.172025,-2.95595 9.577043,-2.96317 4.683388,-0.0101 8.034036,3.06219 6.646927,8.33861 -1.377043,5.23817 -5.256795,7.99719 -9.89387,9.54399 -4.103774,1.3689 -8.083371,0.4989 -11.138507,-3.01721 -1.488301,-1.71283 -2.232199,-1.57338 -4.082968,-0.33629 -1.734645,1.15936 -4.395597,2.2906 -6.287479,3.2018 -1.752432,0.8441 -1.581434,1.6055 -1.301193,3.5192 0.530277,3.6206 0.993934,7.2515 1.446852,10.883 0.185597,1.4889 1.346334,1.703 2.432899,1.8626 2.407224,0.3536 4.830558,0.6041 7.252214,0.8476 0.69557,0.07 1.416646,-0.1031 2.109531,-0.023 0.470369,0.055 0.911875,0.3569 1.366303,0.5484 -0.262622,0.4699 -0.408448,1.1488 -0.808505,1.3717 -1.414465,0.7882 -2.859471,1.6187 -4.39996,2.0558 -1.555256,0.4412 -3.233853,0.4907 -4.865798,0.6082 -2.121109,0.1529 -4.249603,0.2033 -6.374907,0.298 z m -5.86913,-25.64062 c -0.565182,-2.2426 -1.556599,-4.30145 -3.105143,-6.06009 -0.38915,-0.44201 -1.477561,-0.59589 -2.121949,-0.42439 -2.028646,0.53984 -3.288391,3.01351 -2.745695,5.04283 0.792731,2.96423 2.666825,4.54097 5.687056,4.78467 2.616819,0.2109 2.728412,-1.58744 2.285731,-3.34302 z m 25.739092,-5.15191 c 0.135422,0.6897 0.609316,1.34029 1.024979,1.94206 0.946277,1.37066 2.3448,2.08268 3.884617,2.63125 1.489137,0.53078 2.663972,0.14985 3.104806,-1.32989 0.660497,-2.21593 -0.121326,-5.50549 -2.286398,-6.56739 -1.88366,-0.92362 -6.511673,-0.66704 -5.728004,3.32397 z m -14.873776,5.26737 c 1.752936,-0.56619 3.178308,-1.82359 3.453851,-3.26725 0.304238,-1.59318 -1.057535,-3.8722 -2.689312,-4.50031 -0.738361,-0.28427 -1.378386,-0.3321 -1.928632,-0.1361 -0.883013,0.31448 -2.791172,2.95278 -2.918036,3.65691 -0.172676,0.95987 0.573404,2.36628 0.901472,3.19475 0.470369,1.18742 2.047105,1.41832 3.180657,1.052 z"
       id="path4205"
       inkscape:connector-curvature="0"
       style="clip-rule:evenodd;fill:#000000;fill-rule:nonzero;stroke-width:0.01678093;image-rendering:optimizeQuality;shape-rendering:geometricPrecision;text-rendering:geometricPrecision" />
  </g>
</svg>
