<?xml version="1.0" encoding="UTF-8" standalone="no"?>
<!-- Created with Inkscape (http://www.inkscape.org/) -->

<svg
   xmlns:dc="http://purl.org/dc/elements/1.1/"
   xmlns:cc="http://creativecommons.org/ns#"
   xmlns:rdf="http://www.w3.org/1999/02/22-rdf-syntax-ns#"
   xmlns:svg="http://www.w3.org/2000/svg"
   xmlns="http://www.w3.org/2000/svg"
   xmlns:sodipodi="http://sodipodi.sourceforge.net/DTD/sodipodi-0.dtd"
   xmlns:inkscape="http://www.inkscape.org/namespaces/inkscape"
   width="100"
   height="100"
   id="svg2"
   version="1.1"
   inkscape:version="0.92.3 (2405546, 2018-03-11)"
   sodipodi:docname="p.svg">
  <defs
     id="defs4" />
  <sodipodi:namedview
     id="base"
     pagecolor="#ffffff"
     bordercolor="#666666"
     borderopacity="1.0"
     inkscape:pageopacity="0.0"
     inkscape:pageshadow="2"
     inkscape:zoom="4.2623907"
     inkscape:cx="51.756808"
     inkscape:cy="49.983936"
     inkscape:document-units="px"
     inkscape:current-layer="layer1"
     showgrid="false"
     inkscape:window-width="789"
     inkscape:window-height="800"
     inkscape:window-x="1150"
     inkscape:window-y="122"
     inkscape:window-maximized="0" />
  <metadata
     id="metadata7">
    <rdf:RDF>
      <cc:Work
         rdf:about="">
        <dc:format>image/svg+xml</dc:format>
        <dc:type
           rdf:resource="http://purl.org/dc/dcmitype/StillImage" />
        <dc:title></dc:title>
      </cc:Work>
    </rdf:RDF>
  </metadata>
  <g
     inkscape:label="Layer 1"
     inkscape:groupmode="layer"
     id="layer1"
     transform="translate(0,-952.3622)">
    <path
       class="fil0"
       d="m 39.745794,1005.1304 c -0.08279,-1.1336 -0.531818,-1.6284 -1.785277,-1.1916 -4.365311,1.5215 -7.617622,2.6155 -12.350879,2.0303 -2.933221,-0.3626 -4.960063,-4.1943 -3.862331,-6.89858 2.184775,-5.37874 11.544416,-9.86534 17.249702,-10.06093 4.184814,-0.14335 7.091741,2.73593 7.575721,6.55925 0.611377,4.82796 0.249029,9.94926 0.667866,14.84896 0.102972,1.2033 0.792891,2.4474 1.495026,3.483 0.743186,1.0965 2.937292,0.5887 3.240945,-0.7221 0.808668,-3.4901 1.338619,-9.4077 2.080617,-11.8149 0.714179,-2.31635 3.912206,-6.23569 5.85372,-7.82249 2.764261,-2.25958 10.525225,-5.69476 14.169065,-6.11886 3.705075,-0.43105 6.419804,2.92508 5.715123,6.42184 -0.59424,2.94781 -3.391416,5.64862 -5.958894,6.98311 -3.644518,1.8944 -8.574723,2.6481 -12.008887,2.9194 -1.339636,0.106 -1.919461,0.9164 -2.006146,2.1439 -0.07803,1.1025 -0.264466,2.103 -0.53996,3.0279 -1.468391,4.9301 -9.342337,14.7265 -15.355516,11.6416 -2.561543,-1.3139 -3.801262,-3.6613 -3.92476,-6.5409 -0.134353,-3.1327 -0.01577,-5.6153 -0.255135,-8.8889 z m 31.476273,-6.64684 c 3.062994,-1.04022 -0.257173,-6.15567 -3.170377,-5.54412 -2.616166,0.54946 -4.695765,1.94626 -6.562808,3.78057 -1.078562,1.05956 -1.061428,1.94405 0.354036,2.46806 3.794985,1.40513 5.627589,0.56949 9.379149,-0.70451 z m -34.40254,2.16924 c 1.371019,-0.4796 2.53457,-1.63368 2.573587,-2.73227 0.01781,-0.5028 -0.887379,-1.80138 -1.63328,-2.58461 -2.056869,-2.1595 -6.872569,-1.02614 -7.523472,0.54776 -0.572192,1.38358 1.001715,3.71628 2.281808,4.51732 1.065671,0.6669 3.082673,0.6777 4.301357,0.2518 z"
       id="path4213"
       inkscape:connector-curvature="0"
       style="clip-rule:evenodd;fill:#000000;fill-rule:nonzero;stroke-width:0.01696386;image-rendering:optimizeQuality;shape-rendering:geometricPrecision;text-rendering:geometricPrecision" />
  </g>
</svg>
