<?xml version="1.0" encoding="UTF-8" standalone="no"?>
<!-- Created with Inkscape (http://www.inkscape.org/) -->

<svg
   xmlns:dc="http://purl.org/dc/elements/1.1/"
   xmlns:cc="http://creativecommons.org/ns#"
   xmlns:rdf="http://www.w3.org/1999/02/22-rdf-syntax-ns#"
   xmlns:svg="http://www.w3.org/2000/svg"
   xmlns="http://www.w3.org/2000/svg"
   xmlns:sodipodi="http://sodipodi.sourceforge.net/DTD/sodipodi-0.dtd"
   xmlns:inkscape="http://www.inkscape.org/namespaces/inkscape"
   width="100"
   height="100"
   id="svg2"
   version="1.1"
   inkscape:version="0.92.3 (2405546, 2018-03-11)"
   sodipodi:docname="t.svg">
  <defs
     id="defs4" />
  <sodipodi:namedview
     id="base"
     pagecolor="#ffffff"
     bordercolor="#666666"
     borderopacity="1.0"
     inkscape:pageopacity="0.0"
     inkscape:pageshadow="2"
     inkscape:zoom="4.2623907"
     inkscape:cx="51.756808"
     inkscape:cy="49.983936"
     inkscape:document-units="px"
     inkscape:current-layer="layer1"
     showgrid="false"
     inkscape:window-width="789"
     inkscape:window-height="800"
     inkscape:window-x="1150"
     inkscape:window-y="122"
     inkscape:window-maximized="0" />
  <metadata
     id="metadata7">
    <rdf:RDF>
      <cc:Work
         rdf:about="">
        <dc:format>image/svg+xml</dc:format>
        <dc:type
           rdf:resource="http://purl.org/dc/dcmitype/StillImage" />
        <dc:title></dc:title>
      </cc:Work>
    </rdf:RDF>
  </metadata>
  <g
     inkscape:label="Layer 1"
     inkscape:groupmode="layer"
     id="layer1"
     transform="translate(0,-952.3622)">
    <path
       class="fil0"
       d="m 57.793626,1008.0313 c -3.156154,0.4688 -6.332088,0.9759 -9.399389,1.8256 -4.497892,1.2462 -9.948831,3.3934 -14.344213,5.2222 -2.779393,1.1565 -5.528017,2.3874 -8.316045,3.5218 -1.266386,0.5154 -1.770146,-0.8046 -1.112856,-1.3548 2.124615,-1.7778 3.453481,-2.7918 5.747795,-4.2927 2.042355,-1.3375 3.003095,-3.1149 2.819738,-5.6952 -0.143169,-2.0125 0.05228,-5.4464 -0.692925,-7.1768 -1.153672,-2.67939 -0.627934,-4.46461 1.807979,-6.06269 0.257453,-0.16892 0.517732,-0.34176 0.744416,-0.54835 0.675814,-0.616 1.264031,-1.40061 2.374218,-0.99763 1.254142,0.45525 1.890553,1.39857 2.116924,2.65616 0.838606,4.65849 0.09623,6.35811 -0.956344,10.64741 -0.456665,1.8593 0.431391,2.8139 2.32006,2.4852 2.731513,-0.4752 6.997697,-2.2103 9.684941,-3.2087 1.930427,-0.7173 2.071084,-1.226 1.278788,-3.0648 -0.623853,-1.4484 -1.22039,-2.90924 -1.793066,-4.37877 -0.455409,-1.16874 -0.284454,-2.1827 0.431705,-2.98269 1.437812,-1.60672 3.459917,-2.56542 5.516715,-3.08472 0.273622,-0.0691 0.929185,0.48413 1.053831,0.86702 1.285537,3.94688 1.201238,6.24307 4.269166,9.51116 0.951321,1.0135 4.775438,0.6053 5.527391,-0.5537 0.515532,-0.7948 0.707524,-1.88504 0.780206,-2.86289 0.148194,-1.99573 0.339244,-5.61436 0.146466,-7.60789 -0.157452,-1.63216 0.246778,-2.95302 1.194018,-4.01109 0.337515,-0.37708 2.907649,-2.46762 3.288647,-2.69321 1.170783,-0.6934 2.657574,-0.83232 2.548315,1.01113 -0.133909,2.2692 -0.418833,4.52898 -0.631074,6.79393 -0.14254,1.524 -0.485081,8.23572 -0.339401,8.74852 0.142072,0.4991 0.750069,0.8303 1.44472,0.8258 0.430293,-0 0.886645,-0.2912 1.28287,-0.2112 1.481454,0.2995 2.548473,1.3056 1.268112,2.6288 -1.014739,1.0493 -2.269668,2.0411 -3.738873,2.236 -3.33088,0.4427 -15.002133,1.6109 -16.322835,1.8071 z"
       id="path4223"
       inkscape:connector-curvature="0"
       style="clip-rule:evenodd;fill:#000000;fill-rule:nonzero;stroke-width:0.01569835;image-rendering:optimizeQuality;shape-rendering:geometricPrecision;text-rendering:geometricPrecision" />
  </g>
</svg>
