<?xml version="1.0" encoding="UTF-8" standalone="no"?>
<!-- Created with Inkscape (http://www.inkscape.org/) -->

<svg
   xmlns:dc="http://purl.org/dc/elements/1.1/"
   xmlns:cc="http://creativecommons.org/ns#"
   xmlns:rdf="http://www.w3.org/1999/02/22-rdf-syntax-ns#"
   xmlns:svg="http://www.w3.org/2000/svg"
   xmlns="http://www.w3.org/2000/svg"
   xmlns:sodipodi="http://sodipodi.sourceforge.net/DTD/sodipodi-0.dtd"
   xmlns:inkscape="http://www.inkscape.org/namespaces/inkscape"
   width="100"
   height="100"
   viewBox="0 0 26.458333 26.458334"
   version="1.1"
   id="svg2638"
   inkscape:version="0.92.3 (2405546, 2018-03-11)"
   sodipodi:docname="butterfly6.svg">
  <defs
     id="defs2632" />
  <sodipodi:namedview
     id="base"
     pagecolor="#ffffff"
     bordercolor="#666666"
     borderopacity="1.0"
     inkscape:pageopacity="0.0"
     inkscape:pageshadow="2"
     inkscape:zoom="5.7746887"
     inkscape:cx="124.29189"
     inkscape:cy="17.321297"
     inkscape:document-units="mm"
     inkscape:current-layer="layer1"
     showgrid="false"
     units="px"
     inkscape:window-width="1920"
     inkscape:window-height="1017"
     inkscape:window-x="-8"
     inkscape:window-y="-8"
     inkscape:window-maximized="1" />
  <metadata
     id="metadata2635">
    <rdf:RDF>
      <cc:Work
         rdf:about="">
        <dc:format>image/svg+xml</dc:format>
        <dc:type
           rdf:resource="http://purl.org/dc/dcmitype/StillImage" />
        <dc:title />
      </cc:Work>
    </rdf:RDF>
  </metadata>
  <g
     inkscape:label="Layer 1"
     inkscape:groupmode="layer"
     id="layer1"
     transform="translate(0,-270.54165)">
    <g
       transform="matrix(1.6674737,0,0,1.6674737,-1062.9677,200.64996)"
       id="g2009">
      <path
         inkscape:connector-curvature="0"
         id="path1855"
         d="m 644.93604,44.652505 c -0.0388,0.0012 -0.0736,0.0052 -0.10502,0.0087 -0.0306,0.0034 -0.0588,0.0079 -0.0854,0.01249 h -1.4e-4 c -0.003,5.62e-4 -0.004,7.73e-4 -0.002,4.36e-4 l 1.4e-4,-1.45e-4 c -0.0142,0.0025 -0.0326,0.0052 -0.0558,0.01017 -0.0306,0.0066 -0.0575,0.01392 -0.0815,0.02063 -0.0121,0.0034 -0.0317,0.0077 -0.058,0.01641 h -1.5e-4 c -0.0102,0.0034 -0.0126,0.0045 -0.008,0.0028 -10e-4,3.93e-4 -0.009,0.0032 -10e-4,4.35e-4 -0.0359,0.01219 -0.0712,0.02571 -0.10574,0.04227 -0.0214,0.01028 -0.042,0.02193 -0.0616,0.03486 -0.0389,0.02563 -0.0729,0.05548 -0.10239,0.08729 -0.0145,0.01571 -0.0283,0.03216 -0.0411,0.04909 v 1.46e-4 l -0.0333,0.04372 v 0.0039 c -8.4e-4,0.0011 -10e-4,0.0021 -0.002,0.0032 v 1.45e-4 l -0.0257,0.04009 v 0.0089 c -0.0199,0.03584 -0.0405,0.07169 -0.0564,0.107485 v 1.45e-4 l -0.0141,0.03152 v 0.0026 c -0.0241,0.05675 -0.0466,0.113431 -0.0678,0.164276 v 1.45e-4 l -5.6e-4,7.25e-4 c -0.0254,0.06086 -0.0511,0.115165 -0.0782,0.15716 -0.0329,0.05111 -0.0681,0.10306 -0.10385,0.15716 -0.80163,1.215031 -1.76489,2.350684 -2.5757,3.588674 -0.0276,0.04219 -0.0574,0.08591 -0.0872,0.132323 -0.14377,0.224045 -0.28206,0.451616 -0.41309,0.683979 -0.0655,0.116134 -0.1291,0.233557 -0.19071,0.352229 -0.0616,0.118735 -0.12118,0.238686 -0.17837,0.360073 -0.0385,0.08166 -0.0786,0.164281 -0.11968,0.247504 v 1.46e-4 l -1.5e-4,1.45e-4 c -0.002,0.0036 -0.003,0.005 -0.002,0.0039 v 1.45e-4 l -1.4e-4,1.45e-4 c -0.0404,0.08174 -0.0818,0.164078 -0.1239,0.247214 -0.08,0.158105 -0.16224,0.318327 -0.24417,0.480485 -0.53231,1.053586 -1.0613,2.196162 -0.76952,3.345237 0.14546,0.572847 0.66059,1.024633 1.19873,1.207458 1.07286,0.364483 2.32605,0.08106 3.3024,-0.426016 0.39317,-0.204201 0.84863,-0.472435 1.21384,-0.811799 0.36522,-0.33936 0.64851,-0.761269 0.6436,-1.260328 -8.4e-4,-0.08658 -8.4e-4,-0.17707 -10e-4,-0.266823 -0.002,-0.335921 -5.7e-4,-0.682458 0.002,-1.035047 8.4e-4,-0.08751 0.002,-0.177808 0.003,-0.267403 0.0141,-1.345055 0.0498,-2.76339 0.0616,-4.07773 5.7e-4,-0.05802 0.002,-0.119442 0.002,-0.179093 0.004,-0.517853 0.003,-1.016098 -0.005,-1.484738 -5.6e-4,-0.03862 -10e-4,-0.07954 -0.002,-0.11954 -3e-5,-0.0015 -4e-5,-0.005 -1.4e-4,-0.01017 -0.003,-0.159742 -0.007,-0.31546 -0.0126,-0.467267 v -1.46e-4 h -1.5e-4 c -4e-5,-0.0012 -8e-5,-0.0026 -1.5e-4,-0.0042 l 1.5e-4,1.46e-4 c -0.004,-0.120528 -0.01,-0.235749 -0.0151,-0.349615 -0.002,-0.03565 -0.003,-0.07549 -0.005,-0.114747 l -1.5e-4,-2.89e-4 v -2.97e-4 -2.89e-4 c 2.7e-4,0.0068 -5e-5,-0.0017 0,-8.72e-4 v -4.35e-4 l -1.4e-4,-7.26e-4 v -7.25e-4 c -2.8e-4,-0.0075 -5.6e-4,-0.0081 -1.5e-4,-0.0019 l 1.5e-4,4.36e-4 c -0.008,-0.146208 -0.0169,-0.287654 -0.0275,-0.423693 v -1.45e-4 c -10e-4,-0.0187 -0.004,-0.03609 -0.008,-0.05185 v -1.45e-4 c -0.004,-0.0183 -0.009,-0.0292 -0.01,-0.03268 v -1.47e-4 c 0.003,0.0097 0.002,0.0056 -0.003,-0.0089 l -1.5e-4,-5.82e-4 c 0.004,0.01119 0.005,0.01105 -0.003,-0.0073 l -1.4e-4,-1.45e-4 v -2.89e-4 c -0.0109,-0.02732 -0.0242,-0.04859 -0.0352,-0.06449 -4e-5,-5.8e-5 -0.002,-0.0036 -0.007,-0.01002 l -1.4e-4,-1.45e-4 c 0.006,0.0084 0.004,0.0037 -0.01,-0.01293 v -1.45e-4 c -0.0253,-0.0309 -0.0343,-0.03506 -0.02,-0.02033 -0.008,-0.0085 -0.0207,-0.02148 -0.0392,-0.03573 0.0102,0.0079 -0.004,-0.003 -0.005,-0.0045 -0.002,-0.0011 -0.0418,-0.01943 -0.0575,-0.02672 0.0162,0.0063 0.0401,0.01563 0.0428,0.0167 -0.006,-0.0033 -0.0202,-0.01245 -0.0118,-0.0071 -0.0119,-0.0075 -0.0262,-0.01593 -0.0431,-0.02411 h -1.5e-4 v -1.46e-4 c -0.009,-0.0045 -0.02,-0.0093 -0.0318,-0.01394 l -1.5e-4,-1.45e-4 c -0.0159,-0.0063 -0.0315,-0.01149 -0.0465,-0.01598 h -1.4e-4 c 0.0104,0.0031 0.004,-7.2e-5 -0.0188,-0.0061 -0.0192,-0.0051 -0.0238,-0.0054 -0.0139,-0.0031 -0.0188,-0.0045 -0.035,-0.0072 -0.0489,-0.0096 l -1.4e-4,-1.45e-4 c 0.005,8.15e-4 -0.005,-0.0011 -0.0176,-0.0032 -2.7e-4,-3.4e-5 -5.6e-4,-1.09e-4 -8.4e-4,-1.45e-4 -0.003,-3.93e-4 -2e-4,-1.52e-4 -0.003,-5.82e-4 -0.0136,-0.0019 -0.0141,-0.002 -0.002,-2.89e-4 -0.0147,-0.002 -0.009,-0.0011 -0.005,-4.36e-4 0.001,1.93e-4 -0.004,-5.06e-4 -10e-4,-1.45e-4 -1.8e-4,-2.4e-5 -1.2e-4,2.3e-5 -2.8e-4,0 -2.8e-4,-5.1e-5 -2e-4,-9.4e-5 -5.6e-4,-1.46e-4 h -1.5e-4 c -0.0214,-0.0028 -0.0418,-0.0043 -0.0609,-0.0055 -0.0166,-0.001 -0.011,-6.46e-4 -8.4e-4,0 h -1.5e-4 c 0.005,2.81e-4 0.003,-5.7e-5 -0.006,-5.82e-4 0.0119,6.47e-4 0.007,2.4e-5 -0.008,-7.25e-4 -10e-6,-10e-7 8e-5,2.6e-5 -8.5e-4,0 -0.0152,-7.02e-4 -0.015,-5.06e-4 -0.003,0 h -1.5e-4 c -0.0254,-0.0011 -0.0517,-0.0013 -0.0784,-5.82e-4 h -0.003 z m 0.31591,0.06783 c 0.002,1.14e-4 0.0362,0.0022 0.0362,0.0022 0,0 10e-4,4.08e-4 10e-4,4.36e-4 -0.005,-3.01e-4 -0.0347,-0.0024 -0.0373,-0.0026 z"
         style="fill:#ff0000;stroke:none;stroke-width:0.07436763px;stroke-linecap:butt;stroke-linejoin:miter;stroke-opacity:1" />
      <path
         inkscape:connector-curvature="0"
         id="path1884"
         d="m 644.94127,44.816202 c -0.15704,0.005 -0.32601,0.04511 -0.43633,0.09804 -0.23871,0.114541 -0.27294,0.453821 -0.41629,0.676425 -1.1434,1.775628 -2.63827,3.345064 -3.53841,5.255556 -0.15094,0.320356 -0.32301,0.64937 -0.49197,0.983774 a 8.3777668,8.3777668 0 0 0 5.0711,1.722076 8.3777668,8.3777668 0 0 0 0.20683,-0.0073 c -0.0147,-2.846011 0.16688,-6.395755 0.001,-8.526571 -0.0122,-0.15685 -0.19433,-0.208443 -0.39624,-0.202041 z"
         style="opacity:1;vector-effect:none;fill:#00ff00;fill-opacity:1;fill-rule:nonzero;stroke:none;stroke-width:2.16986513;stroke-linecap:butt;stroke-linejoin:miter;stroke-miterlimit:4;stroke-dasharray:none;stroke-dashoffset:0;stroke-opacity:0.44186048" />
      <path
         inkscape:connector-curvature="0"
         id="path1857"
         d="m 644.98792,44.411557 c -0.18685,0.0059 -0.3879,0.05367 -0.51916,0.116657 -0.28403,0.136286 -0.32476,0.539979 -0.49532,0.804843 -0.0408,0.06342 -0.0832,0.125904 -0.12478,0.188897 a 2.1979716,5.2937061 0 0 0 1.67536,3.962348 c 0.0284,-1.825051 0.0353,-3.546813 -0.0646,-4.832347 -0.0145,-0.186628 -0.23123,-0.248015 -0.47146,-0.240398 z"
         style="opacity:1;vector-effect:none;fill:#0000ff;fill-opacity:1;fill-rule:nonzero;stroke:none;stroke-width:2.22901511;stroke-linecap:butt;stroke-linejoin:miter;stroke-miterlimit:4;stroke-dasharray:none;stroke-dashoffset:0;stroke-opacity:0.44186048" />
      <ellipse
         style="opacity:1;vector-effect:none;fill:#0000ff;fill-opacity:1;fill-rule:nonzero;stroke:none;stroke-width:0.32745185;stroke-linecap:butt;stroke-linejoin:miter;stroke-miterlimit:4;stroke-dasharray:none;stroke-dashoffset:0;stroke-opacity:0.44186048"
         id="ellipse1932"
         cx="604.6474"
         cy="-223.62976"
         rx="0.23916671"
         ry="0.64391041"
         transform="rotate(24.623565)" />
      <ellipse
         style="opacity:1;vector-effect:none;fill:#0000ff;fill-opacity:1;fill-rule:nonzero;stroke:none;stroke-width:0.32745185;stroke-linecap:butt;stroke-linejoin:miter;stroke-miterlimit:4;stroke-dasharray:none;stroke-dashoffset:0;stroke-opacity:0.44186048"
         id="ellipse1934"
         cx="605.43762"
         cy="-223.14197"
         rx="0.23916671"
         ry="0.64391041"
         transform="rotate(24.623565)" />
      <ellipse
         style="opacity:1;vector-effect:none;fill:#0000ff;fill-opacity:1;fill-rule:nonzero;stroke:none;stroke-width:0.32745185;stroke-linecap:butt;stroke-linejoin:miter;stroke-miterlimit:4;stroke-dasharray:none;stroke-dashoffset:0;stroke-opacity:0.44186048"
         id="ellipse1936"
         cx="606.69757"
         cy="-222.42421"
         rx="0.23916671"
         ry="0.64391041"
         transform="rotate(24.623565)" />
      <ellipse
         style="opacity:1;vector-effect:none;fill:#0000ff;fill-opacity:1;fill-rule:nonzero;stroke:none;stroke-width:0.32745185;stroke-linecap:butt;stroke-linejoin:miter;stroke-miterlimit:4;stroke-dasharray:none;stroke-dashoffset:0;stroke-opacity:0.44186048"
         id="ellipse1938"
         cx="604.34082"
         cy="-221.38451"
         rx="0.23916671"
         ry="0.64391041"
         transform="rotate(24.623565)" />
      <ellipse
         style="opacity:1;vector-effect:none;fill:#0000ff;fill-opacity:1;fill-rule:nonzero;stroke:none;stroke-width:0.32745185;stroke-linecap:butt;stroke-linejoin:miter;stroke-miterlimit:4;stroke-dasharray:none;stroke-dashoffset:0;stroke-opacity:0.44186048"
         id="ellipse1940"
         cx="605.3136"
         cy="-220.93991"
         rx="0.23916671"
         ry="0.64391041"
         transform="rotate(24.623565)" />
      <ellipse
         style="opacity:1;vector-effect:none;fill:#0000ff;fill-opacity:1;fill-rule:nonzero;stroke:none;stroke-width:0.32745185;stroke-linecap:butt;stroke-linejoin:miter;stroke-miterlimit:4;stroke-dasharray:none;stroke-dashoffset:0;stroke-opacity:0.44186048"
         id="ellipse1942"
         cx="606.29199"
         cy="-220.65977"
         rx="0.23916671"
         ry="0.64391041"
         transform="rotate(24.623565)" />
      <ellipse
         transform="rotate(24.623565)"
         ry="0.64391041"
         rx="0.23916671"
         cy="-220.86186"
         cx="607.61603"
         id="path1930"
         style="opacity:1;vector-effect:none;fill:#0000ff;fill-opacity:1;fill-rule:nonzero;stroke:none;stroke-width:0.32745185;stroke-linecap:butt;stroke-linejoin:miter;stroke-miterlimit:4;stroke-dasharray:none;stroke-dashoffset:0;stroke-opacity:0.44186048" />
      <path
         id="path1855-8"
         d="m 645.87548,44.652505 c 0.0387,0.0012 0.0736,0.0052 0.10502,0.0087 0.0306,0.0034 0.0588,0.0079 0.0854,0.01249 v 0 c 0.003,5.91e-4 0.004,7.87e-4 0.002,4.5e-4 v -1.49e-4 c 0.0142,0.0025 0.0326,0.0052 0.0558,0.01017 0.0306,0.0066 0.0575,0.01392 0.0815,0.02063 0.0121,0.0034 0.0317,0.0077 0.058,0.01641 v 0 c 0.0101,0.0034 0.0126,0.0045 0.008,0.0027 10e-4,3.65e-4 0.009,0.0032 10e-4,4.5e-4 0.0358,0.01219 0.0712,0.0257 0.10574,0.04227 0.0214,0.01028 0.042,0.02193 0.0616,0.03486 0.0389,0.02563 0.0729,0.05548 0.1024,0.08729 0.0145,0.01571 0.0283,0.03216 0.0411,0.04909 v 1.49e-4 l 0.0332,0.04372 v 0.0039 c 8.5e-4,0.0011 0.001,0.0021 0.002,0.0032 v 1.48e-4 l 0.0257,0.04009 v 0.0089 c 0.0199,0.03584 0.0405,0.07169 0.0564,0.107485 v 1.48e-4 l 0.0141,0.03152 v 0.0026 c 0.0241,0.05675 0.0466,0.113432 0.0678,0.164277 v 1.49e-4 l 8.4e-4,7.3e-4 c 0.0254,0.06086 0.0511,0.115165 0.0782,0.15716 0.0329,0.05111 0.0682,0.10306 0.10385,0.15716 0.80163,1.215031 1.7649,2.350684 2.57571,3.588674 0.0276,0.04219 0.0574,0.08591 0.0871,0.132322 0.14377,0.224045 0.28206,0.451617 0.41309,0.68398 0.0655,0.116134 0.12909,0.233557 0.1907,0.352229 0.0616,0.118735 0.12118,0.238686 0.17837,0.360071 0.0385,0.08166 0.0786,0.164282 0.11969,0.247506 v 1.49e-4 1.49e-4 c 0.002,0.0036 0.003,0.005 0.002,0.0039 v 1.49e-4 1.48e-4 c 0.0404,0.08174 0.0818,0.164078 0.12391,0.247214 0.0801,0.158104 0.16223,0.318328 0.24416,0.480486 0.53232,1.053586 1.06131,2.196163 0.76953,3.345238 -0.14547,0.572846 -0.6606,1.024632 -1.19874,1.207456 -1.07286,0.364484 -2.32604,0.08106 -3.30239,-0.426016 -0.39318,-0.2042 -0.84864,-0.472436 -1.21385,-0.811799 -0.36522,-0.339361 -0.64851,-0.761268 -0.6436,-1.260327 8.4e-4,-0.08658 8.4e-4,-0.177073 0.001,-0.266824 0.002,-0.335922 8.4e-4,-0.682459 -0.002,-1.035046 -8.5e-4,-0.08751 -0.002,-0.177808 -0.003,-0.267403 -0.0141,-1.345055 -0.0498,-2.763391 -0.0616,-4.07773 -8.4e-4,-0.05802 -0.002,-0.119442 -0.002,-0.179093 -0.004,-0.517853 -0.003,-1.016099 0.005,-1.484738 8.5e-4,-0.03862 10e-4,-0.07954 0.002,-0.11954 3e-5,-0.0015 4e-5,-0.005 0,-0.01017 0.003,-0.159742 0.007,-0.31546 0.0127,-0.467267 v -1.49e-4 0 c 4e-5,-0.0012 0,-0.0026 0,-0.0042 v 1.49e-4 c 0.004,-0.120528 0.01,-0.235749 0.0151,-0.349616 0.002,-0.03565 0.003,-0.07549 0.005,-0.114746 v -3.09e-4 -3.09e-4 -3.1e-4 c 0,0.0068 6e-5,-0.0017 0,-8.71e-4 v -4.5e-4 -7.58e-4 -7.59e-4 c 0,-0.0075 8.4e-4,-0.0081 0,-0.0019 v 4.49e-4 c 0.008,-0.146208 0.0169,-0.287654 0.0275,-0.423692 V 45.0053 c 10e-4,-0.0187 0.004,-0.03609 0.008,-0.05185 v -1.43e-4 c 0.004,-0.0183 0.009,-0.0292 0.01,-0.03268 v -1.49e-4 c -0.003,0.0097 -0.002,0.0056 0.003,-0.0089 v -5.9e-4 c -0.004,0.01119 -0.005,0.01105 0.003,-0.0073 v -1.49e-4 -3.09e-4 c 0.0109,-0.02733 0.0242,-0.04859 0.0352,-0.06449 4e-5,-5.8e-5 0.002,-0.0036 0.007,-0.01002 v -1.49e-4 c -0.006,0.0084 -0.004,0.0037 0.01,-0.01293 v -1.49e-4 c 0.0253,-0.0309 0.0343,-0.03506 0.02,-0.02034 0.008,-0.0085 0.0207,-0.02148 0.0392,-0.03573 -0.0102,0.0078 0.004,-0.003 0.005,-0.0045 0.002,-0.0011 0.0418,-0.01943 0.0575,-0.02672 -0.0162,0.0063 -0.0401,0.01563 -0.0428,0.0167 0.006,-0.0033 0.0202,-0.01245 0.0118,-0.0071 0.0119,-0.0075 0.0262,-0.01593 0.0431,-0.02411 v 0 -1.49e-4 c 0.009,-0.0045 0.02,-0.0093 0.0318,-0.01394 v -1.48e-4 c 0.0159,-0.0063 0.0315,-0.01149 0.0465,-0.01598 v 0 c -0.0104,0.0031 -0.004,-7.3e-5 0.0187,-0.0061 0.0192,-0.005 0.0238,-0.0054 0.0139,-0.0031 0.0187,-0.0045 0.035,-0.0072 0.0489,-0.0096 v -1.38e-4 c -0.005,8.15e-4 0.005,-0.0011 0.0176,-0.0032 0,-3.5e-5 8.5e-4,-7.5e-5 8.5e-4,-1.49e-4 0.003,-3.66e-4 0,-1.49e-4 0.003,-5.9e-4 0.0136,-0.0019 0.0141,-0.002 0.002,-3.1e-4 0.0147,-0.002 0.009,-0.0011 0.005,-4.49e-4 -10e-4,2.23e-4 0.004,-5.34e-4 10e-4,-1.49e-4 0,-2.5e-5 0,2.3e-5 0,0 0,-5.1e-5 0,-7.5e-5 8.5e-4,-1.49e-4 v 0 c 0.0214,-0.0027 0.0418,-0.0043 0.0609,-0.0055 0.0166,-10e-4 0.011,-6.75e-4 8.4e-4,0 v 0 c -0.005,3.09e-4 -0.003,-5.7e-5 0.006,-5.9e-4 -0.0119,6.74e-4 -0.007,2.4e-5 0.008,-7.31e-4 10e-6,-2e-6 0,2.6e-5 8.5e-4,0 0.0152,-6.75e-4 0.015,-5.34e-4 0.003,0 v 0 c 0.0254,-0.0011 0.0517,-0.0013 0.0784,-5.9e-4 h 0.003 z m -0.31591,0.06783 c -0.002,1.49e-4 -0.0362,0.0022 -0.0362,0.0022 0,0 -10e-4,3.66e-4 -10e-4,4.5e-4 0.005,-3.09e-4 0.0347,-0.0025 0.0373,-0.0026 z"
         style="fill:#ff0000;stroke:none;stroke-width:0.07436763px;stroke-linecap:butt;stroke-linejoin:miter;stroke-opacity:1"
         inkscape:connector-curvature="0" />
      <path
         id="path1884-3"
         d="m 645.87026,44.816202 c 0.15703,0.005 0.32601,0.04511 0.43632,0.09804 0.23871,0.114541 0.27294,0.453822 0.41629,0.676426 1.14341,1.775627 2.63828,3.345063 3.53842,5.255555 0.15093,0.320357 0.323,0.649372 0.49196,0.983775 a 8.3777668,8.3777668 0 0 1 -5.07109,1.722077 8.3777668,8.3777668 0 0 1 -0.20683,-0.0073 c 0.0147,-2.846013 -0.16689,-6.395756 -10e-4,-8.526572 0.0122,-0.15685 0.19434,-0.208443 0.39624,-0.202041 z"
         style="opacity:1;vector-effect:none;fill:#00ff00;fill-opacity:1;fill-rule:nonzero;stroke:none;stroke-width:2.16986513;stroke-linecap:butt;stroke-linejoin:miter;stroke-miterlimit:4;stroke-dasharray:none;stroke-dashoffset:0;stroke-opacity:0.44186048"
         inkscape:connector-curvature="0" />
      <path
         inkscape:connector-curvature="0"
         id="path1857-1"
         d="m 645.8236,44.411557 c 0.18685,0.0059 0.38791,0.05367 0.51917,0.116657 0.28402,0.136286 0.32475,0.539979 0.49532,0.804844 0.0408,0.06342 0.0832,0.125903 0.12477,0.188896 a 2.1979717,5.2937061 0 0 1 -1.67536,3.962349 c -0.0284,-1.825052 -0.0353,-3.546814 0.0646,-4.832347 0.0145,-0.186628 0.23123,-0.248016 0.47146,-0.240399 z"
         style="opacity:1;vector-effect:none;fill:#0000ff;fill-opacity:1;fill-rule:nonzero;stroke:none;stroke-width:2.22901511;stroke-linecap:butt;stroke-linejoin:miter;stroke-miterlimit:4;stroke-dasharray:none;stroke-dashoffset:0;stroke-opacity:0.44186048" />
      <ellipse
         style="opacity:1;vector-effect:none;fill:#0000ff;fill-opacity:1;fill-rule:nonzero;stroke:none;stroke-width:0.32745185;stroke-linecap:butt;stroke-linejoin:miter;stroke-miterlimit:4;stroke-dasharray:none;stroke-dashoffset:0;stroke-opacity:0.44186048"
         id="ellipse1932-3"
         cx="-568.78394"
         cy="314.19293"
         rx="0.23916671"
         ry="0.64391041"
         transform="matrix(-0.90906481,0.41665473,0.41665473,0.90906481,0,0)" />
      <ellipse
         style="opacity:1;vector-effect:none;fill:#0000ff;fill-opacity:1;fill-rule:nonzero;stroke:none;stroke-width:0.32745185;stroke-linecap:butt;stroke-linejoin:miter;stroke-miterlimit:4;stroke-dasharray:none;stroke-dashoffset:0;stroke-opacity:0.44186048"
         id="ellipse1934-3"
         cx="-567.99371"
         cy="314.68073"
         rx="0.23916671"
         ry="0.64391041"
         transform="matrix(-0.90906481,0.41665473,0.41665473,0.90906481,0,0)" />
      <ellipse
         style="opacity:1;vector-effect:none;fill:#0000ff;fill-opacity:1;fill-rule:nonzero;stroke:none;stroke-width:0.32745185;stroke-linecap:butt;stroke-linejoin:miter;stroke-miterlimit:4;stroke-dasharray:none;stroke-dashoffset:0;stroke-opacity:0.44186048"
         id="ellipse1936-1"
         cx="-566.73376"
         cy="315.3985"
         rx="0.23916671"
         ry="0.64391041"
         transform="matrix(-0.90906481,0.41665473,0.41665473,0.90906481,0,0)" />
      <ellipse
         style="opacity:1;vector-effect:none;fill:#0000ff;fill-opacity:1;fill-rule:nonzero;stroke:none;stroke-width:0.32745185;stroke-linecap:butt;stroke-linejoin:miter;stroke-miterlimit:4;stroke-dasharray:none;stroke-dashoffset:0;stroke-opacity:0.44186048"
         id="ellipse1938-7"
         cx="-569.09058"
         cy="316.4382"
         rx="0.23916671"
         ry="0.64391041"
         transform="matrix(-0.90906481,0.41665473,0.41665473,0.90906481,0,0)" />
      <ellipse
         style="opacity:1;vector-effect:none;fill:#0000ff;fill-opacity:1;fill-rule:nonzero;stroke:none;stroke-width:0.32745185;stroke-linecap:butt;stroke-linejoin:miter;stroke-miterlimit:4;stroke-dasharray:none;stroke-dashoffset:0;stroke-opacity:0.44186048"
         id="ellipse1940-3"
         cx="-568.11774"
         cy="316.88278"
         rx="0.23916671"
         ry="0.64391041"
         transform="matrix(-0.90906481,0.41665473,0.41665473,0.90906481,0,0)" />
      <ellipse
         style="opacity:1;vector-effect:none;fill:#0000ff;fill-opacity:1;fill-rule:nonzero;stroke:none;stroke-width:0.32745185;stroke-linecap:butt;stroke-linejoin:miter;stroke-miterlimit:4;stroke-dasharray:none;stroke-dashoffset:0;stroke-opacity:0.44186048"
         id="ellipse1942-4"
         cx="-567.13934"
         cy="317.16293"
         rx="0.23916671"
         ry="0.64391041"
         transform="matrix(-0.90906481,0.41665473,0.41665473,0.90906481,0,0)" />
      <ellipse
         transform="matrix(-0.90906481,0.41665473,0.41665473,0.90906481,0,0)"
         ry="0.64391041"
         rx="0.23916671"
         cy="316.96085"
         cx="-565.81531"
         id="path1930-7"
         style="opacity:1;vector-effect:none;fill:#0000ff;fill-opacity:1;fill-rule:nonzero;stroke:none;stroke-width:0.32745185;stroke-linecap:butt;stroke-linejoin:miter;stroke-miterlimit:4;stroke-dasharray:none;stroke-dashoffset:0;stroke-opacity:0.44186048" />
      <circle
         r="0.88460886"
         cy="44.107616"
         cx="645.36353"
         id="path1986"
         style="opacity:1;vector-effect:none;fill:#000000;fill-opacity:1;fill-rule:nonzero;stroke:none;stroke-width:0.32745185;stroke-linecap:butt;stroke-linejoin:miter;stroke-miterlimit:4;stroke-dasharray:none;stroke-dashoffset:0;stroke-opacity:0.44186048" />
    </g>
  </g>
</svg>
