<?xml version="1.0" encoding="UTF-8" standalone="no"?>
<!-- Created with Inkscape (http://www.inkscape.org/) -->

<svg
   xmlns:dc="http://purl.org/dc/elements/1.1/"
   xmlns:cc="http://creativecommons.org/ns#"
   xmlns:rdf="http://www.w3.org/1999/02/22-rdf-syntax-ns#"
   xmlns:svg="http://www.w3.org/2000/svg"
   xmlns="http://www.w3.org/2000/svg"
   xmlns:sodipodi="http://sodipodi.sourceforge.net/DTD/sodipodi-0.dtd"
   xmlns:inkscape="http://www.inkscape.org/namespaces/inkscape"
   width="100"
   height="100"
   viewBox="0 0 26.458333 26.458334"
   version="1.1"
   id="svg2638"
   inkscape:version="0.92.3 (2405546, 2018-03-11)"
   sodipodi:docname="butterfly9.svg">
  <defs
     id="defs2632" />
  <sodipodi:namedview
     id="base"
     pagecolor="#ffffff"
     bordercolor="#666666"
     borderopacity="1.0"
     inkscape:pageopacity="0.0"
     inkscape:pageshadow="2"
     inkscape:zoom="2"
     inkscape:cx="104.15356"
     inkscape:cy="38.03388"
     inkscape:document-units="mm"
     inkscape:current-layer="layer1"
     showgrid="false"
     units="px"
     inkscape:window-width="1920"
     inkscape:window-height="1017"
     inkscape:window-x="-8"
     inkscape:window-y="-8"
     inkscape:window-maximized="1" />
  <metadata
     id="metadata2635">
    <rdf:RDF>
      <cc:Work
         rdf:about="">
        <dc:format>image/svg+xml</dc:format>
        <dc:type
           rdf:resource="http://purl.org/dc/dcmitype/StillImage" />
        <dc:title></dc:title>
      </cc:Work>
    </rdf:RDF>
  </metadata>
  <g
     inkscape:label="Layer 1"
     inkscape:groupmode="layer"
     id="layer1"
     transform="translate(0,-270.54165)">
    <g
       transform="matrix(1.5878585,0,0,1.5878585,-1123.813,161.27175)"
       id="g1831">
      <path
         sodipodi:nodetypes="sssss"
         inkscape:connector-curvature="0"
         id="path2305"
         d="m 716.53684,76.463754 c -0.0484,-1.26781 -1.21326,-2.87976 -2.48198,-2.88563 -1.0621,-0.005 -2.36694,1.36834 -2.10005,2.39638 0.34808,1.34082 2.58871,1.80352 3.91342,1.39844 0.35975,-0.11001 0.68295,-0.53328 0.66861,-0.90919 z"
         style="fill:#ff0000;stroke:none;stroke-width:0.03708144px;stroke-linecap:butt;stroke-linejoin:miter;stroke-opacity:1" />
      <path
         sodipodi:nodetypes="sssss"
         inkscape:connector-curvature="0"
         id="path2307"
         d="m 716.13825,76.646284 c -1.19195,-0.36507 -3.1719,0.45647 -3.33496,1.69236 -0.12157,0.92139 1.15755,2.01784 2.074,1.86339 1.09664,-0.18482 1.61492,-1.80791 1.61388,-2.92002 -2.8e-4,-0.24237 -0.12117,-0.56475 -0.35292,-0.63573 z"
         style="fill:#ff0000;stroke:none;stroke-width:0.03708144px;stroke-linecap:butt;stroke-linejoin:miter;stroke-opacity:1" />
      <path
         sodipodi:nodetypes="sssss"
         inkscape:connector-curvature="0"
         id="path2305-1"
         d="m 715.63385,76.463754 c 0.0484,-1.26781 1.21326,-2.87976 2.48198,-2.88563 1.0621,-0.005 2.36694,1.36834 2.10005,2.39638 -0.34808,1.34082 -2.58871,1.80352 -3.91342,1.39844 -0.35975,-0.11001 -0.68295,-0.53328 -0.66861,-0.90919 z"
         style="fill:#ff0000;stroke:none;stroke-width:0.03708144px;stroke-linecap:butt;stroke-linejoin:miter;stroke-opacity:1" />
      <path
         sodipodi:nodetypes="sssss"
         inkscape:connector-curvature="0"
         id="path2307-9"
         d="m 716.03244,76.646284 c 1.19195,-0.36507 3.1719,0.45647 3.33496,1.69236 0.12157,0.92139 -1.15755,2.01784 -2.074,1.86339 -1.09664,-0.18482 -1.61492,-1.80791 -1.61388,-2.92002 2.8e-4,-0.24237 0.12117,-0.56475 0.35292,-0.63573 z"
         style="fill:#ff0000;stroke:none;stroke-width:0.03708144px;stroke-linecap:butt;stroke-linejoin:miter;stroke-opacity:1" />
      <ellipse
         ry="1.7521178"
         rx="0.34858888"
         cy="76.904633"
         cx="716.10876"
         id="path1824"
         style="opacity:1;vector-effect:none;fill:#000000;fill-opacity:1;fill-rule:nonzero;stroke:none;stroke-width:0.93410182;stroke-linecap:butt;stroke-linejoin:miter;stroke-miterlimit:4;stroke-dasharray:none;stroke-dashoffset:0;stroke-opacity:0.44186048" />
    </g>
  </g>
</svg>
