<svg id="Capa_2" xmlns="http://www.w3.org/2000/svg" xmlns:xlink="http://www.w3.org/1999/xlink" viewBox="0 0 69.02 80">
<defs >
<style >
.cls-1{fill:#c89aed;}.cls-2{fill:#fff;}.cls-3{fill:#f8ffbf;}.cls-4{fill:#7b7be8;}.cls-5{fill:#a88347;}.cls-6{fill:#782ab5;}.cls-7,.cls-8,.cls-9,.cls-10,.cls-11,.cls-12,.cls-13{fill:none;}.cls-7,.cls-8,.cls-10,.cls-13{stroke:#000;stroke-miterlimit:10;}.cls-8{stroke-width:1.06px;}.cls-8,.cls-9,.cls-13{stroke-linecap:round;}.cls-9{stroke:#deb778;stroke-dasharray:0 0 0 4.06;stroke-linejoin:round;}.cls-14{fill:url(#USGS_19_Inundación_de_tierra);}.cls-10,.cls-13{stroke-width:1.27px;}.cls-15{fill:#deb778;}.cls-12{stroke:#1d1d1b;stroke-dasharray:0 0 2 2;stroke-width:.3px;}.cls-16{fill:#cf5f2b;}.cls-17{fill:#ccbc64;}.cls-18{fill:#fcf0c5;}.cls-19{fill:#b83521;}
</style>
<pattern id="USGS_19_Inundación_de_tierra" x="0" y="0" width="72" height="72" patternTransform="translate(-92.48 -15991) rotate(-90)" patternUnits="userSpaceOnUse" viewBox="0 0 72 72">
<g >
<rect class="cls-11" width="72" height="72">
</rect>
<g >
<line class="cls-12" x1="71" y1="71" x2="144.44" y2="71">
</line>
<line class="cls-12" x1="71" y1="67" x2="144.44" y2="67">
</line>
<line class="cls-12" x1="71" y1="63" x2="144.44" y2="63">
</line>
<line class="cls-12" x1="71" y1="59" x2="144.44" y2="59">
</line>
<line class="cls-12" x1="71" y1="55" x2="144.44" y2="55">
</line>
<line class="cls-12" x1="71" y1="51" x2="144.44" y2="51">
</line>
<line class="cls-12" x1="71" y1="47" x2="144.44" y2="47">
</line>
<line class="cls-12" x1="71" y1="43" x2="144.44" y2="43">
</line>
<line class="cls-12" x1="71" y1="39" x2="144.44" y2="39">
</line>
<line class="cls-12" x1="71" y1="35" x2="144.44" y2="35">
</line>
<line class="cls-12" x1="71" y1="31" x2="144.44" y2="31">
</line>
<line class="cls-12" x1="71" y1="27" x2="144.44" y2="27">
</line>
<line class="cls-12" x1="71" y1="23" x2="144.44" y2="23">
</line>
<line class="cls-12" x1="71" y1="19" x2="144.44" y2="19">
</line>
<line class="cls-12" x1="71" y1="15" x2="144.44" y2="15">
</line>
<line class="cls-12" x1="71" y1="11" x2="144.44" y2="11">
</line>
<line class="cls-12" x1="71" y1="7" x2="144.44" y2="7">
</line>
<line class="cls-12" x1="71" y1="3" x2="144.44" y2="3">
</line>
</g>
<g >
<line class="cls-12" x1="-1" y1="71" x2="72.44" y2="71">
</line>
<line class="cls-12" x1="-1" y1="67" x2="72.44" y2="67">
</line>
<line class="cls-12" x1="-1" y1="63" x2="72.44" y2="63">
</line>
<line class="cls-12" x1="-1" y1="59" x2="72.44" y2="59">
</line>
<line class="cls-12" x1="-1" y1="55" x2="72.44" y2="55">
</line>
<line class="cls-12" x1="-1" y1="51" x2="72.44" y2="51">
</line>
<line class="cls-12" x1="-1" y1="47" x2="72.44" y2="47">
</line>
<line class="cls-12" x1="-1" y1="43" x2="72.44" y2="43">
</line>
<line class="cls-12" x1="-1" y1="39" x2="72.44" y2="39">
</line>
<line class="cls-12" x1="-1" y1="35" x2="72.44" y2="35">
</line>
<line class="cls-12" x1="-1" y1="31" x2="72.44" y2="31">
</line>
<line class="cls-12" x1="-1" y1="27" x2="72.44" y2="27">
</line>
<line class="cls-12" x1="-1" y1="23" x2="72.44" y2="23">
</line>
<line class="cls-12" x1="-1" y1="19" x2="72.44" y2="19">
</line>
<line class="cls-12" x1="-1" y1="15" x2="72.44" y2="15">
</line>
<line class="cls-12" x1="-1" y1="11" x2="72.44" y2="11">
</line>
<line class="cls-12" x1="-1" y1="7" x2="72.44" y2="7">
</line>
<line class="cls-12" x1="-1" y1="3" x2="72.44" y2="3">
</line>
<line class="cls-12" x1="1.04" y1="69" x2="74.48" y2="69">
</line>
<line class="cls-12" x1="1.04" y1="65" x2="74.48" y2="65">
</line>
<line class="cls-12" x1="1.04" y1="61" x2="74.48" y2="61">
</line>
<line class="cls-12" x1="1.04" y1="57" x2="74.48" y2="57">
</line>
<line class="cls-12" x1="1.04" y1="53" x2="74.48" y2="53">
</line>
<line class="cls-12" x1="1.04" y1="49" x2="74.48" y2="49">
</line>
<line class="cls-12" x1="1.04" y1="45" x2="74.48" y2="45">
</line>
<line class="cls-12" x1="1.04" y1="41" x2="74.48" y2="41">
</line>
<line class="cls-12" x1="1.04" y1="37" x2="74.48" y2="37">
</line>
<line class="cls-12" x1="1.04" y1="33" x2="74.48" y2="33">
</line>
<line class="cls-12" x1="1.04" y1="29" x2="74.48" y2="29">
</line>
<line class="cls-12" x1="1.04" y1="25" x2="74.48" y2="25">
</line>
<line class="cls-12" x1="1.04" y1="21" x2="74.48" y2="21">
</line>
<line class="cls-12" x1="1.04" y1="17" x2="74.48" y2="17">
</line>
<line class="cls-12" x1="1.04" y1="13" x2="74.48" y2="13">
</line>
<line class="cls-12" x1="1.04" y1="9" x2="74.48" y2="9">
</line>
<line class="cls-12" x1="1.04" y1="5" x2="74.48" y2="5">
</line>
<line class="cls-12" x1="1.04" y1="1" x2="74.48" y2="1">
</line>
</g>
<g >
<line class="cls-12" x1="-73" y1="71" x2=".44" y2="71">
</line>
<line class="cls-12" x1="-73" y1="67" x2=".44" y2="67">
</line>
<line class="cls-12" x1="-73" y1="63" x2=".44" y2="63">
</line>
<line class="cls-12" x1="-73" y1="59" x2=".44" y2="59">
</line>
<line class="cls-12" x1="-73" y1="55" x2=".44" y2="55">
</line>
<line class="cls-12" x1="-73" y1="51" x2=".44" y2="51">
</line>
<line class="cls-12" x1="-73" y1="47" x2=".44" y2="47">
</line>
<line class="cls-12" x1="-73" y1="43" x2=".44" y2="43">
</line>
<line class="cls-12" x1="-73" y1="39" x2=".44" y2="39">
</line>
<line class="cls-12" x1="-73" y1="35" x2=".44" y2="35">
</line>
<line class="cls-12" x1="-73" y1="31" x2=".44" y2="31">
</line>
<line class="cls-12" x1="-73" y1="27" x2=".44" y2="27">
</line>
<line class="cls-12" x1="-73" y1="23" x2=".44" y2="23">
</line>
<line class="cls-12" x1="-73" y1="19" x2=".44" y2="19">
</line>
<line class="cls-12" x1="-73" y1="15" x2=".44" y2="15">
</line>
<line class="cls-12" x1="-73" y1="11" x2=".44" y2="11">
</line>
<line class="cls-12" x1="-73" y1="7" x2=".44" y2="7">
</line>
<line class="cls-12" x1="-73" y1="3" x2=".44" y2="3">
</line>
<line class="cls-12" x1="-70.96" y1="69" x2="2.48" y2="69">
</line>
<line class="cls-12" x1="-70.96" y1="65" x2="2.48" y2="65">
</line>
<line class="cls-12" x1="-70.96" y1="61" x2="2.48" y2="61">
</line>
<line class="cls-12" x1="-70.96" y1="57" x2="2.48" y2="57">
</line>
<line class="cls-12" x1="-70.96" y1="53" x2="2.48" y2="53">
</line>
<line class="cls-12" x1="-70.96" y1="49" x2="2.48" y2="49">
</line>
<line class="cls-12" x1="-70.96" y1="45" x2="2.48" y2="45">
</line>
<line class="cls-12" x1="-70.96" y1="41" x2="2.48" y2="41">
</line>
<line class="cls-12" x1="-70.96" y1="37" x2="2.48" y2="37">
</line>
<line class="cls-12" x1="-70.96" y1="33" x2="2.48" y2="33">
</line>
<line class="cls-12" x1="-70.96" y1="29" x2="2.48" y2="29">
</line>
<line class="cls-12" x1="-70.96" y1="25" x2="2.48" y2="25">
</line>
<line class="cls-12" x1="-70.96" y1="21" x2="2.48" y2="21">
</line>
<line class="cls-12" x1="-70.96" y1="17" x2="2.48" y2="17">
</line>
<line class="cls-12" x1="-70.96" y1="13" x2="2.48" y2="13">
</line>
<line class="cls-12" x1="-70.96" y1="9" x2="2.48" y2="9">
</line>
<line class="cls-12" x1="-70.96" y1="5" x2="2.48" y2="5">
</line>
<line class="cls-12" x1="-70.96" y1="1" x2="2.48" y2="1">
</line>
</g>
</g>
</pattern>
</defs>

<g id="Characters">
<g >
<path class="cls-1" d="M23.78,24.02l-3.88,12.51,1.36,11.06s1.65,7.18,4.95,10.09c.97,2.91,.78,8.34-.29,10.86,3.01,4.46,10.96,8.63,18.43,.29-1.16-7.18-.78-10.19-.78-10.19,0,0,3.69-3.01,4.56-6.79s1.75-13.77,1.75-13.77l-2.81-15.13-23.28,1.07Z">
</path>
<path class="cls-2" d="M50.18,37.5l-1.2,10.92-2.06,6.78-6.79,6.62s-2.49,.95-5.07,1.29v-9.62c1.65-.39,3.26-1.74,3.58-2.65,.13-.36-.41-.54-1.12-.63-1.42-.18-2.46-1.43-2.46-2.86V22.9l11.34,3.09,3.78,11.51Z">
</path>
<path class="cls-1" d="M35.21,26.48c1.06,.9,2.48,1.43,3.94,1.43,.31,0,.61-.02,.9-.07,1.03,1.39,2.65,2.19,4.48,2.19,.11,0,.22,0,.33,0,.08,.64,.23,1.21,.34,1.5,.26,.71,.67,1.37,1.19,1.93-.28,2.04,.25,4.43,1.84,5.66,0,1.45-.1,8.66-2.57,14.35-.2,.46-.49,.91-.87,1.34-2.16,2.5-4.35,4.51-6.52,5.99-.87,.59-1.87,.9-2.91,.9s-2.05-.31-2.92-.9c-2.15-1.46-4.34-3.47-6.53-5.99-.37-.43-.67-.88-.87-1.33-2.46-5.67-2.78-12.91-2.82-14.41,1.43-1.14,2.06-3.16,1.74-5.57,.88-.95,1.42-2.18,1.55-3.47,.11,0,.22,0,.33,0,1.85,0,3.48-.82,4.5-2.22,.33,.05,.67,.08,1,.08,1.47,0,2.82-.51,3.85-1.42m-.01-1.57c-.92,1.31-2.38,1.92-3.84,1.92-.51,0-1.02-.08-1.5-.22-.83,1.62-2.41,2.36-4,2.36-.47,0-.95-.07-1.41-.2,.22,1.59-.4,3.28-1.61,4.34,.37,1.92,.18,4.3-1.65,5.38-.03,.01-.05,.02-.09,.03,.04,.07,.06,.16,.06,.25,0,.09,.08,8.59,2.91,15.12,.24,.55,.59,1.09,1.04,1.6,2.25,2.59,4.51,4.66,6.73,6.17,1.07,.72,2.29,1.08,3.51,1.08s2.44-.36,3.51-1.08c2.23-1.52,4.49-3.59,6.72-6.17,.45-.51,.8-1.05,1.04-1.6,2.83-6.51,2.66-14.9,2.66-14.99,0-.12,.03-.22,.08-.32-1.75-.85-2.29-3.48-1.84-5.49-.59-.53-1.06-1.2-1.34-1.94-.16-.44-.41-1.58-.3-2.37-.45,.12-.91,.19-1.37,.19-1.58,0-3.14-.74-3.98-2.33-.45,.14-.92,.2-1.4,.2-1.52,0-3.06-.68-3.95-1.93h0Z">
</path>
<path d="M20.07,6.71s-7.67,1.8-5.74,10.21c-5.14,2.94-3.2,9.67-1.6,12.74-1.6,4,2.74,9.14,4.67,10.14-.2,2.67,.67,2.94,.67,2.94,0,0-2,3.67,1.4,5.87-.47,2.94-1.67,3.2-1.67,3.2,0,0,2.6,.13,4.07-1.67-1.47-6.14-1.53-11.74-1.53-11.74,0,0,2.67-1,2.07-5.94,1.93-1.13,1.53-4.14,1.53-4.14,0,0,3.34,.73,5.74-2.27,3.27,.67,5.67-1.93,5.67-1.93,0,0,1.87,2.6,5.4,2,1.53,2.67,4.54,2.4,5.8,2.07,0,2.87,.47,3.67,1.53,4.54,.07,4.34,1.07,5.54,1.8,5.87,.07,3.94-1.27,12.01-1.27,12.01,0,0,2.94,1.6,4.8,.8-2-.73-1.8-2.74-1.8-2.74,0,0,2.94-2.4,1.4-5.6,1.13-3.07,.93-3.67,.93-3.67,0,0,4.14-3.54,3.94-10.07,2.94-3.94,2.67-9.61-1.53-12.28,1.13-5.2-1.19-9.94-7.27-10.61-5.33-.59-14.3-2.35-29.02,.27Z">
</path>
<path d="M44.68,74.51c2.7-.29,5.35-.71,7.94-1.26,1.4-.59,2.06-1.04,2.06-1.04l-10.33-3.37s-.17,.45-.61,1.08c-.94,1.36-3.14,3.53-7.64,3.77-.42,0-.83-.01-1.22-.04-5.69-.45-8.42-4.39-8.42-4.39l-.18,.05-3.87,1-6.63,1.73s.51,.45,1.81,1.06c2.66,.58,5.38,1.03,8.14,1.34l18.95,.07Z">
</path>
<path class="cls-5" d="M44.68,74.51c1.98-1.77,3.54-4.3,3.54-4.3l-3.58-1.26s-.31,.4-.9,.97c-1.41,1.37-4.46,3.69-8.86,3.73h-.11c-5.13-.06-7.71-3.19-8.49-4.34-.18-.27-.26-.43-.26-.43,0,0-1.95,.94-3.61,1.43-.04,.02-.07,.03-.11,.04,.54,1.48,2.26,3.11,3.43,4.09l18.95,.07Z">
</path>
<path class="cls-2" d="M31.26,56.37l2.13-1.38,1.85,.69,1.21-.63,2.25,1.21s-.23,1.62-3,2.25-4.44-2.13-4.44-2.13Z">
</path>
<path class="cls-3" d="M23.78,43.05s2.22-.77,4.51-.91c2.47,.53,3.53,2,3.53,2,0,0-1.61,.94-3.53,1.12-2.83-.24-4.51-2.21-4.51-2.21Z">
</path>
<path class="cls-3" d="M46.19,43.05s-2.22-.77-4.51-.91c-2.47,.53-3.53,2-3.53,2,0,0,1.61,.94,3.53,1.12,2.83-.24,4.51-2.21,4.51-2.21Z">
</path>
<rect class="cls-5" x="18.56" y="56.19" width="3.46" height="3.46" transform="translate(-35.01 31.31) rotate(-45)">
</rect>
<rect class="cls-5" x="48.09" y="56.19" width="3.46" height="3.46" transform="translate(-26.36 52.19) rotate(-45)">
</rect>
<polygon class="cls-17" points="49.9 55.94 49.9 60.18 51.93 57.91 49.9 55.94">
</polygon>
<polygon class="cls-17" points="20.3 55.94 20.3 60.18 22.32 57.91 20.3 55.94">
</polygon>
<path class="cls-19" d="M58.8,27.75c-.17-4.75-5.26-4.98-5.26-4.98,0,0,2.01,2.52,1.57,5.86-.44-1.76-3.35-6.25-6.43-5.28-.26-2.37-3.35-4.14-7.13-2.64-.35-1.5-4.05-4.66-6.25-1.67-1.32-1.5-5.2-1.85-6.6,1.23-2.47-2.2-6.17-.44-6.61,1.85-2.64,1.14-4.4,4.05-4.4,4.05,0,0-.53-2.2,2.64-5.63-3.96,.08-6.34,3.25-6.6,6.42-2.64-6.07,3.35-9.51,3.35-9.51-4-7.38,6.77-10.82,6.77-10.82,1.17-.58,2.36-1.05,3.54-1.4,2.03-.16,4.09-.23,6.14-.23,.54,0,1.08,.01,1.63,.02,4.64,.09,9.25,.55,13.72,1.37h.02c.39,.1,.73,.18,1.01,.24,3.52,.7,7.22,4.75,6.16,10.38,2.03,1.24,4.76,4.76,2.73,10.74Z">
</path>
<path class="cls-16" d="M19.39,16.14s.42-9.26,10.65-7.39c3.18-3.95,8.76-2.23,10.4-.09,4.55-2.32,11.94,3.95,12.03,9.62-3.61-6.27-10.73-4.26-10.73-4.26,0,0-4.91-4.76-11.26-.21-2.06-1.8-8.42-1.55-11.08,2.32Z">
</path>
<path class="cls-4" d="M43.38,59.5l-11.42,13.63s-5.68-2.28-6.04-4.59c1.28-8.22,1.2-9.95,1.2-9.95,0,0,4.6,4.76,7.39,4.85s6.49-1.31,8.87-3.94Z">
</path>
<path class="cls-4" d="M36.59,39.15l1.56,4.99s1.81-1.88,3.53-2c2.55,.08,4.51,.91,4.51,.91l.94-4.07s-2.82-1.2-4.73-1.29c-2.86,.46-5.81,1.45-5.81,1.45Z">
</path>
<path class="cls-4" d="M31.81,44.14l1.58-5.39-6.28-1.29-4.46,1.47,1.12,4.12,4.51-.91s3.18,1.11,3.53,2Z">
</path>
<path class="cls-2" d="M41.82,63.41l-6.71,8.38s3.64,.44,7.65-3.64c-.8-2.33-.95-4.74-.95-4.74Z">
</path>
<path class="cls-2" d="M26.7,46.79h3.02c.63,0,.9,.79,.41,1.18l-1.57,1.24c-.25,.2-.6,.19-.84-.02l-1.45-1.24c-.47-.4-.19-1.17,.43-1.17Z">
</path>
<path class="cls-13" d="M49.92,38.89s.21,8.54-2.7,15.26c-.29,.65-.68,1.23-1.15,1.76-1.77,2.04-4.14,4.45-6.84,6.28-2.34,1.59-5.4,1.59-7.74,0-2.71-1.83-5.09-4.24-6.86-6.28-.47-.53-.86-1.12-1.15-1.76-2.91-6.72-2.96-15.37-2.96-15.37">
</path>
<path d="M19.87,37c-3.9-1.69-4.16-7.65-1.15-10.31,.04-.06,.14-.03,.12,.05-1.37,3.27-1.38,7.43,1.12,10.17,.05,.05-.03,.14-.09,.09h0Z">
</path>
<path d="M16.92,31.72c-3.33-2.45-2.42-7.02,.54-9.33,0,0-.66,1.08-.66,1.08-1.49,2.45-1.38,5.42,.77,7.41,.53,.43-.1,1.25-.65,.84h0Z">
</path>
<path d="M50.74,36.91c2.5-2.74,2.49-6.9,1.12-10.17-.02-.07,.08-.11,.12-.05,3.01,2.65,2.76,8.61-1.15,10.31-.06,.04-.14-.03-.09-.09h0Z">
</path>
<path d="M53.13,30.88c2.15-1.99,2.26-4.96,.77-7.41,0,0-.66-1.08-.66-1.08,.31,.29,.61,.59,.92,.89,2.29,2.32,2.45,6.45-.38,8.44-.55,.4-1.17-.41-.65-.84h0Z">
</path>
<path class="cls-8" d="M16.98,39.76s-5.18-3.69-4.34-10.18c-3.73-5.83-1.15-10.49,1.61-12.5-1.96-6.19,2.89-9.43,4.7-9.82">
</path>
<path class="cls-8" d="M53.47,39.76s5.18-3.69,4.34-10.18c3.73-5.83,1.15-10.49-1.61-12.5,1.96-6.19-3.36-9.34-5.18-9.73">
</path>
<path d="M35.66,24.09c-1.93,4.31-8.65,3.34-8.96-1.45,.36,.87,.91,1.62,1.59,2.15,2.02,1.65,5.14,1.02,6.43-1.21,.33-.55,1.21-.07,.93,.51h0Z">
</path>
<path d="M29.56,26.03c.45,.3,.42,.37,.38,.42-1.94,4.15-8.53,2.91-8.86-1.62,1.29,3.67,5.85,4.19,7.94,1.08,.01-.05,.04-.09,.55,.11h0Z">
</path>
<path d="M24.38,28.4c.42,1.83-.35,3.88-1.87,4.99,0,0,.23-.69,.23-.69,.49,1.98,.4,4.65-1.56,5.8-.63,.38-1.37,.42-2.02,.33,1.1-.59,2-1.2,2.4-2.37,.38-1.21,.18-2.63-.16-3.83,0,0,.34-.26,.34-.26,1.15-.88,1.74-2.35,1.6-3.79-.07-.65,.91-.81,1.05-.17h0Z">
</path>
<path d="M35.66,23.6c1.29,2.22,4.41,2.84,6.42,1.2,.69-.53,1.23-1.27,1.59-2.15-.04,.95-.44,1.9-1.1,2.66-2.1,2.53-6.59,1.81-7.86-1.22-.27-.6,.6-1.06,.94-.49h0Z">
</path>
<path d="M40.82,26.03c.5-.2,.54-.17,.55-.11,2.09,3.11,6.65,2.58,7.94-1.08-.34,4.53-6.93,5.77-8.87,1.62-.05-.05-.07-.12,.38-.42h0Z">
</path>
<path d="M47.05,28.57c-.18,1.61,.6,3.17,1.94,4.05,0,0-.11,.43-.11,.43-.4,1.57-.48,3.56,.83,4.74,.39,.42,.94,.67,1.52,1.03-.65,.09-1.39,.04-2.02-.33-1.97-1.14-2.05-3.81-1.56-5.8,0,0,.23,.69,.23,.69-.76-.56-1.35-1.35-1.68-2.23-.26-.69-.75-3.28,.44-3.15,.26,.06,.44,.31,.41,.57h0Z">
</path>
<path d="M34.87,16.23c-2.31-1.75-5.51-.94-6.64,1.62-1.63-1.37-4.2-1.29-5.68,.33-.48,.47-.82,1.07-1.08,1.75-.16-3.36,4.15-5.45,6.9-3.5,0,0-.89,.21-.89,.21,1.47-2.7,5.8-3.04,7.39-.41h0Z">
</path>
<path d="M48.76,19.94c-.96-2.87-4.43-4.04-6.76-2.08-1.13-2.56-4.33-3.37-6.64-1.63,1.59-2.63,5.92-2.29,7.39,.41,0,0-.89-.21-.89-.21,2.73-1.94,7.06,.14,6.9,3.5h0Z">
</path>
<path class="cls-13" d="M18.36,35.6s-2.21,3.88-.36,7.34c-1.55,3.1,.48,5.19,1.43,5.61-.36,1.79-1.19,2.69-2.33,2.57-1.31,.18,2.69,2.03,4.84-.78">
</path>
<path class="cls-13" d="M52.52,35.6s2.21,3.88,.36,7.34c1.55,3.1-.48,5.19-1.43,5.61,.36,1.79,1.19,2.69,2.33,2.57,1.31,.18-2.69,2.03-4.84-.78">
</path>
<path class="cls-13" d="M26.6,58.26s.79,6.14-1.03,10.76c-3.72,1.76-9.59,3.04-9.59,3.04">
</path>
<path class="cls-13" d="M43.8,58.5s-.79,5.9,1.03,10.52c3.72,1.76,9.59,3.04,9.59,3.04">
</path>
<g >
<path class="cls-10" d="M24.65,73.8c-1.01-.97-1.82-2.03-2.41-3.09">
</path>
<path class="cls-13" d="M48.12,70.86c-.57,.98-1.33,1.95-2.26,2.86">
</path>
<path class="cls-13" d="M25.97,68.51c1.39,2.5,4.88,5.18,9.25,5.18s7.78-2.64,9.2-5.09">
</path>
</g>
<path d="M43.39,12.5c-1.19-1.8-3.77-2.04-5.25-.57,0,0-.2-.61-.2-.61-1.17-3.19-5.47-2.66-6.1,.61,0,0-.48-.37-.48-.37-1.47-1.11-3.73-.63-4.78,.94,.34-.93,1.16-1.7,2.15-2.04,1-.34,2.18-.23,3.12,.36l-.68,.25c.97-3.89,6.64-3.89,7.61,0,0,0-.67-.24-.67-.24,1.83-1.2,4.56-.34,5.27,1.68h0Z">
</path>
<path d="M40.2,56.28c-1.33,.41-2.82-.09-3.93-.88,0,0,.39,.1,.39,.1-.59,.15-1.14,.36-1.64,.69-.51-.33-1.06-.54-1.66-.69,0,0,.39-.1,.39-.1-1.1,.79-2.6,1.29-3.93,.88,1.39-.23,2.5-.92,3.47-1.78,0,0,.25,.03,.25,.03,.6,.08,1.18,.28,1.73,.57h-.52c.62-.33,1.28-.53,1.97-.6,.96,.86,2.08,1.54,3.47,1.77h0Z">
</path>
<path d="M38.93,56.34c-.57,4.24-7.35,4.17-7.83-.08-.01-.08,.08-.13,.14-.09,2.24,1.61,5.31,1.6,7.56,0,.11-.06,.17,.07,.13,.16h0Z">
</path>
<path d="M23.52,42.98c.04-.13,.19-.2,.31-.23,1.47-.5,2.99-.94,4.55-1.03,1.42,.38,2.75,1.08,3.66,2.28,.08,.12,.05,.28-.06,.36-1.15,.63-2.4,1.05-3.71,1.17-1.67-.15-3.25-.9-4.45-2.05-.11-.13-.34-.26-.29-.49h0Zm.51,.14c.07-.08-.07-.29-.03-.22,.1,.11,.3,.29,.41,.4,1.02,.94,2.66,1.6,3.85,1.7,1.19-.12,2.37-.52,3.42-1.08l-.08,.38c-.69-.93-2.64-1.63-3.28-1.73-1.4,.05-2.82,.3-4.18,.66-.06,.02-.18,.05-.24,.07,.04,0,.13-.11,.14-.17h0Z">
</path>
<path d="M45.94,43.12c0,.06,.11,.17,.14,.17-.06-.02-.18-.05-.24-.07-1.36-.36-2.78-.61-4.18-.66-.64,.1-2.59,.79-3.28,1.73,0,0-.08-.38-.08-.38,.97,.56,2.43,.99,3.37,1.08,1.44-.13,2.82-.75,3.9-1.7,.11-.11,.31-.28,.41-.4,.04-.07-.1,.14-.03,.22h0Zm.51-.14c.05,.1-.11,.33-.09,.28l-.03,.03c-1.22,1.26-2.88,2.08-4.63,2.23-1.3-.12-2.53-.53-3.68-1.15-.13-.07-.17-.23-.1-.35,.92-1.22,2.32-2,3.79-2.31,1.37,.14,2.71,.47,4.01,.89,.27,.11,.67,.16,.73,.38h0Z">
</path>
<path d="M30.5,41.74c-.68-.33-1.31-.72-1.94-1.12l.15,.04c-.76,.1-1.54,.28-2.3,.5-.76,.21-1.51,.49-2.28,.77,.32-.26,.65-.51,1.01-.7,1.09-.62,2.29-.99,3.56-1.04,.67,.38,1.23,1,1.8,1.54h0Z">
</path>
<path d="M22.74,39c1.36-.91,2.95-1.59,4.6-1.92,2.12,.29,4.15,.81,6.2,1.4l-.51,1.47c-1.65-.69-4.52-1.49-5.66-1.81-1.55,.03-3.14,.27-4.64,.86h0Z">
</path>
<path d="M39.4,41.74c.57-.54,1.13-1.16,1.8-1.54,1.27,.05,2.47,.42,3.56,1.04,.36,.19,.7,.44,1.01,.7-.77-.29-1.52-.56-2.28-.77-.76-.22-1.54-.4-2.3-.5l.15-.04c-.63,.4-1.26,.79-1.94,1.12h0Z">
</path>
<path d="M47.16,39c-1.5-.59-3.09-.84-4.64-.86-1.14,.32-4,1.12-5.66,1.81,0,0-.51-1.47-.51-1.47,2.04-.59,4.07-1.11,6.2-1.4,1.66,.33,3.24,1.01,4.61,1.92h0Z">
</path>
<g >
<path d="M33,49.22c-.32,.67-.79,1.2-1.33,1.68,0,0,.05-.28,.05-.28,.14,.37,.25,.74,.3,1.16-.34-.32-.59-.69-.82-1.08,.51-.6,1.08-1.14,1.81-1.48h0Z">
</path>
<polygon points="32.45 51.48 33.26 50.68 34.12 51.48 32.45 51.48">
</polygon>
<path d="M37.04,49.22c.73,.34,1.3,.88,1.81,1.48-.23,.39-.48,.75-.82,1.08,.04-.41,.16-.79,.3-1.16l.05,.28c-.55-.48-1.02-1.01-1.33-1.68h0Z">
</path>
<polygon points="37.58 51.48 36.77 50.68 35.92 51.48 37.58 51.48">
</polygon>
</g>
<rect class="cls-13" x="18.56" y="56.19" width="3.46" height="3.46" transform="translate(-35.01 31.31) rotate(-45)">
</rect>
<rect class="cls-13" x="48.09" y="56.19" width="3.46" height="3.46" transform="translate(-26.36 52.19) rotate(-45)">
</rect>
<path class="cls-16" d="M14.03,30.19c.6,3.03,1.94,6.14,4.81,7.58,.05,1.53,.19,3.2,.94,4.53-.45,.77-.78,1.73-.8,2.65-.05,.89,.17,1.72,.64,2.51,0,0-.07,.07-.07,.07-.31-.35-.61-.72-.79-1.17-.57-1.18-.42-3.18,.1-4.05-.74-1.21-.89-2.64-.99-4.02-2.56-1.21-4.07-5.09-3.93-8.11,0,0,.1,0,.1,0h0Z">
</path>
<path d="M38.87,62.83l-8.87,9.33-4.01-3.81,1-9.53s3.96,3.96,6.27,4.26,5.62-.25,5.62-.25Z">
</path>
<polygon points="43.3 70.75 46.77 72.28 45.85 73.35 41.92 71.92 43.3 70.75">
</polygon>
</g>
</g>
 <g
     id="g2850">
    <g
       id="g2837">
      <path
         id="path1951"
         d="M 0.056640625 0.04296875 L 0.056640625 79.943359 L 69.308594 79.943359 L 69.308594 0.04296875 L 0.056640625 0.04296875 z M 33.615234 3.5957031 C 34.206332 3.5957038 34.786991 3.6051034 35.421875 3.6152344 C 44.430653 3.7671809 53.471255 5.1336733 61.560547 7.5546875 L 62.064453 7.7070312 L 62.25 8.1640625 C 66.070247 17.605006 66.990234 28.726438 66.990234 40.0625 C 66.990234 51.398562 65.972723 63.025755 61.988281 72.578125 L 61.791016 73.044922 L 61.275391 73.185547 C 53.273669 75.403966 44.691921 76.529297 35.759766 76.529297 C 35.212453 76.529297 34.675812 76.519896 34.150391 76.509766 L 33.943359 76.509766 C 24.901742 76.357819 15.860367 74.989738 7.7929688 72.558594 L 7.2890625 72.40625 L 7.1035156 71.951172 C 3.2942144 62.520359 2.375 51.369168 2.375 40.0625 C 2.375 28.755832 3.3819737 17.127318 7.3554688 7.5546875 L 7.5527344 7.0898438 L 8.0664062 6.9472656 C 15.509867 4.890923 23.785212 3.7371557 32.005859 3.6054688 C 32.542226 3.5953387 33.078867 3.5957031 33.615234 3.5957031 z "
         style="opacity:1;vector-effect:none;fill:#ffffff;fill-opacity:1;fill-rule:nonzero;stroke:none;stroke-width:1.95200002;stroke-linecap:butt;stroke-linejoin:miter;stroke-miterlimit:4;stroke-dasharray:none;stroke-dashoffset:0;stroke-opacity:1" />
    </g>
    <path
       id="path1154-8-2"
       d="m 33.675163,6.6112954 c 0.557696,0 1.115392,0.00956 1.683415,0.019115 8.427403,0.14336 16.803167,1.4049288 24.363042,3.6700176 3.573384,8.830981 4.443772,19.417362 4.443772,29.761551 0,10.344189 -0.95301,21.39888 -4.68131,30.334991 -7.435942,2.064385 -15.429581,3.274388 -23.774362,3.274388 -0.506058,0 -1.012115,-0.0096 -1.518172,-0.01911 h -0.17557 C 25.56792,73.508883 17.192156,72.088619 9.6426089,69.813973 6.0795528,61.002107 5.2088244,50.415411 5.2088244,40.061979 c 0,-10.353432 0.95335,-21.389323 4.6609939,-30.325434 C 16.820359,7.8155201 24.462856,6.7450981 32.177647,6.6208528 c 0.49573,-0.00956 1.001787,-0.00956 1.497516,-0.00956 m 0,-0.9557337 c -0.506057,0 -1.012114,0 -1.518171,0.00956 C 24.40089,5.7893644 16.593149,6.8789009 9.570315,8.8190405 L 9.0849131,8.9528432 8.8990146,9.3924808 C 5.1500599,18.424166 4.1999116,29.394246 4.1999116,40.061979 c 0,10.667733 0.8675267,21.188618 4.461566,30.0865 l 0.1755708,0.430081 0.4750741,0.14336 c 7.6115135,2.293761 16.1421925,3.584001 24.6728715,3.727361 h 0.196227 c 0.495729,0.0096 1.001786,0.01911 1.518171,0.01911 8.427403,0 16.524318,-1.060864 24.073866,-3.153921 l 0.485403,-0.133802 0.185898,-0.439639 c 3.759282,-9.01257 4.719759,-19.983589 4.719759,-30.679055 0,-10.695466 -0.867528,-21.188618 -4.471894,-30.0960578 L 60.516853,9.5358409 60.041779,9.3924808 C 52.409609,7.108277 43.87893,5.8180364 35.379234,5.6746763 34.780227,5.6651187 34.232859,5.6555621 33.675163,5.6555615 Z"
       style="fill:#ff0000;stroke:#ffffff;stroke-width:1.84341729;stroke-miterlimit:4;stroke-dasharray:none" />
    <path
       id="path1154"
       d="m 33.614853,4.6077955 c 0.591098,0 1.182197,0.01013 1.784241,0.02026 8.932155,0.1519464 17.809578,1.4890758 25.822246,3.8898304 3.787408,9.3599041 4.709928,20.5803481 4.709928,31.5440931 0,10.963745 -1.01009,22.680548 -4.961693,32.151879 -7.881312,2.18803 -16.353723,3.302304 -25.198307,3.302304 -0.536368,0 -1.072735,-0.01013 -1.609102,-0.02026 H 33.97608 C 25.022033,75.343956 16.14461,74.006827 8.1428892,71.595943 4.3664269,62.256298 3.443547,51.035521 3.443547,40.061979 c 0,-10.973542 1.01045,-22.670418 4.9401601,-32.1417498 7.3668369,-2.036083 15.4670749,-3.170617 23.6439369,-3.3023039 0.525421,-0.01013 1.061788,-0.01013 1.587209,-0.01013 m 0,-1.0129766 c -0.536367,0 -1.072734,0 -1.609101,0.01013 C 23.785105,3.7366356 15.509726,4.891429 8.0662653,6.9477716 L 7.5517907,7.0895883 7.3547579,7.5555576 C 3.3812628,17.128188 2.3742062,28.755311 2.3742062,40.061979 c 0,11.306668 0.9194864,22.457692 4.7287876,31.888505 l 0.1860865,0.45584 0.5035283,0.151947 c 8.0673984,2.431144 17.1090154,3.798662 26.1506324,3.950608 h 0.207979 c 0.525421,0.01013 1.061788,0.02026 1.609101,0.02026 8.932155,0 17.514028,-1.124404 25.51575,-3.342823 l 0.514475,-0.141816 0.197032,-0.46597 c 3.984442,-9.55237 5.002445,-21.180489 5.002445,-32.516551 0,-11.336062 -0.919487,-22.457692 -4.739734,-31.8986353 L 62.064202,7.7075041 61.560674,7.5555576 C 53.471382,5.1345434 44.429765,3.7670249 35.420987,3.6150784 c -0.634884,-0.01013 -1.215036,-0.020259 -1.806134,-0.02026 z"
       style="fill:#000000;stroke:#000000;stroke-width:1.95382714;stroke-miterlimit:4;stroke-dasharray:none" />
    <g
       id="g1810">
      <path
         d="M 6.5134911,7.7433673 C 5.6489029,6.8479453 4.058602,6.5681013 3.6272194,7.3820013 3.284151,8.0292783 3.3625296,8.5309135 4.395235,8.9201755 3.2963719,9.5187755 1.4857674,9.4447465 1.1893447,7.4467713 0.95320848,5.8551433 2.674739,4.8863543 3.1399725,5.0916244 3.0034432,3.6818714 1.8221094,4.0692802 0.95849208,3.2813384 0.34259068,2.7194046 0.23126071,-0.02624603 0.0561761,0.04378767 -0.0138576,0.21887227 2.7317937,0.33020157 3.2937267,0.94610377 4.0816685,1.8097211 3.6942598,2.9910547 5.1040128,3.1275841 4.8987425,2.6623507 5.8675315,0.94082017 7.4591593,1.1769564 9.4571345,1.4733791 9.5311625,3.2839847 8.9325635,4.3828467 8.5433008,3.3501417 8.041666,3.2717627 7.3943894,3.6148312 6.5804899,4.0462137 6.8603354,5.6365129 7.7557553,6.5011023"
         style="fill:#000000;stroke:#000000;stroke-width:0.1112323px;stroke-linecap:butt;stroke-linejoin:miter;stroke-opacity:1"
         id="path1737-3" />
      <path
         d="m 62.850738,7.7433673 c 0.864588,-0.895422 2.454889,-1.175266 2.886271,-0.361366 0.343069,0.647277 0.26469,1.148912 -0.768015,1.538174 1.098863,0.5986 2.909467,0.524571 3.20589,-1.473404 0.236136,-1.591628 -1.485394,-2.560417 -1.950628,-2.3551469 0.13653,-1.409753 1.317863,-1.0223442 2.181481,-1.810286 0.615901,-0.5619338 0.727231,-3.30758442 0.902316,-3.23755072 0.07003,0.1750846 -2.675618,0.2864139 -3.237551,0.9023161 C 65.28256,1.8097211 65.669969,2.9910547 64.260216,3.1275841 64.465486,2.6623507 63.496697,0.94082018 61.905069,1.1769564 c -1.997975,0.2964227 -2.072003,2.1070283 -1.473404,3.2058903 0.389263,-1.032705 0.890898,-1.111084 1.538174,-0.7680155 0.8139,0.4313825 0.534054,2.0216817 -0.361366,2.8862711"
         style="fill:#000000;stroke:#000000;stroke-width:0.1112323px;stroke-linecap:butt;stroke-linejoin:miter;stroke-opacity:1"
         id="path1737-3-5" />
      <path
         d="m 62.850738,72.244244 c 0.864588,0.895422 2.454889,1.175266 2.886272,0.361366 0.343068,-0.647277 0.264689,-1.148912 -0.768016,-1.538174 1.098863,-0.5986 2.909468,-0.524571 3.20589,1.473404 0.236137,1.591628 -1.485394,2.560417 -1.950628,2.355147 0.13653,1.409753 1.317864,1.022344 2.181481,1.810286 0.615901,0.561934 0.727231,3.307584 0.902316,3.237551 0.07003,-0.175085 -2.675618,-0.286414 -3.237551,-0.902317 -0.787942,-0.863617 -0.400533,-2.04495 -1.810286,-2.18148 0.20527,0.465234 -0.763519,2.186764 -2.355146,1.950628 -1.997976,-0.296423 -2.072004,-2.107028 -1.473405,-3.20589 0.389263,1.032705 0.890898,1.111084 1.538175,0.768015 0.813899,-0.431382 0.534054,-2.021682 -0.361366,-2.886271"
         style="fill:#000000;stroke:#000000;stroke-width:0.1112323px;stroke-linecap:butt;stroke-linejoin:miter;stroke-opacity:1"
         id="path1737-3-7" />
      <path
         d="M 6.513491,72.244245 C 5.648903,73.139667 4.058602,73.419511 3.62722,72.605611 3.284151,71.958334 3.36253,71.456699 4.395235,71.067437 c -1.098863,-0.5986 -2.909467,-0.524571 -3.20589,1.473404 -0.23613599,1.591628 1.485394,2.560417 1.950628,2.355147 -0.13653,1.409753 -1.317863,1.022344 -2.18148099,1.810286 -0.615901,0.561933 -0.727231,3.307584 -0.902316,3.23755 C -0.01385399,79.76874 2.731794,79.65741 3.293727,79.041508 4.081669,78.177891 3.69426,76.996557 5.104013,76.860028 4.898743,77.325261 5.867532,79.046792 7.45916,78.810656 9.457135,78.514233 9.531163,76.703627 8.932564,75.604765 8.543301,76.63747 8.041666,76.715849 7.39439,76.372781 6.58049,75.941398 6.860336,74.351099 7.755756,73.48651"
         style="fill:#000000;stroke:#000000;stroke-width:0.1112323px;stroke-linecap:butt;stroke-linejoin:miter;stroke-opacity:1"
         id="path1737-3-5-5" />
    </g>
    <path
       id="path1154-9"
       d="m 33.712865,7.4258691 c 0.536813,0 1.07363,0.00933 1.620386,0.01865 8.111875,0.1398689 16.174044,1.3707167 23.450873,3.5806479 3.439594,8.615932 4.277395,18.944521 4.277395,29.036812 0,10.092292 -0.917329,20.877786 -4.506039,29.596289 -7.157536,2.014114 -14.851888,3.03982 -22.884234,3.03982 -0.487111,0 -0.974221,-0.0094 -1.461331,-0.01865 H 34.040918 C 25.909161,72.53957 17.846991,71.308722 10.580105,69.089467 7.1504515,60.492184 6.3123238,50.163289 6.3123238,40.061979 c 0,-10.101311 0.9176558,-20.868461 4.4864832,-29.586965 6.690308,-1.8742449 14.046665,-2.9186005 21.472608,-3.0398203 0.47717,-0.00933 0.964281,-0.00933 1.44145,-0.00933 m 0,-0.9324602 c -0.487111,0 -0.974221,0 -1.46133,0.00933 C 24.785826,6.6239532 17.270413,7.686958 10.510517,9.5798526 L 10.043289,9.710397 9.8643508,10.139328 c -3.6085914,8.811751 -4.5231655,19.514693 -4.5231655,29.922651 0,10.407958 0.8350459,20.672644 4.294522,29.353849 l 0.1689973,0.419608 0.4572874,0.13987 c 7.326533,2.237904 15.537818,3.496724 23.749103,3.636593 h 0.188879 c 0.47717,0.0094 0.96428,0.01865 1.461331,0.01865 8.111875,0 15.905636,-1.035031 23.172525,-3.077119 l 0.467228,-0.130544 0.178938,-0.428932 c 3.618533,-8.793101 4.543048,-19.496959 4.543048,-29.931975 0,-10.435016 -0.835047,-20.672644 -4.304463,-29.363174 l -0.168997,-0.419609 -0.457288,-0.13987 C 51.74588,7.9107484 43.534594,6.6519271 35.353133,6.512058 34.776554,6.502738 34.249678,6.493409 33.712865,6.493409 Z"
       style="fill:#000000;stroke:none;stroke-width:1.78642213;stroke-miterlimit:4;stroke-dasharray:none" />
    <path
       id="path1154-9-3"
       d="m 33.712865,7.4258686 c 0.536813,0 1.07363,0.00933 1.620386,0.01865 8.111875,0.1398689 16.174044,1.3707167 23.450873,3.5806484 3.439594,8.615932 4.277395,18.944521 4.277395,29.036812 0,10.092292 -0.917329,20.877786 -4.506039,29.596288 -7.157536,2.014114 -14.851888,3.03982 -22.884234,3.03982 -0.487111,0 -0.974221,-0.0094 -1.461331,-0.01865 H 34.040918 C 25.909161,72.539569 17.846991,71.308722 10.580105,69.089466 7.1504515,60.492184 6.3123238,50.163288 6.3123238,40.061979 c 0,-10.101312 0.9176558,-20.868461 4.4864832,-29.586965 6.690308,-1.8742454 14.046665,-2.918601 21.472608,-3.0398208 0.47717,-0.00933 0.964281,-0.00933 1.44145,-0.00933 m 0,-0.9324602 c -0.487111,0 -0.974221,0 -1.46133,0.00933 C 24.785826,6.6239527 17.270413,7.6869575 10.510517,9.5798521 L 10.043289,9.7103965 9.8643508,10.139328 C 6.2557594,18.951079 5.3411853,29.65402 5.3411853,40.061979 c 0,10.407958 0.8350459,20.672643 4.294522,29.353849 l 0.1689973,0.419608 0.4572874,0.13987 c 7.326533,2.237904 15.537818,3.496724 23.749103,3.636593 h 0.188879 c 0.47717,0.0094 0.96428,0.01865 1.461331,0.01865 8.111875,0 15.905636,-1.035032 23.172525,-3.077119 l 0.467228,-0.130544 0.178938,-0.428932 c 3.618533,-8.793101 4.543048,-19.49696 4.543048,-29.931975 0,-10.435016 -0.835047,-20.672644 -4.304463,-29.363175 l -0.168997,-0.419609 -0.457288,-0.13987 C 51.74588,7.9107479 43.534594,6.6519266 35.353133,6.5120575 34.776554,6.5027375 34.249678,6.4934085 33.712865,6.4934085 Z"
       style="fill:#000000;stroke:none;stroke-width:1.78642213;stroke-miterlimit:4;stroke-dasharray:none" />
  </g>
</svg>
