<svg id="Capa_2" xmlns="http://www.w3.org/2000/svg" xmlns:xlink="http://www.w3.org/1999/xlink" viewBox="0 0 69.02 80">
<defs >
<style >
.cls-1{fill:#000000;}.cls-2{fill:#000;}.cls-3{fill:#000000;}.cls-4{fill:#000000;}.cls-5{fill:#000000;}.cls-6{fill:#000000;}.cls-7,.cls-8,.cls-9,.cls-10,.cls-11,.cls-12{fill:none;}.cls-7,.cls-8,.cls-12{stroke:#000;stroke-miterlimit:10;}.cls-8,.cls-9,.cls-12{stroke-linecap:round;}.cls-9{stroke:#000000;stroke-dasharray:0 0 0 4.06;stroke-linejoin:round;}.cls-13{fill:url(#USGS_19_Inundación_de_tierra);}.cls-14{fill:#000000;}.cls-11{stroke:#000000;stroke-dasharray:0 0 2 2;stroke-width:.3px;}.cls-15{fill:#000000;}.cls-12{stroke-width:.75px;}.cls-16{fill:#000000;}.cls-17{fill:#000000;}
</style>
<pattern id="USGS_19_Inundación_de_tierra" x="0" y="0" width="72" height="72" patternTransform="translate(-380.48 -16063) rotate(-90)" patternUnits="userSpaceOnUse" viewBox="0 0 72 72">
<g >
<rect class="cls-10" width="72" height="72">
</rect>
<g >
<line class="cls-11" x1="71" y1="71" x2="144.44" y2="71">
</line>
<line class="cls-11" x1="71" y1="67" x2="144.44" y2="67">
</line>
<line class="cls-11" x1="71" y1="63" x2="144.44" y2="63">
</line>
<line class="cls-11" x1="71" y1="59" x2="144.44" y2="59">
</line>
<line class="cls-11" x1="71" y1="55" x2="144.44" y2="55">
</line>
<line class="cls-11" x1="71" y1="51" x2="144.44" y2="51">
</line>
<line class="cls-11" x1="71" y1="47" x2="144.44" y2="47">
</line>
<line class="cls-11" x1="71" y1="43" x2="144.44" y2="43">
</line>
<line class="cls-11" x1="71" y1="39" x2="144.44" y2="39">
</line>
<line class="cls-11" x1="71" y1="35" x2="144.44" y2="35">
</line>
<line class="cls-11" x1="71" y1="31" x2="144.44" y2="31">
</line>
<line class="cls-11" x1="71" y1="27" x2="144.44" y2="27">
</line>
<line class="cls-11" x1="71" y1="23" x2="144.44" y2="23">
</line>
<line class="cls-11" x1="71" y1="19" x2="144.44" y2="19">
</line>
<line class="cls-11" x1="71" y1="15" x2="144.44" y2="15">
</line>
<line class="cls-11" x1="71" y1="11" x2="144.44" y2="11">
</line>
<line class="cls-11" x1="71" y1="7" x2="144.44" y2="7">
</line>
<line class="cls-11" x1="71" y1="3" x2="144.44" y2="3">
</line>
</g>
<g >
<line class="cls-11" x1="-1" y1="71" x2="72.44" y2="71">
</line>
<line class="cls-11" x1="-1" y1="67" x2="72.44" y2="67">
</line>
<line class="cls-11" x1="-1" y1="63" x2="72.44" y2="63">
</line>
<line class="cls-11" x1="-1" y1="59" x2="72.44" y2="59">
</line>
<line class="cls-11" x1="-1" y1="55" x2="72.44" y2="55">
</line>
<line class="cls-11" x1="-1" y1="51" x2="72.44" y2="51">
</line>
<line class="cls-11" x1="-1" y1="47" x2="72.44" y2="47">
</line>
<line class="cls-11" x1="-1" y1="43" x2="72.44" y2="43">
</line>
<line class="cls-11" x1="-1" y1="39" x2="72.44" y2="39">
</line>
<line class="cls-11" x1="-1" y1="35" x2="72.44" y2="35">
</line>
<line class="cls-11" x1="-1" y1="31" x2="72.44" y2="31">
</line>
<line class="cls-11" x1="-1" y1="27" x2="72.44" y2="27">
</line>
<line class="cls-11" x1="-1" y1="23" x2="72.44" y2="23">
</line>
<line class="cls-11" x1="-1" y1="19" x2="72.44" y2="19">
</line>
<line class="cls-11" x1="-1" y1="15" x2="72.44" y2="15">
</line>
<line class="cls-11" x1="-1" y1="11" x2="72.44" y2="11">
</line>
<line class="cls-11" x1="-1" y1="7" x2="72.44" y2="7">
</line>
<line class="cls-11" x1="-1" y1="3" x2="72.44" y2="3">
</line>
<line class="cls-11" x1="1.04" y1="69" x2="74.48" y2="69">
</line>
<line class="cls-11" x1="1.04" y1="65" x2="74.48" y2="65">
</line>
<line class="cls-11" x1="1.04" y1="61" x2="74.48" y2="61">
</line>
<line class="cls-11" x1="1.04" y1="57" x2="74.48" y2="57">
</line>
<line class="cls-11" x1="1.04" y1="53" x2="74.48" y2="53">
</line>
<line class="cls-11" x1="1.04" y1="49" x2="74.48" y2="49">
</line>
<line class="cls-11" x1="1.04" y1="45" x2="74.48" y2="45">
</line>
<line class="cls-11" x1="1.04" y1="41" x2="74.48" y2="41">
</line>
<line class="cls-11" x1="1.04" y1="37" x2="74.48" y2="37">
</line>
<line class="cls-11" x1="1.04" y1="33" x2="74.48" y2="33">
</line>
<line class="cls-11" x1="1.04" y1="29" x2="74.48" y2="29">
</line>
<line class="cls-11" x1="1.04" y1="25" x2="74.48" y2="25">
</line>
<line class="cls-11" x1="1.04" y1="21" x2="74.48" y2="21">
</line>
<line class="cls-11" x1="1.04" y1="17" x2="74.48" y2="17">
</line>
<line class="cls-11" x1="1.04" y1="13" x2="74.48" y2="13">
</line>
<line class="cls-11" x1="1.04" y1="9" x2="74.48" y2="9">
</line>
<line class="cls-11" x1="1.04" y1="5" x2="74.48" y2="5">
</line>
<line class="cls-11" x1="1.04" y1="1" x2="74.48" y2="1">
</line>
</g>
<g >
<line class="cls-11" x1="-73" y1="71" x2=".44" y2="71">
</line>
<line class="cls-11" x1="-73" y1="67" x2=".44" y2="67">
</line>
<line class="cls-11" x1="-73" y1="63" x2=".44" y2="63">
</line>
<line class="cls-11" x1="-73" y1="59" x2=".44" y2="59">
</line>
<line class="cls-11" x1="-73" y1="55" x2=".44" y2="55">
</line>
<line class="cls-11" x1="-73" y1="51" x2=".44" y2="51">
</line>
<line class="cls-11" x1="-73" y1="47" x2=".44" y2="47">
</line>
<line class="cls-11" x1="-73" y1="43" x2=".44" y2="43">
</line>
<line class="cls-11" x1="-73" y1="39" x2=".44" y2="39">
</line>
<line class="cls-11" x1="-73" y1="35" x2=".44" y2="35">
</line>
<line class="cls-11" x1="-73" y1="31" x2=".44" y2="31">
</line>
<line class="cls-11" x1="-73" y1="27" x2=".44" y2="27">
</line>
<line class="cls-11" x1="-73" y1="23" x2=".44" y2="23">
</line>
<line class="cls-11" x1="-73" y1="19" x2=".44" y2="19">
</line>
<line class="cls-11" x1="-73" y1="15" x2=".44" y2="15">
</line>
<line class="cls-11" x1="-73" y1="11" x2=".44" y2="11">
</line>
<line class="cls-11" x1="-73" y1="7" x2=".44" y2="7">
</line>
<line class="cls-11" x1="-73" y1="3" x2=".44" y2="3">
</line>
<line class="cls-11" x1="-70.96" y1="69" x2="2.48" y2="69">
</line>
<line class="cls-11" x1="-70.96" y1="65" x2="2.48" y2="65">
</line>
<line class="cls-11" x1="-70.96" y1="61" x2="2.48" y2="61">
</line>
<line class="cls-11" x1="-70.96" y1="57" x2="2.48" y2="57">
</line>
<line class="cls-11" x1="-70.96" y1="53" x2="2.48" y2="53">
</line>
<line class="cls-11" x1="-70.96" y1="49" x2="2.48" y2="49">
</line>
<line class="cls-11" x1="-70.96" y1="45" x2="2.48" y2="45">
</line>
<line class="cls-11" x1="-70.96" y1="41" x2="2.48" y2="41">
</line>
<line class="cls-11" x1="-70.96" y1="37" x2="2.48" y2="37">
</line>
<line class="cls-11" x1="-70.96" y1="33" x2="2.48" y2="33">
</line>
<line class="cls-11" x1="-70.96" y1="29" x2="2.48" y2="29">
</line>
<line class="cls-11" x1="-70.96" y1="25" x2="2.48" y2="25">
</line>
<line class="cls-11" x1="-70.96" y1="21" x2="2.48" y2="21">
</line>
<line class="cls-11" x1="-70.96" y1="17" x2="2.48" y2="17">
</line>
<line class="cls-11" x1="-70.96" y1="13" x2="2.48" y2="13">
</line>
<line class="cls-11" x1="-70.96" y1="9" x2="2.48" y2="9">
</line>
<line class="cls-11" x1="-70.96" y1="5" x2="2.48" y2="5">
</line>
<line class="cls-11" x1="-70.96" y1="1" x2="2.48" y2="1">
</line>
</g>
</g>
</pattern>
</defs>
  <path
     id="circle1849"
     style="fill:#AA00DD;stroke:#000000;stroke-width:2"
     d="M 34.875,3.84375 C 30.2026,3.8566827 25.91896,6.4477515 23.738281,10.580078 21.63936,9.1446679 19.156089,8.3761337 16.613281,8.375 9.636905,8.3755251 3.9818685,14.031436 3.9824219,21.007812 c 0.012178,4.019812 1.9368978,7.79383 5.1835937,10.164063 -1.8357739,2.246976 -2.8420262,5.057448 -2.8496094,7.958984 0.00713,1.935325 0.4588528,3.843134 1.3203126,5.576172 -2.4145566,2.364898 -3.7807042,5.598771 -3.7929688,8.978516 0.00466,4.996359 2.9538661,9.520462 7.523438,11.541015 0.767283,6.336372 6.140784,11.10481 12.523437,11.113282 3.186693,-0.0091 6.252191,-1.222333 8.582031,-3.396485 1.867081,1.045968 3.9693,1.600422 6.109375,1.611329 2.723791,-0.01118 5.371006,-0.902492 7.546875,-2.541016 1.56279,0.673484 3.245549,1.024252 4.947266,1.03125 6.977139,5.53e-4 12.633366,-5.655674 12.632812,-12.632813 -0.0013,-2.652818 -0.837669,-5.237911 -2.390625,-7.388671 2.480721,-2.37284 3.888874,-5.653124 3.900391,-9.085938 -9.13e-4,-3.96978 -1.867955,-7.708203 -5.041016,-10.09375 2.59288,-2.385063 4.071919,-5.744584 4.080078,-9.267578 C 64.257287,17.599796 58.601376,11.944759 51.625,11.945312 50.032147,11.955601 48.455612,12.267065 46.978516,12.863281 45.38146,7.5117456 40.459758,3.8440964 34.875,3.84375 Z"/>



<g id="Characters">
<g >
<path class="cls-1" d="M61.44,60.75l-2.45,10.93s-1.41,1.13-15.54,3.01c-14.13,1.89-32.22-2.35-32.22-2.35,0,0-2.35-3.49-3.96-12.06,3.72-2.81,8.58-1.97,8.95-1.91-.07-.06-.48-.36-2.63-1.96,6.31-1.97,11.87,1.7,11.87,1.7l.37-2.92-5.37-7.54-2.26-.28s-.85-1.32-2.73-3.77-.47-5.37-.47-5.37c0,0-3.02-1.6-2.17-4.71,.47,1.04,2.73,1.6,2.73,1.6,0,0,.29-.75-.09-4.42,1.98,.47,3.67,2.82,3.67,2.82l.25-.3,.6-.73s-.04-.11-.1-.31c-.02-.04-.03-.08-.05-.12,0-.01-.01-.02-.01-.03-.41-1.2-1.54-4.44-2.38-5.95-1.04-1.88-1.79-3.86,3.11-8.57-.94-2.08-2.07-4.15,.47-8.1-.19,1.6,1.98,3.1,3.3,2.73,1.31-.38,5.46-2.55,9.98-2.08,7.82-2.16,11.4,2.45,11.4,2.45l.47,4.06s2.64,2.63,3.02,4.42c.37,1.79-3.21,3.68-3.21,3.68,0,0,.13,.03,.43,.31,.22,.2,.55,.54,.99,1.1,1.41,2.17,1.03,5.84,2.73,8.95,1.32-2.17,5.37-4.33,5.37-4.33l.75,11.58-2.82,5-2.45,.28c-.85,1.98-5.47,8.57-5.47,8.57,0,0,0,.66,.57,3.11,6.5-3.2,10.83-1.13,10.83-1.13,0,0-.75,.19-1.69,1.32,3.2-.47,6.21,1.32,6.21,1.32Z">
</path>
<path class="cls-4" d="M28.27,38.45s-3.47,.23-6.3,2.83c.52-3.06,3.01-4.51,3.01-4.51l3.29-.75v2.43Z">
</path>
<path class="cls-2" d="M25.64,57.84s-6.46-3.12-11.81-1.46c2.36,1.81,2.39,1.99,2.39,1.99,0,0-5.51-.44-8.95,1.91,1.35,7.84,3.3,11.24,3.3,11.24,0,0,18.61,3.75,24.44,3.4-3.26-4.72-7.36-6.18-7.36-6.18l4.03-.42s-3.12-3.82-7.29-3.96c.62-4.17,1.25-6.53,1.25-6.53Z">
</path>
<path class="cls-3" d="M28.14,38.69s-2.53-.04-4.54,1.91c3.29-.24,5.07,1.45,6.17,.6-.18-2.01-1.63-2.51-1.63-2.51Z">
</path>
<path class="cls-2" d="M34.98,26.63V61.6l5.46-.67s11.71-9.88,11.8-19.36c-2.86-8.76-3.22-11-3.76-13.24s-3.04-5.01-7.69-4.65-5.81,2.95-5.81,2.95Z">
</path>
<path class="cls-3" d="M39.06,39.11s.65,2,3.72,1.86c2.97-.37,4.74-.56,4.74-.56,0,0-2.88-3.39-8.45-1.3Z">
</path>
<path d="M40.44,60.92l-8.34,10.45-4.17-2.89,3.4-.64s-3.14-3.85-7.18-3.53c1.28-4.81,1.86-8.85,1.86-8.85l5.64,5.64s6.73,.58,8.78-.19Z">
</path>
<path d="M19.35,33.05l-3.73-2.18s.58,3.58,0,4.94c3.92-.44,3.73-2.76,3.73-2.76Z">
</path>
<path d="M15.04,37.89s-1.49,2.33-.53,4.02,3.2,5.18,3.2,5.18l2.32,.19s-1.65-4.75-.92-7.94c-2.62-1.21-4.07-1.45-4.07-1.45Z">
</path>
<path d="M22.44,68.72c2.6-1.79,5.2-1.73,5.2-1.73,0,0-3.24-1.56-8.15-.98,.75-2.72,3.93-3.24,5.09-3.24,.29-2.2,.46-3.93,.46-3.93,0,0-3.99-1.04-7.63-1.44,2.6,1.91,3.53,3.12,3.53,3.12,0,0-8.67-1.73-13.47,1.96,1.68,6.88,2.89,9.71,2.89,9.71l21.84,2.54s-7.05-5.84-9.77-6.01Z">
</path>
<path class="cls-2" d="M56.46,57.96s-4.78,0-8.31,2.23c0,.03,0,.06,0,.09,.2,2.35,1.71,4.38,3.89,5.29l7.36,3.06,2.03-7.88s-2.95-1.88-6.22-1.55c1.31-.85,1.24-1.24,1.24-1.24Z">
</path>
<polygon class="cls-2" points="45.36 66.52 50.28 67.86 35.07 72.15 45.36 66.52">
</polygon>
<path class="cls-2" d="M41.78,74.03c-.27,.01,10.02-4.56,10.02-4.56l5.99,2.41s-12.43,1.97-16.01,2.15Z">
</path>
<path class="cls-1" d="M37.76,25.4c3.74,0,6.2,.73,7,1,.47,.49,1.66,1.92,1.88,4.16,.2,2.04,1.14,4.39,2.04,6.67,.63,1.6,1.59,4.02,1.48,4.74-.02,.12-.04,.26-.06,.41-.32,2.34-1.18,8.51-10.95,16.71-1.44,.3-2.84,.45-4.17,.45-.95,0-1.86-.08-2.72-.23-3.17-3.21-7.74-8.61-9.6-11.71-2.2-3.64-1.43-7.45-1.42-7.47l.02-.08v-.08c.08-.51,.15-1.01,.22-1.49,1.08-7.93,1.45-10.6,9.24-12.28,2.41-.52,4.78-.78,7.04-.78m2.28,35.54v2.01s0-2.01,0-2.01m-2.28-37.54c-2.13,0-4.63,.22-7.47,.83-9.71,2.09-9.73,6.35-11,15.45,0,0-1.02,4.52,1.66,8.95,2.07,3.44,7.1,9.33,10.33,12.52,1.03,.23,2.26,.39,3.7,.39s3.16-.17,5.06-.6h.01c11.31-9.33,11.75-16.43,12.09-18.67,.36-2.4-3.14-8.22-3.51-11.91s-2.79-5.69-2.79-5.69c0,0-2.93-1.27-8.08-1.27h0Z">
</path>
<path class="cls-4" d="M38.86,28.42s4.91-1.22,7.03,.9,2.41,6,4.68,8.92c-2.34-6.51-1.46-8.27-2.71-10.68s-2.85-4.17-5.34-3.66-3.67,4.52-3.67,4.52Z">
</path>
<path class="cls-17" d="M45.99,24.67s.13,.03,.43,.31h-.29s-2.14-2.3-4.51-1-2.76,4.44-2.76,4.44c0,0,3.06,2.07,.31,4.74,.08-3.13-2.83-4.43-4.36-4.13-1.53,.31-4.82,1.38-5.89,6.12,2.52,4.75,1.83,8.19,1.83,8.19,0,0-2.52-5.74-5.74-7.04-3.06,3.37-5.74,3.44-7.73,2.83-1.99-.61-4.74-2.22-4.2-5.2,1.91,2.25,4.97,1.35,6.31-.71,.21-.32,.38-.67,.5-1.04h0s-.03-.08-.05-.12c0-.01-.01-.02-.01-.03-.41-1.2-1.54-4.44-2.38-5.95-1.04-1.88-1.79-3.86,3.11-8.57-.94-2.08-2.07-4.15,.47-8.1-.19,1.6,1.98,3.1,3.3,2.73,1.31-.38,5.46-2.55,9.98-2.08,7.82-2.16,11.4,2.45,11.4,2.45l.47,4.06s2.64,2.63,3.02,4.42c.37,1.79-3.21,3.68-3.21,3.68Z">
</path>
<path class="cls-15" d="M45.14,13.12s-14.83-.64-18.94,7.25-.08,11.37,3.71,11.45c.97-1.77,5.16-2.5,5.16-2.5,0,0-8.38-.08-5-6.13s12.25-5.16,14.35-2.82c2.1-4.19,.73-7.25,.73-7.25Z">
</path>
<path d="M17.97,26.93s3.53,3,3.86,5.57c1.02-1.39,2.95-1.55,2.95-1.55l-.16,4.66,.4,.69s-1.31,3-5.38,3.54-7.76-3.75-7.01-6.48c1.93,3,5.44,3.08,7.38-.87-2.4-2.93-2.02-5.56-2.02-5.56Z">
</path>
<path d="M25.89,11.94s-2.4,1.88-3.08,2.46c3.61-.16,6.06,1.36,6.06,1.36,0,0-5.96,.78-8.68,1.93-1.31-4.23-.63-6.79,1.15-8.21,.31,2.3,0,3.82,4.55,2.46Z">
</path>
<path d="M25,35.82s2.2-1.41,4.13-.21c2.82,3.55,1.83,7.37,1.83,7.37,0,0-2.25-4.6-5.96-7.16Z">
</path>
<path class="cls-2" d="M27.9,21.76s8.03-8.41,17.34-3.1c.76-2.57,.63-3.21,.63-3.21,0,0-10.78-4.44-17.97,6.32Z">
</path>
<path class="cls-4" d="M38.45,38.91s3.99-3.58,5.26-4.05c3.35,1.1,6.13,2.95,5.32,6.53-3.06-2.6-5.61-3.99-10.58-2.49Z">
</path>
<path class="cls-2" d="M28.99,42.72s-4.24-1.65-6.83-.39c3.25,.44,6.83,.39,6.83,.39Z">
</path>
<path class="cls-2" d="M51.76,33.59l2.03-.52s1.51,5.83,1.18,8.12-.85,4.58-.85,4.58l2.1-4.12-.92-11.06s-2.62,1.7-3.54,3.01Z">
</path>
<path class="cls-17" d="M23.4,52.03s.98-2.41,2.71-3.65c-1.09,2.18-1.43,5.3-1.43,5.3l-1.28-1.65Z">
</path>
<path class="cls-17" d="M21,48.08s2.37-3.31,5.53-4.32c-2.97,2.52-4.17,6.88-4.17,6.88l-1.35-2.56Z">
</path>
<path class="cls-17" d="M45.75,58.08s-1.81,2.24-4.19,3.33c3.09-1,4.47-1.76,4.47-1.76l-.29-1.57Z">
</path>
<path class="cls-17" d="M46.08,60.56s-4.66,3.62-7.76,5.24c4.52-1.57,8.09-3.62,8.09-3.62l-.33-1.62Z">
</path>
<path d="M48.32,37.6l-1.38-.74c-1.01-.56-2.19-.82-3.34-.8-2.55,.6-3.73,2.1-5.47,3.37-1.8-.73-2.43-1.92-1.9-3.84,.13-.55,.34-1.08,.64-1.54-.3,1.14-.25,2.34,.2,3.32,1.65-1.51,3.5-2.73,5.48-3.79,2.48,.33,4.22,2.25,5.77,4.02Z">
</path>
<path class="cls-12" d="M27.8,38.72s-2.04-.41-4.7,1.96c2.53-.74,4.33,.82,6.33,.53">
</path>
<path class="cls-12" d="M38.94,39.17s4.84-2.29,8.94,1.55c-2.03-.67-3.33,.41-5.88,.26s-3.07-1.81-3.07-1.81Z">
</path>
<path d="M37.43,40.17c-.1,1.33-.16,2.62-.47,3.93,0,0-.09-.29-.09-.29,.65,.41,1.3,.85,1.89,1.38-.25,.33-.88,1.14-1.13,1.47-.17-.11-1.17-.74-1.36-.86,0,0,.4,0,.4,0-.15,.1-1.14,.76-1.26,.85-.11-.08-1.13-.75-1.27-.84,0,0,.4,0,.4,0l-1.08,.69-.27,.18-.19-.25c-.15-.19-.83-1.07-.97-1.24,.62-.47,1.28-.92,1.91-1.36,0,0-.09,.29-.09,.29-.29-1.31-.37-2.6-.47-3.93,0,0,.46,1.9,.46,1.9,.16,.6,.31,1.46,.53,2.02-.56,.46-1.1,.94-1.66,1.38,0,0,.03-.45,.03-.45l.8,.94-.47-.07c.15-.1,1.14-.77,1.26-.84,.11,.07,1.14,.73,1.28,.82,0,0-.41,0-.41,0,.15-.09,1.15-.75,1.27-.82,.11,.08,1.13,.75,1.27,.84,0,0-.46,.07-.46,.07l.79-.94,.03,.44c-.51-.47-1.09-.95-1.67-1.37,.38-1.08,.69-2.8,1-3.93h0Z">
</path>
<path d="M27.55,47.84s.66,.73,2.87,.35,5.33-.73,6.85-.38,4.53,.73,5.61,.31c-.52,2.42-2.49,5.43-4.19,6.51s-3.81,1.04-3.81,1.04c0,0-3.15-.83-4.95-2.87s-2.35-3.81-2.39-4.95Z">
</path>
<path d="M32.35,39.83c-.17,.06-.12,.08-.28-.03-.58-.42-1.16-.85-1.72-1.28-.65-1.22-1.49-3.04-1.53-4.45,1.78,1.1,3.45,2.37,4.84,3.91,.69-1.09,.73-2.48,.36-3.93,1.21,1.93,.89,5.19-1.67,5.78Z">
</path>
<path class="cls-17" d="M37.54,52.68c-.79,.1-1.61,.44-2.17,.72-.56-.28-1.38-.62-2.17-.72-1.36-.17-2.07,.85-2.07,.85,.24,1.25,3.46,2.03,3.46,2.03l.78-.04,.78,.04s3.22-.78,3.46-2.03c0,0-.71-1.02-2.07-.85Z">
</path>
<path class="cls-2" d="M28.67,48.32s.44,1.95,1.99,3.18c.64-1.11,.83-1.35,.83-1.35,0,0,3.58,1.19,7.95-.04,.6,1.07,.83,1.47,.83,1.47,0,0,1.67-1.67,2.03-3.34-2.58-.16-5.29-.28-7.43-.44s-6.2,.52-6.2,.52Z">
</path>
<path class="cls-17" d="M41.39,51.86s-1.47,3.97-3.26,5.17c-1.55,.91-2.9,.76-2.9,.76,0,0-1.35,.16-2.9-.76-1.79-1.19-3.26-5.17-3.26-5.17,0,0,2.39,3.64,6.16,3.81,2.9,.05,6.16-3.81,6.16-3.81Z">
</path>
<path d="M34.86,26.79c-5.35-4.33-10.63,3.74-9.95,8.77,0,0-.26-.43-.26-.43,2.4,1.45,4.3,3.62,5.63,6.08,.44,.82,.82,1.65,1.13,2.57l-1.05-.1c.91-2.85-.75-6.01-2.3-8.38,0,0-.13-.21-.13-.21l.04-.23c.44-4.46,5.26-7.74,9.54-5.97,1.79,1.15,2.5,3.69,1.29,5.55,0,0-.88-.83-.88-.83,2.56-2.03,2.59-3.73-.15-5.45,.84-1.63,1.74-3.28,3.33-4.34,.91-.64,2.27-.83,3.33-.35,.36,.14,1.26,.53,1.63,.68,0,0-.44,0-.44,0,1.21-.6,3.13-1.66,2.84-3.19-.29-1.56-1.45-3.05-2.71-3.97-.23-.16-.28-.47-.12-.7,.16-.22,.47-.28,.69-.12,.81,.56,1.44,1.23,2,1.99,2.38,3.19,1.08,5.46-2.25,7.02,0,0-.21,.1-.21,.1l-.23-.09c-.37-.15-1.28-.51-1.63-.66-.76-.32-1.55-.21-2.26,.27-1.18,.81-1.97,2.17-2.65,3.44,0,0-.19-.77-.19-.77,3.18,2.07,2.56,4.99-.22,7.08,0,0-3.23,2.59-3.23,2.59l2.34-3.42c.79-1.18,.27-3.07-.95-3.81-1.19-.52-3.66-.25-4.98,.68-1.52,.94-2.41,2.63-2.7,4.45l-.1-.44,.66,1.04c1.43,2.53,2.75,5.63,1.65,8.54,0,0-.59,1.33-.59,1.33-.61-2.11-1.53-4.24-2.89-5.99-1.08-1.48-2.48-2.7-4.03-3.66-.2-3.13,.68-6.46,2.94-8.74,2.15-2.35,5.98-3.24,8.06-.35h0Z">
</path>
<path d="M25.32,36.33c-1.87,3.59-6.57,4.75-9.95,2.54-1.97-1.16-4.01-3.47-2.89-5.91,0,0,.43-.88,.43-.88l.46,.91c1.96,3.63,4.35,2,6.11-.75,0,0-.04,.46-.04,.46-1.29-3.68-3.92-7.86-2.62-11.92,3.51-6.41,12.85-6.41,18.82-3.88,1.06,.76,1.82,1.95,2.18,3.19,.37,1.19,.45,2.45,.17,3.62-.2-2.23-1.85-4.69-2.78-5.91-5.47-2.32-14.17-2.4-17.46,3.36-.44,1.11-.36,2.4-.07,3.66,.62,2.62,1.76,5.19,2.79,7.75-2.24,3.58-5.51,5.35-8,.83,0,0,.89,.04,.89,.04-.51,1.09,.1,2.47,.96,3.31,1.81,1.91,4.84,2.9,7.29,1.76,1.21-.53,2.17-1.55,2.86-2.71,.34-.56,1.19-.05,.86,.51h0Z">
</path>
<path d="M20.13,18c-2.8-3.28-.76-7.83,1.92-10.5-.02,1.03-.14,2.37,.18,3.35,.43,1.54,1.39,1.15,2.61,.54,3.39-1.42,7.17-2.26,10.84-1.43,3.47,1.61,6.06,7.78,5.11,11.4,0,0-.82-3.02-.82-3.02-.77-2.76-1.99-6-4.71-7.31-2.13-.44-5.56-.12-8,.72-1.56,.35-2.49,1.37-4.29,1.3-1.87-.38-2.04-2.67-1.95-4.2,0,0,.87,.37,.87,.37-.95,1.13-1.72,2.57-2.02,4.03-.29,1.48,.09,2.95,1.03,4.11,.45,.51-.35,1.18-.77,.64h0Z">
</path>
<path d="M42.91,22.11c2-2.58,3-5.83,2.26-9.05,0,0,.1,.2,.1,.2-1.35-1.61-3.22-2.73-5.29-3.12-2.07-.4-4.27-.18-6.28,.47-.26,.08-.54-.06-.63-.32-.08-.26,.06-.54,.32-.63,3.24-1.04,7.01-1.07,10.01,.72,1.04,.61,1.94,1.42,2.71,2.34,1,3.36-.13,7.51-3.21,9.39h0Z">
</path>
<path class="cls-8" d="M19.29,39.68s-1.02,4.52,1.66,8.95c2.07,3.44,7.1,9.33,10.33,12.52,2.08,.46,5.01,.64,8.76-.21h.01c11.31-9.33,11.75-16.43,12.09-18.67,.36-2.4-3.14-8.22-3.51-11.91s-2.79-5.69-2.79-5.69">
</path>
<path class="cls-8" d="M19.39,33.22s-2.21-2.11-3.86-2.67c.28,2.94-.18,4.69-.18,4.69">
</path>
<path class="cls-8" d="M14.88,38.27s-.83,2.48,0,4.23,3.13,4.69,3.13,4.69c0,0,1.1,.46,2.21,.37">
</path>
<path class="cls-8" d="M50.99,47.56c1.1,.09,1.96-.37,1.96-.37,0,0,2.3-2.94,3.13-4.69s-.92-9.01-.64-11.95c-1.66,.55-4.72,3.25-5.22,4.44">
</path>
<line class="cls-8" x1="25.92" y1="55.31" x2="24.32" y2="64.26">
</line>
<polyline class="cls-8" points="45.49 56.11 47.09 65.06 59.62 70.37">
</polyline>
<path class="cls-8" d="M25.37,57.99s-6.37-3.48-11.81-1.77c1.96,1.44,2.68,2.16,2.68,2.16,0,0-4.65-.92-9.17,2.1">
</path>
<path class="cls-8" d="M46.23,59.1s6.02-2.88,11-1.18c-1.96,.98-2.62,1.44-2.62,1.44,0,0,4.65-.72,7.53,2.1">
</path>
<path d="M20.75,65.22c3.77-2.74,8.79-.39,11.45,2.84,0,0,1.3,1.35,1.3,1.35-1.91-.42-4.23-1.07-6.09-.29,0,0-.07-1.08-.07-1.08,1.7,.77,3.27,1.67,4.74,2.81,1.42,1.15,2.8,2.54,3.45,4.41,.09,.26-.05,.55-.31,.64-.25,.09-.52-.04-.63-.28-1.58-3.5-5.52-5.51-8.91-6.98,0,0,1.12-.57,1.12-.57,1.64-.77,3.41-.58,5.09-.2,0,0-.57,.94-.57,.94-2.51-3.19-6.54-4.75-10.56-3.59h0Z">
</path>
<path d="M38.42,72.93c1.5-1.27,3.37-1.54,5.17-2.11,1.79-.51,3.59-.94,5.44-1.26-1.69,.81-3.42,1.49-5.17,2.11-1.8,.57-3.47,1.43-5.44,1.26h0Z">
</path>
<path d="M43.48,47.8c-1.05,.96-2.75,.76-4.01,.57-1.32-.11-2.68-.14-4-.07-1.32-.06-2.68-.04-4,.08-1.26,.18-2.96,.39-4.01-.58,1.32,.59,2.55,.12,3.89-.2,1.29-.28,2.98-.35,4.09-.3,1.4-.04,2.77,.02,4.14,.31,1.34,.31,2.58,.78,3.89,.19h0Z">
</path>
<path d="M42.96,48.01c-.72,3.96-3.5,7.69-7.73,8.17-2.01-.34-4.06-1.22-5.3-2.87-1.25-1.54-2.04-3.39-2.44-5.3,.77,1.77,1.75,3.44,3.02,4.78,1.12,1.43,3.64,2.16,4.63,2.38,3.91-.44,6.38-3.71,7.82-7.17h0Z">
</path>
</g>
</g>

</svg>
