<svg id="Capa_2" xmlns="http://www.w3.org/2000/svg" xmlns:xlink="http://www.w3.org/1999/xlink" viewBox="0 0 69.02 80">
<defs >
<style >
.cls-1{fill:#c89aed;}.cls-2{fill:#fff;}.cls-3{fill:#f8ffbf;}.cls-4{fill:#7b7be8;}.cls-5{fill:#a88347;}.cls-6{fill:#782ab5;}.cls-7,.cls-8{stroke-miterlimit:10;}.cls-7,.cls-8,.cls-9,.cls-10{stroke:#000;}.cls-7,.cls-8,.cls-9,.cls-10,.cls-11,.cls-12,.cls-13{fill:none;}.cls-8,.cls-9,.cls-10,.cls-11{stroke-linecap:round;}.cls-9{stroke-width:.75px;}.cls-9,.cls-10,.cls-11{stroke-linejoin:round;}.cls-14{fill:#1c46ff;}.cls-11{stroke:#deb778;stroke-dasharray:0 0 0 4.06;}.cls-15{fill:url(#USGS_19_Inundación_de_tierra);}.cls-16{fill:#deb778;}.cls-13{stroke:#1d1d1b;stroke-dasharray:0 0 2 2;stroke-width:.3px;}.cls-17{fill:#fcf0c5;}.cls-18{fill:#b83521;}
</style>
<pattern id="USGS_19_Inundación_de_tierra" x="0" y="0" width="72" height="72" patternTransform="translate(-92.48 -16135) rotate(-90)" patternUnits="userSpaceOnUse" viewBox="0 0 72 72">
<g >
<rect class="cls-12" width="72" height="72">
</rect>
<g >
<line class="cls-13" x1="71" y1="71" x2="144.44" y2="71">
</line>
<line class="cls-13" x1="71" y1="67" x2="144.44" y2="67">
</line>
<line class="cls-13" x1="71" y1="63" x2="144.44" y2="63">
</line>
<line class="cls-13" x1="71" y1="59" x2="144.44" y2="59">
</line>
<line class="cls-13" x1="71" y1="55" x2="144.44" y2="55">
</line>
<line class="cls-13" x1="71" y1="51" x2="144.44" y2="51">
</line>
<line class="cls-13" x1="71" y1="47" x2="144.44" y2="47">
</line>
<line class="cls-13" x1="71" y1="43" x2="144.44" y2="43">
</line>
<line class="cls-13" x1="71" y1="39" x2="144.44" y2="39">
</line>
<line class="cls-13" x1="71" y1="35" x2="144.44" y2="35">
</line>
<line class="cls-13" x1="71" y1="31" x2="144.44" y2="31">
</line>
<line class="cls-13" x1="71" y1="27" x2="144.44" y2="27">
</line>
<line class="cls-13" x1="71" y1="23" x2="144.44" y2="23">
</line>
<line class="cls-13" x1="71" y1="19" x2="144.44" y2="19">
</line>
<line class="cls-13" x1="71" y1="15" x2="144.44" y2="15">
</line>
<line class="cls-13" x1="71" y1="11" x2="144.44" y2="11">
</line>
<line class="cls-13" x1="71" y1="7" x2="144.44" y2="7">
</line>
<line class="cls-13" x1="71" y1="3" x2="144.44" y2="3">
</line>
</g>
<g >
<line class="cls-13" x1="-1" y1="71" x2="72.44" y2="71">
</line>
<line class="cls-13" x1="-1" y1="67" x2="72.44" y2="67">
</line>
<line class="cls-13" x1="-1" y1="63" x2="72.44" y2="63">
</line>
<line class="cls-13" x1="-1" y1="59" x2="72.44" y2="59">
</line>
<line class="cls-13" x1="-1" y1="55" x2="72.44" y2="55">
</line>
<line class="cls-13" x1="-1" y1="51" x2="72.44" y2="51">
</line>
<line class="cls-13" x1="-1" y1="47" x2="72.44" y2="47">
</line>
<line class="cls-13" x1="-1" y1="43" x2="72.44" y2="43">
</line>
<line class="cls-13" x1="-1" y1="39" x2="72.44" y2="39">
</line>
<line class="cls-13" x1="-1" y1="35" x2="72.44" y2="35">
</line>
<line class="cls-13" x1="-1" y1="31" x2="72.44" y2="31">
</line>
<line class="cls-13" x1="-1" y1="27" x2="72.44" y2="27">
</line>
<line class="cls-13" x1="-1" y1="23" x2="72.44" y2="23">
</line>
<line class="cls-13" x1="-1" y1="19" x2="72.44" y2="19">
</line>
<line class="cls-13" x1="-1" y1="15" x2="72.44" y2="15">
</line>
<line class="cls-13" x1="-1" y1="11" x2="72.44" y2="11">
</line>
<line class="cls-13" x1="-1" y1="7" x2="72.44" y2="7">
</line>
<line class="cls-13" x1="-1" y1="3" x2="72.44" y2="3">
</line>
<line class="cls-13" x1="1.04" y1="69" x2="74.48" y2="69">
</line>
<line class="cls-13" x1="1.04" y1="65" x2="74.48" y2="65">
</line>
<line class="cls-13" x1="1.04" y1="61" x2="74.48" y2="61">
</line>
<line class="cls-13" x1="1.04" y1="57" x2="74.48" y2="57">
</line>
<line class="cls-13" x1="1.04" y1="53" x2="74.48" y2="53">
</line>
<line class="cls-13" x1="1.04" y1="49" x2="74.48" y2="49">
</line>
<line class="cls-13" x1="1.04" y1="45" x2="74.48" y2="45">
</line>
<line class="cls-13" x1="1.04" y1="41" x2="74.48" y2="41">
</line>
<line class="cls-13" x1="1.04" y1="37" x2="74.48" y2="37">
</line>
<line class="cls-13" x1="1.04" y1="33" x2="74.48" y2="33">
</line>
<line class="cls-13" x1="1.04" y1="29" x2="74.48" y2="29">
</line>
<line class="cls-13" x1="1.04" y1="25" x2="74.48" y2="25">
</line>
<line class="cls-13" x1="1.04" y1="21" x2="74.48" y2="21">
</line>
<line class="cls-13" x1="1.04" y1="17" x2="74.48" y2="17">
</line>
<line class="cls-13" x1="1.04" y1="13" x2="74.48" y2="13">
</line>
<line class="cls-13" x1="1.04" y1="9" x2="74.48" y2="9">
</line>
<line class="cls-13" x1="1.04" y1="5" x2="74.48" y2="5">
</line>
<line class="cls-13" x1="1.04" y1="1" x2="74.48" y2="1">
</line>
</g>
<g >
<line class="cls-13" x1="-73" y1="71" x2=".44" y2="71">
</line>
<line class="cls-13" x1="-73" y1="67" x2=".44" y2="67">
</line>
<line class="cls-13" x1="-73" y1="63" x2=".44" y2="63">
</line>
<line class="cls-13" x1="-73" y1="59" x2=".44" y2="59">
</line>
<line class="cls-13" x1="-73" y1="55" x2=".44" y2="55">
</line>
<line class="cls-13" x1="-73" y1="51" x2=".44" y2="51">
</line>
<line class="cls-13" x1="-73" y1="47" x2=".44" y2="47">
</line>
<line class="cls-13" x1="-73" y1="43" x2=".44" y2="43">
</line>
<line class="cls-13" x1="-73" y1="39" x2=".44" y2="39">
</line>
<line class="cls-13" x1="-73" y1="35" x2=".44" y2="35">
</line>
<line class="cls-13" x1="-73" y1="31" x2=".44" y2="31">
</line>
<line class="cls-13" x1="-73" y1="27" x2=".44" y2="27">
</line>
<line class="cls-13" x1="-73" y1="23" x2=".44" y2="23">
</line>
<line class="cls-13" x1="-73" y1="19" x2=".44" y2="19">
</line>
<line class="cls-13" x1="-73" y1="15" x2=".44" y2="15">
</line>
<line class="cls-13" x1="-73" y1="11" x2=".44" y2="11">
</line>
<line class="cls-13" x1="-73" y1="7" x2=".44" y2="7">
</line>
<line class="cls-13" x1="-73" y1="3" x2=".44" y2="3">
</line>
<line class="cls-13" x1="-70.96" y1="69" x2="2.48" y2="69">
</line>
<line class="cls-13" x1="-70.96" y1="65" x2="2.48" y2="65">
</line>
<line class="cls-13" x1="-70.96" y1="61" x2="2.48" y2="61">
</line>
<line class="cls-13" x1="-70.96" y1="57" x2="2.48" y2="57">
</line>
<line class="cls-13" x1="-70.96" y1="53" x2="2.48" y2="53">
</line>
<line class="cls-13" x1="-70.96" y1="49" x2="2.48" y2="49">
</line>
<line class="cls-13" x1="-70.96" y1="45" x2="2.48" y2="45">
</line>
<line class="cls-13" x1="-70.96" y1="41" x2="2.48" y2="41">
</line>
<line class="cls-13" x1="-70.96" y1="37" x2="2.48" y2="37">
</line>
<line class="cls-13" x1="-70.96" y1="33" x2="2.48" y2="33">
</line>
<line class="cls-13" x1="-70.96" y1="29" x2="2.48" y2="29">
</line>
<line class="cls-13" x1="-70.96" y1="25" x2="2.48" y2="25">
</line>
<line class="cls-13" x1="-70.96" y1="21" x2="2.48" y2="21">
</line>
<line class="cls-13" x1="-70.96" y1="17" x2="2.48" y2="17">
</line>
<line class="cls-13" x1="-70.96" y1="13" x2="2.48" y2="13">
</line>
<line class="cls-13" x1="-70.96" y1="9" x2="2.48" y2="9">
</line>
<line class="cls-13" x1="-70.96" y1="5" x2="2.48" y2="5">
</line>
<line class="cls-13" x1="-70.96" y1="1" x2="2.48" y2="1">
</line>
</g>
</g>
</pattern>
</defs>

<g id="Characters">
<g >
<g >
<path class="cls-14" d="M59.31,69.11s-4.94-4.77-9.97-5.11c-2.6,6.5-3.75,10.05-3.75,10.05,0,0,12.6-1.84,12.76-2.08s.95-2.86,.95-2.86Z">
</path>
<path d="M30.32,49.77s-5.18-1.47-10.03,4.28c-2.04,2.75-2.81,6.13-2.81,6.13l4.47,1.98-3.32,2.49s1.85,7.28,5.69,10.16c17.25,.83,21.28-.77,21.28-.77,0,0,3.83-7.22,4.35-9.46-2.94-2.49-3.13-2.36-3.13-2.36l4.28-2.17s-1.28-8.88-8.69-10.48c-7.03-.32-12.08,.19-12.08,.19Z">
</path>
<path d="M23.51,73.55l-5.03-9.46s-6.34,2.01-8.75,4.83c1.11,2.52,2.11,2.92,2.11,2.92,0,0,9.56,1.41,11.67,1.71Z">
</path>
<path class="cls-1" d="M16.63,38.66s.34,3.71,2.11,5.9,4.64,1.77,4.64,1.77l3.63,5.56-.42,8.6-1.77,2.19s-1.43,7.76,.84,11.47c10.88,1.26,17.71,.08,17.71,.08,0,0,2.36-6.41,.51-11.72l-1.69-1.68-.17-9.28s2.87-2.78,3.54-5.31c2.95,.76,5.65-2.45,6.16-4.47s.42-5.65,.42-5.65c0,0-.67-.76-1.35-.25s-2.95,1.26-2.95,1.26l.25-3.88s-.42-7.84-5.06-9.44-20.15,5.48-26.39,14.84Z">
</path>
<polygon class="cls-2" points="33.67 62.89 26.15 69.3 27.99 74.34 33.58 74.43 33.67 62.89">
</polygon>
<path class="cls-2" d="M34.23,27.53v28.87l4.33-.63s5.74-6,7-9.53c1.58-5.1,2.44-12.57,2.44-12.57,0,0-3.89-6.77-6.31-7s-4.86,2.13-4.86,2.13l-2.6-1.26Z">
</path>
<path class="cls-1" d="M41.29,28.36h0c.09,0,.17,0,.26,.01,1.52,.12,4.26,4.22,4.93,6.46,0,.02,.01,.04,.02,.05-.49,4.31-1.55,8.39-2.4,10.57-.83,2.14-3.74,6.02-6.26,9.03-.77,.17-1.68,.25-2.69,.25-1.46,0-2.89-.17-4.04-.32l-.03-.04-.16-.19c-1.66-2.02-4.17-5.07-5.27-6.74-1.33-2.05-1.79-5.67-1.92-6.97,1.73-1.37,3.31-4.05,5.42-7.64,.83-1.43,1.62-2.75,2.39-4.03,.07,0,.14,0,.22,0,1.9,0,3.9,1.15,4.12,1.28l.06,.03s.06,.03,.09,.05l.09,.05h.02c.1,.04,.2,.08,.32,.1,.09,.02,.18,.03,.28,.03,.38,0,.75-.14,1.05-.42,.02-.02,1.67-1.56,3.51-1.56m0-1c-2.26,0-4.18,1.82-4.2,1.84-.1,.09-.23,.14-.36,.14-.03,0-.06,0-.09,0-.09-.02-.16-.06-.22-.11,0-.01-.02-.01-.03-.01-.45-.27-2.54-1.41-4.63-1.41-.27,0-.55,.02-.81,.06-.99,1.62-1.87,3.11-2.66,4.47-2.26,3.84-3.86,6.56-5.6,7.66h0c0,.06,.32,5.22,2.12,8,1.16,1.77,3.77,4.93,5.49,7.02l.29,.35h.1c1.16,.16,2.78,.37,4.46,.37,1.1,0,2.22-.09,3.24-.35,2.64-3.13,5.74-7.25,6.64-9.57,.9-2.3,2.02-6.65,2.5-11.14-.03-.04-.07-.06-.08-.11-.61-2.05-3.51-7.01-5.82-7.19-.11,0-.23-.01-.34-.01h0Z">
</path>
<path d="M38.89,55.83l-14.42,13.28,.34-6.42,2.19-10.79,3.54,4.03s7.3-.09,8.35-.09Z">
</path>
<path d="M37.76,17.64s-2.89-7.11-5.77-6.97-7.32,2.53-11.41,8.24-2.68,13.03-2.68,13.03c0,0-2.82,3.59-5.7,1.83,.84,4.93,4.3,5.99,6.97,6.48s3.59-.49,5.14-2.32,5.49-10.28,6.55-10.7,5.91,1.34,5.91,1.34c0,0,.21-8.31,.99-10.91Z">
</path>
<path class="cls-14" d="M36.44,15.39s-7.72,5.33-3.49,11.13c-4.6-.09-6.44,5.33-6.44,5.33,0,0-3.4-14.16,3.77-20.87,2.57-.64,4.84,2.16,6.16,4.41Z">
</path>
<path class="cls-2" d="M35.67,13.66s-8.27,3.22-4.81,13.56c-.72,.41-.94,.85-.94,.85,0,0-3.73-12.17,2.46-17.25,2.09,.52,3.29,2.84,3.29,2.84Z">
</path>
<path class="cls-14" d="M23.2,22.02c-2.04,3.17-2.72,6.91-3.45,10.54-.98,2.28-3.83,3.49-6.1,2.39,0,0,.02-.1,.02-.1,2.11,.48,4.41-.57,5.2-2.63,.1-.81,.28-1.88,.48-2.77,.69-2.72,1.68-5.55,3.77-7.51,0,0,.06,.08,.06,.08h0Z">
</path>
<path class="cls-14" d="M18.19,28.62c.67-6.04,3.61-12.02,8.7-15.5,0,0,.06,.08,.06,.08-.48,.64-1.07,1.1-1.5,1.73-2.41,2.8-4.16,6.05-5.58,9.44-.58,1.4-1.07,2.81-1.57,4.25,0,0-.1,0-.1,0h0Z">
</path>
<path d="M36.77,28.56l.53-10.82s3.07-1.05,6.83,1.66,4.73,10.16,3.85,15.59c-3.33-6.83-4.47-8.32-6.31-8.32s-4.91,1.89-4.91,1.89Z">
</path>
<path class="cls-4" d="M31.56,38.84l.67-3.24s-3.6-3.12-4.76-2.75c-2.14,3.18-2.87,5.07-2.87,5.07,0,0,3.42-1.04,6.96,.92Z">
</path>
<path class="cls-4" d="M37.21,38.85l-.86-3.2s2.57-2.75,4.46-2.97,4,.86,4.92,1.66c.23,2.57-.74,3.6-.74,3.6,0,0-1.54-.74-3.55-.46s-4.23,1.37-4.23,1.37Z">
</path>
<path class="cls-3" d="M24.38,37.99s1.3-.88,3.34-.53,3.85,1.38,3.85,1.38c0,0-1.37,.72-3.49,.64s-3.7-1.49-3.7-1.49Z">
</path>
<path class="cls-3" d="M44.58,37.99s-1.3-.88-3.34-.53-3.85,1.38-3.85,1.38c0,0,1.37,.72,3.49,.64s3.7-1.49,3.7-1.49Z">
</path>
<path d="M22.02,39.28s.65,5.55,1.46,6.74c-4.04,.92-5.12-1.13-5.99-3.02s-.75-3.56-.75-3.56c0,0,2.8,.11,5.28-.16Z">
</path>
<path class="cls-1" d="M17.7,41.54c1.56,1.51,2.16,2.49,3.47,4.06,0,0-.03,.1-.03,.1-1.93-.45-3.25-2.24-3.54-4.14,0,0,.1-.01,.1-.01h0Z">
</path>
<path class="cls-14" d="M41.14,26.79s4-4.52,1.11-8.09c5.2,2.73,5.71,7.84,5.71,7.84,0,0-1.96,2.22-2.39,3.41-1.62-1.87-1.7-2.98-4.43-3.15Z">
</path>
<path class="cls-2" d="M25.75,40.96c.75,.07,1.8,.1,2.96-.03,.55-.06,.89,.57,.55,1-.94,1.19-1.57,1.88-1.98,2.28-.3,.29-.78,.21-.98-.16l-1.16-2.19c-.23-.43,.11-.95,.6-.9Z">
</path>
<path class="cls-4" d="M43.85,62.6s-2.06,1.52-4.06,1.99v10.52h3.86s2.07-7.42,.2-12.51Z">
</path>
<path class="cls-4" d="M42.11,56.11s-1.05,3.25-6.3,3.25v16.1h2.52v-12.6s2.48-.44,3.85-2.02c0-2.73-.07-4.72-.07-4.72Z">
</path>
<path d="M34.49,51.45l-2.49-.05s-2.02-1.13-1.73-1.66c1.89-.79,2.84-1.09,2.84-1.09l3.5,.06,2.13,1.03s.43,.3-.35,.84-3.89,.87-3.89,.87Z">
</path>
<polygon class="cls-2" points="31.14 49.4 31.6 50.82 32.39 51.03 32.55 50.15 33.26 51.15 35.92 51.12 36.4 50.15 36.84 51.19 37.61 50.75 38.04 49.4 36.61 48.71 32.28 48.62 31.14 49.4">
</polygon>
<path class="cls-18" d="M30.13,49.73c.75,.44,1.54,1.07,2.33,1.25,0,0-.12-.03-.12-.03,1.29,.09,3.5-.02,4.33,.04,.78-.18,1.55-.8,2.3-1.22-.34,.99-.86,1.85-1.84,2.4-1.63,.48-3.36,.5-4.99,.04-1.07-.46-1.64-1.45-1.99-2.46h0Z">
</path>
<path class="cls-8" d="M36.64,28.78c-.57-.33-3.45-1.91-6-1.36-4.27,6.91-6.41,11.69-8.95,12.51s-9.46-.61-9.25-6.2c2.54,1.63,5.19-1.73,5.19-1.73,0,0-1.63-16.98,14.03-21.35,3.46-.31,5.8,6.91,5.8,6.91,0,0-.7,5.52-.71,11.16,0,.05-.05,.09-.1,.06Z">
</path>
<path class="cls-8" d="M37.51,17.73s4.29-1.75,8.59,3.98,1.01,20.17-.6,24.28c-.99,2.53-4.37,6.93-6.83,9.84-2.84,.78-6.35,.26-8.34,0-1.79-2.17-4.67-5.62-5.94-7.57-1.9-2.92-2.2-8.23-2.2-8.23">
</path>
<path class="cls-10" d="M17.63,31.99s1.65-8.34,5.32-11.25c4.64-1.04,11.95,3.53,13.79,8.1,0,0,2.25-2.18,4.93-1.97s5.68,5.57,6.27,7.55">
</path>
<path class="cls-9" d="M19.65,20.77s4.66-6.83,10.35-5.79c4.09,.93,6.41,6.36,6.83,8.69">
</path>
<path class="cls-8" d="M47.78,36.98l3.16-1.34c.64-.27,1.34,.21,1.32,.9-.07,1.92-.37,5.25-1.62,7.1-.44,.64-.84,1.17-1.19,1.61-.92,1.12-2.44,1.55-3.81,1.09h0">
</path>
<path class="cls-8" d="M16.61,39.42c.22,1.53,.63,3.13,1.37,4.22,.44,.64,.84,1.17,1.19,1.61,.92,1.12,2.44,1.55,3.81,1.09h0">
</path>
<path d="M39.91,50.42c-1.17-.45-2.41-1-3.63-1.21,0,0,.19,.02,.19,.02-.72,.14-1.44,.23-2.17,.21-.58-.06-1.15-.12-1.73-.28,0,0,.17-.02,.17-.02-1.22,.24-2.44,.81-3.61,1.28,.52-.41,1.04-.8,1.58-1.19,.62-.39,1.16-.93,1.92-1.1,.72-.09,1.54-.04,2.03-.05,0,0-.08,0-.08,0,.67-.04,1.34-.07,2.01,0,1.25,.62,2.24,1.5,3.33,2.34h0Z">
</path>
<path d="M35.75,38.47c.82,1.57,1.56,3.17,2.26,4.79-.07,.96-.66,1.78-1.32,2.37,0,0-.51,.45-.51,.45-.11-.26-.27-.92-.47-1.09-.07-.07-.17-.08-.16-.07-.45,.23-.87,.95-1.2,1.36-.32-.42-.72-1.09-1.17-1.35-.08-.03-.08-.02-.15,.02-.2,.11-.39,.77-.5,.99-.76-.71-1.56-1.55-1.63-2.69,.7-1.62,1.44-3.22,2.26-4.79-.43,1.69-.94,3.34-1.49,4.99,0,0,.02-.2,.02-.2,.13,.59,.5,1.11,.99,1.53l-.75,.18c.38-1.19,1.6-1.31,2.35-.38,.18,.19,.33,.38,.48,.57h-.81c.49-.76,1.58-1.73,2.43-.85,.27,.26,.38,.56,.46,.83l-.75-.22c.56-.44,.99-1.01,1.13-1.65,0,0,.02,.2,.02,.2-.55-1.65-1.06-3.3-1.49-4.99h0Z">
</path>
<path d="M24.16,43.06c1.25,.96,2.55,2.62,2.59,4.12-1.42-1.07-2.28-2.3-2.65-4.04-.02-.04,0-.12,.06-.08h0Z">
</path>
<path d="M44.6,43.14c-1.46,1.19-2.03,2.52-2.7,4.03-.87-1.8,.66-4.13,2.65-4.11,.05,0,.11,.04,.06,.08h0Z">
</path>
<path d="M36.34,36.13l-.54-1.38s1.42-.53,3.26-1.94,5.48,0,6.61,1.45c-2.3-1.06-3.89-2.01-5.9-.6s-3.43,2.47-3.43,2.47Z">
</path>
<path d="M37.39,37.86c1.55-2.91,4.8-4.7,6.85-1.17-2.67-2.83-4.66-1.09-6.85,1.17h0Z">
</path>
<path d="M37.08,38.85c2.44-1.82,5.96-2.83,8.72-1.08,0,0-.67,.47-.67,.47-1.96,1.47-4.7,1.91-6.96,.97,2.29,.17,4.55-.37,6.39-1.78,0,0,.06,.84,.06,.84-2.41-1.06-5.14-.19-7.53,.58h0Z">
</path>
<path d="M32.32,36.13l.54-1.38s-1.42-.53-3.26-1.94-5.48,0-6.61,1.45c2.3-1.06,3.89-2.01,5.9-.6s3.43,2.47,3.43,2.47Z">
</path>
<path d="M31.28,37.86c-2.2-2.26-4.19-4-6.85-1.17,.35-.63,.86-1.19,1.5-1.58,2.17-1.34,4.37,.96,5.35,2.74h0Z">
</path>
<path d="M31.58,38.85c-2.39-.76-5.13-1.64-7.53-.58,0,0,.06-.84,.06-.84,1.84,1.41,4.1,1.94,6.39,1.78-2.26,.93-5.01,.5-6.96-.97,0,0-.67-.47-.67-.47,2.75-1.75,6.28-.74,8.72,1.08h0Z">
</path>
<path class="cls-8" d="M26.67,51.35l.08,9.26-1.91,1.99s-1.45,5.59,.69,12.01">
</path>
<path class="cls-8" d="M25.6,50.12s-5.89,1.07-8.11,9.95c3.06,1.45,4.44,2.07,4.44,2.07l-3.37,2.45s2.53,7.5,5.36,9.87">
</path>
<path class="cls-8" d="M19.97,63.49s-4.5,.84-10.63,5.41">
</path>
<path class="cls-8" d="M42.02,51.81l-.08,8.8,1.91,1.99s1.45,5.59-.69,12.01">
</path>
<path class="cls-8" d="M43.09,50.12s5.89,1.07,8.11,9.95c-3.06,1.45-4.44,2.07-4.44,2.07l3.37,2.45s-2.53,7.5-5.36,9.87">
</path>
<path class="cls-8" d="M48.72,63.49s4.5,.84,10.63,5.41">
</path>
<path d="M40.07,69.55c-1.58,.82-3.22,1.51-4.88,2.13,0,0,.29-.31,.29-.31-.28,.9-.68,1.9-1.85,2.01-1.17-.11-1.57-1.1-1.85-2,0,0,.3,.31,.3,.31-1.66-.62-3.29-1.31-4.88-2.13,1.83,.32,3.62,.79,5.38,1.33,.13,.38,.3,.81,.53,1.12,.73,1.07,1.36-.47,1.58-1.12,1.77-.54,3.55-1.01,5.38-1.33h0Z">
</path>
</g>
<path class="cls-14" d="M24.46,51.12s-3.8,1.49-6.03,8.47">
</path>
<path class="cls-14" d="M19.47,64.47s-3.92,.58-7.7,4.07">
</path>
</g>
</g>
 <g
     id="g2850">
    <g
       id="g2837">
      <path
         id="path1951"
         d="M 0.056640625 0.04296875 L 0.056640625 79.943359 L 69.308594 79.943359 L 69.308594 0.04296875 L 0.056640625 0.04296875 z M 33.615234 3.5957031 C 34.206332 3.5957038 34.786991 3.6051034 35.421875 3.6152344 C 44.430653 3.7671809 53.471255 5.1336733 61.560547 7.5546875 L 62.064453 7.7070312 L 62.25 8.1640625 C 66.070247 17.605006 66.990234 28.726438 66.990234 40.0625 C 66.990234 51.398562 65.972723 63.025755 61.988281 72.578125 L 61.791016 73.044922 L 61.275391 73.185547 C 53.273669 75.403966 44.691921 76.529297 35.759766 76.529297 C 35.212453 76.529297 34.675812 76.519896 34.150391 76.509766 L 33.943359 76.509766 C 24.901742 76.357819 15.860367 74.989738 7.7929688 72.558594 L 7.2890625 72.40625 L 7.1035156 71.951172 C 3.2942144 62.520359 2.375 51.369168 2.375 40.0625 C 2.375 28.755832 3.3819737 17.127318 7.3554688 7.5546875 L 7.5527344 7.0898438 L 8.0664062 6.9472656 C 15.509867 4.890923 23.785212 3.7371557 32.005859 3.6054688 C 32.542226 3.5953387 33.078867 3.5957031 33.615234 3.5957031 z "
         style="opacity:1;vector-effect:none;fill:#ffffff;fill-opacity:1;fill-rule:nonzero;stroke:none;stroke-width:1.95200002;stroke-linecap:butt;stroke-linejoin:miter;stroke-miterlimit:4;stroke-dasharray:none;stroke-dashoffset:0;stroke-opacity:1" />
    </g>
    <path
       id="path1154-8-2"
       d="m 33.675163,6.6112954 c 0.557696,0 1.115392,0.00956 1.683415,0.019115 8.427403,0.14336 16.803167,1.4049288 24.363042,3.6700176 3.573384,8.830981 4.443772,19.417362 4.443772,29.761551 0,10.344189 -0.95301,21.39888 -4.68131,30.334991 -7.435942,2.064385 -15.429581,3.274388 -23.774362,3.274388 -0.506058,0 -1.012115,-0.0096 -1.518172,-0.01911 h -0.17557 C 25.56792,73.508883 17.192156,72.088619 9.6426089,69.813973 6.0795528,61.002107 5.2088244,50.415411 5.2088244,40.061979 c 0,-10.353432 0.95335,-21.389323 4.6609939,-30.325434 C 16.820359,7.8155201 24.462856,6.7450981 32.177647,6.6208528 c 0.49573,-0.00956 1.001787,-0.00956 1.497516,-0.00956 m 0,-0.9557337 c -0.506057,0 -1.012114,0 -1.518171,0.00956 C 24.40089,5.7893644 16.593149,6.8789009 9.570315,8.8190405 L 9.0849131,8.9528432 8.8990146,9.3924808 C 5.1500599,18.424166 4.1999116,29.394246 4.1999116,40.061979 c 0,10.667733 0.8675267,21.188618 4.461566,30.0865 l 0.1755708,0.430081 0.4750741,0.14336 c 7.6115135,2.293761 16.1421925,3.584001 24.6728715,3.727361 h 0.196227 c 0.495729,0.0096 1.001786,0.01911 1.518171,0.01911 8.427403,0 16.524318,-1.060864 24.073866,-3.153921 l 0.485403,-0.133802 0.185898,-0.439639 c 3.759282,-9.01257 4.719759,-19.983589 4.719759,-30.679055 0,-10.695466 -0.867528,-21.188618 -4.471894,-30.0960578 L 60.516853,9.5358409 60.041779,9.3924808 C 52.409609,7.108277 43.87893,5.8180364 35.379234,5.6746763 34.780227,5.6651187 34.232859,5.6555621 33.675163,5.6555615 Z"
       style="fill:#ff0000;stroke:#ffffff;stroke-width:1.84341729;stroke-miterlimit:4;stroke-dasharray:none" />
    <path
       id="path1154"
       d="m 33.614853,4.6077955 c 0.591098,0 1.182197,0.01013 1.784241,0.02026 8.932155,0.1519464 17.809578,1.4890758 25.822246,3.8898304 3.787408,9.3599041 4.709928,20.5803481 4.709928,31.5440931 0,10.963745 -1.01009,22.680548 -4.961693,32.151879 -7.881312,2.18803 -16.353723,3.302304 -25.198307,3.302304 -0.536368,0 -1.072735,-0.01013 -1.609102,-0.02026 H 33.97608 C 25.022033,75.343956 16.14461,74.006827 8.1428892,71.595943 4.3664269,62.256298 3.443547,51.035521 3.443547,40.061979 c 0,-10.973542 1.01045,-22.670418 4.9401601,-32.1417498 7.3668369,-2.036083 15.4670749,-3.170617 23.6439369,-3.3023039 0.525421,-0.01013 1.061788,-0.01013 1.587209,-0.01013 m 0,-1.0129766 c -0.536367,0 -1.072734,0 -1.609101,0.01013 C 23.785105,3.7366356 15.509726,4.891429 8.0662653,6.9477716 L 7.5517907,7.0895883 7.3547579,7.5555576 C 3.3812628,17.128188 2.3742062,28.755311 2.3742062,40.061979 c 0,11.306668 0.9194864,22.457692 4.7287876,31.888505 l 0.1860865,0.45584 0.5035283,0.151947 c 8.0673984,2.431144 17.1090154,3.798662 26.1506324,3.950608 h 0.207979 c 0.525421,0.01013 1.061788,0.02026 1.609101,0.02026 8.932155,0 17.514028,-1.124404 25.51575,-3.342823 l 0.514475,-0.141816 0.197032,-0.46597 c 3.984442,-9.55237 5.002445,-21.180489 5.002445,-32.516551 0,-11.336062 -0.919487,-22.457692 -4.739734,-31.8986353 L 62.064202,7.7075041 61.560674,7.5555576 C 53.471382,5.1345434 44.429765,3.7670249 35.420987,3.6150784 c -0.634884,-0.01013 -1.215036,-0.020259 -1.806134,-0.02026 z"
       style="fill:#000000;stroke:#000000;stroke-width:1.95382714;stroke-miterlimit:4;stroke-dasharray:none" />
    <g
       id="g1810">
      <path
         d="M 6.5134911,7.7433673 C 5.6489029,6.8479453 4.058602,6.5681013 3.6272194,7.3820013 3.284151,8.0292783 3.3625296,8.5309135 4.395235,8.9201755 3.2963719,9.5187755 1.4857674,9.4447465 1.1893447,7.4467713 0.95320848,5.8551433 2.674739,4.8863543 3.1399725,5.0916244 3.0034432,3.6818714 1.8221094,4.0692802 0.95849208,3.2813384 0.34259068,2.7194046 0.23126071,-0.02624603 0.0561761,0.04378767 -0.0138576,0.21887227 2.7317937,0.33020157 3.2937267,0.94610377 4.0816685,1.8097211 3.6942598,2.9910547 5.1040128,3.1275841 4.8987425,2.6623507 5.8675315,0.94082017 7.4591593,1.1769564 9.4571345,1.4733791 9.5311625,3.2839847 8.9325635,4.3828467 8.5433008,3.3501417 8.041666,3.2717627 7.3943894,3.6148312 6.5804899,4.0462137 6.8603354,5.6365129 7.7557553,6.5011023"
         style="fill:#000000;stroke:#000000;stroke-width:0.1112323px;stroke-linecap:butt;stroke-linejoin:miter;stroke-opacity:1"
         id="path1737-3" />
      <path
         d="m 62.850738,7.7433673 c 0.864588,-0.895422 2.454889,-1.175266 2.886271,-0.361366 0.343069,0.647277 0.26469,1.148912 -0.768015,1.538174 1.098863,0.5986 2.909467,0.524571 3.20589,-1.473404 0.236136,-1.591628 -1.485394,-2.560417 -1.950628,-2.3551469 0.13653,-1.409753 1.317863,-1.0223442 2.181481,-1.810286 0.615901,-0.5619338 0.727231,-3.30758442 0.902316,-3.23755072 0.07003,0.1750846 -2.675618,0.2864139 -3.237551,0.9023161 C 65.28256,1.8097211 65.669969,2.9910547 64.260216,3.1275841 64.465486,2.6623507 63.496697,0.94082018 61.905069,1.1769564 c -1.997975,0.2964227 -2.072003,2.1070283 -1.473404,3.2058903 0.389263,-1.032705 0.890898,-1.111084 1.538174,-0.7680155 0.8139,0.4313825 0.534054,2.0216817 -0.361366,2.8862711"
         style="fill:#000000;stroke:#000000;stroke-width:0.1112323px;stroke-linecap:butt;stroke-linejoin:miter;stroke-opacity:1"
         id="path1737-3-5" />
      <path
         d="m 62.850738,72.244244 c 0.864588,0.895422 2.454889,1.175266 2.886272,0.361366 0.343068,-0.647277 0.264689,-1.148912 -0.768016,-1.538174 1.098863,-0.5986 2.909468,-0.524571 3.20589,1.473404 0.236137,1.591628 -1.485394,2.560417 -1.950628,2.355147 0.13653,1.409753 1.317864,1.022344 2.181481,1.810286 0.615901,0.561934 0.727231,3.307584 0.902316,3.237551 0.07003,-0.175085 -2.675618,-0.286414 -3.237551,-0.902317 -0.787942,-0.863617 -0.400533,-2.04495 -1.810286,-2.18148 0.20527,0.465234 -0.763519,2.186764 -2.355146,1.950628 -1.997976,-0.296423 -2.072004,-2.107028 -1.473405,-3.20589 0.389263,1.032705 0.890898,1.111084 1.538175,0.768015 0.813899,-0.431382 0.534054,-2.021682 -0.361366,-2.886271"
         style="fill:#000000;stroke:#000000;stroke-width:0.1112323px;stroke-linecap:butt;stroke-linejoin:miter;stroke-opacity:1"
         id="path1737-3-7" />
      <path
         d="M 6.513491,72.244245 C 5.648903,73.139667 4.058602,73.419511 3.62722,72.605611 3.284151,71.958334 3.36253,71.456699 4.395235,71.067437 c -1.098863,-0.5986 -2.909467,-0.524571 -3.20589,1.473404 -0.23613599,1.591628 1.485394,2.560417 1.950628,2.355147 -0.13653,1.409753 -1.317863,1.022344 -2.18148099,1.810286 -0.615901,0.561933 -0.727231,3.307584 -0.902316,3.23755 C -0.01385399,79.76874 2.731794,79.65741 3.293727,79.041508 4.081669,78.177891 3.69426,76.996557 5.104013,76.860028 4.898743,77.325261 5.867532,79.046792 7.45916,78.810656 9.457135,78.514233 9.531163,76.703627 8.932564,75.604765 8.543301,76.63747 8.041666,76.715849 7.39439,76.372781 6.58049,75.941398 6.860336,74.351099 7.755756,73.48651"
         style="fill:#000000;stroke:#000000;stroke-width:0.1112323px;stroke-linecap:butt;stroke-linejoin:miter;stroke-opacity:1"
         id="path1737-3-5-5" />
    </g>
    <path
       id="path1154-9"
       d="m 33.712865,7.4258691 c 0.536813,0 1.07363,0.00933 1.620386,0.01865 8.111875,0.1398689 16.174044,1.3707167 23.450873,3.5806479 3.439594,8.615932 4.277395,18.944521 4.277395,29.036812 0,10.092292 -0.917329,20.877786 -4.506039,29.596289 -7.157536,2.014114 -14.851888,3.03982 -22.884234,3.03982 -0.487111,0 -0.974221,-0.0094 -1.461331,-0.01865 H 34.040918 C 25.909161,72.53957 17.846991,71.308722 10.580105,69.089467 7.1504515,60.492184 6.3123238,50.163289 6.3123238,40.061979 c 0,-10.101311 0.9176558,-20.868461 4.4864832,-29.586965 6.690308,-1.8742449 14.046665,-2.9186005 21.472608,-3.0398203 0.47717,-0.00933 0.964281,-0.00933 1.44145,-0.00933 m 0,-0.9324602 c -0.487111,0 -0.974221,0 -1.46133,0.00933 C 24.785826,6.6239532 17.270413,7.686958 10.510517,9.5798526 L 10.043289,9.710397 9.8643508,10.139328 c -3.6085914,8.811751 -4.5231655,19.514693 -4.5231655,29.922651 0,10.407958 0.8350459,20.672644 4.294522,29.353849 l 0.1689973,0.419608 0.4572874,0.13987 c 7.326533,2.237904 15.537818,3.496724 23.749103,3.636593 h 0.188879 c 0.47717,0.0094 0.96428,0.01865 1.461331,0.01865 8.111875,0 15.905636,-1.035031 23.172525,-3.077119 l 0.467228,-0.130544 0.178938,-0.428932 c 3.618533,-8.793101 4.543048,-19.496959 4.543048,-29.931975 0,-10.435016 -0.835047,-20.672644 -4.304463,-29.363174 l -0.168997,-0.419609 -0.457288,-0.13987 C 51.74588,7.9107484 43.534594,6.6519271 35.353133,6.512058 34.776554,6.502738 34.249678,6.493409 33.712865,6.493409 Z"
       style="fill:#000000;stroke:none;stroke-width:1.78642213;stroke-miterlimit:4;stroke-dasharray:none" />
    <path
       id="path1154-9-3"
       d="m 33.712865,7.4258686 c 0.536813,0 1.07363,0.00933 1.620386,0.01865 8.111875,0.1398689 16.174044,1.3707167 23.450873,3.5806484 3.439594,8.615932 4.277395,18.944521 4.277395,29.036812 0,10.092292 -0.917329,20.877786 -4.506039,29.596288 -7.157536,2.014114 -14.851888,3.03982 -22.884234,3.03982 -0.487111,0 -0.974221,-0.0094 -1.461331,-0.01865 H 34.040918 C 25.909161,72.539569 17.846991,71.308722 10.580105,69.089466 7.1504515,60.492184 6.3123238,50.163288 6.3123238,40.061979 c 0,-10.101312 0.9176558,-20.868461 4.4864832,-29.586965 6.690308,-1.8742454 14.046665,-2.918601 21.472608,-3.0398208 0.47717,-0.00933 0.964281,-0.00933 1.44145,-0.00933 m 0,-0.9324602 c -0.487111,0 -0.974221,0 -1.46133,0.00933 C 24.785826,6.6239527 17.270413,7.6869575 10.510517,9.5798521 L 10.043289,9.7103965 9.8643508,10.139328 C 6.2557594,18.951079 5.3411853,29.65402 5.3411853,40.061979 c 0,10.407958 0.8350459,20.672643 4.294522,29.353849 l 0.1689973,0.419608 0.4572874,0.13987 c 7.326533,2.237904 15.537818,3.496724 23.749103,3.636593 h 0.188879 c 0.47717,0.0094 0.96428,0.01865 1.461331,0.01865 8.111875,0 15.905636,-1.035032 23.172525,-3.077119 l 0.467228,-0.130544 0.178938,-0.428932 c 3.618533,-8.793101 4.543048,-19.49696 4.543048,-29.931975 0,-10.435016 -0.835047,-20.672644 -4.304463,-29.363175 l -0.168997,-0.419609 -0.457288,-0.13987 C 51.74588,7.9107479 43.534594,6.6519266 35.353133,6.5120575 34.776554,6.5027375 34.249678,6.4934085 33.712865,6.4934085 Z"
       style="fill:#000000;stroke:none;stroke-width:1.78642213;stroke-miterlimit:4;stroke-dasharray:none" />
  </g>
</svg>
