<?xml version="1.0" encoding="UTF-8" standalone="no"?>
<svg
   xmlns:dc="http://purl.org/dc/elements/1.1/"
   xmlns:cc="http://creativecommons.org/ns#"
   xmlns:rdf="http://www.w3.org/1999/02/22-rdf-syntax-ns#"
   xmlns:svg="http://www.w3.org/2000/svg"
   xmlns="http://www.w3.org/2000/svg"
   xmlns:sodipodi="http://sodipodi.sourceforge.net/DTD/sodipodi-0.dtd"
   xmlns:inkscape="http://www.inkscape.org/namespaces/inkscape"
   id="Capa_2"
   viewBox="0 0 69.02 80"
   version="1.1"
   sodipodi:docname="28w.svg"
   inkscape:version="0.92.3 (2405546, 2018-03-11)">
  <metadata
     id="metadata295">
    <rdf:RDF>
      <cc:Work
         rdf:about="">
        <dc:format>image/svg+xml</dc:format>
        <dc:type
           rdf:resource="http://purl.org/dc/dcmitype/StillImage" />
      </cc:Work>
    </rdf:RDF>
  </metadata>
  <sodipodi:namedview
     pagecolor="#ffffff"
     bordercolor="#666666"
     borderopacity="1"
     objecttolerance="10"
     gridtolerance="10"
     guidetolerance="10"
     inkscape:pageopacity="0"
     inkscape:pageshadow="2"
     inkscape:window-width="1124"
     inkscape:window-height="764"
     id="namedview293"
     showgrid="false"
     inkscape:zoom="3.5549805"
     inkscape:cx="1.0486231"
     inkscape:cy="24.139889"
     inkscape:window-x="647"
     inkscape:window-y="112"
     inkscape:window-maximized="0"
     inkscape:current-layer="Capa_2" />
  <defs
     id="defs195">
    <style
       id="style2">
.cls-1{fill:#fff;}.cls-2{fill:#f8ffbf;}.cls-3{fill:#7b7be8;}.cls-4{fill:#a88347;}.cls-5{fill:#782ab5;}.cls-6,.cls-7,.cls-8,.cls-9,.cls-10{stroke:#000;stroke-miterlimit:10;}.cls-6,.cls-7,.cls-11,.cls-9,.cls-10,.cls-12,.cls-13{fill:none;}.cls-7{stroke-width:1.01px;}.cls-7,.cls-8,.cls-11,.cls-9{stroke-linecap:round;}.cls-8{fill:#b83521;}.cls-8,.cls-9{stroke-width:1.1px;}.cls-11{stroke:#deb778;stroke-dasharray:0 0 0 4.06;stroke-linejoin:round;}.cls-14{fill:#deb778;}.cls-10{stroke-width:1.09px;}.cls-15{fill:url(#USGS_19_Inundación_de_tierra_2);}.cls-13{stroke:#1d1d1b;stroke-dasharray:0 0 2 2;stroke-width:.3px;}.cls-16{fill:#ddb3f5;}.cls-17{fill:#fcf0c5;}
</style>
    <pattern
       id="USGS_19_Inundación_de_tierra_2"
       x="0"
       y="0"
       width="72"
       height="72"
       patternTransform="translate(-236.48 -16063) rotate(-90)"
       patternUnits="userSpaceOnUse"
       viewBox="0 0 72 72">
      <g
         id="g192">
        <rect
           class="cls-12"
           width="72"
           height="72"
           id="rect4" />
        <g
           id="g42">
          <line
             class="cls-13"
             x1="71"
             y1="71"
             x2="144.44"
             y2="71"
             id="line6" />
          <line
             class="cls-13"
             x1="71"
             y1="67"
             x2="144.44"
             y2="67"
             id="line8" />
          <line
             class="cls-13"
             x1="71"
             y1="63"
             x2="144.44"
             y2="63"
             id="line10" />
          <line
             class="cls-13"
             x1="71"
             y1="59"
             x2="144.44"
             y2="59"
             id="line12" />
          <line
             class="cls-13"
             x1="71"
             y1="55"
             x2="144.44"
             y2="55"
             id="line14" />
          <line
             class="cls-13"
             x1="71"
             y1="51"
             x2="144.44"
             y2="51"
             id="line16" />
          <line
             class="cls-13"
             x1="71"
             y1="47"
             x2="144.44"
             y2="47"
             id="line18" />
          <line
             class="cls-13"
             x1="71"
             y1="43"
             x2="144.44"
             y2="43"
             id="line20" />
          <line
             class="cls-13"
             x1="71"
             y1="39"
             x2="144.44"
             y2="39"
             id="line22" />
          <line
             class="cls-13"
             x1="71"
             y1="35"
             x2="144.44"
             y2="35"
             id="line24" />
          <line
             class="cls-13"
             x1="71"
             y1="31"
             x2="144.44"
             y2="31"
             id="line26" />
          <line
             class="cls-13"
             x1="71"
             y1="27"
             x2="144.44"
             y2="27"
             id="line28" />
          <line
             class="cls-13"
             x1="71"
             y1="23"
             x2="144.44"
             y2="23"
             id="line30" />
          <line
             class="cls-13"
             x1="71"
             y1="19"
             x2="144.44"
             y2="19"
             id="line32" />
          <line
             class="cls-13"
             x1="71"
             y1="15"
             x2="144.44"
             y2="15"
             id="line34" />
          <line
             class="cls-13"
             x1="71"
             y1="11"
             x2="144.44"
             y2="11"
             id="line36" />
          <line
             class="cls-13"
             x1="71"
             y1="7"
             x2="144.44"
             y2="7"
             id="line38" />
          <line
             class="cls-13"
             x1="71"
             y1="3"
             x2="144.44"
             y2="3"
             id="line40" />
        </g>
        <g
           id="g116">
          <line
             class="cls-13"
             x1="-1"
             y1="71"
             x2="72.44"
             y2="71"
             id="line44" />
          <line
             class="cls-13"
             x1="-1"
             y1="67"
             x2="72.44"
             y2="67"
             id="line46" />
          <line
             class="cls-13"
             x1="-1"
             y1="63"
             x2="72.44"
             y2="63"
             id="line48" />
          <line
             class="cls-13"
             x1="-1"
             y1="59"
             x2="72.44"
             y2="59"
             id="line50" />
          <line
             class="cls-13"
             x1="-1"
             y1="55"
             x2="72.44"
             y2="55"
             id="line52" />
          <line
             class="cls-13"
             x1="-1"
             y1="51"
             x2="72.44"
             y2="51"
             id="line54" />
          <line
             class="cls-13"
             x1="-1"
             y1="47"
             x2="72.44"
             y2="47"
             id="line56" />
          <line
             class="cls-13"
             x1="-1"
             y1="43"
             x2="72.44"
             y2="43"
             id="line58" />
          <line
             class="cls-13"
             x1="-1"
             y1="39"
             x2="72.44"
             y2="39"
             id="line60" />
          <line
             class="cls-13"
             x1="-1"
             y1="35"
             x2="72.44"
             y2="35"
             id="line62" />
          <line
             class="cls-13"
             x1="-1"
             y1="31"
             x2="72.44"
             y2="31"
             id="line64" />
          <line
             class="cls-13"
             x1="-1"
             y1="27"
             x2="72.44"
             y2="27"
             id="line66" />
          <line
             class="cls-13"
             x1="-1"
             y1="23"
             x2="72.44"
             y2="23"
             id="line68" />
          <line
             class="cls-13"
             x1="-1"
             y1="19"
             x2="72.44"
             y2="19"
             id="line70" />
          <line
             class="cls-13"
             x1="-1"
             y1="15"
             x2="72.44"
             y2="15"
             id="line72" />
          <line
             class="cls-13"
             x1="-1"
             y1="11"
             x2="72.44"
             y2="11"
             id="line74" />
          <line
             class="cls-13"
             x1="-1"
             y1="7"
             x2="72.44"
             y2="7"
             id="line76" />
          <line
             class="cls-13"
             x1="-1"
             y1="3"
             x2="72.44"
             y2="3"
             id="line78" />
          <line
             class="cls-13"
             x1="1.04"
             y1="69"
             x2="74.48"
             y2="69"
             id="line80" />
          <line
             class="cls-13"
             x1="1.04"
             y1="65"
             x2="74.48"
             y2="65"
             id="line82" />
          <line
             class="cls-13"
             x1="1.04"
             y1="61"
             x2="74.48"
             y2="61"
             id="line84" />
          <line
             class="cls-13"
             x1="1.04"
             y1="57"
             x2="74.48"
             y2="57"
             id="line86" />
          <line
             class="cls-13"
             x1="1.04"
             y1="53"
             x2="74.48"
             y2="53"
             id="line88" />
          <line
             class="cls-13"
             x1="1.04"
             y1="49"
             x2="74.48"
             y2="49"
             id="line90" />
          <line
             class="cls-13"
             x1="1.04"
             y1="45"
             x2="74.48"
             y2="45"
             id="line92" />
          <line
             class="cls-13"
             x1="1.04"
             y1="41"
             x2="74.48"
             y2="41"
             id="line94" />
          <line
             class="cls-13"
             x1="1.04"
             y1="37"
             x2="74.48"
             y2="37"
             id="line96" />
          <line
             class="cls-13"
             x1="1.04"
             y1="33"
             x2="74.48"
             y2="33"
             id="line98" />
          <line
             class="cls-13"
             x1="1.04"
             y1="29"
             x2="74.48"
             y2="29"
             id="line100" />
          <line
             class="cls-13"
             x1="1.04"
             y1="25"
             x2="74.48"
             y2="25"
             id="line102" />
          <line
             class="cls-13"
             x1="1.04"
             y1="21"
             x2="74.48"
             y2="21"
             id="line104" />
          <line
             class="cls-13"
             x1="1.04"
             y1="17"
             x2="74.48"
             y2="17"
             id="line106" />
          <line
             class="cls-13"
             x1="1.04"
             y1="13"
             x2="74.48"
             y2="13"
             id="line108" />
          <line
             class="cls-13"
             x1="1.04"
             y1="9"
             x2="74.48"
             y2="9"
             id="line110" />
          <line
             class="cls-13"
             x1="1.04"
             y1="5"
             x2="74.48"
             y2="5"
             id="line112" />
          <line
             class="cls-13"
             x1="1.04"
             y1="1"
             x2="74.48"
             y2="1"
             id="line114" />
        </g>
        <g
           id="g190">
          <line
             class="cls-13"
             x1="-73"
             y1="71"
             x2=".44"
             y2="71"
             id="line118" />
          <line
             class="cls-13"
             x1="-73"
             y1="67"
             x2=".44"
             y2="67"
             id="line120" />
          <line
             class="cls-13"
             x1="-73"
             y1="63"
             x2=".44"
             y2="63"
             id="line122" />
          <line
             class="cls-13"
             x1="-73"
             y1="59"
             x2=".44"
             y2="59"
             id="line124" />
          <line
             class="cls-13"
             x1="-73"
             y1="55"
             x2=".44"
             y2="55"
             id="line126" />
          <line
             class="cls-13"
             x1="-73"
             y1="51"
             x2=".44"
             y2="51"
             id="line128" />
          <line
             class="cls-13"
             x1="-73"
             y1="47"
             x2=".44"
             y2="47"
             id="line130" />
          <line
             class="cls-13"
             x1="-73"
             y1="43"
             x2=".44"
             y2="43"
             id="line132" />
          <line
             class="cls-13"
             x1="-73"
             y1="39"
             x2=".44"
             y2="39"
             id="line134" />
          <line
             class="cls-13"
             x1="-73"
             y1="35"
             x2=".44"
             y2="35"
             id="line136" />
          <line
             class="cls-13"
             x1="-73"
             y1="31"
             x2=".44"
             y2="31"
             id="line138" />
          <line
             class="cls-13"
             x1="-73"
             y1="27"
             x2=".44"
             y2="27"
             id="line140" />
          <line
             class="cls-13"
             x1="-73"
             y1="23"
             x2=".44"
             y2="23"
             id="line142" />
          <line
             class="cls-13"
             x1="-73"
             y1="19"
             x2=".44"
             y2="19"
             id="line144" />
          <line
             class="cls-13"
             x1="-73"
             y1="15"
             x2=".44"
             y2="15"
             id="line146" />
          <line
             class="cls-13"
             x1="-73"
             y1="11"
             x2=".44"
             y2="11"
             id="line148" />
          <line
             class="cls-13"
             x1="-73"
             y1="7"
             x2=".44"
             y2="7"
             id="line150" />
          <line
             class="cls-13"
             x1="-73"
             y1="3"
             x2=".44"
             y2="3"
             id="line152" />
          <line
             class="cls-13"
             x1="-70.96"
             y1="69"
             x2="2.48"
             y2="69"
             id="line154" />
          <line
             class="cls-13"
             x1="-70.96"
             y1="65"
             x2="2.48"
             y2="65"
             id="line156" />
          <line
             class="cls-13"
             x1="-70.96"
             y1="61"
             x2="2.48"
             y2="61"
             id="line158" />
          <line
             class="cls-13"
             x1="-70.96"
             y1="57"
             x2="2.48"
             y2="57"
             id="line160" />
          <line
             class="cls-13"
             x1="-70.96"
             y1="53"
             x2="2.48"
             y2="53"
             id="line162" />
          <line
             class="cls-13"
             x1="-70.96"
             y1="49"
             x2="2.48"
             y2="49"
             id="line164" />
          <line
             class="cls-13"
             x1="-70.96"
             y1="45"
             x2="2.48"
             y2="45"
             id="line166" />
          <line
             class="cls-13"
             x1="-70.96"
             y1="41"
             x2="2.48"
             y2="41"
             id="line168" />
          <line
             class="cls-13"
             x1="-70.96"
             y1="37"
             x2="2.48"
             y2="37"
             id="line170" />
          <line
             class="cls-13"
             x1="-70.96"
             y1="33"
             x2="2.48"
             y2="33"
             id="line172" />
          <line
             class="cls-13"
             x1="-70.96"
             y1="29"
             x2="2.48"
             y2="29"
             id="line174" />
          <line
             class="cls-13"
             x1="-70.96"
             y1="25"
             x2="2.48"
             y2="25"
             id="line176" />
          <line
             class="cls-13"
             x1="-70.96"
             y1="21"
             x2="2.48"
             y2="21"
             id="line178" />
          <line
             class="cls-13"
             x1="-70.96"
             y1="17"
             x2="2.48"
             y2="17"
             id="line180" />
          <line
             class="cls-13"
             x1="-70.96"
             y1="13"
             x2="2.48"
             y2="13"
             id="line182" />
          <line
             class="cls-13"
             x1="-70.96"
             y1="9"
             x2="2.48"
             y2="9"
             id="line184" />
          <line
             class="cls-13"
             x1="-70.96"
             y1="5"
             x2="2.48"
             y2="5"
             id="line186" />
          <line
             class="cls-13"
             x1="-70.96"
             y1="1"
             x2="2.48"
             y2="1"
             id="line188" />
        </g>
      </g>
    </pattern>
  </defs>
  <path
     id="path7641-4"
     style="fill:#782ab5;fill-opacity:1;stroke:#4d4d4d;stroke-width:1.62226;stop-color:#000000"
     d="M 34.900259,1.6936052 C 14.323312,9.5265586 1.6299002,23.954051 1.5689773,39.580572 V 79.197446 H 67.963672 V 39.580572 C 67.958188,23.990066 55.374427,9.5708664 34.900259,1.6936052 Z" />
  <path
     id="path7641-7"
     style="fill:#808080;stroke:#4d4d4d;stroke-width:1.48325;stop-color:#000000"
     d="M 34.629293,5.0425238 C 15.815619,12.204258 4.1542243,25.395327 4.1542243,39.682894 V 76.559207 H 64.859448 V 39.682894 c 0,-14.254531 -11.510452,-27.438125 -30.230155,-34.6403702 z m -0.01233,3.4358455 C 51.537073,14.988239 61.941622,26.904418 61.941622,39.788613 v 33.82806 H 7.07205 v -33.82806 c 0,-12.914055 10.539857,-24.836991 27.544909,-31.3102437 z" />
  <path
     id="path7641-7-8"
     style="fill:#808080;stroke:#4d4d4d;stroke-width:1.35027;stop-color:#000000"
     d="M 34.618314,8.2461803 C 17.491429,14.76581 6.8755673,26.7742 6.8755673,39.780777 v 33.57007 H 62.138105 v -33.57007 c 0,-12.976504 -10.478452,-24.978088 -27.519791,-31.5345967 z m -0.01123,3.1277957 c 15.403093,5.926211 24.874795,16.774013 24.874795,28.503041 V 70.672134 H 9.5317874 V 39.877017 c 0,-11.75621 9.5948786,-22.610165 25.0752986,-28.503041 z" />
  <path
     id="path7641-7-8-0"
     style="fill:#808080;stroke:#4d4d4d;stroke-width:1.21411;stop-color:#000000"
     d="M 34.607073,11.526302 C 19.207238,17.388502 9.6618637,28.185984 9.6618637,39.880997 V 70.06591 H 59.351809 V 39.880997 c 0,-11.667973 -9.421821,-22.459335 -24.744736,-28.354695 z m -0.0101,2.812393 c 13.849868,5.328621 22.366458,15.082547 22.366458,25.628837 V 67.657315 H 12.050234 V 39.967532 c 0,-10.570731 8.627346,-20.33019 22.546743,-25.628837 z" />
  <g
     id="Characters">
    <g
       id="g281">
      <path
         class="cls-3"
         d="m 46.64,49.88 c -0.85,1.33 -3.51,4.84 -3.51,4.84 0,0 0,2.66 0.12,5.32 0.24,2.05 3.99,3.63 3.99,3.63 l 13.79,4.11 -0.73,5.92 c 0,0 -11,3.39 -23.82,3.63 C 23.66,77.57 9.52,73.82 9.52,73.82 L 9.4,68.02 c 0,0 11.36,-3.63 14.26,-4.72 2.91,-1.08 2.79,-2.66 2.79,-2.66 L 26.2,53.75 c 0,0 -0.72,-0.72 -2.66,-3.87 -0.1,0 -0.21,0 -0.31,-0.02 C 10.27,49.45 4.92,37.43 4.92,37.43 c 0,0 4.7178532,-10.15826 9.557853,-23.57826 18.5,-11.0000003 37.300691,1.681659 37.300691,1.681659 0,0 16.621456,16.096601 12.391456,23.226601 -4.23,7.13 -8.58,9.67 -17.52,11.12 z"
         id="path201"
         inkscape:connector-curvature="0"
         style="fill:#7b7be8"
         sodipodi:nodetypes="ccccccsccccccccccscc" />
      <path
         d="m 64.17,38.76 c -4.23,7.13 -8.58,9.67 -17.52,11.12 0.46,-1.47 1.65,-5.24 1.97,-5.78 3.26,1.08 5.16,-5.29 4.88,-10.44 -2.57,5.02 -3.79,5.15 -3.79,5.15 0,0 1.08,-10.3 -1.36,-13.69 C 45.91,21.73 39,18.61 30.19,20.78 21.38,22.95 19.34,26.21 20.7,39.22 17.72,36.78 16.9,33.8 16.9,33.8 c 0,0 -0.68,4.61 0.82,8.13 1.49,2.71 3.66,2.58 3.66,2.58 0,0 1.04,3.05 1.85,5.35 C 10.27,49.45 4.92,37.43 4.92,37.43 c 0,0 2.7032886,-8.170712 4.6612767,-19.131138 0.5464823,-3.059101 4.8250093,-3.065965 5.8811103,-5.994248 3.831596,-2.278246 6.63387,-6.0402549 11.345262,-6.782083 18.036507,-2.8399222 28.065146,8.323095 28.065146,8.323095 0,0 13.527205,17.784374 9.297205,24.914374 z"
         id="path203"
         inkscape:connector-curvature="0"
         sodipodi:nodetypes="sccccssccccccscscs" />
      <path
         class="cls-16"
         d="M34.84,59.17V29.31c0-6.92,8.89-10.27,13.1-4.77,.14,.19,.28,.38,.41,.59,2.85,5.72,.56,18.32-1.53,24.16s-9.17,9.9-11.98,9.9Z"
         id="path205" />
      <path
         class="cls-3"
         d="M37.6,34.38l1.55,5.65s3.16-2.36,6.87-.4c1.35-2.63,1.95-5.25,1.95-5.25,0,0-1.41-2.22-4.11-1.68s-6.26,1.68-6.26,1.68Z"
         id="path207" />
      <path
         class="cls-2"
         d="M30.92,40.04s-2.95-2.54-6.66-.46c2.19,1.57,4.35,1.7,6.66,.46Z"
         id="path209" />
      <path
         class="cls-2"
         d="M39.17,40.04s2.95-2.54,6.66-.46c-2.19,1.57-4.35,1.7-6.66,.46Z"
         id="path211" />
      <path
         class="cls-1"
         d="M30.84,51.16l2.64-1.56h3.48l1.44,1.56s-1.32,2.16-3.96,2.4-3.6-2.4-3.6-2.4Z"
         id="path213" />
      <path
         class="cls-16"
         d="M24.58,42.28s3.18,.99,5.56-.1c-1.86,4.79-4.66,3.92-5.56,.1Z"
         id="path215" />
      <path
         class="cls-16"
         d="M41.47,57.66l-11.78,13.17s9.32,3.11,18.96-5.25c-6.96-.86-7.39-4.28-7.18-7.93Z"
         id="path217" />
      <path
         d="M39.97,57.45l-16.92,16.28-12.32-2.57-1.07-3.64,12.85-3.96s3.8-.37,3.94-2.92,.35-6.4,.35-6.4c0,0,4.28,3.75,6.21,4.18s4.61-.11,4.61-.11l2.36-.86Z"
         id="path219" />
      <path
         class="cls-1"
         d="M50.66,64.67l3.14,1.05-5.85,7.84s-15.37,3.45-26.13-.21c2.4-2.09,3.66-2.61,3.66-2.61,0,0,5.02,2.82,11.71,1.88s11.71-3.76,13.48-7.94Z"
         id="path221" />
      <path
         class="cls-1"
         d="M24.17,56.45s-2.57-3.96-4.33-4.7c-3.6,2.86-4.33,4.7-4.33,4.7,0,0,2.79,4.18,4.7,4.48,3.16-1.98,3.96-4.48,3.96-4.48Z"
         id="path223" />
      <path
         class="cls-1"
         d="M49.57,51.68s-3.16,2.13-4.26,4.92c2.35,3.45,3.96,4.26,3.96,4.26,0,0,3.67-2.57,4.18-4.7-1.98-3.3-3.89-4.48-3.89-4.48Z"
         id="path225" />
      <path
         class="cls-4"
         d="M49.21,52.06v8.8s-3.62-2.87-3.89-4.26c2.23-3.8,3.89-4.54,3.89-4.54Z"
         id="path227" />
      <path
         class="cls-4"
         d="M20.17,52.06v8.8s-3.62-2.87-3.89-4.26c2.23-3.8,3.89-4.54,3.89-4.54Z"
         id="path229" />
      <path
         class="cls-3"
         d="M35.29,22.21c2.3,0,8.72,.64,10.84,3.48,2.3,3.06,1.86,10.79,1.49,13.51l-.2,1.46-.07-.05-.6,2.98c-1.06,5.29-4.1,9.5-9.05,12.52-.79,.48-1.71,.74-2.65,.74s-1.86-.26-2.65-.74c-4.95-3.01-7.99-7.22-9.05-12.52l-.61-2.97-.06,.04-.2-1.46c-.36-2.72-.81-10.44,1.48-13.51,2.12-2.84,8.54-3.47,10.83-3.48h.49m0-2h-.49s-9.24,0-12.43,4.28c-3.29,4.4-1.86,14.97-1.86,14.97,0,0-2.53-3.08-3.63-5.95-1.28,4.4,1.01,10.79,3.54,10.79,.32,0,.65-.1,.97-.32,1.19,5.93,4.6,10.56,9.97,13.83,1.13,.69,2.41,1.03,3.69,1.03s2.56-.34,3.69-1.03c5.38-3.27,8.79-7.9,9.97-13.83,.32,.22,.65,.32,.97,.32,2.53,0,4.82-6.38,3.54-10.79-1.1,2.87-3.63,5.95-3.63,5.95,0,0,1.43-10.57-1.87-14.97-3.18-4.28-12.43-4.28-12.43-4.28h0Z"
         id="path231" />
      <path
         class="cls-1"
         d="M38.04,31.71s4.74-.76,7.39-.57c-1.9-2.65-3.98-2.75-7.39,.57Z"
         id="path233" />
      <path
         class="cls-1"
         d="M38.8,42.23s3.89,1.14,6.83,.28c-1.99,3.51-4.46,3.89-6.83-.28Z"
         id="path235" />
      <path
         class="cls-9"
         d="m 23.41,49.93 c 0,0 -17.8062064,-0.632578 -20.4923545,-20.257722"
         id="path239"
         inkscape:connector-curvature="0"
         style="fill:none;stroke:#000000;stroke-width:1.10000002px;stroke-linecap:round;stroke-miterlimit:10"
         sodipodi:nodetypes="cc" />
      <path
         class="cls-9"
         d="M35.3,20.21s9.25,0,12.43,4.28c3.3,4.4,1.87,14.97,1.87,14.97,0,0,2.53-3.08,3.63-5.95,1.44,4.96-1.65,12.43-4.51,10.46-1.19,5.93-4.6,10.56-9.97,13.83-2.25,1.37-5.13,1.37-7.38,0-5.38-3.27-8.79-7.9-9.97-13.83-2.87,1.97-5.95-5.5-4.51-10.46,1.1,2.87,3.63,5.95,3.63,5.95,0,0-1.43-10.57,1.86-14.97,3.19-4.28,12.43-4.28,12.43-4.28"
         id="path237" />
      <path
         class="cls-9"
         d="m 46.82,49.93 c 0,0 16.127391,-0.455983 19.533164,-18.232312"
         id="path241"
         inkscape:connector-curvature="0"
         style="fill:none;stroke:#000000;stroke-width:1.10000002px;stroke-linecap:round;stroke-miterlimit:10"
         sodipodi:nodetypes="cc" />
      <path
         d="M22.11,34.46c.68-1.27,2.15-2.4,3.71-2.36,2.42,.08,4.76,.62,7.05,1.27,0,0-.66,2.07-.66,2.07-2.16-.67-4.3-1.56-6.5-2.04-1.3-.27-2.48,.29-3.61,1.05h0Z"
         id="path243" />
      <path
         d="M31.13,40.12c-2.15-1.13-4.59-1.39-6.69-.16,0,0,.13-.8,.13-.8,.5,.58,1.34,.94,2.23,1.17,.91,.21,1.86,.37,2.81,.31-.9,.46-1.94,.52-2.94,.47-1.22-.06-2.52-.61-3.35-1.73,2.43-1.75,5.86-1.59,7.8,.75h0Z"
         id="path245" />
      <path
         d="M48.06,34.46c-1.13-.76-2.31-1.33-3.61-1.05-2.19,.48-4.34,1.36-6.5,2.04,0,0-.66-2.07-.66-2.07,2.29-.65,4.63-1.19,7.05-1.27,1.56-.05,3.03,1.08,3.71,2.36h0Z"
         id="path247" />
      <path
         d="M39.04,40.12c1.95-2.34,5.37-2.5,7.8-.75-.82,1.12-2.12,1.67-3.35,1.73-1,.05-2.04-.01-2.94-.47,.95,.06,1.9-.1,2.81-.31,.88-.22,1.73-.59,2.23-1.17l.13,.8c-2.1-1.23-4.54-.97-6.69,.16h0Z"
         id="path249" />
      <path
         d="M31.67,43.89c.28,1.69,1.82,1.6,3.17,1.62,.95-.07,2.09,.12,2.73-.59,.16-.24,.17-.63,.15-1.03,.25,.3,.47,.69,.42,1.19-.52,2.64-8.02,2.1-6.48-1.19h0Z"
         id="path251" />
      <path
         d="M39.94,51.26s-1.42-1.71-2.36-2.34-2.76-.5-2.76-.5c0,0-1.82-.13-2.76,.5s-2.36,2.34-2.36,2.34c0,0,1.69,.75,3.52-.62,1.33,1.03,2.89,0,2.89,0,0,0,1.99,1.46,3.83,.62Z"
         id="path253" />
      <path
         d="M29.7,51.26s1.28,4.06,4.95,4.06,5.29-4.06,5.29-4.06l-2.53-.37s-.61,1.9-2.83,1.9-2.56-1.97-2.56-1.97l-2.32,.45Z"
         id="path255" />
      <path
         class="cls-7"
         d="M19.98,60.83c1.46-.87,3.32-2.32,4.23-4.49-1.55-2.71-3.18-4.03-4.22-4.65-1.04,.6-2.67,1.93-4.24,4.65,.92,2.17,2.77,3.62,4.23,4.49Z"
         id="path257" />
      <circle
         class="cls-8"
         cx="19.98"
         cy="56.26"
         r="1.6"
         id="circle259" />
      <path
         class="cls-7"
         d="M53.52,56.34c-1.57-2.72-3.2-4.05-4.24-4.65-1.04,.62-2.67,1.94-4.22,4.65,.91,2.17,2.77,3.62,4.23,4.49,1.46-.87,3.31-2.32,4.23-4.49Z"
         id="path261" />
      <circle
         class="cls-8"
         cx="49.29"
         cy="56.26"
         r="1.6"
         id="circle263" />
      <g
         id="g269">
        <path
           class="cls-10"
           d="M26.59,54.27v4.8c0,1.94-1.25,3.66-3.09,4.27l-11.66,3.84s-3.83,1.2-4.78,4.07"
           id="path265" />
        <path
           class="cls-10"
           d="M43.16,54.27v4.8c0,1.94,1.25,3.66,3.09,4.27l11.66,3.84s3.83,1.2,4.78,4.07"
           id="path267" />
      </g>
      <path
         class="cls-6"
         d="M18.71,65.17s4.54,7.69,16.07,7.69,16.26-7.69,16.26-7.69"
         id="path271" />
      <path
         d="M16.73,65.81s2.14,3.98,6.56,6.17c-1.09,2.42-1.02,2.73-1.02,2.73l-11.95-3.13-.7-3.28,7.11-2.5Z"
         id="path273" />
      <path
         d="M52.56,65.81s-2.14,3.98-6.56,6.17c1.09,2.42,1.02,2.73,1.02,2.73l11.95-3.13,.7-3.28-7.11-2.5Z"
         id="path275" />
      <path
         class="cls-1"
         d="M27.1,61.11c.21,3.38-4.36,3.84-6.71,4.89-2.77,.92-5.57,1.77-8.46,2.33,2.64-1.31,5.36-2.32,8.12-3.27,1.38-.46,2.77-.9,4.18-1.29,1.32-.39,2.71-1.14,2.88-2.66h0Z"
         id="path277" />
      <path
         class="cls-1"
         d="M7.06,39.01c3.67,4.91,9.2,7.81,14.96,9.59-.76-.06-1.53-.15-2.3-.27-5.26-1-10.49-4.28-12.66-9.32h0Z"
         id="path279" />
    </g>
  </g>
  <g
     id="g20645">
    <path
       style="fill:#808080;stroke:#4d4d4d;stroke-width:0.937908;stop-color:#000000;fill-opacity:1"
       d="m 9.541565,65.883425 a 5.4759801,5.4759801 0 0 1 5.47598,5.475981 5.4759801,5.4759801 0 0 1 -5.47598,5.47598 5.4759801,5.4759801 0 0 1 -5.4759806,-5.47598 5.4759801,5.4759801 0 0 1 5.4759806,-5.475981 z"
       id="path284" />
    <path
       style="fill:#808080;stroke:#4d4d4d;stroke-width:0.937908;stop-color:#000000;fill-opacity:1"
       d="m 59.472108,65.883425 a 5.4759801,5.4759801 0 0 1 5.47598,5.475981 5.4759801,5.4759801 0 0 1 -5.47598,5.47598 5.4759801,5.4759801 0 0 1 -5.475981,-5.47598 5.4759801,5.4759801 0 0 1 5.475981,-5.475981 z"
       id="path286" />
    <path
       id="path7641"
       style="fill:#808080;stroke:#4d4d4d;stroke-width:1.64416;stop-color:#000000"
       d="M 34.642578,1.1660156 C 13.787845,9.1047124 0.86132813,23.726855 0.86132812,39.564453 V 79.340489 H 68.152344 V 39.564453 c 0,-15.800978 -12.759199,-30.4148342 -33.509766,-38.3984374 z m -0.01367,3.8085938 C 53.384648,12.190722 64.917969,25.399665 64.917969,39.681641 v 26.507812 c -1.368656,-1.44106 -3.300993,-2.341797 -5.445313,-2.341797 -4.14856,0 -7.511718,3.363159 -7.511718,7.511719 0,2.347008 1.075662,4.442843 2.761718,5.820313 H 14.269531 c 1.756069,-1.422629 2.778281,-3.560307 2.783203,-5.820313 4.8e-5,-4.148627 -3.363091,-7.511766 -7.5117184,-7.511719 -2.0622939,0.0062 -4.0313164,0.860092 -5.4453125,2.361328 V 39.681641 c 0,-14.315076 11.6833059,-27.531508 30.5332029,-34.7070316 z" />
    <circle
       style="fill:#4d4d4d;fill-opacity:1;stroke:#4d4d4d;stop-color:#000000"
       id="path16431"
       cx="9.6010828"
       cy="71.229652"
       r="5.06003" />
    <circle
       style="fill:#4d4d4d;fill-opacity:1;stroke:#4d4d4d;stop-color:#000000"
       id="path16431-3"
       cx="59.42292"
       cy="71.229652"
       r="5.06003" />
  </g>
</svg>
