<svg id="Capa_2" xmlns="http://www.w3.org/2000/svg" xmlns:xlink="http://www.w3.org/1999/xlink" viewBox="0 0 69.02 80">
<defs >
<style >
.cls-1{fill:#c89aed;}.cls-2{fill:#fff;}.cls-3{fill:#f8ffbf;}.cls-4{fill:#7b7be8;}.cls-5{stroke-width:1px;}.cls-5,.cls-6,.cls-7,.cls-8,.cls-9,.cls-10,.cls-11,.cls-12{fill:none;}.cls-5,.cls-6,.cls-7,.cls-9,.cls-12{stroke:#000;stroke-miterlimit:10;}.cls-5,.cls-7,.cls-8,.cls-9,.cls-12{stroke-linecap:round;}.cls-13{fill:#a88347;}.cls-14{fill:#782ab5;}.cls-15{fill:#1c46ff;}.cls-8{stroke:#deb778;stroke-dasharray:0 0 0 4.06;stroke-linejoin:round;}.cls-9{stroke-width:1.01px;}.cls-16{fill:#deb778;}.cls-17{fill:url(#USGS_19_Inundación_de_tierra_2);}.cls-11{stroke:#1d1d1b;stroke-dasharray:0 0 2 2;stroke-width:.3px;}.cls-12{stroke-width:1.01px;}.cls-18{fill:#fcf0c5;}
</style>
<pattern id="USGS_19_Inundación_de_tierra_2" x="0" y="0" width="72" height="72" patternTransform="translate(-92.48 -16135) rotate(-90)" patternUnits="userSpaceOnUse" viewBox="0 0 72 72">
<g >
<rect class="cls-10" width="72" height="72">
</rect>
<g >
<line class="cls-11" x1="71" y1="71" x2="144.44" y2="71">
</line>
<line class="cls-11" x1="71" y1="67" x2="144.44" y2="67">
</line>
<line class="cls-11" x1="71" y1="63" x2="144.44" y2="63">
</line>
<line class="cls-11" x1="71" y1="59" x2="144.44" y2="59">
</line>
<line class="cls-11" x1="71" y1="55" x2="144.44" y2="55">
</line>
<line class="cls-11" x1="71" y1="51" x2="144.44" y2="51">
</line>
<line class="cls-11" x1="71" y1="47" x2="144.44" y2="47">
</line>
<line class="cls-11" x1="71" y1="43" x2="144.44" y2="43">
</line>
<line class="cls-11" x1="71" y1="39" x2="144.44" y2="39">
</line>
<line class="cls-11" x1="71" y1="35" x2="144.44" y2="35">
</line>
<line class="cls-11" x1="71" y1="31" x2="144.44" y2="31">
</line>
<line class="cls-11" x1="71" y1="27" x2="144.44" y2="27">
</line>
<line class="cls-11" x1="71" y1="23" x2="144.44" y2="23">
</line>
<line class="cls-11" x1="71" y1="19" x2="144.44" y2="19">
</line>
<line class="cls-11" x1="71" y1="15" x2="144.44" y2="15">
</line>
<line class="cls-11" x1="71" y1="11" x2="144.44" y2="11">
</line>
<line class="cls-11" x1="71" y1="7" x2="144.44" y2="7">
</line>
<line class="cls-11" x1="71" y1="3" x2="144.44" y2="3">
</line>
</g>
<g >
<line class="cls-11" x1="-1" y1="71" x2="72.44" y2="71">
</line>
<line class="cls-11" x1="-1" y1="67" x2="72.44" y2="67">
</line>
<line class="cls-11" x1="-1" y1="63" x2="72.44" y2="63">
</line>
<line class="cls-11" x1="-1" y1="59" x2="72.44" y2="59">
</line>
<line class="cls-11" x1="-1" y1="55" x2="72.44" y2="55">
</line>
<line class="cls-11" x1="-1" y1="51" x2="72.44" y2="51">
</line>
<line class="cls-11" x1="-1" y1="47" x2="72.44" y2="47">
</line>
<line class="cls-11" x1="-1" y1="43" x2="72.44" y2="43">
</line>
<line class="cls-11" x1="-1" y1="39" x2="72.44" y2="39">
</line>
<line class="cls-11" x1="-1" y1="35" x2="72.44" y2="35">
</line>
<line class="cls-11" x1="-1" y1="31" x2="72.44" y2="31">
</line>
<line class="cls-11" x1="-1" y1="27" x2="72.44" y2="27">
</line>
<line class="cls-11" x1="-1" y1="23" x2="72.44" y2="23">
</line>
<line class="cls-11" x1="-1" y1="19" x2="72.44" y2="19">
</line>
<line class="cls-11" x1="-1" y1="15" x2="72.44" y2="15">
</line>
<line class="cls-11" x1="-1" y1="11" x2="72.44" y2="11">
</line>
<line class="cls-11" x1="-1" y1="7" x2="72.44" y2="7">
</line>
<line class="cls-11" x1="-1" y1="3" x2="72.44" y2="3">
</line>
<line class="cls-11" x1="1.04" y1="69" x2="74.48" y2="69">
</line>
<line class="cls-11" x1="1.04" y1="65" x2="74.48" y2="65">
</line>
<line class="cls-11" x1="1.04" y1="61" x2="74.48" y2="61">
</line>
<line class="cls-11" x1="1.04" y1="57" x2="74.48" y2="57">
</line>
<line class="cls-11" x1="1.04" y1="53" x2="74.48" y2="53">
</line>
<line class="cls-11" x1="1.04" y1="49" x2="74.48" y2="49">
</line>
<line class="cls-11" x1="1.04" y1="45" x2="74.48" y2="45">
</line>
<line class="cls-11" x1="1.04" y1="41" x2="74.48" y2="41">
</line>
<line class="cls-11" x1="1.04" y1="37" x2="74.48" y2="37">
</line>
<line class="cls-11" x1="1.04" y1="33" x2="74.48" y2="33">
</line>
<line class="cls-11" x1="1.04" y1="29" x2="74.48" y2="29">
</line>
<line class="cls-11" x1="1.04" y1="25" x2="74.48" y2="25">
</line>
<line class="cls-11" x1="1.04" y1="21" x2="74.48" y2="21">
</line>
<line class="cls-11" x1="1.04" y1="17" x2="74.48" y2="17">
</line>
<line class="cls-11" x1="1.04" y1="13" x2="74.48" y2="13">
</line>
<line class="cls-11" x1="1.04" y1="9" x2="74.48" y2="9">
</line>
<line class="cls-11" x1="1.04" y1="5" x2="74.48" y2="5">
</line>
<line class="cls-11" x1="1.04" y1="1" x2="74.48" y2="1">
</line>
</g>
<g >
<line class="cls-11" x1="-73" y1="71" x2=".44" y2="71">
</line>
<line class="cls-11" x1="-73" y1="67" x2=".44" y2="67">
</line>
<line class="cls-11" x1="-73" y1="63" x2=".44" y2="63">
</line>
<line class="cls-11" x1="-73" y1="59" x2=".44" y2="59">
</line>
<line class="cls-11" x1="-73" y1="55" x2=".44" y2="55">
</line>
<line class="cls-11" x1="-73" y1="51" x2=".44" y2="51">
</line>
<line class="cls-11" x1="-73" y1="47" x2=".44" y2="47">
</line>
<line class="cls-11" x1="-73" y1="43" x2=".44" y2="43">
</line>
<line class="cls-11" x1="-73" y1="39" x2=".44" y2="39">
</line>
<line class="cls-11" x1="-73" y1="35" x2=".44" y2="35">
</line>
<line class="cls-11" x1="-73" y1="31" x2=".44" y2="31">
</line>
<line class="cls-11" x1="-73" y1="27" x2=".44" y2="27">
</line>
<line class="cls-11" x1="-73" y1="23" x2=".44" y2="23">
</line>
<line class="cls-11" x1="-73" y1="19" x2=".44" y2="19">
</line>
<line class="cls-11" x1="-73" y1="15" x2=".44" y2="15">
</line>
<line class="cls-11" x1="-73" y1="11" x2=".44" y2="11">
</line>
<line class="cls-11" x1="-73" y1="7" x2=".44" y2="7">
</line>
<line class="cls-11" x1="-73" y1="3" x2=".44" y2="3">
</line>
<line class="cls-11" x1="-70.96" y1="69" x2="2.48" y2="69">
</line>
<line class="cls-11" x1="-70.96" y1="65" x2="2.48" y2="65">
</line>
<line class="cls-11" x1="-70.96" y1="61" x2="2.48" y2="61">
</line>
<line class="cls-11" x1="-70.96" y1="57" x2="2.48" y2="57">
</line>
<line class="cls-11" x1="-70.96" y1="53" x2="2.48" y2="53">
</line>
<line class="cls-11" x1="-70.96" y1="49" x2="2.48" y2="49">
</line>
<line class="cls-11" x1="-70.96" y1="45" x2="2.48" y2="45">
</line>
<line class="cls-11" x1="-70.96" y1="41" x2="2.48" y2="41">
</line>
<line class="cls-11" x1="-70.96" y1="37" x2="2.48" y2="37">
</line>
<line class="cls-11" x1="-70.96" y1="33" x2="2.48" y2="33">
</line>
<line class="cls-11" x1="-70.96" y1="29" x2="2.48" y2="29">
</line>
<line class="cls-11" x1="-70.96" y1="25" x2="2.48" y2="25">
</line>
<line class="cls-11" x1="-70.96" y1="21" x2="2.48" y2="21">
</line>
<line class="cls-11" x1="-70.96" y1="17" x2="2.48" y2="17">
</line>
<line class="cls-11" x1="-70.96" y1="13" x2="2.48" y2="13">
</line>
<line class="cls-11" x1="-70.96" y1="9" x2="2.48" y2="9">
</line>
<line class="cls-11" x1="-70.96" y1="5" x2="2.48" y2="5">
</line>
<line class="cls-11" x1="-70.96" y1="1" x2="2.48" y2="1">
</line>
</g>
</g>
</pattern>
</defs>

<g id="Characters">
<g >
<path class="cls-1" d="M62.52,59.86c-.14,11.58-2.35,14.21-2.35,14.21,0,0-34.21,6.75-51.45-2.35-1.51-9.38-1.51-12.96-1.51-12.96,0,0,13.1-3.87,14.2-4,.42-4.42,.42-4.97,.42-4.97,0,0-1.93-3.59-1.93-6.9-3.32,0-3.18-6.89-3.18-8.27s.42-3.04,2.21-3.31c-.02-.65-.04-1.29-.06-1.9-.24-7.54-.26-12.11,2.54-14.65,3.04-2.76,10.76-3.45,16.97-3.18,6.2,.28,10.07,2.35,11.72,5.8,.97,2,1.09,6.53,1.02,9.97-.04,2.47-.19,4.37-.19,4.37,0,0,1.65,1.1,2.07,2.76,.41,1.65-.55,8.14-3.45,8.55-.69,4-2.48,7.59-2.48,7.59l.27,4s12.83,3.58,15.18,5.24Z">
</path>
<path class="cls-2" d="M34.43,58.77V21.24s8.09,2.04,13.53-1.31c1.5,4.62,2.3,12.41,2.3,12.41,0,0-.28,11.54-1.73,14.91s-5.87,11.71-14.09,11.52Z">
</path>
<path d="M51.12,27.35l-.48,.95s0-2.34-2.68-8.37c-4.69,2.12-18.31,4.13-26.01-.23-2.23,2.24-2.68,9.83-2.68,9.83l-.4-.12c-.24-7.54-.26-12.11,2.54-14.65,3.04-2.76,10.76-3.45,16.97-3.18,6.2,.28,10.07,2.35,11.72,5.8,.97,2,1.09,6.53,1.02,9.97Z">
</path>
<path class="cls-13" d="M22.66,14.96s13.19-5.4,25,.25c-9.67,4.52-15.7,.63-25-.25Z">
</path>
<path class="cls-3" d="M23.22,34.64s5.18-1.08,7.98-.57c-1.47,2.28-3.79,3.15-3.79,3.15,0,0-3.54-1.4-4.2-2.58Z">
</path>
<path class="cls-3" d="M45.32,34.64s-5.47-1.08-8.27-.57c1.47,2.28,4.07,3.15,4.07,3.15,0,0,3.54-1.4,4.2-2.58Z">
</path>
<path d="M46.43,51.92l-18.4,23.21-18.04-3.68-2.78-12.7s13.38-3.68,14.43-3.68c.26-4.03,.35-4.82,.35-4.82,0,0,4.03,5.52,6.66,7.01s5.96,1.31,5.96,1.31c0,0,4.38-.18,7.27-2.54,3.5-2.89,4.56-4.12,4.56-4.12Z">
</path>
<path class="cls-4" d="M48.24,39.04s.23,5.59-4.29,7.88c-2.07-2.53-5.89-4.21-5.89-4.21,0,0-1.02,.89-2.58,1v-.05h-2.07c-1.34-.2-2.2-.95-2.2-.95,0,0-3.83,1.68-5.89,4.21-4.51-2.3-4.29-7.88-4.29-7.88l-1.45-3.44s0,7.04,.38,9.26c.38,2.22,1.76,5.43,6.27,10.02,4.25,4.62,8.19,4.13,8.19,4.13v-.25h.42v.25s3.93,.49,8.19-4.13c4.51-4.59,5.89-7.81,6.27-10.02,.38-2.22,.38-9.26,.38-9.26l-1.45,3.44Z">
</path>
<path class="cls-4" d="M37.45,33.98s-1.58-1.51-1.35-2.61c2.61-1.43,7.13-.55,9.51,.16,.48,2.77,.16,3.33,.16,3.33,0,0-4.04-1.51-8.32-.87Z">
</path>
<path class="cls-4" d="M31.23,33.98s1.58-1.51,1.35-2.61c-2.61-1.43-7.75-.49-10.12,.23-.48,2.77-.14,3.24-.14,3.24,0,0,4.63-1.49,8.91-.85Z">
</path>
<path class="cls-2" d="M45.39,54.48l-8.7,11.45s7.16-2.53,8.37-5.84c.99-3.96,.33-5.62,.33-5.62Z">
</path>
<path class="cls-15" d="M46.81,55.05s1.07,5.01-1.43,7.87-7.75,5.37-13.71,4.41c-3.7,4.89-4.53,7.39-4.53,7.39,0,0,19.91,2.62,31.6-3.46,2.5-8.94,3.22-12.52,3.22-12.52,0,0-12.64-3.7-15.14-3.7Z">
</path>
<path class="cls-15" d="M9.22,59.15c3.67-1.49,7.42-2.95,11.35-3.56,0,0,.02,.1,.02,.1-.84,.92-1.73,1.23-2.68,1.46-1.69,.43-4.02,1.08-5.7,1.47-.97,.23-1.94,.44-2.94,.62l-.04-.09h0Z">
</path>
<path d="M18.93,31.31s-2.22,.68-2.46,3.42,.75,7.71,3.07,8.37c-.08-5.97-.6-11.79-.6-11.79Z">
</path>
<path class="cls-2" d="M23.11,37.86s3.56,2.35,6.88-.24c-3.56,5.34-5.99,2.67-6.88,.24Z">
</path>
<path d="M19.93,34.39v.03c-.03-.09-.04-.18-.06-.28,.04,.07,.06,.16,.06,.25Z">
</path>
<path class="cls-1" d="M47.21,21.75c.77,2.02,1.33,5.68,1.53,10.11v.07c-.05,.38-.11,.75-.17,1.09-.01,.06-.03,.14-.04,.25-.37,2.24-.87,4.35-1.38,5.81-.05,.14-.07,.29-.05,.43,.18,1.68-.5,3.64-1.86,5.39-.32,.41-.27,1,.11,1.35,.19,.17,.43,.26,.67,.26s.49-.09,.68-.27c.22-.2,.43-.44,.65-.7-.31,1.24-.69,2.24-1.11,2.97-1.93,3.47-6.23,8.64-10.18,8.64-.31,0-.62-.03-.91-.1-.07-.02-.15-.02-.22-.02h-.69c-.07,0-.15,0-.22,.02-.3,.07-.6,.1-.92,.1-3.95,0-8.26-5.17-10.2-8.66-.46-.8-.85-1.89-1.16-3.21,.28,.35,.57,.66,.84,.93,.19,.2,.45,.3,.71,.3,.23,0,.47-.08,.65-.24,.4-.34,.46-.94,.14-1.36-1.33-1.76-1.98-3.73-1.78-5.41,.02-.18,0-.36-.08-.53-.48-1.07-.95-2.72-1.32-4.66,0-.16-.04-.32-.09-.47-.08-.44-.16-.88-.23-1.33,.05-.14,.07-.29,.07-.43,.04-1.52,.41-7.27,1.59-10.27,3.98,1.49,9.14,1.66,11.29,1.66,.54,0,.88-.01,.92-.01h.48c.06,0,.31,0,.73,0,2.19,0,7.45-.18,11.53-1.72m.51-1.29c-4.05,1.85-10,2.02-12.03,2.02-.4,0-.64,0-.7,0h-.51c-.06,0-.39,.01-.92,.01-2.21,0-7.89-.18-11.79-1.95-1.81,3.23-2.09,11.45-2.09,11.54,0,.11-.04,.2-.11,.28,.09,.62,.19,1.21,.3,1.78h0c.04,.08,.06,.17,.06,.26v.03c.39,2.04,.88,3.79,1.41,4.97-.26,2.17,.67,4.4,1.98,6.13-1.57-1.59-2.77-3.66-2.85-5.98-.19-.41-.36-.89-.53-1.42,.11,3.36,.56,8.16,2.12,10.88,2.15,3.87,6.7,9.17,11.06,9.17,.38,0,.76-.04,1.14-.13h.69c.38,.09,.75,.13,1.13,.13,4.36,0,8.91-5.29,11.06-9.16,1.46-2.55,2.04-7.23,2.26-10.8-.2,.53-.41,1-.62,1.39,.19,1.49-1.24,4.52-2.74,5.92,1.34-1.72,2.3-3.93,2.07-6.11,.51-1.47,1.03-3.61,1.43-6.03,0-.06,0-.11,.02-.16,.07-.4,.13-.81,.19-1.23v-.03c-.03-.56-.3-8.37-2.03-11.5h0Z">
</path>
<path class="cls-2" d="M50.53,32.55s1.69,4.11,1.15,8.22c1.51-4.84,1.45-7.01,.66-8.04s-1.69-1.33-1.69-1.33l-.12,1.15Z">
</path>
<path d="M46.04,45.52c1.34-1.72,2.3-3.93,2.08-6.11,1.83-5.28,3.72-19.18,.06-23.64-4.12-5.15-22.88-5.19-27.03-.04-3.61,4.14-1.98,18.8,.2,23.66-.27,2.17,.67,4.39,1.98,6.13-1.59-1.62-2.81-3.73-2.87-6.09,0,0,.04,.2,.04,.2-2.28-5.22-3.98-20.11-.07-24.54,3.62-3.82,9.38-4.02,14.26-4.15,4.88,.11,10.66,.28,14.3,4.11,3.86,4.13,2.4,19.75-.2,24.54,.19,1.49-1.24,4.52-2.74,5.93h0Z">
</path>
<path class="cls-7" d="M18.94,31.34s-2.24,.35-2.36,3.25,.65,8.14,3.01,8.5">
</path>
<path class="cls-7" d="M50.35,31.34s2.24,.35,2.36,3.25-.65,8.14-3.01,8.5">
</path>
<path class="cls-9" d="M50.04,33.37s.21,11.24-2.46,15.89c-2.61,4.7-7.94,10.36-12.75,9.28h-.46c-4.81,1.08-10.14-4.58-12.75-9.28-2.67-4.64-2.2-14.89-2.2-14.89">
</path>
<path class="cls-7" d="M21.78,49.47v5.2s-8.57,1.92-15.61,4.96">
</path>
<path class="cls-7" d="M46.96,50.43v4.24s8.57,1.92,15.61,4.96">
</path>
<path class="cls-12" d="M46.92,54.68s-.05,4.74-1.25,7.3-5.07,5.5-11.32,5.5c-6.26,0-10.13-2.95-11.32-5.5s-1.25-7.3-1.25-7.3">
</path>
<path d="M25.27,49.7c.81,1.99,1.73,3.97,2.19,6.07,.05,.28-.14,.54-.41,.58-.24,.04-.47-.1-.56-.32-.68-2.04-.9-4.21-1.22-6.34h0Z">
</path>
<path d="M43.47,49.7c-.32,2.13-.54,4.3-1.22,6.34-.1,.26-.39,.39-.65,.29-.23-.09-.36-.32-.32-.56,.46-2.1,1.38-4.08,2.19-6.07h0Z">
</path>
<path d="M34.97,48.33l1.06-.56s2.58,.06,5.49,1.4c-2.74-2.46-5.49-3.36-5.49-3.36l-1.51,.5h-.11s-1.51-.5-1.51-.5c0,0-2.74,.9-5.49,3.36,2.91-1.34,5.49-1.4,5.49-1.4l1.06,.56h1.01Z">
</path>
<path d="M30.62,50.21c2.35,.54,4.86,.7,7.17-.05-1.34,2.06-5.7,1.93-7.17,.05h0Z">
</path>
<path class="cls-5" d="M50.24,31.97s-.24-9.07-2.34-12.15c-4.74,2.39-12.9,2.15-12.9,2.15h-.53s-8.16,.29-12.89-2.08c-2.11,3.09-2.4,12.16-2.4,12.16">
</path>
<path d="M22.25,31.69c2.63-1.27,5.28-2.24,8.3-2.23,1,.22,2.02,1.03,2.01,2.17l-.97,.22c-.45-.26-.88-.53-1.41-.71,0,0,.17,.03,.17,.03-2.67-.28-5.4,.26-8.09,.52h0Z">
</path>
<path d="M30.75,34.02c-2.55-.22-5.22,.16-7.5,1.29,0,0,.22-.74,.22-.74,.9,1.26,2.56,1.94,4.06,2.2,0,0-.27,.04-.27,.04,.49-.13,1.01-.35,1.5-.59,.49-.25,.96-.55,1.4-.9-.32,.47-.69,.91-1.11,1.31-.45,.43-.93,.82-1.49,1.16l-.17-.02c-2.06-.34-4.03-1.32-5.14-3.17,2.72-1.01,5.69-1.19,8.49-.56h0Z">
</path>
<path d="M45.98,31.69c-2.7-.25-5.42-.79-8.09-.52,0,0,.17-.03,.17-.03-.53,.18-.96,.45-1.41,.71,0,0-.97-.22-.97-.22,0-.34,.07-.56,.17-.81,.34-.72,1.1-1.2,1.83-1.37,3.02-.01,5.67,.96,8.3,2.23h0Z">
</path>
<path d="M37.48,34.02c2.81-.62,5.77-.44,8.49,.56-1.1,1.86-3.08,2.83-5.14,3.17,0,0-.17,.03-.17,.03-.56-.35-1.04-.74-1.49-1.16-.42-.4-.8-.84-1.11-1.31,.44,.36,.91,.66,1.4,.9,.48,.25,1.01,.46,1.5,.59l-.27-.04c1.5-.26,3.17-.94,4.06-2.2,0,0,.22,.74,.22,.74-2.28-1.13-4.95-1.51-7.5-1.29h0Z">
</path>
<path d="M35.78,35.02c.46,2.27,1.96,3.38,2.95,5.26,.92,2.61-2.61,3.61-4.49,3.96-1.89-.34-5.41-1.35-4.49-3.96,.39-1.03,1.23-1.62,1.76-2.54,.54-.82,.94-1.74,1.19-2.72-.06,1.52-.66,3.04-1.56,4.29-2.14,2.63,1,3.5,3.19,3.92,7.34-1.78,1.58-3.38,1.45-8.21h0Z">
</path>
<path class="cls-1" d="M17.55,33.15c.58,.82,.67,1.51,.65,2.21-.06,2.12,0,4.24,.67,6.28,0,0-.08,.06-.08,.06-.87-1.21-1.29-2.68-1.48-4.14-.18-1.47-.14-2.96,.14-4.42l.1,.02h0Z">
</path>
</g>
</g>
 <g
     id="g2850">
    <g
       id="g2837">
      <path
         id="path1951"
         d="M 0.056640625 0.04296875 L 0.056640625 79.943359 L 69.308594 79.943359 L 69.308594 0.04296875 L 0.056640625 0.04296875 z M 33.615234 3.5957031 C 34.206332 3.5957038 34.786991 3.6051034 35.421875 3.6152344 C 44.430653 3.7671809 53.471255 5.1336733 61.560547 7.5546875 L 62.064453 7.7070312 L 62.25 8.1640625 C 66.070247 17.605006 66.990234 28.726438 66.990234 40.0625 C 66.990234 51.398562 65.972723 63.025755 61.988281 72.578125 L 61.791016 73.044922 L 61.275391 73.185547 C 53.273669 75.403966 44.691921 76.529297 35.759766 76.529297 C 35.212453 76.529297 34.675812 76.519896 34.150391 76.509766 L 33.943359 76.509766 C 24.901742 76.357819 15.860367 74.989738 7.7929688 72.558594 L 7.2890625 72.40625 L 7.1035156 71.951172 C 3.2942144 62.520359 2.375 51.369168 2.375 40.0625 C 2.375 28.755832 3.3819737 17.127318 7.3554688 7.5546875 L 7.5527344 7.0898438 L 8.0664062 6.9472656 C 15.509867 4.890923 23.785212 3.7371557 32.005859 3.6054688 C 32.542226 3.5953387 33.078867 3.5957031 33.615234 3.5957031 z "
         style="opacity:1;vector-effect:none;fill:#ffffff;fill-opacity:1;fill-rule:nonzero;stroke:none;stroke-width:1.95200002;stroke-linecap:butt;stroke-linejoin:miter;stroke-miterlimit:4;stroke-dasharray:none;stroke-dashoffset:0;stroke-opacity:1" />
    </g>
    <path
       id="path1154-8-2"
       d="m 33.675163,6.6112954 c 0.557696,0 1.115392,0.00956 1.683415,0.019115 8.427403,0.14336 16.803167,1.4049288 24.363042,3.6700176 3.573384,8.830981 4.443772,19.417362 4.443772,29.761551 0,10.344189 -0.95301,21.39888 -4.68131,30.334991 -7.435942,2.064385 -15.429581,3.274388 -23.774362,3.274388 -0.506058,0 -1.012115,-0.0096 -1.518172,-0.01911 h -0.17557 C 25.56792,73.508883 17.192156,72.088619 9.6426089,69.813973 6.0795528,61.002107 5.2088244,50.415411 5.2088244,40.061979 c 0,-10.353432 0.95335,-21.389323 4.6609939,-30.325434 C 16.820359,7.8155201 24.462856,6.7450981 32.177647,6.6208528 c 0.49573,-0.00956 1.001787,-0.00956 1.497516,-0.00956 m 0,-0.9557337 c -0.506057,0 -1.012114,0 -1.518171,0.00956 C 24.40089,5.7893644 16.593149,6.8789009 9.570315,8.8190405 L 9.0849131,8.9528432 8.8990146,9.3924808 C 5.1500599,18.424166 4.1999116,29.394246 4.1999116,40.061979 c 0,10.667733 0.8675267,21.188618 4.461566,30.0865 l 0.1755708,0.430081 0.4750741,0.14336 c 7.6115135,2.293761 16.1421925,3.584001 24.6728715,3.727361 h 0.196227 c 0.495729,0.0096 1.001786,0.01911 1.518171,0.01911 8.427403,0 16.524318,-1.060864 24.073866,-3.153921 l 0.485403,-0.133802 0.185898,-0.439639 c 3.759282,-9.01257 4.719759,-19.983589 4.719759,-30.679055 0,-10.695466 -0.867528,-21.188618 -4.471894,-30.0960578 L 60.516853,9.5358409 60.041779,9.3924808 C 52.409609,7.108277 43.87893,5.8180364 35.379234,5.6746763 34.780227,5.6651187 34.232859,5.6555621 33.675163,5.6555615 Z"
       style="fill:#ff0000;stroke:#ffffff;stroke-width:1.84341729;stroke-miterlimit:4;stroke-dasharray:none" />
    <path
       id="path1154"
       d="m 33.614853,4.6077955 c 0.591098,0 1.182197,0.01013 1.784241,0.02026 8.932155,0.1519464 17.809578,1.4890758 25.822246,3.8898304 3.787408,9.3599041 4.709928,20.5803481 4.709928,31.5440931 0,10.963745 -1.01009,22.680548 -4.961693,32.151879 -7.881312,2.18803 -16.353723,3.302304 -25.198307,3.302304 -0.536368,0 -1.072735,-0.01013 -1.609102,-0.02026 H 33.97608 C 25.022033,75.343956 16.14461,74.006827 8.1428892,71.595943 4.3664269,62.256298 3.443547,51.035521 3.443547,40.061979 c 0,-10.973542 1.01045,-22.670418 4.9401601,-32.1417498 7.3668369,-2.036083 15.4670749,-3.170617 23.6439369,-3.3023039 0.525421,-0.01013 1.061788,-0.01013 1.587209,-0.01013 m 0,-1.0129766 c -0.536367,0 -1.072734,0 -1.609101,0.01013 C 23.785105,3.7366356 15.509726,4.891429 8.0662653,6.9477716 L 7.5517907,7.0895883 7.3547579,7.5555576 C 3.3812628,17.128188 2.3742062,28.755311 2.3742062,40.061979 c 0,11.306668 0.9194864,22.457692 4.7287876,31.888505 l 0.1860865,0.45584 0.5035283,0.151947 c 8.0673984,2.431144 17.1090154,3.798662 26.1506324,3.950608 h 0.207979 c 0.525421,0.01013 1.061788,0.02026 1.609101,0.02026 8.932155,0 17.514028,-1.124404 25.51575,-3.342823 l 0.514475,-0.141816 0.197032,-0.46597 c 3.984442,-9.55237 5.002445,-21.180489 5.002445,-32.516551 0,-11.336062 -0.919487,-22.457692 -4.739734,-31.8986353 L 62.064202,7.7075041 61.560674,7.5555576 C 53.471382,5.1345434 44.429765,3.7670249 35.420987,3.6150784 c -0.634884,-0.01013 -1.215036,-0.020259 -1.806134,-0.02026 z"
       style="fill:#000000;stroke:#000000;stroke-width:1.95382714;stroke-miterlimit:4;stroke-dasharray:none" />
    <g
       id="g1810">
      <path
         d="M 6.5134911,7.7433673 C 5.6489029,6.8479453 4.058602,6.5681013 3.6272194,7.3820013 3.284151,8.0292783 3.3625296,8.5309135 4.395235,8.9201755 3.2963719,9.5187755 1.4857674,9.4447465 1.1893447,7.4467713 0.95320848,5.8551433 2.674739,4.8863543 3.1399725,5.0916244 3.0034432,3.6818714 1.8221094,4.0692802 0.95849208,3.2813384 0.34259068,2.7194046 0.23126071,-0.02624603 0.0561761,0.04378767 -0.0138576,0.21887227 2.7317937,0.33020157 3.2937267,0.94610377 4.0816685,1.8097211 3.6942598,2.9910547 5.1040128,3.1275841 4.8987425,2.6623507 5.8675315,0.94082017 7.4591593,1.1769564 9.4571345,1.4733791 9.5311625,3.2839847 8.9325635,4.3828467 8.5433008,3.3501417 8.041666,3.2717627 7.3943894,3.6148312 6.5804899,4.0462137 6.8603354,5.6365129 7.7557553,6.5011023"
         style="fill:#000000;stroke:#000000;stroke-width:0.1112323px;stroke-linecap:butt;stroke-linejoin:miter;stroke-opacity:1"
         id="path1737-3" />
      <path
         d="m 62.850738,7.7433673 c 0.864588,-0.895422 2.454889,-1.175266 2.886271,-0.361366 0.343069,0.647277 0.26469,1.148912 -0.768015,1.538174 1.098863,0.5986 2.909467,0.524571 3.20589,-1.473404 0.236136,-1.591628 -1.485394,-2.560417 -1.950628,-2.3551469 0.13653,-1.409753 1.317863,-1.0223442 2.181481,-1.810286 0.615901,-0.5619338 0.727231,-3.30758442 0.902316,-3.23755072 0.07003,0.1750846 -2.675618,0.2864139 -3.237551,0.9023161 C 65.28256,1.8097211 65.669969,2.9910547 64.260216,3.1275841 64.465486,2.6623507 63.496697,0.94082018 61.905069,1.1769564 c -1.997975,0.2964227 -2.072003,2.1070283 -1.473404,3.2058903 0.389263,-1.032705 0.890898,-1.111084 1.538174,-0.7680155 0.8139,0.4313825 0.534054,2.0216817 -0.361366,2.8862711"
         style="fill:#000000;stroke:#000000;stroke-width:0.1112323px;stroke-linecap:butt;stroke-linejoin:miter;stroke-opacity:1"
         id="path1737-3-5" />
      <path
         d="m 62.850738,72.244244 c 0.864588,0.895422 2.454889,1.175266 2.886272,0.361366 0.343068,-0.647277 0.264689,-1.148912 -0.768016,-1.538174 1.098863,-0.5986 2.909468,-0.524571 3.20589,1.473404 0.236137,1.591628 -1.485394,2.560417 -1.950628,2.355147 0.13653,1.409753 1.317864,1.022344 2.181481,1.810286 0.615901,0.561934 0.727231,3.307584 0.902316,3.237551 0.07003,-0.175085 -2.675618,-0.286414 -3.237551,-0.902317 -0.787942,-0.863617 -0.400533,-2.04495 -1.810286,-2.18148 0.20527,0.465234 -0.763519,2.186764 -2.355146,1.950628 -1.997976,-0.296423 -2.072004,-2.107028 -1.473405,-3.20589 0.389263,1.032705 0.890898,1.111084 1.538175,0.768015 0.813899,-0.431382 0.534054,-2.021682 -0.361366,-2.886271"
         style="fill:#000000;stroke:#000000;stroke-width:0.1112323px;stroke-linecap:butt;stroke-linejoin:miter;stroke-opacity:1"
         id="path1737-3-7" />
      <path
         d="M 6.513491,72.244245 C 5.648903,73.139667 4.058602,73.419511 3.62722,72.605611 3.284151,71.958334 3.36253,71.456699 4.395235,71.067437 c -1.098863,-0.5986 -2.909467,-0.524571 -3.20589,1.473404 -0.23613599,1.591628 1.485394,2.560417 1.950628,2.355147 -0.13653,1.409753 -1.317863,1.022344 -2.18148099,1.810286 -0.615901,0.561933 -0.727231,3.307584 -0.902316,3.23755 C -0.01385399,79.76874 2.731794,79.65741 3.293727,79.041508 4.081669,78.177891 3.69426,76.996557 5.104013,76.860028 4.898743,77.325261 5.867532,79.046792 7.45916,78.810656 9.457135,78.514233 9.531163,76.703627 8.932564,75.604765 8.543301,76.63747 8.041666,76.715849 7.39439,76.372781 6.58049,75.941398 6.860336,74.351099 7.755756,73.48651"
         style="fill:#000000;stroke:#000000;stroke-width:0.1112323px;stroke-linecap:butt;stroke-linejoin:miter;stroke-opacity:1"
         id="path1737-3-5-5" />
    </g>
    <path
       id="path1154-9"
       d="m 33.712865,7.4258691 c 0.536813,0 1.07363,0.00933 1.620386,0.01865 8.111875,0.1398689 16.174044,1.3707167 23.450873,3.5806479 3.439594,8.615932 4.277395,18.944521 4.277395,29.036812 0,10.092292 -0.917329,20.877786 -4.506039,29.596289 -7.157536,2.014114 -14.851888,3.03982 -22.884234,3.03982 -0.487111,0 -0.974221,-0.0094 -1.461331,-0.01865 H 34.040918 C 25.909161,72.53957 17.846991,71.308722 10.580105,69.089467 7.1504515,60.492184 6.3123238,50.163289 6.3123238,40.061979 c 0,-10.101311 0.9176558,-20.868461 4.4864832,-29.586965 6.690308,-1.8742449 14.046665,-2.9186005 21.472608,-3.0398203 0.47717,-0.00933 0.964281,-0.00933 1.44145,-0.00933 m 0,-0.9324602 c -0.487111,0 -0.974221,0 -1.46133,0.00933 C 24.785826,6.6239532 17.270413,7.686958 10.510517,9.5798526 L 10.043289,9.710397 9.8643508,10.139328 c -3.6085914,8.811751 -4.5231655,19.514693 -4.5231655,29.922651 0,10.407958 0.8350459,20.672644 4.294522,29.353849 l 0.1689973,0.419608 0.4572874,0.13987 c 7.326533,2.237904 15.537818,3.496724 23.749103,3.636593 h 0.188879 c 0.47717,0.0094 0.96428,0.01865 1.461331,0.01865 8.111875,0 15.905636,-1.035031 23.172525,-3.077119 l 0.467228,-0.130544 0.178938,-0.428932 c 3.618533,-8.793101 4.543048,-19.496959 4.543048,-29.931975 0,-10.435016 -0.835047,-20.672644 -4.304463,-29.363174 l -0.168997,-0.419609 -0.457288,-0.13987 C 51.74588,7.9107484 43.534594,6.6519271 35.353133,6.512058 34.776554,6.502738 34.249678,6.493409 33.712865,6.493409 Z"
       style="fill:#000000;stroke:none;stroke-width:1.78642213;stroke-miterlimit:4;stroke-dasharray:none" />
    <path
       id="path1154-9-3"
       d="m 33.712865,7.4258686 c 0.536813,0 1.07363,0.00933 1.620386,0.01865 8.111875,0.1398689 16.174044,1.3707167 23.450873,3.5806484 3.439594,8.615932 4.277395,18.944521 4.277395,29.036812 0,10.092292 -0.917329,20.877786 -4.506039,29.596288 -7.157536,2.014114 -14.851888,3.03982 -22.884234,3.03982 -0.487111,0 -0.974221,-0.0094 -1.461331,-0.01865 H 34.040918 C 25.909161,72.539569 17.846991,71.308722 10.580105,69.089466 7.1504515,60.492184 6.3123238,50.163288 6.3123238,40.061979 c 0,-10.101312 0.9176558,-20.868461 4.4864832,-29.586965 6.690308,-1.8742454 14.046665,-2.918601 21.472608,-3.0398208 0.47717,-0.00933 0.964281,-0.00933 1.44145,-0.00933 m 0,-0.9324602 c -0.487111,0 -0.974221,0 -1.46133,0.00933 C 24.785826,6.6239527 17.270413,7.6869575 10.510517,9.5798521 L 10.043289,9.7103965 9.8643508,10.139328 C 6.2557594,18.951079 5.3411853,29.65402 5.3411853,40.061979 c 0,10.407958 0.8350459,20.672643 4.294522,29.353849 l 0.1689973,0.419608 0.4572874,0.13987 c 7.326533,2.237904 15.537818,3.496724 23.749103,3.636593 h 0.188879 c 0.47717,0.0094 0.96428,0.01865 1.461331,0.01865 8.111875,0 15.905636,-1.035032 23.172525,-3.077119 l 0.467228,-0.130544 0.178938,-0.428932 c 3.618533,-8.793101 4.543048,-19.49696 4.543048,-29.931975 0,-10.435016 -0.835047,-20.672644 -4.304463,-29.363175 l -0.168997,-0.419609 -0.457288,-0.13987 C 51.74588,7.9107479 43.534594,6.6519266 35.353133,6.5120575 34.776554,6.5027375 34.249678,6.4934085 33.712865,6.4934085 Z"
       style="fill:#000000;stroke:none;stroke-width:1.78642213;stroke-miterlimit:4;stroke-dasharray:none" />
  </g>
</svg>
