<svg id="Capa_2" xmlns="http://www.w3.org/2000/svg" xmlns:xlink="http://www.w3.org/1999/xlink" viewBox="0 0 69.02 80">
<defs >
<style >
.cls-1{fill:#c89aed;}.cls-2{fill:#fff;}.cls-3{fill:#f8ffbf;}.cls-4{fill:#7b7be8;}.cls-5{fill:#a88347;}.cls-6{fill:#782ab5;}.cls-7,.cls-8,.cls-9{stroke:#000;stroke-miterlimit:10;}.cls-7,.cls-8,.cls-9,.cls-10,.cls-11,.cls-12{fill:none;}.cls-8,.cls-9,.cls-10{stroke-linecap:round;}.cls-13{fill:#1c46ff;}.cls-9{stroke-width:1.02px;}.cls-10{stroke:#deb778;stroke-dasharray:0 0 0 4.06;stroke-linejoin:round;}.cls-14{fill:#deb778;}.cls-15{fill:url(#USGS_19_Inundación_de_tierra_2);}.cls-12{stroke:#1d1d1b;stroke-dasharray:0 0 2 2;stroke-width:.3px;}.cls-16{fill:#fcf0c5;}.cls-17{fill:#b83521;}
</style>
<pattern id="USGS_19_Inundación_de_tierra_2" x="0" y="0" width="72" height="72" patternTransform="translate(-164.48 -16135) rotate(-90)" patternUnits="userSpaceOnUse" viewBox="0 0 72 72">
<g >
<rect class="cls-11" width="72" height="72">
</rect>
<g >
<line class="cls-12" x1="71" y1="71" x2="144.44" y2="71">
</line>
<line class="cls-12" x1="71" y1="67" x2="144.44" y2="67">
</line>
<line class="cls-12" x1="71" y1="63" x2="144.44" y2="63">
</line>
<line class="cls-12" x1="71" y1="59" x2="144.44" y2="59">
</line>
<line class="cls-12" x1="71" y1="55" x2="144.44" y2="55">
</line>
<line class="cls-12" x1="71" y1="51" x2="144.44" y2="51">
</line>
<line class="cls-12" x1="71" y1="47" x2="144.44" y2="47">
</line>
<line class="cls-12" x1="71" y1="43" x2="144.44" y2="43">
</line>
<line class="cls-12" x1="71" y1="39" x2="144.44" y2="39">
</line>
<line class="cls-12" x1="71" y1="35" x2="144.44" y2="35">
</line>
<line class="cls-12" x1="71" y1="31" x2="144.44" y2="31">
</line>
<line class="cls-12" x1="71" y1="27" x2="144.44" y2="27">
</line>
<line class="cls-12" x1="71" y1="23" x2="144.44" y2="23">
</line>
<line class="cls-12" x1="71" y1="19" x2="144.44" y2="19">
</line>
<line class="cls-12" x1="71" y1="15" x2="144.44" y2="15">
</line>
<line class="cls-12" x1="71" y1="11" x2="144.44" y2="11">
</line>
<line class="cls-12" x1="71" y1="7" x2="144.44" y2="7">
</line>
<line class="cls-12" x1="71" y1="3" x2="144.44" y2="3">
</line>
</g>
<g >
<line class="cls-12" x1="-1" y1="71" x2="72.44" y2="71">
</line>
<line class="cls-12" x1="-1" y1="67" x2="72.44" y2="67">
</line>
<line class="cls-12" x1="-1" y1="63" x2="72.44" y2="63">
</line>
<line class="cls-12" x1="-1" y1="59" x2="72.44" y2="59">
</line>
<line class="cls-12" x1="-1" y1="55" x2="72.44" y2="55">
</line>
<line class="cls-12" x1="-1" y1="51" x2="72.44" y2="51">
</line>
<line class="cls-12" x1="-1" y1="47" x2="72.44" y2="47">
</line>
<line class="cls-12" x1="-1" y1="43" x2="72.44" y2="43">
</line>
<line class="cls-12" x1="-1" y1="39" x2="72.44" y2="39">
</line>
<line class="cls-12" x1="-1" y1="35" x2="72.44" y2="35">
</line>
<line class="cls-12" x1="-1" y1="31" x2="72.44" y2="31">
</line>
<line class="cls-12" x1="-1" y1="27" x2="72.44" y2="27">
</line>
<line class="cls-12" x1="-1" y1="23" x2="72.44" y2="23">
</line>
<line class="cls-12" x1="-1" y1="19" x2="72.44" y2="19">
</line>
<line class="cls-12" x1="-1" y1="15" x2="72.44" y2="15">
</line>
<line class="cls-12" x1="-1" y1="11" x2="72.44" y2="11">
</line>
<line class="cls-12" x1="-1" y1="7" x2="72.44" y2="7">
</line>
<line class="cls-12" x1="-1" y1="3" x2="72.44" y2="3">
</line>
<line class="cls-12" x1="1.04" y1="69" x2="74.48" y2="69">
</line>
<line class="cls-12" x1="1.04" y1="65" x2="74.48" y2="65">
</line>
<line class="cls-12" x1="1.04" y1="61" x2="74.48" y2="61">
</line>
<line class="cls-12" x1="1.04" y1="57" x2="74.48" y2="57">
</line>
<line class="cls-12" x1="1.04" y1="53" x2="74.48" y2="53">
</line>
<line class="cls-12" x1="1.04" y1="49" x2="74.48" y2="49">
</line>
<line class="cls-12" x1="1.04" y1="45" x2="74.48" y2="45">
</line>
<line class="cls-12" x1="1.04" y1="41" x2="74.48" y2="41">
</line>
<line class="cls-12" x1="1.04" y1="37" x2="74.48" y2="37">
</line>
<line class="cls-12" x1="1.04" y1="33" x2="74.48" y2="33">
</line>
<line class="cls-12" x1="1.04" y1="29" x2="74.48" y2="29">
</line>
<line class="cls-12" x1="1.04" y1="25" x2="74.48" y2="25">
</line>
<line class="cls-12" x1="1.04" y1="21" x2="74.48" y2="21">
</line>
<line class="cls-12" x1="1.04" y1="17" x2="74.48" y2="17">
</line>
<line class="cls-12" x1="1.04" y1="13" x2="74.48" y2="13">
</line>
<line class="cls-12" x1="1.04" y1="9" x2="74.48" y2="9">
</line>
<line class="cls-12" x1="1.04" y1="5" x2="74.48" y2="5">
</line>
<line class="cls-12" x1="1.04" y1="1" x2="74.48" y2="1">
</line>
</g>
<g >
<line class="cls-12" x1="-73" y1="71" x2=".44" y2="71">
</line>
<line class="cls-12" x1="-73" y1="67" x2=".44" y2="67">
</line>
<line class="cls-12" x1="-73" y1="63" x2=".44" y2="63">
</line>
<line class="cls-12" x1="-73" y1="59" x2=".44" y2="59">
</line>
<line class="cls-12" x1="-73" y1="55" x2=".44" y2="55">
</line>
<line class="cls-12" x1="-73" y1="51" x2=".44" y2="51">
</line>
<line class="cls-12" x1="-73" y1="47" x2=".44" y2="47">
</line>
<line class="cls-12" x1="-73" y1="43" x2=".44" y2="43">
</line>
<line class="cls-12" x1="-73" y1="39" x2=".44" y2="39">
</line>
<line class="cls-12" x1="-73" y1="35" x2=".44" y2="35">
</line>
<line class="cls-12" x1="-73" y1="31" x2=".44" y2="31">
</line>
<line class="cls-12" x1="-73" y1="27" x2=".44" y2="27">
</line>
<line class="cls-12" x1="-73" y1="23" x2=".44" y2="23">
</line>
<line class="cls-12" x1="-73" y1="19" x2=".44" y2="19">
</line>
<line class="cls-12" x1="-73" y1="15" x2=".44" y2="15">
</line>
<line class="cls-12" x1="-73" y1="11" x2=".44" y2="11">
</line>
<line class="cls-12" x1="-73" y1="7" x2=".44" y2="7">
</line>
<line class="cls-12" x1="-73" y1="3" x2=".44" y2="3">
</line>
<line class="cls-12" x1="-70.96" y1="69" x2="2.48" y2="69">
</line>
<line class="cls-12" x1="-70.96" y1="65" x2="2.48" y2="65">
</line>
<line class="cls-12" x1="-70.96" y1="61" x2="2.48" y2="61">
</line>
<line class="cls-12" x1="-70.96" y1="57" x2="2.48" y2="57">
</line>
<line class="cls-12" x1="-70.96" y1="53" x2="2.48" y2="53">
</line>
<line class="cls-12" x1="-70.96" y1="49" x2="2.48" y2="49">
</line>
<line class="cls-12" x1="-70.96" y1="45" x2="2.48" y2="45">
</line>
<line class="cls-12" x1="-70.96" y1="41" x2="2.48" y2="41">
</line>
<line class="cls-12" x1="-70.96" y1="37" x2="2.48" y2="37">
</line>
<line class="cls-12" x1="-70.96" y1="33" x2="2.48" y2="33">
</line>
<line class="cls-12" x1="-70.96" y1="29" x2="2.48" y2="29">
</line>
<line class="cls-12" x1="-70.96" y1="25" x2="2.48" y2="25">
</line>
<line class="cls-12" x1="-70.96" y1="21" x2="2.48" y2="21">
</line>
<line class="cls-12" x1="-70.96" y1="17" x2="2.48" y2="17">
</line>
<line class="cls-12" x1="-70.96" y1="13" x2="2.48" y2="13">
</line>
<line class="cls-12" x1="-70.96" y1="9" x2="2.48" y2="9">
</line>
<line class="cls-12" x1="-70.96" y1="5" x2="2.48" y2="5">
</line>
<line class="cls-12" x1="-70.96" y1="1" x2="2.48" y2="1">
</line>
</g>
</g>
</pattern>
</defs>

  <path
     id="path7641-4"
     style="fill:#782ab5;fill-opacity:1;stroke:#4d4d4d;stroke-width:1.62226;stop-color:#000000"
     d="M 34.900259,1.6936052 C 14.323312,9.5265586 1.6299002,23.954051 1.5689773,39.580572 V 79.197446 H 67.963672 V 39.580572 C 67.958188,23.990066 55.374427,9.5708664 34.900259,1.6936052 Z"/>
  <path
     id="path7641-7"
     style="fill:#808080;stroke:#4d4d4d;stroke-width:1.48325;stop-color:#000000"
     d="M 34.629293,5.0425238 C 15.815619,12.204258 4.1542243,25.395327 4.1542243,39.682894 V 76.559207 H 64.859448 V 39.682894 c 0,-14.254531 -11.510452,-27.438125 -30.230155,-34.6403702 z m -0.01233,3.4358455 C 51.537073,14.988239 61.941622,26.904418 61.941622,39.788613 v 33.82806 H 7.07205 v -33.82806 c 0,-12.914055 10.539857,-24.836991 27.544909,-31.3102437 z"/>
  <path
     id="path7641-7-8"
     style="fill:#808080;stroke:#4d4d4d;stroke-width:1.35027;stop-color:#000000"
     d="M 34.618314,8.2461803 C 17.491429,14.76581 6.8755673,26.7742 6.8755673,39.780777 v 33.57007 H 62.138105 v -33.57007 c 0,-12.976504 -10.478452,-24.978088 -27.519791,-31.5345967 z m -0.01123,3.1277957 c 15.403093,5.926211 24.874795,16.774013 24.874795,28.503041 V 70.672134 H 9.5317874 V 39.877017 c 0,-11.75621 9.5948786,-22.610165 25.0752986,-28.503041 z"/>
  <path
     id="path7641-7-8-0"
     style="fill:#808080;stroke:#4d4d4d;stroke-width:1.21411;stop-color:#000000"
     d="M 34.607073,11.526302 C 19.207238,17.388502 9.6618637,28.185984 9.6618637,39.880997 V 70.06591 H 59.351809 V 39.880997 c 0,-11.667973 -9.421821,-22.459335 -24.744736,-28.354695 z m -0.0101,2.812393 c 13.849868,5.328621 22.366458,15.082547 22.366458,25.628837 V 67.657315 H 12.050234 V 39.967532 c 0,-10.570731 8.627346,-20.33019 22.546743,-25.628837 z"/>


<g id="Characters">
<g >
<path class="cls-1" d="M19.49,31.9s-2.03-3.47-4.15-2.37-.25,8.55,.85,11.59,3.13,3.81,5.08,3.72c1.52,7.02,2.62,11.08,2.62,11.08l-.31,3.73s2.83,3.56,9.06,4.23c1.15,1.86,1.07,2.11,1.07,2.11l1.28-2.24s7.01-.8,9.3-4.19c-.51-3.55-.68-4.48-.68-4.48l2.45-10.24s2.71,1.1,5.16-3.38,2.2-10.75,1.1-11.85-3.22-.34-3.22-.34l-1.35-9.22-7.62-4.57-6.52-.34-6.18,1.1-5.58,1.78-3.38,4.91s0,5.16,1.02,8.97Z">
</path>
<path class="cls-2" d="M33.75,59.79V18.5s5.21-3.68,8.97-.09c5.03,1.64,5.92,10.14,5.92,10.14l-1.08,5.03s1.08,1.35,.63,4.22-1.62,4.13-1.62,4.13l-3.41,13.82s-3.59,4.31-9.42,4.04Z">
</path>
<path d="M18.74,29.55s-1.54-3.27-.9-6.22c-1.92-5.84-1.35-9.43,4.42-11.93,4.62-1.86,7.76,.58,10.52-.51s6.6-1.22,9.3,2.56c5.9-1.54,8.21,1.8,8.14,5.64,2.44,3.01,1.03,7.89,.19,10.2-2.12,2.18-2.37,3.01-2.37,3.01,0,0,.58-2.56,.32-4.55s-2.89-7.05-2.89-7.05l-2.31-1.8s-1.92-3.4-7.05-1.22-10.52,5.39-14.68,3.08c-1.28,3.59-2.5,6.41-2.69,8.79Z">
</path>
<path class="cls-17" d="M23.58,59.66s2.68,3.29,9.06,4.23c1.11,2.18,1.07,2.48,1.07,2.48l1.27-2.62s6.04-.13,8.85-4.36c.94,4.23,.87,5.1,.87,5.1l14.76,4.23-.67,6.31s-17.71,1.95-30.66,1.54-18.72-4.29-18.72-4.29v-3.96l13.55-4.02,.6-4.63Z">
</path>
<path class="cls-3" d="M29.54,35.06s-4.46-2.15-7.2,.54c1.37,2.38,4.67,3.82,7.2-.54Z">
</path>
<path class="cls-3" d="M37.67,35.06s4.46-2.15,7.2,.54c-1.37,2.38-4.67,3.82-7.2-.54Z">
</path>
<path class="cls-4" d="M30.16,32.11l-.08,2.88s-3.67-2.17-7.74,.6c-1.36-2.66-1.52-4.06-1.52-4.06,0,0,1.52-1.73,3.21-1.81,2.72,1.4,6.13,2.39,6.13,2.39Z">
</path>
<path class="cls-4" d="M36.97,32.67l.32,2.45s3.48-2.3,7.56,.47c1.36-2.66,1.42-4.02,1.42-4.02,0,0-1.42-1.77-3.11-1.85-2.72,1.4-6.19,2.95-6.19,2.95Z">
</path>
<polygon points="43.58 56.1 28.58 74.74 10.72 71.7 9.77 68.49 22.69 64.42 23.89 55.93 33.52 61.13 43.58 56.1">
</polygon>
<path class="cls-17" d="M24.34,57.8c.03,2.48-.1,4.94-.32,7.39-1.97,.63-3.95,1.25-5.96,1.77-1.9,.51-3.82,.95-5.77,1.29,1.81-.8,3.65-1.5,5.52-2.13,1.86-.64,3.74-1.2,5.63-1.74l-.33,.4c.3-2.34,.69-4.67,1.24-6.99h0Z">
</path>
<path d="M19.65,33.07s-1.62-4.47-4-3.52c-2.19,1.62-.1,10.19,.67,11.9s2.48,3.46,4.95,3.39c-.19-1.78-.29-2.44-.29-2.44,0,0-3.05-4.85-1.33-9.33Z">
</path>
<path class="cls-1" d="M38.91,18.81h0c1.25,0,2.27,.43,3.19,1.36,.12,.12,.26,.2,.41,.25,.54,.17,1.18,.62,1.86,1.31,.09,.19,.21,.45,.35,.74,.4,.82,.94,1.95,1.18,2.64,.01,.03,.02,.06,.04,.09,.17,.36,.52,1.28,1.01,3.39l-.03,.24c-.17,1.41-.34,2.87-.73,4.16-.07,.22-.06,.45,.03,.66,1.32,3.28,.08,7.32-3,9.81l-1.42,1.12c-.39,.31-.49,.85-.25,1.28,.18,.32,.52,.5,.87,.5,.12,0,.24-.02,.36-.07,.61-.24,1.2-.53,1.76-.87,0,.02,0,.04-.01,.05-.64,3.25-1.31,6.62-2.55,9.63-1.96,1.39-4.17,2.55-6.31,3.67-.67,.35-1.34,.7-2,1.06-1.6-.84-3.21-1.71-4.77-2.58-.32-.19-.66-.38-1-.56-.87-.49-1.77-.99-2.51-1.57-1.14-2.9-1.69-6.2-2.21-9.4,.51,.24,1.02,.43,1.42,.58,.11,.04,.23,.06,.34,.06,.33,0,.66-.17,.84-.46,.25-.4,.19-.91-.14-1.24-.32-.32-.65-.62-.97-.91-.35-.32-.69-.62-.99-.93-.02-.02-.04-.04-.06-.06-2.68-2.32-3.67-6.06-2.4-9.1,.09-.22,.1-.46,.03-.68-.41-1.33-.6-2.82-.78-4.27l-.02-.17c.25-1.43,1.09-3.87,2.02-5.95,.86,.24,1.81,.37,2.79,.37,1.28,0,2.62-.22,3.75-.62,1.22-.37,2.47-.95,3.78-1.56,2.07-.97,4.22-1.98,6.11-1.98m0-1c-3.35,0-7.06,2.65-10.2,3.59-1.01,.36-2.22,.57-3.44,.57-1.14,0-2.3-.18-3.32-.61-1.07,2.2-2.23,5.39-2.51,7.17,.2,1.58,.39,3.25,.86,4.76-1.48,3.56-.21,7.75,2.67,10.24,.61,.63,1.33,1.21,1.97,1.85-.58-.21-1.16-.44-1.71-.73-.5-.28-.97-.61-1.41-.99,.7,4.06,1.21,8.34,2.74,12.09,1.12,.95,2.55,1.64,3.83,2.39,1.75,.97,3.51,1.92,5.28,2.85,3.06-1.68,6.29-3.17,9.11-5.22,1.72-4.03,2.36-8.53,3.28-12.85-1,1.06-2.24,1.91-3.65,2.46l1.42-1.12c3.2-2.59,4.89-7.03,3.31-10.97,.46-1.51,.63-3.17,.82-4.75-.14-.61-.62-2.68-1.11-3.75-.38-1.09-1.4-3.06-1.64-3.62-.65-.69-1.5-1.42-2.4-1.7-1.2-1.21-2.52-1.66-3.9-1.66h0Z">
</path>
<path class="cls-2" d="M48.7,31.54s1.63-.67,2.4,1.05-.67,9.2-1.63,10.93c3.55-4.12,3.45-10.54,3.26-12.46s-2.3-2.59-4.03,.48">
</path>
<path class="cls-2" d="M21.71,37.75s4.68,3.56,8.31-.46c-3.69,7.58-6.53,4.88-8.31,.46Z">
</path>
<path d="M22.12,21.01c-1.12,2.19-2.39,5.65-2.69,7.52,.2,1.58,.39,3.25,.86,4.76-1.48,3.55-.21,7.75,2.68,10.23,.61,.63,1.33,1.22,1.96,1.85-.57-.21-1.15-.44-1.7-.72-3.97-2.22-5.68-7.35-4.15-11.61,0,0,0,.44,0,.44-.47-1.65-.68-3.28-.84-4.96,.45-2.89,1.66-5.45,3.01-7.99,0,0,.88,.47,.88,.47h0Z">
</path>
<path class="cls-7" d="M19.65,33.28s-1.62-4.45-3.85-3.89-1.02,9.72,1.02,13.24c1.94,2.96,4.44,2.31,4.44,2.31">
</path>
<path d="M47.1,41.63c-.91,4.82-1.57,9.72-3.29,14.35-.82,1.34-2.89,2.07-4.18,2.93-1.97,1.1-3.96,2.16-5.96,3.21-1.93-1.02-3.86-2.05-5.77-3.11-1.4-.85-2.88-1.49-4.11-2.62-.42-.6-.52-1.08-.71-1.6-1.17-4.08-1.8-8.2-2.5-12.37,0,0,.99-.15,.99-.15,.85,4.46,1.28,9.3,2.99,13.49,1.12,.94,2.55,1.63,3.83,2.39,1.82,1.02,3.66,2,5.51,2.98,0,0-.47,0-.47,0,3.13-1.73,6.45-3.25,9.34-5.35,1.91-4.47,2.49-9.53,3.59-14.27,0,0,.73,.13,.73,.13h0Z">
</path>
<path class="cls-7" d="M47.7,33.28s1.62-4.45,3.85-3.89,1.02,9.72-1.02,13.24c-1.94,2.96-4.44,2.31-4.44,2.31">
</path>
<path d="M36.27,34.38c-.3,.58-.6,1.15-.92,1.72v-.1c1.06,2.86,2.03,5.75,2.97,8.65-.48,.59-2.02,2.5-2.48,3.07-.2-.46-.43-1.29-.81-1.58,0,0,.05,.01,.08,0-.32,.34-1.07,1.41-1.45,1.96-.43-.63-.92-1.42-1.44-1.95-.09-.07,.03,.02,.09-.01-.38,.29-.6,1.13-.8,1.59,0,0-.52-.64-.52-.64l-1.82-2.25-.15-.19c.94-2.9,1.92-5.78,2.96-8.65,0,0,.01,.1,.01,.1-.32-.57-.62-1.15-.92-1.72,.39,.54,.78,1.08,1.15,1.64v.06c-.72,2.89-1.5,5.75-2.3,8.61,0,0-.08-.41-.08-.41l1.88,2.19-.82,.15c1.04-2.53,2.1-1.33,3.18,.32,0,0-.83,0-.83,0,.51-.63,.81-1.38,1.61-1.74,.89-.17,1.31,.79,1.57,1.42,0,0-.82-.14-.82-.14l1.88-2.19-.08,.41c-.8-2.86-1.58-5.73-2.29-8.61,0,0-.01-.06-.01-.06,.37-.55,.76-1.09,1.15-1.64h0Z">
</path>
<path d="M41.28,53.45c-.4-.59-.9-1.11-1.51-1.33-.51-.18-1.49-.24-2.06-.36-1.4-.23-2.77-.51-4.14-.8h.2c-1.7,.37-3.45,.71-5.18,.97-1.1,.04-1.91,.57-2.52,1.52,.2-.69,.63-1.33,1.28-1.77,2.02-.81,4.2-1.2,6.32-1.72,1.43,.33,2.86,.66,4.26,1.06l1.03,.29c1.09,.17,2.06,1.1,2.32,2.15h0Z">
</path>
<path d="M38.3,53.63c-.28,.87-1.34,1.14-2.17,1.16-1.82,.16-3.65,.14-5.46-.06-.66-.06-1.36-.48-1.57-1.1,.32,.27,.68,.42,1.04,.46,1.18-.02,2.38-.22,3.56-.18,.81,0,1.62,.03,2.43,.11,.76,.1,1.55,.19,2.17-.38h0Z">
</path>
<path d="M20.36,18.88c.38,.73,1.33,1.29,2.15,1.55,2.97,1.07,5.85,.06,8.68-1.34,3.68-1.71,9.01-4.29,12.39-.58,0,0-.26-.17-.26-.17,1.18,.45,2.08,1.21,2.87,2.14,1.27,2.58,2.43,5.16,2.87,8.04-.17,1.67-.4,3.29-.87,4.93,0,0,0-.38,0-.38,1.87,5-.92,10.42-5.78,12.3,0,0,1.42-1.12,1.42-1.12,3.2-2.59,4.89-7.03,3.31-10.97,.46-1.51,.63-3.17,.82-4.75-.13-.61-.61-2.68-1.11-3.75-.37-1.09-1.4-3.06-1.64-3.62-.65-.69-1.5-1.42-2.4-1.71-4.1-4.14-9.66,.61-14.1,1.93-2.92,1.04-7.52,.88-9.29-2.18-.28-.66,.7-1.04,.94-.35h0Z">
</path>
<path class="cls-8" d="M18.79,29.58s-1.64-2.8-.97-6.27c-2.31-6.33-.3-10.65,4.69-12.18s7.31,.37,9.74-.06c5.3-2.31,8.46-.12,9.74,2.44,7.73-2.01,8.28,3.47,8.22,5.54,2.86,2.56,0,10.65,0,10.65">
</path>
<polyline class="cls-8" points="23.78 55.37 22.9 64.31 8.54 68.53">
</polyline>
<polyline class="cls-8" points="43.72 55.37 44.6 64.31 58.96 68.53">
</polyline>
<path class="cls-9" d="M44,59.21s-1.04,3.37-9.09,4.61c-.35,.69-.77,1.51-1.16,2.25-.39-.74-.82-1.56-1.17-2.25-8.04-1.24-9.08-4.61-9.08-4.61">
</path>
<path class="cls-9" d="M22.9,64.31s3.25,5.56,10.8,5.56c8.29,0,10.9-5.56,10.9-5.56">
</path>
<line class="cls-9" x1="33.75" y1="66.07" x2="33.75" y2="74.97">
</line>
<path d="M29.41,65.61h2.36s-.03,2.18-1.35,2.51c-1.08-.54-1.02-2.51-1.02-2.51Z">
</path>
<path d="M35.87,65.61h2.36s-.03,2.18-1.35,2.51c-1.08-.54-1.02-2.51-1.02-2.51Z">
</path>
<path d="M20.8,31.68c.59-1.19,1.77-2.21,3.22-2.46,2.03,.87,4.03,2,6.24,2.12l-.12,1.45c-2.4-.2-4.41-1.58-6.34-2.83l.23,.04c-1.23,.06-2.41,.72-3.22,1.67h0Z">
</path>
<path d="M46.31,31.68c-.81-.96-1.99-1.62-3.22-1.67,0,0,.23-.04,.23-.04-1.93,1.25-3.94,2.63-6.34,2.83l-.12-1.45c2.2-.13,4.21-1.26,6.24-2.12,1.45,.25,2.63,1.27,3.22,2.46h0Z">
</path>
<path d="M22.35,35.58c1.99-2.4,5.37-2.54,7.73-.58-.84,2.18-2.79,4.14-5.27,3.03-.62-.3-1.2-.69-1.57-1.25,1.54,1.14,3.66,1.28,4.83-.26,.39-.43,.65-.99,.91-1.54l.16,.59c-2-1.6-4.68-1.38-6.8,.01h0Z">
</path>
<path d="M44.91,35.58c-2.11-1.39-4.8-1.61-6.8-.01,0,0,.16-.59,.16-.59,.26,.55,.52,1.11,.91,1.54,1.16,1.53,3.29,1.39,4.83,.26-.37,.56-.95,.95-1.57,1.25-2.48,1.11-4.42-.84-5.27-3.03,2.37-1.96,5.74-1.82,7.73,.58h0Z">
</path>
<path d="M29.7,27.11c2.73,.49,5.2,.23,7.9,0-2.23,1.61-5.74,1.84-7.9,0h0Z">
</path>
<path d="M31.43,24.65c1.55,.28,2.88,.14,4.43,0-1.26,.9-3.21,1.03-4.43,0h0Z">
</path>
<polygon points="28.86 58.95 32.06 56.94 31.39 54.57 36 54.57 35.33 56.94 38.52 58.95 33.67 61.56 28.86 58.95">
</polygon>
<path class="cls-1" d="M15.35,30.36c1,4.59,.83,9.26,3.29,13.2-1.97-1.41-2.74-3.89-3.15-6.16-.27-1.92-.6-5.38-.13-7.04h0Z">
</path>
<path class="cls-13" d="M19,13.38s4.06-3.29,9.47-2.29c-4.35,2.12-.53,2.47,2.47,1.18,3.82-2,8.94-1.76,10.29,1.65,2.35-.94,7.23-.71,7.94,3.18-1.76-3-6.83-2.72-9.94-1.06-.88-2.41-2.94-4.65-9.17-1.29s-5.06-3.82-11.05-1.35Z">
</path>
<polygon class="cls-13" points="37.31 59.24 33.81 61.3 31.01 59.62 34 60.43 37.31 59.24">
</polygon>
</g>
</g>
  <g
     id="g20645">
    <path
       style="fill:#808080;stroke:#4d4d4d;stroke-width:0.937908;stop-color:#000000;fill-opacity:1"
       d="m 9.541565,65.883425 a 5.4759801,5.4759801 0 0 1 5.47598,5.475981 5.4759801,5.4759801 0 0 1 -5.47598,5.47598 5.4759801,5.4759801 0 0 1 -5.4759806,-5.47598 5.4759801,5.4759801 0 0 1 5.4759806,-5.475981 z"/>
    <path
       style="fill:#808080;stroke:#4d4d4d;stroke-width:0.937908;stop-color:#000000;fill-opacity:1"
       d="m 59.472108,65.883425 a 5.4759801,5.4759801 0 0 1 5.47598,5.475981 5.4759801,5.4759801 0 0 1 -5.47598,5.47598 5.4759801,5.4759801 0 0 1 -5.475981,-5.47598 5.4759801,5.4759801 0 0 1 5.475981,-5.475981 z"/>
    <path
       id="path7641"
       style="fill:#808080;stroke:#4d4d4d;stroke-width:1.64416;stop-color:#000000"
       d="M 34.642578,1.1660156 C 13.787845,9.1047124 0.86132813,23.726855 0.86132812,39.564453 V 79.340489 H 68.152344 V 39.564453 c 0,-15.800978 -12.759199,-30.4148342 -33.509766,-38.3984374 z m -0.01367,3.8085938 C 53.384648,12.190722 64.917969,25.399665 64.917969,39.681641 v 26.507812 c -1.368656,-1.44106 -3.300993,-2.341797 -5.445313,-2.341797 -4.14856,0 -7.511718,3.363159 -7.511718,7.511719 0,2.347008 1.075662,4.442843 2.761718,5.820313 H 14.269531 c 1.756069,-1.422629 2.778281,-3.560307 2.783203,-5.820313 4.8e-5,-4.148627 -3.363091,-7.511766 -7.5117184,-7.511719 -2.0622939,0.0062 -4.0313164,0.860092 -5.4453125,2.361328 V 39.681641 c 0,-14.315076 11.6833059,-27.531508 30.5332029,-34.7070316 z"/>
    <circle
       style="fill:#4d4d4d;fill-opacity:1;stroke:#4d4d4d;stop-color:#000000"
       id="path16431"
       cx="9.6010828"
       cy="71.229652"
       r="5.06003" />
    <circle
       style="fill:#4d4d4d;fill-opacity:1;stroke:#4d4d4d;stop-color:#000000"
       id="path16431-3"
       cx="59.42292"
       cy="71.229652"
       r="5.06003" />
  </g>
</svg>
