<?xml version="1.0" encoding="UTF-8"?><svg id="Capa_2" xmlns="http://www.w3.org/2000/svg" xmlns:xlink="http://www.w3.org/1999/xlink" viewBox="0 0 69.02 80"><defs><style>.cls-1{fill:#c89aed;}.cls-2{fill:#fff;}.cls-3{fill:#f8ffbf;}.cls-4{fill:#7b7be8;}.cls-5{fill:#a88347;}.cls-6{fill:#782ab5;}.cls-7,.cls-8,.cls-9,.cls-10{stroke:#000;stroke-miterlimit:10;}.cls-7,.cls-8,.cls-10,.cls-11,.cls-12,.cls-13{fill:none;}.cls-8,.cls-11{stroke-linecap:round;}.cls-9{fill:#b83521;}.cls-14{fill:#1c46ff;}.cls-10{stroke-width:.75px;}.cls-11{stroke:#deb778;stroke-dasharray:0 0 0 4.06;stroke-linejoin:round;}.cls-15{fill:#deb778;}.cls-16{fill:url(#USGS_19_Inundación_de_tierra_2);}.cls-13{stroke:#1d1d1b;stroke-dasharray:0 0 2 2;stroke-width:.3px;}.cls-17{fill:#fcf0c5;}</style><pattern id="USGS_19_Inundación_de_tierra_2" x="0" y="0" width="72" height="72" patternTransform="translate(-308.48 -16135) rotate(-90)" patternUnits="userSpaceOnUse" viewBox="0 0 72 72"><g><rect class="cls-12" width="72" height="72"/><g><line class="cls-13" x1="71" y1="71" x2="144.44" y2="71"/><line class="cls-13" x1="71" y1="67" x2="144.44" y2="67"/><line class="cls-13" x1="71" y1="63" x2="144.44" y2="63"/><line class="cls-13" x1="71" y1="59" x2="144.44" y2="59"/><line class="cls-13" x1="71" y1="55" x2="144.44" y2="55"/><line class="cls-13" x1="71" y1="51" x2="144.44" y2="51"/><line class="cls-13" x1="71" y1="47" x2="144.44" y2="47"/><line class="cls-13" x1="71" y1="43" x2="144.44" y2="43"/><line class="cls-13" x1="71" y1="39" x2="144.44" y2="39"/><line class="cls-13" x1="71" y1="35" x2="144.44" y2="35"/><line class="cls-13" x1="71" y1="31" x2="144.44" y2="31"/><line class="cls-13" x1="71" y1="27" x2="144.44" y2="27"/><line class="cls-13" x1="71" y1="23" x2="144.44" y2="23"/><line class="cls-13" x1="71" y1="19" x2="144.44" y2="19"/><line class="cls-13" x1="71" y1="15" x2="144.44" y2="15"/><line class="cls-13" x1="71" y1="11" x2="144.44" y2="11"/><line class="cls-13" x1="71" y1="7" x2="144.44" y2="7"/><line class="cls-13" x1="71" y1="3" x2="144.44" y2="3"/></g><g><line class="cls-13" x1="-1" y1="71" x2="72.44" y2="71"/><line class="cls-13" x1="-1" y1="67" x2="72.44" y2="67"/><line class="cls-13" x1="-1" y1="63" x2="72.44" y2="63"/><line class="cls-13" x1="-1" y1="59" x2="72.44" y2="59"/><line class="cls-13" x1="-1" y1="55" x2="72.44" y2="55"/><line class="cls-13" x1="-1" y1="51" x2="72.44" y2="51"/><line class="cls-13" x1="-1" y1="47" x2="72.44" y2="47"/><line class="cls-13" x1="-1" y1="43" x2="72.44" y2="43"/><line class="cls-13" x1="-1" y1="39" x2="72.44" y2="39"/><line class="cls-13" x1="-1" y1="35" x2="72.44" y2="35"/><line class="cls-13" x1="-1" y1="31" x2="72.44" y2="31"/><line class="cls-13" x1="-1" y1="27" x2="72.44" y2="27"/><line class="cls-13" x1="-1" y1="23" x2="72.44" y2="23"/><line class="cls-13" x1="-1" y1="19" x2="72.44" y2="19"/><line class="cls-13" x1="-1" y1="15" x2="72.44" y2="15"/><line class="cls-13" x1="-1" y1="11" x2="72.44" y2="11"/><line class="cls-13" x1="-1" y1="7" x2="72.44" y2="7"/><line class="cls-13" x1="-1" y1="3" x2="72.44" y2="3"/><line class="cls-13" x1="1.04" y1="69" x2="74.48" y2="69"/><line class="cls-13" x1="1.04" y1="65" x2="74.48" y2="65"/><line class="cls-13" x1="1.04" y1="61" x2="74.48" y2="61"/><line class="cls-13" x1="1.04" y1="57" x2="74.48" y2="57"/><line class="cls-13" x1="1.04" y1="53" x2="74.48" y2="53"/><line class="cls-13" x1="1.04" y1="49" x2="74.48" y2="49"/><line class="cls-13" x1="1.04" y1="45" x2="74.48" y2="45"/><line class="cls-13" x1="1.04" y1="41" x2="74.48" y2="41"/><line class="cls-13" x1="1.04" y1="37" x2="74.48" y2="37"/><line class="cls-13" x1="1.04" y1="33" x2="74.48" y2="33"/><line class="cls-13" x1="1.04" y1="29" x2="74.48" y2="29"/><line class="cls-13" x1="1.04" y1="25" x2="74.48" y2="25"/><line class="cls-13" x1="1.04" y1="21" x2="74.48" y2="21"/><line class="cls-13" x1="1.04" y1="17" x2="74.48" y2="17"/><line class="cls-13" x1="1.04" y1="13" x2="74.48" y2="13"/><line class="cls-13" x1="1.04" y1="9" x2="74.48" y2="9"/><line class="cls-13" x1="1.04" y1="5" x2="74.48" y2="5"/><line class="cls-13" x1="1.04" y1="1" x2="74.48" y2="1"/></g><g><line class="cls-13" x1="-73" y1="71" x2=".44" y2="71"/><line class="cls-13" x1="-73" y1="67" x2=".44" y2="67"/><line class="cls-13" x1="-73" y1="63" x2=".44" y2="63"/><line class="cls-13" x1="-73" y1="59" x2=".44" y2="59"/><line class="cls-13" x1="-73" y1="55" x2=".44" y2="55"/><line class="cls-13" x1="-73" y1="51" x2=".44" y2="51"/><line class="cls-13" x1="-73" y1="47" x2=".44" y2="47"/><line class="cls-13" x1="-73" y1="43" x2=".44" y2="43"/><line class="cls-13" x1="-73" y1="39" x2=".44" y2="39"/><line class="cls-13" x1="-73" y1="35" x2=".44" y2="35"/><line class="cls-13" x1="-73" y1="31" x2=".44" y2="31"/><line class="cls-13" x1="-73" y1="27" x2=".44" y2="27"/><line class="cls-13" x1="-73" y1="23" x2=".44" y2="23"/><line class="cls-13" x1="-73" y1="19" x2=".44" y2="19"/><line class="cls-13" x1="-73" y1="15" x2=".44" y2="15"/><line class="cls-13" x1="-73" y1="11" x2=".44" y2="11"/><line class="cls-13" x1="-73" y1="7" x2=".44" y2="7"/><line class="cls-13" x1="-73" y1="3" x2=".44" y2="3"/><line class="cls-13" x1="-70.96" y1="69" x2="2.48" y2="69"/><line class="cls-13" x1="-70.96" y1="65" x2="2.48" y2="65"/><line class="cls-13" x1="-70.96" y1="61" x2="2.48" y2="61"/><line class="cls-13" x1="-70.96" y1="57" x2="2.48" y2="57"/><line class="cls-13" x1="-70.96" y1="53" x2="2.48" y2="53"/><line class="cls-13" x1="-70.96" y1="49" x2="2.48" y2="49"/><line class="cls-13" x1="-70.96" y1="45" x2="2.48" y2="45"/><line class="cls-13" x1="-70.96" y1="41" x2="2.48" y2="41"/><line class="cls-13" x1="-70.96" y1="37" x2="2.48" y2="37"/><line class="cls-13" x1="-70.96" y1="33" x2="2.48" y2="33"/><line class="cls-13" x1="-70.96" y1="29" x2="2.48" y2="29"/><line class="cls-13" x1="-70.96" y1="25" x2="2.48" y2="25"/><line class="cls-13" x1="-70.96" y1="21" x2="2.48" y2="21"/><line class="cls-13" x1="-70.96" y1="17" x2="2.48" y2="17"/><line class="cls-13" x1="-70.96" y1="13" x2="2.48" y2="13"/><line class="cls-13" x1="-70.96" y1="9" x2="2.48" y2="9"/><line class="cls-13" x1="-70.96" y1="5" x2="2.48" y2="5"/><line class="cls-13" x1="-70.96" y1="1" x2="2.48" y2="1"/></g></g></pattern></defs><g id="BG"><g><path class="cls-6" d="M64.02,40c0,11.47-1.89,22.39-5.5,31.74-7.2,2.16-14.94,3.26-23.02,3.26-.49,0-.98-.01-1.47-.02h-.17c-8.18-.15-16.29-1.47-23.6-3.85-3.45-9.22-5.26-19.93-5.26-31.13s1.89-22.38,5.48-31.73c6.73-2.01,14.13-3.13,21.6-3.26,.48-.01,.97-.01,1.45-.01,.54,0,1.08,.01,1.63,.02,8.16,.15,16.27,1.47,23.59,3.84,3.46,9.24,5.27,19.95,5.27,31.14Z"/><path class="cls-16" d="M34.03,5.59V74.98h-.17c-8.18-.15-16.29-1.47-23.6-3.85-3.45-9.22-5.26-19.93-5.26-31.13s1.89-22.38,5.48-31.73c6.73-2.01,14.13-3.13,21.6-3.26,.65,.16,1.3,.36,1.95,.58Z"/></g></g><g id="Characters"><g><path class="cls-1" d="M62.36,60.93l-1.74,13.37s-8.29,2.8-23,4.27c-14.7,1.47-28.87-4.01-28.87-4.01,0,0-.81-.26-1.61-12.83,3.88-2.41,9.76-3.48,9.76-3.48l.26-3.58-.66-.96c-.54-2.14-.4-9.09-.4-9.09,0,0-3.08-.81-2.14-4.42-.94-1.73-.13-3.87-.13-3.87,0,0-2.01-6.55-.81-8.16,1.21-1.6,3.48-.13,3.48-.13l1.34-2.27s-1.07-3.21,1.47-8.56c6.01-9.36,17.64-7.35,17.64-7.35,0,0,.26,.04,.72,.11h.03c1.37,.23,4.43,.81,7.29,1.84,3.78,1.37,6.61,4.62,7.34,8.58,.55,3.03,.48,5.85,.48,5.85l1.66,1.66c3.74-2.54,5.48,1.21,2.81,8.69,.53,1.48-.27,4.68-.27,4.68,0,0,.67,3.08-2.01,3.21,.4,1.74-.8,8.96-.8,8.96l-.57,1.26-.1,.21s.13,.74,.61,3.3c.02,.1,.04,.2,.06,.31,1.74,.4,8.16,2.41,8.16,2.41Z"/><path class="cls-2" d="M57.01,41.27s.67,3.08-2.01,3.21c.03,.1,.04,.23,.05,.37,.21,2.2-.85,8.59-.85,8.59l-.57,1.26c-.5,.46-1.03,.97-1.61,1.55-8.49,6.7-16.39,6.7-16.39,6.7V9.86l2.04,.11h.03c1.37,.23,4.43,.81,7.29,1.84,3.78,1.37,6.61,4.62,7.34,8.58,.55,3.03,.48,5.85,.48,5.85l1.66,1.66c.08-.05,.16-.1,.23-.15,3.58-2.23,5.19,1.52,2.58,8.84,.53,1.48-.27,4.68-.27,4.68Z"/><path d="M62.36,60.93l-1.74,13.37s-8.29,2.8-23,4.27c-14.7,1.47-28.87-4.01-28.87-4.01,0,0-.81-.26-1.61-12.83,3.88-2.41,9.76-3.48,9.76-3.48,0,0,2.22,11.01,17.96,11.23,15.4,.11,18.97-10.22,19.28-11.27,.02,.1,.04,.2,.06,.31,1.74,.4,8.16,2.41,8.16,2.41Z"/><path class="cls-3" d="M21.23,36.09s6.17-.99,9.29-.35c-3.97,1.99-4.68,2.13-4.68,2.13,0,0-3.76-.71-4.61-1.77Z"/><path class="cls-3" d="M49.89,36.09s-6.17-.99-9.29-.35c3.97,1.99,4.68,2.13,4.68,2.13,0,0,3.76-.71,4.61-1.77Z"/><path class="cls-2" d="M29.62,52.98s.92-2.34,1.77-2.86c-.11,1.72,.51,2.57,.51,2.57l-2.29,.29Z"/><path class="cls-2" d="M38.84,52.67l1.01-2.23s1.42,1.17,1.62,2.38c-1.62,0-2.63-.15-2.63-.15Z"/><path d="M16.33,28.29s-1.71-1.71-3.29-.34c-1.1,2.4,.48,8.97,.48,8.97,0,0-.55,2.94,.41,4.04-.34,3.08,1.03,3.9,1.78,4.04,.48-2.12,.75-2.88,.75-2.88l-.68-1.78s1.37-5.96,2.12-6.92c-1.78-2.74-2.4-4.38-1.58-5.14Z"/><path d="M53.63,55.66l-16.85,18.87s-21.3-.64-26.29-3.5c-2.33-6.57-2.54-9.96-2.54-9.96l8.95-2.81,.26-3.58,5.41,3.53,.21,1.91s6.15,5.41,18.23,3.39c5.3-1.59,7.21-3.29,7.21-3.29l.21-1.91,5.21-3.49-.02,.84Z"/><path class="cls-14" d="M9.82,62.37s5.49-2.52,7.7-2.82c-3.58,3.51-7.7,2.82-7.7,2.82Z"/><path class="cls-1" d="M35.2,11.16c2.85,0,5.64,.51,8.09,1.47,3,1.17,5.05,2.59,6.26,4.33,1.34,2.68,2,6.44,1.65,9.38-.04,.31,.07,.62,.3,.84,.77,.75,1.34,1.5,1.67,2.19-.05,.63-.92,2.46-1.88,3.5-.28,.31-.34,.75-.16,1.12l.17,.35c1.13,2.23,1.79,4.19,2.01,5.98-1.26,2.14-2.63,4.15-4.17,6.12-.3,.39-.28,.94,.06,1.3,.2,.21,.46,.31,.73,.31,.2,0,.4-.06,.57-.18,.98-.68,1.9-1.49,2.79-2.46,.17,1.97,.21,4.71-.39,7.56-.91,1.13-2.01,2.01-2.95,2.64-.19-3.76-.84-6.12-.84-6.14l-.98-3.61c-.12-.44-.52-.74-.96-.74-.04,0-.09,0-.13,0-.5,.07-.87,.49-.87,.99v3.74c0,.05-.04,4.97-1.77,8.03-.14,.03-.33,.05-.58,.05-1.01,0-2.36-.36-3.46-.76l.33-1.58c.11-.51-.2-1.03-.71-1.17l-.46-.13s-.06-.01-.07-.02c-.51-.12-1.91-.41-3.7-.41-1.44,0-2.82,.18-4.1,.53l-.46,.12c-.52,.14-.84,.66-.72,1.18l.1,.45c.1,.48,.18,.87,.24,1.18-.56,.16-1.51,.34-2.98,.34-.47,0-.97-.02-1.49-.05-1.01-2.54-1.54-7.05-1.65-8.02l-.46-4.63c-.05-.51-.48-.9-.99-.9,0,0,0,0,0,0-.51,0-.94,.38-.99,.89l-.53,4.61s-.37,3.17-.56,6.17c-1.11-.72-2.32-1.66-3.24-2.79-.58-2.77-.57-5.43-.4-7.44,.31,.34,.64,.67,.97,.98,.56,.5,1.11,.99,1.74,1.39,.17,.11,.35,.16,.54,.16,.27,0,.54-.11,.74-.33,.33-.36,.35-.9,.05-1.29-1.55-2-2.93-4.01-4.21-6.13,.1-.84,.32-1.76,.66-2.78,.42-1.22,.93-2.4,1.52-3.5,.19-.35,.15-.78-.1-1.09-.57-.72-1.87-2.37-1.88-3.66,.25-.46,1.04-1.61,1.58-2.04,.26-.21,.4-.55,.36-.88-.09-.83-.11-1.71-.06-2.65,.07-2.07,.77-4.81,1.71-6.71,3.02-3.7,8.15-5.82,14.1-5.82m0-1c-5.7,0-11.49,1.97-14.94,6.28-.96,1.9-1.78,4.8-1.86,7.22-.05,.94-.03,1.89,.07,2.79-.73,.6-1.75,2.13-1.93,2.56-.14,1.58,1.1,3.3,2.08,4.54-.62,1.16-1.15,2.39-1.58,3.65-.36,1.09-.64,2.21-.74,3.33,1.35,2.27,2.82,4.42,4.45,6.52-.58-.37-1.1-.83-1.61-1.29-.86-.81-1.63-1.7-2.34-2.65-.32,1.89-.79,5.98,.17,10.3,1.5,1.92,3.71,3.31,5.09,4.06,.11-3.23,.6-7.52,.63-7.75l.53-4.63,.46,4.63c.01,.07,.62,6.08,1.97,8.87,.81,.07,1.54,.1,2.17,.1,2.5,0,3.68-.47,4.11-.71-.06-.35-.18-1-.39-2.01l-.1-.46,.46-.12c1.38-.38,2.71-.5,3.85-.5,1.99,0,3.41,.37,3.5,.39l.46,.13-.51,2.41c1.09,.46,3.09,1.14,4.62,1.14,.48,0,.91-.07,1.25-.23,2.07-3.29,2.1-8.8,2.1-8.86v-3.74l.98,3.61c.04,.14,.82,3.09,.86,7.61,1.18-.63,3.27-1.93,4.83-3.94,.98-4.41,.48-8.57,.16-10.41-1.15,1.54-2.48,2.95-4.06,4.05,1.63-2.09,3.09-4.25,4.41-6.52-.22-2.3-1.11-4.6-2.15-6.65l-.17-.34c1-1.09,2.26-3.41,2.13-4.41-.42-.99-1.19-1.92-1.96-2.67,.4-3.31-.41-7.31-1.78-10.01-1.55-2.26-4.13-3.72-6.76-4.75-2.57-1.01-5.5-1.54-8.46-1.54h0Z"/><path class="cls-1" d="M57.01,41.27s.67,3.08-2.01,3.21c.03,.1,.04,.23,.05,.37l-.77-2.68,.73-1.91-2.2-6.53,1.98-5.43c-.04-.19-.07-.38-.09-.55,3.58-2.23,5.19,1.52,2.58,8.84,.53,1.48-.27,4.68-.27,4.68Z"/><path class="cls-2" d="M21.07,38.61s3.31,2.38,7.73,.25c-4.33,5.69-7.13,3.14-7.73-.25Z"/><path class="cls-4" d="M33.36,32.83s.36,1.72-2.84,2.9c-4.45-1.52-10.48,.43-10.48,.43,0,0-1.76-2.2,1.13-3.83s12.18,.5,12.18,.5Z"/><path class="cls-4" d="M37.6,32.83s-.36,1.72,2.84,2.9c4.45-1.52,10.48,.43,10.48,.43,0,0,1.76-2.2-1.13-3.83s-12.18,.5-12.18,.5Z"/><path class="cls-2" d="M51.9,58.67l-6.55,7.54s7.48-3.9,6.55-7.54Z"/><path d="M49.94,47.05c1.66-2.14,3.15-4.35,4.5-6.68,0,0-.07,.31-.07,.31-.2-2.35-1.11-4.71-2.17-6.81,0,0-.17-.33-.17-.33,1.01-1.09,2.27-3.41,2.13-4.42-.42-.99-1.19-1.92-1.96-2.67,.41-3.31-.4-7.31-1.78-10.02-1.55-2.25-4.13-3.71-6.76-4.74-7.52-2.96-18.16-1.81-23.41,4.74-.96,1.9-1.78,4.8-1.85,7.22-.05,.94-.04,1.89,.07,2.79-.73,.59-1.75,2.13-1.93,2.55-.14,1.59,1.11,3.31,2.08,4.54-.62,1.16-1.15,2.39-1.57,3.65-.38,1.14-.67,2.32-.76,3.49l-.07-.29c1.37,2.32,2.87,4.52,4.53,6.66-.58-.37-1.09-.83-1.61-1.29-1.55-1.45-2.82-3.16-3.89-4.99,.18-2.64,1.1-5.07,2.25-7.42,0,0,.06,.6,.06,.6-1.12-1.49-2.32-3.17-2.13-5.14,.43-1.17,1.19-2.1,2.04-2.99,0,0-.17,.48-.17,.48-.33-3.62,.31-7.29,1.94-10.55,5.49-7.13,16.94-8.51,24.89-5.26,2.75,1.11,5.55,2.65,7.34,5.29,1.6,3.26,2.26,6.91,1.93,10.53,0,0-.18-.5-.18-.5,.84,.86,1.54,1.75,2.02,2.88,.33,2.01-.97,3.77-2.11,5.28,0,0,.07-.63,.07-.63,1.17,2.35,2.09,4.79,2.28,7.44-1.44,2.4-3.22,4.66-5.53,6.27h0Z"/><path class="cls-7" d="M16.28,28.61s-1.24-2.14-2.99-.85,.4,9.11,.4,9.11c0,0-1,2.09,.3,4.18-1.05,3.09,1.84,3.68,1.84,3.68"/><path class="cls-7" d="M16.53,41.89s-1.41,5.63-.02,11.74c2.41,3.15,6.62,4.93,6.62,4.93"/><path class="cls-7" d="M54.53,28.61s1.24-2.14,2.99-.85-.4,9.11-.4,9.11c0,0,1,2.09-.3,4.18,1.05,3.09-1.84,3.68-1.84,3.68"/><path class="cls-7" d="M54.28,41.89s1.41,5.63,.02,11.74c-2.41,3.15-6.02,4.63-6.02,4.63"/><path class="cls-7" d="M17.16,54.67l-.3,3.51s-4.91,1.52-10.01,3.71"/><path class="cls-7" d="M53.6,54.45l.52,3.74s4.91,1.52,10.01,3.71"/><path class="cls-9" d="M23.18,49.77s-.85,7.39-.6,10.14c3.7,4.25,18.44,6.7,25.88-.1,.3-5.9-.8-9.94-.8-9.94,0,0,0,5.8-2.25,9.24-2.1,1.15-6.8-1-6.8-1l.5-2.35s-3.4-.9-7.09,.1c.35,1.65,.45,2.35,.45,2.35,0,0-1.45,1.4-7.14,.85-1.5-2.8-2.15-9.29-2.15-9.29Z"/><path d="M25.66,55.72c.77-1.21,1.65-2.35,2.92-3.1,2.28-.38,4.54-.41,6.83-.44,2.28,0,4.56,.07,6.84,.29,.68,.44,1.31,.95,1.84,1.55,.51,.58,.98,1.2,1.32,1.88-.75-1.07-2.78-2.43-3.29-2.75-2.23,0-7.9,.02-10.05,.02-.96-.02-2.67,.07-3.22,.05-1.2,.55-2.23,1.55-3.18,2.5h0Z"/><path class="cls-10" d="M29.53,52.83s.18-1.41,1.69-2.51c.1,1.13,.82,2.38,.82,2.38"/><path class="cls-10" d="M41.37,52.83s-.18-1.41-1.69-2.51c-.1,1.13-.82,2.38-.82,2.38"/><path d="M39.17,40.64c2.74,.81,4.49,2.32,2.02,4.88-1.37-.26-2.8,.44-3.32,1.77-.07,.14-.03,.15-.19,.21-.66,.26-1.56,.18-2.25,.23-.72-.03-1.58,.04-2.26-.21,0,0-.12-.06-.12-.06-.28-.64-.7-1.25-1.31-1.56-.61-.35-1.4-.42-2.08-.31-.72-.64-1.19-1.5-1.24-2.47,.03-1.04,1.02-1.54,1.77-1.94,.49-.23,.99-.42,1.51-.53-.79,.59-1.73,1.19-2.28,1.96-.44,.7,.3,1.72,.65,2.33,0,0-.36-.11-.36-.11,.44-.1,.82-.11,1.24-.08,1.28,.09,2.41,.99,2.92,2.15,0,0-.2-.22-.2-.22-.06-.04,0,0,.07,0l.22,.02c.31,.03,1.16,.04,1.47,.05,.32,0,1.17,0,1.47-.03,0,0,.23-.02,.23-.02,.07,0,.13-.03,.08,0l-.19,.21c.35-.75,.94-1.43,1.71-1.78,.76-.37,1.59-.41,2.42-.23,0,0-.3,.09-.3,.09,.37-.57,.72-1.24,.82-1.92-.16-1.06-1.66-1.79-2.49-2.42h0Z"/><path d="M19.95,33.35s2.89-1.97,5.82-1.03,6.71,2.33,6.71,2.33c0,0,2-1.46,1.87-4.17-1.65,1.79-5.11-.16-8.01-.05s-5.28,1.54-6.38,2.92Z"/><path d="M51.11,33.35s-2.89-1.97-5.82-1.03-6.71,2.33-6.71,2.33c0,0-2-1.46-1.87-4.17,1.65,1.79,5.11-.16,8.01-.05s5.28,1.54,6.38,2.92Z"/><path d="M30.49,35.81c-.02,.13,.15,.27,.2,.26,0,0-.07-.01-.07-.01-2.99-.5-6.3-.57-9.11,.61,0,0,.09-.96,.09-.96,1.2,.8,2.64,1.56,4.08,1.56,1.24-.39,3.28-.98,4.7-1.66,0,0,.07-.03,.07-.03-.07,.05-.03,.19,.05,.24h0Zm.69-.13c-.03,.15-.2,.42-.38,.51-1.56,.84-3.25,1.38-4.92,1.97-2.17,.2-4.09-1.02-5.84-2.13,3.37-1.42,7.06-1.44,10.57-.69,.2,.04,.5,.09,.57,.35h0Z"/><path d="M39.81,35.68c.08-.26,.37-.31,.57-.35,3.51-.75,7.2-.73,10.57,.7-1.75,1.11-3.66,2.33-5.84,2.13-1.67-.58-3.36-1.13-4.92-1.97-.18-.09-.35-.36-.38-.51h0Zm.69,.13c.08-.05,.12-.19,.05-.24,.12,.06,.23,.12,.36,.17,1.34,.59,3.27,1.17,4.41,1.52,1.45,0,2.88-.76,4.08-1.56,0,0,.09,.96,.09,.96-2.82-1.18-6.12-1.11-9.11-.61,0,0-.07,.01-.07,.01,.06,0,.21-.14,.2-.26h0Z"/><path d="M47.48,26.23c-3.45-.55-9.02-1.9-11.65,.72,0,0-.35,.39-.35,.39-.11-.12-.41-.45-.51-.56,0,0,.02,.03,.02,.03-.59-.65-1.52-.99-2.46-1.17-2.99-.52-6.07,.04-9.06,.6,3.59-1.31,9.02-2.97,12.26-.1,.02,.02,.09,.1,.11,.12,0,0-.71,0-.71,0l.08-.09c3.18-2.9,8.71-1.24,12.27,.07h0Z"/><path class="cls-8" d="M16.86,58.18s2.3,11.28,18.62,11.28,18.63-11.28,18.63-11.28"/></g></g><g id="Frame"><path class="cls-5" d="M62.56,4.88C54.4,1.94,45.12,.2,35.25,.02c-.57-.01-1.15-.02-1.72-.02C23.88,0,14.77,1.52,6.72,4.21,2.49,14.22,0,26.6,0,40s2.39,25.22,6.45,35.11c8.16,2.94,17.45,4.69,27.32,4.87,.58,.01,1.15,.02,1.73,.02,9.63,0,18.73-1.51,26.78-4.2,4.24-10.01,6.74-22.39,6.74-35.8s-2.4-25.24-6.46-35.12Zm-4.04,66.86c-7.2,2.16-14.94,3.26-23.02,3.26-.49,0-.98-.01-1.47-.02h-.17c-8.18-.15-16.29-1.47-23.6-3.85-3.45-9.22-5.26-19.93-5.26-31.13s1.89-22.38,5.48-31.73c6.73-2.01,14.13-3.13,21.6-3.26,.48-.01,.97-.01,1.45-.01,.54,0,1.08,.01,1.63,.02,8.16,.15,16.27,1.47,23.59,3.84,3.46,9.24,5.27,19.95,5.27,31.14s-1.89,22.39-5.5,31.74Z"/><path class="cls-15" d="M17.21,2.06h0c1.63,.63,2.06,2.75,.81,3.97l-1.26,1.22s8.35-2.37,18.84-1.69h0c-1-1.49-.45-3.52,1.14-4.34l1-.51S28.26-.43,17.21,2.06Z"/><path class="cls-17" d="M21.81,1.66s.7,2.18-.22,3.1c3.77-.41,7.98-.74,11.12-.74-.33-1.33,1.26-3.4,1.26-3.4,0,0-6.17-.26-12.16,1.03Z"/><path class="cls-15" d="M36.25,79.21h0c-1.52-.87-1.62-3.03-.2-4.04l1.43-1.02s-8.61,1.07-18.88-1.19h0c.76,1.63-.09,3.55-1.79,4.11l-1.07,.36s9.19,2.56,20.5,1.78Z"/><path class="cls-17" d="M19.28,77.8s1.76-1.83,1.3-3.09c4.43,.69,9.11,1.14,12.25,1.14-.33,1.33,.44,3.4,.44,3.4,0,0-8-.16-13.99-1.45Z"/><polygon points="47.48 1.77 47.48 6.73 54.49 8.44 54.49 2.62 47.48 1.77"/><line class="cls-7" x1="45.5" y1="1.23" x2="45.5" y2="6.29"/><line class="cls-7" x1="56.47" y1="3.67" x2="56.47" y2="8.73"/><polygon points="47.48 78.74 47.48 73.78 54.49 72.07 54.49 77.88 47.48 78.74"/><line class="cls-7" x1="45.5" y1="79.28" x2="45.5" y2="74.21"/><line class="cls-7" x1="56.47" y1="76.84" x2="56.47" y2="71.77"/><path d="M33.53,1c.56,0,1.14,0,1.7,.02,9.39,.17,18.33,1.74,26.57,4.65,4.07,10.08,6.22,21.94,6.22,34.33s-2.24,24.79-6.49,34.99c-8.12,2.66-16.87,4.01-26.03,4.01-.56,0-1.12,0-1.71-.02-9.25-.17-18.42-1.78-26.58-4.66C3.15,64.25,1,52.39,1,40S3.23,15.21,7.47,5.02C15.6,2.35,24.37,1,33.53,1m0-1C23.88,0,14.77,1.52,6.72,4.21,2.49,14.22,0,26.6,0,40s2.39,25.22,6.45,35.11c8.16,2.94,17.45,4.69,27.32,4.87,.58,.01,1.15,.02,1.73,.02,9.63,0,18.73-1.51,26.78-4.2,4.24-10.01,6.74-22.39,6.74-35.8s-2.4-25.24-6.46-35.12C54.4,1.94,45.12,.2,35.25,.02c-.57,0-1.15-.02-1.72-.02h0Z"/><path class="cls-15" d="M33.53,6c.52,0,1.04,0,1.61,.02,7.87,.14,15.75,1.4,22.84,3.64,3.3,9,5.04,19.47,5.04,30.34s-1.82,21.82-5.26,30.92c-6.98,2.04-14.47,3.08-22.26,3.08-.48,0-.97,0-1.47-.02h-.15c-7.89-.14-15.78-1.41-22.85-3.65-3.29-8.99-5.03-19.46-5.03-30.33s1.81-21.79,5.24-30.91c6.5-1.89,13.7-2.95,20.86-3.08,.47,0,.96,0,1.43,0m0-1c-.48,0-.97,0-1.45,.01-7.47,.13-14.87,1.25-21.6,3.26-3.59,9.35-5.48,20.26-5.48,31.73s1.81,21.91,5.26,31.13c7.31,2.38,15.42,3.7,23.6,3.85h.17c.49,.01,.98,.02,1.47,.02,8.08,0,15.82-1.1,23.02-3.26,3.61-9.35,5.5-20.27,5.5-31.74s-1.81-21.9-5.27-31.14c-7.32-2.37-15.43-3.69-23.59-3.84-.55,0-1.09-.02-1.63-.02h0Z"/><path d="M33.53,5c.54,0,1.08,.01,1.63,.02,8.16,.15,16.27,1.47,23.59,3.84,3.46,9.24,5.27,19.95,5.27,31.14s-1.89,22.39-5.5,31.74c-7.2,2.16-14.94,3.26-23.02,3.26-.49,0-.98-.01-1.47-.02h-.17c-8.18-.15-16.29-1.47-23.6-3.85-3.45-9.22-5.26-19.93-5.26-31.13s1.89-22.38,5.48-31.73c6.73-2.01,14.13-3.13,21.6-3.26,.48-.01,.97-.01,1.45-.01m0-1c-.49,0-.98,0-1.47,.01-7.51,.13-15.07,1.27-21.87,3.3l-.47,.14-.18,.46c-3.63,9.45-5.55,20.55-5.55,32.09s1.84,22.17,5.32,31.48l.17,.45,.46,.15c7.37,2.4,15.63,3.75,23.89,3.9h.19c.48,.01,.97,.02,1.47,.02,8.16,0,16-1.11,23.31-3.3l.47-.14,.18-.46c3.64-9.43,5.57-20.53,5.57-32.1s-1.84-22.17-5.33-31.49l-.17-.45-.46-.15c-7.39-2.39-15.65-3.74-23.88-3.89-.58-.01-1.12-.02-1.65-.02h0Z"/><path class="cls-11" d="M8.14,7.1s-12.66,32.94,0,66.06"/><path class="cls-11" d="M60.88,7.58s12.66,32.94,0,66.06"/></g></svg>