<svg id="Capa_2" xmlns="http://www.w3.org/2000/svg" xmlns:xlink="http://www.w3.org/1999/xlink" viewBox="0 0 69.02 80">
<defs >
<style >
.cls-1{fill:#c89aed;}.cls-2{fill:#fff;}.cls-3{fill:#f8ffbf;}.cls-4{fill:#7b7be8;}.cls-5,.cls-6,.cls-7{stroke:#000;}.cls-5,.cls-6,.cls-7,.cls-8,.cls-9,.cls-10{fill:none;}.cls-5,.cls-7,.cls-8{stroke-linejoin:round;}.cls-11{fill:#a88347;}.cls-12{fill:#782ab5;}.cls-6{stroke-miterlimit:10;}.cls-13{fill:#1c46ff;}.cls-7,.cls-8{stroke-linecap:round;}.cls-8{stroke:#deb778;stroke-dasharray:0 0 0 4.06;}.cls-14{fill:#deb778;}.cls-15{fill:url(#USGS_19_Inundación_de_tierra_2);}.cls-10{stroke:#1d1d1b;stroke-dasharray:0 0 2 2;stroke-width:.3px;}.cls-16{fill:#ccbc64;}.cls-17{fill:#fcf0c5;}.cls-18{fill:#b83521;}
</style>
<pattern id="USGS_19_Inundación_de_tierra_2" x="0" y="0" width="72" height="72" patternTransform="translate(-92.48 -16999) rotate(-90)" patternUnits="userSpaceOnUse" viewBox="0 0 72 72">
<g >
<rect class="cls-9" width="72" height="72">
</rect>
<g >
<line class="cls-10" x1="71" y1="71" x2="144.44" y2="71">
</line>
<line class="cls-10" x1="71" y1="67" x2="144.44" y2="67">
</line>
<line class="cls-10" x1="71" y1="63" x2="144.44" y2="63">
</line>
<line class="cls-10" x1="71" y1="59" x2="144.44" y2="59">
</line>
<line class="cls-10" x1="71" y1="55" x2="144.44" y2="55">
</line>
<line class="cls-10" x1="71" y1="51" x2="144.44" y2="51">
</line>
<line class="cls-10" x1="71" y1="47" x2="144.44" y2="47">
</line>
<line class="cls-10" x1="71" y1="43" x2="144.44" y2="43">
</line>
<line class="cls-10" x1="71" y1="39" x2="144.44" y2="39">
</line>
<line class="cls-10" x1="71" y1="35" x2="144.44" y2="35">
</line>
<line class="cls-10" x1="71" y1="31" x2="144.44" y2="31">
</line>
<line class="cls-10" x1="71" y1="27" x2="144.44" y2="27">
</line>
<line class="cls-10" x1="71" y1="23" x2="144.44" y2="23">
</line>
<line class="cls-10" x1="71" y1="19" x2="144.44" y2="19">
</line>
<line class="cls-10" x1="71" y1="15" x2="144.44" y2="15">
</line>
<line class="cls-10" x1="71" y1="11" x2="144.44" y2="11">
</line>
<line class="cls-10" x1="71" y1="7" x2="144.44" y2="7">
</line>
<line class="cls-10" x1="71" y1="3" x2="144.44" y2="3">
</line>
</g>


<g >
<line class="cls-10" x1="-1" y1="71" x2="72.44" y2="71">
</line>
<line class="cls-10" x1="-1" y1="67" x2="72.44" y2="67">
</line>
<line class="cls-10" x1="-1" y1="63" x2="72.44" y2="63">
</line>
<line class="cls-10" x1="-1" y1="59" x2="72.44" y2="59">
</line>
<line class="cls-10" x1="-1" y1="55" x2="72.44" y2="55">
</line>
<line class="cls-10" x1="-1" y1="51" x2="72.44" y2="51">
</line>
<line class="cls-10" x1="-1" y1="47" x2="72.44" y2="47">
</line>
<line class="cls-10" x1="-1" y1="43" x2="72.44" y2="43">
</line>
<line class="cls-10" x1="-1" y1="39" x2="72.44" y2="39">
</line>
<line class="cls-10" x1="-1" y1="35" x2="72.44" y2="35">
</line>
<line class="cls-10" x1="-1" y1="31" x2="72.44" y2="31">
</line>
<line class="cls-10" x1="-1" y1="27" x2="72.44" y2="27">
</line>
<line class="cls-10" x1="-1" y1="23" x2="72.44" y2="23">
</line>
<line class="cls-10" x1="-1" y1="19" x2="72.44" y2="19">
</line>
<line class="cls-10" x1="-1" y1="15" x2="72.44" y2="15">
</line>
<line class="cls-10" x1="-1" y1="11" x2="72.44" y2="11">
</line>
<line class="cls-10" x1="-1" y1="7" x2="72.44" y2="7">
</line>
<line class="cls-10" x1="-1" y1="3" x2="72.44" y2="3">
</line>
<line class="cls-10" x1="1.04" y1="69" x2="74.48" y2="69">
</line>
<line class="cls-10" x1="1.04" y1="65" x2="74.48" y2="65">
</line>
<line class="cls-10" x1="1.04" y1="61" x2="74.48" y2="61">
</line>
<line class="cls-10" x1="1.04" y1="57" x2="74.48" y2="57">
</line>
<line class="cls-10" x1="1.04" y1="53" x2="74.48" y2="53">
</line>
<line class="cls-10" x1="1.04" y1="49" x2="74.48" y2="49">
</line>
<line class="cls-10" x1="1.04" y1="45" x2="74.48" y2="45">
</line>
<line class="cls-10" x1="1.04" y1="41" x2="74.48" y2="41">
</line>
<line class="cls-10" x1="1.04" y1="37" x2="74.48" y2="37">
</line>
<line class="cls-10" x1="1.04" y1="33" x2="74.48" y2="33">
</line>
<line class="cls-10" x1="1.04" y1="29" x2="74.48" y2="29">
</line>
<line class="cls-10" x1="1.04" y1="25" x2="74.48" y2="25">
</line>
<line class="cls-10" x1="1.04" y1="21" x2="74.48" y2="21">
</line>
<line class="cls-10" x1="1.04" y1="17" x2="74.48" y2="17">
</line>
<line class="cls-10" x1="1.04" y1="13" x2="74.48" y2="13">
</line>
<line class="cls-10" x1="1.04" y1="9" x2="74.48" y2="9">
</line>
<line class="cls-10" x1="1.04" y1="5" x2="74.48" y2="5">
</line>
<line class="cls-10" x1="1.04" y1="1" x2="74.48" y2="1">
</line>
</g>


<g >
<line class="cls-10" x1="-73" y1="71" x2=".44" y2="71">
</line>
<line class="cls-10" x1="-73" y1="67" x2=".44" y2="67">
</line>
<line class="cls-10" x1="-73" y1="63" x2=".44" y2="63">
</line>
<line class="cls-10" x1="-73" y1="59" x2=".44" y2="59">
</line>
<line class="cls-10" x1="-73" y1="55" x2=".44" y2="55">
</line>
<line class="cls-10" x1="-73" y1="51" x2=".44" y2="51">
</line>
<line class="cls-10" x1="-73" y1="47" x2=".44" y2="47">
</line>
<line class="cls-10" x1="-73" y1="43" x2=".44" y2="43">
</line>
<line class="cls-10" x1="-73" y1="39" x2=".44" y2="39">
</line>
<line class="cls-10" x1="-73" y1="35" x2=".44" y2="35">
</line>
<line class="cls-10" x1="-73" y1="31" x2=".44" y2="31">
</line>
<line class="cls-10" x1="-73" y1="27" x2=".44" y2="27">
</line>
<line class="cls-10" x1="-73" y1="23" x2=".44" y2="23">
</line>
<line class="cls-10" x1="-73" y1="19" x2=".44" y2="19">
</line>
<line class="cls-10" x1="-73" y1="15" x2=".44" y2="15">
</line>
<line class="cls-10" x1="-73" y1="11" x2=".44" y2="11">
</line>
<line class="cls-10" x1="-73" y1="7" x2=".44" y2="7">
</line>
<line class="cls-10" x1="-73" y1="3" x2=".44" y2="3">
</line>
<line class="cls-10" x1="-70.96" y1="69" x2="2.48" y2="69">
</line>
<line class="cls-10" x1="-70.96" y1="65" x2="2.48" y2="65">
</line>
<line class="cls-10" x1="-70.96" y1="61" x2="2.48" y2="61">
</line>
<line class="cls-10" x1="-70.96" y1="57" x2="2.48" y2="57">
</line>
<line class="cls-10" x1="-70.96" y1="53" x2="2.48" y2="53">
</line>
<line class="cls-10" x1="-70.96" y1="49" x2="2.48" y2="49">
</line>
<line class="cls-10" x1="-70.96" y1="45" x2="2.48" y2="45">
</line>
<line class="cls-10" x1="-70.96" y1="41" x2="2.48" y2="41">
</line>
<line class="cls-10" x1="-70.96" y1="37" x2="2.48" y2="37">
</line>
<line class="cls-10" x1="-70.96" y1="33" x2="2.48" y2="33">
</line>
<line class="cls-10" x1="-70.96" y1="29" x2="2.48" y2="29">
</line>
<line class="cls-10" x1="-70.96" y1="25" x2="2.48" y2="25">
</line>
<line class="cls-10" x1="-70.96" y1="21" x2="2.48" y2="21">
</line>
<line class="cls-10" x1="-70.96" y1="17" x2="2.48" y2="17">
</line>
<line class="cls-10" x1="-70.96" y1="13" x2="2.48" y2="13">
</line>
<line class="cls-10" x1="-70.96" y1="9" x2="2.48" y2="9">
</line>
<line class="cls-10" x1="-70.96" y1="5" x2="2.48" y2="5">
</line>
<line class="cls-10" x1="-70.96" y1="1" x2="2.48" y2="1">
</line>
</g>


</g>


</pattern>
</defs>



<g >
<path class="cls-1" d="M61.58,64l-3.22,9.57s-9.57,2.9-22.79,3.76c-13.21,.86-25.47-3.87-25.47-3.87l-2.79-9.24s.97-.22,5.7-1.83c-2.54-2.79-3.08-6.77-2.98-9.45,.02-.73,.09-1.36,.18-1.84,.43-2.25,5.38-24.93,10.75-34.06,5.91-9.35,13.43-7.2,13.43-7.2,9.46-1.4,12.36,4.94,15.48,11.82,3.11,6.88,6.55,21.71,8.38,28.16,1.78,6.27-2.25,12.36-2.46,12.67h-.01s5.8,1.51,5.8,1.51Z">
</path>
<path d="M26.85,55.55s1.84,2.61,7.21,2.35,8.12-2.5,8.12-2.5c0,0,.27,3.37,1.87,4.69,6.43,1.04,15.5,3.31,16.54,4.06-1.51,6.71-2.46,10.3-2.46,10.3,0,0-37.34,5.86-49.54-2.84-.76-6.24,0-7.47,0-7.47,0,0,9.46-3.56,16.93-4.12,.85-2.08,1.32-4.48,1.32-4.48Z">
</path>
<path class="cls-11" d="M55.79,62.49h-.01c-3.76,4.57-4.16,7.18-.94,11.01-6.54,2.11-9.15,1.2-9.15,1.2,0,0-3.83-5.03-.81-9.96-1.91-2.61-1.01-4.22-.2-6.94,.8-2.72,.77-4.44-.07-7.15-9.69-2.11-20.95,.16-20.95,.16,0,0-1.32,2.16-.11,5.18,1.21,3.02,2.21,7.54-.3,8.95,2.21,3.73,.8,8.15-.1,9.26-.91,1.11-8.35-1.61-8.35-1.61,0,0,2.31-3.32,.7-5.94-1.61-2.61-5.13-8.55-5.43-12.57-.02-.31-.04-.69-.04-1.14,.02-.73,.09-1.36,.18-1.84,.43-2.25,5.38-24.93,10.75-34.06,5.91-9.35,13.43-7.2,13.43-7.2,9.46-1.4,12.36,4.94,15.48,11.82,3.11,6.88,6.55,21.71,8.38,28.16,1.78,6.27-2.25,12.36-2.46,12.67Z">
</path>
<path class="cls-1" d="M19.33,37.75s.07,8.33,2.15,10.76,4.65,3.61,4.65,3.61l.21,2.57s2.22,3.19,7.71,3.19,8.12-2.5,8.12-2.5l.14-3.12s3.61-1.53,4.79-4.1,2.57-8.47,2.22-11.04c-1.67-2.5-2.43-4.72-2.78-5.69s-5.14-7.99-12.57-6.74-10.42,4.17-11.87,7.36-1.94,5.21-2.78,5.69Z">
</path>
<path class="cls-2" d="M34.37,32.65v19.21c0,1.55,1.26,2.81,2.81,2.81h0s9.41-3.87,10.55-7.65c1.41-5.71,1.6-9.9,1.6-9.9,0,0-2.13-2.5-2.57-5.4-.18-1.19-1.18-2.61-2.76-3.86-3.9-3.06-9.63-.19-9.63,4.77Z">
</path>
<path class="cls-4" d="M31.1,36.94l.58-5.44-6.73-.27-2.94,1.56s-.62,2.09,.62,4.14c2.85-2.05,3.79-2.18,4.77-2.23s3.7,2.23,3.7,2.23Z">
</path>
<path class="cls-3" d="M31.1,36.94s-1.44-2.29-4.42-2.13-4.17,2.33-4.17,2.33c0,0,2.6,1.95,7.2,1.35,1.08-.16,1.39-1.55,1.39-1.55Z">
</path>
<path class="cls-4" d="M37.8,36.94l-.58-5.44,6.73-.27,2.94,1.56s.62,2.09-.62,4.14c-2.85-2.05-3.79-2.18-4.77-2.23s-3.7,2.23-3.7,2.23Z">
</path>
<path class="cls-3" d="M37.8,36.94s1.44-2.29,4.42-2.13,4.17,2.33,4.17,2.33c0,0-2.6,1.95-7.2,1.35-1.08-.16-1.39-1.55-1.39-1.55Z">
</path>
<path d="M23.66,50.81l2.08,1s1.58,6.65-.67,8.4c-1.83-4.66-2.25-7.48-1.41-9.4Z">
</path>
<path d="M42.45,51.9s-1.25,6.9,1.25,8.4c2.16-5.9,1.5-8.4,.91-9.65-1,.75-2.16,1.25-2.16,1.25Z">
</path>
<path class="cls-16" d="M41.95,10.81s5.62,7.81-2.41,8.03c-4.02,.69,1.49,5.39-2.75,6.31,6.08,1.38,7.46,3.56,7.46,3.56,0,0-2.75-7.23,1.49-6.54,3.85,.62,3.46-5.35-1.94-9.98-.56-.48-1.17-.95-1.84-1.39Z">
</path>
<path d="M12.51,41.96s.87,3.15,2.17,4.89,2.17,3.69,1.41,5.97-1.09,3.8,.87,4.89,3.47,2.06,3.47,3.58-1.09,2.39-2.93,1.85c1.85,3.26,4.67,2.93,5.97,2.28,1.74,3.47,.75,7.36-.33,8.78-6.08-1.51-7.92-2.05-7.92-2.05,0,0,2.5-4.67-.54-7.82-3.15-3.15-5.51-7.03-4.65-11.39s2.48-10.98,2.48-10.98Z">
</path>
<path class="cls-13" d="M42.12,55.77s-4.92,4.66-13.61,1.22c5.94,4.3,13.1,3.35,13.61-1.22Z">
</path>
<path class="cls-13" d="M43.22,64.83s-8.62,4.52-18-.67c5.11,5.11,12.48,4.44,18,.67Z">
</path>
<path class="cls-1" d="M34.48,26.3c7.81,0,10.71,4.96,11.12,6.7,.38,1.63,1.03,3,2.15,4.53,.03,1.72-.18,6.81-1.77,9.66-1.13,2.01-4.7,3.83-7.88,5.46-.41,.2-.81,.41-1.2,.61h-5.26c-.23-.12-.47-.24-.7-.36l-.45-.23-.09-.05c-3.14-1.61-6.69-3.43-7.82-5.43-1.7-3.02-1.78-7.81-1.77-9.12,1.03-1.31,2.03-2.84,2.55-5.05,.41-1.74,3.34-6.7,11.13-6.7m0-1c-8.44,0-11.64,5.53-12.1,7.47-.47,2.01-1.36,3.44-2.58,4.94,0,.03,.01,.05,.01,.07,0,.06-.22,6.15,1.89,9.89,1.29,2.29,5.03,4.19,8.33,5.88,.47,.24,.93,.47,1.37,.7h5.75c.45-.24,.92-.48,1.4-.72,3.29-1.68,7.02-3.58,8.3-5.86,2.08-3.72,1.9-10.33,1.89-10.49-1-1.32-1.75-2.63-2.17-4.41-.45-1.94-3.65-7.47-12.09-7.47h0Z">
</path>
<path class="cls-2" d="M23.5,39.94c1.13,.39,3.04,.7,5.91,.13,.5-.1,.81,.52,.44,.87-3.14,3-5.05,3.06-6.95-.26-.23-.41,.15-.9,.59-.74Z">
</path>
<path d="M52.74,53.26s1.5,6.48,5.53,2.59c-1.09,6.76-5.19,9.01-5.39,11.74s1.64,5.05,1.64,5.05l-9.21,1.84s-3.28-6.14,.07-9.49c4.64,1.16,5.53-1.02,5.8-1.98-2.46,.48-3.69-1.5-2.46-2.93,2.93-.61,5.39-3.69,4.03-6.83Z">
</path>
<path d="M24.77,12.69s3.17-2.69,5.58-.58-.29,6.64-.29,6.64c0,0-8.18,1.54-14.14,10.97,3.08-8.75,6.06-14.43,8.85-17.03Z">
</path>
<path class="cls-18" d="M29.63,48.16s.6,2.99,4.53,2.99,4.76-3.14,4.76-3.14c0,0-6.25-2.39-9.29,.15Z">
</path>
<path class="cls-2" d="M31.81,47.69s.62,1.3,2.44,1.3,2.48-1.18,2.48-1.18c0,0-1.26-.98-2.67-.85s-2.24,.73-2.24,.73Z">
</path>
<path class="cls-5" d="M53.72,72.43c-4.61-7.01,6.18-9.13,4.52-21.41s-8.21-32.94-13.38-37.83-10.52-3.41-10.52-3.41c0,0-5.35-1.48-10.52,3.41s-11.72,25.56-13.38,37.83c-1.66,12.27,9.13,14.39,4.52,21.41">
</path>
<path class="cls-5" d="M44.79,50.96c1.97,3.17-1.97,9.08-.98,12.03s6.34,4.05,7.55-.22c-3.61,1.64-3.5-2.19-2.19-3.06s4.81-2.19,3.72-5.69-.11-4.48,2.08-8.97c2.19-4.48-1.03-14.01-5.25-18.92-7.71-8.98-15.32-7.88-15.32-7.88h-.14s-7.61-1.1-15.32,7.88c-4.22,4.91-7.44,14.43-5.25,18.92s3.17,5.47,2.08,8.97,2.41,4.81,3.72,5.69,1.42,4.7-2.19,3.06c1.2,4.26,6.56,3.17,7.55,.22s-2.95-8.86-.98-12.03">
</path>
<path class="cls-5" d="M23.3,64.93s3.06,4.8-.73,9.59">
</path>
<path class="cls-5" d="M45.02,64.93s-3.06,4.8,.73,9.59">
</path>
<path class="cls-7" d="M51.1,45.7s1.98-4.19-.08-6.56-3.36-3.89-3.97-6.48-4.27-7.85-12.58-7.85c-8.31,0-11.97,5.26-12.58,7.85s-1.91,4.12-3.97,6.48-.08,6.56-.08,6.56">
</path>
<path class="cls-7" d="M19.31,37.76s-.25,6.24,1.95,10.15c1.57,2.79,6.42,4.96,10.02,6.84h5.99c3.59-1.88,8.45-4.05,10.02-6.84,2.19-3.91,1.95-10.76,1.95-10.76">
</path>
<line class="cls-7" x1="34.25" y1="18.26" x2="34.25" y2="24.8">
</line>
<path d="M21.61,32.25c1.16-.76,2.25-1.61,3.72-1.76,2.18-.03,4.31,.14,6.47,.35,0,0-.19,1.48-.19,1.48-1.66-.25-3.35-.46-5.02-.58-1.61-.32-3.06,.45-4.4,1.33,0,0-.57-.82-.57-.82h0Z">
</path>
<path d="M46.79,33.07c-.95-.57-2.08-1.32-3.17-1.4-2.08,.08-4.19,.34-6.25,.65,0,0-.19-1.48-.19-1.48,1.72-.17,3.42-.3,5.15-.35,1.91-.26,3.58,.69,5.04,1.76,0,0-.57,.82-.57,.82h0Z">
</path>
<path d="M31.11,37.1c-2.74-2.94-4.67-2.5-7.66-.26-.48,.34-1.35,.46-1.8-.05,0,0,.76-.6,.76-.6,1.53,2.28,4.82,2.59,7.42,2.31-2.72,1-6.42,.88-8.25-1.8-.3-.51,.33-.97,.76-.6,.08,.05,.09,.06,.19,.06,1.38-.55,2.5-1.82,4.14-1.91,1.96-.19,3.6,1.26,4.44,2.86h0Z">
</path>
<path d="M37.64,37.1c2.11-3.71,5.03-3.47,8.14-1.13,.34,.17,.46,.27,.75,.05,.42-.27,.93,.27,.65,.67-.9,1.39-2.45,2.08-3.91,2.29-1.49,.22-2.99,.01-4.34-.49,1.43,.16,2.86,.11,4.2-.23,1.32-.34,2.56-1.02,3.22-2.09l.76,.6c-.25,.25-.67,.4-1.02,.35-.78-.15-1.32-.67-1.92-1.05-2.26-1.85-4.74-1.07-6.53,1.01h0Z">
</path>
<path d="M21.52,40.87c.51,1.47,1.24,2.89,2.24,4.09,0,0-.07,.07-.07,.07-1.85-.27-2.98-2.43-2.26-4.13,0,0,.1-.03,.1-.03h0Z">
</path>
<path d="M47.28,40.89c-.42,1.53-1.17,2.98-2.26,4.13,0,0-.07-.07-.07-.07,.04-1.73,.78-3.15,2.24-4.09,0,0,.1,.03,.1,.03h0Z">
</path>
<path d="M36.05,40.35l.95,1.42c.04,.05,.03,.12,0,.17-.34,.47-.77,.82-1.23,1.15-.52,.28-1.15,.84-1.75,.79-1.02-.44-1.99-1.02-2.68-1.92-.05-.05-.06-.13-.02-.19,0,0,.95-1.42,.95-1.42l-.63,1.58-.02-.19c.74,.64,1.74,.99,2.69,1.18,0,0-.29,0-.29,0,.95-.19,1.95-.55,2.69-1.18,0,0-.02,.19-.02,.19l-.63-1.58h0Z">
</path>
<path d="M39.12,47.92s-.36,1-2.93,0c-.66-.26-1.35-.4-2-.46-.65,.06-1.33,.2-2,.46-2.57,1-2.92,0-2.92,0,0,0,.5-.11,1.07-1.1,.47-.82,1.96-1.99,3.86-1.54,1.9-.45,3.39,.73,3.85,1.54,.57,.99,1.07,1.1,1.07,1.1Z">
</path>
<path class="cls-7" d="M25.87,52.03s1.33,6.31-.85,8.43">
</path>
<path class="cls-7" d="M42.62,52.03s-1.33,6.31,.85,8.43">
</path>
<path class="cls-7" d="M26.37,54.72s1.58,3.15,7.88,3.15,7.93-2.72,7.93-2.72">
</path>
<path class="cls-7" d="M24.14,64.27s1.84,4.56,9.9,4.56c8.77,0,10.29-4.51,10.29-4.51">
</path>
<line class="cls-7" x1="12.91" y1="62.56" x2="7.89" y2="63.97">
</line>
<line class="cls-7" x1="55.98" y1="62.51" x2="61.2" y2="64.28">
</line>
<path class="cls-16" d="M12.03,45.79c-.28,4.64-.61,9.29,.66,13.79,.1,.68,.42,1.26,.57,1.97l-.08,.05c-2.89-4.58-3.02-11.03-1.15-15.81h0Z">
</path>
</g>




 <g
     id="g2850">
    <g
       id="g2837">
      <path
         id="path1951"
         d="M 0.056640625 0.04296875 L 0.056640625 79.943359 L 69.308594 79.943359 L 69.308594 0.04296875 L 0.056640625 0.04296875 z M 33.615234 3.5957031 C 34.206332 3.5957038 34.786991 3.6051034 35.421875 3.6152344 C 44.430653 3.7671809 53.471255 5.1336733 61.560547 7.5546875 L 62.064453 7.7070312 L 62.25 8.1640625 C 66.070247 17.605006 66.990234 28.726438 66.990234 40.0625 C 66.990234 51.398562 65.972723 63.025755 61.988281 72.578125 L 61.791016 73.044922 L 61.275391 73.185547 C 53.273669 75.403966 44.691921 76.529297 35.759766 76.529297 C 35.212453 76.529297 34.675812 76.519896 34.150391 76.509766 L 33.943359 76.509766 C 24.901742 76.357819 15.860367 74.989738 7.7929688 72.558594 L 7.2890625 72.40625 L 7.1035156 71.951172 C 3.2942144 62.520359 2.375 51.369168 2.375 40.0625 C 2.375 28.755832 3.3819737 17.127318 7.3554688 7.5546875 L 7.5527344 7.0898438 L 8.0664062 6.9472656 C 15.509867 4.890923 23.785212 3.7371557 32.005859 3.6054688 C 32.542226 3.5953387 33.078867 3.5957031 33.615234 3.5957031 z "
         style="opacity:1;vector-effect:none;fill:#ffffff;fill-opacity:1;fill-rule:nonzero;stroke:none;stroke-width:1.95200002;stroke-linecap:butt;stroke-linejoin:miter;stroke-miterlimit:4;stroke-dasharray:none;stroke-dashoffset:0;stroke-opacity:1" />
    </g>
    <path
       id="path1154-8-2"
       d="m 33.675163,6.6112954 c 0.557696,0 1.115392,0.00956 1.683415,0.019115 8.427403,0.14336 16.803167,1.4049288 24.363042,3.6700176 3.573384,8.830981 4.443772,19.417362 4.443772,29.761551 0,10.344189 -0.95301,21.39888 -4.68131,30.334991 -7.435942,2.064385 -15.429581,3.274388 -23.774362,3.274388 -0.506058,0 -1.012115,-0.0096 -1.518172,-0.01911 h -0.17557 C 25.56792,73.508883 17.192156,72.088619 9.6426089,69.813973 6.0795528,61.002107 5.2088244,50.415411 5.2088244,40.061979 c 0,-10.353432 0.95335,-21.389323 4.6609939,-30.325434 C 16.820359,7.8155201 24.462856,6.7450981 32.177647,6.6208528 c 0.49573,-0.00956 1.001787,-0.00956 1.497516,-0.00956 m 0,-0.9557337 c -0.506057,0 -1.012114,0 -1.518171,0.00956 C 24.40089,5.7893644 16.593149,6.8789009 9.570315,8.8190405 L 9.0849131,8.9528432 8.8990146,9.3924808 C 5.1500599,18.424166 4.1999116,29.394246 4.1999116,40.061979 c 0,10.667733 0.8675267,21.188618 4.461566,30.0865 l 0.1755708,0.430081 0.4750741,0.14336 c 7.6115135,2.293761 16.1421925,3.584001 24.6728715,3.727361 h 0.196227 c 0.495729,0.0096 1.001786,0.01911 1.518171,0.01911 8.427403,0 16.524318,-1.060864 24.073866,-3.153921 l 0.485403,-0.133802 0.185898,-0.439639 c 3.759282,-9.01257 4.719759,-19.983589 4.719759,-30.679055 0,-10.695466 -0.867528,-21.188618 -4.471894,-30.0960578 L 60.516853,9.5358409 60.041779,9.3924808 C 52.409609,7.108277 43.87893,5.8180364 35.379234,5.6746763 34.780227,5.6651187 34.232859,5.6555621 33.675163,5.6555615 Z"
       style="fill:#ff0000;stroke:#ffffff;stroke-width:1.84341729;stroke-miterlimit:4;stroke-dasharray:none" />
    <path
       id="path1154"
       d="m 33.614853,4.6077955 c 0.591098,0 1.182197,0.01013 1.784241,0.02026 8.932155,0.1519464 17.809578,1.4890758 25.822246,3.8898304 3.787408,9.3599041 4.709928,20.5803481 4.709928,31.5440931 0,10.963745 -1.01009,22.680548 -4.961693,32.151879 -7.881312,2.18803 -16.353723,3.302304 -25.198307,3.302304 -0.536368,0 -1.072735,-0.01013 -1.609102,-0.02026 H 33.97608 C 25.022033,75.343956 16.14461,74.006827 8.1428892,71.595943 4.3664269,62.256298 3.443547,51.035521 3.443547,40.061979 c 0,-10.973542 1.01045,-22.670418 4.9401601,-32.1417498 7.3668369,-2.036083 15.4670749,-3.170617 23.6439369,-3.3023039 0.525421,-0.01013 1.061788,-0.01013 1.587209,-0.01013 m 0,-1.0129766 c -0.536367,0 -1.072734,0 -1.609101,0.01013 C 23.785105,3.7366356 15.509726,4.891429 8.0662653,6.9477716 L 7.5517907,7.0895883 7.3547579,7.5555576 C 3.3812628,17.128188 2.3742062,28.755311 2.3742062,40.061979 c 0,11.306668 0.9194864,22.457692 4.7287876,31.888505 l 0.1860865,0.45584 0.5035283,0.151947 c 8.0673984,2.431144 17.1090154,3.798662 26.1506324,3.950608 h 0.207979 c 0.525421,0.01013 1.061788,0.02026 1.609101,0.02026 8.932155,0 17.514028,-1.124404 25.51575,-3.342823 l 0.514475,-0.141816 0.197032,-0.46597 c 3.984442,-9.55237 5.002445,-21.180489 5.002445,-32.516551 0,-11.336062 -0.919487,-22.457692 -4.739734,-31.8986353 L 62.064202,7.7075041 61.560674,7.5555576 C 53.471382,5.1345434 44.429765,3.7670249 35.420987,3.6150784 c -0.634884,-0.01013 -1.215036,-0.020259 -1.806134,-0.02026 z"
       style="fill:#000000;stroke:#000000;stroke-width:1.95382714;stroke-miterlimit:4;stroke-dasharray:none" />
    <g
       id="g1810">
      <path
         d="M 6.5134911,7.7433673 C 5.6489029,6.8479453 4.058602,6.5681013 3.6272194,7.3820013 3.284151,8.0292783 3.3625296,8.5309135 4.395235,8.9201755 3.2963719,9.5187755 1.4857674,9.4447465 1.1893447,7.4467713 0.95320848,5.8551433 2.674739,4.8863543 3.1399725,5.0916244 3.0034432,3.6818714 1.8221094,4.0692802 0.95849208,3.2813384 0.34259068,2.7194046 0.23126071,-0.02624603 0.0561761,0.04378767 -0.0138576,0.21887227 2.7317937,0.33020157 3.2937267,0.94610377 4.0816685,1.8097211 3.6942598,2.9910547 5.1040128,3.1275841 4.8987425,2.6623507 5.8675315,0.94082017 7.4591593,1.1769564 9.4571345,1.4733791 9.5311625,3.2839847 8.9325635,4.3828467 8.5433008,3.3501417 8.041666,3.2717627 7.3943894,3.6148312 6.5804899,4.0462137 6.8603354,5.6365129 7.7557553,6.5011023"
         style="fill:#000000;stroke:#000000;stroke-width:0.1112323px;stroke-linecap:butt;stroke-linejoin:miter;stroke-opacity:1"
         id="path1737-3" />
      <path
         d="m 62.850738,7.7433673 c 0.864588,-0.895422 2.454889,-1.175266 2.886271,-0.361366 0.343069,0.647277 0.26469,1.148912 -0.768015,1.538174 1.098863,0.5986 2.909467,0.524571 3.20589,-1.473404 0.236136,-1.591628 -1.485394,-2.560417 -1.950628,-2.3551469 0.13653,-1.409753 1.317863,-1.0223442 2.181481,-1.810286 0.615901,-0.5619338 0.727231,-3.30758442 0.902316,-3.23755072 0.07003,0.1750846 -2.675618,0.2864139 -3.237551,0.9023161 C 65.28256,1.8097211 65.669969,2.9910547 64.260216,3.1275841 64.465486,2.6623507 63.496697,0.94082018 61.905069,1.1769564 c -1.997975,0.2964227 -2.072003,2.1070283 -1.473404,3.2058903 0.389263,-1.032705 0.890898,-1.111084 1.538174,-0.7680155 0.8139,0.4313825 0.534054,2.0216817 -0.361366,2.8862711"
         style="fill:#000000;stroke:#000000;stroke-width:0.1112323px;stroke-linecap:butt;stroke-linejoin:miter;stroke-opacity:1"
         id="path1737-3-5" />
      <path
         d="m 62.850738,72.244244 c 0.864588,0.895422 2.454889,1.175266 2.886272,0.361366 0.343068,-0.647277 0.264689,-1.148912 -0.768016,-1.538174 1.098863,-0.5986 2.909468,-0.524571 3.20589,1.473404 0.236137,1.591628 -1.485394,2.560417 -1.950628,2.355147 0.13653,1.409753 1.317864,1.022344 2.181481,1.810286 0.615901,0.561934 0.727231,3.307584 0.902316,3.237551 0.07003,-0.175085 -2.675618,-0.286414 -3.237551,-0.902317 -0.787942,-0.863617 -0.400533,-2.04495 -1.810286,-2.18148 0.20527,0.465234 -0.763519,2.186764 -2.355146,1.950628 -1.997976,-0.296423 -2.072004,-2.107028 -1.473405,-3.20589 0.389263,1.032705 0.890898,1.111084 1.538175,0.768015 0.813899,-0.431382 0.534054,-2.021682 -0.361366,-2.886271"
         style="fill:#000000;stroke:#000000;stroke-width:0.1112323px;stroke-linecap:butt;stroke-linejoin:miter;stroke-opacity:1"
         id="path1737-3-7" />
      <path
         d="M 6.513491,72.244245 C 5.648903,73.139667 4.058602,73.419511 3.62722,72.605611 3.284151,71.958334 3.36253,71.456699 4.395235,71.067437 c -1.098863,-0.5986 -2.909467,-0.524571 -3.20589,1.473404 -0.23613599,1.591628 1.485394,2.560417 1.950628,2.355147 -0.13653,1.409753 -1.317863,1.022344 -2.18148099,1.810286 -0.615901,0.561933 -0.727231,3.307584 -0.902316,3.23755 C -0.01385399,79.76874 2.731794,79.65741 3.293727,79.041508 4.081669,78.177891 3.69426,76.996557 5.104013,76.860028 4.898743,77.325261 5.867532,79.046792 7.45916,78.810656 9.457135,78.514233 9.531163,76.703627 8.932564,75.604765 8.543301,76.63747 8.041666,76.715849 7.39439,76.372781 6.58049,75.941398 6.860336,74.351099 7.755756,73.48651"
         style="fill:#000000;stroke:#000000;stroke-width:0.1112323px;stroke-linecap:butt;stroke-linejoin:miter;stroke-opacity:1"
         id="path1737-3-5-5" />
    </g>
    <path
       id="path1154-9"
       d="m 33.712865,7.4258691 c 0.536813,0 1.07363,0.00933 1.620386,0.01865 8.111875,0.1398689 16.174044,1.3707167 23.450873,3.5806479 3.439594,8.615932 4.277395,18.944521 4.277395,29.036812 0,10.092292 -0.917329,20.877786 -4.506039,29.596289 -7.157536,2.014114 -14.851888,3.03982 -22.884234,3.03982 -0.487111,0 -0.974221,-0.0094 -1.461331,-0.01865 H 34.040918 C 25.909161,72.53957 17.846991,71.308722 10.580105,69.089467 7.1504515,60.492184 6.3123238,50.163289 6.3123238,40.061979 c 0,-10.101311 0.9176558,-20.868461 4.4864832,-29.586965 6.690308,-1.8742449 14.046665,-2.9186005 21.472608,-3.0398203 0.47717,-0.00933 0.964281,-0.00933 1.44145,-0.00933 m 0,-0.9324602 c -0.487111,0 -0.974221,0 -1.46133,0.00933 C 24.785826,6.6239532 17.270413,7.686958 10.510517,9.5798526 L 10.043289,9.710397 9.8643508,10.139328 c -3.6085914,8.811751 -4.5231655,19.514693 -4.5231655,29.922651 0,10.407958 0.8350459,20.672644 4.294522,29.353849 l 0.1689973,0.419608 0.4572874,0.13987 c 7.326533,2.237904 15.537818,3.496724 23.749103,3.636593 h 0.188879 c 0.47717,0.0094 0.96428,0.01865 1.461331,0.01865 8.111875,0 15.905636,-1.035031 23.172525,-3.077119 l 0.467228,-0.130544 0.178938,-0.428932 c 3.618533,-8.793101 4.543048,-19.496959 4.543048,-29.931975 0,-10.435016 -0.835047,-20.672644 -4.304463,-29.363174 l -0.168997,-0.419609 -0.457288,-0.13987 C 51.74588,7.9107484 43.534594,6.6519271 35.353133,6.512058 34.776554,6.502738 34.249678,6.493409 33.712865,6.493409 Z"
       style="fill:#000000;stroke:none;stroke-width:1.78642213;stroke-miterlimit:4;stroke-dasharray:none" />
    <path
       id="path1154-9-3"
       d="m 33.712865,7.4258686 c 0.536813,0 1.07363,0.00933 1.620386,0.01865 8.111875,0.1398689 16.174044,1.3707167 23.450873,3.5806484 3.439594,8.615932 4.277395,18.944521 4.277395,29.036812 0,10.092292 -0.917329,20.877786 -4.506039,29.596288 -7.157536,2.014114 -14.851888,3.03982 -22.884234,3.03982 -0.487111,0 -0.974221,-0.0094 -1.461331,-0.01865 H 34.040918 C 25.909161,72.539569 17.846991,71.308722 10.580105,69.089466 7.1504515,60.492184 6.3123238,50.163288 6.3123238,40.061979 c 0,-10.101312 0.9176558,-20.868461 4.4864832,-29.586965 6.690308,-1.8742454 14.046665,-2.918601 21.472608,-3.0398208 0.47717,-0.00933 0.964281,-0.00933 1.44145,-0.00933 m 0,-0.9324602 c -0.487111,0 -0.974221,0 -1.46133,0.00933 C 24.785826,6.6239527 17.270413,7.6869575 10.510517,9.5798521 L 10.043289,9.7103965 9.8643508,10.139328 C 6.2557594,18.951079 5.3411853,29.65402 5.3411853,40.061979 c 0,10.407958 0.8350459,20.672643 4.294522,29.353849 l 0.1689973,0.419608 0.4572874,0.13987 c 7.326533,2.237904 15.537818,3.496724 23.749103,3.636593 h 0.188879 c 0.47717,0.0094 0.96428,0.01865 1.461331,0.01865 8.111875,0 15.905636,-1.035032 23.172525,-3.077119 l 0.467228,-0.130544 0.178938,-0.428932 c 3.618533,-8.793101 4.543048,-19.49696 4.543048,-29.931975 0,-10.435016 -0.835047,-20.672644 -4.304463,-29.363175 l -0.168997,-0.419609 -0.457288,-0.13987 C 51.74588,7.9107479 43.534594,6.6519266 35.353133,6.5120575 34.776554,6.5027375 34.249678,6.4934085 33.712865,6.4934085 Z"
       style="fill:#000000;stroke:none;stroke-width:1.78642213;stroke-miterlimit:4;stroke-dasharray:none" />
  </g>
</svg>
