<svg id="Capa_2" xmlns="http://www.w3.org/2000/svg" xmlns:xlink="http://www.w3.org/1999/xlink" viewBox="0 0 69.02 80">
<defs >
<style >
.cls-1{fill:#c89aed;}.cls-2{fill:#fff;}.cls-3{fill:#f8ffbf;}.cls-4{fill:#7b7be8;}.cls-5{fill:#a88347;}.cls-6{fill:#782ab5;}.cls-7,.cls-8{stroke-miterlimit:10;}.cls-7,.cls-8,.cls-9{stroke:#000;}.cls-7,.cls-8,.cls-9,.cls-10,.cls-11,.cls-12{fill:none;}.cls-8,.cls-9,.cls-10{stroke-linecap:round;}.cls-13{fill:#1c46ff;}.cls-9,.cls-10{stroke-linejoin:round;}.cls-10{stroke:#deb778;stroke-dasharray:0 0 0 4.06;}.cls-14{fill:#deb778;}.cls-15{fill:url(#USGS_19_Inundación_de_tierra_2);}.cls-12{stroke:#1d1d1b;stroke-dasharray:0 0 2 2;stroke-width:.3px;}.cls-16{fill:#fcf0c5;}.cls-17{fill:#b83521;}
</style>
<pattern id="USGS_19_Inundación_de_tierra_2" x="0" y="0" width="72" height="72" patternTransform="translate(-236.48 -17071) rotate(-90)" patternUnits="userSpaceOnUse" viewBox="0 0 72 72">
<g >
<rect class="cls-11" width="72" height="72">
</rect>
<g >
<line class="cls-12" x1="71" y1="71" x2="144.44" y2="71">
</line>
<line class="cls-12" x1="71" y1="67" x2="144.44" y2="67">
</line>
<line class="cls-12" x1="71" y1="63" x2="144.44" y2="63">
</line>
<line class="cls-12" x1="71" y1="59" x2="144.44" y2="59">
</line>
<line class="cls-12" x1="71" y1="55" x2="144.44" y2="55">
</line>
<line class="cls-12" x1="71" y1="51" x2="144.44" y2="51">
</line>
<line class="cls-12" x1="71" y1="47" x2="144.44" y2="47">
</line>
<line class="cls-12" x1="71" y1="43" x2="144.44" y2="43">
</line>
<line class="cls-12" x1="71" y1="39" x2="144.44" y2="39">
</line>
<line class="cls-12" x1="71" y1="35" x2="144.44" y2="35">
</line>
<line class="cls-12" x1="71" y1="31" x2="144.44" y2="31">
</line>
<line class="cls-12" x1="71" y1="27" x2="144.44" y2="27">
</line>
<line class="cls-12" x1="71" y1="23" x2="144.44" y2="23">
</line>
<line class="cls-12" x1="71" y1="19" x2="144.44" y2="19">
</line>
<line class="cls-12" x1="71" y1="15" x2="144.44" y2="15">
</line>
<line class="cls-12" x1="71" y1="11" x2="144.44" y2="11">
</line>
<line class="cls-12" x1="71" y1="7" x2="144.44" y2="7">
</line>
<line class="cls-12" x1="71" y1="3" x2="144.44" y2="3">
</line>
</g>


<g >
<line class="cls-12" x1="-1" y1="71" x2="72.44" y2="71">
</line>
<line class="cls-12" x1="-1" y1="67" x2="72.44" y2="67">
</line>
<line class="cls-12" x1="-1" y1="63" x2="72.44" y2="63">
</line>
<line class="cls-12" x1="-1" y1="59" x2="72.44" y2="59">
</line>
<line class="cls-12" x1="-1" y1="55" x2="72.44" y2="55">
</line>
<line class="cls-12" x1="-1" y1="51" x2="72.44" y2="51">
</line>
<line class="cls-12" x1="-1" y1="47" x2="72.44" y2="47">
</line>
<line class="cls-12" x1="-1" y1="43" x2="72.44" y2="43">
</line>
<line class="cls-12" x1="-1" y1="39" x2="72.44" y2="39">
</line>
<line class="cls-12" x1="-1" y1="35" x2="72.44" y2="35">
</line>
<line class="cls-12" x1="-1" y1="31" x2="72.44" y2="31">
</line>
<line class="cls-12" x1="-1" y1="27" x2="72.44" y2="27">
</line>
<line class="cls-12" x1="-1" y1="23" x2="72.44" y2="23">
</line>
<line class="cls-12" x1="-1" y1="19" x2="72.44" y2="19">
</line>
<line class="cls-12" x1="-1" y1="15" x2="72.44" y2="15">
</line>
<line class="cls-12" x1="-1" y1="11" x2="72.44" y2="11">
</line>
<line class="cls-12" x1="-1" y1="7" x2="72.44" y2="7">
</line>
<line class="cls-12" x1="-1" y1="3" x2="72.44" y2="3">
</line>
<line class="cls-12" x1="1.04" y1="69" x2="74.48" y2="69">
</line>
<line class="cls-12" x1="1.04" y1="65" x2="74.48" y2="65">
</line>
<line class="cls-12" x1="1.04" y1="61" x2="74.48" y2="61">
</line>
<line class="cls-12" x1="1.04" y1="57" x2="74.48" y2="57">
</line>
<line class="cls-12" x1="1.04" y1="53" x2="74.48" y2="53">
</line>
<line class="cls-12" x1="1.04" y1="49" x2="74.48" y2="49">
</line>
<line class="cls-12" x1="1.04" y1="45" x2="74.48" y2="45">
</line>
<line class="cls-12" x1="1.04" y1="41" x2="74.48" y2="41">
</line>
<line class="cls-12" x1="1.04" y1="37" x2="74.48" y2="37">
</line>
<line class="cls-12" x1="1.04" y1="33" x2="74.48" y2="33">
</line>
<line class="cls-12" x1="1.04" y1="29" x2="74.48" y2="29">
</line>
<line class="cls-12" x1="1.04" y1="25" x2="74.48" y2="25">
</line>
<line class="cls-12" x1="1.04" y1="21" x2="74.48" y2="21">
</line>
<line class="cls-12" x1="1.04" y1="17" x2="74.48" y2="17">
</line>
<line class="cls-12" x1="1.04" y1="13" x2="74.48" y2="13">
</line>
<line class="cls-12" x1="1.04" y1="9" x2="74.48" y2="9">
</line>
<line class="cls-12" x1="1.04" y1="5" x2="74.48" y2="5">
</line>
<line class="cls-12" x1="1.04" y1="1" x2="74.48" y2="1">
</line>
</g>


<g >
<line class="cls-12" x1="-73" y1="71" x2=".44" y2="71">
</line>
<line class="cls-12" x1="-73" y1="67" x2=".44" y2="67">
</line>
<line class="cls-12" x1="-73" y1="63" x2=".44" y2="63">
</line>
<line class="cls-12" x1="-73" y1="59" x2=".44" y2="59">
</line>
<line class="cls-12" x1="-73" y1="55" x2=".44" y2="55">
</line>
<line class="cls-12" x1="-73" y1="51" x2=".44" y2="51">
</line>
<line class="cls-12" x1="-73" y1="47" x2=".44" y2="47">
</line>
<line class="cls-12" x1="-73" y1="43" x2=".44" y2="43">
</line>
<line class="cls-12" x1="-73" y1="39" x2=".44" y2="39">
</line>
<line class="cls-12" x1="-73" y1="35" x2=".44" y2="35">
</line>
<line class="cls-12" x1="-73" y1="31" x2=".44" y2="31">
</line>
<line class="cls-12" x1="-73" y1="27" x2=".44" y2="27">
</line>
<line class="cls-12" x1="-73" y1="23" x2=".44" y2="23">
</line>
<line class="cls-12" x1="-73" y1="19" x2=".44" y2="19">
</line>
<line class="cls-12" x1="-73" y1="15" x2=".44" y2="15">
</line>
<line class="cls-12" x1="-73" y1="11" x2=".44" y2="11">
</line>
<line class="cls-12" x1="-73" y1="7" x2=".44" y2="7">
</line>
<line class="cls-12" x1="-73" y1="3" x2=".44" y2="3">
</line>
<line class="cls-12" x1="-70.96" y1="69" x2="2.48" y2="69">
</line>
<line class="cls-12" x1="-70.96" y1="65" x2="2.48" y2="65">
</line>
<line class="cls-12" x1="-70.96" y1="61" x2="2.48" y2="61">
</line>
<line class="cls-12" x1="-70.96" y1="57" x2="2.48" y2="57">
</line>
<line class="cls-12" x1="-70.96" y1="53" x2="2.48" y2="53">
</line>
<line class="cls-12" x1="-70.96" y1="49" x2="2.48" y2="49">
</line>
<line class="cls-12" x1="-70.96" y1="45" x2="2.48" y2="45">
</line>
<line class="cls-12" x1="-70.96" y1="41" x2="2.48" y2="41">
</line>
<line class="cls-12" x1="-70.96" y1="37" x2="2.48" y2="37">
</line>
<line class="cls-12" x1="-70.96" y1="33" x2="2.48" y2="33">
</line>
<line class="cls-12" x1="-70.96" y1="29" x2="2.48" y2="29">
</line>
<line class="cls-12" x1="-70.96" y1="25" x2="2.48" y2="25">
</line>
<line class="cls-12" x1="-70.96" y1="21" x2="2.48" y2="21">
</line>
<line class="cls-12" x1="-70.96" y1="17" x2="2.48" y2="17">
</line>
<line class="cls-12" x1="-70.96" y1="13" x2="2.48" y2="13">
</line>
<line class="cls-12" x1="-70.96" y1="9" x2="2.48" y2="9">
</line>
<line class="cls-12" x1="-70.96" y1="5" x2="2.48" y2="5">
</line>
<line class="cls-12" x1="-70.96" y1="1" x2="2.48" y2="1">
</line>
</g>


</g>


</pattern>
</defs>



<g >
<path class="cls-4" d="M17.98,32.15s-3.05,.63-2.53,3.58,.63,8,4.74,8.63c.84,5.16,.95,6.21,.95,6.21l1.37,.84-.32,5.05s-10.53,2.42-15.16,7.37c2.63,6.42,3.79,9.79,3.79,9.79,0,0,19.05,3.89,28,3.16s21.68-4.74,21.68-4.74l.84-10s-8.74-4.42-13.47-5.68c-.32-3.58-.53-4.74-.53-4.74l1.37-1.26,.84-6,2.21-.95s2.84-3.47,2.74-7.47c-.32-3.58-2.32-3.58-2.32-3.58,0,0,.74-9.05-1.68-13.58s-8.42-9.16-16.84-8.74-13.89,5.89-15.58,13.68c-1.37,4.74-.11,8.42-.11,8.42Z">
</path>
<path class="cls-13" d="M25.9,69.75l3.54,4.69s-5.66,0-6.82-1.15c2.57-2.48,3.27-3.54,3.27-3.54Z">
</path>
<path class="cls-1" d="M34.76,50.05V26.4c0-6.21,6.1-10.82,11.95-8.75,.22,.08,.42,.16,.62,.24,3.29,5.03,4.33,16.99,4.33,16.99l-1.91,6.59-.95,8.32s-2.6,3.47-6.94,5.63l-.52,1.3h0c-3.65-.05-6.59-3.02-6.59-6.68Z">
</path>
<path class="cls-4" d="M34.06,11.47c.43,0,.71,.02,.78,.03,.02,0,.05,0,.07,0,.03,0,.06,0,.09,0,.03,0,.09,0,.17,0,1.36,0,8.32,.44,12.11,9.18,5.63,13,1.14,21.12-1.05,24-.25,.32-.36,.73-.3,1.13,.06,.4,.27,.75,.57,.97,.27,.21,.59,.32,.91,.32,.07,0,.14,0,.21-.01l-.38,2.54c-1.31,1.45-3.78,3.8-5.66,4.4l-.23,.07c-.3,.09-.54,.32-.65,.61l-.07,.2c-.09,.24-.18,.4-.24,.51h-10.96c-.06-.1-.14-.26-.23-.49l-.08-.22c-.11-.3-.35-.52-.65-.61l-.22-.07c-1.73-.55-4.03-2.59-5.68-4.4l-.38-2.54c.07,0,.14,.01,.21,.01,.33,0,.66-.11,.9-.3,.32-.24,.53-.59,.59-.99,.06-.4-.05-.81-.3-1.13-1.49-1.95-7.19-15.09-2.89-24.63,3.5-7.74,10.51-8.57,13.36-8.57m0-1c-2.63,0-10.46,.73-14.27,9.16-4.54,10.08,1.39,23.53,3.01,25.65,.17,.22,.13,.54-.09,.7-.09,.07-.2,.11-.31,.11-.15,0-.3-.07-.39-.2-.35-.46-.84-1.29-1.36-2.4l.98,6.57c.58,.65,3.68,4.07,6.32,4.91l.23,.07,.08,.22c.4,1.04,.77,1.15,.78,1.15h11.8s.35-.17,.73-1.15l.08-.22,.23-.07c2.63-.84,5.74-4.26,6.31-4.91l.99-6.57c-.53,1.11-1.01,1.94-1.36,2.4-.1,.13-.25,.2-.4,.2-.1,0-.21-.04-.3-.11-.22-.16-.26-.48-.09-.7,1.61-2.12,7.35-10.74,1.17-25-4-9.22-11.51-9.78-13.03-9.78-.13,0-.22,0-.25,0-.08,0-.38-.03-.86-.03h0Z">
</path>
<path d="M17.92,32.6s-1.22-8.09,1.55-13.75,9.65-9.42,16.3-8.87,11.53,3.33,14.75,9.31,.89,14.3,.89,14.3c-1.11-10.64-4.32-16.08-4.32-16.08,0,0-13.97-2.44-24.5-.11-2.55,3.33-3.66,11.86-4.66,15.19Z">
</path>
<path d="M17.92,32.6s-1.67-.56-2.36,2.48,1.82,8.94,4.64,9.28c-.42-3.98-2.28-11.76-2.28-11.76Z">
</path>
<path d="M41.28,57.25l-19.04,17.55-12.87-3.07-2.05-9.35s10.72-5.24,14.48-5.81c.46-4.1,.34-4.79,.34-4.79,0,0,5.47,3.99,5.93,3.88,.34,1.03,.57,1.37,.57,1.37l12.65,.23Z">
</path>
<path class="cls-3" d="M47.61,56.98s-2.84,5.61-9.33,7.63c2.77,4.1,4.79,6.62,4.79,6.62,0,0,4.35-7.56,4.54-14.24Z">
</path>
<polygon class="cls-3" points="39.51 66.54 29.67 66.54 26.84 70.35 29.8 74.79 40.3 75.12 43.17 70.71 39.51 66.54">
</polygon>
<polygon class="cls-17" points="39.51 66.54 30.22 66.54 27.87 69.26 32.38 74.62 38.1 74.62 41.67 69.45 39.51 66.54">
</polygon>
<path class="cls-3" d="M30.98,34.32s-5.35-.1-7.35,.72c1.52,1.79,3.52,2.33,3.52,2.33,0,0,3.18-.82,3.83-3.04Z">
</path>
<path class="cls-3" d="M38.52,34.32s5.35-.1,7.35,.72c-1.52,1.79-3.52,2.33-3.52,2.33,0,0-3.18-.82-3.83-3.04Z">
</path>
<path class="cls-4" d="M30.98,34.32l.97-3.52-5.47-.81s-2.69,1.39-3.63,2.78c-.18,1.62,.13,2.02,.13,2.02,0,0,5.96-.68,8.01-.48Z">
</path>
<path class="cls-4" d="M38.41,34.32l-.97-3.52,5.47-.81s2.69,1.39,3.63,2.78c.18,1.62-.13,2.02-.13,2.02,0,0-5.96-.68-8.01-.48Z">
</path>
<path class="cls-1" d="M46.38,54.52s-2.07,1.38-3.17,1.93c-1.31,2.07-6.48,6.76-6.48,6.76,0,0,5.52-.07,9.72-6.97,.14-1.1-.07-1.72-.07-1.72Z">
</path>
<path class="cls-13" d="M47.88,56.36s-2.09,14-8.11,18.19c11.61,1.05,19.12-2.53,19.12-2.53l2.47-9.97s-8.68-4.32-13.47-5.68Z">
</path>
<path class="cls-1" d="M23.71,38.49s2.13,.95,3.08,1.24c2.31-1.12,3.97-2.55,3.97-2.55,0,0-2.25,3.67-4.44,5.15-2.49-1.66-2.61-3.85-2.61-3.85Z">
</path>
<path class="cls-8" d="M56.72,59.85s-1.14,8.79-5.17,13.45">
</path>
<path class="cls-4" d="M38.35,18.02s6.18-.42,8.97,1.25c-.6-1.44-.93-2.32-.93-2.32l-7.2-.51-.84,1.58Z">
</path>
<path class="cls-2" d="M39.32,38.52l3.26,1.29s1.44,0,3.63-2.2c-1.44,4.54-4.17,4.77-4.17,4.77l-2.73-3.86Z">
</path>
<polygon class="cls-2" points="46.56 29.3 44.17 19.52 43.79 27.84 46.56 29.3">
</polygon>
<path class="cls-1" d="M51.88,33.47s2.64,4.17,.34,9.54c4-7.75,1.45-12.1-.34-9.54Z">
</path>
<path class="cls-8" d="M47.42,45.59c1.64-2.15,7.77-15.74,3.07-26.16s-15.62-9.42-15.62-9.42c0,0-10.83-1-15.53,9.42s1.43,24.02,3.07,26.16">
</path>
<path class="cls-8" d="M50.27,39.6l-1.61,10.68s-3.56,4.19-6.63,5.17c-.56,1.47-1.19,1.47-1.19,1.47h-3.98s-3.91,0-3.91,0h-3.98s-.63,0-1.19-1.47c-3.07-.98-6.63-5.17-6.63-5.17l-1.61-10.68">
</path>
<path class="cls-8" d="M17.95,32.62s-1.39-.82-2.15,1.2,.32,7.35,2.53,9.88c1.27,.57,1.96,.7,1.96,.7">
</path>
<path class="cls-8" d="M52.03,32.62s1.39-.82,2.15,1.2-.32,7.35-2.53,9.88c-1.27,.57-1.96,.7-1.96,.7">
</path>
<polygon points="41.11 48.39 37.96 46.04 35.91 46.04 33.91 46.04 31.85 46.04 28.7 48.39 41.11 48.39">
</polygon>
<path d="M40.1,50.29c-.36,.53-.76,.99-1.19,1.42-1.26,.29-2.55,.39-3.83,.4-1.29-.02-2.57-.11-3.83-.4-.43-.43-.84-.9-1.2-1.44-.03-.04,.02-.1,.07-.07,0,0,1.44,.95,1.44,.95-.2-.03,3.57-.04,3.53-.04-.04,0,3.72,.01,3.53,.04,0,0,1.44-.95,1.44-.95,.05-.03,.1,.04,.06,.08h0Z">
</path>
<path d="M23.38,32.14c.93-.96,1.78-2.04,3.05-2.62,1.93-.31,3.82-.29,5.78-.16,0,0-.33,1.94-.33,1.94-1.72-.42-3.57-.76-5.36-.78,0,0,.14-.03,.14-.03-1.13,.3-2.26,1.01-3.28,1.65h0Z">
</path>
<path d="M30.98,34.32c-2.44,.15-4.99,.25-7.3,1.08,0,0,.3-.67,.3-.67,.27,.6,.68,1.13,1.22,1.52,.51,.39,1.18,.71,1.79,.85,0,0-.17,0-.17,0,1.09-.03,2.19-.43,3.09-1.07-.36,.46-.79,.87-1.28,1.22-.54,.37-1.07,.66-1.72,.86-1.66-.35-3.15-1.41-3.84-2.98,0,0-.22-.54-.22-.54,2.66-.74,5.44-.46,8.14-.27h0Z">
</path>
<path d="M46.11,32.14c-1.01-.64-2.15-1.35-3.28-1.65,0,0,.14,.03,.14,.03-1.78,.02-3.63,.36-5.36,.78,0,0-.33-1.94-.33-1.94,1.95-.13,3.84-.15,5.77,.16,1.26,.58,2.12,1.66,3.05,2.62h0Z">
</path>
<path d="M38.51,34.32c2.7-.19,5.48-.47,8.14,.27,0,0-.22,.54-.22,.54-.69,1.57-2.19,2.63-3.84,2.98-.65-.19-1.18-.49-1.72-.86-.49-.34-.93-.76-1.28-1.22,.9,.64,2,1.04,3.09,1.07,0,0-.17,0-.17,0,.61-.14,1.28-.46,1.79-.85,.54-.4,.95-.93,1.22-1.52,0,0,.3,.67,.3,.67-2.3-.83-4.86-.93-7.3-1.08h0Z">
</path>
<path d="M36.36,36.33c.59,1.29,1.08,2.61,1.54,3.95,0,0-.1-.22-.1-.22,.51,.61,1.04,1.25,1.54,1.88-.73,.75-1.45,1.54-2.19,2.27-1.22,.03-3.33,.04-4.55,0,0,0-.37,0-.37,0-.74-.73-1.47-1.53-2.19-2.27,.5-.62,1.04-1.25,1.56-1.86,0,0-.1,.22-.1,.22,.43-1.34,.92-2.66,1.51-3.95,0,0,.1,.02,.1,.02,0,.01-.94,4.09-.94,4.1,0,.01-1.02,1.46-1.03,1.47,0,0,0-.1,0-.1l1.53,1.45c-.32-.06,4.2,0,4.13-.03-.27,.18,1.53-1.46,1.47-1.42,0,0,0,.1,0,.1l-1.02-1.46s0-.02-.01-.02c0,0-.94-4.09-.94-4.09l.1-.02h0Z">
</path>
<path class="cls-7" d="M51.34,35.15c-.06-.26-.13-12.46-4.17-17.79-4.3-.96-11.69-1.03-11.69-1.03h-1.16s-7.39,.06-11.69,1.03c-4.05,5.33-4.11,17.53-4.17,17.79">
</path>
<path class="cls-8" d="M22.07,51.52v4.83s-7.8,2.03-15.68,7.12">
</path>
<path class="cls-8" d="M47.67,51.52v4.83s7.8,2.03,15.68,7.12">
</path>
<path class="cls-9" d="M29.8,74.74s-7.08-6.87-7.73-18.39c0,0,2.25,6.03,9.5,8.32-3.26,4-4.74,5.92-4.74,5.92">
</path>
<path class="cls-9" d="M39.94,74.74s7.08-6.87,7.73-18.39c0,0-2.25,6.03-9.5,8.32,3.26,4,4.74,5.92,4.74,5.92">
</path>
<line class="cls-9" x1="30.46" y1="66.29" x2="39.32" y2="66.29">
</line>
<line class="cls-9" x1="28.26" y1="69.38" x2="33.74" y2="76.4">
</line>
<line class="cls-9" x1="41.4" y1="69.43" x2="35.92" y2="76.45">
</line>
<path class="cls-1" d="M16.09,34.05c.97,1.48,.69,2.73,.98,4.28,.21,1.42,.57,2.9,.92,4.31,0,0-.09,.05-.09,.05-.79-1.28-1.38-2.69-1.72-4.16-.35-1.47-.45-3-.19-4.5l.1,.02h0Z">
</path>
<path class="cls-13" d="M9.83,62.72c3.84-2.33,8.55-4.65,12.72-5.37,0,0,.02-3.65,.02-3.65,0,0,.1,0,.1,0,.33,1.34,.47,2.69,.62,4.05-2.32,.85-4.63,1.66-6.92,2.59,0,0-3.2,1.26-3.2,1.26-1.08,.41-2.17,.81-3.29,1.19,0,0-.05-.08-.05-.08h0Z">
</path>
<path class="cls-4" d="M47.03,15.51s-10.81-4.55-20.87-2.47c8.44-3.04,16.98-3.23,20.87,2.47Z">
</path>
</g>




 <g
     id="g2850">
    <g
       id="g2837">
      <path
         id="path1951"
         d="M 0.056640625 0.04296875 L 0.056640625 79.943359 L 69.308594 79.943359 L 69.308594 0.04296875 L 0.056640625 0.04296875 z M 33.615234 3.5957031 C 34.206332 3.5957038 34.786991 3.6051034 35.421875 3.6152344 C 44.430653 3.7671809 53.471255 5.1336733 61.560547 7.5546875 L 62.064453 7.7070312 L 62.25 8.1640625 C 66.070247 17.605006 66.990234 28.726438 66.990234 40.0625 C 66.990234 51.398562 65.972723 63.025755 61.988281 72.578125 L 61.791016 73.044922 L 61.275391 73.185547 C 53.273669 75.403966 44.691921 76.529297 35.759766 76.529297 C 35.212453 76.529297 34.675812 76.519896 34.150391 76.509766 L 33.943359 76.509766 C 24.901742 76.357819 15.860367 74.989738 7.7929688 72.558594 L 7.2890625 72.40625 L 7.1035156 71.951172 C 3.2942144 62.520359 2.375 51.369168 2.375 40.0625 C 2.375 28.755832 3.3819737 17.127318 7.3554688 7.5546875 L 7.5527344 7.0898438 L 8.0664062 6.9472656 C 15.509867 4.890923 23.785212 3.7371557 32.005859 3.6054688 C 32.542226 3.5953387 33.078867 3.5957031 33.615234 3.5957031 z "
         style="opacity:1;vector-effect:none;fill:#ffffff;fill-opacity:1;fill-rule:nonzero;stroke:none;stroke-width:1.95200002;stroke-linecap:butt;stroke-linejoin:miter;stroke-miterlimit:4;stroke-dasharray:none;stroke-dashoffset:0;stroke-opacity:1" />
    </g>
    <path
       id="path1154-8-2"
       d="m 33.675163,6.6112954 c 0.557696,0 1.115392,0.00956 1.683415,0.019115 8.427403,0.14336 16.803167,1.4049288 24.363042,3.6700176 3.573384,8.830981 4.443772,19.417362 4.443772,29.761551 0,10.344189 -0.95301,21.39888 -4.68131,30.334991 -7.435942,2.064385 -15.429581,3.274388 -23.774362,3.274388 -0.506058,0 -1.012115,-0.0096 -1.518172,-0.01911 h -0.17557 C 25.56792,73.508883 17.192156,72.088619 9.6426089,69.813973 6.0795528,61.002107 5.2088244,50.415411 5.2088244,40.061979 c 0,-10.353432 0.95335,-21.389323 4.6609939,-30.325434 C 16.820359,7.8155201 24.462856,6.7450981 32.177647,6.6208528 c 0.49573,-0.00956 1.001787,-0.00956 1.497516,-0.00956 m 0,-0.9557337 c -0.506057,0 -1.012114,0 -1.518171,0.00956 C 24.40089,5.7893644 16.593149,6.8789009 9.570315,8.8190405 L 9.0849131,8.9528432 8.8990146,9.3924808 C 5.1500599,18.424166 4.1999116,29.394246 4.1999116,40.061979 c 0,10.667733 0.8675267,21.188618 4.461566,30.0865 l 0.1755708,0.430081 0.4750741,0.14336 c 7.6115135,2.293761 16.1421925,3.584001 24.6728715,3.727361 h 0.196227 c 0.495729,0.0096 1.001786,0.01911 1.518171,0.01911 8.427403,0 16.524318,-1.060864 24.073866,-3.153921 l 0.485403,-0.133802 0.185898,-0.439639 c 3.759282,-9.01257 4.719759,-19.983589 4.719759,-30.679055 0,-10.695466 -0.867528,-21.188618 -4.471894,-30.0960578 L 60.516853,9.5358409 60.041779,9.3924808 C 52.409609,7.108277 43.87893,5.8180364 35.379234,5.6746763 34.780227,5.6651187 34.232859,5.6555621 33.675163,5.6555615 Z"
       style="fill:#ff0000;stroke:#ffffff;stroke-width:1.84341729;stroke-miterlimit:4;stroke-dasharray:none" />
    <path
       id="path1154"
       d="m 33.614853,4.6077955 c 0.591098,0 1.182197,0.01013 1.784241,0.02026 8.932155,0.1519464 17.809578,1.4890758 25.822246,3.8898304 3.787408,9.3599041 4.709928,20.5803481 4.709928,31.5440931 0,10.963745 -1.01009,22.680548 -4.961693,32.151879 -7.881312,2.18803 -16.353723,3.302304 -25.198307,3.302304 -0.536368,0 -1.072735,-0.01013 -1.609102,-0.02026 H 33.97608 C 25.022033,75.343956 16.14461,74.006827 8.1428892,71.595943 4.3664269,62.256298 3.443547,51.035521 3.443547,40.061979 c 0,-10.973542 1.01045,-22.670418 4.9401601,-32.1417498 7.3668369,-2.036083 15.4670749,-3.170617 23.6439369,-3.3023039 0.525421,-0.01013 1.061788,-0.01013 1.587209,-0.01013 m 0,-1.0129766 c -0.536367,0 -1.072734,0 -1.609101,0.01013 C 23.785105,3.7366356 15.509726,4.891429 8.0662653,6.9477716 L 7.5517907,7.0895883 7.3547579,7.5555576 C 3.3812628,17.128188 2.3742062,28.755311 2.3742062,40.061979 c 0,11.306668 0.9194864,22.457692 4.7287876,31.888505 l 0.1860865,0.45584 0.5035283,0.151947 c 8.0673984,2.431144 17.1090154,3.798662 26.1506324,3.950608 h 0.207979 c 0.525421,0.01013 1.061788,0.02026 1.609101,0.02026 8.932155,0 17.514028,-1.124404 25.51575,-3.342823 l 0.514475,-0.141816 0.197032,-0.46597 c 3.984442,-9.55237 5.002445,-21.180489 5.002445,-32.516551 0,-11.336062 -0.919487,-22.457692 -4.739734,-31.8986353 L 62.064202,7.7075041 61.560674,7.5555576 C 53.471382,5.1345434 44.429765,3.7670249 35.420987,3.6150784 c -0.634884,-0.01013 -1.215036,-0.020259 -1.806134,-0.02026 z"
       style="fill:#000000;stroke:#000000;stroke-width:1.95382714;stroke-miterlimit:4;stroke-dasharray:none" />
    <g
       id="g1810">
      <path
         d="M 6.5134911,7.7433673 C 5.6489029,6.8479453 4.058602,6.5681013 3.6272194,7.3820013 3.284151,8.0292783 3.3625296,8.5309135 4.395235,8.9201755 3.2963719,9.5187755 1.4857674,9.4447465 1.1893447,7.4467713 0.95320848,5.8551433 2.674739,4.8863543 3.1399725,5.0916244 3.0034432,3.6818714 1.8221094,4.0692802 0.95849208,3.2813384 0.34259068,2.7194046 0.23126071,-0.02624603 0.0561761,0.04378767 -0.0138576,0.21887227 2.7317937,0.33020157 3.2937267,0.94610377 4.0816685,1.8097211 3.6942598,2.9910547 5.1040128,3.1275841 4.8987425,2.6623507 5.8675315,0.94082017 7.4591593,1.1769564 9.4571345,1.4733791 9.5311625,3.2839847 8.9325635,4.3828467 8.5433008,3.3501417 8.041666,3.2717627 7.3943894,3.6148312 6.5804899,4.0462137 6.8603354,5.6365129 7.7557553,6.5011023"
         style="fill:#000000;stroke:#000000;stroke-width:0.1112323px;stroke-linecap:butt;stroke-linejoin:miter;stroke-opacity:1"
         id="path1737-3" />
      <path
         d="m 62.850738,7.7433673 c 0.864588,-0.895422 2.454889,-1.175266 2.886271,-0.361366 0.343069,0.647277 0.26469,1.148912 -0.768015,1.538174 1.098863,0.5986 2.909467,0.524571 3.20589,-1.473404 0.236136,-1.591628 -1.485394,-2.560417 -1.950628,-2.3551469 0.13653,-1.409753 1.317863,-1.0223442 2.181481,-1.810286 0.615901,-0.5619338 0.727231,-3.30758442 0.902316,-3.23755072 0.07003,0.1750846 -2.675618,0.2864139 -3.237551,0.9023161 C 65.28256,1.8097211 65.669969,2.9910547 64.260216,3.1275841 64.465486,2.6623507 63.496697,0.94082018 61.905069,1.1769564 c -1.997975,0.2964227 -2.072003,2.1070283 -1.473404,3.2058903 0.389263,-1.032705 0.890898,-1.111084 1.538174,-0.7680155 0.8139,0.4313825 0.534054,2.0216817 -0.361366,2.8862711"
         style="fill:#000000;stroke:#000000;stroke-width:0.1112323px;stroke-linecap:butt;stroke-linejoin:miter;stroke-opacity:1"
         id="path1737-3-5" />
      <path
         d="m 62.850738,72.244244 c 0.864588,0.895422 2.454889,1.175266 2.886272,0.361366 0.343068,-0.647277 0.264689,-1.148912 -0.768016,-1.538174 1.098863,-0.5986 2.909468,-0.524571 3.20589,1.473404 0.236137,1.591628 -1.485394,2.560417 -1.950628,2.355147 0.13653,1.409753 1.317864,1.022344 2.181481,1.810286 0.615901,0.561934 0.727231,3.307584 0.902316,3.237551 0.07003,-0.175085 -2.675618,-0.286414 -3.237551,-0.902317 -0.787942,-0.863617 -0.400533,-2.04495 -1.810286,-2.18148 0.20527,0.465234 -0.763519,2.186764 -2.355146,1.950628 -1.997976,-0.296423 -2.072004,-2.107028 -1.473405,-3.20589 0.389263,1.032705 0.890898,1.111084 1.538175,0.768015 0.813899,-0.431382 0.534054,-2.021682 -0.361366,-2.886271"
         style="fill:#000000;stroke:#000000;stroke-width:0.1112323px;stroke-linecap:butt;stroke-linejoin:miter;stroke-opacity:1"
         id="path1737-3-7" />
      <path
         d="M 6.513491,72.244245 C 5.648903,73.139667 4.058602,73.419511 3.62722,72.605611 3.284151,71.958334 3.36253,71.456699 4.395235,71.067437 c -1.098863,-0.5986 -2.909467,-0.524571 -3.20589,1.473404 -0.23613599,1.591628 1.485394,2.560417 1.950628,2.355147 -0.13653,1.409753 -1.317863,1.022344 -2.18148099,1.810286 -0.615901,0.561933 -0.727231,3.307584 -0.902316,3.23755 C -0.01385399,79.76874 2.731794,79.65741 3.293727,79.041508 4.081669,78.177891 3.69426,76.996557 5.104013,76.860028 4.898743,77.325261 5.867532,79.046792 7.45916,78.810656 9.457135,78.514233 9.531163,76.703627 8.932564,75.604765 8.543301,76.63747 8.041666,76.715849 7.39439,76.372781 6.58049,75.941398 6.860336,74.351099 7.755756,73.48651"
         style="fill:#000000;stroke:#000000;stroke-width:0.1112323px;stroke-linecap:butt;stroke-linejoin:miter;stroke-opacity:1"
         id="path1737-3-5-5" />
    </g>
    <path
       id="path1154-9"
       d="m 33.712865,7.4258691 c 0.536813,0 1.07363,0.00933 1.620386,0.01865 8.111875,0.1398689 16.174044,1.3707167 23.450873,3.5806479 3.439594,8.615932 4.277395,18.944521 4.277395,29.036812 0,10.092292 -0.917329,20.877786 -4.506039,29.596289 -7.157536,2.014114 -14.851888,3.03982 -22.884234,3.03982 -0.487111,0 -0.974221,-0.0094 -1.461331,-0.01865 H 34.040918 C 25.909161,72.53957 17.846991,71.308722 10.580105,69.089467 7.1504515,60.492184 6.3123238,50.163289 6.3123238,40.061979 c 0,-10.101311 0.9176558,-20.868461 4.4864832,-29.586965 6.690308,-1.8742449 14.046665,-2.9186005 21.472608,-3.0398203 0.47717,-0.00933 0.964281,-0.00933 1.44145,-0.00933 m 0,-0.9324602 c -0.487111,0 -0.974221,0 -1.46133,0.00933 C 24.785826,6.6239532 17.270413,7.686958 10.510517,9.5798526 L 10.043289,9.710397 9.8643508,10.139328 c -3.6085914,8.811751 -4.5231655,19.514693 -4.5231655,29.922651 0,10.407958 0.8350459,20.672644 4.294522,29.353849 l 0.1689973,0.419608 0.4572874,0.13987 c 7.326533,2.237904 15.537818,3.496724 23.749103,3.636593 h 0.188879 c 0.47717,0.0094 0.96428,0.01865 1.461331,0.01865 8.111875,0 15.905636,-1.035031 23.172525,-3.077119 l 0.467228,-0.130544 0.178938,-0.428932 c 3.618533,-8.793101 4.543048,-19.496959 4.543048,-29.931975 0,-10.435016 -0.835047,-20.672644 -4.304463,-29.363174 l -0.168997,-0.419609 -0.457288,-0.13987 C 51.74588,7.9107484 43.534594,6.6519271 35.353133,6.512058 34.776554,6.502738 34.249678,6.493409 33.712865,6.493409 Z"
       style="fill:#000000;stroke:none;stroke-width:1.78642213;stroke-miterlimit:4;stroke-dasharray:none" />
    <path
       id="path1154-9-3"
       d="m 33.712865,7.4258686 c 0.536813,0 1.07363,0.00933 1.620386,0.01865 8.111875,0.1398689 16.174044,1.3707167 23.450873,3.5806484 3.439594,8.615932 4.277395,18.944521 4.277395,29.036812 0,10.092292 -0.917329,20.877786 -4.506039,29.596288 -7.157536,2.014114 -14.851888,3.03982 -22.884234,3.03982 -0.487111,0 -0.974221,-0.0094 -1.461331,-0.01865 H 34.040918 C 25.909161,72.539569 17.846991,71.308722 10.580105,69.089466 7.1504515,60.492184 6.3123238,50.163288 6.3123238,40.061979 c 0,-10.101312 0.9176558,-20.868461 4.4864832,-29.586965 6.690308,-1.8742454 14.046665,-2.918601 21.472608,-3.0398208 0.47717,-0.00933 0.964281,-0.00933 1.44145,-0.00933 m 0,-0.9324602 c -0.487111,0 -0.974221,0 -1.46133,0.00933 C 24.785826,6.6239527 17.270413,7.6869575 10.510517,9.5798521 L 10.043289,9.7103965 9.8643508,10.139328 C 6.2557594,18.951079 5.3411853,29.65402 5.3411853,40.061979 c 0,10.407958 0.8350459,20.672643 4.294522,29.353849 l 0.1689973,0.419608 0.4572874,0.13987 c 7.326533,2.237904 15.537818,3.496724 23.749103,3.636593 h 0.188879 c 0.47717,0.0094 0.96428,0.01865 1.461331,0.01865 8.111875,0 15.905636,-1.035032 23.172525,-3.077119 l 0.467228,-0.130544 0.178938,-0.428932 c 3.618533,-8.793101 4.543048,-19.49696 4.543048,-29.931975 0,-10.435016 -0.835047,-20.672644 -4.304463,-29.363175 l -0.168997,-0.419609 -0.457288,-0.13987 C 51.74588,7.9107479 43.534594,6.6519266 35.353133,6.5120575 34.776554,6.5027375 34.249678,6.4934085 33.712865,6.4934085 Z"
       style="fill:#000000;stroke:none;stroke-width:1.78642213;stroke-miterlimit:4;stroke-dasharray:none" />
  </g>
</svg>
