<?xml version="1.0" encoding="UTF-8"?><svg id="Capa_2" xmlns="http://www.w3.org/2000/svg" xmlns:xlink="http://www.w3.org/1999/xlink" viewBox="0 0 69.02 80"><defs><style>.cls-1{fill:#c89aed;}.cls-2{fill:#fff;}.cls-3{fill:#f8ffbf;}.cls-4{fill:#7b7be8;}.cls-5{fill:#a88347;}.cls-6{fill:#782ab5;}.cls-7{stroke-miterlimit:10;}.cls-7,.cls-8{stroke:#000;}.cls-7,.cls-8,.cls-9,.cls-10,.cls-11{fill:none;}.cls-12{fill:#1c46ff;}.cls-8,.cls-9{stroke-linecap:round;stroke-linejoin:round;}.cls-9{stroke:#deb778;stroke-dasharray:0 0 0 4.06;}.cls-13{fill:#deb778;}.cls-14{fill:url(#USGS_19_Inundación_de_tierra_2);}.cls-11{stroke:#1d1d1b;stroke-dasharray:0 0 2 2;stroke-width:.3px;}.cls-15{fill:#cf5f2b;}.cls-16{fill:#fcf0c5;}.cls-17{fill:#b83521;}</style><pattern id="USGS_19_Inundación_de_tierra_2" x="0" y="0" width="72" height="72" patternTransform="translate(-308.48 -17071) rotate(-90)" patternUnits="userSpaceOnUse" viewBox="0 0 72 72"><g><rect class="cls-10" width="72" height="72"/><g><line class="cls-11" x1="71" y1="71" x2="144.44" y2="71"/><line class="cls-11" x1="71" y1="67" x2="144.44" y2="67"/><line class="cls-11" x1="71" y1="63" x2="144.44" y2="63"/><line class="cls-11" x1="71" y1="59" x2="144.44" y2="59"/><line class="cls-11" x1="71" y1="55" x2="144.44" y2="55"/><line class="cls-11" x1="71" y1="51" x2="144.44" y2="51"/><line class="cls-11" x1="71" y1="47" x2="144.44" y2="47"/><line class="cls-11" x1="71" y1="43" x2="144.44" y2="43"/><line class="cls-11" x1="71" y1="39" x2="144.44" y2="39"/><line class="cls-11" x1="71" y1="35" x2="144.44" y2="35"/><line class="cls-11" x1="71" y1="31" x2="144.44" y2="31"/><line class="cls-11" x1="71" y1="27" x2="144.44" y2="27"/><line class="cls-11" x1="71" y1="23" x2="144.44" y2="23"/><line class="cls-11" x1="71" y1="19" x2="144.44" y2="19"/><line class="cls-11" x1="71" y1="15" x2="144.44" y2="15"/><line class="cls-11" x1="71" y1="11" x2="144.44" y2="11"/><line class="cls-11" x1="71" y1="7" x2="144.44" y2="7"/><line class="cls-11" x1="71" y1="3" x2="144.44" y2="3"/></g>
<g><line class="cls-11" x1="-1" y1="71" x2="72.44" y2="71"/><line class="cls-11" x1="-1" y1="67" x2="72.44" y2="67"/><line class="cls-11" x1="-1" y1="63" x2="72.44" y2="63"/><line class="cls-11" x1="-1" y1="59" x2="72.44" y2="59"/><line class="cls-11" x1="-1" y1="55" x2="72.44" y2="55"/><line class="cls-11" x1="-1" y1="51" x2="72.44" y2="51"/><line class="cls-11" x1="-1" y1="47" x2="72.44" y2="47"/><line class="cls-11" x1="-1" y1="43" x2="72.44" y2="43"/><line class="cls-11" x1="-1" y1="39" x2="72.44" y2="39"/><line class="cls-11" x1="-1" y1="35" x2="72.44" y2="35"/><line class="cls-11" x1="-1" y1="31" x2="72.44" y2="31"/><line class="cls-11" x1="-1" y1="27" x2="72.44" y2="27"/><line class="cls-11" x1="-1" y1="23" x2="72.44" y2="23"/><line class="cls-11" x1="-1" y1="19" x2="72.44" y2="19"/><line class="cls-11" x1="-1" y1="15" x2="72.44" y2="15"/><line class="cls-11" x1="-1" y1="11" x2="72.44" y2="11"/><line class="cls-11" x1="-1" y1="7" x2="72.44" y2="7"/><line class="cls-11" x1="-1" y1="3" x2="72.44" y2="3"/><line class="cls-11" x1="1.04" y1="69" x2="74.48" y2="69"/><line class="cls-11" x1="1.04" y1="65" x2="74.48" y2="65"/><line class="cls-11" x1="1.04" y1="61" x2="74.48" y2="61"/><line class="cls-11" x1="1.04" y1="57" x2="74.48" y2="57"/><line class="cls-11" x1="1.04" y1="53" x2="74.48" y2="53"/><line class="cls-11" x1="1.04" y1="49" x2="74.48" y2="49"/><line class="cls-11" x1="1.04" y1="45" x2="74.48" y2="45"/><line class="cls-11" x1="1.04" y1="41" x2="74.48" y2="41"/><line class="cls-11" x1="1.04" y1="37" x2="74.48" y2="37"/><line class="cls-11" x1="1.04" y1="33" x2="74.48" y2="33"/><line class="cls-11" x1="1.04" y1="29" x2="74.48" y2="29"/><line class="cls-11" x1="1.04" y1="25" x2="74.48" y2="25"/><line class="cls-11" x1="1.04" y1="21" x2="74.48" y2="21"/><line class="cls-11" x1="1.04" y1="17" x2="74.48" y2="17"/><line class="cls-11" x1="1.04" y1="13" x2="74.48" y2="13"/><line class="cls-11" x1="1.04" y1="9" x2="74.48" y2="9"/><line class="cls-11" x1="1.04" y1="5" x2="74.48" y2="5"/><line class="cls-11" x1="1.04" y1="1" x2="74.48" y2="1"/></g>
<g><line class="cls-11" x1="-73" y1="71" x2=".44" y2="71"/><line class="cls-11" x1="-73" y1="67" x2=".44" y2="67"/><line class="cls-11" x1="-73" y1="63" x2=".44" y2="63"/><line class="cls-11" x1="-73" y1="59" x2=".44" y2="59"/><line class="cls-11" x1="-73" y1="55" x2=".44" y2="55"/><line class="cls-11" x1="-73" y1="51" x2=".44" y2="51"/><line class="cls-11" x1="-73" y1="47" x2=".44" y2="47"/><line class="cls-11" x1="-73" y1="43" x2=".44" y2="43"/><line class="cls-11" x1="-73" y1="39" x2=".44" y2="39"/><line class="cls-11" x1="-73" y1="35" x2=".44" y2="35"/><line class="cls-11" x1="-73" y1="31" x2=".44" y2="31"/><line class="cls-11" x1="-73" y1="27" x2=".44" y2="27"/><line class="cls-11" x1="-73" y1="23" x2=".44" y2="23"/><line class="cls-11" x1="-73" y1="19" x2=".44" y2="19"/><line class="cls-11" x1="-73" y1="15" x2=".44" y2="15"/><line class="cls-11" x1="-73" y1="11" x2=".44" y2="11"/><line class="cls-11" x1="-73" y1="7" x2=".44" y2="7"/><line class="cls-11" x1="-73" y1="3" x2=".44" y2="3"/><line class="cls-11" x1="-70.96" y1="69" x2="2.48" y2="69"/><line class="cls-11" x1="-70.96" y1="65" x2="2.48" y2="65"/><line class="cls-11" x1="-70.96" y1="61" x2="2.48" y2="61"/><line class="cls-11" x1="-70.96" y1="57" x2="2.48" y2="57"/><line class="cls-11" x1="-70.96" y1="53" x2="2.48" y2="53"/><line class="cls-11" x1="-70.96" y1="49" x2="2.48" y2="49"/><line class="cls-11" x1="-70.96" y1="45" x2="2.48" y2="45"/><line class="cls-11" x1="-70.96" y1="41" x2="2.48" y2="41"/><line class="cls-11" x1="-70.96" y1="37" x2="2.48" y2="37"/><line class="cls-11" x1="-70.96" y1="33" x2="2.48" y2="33"/><line class="cls-11" x1="-70.96" y1="29" x2="2.48" y2="29"/><line class="cls-11" x1="-70.96" y1="25" x2="2.48" y2="25"/><line class="cls-11" x1="-70.96" y1="21" x2="2.48" y2="21"/><line class="cls-11" x1="-70.96" y1="17" x2="2.48" y2="17"/><line class="cls-11" x1="-70.96" y1="13" x2="2.48" y2="13"/><line class="cls-11" x1="-70.96" y1="9" x2="2.48" y2="9"/><line class="cls-11" x1="-70.96" y1="5" x2="2.48" y2="5"/><line class="cls-11" x1="-70.96" y1="1" x2="2.48" y2="1"/></g>
</g>
</pattern></defs><g id="Frame"><path class="cls-6" d="M64.02,40c0,11.47-1.89,22.39-5.5,31.74-7.2,2.16-14.94,3.26-23.02,3.26-.49,0-.98-.01-1.47-.02h-.17c-8.18-.15-16.29-1.47-23.6-3.85-3.45-9.22-5.26-19.93-5.26-31.13s1.89-22.38,5.48-31.73c6.73-2.01,14.13-3.13,21.6-3.26,.48-.01,.97-.01,1.45-.01,.54,0,1.08,.01,1.63,.02,8.16,.15,16.27,1.47,23.59,3.84,3.46,9.24,5.27,19.95,5.27,31.14Z"/><path class="cls-14" d="M34.03,5.59V74.98h-.17c-8.18-.15-16.29-1.47-23.6-3.85-3.45-9.22-5.26-19.93-5.26-31.13s1.89-22.38,5.48-31.73c6.73-2.01,14.13-3.13,21.6-3.26,.65,.16,1.3,.36,1.95,.58Z"/></g>
<g><path class="cls-1" d="M6.49,61.3l15.41-5.88,.11-8.98-1.11-1.77-.78-4.55s-3.1-1.22-3.66-5.54c-.67-4.88,1.77-5.65,2.77-5.54-.22-5.88,2.88-13.08,2.88-13.08,0,0,6.99-3.22,14.19-3.22,8.09,.11,11.64,3.44,11.64,3.44,0,0,3.66,6.65,2.66,12.75,3.66,.44,3.22,3.22,2.66,6.54-.78,3.55-3.33,5.32-3.33,5.32l-1.11,4.32-1.33,2.11,.67,8.32,14.75,5.54-2.22,12.42-26.94,3.99-26.06-5.43-1.22-10.75Z"/><path class="cls-2" d="M38.48,56.67c-1.91,.33-3.66-1.15-3.65-3.09l.18-26.39c.03-4.7,3.59-8.62,8.26-9.11l3.27-.35s3.24,5.12,3.43,9.73c.01,5.29,.66,13.28-.94,17.05-3.58,6.03-10.55,12.15-10.55,12.15h0Z"/><path d="M19.98,30.56s-1.34-4.27-.13-8.34,2.61-6.24,2.61-6.24c0,0,6.18-2.87,12.8-3.31,6.88-.25,12.69,3.51,12.69,3.51,0,0,4.12,6.81,2.47,13.69-.7-6.3-3.18-11.08-4.2-12.1-6.18,1.91-18.02,1.15-22.42-.19-4.08,4.97-3.82,12.99-3.82,12.99Z"/><path class="cls-3" d="M31.3,36.4l-7.95-.06s0,1.87,3.27,2.1,4.68-2.04,4.68-2.04Z"/><path class="cls-3" d="M38.73,36.33l7.9,.03s-.14,1.64-2.38,1.99-5.31-.59-5.52-2.03Z"/><path class="cls-3" d="M22.01,50.52s3.22,7.82,11.45,7.98c7.58,.08,12.9-3.14,14.19-7.82,.24,5.64,.73,7.42,.08,10.24s-1.13,9.83-5.88,13.94c-9.19,2.02-14.51,.08-14.51,.08,0,0-4.76-6.29-5.48-11.45s0-8.62,0-8.62l.16-4.35Z"/><path class="cls-17" d="M32.82,58.61s-1.82,2.44-2.27,5.17c1.65,2.78,2.22,3.75,2.22,3.75l-3.64,7.1,6.08,1.7,5.17-1.76-3.69-7.21,2.56-3.41s-.85-4.26-2.16-5.45c-2.33-.23-4.26,.11-4.26,.11Z"/><path class="cls-17" d="M4.96,62.01s13.55-6.03,16.42-6.33c-.3,8.31,3.46,16.71,7.52,19.98-12.36,.59-20.57-2.77-20.57-2.77l-3.36-10.88Z"/><path class="cls-17" d="M48.18,55.53s.19,13.1-7.82,20.22c13.45-.59,18.59-2.87,18.59-2.87l3.46-12.46-14.24-4.89Z"/><path d="M39.68,55.9l-17.48,18.91-11.91-1.62-3.06-12.45,14.67-5.32,.43-8.45s6.22,7.55,8.77,8.88c4.8,.92,8.57,.06,8.57,.06Z"/><path d="M19.35,29.68s-1.08-.98-1.95-.1-.62,4.47-.41,6.63,2.41,4.06,3.6,4.42c-.57-4.62-.51-8.48-.51-8.48l-.67-2.26"/><path class="cls-2" d="M46.29,50.27l-5.05,5.37s4.5-1.14,5.05-5.37Z"/><path class="cls-1" d="M24.33,19.3c3.82,.94,7.25,1.08,9.01,1.08,.66,0,1.09-.02,1.16-.03h.94c.17,0,.62,.02,1.3,.02,1.74,0,5.14-.15,8.93-1.08,2.78,3.99,2.78,12.64,2.78,13.03,0,.12,.01,.23,.04,.35,0,.05,0,.1,0,.13s0,.08,0,.11c.44,3.85-.81,10.25-1.07,11.55-.64,1.05-3.87,6.09-9.44,10.3-.98,.12-1.96,.18-2.92,.18s-2.02-.07-3.01-.2c-5.41-4.07-8.66-9-9.46-10.29-.23-1.16-1.5-7.68-1.06-11.54,0-.04,0-.08,0-.11,0-.06,0-.14-.01-.24,.01-.08,.02-.17,.02-.25,0-.38,0-9.03,2.78-13.02m21.73-1.13c-3.9,1.05-7.49,1.21-9.32,1.21-.75,0-1.21-.03-1.27-.03h-.98c-.05,.01-.46,.04-1.15,.04-1.78,0-5.42-.15-9.4-1.22-3.47,4.09-3.39,14.06-3.39,14.16,0,.07-.02,.14-.05,.21,.01,.02,.01,.05,.02,.08,.02,.06,.02,.12,.02,.19-.48,4.2,.94,11.22,1.11,12.03,.4,.66,3.83,6.29,10.01,10.87,1.13,.16,2.27,.24,3.4,.24s2.2-.07,3.31-.22c6.17-4.59,9.61-10.23,10-10.89,.17-.81,1.6-7.83,1.12-12.03,0-.07,0-.13,.02-.19,0-.02,.01-.03,.01-.05-.04-.07-.07-.15-.07-.24,0-.1,.08-10.07-3.39-14.16h0Z"/><path class="cls-15" d="M49.48,58.31l11.71,4.62-1.88,7.78-11.63-4.1s1.71-3.59,1.8-8.29Z"/><polygon class="cls-15" points="34.59 62.43 34.59 74.68 39.16 74.68 35.4 67.42 37.76 63.88 36.15 60.76 34.59 62.43"/><path class="cls-2" d="M26.1,39.77c.97,.09,2.3,.08,3.7-.34,.38-.11,.67,.31,.44,.63-1.91,2.5-3.42,2.31-4.71,.88-.42-.46-.05-1.22,.57-1.16Z"/><polygon class="cls-4" points="31.94 36.15 32.24 32.37 26.98 32.03 22.69 32.63 23.16 36.32 31.94 36.15"/><polygon class="cls-4" points="38.1 36.15 37.8 32.37 43.07 32.03 47.24 32.69 46.89 36.32 38.1 36.15"/><path class="cls-2" d="M50.81,30.22s2.83,2.38,1.61,7.59c2.38-5.6,.32-10.3-1.61-7.59Z"/><path class="cls-8" d="M31.45,56.18s-.01-.01-.01-.01c-6.77-4.99-10.26-11.15-10.26-11.15,0,0-1.66-7.69-1.14-12.27-2.06-7.66,.23-13.49,2.14-16.68,3.06-1.63,7.45-3.28,12.72-3.28s9.83,1.66,12.94,3.27h.01s-.01,0-.01,0h.01c1.91,3.2,4.2,9.03,2.14,16.69,.52,4.58-1.15,12.27-1.15,12.27,0,0-3.5,6.19-10.28,11.19-2.79,.39-5.22,.26-7.11-.03-.01,0-.01-.01-.01-.01h.01Z"/><path class="cls-8" d="M19.32,29.55s-1.41-1.31-2.25,.47-1.12,9.04,3.19,10.73"/><path class="cls-8" d="M50.8,29.55s1.41-1.31,2.25,.47,.84,9.09-3.47,10.78"/><path class="cls-8" d="M49.95,32.33s.13-10.59-3.72-14.73c-5.61,1.57-10.72,1.25-10.72,1.25h-1.01s-5.11,.31-10.72-1.25c-3.85,4.14-3.72,14.73-3.72,14.73"/><path d="M42.15,28.68c-1.07-.57-2.24-1.1-3.46-1.03l-3.69,.02-3.69-.02c-1.22-.06-2.39,.47-3.46,1.03-.05,.03-.1-.05-.05-.09,1.82-2.05,4.71-1.86,7.2-1.92,2.49,.06,5.39-.13,7.2,1.92,.05,.03,0,.12-.05,.09h0Z"/><polygon points="31.66 34.45 26.82 32.38 22.68 32.69 27.61 30.93 32.28 32.34 31.66 34.45"/><path d="M24.05,37.71c-.41-.36-.67-.86-.92-1.34-.04-.08-.01-.18,.07-.23,1.4-.19,2.81-.26,4.21-.33,1.39-.06,2.78-.09,4.17-.08,1.25,.28-.44,1.99-.96,2.23-1.63,1.09-3.83,.91-5.56,.2,1.22,.15,2.45,.11,3.56-.19,.94-.25,2.04-.93,2.43-1.81,0,0,.49,.56,.49,.56-2.75,.06-5.49,.03-8.24-.21,0,0,.17-.25,.17-.25,.14,.5,.3,1.01,.57,1.47h0Z"/><polygon points="38.26 34.45 43.1 32.38 47.24 32.69 42.31 30.93 37.64 32.34 38.26 34.45"/><path d="M45.88,37.71c.27-.46,.43-.97,.57-1.47l.17,.25c-2.74,.24-5.49,.27-8.24,.21,0,0,.49-.56,.49-.56,.39,.89,1.48,1.56,2.43,1.81,1.11,.3,2.34,.34,3.56,.19-2.05,.87-4.73,.87-6.36-.84-.31-.26-1.08-1.46-.17-1.59,1.39,0,2.78,.02,4.17,.08,1.39,.06,2.77,.15,4.16,.31,.09,.01,.16,.09,.15,.19-.23,.51-.53,1.02-.94,1.4h0Z"/><path d="M37.72,39.69c.23,.4,.41,.8,.59,1.21,.04,.08,.01,.18-.05,.23-.48,.44-1,.79-1.56,1.07-.61,.27-1.28,.64-1.95,.65-1.2-.33-2.34-.86-3.27-1.72-.2-.32,.4-1.08,.54-1.45,0,.46-.04,.9-.09,1.35l-.1-.28c1,.47,2.08,.85,3.16,1.13,0,0-.25,0-.25,0,1.07-.27,2.15-.65,3.15-1.13,0,0-.1,.28-.1,.28-.05-.44-.09-.89-.09-1.35h0Z"/><path d="M40.61,50.64l-.89-3.51-4.88-2.17-4.89,2.17-.88,3.51s-.77-2.34,.04-4.77c2.23-2.31,5.35-2.73,5.73-2.77,.38,.04,3.5,.46,5.73,2.77,.81,2.43,.04,4.77,.04,4.77Z"/><path d="M38.76,47.74c.09,.34,.17,.67,.24,1.01,.02,.12-.08,.23-.2,.21-1.94-.32-3.9-.48-5.85-.27-.66,.07-1.34,.17-2.02,.27-.1,.02-.19-.05-.21-.15,.16-1.08,.29-1.23,.41-.05,0,0-.27-.2-.27-.2,2.46-1.28,5.54-1.28,8,0,0,0-.27,.2-.27,.2,.04-.34,.1-.68,.17-1.02h0Z"/><path d="M28.86,54.11l.09-2.42s1.68,3.23,5.96,3.23,5.8-3.1,5.8-3.1v2.26l-2.3,2.08-7.07,.09-2.48-2.14Z"/><polyline class="cls-8" points="21.95 46.25 21.95 55.2 6.67 61.12"/><polyline class="cls-8" points="47.73 46.83 47.73 55.2 63 61.12"/><path class="cls-8" d="M47.74,49.87s-2.14,8.62-12.26,8.62h-1.22c-10.13,0-12.26-8.62-12.26-8.62"/><path class="cls-8" d="M21.95,55.2s.21,5.57,8.12,10.97c.34-4.27,2.73-7.51,2.73-7.51"/><path class="cls-8" d="M47.78,55.2s-.21,5.57-8.12,10.97c-.34-4.27-2.73-7.51-2.73-7.51"/><polyline class="cls-8" points="39.03 64.19 36.67 67.59 40.88 75.56"/><path class="cls-8" d="M21.71,55.28s-2.04,11.14,7.03,20.28l4.22-7.98-2.37-3.4"/><path class="cls-8" d="M47.84,55.28s2.04,11.14-7.03,20.28"/><path class="cls-8" d="M55.83,58.59s-.14,10.37-4.74,14.71"/><path class="cls-1" d="M17.67,29.87c.6,1.85,.14,3.3,.3,5.08,.11,1.7,.59,3.25,1.36,4.81,0,0-.07,.07-.07,.07-2.35-2.55-3-7-1.59-9.96h0Z"/><path class="cls-17" d="M23.09,50.53c.42,1.91,.6,3.85,.75,5.79-3.3,1.53-6.69,2.85-10.21,3.76-1.11,.32-2.24,.56-3.39,.75,0,0-.04-.09-.04-.09,4.16-1.56,8.83-3.58,12.77-4.89,0,0,.03-5.32,.03-5.32h.1Z"/><path class="cls-12" d="M46.64,16.11s-14.68,3.9-22.05-.31c7,1.18,11.46,.62,11.46,.62,0,0-9.72-.37-8.92-1.98,7.99-2.23,17.03-.68,19.51,1.67Z"/></g>
<g id="BG"><path class="cls-5" d="M62.56,4.88C54.4,1.94,45.12,.2,35.25,.02,34.68,.01,34.1,0,33.53,0,23.88,0,14.77,1.52,6.72,4.21,2.49,14.22,0,26.6,0,40s2.39,25.22,6.45,35.11c8.16,2.94,17.45,4.69,27.32,4.87,.58,.01,1.15,.02,1.73,.02,9.63,0,18.73-1.51,26.78-4.2,4.24-10.01,6.74-22.39,6.74-35.8s-2.4-25.24-6.46-35.12Zm-4.04,66.86c-7.2,2.16-14.94,3.26-23.02,3.26-.49,0-.98-.01-1.47-.02h-.17c-8.18-.15-16.29-1.47-23.6-3.85-3.45-9.22-5.26-19.93-5.26-31.13s1.89-22.38,5.48-31.73c6.73-2.01,14.13-3.13,21.6-3.26,.48-.01,.97-.01,1.45-.01,.54,0,1.08,.01,1.63,.02,8.16,.15,16.27,1.47,23.59,3.84,3.46,9.24,5.27,19.95,5.27,31.14s-1.89,22.39-5.5,31.74Z"/><path class="cls-13" d="M17.21,2.06h0c1.63,.63,2.06,2.75,.81,3.97l-1.26,1.22s8.35-2.37,18.84-1.69h0c-1-1.49-.45-3.52,1.14-4.34l1-.51S28.26-.43,17.21,2.06Z"/><path class="cls-16" d="M21.81,1.66s.7,2.18-.22,3.1c3.77-.41,7.98-.74,11.12-.74-.33-1.33,1.26-3.4,1.26-3.4,0,0-6.17-.26-12.16,1.03Z"/><path class="cls-13" d="M36.25,79.21h0c-1.52-.87-1.62-3.03-.2-4.04l1.43-1.02s-8.61,1.07-18.88-1.19h0c.76,1.63-.09,3.55-1.79,4.11l-1.07,.36s9.19,2.56,20.5,1.78Z"/><path class="cls-16" d="M19.28,77.8s1.76-1.83,1.3-3.09c4.43,.69,9.11,1.14,12.25,1.14-.33,1.33,.44,3.4,.44,3.4,0,0-8-.16-13.99-1.45Z"/><polygon points="47.48 1.77 47.48 6.73 54.49 8.44 54.49 2.62 47.48 1.77"/><line class="cls-7" x1="45.5" y1="1.23" x2="45.5" y2="6.29"/><line class="cls-7" x1="56.47" y1="3.67" x2="56.47" y2="8.73"/><polygon points="47.48 78.74 47.48 73.78 54.49 72.07 54.49 77.88 47.48 78.74"/><line class="cls-7" x1="45.5" y1="79.28" x2="45.5" y2="74.21"/><line class="cls-7" x1="56.47" y1="76.84" x2="56.47" y2="71.77"/><path d="M33.53,1c.56,0,1.14,.01,1.7,.02,9.39,.17,18.33,1.74,26.57,4.65,4.07,10.08,6.22,21.94,6.22,34.33s-2.24,24.79-6.49,34.99c-8.12,2.66-16.87,4.01-26.03,4.01-.56,0-1.12,0-1.71-.02-9.25-.17-18.42-1.78-26.58-4.66C3.15,64.25,1,52.39,1,40S3.23,15.21,7.47,5.02C15.6,2.35,24.37,1,33.53,1m0-1C23.88,0,14.77,1.52,6.72,4.21,2.49,14.22,0,26.6,0,40s2.39,25.22,6.45,35.11c8.16,2.94,17.45,4.69,27.32,4.87,.58,.01,1.15,.02,1.73,.02,9.63,0,18.73-1.51,26.78-4.2,4.24-10.01,6.74-22.39,6.74-35.8s-2.4-25.24-6.46-35.12C54.4,1.94,45.12,.2,35.25,.02c-.57-.01-1.15-.02-1.72-.02h0Z"/><path class="cls-13" d="M33.53,6c.52,0,1.05,0,1.61,.02,7.87,.14,15.75,1.4,22.84,3.64,3.3,9,5.04,19.47,5.04,30.34s-1.82,21.82-5.26,30.92c-6.98,2.04-14.47,3.08-22.26,3.08-.48,0-.97,0-1.47-.02h-.15c-7.89-.14-15.78-1.41-22.85-3.65-3.29-8.99-5.03-19.46-5.03-30.33s1.81-21.79,5.24-30.91c6.5-1.89,13.7-2.95,20.86-3.08,.47,0,.96,0,1.43,0m0-1c-.48,0-.97,0-1.45,.01-7.47,.13-14.87,1.25-21.6,3.26-3.59,9.35-5.48,20.26-5.48,31.73s1.81,21.91,5.26,31.13c7.31,2.38,15.42,3.7,23.6,3.85h.17c.49,.01,.98,.02,1.47,.02,8.08,0,15.82-1.1,23.02-3.26,3.61-9.35,5.5-20.27,5.5-31.74s-1.81-21.9-5.27-31.14c-7.32-2.37-15.43-3.69-23.59-3.84-.55-.01-1.09-.02-1.63-.02h0Z"/><path d="M33.53,5c.54,0,1.08,.01,1.63,.02,8.16,.15,16.27,1.47,23.59,3.84,3.46,9.24,5.27,19.95,5.27,31.14s-1.89,22.39-5.5,31.74c-7.2,2.16-14.94,3.26-23.02,3.26-.49,0-.98-.01-1.47-.02h-.17c-8.18-.15-16.29-1.47-23.6-3.85-3.45-9.22-5.26-19.93-5.26-31.13s1.89-22.38,5.48-31.73c6.73-2.01,14.13-3.13,21.6-3.26,.48-.01,.97-.01,1.45-.01m0-1c-.49,0-.98,0-1.47,.01-7.51,.13-15.07,1.27-21.87,3.3l-.47,.14-.18,.46c-3.63,9.45-5.55,20.55-5.55,32.09s1.84,22.17,5.32,31.48l.17,.45,.46,.15c7.37,2.4,15.63,3.75,23.89,3.9h.19c.48,.01,.97,.02,1.47,.02,8.16,0,16-1.11,23.31-3.3l.47-.14,.18-.46c3.64-9.43,5.57-20.53,5.57-32.1s-1.84-22.17-5.33-31.49l-.17-.45-.46-.15c-7.39-2.39-15.65-3.74-23.88-3.89-.58-.01-1.11-.02-1.65-.02h0Z"/><path class="cls-9" d="M8.14,7.1s-12.66,32.94,0,66.06"/><path class="cls-9" d="M60.88,7.58s12.66,32.94,0,66.06"/></g>
</svg>