<?xml version="1.0" encoding="UTF-8"?><svg id="Capa_2" xmlns="http://www.w3.org/2000/svg" xmlns:xlink="http://www.w3.org/1999/xlink" viewBox="0 0 69.02 80"><defs><style>.cls-1{fill:#c89aed;}.cls-2{fill:#fff;}.cls-3{fill:#f8ffbf;}.cls-4{fill:#7b7be8;}.cls-5{fill:#a88347;}.cls-6{fill:#782ab5;}.cls-7,.cls-8{stroke-miterlimit:10;}.cls-7,.cls-8,.cls-9,.cls-10,.cls-11,.cls-12{fill:none;}.cls-7,.cls-8,.cls-12{stroke:#000;}.cls-8{stroke-width:.75px;}.cls-9{stroke:#deb778;stroke-dasharray:0 0 0 4.06;}.cls-9,.cls-12{stroke-linecap:round;stroke-linejoin:round;}.cls-13{fill:#deb778;}.cls-14{fill:url(#USGS_19_Inundación_de_tierra_2);}.cls-11{stroke:#1d1d1b;stroke-dasharray:0 0 2 2;stroke-width:.3px;}.cls-15{fill:#fcf0c5;}.cls-16{fill:#b83521;}.cls-12{stroke-width:.97px;}</style><pattern id="USGS_19_Inundación_de_tierra_2" x="0" y="0" width="72" height="72" patternTransform="translate(51.52 -16207) rotate(-90)" patternUnits="userSpaceOnUse" viewBox="0 0 72 72"><g><rect class="cls-10" width="72" height="72"/><g><line class="cls-11" x1="71" y1="71" x2="144.44" y2="71"/><line class="cls-11" x1="71" y1="67" x2="144.44" y2="67"/><line class="cls-11" x1="71" y1="63" x2="144.44" y2="63"/><line class="cls-11" x1="71" y1="59" x2="144.44" y2="59"/><line class="cls-11" x1="71" y1="55" x2="144.44" y2="55"/><line class="cls-11" x1="71" y1="51" x2="144.44" y2="51"/><line class="cls-11" x1="71" y1="47" x2="144.44" y2="47"/><line class="cls-11" x1="71" y1="43" x2="144.44" y2="43"/><line class="cls-11" x1="71" y1="39" x2="144.44" y2="39"/><line class="cls-11" x1="71" y1="35" x2="144.44" y2="35"/><line class="cls-11" x1="71" y1="31" x2="144.44" y2="31"/><line class="cls-11" x1="71" y1="27" x2="144.44" y2="27"/><line class="cls-11" x1="71" y1="23" x2="144.44" y2="23"/><line class="cls-11" x1="71" y1="19" x2="144.44" y2="19"/><line class="cls-11" x1="71" y1="15" x2="144.44" y2="15"/><line class="cls-11" x1="71" y1="11" x2="144.44" y2="11"/><line class="cls-11" x1="71" y1="7" x2="144.44" y2="7"/><line class="cls-11" x1="71" y1="3" x2="144.44" y2="3"/></g><g><line class="cls-11" x1="-1" y1="71" x2="72.44" y2="71"/><line class="cls-11" x1="-1" y1="67" x2="72.44" y2="67"/><line class="cls-11" x1="-1" y1="63" x2="72.44" y2="63"/><line class="cls-11" x1="-1" y1="59" x2="72.44" y2="59"/><line class="cls-11" x1="-1" y1="55" x2="72.44" y2="55"/><line class="cls-11" x1="-1" y1="51" x2="72.44" y2="51"/><line class="cls-11" x1="-1" y1="47" x2="72.44" y2="47"/><line class="cls-11" x1="-1" y1="43" x2="72.44" y2="43"/><line class="cls-11" x1="-1" y1="39" x2="72.44" y2="39"/><line class="cls-11" x1="-1" y1="35" x2="72.44" y2="35"/><line class="cls-11" x1="-1" y1="31" x2="72.44" y2="31"/><line class="cls-11" x1="-1" y1="27" x2="72.44" y2="27"/><line class="cls-11" x1="-1" y1="23" x2="72.44" y2="23"/><line class="cls-11" x1="-1" y1="19" x2="72.44" y2="19"/><line class="cls-11" x1="-1" y1="15" x2="72.44" y2="15"/><line class="cls-11" x1="-1" y1="11" x2="72.44" y2="11"/><line class="cls-11" x1="-1" y1="7" x2="72.44" y2="7"/><line class="cls-11" x1="-1" y1="3" x2="72.44" y2="3"/><line class="cls-11" x1="1.04" y1="69" x2="74.48" y2="69"/><line class="cls-11" x1="1.04" y1="65" x2="74.48" y2="65"/><line class="cls-11" x1="1.04" y1="61" x2="74.48" y2="61"/><line class="cls-11" x1="1.04" y1="57" x2="74.48" y2="57"/><line class="cls-11" x1="1.04" y1="53" x2="74.48" y2="53"/><line class="cls-11" x1="1.04" y1="49" x2="74.48" y2="49"/><line class="cls-11" x1="1.04" y1="45" x2="74.48" y2="45"/><line class="cls-11" x1="1.04" y1="41" x2="74.48" y2="41"/><line class="cls-11" x1="1.04" y1="37" x2="74.48" y2="37"/><line class="cls-11" x1="1.04" y1="33" x2="74.48" y2="33"/><line class="cls-11" x1="1.04" y1="29" x2="74.48" y2="29"/><line class="cls-11" x1="1.04" y1="25" x2="74.48" y2="25"/><line class="cls-11" x1="1.04" y1="21" x2="74.48" y2="21"/><line class="cls-11" x1="1.04" y1="17" x2="74.48" y2="17"/><line class="cls-11" x1="1.04" y1="13" x2="74.48" y2="13"/><line class="cls-11" x1="1.04" y1="9" x2="74.48" y2="9"/><line class="cls-11" x1="1.04" y1="5" x2="74.48" y2="5"/><line class="cls-11" x1="1.04" y1="1" x2="74.48" y2="1"/></g><g><line class="cls-11" x1="-73" y1="71" x2=".44" y2="71"/><line class="cls-11" x1="-73" y1="67" x2=".44" y2="67"/><line class="cls-11" x1="-73" y1="63" x2=".44" y2="63"/><line class="cls-11" x1="-73" y1="59" x2=".44" y2="59"/><line class="cls-11" x1="-73" y1="55" x2=".44" y2="55"/><line class="cls-11" x1="-73" y1="51" x2=".44" y2="51"/><line class="cls-11" x1="-73" y1="47" x2=".44" y2="47"/><line class="cls-11" x1="-73" y1="43" x2=".44" y2="43"/><line class="cls-11" x1="-73" y1="39" x2=".44" y2="39"/><line class="cls-11" x1="-73" y1="35" x2=".44" y2="35"/><line class="cls-11" x1="-73" y1="31" x2=".44" y2="31"/><line class="cls-11" x1="-73" y1="27" x2=".44" y2="27"/><line class="cls-11" x1="-73" y1="23" x2=".44" y2="23"/><line class="cls-11" x1="-73" y1="19" x2=".44" y2="19"/><line class="cls-11" x1="-73" y1="15" x2=".44" y2="15"/><line class="cls-11" x1="-73" y1="11" x2=".44" y2="11"/><line class="cls-11" x1="-73" y1="7" x2=".44" y2="7"/><line class="cls-11" x1="-73" y1="3" x2=".44" y2="3"/><line class="cls-11" x1="-70.96" y1="69" x2="2.48" y2="69"/><line class="cls-11" x1="-70.96" y1="65" x2="2.48" y2="65"/><line class="cls-11" x1="-70.96" y1="61" x2="2.48" y2="61"/><line class="cls-11" x1="-70.96" y1="57" x2="2.48" y2="57"/><line class="cls-11" x1="-70.96" y1="53" x2="2.48" y2="53"/><line class="cls-11" x1="-70.96" y1="49" x2="2.48" y2="49"/><line class="cls-11" x1="-70.96" y1="45" x2="2.48" y2="45"/><line class="cls-11" x1="-70.96" y1="41" x2="2.48" y2="41"/><line class="cls-11" x1="-70.96" y1="37" x2="2.48" y2="37"/><line class="cls-11" x1="-70.96" y1="33" x2="2.48" y2="33"/><line class="cls-11" x1="-70.96" y1="29" x2="2.48" y2="29"/><line class="cls-11" x1="-70.96" y1="25" x2="2.48" y2="25"/><line class="cls-11" x1="-70.96" y1="21" x2="2.48" y2="21"/><line class="cls-11" x1="-70.96" y1="17" x2="2.48" y2="17"/><line class="cls-11" x1="-70.96" y1="13" x2="2.48" y2="13"/><line class="cls-11" x1="-70.96" y1="9" x2="2.48" y2="9"/><line class="cls-11" x1="-70.96" y1="5" x2="2.48" y2="5"/><line class="cls-11" x1="-70.96" y1="1" x2="2.48" y2="1"/></g></g></pattern></defs><g id="BG"><g><path class="cls-6" d="M64.02,40c0,11.47-1.89,22.39-5.5,31.74-7.2,2.16-14.94,3.26-23.02,3.26-.49,0-.98-.01-1.47-.02h-.17c-8.18-.15-16.29-1.47-23.6-3.85-3.45-9.22-5.26-19.93-5.26-31.13s1.89-22.38,5.48-31.73c6.73-2.01,14.13-3.13,21.6-3.26,.48-.01,.97-.01,1.45-.01,.54,0,1.08,.01,1.63,.02,8.16,.15,16.27,1.47,23.59,3.84,3.46,9.24,5.27,19.95,5.27,31.14Z"/><path class="cls-14" d="M34.03,5.59V74.98h-.17c-8.18-.15-16.29-1.47-23.6-3.85-3.45-9.22-5.26-19.93-5.26-31.13s1.89-22.38,5.48-31.73c6.73-2.01,14.13-3.13,21.6-3.26,.65,.16,1.3,.36,1.95,.58Z"/></g></g><g id="Capa_10"><g><path class="cls-1" d="M32.87,10.87s-9.87,1.15-12.51,7c-2.41,6.66-1.61,13.32-1.61,13.32l-2.98-2.98s-1.26,3.56-.57,6.77c.69,3.33,1.84,6.66,3.79,7.46-.11,1.72-.23,2.18-.23,2.18,0,0-10.68,2.64-14.58,7.92,2.53,15.73,5.05,20.2,5.05,20.2l27.66,4.71,24.79-5.62,1.84-21.12s-8.95-5.05-12.74-5.85c-.34-2.07-.23-2.41-.23-2.41,0,0,2.75-2.18,3.44-6.31,.8-4.71-.34-7.92-.34-7.92l-2.87,3.1s.69-7.46-1.72-13.09c-2.53-5.62-8.84-8.04-16.18-7.35Z"/><path class="cls-2" d="M34.52,62.54V13.07s4.5-1.57,7.64-1.01c3.26,.67,6.97,4.16,7.98,9.67,.79,6.07-.11,17.2-.11,17.2,0,0,1.69,11.8,.79,15.74s-4.16,6.18-7.98,7.87c-4.38,1.8-8.32,0-8.32,0Z"/><path class="cls-4" d="M46.95,36.14l1.66-4.46s-3.92-1.84-5.7-1.49c-2.55,1.78-4.52,3.8-4.52,3.8l.65,2.12,7.91,.02Z"/><path class="cls-4" d="M22.75,36.14l-1.66-4.46s3.92-1.84,5.7-1.49c2.55,1.78,4.52,3.8,4.52,3.8l-.65,2.12-7.91,.02Z"/><path class="cls-16" d="M4.84,51.98s6.08-5.13,13.92-7.37c-.93,10.33,2.03,24.59,6.47,30.4-12.15,.95-16.9-1.8-16.9-1.8l-3.49-21.23Z"/><path class="cls-16" d="M64.6,51.98s-6.08-5.13-13.92-7.37c.93,10.33-2.03,24.59-6.47,30.4,12.15,.95,16.9-1.8,16.9-1.8l3.49-21.23Z"/><path class="cls-3" d="M30.74,36.13s-1.23-1.32-2.59-1.5c-3.41,.32-4.19,1.41-4.19,1.41,0,0,4.78,.91,6.78,.09Z"/><path class="cls-3" d="M39.04,36.13s1.23-1.32,2.59-1.5c3.41,.32,4.19,1.41,4.19,1.41,0,0-4.78,.91-6.78,.09Z"/><path class="cls-3" d="M18.94,55.76s2.08,5.54,9.89,7.32,19.19-.2,21.66-7.22c.69,7.12-6.63,19.48-6.63,19.48l-19.09-.59s-2.87-5.93-4.45-10.28"/><path d="M18.76,31.18l-2.98-2.98s-1.7,5.66,.48,10.92c1.49,3.18,2.28,3.67,2.28,3.67l.99-4.56-.77-7.05Z"/><path class="cls-2" d="M23.95,40.17c1.01,.74,2.61,1.48,4.5,.72,.35-.14,.65,.29,.42,.59-2.42,3.05-4.03,2.51-5.47-.84-.15-.35,.25-.69,.56-.46Z"/><path d="M49.96,57.67l-12.57,17.23s-20.83,.12-27.58-4.42c-4.54-13.97-3.61-20.37-3.61-20.37l12.56-5.49s-1.62,7.82,.94,12.36,10.47,6.75,10.47,6.75c0,0,9.16-.62,12.67-1.19,4.21-.91,7.12-4.87,7.12-4.87Z"/><path class="cls-1" d="M32.91,12.11l.69,1.66c.16,.37,.52,.61,.92,.61,.24,0,.4-.08,.54-.15,1.52-.75,3.13-1.14,4.66-1.14,3.23,0,5.83,1.78,7.72,5.3,1.61,3,2.23,7.2,1.83,12.49-.1,1.53-.6,4.6-1.02,7.09-.13,.72-.31,1.38-.54,1.98-.87,2.21-2.16,4.25-2.18,4.29-.43,.7-.21,1.62,.46,2.03,.24,.16,.52,.24,.81,.24,.52,0,.99-.27,1.26-.71h0c.11-.18,.53-.84,1.03-1.77,.23,2.49,.42,5.17,.46,7.29,.03,2.15-.56,6-4.63,8.6-.45-1.1-.95-1.82-1.03-1.93-.38-.51-.97-.82-1.6-.82-.37,0-.72,.1-1.03,.3l-4.05,2.49c-.78-.36-1.65-.55-2.56-.55s-1.79,.19-2.56,.55l-4.04-2.49c-.32-.2-.67-.3-1.04-.3-.63,0-1.23,.31-1.61,.82-.01,.02-.05,.08-.06,.09-.35,.55-.67,1.15-.93,1.77-4.15-2.73-4.55-6.81-4.52-8.53,.03-2.15,.22-4.83,.45-7.3,.45,.83,.83,1.46,1.01,1.75,0,0,.02,.04,.03,.04,.28,.43,.75,.68,1.25,.68,.29,0,.57-.08,.8-.24,.33-.21,.56-.54,.65-.93,.08-.39,.01-.78-.2-1.12,0,0,0-.01,0-.01-.32-.51-3.15-5.2-3.63-12.39-.25-2.48-.58-8.76,1.77-13.46,2.46-4.91,8.8-6.02,10.88-6.26m.64-1.06c-.07,0-9.21,.45-12.42,6.87-2.41,4.82-2.17,11.04-1.87,14.01,.53,7.87,3.77,12.8,3.79,12.84,.15,.23,.08,.53-.14,.67-.08,.05-.17,.08-.26,.08-.16,0-.32-.08-.42-.23-.08-.13-1.58-2.48-2.49-5-.41,3.48-.79,7.89-.84,11.03-.04,2.1,.51,7.08,6.05,10.02,.46-1.57,1.2-2.65,1.26-2.75,.19-.26,.49-.41,.8-.41,.18,0,.35,.05,.51,.15l4.53,2.79c.75-.46,1.65-.7,2.6-.7s1.85,.24,2.6,.7l4.54-2.79c.16-.1,.33-.15,.51-.15,.3,0,.6,.15,.79,.41,.07,.1,.83,1.21,1.29,2.81,5.65-2.93,6.2-7.96,6.17-10.08-.06-3.13-.44-7.54-.84-11.03-.92,2.52-2.41,4.87-2.5,5-.09,.15-.25,.23-.41,.23-.09,0-.18-.03-.26-.08-.23-.14-.29-.44-.15-.67,.02-.03,1.36-2.15,2.26-4.45,.27-.7,.46-1.43,.59-2.17,.37-2.2,.92-5.55,1.03-7.2,.24-3.22,.35-8.76-1.95-13.03-2.5-4.65-5.83-5.83-8.6-5.83s-5.15,1.29-5.19,1.29l-.97-2.33h0Z"/><path class="cls-2" d="M20.65,46.01s2.46,9.85,4.39,11.78c-4.82-.86-5.03-5.35-4.39-11.78Z"/><path class="cls-16" d="M7.28,51.32c2.94-2.32,6.68-4.48,10.2-5.22-2.35,1.72-4.85,2.93-7.44,4.18-.86,.4-1.73,.78-2.69,1.11l-.07-.08h0Z"/><path class="cls-16" d="M18.24,56.07c.71,5.62,2.12,11.24,4.76,16.28,0,0-.09,.05-.09,.05-2.86-3.31-4.28-7.68-4.78-11.97-.17-1.44-.17-2.9,0-4.35h.1Z"/><path class="cls-12" d="M18.75,31.79s-1.5-2.8-3.07-3.82c-1.77,5.32,.34,13.58,3.07,14.4"/><path class="cls-12" d="M50.67,31.79s1.5-2.8,3.07-3.82c1.77,5.32-.34,13.58-3.07,14.4"/><path class="cls-12" d="M22.64,45.03s-2.66-4.16-3.07-7.3c-.55,3.89-1.09,9.83-1.16,13.58s1.57,8.53,7.58,11.06"/><path class="cls-12" d="M18.77,44.52s-9.96,3.37-14.61,7.61"/><path class="cls-12" d="M50.66,44.52s9.96,3.37,14.61,7.61"/><path class="cls-12" d="M50.44,33.75s1.69-9.29-1.69-16.05c-3.38-6.76-12.86-7.14-12.86-7.14h-2.34s-9.48,.38-12.86,7.14-1.69,16.05-1.69,16.05"/><path class="cls-12" d="M46.8,45.03s2.66-4.16,3.07-7.3c.55,3.89,1.09,9.83,1.16,13.58s-1.57,8.53-7.58,11.06"/><path class="cls-12" d="M40.76,52.32s.58,1.36-.45,2.27c-.79,.68-3.45,.36-5.59-.2h0c-2.14,.56-4.8,.88-5.58,.2-1.04-.91-.46-2.27-.46-2.27"/><path d="M33.07,33.06s-1.12,1.06-1.93,1.12c-2.8-2.09-4.49-3.68-4.49-3.68,0,0-3.74,.44-5.61,1.31,3.06-2.56,5.74-2.62,5.74-2.62l6.3,3.87Z"/><path d="M43.1,25.94c-.82-.74-1.82-1.29-2.89-.81,0,0-1.04,.38-1.04,.38-1.36,.5-2.75,1.01-4.17,1.3-1.56-.03-3.16-.68-4.6-1.25-.69-.25-1.36-.69-2.01-.6-.69,.06-1.33,.5-1.89,.98,.62-.91,1.88-1.72,3.02-1.25,1.74,.53,3.53,1.17,5.32,1.4,1.37-.3,2.8-.76,4.15-1.13,0,0,1.09-.28,1.09-.28,1.14-.44,2.4,.35,3.02,1.27h0Z"/><path d="M41.16,23.1c-.97-.42-2.09-.4-3.09-.12-.97,.42-2.09,.85-3.27,.86-1.33,.03-2.47-.57-3.6-.96-.38-.05-.81-.09-1.19-.09-.53,0-1.07,.07-1.57,.31,.41-.39,.98-.55,1.53-.67,1.65-.42,3.25,.74,4.82,.66,1.18,.05,2.33-.52,3.55-.75,.96-.01,2.06,.11,2.8,.76h0Z"/><path d="M30.84,36.15c-.9-.55-1.84-1.08-2.77-1.24-.91,.15-2.99,.56-4.03,1.38,0,0-.21-.85-.21-.85,1.87,.41,3.77,.7,5.69,.99-2.29,.47-4.66,.25-6.93-.24,1.53-1.42,3.57-2.12,5.63-2.01,1.09,.35,1.94,1.1,2.62,1.97h0Z"/><path d="M30.42,36.94c-.02,1.25-.92,2.18-1.9,2.82-1.1,.68-2.48,.02-3.37-.62-.61-.43-1.17-.94-1.65-1.49,.6,.42,1.22,.82,1.86,1.15,2.91,1.6,3.12-.19,5.06-1.86h0Z"/><path d="M36.6,33.06s1.12,1.06,1.93,1.12c2.8-2.09,4.49-3.68,4.49-3.68,0,0,3.74,.44,5.61,1.31-3.06-2.56-5.74-2.62-5.74-2.62l-6.3,3.87Z"/><path d="M38.83,36.15c.68-.87,1.53-1.61,2.62-1.97,2.06-.11,4.1,.59,5.63,2.01-2.27,.49-4.64,.71-6.93,.24,1.91-.29,3.82-.58,5.69-.99l-.21,.85c-1.04-.82-3.12-1.23-4.03-1.38-.93,.16-1.87,.69-2.77,1.24h0Z"/><path d="M39.25,36.94c1.94,1.67,2.15,3.46,5.06,1.86,.64-.34,1.26-.73,1.86-1.15-.49,.56-1.04,1.06-1.65,1.49-.89,.64-2.27,1.3-3.37,.62-.98-.64-1.88-1.57-1.9-2.82h0Z"/><path d="M37.05,39.82c.97,.68,1.91,1.4,2.85,2.12l-.09,.21c-.19,.46-.45,1.04-.53,1.52-.48-.25-1.01-.46-1.55-.55-.39-.08-.78-.09-1.16-.03l.33-.22c-.66,1.11-2.26,1.85-3.37,.94-.35-.26-.62-.57-.82-.94l.33,.22c-.75-.11-1.6,.08-2.29,.39l-.4,.19-.1-.38c-.13-.39-.37-.95-.53-1.34,.93-.73,1.87-1.44,2.84-2.12-.76,.83-1.55,1.62-2.34,2.41l.06-.32,.32,.56c.11,.2,.21,.39,.3,.61,0,0-.5-.19-.5-.19,.9-.54,1.91-.77,2.95-.65,.27,.56,.88,1.13,1.41,1.08,.55-.04,1.25-.57,1.5-1.08,1.04-.12,2.05,.11,2.95,.65,0,0-.5,.2-.5,.2,.15-.39,.41-.82,.62-1.18,0,0,.06,.32,.06,.32-.8-.79-1.59-1.59-2.35-2.41h0Z"/><path d="M41.36,47.52c-.44-.54-1.63-1.48-1.93-1.52-3.2,.24-6.4,.24-9.6,0h.09c-.33,.06-.71,.32-1.05,.59-.34,.28-.66,.6-.98,.93,.45-.86,.89-1.69,1.84-2.14,3.25-.27,6.51-.25,9.77,0,.96,.45,1.41,1.29,1.86,2.15h0Z"/><path d="M39.2,47.22c-.34,.47-.7,.9-1.09,1.32-2.31,.29-4.63,.29-6.94,0-.38-.42-.75-.85-1.09-1.32,.5,.25,.96,.53,1.41,.83l-.19-.07c2.22-.27,4.44-.26,6.66,0l-.19,.07c.45-.3,.92-.58,1.41-.83h0Z"/><path class="cls-16" d="M42.3,59.15l-5.09,3.14c-.63-.55-1.54-.9-2.56-.9s-1.93,.35-2.56,.9l-5.09-3.14s-2.95,4.2-.37,7.9c2.36-.8,3.95-1.36,5-1.76,.58,.84,1.7,1.41,3.02,1.41s2.44-.58,3.02-1.41c1.05,.4,2.63,.97,5,1.76,2.58-3.71-.37-7.9-.37-7.9Z"/><path d="M42.3,59.15s2.95,4.2,.37,7.9c-2.36-.8-3.95-1.36-5-1.76-.58,.84-1.7,1.41-3.02,1.41s-2.44-.58-3.02-1.41c-1.05,.4-2.63,.97-5,1.76-2.58-3.71,.37-7.9,.37-7.9l5.09,3.14c.63-.55,1.54-.9,2.56-.9s1.93,.35,2.56,.9l5.09-3.14m0-.97c-.17,0-.35,.05-.51,.15l-4.53,2.79c-.75-.46-1.65-.7-2.6-.7s-1.85,.25-2.6,.7l-4.53-2.79c-.16-.1-.34-.15-.51-.15-.31,0-.61,.15-.8,.41-.14,.19-3.31,4.8-.37,9.02,.19,.27,.49,.42,.8,.42,.1,0,.21-.02,.31-.05,1.72-.58,3.19-1.09,4.4-1.54,.83,.78,2.03,1.24,3.3,1.24s2.48-.46,3.3-1.24c1.21,.44,2.68,.96,4.4,1.54,.1,.03,.21,.05,.31,.05,.31,0,.61-.15,.8-.42,2.94-4.22-.24-8.83-.37-9.02-.19-.27-.49-.41-.8-.41h0Z"/><path class="cls-8" d="M18.58,46.53s-2.42,14.95,8.03,30.84"/><path class="cls-8" d="M50.86,46.53s2.42,14.95-8.03,30.84"/><path d="M24.24,13.44s4.4-2.42,10.33,.64c2.57-2.08,7.61-1.98,9.2-1.29-4.9-3.41-13.45-3.96-19.53,.64Z"/><path class="cls-1" d="M16.05,29.28c.32,2.76,.52,5.35,1,8.07,.13,.9,.32,1.78,.41,2.78l-.09,.05c-1.64-3.22-2.49-7.59-1.32-10.89h0Z"/></g></g><g id="Frame"><g><path class="cls-5" d="M62.56,4.88C54.4,1.94,45.12,.2,35.25,.02c-.57-.01-1.15-.02-1.72-.02C23.88,0,14.77,1.52,6.72,4.21,2.49,14.22,0,26.6,0,40s2.39,25.22,6.45,35.11c8.16,2.94,17.45,4.69,27.32,4.87,.58,.01,1.15,.02,1.73,.02,9.63,0,18.73-1.51,26.78-4.2,4.24-10.01,6.74-22.39,6.74-35.8s-2.4-25.24-6.46-35.12Zm-4.04,66.86c-7.2,2.16-14.94,3.26-23.02,3.26-.49,0-.98-.01-1.47-.02h-.17c-8.18-.15-16.29-1.47-23.6-3.85-3.45-9.22-5.26-19.93-5.26-31.13s1.89-22.38,5.48-31.73c6.73-2.01,14.13-3.13,21.6-3.26,.48-.01,.97-.01,1.45-.01,.54,0,1.08,.01,1.63,.02,8.16,.15,16.27,1.47,23.59,3.84,3.46,9.24,5.27,19.95,5.27,31.14s-1.89,22.39-5.5,31.74Z"/><path class="cls-13" d="M17.21,2.06h0c1.63,.63,2.06,2.75,.81,3.97l-1.26,1.22s8.35-2.37,18.84-1.69h0c-1-1.49-.45-3.52,1.14-4.34l1-.51S28.26-.43,17.21,2.06Z"/><path class="cls-15" d="M21.81,1.66s.7,2.18-.22,3.1c3.77-.41,7.98-.74,11.12-.74-.33-1.33,1.26-3.4,1.26-3.4,0,0-6.17-.26-12.16,1.03Z"/><path class="cls-13" d="M36.25,79.21h0c-1.52-.87-1.62-3.03-.2-4.04l1.43-1.02s-8.61,1.07-18.88-1.19h0c.76,1.63-.09,3.55-1.79,4.11l-1.07,.36s9.19,2.56,20.5,1.78Z"/><path class="cls-15" d="M19.28,77.8s1.76-1.83,1.3-3.09c4.43,.69,9.11,1.14,12.25,1.14-.33,1.33,.44,3.4,.44,3.4,0,0-8-.16-13.99-1.45Z"/><polygon points="47.48 1.77 47.48 6.73 54.49 8.44 54.49 2.62 47.48 1.77"/><line class="cls-7" x1="45.5" y1="1.23" x2="45.5" y2="6.29"/><line class="cls-7" x1="56.47" y1="3.67" x2="56.47" y2="8.73"/><polygon points="47.48 78.74 47.48 73.78 54.49 72.07 54.49 77.88 47.48 78.74"/><line class="cls-7" x1="45.5" y1="79.28" x2="45.5" y2="74.21"/><line class="cls-7" x1="56.47" y1="76.84" x2="56.47" y2="71.77"/><path d="M33.53,1c.56,0,1.14,0,1.7,.02,9.39,.17,18.33,1.74,26.57,4.65,4.07,10.08,6.22,21.94,6.22,34.33s-2.24,24.79-6.49,34.99c-8.12,2.66-16.87,4.01-26.03,4.01-.56,0-1.12,0-1.71-.02-9.25-.17-18.42-1.78-26.58-4.66C3.15,64.25,1,52.39,1,40S3.23,15.21,7.47,5.02C15.6,2.35,24.37,1,33.53,1m0-1C23.88,0,14.77,1.52,6.72,4.21,2.49,14.22,0,26.6,0,40s2.39,25.22,6.45,35.11c8.16,2.94,17.45,4.69,27.32,4.87,.58,.01,1.15,.02,1.73,.02,9.63,0,18.73-1.51,26.78-4.2,4.24-10.01,6.74-22.39,6.74-35.8s-2.4-25.24-6.46-35.12C54.4,1.94,45.12,.2,35.25,.02c-.57,0-1.15-.02-1.72-.02h0Z"/><path class="cls-13" d="M33.53,6c.52,0,1.04,0,1.61,.02,7.87,.14,15.75,1.4,22.84,3.64,3.3,9,5.04,19.47,5.04,30.34s-1.82,21.82-5.26,30.92c-6.98,2.04-14.47,3.08-22.26,3.08-.48,0-.97,0-1.47-.02h-.15c-7.89-.14-15.78-1.41-22.85-3.65-3.29-8.99-5.03-19.46-5.03-30.33s1.81-21.79,5.24-30.91c6.5-1.89,13.7-2.95,20.86-3.08,.47,0,.96,0,1.43,0m0-1c-.48,0-.97,0-1.45,.01-7.47,.13-14.87,1.25-21.6,3.26-3.59,9.35-5.48,20.26-5.48,31.73s1.81,21.91,5.26,31.13c7.31,2.38,15.42,3.7,23.6,3.85h.17c.49,.01,.98,.02,1.47,.02,8.08,0,15.82-1.1,23.02-3.26,3.61-9.35,5.5-20.27,5.5-31.74s-1.81-21.9-5.27-31.14c-7.32-2.37-15.43-3.69-23.59-3.84-.55,0-1.09-.02-1.63-.02h0Z"/><path class="cls-9" d="M8.14,7.1s-12.66,32.94,0,66.06"/><path class="cls-9" d="M60.88,7.58s12.66,32.94,0,66.06"/></g><path d="M33.53,5c.54,0,1.08,.01,1.63,.02,8.16,.15,16.27,1.47,23.59,3.84,3.46,9.24,5.27,19.95,5.27,31.14s-1.89,22.39-5.5,31.74c-7.2,2.16-14.94,3.26-23.02,3.26-.49,0-.98-.01-1.47-.02h-.17c-8.18-.15-16.29-1.47-23.6-3.85-3.45-9.22-5.26-19.93-5.26-31.13s1.89-22.38,5.48-31.73c6.73-2.01,14.13-3.13,21.6-3.26,.48-.01,.97-.01,1.45-.01m0-1c-.49,0-.98,0-1.47,.01-7.51,.13-15.07,1.27-21.87,3.3l-.47,.14-.18,.46c-3.63,9.45-5.55,20.55-5.55,32.09s1.84,22.17,5.32,31.48l.17,.45,.46,.15c7.37,2.4,15.63,3.75,23.89,3.9h.19c.48,.01,.97,.02,1.47,.02,8.16,0,16-1.11,23.31-3.3l.47-.14,.18-.46c3.64-9.43,5.57-20.53,5.57-32.1s-1.84-22.17-5.33-31.49l-.17-.45-.46-.15c-7.39-2.39-15.65-3.74-23.88-3.89-.58-.01-1.12-.02-1.65-.02h0Z"/></g></svg>