<svg id="Capa_2" xmlns="http://www.w3.org/2000/svg" xmlns:xlink="http://www.w3.org/1999/xlink" viewBox="0 0 69.02 80">
<defs >
<style >
.cls-1{fill:#c89aed;}.cls-2{stroke-width:.96px;}.cls-2,.cls-3,.cls-4,.cls-5,.cls-6,.cls-7,.cls-8,.cls-9,.cls-10,.cls-11,.cls-12{fill:none;}.cls-2,.cls-3,.cls-4,.cls-5,.cls-6,.cls-8,.cls-11,.cls-12{stroke:#000;}.cls-2,.cls-4,.cls-6,.cls-7,.cls-8,.cls-11,.cls-12{stroke-linecap:round;stroke-linejoin:round;}.cls-13{fill:#fff;}.cls-14{fill:#f8ffbf;}.cls-15{fill:#7b7be8;}.cls-16{fill:#a88347;}.cls-17{fill:#782ab5;}.cls-3,.cls-5{stroke-miterlimit:10;}.cls-4{stroke-width:.5px;}.cls-18{fill:#1c46ff;}.cls-5{stroke-width:.75px;}.cls-7{stroke:#deb778;stroke-dasharray:0 0 0 4.06;}.cls-19{fill:#deb778;}.cls-8{stroke-width:.97px;}.cls-20{fill:url(#USGS_19_Inundación_de_tierra_2);}.cls-10{stroke:#1d1d1b;stroke-dasharray:0 0 2 2;stroke-width:.3px;}.cls-11{stroke-width:.96px;}.cls-21{fill:#fcf0c5;}.cls-22{fill:#b83521;}.cls-12{stroke-width:.97px;}
</style>
<pattern id="USGS_19_Inundación_de_tierra_2" x="0" y="0" width="72" height="72" patternTransform="translate(-20.48 -16207) rotate(-90)" patternUnits="userSpaceOnUse" viewBox="0 0 72 72">
<g >
<rect class="cls-9" width="72" height="72">
</rect>
<g >
<line class="cls-10" x1="71" y1="71" x2="144.44" y2="71">
</line>
<line class="cls-10" x1="71" y1="67" x2="144.44" y2="67">
</line>
<line class="cls-10" x1="71" y1="63" x2="144.44" y2="63">
</line>
<line class="cls-10" x1="71" y1="59" x2="144.44" y2="59">
</line>
<line class="cls-10" x1="71" y1="55" x2="144.44" y2="55">
</line>
<line class="cls-10" x1="71" y1="51" x2="144.44" y2="51">
</line>
<line class="cls-10" x1="71" y1="47" x2="144.44" y2="47">
</line>
<line class="cls-10" x1="71" y1="43" x2="144.44" y2="43">
</line>
<line class="cls-10" x1="71" y1="39" x2="144.44" y2="39">
</line>
<line class="cls-10" x1="71" y1="35" x2="144.44" y2="35">
</line>
<line class="cls-10" x1="71" y1="31" x2="144.44" y2="31">
</line>
<line class="cls-10" x1="71" y1="27" x2="144.44" y2="27">
</line>
<line class="cls-10" x1="71" y1="23" x2="144.44" y2="23">
</line>
<line class="cls-10" x1="71" y1="19" x2="144.44" y2="19">
</line>
<line class="cls-10" x1="71" y1="15" x2="144.44" y2="15">
</line>
<line class="cls-10" x1="71" y1="11" x2="144.44" y2="11">
</line>
<line class="cls-10" x1="71" y1="7" x2="144.44" y2="7">
</line>
<line class="cls-10" x1="71" y1="3" x2="144.44" y2="3">
</line>
</g>
<g >
<line class="cls-10" x1="-1" y1="71" x2="72.44" y2="71">
</line>
<line class="cls-10" x1="-1" y1="67" x2="72.44" y2="67">
</line>
<line class="cls-10" x1="-1" y1="63" x2="72.44" y2="63">
</line>
<line class="cls-10" x1="-1" y1="59" x2="72.44" y2="59">
</line>
<line class="cls-10" x1="-1" y1="55" x2="72.44" y2="55">
</line>
<line class="cls-10" x1="-1" y1="51" x2="72.44" y2="51">
</line>
<line class="cls-10" x1="-1" y1="47" x2="72.44" y2="47">
</line>
<line class="cls-10" x1="-1" y1="43" x2="72.44" y2="43">
</line>
<line class="cls-10" x1="-1" y1="39" x2="72.44" y2="39">
</line>
<line class="cls-10" x1="-1" y1="35" x2="72.44" y2="35">
</line>
<line class="cls-10" x1="-1" y1="31" x2="72.44" y2="31">
</line>
<line class="cls-10" x1="-1" y1="27" x2="72.44" y2="27">
</line>
<line class="cls-10" x1="-1" y1="23" x2="72.44" y2="23">
</line>
<line class="cls-10" x1="-1" y1="19" x2="72.44" y2="19">
</line>
<line class="cls-10" x1="-1" y1="15" x2="72.44" y2="15">
</line>
<line class="cls-10" x1="-1" y1="11" x2="72.44" y2="11">
</line>
<line class="cls-10" x1="-1" y1="7" x2="72.44" y2="7">
</line>
<line class="cls-10" x1="-1" y1="3" x2="72.44" y2="3">
</line>
<line class="cls-10" x1="1.04" y1="69" x2="74.48" y2="69">
</line>
<line class="cls-10" x1="1.04" y1="65" x2="74.48" y2="65">
</line>
<line class="cls-10" x1="1.04" y1="61" x2="74.48" y2="61">
</line>
<line class="cls-10" x1="1.04" y1="57" x2="74.48" y2="57">
</line>
<line class="cls-10" x1="1.04" y1="53" x2="74.48" y2="53">
</line>
<line class="cls-10" x1="1.04" y1="49" x2="74.48" y2="49">
</line>
<line class="cls-10" x1="1.04" y1="45" x2="74.48" y2="45">
</line>
<line class="cls-10" x1="1.04" y1="41" x2="74.48" y2="41">
</line>
<line class="cls-10" x1="1.04" y1="37" x2="74.48" y2="37">
</line>
<line class="cls-10" x1="1.04" y1="33" x2="74.48" y2="33">
</line>
<line class="cls-10" x1="1.04" y1="29" x2="74.48" y2="29">
</line>
<line class="cls-10" x1="1.04" y1="25" x2="74.48" y2="25">
</line>
<line class="cls-10" x1="1.04" y1="21" x2="74.48" y2="21">
</line>
<line class="cls-10" x1="1.04" y1="17" x2="74.48" y2="17">
</line>
<line class="cls-10" x1="1.04" y1="13" x2="74.48" y2="13">
</line>
<line class="cls-10" x1="1.04" y1="9" x2="74.48" y2="9">
</line>
<line class="cls-10" x1="1.04" y1="5" x2="74.48" y2="5">
</line>
<line class="cls-10" x1="1.04" y1="1" x2="74.48" y2="1">
</line>
</g>
<g >
<line class="cls-10" x1="-73" y1="71" x2=".44" y2="71">
</line>
<line class="cls-10" x1="-73" y1="67" x2=".44" y2="67">
</line>
<line class="cls-10" x1="-73" y1="63" x2=".44" y2="63">
</line>
<line class="cls-10" x1="-73" y1="59" x2=".44" y2="59">
</line>
<line class="cls-10" x1="-73" y1="55" x2=".44" y2="55">
</line>
<line class="cls-10" x1="-73" y1="51" x2=".44" y2="51">
</line>
<line class="cls-10" x1="-73" y1="47" x2=".44" y2="47">
</line>
<line class="cls-10" x1="-73" y1="43" x2=".44" y2="43">
</line>
<line class="cls-10" x1="-73" y1="39" x2=".44" y2="39">
</line>
<line class="cls-10" x1="-73" y1="35" x2=".44" y2="35">
</line>
<line class="cls-10" x1="-73" y1="31" x2=".44" y2="31">
</line>
<line class="cls-10" x1="-73" y1="27" x2=".44" y2="27">
</line>
<line class="cls-10" x1="-73" y1="23" x2=".44" y2="23">
</line>
<line class="cls-10" x1="-73" y1="19" x2=".44" y2="19">
</line>
<line class="cls-10" x1="-73" y1="15" x2=".44" y2="15">
</line>
<line class="cls-10" x1="-73" y1="11" x2=".44" y2="11">
</line>
<line class="cls-10" x1="-73" y1="7" x2=".44" y2="7">
</line>
<line class="cls-10" x1="-73" y1="3" x2=".44" y2="3">
</line>
<line class="cls-10" x1="-70.96" y1="69" x2="2.48" y2="69">
</line>
<line class="cls-10" x1="-70.96" y1="65" x2="2.48" y2="65">
</line>
<line class="cls-10" x1="-70.96" y1="61" x2="2.48" y2="61">
</line>
<line class="cls-10" x1="-70.96" y1="57" x2="2.48" y2="57">
</line>
<line class="cls-10" x1="-70.96" y1="53" x2="2.48" y2="53">
</line>
<line class="cls-10" x1="-70.96" y1="49" x2="2.48" y2="49">
</line>
<line class="cls-10" x1="-70.96" y1="45" x2="2.48" y2="45">
</line>
<line class="cls-10" x1="-70.96" y1="41" x2="2.48" y2="41">
</line>
<line class="cls-10" x1="-70.96" y1="37" x2="2.48" y2="37">
</line>
<line class="cls-10" x1="-70.96" y1="33" x2="2.48" y2="33">
</line>
<line class="cls-10" x1="-70.96" y1="29" x2="2.48" y2="29">
</line>
<line class="cls-10" x1="-70.96" y1="25" x2="2.48" y2="25">
</line>
<line class="cls-10" x1="-70.96" y1="21" x2="2.48" y2="21">
</line>
<line class="cls-10" x1="-70.96" y1="17" x2="2.48" y2="17">
</line>
<line class="cls-10" x1="-70.96" y1="13" x2="2.48" y2="13">
</line>
<line class="cls-10" x1="-70.96" y1="9" x2="2.48" y2="9">
</line>
<line class="cls-10" x1="-70.96" y1="5" x2="2.48" y2="5">
</line>
<line class="cls-10" x1="-70.96" y1="1" x2="2.48" y2="1">
</line>
</g>
</g>
</pattern>
</defs>

<g id="Capa_10">
<g >
<path class="cls-1" d="M18.57,33.57s-2.93-4.56-4.22-4.3c-.43,6.03,.26,12.66,5.77,13.34,.52,2.84,.86,3.01,.86,3.01l2.67,2.15-.34,4.48-17.99,6.11,3.7,15.15,30.13,2.67,20.49-4.05,2.67-14.38-17.39-5.25-.69-4.56,2.93-2.32,.77-2.93s2.58,1.12,4.56-3.44,1.21-9.9,1.21-9.9c0,0-3.1,1.98-4.22,4.65-.09-5.94-.26-11.28-2.75-15.75s-10.93-6.89-16.19-5.34-8.35,3.7-10.24,7.23-1.72,13.43-1.72,13.43Z">
</path>
<path class="cls-13" d="M33.47,54.67V17.45s5.15-.27,7.73-1.33c2.93-.89,5.86,2.13,7.19,6.13,1.42,4.44,1.33,16.88-1.51,23.27-5.6,6.22-8.17,7.28-8.17,7.28,0,0-2.4,2.75-5.24,1.87Z">
</path>
<path class="cls-15" d="M23.11,16.8s1.61-1.48,3.76-.54,6.78,1.74,10.06,1.07,5.84-1.61,7.45-1.27c-3.89-3.35-8.72-3.96-12.68-3.56s-6.84,2.88-8.59,4.29Z">
</path>
<path class="cls-15" d="M21.96,35.24l-1.34-2.45s2.22-1.58,4.15-.93,5.96,2.45,10.69,1.69,5.72-1.64,7.47-1.75,2.74,.41,3.56,.99c-.7,1.75-1.58,2.45-1.58,2.45l-3.27-1.23-4.44,.93h-7.65l-4.5-1.05-3.1,1.34Z">
</path>
<path class="cls-14" d="M29.26,35.36s-1.81,.93-3.97,.35-1.87-1.23-1.87-1.23l1.64-.58,4.5,1.05-.29,.41Z">
</path>
<path class="cls-14" d="M37.57,35.36s1.81,.93,3.97,.35,1.87-1.23,1.87-1.23l-1.37-.49c-.17-.06-.36-.07-.54-.03l-4.22,.99,.29,.41Z">
</path>
<path class="cls-15" d="M29.1,35.41s-3.17,1.31-5.68-.93c-1.29,.24-1.46,.76-1.46,.76,0,0,.27,2.86,4.6,2.6,2.11-1.64,2.53-2.43,2.53-2.43Z">
</path>
<path class="cls-15" d="M37.7,35.41s3.17,1.31,5.68-.93c1.29,.24,1.46,.76,1.46,.76,0,0-.27,2.86-4.6,2.6-2.11-1.64-2.53-2.43-2.53-2.43Z">
</path>
<path class="cls-1" d="M25.43,17.4c.27,0,.55,.04,.83,.12,1.43,.41,4.06,1.16,7.35,1.37,.08,.03,.17,.05,.26,.05,.07,.02,.14,.02,.21,.02,.13,0,.26-.03,.39-.08,3.23-.23,5.83-.96,7.24-1.35h.05c.29-.09,.57-.13,.84-.13,.51,0,.99,.15,1.42,.43,1.23,1.31,2.16,2.92,2.78,4.79-.2,.77-.62,1.99-1.42,2.92-.31,.36-.32,.88-.04,1.25,1.33,1.76,2.18,4.96,2.51,6.39-.33,5.52-1.66,10.2-2.09,11.59l-8.15,7.2c-.13,.11-.21,.22-.25,.28l-.03,.05s-.33,.44-1.25,.84c-.65,.29-1.35,.43-2.07,.43s-1.42-.15-2.08-.44c-.91-.39-1.25-.83-1.25-.83,0,0,0,0,0,0-.01-.02-.03-.04-.04-.06-.06-.08-.12-.15-.19-.23-.01-.01-.03-.03-.04-.04l-8.16-7.22c-.43-1.4-1.77-6.11-2.09-11.63,.39-1.7,1.22-4.66,2.5-6.35,.28-.37,.27-.9-.04-1.25-.75-.88-1.18-2.02-1.42-2.91,.61-1.83,1.49-3.39,2.62-4.65,.34-.28,.88-.59,1.63-.59m0-1c-1.09,0-1.88,.49-2.32,.87-1.21,1.33-2.25,3.07-2.96,5.34,.23,.95,.71,2.43,1.7,3.59-1.43,1.88-2.31,5.1-2.71,6.87,.34,6.22,1.96,11.44,2.23,12.28l8.37,7.4s.07,.08,.1,.12c0,0,.42,.65,1.69,1.2,.79,.35,1.63,.52,2.47,.52s1.69-.17,2.47-.52c1.27-.55,1.68-1.2,1.68-1.2,.03-.04,.06-.09,.1-.12l8.37-7.4c.27-.84,1.88-6.04,2.23-12.24-.4-1.77-1.29-5.02-2.72-6.91,1-1.17,1.48-2.65,1.7-3.61-.74-2.37-1.87-4.16-3.17-5.52-.47-.33-1.16-.67-2.08-.67-.34,0-.71,.05-1.1,.16-1.42,.4-4.05,1.15-7.33,1.35l-.08,.06-.08-.03h-.06s-.06-.03-.06-.03c-3.25-.19-5.9-.94-7.34-1.35-.4-.11-.77-.16-1.11-.16h0Z">
</path>
<path d="M19.02,35.06s-2.9-6.06-4.66-5.8c-.51,6.95,1.81,13.46,5.73,13.73-.98-4.72-1.07-7.93-1.07-7.93Z">
</path>
<path d="M44.1,48.7l-18.54,25.68-16.02-2.41-2.52-14.16,16.3-5.56,.38-4.1,5.93,5.27s2.3,1.76,5.71,1.43c3.07-.44,3.39-2.04,3.39-2.04l5.39-4.1Z">
</path>
<path class="cls-14" d="M44.46,56.4s-1.97,6.56-11.92,6.01c-4.92,6.89-4.92,8.53-4.92,8.53l5.14,6.56,4.59-1.2s4.16-6.89,5.58-10.5,1.53-9.4,1.53-9.4Z">
</path>
<polygon class="cls-22" points="31.44 62.67 36.43 62.54 39.02 66.36 35.84 70.38 38.56 74.07 35.84 76.79 30.53 75.3 29.36 73.29 31.37 70.12 28.59 66.94 31.44 62.67">
</polygon>
<path class="cls-13" d="M23.38,38.64c.52,.2,1.18,.4,1.94,.5,.54,.07,.81,.68,.54,1.15-.49,.84-.87,1.67-1.14,2.35-.25,.63-1.14,.66-1.41,.03-.38-.86-.78-2-.95-3.24-.08-.56,.5-1,1.03-.79Z">
</path>
<path class="cls-13" d="M50.18,33.38l2.27-1.08s.15,6.44-2.73,9.69c4.23-2.32,4.18-7.94,4.18-9.07s-.36-3.56-.36-3.56c0,0-2.01,1.8-3.35,4.02Z">
</path>
<path class="cls-18" d="M44.54,52.53s.84,15-7.24,22.24c13.95,1.57,21.08-1.36,21.08-1.36l4.76-14.95-18.6-5.92Z">
</path>
<polygon class="cls-18" points="27.55 71.21 30.12 74.55 25.36 74.15 27.55 71.21">
</polygon>
<path class="cls-18" d="M20.68,60.03c2.18,4.33,4.44,8.65,7.42,12.46,0,0-.75,.67-.75,.67-3.32-3.7-5.11-8.49-6.67-13.13h0Z">
</path>
<path class="cls-2" d="M47.04,45.62l-8.47,7.49s-.44,.77-1.9,1.4c-1.69,.74-3.64,.74-5.34,0-1.46-.63-1.91-1.4-1.91-1.4l-8.47-7.49s-4-11.63-1.61-21.88c2.76-11.73,13.99-11.33,13.99-11.33h1.33s11.23-.4,13.98,11.33c2.39,10.25-1.61,21.88-1.61,21.88Z">
</path>
<path class="cls-12" d="M18.75,34.56s-2.46-4.99-4.39-5.28c-.97,6.77,1.94,13.92,5.73,13.47">
</path>
<path class="cls-12" d="M49.34,34.56s2.46-4.99,4.39-5.28c.97,6.77-1.94,13.92-5.73,13.47">
</path>
<path d="M18.87,34.35s.94-5.45,2.97-8.15c-1.6-1.87-1.87-4.57-1.87-4.57,0,0-1.87,6.44-1.1,12.72Z">
</path>
<path d="M49.12,34.35s-.94-5.45-2.97-8.15c1.6-1.87,1.87-4.57,1.87-4.57,0,0,1.87,6.44,1.1,12.72Z">
</path>
<path class="cls-5" d="M45.65,17.46s-1.53-2.02-4.25-1.26c-1.69,.48-4.23,1.16-7.36,1.34,0,0-.02-.01-.02,0,0,0,.02,0,.02,0,0,.01-.01,0-.02,0-3.14-.18-5.67-.86-7.37-1.34-2.72-.76-4.25,1.26-4.25,1.26">
</path>
<path d="M46.5,32.83c-2.01-1.26-4.19-1.02-6.27-.06-4.14,1.89-9.2,1.89-13.35,0-1.04-.38-2.08-.84-3.13-.83-1.07-.02-2.16,.34-3.13,.89,.86-.73,1.94-1.22,3.11-1.35,1.21-.1,2.32,.31,3.39,.61,4.26,1.56,8.62,1.56,12.88,0,1.07-.3,2.18-.71,3.39-.61,1.17,.14,2.25,.63,3.11,1.35h0Z">
</path>
<polygon points="31.47 30.46 32.59 33.7 31.6 33.89 31.47 30.46 31.47 30.46">
</polygon>
<polygon points="35.4 30.46 35.27 33.89 34.29 33.7 35.4 30.46 35.4 30.46">
</polygon>
<path d="M41.61,28.02c-.65,.41-1.5,.13-2.12-.23-1.8-1.14-3.87-1.72-6-1.64-2.13-.08-4.2,.5-6,1.64-.62,.36-1.47,.64-2.12,.23,.7,.25,1.4-.1,1.93-.51,1.73-1.38,3.98-2.14,6.19-2.05,2.21-.09,4.46,.68,6.19,2.05,.53,.42,1.24,.76,1.93,.51h0Z">
</path>
<path d="M37.49,24.37c-2.76-.53-5.49-.51-8.26,.11,2.38-1.56,5.82-1.59,8.26-.11h0Z">
</path>
<path d="M36.22,22.21c-1.91-.37-3.8-.36-5.72,.08,1.64-1.08,4.04-1.09,5.72-.08h0Z">
</path>
<path d="M20.98,38.22c.6,2.61,1.58,5.18,3.1,7.39,0,0,0,.92,0,.92,0,.05-.08,.07-.1,.01-.1-.31-.15-.63-.22-.94l.05,.16c-1.95-1.96-3.01-4.78-2.93-7.53,0-.06,.08-.08,.1-.02h0Z">
</path>
<path d="M46.1,38.24c-.57,2.57-1.58,5.35-3.09,7.37,0,0,0,.92,0,.92,0,.03-.02,.05-.05,.05-.11-.06-.26-.86-.26-1.04,.3-.63,.58-1.26,.85-1.89,.78-1.78,1.54-3.72,2.45-5.44,.02-.06,.11-.05,.1,.02h0Z">
</path>
<path d="M22.01,35.28c.99-.65,2.02-1.24,3.19-1.51,1.54,.1,3.06,.33,4.57,.69,.26,.05,.37,.38,.21,.58-.97,1.2-1.92,2.48-3.41,3.07-1.04,0-2.16-.2-2.98-.85,.94,.43,1.97,.45,2.96,.36,.77-.52,2.11-1.98,2.83-3.02,0,0,.21,.58,.21,.58-1.32-.35-3.27-.63-4.34-.89-1.1,.16-2.19,.59-3.24,.98h0Z">
</path>
<path class="cls-4" d="M23.49,34.69s.56,.78,2.58,1.07,3.61-.93,3.61-.93">
</path>
<path d="M45.08,35.28c-1.05-.39-2.14-.82-3.24-.98-1.07,.26-3.02,.54-4.34,.89,0,0,.21-.58,.21-.58,.72,1.03,2.06,2.51,2.83,3.02,.98,.09,2.01,.07,2.96-.36-.83,.65-1.95,.85-2.98,.85-1.49-.6-2.44-1.88-3.41-3.07-.12-.16-.09-.39,.07-.51,1.52-.46,3.13-.63,4.71-.76,1.18,.26,2.21,.85,3.2,1.51h0Z">
</path>
<path class="cls-4" d="M43.6,34.69s-.56,.78-2.58,1.07-3.61-.93-3.61-.93">
</path>
<path d="M35.2,38.48c.82,.22,1.58,.71,2.12,1.38,.08,.1,.06,.24-.04,.32-.71,.29-1.45,.51-2.18,.75,0,0,.09-.05,.09-.05-.52,.46-1.06,.89-1.59,1.34-.14,.12-.34,.11-.47,0-.53-.45-1.08-.88-1.6-1.33l.09,.05c-.7-.22-1.4-.46-2.1-.71-.12-.04-.18-.17-.14-.29,.52-.74,1.33-1.22,2.14-1.45-.72,.42-1.32,.99-1.71,1.66l-.14-.37c.75,.17,1.51,.32,2.25,.55,.57,.42,1.12,.87,1.67,1.31h-.47c.54-.43,1.08-.87,1.63-1.28,.73-.27,1.54-.39,2.3-.58,0,0-.14,.37-.14,.37-.39-.67-1-1.24-1.72-1.65h0Z">
</path>
<path d="M28.58,41.3c-.36,1.32-1.39,2.31-2.01,3.49-.24,.38-.47,.77-.73,1.16,.2-1.38,.76-2.69,1.57-3.82,.29-.36,.65-.7,1.17-.83h0Z">
</path>
<path d="M37.78,41.3c.52,.13,.88,.46,1.17,.83,.81,1.13,1.38,2.44,1.57,3.82-.25-.39-.49-.77-.73-1.16-.63-1.18-1.65-2.17-2.01-3.49h0Z">
</path>
<path class="cls-8" d="M39.04,43.24s-.26,.97-1.14,1.57c-1.8-.54-3.63-.23-4.7,.91-1.07-1.14-2.91-1.45-4.71-.91-.88-.6-1.14-1.57-1.14-1.57">
</path>
<path d="M37.34,46.33c.05,.42,.08,.72-.09,1.15-.03,.1-.22,.11-.3,.15-2.56,.64-5.15,.63-7.7-.05-.25-.14-.21-.53-.24-.7,0-.13-.02-.58,.09-.6,.15,.28,.18,.69,.38,.94,0,0-.04-.02-.04-.02,1.87-.03,5.64-.03,7.51,0,0,0-.04,.02-.04,.02,.17-.26,.26-.59,.35-.91,.01-.06,.1-.03,.09,.02h0Z">
</path>
<path class="cls-11" d="M44.57,47.93l.02,7.93s-2.08,6.29-9.59,6.61c-.47,.02-1.41,.02-1.88,0-7.6-.26-9.57-6.74-9.57-6.74l.04-7.65">
</path>
<g >
<path class="cls-6" d="M7.64,57.65l15.89-5.35s-1.59,13.89,6.98,22.36">
</path>
<path class="cls-6" d="M62.58,58.19l-17.97-5.76s1.45,13.76-7.11,22.23">
</path>
</g>
<line class="cls-6" x1="31.47" y1="62.4" x2="26.91" y2="69.58">
</line>
<line class="cls-6" x1="36.54" y1="62.4" x2="41.1" y2="69.58">
</line>
<polyline class="cls-6" points="28.77 66.97 31.68 70.43 29.55 73.53">
</polyline>
<polyline class="cls-6" points="38.96 66.65 35.77 70.43 37.89 73.53">
</polyline>
<path class="cls-6" d="M52.54,55.24s.84,11.12-6.86,20.34">
</path>
<path class="cls-18" d="M8.94,58.31c3.81-1.34,11.48-3.98,15.31-5.26,0,0-.04,.06-.04,.06v-2.71h.11c.21,1,.39,2,.48,3.02-4.98,2.25-10.5,4.49-15.86,4.89h0Z">
</path>
<path class="cls-18" d="M14.88,30.56c.71,2.76,1,5.15,1.76,7.76,.23,.84,.54,1.65,.83,2.59,0,0-.08,.06-.08,.06-2.28-2.77-3.18-7.1-2.51-10.41h0Z">
</path>
</g>
</g>
 <g
     id="g2850">
    <g
       id="g2837">
      <path
         id="path1951"
         d="M 0.056640625 0.04296875 L 0.056640625 79.943359 L 69.308594 79.943359 L 69.308594 0.04296875 L 0.056640625 0.04296875 z M 33.615234 3.5957031 C 34.206332 3.5957038 34.786991 3.6051034 35.421875 3.6152344 C 44.430653 3.7671809 53.471255 5.1336733 61.560547 7.5546875 L 62.064453 7.7070312 L 62.25 8.1640625 C 66.070247 17.605006 66.990234 28.726438 66.990234 40.0625 C 66.990234 51.398562 65.972723 63.025755 61.988281 72.578125 L 61.791016 73.044922 L 61.275391 73.185547 C 53.273669 75.403966 44.691921 76.529297 35.759766 76.529297 C 35.212453 76.529297 34.675812 76.519896 34.150391 76.509766 L 33.943359 76.509766 C 24.901742 76.357819 15.860367 74.989738 7.7929688 72.558594 L 7.2890625 72.40625 L 7.1035156 71.951172 C 3.2942144 62.520359 2.375 51.369168 2.375 40.0625 C 2.375 28.755832 3.3819737 17.127318 7.3554688 7.5546875 L 7.5527344 7.0898438 L 8.0664062 6.9472656 C 15.509867 4.890923 23.785212 3.7371557 32.005859 3.6054688 C 32.542226 3.5953387 33.078867 3.5957031 33.615234 3.5957031 z "
         style="opacity:1;vector-effect:none;fill:#ffffff;fill-opacity:1;fill-rule:nonzero;stroke:none;stroke-width:1.95200002;stroke-linecap:butt;stroke-linejoin:miter;stroke-miterlimit:4;stroke-dasharray:none;stroke-dashoffset:0;stroke-opacity:1" />
    </g>
    <path
       id="path1154-8-2"
       d="m 33.675163,6.6112954 c 0.557696,0 1.115392,0.00956 1.683415,0.019115 8.427403,0.14336 16.803167,1.4049288 24.363042,3.6700176 3.573384,8.830981 4.443772,19.417362 4.443772,29.761551 0,10.344189 -0.95301,21.39888 -4.68131,30.334991 -7.435942,2.064385 -15.429581,3.274388 -23.774362,3.274388 -0.506058,0 -1.012115,-0.0096 -1.518172,-0.01911 h -0.17557 C 25.56792,73.508883 17.192156,72.088619 9.6426089,69.813973 6.0795528,61.002107 5.2088244,50.415411 5.2088244,40.061979 c 0,-10.353432 0.95335,-21.389323 4.6609939,-30.325434 C 16.820359,7.8155201 24.462856,6.7450981 32.177647,6.6208528 c 0.49573,-0.00956 1.001787,-0.00956 1.497516,-0.00956 m 0,-0.9557337 c -0.506057,0 -1.012114,0 -1.518171,0.00956 C 24.40089,5.7893644 16.593149,6.8789009 9.570315,8.8190405 L 9.0849131,8.9528432 8.8990146,9.3924808 C 5.1500599,18.424166 4.1999116,29.394246 4.1999116,40.061979 c 0,10.667733 0.8675267,21.188618 4.461566,30.0865 l 0.1755708,0.430081 0.4750741,0.14336 c 7.6115135,2.293761 16.1421925,3.584001 24.6728715,3.727361 h 0.196227 c 0.495729,0.0096 1.001786,0.01911 1.518171,0.01911 8.427403,0 16.524318,-1.060864 24.073866,-3.153921 l 0.485403,-0.133802 0.185898,-0.439639 c 3.759282,-9.01257 4.719759,-19.983589 4.719759,-30.679055 0,-10.695466 -0.867528,-21.188618 -4.471894,-30.0960578 L 60.516853,9.5358409 60.041779,9.3924808 C 52.409609,7.108277 43.87893,5.8180364 35.379234,5.6746763 34.780227,5.6651187 34.232859,5.6555621 33.675163,5.6555615 Z"
       style="fill:#ff0000;stroke:#ffffff;stroke-width:1.84341729;stroke-miterlimit:4;stroke-dasharray:none" />
    <path
       id="path1154"
       d="m 33.614853,4.6077955 c 0.591098,0 1.182197,0.01013 1.784241,0.02026 8.932155,0.1519464 17.809578,1.4890758 25.822246,3.8898304 3.787408,9.3599041 4.709928,20.5803481 4.709928,31.5440931 0,10.963745 -1.01009,22.680548 -4.961693,32.151879 -7.881312,2.18803 -16.353723,3.302304 -25.198307,3.302304 -0.536368,0 -1.072735,-0.01013 -1.609102,-0.02026 H 33.97608 C 25.022033,75.343956 16.14461,74.006827 8.1428892,71.595943 4.3664269,62.256298 3.443547,51.035521 3.443547,40.061979 c 0,-10.973542 1.01045,-22.670418 4.9401601,-32.1417498 7.3668369,-2.036083 15.4670749,-3.170617 23.6439369,-3.3023039 0.525421,-0.01013 1.061788,-0.01013 1.587209,-0.01013 m 0,-1.0129766 c -0.536367,0 -1.072734,0 -1.609101,0.01013 C 23.785105,3.7366356 15.509726,4.891429 8.0662653,6.9477716 L 7.5517907,7.0895883 7.3547579,7.5555576 C 3.3812628,17.128188 2.3742062,28.755311 2.3742062,40.061979 c 0,11.306668 0.9194864,22.457692 4.7287876,31.888505 l 0.1860865,0.45584 0.5035283,0.151947 c 8.0673984,2.431144 17.1090154,3.798662 26.1506324,3.950608 h 0.207979 c 0.525421,0.01013 1.061788,0.02026 1.609101,0.02026 8.932155,0 17.514028,-1.124404 25.51575,-3.342823 l 0.514475,-0.141816 0.197032,-0.46597 c 3.984442,-9.55237 5.002445,-21.180489 5.002445,-32.516551 0,-11.336062 -0.919487,-22.457692 -4.739734,-31.8986353 L 62.064202,7.7075041 61.560674,7.5555576 C 53.471382,5.1345434 44.429765,3.7670249 35.420987,3.6150784 c -0.634884,-0.01013 -1.215036,-0.020259 -1.806134,-0.02026 z"
       style="fill:#000000;stroke:#000000;stroke-width:1.95382714;stroke-miterlimit:4;stroke-dasharray:none" />
    <g
       id="g1810">
      <path
         d="M 6.5134911,7.7433673 C 5.6489029,6.8479453 4.058602,6.5681013 3.6272194,7.3820013 3.284151,8.0292783 3.3625296,8.5309135 4.395235,8.9201755 3.2963719,9.5187755 1.4857674,9.4447465 1.1893447,7.4467713 0.95320848,5.8551433 2.674739,4.8863543 3.1399725,5.0916244 3.0034432,3.6818714 1.8221094,4.0692802 0.95849208,3.2813384 0.34259068,2.7194046 0.23126071,-0.02624603 0.0561761,0.04378767 -0.0138576,0.21887227 2.7317937,0.33020157 3.2937267,0.94610377 4.0816685,1.8097211 3.6942598,2.9910547 5.1040128,3.1275841 4.8987425,2.6623507 5.8675315,0.94082017 7.4591593,1.1769564 9.4571345,1.4733791 9.5311625,3.2839847 8.9325635,4.3828467 8.5433008,3.3501417 8.041666,3.2717627 7.3943894,3.6148312 6.5804899,4.0462137 6.8603354,5.6365129 7.7557553,6.5011023"
         style="fill:#000000;stroke:#000000;stroke-width:0.1112323px;stroke-linecap:butt;stroke-linejoin:miter;stroke-opacity:1"
         id="path1737-3" />
      <path
         d="m 62.850738,7.7433673 c 0.864588,-0.895422 2.454889,-1.175266 2.886271,-0.361366 0.343069,0.647277 0.26469,1.148912 -0.768015,1.538174 1.098863,0.5986 2.909467,0.524571 3.20589,-1.473404 0.236136,-1.591628 -1.485394,-2.560417 -1.950628,-2.3551469 0.13653,-1.409753 1.317863,-1.0223442 2.181481,-1.810286 0.615901,-0.5619338 0.727231,-3.30758442 0.902316,-3.23755072 0.07003,0.1750846 -2.675618,0.2864139 -3.237551,0.9023161 C 65.28256,1.8097211 65.669969,2.9910547 64.260216,3.1275841 64.465486,2.6623507 63.496697,0.94082018 61.905069,1.1769564 c -1.997975,0.2964227 -2.072003,2.1070283 -1.473404,3.2058903 0.389263,-1.032705 0.890898,-1.111084 1.538174,-0.7680155 0.8139,0.4313825 0.534054,2.0216817 -0.361366,2.8862711"
         style="fill:#000000;stroke:#000000;stroke-width:0.1112323px;stroke-linecap:butt;stroke-linejoin:miter;stroke-opacity:1"
         id="path1737-3-5" />
      <path
         d="m 62.850738,72.244244 c 0.864588,0.895422 2.454889,1.175266 2.886272,0.361366 0.343068,-0.647277 0.264689,-1.148912 -0.768016,-1.538174 1.098863,-0.5986 2.909468,-0.524571 3.20589,1.473404 0.236137,1.591628 -1.485394,2.560417 -1.950628,2.355147 0.13653,1.409753 1.317864,1.022344 2.181481,1.810286 0.615901,0.561934 0.727231,3.307584 0.902316,3.237551 0.07003,-0.175085 -2.675618,-0.286414 -3.237551,-0.902317 -0.787942,-0.863617 -0.400533,-2.04495 -1.810286,-2.18148 0.20527,0.465234 -0.763519,2.186764 -2.355146,1.950628 -1.997976,-0.296423 -2.072004,-2.107028 -1.473405,-3.20589 0.389263,1.032705 0.890898,1.111084 1.538175,0.768015 0.813899,-0.431382 0.534054,-2.021682 -0.361366,-2.886271"
         style="fill:#000000;stroke:#000000;stroke-width:0.1112323px;stroke-linecap:butt;stroke-linejoin:miter;stroke-opacity:1"
         id="path1737-3-7" />
      <path
         d="M 6.513491,72.244245 C 5.648903,73.139667 4.058602,73.419511 3.62722,72.605611 3.284151,71.958334 3.36253,71.456699 4.395235,71.067437 c -1.098863,-0.5986 -2.909467,-0.524571 -3.20589,1.473404 -0.23613599,1.591628 1.485394,2.560417 1.950628,2.355147 -0.13653,1.409753 -1.317863,1.022344 -2.18148099,1.810286 -0.615901,0.561933 -0.727231,3.307584 -0.902316,3.23755 C -0.01385399,79.76874 2.731794,79.65741 3.293727,79.041508 4.081669,78.177891 3.69426,76.996557 5.104013,76.860028 4.898743,77.325261 5.867532,79.046792 7.45916,78.810656 9.457135,78.514233 9.531163,76.703627 8.932564,75.604765 8.543301,76.63747 8.041666,76.715849 7.39439,76.372781 6.58049,75.941398 6.860336,74.351099 7.755756,73.48651"
         style="fill:#000000;stroke:#000000;stroke-width:0.1112323px;stroke-linecap:butt;stroke-linejoin:miter;stroke-opacity:1"
         id="path1737-3-5-5" />
    </g>
    <path
       id="path1154-9"
       d="m 33.712865,7.4258691 c 0.536813,0 1.07363,0.00933 1.620386,0.01865 8.111875,0.1398689 16.174044,1.3707167 23.450873,3.5806479 3.439594,8.615932 4.277395,18.944521 4.277395,29.036812 0,10.092292 -0.917329,20.877786 -4.506039,29.596289 -7.157536,2.014114 -14.851888,3.03982 -22.884234,3.03982 -0.487111,0 -0.974221,-0.0094 -1.461331,-0.01865 H 34.040918 C 25.909161,72.53957 17.846991,71.308722 10.580105,69.089467 7.1504515,60.492184 6.3123238,50.163289 6.3123238,40.061979 c 0,-10.101311 0.9176558,-20.868461 4.4864832,-29.586965 6.690308,-1.8742449 14.046665,-2.9186005 21.472608,-3.0398203 0.47717,-0.00933 0.964281,-0.00933 1.44145,-0.00933 m 0,-0.9324602 c -0.487111,0 -0.974221,0 -1.46133,0.00933 C 24.785826,6.6239532 17.270413,7.686958 10.510517,9.5798526 L 10.043289,9.710397 9.8643508,10.139328 c -3.6085914,8.811751 -4.5231655,19.514693 -4.5231655,29.922651 0,10.407958 0.8350459,20.672644 4.294522,29.353849 l 0.1689973,0.419608 0.4572874,0.13987 c 7.326533,2.237904 15.537818,3.496724 23.749103,3.636593 h 0.188879 c 0.47717,0.0094 0.96428,0.01865 1.461331,0.01865 8.111875,0 15.905636,-1.035031 23.172525,-3.077119 l 0.467228,-0.130544 0.178938,-0.428932 c 3.618533,-8.793101 4.543048,-19.496959 4.543048,-29.931975 0,-10.435016 -0.835047,-20.672644 -4.304463,-29.363174 l -0.168997,-0.419609 -0.457288,-0.13987 C 51.74588,7.9107484 43.534594,6.6519271 35.353133,6.512058 34.776554,6.502738 34.249678,6.493409 33.712865,6.493409 Z"
       style="fill:#000000;stroke:none;stroke-width:1.78642213;stroke-miterlimit:4;stroke-dasharray:none" />
    <path
       id="path1154-9-3"
       d="m 33.712865,7.4258686 c 0.536813,0 1.07363,0.00933 1.620386,0.01865 8.111875,0.1398689 16.174044,1.3707167 23.450873,3.5806484 3.439594,8.615932 4.277395,18.944521 4.277395,29.036812 0,10.092292 -0.917329,20.877786 -4.506039,29.596288 -7.157536,2.014114 -14.851888,3.03982 -22.884234,3.03982 -0.487111,0 -0.974221,-0.0094 -1.461331,-0.01865 H 34.040918 C 25.909161,72.539569 17.846991,71.308722 10.580105,69.089466 7.1504515,60.492184 6.3123238,50.163288 6.3123238,40.061979 c 0,-10.101312 0.9176558,-20.868461 4.4864832,-29.586965 6.690308,-1.8742454 14.046665,-2.918601 21.472608,-3.0398208 0.47717,-0.00933 0.964281,-0.00933 1.44145,-0.00933 m 0,-0.9324602 c -0.487111,0 -0.974221,0 -1.46133,0.00933 C 24.785826,6.6239527 17.270413,7.6869575 10.510517,9.5798521 L 10.043289,9.7103965 9.8643508,10.139328 C 6.2557594,18.951079 5.3411853,29.65402 5.3411853,40.061979 c 0,10.407958 0.8350459,20.672643 4.294522,29.353849 l 0.1689973,0.419608 0.4572874,0.13987 c 7.326533,2.237904 15.537818,3.496724 23.749103,3.636593 h 0.188879 c 0.47717,0.0094 0.96428,0.01865 1.461331,0.01865 8.111875,0 15.905636,-1.035032 23.172525,-3.077119 l 0.467228,-0.130544 0.178938,-0.428932 c 3.618533,-8.793101 4.543048,-19.49696 4.543048,-29.931975 0,-10.435016 -0.835047,-20.672644 -4.304463,-29.363175 l -0.168997,-0.419609 -0.457288,-0.13987 C 51.74588,7.9107479 43.534594,6.6519266 35.353133,6.5120575 34.776554,6.5027375 34.249678,6.4934085 33.712865,6.4934085 Z"
       style="fill:#000000;stroke:none;stroke-width:1.78642213;stroke-miterlimit:4;stroke-dasharray:none" />
  </g>
</svg>
