<?xml version="1.0" encoding="UTF-8"?><svg id="Capa_2" xmlns="http://www.w3.org/2000/svg" xmlns:xlink="http://www.w3.org/1999/xlink" viewBox="0 0 69.02 80"><defs><style>.cls-1{fill:#c89aed;}.cls-2{fill:#fff;}.cls-3{fill:#f8ffbf;}.cls-4{fill:#7b7be8;}.cls-5{fill:#a88347;}.cls-6{fill:#782ab5;}.cls-7{stroke-miterlimit:10;}.cls-7,.cls-8,.cls-9,.cls-10,.cls-11,.cls-12{fill:none;}.cls-7,.cls-8,.cls-10{stroke:#000;}.cls-8{stroke-width:.99px;}.cls-8,.cls-9,.cls-10{stroke-linecap:round;stroke-linejoin:round;}.cls-13{fill:#1c46ff;}.cls-9{stroke:#deb778;stroke-dasharray:0 0 0 4.06;}.cls-14{fill:#deb778;}.cls-10{stroke-width:.88px;}.cls-15{fill:url(#USGS_19_Inundación_de_tierra_2);}.cls-12{stroke:#1d1d1b;stroke-dasharray:0 0 2 2;stroke-width:.3px;}.cls-16{fill:#fcf0c5;}</style><pattern id="USGS_19_Inundación_de_tierra_2" x="0" y="0" width="72" height="72" patternTransform="translate(-164.48 -16207) rotate(-90)" patternUnits="userSpaceOnUse" viewBox="0 0 72 72"><g><rect class="cls-11" width="72" height="72"/><g><line class="cls-12" x1="71" y1="71" x2="144.44" y2="71"/><line class="cls-12" x1="71" y1="67" x2="144.44" y2="67"/><line class="cls-12" x1="71" y1="63" x2="144.44" y2="63"/><line class="cls-12" x1="71" y1="59" x2="144.44" y2="59"/><line class="cls-12" x1="71" y1="55" x2="144.44" y2="55"/><line class="cls-12" x1="71" y1="51" x2="144.44" y2="51"/><line class="cls-12" x1="71" y1="47" x2="144.44" y2="47"/><line class="cls-12" x1="71" y1="43" x2="144.44" y2="43"/><line class="cls-12" x1="71" y1="39" x2="144.44" y2="39"/><line class="cls-12" x1="71" y1="35" x2="144.44" y2="35"/><line class="cls-12" x1="71" y1="31" x2="144.44" y2="31"/><line class="cls-12" x1="71" y1="27" x2="144.44" y2="27"/><line class="cls-12" x1="71" y1="23" x2="144.44" y2="23"/><line class="cls-12" x1="71" y1="19" x2="144.44" y2="19"/><line class="cls-12" x1="71" y1="15" x2="144.44" y2="15"/><line class="cls-12" x1="71" y1="11" x2="144.44" y2="11"/><line class="cls-12" x1="71" y1="7" x2="144.44" y2="7"/><line class="cls-12" x1="71" y1="3" x2="144.44" y2="3"/></g><g><line class="cls-12" x1="-1" y1="71" x2="72.44" y2="71"/><line class="cls-12" x1="-1" y1="67" x2="72.44" y2="67"/><line class="cls-12" x1="-1" y1="63" x2="72.44" y2="63"/><line class="cls-12" x1="-1" y1="59" x2="72.44" y2="59"/><line class="cls-12" x1="-1" y1="55" x2="72.44" y2="55"/><line class="cls-12" x1="-1" y1="51" x2="72.44" y2="51"/><line class="cls-12" x1="-1" y1="47" x2="72.44" y2="47"/><line class="cls-12" x1="-1" y1="43" x2="72.44" y2="43"/><line class="cls-12" x1="-1" y1="39" x2="72.44" y2="39"/><line class="cls-12" x1="-1" y1="35" x2="72.44" y2="35"/><line class="cls-12" x1="-1" y1="31" x2="72.44" y2="31"/><line class="cls-12" x1="-1" y1="27" x2="72.44" y2="27"/><line class="cls-12" x1="-1" y1="23" x2="72.44" y2="23"/><line class="cls-12" x1="-1" y1="19" x2="72.44" y2="19"/><line class="cls-12" x1="-1" y1="15" x2="72.44" y2="15"/><line class="cls-12" x1="-1" y1="11" x2="72.44" y2="11"/><line class="cls-12" x1="-1" y1="7" x2="72.44" y2="7"/><line class="cls-12" x1="-1" y1="3" x2="72.44" y2="3"/><line class="cls-12" x1="1.04" y1="69" x2="74.48" y2="69"/><line class="cls-12" x1="1.04" y1="65" x2="74.48" y2="65"/><line class="cls-12" x1="1.04" y1="61" x2="74.48" y2="61"/><line class="cls-12" x1="1.04" y1="57" x2="74.48" y2="57"/><line class="cls-12" x1="1.04" y1="53" x2="74.48" y2="53"/><line class="cls-12" x1="1.04" y1="49" x2="74.48" y2="49"/><line class="cls-12" x1="1.04" y1="45" x2="74.48" y2="45"/><line class="cls-12" x1="1.04" y1="41" x2="74.48" y2="41"/><line class="cls-12" x1="1.04" y1="37" x2="74.48" y2="37"/><line class="cls-12" x1="1.04" y1="33" x2="74.48" y2="33"/><line class="cls-12" x1="1.04" y1="29" x2="74.48" y2="29"/><line class="cls-12" x1="1.04" y1="25" x2="74.48" y2="25"/><line class="cls-12" x1="1.04" y1="21" x2="74.48" y2="21"/><line class="cls-12" x1="1.04" y1="17" x2="74.48" y2="17"/><line class="cls-12" x1="1.04" y1="13" x2="74.48" y2="13"/><line class="cls-12" x1="1.04" y1="9" x2="74.48" y2="9"/><line class="cls-12" x1="1.04" y1="5" x2="74.48" y2="5"/><line class="cls-12" x1="1.04" y1="1" x2="74.48" y2="1"/></g><g><line class="cls-12" x1="-73" y1="71" x2=".44" y2="71"/><line class="cls-12" x1="-73" y1="67" x2=".44" y2="67"/><line class="cls-12" x1="-73" y1="63" x2=".44" y2="63"/><line class="cls-12" x1="-73" y1="59" x2=".44" y2="59"/><line class="cls-12" x1="-73" y1="55" x2=".44" y2="55"/><line class="cls-12" x1="-73" y1="51" x2=".44" y2="51"/><line class="cls-12" x1="-73" y1="47" x2=".44" y2="47"/><line class="cls-12" x1="-73" y1="43" x2=".44" y2="43"/><line class="cls-12" x1="-73" y1="39" x2=".44" y2="39"/><line class="cls-12" x1="-73" y1="35" x2=".44" y2="35"/><line class="cls-12" x1="-73" y1="31" x2=".44" y2="31"/><line class="cls-12" x1="-73" y1="27" x2=".44" y2="27"/><line class="cls-12" x1="-73" y1="23" x2=".44" y2="23"/><line class="cls-12" x1="-73" y1="19" x2=".44" y2="19"/><line class="cls-12" x1="-73" y1="15" x2=".44" y2="15"/><line class="cls-12" x1="-73" y1="11" x2=".44" y2="11"/><line class="cls-12" x1="-73" y1="7" x2=".44" y2="7"/><line class="cls-12" x1="-73" y1="3" x2=".44" y2="3"/><line class="cls-12" x1="-70.96" y1="69" x2="2.48" y2="69"/><line class="cls-12" x1="-70.96" y1="65" x2="2.48" y2="65"/><line class="cls-12" x1="-70.96" y1="61" x2="2.48" y2="61"/><line class="cls-12" x1="-70.96" y1="57" x2="2.48" y2="57"/><line class="cls-12" x1="-70.96" y1="53" x2="2.48" y2="53"/><line class="cls-12" x1="-70.96" y1="49" x2="2.48" y2="49"/><line class="cls-12" x1="-70.96" y1="45" x2="2.48" y2="45"/><line class="cls-12" x1="-70.96" y1="41" x2="2.48" y2="41"/><line class="cls-12" x1="-70.96" y1="37" x2="2.48" y2="37"/><line class="cls-12" x1="-70.96" y1="33" x2="2.48" y2="33"/><line class="cls-12" x1="-70.96" y1="29" x2="2.48" y2="29"/><line class="cls-12" x1="-70.96" y1="25" x2="2.48" y2="25"/><line class="cls-12" x1="-70.96" y1="21" x2="2.48" y2="21"/><line class="cls-12" x1="-70.96" y1="17" x2="2.48" y2="17"/><line class="cls-12" x1="-70.96" y1="13" x2="2.48" y2="13"/><line class="cls-12" x1="-70.96" y1="9" x2="2.48" y2="9"/><line class="cls-12" x1="-70.96" y1="5" x2="2.48" y2="5"/><line class="cls-12" x1="-70.96" y1="1" x2="2.48" y2="1"/></g></g></pattern></defs><g id="BG"><g><path class="cls-6" d="M64.02,40c0,11.47-1.89,22.39-5.5,31.74-7.2,2.16-14.94,3.26-23.02,3.26-.49,0-.98-.01-1.47-.02h-.17c-8.18-.15-16.29-1.47-23.6-3.85-3.45-9.22-5.26-19.93-5.26-31.13s1.89-22.38,5.48-31.73c6.73-2.01,14.13-3.13,21.6-3.26,.48-.01,.97-.01,1.45-.01,.54,0,1.08,.01,1.63,.02,8.16,.15,16.27,1.47,23.59,3.84,3.46,9.24,5.27,19.95,5.27,31.14Z"/><path class="cls-15" d="M34.03,5.59V74.98h-.17c-8.18-.15-16.29-1.47-23.6-3.85-3.45-9.22-5.26-19.93-5.26-31.13s1.89-22.38,5.48-31.73c6.73-2.01,14.13-3.13,21.6-3.26,.65,.16,1.3,.36,1.95,.58Z"/></g></g><g id="Capa_10"><g><path class="cls-1" d="M64.46,62.2l-3.89,11.41-28.44,3.89-24.82-5.91v-10.06l17.44-5.77,.27-4.56-2.41-5.77s-2.82-.53-4.7-4.42c-1.88-3.9-.4-8.46,1.75-7.79-.1-.27-.2-.53-.29-.79-1.44-4.19-1.32-6.45-1.32-6.45l-1.87,.66c.14-.29,2.43-4.9,3.34-7.23,.94-2.42,3.89-8.05,14.22-8.59,10.33-.54,14.76,4.03,16.64,7.92s1.88,10.33-.4,14.35c.13-.03,.26-.04,.39-.05,3.22-.31,3.06,3.65,2.29,6.49-.81,3.22-2.82,5.5-5.1,5.5-1.61,4.29-2.55,6.31-2.55,6.31l.27,4.83,19.18,6.03Z"/><path class="cls-2" d="M34.97,52.46V27.92s5.88-.27,7.39-1.46,3.5-2.26,3.5-2.26l2.21,2.43s2.05,5.66,.81,11.7-3.13,13.64-6.85,17.15c-.04,.04-.07,.07-.11,.1-2.65,2.44-6.95,.48-6.95-3.12Z"/><path d="M49.98,33.09c.13-.03,.26-.04,.39-.05l-1.1,2.45s-1.01-8-1.66-9.37c-1.88,2.02-2.24,1.87-2.24,1.87,0,0,.58-3.39,.51-4.62-4.4,3.97-4.91,3.9-10.75,4.48,.72-1.66,.86-2.24,.86-2.24,0,0-3.17,2.24-6.63,2.02,3.68-3.03,4.33-6.49,4.33-6.49,0,0-5.7,3.46-8.3,4.4,1.59-2.45,.87-3.75,.87-3.75,0,0-5.56,3.82-5.27,13.27l-1.62-2.63c-1.44-4.19-1.32-6.45-1.32-6.45l-1.87,.66c.14-.29,2.43-4.9,3.34-7.23,.94-2.42,3.89-8.05,14.22-8.59,10.33-.54,14.76,4.03,16.64,7.92s1.88,10.33-.4,14.35Z"/><path class="cls-3" d="M31.71,39.58s-1.98-2.89-6.61-2.05c1.67,1.67,2.89,2.58,2.89,2.58,0,0,2.66,0,3.72-.53Z"/><path class="cls-3" d="M38.58,39.58s1.98-2.89,6.61-2.05c-1.67,1.67-2.89,2.58-2.89,2.58,0,0-2.66,0-3.72-.53Z"/><path d="M21.02,33.59s-2.17-1.9-3.16,.54-.36,6.69,1.54,9.04,3.34,1.54,3.34,1.54c0,0-.45-8.68-1.72-11.12Z"/><path d="M41.73,56.19l-16.37,19.12-16.48-1.9-1.57-11.87,17.44-5.77,.39-4.12s2.22,4.86,6.13,6.13,8.87,.11,10.46-1.58Z"/><path class="cls-13" d="M45.02,56.3v5.11s-.19,8.08-14.22,6.32c-5.39,5.48-6.5,6.88-6.5,6.88v2.23l37.72-2.79-.09-12.54-16.91-5.2Z"/><path class="cls-2" d="M43.33,56.23l-7.72,9.54s4.77,.45,7.95-4.09c-.11-3.86-.23-5.45-.23-5.45Z"/><path class="cls-4" d="M32.06,39.84l1.5-4.62-7.81-.39s-1.76,.64-2.44,1.43c.47,1.04,.82,1.33,.82,1.33,0,0,1.36-.47,2.72-.47s4.3,1.4,5.19,2.72Z"/><path class="cls-4" d="M38.29,39.84l-1.5-4.62,7.81-.39s1.76,.64,2.44,1.43c-.47,1.04-.78,1.17-.78,1.17,0,0-1.4-.31-2.77-.31s-4.3,1.4-5.19,2.72Z"/><path class="cls-2" d="M25.27,39.58s1.92,1.55,2.53,1.78c2.49-.23,3.9-.38,3.9-.38,0,0-1.78,3.05-3.66,3.43-2.82-1.78-2.77-4.83-2.77-4.83Z"/><path class="cls-1" d="M29.1,25.65c-.34,.28-.72,.54-1.14,.77-.58,.31-.89,.95-.77,1.55,.1,.64,.61,1.15,1.23,1.24,.29,.05,.61,.07,.93,.07,1.25,0,2.64-.34,3.91-.79,.05,.18,.13,.35,.24,.51,.28,.38,.74,.6,1.21,.6,.12,0,.24-.02,.38-.05,.8-.22,1.7-.32,2.65-.44h.05c1.74-.2,3.75-.43,5.66-1.46-.23,.5-.15,1.1,.21,1.54,.29,.35,.71,.56,1.16,.56,.17,0,.33-.03,.47-.08,.11-.04,.79-.28,1.66-.87,.57,2.52,1.05,5.62,1.23,6.78,.03,.17,.05,.3,.06,.4-.06,.33-.12,.69-.18,1.07-.86,5.09-2.46,14.56-8.7,18.74-1.01,.68-2.47,1.09-4.32,1.22-1.81-.12-3.29-.54-4.41-1.23-4.98-3.14-7.27-15.88-7.9-20.08,.04-.18,.04-.35,0-.5-.57-3.71,.15-6.49,1.17-8.46,0,0,0,0,0,0,.01,.02,.03,.03,.04,.05,.29,.35,.72,.55,1.17,.55,.17,0,.34-.03,.53-.1,1.18-.46,2.36-1.02,3.45-1.6m3.65-3.35c-1.6,1.07-4.51,2.88-7.46,4.02-.05,.02-.11,.03-.17,.03-.15,0-.3-.07-.4-.19-.13-.18-.13-.42,0-.6,.85-1.15,1.17-2.25,1.28-3-1.7,1.4-5.39,5.38-4.25,12.8,.02,.1,0,.19-.04,.28,.63,4.3,2.96,17.58,8.39,21,1.27,.79,2.93,1.26,4.94,1.39,1.95-.13,3.64-.56,4.88-1.39,7.18-4.81,8.53-16.15,9.34-20.64-.03-.06-.81-5.66-1.72-8.95-1.26,1.24-2.51,1.67-2.57,1.69-.05,.02-.11,.03-.16,.03-.15,0-.29-.07-.38-.19-.13-.16-.15-.39-.04-.56,.01-.02,.8-1.37,1.06-3.32-2.27,2.8-5.17,3.14-7.77,3.43-1.01,.12-1.96,.23-2.85,.47-.04,.01-.08,.01-.12,.01-.16,0-.31-.08-.41-.2-.12-.17-.12-.39,0-.56,.29-.43,.51-.81,.7-1.13-1.43,.66-3.74,1.57-5.64,1.57-.27,0-.53-.02-.77-.06-.2-.03-.37-.2-.4-.4-.04-.21,.06-.42,.25-.52,2.4-1.32,3.7-3.56,4.32-5.01h0Z"/><path class="cls-13" d="M23.86,15.51s3.19-2.32,7.63-3.09c-1.93,2.9,.29,3.96,4.15,2.99s5.02,5.6,7.24,3.28,6.47,1.16,5.89-1.54c2.41,2.41,2.9,7.91,2.8,8.69-.87-2.22-3.47-7.14-8.59-4.25s-2.41-6.56-9.65-4.44-4.63-3.28-9.46-1.64Z"/><path class="cls-8" d="M21.19,35.67s-4-7.17-2.79-10.26c-1.13,1.28-1.96,1.06-1.96,1.06,0,0,1.58-3.17,2.49-6.34s6.34-9.36,15.47-9.21,12.6,3.02,14.57,5.58,3.78,8.81,2.31,13.73l-2.01,5.44s-.38-6.34-1.51-9.58c-1.36,1.66-2.94,2.19-2.94,2.19,0,0,1.36-2.26,1.21-5.28-3.02,5.28-7.62,4.15-11.32,5.13,1.06-1.58,1.36-2.49,1.36-2.49,0,0-4.6,2.57-7.4,2.11,4-2.19,5.06-6.72,5.06-6.72,0,0-4.3,3.17-8.6,4.83,1.66-2.26,1.43-4.3,1.43-4.3,0,0-6.79,4.08-5.28,13.89"/><path class="cls-10" d="M20.7,34.01s-1.53-2.07-2.6-.67c-1.6,2.09-.4,11.7,4.53,11.62"/><path class="cls-10" d="M49.67,34.01s1.53-2.07,2.6-.67c1.6,2.09,.4,11.7-4.53,11.62"/><path class="cls-8" d="M49.09,37.42s-2.16,15.39-8.91,19.64c-1.47,.92-3.29,1.34-5.17,1.46-1.88-.12-3.7-.54-5.17-1.46-6.75-4.25-8.39-19.64-8.39-19.64"/><path d="M23.19,36.39s1.4-1.16,2.97-.99,5.78,.99,6.44,.91c.95-.58,1.2-1.57,1.2-1.57,0,0-4.21-1.07-6.81-.83-2.64,.41-3.8,2.48-3.8,2.48Z"/><path d="M32.13,40.05c-1.96-1.79-4.54-2.8-7.12-2.02,0,0,.2-.82,.2-.82,.79,.86,2.26,2.04,2.92,2.51,.8,.07,1.59,.16,2.39,.3-.81,.14-1.61,.23-2.42,.3-.41-.12-.74-.29-1.07-.48-1.16-.65-2.17-1.58-3.1-2.52,3.14-1.23,6.53-.24,8.21,2.73h0Z"/><path d="M32.59,43.15c-.11,.56-.25,1.1-.14,1.5,.16,.45,.54,.85,.89,1.22-1.44-.18-1.89-1.81-.75-2.72h0Z"/><path d="M33.16,44.71c.51-.53,1.42,.09,1.33,.73-.48-.41-.87-.34-1.33-.73h0Z"/><path d="M47.11,36.39s-1.4-1.16-2.97-.99-5.78,.99-6.44,.91c-.95-.58-1.2-1.57-1.2-1.57,0,0,4.21-1.07,6.81-.83,2.64,.41,3.8,2.48,3.8,2.48Z"/><path d="M38.17,40.05c1.68-2.97,5.06-3.96,8.21-2.73-.94,.94-1.94,1.86-3.1,2.52-.34,.18-.68,.39-1.1,.47-.8-.07-1.59-.16-2.39-.3,.8-.14,1.59-.23,2.39-.3,.66-.47,2.13-1.64,2.92-2.51,0,0,.2,.82,.2,.82-2.58-.78-5.16,.23-7.12,2.02h0Z"/><path d="M37.7,43.15c1.14,.9,.69,2.54-.75,2.72,.35-.37,.74-.77,.89-1.22,.11-.4-.03-.94-.14-1.5h0Z"/><path d="M37.13,44.71c-.46,.39-.85,.31-1.33,.73-.09-.64,.82-1.26,1.33-.73h0Z"/><path d="M40.32,49.81c-1.49,.3-3.37,.29-4.66,.19-1.81,.01-3.74,.21-5.68-.19,1.83-.65,3.74-1.06,5.68-1.02,1.59,.16,3.15,.44,4.66,1.02h0Z"/><path d="M31.77,51.89c.99-.17,2.2-.16,3.05-.1,1.19,0,2.43-.13,3.71,.1-2.22,.82-4.54,.81-6.76,0h0Z"/><path class="cls-7" d="M45.15,50.73v11.02s-1.7,6.09-9.31,6.09h-1.75c-7.61,0-9.31-6.09-9.31-6.09v-11.02"/><line class="cls-7" x1="24.73" y1="55.97" x2="6.63" y2="61.76"/><line class="cls-7" x1="45.06" y1="55.97" x2="63.16" y2="61.76"/><path class="cls-13" d="M9.96,61.7c4.54-1.53,10.9-3.65,15.4-5.08,0,0-.05,.06-.05,.06,0,0,.02-3.27,.02-3.27h.1c.24,1.2,.44,2.4,.52,3.62-4.95,2.16-10.7,4.32-16,4.67h0Z"/><path class="cls-13" d="M18.94,33.95c.16,2.85,.61,5.6,1,8.45,0,0-.09,.05-.09,.05-.76-1.27-1.31-2.68-1.5-4.15-.16-1.48-.03-2.99,.5-4.39l.09,.04h0Z"/></g></g><g id="Frame"><path class="cls-5" d="M62.56,4.88C54.4,1.94,45.12,.2,35.25,.02c-.57-.01-1.15-.02-1.72-.02C23.88,0,14.77,1.52,6.72,4.21,2.49,14.22,0,26.6,0,40s2.39,25.22,6.45,35.11c8.16,2.94,17.45,4.69,27.32,4.87,.58,.01,1.15,.02,1.73,.02,9.63,0,18.73-1.51,26.78-4.2,4.24-10.01,6.74-22.39,6.74-35.8s-2.4-25.24-6.46-35.12Zm-4.04,66.86c-7.2,2.16-14.94,3.26-23.02,3.26-.49,0-.98-.01-1.47-.02h-.17c-8.18-.15-16.29-1.47-23.6-3.85-3.45-9.22-5.26-19.93-5.26-31.13s1.89-22.38,5.48-31.73c6.73-2.01,14.13-3.13,21.6-3.26,.48-.01,.97-.01,1.45-.01,.54,0,1.08,.01,1.63,.02,8.16,.15,16.27,1.47,23.59,3.84,3.46,9.24,5.27,19.95,5.27,31.14s-1.89,22.39-5.5,31.74Z"/><path class="cls-14" d="M17.21,2.06h0c1.63,.63,2.06,2.75,.81,3.97l-1.26,1.22s8.35-2.37,18.84-1.69h0c-1-1.49-.45-3.52,1.14-4.34l1-.51S28.26-.43,17.21,2.06Z"/><path class="cls-16" d="M21.81,1.66s.7,2.18-.22,3.1c3.77-.41,7.98-.74,11.12-.74-.33-1.33,1.26-3.4,1.26-3.4,0,0-6.17-.26-12.16,1.03Z"/><path class="cls-14" d="M36.25,79.21h0c-1.52-.87-1.62-3.03-.2-4.04l1.43-1.02s-8.61,1.07-18.88-1.19h0c.76,1.63-.09,3.55-1.79,4.11l-1.07,.36s9.19,2.56,20.5,1.78Z"/><path class="cls-16" d="M19.28,77.8s1.76-1.83,1.3-3.09c4.43,.69,9.11,1.14,12.25,1.14-.33,1.33,.44,3.4,.44,3.4,0,0-8-.16-13.99-1.45Z"/><polygon points="47.48 1.77 47.48 6.73 54.49 8.44 54.49 2.62 47.48 1.77"/><line class="cls-7" x1="45.5" y1="1.23" x2="45.5" y2="6.29"/><line class="cls-7" x1="56.47" y1="3.67" x2="56.47" y2="8.73"/><polygon points="47.48 78.74 47.48 73.78 54.49 72.07 54.49 77.88 47.48 78.74"/><line class="cls-7" x1="45.5" y1="79.28" x2="45.5" y2="74.21"/><line class="cls-7" x1="56.47" y1="76.84" x2="56.47" y2="71.77"/><path d="M33.53,1c.56,0,1.14,0,1.7,.02,9.39,.17,18.33,1.74,26.57,4.65,4.07,10.08,6.22,21.94,6.22,34.33s-2.24,24.79-6.49,34.99c-8.12,2.66-16.87,4.01-26.03,4.01-.56,0-1.12,0-1.71-.02-9.25-.17-18.42-1.78-26.58-4.66C3.15,64.25,1,52.39,1,40S3.23,15.21,7.47,5.02C15.6,2.35,24.37,1,33.53,1m0-1C23.88,0,14.77,1.52,6.72,4.21,2.49,14.22,0,26.6,0,40s2.39,25.22,6.45,35.11c8.16,2.94,17.45,4.69,27.32,4.87,.58,.01,1.15,.02,1.73,.02,9.63,0,18.73-1.51,26.78-4.2,4.24-10.01,6.74-22.39,6.74-35.8s-2.4-25.24-6.46-35.12C54.4,1.94,45.12,.2,35.25,.02c-.57,0-1.15-.02-1.72-.02h0Z"/><path class="cls-14" d="M33.53,6c.52,0,1.04,0,1.61,.02,7.87,.14,15.75,1.4,22.84,3.64,3.3,9,5.04,19.47,5.04,30.34s-1.82,21.82-5.26,30.92c-6.98,2.04-14.47,3.08-22.26,3.08-.48,0-.97,0-1.47-.02h-.15c-7.89-.14-15.78-1.41-22.85-3.65-3.29-8.99-5.03-19.46-5.03-30.33s1.81-21.79,5.24-30.91c6.5-1.89,13.7-2.95,20.86-3.08,.47,0,.96,0,1.43,0m0-1c-.48,0-.97,0-1.45,.01-7.47,.13-14.87,1.25-21.6,3.26-3.59,9.35-5.48,20.26-5.48,31.73s1.81,21.91,5.26,31.13c7.31,2.38,15.42,3.7,23.6,3.85h.17c.49,.01,.98,.02,1.47,.02,8.08,0,15.82-1.1,23.02-3.26,3.61-9.35,5.5-20.27,5.5-31.74s-1.81-21.9-5.27-31.14c-7.32-2.37-15.43-3.69-23.59-3.84-.55,0-1.09-.02-1.63-.02h0Z"/><path d="M33.53,5c.54,0,1.08,.01,1.63,.02,8.16,.15,16.27,1.47,23.59,3.84,3.46,9.24,5.27,19.95,5.27,31.14s-1.89,22.39-5.5,31.74c-7.2,2.16-14.94,3.26-23.02,3.26-.49,0-.98-.01-1.47-.02h-.17c-8.18-.15-16.29-1.47-23.6-3.85-3.45-9.22-5.26-19.93-5.26-31.13s1.89-22.38,5.48-31.73c6.73-2.01,14.13-3.13,21.6-3.26,.48-.01,.97-.01,1.45-.01m0-1c-.49,0-.98,0-1.47,.01-7.51,.13-15.07,1.27-21.87,3.3l-.47,.14-.18,.46c-3.63,9.45-5.55,20.55-5.55,32.09s1.84,22.17,5.32,31.48l.17,.45,.46,.15c7.37,2.4,15.63,3.75,23.89,3.9h.19c.48,.01,.97,.02,1.47,.02,8.16,0,16-1.11,23.31-3.3l.47-.14,.18-.46c3.64-9.43,5.57-20.53,5.57-32.1s-1.84-22.17-5.33-31.49l-.17-.45-.46-.15c-7.39-2.39-15.65-3.74-23.88-3.89-.58-.01-1.12-.02-1.65-.02h0Z"/><path class="cls-9" d="M8.14,7.1s-12.66,32.94,0,66.06"/><path class="cls-9" d="M60.88,7.58s12.66,32.94,0,66.06"/></g></svg>