<?xml version="1.0" encoding="UTF-8"?><svg id="Capa_2" xmlns="http://www.w3.org/2000/svg" xmlns:xlink="http://www.w3.org/1999/xlink" viewBox="0 0 69.02 80"><defs><style>.cls-1{fill:#c89aed;}.cls-2{fill:#fff;}.cls-3{fill:#f8ffbf;}.cls-4{fill:#7b7be8;}.cls-5{fill:#a88347;}.cls-6{fill:#782ab5;}.cls-7{stroke-miterlimit:10;}.cls-7,.cls-8,.cls-9,.cls-10,.cls-11,.cls-12,.cls-13{fill:none;}.cls-7,.cls-8,.cls-9,.cls-13{stroke:#000;}.cls-8{stroke-width:.5px;}.cls-8,.cls-9,.cls-10,.cls-13{stroke-linecap:round;stroke-linejoin:round;}.cls-14{fill:#1c46ff;}.cls-10{stroke:#deb778;stroke-dasharray:0 0 0 4.06;}.cls-15{fill:#deb778;}.cls-16{fill:url(#USGS_19_Inundación_de_tierra_2);}.cls-12{stroke:#1d1d1b;stroke-dasharray:0 0 2 2;stroke-width:.3px;}.cls-17{fill:#fcf0c5;}.cls-13{stroke-width:1.02px;}</style><pattern id="USGS_19_Inundación_de_tierra_2" x="0" y="0" width="72" height="72" patternTransform="translate(-236.48 -16207) rotate(-90)" patternUnits="userSpaceOnUse" viewBox="0 0 72 72"><g><rect class="cls-11" width="72" height="72"/><g><line class="cls-12" x1="71" y1="71" x2="144.44" y2="71"/><line class="cls-12" x1="71" y1="67" x2="144.44" y2="67"/><line class="cls-12" x1="71" y1="63" x2="144.44" y2="63"/><line class="cls-12" x1="71" y1="59" x2="144.44" y2="59"/><line class="cls-12" x1="71" y1="55" x2="144.44" y2="55"/><line class="cls-12" x1="71" y1="51" x2="144.44" y2="51"/><line class="cls-12" x1="71" y1="47" x2="144.44" y2="47"/><line class="cls-12" x1="71" y1="43" x2="144.44" y2="43"/><line class="cls-12" x1="71" y1="39" x2="144.44" y2="39"/><line class="cls-12" x1="71" y1="35" x2="144.44" y2="35"/><line class="cls-12" x1="71" y1="31" x2="144.44" y2="31"/><line class="cls-12" x1="71" y1="27" x2="144.44" y2="27"/><line class="cls-12" x1="71" y1="23" x2="144.44" y2="23"/><line class="cls-12" x1="71" y1="19" x2="144.44" y2="19"/><line class="cls-12" x1="71" y1="15" x2="144.44" y2="15"/><line class="cls-12" x1="71" y1="11" x2="144.44" y2="11"/><line class="cls-12" x1="71" y1="7" x2="144.44" y2="7"/><line class="cls-12" x1="71" y1="3" x2="144.44" y2="3"/></g><g><line class="cls-12" x1="-1" y1="71" x2="72.44" y2="71"/><line class="cls-12" x1="-1" y1="67" x2="72.44" y2="67"/><line class="cls-12" x1="-1" y1="63" x2="72.44" y2="63"/><line class="cls-12" x1="-1" y1="59" x2="72.44" y2="59"/><line class="cls-12" x1="-1" y1="55" x2="72.44" y2="55"/><line class="cls-12" x1="-1" y1="51" x2="72.44" y2="51"/><line class="cls-12" x1="-1" y1="47" x2="72.44" y2="47"/><line class="cls-12" x1="-1" y1="43" x2="72.44" y2="43"/><line class="cls-12" x1="-1" y1="39" x2="72.44" y2="39"/><line class="cls-12" x1="-1" y1="35" x2="72.44" y2="35"/><line class="cls-12" x1="-1" y1="31" x2="72.44" y2="31"/><line class="cls-12" x1="-1" y1="27" x2="72.44" y2="27"/><line class="cls-12" x1="-1" y1="23" x2="72.44" y2="23"/><line class="cls-12" x1="-1" y1="19" x2="72.44" y2="19"/><line class="cls-12" x1="-1" y1="15" x2="72.44" y2="15"/><line class="cls-12" x1="-1" y1="11" x2="72.44" y2="11"/><line class="cls-12" x1="-1" y1="7" x2="72.44" y2="7"/><line class="cls-12" x1="-1" y1="3" x2="72.44" y2="3"/><line class="cls-12" x1="1.04" y1="69" x2="74.48" y2="69"/><line class="cls-12" x1="1.04" y1="65" x2="74.48" y2="65"/><line class="cls-12" x1="1.04" y1="61" x2="74.48" y2="61"/><line class="cls-12" x1="1.04" y1="57" x2="74.48" y2="57"/><line class="cls-12" x1="1.04" y1="53" x2="74.48" y2="53"/><line class="cls-12" x1="1.04" y1="49" x2="74.48" y2="49"/><line class="cls-12" x1="1.04" y1="45" x2="74.48" y2="45"/><line class="cls-12" x1="1.04" y1="41" x2="74.48" y2="41"/><line class="cls-12" x1="1.04" y1="37" x2="74.48" y2="37"/><line class="cls-12" x1="1.04" y1="33" x2="74.48" y2="33"/><line class="cls-12" x1="1.04" y1="29" x2="74.48" y2="29"/><line class="cls-12" x1="1.04" y1="25" x2="74.48" y2="25"/><line class="cls-12" x1="1.04" y1="21" x2="74.48" y2="21"/><line class="cls-12" x1="1.04" y1="17" x2="74.48" y2="17"/><line class="cls-12" x1="1.04" y1="13" x2="74.48" y2="13"/><line class="cls-12" x1="1.04" y1="9" x2="74.48" y2="9"/><line class="cls-12" x1="1.04" y1="5" x2="74.48" y2="5"/><line class="cls-12" x1="1.04" y1="1" x2="74.48" y2="1"/></g><g><line class="cls-12" x1="-73" y1="71" x2=".44" y2="71"/><line class="cls-12" x1="-73" y1="67" x2=".44" y2="67"/><line class="cls-12" x1="-73" y1="63" x2=".44" y2="63"/><line class="cls-12" x1="-73" y1="59" x2=".44" y2="59"/><line class="cls-12" x1="-73" y1="55" x2=".44" y2="55"/><line class="cls-12" x1="-73" y1="51" x2=".44" y2="51"/><line class="cls-12" x1="-73" y1="47" x2=".44" y2="47"/><line class="cls-12" x1="-73" y1="43" x2=".44" y2="43"/><line class="cls-12" x1="-73" y1="39" x2=".44" y2="39"/><line class="cls-12" x1="-73" y1="35" x2=".44" y2="35"/><line class="cls-12" x1="-73" y1="31" x2=".44" y2="31"/><line class="cls-12" x1="-73" y1="27" x2=".44" y2="27"/><line class="cls-12" x1="-73" y1="23" x2=".44" y2="23"/><line class="cls-12" x1="-73" y1="19" x2=".44" y2="19"/><line class="cls-12" x1="-73" y1="15" x2=".44" y2="15"/><line class="cls-12" x1="-73" y1="11" x2=".44" y2="11"/><line class="cls-12" x1="-73" y1="7" x2=".44" y2="7"/><line class="cls-12" x1="-73" y1="3" x2=".44" y2="3"/><line class="cls-12" x1="-70.96" y1="69" x2="2.48" y2="69"/><line class="cls-12" x1="-70.96" y1="65" x2="2.48" y2="65"/><line class="cls-12" x1="-70.96" y1="61" x2="2.48" y2="61"/><line class="cls-12" x1="-70.96" y1="57" x2="2.48" y2="57"/><line class="cls-12" x1="-70.96" y1="53" x2="2.48" y2="53"/><line class="cls-12" x1="-70.96" y1="49" x2="2.48" y2="49"/><line class="cls-12" x1="-70.96" y1="45" x2="2.48" y2="45"/><line class="cls-12" x1="-70.96" y1="41" x2="2.48" y2="41"/><line class="cls-12" x1="-70.96" y1="37" x2="2.48" y2="37"/><line class="cls-12" x1="-70.96" y1="33" x2="2.48" y2="33"/><line class="cls-12" x1="-70.96" y1="29" x2="2.48" y2="29"/><line class="cls-12" x1="-70.96" y1="25" x2="2.48" y2="25"/><line class="cls-12" x1="-70.96" y1="21" x2="2.48" y2="21"/><line class="cls-12" x1="-70.96" y1="17" x2="2.48" y2="17"/><line class="cls-12" x1="-70.96" y1="13" x2="2.48" y2="13"/><line class="cls-12" x1="-70.96" y1="9" x2="2.48" y2="9"/><line class="cls-12" x1="-70.96" y1="5" x2="2.48" y2="5"/><line class="cls-12" x1="-70.96" y1="1" x2="2.48" y2="1"/></g></g></pattern></defs><g id="BG"><g><path class="cls-6" d="M63.88,39.71c0,11.47-1.89,22.39-5.5,31.74-7.2,2.16-14.94,3.26-23.02,3.26-.49,0-.98-.01-1.47-.02h-.17c-8.18-.15-16.29-1.47-23.6-3.85-3.45-9.22-5.26-19.93-5.26-31.13s1.89-22.38,5.48-31.73c6.73-2.01,14.13-3.13,21.6-3.26,.48-.01,.97-.01,1.45-.01,.54,0,1.08,.01,1.63,.02,8.16,.15,16.27,1.47,23.59,3.84,3.46,9.24,5.27,19.95,5.27,31.14Z"/><path class="cls-16" d="M34.03,5.59V74.98h-.17c-8.18-.15-16.29-1.47-23.6-3.85-3.45-9.22-5.26-19.93-5.26-31.13s1.89-22.38,5.48-31.73c6.73-2.01,14.13-3.13,21.6-3.26,.65,.16,1.3,.36,1.95,.58Z"/></g></g><g id="Capa_10"><g><path class="cls-1" d="M34.94,12.44s-10.17-.62-14.07,6.57c-2.67,6.06-1.03,14.69-1.03,14.69,0,0-1.85-1.13-2.16,.21s1.13,8.01,1.85,9.66,2.57,2.26,2.57,2.26l1.13,3.6,.51,8.63-16.23,5.96,1.85,9.55s26.09,3.9,26.4,3.9,26.2-5.03,26.2-5.03l-1.34-9.35-13.36-4.93-.21-7.81,1.13-1.64,.62-2.98s1.03,.41,2.88-3.08,2.36-9.14,.92-9.45-1.95,1.03-1.95,1.03c0,0,1.44-8.94-.51-14.9-2.47-4.52-6.16-6.57-15.2-6.88Z"/><path class="cls-2" d="M35.44,57.32V12.72s11.32,.23,14.38,5.77c3.06,6.11,0,21.96,0,21.96l-1.81,8.72-8.83,9.06-3.74-.91Z"/><path d="M18.92,60.12s2.71,8.49,15.27,8.31,15.91-4.52,16.99-8.4c5.24,1.54,11.12,3.8,11.12,3.8l-1.9,9.58-25.94,3.89-25.66-4.34-.72-9.13,10.84-3.71Z"/><path class="cls-14" d="M51.53,60.04s-2.16,6.15-8.84,7.66c6.35,3.07,9.62,6.14,9.62,6.14l8.39-2.53,.41-7.3-9.58-3.97Z"/><path class="cls-4" d="M38.28,37.21s-1.07-.72-1.1-1.86c5.77-.34,8.8,.03,8.8,.03l1.58,1.17-2.41,1.17-6.87-.52Z"/><path class="cls-4" d="M32.28,37.21s1.07-.72,1.1-1.86c-5.77-.34-8.8,.03-8.8,.03l-1.58,1.17,2.41,1.17,6.87-.52Z"/><path class="cls-3" d="M45.23,37.42s-3.02-1.11-6.86-.43c1.28,2,3.24,2.34,3.24,2.34,0,0,2.3,.17,3.62-1.92Z"/><path class="cls-3" d="M25.43,37.42s3.02-1.11,6.86-.43c-1.28,2-3.24,2.34-3.24,2.34,0,0-2.3,.17-3.62-1.92Z"/><path d="M20.47,34.51s-1.65-1.85-2.36-1.02,.35,6.23,.53,7.17,2.43,4.98,4.03,5.34c-1.16-5.11-2.2-11.49-2.2-11.49Z"/><polygon points="40.25 58.62 26.85 74.42 10.75 71.03 9.06 63.33 23.74 58.05 23.78 50.04 31.31 58.67 40.25 58.62"/><path class="cls-2" d="M45.39,54.02l-10.17,12.26s9.63,1.2,14.36-5.68c-2.27-.9-4.19-1.68-4.19-1.68v-4.91Z"/><path class="cls-1" d="M36.04,14c.3,.01,11.03,.49,12.87,6.48,2.08,6.77,.43,17.12,.42,17.21-.79,4.25-2.15,9.6-2.57,10.46-.61,.94-2.47,3.02-5.03,5.89-.94,1.05-1.99,2.23-3.14,3.53-.93,.16-1.94,.23-3.02,.23s-2.13-.07-3.24-.21c-1.84-2.07-6.72-7.62-7.92-9.5-.41-.79-1.43-4.94-2.15-8.38l-.24-2.23s0-.07-.02-.1c-.09-.42-2.06-10.27-.03-16.88,1.85-6.03,12.74-6.48,12.83-6.48h1.25m.01-1h-1.26c-.1,0-11.71,.4-13.79,7.19-2.15,7.01-.01,17.28,.01,17.38l.25,2.28c.42,2.02,1.67,7.64,2.27,8.73,1.14,1.81,5.62,6.95,8.28,9.94,1.05,.15,2.35,.27,3.74,.27,1.15,0,2.36-.08,3.54-.31,4.62-5.22,7.66-8.48,8.52-9.83,.54-1,1.97-6.9,2.69-10.78,.02-.11,1.71-10.67-.44-17.68-2.08-6.79-13.69-7.19-13.81-7.19h0Z"/><path class="cls-2" d="M25.12,41.71l3.9,1.27,2.23-1.67-2.38,4.93s-2.86-1.27-3.74-4.53Z"/><path class="cls-9" d="M50.34,37.67s2.21-10.42,0-17.63-14.27-7.55-14.27-7.55h-1.28s-12.06,.33-14.27,7.55,0,17.63,0,17.63"/><path class="cls-9" d="M20.76,39.9s1.56,7.53,2.33,8.92c1.19,1.89,5.77,7.13,8.47,10.17,2.01,.29,5,.51,7.79-.05,2.7-3.05,7.24-8.24,8.42-10.12,.77-1.39,2.32-8.92,2.32-8.92"/><path class="cls-9" d="M20.02,34.35s-.75-1.7-1.9-.95,.61,8.23,1.84,10.75c.88,1.84,1.97,1.7,1.97,1.7"/><path class="cls-9" d="M50.9,34.35s.75-1.7,1.9-.95-.61,8.23-1.84,10.75c-.88,1.84-1.97,1.7-1.97,1.7"/><polyline class="cls-9" points="23.69 49.85 23.75 58.18 7.55 64.35"/><polyline class="cls-9" points="47 50.05 46.93 58.18 63.13 64.35"/><path d="M25.21,21.58c-.37,2.75-.92,5.79-1.44,8.53-.18,.94-.31,1.9-.8,2.78-.14-1.71,.64-4.01,.91-5.7,.42-1.88,.84-3.75,1.33-5.61h0Z"/><path d="M45.48,21.58c.71,2.69,1.35,5.7,1.91,8.44,.19,.94,.43,1.87,.32,2.87-.78-1.53-.94-3.95-1.33-5.61-.33-1.89-.65-3.79-.91-5.7h0Z"/><path d="M29.22,27.34c4.1-.38,8.11-.53,12.15,.09-3.9,.43-8.47,.59-12.15-.09h0Z"/><path d="M22.93,36.62s1.29-2.66,3.11-3.33c4.84-.75,7.59-.36,7.59-.36,0,0,.04,1.87-.31,2.84-4.04-.36-8.57-.36-10.39,.84Z"/><path d="M47.55,36.62s-1.29-2.66-3.11-3.33c-4.84-.75-7.59-.36-7.59-.36,0,0-.04,1.87,.31,2.84,4.04-.36,8.57-.36,10.39,.84Z"/><path class="cls-8" d="M32.29,36.85s-4.15-.71-7.16,.53c2.06,1.84,3.62,1.91,3.62,1.91,0,0,2.23-.32,3.55-2.45Z"/><path d="M31.78,39.38c-.78,.89-1.61,1.81-2.71,2.31-1.46-.03-2.86-.62-3.97-1.53,1.31,.53,2.63,.99,3.97,1.04,.38-.29,1.92-1.25,2.71-1.82h0Z"/><path class="cls-8" d="M38.15,36.85s4.15-.71,7.16,.53c-2.06,1.84-3.62,1.91-3.62,1.91,0,0-2.23-.32-3.55-2.45Z"/><path d="M38.66,39.38c.96,.62,1.87,1.34,2.82,1.85,.74-.08,2.72-.52,3.86-1.07-1.11,.91-2.51,1.5-3.97,1.53-1.1-.5-1.93-1.42-2.71-2.31h0Z"/><path d="M37.52,42.93c.44,.22,.89,.51,1.3,.79,.15,.13,.52,.29,.46,.56-.43,1.25-1.11,2.36-2,3.35-.08,.09-.18,.13-.29,.13-1.11,.02-2.21,.02-3.32,0-.13,0-.25-.05-.33-.13-.89-.99-1.58-2.1-2-3.35-.06-.27,.32-.42,.46-.56,0,0,.42-.28,.42-.28,.29-.18,.58-.35,.87-.5-.36,.4-1.03,1.02-1.32,1.44l.03-.25c.3,.53,.64,1.03,1,1.51,.37,.47,.77,.95,1.18,1.34l-.33-.13c1.1-.02,2.19-.02,3.29,0l-.33,.13c.84-.82,1.59-1.82,2.18-2.86,0,0,.03,.25,.03,.25-.28-.41-.96-1.04-1.32-1.44h0Z"/><path d="M41.85,51.86c-1.96-.45-4.77-.61-6.47-.66h-.07c-1.69,.04-4.6,.19-6.62,.66,1.32-1.05,4.22-2.27,4.22-2.27l2.37,.64,2.36-.64s2.9,1.22,4.21,2.27Z"/><path d="M39.22,52.55c-.27,.4-.49,.89-.87,1.18-1.1,.17-2.2,.23-3.29,.24-1.1,0-2.2-.07-3.29-.24-.37-.28-.59-.78-.87-1.18,.4,.22,.77,.46,1.14,.72l-.19-.08c1.07-.16,2.14-.22,3.21-.23,1.07,0,2.14,.07,3.21,.23l-.19,.08c.36-.26,.73-.51,1.14-.72h0Z"/><polygon points="36.33 53.68 36.9 56.89 40.65 56.89 38.59 59.07 35.13 59.38 35.23 59.38 31.76 59.07 29.71 56.89 33.46 56.89 34.02 53.68 36.33 53.68"/><path class="cls-9" d="M51.27,59.92s-1.25,8.41-15.2,8.41h-1.77c-13.95,0-15.2-8.41-15.2-8.41"/><path class="cls-13" d="M22.29,46.62c0,1.37-.48,2.47-1.08,2.47s-1.08-1.11-1.08-2.47,.48-2.47,1.08-2.47"/><path class="cls-13" d="M48.62,46.62c0,1.37,.48,2.47,1.08,2.47s1.08-1.11,1.08-2.47-.48-2.47-1.08-2.47"/><path class="cls-14" d="M24.75,53.82c.35,1.68,.56,3.38,.68,5.08-2.87,1.44-5.9,2.64-8.96,3.63-1.72,.5-3.59,1.06-5.36,1.34,0,0-.04-.09-.04-.09,4.43-1.71,9.34-3.84,13.55-5.3,0,0,.02-4.66,.02-4.66,0,0,.1,0,.1,0h0Z"/></g></g><g id="Frame"><path class="cls-5" d="M62.56,4.88C54.4,1.94,45.12,.2,35.25,.02c-.57-.01-1.15-.02-1.72-.02C23.88,0,14.77,1.52,6.72,4.21,2.49,14.22,0,26.6,0,40s2.39,25.22,6.45,35.11c8.16,2.94,17.45,4.69,27.32,4.87,.58,.01,1.15,.02,1.73,.02,9.63,0,18.73-1.51,26.78-4.2,4.24-10.01,6.74-22.39,6.74-35.8s-2.4-25.24-6.46-35.12Zm-4.04,66.86c-7.2,2.16-14.94,3.26-23.02,3.26-.49,0-.98-.01-1.47-.02h-.17c-8.18-.15-16.29-1.47-23.6-3.85-3.45-9.22-5.26-19.93-5.26-31.13s1.89-22.38,5.48-31.73c6.73-2.01,14.13-3.13,21.6-3.26,.48-.01,.97-.01,1.45-.01,.54,0,1.08,.01,1.63,.02,8.16,.15,16.27,1.47,23.59,3.84,3.46,9.24,5.27,19.95,5.27,31.14s-1.89,22.39-5.5,31.74Z"/><path class="cls-15" d="M17.21,2.06h0c1.63,.63,2.06,2.75,.81,3.97l-1.26,1.22s8.35-2.37,18.84-1.69h0c-1-1.49-.45-3.52,1.14-4.34l1-.51S28.26-.43,17.21,2.06Z"/><path class="cls-17" d="M21.81,1.66s.7,2.18-.22,3.1c3.77-.41,7.98-.74,11.12-.74-.33-1.33,1.26-3.4,1.26-3.4,0,0-6.17-.26-12.16,1.03Z"/><path class="cls-15" d="M36.25,79.21h0c-1.52-.87-1.62-3.03-.2-4.04l1.43-1.02s-8.61,1.07-18.88-1.19h0c.76,1.63-.09,3.55-1.79,4.11l-1.07,.36s9.19,2.56,20.5,1.78Z"/><path class="cls-17" d="M19.28,77.8s1.76-1.83,1.3-3.09c4.43,.69,9.11,1.14,12.25,1.14-.33,1.33,.44,3.4,.44,3.4,0,0-8-.16-13.99-1.45Z"/><polygon points="47.48 1.77 47.48 6.73 54.49 8.44 54.49 2.62 47.48 1.77"/><line class="cls-7" x1="45.5" y1="1.23" x2="45.5" y2="6.29"/><line class="cls-7" x1="56.47" y1="3.67" x2="56.47" y2="8.73"/><polygon points="47.48 78.74 47.48 73.78 54.49 72.07 54.49 77.88 47.48 78.74"/><line class="cls-7" x1="45.5" y1="79.28" x2="45.5" y2="74.21"/><line class="cls-7" x1="56.47" y1="76.84" x2="56.47" y2="71.77"/><path d="M33.53,1c.56,0,1.14,0,1.7,.02,9.39,.17,18.33,1.74,26.57,4.65,4.07,10.08,6.22,21.94,6.22,34.33s-2.24,24.79-6.49,34.99c-8.12,2.66-16.87,4.01-26.03,4.01-.56,0-1.12,0-1.71-.02-9.25-.17-18.42-1.78-26.58-4.66C3.15,64.25,1,52.39,1,40S3.23,15.21,7.47,5.02C15.6,2.35,24.37,1,33.53,1m0-1C23.88,0,14.77,1.52,6.72,4.21,2.49,14.22,0,26.6,0,40s2.39,25.22,6.45,35.11c8.16,2.94,17.45,4.69,27.32,4.87,.58,.01,1.15,.02,1.73,.02,9.63,0,18.73-1.51,26.78-4.2,4.24-10.01,6.74-22.39,6.74-35.8s-2.4-25.24-6.46-35.12C54.4,1.94,45.12,.2,35.25,.02c-.57,0-1.15-.02-1.72-.02h0Z"/><path class="cls-15" d="M33.53,6c.52,0,1.04,0,1.61,.02,7.87,.14,15.75,1.4,22.84,3.64,3.3,9,5.04,19.47,5.04,30.34s-1.82,21.82-5.26,30.92c-6.98,2.04-14.47,3.08-22.26,3.08-.48,0-.97,0-1.47-.02h-.15c-7.89-.14-15.78-1.41-22.85-3.65-3.29-8.99-5.03-19.46-5.03-30.33s1.81-21.79,5.24-30.91c6.5-1.89,13.7-2.95,20.86-3.08,.47,0,.96,0,1.43,0m0-1c-.48,0-.97,0-1.45,.01-7.47,.13-14.87,1.25-21.6,3.26-3.59,9.35-5.48,20.26-5.48,31.73s1.81,21.91,5.26,31.13c7.31,2.38,15.42,3.7,23.6,3.85h.17c.49,.01,.98,.02,1.47,.02,8.08,0,15.82-1.1,23.02-3.26,3.61-9.35,5.5-20.27,5.5-31.74s-1.81-21.9-5.27-31.14c-7.32-2.37-15.43-3.69-23.59-3.84-.55,0-1.09-.02-1.63-.02h0Z"/><path d="M33.53,5c.54,0,1.08,.01,1.63,.02,8.16,.15,16.27,1.47,23.59,3.84,3.46,9.24,5.27,19.95,5.27,31.14s-1.89,22.39-5.5,31.74c-7.2,2.16-14.94,3.26-23.02,3.26-.49,0-.98-.01-1.47-.02h-.17c-8.18-.15-16.29-1.47-23.6-3.85-3.45-9.22-5.26-19.93-5.26-31.13s1.89-22.38,5.48-31.73c6.73-2.01,14.13-3.13,21.6-3.26,.48-.01,.97-.01,1.45-.01m0-1c-.49,0-.98,0-1.47,.01-7.51,.13-15.07,1.27-21.87,3.3l-.47,.14-.18,.46c-3.63,9.45-5.55,20.55-5.55,32.09s1.84,22.17,5.32,31.48l.17,.45,.46,.15c7.37,2.4,15.63,3.75,23.89,3.9h.19c.48,.01,.97,.02,1.47,.02,8.16,0,16-1.11,23.31-3.3l.47-.14,.18-.46c3.64-9.43,5.57-20.53,5.57-32.1s-1.84-22.17-5.33-31.49l-.17-.45-.46-.15c-7.39-2.39-15.65-3.74-23.88-3.89-.58-.01-1.12-.02-1.65-.02h0Z"/><path class="cls-10" d="M8.14,7.1s-12.66,32.94,0,66.06"/><path class="cls-10" d="M60.88,7.58s12.66,32.94,0,66.06"/></g></svg>