<svg id="Capa_2" xmlns="http://www.w3.org/2000/svg" xmlns:xlink="http://www.w3.org/1999/xlink" viewBox="0 0 69.02 80">
<defs >
<style >
.cls-1{fill:#c89aed;}.cls-2{fill:#fff;}.cls-3{fill:#f8ffbf;}.cls-4{fill:#7b7be8;}.cls-5{fill:#a88347;}.cls-6{fill:#782ab5;}.cls-7,.cls-8{stroke:#000;stroke-miterlimit:10;}.cls-7,.cls-8,.cls-9,.cls-10,.cls-11{fill:none;}.cls-8,.cls-9{stroke-linecap:round;}.cls-12{fill:#1c46ff;}.cls-9{stroke:#deb778;stroke-dasharray:0 0 0 4.06;stroke-linejoin:round;}.cls-13{fill:#deb778;}.cls-14{fill:url(#USGS_19_Inundación_de_tierra_2);}.cls-11{stroke:#1d1d1b;stroke-dasharray:0 0 2 2;stroke-width:.3px;}.cls-15{fill:#fcf0c5;}
</style>
<pattern id="USGS_19_Inundación_de_tierra_2" x="0" y="0" width="72" height="72" patternTransform="translate(-452.48 -16279) rotate(-90)" patternUnits="userSpaceOnUse" viewBox="0 0 72 72">
<g >
<rect class="cls-10" width="72" height="72">
</rect>
<g >
<line class="cls-11" x1="71" y1="71" x2="144.44" y2="71">
</line>
<line class="cls-11" x1="71" y1="67" x2="144.44" y2="67">
</line>
<line class="cls-11" x1="71" y1="63" x2="144.44" y2="63">
</line>
<line class="cls-11" x1="71" y1="59" x2="144.44" y2="59">
</line>
<line class="cls-11" x1="71" y1="55" x2="144.44" y2="55">
</line>
<line class="cls-11" x1="71" y1="51" x2="144.44" y2="51">
</line>
<line class="cls-11" x1="71" y1="47" x2="144.44" y2="47">
</line>
<line class="cls-11" x1="71" y1="43" x2="144.44" y2="43">
</line>
<line class="cls-11" x1="71" y1="39" x2="144.44" y2="39">
</line>
<line class="cls-11" x1="71" y1="35" x2="144.44" y2="35">
</line>
<line class="cls-11" x1="71" y1="31" x2="144.44" y2="31">
</line>
<line class="cls-11" x1="71" y1="27" x2="144.44" y2="27">
</line>
<line class="cls-11" x1="71" y1="23" x2="144.44" y2="23">
</line>
<line class="cls-11" x1="71" y1="19" x2="144.44" y2="19">
</line>
<line class="cls-11" x1="71" y1="15" x2="144.44" y2="15">
</line>
<line class="cls-11" x1="71" y1="11" x2="144.44" y2="11">
</line>
<line class="cls-11" x1="71" y1="7" x2="144.44" y2="7">
</line>
<line class="cls-11" x1="71" y1="3" x2="144.44" y2="3">
</line>
</g>
<g >
<line class="cls-11" x1="-1" y1="71" x2="72.44" y2="71">
</line>
<line class="cls-11" x1="-1" y1="67" x2="72.44" y2="67">
</line>
<line class="cls-11" x1="-1" y1="63" x2="72.44" y2="63">
</line>
<line class="cls-11" x1="-1" y1="59" x2="72.44" y2="59">
</line>
<line class="cls-11" x1="-1" y1="55" x2="72.44" y2="55">
</line>
<line class="cls-11" x1="-1" y1="51" x2="72.44" y2="51">
</line>
<line class="cls-11" x1="-1" y1="47" x2="72.44" y2="47">
</line>
<line class="cls-11" x1="-1" y1="43" x2="72.44" y2="43">
</line>
<line class="cls-11" x1="-1" y1="39" x2="72.44" y2="39">
</line>
<line class="cls-11" x1="-1" y1="35" x2="72.44" y2="35">
</line>
<line class="cls-11" x1="-1" y1="31" x2="72.44" y2="31">
</line>
<line class="cls-11" x1="-1" y1="27" x2="72.44" y2="27">
</line>
<line class="cls-11" x1="-1" y1="23" x2="72.44" y2="23">
</line>
<line class="cls-11" x1="-1" y1="19" x2="72.44" y2="19">
</line>
<line class="cls-11" x1="-1" y1="15" x2="72.44" y2="15">
</line>
<line class="cls-11" x1="-1" y1="11" x2="72.44" y2="11">
</line>
<line class="cls-11" x1="-1" y1="7" x2="72.44" y2="7">
</line>
<line class="cls-11" x1="-1" y1="3" x2="72.44" y2="3">
</line>
<line class="cls-11" x1="1.04" y1="69" x2="74.48" y2="69">
</line>
<line class="cls-11" x1="1.04" y1="65" x2="74.48" y2="65">
</line>
<line class="cls-11" x1="1.04" y1="61" x2="74.48" y2="61">
</line>
<line class="cls-11" x1="1.04" y1="57" x2="74.48" y2="57">
</line>
<line class="cls-11" x1="1.04" y1="53" x2="74.48" y2="53">
</line>
<line class="cls-11" x1="1.04" y1="49" x2="74.48" y2="49">
</line>
<line class="cls-11" x1="1.04" y1="45" x2="74.48" y2="45">
</line>
<line class="cls-11" x1="1.04" y1="41" x2="74.48" y2="41">
</line>
<line class="cls-11" x1="1.04" y1="37" x2="74.48" y2="37">
</line>
<line class="cls-11" x1="1.04" y1="33" x2="74.48" y2="33">
</line>
<line class="cls-11" x1="1.04" y1="29" x2="74.48" y2="29">
</line>
<line class="cls-11" x1="1.04" y1="25" x2="74.48" y2="25">
</line>
<line class="cls-11" x1="1.04" y1="21" x2="74.48" y2="21">
</line>
<line class="cls-11" x1="1.04" y1="17" x2="74.48" y2="17">
</line>
<line class="cls-11" x1="1.04" y1="13" x2="74.48" y2="13">
</line>
<line class="cls-11" x1="1.04" y1="9" x2="74.48" y2="9">
</line>
<line class="cls-11" x1="1.04" y1="5" x2="74.48" y2="5">
</line>
<line class="cls-11" x1="1.04" y1="1" x2="74.48" y2="1">
</line>
</g>
<g >
<line class="cls-11" x1="-73" y1="71" x2=".44" y2="71">
</line>
<line class="cls-11" x1="-73" y1="67" x2=".44" y2="67">
</line>
<line class="cls-11" x1="-73" y1="63" x2=".44" y2="63">
</line>
<line class="cls-11" x1="-73" y1="59" x2=".44" y2="59">
</line>
<line class="cls-11" x1="-73" y1="55" x2=".44" y2="55">
</line>
<line class="cls-11" x1="-73" y1="51" x2=".44" y2="51">
</line>
<line class="cls-11" x1="-73" y1="47" x2=".44" y2="47">
</line>
<line class="cls-11" x1="-73" y1="43" x2=".44" y2="43">
</line>
<line class="cls-11" x1="-73" y1="39" x2=".44" y2="39">
</line>
<line class="cls-11" x1="-73" y1="35" x2=".44" y2="35">
</line>
<line class="cls-11" x1="-73" y1="31" x2=".44" y2="31">
</line>
<line class="cls-11" x1="-73" y1="27" x2=".44" y2="27">
</line>
<line class="cls-11" x1="-73" y1="23" x2=".44" y2="23">
</line>
<line class="cls-11" x1="-73" y1="19" x2=".44" y2="19">
</line>
<line class="cls-11" x1="-73" y1="15" x2=".44" y2="15">
</line>
<line class="cls-11" x1="-73" y1="11" x2=".44" y2="11">
</line>
<line class="cls-11" x1="-73" y1="7" x2=".44" y2="7">
</line>
<line class="cls-11" x1="-73" y1="3" x2=".44" y2="3">
</line>
<line class="cls-11" x1="-70.96" y1="69" x2="2.48" y2="69">
</line>
<line class="cls-11" x1="-70.96" y1="65" x2="2.48" y2="65">
</line>
<line class="cls-11" x1="-70.96" y1="61" x2="2.48" y2="61">
</line>
<line class="cls-11" x1="-70.96" y1="57" x2="2.48" y2="57">
</line>
<line class="cls-11" x1="-70.96" y1="53" x2="2.48" y2="53">
</line>
<line class="cls-11" x1="-70.96" y1="49" x2="2.48" y2="49">
</line>
<line class="cls-11" x1="-70.96" y1="45" x2="2.48" y2="45">
</line>
<line class="cls-11" x1="-70.96" y1="41" x2="2.48" y2="41">
</line>
<line class="cls-11" x1="-70.96" y1="37" x2="2.48" y2="37">
</line>
<line class="cls-11" x1="-70.96" y1="33" x2="2.48" y2="33">
</line>
<line class="cls-11" x1="-70.96" y1="29" x2="2.48" y2="29">
</line>
<line class="cls-11" x1="-70.96" y1="25" x2="2.48" y2="25">
</line>
<line class="cls-11" x1="-70.96" y1="21" x2="2.48" y2="21">
</line>
<line class="cls-11" x1="-70.96" y1="17" x2="2.48" y2="17">
</line>
<line class="cls-11" x1="-70.96" y1="13" x2="2.48" y2="13">
</line>
<line class="cls-11" x1="-70.96" y1="9" x2="2.48" y2="9">
</line>
<line class="cls-11" x1="-70.96" y1="5" x2="2.48" y2="5">
</line>
<line class="cls-11" x1="-70.96" y1="1" x2="2.48" y2="1">
</line>
</g>
</g>
</pattern>
</defs>

<g id="Capa_10">
<g >
<path class="cls-1" d="M61.53,66.31c-.61,6.91-.71,8.64-.71,8.64l-26.13,2.24-25.93-4.98v-7.22s12-4.07,12.61-4.17c-.61-3.15-.51-4.88-.51-4.88l-2.03-1.83-.21-6.1s-3.25-1.93-3.56-6.71c0-3.05,.82-5.29,1.63-5.29v-.04c-.17-.58-2.23-7.92-2.03-11.14,.2-3.36,3.15-7.93,3.15-7.93l.51,2.94s2.13-3.96,3.86-5.38c1.73-1.43,2.44-3.46,2.44-3.46l.92,3.25,3.25-5.08,1.73,4.07,4.17-5.8,3.56,5.8,1.52-4.38,3.36,5.09,1.32-2.95s.81,2.24,2.44,3.56c1.62,1.32,3.66,5.08,3.66,5.08l.71-2.74s3.35,6.3,3.35,8.94c-.1,2.95-2.64,10.48-2.64,10.48,0,0,1.53-.11,1.83,2.94,.31,3.05-1.63,8.54-3.25,9.66-.61,4.48-.51,5.29-.51,5.29l-2.14,2.34-.71,4.57s12.31,3.16,14.34,5.19Z">
</path>
<polygon class="cls-2" points="34.5 65.4 34.5 29.23 36.72 25.92 46.06 25.22 49.57 31.29 49.68 42.04 50.04 54.21 38.35 65.63 34.5 65.4">
</polygon>
<path d="M54.61,25.84c-.1,2.95-2.64,10.48-2.64,10.48l-2.23,1.25s-.08-3.69-1.81-6.61c-1.42-2.67-1.57-5.35-1.57-5.35,0,0-3.86,1.66-8.82,.87-2.28,1.57-2.99,2.75-2.99,2.75,0,0-2.51-2.59-3.69-2.67-4.8-.39-8.34-.39-8.34-.39l-1.1,3.93s-2.44,3.7-2.44,7.55c-1.26-1.34-2.29-1.64-2.29-1.64v-.04c-.17-.58-2.23-7.92-2.03-11.14,.2-3.36,3.15-7.93,3.15-7.93l.51,2.94s2.13-3.96,3.86-5.38c1.73-1.43,2.44-3.46,2.44-3.46l.92,3.25,3.25-5.08,1.73,4.07,4.17-5.8,3.56,5.8,1.52-4.38,3.36,5.09,1.32-2.95s.81,2.24,2.44,3.56c1.62,1.32,3.66,5.08,3.66,5.08l.71-2.74s3.35,6.3,3.35,8.94Z">
</path>
<path class="cls-12" d="M52.08,19.97s2.31,4.21,1.57,8.18c-2.06-.74-4.05,.17-5.45,2.06-.66-4.54-1.14-3.24-1.14-4.64,3.39,1.49,4.69-1.3,5.02-5.6Z">
</path>
<path class="cls-3" d="M45.52,41.96s-4.39-1.49-8.04-.07c1.62,1.76,5.4,3.85,8.04,.07Z">
</path>
<path class="cls-4" d="M47.86,40.56l-2.16,1.4s-4.19-1.44-8.38-.04c-.97-.38-2.07-2.92-1.95-3.77,4.19-.8,8.21-1.27,8.21-1.27,0,0,3.22,1.44,4.27,3.68Z">
</path>
<path class="cls-3" d="M23.3,41.96s4.39-1.49,8.04-.07c-1.62,1.76-5.4,3.85-8.04,.07Z">
</path>
<path class="cls-4" d="M20.96,40.56l2.16,1.4s4.19-1.44,8.38-.04c.97-.38,2.07-2.92,1.95-3.77-4.19-.8-8.21-1.27-8.21-1.27,0,0-3.22,1.44-4.27,3.68Z">
</path>
<path d="M17.62,36.16s-1.94-.4-2.18,2.18-.08,8.25,3.24,10.19c.08-5.58,.49-7.36,.49-7.36l-.57-4.85-.97-.16Z">
</path>
<polygon points="38.35 65.63 27.94 75.84 9.77 75.05 8 65.03 21.37 60.82 20.86 55.94 30.4 65.33 38.35 65.63">
</polygon>
<path class="cls-2" d="M24.24,44.87c.92,.31,2.25,.63,3.63,.54,.63-.04,1,.72,.61,1.22-2.67,3.44-4.28,3.18-5.22-.89-.13-.57,.42-1.05,.97-.87Z">
</path>
<path class="cls-2" d="M44.34,62.51l-10.95,10.69s11.78,2.49,16.17-4.32c1.98-3.36,.66-5.63,.66-5.63l-3.36-.59h0c-.63-.78-1.79-.86-2.51-.15Z">
</path>
<path class="cls-7" d="M7.31,66.12s8.06-3.81,14.22-5.29">
</path>
<line class="cls-8" x1="22.94" y1="68.12" x2="20.61" y2="56.07">
</line>
<path class="cls-7" d="M61.38,66.12s-8.06-3.81-14.22-5.29">
</path>
<line class="cls-8" x1="45.76" y1="68.12" x2="48.08" y2="56.07">
</line>
<path class="cls-7" d="M31.26,26.53c-5.4,.55-8.86-.76-8.86-.76,0,0-.56,3.6-1.73,5.26-1.18,1.66-2.08,5.26-1.46,10.8-1.1,3.04-.14,12.52-.14,12.52l11.58,11.23h7.63l11.57-11.23s.97-9.48-.13-12.52c.62-5.54-.28-9.14-1.46-10.8-1.17-1.66-1.73-5.26-1.73-5.26,0,0-3.55,1.47-8.94,.92">
</path>
<path d="M39.83,24.13c-.64,2.76-3.86,3.55-5.26,5.94-.8-1.14-1.82-2.1-3-2.91-1.05-.72-1.99-1.77-2.26-3.03,.67,1.06,1.63,1.81,2.67,2.36,1.13,.6,2.17,1.4,2.99,2.45h-.79c1.51-2.16,4.28-2.53,5.66-4.81h0Z">
</path>
<path class="cls-7" d="M18.94,37.92s-1.27-2.08-2.68-1.41-2.01,8.86,2.46,12.28">
</path>
<path class="cls-7" d="M49.97,37.92s1.27-2.08,2.68-1.41,2.01,8.86-2.46,12.28">
</path>
<path class="cls-7" d="M51.86,36.61s2.94-7.73,2.29-11.92c-.66-4.19-3.08-8.12-3.08-8.12l-.52,3.34s-1.97-3.86-3.73-5.3c-1.77-1.44-2.49-3.54-2.49-3.54l-1.05,3.08-3.27-4.98s-.98,3.61-1.84,4.39c-1.16-2.32-2.74-4.42-3.73-6.05-.98,1.63-2.57,3.73-3.73,6.05-.85-.78-1.83-4.39-1.83-4.39l-3.28,4.98-1.04-3.08s-.72,2.1-2.49,3.54-3.73,5.3-3.73,5.3l-.53-3.34s-2.42,3.93-3.07,8.12c-.66,4.19,2.29,11.92,2.29,11.92">
</path>
<path d="M36.32,42.15c.63,2.27,1.09,4.56,.96,6.95,0,0-.16-.37-.16-.37,.55,.38,1.01,.85,1.36,1.43,0,0-.14,.24-.14,.24-.08,.15-.49,.86-.56,.99-.08,0-1.72,.23-1.86,.24,0,0,.29-.14,.29-.14-.26,.27-1.51,1.57-1.75,1.81l-.36-.37-1.39-1.44,.29,.14c-.14-.02-1.78-.23-1.86-.24,0,0-.11-.19-.11-.19-.1-.17-.5-.88-.59-1.04,.35-.58,.8-1.05,1.35-1.43,0,0-.16,.37-.16,.37-.13-2.39,.33-4.68,.96-6.95-.18,2.33-.49,4.76-.13,7.06-.41,.34-.84,.73-1.12,1.18v-.45s.49,.78,.49,.78l-.35-.22s1.84,.19,1.8,.19c0,0,.12,.13,.12,.13l1.41,1.42h-.71s1.41-1.42,1.41-1.42c.13-.14,.1-.13,.29-.14,0,0,1.63-.17,1.63-.17l-.34,.22,.49-.78v.45c-.24-.38-.59-.73-.94-1.02,0,0-.19-.16-.19-.16,.37-2.3,.05-4.73-.13-7.06h0Z">
</path>
<path d="M33.37,38.1s-.99,1.13-1.8,1.49c-3.65-.27-5.45-1.76-6.98-1.53s-3.74,2.61-3.74,2.61c0,0,1.13-3.6,4.95-4.86,2.93,.14,7.56,2.3,7.56,2.3Z">
</path>
<path d="M27.18,43.99c1.44-.47,2.93-1.13,3.76-2.43,0,0,.2,.64,.2,.64-2.38-.76-5.19-.81-7.55,.05,0,0,.09-.51,.09-.51,.59,.8,1.32,1.54,2.17,2.14-1.15-.37-2.15-1.12-2.98-1.99,2.55-1.57,5.85-1.6,8.59-.49,0,0,.5,.22,.5,.22-1.03,1.65-2.93,2.37-4.78,2.37h0Z">
</path>
<path d="M35.32,38.1s.99,1.13,1.8,1.49c3.65-.27,5.45-1.76,6.98-1.53s3.74,2.61,3.74,2.61c0,0-1.13-3.6-4.95-4.86-2.93,.14-7.56,2.3-7.56,2.3Z">
</path>
<path d="M41.51,43.99c-1.85,0-3.75-.72-4.78-2.37,0,0,.5-.22,.5-.22,2.74-1.12,6.04-1.08,8.59,.49-.83,.87-1.83,1.62-2.98,1.99,.86-.6,1.58-1.34,2.17-2.14l.09,.51c-2.36-.86-5.17-.81-7.55-.05,0,0,.2-.64,.2-.64,.83,1.3,2.31,1.96,3.76,2.43h0Z">
</path>
<path d="M34.56,55.7l1.73-.87s2.17,.31,5.16,1.13c-1.91-1.78-5.03-2.56-5.03-2.56l-1.86,.83-1.86-.83s-3.12,.78-5.03,2.56c2.99-.82,5.16-1.13,5.16-1.13l1.73,.87Z">
</path>
<path d="M39.04,56.57c-.29,.5-.62,.97-.96,1.42l-.2-.02c-2.14-.23-4.46-.23-6.6,0,0,0-.2,.02-.2,.02-.34-.45-.67-.92-.96-1.42,.46,.28,.89,.59,1.3,.92l-.27-.08c1.1-.4,2.26-.62,3.43-.62,1.17,0,2.33,.23,3.43,.62l-.27,.08c.41-.33,.84-.64,1.3-.92h0Z">
</path>
<path d="M38.58,60.57c-1.12-.99-2.63-.99-4.04-1.01-1.41,.02-2.92,.02-4.04,1.01,1.12-2.39,6.96-2.39,8.08,0h0Z">
</path>
<path class="cls-7" d="M17.25,62.21s-4.02,8.89,9.4,14.62">
</path>
<path class="cls-7" d="M51.59,62.21s4.02,8.89-9.4,14.62">
</path>
<path class="cls-1" d="M21.86,58.72c.47,.96,.8,1.95,1.11,2.95-3.89,1.74-7.88,3-12.13,3.63,3.35-1.76,7.62-2.85,11.4-4.01,0,0-.05,.08-.05,.08l-.43-2.62,.1-.02h0Z">
</path>
</g>
</g>
 <g
     id="g2850">
    <g
       id="g2837">
      <path
         id="path1951"
         d="M 0.056640625 0.04296875 L 0.056640625 79.943359 L 69.308594 79.943359 L 69.308594 0.04296875 L 0.056640625 0.04296875 z M 33.615234 3.5957031 C 34.206332 3.5957038 34.786991 3.6051034 35.421875 3.6152344 C 44.430653 3.7671809 53.471255 5.1336733 61.560547 7.5546875 L 62.064453 7.7070312 L 62.25 8.1640625 C 66.070247 17.605006 66.990234 28.726438 66.990234 40.0625 C 66.990234 51.398562 65.972723 63.025755 61.988281 72.578125 L 61.791016 73.044922 L 61.275391 73.185547 C 53.273669 75.403966 44.691921 76.529297 35.759766 76.529297 C 35.212453 76.529297 34.675812 76.519896 34.150391 76.509766 L 33.943359 76.509766 C 24.901742 76.357819 15.860367 74.989738 7.7929688 72.558594 L 7.2890625 72.40625 L 7.1035156 71.951172 C 3.2942144 62.520359 2.375 51.369168 2.375 40.0625 C 2.375 28.755832 3.3819737 17.127318 7.3554688 7.5546875 L 7.5527344 7.0898438 L 8.0664062 6.9472656 C 15.509867 4.890923 23.785212 3.7371557 32.005859 3.6054688 C 32.542226 3.5953387 33.078867 3.5957031 33.615234 3.5957031 z "
         style="opacity:1;vector-effect:none;fill:#ffffff;fill-opacity:1;fill-rule:nonzero;stroke:none;stroke-width:1.95200002;stroke-linecap:butt;stroke-linejoin:miter;stroke-miterlimit:4;stroke-dasharray:none;stroke-dashoffset:0;stroke-opacity:1" />
    </g>
    <path
       id="path1154-8-2"
       d="m 33.675163,6.6112954 c 0.557696,0 1.115392,0.00956 1.683415,0.019115 8.427403,0.14336 16.803167,1.4049288 24.363042,3.6700176 3.573384,8.830981 4.443772,19.417362 4.443772,29.761551 0,10.344189 -0.95301,21.39888 -4.68131,30.334991 -7.435942,2.064385 -15.429581,3.274388 -23.774362,3.274388 -0.506058,0 -1.012115,-0.0096 -1.518172,-0.01911 h -0.17557 C 25.56792,73.508883 17.192156,72.088619 9.6426089,69.813973 6.0795528,61.002107 5.2088244,50.415411 5.2088244,40.061979 c 0,-10.353432 0.95335,-21.389323 4.6609939,-30.325434 C 16.820359,7.8155201 24.462856,6.7450981 32.177647,6.6208528 c 0.49573,-0.00956 1.001787,-0.00956 1.497516,-0.00956 m 0,-0.9557337 c -0.506057,0 -1.012114,0 -1.518171,0.00956 C 24.40089,5.7893644 16.593149,6.8789009 9.570315,8.8190405 L 9.0849131,8.9528432 8.8990146,9.3924808 C 5.1500599,18.424166 4.1999116,29.394246 4.1999116,40.061979 c 0,10.667733 0.8675267,21.188618 4.461566,30.0865 l 0.1755708,0.430081 0.4750741,0.14336 c 7.6115135,2.293761 16.1421925,3.584001 24.6728715,3.727361 h 0.196227 c 0.495729,0.0096 1.001786,0.01911 1.518171,0.01911 8.427403,0 16.524318,-1.060864 24.073866,-3.153921 l 0.485403,-0.133802 0.185898,-0.439639 c 3.759282,-9.01257 4.719759,-19.983589 4.719759,-30.679055 0,-10.695466 -0.867528,-21.188618 -4.471894,-30.0960578 L 60.516853,9.5358409 60.041779,9.3924808 C 52.409609,7.108277 43.87893,5.8180364 35.379234,5.6746763 34.780227,5.6651187 34.232859,5.6555621 33.675163,5.6555615 Z"
       style="fill:#ff0000;stroke:#ffffff;stroke-width:1.84341729;stroke-miterlimit:4;stroke-dasharray:none" />
    <path
       id="path1154"
       d="m 33.614853,4.6077955 c 0.591098,0 1.182197,0.01013 1.784241,0.02026 8.932155,0.1519464 17.809578,1.4890758 25.822246,3.8898304 3.787408,9.3599041 4.709928,20.5803481 4.709928,31.5440931 0,10.963745 -1.01009,22.680548 -4.961693,32.151879 -7.881312,2.18803 -16.353723,3.302304 -25.198307,3.302304 -0.536368,0 -1.072735,-0.01013 -1.609102,-0.02026 H 33.97608 C 25.022033,75.343956 16.14461,74.006827 8.1428892,71.595943 4.3664269,62.256298 3.443547,51.035521 3.443547,40.061979 c 0,-10.973542 1.01045,-22.670418 4.9401601,-32.1417498 7.3668369,-2.036083 15.4670749,-3.170617 23.6439369,-3.3023039 0.525421,-0.01013 1.061788,-0.01013 1.587209,-0.01013 m 0,-1.0129766 c -0.536367,0 -1.072734,0 -1.609101,0.01013 C 23.785105,3.7366356 15.509726,4.891429 8.0662653,6.9477716 L 7.5517907,7.0895883 7.3547579,7.5555576 C 3.3812628,17.128188 2.3742062,28.755311 2.3742062,40.061979 c 0,11.306668 0.9194864,22.457692 4.7287876,31.888505 l 0.1860865,0.45584 0.5035283,0.151947 c 8.0673984,2.431144 17.1090154,3.798662 26.1506324,3.950608 h 0.207979 c 0.525421,0.01013 1.061788,0.02026 1.609101,0.02026 8.932155,0 17.514028,-1.124404 25.51575,-3.342823 l 0.514475,-0.141816 0.197032,-0.46597 c 3.984442,-9.55237 5.002445,-21.180489 5.002445,-32.516551 0,-11.336062 -0.919487,-22.457692 -4.739734,-31.8986353 L 62.064202,7.7075041 61.560674,7.5555576 C 53.471382,5.1345434 44.429765,3.7670249 35.420987,3.6150784 c -0.634884,-0.01013 -1.215036,-0.020259 -1.806134,-0.02026 z"
       style="fill:#000000;stroke:#000000;stroke-width:1.95382714;stroke-miterlimit:4;stroke-dasharray:none" />
    <g
       id="g1810">
      <path
         d="M 6.5134911,7.7433673 C 5.6489029,6.8479453 4.058602,6.5681013 3.6272194,7.3820013 3.284151,8.0292783 3.3625296,8.5309135 4.395235,8.9201755 3.2963719,9.5187755 1.4857674,9.4447465 1.1893447,7.4467713 0.95320848,5.8551433 2.674739,4.8863543 3.1399725,5.0916244 3.0034432,3.6818714 1.8221094,4.0692802 0.95849208,3.2813384 0.34259068,2.7194046 0.23126071,-0.02624603 0.0561761,0.04378767 -0.0138576,0.21887227 2.7317937,0.33020157 3.2937267,0.94610377 4.0816685,1.8097211 3.6942598,2.9910547 5.1040128,3.1275841 4.8987425,2.6623507 5.8675315,0.94082017 7.4591593,1.1769564 9.4571345,1.4733791 9.5311625,3.2839847 8.9325635,4.3828467 8.5433008,3.3501417 8.041666,3.2717627 7.3943894,3.6148312 6.5804899,4.0462137 6.8603354,5.6365129 7.7557553,6.5011023"
         style="fill:#000000;stroke:#000000;stroke-width:0.1112323px;stroke-linecap:butt;stroke-linejoin:miter;stroke-opacity:1"
         id="path1737-3" />
      <path
         d="m 62.850738,7.7433673 c 0.864588,-0.895422 2.454889,-1.175266 2.886271,-0.361366 0.343069,0.647277 0.26469,1.148912 -0.768015,1.538174 1.098863,0.5986 2.909467,0.524571 3.20589,-1.473404 0.236136,-1.591628 -1.485394,-2.560417 -1.950628,-2.3551469 0.13653,-1.409753 1.317863,-1.0223442 2.181481,-1.810286 0.615901,-0.5619338 0.727231,-3.30758442 0.902316,-3.23755072 0.07003,0.1750846 -2.675618,0.2864139 -3.237551,0.9023161 C 65.28256,1.8097211 65.669969,2.9910547 64.260216,3.1275841 64.465486,2.6623507 63.496697,0.94082018 61.905069,1.1769564 c -1.997975,0.2964227 -2.072003,2.1070283 -1.473404,3.2058903 0.389263,-1.032705 0.890898,-1.111084 1.538174,-0.7680155 0.8139,0.4313825 0.534054,2.0216817 -0.361366,2.8862711"
         style="fill:#000000;stroke:#000000;stroke-width:0.1112323px;stroke-linecap:butt;stroke-linejoin:miter;stroke-opacity:1"
         id="path1737-3-5" />
      <path
         d="m 62.850738,72.244244 c 0.864588,0.895422 2.454889,1.175266 2.886272,0.361366 0.343068,-0.647277 0.264689,-1.148912 -0.768016,-1.538174 1.098863,-0.5986 2.909468,-0.524571 3.20589,1.473404 0.236137,1.591628 -1.485394,2.560417 -1.950628,2.355147 0.13653,1.409753 1.317864,1.022344 2.181481,1.810286 0.615901,0.561934 0.727231,3.307584 0.902316,3.237551 0.07003,-0.175085 -2.675618,-0.286414 -3.237551,-0.902317 -0.787942,-0.863617 -0.400533,-2.04495 -1.810286,-2.18148 0.20527,0.465234 -0.763519,2.186764 -2.355146,1.950628 -1.997976,-0.296423 -2.072004,-2.107028 -1.473405,-3.20589 0.389263,1.032705 0.890898,1.111084 1.538175,0.768015 0.813899,-0.431382 0.534054,-2.021682 -0.361366,-2.886271"
         style="fill:#000000;stroke:#000000;stroke-width:0.1112323px;stroke-linecap:butt;stroke-linejoin:miter;stroke-opacity:1"
         id="path1737-3-7" />
      <path
         d="M 6.513491,72.244245 C 5.648903,73.139667 4.058602,73.419511 3.62722,72.605611 3.284151,71.958334 3.36253,71.456699 4.395235,71.067437 c -1.098863,-0.5986 -2.909467,-0.524571 -3.20589,1.473404 -0.23613599,1.591628 1.485394,2.560417 1.950628,2.355147 -0.13653,1.409753 -1.317863,1.022344 -2.18148099,1.810286 -0.615901,0.561933 -0.727231,3.307584 -0.902316,3.23755 C -0.01385399,79.76874 2.731794,79.65741 3.293727,79.041508 4.081669,78.177891 3.69426,76.996557 5.104013,76.860028 4.898743,77.325261 5.867532,79.046792 7.45916,78.810656 9.457135,78.514233 9.531163,76.703627 8.932564,75.604765 8.543301,76.63747 8.041666,76.715849 7.39439,76.372781 6.58049,75.941398 6.860336,74.351099 7.755756,73.48651"
         style="fill:#000000;stroke:#000000;stroke-width:0.1112323px;stroke-linecap:butt;stroke-linejoin:miter;stroke-opacity:1"
         id="path1737-3-5-5" />
    </g>
    <path
       id="path1154-9"
       d="m 33.712865,7.4258691 c 0.536813,0 1.07363,0.00933 1.620386,0.01865 8.111875,0.1398689 16.174044,1.3707167 23.450873,3.5806479 3.439594,8.615932 4.277395,18.944521 4.277395,29.036812 0,10.092292 -0.917329,20.877786 -4.506039,29.596289 -7.157536,2.014114 -14.851888,3.03982 -22.884234,3.03982 -0.487111,0 -0.974221,-0.0094 -1.461331,-0.01865 H 34.040918 C 25.909161,72.53957 17.846991,71.308722 10.580105,69.089467 7.1504515,60.492184 6.3123238,50.163289 6.3123238,40.061979 c 0,-10.101311 0.9176558,-20.868461 4.4864832,-29.586965 6.690308,-1.8742449 14.046665,-2.9186005 21.472608,-3.0398203 0.47717,-0.00933 0.964281,-0.00933 1.44145,-0.00933 m 0,-0.9324602 c -0.487111,0 -0.974221,0 -1.46133,0.00933 C 24.785826,6.6239532 17.270413,7.686958 10.510517,9.5798526 L 10.043289,9.710397 9.8643508,10.139328 c -3.6085914,8.811751 -4.5231655,19.514693 -4.5231655,29.922651 0,10.407958 0.8350459,20.672644 4.294522,29.353849 l 0.1689973,0.419608 0.4572874,0.13987 c 7.326533,2.237904 15.537818,3.496724 23.749103,3.636593 h 0.188879 c 0.47717,0.0094 0.96428,0.01865 1.461331,0.01865 8.111875,0 15.905636,-1.035031 23.172525,-3.077119 l 0.467228,-0.130544 0.178938,-0.428932 c 3.618533,-8.793101 4.543048,-19.496959 4.543048,-29.931975 0,-10.435016 -0.835047,-20.672644 -4.304463,-29.363174 l -0.168997,-0.419609 -0.457288,-0.13987 C 51.74588,7.9107484 43.534594,6.6519271 35.353133,6.512058 34.776554,6.502738 34.249678,6.493409 33.712865,6.493409 Z"
       style="fill:#000000;stroke:none;stroke-width:1.78642213;stroke-miterlimit:4;stroke-dasharray:none" />
    <path
       id="path1154-9-3"
       d="m 33.712865,7.4258686 c 0.536813,0 1.07363,0.00933 1.620386,0.01865 8.111875,0.1398689 16.174044,1.3707167 23.450873,3.5806484 3.439594,8.615932 4.277395,18.944521 4.277395,29.036812 0,10.092292 -0.917329,20.877786 -4.506039,29.596288 -7.157536,2.014114 -14.851888,3.03982 -22.884234,3.03982 -0.487111,0 -0.974221,-0.0094 -1.461331,-0.01865 H 34.040918 C 25.909161,72.539569 17.846991,71.308722 10.580105,69.089466 7.1504515,60.492184 6.3123238,50.163288 6.3123238,40.061979 c 0,-10.101312 0.9176558,-20.868461 4.4864832,-29.586965 6.690308,-1.8742454 14.046665,-2.918601 21.472608,-3.0398208 0.47717,-0.00933 0.964281,-0.00933 1.44145,-0.00933 m 0,-0.9324602 c -0.487111,0 -0.974221,0 -1.46133,0.00933 C 24.785826,6.6239527 17.270413,7.6869575 10.510517,9.5798521 L 10.043289,9.7103965 9.8643508,10.139328 C 6.2557594,18.951079 5.3411853,29.65402 5.3411853,40.061979 c 0,10.407958 0.8350459,20.672643 4.294522,29.353849 l 0.1689973,0.419608 0.4572874,0.13987 c 7.326533,2.237904 15.537818,3.496724 23.749103,3.636593 h 0.188879 c 0.47717,0.0094 0.96428,0.01865 1.461331,0.01865 8.111875,0 15.905636,-1.035032 23.172525,-3.077119 l 0.467228,-0.130544 0.178938,-0.428932 c 3.618533,-8.793101 4.543048,-19.49696 4.543048,-29.931975 0,-10.435016 -0.835047,-20.672644 -4.304463,-29.363175 l -0.168997,-0.419609 -0.457288,-0.13987 C 51.74588,7.9107479 43.534594,6.6519266 35.353133,6.5120575 34.776554,6.5027375 34.249678,6.4934085 33.712865,6.4934085 Z"
       style="fill:#000000;stroke:none;stroke-width:1.78642213;stroke-miterlimit:4;stroke-dasharray:none" />
  </g>
</svg>
