<svg id="Capa_2" xmlns="http://www.w3.org/2000/svg" xmlns:xlink="http://www.w3.org/1999/xlink" viewBox="0 0 69.02 80">
<defs >
<style >
.cls-1{fill:#c89aed;}.cls-2{fill:#fff;}.cls-3{fill:#f8ffbf;}.cls-4{fill:#7b7be8;}.cls-5{fill:#a88347;}.cls-6{fill:#782ab5;}.cls-7,.cls-8{stroke-miterlimit:10;}.cls-7,.cls-8,.cls-9{stroke:#000;}.cls-7,.cls-8,.cls-9,.cls-10,.cls-11,.cls-12{fill:none;}.cls-8,.cls-9,.cls-10{stroke-linecap:round;}.cls-13{fill:#1c46ff;}.cls-9,.cls-10{stroke-linejoin:round;}.cls-10{stroke:#deb778;stroke-dasharray:0 0 0 4.06;}.cls-14{fill:url(#USGS_19_Inundación_de_tierra);}.cls-15{fill:#e6c0f2;}.cls-16{fill:#deb778;}.cls-17{fill:#ffc16b;}.cls-18{fill:#fefffc;}.cls-12{stroke:#1d1d1b;stroke-dasharray:0 0 2 2;stroke-width:.3px;}.cls-19{fill:#fcf0ff;}.cls-20{fill:#fcf0c5;}.cls-21{fill:#b83521;}
</style>
<pattern id="USGS_19_Inundación_de_tierra" x="0" y="0" width="72" height="72" patternTransform="translate(-20.48 -15991) rotate(-90)" patternUnits="userSpaceOnUse" viewBox="0 0 72 72">
<g >
<rect class="cls-11" width="72" height="72">
</rect>
<g >
<line class="cls-12" x1="71" y1="71" x2="144.44" y2="71">
</line>
<line class="cls-12" x1="71" y1="67" x2="144.44" y2="67">
</line>
<line class="cls-12" x1="71" y1="63" x2="144.44" y2="63">
</line>
<line class="cls-12" x1="71" y1="59" x2="144.44" y2="59">
</line>
<line class="cls-12" x1="71" y1="55" x2="144.44" y2="55">
</line>
<line class="cls-12" x1="71" y1="51" x2="144.44" y2="51">
</line>
<line class="cls-12" x1="71" y1="47" x2="144.44" y2="47">
</line>
<line class="cls-12" x1="71" y1="43" x2="144.44" y2="43">
</line>
<line class="cls-12" x1="71" y1="39" x2="144.44" y2="39">
</line>
<line class="cls-12" x1="71" y1="35" x2="144.44" y2="35">
</line>
<line class="cls-12" x1="71" y1="31" x2="144.44" y2="31">
</line>
<line class="cls-12" x1="71" y1="27" x2="144.44" y2="27">
</line>
<line class="cls-12" x1="71" y1="23" x2="144.44" y2="23">
</line>
<line class="cls-12" x1="71" y1="19" x2="144.44" y2="19">
</line>
<line class="cls-12" x1="71" y1="15" x2="144.44" y2="15">
</line>
<line class="cls-12" x1="71" y1="11" x2="144.44" y2="11">
</line>
<line class="cls-12" x1="71" y1="7" x2="144.44" y2="7">
</line>
<line class="cls-12" x1="71" y1="3" x2="144.44" y2="3">
</line>
</g>
<g >
<line class="cls-12" x1="-1" y1="71" x2="72.44" y2="71">
</line>
<line class="cls-12" x1="-1" y1="67" x2="72.44" y2="67">
</line>
<line class="cls-12" x1="-1" y1="63" x2="72.44" y2="63">
</line>
<line class="cls-12" x1="-1" y1="59" x2="72.44" y2="59">
</line>
<line class="cls-12" x1="-1" y1="55" x2="72.44" y2="55">
</line>
<line class="cls-12" x1="-1" y1="51" x2="72.44" y2="51">
</line>
<line class="cls-12" x1="-1" y1="47" x2="72.44" y2="47">
</line>
<line class="cls-12" x1="-1" y1="43" x2="72.44" y2="43">
</line>
<line class="cls-12" x1="-1" y1="39" x2="72.44" y2="39">
</line>
<line class="cls-12" x1="-1" y1="35" x2="72.44" y2="35">
</line>
<line class="cls-12" x1="-1" y1="31" x2="72.44" y2="31">
</line>
<line class="cls-12" x1="-1" y1="27" x2="72.44" y2="27">
</line>
<line class="cls-12" x1="-1" y1="23" x2="72.44" y2="23">
</line>
<line class="cls-12" x1="-1" y1="19" x2="72.44" y2="19">
</line>
<line class="cls-12" x1="-1" y1="15" x2="72.44" y2="15">
</line>
<line class="cls-12" x1="-1" y1="11" x2="72.44" y2="11">
</line>
<line class="cls-12" x1="-1" y1="7" x2="72.44" y2="7">
</line>
<line class="cls-12" x1="-1" y1="3" x2="72.44" y2="3">
</line>
<line class="cls-12" x1="1.04" y1="69" x2="74.48" y2="69">
</line>
<line class="cls-12" x1="1.04" y1="65" x2="74.48" y2="65">
</line>
<line class="cls-12" x1="1.04" y1="61" x2="74.48" y2="61">
</line>
<line class="cls-12" x1="1.04" y1="57" x2="74.48" y2="57">
</line>
<line class="cls-12" x1="1.04" y1="53" x2="74.48" y2="53">
</line>
<line class="cls-12" x1="1.04" y1="49" x2="74.48" y2="49">
</line>
<line class="cls-12" x1="1.04" y1="45" x2="74.48" y2="45">
</line>
<line class="cls-12" x1="1.04" y1="41" x2="74.48" y2="41">
</line>
<line class="cls-12" x1="1.04" y1="37" x2="74.48" y2="37">
</line>
<line class="cls-12" x1="1.04" y1="33" x2="74.48" y2="33">
</line>
<line class="cls-12" x1="1.04" y1="29" x2="74.48" y2="29">
</line>
<line class="cls-12" x1="1.04" y1="25" x2="74.48" y2="25">
</line>
<line class="cls-12" x1="1.04" y1="21" x2="74.48" y2="21">
</line>
<line class="cls-12" x1="1.04" y1="17" x2="74.48" y2="17">
</line>
<line class="cls-12" x1="1.04" y1="13" x2="74.48" y2="13">
</line>
<line class="cls-12" x1="1.04" y1="9" x2="74.48" y2="9">
</line>
<line class="cls-12" x1="1.04" y1="5" x2="74.48" y2="5">
</line>
<line class="cls-12" x1="1.04" y1="1" x2="74.48" y2="1">
</line>
</g>
<g >
<line class="cls-12" x1="-73" y1="71" x2=".44" y2="71">
</line>
<line class="cls-12" x1="-73" y1="67" x2=".44" y2="67">
</line>
<line class="cls-12" x1="-73" y1="63" x2=".44" y2="63">
</line>
<line class="cls-12" x1="-73" y1="59" x2=".44" y2="59">
</line>
<line class="cls-12" x1="-73" y1="55" x2=".44" y2="55">
</line>
<line class="cls-12" x1="-73" y1="51" x2=".44" y2="51">
</line>
<line class="cls-12" x1="-73" y1="47" x2=".44" y2="47">
</line>
<line class="cls-12" x1="-73" y1="43" x2=".44" y2="43">
</line>
<line class="cls-12" x1="-73" y1="39" x2=".44" y2="39">
</line>
<line class="cls-12" x1="-73" y1="35" x2=".44" y2="35">
</line>
<line class="cls-12" x1="-73" y1="31" x2=".44" y2="31">
</line>
<line class="cls-12" x1="-73" y1="27" x2=".44" y2="27">
</line>
<line class="cls-12" x1="-73" y1="23" x2=".44" y2="23">
</line>
<line class="cls-12" x1="-73" y1="19" x2=".44" y2="19">
</line>
<line class="cls-12" x1="-73" y1="15" x2=".44" y2="15">
</line>
<line class="cls-12" x1="-73" y1="11" x2=".44" y2="11">
</line>
<line class="cls-12" x1="-73" y1="7" x2=".44" y2="7">
</line>
<line class="cls-12" x1="-73" y1="3" x2=".44" y2="3">
</line>
<line class="cls-12" x1="-70.96" y1="69" x2="2.48" y2="69">
</line>
<line class="cls-12" x1="-70.96" y1="65" x2="2.48" y2="65">
</line>
<line class="cls-12" x1="-70.96" y1="61" x2="2.48" y2="61">
</line>
<line class="cls-12" x1="-70.96" y1="57" x2="2.48" y2="57">
</line>
<line class="cls-12" x1="-70.96" y1="53" x2="2.48" y2="53">
</line>
<line class="cls-12" x1="-70.96" y1="49" x2="2.48" y2="49">
</line>
<line class="cls-12" x1="-70.96" y1="45" x2="2.48" y2="45">
</line>
<line class="cls-12" x1="-70.96" y1="41" x2="2.48" y2="41">
</line>
<line class="cls-12" x1="-70.96" y1="37" x2="2.48" y2="37">
</line>
<line class="cls-12" x1="-70.96" y1="33" x2="2.48" y2="33">
</line>
<line class="cls-12" x1="-70.96" y1="29" x2="2.48" y2="29">
</line>
<line class="cls-12" x1="-70.96" y1="25" x2="2.48" y2="25">
</line>
<line class="cls-12" x1="-70.96" y1="21" x2="2.48" y2="21">
</line>
<line class="cls-12" x1="-70.96" y1="17" x2="2.48" y2="17">
</line>
<line class="cls-12" x1="-70.96" y1="13" x2="2.48" y2="13">
</line>
<line class="cls-12" x1="-70.96" y1="9" x2="2.48" y2="9">
</line>
<line class="cls-12" x1="-70.96" y1="5" x2="2.48" y2="5">
</line>
<line class="cls-12" x1="-70.96" y1="1" x2="2.48" y2="1">
</line>
</g>
</g>
</pattern>
</defs>

<g id="Characters">
<path class="cls-1" d="M59.56,64.08l-2.26,6.64c-2.28,.57-11.92,2.82-23.3,2.82-8.54,0-16.11-1.24-22.51-3.69l-1.75-5.83,4.7-1.61,.34-.12,.18-.31,1.55-2.52,2.49-.79,2.33,1.07,.37,.17,.38-.14,1.5-.52,.46-.16,.16-.46,.92-2.76,.23-.68-.58-.44-.23-.18c-.17-.12-.34-.25-.5-.38-1.29-1.74-1.91-3.73-2.56-5.84l-.2-.64c-.1-.39-.2-.77-.31-1.16-.29-1.08-.57-2.11-.74-3.16l-.19-1.16-1.12,.37c-.17,.06-.35,.09-.51,.09-.51,0-1.01-.24-1.34-.64-1.06-1.27-2.52-3.09-3.43-4.59-1.19-1.94-.66-6.68,1.73-10.42,.25,.34,.5,.74,.73,1.16l.04,.06h.01s.03,.08,.03,.08h.02s2.04,3.08,2.04,3.08l-.21-3.68c-.21-3.71-.01-6.45,.6-8.14,1.97-5.48,7.51-8.62,15.21-8.62h1.11c7.7,0,13.24,3.14,15.21,8.62,.37,1.03,.59,2.47,.65,4.27,.05,1.12,.03,2.42-.06,3.97l-.26,4.44,2.14-3.9c.28-.51,.56-.96,.84-1.34,2.39,3.75,2.91,8.48,1.72,10.42-.9,1.5-2.36,3.32-3.42,4.59-.34,.41-.83,.64-1.35,.64-.17,0-.33-.02-.5-.08l-1.09-.33-.19,1.13c-.14,.88-.38,1.75-.64,2.67-.15,.54-.3,1.1-.44,1.66l-.19,.61c-.65,2.12-1.27,4.13-2.57,5.89-.14,.12-.29,.23-.43,.34l-.16,.12-.55,.44,.22,.67,.94,2.82,.16,.46,.46,.17,1.62,.56,.38,.13,.37-.17,2.42-1.11,2.48,.79,1.5,2.44,.03,.06,.18,.36,.39,.14,4.75,1.62Z">
</path>
<path class="cls-2" d="M33.96,58.58V17.1l8.77-1.8,4.61,2.59,3.16,14.4-1.25,10.67-3.71,11.13s-5.62,4.72-11.58,4.5Z">
</path>
<path class="cls-1" d="M26.59,18.15l3.5,.83c1.52,.37,3.09,.55,4.67,.55s3.15-.19,4.67-.55l3.51-.83c.91,.48,1.76,.99,2.46,1.49,1.26,2.59,2.41,8.95,3.04,13.8,0,.03,0,.05,0,.07,.02,.16,.05,.32,.1,.47-.14,.92-.26,1.61-.32,1.93-.02,.12-.04,.21-.05,.28-.1,.64,.04,1.28,.41,1.82,.15,.22,.33,.4,.53,.56l-.68,1.04c-.91,1.39-1.33,2.82-1.62,4.03-.12,.41-.23,.83-.34,1.26-.75,2.77-1.52,5.62-3.01,7.75-2.67,2.19-5.84,3.45-8.72,3.45-1.52,0-2.97-.35-4.3-1.03l-.08-.04-.08-.03c-1.3-.53-3.07-1.59-4.11-2.36-1.36-1.91-2.01-4.29-2.69-6.8-.55-2-1.11-4.08-2.07-6.03l-.67-1.36c.15-.13,.29-.28,.4-.45,.37-.53,.51-1.18,.41-1.82-.01-.07-.03-.17-.05-.29-.07-.43-.24-1.4-.42-2.67,.25-2.14,1.48-10.42,3.02-13.59,.71-.5,1.56-1.01,2.47-1.49m27.29,13.73c.54,2.02,.53,3.83,.09,4.53-.47,.77-1.17,1.75-2.08,2.91l-.1-.51c.66-.33,1.15-.95,1.31-1.72v-.03s.01-.03,.01-.03v-.07c.31-1.62,.57-3.39,.77-5.07m-37.99,.12c.15,1.31,.39,3,.73,4.9l.03,.15c.14,.74,.59,1.34,1.19,1.7l-.05,.42c-.86-1.1-1.52-2.03-1.97-2.76-.43-.69-.44-2.43,.07-4.41m27.3-15.96l-4.22,1c-1.38,.33-2.79,.5-4.2,.5s-2.83-.17-4.2-.5l-4.22-1c-.51,.25-2.24,1.11-3.77,2.26-2.1,3.67-3.46,14.68-3.47,14.79-.01,.03-.02,.06-.03,.09,.27,1.94,.52,3.28,.52,3.32,.05,.27-.12,.53-.4,.58-.04,0-.07,.01-.1,.01-.23,0-.43-.17-.48-.4-.04-.24-.54-2.88-.87-6.16-.3-.7-1.04-2.33-1.88-3.49-2.17,3.43-3.03,8.33-1.74,10.42,.96,1.58,2.56,3.55,3.42,4.59,.36,.42,.86,.64,1.36,.64,.25,0,.49-.05,.71-.16-.05-.6-.05-1.2,.02-1.82,2.11,4.27,2.21,9.51,5.12,13.36,1.07,.83,3.17,2.13,4.79,2.79,1.7,.87,3.47,1.25,5.21,1.25,3.77,0,7.45-1.75,10.2-4.08,2.05-2.8,2.88-6.55,3.81-9.88,.28-1.18,.64-2.34,1.36-3.44,.12,.62,.14,1.23,.1,1.83,.22,.1,.46,.15,.69,.15,.5,0,1-.22,1.35-.64,1.05-1.27,2.51-3.1,3.42-4.59,1.29-2.09,.43-6.99-1.74-10.42-.92,1.27-1.71,3.08-1.94,3.65-.34,3.21-.82,5.77-.86,6-.05,.24-.25,.4-.49,.4-.03,0-.06,0-.09-.01-.28-.05-.45-.31-.4-.58,0-.04,.22-1.18,.46-2.89-.1-.08-.18-.2-.19-.33-.02-.12-1.38-11.31-3.48-14.98-1.52-1.15-3.25-2.01-3.76-2.26h0Z">
</path>
<path class="cls-19" d="M54.42,28.43c2.7,4.07,1.88,10.13-2.19,13,0,0-.07-.07-.07-.07,1.4-1.78,2.26-3.98,2.81-6.16,.51-2.7-.3-4.66-.54-6.77h0Z">
</path>
<path d="M23.95,58.57l-15.3,5.25,2.16,7.16s11.45,3.88,24.3,3.63c13.9-.27,22.94-2.86,22.94-2.86l2.62-7.82-15.58-5.36H23.95Z">
</path>
<path class="cls-1" d="M28.27,26.27s3.26-1.44,6.08-1.44,6.35,1.44,6.35,1.44c0,0-5.12,.91-12.43,0Z">
</path>
<path class="cls-3" d="M30.5,36.65s-3.91-2.1-7.88,.58c2.98,1.75,7.71,1.69,7.88-.58Z">
</path>
<path class="cls-3" d="M38.23,36.65s3.91-2.1,7.88,.58c-2.98,1.75-7.71,1.69-7.88-.58Z">
</path>
<path d="M51.81,23.82l-.23,1.82-.79,8.14-3.59-15.5s-.7-.7-4.46-2.63c-7.8,3.07-16.91-.17-16.91-.17l-4.2,2.45-3.51,13.14-1.14-3.35s.03,.05,.05,.08c-.18-3.14-.11-6.41,.66-8.54,2.12-5.9,8.01-9.28,16.15-9.28h1.11c8.14,0,14.03,3.38,16.15,9.28,.44,1.23,.65,2.82,.71,4.56Z">
</path>
<path class="cls-1" d="M45.38,44.42s-1.05,2.98-3.04,5.08c.41-2.28,.7-3.45,.7-3.45,0,0,1.46-.41,2.34-1.64Z">
</path>
<polygon class="cls-13" points="17.69 20.98 20.11 22.02 19.35 26.44 17.27 25.13 17.69 20.98">
</polygon>
<polygon class="cls-13" points="50.93 20.98 48.51 22.02 49.27 26.44 51.34 25.13 50.93 20.98">
</polygon>
<path class="cls-18" d="M24.77,55.39s-1.16,3.06-.66,3.8,.99,2.23,3.39,1.32c1.24,3.22,4.21,2.48,4.87,1.73,2.31,1.98,4.95-.08,4.95-.08,0,0,2.23,1.73,4.21-1.32,2.89,.58,4.46-1.4,2.89-5.37-3.96,2.06-6.11,3.3-10.16,3.47s-9.5-3.55-9.5-3.55Z">
</path>
<polygon class="cls-21" points="21.28 59.59 18.98 58.14 16.18 59.03 15.06 61.83 21.28 59.59">
</polygon>
<polygon class="cls-21" points="34.26 72.63 36.68 71.02 36.68 67.55 34.26 65.43 31.85 67.55 31.85 71.02 34.26 72.63">
</polygon>
<polygon class="cls-21" points="25.67 71.14 28.44 70.28 29.4 66.95 27.68 64.24 24.77 65.6 23.8 68.93 25.67 71.14">
</polygon>
<polygon class="cls-21" points="17.4 66.15 20.09 67.23 22.95 65.28 23.34 62.09 20.22 61.3 17.36 63.25 17.4 66.15">
</polygon>
<polygon class="cls-21" points="44.73 68.93 43.76 65.6 40.85 64.24 39.13 66.95 40.09 70.28 42.86 71.14 44.73 68.93">
</polygon>
<polygon class="cls-21" points="51.17 63.25 48.31 61.3 45.19 62.09 45.58 65.28 48.44 67.23 51.13 66.15 51.17 63.25">
</polygon>
<polygon class="cls-21" points="48.08 59.26 50.43 58.22 53.05 59 54.49 61.82 48.08 59.26">
</polygon>
<polygon points="33.2 58.94 28.72 62.35 23.59 59.65 24.77 55.39 33.2 58.94">
</polygon>
<path d="M15.34,26.2l2.85,4.69,2.2,13.09s-2.01,.31-5-3.33c-2.99-3.56-3.24-6.47-2.59-8.82s2.54-5.63,2.54-5.63Z">
</path>
<polygon class="cls-1" points="38.22 41.6 36.75 45.41 32.94 46.37 33.67 43.51 35.1 43.51 35.93 42.42 36.66 42.9 38.22 41.6">
</polygon>
<polygon class="cls-17" points="34.33 65.92 34.33 72.27 36.44 71.15 36.44 67.39 34.33 65.92">
</polygon>
<polygon class="cls-17" points="27.43 64.8 25.68 70.91 28.02 70.42 29.06 66.8 27.43 64.8">
</polygon>
<polygon class="cls-17" points="23.02 62.29 17.56 65.53 19.6 66.78 22.84 64.86 23.02 62.29">
</polygon>
<polygon class="cls-17" points="40.83 64.65 42.76 70.71 44.44 69 43.3 65.41 40.83 64.65">
</polygon>
<polygon class="cls-17" points="45.53 62.42 50.69 66.12 51.02 63.75 47.96 61.56 45.53 62.42">
</polygon>
<polygon class="cls-4" points="47.79 32.23 46.36 37.3 43.03 35.9 38.21 36.45 36.16 34.29 43.87 31.35 47.79 32.23">
</polygon>
<polygon class="cls-4" points="20.67 32.23 22.1 37.3 25.43 35.9 30.25 36.45 32.3 34.29 24.59 31.35 20.67 32.23">
</polygon>
<polygon class="cls-17" points="49.45 59.94 50.58 59.33 52.24 59.86 52.6 61.07 54.3 61.56 52.92 59.21 50.17 58.36 47.83 59.33 49.45 59.94">
</polygon>
<polygon class="cls-17" points="19.6 59.77 18.81 59.29 16.97 59.83 16.45 61.1 14.91 61.53 16.3 59.2 19.08 58.26 21.32 59.26 19.6 59.77">
</polygon>
<path class="cls-2" d="M23.62,41.23l4.95,.47-2.17,2.78s-2.3-.88-2.78-3.25Z">
</path>
<path class="cls-7" d="M17.87,30.7s-1.18-3-2.53-4.5c-2.53,3.55-3.63,9.08-2.13,11.52,.95,1.56,2.48,3.46,3.47,4.65,.74,.88,2.05,1.11,2.97,.43,0,0,.02-.01,.03-.02">
</path>
<path class="cls-7" d="M50.97,30.7s1.18-3,2.53-4.5c2.53,3.55,3.63,9.08,2.13,11.52-.95,1.56-2.48,3.46-3.47,4.65-.74,.88-2.05,1.11-2.97,.43,0,0-.02-.01-.03-.02">
</path>
<path d="M49.64,40.71c.46,2.55-.54,4.87-1.12,7.29-.76,2.44-1.4,4.82-3,6.93-3.11,2.66-6.94,4.62-11.12,4.68-4.19-.22-7.88-2.16-11.1-4.72-1.59-2.1-2.23-4.49-2.99-6.91-.62-2.39-1.45-4.74-1.17-7.27,2.11,4.26,2.21,9.5,5.12,13.35,1.07,.83,3.17,2.13,4.79,2.79,5.37,2.75,11.39,.57,15.41-2.84,2.06-2.8,2.88-6.54,3.81-9.88,.28-1.18,.64-2.33,1.36-3.43h0Z">
</path>
<path class="cls-9" d="M50.17,36.59s2.29-12.07,.46-17.17-7.06-8.94-15.68-8.94h-1.1c-8.62,0-13.85,3.84-15.68,8.94s.46,17.17,.46,17.17">
</path>
<path class="cls-9" d="M50.44,33.22s-1.39-11.53-3.59-15.25c-1.88-1.45-4.09-2.45-4.09-2.45l-4.39,1.05c-2.69,.64-5.48,.64-8.17,0l-4.39-1.05s-2.2,1-4.1,2.45c-2.2,3.72-3.59,15.06-3.59,15.06">
</path>
<polyline class="cls-9" points="60.2 63.77 45.37 58.7 44.24 55.31">
</polyline>
<polyline class="cls-9" points="24.78 55.31 23.65 58.7 8.82 63.81">
</polyline>
<path d="M27.86,26.24c4.36,.38,8.72,.51,13.06,0-3.99,1.19-9.09,1.06-13.06,0h0Z">
</path>
<path d="M21.96,41.89c.77,1.63,2.07,3.02,3.77,3.66,.54,1.28,.82,2.65,1.02,4.02,.09,1.26,.28,2.82-.02,3.93-.11-2.58-.49-5.18-1.36-7.61-1.49-.54-3.16-2.43-3.39-4h0Z">
</path>
<path d="M46.45,41.9c-.26,1.89-1.57,3.6-3.32,4.36,0,0,.23-.24,.23-.24-.82,2.42-1.25,4.95-1.72,7.48,0,.03-.05,.03-.05,0,.1-2.59,.43-5.21,1.34-7.66,1.74-.64,2.94-2.4,3.52-3.93h0Z">
</path>
<path d="M30.06,36.44c-2.51-.57-5.19-.52-7.34,1,0,0-.02-.49-.02-.49,2.14,1.19,4.99,2.1,7.13,.48,.13-.1,.31-.08,.41,.05,.08,.11,.08,.26,0,.36-.85,1.02-1.6,2.17-2.86,2.74-.03,0-.07,0-.1,0,0,0-3.97-.94-3.97-.94-.07,0,4.42,.48,3.96,.45,.99-.55,1.79-1.68,2.49-2.61,0,0,.42,.41,.42,.41-2.31,1.81-5.51,.9-7.78-.46-.19-.1-.19-.38,0-.49,2.21-1.45,5.33-1.93,7.67-.52h0Z">
</path>
<path d="M38.59,36.44c2.33-1.42,5.45-.93,7.67,.52,.13,.08,.17,.26,.09,.39-2.23,1.47-5.55,2.36-7.88,.55,0,0,.42-.41,.42-.41,.7,.92,1.51,2.05,2.49,2.61-.48,.02,4.07-.46,3.96-.45,0,0-3.97,.94-3.97,.94-.03,0-.06,0-.1,0-1.26-.58-2.01-1.72-2.86-2.74-.21-.26,.15-.62,.42-.41,2.13,1.62,4.98,.71,7.13-.48,0,0-.02,.49-.02,.49-2.15-1.51-4.83-1.57-7.34-1h0Z">
</path>
<path d="M20.62,32.23c1.33-.71,2.8-1.33,4.34-1.38,1.32,.27,2.62,.68,3.94,.96,1.25,.29,2.51,.57,3.74,.79l-.37,1.71c-2.22-.64-5.83-1.71-7.24-2.37-1.45,.16-2.93,.1-4.4,.29h0Z">
</path>
<path d="M47.79,32.23c-1.47-.19-2.95-.13-4.4-.29-1.42,.66-5.01,1.73-7.24,2.37,0,0-.37-1.71-.37-1.71,1.23-.22,2.5-.5,3.74-.79,1.32-.28,2.62-.69,3.94-.96,1.53,.05,3,.67,4.34,1.38h0Z">
</path>
<path d="M36.48,40.59c.7,.26,1.37,.57,2.05,.88,0,0-.2,.27-.2,.27-.5,.68-1.03,1.34-1.56,2-.21-.17-.97-.77-1.2-.95,0,0,.63-.03,.63-.03-.37,.42-.76,.82-1.13,1.22-.57,.01-1.15,.02-1.72,0-.38-.41-.77-.8-1.13-1.22,0,0,.63,.03,.63,.03-.23,.19-.98,.77-1.2,.95-.53-.66-1.06-1.32-1.56-2,0,0-.2-.27-.2-.27,.68-.31,1.35-.62,2.05-.88-.49,.43-1.01,.81-1.53,1.2l.06-.39c.53,.48,1.04,.98,1.55,1.48l-.58-.04c.22-.2,.89-.84,1.1-1.03,.47,.43,.93,.9,1.37,1.35,0,0-.35-.15-.35-.15,.43,0,.85,0,1.28,0l-.35,.15c.44-.45,.9-.92,1.37-1.35,.21,.19,.89,.84,1.1,1.03,0,0-.58,.04-.58,.04,.51-.5,1.02-.99,1.55-1.48,0,0,.06,.39,.06,.39-.52-.39-1.04-.77-1.53-1.2h0Z">
</path>
<path d="M40.21,49.26c-1.28-.12-2.51-.39-3.74-.68h.19c-.82,.19-1.64,.33-2.46,.48-.82-.14-1.64-.28-2.46-.46,0,0,.19-.01,.19-.01-1.23,.29-2.46,.56-3.74,.68,1.15-.62,2.35-1.09,3.56-1.54,.85,.08,1.69,.21,2.53,.33,0,0-.16,0-.16,0,.84-.12,1.68-.25,2.53-.33,1.21,.45,2.4,.92,3.56,1.54h0Z">
</path>
<path d="M30.49,49.77c2.45,.86,5.3,.44,7.67,.1-2.06,1.44-5.86,1.71-7.67-.1h0Z">
</path>
<polyline class="cls-8" points="21.66 59.34 19.03 58.13 16.18 59.04 14.54 61.72">
</polyline>
<polyline class="cls-8" points="47.56 59.34 50.19 58.13 53.04 59.04 54.68 61.72">
</polyline>
<polygon class="cls-9" points="34.26 72.63 36.68 71.02 36.68 67.55 34.26 65.43 31.85 67.55 31.85 71.02 34.26 72.63">
</polygon>
<polygon class="cls-9" points="25.67 71.14 28.44 70.28 29.4 66.95 27.68 64.24 24.77 65.6 23.8 68.93 25.67 71.14">
</polygon>
<polygon class="cls-9" points="17.4 66.15 20.09 67.23 22.95 65.28 23.34 62.09 20.22 61.3 17.36 63.25 17.4 66.15">
</polygon>
<polygon class="cls-9" points="44.73 68.93 43.76 65.6 40.85 64.24 39.13 66.95 40.09 70.28 42.86 71.14 44.73 68.93">
</polygon>
<polygon class="cls-9" points="51.17 63.25 48.31 61.3 45.19 62.09 45.58 65.28 48.44 67.23 51.13 66.15 51.17 63.25">
</polygon>
<path class="cls-9" d="M45.06,57.77c.04,.19,.06,.38,.06,.55,0,.8-.36,1.58-1.05,2.09-.47,.36-1.03,.52-1.57,.52-.41,0-.82-.09-1.19-.28-.15,.94-.82,1.77-1.8,2.07-.26,.08-.52,.13-.79,.13-.7,0-1.37-.29-1.86-.79-.43,.84-1.31,1.41-2.31,1.41s-1.9-.57-2.32-1.4c-.67,.67-1.68,.96-2.65,.66s-1.65-1.13-1.81-2.07c-.37,.19-.79,.29-1.19,.29-.54,0-1.09-.18-1.56-.52-.69-.52-1.06-1.3-1.06-2.09,0-.19,.02-.38,.06-.55">
</path>
<path class="cls-4" d="M15.5,62.82c-1.57,1.22-3.4,2.03-5.26,2.7-.1,.12-.38-.07-.68-.77,.81-.4,2.08-.72,2.94-1.04,0,0,2.96-.99,2.96-.99l.03,.09h0Z">
</path>
<path class="cls-4" d="M25.76,56.82c.5,1.25,.09,2.59-.73,3.58-.62,.1-1.2,.06-1.82-.21,0,0-.03-.09-.03-.09l1.4-.51c.11-.67,.78-1.93,1.09-2.8,0,0,.09,.04,.09,.04h0Z">
</path>
<path class="cls-15" d="M14.47,28.92c-.22,2.18-.71,4.47-.15,6.51,.62,2.16,1.62,4.07,2.91,5.97,0,0-.06,.08-.06,.08-2.65-2.19-4.65-5.78-3.85-9.27,.23-1.15,.58-2.27,1.06-3.33l.09,.04h0Z">
</path>
<path class="cls-11" d="M64.02,40c0,11.47-1.89,22.39-5.5,31.74-7.2,2.16-14.94,3.26-23.02,3.26-.49,0-.98-.01-1.47-.02h-.17c-8.18-.15-16.29-1.47-23.6-3.85-3.45-9.22-5.26-19.93-5.26-31.13s1.89-22.38,5.48-31.73c6.73-2.01,14.13-3.13,21.6-3.26,.48-.01,.97-.01,1.45-.01,.54,0,1.08,.01,1.63,.02,8.16,.15,16.27,1.47,23.59,3.84,3.46,9.24,5.27,19.95,5.27,31.14Z">
</path>
</g>
 <g
     id="g2850">
    <g
       id="g2837">
      <path
         id="path1951"
         d="M 0.056640625 0.04296875 L 0.056640625 79.943359 L 69.308594 79.943359 L 69.308594 0.04296875 L 0.056640625 0.04296875 z M 33.615234 3.5957031 C 34.206332 3.5957038 34.786991 3.6051034 35.421875 3.6152344 C 44.430653 3.7671809 53.471255 5.1336733 61.560547 7.5546875 L 62.064453 7.7070312 L 62.25 8.1640625 C 66.070247 17.605006 66.990234 28.726438 66.990234 40.0625 C 66.990234 51.398562 65.972723 63.025755 61.988281 72.578125 L 61.791016 73.044922 L 61.275391 73.185547 C 53.273669 75.403966 44.691921 76.529297 35.759766 76.529297 C 35.212453 76.529297 34.675812 76.519896 34.150391 76.509766 L 33.943359 76.509766 C 24.901742 76.357819 15.860367 74.989738 7.7929688 72.558594 L 7.2890625 72.40625 L 7.1035156 71.951172 C 3.2942144 62.520359 2.375 51.369168 2.375 40.0625 C 2.375 28.755832 3.3819737 17.127318 7.3554688 7.5546875 L 7.5527344 7.0898438 L 8.0664062 6.9472656 C 15.509867 4.890923 23.785212 3.7371557 32.005859 3.6054688 C 32.542226 3.5953387 33.078867 3.5957031 33.615234 3.5957031 z "
         style="opacity:1;vector-effect:none;fill:#ffffff;fill-opacity:1;fill-rule:nonzero;stroke:none;stroke-width:1.95200002;stroke-linecap:butt;stroke-linejoin:miter;stroke-miterlimit:4;stroke-dasharray:none;stroke-dashoffset:0;stroke-opacity:1" />
    </g>
    <path
       id="path1154-8-2"
       d="m 33.675163,6.6112954 c 0.557696,0 1.115392,0.00956 1.683415,0.019115 8.427403,0.14336 16.803167,1.4049288 24.363042,3.6700176 3.573384,8.830981 4.443772,19.417362 4.443772,29.761551 0,10.344189 -0.95301,21.39888 -4.68131,30.334991 -7.435942,2.064385 -15.429581,3.274388 -23.774362,3.274388 -0.506058,0 -1.012115,-0.0096 -1.518172,-0.01911 h -0.17557 C 25.56792,73.508883 17.192156,72.088619 9.6426089,69.813973 6.0795528,61.002107 5.2088244,50.415411 5.2088244,40.061979 c 0,-10.353432 0.95335,-21.389323 4.6609939,-30.325434 C 16.820359,7.8155201 24.462856,6.7450981 32.177647,6.6208528 c 0.49573,-0.00956 1.001787,-0.00956 1.497516,-0.00956 m 0,-0.9557337 c -0.506057,0 -1.012114,0 -1.518171,0.00956 C 24.40089,5.7893644 16.593149,6.8789009 9.570315,8.8190405 L 9.0849131,8.9528432 8.8990146,9.3924808 C 5.1500599,18.424166 4.1999116,29.394246 4.1999116,40.061979 c 0,10.667733 0.8675267,21.188618 4.461566,30.0865 l 0.1755708,0.430081 0.4750741,0.14336 c 7.6115135,2.293761 16.1421925,3.584001 24.6728715,3.727361 h 0.196227 c 0.495729,0.0096 1.001786,0.01911 1.518171,0.01911 8.427403,0 16.524318,-1.060864 24.073866,-3.153921 l 0.485403,-0.133802 0.185898,-0.439639 c 3.759282,-9.01257 4.719759,-19.983589 4.719759,-30.679055 0,-10.695466 -0.867528,-21.188618 -4.471894,-30.0960578 L 60.516853,9.5358409 60.041779,9.3924808 C 52.409609,7.108277 43.87893,5.8180364 35.379234,5.6746763 34.780227,5.6651187 34.232859,5.6555621 33.675163,5.6555615 Z"
       style="fill:#ff0000;stroke:#ffffff;stroke-width:1.84341729;stroke-miterlimit:4;stroke-dasharray:none" />
    <path
       id="path1154"
       d="m 33.614853,4.6077955 c 0.591098,0 1.182197,0.01013 1.784241,0.02026 8.932155,0.1519464 17.809578,1.4890758 25.822246,3.8898304 3.787408,9.3599041 4.709928,20.5803481 4.709928,31.5440931 0,10.963745 -1.01009,22.680548 -4.961693,32.151879 -7.881312,2.18803 -16.353723,3.302304 -25.198307,3.302304 -0.536368,0 -1.072735,-0.01013 -1.609102,-0.02026 H 33.97608 C 25.022033,75.343956 16.14461,74.006827 8.1428892,71.595943 4.3664269,62.256298 3.443547,51.035521 3.443547,40.061979 c 0,-10.973542 1.01045,-22.670418 4.9401601,-32.1417498 7.3668369,-2.036083 15.4670749,-3.170617 23.6439369,-3.3023039 0.525421,-0.01013 1.061788,-0.01013 1.587209,-0.01013 m 0,-1.0129766 c -0.536367,0 -1.072734,0 -1.609101,0.01013 C 23.785105,3.7366356 15.509726,4.891429 8.0662653,6.9477716 L 7.5517907,7.0895883 7.3547579,7.5555576 C 3.3812628,17.128188 2.3742062,28.755311 2.3742062,40.061979 c 0,11.306668 0.9194864,22.457692 4.7287876,31.888505 l 0.1860865,0.45584 0.5035283,0.151947 c 8.0673984,2.431144 17.1090154,3.798662 26.1506324,3.950608 h 0.207979 c 0.525421,0.01013 1.061788,0.02026 1.609101,0.02026 8.932155,0 17.514028,-1.124404 25.51575,-3.342823 l 0.514475,-0.141816 0.197032,-0.46597 c 3.984442,-9.55237 5.002445,-21.180489 5.002445,-32.516551 0,-11.336062 -0.919487,-22.457692 -4.739734,-31.8986353 L 62.064202,7.7075041 61.560674,7.5555576 C 53.471382,5.1345434 44.429765,3.7670249 35.420987,3.6150784 c -0.634884,-0.01013 -1.215036,-0.020259 -1.806134,-0.02026 z"
       style="fill:#000000;stroke:#000000;stroke-width:1.95382714;stroke-miterlimit:4;stroke-dasharray:none" />
    <g
       id="g1810">
      <path
         d="M 6.5134911,7.7433673 C 5.6489029,6.8479453 4.058602,6.5681013 3.6272194,7.3820013 3.284151,8.0292783 3.3625296,8.5309135 4.395235,8.9201755 3.2963719,9.5187755 1.4857674,9.4447465 1.1893447,7.4467713 0.95320848,5.8551433 2.674739,4.8863543 3.1399725,5.0916244 3.0034432,3.6818714 1.8221094,4.0692802 0.95849208,3.2813384 0.34259068,2.7194046 0.23126071,-0.02624603 0.0561761,0.04378767 -0.0138576,0.21887227 2.7317937,0.33020157 3.2937267,0.94610377 4.0816685,1.8097211 3.6942598,2.9910547 5.1040128,3.1275841 4.8987425,2.6623507 5.8675315,0.94082017 7.4591593,1.1769564 9.4571345,1.4733791 9.5311625,3.2839847 8.9325635,4.3828467 8.5433008,3.3501417 8.041666,3.2717627 7.3943894,3.6148312 6.5804899,4.0462137 6.8603354,5.6365129 7.7557553,6.5011023"
         style="fill:#000000;stroke:#000000;stroke-width:0.1112323px;stroke-linecap:butt;stroke-linejoin:miter;stroke-opacity:1"
         id="path1737-3" />
      <path
         d="m 62.850738,7.7433673 c 0.864588,-0.895422 2.454889,-1.175266 2.886271,-0.361366 0.343069,0.647277 0.26469,1.148912 -0.768015,1.538174 1.098863,0.5986 2.909467,0.524571 3.20589,-1.473404 0.236136,-1.591628 -1.485394,-2.560417 -1.950628,-2.3551469 0.13653,-1.409753 1.317863,-1.0223442 2.181481,-1.810286 0.615901,-0.5619338 0.727231,-3.30758442 0.902316,-3.23755072 0.07003,0.1750846 -2.675618,0.2864139 -3.237551,0.9023161 C 65.28256,1.8097211 65.669969,2.9910547 64.260216,3.1275841 64.465486,2.6623507 63.496697,0.94082018 61.905069,1.1769564 c -1.997975,0.2964227 -2.072003,2.1070283 -1.473404,3.2058903 0.389263,-1.032705 0.890898,-1.111084 1.538174,-0.7680155 0.8139,0.4313825 0.534054,2.0216817 -0.361366,2.8862711"
         style="fill:#000000;stroke:#000000;stroke-width:0.1112323px;stroke-linecap:butt;stroke-linejoin:miter;stroke-opacity:1"
         id="path1737-3-5" />
      <path
         d="m 62.850738,72.244244 c 0.864588,0.895422 2.454889,1.175266 2.886272,0.361366 0.343068,-0.647277 0.264689,-1.148912 -0.768016,-1.538174 1.098863,-0.5986 2.909468,-0.524571 3.20589,1.473404 0.236137,1.591628 -1.485394,2.560417 -1.950628,2.355147 0.13653,1.409753 1.317864,1.022344 2.181481,1.810286 0.615901,0.561934 0.727231,3.307584 0.902316,3.237551 0.07003,-0.175085 -2.675618,-0.286414 -3.237551,-0.902317 -0.787942,-0.863617 -0.400533,-2.04495 -1.810286,-2.18148 0.20527,0.465234 -0.763519,2.186764 -2.355146,1.950628 -1.997976,-0.296423 -2.072004,-2.107028 -1.473405,-3.20589 0.389263,1.032705 0.890898,1.111084 1.538175,0.768015 0.813899,-0.431382 0.534054,-2.021682 -0.361366,-2.886271"
         style="fill:#000000;stroke:#000000;stroke-width:0.1112323px;stroke-linecap:butt;stroke-linejoin:miter;stroke-opacity:1"
         id="path1737-3-7" />
      <path
         d="M 6.513491,72.244245 C 5.648903,73.139667 4.058602,73.419511 3.62722,72.605611 3.284151,71.958334 3.36253,71.456699 4.395235,71.067437 c -1.098863,-0.5986 -2.909467,-0.524571 -3.20589,1.473404 -0.23613599,1.591628 1.485394,2.560417 1.950628,2.355147 -0.13653,1.409753 -1.317863,1.022344 -2.18148099,1.810286 -0.615901,0.561933 -0.727231,3.307584 -0.902316,3.23755 C -0.01385399,79.76874 2.731794,79.65741 3.293727,79.041508 4.081669,78.177891 3.69426,76.996557 5.104013,76.860028 4.898743,77.325261 5.867532,79.046792 7.45916,78.810656 9.457135,78.514233 9.531163,76.703627 8.932564,75.604765 8.543301,76.63747 8.041666,76.715849 7.39439,76.372781 6.58049,75.941398 6.860336,74.351099 7.755756,73.48651"
         style="fill:#000000;stroke:#000000;stroke-width:0.1112323px;stroke-linecap:butt;stroke-linejoin:miter;stroke-opacity:1"
         id="path1737-3-5-5" />
    </g>
    <path
       id="path1154-9"
       d="m 33.712865,7.4258691 c 0.536813,0 1.07363,0.00933 1.620386,0.01865 8.111875,0.1398689 16.174044,1.3707167 23.450873,3.5806479 3.439594,8.615932 4.277395,18.944521 4.277395,29.036812 0,10.092292 -0.917329,20.877786 -4.506039,29.596289 -7.157536,2.014114 -14.851888,3.03982 -22.884234,3.03982 -0.487111,0 -0.974221,-0.0094 -1.461331,-0.01865 H 34.040918 C 25.909161,72.53957 17.846991,71.308722 10.580105,69.089467 7.1504515,60.492184 6.3123238,50.163289 6.3123238,40.061979 c 0,-10.101311 0.9176558,-20.868461 4.4864832,-29.586965 6.690308,-1.8742449 14.046665,-2.9186005 21.472608,-3.0398203 0.47717,-0.00933 0.964281,-0.00933 1.44145,-0.00933 m 0,-0.9324602 c -0.487111,0 -0.974221,0 -1.46133,0.00933 C 24.785826,6.6239532 17.270413,7.686958 10.510517,9.5798526 L 10.043289,9.710397 9.8643508,10.139328 c -3.6085914,8.811751 -4.5231655,19.514693 -4.5231655,29.922651 0,10.407958 0.8350459,20.672644 4.294522,29.353849 l 0.1689973,0.419608 0.4572874,0.13987 c 7.326533,2.237904 15.537818,3.496724 23.749103,3.636593 h 0.188879 c 0.47717,0.0094 0.96428,0.01865 1.461331,0.01865 8.111875,0 15.905636,-1.035031 23.172525,-3.077119 l 0.467228,-0.130544 0.178938,-0.428932 c 3.618533,-8.793101 4.543048,-19.496959 4.543048,-29.931975 0,-10.435016 -0.835047,-20.672644 -4.304463,-29.363174 l -0.168997,-0.419609 -0.457288,-0.13987 C 51.74588,7.9107484 43.534594,6.6519271 35.353133,6.512058 34.776554,6.502738 34.249678,6.493409 33.712865,6.493409 Z"
       style="fill:#000000;stroke:none;stroke-width:1.78642213;stroke-miterlimit:4;stroke-dasharray:none" />
    <path
       id="path1154-9-3"
       d="m 33.712865,7.4258686 c 0.536813,0 1.07363,0.00933 1.620386,0.01865 8.111875,0.1398689 16.174044,1.3707167 23.450873,3.5806484 3.439594,8.615932 4.277395,18.944521 4.277395,29.036812 0,10.092292 -0.917329,20.877786 -4.506039,29.596288 -7.157536,2.014114 -14.851888,3.03982 -22.884234,3.03982 -0.487111,0 -0.974221,-0.0094 -1.461331,-0.01865 H 34.040918 C 25.909161,72.539569 17.846991,71.308722 10.580105,69.089466 7.1504515,60.492184 6.3123238,50.163288 6.3123238,40.061979 c 0,-10.101312 0.9176558,-20.868461 4.4864832,-29.586965 6.690308,-1.8742454 14.046665,-2.918601 21.472608,-3.0398208 0.47717,-0.00933 0.964281,-0.00933 1.44145,-0.00933 m 0,-0.9324602 c -0.487111,0 -0.974221,0 -1.46133,0.00933 C 24.785826,6.6239527 17.270413,7.6869575 10.510517,9.5798521 L 10.043289,9.7103965 9.8643508,10.139328 C 6.2557594,18.951079 5.3411853,29.65402 5.3411853,40.061979 c 0,10.407958 0.8350459,20.672643 4.294522,29.353849 l 0.1689973,0.419608 0.4572874,0.13987 c 7.326533,2.237904 15.537818,3.496724 23.749103,3.636593 h 0.188879 c 0.47717,0.0094 0.96428,0.01865 1.461331,0.01865 8.111875,0 15.905636,-1.035032 23.172525,-3.077119 l 0.467228,-0.130544 0.178938,-0.428932 c 3.618533,-8.793101 4.543048,-19.49696 4.543048,-29.931975 0,-10.435016 -0.835047,-20.672644 -4.304463,-29.363175 l -0.168997,-0.419609 -0.457288,-0.13987 C 51.74588,7.9107479 43.534594,6.6519266 35.353133,6.5120575 34.776554,6.5027375 34.249678,6.4934085 33.712865,6.4934085 Z"
       style="fill:#000000;stroke:none;stroke-width:1.78642213;stroke-miterlimit:4;stroke-dasharray:none" />
  </g>
</svg>
