<?xml version="1.0" encoding="UTF-8"?><svg id="Capa_2" xmlns="http://www.w3.org/2000/svg" xmlns:xlink="http://www.w3.org/1999/xlink" viewBox="0 0 69.02 80"><defs><style>.cls-1{fill:#c89aed;}.cls-2{fill:#fff;}.cls-3{fill:#f8ffbf;}.cls-4{fill:#7b7be8;}.cls-5{fill:#a88347;}.cls-6{fill:#782ab5;}.cls-7,.cls-8,.cls-9,.cls-10,.cls-11,.cls-12,.cls-13{fill:none;}.cls-7,.cls-8,.cls-10,.cls-13{stroke:#000;stroke-miterlimit:10;}.cls-8{stroke-width:1.06px;}.cls-8,.cls-9,.cls-13{stroke-linecap:round;}.cls-9{stroke:#deb778;stroke-dasharray:0 0 0 4.06;stroke-linejoin:round;}.cls-14{fill:url(#USGS_19_Inundación_de_tierra);}.cls-10,.cls-13{stroke-width:1.27px;}.cls-15{fill:#deb778;}.cls-12{stroke:#1d1d1b;stroke-dasharray:0 0 2 2;stroke-width:.3px;}.cls-16{fill:#cf5f2b;}.cls-17{fill:#ccbc64;}.cls-18{fill:#fcf0c5;}.cls-19{fill:#b83521;}</style><pattern id="USGS_19_Inundación_de_tierra" x="0" y="0" width="72" height="72" patternTransform="translate(-92.48 -15991) rotate(-90)" patternUnits="userSpaceOnUse" viewBox="0 0 72 72"><g><rect class="cls-11" width="72" height="72"/><g><line class="cls-12" x1="71" y1="71" x2="144.44" y2="71"/><line class="cls-12" x1="71" y1="67" x2="144.44" y2="67"/><line class="cls-12" x1="71" y1="63" x2="144.44" y2="63"/><line class="cls-12" x1="71" y1="59" x2="144.44" y2="59"/><line class="cls-12" x1="71" y1="55" x2="144.44" y2="55"/><line class="cls-12" x1="71" y1="51" x2="144.44" y2="51"/><line class="cls-12" x1="71" y1="47" x2="144.44" y2="47"/><line class="cls-12" x1="71" y1="43" x2="144.44" y2="43"/><line class="cls-12" x1="71" y1="39" x2="144.44" y2="39"/><line class="cls-12" x1="71" y1="35" x2="144.44" y2="35"/><line class="cls-12" x1="71" y1="31" x2="144.44" y2="31"/><line class="cls-12" x1="71" y1="27" x2="144.44" y2="27"/><line class="cls-12" x1="71" y1="23" x2="144.44" y2="23"/><line class="cls-12" x1="71" y1="19" x2="144.44" y2="19"/><line class="cls-12" x1="71" y1="15" x2="144.44" y2="15"/><line class="cls-12" x1="71" y1="11" x2="144.44" y2="11"/><line class="cls-12" x1="71" y1="7" x2="144.44" y2="7"/><line class="cls-12" x1="71" y1="3" x2="144.44" y2="3"/></g><g><line class="cls-12" x1="-1" y1="71" x2="72.44" y2="71"/><line class="cls-12" x1="-1" y1="67" x2="72.44" y2="67"/><line class="cls-12" x1="-1" y1="63" x2="72.44" y2="63"/><line class="cls-12" x1="-1" y1="59" x2="72.44" y2="59"/><line class="cls-12" x1="-1" y1="55" x2="72.44" y2="55"/><line class="cls-12" x1="-1" y1="51" x2="72.44" y2="51"/><line class="cls-12" x1="-1" y1="47" x2="72.44" y2="47"/><line class="cls-12" x1="-1" y1="43" x2="72.44" y2="43"/><line class="cls-12" x1="-1" y1="39" x2="72.44" y2="39"/><line class="cls-12" x1="-1" y1="35" x2="72.44" y2="35"/><line class="cls-12" x1="-1" y1="31" x2="72.44" y2="31"/><line class="cls-12" x1="-1" y1="27" x2="72.44" y2="27"/><line class="cls-12" x1="-1" y1="23" x2="72.44" y2="23"/><line class="cls-12" x1="-1" y1="19" x2="72.44" y2="19"/><line class="cls-12" x1="-1" y1="15" x2="72.44" y2="15"/><line class="cls-12" x1="-1" y1="11" x2="72.44" y2="11"/><line class="cls-12" x1="-1" y1="7" x2="72.44" y2="7"/><line class="cls-12" x1="-1" y1="3" x2="72.44" y2="3"/><line class="cls-12" x1="1.04" y1="69" x2="74.48" y2="69"/><line class="cls-12" x1="1.04" y1="65" x2="74.48" y2="65"/><line class="cls-12" x1="1.04" y1="61" x2="74.48" y2="61"/><line class="cls-12" x1="1.04" y1="57" x2="74.48" y2="57"/><line class="cls-12" x1="1.04" y1="53" x2="74.48" y2="53"/><line class="cls-12" x1="1.04" y1="49" x2="74.48" y2="49"/><line class="cls-12" x1="1.04" y1="45" x2="74.48" y2="45"/><line class="cls-12" x1="1.04" y1="41" x2="74.48" y2="41"/><line class="cls-12" x1="1.04" y1="37" x2="74.48" y2="37"/><line class="cls-12" x1="1.04" y1="33" x2="74.48" y2="33"/><line class="cls-12" x1="1.04" y1="29" x2="74.48" y2="29"/><line class="cls-12" x1="1.04" y1="25" x2="74.48" y2="25"/><line class="cls-12" x1="1.04" y1="21" x2="74.48" y2="21"/><line class="cls-12" x1="1.04" y1="17" x2="74.48" y2="17"/><line class="cls-12" x1="1.04" y1="13" x2="74.48" y2="13"/><line class="cls-12" x1="1.04" y1="9" x2="74.48" y2="9"/><line class="cls-12" x1="1.04" y1="5" x2="74.48" y2="5"/><line class="cls-12" x1="1.04" y1="1" x2="74.48" y2="1"/></g><g><line class="cls-12" x1="-73" y1="71" x2=".44" y2="71"/><line class="cls-12" x1="-73" y1="67" x2=".44" y2="67"/><line class="cls-12" x1="-73" y1="63" x2=".44" y2="63"/><line class="cls-12" x1="-73" y1="59" x2=".44" y2="59"/><line class="cls-12" x1="-73" y1="55" x2=".44" y2="55"/><line class="cls-12" x1="-73" y1="51" x2=".44" y2="51"/><line class="cls-12" x1="-73" y1="47" x2=".44" y2="47"/><line class="cls-12" x1="-73" y1="43" x2=".44" y2="43"/><line class="cls-12" x1="-73" y1="39" x2=".44" y2="39"/><line class="cls-12" x1="-73" y1="35" x2=".44" y2="35"/><line class="cls-12" x1="-73" y1="31" x2=".44" y2="31"/><line class="cls-12" x1="-73" y1="27" x2=".44" y2="27"/><line class="cls-12" x1="-73" y1="23" x2=".44" y2="23"/><line class="cls-12" x1="-73" y1="19" x2=".44" y2="19"/><line class="cls-12" x1="-73" y1="15" x2=".44" y2="15"/><line class="cls-12" x1="-73" y1="11" x2=".44" y2="11"/><line class="cls-12" x1="-73" y1="7" x2=".44" y2="7"/><line class="cls-12" x1="-73" y1="3" x2=".44" y2="3"/><line class="cls-12" x1="-70.96" y1="69" x2="2.48" y2="69"/><line class="cls-12" x1="-70.96" y1="65" x2="2.48" y2="65"/><line class="cls-12" x1="-70.96" y1="61" x2="2.48" y2="61"/><line class="cls-12" x1="-70.96" y1="57" x2="2.48" y2="57"/><line class="cls-12" x1="-70.96" y1="53" x2="2.48" y2="53"/><line class="cls-12" x1="-70.96" y1="49" x2="2.48" y2="49"/><line class="cls-12" x1="-70.96" y1="45" x2="2.48" y2="45"/><line class="cls-12" x1="-70.96" y1="41" x2="2.48" y2="41"/><line class="cls-12" x1="-70.96" y1="37" x2="2.48" y2="37"/><line class="cls-12" x1="-70.96" y1="33" x2="2.48" y2="33"/><line class="cls-12" x1="-70.96" y1="29" x2="2.48" y2="29"/><line class="cls-12" x1="-70.96" y1="25" x2="2.48" y2="25"/><line class="cls-12" x1="-70.96" y1="21" x2="2.48" y2="21"/><line class="cls-12" x1="-70.96" y1="17" x2="2.48" y2="17"/><line class="cls-12" x1="-70.96" y1="13" x2="2.48" y2="13"/><line class="cls-12" x1="-70.96" y1="9" x2="2.48" y2="9"/><line class="cls-12" x1="-70.96" y1="5" x2="2.48" y2="5"/><line class="cls-12" x1="-70.96" y1="1" x2="2.48" y2="1"/></g></g></pattern></defs><g id="BG"><g><path class="cls-6" d="M64.02,40c0,11.47-1.89,22.39-5.5,31.74-7.2,2.16-14.94,3.26-23.02,3.26-.49,0-.98-.01-1.47-.02h-.17c-8.18-.15-16.29-1.47-23.6-3.85-3.45-9.22-5.26-19.93-5.26-31.13s1.89-22.38,5.48-31.73c6.73-2.01,14.13-3.13,21.6-3.26,.48-.01,.97-.01,1.45-.01,.54,0,1.08,.01,1.63,.02,8.16,.15,16.27,1.47,23.59,3.84,3.46,9.24,5.27,19.95,5.27,31.14Z"/><path class="cls-14" d="M34.03,5.59V74.98h-.17c-8.18-.15-16.29-1.47-23.6-3.85-3.45-9.22-5.26-19.93-5.26-31.13s1.89-22.38,5.48-31.73c6.73-2.01,14.13-3.13,21.6-3.26,.65,.16,1.3,.36,1.95,.58Z"/></g></g><g id="Characters"><g><path class="cls-1" d="M23.78,24.02l-3.88,12.51,1.36,11.06s1.65,7.18,4.95,10.09c.97,2.91,.78,8.34-.29,10.86,3.01,4.46,10.96,8.63,18.43,.29-1.16-7.18-.78-10.19-.78-10.19,0,0,3.69-3.01,4.56-6.79s1.75-13.77,1.75-13.77l-2.81-15.13-23.28,1.07Z"/><path class="cls-2" d="M50.18,37.5l-1.2,10.92-2.06,6.78-6.79,6.62s-2.49,.95-5.07,1.29v-9.62c1.65-.39,3.26-1.74,3.58-2.65,.13-.36-.41-.54-1.12-.63-1.42-.18-2.46-1.43-2.46-2.86V22.9l11.34,3.09,3.78,11.51Z"/><path class="cls-1" d="M35.21,26.48c1.06,.9,2.48,1.43,3.94,1.43,.31,0,.61-.02,.9-.07,1.03,1.39,2.65,2.19,4.48,2.19,.11,0,.22,0,.33,0,.08,.64,.23,1.21,.34,1.5,.26,.71,.67,1.37,1.19,1.93-.28,2.04,.25,4.43,1.84,5.66,0,1.45-.1,8.66-2.57,14.35-.2,.46-.49,.91-.87,1.34-2.16,2.5-4.35,4.51-6.52,5.99-.87,.59-1.87,.9-2.91,.9s-2.05-.31-2.92-.9c-2.15-1.46-4.34-3.47-6.53-5.99-.37-.43-.67-.88-.87-1.33-2.46-5.67-2.78-12.91-2.82-14.41,1.43-1.14,2.06-3.16,1.74-5.57,.88-.95,1.42-2.18,1.55-3.47,.11,0,.22,0,.33,0,1.85,0,3.48-.82,4.5-2.22,.33,.05,.67,.08,1,.08,1.47,0,2.82-.51,3.85-1.42m-.01-1.57c-.92,1.31-2.38,1.92-3.84,1.92-.51,0-1.02-.08-1.5-.22-.83,1.62-2.41,2.36-4,2.36-.47,0-.95-.07-1.41-.2,.22,1.59-.4,3.28-1.61,4.34,.37,1.92,.18,4.3-1.65,5.38-.03,.01-.05,.02-.09,.03,.04,.07,.06,.16,.06,.25,0,.09,.08,8.59,2.91,15.12,.24,.55,.59,1.09,1.04,1.6,2.25,2.59,4.51,4.66,6.73,6.17,1.07,.72,2.29,1.08,3.51,1.08s2.44-.36,3.51-1.08c2.23-1.52,4.49-3.59,6.72-6.17,.45-.51,.8-1.05,1.04-1.6,2.83-6.51,2.66-14.9,2.66-14.99,0-.12,.03-.22,.08-.32-1.75-.85-2.29-3.48-1.84-5.49-.59-.53-1.06-1.2-1.34-1.94-.16-.44-.41-1.58-.3-2.37-.45,.12-.91,.19-1.37,.19-1.58,0-3.14-.74-3.98-2.33-.45,.14-.92,.2-1.4,.2-1.52,0-3.06-.68-3.95-1.93h0Z"/><path d="M20.07,6.71s-7.67,1.8-5.74,10.21c-5.14,2.94-3.2,9.67-1.6,12.74-1.6,4,2.74,9.14,4.67,10.14-.2,2.67,.67,2.94,.67,2.94,0,0-2,3.67,1.4,5.87-.47,2.94-1.67,3.2-1.67,3.2,0,0,2.6,.13,4.07-1.67-1.47-6.14-1.53-11.74-1.53-11.74,0,0,2.67-1,2.07-5.94,1.93-1.13,1.53-4.14,1.53-4.14,0,0,3.34,.73,5.74-2.27,3.27,.67,5.67-1.93,5.67-1.93,0,0,1.87,2.6,5.4,2,1.53,2.67,4.54,2.4,5.8,2.07,0,2.87,.47,3.67,1.53,4.54,.07,4.34,1.07,5.54,1.8,5.87,.07,3.94-1.27,12.01-1.27,12.01,0,0,2.94,1.6,4.8,.8-2-.73-1.8-2.74-1.8-2.74,0,0,2.94-2.4,1.4-5.6,1.13-3.07,.93-3.67,.93-3.67,0,0,4.14-3.54,3.94-10.07,2.94-3.94,2.67-9.61-1.53-12.28,1.13-5.2-1.19-9.94-7.27-10.61-5.33-.59-14.3-2.35-29.02,.27Z"/><path d="M44.68,74.51c2.7-.29,5.35-.71,7.94-1.26,1.4-.59,2.06-1.04,2.06-1.04l-10.33-3.37s-.17,.45-.61,1.08c-.94,1.36-3.14,3.53-7.64,3.77-.42,0-.83-.01-1.22-.04-5.69-.45-8.42-4.39-8.42-4.39l-.18,.05-3.87,1-6.63,1.73s.51,.45,1.81,1.06c2.66,.58,5.38,1.03,8.14,1.34l18.95,.07Z"/><path class="cls-5" d="M44.68,74.51c1.98-1.77,3.54-4.3,3.54-4.3l-3.58-1.26s-.31,.4-.9,.97c-1.41,1.37-4.46,3.69-8.86,3.73h-.11c-5.13-.06-7.71-3.19-8.49-4.34-.18-.27-.26-.43-.26-.43,0,0-1.95,.94-3.61,1.43-.04,.02-.07,.03-.11,.04,.54,1.48,2.26,3.11,3.43,4.09l18.95,.07Z"/><path class="cls-2" d="M31.26,56.37l2.13-1.38,1.85,.69,1.21-.63,2.25,1.21s-.23,1.62-3,2.25-4.44-2.13-4.44-2.13Z"/><path class="cls-3" d="M23.78,43.05s2.22-.77,4.51-.91c2.47,.53,3.53,2,3.53,2,0,0-1.61,.94-3.53,1.12-2.83-.24-4.51-2.21-4.51-2.21Z"/><path class="cls-3" d="M46.19,43.05s-2.22-.77-4.51-.91c-2.47,.53-3.53,2-3.53,2,0,0,1.61,.94,3.53,1.12,2.83-.24,4.51-2.21,4.51-2.21Z"/><rect class="cls-5" x="18.56" y="56.19" width="3.46" height="3.46" transform="translate(-35.01 31.31) rotate(-45)"/><rect class="cls-5" x="48.09" y="56.19" width="3.46" height="3.46" transform="translate(-26.36 52.19) rotate(-45)"/><polygon class="cls-17" points="49.9 55.94 49.9 60.18 51.93 57.91 49.9 55.94"/><polygon class="cls-17" points="20.3 55.94 20.3 60.18 22.32 57.91 20.3 55.94"/><path class="cls-19" d="M58.8,27.75c-.17-4.75-5.26-4.98-5.26-4.98,0,0,2.01,2.52,1.57,5.86-.44-1.76-3.35-6.25-6.43-5.28-.26-2.37-3.35-4.14-7.13-2.64-.35-1.5-4.05-4.66-6.25-1.67-1.32-1.5-5.2-1.85-6.6,1.23-2.47-2.2-6.17-.44-6.61,1.85-2.64,1.14-4.4,4.05-4.4,4.05,0,0-.53-2.2,2.64-5.63-3.96,.08-6.34,3.25-6.6,6.42-2.64-6.07,3.35-9.51,3.35-9.51-4-7.38,6.77-10.82,6.77-10.82,1.17-.58,2.36-1.05,3.54-1.4,2.03-.16,4.09-.23,6.14-.23,.54,0,1.08,.01,1.63,.02,4.64,.09,9.25,.55,13.72,1.37h.02c.39,.1,.73,.18,1.01,.24,3.52,.7,7.22,4.75,6.16,10.38,2.03,1.24,4.76,4.76,2.73,10.74Z"/><path class="cls-16" d="M19.39,16.14s.42-9.26,10.65-7.39c3.18-3.95,8.76-2.23,10.4-.09,4.55-2.32,11.94,3.95,12.03,9.62-3.61-6.27-10.73-4.26-10.73-4.26,0,0-4.91-4.76-11.26-.21-2.06-1.8-8.42-1.55-11.08,2.32Z"/><path class="cls-4" d="M43.38,59.5l-11.42,13.63s-5.68-2.28-6.04-4.59c1.28-8.22,1.2-9.95,1.2-9.95,0,0,4.6,4.76,7.39,4.85s6.49-1.31,8.87-3.94Z"/><path class="cls-4" d="M36.59,39.15l1.56,4.99s1.81-1.88,3.53-2c2.55,.08,4.51,.91,4.51,.91l.94-4.07s-2.82-1.2-4.73-1.29c-2.86,.46-5.81,1.45-5.81,1.45Z"/><path class="cls-4" d="M31.81,44.14l1.58-5.39-6.28-1.29-4.46,1.47,1.12,4.12,4.51-.91s3.18,1.11,3.53,2Z"/><path class="cls-2" d="M41.82,63.41l-6.71,8.38s3.64,.44,7.65-3.64c-.8-2.33-.95-4.74-.95-4.74Z"/><path class="cls-2" d="M26.7,46.79h3.02c.63,0,.9,.79,.41,1.18l-1.57,1.24c-.25,.2-.6,.19-.84-.02l-1.45-1.24c-.47-.4-.19-1.17,.43-1.17Z"/><path class="cls-13" d="M49.92,38.89s.21,8.54-2.7,15.26c-.29,.65-.68,1.23-1.15,1.76-1.77,2.04-4.14,4.45-6.84,6.28-2.34,1.59-5.4,1.59-7.74,0-2.71-1.83-5.09-4.24-6.86-6.28-.47-.53-.86-1.12-1.15-1.76-2.91-6.72-2.96-15.37-2.96-15.37"/><path d="M19.87,37c-3.9-1.69-4.16-7.65-1.15-10.31,.04-.06,.14-.03,.12,.05-1.37,3.27-1.38,7.43,1.12,10.17,.05,.05-.03,.14-.09,.09h0Z"/><path d="M16.92,31.72c-3.33-2.45-2.42-7.02,.54-9.33,0,0-.66,1.08-.66,1.08-1.49,2.45-1.38,5.42,.77,7.41,.53,.43-.1,1.25-.65,.84h0Z"/><path d="M50.74,36.91c2.5-2.74,2.49-6.9,1.12-10.17-.02-.07,.08-.11,.12-.05,3.01,2.65,2.76,8.61-1.15,10.31-.06,.04-.14-.03-.09-.09h0Z"/><path d="M53.13,30.88c2.15-1.99,2.26-4.96,.77-7.41,0,0-.66-1.08-.66-1.08,.31,.29,.61,.59,.92,.89,2.29,2.32,2.45,6.45-.38,8.44-.55,.4-1.17-.41-.65-.84h0Z"/><path class="cls-8" d="M16.98,39.76s-5.18-3.69-4.34-10.18c-3.73-5.83-1.15-10.49,1.61-12.5-1.96-6.19,2.89-9.43,4.7-9.82"/><path class="cls-8" d="M53.47,39.76s5.18-3.69,4.34-10.18c3.73-5.83,1.15-10.49-1.61-12.5,1.96-6.19-3.36-9.34-5.18-9.73"/><path d="M35.66,24.09c-1.93,4.31-8.65,3.34-8.96-1.45,.36,.87,.91,1.62,1.59,2.15,2.02,1.65,5.14,1.02,6.43-1.21,.33-.55,1.21-.07,.93,.51h0Z"/><path d="M29.56,26.03c.45,.3,.42,.37,.38,.42-1.94,4.15-8.53,2.91-8.86-1.62,1.29,3.67,5.85,4.19,7.94,1.08,.01-.05,.04-.09,.55,.11h0Z"/><path d="M24.38,28.4c.42,1.83-.35,3.88-1.87,4.99,0,0,.23-.69,.23-.69,.49,1.98,.4,4.65-1.56,5.8-.63,.38-1.37,.42-2.02,.33,1.1-.59,2-1.2,2.4-2.37,.38-1.21,.18-2.63-.16-3.83,0,0,.34-.26,.34-.26,1.15-.88,1.74-2.35,1.6-3.79-.07-.65,.91-.81,1.05-.17h0Z"/><path d="M35.66,23.6c1.29,2.22,4.41,2.84,6.42,1.2,.69-.53,1.23-1.27,1.59-2.15-.04,.95-.44,1.9-1.1,2.66-2.1,2.53-6.59,1.81-7.86-1.22-.27-.6,.6-1.06,.94-.49h0Z"/><path d="M40.82,26.03c.5-.2,.54-.17,.55-.11,2.09,3.11,6.65,2.58,7.94-1.08-.34,4.53-6.93,5.77-8.87,1.62-.05-.05-.07-.12,.38-.42h0Z"/><path d="M47.05,28.57c-.18,1.61,.6,3.17,1.94,4.05,0,0-.11,.43-.11,.43-.4,1.57-.48,3.56,.83,4.74,.39,.42,.94,.67,1.52,1.03-.65,.09-1.39,.04-2.02-.33-1.97-1.14-2.05-3.81-1.56-5.8,0,0,.23,.69,.23,.69-.76-.56-1.35-1.35-1.68-2.23-.26-.69-.75-3.28,.44-3.15,.26,.06,.44,.31,.41,.57h0Z"/><path d="M34.87,16.23c-2.31-1.75-5.51-.94-6.64,1.62-1.63-1.37-4.2-1.29-5.68,.33-.48,.47-.82,1.07-1.08,1.75-.16-3.36,4.15-5.45,6.9-3.5,0,0-.89,.21-.89,.21,1.47-2.7,5.8-3.04,7.39-.41h0Z"/><path d="M48.76,19.94c-.96-2.87-4.43-4.04-6.76-2.08-1.13-2.56-4.33-3.37-6.64-1.63,1.59-2.63,5.92-2.29,7.39,.41,0,0-.89-.21-.89-.21,2.73-1.94,7.06,.14,6.9,3.5h0Z"/><path class="cls-13" d="M18.36,35.6s-2.21,3.88-.36,7.34c-1.55,3.1,.48,5.19,1.43,5.61-.36,1.79-1.19,2.69-2.33,2.57-1.31,.18,2.69,2.03,4.84-.78"/><path class="cls-13" d="M52.52,35.6s2.21,3.88,.36,7.34c1.55,3.1-.48,5.19-1.43,5.61,.36,1.79,1.19,2.69,2.33,2.57,1.31,.18-2.69,2.03-4.84-.78"/><path class="cls-13" d="M26.6,58.26s.79,6.14-1.03,10.76c-3.72,1.76-9.59,3.04-9.59,3.04"/><path class="cls-13" d="M43.8,58.5s-.79,5.9,1.03,10.52c3.72,1.76,9.59,3.04,9.59,3.04"/><g><path class="cls-10" d="M24.65,73.8c-1.01-.97-1.82-2.03-2.41-3.09"/><path class="cls-13" d="M48.12,70.86c-.57,.98-1.33,1.95-2.26,2.86"/><path class="cls-13" d="M25.97,68.51c1.39,2.5,4.88,5.18,9.25,5.18s7.78-2.64,9.2-5.09"/></g><path d="M43.39,12.5c-1.19-1.8-3.77-2.04-5.25-.57,0,0-.2-.61-.2-.61-1.17-3.19-5.47-2.66-6.1,.61,0,0-.48-.37-.48-.37-1.47-1.11-3.73-.63-4.78,.94,.34-.93,1.16-1.7,2.15-2.04,1-.34,2.18-.23,3.12,.36l-.68,.25c.97-3.89,6.64-3.89,7.61,0,0,0-.67-.24-.67-.24,1.83-1.2,4.56-.34,5.27,1.68h0Z"/><path d="M40.2,56.28c-1.33,.41-2.82-.09-3.93-.88,0,0,.39,.1,.39,.1-.59,.15-1.14,.36-1.64,.69-.51-.33-1.06-.54-1.66-.69,0,0,.39-.1,.39-.1-1.1,.79-2.6,1.29-3.93,.88,1.39-.23,2.5-.92,3.47-1.78,0,0,.25,.03,.25,.03,.6,.08,1.18,.28,1.73,.57h-.52c.62-.33,1.28-.53,1.97-.6,.96,.86,2.08,1.54,3.47,1.77h0Z"/><path d="M38.93,56.34c-.57,4.24-7.35,4.17-7.83-.08-.01-.08,.08-.13,.14-.09,2.24,1.61,5.31,1.6,7.56,0,.11-.06,.17,.07,.13,.16h0Z"/><path d="M23.52,42.98c.04-.13,.19-.2,.31-.23,1.47-.5,2.99-.94,4.55-1.03,1.42,.38,2.75,1.08,3.66,2.28,.08,.12,.05,.28-.06,.36-1.15,.63-2.4,1.05-3.71,1.17-1.67-.15-3.25-.9-4.45-2.05-.11-.13-.34-.26-.29-.49h0Zm.51,.14c.07-.08-.07-.29-.03-.22,.1,.11,.3,.29,.41,.4,1.02,.94,2.66,1.6,3.85,1.7,1.19-.12,2.37-.52,3.42-1.08l-.08,.38c-.69-.93-2.64-1.63-3.28-1.73-1.4,.05-2.82,.3-4.18,.66-.06,.02-.18,.05-.24,.07,.04,0,.13-.11,.14-.17h0Z"/><path d="M45.94,43.12c0,.06,.11,.17,.14,.17-.06-.02-.18-.05-.24-.07-1.36-.36-2.78-.61-4.18-.66-.64,.1-2.59,.79-3.28,1.73,0,0-.08-.38-.08-.38,.97,.56,2.43,.99,3.37,1.08,1.44-.13,2.82-.75,3.9-1.7,.11-.11,.31-.28,.41-.4,.04-.07-.1,.14-.03,.22h0Zm.51-.14c.05,.1-.11,.33-.09,.28l-.03,.03c-1.22,1.26-2.88,2.08-4.63,2.23-1.3-.12-2.53-.53-3.68-1.15-.13-.07-.17-.23-.1-.35,.92-1.22,2.32-2,3.79-2.31,1.37,.14,2.71,.47,4.01,.89,.27,.11,.67,.16,.73,.38h0Z"/><path d="M30.5,41.74c-.68-.33-1.31-.72-1.94-1.12l.15,.04c-.76,.1-1.54,.28-2.3,.5-.76,.21-1.51,.49-2.28,.77,.32-.26,.65-.51,1.01-.7,1.09-.62,2.29-.99,3.56-1.04,.67,.38,1.23,1,1.8,1.54h0Z"/><path d="M22.74,39c1.36-.91,2.95-1.59,4.6-1.92,2.12,.29,4.15,.81,6.2,1.4l-.51,1.47c-1.65-.69-4.52-1.49-5.66-1.81-1.55,.03-3.14,.27-4.64,.86h0Z"/><path d="M39.4,41.74c.57-.54,1.13-1.16,1.8-1.54,1.27,.05,2.47,.42,3.56,1.04,.36,.19,.7,.44,1.01,.7-.77-.29-1.52-.56-2.28-.77-.76-.22-1.54-.4-2.3-.5l.15-.04c-.63,.4-1.26,.79-1.94,1.12h0Z"/><path d="M47.16,39c-1.5-.59-3.09-.84-4.64-.86-1.14,.32-4,1.12-5.66,1.81,0,0-.51-1.47-.51-1.47,2.04-.59,4.07-1.11,6.2-1.4,1.66,.33,3.24,1.01,4.61,1.92h0Z"/><g><path d="M33,49.22c-.32,.67-.79,1.2-1.33,1.68,0,0,.05-.28,.05-.28,.14,.37,.25,.74,.3,1.16-.34-.32-.59-.69-.82-1.08,.51-.6,1.08-1.14,1.81-1.48h0Z"/><polygon points="32.45 51.48 33.26 50.68 34.12 51.48 32.45 51.48"/><path d="M37.04,49.22c.73,.34,1.3,.88,1.81,1.48-.23,.39-.48,.75-.82,1.08,.04-.41,.16-.79,.3-1.16l.05,.28c-.55-.48-1.02-1.01-1.33-1.68h0Z"/><polygon points="37.58 51.48 36.77 50.68 35.92 51.48 37.58 51.48"/></g><rect class="cls-13" x="18.56" y="56.19" width="3.46" height="3.46" transform="translate(-35.01 31.31) rotate(-45)"/><rect class="cls-13" x="48.09" y="56.19" width="3.46" height="3.46" transform="translate(-26.36 52.19) rotate(-45)"/><path class="cls-16" d="M14.03,30.19c.6,3.03,1.94,6.14,4.81,7.58,.05,1.53,.19,3.2,.94,4.53-.45,.77-.78,1.73-.8,2.65-.05,.89,.17,1.72,.64,2.51,0,0-.07,.07-.07,.07-.31-.35-.61-.72-.79-1.17-.57-1.18-.42-3.18,.1-4.05-.74-1.21-.89-2.64-.99-4.02-2.56-1.21-4.07-5.09-3.93-8.11,0,0,.1,0,.1,0h0Z"/><path d="M38.87,62.83l-8.87,9.33-4.01-3.81,1-9.53s3.96,3.96,6.27,4.26,5.62-.25,5.62-.25Z"/><polygon points="43.3 70.75 46.77 72.28 45.85 73.35 41.92 71.92 43.3 70.75"/></g></g><g id="Frame"><g><path class="cls-5" d="M62.56,4.88C54.4,1.94,45.12,.2,35.25,.02c-.57-.01-1.15-.02-1.72-.02C23.88,0,14.77,1.52,6.72,4.21,2.49,14.22,0,26.6,0,40s2.39,25.22,6.45,35.11c8.16,2.94,17.45,4.69,27.32,4.87,.58,.01,1.15,.02,1.73,.02,9.63,0,18.73-1.51,26.78-4.2,4.24-10.01,6.74-22.39,6.74-35.8s-2.4-25.24-6.46-35.12Zm-4.04,66.86c-7.2,2.16-14.94,3.26-23.02,3.26-.49,0-.98-.01-1.47-.02h-.17c-8.18-.15-16.29-1.47-23.6-3.85-3.45-9.22-5.26-19.93-5.26-31.13s1.89-22.38,5.48-31.73c6.73-2.01,14.13-3.13,21.6-3.26,.48-.01,.97-.01,1.45-.01,.54,0,1.08,.01,1.63,.02,8.16,.15,16.27,1.47,23.59,3.84,3.46,9.24,5.27,19.95,5.27,31.14s-1.89,22.39-5.5,31.74Z"/><path class="cls-15" d="M17.21,2.06h0c1.63,.63,2.06,2.75,.81,3.97l-1.26,1.22s8.35-2.37,18.84-1.69h0c-1-1.49-.45-3.52,1.14-4.34l1-.51S28.26-.43,17.21,2.06Z"/><path class="cls-18" d="M21.81,1.66s.7,2.18-.22,3.1c3.77-.41,7.98-.74,11.12-.74-.33-1.33,1.26-3.4,1.26-3.4,0,0-6.17-.26-12.16,1.03Z"/><path class="cls-15" d="M36.25,79.21h0c-1.52-.87-1.62-3.03-.2-4.04l1.43-1.02s-8.61,1.07-18.88-1.19h0c.76,1.63-.09,3.55-1.79,4.11l-1.07,.36s9.19,2.56,20.5,1.78Z"/><path class="cls-18" d="M19.28,77.8s1.76-1.83,1.3-3.09c4.43,.69,9.11,1.14,12.25,1.14-.33,1.33,.44,3.4,.44,3.4,0,0-8-.16-13.99-1.45Z"/><polygon points="47.48 1.77 47.48 6.73 54.49 8.44 54.49 2.62 47.48 1.77"/><line class="cls-7" x1="45.5" y1="1.23" x2="45.5" y2="6.29"/><line class="cls-7" x1="56.47" y1="3.67" x2="56.47" y2="8.73"/><polygon points="47.48 78.74 47.48 73.78 54.49 72.07 54.49 77.88 47.48 78.74"/><line class="cls-7" x1="45.5" y1="79.28" x2="45.5" y2="74.21"/><line class="cls-7" x1="56.47" y1="76.84" x2="56.47" y2="71.77"/><path d="M33.53,1c.56,0,1.14,0,1.7,.02,9.39,.17,18.33,1.74,26.57,4.65,4.07,10.08,6.22,21.94,6.22,34.33s-2.24,24.79-6.49,34.99c-8.12,2.66-16.87,4.01-26.03,4.01-.56,0-1.12,0-1.71-.02-9.25-.17-18.42-1.78-26.58-4.66C3.15,64.25,1,52.39,1,40S3.23,15.21,7.47,5.02C15.6,2.35,24.37,1,33.53,1m0-1C23.88,0,14.77,1.52,6.72,4.21,2.49,14.22,0,26.6,0,40s2.39,25.22,6.45,35.11c8.16,2.94,17.45,4.69,27.32,4.87,.58,.01,1.15,.02,1.73,.02,9.63,0,18.73-1.51,26.78-4.2,4.24-10.01,6.74-22.39,6.74-35.8s-2.4-25.24-6.46-35.12C54.4,1.94,45.12,.2,35.25,.02c-.57,0-1.15-.02-1.72-.02h0Z"/><path class="cls-15" d="M33.53,6c.52,0,1.04,0,1.61,.02,7.87,.14,15.75,1.4,22.84,3.64,3.3,9,5.04,19.47,5.04,30.34s-1.82,21.82-5.26,30.92c-6.98,2.04-14.47,3.08-22.26,3.08-.48,0-.97,0-1.47-.02h-.15c-7.89-.14-15.78-1.41-22.85-3.65-3.29-8.99-5.03-19.46-5.03-30.33s1.81-21.79,5.24-30.91c6.5-1.89,13.7-2.95,20.86-3.08,.47,0,.96,0,1.43,0m0-1c-.48,0-.97,0-1.45,.01-7.47,.13-14.87,1.25-21.6,3.26-3.59,9.35-5.48,20.26-5.48,31.73s1.81,21.91,5.26,31.13c7.31,2.38,15.42,3.7,23.6,3.85h.17c.49,.01,.98,.02,1.47,.02,8.08,0,15.82-1.1,23.02-3.26,3.61-9.35,5.5-20.27,5.5-31.74s-1.81-21.9-5.27-31.14c-7.32-2.37-15.43-3.69-23.59-3.84-.55,0-1.09-.02-1.63-.02h0Z"/><path class="cls-9" d="M8.14,7.1s-12.66,32.94,0,66.06"/><path class="cls-9" d="M60.88,7.58s12.66,32.94,0,66.06"/></g><path d="M33.53,5c.54,0,1.08,.01,1.63,.02,8.16,.15,16.27,1.47,23.59,3.84,3.46,9.24,5.27,19.95,5.27,31.14s-1.89,22.39-5.5,31.74c-7.2,2.16-14.94,3.26-23.02,3.26-.49,0-.98-.01-1.47-.02h-.17c-8.18-.15-16.29-1.47-23.6-3.85-3.45-9.22-5.26-19.93-5.26-31.13s1.89-22.38,5.48-31.73c6.73-2.01,14.13-3.13,21.6-3.26,.48-.01,.97-.01,1.45-.01m0-1c-.49,0-.98,0-1.47,.01-7.51,.13-15.07,1.27-21.87,3.3l-.47,.14-.18,.46c-3.63,9.45-5.55,20.55-5.55,32.09s1.84,22.17,5.32,31.48l.17,.45,.46,.15c7.37,2.4,15.63,3.75,23.89,3.9h.19c.48,.01,.97,.02,1.47,.02,8.16,0,16-1.11,23.31-3.3l.47-.14,.18-.46c3.64-9.43,5.57-20.53,5.57-32.1s-1.84-22.17-5.33-31.49l-.17-.45-.46-.15c-7.39-2.39-15.65-3.74-23.88-3.89-.58-.01-1.12-.02-1.65-.02h0Z"/></g></svg>