<svg id="Capa_2" xmlns="http://www.w3.org/2000/svg" xmlns:xlink="http://www.w3.org/1999/xlink" viewBox="0 0 69.02 80">
<defs >
<style >
.cls-1{fill:#c89aed;}.cls-2{fill:#fff;}.cls-3{fill:#f8ffbf;}.cls-4{fill:#7b7be8;}.cls-5{fill:#a88347;}.cls-6{fill:#782ab5;}.cls-7{stroke-miterlimit:10;}.cls-7,.cls-8,.cls-9{stroke:#000;}.cls-7,.cls-8,.cls-9,.cls-10,.cls-11,.cls-12,.cls-13{fill:none;}.cls-8{stroke-width:1.27px;}.cls-8,.cls-9,.cls-10,.cls-11{stroke-linecap:round;stroke-linejoin:round;}.cls-9{stroke-width:.5px;}.cls-14{fill:#1c46ff;}.cls-10{stroke:#deb778;stroke-dasharray:0 0 0 4.06;}.cls-15{fill:url(#USGS_19_Inundación_de_tierra);}.cls-11{stroke:#a88347;stroke-width:2px;}.cls-16{fill:#deb778;}.cls-17{fill:#b6cee6;}.cls-13{stroke:#1d1d1b;stroke-dasharray:0 0 2 2;stroke-width:.3px;}.cls-18{fill:#cf5f2b;}.cls-19{fill:#ccbc64;}.cls-20{fill:#fcf0c5;}.cls-21{fill:#b83521;}
</style>
<pattern id="USGS_19_Inundación_de_tierra" x="0" y="0" width="72" height="72" patternTransform="translate(-164.48 -15991) rotate(-90)" patternUnits="userSpaceOnUse" viewBox="0 0 72 72">
<g >
<rect class="cls-12" width="72" height="72">
</rect>
<g >
<line class="cls-13" x1="71" y1="71" x2="144.44" y2="71">
</line>
<line class="cls-13" x1="71" y1="67" x2="144.44" y2="67">
</line>
<line class="cls-13" x1="71" y1="63" x2="144.44" y2="63">
</line>
<line class="cls-13" x1="71" y1="59" x2="144.44" y2="59">
</line>
<line class="cls-13" x1="71" y1="55" x2="144.44" y2="55">
</line>
<line class="cls-13" x1="71" y1="51" x2="144.44" y2="51">
</line>
<line class="cls-13" x1="71" y1="47" x2="144.44" y2="47">
</line>
<line class="cls-13" x1="71" y1="43" x2="144.44" y2="43">
</line>
<line class="cls-13" x1="71" y1="39" x2="144.44" y2="39">
</line>
<line class="cls-13" x1="71" y1="35" x2="144.44" y2="35">
</line>
<line class="cls-13" x1="71" y1="31" x2="144.44" y2="31">
</line>
<line class="cls-13" x1="71" y1="27" x2="144.44" y2="27">
</line>
<line class="cls-13" x1="71" y1="23" x2="144.44" y2="23">
</line>
<line class="cls-13" x1="71" y1="19" x2="144.44" y2="19">
</line>
<line class="cls-13" x1="71" y1="15" x2="144.44" y2="15">
</line>
<line class="cls-13" x1="71" y1="11" x2="144.44" y2="11">
</line>
<line class="cls-13" x1="71" y1="7" x2="144.44" y2="7">
</line>
<line class="cls-13" x1="71" y1="3" x2="144.44" y2="3">
</line>
</g>
<g >
<line class="cls-13" x1="-1" y1="71" x2="72.44" y2="71">
</line>
<line class="cls-13" x1="-1" y1="67" x2="72.44" y2="67">
</line>
<line class="cls-13" x1="-1" y1="63" x2="72.44" y2="63">
</line>
<line class="cls-13" x1="-1" y1="59" x2="72.44" y2="59">
</line>
<line class="cls-13" x1="-1" y1="55" x2="72.44" y2="55">
</line>
<line class="cls-13" x1="-1" y1="51" x2="72.44" y2="51">
</line>
<line class="cls-13" x1="-1" y1="47" x2="72.44" y2="47">
</line>
<line class="cls-13" x1="-1" y1="43" x2="72.44" y2="43">
</line>
<line class="cls-13" x1="-1" y1="39" x2="72.44" y2="39">
</line>
<line class="cls-13" x1="-1" y1="35" x2="72.44" y2="35">
</line>
<line class="cls-13" x1="-1" y1="31" x2="72.44" y2="31">
</line>
<line class="cls-13" x1="-1" y1="27" x2="72.44" y2="27">
</line>
<line class="cls-13" x1="-1" y1="23" x2="72.44" y2="23">
</line>
<line class="cls-13" x1="-1" y1="19" x2="72.44" y2="19">
</line>
<line class="cls-13" x1="-1" y1="15" x2="72.44" y2="15">
</line>
<line class="cls-13" x1="-1" y1="11" x2="72.44" y2="11">
</line>
<line class="cls-13" x1="-1" y1="7" x2="72.44" y2="7">
</line>
<line class="cls-13" x1="-1" y1="3" x2="72.44" y2="3">
</line>
<line class="cls-13" x1="1.04" y1="69" x2="74.48" y2="69">
</line>
<line class="cls-13" x1="1.04" y1="65" x2="74.48" y2="65">
</line>
<line class="cls-13" x1="1.04" y1="61" x2="74.48" y2="61">
</line>
<line class="cls-13" x1="1.04" y1="57" x2="74.48" y2="57">
</line>
<line class="cls-13" x1="1.04" y1="53" x2="74.48" y2="53">
</line>
<line class="cls-13" x1="1.04" y1="49" x2="74.48" y2="49">
</line>
<line class="cls-13" x1="1.04" y1="45" x2="74.48" y2="45">
</line>
<line class="cls-13" x1="1.04" y1="41" x2="74.48" y2="41">
</line>
<line class="cls-13" x1="1.04" y1="37" x2="74.48" y2="37">
</line>
<line class="cls-13" x1="1.04" y1="33" x2="74.48" y2="33">
</line>
<line class="cls-13" x1="1.04" y1="29" x2="74.48" y2="29">
</line>
<line class="cls-13" x1="1.04" y1="25" x2="74.48" y2="25">
</line>
<line class="cls-13" x1="1.04" y1="21" x2="74.48" y2="21">
</line>
<line class="cls-13" x1="1.04" y1="17" x2="74.48" y2="17">
</line>
<line class="cls-13" x1="1.04" y1="13" x2="74.48" y2="13">
</line>
<line class="cls-13" x1="1.04" y1="9" x2="74.48" y2="9">
</line>
<line class="cls-13" x1="1.04" y1="5" x2="74.48" y2="5">
</line>
<line class="cls-13" x1="1.04" y1="1" x2="74.48" y2="1">
</line>
</g>
<g >
<line class="cls-13" x1="-73" y1="71" x2=".44" y2="71">
</line>
<line class="cls-13" x1="-73" y1="67" x2=".44" y2="67">
</line>
<line class="cls-13" x1="-73" y1="63" x2=".44" y2="63">
</line>
<line class="cls-13" x1="-73" y1="59" x2=".44" y2="59">
</line>
<line class="cls-13" x1="-73" y1="55" x2=".44" y2="55">
</line>
<line class="cls-13" x1="-73" y1="51" x2=".44" y2="51">
</line>
<line class="cls-13" x1="-73" y1="47" x2=".44" y2="47">
</line>
<line class="cls-13" x1="-73" y1="43" x2=".44" y2="43">
</line>
<line class="cls-13" x1="-73" y1="39" x2=".44" y2="39">
</line>
<line class="cls-13" x1="-73" y1="35" x2=".44" y2="35">
</line>
<line class="cls-13" x1="-73" y1="31" x2=".44" y2="31">
</line>
<line class="cls-13" x1="-73" y1="27" x2=".44" y2="27">
</line>
<line class="cls-13" x1="-73" y1="23" x2=".44" y2="23">
</line>
<line class="cls-13" x1="-73" y1="19" x2=".44" y2="19">
</line>
<line class="cls-13" x1="-73" y1="15" x2=".44" y2="15">
</line>
<line class="cls-13" x1="-73" y1="11" x2=".44" y2="11">
</line>
<line class="cls-13" x1="-73" y1="7" x2=".44" y2="7">
</line>
<line class="cls-13" x1="-73" y1="3" x2=".44" y2="3">
</line>
<line class="cls-13" x1="-70.96" y1="69" x2="2.48" y2="69">
</line>
<line class="cls-13" x1="-70.96" y1="65" x2="2.48" y2="65">
</line>
<line class="cls-13" x1="-70.96" y1="61" x2="2.48" y2="61">
</line>
<line class="cls-13" x1="-70.96" y1="57" x2="2.48" y2="57">
</line>
<line class="cls-13" x1="-70.96" y1="53" x2="2.48" y2="53">
</line>
<line class="cls-13" x1="-70.96" y1="49" x2="2.48" y2="49">
</line>
<line class="cls-13" x1="-70.96" y1="45" x2="2.48" y2="45">
</line>
<line class="cls-13" x1="-70.96" y1="41" x2="2.48" y2="41">
</line>
<line class="cls-13" x1="-70.96" y1="37" x2="2.48" y2="37">
</line>
<line class="cls-13" x1="-70.96" y1="33" x2="2.48" y2="33">
</line>
<line class="cls-13" x1="-70.96" y1="29" x2="2.48" y2="29">
</line>
<line class="cls-13" x1="-70.96" y1="25" x2="2.48" y2="25">
</line>
<line class="cls-13" x1="-70.96" y1="21" x2="2.48" y2="21">
</line>
<line class="cls-13" x1="-70.96" y1="17" x2="2.48" y2="17">
</line>
<line class="cls-13" x1="-70.96" y1="13" x2="2.48" y2="13">
</line>
<line class="cls-13" x1="-70.96" y1="9" x2="2.48" y2="9">
</line>
<line class="cls-13" x1="-70.96" y1="5" x2="2.48" y2="5">
</line>
<line class="cls-13" x1="-70.96" y1="1" x2="2.48" y2="1">
</line>
</g>
</g>
</pattern>
</defs>
  <path
     style="opacity:1;vector-effect:none;fill:#cccccc;fill-opacity:1;fill-rule:nonzero;stroke:none;stroke-width:4.49546146;stroke-linecap:butt;stroke-linejoin:miter;stroke-miterlimit:4;stroke-dasharray:none;stroke-dashoffset:0;stroke-opacity:1"
     d="M -0.08007812,0.36132812 V 80.361328 H 68.919922 V 0.36132812 Z"
     id="rect4304"/>

<g id="Characters">
<path class="cls-1" d="M64.17,58.27c-.29,1.3-1.3,5.56-3.15,10.39-.37,.5-.85,1.02-1.46,1.56-.17,.16-.29,.37-.35,.58-.23,.01-.45,.1-.64,.25-4.05,3.11-11.96,6.47-22.01,6.55h-.51c-9.23,0-16.61-1.9-21.43-4.1l2-1.74,2.58-4.9-.89-5.96-.18-7.58c.27-.23,.42-.57,.42-.93-.03-1.18-.06-1.99-.09-2.44,.09-1.06,.67-1.76,1.73-2.1,.36-.12,.64-.39,.76-.75,.13-.36,.08-.75-.14-1.06-.78-1.16-1.3-2.93-1.83-5.23-.13-.55-.62-.93-1.16-.93-.06,0-.12,.01-.17,.01-.1,.02-.18,.02-.28,.02-1.65,0-3.36-2.19-4.62-3.83-.21-.25-.39-.5-.57-.72-1.57-3.06-.54-8.5,.37-11.48,.57,.51,1.58,1.5,2.77,3.2,.23,.31,.59,.5,.97,.5,.1,0,.19-.01,.28-.03,.49-.12,.83-.52,.9-1.01,.3-2.42,1.26-5.19,2.88-8.24,1.35-2.54,3.87-4.33,6.72-4.79,3.23-.51,5.81-.77,7.67-.77s4.43,.25,7.67,.76c2.86,.45,5.38,2.25,6.73,4.8,1.61,3.05,2.57,5.81,2.88,8.23,.05,.5,.41,.9,.89,1.02,.1,.02,.19,.03,.29,.03,.38,0,.75-.18,.97-.51,1.19-1.69,2.19-2.68,2.77-3.2,.91,2.99,1.92,8.43,.35,11.5-.15,.21-.32,.42-.5,.64l-.08,.11c-1.24,1.6-2.93,3.79-4.59,3.79-.09,0-.18,0-.28-.02-.05,0-.11-.01-.17-.01-.54,0-1.03,.38-1.16,.93-.53,2.29-1.04,4.06-1.82,5.22-.22,.31-.27,.7-.14,1.06,.13,.36,.41,.63,.78,.75,.73,.23,1.63,.76,1.75,2.02-.02,.48-.05,1.31-.09,2.53,0,.36,.15,.7,.41,.93,.23,.19,.5,.29,.78,.29,.08,0,.14-.01,.21-.02,.67-.12,1.35-.17,2-.17s1.25,.05,1.83,.17c.15,.29,.22,.59,.25,.81,.06,.51,.45,.92,.96,1.02,.71,.13,2.42,.46,3.82,.89,.02,.26,.02,.49,.03,.67,0,.63,.49,1.15,1.11,1.19l1.76,.1Z">
</path>
<path class="cls-2" d="M21.56,35.04s3.07,1.71,7.08,1.48c-2.95,2.6-5.07,2.71-5.07,2.71,0,0-1.65-1.71-2.01-4.19Z">
</path>
<path class="cls-4" d="M20.6,31.65s.63,1.75,4.7,3.35c3.78,1.16,6.64-2.23,6.64-2.23,0,0-4.32-1.99-6.74-2.33s-4.61,1.21-4.61,1.21Z">
</path>
<path class="cls-17" d="M17.94,53.47v8.99s-1.08,2.99-3.76,4.44c-1.99,1.08-3.38,3.09-3.98,4.05-.05-.09-.12-.16-.19-.23-3.06-2.8-4.56-10.27-4.94-12.44l2.11-.12c.63-.04,1.11-.56,1.11-1.19,.01-.18,.01-.41,.03-.67,1.39-.42,3.1-.76,3.82-.89,.51-.1,.9-.51,.96-1.02,.03-.22,.1-.52,.25-.81,.57-.12,1.19-.17,1.83-.17s1.33,.05,2,.17c.06,.01,.13,.02,.21,.02,.19,0,.39-.05,.56-.15Z">
</path>
<path class="cls-17" d="M51.5,53.47c0,3.83,0,8.99,0,8.99,0,0,1.08,2.99,3.76,4.44,1.99,1.08,3.38,3.09,3.98,4.05,.05-.09,.12-.16,.19-.23,3.06-2.8,4.56-10.27,4.94-12.44l-2.11-.12c-.63-.04-1.11-.56-1.11-1.19-.01-.18-.01-.41-.03-.67-1.39-.42-3.1-.76-3.82-.89-.51-.1-.9-.51-.96-1.02-.03-.22-.1-.52-.25-.81-.57-.12-1.19-.17-1.83-.17s-1.33,.05-2,.17c-.06,.01-.13,.02-.21,.02-.19,0-.39-.05-.56-.15Z">
</path>
<path class="cls-21" d="M21.08,47.37s-3.14,.15-3.14,2.68v12.42s-1.07,2.99-3.76,4.44-4.29,4.6-4.29,4.6c0,0,9.73,8.43,27.13,8.43s23.3-7.13,23.3-7.13c0,0,.15-1.53-2.07-3.83s-6.28-3.99-6.67-7.66-.15-11.88-.15-11.88c0,0-.65-2.52-2.85-2.33-.59,4.25-.59,5.86-.59,5.86,0,0-2.3,4.22-8.2,5.29-3.07,.46-4.67,1.61-5.06,2.61-1.76-2.22-3.07-1.76-6.36-3.07s-6.51-4.29-6.9-5.59c-.08-3.37-.38-4.83-.38-4.83Z">
</path>
<path class="cls-18" d="M51.71,67.36s-5.57,4.93-14.33,8c-.55,.19-.38,1.01,.2,.97,10.04-.68,19.54-3.97,19.54-3.97,0,0-1.96-3.93-5.4-4.99Z">
</path>
<path class="cls-18" d="M35.02,61.32v9.9s8.09,0,13.51-4.91v-12.72s-1.88,3.18-7.44,4.7c-3.18,.58-5.71,.65-6.07,3.03Z">
</path>
<path class="cls-3" d="M29.95,31.8l-3.89-1.46-2.19,.49s.73,2.11,2.59,2.11,3.48-1.13,3.48-1.13Z">
</path>
<path class="cls-2" d="M34.66,55.49V14.53s7.38-1.04,11.77,1.5,6.23,12,6.23,12l-1.73,13.27s-1.96,6.23-6.58,10.04c-5.54,4.04-7.04,4.38-9.69,4.15Z">
</path>
<path class="cls-4" d="M48.97,31.46s-.73,1.94-4.8,3.54c-3.78,1.16-6.64-2.23-6.64-2.23,0,0,4.32-1.99,6.74-2.33s4.7,1.02,4.7,1.02Z">
</path>
<path class="cls-3" d="M39.99,32.14l4.82-1.85,2.23,.74s-.8,1.61-2.41,1.98-4.64-.87-4.64-.87Z">
</path>
<path class="cls-1" d="M41.03,18.26c-.5,1.37-1.4,3.29-2.86,4.72l-2.93,2.86,3.95-1.07c2.94-.8,5.08-2.25,6.37-3.35,.39,1.24,1.14,2.78,2.52,3.79,.91,.66,1.86,1.6,2.82,2.79,0,.17,0,.34,0,.51-.03,.78,.48,1.5,1.26,1.75,.16,.04,.32,.07,.48,.07,.61,0,1.17-.31,1.5-.85,.8-1.34,1.55-2.35,2.17-3.09,.52,2.4,1.03,6.09-.05,8.34-.15,.2-.31,.41-.49,.63-.66,.86-1.63,2.13-2.53,2.82l.62-5.57c.11-.96-.58-1.83-1.54-1.94h-.03s-.03,0-.03,0h-.07s-.03,0-.03,0c-.9,0-1.67,.66-1.77,1.55l-.83,7.42c-.03,.07-.06,.15-.08,.24-.73,3.3-1.29,5.15-2.3,6.08-.21,.2-.48,.51-.86,.94l-.08,.09c-1.26,1.44-3.61,4.11-6.92,6-1.4,.8-2.98,1.22-4.57,1.22s-3.16-.42-4.57-1.22c-3.38-1.92-5.7-4.62-6.96-6.07l-.17-.19c-.31-.35-.53-.6-.71-.75-1-.94-1.55-2.76-2.27-5.99l-.87-7.76c-.1-.88-.86-1.55-1.75-1.55-.05,0-.1,0-.18,0-.47,.05-.88,.29-1.18,.66-.29,.37-.42,.82-.37,1.28l.63,5.62c-.89-.66-1.88-1.92-2.59-2.85-.12-.17-.25-.32-.37-.48l-.15-.19c-1.08-2.25-.56-5.94-.03-8.33,.62,.75,1.37,1.76,2.18,3.09,.31,.52,.89,.85,1.5,.85,.17,0,.33-.02,.52-.08,.77-.25,1.28-.98,1.22-1.74-.01-.37,0-.79,.05-1.34,.24-.34,.54-.74,.9-1.18-.49,1.69-.46,2.52-.45,2.66l.32,4.44,1.72-4.11s1.19-2.75,5.54-4.89c1.69-.83,3.16-1.64,4.36-2.34-.96,1.58-2.04,3.17-2.88,3.93l-4.57,4.12,5.68-2.35c4.02-1.66,5.64-3.58,7.35-5.6,.42-.49,.85-1.01,1.33-1.52,1-1.09,2.13-1.7,3.03-2.04m1.55-1.47s-2.99,.21-5.37,2.8c-2.39,2.58-3.55,4.9-8.3,6.86,2.11-1.9,5.17-7.89,5.17-7.89,0,0-2.99,2.18-7.83,4.56-4.83,2.38-6.05,5.44-6.05,5.44,0,0-.14-1.97,2.17-6.66-2.23,1.53-3.89,3.67-4.71,4.87-.06,.61-.11,1.2-.09,1.76,.02,.31-.18,.59-.49,.69-.06,.02-.13,.03-.19,.03-.23,0-.46-.12-.59-.33-1.51-2.5-2.85-3.96-3.64-4.69-.64,2.24-1.95,7.83-.31,11.05,.18,.24,.38,.48,.57,.73,1.31,1.68,2.89,3.72,4.49,3.72,.06,0,.13,0,.19,0l-.81-7.24c-.04-.38,.23-.72,.61-.77,.02,0,.04,0,.06,0,.34,0,.66,.26,.7,.61l.88,7.81c.79,3.57,1.38,5.46,2.59,6.59,.18,.16,.45,.48,.81,.88,1.3,1.5,3.72,4.29,7.23,6.29,1.59,.91,3.34,1.36,5.09,1.36s3.5-.45,5.09-1.36c3.49-1.99,5.91-4.77,7.22-6.26,.37-.42,.65-.75,.83-.92,1.21-1.12,1.81-3.03,2.6-6.63,.01-.05,.05-.11,.08-.16l.85-7.61c.04-.35,.36-.61,.71-.61,.01,0,.03,0,.04,0,.38,.04,.65,.39,.61,.77l-.81,7.24s.09,0,.13,0c1.6,0,3.19-2.04,4.48-3.73,.19-.25,.38-.49,.55-.71,1.64-3.23,.34-8.82-.29-11.05-.79,.72-2.14,2.18-3.64,4.69-.13,.21-.35,.33-.59,.33-.06,0-.13,0-.19-.03-.3-.1-.5-.38-.49-.69,.01-.3,0-.61-.01-.93-.7-.9-1.86-2.26-3.24-3.26-2.24-1.63-2.52-5.04-2.52-5.04,0,0-2.51,3.13-7.27,4.43,2.79-2.72,3.67-6.95,3.67-6.95h0Z">
</path>
<path class="cls-1" d="M28.69,38.88s5.06-4.95,12.68-.32l.85,1.7s-7.14,3.14-14.11-.05c.43-.96,.59-1.33,.59-1.33Z">
</path>
<path class="cls-2" d="M30.66,45.77s.74-1.7,1.11-1.98c.55,.87,.78,1.7,.78,1.7l-1.89,.28Z">
</path>
<path d="M40.9,54.84l-6.07,5.68-2.58-2.05s-5.22-.92-7.46-2.31-3.04-3.7-3.04-3.7l.13-3.76s5.08,3.9,6.21,4.95,4.95,2.51,7.92,2.24,4.89-1.06,4.89-1.06Z">
</path>
<path class="cls-4" d="M40.7,38.12s-5.01,2.09-10.76-.58c-1.56,1.46-1.9,2.87-1.9,2.87,0,0,8.71,2.09,13.72-.73-.19-.97-1.07-1.56-1.07-1.56Z">
</path>
<path class="cls-2" d="M53.76,27.56l2.43-.97s2.03,7.21-2.35,12.96c4.7-3.97,5.75-7.29,4.7-11.18s-1.38-4.86-1.38-4.86c0,0-2.86,2.69-3.4,4.05Z">
</path>
<path d="M12.29,23.85s-2.58,7.56-.62,11.39,5.16,5.25,6.4,5.16c.88-5.6-.55-12.03-.55-12.03,0,0-3.45-5.14-5.23-4.51Z">
</path>
<path class="cls-1" d="M12.7,24.64c.02,3.27-.42,6.45,.26,9.63,.24,1,.61,1.96,1.15,3.01l-.07,.08c-3.33-3.13-2.91-9.02-1.34-12.72h0Z">
</path>
<polygon class="cls-2" points="18.04 55.62 14.96 55.29 15.24 57.06 10.4 57.81 10.92 59.71 3.84 60.32 4.45 57.99 7.29 57.57 7.89 55.99 12.36 54.73 13.2 53.11 17.85 53.15 18.04 55.62">
</polygon>
<polygon class="cls-2" points="51.94 55.62 55.01 55.29 54.73 57.06 59.57 57.81 59.05 59.71 66.13 60.32 65.52 57.99 62.68 57.57 62.08 55.99 57.61 54.73 56.77 53.11 52.12 53.15 51.94 55.62">
</polygon>
<polyline class="cls-11" points="34.74 61.43 34.74 71.23 26.32 78.45">
</polyline>
<path class="cls-11" d="M21.08,53.4s1.5,3.83,6.6,5.34c3.93,.84,7.07,.67,7.07,6.48">
</path>
<path class="cls-11" d="M48.3,53.4s-1.5,3.83-6.6,5.34c-3.93,.84-6.96,.67-6.96,6.48">
</path>
<path class="cls-19" d="M39.7,58.52s1.21,.99,.36,1.66c3.77-.72,6.1-2.38,7.27-3.63-.85,0-.81-1.26-.81-1.26,0,0-2.06,2.29-6.82,3.23Z">
</path>
<path class="cls-5" d="M28.68,63.5c1.95,.34,3.3,2.08,3.11,4.05-1.96-.33-3.29-2.08-3.11-4.05h0Z">
</path>
<path class="cls-5" d="M40.9,63.5c.18,1.97-1.15,3.72-3.11,4.05-.19-1.98,1.16-3.71,3.11-4.05h0Z">
</path>
<path class="cls-5" d="M44.86,62.15c.1,1.93-1.3,3.56-3.23,3.72-.11-1.94,1.31-3.55,3.23-3.72h0Z">
</path>
<path class="cls-5" d="M49.15,59.62c.18,1.97-1.15,3.72-3.11,4.05-.19-1.98,1.16-3.71,3.11-4.05h0Z">
</path>
<path class="cls-8" d="M34.76,12.26c2.26,0,5.27,.38,7.75,.77,3.04,.48,5.66,2.34,7.1,5.06,1.69,3.19,3.16,7.02,3.02,10.48,2.5-4.16,4.58-5.52,4.58-5.52,0,0,2.81,8.24,.52,12.61-1.66,2.09-3.96,5.62-6.56,4.58-.83,3.75-1.46,5.73-2.81,6.98-.83,.77-3.63,4.67-8.18,7.26-3.38,1.92-7.48,1.92-10.85,0-4.55-2.59-7.35-6.5-8.17-7.26-1.35-1.25-1.98-3.23-2.81-6.98-2.6,1.04-4.9-2.5-6.57-4.58-2.29-4.38,.53-12.61,.53-12.61,0,0,2.08,1.36,4.58,5.52-.14-3.46,1.34-7.29,3.03-10.48,1.44-2.71,4.06-4.58,7.09-5.06,2.47-.39,5.48-.78,7.75-.78Z">
</path>
<path class="cls-8" d="M20.96,47.21s-2.81,.12-2.99,2.7c.12,1.88,.23,10.84,.23,10.84,0,0-.18,3.72-4.26,6.17s-4.09,4.54-4.09,4.54">
</path>
<path class="cls-8" d="M18.09,53.28s-2.53-.71-5.06-.13c-.52,.78-.45,1.69-.45,1.69,0,0-2.79,.45-4.73,1.1-.13,1.43,0,1.69,0,1.69l-3.37,.19">
</path>
<path class="cls-8" d="M48.62,47.21s2.81,.12,2.99,2.7c-.12,1.88-.23,10.84-.23,10.84,0,0,.18,3.72,4.26,6.17s4.09,4.54,4.09,4.54">
</path>
<path class="cls-8" d="M51.49,53.28s2.53-.71,5.06-.13c.52,.78,.45,1.69,.45,1.69,0,0,2.79,.45,4.73,1.1,.13,1.43,0,1.69,0,1.69l3.37,.19">
</path>
<path d="M52.63,28.57s-1.68-2.59-3.93-4.22-2.52-5.03-2.52-5.03c0,0-2.52,3.13-7.28,4.42,2.79-2.72,3.67-6.94,3.67-6.94,0,0-2.99,.2-5.37,2.79s-3.54,4.9-8.3,6.87c2.11-1.91,5.17-7.89,5.17-7.89,0,0-2.99,2.18-7.82,4.56s-6.06,5.44-6.06,5.44c0,0-.14-1.97,2.18-6.67-3.27,2.25-5.31,5.78-5.31,5.78,0,0,1.64-9.18,5.72-12.75,3.56-2.46,13.16-2.79,17.56-2.53s7.52,2.85,9.53,6.16,2.76,10.01,2.76,10.01Z">
</path>
<line class="cls-8" x1="17.47" y1="32.4" x2="18.35" y2="40.24">
</line>
<line class="cls-8" x1="52.12" y1="32.4" x2="51.24" y2="40.24">
</line>
<path d="M20.28,31.71c1.69-1.02,3.47-1.87,5.49-2.02,2.49,.49,4.93,1.29,7.09,2.67,0,0-.59,.1-.59,.1,.16-.17,.34-.42,.49-.67,.46-.79,.68-1.64,.68-2.59,.49,1.24,.3,2.73-.46,3.85-.14,.2-.4,.22-.59,.1-1.93-.92-5.18-1.83-6.67-2.33-1.52,0-3.89,.6-5.43,.88h0Z">
</path>
<path d="M49.89,31.71c-1.55-.29-3.91-.89-5.43-.88-1.5,.5-4.74,1.41-6.67,2.33-.2,.12-.46,.09-.59-.1-.76-1.12-.95-2.61-.46-3.85,0,.94,.22,1.8,.68,2.59,.14,.24,.33,.49,.49,.67l-.59-.1c2.15-1.38,4.6-2.18,7.09-2.67,2.03,.15,3.8,1.01,5.49,2.02h0Z">
</path>
<path class="cls-8" d="M23.48,30.99s.64,1.71,2.69,2.06c3.18-.1,4.36-1.22,4.36-1.22">
</path>
<path class="cls-8" d="M46.59,30.99s-.64,1.71-2.69,2.06c-3.18-.1-4.36-1.22-4.36-1.22">
</path>
<path d="M33.6,34.19c-.62,1.38-1.86,2.66-3.11,3.32-1.91,1.35-2.84,3.81-3.37,6.06-.16-2.5,.79-5.26,3-6.67,1.33-.64,2.48-1.61,3.48-2.71h0Z">
</path>
<path d="M36.51,34.19c1,1.11,2.15,2.08,3.48,2.71,2.21,1.42,3.16,4.17,3,6.67-.53-2.25-1.46-4.71-3.37-6.06-1.25-.66-2.49-1.95-3.11-3.32h0Z">
</path>
<path class="cls-9" d="M41.45,38.93c-1.02,.49-2.02,.83-2.98,1.06,.53-.42,.95-.92,.64-1.28-.66-.76-2.65-.55-2.65-.55l.86,2.06c-1.93,.31-3.66,.21-5.06-.04l.85-2.02s-1.99-.21-2.66,.55c-.29,.34,.05,.79,.54,1.2h0c-1.41-.36-2.24-.79-2.24-.79">
</path>
<g >
<path d="M28.71,48.36c.38-1.09,.91-2.35,2.01-2.89,3.15-.64,6.66-.96,9.68,.29,.53,.75,.93,1.6,1.09,2.49-.49-.75-1.07-1.4-1.68-1.98l.18,.12c-3.01-.38-6.1-.18-9.14-.04,0,0,.13-.04,.13-.04-.87,.38-1.62,1.31-2.28,2.05h0Z">
</path>
<path class="cls-9" d="M30.27,46.01s.92-1.9,1.46-2.43c.68,1.7,.92,2.09,.92,2.09">
</path>
<path class="cls-9" d="M40.04,46.01s-.92-1.9-1.46-2.43c-.68,1.7-.92,2.09-.92,2.09">
</path>
</g>
<path class="cls-8" d="M21.48,47.91v4.38s2.06,5.29,9.4,6.08c2.43,.33,3.87,1.7,3.87,3.28">
</path>
<path class="cls-8" d="M48.03,47.91v4.38s-2.06,5.29-9.4,6.08c-2.43,.33-3.87,1.7-3.87,3.28">
</path>
<path class="cls-8" d="M18.2,60.39c0,5.93,7.44,10.74,16.61,10.74s16.61-4.81,16.61-10.74">
</path>
<path d="M23.19,33.61c1.31,.69,2.33,.93,3.74,1.37-1.31,.68-3.26,.09-3.74-1.37h0Z">
</path>
<path d="M46.95,33.61c-.48,1.46-2.44,2.05-3.74,1.37,1.42-.44,2.43-.67,3.74-1.37h0Z">
</path>
<path class="cls-14" d="M20.95,18.71s2.66-3.27,4.9-4.12c-.17,2.32,5.41-.52,11.08,.26-4.21,2.23-9.8,1.8-15.98,3.87Z">
</path>
<path d="M21.17,53.8v-6.39l-2.75,1.6v8.48l-1.98-.51,.29,2.11-4.23,.22,.66,1.97-6.05,1.09,2.7,8.38,.32-.17,.31,.98,9.68,2.4,5.42-4.35v-10.58c-3.29-1.78-4.35-5.23-4.35-5.23Z">
</path>
<path class="cls-5" d="M24.72,62.15c1.93,.17,3.34,1.79,3.23,3.72-1.93-.17-3.33-1.79-3.23-3.72h0Z">
</path>
<path class="cls-5" d="M20.43,59.62c1.95,.34,3.3,2.08,3.11,4.05-1.96-.33-3.29-2.08-3.11-4.05h0Z">
</path>
<path class="cls-2" d="M41.74,55.8l4.77-4.42s-.35,2.97-4.77,4.42Z">
</path>
</g>

  <path
     style="opacity:1;vector-effect:none;fill:#8d5fd3;fill-opacity:1;fill-rule:nonzero;stroke:none;stroke-width:2.35769176;stroke-linecap:butt;stroke-linejoin:miter;stroke-miterlimit:4;stroke-dasharray:none;stroke-dashoffset:0;stroke-opacity:0.44186048"
     d="M 0,1.2e-7 V 80 H 69 V 1.2e-7 Z M 35.240234,4.658203 c 6.067554,0.1120422 16.269844,1.4698438 23.589844,3.8398438 3.46,9.2400002 5.269531,19.9506252 5.269531,31.1406252 0,11.47 -1.89,22.390234 -5.5,31.740234 -7.2,2.16 -14.940375,3.376539 -23.019531,3.259766 -8.580486,-0.124019 -18.036001,-1.572896 -25.240234,-3.86914 -3.4500003,-9.22 -5.2597659,-19.930859 -5.2597659,-31.130859 0,-11.2 1.8904687,-22.380469 5.4804689,-31.730469 C 17.682894,5.1336941 29.17268,4.5461608 35.240234,4.658203 Z"
     id="rect4304" />


</svg>
