<svg id="Capa_2" xmlns="http://www.w3.org/2000/svg" xmlns:xlink="http://www.w3.org/1999/xlink" viewBox="0 0 69.02 80">
<defs >
<style >
.cls-1{fill:#c89aed;}.cls-2{fill:#fff;}.cls-3{fill:#f8ffbf;}.cls-4{fill:#7b7be8;}.cls-5{fill:#a88347;}.cls-6{fill:#782ab5;}.cls-7{stroke-miterlimit:10;}.cls-7,.cls-8,.cls-9{stroke:#000;}.cls-7,.cls-8,.cls-9,.cls-10,.cls-11,.cls-12{fill:none;}.cls-8{stroke-width:1.27px;}.cls-8,.cls-9,.cls-10{stroke-linecap:round;stroke-linejoin:round;}.cls-10{stroke:#deb778;stroke-dasharray:0 0 0 4.06;}.cls-13{fill:url(#USGS_19_Inundación_de_tierra);}.cls-14{fill:#deb778;}.cls-12{stroke:#1d1d1b;stroke-dasharray:0 0 2 2;stroke-width:.3px;}.cls-15{fill:#cf5f2b;}.cls-16{fill:#fcf0c5;}.cls-17{fill:#b83521;}
</style>
<pattern id="USGS_19_Inundación_de_tierra" x="0" y="0" width="72" height="72" patternTransform="translate(-308.48 -15991) rotate(-90)" patternUnits="userSpaceOnUse" viewBox="0 0 72 72">
<g >
<rect class="cls-11" width="72" height="72">
</rect>
<g >
<line class="cls-12" x1="71" y1="71" x2="144.44" y2="71">
</line>
<line class="cls-12" x1="71" y1="67" x2="144.44" y2="67">
</line>
<line class="cls-12" x1="71" y1="63" x2="144.44" y2="63">
</line>
<line class="cls-12" x1="71" y1="59" x2="144.44" y2="59">
</line>
<line class="cls-12" x1="71" y1="55" x2="144.44" y2="55">
</line>
<line class="cls-12" x1="71" y1="51" x2="144.44" y2="51">
</line>
<line class="cls-12" x1="71" y1="47" x2="144.44" y2="47">
</line>
<line class="cls-12" x1="71" y1="43" x2="144.44" y2="43">
</line>
<line class="cls-12" x1="71" y1="39" x2="144.44" y2="39">
</line>
<line class="cls-12" x1="71" y1="35" x2="144.44" y2="35">
</line>
<line class="cls-12" x1="71" y1="31" x2="144.44" y2="31">
</line>
<line class="cls-12" x1="71" y1="27" x2="144.44" y2="27">
</line>
<line class="cls-12" x1="71" y1="23" x2="144.44" y2="23">
</line>
<line class="cls-12" x1="71" y1="19" x2="144.44" y2="19">
</line>
<line class="cls-12" x1="71" y1="15" x2="144.44" y2="15">
</line>
<line class="cls-12" x1="71" y1="11" x2="144.44" y2="11">
</line>
<line class="cls-12" x1="71" y1="7" x2="144.44" y2="7">
</line>
<line class="cls-12" x1="71" y1="3" x2="144.44" y2="3">
</line>
</g>
<g >
<line class="cls-12" x1="-1" y1="71" x2="72.44" y2="71">
</line>
<line class="cls-12" x1="-1" y1="67" x2="72.44" y2="67">
</line>
<line class="cls-12" x1="-1" y1="63" x2="72.44" y2="63">
</line>
<line class="cls-12" x1="-1" y1="59" x2="72.44" y2="59">
</line>
<line class="cls-12" x1="-1" y1="55" x2="72.44" y2="55">
</line>
<line class="cls-12" x1="-1" y1="51" x2="72.44" y2="51">
</line>
<line class="cls-12" x1="-1" y1="47" x2="72.44" y2="47">
</line>
<line class="cls-12" x1="-1" y1="43" x2="72.44" y2="43">
</line>
<line class="cls-12" x1="-1" y1="39" x2="72.44" y2="39">
</line>
<line class="cls-12" x1="-1" y1="35" x2="72.44" y2="35">
</line>
<line class="cls-12" x1="-1" y1="31" x2="72.44" y2="31">
</line>
<line class="cls-12" x1="-1" y1="27" x2="72.44" y2="27">
</line>
<line class="cls-12" x1="-1" y1="23" x2="72.44" y2="23">
</line>
<line class="cls-12" x1="-1" y1="19" x2="72.44" y2="19">
</line>
<line class="cls-12" x1="-1" y1="15" x2="72.44" y2="15">
</line>
<line class="cls-12" x1="-1" y1="11" x2="72.44" y2="11">
</line>
<line class="cls-12" x1="-1" y1="7" x2="72.44" y2="7">
</line>
<line class="cls-12" x1="-1" y1="3" x2="72.44" y2="3">
</line>
<line class="cls-12" x1="1.04" y1="69" x2="74.48" y2="69">
</line>
<line class="cls-12" x1="1.04" y1="65" x2="74.48" y2="65">
</line>
<line class="cls-12" x1="1.04" y1="61" x2="74.48" y2="61">
</line>
<line class="cls-12" x1="1.04" y1="57" x2="74.48" y2="57">
</line>
<line class="cls-12" x1="1.04" y1="53" x2="74.48" y2="53">
</line>
<line class="cls-12" x1="1.04" y1="49" x2="74.48" y2="49">
</line>
<line class="cls-12" x1="1.04" y1="45" x2="74.48" y2="45">
</line>
<line class="cls-12" x1="1.04" y1="41" x2="74.48" y2="41">
</line>
<line class="cls-12" x1="1.04" y1="37" x2="74.48" y2="37">
</line>
<line class="cls-12" x1="1.04" y1="33" x2="74.48" y2="33">
</line>
<line class="cls-12" x1="1.04" y1="29" x2="74.48" y2="29">
</line>
<line class="cls-12" x1="1.04" y1="25" x2="74.48" y2="25">
</line>
<line class="cls-12" x1="1.04" y1="21" x2="74.48" y2="21">
</line>
<line class="cls-12" x1="1.04" y1="17" x2="74.48" y2="17">
</line>
<line class="cls-12" x1="1.04" y1="13" x2="74.48" y2="13">
</line>
<line class="cls-12" x1="1.04" y1="9" x2="74.48" y2="9">
</line>
<line class="cls-12" x1="1.04" y1="5" x2="74.48" y2="5">
</line>
<line class="cls-12" x1="1.04" y1="1" x2="74.48" y2="1">
</line>
</g>
<g >
<line class="cls-12" x1="-73" y1="71" x2=".44" y2="71">
</line>
<line class="cls-12" x1="-73" y1="67" x2=".44" y2="67">
</line>
<line class="cls-12" x1="-73" y1="63" x2=".44" y2="63">
</line>
<line class="cls-12" x1="-73" y1="59" x2=".44" y2="59">
</line>
<line class="cls-12" x1="-73" y1="55" x2=".44" y2="55">
</line>
<line class="cls-12" x1="-73" y1="51" x2=".44" y2="51">
</line>
<line class="cls-12" x1="-73" y1="47" x2=".44" y2="47">
</line>
<line class="cls-12" x1="-73" y1="43" x2=".44" y2="43">
</line>
<line class="cls-12" x1="-73" y1="39" x2=".44" y2="39">
</line>
<line class="cls-12" x1="-73" y1="35" x2=".44" y2="35">
</line>
<line class="cls-12" x1="-73" y1="31" x2=".44" y2="31">
</line>
<line class="cls-12" x1="-73" y1="27" x2=".44" y2="27">
</line>
<line class="cls-12" x1="-73" y1="23" x2=".44" y2="23">
</line>
<line class="cls-12" x1="-73" y1="19" x2=".44" y2="19">
</line>
<line class="cls-12" x1="-73" y1="15" x2=".44" y2="15">
</line>
<line class="cls-12" x1="-73" y1="11" x2=".44" y2="11">
</line>
<line class="cls-12" x1="-73" y1="7" x2=".44" y2="7">
</line>
<line class="cls-12" x1="-73" y1="3" x2=".44" y2="3">
</line>
<line class="cls-12" x1="-70.96" y1="69" x2="2.48" y2="69">
</line>
<line class="cls-12" x1="-70.96" y1="65" x2="2.48" y2="65">
</line>
<line class="cls-12" x1="-70.96" y1="61" x2="2.48" y2="61">
</line>
<line class="cls-12" x1="-70.96" y1="57" x2="2.48" y2="57">
</line>
<line class="cls-12" x1="-70.96" y1="53" x2="2.48" y2="53">
</line>
<line class="cls-12" x1="-70.96" y1="49" x2="2.48" y2="49">
</line>
<line class="cls-12" x1="-70.96" y1="45" x2="2.48" y2="45">
</line>
<line class="cls-12" x1="-70.96" y1="41" x2="2.48" y2="41">
</line>
<line class="cls-12" x1="-70.96" y1="37" x2="2.48" y2="37">
</line>
<line class="cls-12" x1="-70.96" y1="33" x2="2.48" y2="33">
</line>
<line class="cls-12" x1="-70.96" y1="29" x2="2.48" y2="29">
</line>
<line class="cls-12" x1="-70.96" y1="25" x2="2.48" y2="25">
</line>
<line class="cls-12" x1="-70.96" y1="21" x2="2.48" y2="21">
</line>
<line class="cls-12" x1="-70.96" y1="17" x2="2.48" y2="17">
</line>
<line class="cls-12" x1="-70.96" y1="13" x2="2.48" y2="13">
</line>
<line class="cls-12" x1="-70.96" y1="9" x2="2.48" y2="9">
</line>
<line class="cls-12" x1="-70.96" y1="5" x2="2.48" y2="5">
</line>
<line class="cls-12" x1="-70.96" y1="1" x2="2.48" y2="1">
</line>
</g>
</g>
</pattern>
</defs>

  <path
     id="path7641-4"
     style="fill:#782ab5;fill-opacity:1;stroke:#4d4d4d;stroke-width:1.62226;stop-color:#000000"
     d="M 34.900259,1.6936052 C 14.323312,9.5265586 1.6299002,23.954051 1.5689773,39.580572 V 79.197446 H 67.963672 V 39.580572 C 67.958188,23.990066 55.374427,9.5708664 34.900259,1.6936052 Z"/>
  <path
     id="path7641-7"
     style="fill:#808080;stroke:#4d4d4d;stroke-width:1.48325;stop-color:#000000"
     d="M 34.629293,5.0425238 C 15.815619,12.204258 4.1542243,25.395327 4.1542243,39.682894 V 76.559207 H 64.859448 V 39.682894 c 0,-14.254531 -11.510452,-27.438125 -30.230155,-34.6403702 z m -0.01233,3.4358455 C 51.537073,14.988239 61.941622,26.904418 61.941622,39.788613 v 33.82806 H 7.07205 v -33.82806 c 0,-12.914055 10.539857,-24.836991 27.544909,-31.3102437 z"/>
  <path
     id="path7641-7-8"
     style="fill:#808080;stroke:#4d4d4d;stroke-width:1.35027;stop-color:#000000"
     d="M 34.618314,8.2461803 C 17.491429,14.76581 6.8755673,26.7742 6.8755673,39.780777 v 33.57007 H 62.138105 v -33.57007 c 0,-12.976504 -10.478452,-24.978088 -27.519791,-31.5345967 z m -0.01123,3.1277957 c 15.403093,5.926211 24.874795,16.774013 24.874795,28.503041 V 70.672134 H 9.5317874 V 39.877017 c 0,-11.75621 9.5948786,-22.610165 25.0752986,-28.503041 z"/>
  <path
     id="path7641-7-8-0"
     style="fill:#808080;stroke:#4d4d4d;stroke-width:1.21411;stop-color:#000000"
     d="M 34.607073,11.526302 C 19.207238,17.388502 9.6618637,28.185984 9.6618637,39.880997 V 70.06591 H 59.351809 V 39.880997 c 0,-11.667973 -9.421821,-22.459335 -24.744736,-28.354695 z m -0.0101,2.812393 c 13.849868,5.328621 22.366458,15.082547 22.366458,25.628837 V 67.657315 H 12.050234 V 39.967532 c 0,-10.570731 8.627346,-20.33019 22.546743,-25.628837 z"/>


<g id="Characters">
<path class="cls-1" d="M35.99,12.68s-9.66,1.82-14.77,7.16c-1.48,4.77-1.02,10.11-1.02,10.11,0,0-2.61-1.14-3.52,.68s.23,8.52,3.07,10.91l-.23,2.73,1.7,3.86-.91,9.77-5.91,1.82-4.66-2.84-.45,5.57-2.61,1.48v8.52l30.22,6.59,26.47-9.32,.45-5.79-1.7-.91-.91-6.36-4.88,3.64-5.11-2.27-1.59-10.11s2.14-3.26,1.82-4.88-.45-1.93-.45-1.93c0,0,3.75-3.29,3.52-7.95,.11-3.64-1.48-4.2-3.18-3.07-.45-7.5-1.36-10.56-1.36-10.56,0,0-6.59-5.91-13.97-6.82Z">
</path>
<path class="cls-17" d="M7.52,63.26l12.59-5.4s7.19,14.69,12.29,17.59c6.32-.31,6.99-.6,6.99-.6,0,0,9.09-9.39,11.59-16.69,5.2,1.8,10.69,4.6,10.69,4.6l-2.6,9.59s-18.69,5.5-35.37,2.5c-12.69-2.2-13.89-3.6-13.89-3.6l-2.3-7.99Z">
</path>
<path class="cls-2" d="M35.37,21.83V59.21s6.92,.91,9.65-2.51,4.26-8.51,4.26-8.51l2.17-5.19-.72-4.24s.47-16.44-.76-19.28c-1.65-1.26-3.37-2.36-5.05-3.29-4.29-2.37-9.55,.72-9.55,5.62Z">
</path>
<path class="cls-1" d="M35.56,13.9c3.24,.66,8.97,2.37,13.14,6.7,.49,1.3,1.03,3.82,1.03,8.58v2.87s2.7-1,2.7-1c.16-.06,.32-.09,.44-.09,.1,0,.16,.02,.22,.05,.08,.17,.22,.69,.22,1.62,0,2.41-.9,5.69-2.96,7.58l-.84,.77,.23,1.11,.09,.42c.14,.67,.07,1.35-.21,1.96-1.56,3.5-2.33,4.28-2.46,4.4l-.8,.7,.13,1.06c.29,2.27,.31,4.18,.3,4.82-.16,.44-.61,1.57-1.33,2.92l1-4.01-4.08,2.35c-1.41,.81-4.09,1.33-6.83,1.33s-5.37-.51-6.78-1.3l-4.04-2.26,.98,3.89c-.72-1.34-1.17-2.47-1.33-2.92,0-.62,.01-2.5,.3-4.77l.14-1.1-.86-.7c-.08-.07-.84-.76-2.47-4.42-.28-.62-.35-1.29-.21-1.94l.09-.41,.24-1.12-.84-.77c-2.06-1.89-2.98-5.18-2.97-7.6,0-.93,.15-1.45,.22-1.62,.06-.03,.12-.05,.22-.05,.13,0,.29,.03,.45,.1l2.71,1.03v-2.9c0-4.77,.54-7.29,1.03-8.59,4.15-4.31,9.89-6.03,13.16-6.7m0-2.03s-.08,0-.12,.01c-3.48,.67-10.01,2.54-14.67,7.53-.05,.06-.09,.12-.12,.19-.98,2.37-1.27,6.05-1.27,9.58-.35-.13-.74-.23-1.16-.23-.53,0-1.09,.15-1.59,.58-.74,.64-.86,2.2-.86,3.08,0,2.69,.95,6.63,3.62,9.08l-.09,.41c-.23,1.07-.11,2.17,.34,3.17,1.24,2.79,2.26,4.52,3.03,5.15-.35,2.83-.31,5.1-.31,5.28,0,.06,.01,.13,.03,.19,.1,.28,2.44,7.01,7.12,9.82,.1,.06,.22,.09,.33,.09,.16,0,.32-.06,.45-.18,.21-.2,.25-.52,.1-.77-1.18-2-2.05-4.18-2.6-6.37,1.83,1.02,4.85,1.56,7.76,1.56s6.01-.55,7.83-1.6c-.55,2.2-1.42,4.4-2.62,6.41-.15,.25-.11,.57,.1,.77,.12,.12,.28,.18,.45,.18,.11,0,.22-.03,.33-.09,4.68-2.81,7.02-9.53,7.12-9.82,.02-.06,.03-.13,.03-.19,0-.18,.05-2.48-.32-5.33,.77-.67,1.76-2.37,2.98-5.09,.44-.99,.56-2.08,.34-3.17l-.09-.44c2.66-2.45,3.61-6.38,3.6-9.06,0-.88-.12-2.45-.86-3.08-.5-.43-1.06-.58-1.59-.58-.41,0-.8,.09-1.14,.22,0-3.53-.29-7.21-1.27-9.57-.03-.07-.07-.14-.12-.19-4.67-4.99-11.18-6.86-14.65-7.53-.04,0-.08-.01-.12-.01h0Z">
</path>
<path class="cls-4" d="M21,38.63l3.5,5.05s3.69,2.24,8.94,2.33,9.14-.78,9.14-.78c0,0,4.57-1.26,5.25-3.89s2.24-3.3,2.62-3.3c.29,3.11,.97,5.73,.97,5.73,0,0-2.04,4.37-3.4,6.03-.39,3.79-2.24,7.48-7.19,8.84s-12.05-.49-13.61-1.65c-2.04-2.14-4.76-7.97-4.76-7.97,0,0-3.89-5.15-1.46-10.4Z">
</path>
<path class="cls-17" d="M32.39,41.08s-5.48,.64-6.85,1.53c-2.74,6.13-2.34,13.46-2.34,13.46,0,0,1.77,6.13,5.64,8.22-3.14-9.35-2.66-15.23,0-19.35,3.79,1.61,10.96,1.29,13.38-.08,4.35,6.05,1.29,15.15,.4,18.62,3.55-2.58,5.56-8.38,5.56-8.38,0,0,.08-8.95-2.9-12.82-3.14-1.05-6.37-1.29-6.37-1.29l-3.39,2.26-3.14-2.18Z">
</path>
<path class="cls-3" d="M32.01,35l-.49-2.08s-5.46-.25-6.99,.31c.8,2.57,4.6,3.92,7.48,1.78Z">
</path>
<path d="M20.12,30.33s-1.85-1.66-3.07-.13-.77,6.52,.38,8.37,2.3,2.75,2.3,2.75l.89-2.43-.51-8.56Z">
</path>
<path class="cls-1" d="M35.85,52.55v5.24s3.03-.21,5.03-1.24c-1.17-3.1-2.83-3.83-2.83-3.83l-2.21-.17Z">
</path>
<path class="cls-1" d="M29.51,45.51l2.4,2.67,7.4-.07,2.47-2.6s-6.23,1.37-12.26,0Z">
</path>
<path class="cls-15" d="M25.14,44.28s.82,2.88,2.74,2.05c-1.92,5-1.23,8.22-1.23,8.22,0,0-2.12-3.77-3.36-2.26,.41-4.73,1.85-8.01,1.85-8.01Z">
</path>
<path class="cls-15" d="M46.17,44.28s-.82,2.88-2.74,2.05c1.92,5,1.23,8.22,1.23,8.22,0,0,2.12-3.77,3.36-2.26-.41-4.73-1.85-8.01-1.85-8.01Z">
</path>
<path class="cls-2" d="M51.89,29.81s2.57,3.3,1.04,8.92c2.75-5.19,1.95-8.49,1.04-8.86s-2.08-.06-2.08-.06Z">
</path>
<path d="M43.34,58.27l-13.67,14.34s-8.2-6.8-9.78-14.83c1.24-6.55,1.24-9.03,1.24-9.03l1.99,1.41,.08,5.8s2.73,6.38,5.47,8.12c-1.49-4.89-1.41-6.46-1.41-6.46,0,0,6.05,3.48,16.08,.66Z">
</path>
<path class="cls-2" d="M32.06,13.93s-7.39,4.13-8.9,7.47c-1.35,5.8-1.19,15.18-2.54,16.22-.87-10.33,.72-18.05,.72-18.05,0,0,6.2-4.37,10.73-5.64Z">
</path>
<circle cx="22.85" cy="43.81" r=".35">
</circle>
<circle cx="42.89" cy="51.42" r=".35">
</circle>
<circle cx="21.78" cy="44.59" r=".35">
</circle>
<circle cx="21.74" cy="42.09" r=".35">
</circle>
<circle cx="42.23" cy="49.6" r=".35">
</circle>
<circle cx="49.3" cy="43.69" r=".35">
</circle>
<circle cx="49.3" cy="42.12" r=".35">
</circle>
<circle cx="48.34" cy="45.08" r=".35">
</circle>
<circle cx="29.15" cy="50.03" r=".35">
</circle>
<circle cx="41.45" cy="51" r=".35">
</circle>
<circle cx="29.3" cy="55.8" r=".35">
</circle>
<path d="M18.81,59.68s2.31,9.43,10.32,15.15,12.3,3.72,12.3,3.72l-33.63-4.4,.17-9.49,10.84-4.97Z">
</path>
<path d="M49.64,61.18s-3.16,6.94-8.61,12.04c4.48-.88,6.59-1.76,6.59-1.76l5.63,1.67s1.85-6.15,1.41-8.26c-2.37-.18-4.22-.7-4.22-.7l-.79-2.99Z">
</path>
<path class="cls-2" d="M49.42,58.19s-1.89,7.46-12.63,15.5c2.95-5.66,9.1-9.43,12.63-15.5Z">
</path>
<polygon class="cls-2" points="56.13 60.22 61.36 56.77 61.72 62.95 56.13 60.22">
</polygon>
<polygon class="cls-2" points="14.3 59.98 9.79 56.65 9.19 62.83 14.3 59.98">
</polygon>
<path class="cls-2" d="M56.19,62.77l6.24,2.52,.1,3.92-6.84,.6s1.01-4.02,.5-7.04Z">
</path>
<polygon class="cls-4" points="32.51 29.39 31.87 33.86 31.55 32.97 24.33 33.03 22.99 30.79 26.12 29.39 32.51 29.39">
</polygon>
<path class="cls-8" d="M48.01,49.96c.89-.71,2.14-3.29,2.87-4.93,.39-.87,.49-1.84,.3-2.78l-.68-3.22s1.68-13.59-.63-19.18c-4.5-4.81-10.79-6.66-14.31-7.34-3.52,.68-9.83,2.53-14.33,7.34-2.31,5.59-.62,19.18-.62,19.18l-.68,3.22c-.2,.94-.09,1.91,.3,2.78,.73,1.64,1.98,4.22,2.87,4.93">
</path>
<path class="cls-8" d="M19.97,41.39c-3.87-3.36-4.13-10.33-2.93-11.36s2.75,.09,2.75,.09">
</path>
<path class="cls-8" d="M51.28,30.11s1.55-1.12,2.75-.09,.95,8.01-2.93,11.36">
</path>
<path class="cls-8" d="M38.9,41.24s4.15,.09,6.56,1.22c2.9,4.79,2.7,13.24,2.7,13.24,0,0-2.31,6.76-6.85,9.48,3.95-6.67,4.63-15.68,1.06-20.37-2.1,.98-5.24,1.18-6.67,1.21h-.13c-1.38-.02-4.63-.2-6.77-1.21-3.57,4.69-2.89,13.7,1.06,20.37-4.53-2.72-6.85-9.48-6.85-9.48,0,0-.2-8.45,2.7-13.24,2.41-1.13,6.56-1.22,6.56-1.22">
</path>
<path class="cls-8" d="M44.4,56.24c0,1.75-3.96,3.17-8.85,3.17s-8.85-1.42-8.85-3.17">
</path>
<path d="M30.64,47.01c.49,.25,.94,.54,1.37,.85l-.2-.1c2.17-.07,5.23-.04,7.42-.03,0,0-.18,.09-.18,.09,.42-.29,.85-.58,1.33-.81-.29,.48-.55,.99-.93,1.36-2.49,.82-5.21,.79-7.72,.08-.42-.16-.8-1.03-1.09-1.45h0Z">
</path>
<path d="M30.35,54.14c.4-1.19,.89-2.51,1.81-3.4,2.29-.71,5.04-.82,7.21,.27,.68,.96,1.2,2.01,1.52,3.13-.78-.86-1.51-1.72-2.28-2.49l.24,.15c-2.12-.43-4.25-.42-6.38-.1,0,0,.27-.16,.27-.16-.81,.8-1.57,1.7-2.38,2.6h0Z">
</path>
<path class="cls-9" d="M37.49,33.61l-.16,2.84s1.82,2.31,2.36,3.48c-.87,1.5-2.82,2.61-4.12,3.19-1.3-.58-3.26-1.69-4.13-3.19,.53-1.17,2.35-3.48,2.35-3.48l-.16-2.84">
</path>
<path d="M22.7,32.29c.04,.69,.28,1.36,.69,1.88-.55,3.08-.81,6.93,1.65,9.27,.03,.03-.05,.06-.06,.08,0,0-.32,.29-.32,.29l-.22,.13c-.28,.15-.37-.12-.54-.26-2.25-2.62-1.92-6.57-.91-9.6,0,0,.09,.32,.09,.32-.5-.68-.54-1.42-.49-2.11,0-.06,.09-.07,.1,0h0Z">
</path>
<path d="M49.03,32.29c-.03,.58-.3,1.61-.68,1.85,.54,3.05,.98,7.21-1.71,9.38,0,0-.02,0-.02,0l-.04-.08-.2-.39c-.03-.09-.21-.41-.12-.44,1-.9,1.34-2.28,1.57-3.6,.25-1.57,.22-3.22,.12-4.88,0-.09,.04-.17,.1-.21,.43-.32,.7-.99,.88-1.62,0-.06,.11-.06,.1,0h0Z">
</path>
<path d="M49.04,31.8c0,3.36-2.68,6.74-5.77,6.74-5.55,0-6.08-2.73-6.08-6.09s2.94-5.3,6.03-5.3c4.87,0,5.82,1.29,5.82,4.65Z">
</path>
<path class="cls-7" d="M39.84,30.89s-9.66-9.26-19.69-6.46">
</path>
<path class="cls-7" d="M47.06,32.25c.19,.06,2.67,.19,4.1-2.98">
</path>
<path d="M32.04,35.12c-2.03,1.63-5.64,1.87-7.27,.05-.47-.76-.7-1.65-.94-2.5,1.37-.42,2.81-.51,4.18-.44,1.26,.07,2.51,.23,3.74,.52,.07,.57,.15,1.13,.2,1.7-.2-.5-.36-1.01-.53-1.52l.15,.14c-2.31-.02-4.77-.15-6.98,.42,0,0,.34-.61,.34-.61,.19,.6,.34,1.2,.65,1.74,0,0,.07,.07-.04-.02,1.74,1.59,4.44,1.33,6.51,.51h0Z">
</path>
<path d="M22.97,30.82s1.74-.53,2.41-.74c3.05,.43,6.91,.5,6.91,.5l.57-2.06s-5.28-.43-7.37-.07c-1.84,1.17-2.52,2.38-2.52,2.38Z">
</path>
<path d="M27.95,20.6c3.32-1.63,7.17-1.9,10.77-1.29,1.21,.21,2.4,.58,3.5,1.14l-.02,.1c-4.66-.96-9.76-.48-14.26,.05h0Z">
</path>
<path class="cls-8" d="M21.2,47.22s-.77,7.91-1.16,10.42c-9.07,3.76-13.03,5.98-13.03,5.98">
</path>
<path class="cls-8" d="M49.68,47.51s.77,7.91,1.16,10.42c9.07,3.76,13.03,5.98,13.03,5.98">
</path>
<path class="cls-8" d="M20.04,57.64s1.37,9.76,12.22,17.51">
</path>
<path class="cls-8" d="M17.26,58.89s-2.44,7.26,.56,13.96">
</path>
<polyline class="cls-8" points="14.39 59.9 9.69 56.42 9.09 62.39">
</polyline>
<path class="cls-8" d="M50.93,57.64s-1.37,9.76-12.22,17.51">
</path>
<path class="cls-8" d="M53.72,59.43s2.44,7.26-.56,13.96">
</path>
<polyline class="cls-8" points="56.59 59.9 61.28 56.42 61.89 62.39">
</polyline>
<path class="cls-2" d="M24.4,37.01s4.02,1.23,7.09-.06c-3.01,3.18-4.91,3.46-7.09,.06Z">
</path>
<path class="cls-15" d="M41.7,28.92c1.8-.32,3.98-.87,5.6,.26,1.98,2.66-.17,6.88-3.07,7.89,0,0-.04-.09-.04-.09,.5-.43,1-.78,1.35-1.28,1.29-1.52,2.03-4.04,1.12-5.82-1.25-.91-3.29-.7-4.94-.85,0,0-.02-.1-.02-.1h0Z">
</path>
<path class="cls-1" d="M19.29,30.56c-2.07-.06-1.51,1.47-1.42,2.89,0,0,.49,4.76,.49,4.76l-.09,.05c-.43-.71-.72-1.49-.95-2.29-.37-1.59-.76-3.32-.22-4.92,.37-.86,1.47-.93,2.23-.59,0,0-.04,.09-.04,.09h0Z">
</path>
</g>
  <g
     id="g20645">
    <path
       style="fill:#808080;stroke:#4d4d4d;stroke-width:0.937908;stop-color:#000000;fill-opacity:1"
       d="m 9.541565,65.883425 a 5.4759801,5.4759801 0 0 1 5.47598,5.475981 5.4759801,5.4759801 0 0 1 -5.47598,5.47598 5.4759801,5.4759801 0 0 1 -5.4759806,-5.47598 5.4759801,5.4759801 0 0 1 5.4759806,-5.475981 z"/>
    <path
       style="fill:#808080;stroke:#4d4d4d;stroke-width:0.937908;stop-color:#000000;fill-opacity:1"
       d="m 59.472108,65.883425 a 5.4759801,5.4759801 0 0 1 5.47598,5.475981 5.4759801,5.4759801 0 0 1 -5.47598,5.47598 5.4759801,5.4759801 0 0 1 -5.475981,-5.47598 5.4759801,5.4759801 0 0 1 5.475981,-5.475981 z"/>
    <path
       id="path7641"
       style="fill:#808080;stroke:#4d4d4d;stroke-width:1.64416;stop-color:#000000"
       d="M 34.642578,1.1660156 C 13.787845,9.1047124 0.86132813,23.726855 0.86132812,39.564453 V 79.340489 H 68.152344 V 39.564453 c 0,-15.800978 -12.759199,-30.4148342 -33.509766,-38.3984374 z m -0.01367,3.8085938 C 53.384648,12.190722 64.917969,25.399665 64.917969,39.681641 v 26.507812 c -1.368656,-1.44106 -3.300993,-2.341797 -5.445313,-2.341797 -4.14856,0 -7.511718,3.363159 -7.511718,7.511719 0,2.347008 1.075662,4.442843 2.761718,5.820313 H 14.269531 c 1.756069,-1.422629 2.778281,-3.560307 2.783203,-5.820313 4.8e-5,-4.148627 -3.363091,-7.511766 -7.5117184,-7.511719 -2.0622939,0.0062 -4.0313164,0.860092 -5.4453125,2.361328 V 39.681641 c 0,-14.315076 11.6833059,-27.531508 30.5332029,-34.7070316 z"/>
    <circle
       style="fill:#4d4d4d;fill-opacity:1;stroke:#4d4d4d;stop-color:#000000"
       id="path16431"
       cx="9.6010828"
       cy="71.229652"
       r="5.06003" />
    <circle
       style="fill:#4d4d4d;fill-opacity:1;stroke:#4d4d4d;stop-color:#000000"
       id="path16431-3"
       cx="59.42292"
       cy="71.229652"
       r="5.06003" />
  </g>
</svg>
