<svg id="Capa_2" xmlns="http://www.w3.org/2000/svg" xmlns:xlink="http://www.w3.org/1999/xlink" viewBox="0 0 69.02 80">
<defs >
<style >
.cls-1{fill:#000000;}.cls-2{fill:#000;}.cls-3{fill:#000000;}.cls-4{fill:#000000;}.cls-5{fill:#000000;}.cls-6{fill:#000000;}.cls-7,.cls-8,.cls-9,.cls-10,.cls-11,.cls-12,.cls-13{fill:none;}.cls-7,.cls-8,.cls-9,.cls-13{stroke:#000;}.cls-7,.cls-9,.cls-13{stroke-miterlimit:10;}.cls-8{stroke-width:1.27px;}.cls-8,.cls-9,.cls-10,.cls-13{stroke-linecap:round;}.cls-8,.cls-10{stroke-linejoin:round;}.cls-10{stroke:#000000;stroke-dasharray:0 0 0 4.06;}.cls-14{fill:url(#USGS_19_Inundación_de_tierra);}.cls-15{fill:#000000;}.cls-12{stroke:#000000;stroke-dasharray:0 0 2 2;stroke-width:.3px;}.cls-16{fill:#000000;}.cls-13{stroke-width:.75px;}.cls-17{fill:#000000;}.cls-18{fill:#000000;}
</style>
<pattern id="USGS_19_Inundación_de_tierra" x="0" y="0" width="72" height="72" patternTransform="translate(-380.48 -15991) rotate(-90)" patternUnits="userSpaceOnUse" viewBox="0 0 72 72">
<g >
<rect class="cls-11" width="72" height="72">
</rect>
<g >
<line class="cls-12" x1="71" y1="71" x2="144.44" y2="71">
</line>
<line class="cls-12" x1="71" y1="67" x2="144.44" y2="67">
</line>
<line class="cls-12" x1="71" y1="63" x2="144.44" y2="63">
</line>
<line class="cls-12" x1="71" y1="59" x2="144.44" y2="59">
</line>
<line class="cls-12" x1="71" y1="55" x2="144.44" y2="55">
</line>
<line class="cls-12" x1="71" y1="51" x2="144.44" y2="51">
</line>
<line class="cls-12" x1="71" y1="47" x2="144.44" y2="47">
</line>
<line class="cls-12" x1="71" y1="43" x2="144.44" y2="43">
</line>
<line class="cls-12" x1="71" y1="39" x2="144.44" y2="39">
</line>
<line class="cls-12" x1="71" y1="35" x2="144.44" y2="35">
</line>
<line class="cls-12" x1="71" y1="31" x2="144.44" y2="31">
</line>
<line class="cls-12" x1="71" y1="27" x2="144.44" y2="27">
</line>
<line class="cls-12" x1="71" y1="23" x2="144.44" y2="23">
</line>
<line class="cls-12" x1="71" y1="19" x2="144.44" y2="19">
</line>
<line class="cls-12" x1="71" y1="15" x2="144.44" y2="15">
</line>
<line class="cls-12" x1="71" y1="11" x2="144.44" y2="11">
</line>
<line class="cls-12" x1="71" y1="7" x2="144.44" y2="7">
</line>
<line class="cls-12" x1="71" y1="3" x2="144.44" y2="3">
</line>
</g>
<g >
<line class="cls-12" x1="-1" y1="71" x2="72.44" y2="71">
</line>
<line class="cls-12" x1="-1" y1="67" x2="72.44" y2="67">
</line>
<line class="cls-12" x1="-1" y1="63" x2="72.44" y2="63">
</line>
<line class="cls-12" x1="-1" y1="59" x2="72.44" y2="59">
</line>
<line class="cls-12" x1="-1" y1="55" x2="72.44" y2="55">
</line>
<line class="cls-12" x1="-1" y1="51" x2="72.44" y2="51">
</line>
<line class="cls-12" x1="-1" y1="47" x2="72.44" y2="47">
</line>
<line class="cls-12" x1="-1" y1="43" x2="72.44" y2="43">
</line>
<line class="cls-12" x1="-1" y1="39" x2="72.44" y2="39">
</line>
<line class="cls-12" x1="-1" y1="35" x2="72.44" y2="35">
</line>
<line class="cls-12" x1="-1" y1="31" x2="72.44" y2="31">
</line>
<line class="cls-12" x1="-1" y1="27" x2="72.44" y2="27">
</line>
<line class="cls-12" x1="-1" y1="23" x2="72.44" y2="23">
</line>
<line class="cls-12" x1="-1" y1="19" x2="72.44" y2="19">
</line>
<line class="cls-12" x1="-1" y1="15" x2="72.44" y2="15">
</line>
<line class="cls-12" x1="-1" y1="11" x2="72.44" y2="11">
</line>
<line class="cls-12" x1="-1" y1="7" x2="72.44" y2="7">
</line>
<line class="cls-12" x1="-1" y1="3" x2="72.44" y2="3">
</line>
<line class="cls-12" x1="1.04" y1="69" x2="74.48" y2="69">
</line>
<line class="cls-12" x1="1.04" y1="65" x2="74.48" y2="65">
</line>
<line class="cls-12" x1="1.04" y1="61" x2="74.48" y2="61">
</line>
<line class="cls-12" x1="1.04" y1="57" x2="74.48" y2="57">
</line>
<line class="cls-12" x1="1.04" y1="53" x2="74.48" y2="53">
</line>
<line class="cls-12" x1="1.04" y1="49" x2="74.48" y2="49">
</line>
<line class="cls-12" x1="1.04" y1="45" x2="74.48" y2="45">
</line>
<line class="cls-12" x1="1.04" y1="41" x2="74.48" y2="41">
</line>
<line class="cls-12" x1="1.04" y1="37" x2="74.48" y2="37">
</line>
<line class="cls-12" x1="1.04" y1="33" x2="74.48" y2="33">
</line>
<line class="cls-12" x1="1.04" y1="29" x2="74.48" y2="29">
</line>
<line class="cls-12" x1="1.04" y1="25" x2="74.48" y2="25">
</line>
<line class="cls-12" x1="1.04" y1="21" x2="74.48" y2="21">
</line>
<line class="cls-12" x1="1.04" y1="17" x2="74.48" y2="17">
</line>
<line class="cls-12" x1="1.04" y1="13" x2="74.48" y2="13">
</line>
<line class="cls-12" x1="1.04" y1="9" x2="74.48" y2="9">
</line>
<line class="cls-12" x1="1.04" y1="5" x2="74.48" y2="5">
</line>
<line class="cls-12" x1="1.04" y1="1" x2="74.48" y2="1">
</line>
</g>
<g >
<line class="cls-12" x1="-73" y1="71" x2=".44" y2="71">
</line>
<line class="cls-12" x1="-73" y1="67" x2=".44" y2="67">
</line>
<line class="cls-12" x1="-73" y1="63" x2=".44" y2="63">
</line>
<line class="cls-12" x1="-73" y1="59" x2=".44" y2="59">
</line>
<line class="cls-12" x1="-73" y1="55" x2=".44" y2="55">
</line>
<line class="cls-12" x1="-73" y1="51" x2=".44" y2="51">
</line>
<line class="cls-12" x1="-73" y1="47" x2=".44" y2="47">
</line>
<line class="cls-12" x1="-73" y1="43" x2=".44" y2="43">
</line>
<line class="cls-12" x1="-73" y1="39" x2=".44" y2="39">
</line>
<line class="cls-12" x1="-73" y1="35" x2=".44" y2="35">
</line>
<line class="cls-12" x1="-73" y1="31" x2=".44" y2="31">
</line>
<line class="cls-12" x1="-73" y1="27" x2=".44" y2="27">
</line>
<line class="cls-12" x1="-73" y1="23" x2=".44" y2="23">
</line>
<line class="cls-12" x1="-73" y1="19" x2=".44" y2="19">
</line>
<line class="cls-12" x1="-73" y1="15" x2=".44" y2="15">
</line>
<line class="cls-12" x1="-73" y1="11" x2=".44" y2="11">
</line>
<line class="cls-12" x1="-73" y1="7" x2=".44" y2="7">
</line>
<line class="cls-12" x1="-73" y1="3" x2=".44" y2="3">
</line>
<line class="cls-12" x1="-70.96" y1="69" x2="2.48" y2="69">
</line>
<line class="cls-12" x1="-70.96" y1="65" x2="2.48" y2="65">
</line>
<line class="cls-12" x1="-70.96" y1="61" x2="2.48" y2="61">
</line>
<line class="cls-12" x1="-70.96" y1="57" x2="2.48" y2="57">
</line>
<line class="cls-12" x1="-70.96" y1="53" x2="2.48" y2="53">
</line>
<line class="cls-12" x1="-70.96" y1="49" x2="2.48" y2="49">
</line>
<line class="cls-12" x1="-70.96" y1="45" x2="2.48" y2="45">
</line>
<line class="cls-12" x1="-70.96" y1="41" x2="2.48" y2="41">
</line>
<line class="cls-12" x1="-70.96" y1="37" x2="2.48" y2="37">
</line>
<line class="cls-12" x1="-70.96" y1="33" x2="2.48" y2="33">
</line>
<line class="cls-12" x1="-70.96" y1="29" x2="2.48" y2="29">
</line>
<line class="cls-12" x1="-70.96" y1="25" x2="2.48" y2="25">
</line>
<line class="cls-12" x1="-70.96" y1="21" x2="2.48" y2="21">
</line>
<line class="cls-12" x1="-70.96" y1="17" x2="2.48" y2="17">
</line>
<line class="cls-12" x1="-70.96" y1="13" x2="2.48" y2="13">
</line>
<line class="cls-12" x1="-70.96" y1="9" x2="2.48" y2="9">
</line>
<line class="cls-12" x1="-70.96" y1="5" x2="2.48" y2="5">
</line>
<line class="cls-12" x1="-70.96" y1="1" x2="2.48" y2="1">
</line>
</g>
</g>
</pattern>
</defs>
  <path
     id="circle1849"
     style="fill:#AA00DD;stroke:#000000;stroke-width:2"
     d="M 34.875,3.84375 C 30.2026,3.8566827 25.91896,6.4477515 23.738281,10.580078 21.63936,9.1446679 19.156089,8.3761337 16.613281,8.375 9.636905,8.3755251 3.9818685,14.031436 3.9824219,21.007812 c 0.012178,4.019812 1.9368978,7.79383 5.1835937,10.164063 -1.8357739,2.246976 -2.8420262,5.057448 -2.8496094,7.958984 0.00713,1.935325 0.4588528,3.843134 1.3203126,5.576172 -2.4145566,2.364898 -3.7807042,5.598771 -3.7929688,8.978516 0.00466,4.996359 2.9538661,9.520462 7.523438,11.541015 0.767283,6.336372 6.140784,11.10481 12.523437,11.113282 3.186693,-0.0091 6.252191,-1.222333 8.582031,-3.396485 1.867081,1.045968 3.9693,1.600422 6.109375,1.611329 2.723791,-0.01118 5.371006,-0.902492 7.546875,-2.541016 1.56279,0.673484 3.245549,1.024252 4.947266,1.03125 6.977139,5.53e-4 12.633366,-5.655674 12.632812,-12.632813 -0.0013,-2.652818 -0.837669,-5.237911 -2.390625,-7.388671 2.480721,-2.37284 3.888874,-5.653124 3.900391,-9.085938 -9.13e-4,-3.96978 -1.867955,-7.708203 -5.041016,-10.09375 2.59288,-2.385063 4.071919,-5.744584 4.080078,-9.267578 C 64.257287,17.599796 58.601376,11.944759 51.625,11.945312 50.032147,11.955601 48.455612,12.267065 46.978516,12.863281 45.38146,7.5117456 40.459758,3.8440964 34.875,3.84375 Z"/>



<g id="Characters">
<path class="cls-5" d="M7.92,66.65l12.21-4.38s-.42-5.98,4.88-6.57h21.97l6.65,8.59,7.66,2.78v9.6l-53.96-2.39,.59-7.62Z">
</path>
<path d="M19.23,41.11s-.77,7.68-3.76,11.85c-2.41,3.37-3.28,4.53-3.28,4.53,0,0,.77,12.53,4.05,15.9,7.71,3.66,10.89,2.7,10.89,2.7,0,0-.29-4.72-2.7-7.71s-3.47-7.61-2.7-9.73,3.28-2.51,3.28-2.51l.19-3.18s-3.95-7.52-4.63-11.85c-.58,.19-1.35,0-1.35,0Z">
</path>
<path d="M49.67,43.14l-4.24,9.64-.29,4.24s2.89,2.51,3.37,5.4c.1,2.31-2.79,6.36-2.22,9.25,4.05-3.95,7.42-6.55,8.48-8.48s1.35-6.55,1.35-6.55c0,0-6.47-11.3-6.46-13.49Z">
</path>
<path class="cls-18" d="M15.82,54.44s1.21,5.6,5.7,3.08c-2.99,6.35,2.24,11.58,2.24,11.58,0,0-7.94-6.72-10.09-2.43-1.59-6.82-1.77-10.09,2.15-12.23Z">
</path>
<path class="cls-18" d="M51.58,49.52s1.15,6.65-5.01,6.41c2.79,3.37,2.55,4.52,2.55,4.52,0,0,5.09-4.27,6.9-1.97-.41-3.04-3.86-6.9-4.44-8.96Z">
</path>
<path class="cls-1" d="M27.33,15.13s-4.31,1.22-6.09,7.03c-1.59,5.44-1.41,9.56-1.41,9.56,0,0-3-4.03-4.03-3.66-1.22,5.34,.56,11.81,4.5,12.65,2.81,9.09,4.97,13.03,4.97,13.03,0,0-.47,6.65,.94,11.25,5.44,2.44,11.34,2.62,11.34,2.62l.56,2.44,1.03-2.53,2.16,.94,1.12-2.06,1.87-1.12s1.22-9.93,1.5-13.12c4.02-9.26,4.12-11.15,4.12-11.15,0,0,4.87-1.5,5.06-7.22-.19-4.03-.94-6-.94-6,0,0-3.38,3.05-3.94,4.12-.66-8.72-1.5-15.37-7.31-16.87-6.75-1.5-15.46,.09-15.46,.09Z">
</path>
<path class="cls-2" d="M35.03,54.73V26.33c0-5.01,3.09-9.5,7.77-11.29h0s3.97,1.28,5.58,5.25,1.86,12.16,1.94,15.03-1.54,10.43-3.21,13.94-7.18,9.97-7.18,9.97h0c-2.63,.23-4.9-1.85-4.9-4.49Z">
</path>
<path class="cls-3" d="M31.23,33.09s-.85-1.31-4.09-1-3.71,.93-3.71,.93c0,0,3.78,2.24,7.8,.08Z">
</path>
<path class="cls-3" d="M37.88,33.23s1.47-1.66,3.81-1.47,4.1,.98,4.1,.98c0,0-3.22,3.81-7.91,.49Z">
</path>
<path class="cls-4" d="M23.05,28.74s1.32-1.91,3.69-1.65,7.96,2.63,7.96,2.63l1.25,.07,1.97-1.25s6.25-2.24,8.16,.13c2.04,2.63,.33,4.21,.33,4.21,0,0-4.8-1.91-7.7-.53l-.74,.79h-6.43s-1.97-1.84-5.07-1.19c-2.96,.72-3.75,.92-3.75,.92,0,0-.2-1.58,.33-4.15Z">
</path>
<path class="cls-4" d="M45.63,40.32s.92,3.24-1.62,5.64c.21-2.4,.28-3.17,.28-3.17l1.34-2.47Z">
</path>
<path class="cls-4" d="M23,40.32s-.92,3.24,1.62,5.64c-.21-2.4-.28-3.17-.28-3.17l-1.34-2.47Z">
</path>
<polygon points="39.24 59.52 31.92 67.2 25.94 65.14 25.27 53.74 30.49 59.34 39.24 59.52">
</polygon>
<path class="cls-16" d="M44.26,70.29s-5.24,3.62-14.49,2.13c7.83,3.36,16.04,2.91,14.49-2.13Z">
</path>
<path class="cls-16" d="M47.62,75.01s.45-3.69,2.98-5.24,3.69-3.3,3.69-3.3l6.08,1.81v6.92l-12.74-.19Z">
</path>
<path d="M33.91,67.53s-1.39,1.02-4.62,1.11c-.42,1.11-.37,1.94-.37,1.94,0,0,2.59,1.99,7.02,2.13-4.76,.65-9.47-1.02-9.47-1.02,0,0-2.73-4.21-3.79-6.52s-1.11-8.73,2.77-8.87c.14,6.01,.6,8.55,.6,8.55,0,0,3.05,2.5,7.86,2.68Z">
</path>
<path d="M15.91,28.32s3.36,1.85,4.36,5.09c.26,5.61,.34,8.24,.34,8.24,0,0-3.67-1.51-4.74-5.43s.04-7.89,.04-7.89">
</path>
<path class="cls-1" d="M16.43,28.97c.53,2.31,.78,4.48,1.21,6.78,.12,.76,.28,1.51,.34,2.37l-.09,.05c-1.49-2.66-2.35-6.41-1.46-9.2h0Z">
</path>
<path class="cls-1" d="M35.13,15.6c.42,0,.81,.02,1.08,.04,7.58,.78,8.66,2.32,10.2,5.45,2.51,5.19,1.56,14.53,1.55,14.63,0,.07-.01,.14-.01,.21,0,2.04-.12,5.34-.39,6.27l-.07,.23c-2.44,8.36-5.99,12.71-8.67,14.92-1.28,.18-2.51,.28-3.68,.31-1.18-.03-2.41-.13-3.68-.3-2.69-2.21-6.23-6.56-8.67-14.92l-.07-.22c-.27-.94-.4-4.24-.4-6.28,0-.07,0-.14-.01-.21,0-.09-.96-9.43,1.53-14.61,1.55-3.14,2.63-4.69,10.21-5.46,.27-.03,.66-.04,1.08-.04m0-2c-.47,0-.93,.02-1.29,.05-8.11,.83-9.89,2.69-11.8,6.57-2.79,5.78-1.73,15.71-1.73,15.71,0,0,0,5.2,.48,6.84,.49,1.64,3.09,11.27,9.83,16.48,1.69,.26,3.18,.38,4.5,.4h0s0,0,0,0,0,0,0,0c1.3-.03,2.8-.14,4.5-.4,6.75-5.21,9.35-14.84,9.83-16.48,.48-1.64,.48-6.84,.48-6.84,0,0,1.06-9.92-1.74-15.71-1.91-3.87-3.69-5.74-11.8-6.57-.35-.04-.82-.05-1.29-.05h0Z">
</path>
<path class="cls-2" d="M51.49,31l1.85-.74s-.16,7.14-1.48,9.79c3.7-5.55,3.44-9.21,2.38-12.06-2.01,.69-2.75,3.02-2.75,3.02Z">
</path>
<path class="cls-8" d="M36.42,13.65c8.11,.83,9.89,2.69,11.8,6.57,2.8,5.78,1.74,15.71,1.74,15.71,0,0,0,5.2-.48,6.84-.49,1.64-3.09,11.27-9.83,16.48-1.7,.26-3.19,.38-4.5,.4t-.02,0h0c-1.31-.03-2.81-.14-4.5-.4-6.75-5.21-9.35-14.84-9.83-16.48-.48-1.64-.48-6.84-.48-6.84,0,0-1.06-9.92,1.73-15.71,1.91-3.87,3.69-5.74,11.8-6.57,.7-.07,1.87-.07,2.57,0Z">
</path>
<path d="M23.18,37.93c.11,1.86,.65,3.72,1.72,5.23,.14,1.98,.45,4.06,1.03,5.9-.8-.69-1.15-1.83-1.48-2.81-.3-.99-.45-2-.54-3.01l.17,.46c-1.16-1.66-1.58-3.83-1-5.77,0-.06,.1-.07,.1,0h0Z">
</path>
<path class="cls-9" d="M31.18,33.15s-.79-1.44-3.45-1.27-4.5,1.01-4.5,1.01c0,0,3.5,3.19,7.96,.26Z">
</path>
<path d="M23.69,35.27c1.24,.6,2.78,1.13,4.12,.7,1.19-.59,2.19-1.88,2.83-2.98,.3-.58,1.19-.12,.89,.46-.96,1.29-2.08,2.43-3.58,2.98-1.55,.31-3-.39-4.26-1.17h0Z">
</path>
<path d="M33.5,27.02s.18,1.8-1.34,2.31c-3.65-1.43-7.21-2.36-9.01-.55,1.2-2.71,3.1-3,4.11-3.19s6.24,1.43,6.24,1.43Z">
</path>
<path d="M46.08,37.93c-.06,1.78-.64,3.97-1.62,5.25-.25,1.96-.35,4.14-1.23,5.89-.03-.01-.03-.04-.03-.07,.05-1.75,.09-4.2,.27-5.91,1-1.89,1.51-2.54,2.51-5.15,0-.06,.1-.07,.1,0h0Z">
</path>
<path class="cls-9" d="M37.97,33.15s.79-1.44,3.45-1.27,4.5,1.01,4.5,1.01c0,0-3.5,3.19-7.96,.26Z">
</path>
<path d="M45.47,35.27c-2.07,1.34-4.32,1.92-6.22-.06-.58-.5-1.11-1.01-1.58-1.71-.16-.23-.1-.54,.13-.7,.26-.18,.62-.07,.74,.21,.64,1.08,1.63,2.37,2.81,2.95,1.34,.43,2.88-.1,4.12-.7h0Z">
</path>
<path d="M35.66,27.02s-.18,1.8,1.34,2.31c3.65-1.43,7.21-2.36,9.01-.55-1.2-2.71-3.1-3-4.11-3.19s-6.24,1.43-6.24,1.43Z">
</path>
<path d="M36.46,31.19c.56,3.05,1.04,6.13,.7,9.24,0,0-.14-.47-.14-.47,.64,.68,1.4,1.5,1.38,2.58-.06,1.12-1.26,1.63-1.98,2.2,0,0-1.41,.95-1.41,.95-.21,.14-.49,.13-.69,0-2.56-1.77-5.04-2.64-2-5.72,0,0-.14,.47-.14,.47-.34-3.11,.14-6.19,.7-9.24,0,2.12-.03,4.75,.1,6.85,.04,.75,.11,1.5,.26,2.19,.04,.16-.01,.33-.12,.45-.44,.55-1.39,1.47-.82,2.1,.66,.55,1.96,1.34,2.71,1.84,0,0-.69,0-.69,0l1.4-.91c.6-.52,1.86-.84,1.38-1.78-.18-.42-.52-.86-.88-1.25-.11-.12-.15-.29-.12-.44,.15-.69,.22-1.44,.26-2.19,.12-2.1,.11-4.73,.1-6.85h0Z">
</path>
<path d="M33.45,29.91c.81-.68,1.68-.69,2.49,0-.81,.69-1.68,.68-2.49,0h0Z">
</path>
<path d="M34.26,29.78l.5-2.12,.5,2.12c.15,.83-1.15,.83-1,0h0Z">
</path>
<path class="cls-13" d="M29.56,45.04s-1.03,.73-1.25,2.16">
</path>
<path class="cls-13" d="M39.75,45.04s1.03,.73,1.25,2.16">
</path>
<path class="cls-13" d="M28.6,46.51s5.06,3.6,12.19,.04">
</path>
<path d="M30.52,48.95l1.67,1.28c1.45,.27,3.32,.43,4.88,.05,.44-.28,1.07-.71,1.53-1.1,.05-.04,.1,.03,.07,.08-.35,.67-.77,1.36-1.41,1.72-1.67,.73-3.58,.64-5.27-.03,0,0-.24-.1-.24-.1-.48-.54-.93-1.12-1.29-1.82-.04-.04,0-.12,.06-.08h0Z">
</path>
<path d="M31.21,54.69c1.51-2.36,5.49-2.52,6.88,.04-2.28-1.23-4.48-1.07-6.88-.04h0Z">
</path>
<path class="cls-8" d="M20.06,32.39s-1.8-3.6-4.16-4.47c-1.74,5.15,.81,13.65,4.59,13.03">
</path>
<path class="cls-8" d="M50.13,32.39s1.8-3.6,4.16-4.47c1.74,5.15-.81,13.65-4.59,13.03">
</path>
<path class="cls-8" d="M18.92,40.8s.89,6.84-6.44,16.33c-1.53,7.16,3.38,15.85,3.38,15.85">
</path>
<path class="cls-8" d="M24.79,56.01s-2.66,.8-3.06,3.7,.72,6.2,2.49,8.85,2.9,6.2,2.9,7.48">
</path>
<path class="cls-8" d="M49.82,42.89s2.25,9.17,6.68,13.84c.4,8.45-9.25,11.27-10.54,15.77-.24-5.47,2.9-8.21,2.57-10.62-.22-1.65-1.65-3.72-3.1-5.07">
</path>
<path class="cls-8" d="M24.98,52.8s-.15,7.41,1.22,12.3">
</path>
<path class="cls-8" d="M45.28,52.8s.15,7.41-1.22,12.3">
</path>
<path class="cls-8" d="M23.28,61.85s2.48,6.41,14.25,5.56c.39,2.42,.39,3.07,.39,3.07l1.5-3.14,1.9,1.44,.98-2.68s3.73-.72,4.64-4.9">
</path>
<line class="cls-8" x1="7.98" y1="66.77" x2="12.73" y2="64.94">
</line>
<line class="cls-8" x1="54" y1="64.18" x2="60.16" y2="66.66">
</line>
<path d="M26.38,15.62l2,3.92h12.85l2.23-4.23s-9-3.77-17.08,.31Z">
</path>
<path d="M22.59,19.15l1.18,2.13-1.25,3.75-1.91,.15s.22-3.97,1.99-6.03Z">
</path>
<polygon points="20.38 27.75 21.78 28.56 20.45 32.98 20.38 27.75">
</polygon>
<path d="M47.42,19.15l-1.18,2.13,1.25,3.75,1.91,.15s-.22-3.97-1.99-6.03Z">
</path>
<polygon points="49.62 27.75 48.22 28.56 49.55 32.98 49.62 27.75">
</polygon>
<path class="cls-18" d="M41.49,16.07l-.97,2.53s-7.54-1.67-11.36-.16c-.7-1.83-1.02-2.26-1.02-2.26,0,0,5.87,1.78,13.35-.11Z">
</path>
<path class="cls-2" d="M42.75,58.83l-6.66,6.74,6.25-1.3s.97-3.49,.41-5.44Z">
</path>
<path class="cls-2" d="M24.43,37.26s4.12,1.33,6.52-1.03c-.94,3.6-3.52,4.89-4.68,5.06-1.76-1.84-1.84-4.03-1.84-4.03Z">
</path>
</g>

</svg>
