<svg id="Capa_2" xmlns="http://www.w3.org/2000/svg" xmlns:xlink="http://www.w3.org/1999/xlink" viewBox="0 0 69.02 80">
<defs >
<style >
.cls-1{fill:#c89aed;}.cls-2{fill:#fff;}.cls-3{fill:#f8ffbf;}.cls-4{fill:#7b7be8;}.cls-5{fill:#a88347;}.cls-6{fill:#782ab5;}.cls-7,.cls-8,.cls-9,.cls-10,.cls-11,.cls-12,.cls-13{fill:none;}.cls-7,.cls-8,.cls-9,.cls-11{stroke:#000;stroke-miterlimit:10;}.cls-8,.cls-9,.cls-10,.cls-11{stroke-linecap:round;}.cls-9{stroke-width:1.19px;}.cls-10{stroke:#deb778;stroke-dasharray:0 0 0 4.06;stroke-linejoin:round;}.cls-14{fill:url(#USGS_19_Inundación_de_tierra);}.cls-11{stroke-width:.5px;}.cls-15{fill:#deb778;}.cls-13{stroke:#1d1d1b;stroke-dasharray:0 0 2 2;stroke-width:.3px;}.cls-16{fill:#cf5f2b;}.cls-17{fill:#fcf0c5;}.cls-18{fill:#b83521;}
</style>
<pattern id="USGS_19_Inundación_de_tierra" x="0" y="0" width="72" height="72" patternTransform="translate(-20.48 -16063) rotate(-90)" patternUnits="userSpaceOnUse" viewBox="0 0 72 72">
<g >
<rect class="cls-12" width="72" height="72">
</rect>
<g >
<line class="cls-13" x1="71" y1="71" x2="144.44" y2="71">
</line>
<line class="cls-13" x1="71" y1="67" x2="144.44" y2="67">
</line>
<line class="cls-13" x1="71" y1="63" x2="144.44" y2="63">
</line>
<line class="cls-13" x1="71" y1="59" x2="144.44" y2="59">
</line>
<line class="cls-13" x1="71" y1="55" x2="144.44" y2="55">
</line>
<line class="cls-13" x1="71" y1="51" x2="144.44" y2="51">
</line>
<line class="cls-13" x1="71" y1="47" x2="144.44" y2="47">
</line>
<line class="cls-13" x1="71" y1="43" x2="144.44" y2="43">
</line>
<line class="cls-13" x1="71" y1="39" x2="144.44" y2="39">
</line>
<line class="cls-13" x1="71" y1="35" x2="144.44" y2="35">
</line>
<line class="cls-13" x1="71" y1="31" x2="144.44" y2="31">
</line>
<line class="cls-13" x1="71" y1="27" x2="144.44" y2="27">
</line>
<line class="cls-13" x1="71" y1="23" x2="144.44" y2="23">
</line>
<line class="cls-13" x1="71" y1="19" x2="144.44" y2="19">
</line>
<line class="cls-13" x1="71" y1="15" x2="144.44" y2="15">
</line>
<line class="cls-13" x1="71" y1="11" x2="144.44" y2="11">
</line>
<line class="cls-13" x1="71" y1="7" x2="144.44" y2="7">
</line>
<line class="cls-13" x1="71" y1="3" x2="144.44" y2="3">
</line>
</g>
<g >
<line class="cls-13" x1="-1" y1="71" x2="72.44" y2="71">
</line>
<line class="cls-13" x1="-1" y1="67" x2="72.44" y2="67">
</line>
<line class="cls-13" x1="-1" y1="63" x2="72.44" y2="63">
</line>
<line class="cls-13" x1="-1" y1="59" x2="72.44" y2="59">
</line>
<line class="cls-13" x1="-1" y1="55" x2="72.44" y2="55">
</line>
<line class="cls-13" x1="-1" y1="51" x2="72.44" y2="51">
</line>
<line class="cls-13" x1="-1" y1="47" x2="72.44" y2="47">
</line>
<line class="cls-13" x1="-1" y1="43" x2="72.44" y2="43">
</line>
<line class="cls-13" x1="-1" y1="39" x2="72.44" y2="39">
</line>
<line class="cls-13" x1="-1" y1="35" x2="72.44" y2="35">
</line>
<line class="cls-13" x1="-1" y1="31" x2="72.44" y2="31">
</line>
<line class="cls-13" x1="-1" y1="27" x2="72.44" y2="27">
</line>
<line class="cls-13" x1="-1" y1="23" x2="72.44" y2="23">
</line>
<line class="cls-13" x1="-1" y1="19" x2="72.44" y2="19">
</line>
<line class="cls-13" x1="-1" y1="15" x2="72.44" y2="15">
</line>
<line class="cls-13" x1="-1" y1="11" x2="72.44" y2="11">
</line>
<line class="cls-13" x1="-1" y1="7" x2="72.44" y2="7">
</line>
<line class="cls-13" x1="-1" y1="3" x2="72.44" y2="3">
</line>
<line class="cls-13" x1="1.04" y1="69" x2="74.48" y2="69">
</line>
<line class="cls-13" x1="1.04" y1="65" x2="74.48" y2="65">
</line>
<line class="cls-13" x1="1.04" y1="61" x2="74.48" y2="61">
</line>
<line class="cls-13" x1="1.04" y1="57" x2="74.48" y2="57">
</line>
<line class="cls-13" x1="1.04" y1="53" x2="74.48" y2="53">
</line>
<line class="cls-13" x1="1.04" y1="49" x2="74.48" y2="49">
</line>
<line class="cls-13" x1="1.04" y1="45" x2="74.48" y2="45">
</line>
<line class="cls-13" x1="1.04" y1="41" x2="74.48" y2="41">
</line>
<line class="cls-13" x1="1.04" y1="37" x2="74.48" y2="37">
</line>
<line class="cls-13" x1="1.04" y1="33" x2="74.48" y2="33">
</line>
<line class="cls-13" x1="1.04" y1="29" x2="74.48" y2="29">
</line>
<line class="cls-13" x1="1.04" y1="25" x2="74.48" y2="25">
</line>
<line class="cls-13" x1="1.04" y1="21" x2="74.48" y2="21">
</line>
<line class="cls-13" x1="1.04" y1="17" x2="74.48" y2="17">
</line>
<line class="cls-13" x1="1.04" y1="13" x2="74.48" y2="13">
</line>
<line class="cls-13" x1="1.04" y1="9" x2="74.48" y2="9">
</line>
<line class="cls-13" x1="1.04" y1="5" x2="74.48" y2="5">
</line>
<line class="cls-13" x1="1.04" y1="1" x2="74.48" y2="1">
</line>
</g>
<g >
<line class="cls-13" x1="-73" y1="71" x2=".44" y2="71">
</line>
<line class="cls-13" x1="-73" y1="67" x2=".44" y2="67">
</line>
<line class="cls-13" x1="-73" y1="63" x2=".44" y2="63">
</line>
<line class="cls-13" x1="-73" y1="59" x2=".44" y2="59">
</line>
<line class="cls-13" x1="-73" y1="55" x2=".44" y2="55">
</line>
<line class="cls-13" x1="-73" y1="51" x2=".44" y2="51">
</line>
<line class="cls-13" x1="-73" y1="47" x2=".44" y2="47">
</line>
<line class="cls-13" x1="-73" y1="43" x2=".44" y2="43">
</line>
<line class="cls-13" x1="-73" y1="39" x2=".44" y2="39">
</line>
<line class="cls-13" x1="-73" y1="35" x2=".44" y2="35">
</line>
<line class="cls-13" x1="-73" y1="31" x2=".44" y2="31">
</line>
<line class="cls-13" x1="-73" y1="27" x2=".44" y2="27">
</line>
<line class="cls-13" x1="-73" y1="23" x2=".44" y2="23">
</line>
<line class="cls-13" x1="-73" y1="19" x2=".44" y2="19">
</line>
<line class="cls-13" x1="-73" y1="15" x2=".44" y2="15">
</line>
<line class="cls-13" x1="-73" y1="11" x2=".44" y2="11">
</line>
<line class="cls-13" x1="-73" y1="7" x2=".44" y2="7">
</line>
<line class="cls-13" x1="-73" y1="3" x2=".44" y2="3">
</line>
<line class="cls-13" x1="-70.96" y1="69" x2="2.48" y2="69">
</line>
<line class="cls-13" x1="-70.96" y1="65" x2="2.48" y2="65">
</line>
<line class="cls-13" x1="-70.96" y1="61" x2="2.48" y2="61">
</line>
<line class="cls-13" x1="-70.96" y1="57" x2="2.48" y2="57">
</line>
<line class="cls-13" x1="-70.96" y1="53" x2="2.48" y2="53">
</line>
<line class="cls-13" x1="-70.96" y1="49" x2="2.48" y2="49">
</line>
<line class="cls-13" x1="-70.96" y1="45" x2="2.48" y2="45">
</line>
<line class="cls-13" x1="-70.96" y1="41" x2="2.48" y2="41">
</line>
<line class="cls-13" x1="-70.96" y1="37" x2="2.48" y2="37">
</line>
<line class="cls-13" x1="-70.96" y1="33" x2="2.48" y2="33">
</line>
<line class="cls-13" x1="-70.96" y1="29" x2="2.48" y2="29">
</line>
<line class="cls-13" x1="-70.96" y1="25" x2="2.48" y2="25">
</line>
<line class="cls-13" x1="-70.96" y1="21" x2="2.48" y2="21">
</line>
<line class="cls-13" x1="-70.96" y1="17" x2="2.48" y2="17">
</line>
<line class="cls-13" x1="-70.96" y1="13" x2="2.48" y2="13">
</line>
<line class="cls-13" x1="-70.96" y1="9" x2="2.48" y2="9">
</line>
<line class="cls-13" x1="-70.96" y1="5" x2="2.48" y2="5">
</line>
<line class="cls-13" x1="-70.96" y1="1" x2="2.48" y2="1">
</line>
</g>
</g>
</pattern>
</defs>

<g id="Characters">
<g >
<g >
<path class="cls-18" d="M26.2,55.86s-2.55-1.03-3.76,1.27c-1.4,4.31-2,8.86-2,8.86,0,0-8.01,2.12-10.74,4.55,7.83,3.76,35.13,6.19,48.71,1.27-.49-2.67-7.7-5.95-10.62-6.55-1.4-4.67-2.12-8.55-2.12-8.55,0,0-.67-1.27-2.79-1.33s-16.68,.49-16.68,.49Z">
</path>
<path class="cls-1" d="M16.37,37.72s-1.59,8.96,4.12,8.96c2.19,4.65,4.32,7.24,4.32,7.24l-.27,3.65s3.25,3.65,9.63,3.39c6.44-.4,9.23-3.52,9.23-3.52l-.4-3.19s3.39-4.38,4.91-7.57c3.65-.27,4.38-5.05,3.92-7.97-.2-5.11-1.66-14.94-1.66-14.94l-32.73,1.39-1.06,12.55Z">
</path>
<path class="cls-2" d="M47.13,44.53c-.76,2.22-3.26,8.42-8.11,10.86-1.93,.97-4.21-.48-4.21-2.65v-17.05s.17,.23,.17,.23l1.5-2.54c.15-.25,.3-.46,.46-.65l.12-.13c.62-.69,1.47-1.27,2.48-1.67,.4-.13,.86-.28,1.34-.46l-.76,.96,4.26-.08h.08c1.16-.02,2.41-.04,3.63-.3,.25,3.19,.47,9.32-.96,13.47Z">
</path>
<path d="M19.05,41.24s-6.45-8.38-5.77-16.64c3.17-6.68,11.66-13.92,11.66-13.92,5.55-.79,9.85,1.13,9.85,1.13,0,0,4.64-1.92,8.94-1.02,7.36,4.98,10.64,11.32,11.89,14.38,1.02,7.92-6.11,16.87-6.11,16.87,0,0,.91-7.92-.34-12.57-3.4,.79-5.43,.34-5.43,.34,0,0,2.38-2.94,1.81-5.55-1.58,3.74-5.32,4.53-7.7,5.77-2.72,2.04-3.17,3.74-3.17,3.74,0,0-1.13-2.04-3.51-3.28s-3.96-3.85-3.85-6.45c-2.83,4.53-2.26,6.45-1.7,7.25-4.98-.91-6.23-3.06-6.23-3.06,0,0-.79,9.51-.34,13.02Z">
</path>
<path class="cls-18" d="M18.39,19.13s-2.88,3.47-3.64,5.92c3.98-2.2,10.41-3.22,17.6-.17s16.58-5.5,22.34-1.61c-2.88-5.67-6.52-8.21-6.52-8.21,0,0-5.92,6.01-12.61,3.89s-12.61-2.71-17.18,.17Z">
</path>
<path class="cls-16" d="M24.76,18.59s4.29-.34,9.75,1.93,11.82-1.6,13.58-3.29c2.41,1.4,2.91,3.36,2.91,3.36,0,0-10.28,3.79-17,1.69-2.86-.92-4.96-2.52-9.24-3.7Z">
</path>
<path class="cls-3" d="M30.45,40.5s-3.69-3.4-7.77-1.84c1.67,3.11,6.74,3.63,7.77,1.84Z">
</path>
<path class="cls-3" d="M39.36,40.5s3.69-3.4,7.77-1.84c-1.67,3.11-6.74,3.63-7.77,1.84Z">
</path>
<path class="cls-16" d="M43.1,59.82c-2.57,2.07-8.43,5.2-17.48,.93,4.18,3.75,9.02,4.26,9.31,6.57s-3.32,4.18-5.92,4.69c6.2,1.08,13.42,1.59,17.96-5.19-.82-2.72-1.43-4.89-1.83-6.34-.24-.9-1.32-1.24-2.05-.65Z">
</path>
<path class="cls-16" d="M38.65,74.75s6.98-2.44,9.57-6.57c.38-.61,1.12-.9,1.8-.66,2.44,.86,5.8,3.02,6.57,4.68-6.5,2.97-17.94,2.56-17.94,2.56Z">
</path>
<path class="cls-4" d="M21.03,35.67l.86,2.64s6.12-.39,8.59,2.38c1.25-2.14,1.57-5.32,1.57-5.32,0,0-6.51-2.76-11.02,.3Z">
</path>
<path class="cls-4" d="M48.58,35.67l-.86,2.64s-6.12-.39-8.59,2.38c-1.25-2.14-1.57-5.32-1.57-5.32,0,0,6.51-2.76,11.02,.3Z">
</path>
<path class="cls-2" d="M24.09,42.81c1.07,.33,2.77,.64,4.63,.18,.57-.14,1.01,.5,.66,.96-1.92,2.46-3.8,2.24-5.75-.49-.23-.32,.08-.76,.46-.64Z">
</path>
<path class="cls-18" d="M39.02,50.89s-.59,1.34-1.71,1.8c-1.19,.6-2.52,.46-2.52,.46h.01s-1.33,.14-2.52-.46c-1.12-.46-1.71-1.8-1.71-1.8l3.33-1.24h2.55l2.57,1.24Z">
</path>
<path class="cls-9" d="M49.55,41.88s6.31-8,6.04-17.01c-2.79-8.27-11.71-14.21-11.71-14.21,0,0-5.03-.93-9.54,.78-4.51-1.71-9.54-.78-9.54-.78,0,0-8.92,5.94-11.7,14.21-.28,9.01,6.03,17.01,6.03,17.01">
</path>
<path d="M20.78,19.47c1.37,2.56-1.67,5.03-.97,7.59,.12,.57,.36,1.02,.78,1.38,1.44,1.27,3.31,1.92,5.15,2.5,0,0-.44,.58-.44,.58-.79-1.32-.87-3.11-.17-4.48,.63-1.38,1.57-2.48,2.06-3.7l1.43-3.55-.42,3.81c-.52,4.08,1.1,5.59,4.61,7.22,1.06,.55,2.19,1.48,2.54,2.69,0,0-1.13,.01-1.13,.01,.69-2.18,2.58-3.67,4.62-4.46,1.82-.59,3.8-1.29,4.96-2.86,1.32-1.5,.93-3.89,.73-5.73,0,0,1.11,1.94,1.11,1.94,.73,1.23,.75,2.79,.29,4.1-.44,1.3-1.19,2.42-2.08,3.42,0,0-.23-.56-.23-.56,2.46-.07,5.48,.11,7.07-2.02,1.49-2.09,1.56-4.96,.03-7.14,2.57,1.62,2.55,5.47,.83,7.78-1.8,2.49-5.27,2.36-7.97,2.05,0,0-.66-.07-.66-.07,0,0,.42-.49,.42-.49,1.46-1.76,2.75-4.45,1.46-6.58,0,0,.89-.3,.89-.3,.18,1.44-.14,3.02-1.04,4.23-2.35,3.47-7.97,2.68-9.31,7.05,0,0-.54,1.67-.54,1.67l-.58-1.66c-.81-2.15-3.28-2.39-4.97-3.8-2.09-1.45-2.46-4.32-2.11-6.63,0,0,1.02,.27,1.02,.27-1.47,3.1-3.95,4.59-1.81,8.14,0,0-.8-.16-.8-.16-4.84-.75-9.08-3.37-6.1-8.67,.69-1.1,1.3-2.19,1.31-3.58h0Z">
</path>
<path class="cls-8" d="M49.43,29.16c.29,2.69,.92,10.63-.88,15.86-1.1,3.2-5.12,12.87-13.74,12.87h-1.06c-8.62,0-12.64-9.67-13.74-12.87-2.2-6.38-.77-16.79-.77-16.79">
</path>
<path d="M38.04,19.81c.63,1.89-.45,3.91-1.93,5.15-2.11,2.21-1.9,5.48-.7,8.12,.25,.57-.6,.98-.9,.43-1.65-2.84-1.69-6.9,.92-9.22,1.47-1.1,2.64-2.48,2.61-4.48h0Z">
</path>
<path class="cls-8" d="M16.09,37.91s-1.08,8.6,3.9,8.82">
</path>
<path class="cls-8" d="M51.96,37.91s1.08,8.6-3.9,8.82">
</path>
<path d="M31.98,36.16l.78-1.63s-3.99-1.44-7.27-1.25c-2.5,.68-4.47,2.39-4.47,2.39,0,0,4.71-2.05,10.97,.49Z">
</path>
<path d="M37.67,36.16l-.78-1.63s3.99-1.44,7.27-1.25c2.5,.68,4.47,2.39,4.47,2.39,0,0-4.71-2.05-10.97,.49Z">
</path>
<path d="M30.53,40.75c-2.14-1.98-5.14-2.29-7.85-1.68,0,0,.33-.72,.33-.72,1.2,2.54,4.18,3.55,6.81,2.78-3.05,1.83-6.67,.32-8.01-2.91,3.05-.79,6.94-.38,8.72,2.53h0Z">
</path>
<path d="M38.99,40.75c1.78-2.91,5.67-3.32,8.72-2.53-1.34,3.22-4.96,4.74-8.01,2.91,2.63,.78,5.61-.23,6.81-2.78,0,0,.33,.72,.33,.72-2.71-.61-5.72-.3-7.85,1.68h0Z">
</path>
<path d="M36.2,41.57c.15,.58,.26,1.17,.39,1.75l-.04-.08c.57,.53,1.11,1.09,1.66,1.64,.09,.08,.1,.21,.04,.31-.19,.42-.38,.83-.58,1.24-.09,.18-.34,.24-.49,.11,0,0-1.2-.9-1.2-.9,0,0,.44,0,.44,0l-1.42,1.07c-.14,.1-.32,.1-.45,0l-1.41-1.07h.44c-1.64,1.18-1.39,1.55-2.3-.48-.05-.1-.02-.22,.05-.29,.55-.54,1.09-1.11,1.66-1.64l-.04,.08c.13-.58,.25-1.17,.4-1.75-.03,.62-.03,1.25-.12,1.85-.48,.62-1,1.21-1.49,1.82,0,0,.04-.31,.04-.31,.23,.4,.47,.79,.69,1.2l-.49-.11,1.16-.96c.13-.11,.31-.1,.44,0,0,0,1.43,1.05,1.43,1.05h-.45s1.44-1.05,1.44-1.05c.13-.1,.32-.1,.44,0,0,0,1.16,.96,1.16,.96l-.49,.11c.22-.4,.45-.8,.68-1.2l.04,.31c-.5-.61-1.01-1.2-1.49-1.82-.09-.6-.08-1.24-.11-1.85h0Z">
</path>
<path d="M34.93,48.59c.63,0,1.5-.18,2.54,.18,.63,1.05,2.24,2.31,2.24,2.31,0,0-1.7-.09-3.41-.9-.46,.34-1.41,.32-1.41,.32,0,0-.96,.02-1.41-.32-1.72,.82-3.41,.9-3.41,.9,0,0,1.61-1.26,2.24-2.31,1.04-.35,1.91-.18,2.54-.18h.09Z">
</path>
<path class="cls-8" d="M43.04,54.29l.29,3.29s-3,3.4-8.99,3.4h-.71c-5.99,0-8.99-3.4-8.99-3.4l.32-3.61">
</path>
<path class="cls-8" d="M43.61,55.47s1.58,.13,2.3,1.62c.64,3.02,1.96,8.69,1.96,8.69,0,0-2.98,6.94-13.16,6.94h-1.09c-10.18,0-13.16-6.94-13.16-6.94,0,0,1.32-5.67,1.96-8.69,.72-1.49,2.3-1.62,2.3-1.62">
</path>
<path class="cls-8" d="M9.58,70.34s6.47-3.27,10.97-4.79">
</path>
<path class="cls-8" d="M47.88,65.09s7.09,1.42,12.02,7.34">
</path>
<path class="cls-11" d="M30.44,60.91s-2.14,4.35-2.97,10.68">
</path>
<line class="cls-11" x1="31.09" y1="72.93" x2="30.56" y2="75.43">
</line>
<path class="cls-8" d="M22.9,51.39c-.34,2.05-1.49,3.56-2.86,3.56-1.63,0-2.96-2.15-2.96-4.8,0-2.09,.82-3.86,1.97-4.52">
</path>
<path d="M21.15,56.66v1.4c-.14-.08-.29-.15-.45-.21l-.49-.17,.17,.49c.06,.17,.13,.32,.22,.47h-1.46c.08-.14,.15-.28,.2-.44l.17-.5-.49,.19c-.16,.05-.3,.12-.44,.2v-1.46c.15,.09,.31,.16,.48,.21l.47,.15-.16-.46c-.05-.16-.12-.31-.2-.46h1.4c-.09,.15-.16,.32-.22,.49l-.15,.46,.46-.15c.18-.05,.34-.12,.49-.21Z">
</path>
<path class="cls-8" d="M45.89,51.39c.34,2.05,1.49,3.56,2.86,3.56,1.63,0,2.96-2.15,2.96-4.8,0-2.09-.82-3.86-1.97-4.52">
</path>
<path d="M47.64,56.66v1.4c.14-.08,.29-.15,.45-.21l.49-.17-.17,.49c-.06,.17-.13,.32-.22,.47h1.46c-.08-.14-.15-.28-.2-.44l-.17-.5,.49,.19c.16,.05,.3,.12,.44,.2v-1.46c-.15,.09-.31,.16-.48,.21l-.47,.15,.16-.46c.05-.16,.12-.31,.2-.46h-1.4c.09,.15,.16,.32,.22,.49l.15,.46-.46-.15c-.18-.05-.34-.12-.49-.21Z">
</path>
<path d="M40.29,56.74l-7.98,4.13s-5.77-.11-7.58-3.45c.17-2.72,.4-3.57,.4-3.57,0,0,4.64,6.79,15.17,2.89Z">
</path>
<path d="M22.71,57.11s0,1.46,.9,2.52c.66,.78,1.02,1.77,.81,2.77-.66,3.2-1.11,6.33-.6,7.05-2.04,1.43-2.4,4.69-2.4,4.69l-11.12-2.81,.41-1.43,9.74-4.64,2.25-8.16Z">
</path>
</g>
<path d="M16.65,38.44s1.72,8.59,3.71,7.83c-.96-3.44-1.31-5.29-1.31-5.29l-2.41-2.54Z">
</path>
</g>
</g>
 <g
     id="g2850">
    <g
       id="g2837">
      <path
         id="path1951"
         d="M 0.056640625 0.04296875 L 0.056640625 79.943359 L 69.308594 79.943359 L 69.308594 0.04296875 L 0.056640625 0.04296875 z M 33.615234 3.5957031 C 34.206332 3.5957038 34.786991 3.6051034 35.421875 3.6152344 C 44.430653 3.7671809 53.471255 5.1336733 61.560547 7.5546875 L 62.064453 7.7070312 L 62.25 8.1640625 C 66.070247 17.605006 66.990234 28.726438 66.990234 40.0625 C 66.990234 51.398562 65.972723 63.025755 61.988281 72.578125 L 61.791016 73.044922 L 61.275391 73.185547 C 53.273669 75.403966 44.691921 76.529297 35.759766 76.529297 C 35.212453 76.529297 34.675812 76.519896 34.150391 76.509766 L 33.943359 76.509766 C 24.901742 76.357819 15.860367 74.989738 7.7929688 72.558594 L 7.2890625 72.40625 L 7.1035156 71.951172 C 3.2942144 62.520359 2.375 51.369168 2.375 40.0625 C 2.375 28.755832 3.3819737 17.127318 7.3554688 7.5546875 L 7.5527344 7.0898438 L 8.0664062 6.9472656 C 15.509867 4.890923 23.785212 3.7371557 32.005859 3.6054688 C 32.542226 3.5953387 33.078867 3.5957031 33.615234 3.5957031 z "
         style="opacity:1;vector-effect:none;fill:#ffffff;fill-opacity:1;fill-rule:nonzero;stroke:none;stroke-width:1.95200002;stroke-linecap:butt;stroke-linejoin:miter;stroke-miterlimit:4;stroke-dasharray:none;stroke-dashoffset:0;stroke-opacity:1" />
    </g>
    <path
       id="path1154-8-2"
       d="m 33.675163,6.6112954 c 0.557696,0 1.115392,0.00956 1.683415,0.019115 8.427403,0.14336 16.803167,1.4049288 24.363042,3.6700176 3.573384,8.830981 4.443772,19.417362 4.443772,29.761551 0,10.344189 -0.95301,21.39888 -4.68131,30.334991 -7.435942,2.064385 -15.429581,3.274388 -23.774362,3.274388 -0.506058,0 -1.012115,-0.0096 -1.518172,-0.01911 h -0.17557 C 25.56792,73.508883 17.192156,72.088619 9.6426089,69.813973 6.0795528,61.002107 5.2088244,50.415411 5.2088244,40.061979 c 0,-10.353432 0.95335,-21.389323 4.6609939,-30.325434 C 16.820359,7.8155201 24.462856,6.7450981 32.177647,6.6208528 c 0.49573,-0.00956 1.001787,-0.00956 1.497516,-0.00956 m 0,-0.9557337 c -0.506057,0 -1.012114,0 -1.518171,0.00956 C 24.40089,5.7893644 16.593149,6.8789009 9.570315,8.8190405 L 9.0849131,8.9528432 8.8990146,9.3924808 C 5.1500599,18.424166 4.1999116,29.394246 4.1999116,40.061979 c 0,10.667733 0.8675267,21.188618 4.461566,30.0865 l 0.1755708,0.430081 0.4750741,0.14336 c 7.6115135,2.293761 16.1421925,3.584001 24.6728715,3.727361 h 0.196227 c 0.495729,0.0096 1.001786,0.01911 1.518171,0.01911 8.427403,0 16.524318,-1.060864 24.073866,-3.153921 l 0.485403,-0.133802 0.185898,-0.439639 c 3.759282,-9.01257 4.719759,-19.983589 4.719759,-30.679055 0,-10.695466 -0.867528,-21.188618 -4.471894,-30.0960578 L 60.516853,9.5358409 60.041779,9.3924808 C 52.409609,7.108277 43.87893,5.8180364 35.379234,5.6746763 34.780227,5.6651187 34.232859,5.6555621 33.675163,5.6555615 Z"
       style="fill:#ff0000;stroke:#ffffff;stroke-width:1.84341729;stroke-miterlimit:4;stroke-dasharray:none" />
    <path
       id="path1154"
       d="m 33.614853,4.6077955 c 0.591098,0 1.182197,0.01013 1.784241,0.02026 8.932155,0.1519464 17.809578,1.4890758 25.822246,3.8898304 3.787408,9.3599041 4.709928,20.5803481 4.709928,31.5440931 0,10.963745 -1.01009,22.680548 -4.961693,32.151879 -7.881312,2.18803 -16.353723,3.302304 -25.198307,3.302304 -0.536368,0 -1.072735,-0.01013 -1.609102,-0.02026 H 33.97608 C 25.022033,75.343956 16.14461,74.006827 8.1428892,71.595943 4.3664269,62.256298 3.443547,51.035521 3.443547,40.061979 c 0,-10.973542 1.01045,-22.670418 4.9401601,-32.1417498 7.3668369,-2.036083 15.4670749,-3.170617 23.6439369,-3.3023039 0.525421,-0.01013 1.061788,-0.01013 1.587209,-0.01013 m 0,-1.0129766 c -0.536367,0 -1.072734,0 -1.609101,0.01013 C 23.785105,3.7366356 15.509726,4.891429 8.0662653,6.9477716 L 7.5517907,7.0895883 7.3547579,7.5555576 C 3.3812628,17.128188 2.3742062,28.755311 2.3742062,40.061979 c 0,11.306668 0.9194864,22.457692 4.7287876,31.888505 l 0.1860865,0.45584 0.5035283,0.151947 c 8.0673984,2.431144 17.1090154,3.798662 26.1506324,3.950608 h 0.207979 c 0.525421,0.01013 1.061788,0.02026 1.609101,0.02026 8.932155,0 17.514028,-1.124404 25.51575,-3.342823 l 0.514475,-0.141816 0.197032,-0.46597 c 3.984442,-9.55237 5.002445,-21.180489 5.002445,-32.516551 0,-11.336062 -0.919487,-22.457692 -4.739734,-31.8986353 L 62.064202,7.7075041 61.560674,7.5555576 C 53.471382,5.1345434 44.429765,3.7670249 35.420987,3.6150784 c -0.634884,-0.01013 -1.215036,-0.020259 -1.806134,-0.02026 z"
       style="fill:#000000;stroke:#000000;stroke-width:1.95382714;stroke-miterlimit:4;stroke-dasharray:none" />
    <g
       id="g1810">
      <path
         d="M 6.5134911,7.7433673 C 5.6489029,6.8479453 4.058602,6.5681013 3.6272194,7.3820013 3.284151,8.0292783 3.3625296,8.5309135 4.395235,8.9201755 3.2963719,9.5187755 1.4857674,9.4447465 1.1893447,7.4467713 0.95320848,5.8551433 2.674739,4.8863543 3.1399725,5.0916244 3.0034432,3.6818714 1.8221094,4.0692802 0.95849208,3.2813384 0.34259068,2.7194046 0.23126071,-0.02624603 0.0561761,0.04378767 -0.0138576,0.21887227 2.7317937,0.33020157 3.2937267,0.94610377 4.0816685,1.8097211 3.6942598,2.9910547 5.1040128,3.1275841 4.8987425,2.6623507 5.8675315,0.94082017 7.4591593,1.1769564 9.4571345,1.4733791 9.5311625,3.2839847 8.9325635,4.3828467 8.5433008,3.3501417 8.041666,3.2717627 7.3943894,3.6148312 6.5804899,4.0462137 6.8603354,5.6365129 7.7557553,6.5011023"
         style="fill:#000000;stroke:#000000;stroke-width:0.1112323px;stroke-linecap:butt;stroke-linejoin:miter;stroke-opacity:1"
         id="path1737-3" />
      <path
         d="m 62.850738,7.7433673 c 0.864588,-0.895422 2.454889,-1.175266 2.886271,-0.361366 0.343069,0.647277 0.26469,1.148912 -0.768015,1.538174 1.098863,0.5986 2.909467,0.524571 3.20589,-1.473404 0.236136,-1.591628 -1.485394,-2.560417 -1.950628,-2.3551469 0.13653,-1.409753 1.317863,-1.0223442 2.181481,-1.810286 0.615901,-0.5619338 0.727231,-3.30758442 0.902316,-3.23755072 0.07003,0.1750846 -2.675618,0.2864139 -3.237551,0.9023161 C 65.28256,1.8097211 65.669969,2.9910547 64.260216,3.1275841 64.465486,2.6623507 63.496697,0.94082018 61.905069,1.1769564 c -1.997975,0.2964227 -2.072003,2.1070283 -1.473404,3.2058903 0.389263,-1.032705 0.890898,-1.111084 1.538174,-0.7680155 0.8139,0.4313825 0.534054,2.0216817 -0.361366,2.8862711"
         style="fill:#000000;stroke:#000000;stroke-width:0.1112323px;stroke-linecap:butt;stroke-linejoin:miter;stroke-opacity:1"
         id="path1737-3-5" />
      <path
         d="m 62.850738,72.244244 c 0.864588,0.895422 2.454889,1.175266 2.886272,0.361366 0.343068,-0.647277 0.264689,-1.148912 -0.768016,-1.538174 1.098863,-0.5986 2.909468,-0.524571 3.20589,1.473404 0.236137,1.591628 -1.485394,2.560417 -1.950628,2.355147 0.13653,1.409753 1.317864,1.022344 2.181481,1.810286 0.615901,0.561934 0.727231,3.307584 0.902316,3.237551 0.07003,-0.175085 -2.675618,-0.286414 -3.237551,-0.902317 -0.787942,-0.863617 -0.400533,-2.04495 -1.810286,-2.18148 0.20527,0.465234 -0.763519,2.186764 -2.355146,1.950628 -1.997976,-0.296423 -2.072004,-2.107028 -1.473405,-3.20589 0.389263,1.032705 0.890898,1.111084 1.538175,0.768015 0.813899,-0.431382 0.534054,-2.021682 -0.361366,-2.886271"
         style="fill:#000000;stroke:#000000;stroke-width:0.1112323px;stroke-linecap:butt;stroke-linejoin:miter;stroke-opacity:1"
         id="path1737-3-7" />
      <path
         d="M 6.513491,72.244245 C 5.648903,73.139667 4.058602,73.419511 3.62722,72.605611 3.284151,71.958334 3.36253,71.456699 4.395235,71.067437 c -1.098863,-0.5986 -2.909467,-0.524571 -3.20589,1.473404 -0.23613599,1.591628 1.485394,2.560417 1.950628,2.355147 -0.13653,1.409753 -1.317863,1.022344 -2.18148099,1.810286 -0.615901,0.561933 -0.727231,3.307584 -0.902316,3.23755 C -0.01385399,79.76874 2.731794,79.65741 3.293727,79.041508 4.081669,78.177891 3.69426,76.996557 5.104013,76.860028 4.898743,77.325261 5.867532,79.046792 7.45916,78.810656 9.457135,78.514233 9.531163,76.703627 8.932564,75.604765 8.543301,76.63747 8.041666,76.715849 7.39439,76.372781 6.58049,75.941398 6.860336,74.351099 7.755756,73.48651"
         style="fill:#000000;stroke:#000000;stroke-width:0.1112323px;stroke-linecap:butt;stroke-linejoin:miter;stroke-opacity:1"
         id="path1737-3-5-5" />
    </g>
    <path
       id="path1154-9"
       d="m 33.712865,7.4258691 c 0.536813,0 1.07363,0.00933 1.620386,0.01865 8.111875,0.1398689 16.174044,1.3707167 23.450873,3.5806479 3.439594,8.615932 4.277395,18.944521 4.277395,29.036812 0,10.092292 -0.917329,20.877786 -4.506039,29.596289 -7.157536,2.014114 -14.851888,3.03982 -22.884234,3.03982 -0.487111,0 -0.974221,-0.0094 -1.461331,-0.01865 H 34.040918 C 25.909161,72.53957 17.846991,71.308722 10.580105,69.089467 7.1504515,60.492184 6.3123238,50.163289 6.3123238,40.061979 c 0,-10.101311 0.9176558,-20.868461 4.4864832,-29.586965 6.690308,-1.8742449 14.046665,-2.9186005 21.472608,-3.0398203 0.47717,-0.00933 0.964281,-0.00933 1.44145,-0.00933 m 0,-0.9324602 c -0.487111,0 -0.974221,0 -1.46133,0.00933 C 24.785826,6.6239532 17.270413,7.686958 10.510517,9.5798526 L 10.043289,9.710397 9.8643508,10.139328 c -3.6085914,8.811751 -4.5231655,19.514693 -4.5231655,29.922651 0,10.407958 0.8350459,20.672644 4.294522,29.353849 l 0.1689973,0.419608 0.4572874,0.13987 c 7.326533,2.237904 15.537818,3.496724 23.749103,3.636593 h 0.188879 c 0.47717,0.0094 0.96428,0.01865 1.461331,0.01865 8.111875,0 15.905636,-1.035031 23.172525,-3.077119 l 0.467228,-0.130544 0.178938,-0.428932 c 3.618533,-8.793101 4.543048,-19.496959 4.543048,-29.931975 0,-10.435016 -0.835047,-20.672644 -4.304463,-29.363174 l -0.168997,-0.419609 -0.457288,-0.13987 C 51.74588,7.9107484 43.534594,6.6519271 35.353133,6.512058 34.776554,6.502738 34.249678,6.493409 33.712865,6.493409 Z"
       style="fill:#000000;stroke:none;stroke-width:1.78642213;stroke-miterlimit:4;stroke-dasharray:none" />
    <path
       id="path1154-9-3"
       d="m 33.712865,7.4258686 c 0.536813,0 1.07363,0.00933 1.620386,0.01865 8.111875,0.1398689 16.174044,1.3707167 23.450873,3.5806484 3.439594,8.615932 4.277395,18.944521 4.277395,29.036812 0,10.092292 -0.917329,20.877786 -4.506039,29.596288 -7.157536,2.014114 -14.851888,3.03982 -22.884234,3.03982 -0.487111,0 -0.974221,-0.0094 -1.461331,-0.01865 H 34.040918 C 25.909161,72.539569 17.846991,71.308722 10.580105,69.089466 7.1504515,60.492184 6.3123238,50.163288 6.3123238,40.061979 c 0,-10.101312 0.9176558,-20.868461 4.4864832,-29.586965 6.690308,-1.8742454 14.046665,-2.918601 21.472608,-3.0398208 0.47717,-0.00933 0.964281,-0.00933 1.44145,-0.00933 m 0,-0.9324602 c -0.487111,0 -0.974221,0 -1.46133,0.00933 C 24.785826,6.6239527 17.270413,7.6869575 10.510517,9.5798521 L 10.043289,9.7103965 9.8643508,10.139328 C 6.2557594,18.951079 5.3411853,29.65402 5.3411853,40.061979 c 0,10.407958 0.8350459,20.672643 4.294522,29.353849 l 0.1689973,0.419608 0.4572874,0.13987 c 7.326533,2.237904 15.537818,3.496724 23.749103,3.636593 h 0.188879 c 0.47717,0.0094 0.96428,0.01865 1.461331,0.01865 8.111875,0 15.905636,-1.035032 23.172525,-3.077119 l 0.467228,-0.130544 0.178938,-0.428932 c 3.618533,-8.793101 4.543048,-19.49696 4.543048,-29.931975 0,-10.435016 -0.835047,-20.672644 -4.304463,-29.363175 l -0.168997,-0.419609 -0.457288,-0.13987 C 51.74588,7.9107479 43.534594,6.6519266 35.353133,6.5120575 34.776554,6.5027375 34.249678,6.4934085 33.712865,6.4934085 Z"
       style="fill:#000000;stroke:none;stroke-width:1.78642213;stroke-miterlimit:4;stroke-dasharray:none" />
  </g>
</svg>
