<svg id="Capa_2" xmlns="http://www.w3.org/2000/svg" xmlns:xlink="http://www.w3.org/1999/xlink" viewBox="0 0 69.02 80">
<defs >
<style >
.cls-1{fill:#c89aed;}.cls-2{fill:#fff;}.cls-3{fill:#f8ffbf;}.cls-4{fill:#7b7be8;}.cls-5{fill:#a88347;}.cls-6{fill:#782ab5;}.cls-7,.cls-8,.cls-9,.cls-10,.cls-11,.cls-12,.cls-13{fill:none;}.cls-7,.cls-8,.cls-9,.cls-11{stroke:#000;stroke-miterlimit:10;}.cls-8,.cls-9,.cls-10,.cls-11{stroke-linecap:round;}.cls-9{stroke-width:1.19px;}.cls-10{stroke:#deb778;stroke-dasharray:0 0 0 4.06;stroke-linejoin:round;}.cls-14{fill:url(#USGS_19_Inundación_de_tierra);}.cls-11{stroke-width:.5px;}.cls-15{fill:#deb778;}.cls-13{stroke:#1d1d1b;stroke-dasharray:0 0 2 2;stroke-width:.3px;}.cls-16{fill:#cf5f2b;}.cls-17{fill:#fcf0c5;}.cls-18{fill:#b83521;}
</style>
<pattern id="USGS_19_Inundación_de_tierra" x="0" y="0" width="72" height="72" patternTransform="translate(-20.48 -16063) rotate(-90)" patternUnits="userSpaceOnUse" viewBox="0 0 72 72">
<g >
<rect class="cls-12" width="72" height="72">
</rect>
<g >
<line class="cls-13" x1="71" y1="71" x2="144.44" y2="71">
</line>
<line class="cls-13" x1="71" y1="67" x2="144.44" y2="67">
</line>
<line class="cls-13" x1="71" y1="63" x2="144.44" y2="63">
</line>
<line class="cls-13" x1="71" y1="59" x2="144.44" y2="59">
</line>
<line class="cls-13" x1="71" y1="55" x2="144.44" y2="55">
</line>
<line class="cls-13" x1="71" y1="51" x2="144.44" y2="51">
</line>
<line class="cls-13" x1="71" y1="47" x2="144.44" y2="47">
</line>
<line class="cls-13" x1="71" y1="43" x2="144.44" y2="43">
</line>
<line class="cls-13" x1="71" y1="39" x2="144.44" y2="39">
</line>
<line class="cls-13" x1="71" y1="35" x2="144.44" y2="35">
</line>
<line class="cls-13" x1="71" y1="31" x2="144.44" y2="31">
</line>
<line class="cls-13" x1="71" y1="27" x2="144.44" y2="27">
</line>
<line class="cls-13" x1="71" y1="23" x2="144.44" y2="23">
</line>
<line class="cls-13" x1="71" y1="19" x2="144.44" y2="19">
</line>
<line class="cls-13" x1="71" y1="15" x2="144.44" y2="15">
</line>
<line class="cls-13" x1="71" y1="11" x2="144.44" y2="11">
</line>
<line class="cls-13" x1="71" y1="7" x2="144.44" y2="7">
</line>
<line class="cls-13" x1="71" y1="3" x2="144.44" y2="3">
</line>
</g>
<g >
<line class="cls-13" x1="-1" y1="71" x2="72.44" y2="71">
</line>
<line class="cls-13" x1="-1" y1="67" x2="72.44" y2="67">
</line>
<line class="cls-13" x1="-1" y1="63" x2="72.44" y2="63">
</line>
<line class="cls-13" x1="-1" y1="59" x2="72.44" y2="59">
</line>
<line class="cls-13" x1="-1" y1="55" x2="72.44" y2="55">
</line>
<line class="cls-13" x1="-1" y1="51" x2="72.44" y2="51">
</line>
<line class="cls-13" x1="-1" y1="47" x2="72.44" y2="47">
</line>
<line class="cls-13" x1="-1" y1="43" x2="72.44" y2="43">
</line>
<line class="cls-13" x1="-1" y1="39" x2="72.44" y2="39">
</line>
<line class="cls-13" x1="-1" y1="35" x2="72.44" y2="35">
</line>
<line class="cls-13" x1="-1" y1="31" x2="72.44" y2="31">
</line>
<line class="cls-13" x1="-1" y1="27" x2="72.44" y2="27">
</line>
<line class="cls-13" x1="-1" y1="23" x2="72.44" y2="23">
</line>
<line class="cls-13" x1="-1" y1="19" x2="72.44" y2="19">
</line>
<line class="cls-13" x1="-1" y1="15" x2="72.44" y2="15">
</line>
<line class="cls-13" x1="-1" y1="11" x2="72.44" y2="11">
</line>
<line class="cls-13" x1="-1" y1="7" x2="72.44" y2="7">
</line>
<line class="cls-13" x1="-1" y1="3" x2="72.44" y2="3">
</line>
<line class="cls-13" x1="1.04" y1="69" x2="74.48" y2="69">
</line>
<line class="cls-13" x1="1.04" y1="65" x2="74.48" y2="65">
</line>
<line class="cls-13" x1="1.04" y1="61" x2="74.48" y2="61">
</line>
<line class="cls-13" x1="1.04" y1="57" x2="74.48" y2="57">
</line>
<line class="cls-13" x1="1.04" y1="53" x2="74.48" y2="53">
</line>
<line class="cls-13" x1="1.04" y1="49" x2="74.48" y2="49">
</line>
<line class="cls-13" x1="1.04" y1="45" x2="74.48" y2="45">
</line>
<line class="cls-13" x1="1.04" y1="41" x2="74.48" y2="41">
</line>
<line class="cls-13" x1="1.04" y1="37" x2="74.48" y2="37">
</line>
<line class="cls-13" x1="1.04" y1="33" x2="74.48" y2="33">
</line>
<line class="cls-13" x1="1.04" y1="29" x2="74.48" y2="29">
</line>
<line class="cls-13" x1="1.04" y1="25" x2="74.48" y2="25">
</line>
<line class="cls-13" x1="1.04" y1="21" x2="74.48" y2="21">
</line>
<line class="cls-13" x1="1.04" y1="17" x2="74.48" y2="17">
</line>
<line class="cls-13" x1="1.04" y1="13" x2="74.48" y2="13">
</line>
<line class="cls-13" x1="1.04" y1="9" x2="74.48" y2="9">
</line>
<line class="cls-13" x1="1.04" y1="5" x2="74.48" y2="5">
</line>
<line class="cls-13" x1="1.04" y1="1" x2="74.48" y2="1">
</line>
</g>
<g >
<line class="cls-13" x1="-73" y1="71" x2=".44" y2="71">
</line>
<line class="cls-13" x1="-73" y1="67" x2=".44" y2="67">
</line>
<line class="cls-13" x1="-73" y1="63" x2=".44" y2="63">
</line>
<line class="cls-13" x1="-73" y1="59" x2=".44" y2="59">
</line>
<line class="cls-13" x1="-73" y1="55" x2=".44" y2="55">
</line>
<line class="cls-13" x1="-73" y1="51" x2=".44" y2="51">
</line>
<line class="cls-13" x1="-73" y1="47" x2=".44" y2="47">
</line>
<line class="cls-13" x1="-73" y1="43" x2=".44" y2="43">
</line>
<line class="cls-13" x1="-73" y1="39" x2=".44" y2="39">
</line>
<line class="cls-13" x1="-73" y1="35" x2=".44" y2="35">
</line>
<line class="cls-13" x1="-73" y1="31" x2=".44" y2="31">
</line>
<line class="cls-13" x1="-73" y1="27" x2=".44" y2="27">
</line>
<line class="cls-13" x1="-73" y1="23" x2=".44" y2="23">
</line>
<line class="cls-13" x1="-73" y1="19" x2=".44" y2="19">
</line>
<line class="cls-13" x1="-73" y1="15" x2=".44" y2="15">
</line>
<line class="cls-13" x1="-73" y1="11" x2=".44" y2="11">
</line>
<line class="cls-13" x1="-73" y1="7" x2=".44" y2="7">
</line>
<line class="cls-13" x1="-73" y1="3" x2=".44" y2="3">
</line>
<line class="cls-13" x1="-70.96" y1="69" x2="2.48" y2="69">
</line>
<line class="cls-13" x1="-70.96" y1="65" x2="2.48" y2="65">
</line>
<line class="cls-13" x1="-70.96" y1="61" x2="2.48" y2="61">
</line>
<line class="cls-13" x1="-70.96" y1="57" x2="2.48" y2="57">
</line>
<line class="cls-13" x1="-70.96" y1="53" x2="2.48" y2="53">
</line>
<line class="cls-13" x1="-70.96" y1="49" x2="2.48" y2="49">
</line>
<line class="cls-13" x1="-70.96" y1="45" x2="2.48" y2="45">
</line>
<line class="cls-13" x1="-70.96" y1="41" x2="2.48" y2="41">
</line>
<line class="cls-13" x1="-70.96" y1="37" x2="2.48" y2="37">
</line>
<line class="cls-13" x1="-70.96" y1="33" x2="2.48" y2="33">
</line>
<line class="cls-13" x1="-70.96" y1="29" x2="2.48" y2="29">
</line>
<line class="cls-13" x1="-70.96" y1="25" x2="2.48" y2="25">
</line>
<line class="cls-13" x1="-70.96" y1="21" x2="2.48" y2="21">
</line>
<line class="cls-13" x1="-70.96" y1="17" x2="2.48" y2="17">
</line>
<line class="cls-13" x1="-70.96" y1="13" x2="2.48" y2="13">
</line>
<line class="cls-13" x1="-70.96" y1="9" x2="2.48" y2="9">
</line>
<line class="cls-13" x1="-70.96" y1="5" x2="2.48" y2="5">
</line>
<line class="cls-13" x1="-70.96" y1="1" x2="2.48" y2="1">
</line>
</g>
</g>
</pattern>
</defs>
  <path
     style="opacity:1;vector-effect:none;fill:#cccccc;fill-opacity:1;fill-rule:nonzero;stroke:none;stroke-width:4.49546146;stroke-linecap:butt;stroke-linejoin:miter;stroke-miterlimit:4;stroke-dasharray:none;stroke-dashoffset:0;stroke-opacity:1"
     d="M -0.08007812,0.36132812 V 80.361328 H 68.919922 V 0.36132812 Z"
     id="rect4304"/>

<g id="Characters">
<g >
<g >
<path class="cls-18" d="M26.2,55.86s-2.55-1.03-3.76,1.27c-1.4,4.31-2,8.86-2,8.86,0,0-8.01,2.12-10.74,4.55,7.83,3.76,35.13,6.19,48.71,1.27-.49-2.67-7.7-5.95-10.62-6.55-1.4-4.67-2.12-8.55-2.12-8.55,0,0-.67-1.27-2.79-1.33s-16.68,.49-16.68,.49Z">
</path>
<path class="cls-1" d="M16.37,37.72s-1.59,8.96,4.12,8.96c2.19,4.65,4.32,7.24,4.32,7.24l-.27,3.65s3.25,3.65,9.63,3.39c6.44-.4,9.23-3.52,9.23-3.52l-.4-3.19s3.39-4.38,4.91-7.57c3.65-.27,4.38-5.05,3.92-7.97-.2-5.11-1.66-14.94-1.66-14.94l-32.73,1.39-1.06,12.55Z">
</path>
<path class="cls-2" d="M47.13,44.53c-.76,2.22-3.26,8.42-8.11,10.86-1.93,.97-4.21-.48-4.21-2.65v-17.05s.17,.23,.17,.23l1.5-2.54c.15-.25,.3-.46,.46-.65l.12-.13c.62-.69,1.47-1.27,2.48-1.67,.4-.13,.86-.28,1.34-.46l-.76,.96,4.26-.08h.08c1.16-.02,2.41-.04,3.63-.3,.25,3.19,.47,9.32-.96,13.47Z">
</path>
<path d="M19.05,41.24s-6.45-8.38-5.77-16.64c3.17-6.68,11.66-13.92,11.66-13.92,5.55-.79,9.85,1.13,9.85,1.13,0,0,4.64-1.92,8.94-1.02,7.36,4.98,10.64,11.32,11.89,14.38,1.02,7.92-6.11,16.87-6.11,16.87,0,0,.91-7.92-.34-12.57-3.4,.79-5.43,.34-5.43,.34,0,0,2.38-2.94,1.81-5.55-1.58,3.74-5.32,4.53-7.7,5.77-2.72,2.04-3.17,3.74-3.17,3.74,0,0-1.13-2.04-3.51-3.28s-3.96-3.85-3.85-6.45c-2.83,4.53-2.26,6.45-1.7,7.25-4.98-.91-6.23-3.06-6.23-3.06,0,0-.79,9.51-.34,13.02Z">
</path>
<path class="cls-18" d="M18.39,19.13s-2.88,3.47-3.64,5.92c3.98-2.2,10.41-3.22,17.6-.17s16.58-5.5,22.34-1.61c-2.88-5.67-6.52-8.21-6.52-8.21,0,0-5.92,6.01-12.61,3.89s-12.61-2.71-17.18,.17Z">
</path>
<path class="cls-16" d="M24.76,18.59s4.29-.34,9.75,1.93,11.82-1.6,13.58-3.29c2.41,1.4,2.91,3.36,2.91,3.36,0,0-10.28,3.79-17,1.69-2.86-.92-4.96-2.52-9.24-3.7Z">
</path>
<path class="cls-3" d="M30.45,40.5s-3.69-3.4-7.77-1.84c1.67,3.11,6.74,3.63,7.77,1.84Z">
</path>
<path class="cls-3" d="M39.36,40.5s3.69-3.4,7.77-1.84c-1.67,3.11-6.74,3.63-7.77,1.84Z">
</path>
<path class="cls-16" d="M43.1,59.82c-2.57,2.07-8.43,5.2-17.48,.93,4.18,3.75,9.02,4.26,9.31,6.57s-3.32,4.18-5.92,4.69c6.2,1.08,13.42,1.59,17.96-5.19-.82-2.72-1.43-4.89-1.83-6.34-.24-.9-1.32-1.24-2.05-.65Z">
</path>
<path class="cls-16" d="M38.65,74.75s6.98-2.44,9.57-6.57c.38-.61,1.12-.9,1.8-.66,2.44,.86,5.8,3.02,6.57,4.68-6.5,2.97-17.94,2.56-17.94,2.56Z">
</path>
<path class="cls-4" d="M21.03,35.67l.86,2.64s6.12-.39,8.59,2.38c1.25-2.14,1.57-5.32,1.57-5.32,0,0-6.51-2.76-11.02,.3Z">
</path>
<path class="cls-4" d="M48.58,35.67l-.86,2.64s-6.12-.39-8.59,2.38c-1.25-2.14-1.57-5.32-1.57-5.32,0,0,6.51-2.76,11.02,.3Z">
</path>
<path class="cls-2" d="M24.09,42.81c1.07,.33,2.77,.64,4.63,.18,.57-.14,1.01,.5,.66,.96-1.92,2.46-3.8,2.24-5.75-.49-.23-.32,.08-.76,.46-.64Z">
</path>
<path class="cls-18" d="M39.02,50.89s-.59,1.34-1.71,1.8c-1.19,.6-2.52,.46-2.52,.46h.01s-1.33,.14-2.52-.46c-1.12-.46-1.71-1.8-1.71-1.8l3.33-1.24h2.55l2.57,1.24Z">
</path>
<path class="cls-9" d="M49.55,41.88s6.31-8,6.04-17.01c-2.79-8.27-11.71-14.21-11.71-14.21,0,0-5.03-.93-9.54,.78-4.51-1.71-9.54-.78-9.54-.78,0,0-8.92,5.94-11.7,14.21-.28,9.01,6.03,17.01,6.03,17.01">
</path>
<path d="M20.78,19.47c1.37,2.56-1.67,5.03-.97,7.59,.12,.57,.36,1.02,.78,1.38,1.44,1.27,3.31,1.92,5.15,2.5,0,0-.44,.58-.44,.58-.79-1.32-.87-3.11-.17-4.48,.63-1.38,1.57-2.48,2.06-3.7l1.43-3.55-.42,3.81c-.52,4.08,1.1,5.59,4.61,7.22,1.06,.55,2.19,1.48,2.54,2.69,0,0-1.13,.01-1.13,.01,.69-2.18,2.58-3.67,4.62-4.46,1.82-.59,3.8-1.29,4.96-2.86,1.32-1.5,.93-3.89,.73-5.73,0,0,1.11,1.94,1.11,1.94,.73,1.23,.75,2.79,.29,4.1-.44,1.3-1.19,2.42-2.08,3.42,0,0-.23-.56-.23-.56,2.46-.07,5.48,.11,7.07-2.02,1.49-2.09,1.56-4.96,.03-7.14,2.57,1.62,2.55,5.47,.83,7.78-1.8,2.49-5.27,2.36-7.97,2.05,0,0-.66-.07-.66-.07,0,0,.42-.49,.42-.49,1.46-1.76,2.75-4.45,1.46-6.58,0,0,.89-.3,.89-.3,.18,1.44-.14,3.02-1.04,4.23-2.35,3.47-7.97,2.68-9.31,7.05,0,0-.54,1.67-.54,1.67l-.58-1.66c-.81-2.15-3.28-2.39-4.97-3.8-2.09-1.45-2.46-4.32-2.11-6.63,0,0,1.02,.27,1.02,.27-1.47,3.1-3.95,4.59-1.81,8.14,0,0-.8-.16-.8-.16-4.84-.75-9.08-3.37-6.1-8.67,.69-1.1,1.3-2.19,1.31-3.58h0Z">
</path>
<path class="cls-8" d="M49.43,29.16c.29,2.69,.92,10.63-.88,15.86-1.1,3.2-5.12,12.87-13.74,12.87h-1.06c-8.62,0-12.64-9.67-13.74-12.87-2.2-6.38-.77-16.79-.77-16.79">
</path>
<path d="M38.04,19.81c.63,1.89-.45,3.91-1.93,5.15-2.11,2.21-1.9,5.48-.7,8.12,.25,.57-.6,.98-.9,.43-1.65-2.84-1.69-6.9,.92-9.22,1.47-1.1,2.64-2.48,2.61-4.48h0Z">
</path>
<path class="cls-8" d="M16.09,37.91s-1.08,8.6,3.9,8.82">
</path>
<path class="cls-8" d="M51.96,37.91s1.08,8.6-3.9,8.82">
</path>
<path d="M31.98,36.16l.78-1.63s-3.99-1.44-7.27-1.25c-2.5,.68-4.47,2.39-4.47,2.39,0,0,4.71-2.05,10.97,.49Z">
</path>
<path d="M37.67,36.16l-.78-1.63s3.99-1.44,7.27-1.25c2.5,.68,4.47,2.39,4.47,2.39,0,0-4.71-2.05-10.97,.49Z">
</path>
<path d="M30.53,40.75c-2.14-1.98-5.14-2.29-7.85-1.68,0,0,.33-.72,.33-.72,1.2,2.54,4.18,3.55,6.81,2.78-3.05,1.83-6.67,.32-8.01-2.91,3.05-.79,6.94-.38,8.72,2.53h0Z">
</path>
<path d="M38.99,40.75c1.78-2.91,5.67-3.32,8.72-2.53-1.34,3.22-4.96,4.74-8.01,2.91,2.63,.78,5.61-.23,6.81-2.78,0,0,.33,.72,.33,.72-2.71-.61-5.72-.3-7.85,1.68h0Z">
</path>
<path d="M36.2,41.57c.15,.58,.26,1.17,.39,1.75l-.04-.08c.57,.53,1.11,1.09,1.66,1.64,.09,.08,.1,.21,.04,.31-.19,.42-.38,.83-.58,1.24-.09,.18-.34,.24-.49,.11,0,0-1.2-.9-1.2-.9,0,0,.44,0,.44,0l-1.42,1.07c-.14,.1-.32,.1-.45,0l-1.41-1.07h.44c-1.64,1.18-1.39,1.55-2.3-.48-.05-.1-.02-.22,.05-.29,.55-.54,1.09-1.11,1.66-1.64l-.04,.08c.13-.58,.25-1.17,.4-1.75-.03,.62-.03,1.25-.12,1.85-.48,.62-1,1.21-1.49,1.82,0,0,.04-.31,.04-.31,.23,.4,.47,.79,.69,1.2l-.49-.11,1.16-.96c.13-.11,.31-.1,.44,0,0,0,1.43,1.05,1.43,1.05h-.45s1.44-1.05,1.44-1.05c.13-.1,.32-.1,.44,0,0,0,1.16,.96,1.16,.96l-.49,.11c.22-.4,.45-.8,.68-1.2l.04,.31c-.5-.61-1.01-1.2-1.49-1.82-.09-.6-.08-1.24-.11-1.85h0Z">
</path>
<path d="M34.93,48.59c.63,0,1.5-.18,2.54,.18,.63,1.05,2.24,2.31,2.24,2.31,0,0-1.7-.09-3.41-.9-.46,.34-1.41,.32-1.41,.32,0,0-.96,.02-1.41-.32-1.72,.82-3.41,.9-3.41,.9,0,0,1.61-1.26,2.24-2.31,1.04-.35,1.91-.18,2.54-.18h.09Z">
</path>
<path class="cls-8" d="M43.04,54.29l.29,3.29s-3,3.4-8.99,3.4h-.71c-5.99,0-8.99-3.4-8.99-3.4l.32-3.61">
</path>
<path class="cls-8" d="M43.61,55.47s1.58,.13,2.3,1.62c.64,3.02,1.96,8.69,1.96,8.69,0,0-2.98,6.94-13.16,6.94h-1.09c-10.18,0-13.16-6.94-13.16-6.94,0,0,1.32-5.67,1.96-8.69,.72-1.49,2.3-1.62,2.3-1.62">
</path>
<path class="cls-8" d="M9.58,70.34s6.47-3.27,10.97-4.79">
</path>
<path class="cls-8" d="M47.88,65.09s7.09,1.42,12.02,7.34">
</path>
<path class="cls-11" d="M30.44,60.91s-2.14,4.35-2.97,10.68">
</path>
<line class="cls-11" x1="31.09" y1="72.93" x2="30.56" y2="75.43">
</line>
<path class="cls-8" d="M22.9,51.39c-.34,2.05-1.49,3.56-2.86,3.56-1.63,0-2.96-2.15-2.96-4.8,0-2.09,.82-3.86,1.97-4.52">
</path>
<path d="M21.15,56.66v1.4c-.14-.08-.29-.15-.45-.21l-.49-.17,.17,.49c.06,.17,.13,.32,.22,.47h-1.46c.08-.14,.15-.28,.2-.44l.17-.5-.49,.19c-.16,.05-.3,.12-.44,.2v-1.46c.15,.09,.31,.16,.48,.21l.47,.15-.16-.46c-.05-.16-.12-.31-.2-.46h1.4c-.09,.15-.16,.32-.22,.49l-.15,.46,.46-.15c.18-.05,.34-.12,.49-.21Z">
</path>
<path class="cls-8" d="M45.89,51.39c.34,2.05,1.49,3.56,2.86,3.56,1.63,0,2.96-2.15,2.96-4.8,0-2.09-.82-3.86-1.97-4.52">
</path>
<path d="M47.64,56.66v1.4c.14-.08,.29-.15,.45-.21l.49-.17-.17,.49c-.06,.17-.13,.32-.22,.47h1.46c-.08-.14-.15-.28-.2-.44l-.17-.5,.49,.19c.16,.05,.3,.12,.44,.2v-1.46c-.15,.09-.31,.16-.48,.21l-.47,.15,.16-.46c.05-.16,.12-.31,.2-.46h-1.4c.09,.15,.16,.32,.22,.49l.15,.46-.46-.15c-.18-.05-.34-.12-.49-.21Z">
</path>
<path d="M40.29,56.74l-7.98,4.13s-5.77-.11-7.58-3.45c.17-2.72,.4-3.57,.4-3.57,0,0,4.64,6.79,15.17,2.89Z">
</path>
<path d="M22.71,57.11s0,1.46,.9,2.52c.66,.78,1.02,1.77,.81,2.77-.66,3.2-1.11,6.33-.6,7.05-2.04,1.43-2.4,4.69-2.4,4.69l-11.12-2.81,.41-1.43,9.74-4.64,2.25-8.16Z">
</path>
</g>
<path d="M16.65,38.44s1.72,8.59,3.71,7.83c-.96-3.44-1.31-5.29-1.31-5.29l-2.41-2.54Z">
</path>
</g>
</g>

  <path
     style="opacity:1;vector-effect:none;fill:#8d5fd3;fill-opacity:1;fill-rule:nonzero;stroke:none;stroke-width:2.35769176;stroke-linecap:butt;stroke-linejoin:miter;stroke-miterlimit:4;stroke-dasharray:none;stroke-dashoffset:0;stroke-opacity:0.44186048"
     d="M 0,1.2e-7 V 80 H 69 V 1.2e-7 Z M 35.240234,4.658203 c 6.067554,0.1120422 16.269844,1.4698438 23.589844,3.8398438 3.46,9.2400002 5.269531,19.9506252 5.269531,31.1406252 0,11.47 -1.89,22.390234 -5.5,31.740234 -7.2,2.16 -14.940375,3.376539 -23.019531,3.259766 -8.580486,-0.124019 -18.036001,-1.572896 -25.240234,-3.86914 -3.4500003,-9.22 -5.2597659,-19.930859 -5.2597659,-31.130859 0,-11.2 1.8904687,-22.380469 5.4804689,-31.730469 C 17.682894,5.1336941 29.17268,4.5461608 35.240234,4.658203 Z"
     id="rect4304" />


</svg>
