<?xml version="1.0" encoding="UTF-8"?><svg id="Capa_2" xmlns="http://www.w3.org/2000/svg" xmlns:xlink="http://www.w3.org/1999/xlink" viewBox="0 0 69.02 80"><defs><style>.cls-1{fill:#c89aed;}.cls-2{fill:#fff;}.cls-3{fill:#f8ffbf;}.cls-4{fill:#7b7be8;}.cls-5{fill:#a88347;}.cls-6{fill:#782ab5;}.cls-7,.cls-8{stroke:#000;stroke-miterlimit:10;}.cls-7,.cls-8,.cls-9,.cls-10,.cls-11{fill:none;}.cls-8,.cls-9{stroke-linecap:round;}.cls-12{fill:#1c46ff;}.cls-9{stroke:#deb778;stroke-dasharray:0 0 0 4.06;stroke-linejoin:round;}.cls-13{fill:url(#USGS_19_Inundación_de_tierra);}.cls-14{fill:#deb778;}.cls-15{fill:#fefffc;}.cls-11{stroke:#1d1d1b;stroke-dasharray:0 0 2 2;stroke-width:.3px;}.cls-16{fill:#fcf0c5;}.cls-17{fill:#b83521;}</style><pattern id="USGS_19_Inundación_de_tierra" x="0" y="0" width="72" height="72" patternTransform="translate(-92.48 -16063) rotate(-90)" patternUnits="userSpaceOnUse" viewBox="0 0 72 72"><g><rect class="cls-10" width="72" height="72"/><g><line class="cls-11" x1="71" y1="71" x2="144.44" y2="71"/><line class="cls-11" x1="71" y1="67" x2="144.44" y2="67"/><line class="cls-11" x1="71" y1="63" x2="144.44" y2="63"/><line class="cls-11" x1="71" y1="59" x2="144.44" y2="59"/><line class="cls-11" x1="71" y1="55" x2="144.44" y2="55"/><line class="cls-11" x1="71" y1="51" x2="144.44" y2="51"/><line class="cls-11" x1="71" y1="47" x2="144.44" y2="47"/><line class="cls-11" x1="71" y1="43" x2="144.44" y2="43"/><line class="cls-11" x1="71" y1="39" x2="144.44" y2="39"/><line class="cls-11" x1="71" y1="35" x2="144.44" y2="35"/><line class="cls-11" x1="71" y1="31" x2="144.44" y2="31"/><line class="cls-11" x1="71" y1="27" x2="144.44" y2="27"/><line class="cls-11" x1="71" y1="23" x2="144.44" y2="23"/><line class="cls-11" x1="71" y1="19" x2="144.44" y2="19"/><line class="cls-11" x1="71" y1="15" x2="144.44" y2="15"/><line class="cls-11" x1="71" y1="11" x2="144.44" y2="11"/><line class="cls-11" x1="71" y1="7" x2="144.44" y2="7"/><line class="cls-11" x1="71" y1="3" x2="144.44" y2="3"/></g><g><line class="cls-11" x1="-1" y1="71" x2="72.44" y2="71"/><line class="cls-11" x1="-1" y1="67" x2="72.44" y2="67"/><line class="cls-11" x1="-1" y1="63" x2="72.44" y2="63"/><line class="cls-11" x1="-1" y1="59" x2="72.44" y2="59"/><line class="cls-11" x1="-1" y1="55" x2="72.44" y2="55"/><line class="cls-11" x1="-1" y1="51" x2="72.44" y2="51"/><line class="cls-11" x1="-1" y1="47" x2="72.44" y2="47"/><line class="cls-11" x1="-1" y1="43" x2="72.44" y2="43"/><line class="cls-11" x1="-1" y1="39" x2="72.44" y2="39"/><line class="cls-11" x1="-1" y1="35" x2="72.44" y2="35"/><line class="cls-11" x1="-1" y1="31" x2="72.44" y2="31"/><line class="cls-11" x1="-1" y1="27" x2="72.44" y2="27"/><line class="cls-11" x1="-1" y1="23" x2="72.44" y2="23"/><line class="cls-11" x1="-1" y1="19" x2="72.44" y2="19"/><line class="cls-11" x1="-1" y1="15" x2="72.44" y2="15"/><line class="cls-11" x1="-1" y1="11" x2="72.44" y2="11"/><line class="cls-11" x1="-1" y1="7" x2="72.44" y2="7"/><line class="cls-11" x1="-1" y1="3" x2="72.44" y2="3"/><line class="cls-11" x1="1.04" y1="69" x2="74.48" y2="69"/><line class="cls-11" x1="1.04" y1="65" x2="74.48" y2="65"/><line class="cls-11" x1="1.04" y1="61" x2="74.48" y2="61"/><line class="cls-11" x1="1.04" y1="57" x2="74.48" y2="57"/><line class="cls-11" x1="1.04" y1="53" x2="74.48" y2="53"/><line class="cls-11" x1="1.04" y1="49" x2="74.48" y2="49"/><line class="cls-11" x1="1.04" y1="45" x2="74.48" y2="45"/><line class="cls-11" x1="1.04" y1="41" x2="74.48" y2="41"/><line class="cls-11" x1="1.04" y1="37" x2="74.48" y2="37"/><line class="cls-11" x1="1.04" y1="33" x2="74.48" y2="33"/><line class="cls-11" x1="1.04" y1="29" x2="74.48" y2="29"/><line class="cls-11" x1="1.04" y1="25" x2="74.48" y2="25"/><line class="cls-11" x1="1.04" y1="21" x2="74.48" y2="21"/><line class="cls-11" x1="1.04" y1="17" x2="74.48" y2="17"/><line class="cls-11" x1="1.04" y1="13" x2="74.48" y2="13"/><line class="cls-11" x1="1.04" y1="9" x2="74.48" y2="9"/><line class="cls-11" x1="1.04" y1="5" x2="74.48" y2="5"/><line class="cls-11" x1="1.04" y1="1" x2="74.48" y2="1"/></g><g><line class="cls-11" x1="-73" y1="71" x2=".44" y2="71"/><line class="cls-11" x1="-73" y1="67" x2=".44" y2="67"/><line class="cls-11" x1="-73" y1="63" x2=".44" y2="63"/><line class="cls-11" x1="-73" y1="59" x2=".44" y2="59"/><line class="cls-11" x1="-73" y1="55" x2=".44" y2="55"/><line class="cls-11" x1="-73" y1="51" x2=".44" y2="51"/><line class="cls-11" x1="-73" y1="47" x2=".44" y2="47"/><line class="cls-11" x1="-73" y1="43" x2=".44" y2="43"/><line class="cls-11" x1="-73" y1="39" x2=".44" y2="39"/><line class="cls-11" x1="-73" y1="35" x2=".44" y2="35"/><line class="cls-11" x1="-73" y1="31" x2=".44" y2="31"/><line class="cls-11" x1="-73" y1="27" x2=".44" y2="27"/><line class="cls-11" x1="-73" y1="23" x2=".44" y2="23"/><line class="cls-11" x1="-73" y1="19" x2=".44" y2="19"/><line class="cls-11" x1="-73" y1="15" x2=".44" y2="15"/><line class="cls-11" x1="-73" y1="11" x2=".44" y2="11"/><line class="cls-11" x1="-73" y1="7" x2=".44" y2="7"/><line class="cls-11" x1="-73" y1="3" x2=".44" y2="3"/><line class="cls-11" x1="-70.96" y1="69" x2="2.48" y2="69"/><line class="cls-11" x1="-70.96" y1="65" x2="2.48" y2="65"/><line class="cls-11" x1="-70.96" y1="61" x2="2.48" y2="61"/><line class="cls-11" x1="-70.96" y1="57" x2="2.48" y2="57"/><line class="cls-11" x1="-70.96" y1="53" x2="2.48" y2="53"/><line class="cls-11" x1="-70.96" y1="49" x2="2.48" y2="49"/><line class="cls-11" x1="-70.96" y1="45" x2="2.48" y2="45"/><line class="cls-11" x1="-70.96" y1="41" x2="2.48" y2="41"/><line class="cls-11" x1="-70.96" y1="37" x2="2.48" y2="37"/><line class="cls-11" x1="-70.96" y1="33" x2="2.48" y2="33"/><line class="cls-11" x1="-70.96" y1="29" x2="2.48" y2="29"/><line class="cls-11" x1="-70.96" y1="25" x2="2.48" y2="25"/><line class="cls-11" x1="-70.96" y1="21" x2="2.48" y2="21"/><line class="cls-11" x1="-70.96" y1="17" x2="2.48" y2="17"/><line class="cls-11" x1="-70.96" y1="13" x2="2.48" y2="13"/><line class="cls-11" x1="-70.96" y1="9" x2="2.48" y2="9"/><line class="cls-11" x1="-70.96" y1="5" x2="2.48" y2="5"/><line class="cls-11" x1="-70.96" y1="1" x2="2.48" y2="1"/></g></g></pattern></defs><g id="BG"><g><path class="cls-6" d="M64.02,40c0,11.47-1.89,22.39-5.5,31.74-7.2,2.16-14.94,3.26-23.02,3.26-.49,0-.98-.01-1.47-.02h-.17c-8.18-.15-16.29-1.47-23.6-3.85-3.45-9.22-5.26-19.93-5.26-31.13s1.89-22.38,5.48-31.73c6.73-2.01,14.13-3.13,21.6-3.26,.48-.01,.97-.01,1.45-.01,.54,0,1.08,.01,1.63,.02,8.16,.15,16.27,1.47,23.59,3.84,3.46,9.24,5.27,19.95,5.27,31.14Z"/><path class="cls-13" d="M34.03,5.59V74.98h-.17c-8.18-.15-16.29-1.47-23.6-3.85-3.45-9.22-5.26-19.93-5.26-31.13s1.89-22.38,5.48-31.73c6.73-2.01,14.13-3.13,21.6-3.26,.65,.16,1.3,.36,1.95,.58Z"/></g></g><g id="Characters"><g><g><path class="cls-1" d="M25.3,20.73l15.56,.39s4.99,3.82,7.05,8.81c1.76,5.38,1.47,13.7-.2,17.62s-7.34,8.22-7.34,8.22c0,0-.1,1.47-.1,3.23s1.17,4.31,1.17,4.31c0,0-.88,2.25-6.66,2.64s-7.63-2.64-7.63-2.64c0,0,.78-1.17,1.08-2.25s-.1-5.38-.1-5.38c0,0-6.75-5.68-8.22-11.55-1.47-5.68,1.21-14.1,1.21-14.1l4.17-9.29Z"/><path class="cls-2" d="M44.47,49.13c-3,3.39-5.22,5.36-7.42,6.57,0,0-.02,0-.02,.01-1.27,.7-2.83-.32-2.83-1.77v-17.65c0-1.03,.79-1.9,1.82-1.96,3.41-.19,6.91-.78,10.46-1.73,.87,3.65,2.16,11.82-2.01,16.53Z"/><path d="M20.53,18.37s-7.28,6.55-11.53,17.96c-4.25,11.65-1.33,20.87,6.79,23.42,7.28,2.31,10.8,.49,10.8,.49,0,0-6.55-9.22-7.04-17.71-.24-6.92,1.58-12.5,1.58-12.5,0,0,2.31,.85,4.73,.97-2.67-4.61,.97-8.49,.97-8.49-1.21,4.73,1.7,8.01,1.7,8.01l5.58-.61,.61-5.82,1.7,6.07,4.97,.73s1.82-3.88,1.58-5.46c.85,3.64,.24,5.1,.24,5.1,0,0,3.15,.76,4.49-.24,2.43,10.56,1.82,20.63-5.46,29.73,13.23,1.94,20.63-3.4,19.41-16.99-1.33-13.59-13.83-26.45-13.83-26.45,0,0-5.58-7.04-11.16-4.85-7.04-1.82-11.53-.36-16.14,6.67Z"/><path class="cls-12" d="M19.28,47.61s-9.29-5.86-12.12-.61c-.1-1.97,.16-3.85,.6-5.57,.54-2.13,1.36-4.02,2.16-5.53,1.27-2.38,2.49-3.84,2.49-3.84,0,0,1.51,2.72,6.46,1.41-.27,1.09-.45,2.19-.55,3.27-.11,1.18-.14,2.33-.11,3.43,.13,4.18,1.07,7.44,1.07,7.44Z"/><path class="cls-12" d="M49.53,32.22s8.32,1.16,7.16-2.74c5.89,7.26,5.05,17.58,3.79,21.37-1.26-6-9.68-5.58-11.79-3.05,2.11-6.42,.84-15.58,.84-15.58Z"/><path class="cls-12" d="M48.6,18.27s-3.3-2.1-6.39,4.09c-2.54,5.09-13.77-4.97-21.23-1.28-2.75,5.06-1.72,4.66-1.72,4.66,0,0,1.97-5.88,20.08,.82,5.49,3.09,6.26-6.91,10.72-2.87-.34-3.35-1.46-5.41-1.46-5.41Z"/><path class="cls-4" d="M31.83,33.3l-.81,5.98-8.8-3.45-.15-3.54s5.53-2.34,9.76,1Z"/><path class="cls-4" d="M37.66,33.3l.81,5.98,8.8-3.45,.15-3.54s-5.53-2.34-9.76,1Z"/><path class="cls-3" d="M31.02,39.28s-.22-3.95-2.63-5.05c-3.44-.29-6.36,1.68-6.36,1.68,0,0,2.12,6.14,9,3.36Z"/><path class="cls-3" d="M38.42,39.2s.38-3.87,2.79-4.96c3.44-.29,6.36,1.68,6.36,1.68,0,0-2.28,6.06-9.15,3.28Z"/><path d="M40.28,56.92l-8,9.01s-4.41-1.2-5.1-2.84c1.76-2.21,1.32-7,1.32-7,0,0,2.58,2.02,3.97,2.21s4.41,.38,7.88-2.33c.13,.57-.06,.95-.06,.95Z"/><path class="cls-2" d="M39.04,60.09l-4.01,4.45s2.67,0,5.04-1.41c-.96-1.04-1.04-3.04-1.04-3.04Z"/><path class="cls-2" d="M49.69,37.52s-.13,4.63-.44,6.28c2.54-2.35,9.9-2.28,12.37,1.65,.06-3.36-1.4-8.44-1.4-8.44,0,0-3.24,2.35-10.53,.51Z"/><path class="cls-2" d="M18.32,36.74c-.11,1.18-.14,2.33-.11,3.43-5.7-1.13-9.65,.81-10.45,1.26,.54-2.13,1.36-4.02,2.16-5.53,.96,2.03,5.87,1.34,8.4,.84Z"/><path class="cls-2" d="M21.11,22.38c4.82-.66,9.84-.14,14.46,1.36,1.16,.35,2.32,.74,3.46,1.04,1.14,.3,2.3,.48,3.02-.24,1.14-1.29,2.18-3.12,3.95-3.78,.59-.25,1.34-.33,1.89,0-.63-.05-1.15,.21-1.61,.53-.93,.67-1.68,1.59-2.37,2.51-.65,1.01-1.79,2.33-3.2,2.19-3.09-.31-5.86-1.77-8.84-2.48-3.5-.89-7.13-1.23-10.75-1.12h0Z"/><path class="cls-12" d="M16.62,24.66c-4.6,7.21-10.85,17.79-7.08,26.39,1.78,3.26,4.56,6.16,8.03,7.62,1.73,.77,3.65,1.15,5.57,1.07-3.9,.61-7.88-1.04-10.75-3.66-10.22-8.67-2.56-23.09,4.24-31.42h0Z"/><path class="cls-12" d="M19.75,23.39c2.51-5.69,7.74-11.88,14.59-11.04,0,0-.01,.1-.01,.1-6.23-.11-10.6,5.19-13.2,10.28-.17,.42-.82,.78-1.37,.66h0Z"/><path d="M26.14,64.19s-8.33,3.47-10.87,4.47c-2.93,1.73-3.19,4.4-3.19,4.4,0,0,14.78,5.47,23.57,5.47s21.61-5.47,21.61-5.47c0,0-.07-2.47-2.21-3.87s-10.87-4.27-11.52-4.87c-3.39,2.73-9.31,3.6-17.38-.13Z"/><path class="cls-15" d="M26.99,63.42s2.07,2.55,7.16,2.84c-1.6,4.62-4.62,4.56-6.87,3.49s-2.13-4.44-2.13-4.44l1.84-1.89Z"/><path d="M31.3,65.79l-4.8,3.3s-1.72-2.44-1.5-3.94c2.01-1.5,2.17-1.85,2.17-1.85l4.14,2.49Z"/><path class="cls-15" d="M41.7,63.42s-2.07,2.55-7.16,2.84c1.6,4.62,4.62,4.56,6.87,3.49s2.13-4.44,2.13-4.44l-1.84-1.89Z"/><path class="cls-17" d="M38.84,50.25s-1.37,1.78-4.21,1.78-4.16-1.78-4.16-1.78l1.69-.77,2.41-1.09,2.52,1.1,1.75,.76Z"/><path class="cls-2" d="M37.09,49.49c-.64,.29-1.46,.52-2.46,.52s-1.84-.23-2.47-.53l2.41-1.09,2.52,1.1Z"/><path class="cls-8" d="M21.1,16.97s-14.28,15.56-14.06,28.34,9.08,17.11,19.57,15.05c-4.57-6.32-5.91-13.73-5.91-13.73"/><path class="cls-8" d="M48.36,17.05s13.67,15.48,13.46,28.26c-.22,12.78-9.08,17.11-19.57,15.05,4.94-8.1,5.83-13.36,5.83-13.36"/><path class="cls-8" d="M34.65,24.01s-1,2.88-.22,5.84c-1.56-.04-3.64,.08-6.13,.59-1.38-1.5-2.83-4.19-1.46-8.24-2.07,1.69-2.63,5.24-.59,8.57-3.9,.42-7.33-.72-7.08-6.44,.39-7.12,2.76-9.51,7.93-11.95s9.72-.44,9.72-.44c2.82-1.84,8.45,.98,10.94,4.38,2.49,3.41,3.45,10.59,1.29,12.94-2.15,2.35-5.65,1.58-5.65,1.58,0,0,.72-3.54-1.06-6.8,.63,3.16-.81,6.52-.81,6.52,0,0-1.58-.1-4.75-.05-1.34-1.48-2.13-6.5-2.13-6.5Z"/><path class="cls-8" d="M47.88,30.11s4.4,13.22-1.91,20.35c-2.86,3.23-5.34,5.55-7.95,6.99-2.23,1.24-4.92,1.24-7.15,0-2.61-1.44-5.09-3.77-7.95-7-6.31-7.13-1.91-20.35-1.91-20.35"/><path d="M24.26,57.62s2.14-2.27,3.09-2.55c-3.69-3.37-5.91-6.37-5.91-6.37,0,0,1.64,6.42,2.82,8.92Z"/><path d="M44.31,57.12s-1.99-1.77-2.95-2.05c3.69-3.37,5.91-6.37,5.91-6.37,0,0-1.78,5.91-2.97,8.42Z"/><path d="M31,39.07c-.16-.91-.42-1.8-.87-2.58-.43-.78-1.05-1.42-1.8-1.8l.16,.05c-2.04-.01-4.24,.25-5.98,1.34,0,0,.18-.49,.18-.49,.87,3.71,4.31,4.71,7.7,3.82-.8,.35-1.63,.63-2.51,.75-2.99,.54-5.71-1.77-6.24-4.68,2.01-1.49,4.59-1.73,6.99-1.51,1.74,1.02,2.47,3.18,2.35,5.09h0Z"/><path d="M31.67,33.85c-2.31-1.85-5.49-2.4-8.37-1.77,0,0-1.3,.3-1.3,.3,2.39-1.39,5.4-1.91,8.02-.84,.89,.38,1.69,.86,2.38,1.62l-.73,.69h0Z"/><path d="M38.38,39.07c-.11-1.91,.61-4.07,2.35-5.09,2.41-.22,4.98,.02,6.99,1.51-.53,2.91-3.25,5.22-6.24,4.68-.87-.12-1.71-.41-2.51-.75,3.39,.89,6.84-.11,7.7-3.82,0,0,.18,.49,.18,.49-1.73-1.09-3.94-1.35-5.98-1.34,0,0,.16-.05,.16-.05-.74,.38-1.37,1.02-1.8,1.8-.45,.77-.71,1.66-.87,2.58h0Z"/><path d="M36.99,33.16c2.68-2.88,7.24-2.68,10.4-.79,0,0-1.3-.3-1.3-.3-2.88-.63-6.06-.08-8.37,1.77,0,0-.73-.69-.73-.69h0Z"/><path d="M33.17,41.02c-1.24,2.43-2.58,3.74,1.31,3.84,1.52-.05,3.62-.36,2.24-2.32-.26-.51-.55-1-.79-1.52,.38,.42,.73,.88,1.1,1.31,.18,.24,.34,.41,.53,.72,.33,.62,.15,1.46-.41,1.89-.77,.51-1.74,.62-2.65,.67-1.53,.05-3.93-.57-2.94-2.58,.52-.71,1.05-1.34,1.63-2h0Z"/><path d="M22.12,41.73c.48,2.39,2.15,4.57,3.85,6.02-2.53-.64-4.31-3.43-3.92-6.01,0-.04,.06-.06,.07-.01h0Z"/><path d="M47.41,41.75c-.48,2.3-1.97,4.9-3.96,5.96,1.42-2.12,2.51-3.89,3.89-5.97,.01-.04,.08-.04,.07,.01h0Z"/><path d="M38.84,50.25s-2.39-.51-4.19-1.3c-1.8,.79-4.18,1.3-4.18,1.3,0,0,1.35-2.55,4.18-3.22,2.83,.67,4.19,3.22,4.19,3.22Z"/><path class="cls-8" d="M28.41,56.02v3.15c0,2.93-1.82,5.54-4.56,6.57l-9,3.36s-2.26,1.3-2.33,2.6"/><path class="cls-8" d="M40.38,56.02v3.15c0,2.93,1.82,5.54,4.56,6.57l9,3.36s2.26,1.3,2.33,2.6"/><path class="cls-8" d="M27.4,63.6s1.93,2.55,6.99,2.55,7-2.55,7-2.55"/><path class="cls-8" d="M34.48,66.35s-1.25,4.62-5.31,3.99-4.13-4.91-4.13-4.91"/><path class="cls-8" d="M34.48,66.35s1.25,4.62,5.31,3.99,4.13-4.91,4.13-4.91"/></g><path class="cls-2" d="M23.39,40.94s2.63,1.2,6.54,.83c-2.93,3.76-4.96,2.93-6.54-.83Z"/></g></g><g id="Frame"><path class="cls-5" d="M62.56,4.88C54.4,1.94,45.12,.2,35.25,.02c-.57-.01-1.15-.02-1.72-.02C23.88,0,14.77,1.52,6.72,4.21,2.49,14.22,0,26.6,0,40s2.39,25.22,6.45,35.11c8.16,2.94,17.45,4.69,27.32,4.87,.58,.01,1.15,.02,1.73,.02,9.63,0,18.73-1.51,26.78-4.2,4.24-10.01,6.74-22.39,6.74-35.8s-2.4-25.24-6.46-35.12Zm-4.04,66.86c-7.2,2.16-14.94,3.26-23.02,3.26-.49,0-.98-.01-1.47-.02h-.17c-8.18-.15-16.29-1.47-23.6-3.85-3.45-9.22-5.26-19.93-5.26-31.13s1.89-22.38,5.48-31.73c6.73-2.01,14.13-3.13,21.6-3.26,.48-.01,.97-.01,1.45-.01,.54,0,1.08,.01,1.63,.02,8.16,.15,16.27,1.47,23.59,3.84,3.46,9.24,5.27,19.95,5.27,31.14s-1.89,22.39-5.5,31.74Z"/><path class="cls-14" d="M17.21,2.06h0c1.63,.63,2.06,2.75,.81,3.97l-1.26,1.22s8.35-2.37,18.84-1.69h0c-1-1.49-.45-3.52,1.14-4.34l1-.51S28.26-.43,17.21,2.06Z"/><path class="cls-16" d="M21.81,1.66s.7,2.18-.22,3.1c3.77-.41,7.98-.74,11.12-.74-.33-1.33,1.26-3.4,1.26-3.4,0,0-6.17-.26-12.16,1.03Z"/><path class="cls-14" d="M36.25,79.21h0c-1.52-.87-1.62-3.03-.2-4.04l1.43-1.02s-8.61,1.07-18.88-1.19h0c.76,1.63-.09,3.55-1.79,4.11l-1.07,.36s9.19,2.56,20.5,1.78Z"/><path class="cls-16" d="M19.28,77.8s1.76-1.83,1.3-3.09c4.43,.69,9.11,1.14,12.25,1.14-.33,1.33,.44,3.4,.44,3.4,0,0-8-.16-13.99-1.45Z"/><polygon points="47.48 1.77 47.48 6.73 54.49 8.44 54.49 2.62 47.48 1.77"/><line class="cls-7" x1="45.5" y1="1.23" x2="45.5" y2="6.29"/><line class="cls-7" x1="56.47" y1="3.67" x2="56.47" y2="8.73"/><polygon points="47.48 78.74 47.48 73.78 54.49 72.07 54.49 77.88 47.48 78.74"/><line class="cls-7" x1="45.5" y1="79.28" x2="45.5" y2="74.21"/><line class="cls-7" x1="56.47" y1="76.84" x2="56.47" y2="71.77"/><path d="M33.53,1c.56,0,1.14,0,1.7,.02,9.39,.17,18.33,1.74,26.57,4.65,4.07,10.08,6.22,21.94,6.22,34.33s-2.24,24.79-6.49,34.99c-8.12,2.66-16.87,4.01-26.03,4.01-.56,0-1.12,0-1.71-.02-9.25-.17-18.42-1.78-26.58-4.66C3.15,64.25,1,52.39,1,40S3.23,15.21,7.47,5.02C15.6,2.35,24.37,1,33.53,1m0-1C23.88,0,14.77,1.52,6.72,4.21,2.49,14.22,0,26.6,0,40s2.39,25.22,6.45,35.11c8.16,2.94,17.45,4.69,27.32,4.87,.58,.01,1.15,.02,1.73,.02,9.63,0,18.73-1.51,26.78-4.2,4.24-10.01,6.74-22.39,6.74-35.8s-2.4-25.24-6.46-35.12C54.4,1.94,45.12,.2,35.25,.02c-.57,0-1.15-.02-1.72-.02h0Z"/><path class="cls-14" d="M33.53,6c.52,0,1.04,0,1.61,.02,7.87,.14,15.75,1.4,22.84,3.64,3.3,9,5.04,19.47,5.04,30.34s-1.82,21.82-5.26,30.92c-6.98,2.04-14.47,3.08-22.26,3.08-.48,0-.97,0-1.47-.02h-.15c-7.89-.14-15.78-1.41-22.85-3.65-3.29-8.99-5.03-19.46-5.03-30.33s1.81-21.79,5.24-30.91c6.5-1.89,13.7-2.95,20.86-3.08,.47,0,.96,0,1.43,0m0-1c-.48,0-.97,0-1.45,.01-7.47,.13-14.87,1.25-21.6,3.26-3.59,9.35-5.48,20.26-5.48,31.73s1.81,21.91,5.26,31.13c7.31,2.38,15.42,3.7,23.6,3.85h.17c.49,.01,.98,.02,1.47,.02,8.08,0,15.82-1.1,23.02-3.26,3.61-9.35,5.5-20.27,5.5-31.74s-1.81-21.9-5.27-31.14c-7.32-2.37-15.43-3.69-23.59-3.84-.55,0-1.09-.02-1.63-.02h0Z"/><path d="M33.53,5c.54,0,1.08,.01,1.63,.02,8.16,.15,16.27,1.47,23.59,3.84,3.46,9.24,5.27,19.95,5.27,31.14s-1.89,22.39-5.5,31.74c-7.2,2.16-14.94,3.26-23.02,3.26-.49,0-.98-.01-1.47-.02h-.17c-8.18-.15-16.29-1.47-23.6-3.85-3.45-9.22-5.26-19.93-5.26-31.13s1.89-22.38,5.48-31.73c6.73-2.01,14.13-3.13,21.6-3.26,.48-.01,.97-.01,1.45-.01m0-1c-.49,0-.98,0-1.47,.01-7.51,.13-15.07,1.27-21.87,3.3l-.47,.14-.18,.46c-3.63,9.45-5.55,20.55-5.55,32.09s1.84,22.17,5.32,31.48l.17,.45,.46,.15c7.37,2.4,15.63,3.75,23.89,3.9h.19c.48,.01,.97,.02,1.47,.02,8.16,0,16-1.11,23.31-3.3l.47-.14,.18-.46c3.64-9.43,5.57-20.53,5.57-32.1s-1.84-22.17-5.33-31.49l-.17-.45-.46-.15c-7.39-2.39-15.65-3.74-23.88-3.89-.58-.01-1.12-.02-1.65-.02h0Z"/><path class="cls-9" d="M8.14,7.1s-12.66,32.94,0,66.06"/><path class="cls-9" d="M60.88,7.58s12.66,32.94,0,66.06"/></g></svg>