<?xml version="1.0" encoding="UTF-8"?><svg id="Capa_2" xmlns="http://www.w3.org/2000/svg" xmlns:xlink="http://www.w3.org/1999/xlink" viewBox="0 0 69.02 80"><defs><style>.cls-1{fill:#c89aed;}.cls-2{fill:#fff;}.cls-3{fill:#f8ffbf;}.cls-4{fill:#7b7be8;}.cls-5{fill:#a88347;}.cls-6{fill:#782ab5;}.cls-7,.cls-8,.cls-9,.cls-10,.cls-11,.cls-12{fill:none;}.cls-7,.cls-8,.cls-12{stroke:#000;stroke-miterlimit:10;}.cls-8,.cls-9,.cls-12{stroke-linecap:round;}.cls-13{fill:#1c46ff;}.cls-9{stroke:#deb778;stroke-dasharray:0 0 0 4.06;stroke-linejoin:round;}.cls-14{fill:url(#USGS_19_Inundación_de_tierra);}.cls-15{fill:#deb778;}.cls-11{stroke:#1d1d1b;stroke-dasharray:0 0 2 2;stroke-width:.3px;}.cls-12{stroke-width:.75px;}.cls-16{fill:#fcf0c5;}</style><pattern id="USGS_19_Inundación_de_tierra" x="0" y="0" width="72" height="72" patternTransform="translate(-164.48 -16063) rotate(-90)" patternUnits="userSpaceOnUse" viewBox="0 0 72 72"><g><rect class="cls-10" width="72" height="72"/><g><line class="cls-11" x1="71" y1="71" x2="144.44" y2="71"/><line class="cls-11" x1="71" y1="67" x2="144.44" y2="67"/><line class="cls-11" x1="71" y1="63" x2="144.44" y2="63"/><line class="cls-11" x1="71" y1="59" x2="144.44" y2="59"/><line class="cls-11" x1="71" y1="55" x2="144.44" y2="55"/><line class="cls-11" x1="71" y1="51" x2="144.44" y2="51"/><line class="cls-11" x1="71" y1="47" x2="144.44" y2="47"/><line class="cls-11" x1="71" y1="43" x2="144.44" y2="43"/><line class="cls-11" x1="71" y1="39" x2="144.44" y2="39"/><line class="cls-11" x1="71" y1="35" x2="144.44" y2="35"/><line class="cls-11" x1="71" y1="31" x2="144.44" y2="31"/><line class="cls-11" x1="71" y1="27" x2="144.44" y2="27"/><line class="cls-11" x1="71" y1="23" x2="144.44" y2="23"/><line class="cls-11" x1="71" y1="19" x2="144.44" y2="19"/><line class="cls-11" x1="71" y1="15" x2="144.44" y2="15"/><line class="cls-11" x1="71" y1="11" x2="144.44" y2="11"/><line class="cls-11" x1="71" y1="7" x2="144.44" y2="7"/><line class="cls-11" x1="71" y1="3" x2="144.44" y2="3"/></g><g><line class="cls-11" x1="-1" y1="71" x2="72.44" y2="71"/><line class="cls-11" x1="-1" y1="67" x2="72.44" y2="67"/><line class="cls-11" x1="-1" y1="63" x2="72.44" y2="63"/><line class="cls-11" x1="-1" y1="59" x2="72.44" y2="59"/><line class="cls-11" x1="-1" y1="55" x2="72.44" y2="55"/><line class="cls-11" x1="-1" y1="51" x2="72.44" y2="51"/><line class="cls-11" x1="-1" y1="47" x2="72.44" y2="47"/><line class="cls-11" x1="-1" y1="43" x2="72.44" y2="43"/><line class="cls-11" x1="-1" y1="39" x2="72.44" y2="39"/><line class="cls-11" x1="-1" y1="35" x2="72.44" y2="35"/><line class="cls-11" x1="-1" y1="31" x2="72.44" y2="31"/><line class="cls-11" x1="-1" y1="27" x2="72.44" y2="27"/><line class="cls-11" x1="-1" y1="23" x2="72.44" y2="23"/><line class="cls-11" x1="-1" y1="19" x2="72.44" y2="19"/><line class="cls-11" x1="-1" y1="15" x2="72.44" y2="15"/><line class="cls-11" x1="-1" y1="11" x2="72.44" y2="11"/><line class="cls-11" x1="-1" y1="7" x2="72.44" y2="7"/><line class="cls-11" x1="-1" y1="3" x2="72.44" y2="3"/><line class="cls-11" x1="1.04" y1="69" x2="74.48" y2="69"/><line class="cls-11" x1="1.04" y1="65" x2="74.48" y2="65"/><line class="cls-11" x1="1.04" y1="61" x2="74.48" y2="61"/><line class="cls-11" x1="1.04" y1="57" x2="74.48" y2="57"/><line class="cls-11" x1="1.04" y1="53" x2="74.48" y2="53"/><line class="cls-11" x1="1.04" y1="49" x2="74.48" y2="49"/><line class="cls-11" x1="1.04" y1="45" x2="74.48" y2="45"/><line class="cls-11" x1="1.04" y1="41" x2="74.48" y2="41"/><line class="cls-11" x1="1.04" y1="37" x2="74.48" y2="37"/><line class="cls-11" x1="1.04" y1="33" x2="74.48" y2="33"/><line class="cls-11" x1="1.04" y1="29" x2="74.48" y2="29"/><line class="cls-11" x1="1.04" y1="25" x2="74.48" y2="25"/><line class="cls-11" x1="1.04" y1="21" x2="74.48" y2="21"/><line class="cls-11" x1="1.04" y1="17" x2="74.48" y2="17"/><line class="cls-11" x1="1.04" y1="13" x2="74.48" y2="13"/><line class="cls-11" x1="1.04" y1="9" x2="74.48" y2="9"/><line class="cls-11" x1="1.04" y1="5" x2="74.48" y2="5"/><line class="cls-11" x1="1.04" y1="1" x2="74.48" y2="1"/></g><g><line class="cls-11" x1="-73" y1="71" x2=".44" y2="71"/><line class="cls-11" x1="-73" y1="67" x2=".44" y2="67"/><line class="cls-11" x1="-73" y1="63" x2=".44" y2="63"/><line class="cls-11" x1="-73" y1="59" x2=".44" y2="59"/><line class="cls-11" x1="-73" y1="55" x2=".44" y2="55"/><line class="cls-11" x1="-73" y1="51" x2=".44" y2="51"/><line class="cls-11" x1="-73" y1="47" x2=".44" y2="47"/><line class="cls-11" x1="-73" y1="43" x2=".44" y2="43"/><line class="cls-11" x1="-73" y1="39" x2=".44" y2="39"/><line class="cls-11" x1="-73" y1="35" x2=".44" y2="35"/><line class="cls-11" x1="-73" y1="31" x2=".44" y2="31"/><line class="cls-11" x1="-73" y1="27" x2=".44" y2="27"/><line class="cls-11" x1="-73" y1="23" x2=".44" y2="23"/><line class="cls-11" x1="-73" y1="19" x2=".44" y2="19"/><line class="cls-11" x1="-73" y1="15" x2=".44" y2="15"/><line class="cls-11" x1="-73" y1="11" x2=".44" y2="11"/><line class="cls-11" x1="-73" y1="7" x2=".44" y2="7"/><line class="cls-11" x1="-73" y1="3" x2=".44" y2="3"/><line class="cls-11" x1="-70.96" y1="69" x2="2.48" y2="69"/><line class="cls-11" x1="-70.96" y1="65" x2="2.48" y2="65"/><line class="cls-11" x1="-70.96" y1="61" x2="2.48" y2="61"/><line class="cls-11" x1="-70.96" y1="57" x2="2.48" y2="57"/><line class="cls-11" x1="-70.96" y1="53" x2="2.48" y2="53"/><line class="cls-11" x1="-70.96" y1="49" x2="2.48" y2="49"/><line class="cls-11" x1="-70.96" y1="45" x2="2.48" y2="45"/><line class="cls-11" x1="-70.96" y1="41" x2="2.48" y2="41"/><line class="cls-11" x1="-70.96" y1="37" x2="2.48" y2="37"/><line class="cls-11" x1="-70.96" y1="33" x2="2.48" y2="33"/><line class="cls-11" x1="-70.96" y1="29" x2="2.48" y2="29"/><line class="cls-11" x1="-70.96" y1="25" x2="2.48" y2="25"/><line class="cls-11" x1="-70.96" y1="21" x2="2.48" y2="21"/><line class="cls-11" x1="-70.96" y1="17" x2="2.48" y2="17"/><line class="cls-11" x1="-70.96" y1="13" x2="2.48" y2="13"/><line class="cls-11" x1="-70.96" y1="9" x2="2.48" y2="9"/><line class="cls-11" x1="-70.96" y1="5" x2="2.48" y2="5"/><line class="cls-11" x1="-70.96" y1="1" x2="2.48" y2="1"/></g></g></pattern></defs><g id="BG"><g><path class="cls-6" d="M64.02,40c0,11.47-1.89,22.39-5.5,31.74-7.2,2.16-14.94,3.26-23.02,3.26-.49,0-.98-.01-1.47-.02h-.17c-8.18-.15-16.29-1.47-23.6-3.85-3.45-9.22-5.26-19.93-5.26-31.13s1.89-22.38,5.48-31.73c6.73-2.01,14.13-3.13,21.6-3.26,.48-.01,.97-.01,1.45-.01,.54,0,1.08,.01,1.63,.02,8.16,.15,16.27,1.47,23.59,3.84,3.46,9.24,5.27,19.95,5.27,31.14Z"/><path class="cls-14" d="M34.03,5.59V74.98h-.17c-8.18-.15-16.29-1.47-23.6-3.85-3.45-9.22-5.26-19.93-5.26-31.13s1.89-22.38,5.48-31.73c6.73-2.01,14.13-3.13,21.6-3.26,.65,.16,1.3,.36,1.95,.58Z"/></g></g><g id="Characters"><g><path class="cls-1" d="M33.68,9.54s-7.22-.41-11.9,3.46c-3.76,6.3-4.98,14.13-4.68,19.52-2.14-2.75-3.25-2.64-3.56,.92s.81,9.15,4.98,10.17c.92,4.17,2.14,6.2,2.14,6.2l.41,6.1-6.3,7.22-6,2.24,1.83,6.3s10.07,3.86,23.08,3.86,25.01-4.07,25.01-4.07l1.83-5.59-7.52-3.15-6.71-6.61,.1-4.78s2.03-6.41,2.44-7.73c4.68-.51,4.78-6.61,4.98-9.76s-1.22-5.19-3.46-1.22c.81-10.37-2.75-16.88-4.58-19.83-4.07-2.95-12.1-3.25-12.1-3.25Z"/><path class="cls-2" d="M33.31,56.6V27.9c0-5.12,3.42-9.45,8.27-11.1,.02,0,.03-.01,.05-.02,2.06-.78,2.67-1.42,2.67-1.42,0,0,3.5,3.86,3.3,8.95,0,4.8,1.47,7.73,2.54,8.71,.1,6.17-2.45,15.85-4.7,19.38s-5.68,8.03-5.68,8.03c0,0-.01,0-.03,.02-2.89,1.59-6.43-.54-6.43-3.84Z"/><path class="cls-4" d="M28.12,31.84l-3.32-1.81s-1.56-.5-4.07,1.88c0,3.13,.69,4.32,3.82,5.82,2.63-1,5.01-2.57,5.76-4.88-1.31-1-2.19-1-2.19-1Z"/><path class="cls-4" d="M39.26,31.84l3.32-1.81s1.56-.5,4.07,1.88c0,3.13-.69,4.32-3.82,5.82-2.63-1-5.01-2.57-5.76-4.88,1.31-1,2.19-1,2.19-1Z"/><path class="cls-2" d="M28.14,45.72s4.88,3.11,10.53,0c-.21,3.39-.85,4.59-.85,4.59l.42,1.63s-1.34,2.12-4.95,1.91-5.3-2.54-5.3-2.54l.28-1.77s-.71-2.26-.14-3.82Z"/><path class="cls-3" d="M28.9,32.09l-6.33,.88s2.13,2.13,3.43,2.8c3.89-1.66,4.1-3.32,4.1-3.32l-1.19-.36Z"/><path class="cls-3" d="M38.82,32.09l6.33,.88s-2.13,2.13-3.43,2.8c-3.89-1.66-4.1-3.32-4.1-3.32l1.19-.36Z"/><path d="M17.1,32.52s-.83-13.42,4.68-19.52c4.96-3.68,16.53-5.83,23.99-.2,3.94,5.39,4.72,15.81,4.09,19.89-1.49-3.45-1.8-4.63-1.96-6.43s-1.65-8.31-3.61-10.9c-2.35,2.12-10.04,2.12-14.82,1.65s-6.43-1.18-6.43-1.18c0,0-2.9,3.92-3.37,9.56-.71,6.35-2.58,7.12-2.58,7.12Z"/><path class="cls-5" d="M24.04,12.86s19.37,.42,14.7-2.05c3.32,.49,5.58,2.55,5.58,2.55,0,0-9.76,4.45-20.29-.49Z"/><path class="cls-5" d="M47.75,21.4s.55,4.91,.63,5.55c.55-1.58,1.19-.79,1.19-.79l-.87-5.15s0,.79-.95,.4Z"/><path class="cls-5" d="M19.55,21.4s-.55,4.91-.63,5.55c-.55-1.58-1.19-.79-1.19-.79l.87-5.15s0,.79,.95,.4Z"/><path class="cls-4" d="M30.11,39.43s1.89,2.29,3.71,2.29,3.79-2.53,3.79-2.53c0,0-.16,3.95-3.95,5.84-2.92-2.45-3.55-5.61-3.55-5.61Z"/><path d="M16.73,60.73s4.37,11.14,14.71,11.76c10.16,.45,16.84-4.81,18.63-11.68,1.87,.98,2.76,2.58,2.76,2.58l7.69,2.46-1.72,6.18s-13.1,4.01-28.52,3.03-20.23-3.83-20.23-3.83l-1.28-5.89,6-2.24,1.96-2.39Z"/><path class="cls-13" d="M50.48,61.33s-2.85,7.54-10.39,10.48c6.71,.74,11.59,2.02,11.59,2.02l7.12-1.79,1.25-6.21-7.45-2.85-2.11-1.66Z"/><path d="M37.37,61.6l-11.61,9.23s-6.7-2.7-8.09-8.65c2.68-2.48,4.02-4.35,4.02-4.35l1.39,5.76v-8.83l5.18,5.56s2.17,2.18,9.11,1.29Z"/><path d="M17.12,34.09s-1.29-4.13-2.75-3.72-.65,7.6-.16,9.06,2.41,3.91,4.32,4.18c-1.08-5.15-1.41-9.52-1.41-9.52Z"/><path class="cls-1" d="M23.44,17.61c1.99,1.08,4.49,1.08,9.17,1.08h2.19c4.69,0,7.19,0,9.18-1.08,1.91,3.48,2.46,7.75,2.62,10.1,.1,1.52,.5,2.95,1.2,4.26l.81,1.55c-.23,4.36-.97,8.9-2.07,12.51-1.91,6.41-6.21,11.72-7.7,13.43-1.66,.73-3.36,1.1-5.08,1.1-2.47,0-4.27-.76-4.87-1.06-1.08-1.28-6.51-7.9-8.18-13.48-1.06-3.56-1.8-8.01-2.04-12.25l.95-1.8c.69-1.29,1.09-2.72,1.21-4.26,.16-2.35,.71-6.64,2.62-10.1m20.87-1.4c-1.91,1.48-4.15,1.48-9.51,1.48h-2.19c-5.35,0-7.59,0-9.5-1.48-2.45,3.78-3.11,8.75-3.29,11.44-.1,1.38-.46,2.68-1.09,3.86l-1.08,2.05c.25,4.81,1.09,9.37,2.1,12.76,1.84,6.13,7.92,13.3,8.51,13.99,.39,.21,2.49,1.26,5.51,1.26,1.66,0,3.61-.32,5.69-1.28,1.46-1.65,6.02-7.17,8.05-13.97,1.04-3.44,1.89-8.11,2.12-13.02l-.94-1.79c-.63-1.18-1-2.48-1.09-3.86-.18-2.69-.85-7.66-3.29-11.44h0Z"/><path class="cls-2" d="M32.15,69.12l7.55-6.81,2.89-1.12,.56,5.69,3.92-6.25,1.31,1.21s-4.94,10.72-16.22,7.27Z"/><path class="cls-2" d="M20.65,37.91s1.93,2.22,5.54,1.26c-2.93,3.76-3.96,2.5-5.54-1.26Z"/><path class="cls-8" d="M39.77,60.7c2.43-2.72,6.37-8.06,8.23-14.24,2.79-9.28,3.86-24.86-2.36-33.59-4.39-3.31-11.57-3.31-11.57-3.31h-.85s-7.19,0-11.58,3.31c-6.22,8.73-5.14,24.31-2.36,33.59,1.97,6.57,8.66,14.24,8.67,14.24,0,0,5.19,3.11,11.82,0Z"/><path class="cls-8" d="M17.21,34.23s-1.03-4.22-2.7-3.65-1.61,12.29,3.6,13.01"/><path class="cls-8" d="M50.08,34.23s1.03-4.22,2.7-3.65,1.61,12.29-3.6,13.01"/><path d="M21.19,50.39c.45,4.76,1.61,9.31,2.17,13.95-2.08-2.99-2.28-6.82-2.88-10.31-.14-1.19-.25-2.37-.29-3.57,0-.28,.21-.51,.48-.52,.26,0,.49,.19,.52,.44h0Z"/><polyline class="cls-8" points="20.92 56.02 14.51 62.87 8.09 65.64"/><path d="M47,50.46c-.06,2.39-.33,4.76-.75,7.11-.52,2.33-.77,4.82-2.31,6.77,.08-2.44,.87-4.6,1.2-6.97,.39-2.31,.74-4.65,1.08-6.98,.06-.47,.79-.41,.77,.06h0Z"/><polyline class="cls-8" points="46.38 56.02 52.8 62.87 59.21 65.64"/><path class="cls-8" d="M50.27,33.44l-1.14-2.16c-.6-1.14-.94-2.39-1.03-3.67-.19-2.8-.91-8.2-3.69-12.14-1.88,1.72-3.98,1.72-9.61,1.72h-2.19c-5.63,0-7.73,0-9.61-1.72-2.78,3.94-3.5,9.35-3.69,12.14-.09,1.28-.43,2.53-1.03,3.67l-1.14,2.16"/><path class="cls-8" d="M50.26,60.43s-2.99,12.07-16.31,12.07h-.7c-13.32,0-16.31-12.07-16.31-12.07"/><path d="M21.77,30.9c.97-.74,2.15-1.18,3.38-1.22,.98,.37,1.94,.78,2.89,1.2,.91,.42,1.81,.86,2.7,1.34l-.52,.22c.45-1,.95-2,1.12-3.1,.29,1.26-.12,2.57-.5,3.78-2.03-.75-4.02-1.64-5.93-2.66,0,0,.16,.04,.16,.04-1.05-.1-2.18,.1-3.3,.41h0Z"/><path class="cls-12" d="M28.83,31.99l-6.38,.72s1.28,2.11,3.49,3.05c3.71-.94,4.1-3.33,4.1-3.33"/><path d="M45.7,30.9c-1.12-.31-2.25-.51-3.3-.41l.16-.04c-1.91,1.02-3.9,1.91-5.93,2.66-.39-1.21-.8-2.51-.5-3.78,.17,1.1,.67,2.11,1.12,3.1,0,0-.52-.22-.52-.22,.89-.48,1.79-.91,2.7-1.34,.95-.42,1.91-.83,2.89-1.2,1.24,.04,2.42,.48,3.38,1.22h0Z"/><path class="cls-12" d="M38.65,31.99l6.38,.72s-1.28,2.11-3.49,3.05c-3.71-.94-4.1-3.33-4.1-3.33"/><path d="M35.95,33.96c0,.57-.02,1.14-.05,1.72l-.02-.08c.79,1.16,1.52,2.34,2.27,3.52,0,0-.03,.14-.03,.14-.58,2.59-2.19,4.82-4.36,6.31,0,0-.29-.21-.29-.21-2.08-1.5-3.58-3.72-4.11-6.24,.7-1.05,1.63-2.71,2.25-3.44-.03-.57-.05-1.14-.05-1.72,.09,.56,.31,1.24,.31,1.77-.58,1.23-1.2,2.43-1.82,3.63l.04-.25c.16,.52,.4,1.07,.66,1.57,.77,1.53,1.91,2.89,3.3,3.87,0,0-.57,0-.57,0,1.85-1.3,3.26-3.29,3.96-5.44,0,0,.04,.25,.04,.25-.62-1.2-1.25-2.4-1.82-3.63,0-.53,.22-1.2,.31-1.77h0Z"/><path d="M43.56,44.06c-1.1-.13-2.29-.04-3.1,.46,0,0,.23-.2,.23-.2-2.94,4.25-11.17,4.25-14.11,0-.03-.03,.24,.19,.23,.19-.81-.5-2-.59-3.1-.46,1.12-.48,2.35-.77,3.6-.43,2.5,3.8,9.93,3.85,12.55,.17,0,0,.1-.16,.1-.16,1.25-.35,2.49-.05,3.61,.43h0Z"/><path class="cls-8" d="M40.93,44.14s-.66,9.75-7.66,9.75c-7,0-7.44-9.6-7.44-9.6"/><path d="M28.3,45.84s-.39,1.66,.81,4c-.57,1.72-.45,1.96-.45,1.96,0,0-3.68-3.98-2.95-7.48,.84,.05,1.22-.1,1.22-.1l1.36,1.62Z"/><path d="M37.92,46.15s.31,2.12-.92,3.65c.57,1.72,.55,2.3,.55,2.3,0,0,3.66-4.29,2.93-7.79-.84,.05-1.2,.21-1.2,.21l-1.36,1.62Z"/><path class="cls-12" d="M38.23,48.27s-.72,1.93-1.83,2.52c-.55-.76-.69-1.21-.69-1.21,0,0-.93,.48-2.55,.48-1.62,0-2.55-.48-2.55-.48,0,0-.14,.45-.69,1.21-1.1-.59-1.83-2.52-1.83-2.52"/><path d="M29.56,56.55c2.17-1.86,5.82-1.82,7.92,.13-2.69-.6-5.17-.64-7.92-.13h0Z"/><path d="M26.1,41.42c.99-1.3,2.28-2.42,3.85-3,0,0,.22,.72,.22,.72-1.45,.41-2.84,1.27-4.08,2.28h0Z"/><path d="M41.41,41.42c-1.24-1.02-2.62-1.87-4.08-2.28l.22-.72c1.57,.58,2.86,1.7,3.85,3h0Z"/><path d="M25.94,36.76c-.42,.4-.88,.74-1.34,1.08-.68-.14-1.3-.43-1.84-.85-.5-.39-.92-.92-1.12-1.53,.43,.47,.88,.85,1.38,1.16,.49,.32,1.04,.58,1.58,.78l-.17,.02c.49-.24,.98-.48,1.5-.66h0Z"/><path d="M41.54,36.76c.53,.18,1.02,.42,1.5,.66l-.17-.02c1.12-.42,2.14-1.03,2.96-1.94-.19,.61-.61,1.14-1.12,1.53-.54,.42-1.16,.71-1.84,.85-.46-.34-.92-.67-1.34-1.08h0Z"/><path d="M38.73,25.4c-1.9,.2-3.86,.58-5.45,1.66,0,0-.14-.09-.14-.09-1.56-1.01-3.47-1.37-5.31-1.57,.95-.11,1.92-.06,2.87,.11,.95,.17,1.89,.5,2.72,1.04h-.28c1.66-1.05,3.68-1.34,5.59-1.15h0Z"/><path d="M25.44,20.18c-.19,1.84-.58,3.66-.82,5.47-.91,.83-1.65,1.84-2.21,2.99,.25-1.24,.92-2.38,1.81-3.28,0,0-.07,.15-.07,.15,.2-1.84,.66-3.6,1.29-5.33h0Z"/><path d="M41.11,20.18c.62,1.73,1.09,3.49,1.29,5.33,0,0-.07-.15-.07-.15,.89,.89,1.56,2.04,1.81,3.28-.56-1.15-1.3-2.16-2.21-2.99-.24-1.82-.63-3.63-.82-5.47h0Z"/></g></g><g id="Frame"><path class="cls-5" d="M62.56,4.88C54.4,1.94,45.12,.2,35.25,.02c-.57-.01-1.15-.02-1.72-.02C23.88,0,14.77,1.52,6.72,4.21,2.49,14.22,0,26.6,0,40s2.39,25.22,6.45,35.11c8.16,2.94,17.45,4.69,27.32,4.87,.58,.01,1.15,.02,1.73,.02,9.63,0,18.73-1.51,26.78-4.2,4.24-10.01,6.74-22.39,6.74-35.8s-2.4-25.24-6.46-35.12Zm-4.04,66.86c-7.2,2.16-14.94,3.26-23.02,3.26-.49,0-.98-.01-1.47-.02h-.17c-8.18-.15-16.29-1.47-23.6-3.85-3.45-9.22-5.26-19.93-5.26-31.13s1.89-22.38,5.48-31.73c6.73-2.01,14.13-3.13,21.6-3.26,.48-.01,.97-.01,1.45-.01,.54,0,1.08,.01,1.63,.02,8.16,.15,16.27,1.47,23.59,3.84,3.46,9.24,5.27,19.95,5.27,31.14s-1.89,22.39-5.5,31.74Z"/><path class="cls-15" d="M17.21,2.06h0c1.63,.63,2.06,2.75,.81,3.97l-1.26,1.22s8.35-2.37,18.84-1.69h0c-1-1.49-.45-3.52,1.14-4.34l1-.51S28.26-.43,17.21,2.06Z"/><path class="cls-16" d="M21.81,1.66s.7,2.18-.22,3.1c3.77-.41,7.98-.74,11.12-.74-.33-1.33,1.26-3.4,1.26-3.4,0,0-6.17-.26-12.16,1.03Z"/><path class="cls-15" d="M36.25,79.21h0c-1.52-.87-1.62-3.03-.2-4.04l1.43-1.02s-8.61,1.07-18.88-1.19h0c.76,1.63-.09,3.55-1.79,4.11l-1.07,.36s9.19,2.56,20.5,1.78Z"/><path class="cls-16" d="M19.28,77.8s1.76-1.83,1.3-3.09c4.43,.69,9.11,1.14,12.25,1.14-.33,1.33,.44,3.4,.44,3.4,0,0-8-.16-13.99-1.45Z"/><polygon points="47.48 1.77 47.48 6.73 54.49 8.44 54.49 2.62 47.48 1.77"/><line class="cls-7" x1="45.5" y1="1.23" x2="45.5" y2="6.29"/><line class="cls-7" x1="56.47" y1="3.67" x2="56.47" y2="8.73"/><polygon points="47.48 78.74 47.48 73.78 54.49 72.07 54.49 77.88 47.48 78.74"/><line class="cls-7" x1="45.5" y1="79.28" x2="45.5" y2="74.21"/><line class="cls-7" x1="56.47" y1="76.84" x2="56.47" y2="71.77"/><path d="M33.53,1c.56,0,1.14,0,1.7,.02,9.39,.17,18.33,1.74,26.57,4.65,4.07,10.08,6.22,21.94,6.22,34.33s-2.24,24.79-6.49,34.99c-8.12,2.66-16.87,4.01-26.03,4.01-.56,0-1.12,0-1.71-.02-9.25-.17-18.42-1.78-26.58-4.66C3.15,64.25,1,52.39,1,40S3.23,15.21,7.47,5.02C15.6,2.35,24.37,1,33.53,1m0-1C23.88,0,14.77,1.52,6.72,4.21,2.49,14.22,0,26.6,0,40s2.39,25.22,6.45,35.11c8.16,2.94,17.45,4.69,27.32,4.87,.58,.01,1.15,.02,1.73,.02,9.63,0,18.73-1.51,26.78-4.2,4.24-10.01,6.74-22.39,6.74-35.8s-2.4-25.24-6.46-35.12C54.4,1.94,45.12,.2,35.25,.02c-.57,0-1.15-.02-1.72-.02h0Z"/><path class="cls-15" d="M33.53,6c.52,0,1.04,0,1.61,.02,7.87,.14,15.75,1.4,22.84,3.64,3.3,9,5.04,19.47,5.04,30.34s-1.82,21.82-5.26,30.92c-6.98,2.04-14.47,3.08-22.26,3.08-.48,0-.97,0-1.47-.02h-.15c-7.89-.14-15.78-1.41-22.85-3.65-3.29-8.99-5.03-19.46-5.03-30.33s1.81-21.79,5.24-30.91c6.5-1.89,13.7-2.95,20.86-3.08,.47,0,.96,0,1.43,0m0-1c-.48,0-.97,0-1.45,.01-7.47,.13-14.87,1.25-21.6,3.26-3.59,9.35-5.48,20.26-5.48,31.73s1.81,21.91,5.26,31.13c7.31,2.38,15.42,3.7,23.6,3.85h.17c.49,.01,.98,.02,1.47,.02,8.08,0,15.82-1.1,23.02-3.26,3.61-9.35,5.5-20.27,5.5-31.74s-1.81-21.9-5.27-31.14c-7.32-2.37-15.43-3.69-23.59-3.84-.55,0-1.09-.02-1.63-.02h0Z"/><path d="M33.53,5c.54,0,1.08,.01,1.63,.02,8.16,.15,16.27,1.47,23.59,3.84,3.46,9.24,5.27,19.95,5.27,31.14s-1.89,22.39-5.5,31.74c-7.2,2.16-14.94,3.26-23.02,3.26-.49,0-.98-.01-1.47-.02h-.17c-8.18-.15-16.29-1.47-23.6-3.85-3.45-9.22-5.26-19.93-5.26-31.13s1.89-22.38,5.48-31.73c6.73-2.01,14.13-3.13,21.6-3.26,.48-.01,.97-.01,1.45-.01m0-1c-.49,0-.98,0-1.47,.01-7.51,.13-15.07,1.27-21.87,3.3l-.47,.14-.18,.46c-3.63,9.45-5.55,20.55-5.55,32.09s1.84,22.17,5.32,31.48l.17,.45,.46,.15c7.37,2.4,15.63,3.75,23.89,3.9h.19c.48,.01,.97,.02,1.47,.02,8.16,0,16-1.11,23.31-3.3l.47-.14,.18-.46c3.64-9.43,5.57-20.53,5.57-32.1s-1.84-22.17-5.33-31.49l-.17-.45-.46-.15c-7.39-2.39-15.65-3.74-23.88-3.89-.58-.01-1.12-.02-1.65-.02h0Z"/><path class="cls-9" d="M8.14,7.1s-12.66,32.94,0,66.06"/><path class="cls-9" d="M60.88,7.58s12.66,32.94,0,66.06"/></g></svg>