<svg id="Capa_2" xmlns="http://www.w3.org/2000/svg" xmlns:xlink="http://www.w3.org/1999/xlink" viewBox="0 0 69.02 80">
<defs >
<style >
.cls-1{fill:#c89aed;}.cls-2{fill:#fff;}.cls-3{fill:#f8ffbf;}.cls-4{fill:#7b7be8;}.cls-5{fill:#a88347;}.cls-6{fill:#782ab5;}.cls-7,.cls-8,.cls-9,.cls-10,.cls-11,.cls-12{fill:none;}.cls-7,.cls-8,.cls-12{stroke:#000;stroke-miterlimit:10;}.cls-8,.cls-9,.cls-12{stroke-linecap:round;}.cls-13{fill:#1c46ff;}.cls-9{stroke:#deb778;stroke-dasharray:0 0 0 4.06;stroke-linejoin:round;}.cls-14{fill:url(#USGS_19_Inundación_de_tierra);}.cls-15{fill:#deb778;}.cls-11{stroke:#1d1d1b;stroke-dasharray:0 0 2 2;stroke-width:.3px;}.cls-12{stroke-width:.75px;}.cls-16{fill:#fcf0c5;}
</style>
<pattern id="USGS_19_Inundación_de_tierra" x="0" y="0" width="72" height="72" patternTransform="translate(-164.48 -16063) rotate(-90)" patternUnits="userSpaceOnUse" viewBox="0 0 72 72">
<g >
<rect class="cls-10" width="72" height="72">
</rect>
<g >
<line class="cls-11" x1="71" y1="71" x2="144.44" y2="71">
</line>
<line class="cls-11" x1="71" y1="67" x2="144.44" y2="67">
</line>
<line class="cls-11" x1="71" y1="63" x2="144.44" y2="63">
</line>
<line class="cls-11" x1="71" y1="59" x2="144.44" y2="59">
</line>
<line class="cls-11" x1="71" y1="55" x2="144.44" y2="55">
</line>
<line class="cls-11" x1="71" y1="51" x2="144.44" y2="51">
</line>
<line class="cls-11" x1="71" y1="47" x2="144.44" y2="47">
</line>
<line class="cls-11" x1="71" y1="43" x2="144.44" y2="43">
</line>
<line class="cls-11" x1="71" y1="39" x2="144.44" y2="39">
</line>
<line class="cls-11" x1="71" y1="35" x2="144.44" y2="35">
</line>
<line class="cls-11" x1="71" y1="31" x2="144.44" y2="31">
</line>
<line class="cls-11" x1="71" y1="27" x2="144.44" y2="27">
</line>
<line class="cls-11" x1="71" y1="23" x2="144.44" y2="23">
</line>
<line class="cls-11" x1="71" y1="19" x2="144.44" y2="19">
</line>
<line class="cls-11" x1="71" y1="15" x2="144.44" y2="15">
</line>
<line class="cls-11" x1="71" y1="11" x2="144.44" y2="11">
</line>
<line class="cls-11" x1="71" y1="7" x2="144.44" y2="7">
</line>
<line class="cls-11" x1="71" y1="3" x2="144.44" y2="3">
</line>
</g>
<g >
<line class="cls-11" x1="-1" y1="71" x2="72.44" y2="71">
</line>
<line class="cls-11" x1="-1" y1="67" x2="72.44" y2="67">
</line>
<line class="cls-11" x1="-1" y1="63" x2="72.44" y2="63">
</line>
<line class="cls-11" x1="-1" y1="59" x2="72.44" y2="59">
</line>
<line class="cls-11" x1="-1" y1="55" x2="72.44" y2="55">
</line>
<line class="cls-11" x1="-1" y1="51" x2="72.44" y2="51">
</line>
<line class="cls-11" x1="-1" y1="47" x2="72.44" y2="47">
</line>
<line class="cls-11" x1="-1" y1="43" x2="72.44" y2="43">
</line>
<line class="cls-11" x1="-1" y1="39" x2="72.44" y2="39">
</line>
<line class="cls-11" x1="-1" y1="35" x2="72.44" y2="35">
</line>
<line class="cls-11" x1="-1" y1="31" x2="72.44" y2="31">
</line>
<line class="cls-11" x1="-1" y1="27" x2="72.44" y2="27">
</line>
<line class="cls-11" x1="-1" y1="23" x2="72.44" y2="23">
</line>
<line class="cls-11" x1="-1" y1="19" x2="72.44" y2="19">
</line>
<line class="cls-11" x1="-1" y1="15" x2="72.44" y2="15">
</line>
<line class="cls-11" x1="-1" y1="11" x2="72.44" y2="11">
</line>
<line class="cls-11" x1="-1" y1="7" x2="72.44" y2="7">
</line>
<line class="cls-11" x1="-1" y1="3" x2="72.44" y2="3">
</line>
<line class="cls-11" x1="1.04" y1="69" x2="74.48" y2="69">
</line>
<line class="cls-11" x1="1.04" y1="65" x2="74.48" y2="65">
</line>
<line class="cls-11" x1="1.04" y1="61" x2="74.48" y2="61">
</line>
<line class="cls-11" x1="1.04" y1="57" x2="74.48" y2="57">
</line>
<line class="cls-11" x1="1.04" y1="53" x2="74.48" y2="53">
</line>
<line class="cls-11" x1="1.04" y1="49" x2="74.48" y2="49">
</line>
<line class="cls-11" x1="1.04" y1="45" x2="74.48" y2="45">
</line>
<line class="cls-11" x1="1.04" y1="41" x2="74.48" y2="41">
</line>
<line class="cls-11" x1="1.04" y1="37" x2="74.48" y2="37">
</line>
<line class="cls-11" x1="1.04" y1="33" x2="74.48" y2="33">
</line>
<line class="cls-11" x1="1.04" y1="29" x2="74.48" y2="29">
</line>
<line class="cls-11" x1="1.04" y1="25" x2="74.48" y2="25">
</line>
<line class="cls-11" x1="1.04" y1="21" x2="74.48" y2="21">
</line>
<line class="cls-11" x1="1.04" y1="17" x2="74.48" y2="17">
</line>
<line class="cls-11" x1="1.04" y1="13" x2="74.48" y2="13">
</line>
<line class="cls-11" x1="1.04" y1="9" x2="74.48" y2="9">
</line>
<line class="cls-11" x1="1.04" y1="5" x2="74.48" y2="5">
</line>
<line class="cls-11" x1="1.04" y1="1" x2="74.48" y2="1">
</line>
</g>
<g >
<line class="cls-11" x1="-73" y1="71" x2=".44" y2="71">
</line>
<line class="cls-11" x1="-73" y1="67" x2=".44" y2="67">
</line>
<line class="cls-11" x1="-73" y1="63" x2=".44" y2="63">
</line>
<line class="cls-11" x1="-73" y1="59" x2=".44" y2="59">
</line>
<line class="cls-11" x1="-73" y1="55" x2=".44" y2="55">
</line>
<line class="cls-11" x1="-73" y1="51" x2=".44" y2="51">
</line>
<line class="cls-11" x1="-73" y1="47" x2=".44" y2="47">
</line>
<line class="cls-11" x1="-73" y1="43" x2=".44" y2="43">
</line>
<line class="cls-11" x1="-73" y1="39" x2=".44" y2="39">
</line>
<line class="cls-11" x1="-73" y1="35" x2=".44" y2="35">
</line>
<line class="cls-11" x1="-73" y1="31" x2=".44" y2="31">
</line>
<line class="cls-11" x1="-73" y1="27" x2=".44" y2="27">
</line>
<line class="cls-11" x1="-73" y1="23" x2=".44" y2="23">
</line>
<line class="cls-11" x1="-73" y1="19" x2=".44" y2="19">
</line>
<line class="cls-11" x1="-73" y1="15" x2=".44" y2="15">
</line>
<line class="cls-11" x1="-73" y1="11" x2=".44" y2="11">
</line>
<line class="cls-11" x1="-73" y1="7" x2=".44" y2="7">
</line>
<line class="cls-11" x1="-73" y1="3" x2=".44" y2="3">
</line>
<line class="cls-11" x1="-70.96" y1="69" x2="2.48" y2="69">
</line>
<line class="cls-11" x1="-70.96" y1="65" x2="2.48" y2="65">
</line>
<line class="cls-11" x1="-70.96" y1="61" x2="2.48" y2="61">
</line>
<line class="cls-11" x1="-70.96" y1="57" x2="2.48" y2="57">
</line>
<line class="cls-11" x1="-70.96" y1="53" x2="2.48" y2="53">
</line>
<line class="cls-11" x1="-70.96" y1="49" x2="2.48" y2="49">
</line>
<line class="cls-11" x1="-70.96" y1="45" x2="2.48" y2="45">
</line>
<line class="cls-11" x1="-70.96" y1="41" x2="2.48" y2="41">
</line>
<line class="cls-11" x1="-70.96" y1="37" x2="2.48" y2="37">
</line>
<line class="cls-11" x1="-70.96" y1="33" x2="2.48" y2="33">
</line>
<line class="cls-11" x1="-70.96" y1="29" x2="2.48" y2="29">
</line>
<line class="cls-11" x1="-70.96" y1="25" x2="2.48" y2="25">
</line>
<line class="cls-11" x1="-70.96" y1="21" x2="2.48" y2="21">
</line>
<line class="cls-11" x1="-70.96" y1="17" x2="2.48" y2="17">
</line>
<line class="cls-11" x1="-70.96" y1="13" x2="2.48" y2="13">
</line>
<line class="cls-11" x1="-70.96" y1="9" x2="2.48" y2="9">
</line>
<line class="cls-11" x1="-70.96" y1="5" x2="2.48" y2="5">
</line>
<line class="cls-11" x1="-70.96" y1="1" x2="2.48" y2="1">
</line>
</g>
</g>
</pattern>
</defs>

<g id="Characters">
<g >
<path class="cls-1" d="M33.68,9.54s-7.22-.41-11.9,3.46c-3.76,6.3-4.98,14.13-4.68,19.52-2.14-2.75-3.25-2.64-3.56,.92s.81,9.15,4.98,10.17c.92,4.17,2.14,6.2,2.14,6.2l.41,6.1-6.3,7.22-6,2.24,1.83,6.3s10.07,3.86,23.08,3.86,25.01-4.07,25.01-4.07l1.83-5.59-7.52-3.15-6.71-6.61,.1-4.78s2.03-6.41,2.44-7.73c4.68-.51,4.78-6.61,4.98-9.76s-1.22-5.19-3.46-1.22c.81-10.37-2.75-16.88-4.58-19.83-4.07-2.95-12.1-3.25-12.1-3.25Z">
</path>
<path class="cls-2" d="M33.31,56.6V27.9c0-5.12,3.42-9.45,8.27-11.1,.02,0,.03-.01,.05-.02,2.06-.78,2.67-1.42,2.67-1.42,0,0,3.5,3.86,3.3,8.95,0,4.8,1.47,7.73,2.54,8.71,.1,6.17-2.45,15.85-4.7,19.38s-5.68,8.03-5.68,8.03c0,0-.01,0-.03,.02-2.89,1.59-6.43-.54-6.43-3.84Z">
</path>
<path class="cls-4" d="M28.12,31.84l-3.32-1.81s-1.56-.5-4.07,1.88c0,3.13,.69,4.32,3.82,5.82,2.63-1,5.01-2.57,5.76-4.88-1.31-1-2.19-1-2.19-1Z">
</path>
<path class="cls-4" d="M39.26,31.84l3.32-1.81s1.56-.5,4.07,1.88c0,3.13-.69,4.32-3.82,5.82-2.63-1-5.01-2.57-5.76-4.88,1.31-1,2.19-1,2.19-1Z">
</path>
<path class="cls-2" d="M28.14,45.72s4.88,3.11,10.53,0c-.21,3.39-.85,4.59-.85,4.59l.42,1.63s-1.34,2.12-4.95,1.91-5.3-2.54-5.3-2.54l.28-1.77s-.71-2.26-.14-3.82Z">
</path>
<path class="cls-3" d="M28.9,32.09l-6.33,.88s2.13,2.13,3.43,2.8c3.89-1.66,4.1-3.32,4.1-3.32l-1.19-.36Z">
</path>
<path class="cls-3" d="M38.82,32.09l6.33,.88s-2.13,2.13-3.43,2.8c-3.89-1.66-4.1-3.32-4.1-3.32l1.19-.36Z">
</path>
<path d="M17.1,32.52s-.83-13.42,4.68-19.52c4.96-3.68,16.53-5.83,23.99-.2,3.94,5.39,4.72,15.81,4.09,19.89-1.49-3.45-1.8-4.63-1.96-6.43s-1.65-8.31-3.61-10.9c-2.35,2.12-10.04,2.12-14.82,1.65s-6.43-1.18-6.43-1.18c0,0-2.9,3.92-3.37,9.56-.71,6.35-2.58,7.12-2.58,7.12Z">
</path>
<path class="cls-5" d="M24.04,12.86s19.37,.42,14.7-2.05c3.32,.49,5.58,2.55,5.58,2.55,0,0-9.76,4.45-20.29-.49Z">
</path>
<path class="cls-5" d="M47.75,21.4s.55,4.91,.63,5.55c.55-1.58,1.19-.79,1.19-.79l-.87-5.15s0,.79-.95,.4Z">
</path>
<path class="cls-5" d="M19.55,21.4s-.55,4.91-.63,5.55c-.55-1.58-1.19-.79-1.19-.79l.87-5.15s0,.79,.95,.4Z">
</path>
<path class="cls-4" d="M30.11,39.43s1.89,2.29,3.71,2.29,3.79-2.53,3.79-2.53c0,0-.16,3.95-3.95,5.84-2.92-2.45-3.55-5.61-3.55-5.61Z">
</path>
<path d="M16.73,60.73s4.37,11.14,14.71,11.76c10.16,.45,16.84-4.81,18.63-11.68,1.87,.98,2.76,2.58,2.76,2.58l7.69,2.46-1.72,6.18s-13.1,4.01-28.52,3.03-20.23-3.83-20.23-3.83l-1.28-5.89,6-2.24,1.96-2.39Z">
</path>
<path class="cls-13" d="M50.48,61.33s-2.85,7.54-10.39,10.48c6.71,.74,11.59,2.02,11.59,2.02l7.12-1.79,1.25-6.21-7.45-2.85-2.11-1.66Z">
</path>
<path d="M37.37,61.6l-11.61,9.23s-6.7-2.7-8.09-8.65c2.68-2.48,4.02-4.35,4.02-4.35l1.39,5.76v-8.83l5.18,5.56s2.17,2.18,9.11,1.29Z">
</path>
<path d="M17.12,34.09s-1.29-4.13-2.75-3.72-.65,7.6-.16,9.06,2.41,3.91,4.32,4.18c-1.08-5.15-1.41-9.52-1.41-9.52Z">
</path>
<path class="cls-1" d="M23.44,17.61c1.99,1.08,4.49,1.08,9.17,1.08h2.19c4.69,0,7.19,0,9.18-1.08,1.91,3.48,2.46,7.75,2.62,10.1,.1,1.52,.5,2.95,1.2,4.26l.81,1.55c-.23,4.36-.97,8.9-2.07,12.51-1.91,6.41-6.21,11.72-7.7,13.43-1.66,.73-3.36,1.1-5.08,1.1-2.47,0-4.27-.76-4.87-1.06-1.08-1.28-6.51-7.9-8.18-13.48-1.06-3.56-1.8-8.01-2.04-12.25l.95-1.8c.69-1.29,1.09-2.72,1.21-4.26,.16-2.35,.71-6.64,2.62-10.1m20.87-1.4c-1.91,1.48-4.15,1.48-9.51,1.48h-2.19c-5.35,0-7.59,0-9.5-1.48-2.45,3.78-3.11,8.75-3.29,11.44-.1,1.38-.46,2.68-1.09,3.86l-1.08,2.05c.25,4.81,1.09,9.37,2.1,12.76,1.84,6.13,7.92,13.3,8.51,13.99,.39,.21,2.49,1.26,5.51,1.26,1.66,0,3.61-.32,5.69-1.28,1.46-1.65,6.02-7.17,8.05-13.97,1.04-3.44,1.89-8.11,2.12-13.02l-.94-1.79c-.63-1.18-1-2.48-1.09-3.86-.18-2.69-.85-7.66-3.29-11.44h0Z">
</path>
<path class="cls-2" d="M32.15,69.12l7.55-6.81,2.89-1.12,.56,5.69,3.92-6.25,1.31,1.21s-4.94,10.72-16.22,7.27Z">
</path>
<path class="cls-2" d="M20.65,37.91s1.93,2.22,5.54,1.26c-2.93,3.76-3.96,2.5-5.54-1.26Z">
</path>
<path class="cls-8" d="M39.77,60.7c2.43-2.72,6.37-8.06,8.23-14.24,2.79-9.28,3.86-24.86-2.36-33.59-4.39-3.31-11.57-3.31-11.57-3.31h-.85s-7.19,0-11.58,3.31c-6.22,8.73-5.14,24.31-2.36,33.59,1.97,6.57,8.66,14.24,8.67,14.24,0,0,5.19,3.11,11.82,0Z">
</path>
<path class="cls-8" d="M17.21,34.23s-1.03-4.22-2.7-3.65-1.61,12.29,3.6,13.01">
</path>
<path class="cls-8" d="M50.08,34.23s1.03-4.22,2.7-3.65,1.61,12.29-3.6,13.01">
</path>
<path d="M21.19,50.39c.45,4.76,1.61,9.31,2.17,13.95-2.08-2.99-2.28-6.82-2.88-10.31-.14-1.19-.25-2.37-.29-3.57,0-.28,.21-.51,.48-.52,.26,0,.49,.19,.52,.44h0Z">
</path>
<polyline class="cls-8" points="20.92 56.02 14.51 62.87 8.09 65.64">
</polyline>
<path d="M47,50.46c-.06,2.39-.33,4.76-.75,7.11-.52,2.33-.77,4.82-2.31,6.77,.08-2.44,.87-4.6,1.2-6.97,.39-2.31,.74-4.65,1.08-6.98,.06-.47,.79-.41,.77,.06h0Z">
</path>
<polyline class="cls-8" points="46.38 56.02 52.8 62.87 59.21 65.64">
</polyline>
<path class="cls-8" d="M50.27,33.44l-1.14-2.16c-.6-1.14-.94-2.39-1.03-3.67-.19-2.8-.91-8.2-3.69-12.14-1.88,1.72-3.98,1.72-9.61,1.72h-2.19c-5.63,0-7.73,0-9.61-1.72-2.78,3.94-3.5,9.35-3.69,12.14-.09,1.28-.43,2.53-1.03,3.67l-1.14,2.16">
</path>
<path class="cls-8" d="M50.26,60.43s-2.99,12.07-16.31,12.07h-.7c-13.32,0-16.31-12.07-16.31-12.07">
</path>
<path d="M21.77,30.9c.97-.74,2.15-1.18,3.38-1.22,.98,.37,1.94,.78,2.89,1.2,.91,.42,1.81,.86,2.7,1.34l-.52,.22c.45-1,.95-2,1.12-3.1,.29,1.26-.12,2.57-.5,3.78-2.03-.75-4.02-1.64-5.93-2.66,0,0,.16,.04,.16,.04-1.05-.1-2.18,.1-3.3,.41h0Z">
</path>
<path class="cls-12" d="M28.83,31.99l-6.38,.72s1.28,2.11,3.49,3.05c3.71-.94,4.1-3.33,4.1-3.33">
</path>
<path d="M45.7,30.9c-1.12-.31-2.25-.51-3.3-.41l.16-.04c-1.91,1.02-3.9,1.91-5.93,2.66-.39-1.21-.8-2.51-.5-3.78,.17,1.1,.67,2.11,1.12,3.1,0,0-.52-.22-.52-.22,.89-.48,1.79-.91,2.7-1.34,.95-.42,1.91-.83,2.89-1.2,1.24,.04,2.42,.48,3.38,1.22h0Z">
</path>
<path class="cls-12" d="M38.65,31.99l6.38,.72s-1.28,2.11-3.49,3.05c-3.71-.94-4.1-3.33-4.1-3.33">
</path>
<path d="M35.95,33.96c0,.57-.02,1.14-.05,1.72l-.02-.08c.79,1.16,1.52,2.34,2.27,3.52,0,0-.03,.14-.03,.14-.58,2.59-2.19,4.82-4.36,6.31,0,0-.29-.21-.29-.21-2.08-1.5-3.58-3.72-4.11-6.24,.7-1.05,1.63-2.71,2.25-3.44-.03-.57-.05-1.14-.05-1.72,.09,.56,.31,1.24,.31,1.77-.58,1.23-1.2,2.43-1.82,3.63l.04-.25c.16,.52,.4,1.07,.66,1.57,.77,1.53,1.91,2.89,3.3,3.87,0,0-.57,0-.57,0,1.85-1.3,3.26-3.29,3.96-5.44,0,0,.04,.25,.04,.25-.62-1.2-1.25-2.4-1.82-3.63,0-.53,.22-1.2,.31-1.77h0Z">
</path>
<path d="M43.56,44.06c-1.1-.13-2.29-.04-3.1,.46,0,0,.23-.2,.23-.2-2.94,4.25-11.17,4.25-14.11,0-.03-.03,.24,.19,.23,.19-.81-.5-2-.59-3.1-.46,1.12-.48,2.35-.77,3.6-.43,2.5,3.8,9.93,3.85,12.55,.17,0,0,.1-.16,.1-.16,1.25-.35,2.49-.05,3.61,.43h0Z">
</path>
<path class="cls-8" d="M40.93,44.14s-.66,9.75-7.66,9.75c-7,0-7.44-9.6-7.44-9.6">
</path>
<path d="M28.3,45.84s-.39,1.66,.81,4c-.57,1.72-.45,1.96-.45,1.96,0,0-3.68-3.98-2.95-7.48,.84,.05,1.22-.1,1.22-.1l1.36,1.62Z">
</path>
<path d="M37.92,46.15s.31,2.12-.92,3.65c.57,1.72,.55,2.3,.55,2.3,0,0,3.66-4.29,2.93-7.79-.84,.05-1.2,.21-1.2,.21l-1.36,1.62Z">
</path>
<path class="cls-12" d="M38.23,48.27s-.72,1.93-1.83,2.52c-.55-.76-.69-1.21-.69-1.21,0,0-.93,.48-2.55,.48-1.62,0-2.55-.48-2.55-.48,0,0-.14,.45-.69,1.21-1.1-.59-1.83-2.52-1.83-2.52">
</path>
<path d="M29.56,56.55c2.17-1.86,5.82-1.82,7.92,.13-2.69-.6-5.17-.64-7.92-.13h0Z">
</path>
<path d="M26.1,41.42c.99-1.3,2.28-2.42,3.85-3,0,0,.22,.72,.22,.72-1.45,.41-2.84,1.27-4.08,2.28h0Z">
</path>
<path d="M41.41,41.42c-1.24-1.02-2.62-1.87-4.08-2.28l.22-.72c1.57,.58,2.86,1.7,3.85,3h0Z">
</path>
<path d="M25.94,36.76c-.42,.4-.88,.74-1.34,1.08-.68-.14-1.3-.43-1.84-.85-.5-.39-.92-.92-1.12-1.53,.43,.47,.88,.85,1.38,1.16,.49,.32,1.04,.58,1.58,.78l-.17,.02c.49-.24,.98-.48,1.5-.66h0Z">
</path>
<path d="M41.54,36.76c.53,.18,1.02,.42,1.5,.66l-.17-.02c1.12-.42,2.14-1.03,2.96-1.94-.19,.61-.61,1.14-1.12,1.53-.54,.42-1.16,.71-1.84,.85-.46-.34-.92-.67-1.34-1.08h0Z">
</path>
<path d="M38.73,25.4c-1.9,.2-3.86,.58-5.45,1.66,0,0-.14-.09-.14-.09-1.56-1.01-3.47-1.37-5.31-1.57,.95-.11,1.92-.06,2.87,.11,.95,.17,1.89,.5,2.72,1.04h-.28c1.66-1.05,3.68-1.34,5.59-1.15h0Z">
</path>
<path d="M25.44,20.18c-.19,1.84-.58,3.66-.82,5.47-.91,.83-1.65,1.84-2.21,2.99,.25-1.24,.92-2.38,1.81-3.28,0,0-.07,.15-.07,.15,.2-1.84,.66-3.6,1.29-5.33h0Z">
</path>
<path d="M41.11,20.18c.62,1.73,1.09,3.49,1.29,5.33,0,0-.07-.15-.07-.15,.89,.89,1.56,2.04,1.81,3.28-.56-1.15-1.3-2.16-2.21-2.99-.24-1.82-.63-3.63-.82-5.47h0Z">
</path>
</g>
</g>
 <g
     id="g2850">
    <g
       id="g2837">
      <path
         id="path1951"
         d="M 0.056640625 0.04296875 L 0.056640625 79.943359 L 69.308594 79.943359 L 69.308594 0.04296875 L 0.056640625 0.04296875 z M 33.615234 3.5957031 C 34.206332 3.5957038 34.786991 3.6051034 35.421875 3.6152344 C 44.430653 3.7671809 53.471255 5.1336733 61.560547 7.5546875 L 62.064453 7.7070312 L 62.25 8.1640625 C 66.070247 17.605006 66.990234 28.726438 66.990234 40.0625 C 66.990234 51.398562 65.972723 63.025755 61.988281 72.578125 L 61.791016 73.044922 L 61.275391 73.185547 C 53.273669 75.403966 44.691921 76.529297 35.759766 76.529297 C 35.212453 76.529297 34.675812 76.519896 34.150391 76.509766 L 33.943359 76.509766 C 24.901742 76.357819 15.860367 74.989738 7.7929688 72.558594 L 7.2890625 72.40625 L 7.1035156 71.951172 C 3.2942144 62.520359 2.375 51.369168 2.375 40.0625 C 2.375 28.755832 3.3819737 17.127318 7.3554688 7.5546875 L 7.5527344 7.0898438 L 8.0664062 6.9472656 C 15.509867 4.890923 23.785212 3.7371557 32.005859 3.6054688 C 32.542226 3.5953387 33.078867 3.5957031 33.615234 3.5957031 z "
         style="opacity:1;vector-effect:none;fill:#ffffff;fill-opacity:1;fill-rule:nonzero;stroke:none;stroke-width:1.95200002;stroke-linecap:butt;stroke-linejoin:miter;stroke-miterlimit:4;stroke-dasharray:none;stroke-dashoffset:0;stroke-opacity:1" />
    </g>
    <path
       id="path1154-8-2"
       d="m 33.675163,6.6112954 c 0.557696,0 1.115392,0.00956 1.683415,0.019115 8.427403,0.14336 16.803167,1.4049288 24.363042,3.6700176 3.573384,8.830981 4.443772,19.417362 4.443772,29.761551 0,10.344189 -0.95301,21.39888 -4.68131,30.334991 -7.435942,2.064385 -15.429581,3.274388 -23.774362,3.274388 -0.506058,0 -1.012115,-0.0096 -1.518172,-0.01911 h -0.17557 C 25.56792,73.508883 17.192156,72.088619 9.6426089,69.813973 6.0795528,61.002107 5.2088244,50.415411 5.2088244,40.061979 c 0,-10.353432 0.95335,-21.389323 4.6609939,-30.325434 C 16.820359,7.8155201 24.462856,6.7450981 32.177647,6.6208528 c 0.49573,-0.00956 1.001787,-0.00956 1.497516,-0.00956 m 0,-0.9557337 c -0.506057,0 -1.012114,0 -1.518171,0.00956 C 24.40089,5.7893644 16.593149,6.8789009 9.570315,8.8190405 L 9.0849131,8.9528432 8.8990146,9.3924808 C 5.1500599,18.424166 4.1999116,29.394246 4.1999116,40.061979 c 0,10.667733 0.8675267,21.188618 4.461566,30.0865 l 0.1755708,0.430081 0.4750741,0.14336 c 7.6115135,2.293761 16.1421925,3.584001 24.6728715,3.727361 h 0.196227 c 0.495729,0.0096 1.001786,0.01911 1.518171,0.01911 8.427403,0 16.524318,-1.060864 24.073866,-3.153921 l 0.485403,-0.133802 0.185898,-0.439639 c 3.759282,-9.01257 4.719759,-19.983589 4.719759,-30.679055 0,-10.695466 -0.867528,-21.188618 -4.471894,-30.0960578 L 60.516853,9.5358409 60.041779,9.3924808 C 52.409609,7.108277 43.87893,5.8180364 35.379234,5.6746763 34.780227,5.6651187 34.232859,5.6555621 33.675163,5.6555615 Z"
       style="fill:#ff0000;stroke:#ffffff;stroke-width:1.84341729;stroke-miterlimit:4;stroke-dasharray:none" />
    <path
       id="path1154"
       d="m 33.614853,4.6077955 c 0.591098,0 1.182197,0.01013 1.784241,0.02026 8.932155,0.1519464 17.809578,1.4890758 25.822246,3.8898304 3.787408,9.3599041 4.709928,20.5803481 4.709928,31.5440931 0,10.963745 -1.01009,22.680548 -4.961693,32.151879 -7.881312,2.18803 -16.353723,3.302304 -25.198307,3.302304 -0.536368,0 -1.072735,-0.01013 -1.609102,-0.02026 H 33.97608 C 25.022033,75.343956 16.14461,74.006827 8.1428892,71.595943 4.3664269,62.256298 3.443547,51.035521 3.443547,40.061979 c 0,-10.973542 1.01045,-22.670418 4.9401601,-32.1417498 7.3668369,-2.036083 15.4670749,-3.170617 23.6439369,-3.3023039 0.525421,-0.01013 1.061788,-0.01013 1.587209,-0.01013 m 0,-1.0129766 c -0.536367,0 -1.072734,0 -1.609101,0.01013 C 23.785105,3.7366356 15.509726,4.891429 8.0662653,6.9477716 L 7.5517907,7.0895883 7.3547579,7.5555576 C 3.3812628,17.128188 2.3742062,28.755311 2.3742062,40.061979 c 0,11.306668 0.9194864,22.457692 4.7287876,31.888505 l 0.1860865,0.45584 0.5035283,0.151947 c 8.0673984,2.431144 17.1090154,3.798662 26.1506324,3.950608 h 0.207979 c 0.525421,0.01013 1.061788,0.02026 1.609101,0.02026 8.932155,0 17.514028,-1.124404 25.51575,-3.342823 l 0.514475,-0.141816 0.197032,-0.46597 c 3.984442,-9.55237 5.002445,-21.180489 5.002445,-32.516551 0,-11.336062 -0.919487,-22.457692 -4.739734,-31.8986353 L 62.064202,7.7075041 61.560674,7.5555576 C 53.471382,5.1345434 44.429765,3.7670249 35.420987,3.6150784 c -0.634884,-0.01013 -1.215036,-0.020259 -1.806134,-0.02026 z"
       style="fill:#000000;stroke:#000000;stroke-width:1.95382714;stroke-miterlimit:4;stroke-dasharray:none" />
    <g
       id="g1810">
      <path
         d="M 6.5134911,7.7433673 C 5.6489029,6.8479453 4.058602,6.5681013 3.6272194,7.3820013 3.284151,8.0292783 3.3625296,8.5309135 4.395235,8.9201755 3.2963719,9.5187755 1.4857674,9.4447465 1.1893447,7.4467713 0.95320848,5.8551433 2.674739,4.8863543 3.1399725,5.0916244 3.0034432,3.6818714 1.8221094,4.0692802 0.95849208,3.2813384 0.34259068,2.7194046 0.23126071,-0.02624603 0.0561761,0.04378767 -0.0138576,0.21887227 2.7317937,0.33020157 3.2937267,0.94610377 4.0816685,1.8097211 3.6942598,2.9910547 5.1040128,3.1275841 4.8987425,2.6623507 5.8675315,0.94082017 7.4591593,1.1769564 9.4571345,1.4733791 9.5311625,3.2839847 8.9325635,4.3828467 8.5433008,3.3501417 8.041666,3.2717627 7.3943894,3.6148312 6.5804899,4.0462137 6.8603354,5.6365129 7.7557553,6.5011023"
         style="fill:#000000;stroke:#000000;stroke-width:0.1112323px;stroke-linecap:butt;stroke-linejoin:miter;stroke-opacity:1"
         id="path1737-3" />
      <path
         d="m 62.850738,7.7433673 c 0.864588,-0.895422 2.454889,-1.175266 2.886271,-0.361366 0.343069,0.647277 0.26469,1.148912 -0.768015,1.538174 1.098863,0.5986 2.909467,0.524571 3.20589,-1.473404 0.236136,-1.591628 -1.485394,-2.560417 -1.950628,-2.3551469 0.13653,-1.409753 1.317863,-1.0223442 2.181481,-1.810286 0.615901,-0.5619338 0.727231,-3.30758442 0.902316,-3.23755072 0.07003,0.1750846 -2.675618,0.2864139 -3.237551,0.9023161 C 65.28256,1.8097211 65.669969,2.9910547 64.260216,3.1275841 64.465486,2.6623507 63.496697,0.94082018 61.905069,1.1769564 c -1.997975,0.2964227 -2.072003,2.1070283 -1.473404,3.2058903 0.389263,-1.032705 0.890898,-1.111084 1.538174,-0.7680155 0.8139,0.4313825 0.534054,2.0216817 -0.361366,2.8862711"
         style="fill:#000000;stroke:#000000;stroke-width:0.1112323px;stroke-linecap:butt;stroke-linejoin:miter;stroke-opacity:1"
         id="path1737-3-5" />
      <path
         d="m 62.850738,72.244244 c 0.864588,0.895422 2.454889,1.175266 2.886272,0.361366 0.343068,-0.647277 0.264689,-1.148912 -0.768016,-1.538174 1.098863,-0.5986 2.909468,-0.524571 3.20589,1.473404 0.236137,1.591628 -1.485394,2.560417 -1.950628,2.355147 0.13653,1.409753 1.317864,1.022344 2.181481,1.810286 0.615901,0.561934 0.727231,3.307584 0.902316,3.237551 0.07003,-0.175085 -2.675618,-0.286414 -3.237551,-0.902317 -0.787942,-0.863617 -0.400533,-2.04495 -1.810286,-2.18148 0.20527,0.465234 -0.763519,2.186764 -2.355146,1.950628 -1.997976,-0.296423 -2.072004,-2.107028 -1.473405,-3.20589 0.389263,1.032705 0.890898,1.111084 1.538175,0.768015 0.813899,-0.431382 0.534054,-2.021682 -0.361366,-2.886271"
         style="fill:#000000;stroke:#000000;stroke-width:0.1112323px;stroke-linecap:butt;stroke-linejoin:miter;stroke-opacity:1"
         id="path1737-3-7" />
      <path
         d="M 6.513491,72.244245 C 5.648903,73.139667 4.058602,73.419511 3.62722,72.605611 3.284151,71.958334 3.36253,71.456699 4.395235,71.067437 c -1.098863,-0.5986 -2.909467,-0.524571 -3.20589,1.473404 -0.23613599,1.591628 1.485394,2.560417 1.950628,2.355147 -0.13653,1.409753 -1.317863,1.022344 -2.18148099,1.810286 -0.615901,0.561933 -0.727231,3.307584 -0.902316,3.23755 C -0.01385399,79.76874 2.731794,79.65741 3.293727,79.041508 4.081669,78.177891 3.69426,76.996557 5.104013,76.860028 4.898743,77.325261 5.867532,79.046792 7.45916,78.810656 9.457135,78.514233 9.531163,76.703627 8.932564,75.604765 8.543301,76.63747 8.041666,76.715849 7.39439,76.372781 6.58049,75.941398 6.860336,74.351099 7.755756,73.48651"
         style="fill:#000000;stroke:#000000;stroke-width:0.1112323px;stroke-linecap:butt;stroke-linejoin:miter;stroke-opacity:1"
         id="path1737-3-5-5" />
    </g>
    <path
       id="path1154-9"
       d="m 33.712865,7.4258691 c 0.536813,0 1.07363,0.00933 1.620386,0.01865 8.111875,0.1398689 16.174044,1.3707167 23.450873,3.5806479 3.439594,8.615932 4.277395,18.944521 4.277395,29.036812 0,10.092292 -0.917329,20.877786 -4.506039,29.596289 -7.157536,2.014114 -14.851888,3.03982 -22.884234,3.03982 -0.487111,0 -0.974221,-0.0094 -1.461331,-0.01865 H 34.040918 C 25.909161,72.53957 17.846991,71.308722 10.580105,69.089467 7.1504515,60.492184 6.3123238,50.163289 6.3123238,40.061979 c 0,-10.101311 0.9176558,-20.868461 4.4864832,-29.586965 6.690308,-1.8742449 14.046665,-2.9186005 21.472608,-3.0398203 0.47717,-0.00933 0.964281,-0.00933 1.44145,-0.00933 m 0,-0.9324602 c -0.487111,0 -0.974221,0 -1.46133,0.00933 C 24.785826,6.6239532 17.270413,7.686958 10.510517,9.5798526 L 10.043289,9.710397 9.8643508,10.139328 c -3.6085914,8.811751 -4.5231655,19.514693 -4.5231655,29.922651 0,10.407958 0.8350459,20.672644 4.294522,29.353849 l 0.1689973,0.419608 0.4572874,0.13987 c 7.326533,2.237904 15.537818,3.496724 23.749103,3.636593 h 0.188879 c 0.47717,0.0094 0.96428,0.01865 1.461331,0.01865 8.111875,0 15.905636,-1.035031 23.172525,-3.077119 l 0.467228,-0.130544 0.178938,-0.428932 c 3.618533,-8.793101 4.543048,-19.496959 4.543048,-29.931975 0,-10.435016 -0.835047,-20.672644 -4.304463,-29.363174 l -0.168997,-0.419609 -0.457288,-0.13987 C 51.74588,7.9107484 43.534594,6.6519271 35.353133,6.512058 34.776554,6.502738 34.249678,6.493409 33.712865,6.493409 Z"
       style="fill:#000000;stroke:none;stroke-width:1.78642213;stroke-miterlimit:4;stroke-dasharray:none" />
    <path
       id="path1154-9-3"
       d="m 33.712865,7.4258686 c 0.536813,0 1.07363,0.00933 1.620386,0.01865 8.111875,0.1398689 16.174044,1.3707167 23.450873,3.5806484 3.439594,8.615932 4.277395,18.944521 4.277395,29.036812 0,10.092292 -0.917329,20.877786 -4.506039,29.596288 -7.157536,2.014114 -14.851888,3.03982 -22.884234,3.03982 -0.487111,0 -0.974221,-0.0094 -1.461331,-0.01865 H 34.040918 C 25.909161,72.539569 17.846991,71.308722 10.580105,69.089466 7.1504515,60.492184 6.3123238,50.163288 6.3123238,40.061979 c 0,-10.101312 0.9176558,-20.868461 4.4864832,-29.586965 6.690308,-1.8742454 14.046665,-2.918601 21.472608,-3.0398208 0.47717,-0.00933 0.964281,-0.00933 1.44145,-0.00933 m 0,-0.9324602 c -0.487111,0 -0.974221,0 -1.46133,0.00933 C 24.785826,6.6239527 17.270413,7.6869575 10.510517,9.5798521 L 10.043289,9.7103965 9.8643508,10.139328 C 6.2557594,18.951079 5.3411853,29.65402 5.3411853,40.061979 c 0,10.407958 0.8350459,20.672643 4.294522,29.353849 l 0.1689973,0.419608 0.4572874,0.13987 c 7.326533,2.237904 15.537818,3.496724 23.749103,3.636593 h 0.188879 c 0.47717,0.0094 0.96428,0.01865 1.461331,0.01865 8.111875,0 15.905636,-1.035032 23.172525,-3.077119 l 0.467228,-0.130544 0.178938,-0.428932 c 3.618533,-8.793101 4.543048,-19.49696 4.543048,-29.931975 0,-10.435016 -0.835047,-20.672644 -4.304463,-29.363175 l -0.168997,-0.419609 -0.457288,-0.13987 C 51.74588,7.9107479 43.534594,6.6519266 35.353133,6.5120575 34.776554,6.5027375 34.249678,6.4934085 33.712865,6.4934085 Z"
       style="fill:#000000;stroke:none;stroke-width:1.78642213;stroke-miterlimit:4;stroke-dasharray:none" />
  </g>
</svg>
