<svg id="Capa_2" xmlns="http://www.w3.org/2000/svg" xmlns:xlink="http://www.w3.org/1999/xlink" viewBox="0 0 69.02 80">
<defs >
<style >
.cls-1{fill:#c89aed;}.cls-2{fill:#fff;}.cls-3{fill:#f8ffbf;}.cls-4{fill:#7b7be8;}.cls-5,.cls-6,.cls-7{stroke:#000;}.cls-5,.cls-6,.cls-7,.cls-8,.cls-9,.cls-10{fill:none;}.cls-5,.cls-8{stroke-linejoin:round;}.cls-11{fill:#a88347;}.cls-12{fill:#782ab5;}.cls-6,.cls-7{stroke-miterlimit:10;}.cls-7,.cls-8{stroke-linecap:round;}.cls-13{fill:#1c46ff;}.cls-8{stroke:#deb778;stroke-dasharray:0 0 0 4.06;}.cls-14{fill:url(#USGS_19_Inundación_de_tierra);}.cls-15{fill:#deb778;}.cls-10{stroke:#1d1d1b;stroke-dasharray:0 0 2 2;stroke-width:.3px;}.cls-16{fill:#fcf0c5;}
</style>
<pattern id="USGS_19_Inundación_de_tierra" x="0" y="0" width="72" height="72" patternTransform="translate(-236.48 -16063) rotate(-90)" patternUnits="userSpaceOnUse" viewBox="0 0 72 72">
<g >
<rect class="cls-9" width="72" height="72">
</rect>
<g >
<line class="cls-10" x1="71" y1="71" x2="144.44" y2="71">
</line>
<line class="cls-10" x1="71" y1="67" x2="144.44" y2="67">
</line>
<line class="cls-10" x1="71" y1="63" x2="144.44" y2="63">
</line>
<line class="cls-10" x1="71" y1="59" x2="144.44" y2="59">
</line>
<line class="cls-10" x1="71" y1="55" x2="144.44" y2="55">
</line>
<line class="cls-10" x1="71" y1="51" x2="144.44" y2="51">
</line>
<line class="cls-10" x1="71" y1="47" x2="144.44" y2="47">
</line>
<line class="cls-10" x1="71" y1="43" x2="144.44" y2="43">
</line>
<line class="cls-10" x1="71" y1="39" x2="144.44" y2="39">
</line>
<line class="cls-10" x1="71" y1="35" x2="144.44" y2="35">
</line>
<line class="cls-10" x1="71" y1="31" x2="144.44" y2="31">
</line>
<line class="cls-10" x1="71" y1="27" x2="144.44" y2="27">
</line>
<line class="cls-10" x1="71" y1="23" x2="144.44" y2="23">
</line>
<line class="cls-10" x1="71" y1="19" x2="144.44" y2="19">
</line>
<line class="cls-10" x1="71" y1="15" x2="144.44" y2="15">
</line>
<line class="cls-10" x1="71" y1="11" x2="144.44" y2="11">
</line>
<line class="cls-10" x1="71" y1="7" x2="144.44" y2="7">
</line>
<line class="cls-10" x1="71" y1="3" x2="144.44" y2="3">
</line>
</g>
<g >
<line class="cls-10" x1="-1" y1="71" x2="72.44" y2="71">
</line>
<line class="cls-10" x1="-1" y1="67" x2="72.44" y2="67">
</line>
<line class="cls-10" x1="-1" y1="63" x2="72.44" y2="63">
</line>
<line class="cls-10" x1="-1" y1="59" x2="72.44" y2="59">
</line>
<line class="cls-10" x1="-1" y1="55" x2="72.44" y2="55">
</line>
<line class="cls-10" x1="-1" y1="51" x2="72.44" y2="51">
</line>
<line class="cls-10" x1="-1" y1="47" x2="72.44" y2="47">
</line>
<line class="cls-10" x1="-1" y1="43" x2="72.44" y2="43">
</line>
<line class="cls-10" x1="-1" y1="39" x2="72.44" y2="39">
</line>
<line class="cls-10" x1="-1" y1="35" x2="72.44" y2="35">
</line>
<line class="cls-10" x1="-1" y1="31" x2="72.44" y2="31">
</line>
<line class="cls-10" x1="-1" y1="27" x2="72.44" y2="27">
</line>
<line class="cls-10" x1="-1" y1="23" x2="72.44" y2="23">
</line>
<line class="cls-10" x1="-1" y1="19" x2="72.44" y2="19">
</line>
<line class="cls-10" x1="-1" y1="15" x2="72.44" y2="15">
</line>
<line class="cls-10" x1="-1" y1="11" x2="72.44" y2="11">
</line>
<line class="cls-10" x1="-1" y1="7" x2="72.44" y2="7">
</line>
<line class="cls-10" x1="-1" y1="3" x2="72.44" y2="3">
</line>
<line class="cls-10" x1="1.04" y1="69" x2="74.48" y2="69">
</line>
<line class="cls-10" x1="1.04" y1="65" x2="74.48" y2="65">
</line>
<line class="cls-10" x1="1.04" y1="61" x2="74.48" y2="61">
</line>
<line class="cls-10" x1="1.04" y1="57" x2="74.48" y2="57">
</line>
<line class="cls-10" x1="1.04" y1="53" x2="74.48" y2="53">
</line>
<line class="cls-10" x1="1.04" y1="49" x2="74.48" y2="49">
</line>
<line class="cls-10" x1="1.04" y1="45" x2="74.48" y2="45">
</line>
<line class="cls-10" x1="1.04" y1="41" x2="74.48" y2="41">
</line>
<line class="cls-10" x1="1.04" y1="37" x2="74.48" y2="37">
</line>
<line class="cls-10" x1="1.04" y1="33" x2="74.48" y2="33">
</line>
<line class="cls-10" x1="1.04" y1="29" x2="74.48" y2="29">
</line>
<line class="cls-10" x1="1.04" y1="25" x2="74.48" y2="25">
</line>
<line class="cls-10" x1="1.04" y1="21" x2="74.48" y2="21">
</line>
<line class="cls-10" x1="1.04" y1="17" x2="74.48" y2="17">
</line>
<line class="cls-10" x1="1.04" y1="13" x2="74.48" y2="13">
</line>
<line class="cls-10" x1="1.04" y1="9" x2="74.48" y2="9">
</line>
<line class="cls-10" x1="1.04" y1="5" x2="74.48" y2="5">
</line>
<line class="cls-10" x1="1.04" y1="1" x2="74.48" y2="1">
</line>
</g>
<g >
<line class="cls-10" x1="-73" y1="71" x2=".44" y2="71">
</line>
<line class="cls-10" x1="-73" y1="67" x2=".44" y2="67">
</line>
<line class="cls-10" x1="-73" y1="63" x2=".44" y2="63">
</line>
<line class="cls-10" x1="-73" y1="59" x2=".44" y2="59">
</line>
<line class="cls-10" x1="-73" y1="55" x2=".44" y2="55">
</line>
<line class="cls-10" x1="-73" y1="51" x2=".44" y2="51">
</line>
<line class="cls-10" x1="-73" y1="47" x2=".44" y2="47">
</line>
<line class="cls-10" x1="-73" y1="43" x2=".44" y2="43">
</line>
<line class="cls-10" x1="-73" y1="39" x2=".44" y2="39">
</line>
<line class="cls-10" x1="-73" y1="35" x2=".44" y2="35">
</line>
<line class="cls-10" x1="-73" y1="31" x2=".44" y2="31">
</line>
<line class="cls-10" x1="-73" y1="27" x2=".44" y2="27">
</line>
<line class="cls-10" x1="-73" y1="23" x2=".44" y2="23">
</line>
<line class="cls-10" x1="-73" y1="19" x2=".44" y2="19">
</line>
<line class="cls-10" x1="-73" y1="15" x2=".44" y2="15">
</line>
<line class="cls-10" x1="-73" y1="11" x2=".44" y2="11">
</line>
<line class="cls-10" x1="-73" y1="7" x2=".44" y2="7">
</line>
<line class="cls-10" x1="-73" y1="3" x2=".44" y2="3">
</line>
<line class="cls-10" x1="-70.96" y1="69" x2="2.48" y2="69">
</line>
<line class="cls-10" x1="-70.96" y1="65" x2="2.48" y2="65">
</line>
<line class="cls-10" x1="-70.96" y1="61" x2="2.48" y2="61">
</line>
<line class="cls-10" x1="-70.96" y1="57" x2="2.48" y2="57">
</line>
<line class="cls-10" x1="-70.96" y1="53" x2="2.48" y2="53">
</line>
<line class="cls-10" x1="-70.96" y1="49" x2="2.48" y2="49">
</line>
<line class="cls-10" x1="-70.96" y1="45" x2="2.48" y2="45">
</line>
<line class="cls-10" x1="-70.96" y1="41" x2="2.48" y2="41">
</line>
<line class="cls-10" x1="-70.96" y1="37" x2="2.48" y2="37">
</line>
<line class="cls-10" x1="-70.96" y1="33" x2="2.48" y2="33">
</line>
<line class="cls-10" x1="-70.96" y1="29" x2="2.48" y2="29">
</line>
<line class="cls-10" x1="-70.96" y1="25" x2="2.48" y2="25">
</line>
<line class="cls-10" x1="-70.96" y1="21" x2="2.48" y2="21">
</line>
<line class="cls-10" x1="-70.96" y1="17" x2="2.48" y2="17">
</line>
<line class="cls-10" x1="-70.96" y1="13" x2="2.48" y2="13">
</line>
<line class="cls-10" x1="-70.96" y1="9" x2="2.48" y2="9">
</line>
<line class="cls-10" x1="-70.96" y1="5" x2="2.48" y2="5">
</line>
<line class="cls-10" x1="-70.96" y1="1" x2="2.48" y2="1">
</line>
</g>
</g>
</pattern>
</defs>

<g id="Characters">
<g >
<path d="M25.32,52.34s-3.05,2.51-3.95,6.82c-4.4-7.72-9.06-14.09-6.28-22.97-2.42,1.79-3.32,4.49-3.32,4.49,0,0-3.41-6.73,1.26-13.55s7.9-8.71,7.9-8.71l-7.81,.63s4.76-6.73,12.03-8.44,13.55,1.35,16.87,5.38c-1.08-5.21-3.5-7.45-3.5-7.45,0,0,10.05,1.53,10.32,8.35,7,1.79,8.35,7.54,9.51,8.71-2.96-.45-4.58-1.97-4.58-1.97,0,0,1.26,4.13,4.58,9.6,2.24,7.99-1.35,14.18-1.35,14.18l-.72-3.77s-4.31,11.76-14.9,15.17c-.27-2.33-.27-3.41-.27-3.41,0,0,4.94-8.44,4.49-12.74s.27-13.82,.27-13.82c0,0-2.96-4.58-3.05-5.38-3.32,6.91-6.1,7.72-10.14,8.17,4.58-2.96,5.38-6.19,5.29-7.9-5.47,5.65-7.9,7.99-14.63,9.51-1.88,8.35,.09,15.08,1.97,19.12Z">
</path>
<path class="cls-13" d="M54.34,26.52s-2.63-4.64-7.26-7.74c.54,5.36-5.99,5.16-13.35,.83-7.35-4.33-14.98-.72-17.25,2.17,6.45-1.96,8.81-5.78,18.88,1.55,10.08,7.32,18.97,3.2,18.97,3.2Z">
</path>
<path class="cls-1" d="M42.82,23.44s-.49,6.59-11.05,8.37c6.13-1.93,6.2-8.1,6.2-8.1,0,0-5.15,7.29-14.34,9.47-2.02,8.14-.56,13.54,.24,15.56s3.63,7.09,3.63,7.09c0,0-.24,5.32-1.61,7.33,3.47,4.43,6.61,3.95,6.61,3.95l1.85,4.43,1.37-4.43s5.56-1.05,6.69-4.11c-1.77-4.35-1.3-7.61-1.3-7.61,0,0,4.68-8.59,4.68-13.11v-13.86l-2.98-4.98Z">
</path>
<path class="cls-2" d="M34.11,57v-14.36c0-5.56,2.34-10.8,6.28-14.72,1.02-1.02,1.99-2.29,2.73-3.88,1.73,3.45,2.4,4.03,2.4,4.03v16.87s-3.16,9.47-7.76,14.27c-.02,.01-.04,.02-.06,.03-1.63,.85-3.58-.39-3.58-2.23Z">
</path>
<path class="cls-4" d="M31.32,41.24l1.08-3.02-4.89-2.2s-2.69,.04-3.55,.32c-.71,2.52-.43,4.04-.43,4.04,0,0,2.84-1.56,4.75-1.1s2.95,.83,3.03,1.96Z">
</path>
<path class="cls-3" d="M31.57,41.15s-.24-1.77-3.48-1.95-4.03,1.16-4.03,1.16c0,0,3.48,1.77,7.51,.79Z">
</path>
<path class="cls-3" d="M44.44,40.25s-1.59-1.19-4.12-1.04-3.57,1.29-3.52,2.03c2.83,.5,6.2,.35,7.64-.99Z">
</path>
<path d="M32.5,67.11s-4.38-.51-6.61-3.95c-6.7,4.7-13.27,8.38-13.27,8.38,0,0,11.43,4.07,22.86,3.68s21.42-2.63,21.42-2.63l-14.49-9.59s-2.51,2.7-6.69,4.11c-1.29,3.25-1.81,4.83-1.81,4.83l-1.41-4.83Z">
</path>
<path class="cls-11" d="M42.35,64.6s-1.83,1.55-5.11,3.2c1.37,4.47,2.19,7.4,2.19,7.4l15.52-2.74-12.6-7.85Z">
</path>
<path class="cls-11" d="M25.13,64.43c-.85,1.94-2.59,2.64-4.22,3.66-1.61,.93-3.29,1.76-5.06,2.36,0,0-.05-.08-.05-.08l4.62-3.04c1.53-1.02,3.09-2.01,4.66-2.98,0,0,.05,.08,.05,.08h0Z">
</path>
<path class="cls-13" d="M16.65,37.07c-.56,3.19-.89,6.63,.42,9.65,1.1,2.09,2.45,4.64,3.4,6.86,.31,.81,.66,1.6,.93,2.44,0,0-.09,.05-.09,.05-1.51-2.66-3.73-6.27-5.15-8.93-1.3-3.11-.98-7.27,.49-10.06h0Z">
</path>
<path class="cls-13" d="M12.42,37.32c-1.64-4.97,.98-10.83,5.29-13.58,0,0,.07,.07,.07,.07-3.46,3.59-5.43,8.71-5.36,13.51h0Z">
</path>
<path class="cls-4" d="M36.8,41.24l-1.08-3.02,4.89-2.2s2.69,.04,3.55,.32c.71,2.52,.43,4.04,.43,4.04,0,0-2.84-1.56-4.75-1.1s-2.95,.83-3.03,1.96Z">
</path>
<path d="M38.27,59.64l-6.26,7.4s-3.84,.07-5.83-4.48c.78-1.57,1.07-7.04,1.07-7.04l3.49,4.2s3.7,1.21,7.54-.07Z">
</path>
<path class="cls-1" d="M42.88,26.84c.34,.62,.7,1.21,1.1,1.77,0,.05,0,.1,0,.15,.2,2.62,.68,13.27-.58,17.58-1.02,3.49-3.48,8.69-6.26,12.02-.84,.3-1.74,.46-2.65,.46-1.21,0-2.28-.26-3.21-.52-3.13-3.54-5.58-8.65-6.54-11.95-1.19-4.07-.44-10.22-.16-12.09,.61-.22,1.22-.39,1.82-.5h.04s.04-.02,.04-.02c.2-.05,.39-.11,.59-.17l2.37-.17,2.51-.18c4.36-.23,8.53-2.72,10.93-6.38m.07-2.19c-1.94,4.28-6.35,7.32-11.05,7.57l-2.53,.18,2.29-1.13c2.31-1.21,4.4-3.3,5.48-5.76-.86,1.01-1.84,1.9-2.84,2.75-2.4,1.93-5.06,3.7-8.07,4.51-.88,.16-1.73,.42-2.55,.76v.04c-.01,.08-1.38,7.95,.11,13.05,1.02,3.49,3.63,8.89,6.95,12.55,.95,.28,2.26,.64,3.76,.64,1.01,0,2.1-.16,3.25-.61,2.94-3.42,5.55-8.9,6.62-12.58,1.5-5.13,.63-17.82,.62-17.94-.01-.11,.03-.2,.08-.29-.87-1.15-1.58-2.42-2.12-3.74h0Z">
</path>
<path class="cls-2" d="M35.02,64.8l4.67-5.03,.95,2.7s-1.17,2.26-5.61,2.33Z">
</path>
<path class="cls-7" d="M25.37,52.37c-.44,0-3.27,2.51-3.92,6.97-.33-1.74-3.38-5.99-4.58-8.39s-3.7-5.12-1.42-14.93c-3.7,1.09-3.49,5.78-3.49,5.78,0,0-2.4-5.34-.65-11.33,1.74-5.88,9.48-12.2,9.48-12.2,0,0-3.49-.11-8.06,1.09,15.36-18.63,29.31-3.49,29.31-3.49,0,0-1.2-5.34-4.47-7.63,7.85,2.18,11.22,4.14,11.11,8.83,7.08,1.09,8.06,6.97,9.48,8.39-3.27-.65-4.9-2.4-4.9-2.4,0,0,2.51,7.19,5.01,10.03,2.51,5.88-1.53,14.93-1.53,14.93,0,0-.11-3.16-.76-5.12-1.5,5.04-3.74,11.03-14.73,16">
</path>
<path d="M19.04,37.48c.63-1.95,2.16-3.59,4-4.6,1.83-1.01,3.84-1.15,5.65-2.15,3.45-1.76,6.9-4.24,9.14-7.4,0,0,.84-1.25,.84-1.25-.06,4.32-2.86,8.08-6.58,10.08,0,0-.24-.95-.24-.95,1.16-.08,2.31-.29,3.41-.68,3.63-1.36,6.62-4.54,7.68-8.26,1.34,4,3.8,7.95,7.91,9.46,0,0,.02,0,.02,0l-.45,.71c-1.67-1.92-3.24-4.24-3.36-6.85,.52,3.27,3.24,5.61,5.58,7.71,0,0-2.06-.76-2.06-.76-4.01-1.33-6.69-5.05-8.02-8.9,0,0,.8-.03,.8-.03-1.67,4.81-6.4,8.33-11.47,8.59,0,0-2.53,.19-2.53,.19l2.29-1.14c2.93-1.53,5.54-4.48,6.13-7.8,0,0,.71,.22,.68,.23-1.09,1.85-2.62,3.23-4.18,4.56-2.39,1.93-5.05,3.7-8.07,4.5-2.91,.54-5.65,2.03-7.18,4.71h0Z">
</path>
<path class="cls-7" d="M23.19,33.48s-1.42,8,.12,13.28c1.16,3.96,3.97,9.39,7.16,12.85,1.81,.53,4.52,1.26,7.58,0,3.04-3.49,5.69-9.04,6.8-12.85,1.54-5.28,.64-18.12,.64-18.12">
</path>
<path d="M24.26,36.31c1.04-.51,2.15-.93,3.35-.89,1.92,.3,3.61,1.21,5.28,2.13,0,0-.45,.89-.45,.89-1.36-.55-2.69-1.2-4.01-1.75-1.12-.61-2.95-.36-4.17-.39h0Z">
</path>
<path d="M44.02,36.31c-1.23,.03-3.05-.22-4.17,.39-1.32,.56-2.65,1.21-4.01,1.75l-.45-.89c1.68-.92,3.36-1.83,5.28-2.13,1.2-.04,2.3,.37,3.35,.89h0Z">
</path>
<path d="M31.03,40.3c-2.32-1.08-4.76-.77-6.99,.26,0,0,.08-.54,.08-.54,1.86,1.57,4.8,1.35,7.1,1.04,.23-.06,.38,.26,.18,.39-1.48,1.04-3.62,2.33-5.37,1.16,1.78,1,3.73-.39,5.09-1.51,0,0,.18,.39,.18,.39-1.93,.37-3.92,.38-5.84-.07-.64-.17-1.29-.42-1.85-.93-.13-.12-.14-.33-.02-.46,.57-.41,1.21-.73,1.88-.94,1.86-.63,4.2-.3,5.55,1.21h0Z">
</path>
<path d="M37.21,40.3c1.87-2.06,5.23-1.84,7.37-.32,.15,.1,.2,.3,.1,.45-1.06,1.02-2.5,1.15-3.86,1.3-1.3,.09-2.61,.03-3.89-.23,0,0,.18-.39,.18-.39,1.36,1.12,3.31,2.52,5.09,1.51-1.75,1.16-3.89-.12-5.37-1.16-.2-.13-.04-.45,.18-.39,2.29,.31,5.24,.53,7.1-1.04,0,0,.08,.54,.08,.54-2.23-1.03-4.67-1.35-6.99-.26h0Z">
</path>
<path d="M35.03,39.69c.26,2.97,.8,6,2.11,8.67,.08,.15,.06,.33-.03,.46-.65,1.05-1.67,1.81-2.77,2.27-.12,.05-.26,.05-.38,0-1.11-.46-2.14-1.23-2.79-2.28-.09-.14-.09-.31-.02-.45,.65-1.31,1.11-2.73,1.43-4.19,.33-1.46,.56-2.96,.68-4.48,.31,3.06,0,6.22-1.27,9.07,0,0-.03-.46-.03-.46,.57,.84,1.42,1.47,2.38,1.85,0,0-.38,0-.38,0,.96-.37,1.8-1.02,2.37-1.85l-.03,.46c-1.27-2.85-1.59-6.01-1.27-9.07h0Z">
</path>
<path d="M39.52,53.97c-1.37,.17-2.77-.25-3.98-.87,0,0,.47-.01,.47-.01-.5,.41-1.03,.78-1.54,1.16-.19,.14-.44,.13-.62,0-.52-.38-1.05-.75-1.55-1.16h.47c-1.22,.63-2.62,1.05-3.99,.88,1.3-.38,2.45-.96,3.53-1.65,.14-.09,.31-.08,.45,0,.58,.36,1.14,.76,1.71,1.15,0,0-.63,0-.63,0,.57-.39,1.13-.79,1.71-1.16,.14-.09,.32-.08,.45,0,1.08,.69,2.24,1.27,3.54,1.65h0Z">
</path>
<path d="M31.76,54.55c1.75,.86,3.04,.9,4.72,.08-.74,2.19-4.01,2.06-4.72-.08h0Z">
</path>
<path d="M24.15,43.18c.54,2.13,1.39,4.11,2.51,5.95,.2,.83,.23,1.7,.21,2.55-.15-.7-.46-1.92-.55-2.32-1.29-1.78-2.16-3.96-2.17-6.18h0Z">
</path>
<path d="M44.01,43.18c0,2.22-.88,4.4-2.17,6.18-.09,.4-.41,1.62-.55,2.32-.02-.85,.02-1.72,.21-2.55,1.12-1.84,1.97-3.82,2.51-5.95h0Z">
</path>
<path class="cls-5" d="M26.95,54.99s.71,4.77-1.14,8.11c-4.84,3.34-14.23,8.75-14.23,8.75">
</path>
<path class="cls-5" d="M41.25,54.99s-.71,4.77,1.14,8.11c4.84,3.34,14.23,8.75,14.23,8.75">
</path>
<path class="cls-7" d="M26.24,62.88s1.72,4.27,6.37,4.27l1.53,4.5,1.55-4.5s4.5-.75,6.45-4.05">
</path>
<path d="M28.2,33.65c3.82-1.14,8.02-1.2,11.85-.09-4-.08-7.85-.03-11.85,.09h0Z">
</path>
<path class="cls-2" d="M25.68,44.1s2.24,1.8,5.4,.16c-1.96,4.25-3.17,3.21-5.4-.16Z">
</path>
</g>
</g>
 <g
     id="g2850">
    <g
       id="g2837">
      <path
         id="path1951"
         d="M 0.056640625 0.04296875 L 0.056640625 79.943359 L 69.308594 79.943359 L 69.308594 0.04296875 L 0.056640625 0.04296875 z M 33.615234 3.5957031 C 34.206332 3.5957038 34.786991 3.6051034 35.421875 3.6152344 C 44.430653 3.7671809 53.471255 5.1336733 61.560547 7.5546875 L 62.064453 7.7070312 L 62.25 8.1640625 C 66.070247 17.605006 66.990234 28.726438 66.990234 40.0625 C 66.990234 51.398562 65.972723 63.025755 61.988281 72.578125 L 61.791016 73.044922 L 61.275391 73.185547 C 53.273669 75.403966 44.691921 76.529297 35.759766 76.529297 C 35.212453 76.529297 34.675812 76.519896 34.150391 76.509766 L 33.943359 76.509766 C 24.901742 76.357819 15.860367 74.989738 7.7929688 72.558594 L 7.2890625 72.40625 L 7.1035156 71.951172 C 3.2942144 62.520359 2.375 51.369168 2.375 40.0625 C 2.375 28.755832 3.3819737 17.127318 7.3554688 7.5546875 L 7.5527344 7.0898438 L 8.0664062 6.9472656 C 15.509867 4.890923 23.785212 3.7371557 32.005859 3.6054688 C 32.542226 3.5953387 33.078867 3.5957031 33.615234 3.5957031 z "
         style="opacity:1;vector-effect:none;fill:#ffffff;fill-opacity:1;fill-rule:nonzero;stroke:none;stroke-width:1.95200002;stroke-linecap:butt;stroke-linejoin:miter;stroke-miterlimit:4;stroke-dasharray:none;stroke-dashoffset:0;stroke-opacity:1" />
    </g>
    <path
       id="path1154-8-2"
       d="m 33.675163,6.6112954 c 0.557696,0 1.115392,0.00956 1.683415,0.019115 8.427403,0.14336 16.803167,1.4049288 24.363042,3.6700176 3.573384,8.830981 4.443772,19.417362 4.443772,29.761551 0,10.344189 -0.95301,21.39888 -4.68131,30.334991 -7.435942,2.064385 -15.429581,3.274388 -23.774362,3.274388 -0.506058,0 -1.012115,-0.0096 -1.518172,-0.01911 h -0.17557 C 25.56792,73.508883 17.192156,72.088619 9.6426089,69.813973 6.0795528,61.002107 5.2088244,50.415411 5.2088244,40.061979 c 0,-10.353432 0.95335,-21.389323 4.6609939,-30.325434 C 16.820359,7.8155201 24.462856,6.7450981 32.177647,6.6208528 c 0.49573,-0.00956 1.001787,-0.00956 1.497516,-0.00956 m 0,-0.9557337 c -0.506057,0 -1.012114,0 -1.518171,0.00956 C 24.40089,5.7893644 16.593149,6.8789009 9.570315,8.8190405 L 9.0849131,8.9528432 8.8990146,9.3924808 C 5.1500599,18.424166 4.1999116,29.394246 4.1999116,40.061979 c 0,10.667733 0.8675267,21.188618 4.461566,30.0865 l 0.1755708,0.430081 0.4750741,0.14336 c 7.6115135,2.293761 16.1421925,3.584001 24.6728715,3.727361 h 0.196227 c 0.495729,0.0096 1.001786,0.01911 1.518171,0.01911 8.427403,0 16.524318,-1.060864 24.073866,-3.153921 l 0.485403,-0.133802 0.185898,-0.439639 c 3.759282,-9.01257 4.719759,-19.983589 4.719759,-30.679055 0,-10.695466 -0.867528,-21.188618 -4.471894,-30.0960578 L 60.516853,9.5358409 60.041779,9.3924808 C 52.409609,7.108277 43.87893,5.8180364 35.379234,5.6746763 34.780227,5.6651187 34.232859,5.6555621 33.675163,5.6555615 Z"
       style="fill:#ff0000;stroke:#ffffff;stroke-width:1.84341729;stroke-miterlimit:4;stroke-dasharray:none" />
    <path
       id="path1154"
       d="m 33.614853,4.6077955 c 0.591098,0 1.182197,0.01013 1.784241,0.02026 8.932155,0.1519464 17.809578,1.4890758 25.822246,3.8898304 3.787408,9.3599041 4.709928,20.5803481 4.709928,31.5440931 0,10.963745 -1.01009,22.680548 -4.961693,32.151879 -7.881312,2.18803 -16.353723,3.302304 -25.198307,3.302304 -0.536368,0 -1.072735,-0.01013 -1.609102,-0.02026 H 33.97608 C 25.022033,75.343956 16.14461,74.006827 8.1428892,71.595943 4.3664269,62.256298 3.443547,51.035521 3.443547,40.061979 c 0,-10.973542 1.01045,-22.670418 4.9401601,-32.1417498 7.3668369,-2.036083 15.4670749,-3.170617 23.6439369,-3.3023039 0.525421,-0.01013 1.061788,-0.01013 1.587209,-0.01013 m 0,-1.0129766 c -0.536367,0 -1.072734,0 -1.609101,0.01013 C 23.785105,3.7366356 15.509726,4.891429 8.0662653,6.9477716 L 7.5517907,7.0895883 7.3547579,7.5555576 C 3.3812628,17.128188 2.3742062,28.755311 2.3742062,40.061979 c 0,11.306668 0.9194864,22.457692 4.7287876,31.888505 l 0.1860865,0.45584 0.5035283,0.151947 c 8.0673984,2.431144 17.1090154,3.798662 26.1506324,3.950608 h 0.207979 c 0.525421,0.01013 1.061788,0.02026 1.609101,0.02026 8.932155,0 17.514028,-1.124404 25.51575,-3.342823 l 0.514475,-0.141816 0.197032,-0.46597 c 3.984442,-9.55237 5.002445,-21.180489 5.002445,-32.516551 0,-11.336062 -0.919487,-22.457692 -4.739734,-31.8986353 L 62.064202,7.7075041 61.560674,7.5555576 C 53.471382,5.1345434 44.429765,3.7670249 35.420987,3.6150784 c -0.634884,-0.01013 -1.215036,-0.020259 -1.806134,-0.02026 z"
       style="fill:#000000;stroke:#000000;stroke-width:1.95382714;stroke-miterlimit:4;stroke-dasharray:none" />
    <g
       id="g1810">
      <path
         d="M 6.5134911,7.7433673 C 5.6489029,6.8479453 4.058602,6.5681013 3.6272194,7.3820013 3.284151,8.0292783 3.3625296,8.5309135 4.395235,8.9201755 3.2963719,9.5187755 1.4857674,9.4447465 1.1893447,7.4467713 0.95320848,5.8551433 2.674739,4.8863543 3.1399725,5.0916244 3.0034432,3.6818714 1.8221094,4.0692802 0.95849208,3.2813384 0.34259068,2.7194046 0.23126071,-0.02624603 0.0561761,0.04378767 -0.0138576,0.21887227 2.7317937,0.33020157 3.2937267,0.94610377 4.0816685,1.8097211 3.6942598,2.9910547 5.1040128,3.1275841 4.8987425,2.6623507 5.8675315,0.94082017 7.4591593,1.1769564 9.4571345,1.4733791 9.5311625,3.2839847 8.9325635,4.3828467 8.5433008,3.3501417 8.041666,3.2717627 7.3943894,3.6148312 6.5804899,4.0462137 6.8603354,5.6365129 7.7557553,6.5011023"
         style="fill:#000000;stroke:#000000;stroke-width:0.1112323px;stroke-linecap:butt;stroke-linejoin:miter;stroke-opacity:1"
         id="path1737-3" />
      <path
         d="m 62.850738,7.7433673 c 0.864588,-0.895422 2.454889,-1.175266 2.886271,-0.361366 0.343069,0.647277 0.26469,1.148912 -0.768015,1.538174 1.098863,0.5986 2.909467,0.524571 3.20589,-1.473404 0.236136,-1.591628 -1.485394,-2.560417 -1.950628,-2.3551469 0.13653,-1.409753 1.317863,-1.0223442 2.181481,-1.810286 0.615901,-0.5619338 0.727231,-3.30758442 0.902316,-3.23755072 0.07003,0.1750846 -2.675618,0.2864139 -3.237551,0.9023161 C 65.28256,1.8097211 65.669969,2.9910547 64.260216,3.1275841 64.465486,2.6623507 63.496697,0.94082018 61.905069,1.1769564 c -1.997975,0.2964227 -2.072003,2.1070283 -1.473404,3.2058903 0.389263,-1.032705 0.890898,-1.111084 1.538174,-0.7680155 0.8139,0.4313825 0.534054,2.0216817 -0.361366,2.8862711"
         style="fill:#000000;stroke:#000000;stroke-width:0.1112323px;stroke-linecap:butt;stroke-linejoin:miter;stroke-opacity:1"
         id="path1737-3-5" />
      <path
         d="m 62.850738,72.244244 c 0.864588,0.895422 2.454889,1.175266 2.886272,0.361366 0.343068,-0.647277 0.264689,-1.148912 -0.768016,-1.538174 1.098863,-0.5986 2.909468,-0.524571 3.20589,1.473404 0.236137,1.591628 -1.485394,2.560417 -1.950628,2.355147 0.13653,1.409753 1.317864,1.022344 2.181481,1.810286 0.615901,0.561934 0.727231,3.307584 0.902316,3.237551 0.07003,-0.175085 -2.675618,-0.286414 -3.237551,-0.902317 -0.787942,-0.863617 -0.400533,-2.04495 -1.810286,-2.18148 0.20527,0.465234 -0.763519,2.186764 -2.355146,1.950628 -1.997976,-0.296423 -2.072004,-2.107028 -1.473405,-3.20589 0.389263,1.032705 0.890898,1.111084 1.538175,0.768015 0.813899,-0.431382 0.534054,-2.021682 -0.361366,-2.886271"
         style="fill:#000000;stroke:#000000;stroke-width:0.1112323px;stroke-linecap:butt;stroke-linejoin:miter;stroke-opacity:1"
         id="path1737-3-7" />
      <path
         d="M 6.513491,72.244245 C 5.648903,73.139667 4.058602,73.419511 3.62722,72.605611 3.284151,71.958334 3.36253,71.456699 4.395235,71.067437 c -1.098863,-0.5986 -2.909467,-0.524571 -3.20589,1.473404 -0.23613599,1.591628 1.485394,2.560417 1.950628,2.355147 -0.13653,1.409753 -1.317863,1.022344 -2.18148099,1.810286 -0.615901,0.561933 -0.727231,3.307584 -0.902316,3.23755 C -0.01385399,79.76874 2.731794,79.65741 3.293727,79.041508 4.081669,78.177891 3.69426,76.996557 5.104013,76.860028 4.898743,77.325261 5.867532,79.046792 7.45916,78.810656 9.457135,78.514233 9.531163,76.703627 8.932564,75.604765 8.543301,76.63747 8.041666,76.715849 7.39439,76.372781 6.58049,75.941398 6.860336,74.351099 7.755756,73.48651"
         style="fill:#000000;stroke:#000000;stroke-width:0.1112323px;stroke-linecap:butt;stroke-linejoin:miter;stroke-opacity:1"
         id="path1737-3-5-5" />
    </g>
    <path
       id="path1154-9"
       d="m 33.712865,7.4258691 c 0.536813,0 1.07363,0.00933 1.620386,0.01865 8.111875,0.1398689 16.174044,1.3707167 23.450873,3.5806479 3.439594,8.615932 4.277395,18.944521 4.277395,29.036812 0,10.092292 -0.917329,20.877786 -4.506039,29.596289 -7.157536,2.014114 -14.851888,3.03982 -22.884234,3.03982 -0.487111,0 -0.974221,-0.0094 -1.461331,-0.01865 H 34.040918 C 25.909161,72.53957 17.846991,71.308722 10.580105,69.089467 7.1504515,60.492184 6.3123238,50.163289 6.3123238,40.061979 c 0,-10.101311 0.9176558,-20.868461 4.4864832,-29.586965 6.690308,-1.8742449 14.046665,-2.9186005 21.472608,-3.0398203 0.47717,-0.00933 0.964281,-0.00933 1.44145,-0.00933 m 0,-0.9324602 c -0.487111,0 -0.974221,0 -1.46133,0.00933 C 24.785826,6.6239532 17.270413,7.686958 10.510517,9.5798526 L 10.043289,9.710397 9.8643508,10.139328 c -3.6085914,8.811751 -4.5231655,19.514693 -4.5231655,29.922651 0,10.407958 0.8350459,20.672644 4.294522,29.353849 l 0.1689973,0.419608 0.4572874,0.13987 c 7.326533,2.237904 15.537818,3.496724 23.749103,3.636593 h 0.188879 c 0.47717,0.0094 0.96428,0.01865 1.461331,0.01865 8.111875,0 15.905636,-1.035031 23.172525,-3.077119 l 0.467228,-0.130544 0.178938,-0.428932 c 3.618533,-8.793101 4.543048,-19.496959 4.543048,-29.931975 0,-10.435016 -0.835047,-20.672644 -4.304463,-29.363174 l -0.168997,-0.419609 -0.457288,-0.13987 C 51.74588,7.9107484 43.534594,6.6519271 35.353133,6.512058 34.776554,6.502738 34.249678,6.493409 33.712865,6.493409 Z"
       style="fill:#000000;stroke:none;stroke-width:1.78642213;stroke-miterlimit:4;stroke-dasharray:none" />
    <path
       id="path1154-9-3"
       d="m 33.712865,7.4258686 c 0.536813,0 1.07363,0.00933 1.620386,0.01865 8.111875,0.1398689 16.174044,1.3707167 23.450873,3.5806484 3.439594,8.615932 4.277395,18.944521 4.277395,29.036812 0,10.092292 -0.917329,20.877786 -4.506039,29.596288 -7.157536,2.014114 -14.851888,3.03982 -22.884234,3.03982 -0.487111,0 -0.974221,-0.0094 -1.461331,-0.01865 H 34.040918 C 25.909161,72.539569 17.846991,71.308722 10.580105,69.089466 7.1504515,60.492184 6.3123238,50.163288 6.3123238,40.061979 c 0,-10.101312 0.9176558,-20.868461 4.4864832,-29.586965 6.690308,-1.8742454 14.046665,-2.918601 21.472608,-3.0398208 0.47717,-0.00933 0.964281,-0.00933 1.44145,-0.00933 m 0,-0.9324602 c -0.487111,0 -0.974221,0 -1.46133,0.00933 C 24.785826,6.6239527 17.270413,7.6869575 10.510517,9.5798521 L 10.043289,9.7103965 9.8643508,10.139328 C 6.2557594,18.951079 5.3411853,29.65402 5.3411853,40.061979 c 0,10.407958 0.8350459,20.672643 4.294522,29.353849 l 0.1689973,0.419608 0.4572874,0.13987 c 7.326533,2.237904 15.537818,3.496724 23.749103,3.636593 h 0.188879 c 0.47717,0.0094 0.96428,0.01865 1.461331,0.01865 8.111875,0 15.905636,-1.035032 23.172525,-3.077119 l 0.467228,-0.130544 0.178938,-0.428932 c 3.618533,-8.793101 4.543048,-19.49696 4.543048,-29.931975 0,-10.435016 -0.835047,-20.672644 -4.304463,-29.363175 l -0.168997,-0.419609 -0.457288,-0.13987 C 51.74588,7.9107479 43.534594,6.6519266 35.353133,6.5120575 34.776554,6.5027375 34.249678,6.4934085 33.712865,6.4934085 Z"
       style="fill:#000000;stroke:none;stroke-width:1.78642213;stroke-miterlimit:4;stroke-dasharray:none" />
  </g>
</svg>
