<?xml version="1.0" encoding="UTF-8"?><svg id="Capa_2" xmlns="http://www.w3.org/2000/svg" xmlns:xlink="http://www.w3.org/1999/xlink" viewBox="0 0 69.02 80"><defs><style>.cls-1{fill:#c89aed;}.cls-2{fill:#fff;}.cls-3{fill:#f8ffbf;}.cls-4{fill:#7b7be8;}.cls-5{fill:#a88347;}.cls-6{fill:#782ab5;}.cls-7{stroke:#000;stroke-miterlimit:10;}.cls-7,.cls-8,.cls-9,.cls-10{fill:none;}.cls-11{fill:#1c46ff;}.cls-8{stroke:#deb778;stroke-dasharray:0 0 0 4.06;stroke-linecap:round;stroke-linejoin:round;}.cls-12{fill:#deb778;}.cls-13{fill:url(#USGS_19_Inundación_de_tierra_2);}.cls-10{stroke:#1d1d1b;stroke-dasharray:0 0 2 2;stroke-width:.3px;}.cls-14{fill:#fcf0c5;}.cls-15{fill:#b83521;}</style><pattern id="USGS_19_Inundación_de_tierra_2" x="0" y="0" width="72" height="72" patternTransform="translate(-452.48 -16423) rotate(-90)" patternUnits="userSpaceOnUse" viewBox="0 0 72 72"><g><rect class="cls-9" width="72" height="72"/><g><line class="cls-10" x1="71" y1="71" x2="144.44" y2="71"/><line class="cls-10" x1="71" y1="67" x2="144.44" y2="67"/><line class="cls-10" x1="71" y1="63" x2="144.44" y2="63"/><line class="cls-10" x1="71" y1="59" x2="144.44" y2="59"/><line class="cls-10" x1="71" y1="55" x2="144.44" y2="55"/><line class="cls-10" x1="71" y1="51" x2="144.44" y2="51"/><line class="cls-10" x1="71" y1="47" x2="144.44" y2="47"/><line class="cls-10" x1="71" y1="43" x2="144.44" y2="43"/><line class="cls-10" x1="71" y1="39" x2="144.44" y2="39"/><line class="cls-10" x1="71" y1="35" x2="144.44" y2="35"/><line class="cls-10" x1="71" y1="31" x2="144.44" y2="31"/><line class="cls-10" x1="71" y1="27" x2="144.44" y2="27"/><line class="cls-10" x1="71" y1="23" x2="144.44" y2="23"/><line class="cls-10" x1="71" y1="19" x2="144.44" y2="19"/><line class="cls-10" x1="71" y1="15" x2="144.44" y2="15"/><line class="cls-10" x1="71" y1="11" x2="144.44" y2="11"/><line class="cls-10" x1="71" y1="7" x2="144.44" y2="7"/><line class="cls-10" x1="71" y1="3" x2="144.44" y2="3"/></g><g><line class="cls-10" x1="-1" y1="71" x2="72.44" y2="71"/><line class="cls-10" x1="-1" y1="67" x2="72.44" y2="67"/><line class="cls-10" x1="-1" y1="63" x2="72.44" y2="63"/><line class="cls-10" x1="-1" y1="59" x2="72.44" y2="59"/><line class="cls-10" x1="-1" y1="55" x2="72.44" y2="55"/><line class="cls-10" x1="-1" y1="51" x2="72.44" y2="51"/><line class="cls-10" x1="-1" y1="47" x2="72.44" y2="47"/><line class="cls-10" x1="-1" y1="43" x2="72.44" y2="43"/><line class="cls-10" x1="-1" y1="39" x2="72.44" y2="39"/><line class="cls-10" x1="-1" y1="35" x2="72.44" y2="35"/><line class="cls-10" x1="-1" y1="31" x2="72.44" y2="31"/><line class="cls-10" x1="-1" y1="27" x2="72.44" y2="27"/><line class="cls-10" x1="-1" y1="23" x2="72.44" y2="23"/><line class="cls-10" x1="-1" y1="19" x2="72.44" y2="19"/><line class="cls-10" x1="-1" y1="15" x2="72.44" y2="15"/><line class="cls-10" x1="-1" y1="11" x2="72.44" y2="11"/><line class="cls-10" x1="-1" y1="7" x2="72.44" y2="7"/><line class="cls-10" x1="-1" y1="3" x2="72.44" y2="3"/><line class="cls-10" x1="1.04" y1="69" x2="74.48" y2="69"/><line class="cls-10" x1="1.04" y1="65" x2="74.48" y2="65"/><line class="cls-10" x1="1.04" y1="61" x2="74.48" y2="61"/><line class="cls-10" x1="1.04" y1="57" x2="74.48" y2="57"/><line class="cls-10" x1="1.04" y1="53" x2="74.48" y2="53"/><line class="cls-10" x1="1.04" y1="49" x2="74.48" y2="49"/><line class="cls-10" x1="1.04" y1="45" x2="74.48" y2="45"/><line class="cls-10" x1="1.04" y1="41" x2="74.48" y2="41"/><line class="cls-10" x1="1.04" y1="37" x2="74.48" y2="37"/><line class="cls-10" x1="1.04" y1="33" x2="74.48" y2="33"/><line class="cls-10" x1="1.04" y1="29" x2="74.48" y2="29"/><line class="cls-10" x1="1.04" y1="25" x2="74.48" y2="25"/><line class="cls-10" x1="1.04" y1="21" x2="74.48" y2="21"/><line class="cls-10" x1="1.04" y1="17" x2="74.48" y2="17"/><line class="cls-10" x1="1.04" y1="13" x2="74.48" y2="13"/><line class="cls-10" x1="1.04" y1="9" x2="74.48" y2="9"/><line class="cls-10" x1="1.04" y1="5" x2="74.48" y2="5"/><line class="cls-10" x1="1.04" y1="1" x2="74.48" y2="1"/></g><g><line class="cls-10" x1="-73" y1="71" x2=".44" y2="71"/><line class="cls-10" x1="-73" y1="67" x2=".44" y2="67"/><line class="cls-10" x1="-73" y1="63" x2=".44" y2="63"/><line class="cls-10" x1="-73" y1="59" x2=".44" y2="59"/><line class="cls-10" x1="-73" y1="55" x2=".44" y2="55"/><line class="cls-10" x1="-73" y1="51" x2=".44" y2="51"/><line class="cls-10" x1="-73" y1="47" x2=".44" y2="47"/><line class="cls-10" x1="-73" y1="43" x2=".44" y2="43"/><line class="cls-10" x1="-73" y1="39" x2=".44" y2="39"/><line class="cls-10" x1="-73" y1="35" x2=".44" y2="35"/><line class="cls-10" x1="-73" y1="31" x2=".44" y2="31"/><line class="cls-10" x1="-73" y1="27" x2=".44" y2="27"/><line class="cls-10" x1="-73" y1="23" x2=".44" y2="23"/><line class="cls-10" x1="-73" y1="19" x2=".44" y2="19"/><line class="cls-10" x1="-73" y1="15" x2=".44" y2="15"/><line class="cls-10" x1="-73" y1="11" x2=".44" y2="11"/><line class="cls-10" x1="-73" y1="7" x2=".44" y2="7"/><line class="cls-10" x1="-73" y1="3" x2=".44" y2="3"/><line class="cls-10" x1="-70.96" y1="69" x2="2.48" y2="69"/><line class="cls-10" x1="-70.96" y1="65" x2="2.48" y2="65"/><line class="cls-10" x1="-70.96" y1="61" x2="2.48" y2="61"/><line class="cls-10" x1="-70.96" y1="57" x2="2.48" y2="57"/><line class="cls-10" x1="-70.96" y1="53" x2="2.48" y2="53"/><line class="cls-10" x1="-70.96" y1="49" x2="2.48" y2="49"/><line class="cls-10" x1="-70.96" y1="45" x2="2.48" y2="45"/><line class="cls-10" x1="-70.96" y1="41" x2="2.48" y2="41"/><line class="cls-10" x1="-70.96" y1="37" x2="2.48" y2="37"/><line class="cls-10" x1="-70.96" y1="33" x2="2.48" y2="33"/><line class="cls-10" x1="-70.96" y1="29" x2="2.48" y2="29"/><line class="cls-10" x1="-70.96" y1="25" x2="2.48" y2="25"/><line class="cls-10" x1="-70.96" y1="21" x2="2.48" y2="21"/><line class="cls-10" x1="-70.96" y1="17" x2="2.48" y2="17"/><line class="cls-10" x1="-70.96" y1="13" x2="2.48" y2="13"/><line class="cls-10" x1="-70.96" y1="9" x2="2.48" y2="9"/><line class="cls-10" x1="-70.96" y1="5" x2="2.48" y2="5"/><line class="cls-10" x1="-70.96" y1="1" x2="2.48" y2="1"/></g></g></pattern></defs><g id="BG"><g><path class="cls-6" d="M64.02,40c0,11.47-1.89,22.39-5.5,31.74-7.2,2.16-14.94,3.26-23.02,3.26-.49,0-.98-.01-1.47-.02h-.17c-8.18-.15-16.29-1.47-23.6-3.85-3.45-9.22-5.26-19.93-5.26-31.13s1.89-22.38,5.48-31.73c6.73-2.01,14.13-3.13,21.6-3.26,.48-.01,.97-.01,1.45-.01,.54,0,1.08,.01,1.63,.02,8.16,.15,16.27,1.47,23.59,3.84,3.46,9.24,5.27,19.95,5.27,31.14Z"/><path class="cls-13" d="M34.03,5.59V74.98h-.17c-8.18-.15-16.29-1.47-23.6-3.85-3.45-9.22-5.26-19.93-5.26-31.13s1.89-22.38,5.48-31.73c6.73-2.01,14.13-3.13,21.6-3.26,.65,.16,1.3,.36,1.95,.58Z"/></g></g><g id="Capa_9"><g><g><path class="cls-1" d="M62.33,61.46l-1.91,12.22-27.49,3.69-24.57-5.48-1.27-10.69,15.02-7.51-.51-7.12s-2.16-1.66-3.06-3.82c-.89-2.17-1.14-6.24-.5-7.13-.66-.63-1.24-1.14-1.71-1.58-.01-.01-.01-.02-.02-.02-1.51-1.43-1.83-2.07,.2-3.24,1.34-6.83,1.02-15.02,6.74-18.33,5.99-3.31,9.55-4.2,13.75-3.31,4.2,.9,10.31,4.71,11.58,7.26,1.28,2.55,2.42,14,2.42,14,0,0,2.08,1.2,2.4,2.09,.04,.11,.05,.23,.02,.33-.25,.89-3.44,2.8-3.44,2.8,0,0,.89,1.4,.64,4.45-.25,3.06-1.53,5.6-3.31,6.5-1.27,4.71-1.27,6.87-1.27,6.87l16.29,8.02Z"/><path class="cls-2" d="M34.34,63.37V31.11l13.8,1.31-.26,3.24s2.03-.81,2.87,1.15-.91,8.83-3.44,9.77c-1.41,4.49-1.5,7.85-1.5,7.85,0,0,.93,3.17-.37,4.48s-7.27,4.48-7.27,4.48h-3.82Z"/><path class="cls-5" d="M53.4,32.49c-1.28,1.07-2.59,2.07-3.59,2.59-1.25,.45-1.93,.57-1.93,.57l.23-3.87s-13.52-5.34-27.5,0c.3,3.19,.8,4.22-.68,4.21,0,0-2.04-.97-3.6-1.95-.01-.01-.01-.02-.02-.02-1.51-1.43-1.83-2.07,.2-3.24,1.34-6.83,1.02-15.02,6.74-18.33,5.99-3.31,9.55-4.2,13.75-3.31,4.2,.9,10.31,4.71,11.58,7.26,1.28,2.55,2.42,14,2.42,14,0,0,2.08,1.2,2.4,2.09Z"/><path class="cls-15" d="M22.52,54.32s.19,7.43,.68,9.56,1.16,4.25,1.16,4.25l7.63,7.43,4.15-.19,7.82-7.72s1.54-8.01,1.83-9.36c.39-2.32,.29-4.44,.29-4.44l15.83,7.24v10.33l-4.05,4.05-27.03,2.61-20.46-4.92-2.7-12.35,14.86-6.47Z"/><path d="M45.7,59.31l-18.49,17.98-18.83-4.6-.72-11.89,14.86-6.47s-.42,4,.34,4.56,7.16,3.92,7.16,3.92l8.43,.09,7.24-3.58Z"/><path d="M48.25,33.25s-15.24-3.95-27.89,.93l.26-2.4s8.37-3.13,16.78-2.34c8.7,.86,11.14,2.8,11.14,2.8l-.29,1.01Z"/><path d="M20.8,35.16l.54,2.01s-.29,1.87-.44,2.65,.49,7.12,.49,7.12c0,0-2.11-1.47-3.09-4.91s-1.18-5.3-.2-6.09,2.7-.79,2.7-.79Z"/><path class="cls-2" d="M34.18,20.18V9.18s1.54-.51,6.8,1.54c6.35,2.82,8.14,7.31,8.66,10.13s.9,9.3,.9,9.3l2.87,2.34s-7.36-3.69-13.41-5.06c-3.4-.77-5.81-3.77-5.81-7.25Z"/><polygon class="cls-4" points="37.99 42.69 36.75 38.45 43.14 36.41 45.88 38.49 44.68 41.53 37.99 42.69"/><polygon class="cls-4" points="30.78 42.69 32.02 38.45 25.62 36.41 22.89 38.49 24.08 41.53 30.78 42.69"/><path class="cls-3" d="M37.99,42.69l.05-2.06s3.64-.67,4.55-.53c1.25,.62,1.49,1.29,1.49,1.29,0,0-.77,1.87-4.79,1.97-1.1-.05-1.29-.67-1.29-.67Z"/><path class="cls-3" d="M30.82,42.58l-.05-2.06s-3.64-.67-4.55-.53c-1.25,.62-1.49,1.29-1.49,1.29,0,0,.77,1.87,4.79,1.97,1.1-.05,1.29-.67,1.29-.67Z"/><path class="cls-2" d="M23.94,43.44c.87,.55,2.31,1.13,4.46,1.1,.81-.01,1.21,.97,.61,1.51-1.75,1.59-3.33,1.9-4.09,1.94-.29,.02-.57-.1-.74-.34-.45-.6-1.35-1.92-1.54-3.34-.1-.73,.68-1.27,1.3-.88Z"/><path class="cls-2" d="M24.83,12.17s-3.37,1.9-4.58,7-1.9,10.71-1.9,10.71c0,0,4.49-1.73,6.82-2.59-3.46,2.59-9.59,6.57-9.59,6.57-1.99-1.73,1.3-3.54,1.3-3.54,0,0,1.3-11.84,2.59-14.08s5.36-4.06,5.36-4.06Z"/><path d="M19.07,35.95c-3.13-1.06-7.43-3.6-2.15-5.61,.89-.34,1.8-.61,2.73-.77-1.3,.78-3.53,1.58-4.23,2.87-.06,.06,.2,.4,.51,.64,1.04,.8,2.31,1.35,3.5,1.94,0,0-.36,.93-.36,.93h0Z"/><path d="M48.91,35.01c1.19-.58,2.46-1.14,3.5-1.94,.32-.24,.57-.58,.51-.64,0-.17-.33-.54-.66-.79-1.09-.83-2.34-1.44-3.57-2.08,1.4,.27,2.79,.67,4.04,1.41,.41,.29,.89,.52,1.16,1.25,.27,1.92-3.17,3.17-4.62,3.73,0,0-.36-.93-.36-.93h0Z"/><path d="M17.99,32.86c8.5-5.17,19.42-5.03,28.58-1.73,1.31,.51,2.59,1.08,3.86,1.66-1.94-.57-4.05-1.25-6.03-1.7-8.7-2.04-18.15-1.88-26.42,1.76h0Z"/><path class="cls-7" d="M50.88,30.38s-.52-2.91-.82-6.42-1.03-8.29-4.19-10.53-7.8-4.56-11.18-4.56h-1.47c-3.38,0-8.02,2.32-11.18,4.56s-3.9,7.02-4.19,10.53-.85,6.61-.85,6.61"/><path class="cls-7" d="M20.39,31.79s.05,3.6,.15,3.99c-1.58-.84-2.86-.44-2.71,2.61s1.48,7.69,3.74,8.18"/><path d="M21.08,38.64c-.34,4.76,.7,10.14,5.13,12.71,.12,.87,.15,1.75,.04,2.61-.14-.82-.32-1.63-.56-2.41l.14,.18c-1.14-.54-2.28-1.23-3.1-2.24-2.53-2.94-2.84-7.29-1.65-10.86h0Z"/><path class="cls-7" d="M48.33,32.06s-.18,3.33-.27,3.72c1.42-.64,2.72-.26,2.71,2.61,0,3.06-1.48,7.69-3.74,8.18"/><path d="M47.52,38.64c1.19,3.56,.88,7.92-1.65,10.86-.82,1.02-1.96,1.7-3.1,2.24l.14-.18c-.24,.78-.42,1.58-.56,2.41-.1-.87-.07-1.75,.04-2.61,4.43-2.57,5.47-7.95,5.13-12.71h0Z"/><path class="cls-7" d="M46.85,46.83l-.99,7.92s.82,3.48-1.05,4.68-5.21,2.64-6.32,3.54h-3.33s-1.87,0-1.87,0h-3.33c-1.11-.9-4.45-2.34-6.32-3.54s-1.05-4.68-1.05-4.68l-.99-7.92"/><line class="cls-7" x1="22.31" y1="53.92" x2="6.69" y2="61.37"/><line class="cls-7" x1="45.88" y1="53.7" x2="62.14" y2="61.37"/><path d="M47.34,29.21c-6.59-3.83-15.01-4.43-22.03-1.44-1.02,.4-2.01,.9-2.98,1.44,6.93-5.77,18.08-5.77,25.01,0h0Z"/><path d="M25.89,14.51c-.21-1.42-.15-2.92,.65-4.21,0,0,.78,.63,.78,.63-.87,.83-1.31,2.23-1.43,3.58h0Z"/><path d="M41.97,14.51c-.12-1.35-.56-2.75-1.43-3.58l.78-.63c.8,1.29,.86,2.79,.65,4.21h0Z"/><path d="M40.23,55.3c-1.45-.12-2.84-.39-4.22-.72h.12c-.26,.04-.5,.08-.73,.15-.15,.04-.43,.2-.48,.27-.05,.02-.43,.24-.47,.2,0,0-.4-.2-.4-.2-.26-.26-.79-.37-1.21-.4-.72,.24-2.84,.62-4.1,.71,1.3-.67,2.66-1.17,4.04-1.63,.75-.01,1.52,.12,2.07,.73,0,0-.4-.2-.4-.2h.07s-.4,.2-.4,.2c.55-.61,1.32-.74,2.07-.73,1.37,.45,2.74,.96,4.04,1.63h0Z"/><path d="M38.54,56.1c-.28,.46-.8,.87-1.39,.88-.85,.12-1.71,.16-2.56,.17-.85,0-1.72-.05-2.56-.17-.59-.01-1.11-.42-1.38-.88,.49,.21,.9,.37,1.38,.23,.85-.12,1.72-.17,2.56-.17,.94,.01,1.89,.06,2.82,.21,.38,.07,.72-.12,1.13-.27h0Z"/><path d="M30.69,58.68c1.04-.82,2.39-1.09,3.68-1.1,1.3,.02,2.61,.37,3.66,1.15-.66,0-1.27-.07-1.88-.09-1.75-.12-3.7-.05-5.47,.04h0Z"/><path d="M22.9,38.51s1.66-2.44,3.15-2.75c2.17-.37,6.03,.68,6.03,.68l-.03,2.07s-4.58-1.05-6.03-.88c-1.69,.37-3.12,.88-3.12,.88Z"/><path d="M30.83,41.9c-.06-.4-.1-.79-.14-1.19l.13,.17c-1.54-.18-3.19-.56-4.7-.28,0,0,.09-.04,.09-.04-.46,.25-.89,.64-1.2,1.05,0,0,.04-.44,.04-.44,.35,.77,1.21,1.4,2.05,1.68,.95,.35,1.99,.4,3.02,.43-1.02,.34-2.13,.5-3.21,.27-1.24-.25-2.37-.99-2.87-2.25,.14-.22,.31-.48,.48-.65,.37-.41,.82-.77,1.34-.99,1.76-.32,3.45,.28,5.06,.88,0,0,.14,.06,.14,.06-.06,.43-.14,.86-.23,1.3h0Z"/><path d="M45.94,38.51s-1.66-2.44-3.15-2.75c-2.17-.37-6.03,.68-6.03,.68l.03,2.07s4.58-1.05,6.03-.88c1.69,.37,3.12,.88,3.12,.88Z"/><path d="M38.01,41.9c-.09-.43-.16-.86-.23-1.3l.14-.06c1.63-.6,3.34-1.21,5.1-.87,.66,.33,1.21,.79,1.63,1.41l.14,.22c-.71,1.82-2.73,2.52-4.52,2.33-.54-.06-1.06-.18-1.56-.35,.53-.02,1.05-.03,1.56-.09,.97-.13,1.94-.4,2.7-1.01,.34-.28,.67-.68,.81-1l.04,.44c-.31-.41-.74-.8-1.2-1.05,0,0,.09,.04,.09,.04-1.51-.28-3.16,.1-4.7,.28,0,0,.13-.17,.13-.17-.04,.4-.08,.79-.14,1.19h0Z"/><path d="M37.59,46.85c2.26,.55,.93,2.1,.07,3.3-.34-.29-.72-.58-1.05-.88,0,0,.61-.02,.61-.02-.36,.38-.72,.72-1.16,1-.71,.48-1.61,.64-2.44,.36-.77-.27-1.36-.78-1.9-1.36l.61,.02c-.33,.29-.71,.59-1.06,.88-.47-.73-1.89-2.19-.79-2.93,.27-.19,.56-.29,.85-.37-.25,.17-.49,.36-.67,.57-.16,.21-.26,.36-.11,.6,.26,.46,.68,.91,1.07,1.32l-.55-.03c.3-.32,.63-.66,.95-.97,.79,.76,1.81,1.68,2.99,1.33,.72-.25,1.35-.81,1.9-1.33,.32,.31,.65,.64,.95,.97,0,0-.55,.03-.55,.03,.41-.49,1.05-.99,1.14-1.6-.12-.38-.52-.66-.85-.89h0Z"/><path class="cls-7" d="M22.43,57.78s.39,6.26,1.89,10.05c4.11,5.15,8.16,7.7,8.16,7.7"/><path class="cls-7" d="M45.86,57.78s-.39,6.26-1.89,10.05c-4.11,5.15-8.16,7.7-8.16,7.7"/><path class="cls-7" d="M15.65,57.19s.26,4.5,.65,6.26c2.35,.33,3,.59,3,.59l-2.48,1.96s.72,3.91,5.09,8.09"/><path class="cls-7" d="M53.4,57.19s-.26,4.5-.65,6.26c-2.35,.33-3,.59-3,.59l2.48,1.96s-.72,3.91-5.09,8.09"/></g><path class="cls-11" d="M21.38,55.34c-3.78,2.66-8.14,4.89-12.58,5.77,3.11-1.49,9.41-4.42,12.55-5.84,0,0,.03,.07,.03,.07h0Z"/></g></g><g id="Frame"><path class="cls-5" d="M62.56,4.88C54.4,1.94,45.12,.2,35.25,.02c-.57-.01-1.15-.02-1.72-.02C23.88,0,14.77,1.52,6.72,4.21,2.49,14.22,0,26.6,0,40s2.39,25.22,6.45,35.11c8.16,2.94,17.45,4.69,27.32,4.87,.58,.01,1.15,.02,1.73,.02,9.63,0,18.73-1.51,26.78-4.2,4.24-10.01,6.74-22.39,6.74-35.8s-2.4-25.24-6.46-35.12Zm-4.04,66.86c-7.2,2.16-14.94,3.26-23.02,3.26-.49,0-.98-.01-1.47-.02h-.17c-8.18-.15-16.29-1.47-23.6-3.85-3.45-9.22-5.26-19.93-5.26-31.13s1.89-22.38,5.48-31.73c6.73-2.01,14.13-3.13,21.6-3.26,.48-.01,.97-.01,1.45-.01,.54,0,1.08,.01,1.63,.02,8.16,.15,16.27,1.47,23.59,3.84,3.46,9.24,5.27,19.95,5.27,31.14s-1.89,22.39-5.5,31.74Z"/><path class="cls-12" d="M17.21,2.06h0c1.63,.63,2.06,2.75,.81,3.97l-1.26,1.22s8.35-2.37,18.84-1.69h0c-1-1.49-.45-3.52,1.14-4.34l1-.51S28.26-.43,17.21,2.06Z"/><path class="cls-14" d="M21.81,1.66s.7,2.18-.22,3.1c3.77-.41,7.98-.74,11.12-.74-.33-1.33,1.26-3.4,1.26-3.4,0,0-6.17-.26-12.16,1.03Z"/><path class="cls-12" d="M36.25,79.21h0c-1.52-.87-1.62-3.03-.2-4.04l1.43-1.02s-8.61,1.07-18.88-1.19h0c.76,1.63-.09,3.55-1.79,4.11l-1.07,.36s9.19,2.56,20.5,1.78Z"/><path class="cls-14" d="M19.28,77.8s1.76-1.83,1.3-3.09c4.43,.69,9.11,1.14,12.25,1.14-.33,1.33,.44,3.4,.44,3.4,0,0-8-.16-13.99-1.45Z"/><polygon points="47.48 1.77 47.48 6.73 54.49 8.44 54.49 2.62 47.48 1.77"/><line class="cls-7" x1="45.5" y1="1.23" x2="45.5" y2="6.29"/><line class="cls-7" x1="56.47" y1="3.67" x2="56.47" y2="8.73"/><polygon points="47.48 78.74 47.48 73.78 54.49 72.07 54.49 77.88 47.48 78.74"/><line class="cls-7" x1="45.5" y1="79.28" x2="45.5" y2="74.21"/><line class="cls-7" x1="56.47" y1="76.84" x2="56.47" y2="71.77"/><path d="M33.53,1c.56,0,1.14,0,1.7,.02,9.39,.17,18.33,1.74,26.57,4.65,4.07,10.08,6.22,21.94,6.22,34.33s-2.24,24.79-6.49,34.99c-8.12,2.66-16.87,4.01-26.03,4.01-.56,0-1.12,0-1.71-.02-9.25-.17-18.42-1.78-26.58-4.66C3.15,64.25,1,52.39,1,40S3.23,15.21,7.47,5.02C15.6,2.35,24.37,1,33.53,1m0-1C23.88,0,14.77,1.52,6.72,4.21,2.49,14.22,0,26.6,0,40s2.39,25.22,6.45,35.11c8.16,2.94,17.45,4.69,27.32,4.87,.58,.01,1.15,.02,1.73,.02,9.63,0,18.73-1.51,26.78-4.2,4.24-10.01,6.74-22.39,6.74-35.8s-2.4-25.24-6.46-35.12C54.4,1.94,45.12,.2,35.25,.02c-.57,0-1.15-.02-1.72-.02h0Z"/><path class="cls-12" d="M33.53,6c.52,0,1.04,0,1.61,.02,7.87,.14,15.75,1.4,22.84,3.64,3.3,9,5.04,19.47,5.04,30.34s-1.82,21.82-5.26,30.92c-6.98,2.04-14.47,3.08-22.26,3.08-.48,0-.97,0-1.47-.02h-.15c-7.89-.14-15.78-1.41-22.85-3.65-3.29-8.99-5.03-19.46-5.03-30.33s1.81-21.79,5.24-30.91c6.5-1.89,13.7-2.95,20.86-3.08,.47,0,.96,0,1.43,0m0-1c-.48,0-.97,0-1.45,.01-7.47,.13-14.87,1.25-21.6,3.26-3.59,9.35-5.48,20.26-5.48,31.73s1.81,21.91,5.26,31.13c7.31,2.38,15.42,3.7,23.6,3.85h.17c.49,.01,.98,.02,1.47,.02,8.08,0,15.82-1.1,23.02-3.26,3.61-9.35,5.5-20.27,5.5-31.74s-1.81-21.9-5.27-31.14c-7.32-2.37-15.43-3.69-23.59-3.84-.55,0-1.09-.02-1.63-.02h0Z"/><path d="M33.53,5c.54,0,1.08,.01,1.63,.02,8.16,.15,16.27,1.47,23.59,3.84,3.46,9.24,5.27,19.95,5.27,31.14s-1.89,22.39-5.5,31.74c-7.2,2.16-14.94,3.26-23.02,3.26-.49,0-.98-.01-1.47-.02h-.17c-8.18-.15-16.29-1.47-23.6-3.85-3.45-9.22-5.26-19.93-5.26-31.13s1.89-22.38,5.48-31.73c6.73-2.01,14.13-3.13,21.6-3.26,.48-.01,.97-.01,1.45-.01m0-1c-.49,0-.98,0-1.47,.01-7.51,.13-15.07,1.27-21.87,3.3l-.47,.14-.18,.46c-3.63,9.45-5.55,20.55-5.55,32.09s1.84,22.17,5.32,31.48l.17,.45,.46,.15c7.37,2.4,15.63,3.75,23.89,3.9h.19c.48,.01,.97,.02,1.47,.02,8.16,0,16-1.11,23.31-3.3l.47-.14,.18-.46c3.64-9.43,5.57-20.53,5.57-32.1s-1.84-22.17-5.33-31.49l-.17-.45-.46-.15c-7.39-2.39-15.65-3.74-23.88-3.89-.58-.01-1.12-.02-1.65-.02h0Z"/><path class="cls-8" d="M8.14,7.1s-12.66,32.94,0,66.06"/><path class="cls-8" d="M60.88,7.58s12.66,32.94,0,66.06"/></g></svg>