<svg id="Capa_2" xmlns="http://www.w3.org/2000/svg" xmlns:xlink="http://www.w3.org/1999/xlink" viewBox="0 0 69.02 80">
<defs >
<style >
.cls-1{fill:#c89aed;}.cls-2{fill:#fff;}.cls-3{fill:#f8ffbf;}.cls-4{fill:#7b7be8;}.cls-5{fill:#a88347;}.cls-6{fill:#782ab5;}.cls-7{stroke:#000;stroke-miterlimit:10;}.cls-7,.cls-8,.cls-9,.cls-10{fill:none;}.cls-11{fill:#1c46ff;}.cls-8{stroke:#deb778;stroke-dasharray:0 0 0 4.06;stroke-linecap:round;stroke-linejoin:round;}.cls-12{fill:#deb778;}.cls-13{fill:url(#USGS_19_Inundación_de_tierra_2);}.cls-10{stroke:#1d1d1b;stroke-dasharray:0 0 2 2;stroke-width:.3px;}.cls-14{fill:#fcf0c5;}.cls-15{fill:#b83521;}
</style>
<pattern id="USGS_19_Inundación_de_tierra_2" x="0" y="0" width="72" height="72" patternTransform="translate(-452.48 -16423) rotate(-90)" patternUnits="userSpaceOnUse" viewBox="0 0 72 72">
<g >
<rect class="cls-9" width="72" height="72">
</rect>
<g >
<line class="cls-10" x1="71" y1="71" x2="144.44" y2="71">
</line>
<line class="cls-10" x1="71" y1="67" x2="144.44" y2="67">
</line>
<line class="cls-10" x1="71" y1="63" x2="144.44" y2="63">
</line>
<line class="cls-10" x1="71" y1="59" x2="144.44" y2="59">
</line>
<line class="cls-10" x1="71" y1="55" x2="144.44" y2="55">
</line>
<line class="cls-10" x1="71" y1="51" x2="144.44" y2="51">
</line>
<line class="cls-10" x1="71" y1="47" x2="144.44" y2="47">
</line>
<line class="cls-10" x1="71" y1="43" x2="144.44" y2="43">
</line>
<line class="cls-10" x1="71" y1="39" x2="144.44" y2="39">
</line>
<line class="cls-10" x1="71" y1="35" x2="144.44" y2="35">
</line>
<line class="cls-10" x1="71" y1="31" x2="144.44" y2="31">
</line>
<line class="cls-10" x1="71" y1="27" x2="144.44" y2="27">
</line>
<line class="cls-10" x1="71" y1="23" x2="144.44" y2="23">
</line>
<line class="cls-10" x1="71" y1="19" x2="144.44" y2="19">
</line>
<line class="cls-10" x1="71" y1="15" x2="144.44" y2="15">
</line>
<line class="cls-10" x1="71" y1="11" x2="144.44" y2="11">
</line>
<line class="cls-10" x1="71" y1="7" x2="144.44" y2="7">
</line>
<line class="cls-10" x1="71" y1="3" x2="144.44" y2="3">
</line>
</g>
<g >
<line class="cls-10" x1="-1" y1="71" x2="72.44" y2="71">
</line>
<line class="cls-10" x1="-1" y1="67" x2="72.44" y2="67">
</line>
<line class="cls-10" x1="-1" y1="63" x2="72.44" y2="63">
</line>
<line class="cls-10" x1="-1" y1="59" x2="72.44" y2="59">
</line>
<line class="cls-10" x1="-1" y1="55" x2="72.44" y2="55">
</line>
<line class="cls-10" x1="-1" y1="51" x2="72.44" y2="51">
</line>
<line class="cls-10" x1="-1" y1="47" x2="72.44" y2="47">
</line>
<line class="cls-10" x1="-1" y1="43" x2="72.44" y2="43">
</line>
<line class="cls-10" x1="-1" y1="39" x2="72.44" y2="39">
</line>
<line class="cls-10" x1="-1" y1="35" x2="72.44" y2="35">
</line>
<line class="cls-10" x1="-1" y1="31" x2="72.44" y2="31">
</line>
<line class="cls-10" x1="-1" y1="27" x2="72.44" y2="27">
</line>
<line class="cls-10" x1="-1" y1="23" x2="72.44" y2="23">
</line>
<line class="cls-10" x1="-1" y1="19" x2="72.44" y2="19">
</line>
<line class="cls-10" x1="-1" y1="15" x2="72.44" y2="15">
</line>
<line class="cls-10" x1="-1" y1="11" x2="72.44" y2="11">
</line>
<line class="cls-10" x1="-1" y1="7" x2="72.44" y2="7">
</line>
<line class="cls-10" x1="-1" y1="3" x2="72.44" y2="3">
</line>
<line class="cls-10" x1="1.04" y1="69" x2="74.48" y2="69">
</line>
<line class="cls-10" x1="1.04" y1="65" x2="74.48" y2="65">
</line>
<line class="cls-10" x1="1.04" y1="61" x2="74.48" y2="61">
</line>
<line class="cls-10" x1="1.04" y1="57" x2="74.48" y2="57">
</line>
<line class="cls-10" x1="1.04" y1="53" x2="74.48" y2="53">
</line>
<line class="cls-10" x1="1.04" y1="49" x2="74.48" y2="49">
</line>
<line class="cls-10" x1="1.04" y1="45" x2="74.48" y2="45">
</line>
<line class="cls-10" x1="1.04" y1="41" x2="74.48" y2="41">
</line>
<line class="cls-10" x1="1.04" y1="37" x2="74.48" y2="37">
</line>
<line class="cls-10" x1="1.04" y1="33" x2="74.48" y2="33">
</line>
<line class="cls-10" x1="1.04" y1="29" x2="74.48" y2="29">
</line>
<line class="cls-10" x1="1.04" y1="25" x2="74.48" y2="25">
</line>
<line class="cls-10" x1="1.04" y1="21" x2="74.48" y2="21">
</line>
<line class="cls-10" x1="1.04" y1="17" x2="74.48" y2="17">
</line>
<line class="cls-10" x1="1.04" y1="13" x2="74.48" y2="13">
</line>
<line class="cls-10" x1="1.04" y1="9" x2="74.48" y2="9">
</line>
<line class="cls-10" x1="1.04" y1="5" x2="74.48" y2="5">
</line>
<line class="cls-10" x1="1.04" y1="1" x2="74.48" y2="1">
</line>
</g>
<g >
<line class="cls-10" x1="-73" y1="71" x2=".44" y2="71">
</line>
<line class="cls-10" x1="-73" y1="67" x2=".44" y2="67">
</line>
<line class="cls-10" x1="-73" y1="63" x2=".44" y2="63">
</line>
<line class="cls-10" x1="-73" y1="59" x2=".44" y2="59">
</line>
<line class="cls-10" x1="-73" y1="55" x2=".44" y2="55">
</line>
<line class="cls-10" x1="-73" y1="51" x2=".44" y2="51">
</line>
<line class="cls-10" x1="-73" y1="47" x2=".44" y2="47">
</line>
<line class="cls-10" x1="-73" y1="43" x2=".44" y2="43">
</line>
<line class="cls-10" x1="-73" y1="39" x2=".44" y2="39">
</line>
<line class="cls-10" x1="-73" y1="35" x2=".44" y2="35">
</line>
<line class="cls-10" x1="-73" y1="31" x2=".44" y2="31">
</line>
<line class="cls-10" x1="-73" y1="27" x2=".44" y2="27">
</line>
<line class="cls-10" x1="-73" y1="23" x2=".44" y2="23">
</line>
<line class="cls-10" x1="-73" y1="19" x2=".44" y2="19">
</line>
<line class="cls-10" x1="-73" y1="15" x2=".44" y2="15">
</line>
<line class="cls-10" x1="-73" y1="11" x2=".44" y2="11">
</line>
<line class="cls-10" x1="-73" y1="7" x2=".44" y2="7">
</line>
<line class="cls-10" x1="-73" y1="3" x2=".44" y2="3">
</line>
<line class="cls-10" x1="-70.96" y1="69" x2="2.48" y2="69">
</line>
<line class="cls-10" x1="-70.96" y1="65" x2="2.48" y2="65">
</line>
<line class="cls-10" x1="-70.96" y1="61" x2="2.48" y2="61">
</line>
<line class="cls-10" x1="-70.96" y1="57" x2="2.48" y2="57">
</line>
<line class="cls-10" x1="-70.96" y1="53" x2="2.48" y2="53">
</line>
<line class="cls-10" x1="-70.96" y1="49" x2="2.48" y2="49">
</line>
<line class="cls-10" x1="-70.96" y1="45" x2="2.48" y2="45">
</line>
<line class="cls-10" x1="-70.96" y1="41" x2="2.48" y2="41">
</line>
<line class="cls-10" x1="-70.96" y1="37" x2="2.48" y2="37">
</line>
<line class="cls-10" x1="-70.96" y1="33" x2="2.48" y2="33">
</line>
<line class="cls-10" x1="-70.96" y1="29" x2="2.48" y2="29">
</line>
<line class="cls-10" x1="-70.96" y1="25" x2="2.48" y2="25">
</line>
<line class="cls-10" x1="-70.96" y1="21" x2="2.48" y2="21">
</line>
<line class="cls-10" x1="-70.96" y1="17" x2="2.48" y2="17">
</line>
<line class="cls-10" x1="-70.96" y1="13" x2="2.48" y2="13">
</line>
<line class="cls-10" x1="-70.96" y1="9" x2="2.48" y2="9">
</line>
<line class="cls-10" x1="-70.96" y1="5" x2="2.48" y2="5">
</line>
<line class="cls-10" x1="-70.96" y1="1" x2="2.48" y2="1">
</line>
</g>
</g>
</pattern>
</defs>

<g id="Capa_9">
<g >
<g >
<path class="cls-1" d="M62.33,61.46l-1.91,12.22-27.49,3.69-24.57-5.48-1.27-10.69,15.02-7.51-.51-7.12s-2.16-1.66-3.06-3.82c-.89-2.17-1.14-6.24-.5-7.13-.66-.63-1.24-1.14-1.71-1.58-.01-.01-.01-.02-.02-.02-1.51-1.43-1.83-2.07,.2-3.24,1.34-6.83,1.02-15.02,6.74-18.33,5.99-3.31,9.55-4.2,13.75-3.31,4.2,.9,10.31,4.71,11.58,7.26,1.28,2.55,2.42,14,2.42,14,0,0,2.08,1.2,2.4,2.09,.04,.11,.05,.23,.02,.33-.25,.89-3.44,2.8-3.44,2.8,0,0,.89,1.4,.64,4.45-.25,3.06-1.53,5.6-3.31,6.5-1.27,4.71-1.27,6.87-1.27,6.87l16.29,8.02Z">
</path>
<path class="cls-2" d="M34.34,63.37V31.11l13.8,1.31-.26,3.24s2.03-.81,2.87,1.15-.91,8.83-3.44,9.77c-1.41,4.49-1.5,7.85-1.5,7.85,0,0,.93,3.17-.37,4.48s-7.27,4.48-7.27,4.48h-3.82Z">
</path>
<path class="cls-5" d="M53.4,32.49c-1.28,1.07-2.59,2.07-3.59,2.59-1.25,.45-1.93,.57-1.93,.57l.23-3.87s-13.52-5.34-27.5,0c.3,3.19,.8,4.22-.68,4.21,0,0-2.04-.97-3.6-1.95-.01-.01-.01-.02-.02-.02-1.51-1.43-1.83-2.07,.2-3.24,1.34-6.83,1.02-15.02,6.74-18.33,5.99-3.31,9.55-4.2,13.75-3.31,4.2,.9,10.31,4.71,11.58,7.26,1.28,2.55,2.42,14,2.42,14,0,0,2.08,1.2,2.4,2.09Z">
</path>
<path class="cls-15" d="M22.52,54.32s.19,7.43,.68,9.56,1.16,4.25,1.16,4.25l7.63,7.43,4.15-.19,7.82-7.72s1.54-8.01,1.83-9.36c.39-2.32,.29-4.44,.29-4.44l15.83,7.24v10.33l-4.05,4.05-27.03,2.61-20.46-4.92-2.7-12.35,14.86-6.47Z">
</path>
<path d="M45.7,59.31l-18.49,17.98-18.83-4.6-.72-11.89,14.86-6.47s-.42,4,.34,4.56,7.16,3.92,7.16,3.92l8.43,.09,7.24-3.58Z">
</path>
<path d="M48.25,33.25s-15.24-3.95-27.89,.93l.26-2.4s8.37-3.13,16.78-2.34c8.7,.86,11.14,2.8,11.14,2.8l-.29,1.01Z">
</path>
<path d="M20.8,35.16l.54,2.01s-.29,1.87-.44,2.65,.49,7.12,.49,7.12c0,0-2.11-1.47-3.09-4.91s-1.18-5.3-.2-6.09,2.7-.79,2.7-.79Z">
</path>
<path class="cls-2" d="M34.18,20.18V9.18s1.54-.51,6.8,1.54c6.35,2.82,8.14,7.31,8.66,10.13s.9,9.3,.9,9.3l2.87,2.34s-7.36-3.69-13.41-5.06c-3.4-.77-5.81-3.77-5.81-7.25Z">
</path>
<polygon class="cls-4" points="37.99 42.69 36.75 38.45 43.14 36.41 45.88 38.49 44.68 41.53 37.99 42.69">
</polygon>
<polygon class="cls-4" points="30.78 42.69 32.02 38.45 25.62 36.41 22.89 38.49 24.08 41.53 30.78 42.69">
</polygon>
<path class="cls-3" d="M37.99,42.69l.05-2.06s3.64-.67,4.55-.53c1.25,.62,1.49,1.29,1.49,1.29,0,0-.77,1.87-4.79,1.97-1.1-.05-1.29-.67-1.29-.67Z">
</path>
<path class="cls-3" d="M30.82,42.58l-.05-2.06s-3.64-.67-4.55-.53c-1.25,.62-1.49,1.29-1.49,1.29,0,0,.77,1.87,4.79,1.97,1.1-.05,1.29-.67,1.29-.67Z">
</path>
<path class="cls-2" d="M23.94,43.44c.87,.55,2.31,1.13,4.46,1.1,.81-.01,1.21,.97,.61,1.51-1.75,1.59-3.33,1.9-4.09,1.94-.29,.02-.57-.1-.74-.34-.45-.6-1.35-1.92-1.54-3.34-.1-.73,.68-1.27,1.3-.88Z">
</path>
<path class="cls-2" d="M24.83,12.17s-3.37,1.9-4.58,7-1.9,10.71-1.9,10.71c0,0,4.49-1.73,6.82-2.59-3.46,2.59-9.59,6.57-9.59,6.57-1.99-1.73,1.3-3.54,1.3-3.54,0,0,1.3-11.84,2.59-14.08s5.36-4.06,5.36-4.06Z">
</path>
<path d="M19.07,35.95c-3.13-1.06-7.43-3.6-2.15-5.61,.89-.34,1.8-.61,2.73-.77-1.3,.78-3.53,1.58-4.23,2.87-.06,.06,.2,.4,.51,.64,1.04,.8,2.31,1.35,3.5,1.94,0,0-.36,.93-.36,.93h0Z">
</path>
<path d="M48.91,35.01c1.19-.58,2.46-1.14,3.5-1.94,.32-.24,.57-.58,.51-.64,0-.17-.33-.54-.66-.79-1.09-.83-2.34-1.44-3.57-2.08,1.4,.27,2.79,.67,4.04,1.41,.41,.29,.89,.52,1.16,1.25,.27,1.92-3.17,3.17-4.62,3.73,0,0-.36-.93-.36-.93h0Z">
</path>
<path d="M17.99,32.86c8.5-5.17,19.42-5.03,28.58-1.73,1.31,.51,2.59,1.08,3.86,1.66-1.94-.57-4.05-1.25-6.03-1.7-8.7-2.04-18.15-1.88-26.42,1.76h0Z">
</path>
<path class="cls-7" d="M50.88,30.38s-.52-2.91-.82-6.42-1.03-8.29-4.19-10.53-7.8-4.56-11.18-4.56h-1.47c-3.38,0-8.02,2.32-11.18,4.56s-3.9,7.02-4.19,10.53-.85,6.61-.85,6.61">
</path>
<path class="cls-7" d="M20.39,31.79s.05,3.6,.15,3.99c-1.58-.84-2.86-.44-2.71,2.61s1.48,7.69,3.74,8.18">
</path>
<path d="M21.08,38.64c-.34,4.76,.7,10.14,5.13,12.71,.12,.87,.15,1.75,.04,2.61-.14-.82-.32-1.63-.56-2.41l.14,.18c-1.14-.54-2.28-1.23-3.1-2.24-2.53-2.94-2.84-7.29-1.65-10.86h0Z">
</path>
<path class="cls-7" d="M48.33,32.06s-.18,3.33-.27,3.72c1.42-.64,2.72-.26,2.71,2.61,0,3.06-1.48,7.69-3.74,8.18">
</path>
<path d="M47.52,38.64c1.19,3.56,.88,7.92-1.65,10.86-.82,1.02-1.96,1.7-3.1,2.24l.14-.18c-.24,.78-.42,1.58-.56,2.41-.1-.87-.07-1.75,.04-2.61,4.43-2.57,5.47-7.95,5.13-12.71h0Z">
</path>
<path class="cls-7" d="M46.85,46.83l-.99,7.92s.82,3.48-1.05,4.68-5.21,2.64-6.32,3.54h-3.33s-1.87,0-1.87,0h-3.33c-1.11-.9-4.45-2.34-6.32-3.54s-1.05-4.68-1.05-4.68l-.99-7.92">
</path>
<line class="cls-7" x1="22.31" y1="53.92" x2="6.69" y2="61.37">
</line>
<line class="cls-7" x1="45.88" y1="53.7" x2="62.14" y2="61.37">
</line>
<path d="M47.34,29.21c-6.59-3.83-15.01-4.43-22.03-1.44-1.02,.4-2.01,.9-2.98,1.44,6.93-5.77,18.08-5.77,25.01,0h0Z">
</path>
<path d="M25.89,14.51c-.21-1.42-.15-2.92,.65-4.21,0,0,.78,.63,.78,.63-.87,.83-1.31,2.23-1.43,3.58h0Z">
</path>
<path d="M41.97,14.51c-.12-1.35-.56-2.75-1.43-3.58l.78-.63c.8,1.29,.86,2.79,.65,4.21h0Z">
</path>
<path d="M40.23,55.3c-1.45-.12-2.84-.39-4.22-.72h.12c-.26,.04-.5,.08-.73,.15-.15,.04-.43,.2-.48,.27-.05,.02-.43,.24-.47,.2,0,0-.4-.2-.4-.2-.26-.26-.79-.37-1.21-.4-.72,.24-2.84,.62-4.1,.71,1.3-.67,2.66-1.17,4.04-1.63,.75-.01,1.52,.12,2.07,.73,0,0-.4-.2-.4-.2h.07s-.4,.2-.4,.2c.55-.61,1.32-.74,2.07-.73,1.37,.45,2.74,.96,4.04,1.63h0Z">
</path>
<path d="M38.54,56.1c-.28,.46-.8,.87-1.39,.88-.85,.12-1.71,.16-2.56,.17-.85,0-1.72-.05-2.56-.17-.59-.01-1.11-.42-1.38-.88,.49,.21,.9,.37,1.38,.23,.85-.12,1.72-.17,2.56-.17,.94,.01,1.89,.06,2.82,.21,.38,.07,.72-.12,1.13-.27h0Z">
</path>
<path d="M30.69,58.68c1.04-.82,2.39-1.09,3.68-1.1,1.3,.02,2.61,.37,3.66,1.15-.66,0-1.27-.07-1.88-.09-1.75-.12-3.7-.05-5.47,.04h0Z">
</path>
<path d="M22.9,38.51s1.66-2.44,3.15-2.75c2.17-.37,6.03,.68,6.03,.68l-.03,2.07s-4.58-1.05-6.03-.88c-1.69,.37-3.12,.88-3.12,.88Z">
</path>
<path d="M30.83,41.9c-.06-.4-.1-.79-.14-1.19l.13,.17c-1.54-.18-3.19-.56-4.7-.28,0,0,.09-.04,.09-.04-.46,.25-.89,.64-1.2,1.05,0,0,.04-.44,.04-.44,.35,.77,1.21,1.4,2.05,1.68,.95,.35,1.99,.4,3.02,.43-1.02,.34-2.13,.5-3.21,.27-1.24-.25-2.37-.99-2.87-2.25,.14-.22,.31-.48,.48-.65,.37-.41,.82-.77,1.34-.99,1.76-.32,3.45,.28,5.06,.88,0,0,.14,.06,.14,.06-.06,.43-.14,.86-.23,1.3h0Z">
</path>
<path d="M45.94,38.51s-1.66-2.44-3.15-2.75c-2.17-.37-6.03,.68-6.03,.68l.03,2.07s4.58-1.05,6.03-.88c1.69,.37,3.12,.88,3.12,.88Z">
</path>
<path d="M38.01,41.9c-.09-.43-.16-.86-.23-1.3l.14-.06c1.63-.6,3.34-1.21,5.1-.87,.66,.33,1.21,.79,1.63,1.41l.14,.22c-.71,1.82-2.73,2.52-4.52,2.33-.54-.06-1.06-.18-1.56-.35,.53-.02,1.05-.03,1.56-.09,.97-.13,1.94-.4,2.7-1.01,.34-.28,.67-.68,.81-1l.04,.44c-.31-.41-.74-.8-1.2-1.05,0,0,.09,.04,.09,.04-1.51-.28-3.16,.1-4.7,.28,0,0,.13-.17,.13-.17-.04,.4-.08,.79-.14,1.19h0Z">
</path>
<path d="M37.59,46.85c2.26,.55,.93,2.1,.07,3.3-.34-.29-.72-.58-1.05-.88,0,0,.61-.02,.61-.02-.36,.38-.72,.72-1.16,1-.71,.48-1.61,.64-2.44,.36-.77-.27-1.36-.78-1.9-1.36l.61,.02c-.33,.29-.71,.59-1.06,.88-.47-.73-1.89-2.19-.79-2.93,.27-.19,.56-.29,.85-.37-.25,.17-.49,.36-.67,.57-.16,.21-.26,.36-.11,.6,.26,.46,.68,.91,1.07,1.32l-.55-.03c.3-.32,.63-.66,.95-.97,.79,.76,1.81,1.68,2.99,1.33,.72-.25,1.35-.81,1.9-1.33,.32,.31,.65,.64,.95,.97,0,0-.55,.03-.55,.03,.41-.49,1.05-.99,1.14-1.6-.12-.38-.52-.66-.85-.89h0Z">
</path>
<path class="cls-7" d="M22.43,57.78s.39,6.26,1.89,10.05c4.11,5.15,8.16,7.7,8.16,7.7">
</path>
<path class="cls-7" d="M45.86,57.78s-.39,6.26-1.89,10.05c-4.11,5.15-8.16,7.7-8.16,7.7">
</path>
<path class="cls-7" d="M15.65,57.19s.26,4.5,.65,6.26c2.35,.33,3,.59,3,.59l-2.48,1.96s.72,3.91,5.09,8.09">
</path>
<path class="cls-7" d="M53.4,57.19s-.26,4.5-.65,6.26c-2.35,.33-3,.59-3,.59l2.48,1.96s-.72,3.91-5.09,8.09">
</path>
</g>
<path class="cls-11" d="M21.38,55.34c-3.78,2.66-8.14,4.89-12.58,5.77,3.11-1.49,9.41-4.42,12.55-5.84,0,0,.03,.07,.03,.07h0Z">
</path>
</g>
</g>
 <g
     id="g2850">
    <g
       id="g2837">
      <path
         id="path1951"
         d="M 0.056640625 0.04296875 L 0.056640625 79.943359 L 69.308594 79.943359 L 69.308594 0.04296875 L 0.056640625 0.04296875 z M 33.615234 3.5957031 C 34.206332 3.5957038 34.786991 3.6051034 35.421875 3.6152344 C 44.430653 3.7671809 53.471255 5.1336733 61.560547 7.5546875 L 62.064453 7.7070312 L 62.25 8.1640625 C 66.070247 17.605006 66.990234 28.726438 66.990234 40.0625 C 66.990234 51.398562 65.972723 63.025755 61.988281 72.578125 L 61.791016 73.044922 L 61.275391 73.185547 C 53.273669 75.403966 44.691921 76.529297 35.759766 76.529297 C 35.212453 76.529297 34.675812 76.519896 34.150391 76.509766 L 33.943359 76.509766 C 24.901742 76.357819 15.860367 74.989738 7.7929688 72.558594 L 7.2890625 72.40625 L 7.1035156 71.951172 C 3.2942144 62.520359 2.375 51.369168 2.375 40.0625 C 2.375 28.755832 3.3819737 17.127318 7.3554688 7.5546875 L 7.5527344 7.0898438 L 8.0664062 6.9472656 C 15.509867 4.890923 23.785212 3.7371557 32.005859 3.6054688 C 32.542226 3.5953387 33.078867 3.5957031 33.615234 3.5957031 z "
         style="opacity:1;vector-effect:none;fill:#ffffff;fill-opacity:1;fill-rule:nonzero;stroke:none;stroke-width:1.95200002;stroke-linecap:butt;stroke-linejoin:miter;stroke-miterlimit:4;stroke-dasharray:none;stroke-dashoffset:0;stroke-opacity:1" />
    </g>
    <path
       id="path1154-8-2"
       d="m 33.675163,6.6112954 c 0.557696,0 1.115392,0.00956 1.683415,0.019115 8.427403,0.14336 16.803167,1.4049288 24.363042,3.6700176 3.573384,8.830981 4.443772,19.417362 4.443772,29.761551 0,10.344189 -0.95301,21.39888 -4.68131,30.334991 -7.435942,2.064385 -15.429581,3.274388 -23.774362,3.274388 -0.506058,0 -1.012115,-0.0096 -1.518172,-0.01911 h -0.17557 C 25.56792,73.508883 17.192156,72.088619 9.6426089,69.813973 6.0795528,61.002107 5.2088244,50.415411 5.2088244,40.061979 c 0,-10.353432 0.95335,-21.389323 4.6609939,-30.325434 C 16.820359,7.8155201 24.462856,6.7450981 32.177647,6.6208528 c 0.49573,-0.00956 1.001787,-0.00956 1.497516,-0.00956 m 0,-0.9557337 c -0.506057,0 -1.012114,0 -1.518171,0.00956 C 24.40089,5.7893644 16.593149,6.8789009 9.570315,8.8190405 L 9.0849131,8.9528432 8.8990146,9.3924808 C 5.1500599,18.424166 4.1999116,29.394246 4.1999116,40.061979 c 0,10.667733 0.8675267,21.188618 4.461566,30.0865 l 0.1755708,0.430081 0.4750741,0.14336 c 7.6115135,2.293761 16.1421925,3.584001 24.6728715,3.727361 h 0.196227 c 0.495729,0.0096 1.001786,0.01911 1.518171,0.01911 8.427403,0 16.524318,-1.060864 24.073866,-3.153921 l 0.485403,-0.133802 0.185898,-0.439639 c 3.759282,-9.01257 4.719759,-19.983589 4.719759,-30.679055 0,-10.695466 -0.867528,-21.188618 -4.471894,-30.0960578 L 60.516853,9.5358409 60.041779,9.3924808 C 52.409609,7.108277 43.87893,5.8180364 35.379234,5.6746763 34.780227,5.6651187 34.232859,5.6555621 33.675163,5.6555615 Z"
       style="fill:#ff0000;stroke:#ffffff;stroke-width:1.84341729;stroke-miterlimit:4;stroke-dasharray:none" />
    <path
       id="path1154"
       d="m 33.614853,4.6077955 c 0.591098,0 1.182197,0.01013 1.784241,0.02026 8.932155,0.1519464 17.809578,1.4890758 25.822246,3.8898304 3.787408,9.3599041 4.709928,20.5803481 4.709928,31.5440931 0,10.963745 -1.01009,22.680548 -4.961693,32.151879 -7.881312,2.18803 -16.353723,3.302304 -25.198307,3.302304 -0.536368,0 -1.072735,-0.01013 -1.609102,-0.02026 H 33.97608 C 25.022033,75.343956 16.14461,74.006827 8.1428892,71.595943 4.3664269,62.256298 3.443547,51.035521 3.443547,40.061979 c 0,-10.973542 1.01045,-22.670418 4.9401601,-32.1417498 7.3668369,-2.036083 15.4670749,-3.170617 23.6439369,-3.3023039 0.525421,-0.01013 1.061788,-0.01013 1.587209,-0.01013 m 0,-1.0129766 c -0.536367,0 -1.072734,0 -1.609101,0.01013 C 23.785105,3.7366356 15.509726,4.891429 8.0662653,6.9477716 L 7.5517907,7.0895883 7.3547579,7.5555576 C 3.3812628,17.128188 2.3742062,28.755311 2.3742062,40.061979 c 0,11.306668 0.9194864,22.457692 4.7287876,31.888505 l 0.1860865,0.45584 0.5035283,0.151947 c 8.0673984,2.431144 17.1090154,3.798662 26.1506324,3.950608 h 0.207979 c 0.525421,0.01013 1.061788,0.02026 1.609101,0.02026 8.932155,0 17.514028,-1.124404 25.51575,-3.342823 l 0.514475,-0.141816 0.197032,-0.46597 c 3.984442,-9.55237 5.002445,-21.180489 5.002445,-32.516551 0,-11.336062 -0.919487,-22.457692 -4.739734,-31.8986353 L 62.064202,7.7075041 61.560674,7.5555576 C 53.471382,5.1345434 44.429765,3.7670249 35.420987,3.6150784 c -0.634884,-0.01013 -1.215036,-0.020259 -1.806134,-0.02026 z"
       style="fill:#000000;stroke:#000000;stroke-width:1.95382714;stroke-miterlimit:4;stroke-dasharray:none" />
    <g
       id="g1810">
      <path
         d="M 6.5134911,7.7433673 C 5.6489029,6.8479453 4.058602,6.5681013 3.6272194,7.3820013 3.284151,8.0292783 3.3625296,8.5309135 4.395235,8.9201755 3.2963719,9.5187755 1.4857674,9.4447465 1.1893447,7.4467713 0.95320848,5.8551433 2.674739,4.8863543 3.1399725,5.0916244 3.0034432,3.6818714 1.8221094,4.0692802 0.95849208,3.2813384 0.34259068,2.7194046 0.23126071,-0.02624603 0.0561761,0.04378767 -0.0138576,0.21887227 2.7317937,0.33020157 3.2937267,0.94610377 4.0816685,1.8097211 3.6942598,2.9910547 5.1040128,3.1275841 4.8987425,2.6623507 5.8675315,0.94082017 7.4591593,1.1769564 9.4571345,1.4733791 9.5311625,3.2839847 8.9325635,4.3828467 8.5433008,3.3501417 8.041666,3.2717627 7.3943894,3.6148312 6.5804899,4.0462137 6.8603354,5.6365129 7.7557553,6.5011023"
         style="fill:#000000;stroke:#000000;stroke-width:0.1112323px;stroke-linecap:butt;stroke-linejoin:miter;stroke-opacity:1"
         id="path1737-3" />
      <path
         d="m 62.850738,7.7433673 c 0.864588,-0.895422 2.454889,-1.175266 2.886271,-0.361366 0.343069,0.647277 0.26469,1.148912 -0.768015,1.538174 1.098863,0.5986 2.909467,0.524571 3.20589,-1.473404 0.236136,-1.591628 -1.485394,-2.560417 -1.950628,-2.3551469 0.13653,-1.409753 1.317863,-1.0223442 2.181481,-1.810286 0.615901,-0.5619338 0.727231,-3.30758442 0.902316,-3.23755072 0.07003,0.1750846 -2.675618,0.2864139 -3.237551,0.9023161 C 65.28256,1.8097211 65.669969,2.9910547 64.260216,3.1275841 64.465486,2.6623507 63.496697,0.94082018 61.905069,1.1769564 c -1.997975,0.2964227 -2.072003,2.1070283 -1.473404,3.2058903 0.389263,-1.032705 0.890898,-1.111084 1.538174,-0.7680155 0.8139,0.4313825 0.534054,2.0216817 -0.361366,2.8862711"
         style="fill:#000000;stroke:#000000;stroke-width:0.1112323px;stroke-linecap:butt;stroke-linejoin:miter;stroke-opacity:1"
         id="path1737-3-5" />
      <path
         d="m 62.850738,72.244244 c 0.864588,0.895422 2.454889,1.175266 2.886272,0.361366 0.343068,-0.647277 0.264689,-1.148912 -0.768016,-1.538174 1.098863,-0.5986 2.909468,-0.524571 3.20589,1.473404 0.236137,1.591628 -1.485394,2.560417 -1.950628,2.355147 0.13653,1.409753 1.317864,1.022344 2.181481,1.810286 0.615901,0.561934 0.727231,3.307584 0.902316,3.237551 0.07003,-0.175085 -2.675618,-0.286414 -3.237551,-0.902317 -0.787942,-0.863617 -0.400533,-2.04495 -1.810286,-2.18148 0.20527,0.465234 -0.763519,2.186764 -2.355146,1.950628 -1.997976,-0.296423 -2.072004,-2.107028 -1.473405,-3.20589 0.389263,1.032705 0.890898,1.111084 1.538175,0.768015 0.813899,-0.431382 0.534054,-2.021682 -0.361366,-2.886271"
         style="fill:#000000;stroke:#000000;stroke-width:0.1112323px;stroke-linecap:butt;stroke-linejoin:miter;stroke-opacity:1"
         id="path1737-3-7" />
      <path
         d="M 6.513491,72.244245 C 5.648903,73.139667 4.058602,73.419511 3.62722,72.605611 3.284151,71.958334 3.36253,71.456699 4.395235,71.067437 c -1.098863,-0.5986 -2.909467,-0.524571 -3.20589,1.473404 -0.23613599,1.591628 1.485394,2.560417 1.950628,2.355147 -0.13653,1.409753 -1.317863,1.022344 -2.18148099,1.810286 -0.615901,0.561933 -0.727231,3.307584 -0.902316,3.23755 C -0.01385399,79.76874 2.731794,79.65741 3.293727,79.041508 4.081669,78.177891 3.69426,76.996557 5.104013,76.860028 4.898743,77.325261 5.867532,79.046792 7.45916,78.810656 9.457135,78.514233 9.531163,76.703627 8.932564,75.604765 8.543301,76.63747 8.041666,76.715849 7.39439,76.372781 6.58049,75.941398 6.860336,74.351099 7.755756,73.48651"
         style="fill:#000000;stroke:#000000;stroke-width:0.1112323px;stroke-linecap:butt;stroke-linejoin:miter;stroke-opacity:1"
         id="path1737-3-5-5" />
    </g>
    <path
       id="path1154-9"
       d="m 33.712865,7.4258691 c 0.536813,0 1.07363,0.00933 1.620386,0.01865 8.111875,0.1398689 16.174044,1.3707167 23.450873,3.5806479 3.439594,8.615932 4.277395,18.944521 4.277395,29.036812 0,10.092292 -0.917329,20.877786 -4.506039,29.596289 -7.157536,2.014114 -14.851888,3.03982 -22.884234,3.03982 -0.487111,0 -0.974221,-0.0094 -1.461331,-0.01865 H 34.040918 C 25.909161,72.53957 17.846991,71.308722 10.580105,69.089467 7.1504515,60.492184 6.3123238,50.163289 6.3123238,40.061979 c 0,-10.101311 0.9176558,-20.868461 4.4864832,-29.586965 6.690308,-1.8742449 14.046665,-2.9186005 21.472608,-3.0398203 0.47717,-0.00933 0.964281,-0.00933 1.44145,-0.00933 m 0,-0.9324602 c -0.487111,0 -0.974221,0 -1.46133,0.00933 C 24.785826,6.6239532 17.270413,7.686958 10.510517,9.5798526 L 10.043289,9.710397 9.8643508,10.139328 c -3.6085914,8.811751 -4.5231655,19.514693 -4.5231655,29.922651 0,10.407958 0.8350459,20.672644 4.294522,29.353849 l 0.1689973,0.419608 0.4572874,0.13987 c 7.326533,2.237904 15.537818,3.496724 23.749103,3.636593 h 0.188879 c 0.47717,0.0094 0.96428,0.01865 1.461331,0.01865 8.111875,0 15.905636,-1.035031 23.172525,-3.077119 l 0.467228,-0.130544 0.178938,-0.428932 c 3.618533,-8.793101 4.543048,-19.496959 4.543048,-29.931975 0,-10.435016 -0.835047,-20.672644 -4.304463,-29.363174 l -0.168997,-0.419609 -0.457288,-0.13987 C 51.74588,7.9107484 43.534594,6.6519271 35.353133,6.512058 34.776554,6.502738 34.249678,6.493409 33.712865,6.493409 Z"
       style="fill:#000000;stroke:none;stroke-width:1.78642213;stroke-miterlimit:4;stroke-dasharray:none" />
    <path
       id="path1154-9-3"
       d="m 33.712865,7.4258686 c 0.536813,0 1.07363,0.00933 1.620386,0.01865 8.111875,0.1398689 16.174044,1.3707167 23.450873,3.5806484 3.439594,8.615932 4.277395,18.944521 4.277395,29.036812 0,10.092292 -0.917329,20.877786 -4.506039,29.596288 -7.157536,2.014114 -14.851888,3.03982 -22.884234,3.03982 -0.487111,0 -0.974221,-0.0094 -1.461331,-0.01865 H 34.040918 C 25.909161,72.539569 17.846991,71.308722 10.580105,69.089466 7.1504515,60.492184 6.3123238,50.163288 6.3123238,40.061979 c 0,-10.101312 0.9176558,-20.868461 4.4864832,-29.586965 6.690308,-1.8742454 14.046665,-2.918601 21.472608,-3.0398208 0.47717,-0.00933 0.964281,-0.00933 1.44145,-0.00933 m 0,-0.9324602 c -0.487111,0 -0.974221,0 -1.46133,0.00933 C 24.785826,6.6239527 17.270413,7.6869575 10.510517,9.5798521 L 10.043289,9.7103965 9.8643508,10.139328 C 6.2557594,18.951079 5.3411853,29.65402 5.3411853,40.061979 c 0,10.407958 0.8350459,20.672643 4.294522,29.353849 l 0.1689973,0.419608 0.4572874,0.13987 c 7.326533,2.237904 15.537818,3.496724 23.749103,3.636593 h 0.188879 c 0.47717,0.0094 0.96428,0.01865 1.461331,0.01865 8.111875,0 15.905636,-1.035032 23.172525,-3.077119 l 0.467228,-0.130544 0.178938,-0.428932 c 3.618533,-8.793101 4.543048,-19.49696 4.543048,-29.931975 0,-10.435016 -0.835047,-20.672644 -4.304463,-29.363175 l -0.168997,-0.419609 -0.457288,-0.13987 C 51.74588,7.9107479 43.534594,6.6519266 35.353133,6.5120575 34.776554,6.5027375 34.249678,6.4934085 33.712865,6.4934085 Z"
       style="fill:#000000;stroke:none;stroke-width:1.78642213;stroke-miterlimit:4;stroke-dasharray:none" />
  </g>
</svg>
