<svg id="Capa_2" xmlns="http://www.w3.org/2000/svg" xmlns:xlink="http://www.w3.org/1999/xlink" viewBox="0 0 69.02 80">
<defs >
<style >
.cls-1{fill:#c89aed;}.cls-2{fill:#fff;}.cls-3{fill:#f8ffbf;}.cls-4{fill:#7b7be8;}.cls-5{fill:#a88347;}.cls-6{fill:#782ab5;}.cls-7,.cls-8,.cls-9,.cls-10,.cls-11,.cls-12{fill:none;}.cls-7,.cls-8,.cls-12{stroke:#000;stroke-miterlimit:10;}.cls-8,.cls-9,.cls-12{stroke-linecap:round;}.cls-9{stroke:#deb778;stroke-dasharray:0 0 0 4.06;stroke-linejoin:round;}.cls-13{fill:url(#USGS_19_Inundación_de_tierra);}.cls-14{fill:#deb778;}.cls-11{stroke:#1d1d1b;stroke-dasharray:0 0 2 2;stroke-width:.3px;}.cls-15{fill:#cf5f2b;}.cls-12{stroke-width:.75px;}.cls-16{fill:#fcf0c5;}.cls-17{fill:#b83521;}
</style>
<pattern id="USGS_19_Inundación_de_tierra" x="0" y="0" width="72" height="72" patternTransform="translate(-380.48 -16063) rotate(-90)" patternUnits="userSpaceOnUse" viewBox="0 0 72 72">
<g >
<rect class="cls-10" width="72" height="72">
</rect>
<g >
<line class="cls-11" x1="71" y1="71" x2="144.44" y2="71">
</line>
<line class="cls-11" x1="71" y1="67" x2="144.44" y2="67">
</line>
<line class="cls-11" x1="71" y1="63" x2="144.44" y2="63">
</line>
<line class="cls-11" x1="71" y1="59" x2="144.44" y2="59">
</line>
<line class="cls-11" x1="71" y1="55" x2="144.44" y2="55">
</line>
<line class="cls-11" x1="71" y1="51" x2="144.44" y2="51">
</line>
<line class="cls-11" x1="71" y1="47" x2="144.44" y2="47">
</line>
<line class="cls-11" x1="71" y1="43" x2="144.44" y2="43">
</line>
<line class="cls-11" x1="71" y1="39" x2="144.44" y2="39">
</line>
<line class="cls-11" x1="71" y1="35" x2="144.44" y2="35">
</line>
<line class="cls-11" x1="71" y1="31" x2="144.44" y2="31">
</line>
<line class="cls-11" x1="71" y1="27" x2="144.44" y2="27">
</line>
<line class="cls-11" x1="71" y1="23" x2="144.44" y2="23">
</line>
<line class="cls-11" x1="71" y1="19" x2="144.44" y2="19">
</line>
<line class="cls-11" x1="71" y1="15" x2="144.44" y2="15">
</line>
<line class="cls-11" x1="71" y1="11" x2="144.44" y2="11">
</line>
<line class="cls-11" x1="71" y1="7" x2="144.44" y2="7">
</line>
<line class="cls-11" x1="71" y1="3" x2="144.44" y2="3">
</line>
</g>
<g >
<line class="cls-11" x1="-1" y1="71" x2="72.44" y2="71">
</line>
<line class="cls-11" x1="-1" y1="67" x2="72.44" y2="67">
</line>
<line class="cls-11" x1="-1" y1="63" x2="72.44" y2="63">
</line>
<line class="cls-11" x1="-1" y1="59" x2="72.44" y2="59">
</line>
<line class="cls-11" x1="-1" y1="55" x2="72.44" y2="55">
</line>
<line class="cls-11" x1="-1" y1="51" x2="72.44" y2="51">
</line>
<line class="cls-11" x1="-1" y1="47" x2="72.44" y2="47">
</line>
<line class="cls-11" x1="-1" y1="43" x2="72.44" y2="43">
</line>
<line class="cls-11" x1="-1" y1="39" x2="72.44" y2="39">
</line>
<line class="cls-11" x1="-1" y1="35" x2="72.44" y2="35">
</line>
<line class="cls-11" x1="-1" y1="31" x2="72.44" y2="31">
</line>
<line class="cls-11" x1="-1" y1="27" x2="72.44" y2="27">
</line>
<line class="cls-11" x1="-1" y1="23" x2="72.44" y2="23">
</line>
<line class="cls-11" x1="-1" y1="19" x2="72.44" y2="19">
</line>
<line class="cls-11" x1="-1" y1="15" x2="72.44" y2="15">
</line>
<line class="cls-11" x1="-1" y1="11" x2="72.44" y2="11">
</line>
<line class="cls-11" x1="-1" y1="7" x2="72.44" y2="7">
</line>
<line class="cls-11" x1="-1" y1="3" x2="72.44" y2="3">
</line>
<line class="cls-11" x1="1.04" y1="69" x2="74.48" y2="69">
</line>
<line class="cls-11" x1="1.04" y1="65" x2="74.48" y2="65">
</line>
<line class="cls-11" x1="1.04" y1="61" x2="74.48" y2="61">
</line>
<line class="cls-11" x1="1.04" y1="57" x2="74.48" y2="57">
</line>
<line class="cls-11" x1="1.04" y1="53" x2="74.48" y2="53">
</line>
<line class="cls-11" x1="1.04" y1="49" x2="74.48" y2="49">
</line>
<line class="cls-11" x1="1.04" y1="45" x2="74.48" y2="45">
</line>
<line class="cls-11" x1="1.04" y1="41" x2="74.48" y2="41">
</line>
<line class="cls-11" x1="1.04" y1="37" x2="74.48" y2="37">
</line>
<line class="cls-11" x1="1.04" y1="33" x2="74.48" y2="33">
</line>
<line class="cls-11" x1="1.04" y1="29" x2="74.48" y2="29">
</line>
<line class="cls-11" x1="1.04" y1="25" x2="74.48" y2="25">
</line>
<line class="cls-11" x1="1.04" y1="21" x2="74.48" y2="21">
</line>
<line class="cls-11" x1="1.04" y1="17" x2="74.48" y2="17">
</line>
<line class="cls-11" x1="1.04" y1="13" x2="74.48" y2="13">
</line>
<line class="cls-11" x1="1.04" y1="9" x2="74.48" y2="9">
</line>
<line class="cls-11" x1="1.04" y1="5" x2="74.48" y2="5">
</line>
<line class="cls-11" x1="1.04" y1="1" x2="74.48" y2="1">
</line>
</g>
<g >
<line class="cls-11" x1="-73" y1="71" x2=".44" y2="71">
</line>
<line class="cls-11" x1="-73" y1="67" x2=".44" y2="67">
</line>
<line class="cls-11" x1="-73" y1="63" x2=".44" y2="63">
</line>
<line class="cls-11" x1="-73" y1="59" x2=".44" y2="59">
</line>
<line class="cls-11" x1="-73" y1="55" x2=".44" y2="55">
</line>
<line class="cls-11" x1="-73" y1="51" x2=".44" y2="51">
</line>
<line class="cls-11" x1="-73" y1="47" x2=".44" y2="47">
</line>
<line class="cls-11" x1="-73" y1="43" x2=".44" y2="43">
</line>
<line class="cls-11" x1="-73" y1="39" x2=".44" y2="39">
</line>
<line class="cls-11" x1="-73" y1="35" x2=".44" y2="35">
</line>
<line class="cls-11" x1="-73" y1="31" x2=".44" y2="31">
</line>
<line class="cls-11" x1="-73" y1="27" x2=".44" y2="27">
</line>
<line class="cls-11" x1="-73" y1="23" x2=".44" y2="23">
</line>
<line class="cls-11" x1="-73" y1="19" x2=".44" y2="19">
</line>
<line class="cls-11" x1="-73" y1="15" x2=".44" y2="15">
</line>
<line class="cls-11" x1="-73" y1="11" x2=".44" y2="11">
</line>
<line class="cls-11" x1="-73" y1="7" x2=".44" y2="7">
</line>
<line class="cls-11" x1="-73" y1="3" x2=".44" y2="3">
</line>
<line class="cls-11" x1="-70.96" y1="69" x2="2.48" y2="69">
</line>
<line class="cls-11" x1="-70.96" y1="65" x2="2.48" y2="65">
</line>
<line class="cls-11" x1="-70.96" y1="61" x2="2.48" y2="61">
</line>
<line class="cls-11" x1="-70.96" y1="57" x2="2.48" y2="57">
</line>
<line class="cls-11" x1="-70.96" y1="53" x2="2.48" y2="53">
</line>
<line class="cls-11" x1="-70.96" y1="49" x2="2.48" y2="49">
</line>
<line class="cls-11" x1="-70.96" y1="45" x2="2.48" y2="45">
</line>
<line class="cls-11" x1="-70.96" y1="41" x2="2.48" y2="41">
</line>
<line class="cls-11" x1="-70.96" y1="37" x2="2.48" y2="37">
</line>
<line class="cls-11" x1="-70.96" y1="33" x2="2.48" y2="33">
</line>
<line class="cls-11" x1="-70.96" y1="29" x2="2.48" y2="29">
</line>
<line class="cls-11" x1="-70.96" y1="25" x2="2.48" y2="25">
</line>
<line class="cls-11" x1="-70.96" y1="21" x2="2.48" y2="21">
</line>
<line class="cls-11" x1="-70.96" y1="17" x2="2.48" y2="17">
</line>
<line class="cls-11" x1="-70.96" y1="13" x2="2.48" y2="13">
</line>
<line class="cls-11" x1="-70.96" y1="9" x2="2.48" y2="9">
</line>
<line class="cls-11" x1="-70.96" y1="5" x2="2.48" y2="5">
</line>
<line class="cls-11" x1="-70.96" y1="1" x2="2.48" y2="1">
</line>
</g>
</g>
</pattern>
</defs>

<g id="Characters">
<g >
<path class="cls-1" d="M61.44,60.75l-2.45,10.93s-1.41,1.13-15.54,3.01c-14.13,1.89-32.22-2.35-32.22-2.35,0,0-2.35-3.49-3.96-12.06,3.72-2.81,8.58-1.97,8.95-1.91-.07-.06-.48-.36-2.63-1.96,6.31-1.97,11.87,1.7,11.87,1.7l.37-2.92-5.37-7.54-2.26-.28s-.85-1.32-2.73-3.77-.47-5.37-.47-5.37c0,0-3.02-1.6-2.17-4.71,.47,1.04,2.73,1.6,2.73,1.6,0,0,.29-.75-.09-4.42,1.98,.47,3.67,2.82,3.67,2.82l.25-.3,.6-.73s-.04-.11-.1-.31c-.02-.04-.03-.08-.05-.12,0-.01-.01-.02-.01-.03-.41-1.2-1.54-4.44-2.38-5.95-1.04-1.88-1.79-3.86,3.11-8.57-.94-2.08-2.07-4.15,.47-8.1-.19,1.6,1.98,3.1,3.3,2.73,1.31-.38,5.46-2.55,9.98-2.08,7.82-2.16,11.4,2.45,11.4,2.45l.47,4.06s2.64,2.63,3.02,4.42c.37,1.79-3.21,3.68-3.21,3.68,0,0,.13,.03,.43,.31,.22,.2,.55,.54,.99,1.1,1.41,2.17,1.03,5.84,2.73,8.95,1.32-2.17,5.37-4.33,5.37-4.33l.75,11.58-2.82,5-2.45,.28c-.85,1.98-5.47,8.57-5.47,8.57,0,0,0,.66,.57,3.11,6.5-3.2,10.83-1.13,10.83-1.13,0,0-.75,.19-1.69,1.32,3.2-.47,6.21,1.32,6.21,1.32Z">
</path>
<path class="cls-4" d="M28.27,38.45s-3.47,.23-6.3,2.83c.52-3.06,3.01-4.51,3.01-4.51l3.29-.75v2.43Z">
</path>
<path class="cls-2" d="M25.64,57.84s-6.46-3.12-11.81-1.46c2.36,1.81,2.39,1.99,2.39,1.99,0,0-5.51-.44-8.95,1.91,1.35,7.84,3.3,11.24,3.3,11.24,0,0,18.61,3.75,24.44,3.4-3.26-4.72-7.36-6.18-7.36-6.18l4.03-.42s-3.12-3.82-7.29-3.96c.62-4.17,1.25-6.53,1.25-6.53Z">
</path>
<path class="cls-3" d="M28.14,38.69s-2.53-.04-4.54,1.91c3.29-.24,5.07,1.45,6.17,.6-.18-2.01-1.63-2.51-1.63-2.51Z">
</path>
<path class="cls-2" d="M34.98,26.63V61.6l5.46-.67s11.71-9.88,11.8-19.36c-2.86-8.76-3.22-11-3.76-13.24s-3.04-5.01-7.69-4.65-5.81,2.95-5.81,2.95Z">
</path>
<path class="cls-3" d="M39.06,39.11s.65,2,3.72,1.86c2.97-.37,4.74-.56,4.74-.56,0,0-2.88-3.39-8.45-1.3Z">
</path>
<path d="M40.44,60.92l-8.34,10.45-4.17-2.89,3.4-.64s-3.14-3.85-7.18-3.53c1.28-4.81,1.86-8.85,1.86-8.85l5.64,5.64s6.73,.58,8.78-.19Z">
</path>
<path d="M19.35,33.05l-3.73-2.18s.58,3.58,0,4.94c3.92-.44,3.73-2.76,3.73-2.76Z">
</path>
<path d="M15.04,37.89s-1.49,2.33-.53,4.02,3.2,5.18,3.2,5.18l2.32,.19s-1.65-4.75-.92-7.94c-2.62-1.21-4.07-1.45-4.07-1.45Z">
</path>
<path d="M22.44,68.72c2.6-1.79,5.2-1.73,5.2-1.73,0,0-3.24-1.56-8.15-.98,.75-2.72,3.93-3.24,5.09-3.24,.29-2.2,.46-3.93,.46-3.93,0,0-3.99-1.04-7.63-1.44,2.6,1.91,3.53,3.12,3.53,3.12,0,0-8.67-1.73-13.47,1.96,1.68,6.88,2.89,9.71,2.89,9.71l21.84,2.54s-7.05-5.84-9.77-6.01Z">
</path>
<path class="cls-2" d="M56.46,57.96s-4.78,0-8.31,2.23c0,.03,0,.06,0,.09,.2,2.35,1.71,4.38,3.89,5.29l7.36,3.06,2.03-7.88s-2.95-1.88-6.22-1.55c1.31-.85,1.24-1.24,1.24-1.24Z">
</path>
<polygon class="cls-2" points="45.36 66.52 50.28 67.86 35.07 72.15 45.36 66.52">
</polygon>
<path class="cls-2" d="M41.78,74.03c-.27,.01,10.02-4.56,10.02-4.56l5.99,2.41s-12.43,1.97-16.01,2.15Z">
</path>
<path class="cls-1" d="M37.76,25.4c3.74,0,6.2,.73,7,1,.47,.49,1.66,1.92,1.88,4.16,.2,2.04,1.14,4.39,2.04,6.67,.63,1.6,1.59,4.02,1.48,4.74-.02,.12-.04,.26-.06,.41-.32,2.34-1.18,8.51-10.95,16.71-1.44,.3-2.84,.45-4.17,.45-.95,0-1.86-.08-2.72-.23-3.17-3.21-7.74-8.61-9.6-11.71-2.2-3.64-1.43-7.45-1.42-7.47l.02-.08v-.08c.08-.51,.15-1.01,.22-1.49,1.08-7.93,1.45-10.6,9.24-12.28,2.41-.52,4.78-.78,7.04-.78m2.28,35.54v2.01s0-2.01,0-2.01m-2.28-37.54c-2.13,0-4.63,.22-7.47,.83-9.71,2.09-9.73,6.35-11,15.45,0,0-1.02,4.52,1.66,8.95,2.07,3.44,7.1,9.33,10.33,12.52,1.03,.23,2.26,.39,3.7,.39s3.16-.17,5.06-.6h.01c11.31-9.33,11.75-16.43,12.09-18.67,.36-2.4-3.14-8.22-3.51-11.91s-2.79-5.69-2.79-5.69c0,0-2.93-1.27-8.08-1.27h0Z">
</path>
<path class="cls-4" d="M38.86,28.42s4.91-1.22,7.03,.9,2.41,6,4.68,8.92c-2.34-6.51-1.46-8.27-2.71-10.68s-2.85-4.17-5.34-3.66-3.67,4.52-3.67,4.52Z">
</path>
<path class="cls-17" d="M45.99,24.67s.13,.03,.43,.31h-.29s-2.14-2.3-4.51-1-2.76,4.44-2.76,4.44c0,0,3.06,2.07,.31,4.74,.08-3.13-2.83-4.43-4.36-4.13-1.53,.31-4.82,1.38-5.89,6.12,2.52,4.75,1.83,8.19,1.83,8.19,0,0-2.52-5.74-5.74-7.04-3.06,3.37-5.74,3.44-7.73,2.83-1.99-.61-4.74-2.22-4.2-5.2,1.91,2.25,4.97,1.35,6.31-.71,.21-.32,.38-.67,.5-1.04h0s-.03-.08-.05-.12c0-.01-.01-.02-.01-.03-.41-1.2-1.54-4.44-2.38-5.95-1.04-1.88-1.79-3.86,3.11-8.57-.94-2.08-2.07-4.15,.47-8.1-.19,1.6,1.98,3.1,3.3,2.73,1.31-.38,5.46-2.55,9.98-2.08,7.82-2.16,11.4,2.45,11.4,2.45l.47,4.06s2.64,2.63,3.02,4.42c.37,1.79-3.21,3.68-3.21,3.68Z">
</path>
<path class="cls-15" d="M45.14,13.12s-14.83-.64-18.94,7.25-.08,11.37,3.71,11.45c.97-1.77,5.16-2.5,5.16-2.5,0,0-8.38-.08-5-6.13s12.25-5.16,14.35-2.82c2.1-4.19,.73-7.25,.73-7.25Z">
</path>
<path d="M17.97,26.93s3.53,3,3.86,5.57c1.02-1.39,2.95-1.55,2.95-1.55l-.16,4.66,.4,.69s-1.31,3-5.38,3.54-7.76-3.75-7.01-6.48c1.93,3,5.44,3.08,7.38-.87-2.4-2.93-2.02-5.56-2.02-5.56Z">
</path>
<path d="M25.89,11.94s-2.4,1.88-3.08,2.46c3.61-.16,6.06,1.36,6.06,1.36,0,0-5.96,.78-8.68,1.93-1.31-4.23-.63-6.79,1.15-8.21,.31,2.3,0,3.82,4.55,2.46Z">
</path>
<path d="M25,35.82s2.2-1.41,4.13-.21c2.82,3.55,1.83,7.37,1.83,7.37,0,0-2.25-4.6-5.96-7.16Z">
</path>
<path class="cls-2" d="M27.9,21.76s8.03-8.41,17.34-3.1c.76-2.57,.63-3.21,.63-3.21,0,0-10.78-4.44-17.97,6.32Z">
</path>
<path class="cls-4" d="M38.45,38.91s3.99-3.58,5.26-4.05c3.35,1.1,6.13,2.95,5.32,6.53-3.06-2.6-5.61-3.99-10.58-2.49Z">
</path>
<path class="cls-2" d="M28.99,42.72s-4.24-1.65-6.83-.39c3.25,.44,6.83,.39,6.83,.39Z">
</path>
<path class="cls-2" d="M51.76,33.59l2.03-.52s1.51,5.83,1.18,8.12-.85,4.58-.85,4.58l2.1-4.12-.92-11.06s-2.62,1.7-3.54,3.01Z">
</path>
<path class="cls-17" d="M23.4,52.03s.98-2.41,2.71-3.65c-1.09,2.18-1.43,5.3-1.43,5.3l-1.28-1.65Z">
</path>
<path class="cls-17" d="M21,48.08s2.37-3.31,5.53-4.32c-2.97,2.52-4.17,6.88-4.17,6.88l-1.35-2.56Z">
</path>
<path class="cls-17" d="M45.75,58.08s-1.81,2.24-4.19,3.33c3.09-1,4.47-1.76,4.47-1.76l-.29-1.57Z">
</path>
<path class="cls-17" d="M46.08,60.56s-4.66,3.62-7.76,5.24c4.52-1.57,8.09-3.62,8.09-3.62l-.33-1.62Z">
</path>
<path d="M48.32,37.6l-1.38-.74c-1.01-.56-2.19-.82-3.34-.8-2.55,.6-3.73,2.1-5.47,3.37-1.8-.73-2.43-1.92-1.9-3.84,.13-.55,.34-1.08,.64-1.54-.3,1.14-.25,2.34,.2,3.32,1.65-1.51,3.5-2.73,5.48-3.79,2.48,.33,4.22,2.25,5.77,4.02Z">
</path>
<path class="cls-12" d="M27.8,38.72s-2.04-.41-4.7,1.96c2.53-.74,4.33,.82,6.33,.53">
</path>
<path class="cls-12" d="M38.94,39.17s4.84-2.29,8.94,1.55c-2.03-.67-3.33,.41-5.88,.26s-3.07-1.81-3.07-1.81Z">
</path>
<path d="M37.43,40.17c-.1,1.33-.16,2.62-.47,3.93,0,0-.09-.29-.09-.29,.65,.41,1.3,.85,1.89,1.38-.25,.33-.88,1.14-1.13,1.47-.17-.11-1.17-.74-1.36-.86,0,0,.4,0,.4,0-.15,.1-1.14,.76-1.26,.85-.11-.08-1.13-.75-1.27-.84,0,0,.4,0,.4,0l-1.08,.69-.27,.18-.19-.25c-.15-.19-.83-1.07-.97-1.24,.62-.47,1.28-.92,1.91-1.36,0,0-.09,.29-.09,.29-.29-1.31-.37-2.6-.47-3.93,0,0,.46,1.9,.46,1.9,.16,.6,.31,1.46,.53,2.02-.56,.46-1.1,.94-1.66,1.38,0,0,.03-.45,.03-.45l.8,.94-.47-.07c.15-.1,1.14-.77,1.26-.84,.11,.07,1.14,.73,1.28,.82,0,0-.41,0-.41,0,.15-.09,1.15-.75,1.27-.82,.11,.08,1.13,.75,1.27,.84,0,0-.46,.07-.46,.07l.79-.94,.03,.44c-.51-.47-1.09-.95-1.67-1.37,.38-1.08,.69-2.8,1-3.93h0Z">
</path>
<path d="M27.55,47.84s.66,.73,2.87,.35,5.33-.73,6.85-.38,4.53,.73,5.61,.31c-.52,2.42-2.49,5.43-4.19,6.51s-3.81,1.04-3.81,1.04c0,0-3.15-.83-4.95-2.87s-2.35-3.81-2.39-4.95Z">
</path>
<path d="M32.35,39.83c-.17,.06-.12,.08-.28-.03-.58-.42-1.16-.85-1.72-1.28-.65-1.22-1.49-3.04-1.53-4.45,1.78,1.1,3.45,2.37,4.84,3.91,.69-1.09,.73-2.48,.36-3.93,1.21,1.93,.89,5.19-1.67,5.78Z">
</path>
<path class="cls-17" d="M37.54,52.68c-.79,.1-1.61,.44-2.17,.72-.56-.28-1.38-.62-2.17-.72-1.36-.17-2.07,.85-2.07,.85,.24,1.25,3.46,2.03,3.46,2.03l.78-.04,.78,.04s3.22-.78,3.46-2.03c0,0-.71-1.02-2.07-.85Z">
</path>
<path class="cls-2" d="M28.67,48.32s.44,1.95,1.99,3.18c.64-1.11,.83-1.35,.83-1.35,0,0,3.58,1.19,7.95-.04,.6,1.07,.83,1.47,.83,1.47,0,0,1.67-1.67,2.03-3.34-2.58-.16-5.29-.28-7.43-.44s-6.2,.52-6.2,.52Z">
</path>
<path class="cls-17" d="M41.39,51.86s-1.47,3.97-3.26,5.17c-1.55,.91-2.9,.76-2.9,.76,0,0-1.35,.16-2.9-.76-1.79-1.19-3.26-5.17-3.26-5.17,0,0,2.39,3.64,6.16,3.81,2.9,.05,6.16-3.81,6.16-3.81Z">
</path>
<path d="M34.86,26.79c-5.35-4.33-10.63,3.74-9.95,8.77,0,0-.26-.43-.26-.43,2.4,1.45,4.3,3.62,5.63,6.08,.44,.82,.82,1.65,1.13,2.57l-1.05-.1c.91-2.85-.75-6.01-2.3-8.38,0,0-.13-.21-.13-.21l.04-.23c.44-4.46,5.26-7.74,9.54-5.97,1.79,1.15,2.5,3.69,1.29,5.55,0,0-.88-.83-.88-.83,2.56-2.03,2.59-3.73-.15-5.45,.84-1.63,1.74-3.28,3.33-4.34,.91-.64,2.27-.83,3.33-.35,.36,.14,1.26,.53,1.63,.68,0,0-.44,0-.44,0,1.21-.6,3.13-1.66,2.84-3.19-.29-1.56-1.45-3.05-2.71-3.97-.23-.16-.28-.47-.12-.7,.16-.22,.47-.28,.69-.12,.81,.56,1.44,1.23,2,1.99,2.38,3.19,1.08,5.46-2.25,7.02,0,0-.21,.1-.21,.1l-.23-.09c-.37-.15-1.28-.51-1.63-.66-.76-.32-1.55-.21-2.26,.27-1.18,.81-1.97,2.17-2.65,3.44,0,0-.19-.77-.19-.77,3.18,2.07,2.56,4.99-.22,7.08,0,0-3.23,2.59-3.23,2.59l2.34-3.42c.79-1.18,.27-3.07-.95-3.81-1.19-.52-3.66-.25-4.98,.68-1.52,.94-2.41,2.63-2.7,4.45l-.1-.44,.66,1.04c1.43,2.53,2.75,5.63,1.65,8.54,0,0-.59,1.33-.59,1.33-.61-2.11-1.53-4.24-2.89-5.99-1.08-1.48-2.48-2.7-4.03-3.66-.2-3.13,.68-6.46,2.94-8.74,2.15-2.35,5.98-3.24,8.06-.35h0Z">
</path>
<path d="M25.32,36.33c-1.87,3.59-6.57,4.75-9.95,2.54-1.97-1.16-4.01-3.47-2.89-5.91,0,0,.43-.88,.43-.88l.46,.91c1.96,3.63,4.35,2,6.11-.75,0,0-.04,.46-.04,.46-1.29-3.68-3.92-7.86-2.62-11.92,3.51-6.41,12.85-6.41,18.82-3.88,1.06,.76,1.82,1.95,2.18,3.19,.37,1.19,.45,2.45,.17,3.62-.2-2.23-1.85-4.69-2.78-5.91-5.47-2.32-14.17-2.4-17.46,3.36-.44,1.11-.36,2.4-.07,3.66,.62,2.62,1.76,5.19,2.79,7.75-2.24,3.58-5.51,5.35-8,.83,0,0,.89,.04,.89,.04-.51,1.09,.1,2.47,.96,3.31,1.81,1.91,4.84,2.9,7.29,1.76,1.21-.53,2.17-1.55,2.86-2.71,.34-.56,1.19-.05,.86,.51h0Z">
</path>
<path d="M20.13,18c-2.8-3.28-.76-7.83,1.92-10.5-.02,1.03-.14,2.37,.18,3.35,.43,1.54,1.39,1.15,2.61,.54,3.39-1.42,7.17-2.26,10.84-1.43,3.47,1.61,6.06,7.78,5.11,11.4,0,0-.82-3.02-.82-3.02-.77-2.76-1.99-6-4.71-7.31-2.13-.44-5.56-.12-8,.72-1.56,.35-2.49,1.37-4.29,1.3-1.87-.38-2.04-2.67-1.95-4.2,0,0,.87,.37,.87,.37-.95,1.13-1.72,2.57-2.02,4.03-.29,1.48,.09,2.95,1.03,4.11,.45,.51-.35,1.18-.77,.64h0Z">
</path>
<path d="M42.91,22.11c2-2.58,3-5.83,2.26-9.05,0,0,.1,.2,.1,.2-1.35-1.61-3.22-2.73-5.29-3.12-2.07-.4-4.27-.18-6.28,.47-.26,.08-.54-.06-.63-.32-.08-.26,.06-.54,.32-.63,3.24-1.04,7.01-1.07,10.01,.72,1.04,.61,1.94,1.42,2.71,2.34,1,3.36-.13,7.51-3.21,9.39h0Z">
</path>
<path class="cls-8" d="M19.29,39.68s-1.02,4.52,1.66,8.95c2.07,3.44,7.1,9.33,10.33,12.52,2.08,.46,5.01,.64,8.76-.21h.01c11.31-9.33,11.75-16.43,12.09-18.67,.36-2.4-3.14-8.22-3.51-11.91s-2.79-5.69-2.79-5.69">
</path>
<path class="cls-8" d="M19.39,33.22s-2.21-2.11-3.86-2.67c.28,2.94-.18,4.69-.18,4.69">
</path>
<path class="cls-8" d="M14.88,38.27s-.83,2.48,0,4.23,3.13,4.69,3.13,4.69c0,0,1.1,.46,2.21,.37">
</path>
<path class="cls-8" d="M50.99,47.56c1.1,.09,1.96-.37,1.96-.37,0,0,2.3-2.94,3.13-4.69s-.92-9.01-.64-11.95c-1.66,.55-4.72,3.25-5.22,4.44">
</path>
<line class="cls-8" x1="25.92" y1="55.31" x2="24.32" y2="64.26">
</line>
<polyline class="cls-8" points="45.49 56.11 47.09 65.06 59.62 70.37">
</polyline>
<path class="cls-8" d="M25.37,57.99s-6.37-3.48-11.81-1.77c1.96,1.44,2.68,2.16,2.68,2.16,0,0-4.65-.92-9.17,2.1">
</path>
<path class="cls-8" d="M46.23,59.1s6.02-2.88,11-1.18c-1.96,.98-2.62,1.44-2.62,1.44,0,0,4.65-.72,7.53,2.1">
</path>
<path d="M20.75,65.22c3.77-2.74,8.79-.39,11.45,2.84,0,0,1.3,1.35,1.3,1.35-1.91-.42-4.23-1.07-6.09-.29,0,0-.07-1.08-.07-1.08,1.7,.77,3.27,1.67,4.74,2.81,1.42,1.15,2.8,2.54,3.45,4.41,.09,.26-.05,.55-.31,.64-.25,.09-.52-.04-.63-.28-1.58-3.5-5.52-5.51-8.91-6.98,0,0,1.12-.57,1.12-.57,1.64-.77,3.41-.58,5.09-.2,0,0-.57,.94-.57,.94-2.51-3.19-6.54-4.75-10.56-3.59h0Z">
</path>
<path d="M38.42,72.93c1.5-1.27,3.37-1.54,5.17-2.11,1.79-.51,3.59-.94,5.44-1.26-1.69,.81-3.42,1.49-5.17,2.11-1.8,.57-3.47,1.43-5.44,1.26h0Z">
</path>
<path d="M43.48,47.8c-1.05,.96-2.75,.76-4.01,.57-1.32-.11-2.68-.14-4-.07-1.32-.06-2.68-.04-4,.08-1.26,.18-2.96,.39-4.01-.58,1.32,.59,2.55,.12,3.89-.2,1.29-.28,2.98-.35,4.09-.3,1.4-.04,2.77,.02,4.14,.31,1.34,.31,2.58,.78,3.89,.19h0Z">
</path>
<path d="M42.96,48.01c-.72,3.96-3.5,7.69-7.73,8.17-2.01-.34-4.06-1.22-5.3-2.87-1.25-1.54-2.04-3.39-2.44-5.3,.77,1.77,1.75,3.44,3.02,4.78,1.12,1.43,3.64,2.16,4.63,2.38,3.91-.44,6.38-3.71,7.82-7.17h0Z">
</path>
</g>
</g>
 <g
     id="g2850">
    <g
       id="g2837">
      <path
         id="path1951"
         d="M 0.056640625 0.04296875 L 0.056640625 79.943359 L 69.308594 79.943359 L 69.308594 0.04296875 L 0.056640625 0.04296875 z M 33.615234 3.5957031 C 34.206332 3.5957038 34.786991 3.6051034 35.421875 3.6152344 C 44.430653 3.7671809 53.471255 5.1336733 61.560547 7.5546875 L 62.064453 7.7070312 L 62.25 8.1640625 C 66.070247 17.605006 66.990234 28.726438 66.990234 40.0625 C 66.990234 51.398562 65.972723 63.025755 61.988281 72.578125 L 61.791016 73.044922 L 61.275391 73.185547 C 53.273669 75.403966 44.691921 76.529297 35.759766 76.529297 C 35.212453 76.529297 34.675812 76.519896 34.150391 76.509766 L 33.943359 76.509766 C 24.901742 76.357819 15.860367 74.989738 7.7929688 72.558594 L 7.2890625 72.40625 L 7.1035156 71.951172 C 3.2942144 62.520359 2.375 51.369168 2.375 40.0625 C 2.375 28.755832 3.3819737 17.127318 7.3554688 7.5546875 L 7.5527344 7.0898438 L 8.0664062 6.9472656 C 15.509867 4.890923 23.785212 3.7371557 32.005859 3.6054688 C 32.542226 3.5953387 33.078867 3.5957031 33.615234 3.5957031 z "
         style="opacity:1;vector-effect:none;fill:#ffffff;fill-opacity:1;fill-rule:nonzero;stroke:none;stroke-width:1.95200002;stroke-linecap:butt;stroke-linejoin:miter;stroke-miterlimit:4;stroke-dasharray:none;stroke-dashoffset:0;stroke-opacity:1" />
    </g>
    <path
       id="path1154-8-2"
       d="m 33.675163,6.6112954 c 0.557696,0 1.115392,0.00956 1.683415,0.019115 8.427403,0.14336 16.803167,1.4049288 24.363042,3.6700176 3.573384,8.830981 4.443772,19.417362 4.443772,29.761551 0,10.344189 -0.95301,21.39888 -4.68131,30.334991 -7.435942,2.064385 -15.429581,3.274388 -23.774362,3.274388 -0.506058,0 -1.012115,-0.0096 -1.518172,-0.01911 h -0.17557 C 25.56792,73.508883 17.192156,72.088619 9.6426089,69.813973 6.0795528,61.002107 5.2088244,50.415411 5.2088244,40.061979 c 0,-10.353432 0.95335,-21.389323 4.6609939,-30.325434 C 16.820359,7.8155201 24.462856,6.7450981 32.177647,6.6208528 c 0.49573,-0.00956 1.001787,-0.00956 1.497516,-0.00956 m 0,-0.9557337 c -0.506057,0 -1.012114,0 -1.518171,0.00956 C 24.40089,5.7893644 16.593149,6.8789009 9.570315,8.8190405 L 9.0849131,8.9528432 8.8990146,9.3924808 C 5.1500599,18.424166 4.1999116,29.394246 4.1999116,40.061979 c 0,10.667733 0.8675267,21.188618 4.461566,30.0865 l 0.1755708,0.430081 0.4750741,0.14336 c 7.6115135,2.293761 16.1421925,3.584001 24.6728715,3.727361 h 0.196227 c 0.495729,0.0096 1.001786,0.01911 1.518171,0.01911 8.427403,0 16.524318,-1.060864 24.073866,-3.153921 l 0.485403,-0.133802 0.185898,-0.439639 c 3.759282,-9.01257 4.719759,-19.983589 4.719759,-30.679055 0,-10.695466 -0.867528,-21.188618 -4.471894,-30.0960578 L 60.516853,9.5358409 60.041779,9.3924808 C 52.409609,7.108277 43.87893,5.8180364 35.379234,5.6746763 34.780227,5.6651187 34.232859,5.6555621 33.675163,5.6555615 Z"
       style="fill:#ff0000;stroke:#ffffff;stroke-width:1.84341729;stroke-miterlimit:4;stroke-dasharray:none" />
    <path
       id="path1154"
       d="m 33.614853,4.6077955 c 0.591098,0 1.182197,0.01013 1.784241,0.02026 8.932155,0.1519464 17.809578,1.4890758 25.822246,3.8898304 3.787408,9.3599041 4.709928,20.5803481 4.709928,31.5440931 0,10.963745 -1.01009,22.680548 -4.961693,32.151879 -7.881312,2.18803 -16.353723,3.302304 -25.198307,3.302304 -0.536368,0 -1.072735,-0.01013 -1.609102,-0.02026 H 33.97608 C 25.022033,75.343956 16.14461,74.006827 8.1428892,71.595943 4.3664269,62.256298 3.443547,51.035521 3.443547,40.061979 c 0,-10.973542 1.01045,-22.670418 4.9401601,-32.1417498 7.3668369,-2.036083 15.4670749,-3.170617 23.6439369,-3.3023039 0.525421,-0.01013 1.061788,-0.01013 1.587209,-0.01013 m 0,-1.0129766 c -0.536367,0 -1.072734,0 -1.609101,0.01013 C 23.785105,3.7366356 15.509726,4.891429 8.0662653,6.9477716 L 7.5517907,7.0895883 7.3547579,7.5555576 C 3.3812628,17.128188 2.3742062,28.755311 2.3742062,40.061979 c 0,11.306668 0.9194864,22.457692 4.7287876,31.888505 l 0.1860865,0.45584 0.5035283,0.151947 c 8.0673984,2.431144 17.1090154,3.798662 26.1506324,3.950608 h 0.207979 c 0.525421,0.01013 1.061788,0.02026 1.609101,0.02026 8.932155,0 17.514028,-1.124404 25.51575,-3.342823 l 0.514475,-0.141816 0.197032,-0.46597 c 3.984442,-9.55237 5.002445,-21.180489 5.002445,-32.516551 0,-11.336062 -0.919487,-22.457692 -4.739734,-31.8986353 L 62.064202,7.7075041 61.560674,7.5555576 C 53.471382,5.1345434 44.429765,3.7670249 35.420987,3.6150784 c -0.634884,-0.01013 -1.215036,-0.020259 -1.806134,-0.02026 z"
       style="fill:#000000;stroke:#000000;stroke-width:1.95382714;stroke-miterlimit:4;stroke-dasharray:none" />
    <g
       id="g1810">
      <path
         d="M 6.5134911,7.7433673 C 5.6489029,6.8479453 4.058602,6.5681013 3.6272194,7.3820013 3.284151,8.0292783 3.3625296,8.5309135 4.395235,8.9201755 3.2963719,9.5187755 1.4857674,9.4447465 1.1893447,7.4467713 0.95320848,5.8551433 2.674739,4.8863543 3.1399725,5.0916244 3.0034432,3.6818714 1.8221094,4.0692802 0.95849208,3.2813384 0.34259068,2.7194046 0.23126071,-0.02624603 0.0561761,0.04378767 -0.0138576,0.21887227 2.7317937,0.33020157 3.2937267,0.94610377 4.0816685,1.8097211 3.6942598,2.9910547 5.1040128,3.1275841 4.8987425,2.6623507 5.8675315,0.94082017 7.4591593,1.1769564 9.4571345,1.4733791 9.5311625,3.2839847 8.9325635,4.3828467 8.5433008,3.3501417 8.041666,3.2717627 7.3943894,3.6148312 6.5804899,4.0462137 6.8603354,5.6365129 7.7557553,6.5011023"
         style="fill:#000000;stroke:#000000;stroke-width:0.1112323px;stroke-linecap:butt;stroke-linejoin:miter;stroke-opacity:1"
         id="path1737-3" />
      <path
         d="m 62.850738,7.7433673 c 0.864588,-0.895422 2.454889,-1.175266 2.886271,-0.361366 0.343069,0.647277 0.26469,1.148912 -0.768015,1.538174 1.098863,0.5986 2.909467,0.524571 3.20589,-1.473404 0.236136,-1.591628 -1.485394,-2.560417 -1.950628,-2.3551469 0.13653,-1.409753 1.317863,-1.0223442 2.181481,-1.810286 0.615901,-0.5619338 0.727231,-3.30758442 0.902316,-3.23755072 0.07003,0.1750846 -2.675618,0.2864139 -3.237551,0.9023161 C 65.28256,1.8097211 65.669969,2.9910547 64.260216,3.1275841 64.465486,2.6623507 63.496697,0.94082018 61.905069,1.1769564 c -1.997975,0.2964227 -2.072003,2.1070283 -1.473404,3.2058903 0.389263,-1.032705 0.890898,-1.111084 1.538174,-0.7680155 0.8139,0.4313825 0.534054,2.0216817 -0.361366,2.8862711"
         style="fill:#000000;stroke:#000000;stroke-width:0.1112323px;stroke-linecap:butt;stroke-linejoin:miter;stroke-opacity:1"
         id="path1737-3-5" />
      <path
         d="m 62.850738,72.244244 c 0.864588,0.895422 2.454889,1.175266 2.886272,0.361366 0.343068,-0.647277 0.264689,-1.148912 -0.768016,-1.538174 1.098863,-0.5986 2.909468,-0.524571 3.20589,1.473404 0.236137,1.591628 -1.485394,2.560417 -1.950628,2.355147 0.13653,1.409753 1.317864,1.022344 2.181481,1.810286 0.615901,0.561934 0.727231,3.307584 0.902316,3.237551 0.07003,-0.175085 -2.675618,-0.286414 -3.237551,-0.902317 -0.787942,-0.863617 -0.400533,-2.04495 -1.810286,-2.18148 0.20527,0.465234 -0.763519,2.186764 -2.355146,1.950628 -1.997976,-0.296423 -2.072004,-2.107028 -1.473405,-3.20589 0.389263,1.032705 0.890898,1.111084 1.538175,0.768015 0.813899,-0.431382 0.534054,-2.021682 -0.361366,-2.886271"
         style="fill:#000000;stroke:#000000;stroke-width:0.1112323px;stroke-linecap:butt;stroke-linejoin:miter;stroke-opacity:1"
         id="path1737-3-7" />
      <path
         d="M 6.513491,72.244245 C 5.648903,73.139667 4.058602,73.419511 3.62722,72.605611 3.284151,71.958334 3.36253,71.456699 4.395235,71.067437 c -1.098863,-0.5986 -2.909467,-0.524571 -3.20589,1.473404 -0.23613599,1.591628 1.485394,2.560417 1.950628,2.355147 -0.13653,1.409753 -1.317863,1.022344 -2.18148099,1.810286 -0.615901,0.561933 -0.727231,3.307584 -0.902316,3.23755 C -0.01385399,79.76874 2.731794,79.65741 3.293727,79.041508 4.081669,78.177891 3.69426,76.996557 5.104013,76.860028 4.898743,77.325261 5.867532,79.046792 7.45916,78.810656 9.457135,78.514233 9.531163,76.703627 8.932564,75.604765 8.543301,76.63747 8.041666,76.715849 7.39439,76.372781 6.58049,75.941398 6.860336,74.351099 7.755756,73.48651"
         style="fill:#000000;stroke:#000000;stroke-width:0.1112323px;stroke-linecap:butt;stroke-linejoin:miter;stroke-opacity:1"
         id="path1737-3-5-5" />
    </g>
    <path
       id="path1154-9"
       d="m 33.712865,7.4258691 c 0.536813,0 1.07363,0.00933 1.620386,0.01865 8.111875,0.1398689 16.174044,1.3707167 23.450873,3.5806479 3.439594,8.615932 4.277395,18.944521 4.277395,29.036812 0,10.092292 -0.917329,20.877786 -4.506039,29.596289 -7.157536,2.014114 -14.851888,3.03982 -22.884234,3.03982 -0.487111,0 -0.974221,-0.0094 -1.461331,-0.01865 H 34.040918 C 25.909161,72.53957 17.846991,71.308722 10.580105,69.089467 7.1504515,60.492184 6.3123238,50.163289 6.3123238,40.061979 c 0,-10.101311 0.9176558,-20.868461 4.4864832,-29.586965 6.690308,-1.8742449 14.046665,-2.9186005 21.472608,-3.0398203 0.47717,-0.00933 0.964281,-0.00933 1.44145,-0.00933 m 0,-0.9324602 c -0.487111,0 -0.974221,0 -1.46133,0.00933 C 24.785826,6.6239532 17.270413,7.686958 10.510517,9.5798526 L 10.043289,9.710397 9.8643508,10.139328 c -3.6085914,8.811751 -4.5231655,19.514693 -4.5231655,29.922651 0,10.407958 0.8350459,20.672644 4.294522,29.353849 l 0.1689973,0.419608 0.4572874,0.13987 c 7.326533,2.237904 15.537818,3.496724 23.749103,3.636593 h 0.188879 c 0.47717,0.0094 0.96428,0.01865 1.461331,0.01865 8.111875,0 15.905636,-1.035031 23.172525,-3.077119 l 0.467228,-0.130544 0.178938,-0.428932 c 3.618533,-8.793101 4.543048,-19.496959 4.543048,-29.931975 0,-10.435016 -0.835047,-20.672644 -4.304463,-29.363174 l -0.168997,-0.419609 -0.457288,-0.13987 C 51.74588,7.9107484 43.534594,6.6519271 35.353133,6.512058 34.776554,6.502738 34.249678,6.493409 33.712865,6.493409 Z"
       style="fill:#000000;stroke:none;stroke-width:1.78642213;stroke-miterlimit:4;stroke-dasharray:none" />
    <path
       id="path1154-9-3"
       d="m 33.712865,7.4258686 c 0.536813,0 1.07363,0.00933 1.620386,0.01865 8.111875,0.1398689 16.174044,1.3707167 23.450873,3.5806484 3.439594,8.615932 4.277395,18.944521 4.277395,29.036812 0,10.092292 -0.917329,20.877786 -4.506039,29.596288 -7.157536,2.014114 -14.851888,3.03982 -22.884234,3.03982 -0.487111,0 -0.974221,-0.0094 -1.461331,-0.01865 H 34.040918 C 25.909161,72.539569 17.846991,71.308722 10.580105,69.089466 7.1504515,60.492184 6.3123238,50.163288 6.3123238,40.061979 c 0,-10.101312 0.9176558,-20.868461 4.4864832,-29.586965 6.690308,-1.8742454 14.046665,-2.918601 21.472608,-3.0398208 0.47717,-0.00933 0.964281,-0.00933 1.44145,-0.00933 m 0,-0.9324602 c -0.487111,0 -0.974221,0 -1.46133,0.00933 C 24.785826,6.6239527 17.270413,7.6869575 10.510517,9.5798521 L 10.043289,9.7103965 9.8643508,10.139328 C 6.2557594,18.951079 5.3411853,29.65402 5.3411853,40.061979 c 0,10.407958 0.8350459,20.672643 4.294522,29.353849 l 0.1689973,0.419608 0.4572874,0.13987 c 7.326533,2.237904 15.537818,3.496724 23.749103,3.636593 h 0.188879 c 0.47717,0.0094 0.96428,0.01865 1.461331,0.01865 8.111875,0 15.905636,-1.035032 23.172525,-3.077119 l 0.467228,-0.130544 0.178938,-0.428932 c 3.618533,-8.793101 4.543048,-19.49696 4.543048,-29.931975 0,-10.435016 -0.835047,-20.672644 -4.304463,-29.363175 l -0.168997,-0.419609 -0.457288,-0.13987 C 51.74588,7.9107479 43.534594,6.6519266 35.353133,6.5120575 34.776554,6.5027375 34.249678,6.4934085 33.712865,6.4934085 Z"
       style="fill:#000000;stroke:none;stroke-width:1.78642213;stroke-miterlimit:4;stroke-dasharray:none" />
  </g>
</svg>
