<svg id="Capa_2" xmlns="http://www.w3.org/2000/svg" xmlns:xlink="http://www.w3.org/1999/xlink" viewBox="0 0 69.02 80">
<defs >
<style >
.cls-1{fill:#c89aed;}.cls-2{fill:#fff;}.cls-3{fill:#f8ffbf;}.cls-4{fill:#7b7be8;}.cls-5{fill:#a88347;}.cls-6{fill:#782ab5;}.cls-7,.cls-8{stroke:#000;stroke-miterlimit:10;}.cls-7,.cls-8,.cls-9,.cls-10,.cls-11{fill:none;}.cls-8,.cls-9{stroke-linecap:round;}.cls-9{stroke:#deb778;stroke-dasharray:0 0 0 4.06;stroke-linejoin:round;}.cls-12{fill:url(#USGS_19_Inundación_de_tierra);}.cls-13{fill:#deb778;}.cls-11{stroke:#1d1d1b;stroke-dasharray:0 0 2 2;stroke-width:.3px;}.cls-14{fill:#cf5f2b;}.cls-15{fill:#fcf0c5;}.cls-16{fill:#b83521;}
</style>
<pattern id="USGS_19_Inundación_de_tierra" x="0" y="0" width="72" height="72" patternTransform="translate(-20.48 -16135) rotate(-90)" patternUnits="userSpaceOnUse" viewBox="0 0 72 72">
<g >
<rect class="cls-10" width="72" height="72">
</rect>
<g >
<line class="cls-11" x1="71" y1="71" x2="144.44" y2="71">
</line>
<line class="cls-11" x1="71" y1="67" x2="144.44" y2="67">
</line>
<line class="cls-11" x1="71" y1="63" x2="144.44" y2="63">
</line>
<line class="cls-11" x1="71" y1="59" x2="144.44" y2="59">
</line>
<line class="cls-11" x1="71" y1="55" x2="144.44" y2="55">
</line>
<line class="cls-11" x1="71" y1="51" x2="144.44" y2="51">
</line>
<line class="cls-11" x1="71" y1="47" x2="144.44" y2="47">
</line>
<line class="cls-11" x1="71" y1="43" x2="144.44" y2="43">
</line>
<line class="cls-11" x1="71" y1="39" x2="144.44" y2="39">
</line>
<line class="cls-11" x1="71" y1="35" x2="144.44" y2="35">
</line>
<line class="cls-11" x1="71" y1="31" x2="144.44" y2="31">
</line>
<line class="cls-11" x1="71" y1="27" x2="144.44" y2="27">
</line>
<line class="cls-11" x1="71" y1="23" x2="144.44" y2="23">
</line>
<line class="cls-11" x1="71" y1="19" x2="144.44" y2="19">
</line>
<line class="cls-11" x1="71" y1="15" x2="144.44" y2="15">
</line>
<line class="cls-11" x1="71" y1="11" x2="144.44" y2="11">
</line>
<line class="cls-11" x1="71" y1="7" x2="144.44" y2="7">
</line>
<line class="cls-11" x1="71" y1="3" x2="144.44" y2="3">
</line>
</g>
<g >
<line class="cls-11" x1="-1" y1="71" x2="72.44" y2="71">
</line>
<line class="cls-11" x1="-1" y1="67" x2="72.44" y2="67">
</line>
<line class="cls-11" x1="-1" y1="63" x2="72.44" y2="63">
</line>
<line class="cls-11" x1="-1" y1="59" x2="72.44" y2="59">
</line>
<line class="cls-11" x1="-1" y1="55" x2="72.44" y2="55">
</line>
<line class="cls-11" x1="-1" y1="51" x2="72.44" y2="51">
</line>
<line class="cls-11" x1="-1" y1="47" x2="72.44" y2="47">
</line>
<line class="cls-11" x1="-1" y1="43" x2="72.44" y2="43">
</line>
<line class="cls-11" x1="-1" y1="39" x2="72.44" y2="39">
</line>
<line class="cls-11" x1="-1" y1="35" x2="72.44" y2="35">
</line>
<line class="cls-11" x1="-1" y1="31" x2="72.44" y2="31">
</line>
<line class="cls-11" x1="-1" y1="27" x2="72.44" y2="27">
</line>
<line class="cls-11" x1="-1" y1="23" x2="72.44" y2="23">
</line>
<line class="cls-11" x1="-1" y1="19" x2="72.44" y2="19">
</line>
<line class="cls-11" x1="-1" y1="15" x2="72.44" y2="15">
</line>
<line class="cls-11" x1="-1" y1="11" x2="72.44" y2="11">
</line>
<line class="cls-11" x1="-1" y1="7" x2="72.44" y2="7">
</line>
<line class="cls-11" x1="-1" y1="3" x2="72.44" y2="3">
</line>
<line class="cls-11" x1="1.04" y1="69" x2="74.48" y2="69">
</line>
<line class="cls-11" x1="1.04" y1="65" x2="74.48" y2="65">
</line>
<line class="cls-11" x1="1.04" y1="61" x2="74.48" y2="61">
</line>
<line class="cls-11" x1="1.04" y1="57" x2="74.48" y2="57">
</line>
<line class="cls-11" x1="1.04" y1="53" x2="74.48" y2="53">
</line>
<line class="cls-11" x1="1.04" y1="49" x2="74.48" y2="49">
</line>
<line class="cls-11" x1="1.04" y1="45" x2="74.48" y2="45">
</line>
<line class="cls-11" x1="1.04" y1="41" x2="74.48" y2="41">
</line>
<line class="cls-11" x1="1.04" y1="37" x2="74.48" y2="37">
</line>
<line class="cls-11" x1="1.04" y1="33" x2="74.48" y2="33">
</line>
<line class="cls-11" x1="1.04" y1="29" x2="74.48" y2="29">
</line>
<line class="cls-11" x1="1.04" y1="25" x2="74.48" y2="25">
</line>
<line class="cls-11" x1="1.04" y1="21" x2="74.48" y2="21">
</line>
<line class="cls-11" x1="1.04" y1="17" x2="74.48" y2="17">
</line>
<line class="cls-11" x1="1.04" y1="13" x2="74.48" y2="13">
</line>
<line class="cls-11" x1="1.04" y1="9" x2="74.48" y2="9">
</line>
<line class="cls-11" x1="1.04" y1="5" x2="74.48" y2="5">
</line>
<line class="cls-11" x1="1.04" y1="1" x2="74.48" y2="1">
</line>
</g>
<g >
<line class="cls-11" x1="-73" y1="71" x2=".44" y2="71">
</line>
<line class="cls-11" x1="-73" y1="67" x2=".44" y2="67">
</line>
<line class="cls-11" x1="-73" y1="63" x2=".44" y2="63">
</line>
<line class="cls-11" x1="-73" y1="59" x2=".44" y2="59">
</line>
<line class="cls-11" x1="-73" y1="55" x2=".44" y2="55">
</line>
<line class="cls-11" x1="-73" y1="51" x2=".44" y2="51">
</line>
<line class="cls-11" x1="-73" y1="47" x2=".44" y2="47">
</line>
<line class="cls-11" x1="-73" y1="43" x2=".44" y2="43">
</line>
<line class="cls-11" x1="-73" y1="39" x2=".44" y2="39">
</line>
<line class="cls-11" x1="-73" y1="35" x2=".44" y2="35">
</line>
<line class="cls-11" x1="-73" y1="31" x2=".44" y2="31">
</line>
<line class="cls-11" x1="-73" y1="27" x2=".44" y2="27">
</line>
<line class="cls-11" x1="-73" y1="23" x2=".44" y2="23">
</line>
<line class="cls-11" x1="-73" y1="19" x2=".44" y2="19">
</line>
<line class="cls-11" x1="-73" y1="15" x2=".44" y2="15">
</line>
<line class="cls-11" x1="-73" y1="11" x2=".44" y2="11">
</line>
<line class="cls-11" x1="-73" y1="7" x2=".44" y2="7">
</line>
<line class="cls-11" x1="-73" y1="3" x2=".44" y2="3">
</line>
<line class="cls-11" x1="-70.96" y1="69" x2="2.48" y2="69">
</line>
<line class="cls-11" x1="-70.96" y1="65" x2="2.48" y2="65">
</line>
<line class="cls-11" x1="-70.96" y1="61" x2="2.48" y2="61">
</line>
<line class="cls-11" x1="-70.96" y1="57" x2="2.48" y2="57">
</line>
<line class="cls-11" x1="-70.96" y1="53" x2="2.48" y2="53">
</line>
<line class="cls-11" x1="-70.96" y1="49" x2="2.48" y2="49">
</line>
<line class="cls-11" x1="-70.96" y1="45" x2="2.48" y2="45">
</line>
<line class="cls-11" x1="-70.96" y1="41" x2="2.48" y2="41">
</line>
<line class="cls-11" x1="-70.96" y1="37" x2="2.48" y2="37">
</line>
<line class="cls-11" x1="-70.96" y1="33" x2="2.48" y2="33">
</line>
<line class="cls-11" x1="-70.96" y1="29" x2="2.48" y2="29">
</line>
<line class="cls-11" x1="-70.96" y1="25" x2="2.48" y2="25">
</line>
<line class="cls-11" x1="-70.96" y1="21" x2="2.48" y2="21">
</line>
<line class="cls-11" x1="-70.96" y1="17" x2="2.48" y2="17">
</line>
<line class="cls-11" x1="-70.96" y1="13" x2="2.48" y2="13">
</line>
<line class="cls-11" x1="-70.96" y1="9" x2="2.48" y2="9">
</line>
<line class="cls-11" x1="-70.96" y1="5" x2="2.48" y2="5">
</line>
<line class="cls-11" x1="-70.96" y1="1" x2="2.48" y2="1">
</line>
</g>
</g>
</pattern>
</defs>

<g id="Characters">
<g >
<path class="cls-16" d="M5.29,55.36s2.78-7.18,6.1-8.89c-.32-10.17,2.57-15.53,2.57-15.53l5.14-2.25s2.36-14.35,15.31-14.99c12.32-.21,15.21,9,16.17,12.32s2.78,7.6,4.5,10.28,1.07,5.68-2.25,7.93-3.75,4.61-4.18,6.43-.75,6-4.93,7.18c.21,2.78,2.14,3.64,2.14,3.64l14.24,4.93-1.39,5.89s-33.2,7.6-48.51-.96c-4.71-11.78-4.93-15.96-4.93-15.96Z">
</path>
<path class="cls-1" d="M22.07,38.89s5.56-2.47,7.23-6.26,6.79-10.41,6.79-10.41c0,0,3.97-1.41,7.41,3.18l1.76-1.41s2.38,2.91,2.65,6.7,1.06,7.5,1.85,8.56c-1.41,7.14-2.21,9.44-3.18,10.5s-3,2.65-3,2.65l.44,7.23s-.09,1.06,4.23,2.82,7.59,2.65,7.59,2.65l-4.59,4.67s-16.49,1.94-19.32,1.85c-1.85-4.94-3.53-6.44-5.56-7.76l-2.03-1.32s3.09-1.94,3.18-3.88,.18-6.26,.18-6.26c0,0-3.09-2.65-3.97-5.82s-1.68-7.67-1.68-7.67Z">
</path>
<path class="cls-2" d="M35.61,56.91V22.53s4.84-1.12,7.26,2.59c1.99-.6,2.76-.86,2.76-.86,0,0,2.68,3.54,2.68,8.81-.09,5.7,1.46,6.17,1.46,6.17,0,0-1.8,8.34-3.1,10.07-3.02,3.54-7,8.12-11.06,7.6Z">
</path>
<path class="cls-2" d="M31.33,49.04s4.59,.83,8.18-.06c-.44,2.04-4.59,2.98-4.59,2.98,0,0-4.03,.33-3.59-2.93Z">
</path>
<path class="cls-3" d="M32.74,37.84s-2.73-1.6-4.32-1.65c-2.56,.43-3.47,.87-3.47,.87,0,0,.63,1.64,2.94,1.98,2.36,.34,4.23-.67,4.85-1.2Z">
</path>
<path class="cls-3" d="M38.06,37.88s2.94-1.64,4.54-1.69c2.56,.43,3.47,.87,3.47,.87,0,0-1.03,1.8-3.34,2.13-2.36,.34-4.04-.78-4.67-1.31Z">
</path>
<polygon class="cls-4" points="33.33 34.71 32.94 37.88 28.54 36.26 25.89 36.81 29.57 32.46 33.33 34.71">
</polygon>
<path class="cls-4" d="M37.83,37.88l-.43-3.28s3.72-2.56,5.26-2.75c3.23,.68,5.31,1.4,5.31,1.4,0,0,1.4,2.75-1.69,4.15-1.98-1.25-4.25-1.25-4.25-1.25,0,0-3.09,1.01-4.2,1.74Z">
</path>
<ellipse class="cls-4" cx="35.46" cy="45.15" rx="2.45" ry="1.07">
</ellipse>
<path class="cls-1" d="M37.78,23.54c.67,0,1.3,.1,1.86,.3,1.11,.38,2.11,1.29,2.62,2.36l.47,.98,.94-.55c.11-.07,.71-.43,1.26-.77,1.21,1.7,1.58,3.92,1.75,6.67v.03s0,.03,0,.03l.08,.63c.24,1.94,.5,3.95,1.33,5.82-.17,1.09-1.01,6.03-2.2,8.73-1.69,2.58-5.54,5.73-7.13,6.97-.62,.48-1.39,.76-2.17,.79-.16,0-.32,0-.49,0-.34,0-.69-.01-1.07-.04-.71-.05-1.4-.31-1.99-.76-3.58-2.76-6.09-5.15-7.26-6.91-1.11-2.48-1.9-6.73-2.17-8.37,5.15-2.4,8.14-7.45,11.04-12.34,.69-1.17,1.41-2.38,2.14-3.51,.34-.04,.68-.07,1-.07m0-1c-.53,0-1.07,.05-1.59,.15-3.93,6.02-7,13.5-13.72,16.18,.02,.05,.05,.1,.05,.16,.01,.06,.92,6.09,2.38,9.29,1.21,1.86,3.75,4.31,7.53,7.22,.74,.57,1.61,.91,2.53,.97,.4,.03,.78,.04,1.14,.04,.18,0,.36,0,.53-.01,.99-.03,1.97-.39,2.75-1,2.04-1.6,5.71-4.68,7.39-7.28,1.42-3.14,2.33-9.17,2.34-9.23,0-.04,.02-.07,.03-.1-.97-2.01-1.18-4.3-1.46-6.46-.17-2.84-.57-5.79-2.52-7.92-.55,.34-1.82,1.12-1.99,1.22-.62-1.3-1.81-2.39-3.2-2.87-.71-.25-1.44-.36-2.19-.36h0Z">
</path>
<path d="M43.63,53.24l-13.21,13.89-4.75-3.47-1.13-1.51s2.76-1.19,3-3.5,.17-6.61,.17-6.61l5.58,4.68s1.66,.53,3.55,.3,2.72-.91,3.09-1.36,3.7-2.41,3.7-2.41Z">
</path>
<path d="M30.97,33.02s-3.05,5.46-8.31,8.31c-.63-2.24-.38-2.73-.38-2.73,0,0,5.33-3.62,7.3-6.35,1.02,.51,1.4,.76,1.4,.76Z">
</path>
<path d="M22.07,38.89s-3.8,1.22-5.4,1.3c.59,6.41,1.52,10.12,5.31,12.06-2.02,6.07,2.56,9.9,2.56,9.9,0,0,3.94-.63,4.36-2.99s-.59-6.83-.59-6.83c0,0-1.77-.93-3.79-4.13s-2.86-8.42-2.44-9.31Z">
</path>
<path d="M19.67,53.5s-1.79,5.56,2.55,9.4,9.62,6.27,7.22,12.25c-11.88-2.11-19.54-4.01-19.54-4.01l-2.99-13.56s1.09-8.24,6.05-10.21c-3.13,6.12,2.33,1.24,6.71,6.12Z">
</path>
<path class="cls-14" d="M26.8,19.71s2.2,7.15,8.43,3.39c-4.12,7.33-7.24,11.09-7.24,11.09,0,0-1.47-7.97-7.97-6.14,3.58-3.22,5.31-5.5,6.78-8.34Z">
</path>
<path class="cls-14" d="M46.4,25.55s3.37-.86,2.84-3.37c2.05,5.09,3.64,10.12,3.64,10.12,0,0-3.37-2.51-4.56,1.12-.26-5.23-1.92-7.87-1.92-7.87Z">
</path>
<path class="cls-2" d="M41.66,56.64s-.28,3.98,1.3,5.18,10.09,3.7,10.09,3.7l-3.06,2.69-16.67,1.3-.74-2.96,9.07-9.91Z">
</path>
<path class="cls-16" d="M13.36,54.18c-2.88,5.34-3.25,11.9-.32,17.27,0,0-.87,.5-.87,.5-3.4-5.4-2.86-12.86,1.19-17.77h0Z">
</path>
<path class="cls-16" d="M16.02,59.95c.14,5.37,2.52,10.72,6.97,13.85,0,0-.55,.83-.55,.83-4.88-2.99-7-9.2-6.41-14.68h0Z">
</path>
<path d="M48.46,35.23s5.3,3,5.25-.6c3.05,3.25,2.55,6.2,.75,7.84s-4.45,3.5-5.1,5.3-.5,5.95-2.1,7.49-3.52,2.56-3.52,2.56l.13-5.56s2.85-2.8,3.7-4.7,2-8.14,2-8.14l-1.1-4.2Z">
</path>
<path class="cls-2" d="M27.68,40.43c.7,0,1.84-.03,2.9-.18,.57-.08,.92,.58,.54,1.01-1.15,1.27-2.16,2.09-2.83,2.57-.37,.27-.89,.03-.94-.43l-.26-2.3c-.04-.36,.24-.67,.6-.67Z">
</path>
<path d="M5.57,55.52c.47-3.75,2.13-7.58,5.36-9.73,0,0-.28,.57-.28,.57-.24-2.7-.16-5.43,.33-8.09,.51-2.76,1.3-5.41,2.56-7.94,2.03-.45,3.97-1.31,5.82-2.28,.6-.3,1.18-.63,1.84-.94-.72,1.25-1.94,2.12-3.19,2.74-1.27,.62-2.57,1.12-3.97,1.48l.36-.28c-.54,1.14-.98,2.39-1.34,3.63-1.13,3.86-1.53,7.93-1.15,11.93-1.55,1-2.82,2.39-3.68,4.04-.82,1.54-1.39,3.29-1.66,5-.09,.63-1.06,.52-.99-.13h0Z">
</path>
<path class="cls-8" d="M19.29,28.49s2.16-10.66,10.03-13.73,17.7,1.6,20.14,8.01,2.72,9.06,5.37,13.24-.91,7.46-3.76,9.48-1.92,6.8-3.9,9.69c-.84,1.22-2.23,2.09-3.31,2.62">
</path>
<path d="M17.95,39.88c10.19-2.81,12.2-10.09,17.55-17.95,0,0,.12-.17,.12-.17,3.06-.7,6.59,.35,8.05,3.31,0,0-.54-.17-.54-.17,.06-.04,2.17-1.18,2.14-1.17,1.33,1.05,2.18,2.51,2.71,4.08,1.1,3.64,.52,7.5,2.09,10.98,.27,.66,.57,1.29,.97,1.98-.77-.27-1.36-.89-1.77-1.58-1.09-2.07-1.3-4.47-1.59-6.73-.18-2.91-.58-5.95-2.67-8.08,0,0,.37,.03,.37,.03-.25,.15-2.02,1.24-2.21,1.36-.63-1.3-1.82-2.39-3.2-2.87-1.27-.46-2.66-.44-3.98-.18,0,0,.3-.19,.3-.19-4.78,7.25-8.22,16.76-18.35,17.35h0Z">
</path>
<path class="cls-8" d="M22.03,39.1s.91,6.12,2.41,9.43c1.62,2.5,5.03,5.36,7.68,7.41,.81,.62,1.78,1,2.8,1.07,.54,.04,1.12,.05,1.72,.03,1.1-.04,2.17-.43,3.04-1.11,2.63-2.06,5.92-4.96,7.5-7.4,1.5-3.31,2.41-9.43,2.41-9.43">
</path>
<path d="M43.42,23.04c-3.31-6.22-10.19-6.23-16.09-4.11,0,0,.44-.47,.44-.47-.5,1.2-1.11,2.33-1.78,3.41-.7,1.06-1.47,2.07-2.35,2.98-.04,.04-.11-.02-.08-.06,1.43-2.05,2.6-4.33,3.46-6.64,1.78-.64,3.97-1.32,5.86-1.44,.7-.12,1.71-.02,2.42,0,0,0,1.2,.2,1.2,.2,3.19,.64,5.94,3.02,7.01,6.1,.02,.06-.07,.09-.1,.03h0Z">
</path>
<path d="M33.01,37.88c-1.43-.52-3.02-1.11-4.51-1.18,0,0,.14,0,.14,0-1.07,.09-2.21,.16-3.22,.48-.21,.12-.4-.19-.2-.32,1.05-.59,2.19-.86,3.34-1.18,1.68,.44,3.03,1.31,4.46,2.19h0Z">
</path>
<path d="M24.94,36.96c.92,.83,2.06,1.6,3.28,1.92,1.25,.25,2.64,.01,3.85-.56-1.7,1.14-4.07,1.45-5.96,.48-.64-.3-1.25-.62-1.83-1.08-.22-.17-.25-.49-.08-.7,.18-.23,.53-.25,.74-.05h0Z">
</path>
<path d="M37.78,37.88c1.39-.9,2.77-1.74,4.44-2.1,.72,.08,1.45,.17,2.16,.35,.71,.19,1.36,.42,2,.82,0,0-.37-.01-.37-.01l1.8-.35-1.45,1.12-.07,.05c-1.36-.34-2.75-.87-4.12-1.16-.88,.1-3.11,.78-4.39,1.27h0Z">
</path>
<path d="M37.46,35.25s3.3-2.65,5.15-2.9c2.55,.8,5.45,.95,5.45,.95,0,0-3.3-1.85-5.45-1.9-3.85,1.15-5.5,2.65-5.5,2.65l.35,1.2Z">
</path>
<path d="M33.71,34.05l-.35,1.2s-2.19-1.76-4-2.55l.54-.72c2.65,1.01,3.81,2.07,3.81,2.07Z">
</path>
<path d="M46.22,37.76c-1.9,1.69-4.79,2.21-7.02,.88,2.2,1.08,4.92,.41,6.56-1.33,.29-.34,.8,.15,.46,.45h0Z">
</path>
<path d="M39.34,36c1.7-1.86,4.2-1.84,6.08-.25-1.01-.32-2.05-.71-3.09-.71-1,.03-2,.51-2.99,.97h0Z">
</path>
<path d="M31.74,36c-1.42-.59-2.71-1.2-4.26-1.02,1.41-.9,3.27-.16,4.26,1.02h0Z">
</path>
<path d="M33.86,42.11c.15,.33,.13,.72,0,1.05-.17,.59-.7,.91-.66,1.47,.03,.22,.19,.51,.36,.82-.88-.13-1.32-1.09-.81-1.82,.44-.61,.79-.85,1.11-1.52h0Z">
</path>
<path d="M37.16,42.11c.32,.66,.67,.91,1.11,1.52,.51,.73,.07,1.7-.81,1.82,.3-.55,.53-.9,.17-1.43-.34-.45-.79-1.28-.47-1.91h0Z">
</path>
<path d="M33.7,44.86c.36-.38,1.02-.07,.96,.45-.52-.04-.6-.09-.96-.45h0Z">
</path>
<path d="M37.22,44.86c-.37,.36-.45,.41-.96,.45-.05-.52,.6-.83,.96-.45h0Z">
</path>
<path d="M34.52,45.11c-.16,1.07,1.05,1.43,1.7,.76,.17-.21,.25-.55,.25-.84-.01-.15,.1-.27,.25-.27,.14,0,.25,.11,.25,.24,0,.42-.07,.82-.34,1.19-.56,.71-1.71,.77-2.33,.07-.29-.38-.33-.81-.29-1.23,.01-.14,.14-.24,.28-.22,.15,.02,.24,.15,.22,.3h0Z">
</path>
<path d="M37.41,48.18c-.9,.22-1.65,.74-2.02,1.03-.37-.29-1.12-.81-2.02-1.03-2.93,.81-3.89,.11-3.89,.11,1.1,1.44,4.9,1.49,5.9,1.49s4.8-.05,5.9-1.49c0,0-.95,.71-3.89-.11Z">
</path>
<path d="M29.16,48.89c.04-.31,.26-.57,.5-.74,.25-.14,.51-.39,.88-.11-.17,.42-.43,.37-.66,.49-.24,.12-.48,.21-.72,.36h0Z">
</path>
<path d="M41.63,48.89c-.24-.15-.48-.24-.72-.36-.23-.13-.49-.08-.66-.49,.37-.28,.63-.03,.88,.11,.24,.17,.46,.43,.5,.74h0Z">
</path>
<path d="M39.94,49.14c-.76,5.76-8.62,5.76-9.38,0-.04-.28,.36-.41,.5-.17,2.46,3.56,5.95,3.53,8.39-.03,.15-.22,.53-.07,.49,.2h0Z">
</path>
<path d="M37.94,50.82l-.73-.71-.37,.68h-1.68s-1.68,0-1.68,0l-.37-.68-.73,.71s.88,1.24,2.73,1.24,2.83-1.24,2.83-1.24Z">
</path>
<path d="M24.73,43.32c.85,.4,1.18,1.19,1.49,1.94,.3,.76,.47,1.61,.35,2.43-.54-1.59-1.59-2.67-1.85-4.37h0Z">
</path>
<path d="M46.12,43.32c-.26,1.7-1.31,2.78-1.85,4.37-.11-.82,.05-1.67,.35-2.43,.31-.75,.65-1.54,1.49-1.94h0Z">
</path>
<path d="M17.05,40.99c.6,4.32,1.86,9.06,5.88,11.37-2.79,3.85,.25,8.78,3.65,11.16,.32,.22,1.01,.63,1.36,.79,3.82,1.97,5.12,6.95,4.12,10.9,0,0-.97-.25-.97-.25,.83-3.77-.67-8.46-4.46-9.97,0,0-.75-.48-.75-.48-3.75-2.59-6.94-7.92-4.17-12.29,0,0,.17,.76,.17,.76-3.83-2.53-5.67-7.57-4.84-11.99h0Z">
</path>
<path class="cls-7" d="M27.62,52.02l.11,6.16c.02,1.35-.69,2.6-1.84,3.23l-1.22,.67">
</path>
<path class="cls-7" d="M43.83,52.31l-.11,5.87c-.02,1.35,.64,2.72,1.84,3.23,3.44,1.46,14.21,4.48,14.21,4.48">
</path>
<path d="M31.96,70.46s6.68,.62,18.63-1.43c2.67-1.43,4.81-4.46,4.81-4.46l5.53,1.6-2.05,6.06s-14.88,4.19-27.36,2.5c.62-2.58,.45-4.28,.45-4.28Z">
</path>
<circle cx="40.83" cy="59.71" r=".5">
</circle>
<circle cx="43.03" cy="62.97" r=".5">
</circle>
</g>
</g>
 <g
     id="g2850">
    <g
       id="g2837">
      <path
         id="path1951"
         d="M 0.056640625 0.04296875 L 0.056640625 79.943359 L 69.308594 79.943359 L 69.308594 0.04296875 L 0.056640625 0.04296875 z M 33.615234 3.5957031 C 34.206332 3.5957038 34.786991 3.6051034 35.421875 3.6152344 C 44.430653 3.7671809 53.471255 5.1336733 61.560547 7.5546875 L 62.064453 7.7070312 L 62.25 8.1640625 C 66.070247 17.605006 66.990234 28.726438 66.990234 40.0625 C 66.990234 51.398562 65.972723 63.025755 61.988281 72.578125 L 61.791016 73.044922 L 61.275391 73.185547 C 53.273669 75.403966 44.691921 76.529297 35.759766 76.529297 C 35.212453 76.529297 34.675812 76.519896 34.150391 76.509766 L 33.943359 76.509766 C 24.901742 76.357819 15.860367 74.989738 7.7929688 72.558594 L 7.2890625 72.40625 L 7.1035156 71.951172 C 3.2942144 62.520359 2.375 51.369168 2.375 40.0625 C 2.375 28.755832 3.3819737 17.127318 7.3554688 7.5546875 L 7.5527344 7.0898438 L 8.0664062 6.9472656 C 15.509867 4.890923 23.785212 3.7371557 32.005859 3.6054688 C 32.542226 3.5953387 33.078867 3.5957031 33.615234 3.5957031 z "
         style="opacity:1;vector-effect:none;fill:#ffffff;fill-opacity:1;fill-rule:nonzero;stroke:none;stroke-width:1.95200002;stroke-linecap:butt;stroke-linejoin:miter;stroke-miterlimit:4;stroke-dasharray:none;stroke-dashoffset:0;stroke-opacity:1" />
    </g>
    <path
       id="path1154-8-2"
       d="m 33.675163,6.6112954 c 0.557696,0 1.115392,0.00956 1.683415,0.019115 8.427403,0.14336 16.803167,1.4049288 24.363042,3.6700176 3.573384,8.830981 4.443772,19.417362 4.443772,29.761551 0,10.344189 -0.95301,21.39888 -4.68131,30.334991 -7.435942,2.064385 -15.429581,3.274388 -23.774362,3.274388 -0.506058,0 -1.012115,-0.0096 -1.518172,-0.01911 h -0.17557 C 25.56792,73.508883 17.192156,72.088619 9.6426089,69.813973 6.0795528,61.002107 5.2088244,50.415411 5.2088244,40.061979 c 0,-10.353432 0.95335,-21.389323 4.6609939,-30.325434 C 16.820359,7.8155201 24.462856,6.7450981 32.177647,6.6208528 c 0.49573,-0.00956 1.001787,-0.00956 1.497516,-0.00956 m 0,-0.9557337 c -0.506057,0 -1.012114,0 -1.518171,0.00956 C 24.40089,5.7893644 16.593149,6.8789009 9.570315,8.8190405 L 9.0849131,8.9528432 8.8990146,9.3924808 C 5.1500599,18.424166 4.1999116,29.394246 4.1999116,40.061979 c 0,10.667733 0.8675267,21.188618 4.461566,30.0865 l 0.1755708,0.430081 0.4750741,0.14336 c 7.6115135,2.293761 16.1421925,3.584001 24.6728715,3.727361 h 0.196227 c 0.495729,0.0096 1.001786,0.01911 1.518171,0.01911 8.427403,0 16.524318,-1.060864 24.073866,-3.153921 l 0.485403,-0.133802 0.185898,-0.439639 c 3.759282,-9.01257 4.719759,-19.983589 4.719759,-30.679055 0,-10.695466 -0.867528,-21.188618 -4.471894,-30.0960578 L 60.516853,9.5358409 60.041779,9.3924808 C 52.409609,7.108277 43.87893,5.8180364 35.379234,5.6746763 34.780227,5.6651187 34.232859,5.6555621 33.675163,5.6555615 Z"
       style="fill:#ff0000;stroke:#ffffff;stroke-width:1.84341729;stroke-miterlimit:4;stroke-dasharray:none" />
    <path
       id="path1154"
       d="m 33.614853,4.6077955 c 0.591098,0 1.182197,0.01013 1.784241,0.02026 8.932155,0.1519464 17.809578,1.4890758 25.822246,3.8898304 3.787408,9.3599041 4.709928,20.5803481 4.709928,31.5440931 0,10.963745 -1.01009,22.680548 -4.961693,32.151879 -7.881312,2.18803 -16.353723,3.302304 -25.198307,3.302304 -0.536368,0 -1.072735,-0.01013 -1.609102,-0.02026 H 33.97608 C 25.022033,75.343956 16.14461,74.006827 8.1428892,71.595943 4.3664269,62.256298 3.443547,51.035521 3.443547,40.061979 c 0,-10.973542 1.01045,-22.670418 4.9401601,-32.1417498 7.3668369,-2.036083 15.4670749,-3.170617 23.6439369,-3.3023039 0.525421,-0.01013 1.061788,-0.01013 1.587209,-0.01013 m 0,-1.0129766 c -0.536367,0 -1.072734,0 -1.609101,0.01013 C 23.785105,3.7366356 15.509726,4.891429 8.0662653,6.9477716 L 7.5517907,7.0895883 7.3547579,7.5555576 C 3.3812628,17.128188 2.3742062,28.755311 2.3742062,40.061979 c 0,11.306668 0.9194864,22.457692 4.7287876,31.888505 l 0.1860865,0.45584 0.5035283,0.151947 c 8.0673984,2.431144 17.1090154,3.798662 26.1506324,3.950608 h 0.207979 c 0.525421,0.01013 1.061788,0.02026 1.609101,0.02026 8.932155,0 17.514028,-1.124404 25.51575,-3.342823 l 0.514475,-0.141816 0.197032,-0.46597 c 3.984442,-9.55237 5.002445,-21.180489 5.002445,-32.516551 0,-11.336062 -0.919487,-22.457692 -4.739734,-31.8986353 L 62.064202,7.7075041 61.560674,7.5555576 C 53.471382,5.1345434 44.429765,3.7670249 35.420987,3.6150784 c -0.634884,-0.01013 -1.215036,-0.020259 -1.806134,-0.02026 z"
       style="fill:#000000;stroke:#000000;stroke-width:1.95382714;stroke-miterlimit:4;stroke-dasharray:none" />
    <g
       id="g1810">
      <path
         d="M 6.5134911,7.7433673 C 5.6489029,6.8479453 4.058602,6.5681013 3.6272194,7.3820013 3.284151,8.0292783 3.3625296,8.5309135 4.395235,8.9201755 3.2963719,9.5187755 1.4857674,9.4447465 1.1893447,7.4467713 0.95320848,5.8551433 2.674739,4.8863543 3.1399725,5.0916244 3.0034432,3.6818714 1.8221094,4.0692802 0.95849208,3.2813384 0.34259068,2.7194046 0.23126071,-0.02624603 0.0561761,0.04378767 -0.0138576,0.21887227 2.7317937,0.33020157 3.2937267,0.94610377 4.0816685,1.8097211 3.6942598,2.9910547 5.1040128,3.1275841 4.8987425,2.6623507 5.8675315,0.94082017 7.4591593,1.1769564 9.4571345,1.4733791 9.5311625,3.2839847 8.9325635,4.3828467 8.5433008,3.3501417 8.041666,3.2717627 7.3943894,3.6148312 6.5804899,4.0462137 6.8603354,5.6365129 7.7557553,6.5011023"
         style="fill:#000000;stroke:#000000;stroke-width:0.1112323px;stroke-linecap:butt;stroke-linejoin:miter;stroke-opacity:1"
         id="path1737-3" />
      <path
         d="m 62.850738,7.7433673 c 0.864588,-0.895422 2.454889,-1.175266 2.886271,-0.361366 0.343069,0.647277 0.26469,1.148912 -0.768015,1.538174 1.098863,0.5986 2.909467,0.524571 3.20589,-1.473404 0.236136,-1.591628 -1.485394,-2.560417 -1.950628,-2.3551469 0.13653,-1.409753 1.317863,-1.0223442 2.181481,-1.810286 0.615901,-0.5619338 0.727231,-3.30758442 0.902316,-3.23755072 0.07003,0.1750846 -2.675618,0.2864139 -3.237551,0.9023161 C 65.28256,1.8097211 65.669969,2.9910547 64.260216,3.1275841 64.465486,2.6623507 63.496697,0.94082018 61.905069,1.1769564 c -1.997975,0.2964227 -2.072003,2.1070283 -1.473404,3.2058903 0.389263,-1.032705 0.890898,-1.111084 1.538174,-0.7680155 0.8139,0.4313825 0.534054,2.0216817 -0.361366,2.8862711"
         style="fill:#000000;stroke:#000000;stroke-width:0.1112323px;stroke-linecap:butt;stroke-linejoin:miter;stroke-opacity:1"
         id="path1737-3-5" />
      <path
         d="m 62.850738,72.244244 c 0.864588,0.895422 2.454889,1.175266 2.886272,0.361366 0.343068,-0.647277 0.264689,-1.148912 -0.768016,-1.538174 1.098863,-0.5986 2.909468,-0.524571 3.20589,1.473404 0.236137,1.591628 -1.485394,2.560417 -1.950628,2.355147 0.13653,1.409753 1.317864,1.022344 2.181481,1.810286 0.615901,0.561934 0.727231,3.307584 0.902316,3.237551 0.07003,-0.175085 -2.675618,-0.286414 -3.237551,-0.902317 -0.787942,-0.863617 -0.400533,-2.04495 -1.810286,-2.18148 0.20527,0.465234 -0.763519,2.186764 -2.355146,1.950628 -1.997976,-0.296423 -2.072004,-2.107028 -1.473405,-3.20589 0.389263,1.032705 0.890898,1.111084 1.538175,0.768015 0.813899,-0.431382 0.534054,-2.021682 -0.361366,-2.886271"
         style="fill:#000000;stroke:#000000;stroke-width:0.1112323px;stroke-linecap:butt;stroke-linejoin:miter;stroke-opacity:1"
         id="path1737-3-7" />
      <path
         d="M 6.513491,72.244245 C 5.648903,73.139667 4.058602,73.419511 3.62722,72.605611 3.284151,71.958334 3.36253,71.456699 4.395235,71.067437 c -1.098863,-0.5986 -2.909467,-0.524571 -3.20589,1.473404 -0.23613599,1.591628 1.485394,2.560417 1.950628,2.355147 -0.13653,1.409753 -1.317863,1.022344 -2.18148099,1.810286 -0.615901,0.561933 -0.727231,3.307584 -0.902316,3.23755 C -0.01385399,79.76874 2.731794,79.65741 3.293727,79.041508 4.081669,78.177891 3.69426,76.996557 5.104013,76.860028 4.898743,77.325261 5.867532,79.046792 7.45916,78.810656 9.457135,78.514233 9.531163,76.703627 8.932564,75.604765 8.543301,76.63747 8.041666,76.715849 7.39439,76.372781 6.58049,75.941398 6.860336,74.351099 7.755756,73.48651"
         style="fill:#000000;stroke:#000000;stroke-width:0.1112323px;stroke-linecap:butt;stroke-linejoin:miter;stroke-opacity:1"
         id="path1737-3-5-5" />
    </g>
    <path
       id="path1154-9"
       d="m 33.712865,7.4258691 c 0.536813,0 1.07363,0.00933 1.620386,0.01865 8.111875,0.1398689 16.174044,1.3707167 23.450873,3.5806479 3.439594,8.615932 4.277395,18.944521 4.277395,29.036812 0,10.092292 -0.917329,20.877786 -4.506039,29.596289 -7.157536,2.014114 -14.851888,3.03982 -22.884234,3.03982 -0.487111,0 -0.974221,-0.0094 -1.461331,-0.01865 H 34.040918 C 25.909161,72.53957 17.846991,71.308722 10.580105,69.089467 7.1504515,60.492184 6.3123238,50.163289 6.3123238,40.061979 c 0,-10.101311 0.9176558,-20.868461 4.4864832,-29.586965 6.690308,-1.8742449 14.046665,-2.9186005 21.472608,-3.0398203 0.47717,-0.00933 0.964281,-0.00933 1.44145,-0.00933 m 0,-0.9324602 c -0.487111,0 -0.974221,0 -1.46133,0.00933 C 24.785826,6.6239532 17.270413,7.686958 10.510517,9.5798526 L 10.043289,9.710397 9.8643508,10.139328 c -3.6085914,8.811751 -4.5231655,19.514693 -4.5231655,29.922651 0,10.407958 0.8350459,20.672644 4.294522,29.353849 l 0.1689973,0.419608 0.4572874,0.13987 c 7.326533,2.237904 15.537818,3.496724 23.749103,3.636593 h 0.188879 c 0.47717,0.0094 0.96428,0.01865 1.461331,0.01865 8.111875,0 15.905636,-1.035031 23.172525,-3.077119 l 0.467228,-0.130544 0.178938,-0.428932 c 3.618533,-8.793101 4.543048,-19.496959 4.543048,-29.931975 0,-10.435016 -0.835047,-20.672644 -4.304463,-29.363174 l -0.168997,-0.419609 -0.457288,-0.13987 C 51.74588,7.9107484 43.534594,6.6519271 35.353133,6.512058 34.776554,6.502738 34.249678,6.493409 33.712865,6.493409 Z"
       style="fill:#000000;stroke:none;stroke-width:1.78642213;stroke-miterlimit:4;stroke-dasharray:none" />
    <path
       id="path1154-9-3"
       d="m 33.712865,7.4258686 c 0.536813,0 1.07363,0.00933 1.620386,0.01865 8.111875,0.1398689 16.174044,1.3707167 23.450873,3.5806484 3.439594,8.615932 4.277395,18.944521 4.277395,29.036812 0,10.092292 -0.917329,20.877786 -4.506039,29.596288 -7.157536,2.014114 -14.851888,3.03982 -22.884234,3.03982 -0.487111,0 -0.974221,-0.0094 -1.461331,-0.01865 H 34.040918 C 25.909161,72.539569 17.846991,71.308722 10.580105,69.089466 7.1504515,60.492184 6.3123238,50.163288 6.3123238,40.061979 c 0,-10.101312 0.9176558,-20.868461 4.4864832,-29.586965 6.690308,-1.8742454 14.046665,-2.918601 21.472608,-3.0398208 0.47717,-0.00933 0.964281,-0.00933 1.44145,-0.00933 m 0,-0.9324602 c -0.487111,0 -0.974221,0 -1.46133,0.00933 C 24.785826,6.6239527 17.270413,7.6869575 10.510517,9.5798521 L 10.043289,9.7103965 9.8643508,10.139328 C 6.2557594,18.951079 5.3411853,29.65402 5.3411853,40.061979 c 0,10.407958 0.8350459,20.672643 4.294522,29.353849 l 0.1689973,0.419608 0.4572874,0.13987 c 7.326533,2.237904 15.537818,3.496724 23.749103,3.636593 h 0.188879 c 0.47717,0.0094 0.96428,0.01865 1.461331,0.01865 8.111875,0 15.905636,-1.035032 23.172525,-3.077119 l 0.467228,-0.130544 0.178938,-0.428932 c 3.618533,-8.793101 4.543048,-19.49696 4.543048,-29.931975 0,-10.435016 -0.835047,-20.672644 -4.304463,-29.363175 l -0.168997,-0.419609 -0.457288,-0.13987 C 51.74588,7.9107479 43.534594,6.6519266 35.353133,6.5120575 34.776554,6.5027375 34.249678,6.4934085 33.712865,6.4934085 Z"
       style="fill:#000000;stroke:none;stroke-width:1.78642213;stroke-miterlimit:4;stroke-dasharray:none" />
  </g>
</svg>
