<?xml version="1.0" encoding="UTF-8"?><svg id="Capa_2" xmlns="http://www.w3.org/2000/svg" xmlns:xlink="http://www.w3.org/1999/xlink" viewBox="0 0 69.02 80"><defs><style>.cls-1{fill:#c89aed;}.cls-2{fill:#fff;}.cls-3{fill:#f8ffbf;}.cls-4{fill:#7b7be8;}.cls-5{fill:#a88347;}.cls-6{fill:#782ab5;}.cls-7,.cls-8{stroke-miterlimit:10;}.cls-7,.cls-8,.cls-9,.cls-10{stroke:#000;}.cls-7,.cls-8,.cls-9,.cls-10,.cls-11,.cls-12,.cls-13{fill:none;}.cls-8,.cls-9,.cls-10,.cls-11{stroke-linecap:round;}.cls-9{stroke-width:.75px;}.cls-9,.cls-10,.cls-11{stroke-linejoin:round;}.cls-14{fill:#1c46ff;}.cls-11{stroke:#deb778;stroke-dasharray:0 0 0 4.06;}.cls-15{fill:url(#USGS_19_Inundación_de_tierra);}.cls-16{fill:#deb778;}.cls-13{stroke:#1d1d1b;stroke-dasharray:0 0 2 2;stroke-width:.3px;}.cls-17{fill:#fcf0c5;}.cls-18{fill:#b83521;}</style><pattern id="USGS_19_Inundación_de_tierra" x="0" y="0" width="72" height="72" patternTransform="translate(-92.48 -16135) rotate(-90)" patternUnits="userSpaceOnUse" viewBox="0 0 72 72"><g><rect class="cls-12" width="72" height="72"/><g><line class="cls-13" x1="71" y1="71" x2="144.44" y2="71"/><line class="cls-13" x1="71" y1="67" x2="144.44" y2="67"/><line class="cls-13" x1="71" y1="63" x2="144.44" y2="63"/><line class="cls-13" x1="71" y1="59" x2="144.44" y2="59"/><line class="cls-13" x1="71" y1="55" x2="144.44" y2="55"/><line class="cls-13" x1="71" y1="51" x2="144.44" y2="51"/><line class="cls-13" x1="71" y1="47" x2="144.44" y2="47"/><line class="cls-13" x1="71" y1="43" x2="144.44" y2="43"/><line class="cls-13" x1="71" y1="39" x2="144.44" y2="39"/><line class="cls-13" x1="71" y1="35" x2="144.44" y2="35"/><line class="cls-13" x1="71" y1="31" x2="144.44" y2="31"/><line class="cls-13" x1="71" y1="27" x2="144.44" y2="27"/><line class="cls-13" x1="71" y1="23" x2="144.44" y2="23"/><line class="cls-13" x1="71" y1="19" x2="144.44" y2="19"/><line class="cls-13" x1="71" y1="15" x2="144.44" y2="15"/><line class="cls-13" x1="71" y1="11" x2="144.44" y2="11"/><line class="cls-13" x1="71" y1="7" x2="144.44" y2="7"/><line class="cls-13" x1="71" y1="3" x2="144.44" y2="3"/></g><g><line class="cls-13" x1="-1" y1="71" x2="72.44" y2="71"/><line class="cls-13" x1="-1" y1="67" x2="72.44" y2="67"/><line class="cls-13" x1="-1" y1="63" x2="72.44" y2="63"/><line class="cls-13" x1="-1" y1="59" x2="72.44" y2="59"/><line class="cls-13" x1="-1" y1="55" x2="72.44" y2="55"/><line class="cls-13" x1="-1" y1="51" x2="72.44" y2="51"/><line class="cls-13" x1="-1" y1="47" x2="72.44" y2="47"/><line class="cls-13" x1="-1" y1="43" x2="72.44" y2="43"/><line class="cls-13" x1="-1" y1="39" x2="72.44" y2="39"/><line class="cls-13" x1="-1" y1="35" x2="72.44" y2="35"/><line class="cls-13" x1="-1" y1="31" x2="72.44" y2="31"/><line class="cls-13" x1="-1" y1="27" x2="72.44" y2="27"/><line class="cls-13" x1="-1" y1="23" x2="72.44" y2="23"/><line class="cls-13" x1="-1" y1="19" x2="72.44" y2="19"/><line class="cls-13" x1="-1" y1="15" x2="72.44" y2="15"/><line class="cls-13" x1="-1" y1="11" x2="72.44" y2="11"/><line class="cls-13" x1="-1" y1="7" x2="72.44" y2="7"/><line class="cls-13" x1="-1" y1="3" x2="72.44" y2="3"/><line class="cls-13" x1="1.04" y1="69" x2="74.48" y2="69"/><line class="cls-13" x1="1.04" y1="65" x2="74.48" y2="65"/><line class="cls-13" x1="1.04" y1="61" x2="74.48" y2="61"/><line class="cls-13" x1="1.04" y1="57" x2="74.48" y2="57"/><line class="cls-13" x1="1.04" y1="53" x2="74.48" y2="53"/><line class="cls-13" x1="1.04" y1="49" x2="74.48" y2="49"/><line class="cls-13" x1="1.04" y1="45" x2="74.48" y2="45"/><line class="cls-13" x1="1.04" y1="41" x2="74.48" y2="41"/><line class="cls-13" x1="1.04" y1="37" x2="74.48" y2="37"/><line class="cls-13" x1="1.04" y1="33" x2="74.48" y2="33"/><line class="cls-13" x1="1.04" y1="29" x2="74.48" y2="29"/><line class="cls-13" x1="1.04" y1="25" x2="74.48" y2="25"/><line class="cls-13" x1="1.04" y1="21" x2="74.48" y2="21"/><line class="cls-13" x1="1.04" y1="17" x2="74.48" y2="17"/><line class="cls-13" x1="1.04" y1="13" x2="74.48" y2="13"/><line class="cls-13" x1="1.04" y1="9" x2="74.48" y2="9"/><line class="cls-13" x1="1.04" y1="5" x2="74.48" y2="5"/><line class="cls-13" x1="1.04" y1="1" x2="74.48" y2="1"/></g><g><line class="cls-13" x1="-73" y1="71" x2=".44" y2="71"/><line class="cls-13" x1="-73" y1="67" x2=".44" y2="67"/><line class="cls-13" x1="-73" y1="63" x2=".44" y2="63"/><line class="cls-13" x1="-73" y1="59" x2=".44" y2="59"/><line class="cls-13" x1="-73" y1="55" x2=".44" y2="55"/><line class="cls-13" x1="-73" y1="51" x2=".44" y2="51"/><line class="cls-13" x1="-73" y1="47" x2=".44" y2="47"/><line class="cls-13" x1="-73" y1="43" x2=".44" y2="43"/><line class="cls-13" x1="-73" y1="39" x2=".44" y2="39"/><line class="cls-13" x1="-73" y1="35" x2=".44" y2="35"/><line class="cls-13" x1="-73" y1="31" x2=".44" y2="31"/><line class="cls-13" x1="-73" y1="27" x2=".44" y2="27"/><line class="cls-13" x1="-73" y1="23" x2=".44" y2="23"/><line class="cls-13" x1="-73" y1="19" x2=".44" y2="19"/><line class="cls-13" x1="-73" y1="15" x2=".44" y2="15"/><line class="cls-13" x1="-73" y1="11" x2=".44" y2="11"/><line class="cls-13" x1="-73" y1="7" x2=".44" y2="7"/><line class="cls-13" x1="-73" y1="3" x2=".44" y2="3"/><line class="cls-13" x1="-70.96" y1="69" x2="2.48" y2="69"/><line class="cls-13" x1="-70.96" y1="65" x2="2.48" y2="65"/><line class="cls-13" x1="-70.96" y1="61" x2="2.48" y2="61"/><line class="cls-13" x1="-70.96" y1="57" x2="2.48" y2="57"/><line class="cls-13" x1="-70.96" y1="53" x2="2.48" y2="53"/><line class="cls-13" x1="-70.96" y1="49" x2="2.48" y2="49"/><line class="cls-13" x1="-70.96" y1="45" x2="2.48" y2="45"/><line class="cls-13" x1="-70.96" y1="41" x2="2.48" y2="41"/><line class="cls-13" x1="-70.96" y1="37" x2="2.48" y2="37"/><line class="cls-13" x1="-70.96" y1="33" x2="2.48" y2="33"/><line class="cls-13" x1="-70.96" y1="29" x2="2.48" y2="29"/><line class="cls-13" x1="-70.96" y1="25" x2="2.48" y2="25"/><line class="cls-13" x1="-70.96" y1="21" x2="2.48" y2="21"/><line class="cls-13" x1="-70.96" y1="17" x2="2.48" y2="17"/><line class="cls-13" x1="-70.96" y1="13" x2="2.48" y2="13"/><line class="cls-13" x1="-70.96" y1="9" x2="2.48" y2="9"/><line class="cls-13" x1="-70.96" y1="5" x2="2.48" y2="5"/><line class="cls-13" x1="-70.96" y1="1" x2="2.48" y2="1"/></g></g></pattern></defs><g id="BG"><g><path class="cls-6" d="M64.02,40c0,11.47-1.89,22.39-5.5,31.74-7.2,2.16-14.94,3.26-23.02,3.26-.49,0-.98-.01-1.47-.02h-.17c-8.18-.15-16.29-1.47-23.6-3.85-3.45-9.22-5.26-19.93-5.26-31.13s1.89-22.38,5.48-31.73c6.73-2.01,14.13-3.13,21.6-3.26,.48-.01,.97-.01,1.45-.01,.54,0,1.08,.01,1.63,.02,8.16,.15,16.27,1.47,23.59,3.84,3.46,9.24,5.27,19.95,5.27,31.14Z"/><path class="cls-15" d="M34.03,5.59V74.98h-.17c-8.18-.15-16.29-1.47-23.6-3.85-3.45-9.22-5.26-19.93-5.26-31.13s1.89-22.38,5.48-31.73c6.73-2.01,14.13-3.13,21.6-3.26,.65,.16,1.3,.36,1.95,.58Z"/></g></g><g id="Characters"><g><g><path class="cls-14" d="M59.31,69.11s-4.94-4.77-9.97-5.11c-2.6,6.5-3.75,10.05-3.75,10.05,0,0,12.6-1.84,12.76-2.08s.95-2.86,.95-2.86Z"/><path d="M30.32,49.77s-5.18-1.47-10.03,4.28c-2.04,2.75-2.81,6.13-2.81,6.13l4.47,1.98-3.32,2.49s1.85,7.28,5.69,10.16c17.25,.83,21.28-.77,21.28-.77,0,0,3.83-7.22,4.35-9.46-2.94-2.49-3.13-2.36-3.13-2.36l4.28-2.17s-1.28-8.88-8.69-10.48c-7.03-.32-12.08,.19-12.08,.19Z"/><path d="M23.51,73.55l-5.03-9.46s-6.34,2.01-8.75,4.83c1.11,2.52,2.11,2.92,2.11,2.92,0,0,9.56,1.41,11.67,1.71Z"/><path class="cls-1" d="M16.63,38.66s.34,3.71,2.11,5.9,4.64,1.77,4.64,1.77l3.63,5.56-.42,8.6-1.77,2.19s-1.43,7.76,.84,11.47c10.88,1.26,17.71,.08,17.71,.08,0,0,2.36-6.41,.51-11.72l-1.69-1.68-.17-9.28s2.87-2.78,3.54-5.31c2.95,.76,5.65-2.45,6.16-4.47s.42-5.65,.42-5.65c0,0-.67-.76-1.35-.25s-2.95,1.26-2.95,1.26l.25-3.88s-.42-7.84-5.06-9.44-20.15,5.48-26.39,14.84Z"/><polygon class="cls-2" points="33.67 62.89 26.15 69.3 27.99 74.34 33.58 74.43 33.67 62.89"/><path class="cls-2" d="M34.23,27.53v28.87l4.33-.63s5.74-6,7-9.53c1.58-5.1,2.44-12.57,2.44-12.57,0,0-3.89-6.77-6.31-7s-4.86,2.13-4.86,2.13l-2.6-1.26Z"/><path class="cls-1" d="M41.29,28.36h0c.09,0,.17,0,.26,.01,1.52,.12,4.26,4.22,4.93,6.46,0,.02,.01,.04,.02,.05-.49,4.31-1.55,8.39-2.4,10.57-.83,2.14-3.74,6.02-6.26,9.03-.77,.17-1.68,.25-2.69,.25-1.46,0-2.89-.17-4.04-.32l-.03-.04-.16-.19c-1.66-2.02-4.17-5.07-5.27-6.74-1.33-2.05-1.79-5.67-1.92-6.97,1.73-1.37,3.31-4.05,5.42-7.64,.83-1.43,1.62-2.75,2.39-4.03,.07,0,.14,0,.22,0,1.9,0,3.9,1.15,4.12,1.28l.06,.03s.06,.03,.09,.05l.09,.05h.02c.1,.04,.2,.08,.32,.1,.09,.02,.18,.03,.28,.03,.38,0,.75-.14,1.05-.42,.02-.02,1.67-1.56,3.51-1.56m0-1c-2.26,0-4.18,1.82-4.2,1.84-.1,.09-.23,.14-.36,.14-.03,0-.06,0-.09,0-.09-.02-.16-.06-.22-.11,0-.01-.02-.01-.03-.01-.45-.27-2.54-1.41-4.63-1.41-.27,0-.55,.02-.81,.06-.99,1.62-1.87,3.11-2.66,4.47-2.26,3.84-3.86,6.56-5.6,7.66h0c0,.06,.32,5.22,2.12,8,1.16,1.77,3.77,4.93,5.49,7.02l.29,.35h.1c1.16,.16,2.78,.37,4.46,.37,1.1,0,2.22-.09,3.24-.35,2.64-3.13,5.74-7.25,6.64-9.57,.9-2.3,2.02-6.65,2.5-11.14-.03-.04-.07-.06-.08-.11-.61-2.05-3.51-7.01-5.82-7.19-.11,0-.23-.01-.34-.01h0Z"/><path d="M38.89,55.83l-14.42,13.28,.34-6.42,2.19-10.79,3.54,4.03s7.3-.09,8.35-.09Z"/><path d="M37.76,17.64s-2.89-7.11-5.77-6.97-7.32,2.53-11.41,8.24-2.68,13.03-2.68,13.03c0,0-2.82,3.59-5.7,1.83,.84,4.93,4.3,5.99,6.97,6.48s3.59-.49,5.14-2.32,5.49-10.28,6.55-10.7,5.91,1.34,5.91,1.34c0,0,.21-8.31,.99-10.91Z"/><path class="cls-14" d="M36.44,15.39s-7.72,5.33-3.49,11.13c-4.6-.09-6.44,5.33-6.44,5.33,0,0-3.4-14.16,3.77-20.87,2.57-.64,4.84,2.16,6.16,4.41Z"/><path class="cls-2" d="M35.67,13.66s-8.27,3.22-4.81,13.56c-.72,.41-.94,.85-.94,.85,0,0-3.73-12.17,2.46-17.25,2.09,.52,3.29,2.84,3.29,2.84Z"/><path class="cls-14" d="M23.2,22.02c-2.04,3.17-2.72,6.91-3.45,10.54-.98,2.28-3.83,3.49-6.1,2.39,0,0,.02-.1,.02-.1,2.11,.48,4.41-.57,5.2-2.63,.1-.81,.28-1.88,.48-2.77,.69-2.72,1.68-5.55,3.77-7.51,0,0,.06,.08,.06,.08h0Z"/><path class="cls-14" d="M18.19,28.62c.67-6.04,3.61-12.02,8.7-15.5,0,0,.06,.08,.06,.08-.48,.64-1.07,1.1-1.5,1.73-2.41,2.8-4.16,6.05-5.58,9.44-.58,1.4-1.07,2.81-1.57,4.25,0,0-.1,0-.1,0h0Z"/><path d="M36.77,28.56l.53-10.82s3.07-1.05,6.83,1.66,4.73,10.16,3.85,15.59c-3.33-6.83-4.47-8.32-6.31-8.32s-4.91,1.89-4.91,1.89Z"/><path class="cls-4" d="M31.56,38.84l.67-3.24s-3.6-3.12-4.76-2.75c-2.14,3.18-2.87,5.07-2.87,5.07,0,0,3.42-1.04,6.96,.92Z"/><path class="cls-4" d="M37.21,38.85l-.86-3.2s2.57-2.75,4.46-2.97,4,.86,4.92,1.66c.23,2.57-.74,3.6-.74,3.6,0,0-1.54-.74-3.55-.46s-4.23,1.37-4.23,1.37Z"/><path class="cls-3" d="M24.38,37.99s1.3-.88,3.34-.53,3.85,1.38,3.85,1.38c0,0-1.37,.72-3.49,.64s-3.7-1.49-3.7-1.49Z"/><path class="cls-3" d="M44.58,37.99s-1.3-.88-3.34-.53-3.85,1.38-3.85,1.38c0,0,1.37,.72,3.49,.64s3.7-1.49,3.7-1.49Z"/><path d="M22.02,39.28s.65,5.55,1.46,6.74c-4.04,.92-5.12-1.13-5.99-3.02s-.75-3.56-.75-3.56c0,0,2.8,.11,5.28-.16Z"/><path class="cls-1" d="M17.7,41.54c1.56,1.51,2.16,2.49,3.47,4.06,0,0-.03,.1-.03,.1-1.93-.45-3.25-2.24-3.54-4.14,0,0,.1-.01,.1-.01h0Z"/><path class="cls-14" d="M41.14,26.79s4-4.52,1.11-8.09c5.2,2.73,5.71,7.84,5.71,7.84,0,0-1.96,2.22-2.39,3.41-1.62-1.87-1.7-2.98-4.43-3.15Z"/><path class="cls-2" d="M25.75,40.96c.75,.07,1.8,.1,2.96-.03,.55-.06,.89,.57,.55,1-.94,1.19-1.57,1.88-1.98,2.28-.3,.29-.78,.21-.98-.16l-1.16-2.19c-.23-.43,.11-.95,.6-.9Z"/><path class="cls-4" d="M43.85,62.6s-2.06,1.52-4.06,1.99v10.52h3.86s2.07-7.42,.2-12.51Z"/><path class="cls-4" d="M42.11,56.11s-1.05,3.25-6.3,3.25v16.1h2.52v-12.6s2.48-.44,3.85-2.02c0-2.73-.07-4.72-.07-4.72Z"/><path d="M34.49,51.45l-2.49-.05s-2.02-1.13-1.73-1.66c1.89-.79,2.84-1.09,2.84-1.09l3.5,.06,2.13,1.03s.43,.3-.35,.84-3.89,.87-3.89,.87Z"/><polygon class="cls-2" points="31.14 49.4 31.6 50.82 32.39 51.03 32.55 50.15 33.26 51.15 35.92 51.12 36.4 50.15 36.84 51.19 37.61 50.75 38.04 49.4 36.61 48.71 32.28 48.62 31.14 49.4"/><path class="cls-18" d="M30.13,49.73c.75,.44,1.54,1.07,2.33,1.25,0,0-.12-.03-.12-.03,1.29,.09,3.5-.02,4.33,.04,.78-.18,1.55-.8,2.3-1.22-.34,.99-.86,1.85-1.84,2.4-1.63,.48-3.36,.5-4.99,.04-1.07-.46-1.64-1.45-1.99-2.46h0Z"/><path class="cls-8" d="M36.64,28.78c-.57-.33-3.45-1.91-6-1.36-4.27,6.91-6.41,11.69-8.95,12.51s-9.46-.61-9.25-6.2c2.54,1.63,5.19-1.73,5.19-1.73,0,0-1.63-16.98,14.03-21.35,3.46-.31,5.8,6.91,5.8,6.91,0,0-.7,5.52-.71,11.16,0,.05-.05,.09-.1,.06Z"/><path class="cls-8" d="M37.51,17.73s4.29-1.75,8.59,3.98,1.01,20.17-.6,24.28c-.99,2.53-4.37,6.93-6.83,9.84-2.84,.78-6.35,.26-8.34,0-1.79-2.17-4.67-5.62-5.94-7.57-1.9-2.92-2.2-8.23-2.2-8.23"/><path class="cls-10" d="M17.63,31.99s1.65-8.34,5.32-11.25c4.64-1.04,11.95,3.53,13.79,8.1,0,0,2.25-2.18,4.93-1.97s5.68,5.57,6.27,7.55"/><path class="cls-9" d="M19.65,20.77s4.66-6.83,10.35-5.79c4.09,.93,6.41,6.36,6.83,8.69"/><path class="cls-8" d="M47.78,36.98l3.16-1.34c.64-.27,1.34,.21,1.32,.9-.07,1.92-.37,5.25-1.62,7.1-.44,.64-.84,1.17-1.19,1.61-.92,1.12-2.44,1.55-3.81,1.09h0"/><path class="cls-8" d="M16.61,39.42c.22,1.53,.63,3.13,1.37,4.22,.44,.64,.84,1.17,1.19,1.61,.92,1.12,2.44,1.55,3.81,1.09h0"/><path d="M39.91,50.42c-1.17-.45-2.41-1-3.63-1.21,0,0,.19,.02,.19,.02-.72,.14-1.44,.23-2.17,.21-.58-.06-1.15-.12-1.73-.28,0,0,.17-.02,.17-.02-1.22,.24-2.44,.81-3.61,1.28,.52-.41,1.04-.8,1.58-1.19,.62-.39,1.16-.93,1.92-1.1,.72-.09,1.54-.04,2.03-.05,0,0-.08,0-.08,0,.67-.04,1.34-.07,2.01,0,1.25,.62,2.24,1.5,3.33,2.34h0Z"/><path d="M35.75,38.47c.82,1.57,1.56,3.17,2.26,4.79-.07,.96-.66,1.78-1.32,2.37,0,0-.51,.45-.51,.45-.11-.26-.27-.92-.47-1.09-.07-.07-.17-.08-.16-.07-.45,.23-.87,.95-1.2,1.36-.32-.42-.72-1.09-1.17-1.35-.08-.03-.08-.02-.15,.02-.2,.11-.39,.77-.5,.99-.76-.71-1.56-1.55-1.63-2.69,.7-1.62,1.44-3.22,2.26-4.79-.43,1.69-.94,3.34-1.49,4.99,0,0,.02-.2,.02-.2,.13,.59,.5,1.11,.99,1.53l-.75,.18c.38-1.19,1.6-1.31,2.35-.38,.18,.19,.33,.38,.48,.57h-.81c.49-.76,1.58-1.73,2.43-.85,.27,.26,.38,.56,.46,.83l-.75-.22c.56-.44,.99-1.01,1.13-1.65,0,0,.02,.2,.02,.2-.55-1.65-1.06-3.3-1.49-4.99h0Z"/><path d="M24.16,43.06c1.25,.96,2.55,2.62,2.59,4.12-1.42-1.07-2.28-2.3-2.65-4.04-.02-.04,0-.12,.06-.08h0Z"/><path d="M44.6,43.14c-1.46,1.19-2.03,2.52-2.7,4.03-.87-1.8,.66-4.13,2.65-4.11,.05,0,.11,.04,.06,.08h0Z"/><path d="M36.34,36.13l-.54-1.38s1.42-.53,3.26-1.94,5.48,0,6.61,1.45c-2.3-1.06-3.89-2.01-5.9-.6s-3.43,2.47-3.43,2.47Z"/><path d="M37.39,37.86c1.55-2.91,4.8-4.7,6.85-1.17-2.67-2.83-4.66-1.09-6.85,1.17h0Z"/><path d="M37.08,38.85c2.44-1.82,5.96-2.83,8.72-1.08,0,0-.67,.47-.67,.47-1.96,1.47-4.7,1.91-6.96,.97,2.29,.17,4.55-.37,6.39-1.78,0,0,.06,.84,.06,.84-2.41-1.06-5.14-.19-7.53,.58h0Z"/><path d="M32.32,36.13l.54-1.38s-1.42-.53-3.26-1.94-5.48,0-6.61,1.45c2.3-1.06,3.89-2.01,5.9-.6s3.43,2.47,3.43,2.47Z"/><path d="M31.28,37.86c-2.2-2.26-4.19-4-6.85-1.17,.35-.63,.86-1.19,1.5-1.58,2.17-1.34,4.37,.96,5.35,2.74h0Z"/><path d="M31.58,38.85c-2.39-.76-5.13-1.64-7.53-.58,0,0,.06-.84,.06-.84,1.84,1.41,4.1,1.94,6.39,1.78-2.26,.93-5.01,.5-6.96-.97,0,0-.67-.47-.67-.47,2.75-1.75,6.28-.74,8.72,1.08h0Z"/><path class="cls-8" d="M26.67,51.35l.08,9.26-1.91,1.99s-1.45,5.59,.69,12.01"/><path class="cls-8" d="M25.6,50.12s-5.89,1.07-8.11,9.95c3.06,1.45,4.44,2.07,4.44,2.07l-3.37,2.45s2.53,7.5,5.36,9.87"/><path class="cls-8" d="M19.97,63.49s-4.5,.84-10.63,5.41"/><path class="cls-8" d="M42.02,51.81l-.08,8.8,1.91,1.99s1.45,5.59-.69,12.01"/><path class="cls-8" d="M43.09,50.12s5.89,1.07,8.11,9.95c-3.06,1.45-4.44,2.07-4.44,2.07l3.37,2.45s-2.53,7.5-5.36,9.87"/><path class="cls-8" d="M48.72,63.49s4.5,.84,10.63,5.41"/><path d="M40.07,69.55c-1.58,.82-3.22,1.51-4.88,2.13,0,0,.29-.31,.29-.31-.28,.9-.68,1.9-1.85,2.01-1.17-.11-1.57-1.1-1.85-2,0,0,.3,.31,.3,.31-1.66-.62-3.29-1.31-4.88-2.13,1.83,.32,3.62,.79,5.38,1.33,.13,.38,.3,.81,.53,1.12,.73,1.07,1.36-.47,1.58-1.12,1.77-.54,3.55-1.01,5.38-1.33h0Z"/></g><path class="cls-14" d="M24.46,51.12s-3.8,1.49-6.03,8.47"/><path class="cls-14" d="M19.47,64.47s-3.92,.58-7.7,4.07"/></g></g><g id="Frame"><path class="cls-5" d="M62.56,4.88C54.4,1.94,45.12,.2,35.25,.02c-.57-.01-1.15-.02-1.72-.02C23.88,0,14.77,1.52,6.72,4.21,2.49,14.22,0,26.6,0,40s2.39,25.22,6.45,35.11c8.16,2.94,17.45,4.69,27.32,4.87,.58,.01,1.15,.02,1.73,.02,9.63,0,18.73-1.51,26.78-4.2,4.24-10.01,6.74-22.39,6.74-35.8s-2.4-25.24-6.46-35.12Zm-4.04,66.86c-7.2,2.16-14.94,3.26-23.02,3.26-.49,0-.98-.01-1.47-.02h-.17c-8.18-.15-16.29-1.47-23.6-3.85-3.45-9.22-5.26-19.93-5.26-31.13s1.89-22.38,5.48-31.73c6.73-2.01,14.13-3.13,21.6-3.26,.48-.01,.97-.01,1.45-.01,.54,0,1.08,.01,1.63,.02,8.16,.15,16.27,1.47,23.59,3.84,3.46,9.24,5.27,19.95,5.27,31.14s-1.89,22.39-5.5,31.74Z"/><path class="cls-16" d="M17.21,2.06h0c1.63,.63,2.06,2.75,.81,3.97l-1.26,1.22s8.35-2.37,18.84-1.69h0c-1-1.49-.45-3.52,1.14-4.34l1-.51S28.26-.43,17.21,2.06Z"/><path class="cls-17" d="M21.81,1.66s.7,2.18-.22,3.1c3.77-.41,7.98-.74,11.12-.74-.33-1.33,1.26-3.4,1.26-3.4,0,0-6.17-.26-12.16,1.03Z"/><path class="cls-16" d="M36.25,79.21h0c-1.52-.87-1.62-3.03-.2-4.04l1.43-1.02s-8.61,1.07-18.88-1.19h0c.76,1.63-.09,3.55-1.79,4.11l-1.07,.36s9.19,2.56,20.5,1.78Z"/><path class="cls-17" d="M19.28,77.8s1.76-1.83,1.3-3.09c4.43,.69,9.11,1.14,12.25,1.14-.33,1.33,.44,3.4,.44,3.4,0,0-8-.16-13.99-1.45Z"/><polygon points="47.48 1.77 47.48 6.73 54.49 8.44 54.49 2.62 47.48 1.77"/><line class="cls-7" x1="45.5" y1="1.23" x2="45.5" y2="6.29"/><line class="cls-7" x1="56.47" y1="3.67" x2="56.47" y2="8.73"/><polygon points="47.48 78.74 47.48 73.78 54.49 72.07 54.49 77.88 47.48 78.74"/><line class="cls-7" x1="45.5" y1="79.28" x2="45.5" y2="74.21"/><line class="cls-7" x1="56.47" y1="76.84" x2="56.47" y2="71.77"/><path d="M33.53,1c.56,0,1.14,0,1.7,.02,9.39,.17,18.33,1.74,26.57,4.65,4.07,10.08,6.22,21.94,6.22,34.33s-2.24,24.79-6.49,34.99c-8.12,2.66-16.87,4.01-26.03,4.01-.56,0-1.12,0-1.71-.02-9.25-.17-18.42-1.78-26.58-4.66C3.15,64.25,1,52.39,1,40S3.23,15.21,7.47,5.02C15.6,2.35,24.37,1,33.53,1m0-1C23.88,0,14.77,1.52,6.72,4.21,2.49,14.22,0,26.6,0,40s2.39,25.22,6.45,35.11c8.16,2.94,17.45,4.69,27.32,4.87,.58,.01,1.15,.02,1.73,.02,9.63,0,18.73-1.51,26.78-4.2,4.24-10.01,6.74-22.39,6.74-35.8s-2.4-25.24-6.46-35.12C54.4,1.94,45.12,.2,35.25,.02c-.57,0-1.15-.02-1.72-.02h0Z"/><path class="cls-16" d="M33.53,6c.52,0,1.04,0,1.61,.02,7.87,.14,15.75,1.4,22.84,3.64,3.3,9,5.04,19.47,5.04,30.34s-1.82,21.82-5.26,30.92c-6.98,2.04-14.47,3.08-22.26,3.08-.48,0-.97,0-1.47-.02h-.15c-7.89-.14-15.78-1.41-22.85-3.65-3.29-8.99-5.03-19.46-5.03-30.33s1.81-21.79,5.24-30.91c6.5-1.89,13.7-2.95,20.86-3.08,.47,0,.96,0,1.43,0m0-1c-.48,0-.97,0-1.45,.01-7.47,.13-14.87,1.25-21.6,3.26-3.59,9.35-5.48,20.26-5.48,31.73s1.81,21.91,5.26,31.13c7.31,2.38,15.42,3.7,23.6,3.85h.17c.49,.01,.98,.02,1.47,.02,8.08,0,15.82-1.1,23.02-3.26,3.61-9.35,5.5-20.27,5.5-31.74s-1.81-21.9-5.27-31.14c-7.32-2.37-15.43-3.69-23.59-3.84-.55,0-1.09-.02-1.63-.02h0Z"/><path d="M33.53,5c.54,0,1.08,.01,1.63,.02,8.16,.15,16.27,1.47,23.59,3.84,3.46,9.24,5.27,19.95,5.27,31.14s-1.89,22.39-5.5,31.74c-7.2,2.16-14.94,3.26-23.02,3.26-.49,0-.98-.01-1.47-.02h-.17c-8.18-.15-16.29-1.47-23.6-3.85-3.45-9.22-5.26-19.93-5.26-31.13s1.89-22.38,5.48-31.73c6.73-2.01,14.13-3.13,21.6-3.26,.48-.01,.97-.01,1.45-.01m0-1c-.49,0-.98,0-1.47,.01-7.51,.13-15.07,1.27-21.87,3.3l-.47,.14-.18,.46c-3.63,9.45-5.55,20.55-5.55,32.09s1.84,22.17,5.32,31.48l.17,.45,.46,.15c7.37,2.4,15.63,3.75,23.89,3.9h.19c.48,.01,.97,.02,1.47,.02,8.16,0,16-1.11,23.31-3.3l.47-.14,.18-.46c3.64-9.43,5.57-20.53,5.57-32.1s-1.84-22.17-5.33-31.49l-.17-.45-.46-.15c-7.39-2.39-15.65-3.74-23.88-3.89-.58-.01-1.12-.02-1.65-.02h0Z"/><path class="cls-11" d="M8.14,7.1s-12.66,32.94,0,66.06"/><path class="cls-11" d="M60.88,7.58s12.66,32.94,0,66.06"/></g></svg>