<svg id="Capa_2" xmlns="http://www.w3.org/2000/svg" xmlns:xlink="http://www.w3.org/1999/xlink" viewBox="0 0 69.02 80">
<defs >
<style >
.cls-1{fill:#c89aed;}.cls-2{fill:#fff;}.cls-3{fill:#f8ffbf;}.cls-4{fill:#7b7be8;}.cls-5,.cls-6{fill:#a88347;}.cls-7{fill:#782ab5;}.cls-8,.cls-9,.cls-6,.cls-10{stroke:#000;stroke-miterlimit:10;}.cls-8,.cls-9,.cls-11,.cls-12,.cls-13,.cls-10{fill:none;}.cls-9,.cls-6,.cls-11,.cls-10{stroke-linecap:round;}.cls-11{stroke:#deb778;stroke-dasharray:0 0 0 4.06;stroke-linejoin:round;}.cls-14{fill:url(#USGS_19_Inundación_de_tierra);}.cls-15{fill:#deb778;}.cls-16{fill:#ffc16b;}.cls-13{stroke:#1d1d1b;stroke-dasharray:0 0 2 2;stroke-width:.3px;}.cls-10{stroke-width:.75px;}.cls-17{fill:#fcf0c5;}.cls-18{fill:#b83521;}
</style>
<pattern id="USGS_19_Inundación_de_tierra" x="0" y="0" width="72" height="72" patternTransform="translate(-164.48 -16135) rotate(-90)" patternUnits="userSpaceOnUse" viewBox="0 0 72 72">
<g >
<rect class="cls-12" width="72" height="72">
</rect>
<g >
<line class="cls-13" x1="71" y1="71" x2="144.44" y2="71">
</line>
<line class="cls-13" x1="71" y1="67" x2="144.44" y2="67">
</line>
<line class="cls-13" x1="71" y1="63" x2="144.44" y2="63">
</line>
<line class="cls-13" x1="71" y1="59" x2="144.44" y2="59">
</line>
<line class="cls-13" x1="71" y1="55" x2="144.44" y2="55">
</line>
<line class="cls-13" x1="71" y1="51" x2="144.44" y2="51">
</line>
<line class="cls-13" x1="71" y1="47" x2="144.44" y2="47">
</line>
<line class="cls-13" x1="71" y1="43" x2="144.44" y2="43">
</line>
<line class="cls-13" x1="71" y1="39" x2="144.44" y2="39">
</line>
<line class="cls-13" x1="71" y1="35" x2="144.44" y2="35">
</line>
<line class="cls-13" x1="71" y1="31" x2="144.44" y2="31">
</line>
<line class="cls-13" x1="71" y1="27" x2="144.44" y2="27">
</line>
<line class="cls-13" x1="71" y1="23" x2="144.44" y2="23">
</line>
<line class="cls-13" x1="71" y1="19" x2="144.44" y2="19">
</line>
<line class="cls-13" x1="71" y1="15" x2="144.44" y2="15">
</line>
<line class="cls-13" x1="71" y1="11" x2="144.44" y2="11">
</line>
<line class="cls-13" x1="71" y1="7" x2="144.44" y2="7">
</line>
<line class="cls-13" x1="71" y1="3" x2="144.44" y2="3">
</line>
</g>
<g >
<line class="cls-13" x1="-1" y1="71" x2="72.44" y2="71">
</line>
<line class="cls-13" x1="-1" y1="67" x2="72.44" y2="67">
</line>
<line class="cls-13" x1="-1" y1="63" x2="72.44" y2="63">
</line>
<line class="cls-13" x1="-1" y1="59" x2="72.44" y2="59">
</line>
<line class="cls-13" x1="-1" y1="55" x2="72.44" y2="55">
</line>
<line class="cls-13" x1="-1" y1="51" x2="72.44" y2="51">
</line>
<line class="cls-13" x1="-1" y1="47" x2="72.44" y2="47">
</line>
<line class="cls-13" x1="-1" y1="43" x2="72.44" y2="43">
</line>
<line class="cls-13" x1="-1" y1="39" x2="72.44" y2="39">
</line>
<line class="cls-13" x1="-1" y1="35" x2="72.44" y2="35">
</line>
<line class="cls-13" x1="-1" y1="31" x2="72.44" y2="31">
</line>
<line class="cls-13" x1="-1" y1="27" x2="72.44" y2="27">
</line>
<line class="cls-13" x1="-1" y1="23" x2="72.44" y2="23">
</line>
<line class="cls-13" x1="-1" y1="19" x2="72.44" y2="19">
</line>
<line class="cls-13" x1="-1" y1="15" x2="72.44" y2="15">
</line>
<line class="cls-13" x1="-1" y1="11" x2="72.44" y2="11">
</line>
<line class="cls-13" x1="-1" y1="7" x2="72.44" y2="7">
</line>
<line class="cls-13" x1="-1" y1="3" x2="72.44" y2="3">
</line>
<line class="cls-13" x1="1.04" y1="69" x2="74.48" y2="69">
</line>
<line class="cls-13" x1="1.04" y1="65" x2="74.48" y2="65">
</line>
<line class="cls-13" x1="1.04" y1="61" x2="74.48" y2="61">
</line>
<line class="cls-13" x1="1.04" y1="57" x2="74.48" y2="57">
</line>
<line class="cls-13" x1="1.04" y1="53" x2="74.48" y2="53">
</line>
<line class="cls-13" x1="1.04" y1="49" x2="74.48" y2="49">
</line>
<line class="cls-13" x1="1.04" y1="45" x2="74.48" y2="45">
</line>
<line class="cls-13" x1="1.04" y1="41" x2="74.48" y2="41">
</line>
<line class="cls-13" x1="1.04" y1="37" x2="74.48" y2="37">
</line>
<line class="cls-13" x1="1.04" y1="33" x2="74.48" y2="33">
</line>
<line class="cls-13" x1="1.04" y1="29" x2="74.48" y2="29">
</line>
<line class="cls-13" x1="1.04" y1="25" x2="74.48" y2="25">
</line>
<line class="cls-13" x1="1.04" y1="21" x2="74.48" y2="21">
</line>
<line class="cls-13" x1="1.04" y1="17" x2="74.48" y2="17">
</line>
<line class="cls-13" x1="1.04" y1="13" x2="74.48" y2="13">
</line>
<line class="cls-13" x1="1.04" y1="9" x2="74.48" y2="9">
</line>
<line class="cls-13" x1="1.04" y1="5" x2="74.48" y2="5">
</line>
<line class="cls-13" x1="1.04" y1="1" x2="74.48" y2="1">
</line>
</g>
<g >
<line class="cls-13" x1="-73" y1="71" x2=".44" y2="71">
</line>
<line class="cls-13" x1="-73" y1="67" x2=".44" y2="67">
</line>
<line class="cls-13" x1="-73" y1="63" x2=".44" y2="63">
</line>
<line class="cls-13" x1="-73" y1="59" x2=".44" y2="59">
</line>
<line class="cls-13" x1="-73" y1="55" x2=".44" y2="55">
</line>
<line class="cls-13" x1="-73" y1="51" x2=".44" y2="51">
</line>
<line class="cls-13" x1="-73" y1="47" x2=".44" y2="47">
</line>
<line class="cls-13" x1="-73" y1="43" x2=".44" y2="43">
</line>
<line class="cls-13" x1="-73" y1="39" x2=".44" y2="39">
</line>
<line class="cls-13" x1="-73" y1="35" x2=".44" y2="35">
</line>
<line class="cls-13" x1="-73" y1="31" x2=".44" y2="31">
</line>
<line class="cls-13" x1="-73" y1="27" x2=".44" y2="27">
</line>
<line class="cls-13" x1="-73" y1="23" x2=".44" y2="23">
</line>
<line class="cls-13" x1="-73" y1="19" x2=".44" y2="19">
</line>
<line class="cls-13" x1="-73" y1="15" x2=".44" y2="15">
</line>
<line class="cls-13" x1="-73" y1="11" x2=".44" y2="11">
</line>
<line class="cls-13" x1="-73" y1="7" x2=".44" y2="7">
</line>
<line class="cls-13" x1="-73" y1="3" x2=".44" y2="3">
</line>
<line class="cls-13" x1="-70.96" y1="69" x2="2.48" y2="69">
</line>
<line class="cls-13" x1="-70.96" y1="65" x2="2.48" y2="65">
</line>
<line class="cls-13" x1="-70.96" y1="61" x2="2.48" y2="61">
</line>
<line class="cls-13" x1="-70.96" y1="57" x2="2.48" y2="57">
</line>
<line class="cls-13" x1="-70.96" y1="53" x2="2.48" y2="53">
</line>
<line class="cls-13" x1="-70.96" y1="49" x2="2.48" y2="49">
</line>
<line class="cls-13" x1="-70.96" y1="45" x2="2.48" y2="45">
</line>
<line class="cls-13" x1="-70.96" y1="41" x2="2.48" y2="41">
</line>
<line class="cls-13" x1="-70.96" y1="37" x2="2.48" y2="37">
</line>
<line class="cls-13" x1="-70.96" y1="33" x2="2.48" y2="33">
</line>
<line class="cls-13" x1="-70.96" y1="29" x2="2.48" y2="29">
</line>
<line class="cls-13" x1="-70.96" y1="25" x2="2.48" y2="25">
</line>
<line class="cls-13" x1="-70.96" y1="21" x2="2.48" y2="21">
</line>
<line class="cls-13" x1="-70.96" y1="17" x2="2.48" y2="17">
</line>
<line class="cls-13" x1="-70.96" y1="13" x2="2.48" y2="13">
</line>
<line class="cls-13" x1="-70.96" y1="9" x2="2.48" y2="9">
</line>
<line class="cls-13" x1="-70.96" y1="5" x2="2.48" y2="5">
</line>
<line class="cls-13" x1="-70.96" y1="1" x2="2.48" y2="1">
</line>
</g>
</g>
</pattern>
</defs>

<g id="Characters">
<g >
<g >
<path class="cls-1" d="M60.2,66.76l-1.37,5.11s-11.14,3.84-22.74,3.65c-11.6-.18-24.84-3.38-24.84-3.38,0,0-1.37-.18-2.28-5.93,2.19-2.19,4.47-1.92,8.4-3.29s8.68-4.29,8.68-4.29l.36-7.49s-2.28-2.28-3.47-3.56c-1.19-1.28-1.37-3.47-1.37-3.47l-2.65-.82s-.36-2.01-.91-3.47c-.55-1.46-1.55-3.2,.64-6.39-.05-.12-.1-.28-.14-.45-.57-2.09-.96-7.31-.96-7.31,0,0-.18-1.28,2.83-3.84-2.92-3.47-.27-8.86,2.65-8.86,2.74-2.83,5.94-1.92,5.94-1.92-1.28,1.83,1.92,1.37,4.2,1.01,2.28-.37,10.13,.27,11.32,3.74,7.21,3.2,4.48,7.22,4.48,7.22l1.82,2.28-1.46,7.94s.06,.08,.16,.23c.32,.5,1.05,1.75,1.12,2.88,.09,1.46-1.55,6.48-1.55,6.48l-2.19,.82-.46,2.01c-.41,1.59-5.02,5.66-5.02,5.66,0,0-.55,3.93,.27,6.03,.82,2.1,3.84,3.93,7.67,5.02,3.11,.46,10.87,4.39,10.87,4.39Z">
</path>
<path class="cls-2" d="M34.18,48.56v-16.42c0-4.26,3.67-7.59,7.91-7.18l1.61,.15,3.15,2.31s1.04,13.85-.85,18.69c-1.74,2.49-3.48,4.33-5.11,5.65-2.69,2.18-6.7,.26-6.7-3.2Z">
</path>
<path class="cls-5" d="M49.33,33.24s.06,.08,.16,.23c-.72,1.71-1.43,3.25-2.03,4.29-.31-7.32-1.02-11.01-1.02-11.01l-2.83-1.58s-2.91,.55-4.64-.71c-3.07,.87-5.35-.39-5.35-.39,0,0-7.55-.94-12.04,2.99-.94,4.25-.94,10.46-.94,10.46,0,0-.99-1.81-2.13-4.54-.57-2.09-.96-7.31-.96-7.31,0,0-.18-1.28,2.83-3.84-2.92-3.47-.27-8.86,2.65-8.86,2.74-2.83,5.94-1.92,5.94-1.92-1.28,1.83,1.92,1.37,4.2,1.01,2.28-.37,10.13,.27,11.32,3.74,7.21,3.2,4.48,7.22,4.48,7.22l1.82,2.28-1.46,7.94Z">
</path>
<path d="M33.94,24.34s-.64-3.67-5.15-3.41-4.95,2.12-8.11,1.16c-3.35,2.25-3.14,3.59-3.14,3.59,0,0,1.33,8.96,2.88,11.21,.51-7.79,1.15-9.82,1.15-9.82,0,0,5.54-5.17,12.36-2.72Z">
</path>
<path d="M50.13,28.39s-1.55-1.93-3.17,.31c.44,3.98,.62,8.64,.62,8.64,0,0,2.49-6.09,2.55-8.95Z">
</path>
<path class="cls-17" d="M49.08,21.2s-6.12-7.56-18.55-2.43c.36-3.87,8.38-6.21,10.9-5.76,3.06,1.71,3.51,2.88,3.51,2.88,0,0,5.04,1.8,4.14,5.31Z">
</path>
<path d="M40.66,52.12l-17.09,22.41-13.19-2.91-1.49-5.74s7.3-2.48,11.49-3.97,5.25-2.62,5.6-4.68,.28-6.52,.28-6.52c0,0,3.76,3.76,6.38,3.9s3.9-.35,4.96-.92,3.05-1.56,3.05-1.56Z">
</path>
<path class="cls-3" d="M30.53,38.93s-2.52-1.98-3.24-2.08c-2.03,.11-3.73,.82-3.73,.82,0,0,.66,3.29,6.97,1.26Z">
</path>
<path class="cls-4" d="M30.91,33.1s1.37,2.32,.05,5.77c-2.46-1.99-3.69-2.17-3.69-2.17l-3.88,1.04s-1.09-2.32,.14-3.59c2.32-1.47,6.38-1.75,7.37-1.04Z">
</path>
<path class="cls-3" d="M36.69,38.93s2.52-1.98,3.24-2.08c2.03,.11,3.73,.82,3.73,.82,0,0-.66,3.29-6.97,1.26Z">
</path>
<path class="cls-4" d="M36.31,33.1s-1.37,2.32-.05,5.77c2.46-1.99,3.69-2.17,3.69-2.17l3.88,1.04s1.09-2.32-.14-3.59c-2.32-1.47-6.38-1.75-7.37-1.04Z">
</path>
<path class="cls-4" d="M36.94,43.1c0,.46-1.34,1.38-2.99,1.38s-2.99-.92-2.99-1.38,1.34-.84,2.99-.84,2.99,.38,2.99,.84Z">
</path>
<path class="cls-2" d="M31.25,48.46l2.87-1.76,2.14,1.89s-.99,1.46-2.62,1.54-2.4-1.67-2.4-1.67Z">
</path>
<path d="M18.65,33.43l2.19,5.64,.46,5.24-2.29-1.44s-1.83-5.04-1.64-6.55,1.28-2.89,1.28-2.89Z">
</path>
<path class="cls-2" d="M37.47,59.9l-9.58,12.87s14.64,1.38,28.24-2.58c1.12-2.15,1.29-2.58,1.29-2.58,0,0-5.42-3.96-13.34-4.99-1.46-.52-2.41-1.5-3.02-2.53-.79-1.32-2.66-1.41-3.58-.18Z">
</path>
<path class="cls-1" d="M30.77,25.82h0c1.24,0,2.22,.15,2.69,.24l.09,.02h.09s9.5,.98,9.5,.98c.58,.3,1.15,.66,1.69,1.06,.98,5.55,.34,13.79-.45,16.76-2.58,3.71-7.4,7.74-10.19,7.74h-.36c-2.79,0-7.61-4.03-10.19-7.74-.79-2.98-1.42-11.2-.45-16.76,2.63-1.89,5.54-2.31,7.58-2.31m0-2c-2.66,0-6.25,.61-9.4,3.18-1.3,6.17-.49,15.71,.43,18.74,2.44,3.63,7.96,8.88,12.02,8.88h.36c4.06,0,9.59-5.25,12.02-8.88,.92-3.03,1.73-12.57,.43-18.74-.98-.8-1.97-1.42-2.94-1.9l-9.87-1.01c-.69-.13-1.77-.28-3.07-.28h0Z">
</path>
<path class="cls-2" d="M23.91,40.18s2.7,1.35,5.83,.85c-4.27,3.98-5.49,1.66-5.83-.85Z">
</path>
<path class="cls-18" d="M35.51,48.12c-.17,.47-.77,1.11-1.68,1.17-.91-.06-1.51-.71-1.68-1.17l-2.15,.27s1,1.73,1.57,2.42c.76,.92,2.22,.78,2.22,.78h.09s1.45,.13,2.22-.78c.57-.69,1.57-2.42,1.57-2.42l-2.15-.27Z">
</path>
<path class="cls-9" d="M34.12,24.21s-1.2-4.82-7.43-2.81-7.76-.2-7.63-3.14,2.01-5.02,4.48-5.62c1.34-1.87,4.95-2.07,5.69-1.61-1.67,1.41,.07,1.74,4.15,.94,0,0,8.5-1.2,11.37,3.88,5.29,2.27,5.55,6.02,3.01,7.69s-5.69,2.07-9.17,.94c-1.61,.74-4.48-.27-4.48-.27Z">
</path>
<path class="cls-9" d="M33.83,24.1c-2.12-.41-7.78-.92-12.47,2.9-1.3,6.17-.49,15.71,.43,18.74,2.44,3.63,7.96,8.88,12.02,8.88">
</path>
<path class="cls-9" d="M34.18,54.63c4.06,0,9.59-5.25,12.02-8.88,.92-3.03,1.73-12.57,.43-18.74-.98-.8-1.97-1.42-2.94-1.9">
</path>
<path class="cls-9" d="M20.84,21.83s-2.63,1.45-3.32,3.54c.43,4.66,.98,8.27,3.16,13.49">
</path>
<path class="cls-9" d="M48.7,22.98c.74,.62,1.41,1.34,1.76,2.39-.43,4.66-.98,8.27-3.16,13.49">
</path>
<path class="cls-9" d="M18.53,33.45s-1.61,1.79-.9,4.71,1.43,4.71,1.43,4.71l2.15,1.19">
</path>
<path class="cls-9" d="M49.5,33.45s1.61,1.79,.9,4.71-1.43,4.71-1.43,4.71l-2.15,1.19">
</path>
<path class="cls-10" d="M37.67,24.72s4.67-1.39,4.67-5.47-3.01-7.65-8.96-7.29">
</path>
<path class="cls-10" d="M44.23,15.23s3.49,6.7-5.07,9.15">
</path>
<path class="cls-10" d="M34.5,24.27s1.66-7.52-2.24-8.35-12.32,6.18-9.22-3.07">
</path>
<path class="cls-10" d="M35.43,24.38s4.07-3.31,3.56-7.56-4.49-4.83-4.49-4.83">
</path>
<path class="cls-9" d="M26.19,50.91s.88,7.03-1.84,9.26-13.73,3.51-17.01,7.27">
</path>
<path class="cls-9" d="M41.44,51.3s-.88,6.64,1.84,8.87,13.73,3.51,17.01,7.27">
</path>
<ellipse class="cls-6" cx="26.84" cy="65.24" rx="4.14" ry="2.77" transform="translate(-41.2 46.61) rotate(-52.33)">
</ellipse>
<path class="cls-18" d="M27.97,66.12c-.58,.76-1.32,1.26-1.94,1.36-.31,.05-.59,.01-.8-.16-.62-.48-.41-1.8,.48-2.95,.88-1.15,2.11-1.69,2.74-1.21,.05,.04,.09,.08,.13,.13,.45,.57,.21,1.77-.61,2.83Z">
</path>
<ellipse class="cls-6" cx="33.85" cy="66.65" rx="4.43" ry="3.23" transform="translate(-33.97 98.08) rotate(-87.94)">
</ellipse>
<path class="cls-18" d="M35.53,66.71c-.06,1.45-.75,2.61-1.6,2.74-.06,0-.12,0-.18,0-.92-.03-1.63-1.32-1.57-2.88,.06-1.53,.83-2.75,1.75-2.75h.03c.92,.03,1.62,1.32,1.57,2.88Z">
</path>
<ellipse class="cls-6" cx="22.31" cy="60.59" rx="4.14" ry="2.77" transform="translate(-23.64 15.23) rotate(-25.16)">
</ellipse>
<ellipse class="cls-18" cx="22.31" cy="60.59" rx="2.63" ry="1.43" transform="translate(-23.64 15.23) rotate(-25.16)">
</ellipse>
<ellipse class="cls-6" cx="40.86" cy="65.24" rx="2.77" ry="4.14" transform="translate(-31.35 38.58) rotate(-37.67)">
</ellipse>
<path class="cls-18" d="M42.65,67.11c-.04,.08-.11,.15-.18,.21-.63,.49-1.86-.05-2.74-1.2-.89-1.15-1.1-2.47-.48-2.96,.05-.03,.09-.06,.15-.09,.65-.31,1.77,.23,2.6,1.3,.77,1.01,1.03,2.16,.65,2.74Z">
</path>
<ellipse class="cls-6" cx="45.39" cy="60.59" rx="2.77" ry="4.14" transform="translate(-28.75 75.91) rotate(-64.84)">
</ellipse>
<path class="cls-18" d="M47.77,61.71c-.06,.13-.16,.24-.28,.32-.54,.41-1.64,.37-2.71-.14-1.32-.62-2.11-1.7-1.77-2.42,.03-.06,.06-.11,.1-.16,.44-.56,1.68-.58,2.89-.01,1.31,.61,2.1,1.69,1.77,2.41Z">
</path>
<path d="M31.31,33.75l-.47-1.54s-3.07-.2-4.88,.28c-2.28,1.14-2.83,2.05-2.83,2.05,0,0,2.32-1.02,3.43-1.18,2.36-.04,4.76,.39,4.76,.39Z">
</path>
<path d="M36.31,33.75l.47-1.54s3.07-.2,4.88,.28c2.28,1.14,2.83,2.05,2.83,2.05,0,0-2.32-1.02-3.43-1.18-2.36-.04-4.76,.39-4.76,.39Z">
</path>
<path d="M23.37,37.79c1.34-.56,2.62-1.19,4.08-1.42,1.31,.49,2.18,1.43,3.27,2.23,0,0,.5,.3,.5,.3-1.2,.59-2.5,.97-3.83,.94-1.09-.01-2.16-.39-3-1.07,.89,.57,1.94,.81,2.99,.7,1-.1,2.02-.45,2.88-.95,0,0-.1,.57-.1,.57-.55-.98-1.86-1.52-2.91-1.72-.55-.06-2.79,.2-3.86,.41h0Z">
</path>
<path d="M44.05,37.79c-1.07-.21-3.32-.48-3.86-.41-1.06,.2-2.36,.74-2.91,1.72,0,0-.1-.57-.1-.57,.85,.5,1.88,.85,2.88,.95,1.04,.11,2.1-.13,2.99-.7-.83,.69-1.91,1.06-3,1.07-1.33,.03-2.63-.35-3.83-.94,0,0,.5-.3,.5-.3,1.09-.8,1.96-1.75,3.27-2.23,1.46,.23,2.74,.86,4.08,1.42h0Z">
</path>
<path d="M25.13,36.21c.68-.61,1.4-1.15,2.33-1.36,.55,.21,1.05,.54,1.46,.96,.38,.4,.71,.87,.86,1.39-.35-.41-.72-.78-1.14-1.08-.4-.32-.84-.57-1.3-.78l.14,.02c-.78,.17-1.57,.58-2.35,.86h0Z">
</path>
<path d="M42.23,36.21c-.77-.28-1.57-.69-2.35-.86,0,0,.14-.02,.14-.02-.46,.21-.9,.47-1.3,.78-.41,.31-.78,.67-1.14,1.08,.15-.53,.48-.99,.86-1.39,.41-.41,.91-.74,1.46-.96,.93,.21,1.65,.74,2.33,1.36h0Z">
</path>
<path d="M31.96,41.28c-.31,.44-.8,.81-.95,1.26-.04,.43-.02,.75,.31,1.15-.74,.1-1.23-.87-.97-1.51,.32-.67,.94-.92,1.61-.9h0Z">
</path>
<path d="M31.65,43.02s.94,.06,1.35,.88c-.9-.19-1.54-.45-1.35-.88Z">
</path>
<path d="M35.49,41.28c.67-.02,1.29,.22,1.61,.9,.26,.64-.23,1.62-.97,1.51,.33-.39,.35-.71,.31-1.15-.14-.46-.63-.82-.95-1.26h0Z">
</path>
<path d="M35.79,43.02s-.94,.06-1.35,.88c.9-.19,1.54-.45,1.35-.88Z">
</path>
<path d="M37.82,48.36s-1.34,.53-3.28-.32c-.29-.14-.52-.24-.7-.3h-.01c-.19,.06-.42,.15-.69,.3-1.92,.85-3.28,.32-3.28,.32,0,0,.75-.41,1.41-1.5,.65-1.1,2.02-1.13,2.58-1.13s1.92,.03,2.58,1.13c.65,1.09,1.41,1.5,1.41,1.5Z">
</path>
</g>
<path class="cls-5" d="M18.6,25.3c.81,1.78,1.07,3.56,1.12,5.48,0,.62-.02,1.26-.18,1.96l-.1,.03c-.65-2.31-1.33-5.26-.83-7.47h0Z">
</path>
<path class="cls-1" d="M18.69,34.86c-.37,1.29,.16,2.14,.46,3.39,.31,1.23,.49,2.48,.44,3.79l-.19-.31c.29,.38,.56,.77,.79,1.24l-.06,.08s-1.08-.83-1.11-.86c-.35-1.88-.97-3.71-1.05-5.63,.02-.63,.18-1.31,.67-1.77l.06,.08h0Z">
</path>
<path class="cls-1" d="M10.75,66.51c1.79-1.66,4.49-3.39,7.04-2.85-2.19,1.42-4.66,1.78-7.04,2.85h0Z">
</path>
<path class="cls-1" d="M27.4,53.03c1.11,.47,.92,1.55,.7,2.47-.19,.84-.61,1.66-1.27,2.25,0,0-.09-.03-.09-.03,.5-1.5,.57-3.11,.56-4.68,0,0,.1,0,.1,0h0Z">
</path>
<path class="cls-16" d="M35.53,66.71c-.06,1.45-.75,2.61-1.6,2.74v-5.62h.03c.92,.03,1.62,1.32,1.57,2.88Z">
</path>
<path class="cls-16" d="M42.65,67.11l-3.25-4.04c.65-.31,1.77,.23,2.6,1.3,.77,1.01,1.03,2.16,.65,2.74Z">
</path>
<path class="cls-16" d="M47.77,61.71c-.06,.13-.16,.24-.28,.32l-4.38-2.72c.44-.56,1.68-.58,2.89-.01,1.31,.61,2.1,1.69,1.77,2.41Z">
</path>
<path class="cls-16" d="M27.97,66.12c-.58,.76-1.32,1.26-1.94,1.36l2.55-4.19c.45,.57,.21,1.77-.61,2.83Z">
</path>
</g>
</g>
 <g
     id="g2850">
    <g
       id="g2837">
      <path
         id="path1951"
         d="M 0.056640625 0.04296875 L 0.056640625 79.943359 L 69.308594 79.943359 L 69.308594 0.04296875 L 0.056640625 0.04296875 z M 33.615234 3.5957031 C 34.206332 3.5957038 34.786991 3.6051034 35.421875 3.6152344 C 44.430653 3.7671809 53.471255 5.1336733 61.560547 7.5546875 L 62.064453 7.7070312 L 62.25 8.1640625 C 66.070247 17.605006 66.990234 28.726438 66.990234 40.0625 C 66.990234 51.398562 65.972723 63.025755 61.988281 72.578125 L 61.791016 73.044922 L 61.275391 73.185547 C 53.273669 75.403966 44.691921 76.529297 35.759766 76.529297 C 35.212453 76.529297 34.675812 76.519896 34.150391 76.509766 L 33.943359 76.509766 C 24.901742 76.357819 15.860367 74.989738 7.7929688 72.558594 L 7.2890625 72.40625 L 7.1035156 71.951172 C 3.2942144 62.520359 2.375 51.369168 2.375 40.0625 C 2.375 28.755832 3.3819737 17.127318 7.3554688 7.5546875 L 7.5527344 7.0898438 L 8.0664062 6.9472656 C 15.509867 4.890923 23.785212 3.7371557 32.005859 3.6054688 C 32.542226 3.5953387 33.078867 3.5957031 33.615234 3.5957031 z "
         style="opacity:1;vector-effect:none;fill:#ffffff;fill-opacity:1;fill-rule:nonzero;stroke:none;stroke-width:1.95200002;stroke-linecap:butt;stroke-linejoin:miter;stroke-miterlimit:4;stroke-dasharray:none;stroke-dashoffset:0;stroke-opacity:1" />
    </g>
    <path
       id="path1154-8-2"
       d="m 33.675163,6.6112954 c 0.557696,0 1.115392,0.00956 1.683415,0.019115 8.427403,0.14336 16.803167,1.4049288 24.363042,3.6700176 3.573384,8.830981 4.443772,19.417362 4.443772,29.761551 0,10.344189 -0.95301,21.39888 -4.68131,30.334991 -7.435942,2.064385 -15.429581,3.274388 -23.774362,3.274388 -0.506058,0 -1.012115,-0.0096 -1.518172,-0.01911 h -0.17557 C 25.56792,73.508883 17.192156,72.088619 9.6426089,69.813973 6.0795528,61.002107 5.2088244,50.415411 5.2088244,40.061979 c 0,-10.353432 0.95335,-21.389323 4.6609939,-30.325434 C 16.820359,7.8155201 24.462856,6.7450981 32.177647,6.6208528 c 0.49573,-0.00956 1.001787,-0.00956 1.497516,-0.00956 m 0,-0.9557337 c -0.506057,0 -1.012114,0 -1.518171,0.00956 C 24.40089,5.7893644 16.593149,6.8789009 9.570315,8.8190405 L 9.0849131,8.9528432 8.8990146,9.3924808 C 5.1500599,18.424166 4.1999116,29.394246 4.1999116,40.061979 c 0,10.667733 0.8675267,21.188618 4.461566,30.0865 l 0.1755708,0.430081 0.4750741,0.14336 c 7.6115135,2.293761 16.1421925,3.584001 24.6728715,3.727361 h 0.196227 c 0.495729,0.0096 1.001786,0.01911 1.518171,0.01911 8.427403,0 16.524318,-1.060864 24.073866,-3.153921 l 0.485403,-0.133802 0.185898,-0.439639 c 3.759282,-9.01257 4.719759,-19.983589 4.719759,-30.679055 0,-10.695466 -0.867528,-21.188618 -4.471894,-30.0960578 L 60.516853,9.5358409 60.041779,9.3924808 C 52.409609,7.108277 43.87893,5.8180364 35.379234,5.6746763 34.780227,5.6651187 34.232859,5.6555621 33.675163,5.6555615 Z"
       style="fill:#ff0000;stroke:#ffffff;stroke-width:1.84341729;stroke-miterlimit:4;stroke-dasharray:none" />
    <path
       id="path1154"
       d="m 33.614853,4.6077955 c 0.591098,0 1.182197,0.01013 1.784241,0.02026 8.932155,0.1519464 17.809578,1.4890758 25.822246,3.8898304 3.787408,9.3599041 4.709928,20.5803481 4.709928,31.5440931 0,10.963745 -1.01009,22.680548 -4.961693,32.151879 -7.881312,2.18803 -16.353723,3.302304 -25.198307,3.302304 -0.536368,0 -1.072735,-0.01013 -1.609102,-0.02026 H 33.97608 C 25.022033,75.343956 16.14461,74.006827 8.1428892,71.595943 4.3664269,62.256298 3.443547,51.035521 3.443547,40.061979 c 0,-10.973542 1.01045,-22.670418 4.9401601,-32.1417498 7.3668369,-2.036083 15.4670749,-3.170617 23.6439369,-3.3023039 0.525421,-0.01013 1.061788,-0.01013 1.587209,-0.01013 m 0,-1.0129766 c -0.536367,0 -1.072734,0 -1.609101,0.01013 C 23.785105,3.7366356 15.509726,4.891429 8.0662653,6.9477716 L 7.5517907,7.0895883 7.3547579,7.5555576 C 3.3812628,17.128188 2.3742062,28.755311 2.3742062,40.061979 c 0,11.306668 0.9194864,22.457692 4.7287876,31.888505 l 0.1860865,0.45584 0.5035283,0.151947 c 8.0673984,2.431144 17.1090154,3.798662 26.1506324,3.950608 h 0.207979 c 0.525421,0.01013 1.061788,0.02026 1.609101,0.02026 8.932155,0 17.514028,-1.124404 25.51575,-3.342823 l 0.514475,-0.141816 0.197032,-0.46597 c 3.984442,-9.55237 5.002445,-21.180489 5.002445,-32.516551 0,-11.336062 -0.919487,-22.457692 -4.739734,-31.8986353 L 62.064202,7.7075041 61.560674,7.5555576 C 53.471382,5.1345434 44.429765,3.7670249 35.420987,3.6150784 c -0.634884,-0.01013 -1.215036,-0.020259 -1.806134,-0.02026 z"
       style="fill:#000000;stroke:#000000;stroke-width:1.95382714;stroke-miterlimit:4;stroke-dasharray:none" />
    <g
       id="g1810">
      <path
         d="M 6.5134911,7.7433673 C 5.6489029,6.8479453 4.058602,6.5681013 3.6272194,7.3820013 3.284151,8.0292783 3.3625296,8.5309135 4.395235,8.9201755 3.2963719,9.5187755 1.4857674,9.4447465 1.1893447,7.4467713 0.95320848,5.8551433 2.674739,4.8863543 3.1399725,5.0916244 3.0034432,3.6818714 1.8221094,4.0692802 0.95849208,3.2813384 0.34259068,2.7194046 0.23126071,-0.02624603 0.0561761,0.04378767 -0.0138576,0.21887227 2.7317937,0.33020157 3.2937267,0.94610377 4.0816685,1.8097211 3.6942598,2.9910547 5.1040128,3.1275841 4.8987425,2.6623507 5.8675315,0.94082017 7.4591593,1.1769564 9.4571345,1.4733791 9.5311625,3.2839847 8.9325635,4.3828467 8.5433008,3.3501417 8.041666,3.2717627 7.3943894,3.6148312 6.5804899,4.0462137 6.8603354,5.6365129 7.7557553,6.5011023"
         style="fill:#000000;stroke:#000000;stroke-width:0.1112323px;stroke-linecap:butt;stroke-linejoin:miter;stroke-opacity:1"
         id="path1737-3" />
      <path
         d="m 62.850738,7.7433673 c 0.864588,-0.895422 2.454889,-1.175266 2.886271,-0.361366 0.343069,0.647277 0.26469,1.148912 -0.768015,1.538174 1.098863,0.5986 2.909467,0.524571 3.20589,-1.473404 0.236136,-1.591628 -1.485394,-2.560417 -1.950628,-2.3551469 0.13653,-1.409753 1.317863,-1.0223442 2.181481,-1.810286 0.615901,-0.5619338 0.727231,-3.30758442 0.902316,-3.23755072 0.07003,0.1750846 -2.675618,0.2864139 -3.237551,0.9023161 C 65.28256,1.8097211 65.669969,2.9910547 64.260216,3.1275841 64.465486,2.6623507 63.496697,0.94082018 61.905069,1.1769564 c -1.997975,0.2964227 -2.072003,2.1070283 -1.473404,3.2058903 0.389263,-1.032705 0.890898,-1.111084 1.538174,-0.7680155 0.8139,0.4313825 0.534054,2.0216817 -0.361366,2.8862711"
         style="fill:#000000;stroke:#000000;stroke-width:0.1112323px;stroke-linecap:butt;stroke-linejoin:miter;stroke-opacity:1"
         id="path1737-3-5" />
      <path
         d="m 62.850738,72.244244 c 0.864588,0.895422 2.454889,1.175266 2.886272,0.361366 0.343068,-0.647277 0.264689,-1.148912 -0.768016,-1.538174 1.098863,-0.5986 2.909468,-0.524571 3.20589,1.473404 0.236137,1.591628 -1.485394,2.560417 -1.950628,2.355147 0.13653,1.409753 1.317864,1.022344 2.181481,1.810286 0.615901,0.561934 0.727231,3.307584 0.902316,3.237551 0.07003,-0.175085 -2.675618,-0.286414 -3.237551,-0.902317 -0.787942,-0.863617 -0.400533,-2.04495 -1.810286,-2.18148 0.20527,0.465234 -0.763519,2.186764 -2.355146,1.950628 -1.997976,-0.296423 -2.072004,-2.107028 -1.473405,-3.20589 0.389263,1.032705 0.890898,1.111084 1.538175,0.768015 0.813899,-0.431382 0.534054,-2.021682 -0.361366,-2.886271"
         style="fill:#000000;stroke:#000000;stroke-width:0.1112323px;stroke-linecap:butt;stroke-linejoin:miter;stroke-opacity:1"
         id="path1737-3-7" />
      <path
         d="M 6.513491,72.244245 C 5.648903,73.139667 4.058602,73.419511 3.62722,72.605611 3.284151,71.958334 3.36253,71.456699 4.395235,71.067437 c -1.098863,-0.5986 -2.909467,-0.524571 -3.20589,1.473404 -0.23613599,1.591628 1.485394,2.560417 1.950628,2.355147 -0.13653,1.409753 -1.317863,1.022344 -2.18148099,1.810286 -0.615901,0.561933 -0.727231,3.307584 -0.902316,3.23755 C -0.01385399,79.76874 2.731794,79.65741 3.293727,79.041508 4.081669,78.177891 3.69426,76.996557 5.104013,76.860028 4.898743,77.325261 5.867532,79.046792 7.45916,78.810656 9.457135,78.514233 9.531163,76.703627 8.932564,75.604765 8.543301,76.63747 8.041666,76.715849 7.39439,76.372781 6.58049,75.941398 6.860336,74.351099 7.755756,73.48651"
         style="fill:#000000;stroke:#000000;stroke-width:0.1112323px;stroke-linecap:butt;stroke-linejoin:miter;stroke-opacity:1"
         id="path1737-3-5-5" />
    </g>
    <path
       id="path1154-9"
       d="m 33.712865,7.4258691 c 0.536813,0 1.07363,0.00933 1.620386,0.01865 8.111875,0.1398689 16.174044,1.3707167 23.450873,3.5806479 3.439594,8.615932 4.277395,18.944521 4.277395,29.036812 0,10.092292 -0.917329,20.877786 -4.506039,29.596289 -7.157536,2.014114 -14.851888,3.03982 -22.884234,3.03982 -0.487111,0 -0.974221,-0.0094 -1.461331,-0.01865 H 34.040918 C 25.909161,72.53957 17.846991,71.308722 10.580105,69.089467 7.1504515,60.492184 6.3123238,50.163289 6.3123238,40.061979 c 0,-10.101311 0.9176558,-20.868461 4.4864832,-29.586965 6.690308,-1.8742449 14.046665,-2.9186005 21.472608,-3.0398203 0.47717,-0.00933 0.964281,-0.00933 1.44145,-0.00933 m 0,-0.9324602 c -0.487111,0 -0.974221,0 -1.46133,0.00933 C 24.785826,6.6239532 17.270413,7.686958 10.510517,9.5798526 L 10.043289,9.710397 9.8643508,10.139328 c -3.6085914,8.811751 -4.5231655,19.514693 -4.5231655,29.922651 0,10.407958 0.8350459,20.672644 4.294522,29.353849 l 0.1689973,0.419608 0.4572874,0.13987 c 7.326533,2.237904 15.537818,3.496724 23.749103,3.636593 h 0.188879 c 0.47717,0.0094 0.96428,0.01865 1.461331,0.01865 8.111875,0 15.905636,-1.035031 23.172525,-3.077119 l 0.467228,-0.130544 0.178938,-0.428932 c 3.618533,-8.793101 4.543048,-19.496959 4.543048,-29.931975 0,-10.435016 -0.835047,-20.672644 -4.304463,-29.363174 l -0.168997,-0.419609 -0.457288,-0.13987 C 51.74588,7.9107484 43.534594,6.6519271 35.353133,6.512058 34.776554,6.502738 34.249678,6.493409 33.712865,6.493409 Z"
       style="fill:#000000;stroke:none;stroke-width:1.78642213;stroke-miterlimit:4;stroke-dasharray:none" />
    <path
       id="path1154-9-3"
       d="m 33.712865,7.4258686 c 0.536813,0 1.07363,0.00933 1.620386,0.01865 8.111875,0.1398689 16.174044,1.3707167 23.450873,3.5806484 3.439594,8.615932 4.277395,18.944521 4.277395,29.036812 0,10.092292 -0.917329,20.877786 -4.506039,29.596288 -7.157536,2.014114 -14.851888,3.03982 -22.884234,3.03982 -0.487111,0 -0.974221,-0.0094 -1.461331,-0.01865 H 34.040918 C 25.909161,72.539569 17.846991,71.308722 10.580105,69.089466 7.1504515,60.492184 6.3123238,50.163288 6.3123238,40.061979 c 0,-10.101312 0.9176558,-20.868461 4.4864832,-29.586965 6.690308,-1.8742454 14.046665,-2.918601 21.472608,-3.0398208 0.47717,-0.00933 0.964281,-0.00933 1.44145,-0.00933 m 0,-0.9324602 c -0.487111,0 -0.974221,0 -1.46133,0.00933 C 24.785826,6.6239527 17.270413,7.6869575 10.510517,9.5798521 L 10.043289,9.7103965 9.8643508,10.139328 C 6.2557594,18.951079 5.3411853,29.65402 5.3411853,40.061979 c 0,10.407958 0.8350459,20.672643 4.294522,29.353849 l 0.1689973,0.419608 0.4572874,0.13987 c 7.326533,2.237904 15.537818,3.496724 23.749103,3.636593 h 0.188879 c 0.47717,0.0094 0.96428,0.01865 1.461331,0.01865 8.111875,0 15.905636,-1.035032 23.172525,-3.077119 l 0.467228,-0.130544 0.178938,-0.428932 c 3.618533,-8.793101 4.543048,-19.49696 4.543048,-29.931975 0,-10.435016 -0.835047,-20.672644 -4.304463,-29.363175 l -0.168997,-0.419609 -0.457288,-0.13987 C 51.74588,7.9107479 43.534594,6.6519266 35.353133,6.5120575 34.776554,6.5027375 34.249678,6.4934085 33.712865,6.4934085 Z"
       style="fill:#000000;stroke:none;stroke-width:1.78642213;stroke-miterlimit:4;stroke-dasharray:none" />
  </g>
</svg>
