<svg id="Capa_2" xmlns="http://www.w3.org/2000/svg" xmlns:xlink="http://www.w3.org/1999/xlink" viewBox="0 0 69.02 80">
<defs >
<style >
.cls-1{fill:#c89aed;}.cls-2{fill:#fff;}.cls-3{fill:#f8ffbf;}.cls-4{fill:#7b7be8;}.cls-5{fill:#a88347;}.cls-6{fill:#782ab5;}.cls-7,.cls-8,.cls-9,.cls-10,.cls-11,.cls-12{fill:none;}.cls-7,.cls-8,.cls-13,.cls-10{stroke:#000;stroke-miterlimit:10;}.cls-8,.cls-9,.cls-13,.cls-10{stroke-linecap:round;}.cls-14{fill:#1c46ff;}.cls-9{stroke:#deb778;stroke-dasharray:0 0 0 4.06;stroke-linejoin:round;}.cls-15{fill:url(#USGS_19_Inundación_de_tierra);}.cls-10{stroke-width:.5px;}.cls-16{fill:#deb778;}.cls-17{fill:#ffc16b;}.cls-12{stroke:#1d1d1b;stroke-dasharray:0 0 2 2;stroke-width:.3px;}.cls-18{fill:#fcf0c5;}.cls-19{fill:#b83521;}
</style>
<pattern id="USGS_19_Inundación_de_tierra" x="0" y="0" width="72" height="72" patternTransform="translate(-236.48 -16135) rotate(-90)" patternUnits="userSpaceOnUse" viewBox="0 0 72 72">
<g >
<rect class="cls-11" width="72" height="72">
</rect>
<g >
<line class="cls-12" x1="71" y1="71" x2="144.44" y2="71">
</line>
<line class="cls-12" x1="71" y1="67" x2="144.44" y2="67">
</line>
<line class="cls-12" x1="71" y1="63" x2="144.44" y2="63">
</line>
<line class="cls-12" x1="71" y1="59" x2="144.44" y2="59">
</line>
<line class="cls-12" x1="71" y1="55" x2="144.44" y2="55">
</line>
<line class="cls-12" x1="71" y1="51" x2="144.44" y2="51">
</line>
<line class="cls-12" x1="71" y1="47" x2="144.44" y2="47">
</line>
<line class="cls-12" x1="71" y1="43" x2="144.44" y2="43">
</line>
<line class="cls-12" x1="71" y1="39" x2="144.44" y2="39">
</line>
<line class="cls-12" x1="71" y1="35" x2="144.44" y2="35">
</line>
<line class="cls-12" x1="71" y1="31" x2="144.44" y2="31">
</line>
<line class="cls-12" x1="71" y1="27" x2="144.44" y2="27">
</line>
<line class="cls-12" x1="71" y1="23" x2="144.44" y2="23">
</line>
<line class="cls-12" x1="71" y1="19" x2="144.44" y2="19">
</line>
<line class="cls-12" x1="71" y1="15" x2="144.44" y2="15">
</line>
<line class="cls-12" x1="71" y1="11" x2="144.44" y2="11">
</line>
<line class="cls-12" x1="71" y1="7" x2="144.44" y2="7">
</line>
<line class="cls-12" x1="71" y1="3" x2="144.44" y2="3">
</line>
</g>
<g >
<line class="cls-12" x1="-1" y1="71" x2="72.44" y2="71">
</line>
<line class="cls-12" x1="-1" y1="67" x2="72.44" y2="67">
</line>
<line class="cls-12" x1="-1" y1="63" x2="72.44" y2="63">
</line>
<line class="cls-12" x1="-1" y1="59" x2="72.44" y2="59">
</line>
<line class="cls-12" x1="-1" y1="55" x2="72.44" y2="55">
</line>
<line class="cls-12" x1="-1" y1="51" x2="72.44" y2="51">
</line>
<line class="cls-12" x1="-1" y1="47" x2="72.44" y2="47">
</line>
<line class="cls-12" x1="-1" y1="43" x2="72.44" y2="43">
</line>
<line class="cls-12" x1="-1" y1="39" x2="72.44" y2="39">
</line>
<line class="cls-12" x1="-1" y1="35" x2="72.44" y2="35">
</line>
<line class="cls-12" x1="-1" y1="31" x2="72.44" y2="31">
</line>
<line class="cls-12" x1="-1" y1="27" x2="72.44" y2="27">
</line>
<line class="cls-12" x1="-1" y1="23" x2="72.44" y2="23">
</line>
<line class="cls-12" x1="-1" y1="19" x2="72.44" y2="19">
</line>
<line class="cls-12" x1="-1" y1="15" x2="72.44" y2="15">
</line>
<line class="cls-12" x1="-1" y1="11" x2="72.44" y2="11">
</line>
<line class="cls-12" x1="-1" y1="7" x2="72.44" y2="7">
</line>
<line class="cls-12" x1="-1" y1="3" x2="72.44" y2="3">
</line>
<line class="cls-12" x1="1.04" y1="69" x2="74.48" y2="69">
</line>
<line class="cls-12" x1="1.04" y1="65" x2="74.48" y2="65">
</line>
<line class="cls-12" x1="1.04" y1="61" x2="74.48" y2="61">
</line>
<line class="cls-12" x1="1.04" y1="57" x2="74.48" y2="57">
</line>
<line class="cls-12" x1="1.04" y1="53" x2="74.48" y2="53">
</line>
<line class="cls-12" x1="1.04" y1="49" x2="74.48" y2="49">
</line>
<line class="cls-12" x1="1.04" y1="45" x2="74.48" y2="45">
</line>
<line class="cls-12" x1="1.04" y1="41" x2="74.48" y2="41">
</line>
<line class="cls-12" x1="1.04" y1="37" x2="74.48" y2="37">
</line>
<line class="cls-12" x1="1.04" y1="33" x2="74.48" y2="33">
</line>
<line class="cls-12" x1="1.04" y1="29" x2="74.48" y2="29">
</line>
<line class="cls-12" x1="1.04" y1="25" x2="74.48" y2="25">
</line>
<line class="cls-12" x1="1.04" y1="21" x2="74.48" y2="21">
</line>
<line class="cls-12" x1="1.04" y1="17" x2="74.48" y2="17">
</line>
<line class="cls-12" x1="1.04" y1="13" x2="74.48" y2="13">
</line>
<line class="cls-12" x1="1.04" y1="9" x2="74.48" y2="9">
</line>
<line class="cls-12" x1="1.04" y1="5" x2="74.48" y2="5">
</line>
<line class="cls-12" x1="1.04" y1="1" x2="74.48" y2="1">
</line>
</g>
<g >
<line class="cls-12" x1="-73" y1="71" x2=".44" y2="71">
</line>
<line class="cls-12" x1="-73" y1="67" x2=".44" y2="67">
</line>
<line class="cls-12" x1="-73" y1="63" x2=".44" y2="63">
</line>
<line class="cls-12" x1="-73" y1="59" x2=".44" y2="59">
</line>
<line class="cls-12" x1="-73" y1="55" x2=".44" y2="55">
</line>
<line class="cls-12" x1="-73" y1="51" x2=".44" y2="51">
</line>
<line class="cls-12" x1="-73" y1="47" x2=".44" y2="47">
</line>
<line class="cls-12" x1="-73" y1="43" x2=".44" y2="43">
</line>
<line class="cls-12" x1="-73" y1="39" x2=".44" y2="39">
</line>
<line class="cls-12" x1="-73" y1="35" x2=".44" y2="35">
</line>
<line class="cls-12" x1="-73" y1="31" x2=".44" y2="31">
</line>
<line class="cls-12" x1="-73" y1="27" x2=".44" y2="27">
</line>
<line class="cls-12" x1="-73" y1="23" x2=".44" y2="23">
</line>
<line class="cls-12" x1="-73" y1="19" x2=".44" y2="19">
</line>
<line class="cls-12" x1="-73" y1="15" x2=".44" y2="15">
</line>
<line class="cls-12" x1="-73" y1="11" x2=".44" y2="11">
</line>
<line class="cls-12" x1="-73" y1="7" x2=".44" y2="7">
</line>
<line class="cls-12" x1="-73" y1="3" x2=".44" y2="3">
</line>
<line class="cls-12" x1="-70.96" y1="69" x2="2.48" y2="69">
</line>
<line class="cls-12" x1="-70.96" y1="65" x2="2.48" y2="65">
</line>
<line class="cls-12" x1="-70.96" y1="61" x2="2.48" y2="61">
</line>
<line class="cls-12" x1="-70.96" y1="57" x2="2.48" y2="57">
</line>
<line class="cls-12" x1="-70.96" y1="53" x2="2.48" y2="53">
</line>
<line class="cls-12" x1="-70.96" y1="49" x2="2.48" y2="49">
</line>
<line class="cls-12" x1="-70.96" y1="45" x2="2.48" y2="45">
</line>
<line class="cls-12" x1="-70.96" y1="41" x2="2.48" y2="41">
</line>
<line class="cls-12" x1="-70.96" y1="37" x2="2.48" y2="37">
</line>
<line class="cls-12" x1="-70.96" y1="33" x2="2.48" y2="33">
</line>
<line class="cls-12" x1="-70.96" y1="29" x2="2.48" y2="29">
</line>
<line class="cls-12" x1="-70.96" y1="25" x2="2.48" y2="25">
</line>
<line class="cls-12" x1="-70.96" y1="21" x2="2.48" y2="21">
</line>
<line class="cls-12" x1="-70.96" y1="17" x2="2.48" y2="17">
</line>
<line class="cls-12" x1="-70.96" y1="13" x2="2.48" y2="13">
</line>
<line class="cls-12" x1="-70.96" y1="9" x2="2.48" y2="9">
</line>
<line class="cls-12" x1="-70.96" y1="5" x2="2.48" y2="5">
</line>
<line class="cls-12" x1="-70.96" y1="1" x2="2.48" y2="1">
</line>
</g>
</g>
</pattern>
</defs>

<g id="Characters">
<g >
<g >
<path class="cls-1" d="M54.82,63.75c-.22-.1-.45-.19-.68-.29-1.34-2.22,.14-15.97,.29-18.11,.15-2.15,.52-11.24-1.55-19.44-2.07-8.21-6.28-9.76-6.28-9.76,0,0-2.37-3.62-7.99-3.4-8.2-.22-15.67,3.92-17.29,7.47-1.63,3.55-3.4,10.42,.37,14.78,.01,.06,.01,.12,.02,.18,.15,1.4,.6,3.2,.97,4.48,.26,.95,.48,1.62,.48,1.62,0,0-3.03,7.54-4.13,11.46-1.02,3.62-.41,9.88-.31,10.82,0,.08,0,.12,0,.12,0,0-.37,.22-3.03,.89-1.85,.29-5.77,3.91-5.77,3.91l.3,2.66s5.84,2.96,21.14,3.85,27.35-3.03,27.35-3.03l1.7-5.32s-1.66-1.19-5.6-2.89Zm-34.37-.63s0-.07-.01-.21c-.04-1.38-.16-9.22,2.08-13.4-.6,5.28,.84,11.41,1.02,12.17,0,.05,.02,.08,.02,.08l-3.11,1.36Z">
</path>
<path class="cls-2" d="M36.92,49.82V30.8c0-3.62,1.99-6.86,5.05-8.79,.02-.01,.04-.03,.07-.04,2.6-1.89,4.09-.31,4.09-.31,0,0,2.52,.87,2.75,6.84s-.16,13.61-.79,15.81c-.68,2.27-3.95,5.86-7.34,7.76-1.71,.96-3.83-.29-3.83-2.26Z">
</path>
<path class="cls-5" d="M29.48,49.48l-.29,8.09s-2.02,2.5-5.65,4.11c-.18-.76-1.62-6.89-1.02-12.17-2.24,4.18-2.12,12.02-2.08,13.4-.94,.37-1.45,.55-1.72,.65-.1-.94-.71-7.2,.31-10.82,1.1-3.92,4.13-11.46,4.13-11.46,0,0-.22-.67-.48-1.62,.42,.91,1,1.66,1.75,1.92,.67,3.43,1.81,5.62,5.05,7.9Z">
</path>
<path class="cls-5" d="M54.82,63.75l-.02,.1s-6.19-2.28-8.66-3.8c-2-1.05-2.77-2.48-2.77-2.48l-.19-7.33s4.48-3.71,4.95-5.71c.48-2,.48-2.67,.48-2.67,0,0,2-1.33,2.38-3.23,.57-2.76,.67-3.24,.67-3.24,0,0-.48-2.09-2.38-2.76-.1-6.95-.86-11.42-5.05-12.09-3.9,2.76-7.04,3.33-9.61,2.57s-4-2.38-5.81-2.19-3.52,1.52-4.19,3.24c-.66,1.71-.38,13.23-.38,13.23l-1.81-3.43s-.57,.43-.72,1.22c-.01-.06-.01-.12-.02-.18-3.77-4.36-2-11.23-.37-14.78,1.62-3.55,9.09-7.69,17.29-7.47,5.62-.22,7.99,3.4,7.99,3.4,0,0,4.21,1.55,6.28,9.76,2.07,8.2,1.7,17.29,1.55,19.44-.15,2.14-1.63,15.89-.29,18.11,.23,.1,.46,.19,.68,.29Z">
</path>
<path class="cls-3" d="M34.25,36.96s-3.03-1.83-4.02-1.93c-2.77,.31-3.55,1.1-3.55,1.1,0,0,2.04,2.09,4.23,2.04s3.35-1.2,3.35-1.2Z">
</path>
<path class="cls-3" d="M39.76,36.96s3.03-1.83,4.02-1.93c2.77,.31,3.55,1.1,3.55,1.1,0,0-2.04,2.09-4.23,2.04s-3.35-1.2-3.35-1.2Z">
</path>
<ellipse class="cls-4" cx="36.63" cy="42.12" rx="2.89" ry="1.3">
</ellipse>
<path class="cls-4" d="M25.71,35.62s-.86-2.57,1.36-3.38c3.23-.91,7.52,1.21,7.98,1.62-.71,2.37-.8,3.1-.8,3.1,0,0-2.74-1.82-4.02-1.93-2.69,.29-4.51,.6-4.51,.6Z">
</path>
<path class="cls-4" d="M48.23,35.62s.86-2.57-1.36-3.38c-3.23-.91-7.52,1.21-7.98,1.62,.71,2.37,.8,3.1,.8,3.1,0,0,2.74-1.82,4.02-1.93,2.69,.29,4.51,.6,4.51,.6Z">
</path>
<path d="M22.3,34.32s-.97,.63-.63,2.22,.75,4.28,1.48,4.73,1.31,.57,1.31,.57l-.28-3.99-1.88-3.53Z">
</path>
<path d="M42.75,50.84l-18.48,23.22-13.52-2.88-.5-3.38s4.24-3.09,6.69-3.59,9.99-3.09,12.22-6.33c.22-4.89,.43-7.55,.43-7.55,0,0,3.16,2.23,4.31,2.66s5.25,.22,6.33-.5,2.52-1.65,2.52-1.65Z">
</path>
<path class="cls-5" d="M36.82,72.99c1.45-1.03,3.98-2.2,3.98-4.42s-2.61-6.07-3.98-7.41c-1.37,1.33-3.99,5.12-3.99,7.41s2.54,3.4,3.99,4.42Z">
</path>
<path d="M45.78,59.38s1.19,10.51-3.29,14.61c7.12,.81,16.07-2.48,16.07-2.48l1.46-5.66s-2.86-1.73-6.52-2.05c-5.52-2.32-7.71-4.42-7.71-4.42Z">
</path>
<path class="cls-14" d="M45.78,60.19s.65,5.99-.7,9.11c3.45-2.75,12.35-1.08,13.48,2.21,1.13-3.72,1.4-5.34,1.4-5.34,0,0-3.18-2.26-6.25-2.59-4.26-1.89-7.93-3.4-7.93-3.4Z">
</path>
<path class="cls-18" d="M46.16,16.37s-1.59-4.1-6.75,.29-14.62,1.71-12.75-.75c3.49-2.97,14.79-6.39,19.5,.45Z">
</path>
<path d="M23.68,41.24s-4.64,8.08-4.96,15.53c-.08,5.12,.48,7.44,.48,7.44l1.25-1.1s-.69-9.23,2.35-14.27c-.48,7.2,.8,13.93,.8,13.93l6.72-4-.08-9.05s-4.16-2.56-4.64-4.24-.96-4.32-.96-4.32l-.96,.08Z">
</path>
<path d="M51.63,34.84s3.06,4.23,2.79,8.29c-.45,6.39-.46,18.33-.28,20.33-4.23-.52-9.09-3.4-10.17-5.29-.99-4.5-.63-8.38-.63-8.38,0,0,4.72-3.86,4.79-5.26,.07-1.67,.16-2.12,.16-2.12,0,0,1.44-.81,2.07-2.16s1.26-5.4,1.26-5.4Z">
</path>
<path class="cls-2" d="M43.38,59.68l1.12,.93s.53,4.56-2.25,7.01c-1.06-3.64-2.98-6.42-2.98-6.42,0,0,3.04-.6,4.1-1.52Z">
</path>
<path class="cls-1" d="M44.46,22.31c.86,.34,1.53,.8,1.99,1.34,1.69,2.15,1.43,11.96,.22,19.82-.27,1.76-3.05,4.63-7.43,7.68-.71,.5-1.53,.77-2.35,.8h-.57c-.91-.02-1.77-.29-2.49-.79-4.39-3.06-7.17-5.93-7.43-7.68-1.2-7.88-1.46-17.69,.19-19.78,.38-.46,1.05-.76,1.71-1.05,.17-.03,.36-.04,.54-.04,1.1,0,2.31,.49,3.43,1,1.63,.78,3.43,1.19,5.21,1.19,.21,0,.42,0,.58-.02,2.2-.02,4.11-1.13,5.54-2.11,.26-.13,.54-.25,.87-.35m.04-1.05c-.5,.13-.98,.3-1.43,.54-1.48,1.02-3.17,1.95-5.03,1.97-.19,.01-.38,.02-.57,.02-1.66,0-3.3-.39-4.78-1.1-1.26-.58-2.58-1.1-3.86-1.1-.28,0-.57,.03-.85,.08h-.02c-.79,.36-1.61,.73-2.15,1.37-2.17,2.75-1.4,14.09-.41,20.58,.32,2.08,3.11,5.04,7.85,8.35,.89,.62,1.94,.95,3.04,.97h.59c1.04-.03,2.05-.36,2.93-.98,4.74-3.3,7.52-6.27,7.84-8.34,1-6.48,1.78-17.8-.42-20.59-.64-.76-1.56-1.36-2.73-1.77h0Z">
</path>
<path class="cls-2" d="M27.01,38.93s2.23,1.25,6.11,.26c-3.94,3.61-5.52,2.5-6.11-.26Z">
</path>
<path class="cls-19" d="M31.84,45.59s1.22,4.15,4.79,4.15,4.65-4.15,4.65-4.15c0,0-1.7-1.41-9.44,0Z">
</path>
<path class="cls-8" d="M9.47,69.24c.26-.09,3-4.63,9.18-5.49,4.63-1.56,7.67-3.59,9.29-4.89,.91-.73,1.43-1.82,1.43-2.98v-6.2">
</path>
<path class="cls-8" d="M63.09,69.24c-.26-.09-3-4.63-9.18-5.49-4.63-1.56-7.67-3.59-9.29-4.89-.91-.73-1.43-1.82-1.43-2.98v-5.77">
</path>
<path class="cls-8" d="M27.84,21.19c-.85,.38-1.77,.78-2.41,1.53-2.6,3.29-1.21,16.47-.52,20.98,.45,2.91,4.93,6.5,8.06,8.68,.98,.68,2.12,1.05,3.31,1.06,.2,0,.4,0,.61,0,1.15-.03,2.26-.41,3.2-1.06,3.13-2.18,7.6-5.77,8.04-8.67,.7-4.51,2.08-17.69-.52-20.98-.81-.96-1.9-1.57-3-1.95">
</path>
<path d="M47.93,21.01c-1.78-.19-3.42,.03-4.86,.79-1.48,1.01-3.17,1.95-5.03,1.97-1.86,.1-3.7-.3-5.35-1.09-1.55-.71-3.2-1.34-4.75-1.01-.27,.06-.54-.12-.59-.39-.06-.27,.12-.54,.39-.59,1.88-.39,3.72,.33,5.37,1.08,2.25,1.03,4.93,1.31,7.24,.37,.81-.33,1.45-.87,2.26-1.25,1.66-.86,3.82-.94,5.33,.12h0Z">
</path>
<path class="cls-8" d="M21.54,35.55s-2.52-3.58-2.14-8.08,1.37-8.69,6.86-11.74,13.8-5.72,19.9,.15c7.02,3.05,8.16,17.62,8.31,24.25s-1.3,18.65-.31,23.53">
</path>
<path class="cls-8" d="M23.37,41.27s-1.45,3.28-2.97,7.09-2.67,11.59-1.53,15.18">
</path>
<path class="cls-8" d="M20.47,63.08s-.93-7.94,2.14-14.11c-.46,8.08,.84,12.73,.84,12.73">
</path>
<path d="M22.1,28.31c-.38,3.3,.84,6.47,2.47,9.28,.15,.24,.06,.56-.19,.7-.22,.12-.5,.05-.64-.15-2.02-2.74-2.81-6.61-1.64-9.83h0Z">
</path>
<path class="cls-8" d="M22.18,33.9s-.81,1.03-.29,3.23,.7,4.33,2.75,4.55">
</path>
<path class="cls-8" d="M51.01,33.9s.81,1.03,.29,3.23-.7,4.33-2.75,4.55">
</path>
<path class="cls-8" d="M49.1,32.3s4.67,2.15,5.19,10.47">
</path>
<path d="M26.07,32.6c3.34-1.65,6.39-1.6,9.37,.76,0,0-.55,.83-.55,.83-1.3-.67-2.69-1.59-4.13-1.79-1.52-.21-3.13,.06-4.69,.2h0Z">
</path>
<path d="M34.25,36.97c-1.28-.64-2.63-1.18-4.03-1.45-.66,.14-2.7,.48-3.79,.84,0,0,.22-.81,.22-.81,1.25,1.26,2.82,2.32,4.66,2.38,.61,.05,1.23,0,1.85-.16-1.72,1.03-4.03,.82-5.67-.3-.78-.47-1.48-1.17-2.14-1.81,1.63-.53,3.3-.92,5.02-.95,1.46,.44,2.78,1.23,3.88,2.26h0Z">
</path>
<path d="M35.07,39.72c-.72,.67-1.65,1.57-.62,2.32,0,0-.45,0-.45,0,.37-.28,.78-.54,1.18-.78,.32,.42,.6,.87,1.09,1.19-.52,0-.99-.29-1.38-.63,0,0,.39,.04,.39,.04-.33,.34-.69,.64-1.05,.94-1.69-1.12-.92-2.75,.85-3.08h0Z">
</path>
<path d="M38.4,39.72c1.77,.33,2.54,1.96,.85,3.08-.36-.3-.72-.6-1.05-.94,0,0,.39-.04,.39-.04-.39,.34-.86,.63-1.38,.63,.49-.32,.77-.77,1.09-1.19,.4,.24,.81,.5,1.18,.78,0,0-.45,0-.45,0,1.03-.75,.1-1.65-.62-2.32h0Z">
</path>
<path d="M36.34,33.46c.04,.76-.36,1.48-.96,1.94,0,0,.16-.48,.16-.48,.34,.9,.51,1.9,.19,2.83-.18-.81-.32-1.86-.65-2.72,.8-.53,.89-1.06,1.26-1.57h0Z">
</path>
<path d="M26.83,35.29c1.54-1.44,4.04-1.79,5.63-.27-1.61-1.28-3.93-.79-5.22,.67,0,0-.41-.4-.41-.4h0Z">
</path>
<path d="M47.74,32.6c-1.55-.14-3.17-.42-4.69-.2-1.43,.2-2.83,1.12-4.13,1.79,0,0-.55-.83-.55-.83,2.97-2.36,6.03-2.41,9.37-.76h0Z">
</path>
<path d="M39.56,36.97c1.09-1.04,2.42-1.83,3.88-2.26,1.72,.04,3.39,.42,5.02,.95-1.13,1.15-2.38,2.23-3.98,2.63-1.29,.3-2.7,.15-3.83-.52,.62,.15,1.24,.21,1.85,.16,1.84-.06,3.41-1.12,4.66-2.38,0,0,.22,.81,.22,.81-1.08-.36-3.14-.7-3.79-.84-1.39,.27-2.74,.82-4.03,1.45h0Z">
</path>
<path d="M37.52,33.45c.51,.55,1,1.04,1.63,1.39-.07,.57-.31,1.09-.47,1.63-.2,.39-.3,.96-.6,1.28,.05-.84,.26-2.07,.57-2.66-.47-.36-1.13-1.11-1.13-1.64h0Z">
</path>
<path d="M46.56,35.69c-1.29-1.46-3.61-1.95-5.22-.67,.39-.31,.8-.61,1.29-.78,1.49-.59,3.18,.03,4.34,1.05,0,0-.41,.4-.41,.4h0Z">
</path>
<path d="M41.21,45.61c-.19,.41-.52,1-1.08,1.55-.74,.73-1.86,1.38-3.55,1.42-1.62,0-2.76-.69-3.51-1.42-.82-.78-1.17-1.59-1.17-1.59,.12-.04,.25-.09,.36-.13,.02,0,.04,0,.06-.02,3.4-1.17,6.07-.64,8.13-.04,.26,.08,.51,.14,.75,.22Z">
</path>
<path class="cls-2" d="M41.21,45.61c-.19,.41-.52,1-1.08,1.55-.59-.62-1.02-.84-1.02-.84l-.44,.58s-1.03,.32-2.07,.32-2.08-.32-2.08-.32l-.44-.58s-.42,.22-1.02,.85c-.82-.78-1.17-1.59-1.17-1.59,.12-.04,.25-.09,.36-.13,.02,0,.04,0,.06-.02,3.05-.8,6.5-.35,8.13-.04,.26,.08,.51,.14,.75,.22Z">
</path>
<path d="M42.22,44.99c-.34,1.14-1.97,.69-2.79,.67-.94-.05-1.9-.07-2.85-.06-1.5-.03-2.82,.06-4.33,.18-.51-.01-1.22-.22-1.31-.78,.35,.39,.84,.31,1.25,.19,1.33-.55,2.94-.81,4.4-.8,1.46-.01,3.07,.25,4.4,.8,.41,.11,.91,.19,1.25-.2h0Z">
</path>
<path class="cls-13" d="M28.99,57.72c0,1.07,3.27,1.94,7.31,1.94s7.31-.87,7.31-1.94l-.42-3.67c0,1.01-3.09,1.83-6.89,1.83s-6.89-.82-6.89-1.83l-.42,3.67Z">
</path>
<path class="cls-8" d="M21.05,63.19s-2.36,5.57,.92,10.83">
</path>
<path class="cls-8" d="M27.22,59.68s-2.29,9,3.81,15.48">
</path>
<path class="cls-8" d="M51.64,63.19s2.36,5.57-.92,10.83">
</path>
<path class="cls-8" d="M45.47,59.68s2.29,9-3.81,15.48">
</path>
<path class="cls-19" d="M38.99,68.51c0,1.19-1.33,1.83-2.12,2.39-.02,.01-.03,.02-.05,.03-.79-.56-2.18-1.2-2.18-2.42s1.43-3.31,2.18-4.04l.05,.05c.76,.78,2.12,2.78,2.12,3.99Z">
</path>
<path class="cls-8" d="M36.82,72.99c1.45-1.03,3.98-2.2,3.98-4.42s-2.61-6.07-3.98-7.41c-1.37,1.33-3.99,5.12-3.99,7.41s2.54,3.4,3.99,4.42Z">
</path>
<path class="cls-10" d="M31.92,21.72s-7.29-3.56-9.42-2.85">
</path>
<path class="cls-10" d="M41.97,22.1s-1.34-.29-4.35-3.64-5.53-4.52-10.17-3.22">
</path>
<path class="cls-10" d="M43.14,21.13s.29-3.18-2.72-5.74-6.57-2.3-6.57-2.3">
</path>
<path class="cls-10" d="M45.87,20.84s1.55-2.68,.13-5.11">
</path>
<path class="cls-10" d="M48.42,23.81s3.98,.17,5.07,5.65">
</path>
</g>
<path class="cls-14" d="M11.22,68.83s1.55-3.36,6.46-4.07">
</path>
<path class="cls-5" d="M19.17,59.59c-.16-3.51,.18-7.78,2.17-10.58-.27,1.85-.63,3.48-.91,5.28-.32,1.35-.57,4.13-1.26,5.3h0Z">
</path>
<path class="cls-1" d="M30.29,52.04c2.06,7.09-.92,9.77-7.46,11.58-.72,.15-1.43,.34-2.17,.41l-.03-.09c2.65-1.05,5.38-2.14,7.65-3.88,2.26-1.87,2.02-5.33,1.91-8,0,0,.1-.01,.1-.01h0Z">
</path>
<path class="cls-17" d="M38.99,68.51c0,1.19-1.33,1.83-2.12,2.39v-6.38c.76,.78,2.12,2.78,2.12,3.99Z">
</path>
</g>
</g>
 <g
     id="g2850">
    <g
       id="g2837">
      <path
         id="path1951"
         d="M 0.056640625 0.04296875 L 0.056640625 79.943359 L 69.308594 79.943359 L 69.308594 0.04296875 L 0.056640625 0.04296875 z M 33.615234 3.5957031 C 34.206332 3.5957038 34.786991 3.6051034 35.421875 3.6152344 C 44.430653 3.7671809 53.471255 5.1336733 61.560547 7.5546875 L 62.064453 7.7070312 L 62.25 8.1640625 C 66.070247 17.605006 66.990234 28.726438 66.990234 40.0625 C 66.990234 51.398562 65.972723 63.025755 61.988281 72.578125 L 61.791016 73.044922 L 61.275391 73.185547 C 53.273669 75.403966 44.691921 76.529297 35.759766 76.529297 C 35.212453 76.529297 34.675812 76.519896 34.150391 76.509766 L 33.943359 76.509766 C 24.901742 76.357819 15.860367 74.989738 7.7929688 72.558594 L 7.2890625 72.40625 L 7.1035156 71.951172 C 3.2942144 62.520359 2.375 51.369168 2.375 40.0625 C 2.375 28.755832 3.3819737 17.127318 7.3554688 7.5546875 L 7.5527344 7.0898438 L 8.0664062 6.9472656 C 15.509867 4.890923 23.785212 3.7371557 32.005859 3.6054688 C 32.542226 3.5953387 33.078867 3.5957031 33.615234 3.5957031 z "
         style="opacity:1;vector-effect:none;fill:#ffffff;fill-opacity:1;fill-rule:nonzero;stroke:none;stroke-width:1.95200002;stroke-linecap:butt;stroke-linejoin:miter;stroke-miterlimit:4;stroke-dasharray:none;stroke-dashoffset:0;stroke-opacity:1" />
    </g>
    <path
       id="path1154-8-2"
       d="m 33.675163,6.6112954 c 0.557696,0 1.115392,0.00956 1.683415,0.019115 8.427403,0.14336 16.803167,1.4049288 24.363042,3.6700176 3.573384,8.830981 4.443772,19.417362 4.443772,29.761551 0,10.344189 -0.95301,21.39888 -4.68131,30.334991 -7.435942,2.064385 -15.429581,3.274388 -23.774362,3.274388 -0.506058,0 -1.012115,-0.0096 -1.518172,-0.01911 h -0.17557 C 25.56792,73.508883 17.192156,72.088619 9.6426089,69.813973 6.0795528,61.002107 5.2088244,50.415411 5.2088244,40.061979 c 0,-10.353432 0.95335,-21.389323 4.6609939,-30.325434 C 16.820359,7.8155201 24.462856,6.7450981 32.177647,6.6208528 c 0.49573,-0.00956 1.001787,-0.00956 1.497516,-0.00956 m 0,-0.9557337 c -0.506057,0 -1.012114,0 -1.518171,0.00956 C 24.40089,5.7893644 16.593149,6.8789009 9.570315,8.8190405 L 9.0849131,8.9528432 8.8990146,9.3924808 C 5.1500599,18.424166 4.1999116,29.394246 4.1999116,40.061979 c 0,10.667733 0.8675267,21.188618 4.461566,30.0865 l 0.1755708,0.430081 0.4750741,0.14336 c 7.6115135,2.293761 16.1421925,3.584001 24.6728715,3.727361 h 0.196227 c 0.495729,0.0096 1.001786,0.01911 1.518171,0.01911 8.427403,0 16.524318,-1.060864 24.073866,-3.153921 l 0.485403,-0.133802 0.185898,-0.439639 c 3.759282,-9.01257 4.719759,-19.983589 4.719759,-30.679055 0,-10.695466 -0.867528,-21.188618 -4.471894,-30.0960578 L 60.516853,9.5358409 60.041779,9.3924808 C 52.409609,7.108277 43.87893,5.8180364 35.379234,5.6746763 34.780227,5.6651187 34.232859,5.6555621 33.675163,5.6555615 Z"
       style="fill:#ff0000;stroke:#ffffff;stroke-width:1.84341729;stroke-miterlimit:4;stroke-dasharray:none" />
    <path
       id="path1154"
       d="m 33.614853,4.6077955 c 0.591098,0 1.182197,0.01013 1.784241,0.02026 8.932155,0.1519464 17.809578,1.4890758 25.822246,3.8898304 3.787408,9.3599041 4.709928,20.5803481 4.709928,31.5440931 0,10.963745 -1.01009,22.680548 -4.961693,32.151879 -7.881312,2.18803 -16.353723,3.302304 -25.198307,3.302304 -0.536368,0 -1.072735,-0.01013 -1.609102,-0.02026 H 33.97608 C 25.022033,75.343956 16.14461,74.006827 8.1428892,71.595943 4.3664269,62.256298 3.443547,51.035521 3.443547,40.061979 c 0,-10.973542 1.01045,-22.670418 4.9401601,-32.1417498 7.3668369,-2.036083 15.4670749,-3.170617 23.6439369,-3.3023039 0.525421,-0.01013 1.061788,-0.01013 1.587209,-0.01013 m 0,-1.0129766 c -0.536367,0 -1.072734,0 -1.609101,0.01013 C 23.785105,3.7366356 15.509726,4.891429 8.0662653,6.9477716 L 7.5517907,7.0895883 7.3547579,7.5555576 C 3.3812628,17.128188 2.3742062,28.755311 2.3742062,40.061979 c 0,11.306668 0.9194864,22.457692 4.7287876,31.888505 l 0.1860865,0.45584 0.5035283,0.151947 c 8.0673984,2.431144 17.1090154,3.798662 26.1506324,3.950608 h 0.207979 c 0.525421,0.01013 1.061788,0.02026 1.609101,0.02026 8.932155,0 17.514028,-1.124404 25.51575,-3.342823 l 0.514475,-0.141816 0.197032,-0.46597 c 3.984442,-9.55237 5.002445,-21.180489 5.002445,-32.516551 0,-11.336062 -0.919487,-22.457692 -4.739734,-31.8986353 L 62.064202,7.7075041 61.560674,7.5555576 C 53.471382,5.1345434 44.429765,3.7670249 35.420987,3.6150784 c -0.634884,-0.01013 -1.215036,-0.020259 -1.806134,-0.02026 z"
       style="fill:#000000;stroke:#000000;stroke-width:1.95382714;stroke-miterlimit:4;stroke-dasharray:none" />
    <g
       id="g1810">
      <path
         d="M 6.5134911,7.7433673 C 5.6489029,6.8479453 4.058602,6.5681013 3.6272194,7.3820013 3.284151,8.0292783 3.3625296,8.5309135 4.395235,8.9201755 3.2963719,9.5187755 1.4857674,9.4447465 1.1893447,7.4467713 0.95320848,5.8551433 2.674739,4.8863543 3.1399725,5.0916244 3.0034432,3.6818714 1.8221094,4.0692802 0.95849208,3.2813384 0.34259068,2.7194046 0.23126071,-0.02624603 0.0561761,0.04378767 -0.0138576,0.21887227 2.7317937,0.33020157 3.2937267,0.94610377 4.0816685,1.8097211 3.6942598,2.9910547 5.1040128,3.1275841 4.8987425,2.6623507 5.8675315,0.94082017 7.4591593,1.1769564 9.4571345,1.4733791 9.5311625,3.2839847 8.9325635,4.3828467 8.5433008,3.3501417 8.041666,3.2717627 7.3943894,3.6148312 6.5804899,4.0462137 6.8603354,5.6365129 7.7557553,6.5011023"
         style="fill:#000000;stroke:#000000;stroke-width:0.1112323px;stroke-linecap:butt;stroke-linejoin:miter;stroke-opacity:1"
         id="path1737-3" />
      <path
         d="m 62.850738,7.7433673 c 0.864588,-0.895422 2.454889,-1.175266 2.886271,-0.361366 0.343069,0.647277 0.26469,1.148912 -0.768015,1.538174 1.098863,0.5986 2.909467,0.524571 3.20589,-1.473404 0.236136,-1.591628 -1.485394,-2.560417 -1.950628,-2.3551469 0.13653,-1.409753 1.317863,-1.0223442 2.181481,-1.810286 0.615901,-0.5619338 0.727231,-3.30758442 0.902316,-3.23755072 0.07003,0.1750846 -2.675618,0.2864139 -3.237551,0.9023161 C 65.28256,1.8097211 65.669969,2.9910547 64.260216,3.1275841 64.465486,2.6623507 63.496697,0.94082018 61.905069,1.1769564 c -1.997975,0.2964227 -2.072003,2.1070283 -1.473404,3.2058903 0.389263,-1.032705 0.890898,-1.111084 1.538174,-0.7680155 0.8139,0.4313825 0.534054,2.0216817 -0.361366,2.8862711"
         style="fill:#000000;stroke:#000000;stroke-width:0.1112323px;stroke-linecap:butt;stroke-linejoin:miter;stroke-opacity:1"
         id="path1737-3-5" />
      <path
         d="m 62.850738,72.244244 c 0.864588,0.895422 2.454889,1.175266 2.886272,0.361366 0.343068,-0.647277 0.264689,-1.148912 -0.768016,-1.538174 1.098863,-0.5986 2.909468,-0.524571 3.20589,1.473404 0.236137,1.591628 -1.485394,2.560417 -1.950628,2.355147 0.13653,1.409753 1.317864,1.022344 2.181481,1.810286 0.615901,0.561934 0.727231,3.307584 0.902316,3.237551 0.07003,-0.175085 -2.675618,-0.286414 -3.237551,-0.902317 -0.787942,-0.863617 -0.400533,-2.04495 -1.810286,-2.18148 0.20527,0.465234 -0.763519,2.186764 -2.355146,1.950628 -1.997976,-0.296423 -2.072004,-2.107028 -1.473405,-3.20589 0.389263,1.032705 0.890898,1.111084 1.538175,0.768015 0.813899,-0.431382 0.534054,-2.021682 -0.361366,-2.886271"
         style="fill:#000000;stroke:#000000;stroke-width:0.1112323px;stroke-linecap:butt;stroke-linejoin:miter;stroke-opacity:1"
         id="path1737-3-7" />
      <path
         d="M 6.513491,72.244245 C 5.648903,73.139667 4.058602,73.419511 3.62722,72.605611 3.284151,71.958334 3.36253,71.456699 4.395235,71.067437 c -1.098863,-0.5986 -2.909467,-0.524571 -3.20589,1.473404 -0.23613599,1.591628 1.485394,2.560417 1.950628,2.355147 -0.13653,1.409753 -1.317863,1.022344 -2.18148099,1.810286 -0.615901,0.561933 -0.727231,3.307584 -0.902316,3.23755 C -0.01385399,79.76874 2.731794,79.65741 3.293727,79.041508 4.081669,78.177891 3.69426,76.996557 5.104013,76.860028 4.898743,77.325261 5.867532,79.046792 7.45916,78.810656 9.457135,78.514233 9.531163,76.703627 8.932564,75.604765 8.543301,76.63747 8.041666,76.715849 7.39439,76.372781 6.58049,75.941398 6.860336,74.351099 7.755756,73.48651"
         style="fill:#000000;stroke:#000000;stroke-width:0.1112323px;stroke-linecap:butt;stroke-linejoin:miter;stroke-opacity:1"
         id="path1737-3-5-5" />
    </g>
    <path
       id="path1154-9"
       d="m 33.712865,7.4258691 c 0.536813,0 1.07363,0.00933 1.620386,0.01865 8.111875,0.1398689 16.174044,1.3707167 23.450873,3.5806479 3.439594,8.615932 4.277395,18.944521 4.277395,29.036812 0,10.092292 -0.917329,20.877786 -4.506039,29.596289 -7.157536,2.014114 -14.851888,3.03982 -22.884234,3.03982 -0.487111,0 -0.974221,-0.0094 -1.461331,-0.01865 H 34.040918 C 25.909161,72.53957 17.846991,71.308722 10.580105,69.089467 7.1504515,60.492184 6.3123238,50.163289 6.3123238,40.061979 c 0,-10.101311 0.9176558,-20.868461 4.4864832,-29.586965 6.690308,-1.8742449 14.046665,-2.9186005 21.472608,-3.0398203 0.47717,-0.00933 0.964281,-0.00933 1.44145,-0.00933 m 0,-0.9324602 c -0.487111,0 -0.974221,0 -1.46133,0.00933 C 24.785826,6.6239532 17.270413,7.686958 10.510517,9.5798526 L 10.043289,9.710397 9.8643508,10.139328 c -3.6085914,8.811751 -4.5231655,19.514693 -4.5231655,29.922651 0,10.407958 0.8350459,20.672644 4.294522,29.353849 l 0.1689973,0.419608 0.4572874,0.13987 c 7.326533,2.237904 15.537818,3.496724 23.749103,3.636593 h 0.188879 c 0.47717,0.0094 0.96428,0.01865 1.461331,0.01865 8.111875,0 15.905636,-1.035031 23.172525,-3.077119 l 0.467228,-0.130544 0.178938,-0.428932 c 3.618533,-8.793101 4.543048,-19.496959 4.543048,-29.931975 0,-10.435016 -0.835047,-20.672644 -4.304463,-29.363174 l -0.168997,-0.419609 -0.457288,-0.13987 C 51.74588,7.9107484 43.534594,6.6519271 35.353133,6.512058 34.776554,6.502738 34.249678,6.493409 33.712865,6.493409 Z"
       style="fill:#000000;stroke:none;stroke-width:1.78642213;stroke-miterlimit:4;stroke-dasharray:none" />
    <path
       id="path1154-9-3"
       d="m 33.712865,7.4258686 c 0.536813,0 1.07363,0.00933 1.620386,0.01865 8.111875,0.1398689 16.174044,1.3707167 23.450873,3.5806484 3.439594,8.615932 4.277395,18.944521 4.277395,29.036812 0,10.092292 -0.917329,20.877786 -4.506039,29.596288 -7.157536,2.014114 -14.851888,3.03982 -22.884234,3.03982 -0.487111,0 -0.974221,-0.0094 -1.461331,-0.01865 H 34.040918 C 25.909161,72.539569 17.846991,71.308722 10.580105,69.089466 7.1504515,60.492184 6.3123238,50.163288 6.3123238,40.061979 c 0,-10.101312 0.9176558,-20.868461 4.4864832,-29.586965 6.690308,-1.8742454 14.046665,-2.918601 21.472608,-3.0398208 0.47717,-0.00933 0.964281,-0.00933 1.44145,-0.00933 m 0,-0.9324602 c -0.487111,0 -0.974221,0 -1.46133,0.00933 C 24.785826,6.6239527 17.270413,7.6869575 10.510517,9.5798521 L 10.043289,9.7103965 9.8643508,10.139328 C 6.2557594,18.951079 5.3411853,29.65402 5.3411853,40.061979 c 0,10.407958 0.8350459,20.672643 4.294522,29.353849 l 0.1689973,0.419608 0.4572874,0.13987 c 7.326533,2.237904 15.537818,3.496724 23.749103,3.636593 h 0.188879 c 0.47717,0.0094 0.96428,0.01865 1.461331,0.01865 8.111875,0 15.905636,-1.035032 23.172525,-3.077119 l 0.467228,-0.130544 0.178938,-0.428932 c 3.618533,-8.793101 4.543048,-19.49696 4.543048,-29.931975 0,-10.435016 -0.835047,-20.672644 -4.304463,-29.363175 l -0.168997,-0.419609 -0.457288,-0.13987 C 51.74588,7.9107479 43.534594,6.6519266 35.353133,6.5120575 34.776554,6.5027375 34.249678,6.4934085 33.712865,6.4934085 Z"
       style="fill:#000000;stroke:none;stroke-width:1.78642213;stroke-miterlimit:4;stroke-dasharray:none" />
  </g>
</svg>
