<svg id="Capa_2" xmlns="http://www.w3.org/2000/svg" xmlns:xlink="http://www.w3.org/1999/xlink" viewBox="0 0 69.02 80">
<defs >
<style >
.cls-1{fill:#c89aed;}.cls-2{fill:#fff;}.cls-3{fill:#f8ffbf;}.cls-4{fill:#7b7be8;}.cls-5{fill:#a88347;}.cls-6{fill:#782ab5;}.cls-7,.cls-8,.cls-9,.cls-10,.cls-11,.cls-12{fill:none;}.cls-7,.cls-8,.cls-13,.cls-10{stroke:#000;stroke-miterlimit:10;}.cls-8,.cls-9,.cls-13,.cls-10{stroke-linecap:round;}.cls-14{fill:#1c46ff;}.cls-9{stroke:#deb778;stroke-dasharray:0 0 0 4.06;stroke-linejoin:round;}.cls-15{fill:url(#USGS_19_Inundación_de_tierra);}.cls-10{stroke-width:.5px;}.cls-16{fill:#deb778;}.cls-17{fill:#ffc16b;}.cls-12{stroke:#1d1d1b;stroke-dasharray:0 0 2 2;stroke-width:.3px;}.cls-18{fill:#fcf0c5;}.cls-19{fill:#b83521;}
</style>
<pattern id="USGS_19_Inundación_de_tierra" x="0" y="0" width="72" height="72" patternTransform="translate(-236.48 -16135) rotate(-90)" patternUnits="userSpaceOnUse" viewBox="0 0 72 72">
<g >
<rect class="cls-11" width="72" height="72">
</rect>
<g >
<line class="cls-12" x1="71" y1="71" x2="144.44" y2="71">
</line>
<line class="cls-12" x1="71" y1="67" x2="144.44" y2="67">
</line>
<line class="cls-12" x1="71" y1="63" x2="144.44" y2="63">
</line>
<line class="cls-12" x1="71" y1="59" x2="144.44" y2="59">
</line>
<line class="cls-12" x1="71" y1="55" x2="144.44" y2="55">
</line>
<line class="cls-12" x1="71" y1="51" x2="144.44" y2="51">
</line>
<line class="cls-12" x1="71" y1="47" x2="144.44" y2="47">
</line>
<line class="cls-12" x1="71" y1="43" x2="144.44" y2="43">
</line>
<line class="cls-12" x1="71" y1="39" x2="144.44" y2="39">
</line>
<line class="cls-12" x1="71" y1="35" x2="144.44" y2="35">
</line>
<line class="cls-12" x1="71" y1="31" x2="144.44" y2="31">
</line>
<line class="cls-12" x1="71" y1="27" x2="144.44" y2="27">
</line>
<line class="cls-12" x1="71" y1="23" x2="144.44" y2="23">
</line>
<line class="cls-12" x1="71" y1="19" x2="144.44" y2="19">
</line>
<line class="cls-12" x1="71" y1="15" x2="144.44" y2="15">
</line>
<line class="cls-12" x1="71" y1="11" x2="144.44" y2="11">
</line>
<line class="cls-12" x1="71" y1="7" x2="144.44" y2="7">
</line>
<line class="cls-12" x1="71" y1="3" x2="144.44" y2="3">
</line>
</g>
<g >
<line class="cls-12" x1="-1" y1="71" x2="72.44" y2="71">
</line>
<line class="cls-12" x1="-1" y1="67" x2="72.44" y2="67">
</line>
<line class="cls-12" x1="-1" y1="63" x2="72.44" y2="63">
</line>
<line class="cls-12" x1="-1" y1="59" x2="72.44" y2="59">
</line>
<line class="cls-12" x1="-1" y1="55" x2="72.44" y2="55">
</line>
<line class="cls-12" x1="-1" y1="51" x2="72.44" y2="51">
</line>
<line class="cls-12" x1="-1" y1="47" x2="72.44" y2="47">
</line>
<line class="cls-12" x1="-1" y1="43" x2="72.44" y2="43">
</line>
<line class="cls-12" x1="-1" y1="39" x2="72.44" y2="39">
</line>
<line class="cls-12" x1="-1" y1="35" x2="72.44" y2="35">
</line>
<line class="cls-12" x1="-1" y1="31" x2="72.44" y2="31">
</line>
<line class="cls-12" x1="-1" y1="27" x2="72.44" y2="27">
</line>
<line class="cls-12" x1="-1" y1="23" x2="72.44" y2="23">
</line>
<line class="cls-12" x1="-1" y1="19" x2="72.44" y2="19">
</line>
<line class="cls-12" x1="-1" y1="15" x2="72.44" y2="15">
</line>
<line class="cls-12" x1="-1" y1="11" x2="72.44" y2="11">
</line>
<line class="cls-12" x1="-1" y1="7" x2="72.44" y2="7">
</line>
<line class="cls-12" x1="-1" y1="3" x2="72.44" y2="3">
</line>
<line class="cls-12" x1="1.04" y1="69" x2="74.48" y2="69">
</line>
<line class="cls-12" x1="1.04" y1="65" x2="74.48" y2="65">
</line>
<line class="cls-12" x1="1.04" y1="61" x2="74.48" y2="61">
</line>
<line class="cls-12" x1="1.04" y1="57" x2="74.48" y2="57">
</line>
<line class="cls-12" x1="1.04" y1="53" x2="74.48" y2="53">
</line>
<line class="cls-12" x1="1.04" y1="49" x2="74.48" y2="49">
</line>
<line class="cls-12" x1="1.04" y1="45" x2="74.48" y2="45">
</line>
<line class="cls-12" x1="1.04" y1="41" x2="74.48" y2="41">
</line>
<line class="cls-12" x1="1.04" y1="37" x2="74.48" y2="37">
</line>
<line class="cls-12" x1="1.04" y1="33" x2="74.48" y2="33">
</line>
<line class="cls-12" x1="1.04" y1="29" x2="74.48" y2="29">
</line>
<line class="cls-12" x1="1.04" y1="25" x2="74.48" y2="25">
</line>
<line class="cls-12" x1="1.04" y1="21" x2="74.48" y2="21">
</line>
<line class="cls-12" x1="1.04" y1="17" x2="74.48" y2="17">
</line>
<line class="cls-12" x1="1.04" y1="13" x2="74.48" y2="13">
</line>
<line class="cls-12" x1="1.04" y1="9" x2="74.48" y2="9">
</line>
<line class="cls-12" x1="1.04" y1="5" x2="74.48" y2="5">
</line>
<line class="cls-12" x1="1.04" y1="1" x2="74.48" y2="1">
</line>
</g>
<g >
<line class="cls-12" x1="-73" y1="71" x2=".44" y2="71">
</line>
<line class="cls-12" x1="-73" y1="67" x2=".44" y2="67">
</line>
<line class="cls-12" x1="-73" y1="63" x2=".44" y2="63">
</line>
<line class="cls-12" x1="-73" y1="59" x2=".44" y2="59">
</line>
<line class="cls-12" x1="-73" y1="55" x2=".44" y2="55">
</line>
<line class="cls-12" x1="-73" y1="51" x2=".44" y2="51">
</line>
<line class="cls-12" x1="-73" y1="47" x2=".44" y2="47">
</line>
<line class="cls-12" x1="-73" y1="43" x2=".44" y2="43">
</line>
<line class="cls-12" x1="-73" y1="39" x2=".44" y2="39">
</line>
<line class="cls-12" x1="-73" y1="35" x2=".44" y2="35">
</line>
<line class="cls-12" x1="-73" y1="31" x2=".44" y2="31">
</line>
<line class="cls-12" x1="-73" y1="27" x2=".44" y2="27">
</line>
<line class="cls-12" x1="-73" y1="23" x2=".44" y2="23">
</line>
<line class="cls-12" x1="-73" y1="19" x2=".44" y2="19">
</line>
<line class="cls-12" x1="-73" y1="15" x2=".44" y2="15">
</line>
<line class="cls-12" x1="-73" y1="11" x2=".44" y2="11">
</line>
<line class="cls-12" x1="-73" y1="7" x2=".44" y2="7">
</line>
<line class="cls-12" x1="-73" y1="3" x2=".44" y2="3">
</line>
<line class="cls-12" x1="-70.96" y1="69" x2="2.48" y2="69">
</line>
<line class="cls-12" x1="-70.96" y1="65" x2="2.48" y2="65">
</line>
<line class="cls-12" x1="-70.96" y1="61" x2="2.48" y2="61">
</line>
<line class="cls-12" x1="-70.96" y1="57" x2="2.48" y2="57">
</line>
<line class="cls-12" x1="-70.96" y1="53" x2="2.48" y2="53">
</line>
<line class="cls-12" x1="-70.96" y1="49" x2="2.48" y2="49">
</line>
<line class="cls-12" x1="-70.96" y1="45" x2="2.48" y2="45">
</line>
<line class="cls-12" x1="-70.96" y1="41" x2="2.48" y2="41">
</line>
<line class="cls-12" x1="-70.96" y1="37" x2="2.48" y2="37">
</line>
<line class="cls-12" x1="-70.96" y1="33" x2="2.48" y2="33">
</line>
<line class="cls-12" x1="-70.96" y1="29" x2="2.48" y2="29">
</line>
<line class="cls-12" x1="-70.96" y1="25" x2="2.48" y2="25">
</line>
<line class="cls-12" x1="-70.96" y1="21" x2="2.48" y2="21">
</line>
<line class="cls-12" x1="-70.96" y1="17" x2="2.48" y2="17">
</line>
<line class="cls-12" x1="-70.96" y1="13" x2="2.48" y2="13">
</line>
<line class="cls-12" x1="-70.96" y1="9" x2="2.48" y2="9">
</line>
<line class="cls-12" x1="-70.96" y1="5" x2="2.48" y2="5">
</line>
<line class="cls-12" x1="-70.96" y1="1" x2="2.48" y2="1">
</line>
</g>
</g>
</pattern>
</defs>
  <path
     style="opacity:1;vector-effect:none;fill:#cccccc;fill-opacity:1;fill-rule:nonzero;stroke:none;stroke-width:4.49546146;stroke-linecap:butt;stroke-linejoin:miter;stroke-miterlimit:4;stroke-dasharray:none;stroke-dashoffset:0;stroke-opacity:1"
     d="M -0.08007812,0.36132812 V 80.361328 H 68.919922 V 0.36132812 Z"
     id="rect4304"/>

<g id="Characters">
<g >
<g >
<path class="cls-1" d="M54.82,63.75c-.22-.1-.45-.19-.68-.29-1.34-2.22,.14-15.97,.29-18.11,.15-2.15,.52-11.24-1.55-19.44-2.07-8.21-6.28-9.76-6.28-9.76,0,0-2.37-3.62-7.99-3.4-8.2-.22-15.67,3.92-17.29,7.47-1.63,3.55-3.4,10.42,.37,14.78,.01,.06,.01,.12,.02,.18,.15,1.4,.6,3.2,.97,4.48,.26,.95,.48,1.62,.48,1.62,0,0-3.03,7.54-4.13,11.46-1.02,3.62-.41,9.88-.31,10.82,0,.08,0,.12,0,.12,0,0-.37,.22-3.03,.89-1.85,.29-5.77,3.91-5.77,3.91l.3,2.66s5.84,2.96,21.14,3.85,27.35-3.03,27.35-3.03l1.7-5.32s-1.66-1.19-5.6-2.89Zm-34.37-.63s0-.07-.01-.21c-.04-1.38-.16-9.22,2.08-13.4-.6,5.28,.84,11.41,1.02,12.17,0,.05,.02,.08,.02,.08l-3.11,1.36Z">
</path>
<path class="cls-2" d="M36.92,49.82V30.8c0-3.62,1.99-6.86,5.05-8.79,.02-.01,.04-.03,.07-.04,2.6-1.89,4.09-.31,4.09-.31,0,0,2.52,.87,2.75,6.84s-.16,13.61-.79,15.81c-.68,2.27-3.95,5.86-7.34,7.76-1.71,.96-3.83-.29-3.83-2.26Z">
</path>
<path class="cls-5" d="M29.48,49.48l-.29,8.09s-2.02,2.5-5.65,4.11c-.18-.76-1.62-6.89-1.02-12.17-2.24,4.18-2.12,12.02-2.08,13.4-.94,.37-1.45,.55-1.72,.65-.1-.94-.71-7.2,.31-10.82,1.1-3.92,4.13-11.46,4.13-11.46,0,0-.22-.67-.48-1.62,.42,.91,1,1.66,1.75,1.92,.67,3.43,1.81,5.62,5.05,7.9Z">
</path>
<path class="cls-5" d="M54.82,63.75l-.02,.1s-6.19-2.28-8.66-3.8c-2-1.05-2.77-2.48-2.77-2.48l-.19-7.33s4.48-3.71,4.95-5.71c.48-2,.48-2.67,.48-2.67,0,0,2-1.33,2.38-3.23,.57-2.76,.67-3.24,.67-3.24,0,0-.48-2.09-2.38-2.76-.1-6.95-.86-11.42-5.05-12.09-3.9,2.76-7.04,3.33-9.61,2.57s-4-2.38-5.81-2.19-3.52,1.52-4.19,3.24c-.66,1.71-.38,13.23-.38,13.23l-1.81-3.43s-.57,.43-.72,1.22c-.01-.06-.01-.12-.02-.18-3.77-4.36-2-11.23-.37-14.78,1.62-3.55,9.09-7.69,17.29-7.47,5.62-.22,7.99,3.4,7.99,3.4,0,0,4.21,1.55,6.28,9.76,2.07,8.2,1.7,17.29,1.55,19.44-.15,2.14-1.63,15.89-.29,18.11,.23,.1,.46,.19,.68,.29Z">
</path>
<path class="cls-3" d="M34.25,36.96s-3.03-1.83-4.02-1.93c-2.77,.31-3.55,1.1-3.55,1.1,0,0,2.04,2.09,4.23,2.04s3.35-1.2,3.35-1.2Z">
</path>
<path class="cls-3" d="M39.76,36.96s3.03-1.83,4.02-1.93c2.77,.31,3.55,1.1,3.55,1.1,0,0-2.04,2.09-4.23,2.04s-3.35-1.2-3.35-1.2Z">
</path>
<ellipse class="cls-4" cx="36.63" cy="42.12" rx="2.89" ry="1.3">
</ellipse>
<path class="cls-4" d="M25.71,35.62s-.86-2.57,1.36-3.38c3.23-.91,7.52,1.21,7.98,1.62-.71,2.37-.8,3.1-.8,3.1,0,0-2.74-1.82-4.02-1.93-2.69,.29-4.51,.6-4.51,.6Z">
</path>
<path class="cls-4" d="M48.23,35.62s.86-2.57-1.36-3.38c-3.23-.91-7.52,1.21-7.98,1.62,.71,2.37,.8,3.1,.8,3.1,0,0,2.74-1.82,4.02-1.93,2.69,.29,4.51,.6,4.51,.6Z">
</path>
<path d="M22.3,34.32s-.97,.63-.63,2.22,.75,4.28,1.48,4.73,1.31,.57,1.31,.57l-.28-3.99-1.88-3.53Z">
</path>
<path d="M42.75,50.84l-18.48,23.22-13.52-2.88-.5-3.38s4.24-3.09,6.69-3.59,9.99-3.09,12.22-6.33c.22-4.89,.43-7.55,.43-7.55,0,0,3.16,2.23,4.31,2.66s5.25,.22,6.33-.5,2.52-1.65,2.52-1.65Z">
</path>
<path class="cls-5" d="M36.82,72.99c1.45-1.03,3.98-2.2,3.98-4.42s-2.61-6.07-3.98-7.41c-1.37,1.33-3.99,5.12-3.99,7.41s2.54,3.4,3.99,4.42Z">
</path>
<path d="M45.78,59.38s1.19,10.51-3.29,14.61c7.12,.81,16.07-2.48,16.07-2.48l1.46-5.66s-2.86-1.73-6.52-2.05c-5.52-2.32-7.71-4.42-7.71-4.42Z">
</path>
<path class="cls-14" d="M45.78,60.19s.65,5.99-.7,9.11c3.45-2.75,12.35-1.08,13.48,2.21,1.13-3.72,1.4-5.34,1.4-5.34,0,0-3.18-2.26-6.25-2.59-4.26-1.89-7.93-3.4-7.93-3.4Z">
</path>
<path class="cls-18" d="M46.16,16.37s-1.59-4.1-6.75,.29-14.62,1.71-12.75-.75c3.49-2.97,14.79-6.39,19.5,.45Z">
</path>
<path d="M23.68,41.24s-4.64,8.08-4.96,15.53c-.08,5.12,.48,7.44,.48,7.44l1.25-1.1s-.69-9.23,2.35-14.27c-.48,7.2,.8,13.93,.8,13.93l6.72-4-.08-9.05s-4.16-2.56-4.64-4.24-.96-4.32-.96-4.32l-.96,.08Z">
</path>
<path d="M51.63,34.84s3.06,4.23,2.79,8.29c-.45,6.39-.46,18.33-.28,20.33-4.23-.52-9.09-3.4-10.17-5.29-.99-4.5-.63-8.38-.63-8.38,0,0,4.72-3.86,4.79-5.26,.07-1.67,.16-2.12,.16-2.12,0,0,1.44-.81,2.07-2.16s1.26-5.4,1.26-5.4Z">
</path>
<path class="cls-2" d="M43.38,59.68l1.12,.93s.53,4.56-2.25,7.01c-1.06-3.64-2.98-6.42-2.98-6.42,0,0,3.04-.6,4.1-1.52Z">
</path>
<path class="cls-1" d="M44.46,22.31c.86,.34,1.53,.8,1.99,1.34,1.69,2.15,1.43,11.96,.22,19.82-.27,1.76-3.05,4.63-7.43,7.68-.71,.5-1.53,.77-2.35,.8h-.57c-.91-.02-1.77-.29-2.49-.79-4.39-3.06-7.17-5.93-7.43-7.68-1.2-7.88-1.46-17.69,.19-19.78,.38-.46,1.05-.76,1.71-1.05,.17-.03,.36-.04,.54-.04,1.1,0,2.31,.49,3.43,1,1.63,.78,3.43,1.19,5.21,1.19,.21,0,.42,0,.58-.02,2.2-.02,4.11-1.13,5.54-2.11,.26-.13,.54-.25,.87-.35m.04-1.05c-.5,.13-.98,.3-1.43,.54-1.48,1.02-3.17,1.95-5.03,1.97-.19,.01-.38,.02-.57,.02-1.66,0-3.3-.39-4.78-1.1-1.26-.58-2.58-1.1-3.86-1.1-.28,0-.57,.03-.85,.08h-.02c-.79,.36-1.61,.73-2.15,1.37-2.17,2.75-1.4,14.09-.41,20.58,.32,2.08,3.11,5.04,7.85,8.35,.89,.62,1.94,.95,3.04,.97h.59c1.04-.03,2.05-.36,2.93-.98,4.74-3.3,7.52-6.27,7.84-8.34,1-6.48,1.78-17.8-.42-20.59-.64-.76-1.56-1.36-2.73-1.77h0Z">
</path>
<path class="cls-2" d="M27.01,38.93s2.23,1.25,6.11,.26c-3.94,3.61-5.52,2.5-6.11-.26Z">
</path>
<path class="cls-19" d="M31.84,45.59s1.22,4.15,4.79,4.15,4.65-4.15,4.65-4.15c0,0-1.7-1.41-9.44,0Z">
</path>
<path class="cls-8" d="M9.47,69.24c.26-.09,3-4.63,9.18-5.49,4.63-1.56,7.67-3.59,9.29-4.89,.91-.73,1.43-1.82,1.43-2.98v-6.2">
</path>
<path class="cls-8" d="M63.09,69.24c-.26-.09-3-4.63-9.18-5.49-4.63-1.56-7.67-3.59-9.29-4.89-.91-.73-1.43-1.82-1.43-2.98v-5.77">
</path>
<path class="cls-8" d="M27.84,21.19c-.85,.38-1.77,.78-2.41,1.53-2.6,3.29-1.21,16.47-.52,20.98,.45,2.91,4.93,6.5,8.06,8.68,.98,.68,2.12,1.05,3.31,1.06,.2,0,.4,0,.61,0,1.15-.03,2.26-.41,3.2-1.06,3.13-2.18,7.6-5.77,8.04-8.67,.7-4.51,2.08-17.69-.52-20.98-.81-.96-1.9-1.57-3-1.95">
</path>
<path d="M47.93,21.01c-1.78-.19-3.42,.03-4.86,.79-1.48,1.01-3.17,1.95-5.03,1.97-1.86,.1-3.7-.3-5.35-1.09-1.55-.71-3.2-1.34-4.75-1.01-.27,.06-.54-.12-.59-.39-.06-.27,.12-.54,.39-.59,1.88-.39,3.72,.33,5.37,1.08,2.25,1.03,4.93,1.31,7.24,.37,.81-.33,1.45-.87,2.26-1.25,1.66-.86,3.82-.94,5.33,.12h0Z">
</path>
<path class="cls-8" d="M21.54,35.55s-2.52-3.58-2.14-8.08,1.37-8.69,6.86-11.74,13.8-5.72,19.9,.15c7.02,3.05,8.16,17.62,8.31,24.25s-1.3,18.65-.31,23.53">
</path>
<path class="cls-8" d="M23.37,41.27s-1.45,3.28-2.97,7.09-2.67,11.59-1.53,15.18">
</path>
<path class="cls-8" d="M20.47,63.08s-.93-7.94,2.14-14.11c-.46,8.08,.84,12.73,.84,12.73">
</path>
<path d="M22.1,28.31c-.38,3.3,.84,6.47,2.47,9.28,.15,.24,.06,.56-.19,.7-.22,.12-.5,.05-.64-.15-2.02-2.74-2.81-6.61-1.64-9.83h0Z">
</path>
<path class="cls-8" d="M22.18,33.9s-.81,1.03-.29,3.23,.7,4.33,2.75,4.55">
</path>
<path class="cls-8" d="M51.01,33.9s.81,1.03,.29,3.23-.7,4.33-2.75,4.55">
</path>
<path class="cls-8" d="M49.1,32.3s4.67,2.15,5.19,10.47">
</path>
<path d="M26.07,32.6c3.34-1.65,6.39-1.6,9.37,.76,0,0-.55,.83-.55,.83-1.3-.67-2.69-1.59-4.13-1.79-1.52-.21-3.13,.06-4.69,.2h0Z">
</path>
<path d="M34.25,36.97c-1.28-.64-2.63-1.18-4.03-1.45-.66,.14-2.7,.48-3.79,.84,0,0,.22-.81,.22-.81,1.25,1.26,2.82,2.32,4.66,2.38,.61,.05,1.23,0,1.85-.16-1.72,1.03-4.03,.82-5.67-.3-.78-.47-1.48-1.17-2.14-1.81,1.63-.53,3.3-.92,5.02-.95,1.46,.44,2.78,1.23,3.88,2.26h0Z">
</path>
<path d="M35.07,39.72c-.72,.67-1.65,1.57-.62,2.32,0,0-.45,0-.45,0,.37-.28,.78-.54,1.18-.78,.32,.42,.6,.87,1.09,1.19-.52,0-.99-.29-1.38-.63,0,0,.39,.04,.39,.04-.33,.34-.69,.64-1.05,.94-1.69-1.12-.92-2.75,.85-3.08h0Z">
</path>
<path d="M38.4,39.72c1.77,.33,2.54,1.96,.85,3.08-.36-.3-.72-.6-1.05-.94,0,0,.39-.04,.39-.04-.39,.34-.86,.63-1.38,.63,.49-.32,.77-.77,1.09-1.19,.4,.24,.81,.5,1.18,.78,0,0-.45,0-.45,0,1.03-.75,.1-1.65-.62-2.32h0Z">
</path>
<path d="M36.34,33.46c.04,.76-.36,1.48-.96,1.94,0,0,.16-.48,.16-.48,.34,.9,.51,1.9,.19,2.83-.18-.81-.32-1.86-.65-2.72,.8-.53,.89-1.06,1.26-1.57h0Z">
</path>
<path d="M26.83,35.29c1.54-1.44,4.04-1.79,5.63-.27-1.61-1.28-3.93-.79-5.22,.67,0,0-.41-.4-.41-.4h0Z">
</path>
<path d="M47.74,32.6c-1.55-.14-3.17-.42-4.69-.2-1.43,.2-2.83,1.12-4.13,1.79,0,0-.55-.83-.55-.83,2.97-2.36,6.03-2.41,9.37-.76h0Z">
</path>
<path d="M39.56,36.97c1.09-1.04,2.42-1.83,3.88-2.26,1.72,.04,3.39,.42,5.02,.95-1.13,1.15-2.38,2.23-3.98,2.63-1.29,.3-2.7,.15-3.83-.52,.62,.15,1.24,.21,1.85,.16,1.84-.06,3.41-1.12,4.66-2.38,0,0,.22,.81,.22,.81-1.08-.36-3.14-.7-3.79-.84-1.39,.27-2.74,.82-4.03,1.45h0Z">
</path>
<path d="M37.52,33.45c.51,.55,1,1.04,1.63,1.39-.07,.57-.31,1.09-.47,1.63-.2,.39-.3,.96-.6,1.28,.05-.84,.26-2.07,.57-2.66-.47-.36-1.13-1.11-1.13-1.64h0Z">
</path>
<path d="M46.56,35.69c-1.29-1.46-3.61-1.95-5.22-.67,.39-.31,.8-.61,1.29-.78,1.49-.59,3.18,.03,4.34,1.05,0,0-.41,.4-.41,.4h0Z">
</path>
<path d="M41.21,45.61c-.19,.41-.52,1-1.08,1.55-.74,.73-1.86,1.38-3.55,1.42-1.62,0-2.76-.69-3.51-1.42-.82-.78-1.17-1.59-1.17-1.59,.12-.04,.25-.09,.36-.13,.02,0,.04,0,.06-.02,3.4-1.17,6.07-.64,8.13-.04,.26,.08,.51,.14,.75,.22Z">
</path>
<path class="cls-2" d="M41.21,45.61c-.19,.41-.52,1-1.08,1.55-.59-.62-1.02-.84-1.02-.84l-.44,.58s-1.03,.32-2.07,.32-2.08-.32-2.08-.32l-.44-.58s-.42,.22-1.02,.85c-.82-.78-1.17-1.59-1.17-1.59,.12-.04,.25-.09,.36-.13,.02,0,.04,0,.06-.02,3.05-.8,6.5-.35,8.13-.04,.26,.08,.51,.14,.75,.22Z">
</path>
<path d="M42.22,44.99c-.34,1.14-1.97,.69-2.79,.67-.94-.05-1.9-.07-2.85-.06-1.5-.03-2.82,.06-4.33,.18-.51-.01-1.22-.22-1.31-.78,.35,.39,.84,.31,1.25,.19,1.33-.55,2.94-.81,4.4-.8,1.46-.01,3.07,.25,4.4,.8,.41,.11,.91,.19,1.25-.2h0Z">
</path>
<path class="cls-13" d="M28.99,57.72c0,1.07,3.27,1.94,7.31,1.94s7.31-.87,7.31-1.94l-.42-3.67c0,1.01-3.09,1.83-6.89,1.83s-6.89-.82-6.89-1.83l-.42,3.67Z">
</path>
<path class="cls-8" d="M21.05,63.19s-2.36,5.57,.92,10.83">
</path>
<path class="cls-8" d="M27.22,59.68s-2.29,9,3.81,15.48">
</path>
<path class="cls-8" d="M51.64,63.19s2.36,5.57-.92,10.83">
</path>
<path class="cls-8" d="M45.47,59.68s2.29,9-3.81,15.48">
</path>
<path class="cls-19" d="M38.99,68.51c0,1.19-1.33,1.83-2.12,2.39-.02,.01-.03,.02-.05,.03-.79-.56-2.18-1.2-2.18-2.42s1.43-3.31,2.18-4.04l.05,.05c.76,.78,2.12,2.78,2.12,3.99Z">
</path>
<path class="cls-8" d="M36.82,72.99c1.45-1.03,3.98-2.2,3.98-4.42s-2.61-6.07-3.98-7.41c-1.37,1.33-3.99,5.12-3.99,7.41s2.54,3.4,3.99,4.42Z">
</path>
<path class="cls-10" d="M31.92,21.72s-7.29-3.56-9.42-2.85">
</path>
<path class="cls-10" d="M41.97,22.1s-1.34-.29-4.35-3.64-5.53-4.52-10.17-3.22">
</path>
<path class="cls-10" d="M43.14,21.13s.29-3.18-2.72-5.74-6.57-2.3-6.57-2.3">
</path>
<path class="cls-10" d="M45.87,20.84s1.55-2.68,.13-5.11">
</path>
<path class="cls-10" d="M48.42,23.81s3.98,.17,5.07,5.65">
</path>
</g>
<path class="cls-14" d="M11.22,68.83s1.55-3.36,6.46-4.07">
</path>
<path class="cls-5" d="M19.17,59.59c-.16-3.51,.18-7.78,2.17-10.58-.27,1.85-.63,3.48-.91,5.28-.32,1.35-.57,4.13-1.26,5.3h0Z">
</path>
<path class="cls-1" d="M30.29,52.04c2.06,7.09-.92,9.77-7.46,11.58-.72,.15-1.43,.34-2.17,.41l-.03-.09c2.65-1.05,5.38-2.14,7.65-3.88,2.26-1.87,2.02-5.33,1.91-8,0,0,.1-.01,.1-.01h0Z">
</path>
<path class="cls-17" d="M38.99,68.51c0,1.19-1.33,1.83-2.12,2.39v-6.38c.76,.78,2.12,2.78,2.12,3.99Z">
</path>
</g>
</g>

  <path
     style="opacity:1;vector-effect:none;fill:#8d5fd3;fill-opacity:1;fill-rule:nonzero;stroke:none;stroke-width:2.35769176;stroke-linecap:butt;stroke-linejoin:miter;stroke-miterlimit:4;stroke-dasharray:none;stroke-dashoffset:0;stroke-opacity:0.44186048"
     d="M 0,1.2e-7 V 80 H 69 V 1.2e-7 Z M 35.240234,4.658203 c 6.067554,0.1120422 16.269844,1.4698438 23.589844,3.8398438 3.46,9.2400002 5.269531,19.9506252 5.269531,31.1406252 0,11.47 -1.89,22.390234 -5.5,31.740234 -7.2,2.16 -14.940375,3.376539 -23.019531,3.259766 -8.580486,-0.124019 -18.036001,-1.572896 -25.240234,-3.86914 -3.4500003,-9.22 -5.2597659,-19.930859 -5.2597659,-31.130859 0,-11.2 1.8904687,-22.380469 5.4804689,-31.730469 C 17.682894,5.1336941 29.17268,4.5461608 35.240234,4.658203 Z"
     id="rect4304" />


</svg>
