<?xml version="1.0" encoding="UTF-8"?><svg id="Capa_2" xmlns="http://www.w3.org/2000/svg" xmlns:xlink="http://www.w3.org/1999/xlink" viewBox="0 0 69.02 80"><defs><style>.cls-1{fill:#c89aed;}.cls-2{fill:#fff;}.cls-3{fill:#f8ffbf;}.cls-4{fill:#7b7be8;}.cls-5{fill:#a88347;}.cls-6{fill:#782ab5;}.cls-7,.cls-8,.cls-9{stroke:#000;stroke-miterlimit:10;}.cls-7,.cls-8,.cls-9,.cls-10,.cls-11,.cls-12{fill:none;}.cls-8,.cls-10{stroke-linecap:round;}.cls-13{fill:#1c46ff;}.cls-9{stroke-width:.75px;}.cls-10{stroke:#deb778;stroke-dasharray:0 0 0 4.06;stroke-linejoin:round;}.cls-14{fill:url(#USGS_19_Inundación_de_tierra);}.cls-15{fill:#deb778;}.cls-12{stroke:#1d1d1b;stroke-dasharray:0 0 2 2;stroke-width:.3px;}.cls-16{fill:#fcf0c5;}</style><pattern id="USGS_19_Inundación_de_tierra" x="0" y="0" width="72" height="72" patternTransform="translate(-380.48 -16135) rotate(-90)" patternUnits="userSpaceOnUse" viewBox="0 0 72 72"><g><rect class="cls-11" width="72" height="72"/><g><line class="cls-12" x1="71" y1="71" x2="144.44" y2="71"/><line class="cls-12" x1="71" y1="67" x2="144.44" y2="67"/><line class="cls-12" x1="71" y1="63" x2="144.44" y2="63"/><line class="cls-12" x1="71" y1="59" x2="144.44" y2="59"/><line class="cls-12" x1="71" y1="55" x2="144.44" y2="55"/><line class="cls-12" x1="71" y1="51" x2="144.44" y2="51"/><line class="cls-12" x1="71" y1="47" x2="144.44" y2="47"/><line class="cls-12" x1="71" y1="43" x2="144.44" y2="43"/><line class="cls-12" x1="71" y1="39" x2="144.44" y2="39"/><line class="cls-12" x1="71" y1="35" x2="144.44" y2="35"/><line class="cls-12" x1="71" y1="31" x2="144.44" y2="31"/><line class="cls-12" x1="71" y1="27" x2="144.44" y2="27"/><line class="cls-12" x1="71" y1="23" x2="144.44" y2="23"/><line class="cls-12" x1="71" y1="19" x2="144.44" y2="19"/><line class="cls-12" x1="71" y1="15" x2="144.44" y2="15"/><line class="cls-12" x1="71" y1="11" x2="144.44" y2="11"/><line class="cls-12" x1="71" y1="7" x2="144.44" y2="7"/><line class="cls-12" x1="71" y1="3" x2="144.44" y2="3"/></g><g><line class="cls-12" x1="-1" y1="71" x2="72.44" y2="71"/><line class="cls-12" x1="-1" y1="67" x2="72.44" y2="67"/><line class="cls-12" x1="-1" y1="63" x2="72.44" y2="63"/><line class="cls-12" x1="-1" y1="59" x2="72.44" y2="59"/><line class="cls-12" x1="-1" y1="55" x2="72.44" y2="55"/><line class="cls-12" x1="-1" y1="51" x2="72.44" y2="51"/><line class="cls-12" x1="-1" y1="47" x2="72.44" y2="47"/><line class="cls-12" x1="-1" y1="43" x2="72.44" y2="43"/><line class="cls-12" x1="-1" y1="39" x2="72.44" y2="39"/><line class="cls-12" x1="-1" y1="35" x2="72.44" y2="35"/><line class="cls-12" x1="-1" y1="31" x2="72.44" y2="31"/><line class="cls-12" x1="-1" y1="27" x2="72.44" y2="27"/><line class="cls-12" x1="-1" y1="23" x2="72.44" y2="23"/><line class="cls-12" x1="-1" y1="19" x2="72.44" y2="19"/><line class="cls-12" x1="-1" y1="15" x2="72.44" y2="15"/><line class="cls-12" x1="-1" y1="11" x2="72.44" y2="11"/><line class="cls-12" x1="-1" y1="7" x2="72.44" y2="7"/><line class="cls-12" x1="-1" y1="3" x2="72.44" y2="3"/><line class="cls-12" x1="1.04" y1="69" x2="74.48" y2="69"/><line class="cls-12" x1="1.04" y1="65" x2="74.48" y2="65"/><line class="cls-12" x1="1.04" y1="61" x2="74.48" y2="61"/><line class="cls-12" x1="1.04" y1="57" x2="74.48" y2="57"/><line class="cls-12" x1="1.04" y1="53" x2="74.48" y2="53"/><line class="cls-12" x1="1.04" y1="49" x2="74.48" y2="49"/><line class="cls-12" x1="1.04" y1="45" x2="74.48" y2="45"/><line class="cls-12" x1="1.04" y1="41" x2="74.48" y2="41"/><line class="cls-12" x1="1.04" y1="37" x2="74.48" y2="37"/><line class="cls-12" x1="1.04" y1="33" x2="74.48" y2="33"/><line class="cls-12" x1="1.04" y1="29" x2="74.48" y2="29"/><line class="cls-12" x1="1.04" y1="25" x2="74.48" y2="25"/><line class="cls-12" x1="1.04" y1="21" x2="74.48" y2="21"/><line class="cls-12" x1="1.04" y1="17" x2="74.48" y2="17"/><line class="cls-12" x1="1.04" y1="13" x2="74.48" y2="13"/><line class="cls-12" x1="1.04" y1="9" x2="74.48" y2="9"/><line class="cls-12" x1="1.04" y1="5" x2="74.48" y2="5"/><line class="cls-12" x1="1.04" y1="1" x2="74.48" y2="1"/></g><g><line class="cls-12" x1="-73" y1="71" x2=".44" y2="71"/><line class="cls-12" x1="-73" y1="67" x2=".44" y2="67"/><line class="cls-12" x1="-73" y1="63" x2=".44" y2="63"/><line class="cls-12" x1="-73" y1="59" x2=".44" y2="59"/><line class="cls-12" x1="-73" y1="55" x2=".44" y2="55"/><line class="cls-12" x1="-73" y1="51" x2=".44" y2="51"/><line class="cls-12" x1="-73" y1="47" x2=".44" y2="47"/><line class="cls-12" x1="-73" y1="43" x2=".44" y2="43"/><line class="cls-12" x1="-73" y1="39" x2=".44" y2="39"/><line class="cls-12" x1="-73" y1="35" x2=".44" y2="35"/><line class="cls-12" x1="-73" y1="31" x2=".44" y2="31"/><line class="cls-12" x1="-73" y1="27" x2=".44" y2="27"/><line class="cls-12" x1="-73" y1="23" x2=".44" y2="23"/><line class="cls-12" x1="-73" y1="19" x2=".44" y2="19"/><line class="cls-12" x1="-73" y1="15" x2=".44" y2="15"/><line class="cls-12" x1="-73" y1="11" x2=".44" y2="11"/><line class="cls-12" x1="-73" y1="7" x2=".44" y2="7"/><line class="cls-12" x1="-73" y1="3" x2=".44" y2="3"/><line class="cls-12" x1="-70.96" y1="69" x2="2.48" y2="69"/><line class="cls-12" x1="-70.96" y1="65" x2="2.48" y2="65"/><line class="cls-12" x1="-70.96" y1="61" x2="2.48" y2="61"/><line class="cls-12" x1="-70.96" y1="57" x2="2.48" y2="57"/><line class="cls-12" x1="-70.96" y1="53" x2="2.48" y2="53"/><line class="cls-12" x1="-70.96" y1="49" x2="2.48" y2="49"/><line class="cls-12" x1="-70.96" y1="45" x2="2.48" y2="45"/><line class="cls-12" x1="-70.96" y1="41" x2="2.48" y2="41"/><line class="cls-12" x1="-70.96" y1="37" x2="2.48" y2="37"/><line class="cls-12" x1="-70.96" y1="33" x2="2.48" y2="33"/><line class="cls-12" x1="-70.96" y1="29" x2="2.48" y2="29"/><line class="cls-12" x1="-70.96" y1="25" x2="2.48" y2="25"/><line class="cls-12" x1="-70.96" y1="21" x2="2.48" y2="21"/><line class="cls-12" x1="-70.96" y1="17" x2="2.48" y2="17"/><line class="cls-12" x1="-70.96" y1="13" x2="2.48" y2="13"/><line class="cls-12" x1="-70.96" y1="9" x2="2.48" y2="9"/><line class="cls-12" x1="-70.96" y1="5" x2="2.48" y2="5"/><line class="cls-12" x1="-70.96" y1="1" x2="2.48" y2="1"/></g></g></pattern></defs><g id="BG"><g><path class="cls-6" d="M64.02,40c0,11.47-1.89,22.39-5.5,31.74-7.2,2.16-14.94,3.26-23.02,3.26-.49,0-.98-.01-1.47-.02h-.17c-8.18-.15-16.29-1.47-23.6-3.85-3.45-9.22-5.26-19.93-5.26-31.13s1.89-22.38,5.48-31.73c6.73-2.01,14.13-3.13,21.6-3.26,.48-.01,.97-.01,1.45-.01,.54,0,1.08,.01,1.63,.02,8.16,.15,16.27,1.47,23.59,3.84,3.46,9.24,5.27,19.95,5.27,31.14Z"/><path class="cls-14" d="M34.03,5.59V74.98h-.17c-8.18-.15-16.29-1.47-23.6-3.85-3.45-9.22-5.26-19.93-5.26-31.13s1.89-22.38,5.48-31.73c6.73-2.01,14.13-3.13,21.6-3.26,.65,.16,1.3,.36,1.95,.58Z"/></g></g><g id="Characters"><g><path class="cls-1" d="M36.02,23.79s-7.94-.63-10.08,8.07c-.88,7.25-2.21,9.64-2.96,10.4,.88,4.54,1.32,5.36,2.84,6.93s3.09,3.72,3.09,3.72c0,0,.19,6.05-.5,8.07-2.52,2.08-11.34,4.73-13.42,6.3s-2.39,3.78-2.39,3.78c0,0,19.16,6.11,35.29,2.96,9.14-2.21,9.83-2.52,9.83-2.52,0,0-1.39-3.66-3.03-4.47s-12.04-4.47-13.23-6.37-.32-8.89-.32-8.89c0,0,3.4-3.09,3.91-4.29s1.39-3.78,1.39-3.78c0,0-1.07-11.41-2.27-14.43s-3.21-7.69-8.13-5.48Z"/><path class="cls-2" d="M34.63,54.98V22.63l9.69,.17,2.06,18.27s-.51,5.23-2.57,7.81c-2.66,3.52-8.84,9.87-9.18,6.09Z"/><path d="M35.82,23.98s-5.57-.75-8.81,5.57c-2.66,5.49-.33,9.9-5.41,13.22s-4.07,6.99-1.83,8.32,5.24,2.49,4.74,5.41-4.32,2.99-5.99,1.5c3.58,.17,5.49-3.91,.58-7.07s-6.15-8.73-3.41-13.22,.09-8.08-.08-11.73c-.21-4.51,4.41-10.64,8.65-12.39s7.9,.58,8.57,1.58c7.48-2.16,13.31,.33,16.22,4.91s1.41,11.73,3.16,15.55,3.83,7.57,2.16,11.73-6.49,3.91-7.32,7.73,3.99,6.32,3.91,8.98-4.24,4.91-6.99,1.91c4.24,.25,5.07-3.08,2.66-5.82s-4.49-4.32-3.16-6.57,5.57-3.66,4.41-6.9c-1.08-2.91-4.66-4.49-5.32-7.9s2.58-15.72-6.74-14.8Z"/><path class="cls-13" d="M50.58,27.3s-1.75,5.26-7.47,.76c.92,6.94,.31,9.84,.31,9.84,0,0,4.88-6.02,7.47-2.75-1.37-3.58-.31-7.85-.31-7.85Z"/><path class="cls-13" d="M17.41,23.75s3.79,6.12,9.11,4.59c-1.46,4.88-1.46,7.58-1.46,7.58,0,0-3.94-5.47-7.65-4.01-1.39-4.23-1.39-8.24,0-8.16Z"/><path d="M20.77,42.63s.19,3.72,1.32,5.42,3.97,4.35,4.92,5.36,1.7,2.08,1.7,2.08l-.5-3.66s-3.15-2.58-3.66-4.16-2.02-6.05-2.02-6.05l-1.76,1.01Z"/><ellipse class="cls-4" cx="34.89" cy="44.31" rx="2.92" ry="1.22"/><path d="M40.85,52.6l-15.67,21.78-12.9-2.48s1.72-4.49,3.82-5.44,12.04-3.73,12.51-6.21,.1-7.93,.1-7.93c0,0,3.06,4.2,5.64,4.01s6.5-3.73,6.5-3.73Z"/><path class="cls-1" d="M14.26,69.44c.8-1.66,2.33-2.97,4.13-3.42,5.37-1.74,11.6-2.53,10.86-9.73,0,0,.1-.02,.1-.02,1.98,7.38-5.1,9.27-10.73,10.49-1.78,.31-3.17,1.3-4.27,2.72,0,0-.09-.04-.09-.04h0Z"/><path class="cls-13" d="M22.01,55.58s1.75,1.15,2.45,.09c-.28,2.26-1.29,2.68-1.29,2.68,0,0-1.25-1.52-1.61-1.43,.51-.65,.46-1.34,.46-1.34Z"/><path class="cls-1" d="M36.78,25.43c1.18,0,2.06,.3,2.7,.91,1.82,1.71,1.65,5.85,1.53,8.93-.06,1.53-.12,2.85,.07,3.8,.46,2.34,1.94,3.89,3.25,5.26,.05,.05,.1,.11,.15,.16-.63,1.89-1.19,2.9-1.5,3.2-.26,.24-.59,.59-.97,1l-.37,.4c-1.3,1.38-5.25,5.58-6.68,5.58h-.42c-1.42,0-5.38-4.2-6.67-5.57l-.05-.05-.22-.23c-.44-.47-.79-.84-1.07-1.11-.5-.48-1.34-2.31-2.13-5.33,1.88-2.06,2.21-4.4,2.52-6.66,.25-1.74,.5-3.55,1.43-5.46,2.22-4.32,5.55-4.78,6.88-4.78,.23,0,.37,.01,.37,.01,0,0,0,0,0,0h.06s.18,.04,.18,.04l.18-.04h0c.27-.03,.53-.04,.78-.04m0-1c-.29,0-.6,.02-.92,.05h-.05s-.06,0-.06,0c-.04,0-.23-.03-.53-.03-1.41,0-5.27,.48-7.77,5.33-1,2.07-1.27,3.95-1.53,5.78-.33,2.35-.65,4.59-2.64,6.51,.63,2.54,1.61,5.45,2.55,6.35,.3,.29,.73,.75,1.25,1.3,1.95,2.07,5.58,5.94,7.45,5.94h.42c1.87,0,5.49-3.85,7.43-5.91,.53-.56,.97-1.04,1.28-1.33,.59-.57,1.28-2.05,1.95-4.18-.19-.2-.37-.4-.56-.6-1.28-1.34-2.59-2.73-2.99-4.76-.16-.83-.11-2.1-.05-3.57,.13-3.23,.32-7.67-1.84-9.7-.83-.79-1.94-1.18-3.39-1.18h0Z"/><path class="cls-3" d="M32.13,37.77s-1.91-2.01-4.33-1.61c-2.31,.4-2.57,1.01-2.57,1.01l-.25,1.51s4.48,1.86,7.14-.91Z"/><path class="cls-3" d="M42.77,36.15s-3.28-.11-5.05,1.72c2.04,1.83,4.84,.92,4.84,.92l.21-2.63Z"/><path d="M41.2,55.85s3.32-2.85,4.58-3.92,4.91-2.85,3.85-5.51-3.58-2.99-3.58-2.99c0,0-.73,4.51-2.66,6.11-2.46,1.99-2.39,2.59-2.39,2.59l.2,3.72Z"/><path class="cls-13" d="M48.08,44.34c1.29,1.33,2.11,3.56,.85,5.28-1.39,2-3.8,3.32-4.55,5.37,0,.43,.66,1.28,.97,1.76,.98,1.39,2.29,2.78,2.6,4.53,0,0-.09,.03-.09,.03-.9-2.44-3.72-3.78-4.42-6.29,0-.92,.65-1.64,1.2-2.29,1.16-1.28,2.55-2.33,3.68-3.6,1.14-1.37,.55-3.37-.32-4.73,0,0,.08-.06,.08-.06h0Z"/><path class="cls-13" d="M16.42,48c-4.68-6.9,1.25-8.98,1.25-15.28-.63-3.49-2.04-7.1-.8-10.66,1.78-5.01,7.54-8.83,12.87-7.94,0,0-.03,.1-.03,.1-5.09-.38-10.35,3.4-11.98,8.11-.87,2.85-.1,5.99,.62,8.84,.4,1.42,.26,3.07-.19,4.43-.66,2.63-2.89,4.58-3.01,7.32-.09,1.69,.5,3.44,1.34,5.01l-.08,.06h0Z"/><path class="cls-13" d="M37.33,14.73c4.48-.32,9.48,1.23,11.85,5.28,2.14,4.37,.84,9.34,1.6,13.91,.84,3.39,3.21,6.34,3.58,9.89,.12,1.18-.02,2.39-.36,3.52l-.19-.06c.23-2.36-.43-4.39-1.54-6.41-.62-1.16-2-3.48-2.55-4.63-1.39-2.78-1.16-6.3-1.17-9.27,.15-1.96-.58-5.05-.91-6.07-1.41-2.71-4.12-4.39-7.04-5.24-1.04-.31-2.13-.57-3.25-.72,0,0-.02-.2-.02-.2h0Z"/><path class="cls-2" d="M39.29,58.12l-11.53,16.21s13.96,1.3,27.83-2.34c-.87-2.95-4.51-4.51-4.51-4.51,0,0-7.11,5.37-12.57-2.77,3.29,.26,4.77-.61,4.77-.61,0,0-2.69-.35-3.99-5.98Z"/><path class="cls-4" d="M32.2,34.41l.28,3.42s-2.89-2.75-7.07-.81c.09-2.18,.57-3.18,.57-3.18,0,0,1.99-.66,3.23,.24s2.99,.33,2.99,.33Z"/><path class="cls-4" d="M37.34,34.41l-.23,3.42s2.39-2.75,5.83-.81c-.08-2.18-.47-3.18-.47-3.18,0,0-1.64-.66-2.66,.24s-2.47,.33-2.47,.33Z"/><path class="cls-2" d="M25.38,40.53s2.63,1.04,5.58,.16c-2.22,3.74-5.44,3.2-5.58-.16Z"/><path class="cls-2" d="M31.46,49.1s1.61-1.18,3.71-1.18,3.35,1.15,3.35,1.15c0,0-1.71,1.71-3.56,1.71s-3.51-1.69-3.51-1.69Z"/><path class="cls-8" d="M35.82,23.98s-5.57-.75-8.81,5.57c-2.66,5.49-.33,9.9-5.41,13.22s-4.07,6.99-1.83,8.32,5.24,2.49,4.74,5.41-4.32,2.99-5.99,1.5c3.58,.17,5.49-3.91,.58-7.07s-6.15-8.73-3.41-13.22,.09-8.08-.08-11.73c-.21-4.51,4.41-10.64,8.65-12.39s7.9,.58,8.57,1.58c7.48-2.16,13.31,.33,16.22,4.91s1.41,11.73,3.16,15.55,3.83,7.57,2.16,11.73-6.49,3.91-7.32,7.73,3.99,6.32,3.91,8.98-4.24,4.91-6.99,1.91c4.24,.25,5.07-3.08,2.66-5.82s-4.49-4.32-3.16-6.57,5.57-3.66,4.41-6.9c-1.08-2.91-4.66-4.49-5.32-7.9s2.58-15.72-6.74-14.8Z"/><path class="cls-8" d="M22.72,41.91c.25,1.03,1.4,5.57,2.76,6.87,1.54,1.48,6.46,7.38,9.05,7.38h.42c2.6,0,7.51-5.9,9.06-7.38,.86-.83,1.64-2.96,2.16-4.66"/><path d="M25.58,33.17c.94-.18,1.89-.26,2.84,.04,1.27,.64,2.4,.95,3.84,.76,0,0,.09,1.49,.09,1.49-1.22,.05-2.56-.16-3.64-.76-.92-.63-1.87-.69-2.94-.55,0,0-.19-.98-.19-.98h0Z"/><path d="M42.72,34.06c-.67,.01-1.22,.25-1.73,.58-1.11,.64-2.47,.86-3.7,.82,0,0,.09-1.49,.09-1.49,.87,.09,1.7,.08,2.49-.17,.87-.33,1.88-.87,2.84-.74,0,0,.01,1,.01,1h0Z"/><path class="cls-9" d="M25.37,37.06c4-2.41,6.8,.77,6.8,.77,0,0-2.41,2.93-7.06,.6"/><path class="cls-9" d="M42.41,36.26c-2.91-.59-4.82,1.57-4.82,1.57,0,0,1.81,2.19,5.31,1.27"/><path d="M35.21,46.92c1.87,0,2.91,.98,3.57,1.65s1.29,.42,1.29,.42c0,0-.21,.87-1.64,.25s-2.31-.64-3.37-.64h-.21c-1.06,0-1.93,.02-3.37,.64s-1.64-.25-1.64-.25c0,0,.62,.25,1.29-.42s1.7-1.65,3.57-1.65h.5Z"/><path d="M35.12,52.03c3.17,0,3.98-2.71,3.98-2.71l-.79-.38s-1.39,1.17-3.26,1.17h-.15c-1.87,0-3.26-1.17-3.26-1.17l-.79,.38s.81,2.71,3.98,2.71h.3Z"/><path d="M36.63,41.88c.48,.56,1.23,.42,1.53,1.31,.25,1.26-1.01,1.86-1.97,1.12,0,0,.84-.12,.84-.12-.23,.32-.51,.62-.87,.84-1.13,.82-2.66,.25-3.37-.84,0,0,.83,.12,.83,.12-.4,.26-.89,.47-1.42,.21-.53-.31-.64-.82-.55-1.33,.16-.53,.54-.68,.8-.83,.27-.15,.54-.25,.73-.48l.07,.02c-.11,.31-.39,.49-.62,.69-.23,.19-.48,.39-.53,.68-.05,.75,.56,.98,1.12,.51,0,0,.05-.04,.05-.04,.39,.52,1,.91,1.63,.96,.63-.05,1.24-.44,1.63-.96,0,0,.05,.04,.05,.04,.55,.47,1.16,.24,1.12-.51-.14-.61-.93-.78-1.15-1.36,0,0,.07-.02,.07-.02h0Z"/><path class="cls-7" d="M20.9,43.65s.05,4.09,3.11,6.92,4.22,3.69,4.82,5.43"/><path class="cls-7" d="M28.53,52.15s.93,6.55-.4,8.72-11.2,4.38-13.28,6.51-2.48,4.51-2.48,4.51"/><path class="cls-7" d="M50.76,65.16c1.89,.74,3.52,1.48,4.23,2.21,2.08,2.12,2.48,4.51,2.48,4.51"/><path class="cls-7" d="M41.32,51.55s-.93,7.15,.4,9.32c.64,1.05,3.3,2.11,6.1,3.17"/><path class="cls-7" d="M28.33,60.72s1.86,6.67,6.52,6.67,6.6-6.98,6.6-6.98"/><path d="M37.94,69.19c-.52,.36-1.03,.54-1.55,.66-.29,.06-.58,.09-.88,.12,.08-.84,.33-1.66,.8-2.41h-2.94c.36,.52,.54,1.03,.66,1.55,.06,.28,.09,.56,.12,.85-.83-.09-1.64-.33-2.41-.74,0,0,0,2.89,0,2.89,.75-.39,1.57-.64,2.39-.75-.09,.83-.33,2.43-.74,3.2,0,0,2.89,0,2.88,0-.39-.76-.65-2.38-.75-3.22,.84,.08,1.66,.33,2.4,.8v-2.94Z"/><path class="cls-7" d="M25,63.01s-2.2,3.97-2.2,11.29"/><path class="cls-7" d="M46.55,67.29c.41,1.8,.75,4.15,.75,7.02"/><path class="cls-7" d="M45.1,63.01s.5,.91,1.03,2.66"/><circle cx="30.83" cy="59.24" r=".32"/><circle cx="31.32" cy="62.29" r=".32"/><path class="cls-7" d="M41.06,55.84s1.35-.96,2.69-2.69"/></g></g><g id="Frame"><path class="cls-5" d="M62.56,4.88C54.4,1.94,45.12,.2,35.25,.02c-.57-.01-1.15-.02-1.72-.02C23.88,0,14.77,1.52,6.72,4.21,2.49,14.22,0,26.6,0,40s2.39,25.22,6.45,35.11c8.16,2.94,17.45,4.69,27.32,4.87,.58,.01,1.15,.02,1.73,.02,9.63,0,18.73-1.51,26.78-4.2,4.24-10.01,6.74-22.39,6.74-35.8s-2.4-25.24-6.46-35.12Zm-4.04,66.86c-7.2,2.16-14.94,3.26-23.02,3.26-.49,0-.98-.01-1.47-.02h-.17c-8.18-.15-16.29-1.47-23.6-3.85-3.45-9.22-5.26-19.93-5.26-31.13s1.89-22.38,5.48-31.73c6.73-2.01,14.13-3.13,21.6-3.26,.48-.01,.97-.01,1.45-.01,.54,0,1.08,.01,1.63,.02,8.16,.15,16.27,1.47,23.59,3.84,3.46,9.24,5.27,19.95,5.27,31.14s-1.89,22.39-5.5,31.74Z"/><path class="cls-15" d="M17.21,2.06h0c1.63,.63,2.06,2.75,.81,3.97l-1.26,1.22s8.35-2.37,18.84-1.69h0c-1-1.49-.45-3.52,1.14-4.34l1-.51S28.26-.43,17.21,2.06Z"/><path class="cls-16" d="M21.81,1.66s.7,2.18-.22,3.1c3.77-.41,7.98-.74,11.12-.74-.33-1.33,1.26-3.4,1.26-3.4,0,0-6.17-.26-12.16,1.03Z"/><path class="cls-15" d="M36.25,79.21h0c-1.52-.87-1.62-3.03-.2-4.04l1.43-1.02s-8.61,1.07-18.88-1.19h0c.76,1.63-.09,3.55-1.79,4.11l-1.07,.36s9.19,2.56,20.5,1.78Z"/><path class="cls-16" d="M19.28,77.8s1.76-1.83,1.3-3.09c4.43,.69,9.11,1.14,12.25,1.14-.33,1.33,.44,3.4,.44,3.4,0,0-8-.16-13.99-1.45Z"/><polygon points="47.48 1.77 47.48 6.73 54.49 8.44 54.49 2.62 47.48 1.77"/><line class="cls-7" x1="45.5" y1="1.23" x2="45.5" y2="6.29"/><line class="cls-7" x1="56.47" y1="3.67" x2="56.47" y2="8.73"/><polygon points="47.48 78.74 47.48 73.78 54.49 72.07 54.49 77.88 47.48 78.74"/><line class="cls-7" x1="45.5" y1="79.28" x2="45.5" y2="74.21"/><line class="cls-7" x1="56.47" y1="76.84" x2="56.47" y2="71.77"/><path d="M33.53,1c.56,0,1.14,0,1.7,.02,9.39,.17,18.33,1.74,26.57,4.65,4.07,10.08,6.22,21.94,6.22,34.33s-2.24,24.79-6.49,34.99c-8.12,2.66-16.87,4.01-26.03,4.01-.56,0-1.12,0-1.71-.02-9.25-.17-18.42-1.78-26.58-4.66C3.15,64.25,1,52.39,1,40S3.23,15.21,7.47,5.02C15.6,2.35,24.37,1,33.53,1m0-1C23.88,0,14.77,1.52,6.72,4.21,2.49,14.22,0,26.6,0,40s2.39,25.22,6.45,35.11c8.16,2.94,17.45,4.69,27.32,4.87,.58,.01,1.15,.02,1.73,.02,9.63,0,18.73-1.51,26.78-4.2,4.24-10.01,6.74-22.39,6.74-35.8s-2.4-25.24-6.46-35.12C54.4,1.94,45.12,.2,35.25,.02c-.57,0-1.15-.02-1.72-.02h0Z"/><path class="cls-15" d="M33.53,6c.52,0,1.04,0,1.61,.02,7.87,.14,15.75,1.4,22.84,3.64,3.3,9,5.04,19.47,5.04,30.34s-1.82,21.82-5.26,30.92c-6.98,2.04-14.47,3.08-22.26,3.08-.48,0-.97,0-1.47-.02h-.15c-7.89-.14-15.78-1.41-22.85-3.65-3.29-8.99-5.03-19.46-5.03-30.33s1.81-21.79,5.24-30.91c6.5-1.89,13.7-2.95,20.86-3.08,.47,0,.96,0,1.43,0m0-1c-.48,0-.97,0-1.45,.01-7.47,.13-14.87,1.25-21.6,3.26-3.59,9.35-5.48,20.26-5.48,31.73s1.81,21.91,5.26,31.13c7.31,2.38,15.42,3.7,23.6,3.85h.17c.49,.01,.98,.02,1.47,.02,8.08,0,15.82-1.1,23.02-3.26,3.61-9.35,5.5-20.27,5.5-31.74s-1.81-21.9-5.27-31.14c-7.32-2.37-15.43-3.69-23.59-3.84-.55,0-1.09-.02-1.63-.02h0Z"/><path d="M33.53,5c.54,0,1.08,.01,1.63,.02,8.16,.15,16.27,1.47,23.59,3.84,3.46,9.24,5.27,19.95,5.27,31.14s-1.89,22.39-5.5,31.74c-7.2,2.16-14.94,3.26-23.02,3.26-.49,0-.98-.01-1.47-.02h-.17c-8.18-.15-16.29-1.47-23.6-3.85-3.45-9.22-5.26-19.93-5.26-31.13s1.89-22.38,5.48-31.73c6.73-2.01,14.13-3.13,21.6-3.26,.48-.01,.97-.01,1.45-.01m0-1c-.49,0-.98,0-1.47,.01-7.51,.13-15.07,1.27-21.87,3.3l-.47,.14-.18,.46c-3.63,9.45-5.55,20.55-5.55,32.09s1.84,22.17,5.32,31.48l.17,.45,.46,.15c7.37,2.4,15.63,3.75,23.89,3.9h.19c.48,.01,.97,.02,1.47,.02,8.16,0,16-1.11,23.31-3.3l.47-.14,.18-.46c3.64-9.43,5.57-20.53,5.57-32.1s-1.84-22.17-5.33-31.49l-.17-.45-.46-.15c-7.39-2.39-15.65-3.74-23.88-3.89-.58-.01-1.12-.02-1.65-.02h0Z"/><path class="cls-10" d="M8.14,7.1s-12.66,32.94,0,66.06"/><path class="cls-10" d="M60.88,7.58s12.66,32.94,0,66.06"/></g></svg>