<svg id="Capa_2" xmlns="http://www.w3.org/2000/svg" xmlns:xlink="http://www.w3.org/1999/xlink" viewBox="0 0 69.02 80">
<defs >
<style >
.cls-1{fill:#c89aed;}.cls-2{fill:#fff;}.cls-3{fill:#f8ffbf;}.cls-4{fill:#7b7be8;}.cls-5,.cls-6{stroke:#000;}.cls-5,.cls-6,.cls-7,.cls-8,.cls-9{fill:none;}.cls-5,.cls-7{stroke-linejoin:round;}.cls-10{fill:#a88347;}.cls-11{fill:#782ab5;}.cls-6{stroke-miterlimit:10;}.cls-12{fill:#1c46ff;}.cls-7{stroke:#deb778;stroke-dasharray:0 0 0 4.06;stroke-linecap:round;}.cls-13{fill:url(#USGS_19_Inundación_de_tierra);}.cls-14{fill:#deb778;}.cls-9{stroke:#1d1d1b;stroke-dasharray:0 0 2 2;stroke-width:.3px;}.cls-15{fill:#cf5f2b;}.cls-16{fill:#fcf0c5;}.cls-17{fill:#b83521;}
</style>
<pattern id="USGS_19_Inundación_de_tierra" x="0" y="0" width="72" height="72" patternTransform="translate(-20.48 -16207) rotate(-90)" patternUnits="userSpaceOnUse" viewBox="0 0 72 72">
<g >
<rect class="cls-8" width="72" height="72">
</rect>
<g >
<line class="cls-9" x1="71" y1="71" x2="144.44" y2="71">
</line>
<line class="cls-9" x1="71" y1="67" x2="144.44" y2="67">
</line>
<line class="cls-9" x1="71" y1="63" x2="144.44" y2="63">
</line>
<line class="cls-9" x1="71" y1="59" x2="144.44" y2="59">
</line>
<line class="cls-9" x1="71" y1="55" x2="144.44" y2="55">
</line>
<line class="cls-9" x1="71" y1="51" x2="144.44" y2="51">
</line>
<line class="cls-9" x1="71" y1="47" x2="144.44" y2="47">
</line>
<line class="cls-9" x1="71" y1="43" x2="144.44" y2="43">
</line>
<line class="cls-9" x1="71" y1="39" x2="144.44" y2="39">
</line>
<line class="cls-9" x1="71" y1="35" x2="144.44" y2="35">
</line>
<line class="cls-9" x1="71" y1="31" x2="144.44" y2="31">
</line>
<line class="cls-9" x1="71" y1="27" x2="144.44" y2="27">
</line>
<line class="cls-9" x1="71" y1="23" x2="144.44" y2="23">
</line>
<line class="cls-9" x1="71" y1="19" x2="144.44" y2="19">
</line>
<line class="cls-9" x1="71" y1="15" x2="144.44" y2="15">
</line>
<line class="cls-9" x1="71" y1="11" x2="144.44" y2="11">
</line>
<line class="cls-9" x1="71" y1="7" x2="144.44" y2="7">
</line>
<line class="cls-9" x1="71" y1="3" x2="144.44" y2="3">
</line>
</g>
<g >
<line class="cls-9" x1="-1" y1="71" x2="72.44" y2="71">
</line>
<line class="cls-9" x1="-1" y1="67" x2="72.44" y2="67">
</line>
<line class="cls-9" x1="-1" y1="63" x2="72.44" y2="63">
</line>
<line class="cls-9" x1="-1" y1="59" x2="72.44" y2="59">
</line>
<line class="cls-9" x1="-1" y1="55" x2="72.44" y2="55">
</line>
<line class="cls-9" x1="-1" y1="51" x2="72.44" y2="51">
</line>
<line class="cls-9" x1="-1" y1="47" x2="72.44" y2="47">
</line>
<line class="cls-9" x1="-1" y1="43" x2="72.44" y2="43">
</line>
<line class="cls-9" x1="-1" y1="39" x2="72.44" y2="39">
</line>
<line class="cls-9" x1="-1" y1="35" x2="72.44" y2="35">
</line>
<line class="cls-9" x1="-1" y1="31" x2="72.44" y2="31">
</line>
<line class="cls-9" x1="-1" y1="27" x2="72.44" y2="27">
</line>
<line class="cls-9" x1="-1" y1="23" x2="72.44" y2="23">
</line>
<line class="cls-9" x1="-1" y1="19" x2="72.44" y2="19">
</line>
<line class="cls-9" x1="-1" y1="15" x2="72.44" y2="15">
</line>
<line class="cls-9" x1="-1" y1="11" x2="72.44" y2="11">
</line>
<line class="cls-9" x1="-1" y1="7" x2="72.44" y2="7">
</line>
<line class="cls-9" x1="-1" y1="3" x2="72.44" y2="3">
</line>
<line class="cls-9" x1="1.04" y1="69" x2="74.48" y2="69">
</line>
<line class="cls-9" x1="1.04" y1="65" x2="74.48" y2="65">
</line>
<line class="cls-9" x1="1.04" y1="61" x2="74.48" y2="61">
</line>
<line class="cls-9" x1="1.04" y1="57" x2="74.48" y2="57">
</line>
<line class="cls-9" x1="1.04" y1="53" x2="74.48" y2="53">
</line>
<line class="cls-9" x1="1.04" y1="49" x2="74.48" y2="49">
</line>
<line class="cls-9" x1="1.04" y1="45" x2="74.48" y2="45">
</line>
<line class="cls-9" x1="1.04" y1="41" x2="74.48" y2="41">
</line>
<line class="cls-9" x1="1.04" y1="37" x2="74.48" y2="37">
</line>
<line class="cls-9" x1="1.04" y1="33" x2="74.48" y2="33">
</line>
<line class="cls-9" x1="1.04" y1="29" x2="74.48" y2="29">
</line>
<line class="cls-9" x1="1.04" y1="25" x2="74.48" y2="25">
</line>
<line class="cls-9" x1="1.04" y1="21" x2="74.48" y2="21">
</line>
<line class="cls-9" x1="1.04" y1="17" x2="74.48" y2="17">
</line>
<line class="cls-9" x1="1.04" y1="13" x2="74.48" y2="13">
</line>
<line class="cls-9" x1="1.04" y1="9" x2="74.48" y2="9">
</line>
<line class="cls-9" x1="1.04" y1="5" x2="74.48" y2="5">
</line>
<line class="cls-9" x1="1.04" y1="1" x2="74.48" y2="1">
</line>
</g>
<g >
<line class="cls-9" x1="-73" y1="71" x2=".44" y2="71">
</line>
<line class="cls-9" x1="-73" y1="67" x2=".44" y2="67">
</line>
<line class="cls-9" x1="-73" y1="63" x2=".44" y2="63">
</line>
<line class="cls-9" x1="-73" y1="59" x2=".44" y2="59">
</line>
<line class="cls-9" x1="-73" y1="55" x2=".44" y2="55">
</line>
<line class="cls-9" x1="-73" y1="51" x2=".44" y2="51">
</line>
<line class="cls-9" x1="-73" y1="47" x2=".44" y2="47">
</line>
<line class="cls-9" x1="-73" y1="43" x2=".44" y2="43">
</line>
<line class="cls-9" x1="-73" y1="39" x2=".44" y2="39">
</line>
<line class="cls-9" x1="-73" y1="35" x2=".44" y2="35">
</line>
<line class="cls-9" x1="-73" y1="31" x2=".44" y2="31">
</line>
<line class="cls-9" x1="-73" y1="27" x2=".44" y2="27">
</line>
<line class="cls-9" x1="-73" y1="23" x2=".44" y2="23">
</line>
<line class="cls-9" x1="-73" y1="19" x2=".44" y2="19">
</line>
<line class="cls-9" x1="-73" y1="15" x2=".44" y2="15">
</line>
<line class="cls-9" x1="-73" y1="11" x2=".44" y2="11">
</line>
<line class="cls-9" x1="-73" y1="7" x2=".44" y2="7">
</line>
<line class="cls-9" x1="-73" y1="3" x2=".44" y2="3">
</line>
<line class="cls-9" x1="-70.96" y1="69" x2="2.48" y2="69">
</line>
<line class="cls-9" x1="-70.96" y1="65" x2="2.48" y2="65">
</line>
<line class="cls-9" x1="-70.96" y1="61" x2="2.48" y2="61">
</line>
<line class="cls-9" x1="-70.96" y1="57" x2="2.48" y2="57">
</line>
<line class="cls-9" x1="-70.96" y1="53" x2="2.48" y2="53">
</line>
<line class="cls-9" x1="-70.96" y1="49" x2="2.48" y2="49">
</line>
<line class="cls-9" x1="-70.96" y1="45" x2="2.48" y2="45">
</line>
<line class="cls-9" x1="-70.96" y1="41" x2="2.48" y2="41">
</line>
<line class="cls-9" x1="-70.96" y1="37" x2="2.48" y2="37">
</line>
<line class="cls-9" x1="-70.96" y1="33" x2="2.48" y2="33">
</line>
<line class="cls-9" x1="-70.96" y1="29" x2="2.48" y2="29">
</line>
<line class="cls-9" x1="-70.96" y1="25" x2="2.48" y2="25">
</line>
<line class="cls-9" x1="-70.96" y1="21" x2="2.48" y2="21">
</line>
<line class="cls-9" x1="-70.96" y1="17" x2="2.48" y2="17">
</line>
<line class="cls-9" x1="-70.96" y1="13" x2="2.48" y2="13">
</line>
<line class="cls-9" x1="-70.96" y1="9" x2="2.48" y2="9">
</line>
<line class="cls-9" x1="-70.96" y1="5" x2="2.48" y2="5">
</line>
<line class="cls-9" x1="-70.96" y1="1" x2="2.48" y2="1">
</line>
</g>
</g>
</pattern>
</defs>

<g id="Characters">
<g >
<g >
<path class="cls-2" d="M26.47,14.09s-5.49,3.42-5.13,12.88">
</path>
<path class="cls-1" d="M30.07,12.2s-7.38,1.62-8.56,10.72c-1.17,9.64,.45,20.62,.45,20.62,0,0-7.66,14.05-7.38,16.48-4.86,2.61-6.75,3.33-6.75,3.33l2.16,7.84s11.08,4.59,26.66,4.14,21.7-3.6,21.7-3.6l2.7-9.19-5.49-1.71-3.06-12.25-5.22-6.57s1.89-10.81,1.71-14.95-.81-9.19-4.32-11.98-14.59-2.88-14.59-2.88Z">
</path>
<path class="cls-2" d="M35.53,58.19V15.41l6.6-1.17s5.38,2.69,6.1,5.83,0,18.4-1.44,23.6-1.8,13.76-11.27,14.51Z">
</path>
<path class="cls-4" d="M35.4,58.32v.05s-.18,.01-.48-.01c.14-.01,.3-.03,.48-.04Z">
</path>
<path class="cls-4" d="M44.76,39.18c-.58,1.5-2.02,5.38-2.02,5.38l-5.84-3.59-2,.66-1.58-.66-5.84,3.59s-1.44-3.88-2.02-5.38-2.77-3.87-2.77-3.87l.63,6.41s1.33,9.54,4.51,13.18c2.21,2.53,5.01,3.22,6.51,3.41,.2,.02,.38,.03,.53,.05h.05c.14-.01,.3-.03,.48-.04,1.61-.17,4.73-.83,6.99-3.42,3.18-3.64,4.51-13.18,4.51-13.18l.64-6.41s-2.2,2.37-2.78,3.87Zm-9.95,8.71c-.83-.14-2.52-.45-4.96-1.08,1.13-1.63,4.15-1.95,5.02-2.01,1.08,.08,4.39,.42,5.5,2.01-2.43,.62-4.49,.94-5.56,1.08Z">
</path>
<path class="cls-4" d="M34.87,58.36c-.34,.02-.53,.01-.53,.01v-.06c.2,.02,.38,.03,.53,.05Z">
</path>
<path class="cls-3" d="M32.65,33.22s.85-1.28-1.94-1.65-5.39,1.47-5.39,1.47c0,0,2.98,1.61,7.33,.19Z">
</path>
<path class="cls-3" d="M37.52,33.22s-.85-1.28,1.94-1.65,5.39,1.47,5.39,1.47c0,0-2.98,1.61-7.33,.19Z">
</path>
<path class="cls-3" d="M24.23,44.84s-5.87,1.37-5.97,8.12,.78,11.55,.78,11.55c0,0,6.17,6.66,19.57,4.5s14.68-7.24,15.17-9.4c-.98-8.32-2.64-11.94-2.64-11.94,0,0-2.45-3.52-4.89-3.72-1.17,7.24-2.35,9.3-5.09,11.94s-6.07,2.54-8.71,1.96-5.28-2.45-6.66-5.97-1.57-7.05-1.57-7.05Z">
</path>
<path d="M17.55,59.59l-8.98,3.38,2.11,8.24,10.35,2.96,22.81-5.91s-20.28,5.07-26.3-8.66Z">
</path>
<path d="M39.94,57.37l-4.12,2.64s-10.67,1.16-15.32-3.8-.95-10.98,3.49-11.94c.53,6.97,4.65,13.41,9.19,13.84s6.76-.74,6.76-.74Z">
</path>
<path class="cls-17" d="M53.75,59.97l7.34,2.94-2.31,9.13s-24.65,5.66-36.61,1.15c8.29-3.25,21.67-4.94,21.67-4.94,0,0,9.79-4.33,9.9-8.28Z">
</path>
<path class="cls-1" d="M47.48,18.26c-4.06-8.12-9.26-8.13-12.41-8.14h-.06c-3.89,0-8.35,.63-12.1,8.14-4.31,8.62,2.19,31.92,2.26,32.15,.68,2.41,2.99,8.03,9.69,8.03h.67c6.7,0,9.01-5.61,9.69-8.03,.07-.23,6.57-23.53,2.26-32.15Zm-3.7,31.74c-.59,2.09-2.57,6.94-8.25,6.94h-.67c-5.67,0-7.66-4.85-8.24-6.94-1.8-6.36-5.73-24.34-2.36-31.07,3.37-6.74,7.16-7.31,10.76-7.31h.1c2.94,0,7.38,.01,11.02,7.31,3.36,6.73-.56,24.71-2.36,31.07Z">
</path>
<path class="cls-15" d="M54.67,63.25s-1.12,3.98-12.56,7.33c7.09,.87,14.42-.87,14.42-.87l1.99-5.22-3.85-1.24Z">
</path>
<path class="cls-4" d="M32.9,29.09l-.13,4.24s-.46-1.84-3.15-1.84c-2.3,.15-4.45,1.57-4.45,1.57l-1.81-5.09,2.79-.59,6.75,1.71Z">
</path>
<path class="cls-4" d="M37.32,29.09l.13,4.24s.46-1.84,3.15-1.84c2.3,.15,4.45,1.57,4.45,1.57l1.81-5.09-2.79-.59-6.75,1.71Z">
</path>
<path class="cls-2" d="M27.07,37.72l5.35-2.5s-2.57,5.42-5.35,2.5Z">
</path>
<path d="M21.63,30.51s-2.76-2.68-4.74-3.24c.95,7.82,3,13.03,4.97,14.76-.47-5.37-.24-11.53-.24-11.53Z">
</path>
<path d="M48.63,30.51s2.76-2.68,4.74-3.24c-.95,7.82-3,13.03-4.97,14.76,.47-5.37,.24-11.53,.24-11.53Z">
</path>
<path d="M21.2,26.06s-5.17,17.17-6.24,21.66-2.34,9.07-1.46,12.98c3.13-.8,3.61-.88,3.61-.88,0,0,.88-9.17,2.34-11.22s4.59-3.71,4.59-3.71l-2.83-18.83Z">
</path>
<path d="M49.14,26.52l-2.58,17.78s4.49,2.24,5.07,5.37c.78,4.2,2.44,10.34,2.44,10.34l2.93,.88s.2-8.68-1.76-14.25-4.93-14.86-6.1-20.13Z">
</path>
<path d="M23.29,28.05l2.91-1.46,.11-.05,.24,.05,6.85,1.5-.42,1.71-6.77-1.82c1.44-.02-3.1,.08-2.91,.08h0Z">
</path>
<path d="M32.24,32.01c-2.36-.62-5.01-.36-6.82,1.34,0,0,0-.68,0-.68,1.93,1.18,4.69,.82,6.78,.28,.48-.22,.88,.49,.44,.78-1.34,.9-2.66,1.87-4.14,2.55-.96-.12-1.96-.34-2.67-1.03,.81,.49,1.78,.58,2.67,.54l-.12,.03c1.1-.76,2.64-1.99,3.72-2.82,0,0,.44,.78,.44,.78-2.45,.78-5.52,1.15-7.72-.43-.19-.15-.23-.43-.07-.62,2.02-1.83,5.13-1.93,7.48-.73h0Z">
</path>
<path d="M24.77,36.09c.61,2.22,1.16,4.2,1.83,6.41-1.58-1.67-2.27-4.16-1.83-6.41h0Z">
</path>
<path d="M46.89,28.05c.15,0-4.32-.1-2.91-.08,0,0-6.77,1.82-6.77,1.82l-.42-1.71,6.85-1.5,.24-.05,.11,.05,2.91,1.46h0Z">
</path>
<path d="M37.95,32.01c2.33-1.19,5.39-1.1,7.42,.67,.19,.14,.22,.41,.07,.6-1.09,1-2.57,1.11-3.94,1.15-1.34-.03-2.58-.14-3.86-.64,0,0,.44-.78,.44-.78,1.09,.83,2.62,2.05,3.72,2.82,0,0-.12-.03-.12-.03,.89,.04,1.86-.05,2.67-.54-.7,.68-1.71,.91-2.67,1.03-1.48-.68-2.79-1.65-4.14-2.55-.44-.3-.03-1,.44-.78,2.1,.53,4.86,.89,6.78-.28,0,0,0,.68,0,.68-1.81-1.7-4.46-1.96-6.82-1.34h0Z">
</path>
<path d="M45.41,36.09c.44,2.25-.25,4.74-1.83,6.41,.66-2.21,1.21-4.19,1.83-6.41h0Z">
</path>
<path d="M36.72,35.11c.25,1.19,.45,2.38,.63,3.57l-.05-.14,1.07,1.62c.09,.13,.09,.3,0,.43-.38,.52-.61,1.38-1.16,1.13-.35-.17-.69-.34-1.03-.51,0,0,.51-.04,.51-.04l-1.27,.93c-.18,.13-.41,.12-.58,0l-1.28-.93,.51,.03c-.48,.16-1.17,.9-1.6,.35-.27-.52-.83-1.07-.58-1.38,0,0,1.07-1.62,1.07-1.62l-.05,.14c.18-1.19,.38-2.38,.63-3.57,.02,1.25,.13,2.54-.01,3.77,0,0-.91,1.72-.91,1.72v-.46s.62,.89,.62,.89l-.6-.15c.46-.18,.97-.79,1.48-.51,0,0,1.3,.91,1.3,.91,0,0-.58,0-.58,0,0,0,1.29-.9,1.29-.91,.52-.28,1.01,.33,1.48,.51,0,0-.6,.15-.6,.15l.63-.89s-.01,.45-.01,.45l-.91-1.72c-.14-1.23-.03-2.52-.01-3.77h0Z">
</path>
<path d="M40.2,46.5c-1.55-1.12-3.44-1.28-5.28-1.28-1.85,.03-3.7,.27-5.27,1.36,1.95-3.12,8.6-3.23,10.56-.08h0Z">
</path>
<path d="M33.14,47.58c1.29-.55,2.5-.49,3.87-.09-1.11,.98-2.72,.89-3.87,.09h0Z">
</path>
<path d="M26.07,20.98c-.34,1.14-.83,2.29-1.28,3.37-.15,.37-.35,.7-.76,.99-.17-.48-.08-.9,.07-1.27,.49-1.13,1.11-2.19,1.97-3.09h0Z">
</path>
<path d="M44.13,20.98c.85,.9,1.48,1.96,1.97,3.09,.15,.38,.24,.8,.07,1.27-.42-.29-.61-.62-.76-.99-.44-1.09-.94-2.23-1.28-3.37h0Z">
</path>
<polygon class="cls-5" points="28.79 61 28.34 59.53 30.21 59.9 28.79 61">
</polygon>
<polygon class="cls-5" points="32.09 61 31.45 59.85 33.06 59.85 32.09 61">
</polygon>
<polygon class="cls-5" points="34.98 61.09 34.02 60.12 35.99 59.76 34.98 61.09">
</polygon>
<polygon class="cls-5" points="38.05 60.95 36.86 59.85 39.11 59.67 38.05 60.95">
</polygon>
<polygon class="cls-5" points="41.12 60.63 39.79 59.67 42.18 58.98 41.12 60.63">
</polygon>
<polygon class="cls-5" points="49.05 56.87 47.86 56.18 49.65 55.22 49.05 56.87">
</polygon>
<polygon class="cls-5" points="52.81 55.77 52.03 57.37 53.64 58.47 52.81 55.77">
</polygon>
<polygon points="46.99 66.17 45.84 65.49 45.2 67.23 47.08 66.82 46.99 66.17">
</polygon>
<path d="M43.78,67.32l-1.1-.5-1.1,1.47s1.01,.05,2.2-.96Z">
</path>
<path d="M40.99,68.42l-2.06-2.52-.78,3.03s1.28,.05,2.84-.5Z">
</path>
<polygon points="36.26 69.06 35.3 68.1 33.79 69.2 36.26 69.06">
</polygon>
<path d="M32.28,68.97l-.96-3.35-.73,.64-1.65,2.61s3.16,.09,3.35,.09Z">
</path>
<path d="M28.29,68.47l-.87-1.28-1.51,.69s1.42,.46,2.38,.6Z">
</path>
<path d="M24.74,64.69s-.13,2.59,.35,3.2c-5.21-1.85-8.18-5.34-8.47-7.99,1.85-5.5,2.27-7.42,2.27-7.42,0,0,.48,3.16,6.07,5.75-2.59,.16-2.78,1.02-2.49,2.53s2.27,3.93,2.27,3.93Z">
</path>
<line class="cls-6" x1="16.62" y1="59.89" x2="7.37" y2="63.51">
</line>
<line class="cls-6" x1="53.34" y1="59.89" x2="62.59" y2="63.51">
</line>
<path class="cls-6" d="M47.25,18.38c3.88,7.76-1.18,28.09-2.28,31.97s-3.96,7.85-9.45,7.85h-.67c-5.48,0-8.35-3.96-9.45-7.85s-6.16-24.21-2.28-31.97,8.62-8.01,11.99-8,8.26,.24,12.14,8Z">
</path>
<path class="cls-6" d="M22.12,21.35s-2.59,12.16-4.55,17.88-5.26,14.35-3.84,21.73">
</path>
<path class="cls-6" d="M48.16,21.35s2.59,12.16,4.55,17.88,5.26,14.35,3.84,21.73">
</path>
<path d="M22.21,20.49s3.02-5.44,6.73-5.1c4.01,1.04,5.34,2.67,9.35,.74,4.01-1.98,7.87,1.04,9.6,4.55-.94-5.19-4.9-10.49-12.07-10.19s-11.18,1.73-13.6,9.99Z">
</path>
<path class="cls-6" d="M24.12,44.76c-3.36,1.74-5.44,4.19-5.34,6.83,.18,4.87,7.69,8.54,16.77,8.2,9.08-.34,16.3-4.56,16.12-9.43-.09-2.48-2.08-4.64-5.2-6.13">
</path>
<path class="cls-6" d="M18.78,51.59l-2.12,8.37c.2,5.5,8.69,9.65,18.95,9.27s18.42-5.15,18.21-10.65l-2.15-8.21">
</path>
<path class="cls-5" d="M38.72,67.33c-.01,.9-.82,1.63-1.82,1.62s-1.74-.68-1.78-1.54c-.07,.85-.85,1.52-1.81,1.51s-1.8-.74-1.79-1.64c0-.39,.17-.75,.42-1.03l1.42-1.34,1.81-1.71,1.78,1.74,1.38,1.36c.26,.29,.4,.65,.4,1.04Z">
</path>
<path class="cls-5" d="M28.89,61.82c.05-.98,.78-1.75,1.62-1.71s1.44,.81,1.44,1.74c.1-.93,.8-1.63,1.61-1.59s1.49,.87,1.44,1.86c-.02,.43-.18,.81-.41,1.12l-1.27,1.41-1.62,1.81-1.43-1.96-1.1-1.53c-.2-.32-.31-.72-.29-1.15Z">
</path>
<path class="cls-5" d="M30.55,66.63c-.16,.97-.96,1.65-1.8,1.52s-1.34-.96-1.24-1.89c-.2,.91-.97,1.53-1.77,1.41s-1.39-1.03-1.23-2c.07-.42,.27-.79,.53-1.06l1.42-1.27,1.81-1.63,1.2,2.11,.93,1.64c.17,.34,.23,.75,.16,1.17Z">
</path>
<path class="cls-5" d="M22.43,59.84c.16-.97,.96-1.65,1.8-1.52s1.34,.96,1.24,1.89c.2-.91,.97-1.3,1.77-1.17s1.39,.8,1.23,1.77c-.07,.42-.27,.79-.53,1.06l-1.42,1.27-1.81,1.63-1.2-2.11-.93-1.64c-.17-.34-.23-.75-.16-1.17Z">
</path>
<path class="cls-5" d="M41.14,61.67c-.08-.98-.82-1.73-1.66-1.67s-1.42,.84-1.39,1.77c-.12-.93-.84-1.61-1.64-1.55s-1.47,.91-1.39,1.89c.03,.43,.2,.81,.43,1.1l1.3,1.38,1.66,1.77,1.38-2,1.06-1.56c.2-.33,.29-.73,.26-1.16Z">
</path>
<path class="cls-5" d="M39.6,66.52c.18,.97,1.01,1.63,1.84,1.48s1.32-.99,1.19-1.92c.22,.91,1.01,1.51,1.8,1.36s1.36-1.07,1.18-2.03c-.08-.42-.29-.78-.55-1.05l-1.45-1.23-1.85-1.58-1.15,2.13-.89,1.66c-.16,.35-.21,.75-.13,1.18Z">
</path>
<path class="cls-5" d="M45.74,64.67c.07,.88,.69,1.42,1.38,1.21s1.15-1.02,1.12-1.87c.11,.82,.7,1.31,1.36,1.1s1.2-1.1,1.12-1.97c-.03-.38-.17-.7-.37-.92l-1.08-1.01-1.38-1.3-1.11,2.06-.86,1.61c-.16,.33-.23,.71-.2,1.1Z">
</path>
<path class="cls-5" d="M47.54,59.53c-.18-.97-1.01-1.63-1.84-1.48s-1.32,.99-1.19,1.92c-.22-.91-1.01-1.51-1.8-1.36s-1.36,1.07-1.18,2.03c.08,.42,.29,.78,.55,1.05l1.45,1.23,1.85,1.58,1.15-2.13,.89-1.66c.16-.35,.21-.75,.13-1.18Z">
</path>
<path class="cls-5" d="M51.58,57.16c0-1.45-.93-2.19-1.52-2.08s-.92,1.98-.8,2.76c-.18-.77-.76-1.3-1.32-1.19s-.95,.86-.79,1.69c.07,.36,.22,.67,.42,.9l1.06,1.08,1.36,1.38,.77-1.77,.59-1.38c.1-.29,.23-1.01,.23-1.38Z">
</path>
<line class="cls-5" x1="51.44" y1="58.23" x2="52.73" y2="54.57">
</line>
<path class="cls-5" d="M50.47,60.59s-.51,2.33,1.57,2.42">
</path>
<line class="cls-5" x1="51.85" y1="57.31" x2="53.86" y2="58.96">
</line>
</g>
<path class="cls-12" d="M30.24,13.21s7.45-.38,11.27,.57c-3.82-2.96-7.36-3.82-11.27-.57Z">
</path>
<path class="cls-12" d="M20.54,35.63s-5.81,12.16-4.86,22.83">
</path>
<path class="cls-12" d="M51.07,37.39s5.27,10.54,4.73,21.75">
</path>
<polygon class="cls-17" points="10.25 63.72 17.36 61.01 10.72 65.59 10.25 63.72">
</polygon>
</g>
</g>
 <g
     id="g2850">
    <g
       id="g2837">
      <path
         id="path1951"
         d="M 0.056640625 0.04296875 L 0.056640625 79.943359 L 69.308594 79.943359 L 69.308594 0.04296875 L 0.056640625 0.04296875 z M 33.615234 3.5957031 C 34.206332 3.5957038 34.786991 3.6051034 35.421875 3.6152344 C 44.430653 3.7671809 53.471255 5.1336733 61.560547 7.5546875 L 62.064453 7.7070312 L 62.25 8.1640625 C 66.070247 17.605006 66.990234 28.726438 66.990234 40.0625 C 66.990234 51.398562 65.972723 63.025755 61.988281 72.578125 L 61.791016 73.044922 L 61.275391 73.185547 C 53.273669 75.403966 44.691921 76.529297 35.759766 76.529297 C 35.212453 76.529297 34.675812 76.519896 34.150391 76.509766 L 33.943359 76.509766 C 24.901742 76.357819 15.860367 74.989738 7.7929688 72.558594 L 7.2890625 72.40625 L 7.1035156 71.951172 C 3.2942144 62.520359 2.375 51.369168 2.375 40.0625 C 2.375 28.755832 3.3819737 17.127318 7.3554688 7.5546875 L 7.5527344 7.0898438 L 8.0664062 6.9472656 C 15.509867 4.890923 23.785212 3.7371557 32.005859 3.6054688 C 32.542226 3.5953387 33.078867 3.5957031 33.615234 3.5957031 z "
         style="opacity:1;vector-effect:none;fill:#ffffff;fill-opacity:1;fill-rule:nonzero;stroke:none;stroke-width:1.95200002;stroke-linecap:butt;stroke-linejoin:miter;stroke-miterlimit:4;stroke-dasharray:none;stroke-dashoffset:0;stroke-opacity:1" />
    </g>
    <path
       id="path1154-8-2"
       d="m 33.675163,6.6112954 c 0.557696,0 1.115392,0.00956 1.683415,0.019115 8.427403,0.14336 16.803167,1.4049288 24.363042,3.6700176 3.573384,8.830981 4.443772,19.417362 4.443772,29.761551 0,10.344189 -0.95301,21.39888 -4.68131,30.334991 -7.435942,2.064385 -15.429581,3.274388 -23.774362,3.274388 -0.506058,0 -1.012115,-0.0096 -1.518172,-0.01911 h -0.17557 C 25.56792,73.508883 17.192156,72.088619 9.6426089,69.813973 6.0795528,61.002107 5.2088244,50.415411 5.2088244,40.061979 c 0,-10.353432 0.95335,-21.389323 4.6609939,-30.325434 C 16.820359,7.8155201 24.462856,6.7450981 32.177647,6.6208528 c 0.49573,-0.00956 1.001787,-0.00956 1.497516,-0.00956 m 0,-0.9557337 c -0.506057,0 -1.012114,0 -1.518171,0.00956 C 24.40089,5.7893644 16.593149,6.8789009 9.570315,8.8190405 L 9.0849131,8.9528432 8.8990146,9.3924808 C 5.1500599,18.424166 4.1999116,29.394246 4.1999116,40.061979 c 0,10.667733 0.8675267,21.188618 4.461566,30.0865 l 0.1755708,0.430081 0.4750741,0.14336 c 7.6115135,2.293761 16.1421925,3.584001 24.6728715,3.727361 h 0.196227 c 0.495729,0.0096 1.001786,0.01911 1.518171,0.01911 8.427403,0 16.524318,-1.060864 24.073866,-3.153921 l 0.485403,-0.133802 0.185898,-0.439639 c 3.759282,-9.01257 4.719759,-19.983589 4.719759,-30.679055 0,-10.695466 -0.867528,-21.188618 -4.471894,-30.0960578 L 60.516853,9.5358409 60.041779,9.3924808 C 52.409609,7.108277 43.87893,5.8180364 35.379234,5.6746763 34.780227,5.6651187 34.232859,5.6555621 33.675163,5.6555615 Z"
       style="fill:#ff0000;stroke:#ffffff;stroke-width:1.84341729;stroke-miterlimit:4;stroke-dasharray:none" />
    <path
       id="path1154"
       d="m 33.614853,4.6077955 c 0.591098,0 1.182197,0.01013 1.784241,0.02026 8.932155,0.1519464 17.809578,1.4890758 25.822246,3.8898304 3.787408,9.3599041 4.709928,20.5803481 4.709928,31.5440931 0,10.963745 -1.01009,22.680548 -4.961693,32.151879 -7.881312,2.18803 -16.353723,3.302304 -25.198307,3.302304 -0.536368,0 -1.072735,-0.01013 -1.609102,-0.02026 H 33.97608 C 25.022033,75.343956 16.14461,74.006827 8.1428892,71.595943 4.3664269,62.256298 3.443547,51.035521 3.443547,40.061979 c 0,-10.973542 1.01045,-22.670418 4.9401601,-32.1417498 7.3668369,-2.036083 15.4670749,-3.170617 23.6439369,-3.3023039 0.525421,-0.01013 1.061788,-0.01013 1.587209,-0.01013 m 0,-1.0129766 c -0.536367,0 -1.072734,0 -1.609101,0.01013 C 23.785105,3.7366356 15.509726,4.891429 8.0662653,6.9477716 L 7.5517907,7.0895883 7.3547579,7.5555576 C 3.3812628,17.128188 2.3742062,28.755311 2.3742062,40.061979 c 0,11.306668 0.9194864,22.457692 4.7287876,31.888505 l 0.1860865,0.45584 0.5035283,0.151947 c 8.0673984,2.431144 17.1090154,3.798662 26.1506324,3.950608 h 0.207979 c 0.525421,0.01013 1.061788,0.02026 1.609101,0.02026 8.932155,0 17.514028,-1.124404 25.51575,-3.342823 l 0.514475,-0.141816 0.197032,-0.46597 c 3.984442,-9.55237 5.002445,-21.180489 5.002445,-32.516551 0,-11.336062 -0.919487,-22.457692 -4.739734,-31.8986353 L 62.064202,7.7075041 61.560674,7.5555576 C 53.471382,5.1345434 44.429765,3.7670249 35.420987,3.6150784 c -0.634884,-0.01013 -1.215036,-0.020259 -1.806134,-0.02026 z"
       style="fill:#000000;stroke:#000000;stroke-width:1.95382714;stroke-miterlimit:4;stroke-dasharray:none" />
    <g
       id="g1810">
      <path
         d="M 6.5134911,7.7433673 C 5.6489029,6.8479453 4.058602,6.5681013 3.6272194,7.3820013 3.284151,8.0292783 3.3625296,8.5309135 4.395235,8.9201755 3.2963719,9.5187755 1.4857674,9.4447465 1.1893447,7.4467713 0.95320848,5.8551433 2.674739,4.8863543 3.1399725,5.0916244 3.0034432,3.6818714 1.8221094,4.0692802 0.95849208,3.2813384 0.34259068,2.7194046 0.23126071,-0.02624603 0.0561761,0.04378767 -0.0138576,0.21887227 2.7317937,0.33020157 3.2937267,0.94610377 4.0816685,1.8097211 3.6942598,2.9910547 5.1040128,3.1275841 4.8987425,2.6623507 5.8675315,0.94082017 7.4591593,1.1769564 9.4571345,1.4733791 9.5311625,3.2839847 8.9325635,4.3828467 8.5433008,3.3501417 8.041666,3.2717627 7.3943894,3.6148312 6.5804899,4.0462137 6.8603354,5.6365129 7.7557553,6.5011023"
         style="fill:#000000;stroke:#000000;stroke-width:0.1112323px;stroke-linecap:butt;stroke-linejoin:miter;stroke-opacity:1"
         id="path1737-3" />
      <path
         d="m 62.850738,7.7433673 c 0.864588,-0.895422 2.454889,-1.175266 2.886271,-0.361366 0.343069,0.647277 0.26469,1.148912 -0.768015,1.538174 1.098863,0.5986 2.909467,0.524571 3.20589,-1.473404 0.236136,-1.591628 -1.485394,-2.560417 -1.950628,-2.3551469 0.13653,-1.409753 1.317863,-1.0223442 2.181481,-1.810286 0.615901,-0.5619338 0.727231,-3.30758442 0.902316,-3.23755072 0.07003,0.1750846 -2.675618,0.2864139 -3.237551,0.9023161 C 65.28256,1.8097211 65.669969,2.9910547 64.260216,3.1275841 64.465486,2.6623507 63.496697,0.94082018 61.905069,1.1769564 c -1.997975,0.2964227 -2.072003,2.1070283 -1.473404,3.2058903 0.389263,-1.032705 0.890898,-1.111084 1.538174,-0.7680155 0.8139,0.4313825 0.534054,2.0216817 -0.361366,2.8862711"
         style="fill:#000000;stroke:#000000;stroke-width:0.1112323px;stroke-linecap:butt;stroke-linejoin:miter;stroke-opacity:1"
         id="path1737-3-5" />
      <path
         d="m 62.850738,72.244244 c 0.864588,0.895422 2.454889,1.175266 2.886272,0.361366 0.343068,-0.647277 0.264689,-1.148912 -0.768016,-1.538174 1.098863,-0.5986 2.909468,-0.524571 3.20589,1.473404 0.236137,1.591628 -1.485394,2.560417 -1.950628,2.355147 0.13653,1.409753 1.317864,1.022344 2.181481,1.810286 0.615901,0.561934 0.727231,3.307584 0.902316,3.237551 0.07003,-0.175085 -2.675618,-0.286414 -3.237551,-0.902317 -0.787942,-0.863617 -0.400533,-2.04495 -1.810286,-2.18148 0.20527,0.465234 -0.763519,2.186764 -2.355146,1.950628 -1.997976,-0.296423 -2.072004,-2.107028 -1.473405,-3.20589 0.389263,1.032705 0.890898,1.111084 1.538175,0.768015 0.813899,-0.431382 0.534054,-2.021682 -0.361366,-2.886271"
         style="fill:#000000;stroke:#000000;stroke-width:0.1112323px;stroke-linecap:butt;stroke-linejoin:miter;stroke-opacity:1"
         id="path1737-3-7" />
      <path
         d="M 6.513491,72.244245 C 5.648903,73.139667 4.058602,73.419511 3.62722,72.605611 3.284151,71.958334 3.36253,71.456699 4.395235,71.067437 c -1.098863,-0.5986 -2.909467,-0.524571 -3.20589,1.473404 -0.23613599,1.591628 1.485394,2.560417 1.950628,2.355147 -0.13653,1.409753 -1.317863,1.022344 -2.18148099,1.810286 -0.615901,0.561933 -0.727231,3.307584 -0.902316,3.23755 C -0.01385399,79.76874 2.731794,79.65741 3.293727,79.041508 4.081669,78.177891 3.69426,76.996557 5.104013,76.860028 4.898743,77.325261 5.867532,79.046792 7.45916,78.810656 9.457135,78.514233 9.531163,76.703627 8.932564,75.604765 8.543301,76.63747 8.041666,76.715849 7.39439,76.372781 6.58049,75.941398 6.860336,74.351099 7.755756,73.48651"
         style="fill:#000000;stroke:#000000;stroke-width:0.1112323px;stroke-linecap:butt;stroke-linejoin:miter;stroke-opacity:1"
         id="path1737-3-5-5" />
    </g>
    <path
       id="path1154-9"
       d="m 33.712865,7.4258691 c 0.536813,0 1.07363,0.00933 1.620386,0.01865 8.111875,0.1398689 16.174044,1.3707167 23.450873,3.5806479 3.439594,8.615932 4.277395,18.944521 4.277395,29.036812 0,10.092292 -0.917329,20.877786 -4.506039,29.596289 -7.157536,2.014114 -14.851888,3.03982 -22.884234,3.03982 -0.487111,0 -0.974221,-0.0094 -1.461331,-0.01865 H 34.040918 C 25.909161,72.53957 17.846991,71.308722 10.580105,69.089467 7.1504515,60.492184 6.3123238,50.163289 6.3123238,40.061979 c 0,-10.101311 0.9176558,-20.868461 4.4864832,-29.586965 6.690308,-1.8742449 14.046665,-2.9186005 21.472608,-3.0398203 0.47717,-0.00933 0.964281,-0.00933 1.44145,-0.00933 m 0,-0.9324602 c -0.487111,0 -0.974221,0 -1.46133,0.00933 C 24.785826,6.6239532 17.270413,7.686958 10.510517,9.5798526 L 10.043289,9.710397 9.8643508,10.139328 c -3.6085914,8.811751 -4.5231655,19.514693 -4.5231655,29.922651 0,10.407958 0.8350459,20.672644 4.294522,29.353849 l 0.1689973,0.419608 0.4572874,0.13987 c 7.326533,2.237904 15.537818,3.496724 23.749103,3.636593 h 0.188879 c 0.47717,0.0094 0.96428,0.01865 1.461331,0.01865 8.111875,0 15.905636,-1.035031 23.172525,-3.077119 l 0.467228,-0.130544 0.178938,-0.428932 c 3.618533,-8.793101 4.543048,-19.496959 4.543048,-29.931975 0,-10.435016 -0.835047,-20.672644 -4.304463,-29.363174 l -0.168997,-0.419609 -0.457288,-0.13987 C 51.74588,7.9107484 43.534594,6.6519271 35.353133,6.512058 34.776554,6.502738 34.249678,6.493409 33.712865,6.493409 Z"
       style="fill:#000000;stroke:none;stroke-width:1.78642213;stroke-miterlimit:4;stroke-dasharray:none" />
    <path
       id="path1154-9-3"
       d="m 33.712865,7.4258686 c 0.536813,0 1.07363,0.00933 1.620386,0.01865 8.111875,0.1398689 16.174044,1.3707167 23.450873,3.5806484 3.439594,8.615932 4.277395,18.944521 4.277395,29.036812 0,10.092292 -0.917329,20.877786 -4.506039,29.596288 -7.157536,2.014114 -14.851888,3.03982 -22.884234,3.03982 -0.487111,0 -0.974221,-0.0094 -1.461331,-0.01865 H 34.040918 C 25.909161,72.539569 17.846991,71.308722 10.580105,69.089466 7.1504515,60.492184 6.3123238,50.163288 6.3123238,40.061979 c 0,-10.101312 0.9176558,-20.868461 4.4864832,-29.586965 6.690308,-1.8742454 14.046665,-2.918601 21.472608,-3.0398208 0.47717,-0.00933 0.964281,-0.00933 1.44145,-0.00933 m 0,-0.9324602 c -0.487111,0 -0.974221,0 -1.46133,0.00933 C 24.785826,6.6239527 17.270413,7.6869575 10.510517,9.5798521 L 10.043289,9.7103965 9.8643508,10.139328 C 6.2557594,18.951079 5.3411853,29.65402 5.3411853,40.061979 c 0,10.407958 0.8350459,20.672643 4.294522,29.353849 l 0.1689973,0.419608 0.4572874,0.13987 c 7.326533,2.237904 15.537818,3.496724 23.749103,3.636593 h 0.188879 c 0.47717,0.0094 0.96428,0.01865 1.461331,0.01865 8.111875,0 15.905636,-1.035032 23.172525,-3.077119 l 0.467228,-0.130544 0.178938,-0.428932 c 3.618533,-8.793101 4.543048,-19.49696 4.543048,-29.931975 0,-10.435016 -0.835047,-20.672644 -4.304463,-29.363175 l -0.168997,-0.419609 -0.457288,-0.13987 C 51.74588,7.9107479 43.534594,6.6519266 35.353133,6.5120575 34.776554,6.5027375 34.249678,6.4934085 33.712865,6.4934085 Z"
       style="fill:#000000;stroke:none;stroke-width:1.78642213;stroke-miterlimit:4;stroke-dasharray:none" />
  </g>
</svg>
