<svg id="Capa_2" xmlns="http://www.w3.org/2000/svg" xmlns:xlink="http://www.w3.org/1999/xlink" viewBox="0 0 69.02 80">
<defs >
<style >
.cls-1{fill:#c89aed;}.cls-2{fill:#fff;}.cls-3{fill:#f8ffbf;}.cls-4{fill:#7b7be8;}.cls-5,.cls-6{stroke:#000;}.cls-5,.cls-6,.cls-7,.cls-8,.cls-9{fill:none;}.cls-5,.cls-7{stroke-linejoin:round;}.cls-10{fill:#a88347;}.cls-11{fill:#782ab5;}.cls-6{stroke-miterlimit:10;}.cls-12{fill:#1c46ff;}.cls-7{stroke:#deb778;stroke-dasharray:0 0 0 4.06;stroke-linecap:round;}.cls-13{fill:url(#USGS_19_Inundación_de_tierra);}.cls-14{fill:#deb778;}.cls-9{stroke:#1d1d1b;stroke-dasharray:0 0 2 2;stroke-width:.3px;}.cls-15{fill:#cf5f2b;}.cls-16{fill:#fcf0c5;}.cls-17{fill:#b83521;}
</style>
<pattern id="USGS_19_Inundación_de_tierra" x="0" y="0" width="72" height="72" patternTransform="translate(-20.48 -16207) rotate(-90)" patternUnits="userSpaceOnUse" viewBox="0 0 72 72">
<g >
<rect class="cls-8" width="72" height="72">
</rect>
<g >
<line class="cls-9" x1="71" y1="71" x2="144.44" y2="71">
</line>
<line class="cls-9" x1="71" y1="67" x2="144.44" y2="67">
</line>
<line class="cls-9" x1="71" y1="63" x2="144.44" y2="63">
</line>
<line class="cls-9" x1="71" y1="59" x2="144.44" y2="59">
</line>
<line class="cls-9" x1="71" y1="55" x2="144.44" y2="55">
</line>
<line class="cls-9" x1="71" y1="51" x2="144.44" y2="51">
</line>
<line class="cls-9" x1="71" y1="47" x2="144.44" y2="47">
</line>
<line class="cls-9" x1="71" y1="43" x2="144.44" y2="43">
</line>
<line class="cls-9" x1="71" y1="39" x2="144.44" y2="39">
</line>
<line class="cls-9" x1="71" y1="35" x2="144.44" y2="35">
</line>
<line class="cls-9" x1="71" y1="31" x2="144.44" y2="31">
</line>
<line class="cls-9" x1="71" y1="27" x2="144.44" y2="27">
</line>
<line class="cls-9" x1="71" y1="23" x2="144.44" y2="23">
</line>
<line class="cls-9" x1="71" y1="19" x2="144.44" y2="19">
</line>
<line class="cls-9" x1="71" y1="15" x2="144.44" y2="15">
</line>
<line class="cls-9" x1="71" y1="11" x2="144.44" y2="11">
</line>
<line class="cls-9" x1="71" y1="7" x2="144.44" y2="7">
</line>
<line class="cls-9" x1="71" y1="3" x2="144.44" y2="3">
</line>
</g>
<g >
<line class="cls-9" x1="-1" y1="71" x2="72.44" y2="71">
</line>
<line class="cls-9" x1="-1" y1="67" x2="72.44" y2="67">
</line>
<line class="cls-9" x1="-1" y1="63" x2="72.44" y2="63">
</line>
<line class="cls-9" x1="-1" y1="59" x2="72.44" y2="59">
</line>
<line class="cls-9" x1="-1" y1="55" x2="72.44" y2="55">
</line>
<line class="cls-9" x1="-1" y1="51" x2="72.44" y2="51">
</line>
<line class="cls-9" x1="-1" y1="47" x2="72.44" y2="47">
</line>
<line class="cls-9" x1="-1" y1="43" x2="72.44" y2="43">
</line>
<line class="cls-9" x1="-1" y1="39" x2="72.44" y2="39">
</line>
<line class="cls-9" x1="-1" y1="35" x2="72.44" y2="35">
</line>
<line class="cls-9" x1="-1" y1="31" x2="72.44" y2="31">
</line>
<line class="cls-9" x1="-1" y1="27" x2="72.44" y2="27">
</line>
<line class="cls-9" x1="-1" y1="23" x2="72.44" y2="23">
</line>
<line class="cls-9" x1="-1" y1="19" x2="72.44" y2="19">
</line>
<line class="cls-9" x1="-1" y1="15" x2="72.44" y2="15">
</line>
<line class="cls-9" x1="-1" y1="11" x2="72.44" y2="11">
</line>
<line class="cls-9" x1="-1" y1="7" x2="72.44" y2="7">
</line>
<line class="cls-9" x1="-1" y1="3" x2="72.44" y2="3">
</line>
<line class="cls-9" x1="1.04" y1="69" x2="74.48" y2="69">
</line>
<line class="cls-9" x1="1.04" y1="65" x2="74.48" y2="65">
</line>
<line class="cls-9" x1="1.04" y1="61" x2="74.48" y2="61">
</line>
<line class="cls-9" x1="1.04" y1="57" x2="74.48" y2="57">
</line>
<line class="cls-9" x1="1.04" y1="53" x2="74.48" y2="53">
</line>
<line class="cls-9" x1="1.04" y1="49" x2="74.48" y2="49">
</line>
<line class="cls-9" x1="1.04" y1="45" x2="74.48" y2="45">
</line>
<line class="cls-9" x1="1.04" y1="41" x2="74.48" y2="41">
</line>
<line class="cls-9" x1="1.04" y1="37" x2="74.48" y2="37">
</line>
<line class="cls-9" x1="1.04" y1="33" x2="74.48" y2="33">
</line>
<line class="cls-9" x1="1.04" y1="29" x2="74.48" y2="29">
</line>
<line class="cls-9" x1="1.04" y1="25" x2="74.48" y2="25">
</line>
<line class="cls-9" x1="1.04" y1="21" x2="74.48" y2="21">
</line>
<line class="cls-9" x1="1.04" y1="17" x2="74.48" y2="17">
</line>
<line class="cls-9" x1="1.04" y1="13" x2="74.48" y2="13">
</line>
<line class="cls-9" x1="1.04" y1="9" x2="74.48" y2="9">
</line>
<line class="cls-9" x1="1.04" y1="5" x2="74.48" y2="5">
</line>
<line class="cls-9" x1="1.04" y1="1" x2="74.48" y2="1">
</line>
</g>
<g >
<line class="cls-9" x1="-73" y1="71" x2=".44" y2="71">
</line>
<line class="cls-9" x1="-73" y1="67" x2=".44" y2="67">
</line>
<line class="cls-9" x1="-73" y1="63" x2=".44" y2="63">
</line>
<line class="cls-9" x1="-73" y1="59" x2=".44" y2="59">
</line>
<line class="cls-9" x1="-73" y1="55" x2=".44" y2="55">
</line>
<line class="cls-9" x1="-73" y1="51" x2=".44" y2="51">
</line>
<line class="cls-9" x1="-73" y1="47" x2=".44" y2="47">
</line>
<line class="cls-9" x1="-73" y1="43" x2=".44" y2="43">
</line>
<line class="cls-9" x1="-73" y1="39" x2=".44" y2="39">
</line>
<line class="cls-9" x1="-73" y1="35" x2=".44" y2="35">
</line>
<line class="cls-9" x1="-73" y1="31" x2=".44" y2="31">
</line>
<line class="cls-9" x1="-73" y1="27" x2=".44" y2="27">
</line>
<line class="cls-9" x1="-73" y1="23" x2=".44" y2="23">
</line>
<line class="cls-9" x1="-73" y1="19" x2=".44" y2="19">
</line>
<line class="cls-9" x1="-73" y1="15" x2=".44" y2="15">
</line>
<line class="cls-9" x1="-73" y1="11" x2=".44" y2="11">
</line>
<line class="cls-9" x1="-73" y1="7" x2=".44" y2="7">
</line>
<line class="cls-9" x1="-73" y1="3" x2=".44" y2="3">
</line>
<line class="cls-9" x1="-70.96" y1="69" x2="2.48" y2="69">
</line>
<line class="cls-9" x1="-70.96" y1="65" x2="2.48" y2="65">
</line>
<line class="cls-9" x1="-70.96" y1="61" x2="2.48" y2="61">
</line>
<line class="cls-9" x1="-70.96" y1="57" x2="2.48" y2="57">
</line>
<line class="cls-9" x1="-70.96" y1="53" x2="2.48" y2="53">
</line>
<line class="cls-9" x1="-70.96" y1="49" x2="2.48" y2="49">
</line>
<line class="cls-9" x1="-70.96" y1="45" x2="2.48" y2="45">
</line>
<line class="cls-9" x1="-70.96" y1="41" x2="2.48" y2="41">
</line>
<line class="cls-9" x1="-70.96" y1="37" x2="2.48" y2="37">
</line>
<line class="cls-9" x1="-70.96" y1="33" x2="2.48" y2="33">
</line>
<line class="cls-9" x1="-70.96" y1="29" x2="2.48" y2="29">
</line>
<line class="cls-9" x1="-70.96" y1="25" x2="2.48" y2="25">
</line>
<line class="cls-9" x1="-70.96" y1="21" x2="2.48" y2="21">
</line>
<line class="cls-9" x1="-70.96" y1="17" x2="2.48" y2="17">
</line>
<line class="cls-9" x1="-70.96" y1="13" x2="2.48" y2="13">
</line>
<line class="cls-9" x1="-70.96" y1="9" x2="2.48" y2="9">
</line>
<line class="cls-9" x1="-70.96" y1="5" x2="2.48" y2="5">
</line>
<line class="cls-9" x1="-70.96" y1="1" x2="2.48" y2="1">
</line>
</g>
</g>
</pattern>
</defs>
  <path
     style="opacity:1;vector-effect:none;fill:#cccccc;fill-opacity:1;fill-rule:nonzero;stroke:none;stroke-width:4.49546146;stroke-linecap:butt;stroke-linejoin:miter;stroke-miterlimit:4;stroke-dasharray:none;stroke-dashoffset:0;stroke-opacity:1"
     d="M -0.08007812,0.36132812 V 80.361328 H 68.919922 V 0.36132812 Z"
     id="rect4304"/>

<g id="Characters">
<g >
<g >
<path class="cls-2" d="M26.47,14.09s-5.49,3.42-5.13,12.88">
</path>
<path class="cls-1" d="M30.07,12.2s-7.38,1.62-8.56,10.72c-1.17,9.64,.45,20.62,.45,20.62,0,0-7.66,14.05-7.38,16.48-4.86,2.61-6.75,3.33-6.75,3.33l2.16,7.84s11.08,4.59,26.66,4.14,21.7-3.6,21.7-3.6l2.7-9.19-5.49-1.71-3.06-12.25-5.22-6.57s1.89-10.81,1.71-14.95-.81-9.19-4.32-11.98-14.59-2.88-14.59-2.88Z">
</path>
<path class="cls-2" d="M35.53,58.19V15.41l6.6-1.17s5.38,2.69,6.1,5.83,0,18.4-1.44,23.6-1.8,13.76-11.27,14.51Z">
</path>
<path class="cls-4" d="M35.4,58.32v.05s-.18,.01-.48-.01c.14-.01,.3-.03,.48-.04Z">
</path>
<path class="cls-4" d="M44.76,39.18c-.58,1.5-2.02,5.38-2.02,5.38l-5.84-3.59-2,.66-1.58-.66-5.84,3.59s-1.44-3.88-2.02-5.38-2.77-3.87-2.77-3.87l.63,6.41s1.33,9.54,4.51,13.18c2.21,2.53,5.01,3.22,6.51,3.41,.2,.02,.38,.03,.53,.05h.05c.14-.01,.3-.03,.48-.04,1.61-.17,4.73-.83,6.99-3.42,3.18-3.64,4.51-13.18,4.51-13.18l.64-6.41s-2.2,2.37-2.78,3.87Zm-9.95,8.71c-.83-.14-2.52-.45-4.96-1.08,1.13-1.63,4.15-1.95,5.02-2.01,1.08,.08,4.39,.42,5.5,2.01-2.43,.62-4.49,.94-5.56,1.08Z">
</path>
<path class="cls-4" d="M34.87,58.36c-.34,.02-.53,.01-.53,.01v-.06c.2,.02,.38,.03,.53,.05Z">
</path>
<path class="cls-3" d="M32.65,33.22s.85-1.28-1.94-1.65-5.39,1.47-5.39,1.47c0,0,2.98,1.61,7.33,.19Z">
</path>
<path class="cls-3" d="M37.52,33.22s-.85-1.28,1.94-1.65,5.39,1.47,5.39,1.47c0,0-2.98,1.61-7.33,.19Z">
</path>
<path class="cls-3" d="M24.23,44.84s-5.87,1.37-5.97,8.12,.78,11.55,.78,11.55c0,0,6.17,6.66,19.57,4.5s14.68-7.24,15.17-9.4c-.98-8.32-2.64-11.94-2.64-11.94,0,0-2.45-3.52-4.89-3.72-1.17,7.24-2.35,9.3-5.09,11.94s-6.07,2.54-8.71,1.96-5.28-2.45-6.66-5.97-1.57-7.05-1.57-7.05Z">
</path>
<path d="M17.55,59.59l-8.98,3.38,2.11,8.24,10.35,2.96,22.81-5.91s-20.28,5.07-26.3-8.66Z">
</path>
<path d="M39.94,57.37l-4.12,2.64s-10.67,1.16-15.32-3.8-.95-10.98,3.49-11.94c.53,6.97,4.65,13.41,9.19,13.84s6.76-.74,6.76-.74Z">
</path>
<path class="cls-17" d="M53.75,59.97l7.34,2.94-2.31,9.13s-24.65,5.66-36.61,1.15c8.29-3.25,21.67-4.94,21.67-4.94,0,0,9.79-4.33,9.9-8.28Z">
</path>
<path class="cls-1" d="M47.48,18.26c-4.06-8.12-9.26-8.13-12.41-8.14h-.06c-3.89,0-8.35,.63-12.1,8.14-4.31,8.62,2.19,31.92,2.26,32.15,.68,2.41,2.99,8.03,9.69,8.03h.67c6.7,0,9.01-5.61,9.69-8.03,.07-.23,6.57-23.53,2.26-32.15Zm-3.7,31.74c-.59,2.09-2.57,6.94-8.25,6.94h-.67c-5.67,0-7.66-4.85-8.24-6.94-1.8-6.36-5.73-24.34-2.36-31.07,3.37-6.74,7.16-7.31,10.76-7.31h.1c2.94,0,7.38,.01,11.02,7.31,3.36,6.73-.56,24.71-2.36,31.07Z">
</path>
<path class="cls-15" d="M54.67,63.25s-1.12,3.98-12.56,7.33c7.09,.87,14.42-.87,14.42-.87l1.99-5.22-3.85-1.24Z">
</path>
<path class="cls-4" d="M32.9,29.09l-.13,4.24s-.46-1.84-3.15-1.84c-2.3,.15-4.45,1.57-4.45,1.57l-1.81-5.09,2.79-.59,6.75,1.71Z">
</path>
<path class="cls-4" d="M37.32,29.09l.13,4.24s.46-1.84,3.15-1.84c2.3,.15,4.45,1.57,4.45,1.57l1.81-5.09-2.79-.59-6.75,1.71Z">
</path>
<path class="cls-2" d="M27.07,37.72l5.35-2.5s-2.57,5.42-5.35,2.5Z">
</path>
<path d="M21.63,30.51s-2.76-2.68-4.74-3.24c.95,7.82,3,13.03,4.97,14.76-.47-5.37-.24-11.53-.24-11.53Z">
</path>
<path d="M48.63,30.51s2.76-2.68,4.74-3.24c-.95,7.82-3,13.03-4.97,14.76,.47-5.37,.24-11.53,.24-11.53Z">
</path>
<path d="M21.2,26.06s-5.17,17.17-6.24,21.66-2.34,9.07-1.46,12.98c3.13-.8,3.61-.88,3.61-.88,0,0,.88-9.17,2.34-11.22s4.59-3.71,4.59-3.71l-2.83-18.83Z">
</path>
<path d="M49.14,26.52l-2.58,17.78s4.49,2.24,5.07,5.37c.78,4.2,2.44,10.34,2.44,10.34l2.93,.88s.2-8.68-1.76-14.25-4.93-14.86-6.1-20.13Z">
</path>
<path d="M23.29,28.05l2.91-1.46,.11-.05,.24,.05,6.85,1.5-.42,1.71-6.77-1.82c1.44-.02-3.1,.08-2.91,.08h0Z">
</path>
<path d="M32.24,32.01c-2.36-.62-5.01-.36-6.82,1.34,0,0,0-.68,0-.68,1.93,1.18,4.69,.82,6.78,.28,.48-.22,.88,.49,.44,.78-1.34,.9-2.66,1.87-4.14,2.55-.96-.12-1.96-.34-2.67-1.03,.81,.49,1.78,.58,2.67,.54l-.12,.03c1.1-.76,2.64-1.99,3.72-2.82,0,0,.44,.78,.44,.78-2.45,.78-5.52,1.15-7.72-.43-.19-.15-.23-.43-.07-.62,2.02-1.83,5.13-1.93,7.48-.73h0Z">
</path>
<path d="M24.77,36.09c.61,2.22,1.16,4.2,1.83,6.41-1.58-1.67-2.27-4.16-1.83-6.41h0Z">
</path>
<path d="M46.89,28.05c.15,0-4.32-.1-2.91-.08,0,0-6.77,1.82-6.77,1.82l-.42-1.71,6.85-1.5,.24-.05,.11,.05,2.91,1.46h0Z">
</path>
<path d="M37.95,32.01c2.33-1.19,5.39-1.1,7.42,.67,.19,.14,.22,.41,.07,.6-1.09,1-2.57,1.11-3.94,1.15-1.34-.03-2.58-.14-3.86-.64,0,0,.44-.78,.44-.78,1.09,.83,2.62,2.05,3.72,2.82,0,0-.12-.03-.12-.03,.89,.04,1.86-.05,2.67-.54-.7,.68-1.71,.91-2.67,1.03-1.48-.68-2.79-1.65-4.14-2.55-.44-.3-.03-1,.44-.78,2.1,.53,4.86,.89,6.78-.28,0,0,0,.68,0,.68-1.81-1.7-4.46-1.96-6.82-1.34h0Z">
</path>
<path d="M45.41,36.09c.44,2.25-.25,4.74-1.83,6.41,.66-2.21,1.21-4.19,1.83-6.41h0Z">
</path>
<path d="M36.72,35.11c.25,1.19,.45,2.38,.63,3.57l-.05-.14,1.07,1.62c.09,.13,.09,.3,0,.43-.38,.52-.61,1.38-1.16,1.13-.35-.17-.69-.34-1.03-.51,0,0,.51-.04,.51-.04l-1.27,.93c-.18,.13-.41,.12-.58,0l-1.28-.93,.51,.03c-.48,.16-1.17,.9-1.6,.35-.27-.52-.83-1.07-.58-1.38,0,0,1.07-1.62,1.07-1.62l-.05,.14c.18-1.19,.38-2.38,.63-3.57,.02,1.25,.13,2.54-.01,3.77,0,0-.91,1.72-.91,1.72v-.46s.62,.89,.62,.89l-.6-.15c.46-.18,.97-.79,1.48-.51,0,0,1.3,.91,1.3,.91,0,0-.58,0-.58,0,0,0,1.29-.9,1.29-.91,.52-.28,1.01,.33,1.48,.51,0,0-.6,.15-.6,.15l.63-.89s-.01,.45-.01,.45l-.91-1.72c-.14-1.23-.03-2.52-.01-3.77h0Z">
</path>
<path d="M40.2,46.5c-1.55-1.12-3.44-1.28-5.28-1.28-1.85,.03-3.7,.27-5.27,1.36,1.95-3.12,8.6-3.23,10.56-.08h0Z">
</path>
<path d="M33.14,47.58c1.29-.55,2.5-.49,3.87-.09-1.11,.98-2.72,.89-3.87,.09h0Z">
</path>
<path d="M26.07,20.98c-.34,1.14-.83,2.29-1.28,3.37-.15,.37-.35,.7-.76,.99-.17-.48-.08-.9,.07-1.27,.49-1.13,1.11-2.19,1.97-3.09h0Z">
</path>
<path d="M44.13,20.98c.85,.9,1.48,1.96,1.97,3.09,.15,.38,.24,.8,.07,1.27-.42-.29-.61-.62-.76-.99-.44-1.09-.94-2.23-1.28-3.37h0Z">
</path>
<polygon class="cls-5" points="28.79 61 28.34 59.53 30.21 59.9 28.79 61">
</polygon>
<polygon class="cls-5" points="32.09 61 31.45 59.85 33.06 59.85 32.09 61">
</polygon>
<polygon class="cls-5" points="34.98 61.09 34.02 60.12 35.99 59.76 34.98 61.09">
</polygon>
<polygon class="cls-5" points="38.05 60.95 36.86 59.85 39.11 59.67 38.05 60.95">
</polygon>
<polygon class="cls-5" points="41.12 60.63 39.79 59.67 42.18 58.98 41.12 60.63">
</polygon>
<polygon class="cls-5" points="49.05 56.87 47.86 56.18 49.65 55.22 49.05 56.87">
</polygon>
<polygon class="cls-5" points="52.81 55.77 52.03 57.37 53.64 58.47 52.81 55.77">
</polygon>
<polygon points="46.99 66.17 45.84 65.49 45.2 67.23 47.08 66.82 46.99 66.17">
</polygon>
<path d="M43.78,67.32l-1.1-.5-1.1,1.47s1.01,.05,2.2-.96Z">
</path>
<path d="M40.99,68.42l-2.06-2.52-.78,3.03s1.28,.05,2.84-.5Z">
</path>
<polygon points="36.26 69.06 35.3 68.1 33.79 69.2 36.26 69.06">
</polygon>
<path d="M32.28,68.97l-.96-3.35-.73,.64-1.65,2.61s3.16,.09,3.35,.09Z">
</path>
<path d="M28.29,68.47l-.87-1.28-1.51,.69s1.42,.46,2.38,.6Z">
</path>
<path d="M24.74,64.69s-.13,2.59,.35,3.2c-5.21-1.85-8.18-5.34-8.47-7.99,1.85-5.5,2.27-7.42,2.27-7.42,0,0,.48,3.16,6.07,5.75-2.59,.16-2.78,1.02-2.49,2.53s2.27,3.93,2.27,3.93Z">
</path>
<line class="cls-6" x1="16.62" y1="59.89" x2="7.37" y2="63.51">
</line>
<line class="cls-6" x1="53.34" y1="59.89" x2="62.59" y2="63.51">
</line>
<path class="cls-6" d="M47.25,18.38c3.88,7.76-1.18,28.09-2.28,31.97s-3.96,7.85-9.45,7.85h-.67c-5.48,0-8.35-3.96-9.45-7.85s-6.16-24.21-2.28-31.97,8.62-8.01,11.99-8,8.26,.24,12.14,8Z">
</path>
<path class="cls-6" d="M22.12,21.35s-2.59,12.16-4.55,17.88-5.26,14.35-3.84,21.73">
</path>
<path class="cls-6" d="M48.16,21.35s2.59,12.16,4.55,17.88,5.26,14.35,3.84,21.73">
</path>
<path d="M22.21,20.49s3.02-5.44,6.73-5.1c4.01,1.04,5.34,2.67,9.35,.74,4.01-1.98,7.87,1.04,9.6,4.55-.94-5.19-4.9-10.49-12.07-10.19s-11.18,1.73-13.6,9.99Z">
</path>
<path class="cls-6" d="M24.12,44.76c-3.36,1.74-5.44,4.19-5.34,6.83,.18,4.87,7.69,8.54,16.77,8.2,9.08-.34,16.3-4.56,16.12-9.43-.09-2.48-2.08-4.64-5.2-6.13">
</path>
<path class="cls-6" d="M18.78,51.59l-2.12,8.37c.2,5.5,8.69,9.65,18.95,9.27s18.42-5.15,18.21-10.65l-2.15-8.21">
</path>
<path class="cls-5" d="M38.72,67.33c-.01,.9-.82,1.63-1.82,1.62s-1.74-.68-1.78-1.54c-.07,.85-.85,1.52-1.81,1.51s-1.8-.74-1.79-1.64c0-.39,.17-.75,.42-1.03l1.42-1.34,1.81-1.71,1.78,1.74,1.38,1.36c.26,.29,.4,.65,.4,1.04Z">
</path>
<path class="cls-5" d="M28.89,61.82c.05-.98,.78-1.75,1.62-1.71s1.44,.81,1.44,1.74c.1-.93,.8-1.63,1.61-1.59s1.49,.87,1.44,1.86c-.02,.43-.18,.81-.41,1.12l-1.27,1.41-1.62,1.81-1.43-1.96-1.1-1.53c-.2-.32-.31-.72-.29-1.15Z">
</path>
<path class="cls-5" d="M30.55,66.63c-.16,.97-.96,1.65-1.8,1.52s-1.34-.96-1.24-1.89c-.2,.91-.97,1.53-1.77,1.41s-1.39-1.03-1.23-2c.07-.42,.27-.79,.53-1.06l1.42-1.27,1.81-1.63,1.2,2.11,.93,1.64c.17,.34,.23,.75,.16,1.17Z">
</path>
<path class="cls-5" d="M22.43,59.84c.16-.97,.96-1.65,1.8-1.52s1.34,.96,1.24,1.89c.2-.91,.97-1.3,1.77-1.17s1.39,.8,1.23,1.77c-.07,.42-.27,.79-.53,1.06l-1.42,1.27-1.81,1.63-1.2-2.11-.93-1.64c-.17-.34-.23-.75-.16-1.17Z">
</path>
<path class="cls-5" d="M41.14,61.67c-.08-.98-.82-1.73-1.66-1.67s-1.42,.84-1.39,1.77c-.12-.93-.84-1.61-1.64-1.55s-1.47,.91-1.39,1.89c.03,.43,.2,.81,.43,1.1l1.3,1.38,1.66,1.77,1.38-2,1.06-1.56c.2-.33,.29-.73,.26-1.16Z">
</path>
<path class="cls-5" d="M39.6,66.52c.18,.97,1.01,1.63,1.84,1.48s1.32-.99,1.19-1.92c.22,.91,1.01,1.51,1.8,1.36s1.36-1.07,1.18-2.03c-.08-.42-.29-.78-.55-1.05l-1.45-1.23-1.85-1.58-1.15,2.13-.89,1.66c-.16,.35-.21,.75-.13,1.18Z">
</path>
<path class="cls-5" d="M45.74,64.67c.07,.88,.69,1.42,1.38,1.21s1.15-1.02,1.12-1.87c.11,.82,.7,1.31,1.36,1.1s1.2-1.1,1.12-1.97c-.03-.38-.17-.7-.37-.92l-1.08-1.01-1.38-1.3-1.11,2.06-.86,1.61c-.16,.33-.23,.71-.2,1.1Z">
</path>
<path class="cls-5" d="M47.54,59.53c-.18-.97-1.01-1.63-1.84-1.48s-1.32,.99-1.19,1.92c-.22-.91-1.01-1.51-1.8-1.36s-1.36,1.07-1.18,2.03c.08,.42,.29,.78,.55,1.05l1.45,1.23,1.85,1.58,1.15-2.13,.89-1.66c.16-.35,.21-.75,.13-1.18Z">
</path>
<path class="cls-5" d="M51.58,57.16c0-1.45-.93-2.19-1.52-2.08s-.92,1.98-.8,2.76c-.18-.77-.76-1.3-1.32-1.19s-.95,.86-.79,1.69c.07,.36,.22,.67,.42,.9l1.06,1.08,1.36,1.38,.77-1.77,.59-1.38c.1-.29,.23-1.01,.23-1.38Z">
</path>
<line class="cls-5" x1="51.44" y1="58.23" x2="52.73" y2="54.57">
</line>
<path class="cls-5" d="M50.47,60.59s-.51,2.33,1.57,2.42">
</path>
<line class="cls-5" x1="51.85" y1="57.31" x2="53.86" y2="58.96">
</line>
</g>
<path class="cls-12" d="M30.24,13.21s7.45-.38,11.27,.57c-3.82-2.96-7.36-3.82-11.27-.57Z">
</path>
<path class="cls-12" d="M20.54,35.63s-5.81,12.16-4.86,22.83">
</path>
<path class="cls-12" d="M51.07,37.39s5.27,10.54,4.73,21.75">
</path>
<polygon class="cls-17" points="10.25 63.72 17.36 61.01 10.72 65.59 10.25 63.72">
</polygon>
</g>
</g>

  <path
     style="opacity:1;vector-effect:none;fill:#8d5fd3;fill-opacity:1;fill-rule:nonzero;stroke:none;stroke-width:2.35769176;stroke-linecap:butt;stroke-linejoin:miter;stroke-miterlimit:4;stroke-dasharray:none;stroke-dashoffset:0;stroke-opacity:0.44186048"
     d="M 0,1.2e-7 V 80 H 69 V 1.2e-7 Z M 35.240234,4.658203 c 6.067554,0.1120422 16.269844,1.4698438 23.589844,3.8398438 3.46,9.2400002 5.269531,19.9506252 5.269531,31.1406252 0,11.47 -1.89,22.390234 -5.5,31.740234 -7.2,2.16 -14.940375,3.376539 -23.019531,3.259766 -8.580486,-0.124019 -18.036001,-1.572896 -25.240234,-3.86914 -3.4500003,-9.22 -5.2597659,-19.930859 -5.2597659,-31.130859 0,-11.2 1.8904687,-22.380469 5.4804689,-31.730469 C 17.682894,5.1336941 29.17268,4.5461608 35.240234,4.658203 Z"
     id="rect4304" />


</svg>
