<svg id="Capa_2" xmlns="http://www.w3.org/2000/svg" xmlns:xlink="http://www.w3.org/1999/xlink" viewBox="0 0 69.02 80">
<defs >
<style >
.cls-1{fill:#c89aed;}.cls-2{fill:#fff;}.cls-3{fill:#f8ffbf;}.cls-4{fill:#7b7be8;}.cls-5{fill:#a88347;}.cls-6{fill:#782ab5;}.cls-7{stroke:#000;stroke-miterlimit:10;}.cls-7,.cls-8,.cls-9,.cls-10{fill:none;}.cls-11{fill:#1c46ff;}.cls-8{stroke:#deb778;stroke-dasharray:0 0 0 4.06;stroke-linecap:round;stroke-linejoin:round;}.cls-12{fill:url(#USGS_19_Inundación_de_tierra);}.cls-13{fill:#deb778;}.cls-10{stroke:#1d1d1b;stroke-dasharray:0 0 2 2;stroke-width:.3px;}.cls-14{fill:#fcf0c5;}.cls-15{fill:#b83521;}
</style>
<pattern id="USGS_19_Inundación_de_tierra" x="0" y="0" width="72" height="72" patternTransform="translate(-92.48 -16207) rotate(-90)" patternUnits="userSpaceOnUse" viewBox="0 0 72 72">
<g >
<rect class="cls-9" width="72" height="72">
</rect>
<g >
<line class="cls-10" x1="71" y1="71" x2="144.44" y2="71">
</line>
<line class="cls-10" x1="71" y1="67" x2="144.44" y2="67">
</line>
<line class="cls-10" x1="71" y1="63" x2="144.44" y2="63">
</line>
<line class="cls-10" x1="71" y1="59" x2="144.44" y2="59">
</line>
<line class="cls-10" x1="71" y1="55" x2="144.44" y2="55">
</line>
<line class="cls-10" x1="71" y1="51" x2="144.44" y2="51">
</line>
<line class="cls-10" x1="71" y1="47" x2="144.44" y2="47">
</line>
<line class="cls-10" x1="71" y1="43" x2="144.44" y2="43">
</line>
<line class="cls-10" x1="71" y1="39" x2="144.44" y2="39">
</line>
<line class="cls-10" x1="71" y1="35" x2="144.44" y2="35">
</line>
<line class="cls-10" x1="71" y1="31" x2="144.44" y2="31">
</line>
<line class="cls-10" x1="71" y1="27" x2="144.44" y2="27">
</line>
<line class="cls-10" x1="71" y1="23" x2="144.44" y2="23">
</line>
<line class="cls-10" x1="71" y1="19" x2="144.44" y2="19">
</line>
<line class="cls-10" x1="71" y1="15" x2="144.44" y2="15">
</line>
<line class="cls-10" x1="71" y1="11" x2="144.44" y2="11">
</line>
<line class="cls-10" x1="71" y1="7" x2="144.44" y2="7">
</line>
<line class="cls-10" x1="71" y1="3" x2="144.44" y2="3">
</line>
</g>
<g >
<line class="cls-10" x1="-1" y1="71" x2="72.44" y2="71">
</line>
<line class="cls-10" x1="-1" y1="67" x2="72.44" y2="67">
</line>
<line class="cls-10" x1="-1" y1="63" x2="72.44" y2="63">
</line>
<line class="cls-10" x1="-1" y1="59" x2="72.44" y2="59">
</line>
<line class="cls-10" x1="-1" y1="55" x2="72.44" y2="55">
</line>
<line class="cls-10" x1="-1" y1="51" x2="72.44" y2="51">
</line>
<line class="cls-10" x1="-1" y1="47" x2="72.44" y2="47">
</line>
<line class="cls-10" x1="-1" y1="43" x2="72.44" y2="43">
</line>
<line class="cls-10" x1="-1" y1="39" x2="72.44" y2="39">
</line>
<line class="cls-10" x1="-1" y1="35" x2="72.44" y2="35">
</line>
<line class="cls-10" x1="-1" y1="31" x2="72.44" y2="31">
</line>
<line class="cls-10" x1="-1" y1="27" x2="72.44" y2="27">
</line>
<line class="cls-10" x1="-1" y1="23" x2="72.44" y2="23">
</line>
<line class="cls-10" x1="-1" y1="19" x2="72.44" y2="19">
</line>
<line class="cls-10" x1="-1" y1="15" x2="72.44" y2="15">
</line>
<line class="cls-10" x1="-1" y1="11" x2="72.44" y2="11">
</line>
<line class="cls-10" x1="-1" y1="7" x2="72.44" y2="7">
</line>
<line class="cls-10" x1="-1" y1="3" x2="72.44" y2="3">
</line>
<line class="cls-10" x1="1.04" y1="69" x2="74.48" y2="69">
</line>
<line class="cls-10" x1="1.04" y1="65" x2="74.48" y2="65">
</line>
<line class="cls-10" x1="1.04" y1="61" x2="74.48" y2="61">
</line>
<line class="cls-10" x1="1.04" y1="57" x2="74.48" y2="57">
</line>
<line class="cls-10" x1="1.04" y1="53" x2="74.48" y2="53">
</line>
<line class="cls-10" x1="1.04" y1="49" x2="74.48" y2="49">
</line>
<line class="cls-10" x1="1.04" y1="45" x2="74.48" y2="45">
</line>
<line class="cls-10" x1="1.04" y1="41" x2="74.48" y2="41">
</line>
<line class="cls-10" x1="1.04" y1="37" x2="74.48" y2="37">
</line>
<line class="cls-10" x1="1.04" y1="33" x2="74.48" y2="33">
</line>
<line class="cls-10" x1="1.04" y1="29" x2="74.48" y2="29">
</line>
<line class="cls-10" x1="1.04" y1="25" x2="74.48" y2="25">
</line>
<line class="cls-10" x1="1.04" y1="21" x2="74.48" y2="21">
</line>
<line class="cls-10" x1="1.04" y1="17" x2="74.48" y2="17">
</line>
<line class="cls-10" x1="1.04" y1="13" x2="74.48" y2="13">
</line>
<line class="cls-10" x1="1.04" y1="9" x2="74.48" y2="9">
</line>
<line class="cls-10" x1="1.04" y1="5" x2="74.48" y2="5">
</line>
<line class="cls-10" x1="1.04" y1="1" x2="74.48" y2="1">
</line>
</g>
<g >
<line class="cls-10" x1="-73" y1="71" x2=".44" y2="71">
</line>
<line class="cls-10" x1="-73" y1="67" x2=".44" y2="67">
</line>
<line class="cls-10" x1="-73" y1="63" x2=".44" y2="63">
</line>
<line class="cls-10" x1="-73" y1="59" x2=".44" y2="59">
</line>
<line class="cls-10" x1="-73" y1="55" x2=".44" y2="55">
</line>
<line class="cls-10" x1="-73" y1="51" x2=".44" y2="51">
</line>
<line class="cls-10" x1="-73" y1="47" x2=".44" y2="47">
</line>
<line class="cls-10" x1="-73" y1="43" x2=".44" y2="43">
</line>
<line class="cls-10" x1="-73" y1="39" x2=".44" y2="39">
</line>
<line class="cls-10" x1="-73" y1="35" x2=".44" y2="35">
</line>
<line class="cls-10" x1="-73" y1="31" x2=".44" y2="31">
</line>
<line class="cls-10" x1="-73" y1="27" x2=".44" y2="27">
</line>
<line class="cls-10" x1="-73" y1="23" x2=".44" y2="23">
</line>
<line class="cls-10" x1="-73" y1="19" x2=".44" y2="19">
</line>
<line class="cls-10" x1="-73" y1="15" x2=".44" y2="15">
</line>
<line class="cls-10" x1="-73" y1="11" x2=".44" y2="11">
</line>
<line class="cls-10" x1="-73" y1="7" x2=".44" y2="7">
</line>
<line class="cls-10" x1="-73" y1="3" x2=".44" y2="3">
</line>
<line class="cls-10" x1="-70.96" y1="69" x2="2.48" y2="69">
</line>
<line class="cls-10" x1="-70.96" y1="65" x2="2.48" y2="65">
</line>
<line class="cls-10" x1="-70.96" y1="61" x2="2.48" y2="61">
</line>
<line class="cls-10" x1="-70.96" y1="57" x2="2.48" y2="57">
</line>
<line class="cls-10" x1="-70.96" y1="53" x2="2.48" y2="53">
</line>
<line class="cls-10" x1="-70.96" y1="49" x2="2.48" y2="49">
</line>
<line class="cls-10" x1="-70.96" y1="45" x2="2.48" y2="45">
</line>
<line class="cls-10" x1="-70.96" y1="41" x2="2.48" y2="41">
</line>
<line class="cls-10" x1="-70.96" y1="37" x2="2.48" y2="37">
</line>
<line class="cls-10" x1="-70.96" y1="33" x2="2.48" y2="33">
</line>
<line class="cls-10" x1="-70.96" y1="29" x2="2.48" y2="29">
</line>
<line class="cls-10" x1="-70.96" y1="25" x2="2.48" y2="25">
</line>
<line class="cls-10" x1="-70.96" y1="21" x2="2.48" y2="21">
</line>
<line class="cls-10" x1="-70.96" y1="17" x2="2.48" y2="17">
</line>
<line class="cls-10" x1="-70.96" y1="13" x2="2.48" y2="13">
</line>
<line class="cls-10" x1="-70.96" y1="9" x2="2.48" y2="9">
</line>
<line class="cls-10" x1="-70.96" y1="5" x2="2.48" y2="5">
</line>
<line class="cls-10" x1="-70.96" y1="1" x2="2.48" y2="1">
</line>
</g>
</g>
</pattern>
</defs>
  <path
     style="opacity:1;vector-effect:none;fill:#cccccc;fill-opacity:1;fill-rule:nonzero;stroke:none;stroke-width:4.49546146;stroke-linecap:butt;stroke-linejoin:miter;stroke-miterlimit:4;stroke-dasharray:none;stroke-dashoffset:0;stroke-opacity:1"
     d="M -0.08007812,0.36132812 V 80.361328 H 68.919922 V 0.36132812 Z"
     id="rect4304"/>

<g id="Characters">
<g >
<g >
<path class="cls-1" d="M25.98,14.14s-7.91,1.51-8.15,15.36c-3.96,1.28-3.14,3.38-3.14,5.12s1.4,4.89,3.72,5.7c.58,6.05,1.05,6.28,1.05,6.28l2.21,3.84-.58,9.43-12.57,5.24,2.09,6.05s19.2,8.73,47.72,.58c1.98-6.28,1.98-6.87,1.98-6.87l-12.34-5-.58-9.89,2.21-3.14,1.05-6.4s3.14-2.33,3.61-4.54,.35-3.84,.35-3.84c0,0-.35-2.09-3.49-1.98,.23-7.8-.93-20.13-25.14-15.94Z">
</path>
<path class="cls-2" d="M34.7,55.72V17.68l9.69-2.89s4.43,2.47,5.67,6.6,1.13,11.96,1.13,11.96l-1.96,14.33s-4.02,8.97-14.54,8.04Z">
</path>
<path class="cls-4" d="M31.34,28.04l-1.34,5.86-7.86-2.67s-3.41-2.67-1.63-4.3,8.75-1.04,10.83,1.11Z">
</path>
<path class="cls-4" d="M37.71,28.04l1.34,5.86,7.86-2.67s3.41-2.67,1.63-4.3-8.75-1.04-10.83,1.11Z">
</path>
<path d="M20.46,60.28s4.2,5.37,13.66,5.26,12.86-3.83,13.85-5.65c7.18,2.97,12.08,5.42,12.08,5.42l-1.52,7.12s-31.42,7.01-48.7-1.17c-1.75-4.44-.82-6.31-.82-6.31l11.45-4.67Z">
</path>
<path class="cls-3" d="M29.97,33.65l-1.21-1.8s-3.68-.93-6.14,.09c1.69,3.3,6.07,2.39,7.34,1.71Z">
</path>
<path class="cls-3" d="M39.07,33.65l1.21-1.8s3.68-.93,6.14,.09c-1.69,3.3-6.07,2.39-7.34,1.71Z">
</path>
<path d="M47.07,50.55l-14.1,15.42s-9.81-.44-12.09-5.78c.44-7.71,.79-9.73,.79-9.73,0,0,3.59,4.48,8.23,4.83s13.66-1.66,17.17-4.73Z">
</path>
<path class="cls-15" d="M45.26,51.9s-.83-2.94-1.92-3.77c-.15,2.56-.83,2.98-.83,2.98,0,0-1.39,1.96-5.39,1.09-.6-2.98-.72-3.47-.72-3.47h-1.21s-1.51,0-1.51,0h-1.21s-.11,.49-.72,3.47c-4,.87-5.39-1.09-5.39-1.09,0,0-.68-.41-.83-2.98-1.09,.83-1.92,3.77-1.92,3.77,0,0,3.83,4.03,8.63,4.03s7.2,.08,8.74-.68,4.26-3.35,4.26-3.35Z">
</path>
<path d="M17.51,29.78s-3.09,.55-3.25,2.85,1.88,6.6,4.15,7.7c-.42-5.95-.9-10.55-.9-10.55Z">
</path>
<path class="cls-11" d="M49.23,62.12s-7.42,6.19-15.57,10.21c15.05-1.03,22.89-2.37,22.89-2.37l1.34-4.12-8.66-3.71Z">
</path>
<path class="cls-1" d="M44.05,17.08c.79,0,1.85,.69,2.92,1.89,.68,1.13,1.27,2.45,1.79,4.06,2.05,6.26-.04,19.2-.74,23.02-.1,.58-.85,2.36-5.61,6.46-1.47,1.26-3.37,1.96-5.35,1.96h-5.21c-1.98,0-3.88-.7-5.35-1.96-4.74-4.09-5.5-5.89-5.61-6.47-.88-4.92-2.7-17.01-.72-23.01,.61-1.88,1.28-3.33,2.09-4.55,.92-.9,1.78-1.39,2.44-1.39,.16,0,.32,.03,.47,.09,.61,.24,1.16,.51,1.74,.8,1.86,.91,3.79,1.86,7.46,1.86s5.6-.95,7.46-1.86c.58-.29,1.13-.56,1.73-.8,.15-.06,.31-.09,.47-.09m0-1c-.28,0-.57,.05-.85,.16-2.61,1.05-4.26,2.59-8.82,2.59s-6.21-1.54-8.83-2.59c-.28-.11-.56-.16-.84-.16-1.17,0-2.34,.87-3.22,1.75-1.01,1.49-1.71,3.16-2.27,4.88-2.05,6.22-.2,18.51,.69,23.5,.19,1.04,1.37,3.11,5.94,7.05,1.65,1.42,3.78,2.2,6,2.2h5.21c2.22,0,4.35-.78,6-2.2,4.57-3.94,5.76-6.01,5.94-7.05,.9-4.97,2.76-17.21,.7-23.5-.49-1.51-1.1-2.99-1.93-4.34-.89-1.02-2.3-2.29-3.72-2.29h0Z">
</path>
<path class="cls-1" d="M16.4,30.91c-1.11,1.46-.47,2.83-.99,4.5,0,0-.09,.04-.09,.04-.34-.84-.66-1.72-.6-2.64,.04-.93,.72-1.81,1.66-2,0,0,.02,.1,.02,.1h0Z">
</path>
<path class="cls-11" d="M22.93,54.13c.38,2.43,.44,4.88,.39,7.33-2.84,1.37-5.76,2.57-8.79,3.47-.95,.3-1.93,.54-2.91,.73,0,0-.04-.09-.04-.09,3.52-1.47,7.55-3.43,10.83-4.66,0,0,.44-6.79,.44-6.79h.1Z">
</path>
<path class="cls-2" d="M21.65,34.66s2.09,2.62,7.94,1.22c-4.1,5.06-6.46,5.06-7.94-1.22Z">
</path>
<polyline class="cls-7" points="7.09 66.12 20.77 59.79 21.5 49.59">
</polyline>
<polyline class="cls-7" points="62.21 66.31 48.13 59.79 47.39 49.59">
</polyline>
<path class="cls-7" d="M31.85,55.96h5.21c2.32,0,4.57-.81,6.33-2.33,3.01-2.59,5.76-5.43,6.11-7.34,.79-4.41,2.83-17.19,.68-23.74-2.13-6.52-5.94-10.79-15.72-10.86-9.79,.07-13.58,4.34-15.72,10.86-2.16,6.55-.11,19.34,.67,23.74,.35,1.91,3.1,4.74,6.11,7.34,1.76,1.51,4.01,2.33,6.33,2.33Z">
</path>
<path class="cls-7" d="M17.69,29.9s-2.11,.08-3.16,1.46c-.62,1.01-.08,3.47,.46,5.31,.41,1.4,1.35,2.58,2.61,3.3l.81,.47">
</path>
<path class="cls-7" d="M51.21,29.9s2.11,.08,3.16,1.46c.62,1.01,.08,3.47-.46,5.31-.41,1.4-1.35,2.58-2.61,3.3l-.81,.47">
</path>
<path d="M48.73,19.59s-2.91-4.4-5.53-3.35-4.27,2.59-8.82,2.59c-4.56,0-6.21-1.53-8.82-2.59s-5.53,3.35-5.53,3.35c0,0,2.5-7.89,14.44-7.89s14.27,7.89,14.27,7.89Z">
</path>
<path d="M31.01,29.61s.86-1.65,.73-2.63c-4.29-2.14-6.67-2.57-8.2-2.69-2.88,1.47-3.73,3.61-3.73,3.61,0,0,2.14-1.41,4.29-1.53,2.27,0,5.33,2.94,6.92,3.25Z">
</path>
<path d="M29.84,33.41c-.44-.52-.83-1.06-1.24-1.59l.18,.11c-2.04,.03-4.09,.17-6.07,.5l.37-.7c1.09,2.23,4.18,2.52,6.46,2.11-1.8,.94-4.13,1.04-5.91-.05-.82-.48-1.37-1.36-1.73-2.23,0,0,.65-.11,.65-.11,2.14-.35,4.3-.35,6.42,.04,.29,.64,.61,1.27,.88,1.92h0Z">
</path>
<path d="M39.19,33.41c.27-.66,.59-1.28,.88-1.92,2.12-.38,4.28-.39,6.42-.04,0,0,.65,.11,.65,.11-.36,.88-.91,1.75-1.73,2.23-1.78,1.09-4.11,.99-5.91,.05,2.28,.41,5.37,.13,6.46-2.11,0,0,.37,.7,.37,.7-1.98-.34-4.03-.47-6.07-.5l.18-.11c-.41,.53-.8,1.08-1.24,1.59h0Z">
</path>
<path d="M37.8,29.61s-.86-1.65-.73-2.63c4.29-2.14,6.67-2.57,8.2-2.69,2.88,1.47,3.73,3.61,3.73,3.61,0,0-2.14-1.41-4.29-1.53-2.27,0-5.33,2.94-6.92,3.25Z">
</path>
<path d="M37.53,36.47c.75,.75,1.58,1.55,1.01,2.62-.22,.44-.3,1.28-.8,1.09-.51-.23-1.02-.49-1.52-.73,0,0,.63-.19,.63-.19-.32,.52-.71,.69-1.12,.85-1.24,.35-2.72,.34-3.55-.85,0,0,.63,.19,.63,.19-.5,.25-.99,.5-1.5,.73-.18,.08-.39,0-.47-.19,0,0-.35-.89-.35-.89-.13-.31-.29-.77-.14-1.07,.27-.65,.7-1.11,1.16-1.55-.28,.55-.6,1.13-.68,1.67-.07,.26,.17,.49,.26,.69,0,0,.44,.79,.44,.79l-.53-.16c.45-.29,.91-.55,1.37-.83,.18-.11,.41-.07,.54,.09,.64,.79,2.41,.78,3.12,.11,.14-.21,.4-.33,.63-.19,.46,.27,.92,.54,1.37,.83l-.53,.16c.14-.26,.53-.94,.67-1.19,.14-.64-.36-1.33-.65-1.96h0Z">
</path>
<path d="M40.8,45.04c-1.45-.39-2.81-.94-4.15-1.53l.26,.06c-1.8,.11-3.61,.11-5.41,0l.26-.06c-1.34,.59-2.7,1.15-4.15,1.53,1.21-.97,2.46-1.91,3.82-2.59,1.83-.11,3.65-.11,5.48,0,1.4,.6,2.65,1.63,3.89,2.59h0Z">
</path>
<path d="M38.73,45.9c-.18,.27-.35,.88-.65,.95-2.6,.4-5.21,.4-7.81-.01-.28-.22-.39-.63-.58-.94,.28,.19,.55,.4,.81,.61l-.16-.07c1.29-.22,2.58-.28,3.87-.29,1.29,0,2.58,.08,3.87,.29l-.16,.07c.26-.21,.52-.42,.8-.61h0Z">
</path>
<path class="cls-7" d="M48.31,59.79s-2.71,5.9-13.71,5.9h-.13c-11,0-13.71-5.9-13.71-5.9">
</path>
<path class="cls-7" d="M45.26,51.9s-.83-2.94-1.92-3.77c-.15,2.56-.83,2.98-.83,2.98,0,0-1.39,1.96-5.39,1.09-.6-2.98-.72-3.47-.72-3.47h-1.21s-1.51,0-1.51,0h-1.21s-.11,.49-.72,3.47c-4,.87-5.39-1.09-5.39-1.09,0,0-.68-.41-.83-2.98-1.09,.83-1.92,3.77-1.92,3.77,0,0,3.83,4.03,8.63,4.03s7.2,.08,8.74-.68,4.26-3.35,4.26-3.35Z">
</path>
</g>
<path class="cls-15" d="M26.64,14.35s11.37-.8,16.08,.89c-3.46-3.29-12.17-4.17-16.08-.89Z">
</path>
</g>
</g>

  <path
     style="opacity:1;vector-effect:none;fill:#8d5fd3;fill-opacity:1;fill-rule:nonzero;stroke:none;stroke-width:2.35769176;stroke-linecap:butt;stroke-linejoin:miter;stroke-miterlimit:4;stroke-dasharray:none;stroke-dashoffset:0;stroke-opacity:0.44186048"
     d="M 0,1.2e-7 V 80 H 69 V 1.2e-7 Z M 35.240234,4.658203 c 6.067554,0.1120422 16.269844,1.4698438 23.589844,3.8398438 3.46,9.2400002 5.269531,19.9506252 5.269531,31.1406252 0,11.47 -1.89,22.390234 -5.5,31.740234 -7.2,2.16 -14.940375,3.376539 -23.019531,3.259766 -8.580486,-0.124019 -18.036001,-1.572896 -25.240234,-3.86914 -3.4500003,-9.22 -5.2597659,-19.930859 -5.2597659,-31.130859 0,-11.2 1.8904687,-22.380469 5.4804689,-31.730469 C 17.682894,5.1336941 29.17268,4.5461608 35.240234,4.658203 Z"
     id="rect4304" />


</svg>
