<svg id="Capa_2" xmlns="http://www.w3.org/2000/svg" xmlns:xlink="http://www.w3.org/1999/xlink" viewBox="0 0 69.02 80">
<defs >
<style >
.cls-1{fill:#c89aed;}.cls-2{fill:#fff;}.cls-3{fill:#f8ffbf;}.cls-4{fill:#7b7be8;}.cls-5{fill:#a88347;}.cls-6{fill:#782ab5;}.cls-7,.cls-8,.cls-9{stroke:#000;stroke-miterlimit:10;}.cls-7,.cls-8,.cls-9,.cls-10,.cls-11,.cls-12{fill:none;}.cls-8,.cls-10{stroke-linecap:round;}.cls-9{stroke-width:.75px;}.cls-10{stroke:#deb778;stroke-dasharray:0 0 0 4.06;stroke-linejoin:round;}.cls-13{fill:url(#USGS_19_Inundación_de_tierra);}.cls-14{fill:#deb778;}.cls-12{stroke:#1d1d1b;stroke-dasharray:0 0 2 2;stroke-width:.3px;}.cls-15{fill:#fcf0c5;}.cls-16{fill:#b83521;}
</style>
<pattern id="USGS_19_Inundación_de_tierra" x="0" y="0" width="72" height="72" patternTransform="translate(-164.48 -16207) rotate(-90)" patternUnits="userSpaceOnUse" viewBox="0 0 72 72">
<g >
<rect class="cls-11" width="72" height="72">
</rect>
<g >
<line class="cls-12" x1="71" y1="71" x2="144.44" y2="71">
</line>
<line class="cls-12" x1="71" y1="67" x2="144.44" y2="67">
</line>
<line class="cls-12" x1="71" y1="63" x2="144.44" y2="63">
</line>
<line class="cls-12" x1="71" y1="59" x2="144.44" y2="59">
</line>
<line class="cls-12" x1="71" y1="55" x2="144.44" y2="55">
</line>
<line class="cls-12" x1="71" y1="51" x2="144.44" y2="51">
</line>
<line class="cls-12" x1="71" y1="47" x2="144.44" y2="47">
</line>
<line class="cls-12" x1="71" y1="43" x2="144.44" y2="43">
</line>
<line class="cls-12" x1="71" y1="39" x2="144.44" y2="39">
</line>
<line class="cls-12" x1="71" y1="35" x2="144.44" y2="35">
</line>
<line class="cls-12" x1="71" y1="31" x2="144.44" y2="31">
</line>
<line class="cls-12" x1="71" y1="27" x2="144.44" y2="27">
</line>
<line class="cls-12" x1="71" y1="23" x2="144.44" y2="23">
</line>
<line class="cls-12" x1="71" y1="19" x2="144.44" y2="19">
</line>
<line class="cls-12" x1="71" y1="15" x2="144.44" y2="15">
</line>
<line class="cls-12" x1="71" y1="11" x2="144.44" y2="11">
</line>
<line class="cls-12" x1="71" y1="7" x2="144.44" y2="7">
</line>
<line class="cls-12" x1="71" y1="3" x2="144.44" y2="3">
</line>
</g>
<g >
<line class="cls-12" x1="-1" y1="71" x2="72.44" y2="71">
</line>
<line class="cls-12" x1="-1" y1="67" x2="72.44" y2="67">
</line>
<line class="cls-12" x1="-1" y1="63" x2="72.44" y2="63">
</line>
<line class="cls-12" x1="-1" y1="59" x2="72.44" y2="59">
</line>
<line class="cls-12" x1="-1" y1="55" x2="72.44" y2="55">
</line>
<line class="cls-12" x1="-1" y1="51" x2="72.44" y2="51">
</line>
<line class="cls-12" x1="-1" y1="47" x2="72.44" y2="47">
</line>
<line class="cls-12" x1="-1" y1="43" x2="72.44" y2="43">
</line>
<line class="cls-12" x1="-1" y1="39" x2="72.44" y2="39">
</line>
<line class="cls-12" x1="-1" y1="35" x2="72.44" y2="35">
</line>
<line class="cls-12" x1="-1" y1="31" x2="72.44" y2="31">
</line>
<line class="cls-12" x1="-1" y1="27" x2="72.44" y2="27">
</line>
<line class="cls-12" x1="-1" y1="23" x2="72.44" y2="23">
</line>
<line class="cls-12" x1="-1" y1="19" x2="72.44" y2="19">
</line>
<line class="cls-12" x1="-1" y1="15" x2="72.44" y2="15">
</line>
<line class="cls-12" x1="-1" y1="11" x2="72.44" y2="11">
</line>
<line class="cls-12" x1="-1" y1="7" x2="72.44" y2="7">
</line>
<line class="cls-12" x1="-1" y1="3" x2="72.44" y2="3">
</line>
<line class="cls-12" x1="1.04" y1="69" x2="74.48" y2="69">
</line>
<line class="cls-12" x1="1.04" y1="65" x2="74.48" y2="65">
</line>
<line class="cls-12" x1="1.04" y1="61" x2="74.48" y2="61">
</line>
<line class="cls-12" x1="1.04" y1="57" x2="74.48" y2="57">
</line>
<line class="cls-12" x1="1.04" y1="53" x2="74.48" y2="53">
</line>
<line class="cls-12" x1="1.04" y1="49" x2="74.48" y2="49">
</line>
<line class="cls-12" x1="1.04" y1="45" x2="74.48" y2="45">
</line>
<line class="cls-12" x1="1.04" y1="41" x2="74.48" y2="41">
</line>
<line class="cls-12" x1="1.04" y1="37" x2="74.48" y2="37">
</line>
<line class="cls-12" x1="1.04" y1="33" x2="74.48" y2="33">
</line>
<line class="cls-12" x1="1.04" y1="29" x2="74.48" y2="29">
</line>
<line class="cls-12" x1="1.04" y1="25" x2="74.48" y2="25">
</line>
<line class="cls-12" x1="1.04" y1="21" x2="74.48" y2="21">
</line>
<line class="cls-12" x1="1.04" y1="17" x2="74.48" y2="17">
</line>
<line class="cls-12" x1="1.04" y1="13" x2="74.48" y2="13">
</line>
<line class="cls-12" x1="1.04" y1="9" x2="74.48" y2="9">
</line>
<line class="cls-12" x1="1.04" y1="5" x2="74.48" y2="5">
</line>
<line class="cls-12" x1="1.04" y1="1" x2="74.48" y2="1">
</line>
</g>
<g >
<line class="cls-12" x1="-73" y1="71" x2=".44" y2="71">
</line>
<line class="cls-12" x1="-73" y1="67" x2=".44" y2="67">
</line>
<line class="cls-12" x1="-73" y1="63" x2=".44" y2="63">
</line>
<line class="cls-12" x1="-73" y1="59" x2=".44" y2="59">
</line>
<line class="cls-12" x1="-73" y1="55" x2=".44" y2="55">
</line>
<line class="cls-12" x1="-73" y1="51" x2=".44" y2="51">
</line>
<line class="cls-12" x1="-73" y1="47" x2=".44" y2="47">
</line>
<line class="cls-12" x1="-73" y1="43" x2=".44" y2="43">
</line>
<line class="cls-12" x1="-73" y1="39" x2=".44" y2="39">
</line>
<line class="cls-12" x1="-73" y1="35" x2=".44" y2="35">
</line>
<line class="cls-12" x1="-73" y1="31" x2=".44" y2="31">
</line>
<line class="cls-12" x1="-73" y1="27" x2=".44" y2="27">
</line>
<line class="cls-12" x1="-73" y1="23" x2=".44" y2="23">
</line>
<line class="cls-12" x1="-73" y1="19" x2=".44" y2="19">
</line>
<line class="cls-12" x1="-73" y1="15" x2=".44" y2="15">
</line>
<line class="cls-12" x1="-73" y1="11" x2=".44" y2="11">
</line>
<line class="cls-12" x1="-73" y1="7" x2=".44" y2="7">
</line>
<line class="cls-12" x1="-73" y1="3" x2=".44" y2="3">
</line>
<line class="cls-12" x1="-70.96" y1="69" x2="2.48" y2="69">
</line>
<line class="cls-12" x1="-70.96" y1="65" x2="2.48" y2="65">
</line>
<line class="cls-12" x1="-70.96" y1="61" x2="2.48" y2="61">
</line>
<line class="cls-12" x1="-70.96" y1="57" x2="2.48" y2="57">
</line>
<line class="cls-12" x1="-70.96" y1="53" x2="2.48" y2="53">
</line>
<line class="cls-12" x1="-70.96" y1="49" x2="2.48" y2="49">
</line>
<line class="cls-12" x1="-70.96" y1="45" x2="2.48" y2="45">
</line>
<line class="cls-12" x1="-70.96" y1="41" x2="2.48" y2="41">
</line>
<line class="cls-12" x1="-70.96" y1="37" x2="2.48" y2="37">
</line>
<line class="cls-12" x1="-70.96" y1="33" x2="2.48" y2="33">
</line>
<line class="cls-12" x1="-70.96" y1="29" x2="2.48" y2="29">
</line>
<line class="cls-12" x1="-70.96" y1="25" x2="2.48" y2="25">
</line>
<line class="cls-12" x1="-70.96" y1="21" x2="2.48" y2="21">
</line>
<line class="cls-12" x1="-70.96" y1="17" x2="2.48" y2="17">
</line>
<line class="cls-12" x1="-70.96" y1="13" x2="2.48" y2="13">
</line>
<line class="cls-12" x1="-70.96" y1="9" x2="2.48" y2="9">
</line>
<line class="cls-12" x1="-70.96" y1="5" x2="2.48" y2="5">
</line>
<line class="cls-12" x1="-70.96" y1="1" x2="2.48" y2="1">
</line>
</g>
</g>
</pattern>
</defs>

  <path
     id="path7641-4"
     style="fill:#782ab5;fill-opacity:1;stroke:#4d4d4d;stroke-width:1.62226;stop-color:#000000"
     d="M 34.900259,1.6936052 C 14.323312,9.5265586 1.6299002,23.954051 1.5689773,39.580572 V 79.197446 H 67.963672 V 39.580572 C 67.958188,23.990066 55.374427,9.5708664 34.900259,1.6936052 Z"/>
  <path
     id="path7641-7"
     style="fill:#808080;stroke:#4d4d4d;stroke-width:1.48325;stop-color:#000000"
     d="M 34.629293,5.0425238 C 15.815619,12.204258 4.1542243,25.395327 4.1542243,39.682894 V 76.559207 H 64.859448 V 39.682894 c 0,-14.254531 -11.510452,-27.438125 -30.230155,-34.6403702 z m -0.01233,3.4358455 C 51.537073,14.988239 61.941622,26.904418 61.941622,39.788613 v 33.82806 H 7.07205 v -33.82806 c 0,-12.914055 10.539857,-24.836991 27.544909,-31.3102437 z"/>
  <path
     id="path7641-7-8"
     style="fill:#808080;stroke:#4d4d4d;stroke-width:1.35027;stop-color:#000000"
     d="M 34.618314,8.2461803 C 17.491429,14.76581 6.8755673,26.7742 6.8755673,39.780777 v 33.57007 H 62.138105 v -33.57007 c 0,-12.976504 -10.478452,-24.978088 -27.519791,-31.5345967 z m -0.01123,3.1277957 c 15.403093,5.926211 24.874795,16.774013 24.874795,28.503041 V 70.672134 H 9.5317874 V 39.877017 c 0,-11.75621 9.5948786,-22.610165 25.0752986,-28.503041 z"/>
  <path
     id="path7641-7-8-0"
     style="fill:#808080;stroke:#4d4d4d;stroke-width:1.21411;stop-color:#000000"
     d="M 34.607073,11.526302 C 19.207238,17.388502 9.6618637,28.185984 9.6618637,39.880997 V 70.06591 H 59.351809 V 39.880997 c 0,-11.667973 -9.421821,-22.459335 -24.744736,-28.354695 z m -0.0101,2.812393 c 13.849868,5.328621 22.366458,15.082547 22.366458,25.628837 V 67.657315 H 12.050234 V 39.967532 c 0,-10.570731 8.627346,-20.33019 22.546743,-25.628837 z"/>


<g id="Characters">
<g >
<path class="cls-16" d="M60.68,63.61l-2.09,7.97s-27.38,8.19-48.78-.83c-1.26-6.09-1.68-7.45-1.68-7.45l10.23-4.25,5.19-2.15,.84-10.49s-4.41-4.51-4.41-7.87c-2.41-.31-3.98-4.51-4.19-7.44-.21-2.94,.1-6.51,4.19-1.26,.74-9.55,.53-17.1,11.33-18.25,10.7-1.16,16.89,3.25,17.94,9.54,.84,6.4,.42,8.5,.42,8.5,0,0,2.52-3.15,3.57-2.41,1.04,.73,.84,11.11-3.78,11.43-.31,2.73-3.46,7.45-4.93,8.91,.73,7.35,1.05,9.55,1.05,9.55l4.55,1.96,10.55,4.54Z">
</path>
<path class="cls-1" d="M49.46,38.65c-.31,2.73-3.46,7.45-4.93,8.91,.73,7.35,1.05,9.55,1.05,9.55l4.55,1.96c-.53,1.63-1.27,3.48-2.18,4.81-2.07,3-10.04,3.82-13.56,3.51-3.51-.31-10.13-.93-13.03-3.41-1.76-1.51-2.61-3.55-3-4.93l5.19-2.15,.84-10.49s-4.41-4.51-4.41-7.87c-2.41-.31-3.98-4.51-4.19-7.44-.21-2.94,.1-6.51,4.19-1.26,.12-1.49,.21-2.94,.32-4.32,0,0,0,0,0,0,.62-7.43,1.9-12.95,11.01-13.92,10.7-1.16,16.89,3.25,17.94,9.54,.16,1.24,.28,2.32,.36,3.25,.33,3.88,.06,5.25,.06,5.25,0,0,2.52-3.15,3.57-2.41,1.04,.73,.84,11.11-3.78,11.43Z">
</path>
<path class="cls-2" d="M43.33,51.32l-13.89,13.46s14.4,2.81,18.66-5.03c-3.32-1.53-4.43-1.36-4.43-1.36l-.34-7.07Z">
</path>
<path class="cls-2" d="M40.86,22.45c1.18-.83,2.43-2.01,3.62-3.67,5.22,3.51,5.22,12.97,5.22,12.97,0,0,.27,7.47-.63,9.28s-6.03,9.82-8.38,10.81c-.02,0-.05,.02-.07,.03-2.59,1.07-5.43-.95-5.44-3.75l-.05-14.56c-.01-4.41,2.12-8.55,5.72-11.09Z">
</path>
<path d="M49.61,24.38c-1.08-1.43-3.13-4.03-5.15-5.87-1.5,3.59-4.92,5.51-11.09,5.84,1.92-1,2.75-3,2.75-3-4.26,2-10.1,1.84-10.1,1.84l1.26-2.17s-1.84,.58-3.76,1.25c-1.33,.47-2.59,2.21-3.22,3.24,.62-7.43,1.9-12.95,11.01-13.92,10.7-1.16,16.89,3.25,17.94,9.54,.16,1.24,.28,2.32,.36,3.25Z">
</path>
<path class="cls-5" d="M39.75,23.12s.07-3.62-5.73-1.98-7.17-3.96-11.81-1.23c2.18-3.55,5.6-2.66,7.92-1.98s4.78-1.91,8.05-2.25,4.85,2.66,6.14,1.37c-.2,3.69-4.57,6.07-4.57,6.07Z">
</path>
<path class="cls-4" d="M31.92,29.43s-.36,1.14-1.71,2.63-3.63,1.92-3.63,1.92c0,0-2.35-2.06-2.99-3.34s-1-2.42-1-2.42c0,0,2.42-.92,3.77-1s5.55,2.21,5.55,2.21Z">
</path>
<path class="cls-3" d="M30.53,31.42s-4.71-1.09-6.55-.34c1.63,2.72,2.86,3.13,2.86,3.13,0,0,2.8-.27,3.69-2.79Z">
</path>
<path class="cls-4" d="M36.71,29.43s.36,1.14,1.71,2.63,3.63,1.92,3.63,1.92c0,0,2.35-2.06,2.99-3.34s1-2.42,1-2.42c0,0-2.42-.92-3.77-1s-5.55,2.21-5.55,2.21Z">
</path>
<path class="cls-3" d="M38.1,31.42s4.71-1.09,6.55-.34c-1.63,2.72-2.86,3.13-2.86,3.13,0,0-2.8-.27-3.69-2.79Z">
</path>
<path class="cls-4" d="M40.71,61.03c.46,1.05,.7,1.48,.7,1.48,0,0-2.52,2.95-6.89,4.24-4.37-1.28-6.89-4.24-6.89-4.24,0,0,.24-.43,.7-1.48-1.12-.63-2.09-1.83-2.09-1.83,0,0,.19-.66,1-2.42-.73-1.16-.77-2.38-.64-3.26,.42,.77,1.18,1.93,2.2,2.84-.43,1.4-.51,1.79-.51,1.79,0,0,.73,1.67,3.3,2.76-.23,1.09-.23,1.24-.23,1.24,0,0,1.41,.94,3.15,1.42,1.74-.49,3.15-1.42,3.15-1.42,0,0,0-.15-.23-1.24,2.57-1.09,3.3-2.76,3.3-2.76,0,0-.08-.39-.51-1.79,1.02-.91,1.78-2.07,2.2-2.84,.13,.87,.1,2.09-.64,3.26,.81,1.76,1,2.42,1,2.42,0,0-.97,1.21-2.09,1.83Z">
</path>
<path class="cls-4" d="M48.09,63.4s-1.18-1.86-3.36-2.73c.91,2.68,.27,4.91,.27,4.91l3.09-2.18Z">
</path>
<path class="cls-4" d="M34.9,55.42c-.15-.08-.27-.14-.38-.18-.11,.04-.23,.11-.38,.18-.65,.32-1.67,.91-2.94,1.84,.82,1.77,3.3,4.08,3.32,4.1,.02-.02,2.5-2.33,3.32-4.1-1.27-.94-2.3-1.52-2.94-1.84Z">
</path>
<path d="M41.05,51.67l-14.81,14.72-7.98,6.93-7.89-2.12-2.24-7.9,15.42-6.4,.96-10.8s3.27,5.19,5.19,5.87,7.79,.87,11.35-.29Z">
</path>
<path class="cls-16" d="M25.48,51.03c.32,2.44,.4,4.91,.4,7.37-3.71,1.71-7.53,3.19-11.46,4.33-1.25,.39-2.52,.7-3.81,.96,0,0-.04-.09-.04-.09,4.72-1.83,9.94-4.12,14.44-5.71,0,0,.37-6.86,.37-6.86h.1Z">
</path>
<path d="M20.2,30.17s-2.55-3.43-3.83-2.62-.41,10.97,3.7,11.31c-.2-4.11,.13-8.68,.13-8.68Z">
</path>
<path class="cls-16" d="M16.48,29.37c.86,2.65,1.1,5,1.87,7.56,0,0-.07,.07-.07,.07-.93-1-1.53-2.27-1.82-3.6-.26-1.34-.28-2.71-.08-4.05l.1,.02h0Z">
</path>
<path class="cls-1" d="M45.05,20.77c1.99,1.93,2.98,5.57,2.98,7.36,0,.19,.04,.39,.12,.57,.11,3.76,.09,7.38,.07,9.22-.03,1.22-.4,2.37-1.07,3.31l-.09,.12c-1.23,1.73-3.51,4.94-5.81,7.77-1.07,1.31-2.68,2.06-4.42,2.06h-3.7c-1.72,0-3.33-.76-4.42-2.08-4.03-4.89-5.63-6.98-6.27-7.86-.68-.96-1.05-2.11-1.07-3.32-.04-2.84-.05-7.02,.12-10.9,.23-.67,.68-1.66,1.23-2.32l1.26,.11,1.33,.12c.37,.03,.74,.06,1.1,.07l-1.8,.6,5.35,.26,2.69,.13c.05,0,.24,.01,.54,.01,2.17,0,9.04-.4,11.82-5.23m-.37-1.55c-2.04,5.4-9.44,5.78-11.46,5.78-.27,0-.45,0-.49,0l-2.69-.13,2.56-.85s.97-.36,2.33-1.84c-1.9,.91-4.53,1.84-7.87,1.84-.53,0-1.07-.02-1.64-.07l-1.33-.12,1.08-.79c.6-.43,1.02-.84,1.32-1.19-1.1,.35-2.67,.89-3.62,1.43-1.46,.84-2.31,3.44-2.32,3.47,0,.02-.02,.03-.03,.04-.18,3.96-.17,8.26-.13,11.16,.02,1.41,.45,2.75,1.25,3.88,.89,1.24,3.01,3.91,6.31,7.92,1.28,1.55,3.17,2.44,5.19,2.44h3.7c2.04,0,3.92-.88,5.19-2.43,2.29-2.82,4.52-5.95,5.85-7.82l.08-.11c.8-1.13,1.23-2.47,1.26-3.88,.03-2.5,.03-6.04-.08-9.51-.06-.08-.11-.18-.11-.3,0-2.36-1.46-7.14-4.35-8.91h0Z">
</path>
<path class="cls-2" d="M23.7,34.49l2.62,1.48,3.23-1.57s-2.44,3.67-4.28,4.28c-2.18-2.53-1.57-4.19-1.57-4.19Z">
</path>
<path d="M20.96,63.4s1.18-1.86,3.36-2.73c-.91,2.68-.27,4.91-.27,4.91l-3.09-2.18Z">
</path>
<path class="cls-7" d="M36.84,52.68c2.16,0,4.21-.95,5.57-2.62,2.35-2.88,4.6-6.05,5.95-7.95,.86-1.22,1.33-2.66,1.35-4.16,.05-4.3,.06-13.63-.83-18.34-2.58-8.43-13.49-8.23-13.49-8.23h-1.19s-10.91-.2-13.49,8.23c-.9,4.71-.88,14.04-.83,18.34,.02,1.5,.49,2.94,1.35,4.16,1.16,1.62,4.21,5.38,6.33,7.94,1.37,1.67,3.42,2.63,5.58,2.63h3.71Z">
</path>
<polyline class="cls-7" points="24.31 46.5 23.52 57.13 6.7 63.88">
</polyline>
<polyline class="cls-7" points="44.71 47.22 45.5 57.13 63.37 64.3">
</polyline>
<path d="M37.01,36.94c.85,.74,1.21,2.02-.02,2.66-1.6,1.18-4.02,1.18-5.62,0-.53-.29-.94-.8-.78-1.42,.11-.52,.4-.93,.76-1.24-.18,.44-.3,.88-.27,1.28,.01,.3,.14,.44,.37,.55,.86,.41,1.84,.75,2.73,.74,.95-.01,2.05-.35,2.92-.86,.39-.45,.11-1.16-.09-1.72h0Z">
</path>
<path d="M31.62,30.01s-4.36-2.12-6.42-2.21c-1.45,.06-3.19,.8-3.19,.8,0,0,2.32-1.82,4.5-1.9,2.25-.08,5.52,1.63,5.52,1.63,0,0,.98,1.41-.4,1.68Z">
</path>
<path d="M36.56,30.01s4.36-2.12,6.42-2.21c1.45,.06,3.19,.8,3.19,.8,0,0-2.32-1.82-4.5-1.9-2.25-.08-5.52,1.63-5.52,1.63,0,0-.98,1.41,.4,1.68Z">
</path>
<path d="M30.75,31.43c-2.22-.36-4.44-.47-6.63-.05,0,0,.4-.51,.4-.51,.14,1.14,1.24,2.18,2.14,2.9,0,0-.22-.07-.22-.07,1.41-.01,2.73-.83,3.87-1.65-.45,.62-.99,1.19-1.63,1.63-.72,.49-1.46,.85-2.39,.88-1.29-.88-2.57-1.92-2.75-3.63,0,0-.03-.43-.03-.43,2.44-.5,5.02-.18,7.24,.94h0Z">
</path>
<path d="M37.92,31.43c2.21-1.11,4.8-1.43,7.24-.94,0,0-.03,.43-.03,.43-.18,1.71-1.47,2.75-2.75,3.63-.93-.03-1.66-.39-2.39-.88-.63-.45-1.18-1.01-1.63-1.63,1.14,.83,2.46,1.64,3.87,1.65,0,0-.22,.07-.22,.07,.89-.72,1.99-1.76,2.14-2.9,0,0,.4,.51,.4,.51-2.19-.42-4.41-.31-6.63,.05h0Z">
</path>
<path d="M26.41,40.91c.27-.81,1.39-1.81,2.14-.97-.35,.86-1.28,.92-2.14,.97h0Z">
</path>
<path class="cls-9" d="M27.61,40.32s3.46,4.36,11.69,2.05">
</path>
<path d="M39.04,41.41c1.11-.11,1.28,1.63,.58,2.18-.19-.44-.35-.7-.5-1.01-.13-.32-.39-.51-.08-1.17h0Z">
</path>
<path d="M28.85,43.27c.49,1.51,1.96,1.81,3.35,2.01,1.29,.19,3.01,.36,4.13,.09,.57-.3,1.11-.74,1.48-1.34-.16,.69-.62,1.32-1.21,1.76-2.09,.9-7.74,.51-7.75-2.52h0Z">
</path>
<path d="M22.22,35.81c1.16,1.18,1.85,2.84,1.83,4.5-.65-1.48-1.26-2.98-1.83-4.5h0Z">
</path>
<path d="M46.29,35.81c-.57,1.53-1.19,3.02-1.83,4.5-.02-1.66,.67-3.33,1.83-4.5h0Z">
</path>
<path class="cls-7" d="M19.93,30.02s-1.93-3.32-3.56-2.48-.3,11.24,3.44,11.18">
</path>
<path class="cls-8" d="M18.67,38.52c.02,.24,.01,.51-.02,.78-.15,1.19-.76,2.09-1.38,2.01s-.99-1.1-.85-2.28c.11-.89,.48-1.62,.92-1.89">
</path>
<path class="cls-7" d="M49.61,30.02s1.93-3.32,3.56-2.48,.3,11.24-3.44,11.18">
</path>
<path class="cls-8" d="M53.53,33.24c.65,.32,1.14,.35,1.43,.02,.41-.47,0-1.48-.89-2.27-.67-.59-1.44-.88-1.95-.8">
</path>
<path class="cls-8" d="M20.07,26.58s.9-2.8,2.55-3.74,4.99-1.85,4.99-1.85c0,0-.35,1.15-2.15,2.45,5.54,.5,9.39-1.75,11.28-2.8-2.2,3.25-3.99,3.84-3.99,3.84,0,0,9.79,.45,11.63-5.99,3.44,1.6,5.14,7.04,5.14,9.64">
</path>
<path class="cls-8" d="M18.69,59.35s.08,7.98,15.96,7.98,15.12-8.13,15.12-8.13">
</path>
</g>
</g>
  <g
     id="g20645">
    <path
       style="fill:#808080;stroke:#4d4d4d;stroke-width:0.937908;stop-color:#000000;fill-opacity:1"
       d="m 9.541565,65.883425 a 5.4759801,5.4759801 0 0 1 5.47598,5.475981 5.4759801,5.4759801 0 0 1 -5.47598,5.47598 5.4759801,5.4759801 0 0 1 -5.4759806,-5.47598 5.4759801,5.4759801 0 0 1 5.4759806,-5.475981 z"/>
    <path
       style="fill:#808080;stroke:#4d4d4d;stroke-width:0.937908;stop-color:#000000;fill-opacity:1"
       d="m 59.472108,65.883425 a 5.4759801,5.4759801 0 0 1 5.47598,5.475981 5.4759801,5.4759801 0 0 1 -5.47598,5.47598 5.4759801,5.4759801 0 0 1 -5.475981,-5.47598 5.4759801,5.4759801 0 0 1 5.475981,-5.475981 z"/>
    <path
       id="path7641"
       style="fill:#808080;stroke:#4d4d4d;stroke-width:1.64416;stop-color:#000000"
       d="M 34.642578,1.1660156 C 13.787845,9.1047124 0.86132813,23.726855 0.86132812,39.564453 V 79.340489 H 68.152344 V 39.564453 c 0,-15.800978 -12.759199,-30.4148342 -33.509766,-38.3984374 z m -0.01367,3.8085938 C 53.384648,12.190722 64.917969,25.399665 64.917969,39.681641 v 26.507812 c -1.368656,-1.44106 -3.300993,-2.341797 -5.445313,-2.341797 -4.14856,0 -7.511718,3.363159 -7.511718,7.511719 0,2.347008 1.075662,4.442843 2.761718,5.820313 H 14.269531 c 1.756069,-1.422629 2.778281,-3.560307 2.783203,-5.820313 4.8e-5,-4.148627 -3.363091,-7.511766 -7.5117184,-7.511719 -2.0622939,0.0062 -4.0313164,0.860092 -5.4453125,2.361328 V 39.681641 c 0,-14.315076 11.6833059,-27.531508 30.5332029,-34.7070316 z"/>
    <circle
       style="fill:#4d4d4d;fill-opacity:1;stroke:#4d4d4d;stop-color:#000000"
       id="path16431"
       cx="9.6010828"
       cy="71.229652"
       r="5.06003" />
    <circle
       style="fill:#4d4d4d;fill-opacity:1;stroke:#4d4d4d;stop-color:#000000"
       id="path16431-3"
       cx="59.42292"
       cy="71.229652"
       r="5.06003" />
  </g>
</svg>
