<svg id="Capa_2" xmlns="http://www.w3.org/2000/svg" xmlns:xlink="http://www.w3.org/1999/xlink" viewBox="0 0 69.02 80">
<defs >
<style >
.cls-1{fill:#c89aed;}.cls-2{fill:#fff;}.cls-3{fill:#f8ffbf;}.cls-4{fill:#7b7be8;}.cls-5{fill:#a88347;}.cls-6{fill:#782ab5;}.cls-7{stroke:#000;stroke-miterlimit:10;}.cls-7,.cls-8,.cls-9,.cls-10{fill:none;}.cls-11{fill:#1c46ff;}.cls-8{stroke:#deb778;stroke-dasharray:0 0 0 4.06;stroke-linecap:round;stroke-linejoin:round;}.cls-12{fill:url(#USGS_19_Inundación_de_tierra);}.cls-13{fill:#deb778;}.cls-10{stroke:#1d1d1b;stroke-dasharray:0 0 2 2;stroke-width:.3px;}.cls-14{fill:#fcf0c5;}.cls-15{fill:#b83521;}
</style>
<pattern id="USGS_19_Inundación_de_tierra" x="0" y="0" width="72" height="72" patternTransform="translate(-236.48 -16207) rotate(-90)" patternUnits="userSpaceOnUse" viewBox="0 0 72 72">
<g >
<rect class="cls-9" width="72" height="72">
</rect>
<g >
<line class="cls-10" x1="71" y1="71" x2="144.44" y2="71">
</line>
<line class="cls-10" x1="71" y1="67" x2="144.44" y2="67">
</line>
<line class="cls-10" x1="71" y1="63" x2="144.44" y2="63">
</line>
<line class="cls-10" x1="71" y1="59" x2="144.44" y2="59">
</line>
<line class="cls-10" x1="71" y1="55" x2="144.44" y2="55">
</line>
<line class="cls-10" x1="71" y1="51" x2="144.44" y2="51">
</line>
<line class="cls-10" x1="71" y1="47" x2="144.44" y2="47">
</line>
<line class="cls-10" x1="71" y1="43" x2="144.44" y2="43">
</line>
<line class="cls-10" x1="71" y1="39" x2="144.44" y2="39">
</line>
<line class="cls-10" x1="71" y1="35" x2="144.44" y2="35">
</line>
<line class="cls-10" x1="71" y1="31" x2="144.44" y2="31">
</line>
<line class="cls-10" x1="71" y1="27" x2="144.44" y2="27">
</line>
<line class="cls-10" x1="71" y1="23" x2="144.44" y2="23">
</line>
<line class="cls-10" x1="71" y1="19" x2="144.44" y2="19">
</line>
<line class="cls-10" x1="71" y1="15" x2="144.44" y2="15">
</line>
<line class="cls-10" x1="71" y1="11" x2="144.44" y2="11">
</line>
<line class="cls-10" x1="71" y1="7" x2="144.44" y2="7">
</line>
<line class="cls-10" x1="71" y1="3" x2="144.44" y2="3">
</line>
</g>
<g >
<line class="cls-10" x1="-1" y1="71" x2="72.44" y2="71">
</line>
<line class="cls-10" x1="-1" y1="67" x2="72.44" y2="67">
</line>
<line class="cls-10" x1="-1" y1="63" x2="72.44" y2="63">
</line>
<line class="cls-10" x1="-1" y1="59" x2="72.44" y2="59">
</line>
<line class="cls-10" x1="-1" y1="55" x2="72.44" y2="55">
</line>
<line class="cls-10" x1="-1" y1="51" x2="72.44" y2="51">
</line>
<line class="cls-10" x1="-1" y1="47" x2="72.44" y2="47">
</line>
<line class="cls-10" x1="-1" y1="43" x2="72.44" y2="43">
</line>
<line class="cls-10" x1="-1" y1="39" x2="72.44" y2="39">
</line>
<line class="cls-10" x1="-1" y1="35" x2="72.44" y2="35">
</line>
<line class="cls-10" x1="-1" y1="31" x2="72.44" y2="31">
</line>
<line class="cls-10" x1="-1" y1="27" x2="72.44" y2="27">
</line>
<line class="cls-10" x1="-1" y1="23" x2="72.44" y2="23">
</line>
<line class="cls-10" x1="-1" y1="19" x2="72.44" y2="19">
</line>
<line class="cls-10" x1="-1" y1="15" x2="72.44" y2="15">
</line>
<line class="cls-10" x1="-1" y1="11" x2="72.44" y2="11">
</line>
<line class="cls-10" x1="-1" y1="7" x2="72.44" y2="7">
</line>
<line class="cls-10" x1="-1" y1="3" x2="72.44" y2="3">
</line>
<line class="cls-10" x1="1.04" y1="69" x2="74.48" y2="69">
</line>
<line class="cls-10" x1="1.04" y1="65" x2="74.48" y2="65">
</line>
<line class="cls-10" x1="1.04" y1="61" x2="74.48" y2="61">
</line>
<line class="cls-10" x1="1.04" y1="57" x2="74.48" y2="57">
</line>
<line class="cls-10" x1="1.04" y1="53" x2="74.48" y2="53">
</line>
<line class="cls-10" x1="1.04" y1="49" x2="74.48" y2="49">
</line>
<line class="cls-10" x1="1.04" y1="45" x2="74.48" y2="45">
</line>
<line class="cls-10" x1="1.04" y1="41" x2="74.48" y2="41">
</line>
<line class="cls-10" x1="1.04" y1="37" x2="74.48" y2="37">
</line>
<line class="cls-10" x1="1.04" y1="33" x2="74.48" y2="33">
</line>
<line class="cls-10" x1="1.04" y1="29" x2="74.48" y2="29">
</line>
<line class="cls-10" x1="1.04" y1="25" x2="74.48" y2="25">
</line>
<line class="cls-10" x1="1.04" y1="21" x2="74.48" y2="21">
</line>
<line class="cls-10" x1="1.04" y1="17" x2="74.48" y2="17">
</line>
<line class="cls-10" x1="1.04" y1="13" x2="74.48" y2="13">
</line>
<line class="cls-10" x1="1.04" y1="9" x2="74.48" y2="9">
</line>
<line class="cls-10" x1="1.04" y1="5" x2="74.48" y2="5">
</line>
<line class="cls-10" x1="1.04" y1="1" x2="74.48" y2="1">
</line>
</g>
<g >
<line class="cls-10" x1="-73" y1="71" x2=".44" y2="71">
</line>
<line class="cls-10" x1="-73" y1="67" x2=".44" y2="67">
</line>
<line class="cls-10" x1="-73" y1="63" x2=".44" y2="63">
</line>
<line class="cls-10" x1="-73" y1="59" x2=".44" y2="59">
</line>
<line class="cls-10" x1="-73" y1="55" x2=".44" y2="55">
</line>
<line class="cls-10" x1="-73" y1="51" x2=".44" y2="51">
</line>
<line class="cls-10" x1="-73" y1="47" x2=".44" y2="47">
</line>
<line class="cls-10" x1="-73" y1="43" x2=".44" y2="43">
</line>
<line class="cls-10" x1="-73" y1="39" x2=".44" y2="39">
</line>
<line class="cls-10" x1="-73" y1="35" x2=".44" y2="35">
</line>
<line class="cls-10" x1="-73" y1="31" x2=".44" y2="31">
</line>
<line class="cls-10" x1="-73" y1="27" x2=".44" y2="27">
</line>
<line class="cls-10" x1="-73" y1="23" x2=".44" y2="23">
</line>
<line class="cls-10" x1="-73" y1="19" x2=".44" y2="19">
</line>
<line class="cls-10" x1="-73" y1="15" x2=".44" y2="15">
</line>
<line class="cls-10" x1="-73" y1="11" x2=".44" y2="11">
</line>
<line class="cls-10" x1="-73" y1="7" x2=".44" y2="7">
</line>
<line class="cls-10" x1="-73" y1="3" x2=".44" y2="3">
</line>
<line class="cls-10" x1="-70.96" y1="69" x2="2.48" y2="69">
</line>
<line class="cls-10" x1="-70.96" y1="65" x2="2.48" y2="65">
</line>
<line class="cls-10" x1="-70.96" y1="61" x2="2.48" y2="61">
</line>
<line class="cls-10" x1="-70.96" y1="57" x2="2.48" y2="57">
</line>
<line class="cls-10" x1="-70.96" y1="53" x2="2.48" y2="53">
</line>
<line class="cls-10" x1="-70.96" y1="49" x2="2.48" y2="49">
</line>
<line class="cls-10" x1="-70.96" y1="45" x2="2.48" y2="45">
</line>
<line class="cls-10" x1="-70.96" y1="41" x2="2.48" y2="41">
</line>
<line class="cls-10" x1="-70.96" y1="37" x2="2.48" y2="37">
</line>
<line class="cls-10" x1="-70.96" y1="33" x2="2.48" y2="33">
</line>
<line class="cls-10" x1="-70.96" y1="29" x2="2.48" y2="29">
</line>
<line class="cls-10" x1="-70.96" y1="25" x2="2.48" y2="25">
</line>
<line class="cls-10" x1="-70.96" y1="21" x2="2.48" y2="21">
</line>
<line class="cls-10" x1="-70.96" y1="17" x2="2.48" y2="17">
</line>
<line class="cls-10" x1="-70.96" y1="13" x2="2.48" y2="13">
</line>
<line class="cls-10" x1="-70.96" y1="9" x2="2.48" y2="9">
</line>
<line class="cls-10" x1="-70.96" y1="5" x2="2.48" y2="5">
</line>
<line class="cls-10" x1="-70.96" y1="1" x2="2.48" y2="1">
</line>
</g>
</g>
</pattern>
</defs>

  <path
     id="path7641-4"
     style="fill:#782ab5;fill-opacity:1;stroke:#4d4d4d;stroke-width:1.62226;stop-color:#000000"
     d="M 34.900259,1.6936052 C 14.323312,9.5265586 1.6299002,23.954051 1.5689773,39.580572 V 79.197446 H 67.963672 V 39.580572 C 67.958188,23.990066 55.374427,9.5708664 34.900259,1.6936052 Z"/>
  <path
     id="path7641-7"
     style="fill:#808080;stroke:#4d4d4d;stroke-width:1.48325;stop-color:#000000"
     d="M 34.629293,5.0425238 C 15.815619,12.204258 4.1542243,25.395327 4.1542243,39.682894 V 76.559207 H 64.859448 V 39.682894 c 0,-14.254531 -11.510452,-27.438125 -30.230155,-34.6403702 z m -0.01233,3.4358455 C 51.537073,14.988239 61.941622,26.904418 61.941622,39.788613 v 33.82806 H 7.07205 v -33.82806 c 0,-12.914055 10.539857,-24.836991 27.544909,-31.3102437 z"/>
  <path
     id="path7641-7-8"
     style="fill:#808080;stroke:#4d4d4d;stroke-width:1.35027;stop-color:#000000"
     d="M 34.618314,8.2461803 C 17.491429,14.76581 6.8755673,26.7742 6.8755673,39.780777 v 33.57007 H 62.138105 v -33.57007 c 0,-12.976504 -10.478452,-24.978088 -27.519791,-31.5345967 z m -0.01123,3.1277957 c 15.403093,5.926211 24.874795,16.774013 24.874795,28.503041 V 70.672134 H 9.5317874 V 39.877017 c 0,-11.75621 9.5948786,-22.610165 25.0752986,-28.503041 z"/>
  <path
     id="path7641-7-8-0"
     style="fill:#808080;stroke:#4d4d4d;stroke-width:1.21411;stop-color:#000000"
     d="M 34.607073,11.526302 C 19.207238,17.388502 9.6618637,28.185984 9.6618637,39.880997 V 70.06591 H 59.351809 V 39.880997 c 0,-11.667973 -9.421821,-22.459335 -24.744736,-28.354695 z m -0.0101,2.812393 c 13.849868,5.328621 22.366458,15.082547 22.366458,25.628837 V 67.657315 H 12.050234 V 39.967532 c 0,-10.570731 8.627346,-20.33019 22.546743,-25.628837 z"/>


<g id="Characters">
<g >
<g >
<path class="cls-1" d="M61.18,63.53l-2.57,8.38s-27.83,7.83-48.63-.95c-1.22-4.32-1.49-6.48-1.49-6.48l17.84-7.43,.27-6.62s-2.71-4.46-3.65-7.57c-2.43,1.08-8.38-1.89-5.94-12.16,2.65,1.53,3.29,1.98,3.36,2.02-.02-.09-.15-.54-.33-1.21-.51-1.96-1.4-5.76-1.01-7.43,.54-2.29,2.7-4.86,2.7-4.86,0,0-3.64-.54-6.21,.81,8.37-8.64,18.37-10.94,28.91-2.56,.13-4.33-2.97-6.08-2.97-6.08,0,0,5.53-.95,9.32,5.13,1.21,3.78-.68,6.35-.68,6.35,0,0,3.92,.81,4.46,2.57,.52,1.7-2.77,6.72-2.96,7.01l.34-.16,2.75-1.32s1.63,2.84,.14,7.3c-1.49,4.46-4.05,5.94-5.94,4.19-2.03,5.67-3.79,8.51-3.79,8.51l.27,5.94,15.81,6.62Z">
</path>
<path class="cls-2" d="M36.26,55.2V25.42s7.22-3.9,12.68-.55c2.48,6.51,2.22,9.4,2.22,9.4,0,0-1.66,13.05-7.62,18.22-3.33,2.63-7.27,2.72-7.27,2.72Z">
</path>
<path class="cls-2" d="M31.35,62.12s2.72,2.06,6.34,.91,7.69-6.12,7.69-6.12l2.85,1.02s-2.63,12.67-6.58,16.54c-8.39,1.23-11.93-.33-11.93-.33l-3.87-8.07,5.51-3.95Z">
</path>
<path d="M51.6,32.45l.34-.16-.77,1.33-2.23-8.75s-7-2.13-13.61,.78c.49-1.17,3.01-3.3,3.01-3.3,0,0-1.55-.39-7.77,.29-8.36,1.65-10.4,8.94-10.4,8.94l-.13-.07c-.51-1.96-1.4-5.76-1.01-7.43,.54-2.29,2.7-4.86,2.7-4.86,0,0-3.64-.54-6.21,.81,8.37-8.64,18.37-10.94,28.91-2.56,.13-4.33-2.97-6.08-2.97-6.08,0,0,5.53-.95,9.32,5.13,1.21,3.78-.68,6.35-.68,6.35,0,0,3.92,.81,4.46,2.57,.52,1.7-2.77,6.72-2.96,7.01Z">
</path>
<path class="cls-11" d="M21.24,23.51s5.25-6.03,10.21-5.15,11.27,3.5,13.61,.68c-5.35-4.37-8.84-5.25-8.84-5.25,0,0-.39,3.21-6.51,2.43s-8.46,7.29-8.46,7.29Z">
</path>
<path class="cls-3" d="M32.62,35.62s-3.84-.05-7.8,.75c1.03,1.63,6.84,2.21,7.8-.75Z">
</path>
<path class="cls-3" d="M39.22,35.62s3.84-.05,7.8,.75c-1.03,1.63-6.84,2.21-7.8-.75Z">
</path>
<path d="M20.66,32.89l-3.65-2.19s-1.31,4.09,.22,7.95,3.43,5.21,5.58,3.86c-1.96-5.52-2.15-9.62-2.15-9.62Z">
</path>
<path d="M42.51,53.54l-22.84,19.93-9.83-2.09-1.18-7.19,17.67-7.14,.44-6.15s2.18,3.82,6.82,3.91,6.82-.09,8.92-1.27Z">
</path>
<path class="cls-15" d="M30.3,65.48l2.52-3.05s3.66,.84,5.72,.31c2.14,1.53,2.67,2.44,2.67,2.44l-2.97,3.89,1.6,5.41-7.7-.08,1.68-4.96-3.51-3.97Z">
</path>
<path d="M48.56,58.45s-2.91,12.17-6.93,16.01c13.03-1,17.29-3.13,17.29-3.13l1.74-8.52-12.11-4.36Z">
</path>
<polygon points="25.02 65.23 30.25 74.43 19.11 72.69 25.02 65.23">
</polygon>
<path class="cls-2" d="M43.78,54.64l-7.82,6.64s4.91,.35,8.1-4.64c-.28-1.18-.28-2.01-.28-2.01Z">
</path>
<path class="cls-1" d="M34.04,23.83c-1.05,1-1.53,1.81-1.66,2.05l-.89,1.66-1.79,3.34,3.21-2.02,1.59-1c.41-.25,4.14-2.4,8.97-2.4,1.56,0,3.07,.23,4.52,.68,1.02,2.7,1.5,6.31,1.63,7.39,0,.02,0,.03,0,.05l.02,.22c-.69,6.36-4.71,15.75-7.85,18.32-1.16,.94-3.3,1.53-5.59,1.53s-4.24-.54-5.65-1.5c-5.44-3.94-7.86-15.2-8.49-18.68l-.02-.53v-.06c0-.33,.07-3.15,2.51-5.54,2.08-2.03,5.27-3.2,9.49-3.5m2.31-1.08c-5.65,0-9.86,1.29-12.5,3.87-2.91,2.85-2.82,6.31-2.81,6.34l.02,.59h0c.65,3.64,3.12,15.22,8.9,19.4,1.71,1.17,4.01,1.69,6.23,1.69,2.47,0,4.85-.64,6.22-1.75,3.4-2.78,7.55-12.49,8.23-19.09l-.03-.33s-.51-4.87-1.87-8.14c-1.83-.63-3.61-.87-5.27-.87-5.36,0-9.44,2.51-9.5,2.54l-1.6,1.01,.89-1.66c.05-.09,1.04-1.9,3.85-3.59-.26,0-.51,0-.76,0h0Z">
</path>
<path class="cls-2" d="M52.76,32.41s2.23,4-.09,9.48c3.25-4.18,3.58-8.45,2.02-10.91-1.37,.42-1.93,1.44-1.93,1.44Z">
</path>
<polygon class="cls-4" points="33.51 33.66 32.62 35.62 24.84 36.09 23.45 35.88 22.25 32.78 27.88 31.64 33.51 33.66">
</polygon>
<polygon class="cls-4" points="39 33.66 40.19 35.64 47.29 36.09 48.41 35.94 49.62 32.97 44.63 31.64 39 33.66">
</polygon>
<path class="cls-7" d="M54.31,25.2c-.61-2.42-4.22-2.13-4.22-2.13,0,0,3.48-3.48,.1-7.87s-9.51-4.29-9.51-4.29c0,0,3.99,1.84,4.09,6.95-5.83-5.93-18.91-10.02-30.37,2.86,5.11-2.45,7.46-1.64,7.46-1.64,0,0-3.27,3.68-3.07,6.34s1.74,7.57,1.74,7.57c0,0-.51-11.86,18.45-10.64-3.98,1.82-5.28,4.24-5.28,4.24,0,0,7.27-4.59,15.41-1.64,1.47,3.38,1.99,8.48,1.99,8.48,0,0,3.81-5.8,3.2-8.22Z">
</path>
<path class="cls-7" d="M20.38,32.53s2.18,15.67,9.29,20.82c3.92,2.68,10.37,2.1,13.06-.07,3.55-2.9,8.05-13.35,8.49-20.24">
</path>
<path class="cls-7" d="M20.73,33.34s-1.93-1.93-3.61-2.43c-2.12,4.55,.56,9.76,1.93,11.09,2.24,2.18,3.61,.5,3.61,.5">
</path>
<path class="cls-7" d="M51.13,33.34s1.93-1.93,3.61-2.43c2.12,4.55-.56,9.76-1.93,11.09-2.24,2.18-3.61,.5-3.61,.5">
</path>
<path d="M22.23,32.97s3.8-1.74,6.91-1.87c4.05,1.37,4.86,2.06,4.86,2.06l-.75,1.37s-3.55-1.87-5.48-2.06c-3.67,.31-5.54,.5-5.54,.5Z">
</path>
<path d="M31.65,35.64c-2.35,.23-4.87,.4-7.1,1.07,0,0,.22-.84,.22-.84,2.02,2.43,4.42,2.15,6.91,.6,0,0,.73-.4,.73-.4-.49,.75-1.01,1.56-1.66,2.17-.46,.44-1,.84-1.62,.98,.6-.2,1.07-.65,1.47-1.12,.4-.48,.73-1.01,1.01-1.56,0,0,.28,.27,.28,.27-3.38,2.37-5.7,2.04-8.57-.91,2.78-.57,5.54-.39,8.32-.27h0Z">
</path>
<path d="M49.62,32.97s-3.8-1.74-6.91-1.87c-4.05,1.37-4.86,2.06-4.86,2.06l.75,1.37s3.55-1.87,5.48-2.06c3.67,.31,5.54,.5,5.54,.5Z">
</path>
<path d="M40.19,35.64c2.78-.12,5.54-.3,8.32,.27-1.27,1.19-2.76,2.59-4.65,2.49-1.52-.08-2.77-.83-3.92-1.59,0,0,.28-.27,.28-.27,.58,1.07,1.3,2.23,2.49,2.68-1.53-.41-2.46-1.9-3.28-3.15,2.79,1.67,5.22,2.63,7.64-.2,0,0,.22,.84,.22,.84-2.23-.66-4.75-.84-7.1-1.07h0Z">
</path>
<path d="M37.46,39.72c.67,.42,1.29,.89,1.91,1.38-.18,.84-.8,1.43-1.5,1.73-1.84,.75-4.77,.54-5.39-1.73,.61-.49,1.23-.96,1.91-1.38-.4,.61-.85,1.18-1.31,1.73l.09-.32c.21,.37,.67,.7,1.15,.86,1.36,.38,3.49,.44,4.36-.86,0,0,.09,.32,.09,.32-.46-.55-.9-1.12-1.31-1.73h0Z">
</path>
<path d="M36.11,44.04h1.56c1.82,.67,3.7,2.9,3.7,2.9,0,0-2.49-1.24-3.32-1.4h-2.01s-.26,0-.26,0h-2.01c-.83,.16-3.32,1.4-3.32,1.4,0,0,1.88-2.23,3.7-2.9h1.95Z">
</path>
<path d="M39.26,47.41c-.18,.4-.4,.78-.61,1.16-.93,.16-1.88,.26-2.83,.3-.95-.04-1.9-.14-2.83-.3-.22-.38-.43-.76-.61-1.16,.32,.26,.62,.55,.92,.83l-.15-.08c.9-.07,1.79-.07,2.68-.04,.89-.03,1.78-.03,2.68,.04l-.15,.08c.29-.29,.59-.57,.92-.83h0Z">
</path>
<path d="M39.83,54.42l-2.08-4.3h-1.49s-.77,0-.77,0h-1.49l-2.08,4.3s4.13,1.68,7.91,0Z">
</path>
<polyline class="cls-7" points="26.66 50.27 26.58 56.85 7.63 64.52">
</polyline>
<polyline class="cls-7" points="45.25 50.27 45.33 56.85 64.27 64.52">
</polyline>
<path class="cls-7" d="M26.58,56.85s2.63,6.09,9.17,6.09,9.58-6.09,9.58-6.09">
</path>
<path class="cls-7" d="M23.41,58.43s3.77,12.24,6.89,16.45">
</path>
<path class="cls-7" d="M27.57,69.14s2.97-4.71,5.35-6.49">
</path>
<path class="cls-7" d="M48.39,58.43s-3.77,12.24-6.89,16.45">
</path>
<path class="cls-7" d="M44.23,69.14s-2.97-4.71-5.35-6.49">
</path>
<polyline class="cls-7" points="30.49 65.62 33.81 69.68 32.08 75.68 40.2 75.68 38.07 69.38 41.54 65.22">
</polyline>
</g>
<path class="cls-1" d="M33.24,54.21c1.79-.72,3.57-.72,5.34,.06,0,0,.02,.1,.02,.1-.88,.2-1.79,.31-2.7,.32-.91-.03-1.81-.14-2.69-.38l.03-.1h0Z">
</path>
<path class="cls-1" d="M17.42,31.92s-1.51,3.29,1.16,8.29">
</path>
<path class="cls-11" d="M10.41,64.89c5.17-2.43,10.7-5.18,16.02-6.76-2.41,1.55-5.12,2.85-7.73,4.01-2.63,1.02-5.52,2.43-8.29,2.74h0Z">
</path>
</g>
</g>
  <g
     id="g20645">
    <path
       style="fill:#808080;stroke:#4d4d4d;stroke-width:0.937908;stop-color:#000000;fill-opacity:1"
       d="m 9.541565,65.883425 a 5.4759801,5.4759801 0 0 1 5.47598,5.475981 5.4759801,5.4759801 0 0 1 -5.47598,5.47598 5.4759801,5.4759801 0 0 1 -5.4759806,-5.47598 5.4759801,5.4759801 0 0 1 5.4759806,-5.475981 z"/>
    <path
       style="fill:#808080;stroke:#4d4d4d;stroke-width:0.937908;stop-color:#000000;fill-opacity:1"
       d="m 59.472108,65.883425 a 5.4759801,5.4759801 0 0 1 5.47598,5.475981 5.4759801,5.4759801 0 0 1 -5.47598,5.47598 5.4759801,5.4759801 0 0 1 -5.475981,-5.47598 5.4759801,5.4759801 0 0 1 5.475981,-5.475981 z"/>
    <path
       id="path7641"
       style="fill:#808080;stroke:#4d4d4d;stroke-width:1.64416;stop-color:#000000"
       d="M 34.642578,1.1660156 C 13.787845,9.1047124 0.86132813,23.726855 0.86132812,39.564453 V 79.340489 H 68.152344 V 39.564453 c 0,-15.800978 -12.759199,-30.4148342 -33.509766,-38.3984374 z m -0.01367,3.8085938 C 53.384648,12.190722 64.917969,25.399665 64.917969,39.681641 v 26.507812 c -1.368656,-1.44106 -3.300993,-2.341797 -5.445313,-2.341797 -4.14856,0 -7.511718,3.363159 -7.511718,7.511719 0,2.347008 1.075662,4.442843 2.761718,5.820313 H 14.269531 c 1.756069,-1.422629 2.778281,-3.560307 2.783203,-5.820313 4.8e-5,-4.148627 -3.363091,-7.511766 -7.5117184,-7.511719 -2.0622939,0.0062 -4.0313164,0.860092 -5.4453125,2.361328 V 39.681641 c 0,-14.315076 11.6833059,-27.531508 30.5332029,-34.7070316 z"/>
    <circle
       style="fill:#4d4d4d;fill-opacity:1;stroke:#4d4d4d;stop-color:#000000"
       id="path16431"
       cx="9.6010828"
       cy="71.229652"
       r="5.06003" />
    <circle
       style="fill:#4d4d4d;fill-opacity:1;stroke:#4d4d4d;stop-color:#000000"
       id="path16431-3"
       cx="59.42292"
       cy="71.229652"
       r="5.06003" />
  </g>
</svg>
