<?xml version="1.0" encoding="UTF-8"?><svg id="Capa_2" xmlns="http://www.w3.org/2000/svg" xmlns:xlink="http://www.w3.org/1999/xlink" viewBox="0 0 69.02 80"><defs><style>.cls-1{fill:#c89aed;}.cls-2{fill:#fff;}.cls-3{fill:#f8ffbf;}.cls-4{fill:#a88347;}.cls-5{fill:#782ab5;}.cls-6,.cls-7{stroke:#000;stroke-miterlimit:10;}.cls-6,.cls-7,.cls-8,.cls-9,.cls-10{fill:none;}.cls-11{fill:#1c46ff;}.cls-7{stroke-width:.75px;}.cls-8{stroke:#deb778;stroke-dasharray:0 0 0 4.06;stroke-linecap:round;stroke-linejoin:round;}.cls-12{fill:url(#USGS_19_Inundación_de_tierra);}.cls-13{fill:#deb778;}.cls-10{stroke:#1d1d1b;stroke-dasharray:0 0 2 2;stroke-width:.3px;}.cls-14{fill:#fcf0c5;}</style><pattern id="USGS_19_Inundación_de_tierra" x="0" y="0" width="72" height="72" patternTransform="translate(-380.48 -16207) rotate(-90)" patternUnits="userSpaceOnUse" viewBox="0 0 72 72"><g><rect class="cls-9" width="72" height="72"/><g><line class="cls-10" x1="71" y1="71" x2="144.44" y2="71"/><line class="cls-10" x1="71" y1="67" x2="144.44" y2="67"/><line class="cls-10" x1="71" y1="63" x2="144.44" y2="63"/><line class="cls-10" x1="71" y1="59" x2="144.44" y2="59"/><line class="cls-10" x1="71" y1="55" x2="144.44" y2="55"/><line class="cls-10" x1="71" y1="51" x2="144.44" y2="51"/><line class="cls-10" x1="71" y1="47" x2="144.44" y2="47"/><line class="cls-10" x1="71" y1="43" x2="144.44" y2="43"/><line class="cls-10" x1="71" y1="39" x2="144.44" y2="39"/><line class="cls-10" x1="71" y1="35" x2="144.44" y2="35"/><line class="cls-10" x1="71" y1="31" x2="144.44" y2="31"/><line class="cls-10" x1="71" y1="27" x2="144.44" y2="27"/><line class="cls-10" x1="71" y1="23" x2="144.44" y2="23"/><line class="cls-10" x1="71" y1="19" x2="144.44" y2="19"/><line class="cls-10" x1="71" y1="15" x2="144.44" y2="15"/><line class="cls-10" x1="71" y1="11" x2="144.44" y2="11"/><line class="cls-10" x1="71" y1="7" x2="144.44" y2="7"/><line class="cls-10" x1="71" y1="3" x2="144.44" y2="3"/></g><g><line class="cls-10" x1="-1" y1="71" x2="72.44" y2="71"/><line class="cls-10" x1="-1" y1="67" x2="72.44" y2="67"/><line class="cls-10" x1="-1" y1="63" x2="72.44" y2="63"/><line class="cls-10" x1="-1" y1="59" x2="72.44" y2="59"/><line class="cls-10" x1="-1" y1="55" x2="72.44" y2="55"/><line class="cls-10" x1="-1" y1="51" x2="72.44" y2="51"/><line class="cls-10" x1="-1" y1="47" x2="72.44" y2="47"/><line class="cls-10" x1="-1" y1="43" x2="72.44" y2="43"/><line class="cls-10" x1="-1" y1="39" x2="72.44" y2="39"/><line class="cls-10" x1="-1" y1="35" x2="72.44" y2="35"/><line class="cls-10" x1="-1" y1="31" x2="72.44" y2="31"/><line class="cls-10" x1="-1" y1="27" x2="72.44" y2="27"/><line class="cls-10" x1="-1" y1="23" x2="72.44" y2="23"/><line class="cls-10" x1="-1" y1="19" x2="72.44" y2="19"/><line class="cls-10" x1="-1" y1="15" x2="72.44" y2="15"/><line class="cls-10" x1="-1" y1="11" x2="72.44" y2="11"/><line class="cls-10" x1="-1" y1="7" x2="72.44" y2="7"/><line class="cls-10" x1="-1" y1="3" x2="72.44" y2="3"/><line class="cls-10" x1="1.04" y1="69" x2="74.48" y2="69"/><line class="cls-10" x1="1.04" y1="65" x2="74.48" y2="65"/><line class="cls-10" x1="1.04" y1="61" x2="74.48" y2="61"/><line class="cls-10" x1="1.04" y1="57" x2="74.48" y2="57"/><line class="cls-10" x1="1.04" y1="53" x2="74.48" y2="53"/><line class="cls-10" x1="1.04" y1="49" x2="74.48" y2="49"/><line class="cls-10" x1="1.04" y1="45" x2="74.48" y2="45"/><line class="cls-10" x1="1.04" y1="41" x2="74.48" y2="41"/><line class="cls-10" x1="1.04" y1="37" x2="74.48" y2="37"/><line class="cls-10" x1="1.04" y1="33" x2="74.48" y2="33"/><line class="cls-10" x1="1.04" y1="29" x2="74.48" y2="29"/><line class="cls-10" x1="1.04" y1="25" x2="74.48" y2="25"/><line class="cls-10" x1="1.04" y1="21" x2="74.48" y2="21"/><line class="cls-10" x1="1.04" y1="17" x2="74.48" y2="17"/><line class="cls-10" x1="1.04" y1="13" x2="74.48" y2="13"/><line class="cls-10" x1="1.04" y1="9" x2="74.48" y2="9"/><line class="cls-10" x1="1.04" y1="5" x2="74.48" y2="5"/><line class="cls-10" x1="1.04" y1="1" x2="74.48" y2="1"/></g><g><line class="cls-10" x1="-73" y1="71" x2=".44" y2="71"/><line class="cls-10" x1="-73" y1="67" x2=".44" y2="67"/><line class="cls-10" x1="-73" y1="63" x2=".44" y2="63"/><line class="cls-10" x1="-73" y1="59" x2=".44" y2="59"/><line class="cls-10" x1="-73" y1="55" x2=".44" y2="55"/><line class="cls-10" x1="-73" y1="51" x2=".44" y2="51"/><line class="cls-10" x1="-73" y1="47" x2=".44" y2="47"/><line class="cls-10" x1="-73" y1="43" x2=".44" y2="43"/><line class="cls-10" x1="-73" y1="39" x2=".44" y2="39"/><line class="cls-10" x1="-73" y1="35" x2=".44" y2="35"/><line class="cls-10" x1="-73" y1="31" x2=".44" y2="31"/><line class="cls-10" x1="-73" y1="27" x2=".44" y2="27"/><line class="cls-10" x1="-73" y1="23" x2=".44" y2="23"/><line class="cls-10" x1="-73" y1="19" x2=".44" y2="19"/><line class="cls-10" x1="-73" y1="15" x2=".44" y2="15"/><line class="cls-10" x1="-73" y1="11" x2=".44" y2="11"/><line class="cls-10" x1="-73" y1="7" x2=".44" y2="7"/><line class="cls-10" x1="-73" y1="3" x2=".44" y2="3"/><line class="cls-10" x1="-70.96" y1="69" x2="2.48" y2="69"/><line class="cls-10" x1="-70.96" y1="65" x2="2.48" y2="65"/><line class="cls-10" x1="-70.96" y1="61" x2="2.48" y2="61"/><line class="cls-10" x1="-70.96" y1="57" x2="2.48" y2="57"/><line class="cls-10" x1="-70.96" y1="53" x2="2.48" y2="53"/><line class="cls-10" x1="-70.96" y1="49" x2="2.48" y2="49"/><line class="cls-10" x1="-70.96" y1="45" x2="2.48" y2="45"/><line class="cls-10" x1="-70.96" y1="41" x2="2.48" y2="41"/><line class="cls-10" x1="-70.96" y1="37" x2="2.48" y2="37"/><line class="cls-10" x1="-70.96" y1="33" x2="2.48" y2="33"/><line class="cls-10" x1="-70.96" y1="29" x2="2.48" y2="29"/><line class="cls-10" x1="-70.96" y1="25" x2="2.48" y2="25"/><line class="cls-10" x1="-70.96" y1="21" x2="2.48" y2="21"/><line class="cls-10" x1="-70.96" y1="17" x2="2.48" y2="17"/><line class="cls-10" x1="-70.96" y1="13" x2="2.48" y2="13"/><line class="cls-10" x1="-70.96" y1="9" x2="2.48" y2="9"/><line class="cls-10" x1="-70.96" y1="5" x2="2.48" y2="5"/><line class="cls-10" x1="-70.96" y1="1" x2="2.48" y2="1"/></g></g></pattern></defs><g id="BG"><g><path class="cls-5" d="M64.02,40c0,11.47-1.89,22.39-5.5,31.74-7.2,2.16-14.94,3.26-23.02,3.26-.49,0-.98-.01-1.47-.02h-.17c-8.18-.15-16.29-1.47-23.6-3.85-3.45-9.22-5.26-19.93-5.26-31.13s1.89-22.38,5.48-31.73c6.73-2.01,14.13-3.13,21.6-3.26,.48-.01,.97-.01,1.45-.01,.54,0,1.08,.01,1.63,.02,8.16,.15,16.27,1.47,23.59,3.84,3.46,9.24,5.27,19.95,5.27,31.14Z"/><path class="cls-12" d="M34.03,5.59V74.98h-.17c-8.18-.15-16.29-1.47-23.6-3.85-3.45-9.22-5.26-19.93-5.26-31.13s1.89-22.38,5.48-31.73c6.73-2.01,14.13-3.13,21.6-3.26,.65,.16,1.3,.36,1.95,.58Z"/></g></g><g id="Characters"><g><path class="cls-1" d="M61.32,63.45l-2.08,8.31s-7.76,2.62-22.64,3.93c-14.87,1.31-26.13-3.93-26.13-3.93l-2.84-8.21s8.85-4.26,11.48-5.68c1.72-.93,2.78-1.68,3.46-2.45,.36-.41,.61-.82,.8-1.27,.55-1.31,.66-6.67,.66-6.67,0,0-.55-.44-2.73-5.03-3.94-2.19-4.71-7.98-4.16-9.51,.55-1.53,2.95-1.75,2.95-1.75l.11-2.85c-.08-3.56-.11-10.38,3.28-13.66,2.63-2.96,13.56-2.08,13.56-2.08,0,0,8.83-.98,10.83,4.81,1.64,4.81,1.2,14,1.2,14,0,0,2.51,.11,2.95,1.31s.88,7.11-4.37,9.51c-.55,1.31-2.95,6.23-2.95,6.23,0,0,0,3.78,1.47,6.49,.61,1.13,1.46,2.06,2.68,2.48,3.61,.99,12.47,6.02,12.47,6.02Z"/><path class="cls-2" d="M34.6,50.87V23.2l11.16-2.21s3.14,4.98,3.41,7.57c-.09,7.29-.28,15.59-4.98,20.48-1.48,1.54-2.68,2.93-3.73,4.09-2.06,2.3-5.87,.84-5.87-2.25Z"/><path class="cls-3" d="M61.32,63.45l-2.08,8.31s-7.76,2.62-22.64,3.93c-14.87,1.31-26.13-3.93-26.13-3.93l-2.84-8.21s8.85-4.26,11.48-5.68c1.72-.93,2.78-1.68,3.46-2.45,.51,.56,3.82,4.1,8.5,5.57,2.07,6.41,2.64,7.82,2.64,7.82l1.51-.19,2.45-7.82s5.86-1.03,8.5-5.85c.61,1.13,1.46,2.06,2.68,2.48,3.61,.99,12.47,6.02,12.47,6.02Z"/><path class="cls-4" d="M19.93,57.84s1.22,11.08,5.73,15.87c-11.45,.47-15.77-2.25-15.77-2.25l-1.97-8.64s7.89-3.47,12.02-4.98Z"/><path class="cls-4" d="M49.04,58s-3.3,12.27-6.6,16.7c11.44-1.55,16.91-3.71,16.91-3.71l1.2-7.83s-10.58-5.26-11.51-5.15Z"/><path d="M27.26,64.39l2.27,3.67s3.9,2.68,10.13,.35c1.4-1.75,2.04-3.14,2.04-3.14,0,0,1.86,1.8,2.09,3.26-2.85,2.44-4.25,2.68-4.25,2.68l-1.75,3.67-6.63-.35-1.28-2.97s-4.36-2.5-5-3.78c1.05-1.92,2.39-3.38,2.39-3.38Z"/><path d="M37.72,56.29l-12.48,17.42-15-3.03-1.91-7.54s7.02-3.9,10.75-4.94c3.81-2.34,4.29-4.05,4.29-4.05l1-6.01s4.68,7.28,7.71,8.41,4.42,.61,5.64-.26Z"/><path class="cls-4" d="M10.28,64.23c4.07-2.32,8.17-4.62,12.52-6.39,1.61-1.3,2.05-3.77,2.23-5.8,0,0,.1,0,.1,0,.09,.55,.09,1.1,.07,1.66-.09,1.78-.49,3.85-2.08,4.95-3.06,1.45-6.37,3.11-9.48,4.41-1.09,.45-2.19,.88-3.32,1.26,0,0-.05-.09-.05-.09h0Z"/><path class="cls-2" d="M29.63,47.48s3.19,2.13,9.84,.11c-1.97,3.88-5.53,3.3-5.96,3.35s-3.4-.43-3.88-3.46Z"/><path class="cls-3" d="M31.22,36.56l-2.56-1.39-3.07,.66,2.63,2.19s2.19-.15,3-1.46Z"/><path class="cls-3" d="M38.24,36.41l2.56-1.32,2.85,.88s-2.19,1.9-2.85,2.12c-2.27-.95-2.56-1.68-2.56-1.68Z"/><path d="M20.24,29.37s.38-9.98,.92-11.67,2.23-3.76,5.45-4.38,12.29-1.15,16.89,.23c4.61,1.46,5.68,6.3,5.3,13.74-2.38-4.99-3.23-5.91-3.23-5.91,0,0-3.76,1.69-9.98,2.23-3.38,1.69-3.69,5.61-3.38,6.91-2.99-3.46-2-5.99-.15-6.99-5.3-.77-8.98-2.92-8.98-2.92l-2.84,8.75Z"/><path class="cls-11" d="M45.05,16.17s-1.44,2.4-7.31,2.6-10.58-3.66-14.14-.58c.77-3.27,5.58-3.85,9.04-3.08s5.87,3.37,12.41,1.06Z"/><path class="cls-2" d="M43.63,52.47l.55,2.41s-2.83,3.24-6.76,4.07c4.21-4,6.21-6.48,6.21-6.48Z"/><path d="M20,31.68s.91,9.33,1.56,10.76c-3.89-.78-4.6-7.71-4.54-9.07s1.83-1.92,2.98-1.68Z"/><path class="cls-1" d="M24.09,22.83c1.58,.81,3.43,1.33,5.1,1.66-.14,.26-.25,.54-.33,.82-.53,1.89,.29,4.04,2.42,6.39l1.51,1.66,3.02,3.32-1.32-4.28-.66-2.14c-.39-1.26-.05-2.85,.86-4.06,.61-.81,1.32-1.19,1.79-1.22,.4,.05,.81,.08,1.24,.08,2.78,0,5.59-1.08,7.4-1.96,.78,1.36,1.94,3.61,2.4,5.75,.05,2.2,.05,3.98-.02,5.61-.34,7.88-3.83,14.66-10.38,20.15-.7,.59-1.59,.91-2.51,.91s-1.8-.32-2.51-.91c-6.57-5.49-10.07-12.27-10.4-20.16-.06-1.31-.08-2.67-.07-4.15,.72-2.47,1.71-5.6,2.46-7.48m-.47-1.42c-1.04,2.1-2.68,7.69-2.99,8.76-.01,1.47,.01,2.92,.07,4.34,.35,8.18,3.97,15.2,10.76,20.88,.91,.76,2.03,1.14,3.15,1.14s2.24-.38,3.15-1.15c6.77-5.67,10.39-12.69,10.74-20.87,.08-1.88,.07-3.81,.02-5.77-.6-2.88-2.37-5.9-3.02-6.95-1.18,.62-4.55,2.27-7.79,2.27-.4,0-.79-.02-1.18-.08-.84,0-1.86,.58-2.64,1.62-1.1,1.45-1.5,3.39-1.02,4.95l.66,2.14-1.51-1.66c-1.89-2.08-2.63-3.91-2.2-5.45,.22-.8,.73-1.37,1.24-1.78-1.94-.28-5.23-.94-7.44-2.39h0Z"/><path class="cls-2" d="M50.01,32.01s2.02,3.41,.39,8.3c2.72-5.35,2.02-7.6,1.32-8.15s-1.71-.16-1.71-.16Z"/><path class="cls-6" d="M48.32,19.07c-.34-2.82-2.42-5.16-5.2-5.72-2.57-.52-5.46-.82-8.52-.82s-5.95,.29-8.51,.82c-2.78,.57-4.85,2.9-5.2,5.72-.25,2.04-.47,4.33-.61,6.8-.16,2.72-.21,5.65-.08,8.66,.41,9.52,5.04,16.31,10.94,21.24,2.02,1.69,4.93,1.68,6.94,0,5.89-4.93,10.51-11.72,10.92-21.24,.13-3.01,.08-5.94-.08-8.66-.14-2.47-.36-4.76-.6-6.8Z"/><path class="cls-6" d="M20.1,30.22s2.21-7.76,3.36-9.55c3.06,2.36,9.25,2.81,9.25,2.81,0,0-5.42,1.6-.32,7.21-1.02-3.32,1.6-7.27,4.21-7.21,4.08,.57,9.06-2.36,9.06-2.36,0,0,2.81,4.15,3.45,7.98"/><path class="cls-6" d="M20.29,31.91s-1.45-.79-2.68,.2,.12,9.44,3.75,10.15"/><path class="cls-6" d="M49.09,31.91s1.45-.79,2.68,.2-.12,9.44-3.75,10.15"/><path d="M22.41,32.69c1.29-1.3,3.41-1.4,5.07-1.11,1.71,.2,3.39,.52,5.05,.92,0,0-.4,1.66-.4,1.66-3.24-.6-6.38-2.32-9.72-1.46h0Z"/><path d="M31.22,36.5c-.8-.39-2.2-1.01-2.79-1.06-.86,.19-1.85,.36-2.62,.74,0,0,.03-.58,.03-.58,.84,.75,1.72,1.57,2.66,2.18,0,0-.18-.02-.18-.02,.75-.15,1.52-.26,2.2-.64-.56,.6-1.39,.88-2.15,1.15,0,0-.1-.05-.1-.05-1.27-.59-2.27-1.51-3.31-2.41,1.03-.72,2.24-.85,3.43-.99,1.16,.24,1.97,.94,2.82,1.66h0Z"/><path d="M22.74,35.45c.71,1.48,1.57,3.94,2.62,5.15,.43,.94,.56,2.41,.31,3.42-.15-1.08-.51-2.07-.87-3.06l.09,.14c-1.45-1.5-1.96-3.64-2.14-5.65h0Z"/><path d="M46.87,32.69c-3.33-.85-6.48,.86-9.72,1.46,0,0-.4-1.66-.4-1.66,1.66-.4,3.34-.72,5.05-.92,1.66-.29,3.78-.19,5.07,1.11h0Z"/><path d="M38.06,36.5c.85-.72,1.66-1.42,2.82-1.66,1.2,.13,2.4,.27,3.43,.99-1.04,.9-2.04,1.82-3.31,2.41,0,0-.1,.05-.1,.05-.76-.27-1.58-.56-2.15-1.15,.68,.38,1.45,.49,2.2,.64,0,0-.18,.02-.18,.02,.94-.61,1.81-1.43,2.66-2.18,0,0,.03,.58,.03,.58-.77-.38-1.76-.55-2.62-.74-.59,.06-1.99,.67-2.79,1.06h0Z"/><path d="M46.54,35.45c-.17,2.01-.69,4.15-2.14,5.65,0,0,.09-.14,.09-.14-.36,.99-.73,1.98-.87,3.06-.25-1.01-.13-2.48,.31-3.42,1.05-1.2,1.91-3.68,2.62-5.15h0Z"/><path d="M35.81,36.83c.71,1.94,1.33,3.9,1.92,5.87l-.12-.2c.5,.37,1.01,.76,1.49,1.16-.4,.42-1.42,1.48-1.82,1.91-.22-.16-1.07-.8-1.31-.97,0,0,.59,0,.59,0-.22,.18-1.73,1.37-1.91,1.52-.17-.14-1.7-1.35-1.91-1.52,0,0,.59,0,.59,0-.24,.18-1.08,.8-1.31,.97-.18-.19-1.29-1.35-1.49-1.56,0,0-.33-.35-.33-.35,.48-.4,1-.79,1.5-1.16,0,0-.12,.2-.12,.2,.6-1.97,1.21-3.94,1.93-5.87-.32,2.04-.75,4.06-1.19,6.07l-.02,.1c-.39,.35-.77,.7-1.17,1.04,0,0,.03-.64,.03-.64l1.27,1.21-.62-.04c.22-.17,1.04-.81,1.24-.97,.16,.12,1.71,1.32,1.92,1.48,0,0-.62,0-.62,0,.21-.16,1.75-1.35,1.92-1.48,.2,.16,1.03,.8,1.24,.97,0,0-.62,.04-.62,.04l1.27-1.21,.03,.64c-.4-.34-.78-.7-1.17-1.04-.45-2.04-.89-4.09-1.22-6.17h0Z"/><path d="M41.7,47.11c-.36-.19-.71-.4-1.06-.62l.25-.08c-.86,3-11.57,3.01-12.45,0,0,0,.25,.08,.25,.08-1.35,.85-.97,.49-.07-.37,0,0,.13,.2,.13,.2,.59,.85,1.72,1.01,2.71,1.13,1.06,.13,2.17,.21,3.21,.24,1.04-.03,2.15-.11,3.21-.24,.99-.11,2.13-.28,2.71-1.13,0,0,.12-.2,.12-.2,.33,.32,.67,.64,.99,.99h0Z"/><path class="cls-7" d="M39.55,47.28s-.24,3.56-4.96,3.73c-4.72-.17-4.96-3.73-4.96-3.73"/><path d="M31.07,49.77l.88-.64,.11-.08c.41,.16,.82,.33,1.26,.41-.41,.09-.84,.1-1.27,.11l.19-.04-.88,.64-.29-.4h0Z"/><path d="M37.52,50.17l-.88-.64,.19,.04c-.43,0-.86-.02-1.27-.11,.44-.08,.85-.25,1.26-.41,0,0,.11,.08,.11,.08l.88,.64-.29,.4h0Z"/><path d="M32.58,28.66c1.94,.45,3.85,.03,5.82-.09-1.77,.8-4.11,1.21-5.82,.09h0Z"/><path class="cls-6" d="M24.07,48.08l-.51,4.6c-.28,2.53-2.12,4.43-4.47,5.41-3.71,1.55-7.87,3.42-11.1,5.35"/><path class="cls-6" d="M44.64,48.42l.51,4.26c.28,2.53,2.12,4.43,4.47,5.41,3.71,1.55,7.87,3.42,11.1,5.35"/><path class="cls-6" d="M22.69,55.07s2.34,4.56,8.32,5.73c1.48,5.18,2.59,8.01,2.59,8.01"/><path class="cls-6" d="M19.93,57.84s2.14,11.66,6.52,17.02"/><path class="cls-6" d="M24.04,70.42s1.91-6.23,6.97-9.62"/><path class="cls-6" d="M46.03,55.07s-2.34,4.56-8.32,5.73c-1.48,5.18-2.59,8.01-2.59,8.01"/><path class="cls-6" d="M48.85,57.7s-2.2,11.8-6.57,17.16"/><path class="cls-6" d="M44.67,70.42s-1.91-6.23-6.97-9.62"/><path class="cls-6" d="M37.24,75.2s2.36-2.76,2.63-6.99c-5.07,1.91-10.24,.09-10.24,.09,0,0-.13,4.05,2.58,6.81"/><path class="cls-6" d="M27.23,64.3s.8,2.45,2.76,4.23"/><path class="cls-6" d="M25,68.08s3.07,2.85,5.21,3.69"/><path class="cls-6" d="M39.73,68.44s1.6-1.82,2.18-3.47"/><path class="cls-6" d="M39.38,71.33s2.8-.93,4.49-3.2"/></g></g><g id="Frame"><path class="cls-4" d="M62.56,4.88C54.4,1.94,45.12,.2,35.25,.02c-.57-.01-1.15-.02-1.72-.02C23.88,0,14.77,1.52,6.72,4.21,2.49,14.22,0,26.6,0,40s2.39,25.22,6.45,35.11c8.16,2.94,17.45,4.69,27.32,4.87,.58,.01,1.15,.02,1.73,.02,9.63,0,18.73-1.51,26.78-4.2,4.24-10.01,6.74-22.39,6.74-35.8s-2.4-25.24-6.46-35.12Zm-4.04,66.86c-7.2,2.16-14.94,3.26-23.02,3.26-.49,0-.98-.01-1.47-.02h-.17c-8.18-.15-16.29-1.47-23.6-3.85-3.45-9.22-5.26-19.93-5.26-31.13s1.89-22.38,5.48-31.73c6.73-2.01,14.13-3.13,21.6-3.26,.48-.01,.97-.01,1.45-.01,.54,0,1.08,.01,1.63,.02,8.16,.15,16.27,1.47,23.59,3.84,3.46,9.24,5.27,19.95,5.27,31.14s-1.89,22.39-5.5,31.74Z"/><path class="cls-13" d="M17.21,2.06h0c1.63,.63,2.06,2.75,.81,3.97l-1.26,1.22s8.35-2.37,18.84-1.69h0c-1-1.49-.45-3.52,1.14-4.34l1-.51S28.26-.43,17.21,2.06Z"/><path class="cls-14" d="M21.81,1.66s.7,2.18-.22,3.1c3.77-.41,7.98-.74,11.12-.74-.33-1.33,1.26-3.4,1.26-3.4,0,0-6.17-.26-12.16,1.03Z"/><path class="cls-13" d="M36.25,79.21h0c-1.52-.87-1.62-3.03-.2-4.04l1.43-1.02s-8.61,1.07-18.88-1.19h0c.76,1.63-.09,3.55-1.79,4.11l-1.07,.36s9.19,2.56,20.5,1.78Z"/><path class="cls-14" d="M19.28,77.8s1.76-1.83,1.3-3.09c4.43,.69,9.11,1.14,12.25,1.14-.33,1.33,.44,3.4,.44,3.4,0,0-8-.16-13.99-1.45Z"/><polygon points="47.48 1.77 47.48 6.73 54.49 8.44 54.49 2.62 47.48 1.77"/><line class="cls-6" x1="45.5" y1="1.23" x2="45.5" y2="6.29"/><line class="cls-6" x1="56.47" y1="3.67" x2="56.47" y2="8.73"/><polygon points="47.48 78.74 47.48 73.78 54.49 72.07 54.49 77.88 47.48 78.74"/><line class="cls-6" x1="45.5" y1="79.28" x2="45.5" y2="74.21"/><line class="cls-6" x1="56.47" y1="76.84" x2="56.47" y2="71.77"/><path d="M33.53,1c.56,0,1.14,0,1.7,.02,9.39,.17,18.33,1.74,26.57,4.65,4.07,10.08,6.22,21.94,6.22,34.33s-2.24,24.79-6.49,34.99c-8.12,2.66-16.87,4.01-26.03,4.01-.56,0-1.12,0-1.71-.02-9.25-.17-18.42-1.78-26.58-4.66C3.15,64.25,1,52.39,1,40S3.23,15.21,7.47,5.02C15.6,2.35,24.37,1,33.53,1m0-1C23.88,0,14.77,1.52,6.72,4.21,2.49,14.22,0,26.6,0,40s2.39,25.22,6.45,35.11c8.16,2.94,17.45,4.69,27.32,4.87,.58,.01,1.15,.02,1.73,.02,9.63,0,18.73-1.51,26.78-4.2,4.24-10.01,6.74-22.39,6.74-35.8s-2.4-25.24-6.46-35.12C54.4,1.94,45.12,.2,35.25,.02c-.57,0-1.15-.02-1.72-.02h0Z"/><path class="cls-13" d="M33.53,6c.52,0,1.04,0,1.61,.02,7.87,.14,15.75,1.4,22.84,3.64,3.3,9,5.04,19.47,5.04,30.34s-1.82,21.82-5.26,30.92c-6.98,2.04-14.47,3.08-22.26,3.08-.48,0-.97,0-1.47-.02h-.15c-7.89-.14-15.78-1.41-22.85-3.65-3.29-8.99-5.03-19.46-5.03-30.33s1.81-21.79,5.24-30.91c6.5-1.89,13.7-2.95,20.86-3.08,.47,0,.96,0,1.43,0m0-1c-.48,0-.97,0-1.45,.01-7.47,.13-14.87,1.25-21.6,3.26-3.59,9.35-5.48,20.26-5.48,31.73s1.81,21.91,5.26,31.13c7.31,2.38,15.42,3.7,23.6,3.85h.17c.49,.01,.98,.02,1.47,.02,8.08,0,15.82-1.1,23.02-3.26,3.61-9.35,5.5-20.27,5.5-31.74s-1.81-21.9-5.27-31.14c-7.32-2.37-15.43-3.69-23.59-3.84-.55,0-1.09-.02-1.63-.02h0Z"/><path d="M33.53,5c.54,0,1.08,.01,1.63,.02,8.16,.15,16.27,1.47,23.59,3.84,3.46,9.24,5.27,19.95,5.27,31.14s-1.89,22.39-5.5,31.74c-7.2,2.16-14.94,3.26-23.02,3.26-.49,0-.98-.01-1.47-.02h-.17c-8.18-.15-16.29-1.47-23.6-3.85-3.45-9.22-5.26-19.93-5.26-31.13s1.89-22.38,5.48-31.73c6.73-2.01,14.13-3.13,21.6-3.26,.48-.01,.97-.01,1.45-.01m0-1c-.49,0-.98,0-1.47,.01-7.51,.13-15.07,1.27-21.87,3.3l-.47,.14-.18,.46c-3.63,9.45-5.55,20.55-5.55,32.09s1.84,22.17,5.32,31.48l.17,.45,.46,.15c7.37,2.4,15.63,3.75,23.89,3.9h.19c.48,.01,.97,.02,1.47,.02,8.16,0,16-1.11,23.31-3.3l.47-.14,.18-.46c3.64-9.43,5.57-20.53,5.57-32.1s-1.84-22.17-5.33-31.49l-.17-.45-.46-.15c-7.39-2.39-15.65-3.74-23.88-3.89-.58-.01-1.12-.02-1.65-.02h0Z"/><path class="cls-8" d="M8.14,7.1s-12.66,32.94,0,66.06"/><path class="cls-8" d="M60.88,7.58s12.66,32.94,0,66.06"/></g></svg>