<svg id="Capa_2" xmlns="http://www.w3.org/2000/svg" xmlns:xlink="http://www.w3.org/1999/xlink" viewBox="0 0 69.02 80">
<defs >
<style >
.cls-1{fill:#c89aed;}.cls-2{fill:#fff;}.cls-3{fill:#f8ffbf;}.cls-4{fill:#a88347;}.cls-5{fill:#782ab5;}.cls-6,.cls-7{stroke:#000;stroke-miterlimit:10;}.cls-6,.cls-7,.cls-8,.cls-9,.cls-10{fill:none;}.cls-11{fill:#1c46ff;}.cls-7{stroke-width:.75px;}.cls-8{stroke:#deb778;stroke-dasharray:0 0 0 4.06;stroke-linecap:round;stroke-linejoin:round;}.cls-12{fill:url(#USGS_19_Inundación_de_tierra);}.cls-13{fill:#deb778;}.cls-10{stroke:#1d1d1b;stroke-dasharray:0 0 2 2;stroke-width:.3px;}.cls-14{fill:#fcf0c5;}
</style>
<pattern id="USGS_19_Inundación_de_tierra" x="0" y="0" width="72" height="72" patternTransform="translate(-380.48 -16207) rotate(-90)" patternUnits="userSpaceOnUse" viewBox="0 0 72 72">
<g >
<rect class="cls-9" width="72" height="72">
</rect>
<g >
<line class="cls-10" x1="71" y1="71" x2="144.44" y2="71">
</line>
<line class="cls-10" x1="71" y1="67" x2="144.44" y2="67">
</line>
<line class="cls-10" x1="71" y1="63" x2="144.44" y2="63">
</line>
<line class="cls-10" x1="71" y1="59" x2="144.44" y2="59">
</line>
<line class="cls-10" x1="71" y1="55" x2="144.44" y2="55">
</line>
<line class="cls-10" x1="71" y1="51" x2="144.44" y2="51">
</line>
<line class="cls-10" x1="71" y1="47" x2="144.44" y2="47">
</line>
<line class="cls-10" x1="71" y1="43" x2="144.44" y2="43">
</line>
<line class="cls-10" x1="71" y1="39" x2="144.44" y2="39">
</line>
<line class="cls-10" x1="71" y1="35" x2="144.44" y2="35">
</line>
<line class="cls-10" x1="71" y1="31" x2="144.44" y2="31">
</line>
<line class="cls-10" x1="71" y1="27" x2="144.44" y2="27">
</line>
<line class="cls-10" x1="71" y1="23" x2="144.44" y2="23">
</line>
<line class="cls-10" x1="71" y1="19" x2="144.44" y2="19">
</line>
<line class="cls-10" x1="71" y1="15" x2="144.44" y2="15">
</line>
<line class="cls-10" x1="71" y1="11" x2="144.44" y2="11">
</line>
<line class="cls-10" x1="71" y1="7" x2="144.44" y2="7">
</line>
<line class="cls-10" x1="71" y1="3" x2="144.44" y2="3">
</line>
</g>
<g >
<line class="cls-10" x1="-1" y1="71" x2="72.44" y2="71">
</line>
<line class="cls-10" x1="-1" y1="67" x2="72.44" y2="67">
</line>
<line class="cls-10" x1="-1" y1="63" x2="72.44" y2="63">
</line>
<line class="cls-10" x1="-1" y1="59" x2="72.44" y2="59">
</line>
<line class="cls-10" x1="-1" y1="55" x2="72.44" y2="55">
</line>
<line class="cls-10" x1="-1" y1="51" x2="72.44" y2="51">
</line>
<line class="cls-10" x1="-1" y1="47" x2="72.44" y2="47">
</line>
<line class="cls-10" x1="-1" y1="43" x2="72.44" y2="43">
</line>
<line class="cls-10" x1="-1" y1="39" x2="72.44" y2="39">
</line>
<line class="cls-10" x1="-1" y1="35" x2="72.44" y2="35">
</line>
<line class="cls-10" x1="-1" y1="31" x2="72.44" y2="31">
</line>
<line class="cls-10" x1="-1" y1="27" x2="72.44" y2="27">
</line>
<line class="cls-10" x1="-1" y1="23" x2="72.44" y2="23">
</line>
<line class="cls-10" x1="-1" y1="19" x2="72.44" y2="19">
</line>
<line class="cls-10" x1="-1" y1="15" x2="72.44" y2="15">
</line>
<line class="cls-10" x1="-1" y1="11" x2="72.44" y2="11">
</line>
<line class="cls-10" x1="-1" y1="7" x2="72.44" y2="7">
</line>
<line class="cls-10" x1="-1" y1="3" x2="72.44" y2="3">
</line>
<line class="cls-10" x1="1.04" y1="69" x2="74.48" y2="69">
</line>
<line class="cls-10" x1="1.04" y1="65" x2="74.48" y2="65">
</line>
<line class="cls-10" x1="1.04" y1="61" x2="74.48" y2="61">
</line>
<line class="cls-10" x1="1.04" y1="57" x2="74.48" y2="57">
</line>
<line class="cls-10" x1="1.04" y1="53" x2="74.48" y2="53">
</line>
<line class="cls-10" x1="1.04" y1="49" x2="74.48" y2="49">
</line>
<line class="cls-10" x1="1.04" y1="45" x2="74.48" y2="45">
</line>
<line class="cls-10" x1="1.04" y1="41" x2="74.48" y2="41">
</line>
<line class="cls-10" x1="1.04" y1="37" x2="74.48" y2="37">
</line>
<line class="cls-10" x1="1.04" y1="33" x2="74.48" y2="33">
</line>
<line class="cls-10" x1="1.04" y1="29" x2="74.48" y2="29">
</line>
<line class="cls-10" x1="1.04" y1="25" x2="74.48" y2="25">
</line>
<line class="cls-10" x1="1.04" y1="21" x2="74.48" y2="21">
</line>
<line class="cls-10" x1="1.04" y1="17" x2="74.48" y2="17">
</line>
<line class="cls-10" x1="1.04" y1="13" x2="74.48" y2="13">
</line>
<line class="cls-10" x1="1.04" y1="9" x2="74.48" y2="9">
</line>
<line class="cls-10" x1="1.04" y1="5" x2="74.48" y2="5">
</line>
<line class="cls-10" x1="1.04" y1="1" x2="74.48" y2="1">
</line>
</g>
<g >
<line class="cls-10" x1="-73" y1="71" x2=".44" y2="71">
</line>
<line class="cls-10" x1="-73" y1="67" x2=".44" y2="67">
</line>
<line class="cls-10" x1="-73" y1="63" x2=".44" y2="63">
</line>
<line class="cls-10" x1="-73" y1="59" x2=".44" y2="59">
</line>
<line class="cls-10" x1="-73" y1="55" x2=".44" y2="55">
</line>
<line class="cls-10" x1="-73" y1="51" x2=".44" y2="51">
</line>
<line class="cls-10" x1="-73" y1="47" x2=".44" y2="47">
</line>
<line class="cls-10" x1="-73" y1="43" x2=".44" y2="43">
</line>
<line class="cls-10" x1="-73" y1="39" x2=".44" y2="39">
</line>
<line class="cls-10" x1="-73" y1="35" x2=".44" y2="35">
</line>
<line class="cls-10" x1="-73" y1="31" x2=".44" y2="31">
</line>
<line class="cls-10" x1="-73" y1="27" x2=".44" y2="27">
</line>
<line class="cls-10" x1="-73" y1="23" x2=".44" y2="23">
</line>
<line class="cls-10" x1="-73" y1="19" x2=".44" y2="19">
</line>
<line class="cls-10" x1="-73" y1="15" x2=".44" y2="15">
</line>
<line class="cls-10" x1="-73" y1="11" x2=".44" y2="11">
</line>
<line class="cls-10" x1="-73" y1="7" x2=".44" y2="7">
</line>
<line class="cls-10" x1="-73" y1="3" x2=".44" y2="3">
</line>
<line class="cls-10" x1="-70.96" y1="69" x2="2.48" y2="69">
</line>
<line class="cls-10" x1="-70.96" y1="65" x2="2.48" y2="65">
</line>
<line class="cls-10" x1="-70.96" y1="61" x2="2.48" y2="61">
</line>
<line class="cls-10" x1="-70.96" y1="57" x2="2.48" y2="57">
</line>
<line class="cls-10" x1="-70.96" y1="53" x2="2.48" y2="53">
</line>
<line class="cls-10" x1="-70.96" y1="49" x2="2.48" y2="49">
</line>
<line class="cls-10" x1="-70.96" y1="45" x2="2.48" y2="45">
</line>
<line class="cls-10" x1="-70.96" y1="41" x2="2.48" y2="41">
</line>
<line class="cls-10" x1="-70.96" y1="37" x2="2.48" y2="37">
</line>
<line class="cls-10" x1="-70.96" y1="33" x2="2.48" y2="33">
</line>
<line class="cls-10" x1="-70.96" y1="29" x2="2.48" y2="29">
</line>
<line class="cls-10" x1="-70.96" y1="25" x2="2.48" y2="25">
</line>
<line class="cls-10" x1="-70.96" y1="21" x2="2.48" y2="21">
</line>
<line class="cls-10" x1="-70.96" y1="17" x2="2.48" y2="17">
</line>
<line class="cls-10" x1="-70.96" y1="13" x2="2.48" y2="13">
</line>
<line class="cls-10" x1="-70.96" y1="9" x2="2.48" y2="9">
</line>
<line class="cls-10" x1="-70.96" y1="5" x2="2.48" y2="5">
</line>
<line class="cls-10" x1="-70.96" y1="1" x2="2.48" y2="1">
</line>
</g>
</g>
</pattern>
</defs>

<g id="Characters">
<g >
<path class="cls-1" d="M61.32,63.45l-2.08,8.31s-7.76,2.62-22.64,3.93c-14.87,1.31-26.13-3.93-26.13-3.93l-2.84-8.21s8.85-4.26,11.48-5.68c1.72-.93,2.78-1.68,3.46-2.45,.36-.41,.61-.82,.8-1.27,.55-1.31,.66-6.67,.66-6.67,0,0-.55-.44-2.73-5.03-3.94-2.19-4.71-7.98-4.16-9.51,.55-1.53,2.95-1.75,2.95-1.75l.11-2.85c-.08-3.56-.11-10.38,3.28-13.66,2.63-2.96,13.56-2.08,13.56-2.08,0,0,8.83-.98,10.83,4.81,1.64,4.81,1.2,14,1.2,14,0,0,2.51,.11,2.95,1.31s.88,7.11-4.37,9.51c-.55,1.31-2.95,6.23-2.95,6.23,0,0,0,3.78,1.47,6.49,.61,1.13,1.46,2.06,2.68,2.48,3.61,.99,12.47,6.02,12.47,6.02Z">
</path>
<path class="cls-2" d="M34.6,50.87V23.2l11.16-2.21s3.14,4.98,3.41,7.57c-.09,7.29-.28,15.59-4.98,20.48-1.48,1.54-2.68,2.93-3.73,4.09-2.06,2.3-5.87,.84-5.87-2.25Z">
</path>
<path class="cls-3" d="M61.32,63.45l-2.08,8.31s-7.76,2.62-22.64,3.93c-14.87,1.31-26.13-3.93-26.13-3.93l-2.84-8.21s8.85-4.26,11.48-5.68c1.72-.93,2.78-1.68,3.46-2.45,.51,.56,3.82,4.1,8.5,5.57,2.07,6.41,2.64,7.82,2.64,7.82l1.51-.19,2.45-7.82s5.86-1.03,8.5-5.85c.61,1.13,1.46,2.06,2.68,2.48,3.61,.99,12.47,6.02,12.47,6.02Z">
</path>
<path class="cls-4" d="M19.93,57.84s1.22,11.08,5.73,15.87c-11.45,.47-15.77-2.25-15.77-2.25l-1.97-8.64s7.89-3.47,12.02-4.98Z">
</path>
<path class="cls-4" d="M49.04,58s-3.3,12.27-6.6,16.7c11.44-1.55,16.91-3.71,16.91-3.71l1.2-7.83s-10.58-5.26-11.51-5.15Z">
</path>
<path d="M27.26,64.39l2.27,3.67s3.9,2.68,10.13,.35c1.4-1.75,2.04-3.14,2.04-3.14,0,0,1.86,1.8,2.09,3.26-2.85,2.44-4.25,2.68-4.25,2.68l-1.75,3.67-6.63-.35-1.28-2.97s-4.36-2.5-5-3.78c1.05-1.92,2.39-3.38,2.39-3.38Z">
</path>
<path d="M37.72,56.29l-12.48,17.42-15-3.03-1.91-7.54s7.02-3.9,10.75-4.94c3.81-2.34,4.29-4.05,4.29-4.05l1-6.01s4.68,7.28,7.71,8.41,4.42,.61,5.64-.26Z">
</path>
<path class="cls-4" d="M10.28,64.23c4.07-2.32,8.17-4.62,12.52-6.39,1.61-1.3,2.05-3.77,2.23-5.8,0,0,.1,0,.1,0,.09,.55,.09,1.1,.07,1.66-.09,1.78-.49,3.85-2.08,4.95-3.06,1.45-6.37,3.11-9.48,4.41-1.09,.45-2.19,.88-3.32,1.26,0,0-.05-.09-.05-.09h0Z">
</path>
<path class="cls-2" d="M29.63,47.48s3.19,2.13,9.84,.11c-1.97,3.88-5.53,3.3-5.96,3.35s-3.4-.43-3.88-3.46Z">
</path>
<path class="cls-3" d="M31.22,36.56l-2.56-1.39-3.07,.66,2.63,2.19s2.19-.15,3-1.46Z">
</path>
<path class="cls-3" d="M38.24,36.41l2.56-1.32,2.85,.88s-2.19,1.9-2.85,2.12c-2.27-.95-2.56-1.68-2.56-1.68Z">
</path>
<path d="M20.24,29.37s.38-9.98,.92-11.67,2.23-3.76,5.45-4.38,12.29-1.15,16.89,.23c4.61,1.46,5.68,6.3,5.3,13.74-2.38-4.99-3.23-5.91-3.23-5.91,0,0-3.76,1.69-9.98,2.23-3.38,1.69-3.69,5.61-3.38,6.91-2.99-3.46-2-5.99-.15-6.99-5.3-.77-8.98-2.92-8.98-2.92l-2.84,8.75Z">
</path>
<path class="cls-11" d="M45.05,16.17s-1.44,2.4-7.31,2.6-10.58-3.66-14.14-.58c.77-3.27,5.58-3.85,9.04-3.08s5.87,3.37,12.41,1.06Z">
</path>
<path class="cls-2" d="M43.63,52.47l.55,2.41s-2.83,3.24-6.76,4.07c4.21-4,6.21-6.48,6.21-6.48Z">
</path>
<path d="M20,31.68s.91,9.33,1.56,10.76c-3.89-.78-4.6-7.71-4.54-9.07s1.83-1.92,2.98-1.68Z">
</path>
<path class="cls-1" d="M24.09,22.83c1.58,.81,3.43,1.33,5.1,1.66-.14,.26-.25,.54-.33,.82-.53,1.89,.29,4.04,2.42,6.39l1.51,1.66,3.02,3.32-1.32-4.28-.66-2.14c-.39-1.26-.05-2.85,.86-4.06,.61-.81,1.32-1.19,1.79-1.22,.4,.05,.81,.08,1.24,.08,2.78,0,5.59-1.08,7.4-1.96,.78,1.36,1.94,3.61,2.4,5.75,.05,2.2,.05,3.98-.02,5.61-.34,7.88-3.83,14.66-10.38,20.15-.7,.59-1.59,.91-2.51,.91s-1.8-.32-2.51-.91c-6.57-5.49-10.07-12.27-10.4-20.16-.06-1.31-.08-2.67-.07-4.15,.72-2.47,1.71-5.6,2.46-7.48m-.47-1.42c-1.04,2.1-2.68,7.69-2.99,8.76-.01,1.47,.01,2.92,.07,4.34,.35,8.18,3.97,15.2,10.76,20.88,.91,.76,2.03,1.14,3.15,1.14s2.24-.38,3.15-1.15c6.77-5.67,10.39-12.69,10.74-20.87,.08-1.88,.07-3.81,.02-5.77-.6-2.88-2.37-5.9-3.02-6.95-1.18,.62-4.55,2.27-7.79,2.27-.4,0-.79-.02-1.18-.08-.84,0-1.86,.58-2.64,1.62-1.1,1.45-1.5,3.39-1.02,4.95l.66,2.14-1.51-1.66c-1.89-2.08-2.63-3.91-2.2-5.45,.22-.8,.73-1.37,1.24-1.78-1.94-.28-5.23-.94-7.44-2.39h0Z">
</path>
<path class="cls-2" d="M50.01,32.01s2.02,3.41,.39,8.3c2.72-5.35,2.02-7.6,1.32-8.15s-1.71-.16-1.71-.16Z">
</path>
<path class="cls-6" d="M48.32,19.07c-.34-2.82-2.42-5.16-5.2-5.72-2.57-.52-5.46-.82-8.52-.82s-5.95,.29-8.51,.82c-2.78,.57-4.85,2.9-5.2,5.72-.25,2.04-.47,4.33-.61,6.8-.16,2.72-.21,5.65-.08,8.66,.41,9.52,5.04,16.31,10.94,21.24,2.02,1.69,4.93,1.68,6.94,0,5.89-4.93,10.51-11.72,10.92-21.24,.13-3.01,.08-5.94-.08-8.66-.14-2.47-.36-4.76-.6-6.8Z">
</path>
<path class="cls-6" d="M20.1,30.22s2.21-7.76,3.36-9.55c3.06,2.36,9.25,2.81,9.25,2.81,0,0-5.42,1.6-.32,7.21-1.02-3.32,1.6-7.27,4.21-7.21,4.08,.57,9.06-2.36,9.06-2.36,0,0,2.81,4.15,3.45,7.98">
</path>
<path class="cls-6" d="M20.29,31.91s-1.45-.79-2.68,.2,.12,9.44,3.75,10.15">
</path>
<path class="cls-6" d="M49.09,31.91s1.45-.79,2.68,.2-.12,9.44-3.75,10.15">
</path>
<path d="M22.41,32.69c1.29-1.3,3.41-1.4,5.07-1.11,1.71,.2,3.39,.52,5.05,.92,0,0-.4,1.66-.4,1.66-3.24-.6-6.38-2.32-9.72-1.46h0Z">
</path>
<path d="M31.22,36.5c-.8-.39-2.2-1.01-2.79-1.06-.86,.19-1.85,.36-2.62,.74,0,0,.03-.58,.03-.58,.84,.75,1.72,1.57,2.66,2.18,0,0-.18-.02-.18-.02,.75-.15,1.52-.26,2.2-.64-.56,.6-1.39,.88-2.15,1.15,0,0-.1-.05-.1-.05-1.27-.59-2.27-1.51-3.31-2.41,1.03-.72,2.24-.85,3.43-.99,1.16,.24,1.97,.94,2.82,1.66h0Z">
</path>
<path d="M22.74,35.45c.71,1.48,1.57,3.94,2.62,5.15,.43,.94,.56,2.41,.31,3.42-.15-1.08-.51-2.07-.87-3.06l.09,.14c-1.45-1.5-1.96-3.64-2.14-5.65h0Z">
</path>
<path d="M46.87,32.69c-3.33-.85-6.48,.86-9.72,1.46,0,0-.4-1.66-.4-1.66,1.66-.4,3.34-.72,5.05-.92,1.66-.29,3.78-.19,5.07,1.11h0Z">
</path>
<path d="M38.06,36.5c.85-.72,1.66-1.42,2.82-1.66,1.2,.13,2.4,.27,3.43,.99-1.04,.9-2.04,1.82-3.31,2.41,0,0-.1,.05-.1,.05-.76-.27-1.58-.56-2.15-1.15,.68,.38,1.45,.49,2.2,.64,0,0-.18,.02-.18,.02,.94-.61,1.81-1.43,2.66-2.18,0,0,.03,.58,.03,.58-.77-.38-1.76-.55-2.62-.74-.59,.06-1.99,.67-2.79,1.06h0Z">
</path>
<path d="M46.54,35.45c-.17,2.01-.69,4.15-2.14,5.65,0,0,.09-.14,.09-.14-.36,.99-.73,1.98-.87,3.06-.25-1.01-.13-2.48,.31-3.42,1.05-1.2,1.91-3.68,2.62-5.15h0Z">
</path>
<path d="M35.81,36.83c.71,1.94,1.33,3.9,1.92,5.87l-.12-.2c.5,.37,1.01,.76,1.49,1.16-.4,.42-1.42,1.48-1.82,1.91-.22-.16-1.07-.8-1.31-.97,0,0,.59,0,.59,0-.22,.18-1.73,1.37-1.91,1.52-.17-.14-1.7-1.35-1.91-1.52,0,0,.59,0,.59,0-.24,.18-1.08,.8-1.31,.97-.18-.19-1.29-1.35-1.49-1.56,0,0-.33-.35-.33-.35,.48-.4,1-.79,1.5-1.16,0,0-.12,.2-.12,.2,.6-1.97,1.21-3.94,1.93-5.87-.32,2.04-.75,4.06-1.19,6.07l-.02,.1c-.39,.35-.77,.7-1.17,1.04,0,0,.03-.64,.03-.64l1.27,1.21-.62-.04c.22-.17,1.04-.81,1.24-.97,.16,.12,1.71,1.32,1.92,1.48,0,0-.62,0-.62,0,.21-.16,1.75-1.35,1.92-1.48,.2,.16,1.03,.8,1.24,.97,0,0-.62,.04-.62,.04l1.27-1.21,.03,.64c-.4-.34-.78-.7-1.17-1.04-.45-2.04-.89-4.09-1.22-6.17h0Z">
</path>
<path d="M41.7,47.11c-.36-.19-.71-.4-1.06-.62l.25-.08c-.86,3-11.57,3.01-12.45,0,0,0,.25,.08,.25,.08-1.35,.85-.97,.49-.07-.37,0,0,.13,.2,.13,.2,.59,.85,1.72,1.01,2.71,1.13,1.06,.13,2.17,.21,3.21,.24,1.04-.03,2.15-.11,3.21-.24,.99-.11,2.13-.28,2.71-1.13,0,0,.12-.2,.12-.2,.33,.32,.67,.64,.99,.99h0Z">
</path>
<path class="cls-7" d="M39.55,47.28s-.24,3.56-4.96,3.73c-4.72-.17-4.96-3.73-4.96-3.73">
</path>
<path d="M31.07,49.77l.88-.64,.11-.08c.41,.16,.82,.33,1.26,.41-.41,.09-.84,.1-1.27,.11l.19-.04-.88,.64-.29-.4h0Z">
</path>
<path d="M37.52,50.17l-.88-.64,.19,.04c-.43,0-.86-.02-1.27-.11,.44-.08,.85-.25,1.26-.41,0,0,.11,.08,.11,.08l.88,.64-.29,.4h0Z">
</path>
<path d="M32.58,28.66c1.94,.45,3.85,.03,5.82-.09-1.77,.8-4.11,1.21-5.82,.09h0Z">
</path>
<path class="cls-6" d="M24.07,48.08l-.51,4.6c-.28,2.53-2.12,4.43-4.47,5.41-3.71,1.55-7.87,3.42-11.1,5.35">
</path>
<path class="cls-6" d="M44.64,48.42l.51,4.26c.28,2.53,2.12,4.43,4.47,5.41,3.71,1.55,7.87,3.42,11.1,5.35">
</path>
<path class="cls-6" d="M22.69,55.07s2.34,4.56,8.32,5.73c1.48,5.18,2.59,8.01,2.59,8.01">
</path>
<path class="cls-6" d="M19.93,57.84s2.14,11.66,6.52,17.02">
</path>
<path class="cls-6" d="M24.04,70.42s1.91-6.23,6.97-9.62">
</path>
<path class="cls-6" d="M46.03,55.07s-2.34,4.56-8.32,5.73c-1.48,5.18-2.59,8.01-2.59,8.01">
</path>
<path class="cls-6" d="M48.85,57.7s-2.2,11.8-6.57,17.16">
</path>
<path class="cls-6" d="M44.67,70.42s-1.91-6.23-6.97-9.62">
</path>
<path class="cls-6" d="M37.24,75.2s2.36-2.76,2.63-6.99c-5.07,1.91-10.24,.09-10.24,.09,0,0-.13,4.05,2.58,6.81">
</path>
<path class="cls-6" d="M27.23,64.3s.8,2.45,2.76,4.23">
</path>
<path class="cls-6" d="M25,68.08s3.07,2.85,5.21,3.69">
</path>
<path class="cls-6" d="M39.73,68.44s1.6-1.82,2.18-3.47">
</path>
<path class="cls-6" d="M39.38,71.33s2.8-.93,4.49-3.2">
</path>
</g>
</g>
 <g
     id="g2850">
    <g
       id="g2837">
      <path
         id="path1951"
         d="M 0.056640625 0.04296875 L 0.056640625 79.943359 L 69.308594 79.943359 L 69.308594 0.04296875 L 0.056640625 0.04296875 z M 33.615234 3.5957031 C 34.206332 3.5957038 34.786991 3.6051034 35.421875 3.6152344 C 44.430653 3.7671809 53.471255 5.1336733 61.560547 7.5546875 L 62.064453 7.7070312 L 62.25 8.1640625 C 66.070247 17.605006 66.990234 28.726438 66.990234 40.0625 C 66.990234 51.398562 65.972723 63.025755 61.988281 72.578125 L 61.791016 73.044922 L 61.275391 73.185547 C 53.273669 75.403966 44.691921 76.529297 35.759766 76.529297 C 35.212453 76.529297 34.675812 76.519896 34.150391 76.509766 L 33.943359 76.509766 C 24.901742 76.357819 15.860367 74.989738 7.7929688 72.558594 L 7.2890625 72.40625 L 7.1035156 71.951172 C 3.2942144 62.520359 2.375 51.369168 2.375 40.0625 C 2.375 28.755832 3.3819737 17.127318 7.3554688 7.5546875 L 7.5527344 7.0898438 L 8.0664062 6.9472656 C 15.509867 4.890923 23.785212 3.7371557 32.005859 3.6054688 C 32.542226 3.5953387 33.078867 3.5957031 33.615234 3.5957031 z "
         style="opacity:1;vector-effect:none;fill:#ffffff;fill-opacity:1;fill-rule:nonzero;stroke:none;stroke-width:1.95200002;stroke-linecap:butt;stroke-linejoin:miter;stroke-miterlimit:4;stroke-dasharray:none;stroke-dashoffset:0;stroke-opacity:1" />
    </g>
    <path
       id="path1154-8-2"
       d="m 33.675163,6.6112954 c 0.557696,0 1.115392,0.00956 1.683415,0.019115 8.427403,0.14336 16.803167,1.4049288 24.363042,3.6700176 3.573384,8.830981 4.443772,19.417362 4.443772,29.761551 0,10.344189 -0.95301,21.39888 -4.68131,30.334991 -7.435942,2.064385 -15.429581,3.274388 -23.774362,3.274388 -0.506058,0 -1.012115,-0.0096 -1.518172,-0.01911 h -0.17557 C 25.56792,73.508883 17.192156,72.088619 9.6426089,69.813973 6.0795528,61.002107 5.2088244,50.415411 5.2088244,40.061979 c 0,-10.353432 0.95335,-21.389323 4.6609939,-30.325434 C 16.820359,7.8155201 24.462856,6.7450981 32.177647,6.6208528 c 0.49573,-0.00956 1.001787,-0.00956 1.497516,-0.00956 m 0,-0.9557337 c -0.506057,0 -1.012114,0 -1.518171,0.00956 C 24.40089,5.7893644 16.593149,6.8789009 9.570315,8.8190405 L 9.0849131,8.9528432 8.8990146,9.3924808 C 5.1500599,18.424166 4.1999116,29.394246 4.1999116,40.061979 c 0,10.667733 0.8675267,21.188618 4.461566,30.0865 l 0.1755708,0.430081 0.4750741,0.14336 c 7.6115135,2.293761 16.1421925,3.584001 24.6728715,3.727361 h 0.196227 c 0.495729,0.0096 1.001786,0.01911 1.518171,0.01911 8.427403,0 16.524318,-1.060864 24.073866,-3.153921 l 0.485403,-0.133802 0.185898,-0.439639 c 3.759282,-9.01257 4.719759,-19.983589 4.719759,-30.679055 0,-10.695466 -0.867528,-21.188618 -4.471894,-30.0960578 L 60.516853,9.5358409 60.041779,9.3924808 C 52.409609,7.108277 43.87893,5.8180364 35.379234,5.6746763 34.780227,5.6651187 34.232859,5.6555621 33.675163,5.6555615 Z"
       style="fill:#ff0000;stroke:#ffffff;stroke-width:1.84341729;stroke-miterlimit:4;stroke-dasharray:none" />
    <path
       id="path1154"
       d="m 33.614853,4.6077955 c 0.591098,0 1.182197,0.01013 1.784241,0.02026 8.932155,0.1519464 17.809578,1.4890758 25.822246,3.8898304 3.787408,9.3599041 4.709928,20.5803481 4.709928,31.5440931 0,10.963745 -1.01009,22.680548 -4.961693,32.151879 -7.881312,2.18803 -16.353723,3.302304 -25.198307,3.302304 -0.536368,0 -1.072735,-0.01013 -1.609102,-0.02026 H 33.97608 C 25.022033,75.343956 16.14461,74.006827 8.1428892,71.595943 4.3664269,62.256298 3.443547,51.035521 3.443547,40.061979 c 0,-10.973542 1.01045,-22.670418 4.9401601,-32.1417498 7.3668369,-2.036083 15.4670749,-3.170617 23.6439369,-3.3023039 0.525421,-0.01013 1.061788,-0.01013 1.587209,-0.01013 m 0,-1.0129766 c -0.536367,0 -1.072734,0 -1.609101,0.01013 C 23.785105,3.7366356 15.509726,4.891429 8.0662653,6.9477716 L 7.5517907,7.0895883 7.3547579,7.5555576 C 3.3812628,17.128188 2.3742062,28.755311 2.3742062,40.061979 c 0,11.306668 0.9194864,22.457692 4.7287876,31.888505 l 0.1860865,0.45584 0.5035283,0.151947 c 8.0673984,2.431144 17.1090154,3.798662 26.1506324,3.950608 h 0.207979 c 0.525421,0.01013 1.061788,0.02026 1.609101,0.02026 8.932155,0 17.514028,-1.124404 25.51575,-3.342823 l 0.514475,-0.141816 0.197032,-0.46597 c 3.984442,-9.55237 5.002445,-21.180489 5.002445,-32.516551 0,-11.336062 -0.919487,-22.457692 -4.739734,-31.8986353 L 62.064202,7.7075041 61.560674,7.5555576 C 53.471382,5.1345434 44.429765,3.7670249 35.420987,3.6150784 c -0.634884,-0.01013 -1.215036,-0.020259 -1.806134,-0.02026 z"
       style="fill:#000000;stroke:#000000;stroke-width:1.95382714;stroke-miterlimit:4;stroke-dasharray:none" />
    <g
       id="g1810">
      <path
         d="M 6.5134911,7.7433673 C 5.6489029,6.8479453 4.058602,6.5681013 3.6272194,7.3820013 3.284151,8.0292783 3.3625296,8.5309135 4.395235,8.9201755 3.2963719,9.5187755 1.4857674,9.4447465 1.1893447,7.4467713 0.95320848,5.8551433 2.674739,4.8863543 3.1399725,5.0916244 3.0034432,3.6818714 1.8221094,4.0692802 0.95849208,3.2813384 0.34259068,2.7194046 0.23126071,-0.02624603 0.0561761,0.04378767 -0.0138576,0.21887227 2.7317937,0.33020157 3.2937267,0.94610377 4.0816685,1.8097211 3.6942598,2.9910547 5.1040128,3.1275841 4.8987425,2.6623507 5.8675315,0.94082017 7.4591593,1.1769564 9.4571345,1.4733791 9.5311625,3.2839847 8.9325635,4.3828467 8.5433008,3.3501417 8.041666,3.2717627 7.3943894,3.6148312 6.5804899,4.0462137 6.8603354,5.6365129 7.7557553,6.5011023"
         style="fill:#000000;stroke:#000000;stroke-width:0.1112323px;stroke-linecap:butt;stroke-linejoin:miter;stroke-opacity:1"
         id="path1737-3" />
      <path
         d="m 62.850738,7.7433673 c 0.864588,-0.895422 2.454889,-1.175266 2.886271,-0.361366 0.343069,0.647277 0.26469,1.148912 -0.768015,1.538174 1.098863,0.5986 2.909467,0.524571 3.20589,-1.473404 0.236136,-1.591628 -1.485394,-2.560417 -1.950628,-2.3551469 0.13653,-1.409753 1.317863,-1.0223442 2.181481,-1.810286 0.615901,-0.5619338 0.727231,-3.30758442 0.902316,-3.23755072 0.07003,0.1750846 -2.675618,0.2864139 -3.237551,0.9023161 C 65.28256,1.8097211 65.669969,2.9910547 64.260216,3.1275841 64.465486,2.6623507 63.496697,0.94082018 61.905069,1.1769564 c -1.997975,0.2964227 -2.072003,2.1070283 -1.473404,3.2058903 0.389263,-1.032705 0.890898,-1.111084 1.538174,-0.7680155 0.8139,0.4313825 0.534054,2.0216817 -0.361366,2.8862711"
         style="fill:#000000;stroke:#000000;stroke-width:0.1112323px;stroke-linecap:butt;stroke-linejoin:miter;stroke-opacity:1"
         id="path1737-3-5" />
      <path
         d="m 62.850738,72.244244 c 0.864588,0.895422 2.454889,1.175266 2.886272,0.361366 0.343068,-0.647277 0.264689,-1.148912 -0.768016,-1.538174 1.098863,-0.5986 2.909468,-0.524571 3.20589,1.473404 0.236137,1.591628 -1.485394,2.560417 -1.950628,2.355147 0.13653,1.409753 1.317864,1.022344 2.181481,1.810286 0.615901,0.561934 0.727231,3.307584 0.902316,3.237551 0.07003,-0.175085 -2.675618,-0.286414 -3.237551,-0.902317 -0.787942,-0.863617 -0.400533,-2.04495 -1.810286,-2.18148 0.20527,0.465234 -0.763519,2.186764 -2.355146,1.950628 -1.997976,-0.296423 -2.072004,-2.107028 -1.473405,-3.20589 0.389263,1.032705 0.890898,1.111084 1.538175,0.768015 0.813899,-0.431382 0.534054,-2.021682 -0.361366,-2.886271"
         style="fill:#000000;stroke:#000000;stroke-width:0.1112323px;stroke-linecap:butt;stroke-linejoin:miter;stroke-opacity:1"
         id="path1737-3-7" />
      <path
         d="M 6.513491,72.244245 C 5.648903,73.139667 4.058602,73.419511 3.62722,72.605611 3.284151,71.958334 3.36253,71.456699 4.395235,71.067437 c -1.098863,-0.5986 -2.909467,-0.524571 -3.20589,1.473404 -0.23613599,1.591628 1.485394,2.560417 1.950628,2.355147 -0.13653,1.409753 -1.317863,1.022344 -2.18148099,1.810286 -0.615901,0.561933 -0.727231,3.307584 -0.902316,3.23755 C -0.01385399,79.76874 2.731794,79.65741 3.293727,79.041508 4.081669,78.177891 3.69426,76.996557 5.104013,76.860028 4.898743,77.325261 5.867532,79.046792 7.45916,78.810656 9.457135,78.514233 9.531163,76.703627 8.932564,75.604765 8.543301,76.63747 8.041666,76.715849 7.39439,76.372781 6.58049,75.941398 6.860336,74.351099 7.755756,73.48651"
         style="fill:#000000;stroke:#000000;stroke-width:0.1112323px;stroke-linecap:butt;stroke-linejoin:miter;stroke-opacity:1"
         id="path1737-3-5-5" />
    </g>
    <path
       id="path1154-9"
       d="m 33.712865,7.4258691 c 0.536813,0 1.07363,0.00933 1.620386,0.01865 8.111875,0.1398689 16.174044,1.3707167 23.450873,3.5806479 3.439594,8.615932 4.277395,18.944521 4.277395,29.036812 0,10.092292 -0.917329,20.877786 -4.506039,29.596289 -7.157536,2.014114 -14.851888,3.03982 -22.884234,3.03982 -0.487111,0 -0.974221,-0.0094 -1.461331,-0.01865 H 34.040918 C 25.909161,72.53957 17.846991,71.308722 10.580105,69.089467 7.1504515,60.492184 6.3123238,50.163289 6.3123238,40.061979 c 0,-10.101311 0.9176558,-20.868461 4.4864832,-29.586965 6.690308,-1.8742449 14.046665,-2.9186005 21.472608,-3.0398203 0.47717,-0.00933 0.964281,-0.00933 1.44145,-0.00933 m 0,-0.9324602 c -0.487111,0 -0.974221,0 -1.46133,0.00933 C 24.785826,6.6239532 17.270413,7.686958 10.510517,9.5798526 L 10.043289,9.710397 9.8643508,10.139328 c -3.6085914,8.811751 -4.5231655,19.514693 -4.5231655,29.922651 0,10.407958 0.8350459,20.672644 4.294522,29.353849 l 0.1689973,0.419608 0.4572874,0.13987 c 7.326533,2.237904 15.537818,3.496724 23.749103,3.636593 h 0.188879 c 0.47717,0.0094 0.96428,0.01865 1.461331,0.01865 8.111875,0 15.905636,-1.035031 23.172525,-3.077119 l 0.467228,-0.130544 0.178938,-0.428932 c 3.618533,-8.793101 4.543048,-19.496959 4.543048,-29.931975 0,-10.435016 -0.835047,-20.672644 -4.304463,-29.363174 l -0.168997,-0.419609 -0.457288,-0.13987 C 51.74588,7.9107484 43.534594,6.6519271 35.353133,6.512058 34.776554,6.502738 34.249678,6.493409 33.712865,6.493409 Z"
       style="fill:#000000;stroke:none;stroke-width:1.78642213;stroke-miterlimit:4;stroke-dasharray:none" />
    <path
       id="path1154-9-3"
       d="m 33.712865,7.4258686 c 0.536813,0 1.07363,0.00933 1.620386,0.01865 8.111875,0.1398689 16.174044,1.3707167 23.450873,3.5806484 3.439594,8.615932 4.277395,18.944521 4.277395,29.036812 0,10.092292 -0.917329,20.877786 -4.506039,29.596288 -7.157536,2.014114 -14.851888,3.03982 -22.884234,3.03982 -0.487111,0 -0.974221,-0.0094 -1.461331,-0.01865 H 34.040918 C 25.909161,72.539569 17.846991,71.308722 10.580105,69.089466 7.1504515,60.492184 6.3123238,50.163288 6.3123238,40.061979 c 0,-10.101312 0.9176558,-20.868461 4.4864832,-29.586965 6.690308,-1.8742454 14.046665,-2.918601 21.472608,-3.0398208 0.47717,-0.00933 0.964281,-0.00933 1.44145,-0.00933 m 0,-0.9324602 c -0.487111,0 -0.974221,0 -1.46133,0.00933 C 24.785826,6.6239527 17.270413,7.6869575 10.510517,9.5798521 L 10.043289,9.7103965 9.8643508,10.139328 C 6.2557594,18.951079 5.3411853,29.65402 5.3411853,40.061979 c 0,10.407958 0.8350459,20.672643 4.294522,29.353849 l 0.1689973,0.419608 0.4572874,0.13987 c 7.326533,2.237904 15.537818,3.496724 23.749103,3.636593 h 0.188879 c 0.47717,0.0094 0.96428,0.01865 1.461331,0.01865 8.111875,0 15.905636,-1.035032 23.172525,-3.077119 l 0.467228,-0.130544 0.178938,-0.428932 c 3.618533,-8.793101 4.543048,-19.49696 4.543048,-29.931975 0,-10.435016 -0.835047,-20.672644 -4.304463,-29.363175 l -0.168997,-0.419609 -0.457288,-0.13987 C 51.74588,7.9107479 43.534594,6.6519266 35.353133,6.5120575 34.776554,6.5027375 34.249678,6.4934085 33.712865,6.4934085 Z"
       style="fill:#000000;stroke:none;stroke-width:1.78642213;stroke-miterlimit:4;stroke-dasharray:none" />
  </g>
</svg>
