<svg id="Capa_2" xmlns="http://www.w3.org/2000/svg" xmlns:xlink="http://www.w3.org/1999/xlink" viewBox="0 0 69.02 80">
<defs >
<style >
.cls-1{fill:#c89aed;}.cls-2{fill:#fff;}.cls-3{fill:#f8ffbf;}.cls-4{fill:#a88347;}.cls-5{fill:#782ab5;}.cls-6,.cls-7{stroke:#000;stroke-miterlimit:10;}.cls-6,.cls-7,.cls-8,.cls-9,.cls-10{fill:none;}.cls-11{fill:#1c46ff;}.cls-7{stroke-width:.75px;}.cls-8{stroke:#deb778;stroke-dasharray:0 0 0 4.06;stroke-linecap:round;stroke-linejoin:round;}.cls-12{fill:url(#USGS_19_Inundación_de_tierra);}.cls-13{fill:#deb778;}.cls-10{stroke:#1d1d1b;stroke-dasharray:0 0 2 2;stroke-width:.3px;}.cls-14{fill:#fcf0c5;}
</style>
<pattern id="USGS_19_Inundación_de_tierra" x="0" y="0" width="72" height="72" patternTransform="translate(-380.48 -16207) rotate(-90)" patternUnits="userSpaceOnUse" viewBox="0 0 72 72">
<g >
<rect class="cls-9" width="72" height="72">
</rect>
<g >
<line class="cls-10" x1="71" y1="71" x2="144.44" y2="71">
</line>
<line class="cls-10" x1="71" y1="67" x2="144.44" y2="67">
</line>
<line class="cls-10" x1="71" y1="63" x2="144.44" y2="63">
</line>
<line class="cls-10" x1="71" y1="59" x2="144.44" y2="59">
</line>
<line class="cls-10" x1="71" y1="55" x2="144.44" y2="55">
</line>
<line class="cls-10" x1="71" y1="51" x2="144.44" y2="51">
</line>
<line class="cls-10" x1="71" y1="47" x2="144.44" y2="47">
</line>
<line class="cls-10" x1="71" y1="43" x2="144.44" y2="43">
</line>
<line class="cls-10" x1="71" y1="39" x2="144.44" y2="39">
</line>
<line class="cls-10" x1="71" y1="35" x2="144.44" y2="35">
</line>
<line class="cls-10" x1="71" y1="31" x2="144.44" y2="31">
</line>
<line class="cls-10" x1="71" y1="27" x2="144.44" y2="27">
</line>
<line class="cls-10" x1="71" y1="23" x2="144.44" y2="23">
</line>
<line class="cls-10" x1="71" y1="19" x2="144.44" y2="19">
</line>
<line class="cls-10" x1="71" y1="15" x2="144.44" y2="15">
</line>
<line class="cls-10" x1="71" y1="11" x2="144.44" y2="11">
</line>
<line class="cls-10" x1="71" y1="7" x2="144.44" y2="7">
</line>
<line class="cls-10" x1="71" y1="3" x2="144.44" y2="3">
</line>
</g>
<g >
<line class="cls-10" x1="-1" y1="71" x2="72.44" y2="71">
</line>
<line class="cls-10" x1="-1" y1="67" x2="72.44" y2="67">
</line>
<line class="cls-10" x1="-1" y1="63" x2="72.44" y2="63">
</line>
<line class="cls-10" x1="-1" y1="59" x2="72.44" y2="59">
</line>
<line class="cls-10" x1="-1" y1="55" x2="72.44" y2="55">
</line>
<line class="cls-10" x1="-1" y1="51" x2="72.44" y2="51">
</line>
<line class="cls-10" x1="-1" y1="47" x2="72.44" y2="47">
</line>
<line class="cls-10" x1="-1" y1="43" x2="72.44" y2="43">
</line>
<line class="cls-10" x1="-1" y1="39" x2="72.44" y2="39">
</line>
<line class="cls-10" x1="-1" y1="35" x2="72.44" y2="35">
</line>
<line class="cls-10" x1="-1" y1="31" x2="72.44" y2="31">
</line>
<line class="cls-10" x1="-1" y1="27" x2="72.44" y2="27">
</line>
<line class="cls-10" x1="-1" y1="23" x2="72.44" y2="23">
</line>
<line class="cls-10" x1="-1" y1="19" x2="72.44" y2="19">
</line>
<line class="cls-10" x1="-1" y1="15" x2="72.44" y2="15">
</line>
<line class="cls-10" x1="-1" y1="11" x2="72.44" y2="11">
</line>
<line class="cls-10" x1="-1" y1="7" x2="72.44" y2="7">
</line>
<line class="cls-10" x1="-1" y1="3" x2="72.44" y2="3">
</line>
<line class="cls-10" x1="1.04" y1="69" x2="74.48" y2="69">
</line>
<line class="cls-10" x1="1.04" y1="65" x2="74.48" y2="65">
</line>
<line class="cls-10" x1="1.04" y1="61" x2="74.48" y2="61">
</line>
<line class="cls-10" x1="1.04" y1="57" x2="74.48" y2="57">
</line>
<line class="cls-10" x1="1.04" y1="53" x2="74.48" y2="53">
</line>
<line class="cls-10" x1="1.04" y1="49" x2="74.48" y2="49">
</line>
<line class="cls-10" x1="1.04" y1="45" x2="74.48" y2="45">
</line>
<line class="cls-10" x1="1.04" y1="41" x2="74.48" y2="41">
</line>
<line class="cls-10" x1="1.04" y1="37" x2="74.48" y2="37">
</line>
<line class="cls-10" x1="1.04" y1="33" x2="74.48" y2="33">
</line>
<line class="cls-10" x1="1.04" y1="29" x2="74.48" y2="29">
</line>
<line class="cls-10" x1="1.04" y1="25" x2="74.48" y2="25">
</line>
<line class="cls-10" x1="1.04" y1="21" x2="74.48" y2="21">
</line>
<line class="cls-10" x1="1.04" y1="17" x2="74.48" y2="17">
</line>
<line class="cls-10" x1="1.04" y1="13" x2="74.48" y2="13">
</line>
<line class="cls-10" x1="1.04" y1="9" x2="74.48" y2="9">
</line>
<line class="cls-10" x1="1.04" y1="5" x2="74.48" y2="5">
</line>
<line class="cls-10" x1="1.04" y1="1" x2="74.48" y2="1">
</line>
</g>
<g >
<line class="cls-10" x1="-73" y1="71" x2=".44" y2="71">
</line>
<line class="cls-10" x1="-73" y1="67" x2=".44" y2="67">
</line>
<line class="cls-10" x1="-73" y1="63" x2=".44" y2="63">
</line>
<line class="cls-10" x1="-73" y1="59" x2=".44" y2="59">
</line>
<line class="cls-10" x1="-73" y1="55" x2=".44" y2="55">
</line>
<line class="cls-10" x1="-73" y1="51" x2=".44" y2="51">
</line>
<line class="cls-10" x1="-73" y1="47" x2=".44" y2="47">
</line>
<line class="cls-10" x1="-73" y1="43" x2=".44" y2="43">
</line>
<line class="cls-10" x1="-73" y1="39" x2=".44" y2="39">
</line>
<line class="cls-10" x1="-73" y1="35" x2=".44" y2="35">
</line>
<line class="cls-10" x1="-73" y1="31" x2=".44" y2="31">
</line>
<line class="cls-10" x1="-73" y1="27" x2=".44" y2="27">
</line>
<line class="cls-10" x1="-73" y1="23" x2=".44" y2="23">
</line>
<line class="cls-10" x1="-73" y1="19" x2=".44" y2="19">
</line>
<line class="cls-10" x1="-73" y1="15" x2=".44" y2="15">
</line>
<line class="cls-10" x1="-73" y1="11" x2=".44" y2="11">
</line>
<line class="cls-10" x1="-73" y1="7" x2=".44" y2="7">
</line>
<line class="cls-10" x1="-73" y1="3" x2=".44" y2="3">
</line>
<line class="cls-10" x1="-70.96" y1="69" x2="2.48" y2="69">
</line>
<line class="cls-10" x1="-70.96" y1="65" x2="2.48" y2="65">
</line>
<line class="cls-10" x1="-70.96" y1="61" x2="2.48" y2="61">
</line>
<line class="cls-10" x1="-70.96" y1="57" x2="2.48" y2="57">
</line>
<line class="cls-10" x1="-70.96" y1="53" x2="2.48" y2="53">
</line>
<line class="cls-10" x1="-70.96" y1="49" x2="2.48" y2="49">
</line>
<line class="cls-10" x1="-70.96" y1="45" x2="2.48" y2="45">
</line>
<line class="cls-10" x1="-70.96" y1="41" x2="2.48" y2="41">
</line>
<line class="cls-10" x1="-70.96" y1="37" x2="2.48" y2="37">
</line>
<line class="cls-10" x1="-70.96" y1="33" x2="2.48" y2="33">
</line>
<line class="cls-10" x1="-70.96" y1="29" x2="2.48" y2="29">
</line>
<line class="cls-10" x1="-70.96" y1="25" x2="2.48" y2="25">
</line>
<line class="cls-10" x1="-70.96" y1="21" x2="2.48" y2="21">
</line>
<line class="cls-10" x1="-70.96" y1="17" x2="2.48" y2="17">
</line>
<line class="cls-10" x1="-70.96" y1="13" x2="2.48" y2="13">
</line>
<line class="cls-10" x1="-70.96" y1="9" x2="2.48" y2="9">
</line>
<line class="cls-10" x1="-70.96" y1="5" x2="2.48" y2="5">
</line>
<line class="cls-10" x1="-70.96" y1="1" x2="2.48" y2="1">
</line>
</g>
</g>
</pattern>
</defs>

  <path
     id="path7641-4"
     style="fill:#782ab5;fill-opacity:1;stroke:#4d4d4d;stroke-width:1.62226;stop-color:#000000"
     d="M 34.900259,1.6936052 C 14.323312,9.5265586 1.6299002,23.954051 1.5689773,39.580572 V 79.197446 H 67.963672 V 39.580572 C 67.958188,23.990066 55.374427,9.5708664 34.900259,1.6936052 Z"/>
  <path
     id="path7641-7"
     style="fill:#808080;stroke:#4d4d4d;stroke-width:1.48325;stop-color:#000000"
     d="M 34.629293,5.0425238 C 15.815619,12.204258 4.1542243,25.395327 4.1542243,39.682894 V 76.559207 H 64.859448 V 39.682894 c 0,-14.254531 -11.510452,-27.438125 -30.230155,-34.6403702 z m -0.01233,3.4358455 C 51.537073,14.988239 61.941622,26.904418 61.941622,39.788613 v 33.82806 H 7.07205 v -33.82806 c 0,-12.914055 10.539857,-24.836991 27.544909,-31.3102437 z"/>
  <path
     id="path7641-7-8"
     style="fill:#808080;stroke:#4d4d4d;stroke-width:1.35027;stop-color:#000000"
     d="M 34.618314,8.2461803 C 17.491429,14.76581 6.8755673,26.7742 6.8755673,39.780777 v 33.57007 H 62.138105 v -33.57007 c 0,-12.976504 -10.478452,-24.978088 -27.519791,-31.5345967 z m -0.01123,3.1277957 c 15.403093,5.926211 24.874795,16.774013 24.874795,28.503041 V 70.672134 H 9.5317874 V 39.877017 c 0,-11.75621 9.5948786,-22.610165 25.0752986,-28.503041 z"/>
  <path
     id="path7641-7-8-0"
     style="fill:#808080;stroke:#4d4d4d;stroke-width:1.21411;stop-color:#000000"
     d="M 34.607073,11.526302 C 19.207238,17.388502 9.6618637,28.185984 9.6618637,39.880997 V 70.06591 H 59.351809 V 39.880997 c 0,-11.667973 -9.421821,-22.459335 -24.744736,-28.354695 z m -0.0101,2.812393 c 13.849868,5.328621 22.366458,15.082547 22.366458,25.628837 V 67.657315 H 12.050234 V 39.967532 c 0,-10.570731 8.627346,-20.33019 22.546743,-25.628837 z"/>


<g id="Characters">
<g >
<path class="cls-1" d="M61.32,63.45l-2.08,8.31s-7.76,2.62-22.64,3.93c-14.87,1.31-26.13-3.93-26.13-3.93l-2.84-8.21s8.85-4.26,11.48-5.68c1.72-.93,2.78-1.68,3.46-2.45,.36-.41,.61-.82,.8-1.27,.55-1.31,.66-6.67,.66-6.67,0,0-.55-.44-2.73-5.03-3.94-2.19-4.71-7.98-4.16-9.51,.55-1.53,2.95-1.75,2.95-1.75l.11-2.85c-.08-3.56-.11-10.38,3.28-13.66,2.63-2.96,13.56-2.08,13.56-2.08,0,0,8.83-.98,10.83,4.81,1.64,4.81,1.2,14,1.2,14,0,0,2.51,.11,2.95,1.31s.88,7.11-4.37,9.51c-.55,1.31-2.95,6.23-2.95,6.23,0,0,0,3.78,1.47,6.49,.61,1.13,1.46,2.06,2.68,2.48,3.61,.99,12.47,6.02,12.47,6.02Z">
</path>
<path class="cls-2" d="M34.6,50.87V23.2l11.16-2.21s3.14,4.98,3.41,7.57c-.09,7.29-.28,15.59-4.98,20.48-1.48,1.54-2.68,2.93-3.73,4.09-2.06,2.3-5.87,.84-5.87-2.25Z">
</path>
<path class="cls-3" d="M61.32,63.45l-2.08,8.31s-7.76,2.62-22.64,3.93c-14.87,1.31-26.13-3.93-26.13-3.93l-2.84-8.21s8.85-4.26,11.48-5.68c1.72-.93,2.78-1.68,3.46-2.45,.51,.56,3.82,4.1,8.5,5.57,2.07,6.41,2.64,7.82,2.64,7.82l1.51-.19,2.45-7.82s5.86-1.03,8.5-5.85c.61,1.13,1.46,2.06,2.68,2.48,3.61,.99,12.47,6.02,12.47,6.02Z">
</path>
<path class="cls-4" d="M19.93,57.84s1.22,11.08,5.73,15.87c-11.45,.47-15.77-2.25-15.77-2.25l-1.97-8.64s7.89-3.47,12.02-4.98Z">
</path>
<path class="cls-4" d="M49.04,58s-3.3,12.27-6.6,16.7c11.44-1.55,16.91-3.71,16.91-3.71l1.2-7.83s-10.58-5.26-11.51-5.15Z">
</path>
<path d="M27.26,64.39l2.27,3.67s3.9,2.68,10.13,.35c1.4-1.75,2.04-3.14,2.04-3.14,0,0,1.86,1.8,2.09,3.26-2.85,2.44-4.25,2.68-4.25,2.68l-1.75,3.67-6.63-.35-1.28-2.97s-4.36-2.5-5-3.78c1.05-1.92,2.39-3.38,2.39-3.38Z">
</path>
<path d="M37.72,56.29l-12.48,17.42-15-3.03-1.91-7.54s7.02-3.9,10.75-4.94c3.81-2.34,4.29-4.05,4.29-4.05l1-6.01s4.68,7.28,7.71,8.41,4.42,.61,5.64-.26Z">
</path>
<path class="cls-4" d="M10.28,64.23c4.07-2.32,8.17-4.62,12.52-6.39,1.61-1.3,2.05-3.77,2.23-5.8,0,0,.1,0,.1,0,.09,.55,.09,1.1,.07,1.66-.09,1.78-.49,3.85-2.08,4.95-3.06,1.45-6.37,3.11-9.48,4.41-1.09,.45-2.19,.88-3.32,1.26,0,0-.05-.09-.05-.09h0Z">
</path>
<path class="cls-2" d="M29.63,47.48s3.19,2.13,9.84,.11c-1.97,3.88-5.53,3.3-5.96,3.35s-3.4-.43-3.88-3.46Z">
</path>
<path class="cls-3" d="M31.22,36.56l-2.56-1.39-3.07,.66,2.63,2.19s2.19-.15,3-1.46Z">
</path>
<path class="cls-3" d="M38.24,36.41l2.56-1.32,2.85,.88s-2.19,1.9-2.85,2.12c-2.27-.95-2.56-1.68-2.56-1.68Z">
</path>
<path d="M20.24,29.37s.38-9.98,.92-11.67,2.23-3.76,5.45-4.38,12.29-1.15,16.89,.23c4.61,1.46,5.68,6.3,5.3,13.74-2.38-4.99-3.23-5.91-3.23-5.91,0,0-3.76,1.69-9.98,2.23-3.38,1.69-3.69,5.61-3.38,6.91-2.99-3.46-2-5.99-.15-6.99-5.3-.77-8.98-2.92-8.98-2.92l-2.84,8.75Z">
</path>
<path class="cls-11" d="M45.05,16.17s-1.44,2.4-7.31,2.6-10.58-3.66-14.14-.58c.77-3.27,5.58-3.85,9.04-3.08s5.87,3.37,12.41,1.06Z">
</path>
<path class="cls-2" d="M43.63,52.47l.55,2.41s-2.83,3.24-6.76,4.07c4.21-4,6.21-6.48,6.21-6.48Z">
</path>
<path d="M20,31.68s.91,9.33,1.56,10.76c-3.89-.78-4.6-7.71-4.54-9.07s1.83-1.92,2.98-1.68Z">
</path>
<path class="cls-1" d="M24.09,22.83c1.58,.81,3.43,1.33,5.1,1.66-.14,.26-.25,.54-.33,.82-.53,1.89,.29,4.04,2.42,6.39l1.51,1.66,3.02,3.32-1.32-4.28-.66-2.14c-.39-1.26-.05-2.85,.86-4.06,.61-.81,1.32-1.19,1.79-1.22,.4,.05,.81,.08,1.24,.08,2.78,0,5.59-1.08,7.4-1.96,.78,1.36,1.94,3.61,2.4,5.75,.05,2.2,.05,3.98-.02,5.61-.34,7.88-3.83,14.66-10.38,20.15-.7,.59-1.59,.91-2.51,.91s-1.8-.32-2.51-.91c-6.57-5.49-10.07-12.27-10.4-20.16-.06-1.31-.08-2.67-.07-4.15,.72-2.47,1.71-5.6,2.46-7.48m-.47-1.42c-1.04,2.1-2.68,7.69-2.99,8.76-.01,1.47,.01,2.92,.07,4.34,.35,8.18,3.97,15.2,10.76,20.88,.91,.76,2.03,1.14,3.15,1.14s2.24-.38,3.15-1.15c6.77-5.67,10.39-12.69,10.74-20.87,.08-1.88,.07-3.81,.02-5.77-.6-2.88-2.37-5.9-3.02-6.95-1.18,.62-4.55,2.27-7.79,2.27-.4,0-.79-.02-1.18-.08-.84,0-1.86,.58-2.64,1.62-1.1,1.45-1.5,3.39-1.02,4.95l.66,2.14-1.51-1.66c-1.89-2.08-2.63-3.91-2.2-5.45,.22-.8,.73-1.37,1.24-1.78-1.94-.28-5.23-.94-7.44-2.39h0Z">
</path>
<path class="cls-2" d="M50.01,32.01s2.02,3.41,.39,8.3c2.72-5.35,2.02-7.6,1.32-8.15s-1.71-.16-1.71-.16Z">
</path>
<path class="cls-6" d="M48.32,19.07c-.34-2.82-2.42-5.16-5.2-5.72-2.57-.52-5.46-.82-8.52-.82s-5.95,.29-8.51,.82c-2.78,.57-4.85,2.9-5.2,5.72-.25,2.04-.47,4.33-.61,6.8-.16,2.72-.21,5.65-.08,8.66,.41,9.52,5.04,16.31,10.94,21.24,2.02,1.69,4.93,1.68,6.94,0,5.89-4.93,10.51-11.72,10.92-21.24,.13-3.01,.08-5.94-.08-8.66-.14-2.47-.36-4.76-.6-6.8Z">
</path>
<path class="cls-6" d="M20.1,30.22s2.21-7.76,3.36-9.55c3.06,2.36,9.25,2.81,9.25,2.81,0,0-5.42,1.6-.32,7.21-1.02-3.32,1.6-7.27,4.21-7.21,4.08,.57,9.06-2.36,9.06-2.36,0,0,2.81,4.15,3.45,7.98">
</path>
<path class="cls-6" d="M20.29,31.91s-1.45-.79-2.68,.2,.12,9.44,3.75,10.15">
</path>
<path class="cls-6" d="M49.09,31.91s1.45-.79,2.68,.2-.12,9.44-3.75,10.15">
</path>
<path d="M22.41,32.69c1.29-1.3,3.41-1.4,5.07-1.11,1.71,.2,3.39,.52,5.05,.92,0,0-.4,1.66-.4,1.66-3.24-.6-6.38-2.32-9.72-1.46h0Z">
</path>
<path d="M31.22,36.5c-.8-.39-2.2-1.01-2.79-1.06-.86,.19-1.85,.36-2.62,.74,0,0,.03-.58,.03-.58,.84,.75,1.72,1.57,2.66,2.18,0,0-.18-.02-.18-.02,.75-.15,1.52-.26,2.2-.64-.56,.6-1.39,.88-2.15,1.15,0,0-.1-.05-.1-.05-1.27-.59-2.27-1.51-3.31-2.41,1.03-.72,2.24-.85,3.43-.99,1.16,.24,1.97,.94,2.82,1.66h0Z">
</path>
<path d="M22.74,35.45c.71,1.48,1.57,3.94,2.62,5.15,.43,.94,.56,2.41,.31,3.42-.15-1.08-.51-2.07-.87-3.06l.09,.14c-1.45-1.5-1.96-3.64-2.14-5.65h0Z">
</path>
<path d="M46.87,32.69c-3.33-.85-6.48,.86-9.72,1.46,0,0-.4-1.66-.4-1.66,1.66-.4,3.34-.72,5.05-.92,1.66-.29,3.78-.19,5.07,1.11h0Z">
</path>
<path d="M38.06,36.5c.85-.72,1.66-1.42,2.82-1.66,1.2,.13,2.4,.27,3.43,.99-1.04,.9-2.04,1.82-3.31,2.41,0,0-.1,.05-.1,.05-.76-.27-1.58-.56-2.15-1.15,.68,.38,1.45,.49,2.2,.64,0,0-.18,.02-.18,.02,.94-.61,1.81-1.43,2.66-2.18,0,0,.03,.58,.03,.58-.77-.38-1.76-.55-2.62-.74-.59,.06-1.99,.67-2.79,1.06h0Z">
</path>
<path d="M46.54,35.45c-.17,2.01-.69,4.15-2.14,5.65,0,0,.09-.14,.09-.14-.36,.99-.73,1.98-.87,3.06-.25-1.01-.13-2.48,.31-3.42,1.05-1.2,1.91-3.68,2.62-5.15h0Z">
</path>
<path d="M35.81,36.83c.71,1.94,1.33,3.9,1.92,5.87l-.12-.2c.5,.37,1.01,.76,1.49,1.16-.4,.42-1.42,1.48-1.82,1.91-.22-.16-1.07-.8-1.31-.97,0,0,.59,0,.59,0-.22,.18-1.73,1.37-1.91,1.52-.17-.14-1.7-1.35-1.91-1.52,0,0,.59,0,.59,0-.24,.18-1.08,.8-1.31,.97-.18-.19-1.29-1.35-1.49-1.56,0,0-.33-.35-.33-.35,.48-.4,1-.79,1.5-1.16,0,0-.12,.2-.12,.2,.6-1.97,1.21-3.94,1.93-5.87-.32,2.04-.75,4.06-1.19,6.07l-.02,.1c-.39,.35-.77,.7-1.17,1.04,0,0,.03-.64,.03-.64l1.27,1.21-.62-.04c.22-.17,1.04-.81,1.24-.97,.16,.12,1.71,1.32,1.92,1.48,0,0-.62,0-.62,0,.21-.16,1.75-1.35,1.92-1.48,.2,.16,1.03,.8,1.24,.97,0,0-.62,.04-.62,.04l1.27-1.21,.03,.64c-.4-.34-.78-.7-1.17-1.04-.45-2.04-.89-4.09-1.22-6.17h0Z">
</path>
<path d="M41.7,47.11c-.36-.19-.71-.4-1.06-.62l.25-.08c-.86,3-11.57,3.01-12.45,0,0,0,.25,.08,.25,.08-1.35,.85-.97,.49-.07-.37,0,0,.13,.2,.13,.2,.59,.85,1.72,1.01,2.71,1.13,1.06,.13,2.17,.21,3.21,.24,1.04-.03,2.15-.11,3.21-.24,.99-.11,2.13-.28,2.71-1.13,0,0,.12-.2,.12-.2,.33,.32,.67,.64,.99,.99h0Z">
</path>
<path class="cls-7" d="M39.55,47.28s-.24,3.56-4.96,3.73c-4.72-.17-4.96-3.73-4.96-3.73">
</path>
<path d="M31.07,49.77l.88-.64,.11-.08c.41,.16,.82,.33,1.26,.41-.41,.09-.84,.1-1.27,.11l.19-.04-.88,.64-.29-.4h0Z">
</path>
<path d="M37.52,50.17l-.88-.64,.19,.04c-.43,0-.86-.02-1.27-.11,.44-.08,.85-.25,1.26-.41,0,0,.11,.08,.11,.08l.88,.64-.29,.4h0Z">
</path>
<path d="M32.58,28.66c1.94,.45,3.85,.03,5.82-.09-1.77,.8-4.11,1.21-5.82,.09h0Z">
</path>
<path class="cls-6" d="M24.07,48.08l-.51,4.6c-.28,2.53-2.12,4.43-4.47,5.41-3.71,1.55-7.87,3.42-11.1,5.35">
</path>
<path class="cls-6" d="M44.64,48.42l.51,4.26c.28,2.53,2.12,4.43,4.47,5.41,3.71,1.55,7.87,3.42,11.1,5.35">
</path>
<path class="cls-6" d="M22.69,55.07s2.34,4.56,8.32,5.73c1.48,5.18,2.59,8.01,2.59,8.01">
</path>
<path class="cls-6" d="M19.93,57.84s2.14,11.66,6.52,17.02">
</path>
<path class="cls-6" d="M24.04,70.42s1.91-6.23,6.97-9.62">
</path>
<path class="cls-6" d="M46.03,55.07s-2.34,4.56-8.32,5.73c-1.48,5.18-2.59,8.01-2.59,8.01">
</path>
<path class="cls-6" d="M48.85,57.7s-2.2,11.8-6.57,17.16">
</path>
<path class="cls-6" d="M44.67,70.42s-1.91-6.23-6.97-9.62">
</path>
<path class="cls-6" d="M37.24,75.2s2.36-2.76,2.63-6.99c-5.07,1.91-10.24,.09-10.24,.09,0,0-.13,4.05,2.58,6.81">
</path>
<path class="cls-6" d="M27.23,64.3s.8,2.45,2.76,4.23">
</path>
<path class="cls-6" d="M25,68.08s3.07,2.85,5.21,3.69">
</path>
<path class="cls-6" d="M39.73,68.44s1.6-1.82,2.18-3.47">
</path>
<path class="cls-6" d="M39.38,71.33s2.8-.93,4.49-3.2">
</path>
</g>
</g>
  <g
     id="g20645">
    <path
       style="fill:#808080;stroke:#4d4d4d;stroke-width:0.937908;stop-color:#000000;fill-opacity:1"
       d="m 9.541565,65.883425 a 5.4759801,5.4759801 0 0 1 5.47598,5.475981 5.4759801,5.4759801 0 0 1 -5.47598,5.47598 5.4759801,5.4759801 0 0 1 -5.4759806,-5.47598 5.4759801,5.4759801 0 0 1 5.4759806,-5.475981 z"/>
    <path
       style="fill:#808080;stroke:#4d4d4d;stroke-width:0.937908;stop-color:#000000;fill-opacity:1"
       d="m 59.472108,65.883425 a 5.4759801,5.4759801 0 0 1 5.47598,5.475981 5.4759801,5.4759801 0 0 1 -5.47598,5.47598 5.4759801,5.4759801 0 0 1 -5.475981,-5.47598 5.4759801,5.4759801 0 0 1 5.475981,-5.475981 z"/>
    <path
       id="path7641"
       style="fill:#808080;stroke:#4d4d4d;stroke-width:1.64416;stop-color:#000000"
       d="M 34.642578,1.1660156 C 13.787845,9.1047124 0.86132813,23.726855 0.86132812,39.564453 V 79.340489 H 68.152344 V 39.564453 c 0,-15.800978 -12.759199,-30.4148342 -33.509766,-38.3984374 z m -0.01367,3.8085938 C 53.384648,12.190722 64.917969,25.399665 64.917969,39.681641 v 26.507812 c -1.368656,-1.44106 -3.300993,-2.341797 -5.445313,-2.341797 -4.14856,0 -7.511718,3.363159 -7.511718,7.511719 0,2.347008 1.075662,4.442843 2.761718,5.820313 H 14.269531 c 1.756069,-1.422629 2.778281,-3.560307 2.783203,-5.820313 4.8e-5,-4.148627 -3.363091,-7.511766 -7.5117184,-7.511719 -2.0622939,0.0062 -4.0313164,0.860092 -5.4453125,2.361328 V 39.681641 c 0,-14.315076 11.6833059,-27.531508 30.5332029,-34.7070316 z"/>
    <circle
       style="fill:#4d4d4d;fill-opacity:1;stroke:#4d4d4d;stop-color:#000000"
       id="path16431"
       cx="9.6010828"
       cy="71.229652"
       r="5.06003" />
    <circle
       style="fill:#4d4d4d;fill-opacity:1;stroke:#4d4d4d;stop-color:#000000"
       id="path16431-3"
       cx="59.42292"
       cy="71.229652"
       r="5.06003" />
  </g>
</svg>
