<svg id="Capa_2" xmlns="http://www.w3.org/2000/svg" xmlns:xlink="http://www.w3.org/1999/xlink" viewBox="0 0 69.02 80">
<defs >
<style >
.cls-1{fill:#c89aed;}.cls-2{fill:#fff;}.cls-3{fill:#f8ffbf;}.cls-4{fill:#7b7be8;}.cls-5{fill:#a88347;}.cls-6{fill:#782ab5;}.cls-7,.cls-8,.cls-9,.cls-10{stroke:#000;stroke-miterlimit:10;}.cls-7,.cls-8,.cls-9,.cls-10,.cls-11,.cls-12,.cls-13{fill:none;}.cls-8,.cls-9,.cls-10,.cls-11{stroke-linecap:round;}.cls-9{stroke-width:.99px;}.cls-10{stroke-width:1.02px;}.cls-14{fill:#1c46ff;}.cls-11{stroke:#deb778;stroke-dasharray:0 0 0 4.06;stroke-linejoin:round;}.cls-15{fill:#deb778;}.cls-16{fill:url(#USGS_19_Inundación_de_tierra_2);}.cls-13{stroke:#1d1d1b;stroke-dasharray:0 0 2 2;stroke-width:.3px;}.cls-17{fill:#fcf0c5;}.cls-18{fill:#b83521;}
</style>
<pattern id="USGS_19_Inundación_de_tierra_2" x="0" y="0" width="72" height="72" patternTransform="translate(339.52 -16063) rotate(-90)" patternUnits="userSpaceOnUse" viewBox="0 0 72 72">
<g >
<rect class="cls-12" width="72" height="72">
</rect>
<g >
<line class="cls-13" x1="71" y1="71" x2="144.44" y2="71">
</line>
<line class="cls-13" x1="71" y1="67" x2="144.44" y2="67">
</line>
<line class="cls-13" x1="71" y1="63" x2="144.44" y2="63">
</line>
<line class="cls-13" x1="71" y1="59" x2="144.44" y2="59">
</line>
<line class="cls-13" x1="71" y1="55" x2="144.44" y2="55">
</line>
<line class="cls-13" x1="71" y1="51" x2="144.44" y2="51">
</line>
<line class="cls-13" x1="71" y1="47" x2="144.44" y2="47">
</line>
<line class="cls-13" x1="71" y1="43" x2="144.44" y2="43">
</line>
<line class="cls-13" x1="71" y1="39" x2="144.44" y2="39">
</line>
<line class="cls-13" x1="71" y1="35" x2="144.44" y2="35">
</line>
<line class="cls-13" x1="71" y1="31" x2="144.44" y2="31">
</line>
<line class="cls-13" x1="71" y1="27" x2="144.44" y2="27">
</line>
<line class="cls-13" x1="71" y1="23" x2="144.44" y2="23">
</line>
<line class="cls-13" x1="71" y1="19" x2="144.44" y2="19">
</line>
<line class="cls-13" x1="71" y1="15" x2="144.44" y2="15">
</line>
<line class="cls-13" x1="71" y1="11" x2="144.44" y2="11">
</line>
<line class="cls-13" x1="71" y1="7" x2="144.44" y2="7">
</line>
<line class="cls-13" x1="71" y1="3" x2="144.44" y2="3">
</line>
</g>
<g >
<line class="cls-13" x1="-1" y1="71" x2="72.44" y2="71">
</line>
<line class="cls-13" x1="-1" y1="67" x2="72.44" y2="67">
</line>
<line class="cls-13" x1="-1" y1="63" x2="72.44" y2="63">
</line>
<line class="cls-13" x1="-1" y1="59" x2="72.44" y2="59">
</line>
<line class="cls-13" x1="-1" y1="55" x2="72.44" y2="55">
</line>
<line class="cls-13" x1="-1" y1="51" x2="72.44" y2="51">
</line>
<line class="cls-13" x1="-1" y1="47" x2="72.44" y2="47">
</line>
<line class="cls-13" x1="-1" y1="43" x2="72.44" y2="43">
</line>
<line class="cls-13" x1="-1" y1="39" x2="72.44" y2="39">
</line>
<line class="cls-13" x1="-1" y1="35" x2="72.44" y2="35">
</line>
<line class="cls-13" x1="-1" y1="31" x2="72.44" y2="31">
</line>
<line class="cls-13" x1="-1" y1="27" x2="72.44" y2="27">
</line>
<line class="cls-13" x1="-1" y1="23" x2="72.44" y2="23">
</line>
<line class="cls-13" x1="-1" y1="19" x2="72.44" y2="19">
</line>
<line class="cls-13" x1="-1" y1="15" x2="72.44" y2="15">
</line>
<line class="cls-13" x1="-1" y1="11" x2="72.44" y2="11">
</line>
<line class="cls-13" x1="-1" y1="7" x2="72.44" y2="7">
</line>
<line class="cls-13" x1="-1" y1="3" x2="72.44" y2="3">
</line>
<line class="cls-13" x1="1.04" y1="69" x2="74.48" y2="69">
</line>
<line class="cls-13" x1="1.04" y1="65" x2="74.48" y2="65">
</line>
<line class="cls-13" x1="1.04" y1="61" x2="74.48" y2="61">
</line>
<line class="cls-13" x1="1.04" y1="57" x2="74.48" y2="57">
</line>
<line class="cls-13" x1="1.04" y1="53" x2="74.48" y2="53">
</line>
<line class="cls-13" x1="1.04" y1="49" x2="74.48" y2="49">
</line>
<line class="cls-13" x1="1.04" y1="45" x2="74.48" y2="45">
</line>
<line class="cls-13" x1="1.04" y1="41" x2="74.48" y2="41">
</line>
<line class="cls-13" x1="1.04" y1="37" x2="74.48" y2="37">
</line>
<line class="cls-13" x1="1.04" y1="33" x2="74.48" y2="33">
</line>
<line class="cls-13" x1="1.04" y1="29" x2="74.48" y2="29">
</line>
<line class="cls-13" x1="1.04" y1="25" x2="74.48" y2="25">
</line>
<line class="cls-13" x1="1.04" y1="21" x2="74.48" y2="21">
</line>
<line class="cls-13" x1="1.04" y1="17" x2="74.48" y2="17">
</line>
<line class="cls-13" x1="1.04" y1="13" x2="74.48" y2="13">
</line>
<line class="cls-13" x1="1.04" y1="9" x2="74.48" y2="9">
</line>
<line class="cls-13" x1="1.04" y1="5" x2="74.48" y2="5">
</line>
<line class="cls-13" x1="1.04" y1="1" x2="74.48" y2="1">
</line>
</g>
<g >
<line class="cls-13" x1="-73" y1="71" x2=".44" y2="71">
</line>
<line class="cls-13" x1="-73" y1="67" x2=".44" y2="67">
</line>
<line class="cls-13" x1="-73" y1="63" x2=".44" y2="63">
</line>
<line class="cls-13" x1="-73" y1="59" x2=".44" y2="59">
</line>
<line class="cls-13" x1="-73" y1="55" x2=".44" y2="55">
</line>
<line class="cls-13" x1="-73" y1="51" x2=".44" y2="51">
</line>
<line class="cls-13" x1="-73" y1="47" x2=".44" y2="47">
</line>
<line class="cls-13" x1="-73" y1="43" x2=".44" y2="43">
</line>
<line class="cls-13" x1="-73" y1="39" x2=".44" y2="39">
</line>
<line class="cls-13" x1="-73" y1="35" x2=".44" y2="35">
</line>
<line class="cls-13" x1="-73" y1="31" x2=".44" y2="31">
</line>
<line class="cls-13" x1="-73" y1="27" x2=".44" y2="27">
</line>
<line class="cls-13" x1="-73" y1="23" x2=".44" y2="23">
</line>
<line class="cls-13" x1="-73" y1="19" x2=".44" y2="19">
</line>
<line class="cls-13" x1="-73" y1="15" x2=".44" y2="15">
</line>
<line class="cls-13" x1="-73" y1="11" x2=".44" y2="11">
</line>
<line class="cls-13" x1="-73" y1="7" x2=".44" y2="7">
</line>
<line class="cls-13" x1="-73" y1="3" x2=".44" y2="3">
</line>
<line class="cls-13" x1="-70.96" y1="69" x2="2.48" y2="69">
</line>
<line class="cls-13" x1="-70.96" y1="65" x2="2.48" y2="65">
</line>
<line class="cls-13" x1="-70.96" y1="61" x2="2.48" y2="61">
</line>
<line class="cls-13" x1="-70.96" y1="57" x2="2.48" y2="57">
</line>
<line class="cls-13" x1="-70.96" y1="53" x2="2.48" y2="53">
</line>
<line class="cls-13" x1="-70.96" y1="49" x2="2.48" y2="49">
</line>
<line class="cls-13" x1="-70.96" y1="45" x2="2.48" y2="45">
</line>
<line class="cls-13" x1="-70.96" y1="41" x2="2.48" y2="41">
</line>
<line class="cls-13" x1="-70.96" y1="37" x2="2.48" y2="37">
</line>
<line class="cls-13" x1="-70.96" y1="33" x2="2.48" y2="33">
</line>
<line class="cls-13" x1="-70.96" y1="29" x2="2.48" y2="29">
</line>
<line class="cls-13" x1="-70.96" y1="25" x2="2.48" y2="25">
</line>
<line class="cls-13" x1="-70.96" y1="21" x2="2.48" y2="21">
</line>
<line class="cls-13" x1="-70.96" y1="17" x2="2.48" y2="17">
</line>
<line class="cls-13" x1="-70.96" y1="13" x2="2.48" y2="13">
</line>
<line class="cls-13" x1="-70.96" y1="9" x2="2.48" y2="9">
</line>
<line class="cls-13" x1="-70.96" y1="5" x2="2.48" y2="5">
</line>
<line class="cls-13" x1="-70.96" y1="1" x2="2.48" y2="1">
</line>
</g>
</g>
</pattern>
</defs>

<g id="Characters">
<g >
<path class="cls-2" d="M58.78,72.35c-21.17,7.29-47.04,.23-47.04,.23,0,0-2-1.52-3.89-8.11,2.71-2.12,14.71-5.65,14.71-5.65l.23-4.46-2.35-1.77s-1.53-2.59-2.94-12.35c-.08-.11-.15-.23-.22-.35-2.5-4-2.6-9.88-2.6-9.88,0,0-.71,.59-3.06,2.47,.47-11.41,11.76-13.29,11.76-13.29,0,0-2.47-2.11-7.65-.59,8.24-10.46,17.76-4.58,17.76-4.58,0,0,0-1.53-2.11-3.3,5.46-.97,10.14,4.72,10.14,4.72,.59-3.41,3.5-3.89,3.5-3.89,0,0-1.18,1.29-1.88,4.58,7.68-3.32,10.11,3.53,10.22,3.88-.07-.02-.92-.34-3.05-.11,6,4.58,6.59,12.82,6.59,12.82l-1.77-.94c-.47,6.11-5.17,11.52-5.17,11.52l-.15,.51-2.56,8.55-2.23,1.53s0,2.11,.47,5.52c5.17,1.77,15.05,5.06,15.05,5.06,0,0,.12,1.29-1.76,7.88Z">
</path>
<path d="M56.9,32.72l-1.77-.94c-.47,6.11-5.17,11.52-5.17,11.52l-.15,.51c.7-5.19-.33-14.15-.33-14.15,0,0-5.47-.3-8.51-3.42,0,3.34-3.35,5.24-3.35,5.24,0,0,.61-2.28-.38-4.25-4.48,5.85-9.57,4.71-9.57,4.71,0,0,4.41-1.52,5.62-4.1-2.51,1.44-5.47,1.29-8.59,.76-2.73-.46-6.3,.3-6.3,.3l-1.12,10.99c-2.5-4-2.6-9.88-2.6-9.88,0,0-.71,.59-3.06,2.47,.47-11.41,11.76-13.29,11.76-13.29,0,0-2.47-2.11-7.65-.59,8.24-10.46,17.76-4.58,17.76-4.58,0,0,0-1.53-2.11-3.3,5.46-.97,10.14,4.72,10.14,4.72,.59-3.41,3.5-3.89,3.5-3.89,0,0-1.18,1.29-1.88,4.58,7.68-3.32,10.11,3.53,10.22,3.88-.07-.02-.92-.34-3.05-.11,6,4.58,6.59,12.82,6.59,12.82Z">
</path>
<path class="cls-18" d="M31.77,64.09s-7.4-3.7-9.13-7.4c.15,2.11-.08,2.79-.08,2.79,0,0-10.19,1.89-14.72,4.98,1.13,8,1.66,8.83,1.66,8.83,0,0,20.75,5.43,30.19,3.77s20.38-5.21,20.38-5.21l.91-7.62s-11.21-4.98-15.49-4.83c-.43-1.81-.43-2.56-.43-2.56,0,0-1.43,4.38-8.68,6.72-1.81,3.4-2.57,6.26-2.57,6.26l-2.04-5.74Z">
</path>
<path d="M33.81,69.83l-6.94,5.18-16.92-3.43-1.56-7.89s12.98-3.85,14.17-4.21c.36-1.92,.22-5.13,.22-5.13l5.12,2.9s2.39,2.49,4.46,2.28c3.02-.19,5.4-.31,5.4-.31l2.28-2.18,4.98-2.7-9.14,10.28-2.09,5.2Z">
</path>
<path class="cls-18" d="M8.71,64.85s11.02-4.34,14.18-4.94c.17-3.33,.26-4.62,.26-4.62l1.2,.43-.59,4.81-14.41,5.86-.62-1.55Z">
</path>
<path class="cls-1" d="M33.81,30.96v28.32l-3.99-.24-3.11-2.55-6.27-3.9s-3.22-6.23-2.98-10.7,1.04-13.32,1.04-13.32c0,0,10.45,.56,13.64,.08-.08,1.36-4.47,3.29-4.47,3.29,0,0,3.19,.62,6.14-.98Z">
</path>
<path class="cls-4" d="M20.48,35.5s6.06-3.23,11.35,.95c-1.5,3-2.63,3.24-2.63,3.24l-7-.4-1.72-3.78Z">
</path>
<path class="cls-3" d="M29.21,39.68s-1.58-1.51-3.16-1.8c-3.02,.58-4.1,1.37-4.1,1.37,0,0,3.95,3.59,7.26,.43Z">
</path>
<path class="cls-4" d="M47.18,35.5s-6.06-3.23-11.35,.95c1.5,3,2.61,3.43,2.61,3.43l7.01-.59,1.72-3.78Z">
</path>
<path class="cls-3" d="M38,39.68s1.58-1.51,3.16-1.8c3.02,.58,4.1,1.37,4.1,1.37,0,0-3.95,3.59-7.26,.43Z">
</path>
<path class="cls-2" d="M21.82,42.48s3.99,1.96,7.4-.33c-2.75,4.32-4.71,5.11-7.4,.33Z">
</path>
<path class="cls-14" d="M17.21,23.82s4.8-3.72,13.8-5.29c-4.5,3.43,2.15,.98,2.15,.98,0,0,.2,5.77,6.75,1.76,5.09,4.11,11.94,3.23,9.79-.59,4.01,2.64,5.87,7.73,5.87,7.73,0,0-12.63-1.86-15.95-5.87-4.8,3.13-8.32,.2-7.93-1.27-6.17,3.52-4.7-.1-4.01-.59-5.68,2.74-10.47,3.13-10.47,3.13Z">
</path>
<path class="cls-1" d="M41.98,28.76c1.93,1.21,4.06,1.97,6.1,2.15,.52,3.81,1.32,13.38-2.3,20.76-1.5,1.23-2.89,2.13-4,2.76,0-.36-.03-.71-.05-1.04-.02-.27-.04-.52-.04-.77-.02-.67-.57-1.19-1.25-1.19-.66,0-1.2,.49-1.24,1.11-.04,.34-.05,.69-.06,1.03-.02,.57-.05,1.11-.2,1.58-.18,.65-.55,1.25-1.08,1.72-.82,.79-1.85,.96-3.15,.96-.36,0-.72-.01-1.09-.02h-.09s-1.45,0-1.45,0h-.11c-.98,0-1.9-.4-2.64-1.15-.97-.91-1.04-2.26-1.11-3.83l-.02-.5c-.02-.68-.57-1.22-1.26-1.22s-1.24,.53-1.26,1.18l-.09,1.39c-.02,.2-.03,.39-.04,.59-1.03-.6-2.29-1.44-3.71-2.6-3.92-7.98-2.66-18.51-2.19-21.49,.6-.08,1.23-.12,1.87-.12,.18,0,.36,0,.57,.01,.94,0,1.92,.1,2.97,.2,.36,.03,.72,.07,1.08,.1-.06,.02-.11,.05-.17,.07l-.07,.03-.06,.04c-.35,.23-.59,.6-.67,1.02-.08,.41,.01,.83,.26,1.17l.03,.04,.03,.03c.44,.52,1.05,.66,1.42,.74l.14,.03h.03s.03,.01,.03,.01c.64,.13,1.3,.19,1.96,.19,1.99,0,3.91-.56,5.55-1.62,.27-.17,.53-.35,.78-.55l-.05,.08-1.34,2.13,2.44-.63,.26-.07c.99-.25,2.22-.56,3.13-1.27,1.04-.69,1.78-1.78,2.12-3.06m-.79-1.78c.03,1.54-.58,3.16-1.92,4.03-.82,.65-2.05,.92-3.06,1.18l.7-1.11c.55-.9,.64-2.03,.34-3.04-.81,1.27-1.85,2.42-3.15,3.24-1.49,.96-3.25,1.46-5.02,1.46-.59,0-1.19-.06-1.77-.17-.31-.08-.77-.13-1.04-.45-.19-.27-.09-.62,.15-.78,.85-.4,2.11-.59,3.11-1.06,.75-.31,1.48-.7,2.12-1.19-.99,.29-2.04,.39-3.1,.39-2.16,0-4.4-.41-6.43-.42-.2,0-.39-.01-.58-.01-.96,0-1.87,.08-2.74,.25-.22,1.2-2.38,13.79,2.26,23,2.54,2.1,4.6,3.21,5.75,3.74-.22-.74-.29-1.52-.21-2.26l.09-1.43c0-.17,.13-.25,.26-.25s.26,.08,.26,.25c.1,1.83,.05,3.72,1.45,5.03,.88,.91,2.06,1.42,3.32,1.42,.05,0,.09,0,.14,0h1.43c.4,0,.79,.02,1.17,.02,1.42,0,2.74-.18,3.84-1.24,.64-.57,1.12-1.34,1.35-2.18,.27-.83,.19-1.81,.29-2.77,0-.14,.13-.21,.24-.21,.12,0,.24,.08,.25,.22,.02,.89,.2,2.06,0,2.94-.05,.22-.11,.43-.18,.63,1.31-.61,3.56-1.83,6.07-3.91,4.19-8.33,2.83-19.41,2.37-22.35-2.77-.02-5.58-1.24-7.76-2.97h0Z">
</path>
<path d="M52.09,29.39c-4.09,1.57-8.93-.4-11.95-3.34,0,0,.86-.47,.86-.47,.53,1.86,.02,4.28-1.73,5.42-.82,.65-2.05,.92-3.06,1.18,0,0,.7-1.11,.7-1.11,.72-1.17,.65-2.73-.03-3.92,0,0,.91,0,.91,0-.87,1.62-2.09,3.12-3.69,4.13-1.99,1.27-4.47,1.74-6.78,1.29-.32-.08-.78-.14-1.04-.46-.19-.26-.09-.62,.14-.78,.86-.39,2.11-.59,3.11-1.06,1.57-.64,3.04-1.63,3.73-3.07l.78,.67c-3.41,2.69-8.04,1.21-11.92,1.18-4.74-.14-8.43,1.55-10.86,5.68-1.39-8.86,3.7-14.76,12.37-16.03,0,0-.29,1.02-.29,1.02-2.89-1.42-6.52-.55-9.55,.05,4-7.21,12.72-9.96,20.11-6.27,0,0-.81,.75-.81,.75-.82-2.19-3.43-3-5.45-3.64,0,0,2.2-.43,2.2-.43,4.6-1.03,9.36,1.4,11.8,5.34,0,0-1.13,.2-1.13,.2,.44-2.04,1.81-3.8,3.72-4.65,1.14-.58,3.11-.74,4.34-1.03,0,0-1.94,1.55-1.94,1.55-1.49,1.16-2.89,2.89-3.02,4.81,0,0-.93-.51-.93-.51,4.9-2.82,9.84-1.1,11.34,4.47,0,0,.49,1.61,.49,1.61l-1.39-.96c-.81-.57-1.99-.64-2.95-.43l.15-1.05c2.31,1.52,4.04,3.63,5.3,6.04,1.47,2.79,2,5.94,2.04,9.05-.73-.68-1.75-1.67-2.49-2.33,0,0-.5-.44-.5-.44l.86-.38c-.48,4.62-2.28,9.11-5.4,12.57,0,0-.74-.68-.74-.68,3.18-3.54,4.88-8.31,5.16-13.02,.53,.47,1.33,1.14,1.84,1.63,0,0,1.03,.96,1.03,.96l-.91,.42c-.19-5.48-3.1-10.92-7.96-13.57,1.71-.47,3.68-.82,5.23,.28,0,0-.89,.65-.89,.65-.32-1.02-.76-2-1.36-2.82-2.16-3.2-6.43-2.25-9.18-.39,0,0,.02-1.05,.02-1.05,.11-2.43,1.68-4.39,3.5-5.83,0,0,.47,1.09,.47,1.09-2.23,.28-4.18,2.01-4.64,4.21,0,0-.32,1.49-.32,1.49-2.14-4.12-6.54-7.14-11.31-6.07,0,0,.06-1.16,.06-1.16,1.77,.64,3.33,1.83,4.06,3.61,0,0,.57,1.4,.57,1.4-6.7-3.82-14.88-2.6-19.25,4.02,0,0-.6-.88-.6-.88,3.01-.54,6.29-1.1,9.13,.46,0,0,1.28,.82,1.28,.82l-1.57,.2c-6.94,.86-12.42,5.93-11.52,13.28,0,0-1-.27-1-.27,3.93-5.82,10.86-5.03,16.89-4.45,1.98,.15,3.72-.22,5.33-1.4,0,0,1.65-1.1,1.65-1.1l-.87,1.77c-.88,1.81-2.61,2.9-4.29,3.59-.96,.41-1.96,.66-2.93,.95-.02,0-.02,.01,.03-.02,.09-.07,.17-.19,.18-.31,.04-.12-.07-.43-.2-.48,.1,.05,.33,.11,.51,.15,4.29,.88,8.11-1.88,9.8-5.72,1.13,1.72,1.62,4,.42,5.84,0,0-.53-.79-.53-.79,2.25-.52,3.47-2.81,2.79-5.05,0,0-.42-1.78-.42-1.78l1.28,1.32c2.87,2.93,7.21,3.96,11.22,4.04h0Z">
</path>
<path class="cls-7" d="M17.77,41.15s-3.77-5.83-3.09-11.07">
</path>
<path class="cls-7" d="M18.33,29.1s-2.72,13.61,2.33,23.52c4.08,3.4,6.97,4.3,6.97,4.3">
</path>
<path class="cls-7" d="M49.31,29.1s2.72,13.61-2.33,23.52c-4.08,3.4-7.48,4.57-7.48,4.57">
</path>
<path d="M40.69,52.64c.02,.89,.2,2.06,0,2.94-.78,3.54-3.91,4.59-7.14,4.34-2.04,.09-4.24-.17-5.62-1.86-1.05-1.15-1.49-2.78-1.32-4.28,0,0,.08-1.43,.08-1.43,.02-.32,.51-.32,.53,0,.1,1.83,.05,3.72,1.45,5.04,.91,.93,2.15,1.45,3.46,1.41,0,0,1.43-.01,1.43-.01,1.86,.06,3.62,.13,5.01-1.2,.64-.58,1.12-1.34,1.35-2.19,.27-.82,.19-1.81,.29-2.76,.02-.29,.48-.28,.49,.01h0Z">
</path>
<path d="M39.27,50.46c-1.96-.22-3.84,.11-5.69,.67-1.85-.57-3.73-.89-5.69-.67,1.74-1.02,3.95-.87,5.84-.33,0,0-.29,0-.29,0,1.88-.53,4.09-.69,5.83,.33h0Z">
</path>
<path d="M35.97,44.02c.5,.13,1.41,.63,1.08,1.38-.85,.97-2.09,1.76-3.4,1.82-1.31-.07-2.55-.85-3.4-1.83-.32-.75,.59-1.25,1.08-1.37-.31,.29-.64,.66-.64,.96-.08,.12,.42,.33,.76,.51,.61,.25,1.52,.79,2.19,.74,.67,.06,1.59-.48,2.19-.73,.34-.18,.84-.39,.77-.51,0-.3-.33-.67-.64-.96h0Z">
</path>
<path d="M31.2,36.59c-2.51-1.3-5.46-2.09-8.29-1.65-.97,.11-1.9,.44-2.85,.77,.83-.56,1.73-1.07,2.72-1.34,1.97-.63,4.16-.53,6.14,.04,1,.32,1.94,.72,2.83,1.33,.23,.16,.28,.47,.13,.69-.15,.22-.45,.28-.68,.14h0Z">
</path>
<path d="M35.88,35.76c3.44-2.31,8.3-2.49,11.7-.04-1.85-.71-3.78-1.07-5.73-.83-1.89,.2-3.78,.85-5.45,1.72-.53,.29-1.02-.52-.51-.85h0Z">
</path>
<path d="M28.86,39.26c-2.07-1.22-4.97-1.6-6.76,.19,0,0-.01-.39-.01-.39,1.22,1.12,2.96,1.7,4.62,1.53,.72-.04,1.43-.28,2.12-.49-.18,.9-.77,1.64-1.68,1.85-.67,.18-1.35,.18-2.01,.08,1.16,.03,2.84-.29,3.06-1.61,0,0,.33,.29,.33,.29-1.14,.42-2.39,.62-3.6,.4-1.32-.23-2.53-.86-3.47-1.84,1.88-2.12,5.52-2.05,7.4,0h0Z">
</path>
<path d="M38.36,39.26c1.88-2.04,5.53-2.11,7.4,0-1.35,1.42-3.37,2.13-5.3,1.88-.61-.06-1.2-.24-1.77-.44,0,0,.33-.3,.33-.29,.22,1.32,1.9,1.64,3.06,1.61-.66,.1-1.34,.1-2.01-.08-.91-.21-1.5-.94-1.68-1.85,.69,.21,1.4,.45,2.12,.49,1.66,.17,3.4-.41,4.62-1.53,0,0-.01,.39-.01,.39-1.8-1.79-4.69-1.41-6.76-.19h0Z">
</path>
<path d="M37.72,51.75c.29,2.05-2.66,1.53-3.95,1.67-1.14-.11-2.56,.15-3.56-.49-.36-.31-.51-.79-.39-1.18,.11,.38,.37,.66,.66,.77,.14,.06,.29,.08,.43,.07,.94-.11,1.91-.16,2.86-.17,.77,0,1.54,.03,2.31,.11,.71,.14,1.4,.06,1.64-.78h0Z">
</path>
<path class="cls-9" d="M45.22,54.35s-.34,5.58,.25,9.09c-1.6,3.6-6.31,6.61-11.52,6.61-5.21,0-9.92-3-11.52-6.61,.59-3.52,.25-9.09,.25-9.09">
</path>
<g >
<path class="cls-10" d="M22.8,56.64s1.61,4.66,8.89,7.23c1.35,3,2.26,6.13,2.26,6.13">
</path>
<path class="cls-10" d="M45.1,56.64s-1.61,4.66-8.89,7.23c-1.35,3-2.26,6.13-2.26,6.13">
</path>
</g>
<path class="cls-8" d="M22.71,59.32s-9.52,2.12-15.1,5.11">
</path>
<path class="cls-8" d="M45.3,59.37s9.33,2.07,14.91,5.06">
</path>
<path d="M34.32,28.28s-7.1,5.32-18.56,4.71c1.98-4.71,2.66-5.6,2.66-5.6,0,0,11.67-.89,15.9,.89Z">
</path>
</g>
</g>
 <g
     id="g2850">
    <g
       id="g2837">
      <path
         id="path1951"
         d="M 0.056640625 0.04296875 L 0.056640625 79.943359 L 69.308594 79.943359 L 69.308594 0.04296875 L 0.056640625 0.04296875 z M 33.615234 3.5957031 C 34.206332 3.5957038 34.786991 3.6051034 35.421875 3.6152344 C 44.430653 3.7671809 53.471255 5.1336733 61.560547 7.5546875 L 62.064453 7.7070312 L 62.25 8.1640625 C 66.070247 17.605006 66.990234 28.726438 66.990234 40.0625 C 66.990234 51.398562 65.972723 63.025755 61.988281 72.578125 L 61.791016 73.044922 L 61.275391 73.185547 C 53.273669 75.403966 44.691921 76.529297 35.759766 76.529297 C 35.212453 76.529297 34.675812 76.519896 34.150391 76.509766 L 33.943359 76.509766 C 24.901742 76.357819 15.860367 74.989738 7.7929688 72.558594 L 7.2890625 72.40625 L 7.1035156 71.951172 C 3.2942144 62.520359 2.375 51.369168 2.375 40.0625 C 2.375 28.755832 3.3819737 17.127318 7.3554688 7.5546875 L 7.5527344 7.0898438 L 8.0664062 6.9472656 C 15.509867 4.890923 23.785212 3.7371557 32.005859 3.6054688 C 32.542226 3.5953387 33.078867 3.5957031 33.615234 3.5957031 z "
         style="opacity:1;vector-effect:none;fill:#ffffff;fill-opacity:1;fill-rule:nonzero;stroke:none;stroke-width:1.95200002;stroke-linecap:butt;stroke-linejoin:miter;stroke-miterlimit:4;stroke-dasharray:none;stroke-dashoffset:0;stroke-opacity:1" />
    </g>
    <path
       id="path1154-8-2"
       d="m 33.675163,6.6112954 c 0.557696,0 1.115392,0.00956 1.683415,0.019115 8.427403,0.14336 16.803167,1.4049288 24.363042,3.6700176 3.573384,8.830981 4.443772,19.417362 4.443772,29.761551 0,10.344189 -0.95301,21.39888 -4.68131,30.334991 -7.435942,2.064385 -15.429581,3.274388 -23.774362,3.274388 -0.506058,0 -1.012115,-0.0096 -1.518172,-0.01911 h -0.17557 C 25.56792,73.508883 17.192156,72.088619 9.6426089,69.813973 6.0795528,61.002107 5.2088244,50.415411 5.2088244,40.061979 c 0,-10.353432 0.95335,-21.389323 4.6609939,-30.325434 C 16.820359,7.8155201 24.462856,6.7450981 32.177647,6.6208528 c 0.49573,-0.00956 1.001787,-0.00956 1.497516,-0.00956 m 0,-0.9557337 c -0.506057,0 -1.012114,0 -1.518171,0.00956 C 24.40089,5.7893644 16.593149,6.8789009 9.570315,8.8190405 L 9.0849131,8.9528432 8.8990146,9.3924808 C 5.1500599,18.424166 4.1999116,29.394246 4.1999116,40.061979 c 0,10.667733 0.8675267,21.188618 4.461566,30.0865 l 0.1755708,0.430081 0.4750741,0.14336 c 7.6115135,2.293761 16.1421925,3.584001 24.6728715,3.727361 h 0.196227 c 0.495729,0.0096 1.001786,0.01911 1.518171,0.01911 8.427403,0 16.524318,-1.060864 24.073866,-3.153921 l 0.485403,-0.133802 0.185898,-0.439639 c 3.759282,-9.01257 4.719759,-19.983589 4.719759,-30.679055 0,-10.695466 -0.867528,-21.188618 -4.471894,-30.0960578 L 60.516853,9.5358409 60.041779,9.3924808 C 52.409609,7.108277 43.87893,5.8180364 35.379234,5.6746763 34.780227,5.6651187 34.232859,5.6555621 33.675163,5.6555615 Z"
       style="fill:#ff0000;stroke:#ffffff;stroke-width:1.84341729;stroke-miterlimit:4;stroke-dasharray:none" />
    <path
       id="path1154"
       d="m 33.614853,4.6077955 c 0.591098,0 1.182197,0.01013 1.784241,0.02026 8.932155,0.1519464 17.809578,1.4890758 25.822246,3.8898304 3.787408,9.3599041 4.709928,20.5803481 4.709928,31.5440931 0,10.963745 -1.01009,22.680548 -4.961693,32.151879 -7.881312,2.18803 -16.353723,3.302304 -25.198307,3.302304 -0.536368,0 -1.072735,-0.01013 -1.609102,-0.02026 H 33.97608 C 25.022033,75.343956 16.14461,74.006827 8.1428892,71.595943 4.3664269,62.256298 3.443547,51.035521 3.443547,40.061979 c 0,-10.973542 1.01045,-22.670418 4.9401601,-32.1417498 7.3668369,-2.036083 15.4670749,-3.170617 23.6439369,-3.3023039 0.525421,-0.01013 1.061788,-0.01013 1.587209,-0.01013 m 0,-1.0129766 c -0.536367,0 -1.072734,0 -1.609101,0.01013 C 23.785105,3.7366356 15.509726,4.891429 8.0662653,6.9477716 L 7.5517907,7.0895883 7.3547579,7.5555576 C 3.3812628,17.128188 2.3742062,28.755311 2.3742062,40.061979 c 0,11.306668 0.9194864,22.457692 4.7287876,31.888505 l 0.1860865,0.45584 0.5035283,0.151947 c 8.0673984,2.431144 17.1090154,3.798662 26.1506324,3.950608 h 0.207979 c 0.525421,0.01013 1.061788,0.02026 1.609101,0.02026 8.932155,0 17.514028,-1.124404 25.51575,-3.342823 l 0.514475,-0.141816 0.197032,-0.46597 c 3.984442,-9.55237 5.002445,-21.180489 5.002445,-32.516551 0,-11.336062 -0.919487,-22.457692 -4.739734,-31.8986353 L 62.064202,7.7075041 61.560674,7.5555576 C 53.471382,5.1345434 44.429765,3.7670249 35.420987,3.6150784 c -0.634884,-0.01013 -1.215036,-0.020259 -1.806134,-0.02026 z"
       style="fill:#000000;stroke:#000000;stroke-width:1.95382714;stroke-miterlimit:4;stroke-dasharray:none" />
    <g
       id="g1810">
      <path
         d="M 6.5134911,7.7433673 C 5.6489029,6.8479453 4.058602,6.5681013 3.6272194,7.3820013 3.284151,8.0292783 3.3625296,8.5309135 4.395235,8.9201755 3.2963719,9.5187755 1.4857674,9.4447465 1.1893447,7.4467713 0.95320848,5.8551433 2.674739,4.8863543 3.1399725,5.0916244 3.0034432,3.6818714 1.8221094,4.0692802 0.95849208,3.2813384 0.34259068,2.7194046 0.23126071,-0.02624603 0.0561761,0.04378767 -0.0138576,0.21887227 2.7317937,0.33020157 3.2937267,0.94610377 4.0816685,1.8097211 3.6942598,2.9910547 5.1040128,3.1275841 4.8987425,2.6623507 5.8675315,0.94082017 7.4591593,1.1769564 9.4571345,1.4733791 9.5311625,3.2839847 8.9325635,4.3828467 8.5433008,3.3501417 8.041666,3.2717627 7.3943894,3.6148312 6.5804899,4.0462137 6.8603354,5.6365129 7.7557553,6.5011023"
         style="fill:#000000;stroke:#000000;stroke-width:0.1112323px;stroke-linecap:butt;stroke-linejoin:miter;stroke-opacity:1"
         id="path1737-3" />
      <path
         d="m 62.850738,7.7433673 c 0.864588,-0.895422 2.454889,-1.175266 2.886271,-0.361366 0.343069,0.647277 0.26469,1.148912 -0.768015,1.538174 1.098863,0.5986 2.909467,0.524571 3.20589,-1.473404 0.236136,-1.591628 -1.485394,-2.560417 -1.950628,-2.3551469 0.13653,-1.409753 1.317863,-1.0223442 2.181481,-1.810286 0.615901,-0.5619338 0.727231,-3.30758442 0.902316,-3.23755072 0.07003,0.1750846 -2.675618,0.2864139 -3.237551,0.9023161 C 65.28256,1.8097211 65.669969,2.9910547 64.260216,3.1275841 64.465486,2.6623507 63.496697,0.94082018 61.905069,1.1769564 c -1.997975,0.2964227 -2.072003,2.1070283 -1.473404,3.2058903 0.389263,-1.032705 0.890898,-1.111084 1.538174,-0.7680155 0.8139,0.4313825 0.534054,2.0216817 -0.361366,2.8862711"
         style="fill:#000000;stroke:#000000;stroke-width:0.1112323px;stroke-linecap:butt;stroke-linejoin:miter;stroke-opacity:1"
         id="path1737-3-5" />
      <path
         d="m 62.850738,72.244244 c 0.864588,0.895422 2.454889,1.175266 2.886272,0.361366 0.343068,-0.647277 0.264689,-1.148912 -0.768016,-1.538174 1.098863,-0.5986 2.909468,-0.524571 3.20589,1.473404 0.236137,1.591628 -1.485394,2.560417 -1.950628,2.355147 0.13653,1.409753 1.317864,1.022344 2.181481,1.810286 0.615901,0.561934 0.727231,3.307584 0.902316,3.237551 0.07003,-0.175085 -2.675618,-0.286414 -3.237551,-0.902317 -0.787942,-0.863617 -0.400533,-2.04495 -1.810286,-2.18148 0.20527,0.465234 -0.763519,2.186764 -2.355146,1.950628 -1.997976,-0.296423 -2.072004,-2.107028 -1.473405,-3.20589 0.389263,1.032705 0.890898,1.111084 1.538175,0.768015 0.813899,-0.431382 0.534054,-2.021682 -0.361366,-2.886271"
         style="fill:#000000;stroke:#000000;stroke-width:0.1112323px;stroke-linecap:butt;stroke-linejoin:miter;stroke-opacity:1"
         id="path1737-3-7" />
      <path
         d="M 6.513491,72.244245 C 5.648903,73.139667 4.058602,73.419511 3.62722,72.605611 3.284151,71.958334 3.36253,71.456699 4.395235,71.067437 c -1.098863,-0.5986 -2.909467,-0.524571 -3.20589,1.473404 -0.23613599,1.591628 1.485394,2.560417 1.950628,2.355147 -0.13653,1.409753 -1.317863,1.022344 -2.18148099,1.810286 -0.615901,0.561933 -0.727231,3.307584 -0.902316,3.23755 C -0.01385399,79.76874 2.731794,79.65741 3.293727,79.041508 4.081669,78.177891 3.69426,76.996557 5.104013,76.860028 4.898743,77.325261 5.867532,79.046792 7.45916,78.810656 9.457135,78.514233 9.531163,76.703627 8.932564,75.604765 8.543301,76.63747 8.041666,76.715849 7.39439,76.372781 6.58049,75.941398 6.860336,74.351099 7.755756,73.48651"
         style="fill:#000000;stroke:#000000;stroke-width:0.1112323px;stroke-linecap:butt;stroke-linejoin:miter;stroke-opacity:1"
         id="path1737-3-5-5" />
    </g>
    <path
       id="path1154-9"
       d="m 33.712865,7.4258691 c 0.536813,0 1.07363,0.00933 1.620386,0.01865 8.111875,0.1398689 16.174044,1.3707167 23.450873,3.5806479 3.439594,8.615932 4.277395,18.944521 4.277395,29.036812 0,10.092292 -0.917329,20.877786 -4.506039,29.596289 -7.157536,2.014114 -14.851888,3.03982 -22.884234,3.03982 -0.487111,0 -0.974221,-0.0094 -1.461331,-0.01865 H 34.040918 C 25.909161,72.53957 17.846991,71.308722 10.580105,69.089467 7.1504515,60.492184 6.3123238,50.163289 6.3123238,40.061979 c 0,-10.101311 0.9176558,-20.868461 4.4864832,-29.586965 6.690308,-1.8742449 14.046665,-2.9186005 21.472608,-3.0398203 0.47717,-0.00933 0.964281,-0.00933 1.44145,-0.00933 m 0,-0.9324602 c -0.487111,0 -0.974221,0 -1.46133,0.00933 C 24.785826,6.6239532 17.270413,7.686958 10.510517,9.5798526 L 10.043289,9.710397 9.8643508,10.139328 c -3.6085914,8.811751 -4.5231655,19.514693 -4.5231655,29.922651 0,10.407958 0.8350459,20.672644 4.294522,29.353849 l 0.1689973,0.419608 0.4572874,0.13987 c 7.326533,2.237904 15.537818,3.496724 23.749103,3.636593 h 0.188879 c 0.47717,0.0094 0.96428,0.01865 1.461331,0.01865 8.111875,0 15.905636,-1.035031 23.172525,-3.077119 l 0.467228,-0.130544 0.178938,-0.428932 c 3.618533,-8.793101 4.543048,-19.496959 4.543048,-29.931975 0,-10.435016 -0.835047,-20.672644 -4.304463,-29.363174 l -0.168997,-0.419609 -0.457288,-0.13987 C 51.74588,7.9107484 43.534594,6.6519271 35.353133,6.512058 34.776554,6.502738 34.249678,6.493409 33.712865,6.493409 Z"
       style="fill:#000000;stroke:none;stroke-width:1.78642213;stroke-miterlimit:4;stroke-dasharray:none" />
    <path
       id="path1154-9-3"
       d="m 33.712865,7.4258686 c 0.536813,0 1.07363,0.00933 1.620386,0.01865 8.111875,0.1398689 16.174044,1.3707167 23.450873,3.5806484 3.439594,8.615932 4.277395,18.944521 4.277395,29.036812 0,10.092292 -0.917329,20.877786 -4.506039,29.596288 -7.157536,2.014114 -14.851888,3.03982 -22.884234,3.03982 -0.487111,0 -0.974221,-0.0094 -1.461331,-0.01865 H 34.040918 C 25.909161,72.539569 17.846991,71.308722 10.580105,69.089466 7.1504515,60.492184 6.3123238,50.163288 6.3123238,40.061979 c 0,-10.101312 0.9176558,-20.868461 4.4864832,-29.586965 6.690308,-1.8742454 14.046665,-2.918601 21.472608,-3.0398208 0.47717,-0.00933 0.964281,-0.00933 1.44145,-0.00933 m 0,-0.9324602 c -0.487111,0 -0.974221,0 -1.46133,0.00933 C 24.785826,6.6239527 17.270413,7.6869575 10.510517,9.5798521 L 10.043289,9.7103965 9.8643508,10.139328 C 6.2557594,18.951079 5.3411853,29.65402 5.3411853,40.061979 c 0,10.407958 0.8350459,20.672643 4.294522,29.353849 l 0.1689973,0.419608 0.4572874,0.13987 c 7.326533,2.237904 15.537818,3.496724 23.749103,3.636593 h 0.188879 c 0.47717,0.0094 0.96428,0.01865 1.461331,0.01865 8.111875,0 15.905636,-1.035032 23.172525,-3.077119 l 0.467228,-0.130544 0.178938,-0.428932 c 3.618533,-8.793101 4.543048,-19.49696 4.543048,-29.931975 0,-10.435016 -0.835047,-20.672644 -4.304463,-29.363175 l -0.168997,-0.419609 -0.457288,-0.13987 C 51.74588,7.9107479 43.534594,6.6519266 35.353133,6.5120575 34.776554,6.5027375 34.249678,6.4934085 33.712865,6.4934085 Z"
       style="fill:#000000;stroke:none;stroke-width:1.78642213;stroke-miterlimit:4;stroke-dasharray:none" />
  </g>
</svg>
