<svg id="Capa_2" xmlns="http://www.w3.org/2000/svg" xmlns:xlink="http://www.w3.org/1999/xlink" viewBox="0 0 69.02 80">
<defs >
<style >
.cls-1{fill:#c89aed;}.cls-2{fill:#fff;}.cls-3{fill:#f8ffbf;}.cls-4{fill:#7b7be8;}.cls-5{fill:#a88347;}.cls-6{fill:#782ab5;}.cls-7,.cls-8,.cls-9,.cls-10{stroke:#000;stroke-miterlimit:10;}.cls-7,.cls-8,.cls-9,.cls-10,.cls-11,.cls-12,.cls-13{fill:none;}.cls-8,.cls-9,.cls-10,.cls-11{stroke-linecap:round;}.cls-9{stroke-width:.99px;}.cls-10{stroke-width:1.02px;}.cls-14{fill:#1c46ff;}.cls-11{stroke:#deb778;stroke-dasharray:0 0 0 4.06;stroke-linejoin:round;}.cls-15{fill:#deb778;}.cls-16{fill:url(#USGS_19_Inundación_de_tierra_2);}.cls-13{stroke:#1d1d1b;stroke-dasharray:0 0 2 2;stroke-width:.3px;}.cls-17{fill:#fcf0c5;}.cls-18{fill:#b83521;}
</style>
<pattern id="USGS_19_Inundación_de_tierra_2" x="0" y="0" width="72" height="72" patternTransform="translate(339.52 -16063) rotate(-90)" patternUnits="userSpaceOnUse" viewBox="0 0 72 72">
<g >
<rect class="cls-12" width="72" height="72">
</rect>
<g >
<line class="cls-13" x1="71" y1="71" x2="144.44" y2="71">
</line>
<line class="cls-13" x1="71" y1="67" x2="144.44" y2="67">
</line>
<line class="cls-13" x1="71" y1="63" x2="144.44" y2="63">
</line>
<line class="cls-13" x1="71" y1="59" x2="144.44" y2="59">
</line>
<line class="cls-13" x1="71" y1="55" x2="144.44" y2="55">
</line>
<line class="cls-13" x1="71" y1="51" x2="144.44" y2="51">
</line>
<line class="cls-13" x1="71" y1="47" x2="144.44" y2="47">
</line>
<line class="cls-13" x1="71" y1="43" x2="144.44" y2="43">
</line>
<line class="cls-13" x1="71" y1="39" x2="144.44" y2="39">
</line>
<line class="cls-13" x1="71" y1="35" x2="144.44" y2="35">
</line>
<line class="cls-13" x1="71" y1="31" x2="144.44" y2="31">
</line>
<line class="cls-13" x1="71" y1="27" x2="144.44" y2="27">
</line>
<line class="cls-13" x1="71" y1="23" x2="144.44" y2="23">
</line>
<line class="cls-13" x1="71" y1="19" x2="144.44" y2="19">
</line>
<line class="cls-13" x1="71" y1="15" x2="144.44" y2="15">
</line>
<line class="cls-13" x1="71" y1="11" x2="144.44" y2="11">
</line>
<line class="cls-13" x1="71" y1="7" x2="144.44" y2="7">
</line>
<line class="cls-13" x1="71" y1="3" x2="144.44" y2="3">
</line>
</g>
<g >
<line class="cls-13" x1="-1" y1="71" x2="72.44" y2="71">
</line>
<line class="cls-13" x1="-1" y1="67" x2="72.44" y2="67">
</line>
<line class="cls-13" x1="-1" y1="63" x2="72.44" y2="63">
</line>
<line class="cls-13" x1="-1" y1="59" x2="72.44" y2="59">
</line>
<line class="cls-13" x1="-1" y1="55" x2="72.44" y2="55">
</line>
<line class="cls-13" x1="-1" y1="51" x2="72.44" y2="51">
</line>
<line class="cls-13" x1="-1" y1="47" x2="72.44" y2="47">
</line>
<line class="cls-13" x1="-1" y1="43" x2="72.44" y2="43">
</line>
<line class="cls-13" x1="-1" y1="39" x2="72.44" y2="39">
</line>
<line class="cls-13" x1="-1" y1="35" x2="72.44" y2="35">
</line>
<line class="cls-13" x1="-1" y1="31" x2="72.44" y2="31">
</line>
<line class="cls-13" x1="-1" y1="27" x2="72.44" y2="27">
</line>
<line class="cls-13" x1="-1" y1="23" x2="72.44" y2="23">
</line>
<line class="cls-13" x1="-1" y1="19" x2="72.44" y2="19">
</line>
<line class="cls-13" x1="-1" y1="15" x2="72.44" y2="15">
</line>
<line class="cls-13" x1="-1" y1="11" x2="72.44" y2="11">
</line>
<line class="cls-13" x1="-1" y1="7" x2="72.44" y2="7">
</line>
<line class="cls-13" x1="-1" y1="3" x2="72.44" y2="3">
</line>
<line class="cls-13" x1="1.04" y1="69" x2="74.48" y2="69">
</line>
<line class="cls-13" x1="1.04" y1="65" x2="74.48" y2="65">
</line>
<line class="cls-13" x1="1.04" y1="61" x2="74.48" y2="61">
</line>
<line class="cls-13" x1="1.04" y1="57" x2="74.48" y2="57">
</line>
<line class="cls-13" x1="1.04" y1="53" x2="74.48" y2="53">
</line>
<line class="cls-13" x1="1.04" y1="49" x2="74.48" y2="49">
</line>
<line class="cls-13" x1="1.04" y1="45" x2="74.48" y2="45">
</line>
<line class="cls-13" x1="1.04" y1="41" x2="74.48" y2="41">
</line>
<line class="cls-13" x1="1.04" y1="37" x2="74.48" y2="37">
</line>
<line class="cls-13" x1="1.04" y1="33" x2="74.48" y2="33">
</line>
<line class="cls-13" x1="1.04" y1="29" x2="74.48" y2="29">
</line>
<line class="cls-13" x1="1.04" y1="25" x2="74.48" y2="25">
</line>
<line class="cls-13" x1="1.04" y1="21" x2="74.48" y2="21">
</line>
<line class="cls-13" x1="1.04" y1="17" x2="74.48" y2="17">
</line>
<line class="cls-13" x1="1.04" y1="13" x2="74.48" y2="13">
</line>
<line class="cls-13" x1="1.04" y1="9" x2="74.48" y2="9">
</line>
<line class="cls-13" x1="1.04" y1="5" x2="74.48" y2="5">
</line>
<line class="cls-13" x1="1.04" y1="1" x2="74.48" y2="1">
</line>
</g>
<g >
<line class="cls-13" x1="-73" y1="71" x2=".44" y2="71">
</line>
<line class="cls-13" x1="-73" y1="67" x2=".44" y2="67">
</line>
<line class="cls-13" x1="-73" y1="63" x2=".44" y2="63">
</line>
<line class="cls-13" x1="-73" y1="59" x2=".44" y2="59">
</line>
<line class="cls-13" x1="-73" y1="55" x2=".44" y2="55">
</line>
<line class="cls-13" x1="-73" y1="51" x2=".44" y2="51">
</line>
<line class="cls-13" x1="-73" y1="47" x2=".44" y2="47">
</line>
<line class="cls-13" x1="-73" y1="43" x2=".44" y2="43">
</line>
<line class="cls-13" x1="-73" y1="39" x2=".44" y2="39">
</line>
<line class="cls-13" x1="-73" y1="35" x2=".44" y2="35">
</line>
<line class="cls-13" x1="-73" y1="31" x2=".44" y2="31">
</line>
<line class="cls-13" x1="-73" y1="27" x2=".44" y2="27">
</line>
<line class="cls-13" x1="-73" y1="23" x2=".44" y2="23">
</line>
<line class="cls-13" x1="-73" y1="19" x2=".44" y2="19">
</line>
<line class="cls-13" x1="-73" y1="15" x2=".44" y2="15">
</line>
<line class="cls-13" x1="-73" y1="11" x2=".44" y2="11">
</line>
<line class="cls-13" x1="-73" y1="7" x2=".44" y2="7">
</line>
<line class="cls-13" x1="-73" y1="3" x2=".44" y2="3">
</line>
<line class="cls-13" x1="-70.96" y1="69" x2="2.48" y2="69">
</line>
<line class="cls-13" x1="-70.96" y1="65" x2="2.48" y2="65">
</line>
<line class="cls-13" x1="-70.96" y1="61" x2="2.48" y2="61">
</line>
<line class="cls-13" x1="-70.96" y1="57" x2="2.48" y2="57">
</line>
<line class="cls-13" x1="-70.96" y1="53" x2="2.48" y2="53">
</line>
<line class="cls-13" x1="-70.96" y1="49" x2="2.48" y2="49">
</line>
<line class="cls-13" x1="-70.96" y1="45" x2="2.48" y2="45">
</line>
<line class="cls-13" x1="-70.96" y1="41" x2="2.48" y2="41">
</line>
<line class="cls-13" x1="-70.96" y1="37" x2="2.48" y2="37">
</line>
<line class="cls-13" x1="-70.96" y1="33" x2="2.48" y2="33">
</line>
<line class="cls-13" x1="-70.96" y1="29" x2="2.48" y2="29">
</line>
<line class="cls-13" x1="-70.96" y1="25" x2="2.48" y2="25">
</line>
<line class="cls-13" x1="-70.96" y1="21" x2="2.48" y2="21">
</line>
<line class="cls-13" x1="-70.96" y1="17" x2="2.48" y2="17">
</line>
<line class="cls-13" x1="-70.96" y1="13" x2="2.48" y2="13">
</line>
<line class="cls-13" x1="-70.96" y1="9" x2="2.48" y2="9">
</line>
<line class="cls-13" x1="-70.96" y1="5" x2="2.48" y2="5">
</line>
<line class="cls-13" x1="-70.96" y1="1" x2="2.48" y2="1">
</line>
</g>
</g>
</pattern>
</defs>
  <path
     style="opacity:1;vector-effect:none;fill:#cccccc;fill-opacity:1;fill-rule:nonzero;stroke:none;stroke-width:4.49546146;stroke-linecap:butt;stroke-linejoin:miter;stroke-miterlimit:4;stroke-dasharray:none;stroke-dashoffset:0;stroke-opacity:1"
     d="M -0.08007812,0.36132812 V 80.361328 H 68.919922 V 0.36132812 Z"
     id="rect4304"/>

<g id="Characters">
<g >
<path class="cls-2" d="M58.78,72.35c-21.17,7.29-47.04,.23-47.04,.23,0,0-2-1.52-3.89-8.11,2.71-2.12,14.71-5.65,14.71-5.65l.23-4.46-2.35-1.77s-1.53-2.59-2.94-12.35c-.08-.11-.15-.23-.22-.35-2.5-4-2.6-9.88-2.6-9.88,0,0-.71,.59-3.06,2.47,.47-11.41,11.76-13.29,11.76-13.29,0,0-2.47-2.11-7.65-.59,8.24-10.46,17.76-4.58,17.76-4.58,0,0,0-1.53-2.11-3.3,5.46-.97,10.14,4.72,10.14,4.72,.59-3.41,3.5-3.89,3.5-3.89,0,0-1.18,1.29-1.88,4.58,7.68-3.32,10.11,3.53,10.22,3.88-.07-.02-.92-.34-3.05-.11,6,4.58,6.59,12.82,6.59,12.82l-1.77-.94c-.47,6.11-5.17,11.52-5.17,11.52l-.15,.51-2.56,8.55-2.23,1.53s0,2.11,.47,5.52c5.17,1.77,15.05,5.06,15.05,5.06,0,0,.12,1.29-1.76,7.88Z">
</path>
<path d="M56.9,32.72l-1.77-.94c-.47,6.11-5.17,11.52-5.17,11.52l-.15,.51c.7-5.19-.33-14.15-.33-14.15,0,0-5.47-.3-8.51-3.42,0,3.34-3.35,5.24-3.35,5.24,0,0,.61-2.28-.38-4.25-4.48,5.85-9.57,4.71-9.57,4.71,0,0,4.41-1.52,5.62-4.1-2.51,1.44-5.47,1.29-8.59,.76-2.73-.46-6.3,.3-6.3,.3l-1.12,10.99c-2.5-4-2.6-9.88-2.6-9.88,0,0-.71,.59-3.06,2.47,.47-11.41,11.76-13.29,11.76-13.29,0,0-2.47-2.11-7.65-.59,8.24-10.46,17.76-4.58,17.76-4.58,0,0,0-1.53-2.11-3.3,5.46-.97,10.14,4.72,10.14,4.72,.59-3.41,3.5-3.89,3.5-3.89,0,0-1.18,1.29-1.88,4.58,7.68-3.32,10.11,3.53,10.22,3.88-.07-.02-.92-.34-3.05-.11,6,4.58,6.59,12.82,6.59,12.82Z">
</path>
<path class="cls-18" d="M31.77,64.09s-7.4-3.7-9.13-7.4c.15,2.11-.08,2.79-.08,2.79,0,0-10.19,1.89-14.72,4.98,1.13,8,1.66,8.83,1.66,8.83,0,0,20.75,5.43,30.19,3.77s20.38-5.21,20.38-5.21l.91-7.62s-11.21-4.98-15.49-4.83c-.43-1.81-.43-2.56-.43-2.56,0,0-1.43,4.38-8.68,6.72-1.81,3.4-2.57,6.26-2.57,6.26l-2.04-5.74Z">
</path>
<path d="M33.81,69.83l-6.94,5.18-16.92-3.43-1.56-7.89s12.98-3.85,14.17-4.21c.36-1.92,.22-5.13,.22-5.13l5.12,2.9s2.39,2.49,4.46,2.28c3.02-.19,5.4-.31,5.4-.31l2.28-2.18,4.98-2.7-9.14,10.28-2.09,5.2Z">
</path>
<path class="cls-18" d="M8.71,64.85s11.02-4.34,14.18-4.94c.17-3.33,.26-4.62,.26-4.62l1.2,.43-.59,4.81-14.41,5.86-.62-1.55Z">
</path>
<path class="cls-1" d="M33.81,30.96v28.32l-3.99-.24-3.11-2.55-6.27-3.9s-3.22-6.23-2.98-10.7,1.04-13.32,1.04-13.32c0,0,10.45,.56,13.64,.08-.08,1.36-4.47,3.29-4.47,3.29,0,0,3.19,.62,6.14-.98Z">
</path>
<path class="cls-4" d="M20.48,35.5s6.06-3.23,11.35,.95c-1.5,3-2.63,3.24-2.63,3.24l-7-.4-1.72-3.78Z">
</path>
<path class="cls-3" d="M29.21,39.68s-1.58-1.51-3.16-1.8c-3.02,.58-4.1,1.37-4.1,1.37,0,0,3.95,3.59,7.26,.43Z">
</path>
<path class="cls-4" d="M47.18,35.5s-6.06-3.23-11.35,.95c1.5,3,2.61,3.43,2.61,3.43l7.01-.59,1.72-3.78Z">
</path>
<path class="cls-3" d="M38,39.68s1.58-1.51,3.16-1.8c3.02,.58,4.1,1.37,4.1,1.37,0,0-3.95,3.59-7.26,.43Z">
</path>
<path class="cls-2" d="M21.82,42.48s3.99,1.96,7.4-.33c-2.75,4.32-4.71,5.11-7.4,.33Z">
</path>
<path class="cls-14" d="M17.21,23.82s4.8-3.72,13.8-5.29c-4.5,3.43,2.15,.98,2.15,.98,0,0,.2,5.77,6.75,1.76,5.09,4.11,11.94,3.23,9.79-.59,4.01,2.64,5.87,7.73,5.87,7.73,0,0-12.63-1.86-15.95-5.87-4.8,3.13-8.32,.2-7.93-1.27-6.17,3.52-4.7-.1-4.01-.59-5.68,2.74-10.47,3.13-10.47,3.13Z">
</path>
<path class="cls-1" d="M41.98,28.76c1.93,1.21,4.06,1.97,6.1,2.15,.52,3.81,1.32,13.38-2.3,20.76-1.5,1.23-2.89,2.13-4,2.76,0-.36-.03-.71-.05-1.04-.02-.27-.04-.52-.04-.77-.02-.67-.57-1.19-1.25-1.19-.66,0-1.2,.49-1.24,1.11-.04,.34-.05,.69-.06,1.03-.02,.57-.05,1.11-.2,1.58-.18,.65-.55,1.25-1.08,1.72-.82,.79-1.85,.96-3.15,.96-.36,0-.72-.01-1.09-.02h-.09s-1.45,0-1.45,0h-.11c-.98,0-1.9-.4-2.64-1.15-.97-.91-1.04-2.26-1.11-3.83l-.02-.5c-.02-.68-.57-1.22-1.26-1.22s-1.24,.53-1.26,1.18l-.09,1.39c-.02,.2-.03,.39-.04,.59-1.03-.6-2.29-1.44-3.71-2.6-3.92-7.98-2.66-18.51-2.19-21.49,.6-.08,1.23-.12,1.87-.12,.18,0,.36,0,.57,.01,.94,0,1.92,.1,2.97,.2,.36,.03,.72,.07,1.08,.1-.06,.02-.11,.05-.17,.07l-.07,.03-.06,.04c-.35,.23-.59,.6-.67,1.02-.08,.41,.01,.83,.26,1.17l.03,.04,.03,.03c.44,.52,1.05,.66,1.42,.74l.14,.03h.03s.03,.01,.03,.01c.64,.13,1.3,.19,1.96,.19,1.99,0,3.91-.56,5.55-1.62,.27-.17,.53-.35,.78-.55l-.05,.08-1.34,2.13,2.44-.63,.26-.07c.99-.25,2.22-.56,3.13-1.27,1.04-.69,1.78-1.78,2.12-3.06m-.79-1.78c.03,1.54-.58,3.16-1.92,4.03-.82,.65-2.05,.92-3.06,1.18l.7-1.11c.55-.9,.64-2.03,.34-3.04-.81,1.27-1.85,2.42-3.15,3.24-1.49,.96-3.25,1.46-5.02,1.46-.59,0-1.19-.06-1.77-.17-.31-.08-.77-.13-1.04-.45-.19-.27-.09-.62,.15-.78,.85-.4,2.11-.59,3.11-1.06,.75-.31,1.48-.7,2.12-1.19-.99,.29-2.04,.39-3.1,.39-2.16,0-4.4-.41-6.43-.42-.2,0-.39-.01-.58-.01-.96,0-1.87,.08-2.74,.25-.22,1.2-2.38,13.79,2.26,23,2.54,2.1,4.6,3.21,5.75,3.74-.22-.74-.29-1.52-.21-2.26l.09-1.43c0-.17,.13-.25,.26-.25s.26,.08,.26,.25c.1,1.83,.05,3.72,1.45,5.03,.88,.91,2.06,1.42,3.32,1.42,.05,0,.09,0,.14,0h1.43c.4,0,.79,.02,1.17,.02,1.42,0,2.74-.18,3.84-1.24,.64-.57,1.12-1.34,1.35-2.18,.27-.83,.19-1.81,.29-2.77,0-.14,.13-.21,.24-.21,.12,0,.24,.08,.25,.22,.02,.89,.2,2.06,0,2.94-.05,.22-.11,.43-.18,.63,1.31-.61,3.56-1.83,6.07-3.91,4.19-8.33,2.83-19.41,2.37-22.35-2.77-.02-5.58-1.24-7.76-2.97h0Z">
</path>
<path d="M52.09,29.39c-4.09,1.57-8.93-.4-11.95-3.34,0,0,.86-.47,.86-.47,.53,1.86,.02,4.28-1.73,5.42-.82,.65-2.05,.92-3.06,1.18,0,0,.7-1.11,.7-1.11,.72-1.17,.65-2.73-.03-3.92,0,0,.91,0,.91,0-.87,1.62-2.09,3.12-3.69,4.13-1.99,1.27-4.47,1.74-6.78,1.29-.32-.08-.78-.14-1.04-.46-.19-.26-.09-.62,.14-.78,.86-.39,2.11-.59,3.11-1.06,1.57-.64,3.04-1.63,3.73-3.07l.78,.67c-3.41,2.69-8.04,1.21-11.92,1.18-4.74-.14-8.43,1.55-10.86,5.68-1.39-8.86,3.7-14.76,12.37-16.03,0,0-.29,1.02-.29,1.02-2.89-1.42-6.52-.55-9.55,.05,4-7.21,12.72-9.96,20.11-6.27,0,0-.81,.75-.81,.75-.82-2.19-3.43-3-5.45-3.64,0,0,2.2-.43,2.2-.43,4.6-1.03,9.36,1.4,11.8,5.34,0,0-1.13,.2-1.13,.2,.44-2.04,1.81-3.8,3.72-4.65,1.14-.58,3.11-.74,4.34-1.03,0,0-1.94,1.55-1.94,1.55-1.49,1.16-2.89,2.89-3.02,4.81,0,0-.93-.51-.93-.51,4.9-2.82,9.84-1.1,11.34,4.47,0,0,.49,1.61,.49,1.61l-1.39-.96c-.81-.57-1.99-.64-2.95-.43l.15-1.05c2.31,1.52,4.04,3.63,5.3,6.04,1.47,2.79,2,5.94,2.04,9.05-.73-.68-1.75-1.67-2.49-2.33,0,0-.5-.44-.5-.44l.86-.38c-.48,4.62-2.28,9.11-5.4,12.57,0,0-.74-.68-.74-.68,3.18-3.54,4.88-8.31,5.16-13.02,.53,.47,1.33,1.14,1.84,1.63,0,0,1.03,.96,1.03,.96l-.91,.42c-.19-5.48-3.1-10.92-7.96-13.57,1.71-.47,3.68-.82,5.23,.28,0,0-.89,.65-.89,.65-.32-1.02-.76-2-1.36-2.82-2.16-3.2-6.43-2.25-9.18-.39,0,0,.02-1.05,.02-1.05,.11-2.43,1.68-4.39,3.5-5.83,0,0,.47,1.09,.47,1.09-2.23,.28-4.18,2.01-4.64,4.21,0,0-.32,1.49-.32,1.49-2.14-4.12-6.54-7.14-11.31-6.07,0,0,.06-1.16,.06-1.16,1.77,.64,3.33,1.83,4.06,3.61,0,0,.57,1.4,.57,1.4-6.7-3.82-14.88-2.6-19.25,4.02,0,0-.6-.88-.6-.88,3.01-.54,6.29-1.1,9.13,.46,0,0,1.28,.82,1.28,.82l-1.57,.2c-6.94,.86-12.42,5.93-11.52,13.28,0,0-1-.27-1-.27,3.93-5.82,10.86-5.03,16.89-4.45,1.98,.15,3.72-.22,5.33-1.4,0,0,1.65-1.1,1.65-1.1l-.87,1.77c-.88,1.81-2.61,2.9-4.29,3.59-.96,.41-1.96,.66-2.93,.95-.02,0-.02,.01,.03-.02,.09-.07,.17-.19,.18-.31,.04-.12-.07-.43-.2-.48,.1,.05,.33,.11,.51,.15,4.29,.88,8.11-1.88,9.8-5.72,1.13,1.72,1.62,4,.42,5.84,0,0-.53-.79-.53-.79,2.25-.52,3.47-2.81,2.79-5.05,0,0-.42-1.78-.42-1.78l1.28,1.32c2.87,2.93,7.21,3.96,11.22,4.04h0Z">
</path>
<path class="cls-7" d="M17.77,41.15s-3.77-5.83-3.09-11.07">
</path>
<path class="cls-7" d="M18.33,29.1s-2.72,13.61,2.33,23.52c4.08,3.4,6.97,4.3,6.97,4.3">
</path>
<path class="cls-7" d="M49.31,29.1s2.72,13.61-2.33,23.52c-4.08,3.4-7.48,4.57-7.48,4.57">
</path>
<path d="M40.69,52.64c.02,.89,.2,2.06,0,2.94-.78,3.54-3.91,4.59-7.14,4.34-2.04,.09-4.24-.17-5.62-1.86-1.05-1.15-1.49-2.78-1.32-4.28,0,0,.08-1.43,.08-1.43,.02-.32,.51-.32,.53,0,.1,1.83,.05,3.72,1.45,5.04,.91,.93,2.15,1.45,3.46,1.41,0,0,1.43-.01,1.43-.01,1.86,.06,3.62,.13,5.01-1.2,.64-.58,1.12-1.34,1.35-2.19,.27-.82,.19-1.81,.29-2.76,.02-.29,.48-.28,.49,.01h0Z">
</path>
<path d="M39.27,50.46c-1.96-.22-3.84,.11-5.69,.67-1.85-.57-3.73-.89-5.69-.67,1.74-1.02,3.95-.87,5.84-.33,0,0-.29,0-.29,0,1.88-.53,4.09-.69,5.83,.33h0Z">
</path>
<path d="M35.97,44.02c.5,.13,1.41,.63,1.08,1.38-.85,.97-2.09,1.76-3.4,1.82-1.31-.07-2.55-.85-3.4-1.83-.32-.75,.59-1.25,1.08-1.37-.31,.29-.64,.66-.64,.96-.08,.12,.42,.33,.76,.51,.61,.25,1.52,.79,2.19,.74,.67,.06,1.59-.48,2.19-.73,.34-.18,.84-.39,.77-.51,0-.3-.33-.67-.64-.96h0Z">
</path>
<path d="M31.2,36.59c-2.51-1.3-5.46-2.09-8.29-1.65-.97,.11-1.9,.44-2.85,.77,.83-.56,1.73-1.07,2.72-1.34,1.97-.63,4.16-.53,6.14,.04,1,.32,1.94,.72,2.83,1.33,.23,.16,.28,.47,.13,.69-.15,.22-.45,.28-.68,.14h0Z">
</path>
<path d="M35.88,35.76c3.44-2.31,8.3-2.49,11.7-.04-1.85-.71-3.78-1.07-5.73-.83-1.89,.2-3.78,.85-5.45,1.72-.53,.29-1.02-.52-.51-.85h0Z">
</path>
<path d="M28.86,39.26c-2.07-1.22-4.97-1.6-6.76,.19,0,0-.01-.39-.01-.39,1.22,1.12,2.96,1.7,4.62,1.53,.72-.04,1.43-.28,2.12-.49-.18,.9-.77,1.64-1.68,1.85-.67,.18-1.35,.18-2.01,.08,1.16,.03,2.84-.29,3.06-1.61,0,0,.33,.29,.33,.29-1.14,.42-2.39,.62-3.6,.4-1.32-.23-2.53-.86-3.47-1.84,1.88-2.12,5.52-2.05,7.4,0h0Z">
</path>
<path d="M38.36,39.26c1.88-2.04,5.53-2.11,7.4,0-1.35,1.42-3.37,2.13-5.3,1.88-.61-.06-1.2-.24-1.77-.44,0,0,.33-.3,.33-.29,.22,1.32,1.9,1.64,3.06,1.61-.66,.1-1.34,.1-2.01-.08-.91-.21-1.5-.94-1.68-1.85,.69,.21,1.4,.45,2.12,.49,1.66,.17,3.4-.41,4.62-1.53,0,0-.01,.39-.01,.39-1.8-1.79-4.69-1.41-6.76-.19h0Z">
</path>
<path d="M37.72,51.75c.29,2.05-2.66,1.53-3.95,1.67-1.14-.11-2.56,.15-3.56-.49-.36-.31-.51-.79-.39-1.18,.11,.38,.37,.66,.66,.77,.14,.06,.29,.08,.43,.07,.94-.11,1.91-.16,2.86-.17,.77,0,1.54,.03,2.31,.11,.71,.14,1.4,.06,1.64-.78h0Z">
</path>
<path class="cls-9" d="M45.22,54.35s-.34,5.58,.25,9.09c-1.6,3.6-6.31,6.61-11.52,6.61-5.21,0-9.92-3-11.52-6.61,.59-3.52,.25-9.09,.25-9.09">
</path>
<g >
<path class="cls-10" d="M22.8,56.64s1.61,4.66,8.89,7.23c1.35,3,2.26,6.13,2.26,6.13">
</path>
<path class="cls-10" d="M45.1,56.64s-1.61,4.66-8.89,7.23c-1.35,3-2.26,6.13-2.26,6.13">
</path>
</g>
<path class="cls-8" d="M22.71,59.32s-9.52,2.12-15.1,5.11">
</path>
<path class="cls-8" d="M45.3,59.37s9.33,2.07,14.91,5.06">
</path>
<path d="M34.32,28.28s-7.1,5.32-18.56,4.71c1.98-4.71,2.66-5.6,2.66-5.6,0,0,11.67-.89,15.9,.89Z">
</path>
</g>
</g>

  <path
     style="opacity:1;vector-effect:none;fill:#8d5fd3;fill-opacity:1;fill-rule:nonzero;stroke:none;stroke-width:2.35769176;stroke-linecap:butt;stroke-linejoin:miter;stroke-miterlimit:4;stroke-dasharray:none;stroke-dashoffset:0;stroke-opacity:0.44186048"
     d="M 0,1.2e-7 V 80 H 69 V 1.2e-7 Z M 35.240234,4.658203 c 6.067554,0.1120422 16.269844,1.4698438 23.589844,3.8398438 3.46,9.2400002 5.269531,19.9506252 5.269531,31.1406252 0,11.47 -1.89,22.390234 -5.5,31.740234 -7.2,2.16 -14.940375,3.376539 -23.019531,3.259766 -8.580486,-0.124019 -18.036001,-1.572896 -25.240234,-3.86914 -3.4500003,-9.22 -5.2597659,-19.930859 -5.2597659,-31.130859 0,-11.2 1.8904687,-22.380469 5.4804689,-31.730469 C 17.682894,5.1336941 29.17268,4.5461608 35.240234,4.658203 Z"
     id="rect4304" />


</svg>
