<svg id="Capa_2" xmlns="http://www.w3.org/2000/svg" xmlns:xlink="http://www.w3.org/1999/xlink" viewBox="0 0 69.02 80">
<defs >
<style >
.cls-1{fill:#c89aed;}.cls-2{fill:#fff;}.cls-3{fill:#f8ffbf;}.cls-4{fill:#7b7be8;}.cls-5{fill:#a88347;}.cls-6{fill:#782ab5;}.cls-7,.cls-8,.cls-9,.cls-10,.cls-11,.cls-12,.cls-13,.cls-14{fill:none;}.cls-7,.cls-8,.cls-9,.cls-10,.cls-14,.cls-15{stroke:#000;}.cls-7,.cls-8,.cls-9,.cls-15{stroke-miterlimit:10;}.cls-8{stroke-width:1.11px;}.cls-8,.cls-9,.cls-10,.cls-11,.cls-14,.cls-15{stroke-linecap:round;}.cls-16{fill:#1c46ff;}.cls-10,.cls-11,.cls-14{stroke-linejoin:round;}.cls-11{stroke:#deb778;stroke-dasharray:0 0 0 4.06;}.cls-17{fill:#deb778;}.cls-18{fill:#ffc16b;}.cls-19{fill:url(#USGS_19_Inundación_de_tierra_2);}.cls-13{stroke:#1d1d1b;stroke-dasharray:0 0 2 2;stroke-width:.3px;}.cls-14{stroke-width:1.03px;}.cls-15{fill:#b83521;stroke-width:.5px;}.cls-20{fill:#fcf0c5;}
</style>
<pattern id="USGS_19_Inundación_de_tierra_2" x="0" y="0" width="72" height="72" patternTransform="translate(195.52 -16063) rotate(-90)" patternUnits="userSpaceOnUse" viewBox="0 0 72 72">
<g >
<rect class="cls-12" width="72" height="72">
</rect>
<g >
<line class="cls-13" x1="71" y1="71" x2="144.44" y2="71">
</line>
<line class="cls-13" x1="71" y1="67" x2="144.44" y2="67">
</line>
<line class="cls-13" x1="71" y1="63" x2="144.44" y2="63">
</line>
<line class="cls-13" x1="71" y1="59" x2="144.44" y2="59">
</line>
<line class="cls-13" x1="71" y1="55" x2="144.44" y2="55">
</line>
<line class="cls-13" x1="71" y1="51" x2="144.44" y2="51">
</line>
<line class="cls-13" x1="71" y1="47" x2="144.44" y2="47">
</line>
<line class="cls-13" x1="71" y1="43" x2="144.44" y2="43">
</line>
<line class="cls-13" x1="71" y1="39" x2="144.44" y2="39">
</line>
<line class="cls-13" x1="71" y1="35" x2="144.44" y2="35">
</line>
<line class="cls-13" x1="71" y1="31" x2="144.44" y2="31">
</line>
<line class="cls-13" x1="71" y1="27" x2="144.44" y2="27">
</line>
<line class="cls-13" x1="71" y1="23" x2="144.44" y2="23">
</line>
<line class="cls-13" x1="71" y1="19" x2="144.44" y2="19">
</line>
<line class="cls-13" x1="71" y1="15" x2="144.44" y2="15">
</line>
<line class="cls-13" x1="71" y1="11" x2="144.44" y2="11">
</line>
<line class="cls-13" x1="71" y1="7" x2="144.44" y2="7">
</line>
<line class="cls-13" x1="71" y1="3" x2="144.44" y2="3">
</line>
</g>
<g >
<line class="cls-13" x1="-1" y1="71" x2="72.44" y2="71">
</line>
<line class="cls-13" x1="-1" y1="67" x2="72.44" y2="67">
</line>
<line class="cls-13" x1="-1" y1="63" x2="72.44" y2="63">
</line>
<line class="cls-13" x1="-1" y1="59" x2="72.44" y2="59">
</line>
<line class="cls-13" x1="-1" y1="55" x2="72.44" y2="55">
</line>
<line class="cls-13" x1="-1" y1="51" x2="72.44" y2="51">
</line>
<line class="cls-13" x1="-1" y1="47" x2="72.44" y2="47">
</line>
<line class="cls-13" x1="-1" y1="43" x2="72.44" y2="43">
</line>
<line class="cls-13" x1="-1" y1="39" x2="72.44" y2="39">
</line>
<line class="cls-13" x1="-1" y1="35" x2="72.44" y2="35">
</line>
<line class="cls-13" x1="-1" y1="31" x2="72.44" y2="31">
</line>
<line class="cls-13" x1="-1" y1="27" x2="72.44" y2="27">
</line>
<line class="cls-13" x1="-1" y1="23" x2="72.44" y2="23">
</line>
<line class="cls-13" x1="-1" y1="19" x2="72.44" y2="19">
</line>
<line class="cls-13" x1="-1" y1="15" x2="72.44" y2="15">
</line>
<line class="cls-13" x1="-1" y1="11" x2="72.44" y2="11">
</line>
<line class="cls-13" x1="-1" y1="7" x2="72.44" y2="7">
</line>
<line class="cls-13" x1="-1" y1="3" x2="72.44" y2="3">
</line>
<line class="cls-13" x1="1.04" y1="69" x2="74.48" y2="69">
</line>
<line class="cls-13" x1="1.04" y1="65" x2="74.48" y2="65">
</line>
<line class="cls-13" x1="1.04" y1="61" x2="74.48" y2="61">
</line>
<line class="cls-13" x1="1.04" y1="57" x2="74.48" y2="57">
</line>
<line class="cls-13" x1="1.04" y1="53" x2="74.48" y2="53">
</line>
<line class="cls-13" x1="1.04" y1="49" x2="74.48" y2="49">
</line>
<line class="cls-13" x1="1.04" y1="45" x2="74.48" y2="45">
</line>
<line class="cls-13" x1="1.04" y1="41" x2="74.48" y2="41">
</line>
<line class="cls-13" x1="1.04" y1="37" x2="74.48" y2="37">
</line>
<line class="cls-13" x1="1.04" y1="33" x2="74.48" y2="33">
</line>
<line class="cls-13" x1="1.04" y1="29" x2="74.48" y2="29">
</line>
<line class="cls-13" x1="1.04" y1="25" x2="74.48" y2="25">
</line>
<line class="cls-13" x1="1.04" y1="21" x2="74.48" y2="21">
</line>
<line class="cls-13" x1="1.04" y1="17" x2="74.48" y2="17">
</line>
<line class="cls-13" x1="1.04" y1="13" x2="74.48" y2="13">
</line>
<line class="cls-13" x1="1.04" y1="9" x2="74.48" y2="9">
</line>
<line class="cls-13" x1="1.04" y1="5" x2="74.48" y2="5">
</line>
<line class="cls-13" x1="1.04" y1="1" x2="74.48" y2="1">
</line>
</g>
<g >
<line class="cls-13" x1="-73" y1="71" x2=".44" y2="71">
</line>
<line class="cls-13" x1="-73" y1="67" x2=".44" y2="67">
</line>
<line class="cls-13" x1="-73" y1="63" x2=".44" y2="63">
</line>
<line class="cls-13" x1="-73" y1="59" x2=".44" y2="59">
</line>
<line class="cls-13" x1="-73" y1="55" x2=".44" y2="55">
</line>
<line class="cls-13" x1="-73" y1="51" x2=".44" y2="51">
</line>
<line class="cls-13" x1="-73" y1="47" x2=".44" y2="47">
</line>
<line class="cls-13" x1="-73" y1="43" x2=".44" y2="43">
</line>
<line class="cls-13" x1="-73" y1="39" x2=".44" y2="39">
</line>
<line class="cls-13" x1="-73" y1="35" x2=".44" y2="35">
</line>
<line class="cls-13" x1="-73" y1="31" x2=".44" y2="31">
</line>
<line class="cls-13" x1="-73" y1="27" x2=".44" y2="27">
</line>
<line class="cls-13" x1="-73" y1="23" x2=".44" y2="23">
</line>
<line class="cls-13" x1="-73" y1="19" x2=".44" y2="19">
</line>
<line class="cls-13" x1="-73" y1="15" x2=".44" y2="15">
</line>
<line class="cls-13" x1="-73" y1="11" x2=".44" y2="11">
</line>
<line class="cls-13" x1="-73" y1="7" x2=".44" y2="7">
</line>
<line class="cls-13" x1="-73" y1="3" x2=".44" y2="3">
</line>
<line class="cls-13" x1="-70.96" y1="69" x2="2.48" y2="69">
</line>
<line class="cls-13" x1="-70.96" y1="65" x2="2.48" y2="65">
</line>
<line class="cls-13" x1="-70.96" y1="61" x2="2.48" y2="61">
</line>
<line class="cls-13" x1="-70.96" y1="57" x2="2.48" y2="57">
</line>
<line class="cls-13" x1="-70.96" y1="53" x2="2.48" y2="53">
</line>
<line class="cls-13" x1="-70.96" y1="49" x2="2.48" y2="49">
</line>
<line class="cls-13" x1="-70.96" y1="45" x2="2.48" y2="45">
</line>
<line class="cls-13" x1="-70.96" y1="41" x2="2.48" y2="41">
</line>
<line class="cls-13" x1="-70.96" y1="37" x2="2.48" y2="37">
</line>
<line class="cls-13" x1="-70.96" y1="33" x2="2.48" y2="33">
</line>
<line class="cls-13" x1="-70.96" y1="29" x2="2.48" y2="29">
</line>
<line class="cls-13" x1="-70.96" y1="25" x2="2.48" y2="25">
</line>
<line class="cls-13" x1="-70.96" y1="21" x2="2.48" y2="21">
</line>
<line class="cls-13" x1="-70.96" y1="17" x2="2.48" y2="17">
</line>
<line class="cls-13" x1="-70.96" y1="13" x2="2.48" y2="13">
</line>
<line class="cls-13" x1="-70.96" y1="9" x2="2.48" y2="9">
</line>
<line class="cls-13" x1="-70.96" y1="5" x2="2.48" y2="5">
</line>
<line class="cls-13" x1="-70.96" y1="1" x2="2.48" y2="1">
</line>
</g>
</g>
</pattern>
</defs>

<g id="Characters">
<g >
<path class="cls-1" d="M20.21,27.56l1.09,6.21s-1.63,6.54,.87,10.9,5.36,8.14,5.36,8.14l-.7,8.69s-13.59,4.85-17.08,8.45c3.81,6.65,24.84,6.87,31.27,6.87s17.22-3.7,19.29-6.97c-4.9-3.38-16.87-8.47-16.87-8.47l-.56-8.64s6.1-6.1,6.87-12.31c.44-4.69-.11-5.88-.11-5.88l1.09-7.41s-5.67-10.03-9.7-10.35-16.78,7.08-20.81,10.79Z">
</path>
<path d="M18.14,65.4s-7.09-4.41-8.18-8.69-.7-9.01,.51-11.89,7.99-22.3,8.82-23.84,3.32-11.05,14.83-12.08c11.69-.83,15.78,7.41,18.53,13.16,2.68,6.01,8.43,23.07,9.14,26.9s.06,12.72-9.14,16.36c-4.22-2.17-9.2-3.96-9.2-3.96l-.58-8.18s5.3-6.58,6.33-11.37,0-7.28,0-7.28l1.09-5.5s-3-4.47-3.58-5.37c-.38,3.32-1.21,2.94-1.21,2.94,0,0-.77-7.16-3.83-8.43,.26,5.24-3.96,8.05-6.01,8.95,2.94-3.9,3.96-6.39,3.58-8.24-5.56,5.11-7.54,6.07-10.74,6.9s-7.28,2.04-8.05,2.75c.51,4.35,.96,5.88,.96,5.88,0,0-.77,7.03,1.6,11.44,3,5.05,4.54,6.97,4.54,6.97l-.7,8.69-8.69,3.9Z">
</path>
<path class="cls-16" d="M21.36,18.71s3.43-5.56,6.13-7.11c-1.31,4.17,4,3.51,6.95,1.23,4-2.7,14.06,3.51,11.2-.25,2.53,1.14,3.76,4.82,3.76,4.82,0,0-9.24-6.13-14.22-3.27s-8.66,5.64-13.81,4.58Z">
</path>
<path class="cls-2" d="M29.95,48.63s2.53-2.34,4.68-2.58,4.82,1.62,5.35,2.53c-2.72,2.1-8.93,1.34-10.03,.05Z">
</path>
<path class="cls-4" d="M32.17,35.52l1.57-3.42s-4.92-2.64-6.27-2.34-3.4,1.64-3.4,1.64l.35,3.57,7.75,.55Z">
</path>
<path class="cls-2" d="M35.28,56.76V27.31s5.3-2.69,6.69-9.2c4.27,5.2,3.19,8.78,3.19,8.78l1.64-2.28s1.95,3.53,3.25,4.09c-.46,5.2-1.11,6.78-1.11,6.78,0,0,1.11,2.04,.37,5.85s-5.39,10.68-10.5,15.14c-2.23,.37-3.53,.28-3.53,.28Z">
</path>
<path class="cls-4" d="M38.09,35.52l-1.57-3.42s4.92-2.64,6.27-2.34,3.4,1.64,3.4,1.64l-.35,3.57-7.75,.55Z">
</path>
<path class="cls-3" d="M32.17,35.52s-2.53-2.02-5.28-1.35c-1.95,.84-1.63,1.18-1.63,1.18,0,0,4.22,3.49,6.91,.17Z">
</path>
<path class="cls-3" d="M38.19,35.19s2.81-2.14,5.85-.67c.89,.5,.84,.9,.06,1.63s-6.3,1.46-5.9-.96Z">
</path>
<path class="cls-5" d="M27.74,58.92s4.97,2.84,15.01-.27c.69,2.72,.53,3.38,.53,3.38,0,0-4.09,5.68-7.99,5.86s-8.17-6.13-8.17-6.13l.62-2.84Z">
</path>
<path class="cls-16" d="M16.36,33.31c-.77,4.23-1.99,8.15-2.98,12.24-.58,2.53-1.3,4.86-.77,7.44,.73,3.89,2.36,7.5,5.4,10.36,0,0-.09,.18-.09,.18-4.85-2.72-8.02-8.86-7.32-14.38,1.01-5.57,3.29-10.78,5.58-15.92,0,0,.18,.08,.18,.08h0Z">
</path>
<path d="M42.42,53.53l-9.18,13.83-8.9,7.12-14.38-3.29-.14-1.92,17.3-7.52,1.06-8.5,3.7,3.29s4.83,.82,6.94-.07c2.24-1.71,3.61-2.95,3.61-2.95Z">
</path>
<polygon class="cls-16" points="20.11 65.85 11.01 70.29 14.01 71.33 20.11 65.85">
</polygon>
<path class="cls-2" d="M45.87,64.65l-8.68,12.02,22.06-3.76-.52-2.61s-7.02-4.02-12.86-5.64Z">
</path>
<path class="cls-2" d="M24.84,39.4s3.23,1.35,5.56,.09c-2.51,3.68-4.22,1.97-5.56-.09Z">
</path>
<path class="cls-16" d="M58.37,41.28s-.38,5.51-4.13,3.63-4.26,3.63-5.76,2.88c1.63,3.5,3-2.13,5.76-.5s4.63-1.88,5.76-.88c-.25-3.13-1.63-5.13-1.63-5.13Z">
</path>
<path class="cls-1" d="M42.45,21.56c.86,2.09,1.27,4.73,1.35,5.61h0s0,.06,0,.06c.06,.55,.42,1.04,.95,1.26,.18,.07,.37,.11,.56,.11,.35,0,.69-.12,.98-.36,.14-.12,.46-.42,.8-.93,.4,.56,.88,1.19,1.43,1.81l-.09,.52c-.24,1.42-.6,3.56-.82,5.01-.03,.22-.02,.43,.04,.61,1.62,5.9-2.17,13.9-9.44,19.93-.82,.26-1.73,.39-2.71,.39-1.37,0-2.53-.25-3.11-.4-7.24-6.04-11.02-14.02-9.41-19.91,.06-.2,.07-.41,.04-.64-.19-1.21-.5-3.08-.92-5.58,.11-.06,.22-.11,.33-.15,.99-.41,2.35-.76,3.94-1.14,2.88-.71,6.2-1.53,9.06-3.31-.62,.82-1.27,1.55-1.8,2.08-.49,.49-.59,1.25-.24,1.82,.27,.47,.77,.77,1.31,.77,.12,0,.25-.02,.37-.05,1.15-.23,5.8-2.23,7.38-7.52m-.51-2.76c-.56,7.45-7.02,9.29-7.09,9.3-.05,.01-.1,.02-.14,.02-.17,0-.34-.1-.44-.26-.12-.2-.08-.46,.08-.62,1.32-1.32,4.23-4.8,4.47-7.39-2.98,4.56-8.33,5.87-12.71,6.95-1.53,.37-2.97,.73-4.05,1.18-.39,.16-.74,.36-1.05,.57,.1,.59,.71,4.17,1.03,6.24,.01,.07,.01,.14-.01,.21-1.73,6.32,2.24,14.78,9.9,21.09,.36,.1,1.8,.5,3.59,.5,1,0,2.12-.12,3.2-.5,7.66-6.3,11.64-14.77,9.91-21.09-.02-.07-.02-.14-.01-.21,.28-1.86,.81-4.96,.98-5.99-1.17-1.25-2.09-2.61-2.66-3.56-.39,1.46-1.22,2.17-1.29,2.23-.1,.08-.21,.12-.33,.12-.07,0-.13-.01-.2-.04-.17-.07-.3-.24-.32-.43,0-.06-.62-5.98-2.86-8.32h0Z">
</path>
<path class="cls-10" d="M52.88,65.29s12.86-5.8,7.84-20.38-7.53-21.48-9.41-25.24-5.49-10.82-15.68-10.82h-.11c-10.19,0-13.8,7.06-15.68,10.82s-4.39,10.66-9.41,25.24,7.84,20.38,7.84,20.38">
</path>
<path class="cls-14" d="M18.22,34.03s-.75-4.71,3.64-6.53,13.71-1.93,17.24-9.21c1.5,3.43-4.39,9.32-4.39,9.32,0,0,6.75-1.82,6.75-9.85,3.11,1.82,3.86,9.32,3.86,9.32,0,0,3.11-2.57-.32-8.46">
</path>
<path class="cls-10" d="M46.7,23.82s2.88,5.7,6.84,7.28">
</path>
<path d="M34.12,31.56l-.8,1.4s-4.55-2.67-5.95-2.74-3.28,1.2-3.28,1.2c0,0,2.01-2.61,3.74-2.41s6.28,2.54,6.28,2.54Z">
</path>
<path d="M36.26,31.56l.8,1.4s4.55-2.67,5.95-2.74,3.28,1.2,3.28,1.2c0,0-2.01-2.61-3.74-2.41s-6.28,2.54-6.28,2.54Z">
</path>
<path class="cls-10" d="M20.51,28.54s.69,4.07,1.04,6.33c-1.73,6.33,1.99,15,10.14,21.67,0,0,3.74,1.24,7.28,0,8.15-6.68,11.88-15.34,10.14-21.67,.35-2.25,1.04-6.33,1.04-6.33">
</path>
<path class="cls-10" d="M27.52,52.84l-.56,8.42s-11.04,4.68-17.31,8.79">
</path>
<path class="cls-10" d="M42.87,52.84l.56,8.42s11.04,4.68,17.31,8.79">
</path>
<path d="M35.02,44.56h.06s2-.36,3.26,1.38c1.07,1.48,2.08,2.78,2.08,2.78,0,0-1.3-.11-3.33-1.58-.99-.83-2.15-.59-2.15-.59h-.04s-1.16-.24-2.15,.59c-2.03,1.48-3.33,1.58-3.33,1.58,0,0,1.01-1.3,2.08-2.78,1.26-1.74,3.26-1.38,3.26-1.38h.25Z">
</path>
<path d="M35.49,48.61h4.81s-1.77,2.2-4.86,2.2h-.93c-3.1,0-4.86-2.2-4.86-2.2h5.85Z">
</path>
<path d="M31.69,52.81c1.5-2.21,5.33-2.06,6.94-.06-2.38-.65-4.65-.83-6.94,.06h0Z">
</path>
<path d="M31.81,35.29c-2.09-1.09-4.63-1.47-6.55,.11,0,0,.09-.68,.09-.68,.91,1.31,2.56,2.23,4.2,2.02,.68-.05,1.33-.33,1.98-.56-.47,1.67-1.88,3.03-3.68,2.37,1.55,.49,2.95-.67,3.26-2.15,0,0,.22,.19,.22,.19-2.22,1.35-5.16,.73-6.79-1.28,0,0-.32-.37-.32-.37,2.34-1.86,5.34-1.27,7.59,.36h0Z">
</path>
<path d="M38.06,35.29c2.25-1.63,5.26-2.22,7.59-.36,0,0-.32,.37-.32,.37-1.63,2.01-4.57,2.63-6.79,1.28,0,0,.22-.19,.22-.19,.32,1.48,1.71,2.65,3.26,2.15-1.8,.67-3.21-.7-3.68-2.37,.64,.24,1.3,.52,1.98,.56,1.63,.21,3.29-.71,4.2-2.02,0,0,.09,.68,.09,.68-1.92-1.58-4.46-1.2-6.55-.11h0Z">
</path>
<path class="cls-9" d="M37.64,40.53l.86,1.15-.93,.56s-1.07-1.37-2.61,.21c-1.55-1.58-2.61-.21-2.61-.21l-.94-.56,.86-1.15">
</path>
<path class="cls-8" d="M43.15,57.6c0,1.43-3.56,2.59-7.94,2.59s-7.94-1.16-7.94-2.59">
</path>
<path class="cls-8" d="M43.48,61.43s-2.31,4.75-8.32,6.79c-6.02-2.04-8.33-6.79-8.33-6.79">
</path>
<path class="cls-15" d="M26.27,64.65s.4-1.41,1.19-1.94c.84-.48,1.81-.31,1.81-.31,0,0,.41,2.67-2.99,2.25Z">
</path>
<path class="cls-15" d="M28.65,68.06s-.03-2.13,.86-3.2c.97-1.02,2.39-1.18,2.39-1.18,0,0,1.68,3.56-3.25,4.38Z">
</path>
<path class="cls-15" d="M43.74,64.65s-.4-1.41-1.19-1.94c-.84-.48-1.81-.31-1.81-.31,0,0-.41,2.67,2.99,2.25Z">
</path>
<path class="cls-15" d="M41.35,68.06s.03-2.13-.86-3.2c-.97-1.02-2.39-1.18-2.39-1.18,0,0-1.68,3.56,3.25,4.38Z">
</path>
<path class="cls-15" d="M37.57,69.74c-.07,.59-.31,1.1-.67,1.53h0c-.5,.63-1.21,1.09-1.94,1.41-.73-.32-1.45-.79-1.95-1.41-.35-.43-.59-.94-.66-1.53-.13-1.15,.65-2.69,1.49-3.97,.38-.61,.79-1.15,1.12-1.58,.33,.43,.74,.97,1.12,1.58,.84,1.28,1.62,2.82,1.49,3.97Z">
</path>
<circle class="cls-15" cx="30.89" cy="61.89" r=".6">
</circle>
<circle class="cls-15" cx="33.58" cy="62.8" r=".6">
</circle>
<circle class="cls-15" cx="38.93" cy="61.89" r=".6">
</circle>
<circle class="cls-15" cx="36.24" cy="62.8" r=".6">
</circle>
<path class="cls-18" d="M35.05,65.76v5.89s1.85-1.01,1.85-2.23-1.85-3.66-1.85-3.66Z">
</path>
<path class="cls-18" d="M31.56,64.32l-2.23,2.84s2.87-.67,2.23-2.84Z">
</path>
<path class="cls-18" d="M38.55,64.41l2.17,2.81s-.03-2.55-2.17-2.81Z">
</path>
<path class="cls-18" d="M41.26,62.91l1.75,1.31s-.13-1.44-1.75-1.31Z">
</path>
</g>
</g>
 <g
     id="g2850">
    <g
       id="g2837">
      <path
         id="path1951"
         d="M 0.056640625 0.04296875 L 0.056640625 79.943359 L 69.308594 79.943359 L 69.308594 0.04296875 L 0.056640625 0.04296875 z M 33.615234 3.5957031 C 34.206332 3.5957038 34.786991 3.6051034 35.421875 3.6152344 C 44.430653 3.7671809 53.471255 5.1336733 61.560547 7.5546875 L 62.064453 7.7070312 L 62.25 8.1640625 C 66.070247 17.605006 66.990234 28.726438 66.990234 40.0625 C 66.990234 51.398562 65.972723 63.025755 61.988281 72.578125 L 61.791016 73.044922 L 61.275391 73.185547 C 53.273669 75.403966 44.691921 76.529297 35.759766 76.529297 C 35.212453 76.529297 34.675812 76.519896 34.150391 76.509766 L 33.943359 76.509766 C 24.901742 76.357819 15.860367 74.989738 7.7929688 72.558594 L 7.2890625 72.40625 L 7.1035156 71.951172 C 3.2942144 62.520359 2.375 51.369168 2.375 40.0625 C 2.375 28.755832 3.3819737 17.127318 7.3554688 7.5546875 L 7.5527344 7.0898438 L 8.0664062 6.9472656 C 15.509867 4.890923 23.785212 3.7371557 32.005859 3.6054688 C 32.542226 3.5953387 33.078867 3.5957031 33.615234 3.5957031 z "
         style="opacity:1;vector-effect:none;fill:#ffffff;fill-opacity:1;fill-rule:nonzero;stroke:none;stroke-width:1.95200002;stroke-linecap:butt;stroke-linejoin:miter;stroke-miterlimit:4;stroke-dasharray:none;stroke-dashoffset:0;stroke-opacity:1" />
    </g>
    <path
       id="path1154-8-2"
       d="m 33.675163,6.6112954 c 0.557696,0 1.115392,0.00956 1.683415,0.019115 8.427403,0.14336 16.803167,1.4049288 24.363042,3.6700176 3.573384,8.830981 4.443772,19.417362 4.443772,29.761551 0,10.344189 -0.95301,21.39888 -4.68131,30.334991 -7.435942,2.064385 -15.429581,3.274388 -23.774362,3.274388 -0.506058,0 -1.012115,-0.0096 -1.518172,-0.01911 h -0.17557 C 25.56792,73.508883 17.192156,72.088619 9.6426089,69.813973 6.0795528,61.002107 5.2088244,50.415411 5.2088244,40.061979 c 0,-10.353432 0.95335,-21.389323 4.6609939,-30.325434 C 16.820359,7.8155201 24.462856,6.7450981 32.177647,6.6208528 c 0.49573,-0.00956 1.001787,-0.00956 1.497516,-0.00956 m 0,-0.9557337 c -0.506057,0 -1.012114,0 -1.518171,0.00956 C 24.40089,5.7893644 16.593149,6.8789009 9.570315,8.8190405 L 9.0849131,8.9528432 8.8990146,9.3924808 C 5.1500599,18.424166 4.1999116,29.394246 4.1999116,40.061979 c 0,10.667733 0.8675267,21.188618 4.461566,30.0865 l 0.1755708,0.430081 0.4750741,0.14336 c 7.6115135,2.293761 16.1421925,3.584001 24.6728715,3.727361 h 0.196227 c 0.495729,0.0096 1.001786,0.01911 1.518171,0.01911 8.427403,0 16.524318,-1.060864 24.073866,-3.153921 l 0.485403,-0.133802 0.185898,-0.439639 c 3.759282,-9.01257 4.719759,-19.983589 4.719759,-30.679055 0,-10.695466 -0.867528,-21.188618 -4.471894,-30.0960578 L 60.516853,9.5358409 60.041779,9.3924808 C 52.409609,7.108277 43.87893,5.8180364 35.379234,5.6746763 34.780227,5.6651187 34.232859,5.6555621 33.675163,5.6555615 Z"
       style="fill:#ff0000;stroke:#ffffff;stroke-width:1.84341729;stroke-miterlimit:4;stroke-dasharray:none" />
    <path
       id="path1154"
       d="m 33.614853,4.6077955 c 0.591098,0 1.182197,0.01013 1.784241,0.02026 8.932155,0.1519464 17.809578,1.4890758 25.822246,3.8898304 3.787408,9.3599041 4.709928,20.5803481 4.709928,31.5440931 0,10.963745 -1.01009,22.680548 -4.961693,32.151879 -7.881312,2.18803 -16.353723,3.302304 -25.198307,3.302304 -0.536368,0 -1.072735,-0.01013 -1.609102,-0.02026 H 33.97608 C 25.022033,75.343956 16.14461,74.006827 8.1428892,71.595943 4.3664269,62.256298 3.443547,51.035521 3.443547,40.061979 c 0,-10.973542 1.01045,-22.670418 4.9401601,-32.1417498 7.3668369,-2.036083 15.4670749,-3.170617 23.6439369,-3.3023039 0.525421,-0.01013 1.061788,-0.01013 1.587209,-0.01013 m 0,-1.0129766 c -0.536367,0 -1.072734,0 -1.609101,0.01013 C 23.785105,3.7366356 15.509726,4.891429 8.0662653,6.9477716 L 7.5517907,7.0895883 7.3547579,7.5555576 C 3.3812628,17.128188 2.3742062,28.755311 2.3742062,40.061979 c 0,11.306668 0.9194864,22.457692 4.7287876,31.888505 l 0.1860865,0.45584 0.5035283,0.151947 c 8.0673984,2.431144 17.1090154,3.798662 26.1506324,3.950608 h 0.207979 c 0.525421,0.01013 1.061788,0.02026 1.609101,0.02026 8.932155,0 17.514028,-1.124404 25.51575,-3.342823 l 0.514475,-0.141816 0.197032,-0.46597 c 3.984442,-9.55237 5.002445,-21.180489 5.002445,-32.516551 0,-11.336062 -0.919487,-22.457692 -4.739734,-31.8986353 L 62.064202,7.7075041 61.560674,7.5555576 C 53.471382,5.1345434 44.429765,3.7670249 35.420987,3.6150784 c -0.634884,-0.01013 -1.215036,-0.020259 -1.806134,-0.02026 z"
       style="fill:#000000;stroke:#000000;stroke-width:1.95382714;stroke-miterlimit:4;stroke-dasharray:none" />
    <g
       id="g1810">
      <path
         d="M 6.5134911,7.7433673 C 5.6489029,6.8479453 4.058602,6.5681013 3.6272194,7.3820013 3.284151,8.0292783 3.3625296,8.5309135 4.395235,8.9201755 3.2963719,9.5187755 1.4857674,9.4447465 1.1893447,7.4467713 0.95320848,5.8551433 2.674739,4.8863543 3.1399725,5.0916244 3.0034432,3.6818714 1.8221094,4.0692802 0.95849208,3.2813384 0.34259068,2.7194046 0.23126071,-0.02624603 0.0561761,0.04378767 -0.0138576,0.21887227 2.7317937,0.33020157 3.2937267,0.94610377 4.0816685,1.8097211 3.6942598,2.9910547 5.1040128,3.1275841 4.8987425,2.6623507 5.8675315,0.94082017 7.4591593,1.1769564 9.4571345,1.4733791 9.5311625,3.2839847 8.9325635,4.3828467 8.5433008,3.3501417 8.041666,3.2717627 7.3943894,3.6148312 6.5804899,4.0462137 6.8603354,5.6365129 7.7557553,6.5011023"
         style="fill:#000000;stroke:#000000;stroke-width:0.1112323px;stroke-linecap:butt;stroke-linejoin:miter;stroke-opacity:1"
         id="path1737-3" />
      <path
         d="m 62.850738,7.7433673 c 0.864588,-0.895422 2.454889,-1.175266 2.886271,-0.361366 0.343069,0.647277 0.26469,1.148912 -0.768015,1.538174 1.098863,0.5986 2.909467,0.524571 3.20589,-1.473404 0.236136,-1.591628 -1.485394,-2.560417 -1.950628,-2.3551469 0.13653,-1.409753 1.317863,-1.0223442 2.181481,-1.810286 0.615901,-0.5619338 0.727231,-3.30758442 0.902316,-3.23755072 0.07003,0.1750846 -2.675618,0.2864139 -3.237551,0.9023161 C 65.28256,1.8097211 65.669969,2.9910547 64.260216,3.1275841 64.465486,2.6623507 63.496697,0.94082018 61.905069,1.1769564 c -1.997975,0.2964227 -2.072003,2.1070283 -1.473404,3.2058903 0.389263,-1.032705 0.890898,-1.111084 1.538174,-0.7680155 0.8139,0.4313825 0.534054,2.0216817 -0.361366,2.8862711"
         style="fill:#000000;stroke:#000000;stroke-width:0.1112323px;stroke-linecap:butt;stroke-linejoin:miter;stroke-opacity:1"
         id="path1737-3-5" />
      <path
         d="m 62.850738,72.244244 c 0.864588,0.895422 2.454889,1.175266 2.886272,0.361366 0.343068,-0.647277 0.264689,-1.148912 -0.768016,-1.538174 1.098863,-0.5986 2.909468,-0.524571 3.20589,1.473404 0.236137,1.591628 -1.485394,2.560417 -1.950628,2.355147 0.13653,1.409753 1.317864,1.022344 2.181481,1.810286 0.615901,0.561934 0.727231,3.307584 0.902316,3.237551 0.07003,-0.175085 -2.675618,-0.286414 -3.237551,-0.902317 -0.787942,-0.863617 -0.400533,-2.04495 -1.810286,-2.18148 0.20527,0.465234 -0.763519,2.186764 -2.355146,1.950628 -1.997976,-0.296423 -2.072004,-2.107028 -1.473405,-3.20589 0.389263,1.032705 0.890898,1.111084 1.538175,0.768015 0.813899,-0.431382 0.534054,-2.021682 -0.361366,-2.886271"
         style="fill:#000000;stroke:#000000;stroke-width:0.1112323px;stroke-linecap:butt;stroke-linejoin:miter;stroke-opacity:1"
         id="path1737-3-7" />
      <path
         d="M 6.513491,72.244245 C 5.648903,73.139667 4.058602,73.419511 3.62722,72.605611 3.284151,71.958334 3.36253,71.456699 4.395235,71.067437 c -1.098863,-0.5986 -2.909467,-0.524571 -3.20589,1.473404 -0.23613599,1.591628 1.485394,2.560417 1.950628,2.355147 -0.13653,1.409753 -1.317863,1.022344 -2.18148099,1.810286 -0.615901,0.561933 -0.727231,3.307584 -0.902316,3.23755 C -0.01385399,79.76874 2.731794,79.65741 3.293727,79.041508 4.081669,78.177891 3.69426,76.996557 5.104013,76.860028 4.898743,77.325261 5.867532,79.046792 7.45916,78.810656 9.457135,78.514233 9.531163,76.703627 8.932564,75.604765 8.543301,76.63747 8.041666,76.715849 7.39439,76.372781 6.58049,75.941398 6.860336,74.351099 7.755756,73.48651"
         style="fill:#000000;stroke:#000000;stroke-width:0.1112323px;stroke-linecap:butt;stroke-linejoin:miter;stroke-opacity:1"
         id="path1737-3-5-5" />
    </g>
    <path
       id="path1154-9"
       d="m 33.712865,7.4258691 c 0.536813,0 1.07363,0.00933 1.620386,0.01865 8.111875,0.1398689 16.174044,1.3707167 23.450873,3.5806479 3.439594,8.615932 4.277395,18.944521 4.277395,29.036812 0,10.092292 -0.917329,20.877786 -4.506039,29.596289 -7.157536,2.014114 -14.851888,3.03982 -22.884234,3.03982 -0.487111,0 -0.974221,-0.0094 -1.461331,-0.01865 H 34.040918 C 25.909161,72.53957 17.846991,71.308722 10.580105,69.089467 7.1504515,60.492184 6.3123238,50.163289 6.3123238,40.061979 c 0,-10.101311 0.9176558,-20.868461 4.4864832,-29.586965 6.690308,-1.8742449 14.046665,-2.9186005 21.472608,-3.0398203 0.47717,-0.00933 0.964281,-0.00933 1.44145,-0.00933 m 0,-0.9324602 c -0.487111,0 -0.974221,0 -1.46133,0.00933 C 24.785826,6.6239532 17.270413,7.686958 10.510517,9.5798526 L 10.043289,9.710397 9.8643508,10.139328 c -3.6085914,8.811751 -4.5231655,19.514693 -4.5231655,29.922651 0,10.407958 0.8350459,20.672644 4.294522,29.353849 l 0.1689973,0.419608 0.4572874,0.13987 c 7.326533,2.237904 15.537818,3.496724 23.749103,3.636593 h 0.188879 c 0.47717,0.0094 0.96428,0.01865 1.461331,0.01865 8.111875,0 15.905636,-1.035031 23.172525,-3.077119 l 0.467228,-0.130544 0.178938,-0.428932 c 3.618533,-8.793101 4.543048,-19.496959 4.543048,-29.931975 0,-10.435016 -0.835047,-20.672644 -4.304463,-29.363174 l -0.168997,-0.419609 -0.457288,-0.13987 C 51.74588,7.9107484 43.534594,6.6519271 35.353133,6.512058 34.776554,6.502738 34.249678,6.493409 33.712865,6.493409 Z"
       style="fill:#000000;stroke:none;stroke-width:1.78642213;stroke-miterlimit:4;stroke-dasharray:none" />
    <path
       id="path1154-9-3"
       d="m 33.712865,7.4258686 c 0.536813,0 1.07363,0.00933 1.620386,0.01865 8.111875,0.1398689 16.174044,1.3707167 23.450873,3.5806484 3.439594,8.615932 4.277395,18.944521 4.277395,29.036812 0,10.092292 -0.917329,20.877786 -4.506039,29.596288 -7.157536,2.014114 -14.851888,3.03982 -22.884234,3.03982 -0.487111,0 -0.974221,-0.0094 -1.461331,-0.01865 H 34.040918 C 25.909161,72.539569 17.846991,71.308722 10.580105,69.089466 7.1504515,60.492184 6.3123238,50.163288 6.3123238,40.061979 c 0,-10.101312 0.9176558,-20.868461 4.4864832,-29.586965 6.690308,-1.8742454 14.046665,-2.918601 21.472608,-3.0398208 0.47717,-0.00933 0.964281,-0.00933 1.44145,-0.00933 m 0,-0.9324602 c -0.487111,0 -0.974221,0 -1.46133,0.00933 C 24.785826,6.6239527 17.270413,7.6869575 10.510517,9.5798521 L 10.043289,9.7103965 9.8643508,10.139328 C 6.2557594,18.951079 5.3411853,29.65402 5.3411853,40.061979 c 0,10.407958 0.8350459,20.672643 4.294522,29.353849 l 0.1689973,0.419608 0.4572874,0.13987 c 7.326533,2.237904 15.537818,3.496724 23.749103,3.636593 h 0.188879 c 0.47717,0.0094 0.96428,0.01865 1.461331,0.01865 8.111875,0 15.905636,-1.035032 23.172525,-3.077119 l 0.467228,-0.130544 0.178938,-0.428932 c 3.618533,-8.793101 4.543048,-19.49696 4.543048,-29.931975 0,-10.435016 -0.835047,-20.672644 -4.304463,-29.363175 l -0.168997,-0.419609 -0.457288,-0.13987 C 51.74588,7.9107479 43.534594,6.6519266 35.353133,6.5120575 34.776554,6.5027375 34.249678,6.4934085 33.712865,6.4934085 Z"
       style="fill:#000000;stroke:none;stroke-width:1.78642213;stroke-miterlimit:4;stroke-dasharray:none" />
  </g>
</svg>
