<svg id="Capa_2" xmlns="http://www.w3.org/2000/svg" xmlns:xlink="http://www.w3.org/1999/xlink" viewBox="0 0 69.02 80">
<defs >
<style >
.cls-1{fill:#c89aed;}.cls-2{fill:#fff;}.cls-3{fill:#f8ffbf;}.cls-4{fill:#7b7be8;}.cls-5{fill:#a88347;}.cls-6{fill:#782ab5;}.cls-7,.cls-8,.cls-9,.cls-10,.cls-11,.cls-12,.cls-13,.cls-14{fill:none;}.cls-7,.cls-8,.cls-9,.cls-10,.cls-14,.cls-15{stroke:#000;}.cls-7,.cls-8,.cls-9,.cls-15{stroke-miterlimit:10;}.cls-8{stroke-width:1.11px;}.cls-8,.cls-9,.cls-10,.cls-11,.cls-14,.cls-15{stroke-linecap:round;}.cls-16{fill:#1c46ff;}.cls-10,.cls-11,.cls-14{stroke-linejoin:round;}.cls-11{stroke:#deb778;stroke-dasharray:0 0 0 4.06;}.cls-17{fill:#deb778;}.cls-18{fill:#ffc16b;}.cls-19{fill:url(#USGS_19_Inundación_de_tierra_2);}.cls-13{stroke:#1d1d1b;stroke-dasharray:0 0 2 2;stroke-width:.3px;}.cls-14{stroke-width:1.03px;}.cls-15{fill:#b83521;stroke-width:.5px;}.cls-20{fill:#fcf0c5;}
</style>
<pattern id="USGS_19_Inundación_de_tierra_2" x="0" y="0" width="72" height="72" patternTransform="translate(195.52 -16063) rotate(-90)" patternUnits="userSpaceOnUse" viewBox="0 0 72 72">
<g >
<rect class="cls-12" width="72" height="72">
</rect>
<g >
<line class="cls-13" x1="71" y1="71" x2="144.44" y2="71">
</line>
<line class="cls-13" x1="71" y1="67" x2="144.44" y2="67">
</line>
<line class="cls-13" x1="71" y1="63" x2="144.44" y2="63">
</line>
<line class="cls-13" x1="71" y1="59" x2="144.44" y2="59">
</line>
<line class="cls-13" x1="71" y1="55" x2="144.44" y2="55">
</line>
<line class="cls-13" x1="71" y1="51" x2="144.44" y2="51">
</line>
<line class="cls-13" x1="71" y1="47" x2="144.44" y2="47">
</line>
<line class="cls-13" x1="71" y1="43" x2="144.44" y2="43">
</line>
<line class="cls-13" x1="71" y1="39" x2="144.44" y2="39">
</line>
<line class="cls-13" x1="71" y1="35" x2="144.44" y2="35">
</line>
<line class="cls-13" x1="71" y1="31" x2="144.44" y2="31">
</line>
<line class="cls-13" x1="71" y1="27" x2="144.44" y2="27">
</line>
<line class="cls-13" x1="71" y1="23" x2="144.44" y2="23">
</line>
<line class="cls-13" x1="71" y1="19" x2="144.44" y2="19">
</line>
<line class="cls-13" x1="71" y1="15" x2="144.44" y2="15">
</line>
<line class="cls-13" x1="71" y1="11" x2="144.44" y2="11">
</line>
<line class="cls-13" x1="71" y1="7" x2="144.44" y2="7">
</line>
<line class="cls-13" x1="71" y1="3" x2="144.44" y2="3">
</line>
</g>
<g >
<line class="cls-13" x1="-1" y1="71" x2="72.44" y2="71">
</line>
<line class="cls-13" x1="-1" y1="67" x2="72.44" y2="67">
</line>
<line class="cls-13" x1="-1" y1="63" x2="72.44" y2="63">
</line>
<line class="cls-13" x1="-1" y1="59" x2="72.44" y2="59">
</line>
<line class="cls-13" x1="-1" y1="55" x2="72.44" y2="55">
</line>
<line class="cls-13" x1="-1" y1="51" x2="72.44" y2="51">
</line>
<line class="cls-13" x1="-1" y1="47" x2="72.44" y2="47">
</line>
<line class="cls-13" x1="-1" y1="43" x2="72.44" y2="43">
</line>
<line class="cls-13" x1="-1" y1="39" x2="72.44" y2="39">
</line>
<line class="cls-13" x1="-1" y1="35" x2="72.44" y2="35">
</line>
<line class="cls-13" x1="-1" y1="31" x2="72.44" y2="31">
</line>
<line class="cls-13" x1="-1" y1="27" x2="72.44" y2="27">
</line>
<line class="cls-13" x1="-1" y1="23" x2="72.44" y2="23">
</line>
<line class="cls-13" x1="-1" y1="19" x2="72.44" y2="19">
</line>
<line class="cls-13" x1="-1" y1="15" x2="72.44" y2="15">
</line>
<line class="cls-13" x1="-1" y1="11" x2="72.44" y2="11">
</line>
<line class="cls-13" x1="-1" y1="7" x2="72.44" y2="7">
</line>
<line class="cls-13" x1="-1" y1="3" x2="72.44" y2="3">
</line>
<line class="cls-13" x1="1.04" y1="69" x2="74.48" y2="69">
</line>
<line class="cls-13" x1="1.04" y1="65" x2="74.48" y2="65">
</line>
<line class="cls-13" x1="1.04" y1="61" x2="74.48" y2="61">
</line>
<line class="cls-13" x1="1.04" y1="57" x2="74.48" y2="57">
</line>
<line class="cls-13" x1="1.04" y1="53" x2="74.48" y2="53">
</line>
<line class="cls-13" x1="1.04" y1="49" x2="74.48" y2="49">
</line>
<line class="cls-13" x1="1.04" y1="45" x2="74.48" y2="45">
</line>
<line class="cls-13" x1="1.04" y1="41" x2="74.48" y2="41">
</line>
<line class="cls-13" x1="1.04" y1="37" x2="74.48" y2="37">
</line>
<line class="cls-13" x1="1.04" y1="33" x2="74.48" y2="33">
</line>
<line class="cls-13" x1="1.04" y1="29" x2="74.48" y2="29">
</line>
<line class="cls-13" x1="1.04" y1="25" x2="74.48" y2="25">
</line>
<line class="cls-13" x1="1.04" y1="21" x2="74.48" y2="21">
</line>
<line class="cls-13" x1="1.04" y1="17" x2="74.48" y2="17">
</line>
<line class="cls-13" x1="1.04" y1="13" x2="74.48" y2="13">
</line>
<line class="cls-13" x1="1.04" y1="9" x2="74.48" y2="9">
</line>
<line class="cls-13" x1="1.04" y1="5" x2="74.48" y2="5">
</line>
<line class="cls-13" x1="1.04" y1="1" x2="74.48" y2="1">
</line>
</g>
<g >
<line class="cls-13" x1="-73" y1="71" x2=".44" y2="71">
</line>
<line class="cls-13" x1="-73" y1="67" x2=".44" y2="67">
</line>
<line class="cls-13" x1="-73" y1="63" x2=".44" y2="63">
</line>
<line class="cls-13" x1="-73" y1="59" x2=".44" y2="59">
</line>
<line class="cls-13" x1="-73" y1="55" x2=".44" y2="55">
</line>
<line class="cls-13" x1="-73" y1="51" x2=".44" y2="51">
</line>
<line class="cls-13" x1="-73" y1="47" x2=".44" y2="47">
</line>
<line class="cls-13" x1="-73" y1="43" x2=".44" y2="43">
</line>
<line class="cls-13" x1="-73" y1="39" x2=".44" y2="39">
</line>
<line class="cls-13" x1="-73" y1="35" x2=".44" y2="35">
</line>
<line class="cls-13" x1="-73" y1="31" x2=".44" y2="31">
</line>
<line class="cls-13" x1="-73" y1="27" x2=".44" y2="27">
</line>
<line class="cls-13" x1="-73" y1="23" x2=".44" y2="23">
</line>
<line class="cls-13" x1="-73" y1="19" x2=".44" y2="19">
</line>
<line class="cls-13" x1="-73" y1="15" x2=".44" y2="15">
</line>
<line class="cls-13" x1="-73" y1="11" x2=".44" y2="11">
</line>
<line class="cls-13" x1="-73" y1="7" x2=".44" y2="7">
</line>
<line class="cls-13" x1="-73" y1="3" x2=".44" y2="3">
</line>
<line class="cls-13" x1="-70.96" y1="69" x2="2.48" y2="69">
</line>
<line class="cls-13" x1="-70.96" y1="65" x2="2.48" y2="65">
</line>
<line class="cls-13" x1="-70.96" y1="61" x2="2.48" y2="61">
</line>
<line class="cls-13" x1="-70.96" y1="57" x2="2.48" y2="57">
</line>
<line class="cls-13" x1="-70.96" y1="53" x2="2.48" y2="53">
</line>
<line class="cls-13" x1="-70.96" y1="49" x2="2.48" y2="49">
</line>
<line class="cls-13" x1="-70.96" y1="45" x2="2.48" y2="45">
</line>
<line class="cls-13" x1="-70.96" y1="41" x2="2.48" y2="41">
</line>
<line class="cls-13" x1="-70.96" y1="37" x2="2.48" y2="37">
</line>
<line class="cls-13" x1="-70.96" y1="33" x2="2.48" y2="33">
</line>
<line class="cls-13" x1="-70.96" y1="29" x2="2.48" y2="29">
</line>
<line class="cls-13" x1="-70.96" y1="25" x2="2.48" y2="25">
</line>
<line class="cls-13" x1="-70.96" y1="21" x2="2.48" y2="21">
</line>
<line class="cls-13" x1="-70.96" y1="17" x2="2.48" y2="17">
</line>
<line class="cls-13" x1="-70.96" y1="13" x2="2.48" y2="13">
</line>
<line class="cls-13" x1="-70.96" y1="9" x2="2.48" y2="9">
</line>
<line class="cls-13" x1="-70.96" y1="5" x2="2.48" y2="5">
</line>
<line class="cls-13" x1="-70.96" y1="1" x2="2.48" y2="1">
</line>
</g>
</g>
</pattern>
</defs>

  <path
     id="path7641-4"
     style="fill:#782ab5;fill-opacity:1;stroke:#4d4d4d;stroke-width:1.62226;stop-color:#000000"
     d="M 34.900259,1.6936052 C 14.323312,9.5265586 1.6299002,23.954051 1.5689773,39.580572 V 79.197446 H 67.963672 V 39.580572 C 67.958188,23.990066 55.374427,9.5708664 34.900259,1.6936052 Z"/>
  <path
     id="path7641-7"
     style="fill:#808080;stroke:#4d4d4d;stroke-width:1.48325;stop-color:#000000"
     d="M 34.629293,5.0425238 C 15.815619,12.204258 4.1542243,25.395327 4.1542243,39.682894 V 76.559207 H 64.859448 V 39.682894 c 0,-14.254531 -11.510452,-27.438125 -30.230155,-34.6403702 z m -0.01233,3.4358455 C 51.537073,14.988239 61.941622,26.904418 61.941622,39.788613 v 33.82806 H 7.07205 v -33.82806 c 0,-12.914055 10.539857,-24.836991 27.544909,-31.3102437 z"/>
  <path
     id="path7641-7-8"
     style="fill:#808080;stroke:#4d4d4d;stroke-width:1.35027;stop-color:#000000"
     d="M 34.618314,8.2461803 C 17.491429,14.76581 6.8755673,26.7742 6.8755673,39.780777 v 33.57007 H 62.138105 v -33.57007 c 0,-12.976504 -10.478452,-24.978088 -27.519791,-31.5345967 z m -0.01123,3.1277957 c 15.403093,5.926211 24.874795,16.774013 24.874795,28.503041 V 70.672134 H 9.5317874 V 39.877017 c 0,-11.75621 9.5948786,-22.610165 25.0752986,-28.503041 z"/>
  <path
     id="path7641-7-8-0"
     style="fill:#808080;stroke:#4d4d4d;stroke-width:1.21411;stop-color:#000000"
     d="M 34.607073,11.526302 C 19.207238,17.388502 9.6618637,28.185984 9.6618637,39.880997 V 70.06591 H 59.351809 V 39.880997 c 0,-11.667973 -9.421821,-22.459335 -24.744736,-28.354695 z m -0.0101,2.812393 c 13.849868,5.328621 22.366458,15.082547 22.366458,25.628837 V 67.657315 H 12.050234 V 39.967532 c 0,-10.570731 8.627346,-20.33019 22.546743,-25.628837 z"/>


<g id="Characters">
<g >
<path class="cls-1" d="M20.21,27.56l1.09,6.21s-1.63,6.54,.87,10.9,5.36,8.14,5.36,8.14l-.7,8.69s-13.59,4.85-17.08,8.45c3.81,6.65,24.84,6.87,31.27,6.87s17.22-3.7,19.29-6.97c-4.9-3.38-16.87-8.47-16.87-8.47l-.56-8.64s6.1-6.1,6.87-12.31c.44-4.69-.11-5.88-.11-5.88l1.09-7.41s-5.67-10.03-9.7-10.35-16.78,7.08-20.81,10.79Z">
</path>
<path d="M18.14,65.4s-7.09-4.41-8.18-8.69-.7-9.01,.51-11.89,7.99-22.3,8.82-23.84,3.32-11.05,14.83-12.08c11.69-.83,15.78,7.41,18.53,13.16,2.68,6.01,8.43,23.07,9.14,26.9s.06,12.72-9.14,16.36c-4.22-2.17-9.2-3.96-9.2-3.96l-.58-8.18s5.3-6.58,6.33-11.37,0-7.28,0-7.28l1.09-5.5s-3-4.47-3.58-5.37c-.38,3.32-1.21,2.94-1.21,2.94,0,0-.77-7.16-3.83-8.43,.26,5.24-3.96,8.05-6.01,8.95,2.94-3.9,3.96-6.39,3.58-8.24-5.56,5.11-7.54,6.07-10.74,6.9s-7.28,2.04-8.05,2.75c.51,4.35,.96,5.88,.96,5.88,0,0-.77,7.03,1.6,11.44,3,5.05,4.54,6.97,4.54,6.97l-.7,8.69-8.69,3.9Z">
</path>
<path class="cls-16" d="M21.36,18.71s3.43-5.56,6.13-7.11c-1.31,4.17,4,3.51,6.95,1.23,4-2.7,14.06,3.51,11.2-.25,2.53,1.14,3.76,4.82,3.76,4.82,0,0-9.24-6.13-14.22-3.27s-8.66,5.64-13.81,4.58Z">
</path>
<path class="cls-2" d="M29.95,48.63s2.53-2.34,4.68-2.58,4.82,1.62,5.35,2.53c-2.72,2.1-8.93,1.34-10.03,.05Z">
</path>
<path class="cls-4" d="M32.17,35.52l1.57-3.42s-4.92-2.64-6.27-2.34-3.4,1.64-3.4,1.64l.35,3.57,7.75,.55Z">
</path>
<path class="cls-2" d="M35.28,56.76V27.31s5.3-2.69,6.69-9.2c4.27,5.2,3.19,8.78,3.19,8.78l1.64-2.28s1.95,3.53,3.25,4.09c-.46,5.2-1.11,6.78-1.11,6.78,0,0,1.11,2.04,.37,5.85s-5.39,10.68-10.5,15.14c-2.23,.37-3.53,.28-3.53,.28Z">
</path>
<path class="cls-4" d="M38.09,35.52l-1.57-3.42s4.92-2.64,6.27-2.34,3.4,1.64,3.4,1.64l-.35,3.57-7.75,.55Z">
</path>
<path class="cls-3" d="M32.17,35.52s-2.53-2.02-5.28-1.35c-1.95,.84-1.63,1.18-1.63,1.18,0,0,4.22,3.49,6.91,.17Z">
</path>
<path class="cls-3" d="M38.19,35.19s2.81-2.14,5.85-.67c.89,.5,.84,.9,.06,1.63s-6.3,1.46-5.9-.96Z">
</path>
<path class="cls-5" d="M27.74,58.92s4.97,2.84,15.01-.27c.69,2.72,.53,3.38,.53,3.38,0,0-4.09,5.68-7.99,5.86s-8.17-6.13-8.17-6.13l.62-2.84Z">
</path>
<path class="cls-16" d="M16.36,33.31c-.77,4.23-1.99,8.15-2.98,12.24-.58,2.53-1.3,4.86-.77,7.44,.73,3.89,2.36,7.5,5.4,10.36,0,0-.09,.18-.09,.18-4.85-2.72-8.02-8.86-7.32-14.38,1.01-5.57,3.29-10.78,5.58-15.92,0,0,.18,.08,.18,.08h0Z">
</path>
<path d="M42.42,53.53l-9.18,13.83-8.9,7.12-14.38-3.29-.14-1.92,17.3-7.52,1.06-8.5,3.7,3.29s4.83,.82,6.94-.07c2.24-1.71,3.61-2.95,3.61-2.95Z">
</path>
<polygon class="cls-16" points="20.11 65.85 11.01 70.29 14.01 71.33 20.11 65.85">
</polygon>
<path class="cls-2" d="M45.87,64.65l-8.68,12.02,22.06-3.76-.52-2.61s-7.02-4.02-12.86-5.64Z">
</path>
<path class="cls-2" d="M24.84,39.4s3.23,1.35,5.56,.09c-2.51,3.68-4.22,1.97-5.56-.09Z">
</path>
<path class="cls-16" d="M58.37,41.28s-.38,5.51-4.13,3.63-4.26,3.63-5.76,2.88c1.63,3.5,3-2.13,5.76-.5s4.63-1.88,5.76-.88c-.25-3.13-1.63-5.13-1.63-5.13Z">
</path>
<path class="cls-1" d="M42.45,21.56c.86,2.09,1.27,4.73,1.35,5.61h0s0,.06,0,.06c.06,.55,.42,1.04,.95,1.26,.18,.07,.37,.11,.56,.11,.35,0,.69-.12,.98-.36,.14-.12,.46-.42,.8-.93,.4,.56,.88,1.19,1.43,1.81l-.09,.52c-.24,1.42-.6,3.56-.82,5.01-.03,.22-.02,.43,.04,.61,1.62,5.9-2.17,13.9-9.44,19.93-.82,.26-1.73,.39-2.71,.39-1.37,0-2.53-.25-3.11-.4-7.24-6.04-11.02-14.02-9.41-19.91,.06-.2,.07-.41,.04-.64-.19-1.21-.5-3.08-.92-5.58,.11-.06,.22-.11,.33-.15,.99-.41,2.35-.76,3.94-1.14,2.88-.71,6.2-1.53,9.06-3.31-.62,.82-1.27,1.55-1.8,2.08-.49,.49-.59,1.25-.24,1.82,.27,.47,.77,.77,1.31,.77,.12,0,.25-.02,.37-.05,1.15-.23,5.8-2.23,7.38-7.52m-.51-2.76c-.56,7.45-7.02,9.29-7.09,9.3-.05,.01-.1,.02-.14,.02-.17,0-.34-.1-.44-.26-.12-.2-.08-.46,.08-.62,1.32-1.32,4.23-4.8,4.47-7.39-2.98,4.56-8.33,5.87-12.71,6.95-1.53,.37-2.97,.73-4.05,1.18-.39,.16-.74,.36-1.05,.57,.1,.59,.71,4.17,1.03,6.24,.01,.07,.01,.14-.01,.21-1.73,6.32,2.24,14.78,9.9,21.09,.36,.1,1.8,.5,3.59,.5,1,0,2.12-.12,3.2-.5,7.66-6.3,11.64-14.77,9.91-21.09-.02-.07-.02-.14-.01-.21,.28-1.86,.81-4.96,.98-5.99-1.17-1.25-2.09-2.61-2.66-3.56-.39,1.46-1.22,2.17-1.29,2.23-.1,.08-.21,.12-.33,.12-.07,0-.13-.01-.2-.04-.17-.07-.3-.24-.32-.43,0-.06-.62-5.98-2.86-8.32h0Z">
</path>
<path class="cls-10" d="M52.88,65.29s12.86-5.8,7.84-20.38-7.53-21.48-9.41-25.24-5.49-10.82-15.68-10.82h-.11c-10.19,0-13.8,7.06-15.68,10.82s-4.39,10.66-9.41,25.24,7.84,20.38,7.84,20.38">
</path>
<path class="cls-14" d="M18.22,34.03s-.75-4.71,3.64-6.53,13.71-1.93,17.24-9.21c1.5,3.43-4.39,9.32-4.39,9.32,0,0,6.75-1.82,6.75-9.85,3.11,1.82,3.86,9.32,3.86,9.32,0,0,3.11-2.57-.32-8.46">
</path>
<path class="cls-10" d="M46.7,23.82s2.88,5.7,6.84,7.28">
</path>
<path d="M34.12,31.56l-.8,1.4s-4.55-2.67-5.95-2.74-3.28,1.2-3.28,1.2c0,0,2.01-2.61,3.74-2.41s6.28,2.54,6.28,2.54Z">
</path>
<path d="M36.26,31.56l.8,1.4s4.55-2.67,5.95-2.74,3.28,1.2,3.28,1.2c0,0-2.01-2.61-3.74-2.41s-6.28,2.54-6.28,2.54Z">
</path>
<path class="cls-10" d="M20.51,28.54s.69,4.07,1.04,6.33c-1.73,6.33,1.99,15,10.14,21.67,0,0,3.74,1.24,7.28,0,8.15-6.68,11.88-15.34,10.14-21.67,.35-2.25,1.04-6.33,1.04-6.33">
</path>
<path class="cls-10" d="M27.52,52.84l-.56,8.42s-11.04,4.68-17.31,8.79">
</path>
<path class="cls-10" d="M42.87,52.84l.56,8.42s11.04,4.68,17.31,8.79">
</path>
<path d="M35.02,44.56h.06s2-.36,3.26,1.38c1.07,1.48,2.08,2.78,2.08,2.78,0,0-1.3-.11-3.33-1.58-.99-.83-2.15-.59-2.15-.59h-.04s-1.16-.24-2.15,.59c-2.03,1.48-3.33,1.58-3.33,1.58,0,0,1.01-1.3,2.08-2.78,1.26-1.74,3.26-1.38,3.26-1.38h.25Z">
</path>
<path d="M35.49,48.61h4.81s-1.77,2.2-4.86,2.2h-.93c-3.1,0-4.86-2.2-4.86-2.2h5.85Z">
</path>
<path d="M31.69,52.81c1.5-2.21,5.33-2.06,6.94-.06-2.38-.65-4.65-.83-6.94,.06h0Z">
</path>
<path d="M31.81,35.29c-2.09-1.09-4.63-1.47-6.55,.11,0,0,.09-.68,.09-.68,.91,1.31,2.56,2.23,4.2,2.02,.68-.05,1.33-.33,1.98-.56-.47,1.67-1.88,3.03-3.68,2.37,1.55,.49,2.95-.67,3.26-2.15,0,0,.22,.19,.22,.19-2.22,1.35-5.16,.73-6.79-1.28,0,0-.32-.37-.32-.37,2.34-1.86,5.34-1.27,7.59,.36h0Z">
</path>
<path d="M38.06,35.29c2.25-1.63,5.26-2.22,7.59-.36,0,0-.32,.37-.32,.37-1.63,2.01-4.57,2.63-6.79,1.28,0,0,.22-.19,.22-.19,.32,1.48,1.71,2.65,3.26,2.15-1.8,.67-3.21-.7-3.68-2.37,.64,.24,1.3,.52,1.98,.56,1.63,.21,3.29-.71,4.2-2.02,0,0,.09,.68,.09,.68-1.92-1.58-4.46-1.2-6.55-.11h0Z">
</path>
<path class="cls-9" d="M37.64,40.53l.86,1.15-.93,.56s-1.07-1.37-2.61,.21c-1.55-1.58-2.61-.21-2.61-.21l-.94-.56,.86-1.15">
</path>
<path class="cls-8" d="M43.15,57.6c0,1.43-3.56,2.59-7.94,2.59s-7.94-1.16-7.94-2.59">
</path>
<path class="cls-8" d="M43.48,61.43s-2.31,4.75-8.32,6.79c-6.02-2.04-8.33-6.79-8.33-6.79">
</path>
<path class="cls-15" d="M26.27,64.65s.4-1.41,1.19-1.94c.84-.48,1.81-.31,1.81-.31,0,0,.41,2.67-2.99,2.25Z">
</path>
<path class="cls-15" d="M28.65,68.06s-.03-2.13,.86-3.2c.97-1.02,2.39-1.18,2.39-1.18,0,0,1.68,3.56-3.25,4.38Z">
</path>
<path class="cls-15" d="M43.74,64.65s-.4-1.41-1.19-1.94c-.84-.48-1.81-.31-1.81-.31,0,0-.41,2.67,2.99,2.25Z">
</path>
<path class="cls-15" d="M41.35,68.06s.03-2.13-.86-3.2c-.97-1.02-2.39-1.18-2.39-1.18,0,0-1.68,3.56,3.25,4.38Z">
</path>
<path class="cls-15" d="M37.57,69.74c-.07,.59-.31,1.1-.67,1.53h0c-.5,.63-1.21,1.09-1.94,1.41-.73-.32-1.45-.79-1.95-1.41-.35-.43-.59-.94-.66-1.53-.13-1.15,.65-2.69,1.49-3.97,.38-.61,.79-1.15,1.12-1.58,.33,.43,.74,.97,1.12,1.58,.84,1.28,1.62,2.82,1.49,3.97Z">
</path>
<circle class="cls-15" cx="30.89" cy="61.89" r=".6">
</circle>
<circle class="cls-15" cx="33.58" cy="62.8" r=".6">
</circle>
<circle class="cls-15" cx="38.93" cy="61.89" r=".6">
</circle>
<circle class="cls-15" cx="36.24" cy="62.8" r=".6">
</circle>
<path class="cls-18" d="M35.05,65.76v5.89s1.85-1.01,1.85-2.23-1.85-3.66-1.85-3.66Z">
</path>
<path class="cls-18" d="M31.56,64.32l-2.23,2.84s2.87-.67,2.23-2.84Z">
</path>
<path class="cls-18" d="M38.55,64.41l2.17,2.81s-.03-2.55-2.17-2.81Z">
</path>
<path class="cls-18" d="M41.26,62.91l1.75,1.31s-.13-1.44-1.75-1.31Z">
</path>
</g>
</g>
  <g
     id="g20645">
    <path
       style="fill:#808080;stroke:#4d4d4d;stroke-width:0.937908;stop-color:#000000;fill-opacity:1"
       d="m 9.541565,65.883425 a 5.4759801,5.4759801 0 0 1 5.47598,5.475981 5.4759801,5.4759801 0 0 1 -5.47598,5.47598 5.4759801,5.4759801 0 0 1 -5.4759806,-5.47598 5.4759801,5.4759801 0 0 1 5.4759806,-5.475981 z"/>
    <path
       style="fill:#808080;stroke:#4d4d4d;stroke-width:0.937908;stop-color:#000000;fill-opacity:1"
       d="m 59.472108,65.883425 a 5.4759801,5.4759801 0 0 1 5.47598,5.475981 5.4759801,5.4759801 0 0 1 -5.47598,5.47598 5.4759801,5.4759801 0 0 1 -5.475981,-5.47598 5.4759801,5.4759801 0 0 1 5.475981,-5.475981 z"/>
    <path
       id="path7641"
       style="fill:#808080;stroke:#4d4d4d;stroke-width:1.64416;stop-color:#000000"
       d="M 34.642578,1.1660156 C 13.787845,9.1047124 0.86132813,23.726855 0.86132812,39.564453 V 79.340489 H 68.152344 V 39.564453 c 0,-15.800978 -12.759199,-30.4148342 -33.509766,-38.3984374 z m -0.01367,3.8085938 C 53.384648,12.190722 64.917969,25.399665 64.917969,39.681641 v 26.507812 c -1.368656,-1.44106 -3.300993,-2.341797 -5.445313,-2.341797 -4.14856,0 -7.511718,3.363159 -7.511718,7.511719 0,2.347008 1.075662,4.442843 2.761718,5.820313 H 14.269531 c 1.756069,-1.422629 2.778281,-3.560307 2.783203,-5.820313 4.8e-5,-4.148627 -3.363091,-7.511766 -7.5117184,-7.511719 -2.0622939,0.0062 -4.0313164,0.860092 -5.4453125,2.361328 V 39.681641 c 0,-14.315076 11.6833059,-27.531508 30.5332029,-34.7070316 z"/>
    <circle
       style="fill:#4d4d4d;fill-opacity:1;stroke:#4d4d4d;stop-color:#000000"
       id="path16431"
       cx="9.6010828"
       cy="71.229652"
       r="5.06003" />
    <circle
       style="fill:#4d4d4d;fill-opacity:1;stroke:#4d4d4d;stop-color:#000000"
       id="path16431-3"
       cx="59.42292"
       cy="71.229652"
       r="5.06003" />
  </g>
</svg>
