<svg id="Capa_2" xmlns="http://www.w3.org/2000/svg" xmlns:xlink="http://www.w3.org/1999/xlink" viewBox="0 0 69.02 80">
<defs >
<style >
.cls-1{fill:#c89aed;}.cls-2{fill:#fff;}.cls-3{fill:#f8ffbf;}.cls-4{fill:#7b7be8;}.cls-5{fill:#a88347;}.cls-6{fill:#782ab5;}.cls-7{stroke-miterlimit:10;}.cls-7,.cls-8,.cls-9{stroke:#000;}.cls-7,.cls-9,.cls-10,.cls-11,.cls-12{fill:none;}.cls-8,.cls-9,.cls-10{stroke-linecap:round;stroke-linejoin:round;}.cls-13{fill:#1c46ff;}.cls-10{stroke:#deb778;stroke-dasharray:0 0 0 4.06;}.cls-14{fill:#deb778;}.cls-15{fill:url(#USGS_19_Inundación_de_tierra_2);}.cls-12{stroke:#1d1d1b;stroke-dasharray:0 0 2 2;stroke-width:.3px;}.cls-16{fill:#cf5f2b;}.cls-17{fill:#fcf0c5;}
</style>
<pattern id="USGS_19_Inundación_de_tierra_2" x="0" y="0" width="72" height="72" patternTransform="translate(51.52 -16063) rotate(-90)" patternUnits="userSpaceOnUse" viewBox="0 0 72 72">
<g >
<rect class="cls-11" width="72" height="72">
</rect>
<g >
<line class="cls-12" x1="71" y1="71" x2="144.44" y2="71">
</line>
<line class="cls-12" x1="71" y1="67" x2="144.44" y2="67">
</line>
<line class="cls-12" x1="71" y1="63" x2="144.44" y2="63">
</line>
<line class="cls-12" x1="71" y1="59" x2="144.44" y2="59">
</line>
<line class="cls-12" x1="71" y1="55" x2="144.44" y2="55">
</line>
<line class="cls-12" x1="71" y1="51" x2="144.44" y2="51">
</line>
<line class="cls-12" x1="71" y1="47" x2="144.44" y2="47">
</line>
<line class="cls-12" x1="71" y1="43" x2="144.44" y2="43">
</line>
<line class="cls-12" x1="71" y1="39" x2="144.44" y2="39">
</line>
<line class="cls-12" x1="71" y1="35" x2="144.44" y2="35">
</line>
<line class="cls-12" x1="71" y1="31" x2="144.44" y2="31">
</line>
<line class="cls-12" x1="71" y1="27" x2="144.44" y2="27">
</line>
<line class="cls-12" x1="71" y1="23" x2="144.44" y2="23">
</line>
<line class="cls-12" x1="71" y1="19" x2="144.44" y2="19">
</line>
<line class="cls-12" x1="71" y1="15" x2="144.44" y2="15">
</line>
<line class="cls-12" x1="71" y1="11" x2="144.44" y2="11">
</line>
<line class="cls-12" x1="71" y1="7" x2="144.44" y2="7">
</line>
<line class="cls-12" x1="71" y1="3" x2="144.44" y2="3">
</line>
</g>
<g >
<line class="cls-12" x1="-1" y1="71" x2="72.44" y2="71">
</line>
<line class="cls-12" x1="-1" y1="67" x2="72.44" y2="67">
</line>
<line class="cls-12" x1="-1" y1="63" x2="72.44" y2="63">
</line>
<line class="cls-12" x1="-1" y1="59" x2="72.44" y2="59">
</line>
<line class="cls-12" x1="-1" y1="55" x2="72.44" y2="55">
</line>
<line class="cls-12" x1="-1" y1="51" x2="72.44" y2="51">
</line>
<line class="cls-12" x1="-1" y1="47" x2="72.44" y2="47">
</line>
<line class="cls-12" x1="-1" y1="43" x2="72.44" y2="43">
</line>
<line class="cls-12" x1="-1" y1="39" x2="72.44" y2="39">
</line>
<line class="cls-12" x1="-1" y1="35" x2="72.44" y2="35">
</line>
<line class="cls-12" x1="-1" y1="31" x2="72.44" y2="31">
</line>
<line class="cls-12" x1="-1" y1="27" x2="72.44" y2="27">
</line>
<line class="cls-12" x1="-1" y1="23" x2="72.44" y2="23">
</line>
<line class="cls-12" x1="-1" y1="19" x2="72.44" y2="19">
</line>
<line class="cls-12" x1="-1" y1="15" x2="72.44" y2="15">
</line>
<line class="cls-12" x1="-1" y1="11" x2="72.44" y2="11">
</line>
<line class="cls-12" x1="-1" y1="7" x2="72.44" y2="7">
</line>
<line class="cls-12" x1="-1" y1="3" x2="72.44" y2="3">
</line>
<line class="cls-12" x1="1.04" y1="69" x2="74.48" y2="69">
</line>
<line class="cls-12" x1="1.04" y1="65" x2="74.48" y2="65">
</line>
<line class="cls-12" x1="1.04" y1="61" x2="74.48" y2="61">
</line>
<line class="cls-12" x1="1.04" y1="57" x2="74.48" y2="57">
</line>
<line class="cls-12" x1="1.04" y1="53" x2="74.48" y2="53">
</line>
<line class="cls-12" x1="1.04" y1="49" x2="74.48" y2="49">
</line>
<line class="cls-12" x1="1.04" y1="45" x2="74.48" y2="45">
</line>
<line class="cls-12" x1="1.04" y1="41" x2="74.48" y2="41">
</line>
<line class="cls-12" x1="1.04" y1="37" x2="74.48" y2="37">
</line>
<line class="cls-12" x1="1.04" y1="33" x2="74.48" y2="33">
</line>
<line class="cls-12" x1="1.04" y1="29" x2="74.48" y2="29">
</line>
<line class="cls-12" x1="1.04" y1="25" x2="74.48" y2="25">
</line>
<line class="cls-12" x1="1.04" y1="21" x2="74.48" y2="21">
</line>
<line class="cls-12" x1="1.04" y1="17" x2="74.48" y2="17">
</line>
<line class="cls-12" x1="1.04" y1="13" x2="74.48" y2="13">
</line>
<line class="cls-12" x1="1.04" y1="9" x2="74.48" y2="9">
</line>
<line class="cls-12" x1="1.04" y1="5" x2="74.48" y2="5">
</line>
<line class="cls-12" x1="1.04" y1="1" x2="74.48" y2="1">
</line>
</g>
<g >
<line class="cls-12" x1="-73" y1="71" x2=".44" y2="71">
</line>
<line class="cls-12" x1="-73" y1="67" x2=".44" y2="67">
</line>
<line class="cls-12" x1="-73" y1="63" x2=".44" y2="63">
</line>
<line class="cls-12" x1="-73" y1="59" x2=".44" y2="59">
</line>
<line class="cls-12" x1="-73" y1="55" x2=".44" y2="55">
</line>
<line class="cls-12" x1="-73" y1="51" x2=".44" y2="51">
</line>
<line class="cls-12" x1="-73" y1="47" x2=".44" y2="47">
</line>
<line class="cls-12" x1="-73" y1="43" x2=".44" y2="43">
</line>
<line class="cls-12" x1="-73" y1="39" x2=".44" y2="39">
</line>
<line class="cls-12" x1="-73" y1="35" x2=".44" y2="35">
</line>
<line class="cls-12" x1="-73" y1="31" x2=".44" y2="31">
</line>
<line class="cls-12" x1="-73" y1="27" x2=".44" y2="27">
</line>
<line class="cls-12" x1="-73" y1="23" x2=".44" y2="23">
</line>
<line class="cls-12" x1="-73" y1="19" x2=".44" y2="19">
</line>
<line class="cls-12" x1="-73" y1="15" x2=".44" y2="15">
</line>
<line class="cls-12" x1="-73" y1="11" x2=".44" y2="11">
</line>
<line class="cls-12" x1="-73" y1="7" x2=".44" y2="7">
</line>
<line class="cls-12" x1="-73" y1="3" x2=".44" y2="3">
</line>
<line class="cls-12" x1="-70.96" y1="69" x2="2.48" y2="69">
</line>
<line class="cls-12" x1="-70.96" y1="65" x2="2.48" y2="65">
</line>
<line class="cls-12" x1="-70.96" y1="61" x2="2.48" y2="61">
</line>
<line class="cls-12" x1="-70.96" y1="57" x2="2.48" y2="57">
</line>
<line class="cls-12" x1="-70.96" y1="53" x2="2.48" y2="53">
</line>
<line class="cls-12" x1="-70.96" y1="49" x2="2.48" y2="49">
</line>
<line class="cls-12" x1="-70.96" y1="45" x2="2.48" y2="45">
</line>
<line class="cls-12" x1="-70.96" y1="41" x2="2.48" y2="41">
</line>
<line class="cls-12" x1="-70.96" y1="37" x2="2.48" y2="37">
</line>
<line class="cls-12" x1="-70.96" y1="33" x2="2.48" y2="33">
</line>
<line class="cls-12" x1="-70.96" y1="29" x2="2.48" y2="29">
</line>
<line class="cls-12" x1="-70.96" y1="25" x2="2.48" y2="25">
</line>
<line class="cls-12" x1="-70.96" y1="21" x2="2.48" y2="21">
</line>
<line class="cls-12" x1="-70.96" y1="17" x2="2.48" y2="17">
</line>
<line class="cls-12" x1="-70.96" y1="13" x2="2.48" y2="13">
</line>
<line class="cls-12" x1="-70.96" y1="9" x2="2.48" y2="9">
</line>
<line class="cls-12" x1="-70.96" y1="5" x2="2.48" y2="5">
</line>
<line class="cls-12" x1="-70.96" y1="1" x2="2.48" y2="1">
</line>
</g>
</g>
</pattern>
</defs>
  <path
     style="opacity:1;vector-effect:none;fill:#cccccc;fill-opacity:1;fill-rule:nonzero;stroke:none;stroke-width:4.49546146;stroke-linecap:butt;stroke-linejoin:miter;stroke-miterlimit:4;stroke-dasharray:none;stroke-dashoffset:0;stroke-opacity:1"
     d="M -0.08007812,0.36132812 V 80.361328 H 68.919922 V 0.36132812 Z"
     id="rect4304"/>

<g id="Characters">
<g >
<path class="cls-1" d="M17.59,32.33s-1.81,3.49-1.57,6.99c.48,3.86,4.46,5.54,4.46,5.54l1.81,7.83,1.2,1.33v3.01s-11.57,3.49-16.27,6.75c2.17,9.16,4.46,10.72,4.46,10.72,0,0,26.51,3.74,35.66,2.77s12.17-2.77,12.17-2.77l2.05-11.33s-10.24-4.94-15.66-5.9c.48-3.13,.24-3.86,.24-3.86,0,0,2.17-4.34,2.53-8.92,5.06-.84,6.99-7.11,3.37-11.57-1.81-11.45-4.22-14.58-4.22-14.58,0,0-20.48-6.99-27.35,1.69-2.29,6.99-2.89,12.29-2.89,12.29Z">
</path>
<path class="cls-3" d="M31.83,34.62s-7.43-.19-9.36,.19c-.1,4.63,1.06,5.21,1.06,5.21,0,0,5.5,.39,7.53-.1,2.12-3.28,.77-5.31,.77-5.31Z">
</path>
<path class="cls-2" d="M35.11,19.36l-.14,40.3,5.73-1.18,1.72-3.78,3.79-2.23s3.77-16.15,3.66-22.65-2.69-10.64-2.69-10.64l-12.07,.17Z">
</path>
<path class="cls-3" d="M38.37,39.72s-1.39-4.18-.6-5.38c5.97-.4,9.06,.6,9.06,.6,0,0,.4,3.58-.9,5.08-5.48,.9-7.57-.3-7.57-.3Z">
</path>
<path class="cls-16" d="M23.49,57.03s-11.56,3.92-15.81,6.31c.66,7.04,3.05,12.08,3.05,12.08,0,0,16.2,3.05,28.28,2.26s21.38-4.12,21.38-4.12l1.86-10.36s-13.31-5.63-16.35-5.93c.02,7.66-2.77,15.09-6.49,18.01-5.05,1.86-9.96-1.06-9.96-1.06,0,0-6.62-5.44-5.97-17.19Z">
</path>
<path class="cls-2" d="M23.97,59.97s3.06,4.3,5.89,4.75l1.25,1.36s5.02,.42,6.91,.23c1.28-1.48,1.7-1.7,1.7-1.7,0,0,4.64-2.04,6-5.21-.79,7.81-1.87,10.98-5.66,15.4-7.81,1.81-11.43-.57-11.43-.57,0,0-5.55-7.02-4.64-14.26Z">
</path>
<path d="M32.6,71.86l-2.03-2.96-1.86-.34,.93-2.54s4.65,1.18,9.65,.17c1.35,.59,1.61,2.03,1.61,2.03l-1.95,.68-1.95,2.62,1.1,3.22-6.68-.25,1.18-2.62Z">
</path>
<path d="M45.69,54.59l-11.88,12.24-10.52,7.35-12.88-2.9-2.09-8.43s14.1-5.36,15.16-5.81c0-3.01-.2-3.35-.2-3.35l5.08,3.45,.91,1.54s4.53,1.72,11.43-.18l1.18-1.81,3.81-2.09Z">
</path>
<polygon class="cls-16" points="9.41 62.77 23.57 57.6 23.93 55.08 24.57 58.56 9.78 64.54 9.41 62.77">
</polygon>
<path class="cls-8" d="M17.59,32.33s-2.53,4.29-1.85,7.23c1.98,4.37,4.57,4.91,4.57,4.91l-1.3-8.53-1.42-3.61Z">
</path>
<path class="cls-4" d="M28.52,34.39s-3.07-3.36-4.76-3.07c-2.15,.52-3.25,1.39-3.25,1.39l2.03,2.61s2.09-1.62,5.97-.93Z">
</path>
<path class="cls-1" d="M27.65,18.31h0c2.04,0,4.31,.79,7.07,1.98,2.46,1.05,4.99,1.61,7.31,1.61,2.06,0,3.8-.43,4.97-1.21,1.75,3.2,2.47,11.01,1.42,16.98-1.25,7.17-2.67,13.38-3.17,14.45-.5,.32-2.21,1.18-3.65,1.86-.2,.1-.37,.26-.47,.46l-1.37,2.8c-.72,.27-2.61,.87-4.96,.87-1.66,0-3.25-.3-4.72-.88-.99-1.65-1.53-2.17-2.2-2.17-.03,0-.06,0-.08,0-1.05-.42-3.11-1.45-4.14-2.79-.6-1.77-6.55-20.02-1.59-31.32,1.78-1.83,3.51-2.65,5.59-2.65m0-1c-2.25,0-4.31,.86-6.43,3.08-5.55,12.33,1.54,32.36,1.54,32.36,1.54,2.16,5.03,3.39,5.03,3.39,0,0,.01-.07,.09-.07,.15,0,.53,.28,1.51,1.96,1.9,.81,3.76,1.08,5.41,1.08,3.29,0,5.69-1.08,5.69-1.08l1.54-3.15s3.36-1.59,3.95-2.06c.59-.47,2.3-8.51,3.43-14.98,1.13-6.47,.34-15.77-2.23-18.65-.79,1.01-2.67,1.7-5.15,1.7-2,0-4.39-.45-6.91-1.53-2.82-1.21-5.23-2.06-7.47-2.06h0Z">
</path>
<path class="cls-4" d="M42.07,34.43s2.87-3.23,4.26-3c1.68,.46,2.96,1.45,2.96,1.45l-1.91,2.15s-3.91-.71-5.31-.6Z">
</path>
<path class="cls-2" d="M23.41,41.79s4.93,.5,7.14,.1c-4.23,3.62-5.33,2.21-7.14-.1Z">
</path>
<path class="cls-9" d="M17.73,32.5s-2.25,1.76-2.05,6.65c1.27,4.98,4.89,5.57,4.89,5.57">
</path>
<path class="cls-8" d="M20.66,20.67s-2.35,.68-3.32,2.64c-1.17,2.44-.2,11.06,2.05,14.48-.49-6.94,0-12.92,1.27-17.12Z">
</path>
<path class="cls-8" d="M20.27,20.67s-.2-4.89,4.59-7.43,17.59-4.69,23.65,3.42c-1.95,4.98-8.41,3.91-12.61,2.54s-9.38-4.79-15.64,1.47Z">
</path>
<path class="cls-8" d="M47.25,18.13s4.66,7.43,2.61,19.74c3.91-7.04,3.06-16.22,1.79-17.79s-4.4-1.95-4.4-1.95Z">
</path>
<path class="cls-9" d="M19.31,37.09s1.99,14.39,3.76,16.28c1.88,2.1,4.87,3.65,4.87,3.65">
</path>
<path class="cls-9" d="M51.56,32.5s2.25,1.76,2.05,6.65c-1.27,4.98-4.89,5.57-4.89,5.57">
</path>
<path class="cls-9" d="M49.98,37.09s-1.99,14.39-3.76,16.28c-1.88,2.1-4.87,3.65-4.87,3.65">
</path>
<path class="cls-9" d="M26.7,54.49l2.39,3.97c2.2,.85,6.54,1.93,11.54,.07l1.79-3.82">
</path>
<path d="M38.65,45.04c.88,1.07,1.87,2.14,3.05,2.91,.56,.79,.85,1.77,.95,2.71-.47-.79-1-1.49-1.56-2.14l.15,.13c-1.44-.61-2.65-1.71-3.42-3.07-.13-.24-.04-.55,.2-.68,.22-.12,.5-.05,.65,.14h0Z">
</path>
<path d="M31.46,45.58c-.78,1.36-1.98,2.46-3.42,3.07,0,0,.15-.13,.15-.13-.56,.65-1.09,1.35-1.56,2.14,.12-.94,.37-2.03,1.03-2.76,1.15-.76,2.11-1.83,2.98-2.88,.37-.46,1.12,.06,.82,.56h0Z">
</path>
<path class="cls-9" d="M28.42,48.33c1.11,.44,2.38,.86,4,1.11,1.89,1.88,4.23,.55,4.56,.16,1.67,.03,2.97-.61,4.14-1.23">
</path>
<path class="cls-9" d="M38.81,50.99c0,.86-1.74,1.56-3.89,1.56s-3.89-.7-3.89-1.56">
</path>
<path class="cls-9" d="M37.42,43.38s.77,.41,1.06,.67c.07,.83-.94,1.68-.94,1.68l-1.03-.88-1.87,1.9-1.88-1.9-1.03,.88s-1.01-.85-.94-1.68c.29-.26,1.06-.67,1.06-.67">
</path>
<path d="M43.86,27.81c-2.5-1.98-6.29-.85-9.16-.33-2.94-.38-6.81-1.73-9.38,.33,.4-.74,1.23-1.14,2-1.43,2.04-.75,5.98-.34,7.16,.12,2.92-.55,7.31-1.38,9.38,1.31h0Z">
</path>
<path d="M37.8,23.68c-.99,.57-2.02,.84-3.11,1.04-1.09-.1-2.11-.45-3.15-1.02,1.06-.21,2.13-.11,3.17,.05h-.23c1.1-.18,2.22-.29,3.32-.07h0Z">
</path>
<path class="cls-9" d="M37.51,34.67c-.84,2.93,1.07,5.39,1.07,5.39,0,0,4.52,1.11,7.59-.18,1.67-2.36,.92-5.05,.92-5.05,0,0-4.83-.47-12.15-.48h-.28c-7.32,0-12.15,.48-12.15,.48,0,0-.75,2.7,.92,5.05,3.08,1.29,7.59,.18,7.59,.18,0,0,1.91-2.46,1.07-5.39">
</path>
<path d="M31.67,30.16c1.88,.25,2.17,1.71,1.35,3.23-.29,.46-.89,1.77-1.61,1.17-.22-.23-.15-.63,.13-.78,1.4-.99,2.38-2.89,.13-3.62h0Z">
</path>
<path d="M20.5,32.9s1.57-1.85,3.39-2.34c2.9,.24,8.02,3.22,8.02,3.22l-4.07,.64s-2.5-1.97-3.99-2.42c-1.33-.32-2.5,.85-3.35,.89Z">
</path>
<path d="M38.24,30.16c-2.25,.73-1.26,2.63,.13,3.62,.25,.14,.33,.45,.19,.7-.66,.8-1.39-.62-1.67-1.09-.82-1.52-.52-2.99,1.35-3.23h0Z">
</path>
<path d="M49.4,32.9s-1.57-1.85-3.39-2.34c-2.9,.24-8.02,3.22-8.02,3.22l4.07,.64s2.5-1.97,3.99-2.42c1.33-.32,2.5,.85,3.35,.89Z">
</path>
<path class="cls-9" d="M23.27,53.69s.28,6.46,1.1,11.6,5.52,9.94,5.52,9.94">
</path>
<path class="cls-9" d="M46.14,53.69s-.28,6.46-1.1,11.6-5.52,9.94-5.52,9.94">
</path>
<path class="cls-9" d="M23.21,56.95s-11.49,3.98-15.25,6.35">
</path>
<path class="cls-9" d="M46.09,56.95s11.49,3.98,15.25,6.35">
</path>
<path class="cls-9" d="M16.07,59.66s-1.62,8.08,2.18,13.92">
</path>
<path class="cls-9" d="M53.67,59.97s1.55,7.77-2.24,13.61">
</path>
<path class="cls-9" d="M23.75,58.82s1.44,4.49,6.43,5.88c-2.16,3.27-2,6.43-2,6.43l-2.05-1.33">
</path>
<path class="cls-9" d="M45.71,58.95s-1.44,4.49-6.43,5.88c2.16,3.27,2,6.43,2,6.43l2.05-1.33">
</path>
<line class="cls-9" x1="30.18" y1="64.7" x2="31.15" y2="66.46">
</line>
<line class="cls-9" x1="39.28" y1="64.83" x2="38.49" y2="66.29">
</line>
<path class="cls-9" d="M29.57,65.94s3.74,1.93,10.33,.18">
</path>
<path class="cls-9" d="M30.14,66.38s-.35,3.83,3.78,5.93c.51,.26,1.11,.25,1.61,0,2.53-1.3,3.97-3.76,3.97-5.83">
</path>
<path class="cls-9" d="M32.59,71.7c0,.1-1.03,3.27-1.03,3.27">
</path>
<path class="cls-9" d="M36.92,71.57c0,.1,.76,3.24,.76,3.24">
</path>
<line class="cls-9" x1="28.69" y1="68.22" x2="30.64" y2="69.12">
</line>
<line class="cls-9" x1="39.17" y1="69.02" x2="40.82" y2="68.16">
</line>
<path class="cls-13" d="M46.21,15.47s-11.69,1.76-18.72-2.55c7.82-2.02,14.44-1.13,18.72,2.55Z">
</path>
</g>
</g>

  <path
     style="opacity:1;vector-effect:none;fill:#8d5fd3;fill-opacity:1;fill-rule:nonzero;stroke:none;stroke-width:2.35769176;stroke-linecap:butt;stroke-linejoin:miter;stroke-miterlimit:4;stroke-dasharray:none;stroke-dashoffset:0;stroke-opacity:0.44186048"
     d="M 0,1.2e-7 V 80 H 69 V 1.2e-7 Z M 35.240234,4.658203 c 6.067554,0.1120422 16.269844,1.4698438 23.589844,3.8398438 3.46,9.2400002 5.269531,19.9506252 5.269531,31.1406252 0,11.47 -1.89,22.390234 -5.5,31.740234 -7.2,2.16 -14.940375,3.376539 -23.019531,3.259766 -8.580486,-0.124019 -18.036001,-1.572896 -25.240234,-3.86914 -3.4500003,-9.22 -5.2597659,-19.930859 -5.2597659,-31.130859 0,-11.2 1.8904687,-22.380469 5.4804689,-31.730469 C 17.682894,5.1336941 29.17268,4.5461608 35.240234,4.658203 Z"
     id="rect4304" />


</svg>
