<?xml version="1.0" encoding="UTF-8"?><svg id="Capa_2" xmlns="http://www.w3.org/2000/svg" xmlns:xlink="http://www.w3.org/1999/xlink" viewBox="0 0 69.02 80"><defs><style>.cls-1{fill:#c89aed;}.cls-2{fill:#fff;}.cls-3,.cls-4{fill:#f8ffbf;}.cls-5{fill:#7b7be8;}.cls-6{fill:#a88347;}.cls-7{fill:#782ab5;}.cls-8,.cls-9,.cls-10,.cls-4,.cls-11,.cls-12{stroke:#000;}.cls-8,.cls-9,.cls-4,.cls-11,.cls-12{stroke-miterlimit:10;}.cls-8,.cls-9,.cls-13,.cls-11,.cls-14,.cls-15,.cls-12{fill:none;}.cls-9,.cls-10,.cls-13,.cls-11,.cls-12{stroke-linecap:round;}.cls-10,.cls-13{stroke-linejoin:round;}.cls-16{fill:#1c46ff;}.cls-4,.cls-11{stroke-width:.5px;}.cls-13{stroke:#deb778;stroke-dasharray:0 0 0 4.06;}.cls-17{fill:#deb778;}.cls-18{fill:url(#USGS_19_Inundación_de_tierra_2);}.cls-15{stroke:#1d1d1b;stroke-dasharray:0 0 2 2;stroke-width:.3px;}.cls-19{fill:#cf5f2b;}.cls-20{fill:#fcf0c5;}.cls-12{stroke-width:.56px;}.cls-21{fill:#b83521;}</style><pattern id="USGS_19_Inundación_de_tierra_2" x="0" y="0" width="72" height="72" patternTransform="translate(-20.48 -16063) rotate(-90)" patternUnits="userSpaceOnUse" viewBox="0 0 72 72"><g><rect class="cls-14" width="72" height="72"/><g><line class="cls-15" x1="71" y1="71" x2="144.44" y2="71"/><line class="cls-15" x1="71" y1="67" x2="144.44" y2="67"/><line class="cls-15" x1="71" y1="63" x2="144.44" y2="63"/><line class="cls-15" x1="71" y1="59" x2="144.44" y2="59"/><line class="cls-15" x1="71" y1="55" x2="144.44" y2="55"/><line class="cls-15" x1="71" y1="51" x2="144.44" y2="51"/><line class="cls-15" x1="71" y1="47" x2="144.44" y2="47"/><line class="cls-15" x1="71" y1="43" x2="144.44" y2="43"/><line class="cls-15" x1="71" y1="39" x2="144.44" y2="39"/><line class="cls-15" x1="71" y1="35" x2="144.44" y2="35"/><line class="cls-15" x1="71" y1="31" x2="144.44" y2="31"/><line class="cls-15" x1="71" y1="27" x2="144.44" y2="27"/><line class="cls-15" x1="71" y1="23" x2="144.44" y2="23"/><line class="cls-15" x1="71" y1="19" x2="144.44" y2="19"/><line class="cls-15" x1="71" y1="15" x2="144.44" y2="15"/><line class="cls-15" x1="71" y1="11" x2="144.44" y2="11"/><line class="cls-15" x1="71" y1="7" x2="144.44" y2="7"/><line class="cls-15" x1="71" y1="3" x2="144.44" y2="3"/></g><g><line class="cls-15" x1="-1" y1="71" x2="72.44" y2="71"/><line class="cls-15" x1="-1" y1="67" x2="72.44" y2="67"/><line class="cls-15" x1="-1" y1="63" x2="72.44" y2="63"/><line class="cls-15" x1="-1" y1="59" x2="72.44" y2="59"/><line class="cls-15" x1="-1" y1="55" x2="72.44" y2="55"/><line class="cls-15" x1="-1" y1="51" x2="72.44" y2="51"/><line class="cls-15" x1="-1" y1="47" x2="72.44" y2="47"/><line class="cls-15" x1="-1" y1="43" x2="72.44" y2="43"/><line class="cls-15" x1="-1" y1="39" x2="72.44" y2="39"/><line class="cls-15" x1="-1" y1="35" x2="72.44" y2="35"/><line class="cls-15" x1="-1" y1="31" x2="72.44" y2="31"/><line class="cls-15" x1="-1" y1="27" x2="72.44" y2="27"/><line class="cls-15" x1="-1" y1="23" x2="72.44" y2="23"/><line class="cls-15" x1="-1" y1="19" x2="72.44" y2="19"/><line class="cls-15" x1="-1" y1="15" x2="72.44" y2="15"/><line class="cls-15" x1="-1" y1="11" x2="72.44" y2="11"/><line class="cls-15" x1="-1" y1="7" x2="72.44" y2="7"/><line class="cls-15" x1="-1" y1="3" x2="72.44" y2="3"/><line class="cls-15" x1="1.04" y1="69" x2="74.48" y2="69"/><line class="cls-15" x1="1.04" y1="65" x2="74.48" y2="65"/><line class="cls-15" x1="1.04" y1="61" x2="74.48" y2="61"/><line class="cls-15" x1="1.04" y1="57" x2="74.48" y2="57"/><line class="cls-15" x1="1.04" y1="53" x2="74.48" y2="53"/><line class="cls-15" x1="1.04" y1="49" x2="74.48" y2="49"/><line class="cls-15" x1="1.04" y1="45" x2="74.48" y2="45"/><line class="cls-15" x1="1.04" y1="41" x2="74.48" y2="41"/><line class="cls-15" x1="1.04" y1="37" x2="74.48" y2="37"/><line class="cls-15" x1="1.04" y1="33" x2="74.48" y2="33"/><line class="cls-15" x1="1.04" y1="29" x2="74.48" y2="29"/><line class="cls-15" x1="1.04" y1="25" x2="74.48" y2="25"/><line class="cls-15" x1="1.04" y1="21" x2="74.48" y2="21"/><line class="cls-15" x1="1.04" y1="17" x2="74.48" y2="17"/><line class="cls-15" x1="1.04" y1="13" x2="74.48" y2="13"/><line class="cls-15" x1="1.04" y1="9" x2="74.48" y2="9"/><line class="cls-15" x1="1.04" y1="5" x2="74.48" y2="5"/><line class="cls-15" x1="1.04" y1="1" x2="74.48" y2="1"/></g><g><line class="cls-15" x1="-73" y1="71" x2=".44" y2="71"/><line class="cls-15" x1="-73" y1="67" x2=".44" y2="67"/><line class="cls-15" x1="-73" y1="63" x2=".44" y2="63"/><line class="cls-15" x1="-73" y1="59" x2=".44" y2="59"/><line class="cls-15" x1="-73" y1="55" x2=".44" y2="55"/><line class="cls-15" x1="-73" y1="51" x2=".44" y2="51"/><line class="cls-15" x1="-73" y1="47" x2=".44" y2="47"/><line class="cls-15" x1="-73" y1="43" x2=".44" y2="43"/><line class="cls-15" x1="-73" y1="39" x2=".44" y2="39"/><line class="cls-15" x1="-73" y1="35" x2=".44" y2="35"/><line class="cls-15" x1="-73" y1="31" x2=".44" y2="31"/><line class="cls-15" x1="-73" y1="27" x2=".44" y2="27"/><line class="cls-15" x1="-73" y1="23" x2=".44" y2="23"/><line class="cls-15" x1="-73" y1="19" x2=".44" y2="19"/><line class="cls-15" x1="-73" y1="15" x2=".44" y2="15"/><line class="cls-15" x1="-73" y1="11" x2=".44" y2="11"/><line class="cls-15" x1="-73" y1="7" x2=".44" y2="7"/><line class="cls-15" x1="-73" y1="3" x2=".44" y2="3"/><line class="cls-15" x1="-70.96" y1="69" x2="2.48" y2="69"/><line class="cls-15" x1="-70.96" y1="65" x2="2.48" y2="65"/><line class="cls-15" x1="-70.96" y1="61" x2="2.48" y2="61"/><line class="cls-15" x1="-70.96" y1="57" x2="2.48" y2="57"/><line class="cls-15" x1="-70.96" y1="53" x2="2.48" y2="53"/><line class="cls-15" x1="-70.96" y1="49" x2="2.48" y2="49"/><line class="cls-15" x1="-70.96" y1="45" x2="2.48" y2="45"/><line class="cls-15" x1="-70.96" y1="41" x2="2.48" y2="41"/><line class="cls-15" x1="-70.96" y1="37" x2="2.48" y2="37"/><line class="cls-15" x1="-70.96" y1="33" x2="2.48" y2="33"/><line class="cls-15" x1="-70.96" y1="29" x2="2.48" y2="29"/><line class="cls-15" x1="-70.96" y1="25" x2="2.48" y2="25"/><line class="cls-15" x1="-70.96" y1="21" x2="2.48" y2="21"/><line class="cls-15" x1="-70.96" y1="17" x2="2.48" y2="17"/><line class="cls-15" x1="-70.96" y1="13" x2="2.48" y2="13"/><line class="cls-15" x1="-70.96" y1="9" x2="2.48" y2="9"/><line class="cls-15" x1="-70.96" y1="5" x2="2.48" y2="5"/><line class="cls-15" x1="-70.96" y1="1" x2="2.48" y2="1"/></g></g></pattern></defs><g id="BG"><g><path class="cls-7" d="M64.02,40c0,11.47-1.89,22.39-5.5,31.74-7.2,2.16-14.94,3.26-23.02,3.26-.49,0-.98-.01-1.47-.02h-.17c-8.18-.15-16.29-1.47-23.6-3.85-3.45-9.22-5.26-19.93-5.26-31.13s1.89-22.38,5.48-31.73c6.73-2.01,14.13-3.13,21.6-3.26,.48-.01,.97-.01,1.45-.01,.54,0,1.08,.01,1.63,.02,8.16,.15,16.27,1.47,23.59,3.84,3.46,9.24,5.27,19.95,5.27,31.14Z"/><path class="cls-18" d="M34.03,5.59V74.98h-.17c-8.18-.15-16.29-1.47-23.6-3.85-3.45-9.22-5.26-19.93-5.26-31.13s1.89-22.38,5.48-31.73c6.73-2.01,14.13-3.13,21.6-3.26,.65,.16,1.3,.36,1.95,.58Z"/></g></g><g id="Characters"><g><path class="cls-1" d="M61.14,66.34l-.2,.63-2.25,7.12s-10.59,3.48-25.44,2.45c-5.62-.39-10.39-1.11-14.15-1.86-1.84-.37-3.43-.74-4.77-1.08-3.15-.81-4.85-1.45-4.85-1.45l-.51-6.33v-.05S18.01,20.88,18.01,20.88c0,0,3.48-11.36,16.27-12.14,12.78-.77,17.82,9.82,18.47,12.66,.64,2.84,8.39,44.94,8.39,44.94Z"/><path class="cls-2" d="M34.42,22.28V58.86s3.11-.37,5.9-4.75c3.39-5.23,7.55-13.17,7.55-13.17,0,0-.87-10.85-3-15.88s-6.19-6.71-10.45-2.77Z"/><path class="cls-21" d="M26.3,52.82v1.84s4.14,1.24,4.14,1.24c0,0,1.76,2.79,4.34,2.59s3.83-2.28,3.83-2.28l4.24-1.66,.83-1.24,.52,.31,1.97,6.52s11.48,3.83,13.97,6.72c-1.44,7.23-1.86,7.86-1.86,7.86l-13.45-.1-5.9-7.45s-1.86,1.66-4.45,1.86-3.52-2.07-3.52-2.07l-6.52,9.31-15.62-3.72,.16-6.78,14.34-5.28,2.98-7.67Z"/><path class="cls-10" d="M39.09,56.33l-11.46,18.34-17.41-2.8-1.24-6.1,14.57-4.85,2.21-8.32,1.27-1.78,3.41,5.08s2.08,2.61,4.34,2.59,4.31-2.15,4.31-2.15Z"/><polygon class="cls-21" points="25.25 55.23 23.8 60.64 8.93 66.29 9.77 68.19 25.1 61.94 25.25 55.23"/><path class="cls-10" d="M60.94,66.97l-6.5-3.4,1.03,10.53-5.15,1.26-1.14-13.62-3.09-1.25-1.49-7.1-1.14-.45-.35-3.21,4.46-8s-1.6-12.13-2.28-15.45c-.69-3.31-4.46-8.12-10.87-4-3.66-3.43-7.78-1.83-10.07,2.63-2.28,4.46-2.63,15.79-2.63,15.79l5.04,9.26-.46,2.86-.92,.35-2.06,7.32-3.08,1.37-1.14,12.82v.1s-4.81-.91-4.81-.91l.04-.27,1.56-10.14-6.52,2.52-.39-.21L18.01,20.88s3.48-11.36,16.27-12.14c12.78-.77,17.82,9.82,18.47,12.66,.64,2.84,8.39,44.94,8.39,44.94l-.2,.63Z"/><polygon class="cls-16" points="18.15 46.98 16.43 73.97 14.33 73.6 18.15 46.98"/><path class="cls-16" d="M10.71,65.62L18.95,22.27s4.46-12.93,18.3-12.93c-10.98-1.37-17.16,6.29-19.45,13.38s-8.83,43.04-8.83,43.04l1.73-.15Z"/><polygon class="cls-16" points="47.7 41.32 52.72 74.49 50.66 74.72 47.7 41.32"/><path class="cls-16" d="M47.28,32.57s-2.19-6.43-3.1-8.61c2.18,3.56,8.15,2.3,8.04-1.38,1.15,5.17,1.61,10.1,1.61,10.1,0,0-1.61-6.2-6.54-.11Z"/><path class="cls-5" d="M32.86,33.54l-.43,3.89s-6.42,1.85-8.77-.37c0-3.09,.19-4.26,.19-4.26,0,0,5-1.6,9.01,.74Z"/><path class="cls-5" d="M36.68,33.54l.43,3.89s6.42,1.85,8.77-.37c0-3.09-.19-4.26-.19-4.26,0,0-5-1.6-9.01,.74Z"/><path class="cls-3" d="M32.53,36.79s-3.29-1.17-5.72-.91c-1.87,.66-2.28,1.57-2.28,1.57,0,0,3.8,1.58,7.9-.02l.1-.64Z"/><path class="cls-3" d="M36.8,36.79s3.29-1.17,5.72-.91c1.87,.66,2.28,1.57,2.28,1.57,0,0-3.8,1.58-7.9-.02l-.1-.64Z"/><path class="cls-19" d="M45.17,58.01s-2.24,2.64-7.36,3.36c.88,1.36,1.12,2.88,1.12,2.88,0,0,5.76,0,7.76-2.08-1.04-2.8-1.52-4.16-1.52-4.16Z"/><path class="cls-2" d="M30.35,41.4s-4.08,.64-6.05-.76c3.06,3.44,4.9,3.18,6.05,.76Z"/><path class="cls-5" d="M31.87,37.95s-1.25,2.87-3.99,2.62-4.2-3.22-4.22-3.51c2.41,1.21,6.09,1.7,8.21,.89Z"/><path class="cls-5" d="M37.67,37.95s1.25,2.87,3.99,2.62,4.2-3.22,4.22-3.51c-2.41,1.21-6.09,1.7-8.21,.89Z"/><path class="cls-2" d="M38.77,69.04s-1.33,1.26-3.92,1.33v5.17h9.02l-5.1-6.5Z"/><circle class="cls-6" cx="34.93" cy="64.86" r="4.03"/><circle class="cls-21" cx="34.93" cy="64.86" r="2.39"/><path class="cls-20" d="M36.71,63.56s-.53-1.51-2.83-1.05c.79-1.31-.33-1.71-.33-1.71,0,0,3.42-1.18,5.06,2.23-.92-.26-1.91,.53-1.91,.53Z"/><path class="cls-20" d="M34.93,67.25s-.21,1.19,1.13,1.37c-2.91,1.01-4.52-1.11-4.94-1.71,1.11,.78,1.66-.74,1.66-.74,0,0,.97,1.03,2.15,1.07Z"/><path class="cls-1" d="M39.28,22.17c4.58,0,6.19,10.97,6.42,15.24l.25,2.82c-.86,1.97-5.29,11.87-9.13,15.78-.5,.51-1.23,.8-2,.8s-1.51-.29-2.01-.8c-4.03-4.09-9.06-14.72-9.67-16.01l.24-2.65c.3-5.25,2.03-15.18,6.41-15.18,1.41,0,2.65,.52,3.7,1.56l.35,.34c.19,.19,.45,.28,.7,.28s.51-.1,.71-.29l.34-.34c1.04-1.02,2.28-1.54,3.69-1.54m0-1c-1.68,0-3.16,.62-4.39,1.83l-.35,.35-.35-.34c-1.24-1.22-2.72-1.84-4.4-1.84-6.56,0-7.4,15.97-7.41,16.13l-.26,2.91s.03,.02,.04,.04c.05,.12,5.53,11.98,9.94,16.46,.69,.7,1.68,1.1,2.72,1.1s2.02-.4,2.71-1.1c4.17-4.24,8.91-15.09,9.44-16.32l-.27-3.07c-.01-.18-.86-16.15-7.42-16.15h0Z"/><path class="cls-21" d="M29.97,49s2.63-2.75,3.95-2.64c1.1,.22,.94,.28,.94,.28,0,0,1.1-.5,1.83-.14s2.79,2.51,2.79,2.51c0,0-1.37,1.95-4.62,2.2s-4.88-2.21-4.88-2.21Z"/><path class="cls-4" d="M38.27,47.88c-.2,.91-1.11,2.58-1.11,2.58,0,0-.12-.71-.58-2.3-1.83,.64-3.55,.04-3.55,.04,0,0-.08,.4-.56,2.2-.73-1.11-1.09-2.78-1.09-2.78,0,0,1.11-1.32,2.12-1.4s1.36,.33,1.36,.33c0,0,.98-.46,1.82-.05s1.59,1.38,1.59,1.38Z"/><path class="cls-9" d="M61.04,65.89l-8.44-44.83s-3.69-12.13-17.4-12.13c-13.71,0-17.4,12.13-17.4,12.13l-8.44,44.83"/><path class="cls-9" d="M50.49,74.33l-3.29-37.05s-.8-16.61-7.92-16.61c-2.05,0-3.59,.84-4.74,1.98-1.16-1.14-2.7-1.98-4.75-1.98-7.12,0-7.91,16.61-7.91,16.61l-3.3,37.05"/><path d="M18.01,47.42c-.44,6.15-1.26,13.02-2.08,19.13-.28,2.12-.61,4.23-.95,6.34-.04,.27-.3,.46-.57,.41-.26-.04-.45-.29-.42-.55,.25-2.12,.51-4.24,.81-6.36,.87-6.1,1.95-12.93,3.21-18.97h0Z"/><path d="M51.79,47.42c1.25,6.04,2.33,12.87,3.21,18.97,.3,2.12,.57,4.24,.81,6.36,.03,.27-.16,.52-.44,.55-.27,.03-.51-.15-.55-.42-.34-2.11-.66-4.22-.95-6.34-.82-6.11-1.64-12.98-2.08-19.13h0Z"/><line class="cls-9" x1="19.67" y1="61.97" x2="23.76" y2="60.38"/><line class="cls-9" x1="8.6" y1="66.3" x2="15.71" y2="63.52"/><path class="cls-9" d="M23.07,63.61l2.25-10.18s.56-.56,1.16-.5"/><path class="cls-9" d="M30.45,55.94s-2.89-.68-3.95-1.75v-4.2"/><line class="cls-9" x1="49.32" y1="61.67" x2="46" y2="60.38"/><line class="cls-9" x1="61.17" y1="66.3" x2="54.05" y2="63.52"/><path class="cls-9" d="M46.7,63.61l-2.25-10.18s-.56-.56-1.16-.5"/><path class="cls-9" d="M39.2,55.9s3-.63,4.07-1.7c0-2.49,0-4.52,0-4.52"/><path class="cls-9" d="M47.49,40.46s-5.08,12-9.6,16.6c-.81,.82-1.92,1.25-3.07,1.25h0c-1.15,0-2.26-.43-3.07-1.25-4.52-4.6-10.04-16.6-10.04-16.6"/><path d="M32.7,34.26c-2.95-.77-5.77-1.99-8.86-1.29,2.69-2.16,6.33-.95,9.27-.04,0,0-.41,1.33-.41,1.33h0Z"/><path d="M36.22,32.93c2.94-.9,6.58-2.12,9.27,.04-1.54-.19-2.94-.39-4.44,.06-1.46,.38-2.94,.84-4.42,1.23l-.41-1.33h0Z"/><path d="M31.12,28.94c2.56,.45,5,.39,7.57,.14-2.12,1.62-5.53,1.66-7.57-.14h0Z"/><path d="M32.58,36.75c-1.61-.32-4.41-.63-5.46-.6-.83,.42-1.68,.9-2.42,1.43,0,0,.05-.73,.05-.73,1.93,1.38,4.64,1.12,6.87,.68,0,0,.84-.16,.84-.16l-.4,.71c-.78,1.51-2.36,3.24-4.24,2.48,.84,.09,1.69-.11,2.25-.74,.56-.58,.95-1.33,1.3-2.08l.44,.54c-.47,.15-1.42,.37-1.9,.44-2.19,.33-4.61,.11-6.28-1.55,1.01-.74,2.1-1.32,3.25-1.77,2.02,.03,3.87,.66,5.7,1.38h0Z"/><path d="M36.84,36.75c1.84-.72,3.68-1.35,5.7-1.38,1.15,.46,2.24,1.03,3.25,1.77-1.68,1.66-4.09,1.88-6.28,1.55-.48-.07-1.44-.29-1.9-.44,0,0,.44-.54,.44-.54,.36,.75,.74,1.5,1.3,2.08,.57,.64,1.41,.83,2.25,.74-1.87,.76-3.46-.97-4.24-2.48,0,0-.4-.71-.4-.71l.84,.16c2.23,.44,4.95,.7,6.87-.68,0,0,.05,.73,.05,.73-.74-.53-1.6-1.01-2.42-1.43,0,0,.14,.04,.14,.04-1.83-.1-3.77,.28-5.61,.57h0Z"/><path class="cls-11" d="M32.51,40.69s-.04,1.45-.36,2.12c.68,.51,1,.75,1,.75l.53-1.05,.36,1.3s.66,.26,1.62-.13c.17-.9,.3-1.28,.3-1.28l.68,1.18,.94-.77s-.49-1.37-.62-2.14"/><path d="M29.96,49.01h.01c.13-.21,2.29-3.51,3.5-3.47,.53,.04,.97,.3,1.25,.52,.28-.22,.72-.48,1.24-.52,1.21-.04,3.37,3.26,3.5,3.46h.01s-.01,0-.01,0c-.2-.17-2.45-2.08-3.47-2.24-.47-.07-.92,.12-1.27,.37-.35-.24-.8-.45-1.28-.37-1.02,.16-3.27,2.07-3.47,2.24"/><path d="M29.97,49s2,1.11,4.76,1.11,4.74-1.1,4.74-1.1c0,0-1.19,3.33-4.57,3.33s-4.93-3.34-4.93-3.34Z"/><circle class="cls-9" cx="34.83" cy="64.84" r="4.31"/><circle class="cls-12" cx="34.83" cy="64.84" r="2.42"/><line class="cls-12" x1="30.92" y1="66.87" x2="25.28" y2="75.01"/><line class="cls-12" x1="38.61" y1="66.69" x2="44.87" y2="74.65"/></g></g><g id="Frame"><g><path class="cls-6" d="M62.56,4.88C54.4,1.94,45.12,.2,35.25,.02c-.57-.01-1.15-.02-1.72-.02C23.88,0,14.77,1.52,6.72,4.21,2.49,14.22,0,26.6,0,40s2.39,25.22,6.45,35.11c8.16,2.94,17.45,4.69,27.32,4.87,.58,.01,1.15,.02,1.73,.02,9.63,0,18.73-1.51,26.78-4.2,4.24-10.01,6.74-22.39,6.74-35.8s-2.4-25.24-6.46-35.12Zm-4.04,66.86c-7.2,2.16-14.94,3.26-23.02,3.26-.49,0-.98-.01-1.47-.02h-.17c-8.18-.15-16.29-1.47-23.6-3.85-3.45-9.22-5.26-19.93-5.26-31.13s1.89-22.38,5.48-31.73c6.73-2.01,14.13-3.13,21.6-3.26,.48-.01,.97-.01,1.45-.01,.54,0,1.08,.01,1.63,.02,8.16,.15,16.27,1.47,23.59,3.84,3.46,9.24,5.27,19.95,5.27,31.14s-1.89,22.39-5.5,31.74Z"/><path class="cls-17" d="M17.21,2.06h0c1.63,.63,2.06,2.75,.81,3.97l-1.26,1.22s8.35-2.37,18.84-1.69h0c-1-1.49-.45-3.52,1.14-4.34l1-.51S28.26-.43,17.21,2.06Z"/><path class="cls-20" d="M21.81,1.66s.7,2.18-.22,3.1c3.77-.41,7.98-.74,11.12-.74-.33-1.33,1.26-3.4,1.26-3.4,0,0-6.17-.26-12.16,1.03Z"/><path class="cls-17" d="M36.25,79.21h0c-1.52-.87-1.62-3.03-.2-4.04l1.43-1.02s-8.61,1.07-18.88-1.19h0c.76,1.63-.09,3.55-1.79,4.11l-1.07,.36s9.19,2.56,20.5,1.78Z"/><path class="cls-20" d="M19.28,77.8s1.76-1.83,1.3-3.09c4.43,.69,9.11,1.14,12.25,1.14-.33,1.33,.44,3.4,.44,3.4,0,0-8-.16-13.99-1.45Z"/><polygon points="47.48 1.77 47.48 6.73 54.49 8.44 54.49 2.62 47.48 1.77"/><line class="cls-8" x1="45.5" y1="1.23" x2="45.5" y2="6.29"/><line class="cls-8" x1="56.47" y1="3.67" x2="56.47" y2="8.73"/><polygon points="47.48 78.74 47.48 73.78 54.49 72.07 54.49 77.88 47.48 78.74"/><line class="cls-8" x1="45.5" y1="79.28" x2="45.5" y2="74.21"/><line class="cls-8" x1="56.47" y1="76.84" x2="56.47" y2="71.77"/><path d="M33.53,1c.56,0,1.14,0,1.7,.02,9.39,.17,18.33,1.74,26.57,4.65,4.07,10.08,6.22,21.94,6.22,34.33s-2.24,24.79-6.49,34.99c-8.12,2.66-16.87,4.01-26.03,4.01-.56,0-1.12,0-1.71-.02-9.25-.17-18.42-1.78-26.58-4.66C3.15,64.25,1,52.39,1,40S3.23,15.21,7.47,5.02C15.6,2.35,24.37,1,33.53,1m0-1C23.88,0,14.77,1.52,6.72,4.21,2.49,14.22,0,26.6,0,40s2.39,25.22,6.45,35.11c8.16,2.94,17.45,4.69,27.32,4.87,.58,.01,1.15,.02,1.73,.02,9.63,0,18.73-1.51,26.78-4.2,4.24-10.01,6.74-22.39,6.74-35.8s-2.4-25.24-6.46-35.12C54.4,1.94,45.12,.2,35.25,.02c-.57,0-1.15-.02-1.72-.02h0Z"/><path class="cls-17" d="M33.53,6c.52,0,1.04,0,1.61,.02,7.87,.14,15.75,1.4,22.84,3.64,3.3,9,5.04,19.47,5.04,30.34s-1.82,21.82-5.26,30.92c-6.98,2.04-14.47,3.08-22.26,3.08-.48,0-.97,0-1.47-.02h-.15c-7.89-.14-15.78-1.41-22.85-3.65-3.29-8.99-5.03-19.46-5.03-30.33s1.81-21.79,5.24-30.91c6.5-1.89,13.7-2.95,20.86-3.08,.47,0,.96,0,1.43,0m0-1c-.48,0-.97,0-1.45,.01-7.47,.13-14.87,1.25-21.6,3.26-3.59,9.35-5.48,20.26-5.48,31.73s1.81,21.91,5.26,31.13c7.31,2.38,15.42,3.7,23.6,3.85h.17c.49,.01,.98,.02,1.47,.02,8.08,0,15.82-1.1,23.02-3.26,3.61-9.35,5.5-20.27,5.5-31.74s-1.81-21.9-5.27-31.14c-7.32-2.37-15.43-3.69-23.59-3.84-.55,0-1.09-.02-1.63-.02h0Z"/><path class="cls-13" d="M8.14,7.1s-12.66,32.94,0,66.06"/><path class="cls-13" d="M60.88,7.58s12.66,32.94,0,66.06"/></g><path d="M33.53,5c.54,0,1.08,.01,1.63,.02,8.16,.15,16.27,1.47,23.59,3.84,3.46,9.24,5.27,19.95,5.27,31.14s-1.89,22.39-5.5,31.74c-7.2,2.16-14.94,3.26-23.02,3.26-.49,0-.98-.01-1.47-.02h-.17c-8.18-.15-16.29-1.47-23.6-3.85-3.45-9.22-5.26-19.93-5.26-31.13s1.89-22.38,5.48-31.73c6.73-2.01,14.13-3.13,21.6-3.26,.48-.01,.97-.01,1.45-.01m0-1c-.49,0-.98,0-1.47,.01-7.51,.13-15.07,1.27-21.87,3.3l-.47,.14-.18,.46c-3.63,9.45-5.55,20.55-5.55,32.09s1.84,22.17,5.32,31.48l.17,.45,.46,.15c7.37,2.4,15.63,3.75,23.89,3.9h.19c.48,.01,.97,.02,1.47,.02,8.16,0,16-1.11,23.31-3.3l.47-.14,.18-.46c3.64-9.43,5.57-20.53,5.57-32.1s-1.84-22.17-5.33-31.49l-.17-.45-.46-.15c-7.39-2.39-15.65-3.74-23.88-3.89-.58-.01-1.12-.02-1.65-.02h0Z"/></g></svg>