<svg id="Capa_2" xmlns="http://www.w3.org/2000/svg" xmlns:xlink="http://www.w3.org/1999/xlink" viewBox="0 0 69.02 80">
<defs >
<style >
.cls-1{fill:#c89aed;}.cls-2{fill:#fff;}.cls-3,.cls-4{fill:#f8ffbf;}.cls-5{fill:#7b7be8;}.cls-6{fill:#a88347;}.cls-7{fill:#782ab5;}.cls-8,.cls-9,.cls-10,.cls-4,.cls-11,.cls-12{stroke:#000;}.cls-8,.cls-9,.cls-4,.cls-11,.cls-12{stroke-miterlimit:10;}.cls-8,.cls-9,.cls-13,.cls-11,.cls-14,.cls-15,.cls-12{fill:none;}.cls-9,.cls-10,.cls-13,.cls-11,.cls-12{stroke-linecap:round;}.cls-10,.cls-13{stroke-linejoin:round;}.cls-16{fill:#1c46ff;}.cls-4,.cls-11{stroke-width:.5px;}.cls-13{stroke:#deb778;stroke-dasharray:0 0 0 4.06;}.cls-17{fill:#deb778;}.cls-18{fill:url(#USGS_19_Inundación_de_tierra_2);}.cls-15{stroke:#1d1d1b;stroke-dasharray:0 0 2 2;stroke-width:.3px;}.cls-19{fill:#cf5f2b;}.cls-20{fill:#fcf0c5;}.cls-12{stroke-width:.56px;}.cls-21{fill:#b83521;}
</style>
<pattern id="USGS_19_Inundación_de_tierra_2" x="0" y="0" width="72" height="72" patternTransform="translate(-20.48 -16063) rotate(-90)" patternUnits="userSpaceOnUse" viewBox="0 0 72 72">
<g >
<rect class="cls-14" width="72" height="72">
</rect>
<g >
<line class="cls-15" x1="71" y1="71" x2="144.44" y2="71">
</line>
<line class="cls-15" x1="71" y1="67" x2="144.44" y2="67">
</line>
<line class="cls-15" x1="71" y1="63" x2="144.44" y2="63">
</line>
<line class="cls-15" x1="71" y1="59" x2="144.44" y2="59">
</line>
<line class="cls-15" x1="71" y1="55" x2="144.44" y2="55">
</line>
<line class="cls-15" x1="71" y1="51" x2="144.44" y2="51">
</line>
<line class="cls-15" x1="71" y1="47" x2="144.44" y2="47">
</line>
<line class="cls-15" x1="71" y1="43" x2="144.44" y2="43">
</line>
<line class="cls-15" x1="71" y1="39" x2="144.44" y2="39">
</line>
<line class="cls-15" x1="71" y1="35" x2="144.44" y2="35">
</line>
<line class="cls-15" x1="71" y1="31" x2="144.44" y2="31">
</line>
<line class="cls-15" x1="71" y1="27" x2="144.44" y2="27">
</line>
<line class="cls-15" x1="71" y1="23" x2="144.44" y2="23">
</line>
<line class="cls-15" x1="71" y1="19" x2="144.44" y2="19">
</line>
<line class="cls-15" x1="71" y1="15" x2="144.44" y2="15">
</line>
<line class="cls-15" x1="71" y1="11" x2="144.44" y2="11">
</line>
<line class="cls-15" x1="71" y1="7" x2="144.44" y2="7">
</line>
<line class="cls-15" x1="71" y1="3" x2="144.44" y2="3">
</line>
</g>
<g >
<line class="cls-15" x1="-1" y1="71" x2="72.44" y2="71">
</line>
<line class="cls-15" x1="-1" y1="67" x2="72.44" y2="67">
</line>
<line class="cls-15" x1="-1" y1="63" x2="72.44" y2="63">
</line>
<line class="cls-15" x1="-1" y1="59" x2="72.44" y2="59">
</line>
<line class="cls-15" x1="-1" y1="55" x2="72.44" y2="55">
</line>
<line class="cls-15" x1="-1" y1="51" x2="72.44" y2="51">
</line>
<line class="cls-15" x1="-1" y1="47" x2="72.44" y2="47">
</line>
<line class="cls-15" x1="-1" y1="43" x2="72.44" y2="43">
</line>
<line class="cls-15" x1="-1" y1="39" x2="72.44" y2="39">
</line>
<line class="cls-15" x1="-1" y1="35" x2="72.44" y2="35">
</line>
<line class="cls-15" x1="-1" y1="31" x2="72.44" y2="31">
</line>
<line class="cls-15" x1="-1" y1="27" x2="72.44" y2="27">
</line>
<line class="cls-15" x1="-1" y1="23" x2="72.44" y2="23">
</line>
<line class="cls-15" x1="-1" y1="19" x2="72.44" y2="19">
</line>
<line class="cls-15" x1="-1" y1="15" x2="72.44" y2="15">
</line>
<line class="cls-15" x1="-1" y1="11" x2="72.44" y2="11">
</line>
<line class="cls-15" x1="-1" y1="7" x2="72.44" y2="7">
</line>
<line class="cls-15" x1="-1" y1="3" x2="72.44" y2="3">
</line>
<line class="cls-15" x1="1.04" y1="69" x2="74.48" y2="69">
</line>
<line class="cls-15" x1="1.04" y1="65" x2="74.48" y2="65">
</line>
<line class="cls-15" x1="1.04" y1="61" x2="74.48" y2="61">
</line>
<line class="cls-15" x1="1.04" y1="57" x2="74.48" y2="57">
</line>
<line class="cls-15" x1="1.04" y1="53" x2="74.48" y2="53">
</line>
<line class="cls-15" x1="1.04" y1="49" x2="74.48" y2="49">
</line>
<line class="cls-15" x1="1.04" y1="45" x2="74.48" y2="45">
</line>
<line class="cls-15" x1="1.04" y1="41" x2="74.48" y2="41">
</line>
<line class="cls-15" x1="1.04" y1="37" x2="74.48" y2="37">
</line>
<line class="cls-15" x1="1.04" y1="33" x2="74.48" y2="33">
</line>
<line class="cls-15" x1="1.04" y1="29" x2="74.48" y2="29">
</line>
<line class="cls-15" x1="1.04" y1="25" x2="74.48" y2="25">
</line>
<line class="cls-15" x1="1.04" y1="21" x2="74.48" y2="21">
</line>
<line class="cls-15" x1="1.04" y1="17" x2="74.48" y2="17">
</line>
<line class="cls-15" x1="1.04" y1="13" x2="74.48" y2="13">
</line>
<line class="cls-15" x1="1.04" y1="9" x2="74.48" y2="9">
</line>
<line class="cls-15" x1="1.04" y1="5" x2="74.48" y2="5">
</line>
<line class="cls-15" x1="1.04" y1="1" x2="74.48" y2="1">
</line>
</g>
<g >
<line class="cls-15" x1="-73" y1="71" x2=".44" y2="71">
</line>
<line class="cls-15" x1="-73" y1="67" x2=".44" y2="67">
</line>
<line class="cls-15" x1="-73" y1="63" x2=".44" y2="63">
</line>
<line class="cls-15" x1="-73" y1="59" x2=".44" y2="59">
</line>
<line class="cls-15" x1="-73" y1="55" x2=".44" y2="55">
</line>
<line class="cls-15" x1="-73" y1="51" x2=".44" y2="51">
</line>
<line class="cls-15" x1="-73" y1="47" x2=".44" y2="47">
</line>
<line class="cls-15" x1="-73" y1="43" x2=".44" y2="43">
</line>
<line class="cls-15" x1="-73" y1="39" x2=".44" y2="39">
</line>
<line class="cls-15" x1="-73" y1="35" x2=".44" y2="35">
</line>
<line class="cls-15" x1="-73" y1="31" x2=".44" y2="31">
</line>
<line class="cls-15" x1="-73" y1="27" x2=".44" y2="27">
</line>
<line class="cls-15" x1="-73" y1="23" x2=".44" y2="23">
</line>
<line class="cls-15" x1="-73" y1="19" x2=".44" y2="19">
</line>
<line class="cls-15" x1="-73" y1="15" x2=".44" y2="15">
</line>
<line class="cls-15" x1="-73" y1="11" x2=".44" y2="11">
</line>
<line class="cls-15" x1="-73" y1="7" x2=".44" y2="7">
</line>
<line class="cls-15" x1="-73" y1="3" x2=".44" y2="3">
</line>
<line class="cls-15" x1="-70.96" y1="69" x2="2.48" y2="69">
</line>
<line class="cls-15" x1="-70.96" y1="65" x2="2.48" y2="65">
</line>
<line class="cls-15" x1="-70.96" y1="61" x2="2.48" y2="61">
</line>
<line class="cls-15" x1="-70.96" y1="57" x2="2.48" y2="57">
</line>
<line class="cls-15" x1="-70.96" y1="53" x2="2.48" y2="53">
</line>
<line class="cls-15" x1="-70.96" y1="49" x2="2.48" y2="49">
</line>
<line class="cls-15" x1="-70.96" y1="45" x2="2.48" y2="45">
</line>
<line class="cls-15" x1="-70.96" y1="41" x2="2.48" y2="41">
</line>
<line class="cls-15" x1="-70.96" y1="37" x2="2.48" y2="37">
</line>
<line class="cls-15" x1="-70.96" y1="33" x2="2.48" y2="33">
</line>
<line class="cls-15" x1="-70.96" y1="29" x2="2.48" y2="29">
</line>
<line class="cls-15" x1="-70.96" y1="25" x2="2.48" y2="25">
</line>
<line class="cls-15" x1="-70.96" y1="21" x2="2.48" y2="21">
</line>
<line class="cls-15" x1="-70.96" y1="17" x2="2.48" y2="17">
</line>
<line class="cls-15" x1="-70.96" y1="13" x2="2.48" y2="13">
</line>
<line class="cls-15" x1="-70.96" y1="9" x2="2.48" y2="9">
</line>
<line class="cls-15" x1="-70.96" y1="5" x2="2.48" y2="5">
</line>
<line class="cls-15" x1="-70.96" y1="1" x2="2.48" y2="1">
</line>
</g>
</g>
</pattern>
</defs>

<g id="Characters">
<g >
<path class="cls-1" d="M61.14,66.34l-.2,.63-2.25,7.12s-10.59,3.48-25.44,2.45c-5.62-.39-10.39-1.11-14.15-1.86-1.84-.37-3.43-.74-4.77-1.08-3.15-.81-4.85-1.45-4.85-1.45l-.51-6.33v-.05S18.01,20.88,18.01,20.88c0,0,3.48-11.36,16.27-12.14,12.78-.77,17.82,9.82,18.47,12.66,.64,2.84,8.39,44.94,8.39,44.94Z">
</path>
<path class="cls-2" d="M34.42,22.28V58.86s3.11-.37,5.9-4.75c3.39-5.23,7.55-13.17,7.55-13.17,0,0-.87-10.85-3-15.88s-6.19-6.71-10.45-2.77Z">
</path>
<path class="cls-21" d="M26.3,52.82v1.84s4.14,1.24,4.14,1.24c0,0,1.76,2.79,4.34,2.59s3.83-2.28,3.83-2.28l4.24-1.66,.83-1.24,.52,.31,1.97,6.52s11.48,3.83,13.97,6.72c-1.44,7.23-1.86,7.86-1.86,7.86l-13.45-.1-5.9-7.45s-1.86,1.66-4.45,1.86-3.52-2.07-3.52-2.07l-6.52,9.31-15.62-3.72,.16-6.78,14.34-5.28,2.98-7.67Z">
</path>
<path class="cls-10" d="M39.09,56.33l-11.46,18.34-17.41-2.8-1.24-6.1,14.57-4.85,2.21-8.32,1.27-1.78,3.41,5.08s2.08,2.61,4.34,2.59,4.31-2.15,4.31-2.15Z">
</path>
<polygon class="cls-21" points="25.25 55.23 23.8 60.64 8.93 66.29 9.77 68.19 25.1 61.94 25.25 55.23">
</polygon>
<path class="cls-10" d="M60.94,66.97l-6.5-3.4,1.03,10.53-5.15,1.26-1.14-13.62-3.09-1.25-1.49-7.1-1.14-.45-.35-3.21,4.46-8s-1.6-12.13-2.28-15.45c-.69-3.31-4.46-8.12-10.87-4-3.66-3.43-7.78-1.83-10.07,2.63-2.28,4.46-2.63,15.79-2.63,15.79l5.04,9.26-.46,2.86-.92,.35-2.06,7.32-3.08,1.37-1.14,12.82v.1s-4.81-.91-4.81-.91l.04-.27,1.56-10.14-6.52,2.52-.39-.21L18.01,20.88s3.48-11.36,16.27-12.14c12.78-.77,17.82,9.82,18.47,12.66,.64,2.84,8.39,44.94,8.39,44.94l-.2,.63Z">
</path>
<polygon class="cls-16" points="18.15 46.98 16.43 73.97 14.33 73.6 18.15 46.98">
</polygon>
<path class="cls-16" d="M10.71,65.62L18.95,22.27s4.46-12.93,18.3-12.93c-10.98-1.37-17.16,6.29-19.45,13.38s-8.83,43.04-8.83,43.04l1.73-.15Z">
</path>
<polygon class="cls-16" points="47.7 41.32 52.72 74.49 50.66 74.72 47.7 41.32">
</polygon>
<path class="cls-16" d="M47.28,32.57s-2.19-6.43-3.1-8.61c2.18,3.56,8.15,2.3,8.04-1.38,1.15,5.17,1.61,10.1,1.61,10.1,0,0-1.61-6.2-6.54-.11Z">
</path>
<path class="cls-5" d="M32.86,33.54l-.43,3.89s-6.42,1.85-8.77-.37c0-3.09,.19-4.26,.19-4.26,0,0,5-1.6,9.01,.74Z">
</path>
<path class="cls-5" d="M36.68,33.54l.43,3.89s6.42,1.85,8.77-.37c0-3.09-.19-4.26-.19-4.26,0,0-5-1.6-9.01,.74Z">
</path>
<path class="cls-3" d="M32.53,36.79s-3.29-1.17-5.72-.91c-1.87,.66-2.28,1.57-2.28,1.57,0,0,3.8,1.58,7.9-.02l.1-.64Z">
</path>
<path class="cls-3" d="M36.8,36.79s3.29-1.17,5.72-.91c1.87,.66,2.28,1.57,2.28,1.57,0,0-3.8,1.58-7.9-.02l-.1-.64Z">
</path>
<path class="cls-19" d="M45.17,58.01s-2.24,2.64-7.36,3.36c.88,1.36,1.12,2.88,1.12,2.88,0,0,5.76,0,7.76-2.08-1.04-2.8-1.52-4.16-1.52-4.16Z">
</path>
<path class="cls-2" d="M30.35,41.4s-4.08,.64-6.05-.76c3.06,3.44,4.9,3.18,6.05,.76Z">
</path>
<path class="cls-5" d="M31.87,37.95s-1.25,2.87-3.99,2.62-4.2-3.22-4.22-3.51c2.41,1.21,6.09,1.7,8.21,.89Z">
</path>
<path class="cls-5" d="M37.67,37.95s1.25,2.87,3.99,2.62,4.2-3.22,4.22-3.51c-2.41,1.21-6.09,1.7-8.21,.89Z">
</path>
<path class="cls-2" d="M38.77,69.04s-1.33,1.26-3.92,1.33v5.17h9.02l-5.1-6.5Z">
</path>
<circle class="cls-6" cx="34.93" cy="64.86" r="4.03">
</circle>
<circle class="cls-21" cx="34.93" cy="64.86" r="2.39">
</circle>
<path class="cls-20" d="M36.71,63.56s-.53-1.51-2.83-1.05c.79-1.31-.33-1.71-.33-1.71,0,0,3.42-1.18,5.06,2.23-.92-.26-1.91,.53-1.91,.53Z">
</path>
<path class="cls-20" d="M34.93,67.25s-.21,1.19,1.13,1.37c-2.91,1.01-4.52-1.11-4.94-1.71,1.11,.78,1.66-.74,1.66-.74,0,0,.97,1.03,2.15,1.07Z">
</path>
<path class="cls-1" d="M39.28,22.17c4.58,0,6.19,10.97,6.42,15.24l.25,2.82c-.86,1.97-5.29,11.87-9.13,15.78-.5,.51-1.23,.8-2,.8s-1.51-.29-2.01-.8c-4.03-4.09-9.06-14.72-9.67-16.01l.24-2.65c.3-5.25,2.03-15.18,6.41-15.18,1.41,0,2.65,.52,3.7,1.56l.35,.34c.19,.19,.45,.28,.7,.28s.51-.1,.71-.29l.34-.34c1.04-1.02,2.28-1.54,3.69-1.54m0-1c-1.68,0-3.16,.62-4.39,1.83l-.35,.35-.35-.34c-1.24-1.22-2.72-1.84-4.4-1.84-6.56,0-7.4,15.97-7.41,16.13l-.26,2.91s.03,.02,.04,.04c.05,.12,5.53,11.98,9.94,16.46,.69,.7,1.68,1.1,2.72,1.1s2.02-.4,2.71-1.1c4.17-4.24,8.91-15.09,9.44-16.32l-.27-3.07c-.01-.18-.86-16.15-7.42-16.15h0Z">
</path>
<path class="cls-21" d="M29.97,49s2.63-2.75,3.95-2.64c1.1,.22,.94,.28,.94,.28,0,0,1.1-.5,1.83-.14s2.79,2.51,2.79,2.51c0,0-1.37,1.95-4.62,2.2s-4.88-2.21-4.88-2.21Z">
</path>
<path class="cls-4" d="M38.27,47.88c-.2,.91-1.11,2.58-1.11,2.58,0,0-.12-.71-.58-2.3-1.83,.64-3.55,.04-3.55,.04,0,0-.08,.4-.56,2.2-.73-1.11-1.09-2.78-1.09-2.78,0,0,1.11-1.32,2.12-1.4s1.36,.33,1.36,.33c0,0,.98-.46,1.82-.05s1.59,1.38,1.59,1.38Z">
</path>
<path class="cls-9" d="M61.04,65.89l-8.44-44.83s-3.69-12.13-17.4-12.13c-13.71,0-17.4,12.13-17.4,12.13l-8.44,44.83">
</path>
<path class="cls-9" d="M50.49,74.33l-3.29-37.05s-.8-16.61-7.92-16.61c-2.05,0-3.59,.84-4.74,1.98-1.16-1.14-2.7-1.98-4.75-1.98-7.12,0-7.91,16.61-7.91,16.61l-3.3,37.05">
</path>
<path d="M18.01,47.42c-.44,6.15-1.26,13.02-2.08,19.13-.28,2.12-.61,4.23-.95,6.34-.04,.27-.3,.46-.57,.41-.26-.04-.45-.29-.42-.55,.25-2.12,.51-4.24,.81-6.36,.87-6.1,1.95-12.93,3.21-18.97h0Z">
</path>
<path d="M51.79,47.42c1.25,6.04,2.33,12.87,3.21,18.97,.3,2.12,.57,4.24,.81,6.36,.03,.27-.16,.52-.44,.55-.27,.03-.51-.15-.55-.42-.34-2.11-.66-4.22-.95-6.34-.82-6.11-1.64-12.98-2.08-19.13h0Z">
</path>
<line class="cls-9" x1="19.67" y1="61.97" x2="23.76" y2="60.38">
</line>
<line class="cls-9" x1="8.6" y1="66.3" x2="15.71" y2="63.52">
</line>
<path class="cls-9" d="M23.07,63.61l2.25-10.18s.56-.56,1.16-.5">
</path>
<path class="cls-9" d="M30.45,55.94s-2.89-.68-3.95-1.75v-4.2">
</path>
<line class="cls-9" x1="49.32" y1="61.67" x2="46" y2="60.38">
</line>
<line class="cls-9" x1="61.17" y1="66.3" x2="54.05" y2="63.52">
</line>
<path class="cls-9" d="M46.7,63.61l-2.25-10.18s-.56-.56-1.16-.5">
</path>
<path class="cls-9" d="M39.2,55.9s3-.63,4.07-1.7c0-2.49,0-4.52,0-4.52">
</path>
<path class="cls-9" d="M47.49,40.46s-5.08,12-9.6,16.6c-.81,.82-1.92,1.25-3.07,1.25h0c-1.15,0-2.26-.43-3.07-1.25-4.52-4.6-10.04-16.6-10.04-16.6">
</path>
<path d="M32.7,34.26c-2.95-.77-5.77-1.99-8.86-1.29,2.69-2.16,6.33-.95,9.27-.04,0,0-.41,1.33-.41,1.33h0Z">
</path>
<path d="M36.22,32.93c2.94-.9,6.58-2.12,9.27,.04-1.54-.19-2.94-.39-4.44,.06-1.46,.38-2.94,.84-4.42,1.23l-.41-1.33h0Z">
</path>
<path d="M31.12,28.94c2.56,.45,5,.39,7.57,.14-2.12,1.62-5.53,1.66-7.57-.14h0Z">
</path>
<path d="M32.58,36.75c-1.61-.32-4.41-.63-5.46-.6-.83,.42-1.68,.9-2.42,1.43,0,0,.05-.73,.05-.73,1.93,1.38,4.64,1.12,6.87,.68,0,0,.84-.16,.84-.16l-.4,.71c-.78,1.51-2.36,3.24-4.24,2.48,.84,.09,1.69-.11,2.25-.74,.56-.58,.95-1.33,1.3-2.08l.44,.54c-.47,.15-1.42,.37-1.9,.44-2.19,.33-4.61,.11-6.28-1.55,1.01-.74,2.1-1.32,3.25-1.77,2.02,.03,3.87,.66,5.7,1.38h0Z">
</path>
<path d="M36.84,36.75c1.84-.72,3.68-1.35,5.7-1.38,1.15,.46,2.24,1.03,3.25,1.77-1.68,1.66-4.09,1.88-6.28,1.55-.48-.07-1.44-.29-1.9-.44,0,0,.44-.54,.44-.54,.36,.75,.74,1.5,1.3,2.08,.57,.64,1.41,.83,2.25,.74-1.87,.76-3.46-.97-4.24-2.48,0,0-.4-.71-.4-.71l.84,.16c2.23,.44,4.95,.7,6.87-.68,0,0,.05,.73,.05,.73-.74-.53-1.6-1.01-2.42-1.43,0,0,.14,.04,.14,.04-1.83-.1-3.77,.28-5.61,.57h0Z">
</path>
<path class="cls-11" d="M32.51,40.69s-.04,1.45-.36,2.12c.68,.51,1,.75,1,.75l.53-1.05,.36,1.3s.66,.26,1.62-.13c.17-.9,.3-1.28,.3-1.28l.68,1.18,.94-.77s-.49-1.37-.62-2.14">
</path>
<path d="M29.96,49.01h.01c.13-.21,2.29-3.51,3.5-3.47,.53,.04,.97,.3,1.25,.52,.28-.22,.72-.48,1.24-.52,1.21-.04,3.37,3.26,3.5,3.46h.01s-.01,0-.01,0c-.2-.17-2.45-2.08-3.47-2.24-.47-.07-.92,.12-1.27,.37-.35-.24-.8-.45-1.28-.37-1.02,.16-3.27,2.07-3.47,2.24">
</path>
<path d="M29.97,49s2,1.11,4.76,1.11,4.74-1.1,4.74-1.1c0,0-1.19,3.33-4.57,3.33s-4.93-3.34-4.93-3.34Z">
</path>
<circle class="cls-9" cx="34.83" cy="64.84" r="4.31">
</circle>
<circle class="cls-12" cx="34.83" cy="64.84" r="2.42">
</circle>
<line class="cls-12" x1="30.92" y1="66.87" x2="25.28" y2="75.01">
</line>
<line class="cls-12" x1="38.61" y1="66.69" x2="44.87" y2="74.65">
</line>
</g>
</g>
 <g
     id="g2850">
    <g
       id="g2837">
      <path
         id="path1951"
         d="M 0.056640625 0.04296875 L 0.056640625 79.943359 L 69.308594 79.943359 L 69.308594 0.04296875 L 0.056640625 0.04296875 z M 33.615234 3.5957031 C 34.206332 3.5957038 34.786991 3.6051034 35.421875 3.6152344 C 44.430653 3.7671809 53.471255 5.1336733 61.560547 7.5546875 L 62.064453 7.7070312 L 62.25 8.1640625 C 66.070247 17.605006 66.990234 28.726438 66.990234 40.0625 C 66.990234 51.398562 65.972723 63.025755 61.988281 72.578125 L 61.791016 73.044922 L 61.275391 73.185547 C 53.273669 75.403966 44.691921 76.529297 35.759766 76.529297 C 35.212453 76.529297 34.675812 76.519896 34.150391 76.509766 L 33.943359 76.509766 C 24.901742 76.357819 15.860367 74.989738 7.7929688 72.558594 L 7.2890625 72.40625 L 7.1035156 71.951172 C 3.2942144 62.520359 2.375 51.369168 2.375 40.0625 C 2.375 28.755832 3.3819737 17.127318 7.3554688 7.5546875 L 7.5527344 7.0898438 L 8.0664062 6.9472656 C 15.509867 4.890923 23.785212 3.7371557 32.005859 3.6054688 C 32.542226 3.5953387 33.078867 3.5957031 33.615234 3.5957031 z "
         style="opacity:1;vector-effect:none;fill:#ffffff;fill-opacity:1;fill-rule:nonzero;stroke:none;stroke-width:1.95200002;stroke-linecap:butt;stroke-linejoin:miter;stroke-miterlimit:4;stroke-dasharray:none;stroke-dashoffset:0;stroke-opacity:1" />
    </g>
    <path
       id="path1154-8-2"
       d="m 33.675163,6.6112954 c 0.557696,0 1.115392,0.00956 1.683415,0.019115 8.427403,0.14336 16.803167,1.4049288 24.363042,3.6700176 3.573384,8.830981 4.443772,19.417362 4.443772,29.761551 0,10.344189 -0.95301,21.39888 -4.68131,30.334991 -7.435942,2.064385 -15.429581,3.274388 -23.774362,3.274388 -0.506058,0 -1.012115,-0.0096 -1.518172,-0.01911 h -0.17557 C 25.56792,73.508883 17.192156,72.088619 9.6426089,69.813973 6.0795528,61.002107 5.2088244,50.415411 5.2088244,40.061979 c 0,-10.353432 0.95335,-21.389323 4.6609939,-30.325434 C 16.820359,7.8155201 24.462856,6.7450981 32.177647,6.6208528 c 0.49573,-0.00956 1.001787,-0.00956 1.497516,-0.00956 m 0,-0.9557337 c -0.506057,0 -1.012114,0 -1.518171,0.00956 C 24.40089,5.7893644 16.593149,6.8789009 9.570315,8.8190405 L 9.0849131,8.9528432 8.8990146,9.3924808 C 5.1500599,18.424166 4.1999116,29.394246 4.1999116,40.061979 c 0,10.667733 0.8675267,21.188618 4.461566,30.0865 l 0.1755708,0.430081 0.4750741,0.14336 c 7.6115135,2.293761 16.1421925,3.584001 24.6728715,3.727361 h 0.196227 c 0.495729,0.0096 1.001786,0.01911 1.518171,0.01911 8.427403,0 16.524318,-1.060864 24.073866,-3.153921 l 0.485403,-0.133802 0.185898,-0.439639 c 3.759282,-9.01257 4.719759,-19.983589 4.719759,-30.679055 0,-10.695466 -0.867528,-21.188618 -4.471894,-30.0960578 L 60.516853,9.5358409 60.041779,9.3924808 C 52.409609,7.108277 43.87893,5.8180364 35.379234,5.6746763 34.780227,5.6651187 34.232859,5.6555621 33.675163,5.6555615 Z"
       style="fill:#ff0000;stroke:#ffffff;stroke-width:1.84341729;stroke-miterlimit:4;stroke-dasharray:none" />
    <path
       id="path1154"
       d="m 33.614853,4.6077955 c 0.591098,0 1.182197,0.01013 1.784241,0.02026 8.932155,0.1519464 17.809578,1.4890758 25.822246,3.8898304 3.787408,9.3599041 4.709928,20.5803481 4.709928,31.5440931 0,10.963745 -1.01009,22.680548 -4.961693,32.151879 -7.881312,2.18803 -16.353723,3.302304 -25.198307,3.302304 -0.536368,0 -1.072735,-0.01013 -1.609102,-0.02026 H 33.97608 C 25.022033,75.343956 16.14461,74.006827 8.1428892,71.595943 4.3664269,62.256298 3.443547,51.035521 3.443547,40.061979 c 0,-10.973542 1.01045,-22.670418 4.9401601,-32.1417498 7.3668369,-2.036083 15.4670749,-3.170617 23.6439369,-3.3023039 0.525421,-0.01013 1.061788,-0.01013 1.587209,-0.01013 m 0,-1.0129766 c -0.536367,0 -1.072734,0 -1.609101,0.01013 C 23.785105,3.7366356 15.509726,4.891429 8.0662653,6.9477716 L 7.5517907,7.0895883 7.3547579,7.5555576 C 3.3812628,17.128188 2.3742062,28.755311 2.3742062,40.061979 c 0,11.306668 0.9194864,22.457692 4.7287876,31.888505 l 0.1860865,0.45584 0.5035283,0.151947 c 8.0673984,2.431144 17.1090154,3.798662 26.1506324,3.950608 h 0.207979 c 0.525421,0.01013 1.061788,0.02026 1.609101,0.02026 8.932155,0 17.514028,-1.124404 25.51575,-3.342823 l 0.514475,-0.141816 0.197032,-0.46597 c 3.984442,-9.55237 5.002445,-21.180489 5.002445,-32.516551 0,-11.336062 -0.919487,-22.457692 -4.739734,-31.8986353 L 62.064202,7.7075041 61.560674,7.5555576 C 53.471382,5.1345434 44.429765,3.7670249 35.420987,3.6150784 c -0.634884,-0.01013 -1.215036,-0.020259 -1.806134,-0.02026 z"
       style="fill:#000000;stroke:#000000;stroke-width:1.95382714;stroke-miterlimit:4;stroke-dasharray:none" />
    <g
       id="g1810">
      <path
         d="M 6.5134911,7.7433673 C 5.6489029,6.8479453 4.058602,6.5681013 3.6272194,7.3820013 3.284151,8.0292783 3.3625296,8.5309135 4.395235,8.9201755 3.2963719,9.5187755 1.4857674,9.4447465 1.1893447,7.4467713 0.95320848,5.8551433 2.674739,4.8863543 3.1399725,5.0916244 3.0034432,3.6818714 1.8221094,4.0692802 0.95849208,3.2813384 0.34259068,2.7194046 0.23126071,-0.02624603 0.0561761,0.04378767 -0.0138576,0.21887227 2.7317937,0.33020157 3.2937267,0.94610377 4.0816685,1.8097211 3.6942598,2.9910547 5.1040128,3.1275841 4.8987425,2.6623507 5.8675315,0.94082017 7.4591593,1.1769564 9.4571345,1.4733791 9.5311625,3.2839847 8.9325635,4.3828467 8.5433008,3.3501417 8.041666,3.2717627 7.3943894,3.6148312 6.5804899,4.0462137 6.8603354,5.6365129 7.7557553,6.5011023"
         style="fill:#000000;stroke:#000000;stroke-width:0.1112323px;stroke-linecap:butt;stroke-linejoin:miter;stroke-opacity:1"
         id="path1737-3" />
      <path
         d="m 62.850738,7.7433673 c 0.864588,-0.895422 2.454889,-1.175266 2.886271,-0.361366 0.343069,0.647277 0.26469,1.148912 -0.768015,1.538174 1.098863,0.5986 2.909467,0.524571 3.20589,-1.473404 0.236136,-1.591628 -1.485394,-2.560417 -1.950628,-2.3551469 0.13653,-1.409753 1.317863,-1.0223442 2.181481,-1.810286 0.615901,-0.5619338 0.727231,-3.30758442 0.902316,-3.23755072 0.07003,0.1750846 -2.675618,0.2864139 -3.237551,0.9023161 C 65.28256,1.8097211 65.669969,2.9910547 64.260216,3.1275841 64.465486,2.6623507 63.496697,0.94082018 61.905069,1.1769564 c -1.997975,0.2964227 -2.072003,2.1070283 -1.473404,3.2058903 0.389263,-1.032705 0.890898,-1.111084 1.538174,-0.7680155 0.8139,0.4313825 0.534054,2.0216817 -0.361366,2.8862711"
         style="fill:#000000;stroke:#000000;stroke-width:0.1112323px;stroke-linecap:butt;stroke-linejoin:miter;stroke-opacity:1"
         id="path1737-3-5" />
      <path
         d="m 62.850738,72.244244 c 0.864588,0.895422 2.454889,1.175266 2.886272,0.361366 0.343068,-0.647277 0.264689,-1.148912 -0.768016,-1.538174 1.098863,-0.5986 2.909468,-0.524571 3.20589,1.473404 0.236137,1.591628 -1.485394,2.560417 -1.950628,2.355147 0.13653,1.409753 1.317864,1.022344 2.181481,1.810286 0.615901,0.561934 0.727231,3.307584 0.902316,3.237551 0.07003,-0.175085 -2.675618,-0.286414 -3.237551,-0.902317 -0.787942,-0.863617 -0.400533,-2.04495 -1.810286,-2.18148 0.20527,0.465234 -0.763519,2.186764 -2.355146,1.950628 -1.997976,-0.296423 -2.072004,-2.107028 -1.473405,-3.20589 0.389263,1.032705 0.890898,1.111084 1.538175,0.768015 0.813899,-0.431382 0.534054,-2.021682 -0.361366,-2.886271"
         style="fill:#000000;stroke:#000000;stroke-width:0.1112323px;stroke-linecap:butt;stroke-linejoin:miter;stroke-opacity:1"
         id="path1737-3-7" />
      <path
         d="M 6.513491,72.244245 C 5.648903,73.139667 4.058602,73.419511 3.62722,72.605611 3.284151,71.958334 3.36253,71.456699 4.395235,71.067437 c -1.098863,-0.5986 -2.909467,-0.524571 -3.20589,1.473404 -0.23613599,1.591628 1.485394,2.560417 1.950628,2.355147 -0.13653,1.409753 -1.317863,1.022344 -2.18148099,1.810286 -0.615901,0.561933 -0.727231,3.307584 -0.902316,3.23755 C -0.01385399,79.76874 2.731794,79.65741 3.293727,79.041508 4.081669,78.177891 3.69426,76.996557 5.104013,76.860028 4.898743,77.325261 5.867532,79.046792 7.45916,78.810656 9.457135,78.514233 9.531163,76.703627 8.932564,75.604765 8.543301,76.63747 8.041666,76.715849 7.39439,76.372781 6.58049,75.941398 6.860336,74.351099 7.755756,73.48651"
         style="fill:#000000;stroke:#000000;stroke-width:0.1112323px;stroke-linecap:butt;stroke-linejoin:miter;stroke-opacity:1"
         id="path1737-3-5-5" />
    </g>
    <path
       id="path1154-9"
       d="m 33.712865,7.4258691 c 0.536813,0 1.07363,0.00933 1.620386,0.01865 8.111875,0.1398689 16.174044,1.3707167 23.450873,3.5806479 3.439594,8.615932 4.277395,18.944521 4.277395,29.036812 0,10.092292 -0.917329,20.877786 -4.506039,29.596289 -7.157536,2.014114 -14.851888,3.03982 -22.884234,3.03982 -0.487111,0 -0.974221,-0.0094 -1.461331,-0.01865 H 34.040918 C 25.909161,72.53957 17.846991,71.308722 10.580105,69.089467 7.1504515,60.492184 6.3123238,50.163289 6.3123238,40.061979 c 0,-10.101311 0.9176558,-20.868461 4.4864832,-29.586965 6.690308,-1.8742449 14.046665,-2.9186005 21.472608,-3.0398203 0.47717,-0.00933 0.964281,-0.00933 1.44145,-0.00933 m 0,-0.9324602 c -0.487111,0 -0.974221,0 -1.46133,0.00933 C 24.785826,6.6239532 17.270413,7.686958 10.510517,9.5798526 L 10.043289,9.710397 9.8643508,10.139328 c -3.6085914,8.811751 -4.5231655,19.514693 -4.5231655,29.922651 0,10.407958 0.8350459,20.672644 4.294522,29.353849 l 0.1689973,0.419608 0.4572874,0.13987 c 7.326533,2.237904 15.537818,3.496724 23.749103,3.636593 h 0.188879 c 0.47717,0.0094 0.96428,0.01865 1.461331,0.01865 8.111875,0 15.905636,-1.035031 23.172525,-3.077119 l 0.467228,-0.130544 0.178938,-0.428932 c 3.618533,-8.793101 4.543048,-19.496959 4.543048,-29.931975 0,-10.435016 -0.835047,-20.672644 -4.304463,-29.363174 l -0.168997,-0.419609 -0.457288,-0.13987 C 51.74588,7.9107484 43.534594,6.6519271 35.353133,6.512058 34.776554,6.502738 34.249678,6.493409 33.712865,6.493409 Z"
       style="fill:#000000;stroke:none;stroke-width:1.78642213;stroke-miterlimit:4;stroke-dasharray:none" />
    <path
       id="path1154-9-3"
       d="m 33.712865,7.4258686 c 0.536813,0 1.07363,0.00933 1.620386,0.01865 8.111875,0.1398689 16.174044,1.3707167 23.450873,3.5806484 3.439594,8.615932 4.277395,18.944521 4.277395,29.036812 0,10.092292 -0.917329,20.877786 -4.506039,29.596288 -7.157536,2.014114 -14.851888,3.03982 -22.884234,3.03982 -0.487111,0 -0.974221,-0.0094 -1.461331,-0.01865 H 34.040918 C 25.909161,72.539569 17.846991,71.308722 10.580105,69.089466 7.1504515,60.492184 6.3123238,50.163288 6.3123238,40.061979 c 0,-10.101312 0.9176558,-20.868461 4.4864832,-29.586965 6.690308,-1.8742454 14.046665,-2.918601 21.472608,-3.0398208 0.47717,-0.00933 0.964281,-0.00933 1.44145,-0.00933 m 0,-0.9324602 c -0.487111,0 -0.974221,0 -1.46133,0.00933 C 24.785826,6.6239527 17.270413,7.6869575 10.510517,9.5798521 L 10.043289,9.7103965 9.8643508,10.139328 C 6.2557594,18.951079 5.3411853,29.65402 5.3411853,40.061979 c 0,10.407958 0.8350459,20.672643 4.294522,29.353849 l 0.1689973,0.419608 0.4572874,0.13987 c 7.326533,2.237904 15.537818,3.496724 23.749103,3.636593 h 0.188879 c 0.47717,0.0094 0.96428,0.01865 1.461331,0.01865 8.111875,0 15.905636,-1.035032 23.172525,-3.077119 l 0.467228,-0.130544 0.178938,-0.428932 c 3.618533,-8.793101 4.543048,-19.49696 4.543048,-29.931975 0,-10.435016 -0.835047,-20.672644 -4.304463,-29.363175 l -0.168997,-0.419609 -0.457288,-0.13987 C 51.74588,7.9107479 43.534594,6.6519266 35.353133,6.5120575 34.776554,6.5027375 34.249678,6.4934085 33.712865,6.4934085 Z"
       style="fill:#000000;stroke:none;stroke-width:1.78642213;stroke-miterlimit:4;stroke-dasharray:none" />
  </g>
</svg>
