<svg id="Capa_2" xmlns="http://www.w3.org/2000/svg" xmlns:xlink="http://www.w3.org/1999/xlink" viewBox="0 0 69.02 80">
<defs >
<style >
.cls-1{fill:#c89aed;}.cls-2{fill:#fff;}.cls-3{fill:#f8ffbf;}.cls-4{fill:#7b7be8;}.cls-5{fill:#a88347;}.cls-6{fill:#782ab5;}.cls-7,.cls-8{stroke-miterlimit:10;}.cls-7,.cls-8,.cls-9{stroke:#000;}.cls-7,.cls-8,.cls-10,.cls-11,.cls-12{fill:none;}.cls-8,.cls-9,.cls-10{stroke-linecap:round;}.cls-9,.cls-10{stroke-linejoin:round;}.cls-13{fill:#1c46ff;}.cls-10{stroke:#deb778;stroke-dasharray:0 0 0 4.06;}.cls-14{fill:#deb778;}.cls-15{fill:url(#USGS_19_Inundación_de_tierra_2);}.cls-12{stroke:#1d1d1b;stroke-dasharray:0 0 2 2;stroke-width:.3px;}.cls-16{fill:#fcf0c5;}.cls-17{fill:#b83521;}
</style>
<pattern id="USGS_19_Inundación_de_tierra_2" x="0" y="0" width="72" height="72" patternTransform="translate(-92.48 -16063) rotate(-90)" patternUnits="userSpaceOnUse" viewBox="0 0 72 72">
<g >
<rect class="cls-11" width="72" height="72">
</rect>
<g >
<line class="cls-12" x1="71" y1="71" x2="144.44" y2="71">
</line>
<line class="cls-12" x1="71" y1="67" x2="144.44" y2="67">
</line>
<line class="cls-12" x1="71" y1="63" x2="144.44" y2="63">
</line>
<line class="cls-12" x1="71" y1="59" x2="144.44" y2="59">
</line>
<line class="cls-12" x1="71" y1="55" x2="144.44" y2="55">
</line>
<line class="cls-12" x1="71" y1="51" x2="144.44" y2="51">
</line>
<line class="cls-12" x1="71" y1="47" x2="144.44" y2="47">
</line>
<line class="cls-12" x1="71" y1="43" x2="144.44" y2="43">
</line>
<line class="cls-12" x1="71" y1="39" x2="144.44" y2="39">
</line>
<line class="cls-12" x1="71" y1="35" x2="144.44" y2="35">
</line>
<line class="cls-12" x1="71" y1="31" x2="144.44" y2="31">
</line>
<line class="cls-12" x1="71" y1="27" x2="144.44" y2="27">
</line>
<line class="cls-12" x1="71" y1="23" x2="144.44" y2="23">
</line>
<line class="cls-12" x1="71" y1="19" x2="144.44" y2="19">
</line>
<line class="cls-12" x1="71" y1="15" x2="144.44" y2="15">
</line>
<line class="cls-12" x1="71" y1="11" x2="144.44" y2="11">
</line>
<line class="cls-12" x1="71" y1="7" x2="144.44" y2="7">
</line>
<line class="cls-12" x1="71" y1="3" x2="144.44" y2="3">
</line>
</g>
<g >
<line class="cls-12" x1="-1" y1="71" x2="72.44" y2="71">
</line>
<line class="cls-12" x1="-1" y1="67" x2="72.44" y2="67">
</line>
<line class="cls-12" x1="-1" y1="63" x2="72.44" y2="63">
</line>
<line class="cls-12" x1="-1" y1="59" x2="72.44" y2="59">
</line>
<line class="cls-12" x1="-1" y1="55" x2="72.44" y2="55">
</line>
<line class="cls-12" x1="-1" y1="51" x2="72.44" y2="51">
</line>
<line class="cls-12" x1="-1" y1="47" x2="72.44" y2="47">
</line>
<line class="cls-12" x1="-1" y1="43" x2="72.44" y2="43">
</line>
<line class="cls-12" x1="-1" y1="39" x2="72.44" y2="39">
</line>
<line class="cls-12" x1="-1" y1="35" x2="72.44" y2="35">
</line>
<line class="cls-12" x1="-1" y1="31" x2="72.44" y2="31">
</line>
<line class="cls-12" x1="-1" y1="27" x2="72.44" y2="27">
</line>
<line class="cls-12" x1="-1" y1="23" x2="72.44" y2="23">
</line>
<line class="cls-12" x1="-1" y1="19" x2="72.44" y2="19">
</line>
<line class="cls-12" x1="-1" y1="15" x2="72.44" y2="15">
</line>
<line class="cls-12" x1="-1" y1="11" x2="72.44" y2="11">
</line>
<line class="cls-12" x1="-1" y1="7" x2="72.44" y2="7">
</line>
<line class="cls-12" x1="-1" y1="3" x2="72.44" y2="3">
</line>
<line class="cls-12" x1="1.04" y1="69" x2="74.48" y2="69">
</line>
<line class="cls-12" x1="1.04" y1="65" x2="74.48" y2="65">
</line>
<line class="cls-12" x1="1.04" y1="61" x2="74.48" y2="61">
</line>
<line class="cls-12" x1="1.04" y1="57" x2="74.48" y2="57">
</line>
<line class="cls-12" x1="1.04" y1="53" x2="74.48" y2="53">
</line>
<line class="cls-12" x1="1.04" y1="49" x2="74.48" y2="49">
</line>
<line class="cls-12" x1="1.04" y1="45" x2="74.48" y2="45">
</line>
<line class="cls-12" x1="1.04" y1="41" x2="74.48" y2="41">
</line>
<line class="cls-12" x1="1.04" y1="37" x2="74.48" y2="37">
</line>
<line class="cls-12" x1="1.04" y1="33" x2="74.48" y2="33">
</line>
<line class="cls-12" x1="1.04" y1="29" x2="74.48" y2="29">
</line>
<line class="cls-12" x1="1.04" y1="25" x2="74.48" y2="25">
</line>
<line class="cls-12" x1="1.04" y1="21" x2="74.48" y2="21">
</line>
<line class="cls-12" x1="1.04" y1="17" x2="74.48" y2="17">
</line>
<line class="cls-12" x1="1.04" y1="13" x2="74.48" y2="13">
</line>
<line class="cls-12" x1="1.04" y1="9" x2="74.48" y2="9">
</line>
<line class="cls-12" x1="1.04" y1="5" x2="74.48" y2="5">
</line>
<line class="cls-12" x1="1.04" y1="1" x2="74.48" y2="1">
</line>
</g>
<g >
<line class="cls-12" x1="-73" y1="71" x2=".44" y2="71">
</line>
<line class="cls-12" x1="-73" y1="67" x2=".44" y2="67">
</line>
<line class="cls-12" x1="-73" y1="63" x2=".44" y2="63">
</line>
<line class="cls-12" x1="-73" y1="59" x2=".44" y2="59">
</line>
<line class="cls-12" x1="-73" y1="55" x2=".44" y2="55">
</line>
<line class="cls-12" x1="-73" y1="51" x2=".44" y2="51">
</line>
<line class="cls-12" x1="-73" y1="47" x2=".44" y2="47">
</line>
<line class="cls-12" x1="-73" y1="43" x2=".44" y2="43">
</line>
<line class="cls-12" x1="-73" y1="39" x2=".44" y2="39">
</line>
<line class="cls-12" x1="-73" y1="35" x2=".44" y2="35">
</line>
<line class="cls-12" x1="-73" y1="31" x2=".44" y2="31">
</line>
<line class="cls-12" x1="-73" y1="27" x2=".44" y2="27">
</line>
<line class="cls-12" x1="-73" y1="23" x2=".44" y2="23">
</line>
<line class="cls-12" x1="-73" y1="19" x2=".44" y2="19">
</line>
<line class="cls-12" x1="-73" y1="15" x2=".44" y2="15">
</line>
<line class="cls-12" x1="-73" y1="11" x2=".44" y2="11">
</line>
<line class="cls-12" x1="-73" y1="7" x2=".44" y2="7">
</line>
<line class="cls-12" x1="-73" y1="3" x2=".44" y2="3">
</line>
<line class="cls-12" x1="-70.96" y1="69" x2="2.48" y2="69">
</line>
<line class="cls-12" x1="-70.96" y1="65" x2="2.48" y2="65">
</line>
<line class="cls-12" x1="-70.96" y1="61" x2="2.48" y2="61">
</line>
<line class="cls-12" x1="-70.96" y1="57" x2="2.48" y2="57">
</line>
<line class="cls-12" x1="-70.96" y1="53" x2="2.48" y2="53">
</line>
<line class="cls-12" x1="-70.96" y1="49" x2="2.48" y2="49">
</line>
<line class="cls-12" x1="-70.96" y1="45" x2="2.48" y2="45">
</line>
<line class="cls-12" x1="-70.96" y1="41" x2="2.48" y2="41">
</line>
<line class="cls-12" x1="-70.96" y1="37" x2="2.48" y2="37">
</line>
<line class="cls-12" x1="-70.96" y1="33" x2="2.48" y2="33">
</line>
<line class="cls-12" x1="-70.96" y1="29" x2="2.48" y2="29">
</line>
<line class="cls-12" x1="-70.96" y1="25" x2="2.48" y2="25">
</line>
<line class="cls-12" x1="-70.96" y1="21" x2="2.48" y2="21">
</line>
<line class="cls-12" x1="-70.96" y1="17" x2="2.48" y2="17">
</line>
<line class="cls-12" x1="-70.96" y1="13" x2="2.48" y2="13">
</line>
<line class="cls-12" x1="-70.96" y1="9" x2="2.48" y2="9">
</line>
<line class="cls-12" x1="-70.96" y1="5" x2="2.48" y2="5">
</line>
<line class="cls-12" x1="-70.96" y1="1" x2="2.48" y2="1">
</line>
</g>
</g>
</pattern>
</defs>

<g id="Characters">
<g >
<path class="cls-1" d="M60.3,66.64l-1.75,6.68s-15.38,6.21-31.24,3.83c-.11-.02-.22-.03-.33-.05-5.34-.84-9.14-1.69-11.84-2.46-5.38-1.52-6.37-2.68-6.37-2.68l.97-4.65,2.03-.38s.01-.02,.03-.05c.24-.56,2.52-5.71,3.07-8.09,.58-2.52,2.52-11.23,1.16-18.11-1.35-6.88-1.84-13.46,.2-18.6,2.03-5.13,10.55-14.33,28.38-12.4,2.03,4.56,.96,8.14,.96,8.14l5.62-.48s2.33,2.22,3.68,12.88c1.36,10.65-1.55,20.14-1.35,25.67,.19,5.52,1.16,9.68,1.16,9.68l2.64,.5,2.98,.57Z">
</path>
<path class="cls-1" d="M43,22.13s-12.77-.67-19.38,7.06c-6.39,7.39-.11,16.81,.22,17.37,.67,5.38,1.68,7.73,1.68,7.73l.67,1.23s.08,7.34,1.89,11.12,2.48,7.92,2.48,7.92l9.19,.34s6.5-6.83,6.72-11.99c-1.46-4.59-2.27-7.69-2.27-7.69l1.93-1.05,1.79-7.84s3.7-4.82,2.69-11.88-7.62-12.32-7.62-12.32Z">
</path>
<path class="cls-2" d="M35.51,58.41l.18-33.44s4.93-2.69,6.97-2.37,7.35,7.12,8,12.6-2.47,11.5-2.47,11.5l-2.26,7.95-7.2,3.98-3.22-.21Z">
</path>
<path class="cls-9" d="M57.07,66.13l.2,.39-10.79-2.92-2.28-8.38,2.54-1.65,1.65-7.74s3.04-4.06,2.41-9.77c-.64-5.72-5.84-13.46-8.13-13.46s-4.56,.64-6.47,2.16c-1.9,1.52-2.03,3.43-7.36,4.82,0,0,3.43-1.77,4.32-5.96-7.49,1.77-10.79,6.09-12.32,10.91-1.52,4.83,2.8,11.68,2.8,11.68l1.63,7.71,1.54,1.3c-.89,2.16-.25,8,1.27,11.42,1.52,3.43,2.03,7.62,2.03,7.62-.57,1.47-1.56,2.39-2.8,2.89-3.64,1.48-9.37-.62-12.17-2.51-.75-.5-1.3-1-1.53-1.4-1.4-2.41-1.4-6.09-1.4-6.09l-.41-.27c.24-.56,2.52-5.71,3.07-8.09,.58-2.52,2.52-11.23,1.16-18.11-1.35-6.88-1.84-13.46,.2-18.6,2.03-5.13,10.55-14.33,28.38-12.4,2.03,4.56,.96,8.14,.96,8.14l5.62-.48s2.33,2.22,3.68,12.88c1.36,10.65-1.55,20.14-1.35,25.67,.19,5.52,1.16,9.68,1.16,9.68l2.39,.56Z">
</path>
<path class="cls-17" d="M44.61,9.68s-4.59,1.61-6.33,5.91c-1.74,4.29-15.16,11.27-22,9.26,.4-4.29,5.29-16.24,28.34-15.16Z">
</path>
<path class="cls-17" d="M54.05,47.17s-2.47,3.37-6.07,1.8c-.79,3.93-1.24,6.41-1.24,6.41,0,0,4.95-2.81,6.07-1.35,.56-4.38,1.24-6.86,1.24-6.86Z">
</path>
<path class="cls-17" d="M16.73,47.85s3.71,1.8,7.42,1.12c.34,3.82,1.8,11.92,2.59,14.28-3.49-5.85-7.53-10.01-12.7-1.69,3.15-7.76,2.7-13.72,2.7-13.72Z">
</path>
<path class="cls-2" d="M24.16,39.85s3.52,2.26,8.04,1.26c-3.01,4.02-5.86,2.76-8.04-1.26Z">
</path>
<path class="cls-3" d="M31.46,39.41s-1.02,.96-3.6,.2c-2-.59-2.32-2.39-2.32-2.39,0,0,4.58-1.37,5.93,2.19Z">
</path>
<path class="cls-3" d="M40.57,39.41s1.02,.96,3.6,.2c2-.59,2.32-2.39,2.32-2.39,0,0-4.58-1.37-5.93,2.19Z">
</path>
<path class="cls-1" d="M41.26,24h0c.22,0,.44,.02,.66,.06,3.91,2.67,6.56,7.13,7.1,11.96,.47,4.24-.78,8.18-3.53,11.09-.32,.34-.36,.87-.1,1.26,.16,.24,.41,.38,.68,.42l-1.07,4.19-6.58,4.22-5.65-.06-6.18-4.12-.77-3.42c.14-.03,.28-.09,.4-.19,.37-.29,.49-.79,.3-1.21-.46-.98-.96-1.91-1.45-2.81-.79-1.46-1.54-2.84-2.04-4.33,0-.02-.02-.05-.03-.07-1.09-2.64-1.02-5.43,.22-8.06,.35-.74,.78-1.45,1.28-2.13,.13,.07,.28,.12,.44,.13l.57,.03c1,.05,1.86,.09,2.63,.09,3.35,0,5.12-.93,7.87-4.12,1-1.09,3.02-2.91,5.24-2.91m-10.98,2.03c-.79,1-1.82,1.73-2.94,2.04-.02,0-.04,.01-.05,.02l-.32,.11c1-.84,2.12-1.57,3.32-2.16m10.98-3.03c-2.28,0-4.43,1.56-5.97,3.23-2.75,3.19-4.25,3.8-7.14,3.8-.89,0-1.92-.06-3.15-.12l2.61-.88c2.35-.65,4.08-2.67,4.83-4.94-7.16,2.22-13.55,9.52-10.35,17.26,.84,2.54,2.36,4.73,3.53,7.25-.47-.39-.91-.82-1.33-1.29l1.42,6.3,6.76,4.51,6.25,.07,7.16-4.59,1.69-6.62c-.41,.32-.85,.6-1.35,.81,6.88-7.28,4.06-19.33-3.85-24.64-.01,0-.01-.02-.02-.03-.36-.08-.73-.12-1.09-.12h0Z">
</path>
<path d="M44.06,55.65l-13.64,18s-3.74-10.52-4.01-12.83,.45-6.15,.45-6.15l5.26,3.92,6.62,.04,5.32-2.98Z">
</path>
<polygon points="12.87 66.61 9.3 67.86 10.64 70.8 13.67 70.62 12.87 66.61">
</polygon>
<path class="cls-2" d="M43.08,58.5l-8.38,11.94s5.44,.09,9.98-6.68c-.98-3.65-1.6-5.26-1.6-5.26Z">
</path>
<path class="cls-13" d="M39.23,74.57s4.46-2.64,5.55-6.01c1.27-3.73,1.73-5.28,1.73-5.28l13.79,3.35-1.51,5.66s-11.01,3.46-19.57,2.28Z">
</path>
<path class="cls-4" d="M31.46,39.41l2-1.76-1-3.06s-6.34-2.11-7.73-1.95-2.06,1.06-2.67,1.61c1.22,2.5,3.45,3.23,3.45,3.23,0,0,.61-.83,2.06-.83s3.51,1.19,3.9,2.76Z">
</path>
<path class="cls-4" d="M40.44,39.41l-2-1.76,1-3.06s6.34-2.11,7.73-1.95,1.74,1.06,2.36,1.61c-1.22,2.5-3.13,3.23-3.13,3.23,0,0-.61-.83-2.06-.83s-3.51,1.19-3.9,2.76Z">
</path>
<path class="cls-17" d="M31.88,50.95s1.32,2.12,3.99,2.12,3.93-2.12,3.93-2.12c0,0-1.21-1.67-4-.63-1.8-.67-2.91-.47-3.92,.63Z">
</path>
<path d="M12.98,72.31c-1.72-3.31-.88-7.24,.38-10.51,1.12-3.3,2-6.65,2.51-10.08,1.74-10.29-4.94-21.38,.6-31.12,6.69-10.65,16.31-11.92,27.93-11.65,0,0,.26,0,.26,0l.13,.2c3.46,4.37,1.28,10.4-2.28,14.01-2.73-.72-5.39,1.09-7.22,3.07-3.59,4.17-5.06,3.94-10.28,3.68,0,0,2.6-.88,2.6-.88,2.63-.73,4.49-3.16,5.07-5.76,0,0,.59,.58,.59,.58-7.48,1.9-14.49,9.46-11.17,17.5,.84,2.54,2.36,4.73,3.53,7.25-4.09-3.4-6.64-10.03-5.06-15.28,2.09-5.65,7.41-9.57,13.25-10.6-.41,2.5-1.7,4.9-3.84,6.3-.63,.44-1.36,.72-2.08,.96l-.11-.98c1.36,.05,2.73-.03,3.82-.69,2.23-1.5,3.8-4.28,6.43-5.49,1.35-.66,2.85-1.05,4.46-.7l-.5,.13c3.08-3.25,5.1-8.61,2.01-12.5,0,0,.39,.2,.39,.2-11.25-.25-20.59,.85-27.05,11.15-3.65,6.13-1.62,13.5-.72,20.17,.48,3.47,.77,7.05,.25,10.59-.52,3.49-1.42,6.93-2.55,10.24-1.19,3.23-2.04,6.57-.42,9.8,.27,.52-.61,1.06-.92,.4h0Z">
</path>
<path class="cls-8" d="M54.63,65.42s-2.05-5.07-.75-14.67,2.59-25.13-2.7-33.54c-3.67-.11-5.82,.86-5.82,.86">
</path>
<path d="M46.22,47.79c6.88-7.28,4.05-19.32-3.85-24.64-.55-.34-.04-1.2,.52-.85,6.48,4.02,9.94,12.26,7.78,19.65-.67,2.38-2.07,4.85-4.45,5.84h0Z">
</path>
<path class="cls-8" d="M48.29,46.18l-1.97,7.74-7.46,4.77-6.54-.06-7.05-4.7-1.87-8.26">
</path>
<path class="cls-8" d="M26.63,54.83s-.91,5.02,1.07,10.45,2.72,8.56,2.63,9.79">
</path>
<polyline class="cls-8" points="44.24 55.57 46.3 63.31 60.04 66.85">
</polyline>
<line class="cls-8" x1="12.4" y1="66.85" x2="8.77" y2="67.92">
</line>
<path class="cls-8" d="M46.3,63.31s-.93,7.86-7.22,11.35">
</path>
<path class="cls-8" d="M56.14,65.99s.07,5.03-3.01,7.41">
</path>
<path d="M21.96,34.35c.68-1.38,2.27-2.83,3.99-2.54,2.59,.33,5.07,1.07,7.52,1.88,0,0-.71,1.92-.71,1.92-2.33-.87-4.64-1.91-7.02-2.61-1.42-.4-2.63,.46-3.79,1.35h0Z">
</path>
<path d="M49.53,34.35c-1.16-.89-2.37-1.75-3.79-1.35-2.38,.7-4.69,1.74-7.02,2.61,0,0-.71-1.92-.71-1.92,2.45-.81,4.94-1.55,7.52-1.88,1.72-.3,3.3,1.16,3.99,2.54h0Z">
</path>
<path d="M32.72,34.19c1.25,2.02,1.46,4.6,1.11,6.89-.06-1.16-.25-2.28-.6-3.35-.31-1.04-.9-2.05-1.35-3,0,0,.84-.54,.84-.54h0Z">
</path>
<path d="M40.15,34.73c-1.06,1.96-1.89,4.07-1.95,6.36-.21-1.14-.21-2.33-.03-3.5,.2-1.19,.43-2.37,1.14-3.4,0,0,.84,.54,.84,.54h0Z">
</path>
<path d="M38.37,44.35c.51,.55,.7,1.54-.04,2.02,0,0-.14-.05-.14-.05l-1.33-.43,.34-.06c-.23,.23-1.03,1.04-1.25,1.25-.21-.21-1.02-1.03-1.25-1.25l.34,.06-1.33,.43-.14,.05c-.35-.24-.56-.7-.48-1.1,.06-.36,.24-.67,.45-.93-.16,.3-.25,.63-.24,.94,.02,.31,.19,.55,.44,.68h-.22c.1-.07,1.37-.81,1.42-.84,.12,.08,1.17,.77,1.32,.86,0,0-.64,0-.63,0,.15-.1,1.19-.78,1.32-.86l.13,.08,1.29,.75h-.22c.61-.28,.49-1.08,.2-1.6h0Z">
</path>
<path d="M39.8,50.95s-1.57-1.21-3.96-.18c-2.39-1.03-3.96,.18-3.96,.18,0,0,1.21-2.85,3.96-2.17,2.75-.68,3.96,2.17,3.96,2.17Z">
</path>
<path d="M24.53,36.77c.38,.1,.73,.23,1.08,.36h-.24c2.31-1.83,5.77-.71,6.19,2.3-1.07-1.33-2.5-2.44-4.27-2.21-.56,.03-1.32,.26-1.87,.41-.31-.28-.62-.55-.89-.86h0Z">
</path>
<path d="M40.4,39.44c.42-3.01,3.87-4.13,6.19-2.31,0,0-.24,0-.24,0,.35-.13,.7-.26,1.08-.36-.27,.31-.58,.58-.89,.86l-.18-.05c-2.46-.84-4.29-.28-5.95,1.85h0Z">
</path>
<path d="M46.75,37.39c-.92,2.34-3.67,2.99-5.86,2.24,0,0,.81,.07,.81,.07,1.73,.12,3.68-.81,4.09-2.59,0,0,.96,.28,.96,.28h0Z">
</path>
<path d="M26.16,37.25c.2,1.59,1.87,2.53,3.38,2.62,0,0,.72,.03,.72,.03l-.72,.1c-1.82,.2-3.8-.68-4.36-2.57,0,0,.98-.18,.98-.18h0Z">
</path>
</g>
</g>
 <g
     id="g2850">
    <g
       id="g2837">
      <path
         id="path1951"
         d="M 0.056640625 0.04296875 L 0.056640625 79.943359 L 69.308594 79.943359 L 69.308594 0.04296875 L 0.056640625 0.04296875 z M 33.615234 3.5957031 C 34.206332 3.5957038 34.786991 3.6051034 35.421875 3.6152344 C 44.430653 3.7671809 53.471255 5.1336733 61.560547 7.5546875 L 62.064453 7.7070312 L 62.25 8.1640625 C 66.070247 17.605006 66.990234 28.726438 66.990234 40.0625 C 66.990234 51.398562 65.972723 63.025755 61.988281 72.578125 L 61.791016 73.044922 L 61.275391 73.185547 C 53.273669 75.403966 44.691921 76.529297 35.759766 76.529297 C 35.212453 76.529297 34.675812 76.519896 34.150391 76.509766 L 33.943359 76.509766 C 24.901742 76.357819 15.860367 74.989738 7.7929688 72.558594 L 7.2890625 72.40625 L 7.1035156 71.951172 C 3.2942144 62.520359 2.375 51.369168 2.375 40.0625 C 2.375 28.755832 3.3819737 17.127318 7.3554688 7.5546875 L 7.5527344 7.0898438 L 8.0664062 6.9472656 C 15.509867 4.890923 23.785212 3.7371557 32.005859 3.6054688 C 32.542226 3.5953387 33.078867 3.5957031 33.615234 3.5957031 z "
         style="opacity:1;vector-effect:none;fill:#ffffff;fill-opacity:1;fill-rule:nonzero;stroke:none;stroke-width:1.95200002;stroke-linecap:butt;stroke-linejoin:miter;stroke-miterlimit:4;stroke-dasharray:none;stroke-dashoffset:0;stroke-opacity:1" />
    </g>
    <path
       id="path1154-8-2"
       d="m 33.675163,6.6112954 c 0.557696,0 1.115392,0.00956 1.683415,0.019115 8.427403,0.14336 16.803167,1.4049288 24.363042,3.6700176 3.573384,8.830981 4.443772,19.417362 4.443772,29.761551 0,10.344189 -0.95301,21.39888 -4.68131,30.334991 -7.435942,2.064385 -15.429581,3.274388 -23.774362,3.274388 -0.506058,0 -1.012115,-0.0096 -1.518172,-0.01911 h -0.17557 C 25.56792,73.508883 17.192156,72.088619 9.6426089,69.813973 6.0795528,61.002107 5.2088244,50.415411 5.2088244,40.061979 c 0,-10.353432 0.95335,-21.389323 4.6609939,-30.325434 C 16.820359,7.8155201 24.462856,6.7450981 32.177647,6.6208528 c 0.49573,-0.00956 1.001787,-0.00956 1.497516,-0.00956 m 0,-0.9557337 c -0.506057,0 -1.012114,0 -1.518171,0.00956 C 24.40089,5.7893644 16.593149,6.8789009 9.570315,8.8190405 L 9.0849131,8.9528432 8.8990146,9.3924808 C 5.1500599,18.424166 4.1999116,29.394246 4.1999116,40.061979 c 0,10.667733 0.8675267,21.188618 4.461566,30.0865 l 0.1755708,0.430081 0.4750741,0.14336 c 7.6115135,2.293761 16.1421925,3.584001 24.6728715,3.727361 h 0.196227 c 0.495729,0.0096 1.001786,0.01911 1.518171,0.01911 8.427403,0 16.524318,-1.060864 24.073866,-3.153921 l 0.485403,-0.133802 0.185898,-0.439639 c 3.759282,-9.01257 4.719759,-19.983589 4.719759,-30.679055 0,-10.695466 -0.867528,-21.188618 -4.471894,-30.0960578 L 60.516853,9.5358409 60.041779,9.3924808 C 52.409609,7.108277 43.87893,5.8180364 35.379234,5.6746763 34.780227,5.6651187 34.232859,5.6555621 33.675163,5.6555615 Z"
       style="fill:#ff0000;stroke:#ffffff;stroke-width:1.84341729;stroke-miterlimit:4;stroke-dasharray:none" />
    <path
       id="path1154"
       d="m 33.614853,4.6077955 c 0.591098,0 1.182197,0.01013 1.784241,0.02026 8.932155,0.1519464 17.809578,1.4890758 25.822246,3.8898304 3.787408,9.3599041 4.709928,20.5803481 4.709928,31.5440931 0,10.963745 -1.01009,22.680548 -4.961693,32.151879 -7.881312,2.18803 -16.353723,3.302304 -25.198307,3.302304 -0.536368,0 -1.072735,-0.01013 -1.609102,-0.02026 H 33.97608 C 25.022033,75.343956 16.14461,74.006827 8.1428892,71.595943 4.3664269,62.256298 3.443547,51.035521 3.443547,40.061979 c 0,-10.973542 1.01045,-22.670418 4.9401601,-32.1417498 7.3668369,-2.036083 15.4670749,-3.170617 23.6439369,-3.3023039 0.525421,-0.01013 1.061788,-0.01013 1.587209,-0.01013 m 0,-1.0129766 c -0.536367,0 -1.072734,0 -1.609101,0.01013 C 23.785105,3.7366356 15.509726,4.891429 8.0662653,6.9477716 L 7.5517907,7.0895883 7.3547579,7.5555576 C 3.3812628,17.128188 2.3742062,28.755311 2.3742062,40.061979 c 0,11.306668 0.9194864,22.457692 4.7287876,31.888505 l 0.1860865,0.45584 0.5035283,0.151947 c 8.0673984,2.431144 17.1090154,3.798662 26.1506324,3.950608 h 0.207979 c 0.525421,0.01013 1.061788,0.02026 1.609101,0.02026 8.932155,0 17.514028,-1.124404 25.51575,-3.342823 l 0.514475,-0.141816 0.197032,-0.46597 c 3.984442,-9.55237 5.002445,-21.180489 5.002445,-32.516551 0,-11.336062 -0.919487,-22.457692 -4.739734,-31.8986353 L 62.064202,7.7075041 61.560674,7.5555576 C 53.471382,5.1345434 44.429765,3.7670249 35.420987,3.6150784 c -0.634884,-0.01013 -1.215036,-0.020259 -1.806134,-0.02026 z"
       style="fill:#000000;stroke:#000000;stroke-width:1.95382714;stroke-miterlimit:4;stroke-dasharray:none" />
    <g
       id="g1810">
      <path
         d="M 6.5134911,7.7433673 C 5.6489029,6.8479453 4.058602,6.5681013 3.6272194,7.3820013 3.284151,8.0292783 3.3625296,8.5309135 4.395235,8.9201755 3.2963719,9.5187755 1.4857674,9.4447465 1.1893447,7.4467713 0.95320848,5.8551433 2.674739,4.8863543 3.1399725,5.0916244 3.0034432,3.6818714 1.8221094,4.0692802 0.95849208,3.2813384 0.34259068,2.7194046 0.23126071,-0.02624603 0.0561761,0.04378767 -0.0138576,0.21887227 2.7317937,0.33020157 3.2937267,0.94610377 4.0816685,1.8097211 3.6942598,2.9910547 5.1040128,3.1275841 4.8987425,2.6623507 5.8675315,0.94082017 7.4591593,1.1769564 9.4571345,1.4733791 9.5311625,3.2839847 8.9325635,4.3828467 8.5433008,3.3501417 8.041666,3.2717627 7.3943894,3.6148312 6.5804899,4.0462137 6.8603354,5.6365129 7.7557553,6.5011023"
         style="fill:#000000;stroke:#000000;stroke-width:0.1112323px;stroke-linecap:butt;stroke-linejoin:miter;stroke-opacity:1"
         id="path1737-3" />
      <path
         d="m 62.850738,7.7433673 c 0.864588,-0.895422 2.454889,-1.175266 2.886271,-0.361366 0.343069,0.647277 0.26469,1.148912 -0.768015,1.538174 1.098863,0.5986 2.909467,0.524571 3.20589,-1.473404 0.236136,-1.591628 -1.485394,-2.560417 -1.950628,-2.3551469 0.13653,-1.409753 1.317863,-1.0223442 2.181481,-1.810286 0.615901,-0.5619338 0.727231,-3.30758442 0.902316,-3.23755072 0.07003,0.1750846 -2.675618,0.2864139 -3.237551,0.9023161 C 65.28256,1.8097211 65.669969,2.9910547 64.260216,3.1275841 64.465486,2.6623507 63.496697,0.94082018 61.905069,1.1769564 c -1.997975,0.2964227 -2.072003,2.1070283 -1.473404,3.2058903 0.389263,-1.032705 0.890898,-1.111084 1.538174,-0.7680155 0.8139,0.4313825 0.534054,2.0216817 -0.361366,2.8862711"
         style="fill:#000000;stroke:#000000;stroke-width:0.1112323px;stroke-linecap:butt;stroke-linejoin:miter;stroke-opacity:1"
         id="path1737-3-5" />
      <path
         d="m 62.850738,72.244244 c 0.864588,0.895422 2.454889,1.175266 2.886272,0.361366 0.343068,-0.647277 0.264689,-1.148912 -0.768016,-1.538174 1.098863,-0.5986 2.909468,-0.524571 3.20589,1.473404 0.236137,1.591628 -1.485394,2.560417 -1.950628,2.355147 0.13653,1.409753 1.317864,1.022344 2.181481,1.810286 0.615901,0.561934 0.727231,3.307584 0.902316,3.237551 0.07003,-0.175085 -2.675618,-0.286414 -3.237551,-0.902317 -0.787942,-0.863617 -0.400533,-2.04495 -1.810286,-2.18148 0.20527,0.465234 -0.763519,2.186764 -2.355146,1.950628 -1.997976,-0.296423 -2.072004,-2.107028 -1.473405,-3.20589 0.389263,1.032705 0.890898,1.111084 1.538175,0.768015 0.813899,-0.431382 0.534054,-2.021682 -0.361366,-2.886271"
         style="fill:#000000;stroke:#000000;stroke-width:0.1112323px;stroke-linecap:butt;stroke-linejoin:miter;stroke-opacity:1"
         id="path1737-3-7" />
      <path
         d="M 6.513491,72.244245 C 5.648903,73.139667 4.058602,73.419511 3.62722,72.605611 3.284151,71.958334 3.36253,71.456699 4.395235,71.067437 c -1.098863,-0.5986 -2.909467,-0.524571 -3.20589,1.473404 -0.23613599,1.591628 1.485394,2.560417 1.950628,2.355147 -0.13653,1.409753 -1.317863,1.022344 -2.18148099,1.810286 -0.615901,0.561933 -0.727231,3.307584 -0.902316,3.23755 C -0.01385399,79.76874 2.731794,79.65741 3.293727,79.041508 4.081669,78.177891 3.69426,76.996557 5.104013,76.860028 4.898743,77.325261 5.867532,79.046792 7.45916,78.810656 9.457135,78.514233 9.531163,76.703627 8.932564,75.604765 8.543301,76.63747 8.041666,76.715849 7.39439,76.372781 6.58049,75.941398 6.860336,74.351099 7.755756,73.48651"
         style="fill:#000000;stroke:#000000;stroke-width:0.1112323px;stroke-linecap:butt;stroke-linejoin:miter;stroke-opacity:1"
         id="path1737-3-5-5" />
    </g>
    <path
       id="path1154-9"
       d="m 33.712865,7.4258691 c 0.536813,0 1.07363,0.00933 1.620386,0.01865 8.111875,0.1398689 16.174044,1.3707167 23.450873,3.5806479 3.439594,8.615932 4.277395,18.944521 4.277395,29.036812 0,10.092292 -0.917329,20.877786 -4.506039,29.596289 -7.157536,2.014114 -14.851888,3.03982 -22.884234,3.03982 -0.487111,0 -0.974221,-0.0094 -1.461331,-0.01865 H 34.040918 C 25.909161,72.53957 17.846991,71.308722 10.580105,69.089467 7.1504515,60.492184 6.3123238,50.163289 6.3123238,40.061979 c 0,-10.101311 0.9176558,-20.868461 4.4864832,-29.586965 6.690308,-1.8742449 14.046665,-2.9186005 21.472608,-3.0398203 0.47717,-0.00933 0.964281,-0.00933 1.44145,-0.00933 m 0,-0.9324602 c -0.487111,0 -0.974221,0 -1.46133,0.00933 C 24.785826,6.6239532 17.270413,7.686958 10.510517,9.5798526 L 10.043289,9.710397 9.8643508,10.139328 c -3.6085914,8.811751 -4.5231655,19.514693 -4.5231655,29.922651 0,10.407958 0.8350459,20.672644 4.294522,29.353849 l 0.1689973,0.419608 0.4572874,0.13987 c 7.326533,2.237904 15.537818,3.496724 23.749103,3.636593 h 0.188879 c 0.47717,0.0094 0.96428,0.01865 1.461331,0.01865 8.111875,0 15.905636,-1.035031 23.172525,-3.077119 l 0.467228,-0.130544 0.178938,-0.428932 c 3.618533,-8.793101 4.543048,-19.496959 4.543048,-29.931975 0,-10.435016 -0.835047,-20.672644 -4.304463,-29.363174 l -0.168997,-0.419609 -0.457288,-0.13987 C 51.74588,7.9107484 43.534594,6.6519271 35.353133,6.512058 34.776554,6.502738 34.249678,6.493409 33.712865,6.493409 Z"
       style="fill:#000000;stroke:none;stroke-width:1.78642213;stroke-miterlimit:4;stroke-dasharray:none" />
    <path
       id="path1154-9-3"
       d="m 33.712865,7.4258686 c 0.536813,0 1.07363,0.00933 1.620386,0.01865 8.111875,0.1398689 16.174044,1.3707167 23.450873,3.5806484 3.439594,8.615932 4.277395,18.944521 4.277395,29.036812 0,10.092292 -0.917329,20.877786 -4.506039,29.596288 -7.157536,2.014114 -14.851888,3.03982 -22.884234,3.03982 -0.487111,0 -0.974221,-0.0094 -1.461331,-0.01865 H 34.040918 C 25.909161,72.539569 17.846991,71.308722 10.580105,69.089466 7.1504515,60.492184 6.3123238,50.163288 6.3123238,40.061979 c 0,-10.101312 0.9176558,-20.868461 4.4864832,-29.586965 6.690308,-1.8742454 14.046665,-2.918601 21.472608,-3.0398208 0.47717,-0.00933 0.964281,-0.00933 1.44145,-0.00933 m 0,-0.9324602 c -0.487111,0 -0.974221,0 -1.46133,0.00933 C 24.785826,6.6239527 17.270413,7.6869575 10.510517,9.5798521 L 10.043289,9.7103965 9.8643508,10.139328 C 6.2557594,18.951079 5.3411853,29.65402 5.3411853,40.061979 c 0,10.407958 0.8350459,20.672643 4.294522,29.353849 l 0.1689973,0.419608 0.4572874,0.13987 c 7.326533,2.237904 15.537818,3.496724 23.749103,3.636593 h 0.188879 c 0.47717,0.0094 0.96428,0.01865 1.461331,0.01865 8.111875,0 15.905636,-1.035032 23.172525,-3.077119 l 0.467228,-0.130544 0.178938,-0.428932 c 3.618533,-8.793101 4.543048,-19.49696 4.543048,-29.931975 0,-10.435016 -0.835047,-20.672644 -4.304463,-29.363175 l -0.168997,-0.419609 -0.457288,-0.13987 C 51.74588,7.9107479 43.534594,6.6519266 35.353133,6.5120575 34.776554,6.5027375 34.249678,6.4934085 33.712865,6.4934085 Z"
       style="fill:#000000;stroke:none;stroke-width:1.78642213;stroke-miterlimit:4;stroke-dasharray:none" />
  </g>
</svg>
