<svg id="Capa_2" xmlns="http://www.w3.org/2000/svg" xmlns:xlink="http://www.w3.org/1999/xlink" viewBox="0 0 69.02 80">
<defs >
<style >
.cls-1{fill:#c89aed;}.cls-2{fill:#fff;}.cls-3{fill:#f8ffbf;}.cls-4{fill:#7b7be8;}.cls-5{fill:#a88347;}.cls-6{fill:#782ab5;}.cls-7,.cls-8{stroke-miterlimit:10;}.cls-7,.cls-8,.cls-9{stroke:#000;}.cls-7,.cls-8,.cls-10,.cls-11,.cls-12{fill:none;}.cls-8,.cls-9,.cls-10{stroke-linecap:round;}.cls-9,.cls-10{stroke-linejoin:round;}.cls-13{fill:#1c46ff;}.cls-10{stroke:#deb778;stroke-dasharray:0 0 0 4.06;}.cls-14{fill:#deb778;}.cls-15{fill:url(#USGS_19_Inundación_de_tierra_2);}.cls-12{stroke:#1d1d1b;stroke-dasharray:0 0 2 2;stroke-width:.3px;}.cls-16{fill:#fcf0c5;}.cls-17{fill:#b83521;}
</style>
<pattern id="USGS_19_Inundación_de_tierra_2" x="0" y="0" width="72" height="72" patternTransform="translate(-92.48 -16063) rotate(-90)" patternUnits="userSpaceOnUse" viewBox="0 0 72 72">
<g >
<rect class="cls-11" width="72" height="72">
</rect>
<g >
<line class="cls-12" x1="71" y1="71" x2="144.44" y2="71">
</line>
<line class="cls-12" x1="71" y1="67" x2="144.44" y2="67">
</line>
<line class="cls-12" x1="71" y1="63" x2="144.44" y2="63">
</line>
<line class="cls-12" x1="71" y1="59" x2="144.44" y2="59">
</line>
<line class="cls-12" x1="71" y1="55" x2="144.44" y2="55">
</line>
<line class="cls-12" x1="71" y1="51" x2="144.44" y2="51">
</line>
<line class="cls-12" x1="71" y1="47" x2="144.44" y2="47">
</line>
<line class="cls-12" x1="71" y1="43" x2="144.44" y2="43">
</line>
<line class="cls-12" x1="71" y1="39" x2="144.44" y2="39">
</line>
<line class="cls-12" x1="71" y1="35" x2="144.44" y2="35">
</line>
<line class="cls-12" x1="71" y1="31" x2="144.44" y2="31">
</line>
<line class="cls-12" x1="71" y1="27" x2="144.44" y2="27">
</line>
<line class="cls-12" x1="71" y1="23" x2="144.44" y2="23">
</line>
<line class="cls-12" x1="71" y1="19" x2="144.44" y2="19">
</line>
<line class="cls-12" x1="71" y1="15" x2="144.44" y2="15">
</line>
<line class="cls-12" x1="71" y1="11" x2="144.44" y2="11">
</line>
<line class="cls-12" x1="71" y1="7" x2="144.44" y2="7">
</line>
<line class="cls-12" x1="71" y1="3" x2="144.44" y2="3">
</line>
</g>
<g >
<line class="cls-12" x1="-1" y1="71" x2="72.44" y2="71">
</line>
<line class="cls-12" x1="-1" y1="67" x2="72.44" y2="67">
</line>
<line class="cls-12" x1="-1" y1="63" x2="72.44" y2="63">
</line>
<line class="cls-12" x1="-1" y1="59" x2="72.44" y2="59">
</line>
<line class="cls-12" x1="-1" y1="55" x2="72.44" y2="55">
</line>
<line class="cls-12" x1="-1" y1="51" x2="72.44" y2="51">
</line>
<line class="cls-12" x1="-1" y1="47" x2="72.44" y2="47">
</line>
<line class="cls-12" x1="-1" y1="43" x2="72.44" y2="43">
</line>
<line class="cls-12" x1="-1" y1="39" x2="72.44" y2="39">
</line>
<line class="cls-12" x1="-1" y1="35" x2="72.44" y2="35">
</line>
<line class="cls-12" x1="-1" y1="31" x2="72.44" y2="31">
</line>
<line class="cls-12" x1="-1" y1="27" x2="72.44" y2="27">
</line>
<line class="cls-12" x1="-1" y1="23" x2="72.44" y2="23">
</line>
<line class="cls-12" x1="-1" y1="19" x2="72.44" y2="19">
</line>
<line class="cls-12" x1="-1" y1="15" x2="72.44" y2="15">
</line>
<line class="cls-12" x1="-1" y1="11" x2="72.44" y2="11">
</line>
<line class="cls-12" x1="-1" y1="7" x2="72.44" y2="7">
</line>
<line class="cls-12" x1="-1" y1="3" x2="72.44" y2="3">
</line>
<line class="cls-12" x1="1.04" y1="69" x2="74.48" y2="69">
</line>
<line class="cls-12" x1="1.04" y1="65" x2="74.48" y2="65">
</line>
<line class="cls-12" x1="1.04" y1="61" x2="74.48" y2="61">
</line>
<line class="cls-12" x1="1.04" y1="57" x2="74.48" y2="57">
</line>
<line class="cls-12" x1="1.04" y1="53" x2="74.48" y2="53">
</line>
<line class="cls-12" x1="1.04" y1="49" x2="74.48" y2="49">
</line>
<line class="cls-12" x1="1.04" y1="45" x2="74.48" y2="45">
</line>
<line class="cls-12" x1="1.04" y1="41" x2="74.48" y2="41">
</line>
<line class="cls-12" x1="1.04" y1="37" x2="74.48" y2="37">
</line>
<line class="cls-12" x1="1.04" y1="33" x2="74.48" y2="33">
</line>
<line class="cls-12" x1="1.04" y1="29" x2="74.48" y2="29">
</line>
<line class="cls-12" x1="1.04" y1="25" x2="74.48" y2="25">
</line>
<line class="cls-12" x1="1.04" y1="21" x2="74.48" y2="21">
</line>
<line class="cls-12" x1="1.04" y1="17" x2="74.48" y2="17">
</line>
<line class="cls-12" x1="1.04" y1="13" x2="74.48" y2="13">
</line>
<line class="cls-12" x1="1.04" y1="9" x2="74.48" y2="9">
</line>
<line class="cls-12" x1="1.04" y1="5" x2="74.48" y2="5">
</line>
<line class="cls-12" x1="1.04" y1="1" x2="74.48" y2="1">
</line>
</g>
<g >
<line class="cls-12" x1="-73" y1="71" x2=".44" y2="71">
</line>
<line class="cls-12" x1="-73" y1="67" x2=".44" y2="67">
</line>
<line class="cls-12" x1="-73" y1="63" x2=".44" y2="63">
</line>
<line class="cls-12" x1="-73" y1="59" x2=".44" y2="59">
</line>
<line class="cls-12" x1="-73" y1="55" x2=".44" y2="55">
</line>
<line class="cls-12" x1="-73" y1="51" x2=".44" y2="51">
</line>
<line class="cls-12" x1="-73" y1="47" x2=".44" y2="47">
</line>
<line class="cls-12" x1="-73" y1="43" x2=".44" y2="43">
</line>
<line class="cls-12" x1="-73" y1="39" x2=".44" y2="39">
</line>
<line class="cls-12" x1="-73" y1="35" x2=".44" y2="35">
</line>
<line class="cls-12" x1="-73" y1="31" x2=".44" y2="31">
</line>
<line class="cls-12" x1="-73" y1="27" x2=".44" y2="27">
</line>
<line class="cls-12" x1="-73" y1="23" x2=".44" y2="23">
</line>
<line class="cls-12" x1="-73" y1="19" x2=".44" y2="19">
</line>
<line class="cls-12" x1="-73" y1="15" x2=".44" y2="15">
</line>
<line class="cls-12" x1="-73" y1="11" x2=".44" y2="11">
</line>
<line class="cls-12" x1="-73" y1="7" x2=".44" y2="7">
</line>
<line class="cls-12" x1="-73" y1="3" x2=".44" y2="3">
</line>
<line class="cls-12" x1="-70.96" y1="69" x2="2.48" y2="69">
</line>
<line class="cls-12" x1="-70.96" y1="65" x2="2.48" y2="65">
</line>
<line class="cls-12" x1="-70.96" y1="61" x2="2.48" y2="61">
</line>
<line class="cls-12" x1="-70.96" y1="57" x2="2.48" y2="57">
</line>
<line class="cls-12" x1="-70.96" y1="53" x2="2.48" y2="53">
</line>
<line class="cls-12" x1="-70.96" y1="49" x2="2.48" y2="49">
</line>
<line class="cls-12" x1="-70.96" y1="45" x2="2.48" y2="45">
</line>
<line class="cls-12" x1="-70.96" y1="41" x2="2.48" y2="41">
</line>
<line class="cls-12" x1="-70.96" y1="37" x2="2.48" y2="37">
</line>
<line class="cls-12" x1="-70.96" y1="33" x2="2.48" y2="33">
</line>
<line class="cls-12" x1="-70.96" y1="29" x2="2.48" y2="29">
</line>
<line class="cls-12" x1="-70.96" y1="25" x2="2.48" y2="25">
</line>
<line class="cls-12" x1="-70.96" y1="21" x2="2.48" y2="21">
</line>
<line class="cls-12" x1="-70.96" y1="17" x2="2.48" y2="17">
</line>
<line class="cls-12" x1="-70.96" y1="13" x2="2.48" y2="13">
</line>
<line class="cls-12" x1="-70.96" y1="9" x2="2.48" y2="9">
</line>
<line class="cls-12" x1="-70.96" y1="5" x2="2.48" y2="5">
</line>
<line class="cls-12" x1="-70.96" y1="1" x2="2.48" y2="1">
</line>
</g>
</g>
</pattern>
</defs>

  <path
     id="path7641-4"
     style="fill:#782ab5;fill-opacity:1;stroke:#4d4d4d;stroke-width:1.62226;stop-color:#000000"
     d="M 34.900259,1.6936052 C 14.323312,9.5265586 1.6299002,23.954051 1.5689773,39.580572 V 79.197446 H 67.963672 V 39.580572 C 67.958188,23.990066 55.374427,9.5708664 34.900259,1.6936052 Z"/>
  <path
     id="path7641-7"
     style="fill:#808080;stroke:#4d4d4d;stroke-width:1.48325;stop-color:#000000"
     d="M 34.629293,5.0425238 C 15.815619,12.204258 4.1542243,25.395327 4.1542243,39.682894 V 76.559207 H 64.859448 V 39.682894 c 0,-14.254531 -11.510452,-27.438125 -30.230155,-34.6403702 z m -0.01233,3.4358455 C 51.537073,14.988239 61.941622,26.904418 61.941622,39.788613 v 33.82806 H 7.07205 v -33.82806 c 0,-12.914055 10.539857,-24.836991 27.544909,-31.3102437 z"/>
  <path
     id="path7641-7-8"
     style="fill:#808080;stroke:#4d4d4d;stroke-width:1.35027;stop-color:#000000"
     d="M 34.618314,8.2461803 C 17.491429,14.76581 6.8755673,26.7742 6.8755673,39.780777 v 33.57007 H 62.138105 v -33.57007 c 0,-12.976504 -10.478452,-24.978088 -27.519791,-31.5345967 z m -0.01123,3.1277957 c 15.403093,5.926211 24.874795,16.774013 24.874795,28.503041 V 70.672134 H 9.5317874 V 39.877017 c 0,-11.75621 9.5948786,-22.610165 25.0752986,-28.503041 z"/>
  <path
     id="path7641-7-8-0"
     style="fill:#808080;stroke:#4d4d4d;stroke-width:1.21411;stop-color:#000000"
     d="M 34.607073,11.526302 C 19.207238,17.388502 9.6618637,28.185984 9.6618637,39.880997 V 70.06591 H 59.351809 V 39.880997 c 0,-11.667973 -9.421821,-22.459335 -24.744736,-28.354695 z m -0.0101,2.812393 c 13.849868,5.328621 22.366458,15.082547 22.366458,25.628837 V 67.657315 H 12.050234 V 39.967532 c 0,-10.570731 8.627346,-20.33019 22.546743,-25.628837 z"/>


<g id="Characters">
<g >
<path class="cls-1" d="M60.3,66.64l-1.75,6.68s-15.38,6.21-31.24,3.83c-.11-.02-.22-.03-.33-.05-5.34-.84-9.14-1.69-11.84-2.46-5.38-1.52-6.37-2.68-6.37-2.68l.97-4.65,2.03-.38s.01-.02,.03-.05c.24-.56,2.52-5.71,3.07-8.09,.58-2.52,2.52-11.23,1.16-18.11-1.35-6.88-1.84-13.46,.2-18.6,2.03-5.13,10.55-14.33,28.38-12.4,2.03,4.56,.96,8.14,.96,8.14l5.62-.48s2.33,2.22,3.68,12.88c1.36,10.65-1.55,20.14-1.35,25.67,.19,5.52,1.16,9.68,1.16,9.68l2.64,.5,2.98,.57Z">
</path>
<path class="cls-1" d="M43,22.13s-12.77-.67-19.38,7.06c-6.39,7.39-.11,16.81,.22,17.37,.67,5.38,1.68,7.73,1.68,7.73l.67,1.23s.08,7.34,1.89,11.12,2.48,7.92,2.48,7.92l9.19,.34s6.5-6.83,6.72-11.99c-1.46-4.59-2.27-7.69-2.27-7.69l1.93-1.05,1.79-7.84s3.7-4.82,2.69-11.88-7.62-12.32-7.62-12.32Z">
</path>
<path class="cls-2" d="M35.51,58.41l.18-33.44s4.93-2.69,6.97-2.37,7.35,7.12,8,12.6-2.47,11.5-2.47,11.5l-2.26,7.95-7.2,3.98-3.22-.21Z">
</path>
<path class="cls-9" d="M57.07,66.13l.2,.39-10.79-2.92-2.28-8.38,2.54-1.65,1.65-7.74s3.04-4.06,2.41-9.77c-.64-5.72-5.84-13.46-8.13-13.46s-4.56,.64-6.47,2.16c-1.9,1.52-2.03,3.43-7.36,4.82,0,0,3.43-1.77,4.32-5.96-7.49,1.77-10.79,6.09-12.32,10.91-1.52,4.83,2.8,11.68,2.8,11.68l1.63,7.71,1.54,1.3c-.89,2.16-.25,8,1.27,11.42,1.52,3.43,2.03,7.62,2.03,7.62-.57,1.47-1.56,2.39-2.8,2.89-3.64,1.48-9.37-.62-12.17-2.51-.75-.5-1.3-1-1.53-1.4-1.4-2.41-1.4-6.09-1.4-6.09l-.41-.27c.24-.56,2.52-5.71,3.07-8.09,.58-2.52,2.52-11.23,1.16-18.11-1.35-6.88-1.84-13.46,.2-18.6,2.03-5.13,10.55-14.33,28.38-12.4,2.03,4.56,.96,8.14,.96,8.14l5.62-.48s2.33,2.22,3.68,12.88c1.36,10.65-1.55,20.14-1.35,25.67,.19,5.52,1.16,9.68,1.16,9.68l2.39,.56Z">
</path>
<path class="cls-17" d="M44.61,9.68s-4.59,1.61-6.33,5.91c-1.74,4.29-15.16,11.27-22,9.26,.4-4.29,5.29-16.24,28.34-15.16Z">
</path>
<path class="cls-17" d="M54.05,47.17s-2.47,3.37-6.07,1.8c-.79,3.93-1.24,6.41-1.24,6.41,0,0,4.95-2.81,6.07-1.35,.56-4.38,1.24-6.86,1.24-6.86Z">
</path>
<path class="cls-17" d="M16.73,47.85s3.71,1.8,7.42,1.12c.34,3.82,1.8,11.92,2.59,14.28-3.49-5.85-7.53-10.01-12.7-1.69,3.15-7.76,2.7-13.72,2.7-13.72Z">
</path>
<path class="cls-2" d="M24.16,39.85s3.52,2.26,8.04,1.26c-3.01,4.02-5.86,2.76-8.04-1.26Z">
</path>
<path class="cls-3" d="M31.46,39.41s-1.02,.96-3.6,.2c-2-.59-2.32-2.39-2.32-2.39,0,0,4.58-1.37,5.93,2.19Z">
</path>
<path class="cls-3" d="M40.57,39.41s1.02,.96,3.6,.2c2-.59,2.32-2.39,2.32-2.39,0,0-4.58-1.37-5.93,2.19Z">
</path>
<path class="cls-1" d="M41.26,24h0c.22,0,.44,.02,.66,.06,3.91,2.67,6.56,7.13,7.1,11.96,.47,4.24-.78,8.18-3.53,11.09-.32,.34-.36,.87-.1,1.26,.16,.24,.41,.38,.68,.42l-1.07,4.19-6.58,4.22-5.65-.06-6.18-4.12-.77-3.42c.14-.03,.28-.09,.4-.19,.37-.29,.49-.79,.3-1.21-.46-.98-.96-1.91-1.45-2.81-.79-1.46-1.54-2.84-2.04-4.33,0-.02-.02-.05-.03-.07-1.09-2.64-1.02-5.43,.22-8.06,.35-.74,.78-1.45,1.28-2.13,.13,.07,.28,.12,.44,.13l.57,.03c1,.05,1.86,.09,2.63,.09,3.35,0,5.12-.93,7.87-4.12,1-1.09,3.02-2.91,5.24-2.91m-10.98,2.03c-.79,1-1.82,1.73-2.94,2.04-.02,0-.04,.01-.05,.02l-.32,.11c1-.84,2.12-1.57,3.32-2.16m10.98-3.03c-2.28,0-4.43,1.56-5.97,3.23-2.75,3.19-4.25,3.8-7.14,3.8-.89,0-1.92-.06-3.15-.12l2.61-.88c2.35-.65,4.08-2.67,4.83-4.94-7.16,2.22-13.55,9.52-10.35,17.26,.84,2.54,2.36,4.73,3.53,7.25-.47-.39-.91-.82-1.33-1.29l1.42,6.3,6.76,4.51,6.25,.07,7.16-4.59,1.69-6.62c-.41,.32-.85,.6-1.35,.81,6.88-7.28,4.06-19.33-3.85-24.64-.01,0-.01-.02-.02-.03-.36-.08-.73-.12-1.09-.12h0Z">
</path>
<path d="M44.06,55.65l-13.64,18s-3.74-10.52-4.01-12.83,.45-6.15,.45-6.15l5.26,3.92,6.62,.04,5.32-2.98Z">
</path>
<polygon points="12.87 66.61 9.3 67.86 10.64 70.8 13.67 70.62 12.87 66.61">
</polygon>
<path class="cls-2" d="M43.08,58.5l-8.38,11.94s5.44,.09,9.98-6.68c-.98-3.65-1.6-5.26-1.6-5.26Z">
</path>
<path class="cls-13" d="M39.23,74.57s4.46-2.64,5.55-6.01c1.27-3.73,1.73-5.28,1.73-5.28l13.79,3.35-1.51,5.66s-11.01,3.46-19.57,2.28Z">
</path>
<path class="cls-4" d="M31.46,39.41l2-1.76-1-3.06s-6.34-2.11-7.73-1.95-2.06,1.06-2.67,1.61c1.22,2.5,3.45,3.23,3.45,3.23,0,0,.61-.83,2.06-.83s3.51,1.19,3.9,2.76Z">
</path>
<path class="cls-4" d="M40.44,39.41l-2-1.76,1-3.06s6.34-2.11,7.73-1.95,1.74,1.06,2.36,1.61c-1.22,2.5-3.13,3.23-3.13,3.23,0,0-.61-.83-2.06-.83s-3.51,1.19-3.9,2.76Z">
</path>
<path class="cls-17" d="M31.88,50.95s1.32,2.12,3.99,2.12,3.93-2.12,3.93-2.12c0,0-1.21-1.67-4-.63-1.8-.67-2.91-.47-3.92,.63Z">
</path>
<path d="M12.98,72.31c-1.72-3.31-.88-7.24,.38-10.51,1.12-3.3,2-6.65,2.51-10.08,1.74-10.29-4.94-21.38,.6-31.12,6.69-10.65,16.31-11.92,27.93-11.65,0,0,.26,0,.26,0l.13,.2c3.46,4.37,1.28,10.4-2.28,14.01-2.73-.72-5.39,1.09-7.22,3.07-3.59,4.17-5.06,3.94-10.28,3.68,0,0,2.6-.88,2.6-.88,2.63-.73,4.49-3.16,5.07-5.76,0,0,.59,.58,.59,.58-7.48,1.9-14.49,9.46-11.17,17.5,.84,2.54,2.36,4.73,3.53,7.25-4.09-3.4-6.64-10.03-5.06-15.28,2.09-5.65,7.41-9.57,13.25-10.6-.41,2.5-1.7,4.9-3.84,6.3-.63,.44-1.36,.72-2.08,.96l-.11-.98c1.36,.05,2.73-.03,3.82-.69,2.23-1.5,3.8-4.28,6.43-5.49,1.35-.66,2.85-1.05,4.46-.7l-.5,.13c3.08-3.25,5.1-8.61,2.01-12.5,0,0,.39,.2,.39,.2-11.25-.25-20.59,.85-27.05,11.15-3.65,6.13-1.62,13.5-.72,20.17,.48,3.47,.77,7.05,.25,10.59-.52,3.49-1.42,6.93-2.55,10.24-1.19,3.23-2.04,6.57-.42,9.8,.27,.52-.61,1.06-.92,.4h0Z">
</path>
<path class="cls-8" d="M54.63,65.42s-2.05-5.07-.75-14.67,2.59-25.13-2.7-33.54c-3.67-.11-5.82,.86-5.82,.86">
</path>
<path d="M46.22,47.79c6.88-7.28,4.05-19.32-3.85-24.64-.55-.34-.04-1.2,.52-.85,6.48,4.02,9.94,12.26,7.78,19.65-.67,2.38-2.07,4.85-4.45,5.84h0Z">
</path>
<path class="cls-8" d="M48.29,46.18l-1.97,7.74-7.46,4.77-6.54-.06-7.05-4.7-1.87-8.26">
</path>
<path class="cls-8" d="M26.63,54.83s-.91,5.02,1.07,10.45,2.72,8.56,2.63,9.79">
</path>
<polyline class="cls-8" points="44.24 55.57 46.3 63.31 60.04 66.85">
</polyline>
<line class="cls-8" x1="12.4" y1="66.85" x2="8.77" y2="67.92">
</line>
<path class="cls-8" d="M46.3,63.31s-.93,7.86-7.22,11.35">
</path>
<path class="cls-8" d="M56.14,65.99s.07,5.03-3.01,7.41">
</path>
<path d="M21.96,34.35c.68-1.38,2.27-2.83,3.99-2.54,2.59,.33,5.07,1.07,7.52,1.88,0,0-.71,1.92-.71,1.92-2.33-.87-4.64-1.91-7.02-2.61-1.42-.4-2.63,.46-3.79,1.35h0Z">
</path>
<path d="M49.53,34.35c-1.16-.89-2.37-1.75-3.79-1.35-2.38,.7-4.69,1.74-7.02,2.61,0,0-.71-1.92-.71-1.92,2.45-.81,4.94-1.55,7.52-1.88,1.72-.3,3.3,1.16,3.99,2.54h0Z">
</path>
<path d="M32.72,34.19c1.25,2.02,1.46,4.6,1.11,6.89-.06-1.16-.25-2.28-.6-3.35-.31-1.04-.9-2.05-1.35-3,0,0,.84-.54,.84-.54h0Z">
</path>
<path d="M40.15,34.73c-1.06,1.96-1.89,4.07-1.95,6.36-.21-1.14-.21-2.33-.03-3.5,.2-1.19,.43-2.37,1.14-3.4,0,0,.84,.54,.84,.54h0Z">
</path>
<path d="M38.37,44.35c.51,.55,.7,1.54-.04,2.02,0,0-.14-.05-.14-.05l-1.33-.43,.34-.06c-.23,.23-1.03,1.04-1.25,1.25-.21-.21-1.02-1.03-1.25-1.25l.34,.06-1.33,.43-.14,.05c-.35-.24-.56-.7-.48-1.1,.06-.36,.24-.67,.45-.93-.16,.3-.25,.63-.24,.94,.02,.31,.19,.55,.44,.68h-.22c.1-.07,1.37-.81,1.42-.84,.12,.08,1.17,.77,1.32,.86,0,0-.64,0-.63,0,.15-.1,1.19-.78,1.32-.86l.13,.08,1.29,.75h-.22c.61-.28,.49-1.08,.2-1.6h0Z">
</path>
<path d="M39.8,50.95s-1.57-1.21-3.96-.18c-2.39-1.03-3.96,.18-3.96,.18,0,0,1.21-2.85,3.96-2.17,2.75-.68,3.96,2.17,3.96,2.17Z">
</path>
<path d="M24.53,36.77c.38,.1,.73,.23,1.08,.36h-.24c2.31-1.83,5.77-.71,6.19,2.3-1.07-1.33-2.5-2.44-4.27-2.21-.56,.03-1.32,.26-1.87,.41-.31-.28-.62-.55-.89-.86h0Z">
</path>
<path d="M40.4,39.44c.42-3.01,3.87-4.13,6.19-2.31,0,0-.24,0-.24,0,.35-.13,.7-.26,1.08-.36-.27,.31-.58,.58-.89,.86l-.18-.05c-2.46-.84-4.29-.28-5.95,1.85h0Z">
</path>
<path d="M46.75,37.39c-.92,2.34-3.67,2.99-5.86,2.24,0,0,.81,.07,.81,.07,1.73,.12,3.68-.81,4.09-2.59,0,0,.96,.28,.96,.28h0Z">
</path>
<path d="M26.16,37.25c.2,1.59,1.87,2.53,3.38,2.62,0,0,.72,.03,.72,.03l-.72,.1c-1.82,.2-3.8-.68-4.36-2.57,0,0,.98-.18,.98-.18h0Z">
</path>
</g>
</g>
  <g
     id="g20645">
    <path
       style="fill:#808080;stroke:#4d4d4d;stroke-width:0.937908;stop-color:#000000;fill-opacity:1"
       d="m 9.541565,65.883425 a 5.4759801,5.4759801 0 0 1 5.47598,5.475981 5.4759801,5.4759801 0 0 1 -5.47598,5.47598 5.4759801,5.4759801 0 0 1 -5.4759806,-5.47598 5.4759801,5.4759801 0 0 1 5.4759806,-5.475981 z"/>
    <path
       style="fill:#808080;stroke:#4d4d4d;stroke-width:0.937908;stop-color:#000000;fill-opacity:1"
       d="m 59.472108,65.883425 a 5.4759801,5.4759801 0 0 1 5.47598,5.475981 5.4759801,5.4759801 0 0 1 -5.47598,5.47598 5.4759801,5.4759801 0 0 1 -5.475981,-5.47598 5.4759801,5.4759801 0 0 1 5.475981,-5.475981 z"/>
    <path
       id="path7641"
       style="fill:#808080;stroke:#4d4d4d;stroke-width:1.64416;stop-color:#000000"
       d="M 34.642578,1.1660156 C 13.787845,9.1047124 0.86132813,23.726855 0.86132812,39.564453 V 79.340489 H 68.152344 V 39.564453 c 0,-15.800978 -12.759199,-30.4148342 -33.509766,-38.3984374 z m -0.01367,3.8085938 C 53.384648,12.190722 64.917969,25.399665 64.917969,39.681641 v 26.507812 c -1.368656,-1.44106 -3.300993,-2.341797 -5.445313,-2.341797 -4.14856,0 -7.511718,3.363159 -7.511718,7.511719 0,2.347008 1.075662,4.442843 2.761718,5.820313 H 14.269531 c 1.756069,-1.422629 2.778281,-3.560307 2.783203,-5.820313 4.8e-5,-4.148627 -3.363091,-7.511766 -7.5117184,-7.511719 -2.0622939,0.0062 -4.0313164,0.860092 -5.4453125,2.361328 V 39.681641 c 0,-14.315076 11.6833059,-27.531508 30.5332029,-34.7070316 z"/>
    <circle
       style="fill:#4d4d4d;fill-opacity:1;stroke:#4d4d4d;stop-color:#000000"
       id="path16431"
       cx="9.6010828"
       cy="71.229652"
       r="5.06003" />
    <circle
       style="fill:#4d4d4d;fill-opacity:1;stroke:#4d4d4d;stop-color:#000000"
       id="path16431-3"
       cx="59.42292"
       cy="71.229652"
       r="5.06003" />
  </g>
</svg>
