<svg id="Capa_2" xmlns="http://www.w3.org/2000/svg" xmlns:xlink="http://www.w3.org/1999/xlink" viewBox="0 0 69.02 80">
<defs >
<style >
.cls-1{fill:#c89aed;}.cls-2{fill:#fff;}.cls-3{fill:#f8ffbf;}.cls-4{fill:#7b7be8;}.cls-5,.cls-6,.cls-7,.cls-8{stroke:#000;stroke-miterlimit:10;}.cls-5,.cls-6,.cls-7,.cls-9,.cls-10,.cls-11{fill:none;}.cls-5,.cls-7,.cls-8,.cls-9{stroke-linecap:round;}.cls-5,.cls-8{stroke-width:1.01px;}.cls-12{fill:#a88347;}.cls-13{fill:#782ab5;}.cls-8,.cls-14{fill:#b83521;}.cls-9{stroke:#deb778;stroke-dasharray:0 0 0 4.06;stroke-linejoin:round;}.cls-15{fill:#deb778;}.cls-16{fill:url(#USGS_19_Inundación_de_tierra_2);}.cls-11{stroke:#1d1d1b;stroke-dasharray:0 0 2 2;stroke-width:.3px;}.cls-17{fill:#ccbc64;}.cls-18{fill:#fcf0c5;}
</style>
<pattern id="USGS_19_Inundación_de_tierra_2" x="0" y="0" width="72" height="72" patternTransform="translate(-164.48 -16063) rotate(-90)" patternUnits="userSpaceOnUse" viewBox="0 0 72 72">
<g >
<rect class="cls-10" width="72" height="72">
</rect>
<g >
<line class="cls-11" x1="71" y1="71" x2="144.44" y2="71">
</line>
<line class="cls-11" x1="71" y1="67" x2="144.44" y2="67">
</line>
<line class="cls-11" x1="71" y1="63" x2="144.44" y2="63">
</line>
<line class="cls-11" x1="71" y1="59" x2="144.44" y2="59">
</line>
<line class="cls-11" x1="71" y1="55" x2="144.44" y2="55">
</line>
<line class="cls-11" x1="71" y1="51" x2="144.44" y2="51">
</line>
<line class="cls-11" x1="71" y1="47" x2="144.44" y2="47">
</line>
<line class="cls-11" x1="71" y1="43" x2="144.44" y2="43">
</line>
<line class="cls-11" x1="71" y1="39" x2="144.44" y2="39">
</line>
<line class="cls-11" x1="71" y1="35" x2="144.44" y2="35">
</line>
<line class="cls-11" x1="71" y1="31" x2="144.44" y2="31">
</line>
<line class="cls-11" x1="71" y1="27" x2="144.44" y2="27">
</line>
<line class="cls-11" x1="71" y1="23" x2="144.44" y2="23">
</line>
<line class="cls-11" x1="71" y1="19" x2="144.44" y2="19">
</line>
<line class="cls-11" x1="71" y1="15" x2="144.44" y2="15">
</line>
<line class="cls-11" x1="71" y1="11" x2="144.44" y2="11">
</line>
<line class="cls-11" x1="71" y1="7" x2="144.44" y2="7">
</line>
<line class="cls-11" x1="71" y1="3" x2="144.44" y2="3">
</line>
</g>
<g >
<line class="cls-11" x1="-1" y1="71" x2="72.44" y2="71">
</line>
<line class="cls-11" x1="-1" y1="67" x2="72.44" y2="67">
</line>
<line class="cls-11" x1="-1" y1="63" x2="72.44" y2="63">
</line>
<line class="cls-11" x1="-1" y1="59" x2="72.44" y2="59">
</line>
<line class="cls-11" x1="-1" y1="55" x2="72.44" y2="55">
</line>
<line class="cls-11" x1="-1" y1="51" x2="72.44" y2="51">
</line>
<line class="cls-11" x1="-1" y1="47" x2="72.44" y2="47">
</line>
<line class="cls-11" x1="-1" y1="43" x2="72.44" y2="43">
</line>
<line class="cls-11" x1="-1" y1="39" x2="72.44" y2="39">
</line>
<line class="cls-11" x1="-1" y1="35" x2="72.44" y2="35">
</line>
<line class="cls-11" x1="-1" y1="31" x2="72.44" y2="31">
</line>
<line class="cls-11" x1="-1" y1="27" x2="72.44" y2="27">
</line>
<line class="cls-11" x1="-1" y1="23" x2="72.44" y2="23">
</line>
<line class="cls-11" x1="-1" y1="19" x2="72.44" y2="19">
</line>
<line class="cls-11" x1="-1" y1="15" x2="72.44" y2="15">
</line>
<line class="cls-11" x1="-1" y1="11" x2="72.44" y2="11">
</line>
<line class="cls-11" x1="-1" y1="7" x2="72.44" y2="7">
</line>
<line class="cls-11" x1="-1" y1="3" x2="72.44" y2="3">
</line>
<line class="cls-11" x1="1.04" y1="69" x2="74.48" y2="69">
</line>
<line class="cls-11" x1="1.04" y1="65" x2="74.48" y2="65">
</line>
<line class="cls-11" x1="1.04" y1="61" x2="74.48" y2="61">
</line>
<line class="cls-11" x1="1.04" y1="57" x2="74.48" y2="57">
</line>
<line class="cls-11" x1="1.04" y1="53" x2="74.48" y2="53">
</line>
<line class="cls-11" x1="1.04" y1="49" x2="74.48" y2="49">
</line>
<line class="cls-11" x1="1.04" y1="45" x2="74.48" y2="45">
</line>
<line class="cls-11" x1="1.04" y1="41" x2="74.48" y2="41">
</line>
<line class="cls-11" x1="1.04" y1="37" x2="74.48" y2="37">
</line>
<line class="cls-11" x1="1.04" y1="33" x2="74.48" y2="33">
</line>
<line class="cls-11" x1="1.04" y1="29" x2="74.48" y2="29">
</line>
<line class="cls-11" x1="1.04" y1="25" x2="74.48" y2="25">
</line>
<line class="cls-11" x1="1.04" y1="21" x2="74.48" y2="21">
</line>
<line class="cls-11" x1="1.04" y1="17" x2="74.48" y2="17">
</line>
<line class="cls-11" x1="1.04" y1="13" x2="74.48" y2="13">
</line>
<line class="cls-11" x1="1.04" y1="9" x2="74.48" y2="9">
</line>
<line class="cls-11" x1="1.04" y1="5" x2="74.48" y2="5">
</line>
<line class="cls-11" x1="1.04" y1="1" x2="74.48" y2="1">
</line>
</g>
<g >
<line class="cls-11" x1="-73" y1="71" x2=".44" y2="71">
</line>
<line class="cls-11" x1="-73" y1="67" x2=".44" y2="67">
</line>
<line class="cls-11" x1="-73" y1="63" x2=".44" y2="63">
</line>
<line class="cls-11" x1="-73" y1="59" x2=".44" y2="59">
</line>
<line class="cls-11" x1="-73" y1="55" x2=".44" y2="55">
</line>
<line class="cls-11" x1="-73" y1="51" x2=".44" y2="51">
</line>
<line class="cls-11" x1="-73" y1="47" x2=".44" y2="47">
</line>
<line class="cls-11" x1="-73" y1="43" x2=".44" y2="43">
</line>
<line class="cls-11" x1="-73" y1="39" x2=".44" y2="39">
</line>
<line class="cls-11" x1="-73" y1="35" x2=".44" y2="35">
</line>
<line class="cls-11" x1="-73" y1="31" x2=".44" y2="31">
</line>
<line class="cls-11" x1="-73" y1="27" x2=".44" y2="27">
</line>
<line class="cls-11" x1="-73" y1="23" x2=".44" y2="23">
</line>
<line class="cls-11" x1="-73" y1="19" x2=".44" y2="19">
</line>
<line class="cls-11" x1="-73" y1="15" x2=".44" y2="15">
</line>
<line class="cls-11" x1="-73" y1="11" x2=".44" y2="11">
</line>
<line class="cls-11" x1="-73" y1="7" x2=".44" y2="7">
</line>
<line class="cls-11" x1="-73" y1="3" x2=".44" y2="3">
</line>
<line class="cls-11" x1="-70.96" y1="69" x2="2.48" y2="69">
</line>
<line class="cls-11" x1="-70.96" y1="65" x2="2.48" y2="65">
</line>
<line class="cls-11" x1="-70.96" y1="61" x2="2.48" y2="61">
</line>
<line class="cls-11" x1="-70.96" y1="57" x2="2.48" y2="57">
</line>
<line class="cls-11" x1="-70.96" y1="53" x2="2.48" y2="53">
</line>
<line class="cls-11" x1="-70.96" y1="49" x2="2.48" y2="49">
</line>
<line class="cls-11" x1="-70.96" y1="45" x2="2.48" y2="45">
</line>
<line class="cls-11" x1="-70.96" y1="41" x2="2.48" y2="41">
</line>
<line class="cls-11" x1="-70.96" y1="37" x2="2.48" y2="37">
</line>
<line class="cls-11" x1="-70.96" y1="33" x2="2.48" y2="33">
</line>
<line class="cls-11" x1="-70.96" y1="29" x2="2.48" y2="29">
</line>
<line class="cls-11" x1="-70.96" y1="25" x2="2.48" y2="25">
</line>
<line class="cls-11" x1="-70.96" y1="21" x2="2.48" y2="21">
</line>
<line class="cls-11" x1="-70.96" y1="17" x2="2.48" y2="17">
</line>
<line class="cls-11" x1="-70.96" y1="13" x2="2.48" y2="13">
</line>
<line class="cls-11" x1="-70.96" y1="9" x2="2.48" y2="9">
</line>
<line class="cls-11" x1="-70.96" y1="5" x2="2.48" y2="5">
</line>
<line class="cls-11" x1="-70.96" y1="1" x2="2.48" y2="1">
</line>
</g>
</g>
</pattern>
</defs>
  <path
     style="opacity:1;vector-effect:none;fill:#cccccc;fill-opacity:1;fill-rule:nonzero;stroke:none;stroke-width:4.49546146;stroke-linecap:butt;stroke-linejoin:miter;stroke-miterlimit:4;stroke-dasharray:none;stroke-dashoffset:0;stroke-opacity:1"
     d="M -0.08007812,0.36132812 V 80.361328 H 68.919922 V 0.36132812 Z"
     id="rect4304"/>

<g id="Characters">
<g >
<path class="cls-1" d="M60.32,65.7s1.79,2.28,.24,8.86c-19.99,7.42-49.42,.71-49.42,.71,0,0-4.55-3.94-3.23-9.09,3.47-2.03,7.89-.12,7.89-.12l9.7-2.63,.95-6.7-2.28-4.84-.71-1.5s-4.91-.24-6.58-6.47c-4.55-3.11-3.71-8.61-3.71-8.61,0,0-3.83-3.83-3.71-10.05,3.71,.36,5.39-1.92,10.65-6.23,5.86-4.06,9.57-2.39,9.57-2.39,0,0-.48-1.2-3.47-2.39,9.82-3.71,14.48,1.88,14.48,1.88,2.75-2.15,8.5-1.16,8.5-1.16,0,0-1.92-.24-3.59,1.91,3.35,0,7.18,6.82,8.02,8.86,.83,2.03,5.38,7.41,8.49,5.38-.96,3.23-3.35,4.55-3.35,4.55,0,0-.12,5.38-3.95,6.46-.96,6.94-8.73,8.38-8.73,8.38l-2.76,5.98,.72,6.82s4.67,1.31,10.41,2.87c1.68-.24,5.87-.48,5.87-.48Z">
</path>
<path class="cls-2" d="M34.5,61.22V27.24s1.99-2.26,4.25-2.53,1.67,1.7,1.67,1.7c0,0,1.77-1.06,3.39,.11s4.68,5.78,4.68,5.78c0,0,.11,11.57-.97,14.37s-5.33,11.21-5.33,11.21l-7.68,3.34Z">
</path>
<path class="cls-1" d="M38.25,26.23c.16,0,.65,0,1.02,1.21,.1,.32,.35,.57,.66,.66,.1,.03,.19,.04,.29,.04,.23,0,.45-.08,.63-.22,.52-.42,.98-.64,1.33-.64,.75,0,1.5,1.15,2.22,2.26,.46,.7,.93,1.43,1.48,2.02,.36,.44,.76,.85,1.19,1.23,.11,2.45,.21,7.61-.55,11.21-1.67,5.7-4.78,11.32-5.55,12.65-1.13,.62-3.55,1.85-6.31,2.72-2.75-.87-5.17-2.11-6.3-2.72-.77-1.34-3.88-6.95-5.55-12.61-.77-3.65-.66-8.87-.58-10.98,1.02-.29,1.99-.68,2.89-1.11,.15,.12,.34,.19,.55,.2l1.52,.08c.4,.05,.81,.08,1.22,.08,3.05,0,5.76-1.32,7.25-3.54,.23-.29,.44-.58,.65-.87,.49-.68,.96-1.33,1.44-1.56,.19-.06,.35-.1,.49-.1m0-1c-.26,0-.55,.05-.87,.17-1.01,.44-1.67,1.7-2.53,2.77-1.4,2.11-3.96,3.13-6.44,3.13-.38,0-.76-.02-1.13-.07l-1.56-.08,1.38-.86c.51-.33,.91-.84,1.24-1.43-1.59,1.15-4.2,2.75-7.07,3.42-.07,1.31-.35,7.69,.57,12.01,1.79,6.11,5.27,12.22,5.79,13.11,.61,.34,3.59,1.98,7.03,3.03,3.45-1.05,6.43-2.69,7.04-3.03,.52-.89,4-7.01,5.79-13.15,.91-4.24,.63-10.52,.56-11.93-.52-.43-1-.91-1.42-1.42-1.52-1.6-2.51-4.61-4.45-4.61-.56,0-1.2,.25-1.96,.86-.35-1.13-.97-1.92-1.97-1.92h0Z">
</path>
<path class="cls-12" d="M43.28,60.62s-1.75,3.4-7.33,4.8c-2.1,2.27-2.71,4.19-2.71,4.19,0,0,5.15,.35,8.03-2.1,2.97-2.88,2.62-4.54,2.62-4.54l-.61-2.36Z">
</path>
<path class="cls-12" d="M61.96,30.94c-.96,3.23-3.35,4.55-3.35,4.55,0,0-.12,5.38-3.95,6.46-.96,6.94-8.73,8.38-8.73,8.38,2.91-6.77,2.92-18.17,2.92-18.33,0,0-1.98-1.37-3.19-3.01-1.2-1.64-1.55-4.13-5.25-2.58-1.2-2.84-3.36-2.07-6.46,2.06-2.41,2.84-6.37,2.33-6.37,2.33,0,0,1.04-.78,2.07-3.53-4.48,3.36-8.95,4.48-8.95,4.48,0,0-.18,8.86,.34,11.45,.52,2.58,3.1,8.43,3.1,8.43l-.12,.08-.71-1.5s-4.91-.24-6.58-6.47c-4.55-3.11-3.71-8.61-3.71-8.61,0,0-3.83-3.83-3.71-10.05,3.71,.36,5.39-1.92,10.65-6.23,5.86-4.06,9.57-2.39,9.57-2.39,0,0-.48-1.2-3.47-2.39,9.82-3.71,14.48,1.88,14.48,1.88,2.75-2.15,8.5-1.16,8.5-1.16,0,0-1.92-.24-3.59,1.91,3.35,0,7.18,6.82,8.02,8.86,.83,2.03,5.38,7.41,8.49,5.38Z">
</path>
<path class="cls-17" d="M15.68,22.76s3.88-4.89,9.06-6.04c-3.74,3.95-1.44,5.25,1.58,4.39s1.58,3.88,4.53,2.8c-1.37,2.16-1.51,3.59-1.51,3.59,0,0-3.38,3.38-8.12,4.1,2.01-2.59,6.9-9.49,1.94-7.91s-8.41,2.08-7.48-.93Z">
</path>
<path class="cls-17" d="M51.19,21.52s3.48,6.5,5.64,8.66c-3.79-3.48-6.96-3.79-9.05,.7-2.55-3.48-3.87-4.87-3.87-4.87,0,0,8.66,2.17,7.27-4.48Z">
</path>
<path d="M9.31,25.08s3.46,7.05,11.67,6.82c-.72,7.39,.16,12.72,.16,12.72l2.17,5.59s-4.08,.21-6.47-6.15c-3.97-3.82-3.75-7.22-3.82-8.93-2.77-3.63-4.09-7.25-3.71-10.05Z">
</path>
<path d="M48.48,32.3s8.19,4.44,13.48-1.36c-.92,3.03-3.54,4.22-3.54,4.22,0,0,.72,4.21-4.13,6.76,.87,4.45-4.63,8.16-8.36,8.41,3.35-7.22,3.27-14.21,2.55-18.03Z">
</path>
<path class="cls-3" d="M30.69,41.97s-.49-1.19-2.96-1.73c-1.87-.41-4.04-.75-4.04-.75l.41,2.33c3.56,.41,6.46,.52,6.46,.52l.13-.37Z">
</path>
<path class="cls-3" d="M39.12,41.97s.49-1.19,2.96-1.73c1.87-.41,4.04-.75,4.04-.75l-.41,2.33c-3.56,.41-6.46,.52-6.46,.52l-.13-.37Z">
</path>
<path d="M42.62,57.8l-12.44,17.43s-15.92-.57-20.16-3.96c-1.7-3.77-1.22-4.99-1.22-4.99,0,0,3.2-1.13,6.31-.66,8.01-1.6,10.39-2.19,10.39-2.19l.82-7.13,1.04,1.6,7.44,3.11,7.82-3.2Z">
</path>
<path class="cls-2" d="M39.9,69.88l9.56,5.62,10.04-2.17,1.37-6.27s-1.61-2.73-6.83-1.2c-5.3-1.37-8.43-1.85-8.43-1.85,0,0-1.37,4.26-5.7,5.86Z">
</path>
<path class="cls-2" d="M23.97,43.3l6.78,.57s-2.76,5.16-6.78-.57Z">
</path>
<path class="cls-4" d="M30.6,42.17l1.03-5.19-5.96-.98s-2,.46-2.88,1.03c-.05,2.26,.9,2.45,.9,2.45,0,0,6.34,.27,6.91,2.68Z">
</path>
<path class="cls-4" d="M39.2,42.17l-1.03-5.19,5.96-.98s2,.46,2.88,1.03c.05,2.26-.9,2.45-.9,2.45,0,0-6.34,.27-6.91,2.68Z">
</path>
<path class="cls-14" d="M39.07,52.73s-.63,2.1-1.87,3.09c-.4,.2-.86,.31-1.36,.37h-1.87c-.5-.06-.96-.17-1.36-.37-1.23-.99-1.86-3.09-1.86-3.09h8.32Z">
</path>
<path class="cls-2" d="M32.14,52.74s.35,.78,1.25,1.5c.64,.08,1.53,.12,2.58-.03,.87-.71,1.21-1.47,1.21-1.47h-5.04Z">
</path>
<path class="cls-7" d="M15.69,36.73c-3.5-1-6.28-5.35-6.57-11.64,5.07,.36,5.35-1.93,10.35-6.07,5.21-4.07,10.35-2.64,10.35-2.64,0,0-.93-1.29-3.71-2.14,9.57-4.14,14.42,1.71,14.42,1.71,0,0,3.91-2.36,8.11-1.17-2.65,.91-3.29,1.92-3.29,1.92,0,0,3.56-.18,6.76,6.12s5.84,9.59,9.59,8.13c-.7,3.83-4.53,4.95-6.31,5.27-.55,.1-.91,.12-.91,.12">
</path>
<path class="cls-7" d="M17.76,44.29s-5.57-2.64-4.85-8.78">
</path>
<path class="cls-7" d="M23.32,50.19s-5.32-.54-6.68-6.39">
</path>
<path class="cls-7" d="M58.71,35.37s.61,5.91-7.83,7.83">
</path>
<path class="cls-7" d="M54.57,42.24s.3,5.5-8.33,8.08">
</path>
<path class="cls-7" d="M29.6,27.24s-8.46,7.49-14.8,3.86">
</path>
<path d="M54.98,34.14c-3.09,.84-6.41-.83-8.35-3.24-1.96-2.05-3.05-6.46-6.41-3.74-.45-1.43-1.32-2.3-2.85-1.75-1,.44-1.67,1.7-2.52,2.77-1.61,2.42-4.77,3.42-7.57,3.05,0,0-1.56-.07-1.56-.07l1.38-.87c.97-.61,1.55-1.89,1.98-3.12,.3-.81,.43-1.67,.65-2.51,.83-2.01,3.09-3.05,5.09-3.42,1.45-.25,3.19,.18,4.02,1.46-.69-.27-1.3-.46-1.94-.51-2.24-.17-4.92,.83-5.99,2.86-.55,2.26-1.12,4.9-3.35,6.13,0,0-.19-.95-.18-.94,2.59,.29,5.15-.45,6.68-2.67,.89-1.08,1.51-2.44,2.93-3.08,1.55-.69,3.43,.15,3.93,1.73,0,0-.78-.21-.77-.21,3.67-2.8,5.55,1.82,7.39,4.14,1.81,2.44,4.5,3.4,7.43,4h0Z">
</path>
<path class="cls-7" d="M48.53,31.99s.5,7.47-.56,12.4c-1.97,6.76-5.91,13.38-5.91,13.38,0,0-3.38,1.98-7.4,3.18-4.01-1.2-7.39-3.18-7.39-3.18,0,0-3.94-6.62-5.92-13.38-1.05-4.93-.56-12.4-.56-12.4">
</path>
<path class="cls-7" d="M26.2,55.81l-.77,7.54-10.24,2.4s-3.56-1.16-6.61,.73">
</path>
<path class="cls-7" d="M43.12,55.81l.77,7.54,10.24,2.4s3.56-1.16,6.61,.73">
</path>
<path d="M31.19,38.24c-1.53-.7-4.18-1.62-5.29-1.94-1.03,.04-2.15,.44-3.19,.92,.9-.75,1.88-1.61,3.14-1.91,2.09,.14,3.95,.67,5.95,1.17,0,0-.61,1.76-.61,1.76h0Z">
</path>
<path d="M30.69,42.04c-.12-.35-.44-.52-.74-.69-.93-.44-1.96-.79-2.96-.93-1.45-.29-2.92-.27-4.14-1.29,1.52-.47,2.87,.12,4.31,.41,1.12,.26,2.13,.78,2.98,1.53,.26,.25,.58,.57,.54,.96h0Z">
</path>
<path d="M30.29,42.33l-6.27-.22h-.14c-.61-.83-.88-1.84-.7-2.86,0,0,.97,.25,.97,.25-.25,.67-.17,1.51,.14,2.15,0,0-.22-.13-.22-.13l6.22,.82h0Z">
</path>
<path d="M37.98,36.48c2.03-.5,3.93-1.04,6.05-1.17,1.22,.42,2.16,1.15,3.04,1.91-1.03-.48-2.15-.88-3.19-.92-1.11,.31-3.76,1.23-5.29,1.94,0,0-.61-1.76-.61-1.76h0Z">
</path>
<path d="M39.09,42.04c-.03-.39,.28-.71,.54-.96,.85-.75,1.86-1.27,2.98-1.53,1.45-.29,2.8-.87,4.31-.41-1.22,1.01-2.7,1-4.14,1.29-1,.14-2.03,.49-2.96,.93-.3,.17-.62,.34-.74,.69h0Z">
</path>
<path d="M39.49,42.33l6.22-.82-.22,.13c.31-.64,.39-1.48,.14-2.15,0,0,.97-.25,.97-.25,.18,1.02-.09,2.03-.7,2.86,0,0-.14,0-.14,0l-6.27,.22h0Z">
</path>
<path d="M37.36,45.5c.5,.48,.95,1,1.4,1.52-.58,.5-1.19,.97-1.8,1.44-.17-.14-.82-.65-1.01-.8,0,0,.58,.02,.58,.02-.54,.45-1.12,.86-1.68,1.3-.55-.44-1.13-.85-1.68-1.3,0,0,.58-.03,.58-.03-.19,.15-.82,.66-1,.81-.61-.47-1.23-.94-1.81-1.45l.16-.18c.4-.46,.8-.91,1.25-1.34-.24,.57-.51,1.11-.79,1.64l-.07-.38c.51,.26,1,.54,1.5,.82l-.51,.04c.19-.17,.75-.73,.93-.9,.59,.39,1.17,.82,1.75,1.23,0,0-.6,0-.6,0,.58-.41,1.15-.84,1.75-1.23,.17,.16,.75,.73,.93,.89,0,0-.51-.03-.51-.03,.49-.28,.98-.56,1.49-.82l-.07,.38c-.28-.54-.56-1.08-.8-1.64h0Z">
</path>
<path d="M34.82,52.87s4.04,.24,4.87-.37c-1.24,.16-2.23-1.36-3.08-1.58s-1.75,.32-1.75,.32c0,0-.89-.55-1.75-.32s-1.85,1.75-3.08,1.58c.83,.61,4.87,.37,4.87,.37h-.08Z">
</path>
<path class="cls-5" d="M25.43,63.35s2.14,6.2,9.03,6.2h.35c6.89,0,9.03-6.2,9.03-6.2l-.51-3.02s-2.57,5.3-8.7,5.3c-6.13,0-8.7-5.3-8.7-5.3">
</path>
<circle class="cls-8" cx="23.49" cy="67.01" r="1.4">
</circle>
<circle class="cls-8" cx="26.35" cy="70.75" r="1.4">
</circle>
<circle class="cls-8" cx="31.21" cy="72.34" r="1.4">
</circle>
<circle class="cls-8" cx="45.57" cy="67.01" r="1.4">
</circle>
<circle class="cls-8" cx="42.72" cy="70.75" r="1.4">
</circle>
<circle class="cls-8" cx="37.85" cy="72.34" r="1.4">
</circle>
<path class="cls-17" d="M13.68,35.8c.4,2.54,1.6,5,3.94,6.17,.32,2.09,1.1,4.17,2.73,5.6,.51,.48,1.09,.87,1.75,1.18-.73-.08-1.42-.38-2.06-.76-1.96-1.18-3.06-3.42-3.34-5.64,0,0,.25,.36,.25,.36-2.43-1.31-3.6-4.25-3.27-6.91h0Z">
</path>
<path class="cls-17" d="M57.44,35.07c.26,2.67-.99,5.58-3.46,6.82,0,0,.26-.36,.26-.36-.35,2.21-1.51,4.42-3.5,5.54-.65,.36-1.35,.64-2.08,.7,.66-.29,1.26-.66,1.78-1.13,1.67-1.38,2.5-3.43,2.89-5.52,2.37-1.11,3.64-3.53,4.11-6.06h0Z">
</path>
<path class="cls-1" d="M11.62,66.77c1.05-.52,3.34-.6,3.94-.41,3.55-.94,7.11-1.8,10.7-2.53l-.29,.37c.06-.86,.13-1.73,.21-2.59,.11-.86,.18-1.72,.31-2.59,.09,.87,.11,1.73,.17,2.6,.04,.96,.07,1.92,.08,2.87l-.29,.09c-3.55,1.07-7.18,1.88-10.84,2.47-1.28-.33-2.64-.5-4-.28h0Z">
</path>
</g>
</g>

  <path
     style="opacity:1;vector-effect:none;fill:#8d5fd3;fill-opacity:1;fill-rule:nonzero;stroke:none;stroke-width:2.35769176;stroke-linecap:butt;stroke-linejoin:miter;stroke-miterlimit:4;stroke-dasharray:none;stroke-dashoffset:0;stroke-opacity:0.44186048"
     d="M 0,1.2e-7 V 80 H 69 V 1.2e-7 Z M 35.240234,4.658203 c 6.067554,0.1120422 16.269844,1.4698438 23.589844,3.8398438 3.46,9.2400002 5.269531,19.9506252 5.269531,31.1406252 0,11.47 -1.89,22.390234 -5.5,31.740234 -7.2,2.16 -14.940375,3.376539 -23.019531,3.259766 -8.580486,-0.124019 -18.036001,-1.572896 -25.240234,-3.86914 -3.4500003,-9.22 -5.2597659,-19.930859 -5.2597659,-31.130859 0,-11.2 1.8904687,-22.380469 5.4804689,-31.730469 C 17.682894,5.1336941 29.17268,4.5461608 35.240234,4.658203 Z"
     id="rect4304" />


</svg>
