<svg id="Capa_2" xmlns="http://www.w3.org/2000/svg" xmlns:xlink="http://www.w3.org/1999/xlink" viewBox="0 0 69.02 80">
<defs >
<style >
.cls-1{fill:#c89aed;}.cls-2{fill:#fff;}.cls-3{fill:#f8ffbf;}.cls-4{fill:#7b7be8;}.cls-5{fill:#a88347;}.cls-6{fill:#782ab5;}.cls-7,.cls-8,.cls-9,.cls-10,.cls-11,.cls-12{fill:none;}.cls-7,.cls-10,.cls-12{stroke:#000;stroke-miterlimit:10;}.cls-8{stroke:#deb778;stroke-dasharray:0 0 0 4.06;stroke-linejoin:round;}.cls-8,.cls-10,.cls-12{stroke-linecap:round;}.cls-13{fill:#deb778;}.cls-14{fill:url(#USGS_19_Inundación_de_tierra_2);}.cls-10{stroke-width:.98px;}.cls-11{stroke:#1d1d1b;stroke-dasharray:0 0 2 2;stroke-width:.3px;}.cls-12{stroke-width:1.07px;}.cls-15{fill:#ddb3f5;}.cls-16{fill:#fcf0c5;}.cls-17{fill:#b83521;}
</style>
<pattern id="USGS_19_Inundación_de_tierra_2" x="0" y="0" width="72" height="72" patternTransform="translate(-308.48 -16063) rotate(-90)" patternUnits="userSpaceOnUse" viewBox="0 0 72 72">
<g >
<rect class="cls-9" width="72" height="72">
</rect>
<g >
<line class="cls-11" x1="71" y1="71" x2="144.44" y2="71">
</line>
<line class="cls-11" x1="71" y1="67" x2="144.44" y2="67">
</line>
<line class="cls-11" x1="71" y1="63" x2="144.44" y2="63">
</line>
<line class="cls-11" x1="71" y1="59" x2="144.44" y2="59">
</line>
<line class="cls-11" x1="71" y1="55" x2="144.44" y2="55">
</line>
<line class="cls-11" x1="71" y1="51" x2="144.44" y2="51">
</line>
<line class="cls-11" x1="71" y1="47" x2="144.44" y2="47">
</line>
<line class="cls-11" x1="71" y1="43" x2="144.44" y2="43">
</line>
<line class="cls-11" x1="71" y1="39" x2="144.44" y2="39">
</line>
<line class="cls-11" x1="71" y1="35" x2="144.44" y2="35">
</line>
<line class="cls-11" x1="71" y1="31" x2="144.44" y2="31">
</line>
<line class="cls-11" x1="71" y1="27" x2="144.44" y2="27">
</line>
<line class="cls-11" x1="71" y1="23" x2="144.44" y2="23">
</line>
<line class="cls-11" x1="71" y1="19" x2="144.44" y2="19">
</line>
<line class="cls-11" x1="71" y1="15" x2="144.44" y2="15">
</line>
<line class="cls-11" x1="71" y1="11" x2="144.44" y2="11">
</line>
<line class="cls-11" x1="71" y1="7" x2="144.44" y2="7">
</line>
<line class="cls-11" x1="71" y1="3" x2="144.44" y2="3">
</line>
</g>
<g >
<line class="cls-11" x1="-1" y1="71" x2="72.44" y2="71">
</line>
<line class="cls-11" x1="-1" y1="67" x2="72.44" y2="67">
</line>
<line class="cls-11" x1="-1" y1="63" x2="72.44" y2="63">
</line>
<line class="cls-11" x1="-1" y1="59" x2="72.44" y2="59">
</line>
<line class="cls-11" x1="-1" y1="55" x2="72.44" y2="55">
</line>
<line class="cls-11" x1="-1" y1="51" x2="72.44" y2="51">
</line>
<line class="cls-11" x1="-1" y1="47" x2="72.44" y2="47">
</line>
<line class="cls-11" x1="-1" y1="43" x2="72.44" y2="43">
</line>
<line class="cls-11" x1="-1" y1="39" x2="72.44" y2="39">
</line>
<line class="cls-11" x1="-1" y1="35" x2="72.44" y2="35">
</line>
<line class="cls-11" x1="-1" y1="31" x2="72.44" y2="31">
</line>
<line class="cls-11" x1="-1" y1="27" x2="72.44" y2="27">
</line>
<line class="cls-11" x1="-1" y1="23" x2="72.44" y2="23">
</line>
<line class="cls-11" x1="-1" y1="19" x2="72.44" y2="19">
</line>
<line class="cls-11" x1="-1" y1="15" x2="72.44" y2="15">
</line>
<line class="cls-11" x1="-1" y1="11" x2="72.44" y2="11">
</line>
<line class="cls-11" x1="-1" y1="7" x2="72.44" y2="7">
</line>
<line class="cls-11" x1="-1" y1="3" x2="72.44" y2="3">
</line>
<line class="cls-11" x1="1.04" y1="69" x2="74.48" y2="69">
</line>
<line class="cls-11" x1="1.04" y1="65" x2="74.48" y2="65">
</line>
<line class="cls-11" x1="1.04" y1="61" x2="74.48" y2="61">
</line>
<line class="cls-11" x1="1.04" y1="57" x2="74.48" y2="57">
</line>
<line class="cls-11" x1="1.04" y1="53" x2="74.48" y2="53">
</line>
<line class="cls-11" x1="1.04" y1="49" x2="74.48" y2="49">
</line>
<line class="cls-11" x1="1.04" y1="45" x2="74.48" y2="45">
</line>
<line class="cls-11" x1="1.04" y1="41" x2="74.48" y2="41">
</line>
<line class="cls-11" x1="1.04" y1="37" x2="74.48" y2="37">
</line>
<line class="cls-11" x1="1.04" y1="33" x2="74.48" y2="33">
</line>
<line class="cls-11" x1="1.04" y1="29" x2="74.48" y2="29">
</line>
<line class="cls-11" x1="1.04" y1="25" x2="74.48" y2="25">
</line>
<line class="cls-11" x1="1.04" y1="21" x2="74.48" y2="21">
</line>
<line class="cls-11" x1="1.04" y1="17" x2="74.48" y2="17">
</line>
<line class="cls-11" x1="1.04" y1="13" x2="74.48" y2="13">
</line>
<line class="cls-11" x1="1.04" y1="9" x2="74.48" y2="9">
</line>
<line class="cls-11" x1="1.04" y1="5" x2="74.48" y2="5">
</line>
<line class="cls-11" x1="1.04" y1="1" x2="74.48" y2="1">
</line>
</g>
<g >
<line class="cls-11" x1="-73" y1="71" x2=".44" y2="71">
</line>
<line class="cls-11" x1="-73" y1="67" x2=".44" y2="67">
</line>
<line class="cls-11" x1="-73" y1="63" x2=".44" y2="63">
</line>
<line class="cls-11" x1="-73" y1="59" x2=".44" y2="59">
</line>
<line class="cls-11" x1="-73" y1="55" x2=".44" y2="55">
</line>
<line class="cls-11" x1="-73" y1="51" x2=".44" y2="51">
</line>
<line class="cls-11" x1="-73" y1="47" x2=".44" y2="47">
</line>
<line class="cls-11" x1="-73" y1="43" x2=".44" y2="43">
</line>
<line class="cls-11" x1="-73" y1="39" x2=".44" y2="39">
</line>
<line class="cls-11" x1="-73" y1="35" x2=".44" y2="35">
</line>
<line class="cls-11" x1="-73" y1="31" x2=".44" y2="31">
</line>
<line class="cls-11" x1="-73" y1="27" x2=".44" y2="27">
</line>
<line class="cls-11" x1="-73" y1="23" x2=".44" y2="23">
</line>
<line class="cls-11" x1="-73" y1="19" x2=".44" y2="19">
</line>
<line class="cls-11" x1="-73" y1="15" x2=".44" y2="15">
</line>
<line class="cls-11" x1="-73" y1="11" x2=".44" y2="11">
</line>
<line class="cls-11" x1="-73" y1="7" x2=".44" y2="7">
</line>
<line class="cls-11" x1="-73" y1="3" x2=".44" y2="3">
</line>
<line class="cls-11" x1="-70.96" y1="69" x2="2.48" y2="69">
</line>
<line class="cls-11" x1="-70.96" y1="65" x2="2.48" y2="65">
</line>
<line class="cls-11" x1="-70.96" y1="61" x2="2.48" y2="61">
</line>
<line class="cls-11" x1="-70.96" y1="57" x2="2.48" y2="57">
</line>
<line class="cls-11" x1="-70.96" y1="53" x2="2.48" y2="53">
</line>
<line class="cls-11" x1="-70.96" y1="49" x2="2.48" y2="49">
</line>
<line class="cls-11" x1="-70.96" y1="45" x2="2.48" y2="45">
</line>
<line class="cls-11" x1="-70.96" y1="41" x2="2.48" y2="41">
</line>
<line class="cls-11" x1="-70.96" y1="37" x2="2.48" y2="37">
</line>
<line class="cls-11" x1="-70.96" y1="33" x2="2.48" y2="33">
</line>
<line class="cls-11" x1="-70.96" y1="29" x2="2.48" y2="29">
</line>
<line class="cls-11" x1="-70.96" y1="25" x2="2.48" y2="25">
</line>
<line class="cls-11" x1="-70.96" y1="21" x2="2.48" y2="21">
</line>
<line class="cls-11" x1="-70.96" y1="17" x2="2.48" y2="17">
</line>
<line class="cls-11" x1="-70.96" y1="13" x2="2.48" y2="13">
</line>
<line class="cls-11" x1="-70.96" y1="9" x2="2.48" y2="9">
</line>
<line class="cls-11" x1="-70.96" y1="5" x2="2.48" y2="5">
</line>
<line class="cls-11" x1="-70.96" y1="1" x2="2.48" y2="1">
</line>
</g>
</g>
</pattern>
</defs>
  <path
     style="opacity:1;vector-effect:none;fill:#cccccc;fill-opacity:1;fill-rule:nonzero;stroke:none;stroke-width:4.49546146;stroke-linecap:butt;stroke-linejoin:miter;stroke-miterlimit:4;stroke-dasharray:none;stroke-dashoffset:0;stroke-opacity:1"
     d="M -0.08007812,0.36132812 V 80.361328 H 68.919922 V 0.36132812 Z"
     id="rect4304"/>

<g id="Characters">
<g >
<path class="cls-4" d="M34.73,11.07s-7.87-1.07-13.12,6.8c-2.82,5.73-2.92,12.73-2.92,12.73l-1.94-6.9s-1.65,4.57-2.33,6.71,.49,8.84,5.54,9.62c1.94,5.54,3.89,8.07,3.89,8.07l-.1,8.07-15.94,5.93,2.62,10.98s12.15,4.47,24.78,3.98,24.3-3.79,24.3-3.79l2.04-11.08-17.11-5.83,.1-7.97s3.3-5.64,3.98-8.46c4.67-.49,6.22-6.71,5.64-8.84s-2.33-7.48-2.33-7.48l-2.04,6.32s-.19-7.87-3.11-12.54-10.01-6.51-11.95-6.32Z">
</path>
<path class="cls-15" d="M34.22,57.85V27.63c0-5.75,3.9-10.77,9.47-12.2h0s3.47,2.53,3.47,2.53c0,0,2.11,4.42,2.42,10.74s-1.05,13.05-4.95,19.26c-2.6,8.07-10.42,9.89-10.42,9.89Z">
</path>
<path class="cls-3" d="M31.12,36.12s-6.73-.31-8.52-.04c1.06,2.11,6.82,2.1,8.52,.04Z">
</path>
<path class="cls-3" d="M36.83,36.12s6.73-.31,8.52-.04c-1.06,2.11-6.82,2.1-8.52,.04Z">
</path>
<path d="M21.49,18.19s1.6-2.27,4.21-1.34,7.22,1.27,10.16,1.07,5.68-1.4,7.42-1.34,3.4,.81,3.4,.81c0,0-4.2-6.09-10.68-5.95-6.95,.13-11.9,1.94-14.51,6.75Z">
</path>
<path class="cls-15" d="M42.78,54.79v3.92l17.85,5.87-2.88,7.49s-17.62,3.34-29.6,2.07c9.68-12.44,14.63-19.35,14.63-19.35">
</path>
<path class="cls-4" d="M33.4,13.27h.11s.05,0,.05,0h1.39s.04,0,.04,0h.12c1.99,0,11.93,.71,12.59,14.77,.45,9.61-2.23,15.36-4.56,18.49l-.15,.2-.1,.23c-1.16,2.82-2.91,7.08-8.49,8.63-.04,0-.09,0-.14,0s-.1,0-.14,0c-5.58-1.55-7.33-5.81-8.49-8.63l-.1-.23-.15-.2c-2.33-3.13-5.01-8.89-4.56-18.49,.66-14.06,10.6-14.77,12.59-14.77m1.69-2c-.13,0-.2,0-.2,0h-1.29s-.07,0-.2,0c-1.71,0-13.83,.57-14.59,16.67-.48,10.23,2.46,16.42,4.96,19.78,1.32,3.21,3.43,8.05,9.87,9.81,.15,.04,.38,.06,.61,.06s.46-.02,.61-.06c6.43-1.76,8.55-6.6,9.87-9.81,2.5-3.36,5.44-9.55,4.96-19.78-.76-16.1-12.88-16.67-14.59-16.67h0Z">
</path>
<path class="cls-15" d="M23.05,38.65s4.84,.7,6.56,.31c-3.05,3.75-5.55,2.5-6.56-.31Z">
</path>
<path class="cls-17" d="M28.5,20.87c.02,1.55,.06,3.11,.29,4.6-1.02,1.81-1.51,3.98-1.62,6.04-.01,.28-.25,.49-.52,.48s-.49-.25-.48-.52c.12-2.22,.61-4.36,1.66-6.33,0,0-.06,.26-.06,.26,.12-1.56,.41-3.04,.73-4.52h0Z">
</path>
<path class="cls-17" d="M26.5,39.47c.08,1.84,.53,3.75,1.32,5.45-.55-.79-1.02-1.64-1.4-2.53-.39-.9-.7-1.81-.91-2.81l.99-.1h0Z">
</path>
<path class="cls-6" d="M24.39,51.56s.6,2.71,3.11,5.09c.07,2.32,.86,3.9,.86,3.9,0,0-1.19-1.26-1.92-3.18-2.18-1.19-2.71-2.91-2.71-2.91l.66-2.91Z">
</path>
<path class="cls-6" d="M44.03,51.56s-.6,2.71-3.11,5.09c-.07,2.32-.86,3.9-.86,3.9,0,0,1.19-1.26,1.92-3.18,2.18-1.19,2.71-2.91,2.71-2.91l-.66-2.91Z">
</path>
<path class="cls-6" d="M36.04,75.78l-.11-5.6,3.15,5.26,1.72-.17-3.2-6.29,6.01,6.01,13.44-2.4,2.12-6.46s-4.69,.97-7.55,.17c4.92,4.92,1.26,6.12,1.26,6.12,0,0-4-2.86-6.75-2.86,1.43,1.83,1.72,4.63,1.72,4.63l-8.81-6.29s6.35-.29,12.64,1.6c-1.94-3.72-4.52-4.8-4.52-4.8l.34-.17s4.4,1.14,9.27,.34c-8.35-3.77-8.98-6.81-8.98-6.81l-2.12-.8s.57,2.97,3.55,5.32c-5.32-1.6-9.09-.8-10.01-.23,3.26,1.03,4,2.29,4,2.29,0,0-4.98,1.09-8.01-2.23,3.77-.63,3.6-2.8,2.92-3.77-.63,2-4.23,1.94-4.23,1.94,0,0-3.6,.06-4.23-1.94-.69,.97-.86,3.15,2.92,3.77-3.03,3.32-8.01,2.23-8.01,2.23,0,0,.74-1.26,4-2.29-.92-.57-4.69-1.37-10.01,.23,2.97-2.34,3.55-5.32,3.55-5.32l-2.12,.8s-.63,3.03-8.98,6.81c4.86,.8,9.27-.34,9.27-.34l.34,.17s-2.57,1.09-4.52,4.8c6.29-1.89,12.64-1.6,12.64-1.6l-8.81,6.29s.29-2.8,1.72-4.63c-2.75,0-6.75,2.86-6.75,2.86,0,0-3.66-1.2,1.26-6.12-2.86,.8-7.55-.17-7.55-.17l2.12,6.46,13.44,2.4,6.01-6.01-3.2,6.29,1.72,.17,3.15-5.26-.11,5.6h4.35Z">
</path>
<path d="M39.22,56.01l-13.34,17.55-16.19-2.17-1.89-9.3,16.37-5.74,.23-6.84s3.45,7.09,9.82,8.33c2.72-.7,5-1.84,5-1.84Z">
</path>
<path class="cls-2" d="M24.74,51.45c.35,1.87,.56,3.75,.68,5.65-3.22,1.5-6.62,2.75-10.01,3.81-1.92,.53-4.01,1.13-5.98,1.45,0,0-.03-.09-.03-.09,4.98-1.81,10.46-4.04,15.22-5.59,0,0,.02-5.21,.02-5.21,0,0,.1,0,.1,0h0Z">
</path>
<path d="M19.28,32.35l-2.48-8.89s-2.19,5.61-2.55,8.24,.76,7.14,5.7,8.35c-.96-5.36-.67-7.69-.67-7.69Z">
</path>
<path class="cls-2" d="M15.83,28.74c-.14,3.72,.53,7.1,3.13,9.9,0,0-.05,.09-.05,.09-2.57-1.42-4.11-4.29-3.78-7.22,.08-.95,.27-1.9,.61-2.8l.09,.04h0Z">
</path>
<path class="cls-1" d="M51.18,27.48s2.92,4.83,.34,11.02c3.33-3.74,2.79-7.48,2.11-9.18s-1.8-5.71-1.8-5.71l-.65,3.87Z">
</path>
<path class="cls-4" d="M36.03,36.12l.17-4.97s8.37-.11,10.83,2.23c-1.23,2.18-1.68,2.69-1.68,2.69l-9.32,.04Z">
</path>
<path class="cls-2" d="M38.28,38.77s3.27,.77,6.83-.77c-2.31,4.04-5,4.33-6.83,.77Z">
</path>
<path class="cls-2" d="M45.1,30.69s-4.23-2.02-8.36-.96c1.06-2.11,3.85-3.17,6.63-2.02-1.15-2.5-2.88-3.46-2.88-3.46,0,0,1.32-2.08,2.6-3.08,.67,3.17,1.44,6.92,1.44,6.92,0,0,.67,.77,.58,2.6Z">
</path>
<path class="cls-12" d="M34.9,11.27s13.97-.66,14.79,16.67c.48,10.23-2.46,16.42-4.96,19.78-1.32,3.21-3.43,8.05-9.87,9.81-.29,.08-.92,.08-1.22,0-6.43-1.76-8.55-6.6-9.87-9.81-2.5-3.36-5.44-9.55-4.96-19.78,.81-17.33,14.79-16.67,14.79-16.67h1.29Z">
</path>
<path class="cls-12" d="M18.84,32.56l-2.25-9.34s-.69,2.75-1.98,6.56,.92,9.84,5.19,10.14">
</path>
<path class="cls-12" d="M49.75,31.01l2.03-7.79s.69,2.75,1.98,6.56-.92,9.84-5.19,10.14">
</path>
<path d="M31.59,33.24c-3.16-.91-7.21-1.59-10.05,.45,0,0-.63-.7-.63-.7,.73-.7,1.62-1.22,2.55-1.57,2.82-.99,5.8-.88,8.72-.37,0,0-.59,2.2-.59,2.2h0Z">
</path>
<path d="M36.04,31.04c3.79-.61,8.25-.8,11.27,1.95,0,0-.63,.7-.63,.7-1.36-1.03-3.14-1.34-4.88-1.31-1.72,.02-3.55,.36-5.17,.86,0,0-.59-2.2-.59-2.2h0Z">
</path>
<path d="M31.33,46.58c-1.41,.06-3.05-.28-3.05-.28,0,0,.29,.51,1.75,.96,1.2,.37,2.88,.93,3.95,1.8,1.07-.87,2.75-1.43,3.95-1.8,1.47-.45,1.75-.96,1.75-.96,0,0-1.64,.34-3.05,.28-1.12-.04-2.02,.13-2.65,.82-.63-.69-1.53-.86-2.65-.82Z">
</path>
<path d="M37.93,49.19c-1.05,2.97-6.89,2.97-7.9-.03,1.2,.85,2.55,.96,3.94,.99,1.39-.02,2.75-.13,3.96-.96h0Z">
</path>
<path d="M22.88,36.04c2.83-.37,5.83-.76,8.58,.2,0,0-.37,.27-.37,.27-2,1.59-4.89,1.75-7.16,.7,1.19,.33,2.42,.43,3.61,.27,1.19-.15,2.31-.61,3.24-1.36,0,0,.07,.42,.07,.42-2.53-.7-5.34-.46-7.98-.5h0Z">
</path>
<path d="M45.22,36.04c-2.64,.04-5.44-.2-7.98,.5,0,0,.07-.42,.07-.42,.93,.75,2.06,1.21,3.24,1.36,1.19,.16,2.42,.05,3.61-.27-2.27,1.04-5.16,.89-7.16-.7,0,0-.37-.27-.37-.27,2.75-.96,5.76-.57,8.58-.2h0Z">
</path>
<path d="M30.17,40.64c-.31,.53-.43,1.12-.37,1.67l-.18-.24c1.43,.28,2.81,1.09,3.7,2.33l-.33-.2c.59,.07,1.19,.06,1.79,0l-.33,.2c.9-1.23,2.28-2.05,3.71-2.33l-.18,.24c.07-.55-.07-1.14-.38-1.67,.49,.38,.81,1,.88,1.67l.02,.16c-1.32,.53-2.5,1.38-3.26,2.5l-.12,.17c-.75,.12-1.51,.16-2.27,.03,0,0-.22-.04-.22-.04-.74-1.15-1.85-2.01-3.17-2.58,0,0-.2-.08-.2-.08,.05-.71,.36-1.41,.89-1.83h0Z">
</path>
<path d="M22.4,40.62c.95,1.8,2.49,2.97,4.07,4.15,.35,1.02,.66,2.05,.8,3.14-.66-.86-1.15-1.77-1.61-2.69l.18,.21c-1.7-.98-3.49-2.7-3.43-4.81h0Z">
</path>
<path d="M45.26,40.62c.06,2.11-1.73,3.84-3.43,4.81,0,0,.18-.21,.18-.21-.45,.93-.95,1.83-1.61,2.69,.14-1.09,.45-2.12,.8-3.14,1.57-1.19,3.12-2.35,4.07-4.15h0Z">
</path>
<path d="M31.28,53.85c.45-2.56,5.14-2.58,5.62-.03-1.56-1.25-4.09-1.25-5.62,.03h0Z">
</path>
<path d="M23.54,20.18c-.38,2.84-1.09,5.59-1.23,8.42-.84,.74-1.35,1.83-1.7,3.03-.16-1.19,.12-2.49,.97-3.52l-.12,.3c-.12-2.89,.68-5.72,2.07-8.23h0Z">
</path>
<path d="M44.36,20.18c1.39,2.5,2.2,5.34,2.07,8.23,0,0-.12-.3-.12-.3,.84,1.03,1.13,2.33,.97,3.52-.35-1.2-.85-2.29-1.7-3.03-.14-2.83-.85-5.58-1.23-8.42h0Z">
</path>
<path d="M41.2,26.17c-2.3-1.15-4.83-.31-7.27-.46-2.44,.16-4.97-.69-7.27,.46,1.87-1.89,4.86-1.3,7.27-1.46,2.41,.16,5.4-.42,7.27,1.46h0Z">
</path>
<path class="cls-10" d="M46.96,18.11s-2.07-2.21-4.8-1.3-4.69,1.13-7.8,1.13h-.33c-3.11,0-5.07-.23-7.8-1.13s-4.8,1.3-4.8,1.3">
</path>
<path class="cls-10" d="M23.93,48.53v7.79s-7.55,3.44-16.32,5.66">
</path>
<path class="cls-10" d="M44.42,48.53v7.79s7.55,3.44,16.32,5.66">
</path>
<path d="M50.54,64.05c-4.85,1.3-9.76,2.35-14.68,3.34,0,0,.37-.37,.37-.37-.23,1.06-.85,2.26-2.13,2.29-1.28-.03-1.9-1.23-2.13-2.29,0,0,.37,.38,.37,.38-2.45-.52-4.92-.97-7.36-1.56-2.45-.55-4.89-1.13-7.32-1.78,4.99,.61,9.93,1.49,14.86,2.42,0,0,.3,.05,.3,.05,.14,.68,.47,1.78,1.28,1.81,.81-.03,1.13-1.13,1.28-1.81,5.03-.94,10.07-1.84,15.16-2.47h0Z">
</path>
</g>
</g>

  <path
     style="opacity:1;vector-effect:none;fill:#8d5fd3;fill-opacity:1;fill-rule:nonzero;stroke:none;stroke-width:2.35769176;stroke-linecap:butt;stroke-linejoin:miter;stroke-miterlimit:4;stroke-dasharray:none;stroke-dashoffset:0;stroke-opacity:0.44186048"
     d="M 0,1.2e-7 V 80 H 69 V 1.2e-7 Z M 35.240234,4.658203 c 6.067554,0.1120422 16.269844,1.4698438 23.589844,3.8398438 3.46,9.2400002 5.269531,19.9506252 5.269531,31.1406252 0,11.47 -1.89,22.390234 -5.5,31.740234 -7.2,2.16 -14.940375,3.376539 -23.019531,3.259766 -8.580486,-0.124019 -18.036001,-1.572896 -25.240234,-3.86914 -3.4500003,-9.22 -5.2597659,-19.930859 -5.2597659,-31.130859 0,-11.2 1.8904687,-22.380469 5.4804689,-31.730469 C 17.682894,5.1336941 29.17268,4.5461608 35.240234,4.658203 Z"
     id="rect4304" />


</svg>
