<svg id="Capa_2" xmlns="http://www.w3.org/2000/svg" xmlns:xlink="http://www.w3.org/1999/xlink" viewBox="0 0 69.02 80">
<defs >
<style >
.cls-1{fill:#c89aed;}.cls-2{fill:#fff;}.cls-3{fill:#f8ffbf;}.cls-4{fill:#7b7be8;}.cls-5{fill:#a88347;}.cls-6{fill:#782ab5;}.cls-7,.cls-8,.cls-9,.cls-10,.cls-11,.cls-12,.cls-13{fill:none;}.cls-7,.cls-8,.cls-12,.cls-13{stroke:#000;stroke-miterlimit:10;}.cls-8,.cls-9,.cls-12,.cls-13{stroke-linecap:round;}.cls-9{stroke:#deb778;stroke-dasharray:0 0 0 4.06;stroke-linejoin:round;}.cls-14{fill:#deb778;}.cls-15{fill:url(#USGS_19_Inundación_de_tierra_2);}.cls-11{stroke:#1d1d1b;stroke-dasharray:0 0 2 2;stroke-width:.3px;}.cls-16{fill:#cf5f2b;}.cls-12{stroke-width:1.07px;}.cls-13{stroke-width:.75px;}.cls-17{fill:#fcf0c5;}.cls-18{fill:#b83521;}
</style>
<pattern id="USGS_19_Inundación_de_tierra_2" x="0" y="0" width="72" height="72" patternTransform="translate(-452.48 -16063) rotate(-90)" patternUnits="userSpaceOnUse" viewBox="0 0 72 72">
<g >
<rect class="cls-10" width="72" height="72">
</rect>
<g >
<line class="cls-11" x1="71" y1="71" x2="144.44" y2="71">
</line>
<line class="cls-11" x1="71" y1="67" x2="144.44" y2="67">
</line>
<line class="cls-11" x1="71" y1="63" x2="144.44" y2="63">
</line>
<line class="cls-11" x1="71" y1="59" x2="144.44" y2="59">
</line>
<line class="cls-11" x1="71" y1="55" x2="144.44" y2="55">
</line>
<line class="cls-11" x1="71" y1="51" x2="144.44" y2="51">
</line>
<line class="cls-11" x1="71" y1="47" x2="144.44" y2="47">
</line>
<line class="cls-11" x1="71" y1="43" x2="144.44" y2="43">
</line>
<line class="cls-11" x1="71" y1="39" x2="144.44" y2="39">
</line>
<line class="cls-11" x1="71" y1="35" x2="144.44" y2="35">
</line>
<line class="cls-11" x1="71" y1="31" x2="144.44" y2="31">
</line>
<line class="cls-11" x1="71" y1="27" x2="144.44" y2="27">
</line>
<line class="cls-11" x1="71" y1="23" x2="144.44" y2="23">
</line>
<line class="cls-11" x1="71" y1="19" x2="144.44" y2="19">
</line>
<line class="cls-11" x1="71" y1="15" x2="144.44" y2="15">
</line>
<line class="cls-11" x1="71" y1="11" x2="144.44" y2="11">
</line>
<line class="cls-11" x1="71" y1="7" x2="144.44" y2="7">
</line>
<line class="cls-11" x1="71" y1="3" x2="144.44" y2="3">
</line>
</g>
<g >
<line class="cls-11" x1="-1" y1="71" x2="72.44" y2="71">
</line>
<line class="cls-11" x1="-1" y1="67" x2="72.44" y2="67">
</line>
<line class="cls-11" x1="-1" y1="63" x2="72.44" y2="63">
</line>
<line class="cls-11" x1="-1" y1="59" x2="72.44" y2="59">
</line>
<line class="cls-11" x1="-1" y1="55" x2="72.44" y2="55">
</line>
<line class="cls-11" x1="-1" y1="51" x2="72.44" y2="51">
</line>
<line class="cls-11" x1="-1" y1="47" x2="72.44" y2="47">
</line>
<line class="cls-11" x1="-1" y1="43" x2="72.44" y2="43">
</line>
<line class="cls-11" x1="-1" y1="39" x2="72.44" y2="39">
</line>
<line class="cls-11" x1="-1" y1="35" x2="72.44" y2="35">
</line>
<line class="cls-11" x1="-1" y1="31" x2="72.44" y2="31">
</line>
<line class="cls-11" x1="-1" y1="27" x2="72.44" y2="27">
</line>
<line class="cls-11" x1="-1" y1="23" x2="72.44" y2="23">
</line>
<line class="cls-11" x1="-1" y1="19" x2="72.44" y2="19">
</line>
<line class="cls-11" x1="-1" y1="15" x2="72.44" y2="15">
</line>
<line class="cls-11" x1="-1" y1="11" x2="72.44" y2="11">
</line>
<line class="cls-11" x1="-1" y1="7" x2="72.44" y2="7">
</line>
<line class="cls-11" x1="-1" y1="3" x2="72.44" y2="3">
</line>
<line class="cls-11" x1="1.04" y1="69" x2="74.48" y2="69">
</line>
<line class="cls-11" x1="1.04" y1="65" x2="74.48" y2="65">
</line>
<line class="cls-11" x1="1.04" y1="61" x2="74.48" y2="61">
</line>
<line class="cls-11" x1="1.04" y1="57" x2="74.48" y2="57">
</line>
<line class="cls-11" x1="1.04" y1="53" x2="74.48" y2="53">
</line>
<line class="cls-11" x1="1.04" y1="49" x2="74.48" y2="49">
</line>
<line class="cls-11" x1="1.04" y1="45" x2="74.48" y2="45">
</line>
<line class="cls-11" x1="1.04" y1="41" x2="74.48" y2="41">
</line>
<line class="cls-11" x1="1.04" y1="37" x2="74.48" y2="37">
</line>
<line class="cls-11" x1="1.04" y1="33" x2="74.48" y2="33">
</line>
<line class="cls-11" x1="1.04" y1="29" x2="74.48" y2="29">
</line>
<line class="cls-11" x1="1.04" y1="25" x2="74.48" y2="25">
</line>
<line class="cls-11" x1="1.04" y1="21" x2="74.48" y2="21">
</line>
<line class="cls-11" x1="1.04" y1="17" x2="74.48" y2="17">
</line>
<line class="cls-11" x1="1.04" y1="13" x2="74.48" y2="13">
</line>
<line class="cls-11" x1="1.04" y1="9" x2="74.48" y2="9">
</line>
<line class="cls-11" x1="1.04" y1="5" x2="74.48" y2="5">
</line>
<line class="cls-11" x1="1.04" y1="1" x2="74.48" y2="1">
</line>
</g>
<g >
<line class="cls-11" x1="-73" y1="71" x2=".44" y2="71">
</line>
<line class="cls-11" x1="-73" y1="67" x2=".44" y2="67">
</line>
<line class="cls-11" x1="-73" y1="63" x2=".44" y2="63">
</line>
<line class="cls-11" x1="-73" y1="59" x2=".44" y2="59">
</line>
<line class="cls-11" x1="-73" y1="55" x2=".44" y2="55">
</line>
<line class="cls-11" x1="-73" y1="51" x2=".44" y2="51">
</line>
<line class="cls-11" x1="-73" y1="47" x2=".44" y2="47">
</line>
<line class="cls-11" x1="-73" y1="43" x2=".44" y2="43">
</line>
<line class="cls-11" x1="-73" y1="39" x2=".44" y2="39">
</line>
<line class="cls-11" x1="-73" y1="35" x2=".44" y2="35">
</line>
<line class="cls-11" x1="-73" y1="31" x2=".44" y2="31">
</line>
<line class="cls-11" x1="-73" y1="27" x2=".44" y2="27">
</line>
<line class="cls-11" x1="-73" y1="23" x2=".44" y2="23">
</line>
<line class="cls-11" x1="-73" y1="19" x2=".44" y2="19">
</line>
<line class="cls-11" x1="-73" y1="15" x2=".44" y2="15">
</line>
<line class="cls-11" x1="-73" y1="11" x2=".44" y2="11">
</line>
<line class="cls-11" x1="-73" y1="7" x2=".44" y2="7">
</line>
<line class="cls-11" x1="-73" y1="3" x2=".44" y2="3">
</line>
<line class="cls-11" x1="-70.96" y1="69" x2="2.48" y2="69">
</line>
<line class="cls-11" x1="-70.96" y1="65" x2="2.48" y2="65">
</line>
<line class="cls-11" x1="-70.96" y1="61" x2="2.48" y2="61">
</line>
<line class="cls-11" x1="-70.96" y1="57" x2="2.48" y2="57">
</line>
<line class="cls-11" x1="-70.96" y1="53" x2="2.48" y2="53">
</line>
<line class="cls-11" x1="-70.96" y1="49" x2="2.48" y2="49">
</line>
<line class="cls-11" x1="-70.96" y1="45" x2="2.48" y2="45">
</line>
<line class="cls-11" x1="-70.96" y1="41" x2="2.48" y2="41">
</line>
<line class="cls-11" x1="-70.96" y1="37" x2="2.48" y2="37">
</line>
<line class="cls-11" x1="-70.96" y1="33" x2="2.48" y2="33">
</line>
<line class="cls-11" x1="-70.96" y1="29" x2="2.48" y2="29">
</line>
<line class="cls-11" x1="-70.96" y1="25" x2="2.48" y2="25">
</line>
<line class="cls-11" x1="-70.96" y1="21" x2="2.48" y2="21">
</line>
<line class="cls-11" x1="-70.96" y1="17" x2="2.48" y2="17">
</line>
<line class="cls-11" x1="-70.96" y1="13" x2="2.48" y2="13">
</line>
<line class="cls-11" x1="-70.96" y1="9" x2="2.48" y2="9">
</line>
<line class="cls-11" x1="-70.96" y1="5" x2="2.48" y2="5">
</line>
<line class="cls-11" x1="-70.96" y1="1" x2="2.48" y2="1">
</line>
</g>
</g>
</pattern>
</defs>

<g id="Characters">
<g >
<path class="cls-1" d="M23.47,13.3s-5.28,1.58-5.7,10.03,.21,11.09,.21,11.09c0,0-3.06-2.96-4.44-1.37,0,0-.95,1.8-.21,4.33s3.17,7.29,5.49,7.39c1.06,2.32,1.48,3.49,1.48,3.49l1.8,2.96,.53,6.87s-12.15,3.49-15.53,6.87c2.22,7.39,3.7,8.34,3.7,8.34,0,0,32,5.18,47.95-1.16,1.69-5.7,1.37-8.03,1.37-8.03,0,0-13.52-5.6-15.32-6.02,.63-5.18,.63-6.44,.63-6.44l1.8-3.59,.63-2.75s4.75-1.37,6.23-6.97c1.58-5.81-1.9-7.71-3.91-4.01,.11-10.46,0-19.75-6.65-21.76-6.76-2.01-16.37-1.58-20.07,.74Z">
</path>
<path class="cls-2" d="M33.87,58V21.61c0-5.71,5.67-9.91,11.02-7.9,.89,.33,1.64,.8,2.17,1.43,2.92,3.52,3.42,12.98,2.41,20.53s-2.55,13.25-2.55,13.25l-6.7,9.6-6.34-.5Z">
</path>
<path class="cls-4" d="M31.24,34.11s-7.35-2.65-10.09,.17c-.6,1.62-.26,3.59-.26,3.59,0,0,4.31,1.22,9.25,.22,1.01-2.53,1.09-3.99,1.09-3.99Z">
</path>
<path class="cls-4" d="M36.46,34.11s7.35-2.65,10.09,.17c.6,1.62,.26,3.59,.26,3.59,0,0-4.31,1.22-9.25,.22-1.01-2.53-1.09-3.99-1.09-3.99Z">
</path>
<path class="cls-3" d="M30.15,38.1s-.66-1.84-3.61-1.97c-2.83,.79-4.4,1.84-4.4,1.84,0,0,4.2,1.64,8.02,.13Z">
</path>
<path class="cls-3" d="M37.47,38.1s.66-1.84,3.61-1.97c2.83,.79,4.4,1.84,4.4,1.84,0,0-4.2,1.64-8.02,.13Z">
</path>
<path d="M17.89,35.09s-1.71-3.15-4.35-2.04c-2.43,1.75,1.18,10.77,5.72,11.71-1.01-5.77-1.37-9.67-1.37-9.67Z">
</path>
<path d="M22.71,52.17l4.78,6.79,12.15-.09,5.81-7.22-.18,2.69-16.5,20.77s-15.51-1.27-18.77-4.35c-2-3.9-1.45-6.62-1.45-6.62,0,0,7.89-4.44,14.06-5.71-.09-4.26,.45-5.62,.45-5.62">
</path>
<path class="cls-1" d="M23.71,55.86c.44,.89,.69,1.82,.98,2.75-4.8,3.04-10.12,5.02-15.81,5.6,0,0-.1-.17-.1-.17,3.49-1.96,7.19-3.5,10.98-4.76,1.26-.42,2.53-.83,3.81-1.2l-.09,.12,.03-2.34h.2Z">
</path>
<path d="M49.8,59.83s-1.06,10.32-7.84,15.05c12.29-1.2,17.52-2.83,17.52-2.83l1.48-7.56s-7.14-3.6-11.16-4.66Z">
</path>
<path class="cls-1" d="M33.96,11.22c1.12,0,11,.2,13.92,7.15,3.3,7.85-.68,28.04-1.83,30.05-1.2,2.1-4.3,6.32-5.07,7.36l-4.83,1.82h-4.43l-5.13-1.54c-.82-1.14-3.96-5.55-5.15-7.63-1.15-2.01-5.13-22.2-1.83-30.05,2.92-6.95,12.8-7.15,13.92-7.15,.11,0,.18,0,.18,0,0,0,.02,0,.03,0s.02,0,.03,0c0,0,.07,0,.18,0m0-1c-.14,0-.21,0-.21,0,0,0-.07,0-.21,0-1.6,0-11.7,.3-14.84,7.76-3.41,8.11,.47,28.46,1.88,30.93,1.41,2.47,5.41,8,5.41,8l5.6,1.69h4.76l5.27-1.99s3.9-5.22,5.31-7.69c1.41-2.47,5.29-22.81,1.88-30.93-3.14-7.47-13.24-7.76-14.84-7.76h0Z">
</path>
<path class="cls-2" d="M43.62,59.95l4.41,1.57s-.78,9.82-11.17,13.52c-5.41-.14-5.83-.28-5.83-.28l12.59-14.8Z">
</path>
<path class="cls-1" d="M33.53,12.22h.15s.06,0,.06,0h.06s.16,0,.16,0c1.05,0,10.32,.18,13,6.54,3.15,7.49-.68,27.18-1.77,29.16-1.06,1.85-4.74,7.45-6.34,9.88l-11.67-2.67c-1.06-1.49-3.78-5.33-4.86-7.21-1.1-1.98-4.92-21.67-1.78-29.16,2.67-6.36,11.95-6.54,13-6.54m.43-2c-.14,0-.21,0-.21,0,0,0-.07,0-.21,0-1.6,0-11.7,.3-14.84,7.76-3.41,8.11,.47,28.46,1.88,30.93,1.41,2.47,5.41,8,5.41,8l13.75,3.15s5.77-8.68,7.18-11.15c1.41-2.47,5.29-22.81,1.88-30.93-3.14-7.47-13.24-7.76-14.84-7.76h0Z">
</path>
<path class="cls-2" d="M27.44,41.07s-3.75,2.34-6.8,.16c2.03,3.98,4.86,3.95,6.8-.16Z">
</path>
<path class="cls-2" d="M51.5,33.23s3.53,3.62-.88,10.14c6.09-7.14,3.7-11.82,.88-10.14Z">
</path>
<path class="cls-8" d="M41.6,56.61s3.9-5.22,5.31-7.69,5.29-22.81,1.88-30.93c-3.41-8.11-15.05-7.76-15.05-7.76,0,0-11.64-.35-15.05,7.76s.47,28.46,1.88,30.93,5.41,8,5.41,8">
</path>
<path class="cls-8" d="M17.74,34.88s-1.26-2.84-3.71-2.13,0,11.42,5.13,12.13">
</path>
<path class="cls-8" d="M49.8,34.88s1.26-2.84,3.71-2.13,0,11.42-5.13,12.13">
</path>
<path d="M18.4,37.54s.23-7.55,2.47-11.33c-2.54-2-2.47-7.4-2.47-7.4,0,0-2.54,8.48,0,18.72Z">
</path>
<path d="M49.45,37.54s-.23-7.55-2.47-11.33c2.54-2,2.47-7.4,2.47-7.4,0,0,2.54,8.48,0,18.72Z">
</path>
<path class="cls-18" d="M35.84,52.16l-.81,3.12s.95,1.09,3.03,1.61c2.27-.61,2.83-1.94,2.83-1.94,0,0,1.61,3.31,1.28,6.9-.33,3.6-2.65,6.24-2.65,6.24,0,0,0-4.93-5.62-8.2-5.63,3.27-5.63,8.2-5.63,8.2,0,0-2.31-2.64-2.64-6.24-.33-3.59,1.27-6.9,1.27-6.9,0,0,.57,1.33,2.84,1.94,2.08-.52,3.02-1.61,3.02-1.61l-.8-3.12">
</path>
<path class="cls-16" d="M26.25,57.43s-1.15,4.26-.4,6.07c1.75-2.16,4.36-1.55,5.01-1.25,1.5-1.5,2.36-1.8,2.36-1.8,0,0-4.61,.55-6.97-3.01Z">
</path>
<path class="cls-16" d="M41.55,57.43s1.15,4.26,.4,6.07c-1.75-2.16-4.36-1.55-5.01-1.25-1.5-1.5-2.36-1.8-2.36-1.8,0,0,4.61,.55,6.97-3.01Z">
</path>
<path class="cls-13" d="M35.84,52.16l-.81,3.12s.95,1.09,3.03,1.61c2.27-.61,2.83-1.94,2.83-1.94,0,0,1.61,3.31,1.28,6.9-.33,3.6-2.65,6.24-2.65,6.24,0,0,0-4.93-5.62-8.2-5.63,3.27-5.63,8.2-5.63,8.2,0,0-2.31-2.64-2.64-6.24-.33-3.59,1.27-6.9,1.27-6.9,0,0,.57,1.33,2.84,1.94,2.08-.52,3.02-1.61,3.02-1.61l-.8-3.12">
</path>
<path d="M45.81,14.01s-.92-1-3.49,1.45-5.95,3.13-8.21,3.13h-.12c-2.27,0-5.64-.67-8.21-3.13s-4.05-1.59-4.05-1.59c0,0,4.67-3.71,12.38-3.71s11.71,3.86,11.71,3.86Z">
</path>
<path d="M21.09,34.56c2.51-3.19,7.15-2.14,10.61-1.57,0,0-.52,2.1-.52,2.1-3.28-.77-6.89-2.44-10.08-.52h0Z">
</path>
<path d="M46.73,34.56c-3.19-1.91-6.8-.25-10.08,.52,0,0-.52-2.1-.52-2.1,3.45-.57,8.1-1.62,10.61,1.57h0Z">
</path>
<path d="M29.37,36.96c-.83-.01-1.82-.23-2.62-.27-1.5,.35-3.48,.72-4.96,1.56,0,0-.07-.68-.07-.68,.85,.11,1.69,.29,2.52,.45,2.04,.57,4.04,.49,5.99-.36,0,0,1.95-.91,1.95-.91l-1.64,1.33c-1.51,1.22-3.1,2.37-4.92,3.04,.87-.41,1.66-.96,2.41-1.55,.75-.59,1.48-1.22,2.15-1.88l.31,.42c-2.78,1.59-6.11,1.34-8.97,.16,0,0-.81-.33-.81-.33,.63-.3,1.38-.63,2.02-.86,1.26-.41,2.62-.98,3.94-1.16,1.04,.13,1.81,.55,2.7,1.04h0Z">
</path>
<path d="M38.39,36.96c.89-.49,1.66-.91,2.7-1.04,1.31,.18,2.67,.75,3.94,1.16,.64,.23,1.39,.56,2.02,.86,0,0-.81,.33-.81,.33-2.86,1.18-6.19,1.43-8.97-.16,0,0,.31-.42,.31-.42,1.37,1.31,2.84,2.58,4.56,3.43-1.82-.67-3.41-1.82-4.92-3.04l-1.64-1.33,1.95,.91c1.95,.85,3.95,.93,5.99,.36,.83-.16,1.67-.34,2.52-.45l-.07,.68c-1.48-.84-3.46-1.21-4.96-1.56-.8,.04-1.79,.26-2.62,.27h0Z">
</path>
<path d="M29.9,41.12c-.47,.5-1.4,1.27-1.51,1.74,0-.02-.04-.04-.02-.03,.03,.01,.03,.03,.09,.05,1.03,.4,2.59,.51,3.69,.73,0,0-.03,.53-.03,.53-1.43-.04-3.05,.03-4.28-.83-.72-1.05,1.29-1.96,2.05-2.19h0Z">
</path>
<path d="M37.62,41.12c.75,.22,2.77,1.13,2.05,2.19-1.23,.86-2.84,.79-4.28,.83,0,0-.03-.53-.03-.53,1.11-.21,2.66-.32,3.69-.73,.06-.02,.06-.04,.09-.05,.03-.01-.02,.01-.02,.03-.11-.47-1.03-1.23-1.51-1.74h0Z">
</path>
<path d="M37.9,42.67c-1.59,.71-2.98,1.71-4.14,2.91,0,0-.31-.31-.31-.31-1.06-1.06-2.39-1.95-3.82-2.6,1.55,.34,3.06,.92,4.46,1.82h-.63c1.39-.9,2.91-1.48,4.46-1.82h0Z">
</path>
<path class="cls-8" d="M22.24,51.78l.68,6.39s-10.75,3.46-15.12,5.94">
</path>
<path class="cls-8" d="M45.77,50.73l-.89,7.45s10.75,3.46,15.12,5.94">
</path>
<path class="cls-8" d="M17.97,59.86s.54,10.18,7.83,15.04">
</path>
<path class="cls-8" d="M42,74.9c7.29-4.86,7.83-15.04,7.83-15.04">
</path>
<g >
<path d="M27.28,44.56c-.42,1.47-1.07,2.82-1.78,4.13l.06-.23c.01,1.75-.02,3.49-.1,5.3-.78-1.71-.92-3.6-.88-5.46,.78-1.32,1.61-2.6,2.69-3.75h0Z">
</path>
<path d="M40.21,44.56c1.08,1.15,1.91,2.43,2.69,3.75,.04,1.85-.09,3.75-.88,5.46-.08-1.81-.11-3.55-.1-5.3l.06,.23c-.71-1.31-1.36-2.66-1.78-4.13h0Z">
</path>
<path class="cls-12" d="M30.47,51.28s.23,.85,2.95,.85,3.01-.74,3.01-.74">
</path>
<path class="cls-13" d="M25.29,48.37l1.67,1.87s7.14-.86,12.97-.05c1.27-.71,2.05-2.1,2.05-2.1">
</path>
</g>
<path class="cls-18" d="M42.33,13.55s-9.01,7.38-16.2-.38c6.04-1.63,14.19-.77,16.2,.38Z">
</path>
<path class="cls-1" d="M13.65,34.19c1.11,2.62,1.82,5.23,3.25,7.66,.48,.76,1.01,1.47,1.68,2.26l-.05,.09c-3.4-1.87-5.01-6.5-4.88-10.01h0Z">
</path>
</g>
</g>
 <g
     id="g2850">
    <g
       id="g2837">
      <path
         id="path1951"
         d="M 0.056640625 0.04296875 L 0.056640625 79.943359 L 69.308594 79.943359 L 69.308594 0.04296875 L 0.056640625 0.04296875 z M 33.615234 3.5957031 C 34.206332 3.5957038 34.786991 3.6051034 35.421875 3.6152344 C 44.430653 3.7671809 53.471255 5.1336733 61.560547 7.5546875 L 62.064453 7.7070312 L 62.25 8.1640625 C 66.070247 17.605006 66.990234 28.726438 66.990234 40.0625 C 66.990234 51.398562 65.972723 63.025755 61.988281 72.578125 L 61.791016 73.044922 L 61.275391 73.185547 C 53.273669 75.403966 44.691921 76.529297 35.759766 76.529297 C 35.212453 76.529297 34.675812 76.519896 34.150391 76.509766 L 33.943359 76.509766 C 24.901742 76.357819 15.860367 74.989738 7.7929688 72.558594 L 7.2890625 72.40625 L 7.1035156 71.951172 C 3.2942144 62.520359 2.375 51.369168 2.375 40.0625 C 2.375 28.755832 3.3819737 17.127318 7.3554688 7.5546875 L 7.5527344 7.0898438 L 8.0664062 6.9472656 C 15.509867 4.890923 23.785212 3.7371557 32.005859 3.6054688 C 32.542226 3.5953387 33.078867 3.5957031 33.615234 3.5957031 z "
         style="opacity:1;vector-effect:none;fill:#ffffff;fill-opacity:1;fill-rule:nonzero;stroke:none;stroke-width:1.95200002;stroke-linecap:butt;stroke-linejoin:miter;stroke-miterlimit:4;stroke-dasharray:none;stroke-dashoffset:0;stroke-opacity:1" />
    </g>
    <path
       id="path1154-8-2"
       d="m 33.675163,6.6112954 c 0.557696,0 1.115392,0.00956 1.683415,0.019115 8.427403,0.14336 16.803167,1.4049288 24.363042,3.6700176 3.573384,8.830981 4.443772,19.417362 4.443772,29.761551 0,10.344189 -0.95301,21.39888 -4.68131,30.334991 -7.435942,2.064385 -15.429581,3.274388 -23.774362,3.274388 -0.506058,0 -1.012115,-0.0096 -1.518172,-0.01911 h -0.17557 C 25.56792,73.508883 17.192156,72.088619 9.6426089,69.813973 6.0795528,61.002107 5.2088244,50.415411 5.2088244,40.061979 c 0,-10.353432 0.95335,-21.389323 4.6609939,-30.325434 C 16.820359,7.8155201 24.462856,6.7450981 32.177647,6.6208528 c 0.49573,-0.00956 1.001787,-0.00956 1.497516,-0.00956 m 0,-0.9557337 c -0.506057,0 -1.012114,0 -1.518171,0.00956 C 24.40089,5.7893644 16.593149,6.8789009 9.570315,8.8190405 L 9.0849131,8.9528432 8.8990146,9.3924808 C 5.1500599,18.424166 4.1999116,29.394246 4.1999116,40.061979 c 0,10.667733 0.8675267,21.188618 4.461566,30.0865 l 0.1755708,0.430081 0.4750741,0.14336 c 7.6115135,2.293761 16.1421925,3.584001 24.6728715,3.727361 h 0.196227 c 0.495729,0.0096 1.001786,0.01911 1.518171,0.01911 8.427403,0 16.524318,-1.060864 24.073866,-3.153921 l 0.485403,-0.133802 0.185898,-0.439639 c 3.759282,-9.01257 4.719759,-19.983589 4.719759,-30.679055 0,-10.695466 -0.867528,-21.188618 -4.471894,-30.0960578 L 60.516853,9.5358409 60.041779,9.3924808 C 52.409609,7.108277 43.87893,5.8180364 35.379234,5.6746763 34.780227,5.6651187 34.232859,5.6555621 33.675163,5.6555615 Z"
       style="fill:#ff0000;stroke:#ffffff;stroke-width:1.84341729;stroke-miterlimit:4;stroke-dasharray:none" />
    <path
       id="path1154"
       d="m 33.614853,4.6077955 c 0.591098,0 1.182197,0.01013 1.784241,0.02026 8.932155,0.1519464 17.809578,1.4890758 25.822246,3.8898304 3.787408,9.3599041 4.709928,20.5803481 4.709928,31.5440931 0,10.963745 -1.01009,22.680548 -4.961693,32.151879 -7.881312,2.18803 -16.353723,3.302304 -25.198307,3.302304 -0.536368,0 -1.072735,-0.01013 -1.609102,-0.02026 H 33.97608 C 25.022033,75.343956 16.14461,74.006827 8.1428892,71.595943 4.3664269,62.256298 3.443547,51.035521 3.443547,40.061979 c 0,-10.973542 1.01045,-22.670418 4.9401601,-32.1417498 7.3668369,-2.036083 15.4670749,-3.170617 23.6439369,-3.3023039 0.525421,-0.01013 1.061788,-0.01013 1.587209,-0.01013 m 0,-1.0129766 c -0.536367,0 -1.072734,0 -1.609101,0.01013 C 23.785105,3.7366356 15.509726,4.891429 8.0662653,6.9477716 L 7.5517907,7.0895883 7.3547579,7.5555576 C 3.3812628,17.128188 2.3742062,28.755311 2.3742062,40.061979 c 0,11.306668 0.9194864,22.457692 4.7287876,31.888505 l 0.1860865,0.45584 0.5035283,0.151947 c 8.0673984,2.431144 17.1090154,3.798662 26.1506324,3.950608 h 0.207979 c 0.525421,0.01013 1.061788,0.02026 1.609101,0.02026 8.932155,0 17.514028,-1.124404 25.51575,-3.342823 l 0.514475,-0.141816 0.197032,-0.46597 c 3.984442,-9.55237 5.002445,-21.180489 5.002445,-32.516551 0,-11.336062 -0.919487,-22.457692 -4.739734,-31.8986353 L 62.064202,7.7075041 61.560674,7.5555576 C 53.471382,5.1345434 44.429765,3.7670249 35.420987,3.6150784 c -0.634884,-0.01013 -1.215036,-0.020259 -1.806134,-0.02026 z"
       style="fill:#000000;stroke:#000000;stroke-width:1.95382714;stroke-miterlimit:4;stroke-dasharray:none" />
    <g
       id="g1810">
      <path
         d="M 6.5134911,7.7433673 C 5.6489029,6.8479453 4.058602,6.5681013 3.6272194,7.3820013 3.284151,8.0292783 3.3625296,8.5309135 4.395235,8.9201755 3.2963719,9.5187755 1.4857674,9.4447465 1.1893447,7.4467713 0.95320848,5.8551433 2.674739,4.8863543 3.1399725,5.0916244 3.0034432,3.6818714 1.8221094,4.0692802 0.95849208,3.2813384 0.34259068,2.7194046 0.23126071,-0.02624603 0.0561761,0.04378767 -0.0138576,0.21887227 2.7317937,0.33020157 3.2937267,0.94610377 4.0816685,1.8097211 3.6942598,2.9910547 5.1040128,3.1275841 4.8987425,2.6623507 5.8675315,0.94082017 7.4591593,1.1769564 9.4571345,1.4733791 9.5311625,3.2839847 8.9325635,4.3828467 8.5433008,3.3501417 8.041666,3.2717627 7.3943894,3.6148312 6.5804899,4.0462137 6.8603354,5.6365129 7.7557553,6.5011023"
         style="fill:#000000;stroke:#000000;stroke-width:0.1112323px;stroke-linecap:butt;stroke-linejoin:miter;stroke-opacity:1"
         id="path1737-3" />
      <path
         d="m 62.850738,7.7433673 c 0.864588,-0.895422 2.454889,-1.175266 2.886271,-0.361366 0.343069,0.647277 0.26469,1.148912 -0.768015,1.538174 1.098863,0.5986 2.909467,0.524571 3.20589,-1.473404 0.236136,-1.591628 -1.485394,-2.560417 -1.950628,-2.3551469 0.13653,-1.409753 1.317863,-1.0223442 2.181481,-1.810286 0.615901,-0.5619338 0.727231,-3.30758442 0.902316,-3.23755072 0.07003,0.1750846 -2.675618,0.2864139 -3.237551,0.9023161 C 65.28256,1.8097211 65.669969,2.9910547 64.260216,3.1275841 64.465486,2.6623507 63.496697,0.94082018 61.905069,1.1769564 c -1.997975,0.2964227 -2.072003,2.1070283 -1.473404,3.2058903 0.389263,-1.032705 0.890898,-1.111084 1.538174,-0.7680155 0.8139,0.4313825 0.534054,2.0216817 -0.361366,2.8862711"
         style="fill:#000000;stroke:#000000;stroke-width:0.1112323px;stroke-linecap:butt;stroke-linejoin:miter;stroke-opacity:1"
         id="path1737-3-5" />
      <path
         d="m 62.850738,72.244244 c 0.864588,0.895422 2.454889,1.175266 2.886272,0.361366 0.343068,-0.647277 0.264689,-1.148912 -0.768016,-1.538174 1.098863,-0.5986 2.909468,-0.524571 3.20589,1.473404 0.236137,1.591628 -1.485394,2.560417 -1.950628,2.355147 0.13653,1.409753 1.317864,1.022344 2.181481,1.810286 0.615901,0.561934 0.727231,3.307584 0.902316,3.237551 0.07003,-0.175085 -2.675618,-0.286414 -3.237551,-0.902317 -0.787942,-0.863617 -0.400533,-2.04495 -1.810286,-2.18148 0.20527,0.465234 -0.763519,2.186764 -2.355146,1.950628 -1.997976,-0.296423 -2.072004,-2.107028 -1.473405,-3.20589 0.389263,1.032705 0.890898,1.111084 1.538175,0.768015 0.813899,-0.431382 0.534054,-2.021682 -0.361366,-2.886271"
         style="fill:#000000;stroke:#000000;stroke-width:0.1112323px;stroke-linecap:butt;stroke-linejoin:miter;stroke-opacity:1"
         id="path1737-3-7" />
      <path
         d="M 6.513491,72.244245 C 5.648903,73.139667 4.058602,73.419511 3.62722,72.605611 3.284151,71.958334 3.36253,71.456699 4.395235,71.067437 c -1.098863,-0.5986 -2.909467,-0.524571 -3.20589,1.473404 -0.23613599,1.591628 1.485394,2.560417 1.950628,2.355147 -0.13653,1.409753 -1.317863,1.022344 -2.18148099,1.810286 -0.615901,0.561933 -0.727231,3.307584 -0.902316,3.23755 C -0.01385399,79.76874 2.731794,79.65741 3.293727,79.041508 4.081669,78.177891 3.69426,76.996557 5.104013,76.860028 4.898743,77.325261 5.867532,79.046792 7.45916,78.810656 9.457135,78.514233 9.531163,76.703627 8.932564,75.604765 8.543301,76.63747 8.041666,76.715849 7.39439,76.372781 6.58049,75.941398 6.860336,74.351099 7.755756,73.48651"
         style="fill:#000000;stroke:#000000;stroke-width:0.1112323px;stroke-linecap:butt;stroke-linejoin:miter;stroke-opacity:1"
         id="path1737-3-5-5" />
    </g>
    <path
       id="path1154-9"
       d="m 33.712865,7.4258691 c 0.536813,0 1.07363,0.00933 1.620386,0.01865 8.111875,0.1398689 16.174044,1.3707167 23.450873,3.5806479 3.439594,8.615932 4.277395,18.944521 4.277395,29.036812 0,10.092292 -0.917329,20.877786 -4.506039,29.596289 -7.157536,2.014114 -14.851888,3.03982 -22.884234,3.03982 -0.487111,0 -0.974221,-0.0094 -1.461331,-0.01865 H 34.040918 C 25.909161,72.53957 17.846991,71.308722 10.580105,69.089467 7.1504515,60.492184 6.3123238,50.163289 6.3123238,40.061979 c 0,-10.101311 0.9176558,-20.868461 4.4864832,-29.586965 6.690308,-1.8742449 14.046665,-2.9186005 21.472608,-3.0398203 0.47717,-0.00933 0.964281,-0.00933 1.44145,-0.00933 m 0,-0.9324602 c -0.487111,0 -0.974221,0 -1.46133,0.00933 C 24.785826,6.6239532 17.270413,7.686958 10.510517,9.5798526 L 10.043289,9.710397 9.8643508,10.139328 c -3.6085914,8.811751 -4.5231655,19.514693 -4.5231655,29.922651 0,10.407958 0.8350459,20.672644 4.294522,29.353849 l 0.1689973,0.419608 0.4572874,0.13987 c 7.326533,2.237904 15.537818,3.496724 23.749103,3.636593 h 0.188879 c 0.47717,0.0094 0.96428,0.01865 1.461331,0.01865 8.111875,0 15.905636,-1.035031 23.172525,-3.077119 l 0.467228,-0.130544 0.178938,-0.428932 c 3.618533,-8.793101 4.543048,-19.496959 4.543048,-29.931975 0,-10.435016 -0.835047,-20.672644 -4.304463,-29.363174 l -0.168997,-0.419609 -0.457288,-0.13987 C 51.74588,7.9107484 43.534594,6.6519271 35.353133,6.512058 34.776554,6.502738 34.249678,6.493409 33.712865,6.493409 Z"
       style="fill:#000000;stroke:none;stroke-width:1.78642213;stroke-miterlimit:4;stroke-dasharray:none" />
    <path
       id="path1154-9-3"
       d="m 33.712865,7.4258686 c 0.536813,0 1.07363,0.00933 1.620386,0.01865 8.111875,0.1398689 16.174044,1.3707167 23.450873,3.5806484 3.439594,8.615932 4.277395,18.944521 4.277395,29.036812 0,10.092292 -0.917329,20.877786 -4.506039,29.596288 -7.157536,2.014114 -14.851888,3.03982 -22.884234,3.03982 -0.487111,0 -0.974221,-0.0094 -1.461331,-0.01865 H 34.040918 C 25.909161,72.539569 17.846991,71.308722 10.580105,69.089466 7.1504515,60.492184 6.3123238,50.163288 6.3123238,40.061979 c 0,-10.101312 0.9176558,-20.868461 4.4864832,-29.586965 6.690308,-1.8742454 14.046665,-2.918601 21.472608,-3.0398208 0.47717,-0.00933 0.964281,-0.00933 1.44145,-0.00933 m 0,-0.9324602 c -0.487111,0 -0.974221,0 -1.46133,0.00933 C 24.785826,6.6239527 17.270413,7.6869575 10.510517,9.5798521 L 10.043289,9.7103965 9.8643508,10.139328 C 6.2557594,18.951079 5.3411853,29.65402 5.3411853,40.061979 c 0,10.407958 0.8350459,20.672643 4.294522,29.353849 l 0.1689973,0.419608 0.4572874,0.13987 c 7.326533,2.237904 15.537818,3.496724 23.749103,3.636593 h 0.188879 c 0.47717,0.0094 0.96428,0.01865 1.461331,0.01865 8.111875,0 15.905636,-1.035032 23.172525,-3.077119 l 0.467228,-0.130544 0.178938,-0.428932 c 3.618533,-8.793101 4.543048,-19.49696 4.543048,-29.931975 0,-10.435016 -0.835047,-20.672644 -4.304463,-29.363175 l -0.168997,-0.419609 -0.457288,-0.13987 C 51.74588,7.9107479 43.534594,6.6519266 35.353133,6.5120575 34.776554,6.5027375 34.249678,6.4934085 33.712865,6.4934085 Z"
       style="fill:#000000;stroke:none;stroke-width:1.78642213;stroke-miterlimit:4;stroke-dasharray:none" />
  </g>
</svg>
