<?xml version="1.0" encoding="UTF-8"?><svg id="Capa_2" xmlns="http://www.w3.org/2000/svg" xmlns:xlink="http://www.w3.org/1999/xlink" viewBox="0 0 69.02 80"><defs><style>.cls-1{fill:#c89aed;}.cls-2{fill:#fff;}.cls-3{fill:#f8ffbf;}.cls-4{fill:#7b7be8;}.cls-5{fill:#a88347;}.cls-6{fill:#782ab5;}.cls-7,.cls-8{stroke:#000;stroke-miterlimit:10;}.cls-7,.cls-8,.cls-9,.cls-10,.cls-11{fill:none;}.cls-8,.cls-9{stroke-linecap:round;}.cls-9{stroke:#deb778;stroke-dasharray:0 0 0 4.06;stroke-linejoin:round;}.cls-12{fill:#deb778;}.cls-13{fill:url(#USGS_19_Inundación_de_tierra_2);}.cls-11{stroke:#1d1d1b;stroke-dasharray:0 0 2 2;stroke-width:.3px;}.cls-14{fill:#fcf0c5;}.cls-15{fill:#b83521;}</style><pattern id="USGS_19_Inundación_de_tierra_2" x="0" y="0" width="72" height="72" patternTransform="translate(339.52 -16135) rotate(-90)" patternUnits="userSpaceOnUse" viewBox="0 0 72 72"><g><rect class="cls-10" width="72" height="72"/><g><line class="cls-11" x1="71" y1="71" x2="144.44" y2="71"/><line class="cls-11" x1="71" y1="67" x2="144.44" y2="67"/><line class="cls-11" x1="71" y1="63" x2="144.44" y2="63"/><line class="cls-11" x1="71" y1="59" x2="144.44" y2="59"/><line class="cls-11" x1="71" y1="55" x2="144.44" y2="55"/><line class="cls-11" x1="71" y1="51" x2="144.44" y2="51"/><line class="cls-11" x1="71" y1="47" x2="144.44" y2="47"/><line class="cls-11" x1="71" y1="43" x2="144.44" y2="43"/><line class="cls-11" x1="71" y1="39" x2="144.44" y2="39"/><line class="cls-11" x1="71" y1="35" x2="144.44" y2="35"/><line class="cls-11" x1="71" y1="31" x2="144.44" y2="31"/><line class="cls-11" x1="71" y1="27" x2="144.44" y2="27"/><line class="cls-11" x1="71" y1="23" x2="144.44" y2="23"/><line class="cls-11" x1="71" y1="19" x2="144.44" y2="19"/><line class="cls-11" x1="71" y1="15" x2="144.44" y2="15"/><line class="cls-11" x1="71" y1="11" x2="144.44" y2="11"/><line class="cls-11" x1="71" y1="7" x2="144.44" y2="7"/><line class="cls-11" x1="71" y1="3" x2="144.44" y2="3"/></g><g><line class="cls-11" x1="-1" y1="71" x2="72.44" y2="71"/><line class="cls-11" x1="-1" y1="67" x2="72.44" y2="67"/><line class="cls-11" x1="-1" y1="63" x2="72.44" y2="63"/><line class="cls-11" x1="-1" y1="59" x2="72.44" y2="59"/><line class="cls-11" x1="-1" y1="55" x2="72.44" y2="55"/><line class="cls-11" x1="-1" y1="51" x2="72.44" y2="51"/><line class="cls-11" x1="-1" y1="47" x2="72.44" y2="47"/><line class="cls-11" x1="-1" y1="43" x2="72.44" y2="43"/><line class="cls-11" x1="-1" y1="39" x2="72.44" y2="39"/><line class="cls-11" x1="-1" y1="35" x2="72.44" y2="35"/><line class="cls-11" x1="-1" y1="31" x2="72.44" y2="31"/><line class="cls-11" x1="-1" y1="27" x2="72.44" y2="27"/><line class="cls-11" x1="-1" y1="23" x2="72.44" y2="23"/><line class="cls-11" x1="-1" y1="19" x2="72.44" y2="19"/><line class="cls-11" x1="-1" y1="15" x2="72.44" y2="15"/><line class="cls-11" x1="-1" y1="11" x2="72.44" y2="11"/><line class="cls-11" x1="-1" y1="7" x2="72.44" y2="7"/><line class="cls-11" x1="-1" y1="3" x2="72.44" y2="3"/><line class="cls-11" x1="1.04" y1="69" x2="74.48" y2="69"/><line class="cls-11" x1="1.04" y1="65" x2="74.48" y2="65"/><line class="cls-11" x1="1.04" y1="61" x2="74.48" y2="61"/><line class="cls-11" x1="1.04" y1="57" x2="74.48" y2="57"/><line class="cls-11" x1="1.04" y1="53" x2="74.48" y2="53"/><line class="cls-11" x1="1.04" y1="49" x2="74.48" y2="49"/><line class="cls-11" x1="1.04" y1="45" x2="74.48" y2="45"/><line class="cls-11" x1="1.04" y1="41" x2="74.48" y2="41"/><line class="cls-11" x1="1.04" y1="37" x2="74.48" y2="37"/><line class="cls-11" x1="1.04" y1="33" x2="74.48" y2="33"/><line class="cls-11" x1="1.04" y1="29" x2="74.48" y2="29"/><line class="cls-11" x1="1.04" y1="25" x2="74.48" y2="25"/><line class="cls-11" x1="1.04" y1="21" x2="74.48" y2="21"/><line class="cls-11" x1="1.04" y1="17" x2="74.48" y2="17"/><line class="cls-11" x1="1.04" y1="13" x2="74.48" y2="13"/><line class="cls-11" x1="1.04" y1="9" x2="74.48" y2="9"/><line class="cls-11" x1="1.04" y1="5" x2="74.48" y2="5"/><line class="cls-11" x1="1.04" y1="1" x2="74.48" y2="1"/></g><g><line class="cls-11" x1="-73" y1="71" x2=".44" y2="71"/><line class="cls-11" x1="-73" y1="67" x2=".44" y2="67"/><line class="cls-11" x1="-73" y1="63" x2=".44" y2="63"/><line class="cls-11" x1="-73" y1="59" x2=".44" y2="59"/><line class="cls-11" x1="-73" y1="55" x2=".44" y2="55"/><line class="cls-11" x1="-73" y1="51" x2=".44" y2="51"/><line class="cls-11" x1="-73" y1="47" x2=".44" y2="47"/><line class="cls-11" x1="-73" y1="43" x2=".44" y2="43"/><line class="cls-11" x1="-73" y1="39" x2=".44" y2="39"/><line class="cls-11" x1="-73" y1="35" x2=".44" y2="35"/><line class="cls-11" x1="-73" y1="31" x2=".44" y2="31"/><line class="cls-11" x1="-73" y1="27" x2=".44" y2="27"/><line class="cls-11" x1="-73" y1="23" x2=".44" y2="23"/><line class="cls-11" x1="-73" y1="19" x2=".44" y2="19"/><line class="cls-11" x1="-73" y1="15" x2=".44" y2="15"/><line class="cls-11" x1="-73" y1="11" x2=".44" y2="11"/><line class="cls-11" x1="-73" y1="7" x2=".44" y2="7"/><line class="cls-11" x1="-73" y1="3" x2=".44" y2="3"/><line class="cls-11" x1="-70.96" y1="69" x2="2.48" y2="69"/><line class="cls-11" x1="-70.96" y1="65" x2="2.48" y2="65"/><line class="cls-11" x1="-70.96" y1="61" x2="2.48" y2="61"/><line class="cls-11" x1="-70.96" y1="57" x2="2.48" y2="57"/><line class="cls-11" x1="-70.96" y1="53" x2="2.48" y2="53"/><line class="cls-11" x1="-70.96" y1="49" x2="2.48" y2="49"/><line class="cls-11" x1="-70.96" y1="45" x2="2.48" y2="45"/><line class="cls-11" x1="-70.96" y1="41" x2="2.48" y2="41"/><line class="cls-11" x1="-70.96" y1="37" x2="2.48" y2="37"/><line class="cls-11" x1="-70.96" y1="33" x2="2.48" y2="33"/><line class="cls-11" x1="-70.96" y1="29" x2="2.48" y2="29"/><line class="cls-11" x1="-70.96" y1="25" x2="2.48" y2="25"/><line class="cls-11" x1="-70.96" y1="21" x2="2.48" y2="21"/><line class="cls-11" x1="-70.96" y1="17" x2="2.48" y2="17"/><line class="cls-11" x1="-70.96" y1="13" x2="2.48" y2="13"/><line class="cls-11" x1="-70.96" y1="9" x2="2.48" y2="9"/><line class="cls-11" x1="-70.96" y1="5" x2="2.48" y2="5"/><line class="cls-11" x1="-70.96" y1="1" x2="2.48" y2="1"/></g></g></pattern></defs><g id="BG"><g><path class="cls-6" d="M64.02,40c0,11.47-1.89,22.39-5.5,31.74-7.2,2.16-14.94,3.26-23.02,3.26-.49,0-.98-.01-1.47-.02h-.17c-8.18-.15-16.29-1.47-23.6-3.85-3.45-9.22-5.26-19.93-5.26-31.13s1.89-22.38,5.48-31.73c6.73-2.01,14.13-3.13,21.6-3.26,.48-.01,.97-.01,1.45-.01,.54,0,1.08,.01,1.63,.02,8.16,.15,16.27,1.47,23.59,3.84,3.46,9.24,5.27,19.95,5.27,31.14Z"/><path class="cls-13" d="M34.03,5.59V74.98h-.17c-8.18-.15-16.29-1.47-23.6-3.85-3.45-9.22-5.26-19.93-5.26-31.13s1.89-22.38,5.48-31.73c6.73-2.01,14.13-3.13,21.6-3.26,.65,.16,1.3,.36,1.95,.58Z"/></g></g><g id="Characters"><g><path class="cls-4" d="M28.47,23.25s-6.09,4.78-7.05,13.83c-.43,6.52,.52,11.31,3.13,14.35l1.91,2s1.04,5.22,.09,7.39-3.22,3.48-7.57,4.61-10.53,3.91-10.53,3.91l1.04,5.05,24.36,2.87,25.31-3.74-.96-5.31s-7.83-2.78-11.22-3.65c-4-1.39-4.78-3.22-4.87-5.22s0-6.26,0-6.26c0,0,4-3.57,4.87-5.74s3.04-11.83-.52-19.05c-3.74-7.13-13.22-8.96-18.01-5.05Z"/><path class="cls-1" d="M34.17,26.09v30.51s4.05,.21,8.64-3.94c5.36-5.14,7.11-10.93,7.11-16.4s-9.08-14.98-15.75-10.17Z"/><path d="M22.74,48.46s-13.43,.1-13.43-7.77,5.45-19.89,14.94-24.94c9.19-4.85,19.49-1.72,23.12,1.51s11.61,12.72,12.32,20.7c.61,7.98-6.56,11.11-13.73,10.5-2.32-.4-3.43-1.51-3.43-1.51,0,0,4.14-1.31,4.95-6.16s-1.11-9.29-2.52-12.12c-1.31,2.73-1.92,3.84-1.92,3.84,0,0-2.63-10.1-8.58-8.38-2.52-.81-6.16,.3-8.89,8.38-1.01-2.32-1.62-3.13-1.62-3.13,0,0-2.63,5.35-2.63,9.59s3.33,6.66,5.55,7.77c-1.62,1.41-4.14,1.72-4.14,1.72Z"/><path class="cls-15" d="M39.75,25.47s5.13,1.37,4.1-1.94c1.94,1.71,1.71,3.65,.46,5.13-.46-1.14-2.51-1.6-3.19-1.25-.68-1.25-1.37-1.94-1.37-1.94Z"/><path class="cls-15" d="M46.66,31.19s8.55-.46,7.52-4.45c4.79,3.42,4.79,11.29,4.56,13.34-1.48-3.88-7.98-5.02-10.49-3.42-.11-2.62-1.6-5.47-1.6-5.47Z"/><path class="cls-15" d="M21.93,32.52s-8.96,.63-8.75-4.06c-3.02,4.69-2.92,8.33-2.92,8.33,0,0,5.94-4.27,10.52,.52,.1-3.13,1.15-4.79,1.15-4.79Z"/><path class="cls-15" d="M24.84,30.23s-1.56-3.96-1.15-6.35c1.25,1.98,4.58,1.77,6.15,.94-3.13,3.23-2.6,3.96-2.6,3.96,0,0-1.46,0-2.4,1.46Z"/><path class="cls-3" d="M22.56,37.65s3.8-1.83,7.41,.7c-1.67,4.23-6.91,4.34-7.41-.7Z"/><path class="cls-3" d="M45.81,37.65s-3.8-1.83-7.41,.7c1.67,4.23,6.91,4.34,7.41-.7Z"/><path class="cls-2" d="M30.9,50.05s2.29-1.07,3.56-.81,2.54,1.02,2.54,1.02c0,0-1.22,1.63-3.15,1.58s-2.95-1.78-2.95-1.78Z"/><path d="M42.04,53.45s-3.99,3.41-7.79,3.15c-3.93-.26-7.21-3.28-7.21-3.28l-.45,7.21s-.71,2.83-3.93,3.86-13.71,4.57-13.71,4.57l.19,2.06,13.58,3.73,19.11-18.53,.19-2.77Z"/><path class="cls-1" d="M24.31,42.78s2.69,1.35,5.86-1.51c-1.9,4.67-4.67,3.72-5.86,1.51Z"/><path class="cls-1" d="M22.88,76.78s27.12,.81,36.08-4.56c-.41-1.55-.16-2.69-.16-2.69,0,0-3.18-2.93-8.8-4.24-6.11-1.55-8.39-3.99-7.98-7.33-.57,.41-19.14,18.81-19.14,18.81Z"/><path class="cls-4" d="M37.76,38.27l-.08-3.15s3.64-1.54,6.15-1.29c2.51,.32,2.91,.49,2.91,.49l-.93,3.35s-3.76-1.57-8.05,.62Z"/><path class="cls-1" d="M10.67,69.04c4.87-1.46,9.83-2.78,14.48-4.88,2.87-1.48,2.76-5.38,2.6-8.18,0,0,.07,0,.07,0,.52,2.66,.76,6.39-1.64,8.35-2.9,1.8-6.25,2.59-9.47,3.53-1.71,.35-4.41,1.2-6.04,1.19h0Z"/><path class="cls-4" d="M35.48,25.56c3.02,0,5.05,4.7,6.39,7.8,.17,.4,.34,.78,.49,1.12l1.04,2.31,.82-2.39c.23-.68,.46-1.33,.68-1.94,.78,2.12,1.53,5.04,1.07,7.68-.79,4.46-4,5.17-4.15,5.21l-1.26,.26-2.53,.52,2.22,1.32,1.11,.66h0c.2,.12,1.09,.61,2.5,1.05-.93,1.19-2.66,3.06-5.38,4.78-1.22,.77-2.63,1.18-4.1,1.18s-2.88-.41-4.11-1.18c-2.69-1.69-4.41-3.56-5.33-4.73,1.68-.5,2.68-1.1,2.68-1.1h0s1.1-.66,1.1-.66l2.2-1.32-2.51-.52-1.27-.26c-.14-.03-3.34-.75-4.13-5.2-.44-2.5,.12-5.06,.77-6.95,.14,.39,.27,.79,.4,1.19l.8,2.48,1.07-2.38c.15-.34,.31-.72,.49-1.12,1.34-3.11,3.36-7.81,6.39-7.81,.24,0,.5,.03,.76,.09,.16,.06,.32,.09,.49,.09,.08,0,.14,0,.2-.02h.35s.09-.1,.09-.1c.22-.04,.43-.07,.64-.07m0-1c-.37,0-.75,.05-1.15,.16,0,0,0,0,0,0,0,0,0,0-.01,0-.04,.01-.08,.02-.12,.02-.07,0-.12-.01-.18-.04-.37-.09-.73-.14-1.07-.14-4.13,0-6.36,6.32-7.79,9.52-.39-1.21-.84-2.42-1.3-3.62-.84,1.71-2.53,5.8-1.81,9.86,.91,5.12,4.76,5.98,4.92,6.01l1.26,.26-1.1,.66s-1.51,.88-3.83,1.34c.41,.68,2.38,3.62,6.46,6.19,1.41,.89,3.02,1.34,4.64,1.34s3.23-.45,4.63-1.34c4.19-2.65,6.14-5.65,6.49-6.22-2.21-.48-3.61-1.29-3.64-1.31l-1.11-.66,1.26-.26c.17-.03,4.02-.89,4.93-6.01,.71-4.06-1.17-8.6-2.11-10.54-.56,1.42-1.08,2.87-1.57,4.3-1.43-3.19-3.67-9.52-7.79-9.52h0Z"/><path class="cls-2" d="M40.93,62.05l-7.09,6.69s6.12-1.93,9.51-3.87c-1.45-1.29-2.42-2.82-2.42-2.82Z"/><path class="cls-2" d="M37.46,40.46s1.98,3.22,5.69,2.15c-3.88,2.89-5.69-.08-5.69-2.15Z"/><path d="M34.03,24.7c-4.83-1.22-7.32,5.91-8.87,9.38-.75-2.35-1.73-4.66-2.61-6.94-.4-2.89,2.44-4.84,4.69-5.88-1.7,1.39-4.1,3.29-3.75,5.65,.78,1.75,1.59,3.58,2.25,5.39,0,0-1.06-.02-1.06-.02,1.37-3.11,2.81-6.7,6.03-8.36,1.16-.5,2.45-.6,3.69-.15,.26,.09,.39,.38,.3,.64-.1,.27-.41,.39-.67,.29h0Z"/><path d="M34.03,23.78c5.28-1.66,8.07,4.62,9.72,8.51,0,0-1.06,.02-1.06,.02,.65-1.82,1.47-3.64,2.25-5.39,.28-1.23-.48-2.38-1.3-3.4-.71-.83-1.55-1.56-2.45-2.25,1.04,.45,2.02,1.05,2.88,1.83,1.31,1.08,2.52,3.19,1.49,4.92-.87,1.95-1.59,4.04-2.29,6.07-1.56-3.48-4.07-10.67-8.93-9.36-.6,.18-.9-.73-.31-.95h0Z"/><path class="cls-8" d="M23.87,29.37s-3.29,5.49-2.31,11.04c.98,5.55,5.32,6.41,5.32,6.41,0,0-6.76,4.05-14.22-.81s0-20.23,6.24-26.35,12.54-5.95,15.6-5.95"/><path class="cls-8" d="M44.79,28.56s3.64,6.3,2.66,11.85-5.32,6.41-5.32,6.41c0,0,6.76,4.05,14.22-.81s0-20.23-6.24-26.35c-6.24-6.13-12.54-5.95-15.6-5.95"/><path class="cls-8" d="M46.02,48.69s-1.93,3.48-6.72,6.51c-2.99,1.89-6.81,1.89-9.8,0-4.8-3.03-6.73-6.51-6.73-6.51"/><path d="M31.01,35.18c-2.99-.88-5.89-1.33-8.98-.87,2.66-1.27,7.01-1.83,8.98,.87h0Z"/><path d="M37.71,35.18c.92-1.46,2.75-1.82,4.34-1.9,1.61-.04,3.21,.32,4.64,1.03-.4-.02-.79-.06-1.17-.1-2.61-.32-5.31,.26-7.81,.97h0Z"/><path class="cls-8" d="M26.77,53.19v5.8c0,2.4-1.59,4.51-3.89,5.16-3.72,1.05-9.45,2.85-14.2,5.09"/><path class="cls-8" d="M42.12,53.19v5.8c0,2.4,1.59,4.51,3.89,5.16,3.72,1.05,9.45,2.85,14.2,5.09"/><path d="M29.85,50.56c2.13-3.58,6.44-3.53,8.6,0-1.48-.25-2.96-.89-4.32-.97-1.35,.03-2.83,.69-4.28,.97h0Z"/><path d="M31.46,49.8s1.21,1.24,2.7,1.24,2.78-1.27,2.78-1.27l1.13,.66s-1.16,2.48-3.99,2.48-3.8-2.64-3.8-2.64l1.18-.47Z"/><path d="M36.67,43.24c1.42,1.41-1,2.94-2.36,2.83-1.33,.15-3.78-1.15-2.66-2.68-.12,.74,.38,1.14,.89,1.37,1.2,.56,4.61,.5,4.12-1.53h0Z"/><path d="M22.83,37.55c2.42-1.48,5.71-1.29,7.86,.6,0,0-.16,.35-.16,.35-.97,2.61-3.95,4.93-6.43,2.58-.64-.63-1.07-1.4-1.32-2.21,1.22,2.1,3.81,3.4,5.61,1.22,.5-.58,.89-1.27,1.25-1.98l.14,.58c-1.93-1.6-4.56-1.8-6.95-1.14h0Z"/><path d="M45.59,37.55c-2.39-.66-5.02-.47-6.95,1.14,0,0,.14-.58,.14-.58,.36,.71,.74,1.41,1.25,1.99,1.8,2.18,4.39,.88,5.61-1.22-.25,.81-.69,1.58-1.32,2.21-2.47,2.35-5.46,.03-6.43-2.58,0,0-.16-.35-.16-.35,2.15-1.89,5.44-2.08,7.86-.6h0Z"/><path d="M19.73,65.26s-1.05,4.41,.14,8.6c-2.24-.21-2.87-.35-2.87-.35,0,0-.56-4.55,.63-7.69,1.47-.49,2.1-.56,2.1-.56Z"/><path d="M49.24,65.26s1.05,4.41-.14,8.6c2.24-.21,2.87-.35,2.87-.35,0,0,.56-4.55-.63-7.69-1.47-.49-2.1-.56-2.1-.56Z"/><path d="M46.14,67.54c-3.13,1.48-6.36,2.68-9.77,3.37,0,0,.37-.3,.37-.3-.35,1.01-1.4,1.62-2.41,1.73-1.01-.11-2.07-.72-2.42-1.73,0,0,.37,.3,.37,.3-3.4-.69-6.64-1.9-9.76-3.37,0,0,4.96,1.34,4.96,1.34,1.75,.44,3.48,.86,5.24,1.14,.2,.76,.83,1.24,1.69,1.33,0,0-.14,0-.14,0,.85-.1,1.48-.58,1.68-1.33,3.03-.46,7.2-1.67,10.2-2.47h0Z"/></g></g><g id="Frame"><path class="cls-5" d="M62.56,4.88C54.4,1.94,45.12,.2,35.25,.02c-.57-.01-1.15-.02-1.72-.02C23.88,0,14.77,1.52,6.72,4.21,2.49,14.22,0,26.6,0,40s2.39,25.22,6.45,35.11c8.16,2.94,17.45,4.69,27.32,4.87,.58,.01,1.15,.02,1.73,.02,9.63,0,18.73-1.51,26.78-4.2,4.24-10.01,6.74-22.39,6.74-35.8s-2.4-25.24-6.46-35.12Zm-4.04,66.86c-7.2,2.16-14.94,3.26-23.02,3.26-.49,0-.98-.01-1.47-.02h-.17c-8.18-.15-16.29-1.47-23.6-3.85-3.45-9.22-5.26-19.93-5.26-31.13s1.89-22.38,5.48-31.73c6.73-2.01,14.13-3.13,21.6-3.26,.48-.01,.97-.01,1.45-.01,.54,0,1.08,.01,1.63,.02,8.16,.15,16.27,1.47,23.59,3.84,3.46,9.24,5.27,19.95,5.27,31.14s-1.89,22.39-5.5,31.74Z"/><path class="cls-12" d="M17.21,2.06h0c1.63,.63,2.06,2.75,.81,3.97l-1.26,1.22s8.35-2.37,18.84-1.69h0c-1-1.49-.45-3.52,1.14-4.34l1-.51S28.26-.43,17.21,2.06Z"/><path class="cls-14" d="M21.81,1.66s.7,2.18-.22,3.1c3.77-.41,7.98-.74,11.12-.74-.33-1.33,1.26-3.4,1.26-3.4,0,0-6.17-.26-12.16,1.03Z"/><path class="cls-12" d="M36.25,79.21h0c-1.52-.87-1.62-3.03-.2-4.04l1.43-1.02s-8.61,1.07-18.88-1.19h0c.76,1.63-.09,3.55-1.79,4.11l-1.07,.36s9.19,2.56,20.5,1.78Z"/><path class="cls-14" d="M19.28,77.8s1.76-1.83,1.3-3.09c4.43,.69,9.11,1.14,12.25,1.14-.33,1.33,.44,3.4,.44,3.4,0,0-8-.16-13.99-1.45Z"/><polygon points="47.48 1.77 47.48 6.73 54.49 8.44 54.49 2.62 47.48 1.77"/><line class="cls-7" x1="45.5" y1="1.23" x2="45.5" y2="6.29"/><line class="cls-7" x1="56.47" y1="3.67" x2="56.47" y2="8.73"/><polygon points="47.48 78.74 47.48 73.78 54.49 72.07 54.49 77.88 47.48 78.74"/><line class="cls-7" x1="45.5" y1="79.28" x2="45.5" y2="74.21"/><line class="cls-7" x1="56.47" y1="76.84" x2="56.47" y2="71.77"/><path d="M33.53,1c.56,0,1.14,0,1.7,.02,9.39,.17,18.33,1.74,26.57,4.65,4.07,10.08,6.22,21.94,6.22,34.33s-2.24,24.79-6.49,34.99c-8.12,2.66-16.87,4.01-26.03,4.01-.56,0-1.12,0-1.71-.02-9.25-.17-18.42-1.78-26.58-4.66C3.15,64.25,1,52.39,1,40S3.23,15.21,7.47,5.02C15.6,2.35,24.37,1,33.53,1m0-1C23.88,0,14.77,1.52,6.72,4.21,2.49,14.22,0,26.6,0,40s2.39,25.22,6.45,35.11c8.16,2.94,17.45,4.69,27.32,4.87,.58,.01,1.15,.02,1.73,.02,9.63,0,18.73-1.51,26.78-4.2,4.24-10.01,6.74-22.39,6.74-35.8s-2.4-25.24-6.46-35.12C54.4,1.94,45.12,.2,35.25,.02c-.57,0-1.15-.02-1.72-.02h0Z"/><path class="cls-12" d="M33.53,6c.52,0,1.04,0,1.61,.02,7.87,.14,15.75,1.4,22.84,3.64,3.3,9,5.04,19.47,5.04,30.34s-1.82,21.82-5.26,30.92c-6.98,2.04-14.47,3.08-22.26,3.08-.48,0-.97,0-1.47-.02h-.15c-7.89-.14-15.78-1.41-22.85-3.65-3.29-8.99-5.03-19.46-5.03-30.33s1.81-21.79,5.24-30.91c6.5-1.89,13.7-2.95,20.86-3.08,.47,0,.96,0,1.43,0m0-1c-.48,0-.97,0-1.45,.01-7.47,.13-14.87,1.25-21.6,3.26-3.59,9.35-5.48,20.26-5.48,31.73s1.81,21.91,5.26,31.13c7.31,2.38,15.42,3.7,23.6,3.85h.17c.49,.01,.98,.02,1.47,.02,8.08,0,15.82-1.1,23.02-3.26,3.61-9.35,5.5-20.27,5.5-31.74s-1.81-21.9-5.27-31.14c-7.32-2.37-15.43-3.69-23.59-3.84-.55,0-1.09-.02-1.63-.02h0Z"/><path d="M33.53,5c.54,0,1.08,.01,1.63,.02,8.16,.15,16.27,1.47,23.59,3.84,3.46,9.24,5.27,19.95,5.27,31.14s-1.89,22.39-5.5,31.74c-7.2,2.16-14.94,3.26-23.02,3.26-.49,0-.98-.01-1.47-.02h-.17c-8.18-.15-16.29-1.47-23.6-3.85-3.45-9.22-5.26-19.93-5.26-31.13s1.89-22.38,5.48-31.73c6.73-2.01,14.13-3.13,21.6-3.26,.48-.01,.97-.01,1.45-.01m0-1c-.49,0-.98,0-1.47,.01-7.51,.13-15.07,1.27-21.87,3.3l-.47,.14-.18,.46c-3.63,9.45-5.55,20.55-5.55,32.09s1.84,22.17,5.32,31.48l.17,.45,.46,.15c7.37,2.4,15.63,3.75,23.89,3.9h.19c.48,.01,.97,.02,1.47,.02,8.16,0,16-1.11,23.31-3.3l.47-.14,.18-.46c3.64-9.43,5.57-20.53,5.57-32.1s-1.84-22.17-5.33-31.49l-.17-.45-.46-.15c-7.39-2.39-15.65-3.74-23.88-3.89-.58-.01-1.12-.02-1.65-.02h0Z"/><path class="cls-9" d="M8.14,7.1s-12.66,32.94,0,66.06"/><path class="cls-9" d="M60.88,7.58s12.66,32.94,0,66.06"/></g></svg>