<?xml version="1.0" encoding="UTF-8"?><svg id="Capa_2" xmlns="http://www.w3.org/2000/svg" xmlns:xlink="http://www.w3.org/1999/xlink" viewBox="0 0 69.02 80"><defs><style>.cls-1{fill:#c89aed;}.cls-2{fill:#fff;}.cls-3{fill:#f8ffbf;}.cls-4{fill:#7b7be8;}.cls-5{fill:#a88347;}.cls-6{fill:#782ab5;}.cls-7,.cls-8,.cls-9,.cls-10,.cls-11,.cls-12{fill:none;}.cls-7,.cls-9,.cls-12{stroke:#000;stroke-miterlimit:10;}.cls-13{fill:#1c46ff;}.cls-8{stroke:#deb778;stroke-dasharray:0 0 0 4.06;stroke-linecap:round;stroke-linejoin:round;}.cls-14{fill:#deb778;}.cls-9{stroke-width:.97px;}.cls-15{fill:url(#USGS_19_Inundación_de_tierra_2);}.cls-11{stroke:#1d1d1b;stroke-dasharray:0 0 2 2;stroke-width:.3px;}.cls-16{fill:#cf5f2b;}.cls-12{stroke-width:1.12px;}.cls-17{fill:#fcf0c5;}.cls-18{fill:#b83521;}</style><pattern id="USGS_19_Inundación_de_tierra_2" x="0" y="0" width="72" height="72" patternTransform="translate(267.52 -16135) rotate(-90)" patternUnits="userSpaceOnUse" viewBox="0 0 72 72"><g><rect class="cls-10" width="72" height="72"/><g><line class="cls-11" x1="71" y1="71" x2="144.44" y2="71"/><line class="cls-11" x1="71" y1="67" x2="144.44" y2="67"/><line class="cls-11" x1="71" y1="63" x2="144.44" y2="63"/><line class="cls-11" x1="71" y1="59" x2="144.44" y2="59"/><line class="cls-11" x1="71" y1="55" x2="144.44" y2="55"/><line class="cls-11" x1="71" y1="51" x2="144.44" y2="51"/><line class="cls-11" x1="71" y1="47" x2="144.44" y2="47"/><line class="cls-11" x1="71" y1="43" x2="144.44" y2="43"/><line class="cls-11" x1="71" y1="39" x2="144.44" y2="39"/><line class="cls-11" x1="71" y1="35" x2="144.44" y2="35"/><line class="cls-11" x1="71" y1="31" x2="144.44" y2="31"/><line class="cls-11" x1="71" y1="27" x2="144.44" y2="27"/><line class="cls-11" x1="71" y1="23" x2="144.44" y2="23"/><line class="cls-11" x1="71" y1="19" x2="144.44" y2="19"/><line class="cls-11" x1="71" y1="15" x2="144.44" y2="15"/><line class="cls-11" x1="71" y1="11" x2="144.44" y2="11"/><line class="cls-11" x1="71" y1="7" x2="144.44" y2="7"/><line class="cls-11" x1="71" y1="3" x2="144.44" y2="3"/></g><g><line class="cls-11" x1="-1" y1="71" x2="72.44" y2="71"/><line class="cls-11" x1="-1" y1="67" x2="72.44" y2="67"/><line class="cls-11" x1="-1" y1="63" x2="72.44" y2="63"/><line class="cls-11" x1="-1" y1="59" x2="72.44" y2="59"/><line class="cls-11" x1="-1" y1="55" x2="72.44" y2="55"/><line class="cls-11" x1="-1" y1="51" x2="72.44" y2="51"/><line class="cls-11" x1="-1" y1="47" x2="72.44" y2="47"/><line class="cls-11" x1="-1" y1="43" x2="72.44" y2="43"/><line class="cls-11" x1="-1" y1="39" x2="72.44" y2="39"/><line class="cls-11" x1="-1" y1="35" x2="72.44" y2="35"/><line class="cls-11" x1="-1" y1="31" x2="72.44" y2="31"/><line class="cls-11" x1="-1" y1="27" x2="72.44" y2="27"/><line class="cls-11" x1="-1" y1="23" x2="72.44" y2="23"/><line class="cls-11" x1="-1" y1="19" x2="72.44" y2="19"/><line class="cls-11" x1="-1" y1="15" x2="72.44" y2="15"/><line class="cls-11" x1="-1" y1="11" x2="72.44" y2="11"/><line class="cls-11" x1="-1" y1="7" x2="72.44" y2="7"/><line class="cls-11" x1="-1" y1="3" x2="72.44" y2="3"/><line class="cls-11" x1="1.04" y1="69" x2="74.48" y2="69"/><line class="cls-11" x1="1.04" y1="65" x2="74.48" y2="65"/><line class="cls-11" x1="1.04" y1="61" x2="74.48" y2="61"/><line class="cls-11" x1="1.04" y1="57" x2="74.48" y2="57"/><line class="cls-11" x1="1.04" y1="53" x2="74.48" y2="53"/><line class="cls-11" x1="1.04" y1="49" x2="74.48" y2="49"/><line class="cls-11" x1="1.04" y1="45" x2="74.48" y2="45"/><line class="cls-11" x1="1.04" y1="41" x2="74.48" y2="41"/><line class="cls-11" x1="1.04" y1="37" x2="74.48" y2="37"/><line class="cls-11" x1="1.04" y1="33" x2="74.48" y2="33"/><line class="cls-11" x1="1.04" y1="29" x2="74.48" y2="29"/><line class="cls-11" x1="1.04" y1="25" x2="74.48" y2="25"/><line class="cls-11" x1="1.04" y1="21" x2="74.48" y2="21"/><line class="cls-11" x1="1.04" y1="17" x2="74.48" y2="17"/><line class="cls-11" x1="1.04" y1="13" x2="74.48" y2="13"/><line class="cls-11" x1="1.04" y1="9" x2="74.48" y2="9"/><line class="cls-11" x1="1.04" y1="5" x2="74.48" y2="5"/><line class="cls-11" x1="1.04" y1="1" x2="74.48" y2="1"/></g><g><line class="cls-11" x1="-73" y1="71" x2=".44" y2="71"/><line class="cls-11" x1="-73" y1="67" x2=".44" y2="67"/><line class="cls-11" x1="-73" y1="63" x2=".44" y2="63"/><line class="cls-11" x1="-73" y1="59" x2=".44" y2="59"/><line class="cls-11" x1="-73" y1="55" x2=".44" y2="55"/><line class="cls-11" x1="-73" y1="51" x2=".44" y2="51"/><line class="cls-11" x1="-73" y1="47" x2=".44" y2="47"/><line class="cls-11" x1="-73" y1="43" x2=".44" y2="43"/><line class="cls-11" x1="-73" y1="39" x2=".44" y2="39"/><line class="cls-11" x1="-73" y1="35" x2=".44" y2="35"/><line class="cls-11" x1="-73" y1="31" x2=".44" y2="31"/><line class="cls-11" x1="-73" y1="27" x2=".44" y2="27"/><line class="cls-11" x1="-73" y1="23" x2=".44" y2="23"/><line class="cls-11" x1="-73" y1="19" x2=".44" y2="19"/><line class="cls-11" x1="-73" y1="15" x2=".44" y2="15"/><line class="cls-11" x1="-73" y1="11" x2=".44" y2="11"/><line class="cls-11" x1="-73" y1="7" x2=".44" y2="7"/><line class="cls-11" x1="-73" y1="3" x2=".44" y2="3"/><line class="cls-11" x1="-70.96" y1="69" x2="2.48" y2="69"/><line class="cls-11" x1="-70.96" y1="65" x2="2.48" y2="65"/><line class="cls-11" x1="-70.96" y1="61" x2="2.48" y2="61"/><line class="cls-11" x1="-70.96" y1="57" x2="2.48" y2="57"/><line class="cls-11" x1="-70.96" y1="53" x2="2.48" y2="53"/><line class="cls-11" x1="-70.96" y1="49" x2="2.48" y2="49"/><line class="cls-11" x1="-70.96" y1="45" x2="2.48" y2="45"/><line class="cls-11" x1="-70.96" y1="41" x2="2.48" y2="41"/><line class="cls-11" x1="-70.96" y1="37" x2="2.48" y2="37"/><line class="cls-11" x1="-70.96" y1="33" x2="2.48" y2="33"/><line class="cls-11" x1="-70.96" y1="29" x2="2.48" y2="29"/><line class="cls-11" x1="-70.96" y1="25" x2="2.48" y2="25"/><line class="cls-11" x1="-70.96" y1="21" x2="2.48" y2="21"/><line class="cls-11" x1="-70.96" y1="17" x2="2.48" y2="17"/><line class="cls-11" x1="-70.96" y1="13" x2="2.48" y2="13"/><line class="cls-11" x1="-70.96" y1="9" x2="2.48" y2="9"/><line class="cls-11" x1="-70.96" y1="5" x2="2.48" y2="5"/><line class="cls-11" x1="-70.96" y1="1" x2="2.48" y2="1"/></g></g></pattern></defs><g id="BG"><g><path class="cls-6" d="M64.02,40c0,11.47-1.89,22.39-5.5,31.74-7.2,2.16-14.94,3.26-23.02,3.26-.49,0-.98-.01-1.47-.02h-.17c-8.18-.15-16.29-1.47-23.6-3.85-3.45-9.22-5.26-19.93-5.26-31.13s1.89-22.38,5.48-31.73c6.73-2.01,14.13-3.13,21.6-3.26,.48-.01,.97-.01,1.45-.01,.54,0,1.08,.01,1.63,.02,8.16,.15,16.27,1.47,23.59,3.84,3.46,9.24,5.27,19.95,5.27,31.14Z"/><path class="cls-15" d="M34.03,5.59V74.98h-.17c-8.18-.15-16.29-1.47-23.6-3.85-3.45-9.22-5.26-19.93-5.26-31.13s1.89-22.38,5.48-31.73c6.73-2.01,14.13-3.13,21.6-3.26,.65,.16,1.3,.36,1.95,.58Z"/></g></g><g id="Characters"><g><path class="cls-1" d="M62.02,66.19l-1.69,8.73-25.44,3.29-25.26-5.26-.56-7.23,17.27-6.2,.94-8.35s-4.69-5.17-6.1-9.3c-2.08,.69-3.37-5.68-3.55-6.64-.01-.08-.02-.12-.02-.12,0,0-2.91-3.09-2.72-5.91-3.01-2.35-2.44-6.1-2.44-6.57-1.51-1.97-1.51-3.1-1.51-3.1,0,0,2.54,.84,9.3-4.23,7.6-5.63,15.68-6.19,20.09-4.13,6.2-2.81,9.2,2.07,10.33,4.79,7.04,1.97,6.38,8.73,6.01,10.61-.38,1.88-1.04,5.26-.57,6.95-1.87,.19-1.87-.19-1.87-.19l-.94,1.41v.2c.01,.73,.02,3.19-.38,4.3-.47,1.32-2.25,2.73-2.91,2.73-1.03,3.1-6.1,9.67-6.1,9.67l.94,7.98,17.18,6.57Z"/><path class="cls-2" d="M36.04,52.04V26.17c0-2.72,2.35-4.99,5.05-4.61,.77,.11,1.51,.42,2.08,1.07,4.57-1.74,6.24,3,5.27,6.43,2.37-.26,2.9-1.14,2.9-1.14,0,0,.88,5.63-.09,9.14s-2.11,8.17-5.89,12.22c-1.57,2.05-2.83,3.7-3.97,4.93-1.91,2.05-5.35,.63-5.35-2.17Z"/><path class="cls-4" d="M32.73,33.44s-.24,4.94-.73,5.99c-2.99-1.3-8.47-1.78-8.47-1.78,0,0-1.03-3.47-.88-4.6,3.82-.69,8.17-.44,10.08,.39Z"/><path class="cls-18" d="M56.67,26.57c-.38,1.88-1.04,5.26-.57,6.95-1.87,.19-1.87-.19-1.87-.19l-.94,1.41v.2c-.31-.88-.92-2.11-1.81-2.06,.31-3.16-.54-4.63-.54-4.63l-3.32,1.85s1.62-2.23,.7-5.7c-1.47-3.16-5.16-1.77-5.16-1.77,0,0-3.78-2.47-7.63,.85-5.09,4.7-8.32,7.62-11.33,6.62,1.52-2.02,1.95-2.76,1.99-2.84-.23,.11-4.14,2-6.38,1.84-.08,1.16-.16,3.01-.16,3.01,0,0-1.61,3.08-1.69,3.39-.11-.1-.22-.19-.33-.27-.01-.08-.02-.12-.02-.12,0,0-2.91-3.09-2.72-5.91-3.01-2.35-2.44-6.1-2.44-6.57-1.51-1.97-1.51-3.1-1.51-3.1,0,0,2.54,.84,9.3-4.23,7.6-5.63,15.68-6.19,20.09-4.13,6.2-2.81,9.2,2.07,10.33,4.79,7.04,1.97,6.38,8.73,6.01,10.61Z"/><path class="cls-3" d="M32,39.43s.14-3.22-2.4-3.56c-2.67-.34-5.34,1.92-5.34,1.92,0,0,1.92,2.26,7.74,1.64Z"/><path class="cls-3" d="M39.79,39.38s-.39-3.17,2.14-3.51c2.67-.34,5.34,1.92,5.34,1.92,0,0-1.66,2.21-7.48,1.59Z"/><path class="cls-2" d="M32.34,48.25s3.04-2.28,6.61-.15c-2.66,2.58-5.62,1.67-6.61,.15Z"/><path d="M48.21,61.08s-1.52,4.79-9.21,5.85-13.66-1.07-15.8-5.87c-10.25,3.42-16.01,5.76-16.01,5.76l2.99,7.68,35.54,2.13,14.73-3.52-.11-8.11-12.14-3.93Z"/><path class="cls-13" d="M48.21,61.08s-4.24,7.75-15.16,5.98c5.84,4.74,12.1,9.93,12.1,9.93l14.02-5.12,1.45-6.31-12.41-4.48Z"/><path d="M43.83,52.25l-20.62,21.86-13.3-2.78-.84-5.61,17.64-6.04,.93-8.25s3.51,4.33,5.57,5.15,5.15,1.24,10.62-4.33Z"/><path d="M19.56,32.91s-1.69,1.37-1.61,3.05,1.63,5.72,3.23,5.91c-1.54-3.5-1.62-8.96-1.62-8.96Z"/><path d="M28.57,23.86s-12.14,7.16-15.98-.32c-1.09,3.96,2.3,5.66,2.3,5.66,0,0-.7,3.42,3.33,6.04,1.34-1.73,1.79-2.43,1.79-2.43l-.13-3.45s5.18-1.66,6.58-2.43c1.41-2.11,2.11-3.07,2.11-3.07Z"/><path d="M52.31,25.95s1.21,1.5,1.56,2.6c.69-2.37,.46-4.57,.46-4.57,0,0,1.79,2.31,1.73,4.33-.52,2.54,.03,5.2,.03,5.2l-1.87-.19-.82,1.11-1.73-1.73c-.52-2.54-.74-4.46-.74-4.46,0,0,.91-1.26,1.37-2.3Z"/><path class="cls-4" d="M39.04,33.69l.74,5.7s-.6-3.2,2.68-3.3,5.09,2.1,5.09,2.1c0,0,1.61-.54,1.52-5.09-3.77-1.42-9.25,.34-10.03,.59Z"/><path class="cls-2" d="M42.52,54.95l-9.9,10.51s9.29,1.83,13.83-3.8c-2.71-.81-3.25-1.15-3.25-1.15l-.68-5.56Z"/><path class="cls-1" d="M39.99,23.1c1.13,0,1.81,.6,1.98,.77l.34,.38,.63,.7,.74-.59,.41-.33h0s.39-.28,.84-.28c.04,0,.09,0,.14,0,.59,.06,1.11,.57,1.45,.99,1.43,1.79,.36,3.86,.07,4.34l-.93,1.41-1.7,2.59,2.89-1.1,1.56-.6s.65-.23,1.5-.72c.24,2.62,.2,7.06-1.78,11.84-1.19,2.86-4.13,6.71-8.75,11.42-1.01,1.03-2.36,1.6-3.8,1.6s-2.8-.57-3.81-1.59c-4.6-4.69-7.55-8.54-8.76-11.43-2.07-5-2-9.68-1.76-12.07,.33-.03,.67-.08,1.01-.14l-.74,1.01,1.67,.23,.95,.13c.37,.05,.74,.07,1.1,.07,3.4,0,5.76-2.18,8.26-4.49,.98-.91,2.1-1.94,3.38-2.89,1.12-.83,2.17-1.25,3.12-1.25m0-1c-.99,0-2.24,.35-3.72,1.45-1.28,.95-2.39,1.97-3.46,2.96-2.44,2.26-4.57,4.23-7.58,4.23-.31,0-.63-.02-.96-.07l-.94-.13,.56-.76c.32-.43,.61-.87,.9-1.3-1.38,.58-2.9,.99-4.37,.99-.02,0-.04,0-.05,0-.33,2.34-.66,7.66,1.73,13.42,1.25,2.99,4.26,6.95,8.97,11.75,1.2,1.22,2.8,1.89,4.52,1.89s3.32-.67,4.52-1.9c4.7-4.8,7.72-8.75,8.96-11.74,2.55-6.16,2-11.82,1.64-13.96-1.24,.99-2.51,1.48-2.6,1.51l-1.6,.61,.94-1.43c.07-.12,1.88-2.98-.14-5.5-.66-.82-1.38-1.28-2.12-1.36-.08,0-.17-.01-.24-.01-.85,0-1.47,.49-1.48,.5l-.41,.33-.36-.4c-.06-.06-1.02-1.08-2.71-1.08h0Z"/><path class="cls-16" d="M33.7,10.55s-9.4,.9-13.46,4.75c4.7-1.75,6.4-1.83,6.4-1.83,0,0-5.11,4.22,1.62,2.6-2.35,3.25,3.65-.32,6.57,2.92,2.11-.73,3.17-.32,3.17-.32,0,0-10.39-1.79-6.49-3.33,3.41-1.22,6.17-.57,6.17-.57,0,0-2.84-1.7-8.04-.08-4.63,1.38,1.95-3.49,4.06-4.14Z"/><path class="cls-16" d="M47.03,23s5.48,.25,2.95-2.53c3.37,1.69,2.53,5.03,1.94,6.24-.42-2.28-2.45-3.46-3.29-.93-.51-2.02-1.6-2.78-1.6-2.78"/><path class="cls-16" d="M38.88,18.67s-3.25,.99,.12,2.84c-2.96,.35-4.76,2.84-4.76,2.84,0,0,3.71-6.09-1.39-4.23,1.28-1.91,6.03-1.45,6.03-1.45Z"/><path class="cls-13" d="M27.94,54.44c.21,2,.28,4.01,.27,6.02-3.55,1.6-7.28,2.95-11,4.1-2.11,.59-4.42,1.26-6.59,1.62,0,0-.03-.09-.03-.09,5.53-1.98,11.54-4.35,16.85-6.09,0,0,.4-5.57,.4-5.57,0,0,.1,0,.1,0h0Z"/><path class="cls-2" d="M23.94,40.1s3.03,1.29,7.63,.46c-3.68,4.23-6.71,2.11-7.63-.46Z"/><path class="cls-12" d="M52.26,22.7c1.89,4.85-4.34,7.22-4.34,7.22,0,0,2.14-3.27-.17-6.15s-4.63-.96-4.63-.96c0,0-2.7-3.05-7.19,.28s-6.97,7.64-11.59,7.02c2.58-3.46,3.82-7.19,7.55-9.73s8.79-2.93,11.55,.09c4.31-2.04,7.99,.11,8.82,2.22Z"/><path d="M26.75,27.48c-2.9,1.74-7.29,3.1-10.15,.67,3.24,1.52,6.62-.39,9.59-1.64,0,0,.56,.97,.56,.97h0Z"/><path d="M44.98,13.93c-4.93-4-11.69-3.9-17.42-1.89-6.05,1.63-10.13,8.21-16.82,7.9,0,0,.44-.56,.44-.56,.29,1.18,.8,2.3,1.65,3.18,.85,.9,1.91,1.56,3.09,2.01-1.32,.07-2.66-.52-3.63-1.46-1.14-1.08-1.74-2.56-2.14-4.04,0,0,.6-.02,.6-.02,3.13,.01,5.82-1.39,8.24-3.29,2.47-1.89,5.21-3.66,8.23-4.68,5.74-2.14,13.58-2.29,17.76,2.87h0Z"/><path d="M12.69,22.77c-.4,2.96,1.34,5.76,3.84,7.27,2.49,1.34-.52,.3-1.44-.2-2.57-1.34-4.1-4.43-3.38-7.3,0,0,.97,.23,.97,.23h0Z"/><path class="cls-7" d="M17.97,35.55s-3.7-3.57-3.33-6.3"/><path class="cls-7" d="M40.24,10.87s8.13-3.01,10.08,4.87c6.24,.99,6.98,7.93,6.19,11.48s-.87,5.16-.33,6.48c-1.32,.08-1.94-.58-1.94-.58l-.87,1.56"/><path class="cls-7" d="M19.93,29.02c-.37,2.32-.84,7.93,1.71,14.06,1.5,3.61,5.32,8.07,9.07,11.91,2.68,2.73,7.08,2.73,9.75,0,3.76-3.83,7.57-8.3,9.07-11.9,3.34-8.05,1.49-15.19,1.49-15.19"/><path class="cls-7" d="M19.68,32.52s-2.29,1.03-1.43,4.63,1.6,5.03,3.09,5.15"/><path class="cls-7" d="M51.6,32.52s2.29,1.03,1.43,4.63-1.6,5.03-3.09,5.15"/><path d="M22.61,33.13c3.07-2.13,6.97-1.32,10.33-.47,0,0-.44,1.72-.44,1.72-3.27-.82-6.47-1.99-9.89-1.24h0Z"/><path d="M31.9,38.29c-1.12-3.31-5.42-1.85-7.4-.19,0,0,.09-.6,.09-.6,.49,.72,1.49,1.26,2.36,1.53,.99,.34,2.05,.46,3.11,.55-2.17,.48-4.83,.33-6.3-1.6,0,0-.22-.33-.22-.33,2.09-2.27,7.96-3.69,8.36,.63h0Z"/><path d="M49.09,33.13c-3.41-.75-6.62,.42-9.89,1.24,0,0-.44-1.72-.44-1.72,3.36-.85,7.26-1.66,10.33,.47h0Z"/><path d="M39.81,38.29c.41-4.32,6.27-2.9,8.36-.63,0,0-.22,.33-.22,.33-1.48,1.93-4.13,2.07-6.3,1.6,1.06-.09,2.11-.21,3.11-.55,.87-.27,1.87-.82,2.36-1.53,0,0,.09,.6,.09,.6-1.97-1.66-6.28-3.12-7.4,.2h0Z"/><path d="M38.44,41.11c1.44,.68,1.84,1.53,.43,2.57-.3,.24-.62,.45-.96,.64h-.13c-1.35,.03-2.75,.14-4.08-.04-.64-.4-1.22-.75-1.66-1.42-.13-.17-.16-.54-.04-.73,.28-.51,.76-.79,1.25-1.02-.31,.36-.67,.74-.78,1.19-.01,.14,0,.13,.07,.22,.38,.37,1.02,.69,1.57,.96l-.21-.05c1.29-.06,2.58-.06,3.87,0l-.21,.05c.55-.27,1.2-.59,1.57-.96,.08-.09,.09-.08,.07-.22-.11-.44-.48-.82-.78-1.19h0Z"/><path d="M31.54,48.71c1.79-2.75,6.7-2.71,8.45,.06-2.71-1.46-5.71-1.5-8.45-.06h0Z"/><path class="cls-9" d="M32.39,48.14s1.37,1.46,3.31,1.46c2.42,0,3.4-1.46,3.4-1.46"/><path d="M32.78,50.45c.7,1.04,1.84,1.06,2.97,1.05,1.08-.09,2.39,.13,3.05-.92,.11,2.54-6.2,2.56-6.02-.13h0Z"/><polyline class="cls-9" points="27.3 51.25 26.57 59.78 8.49 66.34"/><polyline class="cls-9" points="44.07 51.25 44.8 59.78 62.88 66.34"/><path class="cls-9" d="M23.14,61.1s2.36,5.96,12.64,5.96,12.24-5.89,12.24-5.89"/></g></g><g id="Frame"><path class="cls-5" d="M62.56,4.88C54.4,1.94,45.12,.2,35.25,.02c-.57-.01-1.15-.02-1.72-.02C23.88,0,14.77,1.52,6.72,4.21,2.49,14.22,0,26.6,0,40s2.39,25.22,6.45,35.11c8.16,2.94,17.45,4.69,27.32,4.87,.58,.01,1.15,.02,1.73,.02,9.63,0,18.73-1.51,26.78-4.2,4.24-10.01,6.74-22.39,6.74-35.8s-2.4-25.24-6.46-35.12Zm-4.04,66.86c-7.2,2.16-14.94,3.26-23.02,3.26-.49,0-.98-.01-1.47-.02h-.17c-8.18-.15-16.29-1.47-23.6-3.85-3.45-9.22-5.26-19.93-5.26-31.13s1.89-22.38,5.48-31.73c6.73-2.01,14.13-3.13,21.6-3.26,.48-.01,.97-.01,1.45-.01,.54,0,1.08,.01,1.63,.02,8.16,.15,16.27,1.47,23.59,3.84,3.46,9.24,5.27,19.95,5.27,31.14s-1.89,22.39-5.5,31.74Z"/><path class="cls-14" d="M17.21,2.06h0c1.63,.63,2.06,2.75,.81,3.97l-1.26,1.22s8.35-2.37,18.84-1.69h0c-1-1.49-.45-3.52,1.14-4.34l1-.51S28.26-.43,17.21,2.06Z"/><path class="cls-17" d="M21.81,1.66s.7,2.18-.22,3.1c3.77-.41,7.98-.74,11.12-.74-.33-1.33,1.26-3.4,1.26-3.4,0,0-6.17-.26-12.16,1.03Z"/><path class="cls-14" d="M36.25,79.21h0c-1.52-.87-1.62-3.03-.2-4.04l1.43-1.02s-8.61,1.07-18.88-1.19h0c.76,1.63-.09,3.55-1.79,4.11l-1.07,.36s9.19,2.56,20.5,1.78Z"/><path class="cls-17" d="M19.28,77.8s1.76-1.83,1.3-3.09c4.43,.69,9.11,1.14,12.25,1.14-.33,1.33,.44,3.4,.44,3.4,0,0-8-.16-13.99-1.45Z"/><polygon points="47.48 1.77 47.48 6.73 54.49 8.44 54.49 2.62 47.48 1.77"/><line class="cls-7" x1="45.5" y1="1.23" x2="45.5" y2="6.29"/><line class="cls-7" x1="56.47" y1="3.67" x2="56.47" y2="8.73"/><polygon points="47.48 78.74 47.48 73.78 54.49 72.07 54.49 77.88 47.48 78.74"/><line class="cls-7" x1="45.5" y1="79.28" x2="45.5" y2="74.21"/><line class="cls-7" x1="56.47" y1="76.84" x2="56.47" y2="71.77"/><path d="M33.53,1c.56,0,1.14,0,1.7,.02,9.39,.17,18.33,1.74,26.57,4.65,4.07,10.08,6.22,21.94,6.22,34.33s-2.24,24.79-6.49,34.99c-8.12,2.66-16.87,4.01-26.03,4.01-.56,0-1.12,0-1.71-.02-9.25-.17-18.42-1.78-26.58-4.66C3.15,64.25,1,52.39,1,40S3.23,15.21,7.47,5.02C15.6,2.35,24.37,1,33.53,1m0-1C23.88,0,14.77,1.52,6.72,4.21,2.49,14.22,0,26.6,0,40s2.39,25.22,6.45,35.11c8.16,2.94,17.45,4.69,27.32,4.87,.58,.01,1.15,.02,1.73,.02,9.63,0,18.73-1.51,26.78-4.2,4.24-10.01,6.74-22.39,6.74-35.8s-2.4-25.24-6.46-35.12C54.4,1.94,45.12,.2,35.25,.02c-.57,0-1.15-.02-1.72-.02h0Z"/><path class="cls-14" d="M33.53,6c.52,0,1.04,0,1.61,.02,7.87,.14,15.75,1.4,22.84,3.64,3.3,9,5.04,19.47,5.04,30.34s-1.82,21.82-5.26,30.92c-6.98,2.04-14.47,3.08-22.26,3.08-.48,0-.97,0-1.47-.02h-.15c-7.89-.14-15.78-1.41-22.85-3.65-3.29-8.99-5.03-19.46-5.03-30.33s1.81-21.79,5.24-30.91c6.5-1.89,13.7-2.95,20.86-3.08,.47,0,.96,0,1.43,0m0-1c-.48,0-.97,0-1.45,.01-7.47,.13-14.87,1.25-21.6,3.26-3.59,9.35-5.48,20.26-5.48,31.73s1.81,21.91,5.26,31.13c7.31,2.38,15.42,3.7,23.6,3.85h.17c.49,.01,.98,.02,1.47,.02,8.08,0,15.82-1.1,23.02-3.26,3.61-9.35,5.5-20.27,5.5-31.74s-1.81-21.9-5.27-31.14c-7.32-2.37-15.43-3.69-23.59-3.84-.55,0-1.09-.02-1.63-.02h0Z"/><path d="M33.53,5c.54,0,1.08,.01,1.63,.02,8.16,.15,16.27,1.47,23.59,3.84,3.46,9.24,5.27,19.95,5.27,31.14s-1.89,22.39-5.5,31.74c-7.2,2.16-14.94,3.26-23.02,3.26-.49,0-.98-.01-1.47-.02h-.17c-8.18-.15-16.29-1.47-23.6-3.85-3.45-9.22-5.26-19.93-5.26-31.13s1.89-22.38,5.48-31.73c6.73-2.01,14.13-3.13,21.6-3.26,.48-.01,.97-.01,1.45-.01m0-1c-.49,0-.98,0-1.47,.01-7.51,.13-15.07,1.27-21.87,3.3l-.47,.14-.18,.46c-3.63,9.45-5.55,20.55-5.55,32.09s1.84,22.17,5.32,31.48l.17,.45,.46,.15c7.37,2.4,15.63,3.75,23.89,3.9h.19c.48,.01,.97,.02,1.47,.02,8.16,0,16-1.11,23.31-3.3l.47-.14,.18-.46c3.64-9.43,5.57-20.53,5.57-32.1s-1.84-22.17-5.33-31.49l-.17-.45-.46-.15c-7.39-2.39-15.65-3.74-23.88-3.89-.58-.01-1.12-.02-1.65-.02h0Z"/><path class="cls-8" d="M8.14,7.1s-12.66,32.94,0,66.06"/><path class="cls-8" d="M60.88,7.58s12.66,32.94,0,66.06"/></g></svg>