<svg id="Capa_2" xmlns="http://www.w3.org/2000/svg" xmlns:xlink="http://www.w3.org/1999/xlink" viewBox="0 0 69.02 80">
<defs >
<style >
.cls-1{fill:#c89aed;}.cls-2{fill:#fff;}.cls-3{fill:#f8ffbf;}.cls-4{fill:#7b7be8;}.cls-5{fill:#a88347;}.cls-6{fill:#782ab5;}.cls-7,.cls-8,.cls-9,.cls-10,.cls-11,.cls-12{fill:none;}.cls-7,.cls-9,.cls-12{stroke:#000;stroke-miterlimit:10;}.cls-13{fill:#1c46ff;}.cls-8{stroke:#deb778;stroke-dasharray:0 0 0 4.06;stroke-linecap:round;stroke-linejoin:round;}.cls-14{fill:#deb778;}.cls-9{stroke-width:.97px;}.cls-15{fill:url(#USGS_19_Inundación_de_tierra_2);}.cls-11{stroke:#1d1d1b;stroke-dasharray:0 0 2 2;stroke-width:.3px;}.cls-16{fill:#cf5f2b;}.cls-12{stroke-width:1.12px;}.cls-17{fill:#fcf0c5;}.cls-18{fill:#b83521;}
</style>
<pattern id="USGS_19_Inundación_de_tierra_2" x="0" y="0" width="72" height="72" patternTransform="translate(267.52 -16135) rotate(-90)" patternUnits="userSpaceOnUse" viewBox="0 0 72 72">
<g >
<rect class="cls-10" width="72" height="72">
</rect>
<g >
<line class="cls-11" x1="71" y1="71" x2="144.44" y2="71">
</line>
<line class="cls-11" x1="71" y1="67" x2="144.44" y2="67">
</line>
<line class="cls-11" x1="71" y1="63" x2="144.44" y2="63">
</line>
<line class="cls-11" x1="71" y1="59" x2="144.44" y2="59">
</line>
<line class="cls-11" x1="71" y1="55" x2="144.44" y2="55">
</line>
<line class="cls-11" x1="71" y1="51" x2="144.44" y2="51">
</line>
<line class="cls-11" x1="71" y1="47" x2="144.44" y2="47">
</line>
<line class="cls-11" x1="71" y1="43" x2="144.44" y2="43">
</line>
<line class="cls-11" x1="71" y1="39" x2="144.44" y2="39">
</line>
<line class="cls-11" x1="71" y1="35" x2="144.44" y2="35">
</line>
<line class="cls-11" x1="71" y1="31" x2="144.44" y2="31">
</line>
<line class="cls-11" x1="71" y1="27" x2="144.44" y2="27">
</line>
<line class="cls-11" x1="71" y1="23" x2="144.44" y2="23">
</line>
<line class="cls-11" x1="71" y1="19" x2="144.44" y2="19">
</line>
<line class="cls-11" x1="71" y1="15" x2="144.44" y2="15">
</line>
<line class="cls-11" x1="71" y1="11" x2="144.44" y2="11">
</line>
<line class="cls-11" x1="71" y1="7" x2="144.44" y2="7">
</line>
<line class="cls-11" x1="71" y1="3" x2="144.44" y2="3">
</line>
</g>
<g >
<line class="cls-11" x1="-1" y1="71" x2="72.44" y2="71">
</line>
<line class="cls-11" x1="-1" y1="67" x2="72.44" y2="67">
</line>
<line class="cls-11" x1="-1" y1="63" x2="72.44" y2="63">
</line>
<line class="cls-11" x1="-1" y1="59" x2="72.44" y2="59">
</line>
<line class="cls-11" x1="-1" y1="55" x2="72.44" y2="55">
</line>
<line class="cls-11" x1="-1" y1="51" x2="72.44" y2="51">
</line>
<line class="cls-11" x1="-1" y1="47" x2="72.44" y2="47">
</line>
<line class="cls-11" x1="-1" y1="43" x2="72.44" y2="43">
</line>
<line class="cls-11" x1="-1" y1="39" x2="72.44" y2="39">
</line>
<line class="cls-11" x1="-1" y1="35" x2="72.44" y2="35">
</line>
<line class="cls-11" x1="-1" y1="31" x2="72.44" y2="31">
</line>
<line class="cls-11" x1="-1" y1="27" x2="72.44" y2="27">
</line>
<line class="cls-11" x1="-1" y1="23" x2="72.44" y2="23">
</line>
<line class="cls-11" x1="-1" y1="19" x2="72.44" y2="19">
</line>
<line class="cls-11" x1="-1" y1="15" x2="72.44" y2="15">
</line>
<line class="cls-11" x1="-1" y1="11" x2="72.44" y2="11">
</line>
<line class="cls-11" x1="-1" y1="7" x2="72.44" y2="7">
</line>
<line class="cls-11" x1="-1" y1="3" x2="72.44" y2="3">
</line>
<line class="cls-11" x1="1.04" y1="69" x2="74.48" y2="69">
</line>
<line class="cls-11" x1="1.04" y1="65" x2="74.48" y2="65">
</line>
<line class="cls-11" x1="1.04" y1="61" x2="74.48" y2="61">
</line>
<line class="cls-11" x1="1.04" y1="57" x2="74.48" y2="57">
</line>
<line class="cls-11" x1="1.04" y1="53" x2="74.48" y2="53">
</line>
<line class="cls-11" x1="1.04" y1="49" x2="74.48" y2="49">
</line>
<line class="cls-11" x1="1.04" y1="45" x2="74.48" y2="45">
</line>
<line class="cls-11" x1="1.04" y1="41" x2="74.48" y2="41">
</line>
<line class="cls-11" x1="1.04" y1="37" x2="74.48" y2="37">
</line>
<line class="cls-11" x1="1.04" y1="33" x2="74.48" y2="33">
</line>
<line class="cls-11" x1="1.04" y1="29" x2="74.48" y2="29">
</line>
<line class="cls-11" x1="1.04" y1="25" x2="74.48" y2="25">
</line>
<line class="cls-11" x1="1.04" y1="21" x2="74.48" y2="21">
</line>
<line class="cls-11" x1="1.04" y1="17" x2="74.48" y2="17">
</line>
<line class="cls-11" x1="1.04" y1="13" x2="74.48" y2="13">
</line>
<line class="cls-11" x1="1.04" y1="9" x2="74.48" y2="9">
</line>
<line class="cls-11" x1="1.04" y1="5" x2="74.48" y2="5">
</line>
<line class="cls-11" x1="1.04" y1="1" x2="74.48" y2="1">
</line>
</g>
<g >
<line class="cls-11" x1="-73" y1="71" x2=".44" y2="71">
</line>
<line class="cls-11" x1="-73" y1="67" x2=".44" y2="67">
</line>
<line class="cls-11" x1="-73" y1="63" x2=".44" y2="63">
</line>
<line class="cls-11" x1="-73" y1="59" x2=".44" y2="59">
</line>
<line class="cls-11" x1="-73" y1="55" x2=".44" y2="55">
</line>
<line class="cls-11" x1="-73" y1="51" x2=".44" y2="51">
</line>
<line class="cls-11" x1="-73" y1="47" x2=".44" y2="47">
</line>
<line class="cls-11" x1="-73" y1="43" x2=".44" y2="43">
</line>
<line class="cls-11" x1="-73" y1="39" x2=".44" y2="39">
</line>
<line class="cls-11" x1="-73" y1="35" x2=".44" y2="35">
</line>
<line class="cls-11" x1="-73" y1="31" x2=".44" y2="31">
</line>
<line class="cls-11" x1="-73" y1="27" x2=".44" y2="27">
</line>
<line class="cls-11" x1="-73" y1="23" x2=".44" y2="23">
</line>
<line class="cls-11" x1="-73" y1="19" x2=".44" y2="19">
</line>
<line class="cls-11" x1="-73" y1="15" x2=".44" y2="15">
</line>
<line class="cls-11" x1="-73" y1="11" x2=".44" y2="11">
</line>
<line class="cls-11" x1="-73" y1="7" x2=".44" y2="7">
</line>
<line class="cls-11" x1="-73" y1="3" x2=".44" y2="3">
</line>
<line class="cls-11" x1="-70.96" y1="69" x2="2.48" y2="69">
</line>
<line class="cls-11" x1="-70.96" y1="65" x2="2.48" y2="65">
</line>
<line class="cls-11" x1="-70.96" y1="61" x2="2.48" y2="61">
</line>
<line class="cls-11" x1="-70.96" y1="57" x2="2.48" y2="57">
</line>
<line class="cls-11" x1="-70.96" y1="53" x2="2.48" y2="53">
</line>
<line class="cls-11" x1="-70.96" y1="49" x2="2.48" y2="49">
</line>
<line class="cls-11" x1="-70.96" y1="45" x2="2.48" y2="45">
</line>
<line class="cls-11" x1="-70.96" y1="41" x2="2.48" y2="41">
</line>
<line class="cls-11" x1="-70.96" y1="37" x2="2.48" y2="37">
</line>
<line class="cls-11" x1="-70.96" y1="33" x2="2.48" y2="33">
</line>
<line class="cls-11" x1="-70.96" y1="29" x2="2.48" y2="29">
</line>
<line class="cls-11" x1="-70.96" y1="25" x2="2.48" y2="25">
</line>
<line class="cls-11" x1="-70.96" y1="21" x2="2.48" y2="21">
</line>
<line class="cls-11" x1="-70.96" y1="17" x2="2.48" y2="17">
</line>
<line class="cls-11" x1="-70.96" y1="13" x2="2.48" y2="13">
</line>
<line class="cls-11" x1="-70.96" y1="9" x2="2.48" y2="9">
</line>
<line class="cls-11" x1="-70.96" y1="5" x2="2.48" y2="5">
</line>
<line class="cls-11" x1="-70.96" y1="1" x2="2.48" y2="1">
</line>
</g>
</g>
</pattern>
</defs>
  <path
     style="opacity:1;vector-effect:none;fill:#cccccc;fill-opacity:1;fill-rule:nonzero;stroke:none;stroke-width:4.49546146;stroke-linecap:butt;stroke-linejoin:miter;stroke-miterlimit:4;stroke-dasharray:none;stroke-dashoffset:0;stroke-opacity:1"
     d="M -0.08007812,0.36132812 V 80.361328 H 68.919922 V 0.36132812 Z"
     id="rect4304"/>

<g id="Characters">
<g >
<path class="cls-1" d="M62.02,66.19l-1.69,8.73-25.44,3.29-25.26-5.26-.56-7.23,17.27-6.2,.94-8.35s-4.69-5.17-6.1-9.3c-2.08,.69-3.37-5.68-3.55-6.64-.01-.08-.02-.12-.02-.12,0,0-2.91-3.09-2.72-5.91-3.01-2.35-2.44-6.1-2.44-6.57-1.51-1.97-1.51-3.1-1.51-3.1,0,0,2.54,.84,9.3-4.23,7.6-5.63,15.68-6.19,20.09-4.13,6.2-2.81,9.2,2.07,10.33,4.79,7.04,1.97,6.38,8.73,6.01,10.61-.38,1.88-1.04,5.26-.57,6.95-1.87,.19-1.87-.19-1.87-.19l-.94,1.41v.2c.01,.73,.02,3.19-.38,4.3-.47,1.32-2.25,2.73-2.91,2.73-1.03,3.1-6.1,9.67-6.1,9.67l.94,7.98,17.18,6.57Z">
</path>
<path class="cls-2" d="M36.04,52.04V26.17c0-2.72,2.35-4.99,5.05-4.61,.77,.11,1.51,.42,2.08,1.07,4.57-1.74,6.24,3,5.27,6.43,2.37-.26,2.9-1.14,2.9-1.14,0,0,.88,5.63-.09,9.14s-2.11,8.17-5.89,12.22c-1.57,2.05-2.83,3.7-3.97,4.93-1.91,2.05-5.35,.63-5.35-2.17Z">
</path>
<path class="cls-4" d="M32.73,33.44s-.24,4.94-.73,5.99c-2.99-1.3-8.47-1.78-8.47-1.78,0,0-1.03-3.47-.88-4.6,3.82-.69,8.17-.44,10.08,.39Z">
</path>
<path class="cls-18" d="M56.67,26.57c-.38,1.88-1.04,5.26-.57,6.95-1.87,.19-1.87-.19-1.87-.19l-.94,1.41v.2c-.31-.88-.92-2.11-1.81-2.06,.31-3.16-.54-4.63-.54-4.63l-3.32,1.85s1.62-2.23,.7-5.7c-1.47-3.16-5.16-1.77-5.16-1.77,0,0-3.78-2.47-7.63,.85-5.09,4.7-8.32,7.62-11.33,6.62,1.52-2.02,1.95-2.76,1.99-2.84-.23,.11-4.14,2-6.38,1.84-.08,1.16-.16,3.01-.16,3.01,0,0-1.61,3.08-1.69,3.39-.11-.1-.22-.19-.33-.27-.01-.08-.02-.12-.02-.12,0,0-2.91-3.09-2.72-5.91-3.01-2.35-2.44-6.1-2.44-6.57-1.51-1.97-1.51-3.1-1.51-3.1,0,0,2.54,.84,9.3-4.23,7.6-5.63,15.68-6.19,20.09-4.13,6.2-2.81,9.2,2.07,10.33,4.79,7.04,1.97,6.38,8.73,6.01,10.61Z">
</path>
<path class="cls-3" d="M32,39.43s.14-3.22-2.4-3.56c-2.67-.34-5.34,1.92-5.34,1.92,0,0,1.92,2.26,7.74,1.64Z">
</path>
<path class="cls-3" d="M39.79,39.38s-.39-3.17,2.14-3.51c2.67-.34,5.34,1.92,5.34,1.92,0,0-1.66,2.21-7.48,1.59Z">
</path>
<path class="cls-2" d="M32.34,48.25s3.04-2.28,6.61-.15c-2.66,2.58-5.62,1.67-6.61,.15Z">
</path>
<path d="M48.21,61.08s-1.52,4.79-9.21,5.85-13.66-1.07-15.8-5.87c-10.25,3.42-16.01,5.76-16.01,5.76l2.99,7.68,35.54,2.13,14.73-3.52-.11-8.11-12.14-3.93Z">
</path>
<path class="cls-13" d="M48.21,61.08s-4.24,7.75-15.16,5.98c5.84,4.74,12.1,9.93,12.1,9.93l14.02-5.12,1.45-6.31-12.41-4.48Z">
</path>
<path d="M43.83,52.25l-20.62,21.86-13.3-2.78-.84-5.61,17.64-6.04,.93-8.25s3.51,4.33,5.57,5.15,5.15,1.24,10.62-4.33Z">
</path>
<path d="M19.56,32.91s-1.69,1.37-1.61,3.05,1.63,5.72,3.23,5.91c-1.54-3.5-1.62-8.96-1.62-8.96Z">
</path>
<path d="M28.57,23.86s-12.14,7.16-15.98-.32c-1.09,3.96,2.3,5.66,2.3,5.66,0,0-.7,3.42,3.33,6.04,1.34-1.73,1.79-2.43,1.79-2.43l-.13-3.45s5.18-1.66,6.58-2.43c1.41-2.11,2.11-3.07,2.11-3.07Z">
</path>
<path d="M52.31,25.95s1.21,1.5,1.56,2.6c.69-2.37,.46-4.57,.46-4.57,0,0,1.79,2.31,1.73,4.33-.52,2.54,.03,5.2,.03,5.2l-1.87-.19-.82,1.11-1.73-1.73c-.52-2.54-.74-4.46-.74-4.46,0,0,.91-1.26,1.37-2.3Z">
</path>
<path class="cls-4" d="M39.04,33.69l.74,5.7s-.6-3.2,2.68-3.3,5.09,2.1,5.09,2.1c0,0,1.61-.54,1.52-5.09-3.77-1.42-9.25,.34-10.03,.59Z">
</path>
<path class="cls-2" d="M42.52,54.95l-9.9,10.51s9.29,1.83,13.83-3.8c-2.71-.81-3.25-1.15-3.25-1.15l-.68-5.56Z">
</path>
<path class="cls-1" d="M39.99,23.1c1.13,0,1.81,.6,1.98,.77l.34,.38,.63,.7,.74-.59,.41-.33h0s.39-.28,.84-.28c.04,0,.09,0,.14,0,.59,.06,1.11,.57,1.45,.99,1.43,1.79,.36,3.86,.07,4.34l-.93,1.41-1.7,2.59,2.89-1.1,1.56-.6s.65-.23,1.5-.72c.24,2.62,.2,7.06-1.78,11.84-1.19,2.86-4.13,6.71-8.75,11.42-1.01,1.03-2.36,1.6-3.8,1.6s-2.8-.57-3.81-1.59c-4.6-4.69-7.55-8.54-8.76-11.43-2.07-5-2-9.68-1.76-12.07,.33-.03,.67-.08,1.01-.14l-.74,1.01,1.67,.23,.95,.13c.37,.05,.74,.07,1.1,.07,3.4,0,5.76-2.18,8.26-4.49,.98-.91,2.1-1.94,3.38-2.89,1.12-.83,2.17-1.25,3.12-1.25m0-1c-.99,0-2.24,.35-3.72,1.45-1.28,.95-2.39,1.97-3.46,2.96-2.44,2.26-4.57,4.23-7.58,4.23-.31,0-.63-.02-.96-.07l-.94-.13,.56-.76c.32-.43,.61-.87,.9-1.3-1.38,.58-2.9,.99-4.37,.99-.02,0-.04,0-.05,0-.33,2.34-.66,7.66,1.73,13.42,1.25,2.99,4.26,6.95,8.97,11.75,1.2,1.22,2.8,1.89,4.52,1.89s3.32-.67,4.52-1.9c4.7-4.8,7.72-8.75,8.96-11.74,2.55-6.16,2-11.82,1.64-13.96-1.24,.99-2.51,1.48-2.6,1.51l-1.6,.61,.94-1.43c.07-.12,1.88-2.98-.14-5.5-.66-.82-1.38-1.28-2.12-1.36-.08,0-.17-.01-.24-.01-.85,0-1.47,.49-1.48,.5l-.41,.33-.36-.4c-.06-.06-1.02-1.08-2.71-1.08h0Z">
</path>
<path class="cls-16" d="M33.7,10.55s-9.4,.9-13.46,4.75c4.7-1.75,6.4-1.83,6.4-1.83,0,0-5.11,4.22,1.62,2.6-2.35,3.25,3.65-.32,6.57,2.92,2.11-.73,3.17-.32,3.17-.32,0,0-10.39-1.79-6.49-3.33,3.41-1.22,6.17-.57,6.17-.57,0,0-2.84-1.7-8.04-.08-4.63,1.38,1.95-3.49,4.06-4.14Z">
</path>
<path class="cls-16" d="M47.03,23s5.48,.25,2.95-2.53c3.37,1.69,2.53,5.03,1.94,6.24-.42-2.28-2.45-3.46-3.29-.93-.51-2.02-1.6-2.78-1.6-2.78">
</path>
<path class="cls-16" d="M38.88,18.67s-3.25,.99,.12,2.84c-2.96,.35-4.76,2.84-4.76,2.84,0,0,3.71-6.09-1.39-4.23,1.28-1.91,6.03-1.45,6.03-1.45Z">
</path>
<path class="cls-13" d="M27.94,54.44c.21,2,.28,4.01,.27,6.02-3.55,1.6-7.28,2.95-11,4.1-2.11,.59-4.42,1.26-6.59,1.62,0,0-.03-.09-.03-.09,5.53-1.98,11.54-4.35,16.85-6.09,0,0,.4-5.57,.4-5.57,0,0,.1,0,.1,0h0Z">
</path>
<path class="cls-2" d="M23.94,40.1s3.03,1.29,7.63,.46c-3.68,4.23-6.71,2.11-7.63-.46Z">
</path>
<path class="cls-12" d="M52.26,22.7c1.89,4.85-4.34,7.22-4.34,7.22,0,0,2.14-3.27-.17-6.15s-4.63-.96-4.63-.96c0,0-2.7-3.05-7.19,.28s-6.97,7.64-11.59,7.02c2.58-3.46,3.82-7.19,7.55-9.73s8.79-2.93,11.55,.09c4.31-2.04,7.99,.11,8.82,2.22Z">
</path>
<path d="M26.75,27.48c-2.9,1.74-7.29,3.1-10.15,.67,3.24,1.52,6.62-.39,9.59-1.64,0,0,.56,.97,.56,.97h0Z">
</path>
<path d="M44.98,13.93c-4.93-4-11.69-3.9-17.42-1.89-6.05,1.63-10.13,8.21-16.82,7.9,0,0,.44-.56,.44-.56,.29,1.18,.8,2.3,1.65,3.18,.85,.9,1.91,1.56,3.09,2.01-1.32,.07-2.66-.52-3.63-1.46-1.14-1.08-1.74-2.56-2.14-4.04,0,0,.6-.02,.6-.02,3.13,.01,5.82-1.39,8.24-3.29,2.47-1.89,5.21-3.66,8.23-4.68,5.74-2.14,13.58-2.29,17.76,2.87h0Z">
</path>
<path d="M12.69,22.77c-.4,2.96,1.34,5.76,3.84,7.27,2.49,1.34-.52,.3-1.44-.2-2.57-1.34-4.1-4.43-3.38-7.3,0,0,.97,.23,.97,.23h0Z">
</path>
<path class="cls-7" d="M17.97,35.55s-3.7-3.57-3.33-6.3">
</path>
<path class="cls-7" d="M40.24,10.87s8.13-3.01,10.08,4.87c6.24,.99,6.98,7.93,6.19,11.48s-.87,5.16-.33,6.48c-1.32,.08-1.94-.58-1.94-.58l-.87,1.56">
</path>
<path class="cls-7" d="M19.93,29.02c-.37,2.32-.84,7.93,1.71,14.06,1.5,3.61,5.32,8.07,9.07,11.91,2.68,2.73,7.08,2.73,9.75,0,3.76-3.83,7.57-8.3,9.07-11.9,3.34-8.05,1.49-15.19,1.49-15.19">
</path>
<path class="cls-7" d="M19.68,32.52s-2.29,1.03-1.43,4.63,1.6,5.03,3.09,5.15">
</path>
<path class="cls-7" d="M51.6,32.52s2.29,1.03,1.43,4.63-1.6,5.03-3.09,5.15">
</path>
<path d="M22.61,33.13c3.07-2.13,6.97-1.32,10.33-.47,0,0-.44,1.72-.44,1.72-3.27-.82-6.47-1.99-9.89-1.24h0Z">
</path>
<path d="M31.9,38.29c-1.12-3.31-5.42-1.85-7.4-.19,0,0,.09-.6,.09-.6,.49,.72,1.49,1.26,2.36,1.53,.99,.34,2.05,.46,3.11,.55-2.17,.48-4.83,.33-6.3-1.6,0,0-.22-.33-.22-.33,2.09-2.27,7.96-3.69,8.36,.63h0Z">
</path>
<path d="M49.09,33.13c-3.41-.75-6.62,.42-9.89,1.24,0,0-.44-1.72-.44-1.72,3.36-.85,7.26-1.66,10.33,.47h0Z">
</path>
<path d="M39.81,38.29c.41-4.32,6.27-2.9,8.36-.63,0,0-.22,.33-.22,.33-1.48,1.93-4.13,2.07-6.3,1.6,1.06-.09,2.11-.21,3.11-.55,.87-.27,1.87-.82,2.36-1.53,0,0,.09,.6,.09,.6-1.97-1.66-6.28-3.12-7.4,.2h0Z">
</path>
<path d="M38.44,41.11c1.44,.68,1.84,1.53,.43,2.57-.3,.24-.62,.45-.96,.64h-.13c-1.35,.03-2.75,.14-4.08-.04-.64-.4-1.22-.75-1.66-1.42-.13-.17-.16-.54-.04-.73,.28-.51,.76-.79,1.25-1.02-.31,.36-.67,.74-.78,1.19-.01,.14,0,.13,.07,.22,.38,.37,1.02,.69,1.57,.96l-.21-.05c1.29-.06,2.58-.06,3.87,0l-.21,.05c.55-.27,1.2-.59,1.57-.96,.08-.09,.09-.08,.07-.22-.11-.44-.48-.82-.78-1.19h0Z">
</path>
<path d="M31.54,48.71c1.79-2.75,6.7-2.71,8.45,.06-2.71-1.46-5.71-1.5-8.45-.06h0Z">
</path>
<path class="cls-9" d="M32.39,48.14s1.37,1.46,3.31,1.46c2.42,0,3.4-1.46,3.4-1.46">
</path>
<path d="M32.78,50.45c.7,1.04,1.84,1.06,2.97,1.05,1.08-.09,2.39,.13,3.05-.92,.11,2.54-6.2,2.56-6.02-.13h0Z">
</path>
<polyline class="cls-9" points="27.3 51.25 26.57 59.78 8.49 66.34">
</polyline>
<polyline class="cls-9" points="44.07 51.25 44.8 59.78 62.88 66.34">
</polyline>
<path class="cls-9" d="M23.14,61.1s2.36,5.96,12.64,5.96,12.24-5.89,12.24-5.89">
</path>
</g>
</g>

  <path
     style="opacity:1;vector-effect:none;fill:#8d5fd3;fill-opacity:1;fill-rule:nonzero;stroke:none;stroke-width:2.35769176;stroke-linecap:butt;stroke-linejoin:miter;stroke-miterlimit:4;stroke-dasharray:none;stroke-dashoffset:0;stroke-opacity:0.44186048"
     d="M 0,1.2e-7 V 80 H 69 V 1.2e-7 Z M 35.240234,4.658203 c 6.067554,0.1120422 16.269844,1.4698438 23.589844,3.8398438 3.46,9.2400002 5.269531,19.9506252 5.269531,31.1406252 0,11.47 -1.89,22.390234 -5.5,31.740234 -7.2,2.16 -14.940375,3.376539 -23.019531,3.259766 -8.580486,-0.124019 -18.036001,-1.572896 -25.240234,-3.86914 -3.4500003,-9.22 -5.2597659,-19.930859 -5.2597659,-31.130859 0,-11.2 1.8904687,-22.380469 5.4804689,-31.730469 C 17.682894,5.1336941 29.17268,4.5461608 35.240234,4.658203 Z"
     id="rect4304" />


</svg>
