<svg id="Capa_2" xmlns="http://www.w3.org/2000/svg" xmlns:xlink="http://www.w3.org/1999/xlink" viewBox="0 0 69.02 80">
<defs >
<style >
.cls-1{fill:#c89aed;}.cls-2{fill:#fff;}.cls-3{fill:#f8ffbf;}.cls-4{fill:#7b7be8;}.cls-5{fill:#a88347;}.cls-6{fill:#782ab5;}.cls-7,.cls-8,.cls-9,.cls-10,.cls-11,.cls-12{fill:none;}.cls-7,.cls-8,.cls-10{stroke:#000;stroke-miterlimit:10;}.cls-8,.cls-9{stroke-linecap:round;}.cls-8,.cls-10{stroke-width:.97px;}.cls-13{fill:#1c46ff;}.cls-9{stroke:#deb778;stroke-dasharray:0 0 0 4.06;stroke-linejoin:round;}.cls-14{fill:#deb778;}.cls-15{fill:url(#USGS_19_Inundación_de_tierra_2);}.cls-12{stroke:#1d1d1b;stroke-dasharray:0 0 2 2;stroke-width:.3px;}.cls-16{fill:#fcf0c5;}.cls-17{fill:#b83521;}
</style>
<pattern id="USGS_19_Inundación_de_tierra_2" x="0" y="0" width="72" height="72" patternTransform="translate(195.52 -16135) rotate(-90)" patternUnits="userSpaceOnUse" viewBox="0 0 72 72">
<g >
<rect class="cls-11" width="72" height="72">
</rect>
<g >
<line class="cls-12" x1="71" y1="71" x2="144.44" y2="71">
</line>
<line class="cls-12" x1="71" y1="67" x2="144.44" y2="67">
</line>
<line class="cls-12" x1="71" y1="63" x2="144.44" y2="63">
</line>
<line class="cls-12" x1="71" y1="59" x2="144.44" y2="59">
</line>
<line class="cls-12" x1="71" y1="55" x2="144.44" y2="55">
</line>
<line class="cls-12" x1="71" y1="51" x2="144.44" y2="51">
</line>
<line class="cls-12" x1="71" y1="47" x2="144.44" y2="47">
</line>
<line class="cls-12" x1="71" y1="43" x2="144.44" y2="43">
</line>
<line class="cls-12" x1="71" y1="39" x2="144.44" y2="39">
</line>
<line class="cls-12" x1="71" y1="35" x2="144.44" y2="35">
</line>
<line class="cls-12" x1="71" y1="31" x2="144.44" y2="31">
</line>
<line class="cls-12" x1="71" y1="27" x2="144.44" y2="27">
</line>
<line class="cls-12" x1="71" y1="23" x2="144.44" y2="23">
</line>
<line class="cls-12" x1="71" y1="19" x2="144.44" y2="19">
</line>
<line class="cls-12" x1="71" y1="15" x2="144.44" y2="15">
</line>
<line class="cls-12" x1="71" y1="11" x2="144.44" y2="11">
</line>
<line class="cls-12" x1="71" y1="7" x2="144.44" y2="7">
</line>
<line class="cls-12" x1="71" y1="3" x2="144.44" y2="3">
</line>
</g>
<g >
<line class="cls-12" x1="-1" y1="71" x2="72.44" y2="71">
</line>
<line class="cls-12" x1="-1" y1="67" x2="72.44" y2="67">
</line>
<line class="cls-12" x1="-1" y1="63" x2="72.44" y2="63">
</line>
<line class="cls-12" x1="-1" y1="59" x2="72.44" y2="59">
</line>
<line class="cls-12" x1="-1" y1="55" x2="72.44" y2="55">
</line>
<line class="cls-12" x1="-1" y1="51" x2="72.44" y2="51">
</line>
<line class="cls-12" x1="-1" y1="47" x2="72.44" y2="47">
</line>
<line class="cls-12" x1="-1" y1="43" x2="72.44" y2="43">
</line>
<line class="cls-12" x1="-1" y1="39" x2="72.44" y2="39">
</line>
<line class="cls-12" x1="-1" y1="35" x2="72.44" y2="35">
</line>
<line class="cls-12" x1="-1" y1="31" x2="72.44" y2="31">
</line>
<line class="cls-12" x1="-1" y1="27" x2="72.44" y2="27">
</line>
<line class="cls-12" x1="-1" y1="23" x2="72.44" y2="23">
</line>
<line class="cls-12" x1="-1" y1="19" x2="72.44" y2="19">
</line>
<line class="cls-12" x1="-1" y1="15" x2="72.44" y2="15">
</line>
<line class="cls-12" x1="-1" y1="11" x2="72.44" y2="11">
</line>
<line class="cls-12" x1="-1" y1="7" x2="72.44" y2="7">
</line>
<line class="cls-12" x1="-1" y1="3" x2="72.44" y2="3">
</line>
<line class="cls-12" x1="1.04" y1="69" x2="74.48" y2="69">
</line>
<line class="cls-12" x1="1.04" y1="65" x2="74.48" y2="65">
</line>
<line class="cls-12" x1="1.04" y1="61" x2="74.48" y2="61">
</line>
<line class="cls-12" x1="1.04" y1="57" x2="74.48" y2="57">
</line>
<line class="cls-12" x1="1.04" y1="53" x2="74.48" y2="53">
</line>
<line class="cls-12" x1="1.04" y1="49" x2="74.48" y2="49">
</line>
<line class="cls-12" x1="1.04" y1="45" x2="74.48" y2="45">
</line>
<line class="cls-12" x1="1.04" y1="41" x2="74.48" y2="41">
</line>
<line class="cls-12" x1="1.04" y1="37" x2="74.48" y2="37">
</line>
<line class="cls-12" x1="1.04" y1="33" x2="74.48" y2="33">
</line>
<line class="cls-12" x1="1.04" y1="29" x2="74.48" y2="29">
</line>
<line class="cls-12" x1="1.04" y1="25" x2="74.48" y2="25">
</line>
<line class="cls-12" x1="1.04" y1="21" x2="74.48" y2="21">
</line>
<line class="cls-12" x1="1.04" y1="17" x2="74.48" y2="17">
</line>
<line class="cls-12" x1="1.04" y1="13" x2="74.48" y2="13">
</line>
<line class="cls-12" x1="1.04" y1="9" x2="74.48" y2="9">
</line>
<line class="cls-12" x1="1.04" y1="5" x2="74.48" y2="5">
</line>
<line class="cls-12" x1="1.04" y1="1" x2="74.48" y2="1">
</line>
</g>
<g >
<line class="cls-12" x1="-73" y1="71" x2=".44" y2="71">
</line>
<line class="cls-12" x1="-73" y1="67" x2=".44" y2="67">
</line>
<line class="cls-12" x1="-73" y1="63" x2=".44" y2="63">
</line>
<line class="cls-12" x1="-73" y1="59" x2=".44" y2="59">
</line>
<line class="cls-12" x1="-73" y1="55" x2=".44" y2="55">
</line>
<line class="cls-12" x1="-73" y1="51" x2=".44" y2="51">
</line>
<line class="cls-12" x1="-73" y1="47" x2=".44" y2="47">
</line>
<line class="cls-12" x1="-73" y1="43" x2=".44" y2="43">
</line>
<line class="cls-12" x1="-73" y1="39" x2=".44" y2="39">
</line>
<line class="cls-12" x1="-73" y1="35" x2=".44" y2="35">
</line>
<line class="cls-12" x1="-73" y1="31" x2=".44" y2="31">
</line>
<line class="cls-12" x1="-73" y1="27" x2=".44" y2="27">
</line>
<line class="cls-12" x1="-73" y1="23" x2=".44" y2="23">
</line>
<line class="cls-12" x1="-73" y1="19" x2=".44" y2="19">
</line>
<line class="cls-12" x1="-73" y1="15" x2=".44" y2="15">
</line>
<line class="cls-12" x1="-73" y1="11" x2=".44" y2="11">
</line>
<line class="cls-12" x1="-73" y1="7" x2=".44" y2="7">
</line>
<line class="cls-12" x1="-73" y1="3" x2=".44" y2="3">
</line>
<line class="cls-12" x1="-70.96" y1="69" x2="2.48" y2="69">
</line>
<line class="cls-12" x1="-70.96" y1="65" x2="2.48" y2="65">
</line>
<line class="cls-12" x1="-70.96" y1="61" x2="2.48" y2="61">
</line>
<line class="cls-12" x1="-70.96" y1="57" x2="2.48" y2="57">
</line>
<line class="cls-12" x1="-70.96" y1="53" x2="2.48" y2="53">
</line>
<line class="cls-12" x1="-70.96" y1="49" x2="2.48" y2="49">
</line>
<line class="cls-12" x1="-70.96" y1="45" x2="2.48" y2="45">
</line>
<line class="cls-12" x1="-70.96" y1="41" x2="2.48" y2="41">
</line>
<line class="cls-12" x1="-70.96" y1="37" x2="2.48" y2="37">
</line>
<line class="cls-12" x1="-70.96" y1="33" x2="2.48" y2="33">
</line>
<line class="cls-12" x1="-70.96" y1="29" x2="2.48" y2="29">
</line>
<line class="cls-12" x1="-70.96" y1="25" x2="2.48" y2="25">
</line>
<line class="cls-12" x1="-70.96" y1="21" x2="2.48" y2="21">
</line>
<line class="cls-12" x1="-70.96" y1="17" x2="2.48" y2="17">
</line>
<line class="cls-12" x1="-70.96" y1="13" x2="2.48" y2="13">
</line>
<line class="cls-12" x1="-70.96" y1="9" x2="2.48" y2="9">
</line>
<line class="cls-12" x1="-70.96" y1="5" x2="2.48" y2="5">
</line>
<line class="cls-12" x1="-70.96" y1="1" x2="2.48" y2="1">
</line>
</g>
</g>
</pattern>
</defs>

<g id="Characters">
<g >
<path class="cls-1" d="M60.76,73.01s-2.86,3.13-21.04,4.06c-9.93,.28-18.91-1.46-24.52-2.91-3.77-.96-6.02-1.8-6.02-1.8,0,0-10.89-21.59-3.97-29.8,6.46-4.62,6.74-6.92,6.92-8.49s-.74-8.31,1.48-13.29c3.13-5.44,8.21-5.44,8.21-5.44,0,0,.37-2.86,5.26-5.17,6.55-3.23,13.75,3.14,13.75,3.14,0,0,11.44,4.52,13.1,10.88,1.41,5.56-1.28,7.68-1.84,8.06l-.1,.06s.19,1.11,.28,4.71c7.93,4.24,5.35,7.66,4.61,9.41s-1.57,6,1.57,7.2c-.92,.55-4.61,2.12-5.81-2.31-1.02,1.2-.83,4.62,.46,6.74,1.29,2.12,.37,3.69,.37,3.69l1.23,.57,5.32,2.47,.74,8.22Z">
</path>
<path class="cls-2" d="M35.16,55.92V24.48s3.79,.99,5.27,1.89,5.85,3.09,8.64,2.62c-.66,5.53-.99,6.93-.99,6.93,0,0,.82,2.06,.58,4.44s-2.47,8.64-3.29,9.88-6.75,5.84-10.21,5.68Z">
</path>
<path d="M52.09,32.25l-.1,.06s.46-1.07-1.01-1.52c-1.36-.42-2.34,1.52-2.47,1.78,.05-.15,.26-.92,.56-3.58-2.03-.12-7.11-1.36-9.48-2.71-2.37-1.35-5.98-3.05-11.28-1.58,.68,5.98-1.13,14.78-5.64,19.29,.34,3.27,3.38,7.67,3.38,7.67l-.34,2.03s4.4,4.07,3.39,11.17c-1.69,7.56-11.4,8.8-11.4,8.8l-2.5,.5c-3.77-.96-6.02-1.8-6.02-1.8,0,0-10.89-21.59-3.97-29.8,6.46-4.62,6.74-6.92,6.92-8.49s-.74-8.31,1.48-13.29c3.13-5.44,8.21-5.44,8.21-5.44,0,0,.37-2.86,5.26-5.17,6.55-3.23,13.75,3.14,13.75,3.14,0,0,11.44,4.52,13.1,10.88,1.41,5.56-1.28,7.68-1.84,8.06Z">
</path>
<path d="M52.64,51.32c-1.02,1.2-.83,4.62,.46,6.74,1.29,2.12,.37,3.69,.37,3.69l1.23,.57-.21,.15-10.41-5.3v-5.34s1.23-1.05,2.02-2.89c.79-1.84,2.54-7.36,2.54-7.36,0,0,2.62-2.38,3.63-4.56,7.93,4.24,5.35,7.66,4.61,9.41s-1.57,6,1.57,7.2c-.92,.55-4.61,2.12-5.81-2.31Z">
</path>
<path class="cls-13" d="M13.69,25s.34,6.62,4.1,4.44,6.55,6.35,9.62,2.32c.41,6.07-4.16,9.08-4.16,9.08,0,0,1.98-8.87-3.82-7.37s-6.76-2.12-6.76-2.12c0,0-1.43-4.16,1.02-6.35Z">
</path>
<path class="cls-13" d="M53.61,24.24s-.9-4.89-6.69-8.27c.15,4.36-7.37,5.04-10.23,1.8s-7.82-3.91-12.56-1.2c3.91-.75,8.42-1.65,11.73,3.23s13.46-.45,17.75,4.44Z">
</path>
<path class="cls-13" d="M57.3,43.19s-1.73,3.91-4.44,3.01-5.79,0-5.79,0l-1.28,2.93s4.51-3.46,7.14-.75c1.88,2.18,3.38,1.43,3.38,1.43,0,0,1.13-5.79,.98-6.62Z">
</path>
<path class="cls-13" d="M27.74,56.66s-2.71,5.26-7.3,1.43-8.12-10.53-15.64-7.22c1.13,6.47,2.03,10.08,2.03,10.08,0,0,4.81-9.48,10.23-3.01s10.98,2.33,12.26,4.14c.15-2.78-1.58-5.41-1.58-5.41Z">
</path>
<path class="cls-3" d="M28.17,33.47s2.4-.29,2.8,2.8c-1.43,1.2-4.06,1.26-4.06,1.26,0,0,.69-3.55,1.26-4.06Z">
</path>
<path class="cls-3" d="M39.2,36.34s.53-2.81,2.67-2.74c2.34,.4,4.01,.6,4.01,.6,0,0,.47,1.67-1,2.81s-5.21,.2-5.68-.67Z">
</path>
<path class="cls-17" d="M30.42,46.45s1.28,4.08,4.57,3.96,4.87-3.53,4.87-3.53c0,0-4.38-2.25-9.44-.43Z">
</path>
<path class="cls-2" d="M31.78,46.5c-.17-.11,1.14-1.14,3.01-1.27s3.61,1.27,3.61,1.27c0,0-2.94,2.41-6.62,0Z">
</path>
<path class="cls-4" d="M38.36,31.8l.84,4.54s.25-2.6,3.59-2.75c2.24,.5,3.58,.3,3.58,.3l.7-2.84s-1.15-1.24-3.14-.85-5.58,1.59-5.58,1.59Z">
</path>
<path class="cls-4" d="M32.32,31.64l-1.35,4.63s-.8-2.71-2.88-2.6c.43-1.82,.59-3,.59-3l3.64,.96Z">
</path>
<path d="M43.76,52.55l-17.6,16.77s5.47-5.34,1.59-12.67c-2-2.64-2.21-3.79-2.21-3.79l.52-1.21s6.04,4.33,8.12,4.33,3.75-.52,3.75-.52l5.83-2.92Z">
</path>
<path class="cls-2" d="M49.07,32.25s2.9,1.36,2.09,6.62c2.45-4.35,1-10.16-2.09-6.62Z">
</path>
<path class="cls-1" d="M32.7,25.66h0c2.2,0,4.3,.9,8.12,2.52l1.61,.69c1.76,.75,3.38,1.23,4.83,1.43-.21,1.87-.5,4.34-.61,5.06l-.02,.12-.05,.3,.13,.28,.03,.07c1.17,3.39-.48,7.97-1.36,10.43l-.31,.86c-.57,1.7-1.61,3.6-7.38,6.47-.75,.38-1.6,.58-2.46,.58s-1.7-.2-2.46-.58c-5.76-2.87-6.81-4.77-7.38-6.46-.08-.24-.17-.51-.28-.81l-.03-.07c-.24-.64-.53-1.45-.8-2.35,1.04-.94,1.95-2.12,2.73-3.5,2.61-4.66,3.31-11.09,2.89-14.66,1.07-.27,1.95-.4,2.79-.4m0-1c-1.17,0-2.4,.22-3.92,.68,.59,2.79,.23,9.79-2.63,14.89-.85,1.51-1.86,2.73-3,3.65,.33,1.15,.7,2.19,1.01,3.03,.11,.31,.21,.59,.29,.84,.65,1.9,1.79,4.01,7.89,7.05,.91,.45,1.91,.68,2.9,.68s1.99-.23,2.9-.68c6.09-3.04,7.24-5.15,7.88-7.05,.09-.25,.19-.53,.3-.84,.93-2.59,2.66-7.42,1.35-11.14l-.05-.11,.02-.12c.14-.94,.55-4.52,.73-6.12-1.38-.07-3.19-.46-5.55-1.46l-1.61-.69c-3.96-1.69-6.12-2.61-8.52-2.61h0Z">
</path>
<path class="cls-2" d="M42.62,59.33l18.13,7.71-1.5,5.92s-23.36,4.21-36.9,1.5c6.82-1.4,8.02-7.32,8.02-7.32l5.52-5.41s2.2-.14,4.16-.78c1.25-.41,2.58-1.62,2.58-1.62Z">
</path>
<path class="cls-10" d="M48.95,28.69s-.64,5.69-.82,6.92c1.53,4.33-.82,9.9-1.64,12.3-.65,1.92-1.8,4.17-8.13,7.32-1.96,.98-4.29,.98-6.25,0-6.33-3.16-7.47-5.4-8.13-7.32-.33-.97-.91-2.45-1.38-4.16">
</path>
<path class="cls-8" d="M52,27.76s-1.64,2.85-8.98-.25-9.25-4.26-14.82-2.49c1.08,3.43-.01,18.04-8.77,20.2">
</path>
<path class="cls-8" d="M52.17,32.29s4.34-3.81,.53-10.53-12.13-8.41-12.13-8.41c0,0-3.81-3.63-9.38-4.16-5.58-.53-9.47,6.11-9.47,6.11,0,0-5.87,.25-8.59,6.76s.78,11.27-2.14,15.26-5.44,4.28-6.61,6.71">
</path>
<path class="cls-8" d="M48.66,32.41s.98-1.77,2.26-1.41,3.04,7.15-2.4,10.87">
</path>
<path class="cls-8" d="M52.14,36.74l3.67,2.81c1.83,1.41,2.5,3.05,1.28,6.29s-1.22,7.03,1.34,7.82c-3.6,2.32-5.68-2.38-5.68-2.38,0,0-1.71,1.71-.37,4.83s1.89,3.97,1.04,5.38">
</path>
<path class="cls-8" d="M44.14,51.65l-.31,5.31s11.91,6.41,16.68,8.25">
</path>
<path class="cls-8" d="M24.7,52.67s5.93,5.73,4.37,12.15-7.1,8.46-13.22,8.46">
</path>
<path class="cls-8" d="M9.88,55.72s-2.78,1.3-3.48,5.05">
</path>
<line class="cls-8" x1="26.05" y1="51.44" x2="26.05" y2="53.86">
</line>
<path d="M34.91,43.4c-1.74,0-3.23,.78-4.22,2.16s-1.64,.89-1.64,.89c0,0,.17,1.34,2.09,.52s2.39-.99,3.84-.99h.21c1.45,0,1.92,.17,3.84,.99s2.09-.52,2.09-.52c0,0-.65,.49-1.64-.89s-2.48-2.16-4.22-2.16h-.35Z">
</path>
<path class="cls-8" d="M31.8,46.35s1.74,1.35,3.44,1.35c1.71,0,3.44-1.35,3.44-1.35">
</path>
<path d="M32.35,49.29c.96,.32,1.91,.71,2.89,.73,.97-.02,1.93-.41,2.89-.73-1.42,2-4.35,1.99-5.77,0h0Z">
</path>
<path d="M32.21,38.71c-.62,.85,.05,1.55,.71,1.95,1.63,1.01,4.29,.82,5.35-.9,.17-.32,.04-.76-.24-1.13,.42,.17,.84,.65,.76,1.25-.63,2.67-4.53,3.18-6.37,1.45-.8-.61-1.32-2.08-.21-2.62h0Z">
</path>
<path d="M39.22,36.51c-.18-1.88,1.35-3.59,3.32-3.34,1.75,.09,2.93,1.1,4.63,.35-.36,.86-1.48,1.24-2.35,1.1-2.63-.63-4.57-1.27-5.6,1.9h0Z">
</path>
<path d="M45.93,35.41c-.59,2.64-4.14,2.86-5.97,1.37,2.16,.32,4.42,.53,5.97-1.37h0Z">
</path>
<path d="M47.13,31.04c-2.92-1.16-5.77,.67-8.67,1.18,0,0-.3-.95-.3-.95,2.75-.85,6.56-2.69,8.97-.22h0Z">
</path>
<path d="M27.88,34.12c1.4-.13,2.47,.31,3.15,2.39,.17-1.81-1.24-3.47-3.11-3.35-.01,.31-.02,.64-.04,.96Z">
</path>
<path d="M27.13,37.68c1.11,.11,2.31-.22,3.15-.9-.96,.15-1.95,.27-2.89,.18-.07,.25-.15,.49-.26,.72Z">
</path>
<path d="M28.17,29.89c.03,.35,.07,.74,.1,1.16,1.31,.37,2.61,.87,3.92,1.1l.3-.95c-1.29-.4-2.81-1.01-4.32-1.31Z">
</path>
<path d="M28.77,59.18c1.37,.71,3.44,1.4,6.3,1.4,5.86,0,8.97-3.79,8.97-3.79v-2.63s-3.11,3.79-8.97,3.79-8.42-2.91-8.42-2.91l2.12,4.14Z">
</path>
<g >
<path d="M36.99,74.16l2.33,1.89c5.8-7.15,7.57-13.55,8.08-17.28l-2.86-1.45c-.27,2.98-1.57,9.48-7.55,16.84Z">
</path>
<path d="M43.67,74.32l2.39,1.81c4.27-5.63,6.18-10.74,7.01-14.5l-2.79-1.41c-.66,3.44-2.36,8.49-6.61,14.1Z">
</path>
<path d="M50.35,74.48l2.44,1.73c3.11-4.38,4.86-8.42,5.84-11.77l-2.75-1.39c-.85,3.17-2.48,7.12-5.53,11.43Z">
</path>
</g>
</g>
</g>
 <g
     id="g2850">
    <g
       id="g2837">
      <path
         id="path1951"
         d="M 0.056640625 0.04296875 L 0.056640625 79.943359 L 69.308594 79.943359 L 69.308594 0.04296875 L 0.056640625 0.04296875 z M 33.615234 3.5957031 C 34.206332 3.5957038 34.786991 3.6051034 35.421875 3.6152344 C 44.430653 3.7671809 53.471255 5.1336733 61.560547 7.5546875 L 62.064453 7.7070312 L 62.25 8.1640625 C 66.070247 17.605006 66.990234 28.726438 66.990234 40.0625 C 66.990234 51.398562 65.972723 63.025755 61.988281 72.578125 L 61.791016 73.044922 L 61.275391 73.185547 C 53.273669 75.403966 44.691921 76.529297 35.759766 76.529297 C 35.212453 76.529297 34.675812 76.519896 34.150391 76.509766 L 33.943359 76.509766 C 24.901742 76.357819 15.860367 74.989738 7.7929688 72.558594 L 7.2890625 72.40625 L 7.1035156 71.951172 C 3.2942144 62.520359 2.375 51.369168 2.375 40.0625 C 2.375 28.755832 3.3819737 17.127318 7.3554688 7.5546875 L 7.5527344 7.0898438 L 8.0664062 6.9472656 C 15.509867 4.890923 23.785212 3.7371557 32.005859 3.6054688 C 32.542226 3.5953387 33.078867 3.5957031 33.615234 3.5957031 z "
         style="opacity:1;vector-effect:none;fill:#ffffff;fill-opacity:1;fill-rule:nonzero;stroke:none;stroke-width:1.95200002;stroke-linecap:butt;stroke-linejoin:miter;stroke-miterlimit:4;stroke-dasharray:none;stroke-dashoffset:0;stroke-opacity:1" />
    </g>
    <path
       id="path1154-8-2"
       d="m 33.675163,6.6112954 c 0.557696,0 1.115392,0.00956 1.683415,0.019115 8.427403,0.14336 16.803167,1.4049288 24.363042,3.6700176 3.573384,8.830981 4.443772,19.417362 4.443772,29.761551 0,10.344189 -0.95301,21.39888 -4.68131,30.334991 -7.435942,2.064385 -15.429581,3.274388 -23.774362,3.274388 -0.506058,0 -1.012115,-0.0096 -1.518172,-0.01911 h -0.17557 C 25.56792,73.508883 17.192156,72.088619 9.6426089,69.813973 6.0795528,61.002107 5.2088244,50.415411 5.2088244,40.061979 c 0,-10.353432 0.95335,-21.389323 4.6609939,-30.325434 C 16.820359,7.8155201 24.462856,6.7450981 32.177647,6.6208528 c 0.49573,-0.00956 1.001787,-0.00956 1.497516,-0.00956 m 0,-0.9557337 c -0.506057,0 -1.012114,0 -1.518171,0.00956 C 24.40089,5.7893644 16.593149,6.8789009 9.570315,8.8190405 L 9.0849131,8.9528432 8.8990146,9.3924808 C 5.1500599,18.424166 4.1999116,29.394246 4.1999116,40.061979 c 0,10.667733 0.8675267,21.188618 4.461566,30.0865 l 0.1755708,0.430081 0.4750741,0.14336 c 7.6115135,2.293761 16.1421925,3.584001 24.6728715,3.727361 h 0.196227 c 0.495729,0.0096 1.001786,0.01911 1.518171,0.01911 8.427403,0 16.524318,-1.060864 24.073866,-3.153921 l 0.485403,-0.133802 0.185898,-0.439639 c 3.759282,-9.01257 4.719759,-19.983589 4.719759,-30.679055 0,-10.695466 -0.867528,-21.188618 -4.471894,-30.0960578 L 60.516853,9.5358409 60.041779,9.3924808 C 52.409609,7.108277 43.87893,5.8180364 35.379234,5.6746763 34.780227,5.6651187 34.232859,5.6555621 33.675163,5.6555615 Z"
       style="fill:#ff0000;stroke:#ffffff;stroke-width:1.84341729;stroke-miterlimit:4;stroke-dasharray:none" />
    <path
       id="path1154"
       d="m 33.614853,4.6077955 c 0.591098,0 1.182197,0.01013 1.784241,0.02026 8.932155,0.1519464 17.809578,1.4890758 25.822246,3.8898304 3.787408,9.3599041 4.709928,20.5803481 4.709928,31.5440931 0,10.963745 -1.01009,22.680548 -4.961693,32.151879 -7.881312,2.18803 -16.353723,3.302304 -25.198307,3.302304 -0.536368,0 -1.072735,-0.01013 -1.609102,-0.02026 H 33.97608 C 25.022033,75.343956 16.14461,74.006827 8.1428892,71.595943 4.3664269,62.256298 3.443547,51.035521 3.443547,40.061979 c 0,-10.973542 1.01045,-22.670418 4.9401601,-32.1417498 7.3668369,-2.036083 15.4670749,-3.170617 23.6439369,-3.3023039 0.525421,-0.01013 1.061788,-0.01013 1.587209,-0.01013 m 0,-1.0129766 c -0.536367,0 -1.072734,0 -1.609101,0.01013 C 23.785105,3.7366356 15.509726,4.891429 8.0662653,6.9477716 L 7.5517907,7.0895883 7.3547579,7.5555576 C 3.3812628,17.128188 2.3742062,28.755311 2.3742062,40.061979 c 0,11.306668 0.9194864,22.457692 4.7287876,31.888505 l 0.1860865,0.45584 0.5035283,0.151947 c 8.0673984,2.431144 17.1090154,3.798662 26.1506324,3.950608 h 0.207979 c 0.525421,0.01013 1.061788,0.02026 1.609101,0.02026 8.932155,0 17.514028,-1.124404 25.51575,-3.342823 l 0.514475,-0.141816 0.197032,-0.46597 c 3.984442,-9.55237 5.002445,-21.180489 5.002445,-32.516551 0,-11.336062 -0.919487,-22.457692 -4.739734,-31.8986353 L 62.064202,7.7075041 61.560674,7.5555576 C 53.471382,5.1345434 44.429765,3.7670249 35.420987,3.6150784 c -0.634884,-0.01013 -1.215036,-0.020259 -1.806134,-0.02026 z"
       style="fill:#000000;stroke:#000000;stroke-width:1.95382714;stroke-miterlimit:4;stroke-dasharray:none" />
    <g
       id="g1810">
      <path
         d="M 6.5134911,7.7433673 C 5.6489029,6.8479453 4.058602,6.5681013 3.6272194,7.3820013 3.284151,8.0292783 3.3625296,8.5309135 4.395235,8.9201755 3.2963719,9.5187755 1.4857674,9.4447465 1.1893447,7.4467713 0.95320848,5.8551433 2.674739,4.8863543 3.1399725,5.0916244 3.0034432,3.6818714 1.8221094,4.0692802 0.95849208,3.2813384 0.34259068,2.7194046 0.23126071,-0.02624603 0.0561761,0.04378767 -0.0138576,0.21887227 2.7317937,0.33020157 3.2937267,0.94610377 4.0816685,1.8097211 3.6942598,2.9910547 5.1040128,3.1275841 4.8987425,2.6623507 5.8675315,0.94082017 7.4591593,1.1769564 9.4571345,1.4733791 9.5311625,3.2839847 8.9325635,4.3828467 8.5433008,3.3501417 8.041666,3.2717627 7.3943894,3.6148312 6.5804899,4.0462137 6.8603354,5.6365129 7.7557553,6.5011023"
         style="fill:#000000;stroke:#000000;stroke-width:0.1112323px;stroke-linecap:butt;stroke-linejoin:miter;stroke-opacity:1"
         id="path1737-3" />
      <path
         d="m 62.850738,7.7433673 c 0.864588,-0.895422 2.454889,-1.175266 2.886271,-0.361366 0.343069,0.647277 0.26469,1.148912 -0.768015,1.538174 1.098863,0.5986 2.909467,0.524571 3.20589,-1.473404 0.236136,-1.591628 -1.485394,-2.560417 -1.950628,-2.3551469 0.13653,-1.409753 1.317863,-1.0223442 2.181481,-1.810286 0.615901,-0.5619338 0.727231,-3.30758442 0.902316,-3.23755072 0.07003,0.1750846 -2.675618,0.2864139 -3.237551,0.9023161 C 65.28256,1.8097211 65.669969,2.9910547 64.260216,3.1275841 64.465486,2.6623507 63.496697,0.94082018 61.905069,1.1769564 c -1.997975,0.2964227 -2.072003,2.1070283 -1.473404,3.2058903 0.389263,-1.032705 0.890898,-1.111084 1.538174,-0.7680155 0.8139,0.4313825 0.534054,2.0216817 -0.361366,2.8862711"
         style="fill:#000000;stroke:#000000;stroke-width:0.1112323px;stroke-linecap:butt;stroke-linejoin:miter;stroke-opacity:1"
         id="path1737-3-5" />
      <path
         d="m 62.850738,72.244244 c 0.864588,0.895422 2.454889,1.175266 2.886272,0.361366 0.343068,-0.647277 0.264689,-1.148912 -0.768016,-1.538174 1.098863,-0.5986 2.909468,-0.524571 3.20589,1.473404 0.236137,1.591628 -1.485394,2.560417 -1.950628,2.355147 0.13653,1.409753 1.317864,1.022344 2.181481,1.810286 0.615901,0.561934 0.727231,3.307584 0.902316,3.237551 0.07003,-0.175085 -2.675618,-0.286414 -3.237551,-0.902317 -0.787942,-0.863617 -0.400533,-2.04495 -1.810286,-2.18148 0.20527,0.465234 -0.763519,2.186764 -2.355146,1.950628 -1.997976,-0.296423 -2.072004,-2.107028 -1.473405,-3.20589 0.389263,1.032705 0.890898,1.111084 1.538175,0.768015 0.813899,-0.431382 0.534054,-2.021682 -0.361366,-2.886271"
         style="fill:#000000;stroke:#000000;stroke-width:0.1112323px;stroke-linecap:butt;stroke-linejoin:miter;stroke-opacity:1"
         id="path1737-3-7" />
      <path
         d="M 6.513491,72.244245 C 5.648903,73.139667 4.058602,73.419511 3.62722,72.605611 3.284151,71.958334 3.36253,71.456699 4.395235,71.067437 c -1.098863,-0.5986 -2.909467,-0.524571 -3.20589,1.473404 -0.23613599,1.591628 1.485394,2.560417 1.950628,2.355147 -0.13653,1.409753 -1.317863,1.022344 -2.18148099,1.810286 -0.615901,0.561933 -0.727231,3.307584 -0.902316,3.23755 C -0.01385399,79.76874 2.731794,79.65741 3.293727,79.041508 4.081669,78.177891 3.69426,76.996557 5.104013,76.860028 4.898743,77.325261 5.867532,79.046792 7.45916,78.810656 9.457135,78.514233 9.531163,76.703627 8.932564,75.604765 8.543301,76.63747 8.041666,76.715849 7.39439,76.372781 6.58049,75.941398 6.860336,74.351099 7.755756,73.48651"
         style="fill:#000000;stroke:#000000;stroke-width:0.1112323px;stroke-linecap:butt;stroke-linejoin:miter;stroke-opacity:1"
         id="path1737-3-5-5" />
    </g>
    <path
       id="path1154-9"
       d="m 33.712865,7.4258691 c 0.536813,0 1.07363,0.00933 1.620386,0.01865 8.111875,0.1398689 16.174044,1.3707167 23.450873,3.5806479 3.439594,8.615932 4.277395,18.944521 4.277395,29.036812 0,10.092292 -0.917329,20.877786 -4.506039,29.596289 -7.157536,2.014114 -14.851888,3.03982 -22.884234,3.03982 -0.487111,0 -0.974221,-0.0094 -1.461331,-0.01865 H 34.040918 C 25.909161,72.53957 17.846991,71.308722 10.580105,69.089467 7.1504515,60.492184 6.3123238,50.163289 6.3123238,40.061979 c 0,-10.101311 0.9176558,-20.868461 4.4864832,-29.586965 6.690308,-1.8742449 14.046665,-2.9186005 21.472608,-3.0398203 0.47717,-0.00933 0.964281,-0.00933 1.44145,-0.00933 m 0,-0.9324602 c -0.487111,0 -0.974221,0 -1.46133,0.00933 C 24.785826,6.6239532 17.270413,7.686958 10.510517,9.5798526 L 10.043289,9.710397 9.8643508,10.139328 c -3.6085914,8.811751 -4.5231655,19.514693 -4.5231655,29.922651 0,10.407958 0.8350459,20.672644 4.294522,29.353849 l 0.1689973,0.419608 0.4572874,0.13987 c 7.326533,2.237904 15.537818,3.496724 23.749103,3.636593 h 0.188879 c 0.47717,0.0094 0.96428,0.01865 1.461331,0.01865 8.111875,0 15.905636,-1.035031 23.172525,-3.077119 l 0.467228,-0.130544 0.178938,-0.428932 c 3.618533,-8.793101 4.543048,-19.496959 4.543048,-29.931975 0,-10.435016 -0.835047,-20.672644 -4.304463,-29.363174 l -0.168997,-0.419609 -0.457288,-0.13987 C 51.74588,7.9107484 43.534594,6.6519271 35.353133,6.512058 34.776554,6.502738 34.249678,6.493409 33.712865,6.493409 Z"
       style="fill:#000000;stroke:none;stroke-width:1.78642213;stroke-miterlimit:4;stroke-dasharray:none" />
    <path
       id="path1154-9-3"
       d="m 33.712865,7.4258686 c 0.536813,0 1.07363,0.00933 1.620386,0.01865 8.111875,0.1398689 16.174044,1.3707167 23.450873,3.5806484 3.439594,8.615932 4.277395,18.944521 4.277395,29.036812 0,10.092292 -0.917329,20.877786 -4.506039,29.596288 -7.157536,2.014114 -14.851888,3.03982 -22.884234,3.03982 -0.487111,0 -0.974221,-0.0094 -1.461331,-0.01865 H 34.040918 C 25.909161,72.539569 17.846991,71.308722 10.580105,69.089466 7.1504515,60.492184 6.3123238,50.163288 6.3123238,40.061979 c 0,-10.101312 0.9176558,-20.868461 4.4864832,-29.586965 6.690308,-1.8742454 14.046665,-2.918601 21.472608,-3.0398208 0.47717,-0.00933 0.964281,-0.00933 1.44145,-0.00933 m 0,-0.9324602 c -0.487111,0 -0.974221,0 -1.46133,0.00933 C 24.785826,6.6239527 17.270413,7.6869575 10.510517,9.5798521 L 10.043289,9.7103965 9.8643508,10.139328 C 6.2557594,18.951079 5.3411853,29.65402 5.3411853,40.061979 c 0,10.407958 0.8350459,20.672643 4.294522,29.353849 l 0.1689973,0.419608 0.4572874,0.13987 c 7.326533,2.237904 15.537818,3.496724 23.749103,3.636593 h 0.188879 c 0.47717,0.0094 0.96428,0.01865 1.461331,0.01865 8.111875,0 15.905636,-1.035032 23.172525,-3.077119 l 0.467228,-0.130544 0.178938,-0.428932 c 3.618533,-8.793101 4.543048,-19.49696 4.543048,-29.931975 0,-10.435016 -0.835047,-20.672644 -4.304463,-29.363175 l -0.168997,-0.419609 -0.457288,-0.13987 C 51.74588,7.9107479 43.534594,6.6519266 35.353133,6.5120575 34.776554,6.5027375 34.249678,6.4934085 33.712865,6.4934085 Z"
       style="fill:#000000;stroke:none;stroke-width:1.78642213;stroke-miterlimit:4;stroke-dasharray:none" />
  </g>
</svg>
