<svg id="Capa_2" xmlns="http://www.w3.org/2000/svg" xmlns:xlink="http://www.w3.org/1999/xlink" viewBox="0 0 69.02 80">
<defs >
<style >
.cls-1{fill:#c89aed;}.cls-2{fill:#fff;}.cls-3{fill:#f8ffbf;}.cls-4{fill:#7b7be8;}.cls-5{fill:#a88347;}.cls-6{fill:#782ab5;}.cls-7,.cls-8,.cls-9,.cls-10,.cls-11,.cls-12{fill:none;}.cls-7,.cls-8,.cls-10{stroke:#000;stroke-miterlimit:10;}.cls-8,.cls-9{stroke-linecap:round;}.cls-8,.cls-10{stroke-width:.97px;}.cls-13{fill:#1c46ff;}.cls-9{stroke:#deb778;stroke-dasharray:0 0 0 4.06;stroke-linejoin:round;}.cls-14{fill:#deb778;}.cls-15{fill:url(#USGS_19_Inundación_de_tierra_2);}.cls-12{stroke:#1d1d1b;stroke-dasharray:0 0 2 2;stroke-width:.3px;}.cls-16{fill:#fcf0c5;}.cls-17{fill:#b83521;}
</style>
<pattern id="USGS_19_Inundación_de_tierra_2" x="0" y="0" width="72" height="72" patternTransform="translate(195.52 -16135) rotate(-90)" patternUnits="userSpaceOnUse" viewBox="0 0 72 72">
<g >
<rect class="cls-11" width="72" height="72">
</rect>
<g >
<line class="cls-12" x1="71" y1="71" x2="144.44" y2="71">
</line>
<line class="cls-12" x1="71" y1="67" x2="144.44" y2="67">
</line>
<line class="cls-12" x1="71" y1="63" x2="144.44" y2="63">
</line>
<line class="cls-12" x1="71" y1="59" x2="144.44" y2="59">
</line>
<line class="cls-12" x1="71" y1="55" x2="144.44" y2="55">
</line>
<line class="cls-12" x1="71" y1="51" x2="144.44" y2="51">
</line>
<line class="cls-12" x1="71" y1="47" x2="144.44" y2="47">
</line>
<line class="cls-12" x1="71" y1="43" x2="144.44" y2="43">
</line>
<line class="cls-12" x1="71" y1="39" x2="144.44" y2="39">
</line>
<line class="cls-12" x1="71" y1="35" x2="144.44" y2="35">
</line>
<line class="cls-12" x1="71" y1="31" x2="144.44" y2="31">
</line>
<line class="cls-12" x1="71" y1="27" x2="144.44" y2="27">
</line>
<line class="cls-12" x1="71" y1="23" x2="144.44" y2="23">
</line>
<line class="cls-12" x1="71" y1="19" x2="144.44" y2="19">
</line>
<line class="cls-12" x1="71" y1="15" x2="144.44" y2="15">
</line>
<line class="cls-12" x1="71" y1="11" x2="144.44" y2="11">
</line>
<line class="cls-12" x1="71" y1="7" x2="144.44" y2="7">
</line>
<line class="cls-12" x1="71" y1="3" x2="144.44" y2="3">
</line>
</g>
<g >
<line class="cls-12" x1="-1" y1="71" x2="72.44" y2="71">
</line>
<line class="cls-12" x1="-1" y1="67" x2="72.44" y2="67">
</line>
<line class="cls-12" x1="-1" y1="63" x2="72.44" y2="63">
</line>
<line class="cls-12" x1="-1" y1="59" x2="72.44" y2="59">
</line>
<line class="cls-12" x1="-1" y1="55" x2="72.44" y2="55">
</line>
<line class="cls-12" x1="-1" y1="51" x2="72.44" y2="51">
</line>
<line class="cls-12" x1="-1" y1="47" x2="72.44" y2="47">
</line>
<line class="cls-12" x1="-1" y1="43" x2="72.44" y2="43">
</line>
<line class="cls-12" x1="-1" y1="39" x2="72.44" y2="39">
</line>
<line class="cls-12" x1="-1" y1="35" x2="72.44" y2="35">
</line>
<line class="cls-12" x1="-1" y1="31" x2="72.44" y2="31">
</line>
<line class="cls-12" x1="-1" y1="27" x2="72.44" y2="27">
</line>
<line class="cls-12" x1="-1" y1="23" x2="72.44" y2="23">
</line>
<line class="cls-12" x1="-1" y1="19" x2="72.44" y2="19">
</line>
<line class="cls-12" x1="-1" y1="15" x2="72.44" y2="15">
</line>
<line class="cls-12" x1="-1" y1="11" x2="72.44" y2="11">
</line>
<line class="cls-12" x1="-1" y1="7" x2="72.44" y2="7">
</line>
<line class="cls-12" x1="-1" y1="3" x2="72.44" y2="3">
</line>
<line class="cls-12" x1="1.04" y1="69" x2="74.48" y2="69">
</line>
<line class="cls-12" x1="1.04" y1="65" x2="74.48" y2="65">
</line>
<line class="cls-12" x1="1.04" y1="61" x2="74.48" y2="61">
</line>
<line class="cls-12" x1="1.04" y1="57" x2="74.48" y2="57">
</line>
<line class="cls-12" x1="1.04" y1="53" x2="74.48" y2="53">
</line>
<line class="cls-12" x1="1.04" y1="49" x2="74.48" y2="49">
</line>
<line class="cls-12" x1="1.04" y1="45" x2="74.48" y2="45">
</line>
<line class="cls-12" x1="1.04" y1="41" x2="74.48" y2="41">
</line>
<line class="cls-12" x1="1.04" y1="37" x2="74.48" y2="37">
</line>
<line class="cls-12" x1="1.04" y1="33" x2="74.48" y2="33">
</line>
<line class="cls-12" x1="1.04" y1="29" x2="74.48" y2="29">
</line>
<line class="cls-12" x1="1.04" y1="25" x2="74.48" y2="25">
</line>
<line class="cls-12" x1="1.04" y1="21" x2="74.48" y2="21">
</line>
<line class="cls-12" x1="1.04" y1="17" x2="74.48" y2="17">
</line>
<line class="cls-12" x1="1.04" y1="13" x2="74.48" y2="13">
</line>
<line class="cls-12" x1="1.04" y1="9" x2="74.48" y2="9">
</line>
<line class="cls-12" x1="1.04" y1="5" x2="74.48" y2="5">
</line>
<line class="cls-12" x1="1.04" y1="1" x2="74.48" y2="1">
</line>
</g>
<g >
<line class="cls-12" x1="-73" y1="71" x2=".44" y2="71">
</line>
<line class="cls-12" x1="-73" y1="67" x2=".44" y2="67">
</line>
<line class="cls-12" x1="-73" y1="63" x2=".44" y2="63">
</line>
<line class="cls-12" x1="-73" y1="59" x2=".44" y2="59">
</line>
<line class="cls-12" x1="-73" y1="55" x2=".44" y2="55">
</line>
<line class="cls-12" x1="-73" y1="51" x2=".44" y2="51">
</line>
<line class="cls-12" x1="-73" y1="47" x2=".44" y2="47">
</line>
<line class="cls-12" x1="-73" y1="43" x2=".44" y2="43">
</line>
<line class="cls-12" x1="-73" y1="39" x2=".44" y2="39">
</line>
<line class="cls-12" x1="-73" y1="35" x2=".44" y2="35">
</line>
<line class="cls-12" x1="-73" y1="31" x2=".44" y2="31">
</line>
<line class="cls-12" x1="-73" y1="27" x2=".44" y2="27">
</line>
<line class="cls-12" x1="-73" y1="23" x2=".44" y2="23">
</line>
<line class="cls-12" x1="-73" y1="19" x2=".44" y2="19">
</line>
<line class="cls-12" x1="-73" y1="15" x2=".44" y2="15">
</line>
<line class="cls-12" x1="-73" y1="11" x2=".44" y2="11">
</line>
<line class="cls-12" x1="-73" y1="7" x2=".44" y2="7">
</line>
<line class="cls-12" x1="-73" y1="3" x2=".44" y2="3">
</line>
<line class="cls-12" x1="-70.96" y1="69" x2="2.48" y2="69">
</line>
<line class="cls-12" x1="-70.96" y1="65" x2="2.48" y2="65">
</line>
<line class="cls-12" x1="-70.96" y1="61" x2="2.48" y2="61">
</line>
<line class="cls-12" x1="-70.96" y1="57" x2="2.48" y2="57">
</line>
<line class="cls-12" x1="-70.96" y1="53" x2="2.48" y2="53">
</line>
<line class="cls-12" x1="-70.96" y1="49" x2="2.48" y2="49">
</line>
<line class="cls-12" x1="-70.96" y1="45" x2="2.48" y2="45">
</line>
<line class="cls-12" x1="-70.96" y1="41" x2="2.48" y2="41">
</line>
<line class="cls-12" x1="-70.96" y1="37" x2="2.48" y2="37">
</line>
<line class="cls-12" x1="-70.96" y1="33" x2="2.48" y2="33">
</line>
<line class="cls-12" x1="-70.96" y1="29" x2="2.48" y2="29">
</line>
<line class="cls-12" x1="-70.96" y1="25" x2="2.48" y2="25">
</line>
<line class="cls-12" x1="-70.96" y1="21" x2="2.48" y2="21">
</line>
<line class="cls-12" x1="-70.96" y1="17" x2="2.48" y2="17">
</line>
<line class="cls-12" x1="-70.96" y1="13" x2="2.48" y2="13">
</line>
<line class="cls-12" x1="-70.96" y1="9" x2="2.48" y2="9">
</line>
<line class="cls-12" x1="-70.96" y1="5" x2="2.48" y2="5">
</line>
<line class="cls-12" x1="-70.96" y1="1" x2="2.48" y2="1">
</line>
</g>
</g>
</pattern>
</defs>

  <path
     id="path7641-4"
     style="fill:#782ab5;fill-opacity:1;stroke:#4d4d4d;stroke-width:1.62226;stop-color:#000000"
     d="M 34.900259,1.6936052 C 14.323312,9.5265586 1.6299002,23.954051 1.5689773,39.580572 V 79.197446 H 67.963672 V 39.580572 C 67.958188,23.990066 55.374427,9.5708664 34.900259,1.6936052 Z"/>
  <path
     id="path7641-7"
     style="fill:#808080;stroke:#4d4d4d;stroke-width:1.48325;stop-color:#000000"
     d="M 34.629293,5.0425238 C 15.815619,12.204258 4.1542243,25.395327 4.1542243,39.682894 V 76.559207 H 64.859448 V 39.682894 c 0,-14.254531 -11.510452,-27.438125 -30.230155,-34.6403702 z m -0.01233,3.4358455 C 51.537073,14.988239 61.941622,26.904418 61.941622,39.788613 v 33.82806 H 7.07205 v -33.82806 c 0,-12.914055 10.539857,-24.836991 27.544909,-31.3102437 z"/>
  <path
     id="path7641-7-8"
     style="fill:#808080;stroke:#4d4d4d;stroke-width:1.35027;stop-color:#000000"
     d="M 34.618314,8.2461803 C 17.491429,14.76581 6.8755673,26.7742 6.8755673,39.780777 v 33.57007 H 62.138105 v -33.57007 c 0,-12.976504 -10.478452,-24.978088 -27.519791,-31.5345967 z m -0.01123,3.1277957 c 15.403093,5.926211 24.874795,16.774013 24.874795,28.503041 V 70.672134 H 9.5317874 V 39.877017 c 0,-11.75621 9.5948786,-22.610165 25.0752986,-28.503041 z"/>
  <path
     id="path7641-7-8-0"
     style="fill:#808080;stroke:#4d4d4d;stroke-width:1.21411;stop-color:#000000"
     d="M 34.607073,11.526302 C 19.207238,17.388502 9.6618637,28.185984 9.6618637,39.880997 V 70.06591 H 59.351809 V 39.880997 c 0,-11.667973 -9.421821,-22.459335 -24.744736,-28.354695 z m -0.0101,2.812393 c 13.849868,5.328621 22.366458,15.082547 22.366458,25.628837 V 67.657315 H 12.050234 V 39.967532 c 0,-10.570731 8.627346,-20.33019 22.546743,-25.628837 z"/>


<g id="Characters">
<g >
<path class="cls-1" d="M60.76,73.01s-2.86,3.13-21.04,4.06c-9.93,.28-18.91-1.46-24.52-2.91-3.77-.96-6.02-1.8-6.02-1.8,0,0-10.89-21.59-3.97-29.8,6.46-4.62,6.74-6.92,6.92-8.49s-.74-8.31,1.48-13.29c3.13-5.44,8.21-5.44,8.21-5.44,0,0,.37-2.86,5.26-5.17,6.55-3.23,13.75,3.14,13.75,3.14,0,0,11.44,4.52,13.1,10.88,1.41,5.56-1.28,7.68-1.84,8.06l-.1,.06s.19,1.11,.28,4.71c7.93,4.24,5.35,7.66,4.61,9.41s-1.57,6,1.57,7.2c-.92,.55-4.61,2.12-5.81-2.31-1.02,1.2-.83,4.62,.46,6.74,1.29,2.12,.37,3.69,.37,3.69l1.23,.57,5.32,2.47,.74,8.22Z">
</path>
<path class="cls-2" d="M35.16,55.92V24.48s3.79,.99,5.27,1.89,5.85,3.09,8.64,2.62c-.66,5.53-.99,6.93-.99,6.93,0,0,.82,2.06,.58,4.44s-2.47,8.64-3.29,9.88-6.75,5.84-10.21,5.68Z">
</path>
<path d="M52.09,32.25l-.1,.06s.46-1.07-1.01-1.52c-1.36-.42-2.34,1.52-2.47,1.78,.05-.15,.26-.92,.56-3.58-2.03-.12-7.11-1.36-9.48-2.71-2.37-1.35-5.98-3.05-11.28-1.58,.68,5.98-1.13,14.78-5.64,19.29,.34,3.27,3.38,7.67,3.38,7.67l-.34,2.03s4.4,4.07,3.39,11.17c-1.69,7.56-11.4,8.8-11.4,8.8l-2.5,.5c-3.77-.96-6.02-1.8-6.02-1.8,0,0-10.89-21.59-3.97-29.8,6.46-4.62,6.74-6.92,6.92-8.49s-.74-8.31,1.48-13.29c3.13-5.44,8.21-5.44,8.21-5.44,0,0,.37-2.86,5.26-5.17,6.55-3.23,13.75,3.14,13.75,3.14,0,0,11.44,4.52,13.1,10.88,1.41,5.56-1.28,7.68-1.84,8.06Z">
</path>
<path d="M52.64,51.32c-1.02,1.2-.83,4.62,.46,6.74,1.29,2.12,.37,3.69,.37,3.69l1.23,.57-.21,.15-10.41-5.3v-5.34s1.23-1.05,2.02-2.89c.79-1.84,2.54-7.36,2.54-7.36,0,0,2.62-2.38,3.63-4.56,7.93,4.24,5.35,7.66,4.61,9.41s-1.57,6,1.57,7.2c-.92,.55-4.61,2.12-5.81-2.31Z">
</path>
<path class="cls-13" d="M13.69,25s.34,6.62,4.1,4.44,6.55,6.35,9.62,2.32c.41,6.07-4.16,9.08-4.16,9.08,0,0,1.98-8.87-3.82-7.37s-6.76-2.12-6.76-2.12c0,0-1.43-4.16,1.02-6.35Z">
</path>
<path class="cls-13" d="M53.61,24.24s-.9-4.89-6.69-8.27c.15,4.36-7.37,5.04-10.23,1.8s-7.82-3.91-12.56-1.2c3.91-.75,8.42-1.65,11.73,3.23s13.46-.45,17.75,4.44Z">
</path>
<path class="cls-13" d="M57.3,43.19s-1.73,3.91-4.44,3.01-5.79,0-5.79,0l-1.28,2.93s4.51-3.46,7.14-.75c1.88,2.18,3.38,1.43,3.38,1.43,0,0,1.13-5.79,.98-6.62Z">
</path>
<path class="cls-13" d="M27.74,56.66s-2.71,5.26-7.3,1.43-8.12-10.53-15.64-7.22c1.13,6.47,2.03,10.08,2.03,10.08,0,0,4.81-9.48,10.23-3.01s10.98,2.33,12.26,4.14c.15-2.78-1.58-5.41-1.58-5.41Z">
</path>
<path class="cls-3" d="M28.17,33.47s2.4-.29,2.8,2.8c-1.43,1.2-4.06,1.26-4.06,1.26,0,0,.69-3.55,1.26-4.06Z">
</path>
<path class="cls-3" d="M39.2,36.34s.53-2.81,2.67-2.74c2.34,.4,4.01,.6,4.01,.6,0,0,.47,1.67-1,2.81s-5.21,.2-5.68-.67Z">
</path>
<path class="cls-17" d="M30.42,46.45s1.28,4.08,4.57,3.96,4.87-3.53,4.87-3.53c0,0-4.38-2.25-9.44-.43Z">
</path>
<path class="cls-2" d="M31.78,46.5c-.17-.11,1.14-1.14,3.01-1.27s3.61,1.27,3.61,1.27c0,0-2.94,2.41-6.62,0Z">
</path>
<path class="cls-4" d="M38.36,31.8l.84,4.54s.25-2.6,3.59-2.75c2.24,.5,3.58,.3,3.58,.3l.7-2.84s-1.15-1.24-3.14-.85-5.58,1.59-5.58,1.59Z">
</path>
<path class="cls-4" d="M32.32,31.64l-1.35,4.63s-.8-2.71-2.88-2.6c.43-1.82,.59-3,.59-3l3.64,.96Z">
</path>
<path d="M43.76,52.55l-17.6,16.77s5.47-5.34,1.59-12.67c-2-2.64-2.21-3.79-2.21-3.79l.52-1.21s6.04,4.33,8.12,4.33,3.75-.52,3.75-.52l5.83-2.92Z">
</path>
<path class="cls-2" d="M49.07,32.25s2.9,1.36,2.09,6.62c2.45-4.35,1-10.16-2.09-6.62Z">
</path>
<path class="cls-1" d="M32.7,25.66h0c2.2,0,4.3,.9,8.12,2.52l1.61,.69c1.76,.75,3.38,1.23,4.83,1.43-.21,1.87-.5,4.34-.61,5.06l-.02,.12-.05,.3,.13,.28,.03,.07c1.17,3.39-.48,7.97-1.36,10.43l-.31,.86c-.57,1.7-1.61,3.6-7.38,6.47-.75,.38-1.6,.58-2.46,.58s-1.7-.2-2.46-.58c-5.76-2.87-6.81-4.77-7.38-6.46-.08-.24-.17-.51-.28-.81l-.03-.07c-.24-.64-.53-1.45-.8-2.35,1.04-.94,1.95-2.12,2.73-3.5,2.61-4.66,3.31-11.09,2.89-14.66,1.07-.27,1.95-.4,2.79-.4m0-1c-1.17,0-2.4,.22-3.92,.68,.59,2.79,.23,9.79-2.63,14.89-.85,1.51-1.86,2.73-3,3.65,.33,1.15,.7,2.19,1.01,3.03,.11,.31,.21,.59,.29,.84,.65,1.9,1.79,4.01,7.89,7.05,.91,.45,1.91,.68,2.9,.68s1.99-.23,2.9-.68c6.09-3.04,7.24-5.15,7.88-7.05,.09-.25,.19-.53,.3-.84,.93-2.59,2.66-7.42,1.35-11.14l-.05-.11,.02-.12c.14-.94,.55-4.52,.73-6.12-1.38-.07-3.19-.46-5.55-1.46l-1.61-.69c-3.96-1.69-6.12-2.61-8.52-2.61h0Z">
</path>
<path class="cls-2" d="M42.62,59.33l18.13,7.71-1.5,5.92s-23.36,4.21-36.9,1.5c6.82-1.4,8.02-7.32,8.02-7.32l5.52-5.41s2.2-.14,4.16-.78c1.25-.41,2.58-1.62,2.58-1.62Z">
</path>
<path class="cls-10" d="M48.95,28.69s-.64,5.69-.82,6.92c1.53,4.33-.82,9.9-1.64,12.3-.65,1.92-1.8,4.17-8.13,7.32-1.96,.98-4.29,.98-6.25,0-6.33-3.16-7.47-5.4-8.13-7.32-.33-.97-.91-2.45-1.38-4.16">
</path>
<path class="cls-8" d="M52,27.76s-1.64,2.85-8.98-.25-9.25-4.26-14.82-2.49c1.08,3.43-.01,18.04-8.77,20.2">
</path>
<path class="cls-8" d="M52.17,32.29s4.34-3.81,.53-10.53-12.13-8.41-12.13-8.41c0,0-3.81-3.63-9.38-4.16-5.58-.53-9.47,6.11-9.47,6.11,0,0-5.87,.25-8.59,6.76s.78,11.27-2.14,15.26-5.44,4.28-6.61,6.71">
</path>
<path class="cls-8" d="M48.66,32.41s.98-1.77,2.26-1.41,3.04,7.15-2.4,10.87">
</path>
<path class="cls-8" d="M52.14,36.74l3.67,2.81c1.83,1.41,2.5,3.05,1.28,6.29s-1.22,7.03,1.34,7.82c-3.6,2.32-5.68-2.38-5.68-2.38,0,0-1.71,1.71-.37,4.83s1.89,3.97,1.04,5.38">
</path>
<path class="cls-8" d="M44.14,51.65l-.31,5.31s11.91,6.41,16.68,8.25">
</path>
<path class="cls-8" d="M24.7,52.67s5.93,5.73,4.37,12.15-7.1,8.46-13.22,8.46">
</path>
<path class="cls-8" d="M9.88,55.72s-2.78,1.3-3.48,5.05">
</path>
<line class="cls-8" x1="26.05" y1="51.44" x2="26.05" y2="53.86">
</line>
<path d="M34.91,43.4c-1.74,0-3.23,.78-4.22,2.16s-1.64,.89-1.64,.89c0,0,.17,1.34,2.09,.52s2.39-.99,3.84-.99h.21c1.45,0,1.92,.17,3.84,.99s2.09-.52,2.09-.52c0,0-.65,.49-1.64-.89s-2.48-2.16-4.22-2.16h-.35Z">
</path>
<path class="cls-8" d="M31.8,46.35s1.74,1.35,3.44,1.35c1.71,0,3.44-1.35,3.44-1.35">
</path>
<path d="M32.35,49.29c.96,.32,1.91,.71,2.89,.73,.97-.02,1.93-.41,2.89-.73-1.42,2-4.35,1.99-5.77,0h0Z">
</path>
<path d="M32.21,38.71c-.62,.85,.05,1.55,.71,1.95,1.63,1.01,4.29,.82,5.35-.9,.17-.32,.04-.76-.24-1.13,.42,.17,.84,.65,.76,1.25-.63,2.67-4.53,3.18-6.37,1.45-.8-.61-1.32-2.08-.21-2.62h0Z">
</path>
<path d="M39.22,36.51c-.18-1.88,1.35-3.59,3.32-3.34,1.75,.09,2.93,1.1,4.63,.35-.36,.86-1.48,1.24-2.35,1.1-2.63-.63-4.57-1.27-5.6,1.9h0Z">
</path>
<path d="M45.93,35.41c-.59,2.64-4.14,2.86-5.97,1.37,2.16,.32,4.42,.53,5.97-1.37h0Z">
</path>
<path d="M47.13,31.04c-2.92-1.16-5.77,.67-8.67,1.18,0,0-.3-.95-.3-.95,2.75-.85,6.56-2.69,8.97-.22h0Z">
</path>
<path d="M27.88,34.12c1.4-.13,2.47,.31,3.15,2.39,.17-1.81-1.24-3.47-3.11-3.35-.01,.31-.02,.64-.04,.96Z">
</path>
<path d="M27.13,37.68c1.11,.11,2.31-.22,3.15-.9-.96,.15-1.95,.27-2.89,.18-.07,.25-.15,.49-.26,.72Z">
</path>
<path d="M28.17,29.89c.03,.35,.07,.74,.1,1.16,1.31,.37,2.61,.87,3.92,1.1l.3-.95c-1.29-.4-2.81-1.01-4.32-1.31Z">
</path>
<path d="M28.77,59.18c1.37,.71,3.44,1.4,6.3,1.4,5.86,0,8.97-3.79,8.97-3.79v-2.63s-3.11,3.79-8.97,3.79-8.42-2.91-8.42-2.91l2.12,4.14Z">
</path>
<g >
<path d="M36.99,74.16l2.33,1.89c5.8-7.15,7.57-13.55,8.08-17.28l-2.86-1.45c-.27,2.98-1.57,9.48-7.55,16.84Z">
</path>
<path d="M43.67,74.32l2.39,1.81c4.27-5.63,6.18-10.74,7.01-14.5l-2.79-1.41c-.66,3.44-2.36,8.49-6.61,14.1Z">
</path>
<path d="M50.35,74.48l2.44,1.73c3.11-4.38,4.86-8.42,5.84-11.77l-2.75-1.39c-.85,3.17-2.48,7.12-5.53,11.43Z">
</path>
</g>
</g>
</g>
  <g
     id="g20645">
    <path
       style="fill:#808080;stroke:#4d4d4d;stroke-width:0.937908;stop-color:#000000;fill-opacity:1"
       d="m 9.541565,65.883425 a 5.4759801,5.4759801 0 0 1 5.47598,5.475981 5.4759801,5.4759801 0 0 1 -5.47598,5.47598 5.4759801,5.4759801 0 0 1 -5.4759806,-5.47598 5.4759801,5.4759801 0 0 1 5.4759806,-5.475981 z"/>
    <path
       style="fill:#808080;stroke:#4d4d4d;stroke-width:0.937908;stop-color:#000000;fill-opacity:1"
       d="m 59.472108,65.883425 a 5.4759801,5.4759801 0 0 1 5.47598,5.475981 5.4759801,5.4759801 0 0 1 -5.47598,5.47598 5.4759801,5.4759801 0 0 1 -5.475981,-5.47598 5.4759801,5.4759801 0 0 1 5.475981,-5.475981 z"/>
    <path
       id="path7641"
       style="fill:#808080;stroke:#4d4d4d;stroke-width:1.64416;stop-color:#000000"
       d="M 34.642578,1.1660156 C 13.787845,9.1047124 0.86132813,23.726855 0.86132812,39.564453 V 79.340489 H 68.152344 V 39.564453 c 0,-15.800978 -12.759199,-30.4148342 -33.509766,-38.3984374 z m -0.01367,3.8085938 C 53.384648,12.190722 64.917969,25.399665 64.917969,39.681641 v 26.507812 c -1.368656,-1.44106 -3.300993,-2.341797 -5.445313,-2.341797 -4.14856,0 -7.511718,3.363159 -7.511718,7.511719 0,2.347008 1.075662,4.442843 2.761718,5.820313 H 14.269531 c 1.756069,-1.422629 2.778281,-3.560307 2.783203,-5.820313 4.8e-5,-4.148627 -3.363091,-7.511766 -7.5117184,-7.511719 -2.0622939,0.0062 -4.0313164,0.860092 -5.4453125,2.361328 V 39.681641 c 0,-14.315076 11.6833059,-27.531508 30.5332029,-34.7070316 z"/>
    <circle
       style="fill:#4d4d4d;fill-opacity:1;stroke:#4d4d4d;stop-color:#000000"
       id="path16431"
       cx="9.6010828"
       cy="71.229652"
       r="5.06003" />
    <circle
       style="fill:#4d4d4d;fill-opacity:1;stroke:#4d4d4d;stop-color:#000000"
       id="path16431-3"
       cx="59.42292"
       cy="71.229652"
       r="5.06003" />
  </g>
</svg>
