<?xml version="1.0" encoding="UTF-8"?><svg id="Capa_2" xmlns="http://www.w3.org/2000/svg" xmlns:xlink="http://www.w3.org/1999/xlink" viewBox="0 0 69.02 80"><defs><style>.cls-1{fill:#c89aed;}.cls-2{fill:#fff;}.cls-3{fill:#f8ffbf;}.cls-4{fill:#7b7be8;}.cls-5{fill:#a88347;}.cls-6,.cls-7,.cls-8,.cls-9,.cls-10,.cls-11,.cls-12,.cls-13{fill:none;}.cls-6,.cls-7,.cls-8,.cls-10{stroke-miterlimit:10;}.cls-6,.cls-7,.cls-8,.cls-10,.cls-13{stroke:#000;}.cls-6,.cls-8,.cls-9,.cls-10,.cls-13{stroke-linecap:round;}.cls-6,.cls-13{stroke-width:.98px;}.cls-14{fill:#782ab5;}.cls-8{stroke-width:.97px;}.cls-9{stroke:#deb778;stroke-dasharray:0 0 0 4.06;}.cls-9,.cls-13{stroke-linejoin:round;}.cls-15{fill:#deb778;}.cls-10{stroke-width:.99px;}.cls-16{fill:url(#USGS_19_Inundación_de_tierra_2);}.cls-12{stroke:#1d1d1b;stroke-dasharray:0 0 2 2;stroke-width:.3px;}.cls-17{fill:#fcf0c5;}.cls-18{fill:#b83521;}</style><pattern id="USGS_19_Inundación_de_tierra_2" x="0" y="0" width="72" height="72" patternTransform="translate(-20.48 -16135) rotate(-90)" patternUnits="userSpaceOnUse" viewBox="0 0 72 72"><g><rect class="cls-11" width="72" height="72"/><g><line class="cls-12" x1="71" y1="71" x2="144.44" y2="71"/><line class="cls-12" x1="71" y1="67" x2="144.44" y2="67"/><line class="cls-12" x1="71" y1="63" x2="144.44" y2="63"/><line class="cls-12" x1="71" y1="59" x2="144.44" y2="59"/><line class="cls-12" x1="71" y1="55" x2="144.44" y2="55"/><line class="cls-12" x1="71" y1="51" x2="144.44" y2="51"/><line class="cls-12" x1="71" y1="47" x2="144.44" y2="47"/><line class="cls-12" x1="71" y1="43" x2="144.44" y2="43"/><line class="cls-12" x1="71" y1="39" x2="144.44" y2="39"/><line class="cls-12" x1="71" y1="35" x2="144.44" y2="35"/><line class="cls-12" x1="71" y1="31" x2="144.44" y2="31"/><line class="cls-12" x1="71" y1="27" x2="144.44" y2="27"/><line class="cls-12" x1="71" y1="23" x2="144.44" y2="23"/><line class="cls-12" x1="71" y1="19" x2="144.44" y2="19"/><line class="cls-12" x1="71" y1="15" x2="144.44" y2="15"/><line class="cls-12" x1="71" y1="11" x2="144.44" y2="11"/><line class="cls-12" x1="71" y1="7" x2="144.44" y2="7"/><line class="cls-12" x1="71" y1="3" x2="144.44" y2="3"/></g><g><line class="cls-12" x1="-1" y1="71" x2="72.44" y2="71"/><line class="cls-12" x1="-1" y1="67" x2="72.44" y2="67"/><line class="cls-12" x1="-1" y1="63" x2="72.44" y2="63"/><line class="cls-12" x1="-1" y1="59" x2="72.44" y2="59"/><line class="cls-12" x1="-1" y1="55" x2="72.44" y2="55"/><line class="cls-12" x1="-1" y1="51" x2="72.44" y2="51"/><line class="cls-12" x1="-1" y1="47" x2="72.44" y2="47"/><line class="cls-12" x1="-1" y1="43" x2="72.44" y2="43"/><line class="cls-12" x1="-1" y1="39" x2="72.44" y2="39"/><line class="cls-12" x1="-1" y1="35" x2="72.44" y2="35"/><line class="cls-12" x1="-1" y1="31" x2="72.44" y2="31"/><line class="cls-12" x1="-1" y1="27" x2="72.44" y2="27"/><line class="cls-12" x1="-1" y1="23" x2="72.44" y2="23"/><line class="cls-12" x1="-1" y1="19" x2="72.44" y2="19"/><line class="cls-12" x1="-1" y1="15" x2="72.44" y2="15"/><line class="cls-12" x1="-1" y1="11" x2="72.44" y2="11"/><line class="cls-12" x1="-1" y1="7" x2="72.44" y2="7"/><line class="cls-12" x1="-1" y1="3" x2="72.44" y2="3"/><line class="cls-12" x1="1.04" y1="69" x2="74.48" y2="69"/><line class="cls-12" x1="1.04" y1="65" x2="74.48" y2="65"/><line class="cls-12" x1="1.04" y1="61" x2="74.48" y2="61"/><line class="cls-12" x1="1.04" y1="57" x2="74.48" y2="57"/><line class="cls-12" x1="1.04" y1="53" x2="74.48" y2="53"/><line class="cls-12" x1="1.04" y1="49" x2="74.48" y2="49"/><line class="cls-12" x1="1.04" y1="45" x2="74.48" y2="45"/><line class="cls-12" x1="1.04" y1="41" x2="74.48" y2="41"/><line class="cls-12" x1="1.04" y1="37" x2="74.48" y2="37"/><line class="cls-12" x1="1.04" y1="33" x2="74.48" y2="33"/><line class="cls-12" x1="1.04" y1="29" x2="74.48" y2="29"/><line class="cls-12" x1="1.04" y1="25" x2="74.48" y2="25"/><line class="cls-12" x1="1.04" y1="21" x2="74.48" y2="21"/><line class="cls-12" x1="1.04" y1="17" x2="74.48" y2="17"/><line class="cls-12" x1="1.04" y1="13" x2="74.48" y2="13"/><line class="cls-12" x1="1.04" y1="9" x2="74.48" y2="9"/><line class="cls-12" x1="1.04" y1="5" x2="74.48" y2="5"/><line class="cls-12" x1="1.04" y1="1" x2="74.48" y2="1"/></g><g><line class="cls-12" x1="-73" y1="71" x2=".44" y2="71"/><line class="cls-12" x1="-73" y1="67" x2=".44" y2="67"/><line class="cls-12" x1="-73" y1="63" x2=".44" y2="63"/><line class="cls-12" x1="-73" y1="59" x2=".44" y2="59"/><line class="cls-12" x1="-73" y1="55" x2=".44" y2="55"/><line class="cls-12" x1="-73" y1="51" x2=".44" y2="51"/><line class="cls-12" x1="-73" y1="47" x2=".44" y2="47"/><line class="cls-12" x1="-73" y1="43" x2=".44" y2="43"/><line class="cls-12" x1="-73" y1="39" x2=".44" y2="39"/><line class="cls-12" x1="-73" y1="35" x2=".44" y2="35"/><line class="cls-12" x1="-73" y1="31" x2=".44" y2="31"/><line class="cls-12" x1="-73" y1="27" x2=".44" y2="27"/><line class="cls-12" x1="-73" y1="23" x2=".44" y2="23"/><line class="cls-12" x1="-73" y1="19" x2=".44" y2="19"/><line class="cls-12" x1="-73" y1="15" x2=".44" y2="15"/><line class="cls-12" x1="-73" y1="11" x2=".44" y2="11"/><line class="cls-12" x1="-73" y1="7" x2=".44" y2="7"/><line class="cls-12" x1="-73" y1="3" x2=".44" y2="3"/><line class="cls-12" x1="-70.96" y1="69" x2="2.48" y2="69"/><line class="cls-12" x1="-70.96" y1="65" x2="2.48" y2="65"/><line class="cls-12" x1="-70.96" y1="61" x2="2.48" y2="61"/><line class="cls-12" x1="-70.96" y1="57" x2="2.48" y2="57"/><line class="cls-12" x1="-70.96" y1="53" x2="2.48" y2="53"/><line class="cls-12" x1="-70.96" y1="49" x2="2.48" y2="49"/><line class="cls-12" x1="-70.96" y1="45" x2="2.48" y2="45"/><line class="cls-12" x1="-70.96" y1="41" x2="2.48" y2="41"/><line class="cls-12" x1="-70.96" y1="37" x2="2.48" y2="37"/><line class="cls-12" x1="-70.96" y1="33" x2="2.48" y2="33"/><line class="cls-12" x1="-70.96" y1="29" x2="2.48" y2="29"/><line class="cls-12" x1="-70.96" y1="25" x2="2.48" y2="25"/><line class="cls-12" x1="-70.96" y1="21" x2="2.48" y2="21"/><line class="cls-12" x1="-70.96" y1="17" x2="2.48" y2="17"/><line class="cls-12" x1="-70.96" y1="13" x2="2.48" y2="13"/><line class="cls-12" x1="-70.96" y1="9" x2="2.48" y2="9"/><line class="cls-12" x1="-70.96" y1="5" x2="2.48" y2="5"/><line class="cls-12" x1="-70.96" y1="1" x2="2.48" y2="1"/></g></g></pattern></defs><g id="BG"><g><path class="cls-14" d="M64.02,40c0,11.47-1.89,22.39-5.5,31.74-7.2,2.16-14.94,3.26-23.02,3.26-.49,0-.98-.01-1.47-.02h-.17c-8.18-.15-16.29-1.47-23.6-3.85-3.45-9.22-5.26-19.93-5.26-31.13s1.89-22.38,5.48-31.73c6.73-2.01,14.13-3.13,21.6-3.26,.48-.01,.97-.01,1.45-.01,.54,0,1.08,.01,1.63,.02,8.16,.15,16.27,1.47,23.59,3.84,3.46,9.24,5.27,19.95,5.27,31.14Z"/><path class="cls-16" d="M34.03,5.59V74.98h-.17c-8.18-.15-16.29-1.47-23.6-3.85-3.45-9.22-5.26-19.93-5.26-31.13s1.89-22.38,5.48-31.73c6.73-2.01,14.13-3.13,21.6-3.26,.65,.16,1.3,.36,1.95,.58Z"/></g></g><g id="Characters"><g><path class="cls-1" d="M60.97,65.77l-1.64,8.6-24.98,3.37-25.49-5.93v-6.56l11.67-3.68,1.44-6.25s-1.95-1.23-2.46-2.15-1.74-5.42-1.74-5.42c0,0-2.46-.93-3.59-4.61-1.12-3.69-.81-7.78-.81-7.78l2.09,1.55,.26,.19-.82-4.61s2.56-11.06,6.96-14.43c9.73-3.49,21.4-2.15,25.29-.21,5.02,4.71,7.47,13.21,7.17,14.95-.1,.55-.27,1.27-.46,1.99-.39,1.55-.87,3.13-.87,3.13l2.66-2.66s.1,5.01-.92,7.88c-1.03,2.87-2.66,3.89-2.66,3.89l-2.36,6.76-1.74,1.53,1.64,6.45,11.36,4Z"/><path class="cls-2" d="M34.63,60.09V22.03h7.47l3.55-2.63s5.57,7.9,6.79,13.17c1.22,5.88-.71,17.83-2.84,21.38-5.57,4.15-8.71,5.27-8.71,5.27,0,0,.3,1.93-1.52,2.33s-4.73-1.46-4.73-1.46Z"/><path d="M54.32,32.8c-.1,.55-.27,1.27-.46,1.99l-1.09,1.61s-.26-3.5-2.14-8.29c-1.79-5.13-5.56-8.55-5.56-8.55l-2.9,2.65-14.97-.17-3.07-2.4s-3.34,3.85-5.47,7.95c-2.14,4.11-2.06,11.38-2.06,11.38l-1.14-2.06,.26,.19-.82-4.61s2.56-11.06,6.96-14.43c9.73-3.49,21.4-2.15,25.29-.21,5.02,4.71,7.47,13.21,7.17,14.95Z"/><path class="cls-3" d="M22.32,39.74s4.55-1.19,7.78,.33c-.46,1.05-2.64,2.37-4.02,2.44s-3.76-2.77-3.76-2.77Z"/><path class="cls-3" d="M46.86,39.74s-4.55-1.19-7.78,.33c.46,1.05,2.64,2.37,4.02,2.44s3.76-2.77,3.76-2.77Z"/><path class="cls-18" d="M21.16,58.45s4.86,6.22,13.7,6.12c8.75-.19,13.9-6.12,13.9-6.12l.85,3.32,10.72,3.97-1.46,6.51s-13.32,4.08-27.6,3.21-21.58-4.67-21.58-4.67l-1.17-5.25,11.57-3.79,1.07-3.3Z"/><path d="M29.88,64.15s-1.9,3.14-2.09,4.09c3.62,3.24,4.47,4.66,4.47,4.66l-.86,1.24,7.62,.48-1.24-2.09,4.47-4.28s-.76-3.33-2.19-3.81c-3.62,.29-8.19,.38-10.19-.29Z"/><path class="cls-4" d="M19.94,36.28s6.07-5.31,12.23-1.18c-1.43,4.13-2.06,4.96-2.06,4.96,0,0-4.43-1.59-8.48-.41-1.52-1.26-1.69-3.37-1.69-3.37Z"/><path class="cls-4" d="M49.18,36.28s-6.07-5.31-12.23-1.18c1.43,4.13,2.06,4.96,2.06,4.96,0,0,4.43-1.59,8.48-.41,1.52-1.26,1.69-3.37,1.69-3.37Z"/><path d="M40.1,61.25l-16.75,13.28-13.66-3.74-.83-5.54,11.67-3.68,1.44-6.25,5.81,3.65s.6,2.39,3.35,2.27l3.11-.36s4.43,.84,5.86,.36Z"/><path class="cls-1" d="M45.17,21.64c1.92,2.2,6.38,8.25,6.06,16.75-.37,9.73-2.28,13.63-2.73,14.42-.62,.52-3.37,2.8-5.97,4.24,0,0,0,0,0,0h0c-.11-.73-.72-1.26-1.46-1.26-.09,0-.18,0-.24,.02-.4,.06-.76,.28-.99,.61-.22,.32-.32,.71-.25,1.09,.02,.19,.18,1.67-.7,2.27,0,0-.15,.1-.63,.1-.79,0-1.96-.26-3.32-.73-.16-.05-.33-.08-.51-.08s-.36,.04-.49,.08c-1.35,.47-2.53,.73-3.31,.73-.47,0-.62-.09-.62-.09,0,0,0,0,0,0-.26-.18-.46-.44-.58-.81-.02-.12-.05-.24-.09-.35-.11-.51-.06-1-.05-1.12,.06-.39-.03-.77-.26-1.09-.23-.32-.59-.54-.98-.6-.08-.01-.15-.02-.23-.02-.61,0-1.15,.37-1.38,.91-2.32-1.39-4.63-3.28-5.36-3.89-.45-.8-2.36-4.69-2.72-14.42-.32-8.5,4.13-14.55,6.05-16.75l1.86,1.7,.29,.26h16.44l.29-.26,1.86-1.7m.06-1.41l-2.6,2.37h-15.67l-2.6-2.37c-1.46,1.49-7.37,8.18-6.99,18.2,.4,10.72,2.68,14.61,2.95,15.04,.46,.39,3.94,3.32,6.98,4.84-.03-.61,.04-1.07,.04-1.11,.05-.24,.26-.41,.49-.41,.03,0,.05,0,.08,0,.27,.04,.45,.29,.4,.56,0,.01-.11,.76,.08,1.57,.04,.08,.06,.16,.06,.24,.16,.53,.46,1.07,1.01,1.44,.27,.17,.66,.26,1.18,.26,.9,0,2.15-.26,3.64-.78,.05-.02,.11-.03,.16-.03h.01c.06,0,.12,.01,.18,.03,1.48,.52,2.73,.78,3.63,.78,.51,0,.91-.09,1.18-.26,1.5-1.01,1.14-3.23,1.14-3.25-.05-.26,.13-.52,.4-.56,.03,0,.06,0,.09,0,.23,0,.43,.17,.47,.41,0,.05,.11,.67,.02,1.45,3.19-1.37,7.22-4.76,7.71-5.18,.27-.43,2.55-4.3,2.96-15.04,.37-10.02-5.54-16.71-7-18.2h0Z"/><path class="cls-18" d="M10.75,65.73c2.93-.95,7-2.39,9.92-3.23,0,0,.03,.1,.03,.1-1.12,1.81-2.99,1.73-4.73,2.33-1.7,.44-3.42,.77-5.19,.9,0,0-.03-.1-.03-.1h0Z"/><path d="M17.26,39.22s-2.7-3.73-3.8-3.6c-.06,5.79,1.27,10.75,4.31,12.13-.64-4.79-.51-8.53-.51-8.53Z"/><path class="cls-2" d="M28.08,45.55s-4.8,1.42-6.66-1.33c1.87,6.31,5.06,4.26,6.66,1.33Z"/><path class="cls-2" d="M53.84,37.22s1.14,5.25-.13,8.16c2.53-5.38,1.45-9.68,1.45-9.68l-1.33,1.52"/><polyline class="cls-8" points="7.78 66.03 20.38 61.65 21.72 55.77"/><polyline class="cls-8" points="62.22 66.03 49.62 61.65 48.28 55.77"/><path class="cls-6" d="M16.85,39.56s-1.47-3-3.4-4.21c-.3,5.92,1.15,11.29,4.41,12.32"/><path class="cls-6" d="M52.74,38.45c.61-.98,1.6-2.37,2.77-3.1,.28,5.46-.93,10.46-3.68,12"/><path class="cls-10" d="M41.64,59.15c3.52-1.47,8-5.35,8-5.35,0,0,2.64-3.62,3.08-15.36,.44-11.74-7.48-18.9-7.48-18.9l-2.81,2.56h-4.55s-6.18,0-6.18,0h-4.55l-2.81-2.56s-7.92,7.16-7.48,18.9,3.08,15.36,3.08,15.36c0,0,4.49,3.88,8,5.35"/><path class="cls-6" d="M52.9,37.75s1.07-3.62,.99-5.69-2.84-10.16-6.68-14.21c0,0-4.82-1.99-11.74-1.99h-2.03c-6.92,0-11.74,1.99-11.74,1.99-3.84,4.05-6.61,12.15-6.68,14.21s.99,5.69,.99,5.69"/><path class="cls-13" d="M41.06,57.28s.43,2.54-1.35,3.73c-1.12,.75-3.57,.12-5.26-.46h0c-1.69,.59-4.14,1.21-5.26,.46-1.8-1.19-1.36-3.73-1.36-3.73"/><path d="M19.41,36.11c3.07-4.12,8.92-3.85,13.35-2.5,0,0-1.05,2.75-1.05,2.75l-1.44-.62c-3.19-1.25-7.44-1.68-10.06,.93,0,0-.8-.56-.8-.56h0Z"/><path d="M49.04,36.67c-2.62-2.61-6.87-2.18-10.06-.93,0,0-1.44,.62-1.44,.62l-1.05-2.75c4.43-1.35,10.28-1.62,13.35,2.5,0,0-.8,.56-.8,.56h0Z"/><path d="M28.42,41.61c-.74,.59-1.67,1.21-2.69,1.05-1.76-.55-3.33-1.63-4.32-3.24,1.47-.66,3.11-.81,4.64-.69,1.51,.1,2.98,.4,4.44,.84-.24,1.92-1.12,3.91-2.89,4.83-.54,.31-1.15,.42-1.74,.48-.99-.04-1.63-.87-1.98-1.69,.45,.64,1.15,1.36,1.96,1.27,.43-.13,1.05-.29,1.45-.6,1.32-.86,2.01-2.49,2.2-4.01,0,0,.34,.51,.34,.51-2.43-.57-5.19-1.05-7.6-.33,0,0,.23-.62,.23-.62,.77,1.15,2.11,2.23,3.4,2.8,.87,.26,1.79-.22,2.58-.62h0Z"/><path d="M40.67,41.61c.79,.39,1.71,.87,2.58,.62,1.29-.57,2.63-1.65,3.4-2.8,0,0,.23,.62,.23,.62-2.41-.73-5.17-.25-7.6,.33,0,0,.34-.51,.34-.51,.19,1.51,.87,3.14,2.2,4.01,.4,.31,1.02,.47,1.45,.6,.82,.09,1.52-.63,1.96-1.27-.35,.82-.99,1.65-1.98,1.69-.59-.06-1.2-.18-1.74-.48-1.78-.93-2.65-2.91-2.89-4.83,1.45-.44,2.92-.74,4.44-.84,1.53-.12,3.17,.03,4.64,.69-.98,1.61-2.56,2.69-4.32,3.24-1.02,.16-1.95-.46-2.69-1.05h0Z"/><path d="M37.61,37.46c-.91,.33-1.79,.66-2.8,.53-.02-.02-.49-.42-.53-.45,0,0,.58,0,.58,0-.07,.05-.51,.48-.59,.46-1,.11-1.85-.21-2.75-.53,.83,.11,1.82,.21,2.58-.07,0,0-.12,.07-.12,.07,.15-.2,.44-.61,.59-.8,.15,.2,.45,.6,.59,.8,0,0-.12-.07-.12-.07,.76,.28,1.75,.18,2.58,.07h0Z"/><path d="M30.23,30.43c3.08,.31,5.96,.38,9.05,.08-2.79,1.34-6.27,1.26-9.05-.08h0Z"/><path d="M36.8,44.48c2.3,1.42,2.53,4.27-.51,4.86,0,0-1.11,.2-1.11,.2l.79-.9c.25-.32,.68-.79,.55-1.13,0-.01-.07-.05-.07-.05-.2,.02-.56,.29-.85,.57-.42,.41-.84,.98-1.2,1.46-.53-.66-1.24-1.75-2-2.02-.03,0-.04-.01-.03,0-.1,.06-.13,.08-.09,.28,.14,.56,.97,1.34,1.35,1.81,0,0-1.11-.2-1.11-.2-3.03-.58-2.8-3.45-.5-4.86-1.48,1.4-2.01,3.72,.57,4.04,0,0-.33,.71-.33,.71-.36-.35-.65-.7-.85-1.25-.29-.66,.34-1.63,1.13-1.48,1.14,.32,1.58,1.07,2.26,1.84,0,0-.8,0-.8,0,.68-.77,1.12-1.53,2.27-1.84,.8-.15,1.43,.82,1.13,1.48-.2,.55-.5,.9-.86,1.24l-.33-.7c2.6-.35,2.07-2.61,.58-4.04h0Z"/><path d="M41.9,52.64c-.34-.43-.79-1.02-1.32-1.14,0,0,.19-.04,.19-.04-1.22,1.15-2.76,1.76-4.33,2.26,0,0,.2-.11,.2-.11-.7,.63-1.48,1.04-2.34,1.37-.86-.33-1.64-.74-2.34-1.37,0,0,.2,.11,.2,.11-1.57-.5-3.11-1.11-4.33-2.26,0,0,.19,.04,.19,.04-.53,.12-.97,.71-1.32,1.14,.11-.3,.25-.59,.44-.85,.19-.28,.45-.59,.85-.72,0,0,.11,.07,.11,.07,1.32,.83,2.88,1.31,4.38,1.68,.3,.24,.63,.49,1,.69,.32,.18,.65,.33,.99,.46h-.36c.71-.26,1.42-.68,1.99-1.15,1.5-.38,3.07-.85,4.38-1.68,0,0,.11-.07,.11-.07,.72,.28,1.01,.94,1.28,1.58h0Z"/><path d="M38.3,54.42c.52,.22,.4,.87,.02,1.18-1.61,1.43-6.47,1.56-7.58-.5-.08-.26,.06-.5,.24-.6-.21,.42,.12,.64,.43,.76,.77,.45,7.86,.85,6.89-.84h0Z"/><path class="cls-8" d="M20.38,61.65s2.34,9.46,9.71,13.45"/><path class="cls-8" d="M26.89,72.81s0-5.32,3.2-8.58"/><path class="cls-8" d="M21.45,58.66s4.17,5.92,12.75,5.92h1.68c6.7,0,11.3-4.48,12.74-6.06"/><path class="cls-8" d="M39.99,75.1c1.2-.65,2.27-1.44,3.21-2.32,4.19-3.86,5.99-9.31,6.41-10.76"/><path class="cls-8" d="M43.2,72.81s0-5.32-3.2-8.58"/><polyline class="cls-8" points="27.99 68.43 32.31 72.74 31.34 74.63"/><polyline class="cls-8" points="42.02 68.43 37.71 72.74 38.67 74.63"/><line class="cls-8" x1="32.11" y1="72.7" x2="37.71" y2="72.7"/><path class="cls-1" d="M13.92,36.59c1.2,1.5,.95,3.05,1.23,4.74,.22,1.59,.45,3.16,1.04,4.67,0,0-.08,.06-.08,.06-1.02-1.32-1.51-2.95-1.85-4.55-.34-1.61-.48-3.27-.45-4.91h.1Z"/></g></g><g id="Frame"><path class="cls-5" d="M62.56,4.88C54.4,1.94,45.12,.2,35.25,.02c-.57-.01-1.15-.02-1.72-.02C23.88,0,14.77,1.52,6.72,4.21,2.49,14.22,0,26.6,0,40s2.39,25.22,6.45,35.11c8.16,2.94,17.45,4.69,27.32,4.87,.58,.01,1.15,.02,1.73,.02,9.63,0,18.73-1.51,26.78-4.2,4.24-10.01,6.74-22.39,6.74-35.8s-2.4-25.24-6.46-35.12Zm-4.04,66.86c-7.2,2.16-14.94,3.26-23.02,3.26-.49,0-.98-.01-1.47-.02h-.17c-8.18-.15-16.29-1.47-23.6-3.85-3.45-9.22-5.26-19.93-5.26-31.13s1.89-22.38,5.48-31.73c6.73-2.01,14.13-3.13,21.6-3.26,.48-.01,.97-.01,1.45-.01,.54,0,1.08,.01,1.63,.02,8.16,.15,16.27,1.47,23.59,3.84,3.46,9.24,5.27,19.95,5.27,31.14s-1.89,22.39-5.5,31.74Z"/><path class="cls-15" d="M17.21,2.06h0c1.63,.63,2.06,2.75,.81,3.97l-1.26,1.22s8.35-2.37,18.84-1.69h0c-1-1.49-.45-3.52,1.14-4.34l1-.51S28.26-.43,17.21,2.06Z"/><path class="cls-17" d="M21.81,1.66s.7,2.18-.22,3.1c3.77-.41,7.98-.74,11.12-.74-.33-1.33,1.26-3.4,1.26-3.4,0,0-6.17-.26-12.16,1.03Z"/><path class="cls-15" d="M36.25,79.21h0c-1.52-.87-1.62-3.03-.2-4.04l1.43-1.02s-8.61,1.07-18.88-1.19h0c.76,1.63-.09,3.55-1.79,4.11l-1.07,.36s9.19,2.56,20.5,1.78Z"/><path class="cls-17" d="M19.28,77.8s1.76-1.83,1.3-3.09c4.43,.69,9.11,1.14,12.25,1.14-.33,1.33,.44,3.4,.44,3.4,0,0-8-.16-13.99-1.45Z"/><polygon points="47.48 1.77 47.48 6.73 54.49 8.44 54.49 2.62 47.48 1.77"/><line class="cls-7" x1="45.5" y1="1.23" x2="45.5" y2="6.29"/><line class="cls-7" x1="56.47" y1="3.67" x2="56.47" y2="8.73"/><polygon points="47.48 78.74 47.48 73.78 54.49 72.07 54.49 77.88 47.48 78.74"/><line class="cls-7" x1="45.5" y1="79.28" x2="45.5" y2="74.21"/><line class="cls-7" x1="56.47" y1="76.84" x2="56.47" y2="71.77"/><path d="M33.53,1c.56,0,1.14,0,1.7,.02,9.39,.17,18.33,1.74,26.57,4.65,4.07,10.08,6.22,21.94,6.22,34.33s-2.24,24.79-6.49,34.99c-8.12,2.66-16.87,4.01-26.03,4.01-.56,0-1.12,0-1.71-.02-9.25-.17-18.42-1.78-26.58-4.66C3.15,64.25,1,52.39,1,40S3.23,15.21,7.47,5.02C15.6,2.35,24.37,1,33.53,1m0-1C23.88,0,14.77,1.52,6.72,4.21,2.49,14.22,0,26.6,0,40s2.39,25.22,6.45,35.11c8.16,2.94,17.45,4.69,27.32,4.87,.58,.01,1.15,.02,1.73,.02,9.63,0,18.73-1.51,26.78-4.2,4.24-10.01,6.74-22.39,6.74-35.8s-2.4-25.24-6.46-35.12C54.4,1.94,45.12,.2,35.25,.02c-.57,0-1.15-.02-1.72-.02h0Z"/><path class="cls-15" d="M33.53,6c.52,0,1.04,0,1.61,.02,7.87,.14,15.75,1.4,22.84,3.64,3.3,9,5.04,19.47,5.04,30.34s-1.82,21.82-5.26,30.92c-6.98,2.04-14.47,3.08-22.26,3.08-.48,0-.97,0-1.47-.02h-.15c-7.89-.14-15.78-1.41-22.85-3.65-3.29-8.99-5.03-19.46-5.03-30.33s1.81-21.79,5.24-30.91c6.5-1.89,13.7-2.95,20.86-3.08,.47,0,.96,0,1.43,0m0-1c-.48,0-.97,0-1.45,.01-7.47,.13-14.87,1.25-21.6,3.26-3.59,9.35-5.48,20.26-5.48,31.73s1.81,21.91,5.26,31.13c7.31,2.38,15.42,3.7,23.6,3.85h.17c.49,.01,.98,.02,1.47,.02,8.08,0,15.82-1.1,23.02-3.26,3.61-9.35,5.5-20.27,5.5-31.74s-1.81-21.9-5.27-31.14c-7.32-2.37-15.43-3.69-23.59-3.84-.55,0-1.09-.02-1.63-.02h0Z"/><path d="M33.53,5c.54,0,1.08,.01,1.63,.02,8.16,.15,16.27,1.47,23.59,3.84,3.46,9.24,5.27,19.95,5.27,31.14s-1.89,22.39-5.5,31.74c-7.2,2.16-14.94,3.26-23.02,3.26-.49,0-.98-.01-1.47-.02h-.17c-8.18-.15-16.29-1.47-23.6-3.85-3.45-9.22-5.26-19.93-5.26-31.13s1.89-22.38,5.48-31.73c6.73-2.01,14.13-3.13,21.6-3.26,.48-.01,.97-.01,1.45-.01m0-1c-.49,0-.98,0-1.47,.01-7.51,.13-15.07,1.27-21.87,3.3l-.47,.14-.18,.46c-3.63,9.45-5.55,20.55-5.55,32.09s1.84,22.17,5.32,31.48l.17,.45,.46,.15c7.37,2.4,15.63,3.75,23.89,3.9h.19c.48,.01,.97,.02,1.47,.02,8.16,0,16-1.11,23.31-3.3l.47-.14,.18-.46c3.64-9.43,5.57-20.53,5.57-32.1s-1.84-22.17-5.33-31.49l-.17-.45-.46-.15c-7.39-2.39-15.65-3.74-23.88-3.89-.58-.01-1.12-.02-1.65-.02h0Z"/><path class="cls-9" d="M8.14,7.1s-12.66,32.94,0,66.06"/><path class="cls-9" d="M60.88,7.58s12.66,32.94,0,66.06"/></g></svg>