<svg id="Capa_2" xmlns="http://www.w3.org/2000/svg" xmlns:xlink="http://www.w3.org/1999/xlink" viewBox="0 0 69.02 80">
<defs >
<style >
.cls-1{fill:#c89aed;}.cls-2{fill:#fff;}.cls-3{fill:#f8ffbf;}.cls-4{fill:#7b7be8;}.cls-5{fill:#a88347;}.cls-6,.cls-7,.cls-8,.cls-9,.cls-10,.cls-11,.cls-12,.cls-13{fill:none;}.cls-6,.cls-7,.cls-8,.cls-10{stroke-miterlimit:10;}.cls-6,.cls-7,.cls-8,.cls-10,.cls-13{stroke:#000;}.cls-6,.cls-8,.cls-9,.cls-10,.cls-13{stroke-linecap:round;}.cls-6,.cls-13{stroke-width:.98px;}.cls-14{fill:#782ab5;}.cls-8{stroke-width:.97px;}.cls-9{stroke:#deb778;stroke-dasharray:0 0 0 4.06;}.cls-9,.cls-13{stroke-linejoin:round;}.cls-15{fill:#deb778;}.cls-10{stroke-width:.99px;}.cls-16{fill:url(#USGS_19_Inundación_de_tierra_2);}.cls-12{stroke:#1d1d1b;stroke-dasharray:0 0 2 2;stroke-width:.3px;}.cls-17{fill:#fcf0c5;}.cls-18{fill:#b83521;}
</style>
<pattern id="USGS_19_Inundación_de_tierra_2" x="0" y="0" width="72" height="72" patternTransform="translate(-20.48 -16135) rotate(-90)" patternUnits="userSpaceOnUse" viewBox="0 0 72 72">
<g >
<rect class="cls-11" width="72" height="72">
</rect>
<g >
<line class="cls-12" x1="71" y1="71" x2="144.44" y2="71">
</line>
<line class="cls-12" x1="71" y1="67" x2="144.44" y2="67">
</line>
<line class="cls-12" x1="71" y1="63" x2="144.44" y2="63">
</line>
<line class="cls-12" x1="71" y1="59" x2="144.44" y2="59">
</line>
<line class="cls-12" x1="71" y1="55" x2="144.44" y2="55">
</line>
<line class="cls-12" x1="71" y1="51" x2="144.44" y2="51">
</line>
<line class="cls-12" x1="71" y1="47" x2="144.44" y2="47">
</line>
<line class="cls-12" x1="71" y1="43" x2="144.44" y2="43">
</line>
<line class="cls-12" x1="71" y1="39" x2="144.44" y2="39">
</line>
<line class="cls-12" x1="71" y1="35" x2="144.44" y2="35">
</line>
<line class="cls-12" x1="71" y1="31" x2="144.44" y2="31">
</line>
<line class="cls-12" x1="71" y1="27" x2="144.44" y2="27">
</line>
<line class="cls-12" x1="71" y1="23" x2="144.44" y2="23">
</line>
<line class="cls-12" x1="71" y1="19" x2="144.44" y2="19">
</line>
<line class="cls-12" x1="71" y1="15" x2="144.44" y2="15">
</line>
<line class="cls-12" x1="71" y1="11" x2="144.44" y2="11">
</line>
<line class="cls-12" x1="71" y1="7" x2="144.44" y2="7">
</line>
<line class="cls-12" x1="71" y1="3" x2="144.44" y2="3">
</line>
</g>
<g >
<line class="cls-12" x1="-1" y1="71" x2="72.44" y2="71">
</line>
<line class="cls-12" x1="-1" y1="67" x2="72.44" y2="67">
</line>
<line class="cls-12" x1="-1" y1="63" x2="72.44" y2="63">
</line>
<line class="cls-12" x1="-1" y1="59" x2="72.44" y2="59">
</line>
<line class="cls-12" x1="-1" y1="55" x2="72.44" y2="55">
</line>
<line class="cls-12" x1="-1" y1="51" x2="72.44" y2="51">
</line>
<line class="cls-12" x1="-1" y1="47" x2="72.44" y2="47">
</line>
<line class="cls-12" x1="-1" y1="43" x2="72.44" y2="43">
</line>
<line class="cls-12" x1="-1" y1="39" x2="72.44" y2="39">
</line>
<line class="cls-12" x1="-1" y1="35" x2="72.44" y2="35">
</line>
<line class="cls-12" x1="-1" y1="31" x2="72.44" y2="31">
</line>
<line class="cls-12" x1="-1" y1="27" x2="72.44" y2="27">
</line>
<line class="cls-12" x1="-1" y1="23" x2="72.44" y2="23">
</line>
<line class="cls-12" x1="-1" y1="19" x2="72.44" y2="19">
</line>
<line class="cls-12" x1="-1" y1="15" x2="72.44" y2="15">
</line>
<line class="cls-12" x1="-1" y1="11" x2="72.44" y2="11">
</line>
<line class="cls-12" x1="-1" y1="7" x2="72.44" y2="7">
</line>
<line class="cls-12" x1="-1" y1="3" x2="72.44" y2="3">
</line>
<line class="cls-12" x1="1.04" y1="69" x2="74.48" y2="69">
</line>
<line class="cls-12" x1="1.04" y1="65" x2="74.48" y2="65">
</line>
<line class="cls-12" x1="1.04" y1="61" x2="74.48" y2="61">
</line>
<line class="cls-12" x1="1.04" y1="57" x2="74.48" y2="57">
</line>
<line class="cls-12" x1="1.04" y1="53" x2="74.48" y2="53">
</line>
<line class="cls-12" x1="1.04" y1="49" x2="74.48" y2="49">
</line>
<line class="cls-12" x1="1.04" y1="45" x2="74.48" y2="45">
</line>
<line class="cls-12" x1="1.04" y1="41" x2="74.48" y2="41">
</line>
<line class="cls-12" x1="1.04" y1="37" x2="74.48" y2="37">
</line>
<line class="cls-12" x1="1.04" y1="33" x2="74.48" y2="33">
</line>
<line class="cls-12" x1="1.04" y1="29" x2="74.48" y2="29">
</line>
<line class="cls-12" x1="1.04" y1="25" x2="74.48" y2="25">
</line>
<line class="cls-12" x1="1.04" y1="21" x2="74.48" y2="21">
</line>
<line class="cls-12" x1="1.04" y1="17" x2="74.48" y2="17">
</line>
<line class="cls-12" x1="1.04" y1="13" x2="74.48" y2="13">
</line>
<line class="cls-12" x1="1.04" y1="9" x2="74.48" y2="9">
</line>
<line class="cls-12" x1="1.04" y1="5" x2="74.48" y2="5">
</line>
<line class="cls-12" x1="1.04" y1="1" x2="74.48" y2="1">
</line>
</g>
<g >
<line class="cls-12" x1="-73" y1="71" x2=".44" y2="71">
</line>
<line class="cls-12" x1="-73" y1="67" x2=".44" y2="67">
</line>
<line class="cls-12" x1="-73" y1="63" x2=".44" y2="63">
</line>
<line class="cls-12" x1="-73" y1="59" x2=".44" y2="59">
</line>
<line class="cls-12" x1="-73" y1="55" x2=".44" y2="55">
</line>
<line class="cls-12" x1="-73" y1="51" x2=".44" y2="51">
</line>
<line class="cls-12" x1="-73" y1="47" x2=".44" y2="47">
</line>
<line class="cls-12" x1="-73" y1="43" x2=".44" y2="43">
</line>
<line class="cls-12" x1="-73" y1="39" x2=".44" y2="39">
</line>
<line class="cls-12" x1="-73" y1="35" x2=".44" y2="35">
</line>
<line class="cls-12" x1="-73" y1="31" x2=".44" y2="31">
</line>
<line class="cls-12" x1="-73" y1="27" x2=".44" y2="27">
</line>
<line class="cls-12" x1="-73" y1="23" x2=".44" y2="23">
</line>
<line class="cls-12" x1="-73" y1="19" x2=".44" y2="19">
</line>
<line class="cls-12" x1="-73" y1="15" x2=".44" y2="15">
</line>
<line class="cls-12" x1="-73" y1="11" x2=".44" y2="11">
</line>
<line class="cls-12" x1="-73" y1="7" x2=".44" y2="7">
</line>
<line class="cls-12" x1="-73" y1="3" x2=".44" y2="3">
</line>
<line class="cls-12" x1="-70.96" y1="69" x2="2.48" y2="69">
</line>
<line class="cls-12" x1="-70.96" y1="65" x2="2.48" y2="65">
</line>
<line class="cls-12" x1="-70.96" y1="61" x2="2.48" y2="61">
</line>
<line class="cls-12" x1="-70.96" y1="57" x2="2.48" y2="57">
</line>
<line class="cls-12" x1="-70.96" y1="53" x2="2.48" y2="53">
</line>
<line class="cls-12" x1="-70.96" y1="49" x2="2.48" y2="49">
</line>
<line class="cls-12" x1="-70.96" y1="45" x2="2.48" y2="45">
</line>
<line class="cls-12" x1="-70.96" y1="41" x2="2.48" y2="41">
</line>
<line class="cls-12" x1="-70.96" y1="37" x2="2.48" y2="37">
</line>
<line class="cls-12" x1="-70.96" y1="33" x2="2.48" y2="33">
</line>
<line class="cls-12" x1="-70.96" y1="29" x2="2.48" y2="29">
</line>
<line class="cls-12" x1="-70.96" y1="25" x2="2.48" y2="25">
</line>
<line class="cls-12" x1="-70.96" y1="21" x2="2.48" y2="21">
</line>
<line class="cls-12" x1="-70.96" y1="17" x2="2.48" y2="17">
</line>
<line class="cls-12" x1="-70.96" y1="13" x2="2.48" y2="13">
</line>
<line class="cls-12" x1="-70.96" y1="9" x2="2.48" y2="9">
</line>
<line class="cls-12" x1="-70.96" y1="5" x2="2.48" y2="5">
</line>
<line class="cls-12" x1="-70.96" y1="1" x2="2.48" y2="1">
</line>
</g>
</g>
</pattern>
</defs>

  <path
     id="path7641-4"
     style="fill:#782ab5;fill-opacity:1;stroke:#4d4d4d;stroke-width:1.62226;stop-color:#000000"
     d="M 34.900259,1.6936052 C 14.323312,9.5265586 1.6299002,23.954051 1.5689773,39.580572 V 79.197446 H 67.963672 V 39.580572 C 67.958188,23.990066 55.374427,9.5708664 34.900259,1.6936052 Z"/>
  <path
     id="path7641-7"
     style="fill:#808080;stroke:#4d4d4d;stroke-width:1.48325;stop-color:#000000"
     d="M 34.629293,5.0425238 C 15.815619,12.204258 4.1542243,25.395327 4.1542243,39.682894 V 76.559207 H 64.859448 V 39.682894 c 0,-14.254531 -11.510452,-27.438125 -30.230155,-34.6403702 z m -0.01233,3.4358455 C 51.537073,14.988239 61.941622,26.904418 61.941622,39.788613 v 33.82806 H 7.07205 v -33.82806 c 0,-12.914055 10.539857,-24.836991 27.544909,-31.3102437 z"/>
  <path
     id="path7641-7-8"
     style="fill:#808080;stroke:#4d4d4d;stroke-width:1.35027;stop-color:#000000"
     d="M 34.618314,8.2461803 C 17.491429,14.76581 6.8755673,26.7742 6.8755673,39.780777 v 33.57007 H 62.138105 v -33.57007 c 0,-12.976504 -10.478452,-24.978088 -27.519791,-31.5345967 z m -0.01123,3.1277957 c 15.403093,5.926211 24.874795,16.774013 24.874795,28.503041 V 70.672134 H 9.5317874 V 39.877017 c 0,-11.75621 9.5948786,-22.610165 25.0752986,-28.503041 z"/>
  <path
     id="path7641-7-8-0"
     style="fill:#808080;stroke:#4d4d4d;stroke-width:1.21411;stop-color:#000000"
     d="M 34.607073,11.526302 C 19.207238,17.388502 9.6618637,28.185984 9.6618637,39.880997 V 70.06591 H 59.351809 V 39.880997 c 0,-11.667973 -9.421821,-22.459335 -24.744736,-28.354695 z m -0.0101,2.812393 c 13.849868,5.328621 22.366458,15.082547 22.366458,25.628837 V 67.657315 H 12.050234 V 39.967532 c 0,-10.570731 8.627346,-20.33019 22.546743,-25.628837 z"/>


<g id="Characters">
<g >
<path class="cls-1" d="M60.97,65.77l-1.64,8.6-24.98,3.37-25.49-5.93v-6.56l11.67-3.68,1.44-6.25s-1.95-1.23-2.46-2.15-1.74-5.42-1.74-5.42c0,0-2.46-.93-3.59-4.61-1.12-3.69-.81-7.78-.81-7.78l2.09,1.55,.26,.19-.82-4.61s2.56-11.06,6.96-14.43c9.73-3.49,21.4-2.15,25.29-.21,5.02,4.71,7.47,13.21,7.17,14.95-.1,.55-.27,1.27-.46,1.99-.39,1.55-.87,3.13-.87,3.13l2.66-2.66s.1,5.01-.92,7.88c-1.03,2.87-2.66,3.89-2.66,3.89l-2.36,6.76-1.74,1.53,1.64,6.45,11.36,4Z">
</path>
<path class="cls-2" d="M34.63,60.09V22.03h7.47l3.55-2.63s5.57,7.9,6.79,13.17c1.22,5.88-.71,17.83-2.84,21.38-5.57,4.15-8.71,5.27-8.71,5.27,0,0,.3,1.93-1.52,2.33s-4.73-1.46-4.73-1.46Z">
</path>
<path d="M54.32,32.8c-.1,.55-.27,1.27-.46,1.99l-1.09,1.61s-.26-3.5-2.14-8.29c-1.79-5.13-5.56-8.55-5.56-8.55l-2.9,2.65-14.97-.17-3.07-2.4s-3.34,3.85-5.47,7.95c-2.14,4.11-2.06,11.38-2.06,11.38l-1.14-2.06,.26,.19-.82-4.61s2.56-11.06,6.96-14.43c9.73-3.49,21.4-2.15,25.29-.21,5.02,4.71,7.47,13.21,7.17,14.95Z">
</path>
<path class="cls-3" d="M22.32,39.74s4.55-1.19,7.78,.33c-.46,1.05-2.64,2.37-4.02,2.44s-3.76-2.77-3.76-2.77Z">
</path>
<path class="cls-3" d="M46.86,39.74s-4.55-1.19-7.78,.33c.46,1.05,2.64,2.37,4.02,2.44s3.76-2.77,3.76-2.77Z">
</path>
<path class="cls-18" d="M21.16,58.45s4.86,6.22,13.7,6.12c8.75-.19,13.9-6.12,13.9-6.12l.85,3.32,10.72,3.97-1.46,6.51s-13.32,4.08-27.6,3.21-21.58-4.67-21.58-4.67l-1.17-5.25,11.57-3.79,1.07-3.3Z">
</path>
<path d="M29.88,64.15s-1.9,3.14-2.09,4.09c3.62,3.24,4.47,4.66,4.47,4.66l-.86,1.24,7.62,.48-1.24-2.09,4.47-4.28s-.76-3.33-2.19-3.81c-3.62,.29-8.19,.38-10.19-.29Z">
</path>
<path class="cls-4" d="M19.94,36.28s6.07-5.31,12.23-1.18c-1.43,4.13-2.06,4.96-2.06,4.96,0,0-4.43-1.59-8.48-.41-1.52-1.26-1.69-3.37-1.69-3.37Z">
</path>
<path class="cls-4" d="M49.18,36.28s-6.07-5.31-12.23-1.18c1.43,4.13,2.06,4.96,2.06,4.96,0,0,4.43-1.59,8.48-.41,1.52-1.26,1.69-3.37,1.69-3.37Z">
</path>
<path d="M40.1,61.25l-16.75,13.28-13.66-3.74-.83-5.54,11.67-3.68,1.44-6.25,5.81,3.65s.6,2.39,3.35,2.27l3.11-.36s4.43,.84,5.86,.36Z">
</path>
<path class="cls-1" d="M45.17,21.64c1.92,2.2,6.38,8.25,6.06,16.75-.37,9.73-2.28,13.63-2.73,14.42-.62,.52-3.37,2.8-5.97,4.24,0,0,0,0,0,0h0c-.11-.73-.72-1.26-1.46-1.26-.09,0-.18,0-.24,.02-.4,.06-.76,.28-.99,.61-.22,.32-.32,.71-.25,1.09,.02,.19,.18,1.67-.7,2.27,0,0-.15,.1-.63,.1-.79,0-1.96-.26-3.32-.73-.16-.05-.33-.08-.51-.08s-.36,.04-.49,.08c-1.35,.47-2.53,.73-3.31,.73-.47,0-.62-.09-.62-.09,0,0,0,0,0,0-.26-.18-.46-.44-.58-.81-.02-.12-.05-.24-.09-.35-.11-.51-.06-1-.05-1.12,.06-.39-.03-.77-.26-1.09-.23-.32-.59-.54-.98-.6-.08-.01-.15-.02-.23-.02-.61,0-1.15,.37-1.38,.91-2.32-1.39-4.63-3.28-5.36-3.89-.45-.8-2.36-4.69-2.72-14.42-.32-8.5,4.13-14.55,6.05-16.75l1.86,1.7,.29,.26h16.44l.29-.26,1.86-1.7m.06-1.41l-2.6,2.37h-15.67l-2.6-2.37c-1.46,1.49-7.37,8.18-6.99,18.2,.4,10.72,2.68,14.61,2.95,15.04,.46,.39,3.94,3.32,6.98,4.84-.03-.61,.04-1.07,.04-1.11,.05-.24,.26-.41,.49-.41,.03,0,.05,0,.08,0,.27,.04,.45,.29,.4,.56,0,.01-.11,.76,.08,1.57,.04,.08,.06,.16,.06,.24,.16,.53,.46,1.07,1.01,1.44,.27,.17,.66,.26,1.18,.26,.9,0,2.15-.26,3.64-.78,.05-.02,.11-.03,.16-.03h.01c.06,0,.12,.01,.18,.03,1.48,.52,2.73,.78,3.63,.78,.51,0,.91-.09,1.18-.26,1.5-1.01,1.14-3.23,1.14-3.25-.05-.26,.13-.52,.4-.56,.03,0,.06,0,.09,0,.23,0,.43,.17,.47,.41,0,.05,.11,.67,.02,1.45,3.19-1.37,7.22-4.76,7.71-5.18,.27-.43,2.55-4.3,2.96-15.04,.37-10.02-5.54-16.71-7-18.2h0Z">
</path>
<path class="cls-18" d="M10.75,65.73c2.93-.95,7-2.39,9.92-3.23,0,0,.03,.1,.03,.1-1.12,1.81-2.99,1.73-4.73,2.33-1.7,.44-3.42,.77-5.19,.9,0,0-.03-.1-.03-.1h0Z">
</path>
<path d="M17.26,39.22s-2.7-3.73-3.8-3.6c-.06,5.79,1.27,10.75,4.31,12.13-.64-4.79-.51-8.53-.51-8.53Z">
</path>
<path class="cls-2" d="M28.08,45.55s-4.8,1.42-6.66-1.33c1.87,6.31,5.06,4.26,6.66,1.33Z">
</path>
<path class="cls-2" d="M53.84,37.22s1.14,5.25-.13,8.16c2.53-5.38,1.45-9.68,1.45-9.68l-1.33,1.52">
</path>
<polyline class="cls-8" points="7.78 66.03 20.38 61.65 21.72 55.77">
</polyline>
<polyline class="cls-8" points="62.22 66.03 49.62 61.65 48.28 55.77">
</polyline>
<path class="cls-6" d="M16.85,39.56s-1.47-3-3.4-4.21c-.3,5.92,1.15,11.29,4.41,12.32">
</path>
<path class="cls-6" d="M52.74,38.45c.61-.98,1.6-2.37,2.77-3.1,.28,5.46-.93,10.46-3.68,12">
</path>
<path class="cls-10" d="M41.64,59.15c3.52-1.47,8-5.35,8-5.35,0,0,2.64-3.62,3.08-15.36,.44-11.74-7.48-18.9-7.48-18.9l-2.81,2.56h-4.55s-6.18,0-6.18,0h-4.55l-2.81-2.56s-7.92,7.16-7.48,18.9,3.08,15.36,3.08,15.36c0,0,4.49,3.88,8,5.35">
</path>
<path class="cls-6" d="M52.9,37.75s1.07-3.62,.99-5.69-2.84-10.16-6.68-14.21c0,0-4.82-1.99-11.74-1.99h-2.03c-6.92,0-11.74,1.99-11.74,1.99-3.84,4.05-6.61,12.15-6.68,14.21s.99,5.69,.99,5.69">
</path>
<path class="cls-13" d="M41.06,57.28s.43,2.54-1.35,3.73c-1.12,.75-3.57,.12-5.26-.46h0c-1.69,.59-4.14,1.21-5.26,.46-1.8-1.19-1.36-3.73-1.36-3.73">
</path>
<path d="M19.41,36.11c3.07-4.12,8.92-3.85,13.35-2.5,0,0-1.05,2.75-1.05,2.75l-1.44-.62c-3.19-1.25-7.44-1.68-10.06,.93,0,0-.8-.56-.8-.56h0Z">
</path>
<path d="M49.04,36.67c-2.62-2.61-6.87-2.18-10.06-.93,0,0-1.44,.62-1.44,.62l-1.05-2.75c4.43-1.35,10.28-1.62,13.35,2.5,0,0-.8,.56-.8,.56h0Z">
</path>
<path d="M28.42,41.61c-.74,.59-1.67,1.21-2.69,1.05-1.76-.55-3.33-1.63-4.32-3.24,1.47-.66,3.11-.81,4.64-.69,1.51,.1,2.98,.4,4.44,.84-.24,1.92-1.12,3.91-2.89,4.83-.54,.31-1.15,.42-1.74,.48-.99-.04-1.63-.87-1.98-1.69,.45,.64,1.15,1.36,1.96,1.27,.43-.13,1.05-.29,1.45-.6,1.32-.86,2.01-2.49,2.2-4.01,0,0,.34,.51,.34,.51-2.43-.57-5.19-1.05-7.6-.33,0,0,.23-.62,.23-.62,.77,1.15,2.11,2.23,3.4,2.8,.87,.26,1.79-.22,2.58-.62h0Z">
</path>
<path d="M40.67,41.61c.79,.39,1.71,.87,2.58,.62,1.29-.57,2.63-1.65,3.4-2.8,0,0,.23,.62,.23,.62-2.41-.73-5.17-.25-7.6,.33,0,0,.34-.51,.34-.51,.19,1.51,.87,3.14,2.2,4.01,.4,.31,1.02,.47,1.45,.6,.82,.09,1.52-.63,1.96-1.27-.35,.82-.99,1.65-1.98,1.69-.59-.06-1.2-.18-1.74-.48-1.78-.93-2.65-2.91-2.89-4.83,1.45-.44,2.92-.74,4.44-.84,1.53-.12,3.17,.03,4.64,.69-.98,1.61-2.56,2.69-4.32,3.24-1.02,.16-1.95-.46-2.69-1.05h0Z">
</path>
<path d="M37.61,37.46c-.91,.33-1.79,.66-2.8,.53-.02-.02-.49-.42-.53-.45,0,0,.58,0,.58,0-.07,.05-.51,.48-.59,.46-1,.11-1.85-.21-2.75-.53,.83,.11,1.82,.21,2.58-.07,0,0-.12,.07-.12,.07,.15-.2,.44-.61,.59-.8,.15,.2,.45,.6,.59,.8,0,0-.12-.07-.12-.07,.76,.28,1.75,.18,2.58,.07h0Z">
</path>
<path d="M30.23,30.43c3.08,.31,5.96,.38,9.05,.08-2.79,1.34-6.27,1.26-9.05-.08h0Z">
</path>
<path d="M36.8,44.48c2.3,1.42,2.53,4.27-.51,4.86,0,0-1.11,.2-1.11,.2l.79-.9c.25-.32,.68-.79,.55-1.13,0-.01-.07-.05-.07-.05-.2,.02-.56,.29-.85,.57-.42,.41-.84,.98-1.2,1.46-.53-.66-1.24-1.75-2-2.02-.03,0-.04-.01-.03,0-.1,.06-.13,.08-.09,.28,.14,.56,.97,1.34,1.35,1.81,0,0-1.11-.2-1.11-.2-3.03-.58-2.8-3.45-.5-4.86-1.48,1.4-2.01,3.72,.57,4.04,0,0-.33,.71-.33,.71-.36-.35-.65-.7-.85-1.25-.29-.66,.34-1.63,1.13-1.48,1.14,.32,1.58,1.07,2.26,1.84,0,0-.8,0-.8,0,.68-.77,1.12-1.53,2.27-1.84,.8-.15,1.43,.82,1.13,1.48-.2,.55-.5,.9-.86,1.24l-.33-.7c2.6-.35,2.07-2.61,.58-4.04h0Z">
</path>
<path d="M41.9,52.64c-.34-.43-.79-1.02-1.32-1.14,0,0,.19-.04,.19-.04-1.22,1.15-2.76,1.76-4.33,2.26,0,0,.2-.11,.2-.11-.7,.63-1.48,1.04-2.34,1.37-.86-.33-1.64-.74-2.34-1.37,0,0,.2,.11,.2,.11-1.57-.5-3.11-1.11-4.33-2.26,0,0,.19,.04,.19,.04-.53,.12-.97,.71-1.32,1.14,.11-.3,.25-.59,.44-.85,.19-.28,.45-.59,.85-.72,0,0,.11,.07,.11,.07,1.32,.83,2.88,1.31,4.38,1.68,.3,.24,.63,.49,1,.69,.32,.18,.65,.33,.99,.46h-.36c.71-.26,1.42-.68,1.99-1.15,1.5-.38,3.07-.85,4.38-1.68,0,0,.11-.07,.11-.07,.72,.28,1.01,.94,1.28,1.58h0Z">
</path>
<path d="M38.3,54.42c.52,.22,.4,.87,.02,1.18-1.61,1.43-6.47,1.56-7.58-.5-.08-.26,.06-.5,.24-.6-.21,.42,.12,.64,.43,.76,.77,.45,7.86,.85,6.89-.84h0Z">
</path>
<path class="cls-8" d="M20.38,61.65s2.34,9.46,9.71,13.45">
</path>
<path class="cls-8" d="M26.89,72.81s0-5.32,3.2-8.58">
</path>
<path class="cls-8" d="M21.45,58.66s4.17,5.92,12.75,5.92h1.68c6.7,0,11.3-4.48,12.74-6.06">
</path>
<path class="cls-8" d="M39.99,75.1c1.2-.65,2.27-1.44,3.21-2.32,4.19-3.86,5.99-9.31,6.41-10.76">
</path>
<path class="cls-8" d="M43.2,72.81s0-5.32-3.2-8.58">
</path>
<polyline class="cls-8" points="27.99 68.43 32.31 72.74 31.34 74.63">
</polyline>
<polyline class="cls-8" points="42.02 68.43 37.71 72.74 38.67 74.63">
</polyline>
<line class="cls-8" x1="32.11" y1="72.7" x2="37.71" y2="72.7">
</line>
<path class="cls-1" d="M13.92,36.59c1.2,1.5,.95,3.05,1.23,4.74,.22,1.59,.45,3.16,1.04,4.67,0,0-.08,.06-.08,.06-1.02-1.32-1.51-2.95-1.85-4.55-.34-1.61-.48-3.27-.45-4.91h.1Z">
</path>
</g>
</g>
  <g
     id="g20645">
    <path
       style="fill:#808080;stroke:#4d4d4d;stroke-width:0.937908;stop-color:#000000;fill-opacity:1"
       d="m 9.541565,65.883425 a 5.4759801,5.4759801 0 0 1 5.47598,5.475981 5.4759801,5.4759801 0 0 1 -5.47598,5.47598 5.4759801,5.4759801 0 0 1 -5.4759806,-5.47598 5.4759801,5.4759801 0 0 1 5.4759806,-5.475981 z"/>
    <path
       style="fill:#808080;stroke:#4d4d4d;stroke-width:0.937908;stop-color:#000000;fill-opacity:1"
       d="m 59.472108,65.883425 a 5.4759801,5.4759801 0 0 1 5.47598,5.475981 5.4759801,5.4759801 0 0 1 -5.47598,5.47598 5.4759801,5.4759801 0 0 1 -5.475981,-5.47598 5.4759801,5.4759801 0 0 1 5.475981,-5.475981 z"/>
    <path
       id="path7641"
       style="fill:#808080;stroke:#4d4d4d;stroke-width:1.64416;stop-color:#000000"
       d="M 34.642578,1.1660156 C 13.787845,9.1047124 0.86132813,23.726855 0.86132812,39.564453 V 79.340489 H 68.152344 V 39.564453 c 0,-15.800978 -12.759199,-30.4148342 -33.509766,-38.3984374 z m -0.01367,3.8085938 C 53.384648,12.190722 64.917969,25.399665 64.917969,39.681641 v 26.507812 c -1.368656,-1.44106 -3.300993,-2.341797 -5.445313,-2.341797 -4.14856,0 -7.511718,3.363159 -7.511718,7.511719 0,2.347008 1.075662,4.442843 2.761718,5.820313 H 14.269531 c 1.756069,-1.422629 2.778281,-3.560307 2.783203,-5.820313 4.8e-5,-4.148627 -3.363091,-7.511766 -7.5117184,-7.511719 -2.0622939,0.0062 -4.0313164,0.860092 -5.4453125,2.361328 V 39.681641 c 0,-14.315076 11.6833059,-27.531508 30.5332029,-34.7070316 z"/>
    <circle
       style="fill:#4d4d4d;fill-opacity:1;stroke:#4d4d4d;stop-color:#000000"
       id="path16431"
       cx="9.6010828"
       cy="71.229652"
       r="5.06003" />
    <circle
       style="fill:#4d4d4d;fill-opacity:1;stroke:#4d4d4d;stop-color:#000000"
       id="path16431-3"
       cx="59.42292"
       cy="71.229652"
       r="5.06003" />
  </g>
</svg>
