<svg id="Capa_2" xmlns="http://www.w3.org/2000/svg" xmlns:xlink="http://www.w3.org/1999/xlink" viewBox="0 0 69.02 80">
<defs >
<style >
.cls-1{fill:#c89aed;}.cls-2{fill:#fff;}.cls-3{fill:#f8ffbf;}.cls-4{fill:#7b7be8;}.cls-5{fill:#a88347;}.cls-6{fill:#782ab5;}.cls-7,.cls-8,.cls-9{stroke:#000;stroke-miterlimit:10;}.cls-7,.cls-8,.cls-9,.cls-10,.cls-11,.cls-12{fill:none;}.cls-8,.cls-9,.cls-10{stroke-linecap:round;}.cls-13{fill:#1c46ff;}.cls-9{stroke-width:1.02px;}.cls-10{stroke:#deb778;stroke-dasharray:0 0 0 4.06;stroke-linejoin:round;}.cls-14{fill:#deb778;}.cls-15{fill:url(#USGS_19_Inundación_de_tierra_2);}.cls-12{stroke:#1d1d1b;stroke-dasharray:0 0 2 2;stroke-width:.3px;}.cls-16{fill:#fcf0c5;}.cls-17{fill:#b83521;}
</style>
<pattern id="USGS_19_Inundación_de_tierra_2" x="0" y="0" width="72" height="72" patternTransform="translate(-164.48 -16135) rotate(-90)" patternUnits="userSpaceOnUse" viewBox="0 0 72 72">
<g >
<rect class="cls-11" width="72" height="72">
</rect>
<g >
<line class="cls-12" x1="71" y1="71" x2="144.44" y2="71">
</line>
<line class="cls-12" x1="71" y1="67" x2="144.44" y2="67">
</line>
<line class="cls-12" x1="71" y1="63" x2="144.44" y2="63">
</line>
<line class="cls-12" x1="71" y1="59" x2="144.44" y2="59">
</line>
<line class="cls-12" x1="71" y1="55" x2="144.44" y2="55">
</line>
<line class="cls-12" x1="71" y1="51" x2="144.44" y2="51">
</line>
<line class="cls-12" x1="71" y1="47" x2="144.44" y2="47">
</line>
<line class="cls-12" x1="71" y1="43" x2="144.44" y2="43">
</line>
<line class="cls-12" x1="71" y1="39" x2="144.44" y2="39">
</line>
<line class="cls-12" x1="71" y1="35" x2="144.44" y2="35">
</line>
<line class="cls-12" x1="71" y1="31" x2="144.44" y2="31">
</line>
<line class="cls-12" x1="71" y1="27" x2="144.44" y2="27">
</line>
<line class="cls-12" x1="71" y1="23" x2="144.44" y2="23">
</line>
<line class="cls-12" x1="71" y1="19" x2="144.44" y2="19">
</line>
<line class="cls-12" x1="71" y1="15" x2="144.44" y2="15">
</line>
<line class="cls-12" x1="71" y1="11" x2="144.44" y2="11">
</line>
<line class="cls-12" x1="71" y1="7" x2="144.44" y2="7">
</line>
<line class="cls-12" x1="71" y1="3" x2="144.44" y2="3">
</line>
</g>
<g >
<line class="cls-12" x1="-1" y1="71" x2="72.44" y2="71">
</line>
<line class="cls-12" x1="-1" y1="67" x2="72.44" y2="67">
</line>
<line class="cls-12" x1="-1" y1="63" x2="72.44" y2="63">
</line>
<line class="cls-12" x1="-1" y1="59" x2="72.44" y2="59">
</line>
<line class="cls-12" x1="-1" y1="55" x2="72.44" y2="55">
</line>
<line class="cls-12" x1="-1" y1="51" x2="72.44" y2="51">
</line>
<line class="cls-12" x1="-1" y1="47" x2="72.44" y2="47">
</line>
<line class="cls-12" x1="-1" y1="43" x2="72.44" y2="43">
</line>
<line class="cls-12" x1="-1" y1="39" x2="72.44" y2="39">
</line>
<line class="cls-12" x1="-1" y1="35" x2="72.44" y2="35">
</line>
<line class="cls-12" x1="-1" y1="31" x2="72.44" y2="31">
</line>
<line class="cls-12" x1="-1" y1="27" x2="72.44" y2="27">
</line>
<line class="cls-12" x1="-1" y1="23" x2="72.44" y2="23">
</line>
<line class="cls-12" x1="-1" y1="19" x2="72.44" y2="19">
</line>
<line class="cls-12" x1="-1" y1="15" x2="72.44" y2="15">
</line>
<line class="cls-12" x1="-1" y1="11" x2="72.44" y2="11">
</line>
<line class="cls-12" x1="-1" y1="7" x2="72.44" y2="7">
</line>
<line class="cls-12" x1="-1" y1="3" x2="72.44" y2="3">
</line>
<line class="cls-12" x1="1.04" y1="69" x2="74.48" y2="69">
</line>
<line class="cls-12" x1="1.04" y1="65" x2="74.48" y2="65">
</line>
<line class="cls-12" x1="1.04" y1="61" x2="74.48" y2="61">
</line>
<line class="cls-12" x1="1.04" y1="57" x2="74.48" y2="57">
</line>
<line class="cls-12" x1="1.04" y1="53" x2="74.48" y2="53">
</line>
<line class="cls-12" x1="1.04" y1="49" x2="74.48" y2="49">
</line>
<line class="cls-12" x1="1.04" y1="45" x2="74.48" y2="45">
</line>
<line class="cls-12" x1="1.04" y1="41" x2="74.48" y2="41">
</line>
<line class="cls-12" x1="1.04" y1="37" x2="74.48" y2="37">
</line>
<line class="cls-12" x1="1.04" y1="33" x2="74.48" y2="33">
</line>
<line class="cls-12" x1="1.04" y1="29" x2="74.48" y2="29">
</line>
<line class="cls-12" x1="1.04" y1="25" x2="74.48" y2="25">
</line>
<line class="cls-12" x1="1.04" y1="21" x2="74.48" y2="21">
</line>
<line class="cls-12" x1="1.04" y1="17" x2="74.48" y2="17">
</line>
<line class="cls-12" x1="1.04" y1="13" x2="74.48" y2="13">
</line>
<line class="cls-12" x1="1.04" y1="9" x2="74.48" y2="9">
</line>
<line class="cls-12" x1="1.04" y1="5" x2="74.48" y2="5">
</line>
<line class="cls-12" x1="1.04" y1="1" x2="74.48" y2="1">
</line>
</g>
<g >
<line class="cls-12" x1="-73" y1="71" x2=".44" y2="71">
</line>
<line class="cls-12" x1="-73" y1="67" x2=".44" y2="67">
</line>
<line class="cls-12" x1="-73" y1="63" x2=".44" y2="63">
</line>
<line class="cls-12" x1="-73" y1="59" x2=".44" y2="59">
</line>
<line class="cls-12" x1="-73" y1="55" x2=".44" y2="55">
</line>
<line class="cls-12" x1="-73" y1="51" x2=".44" y2="51">
</line>
<line class="cls-12" x1="-73" y1="47" x2=".44" y2="47">
</line>
<line class="cls-12" x1="-73" y1="43" x2=".44" y2="43">
</line>
<line class="cls-12" x1="-73" y1="39" x2=".44" y2="39">
</line>
<line class="cls-12" x1="-73" y1="35" x2=".44" y2="35">
</line>
<line class="cls-12" x1="-73" y1="31" x2=".44" y2="31">
</line>
<line class="cls-12" x1="-73" y1="27" x2=".44" y2="27">
</line>
<line class="cls-12" x1="-73" y1="23" x2=".44" y2="23">
</line>
<line class="cls-12" x1="-73" y1="19" x2=".44" y2="19">
</line>
<line class="cls-12" x1="-73" y1="15" x2=".44" y2="15">
</line>
<line class="cls-12" x1="-73" y1="11" x2=".44" y2="11">
</line>
<line class="cls-12" x1="-73" y1="7" x2=".44" y2="7">
</line>
<line class="cls-12" x1="-73" y1="3" x2=".44" y2="3">
</line>
<line class="cls-12" x1="-70.96" y1="69" x2="2.48" y2="69">
</line>
<line class="cls-12" x1="-70.96" y1="65" x2="2.48" y2="65">
</line>
<line class="cls-12" x1="-70.96" y1="61" x2="2.48" y2="61">
</line>
<line class="cls-12" x1="-70.96" y1="57" x2="2.48" y2="57">
</line>
<line class="cls-12" x1="-70.96" y1="53" x2="2.48" y2="53">
</line>
<line class="cls-12" x1="-70.96" y1="49" x2="2.48" y2="49">
</line>
<line class="cls-12" x1="-70.96" y1="45" x2="2.48" y2="45">
</line>
<line class="cls-12" x1="-70.96" y1="41" x2="2.48" y2="41">
</line>
<line class="cls-12" x1="-70.96" y1="37" x2="2.48" y2="37">
</line>
<line class="cls-12" x1="-70.96" y1="33" x2="2.48" y2="33">
</line>
<line class="cls-12" x1="-70.96" y1="29" x2="2.48" y2="29">
</line>
<line class="cls-12" x1="-70.96" y1="25" x2="2.48" y2="25">
</line>
<line class="cls-12" x1="-70.96" y1="21" x2="2.48" y2="21">
</line>
<line class="cls-12" x1="-70.96" y1="17" x2="2.48" y2="17">
</line>
<line class="cls-12" x1="-70.96" y1="13" x2="2.48" y2="13">
</line>
<line class="cls-12" x1="-70.96" y1="9" x2="2.48" y2="9">
</line>
<line class="cls-12" x1="-70.96" y1="5" x2="2.48" y2="5">
</line>
<line class="cls-12" x1="-70.96" y1="1" x2="2.48" y2="1">
</line>
</g>
</g>
</pattern>
</defs>

<g id="Characters">
<g >
<path class="cls-1" d="M19.49,31.9s-2.03-3.47-4.15-2.37-.25,8.55,.85,11.59,3.13,3.81,5.08,3.72c1.52,7.02,2.62,11.08,2.62,11.08l-.31,3.73s2.83,3.56,9.06,4.23c1.15,1.86,1.07,2.11,1.07,2.11l1.28-2.24s7.01-.8,9.3-4.19c-.51-3.55-.68-4.48-.68-4.48l2.45-10.24s2.71,1.1,5.16-3.38,2.2-10.75,1.1-11.85-3.22-.34-3.22-.34l-1.35-9.22-7.62-4.57-6.52-.34-6.18,1.1-5.58,1.78-3.38,4.91s0,5.16,1.02,8.97Z">
</path>
<path class="cls-2" d="M33.75,59.79V18.5s5.21-3.68,8.97-.09c5.03,1.64,5.92,10.14,5.92,10.14l-1.08,5.03s1.08,1.35,.63,4.22-1.62,4.13-1.62,4.13l-3.41,13.82s-3.59,4.31-9.42,4.04Z">
</path>
<path d="M18.74,29.55s-1.54-3.27-.9-6.22c-1.92-5.84-1.35-9.43,4.42-11.93,4.62-1.86,7.76,.58,10.52-.51s6.6-1.22,9.3,2.56c5.9-1.54,8.21,1.8,8.14,5.64,2.44,3.01,1.03,7.89,.19,10.2-2.12,2.18-2.37,3.01-2.37,3.01,0,0,.58-2.56,.32-4.55s-2.89-7.05-2.89-7.05l-2.31-1.8s-1.92-3.4-7.05-1.22-10.52,5.39-14.68,3.08c-1.28,3.59-2.5,6.41-2.69,8.79Z">
</path>
<path class="cls-17" d="M23.58,59.66s2.68,3.29,9.06,4.23c1.11,2.18,1.07,2.48,1.07,2.48l1.27-2.62s6.04-.13,8.85-4.36c.94,4.23,.87,5.1,.87,5.1l14.76,4.23-.67,6.31s-17.71,1.95-30.66,1.54-18.72-4.29-18.72-4.29v-3.96l13.55-4.02,.6-4.63Z">
</path>
<path class="cls-3" d="M29.54,35.06s-4.46-2.15-7.2,.54c1.37,2.38,4.67,3.82,7.2-.54Z">
</path>
<path class="cls-3" d="M37.67,35.06s4.46-2.15,7.2,.54c-1.37,2.38-4.67,3.82-7.2-.54Z">
</path>
<path class="cls-4" d="M30.16,32.11l-.08,2.88s-3.67-2.17-7.74,.6c-1.36-2.66-1.52-4.06-1.52-4.06,0,0,1.52-1.73,3.21-1.81,2.72,1.4,6.13,2.39,6.13,2.39Z">
</path>
<path class="cls-4" d="M36.97,32.67l.32,2.45s3.48-2.3,7.56,.47c1.36-2.66,1.42-4.02,1.42-4.02,0,0-1.42-1.77-3.11-1.85-2.72,1.4-6.19,2.95-6.19,2.95Z">
</path>
<polygon points="43.58 56.1 28.58 74.74 10.72 71.7 9.77 68.49 22.69 64.42 23.89 55.93 33.52 61.13 43.58 56.1">
</polygon>
<path class="cls-17" d="M24.34,57.8c.03,2.48-.1,4.94-.32,7.39-1.97,.63-3.95,1.25-5.96,1.77-1.9,.51-3.82,.95-5.77,1.29,1.81-.8,3.65-1.5,5.52-2.13,1.86-.64,3.74-1.2,5.63-1.74l-.33,.4c.3-2.34,.69-4.67,1.24-6.99h0Z">
</path>
<path d="M19.65,33.07s-1.62-4.47-4-3.52c-2.19,1.62-.1,10.19,.67,11.9s2.48,3.46,4.95,3.39c-.19-1.78-.29-2.44-.29-2.44,0,0-3.05-4.85-1.33-9.33Z">
</path>
<path class="cls-1" d="M38.91,18.81h0c1.25,0,2.27,.43,3.19,1.36,.12,.12,.26,.2,.41,.25,.54,.17,1.18,.62,1.86,1.31,.09,.19,.21,.45,.35,.74,.4,.82,.94,1.95,1.18,2.64,.01,.03,.02,.06,.04,.09,.17,.36,.52,1.28,1.01,3.39l-.03,.24c-.17,1.41-.34,2.87-.73,4.16-.07,.22-.06,.45,.03,.66,1.32,3.28,.08,7.32-3,9.81l-1.42,1.12c-.39,.31-.49,.85-.25,1.28,.18,.32,.52,.5,.87,.5,.12,0,.24-.02,.36-.07,.61-.24,1.2-.53,1.76-.87,0,.02,0,.04-.01,.05-.64,3.25-1.31,6.62-2.55,9.63-1.96,1.39-4.17,2.55-6.31,3.67-.67,.35-1.34,.7-2,1.06-1.6-.84-3.21-1.71-4.77-2.58-.32-.19-.66-.38-1-.56-.87-.49-1.77-.99-2.51-1.57-1.14-2.9-1.69-6.2-2.21-9.4,.51,.24,1.02,.43,1.42,.58,.11,.04,.23,.06,.34,.06,.33,0,.66-.17,.84-.46,.25-.4,.19-.91-.14-1.24-.32-.32-.65-.62-.97-.91-.35-.32-.69-.62-.99-.93-.02-.02-.04-.04-.06-.06-2.68-2.32-3.67-6.06-2.4-9.1,.09-.22,.1-.46,.03-.68-.41-1.33-.6-2.82-.78-4.27l-.02-.17c.25-1.43,1.09-3.87,2.02-5.95,.86,.24,1.81,.37,2.79,.37,1.28,0,2.62-.22,3.75-.62,1.22-.37,2.47-.95,3.78-1.56,2.07-.97,4.22-1.98,6.11-1.98m0-1c-3.35,0-7.06,2.65-10.2,3.59-1.01,.36-2.22,.57-3.44,.57-1.14,0-2.3-.18-3.32-.61-1.07,2.2-2.23,5.39-2.51,7.17,.2,1.58,.39,3.25,.86,4.76-1.48,3.56-.21,7.75,2.67,10.24,.61,.63,1.33,1.21,1.97,1.85-.58-.21-1.16-.44-1.71-.73-.5-.28-.97-.61-1.41-.99,.7,4.06,1.21,8.34,2.74,12.09,1.12,.95,2.55,1.64,3.83,2.39,1.75,.97,3.51,1.92,5.28,2.85,3.06-1.68,6.29-3.17,9.11-5.22,1.72-4.03,2.36-8.53,3.28-12.85-1,1.06-2.24,1.91-3.65,2.46l1.42-1.12c3.2-2.59,4.89-7.03,3.31-10.97,.46-1.51,.63-3.17,.82-4.75-.14-.61-.62-2.68-1.11-3.75-.38-1.09-1.4-3.06-1.64-3.62-.65-.69-1.5-1.42-2.4-1.7-1.2-1.21-2.52-1.66-3.9-1.66h0Z">
</path>
<path class="cls-2" d="M48.7,31.54s1.63-.67,2.4,1.05-.67,9.2-1.63,10.93c3.55-4.12,3.45-10.54,3.26-12.46s-2.3-2.59-4.03,.48">
</path>
<path class="cls-2" d="M21.71,37.75s4.68,3.56,8.31-.46c-3.69,7.58-6.53,4.88-8.31,.46Z">
</path>
<path d="M22.12,21.01c-1.12,2.19-2.39,5.65-2.69,7.52,.2,1.58,.39,3.25,.86,4.76-1.48,3.55-.21,7.75,2.68,10.23,.61,.63,1.33,1.22,1.96,1.85-.57-.21-1.15-.44-1.7-.72-3.97-2.22-5.68-7.35-4.15-11.61,0,0,0,.44,0,.44-.47-1.65-.68-3.28-.84-4.96,.45-2.89,1.66-5.45,3.01-7.99,0,0,.88,.47,.88,.47h0Z">
</path>
<path class="cls-7" d="M19.65,33.28s-1.62-4.45-3.85-3.89-1.02,9.72,1.02,13.24c1.94,2.96,4.44,2.31,4.44,2.31">
</path>
<path d="M47.1,41.63c-.91,4.82-1.57,9.72-3.29,14.35-.82,1.34-2.89,2.07-4.18,2.93-1.97,1.1-3.96,2.16-5.96,3.21-1.93-1.02-3.86-2.05-5.77-3.11-1.4-.85-2.88-1.49-4.11-2.62-.42-.6-.52-1.08-.71-1.6-1.17-4.08-1.8-8.2-2.5-12.37,0,0,.99-.15,.99-.15,.85,4.46,1.28,9.3,2.99,13.49,1.12,.94,2.55,1.63,3.83,2.39,1.82,1.02,3.66,2,5.51,2.98,0,0-.47,0-.47,0,3.13-1.73,6.45-3.25,9.34-5.35,1.91-4.47,2.49-9.53,3.59-14.27,0,0,.73,.13,.73,.13h0Z">
</path>
<path class="cls-7" d="M47.7,33.28s1.62-4.45,3.85-3.89,1.02,9.72-1.02,13.24c-1.94,2.96-4.44,2.31-4.44,2.31">
</path>
<path d="M36.27,34.38c-.3,.58-.6,1.15-.92,1.72v-.1c1.06,2.86,2.03,5.75,2.97,8.65-.48,.59-2.02,2.5-2.48,3.07-.2-.46-.43-1.29-.81-1.58,0,0,.05,.01,.08,0-.32,.34-1.07,1.41-1.45,1.96-.43-.63-.92-1.42-1.44-1.95-.09-.07,.03,.02,.09-.01-.38,.29-.6,1.13-.8,1.59,0,0-.52-.64-.52-.64l-1.82-2.25-.15-.19c.94-2.9,1.92-5.78,2.96-8.65,0,0,.01,.1,.01,.1-.32-.57-.62-1.15-.92-1.72,.39,.54,.78,1.08,1.15,1.64v.06c-.72,2.89-1.5,5.75-2.3,8.61,0,0-.08-.41-.08-.41l1.88,2.19-.82,.15c1.04-2.53,2.1-1.33,3.18,.32,0,0-.83,0-.83,0,.51-.63,.81-1.38,1.61-1.74,.89-.17,1.31,.79,1.57,1.42,0,0-.82-.14-.82-.14l1.88-2.19-.08,.41c-.8-2.86-1.58-5.73-2.29-8.61,0,0-.01-.06-.01-.06,.37-.55,.76-1.09,1.15-1.64h0Z">
</path>
<path d="M41.28,53.45c-.4-.59-.9-1.11-1.51-1.33-.51-.18-1.49-.24-2.06-.36-1.4-.23-2.77-.51-4.14-.8h.2c-1.7,.37-3.45,.71-5.18,.97-1.1,.04-1.91,.57-2.52,1.52,.2-.69,.63-1.33,1.28-1.77,2.02-.81,4.2-1.2,6.32-1.72,1.43,.33,2.86,.66,4.26,1.06l1.03,.29c1.09,.17,2.06,1.1,2.32,2.15h0Z">
</path>
<path d="M38.3,53.63c-.28,.87-1.34,1.14-2.17,1.16-1.82,.16-3.65,.14-5.46-.06-.66-.06-1.36-.48-1.57-1.1,.32,.27,.68,.42,1.04,.46,1.18-.02,2.38-.22,3.56-.18,.81,0,1.62,.03,2.43,.11,.76,.1,1.55,.19,2.17-.38h0Z">
</path>
<path d="M20.36,18.88c.38,.73,1.33,1.29,2.15,1.55,2.97,1.07,5.85,.06,8.68-1.34,3.68-1.71,9.01-4.29,12.39-.58,0,0-.26-.17-.26-.17,1.18,.45,2.08,1.21,2.87,2.14,1.27,2.58,2.43,5.16,2.87,8.04-.17,1.67-.4,3.29-.87,4.93,0,0,0-.38,0-.38,1.87,5-.92,10.42-5.78,12.3,0,0,1.42-1.12,1.42-1.12,3.2-2.59,4.89-7.03,3.31-10.97,.46-1.51,.63-3.17,.82-4.75-.13-.61-.61-2.68-1.11-3.75-.37-1.09-1.4-3.06-1.64-3.62-.65-.69-1.5-1.42-2.4-1.71-4.1-4.14-9.66,.61-14.1,1.93-2.92,1.04-7.52,.88-9.29-2.18-.28-.66,.7-1.04,.94-.35h0Z">
</path>
<path class="cls-8" d="M18.79,29.58s-1.64-2.8-.97-6.27c-2.31-6.33-.3-10.65,4.69-12.18s7.31,.37,9.74-.06c5.3-2.31,8.46-.12,9.74,2.44,7.73-2.01,8.28,3.47,8.22,5.54,2.86,2.56,0,10.65,0,10.65">
</path>
<polyline class="cls-8" points="23.78 55.37 22.9 64.31 8.54 68.53">
</polyline>
<polyline class="cls-8" points="43.72 55.37 44.6 64.31 58.96 68.53">
</polyline>
<path class="cls-9" d="M44,59.21s-1.04,3.37-9.09,4.61c-.35,.69-.77,1.51-1.16,2.25-.39-.74-.82-1.56-1.17-2.25-8.04-1.24-9.08-4.61-9.08-4.61">
</path>
<path class="cls-9" d="M22.9,64.31s3.25,5.56,10.8,5.56c8.29,0,10.9-5.56,10.9-5.56">
</path>
<line class="cls-9" x1="33.75" y1="66.07" x2="33.75" y2="74.97">
</line>
<path d="M29.41,65.61h2.36s-.03,2.18-1.35,2.51c-1.08-.54-1.02-2.51-1.02-2.51Z">
</path>
<path d="M35.87,65.61h2.36s-.03,2.18-1.35,2.51c-1.08-.54-1.02-2.51-1.02-2.51Z">
</path>
<path d="M20.8,31.68c.59-1.19,1.77-2.21,3.22-2.46,2.03,.87,4.03,2,6.24,2.12l-.12,1.45c-2.4-.2-4.41-1.58-6.34-2.83l.23,.04c-1.23,.06-2.41,.72-3.22,1.67h0Z">
</path>
<path d="M46.31,31.68c-.81-.96-1.99-1.62-3.22-1.67,0,0,.23-.04,.23-.04-1.93,1.25-3.94,2.63-6.34,2.83l-.12-1.45c2.2-.13,4.21-1.26,6.24-2.12,1.45,.25,2.63,1.27,3.22,2.46h0Z">
</path>
<path d="M22.35,35.58c1.99-2.4,5.37-2.54,7.73-.58-.84,2.18-2.79,4.14-5.27,3.03-.62-.3-1.2-.69-1.57-1.25,1.54,1.14,3.66,1.28,4.83-.26,.39-.43,.65-.99,.91-1.54l.16,.59c-2-1.6-4.68-1.38-6.8,.01h0Z">
</path>
<path d="M44.91,35.58c-2.11-1.39-4.8-1.61-6.8-.01,0,0,.16-.59,.16-.59,.26,.55,.52,1.11,.91,1.54,1.16,1.53,3.29,1.39,4.83,.26-.37,.56-.95,.95-1.57,1.25-2.48,1.11-4.42-.84-5.27-3.03,2.37-1.96,5.74-1.82,7.73,.58h0Z">
</path>
<path d="M29.7,27.11c2.73,.49,5.2,.23,7.9,0-2.23,1.61-5.74,1.84-7.9,0h0Z">
</path>
<path d="M31.43,24.65c1.55,.28,2.88,.14,4.43,0-1.26,.9-3.21,1.03-4.43,0h0Z">
</path>
<polygon points="28.86 58.95 32.06 56.94 31.39 54.57 36 54.57 35.33 56.94 38.52 58.95 33.67 61.56 28.86 58.95">
</polygon>
<path class="cls-1" d="M15.35,30.36c1,4.59,.83,9.26,3.29,13.2-1.97-1.41-2.74-3.89-3.15-6.16-.27-1.92-.6-5.38-.13-7.04h0Z">
</path>
<path class="cls-13" d="M19,13.38s4.06-3.29,9.47-2.29c-4.35,2.12-.53,2.47,2.47,1.18,3.82-2,8.94-1.76,10.29,1.65,2.35-.94,7.23-.71,7.94,3.18-1.76-3-6.83-2.72-9.94-1.06-.88-2.41-2.94-4.65-9.17-1.29s-5.06-3.82-11.05-1.35Z">
</path>
<polygon class="cls-13" points="37.31 59.24 33.81 61.3 31.01 59.62 34 60.43 37.31 59.24">
</polygon>
</g>
</g>
 <g
     id="g2850">
    <g
       id="g2837">
      <path
         id="path1951"
         d="M 0.056640625 0.04296875 L 0.056640625 79.943359 L 69.308594 79.943359 L 69.308594 0.04296875 L 0.056640625 0.04296875 z M 33.615234 3.5957031 C 34.206332 3.5957038 34.786991 3.6051034 35.421875 3.6152344 C 44.430653 3.7671809 53.471255 5.1336733 61.560547 7.5546875 L 62.064453 7.7070312 L 62.25 8.1640625 C 66.070247 17.605006 66.990234 28.726438 66.990234 40.0625 C 66.990234 51.398562 65.972723 63.025755 61.988281 72.578125 L 61.791016 73.044922 L 61.275391 73.185547 C 53.273669 75.403966 44.691921 76.529297 35.759766 76.529297 C 35.212453 76.529297 34.675812 76.519896 34.150391 76.509766 L 33.943359 76.509766 C 24.901742 76.357819 15.860367 74.989738 7.7929688 72.558594 L 7.2890625 72.40625 L 7.1035156 71.951172 C 3.2942144 62.520359 2.375 51.369168 2.375 40.0625 C 2.375 28.755832 3.3819737 17.127318 7.3554688 7.5546875 L 7.5527344 7.0898438 L 8.0664062 6.9472656 C 15.509867 4.890923 23.785212 3.7371557 32.005859 3.6054688 C 32.542226 3.5953387 33.078867 3.5957031 33.615234 3.5957031 z "
         style="opacity:1;vector-effect:none;fill:#ffffff;fill-opacity:1;fill-rule:nonzero;stroke:none;stroke-width:1.95200002;stroke-linecap:butt;stroke-linejoin:miter;stroke-miterlimit:4;stroke-dasharray:none;stroke-dashoffset:0;stroke-opacity:1" />
    </g>
    <path
       id="path1154-8-2"
       d="m 33.675163,6.6112954 c 0.557696,0 1.115392,0.00956 1.683415,0.019115 8.427403,0.14336 16.803167,1.4049288 24.363042,3.6700176 3.573384,8.830981 4.443772,19.417362 4.443772,29.761551 0,10.344189 -0.95301,21.39888 -4.68131,30.334991 -7.435942,2.064385 -15.429581,3.274388 -23.774362,3.274388 -0.506058,0 -1.012115,-0.0096 -1.518172,-0.01911 h -0.17557 C 25.56792,73.508883 17.192156,72.088619 9.6426089,69.813973 6.0795528,61.002107 5.2088244,50.415411 5.2088244,40.061979 c 0,-10.353432 0.95335,-21.389323 4.6609939,-30.325434 C 16.820359,7.8155201 24.462856,6.7450981 32.177647,6.6208528 c 0.49573,-0.00956 1.001787,-0.00956 1.497516,-0.00956 m 0,-0.9557337 c -0.506057,0 -1.012114,0 -1.518171,0.00956 C 24.40089,5.7893644 16.593149,6.8789009 9.570315,8.8190405 L 9.0849131,8.9528432 8.8990146,9.3924808 C 5.1500599,18.424166 4.1999116,29.394246 4.1999116,40.061979 c 0,10.667733 0.8675267,21.188618 4.461566,30.0865 l 0.1755708,0.430081 0.4750741,0.14336 c 7.6115135,2.293761 16.1421925,3.584001 24.6728715,3.727361 h 0.196227 c 0.495729,0.0096 1.001786,0.01911 1.518171,0.01911 8.427403,0 16.524318,-1.060864 24.073866,-3.153921 l 0.485403,-0.133802 0.185898,-0.439639 c 3.759282,-9.01257 4.719759,-19.983589 4.719759,-30.679055 0,-10.695466 -0.867528,-21.188618 -4.471894,-30.0960578 L 60.516853,9.5358409 60.041779,9.3924808 C 52.409609,7.108277 43.87893,5.8180364 35.379234,5.6746763 34.780227,5.6651187 34.232859,5.6555621 33.675163,5.6555615 Z"
       style="fill:#ff0000;stroke:#ffffff;stroke-width:1.84341729;stroke-miterlimit:4;stroke-dasharray:none" />
    <path
       id="path1154"
       d="m 33.614853,4.6077955 c 0.591098,0 1.182197,0.01013 1.784241,0.02026 8.932155,0.1519464 17.809578,1.4890758 25.822246,3.8898304 3.787408,9.3599041 4.709928,20.5803481 4.709928,31.5440931 0,10.963745 -1.01009,22.680548 -4.961693,32.151879 -7.881312,2.18803 -16.353723,3.302304 -25.198307,3.302304 -0.536368,0 -1.072735,-0.01013 -1.609102,-0.02026 H 33.97608 C 25.022033,75.343956 16.14461,74.006827 8.1428892,71.595943 4.3664269,62.256298 3.443547,51.035521 3.443547,40.061979 c 0,-10.973542 1.01045,-22.670418 4.9401601,-32.1417498 7.3668369,-2.036083 15.4670749,-3.170617 23.6439369,-3.3023039 0.525421,-0.01013 1.061788,-0.01013 1.587209,-0.01013 m 0,-1.0129766 c -0.536367,0 -1.072734,0 -1.609101,0.01013 C 23.785105,3.7366356 15.509726,4.891429 8.0662653,6.9477716 L 7.5517907,7.0895883 7.3547579,7.5555576 C 3.3812628,17.128188 2.3742062,28.755311 2.3742062,40.061979 c 0,11.306668 0.9194864,22.457692 4.7287876,31.888505 l 0.1860865,0.45584 0.5035283,0.151947 c 8.0673984,2.431144 17.1090154,3.798662 26.1506324,3.950608 h 0.207979 c 0.525421,0.01013 1.061788,0.02026 1.609101,0.02026 8.932155,0 17.514028,-1.124404 25.51575,-3.342823 l 0.514475,-0.141816 0.197032,-0.46597 c 3.984442,-9.55237 5.002445,-21.180489 5.002445,-32.516551 0,-11.336062 -0.919487,-22.457692 -4.739734,-31.8986353 L 62.064202,7.7075041 61.560674,7.5555576 C 53.471382,5.1345434 44.429765,3.7670249 35.420987,3.6150784 c -0.634884,-0.01013 -1.215036,-0.020259 -1.806134,-0.02026 z"
       style="fill:#000000;stroke:#000000;stroke-width:1.95382714;stroke-miterlimit:4;stroke-dasharray:none" />
    <g
       id="g1810">
      <path
         d="M 6.5134911,7.7433673 C 5.6489029,6.8479453 4.058602,6.5681013 3.6272194,7.3820013 3.284151,8.0292783 3.3625296,8.5309135 4.395235,8.9201755 3.2963719,9.5187755 1.4857674,9.4447465 1.1893447,7.4467713 0.95320848,5.8551433 2.674739,4.8863543 3.1399725,5.0916244 3.0034432,3.6818714 1.8221094,4.0692802 0.95849208,3.2813384 0.34259068,2.7194046 0.23126071,-0.02624603 0.0561761,0.04378767 -0.0138576,0.21887227 2.7317937,0.33020157 3.2937267,0.94610377 4.0816685,1.8097211 3.6942598,2.9910547 5.1040128,3.1275841 4.8987425,2.6623507 5.8675315,0.94082017 7.4591593,1.1769564 9.4571345,1.4733791 9.5311625,3.2839847 8.9325635,4.3828467 8.5433008,3.3501417 8.041666,3.2717627 7.3943894,3.6148312 6.5804899,4.0462137 6.8603354,5.6365129 7.7557553,6.5011023"
         style="fill:#000000;stroke:#000000;stroke-width:0.1112323px;stroke-linecap:butt;stroke-linejoin:miter;stroke-opacity:1"
         id="path1737-3" />
      <path
         d="m 62.850738,7.7433673 c 0.864588,-0.895422 2.454889,-1.175266 2.886271,-0.361366 0.343069,0.647277 0.26469,1.148912 -0.768015,1.538174 1.098863,0.5986 2.909467,0.524571 3.20589,-1.473404 0.236136,-1.591628 -1.485394,-2.560417 -1.950628,-2.3551469 0.13653,-1.409753 1.317863,-1.0223442 2.181481,-1.810286 0.615901,-0.5619338 0.727231,-3.30758442 0.902316,-3.23755072 0.07003,0.1750846 -2.675618,0.2864139 -3.237551,0.9023161 C 65.28256,1.8097211 65.669969,2.9910547 64.260216,3.1275841 64.465486,2.6623507 63.496697,0.94082018 61.905069,1.1769564 c -1.997975,0.2964227 -2.072003,2.1070283 -1.473404,3.2058903 0.389263,-1.032705 0.890898,-1.111084 1.538174,-0.7680155 0.8139,0.4313825 0.534054,2.0216817 -0.361366,2.8862711"
         style="fill:#000000;stroke:#000000;stroke-width:0.1112323px;stroke-linecap:butt;stroke-linejoin:miter;stroke-opacity:1"
         id="path1737-3-5" />
      <path
         d="m 62.850738,72.244244 c 0.864588,0.895422 2.454889,1.175266 2.886272,0.361366 0.343068,-0.647277 0.264689,-1.148912 -0.768016,-1.538174 1.098863,-0.5986 2.909468,-0.524571 3.20589,1.473404 0.236137,1.591628 -1.485394,2.560417 -1.950628,2.355147 0.13653,1.409753 1.317864,1.022344 2.181481,1.810286 0.615901,0.561934 0.727231,3.307584 0.902316,3.237551 0.07003,-0.175085 -2.675618,-0.286414 -3.237551,-0.902317 -0.787942,-0.863617 -0.400533,-2.04495 -1.810286,-2.18148 0.20527,0.465234 -0.763519,2.186764 -2.355146,1.950628 -1.997976,-0.296423 -2.072004,-2.107028 -1.473405,-3.20589 0.389263,1.032705 0.890898,1.111084 1.538175,0.768015 0.813899,-0.431382 0.534054,-2.021682 -0.361366,-2.886271"
         style="fill:#000000;stroke:#000000;stroke-width:0.1112323px;stroke-linecap:butt;stroke-linejoin:miter;stroke-opacity:1"
         id="path1737-3-7" />
      <path
         d="M 6.513491,72.244245 C 5.648903,73.139667 4.058602,73.419511 3.62722,72.605611 3.284151,71.958334 3.36253,71.456699 4.395235,71.067437 c -1.098863,-0.5986 -2.909467,-0.524571 -3.20589,1.473404 -0.23613599,1.591628 1.485394,2.560417 1.950628,2.355147 -0.13653,1.409753 -1.317863,1.022344 -2.18148099,1.810286 -0.615901,0.561933 -0.727231,3.307584 -0.902316,3.23755 C -0.01385399,79.76874 2.731794,79.65741 3.293727,79.041508 4.081669,78.177891 3.69426,76.996557 5.104013,76.860028 4.898743,77.325261 5.867532,79.046792 7.45916,78.810656 9.457135,78.514233 9.531163,76.703627 8.932564,75.604765 8.543301,76.63747 8.041666,76.715849 7.39439,76.372781 6.58049,75.941398 6.860336,74.351099 7.755756,73.48651"
         style="fill:#000000;stroke:#000000;stroke-width:0.1112323px;stroke-linecap:butt;stroke-linejoin:miter;stroke-opacity:1"
         id="path1737-3-5-5" />
    </g>
    <path
       id="path1154-9"
       d="m 33.712865,7.4258691 c 0.536813,0 1.07363,0.00933 1.620386,0.01865 8.111875,0.1398689 16.174044,1.3707167 23.450873,3.5806479 3.439594,8.615932 4.277395,18.944521 4.277395,29.036812 0,10.092292 -0.917329,20.877786 -4.506039,29.596289 -7.157536,2.014114 -14.851888,3.03982 -22.884234,3.03982 -0.487111,0 -0.974221,-0.0094 -1.461331,-0.01865 H 34.040918 C 25.909161,72.53957 17.846991,71.308722 10.580105,69.089467 7.1504515,60.492184 6.3123238,50.163289 6.3123238,40.061979 c 0,-10.101311 0.9176558,-20.868461 4.4864832,-29.586965 6.690308,-1.8742449 14.046665,-2.9186005 21.472608,-3.0398203 0.47717,-0.00933 0.964281,-0.00933 1.44145,-0.00933 m 0,-0.9324602 c -0.487111,0 -0.974221,0 -1.46133,0.00933 C 24.785826,6.6239532 17.270413,7.686958 10.510517,9.5798526 L 10.043289,9.710397 9.8643508,10.139328 c -3.6085914,8.811751 -4.5231655,19.514693 -4.5231655,29.922651 0,10.407958 0.8350459,20.672644 4.294522,29.353849 l 0.1689973,0.419608 0.4572874,0.13987 c 7.326533,2.237904 15.537818,3.496724 23.749103,3.636593 h 0.188879 c 0.47717,0.0094 0.96428,0.01865 1.461331,0.01865 8.111875,0 15.905636,-1.035031 23.172525,-3.077119 l 0.467228,-0.130544 0.178938,-0.428932 c 3.618533,-8.793101 4.543048,-19.496959 4.543048,-29.931975 0,-10.435016 -0.835047,-20.672644 -4.304463,-29.363174 l -0.168997,-0.419609 -0.457288,-0.13987 C 51.74588,7.9107484 43.534594,6.6519271 35.353133,6.512058 34.776554,6.502738 34.249678,6.493409 33.712865,6.493409 Z"
       style="fill:#000000;stroke:none;stroke-width:1.78642213;stroke-miterlimit:4;stroke-dasharray:none" />
    <path
       id="path1154-9-3"
       d="m 33.712865,7.4258686 c 0.536813,0 1.07363,0.00933 1.620386,0.01865 8.111875,0.1398689 16.174044,1.3707167 23.450873,3.5806484 3.439594,8.615932 4.277395,18.944521 4.277395,29.036812 0,10.092292 -0.917329,20.877786 -4.506039,29.596288 -7.157536,2.014114 -14.851888,3.03982 -22.884234,3.03982 -0.487111,0 -0.974221,-0.0094 -1.461331,-0.01865 H 34.040918 C 25.909161,72.539569 17.846991,71.308722 10.580105,69.089466 7.1504515,60.492184 6.3123238,50.163288 6.3123238,40.061979 c 0,-10.101312 0.9176558,-20.868461 4.4864832,-29.586965 6.690308,-1.8742454 14.046665,-2.918601 21.472608,-3.0398208 0.47717,-0.00933 0.964281,-0.00933 1.44145,-0.00933 m 0,-0.9324602 c -0.487111,0 -0.974221,0 -1.46133,0.00933 C 24.785826,6.6239527 17.270413,7.6869575 10.510517,9.5798521 L 10.043289,9.7103965 9.8643508,10.139328 C 6.2557594,18.951079 5.3411853,29.65402 5.3411853,40.061979 c 0,10.407958 0.8350459,20.672643 4.294522,29.353849 l 0.1689973,0.419608 0.4572874,0.13987 c 7.326533,2.237904 15.537818,3.496724 23.749103,3.636593 h 0.188879 c 0.47717,0.0094 0.96428,0.01865 1.461331,0.01865 8.111875,0 15.905636,-1.035032 23.172525,-3.077119 l 0.467228,-0.130544 0.178938,-0.428932 c 3.618533,-8.793101 4.543048,-19.49696 4.543048,-29.931975 0,-10.435016 -0.835047,-20.672644 -4.304463,-29.363175 l -0.168997,-0.419609 -0.457288,-0.13987 C 51.74588,7.9107479 43.534594,6.6519266 35.353133,6.5120575 34.776554,6.5027375 34.249678,6.4934085 33.712865,6.4934085 Z"
       style="fill:#000000;stroke:none;stroke-width:1.78642213;stroke-miterlimit:4;stroke-dasharray:none" />
  </g>
</svg>
