<?xml version="1.0" encoding="UTF-8"?><svg id="Capa_2" xmlns="http://www.w3.org/2000/svg" xmlns:xlink="http://www.w3.org/1999/xlink" viewBox="0 0 69.02 80"><defs><style>.cls-1{fill:#c89aed;}.cls-2{fill:#fff;}.cls-3{fill:#f8ffbf;}.cls-4{fill:#7b7be8;}.cls-5{fill:#a88347;}.cls-6{fill:#782ab5;}.cls-7,.cls-8,.cls-9,.cls-10,.cls-11,.cls-12,.cls-13{fill:none;}.cls-7,.cls-8,.cls-12,.cls-13{stroke:#000;stroke-miterlimit:10;}.cls-8,.cls-9,.cls-12{stroke-linecap:round;}.cls-9{stroke:#deb778;stroke-dasharray:0 0 0 4.06;stroke-linejoin:round;}.cls-14{fill:#deb778;}.cls-15{fill:url(#USGS_19_Inundación_de_tierra_2);}.cls-11{stroke:#1d1d1b;stroke-dasharray:0 0 2 2;stroke-width:.3px;}.cls-16{fill:#cf5f2b;}.cls-12{stroke-width:.75px;}.cls-17{fill:#fcf0c5;}.cls-13{stroke-width:.5px;}.cls-18{fill:#b83521;}</style><pattern id="USGS_19_Inundación_de_tierra_2" x="0" y="0" width="72" height="72" patternTransform="translate(-236.48 -16135) rotate(-90)" patternUnits="userSpaceOnUse" viewBox="0 0 72 72"><g><rect class="cls-10" width="72" height="72"/><g><line class="cls-11" x1="71" y1="71" x2="144.44" y2="71"/><line class="cls-11" x1="71" y1="67" x2="144.44" y2="67"/><line class="cls-11" x1="71" y1="63" x2="144.44" y2="63"/><line class="cls-11" x1="71" y1="59" x2="144.44" y2="59"/><line class="cls-11" x1="71" y1="55" x2="144.44" y2="55"/><line class="cls-11" x1="71" y1="51" x2="144.44" y2="51"/><line class="cls-11" x1="71" y1="47" x2="144.44" y2="47"/><line class="cls-11" x1="71" y1="43" x2="144.44" y2="43"/><line class="cls-11" x1="71" y1="39" x2="144.44" y2="39"/><line class="cls-11" x1="71" y1="35" x2="144.44" y2="35"/><line class="cls-11" x1="71" y1="31" x2="144.44" y2="31"/><line class="cls-11" x1="71" y1="27" x2="144.44" y2="27"/><line class="cls-11" x1="71" y1="23" x2="144.44" y2="23"/><line class="cls-11" x1="71" y1="19" x2="144.44" y2="19"/><line class="cls-11" x1="71" y1="15" x2="144.44" y2="15"/><line class="cls-11" x1="71" y1="11" x2="144.44" y2="11"/><line class="cls-11" x1="71" y1="7" x2="144.44" y2="7"/><line class="cls-11" x1="71" y1="3" x2="144.44" y2="3"/></g><g><line class="cls-11" x1="-1" y1="71" x2="72.44" y2="71"/><line class="cls-11" x1="-1" y1="67" x2="72.44" y2="67"/><line class="cls-11" x1="-1" y1="63" x2="72.44" y2="63"/><line class="cls-11" x1="-1" y1="59" x2="72.44" y2="59"/><line class="cls-11" x1="-1" y1="55" x2="72.44" y2="55"/><line class="cls-11" x1="-1" y1="51" x2="72.44" y2="51"/><line class="cls-11" x1="-1" y1="47" x2="72.44" y2="47"/><line class="cls-11" x1="-1" y1="43" x2="72.44" y2="43"/><line class="cls-11" x1="-1" y1="39" x2="72.44" y2="39"/><line class="cls-11" x1="-1" y1="35" x2="72.44" y2="35"/><line class="cls-11" x1="-1" y1="31" x2="72.44" y2="31"/><line class="cls-11" x1="-1" y1="27" x2="72.44" y2="27"/><line class="cls-11" x1="-1" y1="23" x2="72.44" y2="23"/><line class="cls-11" x1="-1" y1="19" x2="72.44" y2="19"/><line class="cls-11" x1="-1" y1="15" x2="72.44" y2="15"/><line class="cls-11" x1="-1" y1="11" x2="72.44" y2="11"/><line class="cls-11" x1="-1" y1="7" x2="72.44" y2="7"/><line class="cls-11" x1="-1" y1="3" x2="72.44" y2="3"/><line class="cls-11" x1="1.04" y1="69" x2="74.48" y2="69"/><line class="cls-11" x1="1.04" y1="65" x2="74.48" y2="65"/><line class="cls-11" x1="1.04" y1="61" x2="74.48" y2="61"/><line class="cls-11" x1="1.04" y1="57" x2="74.48" y2="57"/><line class="cls-11" x1="1.04" y1="53" x2="74.48" y2="53"/><line class="cls-11" x1="1.04" y1="49" x2="74.48" y2="49"/><line class="cls-11" x1="1.04" y1="45" x2="74.48" y2="45"/><line class="cls-11" x1="1.04" y1="41" x2="74.48" y2="41"/><line class="cls-11" x1="1.04" y1="37" x2="74.48" y2="37"/><line class="cls-11" x1="1.04" y1="33" x2="74.48" y2="33"/><line class="cls-11" x1="1.04" y1="29" x2="74.48" y2="29"/><line class="cls-11" x1="1.04" y1="25" x2="74.48" y2="25"/><line class="cls-11" x1="1.04" y1="21" x2="74.48" y2="21"/><line class="cls-11" x1="1.04" y1="17" x2="74.48" y2="17"/><line class="cls-11" x1="1.04" y1="13" x2="74.48" y2="13"/><line class="cls-11" x1="1.04" y1="9" x2="74.48" y2="9"/><line class="cls-11" x1="1.04" y1="5" x2="74.48" y2="5"/><line class="cls-11" x1="1.04" y1="1" x2="74.48" y2="1"/></g><g><line class="cls-11" x1="-73" y1="71" x2=".44" y2="71"/><line class="cls-11" x1="-73" y1="67" x2=".44" y2="67"/><line class="cls-11" x1="-73" y1="63" x2=".44" y2="63"/><line class="cls-11" x1="-73" y1="59" x2=".44" y2="59"/><line class="cls-11" x1="-73" y1="55" x2=".44" y2="55"/><line class="cls-11" x1="-73" y1="51" x2=".44" y2="51"/><line class="cls-11" x1="-73" y1="47" x2=".44" y2="47"/><line class="cls-11" x1="-73" y1="43" x2=".44" y2="43"/><line class="cls-11" x1="-73" y1="39" x2=".44" y2="39"/><line class="cls-11" x1="-73" y1="35" x2=".44" y2="35"/><line class="cls-11" x1="-73" y1="31" x2=".44" y2="31"/><line class="cls-11" x1="-73" y1="27" x2=".44" y2="27"/><line class="cls-11" x1="-73" y1="23" x2=".44" y2="23"/><line class="cls-11" x1="-73" y1="19" x2=".44" y2="19"/><line class="cls-11" x1="-73" y1="15" x2=".44" y2="15"/><line class="cls-11" x1="-73" y1="11" x2=".44" y2="11"/><line class="cls-11" x1="-73" y1="7" x2=".44" y2="7"/><line class="cls-11" x1="-73" y1="3" x2=".44" y2="3"/><line class="cls-11" x1="-70.96" y1="69" x2="2.48" y2="69"/><line class="cls-11" x1="-70.96" y1="65" x2="2.48" y2="65"/><line class="cls-11" x1="-70.96" y1="61" x2="2.48" y2="61"/><line class="cls-11" x1="-70.96" y1="57" x2="2.48" y2="57"/><line class="cls-11" x1="-70.96" y1="53" x2="2.48" y2="53"/><line class="cls-11" x1="-70.96" y1="49" x2="2.48" y2="49"/><line class="cls-11" x1="-70.96" y1="45" x2="2.48" y2="45"/><line class="cls-11" x1="-70.96" y1="41" x2="2.48" y2="41"/><line class="cls-11" x1="-70.96" y1="37" x2="2.48" y2="37"/><line class="cls-11" x1="-70.96" y1="33" x2="2.48" y2="33"/><line class="cls-11" x1="-70.96" y1="29" x2="2.48" y2="29"/><line class="cls-11" x1="-70.96" y1="25" x2="2.48" y2="25"/><line class="cls-11" x1="-70.96" y1="21" x2="2.48" y2="21"/><line class="cls-11" x1="-70.96" y1="17" x2="2.48" y2="17"/><line class="cls-11" x1="-70.96" y1="13" x2="2.48" y2="13"/><line class="cls-11" x1="-70.96" y1="9" x2="2.48" y2="9"/><line class="cls-11" x1="-70.96" y1="5" x2="2.48" y2="5"/><line class="cls-11" x1="-70.96" y1="1" x2="2.48" y2="1"/></g></g></pattern></defs><g id="BG"><g><path class="cls-6" d="M64.02,40c0,11.47-1.89,22.39-5.5,31.74-7.2,2.16-14.94,3.26-23.02,3.26-.49,0-.98-.01-1.47-.02h-.17c-8.18-.15-16.29-1.47-23.6-3.85-3.45-9.22-5.26-19.93-5.26-31.13s1.89-22.38,5.48-31.73c6.73-2.01,14.13-3.13,21.6-3.26,.48-.01,.97-.01,1.45-.01,.54,0,1.08,.01,1.63,.02,8.16,.15,16.27,1.47,23.59,3.84,3.46,9.24,5.27,19.95,5.27,31.14Z"/><path class="cls-15" d="M34.03,5.59V74.98h-.17c-8.18-.15-16.29-1.47-23.6-3.85-3.45-9.22-5.26-19.93-5.26-31.13s1.89-22.38,5.48-31.73c6.73-2.01,14.13-3.13,21.6-3.26,.65,.16,1.3,.36,1.95,.58Z"/></g></g><g id="Characters"><g><path class="cls-5" d="M60.41,67.15c-1.32,8.09-2.37,8.88-2.37,8.88,0,0-40.44,4.3-50.1-3.43-.36-5.36,.35-7.03,.35-7.03l13.53-3.87,.97-3.96,2.06-1.03,.4-.2,.35-2.28-6.5-12.57,.61-2.73s-.02-.02-.04-.07c-.46-.72-4.26-6.88-4.26-9.95,0-.52,.06-.99,.12-1.41,.35-2.25,1.28-3.25,1.28-3.25,0,0-1.75-4.04-1.32-6.24,6.42-2.63,12.25-7.21,14.42-10.11,9.14-.7,14.15,5.72,15.47,8.88-.35,1.76-.44,2.02-.44,2.02,0,0,.26,.01,.67,.06h.01c1.25,.17,3.89,.74,4.95,2.58,.34,1.57,.51,3.1,.54,4.5,.13,4.24-.81,7.37-.81,7.37l-3.42,4.92,.7,2.99s-3.25,6.94-4.13,9.05c-.88,2.11-2.29,4.31-2.29,4.31l.53,2.2,2.2,1.23c.88,2.37,1.32,4.39,1.32,4.39,0,0,13.44,2.9,15.2,4.75Z"/><path class="cls-1" d="M50.25,32.69l-3.07,5.54,.7,2.99s-3.25,6.94-4.13,9.05c-.88,2.11-2.29,4.31-2.29,4.31l.53,2.2,.29,3.53s-4.69,6.73-8.26,9.38c-4.9-1.93-8.57-9.48-8.57-9.48l-.3-3.5,.4-.2,.35-2.28-6.5-12.57,.61-2.73s-.02-.02-.04-.07c-.46-.72-4.26-6.88-4.26-9.95,0-.52,.06-.99,.12-1.41l2.48-5.45,4.38-2.14,7.15-2.25,6.02-.81,6.01,.51,7.45,3.87,2.09,4.71c.13,4.24-1.16,6.75-1.16,6.75Z"/><path class="cls-2" d="M33.28,62.14V27.3c0-4.32,3.97-7.68,8.18-6.72,.29,.07,.53,.14,.73,.23,1.67-.64,2.15-1.43,2.15-1.43,0,0,4.37,4.29,1.83,18.05,1.03,2.07,1.6,4.11,1.6,4.11l-10.34,19.18s-.57,1.01-4.14,1.42Z"/><path class="cls-18" d="M45.38,16.78s-1.76,3.53-2.84,4.29c-5.85-1.41-11.8-2.16-19.59,2.06-1.73,0-2.92-.11-2.92-.11,0,0-1.19,8.76,.21,13.85-.69,1.29-.62,1.82-.57,1.99-.46-.72-4.26-6.88-4.26-9.95,.08-3.25,1.4-4.66,1.4-4.66,0,0-1.75-4.04-1.32-6.24,6.42-2.63,12.25-7.21,14.42-10.11,9.14-.7,14.15,5.72,15.47,8.88Z"/><path class="cls-18" d="M50.3,33.31l-3.42,4.92-.55-.71s1.19-5.2,.75-10.39c-.43-5.19-2.7-7.58-2.7-7.58l1.23-.69h.01c1.25,.17,3.89,.74,4.95,2.58,1.4,6.33-.27,11.87-.27,11.87Z"/><path class="cls-3" d="M29.86,36.51s-3.65-1.78-7.06-.39c1.55,2.02,5.35,3.49,7.06,.39Z"/><path class="cls-3" d="M36.92,36.51s3.65-1.78,7.06-.39c-1.55,2.02-5.35,3.49-7.06,.39Z"/><path class="cls-4" d="M31.58,31.49l-1.19,4.87s-4.32-1.82-8.08,.04c-.67-2.65-.67-4.04-.67-4.04,0,0,3.37-1.54,4.71-1.7,2.38,.55,4.2,1.47,4.2,1.47l1.03-.63Z"/><path class="cls-4" d="M35.27,31.49l.87,4.83s4.38-1.86,8.14,0c.67-2.65,1.16-4.09,1.16-4.09,0,0-3.59-1.42-4.94-1.58-2.38,.55-4.2,1.47-4.2,1.47l-1.03-.63Z"/><path class="cls-16" d="M44.03,15.08s-5.02-4.47-11.51,.37-14.7,5.94-16.8,4.47c-.55-.82-.37-1.37-.37-1.37,0,0,6.48,2.28,11.6-2.83s6.94-6.3,10.5-6.57c5.2,2.19,6.57,5.94,6.57,5.94Z"/><path class="cls-16" d="M46.31,24.33s2.78,1.3,4.63-.09c.19,5.09-.09,6.76-.09,6.76l-3.52-.28s.28-3.89-1.02-6.39Z"/><path class="cls-16" d="M19.74,25.99s-2.13,.65-3.52-.19c-1.3,2.87-.46,5.65,.74,7.41,1.02-1.11,2.22-1.39,2.22-1.39l.56-5.83Z"/><path d="M19.83,38.87l-2.6-3.72s-.93,4.27,0,6.19c1.11,2.17,3.03,3.65,3.03,3.65l-1.24-3.47,.81-2.66Z"/><path class="cls-1" d="M46.96,38.87l2.6-3.72s.93,4.27,0,6.19c-1.11,2.17-3.03,3.65-3.03,3.65l1.24-3.47-.81-2.66Z"/><path class="cls-4" d="M25.09,54.41s2.75-2.75,3.83-3.29l.31,1.3s4.36,1.15,7.81,.08c.31-.77,.38-1.22,.38-1.22,0,0,2.37,1.22,3.6,2.45-1.68,4.29-3.44,7.27-3.44,7.27,0,0-2.53,1.07-4.29,1.15s-4.13-1.22-4.13-1.22l-4.06-6.5Z"/><polygon points="37.87 60.98 28.32 74.78 9.98 71.21 9.01 65.61 21.47 62.04 22.79 57.74 25.16 56.71 25.81 55.18 29.15 60.91 32.95 62.13 37.87 60.98"/><path class="cls-1" d="M44.04,21.51c.82,1.71,2.15,5.35,1.58,10.05-.42,2.54-.71,4.4-.88,5.53l-.02,.1s0,.06-.01,.09l-.02,.2c-.02,.25,.04,.5,.19,.7l.12,.16s0,0,0,0c.05,.07,.83,1.22,.98,3.08-2.24,5.06-7.86,15.65-9.53,18.15-.53,.31-1.49,.69-3.19,.95-1.38-.21-2.5-.54-3.21-.95-1.67-2.49-7.29-13.07-9.53-18.15,.15-1.86,.92-3.01,.98-3.08,0,0,0,0,0,0l.12-.16c.15-.2,.22-.45,.19-.7l-.02-.2s0-.06-.01-.09l-.02-.1c-.16-1.12-.45-2.94-.86-5.43-.12-2.41,.37-5.57,.7-7.32,.45,.07,.9,.12,1.38,.16h.14s.05,.01,.07,.01c.16,0,.33-.04,.47-.12l.13-.07c4.11-2.2,9.09-2.67,12.55-2.67,2.83,0,5,.32,5.77,.54l.22,.06c.09,.02,.18,.04,.26,.04,.2,0,.39-.06,.55-.17l.16-.11c.26-.16,.5-.33,.73-.51m.29-1.57c-.41,.41-.92,.83-1.56,1.24l-.18,.12-.22-.06c-.91-.26-3.18-.57-6.03-.57-3.92,0-8.94,.6-13.02,2.78l-.13,.07h-.14c-.85-.08-1.59-.2-2.24-.34-.26,1.26-1.07,5.5-.9,8.59,.78,4.75,.88,5.58,.89,5.61l.02,.2-.12,.16s-1.07,1.46-1.19,3.86c2.25,5.16,8.26,16.47,9.84,18.71,.84,.55,2.19,.97,3.91,1.22,1.74-.25,3.05-.66,3.9-1.22,1.57-2.24,7.58-13.54,9.84-18.71-.12-2.4-1.18-3.85-1.19-3.86l-.12-.16,.02-.2s.11-.86,.9-5.66c.83-6.86-2.13-11.54-2.28-11.78h0Z"/><path class="cls-2" d="M24.46,43.87s1.6-.5,3.61-3.28c-3.19,2.02-5.63,.84-5.63,.84"/><path class="cls-5" d="M24.91,57.55c-.51,.42-1.06,.76-1.59,1.13l.23-.3c-.03,1.54-.18,3.07-.39,4.59-2.95,1.16-5.99,2.05-9.1,2.64-.98,.21-1.98,.34-2.99,.43,0,0-.03-.1-.03-.1,3.67-1.13,7.87-2.67,11.3-3.58-.01-.04,.77-4.06,.76-4.1,0,0,.03-.01,.03-.01l1.74-.79,.04,.09h0Z"/><path class="cls-8" d="M44.73,19.64s3.26,4.85,2.37,12.16c-.79,4.85-.89,5.64-.89,5.64,0,0,1.19,1.58,1.29,4.25-2.18,5.04-8.41,16.81-9.99,18.99-1,.68-2.53,1.11-4.25,1.36-1.72-.25-3.26-.68-4.26-1.36-1.58-2.18-7.81-13.95-9.99-18.99,.1-2.67,1.29-4.25,1.29-4.25,0,0-.1-.79-.89-5.64-.2-3.76,.99-9.1,.99-9.1"/><path class="cls-18" d="M36.66,45.53s5.82,1.45,9.95,7.57c1.45,1.31,5.05,1.46,5.05,1.46,0,0-4.36,2.52-8.42,1.38-2.55-3.16-6.61-5.65-9.93-6.73-3.32,1.07-7.38,3.56-9.94,6.73-4.05,1.14-8.42-1.38-8.42-1.38,0,0,3.6-.15,5.05-1.46,4.14-6.12,9.95-7.57,9.95-7.57,0,0,2.38,.41,3.48,1.14,1.6-.64,3.23-1.14,3.23-1.14Z"/><path class="cls-16" d="M26.83,46.99s.57,3.33,5.24,2.52c-3.15,1.61-5.19,3.24-5.19,3.24,0,0-4.66-1.09-3.38-3.62,2.28-1.71,3.33-2.14,3.33-2.14Z"/><path class="cls-16" d="M39.87,46.99s-.57,3.33-5.24,2.52c3.15,1.61,5.19,3.24,5.19,3.24,0,0,4.66-1.09,3.38-3.62-2.28-1.71-3.33-2.14-3.33-2.14Z"/><path class="cls-12" d="M36.66,45.53s5.82,1.45,9.95,7.57c1.45,1.31,5.05,1.46,5.05,1.46,0,0-4.36,2.52-8.42,1.38-2.55-3.16-6.61-5.65-9.93-6.73-3.32,1.07-7.38,3.56-9.94,6.73-4.05,1.14-8.42-1.38-8.42-1.38,0,0,3.6-.15,5.05-1.46,4.14-6.12,9.95-7.57,9.95-7.57,0,0,2.38,.41,3.48,1.14,1.6-.64,3.23-1.14,3.23-1.14Z"/><path class="cls-8" d="M17.97,21.62s1.73,1.13,5.11,1.39c7.28-3.9,17.25-2.86,19.42-2.25,2.86-1.82,2.95-3.9,2.95-3.9,0,0-1.39-3.47-5.46-6.42s-10.32-2.34-10.32-2.34c0,0-4.59,6.07-14.39,10.23,.35,5.29,1.56,6.16,1.56,6.16,0,0-1.3,1.65-1.3,4.07s2.69,8.5,3.81,9.97"/><path class="cls-8" d="M45.01,18.81s3.03-.28,5.52,2.48c1.29,7.63-.28,11.4-.28,11.4l-3.4,5.33"/><path class="cls-8" d="M41.37,54.46l.44,5.92s-3.3,5.8-8.48,9.4c-5.18-3.59-8.49-9.4-8.49-9.4l.44-5.92"/><path class="cls-8" d="M24.97,56.64s-1.97,.73-2.33,1.24c-1.24,4.59-2.77,10.64-2.77,10.64,0,0,1.82,4.67,4.3,6.56"/><line class="cls-8" x1="7.99" y1="66.12" x2="21.62" y2="61.74"/><path class="cls-8" d="M41.66,56.71s1.75,.66,2.11,1.17c1.24,4.59,2.77,10.64,2.77,10.64,0,0-1.82,4.67-4.3,6.56"/><line class="cls-8" x1="59.72" y1="66.6" x2="44.8" y2="61.74"/><path d="M26.31,74.29c1.74-1.69,3.18-3.58,5.33-4.81,.33,.76,.68,1.51,.99,2.28-.52-.44-1.07-.85-1.61-1.28l.6,.15c-1.65,1.18-3.15,2.89-4.59,4.35-.44,.48-1.18-.22-.73-.69h0Z"/><path d="M39.62,74.98c-1.44-1.45-2.95-3.17-4.59-4.35,0,0,.6-.14,.6-.14l-1.59,1.27,.82-1.9,.16-.36c1.28,.6,2.07,1.55,3.04,2.45,.78,.77,1.54,1.55,2.3,2.34,.19,.2,.18,.52-.02,.71-.2,.19-.52,.18-.71-.02h0Z"/><path d="M37.78,42.52c.8,.71,1.8,1.61,1.63,2.81-2.04,.36-4.16,.95-5.98,1.91-1.83-.96-3.95-1.55-5.99-1.91-.19-1.2,.83-2.1,1.63-2.81-.28,.41-.56,.82-.77,1.26-.2,.42-.38,.92-.29,1.24l-.27-.24c2.07,.08,4.05,.55,5.93,1.46,0,0-.46,0-.46,0,1.88-.9,3.85-1.37,5.92-1.46,0,0-.27,.25-.27,.25,.11-.82-.6-1.79-1.07-2.5h0Z"/><path class="cls-8" d="M37.52,51.48s-.06,.65-.45,1.04c-2.01,.45-3.76,.52-3.76,.52,0,0-1.75-.06-3.76-.52-.39-.39-.45-1.04-.45-1.04"/><path d="M30.42,33.6c-1.38-.83-2.99-1.77-4.54-2.1,0,0,.22-.02,.22-.02-.75,.09-1.5,.22-2.24,.36-.76,.15-1.51,.27-2.24,.57,.44-.7,1.18-1.17,1.88-1.57,.73-.4,1.51-.68,2.28-.95,2.16-.08,4.05,.65,5.91,1.59,0,0-1.26,2.12-1.26,2.12h0Z"/><path d="M35.24,31.48c1.86-.95,3.75-1.67,5.91-1.6,1.53,.54,3.18,1.11,4.29,2.35-1.55-.36-3.05-.54-4.61-.76,0,0,.22,.02,.22,.02-.75,.15-1.54,.48-2.31,.85-.75,.37-1.54,.82-2.24,1.26,0,0-1.26-2.12-1.26-2.12h0Z"/><path d="M22.98,39.9c2.8,1.54,5.1-1.55,6.37-3.7,0,0,.18,.68,.18,.68-1.96-.98-4.58-1.59-6.48-.25,0,0,.02-.55,.02-.55,.51,.52,1.07,.98,1.69,1.38,.62,.39,1.3,.7,2.04,.85-1.69,.06-3.29-.86-4.53-1.95,2.05-2.11,5.39-1.62,7.72-.33,0,0,.46,.25,.46,.25-1.38,2.43-4.6,6.03-7.47,3.62h0Z"/><path d="M20.85,41.94c1.27,1.16,2.22,2.31,3.63,3.29-1.75-.15-3.14-1.69-3.63-3.29h0Z"/><path d="M43.59,39.9c-2.87,2.41-6.09-1.19-7.47-3.62,0,0,.46-.25,.46-.25,2.34-1.29,5.68-1.78,7.72,.33,0,0-.3,.26-.3,.26-1.17,.97-2.67,1.75-4.22,1.69,1.47-.3,2.7-1.19,3.73-2.23,0,0,.02,.55,.02,.55-1.91-1.34-4.53-.73-6.48,.25,0,0,.18-.68,.18-.68,1.27,2.14,3.57,5.23,6.37,3.7h0Z"/><path d="M45.73,41.94c-.5,1.6-1.89,3.14-3.63,3.29,1.41-.98,2.37-2.13,3.63-3.29h0Z"/><path d="M30.62,28.83c.45,.82,.78,1.74,1.06,2.64l-.99,.14c.04-.94,.06-1.84-.07-2.78,0,0,.13,.94,0,0Z"/><path d="M36.3,28.83c-.13,.94-.12,1.84-.07,2.78l-.99-.14c.29-.89,.62-1.81,1.06-2.64,0,0-.45,.82,0,0Z"/><path d="M26.97,26.5c4.13-1.98,9.23-1.66,13.33,.22-4.46-.51-8.87-.84-13.33-.22h0Z"/><path class="cls-13" d="M18.07,17.13s4.38-.81,10.55,3.84"/><path class="cls-13" d="M20.61,15.94s4.6-.27,9.25,4.44"/><path class="cls-13" d="M25.59,12.58s8.22-.43,14.01,7.68"/><path class="cls-13" d="M26.94,11.01s10.23,.6,13.64,9.25"/><path class="cls-8" d="M49.19,34.92s2.07,6.86-3.27,10.61"/><path class="cls-8" d="M17.2,34.92s-2.07,6.86,3.27,10.61"/></g></g><g id="Frame"><path class="cls-5" d="M62.56,4.88C54.4,1.94,45.12,.2,35.25,.02c-.57-.01-1.15-.02-1.72-.02C23.88,0,14.77,1.52,6.72,4.21,2.49,14.22,0,26.6,0,40s2.39,25.22,6.45,35.11c8.16,2.94,17.45,4.69,27.32,4.87,.58,.01,1.15,.02,1.73,.02,9.63,0,18.73-1.51,26.78-4.2,4.24-10.01,6.74-22.39,6.74-35.8s-2.4-25.24-6.46-35.12Zm-4.04,66.86c-7.2,2.16-14.94,3.26-23.02,3.26-.49,0-.98-.01-1.47-.02h-.17c-8.18-.15-16.29-1.47-23.6-3.85-3.45-9.22-5.26-19.93-5.26-31.13s1.89-22.38,5.48-31.73c6.73-2.01,14.13-3.13,21.6-3.26,.48-.01,.97-.01,1.45-.01,.54,0,1.08,.01,1.63,.02,8.16,.15,16.27,1.47,23.59,3.84,3.46,9.24,5.27,19.95,5.27,31.14s-1.89,22.39-5.5,31.74Z"/><path class="cls-14" d="M17.21,2.06h0c1.63,.63,2.06,2.75,.81,3.97l-1.26,1.22s8.35-2.37,18.84-1.69h0c-1-1.49-.45-3.52,1.14-4.34l1-.51S28.26-.43,17.21,2.06Z"/><path class="cls-17" d="M21.81,1.66s.7,2.18-.22,3.1c3.77-.41,7.98-.74,11.12-.74-.33-1.33,1.26-3.4,1.26-3.4,0,0-6.17-.26-12.16,1.03Z"/><path class="cls-14" d="M36.25,79.21h0c-1.52-.87-1.62-3.03-.2-4.04l1.43-1.02s-8.61,1.07-18.88-1.19h0c.76,1.63-.09,3.55-1.79,4.11l-1.07,.36s9.19,2.56,20.5,1.78Z"/><path class="cls-17" d="M19.28,77.8s1.76-1.83,1.3-3.09c4.43,.69,9.11,1.14,12.25,1.14-.33,1.33,.44,3.4,.44,3.4,0,0-8-.16-13.99-1.45Z"/><polygon points="47.48 1.77 47.48 6.73 54.49 8.44 54.49 2.62 47.48 1.77"/><line class="cls-7" x1="45.5" y1="1.23" x2="45.5" y2="6.29"/><line class="cls-7" x1="56.47" y1="3.67" x2="56.47" y2="8.73"/><polygon points="47.48 78.74 47.48 73.78 54.49 72.07 54.49 77.88 47.48 78.74"/><line class="cls-7" x1="45.5" y1="79.28" x2="45.5" y2="74.21"/><line class="cls-7" x1="56.47" y1="76.84" x2="56.47" y2="71.77"/><path d="M33.53,1c.56,0,1.14,0,1.7,.02,9.39,.17,18.33,1.74,26.57,4.65,4.07,10.08,6.22,21.94,6.22,34.33s-2.24,24.79-6.49,34.99c-8.12,2.66-16.87,4.01-26.03,4.01-.56,0-1.12,0-1.71-.02-9.25-.17-18.42-1.78-26.58-4.66C3.15,64.25,1,52.39,1,40S3.23,15.21,7.47,5.02C15.6,2.35,24.37,1,33.53,1m0-1C23.88,0,14.77,1.52,6.72,4.21,2.49,14.22,0,26.6,0,40s2.39,25.22,6.45,35.11c8.16,2.94,17.45,4.69,27.32,4.87,.58,.01,1.15,.02,1.73,.02,9.63,0,18.73-1.51,26.78-4.2,4.24-10.01,6.74-22.39,6.74-35.8s-2.4-25.24-6.46-35.12C54.4,1.94,45.12,.2,35.25,.02c-.57,0-1.15-.02-1.72-.02h0Z"/><path class="cls-14" d="M33.53,6c.52,0,1.04,0,1.61,.02,7.87,.14,15.75,1.4,22.84,3.64,3.3,9,5.04,19.47,5.04,30.34s-1.82,21.82-5.26,30.92c-6.98,2.04-14.47,3.08-22.26,3.08-.48,0-.97,0-1.47-.02h-.15c-7.89-.14-15.78-1.41-22.85-3.65-3.29-8.99-5.03-19.46-5.03-30.33s1.81-21.79,5.24-30.91c6.5-1.89,13.7-2.95,20.86-3.08,.47,0,.96,0,1.43,0m0-1c-.48,0-.97,0-1.45,.01-7.47,.13-14.87,1.25-21.6,3.26-3.59,9.35-5.48,20.26-5.48,31.73s1.81,21.91,5.26,31.13c7.31,2.38,15.42,3.7,23.6,3.85h.17c.49,.01,.98,.02,1.47,.02,8.08,0,15.82-1.1,23.02-3.26,3.61-9.35,5.5-20.27,5.5-31.74s-1.81-21.9-5.27-31.14c-7.32-2.37-15.43-3.69-23.59-3.84-.55,0-1.09-.02-1.63-.02h0Z"/><path d="M33.53,5c.54,0,1.08,.01,1.63,.02,8.16,.15,16.27,1.47,23.59,3.84,3.46,9.24,5.27,19.95,5.27,31.14s-1.89,22.39-5.5,31.74c-7.2,2.16-14.94,3.26-23.02,3.26-.49,0-.98-.01-1.47-.02h-.17c-8.18-.15-16.29-1.47-23.6-3.85-3.45-9.22-5.26-19.93-5.26-31.13s1.89-22.38,5.48-31.73c6.73-2.01,14.13-3.13,21.6-3.26,.48-.01,.97-.01,1.45-.01m0-1c-.49,0-.98,0-1.47,.01-7.51,.13-15.07,1.27-21.87,3.3l-.47,.14-.18,.46c-3.63,9.45-5.55,20.55-5.55,32.09s1.84,22.17,5.32,31.48l.17,.45,.46,.15c7.37,2.4,15.63,3.75,23.89,3.9h.19c.48,.01,.97,.02,1.47,.02,8.16,0,16-1.11,23.31-3.3l.47-.14,.18-.46c3.64-9.43,5.57-20.53,5.57-32.1s-1.84-22.17-5.33-31.49l-.17-.45-.46-.15c-7.39-2.39-15.65-3.74-23.88-3.89-.58-.01-1.12-.02-1.65-.02h0Z"/><path class="cls-9" d="M8.14,7.1s-12.66,32.94,0,66.06"/><path class="cls-9" d="M60.88,7.58s12.66,32.94,0,66.06"/></g></svg>