<svg id="Capa_2" xmlns="http://www.w3.org/2000/svg" xmlns:xlink="http://www.w3.org/1999/xlink" viewBox="0 0 69.02 80">
<defs >
<style >
.cls-1{fill:#c89aed;}.cls-2{fill:#fff;}.cls-3{fill:#f8ffbf;}.cls-4{fill:#7b7be8;}.cls-5{fill:#a88347;}.cls-6{fill:#782ab5;}.cls-7,.cls-8,.cls-9,.cls-10,.cls-11,.cls-12,.cls-13{fill:none;}.cls-7,.cls-8,.cls-10,.cls-13{stroke:#000;stroke-miterlimit:10;}.cls-8,.cls-9,.cls-10{stroke-linecap:round;}.cls-14{fill:#1c46ff;}.cls-9{stroke:#deb778;stroke-dasharray:0 0 0 4.06;stroke-linejoin:round;}.cls-10,.cls-13{stroke-width:.5px;}.cls-15{fill:#deb778;}.cls-16{fill:url(#USGS_19_Inundación_de_tierra_2);}.cls-12{stroke:#1d1d1b;stroke-dasharray:0 0 2 2;stroke-width:.3px;}.cls-17{fill:#fcf0c5;}.cls-18{fill:#b83521;}
</style>
<pattern id="USGS_19_Inundación_de_tierra_2" x="0" y="0" width="72" height="72" patternTransform="translate(-452.48 -16135) rotate(-90)" patternUnits="userSpaceOnUse" viewBox="0 0 72 72">
<g >
<rect class="cls-11" width="72" height="72">
</rect>
<g >
<line class="cls-12" x1="71" y1="71" x2="144.44" y2="71">
</line>
<line class="cls-12" x1="71" y1="67" x2="144.44" y2="67">
</line>
<line class="cls-12" x1="71" y1="63" x2="144.44" y2="63">
</line>
<line class="cls-12" x1="71" y1="59" x2="144.44" y2="59">
</line>
<line class="cls-12" x1="71" y1="55" x2="144.44" y2="55">
</line>
<line class="cls-12" x1="71" y1="51" x2="144.44" y2="51">
</line>
<line class="cls-12" x1="71" y1="47" x2="144.44" y2="47">
</line>
<line class="cls-12" x1="71" y1="43" x2="144.44" y2="43">
</line>
<line class="cls-12" x1="71" y1="39" x2="144.44" y2="39">
</line>
<line class="cls-12" x1="71" y1="35" x2="144.44" y2="35">
</line>
<line class="cls-12" x1="71" y1="31" x2="144.44" y2="31">
</line>
<line class="cls-12" x1="71" y1="27" x2="144.44" y2="27">
</line>
<line class="cls-12" x1="71" y1="23" x2="144.44" y2="23">
</line>
<line class="cls-12" x1="71" y1="19" x2="144.44" y2="19">
</line>
<line class="cls-12" x1="71" y1="15" x2="144.44" y2="15">
</line>
<line class="cls-12" x1="71" y1="11" x2="144.44" y2="11">
</line>
<line class="cls-12" x1="71" y1="7" x2="144.44" y2="7">
</line>
<line class="cls-12" x1="71" y1="3" x2="144.44" y2="3">
</line>
</g>
<g >
<line class="cls-12" x1="-1" y1="71" x2="72.44" y2="71">
</line>
<line class="cls-12" x1="-1" y1="67" x2="72.44" y2="67">
</line>
<line class="cls-12" x1="-1" y1="63" x2="72.44" y2="63">
</line>
<line class="cls-12" x1="-1" y1="59" x2="72.44" y2="59">
</line>
<line class="cls-12" x1="-1" y1="55" x2="72.44" y2="55">
</line>
<line class="cls-12" x1="-1" y1="51" x2="72.44" y2="51">
</line>
<line class="cls-12" x1="-1" y1="47" x2="72.44" y2="47">
</line>
<line class="cls-12" x1="-1" y1="43" x2="72.44" y2="43">
</line>
<line class="cls-12" x1="-1" y1="39" x2="72.44" y2="39">
</line>
<line class="cls-12" x1="-1" y1="35" x2="72.44" y2="35">
</line>
<line class="cls-12" x1="-1" y1="31" x2="72.44" y2="31">
</line>
<line class="cls-12" x1="-1" y1="27" x2="72.44" y2="27">
</line>
<line class="cls-12" x1="-1" y1="23" x2="72.44" y2="23">
</line>
<line class="cls-12" x1="-1" y1="19" x2="72.44" y2="19">
</line>
<line class="cls-12" x1="-1" y1="15" x2="72.44" y2="15">
</line>
<line class="cls-12" x1="-1" y1="11" x2="72.44" y2="11">
</line>
<line class="cls-12" x1="-1" y1="7" x2="72.44" y2="7">
</line>
<line class="cls-12" x1="-1" y1="3" x2="72.44" y2="3">
</line>
<line class="cls-12" x1="1.04" y1="69" x2="74.48" y2="69">
</line>
<line class="cls-12" x1="1.04" y1="65" x2="74.48" y2="65">
</line>
<line class="cls-12" x1="1.04" y1="61" x2="74.48" y2="61">
</line>
<line class="cls-12" x1="1.04" y1="57" x2="74.48" y2="57">
</line>
<line class="cls-12" x1="1.04" y1="53" x2="74.48" y2="53">
</line>
<line class="cls-12" x1="1.04" y1="49" x2="74.48" y2="49">
</line>
<line class="cls-12" x1="1.04" y1="45" x2="74.48" y2="45">
</line>
<line class="cls-12" x1="1.04" y1="41" x2="74.48" y2="41">
</line>
<line class="cls-12" x1="1.04" y1="37" x2="74.48" y2="37">
</line>
<line class="cls-12" x1="1.04" y1="33" x2="74.48" y2="33">
</line>
<line class="cls-12" x1="1.04" y1="29" x2="74.48" y2="29">
</line>
<line class="cls-12" x1="1.04" y1="25" x2="74.48" y2="25">
</line>
<line class="cls-12" x1="1.04" y1="21" x2="74.48" y2="21">
</line>
<line class="cls-12" x1="1.04" y1="17" x2="74.48" y2="17">
</line>
<line class="cls-12" x1="1.04" y1="13" x2="74.48" y2="13">
</line>
<line class="cls-12" x1="1.04" y1="9" x2="74.48" y2="9">
</line>
<line class="cls-12" x1="1.04" y1="5" x2="74.48" y2="5">
</line>
<line class="cls-12" x1="1.04" y1="1" x2="74.48" y2="1">
</line>
</g>
<g >
<line class="cls-12" x1="-73" y1="71" x2=".44" y2="71">
</line>
<line class="cls-12" x1="-73" y1="67" x2=".44" y2="67">
</line>
<line class="cls-12" x1="-73" y1="63" x2=".44" y2="63">
</line>
<line class="cls-12" x1="-73" y1="59" x2=".44" y2="59">
</line>
<line class="cls-12" x1="-73" y1="55" x2=".44" y2="55">
</line>
<line class="cls-12" x1="-73" y1="51" x2=".44" y2="51">
</line>
<line class="cls-12" x1="-73" y1="47" x2=".44" y2="47">
</line>
<line class="cls-12" x1="-73" y1="43" x2=".44" y2="43">
</line>
<line class="cls-12" x1="-73" y1="39" x2=".44" y2="39">
</line>
<line class="cls-12" x1="-73" y1="35" x2=".44" y2="35">
</line>
<line class="cls-12" x1="-73" y1="31" x2=".44" y2="31">
</line>
<line class="cls-12" x1="-73" y1="27" x2=".44" y2="27">
</line>
<line class="cls-12" x1="-73" y1="23" x2=".44" y2="23">
</line>
<line class="cls-12" x1="-73" y1="19" x2=".44" y2="19">
</line>
<line class="cls-12" x1="-73" y1="15" x2=".44" y2="15">
</line>
<line class="cls-12" x1="-73" y1="11" x2=".44" y2="11">
</line>
<line class="cls-12" x1="-73" y1="7" x2=".44" y2="7">
</line>
<line class="cls-12" x1="-73" y1="3" x2=".44" y2="3">
</line>
<line class="cls-12" x1="-70.96" y1="69" x2="2.48" y2="69">
</line>
<line class="cls-12" x1="-70.96" y1="65" x2="2.48" y2="65">
</line>
<line class="cls-12" x1="-70.96" y1="61" x2="2.48" y2="61">
</line>
<line class="cls-12" x1="-70.96" y1="57" x2="2.48" y2="57">
</line>
<line class="cls-12" x1="-70.96" y1="53" x2="2.48" y2="53">
</line>
<line class="cls-12" x1="-70.96" y1="49" x2="2.48" y2="49">
</line>
<line class="cls-12" x1="-70.96" y1="45" x2="2.48" y2="45">
</line>
<line class="cls-12" x1="-70.96" y1="41" x2="2.48" y2="41">
</line>
<line class="cls-12" x1="-70.96" y1="37" x2="2.48" y2="37">
</line>
<line class="cls-12" x1="-70.96" y1="33" x2="2.48" y2="33">
</line>
<line class="cls-12" x1="-70.96" y1="29" x2="2.48" y2="29">
</line>
<line class="cls-12" x1="-70.96" y1="25" x2="2.48" y2="25">
</line>
<line class="cls-12" x1="-70.96" y1="21" x2="2.48" y2="21">
</line>
<line class="cls-12" x1="-70.96" y1="17" x2="2.48" y2="17">
</line>
<line class="cls-12" x1="-70.96" y1="13" x2="2.48" y2="13">
</line>
<line class="cls-12" x1="-70.96" y1="9" x2="2.48" y2="9">
</line>
<line class="cls-12" x1="-70.96" y1="5" x2="2.48" y2="5">
</line>
<line class="cls-12" x1="-70.96" y1="1" x2="2.48" y2="1">
</line>
</g>
</g>
</pattern>
</defs>

<g id="Characters">
<g >
<path d="M29.69,15.94l-6.39-1.3s-2.72,9.24-12.08,14.45c-4.03,5.57-7.7,13.03-7.7,13.03l6.28,29.25s13.26,6.16,28.89,4.74,22.26-3.79,22.26-3.79l3.55-23.45s-4.74-2.37-6.28-9.12c4.26-5.68,.24-18.36-.59-19.89-6.75-.71-15.28-10.89-15.28-10.89,0,0-7.46,.36-12.67,6.99Z">
</path>
<path class="cls-1" d="M37.73,16.23s-10.52-3.26-16.32,6.77c-3.87,9.31-2.66,13.42-2.66,13.42,0,0-.85,7.62,0,9.79,3.75,5.68,7.13,9.79,7.13,9.79,0,0,.67,4.52,4.06,5.36s6.34,.68,8.16,.32,3.75-1.69,4.23-5.68c4.11-5.2,7.25-9.91,7.25-9.91,0,0,.97-6.89,.12-9.67,.36-3.99,.12-6.05,.12-6.05,0,0-11.12-3.51-12.09-14.15Z">
</path>
<path class="cls-2" d="M34.61,55.9V16l3.11,.23s.66,9.65,12.09,14.15c.43,6-.11,6.76-.11,6.76,0,0,1.08,4.64,0,8.52s-7.55,11.75-7.55,11.75c0,0-6.36,.97-7.55-1.51Z">
</path>
<path class="cls-4" d="M36.9,31.55s-.06,2.71,2.65,5.1c2.77,2.52,4.98,3.4,4.98,3.4,0,0,2.58-.76,3.4-1.76,.57-3.21-.63-6.81-.63-6.81,0,0-6.24-2.02-10.4,.06Z">
</path>
<path class="cls-4" d="M31.71,31.55s.06,2.71-2.65,5.1c-2.77,2.52-4.98,3.4-4.98,3.4,0,0-2.58-.76-3.4-1.76-.57-3.21,.63-6.81,.63-6.81,0,0,6.24-2.02,10.4,.06Z">
</path>
<path class="cls-1" d="M20.18,48.45s.78,11.02,3.11,16.53c5.58,3.82,8.13,4.1,8.13,4.1l2.97,4.66,2.97-4.66s9.33-2.76,10.81-8.27c.85-8.76,.14-12.79,.14-12.79,0,0-4.1,6.22-6.29,8.55-1.13,5.58-5.16,5.23-8.83,5.3s-6.5-1.77-7.14-5.58c-3.25-4.1-5.86-7.84-5.86-7.84Z">
</path>
<path class="cls-18" d="M48.95,55.89s9.63,6.99,11.85,10.74c-1.32,5.17-2.74,6.18-2.74,6.18l-23.2,2.53,3.34-5.98s7.19-1.82,10.23-8.21c.41-3.75,.51-5.27,.51-5.27Z">
</path>
<path d="M24.89,48.64s5.23-3.72,7.05-3.8l.82,.6,3.14,.04,.79-.63s5.62,1.82,6.89,3.88c-1.27,7.3-1.82,9.11-1.82,9.11,0,0,.08,3.09-6.18,4.12s-8.08-1.98-8.63-3.17-1.26-8.29-2.06-10.14Z">
</path>
<path class="cls-1" d="M41.53,50.86c-.24,2.53-3.65,5.78-3.65,5.78l-2.06-.56,.8-3.56-2.16-.04-2.44-.04,.79,3.64-2.14,.4s-3.08-2.85-3.72-5.78c1.74-.08,4.68-1.67,4.68-1.67l2.69,1.67,.14-.09,2.16-1.34s2.14,.71,4.91,1.59Z">
</path>
<path class="cls-14" d="M26.88,56.26s1.74,2.38,4.89,1.16,8.04,1.67,9.59-.84c.19,1.8-.58,2.7-.58,2.7,0,0-2.9-1.93-7.72-.39s-5.79,.97-6.18-2.64Z">
</path>
<path class="cls-14" d="M48.5,15.34s-1.79,9.78-8.71,6.27c3.28,7.32,9.63,7.72,9.63,7.72,0,0,9.81-6.42,4.6-10.83-3.71-1.1-5.51-3.16-5.51-3.16Z">
</path>
<path class="cls-14" d="M14.14,27.69s2.52,2.29,5.38,.69c-2.4,5.15-1.03,8.46-1.03,8.46,0,0-6.63-3.55-11.9,0,3.2-5.26,5.26-7.44,5.26-7.44l2.29-1.72Z">
</path>
<path class="cls-14" d="M34.8,74.2l-5.1,1.34s-2.28-1.21-5.64-2.15c-.62-.36-1.2-.73-1.76-1.12-2.28-1.56-4.1-3.31-5.52-5.18-2.8-3.66-4.11-7.79-4.52-11.81,4.43,11.54,19.16,13.8,19.16,13.8l3.38,5.12Z">
</path>
<path class="cls-3" d="M21.42,35.78s5.79-2.3,7.94,.2c-3.7,2.24-7.51,2.38-7.94-.2Z">
</path>
<path class="cls-3" d="M47.02,35.78s-5.79-2.3-7.94,.2c3.7,2.24,7.51,2.38,7.94-.2Z">
</path>
<path class="cls-14" d="M28.91,46.02s0,2.69,3.66,1.43,8.06,.86,7.78-.74c2.29,1.26,2.57,2.34,2.57,2.34l-1.72,1.14-4.18-1.54-2.86,1.6-2.29-1.26-4.35,1.43s-1.6-2.12-.51-3.37c1.32-.74,1.89-1.03,1.89-1.03Z">
</path>
<path d="M48.02,49.57l-13.56,24.93-3.83-.87s-4.37-5.03-6.12-6.23c-2.19-4.59-4.48-14.87-3.83-17.93,3.72,4.81,5.2,6.56,5.2,6.56,0,0,.71,5.25,4.42,5.8s9.29,0,10.39-1.53,1.63-4.27,1.63-4.27l5.69-6.45Z">
</path>
<path class="cls-1" d="M34.18,17.51c.89,0,1.64,.06,2.16,.12,.67,5.88,5.21,10.77,10.59,13.42,.07,.36,.15,.73,.23,1.09,.22,.96,.44,1.95,.38,2.72,0,.07,0,.14,0,.21l.04,1.47c0,.13,.02,.26,.05,.38,.16,.75,.92,4.59-.08,8-2.22,4.12-6.22,9.57-6.72,10.17-.21,.25-.35,.54-.42,.86-.13,.62-.26,1.08-.44,1.52-.34,.87-1.02,1.62-1.83,2.04-.74,.23-1.56,.34-2.51,.34-1.32,0-2.67-.22-3.81-.43-.05-.01-.11-.02-.16-.02-2.3-.23-3.41-1.31-3.95-3.83-.07-.31-.21-.6-.41-.85-.03-.04-.1-.12-.2-.24-3.08-3.63-5.48-6.93-6.8-9.34-.9-3.08,.02-6.42,.32-7.53,.06-.2,.1-.36,.12-.45,.06-.25,.06-.52,.02-.77l-.29-1.65c-.12-1.83,.32-3.52,.86-5.38,.76-2.63,1.77-5.49,3.92-8.51,2.21-2.74,6.07-3.32,8.92-3.32m3.6-2.4c-.18,0-.32,.52-.4,.64-.58-.1-1.75-.24-3.21-.24-3.21,0-7.8,.7-10.51,4.11-2.43,3.39-3.5,6.57-4.25,9.16-.6,2.06-1.09,3.99-.93,6.17l.3,1.76c-.15,.68-1.65,5.04-.34,9.18,2.31,4.32,6.99,9.69,7.3,10.07,.63,2.95,2.15,5.04,5.7,5.4,1.37,.26,2.79,.47,4.18,.47,1.11,0,2.21-.13,3.26-.48,1.34-.63,2.42-1.81,2.95-3.18,.24-.6,.4-1.21,.53-1.82,.48-.58,4.73-6.35,7.03-10.67,1.27-4.06,.33-8.52,.18-9.2l-.04-1.47c.12-1.53-.47-3.26-.69-4.6,.86,.3,2.09,.63,2.96,.82,0,0,.01,0,.02,0,.1,0,.51-.05,.55-.05,.06-.27,.05-.33-.22-.39-7.35-1.62-14.22-7.86-13.89-15.16,.01-.28-.2-.51-.48-.52,0,0,0,0-.01,0h0Zm14.6,16.07c-.02,.08,0,.11,.02,.11,.05,0,.13-.11-.02-.11h0Z">
</path>
<path class="cls-2" d="M41.53,50.86c-.24,2.53-3.65,5.78-3.65,5.78l-2.06-.56,.8-3.56-2.16-.04v-1.87l2.16-1.34s2.14,.71,4.91,1.59Z">
</path>
<path class="cls-2" d="M46.64,53.86l-6.53,12.14s4.76-2.03,6.8-6.07c.37-4.32-.28-6.07-.28-6.07Z">
</path>
<path class="cls-2" d="M20.89,40.72l2.94,1.27s5.25-2.38,6.28-4.13c-2.46,6.12-6.28,7.15-6.28,7.15,0,0-2.54-2.86-2.94-4.29Z">
</path>
<path class="cls-2" d="M51.09,16.82s-1.66,8.62-8.1,9.45c2.7,2.28,3.32,2.39,3.32,2.39,0,0,6.54-6.44,6.54-10.59-.93-.93-1.76-1.25-1.76-1.25Z">
</path>
<path class="cls-2" d="M29.54,72.51s-3.98-.7-7.24-.24c-2.28-1.56-4.1-3.31-5.52-5.18,1.64,1.05,6.15,3.58,8.05,.99,3.86,2.35,4.71,4.43,4.71,4.43Z">
</path>
<path class="cls-14" d="M54.25,34.51c.38,5.3,.4,10.77-1.1,15.91,0,0-.15-.33-.15-.33,3.68,1.72,7.3,3.53,10.66,5.85,0,0-.61,.79-.61,.79-3.26-2.42-6.87-4.38-10.49-6.22,1-5.28,1.38-10.63,1.69-16h0Z">
</path>
<path class="cls-8" d="M4.8,46.21s-1.53-6.99,6.67-17.43c7.63-4.74,8.68-8.11,11.81-13.98,1.77,0,6.67,1.2,6.67,1.2,0,0,4.04-7.01,12.64-7.11,3.44,4.79,8.8,8.91,15,11.04,3.39,6.56,2.29,18.02,.73,19.9,1.09,5.05,3.7,7.81,6.15,8.91">
</path>
<path class="cls-8" d="M38.07,15.93c-.35,7.76,7.58,13.88,14.81,15.47">
</path>
<path class="cls-8" d="M33.07,15.71s2.38-2.53,5.33-2.06c-.19,.77-.3,1.53-.34,2.28">
</path>
<path class="cls-8" d="M37.94,16.18s-9.9-1.98-14.1,3.3c-2.36,3.29-3.75,6.99-4.51,9.64-.58,2.01-.79,4.12-.63,6.21l.1,1.39s-1.14,5.16,.18,9.37c2.34,4.38,7.32,10.33,7.32,10.33">
</path>
<path class="cls-8" d="M49.55,30.45c.35,1.65,.42,3.19,.29,4.88l-.1,1.39s1.14,5.16-.18,9.37c-2.34,4.38-7.32,10.33-7.32,10.33">
</path>
<path class="cls-8" d="M20.12,48.11s1.11,13.28,4.29,19.48c5.25,3.42,7.39,7.79,7.39,7.79">
</path>
<path d="M23.57,25.92c2.33-1.97,5.62-1.57,8.47-1.89,2.92-.14,5.84-.27,8.79-.02,.21,.02,.36,.2,.34,.41-.02,.2-.19,.36-.4,.34-2.49-.09-6.17,.01-8.71,.04l-4.37,.1c-1.47-.03-2.87,.25-4.13,1.03h0Z">
</path>
<path d="M29.08,22.75c.51-.25,13.39-1.41,10.8,.16-3.57-.07-7.18,.03-10.8-.16h0Z">
</path>
<path d="M21.3,31.43c.93-1,2.29-2.12,3.97-2.63,4.15,.93,7.66,1.21,7.66,1.21,0,0-.12,1.57-1.17,2.66-3.35-.86-6.88-2.55-10.1-.8-.29,.16-.59-.2-.36-.44Z">
</path>
<path d="M47.59,31.43c-.93-1-2.29-2.12-3.97-2.63-4.15,.93-7.66,1.21-7.66,1.21,0,0,.12,1.57,1.17,2.66,3.35-.86,6.88-2.55,10.1-.8,.29,.16,.59-.2,.36-.44Z">
</path>
<path d="M21.21,35.86c2.65-1.56,6.19-1.75,8.86-.1,0,0-.28,.36-.28,.36-1.51,1.89-3.5,3.42-5.85,4.09,0,0-.09,.02-.09,.02-.59-.19-1.13-.42-1.66-.71-.5-.27-.98-.6-1.38-.99,.94,.57,2.05,.83,3.12,.94,0,0-.15,0-.15,0,1.05-.28,2.09-.84,2.99-1.47,.92-.66,1.74-1.45,2.44-2.34l.11,.56c-2.52-1.29-5.42-1.11-8.1-.36h0Z">
</path>
<path class="cls-10" d="M21.86,36.74s1.81,1.14,3.53,.91,3.95-1.73,3.95-1.73">
</path>
<path d="M47.31,35.86c-2.68-.76-5.58-.93-8.1,.36,0,0,.11-.56,.11-.56,.7,.89,1.52,1.68,2.44,2.34,.89,.64,1.94,1.19,2.99,1.47,0,0-.15,0-.15,0,1.07-.11,2.18-.37,3.12-.94-.4,.39-.88,.72-1.38,.99-.53,.28-1.07,.52-1.66,.71l-.09-.02c-2.35-.66-4.35-2.2-5.85-4.08,0,0-.28-.36-.28-.36,2.67-1.65,6.21-1.46,8.86,.1h0Z">
</path>
<path class="cls-10" d="M46.67,36.74s-1.81,1.14-3.53,.91-3.95-1.73-3.95-1.73">
</path>
<path d="M36.52,33.55l-.4,1.59s.05-.21,.05-.21c.2,2.67,.92,5.4,2.2,7.77,0,0,.1,.19,.1,.19-.63,1.09-1.46,2.01-2.3,2.88,0,0-.13,.13-.13,.13-1.16,.03-2.33,.04-3.49,.03-.92-.92-1.83-1.89-2.53-3.05,0,0,.13-.23,.13-.23,1.33-2.34,2.09-5.05,2.34-7.72,0-.02,.04,.18,.04,.17,0,0-.46-1.56-.46-1.56l1.06,1.24,.05,.05c-.08,1.47-.33,2.89-.71,4.3-.36,1.36-.88,2.69-1.55,3.95l-.02-.46c.64,.85,1.44,1.65,2.22,2.45l-.35-.15c1.02,0,2.05,0,3.07,.03l-.33,.14c.8-.78,1.62-1.56,2.27-2.42v.36c-1.4-2.49-2.15-5.24-2.41-8.07,0,0,.03-.2,.03-.2l.02-.02,1.12-1.21h0Z">
</path>
<path d="M20.05,41.13c.52,1.94,1.3,3.67,2.93,4.92-2.39,.13-3.23-3.01-2.93-4.92h0Z">
</path>
<path d="M48.65,41.13c.3,1.91-.54,5.06-2.93,4.92,1.63-1.26,2.41-2.98,2.93-4.92h0Z">
</path>
<path d="M44.43,46.79c-.41,1.26-.74,2.53-1.01,3.81-.58,2.63-.25,5.3-1.28,7.9-.53,1.37-1.61,2.55-2.95,3.18-2.37,.79-4.95,1.05-7.41,.59-4.42-.45-5.98-3.79-6.17-7.8-.16-2.65-.66-5.16-1.52-7.67,1.35,2.28,2.16,4.94,2.46,7.56,.23,2.39,1.06,5.29,3.21,6.16,2.8,.94,6.4,.83,8.92-.02,3.11-1.4,2.98-5.2,3.57-8.12,.43-1.96,1.15-3.87,2.18-5.59h0Z">
</path>
<path d="M24.78,48.67c2.02-1.98,4.43-3.55,7.18-4.34,0,0,.23,.97,.23,.97-2.62,.53-5.11,1.89-7.16,3.61,0,0-.24-.24-.24-.24h0Z">
</path>
<path d="M43.4,48.92c-2.06-1.72-4.54-3.09-7.16-3.61,0,0,.23-.97,.23-.97,2.75,.79,5.16,2.37,7.18,4.34,0,0-.24,.24-.24,.24h0Z">
</path>
<path class="cls-13" d="M36.55,52.4l-.74,3.47s.62,.47,2.03,.59c.52-.43,2.93-2.27,3.63-5.68-2.06-.5-4.64-1.58-4.64-1.58l-2.53,1.35-2.54-1.35s-2.58,1.08-4.63,1.58c.69,3.41,3.1,5.25,3.63,5.68,1.41-.12,2.03-.59,2.03-.59l-.74-3.47">
</path>
<path d="M38.46,51.22c.48,.36-.17,.84-.51,1-2.33,.96-5.14,.96-7.46-.01-.27-.16-.67-.38-.65-.76,.03-.13,.12-.21,.2-.26-.15,.18-.1,.37,.05,.47,.62,.61,9.06,.94,8.36-.44h0Z">
</path>
<path d="M48.94,48.14c.25,6,.57,12.45-1.57,18.15,.23-4.58,.64-9.01,.59-13.58,0,0-.01-4.52-.01-4.52l1-.05h0Z">
</path>
<path class="cls-7" d="M48.69,55.3c.19,0,7.25,4.65,12.22,10.55">
</path>
<path class="cls-7" d="M48.13,60.38s-2.14,6.26-11.01,8.21c-1.81,2.83-2.88,4.69-2.88,4.69l-2.74-4.55s-5.95-1.58-8.5-4.32">
</path>
</g>
</g>
 <g
     id="g2850">
    <g
       id="g2837">
      <path
         id="path1951"
         d="M 0.056640625 0.04296875 L 0.056640625 79.943359 L 69.308594 79.943359 L 69.308594 0.04296875 L 0.056640625 0.04296875 z M 33.615234 3.5957031 C 34.206332 3.5957038 34.786991 3.6051034 35.421875 3.6152344 C 44.430653 3.7671809 53.471255 5.1336733 61.560547 7.5546875 L 62.064453 7.7070312 L 62.25 8.1640625 C 66.070247 17.605006 66.990234 28.726438 66.990234 40.0625 C 66.990234 51.398562 65.972723 63.025755 61.988281 72.578125 L 61.791016 73.044922 L 61.275391 73.185547 C 53.273669 75.403966 44.691921 76.529297 35.759766 76.529297 C 35.212453 76.529297 34.675812 76.519896 34.150391 76.509766 L 33.943359 76.509766 C 24.901742 76.357819 15.860367 74.989738 7.7929688 72.558594 L 7.2890625 72.40625 L 7.1035156 71.951172 C 3.2942144 62.520359 2.375 51.369168 2.375 40.0625 C 2.375 28.755832 3.3819737 17.127318 7.3554688 7.5546875 L 7.5527344 7.0898438 L 8.0664062 6.9472656 C 15.509867 4.890923 23.785212 3.7371557 32.005859 3.6054688 C 32.542226 3.5953387 33.078867 3.5957031 33.615234 3.5957031 z "
         style="opacity:1;vector-effect:none;fill:#ffffff;fill-opacity:1;fill-rule:nonzero;stroke:none;stroke-width:1.95200002;stroke-linecap:butt;stroke-linejoin:miter;stroke-miterlimit:4;stroke-dasharray:none;stroke-dashoffset:0;stroke-opacity:1" />
    </g>
    <path
       id="path1154-8-2"
       d="m 33.675163,6.6112954 c 0.557696,0 1.115392,0.00956 1.683415,0.019115 8.427403,0.14336 16.803167,1.4049288 24.363042,3.6700176 3.573384,8.830981 4.443772,19.417362 4.443772,29.761551 0,10.344189 -0.95301,21.39888 -4.68131,30.334991 -7.435942,2.064385 -15.429581,3.274388 -23.774362,3.274388 -0.506058,0 -1.012115,-0.0096 -1.518172,-0.01911 h -0.17557 C 25.56792,73.508883 17.192156,72.088619 9.6426089,69.813973 6.0795528,61.002107 5.2088244,50.415411 5.2088244,40.061979 c 0,-10.353432 0.95335,-21.389323 4.6609939,-30.325434 C 16.820359,7.8155201 24.462856,6.7450981 32.177647,6.6208528 c 0.49573,-0.00956 1.001787,-0.00956 1.497516,-0.00956 m 0,-0.9557337 c -0.506057,0 -1.012114,0 -1.518171,0.00956 C 24.40089,5.7893644 16.593149,6.8789009 9.570315,8.8190405 L 9.0849131,8.9528432 8.8990146,9.3924808 C 5.1500599,18.424166 4.1999116,29.394246 4.1999116,40.061979 c 0,10.667733 0.8675267,21.188618 4.461566,30.0865 l 0.1755708,0.430081 0.4750741,0.14336 c 7.6115135,2.293761 16.1421925,3.584001 24.6728715,3.727361 h 0.196227 c 0.495729,0.0096 1.001786,0.01911 1.518171,0.01911 8.427403,0 16.524318,-1.060864 24.073866,-3.153921 l 0.485403,-0.133802 0.185898,-0.439639 c 3.759282,-9.01257 4.719759,-19.983589 4.719759,-30.679055 0,-10.695466 -0.867528,-21.188618 -4.471894,-30.0960578 L 60.516853,9.5358409 60.041779,9.3924808 C 52.409609,7.108277 43.87893,5.8180364 35.379234,5.6746763 34.780227,5.6651187 34.232859,5.6555621 33.675163,5.6555615 Z"
       style="fill:#ff0000;stroke:#ffffff;stroke-width:1.84341729;stroke-miterlimit:4;stroke-dasharray:none" />
    <path
       id="path1154"
       d="m 33.614853,4.6077955 c 0.591098,0 1.182197,0.01013 1.784241,0.02026 8.932155,0.1519464 17.809578,1.4890758 25.822246,3.8898304 3.787408,9.3599041 4.709928,20.5803481 4.709928,31.5440931 0,10.963745 -1.01009,22.680548 -4.961693,32.151879 -7.881312,2.18803 -16.353723,3.302304 -25.198307,3.302304 -0.536368,0 -1.072735,-0.01013 -1.609102,-0.02026 H 33.97608 C 25.022033,75.343956 16.14461,74.006827 8.1428892,71.595943 4.3664269,62.256298 3.443547,51.035521 3.443547,40.061979 c 0,-10.973542 1.01045,-22.670418 4.9401601,-32.1417498 7.3668369,-2.036083 15.4670749,-3.170617 23.6439369,-3.3023039 0.525421,-0.01013 1.061788,-0.01013 1.587209,-0.01013 m 0,-1.0129766 c -0.536367,0 -1.072734,0 -1.609101,0.01013 C 23.785105,3.7366356 15.509726,4.891429 8.0662653,6.9477716 L 7.5517907,7.0895883 7.3547579,7.5555576 C 3.3812628,17.128188 2.3742062,28.755311 2.3742062,40.061979 c 0,11.306668 0.9194864,22.457692 4.7287876,31.888505 l 0.1860865,0.45584 0.5035283,0.151947 c 8.0673984,2.431144 17.1090154,3.798662 26.1506324,3.950608 h 0.207979 c 0.525421,0.01013 1.061788,0.02026 1.609101,0.02026 8.932155,0 17.514028,-1.124404 25.51575,-3.342823 l 0.514475,-0.141816 0.197032,-0.46597 c 3.984442,-9.55237 5.002445,-21.180489 5.002445,-32.516551 0,-11.336062 -0.919487,-22.457692 -4.739734,-31.8986353 L 62.064202,7.7075041 61.560674,7.5555576 C 53.471382,5.1345434 44.429765,3.7670249 35.420987,3.6150784 c -0.634884,-0.01013 -1.215036,-0.020259 -1.806134,-0.02026 z"
       style="fill:#000000;stroke:#000000;stroke-width:1.95382714;stroke-miterlimit:4;stroke-dasharray:none" />
    <g
       id="g1810">
      <path
         d="M 6.5134911,7.7433673 C 5.6489029,6.8479453 4.058602,6.5681013 3.6272194,7.3820013 3.284151,8.0292783 3.3625296,8.5309135 4.395235,8.9201755 3.2963719,9.5187755 1.4857674,9.4447465 1.1893447,7.4467713 0.95320848,5.8551433 2.674739,4.8863543 3.1399725,5.0916244 3.0034432,3.6818714 1.8221094,4.0692802 0.95849208,3.2813384 0.34259068,2.7194046 0.23126071,-0.02624603 0.0561761,0.04378767 -0.0138576,0.21887227 2.7317937,0.33020157 3.2937267,0.94610377 4.0816685,1.8097211 3.6942598,2.9910547 5.1040128,3.1275841 4.8987425,2.6623507 5.8675315,0.94082017 7.4591593,1.1769564 9.4571345,1.4733791 9.5311625,3.2839847 8.9325635,4.3828467 8.5433008,3.3501417 8.041666,3.2717627 7.3943894,3.6148312 6.5804899,4.0462137 6.8603354,5.6365129 7.7557553,6.5011023"
         style="fill:#000000;stroke:#000000;stroke-width:0.1112323px;stroke-linecap:butt;stroke-linejoin:miter;stroke-opacity:1"
         id="path1737-3" />
      <path
         d="m 62.850738,7.7433673 c 0.864588,-0.895422 2.454889,-1.175266 2.886271,-0.361366 0.343069,0.647277 0.26469,1.148912 -0.768015,1.538174 1.098863,0.5986 2.909467,0.524571 3.20589,-1.473404 0.236136,-1.591628 -1.485394,-2.560417 -1.950628,-2.3551469 0.13653,-1.409753 1.317863,-1.0223442 2.181481,-1.810286 0.615901,-0.5619338 0.727231,-3.30758442 0.902316,-3.23755072 0.07003,0.1750846 -2.675618,0.2864139 -3.237551,0.9023161 C 65.28256,1.8097211 65.669969,2.9910547 64.260216,3.1275841 64.465486,2.6623507 63.496697,0.94082018 61.905069,1.1769564 c -1.997975,0.2964227 -2.072003,2.1070283 -1.473404,3.2058903 0.389263,-1.032705 0.890898,-1.111084 1.538174,-0.7680155 0.8139,0.4313825 0.534054,2.0216817 -0.361366,2.8862711"
         style="fill:#000000;stroke:#000000;stroke-width:0.1112323px;stroke-linecap:butt;stroke-linejoin:miter;stroke-opacity:1"
         id="path1737-3-5" />
      <path
         d="m 62.850738,72.244244 c 0.864588,0.895422 2.454889,1.175266 2.886272,0.361366 0.343068,-0.647277 0.264689,-1.148912 -0.768016,-1.538174 1.098863,-0.5986 2.909468,-0.524571 3.20589,1.473404 0.236137,1.591628 -1.485394,2.560417 -1.950628,2.355147 0.13653,1.409753 1.317864,1.022344 2.181481,1.810286 0.615901,0.561934 0.727231,3.307584 0.902316,3.237551 0.07003,-0.175085 -2.675618,-0.286414 -3.237551,-0.902317 -0.787942,-0.863617 -0.400533,-2.04495 -1.810286,-2.18148 0.20527,0.465234 -0.763519,2.186764 -2.355146,1.950628 -1.997976,-0.296423 -2.072004,-2.107028 -1.473405,-3.20589 0.389263,1.032705 0.890898,1.111084 1.538175,0.768015 0.813899,-0.431382 0.534054,-2.021682 -0.361366,-2.886271"
         style="fill:#000000;stroke:#000000;stroke-width:0.1112323px;stroke-linecap:butt;stroke-linejoin:miter;stroke-opacity:1"
         id="path1737-3-7" />
      <path
         d="M 6.513491,72.244245 C 5.648903,73.139667 4.058602,73.419511 3.62722,72.605611 3.284151,71.958334 3.36253,71.456699 4.395235,71.067437 c -1.098863,-0.5986 -2.909467,-0.524571 -3.20589,1.473404 -0.23613599,1.591628 1.485394,2.560417 1.950628,2.355147 -0.13653,1.409753 -1.317863,1.022344 -2.18148099,1.810286 -0.615901,0.561933 -0.727231,3.307584 -0.902316,3.23755 C -0.01385399,79.76874 2.731794,79.65741 3.293727,79.041508 4.081669,78.177891 3.69426,76.996557 5.104013,76.860028 4.898743,77.325261 5.867532,79.046792 7.45916,78.810656 9.457135,78.514233 9.531163,76.703627 8.932564,75.604765 8.543301,76.63747 8.041666,76.715849 7.39439,76.372781 6.58049,75.941398 6.860336,74.351099 7.755756,73.48651"
         style="fill:#000000;stroke:#000000;stroke-width:0.1112323px;stroke-linecap:butt;stroke-linejoin:miter;stroke-opacity:1"
         id="path1737-3-5-5" />
    </g>
    <path
       id="path1154-9"
       d="m 33.712865,7.4258691 c 0.536813,0 1.07363,0.00933 1.620386,0.01865 8.111875,0.1398689 16.174044,1.3707167 23.450873,3.5806479 3.439594,8.615932 4.277395,18.944521 4.277395,29.036812 0,10.092292 -0.917329,20.877786 -4.506039,29.596289 -7.157536,2.014114 -14.851888,3.03982 -22.884234,3.03982 -0.487111,0 -0.974221,-0.0094 -1.461331,-0.01865 H 34.040918 C 25.909161,72.53957 17.846991,71.308722 10.580105,69.089467 7.1504515,60.492184 6.3123238,50.163289 6.3123238,40.061979 c 0,-10.101311 0.9176558,-20.868461 4.4864832,-29.586965 6.690308,-1.8742449 14.046665,-2.9186005 21.472608,-3.0398203 0.47717,-0.00933 0.964281,-0.00933 1.44145,-0.00933 m 0,-0.9324602 c -0.487111,0 -0.974221,0 -1.46133,0.00933 C 24.785826,6.6239532 17.270413,7.686958 10.510517,9.5798526 L 10.043289,9.710397 9.8643508,10.139328 c -3.6085914,8.811751 -4.5231655,19.514693 -4.5231655,29.922651 0,10.407958 0.8350459,20.672644 4.294522,29.353849 l 0.1689973,0.419608 0.4572874,0.13987 c 7.326533,2.237904 15.537818,3.496724 23.749103,3.636593 h 0.188879 c 0.47717,0.0094 0.96428,0.01865 1.461331,0.01865 8.111875,0 15.905636,-1.035031 23.172525,-3.077119 l 0.467228,-0.130544 0.178938,-0.428932 c 3.618533,-8.793101 4.543048,-19.496959 4.543048,-29.931975 0,-10.435016 -0.835047,-20.672644 -4.304463,-29.363174 l -0.168997,-0.419609 -0.457288,-0.13987 C 51.74588,7.9107484 43.534594,6.6519271 35.353133,6.512058 34.776554,6.502738 34.249678,6.493409 33.712865,6.493409 Z"
       style="fill:#000000;stroke:none;stroke-width:1.78642213;stroke-miterlimit:4;stroke-dasharray:none" />
    <path
       id="path1154-9-3"
       d="m 33.712865,7.4258686 c 0.536813,0 1.07363,0.00933 1.620386,0.01865 8.111875,0.1398689 16.174044,1.3707167 23.450873,3.5806484 3.439594,8.615932 4.277395,18.944521 4.277395,29.036812 0,10.092292 -0.917329,20.877786 -4.506039,29.596288 -7.157536,2.014114 -14.851888,3.03982 -22.884234,3.03982 -0.487111,0 -0.974221,-0.0094 -1.461331,-0.01865 H 34.040918 C 25.909161,72.539569 17.846991,71.308722 10.580105,69.089466 7.1504515,60.492184 6.3123238,50.163288 6.3123238,40.061979 c 0,-10.101312 0.9176558,-20.868461 4.4864832,-29.586965 6.690308,-1.8742454 14.046665,-2.918601 21.472608,-3.0398208 0.47717,-0.00933 0.964281,-0.00933 1.44145,-0.00933 m 0,-0.9324602 c -0.487111,0 -0.974221,0 -1.46133,0.00933 C 24.785826,6.6239527 17.270413,7.6869575 10.510517,9.5798521 L 10.043289,9.7103965 9.8643508,10.139328 C 6.2557594,18.951079 5.3411853,29.65402 5.3411853,40.061979 c 0,10.407958 0.8350459,20.672643 4.294522,29.353849 l 0.1689973,0.419608 0.4572874,0.13987 c 7.326533,2.237904 15.537818,3.496724 23.749103,3.636593 h 0.188879 c 0.47717,0.0094 0.96428,0.01865 1.461331,0.01865 8.111875,0 15.905636,-1.035032 23.172525,-3.077119 l 0.467228,-0.130544 0.178938,-0.428932 c 3.618533,-8.793101 4.543048,-19.49696 4.543048,-29.931975 0,-10.435016 -0.835047,-20.672644 -4.304463,-29.363175 l -0.168997,-0.419609 -0.457288,-0.13987 C 51.74588,7.9107479 43.534594,6.6519266 35.353133,6.5120575 34.776554,6.5027375 34.249678,6.4934085 33.712865,6.4934085 Z"
       style="fill:#000000;stroke:none;stroke-width:1.78642213;stroke-miterlimit:4;stroke-dasharray:none" />
  </g>
</svg>
