<svg id="Capa_2" xmlns="http://www.w3.org/2000/svg" xmlns:xlink="http://www.w3.org/1999/xlink" viewBox="0 0 69.02 80">
<defs >
<style >
.cls-1{fill:#c89aed;}.cls-2{fill:#fff;}.cls-3{fill:#f8ffbf;}.cls-4{fill:#7b7be8;}.cls-5{fill:#a88347;}.cls-6{fill:#782ab5;}.cls-7,.cls-8,.cls-9,.cls-10,.cls-11,.cls-12,.cls-13{fill:none;}.cls-7,.cls-8,.cls-10,.cls-13{stroke:#000;stroke-miterlimit:10;}.cls-8,.cls-9,.cls-10{stroke-linecap:round;}.cls-14{fill:#1c46ff;}.cls-9{stroke:#deb778;stroke-dasharray:0 0 0 4.06;stroke-linejoin:round;}.cls-10,.cls-13{stroke-width:.5px;}.cls-15{fill:#deb778;}.cls-16{fill:url(#USGS_19_Inundación_de_tierra_2);}.cls-12{stroke:#1d1d1b;stroke-dasharray:0 0 2 2;stroke-width:.3px;}.cls-17{fill:#fcf0c5;}.cls-18{fill:#b83521;}
</style>
<pattern id="USGS_19_Inundación_de_tierra_2" x="0" y="0" width="72" height="72" patternTransform="translate(-452.48 -16135) rotate(-90)" patternUnits="userSpaceOnUse" viewBox="0 0 72 72">
<g >
<rect class="cls-11" width="72" height="72">
</rect>
<g >
<line class="cls-12" x1="71" y1="71" x2="144.44" y2="71">
</line>
<line class="cls-12" x1="71" y1="67" x2="144.44" y2="67">
</line>
<line class="cls-12" x1="71" y1="63" x2="144.44" y2="63">
</line>
<line class="cls-12" x1="71" y1="59" x2="144.44" y2="59">
</line>
<line class="cls-12" x1="71" y1="55" x2="144.44" y2="55">
</line>
<line class="cls-12" x1="71" y1="51" x2="144.44" y2="51">
</line>
<line class="cls-12" x1="71" y1="47" x2="144.44" y2="47">
</line>
<line class="cls-12" x1="71" y1="43" x2="144.44" y2="43">
</line>
<line class="cls-12" x1="71" y1="39" x2="144.44" y2="39">
</line>
<line class="cls-12" x1="71" y1="35" x2="144.44" y2="35">
</line>
<line class="cls-12" x1="71" y1="31" x2="144.44" y2="31">
</line>
<line class="cls-12" x1="71" y1="27" x2="144.44" y2="27">
</line>
<line class="cls-12" x1="71" y1="23" x2="144.44" y2="23">
</line>
<line class="cls-12" x1="71" y1="19" x2="144.44" y2="19">
</line>
<line class="cls-12" x1="71" y1="15" x2="144.44" y2="15">
</line>
<line class="cls-12" x1="71" y1="11" x2="144.44" y2="11">
</line>
<line class="cls-12" x1="71" y1="7" x2="144.44" y2="7">
</line>
<line class="cls-12" x1="71" y1="3" x2="144.44" y2="3">
</line>
</g>
<g >
<line class="cls-12" x1="-1" y1="71" x2="72.44" y2="71">
</line>
<line class="cls-12" x1="-1" y1="67" x2="72.44" y2="67">
</line>
<line class="cls-12" x1="-1" y1="63" x2="72.44" y2="63">
</line>
<line class="cls-12" x1="-1" y1="59" x2="72.44" y2="59">
</line>
<line class="cls-12" x1="-1" y1="55" x2="72.44" y2="55">
</line>
<line class="cls-12" x1="-1" y1="51" x2="72.44" y2="51">
</line>
<line class="cls-12" x1="-1" y1="47" x2="72.44" y2="47">
</line>
<line class="cls-12" x1="-1" y1="43" x2="72.44" y2="43">
</line>
<line class="cls-12" x1="-1" y1="39" x2="72.44" y2="39">
</line>
<line class="cls-12" x1="-1" y1="35" x2="72.44" y2="35">
</line>
<line class="cls-12" x1="-1" y1="31" x2="72.44" y2="31">
</line>
<line class="cls-12" x1="-1" y1="27" x2="72.44" y2="27">
</line>
<line class="cls-12" x1="-1" y1="23" x2="72.44" y2="23">
</line>
<line class="cls-12" x1="-1" y1="19" x2="72.44" y2="19">
</line>
<line class="cls-12" x1="-1" y1="15" x2="72.44" y2="15">
</line>
<line class="cls-12" x1="-1" y1="11" x2="72.44" y2="11">
</line>
<line class="cls-12" x1="-1" y1="7" x2="72.44" y2="7">
</line>
<line class="cls-12" x1="-1" y1="3" x2="72.44" y2="3">
</line>
<line class="cls-12" x1="1.04" y1="69" x2="74.48" y2="69">
</line>
<line class="cls-12" x1="1.04" y1="65" x2="74.48" y2="65">
</line>
<line class="cls-12" x1="1.04" y1="61" x2="74.48" y2="61">
</line>
<line class="cls-12" x1="1.04" y1="57" x2="74.48" y2="57">
</line>
<line class="cls-12" x1="1.04" y1="53" x2="74.48" y2="53">
</line>
<line class="cls-12" x1="1.04" y1="49" x2="74.48" y2="49">
</line>
<line class="cls-12" x1="1.04" y1="45" x2="74.48" y2="45">
</line>
<line class="cls-12" x1="1.04" y1="41" x2="74.48" y2="41">
</line>
<line class="cls-12" x1="1.04" y1="37" x2="74.48" y2="37">
</line>
<line class="cls-12" x1="1.04" y1="33" x2="74.48" y2="33">
</line>
<line class="cls-12" x1="1.04" y1="29" x2="74.48" y2="29">
</line>
<line class="cls-12" x1="1.04" y1="25" x2="74.48" y2="25">
</line>
<line class="cls-12" x1="1.04" y1="21" x2="74.48" y2="21">
</line>
<line class="cls-12" x1="1.04" y1="17" x2="74.48" y2="17">
</line>
<line class="cls-12" x1="1.04" y1="13" x2="74.48" y2="13">
</line>
<line class="cls-12" x1="1.04" y1="9" x2="74.48" y2="9">
</line>
<line class="cls-12" x1="1.04" y1="5" x2="74.48" y2="5">
</line>
<line class="cls-12" x1="1.04" y1="1" x2="74.48" y2="1">
</line>
</g>
<g >
<line class="cls-12" x1="-73" y1="71" x2=".44" y2="71">
</line>
<line class="cls-12" x1="-73" y1="67" x2=".44" y2="67">
</line>
<line class="cls-12" x1="-73" y1="63" x2=".44" y2="63">
</line>
<line class="cls-12" x1="-73" y1="59" x2=".44" y2="59">
</line>
<line class="cls-12" x1="-73" y1="55" x2=".44" y2="55">
</line>
<line class="cls-12" x1="-73" y1="51" x2=".44" y2="51">
</line>
<line class="cls-12" x1="-73" y1="47" x2=".44" y2="47">
</line>
<line class="cls-12" x1="-73" y1="43" x2=".44" y2="43">
</line>
<line class="cls-12" x1="-73" y1="39" x2=".44" y2="39">
</line>
<line class="cls-12" x1="-73" y1="35" x2=".44" y2="35">
</line>
<line class="cls-12" x1="-73" y1="31" x2=".44" y2="31">
</line>
<line class="cls-12" x1="-73" y1="27" x2=".44" y2="27">
</line>
<line class="cls-12" x1="-73" y1="23" x2=".44" y2="23">
</line>
<line class="cls-12" x1="-73" y1="19" x2=".44" y2="19">
</line>
<line class="cls-12" x1="-73" y1="15" x2=".44" y2="15">
</line>
<line class="cls-12" x1="-73" y1="11" x2=".44" y2="11">
</line>
<line class="cls-12" x1="-73" y1="7" x2=".44" y2="7">
</line>
<line class="cls-12" x1="-73" y1="3" x2=".44" y2="3">
</line>
<line class="cls-12" x1="-70.96" y1="69" x2="2.48" y2="69">
</line>
<line class="cls-12" x1="-70.96" y1="65" x2="2.48" y2="65">
</line>
<line class="cls-12" x1="-70.96" y1="61" x2="2.48" y2="61">
</line>
<line class="cls-12" x1="-70.96" y1="57" x2="2.48" y2="57">
</line>
<line class="cls-12" x1="-70.96" y1="53" x2="2.48" y2="53">
</line>
<line class="cls-12" x1="-70.96" y1="49" x2="2.48" y2="49">
</line>
<line class="cls-12" x1="-70.96" y1="45" x2="2.48" y2="45">
</line>
<line class="cls-12" x1="-70.96" y1="41" x2="2.48" y2="41">
</line>
<line class="cls-12" x1="-70.96" y1="37" x2="2.48" y2="37">
</line>
<line class="cls-12" x1="-70.96" y1="33" x2="2.48" y2="33">
</line>
<line class="cls-12" x1="-70.96" y1="29" x2="2.48" y2="29">
</line>
<line class="cls-12" x1="-70.96" y1="25" x2="2.48" y2="25">
</line>
<line class="cls-12" x1="-70.96" y1="21" x2="2.48" y2="21">
</line>
<line class="cls-12" x1="-70.96" y1="17" x2="2.48" y2="17">
</line>
<line class="cls-12" x1="-70.96" y1="13" x2="2.48" y2="13">
</line>
<line class="cls-12" x1="-70.96" y1="9" x2="2.48" y2="9">
</line>
<line class="cls-12" x1="-70.96" y1="5" x2="2.48" y2="5">
</line>
<line class="cls-12" x1="-70.96" y1="1" x2="2.48" y2="1">
</line>
</g>
</g>
</pattern>
</defs>

  <path
     id="path7641-4"
     style="fill:#782ab5;fill-opacity:1;stroke:#4d4d4d;stroke-width:1.62226;stop-color:#000000"
     d="M 34.900259,1.6936052 C 14.323312,9.5265586 1.6299002,23.954051 1.5689773,39.580572 V 79.197446 H 67.963672 V 39.580572 C 67.958188,23.990066 55.374427,9.5708664 34.900259,1.6936052 Z"/>
  <path
     id="path7641-7"
     style="fill:#808080;stroke:#4d4d4d;stroke-width:1.48325;stop-color:#000000"
     d="M 34.629293,5.0425238 C 15.815619,12.204258 4.1542243,25.395327 4.1542243,39.682894 V 76.559207 H 64.859448 V 39.682894 c 0,-14.254531 -11.510452,-27.438125 -30.230155,-34.6403702 z m -0.01233,3.4358455 C 51.537073,14.988239 61.941622,26.904418 61.941622,39.788613 v 33.82806 H 7.07205 v -33.82806 c 0,-12.914055 10.539857,-24.836991 27.544909,-31.3102437 z"/>
  <path
     id="path7641-7-8"
     style="fill:#808080;stroke:#4d4d4d;stroke-width:1.35027;stop-color:#000000"
     d="M 34.618314,8.2461803 C 17.491429,14.76581 6.8755673,26.7742 6.8755673,39.780777 v 33.57007 H 62.138105 v -33.57007 c 0,-12.976504 -10.478452,-24.978088 -27.519791,-31.5345967 z m -0.01123,3.1277957 c 15.403093,5.926211 24.874795,16.774013 24.874795,28.503041 V 70.672134 H 9.5317874 V 39.877017 c 0,-11.75621 9.5948786,-22.610165 25.0752986,-28.503041 z"/>
  <path
     id="path7641-7-8-0"
     style="fill:#808080;stroke:#4d4d4d;stroke-width:1.21411;stop-color:#000000"
     d="M 34.607073,11.526302 C 19.207238,17.388502 9.6618637,28.185984 9.6618637,39.880997 V 70.06591 H 59.351809 V 39.880997 c 0,-11.667973 -9.421821,-22.459335 -24.744736,-28.354695 z m -0.0101,2.812393 c 13.849868,5.328621 22.366458,15.082547 22.366458,25.628837 V 67.657315 H 12.050234 V 39.967532 c 0,-10.570731 8.627346,-20.33019 22.546743,-25.628837 z"/>


<g id="Characters">
<g >
<path d="M29.69,15.94l-6.39-1.3s-2.72,9.24-12.08,14.45c-4.03,5.57-7.7,13.03-7.7,13.03l6.28,29.25s13.26,6.16,28.89,4.74,22.26-3.79,22.26-3.79l3.55-23.45s-4.74-2.37-6.28-9.12c4.26-5.68,.24-18.36-.59-19.89-6.75-.71-15.28-10.89-15.28-10.89,0,0-7.46,.36-12.67,6.99Z">
</path>
<path class="cls-1" d="M37.73,16.23s-10.52-3.26-16.32,6.77c-3.87,9.31-2.66,13.42-2.66,13.42,0,0-.85,7.62,0,9.79,3.75,5.68,7.13,9.79,7.13,9.79,0,0,.67,4.52,4.06,5.36s6.34,.68,8.16,.32,3.75-1.69,4.23-5.68c4.11-5.2,7.25-9.91,7.25-9.91,0,0,.97-6.89,.12-9.67,.36-3.99,.12-6.05,.12-6.05,0,0-11.12-3.51-12.09-14.15Z">
</path>
<path class="cls-2" d="M34.61,55.9V16l3.11,.23s.66,9.65,12.09,14.15c.43,6-.11,6.76-.11,6.76,0,0,1.08,4.64,0,8.52s-7.55,11.75-7.55,11.75c0,0-6.36,.97-7.55-1.51Z">
</path>
<path class="cls-4" d="M36.9,31.55s-.06,2.71,2.65,5.1c2.77,2.52,4.98,3.4,4.98,3.4,0,0,2.58-.76,3.4-1.76,.57-3.21-.63-6.81-.63-6.81,0,0-6.24-2.02-10.4,.06Z">
</path>
<path class="cls-4" d="M31.71,31.55s.06,2.71-2.65,5.1c-2.77,2.52-4.98,3.4-4.98,3.4,0,0-2.58-.76-3.4-1.76-.57-3.21,.63-6.81,.63-6.81,0,0,6.24-2.02,10.4,.06Z">
</path>
<path class="cls-1" d="M20.18,48.45s.78,11.02,3.11,16.53c5.58,3.82,8.13,4.1,8.13,4.1l2.97,4.66,2.97-4.66s9.33-2.76,10.81-8.27c.85-8.76,.14-12.79,.14-12.79,0,0-4.1,6.22-6.29,8.55-1.13,5.58-5.16,5.23-8.83,5.3s-6.5-1.77-7.14-5.58c-3.25-4.1-5.86-7.84-5.86-7.84Z">
</path>
<path class="cls-18" d="M48.95,55.89s9.63,6.99,11.85,10.74c-1.32,5.17-2.74,6.18-2.74,6.18l-23.2,2.53,3.34-5.98s7.19-1.82,10.23-8.21c.41-3.75,.51-5.27,.51-5.27Z">
</path>
<path d="M24.89,48.64s5.23-3.72,7.05-3.8l.82,.6,3.14,.04,.79-.63s5.62,1.82,6.89,3.88c-1.27,7.3-1.82,9.11-1.82,9.11,0,0,.08,3.09-6.18,4.12s-8.08-1.98-8.63-3.17-1.26-8.29-2.06-10.14Z">
</path>
<path class="cls-1" d="M41.53,50.86c-.24,2.53-3.65,5.78-3.65,5.78l-2.06-.56,.8-3.56-2.16-.04-2.44-.04,.79,3.64-2.14,.4s-3.08-2.85-3.72-5.78c1.74-.08,4.68-1.67,4.68-1.67l2.69,1.67,.14-.09,2.16-1.34s2.14,.71,4.91,1.59Z">
</path>
<path class="cls-14" d="M26.88,56.26s1.74,2.38,4.89,1.16,8.04,1.67,9.59-.84c.19,1.8-.58,2.7-.58,2.7,0,0-2.9-1.93-7.72-.39s-5.79,.97-6.18-2.64Z">
</path>
<path class="cls-14" d="M48.5,15.34s-1.79,9.78-8.71,6.27c3.28,7.32,9.63,7.72,9.63,7.72,0,0,9.81-6.42,4.6-10.83-3.71-1.1-5.51-3.16-5.51-3.16Z">
</path>
<path class="cls-14" d="M14.14,27.69s2.52,2.29,5.38,.69c-2.4,5.15-1.03,8.46-1.03,8.46,0,0-6.63-3.55-11.9,0,3.2-5.26,5.26-7.44,5.26-7.44l2.29-1.72Z">
</path>
<path class="cls-14" d="M34.8,74.2l-5.1,1.34s-2.28-1.21-5.64-2.15c-.62-.36-1.2-.73-1.76-1.12-2.28-1.56-4.1-3.31-5.52-5.18-2.8-3.66-4.11-7.79-4.52-11.81,4.43,11.54,19.16,13.8,19.16,13.8l3.38,5.12Z">
</path>
<path class="cls-3" d="M21.42,35.78s5.79-2.3,7.94,.2c-3.7,2.24-7.51,2.38-7.94-.2Z">
</path>
<path class="cls-3" d="M47.02,35.78s-5.79-2.3-7.94,.2c3.7,2.24,7.51,2.38,7.94-.2Z">
</path>
<path class="cls-14" d="M28.91,46.02s0,2.69,3.66,1.43,8.06,.86,7.78-.74c2.29,1.26,2.57,2.34,2.57,2.34l-1.72,1.14-4.18-1.54-2.86,1.6-2.29-1.26-4.35,1.43s-1.6-2.12-.51-3.37c1.32-.74,1.89-1.03,1.89-1.03Z">
</path>
<path d="M48.02,49.57l-13.56,24.93-3.83-.87s-4.37-5.03-6.12-6.23c-2.19-4.59-4.48-14.87-3.83-17.93,3.72,4.81,5.2,6.56,5.2,6.56,0,0,.71,5.25,4.42,5.8s9.29,0,10.39-1.53,1.63-4.27,1.63-4.27l5.69-6.45Z">
</path>
<path class="cls-1" d="M34.18,17.51c.89,0,1.64,.06,2.16,.12,.67,5.88,5.21,10.77,10.59,13.42,.07,.36,.15,.73,.23,1.09,.22,.96,.44,1.95,.38,2.72,0,.07,0,.14,0,.21l.04,1.47c0,.13,.02,.26,.05,.38,.16,.75,.92,4.59-.08,8-2.22,4.12-6.22,9.57-6.72,10.17-.21,.25-.35,.54-.42,.86-.13,.62-.26,1.08-.44,1.52-.34,.87-1.02,1.62-1.83,2.04-.74,.23-1.56,.34-2.51,.34-1.32,0-2.67-.22-3.81-.43-.05-.01-.11-.02-.16-.02-2.3-.23-3.41-1.31-3.95-3.83-.07-.31-.21-.6-.41-.85-.03-.04-.1-.12-.2-.24-3.08-3.63-5.48-6.93-6.8-9.34-.9-3.08,.02-6.42,.32-7.53,.06-.2,.1-.36,.12-.45,.06-.25,.06-.52,.02-.77l-.29-1.65c-.12-1.83,.32-3.52,.86-5.38,.76-2.63,1.77-5.49,3.92-8.51,2.21-2.74,6.07-3.32,8.92-3.32m3.6-2.4c-.18,0-.32,.52-.4,.64-.58-.1-1.75-.24-3.21-.24-3.21,0-7.8,.7-10.51,4.11-2.43,3.39-3.5,6.57-4.25,9.16-.6,2.06-1.09,3.99-.93,6.17l.3,1.76c-.15,.68-1.65,5.04-.34,9.18,2.31,4.32,6.99,9.69,7.3,10.07,.63,2.95,2.15,5.04,5.7,5.4,1.37,.26,2.79,.47,4.18,.47,1.11,0,2.21-.13,3.26-.48,1.34-.63,2.42-1.81,2.95-3.18,.24-.6,.4-1.21,.53-1.82,.48-.58,4.73-6.35,7.03-10.67,1.27-4.06,.33-8.52,.18-9.2l-.04-1.47c.12-1.53-.47-3.26-.69-4.6,.86,.3,2.09,.63,2.96,.82,0,0,.01,0,.02,0,.1,0,.51-.05,.55-.05,.06-.27,.05-.33-.22-.39-7.35-1.62-14.22-7.86-13.89-15.16,.01-.28-.2-.51-.48-.52,0,0,0,0-.01,0h0Zm14.6,16.07c-.02,.08,0,.11,.02,.11,.05,0,.13-.11-.02-.11h0Z">
</path>
<path class="cls-2" d="M41.53,50.86c-.24,2.53-3.65,5.78-3.65,5.78l-2.06-.56,.8-3.56-2.16-.04v-1.87l2.16-1.34s2.14,.71,4.91,1.59Z">
</path>
<path class="cls-2" d="M46.64,53.86l-6.53,12.14s4.76-2.03,6.8-6.07c.37-4.32-.28-6.07-.28-6.07Z">
</path>
<path class="cls-2" d="M20.89,40.72l2.94,1.27s5.25-2.38,6.28-4.13c-2.46,6.12-6.28,7.15-6.28,7.15,0,0-2.54-2.86-2.94-4.29Z">
</path>
<path class="cls-2" d="M51.09,16.82s-1.66,8.62-8.1,9.45c2.7,2.28,3.32,2.39,3.32,2.39,0,0,6.54-6.44,6.54-10.59-.93-.93-1.76-1.25-1.76-1.25Z">
</path>
<path class="cls-2" d="M29.54,72.51s-3.98-.7-7.24-.24c-2.28-1.56-4.1-3.31-5.52-5.18,1.64,1.05,6.15,3.58,8.05,.99,3.86,2.35,4.71,4.43,4.71,4.43Z">
</path>
<path class="cls-14" d="M54.25,34.51c.38,5.3,.4,10.77-1.1,15.91,0,0-.15-.33-.15-.33,3.68,1.72,7.3,3.53,10.66,5.85,0,0-.61,.79-.61,.79-3.26-2.42-6.87-4.38-10.49-6.22,1-5.28,1.38-10.63,1.69-16h0Z">
</path>
<path class="cls-8" d="M4.8,46.21s-1.53-6.99,6.67-17.43c7.63-4.74,8.68-8.11,11.81-13.98,1.77,0,6.67,1.2,6.67,1.2,0,0,4.04-7.01,12.64-7.11,3.44,4.79,8.8,8.91,15,11.04,3.39,6.56,2.29,18.02,.73,19.9,1.09,5.05,3.7,7.81,6.15,8.91">
</path>
<path class="cls-8" d="M38.07,15.93c-.35,7.76,7.58,13.88,14.81,15.47">
</path>
<path class="cls-8" d="M33.07,15.71s2.38-2.53,5.33-2.06c-.19,.77-.3,1.53-.34,2.28">
</path>
<path class="cls-8" d="M37.94,16.18s-9.9-1.98-14.1,3.3c-2.36,3.29-3.75,6.99-4.51,9.64-.58,2.01-.79,4.12-.63,6.21l.1,1.39s-1.14,5.16,.18,9.37c2.34,4.38,7.32,10.33,7.32,10.33">
</path>
<path class="cls-8" d="M49.55,30.45c.35,1.65,.42,3.19,.29,4.88l-.1,1.39s1.14,5.16-.18,9.37c-2.34,4.38-7.32,10.33-7.32,10.33">
</path>
<path class="cls-8" d="M20.12,48.11s1.11,13.28,4.29,19.48c5.25,3.42,7.39,7.79,7.39,7.79">
</path>
<path d="M23.57,25.92c2.33-1.97,5.62-1.57,8.47-1.89,2.92-.14,5.84-.27,8.79-.02,.21,.02,.36,.2,.34,.41-.02,.2-.19,.36-.4,.34-2.49-.09-6.17,.01-8.71,.04l-4.37,.1c-1.47-.03-2.87,.25-4.13,1.03h0Z">
</path>
<path d="M29.08,22.75c.51-.25,13.39-1.41,10.8,.16-3.57-.07-7.18,.03-10.8-.16h0Z">
</path>
<path d="M21.3,31.43c.93-1,2.29-2.12,3.97-2.63,4.15,.93,7.66,1.21,7.66,1.21,0,0-.12,1.57-1.17,2.66-3.35-.86-6.88-2.55-10.1-.8-.29,.16-.59-.2-.36-.44Z">
</path>
<path d="M47.59,31.43c-.93-1-2.29-2.12-3.97-2.63-4.15,.93-7.66,1.21-7.66,1.21,0,0,.12,1.57,1.17,2.66,3.35-.86,6.88-2.55,10.1-.8,.29,.16,.59-.2,.36-.44Z">
</path>
<path d="M21.21,35.86c2.65-1.56,6.19-1.75,8.86-.1,0,0-.28,.36-.28,.36-1.51,1.89-3.5,3.42-5.85,4.09,0,0-.09,.02-.09,.02-.59-.19-1.13-.42-1.66-.71-.5-.27-.98-.6-1.38-.99,.94,.57,2.05,.83,3.12,.94,0,0-.15,0-.15,0,1.05-.28,2.09-.84,2.99-1.47,.92-.66,1.74-1.45,2.44-2.34l.11,.56c-2.52-1.29-5.42-1.11-8.1-.36h0Z">
</path>
<path class="cls-10" d="M21.86,36.74s1.81,1.14,3.53,.91,3.95-1.73,3.95-1.73">
</path>
<path d="M47.31,35.86c-2.68-.76-5.58-.93-8.1,.36,0,0,.11-.56,.11-.56,.7,.89,1.52,1.68,2.44,2.34,.89,.64,1.94,1.19,2.99,1.47,0,0-.15,0-.15,0,1.07-.11,2.18-.37,3.12-.94-.4,.39-.88,.72-1.38,.99-.53,.28-1.07,.52-1.66,.71l-.09-.02c-2.35-.66-4.35-2.2-5.85-4.08,0,0-.28-.36-.28-.36,2.67-1.65,6.21-1.46,8.86,.1h0Z">
</path>
<path class="cls-10" d="M46.67,36.74s-1.81,1.14-3.53,.91-3.95-1.73-3.95-1.73">
</path>
<path d="M36.52,33.55l-.4,1.59s.05-.21,.05-.21c.2,2.67,.92,5.4,2.2,7.77,0,0,.1,.19,.1,.19-.63,1.09-1.46,2.01-2.3,2.88,0,0-.13,.13-.13,.13-1.16,.03-2.33,.04-3.49,.03-.92-.92-1.83-1.89-2.53-3.05,0,0,.13-.23,.13-.23,1.33-2.34,2.09-5.05,2.34-7.72,0-.02,.04,.18,.04,.17,0,0-.46-1.56-.46-1.56l1.06,1.24,.05,.05c-.08,1.47-.33,2.89-.71,4.3-.36,1.36-.88,2.69-1.55,3.95l-.02-.46c.64,.85,1.44,1.65,2.22,2.45l-.35-.15c1.02,0,2.05,0,3.07,.03l-.33,.14c.8-.78,1.62-1.56,2.27-2.42v.36c-1.4-2.49-2.15-5.24-2.41-8.07,0,0,.03-.2,.03-.2l.02-.02,1.12-1.21h0Z">
</path>
<path d="M20.05,41.13c.52,1.94,1.3,3.67,2.93,4.92-2.39,.13-3.23-3.01-2.93-4.92h0Z">
</path>
<path d="M48.65,41.13c.3,1.91-.54,5.06-2.93,4.92,1.63-1.26,2.41-2.98,2.93-4.92h0Z">
</path>
<path d="M44.43,46.79c-.41,1.26-.74,2.53-1.01,3.81-.58,2.63-.25,5.3-1.28,7.9-.53,1.37-1.61,2.55-2.95,3.18-2.37,.79-4.95,1.05-7.41,.59-4.42-.45-5.98-3.79-6.17-7.8-.16-2.65-.66-5.16-1.52-7.67,1.35,2.28,2.16,4.94,2.46,7.56,.23,2.39,1.06,5.29,3.21,6.16,2.8,.94,6.4,.83,8.92-.02,3.11-1.4,2.98-5.2,3.57-8.12,.43-1.96,1.15-3.87,2.18-5.59h0Z">
</path>
<path d="M24.78,48.67c2.02-1.98,4.43-3.55,7.18-4.34,0,0,.23,.97,.23,.97-2.62,.53-5.11,1.89-7.16,3.61,0,0-.24-.24-.24-.24h0Z">
</path>
<path d="M43.4,48.92c-2.06-1.72-4.54-3.09-7.16-3.61,0,0,.23-.97,.23-.97,2.75,.79,5.16,2.37,7.18,4.34,0,0-.24,.24-.24,.24h0Z">
</path>
<path class="cls-13" d="M36.55,52.4l-.74,3.47s.62,.47,2.03,.59c.52-.43,2.93-2.27,3.63-5.68-2.06-.5-4.64-1.58-4.64-1.58l-2.53,1.35-2.54-1.35s-2.58,1.08-4.63,1.58c.69,3.41,3.1,5.25,3.63,5.68,1.41-.12,2.03-.59,2.03-.59l-.74-3.47">
</path>
<path d="M38.46,51.22c.48,.36-.17,.84-.51,1-2.33,.96-5.14,.96-7.46-.01-.27-.16-.67-.38-.65-.76,.03-.13,.12-.21,.2-.26-.15,.18-.1,.37,.05,.47,.62,.61,9.06,.94,8.36-.44h0Z">
</path>
<path d="M48.94,48.14c.25,6,.57,12.45-1.57,18.15,.23-4.58,.64-9.01,.59-13.58,0,0-.01-4.52-.01-4.52l1-.05h0Z">
</path>
<path class="cls-7" d="M48.69,55.3c.19,0,7.25,4.65,12.22,10.55">
</path>
<path class="cls-7" d="M48.13,60.38s-2.14,6.26-11.01,8.21c-1.81,2.83-2.88,4.69-2.88,4.69l-2.74-4.55s-5.95-1.58-8.5-4.32">
</path>
</g>
</g>
  <g
     id="g20645">
    <path
       style="fill:#808080;stroke:#4d4d4d;stroke-width:0.937908;stop-color:#000000;fill-opacity:1"
       d="m 9.541565,65.883425 a 5.4759801,5.4759801 0 0 1 5.47598,5.475981 5.4759801,5.4759801 0 0 1 -5.47598,5.47598 5.4759801,5.4759801 0 0 1 -5.4759806,-5.47598 5.4759801,5.4759801 0 0 1 5.4759806,-5.475981 z"/>
    <path
       style="fill:#808080;stroke:#4d4d4d;stroke-width:0.937908;stop-color:#000000;fill-opacity:1"
       d="m 59.472108,65.883425 a 5.4759801,5.4759801 0 0 1 5.47598,5.475981 5.4759801,5.4759801 0 0 1 -5.47598,5.47598 5.4759801,5.4759801 0 0 1 -5.475981,-5.47598 5.4759801,5.4759801 0 0 1 5.475981,-5.475981 z"/>
    <path
       id="path7641"
       style="fill:#808080;stroke:#4d4d4d;stroke-width:1.64416;stop-color:#000000"
       d="M 34.642578,1.1660156 C 13.787845,9.1047124 0.86132813,23.726855 0.86132812,39.564453 V 79.340489 H 68.152344 V 39.564453 c 0,-15.800978 -12.759199,-30.4148342 -33.509766,-38.3984374 z m -0.01367,3.8085938 C 53.384648,12.190722 64.917969,25.399665 64.917969,39.681641 v 26.507812 c -1.368656,-1.44106 -3.300993,-2.341797 -5.445313,-2.341797 -4.14856,0 -7.511718,3.363159 -7.511718,7.511719 0,2.347008 1.075662,4.442843 2.761718,5.820313 H 14.269531 c 1.756069,-1.422629 2.778281,-3.560307 2.783203,-5.820313 4.8e-5,-4.148627 -3.363091,-7.511766 -7.5117184,-7.511719 -2.0622939,0.0062 -4.0313164,0.860092 -5.4453125,2.361328 V 39.681641 c 0,-14.315076 11.6833059,-27.531508 30.5332029,-34.7070316 z"/>
    <circle
       style="fill:#4d4d4d;fill-opacity:1;stroke:#4d4d4d;stop-color:#000000"
       id="path16431"
       cx="9.6010828"
       cy="71.229652"
       r="5.06003" />
    <circle
       style="fill:#4d4d4d;fill-opacity:1;stroke:#4d4d4d;stop-color:#000000"
       id="path16431-3"
       cx="59.42292"
       cy="71.229652"
       r="5.06003" />
  </g>
</svg>
