<svg id="Capa_2" xmlns="http://www.w3.org/2000/svg" xmlns:xlink="http://www.w3.org/1999/xlink" viewBox="0 0 69.02 80.03">
<defs >
<style >
.cls-1{fill:#000000;}.cls-2{fill:#000;}.cls-3{fill:#000000;}.cls-4{fill:#000000;}.cls-5{fill:#000000;}.cls-6{fill:#000000;}.cls-7,.cls-8{stroke:#000;stroke-miterlimit:10;}.cls-7,.cls-8,.cls-9,.cls-10,.cls-11{fill:none;}.cls-12{fill:#000000;}.cls-8{stroke-width:.75px;}.cls-9{stroke:#000000;stroke-dasharray:0 0 0 4.06;stroke-linecap:round;stroke-linejoin:round;}.cls-13{fill:#000000;}.cls-14{fill:url(#USGS_19_Inundación_de_tierra_2);}.cls-11{stroke:#000000;stroke-dasharray:0 0 2 2;stroke-width:.3px;}.cls-15{fill:#000000;}.cls-16{fill:#000000;}.cls-17{fill:#000000;}
</style>
<pattern id="USGS_19_Inundación_de_tierra_2" x="0" y="0" width="72" height="72" patternTransform="translate(267.52 -16063) rotate(-90)" patternUnits="userSpaceOnUse" viewBox="0 0 72 72">
<g >
<rect class="cls-10" width="72" height="72">
</rect>
<g >
<line class="cls-11" x1="71" y1="71" x2="144.44" y2="71">
</line>
<line class="cls-11" x1="71" y1="67" x2="144.44" y2="67">
</line>
<line class="cls-11" x1="71" y1="63" x2="144.44" y2="63">
</line>
<line class="cls-11" x1="71" y1="59" x2="144.44" y2="59">
</line>
<line class="cls-11" x1="71" y1="55" x2="144.44" y2="55">
</line>
<line class="cls-11" x1="71" y1="51" x2="144.44" y2="51">
</line>
<line class="cls-11" x1="71" y1="47" x2="144.44" y2="47">
</line>
<line class="cls-11" x1="71" y1="43" x2="144.44" y2="43">
</line>
<line class="cls-11" x1="71" y1="39" x2="144.44" y2="39">
</line>
<line class="cls-11" x1="71" y1="35" x2="144.44" y2="35">
</line>
<line class="cls-11" x1="71" y1="31" x2="144.44" y2="31">
</line>
<line class="cls-11" x1="71" y1="27" x2="144.44" y2="27">
</line>
<line class="cls-11" x1="71" y1="23" x2="144.44" y2="23">
</line>
<line class="cls-11" x1="71" y1="19" x2="144.44" y2="19">
</line>
<line class="cls-11" x1="71" y1="15" x2="144.44" y2="15">
</line>
<line class="cls-11" x1="71" y1="11" x2="144.44" y2="11">
</line>
<line class="cls-11" x1="71" y1="7" x2="144.44" y2="7">
</line>
<line class="cls-11" x1="71" y1="3" x2="144.44" y2="3">
</line>
</g>


<g >
<line class="cls-11" x1="-1" y1="71" x2="72.44" y2="71">
</line>
<line class="cls-11" x1="-1" y1="67" x2="72.44" y2="67">
</line>
<line class="cls-11" x1="-1" y1="63" x2="72.44" y2="63">
</line>
<line class="cls-11" x1="-1" y1="59" x2="72.44" y2="59">
</line>
<line class="cls-11" x1="-1" y1="55" x2="72.44" y2="55">
</line>
<line class="cls-11" x1="-1" y1="51" x2="72.44" y2="51">
</line>
<line class="cls-11" x1="-1" y1="47" x2="72.44" y2="47">
</line>
<line class="cls-11" x1="-1" y1="43" x2="72.44" y2="43">
</line>
<line class="cls-11" x1="-1" y1="39" x2="72.44" y2="39">
</line>
<line class="cls-11" x1="-1" y1="35" x2="72.44" y2="35">
</line>
<line class="cls-11" x1="-1" y1="31" x2="72.44" y2="31">
</line>
<line class="cls-11" x1="-1" y1="27" x2="72.44" y2="27">
</line>
<line class="cls-11" x1="-1" y1="23" x2="72.44" y2="23">
</line>
<line class="cls-11" x1="-1" y1="19" x2="72.44" y2="19">
</line>
<line class="cls-11" x1="-1" y1="15" x2="72.44" y2="15">
</line>
<line class="cls-11" x1="-1" y1="11" x2="72.44" y2="11">
</line>
<line class="cls-11" x1="-1" y1="7" x2="72.44" y2="7">
</line>
<line class="cls-11" x1="-1" y1="3" x2="72.44" y2="3">
</line>
<line class="cls-11" x1="1.04" y1="69" x2="74.48" y2="69">
</line>
<line class="cls-11" x1="1.04" y1="65" x2="74.48" y2="65">
</line>
<line class="cls-11" x1="1.04" y1="61" x2="74.48" y2="61">
</line>
<line class="cls-11" x1="1.04" y1="57" x2="74.48" y2="57">
</line>
<line class="cls-11" x1="1.04" y1="53" x2="74.48" y2="53">
</line>
<line class="cls-11" x1="1.04" y1="49" x2="74.48" y2="49">
</line>
<line class="cls-11" x1="1.04" y1="45" x2="74.48" y2="45">
</line>
<line class="cls-11" x1="1.04" y1="41" x2="74.48" y2="41">
</line>
<line class="cls-11" x1="1.04" y1="37" x2="74.48" y2="37">
</line>
<line class="cls-11" x1="1.04" y1="33" x2="74.48" y2="33">
</line>
<line class="cls-11" x1="1.04" y1="29" x2="74.48" y2="29">
</line>
<line class="cls-11" x1="1.04" y1="25" x2="74.48" y2="25">
</line>
<line class="cls-11" x1="1.04" y1="21" x2="74.48" y2="21">
</line>
<line class="cls-11" x1="1.04" y1="17" x2="74.48" y2="17">
</line>
<line class="cls-11" x1="1.04" y1="13" x2="74.48" y2="13">
</line>
<line class="cls-11" x1="1.04" y1="9" x2="74.48" y2="9">
</line>
<line class="cls-11" x1="1.04" y1="5" x2="74.48" y2="5">
</line>
<line class="cls-11" x1="1.04" y1="1" x2="74.48" y2="1">
</line>
</g>


<g >
<line class="cls-11" x1="-73" y1="71" x2=".44" y2="71">
</line>
<line class="cls-11" x1="-73" y1="67" x2=".44" y2="67">
</line>
<line class="cls-11" x1="-73" y1="63" x2=".44" y2="63">
</line>
<line class="cls-11" x1="-73" y1="59" x2=".44" y2="59">
</line>
<line class="cls-11" x1="-73" y1="55" x2=".44" y2="55">
</line>
<line class="cls-11" x1="-73" y1="51" x2=".44" y2="51">
</line>
<line class="cls-11" x1="-73" y1="47" x2=".44" y2="47">
</line>
<line class="cls-11" x1="-73" y1="43" x2=".44" y2="43">
</line>
<line class="cls-11" x1="-73" y1="39" x2=".44" y2="39">
</line>
<line class="cls-11" x1="-73" y1="35" x2=".44" y2="35">
</line>
<line class="cls-11" x1="-73" y1="31" x2=".44" y2="31">
</line>
<line class="cls-11" x1="-73" y1="27" x2=".44" y2="27">
</line>
<line class="cls-11" x1="-73" y1="23" x2=".44" y2="23">
</line>
<line class="cls-11" x1="-73" y1="19" x2=".44" y2="19">
</line>
<line class="cls-11" x1="-73" y1="15" x2=".44" y2="15">
</line>
<line class="cls-11" x1="-73" y1="11" x2=".44" y2="11">
</line>
<line class="cls-11" x1="-73" y1="7" x2=".44" y2="7">
</line>
<line class="cls-11" x1="-73" y1="3" x2=".44" y2="3">
</line>
<line class="cls-11" x1="-70.96" y1="69" x2="2.48" y2="69">
</line>
<line class="cls-11" x1="-70.96" y1="65" x2="2.48" y2="65">
</line>
<line class="cls-11" x1="-70.96" y1="61" x2="2.48" y2="61">
</line>
<line class="cls-11" x1="-70.96" y1="57" x2="2.48" y2="57">
</line>
<line class="cls-11" x1="-70.96" y1="53" x2="2.48" y2="53">
</line>
<line class="cls-11" x1="-70.96" y1="49" x2="2.48" y2="49">
</line>
<line class="cls-11" x1="-70.96" y1="45" x2="2.48" y2="45">
</line>
<line class="cls-11" x1="-70.96" y1="41" x2="2.48" y2="41">
</line>
<line class="cls-11" x1="-70.96" y1="37" x2="2.48" y2="37">
</line>
<line class="cls-11" x1="-70.96" y1="33" x2="2.48" y2="33">
</line>
<line class="cls-11" x1="-70.96" y1="29" x2="2.48" y2="29">
</line>
<line class="cls-11" x1="-70.96" y1="25" x2="2.48" y2="25">
</line>
<line class="cls-11" x1="-70.96" y1="21" x2="2.48" y2="21">
</line>
<line class="cls-11" x1="-70.96" y1="17" x2="2.48" y2="17">
</line>
<line class="cls-11" x1="-70.96" y1="13" x2="2.48" y2="13">
</line>
<line class="cls-11" x1="-70.96" y1="9" x2="2.48" y2="9">
</line>
<line class="cls-11" x1="-70.96" y1="5" x2="2.48" y2="5">
</line>
<line class="cls-11" x1="-70.96" y1="1" x2="2.48" y2="1">
</line>
</g>


</g>


</pattern>
</defs>
  <path
     id="circle1849"
     style="fill:#AA00DD;stroke:#000000;stroke-width:2"
     d="M 34.875,3.84375 C 30.2026,3.8566827 25.91896,6.4477515 23.738281,10.580078 21.63936,9.1446679 19.156089,8.3761337 16.613281,8.375 9.636905,8.3755251 3.9818685,14.031436 3.9824219,21.007812 c 0.012178,4.019812 1.9368978,7.79383 5.1835937,10.164063 -1.8357739,2.246976 -2.8420262,5.057448 -2.8496094,7.958984 0.00713,1.935325 0.4588528,3.843134 1.3203126,5.576172 -2.4145566,2.364898 -3.7807042,5.598771 -3.7929688,8.978516 0.00466,4.996359 2.9538661,9.520462 7.523438,11.541015 0.767283,6.336372 6.140784,11.10481 12.523437,11.113282 3.186693,-0.0091 6.252191,-1.222333 8.582031,-3.396485 1.867081,1.045968 3.9693,1.600422 6.109375,1.611329 2.723791,-0.01118 5.371006,-0.902492 7.546875,-2.541016 1.56279,0.673484 3.245549,1.024252 4.947266,1.03125 6.977139,5.53e-4 12.633366,-5.655674 12.632812,-12.632813 -0.0013,-2.652818 -0.837669,-5.237911 -2.390625,-7.388671 2.480721,-2.37284 3.888874,-5.653124 3.900391,-9.085938 -9.13e-4,-3.96978 -1.867955,-7.708203 -5.041016,-10.09375 2.59288,-2.385063 4.071919,-5.744584 4.080078,-9.267578 C 64.257287,17.599796 58.601376,11.944759 51.625,11.945312 50.032147,11.955601 48.455612,12.267065 46.978516,12.863281 45.38146,7.5117456 40.459758,3.8440964 34.875,3.84375 Z"/>





<g id="Characters">
<g >
<path class="cls-1" d="M64.07,64.8l-1.61,9.75-24.86,5.48-30.48-4.94-3.75-8.83,21.26-8.82-.13-4.01-.53-1.08s-.67-1.46-2.01-6.68c-3.07-.27-5.08-4.15-6.15-7.09-1.07-2.94,.67-7.08,3.87-4.01-.1-.26-.35-1.9-.29-4.24,.1-3.88,1.05-9.65,4.97-14.08,7.22-7.89,12.17-6.01,12.17-6.01,10.04,3.06,13.55,9.82,14.53,16.22,.42,2.8,.37,5.52,.17,7.84,2.41-2.81,4.68-.54,3.34,4.94-1.07,5.08-5.75,6.42-5.75,6.42l-2.81,8.42,.4,3.74,17.65,6.96Z">
</path>
<path class="cls-2" d="M35.6,29.56v29.43l4.68-.3,5.89-5.36s3.02-10.04,4.23-14.79,.75-11.85,.6-12.53-6.94-3.09-8.98-2.04-6.41,5.58-6.41,5.58Z">
</path>
<path d="M51.06,26.48l-1.4-.38-1.2,3.03s-2.26-1.09-3.03-6.49c-2.92,6.06-9.2,6.6-9.2,6.6,0,0,3.36-4.23,4.87-9.42-2.92,2.6-6.7,4.01-9.95,5.52-3.25,1.51-5.71,3.35-5.71,3.35l-.02-1.95c-1.94,2.03-5.13,3.27-6.04,3.61,.1-3.88,1.05-9.65,4.97-14.08,7.22-7.89,12.17-6.01,12.17-6.01,10.04,3.06,13.55,9.82,14.53,16.22Z">
</path>
<path class="cls-12" d="M28.85,12.58s-4.96,4.23-6.62,7.54c4.23-1.84,9.18-4.08,12.62-1.49,6.51,4.9,4.66-4.49,12.94,.11-2.76-3.4-5.79-6.07-5.79-6.07,0,0-1.17,5.78-5.18,1.86-3.29-3.21-9.89,4.76-7.96-1.95Z">
</path>
<path d="M19.68,34.59s-1.33-2.19-3.23-.89-.8,5.6,.3,7.59,3.22,4.68,5.21,4.39c-1.28-5.27-2.27-11.09-2.27-11.09Z">
</path>
<path d="M40.33,58.98l-19.08,16.29-14.29-2.7-1.9-7.69,19.57-7.43-.13-4.01,5.64,4.94s6.49,1.4,10.19,.6Z">
</path>
<path class="cls-3" d="M31.16,35.36l-5.13,.16s-2.53,1.34-3,2.37c5.21,1.03,6.87,.63,6.87,.63,0,0,1.11-1.97,1.26-3.16Z">
</path>
<path class="cls-3" d="M40.41,38.37s-1.17-1.46-1.17-2.82c4.18-.29,5.25,0,5.25,0,0,0,2.53,1.36,3.01,2.33-3.79,1.17-7.09,.49-7.09,.49Z">
</path>
<path class="cls-17" d="M46.09,56.48s-2.03,4.7-10.56,5.02c-11.2,7.47-16.11,13.55-16.11,13.55,0,0,9.92,5.76,22.2,3.63s21.13-5.12,21.13-5.12l.96-9.18-17.28-6.53-.33-1.37Z">
</path>
<path class="cls-4" d="M32.79,31.87l-1.04,4.1-5.72-.46-3.72,2.54s-1.53-4.45-1.04-5.59c4.28-1.58,4.8-1.73,4.8-1.73,0,0,4.35-.44,6.72,1.14Z">
</path>
<path class="cls-4" d="M37.35,31.87l1.56,4.26,5.2-.62,4.1,2.6s1.08-4.38,.59-5.51c-4.28-1.58-4.73-1.87-4.73-1.87,0,0-4.35-.44-6.72,1.14Z">
</path>
<path class="cls-1" d="M37.09,24.46c-1.17,1.81-2.59,3.51-4.2,5.02l-2.14,2.02,2.93-.29c4.1-.41,8.25-1.25,11.2-4.38,.68,1.74,1.72,2.97,3.17,3.75l.41,.21,.67,.35,.52-.55c.06-.07,.12-.14,.18-.21-.06,3.55-.74,6.76-1.15,8.67-.09,.42-.17,.79-.23,1.09-.48,2.45-2.83,10.14-3.48,12.25l-5.39,4.94c-1.44,.26-2.94,.39-4.47,.39-1.32,0-2.64-.1-3.94-.29l-5.51-5.04c-.49-1.59-2.97-9.71-3.47-12.27l-.08-.38c-.04-.19-.09-.4-.14-.66-.35-1.59-.99-4.47-1.15-7.73,.73-.29,1.75-.73,2.8-1.3l-.21,2.14,1.84-1.42c2.88-2.23,6.21-3.81,9.06-5.04,.98-.39,1.9-.81,2.77-1.26m2.7-2.88c-1.78,1.36-3.82,2.41-5.84,3.21-3.31,1.43-6.5,3.01-9.31,5.18,.07-.67,.19-1.32,.34-1.97-1.92,1.44-4.37,2.37-5.18,2.66,.09,3.55,.78,6.73,1.2,8.63,.08,.4,.16,.74,.21,1.02,.52,2.7,3.2,11.4,3.57,12.63l5.94,5.43c1.18,.19,2.68,.35,4.39,.35,1.51,0,3.18-.12,4.93-.46l5.8-5.31c.38-1.22,3.06-9.93,3.58-12.61,.06-.29,.13-.65,.22-1.06,.52-2.44,1.49-6.97,1.08-11.67l-.51-.49c-.14,1.03-.57,2.01-1.31,2.81l-.41-.21c-1.94-1.04-2.78-2.97-3.21-4.99-2.63,3.96-6.93,5.04-11.72,5.51,2.58-2.43,4.74-5.35,6.2-8.6,.01-.01,.01-.02,.01-.03h0Z">
</path>
<path class="cls-2" d="M24.54,42.2s3.67,.19,7.05-2.22c-2.32,4.34-4.63,4.34-4.63,4.34l-2.41-2.12Z">
</path>
<path class="cls-15" d="M43.59,59.09l-.21,6.97s-1.58,1.37-3.59,1.9v-7.08l3.8-1.8Z">
</path>
<path class="cls-15" d="M48.47,61.68s-1.3,7.22-11.96,9.99c6.72-.59,9.79-3.26,10.58-1.68s-6.53,3.56-6.62,6.23c14.73-.99,20.67-2.97,20.67-2.97l1.58-6.13-14.24-5.44Z">
</path>
<path class="cls-2" d="M51.23,34.32s2.69-.26,2.35,2.74-2.74,7.12-2.83,7.55c4.8-4.03,4.12-7.29,4.2-9.44s-2.55-2.48-3.72-.85Z">
</path>
<path class="cls-7" d="M35.78,9.97s-.04,0-.13-.01c-.3-.02-.52-.01-.64,0-1.99,.08-7.5,1.13-13.3,9.66-4.44,7.61-1.6,17.83-1.02,20.79,.57,2.95,3.63,12.82,3.63,12.82l6.17,5.64c2.35,.39,5.94,.65,9.83-.12l6.04-5.51s3.07-9.87,3.64-12.82c.57-2.96,3.41-13.18-1.02-20.79-5.68-8.35-11.08-9.54-13.18-9.65-.04-.01-.09-.01-.13-.01-.3-.02-.52-.01-.64,0-.09,.01-.13,.01-.13,.01">
</path>
<path class="cls-7" d="M19.37,30.22s4.58-1.5,6.62-3.89">
</path>
<path d="M32.22,18.25c-3.24,2.63-5.68,6.36-6.28,10.52,0,0-.8-.47-.8-.47,4.95-3.92,11.7-4.78,15.92-9.57,0,0,1.83-1.96,1.83-1.96-1.13,3.75-2.65,7.5-5.04,10.62-.6,.82-1.29,1.59-2,2.33l-.5-1.03c5.95-.8,8.28-2.75,10.74-8.12,.15,2.74,.24,6.59,2.89,8.13,0,0-.64,.13-.64,.13,1.01-1.14,.91-2.89,.76-4.3,.61,.58,2.04,2.01,2.66,2.6,0,0-.7,.72-.7,.72l-1.71-1.65s.86-.42,.86-.42c.11,1.48-.3,2.95-1.33,4.05-2.1-.85-3.08-3.06-3.55-5.12-.14-.64-.24-1.25-.29-1.93l1.12,.22c-2.43,5.25-7.05,6.59-12.38,7.12,2.51-2.43,4.61-5.28,6.05-8.47,.41-.88,.79-1.8,1.09-2.69l1,.57c-2.14,2.43-5.09,4.05-8.01,5.21-3.26,1.43-6.43,2.96-9.2,5.11,.52-4.77,3.25-9.27,7.49-11.59h0Z">
</path>
<path d="M21.25,32.61c1.31-.87,2.69-1.6,4.17-2.21,1.32-.24,2.63-.22,3.91-.12,1.27,.1,2.5,.29,3.75,.57l-.48,1.79c-2.11-.63-5.03-1.3-6.91-1.28-1.3,.27-3.16,.87-4.45,1.24h0Z">
</path>
<path d="M48.81,32.61c-1.31-.38-3.15-.97-4.45-1.24-1.88-.02-4.8,.65-6.91,1.28,0,0-.48-1.79-.48-1.79,1.26-.28,2.49-.47,3.75-.57,1.28-.1,2.6-.12,3.91,.12,1.48,.61,2.86,1.34,4.17,2.21h0Z">
</path>
<path class="cls-8" d="M31.38,35.54s-4.05-.51-5.62,.05c-2.43,1.32-2.94,2.28-2.94,2.28,0,0,3.8,1.27,6.94,.46,1.32-1.27,1.62-2.79,1.62-2.79Z">
</path>
<path class="cls-8" d="M39.08,35.54s4.05-.51,5.62,.05c2.43,1.32,2.94,2.28,2.94,2.28,0,0-3.8,1.27-6.94,.46-1.32-1.27-1.62-2.79-1.62-2.79Z">
</path>
<path d="M38.06,42.49c1.19,1.07,.48,2.43-.75,3.11-.25-.36-.5-.74-.73-1.11,0,0,.51,.07,.51,.07-.56,.54-1.15,1.06-1.72,1.59,0,0-.25-.23-.25-.23-.5-.45-1-.89-1.49-1.36l.51-.07-.55,.84-.18,.27c-1.24-.68-1.96-2.04-.76-3.11-.68,1-.18,2,.83,2.44,0,0-.41,.11-.41,.11l.49-.91,.18-.34c.64,.5,1.25,1.04,1.86,1.57,0,0-.5,0-.5,0,.61-.53,1.22-1.07,1.85-1.57,.22,.41,.47,.83,.68,1.25,0,0-.41-.11-.41-.11,1.01-.44,1.51-1.44,.83-2.44h0Z">
</path>
<path d="M22.07,41.71c1.13,1.5,2.41,2.81,3.98,3.57,.4,1.53,.78,3.07,1.06,4.63,.27,1.49,.52,2.98,.61,4.51-.6-1.41-1.05-2.86-1.47-4.31-.42-1.45-.76-2.93-1.07-4.4l.24,.31c-1.62-.96-2.79-2.55-3.36-4.31h0Z">
</path>
<path d="M48.64,41.71c-.57,1.76-1.73,3.34-3.36,4.31,0,0,.24-.31,.24-.31-.31,1.48-.65,2.95-1.07,4.4-.42,1.45-.87,2.9-1.47,4.31,.09-1.53,.34-3.02,.61-4.51,.29-1.56,.66-3.1,1.06-4.63,1.57-.76,2.86-2.07,3.98-3.57h0Z">
</path>
<path class="cls-7" d="M24.59,57.31l.13,5.5c0,3.43,4.62,6.2,10.33,6.2s10.89-3.37,10.89-6.8l.2-8.69">
</path>
<path class="cls-7" d="M24.5,55.4c0,3.43,4.67,6.2,10.44,6.2s11-3.37,11-6.8">
</path>
<polyline class="cls-7" points="24.47 53.52 24.56 57.44 5.36 65.27">
</polyline>
<polyline class="cls-7" points="46.13 53.52 46.04 57.44 65.24 65.27">
</polyline>
<path class="cls-7" d="M19.56,34.72s-.98-2.42-3.11-1.08-.3,11.38,5.48,11.99">
</path>
<path class="cls-7" d="M51,34.72s.98-2.42,3.11-1.08,.3,11.38-5.48,11.99">
</path>
<path d="M41.39,50.13s-2.34-2.62-4.52-2.94c-.73-.1-1.31-.08-1.75,0-.44-.08-1.02-.1-1.75,0-2.19,.32-4.52,2.94-4.52,2.94,0,0,3.83-1.14,6.08-1.14s6.45,1.14,6.45,1.14Z">
</path>
<path d="M31.75,51.13l3.46-.07c1.05-.01,2.42-.11,3.48-.02-2.03,1.28-4.91,1.45-6.94,.09h0Z">
</path>
<path d="M30.78,39.13c-.83,1.39-2.84,1.58-4.26,1.1,1.5-.24,2.96-.28,4.26-1.1h0Z">
</path>
<path d="M39.9,39.13c1.3,.83,2.76,.86,4.26,1.1-.18,.07-.37,.11-.56,.16-1.3,.22-2.98-.03-3.7-1.26h0Z">
</path>
<path class="cls-12" d="M8.05,65.62c4.23-1.84,12.75-5.48,17-7.25-.11,.33,.22-3.3,.2-3.23,0,0,.1,0,.1,0,.13,1.2,.24,2.4,.25,3.6-5.51,2.89-11.51,5.78-17.54,6.88h0Z">
</path>
<path class="cls-12" d="M16.06,34.6c.91,3.91,1.93,7.15,4.69,10.04-1.53-.41-3.33-2.64-3.97-4.23-.75-1.84-1-3.85-.82-5.82,0,0,.1,.01,.1,.01h0Z">
</path>
</g>


</g>





</svg>
