<?xml version="1.0" encoding="UTF-8"?><svg id="Capa_2" xmlns="http://www.w3.org/2000/svg" xmlns:xlink="http://www.w3.org/1999/xlink" viewBox="0 0 69.02 80"><defs><style>.cls-1{fill:#c89aed;}.cls-2{fill:#fff;}.cls-3{fill:#f8ffbf;}.cls-4{fill:#7b7be8;}.cls-5{fill:#a88347;}.cls-6{fill:#782ab5;}.cls-7,.cls-8,.cls-9,.cls-10,.cls-11,.cls-12{fill:none;}.cls-7,.cls-8,.cls-10{stroke:#000;stroke-miterlimit:10;}.cls-8,.cls-9,.cls-10{stroke-linecap:round;}.cls-13{fill:#1c46ff;}.cls-9{stroke:#deb778;stroke-dasharray:0 0 0 4.06;stroke-linejoin:round;}.cls-10{stroke-width:.5px;}.cls-14{fill:#deb778;}.cls-15{fill:url(#USGS_19_Inundación_de_tierra_2);}.cls-12{stroke:#1d1d1b;stroke-dasharray:0 0 2 2;stroke-width:.3px;}.cls-16{fill:#fcf0c5;}.cls-17{fill:#b83521;}</style><pattern id="USGS_19_Inundación_de_tierra_2" x="0" y="0" width="72" height="72" patternTransform="translate(123.52 -16999) rotate(-90)" patternUnits="userSpaceOnUse" viewBox="0 0 72 72"><g><rect class="cls-11" width="72" height="72"/><g><line class="cls-12" x1="71" y1="71" x2="144.44" y2="71"/><line class="cls-12" x1="71" y1="67" x2="144.44" y2="67"/><line class="cls-12" x1="71" y1="63" x2="144.44" y2="63"/><line class="cls-12" x1="71" y1="59" x2="144.44" y2="59"/><line class="cls-12" x1="71" y1="55" x2="144.44" y2="55"/><line class="cls-12" x1="71" y1="51" x2="144.44" y2="51"/><line class="cls-12" x1="71" y1="47" x2="144.44" y2="47"/><line class="cls-12" x1="71" y1="43" x2="144.44" y2="43"/><line class="cls-12" x1="71" y1="39" x2="144.44" y2="39"/><line class="cls-12" x1="71" y1="35" x2="144.44" y2="35"/><line class="cls-12" x1="71" y1="31" x2="144.44" y2="31"/><line class="cls-12" x1="71" y1="27" x2="144.44" y2="27"/><line class="cls-12" x1="71" y1="23" x2="144.44" y2="23"/><line class="cls-12" x1="71" y1="19" x2="144.44" y2="19"/><line class="cls-12" x1="71" y1="15" x2="144.44" y2="15"/><line class="cls-12" x1="71" y1="11" x2="144.44" y2="11"/><line class="cls-12" x1="71" y1="7" x2="144.44" y2="7"/><line class="cls-12" x1="71" y1="3" x2="144.44" y2="3"/></g>
<g><line class="cls-12" x1="-1" y1="71" x2="72.44" y2="71"/><line class="cls-12" x1="-1" y1="67" x2="72.44" y2="67"/><line class="cls-12" x1="-1" y1="63" x2="72.44" y2="63"/><line class="cls-12" x1="-1" y1="59" x2="72.44" y2="59"/><line class="cls-12" x1="-1" y1="55" x2="72.44" y2="55"/><line class="cls-12" x1="-1" y1="51" x2="72.44" y2="51"/><line class="cls-12" x1="-1" y1="47" x2="72.44" y2="47"/><line class="cls-12" x1="-1" y1="43" x2="72.44" y2="43"/><line class="cls-12" x1="-1" y1="39" x2="72.44" y2="39"/><line class="cls-12" x1="-1" y1="35" x2="72.44" y2="35"/><line class="cls-12" x1="-1" y1="31" x2="72.44" y2="31"/><line class="cls-12" x1="-1" y1="27" x2="72.44" y2="27"/><line class="cls-12" x1="-1" y1="23" x2="72.44" y2="23"/><line class="cls-12" x1="-1" y1="19" x2="72.44" y2="19"/><line class="cls-12" x1="-1" y1="15" x2="72.44" y2="15"/><line class="cls-12" x1="-1" y1="11" x2="72.44" y2="11"/><line class="cls-12" x1="-1" y1="7" x2="72.44" y2="7"/><line class="cls-12" x1="-1" y1="3" x2="72.44" y2="3"/><line class="cls-12" x1="1.04" y1="69" x2="74.48" y2="69"/><line class="cls-12" x1="1.04" y1="65" x2="74.48" y2="65"/><line class="cls-12" x1="1.04" y1="61" x2="74.48" y2="61"/><line class="cls-12" x1="1.04" y1="57" x2="74.48" y2="57"/><line class="cls-12" x1="1.04" y1="53" x2="74.48" y2="53"/><line class="cls-12" x1="1.04" y1="49" x2="74.48" y2="49"/><line class="cls-12" x1="1.04" y1="45" x2="74.48" y2="45"/><line class="cls-12" x1="1.04" y1="41" x2="74.48" y2="41"/><line class="cls-12" x1="1.04" y1="37" x2="74.48" y2="37"/><line class="cls-12" x1="1.04" y1="33" x2="74.48" y2="33"/><line class="cls-12" x1="1.04" y1="29" x2="74.48" y2="29"/><line class="cls-12" x1="1.04" y1="25" x2="74.48" y2="25"/><line class="cls-12" x1="1.04" y1="21" x2="74.48" y2="21"/><line class="cls-12" x1="1.04" y1="17" x2="74.48" y2="17"/><line class="cls-12" x1="1.04" y1="13" x2="74.48" y2="13"/><line class="cls-12" x1="1.04" y1="9" x2="74.48" y2="9"/><line class="cls-12" x1="1.04" y1="5" x2="74.48" y2="5"/><line class="cls-12" x1="1.04" y1="1" x2="74.48" y2="1"/></g>
<g><line class="cls-12" x1="-73" y1="71" x2=".44" y2="71"/><line class="cls-12" x1="-73" y1="67" x2=".44" y2="67"/><line class="cls-12" x1="-73" y1="63" x2=".44" y2="63"/><line class="cls-12" x1="-73" y1="59" x2=".44" y2="59"/><line class="cls-12" x1="-73" y1="55" x2=".44" y2="55"/><line class="cls-12" x1="-73" y1="51" x2=".44" y2="51"/><line class="cls-12" x1="-73" y1="47" x2=".44" y2="47"/><line class="cls-12" x1="-73" y1="43" x2=".44" y2="43"/><line class="cls-12" x1="-73" y1="39" x2=".44" y2="39"/><line class="cls-12" x1="-73" y1="35" x2=".44" y2="35"/><line class="cls-12" x1="-73" y1="31" x2=".44" y2="31"/><line class="cls-12" x1="-73" y1="27" x2=".44" y2="27"/><line class="cls-12" x1="-73" y1="23" x2=".44" y2="23"/><line class="cls-12" x1="-73" y1="19" x2=".44" y2="19"/><line class="cls-12" x1="-73" y1="15" x2=".44" y2="15"/><line class="cls-12" x1="-73" y1="11" x2=".44" y2="11"/><line class="cls-12" x1="-73" y1="7" x2=".44" y2="7"/><line class="cls-12" x1="-73" y1="3" x2=".44" y2="3"/><line class="cls-12" x1="-70.96" y1="69" x2="2.48" y2="69"/><line class="cls-12" x1="-70.96" y1="65" x2="2.48" y2="65"/><line class="cls-12" x1="-70.96" y1="61" x2="2.48" y2="61"/><line class="cls-12" x1="-70.96" y1="57" x2="2.48" y2="57"/><line class="cls-12" x1="-70.96" y1="53" x2="2.48" y2="53"/><line class="cls-12" x1="-70.96" y1="49" x2="2.48" y2="49"/><line class="cls-12" x1="-70.96" y1="45" x2="2.48" y2="45"/><line class="cls-12" x1="-70.96" y1="41" x2="2.48" y2="41"/><line class="cls-12" x1="-70.96" y1="37" x2="2.48" y2="37"/><line class="cls-12" x1="-70.96" y1="33" x2="2.48" y2="33"/><line class="cls-12" x1="-70.96" y1="29" x2="2.48" y2="29"/><line class="cls-12" x1="-70.96" y1="25" x2="2.48" y2="25"/><line class="cls-12" x1="-70.96" y1="21" x2="2.48" y2="21"/><line class="cls-12" x1="-70.96" y1="17" x2="2.48" y2="17"/><line class="cls-12" x1="-70.96" y1="13" x2="2.48" y2="13"/><line class="cls-12" x1="-70.96" y1="9" x2="2.48" y2="9"/><line class="cls-12" x1="-70.96" y1="5" x2="2.48" y2="5"/><line class="cls-12" x1="-70.96" y1="1" x2="2.48" y2="1"/></g>
</g>
</pattern></defs><g><g id="Frame"><path class="cls-6" d="M64.02,40c0,11.47-1.89,22.39-5.5,31.74-7.2,2.16-14.94,3.26-23.02,3.26-.49,0-.98-.01-1.47-.02h-.17c-8.18-.15-16.29-1.47-23.6-3.85-3.45-9.22-5.26-19.93-5.26-31.13s1.89-22.38,5.48-31.73c6.73-2.01,14.13-3.13,21.6-3.26,.48-.01,.97-.01,1.45-.01,.54,0,1.08,.01,1.63,.02,8.16,.15,16.27,1.47,23.59,3.84,3.46,9.24,5.27,19.95,5.27,31.14Z"/><path class="cls-15" d="M34.03,5.59V74.98h-.17c-8.18-.15-16.29-1.47-23.6-3.85-3.45-9.22-5.26-19.93-5.26-31.13s1.89-22.38,5.48-31.73c6.73-2.01,14.13-3.13,21.6-3.26,.65,.16,1.3,.36,1.95,.58Z"/></g>
<g><path class="cls-1" d="M63.76,66.21c-2.8,6.98-4.19,8.38-4.19,8.38,0,0-31.31,7.44-50.98-2.1-.93-4.77-.7-6.17-.7-6.17,0,0,9.75-2.2,16.85-6.38,0-.01,.02-.01,.03-.02,0,0-2.18-2.04-4.58-4.5-.15-.16-.3-.31-.45-.47-1.58-1.63-3.2-3.4-4.31-4.85-.5-.64-.89-1.22-1.14-1.7-1.74-3.38-2.67-11.87-1.04-18.27,1.63-6.4,8.49-15.95,17.45-17.46,9.08-1.51,11.88,4.42,12.69,6.4,3.49-1.86,4.54-2.1,4.54-2.1,0,0,5.82,5.24,8.15,13.74,2.09,9.66,1.63,12.68,1.63,12.68,0,0-3.26,4.54-9.78,5.59-.03,.05-.06,.1-.09,.15-2.05,3.5-3.29,4.97-3.29,4.97v3.96s7.69,6.17,19.21,8.15Z"/><path class="cls-2" d="M36.01,58.89V29.46s1.76-4.66,3.78-4.79,3.47,3.09,3.47,3.09c0,0,1.64-1.2,3.28,.13s3.34,9.89,4.54,12.1c-3.84,11.47-8.07,18.28-15.06,18.91Z"/><path d="M57.71,43.39s-3.26,4.54-9.78,5.59c-.03,.05-.06,.1-.09,.15-.21,.02-.33,.02-.33,.02,0,0,3.37-6.41,3.37-9.34-3.04-8.36-3.69-12.49-5.1-12.49-1.63,0-2.39,.22-2.39,.22,0,0-1.74-3.8-3.91-2.82-2.39,1.19-7.28,9.45-9.67,18.02-2.39,8.58-2.17,17.49-1.84,20.2,0,0-1.33-1.2-3.23-3-1.33-1.27-2.94-2.85-4.55-4.52-.15-.16-.3-.31-.45-.47-1.54-1.61-3.05-3.28-4.31-4.85-.5-.64-.89-1.22-1.14-1.7-1.74-3.38-2.67-11.87-1.04-18.27,1.63-6.4,8.49-15.95,17.45-17.46,9.08-1.51,11.88,4.42,12.69,6.4,3.49-1.86,4.54-2.1,4.54-2.1,0,0,5.82,5.24,8.15,13.74,2.09,9.66,1.63,12.68,1.63,12.68Z"/><path d="M28.36,59.58s2.99,2.22,7.95,2.39,7.95-2.91,7.95-2.91l.17,3.51s-3.42,3.25-8.89,2.99c-4.53-.6-7.1-2.14-7.1-2.14l-.09-3.85Z"/><path class="cls-5" d="M36.3,65.46s-5.09,1.56-5.51,4.08,2.31,2.94,5.66,2.73,5.45-1.19,4.89-3.01-5.05-3.8-5.05-3.8Z"/><path class="cls-3" d="M40.06,39.41s2.49-1.05,3.93-1.02c2.33,.89,3.4,2.12,3.4,2.12,0,0-1.59,1.49-3.82,1.88-2.67-.65-3.91-2.21-3.51-2.98Z"/><path class="cls-1" d="M40.32,26.19c.05,0,.1,.01,.15,.03,.6,.22,1.34,1.35,1.63,2.04l.24,.58,.48,1.16,1.02-.72,.48-.34h0c.25-.16,.52-.25,.71-.25,.04,0,.07,0,.1,.01,.17,.04,.33,.25,.43,.4,.31,.52,.84,2.23,1.24,3.48l.02,.06c.71,2.22,1.58,4.96,2.7,7.36-.52,1.91-3.17,10.74-8.81,15.66-1.45,1.03-2.98,1.55-4.55,1.55-1.76,0-3.49-.68-4.76-1.87-.98-1.29-1.5-2.05-1.77-2.46,1.46-14,9.05-25.74,10.39-26.59,.11-.06,.21-.09,.3-.09m0-1c-.26,0-.51,.07-.77,.21-1.62,.84-9.56,13.34-10.95,27.71,.26,.43,.84,1.29,2.05,2.89,1.36,1.3,3.32,2.2,5.51,2.2,1.65,0,3.43-.51,5.17-1.76,6.54-5.66,9.21-16.37,9.24-16.48h.05c-1.19-2.44-2.1-5.3-2.86-7.68-.52-1.66-.98-3.1-1.33-3.69-.3-.49-.66-.78-1.08-.87-.1-.02-.21-.03-.31-.03-.66,0-1.25,.41-1.26,.41l-.51,.36-.24-.58c-.24-.58-1.12-2.2-2.21-2.6-.17-.06-.33-.09-.5-.09h0Z"/><path class="cls-4" d="M39.24,37.15s3.32-2.75,6.31-2.47c2.99,.33,3.75,1.8,3.75,1.8l-1.33,4.17-1.47-1s-1.75-1.23-3.04-1.23c-2.66,.38-4.08,1.23-4.08,1.23l-.14-2.51Z"/><path class="cls-2" d="M45.83,62.89s-1.89,3.74-10.15,4.4v7.87l23.6-1.8,2.05-7.27s-10.86-4.36-15.65-7.1c.14,2.52,.14,3.9,.14,3.9Z"/><path d="M44.33,54.74l-18.42,19.97-15.02-2.92-1.61-5.49,15.8-6.02,2.98,2.27,.12-3.16,.12-5.54s2.03,3.46,3.7,3.99,6.68,2.15,12.34-3.1Z"/><path class="cls-13" d="M35.59,29.73s-5.46,3.81-8.04,1.55-.1-8.45-4.33-7.22-5.46-.93-4.33-3.4c-3.3,4.02-5.57,9.38-5.67,13.4,2.37-4.74,8.04-8.56,8.87-1.44s7.22,3.09,8.97,6.39c2.37-6.08,4.54-9.28,4.54-9.28Z"/><path class="cls-13" d="M48.16,30.97l1.83,5.1c.57-2.96,1.89-2.58,3.4-1.51s1.89-2.96,3.34-1.32c-.76-4.47-3.09-9.01-3.09-9.01,0,0,1.26,5.61-.44,5.55s-2.65-1.58-5.04,1.2Z"/><path class="cls-13" d="M13.77,45.61s9.58,14.03,14.03,10.42c-.17,5.71,.17,6.91,.17,6.91,0,0-14.03-11.45-14.2-17.33Z"/><path class="cls-17" d="M32.3,51.47s1.01,1.27,3.37,1.27c0,0,3.51,.05,4.28-1.37-1.59-1.04-2.63-.99-2.63-.99h-3.35l-1.67,1.09Z"/><path class="cls-8" d="M43.85,21.37c-.48-3.94-2.86-8.94-11.57-8.82-10.26,.36-20.15,13.24-20.15,25.64s7.15,15.5,16.22,25.16c-2.86-18.13,8.47-37.09,10.97-38.4s4.17,2.74,4.17,2.74c0,0,2.09-1.49,3.37,.64s3.31,13.02,7.58,15.9"/><path class="cls-7" d="M43.43,19.16s2.26-2.26,4.52-1.81c6.96,4.61,9.58,17.26,9.94,25.94-2.98,4.88-10.42,5.65-10.42,5.65"/><path class="cls-7" d="M51.06,40.08s-2.66,10.9-9.44,16.77c-4.22,3.02-8.71,2.02-11.36-.55-2.02-2.66-2.32-3.34-2.32-3.34"/><path class="cls-8" d="M25.05,60.14s-7.46,3.66-16.46,6.29"/><path class="cls-8" d="M44.4,54l-.11,4.03s6.07,5.12,19.02,8.41"/><path class="cls-8" d="M44.29,58.02l.11,4.41s-2.48,3.18-9.08,2.98c-4.76-.15-6.8-2.38-6.8-2.38"/><path class="cls-8" d="M28.05,59.22s3.31,2.91,7.79,2.91c5.38,0,8.29-3.14,8.29-3.14"/><path class="cls-8" d="M36.3,65.46s5.02,2.11,5.02,4.22-3.78,2.51-5.23,2.51-5.25-.4-5.25-2.51,5.02-4.22,5.02-4.22"/><path class="cls-10" d="M36.2,66.94s2.81,1.18,2.81,2.36-2.12,1.4-2.93,1.4-2.94-.22-2.94-1.4,2.81-2.36,2.81-2.36h.26Z"/><path class="cls-10" d="M18.71,63.24s-.26,5.92,3.22,10.75"/><path class="cls-10" d="M53.33,63.24s.26,5.92-3.22,10.75"/><path d="M38.18,46.97c.02-.32,.06-.69-.02-.86,0-.04-.08-.01,.06,.03-.34,.17-1.64,1.23-1.98,1.48,0,0-.23,.18-.23,.18-.58-.43-1.17-.87-1.73-1.3-.14-.11-.36-.25-.47-.31,.19-.06,.08-.07,.09-.05-.09,.14-.06,.52-.07,.84-.13-.12-.23-.26-.31-.41-.13-.22-.22-.68,.09-.88,.07-.05,.19-.06,.21-.06,.93,.21,1.67,.84,2.4,1.4,.03,.01-.46,0-.45,0,.51-.39,1.04-.76,1.62-1.06,1.21-.76,1.5,.17,.78,1.01h0Z"/><path d="M40.41,51.72c-.87-.39-1.65-.92-2.53-.99-.33,.02-1.35,.05-1.71,.06-.36,0-1.38-.03-1.71-.05-.88,.07-1.66,.6-2.53,.99,.67-.98,1.77-1.98,3.08-1.91,0,0,1.16-.03,1.16-.03l1.16,.03c1.3-.07,2.41,.92,3.08,1.91h0Z"/><path d="M33.8,52.32c1.17-.05,3.51-.05,4.68,0,.04,0,.06,.05,.03,.07-.71,.64-1.49,.84-2.37,.87-.87-.03-1.66-.23-2.37-.87-.03-.02,0-.08,.03-.07h0Z"/><path d="M33.81,38.21c.39,.31,.72,.66,1.03,1.01,.02,1.01-.08,2.01-.28,2.98-1.4,5.98-1.23-.84-.37-2.91,0,0,.05,.23,.05,.23-.17-.42-.32-.85-.42-1.31h0Z"/><path d="M37.97,38.21c-.1,.46-.25,.89-.42,1.31l.05-.23c.85,2.06,1.03,8.9-.37,2.91-.2-.98-.3-1.97-.28-2.98,.32-.36,.64-.7,1.03-1.01h0Z"/><path d="M38.88,36.54c2.89-2.15,7.19-4,9.92-.61-2.26-1.37-4.42-1.19-6.6,.13-.86,.46-1.72,1.01-2.52,1.55l-.79-1.06h0Z"/><path d="M39.27,39.69c1.5-.76,2.95-1.46,4.67-1.66,1.44,.4,2.83,1.05,3.87,2.16,0,0,.27,.3,.27,.3-1.31,.95-2.73,1.72-4.27,2.21-1.16-.13-2.63-1.03-3.36-1.95,.48,.39,1.02,.7,1.59,.93,.56,.23,1.14,.41,1.74,.51h-.15c1.28-.56,2.55-1.26,3.68-2.07,0,0-.06,.53-.06,.53-.79-.91-2.55-1.71-3.34-2.01-1.53,.04-3.13,.64-4.64,1.03h0Z"/><path class="cls-13" d="M10.82,66.69l13.96-5.35s-5.29,4.88-13.96,5.35Z"/></g>
<g id="BG"><path class="cls-5" d="M62.56,4.88C54.4,1.94,45.12,.2,35.25,.02c-.57-.01-1.15-.02-1.72-.02C23.88,0,14.77,1.52,6.72,4.21,2.49,14.22,0,26.6,0,40s2.39,25.22,6.45,35.11c8.16,2.94,17.45,4.69,27.32,4.87,.58,.01,1.15,.02,1.73,.02,9.63,0,18.73-1.51,26.78-4.2,4.24-10.01,6.74-22.39,6.74-35.8s-2.4-25.24-6.46-35.12Zm-4.04,66.86c-7.2,2.16-14.94,3.26-23.02,3.26-.49,0-.98-.01-1.47-.02h-.17c-8.18-.15-16.29-1.47-23.6-3.85-3.45-9.22-5.26-19.93-5.26-31.13s1.89-22.38,5.48-31.73c6.73-2.01,14.13-3.13,21.6-3.26,.48-.01,.97-.01,1.45-.01,.54,0,1.08,.01,1.63,.02,8.16,.15,16.27,1.47,23.59,3.84,3.46,9.24,5.27,19.95,5.27,31.14s-1.89,22.39-5.5,31.74Z"/><path class="cls-14" d="M17.21,2.06h0c1.63,.63,2.06,2.75,.81,3.97l-1.26,1.22s8.35-2.37,18.84-1.69h0c-1-1.49-.45-3.52,1.14-4.34l1-.51S28.26-.43,17.21,2.06Z"/><path class="cls-16" d="M21.81,1.66s.7,2.18-.22,3.1c3.77-.41,7.98-.74,11.12-.74-.33-1.33,1.26-3.4,1.26-3.4,0,0-6.17-.26-12.16,1.03Z"/><path class="cls-14" d="M36.25,79.21h0c-1.52-.87-1.62-3.03-.2-4.04l1.43-1.02s-8.61,1.07-18.88-1.19h0c.76,1.63-.09,3.55-1.79,4.11l-1.07,.36s9.19,2.56,20.5,1.78Z"/><path class="cls-16" d="M19.28,77.8s1.76-1.83,1.3-3.09c4.43,.69,9.11,1.14,12.25,1.14-.33,1.33,.44,3.4,.44,3.4,0,0-8-.16-13.99-1.45Z"/><polygon points="47.48 1.77 47.48 6.73 54.49 8.44 54.49 2.62 47.48 1.77"/><line class="cls-7" x1="45.5" y1="1.23" x2="45.5" y2="6.29"/><line class="cls-7" x1="56.47" y1="3.67" x2="56.47" y2="8.73"/><polygon points="47.48 78.74 47.48 73.78 54.49 72.07 54.49 77.88 47.48 78.74"/><line class="cls-7" x1="45.5" y1="79.28" x2="45.5" y2="74.21"/><line class="cls-7" x1="56.47" y1="76.84" x2="56.47" y2="71.77"/><path d="M33.53,1c.56,0,1.14,0,1.7,.02,9.39,.17,18.33,1.74,26.57,4.65,4.07,10.08,6.22,21.94,6.22,34.33s-2.24,24.79-6.49,34.99c-8.12,2.66-16.87,4.01-26.03,4.01-.56,0-1.12,0-1.71-.02-9.25-.17-18.42-1.78-26.58-4.66C3.15,64.25,1,52.39,1,40S3.23,15.21,7.47,5.02C15.6,2.35,24.37,1,33.53,1M33.53,0C23.88,0,14.77,1.52,6.72,4.21,2.49,14.22,0,26.6,0,40s2.39,25.22,6.45,35.11c8.16,2.94,17.45,4.69,27.32,4.87,.58,.01,1.15,.02,1.73,.02,9.63,0,18.73-1.51,26.78-4.2,4.24-10.01,6.74-22.39,6.74-35.8s-2.4-25.24-6.46-35.12C54.4,1.94,45.12,.2,35.25,.02,34.68,.01,34.1,0,33.53,0h0Z"/><path class="cls-14" d="M33.53,6c.52,0,1.04,0,1.61,.02,7.87,.14,15.75,1.4,22.84,3.64,3.3,9,5.04,19.47,5.04,30.34s-1.82,21.82-5.26,30.92c-6.98,2.04-14.47,3.08-22.26,3.08-.48,0-.97,0-1.47-.02h-.15c-7.89-.14-15.78-1.41-22.85-3.65-3.29-8.99-5.03-19.46-5.03-30.33s1.81-21.79,5.24-30.91c6.5-1.89,13.7-2.95,20.86-3.08,.47,0,.96,0,1.43,0m0-1c-.48,0-.97,0-1.45,.01-7.47,.13-14.87,1.25-21.6,3.26-3.59,9.35-5.48,20.26-5.48,31.73s1.81,21.91,5.26,31.13c7.31,2.38,15.42,3.7,23.6,3.85h.17c.49,.01,.98,.02,1.47,.02,8.08,0,15.82-1.1,23.02-3.26,3.61-9.35,5.5-20.27,5.5-31.74s-1.81-21.9-5.27-31.14c-7.32-2.37-15.43-3.69-23.59-3.84-.55,0-1.09-.02-1.63-.02h0Z"/><path class="cls-9" d="M8.14,7.1s-12.66,32.94,0,66.06"/><path class="cls-9" d="M60.88,7.58s12.66,32.94,0,66.06"/>
<path d="M33.53,5c.54,0,1.08,.01,1.63,.02,8.16,.15,16.27,1.47,23.59,3.84,3.46,9.24,5.27,19.95,5.27,31.14s-1.89,22.39-5.5,31.74c-7.2,2.16-14.94,3.26-23.02,3.26-.49,0-.98-.01-1.47-.02h-.17c-8.18-.15-16.29-1.47-23.6-3.85-3.45-9.22-5.26-19.93-5.26-31.13s1.89-22.38,5.48-31.73c6.73-2.01,14.13-3.13,21.6-3.26,.48-.01,.97-.01,1.45-.01m0-1c-.49,0-.98,0-1.47,.01-7.51,.13-15.07,1.27-21.87,3.3l-.47,.14-.18,.46c-3.63,9.45-5.55,20.55-5.55,32.09s1.84,22.17,5.32,31.48l.17,.45,.46,.15c7.37,2.4,15.63,3.75,23.89,3.9h.19c.48,.01,.97,.02,1.47,.02,8.16,0,16-1.11,23.31-3.3l.47-.14,.18-.46c3.64-9.43,5.57-20.53,5.57-32.1s-1.84-22.17-5.33-31.49l-.17-.45-.46-.15c-7.39-2.39-15.65-3.74-23.88-3.89-.58-.01-1.11-.02-1.65-.02h0Z"/></g>
</g>
</svg>