<svg id="Capa_2" xmlns="http://www.w3.org/2000/svg" xmlns:xlink="http://www.w3.org/1999/xlink" viewBox="0 0 69.02 80">
<defs >
<style >
.cls-1{fill:#c89aed;}.cls-2{fill:#fff;}.cls-3{fill:#f8ffbf;}.cls-4{fill:#7b7be8;}.cls-5{fill:#a88347;}.cls-6{fill:#782ab5;}.cls-7,.cls-8{stroke:#000;stroke-miterlimit:10;}.cls-7,.cls-8,.cls-9,.cls-10,.cls-11{fill:none;}.cls-8,.cls-9{stroke-linecap:round;}.cls-12{fill:#1c46ff;}.cls-9{stroke:#deb778;stroke-dasharray:0 0 0 4.06;stroke-linejoin:round;}.cls-13{fill:#deb778;}.cls-14{fill:url(#USGS_19_Inundación_de_tierra_2);}.cls-11{stroke:#1d1d1b;stroke-dasharray:0 0 2 2;stroke-width:.3px;}.cls-15{fill:#cf5f2b;}.cls-16{fill:#fcf0c5;}.cls-17{fill:#b83521;}
</style>
<pattern id="USGS_19_Inundación_de_tierra_2" x="0" y="0" width="72" height="72" patternTransform="translate(-20.48 -16999) rotate(-90)" patternUnits="userSpaceOnUse" viewBox="0 0 72 72">
<g >
<rect class="cls-10" width="72" height="72">
</rect>
<g >
<line class="cls-11" x1="71" y1="71" x2="144.44" y2="71">
</line>
<line class="cls-11" x1="71" y1="67" x2="144.44" y2="67">
</line>
<line class="cls-11" x1="71" y1="63" x2="144.44" y2="63">
</line>
<line class="cls-11" x1="71" y1="59" x2="144.44" y2="59">
</line>
<line class="cls-11" x1="71" y1="55" x2="144.44" y2="55">
</line>
<line class="cls-11" x1="71" y1="51" x2="144.44" y2="51">
</line>
<line class="cls-11" x1="71" y1="47" x2="144.44" y2="47">
</line>
<line class="cls-11" x1="71" y1="43" x2="144.44" y2="43">
</line>
<line class="cls-11" x1="71" y1="39" x2="144.44" y2="39">
</line>
<line class="cls-11" x1="71" y1="35" x2="144.44" y2="35">
</line>
<line class="cls-11" x1="71" y1="31" x2="144.44" y2="31">
</line>
<line class="cls-11" x1="71" y1="27" x2="144.44" y2="27">
</line>
<line class="cls-11" x1="71" y1="23" x2="144.44" y2="23">
</line>
<line class="cls-11" x1="71" y1="19" x2="144.44" y2="19">
</line>
<line class="cls-11" x1="71" y1="15" x2="144.44" y2="15">
</line>
<line class="cls-11" x1="71" y1="11" x2="144.44" y2="11">
</line>
<line class="cls-11" x1="71" y1="7" x2="144.44" y2="7">
</line>
<line class="cls-11" x1="71" y1="3" x2="144.44" y2="3">
</line>
</g>


<g >
<line class="cls-11" x1="-1" y1="71" x2="72.44" y2="71">
</line>
<line class="cls-11" x1="-1" y1="67" x2="72.44" y2="67">
</line>
<line class="cls-11" x1="-1" y1="63" x2="72.44" y2="63">
</line>
<line class="cls-11" x1="-1" y1="59" x2="72.44" y2="59">
</line>
<line class="cls-11" x1="-1" y1="55" x2="72.44" y2="55">
</line>
<line class="cls-11" x1="-1" y1="51" x2="72.44" y2="51">
</line>
<line class="cls-11" x1="-1" y1="47" x2="72.44" y2="47">
</line>
<line class="cls-11" x1="-1" y1="43" x2="72.44" y2="43">
</line>
<line class="cls-11" x1="-1" y1="39" x2="72.44" y2="39">
</line>
<line class="cls-11" x1="-1" y1="35" x2="72.44" y2="35">
</line>
<line class="cls-11" x1="-1" y1="31" x2="72.44" y2="31">
</line>
<line class="cls-11" x1="-1" y1="27" x2="72.44" y2="27">
</line>
<line class="cls-11" x1="-1" y1="23" x2="72.44" y2="23">
</line>
<line class="cls-11" x1="-1" y1="19" x2="72.44" y2="19">
</line>
<line class="cls-11" x1="-1" y1="15" x2="72.44" y2="15">
</line>
<line class="cls-11" x1="-1" y1="11" x2="72.44" y2="11">
</line>
<line class="cls-11" x1="-1" y1="7" x2="72.44" y2="7">
</line>
<line class="cls-11" x1="-1" y1="3" x2="72.44" y2="3">
</line>
<line class="cls-11" x1="1.04" y1="69" x2="74.48" y2="69">
</line>
<line class="cls-11" x1="1.04" y1="65" x2="74.48" y2="65">
</line>
<line class="cls-11" x1="1.04" y1="61" x2="74.48" y2="61">
</line>
<line class="cls-11" x1="1.04" y1="57" x2="74.48" y2="57">
</line>
<line class="cls-11" x1="1.04" y1="53" x2="74.48" y2="53">
</line>
<line class="cls-11" x1="1.04" y1="49" x2="74.48" y2="49">
</line>
<line class="cls-11" x1="1.04" y1="45" x2="74.48" y2="45">
</line>
<line class="cls-11" x1="1.04" y1="41" x2="74.48" y2="41">
</line>
<line class="cls-11" x1="1.04" y1="37" x2="74.48" y2="37">
</line>
<line class="cls-11" x1="1.04" y1="33" x2="74.48" y2="33">
</line>
<line class="cls-11" x1="1.04" y1="29" x2="74.48" y2="29">
</line>
<line class="cls-11" x1="1.04" y1="25" x2="74.48" y2="25">
</line>
<line class="cls-11" x1="1.04" y1="21" x2="74.48" y2="21">
</line>
<line class="cls-11" x1="1.04" y1="17" x2="74.48" y2="17">
</line>
<line class="cls-11" x1="1.04" y1="13" x2="74.48" y2="13">
</line>
<line class="cls-11" x1="1.04" y1="9" x2="74.48" y2="9">
</line>
<line class="cls-11" x1="1.04" y1="5" x2="74.48" y2="5">
</line>
<line class="cls-11" x1="1.04" y1="1" x2="74.48" y2="1">
</line>
</g>


<g >
<line class="cls-11" x1="-73" y1="71" x2=".44" y2="71">
</line>
<line class="cls-11" x1="-73" y1="67" x2=".44" y2="67">
</line>
<line class="cls-11" x1="-73" y1="63" x2=".44" y2="63">
</line>
<line class="cls-11" x1="-73" y1="59" x2=".44" y2="59">
</line>
<line class="cls-11" x1="-73" y1="55" x2=".44" y2="55">
</line>
<line class="cls-11" x1="-73" y1="51" x2=".44" y2="51">
</line>
<line class="cls-11" x1="-73" y1="47" x2=".44" y2="47">
</line>
<line class="cls-11" x1="-73" y1="43" x2=".44" y2="43">
</line>
<line class="cls-11" x1="-73" y1="39" x2=".44" y2="39">
</line>
<line class="cls-11" x1="-73" y1="35" x2=".44" y2="35">
</line>
<line class="cls-11" x1="-73" y1="31" x2=".44" y2="31">
</line>
<line class="cls-11" x1="-73" y1="27" x2=".44" y2="27">
</line>
<line class="cls-11" x1="-73" y1="23" x2=".44" y2="23">
</line>
<line class="cls-11" x1="-73" y1="19" x2=".44" y2="19">
</line>
<line class="cls-11" x1="-73" y1="15" x2=".44" y2="15">
</line>
<line class="cls-11" x1="-73" y1="11" x2=".44" y2="11">
</line>
<line class="cls-11" x1="-73" y1="7" x2=".44" y2="7">
</line>
<line class="cls-11" x1="-73" y1="3" x2=".44" y2="3">
</line>
<line class="cls-11" x1="-70.96" y1="69" x2="2.48" y2="69">
</line>
<line class="cls-11" x1="-70.96" y1="65" x2="2.48" y2="65">
</line>
<line class="cls-11" x1="-70.96" y1="61" x2="2.48" y2="61">
</line>
<line class="cls-11" x1="-70.96" y1="57" x2="2.48" y2="57">
</line>
<line class="cls-11" x1="-70.96" y1="53" x2="2.48" y2="53">
</line>
<line class="cls-11" x1="-70.96" y1="49" x2="2.48" y2="49">
</line>
<line class="cls-11" x1="-70.96" y1="45" x2="2.48" y2="45">
</line>
<line class="cls-11" x1="-70.96" y1="41" x2="2.48" y2="41">
</line>
<line class="cls-11" x1="-70.96" y1="37" x2="2.48" y2="37">
</line>
<line class="cls-11" x1="-70.96" y1="33" x2="2.48" y2="33">
</line>
<line class="cls-11" x1="-70.96" y1="29" x2="2.48" y2="29">
</line>
<line class="cls-11" x1="-70.96" y1="25" x2="2.48" y2="25">
</line>
<line class="cls-11" x1="-70.96" y1="21" x2="2.48" y2="21">
</line>
<line class="cls-11" x1="-70.96" y1="17" x2="2.48" y2="17">
</line>
<line class="cls-11" x1="-70.96" y1="13" x2="2.48" y2="13">
</line>
<line class="cls-11" x1="-70.96" y1="9" x2="2.48" y2="9">
</line>
<line class="cls-11" x1="-70.96" y1="5" x2="2.48" y2="5">
</line>
<line class="cls-11" x1="-70.96" y1="1" x2="2.48" y2="1">
</line>
</g>


</g>


</pattern>
</defs>



<g >
<path class="cls-1" d="M7.94,65.76l15.91-6.01s1.56-1.34,1.56-3.78,.45-6.12,.45-6.12c0,0-3.45-5.01-5.56-10.79s-2.23-12.13-2.23-12.13l13.02-11.57,6.01-.89,11.46,17.47s-2.34,13.13-8.23,18.8c.56,4.56,1.11,7.45,1.11,7.45,0,0,1.34,1.56,4.9,2.89s15.24,5.56,15.24,5.56l-2.11,8.12-24.92,2-26.03-5.12-.56-5.9Z">
</path>
<path class="cls-4" d="M30.94,36.55l-.74-6.6s-5.52,.99-7,1.82c-1.38,1.92-1.97,2.86-1.97,2.86,0,0,1.72,2.17,2.32,2.71s5.72,.39,7.39-.79Z">
</path>
<path class="cls-2" d="M33.38,52.97V29.12c0-3.18,3.87-4.8,6.1-2.53s5.19,4.54,8.67,5.76c-2.22,12.71-5.52,16.35-7.83,18.39s-5.1,3.2-6.94,2.23Z">
</path>
<path class="cls-4" d="M36.42,36.49l.54-6.54s5.52,.99,7,1.82c1.38,1.92,1.87,2.96,1.87,2.96,0,0-1.62,2.07-2.21,2.61s-5.51,.33-7.19-.85Z">
</path>
<path class="cls-5" d="M25.38,57.37s4.08,2.93,8.05,2.82c4.49,0,7.84-2.4,7.84-2.4,0,0,1.05,1.99,2.4,2.3s16.86,5.91,17.89,6.56c-1.9,6.92-2.11,8.12-2.11,8.12,0,0-17.66,3.4-27.48,2.88s-22.47-5.33-22.47-5.33l-1.67-7.11s12.86-4.08,14.74-4.81,2.4-2.09,2.82-3.03Z">
</path>
<path d="M40.44,51.41l-18.78,22.59-11.18-3.37-1.51-5.43,14.89-5.45s1.33-1.59,1.56-3.78,.56-5.66,.56-5.66c0,0,3.55,3.13,6.26,3.13s6.09-.59,8.21-2.03Z">
</path>
<path class="cls-17" d="M33.35,11.76s-10.98-2.9-17.23,8.69c-3.97,8.39-.46,13.57-.46,13.57,0,0-3.97,4.58-1.22,10.52-2.75,3.97-1.98,7.17-.31,9.46-3.05,2.59-3.51,7.78-1.07,10.07-2.59,3.97-2.59,6.56-2.59,6.56l7.17,3.05s4.42-4.42,1.07-9.76c4.42-2.59,2.29-8.39,1.53-9.46,3.81-2.14,2.59-5.8,1.68-7.47,1.07-.61,1.22-1.07,1.22-1.07,0,0-4.12-8.85-4.42-14.18,6.56-1.22,13.73-11.59,14.49-14.18,3.51,9.3,14.95,14.79,14.95,14.79,0,0-2.29,9.91-3.97,13.57l.61,.76s-1.83,4.42,1.98,7.78c-3.04,5.6,1.12,9.02,1.53,9.3-3.51,6.86,1.83,9.61,1.83,9.61l5.64-1.53s0-5.64-2.14-7.93c3.81-4.88-1.22-9.91-1.98-10.37,3.2-3.05,2.14-7.32,.15-9,3.36-3.97,.3-9.62-1.07-10.68,3.51-9-2.59-23.64-17.39-22.11Z">
</path>
<path d="M47.75,36.17s-1.42,6.82,.9,9.29c-1.65,5.1,.3,8.02,1.27,8.77-2.32,4.65,.15,8.54,1.2,9.44-2.55,4.57,2.47,8.77,2.47,8.77l-4.2,1.12s-4.5-3.6-1.27-9.29c-3.07-3-3.22-7.72-1.2-9.82-3.6-2.4-1.72-7.42-1.72-7.42l-1.42-1.05s3.3-6.6,3.97-9.82Z">
</path>
<path class="cls-3" d="M22.6,35.52s3.39-1.91,6.54-1.79c1.13,1.17,1.64,2.76,1.64,2.76,0,0-1.52,1.21-3.85,1.75s-4.17-1.83-4.32-2.73Z">
</path>
<path class="cls-3" d="M44.59,35.52s-3.39-1.91-6.54-1.79c-1.13,1.17-1.64,2.76-1.64,2.76,0,0,1.52,1.21,3.85,1.75s4.17-1.83,4.32-2.73Z">
</path>
<polygon class="cls-2" points="31.46 45.94 35.83 45.94 36.15 47.22 33.58 48.42 31.18 47.06 31.46 45.94">
</polygon>
<path class="cls-2" d="M25.54,57.39s3.09,2.43,6.17,3.12c3.85,.15,7.52-.73,9.52-2.98,1.02,1.49,1.82,2.36,1.82,2.36,0,0-.98,3.16-6.65,5.41,3.12,1.89,5.38,9.55,5.38,9.55,0,0-11.99,.4-16.34-.65,.69-4.79,3.67-8.14,5.27-8.75-1.02-.54-.98-.65-.98-.65,0,0-4.83-1.2-6.14-4.9,1.38-1.05,1.96-2.51,1.96-2.51Z">
</path>
<path class="cls-4" d="M33.82,74.67v-14.16s-6.37-.22-8.62-3.67c-.3,2.1-1.35,2.92-1.35,2.92,0,0,.75,3.97,6.37,5.25,.37,.67-.6,1.27-.6,1.27,0,0-3.3,3.37-3.97,8.69,5.7,1.65,8.17-.3,8.17-.3Z">
</path>
<path d="M20.47,30.89s-4.09,1.69-5.33,2.04l.52,1.1s-3.98,4.32-.96,10.8c-2.84,3.38-2.81,7.43-.56,9.18-4.59,3.44-2.9,7.34-1.04,10.45-4.17,4.09-1.78,7.28-1.78,7.28l7.02,1.95s3.41-5.34,.37-9.78c4.78-3.55,2.71-8.26,1.53-9.46,3.96-2.53,1.68-7.47,1.68-7.47l1.22-1.07s-3.73-9.09-4.17-13.79c1.24-.62,1.51-1.24,1.51-1.24Z">
</path>
<path class="cls-15" d="M47.75,17.16s2.23,4.84-.97,4.91-6.33-3.13-9.53,2.16c1.94,2.6,7.07,5.51,7.07,5.51,0,0-2.01-5.36,3.05-5.51,2.9,.74,3.5-2.01,3.5-2.01,0,0-1.27-3.8-3.13-5.06Z">
</path>
<path class="cls-2" d="M39.74,53.36l-4.75,5.76s3.53-.73,5.15-2.19c-.2-2.31-.41-3.57-.41-3.57Z">
</path>
<path class="cls-1" d="M33.18,21.08c2.18,3.92,6.16,8.67,13.38,12.12-.79,3.91-4.33,18.73-12.42,18.73h-1.12c-8.28,0-11.77-15.46-12.48-19.09,6.74-3.42,10.53-8,12.65-11.77m0-2.2c-1.74,3.76-5.59,9.47-13.77,13.41,.38,2.26,3.8,20.65,13.6,20.65h1.12c9.41,0,12.94-16.93,13.55-20.31-8.71-3.95-12.73-9.88-14.5-13.75h0Z">
</path>
<path class="cls-2" d="M23.21,38.8s2.11,1.35,3.98,.88,3.75-2.05,3.75-2.05c0,0-.59,2.93-3.81,3.87s-3.93-2.7-3.93-2.7Z">
</path>
<path class="cls-7" d="M55.76,72.05s1.28-5.94-2.87-7.68c2.23-1.78,3.78-7.23-1.11-10.46,2.67-2,3.12-5.67-.22-9.01,3.45-5.9-1-10.57-1-10.57,0,0,4.01-8.01-1.78-15.91-6.9-9.23-15.58-6.79-15.58-6.79h-.03s-8.68-2.45-15.58,6.79c-5.79,7.9-1.78,15.91-1.78,15.91,0,0-4.45,4.67-1,10.57-3.34,3.34-2.89,7.01-.22,9.01-4.9,3.23-3.34,8.68-1.11,10.46-2.89,1.56-2.67,6.68-2.67,6.68">
</path>
<path class="cls-8" d="M49.37,32.82c-10.7-4.3-14.8-11.71-16.19-15.2-1.4,3.49-5.5,10.9-16.2,15.2">
</path>
<path class="cls-7" d="M48.27,32.13s-3.19,21.31-14.14,21.31h-1.12c-10.95,0-14.14-21.31-14.14-21.31">
</path>
<path class="cls-7" d="M23.02,45.96s-.19,.32-1.34,1.15c2.1,2.99,.64,5.99-1.72,7.32,3.18,3.38,1.46,7.51-1.66,9.62,2.99,2.93,1.85,7.58-1.02,9.3">
</path>
<path class="cls-7" d="M43.98,45.96s.19,.32,1.34,1.15c-2.1,2.99-.64,5.99,1.72,7.32-3.18,3.38-1.46,7.51,1.66,9.62-2.99,2.93-1.85,7.58,1.02,9.3">
</path>
<line class="cls-7" x1="12.95" y1="63.74" x2="8.55" y2="65.37">
</line>
<path class="cls-7" d="M26.01,49.95l-.67,6.97c-.14,1.43-1.08,2.65-2.42,3.15l-1.69,.63">
</path>
<line class="cls-7" x1="53.47" y1="63.66" x2="60.51" y2="66.03">
</line>
<path class="cls-7" d="M40.64,50.37l.67,6.55c.14,1.43,1.08,2.65,2.42,3.15l2.14,.79">
</path>
<path class="cls-7" d="M25.58,57.08s3.04,3.34,7.99,3.34,7.68-3.04,7.68-3.04">
</path>
<path class="cls-7" d="M37.03,64.84c4.97-1.26,6.16-4.79,6.16-4.79">
</path>
<path class="cls-7" d="M23.57,60.05s1.06,3.82,6.48,4.93">
</path>
<path class="cls-7" d="M30.82,65.48c-.69-.39-1.11-.97-1.11-1.73,0-1.52,1.7-3.19,3.8-3.19s3.8,1.67,3.8,3.19c0,.73-.39,1.29-1.02,1.68">
</path>
<path class="cls-7" d="M41.77,75.75c-.42-3.88-2.63-8.63-4.63-9.81s-3.42,.2-3.42,.2h-.33s-1.42-1.37-3.42-.2-4.21,5.93-4.63,9.81">
</path>
<path d="M30.25,72.58c.18-2.48,.71-5.43,2.87-6.99,0,0,.59,.81,.59,.81-1.74,1.55-2.8,3.92-3.47,6.19h0Z">
</path>
<path d="M36.59,72.58c-.67-2.27-1.73-4.64-3.47-6.19,0,0,.59-.81,.59-.81,2.16,1.56,2.69,4.52,2.87,6.99h0Z">
</path>
<path d="M30.26,30.63c-2.17-.16-5.47,.67-6.81,1.49-.82,.84-1.63,1.72-2.23,2.76,.32-1.14,.86-2.5,1.54-3.47,2.19-1.6,4.84-2.22,7.5-2.42,0,0,0,1.64,0,1.64h0Z">
</path>
<path d="M36.83,28.99c2.7,.21,5.38,.84,7.59,2.48,.59,1.09,1.15,2.22,1.45,3.41-.6-1.04-1.41-1.92-2.23-2.76l.11,.11c-1.51-.95-3.35-1.36-5.13-1.53-.6-.05-1.23-.08-1.79-.06v-1.64h0Z">
</path>
<path d="M30.49,35.7c-.44-.72-.98-1.35-1.63-1.82,0,0,.17,.06,.17,.06-2.23,.14-4.5,.56-6.11,1.97l.13-.59c.3,.65,.69,1.25,1.2,1.71,1.69,1.6,4.23,.81,6.02-.25-.55,.55-1.19,1.01-1.9,1.38-2.42,1.31-5.21,.06-6.23-2.41,0,0-.17-.34-.17-.34,.99-.91,2.26-1.55,3.55-1.8,1.21-.26,2.43-.26,3.62-.16,.62,.65,1.11,1.42,1.34,2.27h0Z">
</path>
<path d="M36.66,35.7c.23-.84,.72-1.61,1.34-2.27,1.19-.1,2.41-.1,3.62,.16,1.29,.25,2.56,.89,3.55,1.8,0,0-.16,.34-.16,.34-1.02,2.48-3.81,3.72-6.23,2.41-.71-.37-1.36-.82-1.9-1.38,1.8,1.07,4.34,1.85,6.02,.25,.51-.46,.9-1.05,1.2-1.71l.13,.59c-1.6-1.4-3.87-1.82-6.11-1.97l.17-.06c-.65,.47-1.19,1.1-1.63,1.82h0Z">
</path>
<path d="M35.58,40.75c.37,.48,.65,.98,.93,1.5-.91,.21-1.84,.51-2.66,.95,0,0-.23,.13-.23,.13-.89-.52-1.91-.85-2.91-1.08,.67-1.23,1.18-2.16,.75-.1,0,0-.28-.42-.28-.42,.94-.06,1.83,.16,2.67,.58,0,0-.47,0-.47,0,.83-.42,1.72-.64,2.66-.58,0,0-.28,.42-.28,.42-.09-.46-.16-.92-.18-1.41h0Z">
</path>
<path class="cls-17" d="M31.45,46.01s.44,1.57,2.16,1.57,1.99-1.71,1.99-1.71c0,0,1.07,.28,1.84,.78-.95,1.51-1.51,2.46-4.02,2.46s-3.62-2.46-3.62-2.46c0,0,0-.73,1.65-.64Z">
</path>
<path d="M37.44,46.65s-2.09-.61-3.82,.02c-1.73-.63-3.82-.02-3.82-.02,0,0,.33-.78,1.61-1.68,.92-.56,1.72-.44,2.21-.25,.49-.19,1.29-.31,2.21,.25,1.28,.9,1.61,1.68,1.61,1.68Z">
</path>
<path class="cls-17" d="M21.04,47.19c1.69,2.82,1.01,6.4-2.26,7.62,0,0,.15-.73,.15-.73,.61,.6,1.14,1.32,1.46,2.14,.91,2.44,.37,5.38-1.49,7.27,0,0-.01-.68-.01-.68,1.18,.95,1.81,2.5,1.71,3.99-.1,1.39-.55,2.92-1.64,3.83,1.53-2.04,1.58-5.53-.61-7.13,0,0-.39-.31-.39-.31,2.27-2.06,2.59-6.23,.35-8.46,0,0-.44-.48-.44-.48,3.53-1.18,4.29-3.61,3.18-7.04h0Z">
</path>
<path class="cls-12" d="M15.57,36.25c-.73,3.09-.32,6.52,1.74,9-2.87,2.14-3.65,5.04-1.34,7.95,0,0,.62,.73,.62,.73-1.67,1.05-3.07,2.59-3.18,4.66-.22,1.82,.17,4.02,1.39,5.39,0,0-.42,.26-.42,.26-1.17,.69-2.49,1.83-2.27,3.33,0,0-.09,.04-.09,.04-.45-1.59,.87-2.96,2.05-3.81,0,0,0,.1,0,.1-1.2-1.49-1.59-3.5-1.49-5.37,.1-1.92,1.15-3.7,2.71-4.82,0,0-.02,.14-.02,.14-1.69-1.86-2.15-4.85-.69-6.97,.46-.7,1.07-1.29,1.73-1.79l-.02,.1c-1.69-2.5-2.01-6.4-.71-8.93h0Z">
</path>
<path d="M27.9,12.01s6.25-.42,5.21,5.49c-3.19,8.26-9.79,12.22-17.5,15.76-2.78-7.85,1.11-19.31,12.29-21.25Z">
</path>
</g>




 <g
     id="g2850">
    <g
       id="g2837">
      <path
         id="path1951"
         d="M 0.056640625 0.04296875 L 0.056640625 79.943359 L 69.308594 79.943359 L 69.308594 0.04296875 L 0.056640625 0.04296875 z M 33.615234 3.5957031 C 34.206332 3.5957038 34.786991 3.6051034 35.421875 3.6152344 C 44.430653 3.7671809 53.471255 5.1336733 61.560547 7.5546875 L 62.064453 7.7070312 L 62.25 8.1640625 C 66.070247 17.605006 66.990234 28.726438 66.990234 40.0625 C 66.990234 51.398562 65.972723 63.025755 61.988281 72.578125 L 61.791016 73.044922 L 61.275391 73.185547 C 53.273669 75.403966 44.691921 76.529297 35.759766 76.529297 C 35.212453 76.529297 34.675812 76.519896 34.150391 76.509766 L 33.943359 76.509766 C 24.901742 76.357819 15.860367 74.989738 7.7929688 72.558594 L 7.2890625 72.40625 L 7.1035156 71.951172 C 3.2942144 62.520359 2.375 51.369168 2.375 40.0625 C 2.375 28.755832 3.3819737 17.127318 7.3554688 7.5546875 L 7.5527344 7.0898438 L 8.0664062 6.9472656 C 15.509867 4.890923 23.785212 3.7371557 32.005859 3.6054688 C 32.542226 3.5953387 33.078867 3.5957031 33.615234 3.5957031 z "
         style="opacity:1;vector-effect:none;fill:#ffffff;fill-opacity:1;fill-rule:nonzero;stroke:none;stroke-width:1.95200002;stroke-linecap:butt;stroke-linejoin:miter;stroke-miterlimit:4;stroke-dasharray:none;stroke-dashoffset:0;stroke-opacity:1" />
    </g>
    <path
       id="path1154-8-2"
       d="m 33.675163,6.6112954 c 0.557696,0 1.115392,0.00956 1.683415,0.019115 8.427403,0.14336 16.803167,1.4049288 24.363042,3.6700176 3.573384,8.830981 4.443772,19.417362 4.443772,29.761551 0,10.344189 -0.95301,21.39888 -4.68131,30.334991 -7.435942,2.064385 -15.429581,3.274388 -23.774362,3.274388 -0.506058,0 -1.012115,-0.0096 -1.518172,-0.01911 h -0.17557 C 25.56792,73.508883 17.192156,72.088619 9.6426089,69.813973 6.0795528,61.002107 5.2088244,50.415411 5.2088244,40.061979 c 0,-10.353432 0.95335,-21.389323 4.6609939,-30.325434 C 16.820359,7.8155201 24.462856,6.7450981 32.177647,6.6208528 c 0.49573,-0.00956 1.001787,-0.00956 1.497516,-0.00956 m 0,-0.9557337 c -0.506057,0 -1.012114,0 -1.518171,0.00956 C 24.40089,5.7893644 16.593149,6.8789009 9.570315,8.8190405 L 9.0849131,8.9528432 8.8990146,9.3924808 C 5.1500599,18.424166 4.1999116,29.394246 4.1999116,40.061979 c 0,10.667733 0.8675267,21.188618 4.461566,30.0865 l 0.1755708,0.430081 0.4750741,0.14336 c 7.6115135,2.293761 16.1421925,3.584001 24.6728715,3.727361 h 0.196227 c 0.495729,0.0096 1.001786,0.01911 1.518171,0.01911 8.427403,0 16.524318,-1.060864 24.073866,-3.153921 l 0.485403,-0.133802 0.185898,-0.439639 c 3.759282,-9.01257 4.719759,-19.983589 4.719759,-30.679055 0,-10.695466 -0.867528,-21.188618 -4.471894,-30.0960578 L 60.516853,9.5358409 60.041779,9.3924808 C 52.409609,7.108277 43.87893,5.8180364 35.379234,5.6746763 34.780227,5.6651187 34.232859,5.6555621 33.675163,5.6555615 Z"
       style="fill:#ff0000;stroke:#ffffff;stroke-width:1.84341729;stroke-miterlimit:4;stroke-dasharray:none" />
    <path
       id="path1154"
       d="m 33.614853,4.6077955 c 0.591098,0 1.182197,0.01013 1.784241,0.02026 8.932155,0.1519464 17.809578,1.4890758 25.822246,3.8898304 3.787408,9.3599041 4.709928,20.5803481 4.709928,31.5440931 0,10.963745 -1.01009,22.680548 -4.961693,32.151879 -7.881312,2.18803 -16.353723,3.302304 -25.198307,3.302304 -0.536368,0 -1.072735,-0.01013 -1.609102,-0.02026 H 33.97608 C 25.022033,75.343956 16.14461,74.006827 8.1428892,71.595943 4.3664269,62.256298 3.443547,51.035521 3.443547,40.061979 c 0,-10.973542 1.01045,-22.670418 4.9401601,-32.1417498 7.3668369,-2.036083 15.4670749,-3.170617 23.6439369,-3.3023039 0.525421,-0.01013 1.061788,-0.01013 1.587209,-0.01013 m 0,-1.0129766 c -0.536367,0 -1.072734,0 -1.609101,0.01013 C 23.785105,3.7366356 15.509726,4.891429 8.0662653,6.9477716 L 7.5517907,7.0895883 7.3547579,7.5555576 C 3.3812628,17.128188 2.3742062,28.755311 2.3742062,40.061979 c 0,11.306668 0.9194864,22.457692 4.7287876,31.888505 l 0.1860865,0.45584 0.5035283,0.151947 c 8.0673984,2.431144 17.1090154,3.798662 26.1506324,3.950608 h 0.207979 c 0.525421,0.01013 1.061788,0.02026 1.609101,0.02026 8.932155,0 17.514028,-1.124404 25.51575,-3.342823 l 0.514475,-0.141816 0.197032,-0.46597 c 3.984442,-9.55237 5.002445,-21.180489 5.002445,-32.516551 0,-11.336062 -0.919487,-22.457692 -4.739734,-31.8986353 L 62.064202,7.7075041 61.560674,7.5555576 C 53.471382,5.1345434 44.429765,3.7670249 35.420987,3.6150784 c -0.634884,-0.01013 -1.215036,-0.020259 -1.806134,-0.02026 z"
       style="fill:#000000;stroke:#000000;stroke-width:1.95382714;stroke-miterlimit:4;stroke-dasharray:none" />
    <g
       id="g1810">
      <path
         d="M 6.5134911,7.7433673 C 5.6489029,6.8479453 4.058602,6.5681013 3.6272194,7.3820013 3.284151,8.0292783 3.3625296,8.5309135 4.395235,8.9201755 3.2963719,9.5187755 1.4857674,9.4447465 1.1893447,7.4467713 0.95320848,5.8551433 2.674739,4.8863543 3.1399725,5.0916244 3.0034432,3.6818714 1.8221094,4.0692802 0.95849208,3.2813384 0.34259068,2.7194046 0.23126071,-0.02624603 0.0561761,0.04378767 -0.0138576,0.21887227 2.7317937,0.33020157 3.2937267,0.94610377 4.0816685,1.8097211 3.6942598,2.9910547 5.1040128,3.1275841 4.8987425,2.6623507 5.8675315,0.94082017 7.4591593,1.1769564 9.4571345,1.4733791 9.5311625,3.2839847 8.9325635,4.3828467 8.5433008,3.3501417 8.041666,3.2717627 7.3943894,3.6148312 6.5804899,4.0462137 6.8603354,5.6365129 7.7557553,6.5011023"
         style="fill:#000000;stroke:#000000;stroke-width:0.1112323px;stroke-linecap:butt;stroke-linejoin:miter;stroke-opacity:1"
         id="path1737-3" />
      <path
         d="m 62.850738,7.7433673 c 0.864588,-0.895422 2.454889,-1.175266 2.886271,-0.361366 0.343069,0.647277 0.26469,1.148912 -0.768015,1.538174 1.098863,0.5986 2.909467,0.524571 3.20589,-1.473404 0.236136,-1.591628 -1.485394,-2.560417 -1.950628,-2.3551469 0.13653,-1.409753 1.317863,-1.0223442 2.181481,-1.810286 0.615901,-0.5619338 0.727231,-3.30758442 0.902316,-3.23755072 0.07003,0.1750846 -2.675618,0.2864139 -3.237551,0.9023161 C 65.28256,1.8097211 65.669969,2.9910547 64.260216,3.1275841 64.465486,2.6623507 63.496697,0.94082018 61.905069,1.1769564 c -1.997975,0.2964227 -2.072003,2.1070283 -1.473404,3.2058903 0.389263,-1.032705 0.890898,-1.111084 1.538174,-0.7680155 0.8139,0.4313825 0.534054,2.0216817 -0.361366,2.8862711"
         style="fill:#000000;stroke:#000000;stroke-width:0.1112323px;stroke-linecap:butt;stroke-linejoin:miter;stroke-opacity:1"
         id="path1737-3-5" />
      <path
         d="m 62.850738,72.244244 c 0.864588,0.895422 2.454889,1.175266 2.886272,0.361366 0.343068,-0.647277 0.264689,-1.148912 -0.768016,-1.538174 1.098863,-0.5986 2.909468,-0.524571 3.20589,1.473404 0.236137,1.591628 -1.485394,2.560417 -1.950628,2.355147 0.13653,1.409753 1.317864,1.022344 2.181481,1.810286 0.615901,0.561934 0.727231,3.307584 0.902316,3.237551 0.07003,-0.175085 -2.675618,-0.286414 -3.237551,-0.902317 -0.787942,-0.863617 -0.400533,-2.04495 -1.810286,-2.18148 0.20527,0.465234 -0.763519,2.186764 -2.355146,1.950628 -1.997976,-0.296423 -2.072004,-2.107028 -1.473405,-3.20589 0.389263,1.032705 0.890898,1.111084 1.538175,0.768015 0.813899,-0.431382 0.534054,-2.021682 -0.361366,-2.886271"
         style="fill:#000000;stroke:#000000;stroke-width:0.1112323px;stroke-linecap:butt;stroke-linejoin:miter;stroke-opacity:1"
         id="path1737-3-7" />
      <path
         d="M 6.513491,72.244245 C 5.648903,73.139667 4.058602,73.419511 3.62722,72.605611 3.284151,71.958334 3.36253,71.456699 4.395235,71.067437 c -1.098863,-0.5986 -2.909467,-0.524571 -3.20589,1.473404 -0.23613599,1.591628 1.485394,2.560417 1.950628,2.355147 -0.13653,1.409753 -1.317863,1.022344 -2.18148099,1.810286 -0.615901,0.561933 -0.727231,3.307584 -0.902316,3.23755 C -0.01385399,79.76874 2.731794,79.65741 3.293727,79.041508 4.081669,78.177891 3.69426,76.996557 5.104013,76.860028 4.898743,77.325261 5.867532,79.046792 7.45916,78.810656 9.457135,78.514233 9.531163,76.703627 8.932564,75.604765 8.543301,76.63747 8.041666,76.715849 7.39439,76.372781 6.58049,75.941398 6.860336,74.351099 7.755756,73.48651"
         style="fill:#000000;stroke:#000000;stroke-width:0.1112323px;stroke-linecap:butt;stroke-linejoin:miter;stroke-opacity:1"
         id="path1737-3-5-5" />
    </g>
    <path
       id="path1154-9"
       d="m 33.712865,7.4258691 c 0.536813,0 1.07363,0.00933 1.620386,0.01865 8.111875,0.1398689 16.174044,1.3707167 23.450873,3.5806479 3.439594,8.615932 4.277395,18.944521 4.277395,29.036812 0,10.092292 -0.917329,20.877786 -4.506039,29.596289 -7.157536,2.014114 -14.851888,3.03982 -22.884234,3.03982 -0.487111,0 -0.974221,-0.0094 -1.461331,-0.01865 H 34.040918 C 25.909161,72.53957 17.846991,71.308722 10.580105,69.089467 7.1504515,60.492184 6.3123238,50.163289 6.3123238,40.061979 c 0,-10.101311 0.9176558,-20.868461 4.4864832,-29.586965 6.690308,-1.8742449 14.046665,-2.9186005 21.472608,-3.0398203 0.47717,-0.00933 0.964281,-0.00933 1.44145,-0.00933 m 0,-0.9324602 c -0.487111,0 -0.974221,0 -1.46133,0.00933 C 24.785826,6.6239532 17.270413,7.686958 10.510517,9.5798526 L 10.043289,9.710397 9.8643508,10.139328 c -3.6085914,8.811751 -4.5231655,19.514693 -4.5231655,29.922651 0,10.407958 0.8350459,20.672644 4.294522,29.353849 l 0.1689973,0.419608 0.4572874,0.13987 c 7.326533,2.237904 15.537818,3.496724 23.749103,3.636593 h 0.188879 c 0.47717,0.0094 0.96428,0.01865 1.461331,0.01865 8.111875,0 15.905636,-1.035031 23.172525,-3.077119 l 0.467228,-0.130544 0.178938,-0.428932 c 3.618533,-8.793101 4.543048,-19.496959 4.543048,-29.931975 0,-10.435016 -0.835047,-20.672644 -4.304463,-29.363174 l -0.168997,-0.419609 -0.457288,-0.13987 C 51.74588,7.9107484 43.534594,6.6519271 35.353133,6.512058 34.776554,6.502738 34.249678,6.493409 33.712865,6.493409 Z"
       style="fill:#000000;stroke:none;stroke-width:1.78642213;stroke-miterlimit:4;stroke-dasharray:none" />
    <path
       id="path1154-9-3"
       d="m 33.712865,7.4258686 c 0.536813,0 1.07363,0.00933 1.620386,0.01865 8.111875,0.1398689 16.174044,1.3707167 23.450873,3.5806484 3.439594,8.615932 4.277395,18.944521 4.277395,29.036812 0,10.092292 -0.917329,20.877786 -4.506039,29.596288 -7.157536,2.014114 -14.851888,3.03982 -22.884234,3.03982 -0.487111,0 -0.974221,-0.0094 -1.461331,-0.01865 H 34.040918 C 25.909161,72.539569 17.846991,71.308722 10.580105,69.089466 7.1504515,60.492184 6.3123238,50.163288 6.3123238,40.061979 c 0,-10.101312 0.9176558,-20.868461 4.4864832,-29.586965 6.690308,-1.8742454 14.046665,-2.918601 21.472608,-3.0398208 0.47717,-0.00933 0.964281,-0.00933 1.44145,-0.00933 m 0,-0.9324602 c -0.487111,0 -0.974221,0 -1.46133,0.00933 C 24.785826,6.6239527 17.270413,7.6869575 10.510517,9.5798521 L 10.043289,9.7103965 9.8643508,10.139328 C 6.2557594,18.951079 5.3411853,29.65402 5.3411853,40.061979 c 0,10.407958 0.8350459,20.672643 4.294522,29.353849 l 0.1689973,0.419608 0.4572874,0.13987 c 7.326533,2.237904 15.537818,3.496724 23.749103,3.636593 h 0.188879 c 0.47717,0.0094 0.96428,0.01865 1.461331,0.01865 8.111875,0 15.905636,-1.035032 23.172525,-3.077119 l 0.467228,-0.130544 0.178938,-0.428932 c 3.618533,-8.793101 4.543048,-19.49696 4.543048,-29.931975 0,-10.435016 -0.835047,-20.672644 -4.304463,-29.363175 l -0.168997,-0.419609 -0.457288,-0.13987 C 51.74588,7.9107479 43.534594,6.6519266 35.353133,6.5120575 34.776554,6.5027375 34.249678,6.4934085 33.712865,6.4934085 Z"
       style="fill:#000000;stroke:none;stroke-width:1.78642213;stroke-miterlimit:4;stroke-dasharray:none" />
  </g>
</svg>
