<svg id="Capa_2" xmlns="http://www.w3.org/2000/svg" xmlns:xlink="http://www.w3.org/1999/xlink" viewBox="0 0 69.02 80">
<defs >
<style >
.cls-1{fill:#c89aed;}.cls-2{fill:#fff;}.cls-3{fill:#f8ffbf;}.cls-4{fill:#7b7be8;}.cls-5{fill:#a88347;}.cls-6{fill:#782ab5;}.cls-7,.cls-8{stroke:#000;stroke-miterlimit:10;}.cls-7,.cls-8,.cls-9,.cls-10,.cls-11{fill:none;}.cls-8,.cls-9{stroke-linecap:round;}.cls-12{fill:#1c46ff;}.cls-9{stroke:#deb778;stroke-dasharray:0 0 0 4.06;stroke-linejoin:round;}.cls-13{fill:#deb778;}.cls-14{fill:url(#USGS_19_Inundación_de_tierra_2);}.cls-11{stroke:#1d1d1b;stroke-dasharray:0 0 2 2;stroke-width:.3px;}.cls-15{fill:#cf5f2b;}.cls-16{fill:#fcf0c5;}.cls-17{fill:#b83521;}
</style>
<pattern id="USGS_19_Inundación_de_tierra_2" x="0" y="0" width="72" height="72" patternTransform="translate(-20.48 -16999) rotate(-90)" patternUnits="userSpaceOnUse" viewBox="0 0 72 72">
<g >
<rect class="cls-10" width="72" height="72">
</rect>
<g >
<line class="cls-11" x1="71" y1="71" x2="144.44" y2="71">
</line>
<line class="cls-11" x1="71" y1="67" x2="144.44" y2="67">
</line>
<line class="cls-11" x1="71" y1="63" x2="144.44" y2="63">
</line>
<line class="cls-11" x1="71" y1="59" x2="144.44" y2="59">
</line>
<line class="cls-11" x1="71" y1="55" x2="144.44" y2="55">
</line>
<line class="cls-11" x1="71" y1="51" x2="144.44" y2="51">
</line>
<line class="cls-11" x1="71" y1="47" x2="144.44" y2="47">
</line>
<line class="cls-11" x1="71" y1="43" x2="144.44" y2="43">
</line>
<line class="cls-11" x1="71" y1="39" x2="144.44" y2="39">
</line>
<line class="cls-11" x1="71" y1="35" x2="144.44" y2="35">
</line>
<line class="cls-11" x1="71" y1="31" x2="144.44" y2="31">
</line>
<line class="cls-11" x1="71" y1="27" x2="144.44" y2="27">
</line>
<line class="cls-11" x1="71" y1="23" x2="144.44" y2="23">
</line>
<line class="cls-11" x1="71" y1="19" x2="144.44" y2="19">
</line>
<line class="cls-11" x1="71" y1="15" x2="144.44" y2="15">
</line>
<line class="cls-11" x1="71" y1="11" x2="144.44" y2="11">
</line>
<line class="cls-11" x1="71" y1="7" x2="144.44" y2="7">
</line>
<line class="cls-11" x1="71" y1="3" x2="144.44" y2="3">
</line>
</g>


<g >
<line class="cls-11" x1="-1" y1="71" x2="72.44" y2="71">
</line>
<line class="cls-11" x1="-1" y1="67" x2="72.44" y2="67">
</line>
<line class="cls-11" x1="-1" y1="63" x2="72.44" y2="63">
</line>
<line class="cls-11" x1="-1" y1="59" x2="72.44" y2="59">
</line>
<line class="cls-11" x1="-1" y1="55" x2="72.44" y2="55">
</line>
<line class="cls-11" x1="-1" y1="51" x2="72.44" y2="51">
</line>
<line class="cls-11" x1="-1" y1="47" x2="72.44" y2="47">
</line>
<line class="cls-11" x1="-1" y1="43" x2="72.44" y2="43">
</line>
<line class="cls-11" x1="-1" y1="39" x2="72.44" y2="39">
</line>
<line class="cls-11" x1="-1" y1="35" x2="72.44" y2="35">
</line>
<line class="cls-11" x1="-1" y1="31" x2="72.44" y2="31">
</line>
<line class="cls-11" x1="-1" y1="27" x2="72.44" y2="27">
</line>
<line class="cls-11" x1="-1" y1="23" x2="72.44" y2="23">
</line>
<line class="cls-11" x1="-1" y1="19" x2="72.44" y2="19">
</line>
<line class="cls-11" x1="-1" y1="15" x2="72.44" y2="15">
</line>
<line class="cls-11" x1="-1" y1="11" x2="72.44" y2="11">
</line>
<line class="cls-11" x1="-1" y1="7" x2="72.44" y2="7">
</line>
<line class="cls-11" x1="-1" y1="3" x2="72.44" y2="3">
</line>
<line class="cls-11" x1="1.04" y1="69" x2="74.48" y2="69">
</line>
<line class="cls-11" x1="1.04" y1="65" x2="74.48" y2="65">
</line>
<line class="cls-11" x1="1.04" y1="61" x2="74.48" y2="61">
</line>
<line class="cls-11" x1="1.04" y1="57" x2="74.48" y2="57">
</line>
<line class="cls-11" x1="1.04" y1="53" x2="74.48" y2="53">
</line>
<line class="cls-11" x1="1.04" y1="49" x2="74.48" y2="49">
</line>
<line class="cls-11" x1="1.04" y1="45" x2="74.48" y2="45">
</line>
<line class="cls-11" x1="1.04" y1="41" x2="74.48" y2="41">
</line>
<line class="cls-11" x1="1.04" y1="37" x2="74.48" y2="37">
</line>
<line class="cls-11" x1="1.04" y1="33" x2="74.48" y2="33">
</line>
<line class="cls-11" x1="1.04" y1="29" x2="74.48" y2="29">
</line>
<line class="cls-11" x1="1.04" y1="25" x2="74.48" y2="25">
</line>
<line class="cls-11" x1="1.04" y1="21" x2="74.48" y2="21">
</line>
<line class="cls-11" x1="1.04" y1="17" x2="74.48" y2="17">
</line>
<line class="cls-11" x1="1.04" y1="13" x2="74.48" y2="13">
</line>
<line class="cls-11" x1="1.04" y1="9" x2="74.48" y2="9">
</line>
<line class="cls-11" x1="1.04" y1="5" x2="74.48" y2="5">
</line>
<line class="cls-11" x1="1.04" y1="1" x2="74.48" y2="1">
</line>
</g>


<g >
<line class="cls-11" x1="-73" y1="71" x2=".44" y2="71">
</line>
<line class="cls-11" x1="-73" y1="67" x2=".44" y2="67">
</line>
<line class="cls-11" x1="-73" y1="63" x2=".44" y2="63">
</line>
<line class="cls-11" x1="-73" y1="59" x2=".44" y2="59">
</line>
<line class="cls-11" x1="-73" y1="55" x2=".44" y2="55">
</line>
<line class="cls-11" x1="-73" y1="51" x2=".44" y2="51">
</line>
<line class="cls-11" x1="-73" y1="47" x2=".44" y2="47">
</line>
<line class="cls-11" x1="-73" y1="43" x2=".44" y2="43">
</line>
<line class="cls-11" x1="-73" y1="39" x2=".44" y2="39">
</line>
<line class="cls-11" x1="-73" y1="35" x2=".44" y2="35">
</line>
<line class="cls-11" x1="-73" y1="31" x2=".44" y2="31">
</line>
<line class="cls-11" x1="-73" y1="27" x2=".44" y2="27">
</line>
<line class="cls-11" x1="-73" y1="23" x2=".44" y2="23">
</line>
<line class="cls-11" x1="-73" y1="19" x2=".44" y2="19">
</line>
<line class="cls-11" x1="-73" y1="15" x2=".44" y2="15">
</line>
<line class="cls-11" x1="-73" y1="11" x2=".44" y2="11">
</line>
<line class="cls-11" x1="-73" y1="7" x2=".44" y2="7">
</line>
<line class="cls-11" x1="-73" y1="3" x2=".44" y2="3">
</line>
<line class="cls-11" x1="-70.96" y1="69" x2="2.48" y2="69">
</line>
<line class="cls-11" x1="-70.96" y1="65" x2="2.48" y2="65">
</line>
<line class="cls-11" x1="-70.96" y1="61" x2="2.48" y2="61">
</line>
<line class="cls-11" x1="-70.96" y1="57" x2="2.48" y2="57">
</line>
<line class="cls-11" x1="-70.96" y1="53" x2="2.48" y2="53">
</line>
<line class="cls-11" x1="-70.96" y1="49" x2="2.48" y2="49">
</line>
<line class="cls-11" x1="-70.96" y1="45" x2="2.48" y2="45">
</line>
<line class="cls-11" x1="-70.96" y1="41" x2="2.48" y2="41">
</line>
<line class="cls-11" x1="-70.96" y1="37" x2="2.48" y2="37">
</line>
<line class="cls-11" x1="-70.96" y1="33" x2="2.48" y2="33">
</line>
<line class="cls-11" x1="-70.96" y1="29" x2="2.48" y2="29">
</line>
<line class="cls-11" x1="-70.96" y1="25" x2="2.48" y2="25">
</line>
<line class="cls-11" x1="-70.96" y1="21" x2="2.48" y2="21">
</line>
<line class="cls-11" x1="-70.96" y1="17" x2="2.48" y2="17">
</line>
<line class="cls-11" x1="-70.96" y1="13" x2="2.48" y2="13">
</line>
<line class="cls-11" x1="-70.96" y1="9" x2="2.48" y2="9">
</line>
<line class="cls-11" x1="-70.96" y1="5" x2="2.48" y2="5">
</line>
<line class="cls-11" x1="-70.96" y1="1" x2="2.48" y2="1">
</line>
</g>


</g>


</pattern>
</defs>
  <path
     style="opacity:1;vector-effect:none;fill:#cccccc;fill-opacity:1;fill-rule:nonzero;stroke:none;stroke-width:4.49546146;stroke-linecap:butt;stroke-linejoin:miter;stroke-miterlimit:4;stroke-dasharray:none;stroke-dashoffset:0;stroke-opacity:1"
     d="M -0.08007812,0.36132812 V 80.361328 H 68.919922 V 0.36132812 Z"
     id="rect4304"/>



<g >
<path class="cls-1" d="M7.94,65.76l15.91-6.01s1.56-1.34,1.56-3.78,.45-6.12,.45-6.12c0,0-3.45-5.01-5.56-10.79s-2.23-12.13-2.23-12.13l13.02-11.57,6.01-.89,11.46,17.47s-2.34,13.13-8.23,18.8c.56,4.56,1.11,7.45,1.11,7.45,0,0,1.34,1.56,4.9,2.89s15.24,5.56,15.24,5.56l-2.11,8.12-24.92,2-26.03-5.12-.56-5.9Z">
</path>
<path class="cls-4" d="M30.94,36.55l-.74-6.6s-5.52,.99-7,1.82c-1.38,1.92-1.97,2.86-1.97,2.86,0,0,1.72,2.17,2.32,2.71s5.72,.39,7.39-.79Z">
</path>
<path class="cls-2" d="M33.38,52.97V29.12c0-3.18,3.87-4.8,6.1-2.53s5.19,4.54,8.67,5.76c-2.22,12.71-5.52,16.35-7.83,18.39s-5.1,3.2-6.94,2.23Z">
</path>
<path class="cls-4" d="M36.42,36.49l.54-6.54s5.52,.99,7,1.82c1.38,1.92,1.87,2.96,1.87,2.96,0,0-1.62,2.07-2.21,2.61s-5.51,.33-7.19-.85Z">
</path>
<path class="cls-5" d="M25.38,57.37s4.08,2.93,8.05,2.82c4.49,0,7.84-2.4,7.84-2.4,0,0,1.05,1.99,2.4,2.3s16.86,5.91,17.89,6.56c-1.9,6.92-2.11,8.12-2.11,8.12,0,0-17.66,3.4-27.48,2.88s-22.47-5.33-22.47-5.33l-1.67-7.11s12.86-4.08,14.74-4.81,2.4-2.09,2.82-3.03Z">
</path>
<path d="M40.44,51.41l-18.78,22.59-11.18-3.37-1.51-5.43,14.89-5.45s1.33-1.59,1.56-3.78,.56-5.66,.56-5.66c0,0,3.55,3.13,6.26,3.13s6.09-.59,8.21-2.03Z">
</path>
<path class="cls-17" d="M33.35,11.76s-10.98-2.9-17.23,8.69c-3.97,8.39-.46,13.57-.46,13.57,0,0-3.97,4.58-1.22,10.52-2.75,3.97-1.98,7.17-.31,9.46-3.05,2.59-3.51,7.78-1.07,10.07-2.59,3.97-2.59,6.56-2.59,6.56l7.17,3.05s4.42-4.42,1.07-9.76c4.42-2.59,2.29-8.39,1.53-9.46,3.81-2.14,2.59-5.8,1.68-7.47,1.07-.61,1.22-1.07,1.22-1.07,0,0-4.12-8.85-4.42-14.18,6.56-1.22,13.73-11.59,14.49-14.18,3.51,9.3,14.95,14.79,14.95,14.79,0,0-2.29,9.91-3.97,13.57l.61,.76s-1.83,4.42,1.98,7.78c-3.04,5.6,1.12,9.02,1.53,9.3-3.51,6.86,1.83,9.61,1.83,9.61l5.64-1.53s0-5.64-2.14-7.93c3.81-4.88-1.22-9.91-1.98-10.37,3.2-3.05,2.14-7.32,.15-9,3.36-3.97,.3-9.62-1.07-10.68,3.51-9-2.59-23.64-17.39-22.11Z">
</path>
<path d="M47.75,36.17s-1.42,6.82,.9,9.29c-1.65,5.1,.3,8.02,1.27,8.77-2.32,4.65,.15,8.54,1.2,9.44-2.55,4.57,2.47,8.77,2.47,8.77l-4.2,1.12s-4.5-3.6-1.27-9.29c-3.07-3-3.22-7.72-1.2-9.82-3.6-2.4-1.72-7.42-1.72-7.42l-1.42-1.05s3.3-6.6,3.97-9.82Z">
</path>
<path class="cls-3" d="M22.6,35.52s3.39-1.91,6.54-1.79c1.13,1.17,1.64,2.76,1.64,2.76,0,0-1.52,1.21-3.85,1.75s-4.17-1.83-4.32-2.73Z">
</path>
<path class="cls-3" d="M44.59,35.52s-3.39-1.91-6.54-1.79c-1.13,1.17-1.64,2.76-1.64,2.76,0,0,1.52,1.21,3.85,1.75s4.17-1.83,4.32-2.73Z">
</path>
<polygon class="cls-2" points="31.46 45.94 35.83 45.94 36.15 47.22 33.58 48.42 31.18 47.06 31.46 45.94">
</polygon>
<path class="cls-2" d="M25.54,57.39s3.09,2.43,6.17,3.12c3.85,.15,7.52-.73,9.52-2.98,1.02,1.49,1.82,2.36,1.82,2.36,0,0-.98,3.16-6.65,5.41,3.12,1.89,5.38,9.55,5.38,9.55,0,0-11.99,.4-16.34-.65,.69-4.79,3.67-8.14,5.27-8.75-1.02-.54-.98-.65-.98-.65,0,0-4.83-1.2-6.14-4.9,1.38-1.05,1.96-2.51,1.96-2.51Z">
</path>
<path class="cls-4" d="M33.82,74.67v-14.16s-6.37-.22-8.62-3.67c-.3,2.1-1.35,2.92-1.35,2.92,0,0,.75,3.97,6.37,5.25,.37,.67-.6,1.27-.6,1.27,0,0-3.3,3.37-3.97,8.69,5.7,1.65,8.17-.3,8.17-.3Z">
</path>
<path d="M20.47,30.89s-4.09,1.69-5.33,2.04l.52,1.1s-3.98,4.32-.96,10.8c-2.84,3.38-2.81,7.43-.56,9.18-4.59,3.44-2.9,7.34-1.04,10.45-4.17,4.09-1.78,7.28-1.78,7.28l7.02,1.95s3.41-5.34,.37-9.78c4.78-3.55,2.71-8.26,1.53-9.46,3.96-2.53,1.68-7.47,1.68-7.47l1.22-1.07s-3.73-9.09-4.17-13.79c1.24-.62,1.51-1.24,1.51-1.24Z">
</path>
<path class="cls-15" d="M47.75,17.16s2.23,4.84-.97,4.91-6.33-3.13-9.53,2.16c1.94,2.6,7.07,5.51,7.07,5.51,0,0-2.01-5.36,3.05-5.51,2.9,.74,3.5-2.01,3.5-2.01,0,0-1.27-3.8-3.13-5.06Z">
</path>
<path class="cls-2" d="M39.74,53.36l-4.75,5.76s3.53-.73,5.15-2.19c-.2-2.31-.41-3.57-.41-3.57Z">
</path>
<path class="cls-1" d="M33.18,21.08c2.18,3.92,6.16,8.67,13.38,12.12-.79,3.91-4.33,18.73-12.42,18.73h-1.12c-8.28,0-11.77-15.46-12.48-19.09,6.74-3.42,10.53-8,12.65-11.77m0-2.2c-1.74,3.76-5.59,9.47-13.77,13.41,.38,2.26,3.8,20.65,13.6,20.65h1.12c9.41,0,12.94-16.93,13.55-20.31-8.71-3.95-12.73-9.88-14.5-13.75h0Z">
</path>
<path class="cls-2" d="M23.21,38.8s2.11,1.35,3.98,.88,3.75-2.05,3.75-2.05c0,0-.59,2.93-3.81,3.87s-3.93-2.7-3.93-2.7Z">
</path>
<path class="cls-7" d="M55.76,72.05s1.28-5.94-2.87-7.68c2.23-1.78,3.78-7.23-1.11-10.46,2.67-2,3.12-5.67-.22-9.01,3.45-5.9-1-10.57-1-10.57,0,0,4.01-8.01-1.78-15.91-6.9-9.23-15.58-6.79-15.58-6.79h-.03s-8.68-2.45-15.58,6.79c-5.79,7.9-1.78,15.91-1.78,15.91,0,0-4.45,4.67-1,10.57-3.34,3.34-2.89,7.01-.22,9.01-4.9,3.23-3.34,8.68-1.11,10.46-2.89,1.56-2.67,6.68-2.67,6.68">
</path>
<path class="cls-8" d="M49.37,32.82c-10.7-4.3-14.8-11.71-16.19-15.2-1.4,3.49-5.5,10.9-16.2,15.2">
</path>
<path class="cls-7" d="M48.27,32.13s-3.19,21.31-14.14,21.31h-1.12c-10.95,0-14.14-21.31-14.14-21.31">
</path>
<path class="cls-7" d="M23.02,45.96s-.19,.32-1.34,1.15c2.1,2.99,.64,5.99-1.72,7.32,3.18,3.38,1.46,7.51-1.66,9.62,2.99,2.93,1.85,7.58-1.02,9.3">
</path>
<path class="cls-7" d="M43.98,45.96s.19,.32,1.34,1.15c-2.1,2.99-.64,5.99,1.72,7.32-3.18,3.38-1.46,7.51,1.66,9.62-2.99,2.93-1.85,7.58,1.02,9.3">
</path>
<line class="cls-7" x1="12.95" y1="63.74" x2="8.55" y2="65.37">
</line>
<path class="cls-7" d="M26.01,49.95l-.67,6.97c-.14,1.43-1.08,2.65-2.42,3.15l-1.69,.63">
</path>
<line class="cls-7" x1="53.47" y1="63.66" x2="60.51" y2="66.03">
</line>
<path class="cls-7" d="M40.64,50.37l.67,6.55c.14,1.43,1.08,2.65,2.42,3.15l2.14,.79">
</path>
<path class="cls-7" d="M25.58,57.08s3.04,3.34,7.99,3.34,7.68-3.04,7.68-3.04">
</path>
<path class="cls-7" d="M37.03,64.84c4.97-1.26,6.16-4.79,6.16-4.79">
</path>
<path class="cls-7" d="M23.57,60.05s1.06,3.82,6.48,4.93">
</path>
<path class="cls-7" d="M30.82,65.48c-.69-.39-1.11-.97-1.11-1.73,0-1.52,1.7-3.19,3.8-3.19s3.8,1.67,3.8,3.19c0,.73-.39,1.29-1.02,1.68">
</path>
<path class="cls-7" d="M41.77,75.75c-.42-3.88-2.63-8.63-4.63-9.81s-3.42,.2-3.42,.2h-.33s-1.42-1.37-3.42-.2-4.21,5.93-4.63,9.81">
</path>
<path d="M30.25,72.58c.18-2.48,.71-5.43,2.87-6.99,0,0,.59,.81,.59,.81-1.74,1.55-2.8,3.92-3.47,6.19h0Z">
</path>
<path d="M36.59,72.58c-.67-2.27-1.73-4.64-3.47-6.19,0,0,.59-.81,.59-.81,2.16,1.56,2.69,4.52,2.87,6.99h0Z">
</path>
<path d="M30.26,30.63c-2.17-.16-5.47,.67-6.81,1.49-.82,.84-1.63,1.72-2.23,2.76,.32-1.14,.86-2.5,1.54-3.47,2.19-1.6,4.84-2.22,7.5-2.42,0,0,0,1.64,0,1.64h0Z">
</path>
<path d="M36.83,28.99c2.7,.21,5.38,.84,7.59,2.48,.59,1.09,1.15,2.22,1.45,3.41-.6-1.04-1.41-1.92-2.23-2.76l.11,.11c-1.51-.95-3.35-1.36-5.13-1.53-.6-.05-1.23-.08-1.79-.06v-1.64h0Z">
</path>
<path d="M30.49,35.7c-.44-.72-.98-1.35-1.63-1.82,0,0,.17,.06,.17,.06-2.23,.14-4.5,.56-6.11,1.97l.13-.59c.3,.65,.69,1.25,1.2,1.71,1.69,1.6,4.23,.81,6.02-.25-.55,.55-1.19,1.01-1.9,1.38-2.42,1.31-5.21,.06-6.23-2.41,0,0-.17-.34-.17-.34,.99-.91,2.26-1.55,3.55-1.8,1.21-.26,2.43-.26,3.62-.16,.62,.65,1.11,1.42,1.34,2.27h0Z">
</path>
<path d="M36.66,35.7c.23-.84,.72-1.61,1.34-2.27,1.19-.1,2.41-.1,3.62,.16,1.29,.25,2.56,.89,3.55,1.8,0,0-.16,.34-.16,.34-1.02,2.48-3.81,3.72-6.23,2.41-.71-.37-1.36-.82-1.9-1.38,1.8,1.07,4.34,1.85,6.02,.25,.51-.46,.9-1.05,1.2-1.71l.13,.59c-1.6-1.4-3.87-1.82-6.11-1.97l.17-.06c-.65,.47-1.19,1.1-1.63,1.82h0Z">
</path>
<path d="M35.58,40.75c.37,.48,.65,.98,.93,1.5-.91,.21-1.84,.51-2.66,.95,0,0-.23,.13-.23,.13-.89-.52-1.91-.85-2.91-1.08,.67-1.23,1.18-2.16,.75-.1,0,0-.28-.42-.28-.42,.94-.06,1.83,.16,2.67,.58,0,0-.47,0-.47,0,.83-.42,1.72-.64,2.66-.58,0,0-.28,.42-.28,.42-.09-.46-.16-.92-.18-1.41h0Z">
</path>
<path class="cls-17" d="M31.45,46.01s.44,1.57,2.16,1.57,1.99-1.71,1.99-1.71c0,0,1.07,.28,1.84,.78-.95,1.51-1.51,2.46-4.02,2.46s-3.62-2.46-3.62-2.46c0,0,0-.73,1.65-.64Z">
</path>
<path d="M37.44,46.65s-2.09-.61-3.82,.02c-1.73-.63-3.82-.02-3.82-.02,0,0,.33-.78,1.61-1.68,.92-.56,1.72-.44,2.21-.25,.49-.19,1.29-.31,2.21,.25,1.28,.9,1.61,1.68,1.61,1.68Z">
</path>
<path class="cls-17" d="M21.04,47.19c1.69,2.82,1.01,6.4-2.26,7.62,0,0,.15-.73,.15-.73,.61,.6,1.14,1.32,1.46,2.14,.91,2.44,.37,5.38-1.49,7.27,0,0-.01-.68-.01-.68,1.18,.95,1.81,2.5,1.71,3.99-.1,1.39-.55,2.92-1.64,3.83,1.53-2.04,1.58-5.53-.61-7.13,0,0-.39-.31-.39-.31,2.27-2.06,2.59-6.23,.35-8.46,0,0-.44-.48-.44-.48,3.53-1.18,4.29-3.61,3.18-7.04h0Z">
</path>
<path class="cls-12" d="M15.57,36.25c-.73,3.09-.32,6.52,1.74,9-2.87,2.14-3.65,5.04-1.34,7.95,0,0,.62,.73,.62,.73-1.67,1.05-3.07,2.59-3.18,4.66-.22,1.82,.17,4.02,1.39,5.39,0,0-.42,.26-.42,.26-1.17,.69-2.49,1.83-2.27,3.33,0,0-.09,.04-.09,.04-.45-1.59,.87-2.96,2.05-3.81,0,0,0,.1,0,.1-1.2-1.49-1.59-3.5-1.49-5.37,.1-1.92,1.15-3.7,2.71-4.82,0,0-.02,.14-.02,.14-1.69-1.86-2.15-4.85-.69-6.97,.46-.7,1.07-1.29,1.73-1.79l-.02,.1c-1.69-2.5-2.01-6.4-.71-8.93h0Z">
</path>
<path d="M27.9,12.01s6.25-.42,5.21,5.49c-3.19,8.26-9.79,12.22-17.5,15.76-2.78-7.85,1.11-19.31,12.29-21.25Z">
</path>
</g>





  <path
     style="opacity:1;vector-effect:none;fill:#8d5fd3;fill-opacity:1;fill-rule:nonzero;stroke:none;stroke-width:2.35769176;stroke-linecap:butt;stroke-linejoin:miter;stroke-miterlimit:4;stroke-dasharray:none;stroke-dashoffset:0;stroke-opacity:0.44186048"
     d="M 0,1.2e-7 V 80 H 69 V 1.2e-7 Z M 35.240234,4.658203 c 6.067554,0.1120422 16.269844,1.4698438 23.589844,3.8398438 3.46,9.2400002 5.269531,19.9506252 5.269531,31.1406252 0,11.47 -1.89,22.390234 -5.5,31.740234 -7.2,2.16 -14.940375,3.376539 -23.019531,3.259766 -8.580486,-0.124019 -18.036001,-1.572896 -25.240234,-3.86914 -3.4500003,-9.22 -5.2597659,-19.930859 -5.2597659,-31.130859 0,-11.2 1.8904687,-22.380469 5.4804689,-31.730469 C 17.682894,5.1336941 29.17268,4.5461608 35.240234,4.658203 Z"
     id="rect4304" />


</svg>
