<?xml version="1.0" encoding="UTF-8"?><svg id="Capa_2" xmlns="http://www.w3.org/2000/svg" xmlns:xlink="http://www.w3.org/1999/xlink" viewBox="0 0 69.02 80"><defs><style>.cls-1{fill:#c89aed;}.cls-2{fill:#fff;}.cls-3{fill:#f8ffbf;}.cls-4{fill:#7b7be8;}.cls-5,.cls-6,.cls-7{stroke:#000;}.cls-5,.cls-6,.cls-7,.cls-8,.cls-9,.cls-10{fill:none;}.cls-5,.cls-7,.cls-8{stroke-linejoin:round;}.cls-11{fill:#a88347;}.cls-12{fill:#782ab5;}.cls-6{stroke-miterlimit:10;}.cls-13{fill:#1c46ff;}.cls-7,.cls-8{stroke-linecap:round;}.cls-8{stroke:#deb778;stroke-dasharray:0 0 0 4.06;}.cls-14{fill:#deb778;}.cls-15{fill:url(#USGS_19_Inundación_de_tierra_2);}.cls-10{stroke:#1d1d1b;stroke-dasharray:0 0 2 2;stroke-width:.3px;}.cls-16{fill:#ccbc64;}.cls-17{fill:#fcf0c5;}.cls-18{fill:#b83521;}</style><pattern id="USGS_19_Inundación_de_tierra_2" x="0" y="0" width="72" height="72" patternTransform="translate(-92.48 -16999) rotate(-90)" patternUnits="userSpaceOnUse" viewBox="0 0 72 72"><g><rect class="cls-9" width="72" height="72"/><g><line class="cls-10" x1="71" y1="71" x2="144.44" y2="71"/><line class="cls-10" x1="71" y1="67" x2="144.44" y2="67"/><line class="cls-10" x1="71" y1="63" x2="144.44" y2="63"/><line class="cls-10" x1="71" y1="59" x2="144.44" y2="59"/><line class="cls-10" x1="71" y1="55" x2="144.44" y2="55"/><line class="cls-10" x1="71" y1="51" x2="144.44" y2="51"/><line class="cls-10" x1="71" y1="47" x2="144.44" y2="47"/><line class="cls-10" x1="71" y1="43" x2="144.44" y2="43"/><line class="cls-10" x1="71" y1="39" x2="144.44" y2="39"/><line class="cls-10" x1="71" y1="35" x2="144.44" y2="35"/><line class="cls-10" x1="71" y1="31" x2="144.44" y2="31"/><line class="cls-10" x1="71" y1="27" x2="144.44" y2="27"/><line class="cls-10" x1="71" y1="23" x2="144.44" y2="23"/><line class="cls-10" x1="71" y1="19" x2="144.44" y2="19"/><line class="cls-10" x1="71" y1="15" x2="144.44" y2="15"/><line class="cls-10" x1="71" y1="11" x2="144.44" y2="11"/><line class="cls-10" x1="71" y1="7" x2="144.44" y2="7"/><line class="cls-10" x1="71" y1="3" x2="144.44" y2="3"/></g>
<g><line class="cls-10" x1="-1" y1="71" x2="72.44" y2="71"/><line class="cls-10" x1="-1" y1="67" x2="72.44" y2="67"/><line class="cls-10" x1="-1" y1="63" x2="72.44" y2="63"/><line class="cls-10" x1="-1" y1="59" x2="72.44" y2="59"/><line class="cls-10" x1="-1" y1="55" x2="72.44" y2="55"/><line class="cls-10" x1="-1" y1="51" x2="72.44" y2="51"/><line class="cls-10" x1="-1" y1="47" x2="72.44" y2="47"/><line class="cls-10" x1="-1" y1="43" x2="72.44" y2="43"/><line class="cls-10" x1="-1" y1="39" x2="72.44" y2="39"/><line class="cls-10" x1="-1" y1="35" x2="72.44" y2="35"/><line class="cls-10" x1="-1" y1="31" x2="72.44" y2="31"/><line class="cls-10" x1="-1" y1="27" x2="72.44" y2="27"/><line class="cls-10" x1="-1" y1="23" x2="72.44" y2="23"/><line class="cls-10" x1="-1" y1="19" x2="72.44" y2="19"/><line class="cls-10" x1="-1" y1="15" x2="72.44" y2="15"/><line class="cls-10" x1="-1" y1="11" x2="72.44" y2="11"/><line class="cls-10" x1="-1" y1="7" x2="72.44" y2="7"/><line class="cls-10" x1="-1" y1="3" x2="72.44" y2="3"/><line class="cls-10" x1="1.04" y1="69" x2="74.48" y2="69"/><line class="cls-10" x1="1.04" y1="65" x2="74.48" y2="65"/><line class="cls-10" x1="1.04" y1="61" x2="74.48" y2="61"/><line class="cls-10" x1="1.04" y1="57" x2="74.48" y2="57"/><line class="cls-10" x1="1.04" y1="53" x2="74.48" y2="53"/><line class="cls-10" x1="1.04" y1="49" x2="74.48" y2="49"/><line class="cls-10" x1="1.04" y1="45" x2="74.48" y2="45"/><line class="cls-10" x1="1.04" y1="41" x2="74.48" y2="41"/><line class="cls-10" x1="1.04" y1="37" x2="74.48" y2="37"/><line class="cls-10" x1="1.04" y1="33" x2="74.48" y2="33"/><line class="cls-10" x1="1.04" y1="29" x2="74.48" y2="29"/><line class="cls-10" x1="1.04" y1="25" x2="74.48" y2="25"/><line class="cls-10" x1="1.04" y1="21" x2="74.48" y2="21"/><line class="cls-10" x1="1.04" y1="17" x2="74.48" y2="17"/><line class="cls-10" x1="1.04" y1="13" x2="74.48" y2="13"/><line class="cls-10" x1="1.04" y1="9" x2="74.48" y2="9"/><line class="cls-10" x1="1.04" y1="5" x2="74.48" y2="5"/><line class="cls-10" x1="1.04" y1="1" x2="74.48" y2="1"/></g>
<g><line class="cls-10" x1="-73" y1="71" x2=".44" y2="71"/><line class="cls-10" x1="-73" y1="67" x2=".44" y2="67"/><line class="cls-10" x1="-73" y1="63" x2=".44" y2="63"/><line class="cls-10" x1="-73" y1="59" x2=".44" y2="59"/><line class="cls-10" x1="-73" y1="55" x2=".44" y2="55"/><line class="cls-10" x1="-73" y1="51" x2=".44" y2="51"/><line class="cls-10" x1="-73" y1="47" x2=".44" y2="47"/><line class="cls-10" x1="-73" y1="43" x2=".44" y2="43"/><line class="cls-10" x1="-73" y1="39" x2=".44" y2="39"/><line class="cls-10" x1="-73" y1="35" x2=".44" y2="35"/><line class="cls-10" x1="-73" y1="31" x2=".44" y2="31"/><line class="cls-10" x1="-73" y1="27" x2=".44" y2="27"/><line class="cls-10" x1="-73" y1="23" x2=".44" y2="23"/><line class="cls-10" x1="-73" y1="19" x2=".44" y2="19"/><line class="cls-10" x1="-73" y1="15" x2=".44" y2="15"/><line class="cls-10" x1="-73" y1="11" x2=".44" y2="11"/><line class="cls-10" x1="-73" y1="7" x2=".44" y2="7"/><line class="cls-10" x1="-73" y1="3" x2=".44" y2="3"/><line class="cls-10" x1="-70.96" y1="69" x2="2.48" y2="69"/><line class="cls-10" x1="-70.96" y1="65" x2="2.48" y2="65"/><line class="cls-10" x1="-70.96" y1="61" x2="2.48" y2="61"/><line class="cls-10" x1="-70.96" y1="57" x2="2.48" y2="57"/><line class="cls-10" x1="-70.96" y1="53" x2="2.48" y2="53"/><line class="cls-10" x1="-70.96" y1="49" x2="2.48" y2="49"/><line class="cls-10" x1="-70.96" y1="45" x2="2.48" y2="45"/><line class="cls-10" x1="-70.96" y1="41" x2="2.48" y2="41"/><line class="cls-10" x1="-70.96" y1="37" x2="2.48" y2="37"/><line class="cls-10" x1="-70.96" y1="33" x2="2.48" y2="33"/><line class="cls-10" x1="-70.96" y1="29" x2="2.48" y2="29"/><line class="cls-10" x1="-70.96" y1="25" x2="2.48" y2="25"/><line class="cls-10" x1="-70.96" y1="21" x2="2.48" y2="21"/><line class="cls-10" x1="-70.96" y1="17" x2="2.48" y2="17"/><line class="cls-10" x1="-70.96" y1="13" x2="2.48" y2="13"/><line class="cls-10" x1="-70.96" y1="9" x2="2.48" y2="9"/><line class="cls-10" x1="-70.96" y1="5" x2="2.48" y2="5"/><line class="cls-10" x1="-70.96" y1="1" x2="2.48" y2="1"/></g>
</g>
</pattern></defs><g id="Frame"><path class="cls-12" d="M64.02,40c0,11.47-1.89,22.39-5.5,31.74-7.2,2.16-14.94,3.26-23.02,3.26-.49,0-.98-.01-1.47-.02h-.17c-8.18-.15-16.29-1.47-23.6-3.85-3.45-9.22-5.26-19.93-5.26-31.13s1.89-22.38,5.48-31.73c6.73-2.01,14.13-3.13,21.6-3.26,.48-.01,.97-.01,1.45-.01,.54,0,1.08,.01,1.63,.02,8.16,.15,16.27,1.47,23.59,3.84,3.46,9.24,5.27,19.95,5.27,31.14Z"/><path class="cls-15" d="M34.03,5.59V74.98h-.17c-8.18-.15-16.29-1.47-23.6-3.85-3.45-9.22-5.26-19.93-5.26-31.13s1.89-22.38,5.48-31.73c6.73-2.01,14.13-3.13,21.6-3.26,.65,.16,1.3,.36,1.95,.58Z"/></g>
<g><path class="cls-1" d="M61.58,64l-3.22,9.57s-9.57,2.9-22.79,3.76c-13.21,.86-25.47-3.87-25.47-3.87l-2.79-9.24s.97-.22,5.7-1.83c-2.54-2.79-3.08-6.77-2.98-9.45,.02-.73,.09-1.36,.18-1.84,.43-2.25,5.38-24.93,10.75-34.06,5.91-9.35,13.43-7.2,13.43-7.2,9.46-1.4,12.36,4.94,15.48,11.82,3.11,6.88,6.55,21.71,8.38,28.16,1.78,6.27-2.25,12.36-2.46,12.67h-.01s5.8,1.51,5.8,1.51Z"/><path d="M26.85,55.55s1.84,2.61,7.21,2.35,8.12-2.5,8.12-2.5c0,0,.27,3.37,1.87,4.69,6.43,1.04,15.5,3.31,16.54,4.06-1.51,6.71-2.46,10.3-2.46,10.3,0,0-37.34,5.86-49.54-2.84-.76-6.24,0-7.47,0-7.47,0,0,9.46-3.56,16.93-4.12,.85-2.08,1.32-4.48,1.32-4.48Z"/><path class="cls-11" d="M55.79,62.49h-.01c-3.76,4.57-4.16,7.18-.94,11.01-6.54,2.11-9.15,1.2-9.15,1.2,0,0-3.83-5.03-.81-9.96-1.91-2.61-1.01-4.22-.2-6.94,.8-2.72,.77-4.44-.07-7.15-9.69-2.11-20.95,.16-20.95,.16,0,0-1.32,2.16-.11,5.18,1.21,3.02,2.21,7.54-.3,8.95,2.21,3.73,.8,8.15-.1,9.26-.91,1.11-8.35-1.61-8.35-1.61,0,0,2.31-3.32,.7-5.94-1.61-2.61-5.13-8.55-5.43-12.57-.02-.31-.04-.69-.04-1.14,.02-.73,.09-1.36,.18-1.84,.43-2.25,5.38-24.93,10.75-34.06,5.91-9.35,13.43-7.2,13.43-7.2,9.46-1.4,12.36,4.94,15.48,11.82,3.11,6.88,6.55,21.71,8.38,28.16,1.78,6.27-2.25,12.36-2.46,12.67Z"/><path class="cls-1" d="M19.33,37.75s.07,8.33,2.15,10.76,4.65,3.61,4.65,3.61l.21,2.57s2.22,3.19,7.71,3.19,8.12-2.5,8.12-2.5l.14-3.12s3.61-1.53,4.79-4.1,2.57-8.47,2.22-11.04c-1.67-2.5-2.43-4.72-2.78-5.69s-5.14-7.99-12.57-6.74-10.42,4.17-11.87,7.36-1.94,5.21-2.78,5.69Z"/><path class="cls-2" d="M34.37,32.65v19.21c0,1.55,1.26,2.81,2.81,2.81h0s9.41-3.87,10.55-7.65c1.41-5.71,1.6-9.9,1.6-9.9,0,0-2.13-2.5-2.57-5.4-.18-1.19-1.18-2.61-2.76-3.86-3.9-3.06-9.63-.19-9.63,4.77Z"/><path class="cls-4" d="M31.1,36.94l.58-5.44-6.73-.27-2.94,1.56s-.62,2.09,.62,4.14c2.85-2.05,3.79-2.18,4.77-2.23s3.7,2.23,3.7,2.23Z"/><path class="cls-3" d="M31.1,36.94s-1.44-2.29-4.42-2.13-4.17,2.33-4.17,2.33c0,0,2.6,1.95,7.2,1.35,1.08-.16,1.39-1.55,1.39-1.55Z"/><path class="cls-4" d="M37.8,36.94l-.58-5.44,6.73-.27,2.94,1.56s.62,2.09-.62,4.14c-2.85-2.05-3.79-2.18-4.77-2.23s-3.7,2.23-3.7,2.23Z"/><path class="cls-3" d="M37.8,36.94s1.44-2.29,4.42-2.13,4.17,2.33,4.17,2.33c0,0-2.6,1.95-7.2,1.35-1.08-.16-1.39-1.55-1.39-1.55Z"/><path d="M23.66,50.81l2.08,1s1.58,6.65-.67,8.4c-1.83-4.66-2.25-7.48-1.41-9.4Z"/><path d="M42.45,51.9s-1.25,6.9,1.25,8.4c2.16-5.9,1.5-8.4,.91-9.65-1,.75-2.16,1.25-2.16,1.25Z"/><path class="cls-16" d="M41.95,10.81s5.62,7.81-2.41,8.03c-4.02,.69,1.49,5.39-2.75,6.31,6.08,1.38,7.46,3.56,7.46,3.56,0,0-2.75-7.23,1.49-6.54,3.85,.62,3.46-5.35-1.94-9.98-.56-.48-1.17-.95-1.84-1.39Z"/><path d="M12.51,41.96s.87,3.15,2.17,4.89,2.17,3.69,1.41,5.97-1.09,3.8,.87,4.89,3.47,2.06,3.47,3.58-1.09,2.39-2.93,1.85c1.85,3.26,4.67,2.93,5.97,2.28,1.74,3.47,.75,7.36-.33,8.78-6.08-1.51-7.92-2.05-7.92-2.05,0,0,2.5-4.67-.54-7.82-3.15-3.15-5.51-7.03-4.65-11.39s2.48-10.98,2.48-10.98Z"/><path class="cls-13" d="M42.12,55.77s-4.92,4.66-13.61,1.22c5.94,4.3,13.1,3.35,13.61-1.22Z"/><path class="cls-13" d="M43.22,64.83s-8.62,4.52-18-.67c5.11,5.11,12.48,4.44,18,.67Z"/><path class="cls-1" d="M34.48,26.3c7.81,0,10.71,4.96,11.12,6.7,.38,1.63,1.03,3,2.15,4.53,.03,1.72-.18,6.81-1.77,9.66-1.13,2.01-4.7,3.83-7.88,5.46-.41,.2-.81,.41-1.2,.61h-5.26c-.23-.12-.47-.24-.7-.36l-.45-.23-.09-.05c-3.14-1.61-6.69-3.43-7.82-5.43-1.7-3.02-1.78-7.81-1.77-9.12,1.03-1.31,2.03-2.84,2.55-5.05,.41-1.74,3.34-6.7,11.13-6.7m0-1c-8.44,0-11.64,5.53-12.1,7.47-.47,2.01-1.36,3.44-2.58,4.94,0,.03,.01,.05,.01,.07,0,.06-.22,6.15,1.89,9.89,1.29,2.29,5.03,4.19,8.33,5.88,.47,.24,.93,.47,1.37,.7h5.75c.45-.24,.92-.48,1.4-.72,3.29-1.68,7.02-3.58,8.3-5.86,2.08-3.72,1.9-10.33,1.89-10.49-1-1.32-1.75-2.63-2.17-4.41-.45-1.94-3.65-7.47-12.09-7.47h0Z"/><path class="cls-2" d="M23.5,39.94c1.13,.39,3.04,.7,5.91,.13,.5-.1,.81,.52,.44,.87-3.14,3-5.05,3.06-6.95-.26-.23-.41,.15-.9,.59-.74Z"/><path d="M52.74,53.26s1.5,6.48,5.53,2.59c-1.09,6.76-5.19,9.01-5.39,11.74s1.64,5.05,1.64,5.05l-9.21,1.84s-3.28-6.14,.07-9.49c4.64,1.16,5.53-1.02,5.8-1.98-2.46,.48-3.69-1.5-2.46-2.93,2.93-.61,5.39-3.69,4.03-6.83Z"/><path d="M24.77,12.69s3.17-2.69,5.58-.58-.29,6.64-.29,6.64c0,0-8.18,1.54-14.14,10.97,3.08-8.75,6.06-14.43,8.85-17.03Z"/><path class="cls-18" d="M29.63,48.16s.6,2.99,4.53,2.99,4.76-3.14,4.76-3.14c0,0-6.25-2.39-9.29,.15Z"/><path class="cls-2" d="M31.81,47.69s.62,1.3,2.44,1.3,2.48-1.18,2.48-1.18c0,0-1.26-.98-2.67-.85s-2.24,.73-2.24,.73Z"/><path class="cls-5" d="M53.72,72.43c-4.61-7.01,6.18-9.13,4.52-21.41s-8.21-32.94-13.38-37.83-10.52-3.41-10.52-3.41c0,0-5.35-1.48-10.52,3.41s-11.72,25.56-13.38,37.83c-1.66,12.27,9.13,14.39,4.52,21.41"/><path class="cls-5" d="M44.79,50.96c1.97,3.17-1.97,9.08-.98,12.03s6.34,4.05,7.55-.22c-3.61,1.64-3.5-2.19-2.19-3.06s4.81-2.19,3.72-5.69-.11-4.48,2.08-8.97c2.19-4.48-1.03-14.01-5.25-18.92-7.71-8.98-15.32-7.88-15.32-7.88h-.14s-7.61-1.1-15.32,7.88c-4.22,4.91-7.44,14.43-5.25,18.92s3.17,5.47,2.08,8.97,2.41,4.81,3.72,5.69,1.42,4.7-2.19,3.06c1.2,4.26,6.56,3.17,7.55,.22s-2.95-8.86-.98-12.03"/><path class="cls-5" d="M23.3,64.93s3.06,4.8-.73,9.59"/><path class="cls-5" d="M45.02,64.93s-3.06,4.8,.73,9.59"/><path class="cls-7" d="M51.1,45.7s1.98-4.19-.08-6.56-3.36-3.89-3.97-6.48-4.27-7.85-12.58-7.85c-8.31,0-11.97,5.26-12.58,7.85s-1.91,4.12-3.97,6.48-.08,6.56-.08,6.56"/><path class="cls-7" d="M19.31,37.76s-.25,6.24,1.95,10.15c1.57,2.79,6.42,4.96,10.02,6.84h5.99c3.59-1.88,8.45-4.05,10.02-6.84,2.19-3.91,1.95-10.76,1.95-10.76"/><line class="cls-7" x1="34.25" y1="18.26" x2="34.25" y2="24.8"/><path d="M21.61,32.25c1.16-.76,2.25-1.61,3.72-1.76,2.18-.03,4.31,.14,6.47,.35,0,0-.19,1.48-.19,1.48-1.66-.25-3.35-.46-5.02-.58-1.61-.32-3.06,.45-4.4,1.33,0,0-.57-.82-.57-.82h0Z"/><path d="M46.79,33.07c-.95-.57-2.08-1.32-3.17-1.4-2.08,.08-4.19,.34-6.25,.65,0,0-.19-1.48-.19-1.48,1.72-.17,3.42-.3,5.15-.35,1.91-.26,3.58,.69,5.04,1.76,0,0-.57,.82-.57,.82h0Z"/><path d="M31.11,37.1c-2.74-2.94-4.67-2.5-7.66-.26-.48,.34-1.35,.46-1.8-.05,0,0,.76-.6,.76-.6,1.53,2.28,4.82,2.59,7.42,2.31-2.72,1-6.42,.88-8.25-1.8-.3-.51,.33-.97,.76-.6,.08,.05,.09,.06,.19,.06,1.38-.55,2.5-1.82,4.14-1.91,1.96-.19,3.6,1.26,4.44,2.86h0Z"/><path d="M37.64,37.1c2.11-3.71,5.03-3.47,8.14-1.13,.34,.17,.46,.27,.75,.05,.42-.27,.93,.27,.65,.67-.9,1.39-2.45,2.08-3.91,2.29-1.49,.22-2.99,.01-4.34-.49,1.43,.16,2.86,.11,4.2-.23,1.32-.34,2.56-1.02,3.22-2.09l.76,.6c-.25,.25-.67,.4-1.02,.35-.78-.15-1.32-.67-1.92-1.05-2.26-1.85-4.74-1.07-6.53,1.01h0Z"/><path d="M21.52,40.87c.51,1.47,1.24,2.89,2.24,4.09,0,0-.07,.07-.07,.07-1.85-.27-2.98-2.43-2.26-4.13,0,0,.1-.03,.1-.03h0Z"/><path d="M47.28,40.89c-.42,1.53-1.17,2.98-2.26,4.13,0,0-.07-.07-.07-.07,.04-1.73,.78-3.15,2.24-4.09,0,0,.1,.03,.1,.03h0Z"/><path d="M36.05,40.35l.95,1.42c.04,.05,.03,.12,0,.17-.34,.47-.77,.82-1.23,1.15-.52,.28-1.15,.84-1.75,.79-1.02-.44-1.99-1.02-2.68-1.92-.05-.05-.06-.13-.02-.19,0,0,.95-1.42,.95-1.42l-.63,1.58-.02-.19c.74,.64,1.74,.99,2.69,1.18,0,0-.29,0-.29,0,.95-.19,1.95-.55,2.69-1.18,0,0-.02,.19-.02,.19l-.63-1.58h0Z"/><path d="M39.12,47.92s-.36,1-2.93,0c-.66-.26-1.35-.4-2-.46-.65,.06-1.33,.2-2,.46-2.57,1-2.92,0-2.92,0,0,0,.5-.11,1.07-1.1,.47-.82,1.96-1.99,3.86-1.54,1.9-.45,3.39,.73,3.85,1.54,.57,.99,1.07,1.1,1.07,1.1Z"/><path class="cls-7" d="M25.87,52.03s1.33,6.31-.85,8.43"/><path class="cls-7" d="M42.62,52.03s-1.33,6.31,.85,8.43"/><path class="cls-7" d="M26.37,54.72s1.58,3.15,7.88,3.15,7.93-2.72,7.93-2.72"/><path class="cls-7" d="M24.14,64.27s1.84,4.56,9.9,4.56c8.77,0,10.29-4.51,10.29-4.51"/><line class="cls-7" x1="12.91" y1="62.56" x2="7.89" y2="63.97"/><line class="cls-7" x1="55.98" y1="62.51" x2="61.2" y2="64.28"/><path class="cls-16" d="M12.03,45.79c-.28,4.64-.61,9.29,.66,13.79,.1,.68,.42,1.26,.57,1.97l-.08,.05c-2.89-4.58-3.02-11.03-1.15-15.81h0Z"/></g>
<g id="BG"><path class="cls-11" d="M62.56,4.88C54.4,1.94,45.12,.2,35.25,.02c-.57-.01-1.15-.02-1.72-.02C23.88,0,14.77,1.52,6.72,4.21,2.49,14.22,0,26.6,0,40s2.39,25.22,6.45,35.11c8.16,2.94,17.45,4.69,27.32,4.87,.58,.01,1.15,.02,1.73,.02,9.63,0,18.73-1.51,26.78-4.2,4.24-10.01,6.74-22.39,6.74-35.8s-2.4-25.24-6.46-35.12Zm-4.04,66.86c-7.2,2.16-14.94,3.26-23.02,3.26-.49,0-.98-.01-1.47-.02h-.17c-8.18-.15-16.29-1.47-23.6-3.85-3.45-9.22-5.26-19.93-5.26-31.13s1.89-22.38,5.48-31.73c6.73-2.01,14.13-3.13,21.6-3.26,.48-.01,.97-.01,1.45-.01,.54,0,1.08,.01,1.63,.02,8.16,.15,16.27,1.47,23.59,3.84,3.46,9.24,5.27,19.95,5.27,31.14s-1.89,22.39-5.5,31.74Z"/><path class="cls-14" d="M17.21,2.06h0c1.63,.63,2.06,2.75,.81,3.97l-1.26,1.22s8.35-2.37,18.84-1.69h0c-1-1.49-.45-3.52,1.14-4.34l1-.51S28.26-.43,17.21,2.06Z"/><path class="cls-17" d="M21.81,1.66s.7,2.18-.22,3.1c3.77-.41,7.98-.74,11.12-.74-.33-1.33,1.26-3.4,1.26-3.4,0,0-6.17-.26-12.16,1.03Z"/><path class="cls-14" d="M36.25,79.21h0c-1.52-.87-1.62-3.03-.2-4.04l1.43-1.02s-8.61,1.07-18.88-1.19h0c.76,1.63-.09,3.55-1.79,4.11l-1.07,.36s9.19,2.56,20.5,1.78Z"/><path class="cls-17" d="M19.28,77.8s1.76-1.83,1.3-3.09c4.43,.69,9.11,1.14,12.25,1.14-.33,1.33,.44,3.4,.44,3.4,0,0-8-.16-13.99-1.45Z"/><polygon points="47.48 1.77 47.48 6.73 54.49 8.44 54.49 2.62 47.48 1.77"/><line class="cls-6" x1="45.5" y1="1.23" x2="45.5" y2="6.29"/><line class="cls-6" x1="56.47" y1="3.67" x2="56.47" y2="8.73"/><polygon points="47.48 78.74 47.48 73.78 54.49 72.07 54.49 77.88 47.48 78.74"/><line class="cls-6" x1="45.5" y1="79.28" x2="45.5" y2="74.21"/><line class="cls-6" x1="56.47" y1="76.84" x2="56.47" y2="71.77"/><path d="M33.53,1c.56,0,1.14,0,1.7,.02,9.39,.17,18.33,1.74,26.57,4.65,4.07,10.08,6.22,21.94,6.22,34.33s-2.24,24.79-6.49,34.99c-8.12,2.66-16.87,4.01-26.03,4.01-.56,0-1.12,0-1.71-.02-9.25-.17-18.42-1.78-26.58-4.66C3.15,64.25,1,52.39,1,40S3.23,15.21,7.47,5.02C15.6,2.35,24.37,1,33.53,1M33.53,0C23.88,0,14.77,1.52,6.72,4.21,2.49,14.22,0,26.6,0,40s2.39,25.22,6.45,35.11c8.16,2.94,17.45,4.69,27.32,4.87,.58,.01,1.15,.02,1.73,.02,9.63,0,18.73-1.51,26.78-4.2,4.24-10.01,6.74-22.39,6.74-35.8s-2.4-25.24-6.46-35.12C54.4,1.94,45.12,.2,35.25,.02,34.68,.01,34.1,0,33.53,0h0Z"/><path class="cls-14" d="M33.53,6c.52,0,1.04,0,1.61,.02,7.87,.14,15.75,1.4,22.84,3.64,3.3,9,5.04,19.47,5.04,30.34s-1.82,21.82-5.26,30.92c-6.98,2.04-14.47,3.08-22.26,3.08-.48,0-.97,0-1.47-.02h-.15c-7.89-.14-15.78-1.41-22.85-3.65-3.29-8.99-5.03-19.46-5.03-30.33s1.81-21.79,5.24-30.91c6.5-1.89,13.7-2.95,20.86-3.08,.47,0,.96,0,1.43,0m0-1c-.48,0-.97,0-1.45,.01-7.47,.13-14.87,1.25-21.6,3.26-3.59,9.35-5.48,20.26-5.48,31.73s1.81,21.91,5.26,31.13c7.31,2.38,15.42,3.7,23.6,3.85h.17c.49,.01,.98,.02,1.47,.02,8.08,0,15.82-1.1,23.02-3.26,3.61-9.35,5.5-20.27,5.5-31.74s-1.81-21.9-5.27-31.14c-7.32-2.37-15.43-3.69-23.59-3.84-.55,0-1.09-.02-1.63-.02h0Z"/><path class="cls-8" d="M8.14,7.1s-12.66,32.94,0,66.06"/><path class="cls-8" d="M60.88,7.58s12.66,32.94,0,66.06"/>
<path d="M33.53,5c.54,0,1.08,.01,1.63,.02,8.16,.15,16.27,1.47,23.59,3.84,3.46,9.24,5.27,19.95,5.27,31.14s-1.89,22.39-5.5,31.74c-7.2,2.16-14.94,3.26-23.02,3.26-.49,0-.98-.01-1.47-.02h-.17c-8.18-.15-16.29-1.47-23.6-3.85-3.45-9.22-5.26-19.93-5.26-31.13s1.89-22.38,5.48-31.73c6.73-2.01,14.13-3.13,21.6-3.26,.48-.01,.97-.01,1.45-.01m0-1c-.49,0-.98,0-1.47,.01-7.51,.13-15.07,1.27-21.87,3.3l-.47,.14-.18,.46c-3.63,9.45-5.55,20.55-5.55,32.09s1.84,22.17,5.32,31.48l.17,.45,.46,.15c7.37,2.4,15.63,3.75,23.89,3.9h.19c.48,.01,.97,.02,1.47,.02,8.16,0,16-1.11,23.31-3.3l.47-.14,.18-.46c3.64-9.43,5.57-20.53,5.57-32.1s-1.84-22.17-5.33-31.49l-.17-.45-.46-.15c-7.39-2.39-15.65-3.74-23.88-3.89-.58-.01-1.11-.02-1.65-.02h0Z"/></g>
</svg>