<?xml version="1.0" encoding="UTF-8"?><svg id="Capa_2" xmlns="http://www.w3.org/2000/svg" xmlns:xlink="http://www.w3.org/1999/xlink" viewBox="0 0 69.02 80"><defs><style>.cls-1{fill:#c89aed;}.cls-2{fill:#fff;}.cls-3{fill:#f8ffbf;}.cls-4{fill:#7b7be8;}.cls-5{fill:#a88347;}.cls-6{fill:#782ab5;}.cls-7{stroke-miterlimit:10;}.cls-7,.cls-8{stroke:#000;}.cls-7,.cls-8,.cls-9,.cls-10,.cls-11{fill:none;}.cls-8,.cls-9{stroke-linecap:round;stroke-linejoin:round;}.cls-9{stroke:#deb778;stroke-dasharray:0 0 0 4.06;}.cls-12{fill:#deb778;}.cls-13{fill:url(#USGS_19_Inundación_de_tierra_2);}.cls-11{stroke:#1d1d1b;stroke-dasharray:0 0 2 2;stroke-width:.3px;}.cls-14{fill:#cf5f2b;}.cls-15{fill:#fcf0c5;}.cls-16{fill:#b83521;}</style><pattern id="USGS_19_Inundación_de_tierra_2" x="0" y="0" width="72" height="72" patternTransform="translate(-164.48 -16999) rotate(-90)" patternUnits="userSpaceOnUse" viewBox="0 0 72 72"><g><rect class="cls-10" width="72" height="72"/><g><line class="cls-11" x1="71" y1="71" x2="144.44" y2="71"/><line class="cls-11" x1="71" y1="67" x2="144.44" y2="67"/><line class="cls-11" x1="71" y1="63" x2="144.44" y2="63"/><line class="cls-11" x1="71" y1="59" x2="144.44" y2="59"/><line class="cls-11" x1="71" y1="55" x2="144.44" y2="55"/><line class="cls-11" x1="71" y1="51" x2="144.44" y2="51"/><line class="cls-11" x1="71" y1="47" x2="144.44" y2="47"/><line class="cls-11" x1="71" y1="43" x2="144.44" y2="43"/><line class="cls-11" x1="71" y1="39" x2="144.44" y2="39"/><line class="cls-11" x1="71" y1="35" x2="144.44" y2="35"/><line class="cls-11" x1="71" y1="31" x2="144.44" y2="31"/><line class="cls-11" x1="71" y1="27" x2="144.44" y2="27"/><line class="cls-11" x1="71" y1="23" x2="144.44" y2="23"/><line class="cls-11" x1="71" y1="19" x2="144.44" y2="19"/><line class="cls-11" x1="71" y1="15" x2="144.44" y2="15"/><line class="cls-11" x1="71" y1="11" x2="144.44" y2="11"/><line class="cls-11" x1="71" y1="7" x2="144.44" y2="7"/><line class="cls-11" x1="71" y1="3" x2="144.44" y2="3"/></g>
<g><line class="cls-11" x1="-1" y1="71" x2="72.44" y2="71"/><line class="cls-11" x1="-1" y1="67" x2="72.44" y2="67"/><line class="cls-11" x1="-1" y1="63" x2="72.44" y2="63"/><line class="cls-11" x1="-1" y1="59" x2="72.44" y2="59"/><line class="cls-11" x1="-1" y1="55" x2="72.44" y2="55"/><line class="cls-11" x1="-1" y1="51" x2="72.44" y2="51"/><line class="cls-11" x1="-1" y1="47" x2="72.44" y2="47"/><line class="cls-11" x1="-1" y1="43" x2="72.44" y2="43"/><line class="cls-11" x1="-1" y1="39" x2="72.44" y2="39"/><line class="cls-11" x1="-1" y1="35" x2="72.44" y2="35"/><line class="cls-11" x1="-1" y1="31" x2="72.44" y2="31"/><line class="cls-11" x1="-1" y1="27" x2="72.44" y2="27"/><line class="cls-11" x1="-1" y1="23" x2="72.44" y2="23"/><line class="cls-11" x1="-1" y1="19" x2="72.44" y2="19"/><line class="cls-11" x1="-1" y1="15" x2="72.44" y2="15"/><line class="cls-11" x1="-1" y1="11" x2="72.44" y2="11"/><line class="cls-11" x1="-1" y1="7" x2="72.44" y2="7"/><line class="cls-11" x1="-1" y1="3" x2="72.44" y2="3"/><line class="cls-11" x1="1.04" y1="69" x2="74.48" y2="69"/><line class="cls-11" x1="1.04" y1="65" x2="74.48" y2="65"/><line class="cls-11" x1="1.04" y1="61" x2="74.48" y2="61"/><line class="cls-11" x1="1.04" y1="57" x2="74.48" y2="57"/><line class="cls-11" x1="1.04" y1="53" x2="74.48" y2="53"/><line class="cls-11" x1="1.04" y1="49" x2="74.48" y2="49"/><line class="cls-11" x1="1.04" y1="45" x2="74.48" y2="45"/><line class="cls-11" x1="1.04" y1="41" x2="74.48" y2="41"/><line class="cls-11" x1="1.04" y1="37" x2="74.48" y2="37"/><line class="cls-11" x1="1.04" y1="33" x2="74.48" y2="33"/><line class="cls-11" x1="1.04" y1="29" x2="74.48" y2="29"/><line class="cls-11" x1="1.04" y1="25" x2="74.48" y2="25"/><line class="cls-11" x1="1.04" y1="21" x2="74.48" y2="21"/><line class="cls-11" x1="1.04" y1="17" x2="74.48" y2="17"/><line class="cls-11" x1="1.04" y1="13" x2="74.48" y2="13"/><line class="cls-11" x1="1.04" y1="9" x2="74.48" y2="9"/><line class="cls-11" x1="1.04" y1="5" x2="74.48" y2="5"/><line class="cls-11" x1="1.04" y1="1" x2="74.48" y2="1"/></g>
<g><line class="cls-11" x1="-73" y1="71" x2=".44" y2="71"/><line class="cls-11" x1="-73" y1="67" x2=".44" y2="67"/><line class="cls-11" x1="-73" y1="63" x2=".44" y2="63"/><line class="cls-11" x1="-73" y1="59" x2=".44" y2="59"/><line class="cls-11" x1="-73" y1="55" x2=".44" y2="55"/><line class="cls-11" x1="-73" y1="51" x2=".44" y2="51"/><line class="cls-11" x1="-73" y1="47" x2=".44" y2="47"/><line class="cls-11" x1="-73" y1="43" x2=".44" y2="43"/><line class="cls-11" x1="-73" y1="39" x2=".44" y2="39"/><line class="cls-11" x1="-73" y1="35" x2=".44" y2="35"/><line class="cls-11" x1="-73" y1="31" x2=".44" y2="31"/><line class="cls-11" x1="-73" y1="27" x2=".44" y2="27"/><line class="cls-11" x1="-73" y1="23" x2=".44" y2="23"/><line class="cls-11" x1="-73" y1="19" x2=".44" y2="19"/><line class="cls-11" x1="-73" y1="15" x2=".44" y2="15"/><line class="cls-11" x1="-73" y1="11" x2=".44" y2="11"/><line class="cls-11" x1="-73" y1="7" x2=".44" y2="7"/><line class="cls-11" x1="-73" y1="3" x2=".44" y2="3"/><line class="cls-11" x1="-70.96" y1="69" x2="2.48" y2="69"/><line class="cls-11" x1="-70.96" y1="65" x2="2.48" y2="65"/><line class="cls-11" x1="-70.96" y1="61" x2="2.48" y2="61"/><line class="cls-11" x1="-70.96" y1="57" x2="2.48" y2="57"/><line class="cls-11" x1="-70.96" y1="53" x2="2.48" y2="53"/><line class="cls-11" x1="-70.96" y1="49" x2="2.48" y2="49"/><line class="cls-11" x1="-70.96" y1="45" x2="2.48" y2="45"/><line class="cls-11" x1="-70.96" y1="41" x2="2.48" y2="41"/><line class="cls-11" x1="-70.96" y1="37" x2="2.48" y2="37"/><line class="cls-11" x1="-70.96" y1="33" x2="2.48" y2="33"/><line class="cls-11" x1="-70.96" y1="29" x2="2.48" y2="29"/><line class="cls-11" x1="-70.96" y1="25" x2="2.48" y2="25"/><line class="cls-11" x1="-70.96" y1="21" x2="2.48" y2="21"/><line class="cls-11" x1="-70.96" y1="17" x2="2.48" y2="17"/><line class="cls-11" x1="-70.96" y1="13" x2="2.48" y2="13"/><line class="cls-11" x1="-70.96" y1="9" x2="2.48" y2="9"/><line class="cls-11" x1="-70.96" y1="5" x2="2.48" y2="5"/><line class="cls-11" x1="-70.96" y1="1" x2="2.48" y2="1"/></g>
</g>
</pattern></defs><g id="Frame"><path class="cls-6" d="M64.02,40c0,11.47-1.89,22.39-5.5,31.74-7.2,2.16-14.94,3.26-23.02,3.26-.49,0-.98-.01-1.47-.02h-.17c-8.18-.15-16.29-1.47-23.6-3.85-3.45-9.22-5.26-19.93-5.26-31.13s1.89-22.38,5.48-31.73c6.73-2.01,14.13-3.13,21.6-3.26,.48-.01,.97-.01,1.45-.01,.54,0,1.08,.01,1.63,.02,8.16,.15,16.27,1.47,23.59,3.84,3.46,9.24,5.27,19.95,5.27,31.14Z"/><path class="cls-13" d="M34.03,5.59V74.98h-.17c-8.18-.15-16.29-1.47-23.6-3.85-3.45-9.22-5.26-19.93-5.26-31.13s1.89-22.38,5.48-31.73c6.73-2.01,14.13-3.13,21.6-3.26,.65,.16,1.3,.36,1.95,.58Z"/></g>
<g><path class="cls-1" d="M7.65,66.34l14.72-3.76s.43-8.49,.11-9.67c-3.44-2.9-2.26-8.7-2.26-8.7,0,0-5.48-3.98-3.76-9.89,1.29-.43,2.04,.86,2.04,.86,0,0,1.07-9.46,1.83-13,0,0,2.58-12.04,14.62-9.13,9.35-1.72,12.36,3.22,14.72,8.92,2.26,5.91,1.93,13.86,1.93,13.86,0,0,1.4-1.83,2.15-1.29s.75,6.77-3.98,9.67c0,6.88-.64,7.85-2.47,9.24-.35,4.18,0,9.03,0,9.03l13.97,3.87-1.61,8.17s-17.41,4.51-33.1,3.12-18.38-5.91-18.38-5.91l-.54-5.37Z"/><path class="cls-2" d="M34.81,52.26V31.53c0-4.45,2.84-8.45,7.09-9.75,1.43-.44,2.86-1.14,4.03-2.25,.64,2.56,1.52,4.88,2.48,6.32s2.8,6.16,2.8,6.16l.16,4.8s-1.52,3.84-1.84,6.56,.96,4.48-.48,7.52-6.4,5.2-6.4,5.2l-1.12,2.64h0c-3.67,.13-6.72-2.81-6.72-6.49Z"/><path class="cls-4" d="M18.78,30.81s3-4.89,3.95-6.87,1.42-4.42,1.42-4.42c0,0,2.45,3.08,10.58,2.76s9.79-1.18,10.89-2.84c1.03,3.39,2.37,6.16,3.55,7.82s2.29,3.95,2.29,3.95c0,0-.55-8.13-3.08-12.71s-7.82-6.47-12.95-5.53c-8.76-1.26-11.84,2.13-14.29,7.18-2.61,5.13-2.37,10.66-2.37,10.66Z"/><path d="M18.58,35.71s-1.17-1.72-2.08-1.08,.32,8.12,3.73,9.57c.61-2.79-1.74-7.67-1.74-7.67l.09-.81Z"/><path class="cls-3" d="M30.32,38.51l-2.62-1.45s-4.16,.99-5.15,1.54c4.25,1.17,7.77-.09,7.77-.09Z"/><path class="cls-3" d="M39.46,38.35l2.81-1.44,5.55,1.73s-4.18,1.23-8.37-.29Z"/><polygon class="cls-4" points="32.24 34.6 31.23 38.64 27.7 37.07 21.28 38.71 20.41 33.59 24.67 32.22 32.24 34.6"/><polygon class="cls-4" points="37.61 34.6 38.62 38.64 42.15 37.07 48.58 38.71 49.44 33.59 45.19 32.22 37.61 34.6"/><path d="M46.98,54.25l-17.21,20.6-20.71-2.74-.86-6.02,14.18-3.52s.43-6.6,.24-9.37c3.73,1.91,4.78,3.25,4.78,3.25,0,0,.29,2.1,2.58,2.39s7.45,.19,7.45,.19c0,0,4.22,.04,4.68-1.34s.76-1.91,.76-1.91c0,0,3.34-1.81,4.11-1.53Z"/><path class="cls-3" d="M47.03,57.46s-2.02,3.54-9.15,4.58c-5.99,7.03-8.14,10.23-8.14,10.23l2.15,2.9,6.27-.38s5.12-6.65,9.92-9.92c-1.14-3.98-1.04-7.41-1.04-7.41Z"/><path class="cls-5" d="M37.87,62.04s2.2,.95,3.13,4.56c-2.43,2.88-3.24,4.41-3.24,4.41l1.44,1.98-2.88,3.42-4.95-1.08-.81-2.16,1.71-2.07-2.07-2.43s4-6.24,7.67-6.63Z"/><path class="cls-16" d="M37.7,74.48s10.17-9.38,10.36-9.61l-.67-2.29,13.89,3.75-.95,7.34-23.16,2.95,.54-2.15Z"/><line class="cls-8" x1="32.14" y1="70.95" x2="37.73" y2="70.95"/><path class="cls-1" d="M25.04,21.96c2.49,1.58,6.15,1.82,9.81,1.82h.37c3.66,0,7.32-.25,9.81-1.82,.28,1.08,.7,2.41,1.58,3.78,.89,1.38,1.98,3.52,3.24,6.37l.02,.04c.06,1.05,.12,2.57,.08,4.24-.42,1.08-2.16,5.82-1.67,9.11,.37,2.36-.3,5.52-1.83,6.62-.05-.31-.2-.6-.44-.84-.28-.27-.65-.41-1.03-.41-.41,0-.81,.17-1.07,.45-.01,.01-1.27,1.3-2.2,3.26-.16,.34-.29,.65-.4,.93l-.05,.11c-.05,.1-.11,.23-.15,.39-.39,.99-.49,1.16-.78,1.29-.73,.3-2.26,.3-2.84,.3-.33,0-.66,0-1,0-.15,0-.29,0-.43,0-.15,0-.29,0-.44,0h-1.15c-.14,0-.29,0-.44,0-.14,0-.29,0-.45,0-.32,0-.65,0-.98,0-.58,0-2.11,0-2.83-.3-.3-.13-.4-.3-.78-1.27v-.02c-.04-.16-.1-.29-.15-.39l-.04-.11c-.11-.28-.24-.59-.4-.92-.93-1.96-2.19-3.25-2.19-3.25h0c-.28-.3-.68-.47-1.09-.47-.39,0-.75,.15-1.05,.43-.23,.23-.38,.52-.43,.82-1.53-1.1-2.19-4.25-1.83-6.62,.49-3.29-1.25-8.03-1.67-9.11-.04-1.66,.02-3.19,.08-4.24l.02-.04c1.26-2.84,2.35-4.98,3.24-6.37,.88-1.37,1.3-2.7,1.58-3.78m20.58-1.78c-2.09,2.27-6.21,2.6-10.4,2.6h-.37c-4.19,0-8.31-.33-10.4-2.6-.07,.24-.14,.53-.2,.81-.27,1.12-.63,2.65-1.63,4.21-.93,1.45-2.04,3.64-3.31,6.5-.04,.09-.06,.15-.09,.2-.15,2.46-.1,4.29-.09,4.69,.29,.72,2.15,5.6,1.68,8.76-.45,2.91,.46,6.74,2.68,7.85,1.07,.54,2.02,1.12,2.77,1.61-.71-1.25-1.5-2.09-1.51-2.1-.19-.2-.19-.51,.01-.71,.1-.09,.22-.14,.34-.14,.13,0,.27,.05,.37,.16,.05,.05,1.18,1.24,2.01,2.99,.18,.37,.31,.71,.44,1.03,.04,.07,.07,.13,.08,.21,.01,.03,.02,.06,.03,.09,.41,1.05,.63,1.57,1.34,1.87,.78,.32,2,.38,3.22,.38,.34,0,.67,0,1,0,.3,0,.59,0,.87,0h1.15c.28,0,.57,0,.87,0,.33,0,.66,0,1,0,1.22,0,2.45-.06,3.22-.38,.71-.3,.93-.82,1.34-1.87,0-.03,.02-.06,.03-.09,.01-.08,.04-.14,.08-.21,.13-.32,.26-.66,.44-1.03,.83-1.75,1.96-2.94,2.01-2.99,.1-.1,.23-.16,.37-.16,.12,0,.25,.05,.34,.14,.2,.2,.2,.51,.01,.71-.01,.01-.8,.85-1.51,2.1,.75-.49,1.7-1.07,2.77-1.61,2.22-1.11,3.13-4.94,2.68-7.85-.47-3.16,1.39-8.04,1.68-8.76,.01-.4,.06-2.23-.09-4.69-.03-.05-.05-.11-.09-.2-1.27-2.86-2.38-5.05-3.31-6.5-1-1.56-1.36-3.09-1.63-4.21-.06-.28-.13-.57-.2-.81h0Z"/><path class="cls-2" d="M48.68,19.03s-.86,3.21-2.43,1.72c1.02,3.68,2.27,5.49,2.27,5.49,0,0,.39-2.98,1.65-1.96-.47-2.12-1.49-5.25-1.49-5.25Z"/><path d="M42.07,21.4s-11.58,.93-16.27-3.24c-1.46-1.46,1.26-4.5,1.26-4.5,0,0-4.43,2.91-5.69,5.76-1.59,3.24-2.38,10.85-2.38,10.85,0,0,2.51-3.64,3.04-4.76s2.11-5.98,2.11-5.98c0,0,2.85,1.94,6.15,2.54s11.78-.66,11.78-.66Z"/><path class="cls-14" d="M41.26,72.8l7.28-6.72,10.65,1.92-.96,2.08s-6.32-1.36-16.97,2.72Z"/><path class="cls-2" d="M51.61,35.81s1.73,2.09-.16,6.49c3.62-3.36,2.41-6.89,1.98-7.49s-1.31-.14-1.82,1Z"/><path class="cls-8" d="M18.61,35.78s-.9-1.96-1.91-1.26-.24,7.88,3.57,9.74"/><path d="M32.78,33.49l-.82,2.12-7.36-2.89-4.18,1.06s3.75-2.65,4.86-2.74c3.8,.67,7.5,2.45,7.5,2.45Z"/><path class="cls-8" d="M30.83,38.46s-1.97-1.3-3.31-1.43c-5.37,.98-5.72,1.61-5.72,1.61,0,0,3.26,1.52,9.03-.18Z"/><path d="M37.11,33.49l.82,2.12,7.36-2.89,4.18,1.06s-3.75-2.65-4.86-2.74c-3.8,.67-7.5,2.45-7.5,2.45Z"/><path class="cls-8" d="M39.06,38.46s1.97-1.3,3.31-1.43c5.37,.98,5.72,1.61,5.72,1.61,0,0-3.26,1.52-9.03-.18Z"/><path class="cls-8" d="M33.16,38.41s.27,2.64-2.64,3.89c.36,1.61,.58,2.33,.58,2.33l1.08-.54,2.69,2.08"/><path class="cls-8" d="M36.58,38.41s-.27,2.64,2.63,3.89c-.35,1.61-.58,2.33-.58,2.33l-1.07-.54-2.69,2.08"/><path d="M30.03,45.61c-.4,1.57-1.36,3.1-1.8,4.57-.09,.67,.47,1.33,.74,1.95,.39,.73,.79,1.46,1.15,2.24-1.18-.97-2.26-2.1-2.82-3.55-.1-.23-.11-.62-.04-.87,.57-1.76,1.6-3.01,2.77-4.35h0Z"/><path d="M39.6,45.61c1.17,1.33,2.2,2.59,2.77,4.35,.07,.24,.06,.64-.04,.87-.56,1.45-1.64,2.58-2.82,3.55,.36-.78,.76-1.52,1.15-2.24,.26-.62,.82-1.28,.74-1.95-.44-1.47-1.4-3-1.8-4.57h0Z"/><path class="cls-8" d="M42.57,56.31s1.87-1.48,4.24-2.66,3.45-5.12,2.96-8.38,1.68-8.57,1.68-8.57c0,0,.59-13.01-4.14-19.71-4.34-6.01-12.12-4.04-12.12-4.04h-.28s-7.79-1.97-12.12,4.04c-4.73,6.7-4.14,19.71-4.14,19.71,0,0,2.17,5.32,1.68,8.57s.59,7.19,2.96,8.38,4.24,2.66,4.24,2.66"/><path class="cls-8" d="M51.46,35.78s.9-1.96,1.91-1.26,.24,7.88-3.57,9.74"/><path class="cls-8" d="M51.33,31.76c-.1-.19-1.83-4.28-3.46-6.83-1.64-2.55-1.49-5.1-2.16-5.68-1.78,2.74-6.4,3.03-10.48,3.03h-.37c-4.09,0-8.71-.29-10.48-3.03-.67,.58-.53,3.13-2.16,5.68s-3.37,6.64-3.46,6.83"/><path class="cls-8" d="M44.96,52.36s-1.12,1.16-1.92,2.86-.85,2.91-2.15,3.44-3.58,.4-5.28,.4h-1.16c-1.7,0-3.98,.13-5.28-.4s-1.34-1.74-2.15-3.44-1.92-2.86-1.92-2.86"/><path d="M29.27,27.81c3.84-.15,7.66-.43,11.5-.14,.05,0,.06,.08,0,.1-1.89,.47-3.82,.76-5.76,.83-1.94,.01-3.9-.14-5.78-.69-.06-.02-.03-.11,.03-.09h0Z"/><path class="cls-8" d="M41.65,50.64s-1.9-1.45-3.47-1.4c-.74,.03-2.11,.64-3.36,1.28-1.25-.64-2.62-1.25-3.36-1.28-1.57-.05-3.48,1.4-3.48,1.4"/><path d="M32.4,52.96c1.29,1.24,3.71,1.19,5.09,.12,.04-.04,.1,.02,.07,.07-.62,2.31-4.79,2.28-5.24-.12-.02-.05,.04-.1,.08-.06h0Z"/><path class="cls-8" d="M22.56,53.39s.56,7.01-.73,11.61c6.21,5,10.4,10,10.4,10"/><line class="cls-8" x1="22.4" y1="62.58" x2="6.93" y2="66.53"/><path class="cls-8" d="M47.23,53.39s-.56,7.01,.73,11.61c-6.21,5-10.4,10-10.4,10"/><line class="cls-8" x1="47.39" y1="62.58" x2="62.87" y2="66.53"/><path class="cls-8" d="M22.74,57.62s3.25,4.73,12,4.73,12.22-4.73,12.22-4.73"/><path class="cls-8" d="M28.02,70.56s.72-6.33,3.58-8.26"/><path class="cls-8" d="M41.94,70.21s-.64-5.98-3.5-7.91"/><polyline class="cls-8" points="28.74 67.24 32.01 71.06 30.48 72.9"/><polyline class="cls-8" points="40.99 66.89 37.47 71.06 39.08 73.1"/><path class="cls-8" d="M13.21,65.16s.85,5.11,3.83,9.5"/><path class="cls-8" d="M56.46,65.16s-.85,5.11-3.83,9.5"/><path class="cls-16" d="M23.77,56.75c.37,2.35,.48,4.73,.45,7.1-3.33,1.05-6.74,1.86-10.2,2.34-1.09,.17-2.19,.27-3.3,.32,0,0-.02-.1-.02-.1,4.11-.98,8.82-2.43,12.63-3.17,0,0,.34-6.5,.34-6.5,0,0,.1,0,.1,0h0Z"/></g>
<g id="BG"><path class="cls-5" d="M62.56,4.88C54.4,1.94,45.12,.2,35.25,.02c-.57-.01-1.15-.02-1.72-.02C23.88,0,14.77,1.52,6.72,4.21,2.49,14.22,0,26.6,0,40s2.39,25.22,6.45,35.11c8.16,2.94,17.45,4.69,27.32,4.87,.58,.01,1.15,.02,1.73,.02,9.63,0,18.73-1.51,26.78-4.2,4.24-10.01,6.74-22.39,6.74-35.8s-2.4-25.24-6.46-35.12Zm-4.04,66.86c-7.2,2.16-14.94,3.26-23.02,3.26-.49,0-.98-.01-1.47-.02h-.17c-8.18-.15-16.29-1.47-23.6-3.85-3.45-9.22-5.26-19.93-5.26-31.13s1.89-22.38,5.48-31.73c6.73-2.01,14.13-3.13,21.6-3.26,.48-.01,.97-.01,1.45-.01,.54,0,1.08,.01,1.63,.02,8.16,.15,16.27,1.47,23.59,3.84,3.46,9.24,5.27,19.95,5.27,31.14s-1.89,22.39-5.5,31.74Z"/><path class="cls-12" d="M17.21,2.06h0c1.63,.63,2.06,2.75,.81,3.97l-1.26,1.22s8.35-2.37,18.84-1.69h0c-1-1.49-.45-3.52,1.14-4.34l1-.51S28.26-.43,17.21,2.06Z"/><path class="cls-15" d="M21.81,1.66s.7,2.18-.22,3.1c3.77-.41,7.98-.74,11.12-.74-.33-1.33,1.26-3.4,1.26-3.4,0,0-6.17-.26-12.16,1.03Z"/><path class="cls-12" d="M36.25,79.21h0c-1.52-.87-1.62-3.03-.2-4.04l1.43-1.02s-8.61,1.07-18.88-1.19h0c.76,1.63-.09,3.55-1.79,4.11l-1.07,.36s9.19,2.56,20.5,1.78Z"/><path class="cls-15" d="M19.28,77.8s1.76-1.83,1.3-3.09c4.43,.69,9.11,1.14,12.25,1.14-.33,1.33,.44,3.4,.44,3.4,0,0-8-.16-13.99-1.45Z"/><polygon points="47.48 1.77 47.48 6.73 54.49 8.44 54.49 2.62 47.48 1.77"/><line class="cls-7" x1="45.5" y1="1.23" x2="45.5" y2="6.29"/><line class="cls-7" x1="56.47" y1="3.67" x2="56.47" y2="8.73"/><polygon points="47.48 78.74 47.48 73.78 54.49 72.07 54.49 77.88 47.48 78.74"/><line class="cls-7" x1="45.5" y1="79.28" x2="45.5" y2="74.21"/><line class="cls-7" x1="56.47" y1="76.84" x2="56.47" y2="71.77"/><path d="M33.53,1c.56,0,1.14,0,1.7,.02,9.39,.17,18.33,1.74,26.57,4.65,4.07,10.08,6.22,21.94,6.22,34.33s-2.24,24.79-6.49,34.99c-8.12,2.66-16.87,4.01-26.03,4.01-.56,0-1.12,0-1.71-.02-9.25-.17-18.42-1.78-26.58-4.66C3.15,64.25,1,52.39,1,40S3.23,15.21,7.47,5.02C15.6,2.35,24.37,1,33.53,1M33.53,0C23.88,0,14.77,1.52,6.72,4.21,2.49,14.22,0,26.6,0,40s2.39,25.22,6.45,35.11c8.16,2.94,17.45,4.69,27.32,4.87,.58,.01,1.15,.02,1.73,.02,9.63,0,18.73-1.51,26.78-4.2,4.24-10.01,6.74-22.39,6.74-35.8s-2.4-25.24-6.46-35.12C54.4,1.94,45.12,.2,35.25,.02,34.68,.01,34.1,0,33.53,0h0Z"/><path class="cls-12" d="M33.53,6c.52,0,1.04,0,1.61,.02,7.87,.14,15.75,1.4,22.84,3.64,3.3,9,5.04,19.47,5.04,30.34s-1.82,21.82-5.26,30.92c-6.98,2.04-14.47,3.08-22.26,3.08-.48,0-.97,0-1.47-.02h-.15c-7.89-.14-15.78-1.41-22.85-3.65-3.29-8.99-5.03-19.46-5.03-30.33s1.81-21.79,5.24-30.91c6.5-1.89,13.7-2.95,20.86-3.08,.47,0,.96,0,1.43,0m0-1c-.48,0-.97,0-1.45,.01-7.47,.13-14.87,1.25-21.6,3.26-3.59,9.35-5.48,20.26-5.48,31.73s1.81,21.91,5.26,31.13c7.31,2.38,15.42,3.7,23.6,3.85h.17c.49,.01,.98,.02,1.47,.02,8.08,0,15.82-1.1,23.02-3.26,3.61-9.35,5.5-20.27,5.5-31.74s-1.81-21.9-5.27-31.14c-7.32-2.37-15.43-3.69-23.59-3.84-.55,0-1.09-.02-1.63-.02h0Z"/><path d="M33.53,5c.54,0,1.08,.01,1.63,.02,8.16,.15,16.27,1.47,23.59,3.84,3.46,9.24,5.27,19.95,5.27,31.14s-1.89,22.39-5.5,31.74c-7.2,2.16-14.94,3.26-23.02,3.26-.49,0-.98-.01-1.47-.02h-.17c-8.18-.15-16.29-1.47-23.6-3.85-3.45-9.22-5.26-19.93-5.26-31.13s1.89-22.38,5.48-31.73c6.73-2.01,14.13-3.13,21.6-3.26,.48-.01,.97-.01,1.45-.01m0-1c-.49,0-.98,0-1.47,.01-7.51,.13-15.07,1.27-21.87,3.3l-.47,.14-.18,.46c-3.63,9.45-5.55,20.55-5.55,32.09s1.84,22.17,5.32,31.48l.17,.45,.46,.15c7.37,2.4,15.63,3.75,23.89,3.9h.19c.48,.01,.97,.02,1.47,.02,8.16,0,16-1.11,23.31-3.3l.47-.14,.18-.46c3.64-9.43,5.57-20.53,5.57-32.1s-1.84-22.17-5.33-31.49l-.17-.45-.46-.15c-7.39-2.39-15.65-3.74-23.88-3.89-.58-.01-1.11-.02-1.65-.02h0Z"/><path class="cls-9" d="M8.14,7.1s-12.66,32.94,0,66.06"/><path class="cls-9" d="M60.88,7.58s12.66,32.94,0,66.06"/></g>
</svg>