<svg id="Capa_2" xmlns="http://www.w3.org/2000/svg" xmlns:xlink="http://www.w3.org/1999/xlink" viewBox="0 0 69.02 80">
<defs >
<style >
.cls-1{fill:#c89aed;}.cls-2{fill:#fff;}.cls-3{fill:#f8ffbf;}.cls-4{fill:#7b7be8;}.cls-5{fill:#a88347;}.cls-6{fill:#782ab5;}.cls-7{stroke-miterlimit:10;}.cls-7,.cls-8{stroke:#000;}.cls-7,.cls-8,.cls-9,.cls-10,.cls-11{fill:none;}.cls-8,.cls-9{stroke-linecap:round;stroke-linejoin:round;}.cls-9{stroke:#deb778;stroke-dasharray:0 0 0 4.06;}.cls-12{fill:#deb778;}.cls-13{fill:url(#USGS_19_Inundación_de_tierra_2);}.cls-11{stroke:#1d1d1b;stroke-dasharray:0 0 2 2;stroke-width:.3px;}.cls-14{fill:#cf5f2b;}.cls-15{fill:#fcf0c5;}.cls-16{fill:#b83521;}
</style>
<pattern id="USGS_19_Inundación_de_tierra_2" x="0" y="0" width="72" height="72" patternTransform="translate(-164.48 -16999) rotate(-90)" patternUnits="userSpaceOnUse" viewBox="0 0 72 72">
<g >
<rect class="cls-10" width="72" height="72">
</rect>
<g >
<line class="cls-11" x1="71" y1="71" x2="144.44" y2="71">
</line>
<line class="cls-11" x1="71" y1="67" x2="144.44" y2="67">
</line>
<line class="cls-11" x1="71" y1="63" x2="144.44" y2="63">
</line>
<line class="cls-11" x1="71" y1="59" x2="144.44" y2="59">
</line>
<line class="cls-11" x1="71" y1="55" x2="144.44" y2="55">
</line>
<line class="cls-11" x1="71" y1="51" x2="144.44" y2="51">
</line>
<line class="cls-11" x1="71" y1="47" x2="144.44" y2="47">
</line>
<line class="cls-11" x1="71" y1="43" x2="144.44" y2="43">
</line>
<line class="cls-11" x1="71" y1="39" x2="144.44" y2="39">
</line>
<line class="cls-11" x1="71" y1="35" x2="144.44" y2="35">
</line>
<line class="cls-11" x1="71" y1="31" x2="144.44" y2="31">
</line>
<line class="cls-11" x1="71" y1="27" x2="144.44" y2="27">
</line>
<line class="cls-11" x1="71" y1="23" x2="144.44" y2="23">
</line>
<line class="cls-11" x1="71" y1="19" x2="144.44" y2="19">
</line>
<line class="cls-11" x1="71" y1="15" x2="144.44" y2="15">
</line>
<line class="cls-11" x1="71" y1="11" x2="144.44" y2="11">
</line>
<line class="cls-11" x1="71" y1="7" x2="144.44" y2="7">
</line>
<line class="cls-11" x1="71" y1="3" x2="144.44" y2="3">
</line>
</g>


<g >
<line class="cls-11" x1="-1" y1="71" x2="72.44" y2="71">
</line>
<line class="cls-11" x1="-1" y1="67" x2="72.44" y2="67">
</line>
<line class="cls-11" x1="-1" y1="63" x2="72.44" y2="63">
</line>
<line class="cls-11" x1="-1" y1="59" x2="72.44" y2="59">
</line>
<line class="cls-11" x1="-1" y1="55" x2="72.44" y2="55">
</line>
<line class="cls-11" x1="-1" y1="51" x2="72.44" y2="51">
</line>
<line class="cls-11" x1="-1" y1="47" x2="72.44" y2="47">
</line>
<line class="cls-11" x1="-1" y1="43" x2="72.44" y2="43">
</line>
<line class="cls-11" x1="-1" y1="39" x2="72.44" y2="39">
</line>
<line class="cls-11" x1="-1" y1="35" x2="72.44" y2="35">
</line>
<line class="cls-11" x1="-1" y1="31" x2="72.44" y2="31">
</line>
<line class="cls-11" x1="-1" y1="27" x2="72.44" y2="27">
</line>
<line class="cls-11" x1="-1" y1="23" x2="72.44" y2="23">
</line>
<line class="cls-11" x1="-1" y1="19" x2="72.44" y2="19">
</line>
<line class="cls-11" x1="-1" y1="15" x2="72.44" y2="15">
</line>
<line class="cls-11" x1="-1" y1="11" x2="72.44" y2="11">
</line>
<line class="cls-11" x1="-1" y1="7" x2="72.44" y2="7">
</line>
<line class="cls-11" x1="-1" y1="3" x2="72.44" y2="3">
</line>
<line class="cls-11" x1="1.04" y1="69" x2="74.48" y2="69">
</line>
<line class="cls-11" x1="1.04" y1="65" x2="74.48" y2="65">
</line>
<line class="cls-11" x1="1.04" y1="61" x2="74.48" y2="61">
</line>
<line class="cls-11" x1="1.04" y1="57" x2="74.48" y2="57">
</line>
<line class="cls-11" x1="1.04" y1="53" x2="74.48" y2="53">
</line>
<line class="cls-11" x1="1.04" y1="49" x2="74.48" y2="49">
</line>
<line class="cls-11" x1="1.04" y1="45" x2="74.48" y2="45">
</line>
<line class="cls-11" x1="1.04" y1="41" x2="74.48" y2="41">
</line>
<line class="cls-11" x1="1.04" y1="37" x2="74.48" y2="37">
</line>
<line class="cls-11" x1="1.04" y1="33" x2="74.48" y2="33">
</line>
<line class="cls-11" x1="1.04" y1="29" x2="74.48" y2="29">
</line>
<line class="cls-11" x1="1.04" y1="25" x2="74.48" y2="25">
</line>
<line class="cls-11" x1="1.04" y1="21" x2="74.48" y2="21">
</line>
<line class="cls-11" x1="1.04" y1="17" x2="74.48" y2="17">
</line>
<line class="cls-11" x1="1.04" y1="13" x2="74.48" y2="13">
</line>
<line class="cls-11" x1="1.04" y1="9" x2="74.48" y2="9">
</line>
<line class="cls-11" x1="1.04" y1="5" x2="74.48" y2="5">
</line>
<line class="cls-11" x1="1.04" y1="1" x2="74.48" y2="1">
</line>
</g>


<g >
<line class="cls-11" x1="-73" y1="71" x2=".44" y2="71">
</line>
<line class="cls-11" x1="-73" y1="67" x2=".44" y2="67">
</line>
<line class="cls-11" x1="-73" y1="63" x2=".44" y2="63">
</line>
<line class="cls-11" x1="-73" y1="59" x2=".44" y2="59">
</line>
<line class="cls-11" x1="-73" y1="55" x2=".44" y2="55">
</line>
<line class="cls-11" x1="-73" y1="51" x2=".44" y2="51">
</line>
<line class="cls-11" x1="-73" y1="47" x2=".44" y2="47">
</line>
<line class="cls-11" x1="-73" y1="43" x2=".44" y2="43">
</line>
<line class="cls-11" x1="-73" y1="39" x2=".44" y2="39">
</line>
<line class="cls-11" x1="-73" y1="35" x2=".44" y2="35">
</line>
<line class="cls-11" x1="-73" y1="31" x2=".44" y2="31">
</line>
<line class="cls-11" x1="-73" y1="27" x2=".44" y2="27">
</line>
<line class="cls-11" x1="-73" y1="23" x2=".44" y2="23">
</line>
<line class="cls-11" x1="-73" y1="19" x2=".44" y2="19">
</line>
<line class="cls-11" x1="-73" y1="15" x2=".44" y2="15">
</line>
<line class="cls-11" x1="-73" y1="11" x2=".44" y2="11">
</line>
<line class="cls-11" x1="-73" y1="7" x2=".44" y2="7">
</line>
<line class="cls-11" x1="-73" y1="3" x2=".44" y2="3">
</line>
<line class="cls-11" x1="-70.96" y1="69" x2="2.48" y2="69">
</line>
<line class="cls-11" x1="-70.96" y1="65" x2="2.48" y2="65">
</line>
<line class="cls-11" x1="-70.96" y1="61" x2="2.48" y2="61">
</line>
<line class="cls-11" x1="-70.96" y1="57" x2="2.48" y2="57">
</line>
<line class="cls-11" x1="-70.96" y1="53" x2="2.48" y2="53">
</line>
<line class="cls-11" x1="-70.96" y1="49" x2="2.48" y2="49">
</line>
<line class="cls-11" x1="-70.96" y1="45" x2="2.48" y2="45">
</line>
<line class="cls-11" x1="-70.96" y1="41" x2="2.48" y2="41">
</line>
<line class="cls-11" x1="-70.96" y1="37" x2="2.48" y2="37">
</line>
<line class="cls-11" x1="-70.96" y1="33" x2="2.48" y2="33">
</line>
<line class="cls-11" x1="-70.96" y1="29" x2="2.48" y2="29">
</line>
<line class="cls-11" x1="-70.96" y1="25" x2="2.48" y2="25">
</line>
<line class="cls-11" x1="-70.96" y1="21" x2="2.48" y2="21">
</line>
<line class="cls-11" x1="-70.96" y1="17" x2="2.48" y2="17">
</line>
<line class="cls-11" x1="-70.96" y1="13" x2="2.48" y2="13">
</line>
<line class="cls-11" x1="-70.96" y1="9" x2="2.48" y2="9">
</line>
<line class="cls-11" x1="-70.96" y1="5" x2="2.48" y2="5">
</line>
<line class="cls-11" x1="-70.96" y1="1" x2="2.48" y2="1">
</line>
</g>


</g>


</pattern>
</defs>



<g >
<path class="cls-1" d="M7.65,66.34l14.72-3.76s.43-8.49,.11-9.67c-3.44-2.9-2.26-8.7-2.26-8.7,0,0-5.48-3.98-3.76-9.89,1.29-.43,2.04,.86,2.04,.86,0,0,1.07-9.46,1.83-13,0,0,2.58-12.04,14.62-9.13,9.35-1.72,12.36,3.22,14.72,8.92,2.26,5.91,1.93,13.86,1.93,13.86,0,0,1.4-1.83,2.15-1.29s.75,6.77-3.98,9.67c0,6.88-.64,7.85-2.47,9.24-.35,4.18,0,9.03,0,9.03l13.97,3.87-1.61,8.17s-17.41,4.51-33.1,3.12-18.38-5.91-18.38-5.91l-.54-5.37Z">
</path>
<path class="cls-2" d="M34.81,52.26V31.53c0-4.45,2.84-8.45,7.09-9.75,1.43-.44,2.86-1.14,4.03-2.25,.64,2.56,1.52,4.88,2.48,6.32s2.8,6.16,2.8,6.16l.16,4.8s-1.52,3.84-1.84,6.56,.96,4.48-.48,7.52-6.4,5.2-6.4,5.2l-1.12,2.64h0c-3.67,.13-6.72-2.81-6.72-6.49Z">
</path>
<path class="cls-4" d="M18.78,30.81s3-4.89,3.95-6.87,1.42-4.42,1.42-4.42c0,0,2.45,3.08,10.58,2.76s9.79-1.18,10.89-2.84c1.03,3.39,2.37,6.16,3.55,7.82s2.29,3.95,2.29,3.95c0,0-.55-8.13-3.08-12.71s-7.82-6.47-12.95-5.53c-8.76-1.26-11.84,2.13-14.29,7.18-2.61,5.13-2.37,10.66-2.37,10.66Z">
</path>
<path d="M18.58,35.71s-1.17-1.72-2.08-1.08,.32,8.12,3.73,9.57c.61-2.79-1.74-7.67-1.74-7.67l.09-.81Z">
</path>
<path class="cls-3" d="M30.32,38.51l-2.62-1.45s-4.16,.99-5.15,1.54c4.25,1.17,7.77-.09,7.77-.09Z">
</path>
<path class="cls-3" d="M39.46,38.35l2.81-1.44,5.55,1.73s-4.18,1.23-8.37-.29Z">
</path>
<polygon class="cls-4" points="32.24 34.6 31.23 38.64 27.7 37.07 21.28 38.71 20.41 33.59 24.67 32.22 32.24 34.6">
</polygon>
<polygon class="cls-4" points="37.61 34.6 38.62 38.64 42.15 37.07 48.58 38.71 49.44 33.59 45.19 32.22 37.61 34.6">
</polygon>
<path d="M46.98,54.25l-17.21,20.6-20.71-2.74-.86-6.02,14.18-3.52s.43-6.6,.24-9.37c3.73,1.91,4.78,3.25,4.78,3.25,0,0,.29,2.1,2.58,2.39s7.45,.19,7.45,.19c0,0,4.22,.04,4.68-1.34s.76-1.91,.76-1.91c0,0,3.34-1.81,4.11-1.53Z">
</path>
<path class="cls-3" d="M47.03,57.46s-2.02,3.54-9.15,4.58c-5.99,7.03-8.14,10.23-8.14,10.23l2.15,2.9,6.27-.38s5.12-6.65,9.92-9.92c-1.14-3.98-1.04-7.41-1.04-7.41Z">
</path>
<path class="cls-5" d="M37.87,62.04s2.2,.95,3.13,4.56c-2.43,2.88-3.24,4.41-3.24,4.41l1.44,1.98-2.88,3.42-4.95-1.08-.81-2.16,1.71-2.07-2.07-2.43s4-6.24,7.67-6.63Z">
</path>
<path class="cls-16" d="M37.7,74.48s10.17-9.38,10.36-9.61l-.67-2.29,13.89,3.75-.95,7.34-23.16,2.95,.54-2.15Z">
</path>
<line class="cls-8" x1="32.14" y1="70.95" x2="37.73" y2="70.95">
</line>
<path class="cls-1" d="M25.04,21.96c2.49,1.58,6.15,1.82,9.81,1.82h.37c3.66,0,7.32-.25,9.81-1.82,.28,1.08,.7,2.41,1.58,3.78,.89,1.38,1.98,3.52,3.24,6.37l.02,.04c.06,1.05,.12,2.57,.08,4.24-.42,1.08-2.16,5.82-1.67,9.11,.37,2.36-.3,5.52-1.83,6.62-.05-.31-.2-.6-.44-.84-.28-.27-.65-.41-1.03-.41-.41,0-.81,.17-1.07,.45-.01,.01-1.27,1.3-2.2,3.26-.16,.34-.29,.65-.4,.93l-.05,.11c-.05,.1-.11,.23-.15,.39-.39,.99-.49,1.16-.78,1.29-.73,.3-2.26,.3-2.84,.3-.33,0-.66,0-1,0-.15,0-.29,0-.43,0-.15,0-.29,0-.44,0h-1.15c-.14,0-.29,0-.44,0-.14,0-.29,0-.45,0-.32,0-.65,0-.98,0-.58,0-2.11,0-2.83-.3-.3-.13-.4-.3-.78-1.27v-.02c-.04-.16-.1-.29-.15-.39l-.04-.11c-.11-.28-.24-.59-.4-.92-.93-1.96-2.19-3.25-2.19-3.25h0c-.28-.3-.68-.47-1.09-.47-.39,0-.75,.15-1.05,.43-.23,.23-.38,.52-.43,.82-1.53-1.1-2.19-4.25-1.83-6.62,.49-3.29-1.25-8.03-1.67-9.11-.04-1.66,.02-3.19,.08-4.24l.02-.04c1.26-2.84,2.35-4.98,3.24-6.37,.88-1.37,1.3-2.7,1.58-3.78m20.58-1.78c-2.09,2.27-6.21,2.6-10.4,2.6h-.37c-4.19,0-8.31-.33-10.4-2.6-.07,.24-.14,.53-.2,.81-.27,1.12-.63,2.65-1.63,4.21-.93,1.45-2.04,3.64-3.31,6.5-.04,.09-.06,.15-.09,.2-.15,2.46-.1,4.29-.09,4.69,.29,.72,2.15,5.6,1.68,8.76-.45,2.91,.46,6.74,2.68,7.85,1.07,.54,2.02,1.12,2.77,1.61-.71-1.25-1.5-2.09-1.51-2.1-.19-.2-.19-.51,.01-.71,.1-.09,.22-.14,.34-.14,.13,0,.27,.05,.37,.16,.05,.05,1.18,1.24,2.01,2.99,.18,.37,.31,.71,.44,1.03,.04,.07,.07,.13,.08,.21,.01,.03,.02,.06,.03,.09,.41,1.05,.63,1.57,1.34,1.87,.78,.32,2,.38,3.22,.38,.34,0,.67,0,1,0,.3,0,.59,0,.87,0h1.15c.28,0,.57,0,.87,0,.33,0,.66,0,1,0,1.22,0,2.45-.06,3.22-.38,.71-.3,.93-.82,1.34-1.87,0-.03,.02-.06,.03-.09,.01-.08,.04-.14,.08-.21,.13-.32,.26-.66,.44-1.03,.83-1.75,1.96-2.94,2.01-2.99,.1-.1,.23-.16,.37-.16,.12,0,.25,.05,.34,.14,.2,.2,.2,.51,.01,.71-.01,.01-.8,.85-1.51,2.1,.75-.49,1.7-1.07,2.77-1.61,2.22-1.11,3.13-4.94,2.68-7.85-.47-3.16,1.39-8.04,1.68-8.76,.01-.4,.06-2.23-.09-4.69-.03-.05-.05-.11-.09-.2-1.27-2.86-2.38-5.05-3.31-6.5-1-1.56-1.36-3.09-1.63-4.21-.06-.28-.13-.57-.2-.81h0Z">
</path>
<path class="cls-2" d="M48.68,19.03s-.86,3.21-2.43,1.72c1.02,3.68,2.27,5.49,2.27,5.49,0,0,.39-2.98,1.65-1.96-.47-2.12-1.49-5.25-1.49-5.25Z">
</path>
<path d="M42.07,21.4s-11.58,.93-16.27-3.24c-1.46-1.46,1.26-4.5,1.26-4.5,0,0-4.43,2.91-5.69,5.76-1.59,3.24-2.38,10.85-2.38,10.85,0,0,2.51-3.64,3.04-4.76s2.11-5.98,2.11-5.98c0,0,2.85,1.94,6.15,2.54s11.78-.66,11.78-.66Z">
</path>
<path class="cls-14" d="M41.26,72.8l7.28-6.72,10.65,1.92-.96,2.08s-6.32-1.36-16.97,2.72Z">
</path>
<path class="cls-2" d="M51.61,35.81s1.73,2.09-.16,6.49c3.62-3.36,2.41-6.89,1.98-7.49s-1.31-.14-1.82,1Z">
</path>
<path class="cls-8" d="M18.61,35.78s-.9-1.96-1.91-1.26-.24,7.88,3.57,9.74">
</path>
<path d="M32.78,33.49l-.82,2.12-7.36-2.89-4.18,1.06s3.75-2.65,4.86-2.74c3.8,.67,7.5,2.45,7.5,2.45Z">
</path>
<path class="cls-8" d="M30.83,38.46s-1.97-1.3-3.31-1.43c-5.37,.98-5.72,1.61-5.72,1.61,0,0,3.26,1.52,9.03-.18Z">
</path>
<path d="M37.11,33.49l.82,2.12,7.36-2.89,4.18,1.06s-3.75-2.65-4.86-2.74c-3.8,.67-7.5,2.45-7.5,2.45Z">
</path>
<path class="cls-8" d="M39.06,38.46s1.97-1.3,3.31-1.43c5.37,.98,5.72,1.61,5.72,1.61,0,0-3.26,1.52-9.03-.18Z">
</path>
<path class="cls-8" d="M33.16,38.41s.27,2.64-2.64,3.89c.36,1.61,.58,2.33,.58,2.33l1.08-.54,2.69,2.08">
</path>
<path class="cls-8" d="M36.58,38.41s-.27,2.64,2.63,3.89c-.35,1.61-.58,2.33-.58,2.33l-1.07-.54-2.69,2.08">
</path>
<path d="M30.03,45.61c-.4,1.57-1.36,3.1-1.8,4.57-.09,.67,.47,1.33,.74,1.95,.39,.73,.79,1.46,1.15,2.24-1.18-.97-2.26-2.1-2.82-3.55-.1-.23-.11-.62-.04-.87,.57-1.76,1.6-3.01,2.77-4.35h0Z">
</path>
<path d="M39.6,45.61c1.17,1.33,2.2,2.59,2.77,4.35,.07,.24,.06,.64-.04,.87-.56,1.45-1.64,2.58-2.82,3.55,.36-.78,.76-1.52,1.15-2.24,.26-.62,.82-1.28,.74-1.95-.44-1.47-1.4-3-1.8-4.57h0Z">
</path>
<path class="cls-8" d="M42.57,56.31s1.87-1.48,4.24-2.66,3.45-5.12,2.96-8.38,1.68-8.57,1.68-8.57c0,0,.59-13.01-4.14-19.71-4.34-6.01-12.12-4.04-12.12-4.04h-.28s-7.79-1.97-12.12,4.04c-4.73,6.7-4.14,19.71-4.14,19.71,0,0,2.17,5.32,1.68,8.57s.59,7.19,2.96,8.38,4.24,2.66,4.24,2.66">
</path>
<path class="cls-8" d="M51.46,35.78s.9-1.96,1.91-1.26,.24,7.88-3.57,9.74">
</path>
<path class="cls-8" d="M51.33,31.76c-.1-.19-1.83-4.28-3.46-6.83-1.64-2.55-1.49-5.1-2.16-5.68-1.78,2.74-6.4,3.03-10.48,3.03h-.37c-4.09,0-8.71-.29-10.48-3.03-.67,.58-.53,3.13-2.16,5.68s-3.37,6.64-3.46,6.83">
</path>
<path class="cls-8" d="M44.96,52.36s-1.12,1.16-1.92,2.86-.85,2.91-2.15,3.44-3.58,.4-5.28,.4h-1.16c-1.7,0-3.98,.13-5.28-.4s-1.34-1.74-2.15-3.44-1.92-2.86-1.92-2.86">
</path>
<path d="M29.27,27.81c3.84-.15,7.66-.43,11.5-.14,.05,0,.06,.08,0,.1-1.89,.47-3.82,.76-5.76,.83-1.94,.01-3.9-.14-5.78-.69-.06-.02-.03-.11,.03-.09h0Z">
</path>
<path class="cls-8" d="M41.65,50.64s-1.9-1.45-3.47-1.4c-.74,.03-2.11,.64-3.36,1.28-1.25-.64-2.62-1.25-3.36-1.28-1.57-.05-3.48,1.4-3.48,1.4">
</path>
<path d="M32.4,52.96c1.29,1.24,3.71,1.19,5.09,.12,.04-.04,.1,.02,.07,.07-.62,2.31-4.79,2.28-5.24-.12-.02-.05,.04-.1,.08-.06h0Z">
</path>
<path class="cls-8" d="M22.56,53.39s.56,7.01-.73,11.61c6.21,5,10.4,10,10.4,10">
</path>
<line class="cls-8" x1="22.4" y1="62.58" x2="6.93" y2="66.53">
</line>
<path class="cls-8" d="M47.23,53.39s-.56,7.01,.73,11.61c-6.21,5-10.4,10-10.4,10">
</path>
<line class="cls-8" x1="47.39" y1="62.58" x2="62.87" y2="66.53">
</line>
<path class="cls-8" d="M22.74,57.62s3.25,4.73,12,4.73,12.22-4.73,12.22-4.73">
</path>
<path class="cls-8" d="M28.02,70.56s.72-6.33,3.58-8.26">
</path>
<path class="cls-8" d="M41.94,70.21s-.64-5.98-3.5-7.91">
</path>
<polyline class="cls-8" points="28.74 67.24 32.01 71.06 30.48 72.9">
</polyline>
<polyline class="cls-8" points="40.99 66.89 37.47 71.06 39.08 73.1">
</polyline>
<path class="cls-8" d="M13.21,65.16s.85,5.11,3.83,9.5">
</path>
<path class="cls-8" d="M56.46,65.16s-.85,5.11-3.83,9.5">
</path>
<path class="cls-16" d="M23.77,56.75c.37,2.35,.48,4.73,.45,7.1-3.33,1.05-6.74,1.86-10.2,2.34-1.09,.17-2.19,.27-3.3,.32,0,0-.02-.1-.02-.1,4.11-.98,8.82-2.43,12.63-3.17,0,0,.34-6.5,.34-6.5,0,0,.1,0,.1,0h0Z">
</path>
</g>




 <g
     id="g2850">
    <g
       id="g2837">
      <path
         id="path1951"
         d="M 0.056640625 0.04296875 L 0.056640625 79.943359 L 69.308594 79.943359 L 69.308594 0.04296875 L 0.056640625 0.04296875 z M 33.615234 3.5957031 C 34.206332 3.5957038 34.786991 3.6051034 35.421875 3.6152344 C 44.430653 3.7671809 53.471255 5.1336733 61.560547 7.5546875 L 62.064453 7.7070312 L 62.25 8.1640625 C 66.070247 17.605006 66.990234 28.726438 66.990234 40.0625 C 66.990234 51.398562 65.972723 63.025755 61.988281 72.578125 L 61.791016 73.044922 L 61.275391 73.185547 C 53.273669 75.403966 44.691921 76.529297 35.759766 76.529297 C 35.212453 76.529297 34.675812 76.519896 34.150391 76.509766 L 33.943359 76.509766 C 24.901742 76.357819 15.860367 74.989738 7.7929688 72.558594 L 7.2890625 72.40625 L 7.1035156 71.951172 C 3.2942144 62.520359 2.375 51.369168 2.375 40.0625 C 2.375 28.755832 3.3819737 17.127318 7.3554688 7.5546875 L 7.5527344 7.0898438 L 8.0664062 6.9472656 C 15.509867 4.890923 23.785212 3.7371557 32.005859 3.6054688 C 32.542226 3.5953387 33.078867 3.5957031 33.615234 3.5957031 z "
         style="opacity:1;vector-effect:none;fill:#ffffff;fill-opacity:1;fill-rule:nonzero;stroke:none;stroke-width:1.95200002;stroke-linecap:butt;stroke-linejoin:miter;stroke-miterlimit:4;stroke-dasharray:none;stroke-dashoffset:0;stroke-opacity:1" />
    </g>
    <path
       id="path1154-8-2"
       d="m 33.675163,6.6112954 c 0.557696,0 1.115392,0.00956 1.683415,0.019115 8.427403,0.14336 16.803167,1.4049288 24.363042,3.6700176 3.573384,8.830981 4.443772,19.417362 4.443772,29.761551 0,10.344189 -0.95301,21.39888 -4.68131,30.334991 -7.435942,2.064385 -15.429581,3.274388 -23.774362,3.274388 -0.506058,0 -1.012115,-0.0096 -1.518172,-0.01911 h -0.17557 C 25.56792,73.508883 17.192156,72.088619 9.6426089,69.813973 6.0795528,61.002107 5.2088244,50.415411 5.2088244,40.061979 c 0,-10.353432 0.95335,-21.389323 4.6609939,-30.325434 C 16.820359,7.8155201 24.462856,6.7450981 32.177647,6.6208528 c 0.49573,-0.00956 1.001787,-0.00956 1.497516,-0.00956 m 0,-0.9557337 c -0.506057,0 -1.012114,0 -1.518171,0.00956 C 24.40089,5.7893644 16.593149,6.8789009 9.570315,8.8190405 L 9.0849131,8.9528432 8.8990146,9.3924808 C 5.1500599,18.424166 4.1999116,29.394246 4.1999116,40.061979 c 0,10.667733 0.8675267,21.188618 4.461566,30.0865 l 0.1755708,0.430081 0.4750741,0.14336 c 7.6115135,2.293761 16.1421925,3.584001 24.6728715,3.727361 h 0.196227 c 0.495729,0.0096 1.001786,0.01911 1.518171,0.01911 8.427403,0 16.524318,-1.060864 24.073866,-3.153921 l 0.485403,-0.133802 0.185898,-0.439639 c 3.759282,-9.01257 4.719759,-19.983589 4.719759,-30.679055 0,-10.695466 -0.867528,-21.188618 -4.471894,-30.0960578 L 60.516853,9.5358409 60.041779,9.3924808 C 52.409609,7.108277 43.87893,5.8180364 35.379234,5.6746763 34.780227,5.6651187 34.232859,5.6555621 33.675163,5.6555615 Z"
       style="fill:#ff0000;stroke:#ffffff;stroke-width:1.84341729;stroke-miterlimit:4;stroke-dasharray:none" />
    <path
       id="path1154"
       d="m 33.614853,4.6077955 c 0.591098,0 1.182197,0.01013 1.784241,0.02026 8.932155,0.1519464 17.809578,1.4890758 25.822246,3.8898304 3.787408,9.3599041 4.709928,20.5803481 4.709928,31.5440931 0,10.963745 -1.01009,22.680548 -4.961693,32.151879 -7.881312,2.18803 -16.353723,3.302304 -25.198307,3.302304 -0.536368,0 -1.072735,-0.01013 -1.609102,-0.02026 H 33.97608 C 25.022033,75.343956 16.14461,74.006827 8.1428892,71.595943 4.3664269,62.256298 3.443547,51.035521 3.443547,40.061979 c 0,-10.973542 1.01045,-22.670418 4.9401601,-32.1417498 7.3668369,-2.036083 15.4670749,-3.170617 23.6439369,-3.3023039 0.525421,-0.01013 1.061788,-0.01013 1.587209,-0.01013 m 0,-1.0129766 c -0.536367,0 -1.072734,0 -1.609101,0.01013 C 23.785105,3.7366356 15.509726,4.891429 8.0662653,6.9477716 L 7.5517907,7.0895883 7.3547579,7.5555576 C 3.3812628,17.128188 2.3742062,28.755311 2.3742062,40.061979 c 0,11.306668 0.9194864,22.457692 4.7287876,31.888505 l 0.1860865,0.45584 0.5035283,0.151947 c 8.0673984,2.431144 17.1090154,3.798662 26.1506324,3.950608 h 0.207979 c 0.525421,0.01013 1.061788,0.02026 1.609101,0.02026 8.932155,0 17.514028,-1.124404 25.51575,-3.342823 l 0.514475,-0.141816 0.197032,-0.46597 c 3.984442,-9.55237 5.002445,-21.180489 5.002445,-32.516551 0,-11.336062 -0.919487,-22.457692 -4.739734,-31.8986353 L 62.064202,7.7075041 61.560674,7.5555576 C 53.471382,5.1345434 44.429765,3.7670249 35.420987,3.6150784 c -0.634884,-0.01013 -1.215036,-0.020259 -1.806134,-0.02026 z"
       style="fill:#000000;stroke:#000000;stroke-width:1.95382714;stroke-miterlimit:4;stroke-dasharray:none" />
    <g
       id="g1810">
      <path
         d="M 6.5134911,7.7433673 C 5.6489029,6.8479453 4.058602,6.5681013 3.6272194,7.3820013 3.284151,8.0292783 3.3625296,8.5309135 4.395235,8.9201755 3.2963719,9.5187755 1.4857674,9.4447465 1.1893447,7.4467713 0.95320848,5.8551433 2.674739,4.8863543 3.1399725,5.0916244 3.0034432,3.6818714 1.8221094,4.0692802 0.95849208,3.2813384 0.34259068,2.7194046 0.23126071,-0.02624603 0.0561761,0.04378767 -0.0138576,0.21887227 2.7317937,0.33020157 3.2937267,0.94610377 4.0816685,1.8097211 3.6942598,2.9910547 5.1040128,3.1275841 4.8987425,2.6623507 5.8675315,0.94082017 7.4591593,1.1769564 9.4571345,1.4733791 9.5311625,3.2839847 8.9325635,4.3828467 8.5433008,3.3501417 8.041666,3.2717627 7.3943894,3.6148312 6.5804899,4.0462137 6.8603354,5.6365129 7.7557553,6.5011023"
         style="fill:#000000;stroke:#000000;stroke-width:0.1112323px;stroke-linecap:butt;stroke-linejoin:miter;stroke-opacity:1"
         id="path1737-3" />
      <path
         d="m 62.850738,7.7433673 c 0.864588,-0.895422 2.454889,-1.175266 2.886271,-0.361366 0.343069,0.647277 0.26469,1.148912 -0.768015,1.538174 1.098863,0.5986 2.909467,0.524571 3.20589,-1.473404 0.236136,-1.591628 -1.485394,-2.560417 -1.950628,-2.3551469 0.13653,-1.409753 1.317863,-1.0223442 2.181481,-1.810286 0.615901,-0.5619338 0.727231,-3.30758442 0.902316,-3.23755072 0.07003,0.1750846 -2.675618,0.2864139 -3.237551,0.9023161 C 65.28256,1.8097211 65.669969,2.9910547 64.260216,3.1275841 64.465486,2.6623507 63.496697,0.94082018 61.905069,1.1769564 c -1.997975,0.2964227 -2.072003,2.1070283 -1.473404,3.2058903 0.389263,-1.032705 0.890898,-1.111084 1.538174,-0.7680155 0.8139,0.4313825 0.534054,2.0216817 -0.361366,2.8862711"
         style="fill:#000000;stroke:#000000;stroke-width:0.1112323px;stroke-linecap:butt;stroke-linejoin:miter;stroke-opacity:1"
         id="path1737-3-5" />
      <path
         d="m 62.850738,72.244244 c 0.864588,0.895422 2.454889,1.175266 2.886272,0.361366 0.343068,-0.647277 0.264689,-1.148912 -0.768016,-1.538174 1.098863,-0.5986 2.909468,-0.524571 3.20589,1.473404 0.236137,1.591628 -1.485394,2.560417 -1.950628,2.355147 0.13653,1.409753 1.317864,1.022344 2.181481,1.810286 0.615901,0.561934 0.727231,3.307584 0.902316,3.237551 0.07003,-0.175085 -2.675618,-0.286414 -3.237551,-0.902317 -0.787942,-0.863617 -0.400533,-2.04495 -1.810286,-2.18148 0.20527,0.465234 -0.763519,2.186764 -2.355146,1.950628 -1.997976,-0.296423 -2.072004,-2.107028 -1.473405,-3.20589 0.389263,1.032705 0.890898,1.111084 1.538175,0.768015 0.813899,-0.431382 0.534054,-2.021682 -0.361366,-2.886271"
         style="fill:#000000;stroke:#000000;stroke-width:0.1112323px;stroke-linecap:butt;stroke-linejoin:miter;stroke-opacity:1"
         id="path1737-3-7" />
      <path
         d="M 6.513491,72.244245 C 5.648903,73.139667 4.058602,73.419511 3.62722,72.605611 3.284151,71.958334 3.36253,71.456699 4.395235,71.067437 c -1.098863,-0.5986 -2.909467,-0.524571 -3.20589,1.473404 -0.23613599,1.591628 1.485394,2.560417 1.950628,2.355147 -0.13653,1.409753 -1.317863,1.022344 -2.18148099,1.810286 -0.615901,0.561933 -0.727231,3.307584 -0.902316,3.23755 C -0.01385399,79.76874 2.731794,79.65741 3.293727,79.041508 4.081669,78.177891 3.69426,76.996557 5.104013,76.860028 4.898743,77.325261 5.867532,79.046792 7.45916,78.810656 9.457135,78.514233 9.531163,76.703627 8.932564,75.604765 8.543301,76.63747 8.041666,76.715849 7.39439,76.372781 6.58049,75.941398 6.860336,74.351099 7.755756,73.48651"
         style="fill:#000000;stroke:#000000;stroke-width:0.1112323px;stroke-linecap:butt;stroke-linejoin:miter;stroke-opacity:1"
         id="path1737-3-5-5" />
    </g>
    <path
       id="path1154-9"
       d="m 33.712865,7.4258691 c 0.536813,0 1.07363,0.00933 1.620386,0.01865 8.111875,0.1398689 16.174044,1.3707167 23.450873,3.5806479 3.439594,8.615932 4.277395,18.944521 4.277395,29.036812 0,10.092292 -0.917329,20.877786 -4.506039,29.596289 -7.157536,2.014114 -14.851888,3.03982 -22.884234,3.03982 -0.487111,0 -0.974221,-0.0094 -1.461331,-0.01865 H 34.040918 C 25.909161,72.53957 17.846991,71.308722 10.580105,69.089467 7.1504515,60.492184 6.3123238,50.163289 6.3123238,40.061979 c 0,-10.101311 0.9176558,-20.868461 4.4864832,-29.586965 6.690308,-1.8742449 14.046665,-2.9186005 21.472608,-3.0398203 0.47717,-0.00933 0.964281,-0.00933 1.44145,-0.00933 m 0,-0.9324602 c -0.487111,0 -0.974221,0 -1.46133,0.00933 C 24.785826,6.6239532 17.270413,7.686958 10.510517,9.5798526 L 10.043289,9.710397 9.8643508,10.139328 c -3.6085914,8.811751 -4.5231655,19.514693 -4.5231655,29.922651 0,10.407958 0.8350459,20.672644 4.294522,29.353849 l 0.1689973,0.419608 0.4572874,0.13987 c 7.326533,2.237904 15.537818,3.496724 23.749103,3.636593 h 0.188879 c 0.47717,0.0094 0.96428,0.01865 1.461331,0.01865 8.111875,0 15.905636,-1.035031 23.172525,-3.077119 l 0.467228,-0.130544 0.178938,-0.428932 c 3.618533,-8.793101 4.543048,-19.496959 4.543048,-29.931975 0,-10.435016 -0.835047,-20.672644 -4.304463,-29.363174 l -0.168997,-0.419609 -0.457288,-0.13987 C 51.74588,7.9107484 43.534594,6.6519271 35.353133,6.512058 34.776554,6.502738 34.249678,6.493409 33.712865,6.493409 Z"
       style="fill:#000000;stroke:none;stroke-width:1.78642213;stroke-miterlimit:4;stroke-dasharray:none" />
    <path
       id="path1154-9-3"
       d="m 33.712865,7.4258686 c 0.536813,0 1.07363,0.00933 1.620386,0.01865 8.111875,0.1398689 16.174044,1.3707167 23.450873,3.5806484 3.439594,8.615932 4.277395,18.944521 4.277395,29.036812 0,10.092292 -0.917329,20.877786 -4.506039,29.596288 -7.157536,2.014114 -14.851888,3.03982 -22.884234,3.03982 -0.487111,0 -0.974221,-0.0094 -1.461331,-0.01865 H 34.040918 C 25.909161,72.539569 17.846991,71.308722 10.580105,69.089466 7.1504515,60.492184 6.3123238,50.163288 6.3123238,40.061979 c 0,-10.101312 0.9176558,-20.868461 4.4864832,-29.586965 6.690308,-1.8742454 14.046665,-2.918601 21.472608,-3.0398208 0.47717,-0.00933 0.964281,-0.00933 1.44145,-0.00933 m 0,-0.9324602 c -0.487111,0 -0.974221,0 -1.46133,0.00933 C 24.785826,6.6239527 17.270413,7.6869575 10.510517,9.5798521 L 10.043289,9.7103965 9.8643508,10.139328 C 6.2557594,18.951079 5.3411853,29.65402 5.3411853,40.061979 c 0,10.407958 0.8350459,20.672643 4.294522,29.353849 l 0.1689973,0.419608 0.4572874,0.13987 c 7.326533,2.237904 15.537818,3.496724 23.749103,3.636593 h 0.188879 c 0.47717,0.0094 0.96428,0.01865 1.461331,0.01865 8.111875,0 15.905636,-1.035032 23.172525,-3.077119 l 0.467228,-0.130544 0.178938,-0.428932 c 3.618533,-8.793101 4.543048,-19.49696 4.543048,-29.931975 0,-10.435016 -0.835047,-20.672644 -4.304463,-29.363175 l -0.168997,-0.419609 -0.457288,-0.13987 C 51.74588,7.9107479 43.534594,6.6519266 35.353133,6.5120575 34.776554,6.5027375 34.249678,6.4934085 33.712865,6.4934085 Z"
       style="fill:#000000;stroke:none;stroke-width:1.78642213;stroke-miterlimit:4;stroke-dasharray:none" />
  </g>
</svg>
