<svg id="Capa_2" xmlns="http://www.w3.org/2000/svg" xmlns:xlink="http://www.w3.org/1999/xlink" viewBox="0 0 69.02 80">
<defs >
<style >
.cls-1{fill:#c89aed;}.cls-2{fill:#fff;}.cls-3{fill:#f8ffbf;}.cls-4{fill:#7b7be8;}.cls-5{fill:#a88347;}.cls-6{fill:#782ab5;}.cls-7{stroke-miterlimit:10;}.cls-7,.cls-8{stroke:#000;}.cls-7,.cls-8,.cls-9,.cls-10,.cls-11{fill:none;}.cls-8,.cls-9{stroke-linecap:round;stroke-linejoin:round;}.cls-9{stroke:#deb778;stroke-dasharray:0 0 0 4.06;}.cls-12{fill:#deb778;}.cls-13{fill:url(#USGS_19_Inundación_de_tierra_2);}.cls-11{stroke:#1d1d1b;stroke-dasharray:0 0 2 2;stroke-width:.3px;}.cls-14{fill:#cf5f2b;}.cls-15{fill:#ccbc64;}.cls-16{fill:#fcf0c5;}.cls-17{fill:#b83521;}
</style>
<pattern id="USGS_19_Inundación_de_tierra_2" x="0" y="0" width="72" height="72" patternTransform="translate(-236.48 -16999) rotate(-90)" patternUnits="userSpaceOnUse" viewBox="0 0 72 72">
<g >
<rect class="cls-10" width="72" height="72">
</rect>
<g >
<line class="cls-11" x1="71" y1="71" x2="144.44" y2="71">
</line>
<line class="cls-11" x1="71" y1="67" x2="144.44" y2="67">
</line>
<line class="cls-11" x1="71" y1="63" x2="144.44" y2="63">
</line>
<line class="cls-11" x1="71" y1="59" x2="144.44" y2="59">
</line>
<line class="cls-11" x1="71" y1="55" x2="144.44" y2="55">
</line>
<line class="cls-11" x1="71" y1="51" x2="144.44" y2="51">
</line>
<line class="cls-11" x1="71" y1="47" x2="144.44" y2="47">
</line>
<line class="cls-11" x1="71" y1="43" x2="144.44" y2="43">
</line>
<line class="cls-11" x1="71" y1="39" x2="144.44" y2="39">
</line>
<line class="cls-11" x1="71" y1="35" x2="144.44" y2="35">
</line>
<line class="cls-11" x1="71" y1="31" x2="144.44" y2="31">
</line>
<line class="cls-11" x1="71" y1="27" x2="144.44" y2="27">
</line>
<line class="cls-11" x1="71" y1="23" x2="144.44" y2="23">
</line>
<line class="cls-11" x1="71" y1="19" x2="144.44" y2="19">
</line>
<line class="cls-11" x1="71" y1="15" x2="144.44" y2="15">
</line>
<line class="cls-11" x1="71" y1="11" x2="144.44" y2="11">
</line>
<line class="cls-11" x1="71" y1="7" x2="144.44" y2="7">
</line>
<line class="cls-11" x1="71" y1="3" x2="144.44" y2="3">
</line>
</g>


<g >
<line class="cls-11" x1="-1" y1="71" x2="72.44" y2="71">
</line>
<line class="cls-11" x1="-1" y1="67" x2="72.44" y2="67">
</line>
<line class="cls-11" x1="-1" y1="63" x2="72.44" y2="63">
</line>
<line class="cls-11" x1="-1" y1="59" x2="72.44" y2="59">
</line>
<line class="cls-11" x1="-1" y1="55" x2="72.44" y2="55">
</line>
<line class="cls-11" x1="-1" y1="51" x2="72.44" y2="51">
</line>
<line class="cls-11" x1="-1" y1="47" x2="72.44" y2="47">
</line>
<line class="cls-11" x1="-1" y1="43" x2="72.44" y2="43">
</line>
<line class="cls-11" x1="-1" y1="39" x2="72.44" y2="39">
</line>
<line class="cls-11" x1="-1" y1="35" x2="72.44" y2="35">
</line>
<line class="cls-11" x1="-1" y1="31" x2="72.44" y2="31">
</line>
<line class="cls-11" x1="-1" y1="27" x2="72.44" y2="27">
</line>
<line class="cls-11" x1="-1" y1="23" x2="72.44" y2="23">
</line>
<line class="cls-11" x1="-1" y1="19" x2="72.44" y2="19">
</line>
<line class="cls-11" x1="-1" y1="15" x2="72.44" y2="15">
</line>
<line class="cls-11" x1="-1" y1="11" x2="72.44" y2="11">
</line>
<line class="cls-11" x1="-1" y1="7" x2="72.44" y2="7">
</line>
<line class="cls-11" x1="-1" y1="3" x2="72.44" y2="3">
</line>
<line class="cls-11" x1="1.04" y1="69" x2="74.48" y2="69">
</line>
<line class="cls-11" x1="1.04" y1="65" x2="74.48" y2="65">
</line>
<line class="cls-11" x1="1.04" y1="61" x2="74.48" y2="61">
</line>
<line class="cls-11" x1="1.04" y1="57" x2="74.48" y2="57">
</line>
<line class="cls-11" x1="1.04" y1="53" x2="74.48" y2="53">
</line>
<line class="cls-11" x1="1.04" y1="49" x2="74.48" y2="49">
</line>
<line class="cls-11" x1="1.04" y1="45" x2="74.48" y2="45">
</line>
<line class="cls-11" x1="1.04" y1="41" x2="74.48" y2="41">
</line>
<line class="cls-11" x1="1.04" y1="37" x2="74.48" y2="37">
</line>
<line class="cls-11" x1="1.04" y1="33" x2="74.48" y2="33">
</line>
<line class="cls-11" x1="1.04" y1="29" x2="74.48" y2="29">
</line>
<line class="cls-11" x1="1.04" y1="25" x2="74.48" y2="25">
</line>
<line class="cls-11" x1="1.04" y1="21" x2="74.48" y2="21">
</line>
<line class="cls-11" x1="1.04" y1="17" x2="74.48" y2="17">
</line>
<line class="cls-11" x1="1.04" y1="13" x2="74.48" y2="13">
</line>
<line class="cls-11" x1="1.04" y1="9" x2="74.48" y2="9">
</line>
<line class="cls-11" x1="1.04" y1="5" x2="74.48" y2="5">
</line>
<line class="cls-11" x1="1.04" y1="1" x2="74.48" y2="1">
</line>
</g>


<g >
<line class="cls-11" x1="-73" y1="71" x2=".44" y2="71">
</line>
<line class="cls-11" x1="-73" y1="67" x2=".44" y2="67">
</line>
<line class="cls-11" x1="-73" y1="63" x2=".44" y2="63">
</line>
<line class="cls-11" x1="-73" y1="59" x2=".44" y2="59">
</line>
<line class="cls-11" x1="-73" y1="55" x2=".44" y2="55">
</line>
<line class="cls-11" x1="-73" y1="51" x2=".44" y2="51">
</line>
<line class="cls-11" x1="-73" y1="47" x2=".44" y2="47">
</line>
<line class="cls-11" x1="-73" y1="43" x2=".44" y2="43">
</line>
<line class="cls-11" x1="-73" y1="39" x2=".44" y2="39">
</line>
<line class="cls-11" x1="-73" y1="35" x2=".44" y2="35">
</line>
<line class="cls-11" x1="-73" y1="31" x2=".44" y2="31">
</line>
<line class="cls-11" x1="-73" y1="27" x2=".44" y2="27">
</line>
<line class="cls-11" x1="-73" y1="23" x2=".44" y2="23">
</line>
<line class="cls-11" x1="-73" y1="19" x2=".44" y2="19">
</line>
<line class="cls-11" x1="-73" y1="15" x2=".44" y2="15">
</line>
<line class="cls-11" x1="-73" y1="11" x2=".44" y2="11">
</line>
<line class="cls-11" x1="-73" y1="7" x2=".44" y2="7">
</line>
<line class="cls-11" x1="-73" y1="3" x2=".44" y2="3">
</line>
<line class="cls-11" x1="-70.96" y1="69" x2="2.48" y2="69">
</line>
<line class="cls-11" x1="-70.96" y1="65" x2="2.48" y2="65">
</line>
<line class="cls-11" x1="-70.96" y1="61" x2="2.48" y2="61">
</line>
<line class="cls-11" x1="-70.96" y1="57" x2="2.48" y2="57">
</line>
<line class="cls-11" x1="-70.96" y1="53" x2="2.48" y2="53">
</line>
<line class="cls-11" x1="-70.96" y1="49" x2="2.48" y2="49">
</line>
<line class="cls-11" x1="-70.96" y1="45" x2="2.48" y2="45">
</line>
<line class="cls-11" x1="-70.96" y1="41" x2="2.48" y2="41">
</line>
<line class="cls-11" x1="-70.96" y1="37" x2="2.48" y2="37">
</line>
<line class="cls-11" x1="-70.96" y1="33" x2="2.48" y2="33">
</line>
<line class="cls-11" x1="-70.96" y1="29" x2="2.48" y2="29">
</line>
<line class="cls-11" x1="-70.96" y1="25" x2="2.48" y2="25">
</line>
<line class="cls-11" x1="-70.96" y1="21" x2="2.48" y2="21">
</line>
<line class="cls-11" x1="-70.96" y1="17" x2="2.48" y2="17">
</line>
<line class="cls-11" x1="-70.96" y1="13" x2="2.48" y2="13">
</line>
<line class="cls-11" x1="-70.96" y1="9" x2="2.48" y2="9">
</line>
<line class="cls-11" x1="-70.96" y1="5" x2="2.48" y2="5">
</line>
<line class="cls-11" x1="-70.96" y1="1" x2="2.48" y2="1">
</line>
</g>


</g>


</pattern>
</defs>



<g >
<path class="cls-1" d="M61.89,67.5l-3.4,7.07s-18.91,5.31-31.02,2.32c-12.1-3-19.45-5.72-19.45-5.72l-.13-4.89,16.05-7.89,.27-4.76-2.18-1.23-.68,2.86-5.57-.27s-2.05-4.22-.96-8.03c.44-.56,.68-.87,.81-1.03l.15-.19,.13-4.63s-2.04,2.04-4.35,1.36c2.04-3.13,2.17-4.21,1.49-7.75-.68-3.54-2.31-7.21,5.04-12.24-1.33-1.33-5.14,.07-5.3,.12,.22-.31,3.75-5.21,6.11-6.65,2.45-1.5,6.67-.68,9.25,0-2.31-3.4-4.62-5.44-4.62-5.44,0,0,4.49,1.49,7.62,.95,3.13-.55,6.8,1.22,9.52,4.89,.65-2.33-.07-4.67-.13-4.88,.29,.18,4.83,3.15,7.47,4.2,2.72,1.09,5.58,4.22,3.81,9.66,3-1.9,3.68-3.26,3.68-3.26,0,0,0,3.26,1.08,6.66,1.09,3.4-.23,6.28-3.12,8.3,1.49,2.99,.27,4.63-1.09,6.39-1.36,1.77-.82,2.18-.82,2.18l.49,.32,1.14,.77s1.09,6.12-1.49,8.57c-4.49,.68-5.72-.27-5.72-.27l-.54-2.59-1.63,1.5v4.62l18.09,8.98Z">
</path>
<path class="cls-2" d="M33.8,52.3v-18.25c0-3.9,3.81-6.77,7.51-5.54,.04,.01,.08,.03,.12,.04,4.09,1.42,5.11,2.12,6.61,4.25s.39,8.89-.31,11.72-1.95,7.74-1.95,7.74l-7.26,5.08h0c-2.66-.18-4.72-2.38-4.72-5.05Z">
</path>
<path class="cls-4" d="M38.29,39.64l-2.28-5.91s5.03-.85,6.56-.63c2.53,.86,3.46,.97,3.46,.97l.15,4.18s-4.55-.6-7.88,1.39Z">
</path>
<path class="cls-4" d="M29.22,39.68l2.47-5.83s-5.42-1.31-6.96-1.08c-2.53,.86-3.12,1.76-3.12,1.76l-.09,3.84s4.37-.67,7.7,1.32Z">
</path>
<path d="M21.6,34.39l1.99-2.01s.14-.06,.15-.07c2.44-.7,4.96-.44,7.38,.17,0,0-.63,1.9-.63,1.9-2.01-.8-4.29-1.33-6.44-1.01,0,0,.15-.07,.15-.07l-2.61,1.1h0Z">
</path>
<path d="M45.75,34.39l-2.61-1.1,.15,.07c-2.15-.31-4.43,.21-6.44,1.01,0,0-.63-1.9-.63-1.9,2.42-.61,4.94-.87,7.38-.17,0,0,.15,.06,.15,.07,0,0,1.99,2.01,1.99,2.01h0Z">
</path>
<path class="cls-17" d="M56.58,28.73c1.09,3.4-.09,5.94-3.12,8.3,1.49,2.99,.27,4.63-1.09,6.39-1.36,1.77-.82,2.18-.82,2.18l.49,.32-.06,.03-4.33,.14s1.52-6.13,1.3-8.8c-.21-2.67-2.52-6.78-2.52-6.78,0,0-2.24,.58-1.23,3.03-4.33-.43-4.83-1.95-3.9-4.47-2.02-.87-3.03-1.01-3.96,.64-.94,1.66,0,4.19-.87,4.77-.86,.57-5.12-.08-5.48,1.73-1.3-2.31-.87-3.68,.43-3.9,1.3-.21,3.18,.29,2.31-4.25-2.38,2.74-6.2,.64-7.65,1.44-1.44,.79-1.66,2.88-.79,4.4-2.67-.36-3.61-3.03-3.61-3.03,0,0-2.23,1.73-2.88,3.82-.65,2.09-1.09,6.13,.86,11.11,0,0-2.89-.06-4.03,.13l.15-.19,.13-4.63s-2.04,2.04-4.35,1.36c2.04-3.13,2.17-4.21,1.49-7.75-.68-3.54-2.31-7.21,5.04-12.24-1.33-1.33-5.14,.07-5.3,.12,.22-.31,3.75-5.21,6.11-6.65,2.45-1.5,6.67-.68,9.25,0-2.31-3.4-4.62-5.44-4.62-5.44,0,0,4.49,1.49,7.62,.95,3.13-.55,6.8,1.22,9.52,4.89,.65-2.33-.07-4.67-.13-4.88,.29,.18,4.83,3.15,7.47,4.2,2.72,1.09,5.58,4.22,3.81,9.66,3-1.9,3.68-3.26,3.68-3.26,0,0,0,3.26,1.08,6.66Z">
</path>
<path class="cls-4" d="M58.52,39.86l-.08,.13h0c-.06,.08-.09,.11-.1,.12,.01-.03,.12-.18,.18-.25Z">
</path>
<polygon points="43.3 54.69 23.94 74.61 9.25 71.6 8.81 65.6 23.94 58.39 24.21 53.63 29.28 57.14 38.85 57.14 43.3 54.69">
</polygon>
<path class="cls-5" d="M19.96,45.8s-3.09-.46-5.14,1.16c-.84,3.47,.48,7.04,.96,8.03,2.69,1.06,5.6-.15,5.6-.15l.43-3.06-1.85-5.98Z">
</path>
<path class="cls-5" d="M47.86,45.8s3.09-.46,5.14,1.16c.84,3.47-.48,7.04-.96,8.03-2.69,1.06-5.6-.15-5.6-.15l-.43-3.06,1.85-5.98Z">
</path>
<path class="cls-3" d="M29.22,39.68s-2.72-1.98-6.87-.95c2.1,2.35,5.93,2.47,6.87,.95Z">
</path>
<path class="cls-4" d="M29.22,39.68s.02-3.32-1.71-4.05c-1.67-.47-4.7,2.56-4.7,2.56,0,0,4.2,.1,6.41,1.49Z">
</path>
<path class="cls-3" d="M38.29,39.64s2.9-2.05,7.06-1.02c-2.1,2.35-6.11,2.54-7.06,1.02Z">
</path>
<path class="cls-4" d="M38.26,39.74s.22-3.45,1.94-4.18c1.67-.47,4.7,2.56,4.7,2.56,0,0-4.44,.24-6.65,1.62Z">
</path>
<path class="cls-15" d="M46.94,48.12s3.23,2.53,6.09,0c.04,3.36-.54,4.81-.54,4.81,0,0-4.6-1.33-6.71-.66,.95-2.65,1.16-4.14,1.16-4.14Z">
</path>
<path class="cls-15" d="M14.61,48.8s3.76,1.65,5.9-1.5c.87,3.24,.66,4.79,.66,4.79,0,0-4.78-.15-6.67,1.01,.27-2.8,.1-4.3,.1-4.3Z">
</path>
<circle class="cls-17" cx="18.11" cy="50.68" r="1.12">
</circle>
<circle class="cls-17" cx="49.19" cy="50.68" r="1.12">
</circle>
<path d="M54.99,23.33s.45,6.67-2.63,9.19c.73-2.02,.5-4.31,.5-4.31,0,0-1.06,3.98-5.49,3.36,2.63,3.98,1.57,8.4,1.06,10.14s-1.12,4.59-1.12,4.59c0,0,2.41-.95,4.2-.5,.73-2.86,3.95-6.49,1.95-8.76,3.6-2.44,3.71-6.02,3.15-7.87s-1.62-5.83-1.62-5.83Z">
</path>
<path class="cls-2" d="M42.36,57.31l-9.98,10.35s10.5,.81,16.33-4.88c-4.07-2.14-6.36-3.7-6.36-3.7v-1.77Z">
</path>
<path class="cls-1" d="M46.24,30.94c-.36,.23-.83,.62-.89,1.08-.07,.52,.43,1.05,.86,1.4,.16,.13,.22,.35,.15,.55-.06,.19-.24,.33-.44,.34-.11,0-.21,.01-.32,.01-1.74,0-3.86-.61-4.74-2.04-.38-.64-.66-1.68,.05-3.14-.54-.36-1.03-.54-1.47-.54-.26,0-.5,.06-.72,.19-1.08,.62-1.6,2.6-1.47,3.65,.12,.97-.15,1.82-.74,2.38-.44,.41-1.04,.64-1.69,.64-.18,0-.38-.02-.57-.06-.14-.03-.29-.06-.45-.08l-.52,1.02c.09,.01,.7,.03,.78,.04,.25,.05,.51,.08,.76,.08,.9,0,1.74-.32,2.38-.91,.82-.78,1.2-1.96,1.04-3.23-.1-.82,.37-2.32,.97-2.66,.08-.04,.15-.06,.23-.06,.06,0,.13,.01,.21,.03-.4,1.4-.06,2.47,.36,3.17,1.13,1.86,3.72,2.52,5.59,2.52,.12,0,.24-.01,.37-.01,.46-.02,.88-.26,1.13-.61,.4,1.17,.63,2.58,.4,4.11-.35,2.25-1.38,6.5-3.09,12.61l-6.2,4.25h-4.92l-.27,1h5.5l6.76-4.63c1.77-6.34,2.85-10.74,3.21-13.08,.59-3.88-1.51-7.05-2.25-8.02Z">
</path>
<path class="cls-14" d="M21.27,18.14s3.13-1.73,7.39,0c-2.4,1.4-2.73,2.07-2.73,2.07,0,0,8.59-1.8,12.66-1.07-1.2,2.4,1.07,2.66,1.07,2.66,0,0,9.66-1,6.2-4.66,4.46,1,5.93,5.4,3.46,9.46-.8-3.46-4.33-4.66-9.93-2.4-5.26,1.6-3.46-3.33-3.46-3.33,0,0-8.93-.4-14.46,3.2,1.53-4.66,4.33-5.66,4.33-5.66,0,0-1.07-.93-4.53-.27Z">
</path>
<path class="cls-8" d="M15.39,45.94s-.18-3.64,1.18-5.37c-3.09,2.64-5.19,1.73-5.19,1.73,0,0,2.91-1.82,1.64-6.83s-2.09-8.46,4.91-12.92c-1.55-1.37-5.37,.09-5.37,.09,0,0,2.55-2.82,4.64-5.28s7.92-3.37,11.19-1.18c-.73-2.46-5.1-4.55-5.28-6.1,4.1,2.09,9.92,.64,12.74,1.82s5.46,5.01,5.46,5.01c0,0-.18-3.28-1-5.73,2.64,2.82,7.74,2.91,10.56,6.73s.36,8.19,.36,8.19c0,0,3-2.18,4.19-4-.46,4.37,4.19,10.74-2.28,14.83,2.82,3.55-1.73,5.82-1.73,9.01">
</path>
<path class="cls-8" d="M26.3,25.21s-3.37,.55-4.33,3.51c-.96,2.82,1.86,5.15,3.65,5.15-2.07-2.33-.49-4.05,1.37-4.46,1.86-.42,5.09,1.03,6.74-1.45,.54,3.3,.75,4.26-1.24,4.33-2,.07-3.37,1.65-.96,4.81-.49-2.61,1.37-2.47,2.81-2.19,1.45,.27,2.62-.69,2.41-2.41s1.17-6.32,4.81-3.51c-2.06,3.51,1.72,4.95,4.33,4.82-2.61-2.14,.48-3.51,.48-3.51,0,0,3.37,3.78,2.61,8.73-.47,3.11-2.12,9.22-3.27,13.32l-7.04,4.82h-9.62l-7.23-4.95c-1.42-4.1-3.52-10.59-3.7-13.74-.27-4.81,3.37-7.63,3.37-7.63">
</path>
<path class="cls-8" d="M19.65,46.01s-2.16-.8-4.88,.57c-1.14,5.06,.97,8.58,.97,8.58,0,0,2.04,.97,5.62-.11,.4-1.36,.47-2.82,.47-2.82">
</path>
<path class="cls-8" d="M47.87,46.01s2.16-.8,4.88,.57c1.14,5.06-.97,8.58-.97,8.58,0,0-2.04,.97-5.62-.11-.4-1.36-.47-2.82-.47-2.82">
</path>
<path d="M18.03,49.73c.49,0,.88,.4,.88,.88s-.4,.88-.88,.88-.88-.4-.88-.88,.4-.88,.88-.88m0-1c-1.04,0-1.88,.84-1.88,1.88s.84,1.88,1.88,1.88,1.88-.84,1.88-1.88-.84-1.88-1.88-1.88h0Z">
</path>
<path d="M49.4,49.73c.49,0,.88,.4,.88,.88s-.4,.88-.88,.88-.88-.4-.88-.88,.4-.88,.88-.88m0-1c-1.04,0-1.88,.84-1.88,1.88s.84,1.88,1.88,1.88,1.88-.84,1.88-1.88-.84-1.88-1.88-1.88h0Z">
</path>
<path d="M29.25,39.86c-.18-3.16-1.95-5.18-4.78-2.67-.84,.57-1.48,1.47-2.67,1.55,0,0,.4-.67,.4-.67,.85,1.5,2.63,2.24,4.32,2.55-.91,.1-1.86,0-2.77-.32-1.15-.36-2.12-1.3-2.71-2.39,0,0,.8-.06,.8-.06,.47-.07,1.56-1.11,2.01-1.45,3.26-2.82,6.23-.48,5.39,3.46h0Z">
</path>
<path d="M21.98,38.03c2.05-.16,4.18,.11,5.99,1.07-1.88-.62-3.93-.55-5.81-.09-.69,.17-.89-.91-.18-.99h0Z">
</path>
<path d="M38.28,39.86c-.84-3.94,2.13-6.27,5.39-3.46,.45,.34,1.54,1.38,2.01,1.45,0,0,.8,.06,.8,.06-.59,1.08-1.56,2.03-2.71,2.39-.9,.31-1.85,.42-2.77,.32,1.68-.31,3.46-1.05,4.32-2.55,0,0,.4,.67,.4,.67-1.19-.09-1.83-.98-2.67-1.55-2.82-2.5-4.6-.48-4.78,2.67h0Z">
</path>
<path d="M45.36,39.01c-1.88-.46-3.93-.53-5.8,.09,1.82-.96,3.94-1.23,5.99-1.07,.28,.03,.48,.27,.45,.55-.03,.31-.34,.53-.64,.44h0Z">
</path>
<path d="M36.27,42.06c.16,.58,.34,1.15,.62,1.66,0,0-.14,.09-.14,.09l-2.72,1.71s-.18,.04-.22,.05c0,0,0-1,0-1,.02-.02,0,1,0,1-.12,.01-.12,.03-.22-.05,0,0-2.72-1.71-2.72-1.71l-.14-.09,.07-.13c.25-.47,.42-1,.57-1.53-.04,.55-.09,1.11-.25,1.67l-.08-.22,2.98,1.11s-.25-.05-.2-.05c0,0,0,1,0,1-.03,.02,0-1,0-1,.05,0-.21,.05-.2,.05,0,0,2.98-1.11,2.98-1.11l-.08,.21c-.16-.56-.21-1.11-.24-1.66h0Z">
</path>
<path d="M21.09,43.45c.67,1.54,1.98,2.73,3.44,3.45,0,0,1.21,4.75,1.21,4.75,0,.04-.05,.07-.07,.02-.88-1.41-1.42-3-1.86-4.59,0,0,.38,.45,.38,.45-1.63-.74-2.95-2.26-3.17-4.05-.01-.04,.05-.07,.07-.03h0Z">
</path>
<path d="M46.56,43.47c-.6,1.45-2.09,3.01-3.37,3.46,0,0-1.28,4.74-1.28,4.74-.01,.04-.08,.03-.07-.02-.07-1.77,.27-3.51,.71-5.22,1.54-.62,2.85-1.73,3.94-2.98,.02-.04,.09-.02,.07,.03h0Z">
</path>
<path class="cls-17" d="M29.3,49.26s.85,1.79,2.27,2.95c.96,.16,2.63,.32,4.32-.03h0c1.38-1.17,2.21-2.92,2.21-2.92l-4.44-.95-4.37,.95Z">
</path>
<path class="cls-2" d="M31.38,49.19s.59,1.28,2.38,1.28,2.29-1.51,2.29-1.51c0,0-2.29-1.51-4.67,.24Z">
</path>
<path d="M33.85,48.85h.01c.95,.06,2,.31,2.93,.68,1.55,.63,2.3-.66,2.3-.66,0,0-.72,.21-1.67-.87-.8-.89-2.13-1.72-3.57-1.21-1.44-.51-2.77,.32-3.57,1.21-.95,1.08-1.66,.87-1.66,.87,0,0,.74,1.29,2.29,.66,.93-.37,1.98-.62,2.94-.68h.01">
</path>
<path class="cls-8" d="M23.85,53.6v5.01s-6.22,3.62-14.98,7.04">
</path>
<path class="cls-8" d="M43.67,53.85v4.76s6.22,3.62,14.98,7.04">
</path>
<path class="cls-8" d="M16.64,62.48s3.86,6.82,16.32,6.82,17.13-5.12,17.73-6.97">
</path>
<path class="cls-17" d="M24.66,56.34c.27,.98,.48,1.96,.63,2.95-4.39,2.81-9.13,5.08-14.2,6.35,0,0-.04-.09-.04-.09l6.81-3.32s7.03-3.42,6.8-3.2c0,0-.1-2.7-.1-2.7h.1Z">
</path>
<path d="M26.53,25.13s-4.28-.54-8.14,3.59c-2.14-3.59-.02-5.88-.02-5.88,0,0-6.19,2.67-6.03,6.79s2.03,9.96-.32,12.64c2.95-.96,4.18-1.45,4.18-1.45,0,0-1.45,3.53-.7,5.19,3-1.02,4.44,.05,4.44,.05,0,0-1.77-6.27-2.09-8.89s4.07-6.69,4.07-6.69c0,0-1.07-3.75,4.61-5.35Z">
</path>
</g>




 <g
     id="g2850">
    <g
       id="g2837">
      <path
         id="path1951"
         d="M 0.056640625 0.04296875 L 0.056640625 79.943359 L 69.308594 79.943359 L 69.308594 0.04296875 L 0.056640625 0.04296875 z M 33.615234 3.5957031 C 34.206332 3.5957038 34.786991 3.6051034 35.421875 3.6152344 C 44.430653 3.7671809 53.471255 5.1336733 61.560547 7.5546875 L 62.064453 7.7070312 L 62.25 8.1640625 C 66.070247 17.605006 66.990234 28.726438 66.990234 40.0625 C 66.990234 51.398562 65.972723 63.025755 61.988281 72.578125 L 61.791016 73.044922 L 61.275391 73.185547 C 53.273669 75.403966 44.691921 76.529297 35.759766 76.529297 C 35.212453 76.529297 34.675812 76.519896 34.150391 76.509766 L 33.943359 76.509766 C 24.901742 76.357819 15.860367 74.989738 7.7929688 72.558594 L 7.2890625 72.40625 L 7.1035156 71.951172 C 3.2942144 62.520359 2.375 51.369168 2.375 40.0625 C 2.375 28.755832 3.3819737 17.127318 7.3554688 7.5546875 L 7.5527344 7.0898438 L 8.0664062 6.9472656 C 15.509867 4.890923 23.785212 3.7371557 32.005859 3.6054688 C 32.542226 3.5953387 33.078867 3.5957031 33.615234 3.5957031 z "
         style="opacity:1;vector-effect:none;fill:#ffffff;fill-opacity:1;fill-rule:nonzero;stroke:none;stroke-width:1.95200002;stroke-linecap:butt;stroke-linejoin:miter;stroke-miterlimit:4;stroke-dasharray:none;stroke-dashoffset:0;stroke-opacity:1" />
    </g>
    <path
       id="path1154-8-2"
       d="m 33.675163,6.6112954 c 0.557696,0 1.115392,0.00956 1.683415,0.019115 8.427403,0.14336 16.803167,1.4049288 24.363042,3.6700176 3.573384,8.830981 4.443772,19.417362 4.443772,29.761551 0,10.344189 -0.95301,21.39888 -4.68131,30.334991 -7.435942,2.064385 -15.429581,3.274388 -23.774362,3.274388 -0.506058,0 -1.012115,-0.0096 -1.518172,-0.01911 h -0.17557 C 25.56792,73.508883 17.192156,72.088619 9.6426089,69.813973 6.0795528,61.002107 5.2088244,50.415411 5.2088244,40.061979 c 0,-10.353432 0.95335,-21.389323 4.6609939,-30.325434 C 16.820359,7.8155201 24.462856,6.7450981 32.177647,6.6208528 c 0.49573,-0.00956 1.001787,-0.00956 1.497516,-0.00956 m 0,-0.9557337 c -0.506057,0 -1.012114,0 -1.518171,0.00956 C 24.40089,5.7893644 16.593149,6.8789009 9.570315,8.8190405 L 9.0849131,8.9528432 8.8990146,9.3924808 C 5.1500599,18.424166 4.1999116,29.394246 4.1999116,40.061979 c 0,10.667733 0.8675267,21.188618 4.461566,30.0865 l 0.1755708,0.430081 0.4750741,0.14336 c 7.6115135,2.293761 16.1421925,3.584001 24.6728715,3.727361 h 0.196227 c 0.495729,0.0096 1.001786,0.01911 1.518171,0.01911 8.427403,0 16.524318,-1.060864 24.073866,-3.153921 l 0.485403,-0.133802 0.185898,-0.439639 c 3.759282,-9.01257 4.719759,-19.983589 4.719759,-30.679055 0,-10.695466 -0.867528,-21.188618 -4.471894,-30.0960578 L 60.516853,9.5358409 60.041779,9.3924808 C 52.409609,7.108277 43.87893,5.8180364 35.379234,5.6746763 34.780227,5.6651187 34.232859,5.6555621 33.675163,5.6555615 Z"
       style="fill:#ff0000;stroke:#ffffff;stroke-width:1.84341729;stroke-miterlimit:4;stroke-dasharray:none" />
    <path
       id="path1154"
       d="m 33.614853,4.6077955 c 0.591098,0 1.182197,0.01013 1.784241,0.02026 8.932155,0.1519464 17.809578,1.4890758 25.822246,3.8898304 3.787408,9.3599041 4.709928,20.5803481 4.709928,31.5440931 0,10.963745 -1.01009,22.680548 -4.961693,32.151879 -7.881312,2.18803 -16.353723,3.302304 -25.198307,3.302304 -0.536368,0 -1.072735,-0.01013 -1.609102,-0.02026 H 33.97608 C 25.022033,75.343956 16.14461,74.006827 8.1428892,71.595943 4.3664269,62.256298 3.443547,51.035521 3.443547,40.061979 c 0,-10.973542 1.01045,-22.670418 4.9401601,-32.1417498 7.3668369,-2.036083 15.4670749,-3.170617 23.6439369,-3.3023039 0.525421,-0.01013 1.061788,-0.01013 1.587209,-0.01013 m 0,-1.0129766 c -0.536367,0 -1.072734,0 -1.609101,0.01013 C 23.785105,3.7366356 15.509726,4.891429 8.0662653,6.9477716 L 7.5517907,7.0895883 7.3547579,7.5555576 C 3.3812628,17.128188 2.3742062,28.755311 2.3742062,40.061979 c 0,11.306668 0.9194864,22.457692 4.7287876,31.888505 l 0.1860865,0.45584 0.5035283,0.151947 c 8.0673984,2.431144 17.1090154,3.798662 26.1506324,3.950608 h 0.207979 c 0.525421,0.01013 1.061788,0.02026 1.609101,0.02026 8.932155,0 17.514028,-1.124404 25.51575,-3.342823 l 0.514475,-0.141816 0.197032,-0.46597 c 3.984442,-9.55237 5.002445,-21.180489 5.002445,-32.516551 0,-11.336062 -0.919487,-22.457692 -4.739734,-31.8986353 L 62.064202,7.7075041 61.560674,7.5555576 C 53.471382,5.1345434 44.429765,3.7670249 35.420987,3.6150784 c -0.634884,-0.01013 -1.215036,-0.020259 -1.806134,-0.02026 z"
       style="fill:#000000;stroke:#000000;stroke-width:1.95382714;stroke-miterlimit:4;stroke-dasharray:none" />
    <g
       id="g1810">
      <path
         d="M 6.5134911,7.7433673 C 5.6489029,6.8479453 4.058602,6.5681013 3.6272194,7.3820013 3.284151,8.0292783 3.3625296,8.5309135 4.395235,8.9201755 3.2963719,9.5187755 1.4857674,9.4447465 1.1893447,7.4467713 0.95320848,5.8551433 2.674739,4.8863543 3.1399725,5.0916244 3.0034432,3.6818714 1.8221094,4.0692802 0.95849208,3.2813384 0.34259068,2.7194046 0.23126071,-0.02624603 0.0561761,0.04378767 -0.0138576,0.21887227 2.7317937,0.33020157 3.2937267,0.94610377 4.0816685,1.8097211 3.6942598,2.9910547 5.1040128,3.1275841 4.8987425,2.6623507 5.8675315,0.94082017 7.4591593,1.1769564 9.4571345,1.4733791 9.5311625,3.2839847 8.9325635,4.3828467 8.5433008,3.3501417 8.041666,3.2717627 7.3943894,3.6148312 6.5804899,4.0462137 6.8603354,5.6365129 7.7557553,6.5011023"
         style="fill:#000000;stroke:#000000;stroke-width:0.1112323px;stroke-linecap:butt;stroke-linejoin:miter;stroke-opacity:1"
         id="path1737-3" />
      <path
         d="m 62.850738,7.7433673 c 0.864588,-0.895422 2.454889,-1.175266 2.886271,-0.361366 0.343069,0.647277 0.26469,1.148912 -0.768015,1.538174 1.098863,0.5986 2.909467,0.524571 3.20589,-1.473404 0.236136,-1.591628 -1.485394,-2.560417 -1.950628,-2.3551469 0.13653,-1.409753 1.317863,-1.0223442 2.181481,-1.810286 0.615901,-0.5619338 0.727231,-3.30758442 0.902316,-3.23755072 0.07003,0.1750846 -2.675618,0.2864139 -3.237551,0.9023161 C 65.28256,1.8097211 65.669969,2.9910547 64.260216,3.1275841 64.465486,2.6623507 63.496697,0.94082018 61.905069,1.1769564 c -1.997975,0.2964227 -2.072003,2.1070283 -1.473404,3.2058903 0.389263,-1.032705 0.890898,-1.111084 1.538174,-0.7680155 0.8139,0.4313825 0.534054,2.0216817 -0.361366,2.8862711"
         style="fill:#000000;stroke:#000000;stroke-width:0.1112323px;stroke-linecap:butt;stroke-linejoin:miter;stroke-opacity:1"
         id="path1737-3-5" />
      <path
         d="m 62.850738,72.244244 c 0.864588,0.895422 2.454889,1.175266 2.886272,0.361366 0.343068,-0.647277 0.264689,-1.148912 -0.768016,-1.538174 1.098863,-0.5986 2.909468,-0.524571 3.20589,1.473404 0.236137,1.591628 -1.485394,2.560417 -1.950628,2.355147 0.13653,1.409753 1.317864,1.022344 2.181481,1.810286 0.615901,0.561934 0.727231,3.307584 0.902316,3.237551 0.07003,-0.175085 -2.675618,-0.286414 -3.237551,-0.902317 -0.787942,-0.863617 -0.400533,-2.04495 -1.810286,-2.18148 0.20527,0.465234 -0.763519,2.186764 -2.355146,1.950628 -1.997976,-0.296423 -2.072004,-2.107028 -1.473405,-3.20589 0.389263,1.032705 0.890898,1.111084 1.538175,0.768015 0.813899,-0.431382 0.534054,-2.021682 -0.361366,-2.886271"
         style="fill:#000000;stroke:#000000;stroke-width:0.1112323px;stroke-linecap:butt;stroke-linejoin:miter;stroke-opacity:1"
         id="path1737-3-7" />
      <path
         d="M 6.513491,72.244245 C 5.648903,73.139667 4.058602,73.419511 3.62722,72.605611 3.284151,71.958334 3.36253,71.456699 4.395235,71.067437 c -1.098863,-0.5986 -2.909467,-0.524571 -3.20589,1.473404 -0.23613599,1.591628 1.485394,2.560417 1.950628,2.355147 -0.13653,1.409753 -1.317863,1.022344 -2.18148099,1.810286 -0.615901,0.561933 -0.727231,3.307584 -0.902316,3.23755 C -0.01385399,79.76874 2.731794,79.65741 3.293727,79.041508 4.081669,78.177891 3.69426,76.996557 5.104013,76.860028 4.898743,77.325261 5.867532,79.046792 7.45916,78.810656 9.457135,78.514233 9.531163,76.703627 8.932564,75.604765 8.543301,76.63747 8.041666,76.715849 7.39439,76.372781 6.58049,75.941398 6.860336,74.351099 7.755756,73.48651"
         style="fill:#000000;stroke:#000000;stroke-width:0.1112323px;stroke-linecap:butt;stroke-linejoin:miter;stroke-opacity:1"
         id="path1737-3-5-5" />
    </g>
    <path
       id="path1154-9"
       d="m 33.712865,7.4258691 c 0.536813,0 1.07363,0.00933 1.620386,0.01865 8.111875,0.1398689 16.174044,1.3707167 23.450873,3.5806479 3.439594,8.615932 4.277395,18.944521 4.277395,29.036812 0,10.092292 -0.917329,20.877786 -4.506039,29.596289 -7.157536,2.014114 -14.851888,3.03982 -22.884234,3.03982 -0.487111,0 -0.974221,-0.0094 -1.461331,-0.01865 H 34.040918 C 25.909161,72.53957 17.846991,71.308722 10.580105,69.089467 7.1504515,60.492184 6.3123238,50.163289 6.3123238,40.061979 c 0,-10.101311 0.9176558,-20.868461 4.4864832,-29.586965 6.690308,-1.8742449 14.046665,-2.9186005 21.472608,-3.0398203 0.47717,-0.00933 0.964281,-0.00933 1.44145,-0.00933 m 0,-0.9324602 c -0.487111,0 -0.974221,0 -1.46133,0.00933 C 24.785826,6.6239532 17.270413,7.686958 10.510517,9.5798526 L 10.043289,9.710397 9.8643508,10.139328 c -3.6085914,8.811751 -4.5231655,19.514693 -4.5231655,29.922651 0,10.407958 0.8350459,20.672644 4.294522,29.353849 l 0.1689973,0.419608 0.4572874,0.13987 c 7.326533,2.237904 15.537818,3.496724 23.749103,3.636593 h 0.188879 c 0.47717,0.0094 0.96428,0.01865 1.461331,0.01865 8.111875,0 15.905636,-1.035031 23.172525,-3.077119 l 0.467228,-0.130544 0.178938,-0.428932 c 3.618533,-8.793101 4.543048,-19.496959 4.543048,-29.931975 0,-10.435016 -0.835047,-20.672644 -4.304463,-29.363174 l -0.168997,-0.419609 -0.457288,-0.13987 C 51.74588,7.9107484 43.534594,6.6519271 35.353133,6.512058 34.776554,6.502738 34.249678,6.493409 33.712865,6.493409 Z"
       style="fill:#000000;stroke:none;stroke-width:1.78642213;stroke-miterlimit:4;stroke-dasharray:none" />
    <path
       id="path1154-9-3"
       d="m 33.712865,7.4258686 c 0.536813,0 1.07363,0.00933 1.620386,0.01865 8.111875,0.1398689 16.174044,1.3707167 23.450873,3.5806484 3.439594,8.615932 4.277395,18.944521 4.277395,29.036812 0,10.092292 -0.917329,20.877786 -4.506039,29.596288 -7.157536,2.014114 -14.851888,3.03982 -22.884234,3.03982 -0.487111,0 -0.974221,-0.0094 -1.461331,-0.01865 H 34.040918 C 25.909161,72.539569 17.846991,71.308722 10.580105,69.089466 7.1504515,60.492184 6.3123238,50.163288 6.3123238,40.061979 c 0,-10.101312 0.9176558,-20.868461 4.4864832,-29.586965 6.690308,-1.8742454 14.046665,-2.918601 21.472608,-3.0398208 0.47717,-0.00933 0.964281,-0.00933 1.44145,-0.00933 m 0,-0.9324602 c -0.487111,0 -0.974221,0 -1.46133,0.00933 C 24.785826,6.6239527 17.270413,7.6869575 10.510517,9.5798521 L 10.043289,9.7103965 9.8643508,10.139328 C 6.2557594,18.951079 5.3411853,29.65402 5.3411853,40.061979 c 0,10.407958 0.8350459,20.672643 4.294522,29.353849 l 0.1689973,0.419608 0.4572874,0.13987 c 7.326533,2.237904 15.537818,3.496724 23.749103,3.636593 h 0.188879 c 0.47717,0.0094 0.96428,0.01865 1.461331,0.01865 8.111875,0 15.905636,-1.035032 23.172525,-3.077119 l 0.467228,-0.130544 0.178938,-0.428932 c 3.618533,-8.793101 4.543048,-19.49696 4.543048,-29.931975 0,-10.435016 -0.835047,-20.672644 -4.304463,-29.363175 l -0.168997,-0.419609 -0.457288,-0.13987 C 51.74588,7.9107479 43.534594,6.6519266 35.353133,6.5120575 34.776554,6.5027375 34.249678,6.4934085 33.712865,6.4934085 Z"
       style="fill:#000000;stroke:none;stroke-width:1.78642213;stroke-miterlimit:4;stroke-dasharray:none" />
  </g>
</svg>
