<svg id="Capa_2" xmlns="http://www.w3.org/2000/svg" xmlns:xlink="http://www.w3.org/1999/xlink" viewBox="0 0 69.02 80">
<defs >
<style >
.cls-1{fill:#c89aed;}.cls-2{fill:#fff;}.cls-3{fill:#f8ffbf;}.cls-4{fill:#7b7be8;}.cls-5{fill:#a88347;}.cls-6{fill:#782ab5;}.cls-7{stroke-miterlimit:10;}.cls-7,.cls-8{stroke:#000;}.cls-7,.cls-8,.cls-9,.cls-10,.cls-11{fill:none;}.cls-8,.cls-9{stroke-linecap:round;stroke-linejoin:round;}.cls-9{stroke:#deb778;stroke-dasharray:0 0 0 4.06;}.cls-12{fill:#deb778;}.cls-13{fill:url(#USGS_19_Inundación_de_tierra_2);}.cls-11{stroke:#1d1d1b;stroke-dasharray:0 0 2 2;stroke-width:.3px;}.cls-14{fill:#cf5f2b;}.cls-15{fill:#ccbc64;}.cls-16{fill:#fcf0c5;}.cls-17{fill:#b83521;}
</style>
<pattern id="USGS_19_Inundación_de_tierra_2" x="0" y="0" width="72" height="72" patternTransform="translate(-236.48 -16999) rotate(-90)" patternUnits="userSpaceOnUse" viewBox="0 0 72 72">
<g >
<rect class="cls-10" width="72" height="72">
</rect>
<g >
<line class="cls-11" x1="71" y1="71" x2="144.44" y2="71">
</line>
<line class="cls-11" x1="71" y1="67" x2="144.44" y2="67">
</line>
<line class="cls-11" x1="71" y1="63" x2="144.44" y2="63">
</line>
<line class="cls-11" x1="71" y1="59" x2="144.44" y2="59">
</line>
<line class="cls-11" x1="71" y1="55" x2="144.44" y2="55">
</line>
<line class="cls-11" x1="71" y1="51" x2="144.44" y2="51">
</line>
<line class="cls-11" x1="71" y1="47" x2="144.44" y2="47">
</line>
<line class="cls-11" x1="71" y1="43" x2="144.44" y2="43">
</line>
<line class="cls-11" x1="71" y1="39" x2="144.44" y2="39">
</line>
<line class="cls-11" x1="71" y1="35" x2="144.44" y2="35">
</line>
<line class="cls-11" x1="71" y1="31" x2="144.44" y2="31">
</line>
<line class="cls-11" x1="71" y1="27" x2="144.44" y2="27">
</line>
<line class="cls-11" x1="71" y1="23" x2="144.44" y2="23">
</line>
<line class="cls-11" x1="71" y1="19" x2="144.44" y2="19">
</line>
<line class="cls-11" x1="71" y1="15" x2="144.44" y2="15">
</line>
<line class="cls-11" x1="71" y1="11" x2="144.44" y2="11">
</line>
<line class="cls-11" x1="71" y1="7" x2="144.44" y2="7">
</line>
<line class="cls-11" x1="71" y1="3" x2="144.44" y2="3">
</line>
</g>


<g >
<line class="cls-11" x1="-1" y1="71" x2="72.44" y2="71">
</line>
<line class="cls-11" x1="-1" y1="67" x2="72.44" y2="67">
</line>
<line class="cls-11" x1="-1" y1="63" x2="72.44" y2="63">
</line>
<line class="cls-11" x1="-1" y1="59" x2="72.44" y2="59">
</line>
<line class="cls-11" x1="-1" y1="55" x2="72.44" y2="55">
</line>
<line class="cls-11" x1="-1" y1="51" x2="72.44" y2="51">
</line>
<line class="cls-11" x1="-1" y1="47" x2="72.44" y2="47">
</line>
<line class="cls-11" x1="-1" y1="43" x2="72.44" y2="43">
</line>
<line class="cls-11" x1="-1" y1="39" x2="72.44" y2="39">
</line>
<line class="cls-11" x1="-1" y1="35" x2="72.44" y2="35">
</line>
<line class="cls-11" x1="-1" y1="31" x2="72.44" y2="31">
</line>
<line class="cls-11" x1="-1" y1="27" x2="72.44" y2="27">
</line>
<line class="cls-11" x1="-1" y1="23" x2="72.44" y2="23">
</line>
<line class="cls-11" x1="-1" y1="19" x2="72.44" y2="19">
</line>
<line class="cls-11" x1="-1" y1="15" x2="72.44" y2="15">
</line>
<line class="cls-11" x1="-1" y1="11" x2="72.44" y2="11">
</line>
<line class="cls-11" x1="-1" y1="7" x2="72.44" y2="7">
</line>
<line class="cls-11" x1="-1" y1="3" x2="72.44" y2="3">
</line>
<line class="cls-11" x1="1.04" y1="69" x2="74.48" y2="69">
</line>
<line class="cls-11" x1="1.04" y1="65" x2="74.48" y2="65">
</line>
<line class="cls-11" x1="1.04" y1="61" x2="74.48" y2="61">
</line>
<line class="cls-11" x1="1.04" y1="57" x2="74.48" y2="57">
</line>
<line class="cls-11" x1="1.04" y1="53" x2="74.48" y2="53">
</line>
<line class="cls-11" x1="1.04" y1="49" x2="74.48" y2="49">
</line>
<line class="cls-11" x1="1.04" y1="45" x2="74.48" y2="45">
</line>
<line class="cls-11" x1="1.04" y1="41" x2="74.48" y2="41">
</line>
<line class="cls-11" x1="1.04" y1="37" x2="74.48" y2="37">
</line>
<line class="cls-11" x1="1.04" y1="33" x2="74.48" y2="33">
</line>
<line class="cls-11" x1="1.04" y1="29" x2="74.48" y2="29">
</line>
<line class="cls-11" x1="1.04" y1="25" x2="74.48" y2="25">
</line>
<line class="cls-11" x1="1.04" y1="21" x2="74.48" y2="21">
</line>
<line class="cls-11" x1="1.04" y1="17" x2="74.48" y2="17">
</line>
<line class="cls-11" x1="1.04" y1="13" x2="74.48" y2="13">
</line>
<line class="cls-11" x1="1.04" y1="9" x2="74.48" y2="9">
</line>
<line class="cls-11" x1="1.04" y1="5" x2="74.48" y2="5">
</line>
<line class="cls-11" x1="1.04" y1="1" x2="74.48" y2="1">
</line>
</g>


<g >
<line class="cls-11" x1="-73" y1="71" x2=".44" y2="71">
</line>
<line class="cls-11" x1="-73" y1="67" x2=".44" y2="67">
</line>
<line class="cls-11" x1="-73" y1="63" x2=".44" y2="63">
</line>
<line class="cls-11" x1="-73" y1="59" x2=".44" y2="59">
</line>
<line class="cls-11" x1="-73" y1="55" x2=".44" y2="55">
</line>
<line class="cls-11" x1="-73" y1="51" x2=".44" y2="51">
</line>
<line class="cls-11" x1="-73" y1="47" x2=".44" y2="47">
</line>
<line class="cls-11" x1="-73" y1="43" x2=".44" y2="43">
</line>
<line class="cls-11" x1="-73" y1="39" x2=".44" y2="39">
</line>
<line class="cls-11" x1="-73" y1="35" x2=".44" y2="35">
</line>
<line class="cls-11" x1="-73" y1="31" x2=".44" y2="31">
</line>
<line class="cls-11" x1="-73" y1="27" x2=".44" y2="27">
</line>
<line class="cls-11" x1="-73" y1="23" x2=".44" y2="23">
</line>
<line class="cls-11" x1="-73" y1="19" x2=".44" y2="19">
</line>
<line class="cls-11" x1="-73" y1="15" x2=".44" y2="15">
</line>
<line class="cls-11" x1="-73" y1="11" x2=".44" y2="11">
</line>
<line class="cls-11" x1="-73" y1="7" x2=".44" y2="7">
</line>
<line class="cls-11" x1="-73" y1="3" x2=".44" y2="3">
</line>
<line class="cls-11" x1="-70.96" y1="69" x2="2.48" y2="69">
</line>
<line class="cls-11" x1="-70.96" y1="65" x2="2.48" y2="65">
</line>
<line class="cls-11" x1="-70.96" y1="61" x2="2.48" y2="61">
</line>
<line class="cls-11" x1="-70.96" y1="57" x2="2.48" y2="57">
</line>
<line class="cls-11" x1="-70.96" y1="53" x2="2.48" y2="53">
</line>
<line class="cls-11" x1="-70.96" y1="49" x2="2.48" y2="49">
</line>
<line class="cls-11" x1="-70.96" y1="45" x2="2.48" y2="45">
</line>
<line class="cls-11" x1="-70.96" y1="41" x2="2.48" y2="41">
</line>
<line class="cls-11" x1="-70.96" y1="37" x2="2.48" y2="37">
</line>
<line class="cls-11" x1="-70.96" y1="33" x2="2.48" y2="33">
</line>
<line class="cls-11" x1="-70.96" y1="29" x2="2.48" y2="29">
</line>
<line class="cls-11" x1="-70.96" y1="25" x2="2.48" y2="25">
</line>
<line class="cls-11" x1="-70.96" y1="21" x2="2.48" y2="21">
</line>
<line class="cls-11" x1="-70.96" y1="17" x2="2.48" y2="17">
</line>
<line class="cls-11" x1="-70.96" y1="13" x2="2.48" y2="13">
</line>
<line class="cls-11" x1="-70.96" y1="9" x2="2.48" y2="9">
</line>
<line class="cls-11" x1="-70.96" y1="5" x2="2.48" y2="5">
</line>
<line class="cls-11" x1="-70.96" y1="1" x2="2.48" y2="1">
</line>
</g>


</g>


</pattern>
</defs>

  <path
     id="path7641-4"
     style="fill:#782ab5;fill-opacity:1;stroke:#4d4d4d;stroke-width:1.62226;stop-color:#000000"
     d="M 34.900259,1.6936052 C 14.323312,9.5265586 1.6299002,23.954051 1.5689773,39.580572 V 79.197446 H 67.963672 V 39.580572 C 67.958188,23.990066 55.374427,9.5708664 34.900259,1.6936052 Z"/>
  <path
     id="path7641-7"
     style="fill:#808080;stroke:#4d4d4d;stroke-width:1.48325;stop-color:#000000"
     d="M 34.629293,5.0425238 C 15.815619,12.204258 4.1542243,25.395327 4.1542243,39.682894 V 76.559207 H 64.859448 V 39.682894 c 0,-14.254531 -11.510452,-27.438125 -30.230155,-34.6403702 z m -0.01233,3.4358455 C 51.537073,14.988239 61.941622,26.904418 61.941622,39.788613 v 33.82806 H 7.07205 v -33.82806 c 0,-12.914055 10.539857,-24.836991 27.544909,-31.3102437 z"/>
  <path
     id="path7641-7-8"
     style="fill:#808080;stroke:#4d4d4d;stroke-width:1.35027;stop-color:#000000"
     d="M 34.618314,8.2461803 C 17.491429,14.76581 6.8755673,26.7742 6.8755673,39.780777 v 33.57007 H 62.138105 v -33.57007 c 0,-12.976504 -10.478452,-24.978088 -27.519791,-31.5345967 z m -0.01123,3.1277957 c 15.403093,5.926211 24.874795,16.774013 24.874795,28.503041 V 70.672134 H 9.5317874 V 39.877017 c 0,-11.75621 9.5948786,-22.610165 25.0752986,-28.503041 z"/>
  <path
     id="path7641-7-8-0"
     style="fill:#808080;stroke:#4d4d4d;stroke-width:1.21411;stop-color:#000000"
     d="M 34.607073,11.526302 C 19.207238,17.388502 9.6618637,28.185984 9.6618637,39.880997 V 70.06591 H 59.351809 V 39.880997 c 0,-11.667973 -9.421821,-22.459335 -24.744736,-28.354695 z m -0.0101,2.812393 c 13.849868,5.328621 22.366458,15.082547 22.366458,25.628837 V 67.657315 H 12.050234 V 39.967532 c 0,-10.570731 8.627346,-20.33019 22.546743,-25.628837 z"/>




<g >
<path class="cls-1" d="M61.89,67.5l-3.4,7.07s-18.91,5.31-31.02,2.32c-12.1-3-19.45-5.72-19.45-5.72l-.13-4.89,16.05-7.89,.27-4.76-2.18-1.23-.68,2.86-5.57-.27s-2.05-4.22-.96-8.03c.44-.56,.68-.87,.81-1.03l.15-.19,.13-4.63s-2.04,2.04-4.35,1.36c2.04-3.13,2.17-4.21,1.49-7.75-.68-3.54-2.31-7.21,5.04-12.24-1.33-1.33-5.14,.07-5.3,.12,.22-.31,3.75-5.21,6.11-6.65,2.45-1.5,6.67-.68,9.25,0-2.31-3.4-4.62-5.44-4.62-5.44,0,0,4.49,1.49,7.62,.95,3.13-.55,6.8,1.22,9.52,4.89,.65-2.33-.07-4.67-.13-4.88,.29,.18,4.83,3.15,7.47,4.2,2.72,1.09,5.58,4.22,3.81,9.66,3-1.9,3.68-3.26,3.68-3.26,0,0,0,3.26,1.08,6.66,1.09,3.4-.23,6.28-3.12,8.3,1.49,2.99,.27,4.63-1.09,6.39-1.36,1.77-.82,2.18-.82,2.18l.49,.32,1.14,.77s1.09,6.12-1.49,8.57c-4.49,.68-5.72-.27-5.72-.27l-.54-2.59-1.63,1.5v4.62l18.09,8.98Z">
</path>
<path class="cls-2" d="M33.8,52.3v-18.25c0-3.9,3.81-6.77,7.51-5.54,.04,.01,.08,.03,.12,.04,4.09,1.42,5.11,2.12,6.61,4.25s.39,8.89-.31,11.72-1.95,7.74-1.95,7.74l-7.26,5.08h0c-2.66-.18-4.72-2.38-4.72-5.05Z">
</path>
<path class="cls-4" d="M38.29,39.64l-2.28-5.91s5.03-.85,6.56-.63c2.53,.86,3.46,.97,3.46,.97l.15,4.18s-4.55-.6-7.88,1.39Z">
</path>
<path class="cls-4" d="M29.22,39.68l2.47-5.83s-5.42-1.31-6.96-1.08c-2.53,.86-3.12,1.76-3.12,1.76l-.09,3.84s4.37-.67,7.7,1.32Z">
</path>
<path d="M21.6,34.39l1.99-2.01s.14-.06,.15-.07c2.44-.7,4.96-.44,7.38,.17,0,0-.63,1.9-.63,1.9-2.01-.8-4.29-1.33-6.44-1.01,0,0,.15-.07,.15-.07l-2.61,1.1h0Z">
</path>
<path d="M45.75,34.39l-2.61-1.1,.15,.07c-2.15-.31-4.43,.21-6.44,1.01,0,0-.63-1.9-.63-1.9,2.42-.61,4.94-.87,7.38-.17,0,0,.15,.06,.15,.07,0,0,1.99,2.01,1.99,2.01h0Z">
</path>
<path class="cls-17" d="M56.58,28.73c1.09,3.4-.09,5.94-3.12,8.3,1.49,2.99,.27,4.63-1.09,6.39-1.36,1.77-.82,2.18-.82,2.18l.49,.32-.06,.03-4.33,.14s1.52-6.13,1.3-8.8c-.21-2.67-2.52-6.78-2.52-6.78,0,0-2.24,.58-1.23,3.03-4.33-.43-4.83-1.95-3.9-4.47-2.02-.87-3.03-1.01-3.96,.64-.94,1.66,0,4.19-.87,4.77-.86,.57-5.12-.08-5.48,1.73-1.3-2.31-.87-3.68,.43-3.9,1.3-.21,3.18,.29,2.31-4.25-2.38,2.74-6.2,.64-7.65,1.44-1.44,.79-1.66,2.88-.79,4.4-2.67-.36-3.61-3.03-3.61-3.03,0,0-2.23,1.73-2.88,3.82-.65,2.09-1.09,6.13,.86,11.11,0,0-2.89-.06-4.03,.13l.15-.19,.13-4.63s-2.04,2.04-4.35,1.36c2.04-3.13,2.17-4.21,1.49-7.75-.68-3.54-2.31-7.21,5.04-12.24-1.33-1.33-5.14,.07-5.3,.12,.22-.31,3.75-5.21,6.11-6.65,2.45-1.5,6.67-.68,9.25,0-2.31-3.4-4.62-5.44-4.62-5.44,0,0,4.49,1.49,7.62,.95,3.13-.55,6.8,1.22,9.52,4.89,.65-2.33-.07-4.67-.13-4.88,.29,.18,4.83,3.15,7.47,4.2,2.72,1.09,5.58,4.22,3.81,9.66,3-1.9,3.68-3.26,3.68-3.26,0,0,0,3.26,1.08,6.66Z">
</path>
<path class="cls-4" d="M58.52,39.86l-.08,.13h0c-.06,.08-.09,.11-.1,.12,.01-.03,.12-.18,.18-.25Z">
</path>
<polygon points="43.3 54.69 23.94 74.61 9.25 71.6 8.81 65.6 23.94 58.39 24.21 53.63 29.28 57.14 38.85 57.14 43.3 54.69">
</polygon>
<path class="cls-5" d="M19.96,45.8s-3.09-.46-5.14,1.16c-.84,3.47,.48,7.04,.96,8.03,2.69,1.06,5.6-.15,5.6-.15l.43-3.06-1.85-5.98Z">
</path>
<path class="cls-5" d="M47.86,45.8s3.09-.46,5.14,1.16c.84,3.47-.48,7.04-.96,8.03-2.69,1.06-5.6-.15-5.6-.15l-.43-3.06,1.85-5.98Z">
</path>
<path class="cls-3" d="M29.22,39.68s-2.72-1.98-6.87-.95c2.1,2.35,5.93,2.47,6.87,.95Z">
</path>
<path class="cls-4" d="M29.22,39.68s.02-3.32-1.71-4.05c-1.67-.47-4.7,2.56-4.7,2.56,0,0,4.2,.1,6.41,1.49Z">
</path>
<path class="cls-3" d="M38.29,39.64s2.9-2.05,7.06-1.02c-2.1,2.35-6.11,2.54-7.06,1.02Z">
</path>
<path class="cls-4" d="M38.26,39.74s.22-3.45,1.94-4.18c1.67-.47,4.7,2.56,4.7,2.56,0,0-4.44,.24-6.65,1.62Z">
</path>
<path class="cls-15" d="M46.94,48.12s3.23,2.53,6.09,0c.04,3.36-.54,4.81-.54,4.81,0,0-4.6-1.33-6.71-.66,.95-2.65,1.16-4.14,1.16-4.14Z">
</path>
<path class="cls-15" d="M14.61,48.8s3.76,1.65,5.9-1.5c.87,3.24,.66,4.79,.66,4.79,0,0-4.78-.15-6.67,1.01,.27-2.8,.1-4.3,.1-4.3Z">
</path>
<circle class="cls-17" cx="18.11" cy="50.68" r="1.12">
</circle>
<circle class="cls-17" cx="49.19" cy="50.68" r="1.12">
</circle>
<path d="M54.99,23.33s.45,6.67-2.63,9.19c.73-2.02,.5-4.31,.5-4.31,0,0-1.06,3.98-5.49,3.36,2.63,3.98,1.57,8.4,1.06,10.14s-1.12,4.59-1.12,4.59c0,0,2.41-.95,4.2-.5,.73-2.86,3.95-6.49,1.95-8.76,3.6-2.44,3.71-6.02,3.15-7.87s-1.62-5.83-1.62-5.83Z">
</path>
<path class="cls-2" d="M42.36,57.31l-9.98,10.35s10.5,.81,16.33-4.88c-4.07-2.14-6.36-3.7-6.36-3.7v-1.77Z">
</path>
<path class="cls-1" d="M46.24,30.94c-.36,.23-.83,.62-.89,1.08-.07,.52,.43,1.05,.86,1.4,.16,.13,.22,.35,.15,.55-.06,.19-.24,.33-.44,.34-.11,0-.21,.01-.32,.01-1.74,0-3.86-.61-4.74-2.04-.38-.64-.66-1.68,.05-3.14-.54-.36-1.03-.54-1.47-.54-.26,0-.5,.06-.72,.19-1.08,.62-1.6,2.6-1.47,3.65,.12,.97-.15,1.82-.74,2.38-.44,.41-1.04,.64-1.69,.64-.18,0-.38-.02-.57-.06-.14-.03-.29-.06-.45-.08l-.52,1.02c.09,.01,.7,.03,.78,.04,.25,.05,.51,.08,.76,.08,.9,0,1.74-.32,2.38-.91,.82-.78,1.2-1.96,1.04-3.23-.1-.82,.37-2.32,.97-2.66,.08-.04,.15-.06,.23-.06,.06,0,.13,.01,.21,.03-.4,1.4-.06,2.47,.36,3.17,1.13,1.86,3.72,2.52,5.59,2.52,.12,0,.24-.01,.37-.01,.46-.02,.88-.26,1.13-.61,.4,1.17,.63,2.58,.4,4.11-.35,2.25-1.38,6.5-3.09,12.61l-6.2,4.25h-4.92l-.27,1h5.5l6.76-4.63c1.77-6.34,2.85-10.74,3.21-13.08,.59-3.88-1.51-7.05-2.25-8.02Z">
</path>
<path class="cls-14" d="M21.27,18.14s3.13-1.73,7.39,0c-2.4,1.4-2.73,2.07-2.73,2.07,0,0,8.59-1.8,12.66-1.07-1.2,2.4,1.07,2.66,1.07,2.66,0,0,9.66-1,6.2-4.66,4.46,1,5.93,5.4,3.46,9.46-.8-3.46-4.33-4.66-9.93-2.4-5.26,1.6-3.46-3.33-3.46-3.33,0,0-8.93-.4-14.46,3.2,1.53-4.66,4.33-5.66,4.33-5.66,0,0-1.07-.93-4.53-.27Z">
</path>
<path class="cls-8" d="M15.39,45.94s-.18-3.64,1.18-5.37c-3.09,2.64-5.19,1.73-5.19,1.73,0,0,2.91-1.82,1.64-6.83s-2.09-8.46,4.91-12.92c-1.55-1.37-5.37,.09-5.37,.09,0,0,2.55-2.82,4.64-5.28s7.92-3.37,11.19-1.18c-.73-2.46-5.1-4.55-5.28-6.1,4.1,2.09,9.92,.64,12.74,1.82s5.46,5.01,5.46,5.01c0,0-.18-3.28-1-5.73,2.64,2.82,7.74,2.91,10.56,6.73s.36,8.19,.36,8.19c0,0,3-2.18,4.19-4-.46,4.37,4.19,10.74-2.28,14.83,2.82,3.55-1.73,5.82-1.73,9.01">
</path>
<path class="cls-8" d="M26.3,25.21s-3.37,.55-4.33,3.51c-.96,2.82,1.86,5.15,3.65,5.15-2.07-2.33-.49-4.05,1.37-4.46,1.86-.42,5.09,1.03,6.74-1.45,.54,3.3,.75,4.26-1.24,4.33-2,.07-3.37,1.65-.96,4.81-.49-2.61,1.37-2.47,2.81-2.19,1.45,.27,2.62-.69,2.41-2.41s1.17-6.32,4.81-3.51c-2.06,3.51,1.72,4.95,4.33,4.82-2.61-2.14,.48-3.51,.48-3.51,0,0,3.37,3.78,2.61,8.73-.47,3.11-2.12,9.22-3.27,13.32l-7.04,4.82h-9.62l-7.23-4.95c-1.42-4.1-3.52-10.59-3.7-13.74-.27-4.81,3.37-7.63,3.37-7.63">
</path>
<path class="cls-8" d="M19.65,46.01s-2.16-.8-4.88,.57c-1.14,5.06,.97,8.58,.97,8.58,0,0,2.04,.97,5.62-.11,.4-1.36,.47-2.82,.47-2.82">
</path>
<path class="cls-8" d="M47.87,46.01s2.16-.8,4.88,.57c1.14,5.06-.97,8.58-.97,8.58,0,0-2.04,.97-5.62-.11-.4-1.36-.47-2.82-.47-2.82">
</path>
<path d="M18.03,49.73c.49,0,.88,.4,.88,.88s-.4,.88-.88,.88-.88-.4-.88-.88,.4-.88,.88-.88m0-1c-1.04,0-1.88,.84-1.88,1.88s.84,1.88,1.88,1.88,1.88-.84,1.88-1.88-.84-1.88-1.88-1.88h0Z">
</path>
<path d="M49.4,49.73c.49,0,.88,.4,.88,.88s-.4,.88-.88,.88-.88-.4-.88-.88,.4-.88,.88-.88m0-1c-1.04,0-1.88,.84-1.88,1.88s.84,1.88,1.88,1.88,1.88-.84,1.88-1.88-.84-1.88-1.88-1.88h0Z">
</path>
<path d="M29.25,39.86c-.18-3.16-1.95-5.18-4.78-2.67-.84,.57-1.48,1.47-2.67,1.55,0,0,.4-.67,.4-.67,.85,1.5,2.63,2.24,4.32,2.55-.91,.1-1.86,0-2.77-.32-1.15-.36-2.12-1.3-2.71-2.39,0,0,.8-.06,.8-.06,.47-.07,1.56-1.11,2.01-1.45,3.26-2.82,6.23-.48,5.39,3.46h0Z">
</path>
<path d="M21.98,38.03c2.05-.16,4.18,.11,5.99,1.07-1.88-.62-3.93-.55-5.81-.09-.69,.17-.89-.91-.18-.99h0Z">
</path>
<path d="M38.28,39.86c-.84-3.94,2.13-6.27,5.39-3.46,.45,.34,1.54,1.38,2.01,1.45,0,0,.8,.06,.8,.06-.59,1.08-1.56,2.03-2.71,2.39-.9,.31-1.85,.42-2.77,.32,1.68-.31,3.46-1.05,4.32-2.55,0,0,.4,.67,.4,.67-1.19-.09-1.83-.98-2.67-1.55-2.82-2.5-4.6-.48-4.78,2.67h0Z">
</path>
<path d="M45.36,39.01c-1.88-.46-3.93-.53-5.8,.09,1.82-.96,3.94-1.23,5.99-1.07,.28,.03,.48,.27,.45,.55-.03,.31-.34,.53-.64,.44h0Z">
</path>
<path d="M36.27,42.06c.16,.58,.34,1.15,.62,1.66,0,0-.14,.09-.14,.09l-2.72,1.71s-.18,.04-.22,.05c0,0,0-1,0-1,.02-.02,0,1,0,1-.12,.01-.12,.03-.22-.05,0,0-2.72-1.71-2.72-1.71l-.14-.09,.07-.13c.25-.47,.42-1,.57-1.53-.04,.55-.09,1.11-.25,1.67l-.08-.22,2.98,1.11s-.25-.05-.2-.05c0,0,0,1,0,1-.03,.02,0-1,0-1,.05,0-.21,.05-.2,.05,0,0,2.98-1.11,2.98-1.11l-.08,.21c-.16-.56-.21-1.11-.24-1.66h0Z">
</path>
<path d="M21.09,43.45c.67,1.54,1.98,2.73,3.44,3.45,0,0,1.21,4.75,1.21,4.75,0,.04-.05,.07-.07,.02-.88-1.41-1.42-3-1.86-4.59,0,0,.38,.45,.38,.45-1.63-.74-2.95-2.26-3.17-4.05-.01-.04,.05-.07,.07-.03h0Z">
</path>
<path d="M46.56,43.47c-.6,1.45-2.09,3.01-3.37,3.46,0,0-1.28,4.74-1.28,4.74-.01,.04-.08,.03-.07-.02-.07-1.77,.27-3.51,.71-5.22,1.54-.62,2.85-1.73,3.94-2.98,.02-.04,.09-.02,.07,.03h0Z">
</path>
<path class="cls-17" d="M29.3,49.26s.85,1.79,2.27,2.95c.96,.16,2.63,.32,4.32-.03h0c1.38-1.17,2.21-2.92,2.21-2.92l-4.44-.95-4.37,.95Z">
</path>
<path class="cls-2" d="M31.38,49.19s.59,1.28,2.38,1.28,2.29-1.51,2.29-1.51c0,0-2.29-1.51-4.67,.24Z">
</path>
<path d="M33.85,48.85h.01c.95,.06,2,.31,2.93,.68,1.55,.63,2.3-.66,2.3-.66,0,0-.72,.21-1.67-.87-.8-.89-2.13-1.72-3.57-1.21-1.44-.51-2.77,.32-3.57,1.21-.95,1.08-1.66,.87-1.66,.87,0,0,.74,1.29,2.29,.66,.93-.37,1.98-.62,2.94-.68h.01">
</path>
<path class="cls-8" d="M23.85,53.6v5.01s-6.22,3.62-14.98,7.04">
</path>
<path class="cls-8" d="M43.67,53.85v4.76s6.22,3.62,14.98,7.04">
</path>
<path class="cls-8" d="M16.64,62.48s3.86,6.82,16.32,6.82,17.13-5.12,17.73-6.97">
</path>
<path class="cls-17" d="M24.66,56.34c.27,.98,.48,1.96,.63,2.95-4.39,2.81-9.13,5.08-14.2,6.35,0,0-.04-.09-.04-.09l6.81-3.32s7.03-3.42,6.8-3.2c0,0-.1-2.7-.1-2.7h.1Z">
</path>
<path d="M26.53,25.13s-4.28-.54-8.14,3.59c-2.14-3.59-.02-5.88-.02-5.88,0,0-6.19,2.67-6.03,6.79s2.03,9.96-.32,12.64c2.95-.96,4.18-1.45,4.18-1.45,0,0-1.45,3.53-.7,5.19,3-1.02,4.44,.05,4.44,.05,0,0-1.77-6.27-2.09-8.89s4.07-6.69,4.07-6.69c0,0-1.07-3.75,4.61-5.35Z">
</path>
</g>




  <g
     id="g20645">
    <path
       style="fill:#808080;stroke:#4d4d4d;stroke-width:0.937908;stop-color:#000000;fill-opacity:1"
       d="m 9.541565,65.883425 a 5.4759801,5.4759801 0 0 1 5.47598,5.475981 5.4759801,5.4759801 0 0 1 -5.47598,5.47598 5.4759801,5.4759801 0 0 1 -5.4759806,-5.47598 5.4759801,5.4759801 0 0 1 5.4759806,-5.475981 z"/>
    <path
       style="fill:#808080;stroke:#4d4d4d;stroke-width:0.937908;stop-color:#000000;fill-opacity:1"
       d="m 59.472108,65.883425 a 5.4759801,5.4759801 0 0 1 5.47598,5.475981 5.4759801,5.4759801 0 0 1 -5.47598,5.47598 5.4759801,5.4759801 0 0 1 -5.475981,-5.47598 5.4759801,5.4759801 0 0 1 5.475981,-5.475981 z"/>
    <path
       id="path7641"
       style="fill:#808080;stroke:#4d4d4d;stroke-width:1.64416;stop-color:#000000"
       d="M 34.642578,1.1660156 C 13.787845,9.1047124 0.86132813,23.726855 0.86132812,39.564453 V 79.340489 H 68.152344 V 39.564453 c 0,-15.800978 -12.759199,-30.4148342 -33.509766,-38.3984374 z m -0.01367,3.8085938 C 53.384648,12.190722 64.917969,25.399665 64.917969,39.681641 v 26.507812 c -1.368656,-1.44106 -3.300993,-2.341797 -5.445313,-2.341797 -4.14856,0 -7.511718,3.363159 -7.511718,7.511719 0,2.347008 1.075662,4.442843 2.761718,5.820313 H 14.269531 c 1.756069,-1.422629 2.778281,-3.560307 2.783203,-5.820313 4.8e-5,-4.148627 -3.363091,-7.511766 -7.5117184,-7.511719 -2.0622939,0.0062 -4.0313164,0.860092 -5.4453125,2.361328 V 39.681641 c 0,-14.315076 11.6833059,-27.531508 30.5332029,-34.7070316 z"/>
    <circle
       style="fill:#4d4d4d;fill-opacity:1;stroke:#4d4d4d;stop-color:#000000"
       id="path16431"
       cx="9.6010828"
       cy="71.229652"
       r="5.06003" />
    <circle
       style="fill:#4d4d4d;fill-opacity:1;stroke:#4d4d4d;stop-color:#000000"
       id="path16431-3"
       cx="59.42292"
       cy="71.229652"
       r="5.06003" />
  </g>
</svg>
