<svg id="Capa_2" xmlns="http://www.w3.org/2000/svg" xmlns:xlink="http://www.w3.org/1999/xlink" viewBox="0 0 69.02 80">
<defs >
<style >
.cls-1{fill:#c89aed;}.cls-2{fill:#fff;}.cls-3{fill:#f8ffbf;}.cls-4{fill:#7b7be8;}.cls-5{fill:#a88347;}.cls-6{fill:#782ab5;}.cls-7{stroke-miterlimit:10;}.cls-7,.cls-8,.cls-9{stroke:#000;}.cls-7,.cls-8,.cls-9,.cls-10,.cls-11,.cls-12{fill:none;}.cls-8{stroke-width:.5px;}.cls-8,.cls-9,.cls-10{stroke-linecap:round;stroke-linejoin:round;}.cls-10{stroke:#deb778;stroke-dasharray:0 0 0 4.06;}.cls-13{fill:#deb778;}.cls-14{fill:url(#USGS_19_Inundación_de_tierra_2);}.cls-12{stroke:#1d1d1b;stroke-dasharray:0 0 2 2;stroke-width:.3px;}.cls-15{fill:#ccbc64;}.cls-16{fill:#fcf0c5;}.cls-17{fill:#b83521;}
</style>
<pattern id="USGS_19_Inundación_de_tierra_2" x="0" y="0" width="72" height="72" patternTransform="translate(-308.48 -16999) rotate(-90)" patternUnits="userSpaceOnUse" viewBox="0 0 72 72">
<g >
<rect class="cls-11" width="72" height="72">
</rect>
<g >
<line class="cls-12" x1="71" y1="71" x2="144.44" y2="71">
</line>
<line class="cls-12" x1="71" y1="67" x2="144.44" y2="67">
</line>
<line class="cls-12" x1="71" y1="63" x2="144.44" y2="63">
</line>
<line class="cls-12" x1="71" y1="59" x2="144.44" y2="59">
</line>
<line class="cls-12" x1="71" y1="55" x2="144.44" y2="55">
</line>
<line class="cls-12" x1="71" y1="51" x2="144.44" y2="51">
</line>
<line class="cls-12" x1="71" y1="47" x2="144.44" y2="47">
</line>
<line class="cls-12" x1="71" y1="43" x2="144.44" y2="43">
</line>
<line class="cls-12" x1="71" y1="39" x2="144.44" y2="39">
</line>
<line class="cls-12" x1="71" y1="35" x2="144.44" y2="35">
</line>
<line class="cls-12" x1="71" y1="31" x2="144.44" y2="31">
</line>
<line class="cls-12" x1="71" y1="27" x2="144.44" y2="27">
</line>
<line class="cls-12" x1="71" y1="23" x2="144.44" y2="23">
</line>
<line class="cls-12" x1="71" y1="19" x2="144.44" y2="19">
</line>
<line class="cls-12" x1="71" y1="15" x2="144.44" y2="15">
</line>
<line class="cls-12" x1="71" y1="11" x2="144.44" y2="11">
</line>
<line class="cls-12" x1="71" y1="7" x2="144.44" y2="7">
</line>
<line class="cls-12" x1="71" y1="3" x2="144.44" y2="3">
</line>
</g>


<g >
<line class="cls-12" x1="-1" y1="71" x2="72.44" y2="71">
</line>
<line class="cls-12" x1="-1" y1="67" x2="72.44" y2="67">
</line>
<line class="cls-12" x1="-1" y1="63" x2="72.44" y2="63">
</line>
<line class="cls-12" x1="-1" y1="59" x2="72.44" y2="59">
</line>
<line class="cls-12" x1="-1" y1="55" x2="72.44" y2="55">
</line>
<line class="cls-12" x1="-1" y1="51" x2="72.44" y2="51">
</line>
<line class="cls-12" x1="-1" y1="47" x2="72.44" y2="47">
</line>
<line class="cls-12" x1="-1" y1="43" x2="72.44" y2="43">
</line>
<line class="cls-12" x1="-1" y1="39" x2="72.44" y2="39">
</line>
<line class="cls-12" x1="-1" y1="35" x2="72.44" y2="35">
</line>
<line class="cls-12" x1="-1" y1="31" x2="72.44" y2="31">
</line>
<line class="cls-12" x1="-1" y1="27" x2="72.44" y2="27">
</line>
<line class="cls-12" x1="-1" y1="23" x2="72.44" y2="23">
</line>
<line class="cls-12" x1="-1" y1="19" x2="72.44" y2="19">
</line>
<line class="cls-12" x1="-1" y1="15" x2="72.44" y2="15">
</line>
<line class="cls-12" x1="-1" y1="11" x2="72.44" y2="11">
</line>
<line class="cls-12" x1="-1" y1="7" x2="72.44" y2="7">
</line>
<line class="cls-12" x1="-1" y1="3" x2="72.44" y2="3">
</line>
<line class="cls-12" x1="1.04" y1="69" x2="74.48" y2="69">
</line>
<line class="cls-12" x1="1.04" y1="65" x2="74.48" y2="65">
</line>
<line class="cls-12" x1="1.04" y1="61" x2="74.48" y2="61">
</line>
<line class="cls-12" x1="1.04" y1="57" x2="74.48" y2="57">
</line>
<line class="cls-12" x1="1.04" y1="53" x2="74.48" y2="53">
</line>
<line class="cls-12" x1="1.04" y1="49" x2="74.48" y2="49">
</line>
<line class="cls-12" x1="1.04" y1="45" x2="74.48" y2="45">
</line>
<line class="cls-12" x1="1.04" y1="41" x2="74.48" y2="41">
</line>
<line class="cls-12" x1="1.04" y1="37" x2="74.48" y2="37">
</line>
<line class="cls-12" x1="1.04" y1="33" x2="74.48" y2="33">
</line>
<line class="cls-12" x1="1.04" y1="29" x2="74.48" y2="29">
</line>
<line class="cls-12" x1="1.04" y1="25" x2="74.48" y2="25">
</line>
<line class="cls-12" x1="1.04" y1="21" x2="74.48" y2="21">
</line>
<line class="cls-12" x1="1.04" y1="17" x2="74.48" y2="17">
</line>
<line class="cls-12" x1="1.04" y1="13" x2="74.48" y2="13">
</line>
<line class="cls-12" x1="1.04" y1="9" x2="74.48" y2="9">
</line>
<line class="cls-12" x1="1.04" y1="5" x2="74.48" y2="5">
</line>
<line class="cls-12" x1="1.04" y1="1" x2="74.48" y2="1">
</line>
</g>


<g >
<line class="cls-12" x1="-73" y1="71" x2=".44" y2="71">
</line>
<line class="cls-12" x1="-73" y1="67" x2=".44" y2="67">
</line>
<line class="cls-12" x1="-73" y1="63" x2=".44" y2="63">
</line>
<line class="cls-12" x1="-73" y1="59" x2=".44" y2="59">
</line>
<line class="cls-12" x1="-73" y1="55" x2=".44" y2="55">
</line>
<line class="cls-12" x1="-73" y1="51" x2=".44" y2="51">
</line>
<line class="cls-12" x1="-73" y1="47" x2=".44" y2="47">
</line>
<line class="cls-12" x1="-73" y1="43" x2=".44" y2="43">
</line>
<line class="cls-12" x1="-73" y1="39" x2=".44" y2="39">
</line>
<line class="cls-12" x1="-73" y1="35" x2=".44" y2="35">
</line>
<line class="cls-12" x1="-73" y1="31" x2=".44" y2="31">
</line>
<line class="cls-12" x1="-73" y1="27" x2=".44" y2="27">
</line>
<line class="cls-12" x1="-73" y1="23" x2=".44" y2="23">
</line>
<line class="cls-12" x1="-73" y1="19" x2=".44" y2="19">
</line>
<line class="cls-12" x1="-73" y1="15" x2=".44" y2="15">
</line>
<line class="cls-12" x1="-73" y1="11" x2=".44" y2="11">
</line>
<line class="cls-12" x1="-73" y1="7" x2=".44" y2="7">
</line>
<line class="cls-12" x1="-73" y1="3" x2=".44" y2="3">
</line>
<line class="cls-12" x1="-70.96" y1="69" x2="2.48" y2="69">
</line>
<line class="cls-12" x1="-70.96" y1="65" x2="2.48" y2="65">
</line>
<line class="cls-12" x1="-70.96" y1="61" x2="2.48" y2="61">
</line>
<line class="cls-12" x1="-70.96" y1="57" x2="2.48" y2="57">
</line>
<line class="cls-12" x1="-70.96" y1="53" x2="2.48" y2="53">
</line>
<line class="cls-12" x1="-70.96" y1="49" x2="2.48" y2="49">
</line>
<line class="cls-12" x1="-70.96" y1="45" x2="2.48" y2="45">
</line>
<line class="cls-12" x1="-70.96" y1="41" x2="2.48" y2="41">
</line>
<line class="cls-12" x1="-70.96" y1="37" x2="2.48" y2="37">
</line>
<line class="cls-12" x1="-70.96" y1="33" x2="2.48" y2="33">
</line>
<line class="cls-12" x1="-70.96" y1="29" x2="2.48" y2="29">
</line>
<line class="cls-12" x1="-70.96" y1="25" x2="2.48" y2="25">
</line>
<line class="cls-12" x1="-70.96" y1="21" x2="2.48" y2="21">
</line>
<line class="cls-12" x1="-70.96" y1="17" x2="2.48" y2="17">
</line>
<line class="cls-12" x1="-70.96" y1="13" x2="2.48" y2="13">
</line>
<line class="cls-12" x1="-70.96" y1="9" x2="2.48" y2="9">
</line>
<line class="cls-12" x1="-70.96" y1="5" x2="2.48" y2="5">
</line>
<line class="cls-12" x1="-70.96" y1="1" x2="2.48" y2="1">
</line>
</g>


</g>


</pattern>
</defs>



<g >
<path class="cls-1" d="M60.44,65.73l-.57,7.58s-6.69,3.86-22.41,3.86-28.45-3.54-28.45-3.54l-1.53-6.61,11.77-5.08s.04,0,.11-.03c.36-.11,1.42-.68,1.02-3.52-.73-3.38-3.31-8.62-4.92-11.28s-3.87-13.22,1.37-23.38c2.58-8.94,9.35-11.84,9.35-11.84,0,0-3.63-2.5-1.53-5.08,1.42-1.85,4.02-2.91,6.92-3.36h.03c.24-.03,.48-.06,.72-.09,3.63-.43,7.6,.06,10.22,1.15,1.01,.41,1.82,.91,2.34,1.49,2.26,4.11-.89,6.21-.89,6.21,0,0,6.05,5.08,7.1,6.85,1.04,1.77,4.03,8.62,4.99,17.17,.97,8.54-5.4,17.57-6.53,20.31-1.12,2.74,.08,4.76,.08,4.76l10.81,4.43Z">
</path>
<path class="cls-17" d="M37.13,60.77s6.01-1.81,7.08-2.8c.33-3.21,.74-3.87,.74-3.87l1.23,.99,3.45,6.21,12.19,5.64-1.98,7.82-30.86,2.06-1.23-7.32,9.38-8.72Z">
</path>
<path class="cls-2" d="M34.9,51.46V30.17c0-2.55,1.41-4.95,3.74-6,.11-.05,.21-.09,.31-.12,5.92,3.7,9.45,10.24,10.07,17.61-1.14,8.1-2.36,9.55-4.45,11.06-.78,.56-1.91,1.43-3.18,2.27-2.77,1.84-6.48-.19-6.48-3.52Z">
</path>
<path class="cls-5" d="M49.63,61.3s2.05,2.77,1.65,5.09c-.4,2.33-3.36,2.81-3.36,2.81,0,0,1.84-2.89,.08-4.89s-2.16-3.6-2.24-6.16,.32-4.64,.32-4.64c0,0,3.36-8.57,2.96-12.97-.4-4.4-4.25-12.01-10.09-16.49-2.88,.4-4.16,2.64-4.16,2.64,0,0-1.68-3.04-4.32-2.48-4.89,4.32-8.01,7.76-9.61,15.29-1.6,7.52-.08,10.24,2.32,14.01,2.4,3.76,.64,7.84-.88,10.16-1.52,2.32-.96,4.73-.56,5.53-4.4-2.01-2.88-4.73-2.4-6.89,.03-.12,.04-.26,.02-.4,.36-.11,1.42-.68,1.02-3.52-.73-3.38-3.31-8.62-4.92-11.28s-3.87-13.22,1.37-23.38c2.58-8.94,9.35-11.84,9.35-11.84,0,0-3.63-2.5-1.53-5.08,1.42-1.85,4.02-2.91,6.92-3.36h.03c.24-.03,.48-.06,.72-.09,1.49-.15,3.07-.17,4.63,.04,1.88,.26,3.81,.66,5.59,1.11,1.01,.41,1.82,.91,2.34,1.49,2.26,4.11-.89,6.21-.89,6.21,0,0,6.05,5.08,7.1,6.85,1.04,1.77,4.03,8.62,4.99,17.17,.97,8.54-5.4,17.57-6.53,20.31-1.12,2.74,.08,4.76,.08,4.76Z">
</path>
<path d="M23.58,55.56l1.58-1.03-.24-2.12s-1.94-2.06-2.73-4.55-1.7-5.16-1.7-5.16c0,0,.12,3.58,.42,6.01s2.67,6.86,2.67,6.86Z">
</path>
<path d="M44.45,54.41l.12-1.7s1.64-1.27,2.31-3.09,2.43-7.58,2.43-7.58c0,0,.49,4.67,.06,6.55s-2.79,5.28-3.15,6.25c-.67-.06-1.76-.42-1.76-.42Z">
</path>
<path d="M14.24,30.76s7.23-4.76,8.91,2.29c-3.7,6.26-2.91,13.76-2.21,16.05s3.26,5.47,2.91,9.44-3.7,7.06-2.38,10.32c-4.23-2.03-2.91-4.06-1.76-6.44s1.5-4.67-.26-7.59-4.67-9.08-5.82-13.67,.62-10.41,.62-10.41Z">
</path>
<path class="cls-15" d="M19.82,20.42s8.44,.13,8,6.11c2.39-2.39,3.84-2.77,3.84-2.77,0,0-4.92-2.96-2.77-4.92-5.86-.88-9.08,1.58-9.08,1.58Z">
</path>
<path class="cls-15" d="M48.67,19.62s-2.29,6.39-9.15,4.24c5.59,4.98,8.55,11.58,8.55,11.58,0,0,3.23-5.12,7.61-2.89-1.68-8.01-5.25-11.64-7-12.92Z">
</path>
<path d="M34.78,20.7s-11.03-5.19-7.04-9.32c-7.61,2.85-9.25,8.11-9.89,10.81,5.76-5.19,10.32-3.98,16.93-1.49Z">
</path>
<path d="M35.59,9.88s-5.18-1.6-3.96-4.79c-6.07,.77-6.97,1.28-6.97,1.28,0,0-1.82,4.16,1.52,5.53,4.43-1.82,9.41-2.01,9.41-2.01Z">
</path>
<path class="cls-15" d="M41.6,11.33s2.23,5.12-2.06,7.85c6.28-1.16,8.34-.08,8.34-.08,0,0-.17-3.06-1.24-4.87-2.48-2.48-5.04-2.89-5.04-2.89Z">
</path>
<path class="cls-15" d="M43.54,6.1s1.48,2.15-.74,3.23-9.02-2.09-5.79-3.84c3.43-1.55,6.53,.61,6.53,.61Z">
</path>
<path class="cls-17" d="M31.19,49.33s.99,2.59,3.74,2.59,3.69-1.93,3.69-2.64c-2.97-1.82-5.56-1.76-7.43,.06Z">
</path>
<path class="cls-2" d="M33.12,48.83s.85,.78,1.84,.78,1.98-.89,1.98-.89c0,0-2.46-.89-3.82,.1Z">
</path>
<path class="cls-3" d="M30.81,38.7l-2.08-2.48s-4.21-.1-6.52,1c2.06,1.91,3.26,2.56,3.26,2.56,0,0,3.29-.03,5.34-1.08Z">
</path>
<path class="cls-3" d="M38.86,38.7l2.08-2.48s4.21-.1,6.52,1c-2.06,1.91-3.26,2.56-3.26,2.56,0,0-3.29-.03-5.34-1.08Z">
</path>
<path class="cls-4" d="M32.12,33.78l-1.19,5.09-2.19-2.65s-6.39,.83-7.15,1.01c1.37-2.79,1.55-3.54,1.55-3.54,0,0,7.21-2.08,8.98,.09Z">
</path>
<path class="cls-4" d="M37.65,33.78l1.19,5.09,2.19-2.65s6.39,.83,7.15,1.01c-1.37-2.79-1.55-3.54-1.55-3.54,0,0-7.21-2.08-8.98,.09Z">
</path>
<path d="M44.24,53.58l-13.76,16.16v5.39s-17.4-1.74-20.63-3.89c-.75-3.07-.66-4.64-.66-4.64l11.27-4.64,3.12-6.38,1.94-.99,.17-1.41s4.23,1.74,5.47,2.82,3.31,2.07,5.3,1.41,3.73-2.15,3.73-2.15l4.06-1.66Z">
</path>
<path class="cls-1" d="M38.53,25.47c6.77,5.28,8.61,12.37,9.09,16.26-.53,3.37-1.59,7.47-2.96,8.94-1.2,1.27-2.47,1.88-3.82,2.53-1,.48-2.14,1.02-3.19,1.86-.73,.57-1.64,.93-2.71,1.06-1.07-.13-1.99-.49-2.71-1.05-1.04-.83-2.18-1.38-3.18-1.86-1.29-.62-2.63-1.26-3.82-2.53-1.5-1.6-2.65-6.64-3.12-9.48,.56-3.76,2.47-10.61,9.02-15.72,.76,.24,1.64,.96,2.54,2.08,.29,.35,.71,.55,1.17,.55s.9-.22,1.16-.56c.89-1.11,1.77-1.82,2.53-2.06m.24-1.07c-1.39,.16-2.69,1.44-3.55,2.51-.09,.12-.23,.19-.38,.19h-.01c-.15,0-.29-.07-.39-.19-.86-1.07-2.16-2.35-3.55-2.51-6.3,4.73-9,11.21-9.79,16.8,.18,1.13,1.35,7.98,3.4,10.16,1.31,1.4,2.74,2.09,4.12,2.75,1,.48,2.04,.98,2.99,1.74,.9,.71,2.02,1.14,3.33,1.28,1.31-.14,2.43-.57,3.33-1.28,.95-.76,1.99-1.26,3-1.74,1.37-.66,2.8-1.35,4.12-2.75,2.19-2.35,3.21-9.45,3.24-9.61-.68-5.71-3.36-12.47-9.86-17.35h0Z">
</path>
<path class="cls-2" d="M22.64,40.02l2.79,1.96s4.28-.77,5.23-1.43c-2.38,3.86-4.57,4.46-6.3,3.51s-1.72-4.04-1.72-4.04Z">
</path>
<path class="cls-9" d="M16.54,24.61s2.8-14.45,18.31-14.45,18.57,14.89,18.57,14.89">
</path>
<path class="cls-9" d="M27.84,3.59s-7.62,4.91-1.84,8.15">
</path>
<path class="cls-9" d="M43.78,11.91s3.77-2.1,.35-6.92">
</path>
<path class="cls-9" d="M55.41,43.4c-2.17,8.06-8.44,14.82-5.75,18.33,2.81,4.04,.77,6.51-2.17,7.68,2.3-3.38,.38-5.08-.64-6.64-1.02-1.56-2.17-6.24,.77-10.27,2.94-4.03,3.45-19.63-8.69-28.61-1.57,.07-3.02,1.38-4.08,2.71-1.07-1.33-2.53-2.64-4.09-2.71-12.15,8.98-11.64,24.58-8.69,28.61,2.94,4.03,1.79,8.71,.77,10.27-1.02,1.56-2.94,3.26-.64,6.64-2.94-1.17-4.99-3.64-2.17-7.68,2.69-3.51-3.58-10.27-5.76-18.33-2.17-8.06,.77-22.24,8.19-24.45,5.6-1.57,10.39,1.01,12.4,2.36,2.02-1.36,6.81-3.93,12.39-2.36,7.42,2.21,10.36,16.39,8.18,24.45Z">
</path>
<path d="M22.63,34.47s4.65-1.92,9.54-.68c0-1.67-.37-2.23-.37-2.23,0,0-4.58-.62-8.36,1.3-.81,.81-.81,1.61-.81,1.61Z">
</path>
<path d="M46.99,34.47s-4.65-1.92-9.54-.68c0-1.67,.37-2.23,.37-2.23,0,0,4.58-.62,8.36,1.3,.81,.81,.81,1.61,.81,1.61Z">
</path>
<path d="M21.35,37c.03-.19,.25-.39,.39-.42,1.09-.45,2.25-.73,3.41-.89,1.21-.16,2.43-.18,3.64-.08,.11,0,.21,.06,.28,.14,.74,.88,1.42,1.8,1.93,2.85,.05,.09,.03,.21-.05,.27-1.61,1.12-3.62,1.2-5.5,1.31-.78-.27-1.44-.88-2.15-1.31-.53-.37-1.09-.8-1.59-1.22-.19-.15-.43-.37-.37-.64h0Zm.99,.16c.05-.12-.06-.38-.13-.42,.09,.09,.27,.24,.37,.32,.99,.81,2.05,1.53,3.14,2.19,0,0-.28-.08-.24-.07,1.71,.09,3.64,.17,5.18-.64,0,0-.05,.27-.05,.27-.63-.87-1.43-1.65-2.25-2.35,0,0,.31,.14,.31,.14-2.17-.18-4.4,.05-6.44,.85-.02,.01-.12,.05-.14,.06,.06-.02,.24-.2,.24-.35h0Z">
</path>
<path d="M47.5,37.16c0,.1,.07,.24,.17,.31,.14,.09,.06,.03,.07,.04-.08-.04-.25-.1-.33-.13-1.98-.74-4.14-.96-6.25-.78,0,0,.31-.14,.31-.14-.82,.7-1.62,1.48-2.25,2.35,0,0-.05-.27-.05-.27,1.54,.82,3.47,.73,5.18,.64,0,0-.25,.07-.25,.07,1.16-.72,2.31-1.48,3.35-2.37,.04-.04,.13-.11,.17-.15-.07,.04-.17,.3-.13,.42h0Zm.99-.16c.04,.2-.1,.43-.26,.55-1.11,.96-2.35,1.79-3.59,2.56-1.45,.18-3.03-.15-4.44-.56-.46-.17-.88-.33-1.31-.67-.08-.06-.1-.16-.06-.25,.53-.95,1.32-2.47,2.22-3.01,2.11-.18,4.27,.01,6.29,.68,.14,.06,.52,.18,.65,.24,.19,.06,.47,.22,.5,.47h0Z">
</path>
<path d="M37.34,42.57c2.55,1.92-.52,3.07-2.29,3.54-1.19-.16-2.51-.65-3.37-1.58-.44-.8,.3-1.53,.84-1.96-.19,.4-.39,.81-.42,1.19-.02,.19,.02,.33,.1,.37,.82,.51,1.89,.75,2.85,1,0,0-.23,0-.23,0,.96-.25,2.03-.5,2.85-1.01,.3-.41-.12-1.08-.32-1.56h0Z">
</path>
<path d="M40.09,49.88c-.93,.27-2.02-.33-2.81-.68-2.03-.77-4.09-.44-6,.56-.54,.19-1.04,.21-1.54,.11,.96-.5,1.3-1.18,2.15-1.83,.82-.65,1.98-.99,3.02-.96,1.04-.02,2.2,.32,3.02,.97,.85,.64,1.2,1.33,2.16,1.83h0Z">
</path>
<path d="M31.75,50.28c1.49,1.65,4.88,1.5,6.45,.03,.04-.04,.11,.01,.08,.06-.81,2.71-5.94,2.81-6.62-.04-.02-.05,.05-.1,.08-.05h0Z">
</path>
<path class="cls-9" d="M49.12,41.8s-1.02,7.39-3.37,9.9c-2.36,2.52-4.98,2.79-7.17,4.54-1.08,.85-2.35,1.26-3.64,1.39-1.29-.13-2.56-.54-3.64-1.39-2.19-1.75-4.81-2.02-7.17-4.54-2.35-2.51-3.55-10.6-3.55-10.6">
</path>
<path class="cls-9" d="M25.18,52.91l.11,4.77c1.18,1.28,3.88,3.27,9.39,3.27h.72c4.92,0,7.61-1.58,8.96-2.83l.13-5.21">
</path>
<path class="cls-9" d="M23.64,55.54s.43-1,1.58-1">
</path>
<path class="cls-9" d="M46.07,55.5s-.45-.96-1.47-.96">
</path>
<path class="cls-9" d="M21.84,64.68s3.2,5.53,12.93,5.53,13.62-4.72,13.62-4.72">
</path>
<line class="cls-9" x1="20" y1="61.73" x2="8.09" y2="66.81">
</line>
<line class="cls-9" x1="49.43" y1="61.26" x2="62.2" y2="66.81">
</line>
<line class="cls-8" x1="29.55" y1="60.37" x2="29.55" y2="77.24">
</line>
<line class="cls-8" x1="40.31" y1="60.37" x2="40.31" y2="77.24">
</line>
<path class="cls-15" d="M10.53,66.42c2.24-1,6.78-2.93,9.06-3.85,0,0,.04,.09,.04,.09-1.21,1.24-2.66,2.02-4.2,2.71-1.56,.63-3.13,1.13-4.86,1.14,0,0-.04-.09-.04-.09h0Z">
</path>
<path class="cls-15" d="M14.93,32.61c-.27,4.73-.17,9.72,2.36,13.88,1.68,3.29,4.12,6.39,4.58,10.19,.11,1.28,.04,2.57-.32,3.76h-.1c.16-1.23,.14-2.46-.1-3.66-.75-3.65-3.22-6.58-4.94-9.81-2.43-4.21-2.74-9.92-1.48-14.36h0Z">
</path>
</g>




 <g
     id="g2850">
    <g
       id="g2837">
      <path
         id="path1951"
         d="M 0.056640625 0.04296875 L 0.056640625 79.943359 L 69.308594 79.943359 L 69.308594 0.04296875 L 0.056640625 0.04296875 z M 33.615234 3.5957031 C 34.206332 3.5957038 34.786991 3.6051034 35.421875 3.6152344 C 44.430653 3.7671809 53.471255 5.1336733 61.560547 7.5546875 L 62.064453 7.7070312 L 62.25 8.1640625 C 66.070247 17.605006 66.990234 28.726438 66.990234 40.0625 C 66.990234 51.398562 65.972723 63.025755 61.988281 72.578125 L 61.791016 73.044922 L 61.275391 73.185547 C 53.273669 75.403966 44.691921 76.529297 35.759766 76.529297 C 35.212453 76.529297 34.675812 76.519896 34.150391 76.509766 L 33.943359 76.509766 C 24.901742 76.357819 15.860367 74.989738 7.7929688 72.558594 L 7.2890625 72.40625 L 7.1035156 71.951172 C 3.2942144 62.520359 2.375 51.369168 2.375 40.0625 C 2.375 28.755832 3.3819737 17.127318 7.3554688 7.5546875 L 7.5527344 7.0898438 L 8.0664062 6.9472656 C 15.509867 4.890923 23.785212 3.7371557 32.005859 3.6054688 C 32.542226 3.5953387 33.078867 3.5957031 33.615234 3.5957031 z "
         style="opacity:1;vector-effect:none;fill:#ffffff;fill-opacity:1;fill-rule:nonzero;stroke:none;stroke-width:1.95200002;stroke-linecap:butt;stroke-linejoin:miter;stroke-miterlimit:4;stroke-dasharray:none;stroke-dashoffset:0;stroke-opacity:1" />
    </g>
    <path
       id="path1154-8-2"
       d="m 33.675163,6.6112954 c 0.557696,0 1.115392,0.00956 1.683415,0.019115 8.427403,0.14336 16.803167,1.4049288 24.363042,3.6700176 3.573384,8.830981 4.443772,19.417362 4.443772,29.761551 0,10.344189 -0.95301,21.39888 -4.68131,30.334991 -7.435942,2.064385 -15.429581,3.274388 -23.774362,3.274388 -0.506058,0 -1.012115,-0.0096 -1.518172,-0.01911 h -0.17557 C 25.56792,73.508883 17.192156,72.088619 9.6426089,69.813973 6.0795528,61.002107 5.2088244,50.415411 5.2088244,40.061979 c 0,-10.353432 0.95335,-21.389323 4.6609939,-30.325434 C 16.820359,7.8155201 24.462856,6.7450981 32.177647,6.6208528 c 0.49573,-0.00956 1.001787,-0.00956 1.497516,-0.00956 m 0,-0.9557337 c -0.506057,0 -1.012114,0 -1.518171,0.00956 C 24.40089,5.7893644 16.593149,6.8789009 9.570315,8.8190405 L 9.0849131,8.9528432 8.8990146,9.3924808 C 5.1500599,18.424166 4.1999116,29.394246 4.1999116,40.061979 c 0,10.667733 0.8675267,21.188618 4.461566,30.0865 l 0.1755708,0.430081 0.4750741,0.14336 c 7.6115135,2.293761 16.1421925,3.584001 24.6728715,3.727361 h 0.196227 c 0.495729,0.0096 1.001786,0.01911 1.518171,0.01911 8.427403,0 16.524318,-1.060864 24.073866,-3.153921 l 0.485403,-0.133802 0.185898,-0.439639 c 3.759282,-9.01257 4.719759,-19.983589 4.719759,-30.679055 0,-10.695466 -0.867528,-21.188618 -4.471894,-30.0960578 L 60.516853,9.5358409 60.041779,9.3924808 C 52.409609,7.108277 43.87893,5.8180364 35.379234,5.6746763 34.780227,5.6651187 34.232859,5.6555621 33.675163,5.6555615 Z"
       style="fill:#ff0000;stroke:#ffffff;stroke-width:1.84341729;stroke-miterlimit:4;stroke-dasharray:none" />
    <path
       id="path1154"
       d="m 33.614853,4.6077955 c 0.591098,0 1.182197,0.01013 1.784241,0.02026 8.932155,0.1519464 17.809578,1.4890758 25.822246,3.8898304 3.787408,9.3599041 4.709928,20.5803481 4.709928,31.5440931 0,10.963745 -1.01009,22.680548 -4.961693,32.151879 -7.881312,2.18803 -16.353723,3.302304 -25.198307,3.302304 -0.536368,0 -1.072735,-0.01013 -1.609102,-0.02026 H 33.97608 C 25.022033,75.343956 16.14461,74.006827 8.1428892,71.595943 4.3664269,62.256298 3.443547,51.035521 3.443547,40.061979 c 0,-10.973542 1.01045,-22.670418 4.9401601,-32.1417498 7.3668369,-2.036083 15.4670749,-3.170617 23.6439369,-3.3023039 0.525421,-0.01013 1.061788,-0.01013 1.587209,-0.01013 m 0,-1.0129766 c -0.536367,0 -1.072734,0 -1.609101,0.01013 C 23.785105,3.7366356 15.509726,4.891429 8.0662653,6.9477716 L 7.5517907,7.0895883 7.3547579,7.5555576 C 3.3812628,17.128188 2.3742062,28.755311 2.3742062,40.061979 c 0,11.306668 0.9194864,22.457692 4.7287876,31.888505 l 0.1860865,0.45584 0.5035283,0.151947 c 8.0673984,2.431144 17.1090154,3.798662 26.1506324,3.950608 h 0.207979 c 0.525421,0.01013 1.061788,0.02026 1.609101,0.02026 8.932155,0 17.514028,-1.124404 25.51575,-3.342823 l 0.514475,-0.141816 0.197032,-0.46597 c 3.984442,-9.55237 5.002445,-21.180489 5.002445,-32.516551 0,-11.336062 -0.919487,-22.457692 -4.739734,-31.8986353 L 62.064202,7.7075041 61.560674,7.5555576 C 53.471382,5.1345434 44.429765,3.7670249 35.420987,3.6150784 c -0.634884,-0.01013 -1.215036,-0.020259 -1.806134,-0.02026 z"
       style="fill:#000000;stroke:#000000;stroke-width:1.95382714;stroke-miterlimit:4;stroke-dasharray:none" />
    <g
       id="g1810">
      <path
         d="M 6.5134911,7.7433673 C 5.6489029,6.8479453 4.058602,6.5681013 3.6272194,7.3820013 3.284151,8.0292783 3.3625296,8.5309135 4.395235,8.9201755 3.2963719,9.5187755 1.4857674,9.4447465 1.1893447,7.4467713 0.95320848,5.8551433 2.674739,4.8863543 3.1399725,5.0916244 3.0034432,3.6818714 1.8221094,4.0692802 0.95849208,3.2813384 0.34259068,2.7194046 0.23126071,-0.02624603 0.0561761,0.04378767 -0.0138576,0.21887227 2.7317937,0.33020157 3.2937267,0.94610377 4.0816685,1.8097211 3.6942598,2.9910547 5.1040128,3.1275841 4.8987425,2.6623507 5.8675315,0.94082017 7.4591593,1.1769564 9.4571345,1.4733791 9.5311625,3.2839847 8.9325635,4.3828467 8.5433008,3.3501417 8.041666,3.2717627 7.3943894,3.6148312 6.5804899,4.0462137 6.8603354,5.6365129 7.7557553,6.5011023"
         style="fill:#000000;stroke:#000000;stroke-width:0.1112323px;stroke-linecap:butt;stroke-linejoin:miter;stroke-opacity:1"
         id="path1737-3" />
      <path
         d="m 62.850738,7.7433673 c 0.864588,-0.895422 2.454889,-1.175266 2.886271,-0.361366 0.343069,0.647277 0.26469,1.148912 -0.768015,1.538174 1.098863,0.5986 2.909467,0.524571 3.20589,-1.473404 0.236136,-1.591628 -1.485394,-2.560417 -1.950628,-2.3551469 0.13653,-1.409753 1.317863,-1.0223442 2.181481,-1.810286 0.615901,-0.5619338 0.727231,-3.30758442 0.902316,-3.23755072 0.07003,0.1750846 -2.675618,0.2864139 -3.237551,0.9023161 C 65.28256,1.8097211 65.669969,2.9910547 64.260216,3.1275841 64.465486,2.6623507 63.496697,0.94082018 61.905069,1.1769564 c -1.997975,0.2964227 -2.072003,2.1070283 -1.473404,3.2058903 0.389263,-1.032705 0.890898,-1.111084 1.538174,-0.7680155 0.8139,0.4313825 0.534054,2.0216817 -0.361366,2.8862711"
         style="fill:#000000;stroke:#000000;stroke-width:0.1112323px;stroke-linecap:butt;stroke-linejoin:miter;stroke-opacity:1"
         id="path1737-3-5" />
      <path
         d="m 62.850738,72.244244 c 0.864588,0.895422 2.454889,1.175266 2.886272,0.361366 0.343068,-0.647277 0.264689,-1.148912 -0.768016,-1.538174 1.098863,-0.5986 2.909468,-0.524571 3.20589,1.473404 0.236137,1.591628 -1.485394,2.560417 -1.950628,2.355147 0.13653,1.409753 1.317864,1.022344 2.181481,1.810286 0.615901,0.561934 0.727231,3.307584 0.902316,3.237551 0.07003,-0.175085 -2.675618,-0.286414 -3.237551,-0.902317 -0.787942,-0.863617 -0.400533,-2.04495 -1.810286,-2.18148 0.20527,0.465234 -0.763519,2.186764 -2.355146,1.950628 -1.997976,-0.296423 -2.072004,-2.107028 -1.473405,-3.20589 0.389263,1.032705 0.890898,1.111084 1.538175,0.768015 0.813899,-0.431382 0.534054,-2.021682 -0.361366,-2.886271"
         style="fill:#000000;stroke:#000000;stroke-width:0.1112323px;stroke-linecap:butt;stroke-linejoin:miter;stroke-opacity:1"
         id="path1737-3-7" />
      <path
         d="M 6.513491,72.244245 C 5.648903,73.139667 4.058602,73.419511 3.62722,72.605611 3.284151,71.958334 3.36253,71.456699 4.395235,71.067437 c -1.098863,-0.5986 -2.909467,-0.524571 -3.20589,1.473404 -0.23613599,1.591628 1.485394,2.560417 1.950628,2.355147 -0.13653,1.409753 -1.317863,1.022344 -2.18148099,1.810286 -0.615901,0.561933 -0.727231,3.307584 -0.902316,3.23755 C -0.01385399,79.76874 2.731794,79.65741 3.293727,79.041508 4.081669,78.177891 3.69426,76.996557 5.104013,76.860028 4.898743,77.325261 5.867532,79.046792 7.45916,78.810656 9.457135,78.514233 9.531163,76.703627 8.932564,75.604765 8.543301,76.63747 8.041666,76.715849 7.39439,76.372781 6.58049,75.941398 6.860336,74.351099 7.755756,73.48651"
         style="fill:#000000;stroke:#000000;stroke-width:0.1112323px;stroke-linecap:butt;stroke-linejoin:miter;stroke-opacity:1"
         id="path1737-3-5-5" />
    </g>
    <path
       id="path1154-9"
       d="m 33.712865,7.4258691 c 0.536813,0 1.07363,0.00933 1.620386,0.01865 8.111875,0.1398689 16.174044,1.3707167 23.450873,3.5806479 3.439594,8.615932 4.277395,18.944521 4.277395,29.036812 0,10.092292 -0.917329,20.877786 -4.506039,29.596289 -7.157536,2.014114 -14.851888,3.03982 -22.884234,3.03982 -0.487111,0 -0.974221,-0.0094 -1.461331,-0.01865 H 34.040918 C 25.909161,72.53957 17.846991,71.308722 10.580105,69.089467 7.1504515,60.492184 6.3123238,50.163289 6.3123238,40.061979 c 0,-10.101311 0.9176558,-20.868461 4.4864832,-29.586965 6.690308,-1.8742449 14.046665,-2.9186005 21.472608,-3.0398203 0.47717,-0.00933 0.964281,-0.00933 1.44145,-0.00933 m 0,-0.9324602 c -0.487111,0 -0.974221,0 -1.46133,0.00933 C 24.785826,6.6239532 17.270413,7.686958 10.510517,9.5798526 L 10.043289,9.710397 9.8643508,10.139328 c -3.6085914,8.811751 -4.5231655,19.514693 -4.5231655,29.922651 0,10.407958 0.8350459,20.672644 4.294522,29.353849 l 0.1689973,0.419608 0.4572874,0.13987 c 7.326533,2.237904 15.537818,3.496724 23.749103,3.636593 h 0.188879 c 0.47717,0.0094 0.96428,0.01865 1.461331,0.01865 8.111875,0 15.905636,-1.035031 23.172525,-3.077119 l 0.467228,-0.130544 0.178938,-0.428932 c 3.618533,-8.793101 4.543048,-19.496959 4.543048,-29.931975 0,-10.435016 -0.835047,-20.672644 -4.304463,-29.363174 l -0.168997,-0.419609 -0.457288,-0.13987 C 51.74588,7.9107484 43.534594,6.6519271 35.353133,6.512058 34.776554,6.502738 34.249678,6.493409 33.712865,6.493409 Z"
       style="fill:#000000;stroke:none;stroke-width:1.78642213;stroke-miterlimit:4;stroke-dasharray:none" />
    <path
       id="path1154-9-3"
       d="m 33.712865,7.4258686 c 0.536813,0 1.07363,0.00933 1.620386,0.01865 8.111875,0.1398689 16.174044,1.3707167 23.450873,3.5806484 3.439594,8.615932 4.277395,18.944521 4.277395,29.036812 0,10.092292 -0.917329,20.877786 -4.506039,29.596288 -7.157536,2.014114 -14.851888,3.03982 -22.884234,3.03982 -0.487111,0 -0.974221,-0.0094 -1.461331,-0.01865 H 34.040918 C 25.909161,72.539569 17.846991,71.308722 10.580105,69.089466 7.1504515,60.492184 6.3123238,50.163288 6.3123238,40.061979 c 0,-10.101312 0.9176558,-20.868461 4.4864832,-29.586965 6.690308,-1.8742454 14.046665,-2.918601 21.472608,-3.0398208 0.47717,-0.00933 0.964281,-0.00933 1.44145,-0.00933 m 0,-0.9324602 c -0.487111,0 -0.974221,0 -1.46133,0.00933 C 24.785826,6.6239527 17.270413,7.6869575 10.510517,9.5798521 L 10.043289,9.7103965 9.8643508,10.139328 C 6.2557594,18.951079 5.3411853,29.65402 5.3411853,40.061979 c 0,10.407958 0.8350459,20.672643 4.294522,29.353849 l 0.1689973,0.419608 0.4572874,0.13987 c 7.326533,2.237904 15.537818,3.496724 23.749103,3.636593 h 0.188879 c 0.47717,0.0094 0.96428,0.01865 1.461331,0.01865 8.111875,0 15.905636,-1.035032 23.172525,-3.077119 l 0.467228,-0.130544 0.178938,-0.428932 c 3.618533,-8.793101 4.543048,-19.49696 4.543048,-29.931975 0,-10.435016 -0.835047,-20.672644 -4.304463,-29.363175 l -0.168997,-0.419609 -0.457288,-0.13987 C 51.74588,7.9107479 43.534594,6.6519266 35.353133,6.5120575 34.776554,6.5027375 34.249678,6.4934085 33.712865,6.4934085 Z"
       style="fill:#000000;stroke:none;stroke-width:1.78642213;stroke-miterlimit:4;stroke-dasharray:none" />
  </g>
</svg>
