<?xml version="1.0" encoding="UTF-8"?><svg id="Capa_2" xmlns="http://www.w3.org/2000/svg" xmlns:xlink="http://www.w3.org/1999/xlink" viewBox="0 0 69.02 80"><defs><style>.cls-1{fill:#c89aed;}.cls-2{fill:#fff;}.cls-3{fill:#f8ffbf;}.cls-4{fill:#7b7be8;}.cls-5{fill:#a88347;}.cls-6{fill:#782ab5;}.cls-7{stroke-miterlimit:10;}.cls-7,.cls-8{stroke:#000;}.cls-7,.cls-8,.cls-9,.cls-10,.cls-11{fill:none;}.cls-12{fill:#1c46ff;}.cls-8,.cls-9{stroke-linecap:round;stroke-linejoin:round;}.cls-9{stroke:#deb778;stroke-dasharray:0 0 0 4.06;}.cls-13{fill:#deb778;}.cls-14{fill:url(#USGS_19_Inundación_de_tierra_2);}.cls-11{stroke:#1d1d1b;stroke-dasharray:0 0 2 2;stroke-width:.3px;}.cls-15{fill:#cf5f2b;}.cls-16{fill:#fcf0c5;}.cls-17{fill:#b83521;}</style><pattern id="USGS_19_Inundación_de_tierra_2" x="0" y="0" width="72" height="72" patternTransform="translate(-380.48 -16999) rotate(-90)" patternUnits="userSpaceOnUse" viewBox="0 0 72 72"><g><rect class="cls-10" width="72" height="72"/><g><line class="cls-11" x1="71" y1="71" x2="144.44" y2="71"/><line class="cls-11" x1="71" y1="67" x2="144.44" y2="67"/><line class="cls-11" x1="71" y1="63" x2="144.44" y2="63"/><line class="cls-11" x1="71" y1="59" x2="144.44" y2="59"/><line class="cls-11" x1="71" y1="55" x2="144.44" y2="55"/><line class="cls-11" x1="71" y1="51" x2="144.44" y2="51"/><line class="cls-11" x1="71" y1="47" x2="144.44" y2="47"/><line class="cls-11" x1="71" y1="43" x2="144.44" y2="43"/><line class="cls-11" x1="71" y1="39" x2="144.44" y2="39"/><line class="cls-11" x1="71" y1="35" x2="144.44" y2="35"/><line class="cls-11" x1="71" y1="31" x2="144.44" y2="31"/><line class="cls-11" x1="71" y1="27" x2="144.44" y2="27"/><line class="cls-11" x1="71" y1="23" x2="144.44" y2="23"/><line class="cls-11" x1="71" y1="19" x2="144.44" y2="19"/><line class="cls-11" x1="71" y1="15" x2="144.44" y2="15"/><line class="cls-11" x1="71" y1="11" x2="144.44" y2="11"/><line class="cls-11" x1="71" y1="7" x2="144.44" y2="7"/><line class="cls-11" x1="71" y1="3" x2="144.44" y2="3"/></g>
<g><line class="cls-11" x1="-1" y1="71" x2="72.44" y2="71"/><line class="cls-11" x1="-1" y1="67" x2="72.44" y2="67"/><line class="cls-11" x1="-1" y1="63" x2="72.44" y2="63"/><line class="cls-11" x1="-1" y1="59" x2="72.44" y2="59"/><line class="cls-11" x1="-1" y1="55" x2="72.44" y2="55"/><line class="cls-11" x1="-1" y1="51" x2="72.44" y2="51"/><line class="cls-11" x1="-1" y1="47" x2="72.44" y2="47"/><line class="cls-11" x1="-1" y1="43" x2="72.44" y2="43"/><line class="cls-11" x1="-1" y1="39" x2="72.44" y2="39"/><line class="cls-11" x1="-1" y1="35" x2="72.44" y2="35"/><line class="cls-11" x1="-1" y1="31" x2="72.44" y2="31"/><line class="cls-11" x1="-1" y1="27" x2="72.44" y2="27"/><line class="cls-11" x1="-1" y1="23" x2="72.44" y2="23"/><line class="cls-11" x1="-1" y1="19" x2="72.44" y2="19"/><line class="cls-11" x1="-1" y1="15" x2="72.44" y2="15"/><line class="cls-11" x1="-1" y1="11" x2="72.44" y2="11"/><line class="cls-11" x1="-1" y1="7" x2="72.44" y2="7"/><line class="cls-11" x1="-1" y1="3" x2="72.44" y2="3"/><line class="cls-11" x1="1.04" y1="69" x2="74.48" y2="69"/><line class="cls-11" x1="1.04" y1="65" x2="74.48" y2="65"/><line class="cls-11" x1="1.04" y1="61" x2="74.48" y2="61"/><line class="cls-11" x1="1.04" y1="57" x2="74.48" y2="57"/><line class="cls-11" x1="1.04" y1="53" x2="74.48" y2="53"/><line class="cls-11" x1="1.04" y1="49" x2="74.48" y2="49"/><line class="cls-11" x1="1.04" y1="45" x2="74.48" y2="45"/><line class="cls-11" x1="1.04" y1="41" x2="74.48" y2="41"/><line class="cls-11" x1="1.04" y1="37" x2="74.48" y2="37"/><line class="cls-11" x1="1.04" y1="33" x2="74.48" y2="33"/><line class="cls-11" x1="1.04" y1="29" x2="74.48" y2="29"/><line class="cls-11" x1="1.04" y1="25" x2="74.48" y2="25"/><line class="cls-11" x1="1.04" y1="21" x2="74.48" y2="21"/><line class="cls-11" x1="1.04" y1="17" x2="74.48" y2="17"/><line class="cls-11" x1="1.04" y1="13" x2="74.48" y2="13"/><line class="cls-11" x1="1.04" y1="9" x2="74.48" y2="9"/><line class="cls-11" x1="1.04" y1="5" x2="74.48" y2="5"/><line class="cls-11" x1="1.04" y1="1" x2="74.48" y2="1"/></g>
<g><line class="cls-11" x1="-73" y1="71" x2=".44" y2="71"/><line class="cls-11" x1="-73" y1="67" x2=".44" y2="67"/><line class="cls-11" x1="-73" y1="63" x2=".44" y2="63"/><line class="cls-11" x1="-73" y1="59" x2=".44" y2="59"/><line class="cls-11" x1="-73" y1="55" x2=".44" y2="55"/><line class="cls-11" x1="-73" y1="51" x2=".44" y2="51"/><line class="cls-11" x1="-73" y1="47" x2=".44" y2="47"/><line class="cls-11" x1="-73" y1="43" x2=".44" y2="43"/><line class="cls-11" x1="-73" y1="39" x2=".44" y2="39"/><line class="cls-11" x1="-73" y1="35" x2=".44" y2="35"/><line class="cls-11" x1="-73" y1="31" x2=".44" y2="31"/><line class="cls-11" x1="-73" y1="27" x2=".44" y2="27"/><line class="cls-11" x1="-73" y1="23" x2=".44" y2="23"/><line class="cls-11" x1="-73" y1="19" x2=".44" y2="19"/><line class="cls-11" x1="-73" y1="15" x2=".44" y2="15"/><line class="cls-11" x1="-73" y1="11" x2=".44" y2="11"/><line class="cls-11" x1="-73" y1="7" x2=".44" y2="7"/><line class="cls-11" x1="-73" y1="3" x2=".44" y2="3"/><line class="cls-11" x1="-70.96" y1="69" x2="2.48" y2="69"/><line class="cls-11" x1="-70.96" y1="65" x2="2.48" y2="65"/><line class="cls-11" x1="-70.96" y1="61" x2="2.48" y2="61"/><line class="cls-11" x1="-70.96" y1="57" x2="2.48" y2="57"/><line class="cls-11" x1="-70.96" y1="53" x2="2.48" y2="53"/><line class="cls-11" x1="-70.96" y1="49" x2="2.48" y2="49"/><line class="cls-11" x1="-70.96" y1="45" x2="2.48" y2="45"/><line class="cls-11" x1="-70.96" y1="41" x2="2.48" y2="41"/><line class="cls-11" x1="-70.96" y1="37" x2="2.48" y2="37"/><line class="cls-11" x1="-70.96" y1="33" x2="2.48" y2="33"/><line class="cls-11" x1="-70.96" y1="29" x2="2.48" y2="29"/><line class="cls-11" x1="-70.96" y1="25" x2="2.48" y2="25"/><line class="cls-11" x1="-70.96" y1="21" x2="2.48" y2="21"/><line class="cls-11" x1="-70.96" y1="17" x2="2.48" y2="17"/><line class="cls-11" x1="-70.96" y1="13" x2="2.48" y2="13"/><line class="cls-11" x1="-70.96" y1="9" x2="2.48" y2="9"/><line class="cls-11" x1="-70.96" y1="5" x2="2.48" y2="5"/><line class="cls-11" x1="-70.96" y1="1" x2="2.48" y2="1"/></g>
</g>
</pattern></defs><g id="Frame"><path class="cls-6" d="M64.02,40c0,11.47-1.89,22.39-5.5,31.74-7.2,2.16-14.94,3.26-23.02,3.26-.49,0-.98-.01-1.47-.02h-.17c-8.18-.15-16.29-1.47-23.6-3.85-3.45-9.22-5.26-19.93-5.26-31.13s1.89-22.38,5.48-31.73c6.73-2.01,14.13-3.13,21.6-3.26,.48-.01,.97-.01,1.45-.01,.54,0,1.08,.01,1.63,.02,8.16,.15,16.27,1.47,23.59,3.84,3.46,9.24,5.27,19.95,5.27,31.14Z"/><path class="cls-14" d="M34.03,5.59V74.98h-.17c-8.18-.15-16.29-1.47-23.6-3.85-3.45-9.22-5.26-19.93-5.26-31.13s1.89-22.38,5.48-31.73c6.73-2.01,14.13-3.13,21.6-3.26,.65,.16,1.3,.36,1.95,.58Z"/></g>
<g><path class="cls-1" d="M63.03,63.72l-3.41,10.15s-16.38,2.91-30.93,2.41-19.46-2.83-19.46-2.83l-1.66-11.22s7.15-3.16,10.48-3.66c4.65-3.49,5.82-3.16,5.82-3.16l.16-3.49-2.33-3.58-1.08-4.57s-1.98,2.98-.17,8.53c.01,.02,.01,.03,.01,.03,0,0-7.57-3.24-5.99-15.55-2.41-5.82,1.08-12.56,1.08-12.56,0,0,1.58-6.48,10.98-10.31,9.39-3.82,17.21-1.41,21.12,5.41,5.41,.41,4.91,6.57,4.24,8.9-.66,2.32-1.66,3.99,.5,5.9,2.16,1.91,4.16,4.82,2.49,8.56-1.61,3.63-5.01,5.61-5.22,5.73,.05-.24,.92-4.01-1.6-6.41-.18-.17-.37-.33-.58-.48-.91,5.99-1.16,6.99-1.16,6.99l-2.08,3.07,.08,4.08s3.41,1.16,5.58,3.16c7.56,1.66,13.13,4.9,13.13,4.9Z"/><path class="cls-17" d="M54.88,42.68c-1.61,3.63-5.01,5.61-5.22,5.73,.05-.24,.92-4.01-1.6-6.41-.74-1.34-1.77-2.33-2.51-3.19-1.48-1.71-1.56-4.9-1.17-6.85,.39-1.94,.85-4.28-2.57-4.9-1.01-4.75-5.22-4.44-7.55-3.27-2.34,1.17-2.96,5.45-3.04,7.32-.08,1.87-.55,4.2-2.02,5.52-1.48,1.33-5.53,3.74-8.34,6.78-2.69,2.99-.58,8.47-.41,8.89,.01,.02,.01,.03,.01,.03,0,0-7.57-3.24-5.99-15.55-2.41-5.82,1.08-12.56,1.08-12.56,0,0,1.58-6.48,10.98-10.31,9.39-3.82,17.21-1.41,21.12,5.41,5.41,.41,4.91,6.57,4.24,8.9-.66,2.32-1.66,3.99,.5,5.9,2.16,1.91,4.16,4.82,2.49,8.56Z"/><path d="M23.87,55.41l-.27,3.65s-1.03,10.93,.31,15.46c-10.72-.93-14.23-3.81-14.23-3.81l-2.11-8.48s8.44-3.53,10.48-3.66c4.41-2.61,5.82-3.16,5.82-3.16Z"/><path d="M44.32,75.04s1.55-7.22,.62-11.55-.62-7.83-.62-7.83c0,0,3.71,1.13,5.36,2.78,7.53,2.27,11.96,4.85,11.96,4.85l-2.99,8.35s-8.76,2.99-14.33,3.4Z"/><path class="cls-12" d="M45.02,58.85s1.39,5.11,.61,8.67c5.11-1.3,6.15-1.91,8.5,0s5.63,2.08,5.63,2.08l1.73-5.81s-7.11-3.9-16.47-4.94Z"/><path class="cls-1" d="M20.62,43.77l.98,5.05,2.43,3.1v7.4s-1.78,9.48,.27,15.24c6.69,3.9,20.25-.09,20.25-.09,0,0,1.11-9.38-.19-15.52-.19-6.41-.13-7.37-.13-7.37l2.08-3.07,1.74-6.51s-3.97-3.95-3.6-7.95c.74-5.2-.56-6.92-2.65-6.99-.79-4.16-5.06-4.99-8.41-2.95-2.51,2.32-1.3,10.87-4.74,13.1-.4,.24-.77,.46-1.11,.67-3.91,2.4-5.02,3.55-6.93,5.89Z"/><path class="cls-2" d="M34.13,57.72V26.99c0-2.67,2.74-4.66,5.16-3.54,.13,.06,.26,.13,.38,.21,1.91,1.24,2.14,3.4,2.14,3.4,0,0,2.63-.44,2.82,2.04s-1.2,6.39-.1,8.31,3.06,3.82,3.06,3.82l-1.53,7.74-9.31,10.39s0,0-.03,.01c-1.21,.58-2.6-.32-2.6-1.66Z"/><path class="cls-2" d="M42.79,56l-15.1,18.55s10.28,.55,14.62-.07c1.93-5.72,.69-13.72,.69-13.72l-.21-4.76Z"/><path class="cls-3" d="M30.47,38.89l-1.03-.85-2.43,.06-3.09,1.88s4.91,1.82,6.55-1.09Z"/><path class="cls-3" d="M38.24,38.89l1.03-.85,6.26,.06,.17,1.58s-6.43,2.39-7.47-.79Z"/><path class="cls-4" d="M36.93,35.24l.98,3.58,1.53-.72,5.92,.26s-1.06-3.02-.89-5.41c-3.92-.51-6.69,.89-7.54,2.3Z"/><path class="cls-4" d="M30.47,38.89l1.27-3.52-1.08-1.29s-1.58,2.99-2.49,3.78l1.18,.24,1.12,.79Z"/><path class="cls-17" d="M30.72,52.13s.55,1.35,1.32,2.01c2.89,.15,4.06,.04,4.06,.04,0,0,1.02-1.17,1.32-2.19-1.72-1.46-4.43-2.34-6.69,.15Z"/><path class="cls-5" d="M34.41,70.99s-1.98,.05-2.14,1.58c.1,1.68,1.17,2.39,1.17,2.39l2.03-.61s.86-.81,.51-1.73-1.58-1.63-1.58-1.63Z"/><polygon points="43.92 52.9 25.16 75.2 21.44 73.7 21.62 57.86 24.01 55.11 24.03 51.92 31 59.45 36.75 59.36 43.92 52.9"/><path class="cls-1" d="M37.44,24.49h0c.64,0,1.16,.14,1.59,.42,1.03,.67,1.27,2.07,1.31,2.31h0s0,.06,0,.06c.09,.71,.67,1.26,1.42,1.33,1,.05,1.12,.38,1.21,.62,.23,.62,.2,1.76,.14,3.08-.11,2.43-.25,5.46,1.63,7.91,.36,.49,.74,.93,1.11,1.37l.04,.05c.12,.14,.23,.27,.35,.41l-1.32,5.94c-.66,1.04-3.91,6-8.61,9.97-.71,.05-1.44,.08-2.17,.08-.78,0-1.57-.03-2.37-.09-4.67-3.94-7.92-8.89-8.6-9.95l-.83-4.2c1.34-1.9,3.75-3.34,6.31-4.87l.17-.1c3.34-1.98,3.64-5.51,3.9-8.39,.26-3.1,.52-4.89,2.71-5.61,.75-.23,1.42-.35,2-.35m0-1c-.69,0-1.45,.13-2.3,.39-2.94,.97-3.16,3.52-3.41,6.48-.24,2.75-.5,5.88-3.41,7.61l-.18,.11c-2.89,1.72-5.46,3.27-6.85,5.51l.94,4.78c.44,.71,3.99,6.28,9.15,10.55,.94,.08,1.86,.11,2.76,.11s1.73-.03,2.57-.1c5.18-4.29,8.73-9.88,9.15-10.56l1.45-6.53s.02-.03,.02-.04c-.22-.28-.45-.55-.68-.82-.37-.44-.75-.89-1.11-1.37-1.66-2.16-1.54-4.87-1.43-7.26,.14-3.04,.1-4.64-2.3-4.75-.24-.02-.44-.21-.47-.45,0-.02-.22-2.07-1.76-3.08-.59-.39-1.31-.58-2.14-.58h0Z"/><path class="cls-15" d="M44.05,27.93s8.01-3.06,6.85-7.1c2.56,2.89,.74,8.18,.33,10.41-.91-1.49-4.87,2.06-6.36,5.2,.08-5.37,.41-7.52-.83-8.51Z"/><path class="cls-15" d="M32,25.62s-10.11,1.06-7.32-3.85,.83-6.57-2.72-5.43c-3.32,2.49-5.13,5.13-5.13,5.13,0,0,5.21-3.17,4.3,1.58s1.43,9.58,10.04,7.24c.23-2.57,.83-4.68,.83-4.68Z"/><path class="cls-2" d="M23.86,42.99c.97,.17,2.65,.33,4.19-.17,.49-.16,.93,.37,.63,.79-1.9,2.75-4.57,2.31-5.42,.08-.14-.38,.2-.77,.59-.7Z"/><path d="M29.56,35.81s-16.08,3.65-10.44-5.39c-4.06,1.33-2.98-5.64-1.33-7.79-4.97,2.9-5.64,10.4-3.32,14.15-3.15,7.98,3.57,14.03,5.64,15.19-2.07-6.05,.91-9.28,2.07-10.28s6.46-3.65,7.38-5.88Z"/><path class="cls-8" d="M14.36,36.49s-4.74-8.11,3.9-14.54"/><path class="cls-8" d="M14.56,25.82c1-3.01,3.42-9.74,15.01-12.8,13.98-3.43,17.92,6.36,17.92,6.36,0,0,4.59-.62,4.93,5.28-.25,4.74-2.74,6.57,.5,10.56s4.57,5.82-3.66,13.97c1.66-5.07-1.1-7-3.33-9.9-3.45-4.5,1.37-11.95-4.09-12.21,0,0-.54-5.67-6.84-3.69-6.3,2.07-1.35,10.81-6.93,14.14s-10.45,6.12-7.47,14.77c-9.1-4.86-8.38-18.37-.09-23.05"/><path d="M36.95,35.35s-.47-1.05,.15-1.87c2.29-1.37,5.97-1.62,7.32-1.19-.15,.97-.15,1.19-.15,1.19,0,0-3.46-.32-7.32,1.87Z"/><path d="M31.28,33.29s.85,.77,.52,2.07c-.62,.2-1.22-.4-1.22-.4,0,0,.2-1.42,.7-1.67Z"/><path d="M37.83,38.91l1.01-1.23c.06-.09,.18-.08,.27-.08,0,0,5.88,0,5.88,0,.65,0,.66,1,0,1,0,0-5.88,0-5.88,0l.27-.08-1.54,.39h0Z"/><path d="M45.98,39.7c-1.87,1.9-5.19,2.05-7.11,.17,2.15,1.08,4.59,.47,6.43-.91,.48-.4,1.12,.29,.68,.73h0Z"/><path d="M30.62,38.91l-1.54-.39,.27,.08h-2.11c-.65,0-.65-1,0-1,0,0,2.11,0,2.11,0h.1c.07,0,.13,.03,.16,.08l1.01,1.23h0Z"/><path d="M24.38,39.76c1.71,.67,3.43,.87,5.2,.11-1.36,1.47-3.91,1.91-5.64,.79-.51-.3-.1-1.12,.44-.9h0Z"/><path d="M36.29,39.03c-.05,.31-.14,.99-.18,1.11,.53,2.01,.95,4.04,1.33,6.08,.03,.18-.04,.35-.18,.44-.86,.6-1.75,1.16-2.63,1.74-.17,.11-.38,.1-.54,0-.88-.58-1.76-1.14-2.63-1.74-.15-.1-.22-.28-.18-.45,.38-2.04,.8-4.06,1.34-6.08-.04-.1-.14-.81-.18-1.11,.14,.38,.33,.76,.42,1.15-.13,2.08-.38,4.13-.66,6.18l-.21-.46c.89,.53,1.77,1.1,2.65,1.66h-.54c.88-.55,1.76-1.12,2.65-1.66l-.2,.46c-.29-2.05-.53-4.11-.67-6.18,.09-.39,.28-.77,.42-1.15h0Z"/><path d="M38.87,52.67c-.8-.12-2.44-.47-4.71-1.6-2.27,1.13-3.92,1.48-4.72,1.6,.35-.64,1.26-2.06,2.5-2.57,1.47-.59,2.96-.59,4.43,0,1.24,.51,2.15,1.93,2.5,2.57Z"/><path d="M36.74,53.44c-.11,.33-.27,.59-.43,.84-1.42,.55-2.93,.66-4.38,.08,0,0-.28-.09-.28-.09-.17-.25-.32-.51-.43-.84-.03-.04,0-.11,.06-.08,0,0,.7,.45,.7,.45-.19-.03,2.06-.04,2.01-.05-.05,0,2.2,.02,2.01,.05,0,0,.7-.45,.7-.45,.05-.03,.09,.04,.06,.08h0Z"/><path class="cls-8" d="M20.78,43.6l.98,4.96s3.73,6.18,9.42,10.85c1.53,.13,3.55,.2,5.73,0,5.69-4.67,9.42-10.85,9.42-10.85l1.47-6.61"/><path class="cls-8" d="M23.96,51.91v7.54s-1.82,8.41,0,15"/><path class="cls-8" d="M23.97,55.54s-2.98,.76-5.52,2.98c-4.7,1.21-11.49,4.19-11.49,4.19"/><path class="cls-8" d="M44.29,51.91v7.54s1.82,8.41,0,15"/><path class="cls-8" d="M44.28,55.54s2.98,.76,5.52,2.98c4.7,1.21,11.49,4.19,11.49,4.19"/><path class="cls-8" d="M44.22,58.44s-4.04,8.04-10.14,12.24c-6.1-4.2-10.14-12.24-10.14-12.24"/><circle class="cls-8" cx="34.11" cy="72.97" r="2.03"/><path class="cls-8" d="M49.8,58.52s4.85,5.41,2.23,14.37"/><path class="cls-12" d="M24.52,54.44c.46,1.25,.83,2.54,1.13,3.84,0,0-.92-.1-.92-.1-2.03-.27-3.98,.81-5.39,2.2-2.94,.81-6.02,1.8-9.01,2.43,2.44-1.41,5.72-2.39,8.56-3.33,1.35-1.43,3.91-2.55,6.06-1.9,0,0-.09,.07-.09,.07l-.43-3.19h.1Z"/></g>
<g id="BG"><path class="cls-5" d="M62.56,4.88C54.4,1.94,45.12,.2,35.25,.02c-.57-.01-1.15-.02-1.72-.02C23.88,0,14.77,1.52,6.72,4.21,2.49,14.22,0,26.6,0,40s2.39,25.22,6.45,35.11c8.16,2.94,17.45,4.69,27.32,4.87,.58,.01,1.15,.02,1.73,.02,9.63,0,18.73-1.51,26.78-4.2,4.24-10.01,6.74-22.39,6.74-35.8s-2.4-25.24-6.46-35.12Zm-4.04,66.86c-7.2,2.16-14.94,3.26-23.02,3.26-.49,0-.98-.01-1.47-.02h-.17c-8.18-.15-16.29-1.47-23.6-3.85-3.45-9.22-5.26-19.93-5.26-31.13s1.89-22.38,5.48-31.73c6.73-2.01,14.13-3.13,21.6-3.26,.48-.01,.97-.01,1.45-.01,.54,0,1.08,.01,1.63,.02,8.16,.15,16.27,1.47,23.59,3.84,3.46,9.24,5.27,19.95,5.27,31.14s-1.89,22.39-5.5,31.74Z"/><path class="cls-13" d="M17.21,2.06h0c1.63,.63,2.06,2.75,.81,3.97l-1.26,1.22s8.35-2.37,18.84-1.69h0c-1-1.49-.45-3.52,1.14-4.34l1-.51S28.26-.43,17.21,2.06Z"/><path class="cls-16" d="M21.81,1.66s.7,2.18-.22,3.1c3.77-.41,7.98-.74,11.12-.74-.33-1.33,1.26-3.4,1.26-3.4,0,0-6.17-.26-12.16,1.03Z"/><path class="cls-13" d="M36.25,79.21h0c-1.52-.87-1.62-3.03-.2-4.04l1.43-1.02s-8.61,1.07-18.88-1.19h0c.76,1.63-.09,3.55-1.79,4.11l-1.07,.36s9.19,2.56,20.5,1.78Z"/><path class="cls-16" d="M19.28,77.8s1.76-1.83,1.3-3.09c4.43,.69,9.11,1.14,12.25,1.14-.33,1.33,.44,3.4,.44,3.4,0,0-8-.16-13.99-1.45Z"/><polygon points="47.48 1.77 47.48 6.73 54.49 8.44 54.49 2.62 47.48 1.77"/><line class="cls-7" x1="45.5" y1="1.23" x2="45.5" y2="6.29"/><line class="cls-7" x1="56.47" y1="3.67" x2="56.47" y2="8.73"/><polygon points="47.48 78.74 47.48 73.78 54.49 72.07 54.49 77.88 47.48 78.74"/><line class="cls-7" x1="45.5" y1="79.28" x2="45.5" y2="74.21"/><line class="cls-7" x1="56.47" y1="76.84" x2="56.47" y2="71.77"/><path d="M33.53,1c.56,0,1.14,0,1.7,.02,9.39,.17,18.33,1.74,26.57,4.65,4.07,10.08,6.22,21.94,6.22,34.33s-2.24,24.79-6.49,34.99c-8.12,2.66-16.87,4.01-26.03,4.01-.56,0-1.12,0-1.71-.02-9.25-.17-18.42-1.78-26.58-4.66C3.15,64.25,1,52.39,1,40S3.23,15.21,7.47,5.02C15.6,2.35,24.37,1,33.53,1M33.53,0C23.88,0,14.77,1.52,6.72,4.21,2.49,14.22,0,26.6,0,40s2.39,25.22,6.45,35.11c8.16,2.94,17.45,4.69,27.32,4.87,.58,.01,1.15,.02,1.73,.02,9.63,0,18.73-1.51,26.78-4.2,4.24-10.01,6.74-22.39,6.74-35.8s-2.4-25.24-6.46-35.12C54.4,1.94,45.12,.2,35.25,.02,34.68,.01,34.1,0,33.53,0h0Z"/><path class="cls-13" d="M33.53,6c.52,0,1.04,0,1.61,.02,7.87,.14,15.75,1.4,22.84,3.64,3.3,9,5.04,19.47,5.04,30.34s-1.82,21.82-5.26,30.92c-6.98,2.04-14.47,3.08-22.26,3.08-.48,0-.97,0-1.47-.02h-.15c-7.89-.14-15.78-1.41-22.85-3.65-3.29-8.99-5.03-19.46-5.03-30.33s1.81-21.79,5.24-30.91c6.5-1.89,13.7-2.95,20.86-3.08,.47,0,.96,0,1.43,0m0-1c-.48,0-.97,0-1.45,.01-7.47,.13-14.87,1.25-21.6,3.26-3.59,9.35-5.48,20.26-5.48,31.73s1.81,21.91,5.26,31.13c7.31,2.38,15.42,3.7,23.6,3.85h.17c.49,.01,.98,.02,1.47,.02,8.08,0,15.82-1.1,23.02-3.26,3.61-9.35,5.5-20.27,5.5-31.74s-1.81-21.9-5.27-31.14c-7.32-2.37-15.43-3.69-23.59-3.84-.55,0-1.09-.02-1.63-.02h0Z"/><path d="M33.53,5c.54,0,1.08,.01,1.63,.02,8.16,.15,16.27,1.47,23.59,3.84,3.46,9.24,5.27,19.95,5.27,31.14s-1.89,22.39-5.5,31.74c-7.2,2.16-14.94,3.26-23.02,3.26-.49,0-.98-.01-1.47-.02h-.17c-8.18-.15-16.29-1.47-23.6-3.85-3.45-9.22-5.26-19.93-5.26-31.13s1.89-22.38,5.48-31.73c6.73-2.01,14.13-3.13,21.6-3.26,.48-.01,.97-.01,1.45-.01m0-1c-.49,0-.98,0-1.47,.01-7.51,.13-15.07,1.27-21.87,3.3l-.47,.14-.18,.46c-3.63,9.45-5.55,20.55-5.55,32.09s1.84,22.17,5.32,31.48l.17,.45,.46,.15c7.37,2.4,15.63,3.75,23.89,3.9h.19c.48,.01,.97,.02,1.47,.02,8.16,0,16-1.11,23.31-3.3l.47-.14,.18-.46c3.64-9.43,5.57-20.53,5.57-32.1s-1.84-22.17-5.33-31.49l-.17-.45-.46-.15c-7.39-2.39-15.65-3.74-23.88-3.89-.58-.01-1.11-.02-1.65-.02h0Z"/><path class="cls-9" d="M8.14,7.1s-12.66,32.94,0,66.06"/><path class="cls-9" d="M60.88,7.58s12.66,32.94,0,66.06"/></g>
</svg>