<svg id="Capa_2" xmlns="http://www.w3.org/2000/svg" xmlns:xlink="http://www.w3.org/1999/xlink" viewBox="0 0 69.02 80">
<defs >
<style >
.cls-1{fill:#c89aed;}.cls-2{fill:#fff;}.cls-3{fill:#f8ffbf;}.cls-4{fill:#7b7be8;}.cls-5{fill:#a88347;}.cls-6{fill:#782ab5;}.cls-7{stroke-miterlimit:10;}.cls-7,.cls-8{stroke:#000;}.cls-7,.cls-8,.cls-9,.cls-10,.cls-11{fill:none;}.cls-12{fill:#1c46ff;}.cls-8,.cls-9{stroke-linecap:round;stroke-linejoin:round;}.cls-9{stroke:#deb778;stroke-dasharray:0 0 0 4.06;}.cls-13{fill:#deb778;}.cls-14{fill:url(#USGS_19_Inundación_de_tierra_2);}.cls-11{stroke:#1d1d1b;stroke-dasharray:0 0 2 2;stroke-width:.3px;}.cls-15{fill:#cf5f2b;}.cls-16{fill:#fcf0c5;}.cls-17{fill:#b83521;}
</style>
<pattern id="USGS_19_Inundación_de_tierra_2" x="0" y="0" width="72" height="72" patternTransform="translate(-380.48 -16999) rotate(-90)" patternUnits="userSpaceOnUse" viewBox="0 0 72 72">
<g >
<rect class="cls-10" width="72" height="72">
</rect>
<g >
<line class="cls-11" x1="71" y1="71" x2="144.44" y2="71">
</line>
<line class="cls-11" x1="71" y1="67" x2="144.44" y2="67">
</line>
<line class="cls-11" x1="71" y1="63" x2="144.44" y2="63">
</line>
<line class="cls-11" x1="71" y1="59" x2="144.44" y2="59">
</line>
<line class="cls-11" x1="71" y1="55" x2="144.44" y2="55">
</line>
<line class="cls-11" x1="71" y1="51" x2="144.44" y2="51">
</line>
<line class="cls-11" x1="71" y1="47" x2="144.44" y2="47">
</line>
<line class="cls-11" x1="71" y1="43" x2="144.44" y2="43">
</line>
<line class="cls-11" x1="71" y1="39" x2="144.44" y2="39">
</line>
<line class="cls-11" x1="71" y1="35" x2="144.44" y2="35">
</line>
<line class="cls-11" x1="71" y1="31" x2="144.44" y2="31">
</line>
<line class="cls-11" x1="71" y1="27" x2="144.44" y2="27">
</line>
<line class="cls-11" x1="71" y1="23" x2="144.44" y2="23">
</line>
<line class="cls-11" x1="71" y1="19" x2="144.44" y2="19">
</line>
<line class="cls-11" x1="71" y1="15" x2="144.44" y2="15">
</line>
<line class="cls-11" x1="71" y1="11" x2="144.44" y2="11">
</line>
<line class="cls-11" x1="71" y1="7" x2="144.44" y2="7">
</line>
<line class="cls-11" x1="71" y1="3" x2="144.44" y2="3">
</line>
</g>


<g >
<line class="cls-11" x1="-1" y1="71" x2="72.44" y2="71">
</line>
<line class="cls-11" x1="-1" y1="67" x2="72.44" y2="67">
</line>
<line class="cls-11" x1="-1" y1="63" x2="72.44" y2="63">
</line>
<line class="cls-11" x1="-1" y1="59" x2="72.44" y2="59">
</line>
<line class="cls-11" x1="-1" y1="55" x2="72.44" y2="55">
</line>
<line class="cls-11" x1="-1" y1="51" x2="72.44" y2="51">
</line>
<line class="cls-11" x1="-1" y1="47" x2="72.44" y2="47">
</line>
<line class="cls-11" x1="-1" y1="43" x2="72.44" y2="43">
</line>
<line class="cls-11" x1="-1" y1="39" x2="72.44" y2="39">
</line>
<line class="cls-11" x1="-1" y1="35" x2="72.44" y2="35">
</line>
<line class="cls-11" x1="-1" y1="31" x2="72.44" y2="31">
</line>
<line class="cls-11" x1="-1" y1="27" x2="72.44" y2="27">
</line>
<line class="cls-11" x1="-1" y1="23" x2="72.44" y2="23">
</line>
<line class="cls-11" x1="-1" y1="19" x2="72.44" y2="19">
</line>
<line class="cls-11" x1="-1" y1="15" x2="72.44" y2="15">
</line>
<line class="cls-11" x1="-1" y1="11" x2="72.44" y2="11">
</line>
<line class="cls-11" x1="-1" y1="7" x2="72.44" y2="7">
</line>
<line class="cls-11" x1="-1" y1="3" x2="72.44" y2="3">
</line>
<line class="cls-11" x1="1.04" y1="69" x2="74.48" y2="69">
</line>
<line class="cls-11" x1="1.04" y1="65" x2="74.48" y2="65">
</line>
<line class="cls-11" x1="1.04" y1="61" x2="74.48" y2="61">
</line>
<line class="cls-11" x1="1.04" y1="57" x2="74.48" y2="57">
</line>
<line class="cls-11" x1="1.04" y1="53" x2="74.48" y2="53">
</line>
<line class="cls-11" x1="1.04" y1="49" x2="74.48" y2="49">
</line>
<line class="cls-11" x1="1.04" y1="45" x2="74.48" y2="45">
</line>
<line class="cls-11" x1="1.04" y1="41" x2="74.48" y2="41">
</line>
<line class="cls-11" x1="1.04" y1="37" x2="74.48" y2="37">
</line>
<line class="cls-11" x1="1.04" y1="33" x2="74.48" y2="33">
</line>
<line class="cls-11" x1="1.04" y1="29" x2="74.48" y2="29">
</line>
<line class="cls-11" x1="1.04" y1="25" x2="74.48" y2="25">
</line>
<line class="cls-11" x1="1.04" y1="21" x2="74.48" y2="21">
</line>
<line class="cls-11" x1="1.04" y1="17" x2="74.48" y2="17">
</line>
<line class="cls-11" x1="1.04" y1="13" x2="74.48" y2="13">
</line>
<line class="cls-11" x1="1.04" y1="9" x2="74.48" y2="9">
</line>
<line class="cls-11" x1="1.04" y1="5" x2="74.48" y2="5">
</line>
<line class="cls-11" x1="1.04" y1="1" x2="74.48" y2="1">
</line>
</g>


<g >
<line class="cls-11" x1="-73" y1="71" x2=".44" y2="71">
</line>
<line class="cls-11" x1="-73" y1="67" x2=".44" y2="67">
</line>
<line class="cls-11" x1="-73" y1="63" x2=".44" y2="63">
</line>
<line class="cls-11" x1="-73" y1="59" x2=".44" y2="59">
</line>
<line class="cls-11" x1="-73" y1="55" x2=".44" y2="55">
</line>
<line class="cls-11" x1="-73" y1="51" x2=".44" y2="51">
</line>
<line class="cls-11" x1="-73" y1="47" x2=".44" y2="47">
</line>
<line class="cls-11" x1="-73" y1="43" x2=".44" y2="43">
</line>
<line class="cls-11" x1="-73" y1="39" x2=".44" y2="39">
</line>
<line class="cls-11" x1="-73" y1="35" x2=".44" y2="35">
</line>
<line class="cls-11" x1="-73" y1="31" x2=".44" y2="31">
</line>
<line class="cls-11" x1="-73" y1="27" x2=".44" y2="27">
</line>
<line class="cls-11" x1="-73" y1="23" x2=".44" y2="23">
</line>
<line class="cls-11" x1="-73" y1="19" x2=".44" y2="19">
</line>
<line class="cls-11" x1="-73" y1="15" x2=".44" y2="15">
</line>
<line class="cls-11" x1="-73" y1="11" x2=".44" y2="11">
</line>
<line class="cls-11" x1="-73" y1="7" x2=".44" y2="7">
</line>
<line class="cls-11" x1="-73" y1="3" x2=".44" y2="3">
</line>
<line class="cls-11" x1="-70.96" y1="69" x2="2.48" y2="69">
</line>
<line class="cls-11" x1="-70.96" y1="65" x2="2.48" y2="65">
</line>
<line class="cls-11" x1="-70.96" y1="61" x2="2.48" y2="61">
</line>
<line class="cls-11" x1="-70.96" y1="57" x2="2.48" y2="57">
</line>
<line class="cls-11" x1="-70.96" y1="53" x2="2.48" y2="53">
</line>
<line class="cls-11" x1="-70.96" y1="49" x2="2.48" y2="49">
</line>
<line class="cls-11" x1="-70.96" y1="45" x2="2.48" y2="45">
</line>
<line class="cls-11" x1="-70.96" y1="41" x2="2.48" y2="41">
</line>
<line class="cls-11" x1="-70.96" y1="37" x2="2.48" y2="37">
</line>
<line class="cls-11" x1="-70.96" y1="33" x2="2.48" y2="33">
</line>
<line class="cls-11" x1="-70.96" y1="29" x2="2.48" y2="29">
</line>
<line class="cls-11" x1="-70.96" y1="25" x2="2.48" y2="25">
</line>
<line class="cls-11" x1="-70.96" y1="21" x2="2.48" y2="21">
</line>
<line class="cls-11" x1="-70.96" y1="17" x2="2.48" y2="17">
</line>
<line class="cls-11" x1="-70.96" y1="13" x2="2.48" y2="13">
</line>
<line class="cls-11" x1="-70.96" y1="9" x2="2.48" y2="9">
</line>
<line class="cls-11" x1="-70.96" y1="5" x2="2.48" y2="5">
</line>
<line class="cls-11" x1="-70.96" y1="1" x2="2.48" y2="1">
</line>
</g>


</g>


</pattern>
</defs>



<g >
<path class="cls-1" d="M63.03,63.72l-3.41,10.15s-16.38,2.91-30.93,2.41-19.46-2.83-19.46-2.83l-1.66-11.22s7.15-3.16,10.48-3.66c4.65-3.49,5.82-3.16,5.82-3.16l.16-3.49-2.33-3.58-1.08-4.57s-1.98,2.98-.17,8.53c.01,.02,.01,.03,.01,.03,0,0-7.57-3.24-5.99-15.55-2.41-5.82,1.08-12.56,1.08-12.56,0,0,1.58-6.48,10.98-10.31,9.39-3.82,17.21-1.41,21.12,5.41,5.41,.41,4.91,6.57,4.24,8.9-.66,2.32-1.66,3.99,.5,5.9,2.16,1.91,4.16,4.82,2.49,8.56-1.61,3.63-5.01,5.61-5.22,5.73,.05-.24,.92-4.01-1.6-6.41-.18-.17-.37-.33-.58-.48-.91,5.99-1.16,6.99-1.16,6.99l-2.08,3.07,.08,4.08s3.41,1.16,5.58,3.16c7.56,1.66,13.13,4.9,13.13,4.9Z">
</path>
<path class="cls-17" d="M54.88,42.68c-1.61,3.63-5.01,5.61-5.22,5.73,.05-.24,.92-4.01-1.6-6.41-.74-1.34-1.77-2.33-2.51-3.19-1.48-1.71-1.56-4.9-1.17-6.85,.39-1.94,.85-4.28-2.57-4.9-1.01-4.75-5.22-4.44-7.55-3.27-2.34,1.17-2.96,5.45-3.04,7.32-.08,1.87-.55,4.2-2.02,5.52-1.48,1.33-5.53,3.74-8.34,6.78-2.69,2.99-.58,8.47-.41,8.89,.01,.02,.01,.03,.01,.03,0,0-7.57-3.24-5.99-15.55-2.41-5.82,1.08-12.56,1.08-12.56,0,0,1.58-6.48,10.98-10.31,9.39-3.82,17.21-1.41,21.12,5.41,5.41,.41,4.91,6.57,4.24,8.9-.66,2.32-1.66,3.99,.5,5.9,2.16,1.91,4.16,4.82,2.49,8.56Z">
</path>
<path d="M23.87,55.41l-.27,3.65s-1.03,10.93,.31,15.46c-10.72-.93-14.23-3.81-14.23-3.81l-2.11-8.48s8.44-3.53,10.48-3.66c4.41-2.61,5.82-3.16,5.82-3.16Z">
</path>
<path d="M44.32,75.04s1.55-7.22,.62-11.55-.62-7.83-.62-7.83c0,0,3.71,1.13,5.36,2.78,7.53,2.27,11.96,4.85,11.96,4.85l-2.99,8.35s-8.76,2.99-14.33,3.4Z">
</path>
<path class="cls-12" d="M45.02,58.85s1.39,5.11,.61,8.67c5.11-1.3,6.15-1.91,8.5,0s5.63,2.08,5.63,2.08l1.73-5.81s-7.11-3.9-16.47-4.94Z">
</path>
<path class="cls-1" d="M20.62,43.77l.98,5.05,2.43,3.1v7.4s-1.78,9.48,.27,15.24c6.69,3.9,20.25-.09,20.25-.09,0,0,1.11-9.38-.19-15.52-.19-6.41-.13-7.37-.13-7.37l2.08-3.07,1.74-6.51s-3.97-3.95-3.6-7.95c.74-5.2-.56-6.92-2.65-6.99-.79-4.16-5.06-4.99-8.41-2.95-2.51,2.32-1.3,10.87-4.74,13.1-.4,.24-.77,.46-1.11,.67-3.91,2.4-5.02,3.55-6.93,5.89Z">
</path>
<path class="cls-2" d="M34.13,57.72V26.99c0-2.67,2.74-4.66,5.16-3.54,.13,.06,.26,.13,.38,.21,1.91,1.24,2.14,3.4,2.14,3.4,0,0,2.63-.44,2.82,2.04s-1.2,6.39-.1,8.31,3.06,3.82,3.06,3.82l-1.53,7.74-9.31,10.39s0,0-.03,.01c-1.21,.58-2.6-.32-2.6-1.66Z">
</path>
<path class="cls-2" d="M42.79,56l-15.1,18.55s10.28,.55,14.62-.07c1.93-5.72,.69-13.72,.69-13.72l-.21-4.76Z">
</path>
<path class="cls-3" d="M30.47,38.89l-1.03-.85-2.43,.06-3.09,1.88s4.91,1.82,6.55-1.09Z">
</path>
<path class="cls-3" d="M38.24,38.89l1.03-.85,6.26,.06,.17,1.58s-6.43,2.39-7.47-.79Z">
</path>
<path class="cls-4" d="M36.93,35.24l.98,3.58,1.53-.72,5.92,.26s-1.06-3.02-.89-5.41c-3.92-.51-6.69,.89-7.54,2.3Z">
</path>
<path class="cls-4" d="M30.47,38.89l1.27-3.52-1.08-1.29s-1.58,2.99-2.49,3.78l1.18,.24,1.12,.79Z">
</path>
<path class="cls-17" d="M30.72,52.13s.55,1.35,1.32,2.01c2.89,.15,4.06,.04,4.06,.04,0,0,1.02-1.17,1.32-2.19-1.72-1.46-4.43-2.34-6.69,.15Z">
</path>
<path class="cls-5" d="M34.41,70.99s-1.98,.05-2.14,1.58c.1,1.68,1.17,2.39,1.17,2.39l2.03-.61s.86-.81,.51-1.73-1.58-1.63-1.58-1.63Z">
</path>
<polygon points="43.92 52.9 25.16 75.2 21.44 73.7 21.62 57.86 24.01 55.11 24.03 51.92 31 59.45 36.75 59.36 43.92 52.9">
</polygon>
<path class="cls-1" d="M37.44,24.49h0c.64,0,1.16,.14,1.59,.42,1.03,.67,1.27,2.07,1.31,2.31h0s0,.06,0,.06c.09,.71,.67,1.26,1.42,1.33,1,.05,1.12,.38,1.21,.62,.23,.62,.2,1.76,.14,3.08-.11,2.43-.25,5.46,1.63,7.91,.36,.49,.74,.93,1.11,1.37l.04,.05c.12,.14,.23,.27,.35,.41l-1.32,5.94c-.66,1.04-3.91,6-8.61,9.97-.71,.05-1.44,.08-2.17,.08-.78,0-1.57-.03-2.37-.09-4.67-3.94-7.92-8.89-8.6-9.95l-.83-4.2c1.34-1.9,3.75-3.34,6.31-4.87l.17-.1c3.34-1.98,3.64-5.51,3.9-8.39,.26-3.1,.52-4.89,2.71-5.61,.75-.23,1.42-.35,2-.35m0-1c-.69,0-1.45,.13-2.3,.39-2.94,.97-3.16,3.52-3.41,6.48-.24,2.75-.5,5.88-3.41,7.61l-.18,.11c-2.89,1.72-5.46,3.27-6.85,5.51l.94,4.78c.44,.71,3.99,6.28,9.15,10.55,.94,.08,1.86,.11,2.76,.11s1.73-.03,2.57-.1c5.18-4.29,8.73-9.88,9.15-10.56l1.45-6.53s.02-.03,.02-.04c-.22-.28-.45-.55-.68-.82-.37-.44-.75-.89-1.11-1.37-1.66-2.16-1.54-4.87-1.43-7.26,.14-3.04,.1-4.64-2.3-4.75-.24-.02-.44-.21-.47-.45,0-.02-.22-2.07-1.76-3.08-.59-.39-1.31-.58-2.14-.58h0Z">
</path>
<path class="cls-15" d="M44.05,27.93s8.01-3.06,6.85-7.1c2.56,2.89,.74,8.18,.33,10.41-.91-1.49-4.87,2.06-6.36,5.2,.08-5.37,.41-7.52-.83-8.51Z">
</path>
<path class="cls-15" d="M32,25.62s-10.11,1.06-7.32-3.85,.83-6.57-2.72-5.43c-3.32,2.49-5.13,5.13-5.13,5.13,0,0,5.21-3.17,4.3,1.58s1.43,9.58,10.04,7.24c.23-2.57,.83-4.68,.83-4.68Z">
</path>
<path class="cls-2" d="M23.86,42.99c.97,.17,2.65,.33,4.19-.17,.49-.16,.93,.37,.63,.79-1.9,2.75-4.57,2.31-5.42,.08-.14-.38,.2-.77,.59-.7Z">
</path>
<path d="M29.56,35.81s-16.08,3.65-10.44-5.39c-4.06,1.33-2.98-5.64-1.33-7.79-4.97,2.9-5.64,10.4-3.32,14.15-3.15,7.98,3.57,14.03,5.64,15.19-2.07-6.05,.91-9.28,2.07-10.28s6.46-3.65,7.38-5.88Z">
</path>
<path class="cls-8" d="M14.36,36.49s-4.74-8.11,3.9-14.54">
</path>
<path class="cls-8" d="M14.56,25.82c1-3.01,3.42-9.74,15.01-12.8,13.98-3.43,17.92,6.36,17.92,6.36,0,0,4.59-.62,4.93,5.28-.25,4.74-2.74,6.57,.5,10.56s4.57,5.82-3.66,13.97c1.66-5.07-1.1-7-3.33-9.9-3.45-4.5,1.37-11.95-4.09-12.21,0,0-.54-5.67-6.84-3.69-6.3,2.07-1.35,10.81-6.93,14.14s-10.45,6.12-7.47,14.77c-9.1-4.86-8.38-18.37-.09-23.05">
</path>
<path d="M36.95,35.35s-.47-1.05,.15-1.87c2.29-1.37,5.97-1.62,7.32-1.19-.15,.97-.15,1.19-.15,1.19,0,0-3.46-.32-7.32,1.87Z">
</path>
<path d="M31.28,33.29s.85,.77,.52,2.07c-.62,.2-1.22-.4-1.22-.4,0,0,.2-1.42,.7-1.67Z">
</path>
<path d="M37.83,38.91l1.01-1.23c.06-.09,.18-.08,.27-.08,0,0,5.88,0,5.88,0,.65,0,.66,1,0,1,0,0-5.88,0-5.88,0l.27-.08-1.54,.39h0Z">
</path>
<path d="M45.98,39.7c-1.87,1.9-5.19,2.05-7.11,.17,2.15,1.08,4.59,.47,6.43-.91,.48-.4,1.12,.29,.68,.73h0Z">
</path>
<path d="M30.62,38.91l-1.54-.39,.27,.08h-2.11c-.65,0-.65-1,0-1,0,0,2.11,0,2.11,0h.1c.07,0,.13,.03,.16,.08l1.01,1.23h0Z">
</path>
<path d="M24.38,39.76c1.71,.67,3.43,.87,5.2,.11-1.36,1.47-3.91,1.91-5.64,.79-.51-.3-.1-1.12,.44-.9h0Z">
</path>
<path d="M36.29,39.03c-.05,.31-.14,.99-.18,1.11,.53,2.01,.95,4.04,1.33,6.08,.03,.18-.04,.35-.18,.44-.86,.6-1.75,1.16-2.63,1.74-.17,.11-.38,.1-.54,0-.88-.58-1.76-1.14-2.63-1.74-.15-.1-.22-.28-.18-.45,.38-2.04,.8-4.06,1.34-6.08-.04-.1-.14-.81-.18-1.11,.14,.38,.33,.76,.42,1.15-.13,2.08-.38,4.13-.66,6.18l-.21-.46c.89,.53,1.77,1.1,2.65,1.66h-.54c.88-.55,1.76-1.12,2.65-1.66l-.2,.46c-.29-2.05-.53-4.11-.67-6.18,.09-.39,.28-.77,.42-1.15h0Z">
</path>
<path d="M38.87,52.67c-.8-.12-2.44-.47-4.71-1.6-2.27,1.13-3.92,1.48-4.72,1.6,.35-.64,1.26-2.06,2.5-2.57,1.47-.59,2.96-.59,4.43,0,1.24,.51,2.15,1.93,2.5,2.57Z">
</path>
<path d="M36.74,53.44c-.11,.33-.27,.59-.43,.84-1.42,.55-2.93,.66-4.38,.08,0,0-.28-.09-.28-.09-.17-.25-.32-.51-.43-.84-.03-.04,0-.11,.06-.08,0,0,.7,.45,.7,.45-.19-.03,2.06-.04,2.01-.05-.05,0,2.2,.02,2.01,.05,0,0,.7-.45,.7-.45,.05-.03,.09,.04,.06,.08h0Z">
</path>
<path class="cls-8" d="M20.78,43.6l.98,4.96s3.73,6.18,9.42,10.85c1.53,.13,3.55,.2,5.73,0,5.69-4.67,9.42-10.85,9.42-10.85l1.47-6.61">
</path>
<path class="cls-8" d="M23.96,51.91v7.54s-1.82,8.41,0,15">
</path>
<path class="cls-8" d="M23.97,55.54s-2.98,.76-5.52,2.98c-4.7,1.21-11.49,4.19-11.49,4.19">
</path>
<path class="cls-8" d="M44.29,51.91v7.54s1.82,8.41,0,15">
</path>
<path class="cls-8" d="M44.28,55.54s2.98,.76,5.52,2.98c4.7,1.21,11.49,4.19,11.49,4.19">
</path>
<path class="cls-8" d="M44.22,58.44s-4.04,8.04-10.14,12.24c-6.1-4.2-10.14-12.24-10.14-12.24">
</path>
<circle class="cls-8" cx="34.11" cy="72.97" r="2.03">
</circle>
<path class="cls-8" d="M49.8,58.52s4.85,5.41,2.23,14.37">
</path>
<path class="cls-12" d="M24.52,54.44c.46,1.25,.83,2.54,1.13,3.84,0,0-.92-.1-.92-.1-2.03-.27-3.98,.81-5.39,2.2-2.94,.81-6.02,1.8-9.01,2.43,2.44-1.41,5.72-2.39,8.56-3.33,1.35-1.43,3.91-2.55,6.06-1.9,0,0-.09,.07-.09,.07l-.43-3.19h.1Z">
</path>
</g>




 <g
     id="g2850">
    <g
       id="g2837">
      <path
         id="path1951"
         d="M 0.056640625 0.04296875 L 0.056640625 79.943359 L 69.308594 79.943359 L 69.308594 0.04296875 L 0.056640625 0.04296875 z M 33.615234 3.5957031 C 34.206332 3.5957038 34.786991 3.6051034 35.421875 3.6152344 C 44.430653 3.7671809 53.471255 5.1336733 61.560547 7.5546875 L 62.064453 7.7070312 L 62.25 8.1640625 C 66.070247 17.605006 66.990234 28.726438 66.990234 40.0625 C 66.990234 51.398562 65.972723 63.025755 61.988281 72.578125 L 61.791016 73.044922 L 61.275391 73.185547 C 53.273669 75.403966 44.691921 76.529297 35.759766 76.529297 C 35.212453 76.529297 34.675812 76.519896 34.150391 76.509766 L 33.943359 76.509766 C 24.901742 76.357819 15.860367 74.989738 7.7929688 72.558594 L 7.2890625 72.40625 L 7.1035156 71.951172 C 3.2942144 62.520359 2.375 51.369168 2.375 40.0625 C 2.375 28.755832 3.3819737 17.127318 7.3554688 7.5546875 L 7.5527344 7.0898438 L 8.0664062 6.9472656 C 15.509867 4.890923 23.785212 3.7371557 32.005859 3.6054688 C 32.542226 3.5953387 33.078867 3.5957031 33.615234 3.5957031 z "
         style="opacity:1;vector-effect:none;fill:#ffffff;fill-opacity:1;fill-rule:nonzero;stroke:none;stroke-width:1.95200002;stroke-linecap:butt;stroke-linejoin:miter;stroke-miterlimit:4;stroke-dasharray:none;stroke-dashoffset:0;stroke-opacity:1" />
    </g>
    <path
       id="path1154-8-2"
       d="m 33.675163,6.6112954 c 0.557696,0 1.115392,0.00956 1.683415,0.019115 8.427403,0.14336 16.803167,1.4049288 24.363042,3.6700176 3.573384,8.830981 4.443772,19.417362 4.443772,29.761551 0,10.344189 -0.95301,21.39888 -4.68131,30.334991 -7.435942,2.064385 -15.429581,3.274388 -23.774362,3.274388 -0.506058,0 -1.012115,-0.0096 -1.518172,-0.01911 h -0.17557 C 25.56792,73.508883 17.192156,72.088619 9.6426089,69.813973 6.0795528,61.002107 5.2088244,50.415411 5.2088244,40.061979 c 0,-10.353432 0.95335,-21.389323 4.6609939,-30.325434 C 16.820359,7.8155201 24.462856,6.7450981 32.177647,6.6208528 c 0.49573,-0.00956 1.001787,-0.00956 1.497516,-0.00956 m 0,-0.9557337 c -0.506057,0 -1.012114,0 -1.518171,0.00956 C 24.40089,5.7893644 16.593149,6.8789009 9.570315,8.8190405 L 9.0849131,8.9528432 8.8990146,9.3924808 C 5.1500599,18.424166 4.1999116,29.394246 4.1999116,40.061979 c 0,10.667733 0.8675267,21.188618 4.461566,30.0865 l 0.1755708,0.430081 0.4750741,0.14336 c 7.6115135,2.293761 16.1421925,3.584001 24.6728715,3.727361 h 0.196227 c 0.495729,0.0096 1.001786,0.01911 1.518171,0.01911 8.427403,0 16.524318,-1.060864 24.073866,-3.153921 l 0.485403,-0.133802 0.185898,-0.439639 c 3.759282,-9.01257 4.719759,-19.983589 4.719759,-30.679055 0,-10.695466 -0.867528,-21.188618 -4.471894,-30.0960578 L 60.516853,9.5358409 60.041779,9.3924808 C 52.409609,7.108277 43.87893,5.8180364 35.379234,5.6746763 34.780227,5.6651187 34.232859,5.6555621 33.675163,5.6555615 Z"
       style="fill:#ff0000;stroke:#ffffff;stroke-width:1.84341729;stroke-miterlimit:4;stroke-dasharray:none" />
    <path
       id="path1154"
       d="m 33.614853,4.6077955 c 0.591098,0 1.182197,0.01013 1.784241,0.02026 8.932155,0.1519464 17.809578,1.4890758 25.822246,3.8898304 3.787408,9.3599041 4.709928,20.5803481 4.709928,31.5440931 0,10.963745 -1.01009,22.680548 -4.961693,32.151879 -7.881312,2.18803 -16.353723,3.302304 -25.198307,3.302304 -0.536368,0 -1.072735,-0.01013 -1.609102,-0.02026 H 33.97608 C 25.022033,75.343956 16.14461,74.006827 8.1428892,71.595943 4.3664269,62.256298 3.443547,51.035521 3.443547,40.061979 c 0,-10.973542 1.01045,-22.670418 4.9401601,-32.1417498 7.3668369,-2.036083 15.4670749,-3.170617 23.6439369,-3.3023039 0.525421,-0.01013 1.061788,-0.01013 1.587209,-0.01013 m 0,-1.0129766 c -0.536367,0 -1.072734,0 -1.609101,0.01013 C 23.785105,3.7366356 15.509726,4.891429 8.0662653,6.9477716 L 7.5517907,7.0895883 7.3547579,7.5555576 C 3.3812628,17.128188 2.3742062,28.755311 2.3742062,40.061979 c 0,11.306668 0.9194864,22.457692 4.7287876,31.888505 l 0.1860865,0.45584 0.5035283,0.151947 c 8.0673984,2.431144 17.1090154,3.798662 26.1506324,3.950608 h 0.207979 c 0.525421,0.01013 1.061788,0.02026 1.609101,0.02026 8.932155,0 17.514028,-1.124404 25.51575,-3.342823 l 0.514475,-0.141816 0.197032,-0.46597 c 3.984442,-9.55237 5.002445,-21.180489 5.002445,-32.516551 0,-11.336062 -0.919487,-22.457692 -4.739734,-31.8986353 L 62.064202,7.7075041 61.560674,7.5555576 C 53.471382,5.1345434 44.429765,3.7670249 35.420987,3.6150784 c -0.634884,-0.01013 -1.215036,-0.020259 -1.806134,-0.02026 z"
       style="fill:#000000;stroke:#000000;stroke-width:1.95382714;stroke-miterlimit:4;stroke-dasharray:none" />
    <g
       id="g1810">
      <path
         d="M 6.5134911,7.7433673 C 5.6489029,6.8479453 4.058602,6.5681013 3.6272194,7.3820013 3.284151,8.0292783 3.3625296,8.5309135 4.395235,8.9201755 3.2963719,9.5187755 1.4857674,9.4447465 1.1893447,7.4467713 0.95320848,5.8551433 2.674739,4.8863543 3.1399725,5.0916244 3.0034432,3.6818714 1.8221094,4.0692802 0.95849208,3.2813384 0.34259068,2.7194046 0.23126071,-0.02624603 0.0561761,0.04378767 -0.0138576,0.21887227 2.7317937,0.33020157 3.2937267,0.94610377 4.0816685,1.8097211 3.6942598,2.9910547 5.1040128,3.1275841 4.8987425,2.6623507 5.8675315,0.94082017 7.4591593,1.1769564 9.4571345,1.4733791 9.5311625,3.2839847 8.9325635,4.3828467 8.5433008,3.3501417 8.041666,3.2717627 7.3943894,3.6148312 6.5804899,4.0462137 6.8603354,5.6365129 7.7557553,6.5011023"
         style="fill:#000000;stroke:#000000;stroke-width:0.1112323px;stroke-linecap:butt;stroke-linejoin:miter;stroke-opacity:1"
         id="path1737-3" />
      <path
         d="m 62.850738,7.7433673 c 0.864588,-0.895422 2.454889,-1.175266 2.886271,-0.361366 0.343069,0.647277 0.26469,1.148912 -0.768015,1.538174 1.098863,0.5986 2.909467,0.524571 3.20589,-1.473404 0.236136,-1.591628 -1.485394,-2.560417 -1.950628,-2.3551469 0.13653,-1.409753 1.317863,-1.0223442 2.181481,-1.810286 0.615901,-0.5619338 0.727231,-3.30758442 0.902316,-3.23755072 0.07003,0.1750846 -2.675618,0.2864139 -3.237551,0.9023161 C 65.28256,1.8097211 65.669969,2.9910547 64.260216,3.1275841 64.465486,2.6623507 63.496697,0.94082018 61.905069,1.1769564 c -1.997975,0.2964227 -2.072003,2.1070283 -1.473404,3.2058903 0.389263,-1.032705 0.890898,-1.111084 1.538174,-0.7680155 0.8139,0.4313825 0.534054,2.0216817 -0.361366,2.8862711"
         style="fill:#000000;stroke:#000000;stroke-width:0.1112323px;stroke-linecap:butt;stroke-linejoin:miter;stroke-opacity:1"
         id="path1737-3-5" />
      <path
         d="m 62.850738,72.244244 c 0.864588,0.895422 2.454889,1.175266 2.886272,0.361366 0.343068,-0.647277 0.264689,-1.148912 -0.768016,-1.538174 1.098863,-0.5986 2.909468,-0.524571 3.20589,1.473404 0.236137,1.591628 -1.485394,2.560417 -1.950628,2.355147 0.13653,1.409753 1.317864,1.022344 2.181481,1.810286 0.615901,0.561934 0.727231,3.307584 0.902316,3.237551 0.07003,-0.175085 -2.675618,-0.286414 -3.237551,-0.902317 -0.787942,-0.863617 -0.400533,-2.04495 -1.810286,-2.18148 0.20527,0.465234 -0.763519,2.186764 -2.355146,1.950628 -1.997976,-0.296423 -2.072004,-2.107028 -1.473405,-3.20589 0.389263,1.032705 0.890898,1.111084 1.538175,0.768015 0.813899,-0.431382 0.534054,-2.021682 -0.361366,-2.886271"
         style="fill:#000000;stroke:#000000;stroke-width:0.1112323px;stroke-linecap:butt;stroke-linejoin:miter;stroke-opacity:1"
         id="path1737-3-7" />
      <path
         d="M 6.513491,72.244245 C 5.648903,73.139667 4.058602,73.419511 3.62722,72.605611 3.284151,71.958334 3.36253,71.456699 4.395235,71.067437 c -1.098863,-0.5986 -2.909467,-0.524571 -3.20589,1.473404 -0.23613599,1.591628 1.485394,2.560417 1.950628,2.355147 -0.13653,1.409753 -1.317863,1.022344 -2.18148099,1.810286 -0.615901,0.561933 -0.727231,3.307584 -0.902316,3.23755 C -0.01385399,79.76874 2.731794,79.65741 3.293727,79.041508 4.081669,78.177891 3.69426,76.996557 5.104013,76.860028 4.898743,77.325261 5.867532,79.046792 7.45916,78.810656 9.457135,78.514233 9.531163,76.703627 8.932564,75.604765 8.543301,76.63747 8.041666,76.715849 7.39439,76.372781 6.58049,75.941398 6.860336,74.351099 7.755756,73.48651"
         style="fill:#000000;stroke:#000000;stroke-width:0.1112323px;stroke-linecap:butt;stroke-linejoin:miter;stroke-opacity:1"
         id="path1737-3-5-5" />
    </g>
    <path
       id="path1154-9"
       d="m 33.712865,7.4258691 c 0.536813,0 1.07363,0.00933 1.620386,0.01865 8.111875,0.1398689 16.174044,1.3707167 23.450873,3.5806479 3.439594,8.615932 4.277395,18.944521 4.277395,29.036812 0,10.092292 -0.917329,20.877786 -4.506039,29.596289 -7.157536,2.014114 -14.851888,3.03982 -22.884234,3.03982 -0.487111,0 -0.974221,-0.0094 -1.461331,-0.01865 H 34.040918 C 25.909161,72.53957 17.846991,71.308722 10.580105,69.089467 7.1504515,60.492184 6.3123238,50.163289 6.3123238,40.061979 c 0,-10.101311 0.9176558,-20.868461 4.4864832,-29.586965 6.690308,-1.8742449 14.046665,-2.9186005 21.472608,-3.0398203 0.47717,-0.00933 0.964281,-0.00933 1.44145,-0.00933 m 0,-0.9324602 c -0.487111,0 -0.974221,0 -1.46133,0.00933 C 24.785826,6.6239532 17.270413,7.686958 10.510517,9.5798526 L 10.043289,9.710397 9.8643508,10.139328 c -3.6085914,8.811751 -4.5231655,19.514693 -4.5231655,29.922651 0,10.407958 0.8350459,20.672644 4.294522,29.353849 l 0.1689973,0.419608 0.4572874,0.13987 c 7.326533,2.237904 15.537818,3.496724 23.749103,3.636593 h 0.188879 c 0.47717,0.0094 0.96428,0.01865 1.461331,0.01865 8.111875,0 15.905636,-1.035031 23.172525,-3.077119 l 0.467228,-0.130544 0.178938,-0.428932 c 3.618533,-8.793101 4.543048,-19.496959 4.543048,-29.931975 0,-10.435016 -0.835047,-20.672644 -4.304463,-29.363174 l -0.168997,-0.419609 -0.457288,-0.13987 C 51.74588,7.9107484 43.534594,6.6519271 35.353133,6.512058 34.776554,6.502738 34.249678,6.493409 33.712865,6.493409 Z"
       style="fill:#000000;stroke:none;stroke-width:1.78642213;stroke-miterlimit:4;stroke-dasharray:none" />
    <path
       id="path1154-9-3"
       d="m 33.712865,7.4258686 c 0.536813,0 1.07363,0.00933 1.620386,0.01865 8.111875,0.1398689 16.174044,1.3707167 23.450873,3.5806484 3.439594,8.615932 4.277395,18.944521 4.277395,29.036812 0,10.092292 -0.917329,20.877786 -4.506039,29.596288 -7.157536,2.014114 -14.851888,3.03982 -22.884234,3.03982 -0.487111,0 -0.974221,-0.0094 -1.461331,-0.01865 H 34.040918 C 25.909161,72.539569 17.846991,71.308722 10.580105,69.089466 7.1504515,60.492184 6.3123238,50.163288 6.3123238,40.061979 c 0,-10.101312 0.9176558,-20.868461 4.4864832,-29.586965 6.690308,-1.8742454 14.046665,-2.918601 21.472608,-3.0398208 0.47717,-0.00933 0.964281,-0.00933 1.44145,-0.00933 m 0,-0.9324602 c -0.487111,0 -0.974221,0 -1.46133,0.00933 C 24.785826,6.6239527 17.270413,7.6869575 10.510517,9.5798521 L 10.043289,9.7103965 9.8643508,10.139328 C 6.2557594,18.951079 5.3411853,29.65402 5.3411853,40.061979 c 0,10.407958 0.8350459,20.672643 4.294522,29.353849 l 0.1689973,0.419608 0.4572874,0.13987 c 7.326533,2.237904 15.537818,3.496724 23.749103,3.636593 h 0.188879 c 0.47717,0.0094 0.96428,0.01865 1.461331,0.01865 8.111875,0 15.905636,-1.035032 23.172525,-3.077119 l 0.467228,-0.130544 0.178938,-0.428932 c 3.618533,-8.793101 4.543048,-19.49696 4.543048,-29.931975 0,-10.435016 -0.835047,-20.672644 -4.304463,-29.363175 l -0.168997,-0.419609 -0.457288,-0.13987 C 51.74588,7.9107479 43.534594,6.6519266 35.353133,6.5120575 34.776554,6.5027375 34.249678,6.4934085 33.712865,6.4934085 Z"
       style="fill:#000000;stroke:none;stroke-width:1.78642213;stroke-miterlimit:4;stroke-dasharray:none" />
  </g>
</svg>
