<?xml version="1.0" encoding="UTF-8"?><svg id="Capa_2" xmlns="http://www.w3.org/2000/svg" xmlns:xlink="http://www.w3.org/1999/xlink" viewBox="0 0 69.02 80"><defs><style>.cls-1{fill:#c89aed;}.cls-2{fill:#fff;}.cls-3{fill:#f8ffbf;}.cls-4{fill:#7b7be8;}.cls-5{fill:#a88347;}.cls-6{fill:#782ab5;}.cls-7,.cls-8{stroke-miterlimit:10;}.cls-7,.cls-8,.cls-9{stroke:#000;}.cls-7,.cls-9,.cls-10,.cls-11,.cls-12{fill:none;}.cls-8,.cls-13{fill:#b83521;}.cls-9,.cls-10{stroke-linecap:round;stroke-linejoin:round;}.cls-10{stroke:#deb778;stroke-dasharray:0 0 0 4.06;}.cls-14{fill:#deb778;}.cls-15{fill:url(#USGS_19_Inundación_de_tierra_2);}.cls-12{stroke:#1d1d1b;stroke-dasharray:0 0 2 2;stroke-width:.3px;}.cls-16{fill:#ccbc64;}.cls-17{fill:#fcf0c5;}</style><pattern id="USGS_19_Inundación_de_tierra_2" x="0" y="0" width="72" height="72" patternTransform="translate(-524.48 -16999) rotate(-90)" patternUnits="userSpaceOnUse" viewBox="0 0 72 72"><g><rect class="cls-11" width="72" height="72"/><g><line class="cls-12" x1="71" y1="71" x2="144.44" y2="71"/><line class="cls-12" x1="71" y1="67" x2="144.44" y2="67"/><line class="cls-12" x1="71" y1="63" x2="144.44" y2="63"/><line class="cls-12" x1="71" y1="59" x2="144.44" y2="59"/><line class="cls-12" x1="71" y1="55" x2="144.44" y2="55"/><line class="cls-12" x1="71" y1="51" x2="144.44" y2="51"/><line class="cls-12" x1="71" y1="47" x2="144.44" y2="47"/><line class="cls-12" x1="71" y1="43" x2="144.44" y2="43"/><line class="cls-12" x1="71" y1="39" x2="144.44" y2="39"/><line class="cls-12" x1="71" y1="35" x2="144.44" y2="35"/><line class="cls-12" x1="71" y1="31" x2="144.44" y2="31"/><line class="cls-12" x1="71" y1="27" x2="144.44" y2="27"/><line class="cls-12" x1="71" y1="23" x2="144.44" y2="23"/><line class="cls-12" x1="71" y1="19" x2="144.44" y2="19"/><line class="cls-12" x1="71" y1="15" x2="144.44" y2="15"/><line class="cls-12" x1="71" y1="11" x2="144.44" y2="11"/><line class="cls-12" x1="71" y1="7" x2="144.44" y2="7"/><line class="cls-12" x1="71" y1="3" x2="144.44" y2="3"/></g>
<g><line class="cls-12" x1="-1" y1="71" x2="72.44" y2="71"/><line class="cls-12" x1="-1" y1="67" x2="72.44" y2="67"/><line class="cls-12" x1="-1" y1="63" x2="72.44" y2="63"/><line class="cls-12" x1="-1" y1="59" x2="72.44" y2="59"/><line class="cls-12" x1="-1" y1="55" x2="72.44" y2="55"/><line class="cls-12" x1="-1" y1="51" x2="72.44" y2="51"/><line class="cls-12" x1="-1" y1="47" x2="72.44" y2="47"/><line class="cls-12" x1="-1" y1="43" x2="72.44" y2="43"/><line class="cls-12" x1="-1" y1="39" x2="72.44" y2="39"/><line class="cls-12" x1="-1" y1="35" x2="72.44" y2="35"/><line class="cls-12" x1="-1" y1="31" x2="72.44" y2="31"/><line class="cls-12" x1="-1" y1="27" x2="72.44" y2="27"/><line class="cls-12" x1="-1" y1="23" x2="72.44" y2="23"/><line class="cls-12" x1="-1" y1="19" x2="72.44" y2="19"/><line class="cls-12" x1="-1" y1="15" x2="72.44" y2="15"/><line class="cls-12" x1="-1" y1="11" x2="72.44" y2="11"/><line class="cls-12" x1="-1" y1="7" x2="72.44" y2="7"/><line class="cls-12" x1="-1" y1="3" x2="72.44" y2="3"/><line class="cls-12" x1="1.04" y1="69" x2="74.48" y2="69"/><line class="cls-12" x1="1.04" y1="65" x2="74.48" y2="65"/><line class="cls-12" x1="1.04" y1="61" x2="74.48" y2="61"/><line class="cls-12" x1="1.04" y1="57" x2="74.48" y2="57"/><line class="cls-12" x1="1.04" y1="53" x2="74.48" y2="53"/><line class="cls-12" x1="1.04" y1="49" x2="74.48" y2="49"/><line class="cls-12" x1="1.04" y1="45" x2="74.48" y2="45"/><line class="cls-12" x1="1.04" y1="41" x2="74.48" y2="41"/><line class="cls-12" x1="1.04" y1="37" x2="74.48" y2="37"/><line class="cls-12" x1="1.04" y1="33" x2="74.48" y2="33"/><line class="cls-12" x1="1.04" y1="29" x2="74.48" y2="29"/><line class="cls-12" x1="1.04" y1="25" x2="74.48" y2="25"/><line class="cls-12" x1="1.04" y1="21" x2="74.48" y2="21"/><line class="cls-12" x1="1.04" y1="17" x2="74.48" y2="17"/><line class="cls-12" x1="1.04" y1="13" x2="74.48" y2="13"/><line class="cls-12" x1="1.04" y1="9" x2="74.48" y2="9"/><line class="cls-12" x1="1.04" y1="5" x2="74.48" y2="5"/><line class="cls-12" x1="1.04" y1="1" x2="74.48" y2="1"/></g>
<g><line class="cls-12" x1="-73" y1="71" x2=".44" y2="71"/><line class="cls-12" x1="-73" y1="67" x2=".44" y2="67"/><line class="cls-12" x1="-73" y1="63" x2=".44" y2="63"/><line class="cls-12" x1="-73" y1="59" x2=".44" y2="59"/><line class="cls-12" x1="-73" y1="55" x2=".44" y2="55"/><line class="cls-12" x1="-73" y1="51" x2=".44" y2="51"/><line class="cls-12" x1="-73" y1="47" x2=".44" y2="47"/><line class="cls-12" x1="-73" y1="43" x2=".44" y2="43"/><line class="cls-12" x1="-73" y1="39" x2=".44" y2="39"/><line class="cls-12" x1="-73" y1="35" x2=".44" y2="35"/><line class="cls-12" x1="-73" y1="31" x2=".44" y2="31"/><line class="cls-12" x1="-73" y1="27" x2=".44" y2="27"/><line class="cls-12" x1="-73" y1="23" x2=".44" y2="23"/><line class="cls-12" x1="-73" y1="19" x2=".44" y2="19"/><line class="cls-12" x1="-73" y1="15" x2=".44" y2="15"/><line class="cls-12" x1="-73" y1="11" x2=".44" y2="11"/><line class="cls-12" x1="-73" y1="7" x2=".44" y2="7"/><line class="cls-12" x1="-73" y1="3" x2=".44" y2="3"/><line class="cls-12" x1="-70.96" y1="69" x2="2.48" y2="69"/><line class="cls-12" x1="-70.96" y1="65" x2="2.48" y2="65"/><line class="cls-12" x1="-70.96" y1="61" x2="2.48" y2="61"/><line class="cls-12" x1="-70.96" y1="57" x2="2.48" y2="57"/><line class="cls-12" x1="-70.96" y1="53" x2="2.48" y2="53"/><line class="cls-12" x1="-70.96" y1="49" x2="2.48" y2="49"/><line class="cls-12" x1="-70.96" y1="45" x2="2.48" y2="45"/><line class="cls-12" x1="-70.96" y1="41" x2="2.48" y2="41"/><line class="cls-12" x1="-70.96" y1="37" x2="2.48" y2="37"/><line class="cls-12" x1="-70.96" y1="33" x2="2.48" y2="33"/><line class="cls-12" x1="-70.96" y1="29" x2="2.48" y2="29"/><line class="cls-12" x1="-70.96" y1="25" x2="2.48" y2="25"/><line class="cls-12" x1="-70.96" y1="21" x2="2.48" y2="21"/><line class="cls-12" x1="-70.96" y1="17" x2="2.48" y2="17"/><line class="cls-12" x1="-70.96" y1="13" x2="2.48" y2="13"/><line class="cls-12" x1="-70.96" y1="9" x2="2.48" y2="9"/><line class="cls-12" x1="-70.96" y1="5" x2="2.48" y2="5"/><line class="cls-12" x1="-70.96" y1="1" x2="2.48" y2="1"/></g>
</g>
</pattern></defs><g id="Frame"><path class="cls-6" d="M64.02,40c0,11.47-1.89,22.39-5.5,31.74-7.2,2.16-14.94,3.26-23.02,3.26-.49,0-.98-.01-1.47-.02h-.17c-8.18-.15-16.29-1.47-23.6-3.85-3.45-9.22-5.26-19.93-5.26-31.13s1.89-22.38,5.48-31.73c6.73-2.01,14.13-3.13,21.6-3.26,.48-.01,.97-.01,1.45-.01,.54,0,1.08,.01,1.63,.02,8.16,.15,16.27,1.47,23.59,3.84,3.46,9.24,5.27,19.95,5.27,31.14Z"/><path class="cls-15" d="M34.03,5.59V74.98h-.17c-8.18-.15-16.29-1.47-23.6-3.85-3.45-9.22-5.26-19.93-5.26-31.13s1.89-22.38,5.48-31.73c6.73-2.01,14.13-3.13,21.6-3.26,.65,.16,1.3,.36,1.95,.58Z"/></g>
<g><path class="cls-1" d="M18.98,35.38s-2.18-3.14-3.23-2.36,.87,7.77,4.45,10.47c.51,3.73,1.09,5.46,1.57,5.94,.52,1.66,.7,8.73,.7,8.73l-12.05,5.67s-2.27,0-3.67,.7c1.05,7.16,2.97,9.51,2.97,9.51,0,0,13.79,3.75,25.84,3.32s25.23-3.84,25.23-3.84l.35-9.86-2.97-.09-11.78-5.41-.09-8.21,1.31-2.09,.7-4.19s3.32-2.44,4.36-6.02c1.13-3.93,1.31-8.12-3.23-1.75,1.13-10.13-1.31-19.03-1.66-20.43-10.04-2.36-20.16-3.23-27.41,.7-2.53,6.81-2.36,15.71-1.4,19.2Z"/><path class="cls-2" d="M34.19,52.73v-19.4c0-6.74,6.54-11.83,12.94-9.72,.29,.1,.58,.2,.87,.32,1.1,5.08,.39,8.86,.39,8.86l1.15,2.63-1.88,13.04s-6.3,5.41-8.18,7.96c-.03,0-.05,.02-.08,.03-2.53,.96-5.23-1.01-5.23-3.72Z"/><path class="cls-3" d="M31.21,37.08l-5.57-.4-2.26,.9s3.06,1.2,4.86,1.35c2.81-1.05,2.96-1.86,2.96-1.86Z"/><polygon class="cls-4" points="31.89 33.83 31.21 37.08 25.65 36.68 21.57 37.26 21.57 34.62 25.46 32.95 31.89 33.83"/><path class="cls-3" d="M37.71,37.08l5.57-.4,2.26,.9s-3.06,1.2-4.86,1.35c-2.81-1.05-2.96-1.86-2.96-1.86Z"/><polygon class="cls-4" points="37.03 33.83 37.71 37.08 43.28 36.68 47.36 37.26 47.36 34.62 43.47 32.95 37.03 33.83"/><path class="cls-5" d="M18.75,34.83l1.23-2.32s-.15-7.12,.73-8.72c4.36-2.4,11.41,0,13.37,1.38,4.58-3.2,11.62-2.18,13.44-1.31,1.23,5.3,.87,8.94,.87,8.94l1.02,1.96s.65-7.99,.15-12.49c-.8-5.09-2.03-6.32-2.03-6.32,0,0-14.63-6.65-27.15,.24-2.49,7.17-1.62,18.65-1.62,18.65Z"/><path class="cls-16" d="M47.89,15.88s-10.75,3.2-21.81,2.14c4.27-.38,7.47-1.07,7.47-1.07,0,0-9.91,.31-12.66-.92,8.85-3.13,20.44-3.13,26.99-.15Z"/><path d="M39.39,57.53l-14.36,16.38-15.32-2.02-2.02-7.98,2.73-.07,12.05-5.67-.1-8.08s3.19,2.98,4.68,4.57c1.6,1.7,2.13,2.34,2.13,2.34l10.21,.53Z"/><path d="M19.27,36.66s-1.85-3.84-3.31-3.64c-1.32,1.79,.86,8.2,4.43,10.78-.93-4.5-1.12-7.14-1.12-7.14Z"/><path class="cls-2" d="M23.52,40.25c1.14,.35,2.81,.87,4.13,1.24,.51,.14,.58,.83,.12,1.1-1.44,.81-2.57,1.12-3.17,1.24-.26,.05-.53-.09-.64-.33l-1.14-2.41c-.22-.47,.21-.98,.71-.82Z"/><path class="cls-2" d="M43.73,54.55c-2.22,2.4-7.44,8.1-10.91,12.39,3.44,.33,4.18,.33,4.18,.33l1.23-2.95s4.39-.07,9.91-2.03c.61-.22,.68-1.07,.1-1.37-2.34-1.22-3.94-2.02-3.94-2.02l.35-3.93c.05-.51-.58-.79-.93-.42Z"/><path class="cls-8" d="M53.2,61.79s-6.92,3.6-14.21,4.24c-.82,2.62-1.01,2.77-1.01,2.77l-7.29-.18-1.11-2.12-6.37,7.47s9.13,1.48,19.28,.92,16.24-2.77,16.24-2.77l2.03-8.58-2.59,.04-4.97-1.79Z"/><path class="cls-2" d="M50.4,34.97s2.42,.44-.19,6.53c3.54-4.1,3.11-7.83,2.67-8.45-1.68,.5-2.49,1.93-2.49,1.93Z"/><path class="cls-9" d="M47.82,15.73c1.42,3.92,3.09,11.17,1.58,19.42-.89,6.53-1.37,10.24-1.61,12.08-.12,.95-.6,1.8-1.34,2.39-1.73,1.4-5.03,4.3-7.19,7.77h-.01c-1.37,.29-3.06,.54-4.89,.54-2.13,0-3.94-.37-5.25-.75-2.16-3.37-5.36-6.19-7.06-7.56-.74-.59-1.22-1.44-1.34-2.39-.24-1.84-.72-5.55-1.61-12.08-1.67-9.11,.08-15.66,1.55-19.19,3.31-1.24,8.2-2.62,13.6-2.62h.59c5.08,0,9.71,1.22,12.98,2.39Z"/><path class="cls-9" d="M19.04,35.96s-2.31-3.5-3.27-2.9,.52,7.91,4.24,10.51"/><path class="cls-9" d="M49.6,35.96s2.31-3.5,3.27-2.9-.52,7.91-4.24,10.51"/><path class="cls-9" d="M49.33,35.15l-.81-2.56s.45-6.12-.84-8.71c-3.77-1.6-9.34-1.31-13.46,1.44-4.13-2.75-9.7-3.04-13.47-1.44-1.29,2.59-.84,8.71-.84,8.71l-.81,2.56"/><path d="M21.53,34.64l3.6-2.16c.09-.06,.19-.05,.29-.04,0,0,6.58,.47,6.58,.47l-.37,2.21-6.37-1.69,.29-.04-4.01,1.25h0Z"/><path d="M31.18,37.13c-1.6,0-4.23-.04-5.31-.17-.99,.32-1.99,.62-2.99,.92l.11-.86c1.61,.81,3.46,1.39,5.27,1.46,0,0-.16,.02-.16,.02,.67-.2,1.34-.42,2.02-.61l1.18-.33-.68,.91c-.56,.75-1.13,1.49-1.73,2.21-.85,.01-1.74-.05-2.49-.45,.78,.21,1.6,.17,2.37,.04l-.15,.09c.42-.79,.88-1.56,1.34-2.33l.49,.59c-.69,.29-1.41,.54-2.11,.81-2.05-.02-4.02-.61-5.81-1.6,0,0-1-.58-1-.58l1.11-.28c1.04-.26,2.08-.52,3.12-.75,1.81,.25,3.62,.55,5.42,.91h0Z"/><path d="M47.37,34.64l-4.01-1.25,.29,.04-6.37,1.69-.37-2.21,6.58-.47c.09,0,.21-.02,.29,.04,0,0,3.6,2.16,3.6,2.16h0Z"/><path d="M37.72,37.13c1.8-.36,3.61-.66,5.42-.91,1.05,.23,2.08,.49,3.12,.75,0,0,1.11,.28,1.11,.28l-1,.58c-1.79,.99-3.76,1.58-5.81,1.6-.7-.27-1.42-.53-2.11-.81,0,0,.49-.59,.49-.59,.46,.77,.91,1.54,1.34,2.33,0,0-.15-.09-.15-.09,.77,.13,1.59,.17,2.37-.04-.76,.41-1.64,.46-2.49,.45-.6-.72-1.17-1.46-1.73-2.21,0,0-.68-.91-.68-.91l1.18,.33c.68,.19,1.35,.41,2.02,.61l-.16-.02c1.81-.07,3.66-.65,5.27-1.46,0,0,.11,.86,.11,.86-1-.3-2-.6-2.99-.92h.14c-1.81,.12-3.62,.18-5.45,.17h0Z"/><path d="M37.15,45.54l-.87-.43h.16c-.18,.16-2.03,1.82-2.14,1.92-.1-.1-1.97-1.77-2.14-1.92,0,0,.16,0,.16,0l-.87,.43,.71-.66,.05-.05,.1,.05,2.26,1.07h-.55l2.26-1.07,.1-.05,.05,.05,.71,.66h0Z"/><path d="M29.1,49.22c1.29-.68,2.63-1.17,3.98-1.61,.87-.03,1.74-.03,2.61,0,1.43,.4,2.82,1,4.16,1.71-1.25-.07-3.5-.52-4.16-.75-.84,.02-1.69,.02-2.53,0l.13-.02c-1.37,.33-2.76,.59-4.19,.67h0Z"/><path d="M32.26,49.78c1.35,.37,2.82,.36,4.15-.09,0,0,.04,.09,.04,.09-.8,1.62-3.35,1.66-4.22,.09,0,0,.03-.09,.03-.09h0Z"/><path d="M28,55.58s.64-3.09,1.04-4.09c.46,1.82-1.07,4.73,5.16,4.73h.25c6.23,0,4.7-2.91,5.16-4.73,.4,1,1.04,4.09,1.04,4.09l-1.58,1.79s-6.52,1.09-9.83-.21c-.73-1.06-1.24-1.58-1.24-1.58Z"/><path class="cls-9" d="M22.25,49.91l.1,8.33-11.77,5.42s-1.35-.16-3.44,.63"/><path class="cls-9" d="M46.41,49.91l-.1,8.33,11.77,5.42s1.35-.16,3.44,.63"/><path class="cls-9" d="M15.37,61.46c3.46,2.37,8.55,4.07,14.4,4.66l.77,2.53c1.24,.1,2.5,.14,3.79,.14s2.59-.05,3.84-.14l.77-2.53c5.83-.59,10.89-2.3,14.34-4.67"/><path class="cls-9" d="M53.28,61.45c-3.45,2.37-8.51,4.08-14.34,4.67l-.77,2.53h-7.63l-.77-2.53c-5.85-.59-10.94-2.29-14.4-4.66"/><path class="cls-13" d="M23.31,55.41c.31,1.22,.49,2.46,.64,3.71-3.8,2.37-7.89,4.31-12.29,5.32,0,0-.04-.09-.04-.09,3.34-1.59,8.46-4.23,11.57-5.55,0,0,.02-3.38,.02-3.38h.1Z"/></g>
<g id="BG"><path class="cls-5" d="M62.56,4.88C54.4,1.94,45.12,.2,35.25,.02c-.57-.01-1.15-.02-1.72-.02C23.88,0,14.77,1.52,6.72,4.21,2.49,14.22,0,26.6,0,40s2.39,25.22,6.45,35.11c8.16,2.94,17.45,4.69,27.32,4.87,.58,.01,1.15,.02,1.73,.02,9.63,0,18.73-1.51,26.78-4.2,4.24-10.01,6.74-22.39,6.74-35.8s-2.4-25.24-6.46-35.12Zm-4.04,66.86c-7.2,2.16-14.94,3.26-23.02,3.26-.49,0-.98-.01-1.47-.02h-.17c-8.18-.15-16.29-1.47-23.6-3.85-3.45-9.22-5.26-19.93-5.26-31.13s1.89-22.38,5.48-31.73c6.73-2.01,14.13-3.13,21.6-3.26,.48-.01,.97-.01,1.45-.01,.54,0,1.08,.01,1.63,.02,8.16,.15,16.27,1.47,23.59,3.84,3.46,9.24,5.27,19.95,5.27,31.14s-1.89,22.39-5.5,31.74Z"/><path class="cls-14" d="M17.21,2.06h0c1.63,.63,2.06,2.75,.81,3.97l-1.26,1.22s8.35-2.37,18.84-1.69h0c-1-1.49-.45-3.52,1.14-4.34l1-.51S28.26-.43,17.21,2.06Z"/><path class="cls-17" d="M21.81,1.66s.7,2.18-.22,3.1c3.77-.41,7.98-.74,11.12-.74-.33-1.33,1.26-3.4,1.26-3.4,0,0-6.17-.26-12.16,1.03Z"/><path class="cls-14" d="M36.25,79.21h0c-1.52-.87-1.62-3.03-.2-4.04l1.43-1.02s-8.61,1.07-18.88-1.19h0c.76,1.63-.09,3.55-1.79,4.11l-1.07,.36s9.19,2.56,20.5,1.78Z"/><path class="cls-17" d="M19.28,77.8s1.76-1.83,1.3-3.09c4.43,.69,9.11,1.14,12.25,1.14-.33,1.33,.44,3.4,.44,3.4,0,0-8-.16-13.99-1.45Z"/><polygon points="47.48 1.77 47.48 6.73 54.49 8.44 54.49 2.62 47.48 1.77"/><line class="cls-7" x1="45.5" y1="1.23" x2="45.5" y2="6.29"/><line class="cls-7" x1="56.47" y1="3.67" x2="56.47" y2="8.73"/><polygon points="47.48 78.74 47.48 73.78 54.49 72.07 54.49 77.88 47.48 78.74"/><line class="cls-7" x1="45.5" y1="79.28" x2="45.5" y2="74.21"/><line class="cls-7" x1="56.47" y1="76.84" x2="56.47" y2="71.77"/><path d="M33.53,1c.56,0,1.14,0,1.7,.02,9.39,.17,18.33,1.74,26.57,4.65,4.07,10.08,6.22,21.94,6.22,34.33s-2.24,24.79-6.49,34.99c-8.12,2.66-16.87,4.01-26.03,4.01-.56,0-1.12,0-1.71-.02-9.25-.17-18.42-1.78-26.58-4.66C3.15,64.25,1,52.39,1,40S3.23,15.21,7.47,5.02C15.6,2.35,24.37,1,33.53,1M33.53,0C23.88,0,14.77,1.52,6.72,4.21,2.49,14.22,0,26.6,0,40s2.39,25.22,6.45,35.11c8.16,2.94,17.45,4.69,27.32,4.87,.58,.01,1.15,.02,1.73,.02,9.63,0,18.73-1.51,26.78-4.2,4.24-10.01,6.74-22.39,6.74-35.8s-2.4-25.24-6.46-35.12C54.4,1.94,45.12,.2,35.25,.02,34.68,.01,34.1,0,33.53,0h0Z"/><path class="cls-14" d="M33.53,6c.52,0,1.04,0,1.61,.02,7.87,.14,15.75,1.4,22.84,3.64,3.3,9,5.04,19.47,5.04,30.34s-1.82,21.82-5.26,30.92c-6.98,2.04-14.47,3.08-22.26,3.08-.48,0-.97,0-1.47-.02h-.15c-7.89-.14-15.78-1.41-22.85-3.65-3.29-8.99-5.03-19.46-5.03-30.33s1.81-21.79,5.24-30.91c6.5-1.89,13.7-2.95,20.86-3.08,.47,0,.96,0,1.43,0m0-1c-.48,0-.97,0-1.45,.01-7.47,.13-14.87,1.25-21.6,3.26-3.59,9.35-5.48,20.26-5.48,31.73s1.81,21.91,5.26,31.13c7.31,2.38,15.42,3.7,23.6,3.85h.17c.49,.01,.98,.02,1.47,.02,8.08,0,15.82-1.1,23.02-3.26,3.61-9.35,5.5-20.27,5.5-31.74s-1.81-21.9-5.27-31.14c-7.32-2.37-15.43-3.69-23.59-3.84-.55,0-1.09-.02-1.63-.02h0Z"/><path d="M33.53,5c.54,0,1.08,.01,1.63,.02,8.16,.15,16.27,1.47,23.59,3.84,3.46,9.24,5.27,19.95,5.27,31.14s-1.89,22.39-5.5,31.74c-7.2,2.16-14.94,3.26-23.02,3.26-.49,0-.98-.01-1.47-.02h-.17c-8.18-.15-16.29-1.47-23.6-3.85-3.45-9.22-5.26-19.93-5.26-31.13s1.89-22.38,5.48-31.73c6.73-2.01,14.13-3.13,21.6-3.26,.48-.01,.97-.01,1.45-.01m0-1c-.49,0-.98,0-1.47,.01-7.51,.13-15.07,1.27-21.87,3.3l-.47,.14-.18,.46c-3.63,9.45-5.55,20.55-5.55,32.09s1.84,22.17,5.32,31.48l.17,.45,.46,.15c7.37,2.4,15.63,3.75,23.89,3.9h.19c.48,.01,.97,.02,1.47,.02,8.16,0,16-1.11,23.31-3.3l.47-.14,.18-.46c3.64-9.43,5.57-20.53,5.57-32.1s-1.84-22.17-5.33-31.49l-.17-.45-.46-.15c-7.39-2.39-15.65-3.74-23.88-3.89-.58-.01-1.11-.02-1.65-.02h0Z"/><path class="cls-10" d="M8.14,7.1s-12.66,32.94,0,66.06"/><path class="cls-10" d="M60.88,7.58s12.66,32.94,0,66.06"/></g>
</svg>