<svg id="Capa_2" xmlns="http://www.w3.org/2000/svg" xmlns:xlink="http://www.w3.org/1999/xlink" viewBox="0 0 69.02 80">
<defs >
<style >
.cls-1{fill:#000000;}.cls-2{fill:#000;}.cls-3{fill:#000000;}.cls-4{fill:#000000;}.cls-5{fill:#000000;}.cls-6{fill:#000000;}.cls-7,.cls-8{stroke-miterlimit:10;}.cls-7,.cls-8,.cls-9{stroke:#000;}.cls-7,.cls-9,.cls-10,.cls-11,.cls-12{fill:none;}.cls-8,.cls-13{fill:#000000;}.cls-9,.cls-10{stroke-linecap:round;stroke-linejoin:round;}.cls-10{stroke:#000000;stroke-dasharray:0 0 0 4.06;}.cls-14{fill:#000000;}.cls-15{fill:url(#USGS_19_Inundación_de_tierra_2);}.cls-12{stroke:#000000;stroke-dasharray:0 0 2 2;stroke-width:.3px;}.cls-16{fill:#000000;}.cls-17{fill:#000000;}
</style>
<pattern id="USGS_19_Inundación_de_tierra_2" x="0" y="0" width="72" height="72" patternTransform="translate(-524.48 -16999) rotate(-90)" patternUnits="userSpaceOnUse" viewBox="0 0 72 72">
<g >
<rect class="cls-11" width="72" height="72">
</rect>
<g >
<line class="cls-12" x1="71" y1="71" x2="144.44" y2="71">
</line>
<line class="cls-12" x1="71" y1="67" x2="144.44" y2="67">
</line>
<line class="cls-12" x1="71" y1="63" x2="144.44" y2="63">
</line>
<line class="cls-12" x1="71" y1="59" x2="144.44" y2="59">
</line>
<line class="cls-12" x1="71" y1="55" x2="144.44" y2="55">
</line>
<line class="cls-12" x1="71" y1="51" x2="144.44" y2="51">
</line>
<line class="cls-12" x1="71" y1="47" x2="144.44" y2="47">
</line>
<line class="cls-12" x1="71" y1="43" x2="144.44" y2="43">
</line>
<line class="cls-12" x1="71" y1="39" x2="144.44" y2="39">
</line>
<line class="cls-12" x1="71" y1="35" x2="144.44" y2="35">
</line>
<line class="cls-12" x1="71" y1="31" x2="144.44" y2="31">
</line>
<line class="cls-12" x1="71" y1="27" x2="144.44" y2="27">
</line>
<line class="cls-12" x1="71" y1="23" x2="144.44" y2="23">
</line>
<line class="cls-12" x1="71" y1="19" x2="144.44" y2="19">
</line>
<line class="cls-12" x1="71" y1="15" x2="144.44" y2="15">
</line>
<line class="cls-12" x1="71" y1="11" x2="144.44" y2="11">
</line>
<line class="cls-12" x1="71" y1="7" x2="144.44" y2="7">
</line>
<line class="cls-12" x1="71" y1="3" x2="144.44" y2="3">
</line>
</g>


<g >
<line class="cls-12" x1="-1" y1="71" x2="72.44" y2="71">
</line>
<line class="cls-12" x1="-1" y1="67" x2="72.44" y2="67">
</line>
<line class="cls-12" x1="-1" y1="63" x2="72.44" y2="63">
</line>
<line class="cls-12" x1="-1" y1="59" x2="72.44" y2="59">
</line>
<line class="cls-12" x1="-1" y1="55" x2="72.44" y2="55">
</line>
<line class="cls-12" x1="-1" y1="51" x2="72.44" y2="51">
</line>
<line class="cls-12" x1="-1" y1="47" x2="72.44" y2="47">
</line>
<line class="cls-12" x1="-1" y1="43" x2="72.44" y2="43">
</line>
<line class="cls-12" x1="-1" y1="39" x2="72.44" y2="39">
</line>
<line class="cls-12" x1="-1" y1="35" x2="72.44" y2="35">
</line>
<line class="cls-12" x1="-1" y1="31" x2="72.44" y2="31">
</line>
<line class="cls-12" x1="-1" y1="27" x2="72.44" y2="27">
</line>
<line class="cls-12" x1="-1" y1="23" x2="72.44" y2="23">
</line>
<line class="cls-12" x1="-1" y1="19" x2="72.44" y2="19">
</line>
<line class="cls-12" x1="-1" y1="15" x2="72.44" y2="15">
</line>
<line class="cls-12" x1="-1" y1="11" x2="72.44" y2="11">
</line>
<line class="cls-12" x1="-1" y1="7" x2="72.44" y2="7">
</line>
<line class="cls-12" x1="-1" y1="3" x2="72.44" y2="3">
</line>
<line class="cls-12" x1="1.04" y1="69" x2="74.48" y2="69">
</line>
<line class="cls-12" x1="1.04" y1="65" x2="74.48" y2="65">
</line>
<line class="cls-12" x1="1.04" y1="61" x2="74.48" y2="61">
</line>
<line class="cls-12" x1="1.04" y1="57" x2="74.48" y2="57">
</line>
<line class="cls-12" x1="1.04" y1="53" x2="74.48" y2="53">
</line>
<line class="cls-12" x1="1.04" y1="49" x2="74.48" y2="49">
</line>
<line class="cls-12" x1="1.04" y1="45" x2="74.48" y2="45">
</line>
<line class="cls-12" x1="1.04" y1="41" x2="74.48" y2="41">
</line>
<line class="cls-12" x1="1.04" y1="37" x2="74.48" y2="37">
</line>
<line class="cls-12" x1="1.04" y1="33" x2="74.48" y2="33">
</line>
<line class="cls-12" x1="1.04" y1="29" x2="74.48" y2="29">
</line>
<line class="cls-12" x1="1.04" y1="25" x2="74.48" y2="25">
</line>
<line class="cls-12" x1="1.04" y1="21" x2="74.48" y2="21">
</line>
<line class="cls-12" x1="1.04" y1="17" x2="74.48" y2="17">
</line>
<line class="cls-12" x1="1.04" y1="13" x2="74.48" y2="13">
</line>
<line class="cls-12" x1="1.04" y1="9" x2="74.48" y2="9">
</line>
<line class="cls-12" x1="1.04" y1="5" x2="74.48" y2="5">
</line>
<line class="cls-12" x1="1.04" y1="1" x2="74.48" y2="1">
</line>
</g>


<g >
<line class="cls-12" x1="-73" y1="71" x2=".44" y2="71">
</line>
<line class="cls-12" x1="-73" y1="67" x2=".44" y2="67">
</line>
<line class="cls-12" x1="-73" y1="63" x2=".44" y2="63">
</line>
<line class="cls-12" x1="-73" y1="59" x2=".44" y2="59">
</line>
<line class="cls-12" x1="-73" y1="55" x2=".44" y2="55">
</line>
<line class="cls-12" x1="-73" y1="51" x2=".44" y2="51">
</line>
<line class="cls-12" x1="-73" y1="47" x2=".44" y2="47">
</line>
<line class="cls-12" x1="-73" y1="43" x2=".44" y2="43">
</line>
<line class="cls-12" x1="-73" y1="39" x2=".44" y2="39">
</line>
<line class="cls-12" x1="-73" y1="35" x2=".44" y2="35">
</line>
<line class="cls-12" x1="-73" y1="31" x2=".44" y2="31">
</line>
<line class="cls-12" x1="-73" y1="27" x2=".44" y2="27">
</line>
<line class="cls-12" x1="-73" y1="23" x2=".44" y2="23">
</line>
<line class="cls-12" x1="-73" y1="19" x2=".44" y2="19">
</line>
<line class="cls-12" x1="-73" y1="15" x2=".44" y2="15">
</line>
<line class="cls-12" x1="-73" y1="11" x2=".44" y2="11">
</line>
<line class="cls-12" x1="-73" y1="7" x2=".44" y2="7">
</line>
<line class="cls-12" x1="-73" y1="3" x2=".44" y2="3">
</line>
<line class="cls-12" x1="-70.96" y1="69" x2="2.48" y2="69">
</line>
<line class="cls-12" x1="-70.96" y1="65" x2="2.48" y2="65">
</line>
<line class="cls-12" x1="-70.96" y1="61" x2="2.48" y2="61">
</line>
<line class="cls-12" x1="-70.96" y1="57" x2="2.48" y2="57">
</line>
<line class="cls-12" x1="-70.96" y1="53" x2="2.48" y2="53">
</line>
<line class="cls-12" x1="-70.96" y1="49" x2="2.48" y2="49">
</line>
<line class="cls-12" x1="-70.96" y1="45" x2="2.48" y2="45">
</line>
<line class="cls-12" x1="-70.96" y1="41" x2="2.48" y2="41">
</line>
<line class="cls-12" x1="-70.96" y1="37" x2="2.48" y2="37">
</line>
<line class="cls-12" x1="-70.96" y1="33" x2="2.48" y2="33">
</line>
<line class="cls-12" x1="-70.96" y1="29" x2="2.48" y2="29">
</line>
<line class="cls-12" x1="-70.96" y1="25" x2="2.48" y2="25">
</line>
<line class="cls-12" x1="-70.96" y1="21" x2="2.48" y2="21">
</line>
<line class="cls-12" x1="-70.96" y1="17" x2="2.48" y2="17">
</line>
<line class="cls-12" x1="-70.96" y1="13" x2="2.48" y2="13">
</line>
<line class="cls-12" x1="-70.96" y1="9" x2="2.48" y2="9">
</line>
<line class="cls-12" x1="-70.96" y1="5" x2="2.48" y2="5">
</line>
<line class="cls-12" x1="-70.96" y1="1" x2="2.48" y2="1">
</line>
</g>


</g>


</pattern>
</defs>
  <path
     id="circle1849"
     style="fill:#AA00DD;stroke:#000000;stroke-width:2"
     d="M 34.875,3.84375 C 30.2026,3.8566827 25.91896,6.4477515 23.738281,10.580078 21.63936,9.1446679 19.156089,8.3761337 16.613281,8.375 9.636905,8.3755251 3.9818685,14.031436 3.9824219,21.007812 c 0.012178,4.019812 1.9368978,7.79383 5.1835937,10.164063 -1.8357739,2.246976 -2.8420262,5.057448 -2.8496094,7.958984 0.00713,1.935325 0.4588528,3.843134 1.3203126,5.576172 -2.4145566,2.364898 -3.7807042,5.598771 -3.7929688,8.978516 0.00466,4.996359 2.9538661,9.520462 7.523438,11.541015 0.767283,6.336372 6.140784,11.10481 12.523437,11.113282 3.186693,-0.0091 6.252191,-1.222333 8.582031,-3.396485 1.867081,1.045968 3.9693,1.600422 6.109375,1.611329 2.723791,-0.01118 5.371006,-0.902492 7.546875,-2.541016 1.56279,0.673484 3.245549,1.024252 4.947266,1.03125 6.977139,5.53e-4 12.633366,-5.655674 12.632812,-12.632813 -0.0013,-2.652818 -0.837669,-5.237911 -2.390625,-7.388671 2.480721,-2.37284 3.888874,-5.653124 3.900391,-9.085938 -9.13e-4,-3.96978 -1.867955,-7.708203 -5.041016,-10.09375 2.59288,-2.385063 4.071919,-5.744584 4.080078,-9.267578 C 64.257287,17.599796 58.601376,11.944759 51.625,11.945312 50.032147,11.955601 48.455612,12.267065 46.978516,12.863281 45.38146,7.5117456 40.459758,3.8440964 34.875,3.84375 Z"/>





<g >
<path class="cls-1" d="M18.98,35.38s-2.18-3.14-3.23-2.36,.87,7.77,4.45,10.47c.51,3.73,1.09,5.46,1.57,5.94,.52,1.66,.7,8.73,.7,8.73l-12.05,5.67s-2.27,0-3.67,.7c1.05,7.16,2.97,9.51,2.97,9.51,0,0,13.79,3.75,25.84,3.32s25.23-3.84,25.23-3.84l.35-9.86-2.97-.09-11.78-5.41-.09-8.21,1.31-2.09,.7-4.19s3.32-2.44,4.36-6.02c1.13-3.93,1.31-8.12-3.23-1.75,1.13-10.13-1.31-19.03-1.66-20.43-10.04-2.36-20.16-3.23-27.41,.7-2.53,6.81-2.36,15.71-1.4,19.2Z">
</path>
<path class="cls-2" d="M34.19,52.73v-19.4c0-6.74,6.54-11.83,12.94-9.72,.29,.1,.58,.2,.87,.32,1.1,5.08,.39,8.86,.39,8.86l1.15,2.63-1.88,13.04s-6.3,5.41-8.18,7.96c-.03,0-.05,.02-.08,.03-2.53,.96-5.23-1.01-5.23-3.72Z">
</path>
<path class="cls-3" d="M31.21,37.08l-5.57-.4-2.26,.9s3.06,1.2,4.86,1.35c2.81-1.05,2.96-1.86,2.96-1.86Z">
</path>
<polygon class="cls-4" points="31.89 33.83 31.21 37.08 25.65 36.68 21.57 37.26 21.57 34.62 25.46 32.95 31.89 33.83">
</polygon>
<path class="cls-3" d="M37.71,37.08l5.57-.4,2.26,.9s-3.06,1.2-4.86,1.35c-2.81-1.05-2.96-1.86-2.96-1.86Z">
</path>
<polygon class="cls-4" points="37.03 33.83 37.71 37.08 43.28 36.68 47.36 37.26 47.36 34.62 43.47 32.95 37.03 33.83">
</polygon>
<path class="cls-5" d="M18.75,34.83l1.23-2.32s-.15-7.12,.73-8.72c4.36-2.4,11.41,0,13.37,1.38,4.58-3.2,11.62-2.18,13.44-1.31,1.23,5.3,.87,8.94,.87,8.94l1.02,1.96s.65-7.99,.15-12.49c-.8-5.09-2.03-6.32-2.03-6.32,0,0-14.63-6.65-27.15,.24-2.49,7.17-1.62,18.65-1.62,18.65Z">
</path>
<path class="cls-16" d="M47.89,15.88s-10.75,3.2-21.81,2.14c4.27-.38,7.47-1.07,7.47-1.07,0,0-9.91,.31-12.66-.92,8.85-3.13,20.44-3.13,26.99-.15Z">
</path>
<path d="M39.39,57.53l-14.36,16.38-15.32-2.02-2.02-7.98,2.73-.07,12.05-5.67-.1-8.08s3.19,2.98,4.68,4.57c1.6,1.7,2.13,2.34,2.13,2.34l10.21,.53Z">
</path>
<path d="M19.27,36.66s-1.85-3.84-3.31-3.64c-1.32,1.79,.86,8.2,4.43,10.78-.93-4.5-1.12-7.14-1.12-7.14Z">
</path>
<path class="cls-2" d="M23.52,40.25c1.14,.35,2.81,.87,4.13,1.24,.51,.14,.58,.83,.12,1.1-1.44,.81-2.57,1.12-3.17,1.24-.26,.05-.53-.09-.64-.33l-1.14-2.41c-.22-.47,.21-.98,.71-.82Z">
</path>
<path class="cls-2" d="M43.73,54.55c-2.22,2.4-7.44,8.1-10.91,12.39,3.44,.33,4.18,.33,4.18,.33l1.23-2.95s4.39-.07,9.91-2.03c.61-.22,.68-1.07,.1-1.37-2.34-1.22-3.94-2.02-3.94-2.02l.35-3.93c.05-.51-.58-.79-.93-.42Z">
</path>
<path class="cls-8" d="M53.2,61.79s-6.92,3.6-14.21,4.24c-.82,2.62-1.01,2.77-1.01,2.77l-7.29-.18-1.11-2.12-6.37,7.47s9.13,1.48,19.28,.92,16.24-2.77,16.24-2.77l2.03-8.58-2.59,.04-4.97-1.79Z">
</path>
<path class="cls-2" d="M50.4,34.97s2.42,.44-.19,6.53c3.54-4.1,3.11-7.83,2.67-8.45-1.68,.5-2.49,1.93-2.49,1.93Z">
</path>
<path class="cls-9" d="M47.82,15.73c1.42,3.92,3.09,11.17,1.58,19.42-.89,6.53-1.37,10.24-1.61,12.08-.12,.95-.6,1.8-1.34,2.39-1.73,1.4-5.03,4.3-7.19,7.77h-.01c-1.37,.29-3.06,.54-4.89,.54-2.13,0-3.94-.37-5.25-.75-2.16-3.37-5.36-6.19-7.06-7.56-.74-.59-1.22-1.44-1.34-2.39-.24-1.84-.72-5.55-1.61-12.08-1.67-9.11,.08-15.66,1.55-19.19,3.31-1.24,8.2-2.62,13.6-2.62h.59c5.08,0,9.71,1.22,12.98,2.39Z">
</path>
<path class="cls-9" d="M19.04,35.96s-2.31-3.5-3.27-2.9,.52,7.91,4.24,10.51">
</path>
<path class="cls-9" d="M49.6,35.96s2.31-3.5,3.27-2.9-.52,7.91-4.24,10.51">
</path>
<path class="cls-9" d="M49.33,35.15l-.81-2.56s.45-6.12-.84-8.71c-3.77-1.6-9.34-1.31-13.46,1.44-4.13-2.75-9.7-3.04-13.47-1.44-1.29,2.59-.84,8.71-.84,8.71l-.81,2.56">
</path>
<path d="M21.53,34.64l3.6-2.16c.09-.06,.19-.05,.29-.04,0,0,6.58,.47,6.58,.47l-.37,2.21-6.37-1.69,.29-.04-4.01,1.25h0Z">
</path>
<path d="M31.18,37.13c-1.6,0-4.23-.04-5.31-.17-.99,.32-1.99,.62-2.99,.92l.11-.86c1.61,.81,3.46,1.39,5.27,1.46,0,0-.16,.02-.16,.02,.67-.2,1.34-.42,2.02-.61l1.18-.33-.68,.91c-.56,.75-1.13,1.49-1.73,2.21-.85,.01-1.74-.05-2.49-.45,.78,.21,1.6,.17,2.37,.04l-.15,.09c.42-.79,.88-1.56,1.34-2.33l.49,.59c-.69,.29-1.41,.54-2.11,.81-2.05-.02-4.02-.61-5.81-1.6,0,0-1-.58-1-.58l1.11-.28c1.04-.26,2.08-.52,3.12-.75,1.81,.25,3.62,.55,5.42,.91h0Z">
</path>
<path d="M47.37,34.64l-4.01-1.25,.29,.04-6.37,1.69-.37-2.21,6.58-.47c.09,0,.21-.02,.29,.04,0,0,3.6,2.16,3.6,2.16h0Z">
</path>
<path d="M37.72,37.13c1.8-.36,3.61-.66,5.42-.91,1.05,.23,2.08,.49,3.12,.75,0,0,1.11,.28,1.11,.28l-1,.58c-1.79,.99-3.76,1.58-5.81,1.6-.7-.27-1.42-.53-2.11-.81,0,0,.49-.59,.49-.59,.46,.77,.91,1.54,1.34,2.33,0,0-.15-.09-.15-.09,.77,.13,1.59,.17,2.37-.04-.76,.41-1.64,.46-2.49,.45-.6-.72-1.17-1.46-1.73-2.21,0,0-.68-.91-.68-.91l1.18,.33c.68,.19,1.35,.41,2.02,.61l-.16-.02c1.81-.07,3.66-.65,5.27-1.46,0,0,.11,.86,.11,.86-1-.3-2-.6-2.99-.92h.14c-1.81,.12-3.62,.18-5.45,.17h0Z">
</path>
<path d="M37.15,45.54l-.87-.43h.16c-.18,.16-2.03,1.82-2.14,1.92-.1-.1-1.97-1.77-2.14-1.92,0,0,.16,0,.16,0l-.87,.43,.71-.66,.05-.05,.1,.05,2.26,1.07h-.55l2.26-1.07,.1-.05,.05,.05,.71,.66h0Z">
</path>
<path d="M29.1,49.22c1.29-.68,2.63-1.17,3.98-1.61,.87-.03,1.74-.03,2.61,0,1.43,.4,2.82,1,4.16,1.71-1.25-.07-3.5-.52-4.16-.75-.84,.02-1.69,.02-2.53,0l.13-.02c-1.37,.33-2.76,.59-4.19,.67h0Z">
</path>
<path d="M32.26,49.78c1.35,.37,2.82,.36,4.15-.09,0,0,.04,.09,.04,.09-.8,1.62-3.35,1.66-4.22,.09,0,0,.03-.09,.03-.09h0Z">
</path>
<path d="M28,55.58s.64-3.09,1.04-4.09c.46,1.82-1.07,4.73,5.16,4.73h.25c6.23,0,4.7-2.91,5.16-4.73,.4,1,1.04,4.09,1.04,4.09l-1.58,1.79s-6.52,1.09-9.83-.21c-.73-1.06-1.24-1.58-1.24-1.58Z">
</path>
<path class="cls-9" d="M22.25,49.91l.1,8.33-11.77,5.42s-1.35-.16-3.44,.63">
</path>
<path class="cls-9" d="M46.41,49.91l-.1,8.33,11.77,5.42s1.35-.16,3.44,.63">
</path>
<path class="cls-9" d="M15.37,61.46c3.46,2.37,8.55,4.07,14.4,4.66l.77,2.53c1.24,.1,2.5,.14,3.79,.14s2.59-.05,3.84-.14l.77-2.53c5.83-.59,10.89-2.3,14.34-4.67">
</path>
<path class="cls-9" d="M53.28,61.45c-3.45,2.37-8.51,4.08-14.34,4.67l-.77,2.53h-7.63l-.77-2.53c-5.85-.59-10.94-2.29-14.4-4.66">
</path>
<path class="cls-13" d="M23.31,55.41c.31,1.22,.49,2.46,.64,3.71-3.8,2.37-7.89,4.31-12.29,5.32,0,0-.04-.09-.04-.09,3.34-1.59,8.46-4.23,11.57-5.55,0,0,.02-3.38,.02-3.38h.1Z">
</path>
</g>





</svg>
