<?xml version="1.0" encoding="UTF-8"?><svg id="Capa_2" xmlns="http://www.w3.org/2000/svg" xmlns:xlink="http://www.w3.org/1999/xlink" viewBox="0 0 69.02 80"><defs><style>.cls-1{fill:#c89aed;}.cls-2{fill:#fff;}.cls-3{fill:#f8ffbf;}.cls-4{fill:#7b7be8;}.cls-5{fill:#a88347;}.cls-6{fill:#782ab5;}.cls-7,.cls-8{stroke-miterlimit:10;}.cls-7,.cls-8,.cls-9{stroke:#000;}.cls-7,.cls-8,.cls-9,.cls-10,.cls-11,.cls-12{fill:none;}.cls-8,.cls-9,.cls-10{stroke-linecap:round;}.cls-9,.cls-10{stroke-linejoin:round;}.cls-10{stroke:#deb778;stroke-dasharray:0 0 0 4.06;}.cls-13{fill:#deb778;}.cls-14{fill:url(#USGS_19_Inundación_de_tierra_2);}.cls-12{stroke:#1d1d1b;stroke-dasharray:0 0 2 2;stroke-width:.3px;}.cls-15{fill:#cf5f2b;}.cls-16{fill:#fcf0c5;}.cls-17{fill:#b83521;}</style><pattern id="USGS_19_Inundación_de_tierra_2" x="0" y="0" width="72" height="72" patternTransform="translate(267.52 -17071) rotate(-90)" patternUnits="userSpaceOnUse" viewBox="0 0 72 72"><g><rect class="cls-11" width="72" height="72"/><g><line class="cls-12" x1="71" y1="71" x2="144.44" y2="71"/><line class="cls-12" x1="71" y1="67" x2="144.44" y2="67"/><line class="cls-12" x1="71" y1="63" x2="144.44" y2="63"/><line class="cls-12" x1="71" y1="59" x2="144.44" y2="59"/><line class="cls-12" x1="71" y1="55" x2="144.44" y2="55"/><line class="cls-12" x1="71" y1="51" x2="144.44" y2="51"/><line class="cls-12" x1="71" y1="47" x2="144.44" y2="47"/><line class="cls-12" x1="71" y1="43" x2="144.44" y2="43"/><line class="cls-12" x1="71" y1="39" x2="144.44" y2="39"/><line class="cls-12" x1="71" y1="35" x2="144.44" y2="35"/><line class="cls-12" x1="71" y1="31" x2="144.44" y2="31"/><line class="cls-12" x1="71" y1="27" x2="144.44" y2="27"/><line class="cls-12" x1="71" y1="23" x2="144.44" y2="23"/><line class="cls-12" x1="71" y1="19" x2="144.44" y2="19"/><line class="cls-12" x1="71" y1="15" x2="144.44" y2="15"/><line class="cls-12" x1="71" y1="11" x2="144.44" y2="11"/><line class="cls-12" x1="71" y1="7" x2="144.44" y2="7"/><line class="cls-12" x1="71" y1="3" x2="144.44" y2="3"/></g>
<g><line class="cls-12" x1="-1" y1="71" x2="72.44" y2="71"/><line class="cls-12" x1="-1" y1="67" x2="72.44" y2="67"/><line class="cls-12" x1="-1" y1="63" x2="72.44" y2="63"/><line class="cls-12" x1="-1" y1="59" x2="72.44" y2="59"/><line class="cls-12" x1="-1" y1="55" x2="72.44" y2="55"/><line class="cls-12" x1="-1" y1="51" x2="72.44" y2="51"/><line class="cls-12" x1="-1" y1="47" x2="72.44" y2="47"/><line class="cls-12" x1="-1" y1="43" x2="72.44" y2="43"/><line class="cls-12" x1="-1" y1="39" x2="72.44" y2="39"/><line class="cls-12" x1="-1" y1="35" x2="72.44" y2="35"/><line class="cls-12" x1="-1" y1="31" x2="72.44" y2="31"/><line class="cls-12" x1="-1" y1="27" x2="72.44" y2="27"/><line class="cls-12" x1="-1" y1="23" x2="72.44" y2="23"/><line class="cls-12" x1="-1" y1="19" x2="72.44" y2="19"/><line class="cls-12" x1="-1" y1="15" x2="72.44" y2="15"/><line class="cls-12" x1="-1" y1="11" x2="72.44" y2="11"/><line class="cls-12" x1="-1" y1="7" x2="72.44" y2="7"/><line class="cls-12" x1="-1" y1="3" x2="72.44" y2="3"/><line class="cls-12" x1="1.04" y1="69" x2="74.48" y2="69"/><line class="cls-12" x1="1.04" y1="65" x2="74.48" y2="65"/><line class="cls-12" x1="1.04" y1="61" x2="74.48" y2="61"/><line class="cls-12" x1="1.04" y1="57" x2="74.48" y2="57"/><line class="cls-12" x1="1.04" y1="53" x2="74.48" y2="53"/><line class="cls-12" x1="1.04" y1="49" x2="74.48" y2="49"/><line class="cls-12" x1="1.04" y1="45" x2="74.48" y2="45"/><line class="cls-12" x1="1.04" y1="41" x2="74.48" y2="41"/><line class="cls-12" x1="1.04" y1="37" x2="74.48" y2="37"/><line class="cls-12" x1="1.04" y1="33" x2="74.48" y2="33"/><line class="cls-12" x1="1.04" y1="29" x2="74.48" y2="29"/><line class="cls-12" x1="1.04" y1="25" x2="74.48" y2="25"/><line class="cls-12" x1="1.04" y1="21" x2="74.48" y2="21"/><line class="cls-12" x1="1.04" y1="17" x2="74.48" y2="17"/><line class="cls-12" x1="1.04" y1="13" x2="74.48" y2="13"/><line class="cls-12" x1="1.04" y1="9" x2="74.48" y2="9"/><line class="cls-12" x1="1.04" y1="5" x2="74.48" y2="5"/><line class="cls-12" x1="1.04" y1="1" x2="74.48" y2="1"/></g>
<g><line class="cls-12" x1="-73" y1="71" x2=".44" y2="71"/><line class="cls-12" x1="-73" y1="67" x2=".44" y2="67"/><line class="cls-12" x1="-73" y1="63" x2=".44" y2="63"/><line class="cls-12" x1="-73" y1="59" x2=".44" y2="59"/><line class="cls-12" x1="-73" y1="55" x2=".44" y2="55"/><line class="cls-12" x1="-73" y1="51" x2=".44" y2="51"/><line class="cls-12" x1="-73" y1="47" x2=".44" y2="47"/><line class="cls-12" x1="-73" y1="43" x2=".44" y2="43"/><line class="cls-12" x1="-73" y1="39" x2=".44" y2="39"/><line class="cls-12" x1="-73" y1="35" x2=".44" y2="35"/><line class="cls-12" x1="-73" y1="31" x2=".44" y2="31"/><line class="cls-12" x1="-73" y1="27" x2=".44" y2="27"/><line class="cls-12" x1="-73" y1="23" x2=".44" y2="23"/><line class="cls-12" x1="-73" y1="19" x2=".44" y2="19"/><line class="cls-12" x1="-73" y1="15" x2=".44" y2="15"/><line class="cls-12" x1="-73" y1="11" x2=".44" y2="11"/><line class="cls-12" x1="-73" y1="7" x2=".44" y2="7"/><line class="cls-12" x1="-73" y1="3" x2=".44" y2="3"/><line class="cls-12" x1="-70.96" y1="69" x2="2.48" y2="69"/><line class="cls-12" x1="-70.96" y1="65" x2="2.48" y2="65"/><line class="cls-12" x1="-70.96" y1="61" x2="2.48" y2="61"/><line class="cls-12" x1="-70.96" y1="57" x2="2.48" y2="57"/><line class="cls-12" x1="-70.96" y1="53" x2="2.48" y2="53"/><line class="cls-12" x1="-70.96" y1="49" x2="2.48" y2="49"/><line class="cls-12" x1="-70.96" y1="45" x2="2.48" y2="45"/><line class="cls-12" x1="-70.96" y1="41" x2="2.48" y2="41"/><line class="cls-12" x1="-70.96" y1="37" x2="2.48" y2="37"/><line class="cls-12" x1="-70.96" y1="33" x2="2.48" y2="33"/><line class="cls-12" x1="-70.96" y1="29" x2="2.48" y2="29"/><line class="cls-12" x1="-70.96" y1="25" x2="2.48" y2="25"/><line class="cls-12" x1="-70.96" y1="21" x2="2.48" y2="21"/><line class="cls-12" x1="-70.96" y1="17" x2="2.48" y2="17"/><line class="cls-12" x1="-70.96" y1="13" x2="2.48" y2="13"/><line class="cls-12" x1="-70.96" y1="9" x2="2.48" y2="9"/><line class="cls-12" x1="-70.96" y1="5" x2="2.48" y2="5"/><line class="cls-12" x1="-70.96" y1="1" x2="2.48" y2="1"/></g>
</g>
</pattern></defs><g id="Frame"><path class="cls-6" d="M64.02,40c0,11.47-1.89,22.39-5.5,31.74-7.2,2.16-14.94,3.26-23.02,3.26-.49,0-.98-.01-1.47-.02h-.17c-8.18-.15-16.29-1.47-23.6-3.85-3.45-9.22-5.26-19.93-5.26-31.13s1.89-22.38,5.48-31.73c6.73-2.01,14.13-3.13,21.6-3.26,.48-.01,.97-.01,1.45-.01,.54,0,1.08,.01,1.63,.02,8.16,.15,16.27,1.47,23.59,3.84,3.46,9.24,5.27,19.95,5.27,31.14Z"/><path class="cls-14" d="M34.03,5.59V74.98h-.17c-8.18-.15-16.29-1.47-23.6-3.85-3.45-9.22-5.26-19.93-5.26-31.13s1.89-22.38,5.48-31.73c6.73-2.01,14.13-3.13,21.6-3.26,.65,.16,1.3,.36,1.95,.58Z"/></g>
<g><path class="cls-1" d="M18.03,31.59s-1.55-2.79-3.62-1.34-.83,9,4.66,11.48c.93,4.14,2.48,4.97,2.48,4.97l-.31,12.52-12,4.76v10.45l28.24,2.79,24.93-3.72v-9l-12.93-5.79v-12s2.38-3,2.69-5.59c5.59-2.9,5.07-8.07,4.86-10.14-.31-2.07-3.31-.72-3.93,.1-2.28-7.45-7.66-10.14-7.66-10.14l-25.34,4.76-2.07,5.9Z"/><path class="cls-2" d="M35.15,49.66v-16.22c0-4.86,3.25-9.11,7.93-10.4l2.17-.6s6.78,4.36,7.4,7.75c.62,4.29-.28,12.66-2.91,15.85l-1.8,1.73-3.39,7.4s-.04,.02-.11,.06c-4.19,2.28-9.3-.81-9.3-5.58Z"/><path d="M17.78,31.67s-1.43-2.92-3.37-1.43-.21,6.33,.43,7.71,2.76,3.11,3.69,2.99c-.98-4.84-.75-9.27-.75-9.27Z"/><polygon points="44.88 55.1 23.61 76.19 8.35 73.32 8.26 64.17 21.18 58.6 21.27 46.22 22.98 47.65 26.03 54.74 34.91 58.24 44.88 55.1"/><path class="cls-3" d="M30.4,38.45l.79-1.85s-3.74-1.32-7.66-.11c.45,1.36,.72,1.81,.72,1.81,0,0,5.74,.87,6.15,.15Z"/><path class="cls-3" d="M39.9,38.45l-.79-1.85s3.74-1.32,7.66-.11c-.45,1.36-.72,1.81-.72,1.81,0,0-5.74,.87-6.15,.15Z"/><path class="cls-4" d="M23.69,36.48s-2.13-2.16-2.48-2.94c2.23-.92,4.64-1.56,4.64-1.56l7.69,1.13s-.2,2.37-2.35,3.49c-2.54-.8-6.12-1.15-7.51-.12Z"/><path class="cls-4" d="M46.66,36.48s2.06-2.15,2.42-2.93c-2.23-.92-4.58-1.57-4.58-1.57l-7.69,1.13s.2,2.37,2.35,3.49c2.54-.8,6.12-1.15,7.51-.12Z"/><path class="cls-1" d="M44.59,24.5c.59,.76,1.43,1.24,2.31,1.75,1.59,.92,3.39,1.95,4.65,5.01-.27,6.55-.84,12.6-4.55,15.02l-.03,.02-.03,.02c-.22,.17-.4,.38-.52,.66-1.79,4.48-2.69,6.2-3,6.74-1.01,.56-4.21,2.19-8.11,2.9-4.04-.72-7.24-2.4-8.12-2.9-.3-.52-1.2-2.21-3.02-6.78-.11-.24-.28-.46-.5-.62l-.03-.02-.03-.02c-3.21-2.09-4.11-6.84-4.46-13.34,.66-2.26,2.16-4.97,5.58-5.44,1.88-.27,4-.46,6.24-.67,5.07-.47,10.3-.95,13.61-2.33m.41-1.29c-4.28,2.26-13.87,2.38-20.4,3.3-4.1,.57-5.78,3.91-6.45,6.32,.34,6.54,1.22,11.88,4.92,14.29,.08,.06,.15,.14,.19,.23,2.09,5.22,3,6.78,3.22,7.11,.61,.36,4.24,2.38,8.84,3.17,4.58-.79,8.22-2.82,8.83-3.17,.21-.32,1.12-1.87,3.21-7.11,.04-.09,.11-.17,.19-.23,4.02-2.62,4.72-8.7,5.01-16.03-2.32-5.87-6.6-5.33-7.56-7.88h0Z"/><path class="cls-17" d="M49.12,52.37s-3.21,5.7-9.71,8.38c-1.96,3.57-3.92,7.66-3.92,7.66l-1.87-3.39-9.36,9.45s8.82,1.52,15.6,1.16,19.34-3.57,19.34-3.57l1.69-8.65-11.4-4.73-.36-6.32Z"/><path class="cls-15" d="M49.85,62.08s-1.49,4.38-6.92,8.58c8.32,.18,17.17,.7,17.17,.7l1.05-5.78-11.3-3.5Z"/><path class="cls-2" d="M53.68,30.57s4.25,1.78,.89,9.31c3.97-7.53,2.94-12.53-.89-9.31Z"/><path d="M17.69,35.37s.37-7.94,6.9-8.86,16.13-1.04,20.4-3.3c1.04,2.75,5.93,1.89,8.06,9.35,.18-5.31,.24-8.19,.24-8.19l-4.74-9.42s-13.23-6.3-26.51,0c-3.45,5.88-4.69,10.12-4.69,10.12,0,0-.41,7.79,.33,10.3Z"/><path class="cls-4" d="M48.91,14.95s-5.21,8.01-23.9,7.74c6.78-.75,14.59-3.49,14.59-3.49,0,0-20.77,3.01-17.54-4.25,9.32-4.11,22.95-2.67,26.86,0Z"/><path class="cls-9" d="M48.57,14.95s3.71,6.05,4.7,10.12c-.37,10.25-.13,19.01-5.44,22.47-2.46,6.17-3.33,7.3-3.33,7.3,0,0-3.97,2.42-9.18,3.3-5.22-.88-9.19-3.3-9.19-3.3,0,0-.86-1.13-3.33-7.3-5.31-3.46-5.06-12.22-5.43-22.47,.99-4.07,4.69-10.12,4.69-10.12,0,0,12.63-5.83,26.51,0Z"/><path class="cls-9" d="M17.51,31.44s-1.49-2.8-3.27-1.16c-1.71,1.64,.23,10.47,4.33,10.88"/><path class="cls-9" d="M53.08,31.44s1.49-2.8,3.27-1.16c1.71,1.64-.23,10.47-4.33,10.88"/><path d="M21.19,33.61s3.12-2.3,4.79-2.68c4.7,.77,7.81,1.01,7.81,1.01l-.53,2.35-7.91-1.53s-2.01,.14-4.17,.86Z"/><path d="M29.86,38.73c-1.95,.26-3.96,.47-5.89-.09-.56-.78-1.09-1.59-1.02-2.63,0,0,.04-.36,.04-.36l.4-.04c2.68-.18,5.55-.36,8.01,.93-.41,.81-.56,1.02-.26,0,0,0,.06,.14,.06,.14-2.51-.59-5.17-.24-7.71-.09,0,0,.44-.4,.44-.4,0,.61,.37,1.28,.7,1.81,0,0-.22-.17-.22-.17,1.47,.52,3.89,.67,5.45,.9h0Z"/><path d="M49.16,33.61s-3.12-2.3-4.79-2.68c-4.7,.77-7.81,1.01-7.81,1.01l.53,2.35,7.91-1.53s2.01,.14,4.17,.86Z"/><path d="M40.49,38.73c1.58-.24,3.97-.38,5.45-.9,0,0-.22,.17-.22,.17,.33-.53,.7-1.2,.7-1.81,0,0,.44,.4,.44,.4-2.55-.15-5.21-.5-7.71,.09,0,0,.06-.14,.06-.14,.31,1.02,.15,.79-.26,0,2.46-1.29,5.33-1.11,8.01-.93,0,0,.4,.04,.4,.04,0,0,.04,.36,.04,.36,.07,1.04-.46,1.85-1.02,2.63-1.93,.56-3.93,.35-5.89,.09h0Z"/><path d="M38.15,40.54c.38,.57,.69,1.17,1,1.77-1.25,.61-2.55,1.12-3.86,1.57,0,0-.16,.06-.16,.06-1.36-.47-2.71-.99-4.02-1.63,.83-1.64,1.25-2.39,.66-.03,0,0-.18-.37-.18-.37,1.26,.27,2.49,.63,3.7,1.03h-.32c1.21-.4,2.44-.76,3.7-1.03l-.18,.37c-.14-.57-.26-1.15-.34-1.74h0Z"/><path d="M22.47,41.35c1.07,1.54,2.49,2.84,3.95,3.95,0,0,.82,5.59,.82,5.59,0,.06-.08,.08-.1,.01-.95-1.72-1.39-3.55-1.71-5.44,0,0,.37,.59,.37,.59-1.58-1.17-2.9-2.73-3.42-4.66-.01-.05,.06-.09,.09-.04h0Z"/><path d="M49.14,41.41c-.98,1.43-2.58,3.16-3.83,3.93,0,0-.92,5.57-.92,5.57,0,.05-.09,.05-.1,0-.42-2.05-.22-4.08,.08-6.11,1.57-1.06,2.96-2.25,4.68-3.45,.04-.04,.12,0,.08,.06h0Z"/><path d="M41.75,49.49c-.72-.19-1.42-.42-2.11-.67l.13,.03c-2.92,.27-5.83,.27-8.75,0l.13-.03c-.69,.25-1.39,.48-2.11,.67,.59-.4,1.36-1.01,1.98-1.24,2.92-.27,5.83-.26,8.75,0,.62,.24,1.38,.84,1.98,1.24h0Z"/><path d="M31.62,50.65c2.72-.09,5.2,0,7.89,.04-2.39,1.34-5.51,1.23-7.89-.04h0Z"/><path d="M32.05,53.61c1.82-1.76,5.26-2,6.99,0-2.39-.65-4.53-.42-6.99,0h0Z"/><polyline class="cls-8" points="21.17 46.5 21.17 58.65 8.82 64.17"/><polyline class="cls-8" points="49.21 46.5 49.21 58.65 61.56 64.17"/><path class="cls-8" d="M21.18,51.6c1.21,2.49,4.06,6.69,10.14,9.14,1.71,3.16,3.05,5.76,4,7.65,.95-1.89,2.29-4.49,4-7.65,5.72-2.3,8.58-6.16,9.9-8.68"/><path class="cls-8" d="M31.32,60.74s-2.6,3.18-4.07,7.86c-5.29-4.31-6.07-9.95-6.07-9.95"/><path class="cls-8" d="M39.32,61.01s2.43,2.91,3.91,7.59c5.29-4.31,6.07-9.95,6.07-9.95"/><path class="cls-15" d="M22.47,53.72c.45,1.99,.66,4.01,.77,6.04-2.9,1.58-5.92,2.93-9.07,3.94-.99,.35-2.01,.61-3.04,.84,0,0-.04-.09-.04-.09,3.67-1.64,7.8-3.76,11.25-5.14,0,0,.03-5.59,.03-5.59h.1Z"/></g>
<g id="BG"><path class="cls-5" d="M62.56,4.88C54.4,1.94,45.12,.2,35.25,.02,34.68,.01,34.1,0,33.53,0,23.88,0,14.77,1.52,6.72,4.21,2.49,14.22,0,26.6,0,40s2.39,25.22,6.45,35.11c8.16,2.94,17.45,4.69,27.32,4.87,.58,.01,1.15,.02,1.73,.02,9.63,0,18.73-1.51,26.78-4.2,4.24-10.01,6.74-22.39,6.74-35.8s-2.4-25.24-6.46-35.12Zm-4.04,66.86c-7.2,2.16-14.94,3.26-23.02,3.26-.49,0-.98-.01-1.47-.02h-.17c-8.18-.15-16.29-1.47-23.6-3.85-3.45-9.22-5.26-19.93-5.26-31.13s1.89-22.38,5.48-31.73c6.73-2.01,14.13-3.13,21.6-3.26,.48-.01,.97-.01,1.45-.01,.54,0,1.08,.01,1.63,.02,8.16,.15,16.27,1.47,23.59,3.84,3.46,9.24,5.27,19.95,5.27,31.14s-1.89,22.39-5.5,31.74Z"/><path class="cls-13" d="M17.21,2.06h0c1.63,.63,2.06,2.75,.81,3.97l-1.26,1.22s8.35-2.37,18.84-1.69h0c-1-1.49-.45-3.52,1.14-4.34l1-.51S28.26-.43,17.21,2.06Z"/><path class="cls-16" d="M21.81,1.66s.7,2.18-.22,3.1c3.77-.41,7.98-.74,11.12-.74-.33-1.33,1.26-3.4,1.26-3.4,0,0-6.17-.26-12.16,1.03Z"/><path class="cls-13" d="M36.25,79.21h0c-1.52-.87-1.62-3.03-.2-4.04l1.43-1.02s-8.61,1.07-18.88-1.19h0c.76,1.63-.09,3.55-1.79,4.11l-1.07,.36s9.19,2.56,20.5,1.78Z"/><path class="cls-16" d="M19.28,77.8s1.76-1.83,1.3-3.09c4.43,.69,9.11,1.14,12.25,1.14-.33,1.33,.44,3.4,.44,3.4,0,0-8-.16-13.99-1.45Z"/><polygon points="47.48 1.77 47.48 6.73 54.49 8.44 54.49 2.62 47.48 1.77"/><line class="cls-7" x1="45.5" y1="1.23" x2="45.5" y2="6.29"/><line class="cls-7" x1="56.47" y1="3.67" x2="56.47" y2="8.73"/><polygon points="47.48 78.74 47.48 73.78 54.49 72.07 54.49 77.88 47.48 78.74"/><line class="cls-7" x1="45.5" y1="79.28" x2="45.5" y2="74.21"/><line class="cls-7" x1="56.47" y1="76.84" x2="56.47" y2="71.77"/><path d="M33.53,1c.56,0,1.14,.01,1.7,.02,9.39,.17,18.33,1.74,26.57,4.65,4.07,10.08,6.22,21.94,6.22,34.33s-2.24,24.79-6.49,34.99c-8.12,2.66-16.87,4.01-26.03,4.01-.56,0-1.12,0-1.71-.02-9.25-.17-18.42-1.78-26.58-4.66C3.15,64.25,1,52.39,1,40S3.23,15.21,7.47,5.02C15.6,2.35,24.37,1,33.53,1m0-1C23.88,0,14.77,1.52,6.72,4.21,2.49,14.22,0,26.6,0,40s2.39,25.22,6.45,35.11c8.16,2.94,17.45,4.69,27.32,4.87,.58,.01,1.15,.02,1.73,.02,9.63,0,18.73-1.51,26.78-4.2,4.24-10.01,6.74-22.39,6.74-35.8s-2.4-25.24-6.46-35.12C54.4,1.94,45.12,.2,35.25,.02c-.57-.01-1.15-.02-1.72-.02h0Z"/><path class="cls-13" d="M33.53,6c.52,0,1.05,0,1.61,.02,7.87,.14,15.75,1.4,22.84,3.64,3.3,9,5.04,19.47,5.04,30.34s-1.82,21.82-5.26,30.92c-6.98,2.04-14.47,3.08-22.26,3.08-.48,0-.97,0-1.47-.02h-.15c-7.89-.14-15.78-1.41-22.85-3.65-3.29-8.99-5.03-19.46-5.03-30.33s1.81-21.79,5.24-30.91c6.5-1.89,13.7-2.95,20.86-3.08,.47,0,.96,0,1.43,0m0-1c-.48,0-.97,0-1.45,.01-7.47,.13-14.87,1.25-21.6,3.26-3.59,9.35-5.48,20.26-5.48,31.73s1.81,21.91,5.26,31.13c7.31,2.38,15.42,3.7,23.6,3.85h.17c.49,.01,.98,.02,1.47,.02,8.08,0,15.82-1.1,23.02-3.26,3.61-9.35,5.5-20.27,5.5-31.74s-1.81-21.9-5.27-31.14c-7.32-2.37-15.43-3.69-23.59-3.84-.55-.01-1.09-.02-1.63-.02h0Z"/><path d="M33.53,5c.54,0,1.08,.01,1.63,.02,8.16,.15,16.27,1.47,23.59,3.84,3.46,9.24,5.27,19.95,5.27,31.14s-1.89,22.39-5.5,31.74c-7.2,2.16-14.94,3.26-23.02,3.26-.49,0-.98-.01-1.47-.02h-.17c-8.18-.15-16.29-1.47-23.6-3.85-3.45-9.22-5.26-19.93-5.26-31.13s1.89-22.38,5.48-31.73c6.73-2.01,14.13-3.13,21.6-3.26,.48-.01,.97-.01,1.45-.01m0-1c-.49,0-.98,0-1.47,.01-7.51,.13-15.07,1.27-21.87,3.3l-.47,.14-.18,.46c-3.63,9.45-5.55,20.55-5.55,32.09s1.84,22.17,5.32,31.48l.17,.45,.46,.15c7.37,2.4,15.63,3.75,23.89,3.9h.19c.48,.01,.97,.02,1.47,.02,8.16,0,16-1.11,23.31-3.3l.47-.14,.18-.46c3.64-9.43,5.57-20.53,5.57-32.1s-1.84-22.17-5.33-31.49l-.17-.45-.46-.15c-7.39-2.39-15.65-3.74-23.88-3.89-.58-.01-1.11-.02-1.65-.02h0Z"/><path class="cls-10" d="M8.14,7.1s-12.66,32.94,0,66.06"/><path class="cls-10" d="M60.88,7.58s12.66,32.94,0,66.06"/></g>
</svg>