<svg id="Capa_2" xmlns="http://www.w3.org/2000/svg" xmlns:xlink="http://www.w3.org/1999/xlink" viewBox="0 0 69.02 80">
<defs >
<style >
.cls-1{fill:#c89aed;}.cls-2{fill:#fff;}.cls-3{fill:#f8ffbf;}.cls-4{fill:#7b7be8;}.cls-5{fill:#a88347;}.cls-6{fill:#782ab5;}.cls-7,.cls-8{stroke-miterlimit:10;}.cls-7,.cls-8,.cls-9{stroke:#000;}.cls-7,.cls-8,.cls-9,.cls-10,.cls-11,.cls-12{fill:none;}.cls-8,.cls-9,.cls-10{stroke-linecap:round;}.cls-9,.cls-10{stroke-linejoin:round;}.cls-10{stroke:#deb778;stroke-dasharray:0 0 0 4.06;}.cls-13{fill:#deb778;}.cls-14{fill:url(#USGS_19_Inundación_de_tierra_2);}.cls-12{stroke:#1d1d1b;stroke-dasharray:0 0 2 2;stroke-width:.3px;}.cls-15{fill:#cf5f2b;}.cls-16{fill:#fcf0c5;}.cls-17{fill:#b83521;}
</style>
<pattern id="USGS_19_Inundación_de_tierra_2" x="0" y="0" width="72" height="72" patternTransform="translate(195.52 -17071) rotate(-90)" patternUnits="userSpaceOnUse" viewBox="0 0 72 72">
<g >
<rect class="cls-11" width="72" height="72">
</rect>
<g >
<line class="cls-12" x1="71" y1="71" x2="144.44" y2="71">
</line>
<line class="cls-12" x1="71" y1="67" x2="144.44" y2="67">
</line>
<line class="cls-12" x1="71" y1="63" x2="144.44" y2="63">
</line>
<line class="cls-12" x1="71" y1="59" x2="144.44" y2="59">
</line>
<line class="cls-12" x1="71" y1="55" x2="144.44" y2="55">
</line>
<line class="cls-12" x1="71" y1="51" x2="144.44" y2="51">
</line>
<line class="cls-12" x1="71" y1="47" x2="144.44" y2="47">
</line>
<line class="cls-12" x1="71" y1="43" x2="144.44" y2="43">
</line>
<line class="cls-12" x1="71" y1="39" x2="144.44" y2="39">
</line>
<line class="cls-12" x1="71" y1="35" x2="144.44" y2="35">
</line>
<line class="cls-12" x1="71" y1="31" x2="144.44" y2="31">
</line>
<line class="cls-12" x1="71" y1="27" x2="144.44" y2="27">
</line>
<line class="cls-12" x1="71" y1="23" x2="144.44" y2="23">
</line>
<line class="cls-12" x1="71" y1="19" x2="144.44" y2="19">
</line>
<line class="cls-12" x1="71" y1="15" x2="144.44" y2="15">
</line>
<line class="cls-12" x1="71" y1="11" x2="144.44" y2="11">
</line>
<line class="cls-12" x1="71" y1="7" x2="144.44" y2="7">
</line>
<line class="cls-12" x1="71" y1="3" x2="144.44" y2="3">
</line>
</g>


<g >
<line class="cls-12" x1="-1" y1="71" x2="72.44" y2="71">
</line>
<line class="cls-12" x1="-1" y1="67" x2="72.44" y2="67">
</line>
<line class="cls-12" x1="-1" y1="63" x2="72.44" y2="63">
</line>
<line class="cls-12" x1="-1" y1="59" x2="72.44" y2="59">
</line>
<line class="cls-12" x1="-1" y1="55" x2="72.44" y2="55">
</line>
<line class="cls-12" x1="-1" y1="51" x2="72.44" y2="51">
</line>
<line class="cls-12" x1="-1" y1="47" x2="72.44" y2="47">
</line>
<line class="cls-12" x1="-1" y1="43" x2="72.44" y2="43">
</line>
<line class="cls-12" x1="-1" y1="39" x2="72.44" y2="39">
</line>
<line class="cls-12" x1="-1" y1="35" x2="72.44" y2="35">
</line>
<line class="cls-12" x1="-1" y1="31" x2="72.44" y2="31">
</line>
<line class="cls-12" x1="-1" y1="27" x2="72.44" y2="27">
</line>
<line class="cls-12" x1="-1" y1="23" x2="72.44" y2="23">
</line>
<line class="cls-12" x1="-1" y1="19" x2="72.44" y2="19">
</line>
<line class="cls-12" x1="-1" y1="15" x2="72.44" y2="15">
</line>
<line class="cls-12" x1="-1" y1="11" x2="72.44" y2="11">
</line>
<line class="cls-12" x1="-1" y1="7" x2="72.44" y2="7">
</line>
<line class="cls-12" x1="-1" y1="3" x2="72.44" y2="3">
</line>
<line class="cls-12" x1="1.04" y1="69" x2="74.48" y2="69">
</line>
<line class="cls-12" x1="1.04" y1="65" x2="74.48" y2="65">
</line>
<line class="cls-12" x1="1.04" y1="61" x2="74.48" y2="61">
</line>
<line class="cls-12" x1="1.04" y1="57" x2="74.48" y2="57">
</line>
<line class="cls-12" x1="1.04" y1="53" x2="74.48" y2="53">
</line>
<line class="cls-12" x1="1.04" y1="49" x2="74.48" y2="49">
</line>
<line class="cls-12" x1="1.04" y1="45" x2="74.48" y2="45">
</line>
<line class="cls-12" x1="1.04" y1="41" x2="74.48" y2="41">
</line>
<line class="cls-12" x1="1.04" y1="37" x2="74.48" y2="37">
</line>
<line class="cls-12" x1="1.04" y1="33" x2="74.48" y2="33">
</line>
<line class="cls-12" x1="1.04" y1="29" x2="74.48" y2="29">
</line>
<line class="cls-12" x1="1.04" y1="25" x2="74.48" y2="25">
</line>
<line class="cls-12" x1="1.04" y1="21" x2="74.48" y2="21">
</line>
<line class="cls-12" x1="1.04" y1="17" x2="74.48" y2="17">
</line>
<line class="cls-12" x1="1.04" y1="13" x2="74.48" y2="13">
</line>
<line class="cls-12" x1="1.04" y1="9" x2="74.48" y2="9">
</line>
<line class="cls-12" x1="1.04" y1="5" x2="74.48" y2="5">
</line>
<line class="cls-12" x1="1.04" y1="1" x2="74.48" y2="1">
</line>
</g>


<g >
<line class="cls-12" x1="-73" y1="71" x2=".44" y2="71">
</line>
<line class="cls-12" x1="-73" y1="67" x2=".44" y2="67">
</line>
<line class="cls-12" x1="-73" y1="63" x2=".44" y2="63">
</line>
<line class="cls-12" x1="-73" y1="59" x2=".44" y2="59">
</line>
<line class="cls-12" x1="-73" y1="55" x2=".44" y2="55">
</line>
<line class="cls-12" x1="-73" y1="51" x2=".44" y2="51">
</line>
<line class="cls-12" x1="-73" y1="47" x2=".44" y2="47">
</line>
<line class="cls-12" x1="-73" y1="43" x2=".44" y2="43">
</line>
<line class="cls-12" x1="-73" y1="39" x2=".44" y2="39">
</line>
<line class="cls-12" x1="-73" y1="35" x2=".44" y2="35">
</line>
<line class="cls-12" x1="-73" y1="31" x2=".44" y2="31">
</line>
<line class="cls-12" x1="-73" y1="27" x2=".44" y2="27">
</line>
<line class="cls-12" x1="-73" y1="23" x2=".44" y2="23">
</line>
<line class="cls-12" x1="-73" y1="19" x2=".44" y2="19">
</line>
<line class="cls-12" x1="-73" y1="15" x2=".44" y2="15">
</line>
<line class="cls-12" x1="-73" y1="11" x2=".44" y2="11">
</line>
<line class="cls-12" x1="-73" y1="7" x2=".44" y2="7">
</line>
<line class="cls-12" x1="-73" y1="3" x2=".44" y2="3">
</line>
<line class="cls-12" x1="-70.96" y1="69" x2="2.48" y2="69">
</line>
<line class="cls-12" x1="-70.96" y1="65" x2="2.48" y2="65">
</line>
<line class="cls-12" x1="-70.96" y1="61" x2="2.48" y2="61">
</line>
<line class="cls-12" x1="-70.96" y1="57" x2="2.48" y2="57">
</line>
<line class="cls-12" x1="-70.96" y1="53" x2="2.48" y2="53">
</line>
<line class="cls-12" x1="-70.96" y1="49" x2="2.48" y2="49">
</line>
<line class="cls-12" x1="-70.96" y1="45" x2="2.48" y2="45">
</line>
<line class="cls-12" x1="-70.96" y1="41" x2="2.48" y2="41">
</line>
<line class="cls-12" x1="-70.96" y1="37" x2="2.48" y2="37">
</line>
<line class="cls-12" x1="-70.96" y1="33" x2="2.48" y2="33">
</line>
<line class="cls-12" x1="-70.96" y1="29" x2="2.48" y2="29">
</line>
<line class="cls-12" x1="-70.96" y1="25" x2="2.48" y2="25">
</line>
<line class="cls-12" x1="-70.96" y1="21" x2="2.48" y2="21">
</line>
<line class="cls-12" x1="-70.96" y1="17" x2="2.48" y2="17">
</line>
<line class="cls-12" x1="-70.96" y1="13" x2="2.48" y2="13">
</line>
<line class="cls-12" x1="-70.96" y1="9" x2="2.48" y2="9">
</line>
<line class="cls-12" x1="-70.96" y1="5" x2="2.48" y2="5">
</line>
<line class="cls-12" x1="-70.96" y1="1" x2="2.48" y2="1">
</line>
</g>


</g>


</pattern>
</defs>
  <path
     style="opacity:1;vector-effect:none;fill:#cccccc;fill-opacity:1;fill-rule:nonzero;stroke:none;stroke-width:4.49546146;stroke-linecap:butt;stroke-linejoin:miter;stroke-miterlimit:4;stroke-dasharray:none;stroke-dashoffset:0;stroke-opacity:1"
     d="M -0.08007812,0.36132812 V 80.361328 H 68.919922 V 0.36132812 Z"
     id="rect4304"/>



<g >
<path class="cls-4" d="M62.01,71.77l-23.62,5.64-30.4-3.22v-7.6l15.08-7.26,.58-8.06s-.23-.58-1.84-3.23c-5.88-1.84-5.88-7.94-5.88-7.94l-1.15-.58,.71-3.23,.1-.46-1.94,1.73-.14,.12-1.72-2.77,3.94-6.4,.32-.51-2.48,.97-.17,.07-1.84-1.5,9.73-9.39,.29-.28-6.11,2.07-.34,.11s-.35-.57-.58-2.53c.02-.01,.03-.02,.05-.03,2.59-1.61,10.66-4,10.66-4l6.57,1.84,3.8-2.65,2.07,.58-.34,1.27,8.75,.11,1.84,1.38-1.03,1.04,5.87,1.15,2.88,4.15,.35,.92-1.85,.11,3.46,6.22-.58,2.65-1.72-.8,.46,3.45-.97,1.95-.3,.59s.34,1.61,.11,4.49c-.57,4.72-5.18,5.76-5.18,5.76l-1.96,2.65,.12,9.33,12.21,5.53,2.19,6.56Z">
</path>
<path class="cls-1" d="M35.61,55.2v-21.72c0-5.3,4.89-9.25,10.07-8.14l.32,.07,5.3,11.76-1.59,9.22-3.39,6.36-6.25,5.72h0c-2.21,.68-4.45-.97-4.45-3.28Z">
</path>
<path d="M57.05,32.26l-2.12-.91,.46,3.45-.97,1.95c-.48-.67-1.48-1.34-3.44-.42-2.71-6.3-3.15-7.25-3.15-7.25l-5.61-4.16,1.76,4.54-2.08,1.07-3.53-1.26-2.52-4.91-4.41,1.76-1.89,5.61-3.59-.44,1.32-5.42,2.33-1.7-6.24,2.39-2.14,6.68-2.21,2.27s-2.69-.2-3.05,4.28l-1.36-1.13,1.2-3.02-.72,.54-1.8,1.35-.04-.08-1.48-2.65,3.91-6.47-.35,.07-2.16,.46-.13,.03-.88-2.07,9.07-8.89-.34,.11-5.78,1.9-.04-.11-.87-2.45c2.59-1.61,10.66-4,10.66-4l6.57,1.84,3.8-2.65,2.07,.58-.34,1.27,9.36-.04,1.61,1.31-1.41,1.26,5.87,1.15,3.44,3.68-.21,1.39-1.85,.11,3.82,6.6-.53,2.39Z">
</path>
<path class="cls-3" d="M31.08,40.73s-3.08-1.83-7.14-.26c2.49,1.44,3.34,1.96,3.34,1.96,0,0,3.86-.2,3.8-1.7Z">
</path>
<path class="cls-3" d="M48.17,40.35s-4.25-1.53-8.28,.87c3.32,1.04,4.41,.65,4.41,.65,0,0,2.29-.44,3.87-1.53Z">
</path>
<path class="cls-4" d="M31.62,41.27l.99-4.98s-4.37-1.71-6.75-1.22-3.74,1.71-3.74,1.71l.05,3.69s3.02-.63,4.73-.59,4.73,1.38,4.73,1.38Z">
</path>
<path class="cls-4" d="M39.73,41.27l-.99-4.98s4.37-1.71,6.75-1.22,3.74,1.71,3.74,1.71l-.05,3.69s-3.02-.63-4.73-.59-4.73,1.38-4.73,1.38Z">
</path>
<path class="cls-17" d="M8.93,65.94l10.38-4.25s2.67,7.71,15.62,8.01,15.62-7.12,16.12-8.5c5.14,2.18,9.59,4.05,9.59,4.05l-1.19,9-26.21,2.97-24.52-4.85,.2-6.43Z">
</path>
<polygon points="46.32 52.76 28.96 74.66 10.74 71.22 9.28 66.14 23.34 59.79 23.79 50.63 28.33 56.16 31.68 58.97 35.61 59.86 40.06 58.48 46.32 52.76">
</polygon>
<path class="cls-4" d="M35.09,26.22l2.18,4.11c.19,.33,.48,.57,.85,.69l3.37,1.07c.15,.05,.31,.08,.47,.08,.25,0,.49-.06,.67-.16l2.29-1.15c.53-.25,.84-.78,.85-1.33l.91,.74,2.97,6.83-1.26,9.02c-.73,1.41-3.77,6.91-8.56,10.6-1.08,.77-2.53,1.28-4.3,1.51-1.77-.23-3.21-.73-4.25-1.47-4.94-3.8-8.02-9.48-8.61-10.63l-1.5-10.84,.98-.98c.14-.14,.25-.31,.33-.49v-.03s.02-.03,.02-.03l2.26-6.22,.55-.23-1.12,3.97c-.15,.46-.07,.96,.22,1.35,.27,.36,.68,.58,1.15,.61l3.96,.17s.09,0,.13,0c.63,0,1.19-.41,1.39-1.01l1.74-5.09,2.31-1.08m.44-1.31l-3.56,1.66-1.88,5.49c-.06,.19-.24,.33-.44,.33-.02,0-.04,0-.06,0l-3.99-.17c-.16-.01-.3-.09-.39-.21s-.12-.28-.07-.43l1.6-5.68c.02-.1,.08-.18,.15-.25l.22-.19-3.14,1.31-2.41,6.63c-.03,.07-.07,.13-.12,.18l-1.36,1.36s.04,.07,.05,.11l1.57,11.36c.36,.72,3.56,6.96,8.97,11.12,1.23,.88,2.87,1.45,4.86,1.69,1.99-.24,3.63-.81,4.88-1.7,5.39-4.15,8.59-10.4,8.95-11.11l1.32-9.47-3.18-7.31-4.29-3.49,1.51,3.14c.12,.25,.02,.54-.23,.66l-2.31,1.16c-.07,.04-.14,.05-.22,.05-.05,0-.1,0-.15-.02l-3.38-1.07c-.12-.04-.22-.12-.29-.24l-2.61-4.91h0Z">
</path>
<path d="M20.04,36.54s-1.4-1.66-2.96-.31c-1.61,1.35-.73,6.49,.26,8.2s3.53,3.17,4.52,3.43c-.64-1.3-.57-1.56-.57-1.56l-1.25-9.76Z">
</path>
<path class="cls-15" d="M35.36,72.05s14.63-.28,17.04-8.33c4.54,2.13,8.52,4.17,8.52,4.17l-1.57,5.74-23.98,1.94v-3.52Z">
</path>
<path class="cls-1" d="M23.98,42.99s2.89,1.66,6.71,.14c-3.25,4.26-4.33,2.89-6.71-.14Z">
</path>
<path class="cls-2" d="M40.58,43.35s3.9,2.16,8.15-.94c-3.97,5.77-6.28,3.39-8.15,.94Z">
</path>
<path class="cls-1" d="M51.68,36.28s2.88,2.27,1.21,9.16c3.03-5.3,1.82-11.74-1.21-9.16Z">
</path>
<path class="cls-9" d="M15.94,40.24l-1.42-1.24,1.33-3.73-2.49,2.22-1.87-2.84,4.71-6.93-2.93,1.51-1.51-2.22s4-4.8,10.13-9.5c-.36,0-6.84,2.58-6.84,2.58l-.89-2.49s2.13-2.22,10.84-4.09c2.66,.18,6.75,1.51,6.75,1.51l4.09-2.75,1.87,.89-.89,1.24h9.77l1.69,1.6-1.69,.98,6.22,.98,3.11,4-.09,1.87-2.31-1.24,4.26,7.55-.62,2.4-2.31-1.6,1.07,4.09-1.37,2.35">
</path>
<polyline class="cls-9" points="18.78 35.54 21.09 33.23 23.57 26.39 29.79 23.81 27.22 26.03 25.62 31.72 29.61 31.89 31.57 26.21 35.74 24.26 38.59 29.59 41.96 30.65 44.27 29.5 41.78 24.35 47.91 29.32 51.2 36.87">
</polyline>
<path class="cls-9" d="M51.2,36.87l-1.36,9.69s-3.26,6.84-9.14,11.37c-1.42,1.01-3.24,1.57-5.17,1.79-1.93-.22-3.75-.78-5.17-1.79-5.88-4.53-9.14-11.37-9.14-11.37l-1.59-11.44">
</path>
<path class="cls-9" d="M19.8,36.5s-1.07-1.62-2.55-.43c-1.84,1.49-1.77,10.35,4.4,11.7">
</path>
<path class="cls-9" d="M51.14,36.5s1.07-1.62,2.55-.43c1.84,1.49,1.77,10.35-4.4,11.7">
</path>
<path d="M32.19,37.41s-4.2-1.51-6.08-1.45-3.98,.86-3.98,.86c0,0,1.94-2.74,4.95-2.96s5.92,1.51,5.92,1.51l-.81,2.05Z">
</path>
<path d="M30.94,41.01c-2.31-1.13-5.07-.95-7.43-.05,0,0,.06-.91,.06-.91,1.11,.52,2.37,1.15,3.52,1.54,.67-.04,2.68-.15,3.73-.58,0,0,.12-.04,.12-.04-.01,.01,0,.03,.01,.04h0Zm.33-.65c.53,.24,.5,1.07-.02,1.29-1.37,.56-2.79,.85-4.27,.94-1.4-.34-2.59-1.03-3.87-1.65,0,0-1.04-.55-1.04-.55,2.92-1.11,6.32-1.54,9.19-.03h0Z">
</path>
<path d="M39.13,37.41s4.2-1.51,6.08-1.45,3.98,.86,3.98,.86c0,0-1.94-2.74-4.95-2.96s-5.92,1.51-5.92,1.51l.81,2.05Z">
</path>
<path d="M40.04,40.36c2.87-1.51,6.27-1.07,9.19,.03,0,0-1.04,.55-1.04,.55-1.28,.62-2.46,1.31-3.86,1.65-1.48-.09-2.9-.38-4.27-.94-.52-.23-.55-1.05-.02-1.29h0Zm.33,.65s.02-.03,.01-.04c0,0,.12,.04,.12,.04,1.04,.43,3.06,.54,3.73,.58,1.15-.39,2.4-1.02,3.52-1.54,0,0,.06,.91,.06,.91-2.37-.9-5.12-1.08-7.43,.05h0Z">
</path>
<path d="M38.45,43.56c3.63,2.44-.58,3.76-2.96,3.59-1.3-.04-4.18-.05-4.37-1.87,.1-.8,.82-1.34,1.41-1.72-.36,.56-1.1,1.32-.72,1.93,.98,.76,2.4,.62,3.68,.66,1.09,.01,2.19-.01,3.13-.33,1.27-.36,.35-1.57-.18-2.26h0Z">
</path>
<path d="M36.41,51.96h3.14s2.37,1.3,2.37,1.3c0,0-.77-1.54-3.17-3.08-1.39-.18-2.4-.18-2.4-.18h-1.6s-1.01,0-2.4,.18c-2.4,1.54-3.17,3.08-3.17,3.08l2.37-1.3h4.86Z">
</path>
<path d="M38.68,53.9c-.31,.47-.69,.84-1.11,1.17-.67,.17-1.35,.27-2.02,.27-.67,0-1.35-.11-2.02-.28-.43-.33-.8-.7-1.11-1.17,0,0,.04-.09,.04-.09l1.37,.57c.96-.04,2.48-.04,3.44,0,0,0,1.37-.57,1.37-.57,0,0,.04,.09,.04,.09h0Z">
</path>
<path d="M19.7,44.97c.35,1.75-.45,3.51,.07,5.12,0,0-.21-.08-.21-.08-.18-.04-.23,.08-.18,0,.47-.72,.64-1.68,.88-2.52,0,0,.99,.16,.99,.16-.1,.92-.25,1.81-.64,2.67-.23,.47-.6,.99-1.36,.86,0,0-.09-.06-.09-.06-.7-.54-.68-1.16-.71-1.84,.07-1.54,.29-3.05,1.26-4.32h0Z">
</path>
<path d="M51.7,44.56c.63,1.33,1.42,2.79,.95,4.31-.92,1.36-1.79-.84-2.21-1.49-.32-.58,.56-1.06,.88-.49,.2,.62,.45,1.26,.76,1.67-.02,0-.1,0-.14,.02-.01,0,0,0,0,0,.29-.63-.15-1.51-.33-2.19-.15-.52-.36-1.04-.54-1.55-.06-.18,.03-.37,.21-.43,.16-.05,.32,.01,.4,.15h0Z">
</path>
<path d="M52.76,43.41c1.04,1.04,2.27,2.16,2.34,3.75-.41,1.59-1.97-.19-2.58-.67-.49-.43,.18-1.19,.67-.75,.4,.53,.84,1.03,1.27,1.32-.02,0-.09,.03-.12,.07-.01,.01,0,0,0,0,.06-.69-.65-1.37-1.04-1.96-.32-.44-.69-.85-1.03-1.28-.12-.15-.09-.36,.06-.47,.13-.1,.31-.09,.43,0h0Z">
</path>
<line class="cls-8" x1="23.35" y1="50.22" x2="23.35" y2="61.92">
</line>
<path class="cls-8" d="M8.44,66.39c.19-.13,14.85-6.79,14.85-6.79">
</path>
<line class="cls-8" x1="47.76" y1="50.22" x2="47.76" y2="61.92">
</line>
<path class="cls-8" d="M62.67,66.39c-.19-.13-14.85-6.79-14.85-6.79">
</path>
<path class="cls-8" d="M51.05,61.2s-.53,7.82-15.31,8.48h-.67c-14.78-.66-15.31-8.48-15.31-8.48">
</path>
<g >
<line class="cls-8" x1="13.86" y1="64.06" x2="13.86" y2="72.43">
</line>
<line class="cls-8" x1="17.82" y1="62.41" x2="17.82" y2="72.43">
</line>
<line class="cls-8" x1="21.79" y1="65.14" x2="21.79" y2="73.89">
</line>
<line class="cls-8" x1="25.75" y1="67.88" x2="25.75" y2="74.5">
</line>
<line class="cls-8" x1="29.71" y1="69.09" x2="29.71" y2="76.22">
</line>
<line class="cls-8" x1="33.67" y1="69.75" x2="33.67" y2="76.52">
</line>
<line class="cls-8" x1="37.64" y1="69.59" x2="37.64" y2="76.98">
</line>
<line class="cls-8" x1="41.6" y1="69.09" x2="41.6" y2="76.98">
</line>
<line class="cls-8" x1="45.56" y1="67.72" x2="45.56" y2="74.75">
</line>
<line class="cls-8" x1="49.53" y1="64.54" x2="49.53" y2="74.25">
</line>
<line class="cls-8" x1="53.49" y1="62.33" x2="53.49" y2="72.43">
</line>
<line class="cls-8" x1="57.45" y1="64.08" x2="57.45" y2="72.43">
</line>
</g>


<path class="cls-15" d="M24.6,55.86c.35,1.51,.56,3.04,.67,4.58-2.54,1.52-5.26,2.81-8.01,3.89-1.56,.54-3.24,1.16-4.87,1.49,0,0-.04-.09-.04-.09,3.96-1.83,8.36-4.09,12.13-5.67,0,0,.02-4.2,.02-4.2h.1Z">
</path>
<path class="cls-4" d="M19.78,19.6c-2.11,2.53-4.35,4.94-6.61,7.34,0,0,.12-.81,.12-.81,.38,.64,.78,1.28,1.15,1.93,0,0-.87-.38-.87-.38,1.29-.34,4.15-1.15,5.42-1.48-.77,1.15-2.81,4.18-3.6,5.37-.77,1.18-1.61,2.32-2.43,3.48l.05-.91,1.14,2.16-1.19-.27c1-.7,3.2-2.23,4.18-2.91-.38,1.86-.87,3.9-1.36,5.72,0,0-.23-.65-.23-.65,.08,.08,1.6,1.37,1.63,1.39,.14,1.16,.57,2.36,1.12,3.41,.55,1.02,1.37,1.88,2.37,2.54,0,0-.04,.09-.04,.09-1.09-.53-2.02-1.37-2.69-2.39-.63-.94-1.23-2.35-1.36-3.3,0,0-1.49-1.18-1.49-1.18-.04-.03-.04-.02-.03-.07,0,0,.81-3.81,.81-3.81l.13,.08-2.52,1.8-.08,.06s-.05-.09-.05-.09l-1.18-2.14-.03-.05s4.83-6.97,4.86-7.02c0,0,.09,.13,.09,.13l-3.31,.85c-.07,.02-.06,.02-.09-.04,0,0-1.06-1.98-1.06-1.98,0,0-.03-.05-.03-.05,.03-.04,7.07-6.87,7.1-6.91,0,0,.07,.07,.07,.07h0Z">
</path>
</g>





  <path
     style="opacity:1;vector-effect:none;fill:#8d5fd3;fill-opacity:1;fill-rule:nonzero;stroke:none;stroke-width:2.35769176;stroke-linecap:butt;stroke-linejoin:miter;stroke-miterlimit:4;stroke-dasharray:none;stroke-dashoffset:0;stroke-opacity:0.44186048"
     d="M 0,1.2e-7 V 80 H 69 V 1.2e-7 Z M 35.240234,4.658203 c 6.067554,0.1120422 16.269844,1.4698438 23.589844,3.8398438 3.46,9.2400002 5.269531,19.9506252 5.269531,31.1406252 0,11.47 -1.89,22.390234 -5.5,31.740234 -7.2,2.16 -14.940375,3.376539 -23.019531,3.259766 -8.580486,-0.124019 -18.036001,-1.572896 -25.240234,-3.86914 -3.4500003,-9.22 -5.2597659,-19.930859 -5.2597659,-31.130859 0,-11.2 1.8904687,-22.380469 5.4804689,-31.730469 C 17.682894,5.1336941 29.17268,4.5461608 35.240234,4.658203 Z"
     id="rect4304" />


</svg>
