<svg id="Capa_2" xmlns="http://www.w3.org/2000/svg" xmlns:xlink="http://www.w3.org/1999/xlink" viewBox="0 0 69.02 80">
<defs >
<style >
.cls-1{fill:#000000;}.cls-2{fill:#000;}.cls-3{fill:#000000;}.cls-4{fill:#000000;}.cls-5{fill:#000000;}.cls-6{fill:#000000;}.cls-7,.cls-8,.cls-9,.cls-10,.cls-11,.cls-12{fill:none;}.cls-7,.cls-8,.cls-12{stroke:#000;stroke-miterlimit:10;}.cls-8,.cls-9{stroke-linecap:round;}.cls-9{stroke:#000000;stroke-dasharray:0 0 0 4.06;stroke-linejoin:round;}.cls-13{fill:#000000;}.cls-14{fill:url(#USGS_19_Inundación_de_tierra_2);}.cls-11{stroke:#000000;stroke-dasharray:0 0 2 2;stroke-width:.3px;}.cls-15{fill:#000000;}.cls-16{fill:#000000;}.cls-12{stroke-width:.5px;}.cls-17{fill:#000000;}
</style>
<pattern id="USGS_19_Inundación_de_tierra_2" x="0" y="0" width="72" height="72" patternTransform="translate(123.52 -17071) rotate(-90)" patternUnits="userSpaceOnUse" viewBox="0 0 72 72">
<g >
<rect class="cls-10" width="72" height="72">
</rect>
<g >
<line class="cls-11" x1="71" y1="71" x2="144.44" y2="71">
</line>
<line class="cls-11" x1="71" y1="67" x2="144.44" y2="67">
</line>
<line class="cls-11" x1="71" y1="63" x2="144.44" y2="63">
</line>
<line class="cls-11" x1="71" y1="59" x2="144.44" y2="59">
</line>
<line class="cls-11" x1="71" y1="55" x2="144.44" y2="55">
</line>
<line class="cls-11" x1="71" y1="51" x2="144.44" y2="51">
</line>
<line class="cls-11" x1="71" y1="47" x2="144.44" y2="47">
</line>
<line class="cls-11" x1="71" y1="43" x2="144.44" y2="43">
</line>
<line class="cls-11" x1="71" y1="39" x2="144.44" y2="39">
</line>
<line class="cls-11" x1="71" y1="35" x2="144.44" y2="35">
</line>
<line class="cls-11" x1="71" y1="31" x2="144.44" y2="31">
</line>
<line class="cls-11" x1="71" y1="27" x2="144.44" y2="27">
</line>
<line class="cls-11" x1="71" y1="23" x2="144.44" y2="23">
</line>
<line class="cls-11" x1="71" y1="19" x2="144.44" y2="19">
</line>
<line class="cls-11" x1="71" y1="15" x2="144.44" y2="15">
</line>
<line class="cls-11" x1="71" y1="11" x2="144.44" y2="11">
</line>
<line class="cls-11" x1="71" y1="7" x2="144.44" y2="7">
</line>
<line class="cls-11" x1="71" y1="3" x2="144.44" y2="3">
</line>
</g>


<g >
<line class="cls-11" x1="-1" y1="71" x2="72.44" y2="71">
</line>
<line class="cls-11" x1="-1" y1="67" x2="72.44" y2="67">
</line>
<line class="cls-11" x1="-1" y1="63" x2="72.44" y2="63">
</line>
<line class="cls-11" x1="-1" y1="59" x2="72.44" y2="59">
</line>
<line class="cls-11" x1="-1" y1="55" x2="72.44" y2="55">
</line>
<line class="cls-11" x1="-1" y1="51" x2="72.44" y2="51">
</line>
<line class="cls-11" x1="-1" y1="47" x2="72.44" y2="47">
</line>
<line class="cls-11" x1="-1" y1="43" x2="72.44" y2="43">
</line>
<line class="cls-11" x1="-1" y1="39" x2="72.44" y2="39">
</line>
<line class="cls-11" x1="-1" y1="35" x2="72.44" y2="35">
</line>
<line class="cls-11" x1="-1" y1="31" x2="72.44" y2="31">
</line>
<line class="cls-11" x1="-1" y1="27" x2="72.44" y2="27">
</line>
<line class="cls-11" x1="-1" y1="23" x2="72.44" y2="23">
</line>
<line class="cls-11" x1="-1" y1="19" x2="72.44" y2="19">
</line>
<line class="cls-11" x1="-1" y1="15" x2="72.44" y2="15">
</line>
<line class="cls-11" x1="-1" y1="11" x2="72.44" y2="11">
</line>
<line class="cls-11" x1="-1" y1="7" x2="72.44" y2="7">
</line>
<line class="cls-11" x1="-1" y1="3" x2="72.44" y2="3">
</line>
<line class="cls-11" x1="1.04" y1="69" x2="74.48" y2="69">
</line>
<line class="cls-11" x1="1.04" y1="65" x2="74.48" y2="65">
</line>
<line class="cls-11" x1="1.04" y1="61" x2="74.48" y2="61">
</line>
<line class="cls-11" x1="1.04" y1="57" x2="74.48" y2="57">
</line>
<line class="cls-11" x1="1.04" y1="53" x2="74.48" y2="53">
</line>
<line class="cls-11" x1="1.04" y1="49" x2="74.48" y2="49">
</line>
<line class="cls-11" x1="1.04" y1="45" x2="74.48" y2="45">
</line>
<line class="cls-11" x1="1.04" y1="41" x2="74.48" y2="41">
</line>
<line class="cls-11" x1="1.04" y1="37" x2="74.48" y2="37">
</line>
<line class="cls-11" x1="1.04" y1="33" x2="74.48" y2="33">
</line>
<line class="cls-11" x1="1.04" y1="29" x2="74.48" y2="29">
</line>
<line class="cls-11" x1="1.04" y1="25" x2="74.48" y2="25">
</line>
<line class="cls-11" x1="1.04" y1="21" x2="74.48" y2="21">
</line>
<line class="cls-11" x1="1.04" y1="17" x2="74.48" y2="17">
</line>
<line class="cls-11" x1="1.04" y1="13" x2="74.48" y2="13">
</line>
<line class="cls-11" x1="1.04" y1="9" x2="74.48" y2="9">
</line>
<line class="cls-11" x1="1.04" y1="5" x2="74.48" y2="5">
</line>
<line class="cls-11" x1="1.04" y1="1" x2="74.48" y2="1">
</line>
</g>


<g >
<line class="cls-11" x1="-73" y1="71" x2=".44" y2="71">
</line>
<line class="cls-11" x1="-73" y1="67" x2=".44" y2="67">
</line>
<line class="cls-11" x1="-73" y1="63" x2=".44" y2="63">
</line>
<line class="cls-11" x1="-73" y1="59" x2=".44" y2="59">
</line>
<line class="cls-11" x1="-73" y1="55" x2=".44" y2="55">
</line>
<line class="cls-11" x1="-73" y1="51" x2=".44" y2="51">
</line>
<line class="cls-11" x1="-73" y1="47" x2=".44" y2="47">
</line>
<line class="cls-11" x1="-73" y1="43" x2=".44" y2="43">
</line>
<line class="cls-11" x1="-73" y1="39" x2=".44" y2="39">
</line>
<line class="cls-11" x1="-73" y1="35" x2=".44" y2="35">
</line>
<line class="cls-11" x1="-73" y1="31" x2=".44" y2="31">
</line>
<line class="cls-11" x1="-73" y1="27" x2=".44" y2="27">
</line>
<line class="cls-11" x1="-73" y1="23" x2=".44" y2="23">
</line>
<line class="cls-11" x1="-73" y1="19" x2=".44" y2="19">
</line>
<line class="cls-11" x1="-73" y1="15" x2=".44" y2="15">
</line>
<line class="cls-11" x1="-73" y1="11" x2=".44" y2="11">
</line>
<line class="cls-11" x1="-73" y1="7" x2=".44" y2="7">
</line>
<line class="cls-11" x1="-73" y1="3" x2=".44" y2="3">
</line>
<line class="cls-11" x1="-70.96" y1="69" x2="2.48" y2="69">
</line>
<line class="cls-11" x1="-70.96" y1="65" x2="2.48" y2="65">
</line>
<line class="cls-11" x1="-70.96" y1="61" x2="2.48" y2="61">
</line>
<line class="cls-11" x1="-70.96" y1="57" x2="2.48" y2="57">
</line>
<line class="cls-11" x1="-70.96" y1="53" x2="2.48" y2="53">
</line>
<line class="cls-11" x1="-70.96" y1="49" x2="2.48" y2="49">
</line>
<line class="cls-11" x1="-70.96" y1="45" x2="2.48" y2="45">
</line>
<line class="cls-11" x1="-70.96" y1="41" x2="2.48" y2="41">
</line>
<line class="cls-11" x1="-70.96" y1="37" x2="2.48" y2="37">
</line>
<line class="cls-11" x1="-70.96" y1="33" x2="2.48" y2="33">
</line>
<line class="cls-11" x1="-70.96" y1="29" x2="2.48" y2="29">
</line>
<line class="cls-11" x1="-70.96" y1="25" x2="2.48" y2="25">
</line>
<line class="cls-11" x1="-70.96" y1="21" x2="2.48" y2="21">
</line>
<line class="cls-11" x1="-70.96" y1="17" x2="2.48" y2="17">
</line>
<line class="cls-11" x1="-70.96" y1="13" x2="2.48" y2="13">
</line>
<line class="cls-11" x1="-70.96" y1="9" x2="2.48" y2="9">
</line>
<line class="cls-11" x1="-70.96" y1="5" x2="2.48" y2="5">
</line>
<line class="cls-11" x1="-70.96" y1="1" x2="2.48" y2="1">
</line>
</g>


</g>


</pattern>
</defs>
  <path
     id="circle1849"
     style="fill:#AA00DD;stroke:#000000;stroke-width:2"
     d="M 34.875,3.84375 C 30.2026,3.8566827 25.91896,6.4477515 23.738281,10.580078 21.63936,9.1446679 19.156089,8.3761337 16.613281,8.375 9.636905,8.3755251 3.9818685,14.031436 3.9824219,21.007812 c 0.012178,4.019812 1.9368978,7.79383 5.1835937,10.164063 -1.8357739,2.246976 -2.8420262,5.057448 -2.8496094,7.958984 0.00713,1.935325 0.4588528,3.843134 1.3203126,5.576172 -2.4145566,2.364898 -3.7807042,5.598771 -3.7929688,8.978516 0.00466,4.996359 2.9538661,9.520462 7.523438,11.541015 0.767283,6.336372 6.140784,11.10481 12.523437,11.113282 3.186693,-0.0091 6.252191,-1.222333 8.582031,-3.396485 1.867081,1.045968 3.9693,1.600422 6.109375,1.611329 2.723791,-0.01118 5.371006,-0.902492 7.546875,-2.541016 1.56279,0.673484 3.245549,1.024252 4.947266,1.03125 6.977139,5.53e-4 12.633366,-5.655674 12.632812,-12.632813 -0.0013,-2.652818 -0.837669,-5.237911 -2.390625,-7.388671 2.480721,-2.37284 3.888874,-5.653124 3.900391,-9.085938 -9.13e-4,-3.96978 -1.867955,-7.708203 -5.041016,-10.09375 2.59288,-2.385063 4.071919,-5.744584 4.080078,-9.267578 C 64.257287,17.599796 58.601376,11.944759 51.625,11.945312 50.032147,11.955601 48.455612,12.267065 46.978516,12.863281 45.38146,7.5117456 40.459758,3.8440964 34.875,3.84375 Z"/>





<g >
<path class="cls-4" d="M17.89,34.06s-.48-1.73-.48-3.08c-2.12-3.17-.29-5.87-.29-5.87,0,0-1.25-2.6,.19-4.81,.38-4.62,3.46-4.42,3.46-4.42,0,0,.87-3.85,5.39-4.23,2.6-2.89,5.77-1.35,5.77-1.35,0,0,.58-2.21,4.04-.67,2.89-1.15,3.94,.48,3.94,.48,0,0,3.94-.87,5.48,1.54,4.14,0,5.39,3.37,5.48,4.23,3.75,.87,3.37,4.33,3.37,4.33,0,0,1.44,2.31,.67,5.1,1.64,3.66-.48,5.87-.48,5.87,0,0-.1,2.21-.87,3.08,1.73,2.12-.38,8.85-3.27,9.62-.67,4.71-.77,5.58-.77,5.58,0,0,5.48,2.79,6.35,5.39,.67,2.79,.29,5,.29,5l6.93,2.6-2.5,11.83-26.74,3.46-25.3-4.33-.87-9.52,8.75-4.81s-.87-2.98,.1-4.52,5.96-4.62,5.96-4.62l-.96-5.96s-2.6-1.35-3.37-3.56-.77-5-.29-6.35Z">
</path>
<path class="cls-1" d="M35.77,41.45v-12.61c0-5.61,5.41-9.8,10.76-8.12,.57,.18,1.11,.38,1.61,.61,2.41,5.65,3.43,9.33,3.3,11.11s-.76,3.68-.76,3.68l-.38,3.93-5.77,9.46-4.82-3.87h0c-2.21-.14-3.93-1.98-3.93-4.2Z">
</path>
<path d="M21.49,39.1l3.9,5.24,1.92,3.71,3.32-3.07,3.9-.96,3.45,.19,3.45,.7,3.2,3.26,2.24-4.22,3.39-4.28s-.26,8.5-1.6,11.57c-3.39,4.66-7.22,8.37-13.1,8.31s-12.72-8.18-12.72-8.18l-1.34-12.27Z">
</path>
<path class="cls-4" d="M36.1,44.03v3.98h3.7l1.65,1.47s-1.99,1.99-5.35,1.84v8.5s9.26-2.83,12.46-7.97c1.57-4.93,1.69-12.16,1.69-12.16l-3.39,4.28-2.24,4.22-3.29-3.05-5.24-1.1Z">
</path>
<path class="cls-1" d="M30.21,49.21s1.55-1.29,2.37-1.51,5.77,.09,7.27,.13c1.33,.86,1.85,1.46,1.85,1.46,0,0-.74,1.86-6.46,1.76-3.08-.05-5.04-1.85-5.04-1.85Z">
</path>
<path class="cls-17" d="M22.72,49.64s-5.49,2.45-6.6,6.45c-.3,2.3,.3,3.56,.3,3.56l-8.97,4.01,1.26,10.24,29,3.86,22.03-3.56,2.23-11.94-5.79-2.42s.54-2.33-.29-5-6.76-5.12-6.76-5.12l-.67,2.89,.07,8.08-12.46,9.05-12.61-9.05,.15-8.16-.89-2.89Z">
</path>
<path class="cls-3" d="M31.9,36.7s-4.36-1.13-6.71,0c.03,.93,1.18,1.76,4.32,2.32,1.62-.99,2.38-2.32,2.38-2.32Z">
</path>
<path class="cls-3" d="M39.9,36.7s4.36-1.13,6.71,0c-.03,.93-1.18,1.76-4.32,2.32-1.62-.99-2.38-2.32-2.38-2.32Z">
</path>
<path class="cls-4" d="M32.44,36.48l.98-2.75-3.9-1.99-3.07,.03-3.69,1.46,1.71,3.8s1.6-.77,3.41-.8,4.56,.24,4.56,.24Z">
</path>
<path class="cls-4" d="M39.5,36.48l-.98-2.75,3.9-1.99,3.07,.03,3.69,1.46-1.71,3.8s-1.6-.77-3.41-.8-4.56,.24-4.56,.24Z">
</path>
<path class="cls-2" d="M33.54,49.48l5.47-.77,.91,.55s-3.06,1.06-6.38,.22Z">
</path>
<path class="cls-1" d="M47.23,55.27s-8.11,7.84-10.9,12.61c5.49-4.14,10.81-7.93,10.81-7.93l.09-4.68Z">
</path>
<path d="M18.19,33.55s-.76,2.32-.38,4.3,1.22,4.38,2.07,5.02,2.02,.89,2.02,.89l-.55-7-3.16-3.2Z">
</path>
<path class="cls-4" d="M22.45,44.4c.66,1.59,1.19,3.41,1.68,5.06,.17,.54,.35,1.11,.53,1.51l-.03-.07c.3,.43,.79,.97,1.3,1.44,.96,.87,2.25,2.12,3.2,2.98,.53,.53,1.07,1.04,1.58,1.61l-.05,.08c-2.42-1.68-5.12-3.22-6.88-5.64-.82-2.25-1.07-4.62-1.43-6.97,0,0,.1-.01,.1-.01h0Z">
</path>
<path d="M41.81,57.95l-13.56,16.33s-13.74-.6-17.36-3.46c-1.73-3.71-2.59-7.17-2.59-7.17l8.13-4s-1.3-3.87,.86-6.02,4.42-3.6,5.23-3.7c.73,2.41,1.94,3.27,3.23,4.65s6.91,4.84,10.37,4.67,5.7-1.3,5.7-1.3Z">
</path>
<path class="cls-15" d="M42.72,67.46c-.29,.05,8.3-7.38,11.26-7.66-2.21,4.71-4.98,6.46-11.26,7.66Z">
</path>
<path class="cls-15" d="M56.37,62.39s-2.49,7.2-14.49,8.03c2.86,6.83,13.01,6,13.01,6l7.2-6.83,.09-4.98s-3.69-1.75-5.81-2.21Z">
</path>
<path class="cls-4" d="M36.6,19.84v1.5c3.86,0,7.42,.43,10.61,1.29,.45,1.48,1.45,4.77,2.12,7.33,.41,1.55,.44,3.21,.08,4.8-.25,1.08-.3,1.51-.31,1.59v.04s0,.04,0,.04c-.19,3.2-.88,11.92-1.83,14.51-2.07,3.15-5.23,5.43-9.16,6.59-.73,.21-1.48,.32-2.23,.32s-1.5-.11-2.22-.32c-3.94-1.16-7.1-3.44-9.17-6.59-.96-2.59-1.65-11.31-1.84-14.51v-.03s0-.03,0-.03c0-.08-.06-.52-.31-1.61-.36-1.6-.33-3.26,.08-4.8,.67-2.54,1.66-5.79,2.11-7.28,1.8-.41,6.49-1.33,12.08-1.33v-1.5m0,0c-7.43,0-13.26,1.57-13.26,1.57,0,0-1.46,4.7-2.38,8.16-.48,1.81-.5,3.7-.09,5.52,.24,1.06,.28,1.43,.28,1.43,0,0,.7,11.93,1.99,15.11,2.24,3.5,5.71,6.05,10.09,7.34,.86,.25,1.75,.38,2.65,.38s1.79-.13,2.66-.39c4.38-1.3,7.84-3.85,10.08-7.34,1.29-3.18,1.99-15.11,1.99-15.11,0,0,.04-.37,.28-1.42,.41-1.82,.39-3.71-.09-5.52-.92-3.46-2.38-8.17-2.38-8.17-3.98-1.18-8.09-1.57-11.81-1.57h0Z">
</path>
<path class="cls-2" d="M41.03,23.13l-1.89,6.25,6.01-.33,3.05,2.3s-.49-8.23-7.16-8.23Z">
</path>
<path class="cls-2" d="M41.69,40.66l5.76-1.89s-.74,3.21-2.88,4.53c-2.96-.82-2.88-2.63-2.88-2.63Z">
</path>
<path class="cls-1" d="M31.61,39.89l-2.15,1.26-4.67-1.79,4.22,4.4s2.06-1.97,2.6-3.86Z">
</path>
<path class="cls-8" d="M48.4,21.41s1.46,4.71,2.38,8.17c.48,1.81,.5,3.7,.09,5.52-.24,1.06-.28,1.42-.28,1.42,0,0-.7,11.93-1.99,15.11-2.24,3.49-5.7,6.04-10.08,7.34-1.73,.51-3.57,.51-5.3,0-4.38-1.29-7.84-3.84-10.09-7.34-1.29-3.18-1.99-15.11-1.99-15.11,0,0-.04-.37-.28-1.43-.41-1.82-.39-3.71,.09-5.52,.92-3.46,2.38-8.16,2.38-8.16,0,0,13.13-3.53,25.07,0Z">
</path>
<path class="cls-8" d="M50.84,36.52s3.49-1.81,3.49-5.43c2.06-2.84,.36-5.97,.36-5.97,0,0,.92-3.2-.43-5.11,0-2.84-2.06-3.98-3.41-4.33-.57-3.2-4.05-4.12-5.26-3.76-2.06-3.05-5.47-1.85-5.47-1.85,0,0-1.85-1.63-4.26-.57-2.41-1.07-4.26,.57-4.26,.57,0,0-3.41-1.21-5.47,1.85-1.21-.36-4.69,.57-5.26,3.76-1.35,.36-3.41,1.49-3.41,4.33-1.35,1.92-.43,5.11-.43,5.11,0,0-1.7,3.12,.36,5.97,0,3.62,3.49,5.43,3.49,5.43">
</path>
<path class="cls-8" d="M17.91,34.01s-.69,1.7-.13,3.96,1.57,5.54,3.84,5.72">
</path>
<path class="cls-8" d="M53.77,34.01s.69,1.7,.13,3.96-1.57,5.54-3.84,5.72">
</path>
<path d="M33.38,30.77s.39,1.62-.06,3.12c-4.07-.89-6.24-1.56-6.24-1.56l-4.35,.89s2.79-2.28,4.18-2.73c4.23-.28,6.46,.28,6.46,.28Z">
</path>
<path d="M38.58,30.77s-.39,1.62,.06,3.12c4.07-.89,6.24-1.56,6.24-1.56l4.35,.89s-2.79-2.28-4.18-2.73c-4.23-.28-6.46,.28-6.46,.28Z">
</path>
<path d="M24.34,37.16c2.26-2.1,5.49-1.47,8.24-1.01,0,0-.12,.49-.12,.49-.39,1.4-1.62,2.23-2.86,2.76-.78-.11-1.54-.31-2.26-.63-.67-.33-1.32-.72-1.8-1.29,1.23,.74,2.63,1.02,4.03,1.08,0,0-.22,.04-.22,.04,.72-.39,1.36-.88,1.82-1.54,.13-.19,.26-.47,.29-.6l.4,.58c-2.53-.45-5.12-1.09-7.54,.11h0Z">
</path>
<path d="M47.59,37.16c-2.42-1.21-5.01-.56-7.54-.11,0,0,.4-.58,.4-.58,.03,.13,.15,.41,.29,.6,.46,.66,1.1,1.14,1.82,1.54,0,0-.22-.04-.22-.04,1.4-.06,2.81-.34,4.03-1.08-.47,.57-1.13,.96-1.8,1.29-.71,.32-1.48,.52-2.26,.63-1.24-.53-2.47-1.37-2.86-2.76,0,0-.12-.49-.12-.49,2.75-.46,5.99-1.09,8.24,1.01h0Z">
</path>
<path d="M32.75,41.71c-.08,.44-.2,.85-.33,1.26l.02-.4c2,1.7,5.19,1.23,7.32-.05,0,0-.03,.41-.03,.41-.15-.42-.28-.85-.4-1.3l.09-.05s.67,1.13,.67,1.13c-1.77,2.33-6.47,2.81-8.12,.03,0,0,.02-.03,.02-.03l.66-1.05,.09,.05h0Z">
</path>
<path class="cls-7" d="M30.38,49.21s1.77,1.75,5.65,1.75,5.54-1.61,5.54-1.61">
</path>
<path d="M29.54,49.96c.84-.97,1.64-1.84,2.77-2.52,2.5-.52,5.04-.23,7.53,.11,0,0,.14,.02,.14,.02,.85,.8,1.69,1.62,2.46,2.51-1-.57-1.95-1.2-2.88-1.87l.2,.08c-1.96-.06-5.59-.23-7.15-.14-.88,.38-2.21,1.3-3.08,1.8h0Z">
</path>
<path class="cls-12" d="M21.51,38.79s1.86,3.53,3.77,5.29c1.86,3.53,2.16,4.12,2.16,4.12l3.24-3.24,4.17-.83">
</path>
<path class="cls-12" d="M50.59,38.79s-1.86,3.53-3.77,5.29c-1.86,3.53-2.16,4.12-2.16,4.12l-3.24-3.24-4.17-.83">
</path>
<line class="cls-8" x1="23.63" y1="52.61" x2="23.63" y2="60.55">
</line>
<polyline class="cls-8" points="22.06 59.76 36.13 69.77 36.36 69.93">
</polyline>
<path class="cls-8" d="M36.16,69.97s-.02,0-.03,0c-.08,0-.15-.03-.23-.04-3.58-.54-8.81-1.44-12.12-2.44-5.44-1.65-8.16-8.08-7.51-11.8,.64-3.72,6.08-5.8,6.08-5.8">
</path>
<line class="cls-8" x1="48.62" y1="51.63" x2="48.62" y2="60.55">
</line>
<polyline class="cls-8" points="50.2 59.76 36.13 69.77 35.9 69.93">
</polyline>
<path class="cls-8" d="M36.13,69.97s.02,0,.03,0c.06-.02,.13-.03,.2-.04,3.58-.54,8.81-1.44,12.12-2.44,5.44-1.65,8.15-8.08,7.51-11.8s-6.61-6.03-6.61-6.03">
</path>
<line class="cls-8" x1="16.52" y1="59.26" x2="6.98" y2="64.23">
</line>
<line class="cls-8" x1="55.73" y1="59.5" x2="65.19" y2="64.23">
</line>
<path d="M21.04,36.73s-3.24-1.62-3.53-5.72c-1.73-1.91-.58-5.72-.58-5.72,0,0-.92-2.66,.35-5.32,.64-3.29,3.41-4.28,3.41-4.28,0,0,1.27-4.22,5.55-3.76,1.62-2.49,3.87-2.2,5.32-1.85,3.35-2.37,4.39-.4,4.39-.4,0,0,2.83-.69,4.1,.29,3.06-.92,5.55,1.91,5.55,1.91,0,0,3.87-.75,5.37,4.16,3.06,.52,3.41,4.05,3.41,4.05,0,0,1.33,2.25,.35,5.14,1.39,2.77-.12,6.07-.12,6.07,0,0,0,3.64-3.93,5.03,.52-3.64,1.04-4.22,.35-5.78s-2.66-9.25-2.66-9.25c0,0-12.43-3.47-25.2,.23-2.02,6.65-2.66,10.29-2.66,11.27s.52,3.93,.52,3.93Z">
</path>
<path class="cls-1" d="M18.14,34.91c.29,2.13,.99,4.11,1.67,6.12,.27,.63,.49,1.29,1.03,1.81l-.03,.07c-1.36-.7-1.89-2.29-2.37-3.64-.36-1.23-.84-3.28-.3-4.36h0Z">
</path>
<path class="cls-15" d="M20.99,51.38c-3.41,2.7-3.65,5.08-3.25,9,0,0-.09,.04-.09,.04-.74-1.68-1.24-3.63-.65-5.43,.6-1.81,2.21-3.09,3.96-3.71,0,0,.03,.1,.03,.1h0Z">
</path>
<polygon class="cls-15" points="8.29 64.1 15.83 60.17 15.88 60.26 8.76 64.99 8.29 64.1 8.29 64.1">
</polygon>
<path class="cls-15" d="M20.63,16.65c-1.52,.69-1.87,2.3-1.71,3.79-1.09,1.04-.84,2.74-.23,3.98,0,0,.2,.39,.2,.39-.64,1.29-1.09,2.89-.74,4.33,.12,.53,.45,1.01,.71,1.49-.29,1.76,.45,3.64,1.11,5.32,0,0-.08,.06-.08,.06-.99-1.48-1.96-3.59-1.83-5.21-1.41-1.57-1.11-4.52-.23-5.93-.69-1.48-.9-3.48,.38-4.69-.14-1.29,.78-3.33,2.41-3.62,0,0,.02,.1,.02,.1h0Z">
</path>
</g>





</svg>
