<svg id="Capa_2" xmlns="http://www.w3.org/2000/svg" xmlns:xlink="http://www.w3.org/1999/xlink" viewBox="0 0 69.02 80">
<defs >
<style >
.cls-1{fill:#c89aed;}.cls-2{fill:#fff;}.cls-3{fill:#f8ffbf;}.cls-4{fill:#7b7be8;}.cls-5{fill:#a88347;}.cls-6{fill:#782ab5;}.cls-7,.cls-8{stroke:#000;stroke-miterlimit:10;}.cls-7,.cls-8,.cls-9,.cls-10,.cls-11{fill:none;}.cls-8,.cls-9{stroke-linecap:round;}.cls-12{fill:#1c46ff;}.cls-9{stroke:#deb778;stroke-dasharray:0 0 0 4.06;stroke-linejoin:round;}.cls-13{fill:#deb778;}.cls-14{fill:url(#USGS_19_Inundación_de_tierra_2);}.cls-11{stroke:#1d1d1b;stroke-dasharray:0 0 2 2;stroke-width:.3px;}.cls-15{fill:#cf5f2b;}.cls-16{fill:#fcf0c5;}
</style>
<pattern id="USGS_19_Inundación_de_tierra_2" x="0" y="0" width="72" height="72" patternTransform="translate(51.52 -17071) rotate(-90)" patternUnits="userSpaceOnUse" viewBox="0 0 72 72">
<g >
<rect class="cls-10" width="72" height="72">
</rect>
<g >
<line class="cls-11" x1="71" y1="71" x2="144.44" y2="71">
</line>
<line class="cls-11" x1="71" y1="67" x2="144.44" y2="67">
</line>
<line class="cls-11" x1="71" y1="63" x2="144.44" y2="63">
</line>
<line class="cls-11" x1="71" y1="59" x2="144.44" y2="59">
</line>
<line class="cls-11" x1="71" y1="55" x2="144.44" y2="55">
</line>
<line class="cls-11" x1="71" y1="51" x2="144.44" y2="51">
</line>
<line class="cls-11" x1="71" y1="47" x2="144.44" y2="47">
</line>
<line class="cls-11" x1="71" y1="43" x2="144.44" y2="43">
</line>
<line class="cls-11" x1="71" y1="39" x2="144.44" y2="39">
</line>
<line class="cls-11" x1="71" y1="35" x2="144.44" y2="35">
</line>
<line class="cls-11" x1="71" y1="31" x2="144.44" y2="31">
</line>
<line class="cls-11" x1="71" y1="27" x2="144.44" y2="27">
</line>
<line class="cls-11" x1="71" y1="23" x2="144.44" y2="23">
</line>
<line class="cls-11" x1="71" y1="19" x2="144.44" y2="19">
</line>
<line class="cls-11" x1="71" y1="15" x2="144.44" y2="15">
</line>
<line class="cls-11" x1="71" y1="11" x2="144.44" y2="11">
</line>
<line class="cls-11" x1="71" y1="7" x2="144.44" y2="7">
</line>
<line class="cls-11" x1="71" y1="3" x2="144.44" y2="3">
</line>
</g>


<g >
<line class="cls-11" x1="-1" y1="71" x2="72.44" y2="71">
</line>
<line class="cls-11" x1="-1" y1="67" x2="72.44" y2="67">
</line>
<line class="cls-11" x1="-1" y1="63" x2="72.44" y2="63">
</line>
<line class="cls-11" x1="-1" y1="59" x2="72.44" y2="59">
</line>
<line class="cls-11" x1="-1" y1="55" x2="72.44" y2="55">
</line>
<line class="cls-11" x1="-1" y1="51" x2="72.44" y2="51">
</line>
<line class="cls-11" x1="-1" y1="47" x2="72.44" y2="47">
</line>
<line class="cls-11" x1="-1" y1="43" x2="72.44" y2="43">
</line>
<line class="cls-11" x1="-1" y1="39" x2="72.44" y2="39">
</line>
<line class="cls-11" x1="-1" y1="35" x2="72.44" y2="35">
</line>
<line class="cls-11" x1="-1" y1="31" x2="72.44" y2="31">
</line>
<line class="cls-11" x1="-1" y1="27" x2="72.44" y2="27">
</line>
<line class="cls-11" x1="-1" y1="23" x2="72.44" y2="23">
</line>
<line class="cls-11" x1="-1" y1="19" x2="72.44" y2="19">
</line>
<line class="cls-11" x1="-1" y1="15" x2="72.44" y2="15">
</line>
<line class="cls-11" x1="-1" y1="11" x2="72.44" y2="11">
</line>
<line class="cls-11" x1="-1" y1="7" x2="72.44" y2="7">
</line>
<line class="cls-11" x1="-1" y1="3" x2="72.44" y2="3">
</line>
<line class="cls-11" x1="1.04" y1="69" x2="74.48" y2="69">
</line>
<line class="cls-11" x1="1.04" y1="65" x2="74.48" y2="65">
</line>
<line class="cls-11" x1="1.04" y1="61" x2="74.48" y2="61">
</line>
<line class="cls-11" x1="1.04" y1="57" x2="74.48" y2="57">
</line>
<line class="cls-11" x1="1.04" y1="53" x2="74.48" y2="53">
</line>
<line class="cls-11" x1="1.04" y1="49" x2="74.48" y2="49">
</line>
<line class="cls-11" x1="1.04" y1="45" x2="74.48" y2="45">
</line>
<line class="cls-11" x1="1.04" y1="41" x2="74.48" y2="41">
</line>
<line class="cls-11" x1="1.04" y1="37" x2="74.48" y2="37">
</line>
<line class="cls-11" x1="1.04" y1="33" x2="74.48" y2="33">
</line>
<line class="cls-11" x1="1.04" y1="29" x2="74.48" y2="29">
</line>
<line class="cls-11" x1="1.04" y1="25" x2="74.48" y2="25">
</line>
<line class="cls-11" x1="1.04" y1="21" x2="74.48" y2="21">
</line>
<line class="cls-11" x1="1.04" y1="17" x2="74.48" y2="17">
</line>
<line class="cls-11" x1="1.04" y1="13" x2="74.48" y2="13">
</line>
<line class="cls-11" x1="1.04" y1="9" x2="74.48" y2="9">
</line>
<line class="cls-11" x1="1.04" y1="5" x2="74.48" y2="5">
</line>
<line class="cls-11" x1="1.04" y1="1" x2="74.48" y2="1">
</line>
</g>


<g >
<line class="cls-11" x1="-73" y1="71" x2=".44" y2="71">
</line>
<line class="cls-11" x1="-73" y1="67" x2=".44" y2="67">
</line>
<line class="cls-11" x1="-73" y1="63" x2=".44" y2="63">
</line>
<line class="cls-11" x1="-73" y1="59" x2=".44" y2="59">
</line>
<line class="cls-11" x1="-73" y1="55" x2=".44" y2="55">
</line>
<line class="cls-11" x1="-73" y1="51" x2=".44" y2="51">
</line>
<line class="cls-11" x1="-73" y1="47" x2=".44" y2="47">
</line>
<line class="cls-11" x1="-73" y1="43" x2=".44" y2="43">
</line>
<line class="cls-11" x1="-73" y1="39" x2=".44" y2="39">
</line>
<line class="cls-11" x1="-73" y1="35" x2=".44" y2="35">
</line>
<line class="cls-11" x1="-73" y1="31" x2=".44" y2="31">
</line>
<line class="cls-11" x1="-73" y1="27" x2=".44" y2="27">
</line>
<line class="cls-11" x1="-73" y1="23" x2=".44" y2="23">
</line>
<line class="cls-11" x1="-73" y1="19" x2=".44" y2="19">
</line>
<line class="cls-11" x1="-73" y1="15" x2=".44" y2="15">
</line>
<line class="cls-11" x1="-73" y1="11" x2=".44" y2="11">
</line>
<line class="cls-11" x1="-73" y1="7" x2=".44" y2="7">
</line>
<line class="cls-11" x1="-73" y1="3" x2=".44" y2="3">
</line>
<line class="cls-11" x1="-70.96" y1="69" x2="2.48" y2="69">
</line>
<line class="cls-11" x1="-70.96" y1="65" x2="2.48" y2="65">
</line>
<line class="cls-11" x1="-70.96" y1="61" x2="2.48" y2="61">
</line>
<line class="cls-11" x1="-70.96" y1="57" x2="2.48" y2="57">
</line>
<line class="cls-11" x1="-70.96" y1="53" x2="2.48" y2="53">
</line>
<line class="cls-11" x1="-70.96" y1="49" x2="2.48" y2="49">
</line>
<line class="cls-11" x1="-70.96" y1="45" x2="2.48" y2="45">
</line>
<line class="cls-11" x1="-70.96" y1="41" x2="2.48" y2="41">
</line>
<line class="cls-11" x1="-70.96" y1="37" x2="2.48" y2="37">
</line>
<line class="cls-11" x1="-70.96" y1="33" x2="2.48" y2="33">
</line>
<line class="cls-11" x1="-70.96" y1="29" x2="2.48" y2="29">
</line>
<line class="cls-11" x1="-70.96" y1="25" x2="2.48" y2="25">
</line>
<line class="cls-11" x1="-70.96" y1="21" x2="2.48" y2="21">
</line>
<line class="cls-11" x1="-70.96" y1="17" x2="2.48" y2="17">
</line>
<line class="cls-11" x1="-70.96" y1="13" x2="2.48" y2="13">
</line>
<line class="cls-11" x1="-70.96" y1="9" x2="2.48" y2="9">
</line>
<line class="cls-11" x1="-70.96" y1="5" x2="2.48" y2="5">
</line>
<line class="cls-11" x1="-70.96" y1="1" x2="2.48" y2="1">
</line>
</g>


</g>


</pattern>
</defs>



<g >
<path class="cls-4" d="M60.17,73.05l-25.18,4.27-24.42-3.73-1.32-.2-.02-1-.1-4.96,8.66-4.5,4.05-4.5,2.92-.33-.22-4.16s-.23-.34-1.24-1.24c-1.35-.9-1.8-3.26-3.26-9.67-6.41,.34-7.42-9.1-5.85-11.58,1.11-1.73,2.21-1.14,2.77-.64,.24,.22,.38,.42,.38,.42-1.12-3.6-.9-7.87,1.01-11.13,3.26-6.97,12.37-9.22,24.17-7.08,9.78,3.37,10.91,10.68,9.9,18.21,.39-.47,.86-.76,1.33-.86,1.72-.36,3.51,1.72,1.93,6.82-2.36,7.08-5.74,5.62-5.74,5.62,0,0-1.91,6.18-2.58,8.2-.68,2.03-3.49,3.83-3.49,3.83l.12,1.64,.11,1.62,3.14,.33,3.49,4.5,8.77,4.27,.67,5.85Z">
</path>
<path class="cls-1" d="M34.64,54.36V31.87c0-6.04,4.36-11.19,10.31-12.2l5.09-.86s3.52,7.03,1.76,14.65c-1.67,8.88-3.94,16.5-5.28,18.84-.9,1.57-4.2,3.9-7.45,5.11-2.15,.8-4.44-.76-4.44-3.05Z">
</path>
<path d="M53.75,30.37l-1.86,2.13s-.31-11.05-3.15-12.72c-5.74,2.47-18.03,1.98-21.92,1.61-3.88-.37-6.11-1.67-6.11-1.67,0,0-2.84,6.98-2.65,14.45-.51-1.35-.74-1.92-.74-1.92l-.36-1.44c.24,.22,.38,.42,.38,.42-1.12-3.6-.9-7.87,1.01-11.13,3.26-6.97,12.37-9.22,24.17-7.08,9.78,3.37,10.91,10.68,9.9,18.21,.39-.47,.86-.76,1.33-.86Z">
</path>
<path class="cls-12" d="M60.17,73.05l-25.18,4.27-24.42-3.73-1.34-1.2-.1-4.96,8.66-4.5,4.05-4.5,2.92-.33c.57,4.58,1.33,8.41,9.36,14.54,6.76-2.64,9.82-11.52,9.82-11.52l-.1-4.64h.15l.11,1.62,3.14,.33,3.49,4.5,8.77,4.27,.67,5.85Z">
</path>
<path class="cls-3" d="M32.51,33.27s-5.77-4.13-12.66-.17c-.17,4.39,2.15,7.75,6.2,7.83s6.8-2.93,6.46-7.66Z">
</path>
<path class="cls-3" d="M36.68,33.21s3.05-2.08,7.15-2.01,5.43,1.94,5.43,1.94c0,0,1.11,6.7-5.21,7.82-4.32,.6-7.89-2.9-7.37-7.74Z">
</path>
<path d="M18.1,31.79s-2.37-2.72-4.22-.53c-1.93,2.72,1.05,9.32,2.99,10.81,1.76,1.32,3.17,.95,3.17,.95,0,0-2.38-8.95-1.94-11.24Z">
</path>
<path d="M43.64,55.21l-16.69,19.86-16.48-3.59-1.34-4.04,7.99-3.56,4.22-5.18,3.06-.74,.13-4.01s5.89,3.91,8.22,4.22,4.26,.95,10.88-2.96Z">
</path>
<path class="cls-1" d="M42.81,57.27l-10.16,12.65,1.68,1.41s6.06-4.44,8.35-10.23c.2-2.96,.13-3.84,.13-3.84Z">
</path>
<path class="cls-4" d="M21.37,21.57c2.8,1.15,6.79,1.41,9.79,1.41,1.29,0,2.27-.05,2.68-.07h2.08c.83,.05,1.76,.07,2.69,.07,3,0,6.99-.26,9.8-1.4,1.24,2.82,1.69,9.68,1.68,13.72,0,.04,0,.08,0,.11-.92,4.67-2.36,10.06-3.77,14.12-.53,1.52-1.55,2.83-2.9,3.67-1.36,.85-2.83,1.72-4.38,2.58-1.29,.71-2.73,1.09-4.18,1.09s-2.89-.37-4.16-1.08c-1.75-.98-3.18-1.83-4.38-2.58-1.34-.85-2.38-2.16-2.91-3.69-1.17-3.38-2.8-9.04-3.9-14.85,.06-4.12,.67-10.44,1.88-13.1m27.45-1.3c-2.69,1.45-7.3,1.7-10.21,1.7-1.49,0-2.54-.07-2.67-.07h-2.13c-.11,0-1.16,.07-2.65,.07-2.91,0-7.52-.25-10.2-1.7-1.9,2.6-2.43,11.23-2.47,14.47h0c1.02,5.41,2.61,11.19,3.96,15.1,.61,1.75,1.79,3.24,3.32,4.21,1.32,.83,2.81,1.7,4.43,2.61,1.46,.8,3.05,1.21,4.65,1.21s3.21-.41,4.67-1.22c1.6-.89,3.09-1.77,4.43-2.61,1.53-.96,2.71-2.45,3.31-4.19,1.3-3.75,2.82-9.22,3.84-14.43-.01-.04-.02-.08-.02-.13,.01-3.38-.38-12.39-2.26-15.02h0Z">
</path>
<path class="cls-2" d="M39.25,42.7s3.57,1.31,8.07-1.13c-5.45,5.35-6.1,4.88-8.07,1.13Z">
</path>
<path class="cls-2" d="M46.47,23.76s1.06,4.51,1.24,6.82c-3.01-1.42-6.46-.62-6.46-.62,0,0,2.92-.62,5.22-6.2Z">
</path>
<path class="cls-1" d="M22.55,42.42s3.32,1.61,6.96-.43c-3,4.71-3.43,4.5-6.96,.43Z">
</path>
<path class="cls-4" d="M47.17,15.82c.45,.47,.11,1.26-.54,1.26-5.72,.05-26.43,.05-19.9-2.77s16.96-2.07,20.44,1.51Z">
</path>
<path class="cls-1" d="M53.03,31.35s3.05,3.86,.16,9.8c4.02-6.67,3.45-12.21-.16-9.8Z">
</path>
<path class="cls-8" d="M49.57,17.45c-1.95-2.43-4.73-4.03-7.8-4.58-2.16-.38-4.62-.64-7.33-.64-2.35,0-4.41,.19-6.2,.5-3.14,.53-5.98,2.14-7.99,4.61-1.73,2.13-3.06,4.54-3.25,7.05-.49,6.68,2.86,19.47,4.98,25.62,.64,1.85,1.87,3.43,3.52,4.46,1.45,.91,2.97,1.79,4.45,2.62,3.05,1.69,6.75,1.69,9.8,0,1.49-.83,3.01-1.71,4.45-2.63,1.65-1.04,2.88-2.61,3.52-4.45,2.13-6.15,5.47-18.94,4.98-25.62-.18-2.47-1.46-4.84-3.14-6.94Z">
</path>
<path class="cls-8" d="M17.34,31.44s-1.5-1.9-2.92-.55-.87,5.93,.63,8.61,2.92,3.87,4.66,3.4">
</path>
<path class="cls-8" d="M52.34,31.44s1.5-1.9,2.92-.55,.87,5.93-.63,8.61-2.92,3.87-4.66,3.4">
</path>
<path class="cls-8" d="M51.58,35.3s.05-12.89-2.64-15.67c-3.79,2.39-12.96,1.77-12.96,1.77h-2.16s-9.18,.62-12.96-1.77c-2.69,2.78-2.86,15.1-2.86,15.1">
</path>
<path class="cls-8" d="M20.03,32.82s5.85-3.81,12.35,.2c.18,6.63-3.54,7.94-6.5,7.94s-7.09-2.69-5.85-8.14Z">
</path>
<path class="cls-8" d="M49.09,32.82s-5.85-3.81-12.35,.2c-.18,6.63,3.54,7.94,6.5,7.94s7.09-2.69,5.85-8.14Z">
</path>
<path class="cls-8" d="M32.59,33.5s2.33-1.09,4.14,.29">
</path>
<line class="cls-8" x1="20.03" y1="32.82" x2="17.55" y2="32.82">
</line>
<line class="cls-8" x1="49.26" y1="32.82" x2="51.73" y2="32.82">
</line>
<path d="M36.57,39.54c.89,.53,2.54,2.1,1.16,2.99-1.09,.56-2.16,.77-3.3,1.07,0,0-.11-.03-.11-.03-2.81-.67-5.67-1.37-2.04-4.04-.41,.63-.97,1.3-1.02,2.02,.02,.18,.05,.21,.23,.28,.43,.15,.97,.29,1.49,.4l1.57,.36h-.22c.86-.21,2.27-.48,3.06-.76,.17-.07,.2-.09,.22-.28-.06-.73-.61-1.4-1.03-2.02h0Z">
</path>
<path d="M41.2,50.56l-6.58-1.01-6.58,1.01s2.66-3.21,4.52-3.38c.81-.05,1.52,.26,2.07,.65,.55-.39,1.26-.71,2.06-.65,1.86,.17,4.51,3.38,4.51,3.38Z">
</path>
<path d="M31.85,51.99c1.7,.81,3.68,.7,5.41,.03,0,0,.04,.09,.04,.09-.62,.97-1.64,1.39-2.74,1.44-1.1-.01-2.2-.46-2.75-1.48,0,0,.05-.09,.05-.09h0Z">
</path>
<path class="cls-7" d="M24.33,57.91l-2.96,.61-7.9,9.78s6.21,.8,9.36,.85c-.85,1.93-.89,2.54-.89,2.54l2.59,3.1">
</path>
<line class="cls-7" x1="17.7" y1="63.08" x2="8.67" y2="67.55">
</line>
<path class="cls-7" d="M44.07,54.79v6.32s-2.18,7.2-9.75,12.02c-7.58-4.82-9.75-12.02-9.75-12.02v-6.87">
</path>
<path class="cls-7" d="M44.3,57.91l2.96,.61,7.9,9.78s-6.21,.8-9.36,.85c.85,1.93,.89,2.54,.89,2.54l-2.59,3.1">
</path>
<line class="cls-7" x1="50.93" y1="63.08" x2="59.96" y2="67.55">
</line>
<line class="cls-7" x1="34.32" y1="73.13" x2="34.32" y2="74.89">
</line>
<path class="cls-15" d="M24.66,58.51c-.89,.45-1.81,.84-2.74,1.19,0,0,.31-.2,.31-.2-1,1.72-2.15,3.32-3.34,4.91-2.75,1.29-5.81,2.56-8.78,3.23,0,0-.04-.09-.04-.09,0,.01,8.33-4.03,8.17-3.92,0,0,3.51-4.51,3.51-4.51v-.02s.04,0,.04,0l2.86-.68,.02,.1h0Z">
</path>
<path class="cls-15" d="M16.06,31.09c-3.12-.58-.5,7.12,.17,8.49,.5,1.01,1.09,1.95,2.03,2.78,0,0-.04,.09-.04,.09-3.32-1.7-4.56-5.95-4.42-9.46,.05-1.27,.85-2.77,2.31-1.99,0,0-.05,.09-.05,.09h0Z">
</path>
</g>




 <g
     id="g2850">
    <g
       id="g2837">
      <path
         id="path1951"
         d="M 0.056640625 0.04296875 L 0.056640625 79.943359 L 69.308594 79.943359 L 69.308594 0.04296875 L 0.056640625 0.04296875 z M 33.615234 3.5957031 C 34.206332 3.5957038 34.786991 3.6051034 35.421875 3.6152344 C 44.430653 3.7671809 53.471255 5.1336733 61.560547 7.5546875 L 62.064453 7.7070312 L 62.25 8.1640625 C 66.070247 17.605006 66.990234 28.726438 66.990234 40.0625 C 66.990234 51.398562 65.972723 63.025755 61.988281 72.578125 L 61.791016 73.044922 L 61.275391 73.185547 C 53.273669 75.403966 44.691921 76.529297 35.759766 76.529297 C 35.212453 76.529297 34.675812 76.519896 34.150391 76.509766 L 33.943359 76.509766 C 24.901742 76.357819 15.860367 74.989738 7.7929688 72.558594 L 7.2890625 72.40625 L 7.1035156 71.951172 C 3.2942144 62.520359 2.375 51.369168 2.375 40.0625 C 2.375 28.755832 3.3819737 17.127318 7.3554688 7.5546875 L 7.5527344 7.0898438 L 8.0664062 6.9472656 C 15.509867 4.890923 23.785212 3.7371557 32.005859 3.6054688 C 32.542226 3.5953387 33.078867 3.5957031 33.615234 3.5957031 z "
         style="opacity:1;vector-effect:none;fill:#ffffff;fill-opacity:1;fill-rule:nonzero;stroke:none;stroke-width:1.95200002;stroke-linecap:butt;stroke-linejoin:miter;stroke-miterlimit:4;stroke-dasharray:none;stroke-dashoffset:0;stroke-opacity:1" />
    </g>
    <path
       id="path1154-8-2"
       d="m 33.675163,6.6112954 c 0.557696,0 1.115392,0.00956 1.683415,0.019115 8.427403,0.14336 16.803167,1.4049288 24.363042,3.6700176 3.573384,8.830981 4.443772,19.417362 4.443772,29.761551 0,10.344189 -0.95301,21.39888 -4.68131,30.334991 -7.435942,2.064385 -15.429581,3.274388 -23.774362,3.274388 -0.506058,0 -1.012115,-0.0096 -1.518172,-0.01911 h -0.17557 C 25.56792,73.508883 17.192156,72.088619 9.6426089,69.813973 6.0795528,61.002107 5.2088244,50.415411 5.2088244,40.061979 c 0,-10.353432 0.95335,-21.389323 4.6609939,-30.325434 C 16.820359,7.8155201 24.462856,6.7450981 32.177647,6.6208528 c 0.49573,-0.00956 1.001787,-0.00956 1.497516,-0.00956 m 0,-0.9557337 c -0.506057,0 -1.012114,0 -1.518171,0.00956 C 24.40089,5.7893644 16.593149,6.8789009 9.570315,8.8190405 L 9.0849131,8.9528432 8.8990146,9.3924808 C 5.1500599,18.424166 4.1999116,29.394246 4.1999116,40.061979 c 0,10.667733 0.8675267,21.188618 4.461566,30.0865 l 0.1755708,0.430081 0.4750741,0.14336 c 7.6115135,2.293761 16.1421925,3.584001 24.6728715,3.727361 h 0.196227 c 0.495729,0.0096 1.001786,0.01911 1.518171,0.01911 8.427403,0 16.524318,-1.060864 24.073866,-3.153921 l 0.485403,-0.133802 0.185898,-0.439639 c 3.759282,-9.01257 4.719759,-19.983589 4.719759,-30.679055 0,-10.695466 -0.867528,-21.188618 -4.471894,-30.0960578 L 60.516853,9.5358409 60.041779,9.3924808 C 52.409609,7.108277 43.87893,5.8180364 35.379234,5.6746763 34.780227,5.6651187 34.232859,5.6555621 33.675163,5.6555615 Z"
       style="fill:#ff0000;stroke:#ffffff;stroke-width:1.84341729;stroke-miterlimit:4;stroke-dasharray:none" />
    <path
       id="path1154"
       d="m 33.614853,4.6077955 c 0.591098,0 1.182197,0.01013 1.784241,0.02026 8.932155,0.1519464 17.809578,1.4890758 25.822246,3.8898304 3.787408,9.3599041 4.709928,20.5803481 4.709928,31.5440931 0,10.963745 -1.01009,22.680548 -4.961693,32.151879 -7.881312,2.18803 -16.353723,3.302304 -25.198307,3.302304 -0.536368,0 -1.072735,-0.01013 -1.609102,-0.02026 H 33.97608 C 25.022033,75.343956 16.14461,74.006827 8.1428892,71.595943 4.3664269,62.256298 3.443547,51.035521 3.443547,40.061979 c 0,-10.973542 1.01045,-22.670418 4.9401601,-32.1417498 7.3668369,-2.036083 15.4670749,-3.170617 23.6439369,-3.3023039 0.525421,-0.01013 1.061788,-0.01013 1.587209,-0.01013 m 0,-1.0129766 c -0.536367,0 -1.072734,0 -1.609101,0.01013 C 23.785105,3.7366356 15.509726,4.891429 8.0662653,6.9477716 L 7.5517907,7.0895883 7.3547579,7.5555576 C 3.3812628,17.128188 2.3742062,28.755311 2.3742062,40.061979 c 0,11.306668 0.9194864,22.457692 4.7287876,31.888505 l 0.1860865,0.45584 0.5035283,0.151947 c 8.0673984,2.431144 17.1090154,3.798662 26.1506324,3.950608 h 0.207979 c 0.525421,0.01013 1.061788,0.02026 1.609101,0.02026 8.932155,0 17.514028,-1.124404 25.51575,-3.342823 l 0.514475,-0.141816 0.197032,-0.46597 c 3.984442,-9.55237 5.002445,-21.180489 5.002445,-32.516551 0,-11.336062 -0.919487,-22.457692 -4.739734,-31.8986353 L 62.064202,7.7075041 61.560674,7.5555576 C 53.471382,5.1345434 44.429765,3.7670249 35.420987,3.6150784 c -0.634884,-0.01013 -1.215036,-0.020259 -1.806134,-0.02026 z"
       style="fill:#000000;stroke:#000000;stroke-width:1.95382714;stroke-miterlimit:4;stroke-dasharray:none" />
    <g
       id="g1810">
      <path
         d="M 6.5134911,7.7433673 C 5.6489029,6.8479453 4.058602,6.5681013 3.6272194,7.3820013 3.284151,8.0292783 3.3625296,8.5309135 4.395235,8.9201755 3.2963719,9.5187755 1.4857674,9.4447465 1.1893447,7.4467713 0.95320848,5.8551433 2.674739,4.8863543 3.1399725,5.0916244 3.0034432,3.6818714 1.8221094,4.0692802 0.95849208,3.2813384 0.34259068,2.7194046 0.23126071,-0.02624603 0.0561761,0.04378767 -0.0138576,0.21887227 2.7317937,0.33020157 3.2937267,0.94610377 4.0816685,1.8097211 3.6942598,2.9910547 5.1040128,3.1275841 4.8987425,2.6623507 5.8675315,0.94082017 7.4591593,1.1769564 9.4571345,1.4733791 9.5311625,3.2839847 8.9325635,4.3828467 8.5433008,3.3501417 8.041666,3.2717627 7.3943894,3.6148312 6.5804899,4.0462137 6.8603354,5.6365129 7.7557553,6.5011023"
         style="fill:#000000;stroke:#000000;stroke-width:0.1112323px;stroke-linecap:butt;stroke-linejoin:miter;stroke-opacity:1"
         id="path1737-3" />
      <path
         d="m 62.850738,7.7433673 c 0.864588,-0.895422 2.454889,-1.175266 2.886271,-0.361366 0.343069,0.647277 0.26469,1.148912 -0.768015,1.538174 1.098863,0.5986 2.909467,0.524571 3.20589,-1.473404 0.236136,-1.591628 -1.485394,-2.560417 -1.950628,-2.3551469 0.13653,-1.409753 1.317863,-1.0223442 2.181481,-1.810286 0.615901,-0.5619338 0.727231,-3.30758442 0.902316,-3.23755072 0.07003,0.1750846 -2.675618,0.2864139 -3.237551,0.9023161 C 65.28256,1.8097211 65.669969,2.9910547 64.260216,3.1275841 64.465486,2.6623507 63.496697,0.94082018 61.905069,1.1769564 c -1.997975,0.2964227 -2.072003,2.1070283 -1.473404,3.2058903 0.389263,-1.032705 0.890898,-1.111084 1.538174,-0.7680155 0.8139,0.4313825 0.534054,2.0216817 -0.361366,2.8862711"
         style="fill:#000000;stroke:#000000;stroke-width:0.1112323px;stroke-linecap:butt;stroke-linejoin:miter;stroke-opacity:1"
         id="path1737-3-5" />
      <path
         d="m 62.850738,72.244244 c 0.864588,0.895422 2.454889,1.175266 2.886272,0.361366 0.343068,-0.647277 0.264689,-1.148912 -0.768016,-1.538174 1.098863,-0.5986 2.909468,-0.524571 3.20589,1.473404 0.236137,1.591628 -1.485394,2.560417 -1.950628,2.355147 0.13653,1.409753 1.317864,1.022344 2.181481,1.810286 0.615901,0.561934 0.727231,3.307584 0.902316,3.237551 0.07003,-0.175085 -2.675618,-0.286414 -3.237551,-0.902317 -0.787942,-0.863617 -0.400533,-2.04495 -1.810286,-2.18148 0.20527,0.465234 -0.763519,2.186764 -2.355146,1.950628 -1.997976,-0.296423 -2.072004,-2.107028 -1.473405,-3.20589 0.389263,1.032705 0.890898,1.111084 1.538175,0.768015 0.813899,-0.431382 0.534054,-2.021682 -0.361366,-2.886271"
         style="fill:#000000;stroke:#000000;stroke-width:0.1112323px;stroke-linecap:butt;stroke-linejoin:miter;stroke-opacity:1"
         id="path1737-3-7" />
      <path
         d="M 6.513491,72.244245 C 5.648903,73.139667 4.058602,73.419511 3.62722,72.605611 3.284151,71.958334 3.36253,71.456699 4.395235,71.067437 c -1.098863,-0.5986 -2.909467,-0.524571 -3.20589,1.473404 -0.23613599,1.591628 1.485394,2.560417 1.950628,2.355147 -0.13653,1.409753 -1.317863,1.022344 -2.18148099,1.810286 -0.615901,0.561933 -0.727231,3.307584 -0.902316,3.23755 C -0.01385399,79.76874 2.731794,79.65741 3.293727,79.041508 4.081669,78.177891 3.69426,76.996557 5.104013,76.860028 4.898743,77.325261 5.867532,79.046792 7.45916,78.810656 9.457135,78.514233 9.531163,76.703627 8.932564,75.604765 8.543301,76.63747 8.041666,76.715849 7.39439,76.372781 6.58049,75.941398 6.860336,74.351099 7.755756,73.48651"
         style="fill:#000000;stroke:#000000;stroke-width:0.1112323px;stroke-linecap:butt;stroke-linejoin:miter;stroke-opacity:1"
         id="path1737-3-5-5" />
    </g>
    <path
       id="path1154-9"
       d="m 33.712865,7.4258691 c 0.536813,0 1.07363,0.00933 1.620386,0.01865 8.111875,0.1398689 16.174044,1.3707167 23.450873,3.5806479 3.439594,8.615932 4.277395,18.944521 4.277395,29.036812 0,10.092292 -0.917329,20.877786 -4.506039,29.596289 -7.157536,2.014114 -14.851888,3.03982 -22.884234,3.03982 -0.487111,0 -0.974221,-0.0094 -1.461331,-0.01865 H 34.040918 C 25.909161,72.53957 17.846991,71.308722 10.580105,69.089467 7.1504515,60.492184 6.3123238,50.163289 6.3123238,40.061979 c 0,-10.101311 0.9176558,-20.868461 4.4864832,-29.586965 6.690308,-1.8742449 14.046665,-2.9186005 21.472608,-3.0398203 0.47717,-0.00933 0.964281,-0.00933 1.44145,-0.00933 m 0,-0.9324602 c -0.487111,0 -0.974221,0 -1.46133,0.00933 C 24.785826,6.6239532 17.270413,7.686958 10.510517,9.5798526 L 10.043289,9.710397 9.8643508,10.139328 c -3.6085914,8.811751 -4.5231655,19.514693 -4.5231655,29.922651 0,10.407958 0.8350459,20.672644 4.294522,29.353849 l 0.1689973,0.419608 0.4572874,0.13987 c 7.326533,2.237904 15.537818,3.496724 23.749103,3.636593 h 0.188879 c 0.47717,0.0094 0.96428,0.01865 1.461331,0.01865 8.111875,0 15.905636,-1.035031 23.172525,-3.077119 l 0.467228,-0.130544 0.178938,-0.428932 c 3.618533,-8.793101 4.543048,-19.496959 4.543048,-29.931975 0,-10.435016 -0.835047,-20.672644 -4.304463,-29.363174 l -0.168997,-0.419609 -0.457288,-0.13987 C 51.74588,7.9107484 43.534594,6.6519271 35.353133,6.512058 34.776554,6.502738 34.249678,6.493409 33.712865,6.493409 Z"
       style="fill:#000000;stroke:none;stroke-width:1.78642213;stroke-miterlimit:4;stroke-dasharray:none" />
    <path
       id="path1154-9-3"
       d="m 33.712865,7.4258686 c 0.536813,0 1.07363,0.00933 1.620386,0.01865 8.111875,0.1398689 16.174044,1.3707167 23.450873,3.5806484 3.439594,8.615932 4.277395,18.944521 4.277395,29.036812 0,10.092292 -0.917329,20.877786 -4.506039,29.596288 -7.157536,2.014114 -14.851888,3.03982 -22.884234,3.03982 -0.487111,0 -0.974221,-0.0094 -1.461331,-0.01865 H 34.040918 C 25.909161,72.539569 17.846991,71.308722 10.580105,69.089466 7.1504515,60.492184 6.3123238,50.163288 6.3123238,40.061979 c 0,-10.101312 0.9176558,-20.868461 4.4864832,-29.586965 6.690308,-1.8742454 14.046665,-2.918601 21.472608,-3.0398208 0.47717,-0.00933 0.964281,-0.00933 1.44145,-0.00933 m 0,-0.9324602 c -0.487111,0 -0.974221,0 -1.46133,0.00933 C 24.785826,6.6239527 17.270413,7.6869575 10.510517,9.5798521 L 10.043289,9.7103965 9.8643508,10.139328 C 6.2557594,18.951079 5.3411853,29.65402 5.3411853,40.061979 c 0,10.407958 0.8350459,20.672643 4.294522,29.353849 l 0.1689973,0.419608 0.4572874,0.13987 c 7.326533,2.237904 15.537818,3.496724 23.749103,3.636593 h 0.188879 c 0.47717,0.0094 0.96428,0.01865 1.461331,0.01865 8.111875,0 15.905636,-1.035032 23.172525,-3.077119 l 0.467228,-0.130544 0.178938,-0.428932 c 3.618533,-8.793101 4.543048,-19.49696 4.543048,-29.931975 0,-10.435016 -0.835047,-20.672644 -4.304463,-29.363175 l -0.168997,-0.419609 -0.457288,-0.13987 C 51.74588,7.9107479 43.534594,6.6519266 35.353133,6.5120575 34.776554,6.5027375 34.249678,6.4934085 33.712865,6.4934085 Z"
       style="fill:#000000;stroke:none;stroke-width:1.78642213;stroke-miterlimit:4;stroke-dasharray:none" />
  </g>
</svg>
