<svg id="Capa_2" xmlns="http://www.w3.org/2000/svg" xmlns:xlink="http://www.w3.org/1999/xlink" viewBox="0 0 69.02 80">
<defs >
<style >
.cls-1{fill:#c89aed;}.cls-2{fill:#fff;}.cls-3{fill:#f8ffbf;}.cls-4{fill:#7b7be8;}.cls-5{fill:#a88347;}.cls-6{fill:#782ab5;}.cls-7,.cls-8{stroke:#000;stroke-miterlimit:10;}.cls-7,.cls-8,.cls-9,.cls-10,.cls-11{fill:none;}.cls-8,.cls-9{stroke-linecap:round;}.cls-9{stroke:#deb778;stroke-dasharray:0 0 0 4.06;stroke-linejoin:round;}.cls-12{fill:#deb778;}.cls-13{fill:url(#USGS_19_Inundación_de_tierra_2);}.cls-11{stroke:#1d1d1b;stroke-dasharray:0 0 2 2;stroke-width:.3px;}.cls-14{fill:#cf5f2b;}.cls-15{fill:#fcf0c5;}.cls-16{fill:#b83521;}
</style>
<pattern id="USGS_19_Inundación_de_tierra_2" x="0" y="0" width="72" height="72" patternTransform="translate(-92.48 -17071) rotate(-90)" patternUnits="userSpaceOnUse" viewBox="0 0 72 72">
<g >
<rect class="cls-10" width="72" height="72">
</rect>
<g >
<line class="cls-11" x1="71" y1="71" x2="144.44" y2="71">
</line>
<line class="cls-11" x1="71" y1="67" x2="144.44" y2="67">
</line>
<line class="cls-11" x1="71" y1="63" x2="144.44" y2="63">
</line>
<line class="cls-11" x1="71" y1="59" x2="144.44" y2="59">
</line>
<line class="cls-11" x1="71" y1="55" x2="144.44" y2="55">
</line>
<line class="cls-11" x1="71" y1="51" x2="144.44" y2="51">
</line>
<line class="cls-11" x1="71" y1="47" x2="144.44" y2="47">
</line>
<line class="cls-11" x1="71" y1="43" x2="144.44" y2="43">
</line>
<line class="cls-11" x1="71" y1="39" x2="144.44" y2="39">
</line>
<line class="cls-11" x1="71" y1="35" x2="144.44" y2="35">
</line>
<line class="cls-11" x1="71" y1="31" x2="144.44" y2="31">
</line>
<line class="cls-11" x1="71" y1="27" x2="144.44" y2="27">
</line>
<line class="cls-11" x1="71" y1="23" x2="144.44" y2="23">
</line>
<line class="cls-11" x1="71" y1="19" x2="144.44" y2="19">
</line>
<line class="cls-11" x1="71" y1="15" x2="144.44" y2="15">
</line>
<line class="cls-11" x1="71" y1="11" x2="144.44" y2="11">
</line>
<line class="cls-11" x1="71" y1="7" x2="144.44" y2="7">
</line>
<line class="cls-11" x1="71" y1="3" x2="144.44" y2="3">
</line>
</g>


<g >
<line class="cls-11" x1="-1" y1="71" x2="72.44" y2="71">
</line>
<line class="cls-11" x1="-1" y1="67" x2="72.44" y2="67">
</line>
<line class="cls-11" x1="-1" y1="63" x2="72.44" y2="63">
</line>
<line class="cls-11" x1="-1" y1="59" x2="72.44" y2="59">
</line>
<line class="cls-11" x1="-1" y1="55" x2="72.44" y2="55">
</line>
<line class="cls-11" x1="-1" y1="51" x2="72.44" y2="51">
</line>
<line class="cls-11" x1="-1" y1="47" x2="72.44" y2="47">
</line>
<line class="cls-11" x1="-1" y1="43" x2="72.44" y2="43">
</line>
<line class="cls-11" x1="-1" y1="39" x2="72.44" y2="39">
</line>
<line class="cls-11" x1="-1" y1="35" x2="72.44" y2="35">
</line>
<line class="cls-11" x1="-1" y1="31" x2="72.44" y2="31">
</line>
<line class="cls-11" x1="-1" y1="27" x2="72.44" y2="27">
</line>
<line class="cls-11" x1="-1" y1="23" x2="72.44" y2="23">
</line>
<line class="cls-11" x1="-1" y1="19" x2="72.44" y2="19">
</line>
<line class="cls-11" x1="-1" y1="15" x2="72.44" y2="15">
</line>
<line class="cls-11" x1="-1" y1="11" x2="72.44" y2="11">
</line>
<line class="cls-11" x1="-1" y1="7" x2="72.44" y2="7">
</line>
<line class="cls-11" x1="-1" y1="3" x2="72.44" y2="3">
</line>
<line class="cls-11" x1="1.04" y1="69" x2="74.48" y2="69">
</line>
<line class="cls-11" x1="1.04" y1="65" x2="74.48" y2="65">
</line>
<line class="cls-11" x1="1.04" y1="61" x2="74.48" y2="61">
</line>
<line class="cls-11" x1="1.04" y1="57" x2="74.48" y2="57">
</line>
<line class="cls-11" x1="1.04" y1="53" x2="74.48" y2="53">
</line>
<line class="cls-11" x1="1.04" y1="49" x2="74.48" y2="49">
</line>
<line class="cls-11" x1="1.04" y1="45" x2="74.48" y2="45">
</line>
<line class="cls-11" x1="1.04" y1="41" x2="74.48" y2="41">
</line>
<line class="cls-11" x1="1.04" y1="37" x2="74.48" y2="37">
</line>
<line class="cls-11" x1="1.04" y1="33" x2="74.48" y2="33">
</line>
<line class="cls-11" x1="1.04" y1="29" x2="74.48" y2="29">
</line>
<line class="cls-11" x1="1.04" y1="25" x2="74.48" y2="25">
</line>
<line class="cls-11" x1="1.04" y1="21" x2="74.48" y2="21">
</line>
<line class="cls-11" x1="1.04" y1="17" x2="74.48" y2="17">
</line>
<line class="cls-11" x1="1.04" y1="13" x2="74.48" y2="13">
</line>
<line class="cls-11" x1="1.04" y1="9" x2="74.48" y2="9">
</line>
<line class="cls-11" x1="1.04" y1="5" x2="74.48" y2="5">
</line>
<line class="cls-11" x1="1.04" y1="1" x2="74.48" y2="1">
</line>
</g>


<g >
<line class="cls-11" x1="-73" y1="71" x2=".44" y2="71">
</line>
<line class="cls-11" x1="-73" y1="67" x2=".44" y2="67">
</line>
<line class="cls-11" x1="-73" y1="63" x2=".44" y2="63">
</line>
<line class="cls-11" x1="-73" y1="59" x2=".44" y2="59">
</line>
<line class="cls-11" x1="-73" y1="55" x2=".44" y2="55">
</line>
<line class="cls-11" x1="-73" y1="51" x2=".44" y2="51">
</line>
<line class="cls-11" x1="-73" y1="47" x2=".44" y2="47">
</line>
<line class="cls-11" x1="-73" y1="43" x2=".44" y2="43">
</line>
<line class="cls-11" x1="-73" y1="39" x2=".44" y2="39">
</line>
<line class="cls-11" x1="-73" y1="35" x2=".44" y2="35">
</line>
<line class="cls-11" x1="-73" y1="31" x2=".44" y2="31">
</line>
<line class="cls-11" x1="-73" y1="27" x2=".44" y2="27">
</line>
<line class="cls-11" x1="-73" y1="23" x2=".44" y2="23">
</line>
<line class="cls-11" x1="-73" y1="19" x2=".44" y2="19">
</line>
<line class="cls-11" x1="-73" y1="15" x2=".44" y2="15">
</line>
<line class="cls-11" x1="-73" y1="11" x2=".44" y2="11">
</line>
<line class="cls-11" x1="-73" y1="7" x2=".44" y2="7">
</line>
<line class="cls-11" x1="-73" y1="3" x2=".44" y2="3">
</line>
<line class="cls-11" x1="-70.96" y1="69" x2="2.48" y2="69">
</line>
<line class="cls-11" x1="-70.96" y1="65" x2="2.48" y2="65">
</line>
<line class="cls-11" x1="-70.96" y1="61" x2="2.48" y2="61">
</line>
<line class="cls-11" x1="-70.96" y1="57" x2="2.48" y2="57">
</line>
<line class="cls-11" x1="-70.96" y1="53" x2="2.48" y2="53">
</line>
<line class="cls-11" x1="-70.96" y1="49" x2="2.48" y2="49">
</line>
<line class="cls-11" x1="-70.96" y1="45" x2="2.48" y2="45">
</line>
<line class="cls-11" x1="-70.96" y1="41" x2="2.48" y2="41">
</line>
<line class="cls-11" x1="-70.96" y1="37" x2="2.48" y2="37">
</line>
<line class="cls-11" x1="-70.96" y1="33" x2="2.48" y2="33">
</line>
<line class="cls-11" x1="-70.96" y1="29" x2="2.48" y2="29">
</line>
<line class="cls-11" x1="-70.96" y1="25" x2="2.48" y2="25">
</line>
<line class="cls-11" x1="-70.96" y1="21" x2="2.48" y2="21">
</line>
<line class="cls-11" x1="-70.96" y1="17" x2="2.48" y2="17">
</line>
<line class="cls-11" x1="-70.96" y1="13" x2="2.48" y2="13">
</line>
<line class="cls-11" x1="-70.96" y1="9" x2="2.48" y2="9">
</line>
<line class="cls-11" x1="-70.96" y1="5" x2="2.48" y2="5">
</line>
<line class="cls-11" x1="-70.96" y1="1" x2="2.48" y2="1">
</line>
</g>


</g>


</pattern>
</defs>



<g >
<path class="cls-1" d="M62.84,62.96l-1.97,10.89-31.35,4.13-20.38-4.78-1.59-11.18,14.73-3.78,.29-6.07-2.07-2.82-.75-6.85s-2.63-.1-3.85-2.07c-1.69-3.66-1.5-9.2-1.31-9.48,1.41-.56,3.26-.74,3.26-.74,0,0-.06-.92,.06-2.49,.18-2.55,.81-6.81,2.88-11.51,6.19-6.01,20.18-7.98,29.19,.28,1.51,4.45,2.36,10.06,2.68,12.45,.09,.74,.14,1.17,.14,1.17,0,0,2.53,.37,3.1,1.03,.47,5.82-2.16,10.7-2.16,10.7l-2.91,1.03-1.22,6.76-2.07,2.91,.85,5.07,14.45,5.35Z">
</path>
<path class="cls-2" d="M35.13,54.37v-21.5c0-7.58,5.92-13.84,13.49-14.26h0s4.11,10.89,4.11,10.89c0,0-1.5,6.93-2.49,10.63s-.37,10.14-.37,10.14c0,0-4.43,4.97-7.95,7.05-.09,1.9-.54,2.08-.54,2.08,0,0,0,0,0,0-3.2,.7-6.23-1.75-6.23-5.02Z">
</path>
<path d="M52.66,28.94l-.1,.3-4.11-10.89s-.82,1.44-2.98,1.65c-6.88-1.24-17.67-.21-20.55-.21s-2.98-1.85-2.98-1.85l-4.03,9.78c.18-2.55,.81-6.81,2.88-11.51,6.19-6.01,20.18-7.98,29.19,.28,1.51,4.45,2.36,10.06,2.68,12.45Z">
</path>
<path class="cls-3" d="M39.82,35.38s3.19-1.38,4.79-1.28c2.45,.32,3.19,.85,3.19,.85,0,0-1.28,1.49-5.85,2.34-2.66-.85-2.13-1.91-2.13-1.91Z">
</path>
<path class="cls-3" d="M30.45,35.38s-3.19-1.38-4.79-1.28c-2.45,.32-3.19,.85-3.19,.85,0,0,1.28,1.49,5.85,2.34,2.66-.85,2.13-1.91,2.13-1.91Z">
</path>
<path class="cls-2" d="M29.31,47.99s7.93-1.4,11.3,0c-2.81,3.23-8.14,3.09-11.3,0Z">
</path>
<path d="M18.14,29.6s-2.1,.45-3.8,1.95c-.2,6.07,2.46,10.1,2.46,10.1,0,0,1.5,1.04,3.61,1.19-.49-8.11-1.62-12.65-2.26-13.24Z">
</path>
<path class="cls-2" d="M22.54,37.96s3.97,.76,5.84,1.05c2.04-.93,2.74-1.52,2.74-1.52,0,0-1.46,2.86-4.73,4.44-2.98-2.16-3.85-3.97-3.85-3.97Z">
</path>
<path d="M41.67,59.37l-18.7,15.56-13.8-3.06-1.62-9.85,14.77-4.59,.37-4.91,5.83,4.54,.65,2.22s7.31,.83,12.5,.09Z">
</path>
<path class="cls-1" d="M35.74,20.48c3.05,0,8.7,.86,9.35,.97h0s.03,0,.04,0c.06,0,.24,.04,.5,.04,.5,0,1.32-.11,2.17-.7,.84,2.11,1.93,5.46,3.1,9.55-.01,.49-.04,.96-.06,1.34-.17,1.7-.36,3.12-.61,4.35l-.03,.16c-.01,.07-.03,.13-.03,.22-.13,.66-.29,1.31-.47,1.94-.18,.37-.28,.84-.3,1.2h-.01s-1.16,9.62-1.16,9.62l-.07,.09c-1.54,1.84-4.4,5.27-7.05,6.56-.22,.11-.4,.3-.49,.53-.02,.06-.03,.07-.23,.74-.07,.23-.15,.49-.22,.73-1.67,.46-3.35,.7-4.98,.7s-3.37-.24-4.95-.71c-.03-.11-.07-.22-.1-.34-.12-.4-.24-.8-.28-.94-.05-.29-.23-.54-.5-.69-2.45-1.36-4.75-3.54-7.22-6.84-.08-1.5-.39-3.86-.7-6.15-.19-1.45-.37-2.81-.5-3.96-.02-.17-.07-.33-.14-.48-.21-1.18-.66-3.14-1.02-4.63-.17-1.26-.26-2.57-.28-3.9,.37-1.32,1.7-6.06,2.89-9.09,.85,.58,1.66,.69,2.15,.69,.13,0,.34,0,.53-.05,.48-.08,6.21-.97,9.36-.97h1.31m12.41-1.39c-.95,1.23-1.99,1.41-2.53,1.41-.2,0-.33-.03-.35-.03-.03-.01-6.14-.99-9.53-.99h-1.31c-3.39,0-9.5,.98-9.56,.99-.01,0-.14,.03-.34,.03-.52,0-1.56-.18-2.51-1.41-1.3,2.78-3.02,8.83-3.53,10.68,.02,1.66,.15,3.09,.3,4.21,.39,1.64,.86,3.69,1.05,4.81,.05,.06,.09,.14,.1,.23,.34,3.14,1.12,8.09,1.2,10.35,2.1,2.84,4.61,5.63,7.72,7.36,0,.06,.4,1.34,.56,1.89,1.85,.61,3.81,.91,5.76,.91s3.91-.32,5.78-.89c.17-.55,.55-1.86,.57-1.91,3-1.46,6.13-5.33,7.64-7.13,0,0,.92-7.6,1.2-9.92,0,0,0,0,0,0-.03,0,.16-.91,.26-.98,.2-.68,.38-1.41,.53-2.17v-.05s.02-.09,.05-.24c.3-1.53,.49-3.12,.62-4.45,.03-.49,.06-1.02,.07-1.57-.33-1.15-2.32-8.1-3.75-11.13h0Z">
</path>
<path class="cls-16" d="M30.44,67.48s12.88,2.06,17.77-5.32c-.48-3.75-.12-4.66-.12-4.66l15.11,5.44-2.9,11.06-21.1,4.9-16.75-5.44,7.98-5.99Z">
</path>
<path class="cls-2" d="M46.27,55.6l-2.79,2.14-.11,1.84-7.58,6.38s5.9,.54,10.98-4.22c-.26-2.65-.51-6.14-.51-6.14Z">
</path>
<path class="cls-5" d="M48.22,16.57s-12.91-4.87-25.57-.57c5.11-4.87,19.72-7.71,25.57,.57Z">
</path>
<path class="cls-4" d="M21.16,35.3s-1.41-3.09,1.69-5.12c2.14-.9,2.64-1.01,2.64-1.01l6.58,1.69-1.61,4.52s-2.81-1.57-4.79-1.28-4.51,1.19-4.51,1.19Z">
</path>
<path class="cls-4" d="M49.19,35.3s1.77-3.02-1.69-5.12c-2.14-.9-2.64-1.01-2.64-1.01l-6.58,1.69,1.61,4.52s2.81-1.57,4.79-1.28,4.51,1.19,4.51,1.19Z">
</path>
<path class="cls-14" d="M49.61,63.16s-2.3,3.84-9.91,5.53c4.07,2.76,8.52,7.68,8.52,7.68l12.13-2.76,1.31-7.83s-6.07-.08-12.06-2.61Z">
</path>
<path class="cls-2" d="M52.95,30.57l1.6,1.85s-.51,7.08-1.1,9.02c3.12-6.66,2.45-10.31,2.45-10.31,0,0-1.86-.65-2.95-.57Z">
</path>
<path class="cls-7" d="M18.01,30.45s-1.84-.74-3.68,.74c-.09,6.34,2.21,10.2,2.21,10.2,0,0,1.56,1.29,3.12,1.38">
</path>
<path class="cls-8" d="M51.64,36.61s2.67-10.18-1.88-19.97c-4.27-4.49-10.23-5.42-13.12-5.6-.15,0-.29-.01-.44-.01h-2.12c-.15,0-.3,0-.45,.02-2.93,.2-8.79,1.17-13,5.6-4.55,9.79-1.88,19.97-1.88,19.97">
</path>
<path class="cls-7" d="M52.38,30.45s1.84-.74,3.68,.74c.09,6.34-2.21,10.2-2.21,10.2,0,0-1.56,1.29-3.12,1.38">
</path>
<path d="M19.94,39.02c.34,3.14,1.12,8.08,1.2,10.35,2.1,2.84,4.62,5.63,7.72,7.36,0,.07,.61,2,.64,2.13,0,0-.31-.31-.31-.31,1.91,.67,3.96,.99,6,.98,2.04,0,4.07-.34,6.02-.96l-.32,.31c.05-.12,.62-2.1,.64-2.16,3-1.46,6.13-5.33,7.63-7.13,0,0,1.28-10.57,1.28-10.57,.07-.64,1.08-.54,.99,.12,0,0-1.28,10.58-1.28,10.58,0,0-.02,.13-.02,.13-2.2,3-4.69,5.78-7.95,7.66,0,0,.25-.32,.25-.32l-.6,2.02-.07,.23c-4.15,1.38-8.75,1.5-12.91,.04,0,0-.24-.08-.24-.08,0,0-.07-.23-.07-.23l-.59-1.98s.24,.32,.24,.32c-3.22-1.86-5.69-4.61-7.88-7.56,0,0-.07-.1-.07-.1l-.02-.13c-.44-3.52-.89-7.05-1.28-10.58-.06-.63,.9-.77,.99-.12h0Z">
</path>
<path d="M21.49,31.35c.9-1.16,2.23-2.34,3.85-2.55,0,0,6.96,1.02,6.96,1.02l-.53,2.11-6.63-2.31c-.58-.02-2.76,.74-3.66,1.74h0Z">
</path>
<path d="M30.74,35.47c-1.5-.64-3.19-1.22-4.81-1.03-1.03,.26-2.67,.62-3.7,1.23,0,0-.02-.77-.02-.77,1.93,1.23,4.29,1.76,6.52,2.28,0,0-.08,.01-.08,.01,.49-.14,.96-.37,1.4-.67-.34,.42-.78,.74-1.27,1-2.69-.02-5.5-.58-7.73-2.21,1.38-1.15,3.11-1.4,4.79-1.7,1.84-.05,3.5,.77,4.89,1.87h0Z">
</path>
<path d="M48.88,31.35c-.89-.99-3.07-1.76-3.66-1.74,0,0-6.63,2.31-6.63,2.31l-.53-2.11,6.96-1.02c1.63,.21,2.95,1.39,3.85,2.55h0Z">
</path>
<path d="M39.63,35.47c1.39-1.09,3.05-1.92,4.89-1.87,1.69,.3,3.41,.55,4.79,1.7-2.23,1.63-5.03,2.2-7.73,2.21-.49-.25-.94-.58-1.27-1,.44,.3,.91,.53,1.4,.67,0,0-.08-.01-.08-.01,2.23-.52,4.59-1.05,6.52-2.28,0,0-.02,.77-.02,.77-1.02-.6-2.67-.96-3.7-1.23-1.62-.2-3.3,.39-4.81,1.03h0Z">
</path>
<path d="M38.2,40.31c.47,.52,.68,1.25,.74,1.96-1.25,.98-2.55,1.85-3.88,2.68-1.33-.83-2.64-1.7-3.89-2.68,0,0,.01-.13,.01-.13,.07-.66,.28-1.34,.72-1.83-.2,.61-.2,1.23-.14,1.83l-.14-.25c1.28,.61,2.51,1.31,3.72,2.05h-.55c1.21-.74,2.44-1.44,3.72-2.05l-.14,.25c.06-.6,.05-1.22-.16-1.83h0Z">
</path>
<path class="cls-7" d="M52.43,30.27s-2.64-9.46-4.23-12.17c-1.23,2.23-2.82,1.88-2.82,1.88,0,0-6.17-1-9.64-1h-1.32c-3.47,0-9.64,1-9.64,1,0,0-1.59,.35-2.82-1.88-1.59,2.7-4.11,12.11-4.11,12.11">
</path>
<path d="M29.8,45.02c-.79,1.21-2,1.38-3.04,2.43,.03-1.33,1.6-3.02,3.04-2.43h0Z">
</path>
<path d="M40.27,45.02c1.45-.59,3.01,1.1,3.04,2.43-1.05-1.06-2.25-1.22-3.04-2.43h0Z">
</path>
<path class="cls-7" d="M42.53,46.17l-1.57,1.76s-2.72-.61-5.66-.61h-.23c-2.94,0-5.66,.61-5.66,.61l-1.57-1.76">
</path>
<path class="cls-7" d="M29.41,47.93s2,2.61,5.75,2.61,5.8-2.61,5.8-2.61">
</path>
<path d="M30.69,51.34c1.21,1.14,2.98,.92,4.52,.97,1.2-.02,2.4,0,3.54-.34,.36-.12,.73-.28,.91-.67,.04,.45-.33,.86-.69,1.11-1.93,1.27-7.35,1.5-8.28-1.07h0Z">
</path>
<path class="cls-7" d="M47.73,52.14l.34,10.01s-3.16,5.42-12.48,5.42h-.79c-9.32,0-12.48-5.42-12.48-5.42l.34-10.01">
</path>
<line class="cls-7" x1="22.43" y1="57.42" x2="5.11" y2="63.38">
</line>
<line class="cls-7" x1="47.68" y1="57.42" x2="65" y2="63.38">
</line>
<path class="cls-14" d="M15.02,31.84c1.18,2.7,1.59,5.74,2.36,8.55,0,0-.18-.24-.18-.24,.62,.68,1.22,1.35,1.97,1.91,0,0-.02,.1-.02,.1-.93-.27-1.74-.84-2.47-1.45-1.21-2.79-1.5-5.86-1.76-8.87,0,0,.1,0,.1,0h0Z">
</path>
<path class="cls-14" d="M9.7,62.57c3.75-1.28,8.98-3.2,12.71-4.36,0,0,.03,.09,.03,.09-.74,1.29-1.84,1.53-2.91,1.88-3.16,.95-6.66,2.2-9.84,2.39h0Z">
</path>
</g>




 <g
     id="g2850">
    <g
       id="g2837">
      <path
         id="path1951"
         d="M 0.056640625 0.04296875 L 0.056640625 79.943359 L 69.308594 79.943359 L 69.308594 0.04296875 L 0.056640625 0.04296875 z M 33.615234 3.5957031 C 34.206332 3.5957038 34.786991 3.6051034 35.421875 3.6152344 C 44.430653 3.7671809 53.471255 5.1336733 61.560547 7.5546875 L 62.064453 7.7070312 L 62.25 8.1640625 C 66.070247 17.605006 66.990234 28.726438 66.990234 40.0625 C 66.990234 51.398562 65.972723 63.025755 61.988281 72.578125 L 61.791016 73.044922 L 61.275391 73.185547 C 53.273669 75.403966 44.691921 76.529297 35.759766 76.529297 C 35.212453 76.529297 34.675812 76.519896 34.150391 76.509766 L 33.943359 76.509766 C 24.901742 76.357819 15.860367 74.989738 7.7929688 72.558594 L 7.2890625 72.40625 L 7.1035156 71.951172 C 3.2942144 62.520359 2.375 51.369168 2.375 40.0625 C 2.375 28.755832 3.3819737 17.127318 7.3554688 7.5546875 L 7.5527344 7.0898438 L 8.0664062 6.9472656 C 15.509867 4.890923 23.785212 3.7371557 32.005859 3.6054688 C 32.542226 3.5953387 33.078867 3.5957031 33.615234 3.5957031 z "
         style="opacity:1;vector-effect:none;fill:#ffffff;fill-opacity:1;fill-rule:nonzero;stroke:none;stroke-width:1.95200002;stroke-linecap:butt;stroke-linejoin:miter;stroke-miterlimit:4;stroke-dasharray:none;stroke-dashoffset:0;stroke-opacity:1" />
    </g>
    <path
       id="path1154-8-2"
       d="m 33.675163,6.6112954 c 0.557696,0 1.115392,0.00956 1.683415,0.019115 8.427403,0.14336 16.803167,1.4049288 24.363042,3.6700176 3.573384,8.830981 4.443772,19.417362 4.443772,29.761551 0,10.344189 -0.95301,21.39888 -4.68131,30.334991 -7.435942,2.064385 -15.429581,3.274388 -23.774362,3.274388 -0.506058,0 -1.012115,-0.0096 -1.518172,-0.01911 h -0.17557 C 25.56792,73.508883 17.192156,72.088619 9.6426089,69.813973 6.0795528,61.002107 5.2088244,50.415411 5.2088244,40.061979 c 0,-10.353432 0.95335,-21.389323 4.6609939,-30.325434 C 16.820359,7.8155201 24.462856,6.7450981 32.177647,6.6208528 c 0.49573,-0.00956 1.001787,-0.00956 1.497516,-0.00956 m 0,-0.9557337 c -0.506057,0 -1.012114,0 -1.518171,0.00956 C 24.40089,5.7893644 16.593149,6.8789009 9.570315,8.8190405 L 9.0849131,8.9528432 8.8990146,9.3924808 C 5.1500599,18.424166 4.1999116,29.394246 4.1999116,40.061979 c 0,10.667733 0.8675267,21.188618 4.461566,30.0865 l 0.1755708,0.430081 0.4750741,0.14336 c 7.6115135,2.293761 16.1421925,3.584001 24.6728715,3.727361 h 0.196227 c 0.495729,0.0096 1.001786,0.01911 1.518171,0.01911 8.427403,0 16.524318,-1.060864 24.073866,-3.153921 l 0.485403,-0.133802 0.185898,-0.439639 c 3.759282,-9.01257 4.719759,-19.983589 4.719759,-30.679055 0,-10.695466 -0.867528,-21.188618 -4.471894,-30.0960578 L 60.516853,9.5358409 60.041779,9.3924808 C 52.409609,7.108277 43.87893,5.8180364 35.379234,5.6746763 34.780227,5.6651187 34.232859,5.6555621 33.675163,5.6555615 Z"
       style="fill:#ff0000;stroke:#ffffff;stroke-width:1.84341729;stroke-miterlimit:4;stroke-dasharray:none" />
    <path
       id="path1154"
       d="m 33.614853,4.6077955 c 0.591098,0 1.182197,0.01013 1.784241,0.02026 8.932155,0.1519464 17.809578,1.4890758 25.822246,3.8898304 3.787408,9.3599041 4.709928,20.5803481 4.709928,31.5440931 0,10.963745 -1.01009,22.680548 -4.961693,32.151879 -7.881312,2.18803 -16.353723,3.302304 -25.198307,3.302304 -0.536368,0 -1.072735,-0.01013 -1.609102,-0.02026 H 33.97608 C 25.022033,75.343956 16.14461,74.006827 8.1428892,71.595943 4.3664269,62.256298 3.443547,51.035521 3.443547,40.061979 c 0,-10.973542 1.01045,-22.670418 4.9401601,-32.1417498 7.3668369,-2.036083 15.4670749,-3.170617 23.6439369,-3.3023039 0.525421,-0.01013 1.061788,-0.01013 1.587209,-0.01013 m 0,-1.0129766 c -0.536367,0 -1.072734,0 -1.609101,0.01013 C 23.785105,3.7366356 15.509726,4.891429 8.0662653,6.9477716 L 7.5517907,7.0895883 7.3547579,7.5555576 C 3.3812628,17.128188 2.3742062,28.755311 2.3742062,40.061979 c 0,11.306668 0.9194864,22.457692 4.7287876,31.888505 l 0.1860865,0.45584 0.5035283,0.151947 c 8.0673984,2.431144 17.1090154,3.798662 26.1506324,3.950608 h 0.207979 c 0.525421,0.01013 1.061788,0.02026 1.609101,0.02026 8.932155,0 17.514028,-1.124404 25.51575,-3.342823 l 0.514475,-0.141816 0.197032,-0.46597 c 3.984442,-9.55237 5.002445,-21.180489 5.002445,-32.516551 0,-11.336062 -0.919487,-22.457692 -4.739734,-31.8986353 L 62.064202,7.7075041 61.560674,7.5555576 C 53.471382,5.1345434 44.429765,3.7670249 35.420987,3.6150784 c -0.634884,-0.01013 -1.215036,-0.020259 -1.806134,-0.02026 z"
       style="fill:#000000;stroke:#000000;stroke-width:1.95382714;stroke-miterlimit:4;stroke-dasharray:none" />
    <g
       id="g1810">
      <path
         d="M 6.5134911,7.7433673 C 5.6489029,6.8479453 4.058602,6.5681013 3.6272194,7.3820013 3.284151,8.0292783 3.3625296,8.5309135 4.395235,8.9201755 3.2963719,9.5187755 1.4857674,9.4447465 1.1893447,7.4467713 0.95320848,5.8551433 2.674739,4.8863543 3.1399725,5.0916244 3.0034432,3.6818714 1.8221094,4.0692802 0.95849208,3.2813384 0.34259068,2.7194046 0.23126071,-0.02624603 0.0561761,0.04378767 -0.0138576,0.21887227 2.7317937,0.33020157 3.2937267,0.94610377 4.0816685,1.8097211 3.6942598,2.9910547 5.1040128,3.1275841 4.8987425,2.6623507 5.8675315,0.94082017 7.4591593,1.1769564 9.4571345,1.4733791 9.5311625,3.2839847 8.9325635,4.3828467 8.5433008,3.3501417 8.041666,3.2717627 7.3943894,3.6148312 6.5804899,4.0462137 6.8603354,5.6365129 7.7557553,6.5011023"
         style="fill:#000000;stroke:#000000;stroke-width:0.1112323px;stroke-linecap:butt;stroke-linejoin:miter;stroke-opacity:1"
         id="path1737-3" />
      <path
         d="m 62.850738,7.7433673 c 0.864588,-0.895422 2.454889,-1.175266 2.886271,-0.361366 0.343069,0.647277 0.26469,1.148912 -0.768015,1.538174 1.098863,0.5986 2.909467,0.524571 3.20589,-1.473404 0.236136,-1.591628 -1.485394,-2.560417 -1.950628,-2.3551469 0.13653,-1.409753 1.317863,-1.0223442 2.181481,-1.810286 0.615901,-0.5619338 0.727231,-3.30758442 0.902316,-3.23755072 0.07003,0.1750846 -2.675618,0.2864139 -3.237551,0.9023161 C 65.28256,1.8097211 65.669969,2.9910547 64.260216,3.1275841 64.465486,2.6623507 63.496697,0.94082018 61.905069,1.1769564 c -1.997975,0.2964227 -2.072003,2.1070283 -1.473404,3.2058903 0.389263,-1.032705 0.890898,-1.111084 1.538174,-0.7680155 0.8139,0.4313825 0.534054,2.0216817 -0.361366,2.8862711"
         style="fill:#000000;stroke:#000000;stroke-width:0.1112323px;stroke-linecap:butt;stroke-linejoin:miter;stroke-opacity:1"
         id="path1737-3-5" />
      <path
         d="m 62.850738,72.244244 c 0.864588,0.895422 2.454889,1.175266 2.886272,0.361366 0.343068,-0.647277 0.264689,-1.148912 -0.768016,-1.538174 1.098863,-0.5986 2.909468,-0.524571 3.20589,1.473404 0.236137,1.591628 -1.485394,2.560417 -1.950628,2.355147 0.13653,1.409753 1.317864,1.022344 2.181481,1.810286 0.615901,0.561934 0.727231,3.307584 0.902316,3.237551 0.07003,-0.175085 -2.675618,-0.286414 -3.237551,-0.902317 -0.787942,-0.863617 -0.400533,-2.04495 -1.810286,-2.18148 0.20527,0.465234 -0.763519,2.186764 -2.355146,1.950628 -1.997976,-0.296423 -2.072004,-2.107028 -1.473405,-3.20589 0.389263,1.032705 0.890898,1.111084 1.538175,0.768015 0.813899,-0.431382 0.534054,-2.021682 -0.361366,-2.886271"
         style="fill:#000000;stroke:#000000;stroke-width:0.1112323px;stroke-linecap:butt;stroke-linejoin:miter;stroke-opacity:1"
         id="path1737-3-7" />
      <path
         d="M 6.513491,72.244245 C 5.648903,73.139667 4.058602,73.419511 3.62722,72.605611 3.284151,71.958334 3.36253,71.456699 4.395235,71.067437 c -1.098863,-0.5986 -2.909467,-0.524571 -3.20589,1.473404 -0.23613599,1.591628 1.485394,2.560417 1.950628,2.355147 -0.13653,1.409753 -1.317863,1.022344 -2.18148099,1.810286 -0.615901,0.561933 -0.727231,3.307584 -0.902316,3.23755 C -0.01385399,79.76874 2.731794,79.65741 3.293727,79.041508 4.081669,78.177891 3.69426,76.996557 5.104013,76.860028 4.898743,77.325261 5.867532,79.046792 7.45916,78.810656 9.457135,78.514233 9.531163,76.703627 8.932564,75.604765 8.543301,76.63747 8.041666,76.715849 7.39439,76.372781 6.58049,75.941398 6.860336,74.351099 7.755756,73.48651"
         style="fill:#000000;stroke:#000000;stroke-width:0.1112323px;stroke-linecap:butt;stroke-linejoin:miter;stroke-opacity:1"
         id="path1737-3-5-5" />
    </g>
    <path
       id="path1154-9"
       d="m 33.712865,7.4258691 c 0.536813,0 1.07363,0.00933 1.620386,0.01865 8.111875,0.1398689 16.174044,1.3707167 23.450873,3.5806479 3.439594,8.615932 4.277395,18.944521 4.277395,29.036812 0,10.092292 -0.917329,20.877786 -4.506039,29.596289 -7.157536,2.014114 -14.851888,3.03982 -22.884234,3.03982 -0.487111,0 -0.974221,-0.0094 -1.461331,-0.01865 H 34.040918 C 25.909161,72.53957 17.846991,71.308722 10.580105,69.089467 7.1504515,60.492184 6.3123238,50.163289 6.3123238,40.061979 c 0,-10.101311 0.9176558,-20.868461 4.4864832,-29.586965 6.690308,-1.8742449 14.046665,-2.9186005 21.472608,-3.0398203 0.47717,-0.00933 0.964281,-0.00933 1.44145,-0.00933 m 0,-0.9324602 c -0.487111,0 -0.974221,0 -1.46133,0.00933 C 24.785826,6.6239532 17.270413,7.686958 10.510517,9.5798526 L 10.043289,9.710397 9.8643508,10.139328 c -3.6085914,8.811751 -4.5231655,19.514693 -4.5231655,29.922651 0,10.407958 0.8350459,20.672644 4.294522,29.353849 l 0.1689973,0.419608 0.4572874,0.13987 c 7.326533,2.237904 15.537818,3.496724 23.749103,3.636593 h 0.188879 c 0.47717,0.0094 0.96428,0.01865 1.461331,0.01865 8.111875,0 15.905636,-1.035031 23.172525,-3.077119 l 0.467228,-0.130544 0.178938,-0.428932 c 3.618533,-8.793101 4.543048,-19.496959 4.543048,-29.931975 0,-10.435016 -0.835047,-20.672644 -4.304463,-29.363174 l -0.168997,-0.419609 -0.457288,-0.13987 C 51.74588,7.9107484 43.534594,6.6519271 35.353133,6.512058 34.776554,6.502738 34.249678,6.493409 33.712865,6.493409 Z"
       style="fill:#000000;stroke:none;stroke-width:1.78642213;stroke-miterlimit:4;stroke-dasharray:none" />
    <path
       id="path1154-9-3"
       d="m 33.712865,7.4258686 c 0.536813,0 1.07363,0.00933 1.620386,0.01865 8.111875,0.1398689 16.174044,1.3707167 23.450873,3.5806484 3.439594,8.615932 4.277395,18.944521 4.277395,29.036812 0,10.092292 -0.917329,20.877786 -4.506039,29.596288 -7.157536,2.014114 -14.851888,3.03982 -22.884234,3.03982 -0.487111,0 -0.974221,-0.0094 -1.461331,-0.01865 H 34.040918 C 25.909161,72.539569 17.846991,71.308722 10.580105,69.089466 7.1504515,60.492184 6.3123238,50.163288 6.3123238,40.061979 c 0,-10.101312 0.9176558,-20.868461 4.4864832,-29.586965 6.690308,-1.8742454 14.046665,-2.918601 21.472608,-3.0398208 0.47717,-0.00933 0.964281,-0.00933 1.44145,-0.00933 m 0,-0.9324602 c -0.487111,0 -0.974221,0 -1.46133,0.00933 C 24.785826,6.6239527 17.270413,7.6869575 10.510517,9.5798521 L 10.043289,9.7103965 9.8643508,10.139328 C 6.2557594,18.951079 5.3411853,29.65402 5.3411853,40.061979 c 0,10.407958 0.8350459,20.672643 4.294522,29.353849 l 0.1689973,0.419608 0.4572874,0.13987 c 7.326533,2.237904 15.537818,3.496724 23.749103,3.636593 h 0.188879 c 0.47717,0.0094 0.96428,0.01865 1.461331,0.01865 8.111875,0 15.905636,-1.035032 23.172525,-3.077119 l 0.467228,-0.130544 0.178938,-0.428932 c 3.618533,-8.793101 4.543048,-19.49696 4.543048,-29.931975 0,-10.435016 -0.835047,-20.672644 -4.304463,-29.363175 l -0.168997,-0.419609 -0.457288,-0.13987 C 51.74588,7.9107479 43.534594,6.6519266 35.353133,6.5120575 34.776554,6.5027375 34.249678,6.4934085 33.712865,6.4934085 Z"
       style="fill:#000000;stroke:none;stroke-width:1.78642213;stroke-miterlimit:4;stroke-dasharray:none" />
  </g>
</svg>
