<?xml version="1.0" encoding="UTF-8"?><svg id="Capa_2" xmlns="http://www.w3.org/2000/svg" xmlns:xlink="http://www.w3.org/1999/xlink" viewBox="0 0 69.02 80"><defs><style>.cls-1{fill:#c89aed;}.cls-2{fill:#fff;}.cls-3{fill:#f8ffbf;}.cls-4{fill:#7b7be8;}.cls-5{fill:#a88347;}.cls-6{fill:#782ab5;}.cls-7,.cls-8,.cls-9,.cls-10,.cls-11{fill:none;}.cls-7,.cls-11{stroke:#000;stroke-miterlimit:10;}.cls-12{fill:#1c46ff;}.cls-8{stroke:#deb778;stroke-dasharray:0 0 0 4.06;stroke-linecap:round;stroke-linejoin:round;}.cls-13{fill:#deb778;}.cls-14{fill:url(#USGS_19_Inundación_de_tierra_2);}.cls-10{stroke:#1d1d1b;stroke-dasharray:0 0 2 2;stroke-width:.3px;}.cls-15{fill:#fcf0c5;}.cls-11{stroke-width:.5px;}</style><pattern id="USGS_19_Inundación_de_tierra_2" x="0" y="0" width="72" height="72" patternTransform="translate(-164.48 -17071) rotate(-90)" patternUnits="userSpaceOnUse" viewBox="0 0 72 72"><g><rect class="cls-9" width="72" height="72"/><g><line class="cls-10" x1="71" y1="71" x2="144.44" y2="71"/><line class="cls-10" x1="71" y1="67" x2="144.44" y2="67"/><line class="cls-10" x1="71" y1="63" x2="144.44" y2="63"/><line class="cls-10" x1="71" y1="59" x2="144.44" y2="59"/><line class="cls-10" x1="71" y1="55" x2="144.44" y2="55"/><line class="cls-10" x1="71" y1="51" x2="144.44" y2="51"/><line class="cls-10" x1="71" y1="47" x2="144.44" y2="47"/><line class="cls-10" x1="71" y1="43" x2="144.44" y2="43"/><line class="cls-10" x1="71" y1="39" x2="144.44" y2="39"/><line class="cls-10" x1="71" y1="35" x2="144.44" y2="35"/><line class="cls-10" x1="71" y1="31" x2="144.44" y2="31"/><line class="cls-10" x1="71" y1="27" x2="144.44" y2="27"/><line class="cls-10" x1="71" y1="23" x2="144.44" y2="23"/><line class="cls-10" x1="71" y1="19" x2="144.44" y2="19"/><line class="cls-10" x1="71" y1="15" x2="144.44" y2="15"/><line class="cls-10" x1="71" y1="11" x2="144.44" y2="11"/><line class="cls-10" x1="71" y1="7" x2="144.44" y2="7"/><line class="cls-10" x1="71" y1="3" x2="144.44" y2="3"/></g>
<g><line class="cls-10" x1="-1" y1="71" x2="72.44" y2="71"/><line class="cls-10" x1="-1" y1="67" x2="72.44" y2="67"/><line class="cls-10" x1="-1" y1="63" x2="72.44" y2="63"/><line class="cls-10" x1="-1" y1="59" x2="72.44" y2="59"/><line class="cls-10" x1="-1" y1="55" x2="72.44" y2="55"/><line class="cls-10" x1="-1" y1="51" x2="72.44" y2="51"/><line class="cls-10" x1="-1" y1="47" x2="72.44" y2="47"/><line class="cls-10" x1="-1" y1="43" x2="72.44" y2="43"/><line class="cls-10" x1="-1" y1="39" x2="72.44" y2="39"/><line class="cls-10" x1="-1" y1="35" x2="72.44" y2="35"/><line class="cls-10" x1="-1" y1="31" x2="72.44" y2="31"/><line class="cls-10" x1="-1" y1="27" x2="72.44" y2="27"/><line class="cls-10" x1="-1" y1="23" x2="72.44" y2="23"/><line class="cls-10" x1="-1" y1="19" x2="72.44" y2="19"/><line class="cls-10" x1="-1" y1="15" x2="72.44" y2="15"/><line class="cls-10" x1="-1" y1="11" x2="72.44" y2="11"/><line class="cls-10" x1="-1" y1="7" x2="72.44" y2="7"/><line class="cls-10" x1="-1" y1="3" x2="72.44" y2="3"/><line class="cls-10" x1="1.04" y1="69" x2="74.48" y2="69"/><line class="cls-10" x1="1.04" y1="65" x2="74.48" y2="65"/><line class="cls-10" x1="1.04" y1="61" x2="74.48" y2="61"/><line class="cls-10" x1="1.04" y1="57" x2="74.48" y2="57"/><line class="cls-10" x1="1.04" y1="53" x2="74.48" y2="53"/><line class="cls-10" x1="1.04" y1="49" x2="74.48" y2="49"/><line class="cls-10" x1="1.04" y1="45" x2="74.48" y2="45"/><line class="cls-10" x1="1.04" y1="41" x2="74.48" y2="41"/><line class="cls-10" x1="1.04" y1="37" x2="74.48" y2="37"/><line class="cls-10" x1="1.04" y1="33" x2="74.48" y2="33"/><line class="cls-10" x1="1.04" y1="29" x2="74.48" y2="29"/><line class="cls-10" x1="1.04" y1="25" x2="74.48" y2="25"/><line class="cls-10" x1="1.04" y1="21" x2="74.48" y2="21"/><line class="cls-10" x1="1.04" y1="17" x2="74.48" y2="17"/><line class="cls-10" x1="1.04" y1="13" x2="74.48" y2="13"/><line class="cls-10" x1="1.04" y1="9" x2="74.48" y2="9"/><line class="cls-10" x1="1.04" y1="5" x2="74.48" y2="5"/><line class="cls-10" x1="1.04" y1="1" x2="74.48" y2="1"/></g>
<g><line class="cls-10" x1="-73" y1="71" x2=".44" y2="71"/><line class="cls-10" x1="-73" y1="67" x2=".44" y2="67"/><line class="cls-10" x1="-73" y1="63" x2=".44" y2="63"/><line class="cls-10" x1="-73" y1="59" x2=".44" y2="59"/><line class="cls-10" x1="-73" y1="55" x2=".44" y2="55"/><line class="cls-10" x1="-73" y1="51" x2=".44" y2="51"/><line class="cls-10" x1="-73" y1="47" x2=".44" y2="47"/><line class="cls-10" x1="-73" y1="43" x2=".44" y2="43"/><line class="cls-10" x1="-73" y1="39" x2=".44" y2="39"/><line class="cls-10" x1="-73" y1="35" x2=".44" y2="35"/><line class="cls-10" x1="-73" y1="31" x2=".44" y2="31"/><line class="cls-10" x1="-73" y1="27" x2=".44" y2="27"/><line class="cls-10" x1="-73" y1="23" x2=".44" y2="23"/><line class="cls-10" x1="-73" y1="19" x2=".44" y2="19"/><line class="cls-10" x1="-73" y1="15" x2=".44" y2="15"/><line class="cls-10" x1="-73" y1="11" x2=".44" y2="11"/><line class="cls-10" x1="-73" y1="7" x2=".44" y2="7"/><line class="cls-10" x1="-73" y1="3" x2=".44" y2="3"/><line class="cls-10" x1="-70.96" y1="69" x2="2.48" y2="69"/><line class="cls-10" x1="-70.96" y1="65" x2="2.48" y2="65"/><line class="cls-10" x1="-70.96" y1="61" x2="2.48" y2="61"/><line class="cls-10" x1="-70.96" y1="57" x2="2.48" y2="57"/><line class="cls-10" x1="-70.96" y1="53" x2="2.48" y2="53"/><line class="cls-10" x1="-70.96" y1="49" x2="2.48" y2="49"/><line class="cls-10" x1="-70.96" y1="45" x2="2.48" y2="45"/><line class="cls-10" x1="-70.96" y1="41" x2="2.48" y2="41"/><line class="cls-10" x1="-70.96" y1="37" x2="2.48" y2="37"/><line class="cls-10" x1="-70.96" y1="33" x2="2.48" y2="33"/><line class="cls-10" x1="-70.96" y1="29" x2="2.48" y2="29"/><line class="cls-10" x1="-70.96" y1="25" x2="2.48" y2="25"/><line class="cls-10" x1="-70.96" y1="21" x2="2.48" y2="21"/><line class="cls-10" x1="-70.96" y1="17" x2="2.48" y2="17"/><line class="cls-10" x1="-70.96" y1="13" x2="2.48" y2="13"/><line class="cls-10" x1="-70.96" y1="9" x2="2.48" y2="9"/><line class="cls-10" x1="-70.96" y1="5" x2="2.48" y2="5"/><line class="cls-10" x1="-70.96" y1="1" x2="2.48" y2="1"/></g>
</g>
</pattern></defs><g id="Frame"><path class="cls-6" d="M64.02,40c0,11.47-1.89,22.39-5.5,31.74-7.2,2.16-14.94,3.26-23.02,3.26-.49,0-.98-.01-1.47-.02h-.17c-8.18-.15-16.29-1.47-23.6-3.85-3.45-9.22-5.26-19.93-5.26-31.13s1.89-22.38,5.48-31.73c6.73-2.01,14.13-3.13,21.6-3.26,.48-.01,.97-.01,1.45-.01,.54,0,1.08,.01,1.63,.02,8.16,.15,16.27,1.47,23.59,3.84,3.46,9.24,5.27,19.95,5.27,31.14Z"/><path class="cls-14" d="M34.03,5.59V74.98h-.17c-8.18-.15-16.29-1.47-23.6-3.85-3.45-9.22-5.26-19.93-5.26-31.13s1.89-22.38,5.48-31.73c6.73-2.01,14.13-3.13,21.6-3.26,.65,.16,1.3,.36,1.95,.58Z"/></g>
<g><path class="cls-1" d="M61.73,69.15c-3.78,5.92-5.72,6.73-5.72,6.73,0,0-14.99,2.25-29.07,.82-14.08-1.43-18.37-5.1-18.37-5.1v-4.08l14.8-6.12,.3-10-3.26-7.14s-2.35-.51-3.88-4.29c-1.53-3.77-1.33-6.73,.92-8.37-1.18-5.54-1.14-9.01-.98-10.67,.02-.23,.04-.45,.07-.65,.03-.19,.05-.32,.07-.41,.01-.04,.01-.07,.02-.1t.02-.02c.16-.19,1.29-1.47,3.34-2.96,.03-.02,.06-.04,.08-.06,3.58-2.59,9.93-5.81,18.8-5.12,5.92,1.32,7.86,4.08,8.06,5,6.33-.11,7.25,5.2,7.55,7.55,.31,2.34-1.63,8.46-1.63,8.46,0,0,.05,.04,.13,.13,.33,.36,1.16,1.49,.99,3.55-.2,2.55-3.16,8.16-5.1,8.06-2.04,4.38-3.26,7.14-3.26,7.14l.3,10.2s13.57,4.8,15.82,7.45Z"/><path class="cls-2" d="M34.92,53.31v-20.02c0-4.41,2.63-8.4,6.69-10.14l.09-.04c2.46,.39,6.19-.39,6.19-.39,0,0,2.16,7.17,2.16,8.64s-.2,8.94-.2,8.94c0,0-2.75,10.06-8.11,15.72-2.46,2.59-6.82,.87-6.82-2.71Z"/><path d="M52.98,32.75c-1.1,1.59-2.12,2.99-2.73,3.69-1.67-11.01-2.93-13.51-2.93-13.51,0,0-3.76,.69-5.99,.27-6.13,2.37-10.59,2.09-13.24,3.21,3.01-2.62,7.6-3.63,8.16-3.75-.79,.06-8.68,.69-10.53,.96-3.62,.14-4.18-.14-4.18-.14,0,0-2.65,9.76-2.65,13.52,0,0-2.81-10.7-2.42-16.07,.02-.23,.04-.45,.07-.65,.02-.15,.04-.28,.07-.41,.01-.04,.01-.07,.02-.1t.02-.02c1.13-1.07,2.25-2.05,3.34-2.96,.03-.02,.06-.04,.08-.06,3.58-2.59,9.93-5.81,18.8-5.12,5.92,1.32,7.86,4.08,8.06,5,6.33-.11,7.25,5.2,7.55,7.55,.31,2.34-1.63,8.46-1.63,8.46,0,0,.05,.04,.13,.13Z"/><path class="cls-5" d="M17.37,19.84s7.99-8.89,20.73-8.01c7.74,1.14,8.1,4.49,8.1,4.49,0,0-14.33-3.6-28.83,3.52Z"/><path class="cls-5" d="M53.84,26.86s-1.84-8.15-6.38-9.29c2.48-.92,7.94,1.35,6.38,9.29Z"/><path d="M17.88,32.27s-2.37,.27-2.58,3.66,2.7,8.02,5.11,8.85c-1.04-3.36-1.11-4.11-1.11-4.11v-3.12l-1.42-5.29Z"/><path d="M40.15,58.6l-18.15,15.85-11.76-2.9-.94-4.17,14.06-5.98,.6-9.79s3.66,5.96,6.99,7.24,5.37,1.36,9.2-.26Z"/><path class="cls-3" d="M31.06,35.92s-4.98-.57-7.49,.29c1.6,1.89,3.6,2.34,3.6,2.34,0,0,2.86-1.14,3.89-2.63Z"/><path class="cls-3" d="M45.85,35.95s-5.21-.52-7.52,0c3.05,2.31,3.87,2.68,3.87,2.68,0,0,2.6-1.41,3.65-2.68Z"/><path class="cls-2" d="M44.17,55.81l-9.34,8.9s5.94,.65,9.48-3.55c-.14-3.91-.14-5.36-.14-5.36Z"/><path d="M30.62,66.23s9.24,2.47,15.29-4.53c10.45,4.27,15.27,5.74,15.27,5.74l-1.64,5.68s-25.57,7.83-38.14,.34c6.03-5.17,9.21-7.23,9.21-7.23Z"/><path class="cls-1" d="M46.62,24.78c.44,1.49,1.06,3.71,1.42,5.25,.44,1.93,.44,7.91,.41,10.27-.32,1.24-2.72,10.08-8.33,15.68-.92,.98-2.35,1.76-4.12,2.25-.43,.12-.88,.17-1.32,.17s-.89-.06-1.31-.17c-1.78-.49-3.21-1.27-4.17-2.28-5.57-5.57-7.98-14.4-8.29-15.65-.04-2.36-.03-8.34,.4-10.27,.36-1.54,.98-3.75,1.42-5.24,.59,.15,1.34,.25,2.25,.25,.64,0,1.33-.05,2.06-.15-.4,.26-.77,.54-1.12,.83-.5,.42-.67,1.12-.42,1.73,.24,.56,.78,.92,1.38,.92,.05,0,.09,0,.14,0,.32-.03,.75-.14,1.93-.47,2.12-.58,6.06-1.67,9.39-1.97,.07,0,.15-.02,.22-.04,1.21-.29,2.3-.65,3.26-1.07,.89,.14,1.72,.21,2.49,.21,.95,0,1.71-.1,2.32-.25m.96-2.04s-.82,.79-3.27,.79c-.74,0-1.63-.07-2.7-.26-.92,.44-2.05,.84-3.41,1.17-4.81,.44-10.58,2.37-11.32,2.44,3.33-2.81,9.55-3.92,9.55-3.92,0,0-1.26-.19-3.23-.19-1.47,0-3.33,.11-5.36,.48-1.14,.21-2.09,.3-2.86,.3-2.44,0-3.21-.81-3.21-.81,0,0-1.33,4.36-1.93,6.96-.59,2.59-.44,10.8-.44,10.8,0,0,2.37,10.15,8.73,16.51,1.23,1.31,2.97,2.16,4.83,2.67,.56,.15,1.14,.22,1.71,.22s1.15-.08,1.71-.22c1.86-.51,3.6-1.36,4.83-2.67,6.37-6.36,8.73-16.51,8.73-16.51,0,0,.15-8.21-.44-10.8-.59-2.6-1.92-6.96-1.92-6.96h0Z"/><path class="cls-2" d="M31.07,38.1s-2.73,1.5-3.73,1.84c-2.56-.5-4.34-2.11-4.34-2.11,0,0,1.84,3.73,4.39,4.62,2.89-1.28,3.67-4.34,3.67-4.34Z"/><path class="cls-12" d="M46.24,63.04s-1.57,2.54-7.05,3.91c5.87,4.11,12.72,7.14,12.72,7.14l6.75-1.96,.29-3.82-12.72-5.28Z"/><path class="cls-4" d="M32.59,33.14l-1.53,2.78s-5.08-.27-7.49,.29c-1.91-1.18-2.56-2.7-2.56-2.7,0,0,3.26-2.03,4.34-2.24,3.04-.07,7.24,1.88,7.24,1.88Z"/><path class="cls-4" d="M38.34,35.95s-1.15-1.74-1.36-2.88c4.17-1.28,7.34-1.82,7.34-1.82,0,0,3.43,1.75,3.84,2.29-1.14,2.09-2.3,2.41-2.3,2.41,0,0-6.03-.28-7.52,0Z"/><path class="cls-2" d="M52.09,33.39s1.03,5.08-.52,8.77c3.83-6.04,2.21-8.69,1.25-9.8-.52,.37-.74,1.03-.74,1.03Z"/><path class="cls-7" d="M19.3,37.67s-3.29-9.03-2.79-17.69c3.97-4.68,12.83-9.17,21.59-8.45s8.55,5.4,8.55,5.4c0,0,4.38-1.53,6.93,3.56,2.55,5.09-1.73,14.56-3.67,17.11"/><path class="cls-7" d="M17.62,31.69s-2.67,.37-2,4.59,3.18,8.07,5.03,8.14"/><path class="cls-7" d="M52.61,32.03c.72,.48,1.61,1.61,1.19,4.25-.67,4.22-3.18,8.07-5.03,8.14"/><path class="cls-7" d="M47.58,22.74s1.33,4.36,1.92,6.96c.59,2.59,.44,10.8,.44,10.8,0,0-2.36,10.15-8.73,16.51-1.23,1.31-2.97,2.16-4.83,2.67-1.12,.3-2.3,.3-3.42,0-1.86-.51-3.6-1.36-4.83-2.67-6.36-6.36-8.73-16.51-8.73-16.51,0,0-.15-8.21,.44-10.8,.6-2.6,1.93-6.96,1.93-6.96,0,0,1.33,1.4,6.07,.51,4.74-.88,8.59-.29,8.59-.29,0,0-6.22,1.11-9.55,3.92,.74-.07,6.51-2,11.32-2.44,1.36-.33,2.49-.73,3.41-1.17,4.58,.81,5.97-.53,5.97-.53Z"/><path class="cls-7" d="M23.91,51.46l-.35,10.03s-13.65,5.21-16.26,6.79"/><path class="cls-7" d="M45.43,51.32l.36,10.17s13.65,5.21,16.26,6.79"/><path class="cls-7" d="M23.39,61.49s2.8,4.97,10.85,4.97c9.13,0,11.55-4.98,11.55-4.98"/><path d="M20.9,33.37c1.34-1.05,2.58-2.09,4.29-2.6,2.68,.15,5.33,.54,7.82,1.64,0,0-.78,1.42-.78,1.42-.45-.26-1.05-.52-1.61-.74-1.52-.65-4.18-1.12-5.28-1.33-1.42,.29-2.86,1.24-4.09,2.05,0,0-.35-.45-.35-.45h0Z"/><path class="cls-11" d="M30.98,35.94s-3.78-.66-7.27,.16c1.68,2.14,3.49,2.46,3.49,2.46,0,0,2.75-1.15,3.78-2.63Z"/><path d="M48.2,33.82c-1.23-.81-2.67-1.76-4.09-2.06-1.66,.28-4.97,.93-6.89,2.06,0,0-.78-1.42-.78-1.42,2.49-1.1,5.15-1.49,7.82-1.64,.91,.24,1.63,.69,2.33,1.14,.68,.45,1.33,.94,1.96,1.46,0,0-.35,.45-.35,.45h0Z"/><path class="cls-11" d="M38.47,35.94s3.78-.66,7.27,.16c-1.68,2.14-3.49,2.46-3.49,2.46,0,0-2.75-1.15-3.78-2.63Z"/><path d="M26.89,28.49c5.12,.67,10.43,.47,15.48,.19-5.04,.98-10.59,1.14-15.48-.19h0Z"/><path d="M36.26,36.2c-.29,3.24,1.44,6.23,3.1,8.89,0,0-.19,.25-.19,.25-.99,1.22-1.92,2.44-3.35,3.22,0,0-.11,0-.11,0h-2.06c-.07,0-.12,.01-.19-.04-1.48-.85-2.43-2.14-3.46-3.43,1.65-2.66,3.38-5.65,3.1-8.89,.8,3.13-.69,6.39-2.18,9.09,0,0-.03-.51-.03-.51,.87,1,1.83,2.15,2.95,2.82,0,0-.19-.04-.19-.04h2.06s-.19,.04-.19,.04c1.13-.67,2.09-1.81,2.96-2.82,0,0-.03,.51-.03,.51-1.5-2.71-2.99-5.95-2.19-9.09h0Z"/><path d="M40.07,52c-1.56-1.1-3.55-.21-5.32-.39-1.78,.18-3.76-.71-5.32,.39,1.07-1.8,3.56-1.22,5.32-1.39,1.76,.17,4.25-.41,5.32,1.39h0Z"/><path d="M31.34,52.33c1.01,.44,2.21,.39,3.3,.4,1.1,0,2.27,0,3.31-.39,0,0,.05,.09,.05,.09-1.28,1.44-3.4,1.51-5.12,1.04-.57-.19-1.2-.45-1.59-1.06l.06-.08h0Z"/><path class="cls-1" d="M17.29,32.67c-.68,.66-.64,1.48-.6,2.26,.33,2.59,1.16,5.05,2.11,7.53,0,0-.07,.07-.07,.07-1.86-1.83-4.56-8.37-1.46-9.96,0,0,.02,.1,.02,.1h0Z"/><path class="cls-12" d="M10.97,67.25c4.32-1.65,9.22-3.82,13.28-5.2,0,0,.33-7.35,.33-7.35h.1c.37,2.61,.48,5.25,.46,7.87-4.45,1.92-9.49,4.06-14.17,4.68h0Z"/></g>
<g id="BG"><path class="cls-5" d="M62.56,4.88C54.4,1.94,45.12,.2,35.25,.02,34.68,.01,34.1,0,33.53,0,23.88,0,14.77,1.52,6.72,4.21,2.49,14.22,0,26.6,0,40s2.39,25.22,6.45,35.11c8.16,2.94,17.45,4.69,27.32,4.87,.58,.01,1.15,.02,1.73,.02,9.63,0,18.73-1.51,26.78-4.2,4.24-10.01,6.74-22.39,6.74-35.8s-2.4-25.24-6.46-35.12Zm-4.04,66.86c-7.2,2.16-14.94,3.26-23.02,3.26-.49,0-.98-.01-1.47-.02h-.17c-8.18-.15-16.29-1.47-23.6-3.85-3.45-9.22-5.26-19.93-5.26-31.13s1.89-22.38,5.48-31.73c6.73-2.01,14.13-3.13,21.6-3.26,.48-.01,.97-.01,1.45-.01,.54,0,1.08,.01,1.63,.02,8.16,.15,16.27,1.47,23.59,3.84,3.46,9.24,5.27,19.95,5.27,31.14s-1.89,22.39-5.5,31.74Z"/><path class="cls-13" d="M17.21,2.06h0c1.63,.63,2.06,2.75,.81,3.97l-1.26,1.22s8.35-2.37,18.84-1.69h0c-1-1.49-.45-3.52,1.14-4.34l1-.51S28.26-.43,17.21,2.06Z"/><path class="cls-15" d="M21.81,1.66s.7,2.18-.22,3.1c3.77-.41,7.98-.74,11.12-.74-.33-1.33,1.26-3.4,1.26-3.4,0,0-6.17-.26-12.16,1.03Z"/><path class="cls-13" d="M36.25,79.21h0c-1.52-.87-1.62-3.03-.2-4.04l1.43-1.02s-8.61,1.07-18.88-1.19h0c.76,1.63-.09,3.55-1.79,4.11l-1.07,.36s9.19,2.56,20.5,1.78Z"/><path class="cls-15" d="M19.28,77.8s1.76-1.83,1.3-3.09c4.43,.69,9.11,1.14,12.25,1.14-.33,1.33,.44,3.4,.44,3.4,0,0-8-.16-13.99-1.45Z"/><polygon points="47.48 1.77 47.48 6.73 54.49 8.44 54.49 2.62 47.48 1.77"/><line class="cls-7" x1="45.5" y1="1.23" x2="45.5" y2="6.29"/><line class="cls-7" x1="56.47" y1="3.67" x2="56.47" y2="8.73"/><polygon points="47.48 78.74 47.48 73.78 54.49 72.07 54.49 77.88 47.48 78.74"/><line class="cls-7" x1="45.5" y1="79.28" x2="45.5" y2="74.21"/><line class="cls-7" x1="56.47" y1="76.84" x2="56.47" y2="71.77"/><path d="M33.53,1c.56,0,1.14,.01,1.7,.02,9.39,.17,18.33,1.74,26.57,4.65,4.07,10.08,6.22,21.94,6.22,34.33s-2.24,24.79-6.49,34.99c-8.12,2.66-16.87,4.01-26.03,4.01-.56,0-1.12,0-1.71-.02-9.25-.17-18.42-1.78-26.58-4.66C3.15,64.25,1,52.39,1,40S3.23,15.21,7.47,5.02C15.6,2.35,24.37,1,33.53,1m0-1C23.88,0,14.77,1.52,6.72,4.21,2.49,14.22,0,26.6,0,40s2.39,25.22,6.45,35.11c8.16,2.94,17.45,4.69,27.32,4.87,.58,.01,1.15,.02,1.73,.02,9.63,0,18.73-1.51,26.78-4.2,4.24-10.01,6.74-22.39,6.74-35.8s-2.4-25.24-6.46-35.12C54.4,1.94,45.12,.2,35.25,.02c-.57-.01-1.15-.02-1.72-.02h0Z"/><path class="cls-13" d="M33.53,6c.52,0,1.05,0,1.61,.02,7.87,.14,15.75,1.4,22.84,3.64,3.3,9,5.04,19.47,5.04,30.34s-1.82,21.82-5.26,30.92c-6.98,2.04-14.47,3.08-22.26,3.08-.48,0-.97,0-1.47-.02h-.15c-7.89-.14-15.78-1.41-22.85-3.65-3.29-8.99-5.03-19.46-5.03-30.33s1.81-21.79,5.24-30.91c6.5-1.89,13.7-2.95,20.86-3.08,.47,0,.96,0,1.43,0m0-1c-.48,0-.97,0-1.45,.01-7.47,.13-14.87,1.25-21.6,3.26-3.59,9.35-5.48,20.26-5.48,31.73s1.81,21.91,5.26,31.13c7.31,2.38,15.42,3.7,23.6,3.85h.17c.49,.01,.98,.02,1.47,.02,8.08,0,15.82-1.1,23.02-3.26,3.61-9.35,5.5-20.27,5.5-31.74s-1.81-21.9-5.27-31.14c-7.32-2.37-15.43-3.69-23.59-3.84-.55-.01-1.09-.02-1.63-.02h0Z"/><path d="M33.53,5c.54,0,1.08,.01,1.63,.02,8.16,.15,16.27,1.47,23.59,3.84,3.46,9.24,5.27,19.95,5.27,31.14s-1.89,22.39-5.5,31.74c-7.2,2.16-14.94,3.26-23.02,3.26-.49,0-.98-.01-1.47-.02h-.17c-8.18-.15-16.29-1.47-23.6-3.85-3.45-9.22-5.26-19.93-5.26-31.13s1.89-22.38,5.48-31.73c6.73-2.01,14.13-3.13,21.6-3.26,.48-.01,.97-.01,1.45-.01m0-1c-.49,0-.98,0-1.47,.01-7.51,.13-15.07,1.27-21.87,3.3l-.47,.14-.18,.46c-3.63,9.45-5.55,20.55-5.55,32.09s1.84,22.17,5.32,31.48l.17,.45,.46,.15c7.37,2.4,15.63,3.75,23.89,3.9h.19c.48,.01,.97,.02,1.47,.02,8.16,0,16-1.11,23.31-3.3l.47-.14,.18-.46c3.64-9.43,5.57-20.53,5.57-32.1s-1.84-22.17-5.33-31.49l-.17-.45-.46-.15c-7.39-2.39-15.65-3.74-23.88-3.89-.58-.01-1.11-.02-1.65-.02h0Z"/><path class="cls-8" d="M8.14,7.1s-12.66,32.94,0,66.06"/><path class="cls-8" d="M60.88,7.58s12.66,32.94,0,66.06"/></g>
</svg>