<svg id="Capa_2" xmlns="http://www.w3.org/2000/svg" xmlns:xlink="http://www.w3.org/1999/xlink" viewBox="0 0 69.02 80">
<defs >
<style >
.cls-1{fill:#c89aed;}.cls-2{fill:#fff;}.cls-3{fill:#f8ffbf;}.cls-4{fill:#7b7be8;}.cls-5{fill:#a88347;}.cls-6{fill:#782ab5;}.cls-7,.cls-8{stroke-miterlimit:10;}.cls-7,.cls-8,.cls-9{stroke:#000;}.cls-7,.cls-8,.cls-9,.cls-10,.cls-11,.cls-12{fill:none;}.cls-8,.cls-9,.cls-10{stroke-linecap:round;}.cls-13{fill:#1c46ff;}.cls-9,.cls-10{stroke-linejoin:round;}.cls-10{stroke:#deb778;stroke-dasharray:0 0 0 4.06;}.cls-14{fill:#deb778;}.cls-15{fill:url(#USGS_19_Inundación_de_tierra_2);}.cls-12{stroke:#1d1d1b;stroke-dasharray:0 0 2 2;stroke-width:.3px;}.cls-16{fill:#fcf0c5;}.cls-17{fill:#b83521;}
</style>
<pattern id="USGS_19_Inundación_de_tierra_2" x="0" y="0" width="72" height="72" patternTransform="translate(-236.48 -17071) rotate(-90)" patternUnits="userSpaceOnUse" viewBox="0 0 72 72">
<g >
<rect class="cls-11" width="72" height="72">
</rect>
<g >
<line class="cls-12" x1="71" y1="71" x2="144.44" y2="71">
</line>
<line class="cls-12" x1="71" y1="67" x2="144.44" y2="67">
</line>
<line class="cls-12" x1="71" y1="63" x2="144.44" y2="63">
</line>
<line class="cls-12" x1="71" y1="59" x2="144.44" y2="59">
</line>
<line class="cls-12" x1="71" y1="55" x2="144.44" y2="55">
</line>
<line class="cls-12" x1="71" y1="51" x2="144.44" y2="51">
</line>
<line class="cls-12" x1="71" y1="47" x2="144.44" y2="47">
</line>
<line class="cls-12" x1="71" y1="43" x2="144.44" y2="43">
</line>
<line class="cls-12" x1="71" y1="39" x2="144.44" y2="39">
</line>
<line class="cls-12" x1="71" y1="35" x2="144.44" y2="35">
</line>
<line class="cls-12" x1="71" y1="31" x2="144.44" y2="31">
</line>
<line class="cls-12" x1="71" y1="27" x2="144.44" y2="27">
</line>
<line class="cls-12" x1="71" y1="23" x2="144.44" y2="23">
</line>
<line class="cls-12" x1="71" y1="19" x2="144.44" y2="19">
</line>
<line class="cls-12" x1="71" y1="15" x2="144.44" y2="15">
</line>
<line class="cls-12" x1="71" y1="11" x2="144.44" y2="11">
</line>
<line class="cls-12" x1="71" y1="7" x2="144.44" y2="7">
</line>
<line class="cls-12" x1="71" y1="3" x2="144.44" y2="3">
</line>
</g>


<g >
<line class="cls-12" x1="-1" y1="71" x2="72.44" y2="71">
</line>
<line class="cls-12" x1="-1" y1="67" x2="72.44" y2="67">
</line>
<line class="cls-12" x1="-1" y1="63" x2="72.44" y2="63">
</line>
<line class="cls-12" x1="-1" y1="59" x2="72.44" y2="59">
</line>
<line class="cls-12" x1="-1" y1="55" x2="72.44" y2="55">
</line>
<line class="cls-12" x1="-1" y1="51" x2="72.44" y2="51">
</line>
<line class="cls-12" x1="-1" y1="47" x2="72.44" y2="47">
</line>
<line class="cls-12" x1="-1" y1="43" x2="72.44" y2="43">
</line>
<line class="cls-12" x1="-1" y1="39" x2="72.44" y2="39">
</line>
<line class="cls-12" x1="-1" y1="35" x2="72.44" y2="35">
</line>
<line class="cls-12" x1="-1" y1="31" x2="72.44" y2="31">
</line>
<line class="cls-12" x1="-1" y1="27" x2="72.44" y2="27">
</line>
<line class="cls-12" x1="-1" y1="23" x2="72.44" y2="23">
</line>
<line class="cls-12" x1="-1" y1="19" x2="72.44" y2="19">
</line>
<line class="cls-12" x1="-1" y1="15" x2="72.44" y2="15">
</line>
<line class="cls-12" x1="-1" y1="11" x2="72.44" y2="11">
</line>
<line class="cls-12" x1="-1" y1="7" x2="72.44" y2="7">
</line>
<line class="cls-12" x1="-1" y1="3" x2="72.44" y2="3">
</line>
<line class="cls-12" x1="1.04" y1="69" x2="74.48" y2="69">
</line>
<line class="cls-12" x1="1.04" y1="65" x2="74.48" y2="65">
</line>
<line class="cls-12" x1="1.04" y1="61" x2="74.48" y2="61">
</line>
<line class="cls-12" x1="1.04" y1="57" x2="74.48" y2="57">
</line>
<line class="cls-12" x1="1.04" y1="53" x2="74.48" y2="53">
</line>
<line class="cls-12" x1="1.04" y1="49" x2="74.48" y2="49">
</line>
<line class="cls-12" x1="1.04" y1="45" x2="74.48" y2="45">
</line>
<line class="cls-12" x1="1.04" y1="41" x2="74.48" y2="41">
</line>
<line class="cls-12" x1="1.04" y1="37" x2="74.48" y2="37">
</line>
<line class="cls-12" x1="1.04" y1="33" x2="74.48" y2="33">
</line>
<line class="cls-12" x1="1.04" y1="29" x2="74.48" y2="29">
</line>
<line class="cls-12" x1="1.04" y1="25" x2="74.48" y2="25">
</line>
<line class="cls-12" x1="1.04" y1="21" x2="74.48" y2="21">
</line>
<line class="cls-12" x1="1.04" y1="17" x2="74.48" y2="17">
</line>
<line class="cls-12" x1="1.04" y1="13" x2="74.48" y2="13">
</line>
<line class="cls-12" x1="1.04" y1="9" x2="74.48" y2="9">
</line>
<line class="cls-12" x1="1.04" y1="5" x2="74.48" y2="5">
</line>
<line class="cls-12" x1="1.04" y1="1" x2="74.48" y2="1">
</line>
</g>


<g >
<line class="cls-12" x1="-73" y1="71" x2=".44" y2="71">
</line>
<line class="cls-12" x1="-73" y1="67" x2=".44" y2="67">
</line>
<line class="cls-12" x1="-73" y1="63" x2=".44" y2="63">
</line>
<line class="cls-12" x1="-73" y1="59" x2=".44" y2="59">
</line>
<line class="cls-12" x1="-73" y1="55" x2=".44" y2="55">
</line>
<line class="cls-12" x1="-73" y1="51" x2=".44" y2="51">
</line>
<line class="cls-12" x1="-73" y1="47" x2=".44" y2="47">
</line>
<line class="cls-12" x1="-73" y1="43" x2=".44" y2="43">
</line>
<line class="cls-12" x1="-73" y1="39" x2=".44" y2="39">
</line>
<line class="cls-12" x1="-73" y1="35" x2=".44" y2="35">
</line>
<line class="cls-12" x1="-73" y1="31" x2=".44" y2="31">
</line>
<line class="cls-12" x1="-73" y1="27" x2=".44" y2="27">
</line>
<line class="cls-12" x1="-73" y1="23" x2=".44" y2="23">
</line>
<line class="cls-12" x1="-73" y1="19" x2=".44" y2="19">
</line>
<line class="cls-12" x1="-73" y1="15" x2=".44" y2="15">
</line>
<line class="cls-12" x1="-73" y1="11" x2=".44" y2="11">
</line>
<line class="cls-12" x1="-73" y1="7" x2=".44" y2="7">
</line>
<line class="cls-12" x1="-73" y1="3" x2=".44" y2="3">
</line>
<line class="cls-12" x1="-70.96" y1="69" x2="2.48" y2="69">
</line>
<line class="cls-12" x1="-70.96" y1="65" x2="2.48" y2="65">
</line>
<line class="cls-12" x1="-70.96" y1="61" x2="2.48" y2="61">
</line>
<line class="cls-12" x1="-70.96" y1="57" x2="2.48" y2="57">
</line>
<line class="cls-12" x1="-70.96" y1="53" x2="2.48" y2="53">
</line>
<line class="cls-12" x1="-70.96" y1="49" x2="2.48" y2="49">
</line>
<line class="cls-12" x1="-70.96" y1="45" x2="2.48" y2="45">
</line>
<line class="cls-12" x1="-70.96" y1="41" x2="2.48" y2="41">
</line>
<line class="cls-12" x1="-70.96" y1="37" x2="2.48" y2="37">
</line>
<line class="cls-12" x1="-70.96" y1="33" x2="2.48" y2="33">
</line>
<line class="cls-12" x1="-70.96" y1="29" x2="2.48" y2="29">
</line>
<line class="cls-12" x1="-70.96" y1="25" x2="2.48" y2="25">
</line>
<line class="cls-12" x1="-70.96" y1="21" x2="2.48" y2="21">
</line>
<line class="cls-12" x1="-70.96" y1="17" x2="2.48" y2="17">
</line>
<line class="cls-12" x1="-70.96" y1="13" x2="2.48" y2="13">
</line>
<line class="cls-12" x1="-70.96" y1="9" x2="2.48" y2="9">
</line>
<line class="cls-12" x1="-70.96" y1="5" x2="2.48" y2="5">
</line>
<line class="cls-12" x1="-70.96" y1="1" x2="2.48" y2="1">
</line>
</g>


</g>


</pattern>
</defs>

  <path
     id="path7641-4"
     style="fill:#782ab5;fill-opacity:1;stroke:#4d4d4d;stroke-width:1.62226;stop-color:#000000"
     d="M 34.900259,1.6936052 C 14.323312,9.5265586 1.6299002,23.954051 1.5689773,39.580572 V 79.197446 H 67.963672 V 39.580572 C 67.958188,23.990066 55.374427,9.5708664 34.900259,1.6936052 Z"/>
  <path
     id="path7641-7"
     style="fill:#808080;stroke:#4d4d4d;stroke-width:1.48325;stop-color:#000000"
     d="M 34.629293,5.0425238 C 15.815619,12.204258 4.1542243,25.395327 4.1542243,39.682894 V 76.559207 H 64.859448 V 39.682894 c 0,-14.254531 -11.510452,-27.438125 -30.230155,-34.6403702 z m -0.01233,3.4358455 C 51.537073,14.988239 61.941622,26.904418 61.941622,39.788613 v 33.82806 H 7.07205 v -33.82806 c 0,-12.914055 10.539857,-24.836991 27.544909,-31.3102437 z"/>
  <path
     id="path7641-7-8"
     style="fill:#808080;stroke:#4d4d4d;stroke-width:1.35027;stop-color:#000000"
     d="M 34.618314,8.2461803 C 17.491429,14.76581 6.8755673,26.7742 6.8755673,39.780777 v 33.57007 H 62.138105 v -33.57007 c 0,-12.976504 -10.478452,-24.978088 -27.519791,-31.5345967 z m -0.01123,3.1277957 c 15.403093,5.926211 24.874795,16.774013 24.874795,28.503041 V 70.672134 H 9.5317874 V 39.877017 c 0,-11.75621 9.5948786,-22.610165 25.0752986,-28.503041 z"/>
  <path
     id="path7641-7-8-0"
     style="fill:#808080;stroke:#4d4d4d;stroke-width:1.21411;stop-color:#000000"
     d="M 34.607073,11.526302 C 19.207238,17.388502 9.6618637,28.185984 9.6618637,39.880997 V 70.06591 H 59.351809 V 39.880997 c 0,-11.667973 -9.421821,-22.459335 -24.744736,-28.354695 z m -0.0101,2.812393 c 13.849868,5.328621 22.366458,15.082547 22.366458,25.628837 V 67.657315 H 12.050234 V 39.967532 c 0,-10.570731 8.627346,-20.33019 22.546743,-25.628837 z"/>




<g >
<path class="cls-4" d="M17.98,32.15s-3.05,.63-2.53,3.58,.63,8,4.74,8.63c.84,5.16,.95,6.21,.95,6.21l1.37,.84-.32,5.05s-10.53,2.42-15.16,7.37c2.63,6.42,3.79,9.79,3.79,9.79,0,0,19.05,3.89,28,3.16s21.68-4.74,21.68-4.74l.84-10s-8.74-4.42-13.47-5.68c-.32-3.58-.53-4.74-.53-4.74l1.37-1.26,.84-6,2.21-.95s2.84-3.47,2.74-7.47c-.32-3.58-2.32-3.58-2.32-3.58,0,0,.74-9.05-1.68-13.58s-8.42-9.16-16.84-8.74-13.89,5.89-15.58,13.68c-1.37,4.74-.11,8.42-.11,8.42Z">
</path>
<path class="cls-13" d="M25.9,69.75l3.54,4.69s-5.66,0-6.82-1.15c2.57-2.48,3.27-3.54,3.27-3.54Z">
</path>
<path class="cls-1" d="M34.76,50.05V26.4c0-6.21,6.1-10.82,11.95-8.75,.22,.08,.42,.16,.62,.24,3.29,5.03,4.33,16.99,4.33,16.99l-1.91,6.59-.95,8.32s-2.6,3.47-6.94,5.63l-.52,1.3h0c-3.65-.05-6.59-3.02-6.59-6.68Z">
</path>
<path class="cls-4" d="M34.06,11.47c.43,0,.71,.02,.78,.03,.02,0,.05,0,.07,0,.03,0,.06,0,.09,0,.03,0,.09,0,.17,0,1.36,0,8.32,.44,12.11,9.18,5.63,13,1.14,21.12-1.05,24-.25,.32-.36,.73-.3,1.13,.06,.4,.27,.75,.57,.97,.27,.21,.59,.32,.91,.32,.07,0,.14,0,.21-.01l-.38,2.54c-1.31,1.45-3.78,3.8-5.66,4.4l-.23,.07c-.3,.09-.54,.32-.65,.61l-.07,.2c-.09,.24-.18,.4-.24,.51h-10.96c-.06-.1-.14-.26-.23-.49l-.08-.22c-.11-.3-.35-.52-.65-.61l-.22-.07c-1.73-.55-4.03-2.59-5.68-4.4l-.38-2.54c.07,0,.14,.01,.21,.01,.33,0,.66-.11,.9-.3,.32-.24,.53-.59,.59-.99,.06-.4-.05-.81-.3-1.13-1.49-1.95-7.19-15.09-2.89-24.63,3.5-7.74,10.51-8.57,13.36-8.57m0-1c-2.63,0-10.46,.73-14.27,9.16-4.54,10.08,1.39,23.53,3.01,25.65,.17,.22,.13,.54-.09,.7-.09,.07-.2,.11-.31,.11-.15,0-.3-.07-.39-.2-.35-.46-.84-1.29-1.36-2.4l.98,6.57c.58,.65,3.68,4.07,6.32,4.91l.23,.07,.08,.22c.4,1.04,.77,1.15,.78,1.15h11.8s.35-.17,.73-1.15l.08-.22,.23-.07c2.63-.84,5.74-4.26,6.31-4.91l.99-6.57c-.53,1.11-1.01,1.94-1.36,2.4-.1,.13-.25,.2-.4,.2-.1,0-.21-.04-.3-.11-.22-.16-.26-.48-.09-.7,1.61-2.12,7.35-10.74,1.17-25-4-9.22-11.51-9.78-13.03-9.78-.13,0-.22,0-.25,0-.08,0-.38-.03-.86-.03h0Z">
</path>
<path d="M17.92,32.6s-1.22-8.09,1.55-13.75,9.65-9.42,16.3-8.87,11.53,3.33,14.75,9.31,.89,14.3,.89,14.3c-1.11-10.64-4.32-16.08-4.32-16.08,0,0-13.97-2.44-24.5-.11-2.55,3.33-3.66,11.86-4.66,15.19Z">
</path>
<path d="M17.92,32.6s-1.67-.56-2.36,2.48,1.82,8.94,4.64,9.28c-.42-3.98-2.28-11.76-2.28-11.76Z">
</path>
<path d="M41.28,57.25l-19.04,17.55-12.87-3.07-2.05-9.35s10.72-5.24,14.48-5.81c.46-4.1,.34-4.79,.34-4.79,0,0,5.47,3.99,5.93,3.88,.34,1.03,.57,1.37,.57,1.37l12.65,.23Z">
</path>
<path class="cls-3" d="M47.61,56.98s-2.84,5.61-9.33,7.63c2.77,4.1,4.79,6.62,4.79,6.62,0,0,4.35-7.56,4.54-14.24Z">
</path>
<polygon class="cls-3" points="39.51 66.54 29.67 66.54 26.84 70.35 29.8 74.79 40.3 75.12 43.17 70.71 39.51 66.54">
</polygon>
<polygon class="cls-17" points="39.51 66.54 30.22 66.54 27.87 69.26 32.38 74.62 38.1 74.62 41.67 69.45 39.51 66.54">
</polygon>
<path class="cls-3" d="M30.98,34.32s-5.35-.1-7.35,.72c1.52,1.79,3.52,2.33,3.52,2.33,0,0,3.18-.82,3.83-3.04Z">
</path>
<path class="cls-3" d="M38.52,34.32s5.35-.1,7.35,.72c-1.52,1.79-3.52,2.33-3.52,2.33,0,0-3.18-.82-3.83-3.04Z">
</path>
<path class="cls-4" d="M30.98,34.32l.97-3.52-5.47-.81s-2.69,1.39-3.63,2.78c-.18,1.62,.13,2.02,.13,2.02,0,0,5.96-.68,8.01-.48Z">
</path>
<path class="cls-4" d="M38.41,34.32l-.97-3.52,5.47-.81s2.69,1.39,3.63,2.78c.18,1.62-.13,2.02-.13,2.02,0,0-5.96-.68-8.01-.48Z">
</path>
<path class="cls-1" d="M46.38,54.52s-2.07,1.38-3.17,1.93c-1.31,2.07-6.48,6.76-6.48,6.76,0,0,5.52-.07,9.72-6.97,.14-1.1-.07-1.72-.07-1.72Z">
</path>
<path class="cls-13" d="M47.88,56.36s-2.09,14-8.11,18.19c11.61,1.05,19.12-2.53,19.12-2.53l2.47-9.97s-8.68-4.32-13.47-5.68Z">
</path>
<path class="cls-1" d="M23.71,38.49s2.13,.95,3.08,1.24c2.31-1.12,3.97-2.55,3.97-2.55,0,0-2.25,3.67-4.44,5.15-2.49-1.66-2.61-3.85-2.61-3.85Z">
</path>
<path class="cls-8" d="M56.72,59.85s-1.14,8.79-5.17,13.45">
</path>
<path class="cls-4" d="M38.35,18.02s6.18-.42,8.97,1.25c-.6-1.44-.93-2.32-.93-2.32l-7.2-.51-.84,1.58Z">
</path>
<path class="cls-2" d="M39.32,38.52l3.26,1.29s1.44,0,3.63-2.2c-1.44,4.54-4.17,4.77-4.17,4.77l-2.73-3.86Z">
</path>
<polygon class="cls-2" points="46.56 29.3 44.17 19.52 43.79 27.84 46.56 29.3">
</polygon>
<path class="cls-1" d="M51.88,33.47s2.64,4.17,.34,9.54c4-7.75,1.45-12.1-.34-9.54Z">
</path>
<path class="cls-8" d="M47.42,45.59c1.64-2.15,7.77-15.74,3.07-26.16s-15.62-9.42-15.62-9.42c0,0-10.83-1-15.53,9.42s1.43,24.02,3.07,26.16">
</path>
<path class="cls-8" d="M50.27,39.6l-1.61,10.68s-3.56,4.19-6.63,5.17c-.56,1.47-1.19,1.47-1.19,1.47h-3.98s-3.91,0-3.91,0h-3.98s-.63,0-1.19-1.47c-3.07-.98-6.63-5.17-6.63-5.17l-1.61-10.68">
</path>
<path class="cls-8" d="M17.95,32.62s-1.39-.82-2.15,1.2,.32,7.35,2.53,9.88c1.27,.57,1.96,.7,1.96,.7">
</path>
<path class="cls-8" d="M52.03,32.62s1.39-.82,2.15,1.2-.32,7.35-2.53,9.88c-1.27,.57-1.96,.7-1.96,.7">
</path>
<polygon points="41.11 48.39 37.96 46.04 35.91 46.04 33.91 46.04 31.85 46.04 28.7 48.39 41.11 48.39">
</polygon>
<path d="M40.1,50.29c-.36,.53-.76,.99-1.19,1.42-1.26,.29-2.55,.39-3.83,.4-1.29-.02-2.57-.11-3.83-.4-.43-.43-.84-.9-1.2-1.44-.03-.04,.02-.1,.07-.07,0,0,1.44,.95,1.44,.95-.2-.03,3.57-.04,3.53-.04-.04,0,3.72,.01,3.53,.04,0,0,1.44-.95,1.44-.95,.05-.03,.1,.04,.06,.08h0Z">
</path>
<path d="M23.38,32.14c.93-.96,1.78-2.04,3.05-2.62,1.93-.31,3.82-.29,5.78-.16,0,0-.33,1.94-.33,1.94-1.72-.42-3.57-.76-5.36-.78,0,0,.14-.03,.14-.03-1.13,.3-2.26,1.01-3.28,1.65h0Z">
</path>
<path d="M30.98,34.32c-2.44,.15-4.99,.25-7.3,1.08,0,0,.3-.67,.3-.67,.27,.6,.68,1.13,1.22,1.52,.51,.39,1.18,.71,1.79,.85,0,0-.17,0-.17,0,1.09-.03,2.19-.43,3.09-1.07-.36,.46-.79,.87-1.28,1.22-.54,.37-1.07,.66-1.72,.86-1.66-.35-3.15-1.41-3.84-2.98,0,0-.22-.54-.22-.54,2.66-.74,5.44-.46,8.14-.27h0Z">
</path>
<path d="M46.11,32.14c-1.01-.64-2.15-1.35-3.28-1.65,0,0,.14,.03,.14,.03-1.78,.02-3.63,.36-5.36,.78,0,0-.33-1.94-.33-1.94,1.95-.13,3.84-.15,5.77,.16,1.26,.58,2.12,1.66,3.05,2.62h0Z">
</path>
<path d="M38.51,34.32c2.7-.19,5.48-.47,8.14,.27,0,0-.22,.54-.22,.54-.69,1.57-2.19,2.63-3.84,2.98-.65-.19-1.18-.49-1.72-.86-.49-.34-.93-.76-1.28-1.22,.9,.64,2,1.04,3.09,1.07,0,0-.17,0-.17,0,.61-.14,1.28-.46,1.79-.85,.54-.4,.95-.93,1.22-1.52,0,0,.3,.67,.3,.67-2.3-.83-4.86-.93-7.3-1.08h0Z">
</path>
<path d="M36.36,36.33c.59,1.29,1.08,2.61,1.54,3.95,0,0-.1-.22-.1-.22,.51,.61,1.04,1.25,1.54,1.88-.73,.75-1.45,1.54-2.19,2.27-1.22,.03-3.33,.04-4.55,0,0,0-.37,0-.37,0-.74-.73-1.47-1.53-2.19-2.27,.5-.62,1.04-1.25,1.56-1.86,0,0-.1,.22-.1,.22,.43-1.34,.92-2.66,1.51-3.95,0,0,.1,.02,.1,.02,0,.01-.94,4.09-.94,4.1,0,.01-1.02,1.46-1.03,1.47,0,0,0-.1,0-.1l1.53,1.45c-.32-.06,4.2,0,4.13-.03-.27,.18,1.53-1.46,1.47-1.42,0,0,0,.1,0,.1l-1.02-1.46s0-.02-.01-.02c0,0-.94-4.09-.94-4.09l.1-.02h0Z">
</path>
<path class="cls-7" d="M51.34,35.15c-.06-.26-.13-12.46-4.17-17.79-4.3-.96-11.69-1.03-11.69-1.03h-1.16s-7.39,.06-11.69,1.03c-4.05,5.33-4.11,17.53-4.17,17.79">
</path>
<path class="cls-8" d="M22.07,51.52v4.83s-7.8,2.03-15.68,7.12">
</path>
<path class="cls-8" d="M47.67,51.52v4.83s7.8,2.03,15.68,7.12">
</path>
<path class="cls-9" d="M29.8,74.74s-7.08-6.87-7.73-18.39c0,0,2.25,6.03,9.5,8.32-3.26,4-4.74,5.92-4.74,5.92">
</path>
<path class="cls-9" d="M39.94,74.74s7.08-6.87,7.73-18.39c0,0-2.25,6.03-9.5,8.32,3.26,4,4.74,5.92,4.74,5.92">
</path>
<line class="cls-9" x1="30.46" y1="66.29" x2="39.32" y2="66.29">
</line>
<line class="cls-9" x1="28.26" y1="69.38" x2="33.74" y2="76.4">
</line>
<line class="cls-9" x1="41.4" y1="69.43" x2="35.92" y2="76.45">
</line>
<path class="cls-1" d="M16.09,34.05c.97,1.48,.69,2.73,.98,4.28,.21,1.42,.57,2.9,.92,4.31,0,0-.09,.05-.09,.05-.79-1.28-1.38-2.69-1.72-4.16-.35-1.47-.45-3-.19-4.5l.1,.02h0Z">
</path>
<path class="cls-13" d="M9.83,62.72c3.84-2.33,8.55-4.65,12.72-5.37,0,0,.02-3.65,.02-3.65,0,0,.1,0,.1,0,.33,1.34,.47,2.69,.62,4.05-2.32,.85-4.63,1.66-6.92,2.59,0,0-3.2,1.26-3.2,1.26-1.08,.41-2.17,.81-3.29,1.19,0,0-.05-.08-.05-.08h0Z">
</path>
<path class="cls-4" d="M47.03,15.51s-10.81-4.55-20.87-2.47c8.44-3.04,16.98-3.23,20.87,2.47Z">
</path>
</g>




  <g
     id="g20645">
    <path
       style="fill:#808080;stroke:#4d4d4d;stroke-width:0.937908;stop-color:#000000;fill-opacity:1"
       d="m 9.541565,65.883425 a 5.4759801,5.4759801 0 0 1 5.47598,5.475981 5.4759801,5.4759801 0 0 1 -5.47598,5.47598 5.4759801,5.4759801 0 0 1 -5.4759806,-5.47598 5.4759801,5.4759801 0 0 1 5.4759806,-5.475981 z"/>
    <path
       style="fill:#808080;stroke:#4d4d4d;stroke-width:0.937908;stop-color:#000000;fill-opacity:1"
       d="m 59.472108,65.883425 a 5.4759801,5.4759801 0 0 1 5.47598,5.475981 5.4759801,5.4759801 0 0 1 -5.47598,5.47598 5.4759801,5.4759801 0 0 1 -5.475981,-5.47598 5.4759801,5.4759801 0 0 1 5.475981,-5.475981 z"/>
    <path
       id="path7641"
       style="fill:#808080;stroke:#4d4d4d;stroke-width:1.64416;stop-color:#000000"
       d="M 34.642578,1.1660156 C 13.787845,9.1047124 0.86132813,23.726855 0.86132812,39.564453 V 79.340489 H 68.152344 V 39.564453 c 0,-15.800978 -12.759199,-30.4148342 -33.509766,-38.3984374 z m -0.01367,3.8085938 C 53.384648,12.190722 64.917969,25.399665 64.917969,39.681641 v 26.507812 c -1.368656,-1.44106 -3.300993,-2.341797 -5.445313,-2.341797 -4.14856,0 -7.511718,3.363159 -7.511718,7.511719 0,2.347008 1.075662,4.442843 2.761718,5.820313 H 14.269531 c 1.756069,-1.422629 2.778281,-3.560307 2.783203,-5.820313 4.8e-5,-4.148627 -3.363091,-7.511766 -7.5117184,-7.511719 -2.0622939,0.0062 -4.0313164,0.860092 -5.4453125,2.361328 V 39.681641 c 0,-14.315076 11.6833059,-27.531508 30.5332029,-34.7070316 z"/>
    <circle
       style="fill:#4d4d4d;fill-opacity:1;stroke:#4d4d4d;stop-color:#000000"
       id="path16431"
       cx="9.6010828"
       cy="71.229652"
       r="5.06003" />
    <circle
       style="fill:#4d4d4d;fill-opacity:1;stroke:#4d4d4d;stop-color:#000000"
       id="path16431-3"
       cx="59.42292"
       cy="71.229652"
       r="5.06003" />
  </g>
</svg>
