<?xml version="1.0" encoding="UTF-8"?><svg id="Capa_2" xmlns="http://www.w3.org/2000/svg" xmlns:xlink="http://www.w3.org/1999/xlink" viewBox="0 0 69.02 80"><defs><style>.cls-1{fill:#c89aed;}.cls-2{fill:#fff;}.cls-3{fill:#f8ffbf;}.cls-4{fill:#7b7be8;}.cls-5{fill:#a88347;}.cls-6{fill:#782ab5;}.cls-7{stroke-miterlimit:10;}.cls-7,.cls-8{stroke:#000;}.cls-7,.cls-8,.cls-9,.cls-10,.cls-11{fill:none;}.cls-8,.cls-9{stroke-linecap:round;stroke-linejoin:round;}.cls-9{stroke:#deb778;stroke-dasharray:0 0 0 4.06;}.cls-12{fill:#deb778;}.cls-13{fill:url(#USGS_19_Inundación_de_tierra_2);}.cls-11{stroke:#1d1d1b;stroke-dasharray:0 0 2 2;stroke-width:.3px;}.cls-14{fill:#cf5f2b;}.cls-15{fill:#fcf0c5;}.cls-16{fill:#b83521;}</style><pattern id="USGS_19_Inundación_de_tierra_2" x="0" y="0" width="72" height="72" patternTransform="translate(-380.48 -17071) rotate(-90)" patternUnits="userSpaceOnUse" viewBox="0 0 72 72"><g><rect class="cls-10" width="72" height="72"/><g><line class="cls-11" x1="71" y1="71" x2="144.44" y2="71"/><line class="cls-11" x1="71" y1="67" x2="144.44" y2="67"/><line class="cls-11" x1="71" y1="63" x2="144.44" y2="63"/><line class="cls-11" x1="71" y1="59" x2="144.44" y2="59"/><line class="cls-11" x1="71" y1="55" x2="144.44" y2="55"/><line class="cls-11" x1="71" y1="51" x2="144.44" y2="51"/><line class="cls-11" x1="71" y1="47" x2="144.44" y2="47"/><line class="cls-11" x1="71" y1="43" x2="144.44" y2="43"/><line class="cls-11" x1="71" y1="39" x2="144.44" y2="39"/><line class="cls-11" x1="71" y1="35" x2="144.44" y2="35"/><line class="cls-11" x1="71" y1="31" x2="144.44" y2="31"/><line class="cls-11" x1="71" y1="27" x2="144.44" y2="27"/><line class="cls-11" x1="71" y1="23" x2="144.44" y2="23"/><line class="cls-11" x1="71" y1="19" x2="144.44" y2="19"/><line class="cls-11" x1="71" y1="15" x2="144.44" y2="15"/><line class="cls-11" x1="71" y1="11" x2="144.44" y2="11"/><line class="cls-11" x1="71" y1="7" x2="144.44" y2="7"/><line class="cls-11" x1="71" y1="3" x2="144.44" y2="3"/></g>
<g><line class="cls-11" x1="-1" y1="71" x2="72.44" y2="71"/><line class="cls-11" x1="-1" y1="67" x2="72.44" y2="67"/><line class="cls-11" x1="-1" y1="63" x2="72.44" y2="63"/><line class="cls-11" x1="-1" y1="59" x2="72.44" y2="59"/><line class="cls-11" x1="-1" y1="55" x2="72.44" y2="55"/><line class="cls-11" x1="-1" y1="51" x2="72.44" y2="51"/><line class="cls-11" x1="-1" y1="47" x2="72.44" y2="47"/><line class="cls-11" x1="-1" y1="43" x2="72.44" y2="43"/><line class="cls-11" x1="-1" y1="39" x2="72.44" y2="39"/><line class="cls-11" x1="-1" y1="35" x2="72.44" y2="35"/><line class="cls-11" x1="-1" y1="31" x2="72.44" y2="31"/><line class="cls-11" x1="-1" y1="27" x2="72.44" y2="27"/><line class="cls-11" x1="-1" y1="23" x2="72.44" y2="23"/><line class="cls-11" x1="-1" y1="19" x2="72.44" y2="19"/><line class="cls-11" x1="-1" y1="15" x2="72.44" y2="15"/><line class="cls-11" x1="-1" y1="11" x2="72.44" y2="11"/><line class="cls-11" x1="-1" y1="7" x2="72.44" y2="7"/><line class="cls-11" x1="-1" y1="3" x2="72.44" y2="3"/><line class="cls-11" x1="1.04" y1="69" x2="74.48" y2="69"/><line class="cls-11" x1="1.04" y1="65" x2="74.48" y2="65"/><line class="cls-11" x1="1.04" y1="61" x2="74.48" y2="61"/><line class="cls-11" x1="1.04" y1="57" x2="74.48" y2="57"/><line class="cls-11" x1="1.04" y1="53" x2="74.48" y2="53"/><line class="cls-11" x1="1.04" y1="49" x2="74.48" y2="49"/><line class="cls-11" x1="1.04" y1="45" x2="74.48" y2="45"/><line class="cls-11" x1="1.04" y1="41" x2="74.48" y2="41"/><line class="cls-11" x1="1.04" y1="37" x2="74.48" y2="37"/><line class="cls-11" x1="1.04" y1="33" x2="74.48" y2="33"/><line class="cls-11" x1="1.04" y1="29" x2="74.48" y2="29"/><line class="cls-11" x1="1.04" y1="25" x2="74.48" y2="25"/><line class="cls-11" x1="1.04" y1="21" x2="74.48" y2="21"/><line class="cls-11" x1="1.04" y1="17" x2="74.48" y2="17"/><line class="cls-11" x1="1.04" y1="13" x2="74.48" y2="13"/><line class="cls-11" x1="1.04" y1="9" x2="74.48" y2="9"/><line class="cls-11" x1="1.04" y1="5" x2="74.48" y2="5"/><line class="cls-11" x1="1.04" y1="1" x2="74.48" y2="1"/></g>
<g><line class="cls-11" x1="-73" y1="71" x2=".44" y2="71"/><line class="cls-11" x1="-73" y1="67" x2=".44" y2="67"/><line class="cls-11" x1="-73" y1="63" x2=".44" y2="63"/><line class="cls-11" x1="-73" y1="59" x2=".44" y2="59"/><line class="cls-11" x1="-73" y1="55" x2=".44" y2="55"/><line class="cls-11" x1="-73" y1="51" x2=".44" y2="51"/><line class="cls-11" x1="-73" y1="47" x2=".44" y2="47"/><line class="cls-11" x1="-73" y1="43" x2=".44" y2="43"/><line class="cls-11" x1="-73" y1="39" x2=".44" y2="39"/><line class="cls-11" x1="-73" y1="35" x2=".44" y2="35"/><line class="cls-11" x1="-73" y1="31" x2=".44" y2="31"/><line class="cls-11" x1="-73" y1="27" x2=".44" y2="27"/><line class="cls-11" x1="-73" y1="23" x2=".44" y2="23"/><line class="cls-11" x1="-73" y1="19" x2=".44" y2="19"/><line class="cls-11" x1="-73" y1="15" x2=".44" y2="15"/><line class="cls-11" x1="-73" y1="11" x2=".44" y2="11"/><line class="cls-11" x1="-73" y1="7" x2=".44" y2="7"/><line class="cls-11" x1="-73" y1="3" x2=".44" y2="3"/><line class="cls-11" x1="-70.96" y1="69" x2="2.48" y2="69"/><line class="cls-11" x1="-70.96" y1="65" x2="2.48" y2="65"/><line class="cls-11" x1="-70.96" y1="61" x2="2.48" y2="61"/><line class="cls-11" x1="-70.96" y1="57" x2="2.48" y2="57"/><line class="cls-11" x1="-70.96" y1="53" x2="2.48" y2="53"/><line class="cls-11" x1="-70.96" y1="49" x2="2.48" y2="49"/><line class="cls-11" x1="-70.96" y1="45" x2="2.48" y2="45"/><line class="cls-11" x1="-70.96" y1="41" x2="2.48" y2="41"/><line class="cls-11" x1="-70.96" y1="37" x2="2.48" y2="37"/><line class="cls-11" x1="-70.96" y1="33" x2="2.48" y2="33"/><line class="cls-11" x1="-70.96" y1="29" x2="2.48" y2="29"/><line class="cls-11" x1="-70.96" y1="25" x2="2.48" y2="25"/><line class="cls-11" x1="-70.96" y1="21" x2="2.48" y2="21"/><line class="cls-11" x1="-70.96" y1="17" x2="2.48" y2="17"/><line class="cls-11" x1="-70.96" y1="13" x2="2.48" y2="13"/><line class="cls-11" x1="-70.96" y1="9" x2="2.48" y2="9"/><line class="cls-11" x1="-70.96" y1="5" x2="2.48" y2="5"/><line class="cls-11" x1="-70.96" y1="1" x2="2.48" y2="1"/></g>
</g>
</pattern></defs><g id="Frame"><path class="cls-6" d="M64.02,40c0,11.47-1.89,22.39-5.5,31.74-7.2,2.16-14.94,3.26-23.02,3.26-.49,0-.98-.01-1.47-.02h-.17c-8.18-.15-16.29-1.47-23.6-3.85-3.45-9.22-5.26-19.93-5.26-31.13s1.89-22.38,5.48-31.73c6.73-2.01,14.13-3.13,21.6-3.26,.48-.01,.97-.01,1.45-.01,.54,0,1.08,.01,1.63,.02,8.16,.15,16.27,1.47,23.59,3.84,3.46,9.24,5.27,19.95,5.27,31.14Z"/><path class="cls-13" d="M34.03,5.59V74.98h-.17c-8.18-.15-16.29-1.47-23.6-3.85-3.45-9.22-5.26-19.93-5.26-31.13s1.89-22.38,5.48-31.73c6.73-2.01,14.13-3.13,21.6-3.26,.65,.16,1.3,.36,1.95,.58Z"/></g>
<g><path class="cls-1" d="M61.34,70.66l-4.13,2.57-26.35,4.8-20.99-5.92-2.68-9.82,15.85-6.14,.12-1.9-.26-.28-.97-1.05-.11-.12-1.16-7.56-.18-1.15s-.19-.15-.5-.43c-.25-.21-.59-.52-.97-.89-.01,0-.03-.02-.05-.04-.37-.37-.78-.8-1.21-1.28,0-.01-.01-.02-.02-.03-.16-.18-.33-.37-.49-.57-1.56-1.9-3.02-7.14-2.23-8.59,.15-.27,.36-.46,.6-.59,.97-.52,2.47-.06,2.71,.02,.01,0,.03,0,.04,.01,0,0-.45-3.69,3.57-12.28-3.13-2.46-1.68-8.71-1.68-8.71,0,0,0,.89,3.02,1.45-.56-1.56,1.78-3.34,1.78-3.34,0,.15,.1,1.38,3.35,2.22-.56-1.56,1.01-3.01,1.01-3.01,0,0,.56,3.24,7.81,4.13,6.26,.67,10.27,6.81,10.27,6.81,0,0,.65,1.07,1.4,3.05,.84,2.22,1.83,5.59,2.18,9.9,1.78-1.9,3.9-.11,3.12,3.57-.58,3.13-1.88,5.3-2.99,6.66-.91,1.09-1.69,1.67-1.88,1.8l-.04,.03-1.12,2.12-.78,6.92-1.67,.9,.03,.1,.53,2.13,14.4,5.47,.67,9.04Z"/><path d="M47.74,19.07s-6.55-1.15-11.75,.47c-6.28,2.03-11.09,2.72-14.06-.13s-1.28-8.52-1.28-8.52l2.62,1.26s.65-3.01,1.79-3.35c1.07,2.16,3.35,2.23,3.35,2.23,0,0-.53-1.9,1.1-2.58,.74,1.82,2.43,2.84,4.66,3.17s11.01,2.23,13.58,7.43Z"/><path class="cls-1" d="M54.19,35.49c-.58,3.13-1.88,5.3-2.99,6.66l-1.88,1.8-.04,.03-1.12,2.12-.78,6.92-1.64,1-3.64,2.22-8.36,2.43-6.41-2.53-4.43-2.17-.92-.45-.05-.6-.53-6.4s-.17-.06-.74-1.28c-.19-.39-.41-.91-.68-1.58-.05-.11-.09-.22-.14-.34-.29-.16-.57-.34-.83-.55-.01,0-.03-.02-.05-.04-.44-.36-.85-.8-1.21-1.28,0-.01-.01-.02-.02-.03-1.75-2.36-2.51-5.79-2.75-7.24-.16-1.02,.01-1.99,.63-2.51,.53-.45,1.42-.54,2.71,.02,.01,0,.03,0,.04,.01,.64-2.39,3.52-11.52,3.52-11.52,3.99,1.17,6.42,1.36,13.42-.68,7-2.04,10.88-.19,10.88-.19l2.71,2.71c.84,2.22,1.83,5.59,2.18,9.9,1.78-1.9,3.9-.11,3.12,3.57Z"/><path class="cls-2" d="M34.08,52.86V27.93c0-5.17,4.23-9.45,9.4-9.29,.4,.01,.73,.05,.95,.12,4.93,4.93,6.6,12.02,6.8,13.11-1.68,8.38-2.07,12.81-3.15,14.68-1.08,5.22-.89,7.1-.89,7.1l-8.97,4.83h0c-2.46-.76-4.14-3.04-4.14-5.61Z"/><path class="cls-3" d="M30.08,38.34s-4.45-2.06-7.97-.73c2.39,1.86,5.24,2.32,7.97,.73Z"/><path class="cls-3" d="M38.7,38.34s4.45-2.06,7.97-.73c-2.39,1.86-5.24,2.32-7.97,.73Z"/><path class="cls-3" d="M29.46,57.97s2.61,5.65,4.97,7.84c2.78-2.53,5.23-8.18,5.23-8.18l2.87-1.69,3.96-2.02s-.51,3.63-.51,6.32c-.93,9.61-3.75,14.06-3.88,14.5s-15.43-.08-15.43-.08c0,0-1.94-3.29-2.78-6.83s-1.15-12.39-1-13.87c2.51,1.05,4.43,2.17,4.43,2.17l2.13,1.83Z"/><path class="cls-16" d="M23.53,60.65s3.33,5.03,10.54,5.17c7.41,.07,11.92-5.57,11.92-5.57,0,0-.42,6.46-1.1,7.48-3.2,1.97-4.62,1.77-4.62,1.77l-1.84,3.81,.82,1.36s-10.13,.34-9.93,.34,1.22-1.63,1.22-1.63l-1.5-3.4s-5.03-2.11-5.51-2.72c-.54-3.88,0-6.6,0-6.6Z"/><path class="cls-14" d="M38.79,66.36s-1.76,3.7-5.35,5.94c3.47,.12,4.29-.88,4.29-.88,0,0,1.41-2.53,1.06-5.06Z"/><path class="cls-16" d="M42.85,74.88s2.75-6.05,2.94-10.34,.48-8.39,.48-8.39c0,0,14.6,4.88,16.31,6.77-1.33,6.64-3.32,11.29-3.32,11.29l-16.41,.66Z"/><path d="M23.04,56.15l-15.85,6.14,1.65,9.85,18.58,3.47-2.73-5.29s-2.4-6.97-1.65-14.18Z"/><polygon points="45.84 54.72 25.16 75.31 19.24 69.39 23.1 55.84 23.1 53.69 28.08 56.18 31.34 58.5 36.23 58.15 41.12 57.04 42.1 56.24 45.84 54.72"/><path class="cls-1" d="M42.53,20.18h0c.36,0,.73,0,1.09,.03,1.25,1.6,3.19,4.92,5.41,9.24,.27,1.18,.43,2.14,.47,2.85-.18,2.06-1.15,10.33-2.65,13.41-.1,.18-.14,.35-.15,.44,0,.02,0,.04,0,.05-.49,3.39-.74,5.2-.86,6.07l-4.57,2.77c-1.45,.68-3.37,1.03-5.89,1.06-.15,0-.31,0-.46,0-4.15,0-7.43-1.46-8.15-1.81l-3.35-2.03c-.12-.87-.37-2.68-.86-6.07,0-.02,0-.05-.01-.06-.02-.08-.05-.25-.15-.43-1.51-3.08-2.47-11.72-2.63-13.72,.07-.67,.22-1.54,.48-2.66,1.61-3.26,3.05-5.72,4.13-7.04,.94,.25,1.96,.38,3.06,.38,2.98,0,6.04-.86,8.27-1.49l.25-.07c.6-.17,1.12-.31,1.52-.39,1.7-.36,3.41-.54,5.08-.54m0-1c-1.49,0-3.27,.14-5.28,.56-.48,.1-1.11,.28-1.83,.48-2.17,.61-5.16,1.45-8,1.45-1.18,0-2.33-.16-3.38-.53-1.63,1.71-3.74,5.8-4.75,7.85-.25,1.1-.45,2.13-.53,2.97v.03c.05,.63,.98,10.63,2.76,14.2,.03,.04,.04,.1,.05,.15,.6,4.19,.84,5.96,.92,6.54l3.8,2.3c.75,.37,4.2,1.93,8.63,1.93,.16,0,.32,0,.48,0,3.26-.04,5.15-.61,6.34-1.18l5.02-3.04c.08-.58,.32-2.35,.92-6.54,.01-.05,.02-.11,.05-.15,1.77-3.56,2.72-13.16,2.78-13.88-.05-.87-.25-1.99-.53-3.21-1.19-2.32-4.02-7.7-5.86-9.87-.48-.03-1.01-.05-1.59-.05h0Z"/><path class="cls-16" d="M46.31,17.74s-4.65-3.98-10.93-2.39-11.93-3.93-10.57-5.96c1.4,1.99,3.48,1.94,3.48,1.94,0,0-.36-1.99,.95-2.89,.72,2.3,4.11,3.34,6.24,3.34s8.77,2.26,10.84,5.96Z"/><path class="cls-2" d="M23.9,40.85c1.11,.4,2.98,.79,5.05,.01,.43-.16,.8,.34,.51,.69-2.6,3.14-4.62,2.67-6.09-.09-.19-.35,.16-.75,.54-.62Z"/><path class="cls-14" d="M45.87,58.37l14.62,5.62-1.65,5.78-13.21-4.95s.74-3.3,.25-6.44Z"/><path class="cls-4" d="M30.98,38.3l1.05-3.64-6.85-1.68s-3.43,.42-4.89,1.54c.91,2.38,1.83,3.09,1.83,3.09,0,0,2.57-.71,4.53-.43s4.34,1.12,4.34,1.12Z"/><path class="cls-4" d="M37.76,38.47l-1.03-3.81,6.85-1.68s3.43,.42,4.89,1.54c-.91,2.38-1.81,3.09-1.81,3.09,0,0-2.6-.71-4.55-.43s-4.36,1.29-4.36,1.29Z"/><path class="cls-2" d="M51.87,32.01s2.31,2.86-.4,9.46c4.29-7.55,2.86-11.61,.4-9.46Z"/><path class="cls-8" d="M47.39,19.25s-1.96-5.67-10.32-6.9c-8.43-1.31-7.48-4.21-7.48-4.21,0,0-2.25,.73-1.09,3.27-2.91-.8-3.34-2.76-3.34-2.76,0,0-2.25,1.96-1.67,3.56-2.83-.51-2.91-1.6-2.91-1.6,0,0-2.62,4.87,1.38,8.72s12.26,.55,15.18-.07c6.17-1.31,10.24,0,10.24,0Z"/><path class="cls-8" d="M21.56,19.55s-3.09,8.87-3.33,12.75c-2.46-2.69-4.04-.16-2.93,3.8s3.41,7.61,4.67,7.76"/><path class="cls-8" d="M18.58,33.93s.59,8.67,2.5,12.48c.77,5.41,.95,6.77,.95,6.77l5.59,3.39"/><path d="M18.71,30.2s3.4-7.4,5.63-9.36c-1.51-.46-2.75-1.83-2.75-1.83,0,0-2.29,7.53-3.01,11.46"/><path class="cls-8" d="M47.69,19.55s3.09,8.87,3.33,12.75c2.46-2.69,4.04-.16,2.93,3.8s-3.41,7.61-4.67,7.76"/><path class="cls-8" d="M51.02,32.31s-.94,10.3-2.84,14.1c-.77,5.41-.95,6.77-.95,6.77l-5.59,3.39"/><path d="M50.53,30.2s-4.73-9.58-6.96-11.55c1.51-.46,4.07,.35,4.07,.35,0,0,2.29,7.53,3.01,11.46"/><path d="M20.09,34.55s2.25-2.14,5.87-2.25c5.41,1.07,6.48,2.06,6.48,2.06,0,0-.57,1.03-1.49,1.45-3.2-.42-6.29-1.98-6.29-1.98,0,0-2.14-.19-4.58,.72Z"/><path d="M21.96,37.57c3.12-1.6,6.33-1.19,9.11,.9-.8,.41-1.68,.84-2.55,1.03-1.78,.47-3.96,.27-5.31-1.05,2.11,1.06,4.61,.54,6.63-.47,0,0-.03,.85-.03,.85-2.36-1.59-5.13-1.75-7.85-1.25h0Z"/><path d="M48.69,34.55s-2.25-2.14-5.87-2.25c-5.41,1.07-6.48,2.06-6.48,2.06,0,0,.57,1.03,1.49,1.45,3.2-.42,6.29-1.98,6.29-1.98,0,0,2.14-.19,4.58,.72Z"/><path d="M46.82,37.57c-2.73-.5-5.5-.34-7.85,1.25,0,0-.03-.85-.03-.85,2.02,1.01,4.52,1.53,6.63,.47-1.35,1.32-3.52,1.52-5.31,1.05-.86-.18-1.75-.62-2.55-1.03,2.79-2.09,5.99-2.49,9.11-.9h0Z"/><path d="M37.16,41.75c.64,.5,1.23,1.04,1.81,1.59-1.41,.89-2.87,1.69-4.36,2.42,0,0-.22,.11-.22,.11-1.45-.71-2.87-1.47-4.25-2.32,0,0-.34-.21-.34-.21,.58-.55,1.17-1.09,1.81-1.59-.35,.6-.74,1.17-1.14,1.73l-.09-.44c1.44,.54,2.84,1.16,4.21,1.83h-.44c1.38-.67,2.77-1.29,4.22-1.83l-.09,.44c-.4-.56-.79-1.13-1.14-1.73h0Z"/><path d="M41.2,50.99c1.79,1.6,1.49,4.45,1.22,6.62-2.54,1.13-5.22,1.92-7.94,2.5-2.72-.58-5.4-1.37-7.94-2.5-.27-1.79-.36-3.74,.51-5.4,.27-.5,.64-.98,1.14-1.21-1,1.79-.36,3.93,.06,5.81,0,0-.55-.66-.55-.66,2.29,.8,4.61,1.5,6.99,1.96h-.4c2.38-.46,4.71-1.15,6.99-1.96l-.55,.66c.4-1.86,1.14-3.94,.48-5.81h0Z"/><path d="M28.51,26.5c3.1-.42,5.93-.31,8.96-.18,.99,.06,1.98,.1,3.04,.28l.02,.1c-3.87,.66-8.38,.8-12.01-.2h0Z"/><path class="cls-7" d="M46.3,53.9s-.67,3.5-.31,6.43c-3.36,3.95-8.36,5.54-11.23,5.54h-.37c-2.87,0-7.87-1.59-11.23-5.54,.37-2.93-.31-6.43-.31-6.43"/><path class="cls-7" d="M24.54,54.97c.44,2.9,2.66,6.32,2.66,6.32l2.32-3.25s1.74,4.79,5.25,7.84"/><path class="cls-7" d="M44.52,54.97c-.44,2.9-2.66,6.32-2.66,6.32l-2.32-3.25s-1.74,4.79-5.25,7.84"/><line class="cls-7" x1="22.81" y1="56.29" x2="6.48" y2="62.57"/><line class="cls-7" x1="46.33" y1="56.29" x2="62.66" y2="62.57"/><path class="cls-7" d="M23.17,60.33s-.43,7.54,3.72,14.86"/><path class="cls-7" d="M17.83,58.44s-3.85,6.64-3.92,11.02c4.53,.45,5.21,.53,5.21,.53l-3.77,3.55"/><path class="cls-7" d="M46.02,60.33s.12,7.54-4.04,14.86"/><path class="cls-7" d="M50.93,58.15s3.96,6.93,4.03,11.31c-4.53,.45-5.21,.53-5.21,.53l3.77,3.55"/><path class="cls-7" d="M28.49,64.76s-.05,5.49,2.14,8.29l-1.24,3.89"/><path class="cls-7" d="M23.76,67.24c.28,0,1.58,1.75,5.3,2.54"/><path class="cls-7" d="M40.56,64.76s.05,5.49-2.14,8.29l1.24,3.89"/><path class="cls-7" d="M45.3,67.24c-.28,0-1.58,1.75-5.3,2.54"/><path class="cls-7" d="M30.64,73.05s3.4,1.83,7.78,0"/><polygon points="36.06 55.54 41.29 55.54 40.84 57.04 34.27 58.58 34.47 58.58 27.89 57.04 27.45 55.54 32.67 55.54 34.36 54 36.06 55.54"/><path d="M40.32,49.25c-.51-.31-.99-.66-1.47-1.01l.18,.07c-2.98,.31-5.97,.31-8.95,0l.18-.07c-.48,.35-.95,.7-1.47,1.01,.34-.49,.72-.95,1.1-1.4,3.01-.48,6.1-.34,9.13-.07,.5,.25,.9,1.01,1.28,1.47h0Z"/><path d="M31.97,50.14c1.71-.68,3.46-.69,5.18,0-1.71,.69-3.46,.68-5.18,0h0Z"/><path class="cls-16" d="M23.76,55.07c.33,.78,.52,1.57,.8,2.36-4.61,2.4-9.56,4.18-14.74,4.87,0,0-.03-.09-.03-.09,4.18-1.53,10.04-3.63,14.19-5.06,0,0-.04,.07-.04,.07l-.28-2.12h.1Z"/><path class="cls-16" d="M26.79,56.61c.56,.76,1.01,1.57,1.44,2.38l-.41-.38c2.78,.31,5.58,.61,8.39,.65,.94,.02,1.88-.03,2.89-.05l.03,.09c-1.84,.64-3.8,.84-5.74,.8-1.94-.07-3.97-.31-5.8-.88,0,0-.89-2.57-.89-2.57l.09-.03h0Z"/><path d="M18.73,31.61s-1.7-.75-3.26,.12,0,5.18,.56,7.05,2.49,4.74,3.87,4.93c-.49-9.44-1.17-12.1-1.17-12.1Z"/></g>
<g id="BG"><path class="cls-5" d="M62.56,4.88C54.4,1.94,45.12,.2,35.25,.02,34.68,.01,34.1,0,33.53,0,23.88,0,14.77,1.52,6.72,4.21,2.49,14.22,0,26.6,0,40s2.39,25.22,6.45,35.11c8.16,2.94,17.45,4.69,27.32,4.87,.58,.01,1.15,.02,1.73,.02,9.63,0,18.73-1.51,26.78-4.2,4.24-10.01,6.74-22.39,6.74-35.8s-2.4-25.24-6.46-35.12Zm-4.04,66.86c-7.2,2.16-14.94,3.26-23.02,3.26-.49,0-.98-.01-1.47-.02h-.17c-8.18-.15-16.29-1.47-23.6-3.85-3.45-9.22-5.26-19.93-5.26-31.13s1.89-22.38,5.48-31.73c6.73-2.01,14.13-3.13,21.6-3.26,.48-.01,.97-.01,1.45-.01,.54,0,1.08,.01,1.63,.02,8.16,.15,16.27,1.47,23.59,3.84,3.46,9.24,5.27,19.95,5.27,31.14s-1.89,22.39-5.5,31.74Z"/><path class="cls-12" d="M17.21,2.06h0c1.63,.63,2.06,2.75,.81,3.97l-1.26,1.22s8.35-2.37,18.84-1.69h0c-1-1.49-.45-3.52,1.14-4.34l1-.51S28.26-.43,17.21,2.06Z"/><path class="cls-15" d="M21.81,1.66s.7,2.18-.22,3.1c3.77-.41,7.98-.74,11.12-.74-.33-1.33,1.26-3.4,1.26-3.4,0,0-6.17-.26-12.16,1.03Z"/><path class="cls-12" d="M36.25,79.21h0c-1.52-.87-1.62-3.03-.2-4.04l1.43-1.02s-8.61,1.07-18.88-1.19h0c.76,1.63-.09,3.55-1.79,4.11l-1.07,.36s9.19,2.56,20.5,1.78Z"/><path class="cls-15" d="M19.28,77.8s1.76-1.83,1.3-3.09c4.43,.69,9.11,1.14,12.25,1.14-.33,1.33,.44,3.4,.44,3.4,0,0-8-.16-13.99-1.45Z"/><polygon points="47.48 1.77 47.48 6.73 54.49 8.44 54.49 2.62 47.48 1.77"/><line class="cls-7" x1="45.5" y1="1.23" x2="45.5" y2="6.29"/><line class="cls-7" x1="56.47" y1="3.67" x2="56.47" y2="8.73"/><polygon points="47.48 78.74 47.48 73.78 54.49 72.07 54.49 77.88 47.48 78.74"/><line class="cls-7" x1="45.5" y1="79.28" x2="45.5" y2="74.21"/><line class="cls-7" x1="56.47" y1="76.84" x2="56.47" y2="71.77"/><path d="M33.53,1c.56,0,1.14,.01,1.7,.02,9.39,.17,18.33,1.74,26.57,4.65,4.07,10.08,6.22,21.94,6.22,34.33s-2.24,24.79-6.49,34.99c-8.12,2.66-16.87,4.01-26.03,4.01-.56,0-1.12,0-1.71-.02-9.25-.17-18.42-1.78-26.58-4.66C3.15,64.25,1,52.39,1,40S3.23,15.21,7.47,5.02C15.6,2.35,24.37,1,33.53,1m0-1C23.88,0,14.77,1.52,6.72,4.21,2.49,14.22,0,26.6,0,40s2.39,25.22,6.45,35.11c8.16,2.94,17.45,4.69,27.32,4.87,.58,.01,1.15,.02,1.73,.02,9.63,0,18.73-1.51,26.78-4.2,4.24-10.01,6.74-22.39,6.74-35.8s-2.4-25.24-6.46-35.12C54.4,1.94,45.12,.2,35.25,.02c-.57-.01-1.15-.02-1.72-.02h0Z"/><path class="cls-12" d="M33.53,6c.52,0,1.05,0,1.61,.02,7.87,.14,15.75,1.4,22.84,3.64,3.3,9,5.04,19.47,5.04,30.34s-1.82,21.82-5.26,30.92c-6.98,2.04-14.47,3.08-22.26,3.08-.48,0-.97,0-1.47-.02h-.15c-7.89-.14-15.78-1.41-22.85-3.65-3.29-8.99-5.03-19.46-5.03-30.33s1.81-21.79,5.24-30.91c6.5-1.89,13.7-2.95,20.86-3.08,.47,0,.96,0,1.43,0m0-1c-.48,0-.97,0-1.45,.01-7.47,.13-14.87,1.25-21.6,3.26-3.59,9.35-5.48,20.26-5.48,31.73s1.81,21.91,5.26,31.13c7.31,2.38,15.42,3.7,23.6,3.85h.17c.49,.01,.98,.02,1.47,.02,8.08,0,15.82-1.1,23.02-3.26,3.61-9.35,5.5-20.27,5.5-31.74s-1.81-21.9-5.27-31.14c-7.32-2.37-15.43-3.69-23.59-3.84-.55-.01-1.09-.02-1.63-.02h0Z"/><path d="M33.53,5c.54,0,1.08,.01,1.63,.02,8.16,.15,16.27,1.47,23.59,3.84,3.46,9.24,5.27,19.95,5.27,31.14s-1.89,22.39-5.5,31.74c-7.2,2.16-14.94,3.26-23.02,3.26-.49,0-.98-.01-1.47-.02h-.17c-8.18-.15-16.29-1.47-23.6-3.85-3.45-9.22-5.26-19.93-5.26-31.13s1.89-22.38,5.48-31.73c6.73-2.01,14.13-3.13,21.6-3.26,.48-.01,.97-.01,1.45-.01m0-1c-.49,0-.98,0-1.47,.01-7.51,.13-15.07,1.27-21.87,3.3l-.47,.14-.18,.46c-3.63,9.45-5.55,20.55-5.55,32.09s1.84,22.17,5.32,31.48l.17,.45,.46,.15c7.37,2.4,15.63,3.75,23.89,3.9h.19c.48,.01,.97,.02,1.47,.02,8.16,0,16-1.11,23.31-3.3l.47-.14,.18-.46c3.64-9.43,5.57-20.53,5.57-32.1s-1.84-22.17-5.33-31.49l-.17-.45-.46-.15c-7.39-2.39-15.65-3.74-23.88-3.89-.58-.01-1.11-.02-1.65-.02h0Z"/><path class="cls-9" d="M8.14,7.1s-12.66,32.94,0,66.06"/><path class="cls-9" d="M60.88,7.58s12.66,32.94,0,66.06"/></g>
</svg>