<?xml version="1.0" encoding="UTF-8"?><svg id="Capa_2" xmlns="http://www.w3.org/2000/svg" xmlns:xlink="http://www.w3.org/1999/xlink" viewBox="0 0 69.02 80"><defs><style>.cls-1{fill:#c89aed;}.cls-2{fill:#fff;}.cls-3{fill:#f8ffbf;}.cls-4{fill:#7b7be8;}.cls-5,.cls-6,.cls-7{stroke:#000;}.cls-5,.cls-6,.cls-7,.cls-8,.cls-9,.cls-10{fill:none;}.cls-5,.cls-8{stroke-linejoin:round;}.cls-11{fill:#a88347;}.cls-12{fill:#782ab5;}.cls-6,.cls-7{stroke-miterlimit:10;}.cls-7{stroke-width:.75px;}.cls-8{stroke:#deb778;stroke-dasharray:0 0 0 4.06;stroke-linecap:round;}.cls-13{fill:#deb778;}.cls-14{fill:url(#USGS_19_Inundación_de_tierra_2);}.cls-10{stroke:#1d1d1b;stroke-dasharray:0 0 2 2;stroke-width:.3px;}.cls-15{fill:#fcf0c5;}</style><pattern id="USGS_19_Inundación_de_tierra_2" x="0" y="0" width="72" height="72" patternTransform="translate(-524.48 -17071) rotate(-90)" patternUnits="userSpaceOnUse" viewBox="0 0 72 72"><g><rect class="cls-9" width="72" height="72"/><g><line class="cls-10" x1="71" y1="71" x2="144.44" y2="71"/><line class="cls-10" x1="71" y1="67" x2="144.44" y2="67"/><line class="cls-10" x1="71" y1="63" x2="144.44" y2="63"/><line class="cls-10" x1="71" y1="59" x2="144.44" y2="59"/><line class="cls-10" x1="71" y1="55" x2="144.44" y2="55"/><line class="cls-10" x1="71" y1="51" x2="144.44" y2="51"/><line class="cls-10" x1="71" y1="47" x2="144.44" y2="47"/><line class="cls-10" x1="71" y1="43" x2="144.44" y2="43"/><line class="cls-10" x1="71" y1="39" x2="144.44" y2="39"/><line class="cls-10" x1="71" y1="35" x2="144.44" y2="35"/><line class="cls-10" x1="71" y1="31" x2="144.44" y2="31"/><line class="cls-10" x1="71" y1="27" x2="144.44" y2="27"/><line class="cls-10" x1="71" y1="23" x2="144.44" y2="23"/><line class="cls-10" x1="71" y1="19" x2="144.44" y2="19"/><line class="cls-10" x1="71" y1="15" x2="144.44" y2="15"/><line class="cls-10" x1="71" y1="11" x2="144.44" y2="11"/><line class="cls-10" x1="71" y1="7" x2="144.44" y2="7"/><line class="cls-10" x1="71" y1="3" x2="144.44" y2="3"/></g>
<g><line class="cls-10" x1="-1" y1="71" x2="72.44" y2="71"/><line class="cls-10" x1="-1" y1="67" x2="72.44" y2="67"/><line class="cls-10" x1="-1" y1="63" x2="72.44" y2="63"/><line class="cls-10" x1="-1" y1="59" x2="72.44" y2="59"/><line class="cls-10" x1="-1" y1="55" x2="72.44" y2="55"/><line class="cls-10" x1="-1" y1="51" x2="72.44" y2="51"/><line class="cls-10" x1="-1" y1="47" x2="72.44" y2="47"/><line class="cls-10" x1="-1" y1="43" x2="72.44" y2="43"/><line class="cls-10" x1="-1" y1="39" x2="72.44" y2="39"/><line class="cls-10" x1="-1" y1="35" x2="72.44" y2="35"/><line class="cls-10" x1="-1" y1="31" x2="72.44" y2="31"/><line class="cls-10" x1="-1" y1="27" x2="72.44" y2="27"/><line class="cls-10" x1="-1" y1="23" x2="72.44" y2="23"/><line class="cls-10" x1="-1" y1="19" x2="72.44" y2="19"/><line class="cls-10" x1="-1" y1="15" x2="72.44" y2="15"/><line class="cls-10" x1="-1" y1="11" x2="72.44" y2="11"/><line class="cls-10" x1="-1" y1="7" x2="72.44" y2="7"/><line class="cls-10" x1="-1" y1="3" x2="72.44" y2="3"/><line class="cls-10" x1="1.04" y1="69" x2="74.48" y2="69"/><line class="cls-10" x1="1.04" y1="65" x2="74.48" y2="65"/><line class="cls-10" x1="1.04" y1="61" x2="74.48" y2="61"/><line class="cls-10" x1="1.04" y1="57" x2="74.48" y2="57"/><line class="cls-10" x1="1.04" y1="53" x2="74.48" y2="53"/><line class="cls-10" x1="1.04" y1="49" x2="74.48" y2="49"/><line class="cls-10" x1="1.04" y1="45" x2="74.48" y2="45"/><line class="cls-10" x1="1.04" y1="41" x2="74.48" y2="41"/><line class="cls-10" x1="1.04" y1="37" x2="74.48" y2="37"/><line class="cls-10" x1="1.04" y1="33" x2="74.48" y2="33"/><line class="cls-10" x1="1.04" y1="29" x2="74.48" y2="29"/><line class="cls-10" x1="1.04" y1="25" x2="74.48" y2="25"/><line class="cls-10" x1="1.04" y1="21" x2="74.48" y2="21"/><line class="cls-10" x1="1.04" y1="17" x2="74.48" y2="17"/><line class="cls-10" x1="1.04" y1="13" x2="74.48" y2="13"/><line class="cls-10" x1="1.04" y1="9" x2="74.48" y2="9"/><line class="cls-10" x1="1.04" y1="5" x2="74.48" y2="5"/><line class="cls-10" x1="1.04" y1="1" x2="74.48" y2="1"/></g>
<g><line class="cls-10" x1="-73" y1="71" x2=".44" y2="71"/><line class="cls-10" x1="-73" y1="67" x2=".44" y2="67"/><line class="cls-10" x1="-73" y1="63" x2=".44" y2="63"/><line class="cls-10" x1="-73" y1="59" x2=".44" y2="59"/><line class="cls-10" x1="-73" y1="55" x2=".44" y2="55"/><line class="cls-10" x1="-73" y1="51" x2=".44" y2="51"/><line class="cls-10" x1="-73" y1="47" x2=".44" y2="47"/><line class="cls-10" x1="-73" y1="43" x2=".44" y2="43"/><line class="cls-10" x1="-73" y1="39" x2=".44" y2="39"/><line class="cls-10" x1="-73" y1="35" x2=".44" y2="35"/><line class="cls-10" x1="-73" y1="31" x2=".44" y2="31"/><line class="cls-10" x1="-73" y1="27" x2=".44" y2="27"/><line class="cls-10" x1="-73" y1="23" x2=".44" y2="23"/><line class="cls-10" x1="-73" y1="19" x2=".44" y2="19"/><line class="cls-10" x1="-73" y1="15" x2=".44" y2="15"/><line class="cls-10" x1="-73" y1="11" x2=".44" y2="11"/><line class="cls-10" x1="-73" y1="7" x2=".44" y2="7"/><line class="cls-10" x1="-73" y1="3" x2=".44" y2="3"/><line class="cls-10" x1="-70.96" y1="69" x2="2.48" y2="69"/><line class="cls-10" x1="-70.96" y1="65" x2="2.48" y2="65"/><line class="cls-10" x1="-70.96" y1="61" x2="2.48" y2="61"/><line class="cls-10" x1="-70.96" y1="57" x2="2.48" y2="57"/><line class="cls-10" x1="-70.96" y1="53" x2="2.48" y2="53"/><line class="cls-10" x1="-70.96" y1="49" x2="2.48" y2="49"/><line class="cls-10" x1="-70.96" y1="45" x2="2.48" y2="45"/><line class="cls-10" x1="-70.96" y1="41" x2="2.48" y2="41"/><line class="cls-10" x1="-70.96" y1="37" x2="2.48" y2="37"/><line class="cls-10" x1="-70.96" y1="33" x2="2.48" y2="33"/><line class="cls-10" x1="-70.96" y1="29" x2="2.48" y2="29"/><line class="cls-10" x1="-70.96" y1="25" x2="2.48" y2="25"/><line class="cls-10" x1="-70.96" y1="21" x2="2.48" y2="21"/><line class="cls-10" x1="-70.96" y1="17" x2="2.48" y2="17"/><line class="cls-10" x1="-70.96" y1="13" x2="2.48" y2="13"/><line class="cls-10" x1="-70.96" y1="9" x2="2.48" y2="9"/><line class="cls-10" x1="-70.96" y1="5" x2="2.48" y2="5"/><line class="cls-10" x1="-70.96" y1="1" x2="2.48" y2="1"/></g>
</g>
</pattern></defs><g id="Frame"><path class="cls-12" d="M64.02,40c0,11.47-1.89,22.39-5.5,31.74-7.2,2.16-14.94,3.26-23.02,3.26-.49,0-.98-.01-1.47-.02h-.17c-8.18-.15-16.29-1.47-23.6-3.85-3.45-9.22-5.26-19.93-5.26-31.13s1.89-22.38,5.48-31.73c6.73-2.01,14.13-3.13,21.6-3.26,.48-.01,.97-.01,1.45-.01,.54,0,1.08,.01,1.63,.02,8.16,.15,16.27,1.47,23.59,3.84,3.46,9.24,5.27,19.95,5.27,31.14Z"/><path class="cls-14" d="M34.03,5.59V74.98h-.17c-8.18-.15-16.29-1.47-23.6-3.85-3.45-9.22-5.26-19.93-5.26-31.13s1.89-22.38,5.48-31.73c6.73-2.01,14.13-3.13,21.6-3.26,.65,.16,1.3,.36,1.95,.58Z"/></g>
<g><path class="cls-1" d="M18.85,32.76s-2.3-3.54-3.98-2.39-.44,6.37,.44,8.67,3.36,5.05,5.31,5.13c1.86,5.84,3.36,7.97,3.36,7.97l-.97,7.35-14.69,4.51,.27,10.44,25.93,2.21,24.69-3.19,1.68-9.38-13.63-4.87-.71-6.64s2.12-4.51,2.83-8.76c4.16,1.33,6.2-4.78,6.73-7.61s.44-9.74-4.34-3.81c.09-9.82-.89-12.75-2.3-15.67s-4.87-7.43-14.34-7.43c-10.62,.35-13.45,5.13-15.22,9.91-2.04,4.96-1.06,13.54-1.06,13.54Z"/><path class="cls-11" d="M47.16,58.81s-2.45,9.56-12.18,13.37c-2.79-1.18-3.38-1.61-3.38-1.61l-3.3,3.81s9.31,.93,16.58,.59,14.3-3.22,14.3-3.22l1.72-7.67-13.74-5.28Z"/><path class="cls-2" d="M35.06,53.82V18.65c0-5.5,5.85-9.2,10.71-6.62,.36,.19,.65,.38,.85,.57,1.99,2.22,5.61,11.09,5.72,13.43-.47,7.47-3.04,20.67-4.2,23.36-1.58,3.19-4.32,6.54-5.49,7.24-.01,.01-.02,.03-.04,.04-2.57,3.04-7.56,1.13-7.56-2.85Z"/><path d="M18.73,33.31s-1.43-3.48-3.21-3.14-1.23,4.91-.82,6.76,1.88,6.93,5.92,7.25c-.94-5.61-1.9-10.87-1.9-10.87Z"/><path class="cls-4" d="M38.66,37.45l-1.29-6.33,6.71-.07s3.41,.93,4.26,1.45c-.26,3.3-.93,4.04-.93,4.04l-8.76,.92Z"/><path class="cls-3" d="M38.42,37.39s.38-2.3,.77-2.81c4.28-.58,6.77,1.09,7.22,1.66-3.71,1.98-6.71,1.73-7.99,1.15Z"/><path class="cls-4" d="M31.72,37.45l1.29-6.33-6.71-.07s-3.41,.93-4.26,1.45c.26,3.3,.93,4.04,.93,4.04l8.76,.92Z"/><path class="cls-3" d="M31.72,37.45s-.14-2.34-.41-2.79c-4.19,.14-5.18,.14-7.29,1.94,3.92,1.58,6.39,1.31,7.7,.86Z"/><path d="M43.1,56.79l-14.41,17.84-18.3-2.97-1.6-7.44,14.23-4.74,1.1-6.47,3.55,3.43s1.83,2.52,7.78,3.09c3.89,0,7.09-2.06,7.66-2.75Z"/><path class="cls-2" d="M24.44,38.6c1.17,.27,3.1,.63,5.06,.58,.49-.01,.7,.63,.29,.9-3.06,2.04-4.48,1.46-5.88-.75-.23-.37,.11-.83,.53-.74Z"/><path class="cls-2" d="M45.47,56.1l-2.71,2.79-9.05,10.91,1.61,1.02s7.28-2.79,10.75-11.93c-.17-2.12-.59-2.79-.59-2.79Z"/><path class="cls-2" d="M52.05,31.94s2.38-1.01,2.85,.65-1.43,9.45-2.55,10.64c4.16-5.35,4.34-8.91,4.04-11.11s-2.02-2.55-4.34-.18Z"/><path class="cls-1" d="M16.06,30.53s-2.7,.31-1.62,5.09,2.54,6.78,4.47,7.71c-1.93-3.24-4.93-8.32-2.85-12.79Z"/><path class="cls-1" d="M35.91,11.15c1.92,.25,6.98,1.22,9.46,3.04,3.09,3.63,3.92,7.82,4.33,9.85,.1,.51,.18,.9,.27,1.22,.3,3.59-1.45,13.68-1.76,14.94l-.05,.13-.04,.23c-1.14,7.38-3.29,12.12-6.55,14.49l-.38,.28-.22,.42c-.2,.38-1.95,1.5-5.83,1.79-3.87-.29-5.62-1.41-5.82-1.78l-.22-.42-.39-.28c-3.27-2.36-5.41-7.1-6.56-14.49l-.04-.23-.05-.13c-.31-1.26-2.06-11.35-1.76-14.94,.09-.32,.17-.71,.27-1.22,.4-2.03,1.23-6.22,4.33-9.85,2.48-1.82,7.53-2.79,9.46-3.04h1.54m.12-2h-1.79s-7.25,.87-10.71,3.57c-4.44,5.09-4.76,11.04-5.19,12.12-.44,3.9,1.62,15.48,1.84,16.02,1.19,7.68,3.46,12.98,7.36,15.8,.79,1.53,3.88,2.61,7.6,2.87,3.71-.26,6.8-1.34,7.6-2.87,3.89-2.82,6.16-8.12,7.35-15.8,.22-.54,2.28-12.12,1.84-16.02-.43-1.08-.75-7.03-5.19-12.12-3.46-2.7-10.71-3.57-10.71-3.57h0Zm-.85,50.38h0Z"/><path class="cls-6" d="M36.03,9.15s7.25,.87,10.71,3.57c4.44,5.09,4.76,11.04,5.19,12.12,.44,3.9-1.62,15.48-1.84,16.02-1.19,7.68-3.46,12.98-7.35,15.8-.8,1.53-3.89,2.61-7.6,2.87h0c-3.72-.26-6.81-1.34-7.6-2.87-3.9-2.82-6.17-8.12-7.36-15.8-.22-.54-2.28-12.12-1.84-16.02,.43-1.08,.75-7.03,5.19-12.12,3.46-2.7,10.71-3.57,10.71-3.57h1.79Z"/><path class="cls-6" d="M18.91,33.06s-1.8-3.41-3.54-2.87-1.54,6.02-.07,9.09,2.87,4.95,5.48,4.75"/><path class="cls-6" d="M51.33,33.06s2.01-3.41,3.74-2.87,1.54,6.02,.07,9.09-2.87,4.95-5.48,4.75"/><polyline class="cls-6" points="23.6 52.09 23.07 59.11 7.13 64.91"/><polyline class="cls-6" points="46.59 52.09 47.13 59.11 63.06 64.91"/><path class="cls-5" d="M47.09,59.11s-1.98,9.06-12.01,13.37c-10.03-4.31-12.01-13.37-12.01-13.37"/><path class="cls-5" d="M29.86,69.59l-7.19,4.78s-3.75-6.97-2.37-14.29"/><path class="cls-5" d="M40.4,69.59l7.19,4.78s3.75-6.97,2.37-14.29"/><path d="M24.97,18.69c-1.48,3.37-2.29,7.3-3.03,10.7-.62-2.84,.07-5.78,1.31-8.35,.43-.85,.93-1.67,1.63-2.39,0,0,.09,.04,.09,.04h0Z"/><path d="M45.55,18.51c1.94,2.16,2.89,5,3.14,7.85,.08,.95,.03,1.92-.2,2.89h-.1c-.39-3.65-1.81-7.42-2.84-10.74h0Z"/><path d="M28.58,26.26c3.25-.95,6.63-.99,9.97-.66,1.11,.13,2.21,.31,3.32,.66v.1c-3.31,.05-9.98,.05-13.29,0,0,0,0-.1,0-.1h0Z"/><path d="M21.94,32.57s2.05-2.16,5.37-2.77c4.93,.94,5.76,1.27,5.76,1.27,0,0-.61,1.11-1.44,1.44-2.66-.11-5.09-.72-5.09-.72,0,0-2.55,.28-4.6,.78Z"/><path d="M31.79,37.49c-.2-.87-.38-1.86-.77-2.64,0,0,.24,.17,.24,.17-2.61-.14-5.28-.04-7.3,1.76,0,0-.09-.75-.09-.75,.8,.45,1.67,.8,2.57,1.07,.91,.27,1.84,.5,2.8,.66-2.18,.25-4.43-.15-6.38-1.21,.67-.66,1.39-1.28,2.25-1.7,1.98-1.02,4.35-.81,6.41-.4,.37,1,.33,2.01,.27,3.03h0Z"/><path d="M48.32,32.57s-2.05-2.16-5.37-2.77c-4.93,.94-5.76,1.27-5.76,1.27,0,0,.61,1.11,1.44,1.44,2.66-.11,5.09-.72,5.09-.72,0,0,2.55,.28,4.6,.78Z"/><path d="M38.46,37.49c-.05-1.03-.1-2.03,.27-3.03,2.06-.41,4.43-.62,6.41,.4,.86,.42,1.58,1.04,2.25,1.7-1.95,1.06-4.2,1.46-6.38,1.21,.96-.16,1.9-.39,2.8-.66,.91-.27,1.78-.63,2.57-1.07l-.09,.75c-2.03-1.8-4.69-1.9-7.3-1.76,0,0,.24-.17,.24-.17-.39,.78-.57,1.77-.77,2.64h0Z"/><path d="M37.81,40.79c1.18,.21,2.89,1.64,1.45,2.72-.42,.26-.83,.34-1.29,.36l.43-.36c-.29,1.5-1.97,2.04-3.27,2.09,0,0,0-1,0-1h.1s0,1,0,1c-.03,0-.11,0-.13,0-1.27-.09-2.86-.63-3.14-2.08,0,0,.43,.36,.43,.36-2.78-.19-2.07-2.61,.17-3.09-1.44,.8-2.3,2.49,.11,2.23,0,0,.12,.39,.12,.39,.33,.91,1.67,1.18,2.45,1.19,0,0,0,1,0,1h-.1v-1c.77-.01,2.11-.28,2.45-1.19,0,0,.13-.38,.13-.38,2.41,.26,1.54-1.44,.11-2.23h0Z"/><path class="cls-7" d="M28.98,47.41c-.3,.49-.7,1.11-1.05,1.9"/><path class="cls-7" d="M41.37,47.41c.3,.49,.7,1.11,1.05,1.9"/><polyline class="cls-6" points="41.79 48.58 41.14 49.37 35.97 49.37 34.38 49.37 29.22 49.37 28.56 48.58"/><path d="M39.05,51.14c-.13,.45-.33,.83-.53,1.22-1.17,.34-2.37,.49-3.55,.5-1.2-.01-2.39-.16-3.55-.5-.2-.39-.4-.77-.53-1.22,0,0,.07-.07,.07-.07l.82,.84-.05-.02c1.61-.03,4.85-.03,6.47,0-.19,.13,.81-.84,.78-.83,0,0,.07,.07,.07,.07h0Z"/><path class="cls-11" d="M24.17,55.92c.22,1.42,.31,2.85,.33,4.28-3.15,1.57-6.53,2.87-9.95,3.72-1.09,.3-2.21,.52-3.36,.68l-.04-.09c3.63-1.35,9.22-3.63,12.6-4.72,0,0,.32-3.87,.32-3.87h.1Z"/></g>
<g id="BG"><path class="cls-11" d="M62.56,4.88C54.4,1.94,45.12,.2,35.25,.02,34.68,.01,34.1,0,33.53,0,23.88,0,14.77,1.52,6.72,4.21,2.49,14.22,0,26.6,0,40s2.39,25.22,6.45,35.11c8.16,2.94,17.45,4.69,27.32,4.87,.58,.01,1.15,.02,1.73,.02,9.63,0,18.73-1.51,26.78-4.2,4.24-10.01,6.74-22.39,6.74-35.8s-2.4-25.24-6.46-35.12Zm-4.04,66.86c-7.2,2.16-14.94,3.26-23.02,3.26-.49,0-.98-.01-1.47-.02h-.17c-8.18-.15-16.29-1.47-23.6-3.85-3.45-9.22-5.26-19.93-5.26-31.13s1.89-22.38,5.48-31.73c6.73-2.01,14.13-3.13,21.6-3.26,.48-.01,.97-.01,1.45-.01,.54,0,1.08,.01,1.63,.02,8.16,.15,16.27,1.47,23.59,3.84,3.46,9.24,5.27,19.95,5.27,31.14s-1.89,22.39-5.5,31.74Z"/><path class="cls-13" d="M17.21,2.06h0c1.63,.63,2.06,2.75,.81,3.97l-1.26,1.22s8.35-2.37,18.84-1.69h0c-1-1.49-.45-3.52,1.14-4.34l1-.51S28.26-.43,17.21,2.06Z"/><path class="cls-15" d="M21.81,1.66s.7,2.18-.22,3.1c3.77-.41,7.98-.74,11.12-.74-.33-1.33,1.26-3.4,1.26-3.4,0,0-6.17-.26-12.16,1.03Z"/><path class="cls-13" d="M36.25,79.21h0c-1.52-.87-1.62-3.03-.2-4.04l1.43-1.02s-8.61,1.07-18.88-1.19h0c.76,1.63-.09,3.55-1.79,4.11l-1.07,.36s9.19,2.56,20.5,1.78Z"/><path class="cls-15" d="M19.28,77.8s1.76-1.83,1.3-3.09c4.43,.69,9.11,1.14,12.25,1.14-.33,1.33,.44,3.4,.44,3.4,0,0-8-.16-13.99-1.45Z"/><polygon points="47.48 1.77 47.48 6.73 54.49 8.44 54.49 2.62 47.48 1.77"/><line class="cls-6" x1="45.5" y1="1.23" x2="45.5" y2="6.29"/><line class="cls-6" x1="56.47" y1="3.67" x2="56.47" y2="8.73"/><polygon points="47.48 78.74 47.48 73.78 54.49 72.07 54.49 77.88 47.48 78.74"/><line class="cls-6" x1="45.5" y1="79.28" x2="45.5" y2="74.21"/><line class="cls-6" x1="56.47" y1="76.84" x2="56.47" y2="71.77"/><path d="M33.53,1c.56,0,1.14,.01,1.7,.02,9.39,.17,18.33,1.74,26.57,4.65,4.07,10.08,6.22,21.94,6.22,34.33s-2.24,24.79-6.49,34.99c-8.12,2.66-16.87,4.01-26.03,4.01-.56,0-1.12,0-1.71-.02-9.25-.17-18.42-1.78-26.58-4.66C3.15,64.25,1,52.39,1,40S3.23,15.21,7.47,5.02C15.6,2.35,24.37,1,33.53,1m0-1C23.88,0,14.77,1.52,6.72,4.21,2.49,14.22,0,26.6,0,40s2.39,25.22,6.45,35.11c8.16,2.94,17.45,4.69,27.32,4.87,.58,.01,1.15,.02,1.73,.02,9.63,0,18.73-1.51,26.78-4.2,4.24-10.01,6.74-22.39,6.74-35.8s-2.4-25.24-6.46-35.12C54.4,1.94,45.12,.2,35.25,.02c-.57-.01-1.15-.02-1.72-.02h0Z"/><path class="cls-13" d="M33.53,6c.52,0,1.05,0,1.61,.02,7.87,.14,15.75,1.4,22.84,3.64,3.3,9,5.04,19.47,5.04,30.34s-1.82,21.82-5.26,30.92c-6.98,2.04-14.47,3.08-22.26,3.08-.48,0-.97,0-1.47-.02h-.15c-7.89-.14-15.78-1.41-22.85-3.65-3.29-8.99-5.03-19.46-5.03-30.33s1.81-21.79,5.24-30.91c6.5-1.89,13.7-2.95,20.86-3.08,.47,0,.96,0,1.43,0m0-1c-.48,0-.97,0-1.45,.01-7.47,.13-14.87,1.25-21.6,3.26-3.59,9.35-5.48,20.26-5.48,31.73s1.81,21.91,5.26,31.13c7.31,2.38,15.42,3.7,23.6,3.85h.17c.49,.01,.98,.02,1.47,.02,8.08,0,15.82-1.1,23.02-3.26,3.61-9.35,5.5-20.27,5.5-31.74s-1.81-21.9-5.27-31.14c-7.32-2.37-15.43-3.69-23.59-3.84-.55-.01-1.09-.02-1.63-.02h0Z"/><path d="M33.53,5c.54,0,1.08,.01,1.63,.02,8.16,.15,16.27,1.47,23.59,3.84,3.46,9.24,5.27,19.95,5.27,31.14s-1.89,22.39-5.5,31.74c-7.2,2.16-14.94,3.26-23.02,3.26-.49,0-.98-.01-1.47-.02h-.17c-8.18-.15-16.29-1.47-23.6-3.85-3.45-9.22-5.26-19.93-5.26-31.13s1.89-22.38,5.48-31.73c6.73-2.01,14.13-3.13,21.6-3.26,.48-.01,.97-.01,1.45-.01m0-1c-.49,0-.98,0-1.47,.01-7.51,.13-15.07,1.27-21.87,3.3l-.47,.14-.18,.46c-3.63,9.45-5.55,20.55-5.55,32.09s1.84,22.17,5.32,31.48l.17,.45,.46,.15c7.37,2.4,15.63,3.75,23.89,3.9h.19c.48,.01,.97,.02,1.47,.02,8.16,0,16-1.11,23.31-3.3l.47-.14,.18-.46c3.64-9.43,5.57-20.53,5.57-32.1s-1.84-22.17-5.33-31.49l-.17-.45-.46-.15c-7.39-2.39-15.65-3.74-23.88-3.89-.58-.01-1.11-.02-1.65-.02h0Z"/><path class="cls-8" d="M8.14,7.1s-12.66,32.94,0,66.06"/><path class="cls-8" d="M60.88,7.58s12.66,32.94,0,66.06"/></g>
</svg>