<svg id="Capa_2" xmlns="http://www.w3.org/2000/svg" xmlns:xlink="http://www.w3.org/1999/xlink" viewBox="0 0 69.02 80">
<defs >
<style >
.cls-1{fill:#c89aed;}.cls-2{fill:#fff;}.cls-3{fill:#f8ffbf;}.cls-4{fill:#7b7be8;}.cls-5,.cls-6,.cls-7{stroke:#000;}.cls-5,.cls-6,.cls-7,.cls-8,.cls-9,.cls-10{fill:none;}.cls-5,.cls-8{stroke-linejoin:round;}.cls-11{fill:#a88347;}.cls-12{fill:#782ab5;}.cls-6,.cls-7{stroke-miterlimit:10;}.cls-7{stroke-width:.75px;}.cls-8{stroke:#deb778;stroke-dasharray:0 0 0 4.06;stroke-linecap:round;}.cls-13{fill:#deb778;}.cls-14{fill:url(#USGS_19_Inundación_de_tierra_2);}.cls-10{stroke:#1d1d1b;stroke-dasharray:0 0 2 2;stroke-width:.3px;}.cls-15{fill:#fcf0c5;}
</style>
<pattern id="USGS_19_Inundación_de_tierra_2" x="0" y="0" width="72" height="72" patternTransform="translate(-524.48 -17071) rotate(-90)" patternUnits="userSpaceOnUse" viewBox="0 0 72 72">
<g >
<rect class="cls-9" width="72" height="72">
</rect>
<g >
<line class="cls-10" x1="71" y1="71" x2="144.44" y2="71">
</line>
<line class="cls-10" x1="71" y1="67" x2="144.44" y2="67">
</line>
<line class="cls-10" x1="71" y1="63" x2="144.44" y2="63">
</line>
<line class="cls-10" x1="71" y1="59" x2="144.44" y2="59">
</line>
<line class="cls-10" x1="71" y1="55" x2="144.44" y2="55">
</line>
<line class="cls-10" x1="71" y1="51" x2="144.44" y2="51">
</line>
<line class="cls-10" x1="71" y1="47" x2="144.44" y2="47">
</line>
<line class="cls-10" x1="71" y1="43" x2="144.44" y2="43">
</line>
<line class="cls-10" x1="71" y1="39" x2="144.44" y2="39">
</line>
<line class="cls-10" x1="71" y1="35" x2="144.44" y2="35">
</line>
<line class="cls-10" x1="71" y1="31" x2="144.44" y2="31">
</line>
<line class="cls-10" x1="71" y1="27" x2="144.44" y2="27">
</line>
<line class="cls-10" x1="71" y1="23" x2="144.44" y2="23">
</line>
<line class="cls-10" x1="71" y1="19" x2="144.44" y2="19">
</line>
<line class="cls-10" x1="71" y1="15" x2="144.44" y2="15">
</line>
<line class="cls-10" x1="71" y1="11" x2="144.44" y2="11">
</line>
<line class="cls-10" x1="71" y1="7" x2="144.44" y2="7">
</line>
<line class="cls-10" x1="71" y1="3" x2="144.44" y2="3">
</line>
</g>


<g >
<line class="cls-10" x1="-1" y1="71" x2="72.44" y2="71">
</line>
<line class="cls-10" x1="-1" y1="67" x2="72.44" y2="67">
</line>
<line class="cls-10" x1="-1" y1="63" x2="72.44" y2="63">
</line>
<line class="cls-10" x1="-1" y1="59" x2="72.44" y2="59">
</line>
<line class="cls-10" x1="-1" y1="55" x2="72.44" y2="55">
</line>
<line class="cls-10" x1="-1" y1="51" x2="72.44" y2="51">
</line>
<line class="cls-10" x1="-1" y1="47" x2="72.44" y2="47">
</line>
<line class="cls-10" x1="-1" y1="43" x2="72.44" y2="43">
</line>
<line class="cls-10" x1="-1" y1="39" x2="72.44" y2="39">
</line>
<line class="cls-10" x1="-1" y1="35" x2="72.44" y2="35">
</line>
<line class="cls-10" x1="-1" y1="31" x2="72.44" y2="31">
</line>
<line class="cls-10" x1="-1" y1="27" x2="72.44" y2="27">
</line>
<line class="cls-10" x1="-1" y1="23" x2="72.44" y2="23">
</line>
<line class="cls-10" x1="-1" y1="19" x2="72.44" y2="19">
</line>
<line class="cls-10" x1="-1" y1="15" x2="72.44" y2="15">
</line>
<line class="cls-10" x1="-1" y1="11" x2="72.44" y2="11">
</line>
<line class="cls-10" x1="-1" y1="7" x2="72.44" y2="7">
</line>
<line class="cls-10" x1="-1" y1="3" x2="72.44" y2="3">
</line>
<line class="cls-10" x1="1.04" y1="69" x2="74.48" y2="69">
</line>
<line class="cls-10" x1="1.04" y1="65" x2="74.48" y2="65">
</line>
<line class="cls-10" x1="1.04" y1="61" x2="74.48" y2="61">
</line>
<line class="cls-10" x1="1.04" y1="57" x2="74.48" y2="57">
</line>
<line class="cls-10" x1="1.04" y1="53" x2="74.48" y2="53">
</line>
<line class="cls-10" x1="1.04" y1="49" x2="74.48" y2="49">
</line>
<line class="cls-10" x1="1.04" y1="45" x2="74.48" y2="45">
</line>
<line class="cls-10" x1="1.04" y1="41" x2="74.48" y2="41">
</line>
<line class="cls-10" x1="1.04" y1="37" x2="74.48" y2="37">
</line>
<line class="cls-10" x1="1.04" y1="33" x2="74.48" y2="33">
</line>
<line class="cls-10" x1="1.04" y1="29" x2="74.48" y2="29">
</line>
<line class="cls-10" x1="1.04" y1="25" x2="74.48" y2="25">
</line>
<line class="cls-10" x1="1.04" y1="21" x2="74.48" y2="21">
</line>
<line class="cls-10" x1="1.04" y1="17" x2="74.48" y2="17">
</line>
<line class="cls-10" x1="1.04" y1="13" x2="74.48" y2="13">
</line>
<line class="cls-10" x1="1.04" y1="9" x2="74.48" y2="9">
</line>
<line class="cls-10" x1="1.04" y1="5" x2="74.48" y2="5">
</line>
<line class="cls-10" x1="1.04" y1="1" x2="74.48" y2="1">
</line>
</g>


<g >
<line class="cls-10" x1="-73" y1="71" x2=".44" y2="71">
</line>
<line class="cls-10" x1="-73" y1="67" x2=".44" y2="67">
</line>
<line class="cls-10" x1="-73" y1="63" x2=".44" y2="63">
</line>
<line class="cls-10" x1="-73" y1="59" x2=".44" y2="59">
</line>
<line class="cls-10" x1="-73" y1="55" x2=".44" y2="55">
</line>
<line class="cls-10" x1="-73" y1="51" x2=".44" y2="51">
</line>
<line class="cls-10" x1="-73" y1="47" x2=".44" y2="47">
</line>
<line class="cls-10" x1="-73" y1="43" x2=".44" y2="43">
</line>
<line class="cls-10" x1="-73" y1="39" x2=".44" y2="39">
</line>
<line class="cls-10" x1="-73" y1="35" x2=".44" y2="35">
</line>
<line class="cls-10" x1="-73" y1="31" x2=".44" y2="31">
</line>
<line class="cls-10" x1="-73" y1="27" x2=".44" y2="27">
</line>
<line class="cls-10" x1="-73" y1="23" x2=".44" y2="23">
</line>
<line class="cls-10" x1="-73" y1="19" x2=".44" y2="19">
</line>
<line class="cls-10" x1="-73" y1="15" x2=".44" y2="15">
</line>
<line class="cls-10" x1="-73" y1="11" x2=".44" y2="11">
</line>
<line class="cls-10" x1="-73" y1="7" x2=".44" y2="7">
</line>
<line class="cls-10" x1="-73" y1="3" x2=".44" y2="3">
</line>
<line class="cls-10" x1="-70.96" y1="69" x2="2.48" y2="69">
</line>
<line class="cls-10" x1="-70.96" y1="65" x2="2.48" y2="65">
</line>
<line class="cls-10" x1="-70.96" y1="61" x2="2.48" y2="61">
</line>
<line class="cls-10" x1="-70.96" y1="57" x2="2.48" y2="57">
</line>
<line class="cls-10" x1="-70.96" y1="53" x2="2.48" y2="53">
</line>
<line class="cls-10" x1="-70.96" y1="49" x2="2.48" y2="49">
</line>
<line class="cls-10" x1="-70.96" y1="45" x2="2.48" y2="45">
</line>
<line class="cls-10" x1="-70.96" y1="41" x2="2.48" y2="41">
</line>
<line class="cls-10" x1="-70.96" y1="37" x2="2.48" y2="37">
</line>
<line class="cls-10" x1="-70.96" y1="33" x2="2.48" y2="33">
</line>
<line class="cls-10" x1="-70.96" y1="29" x2="2.48" y2="29">
</line>
<line class="cls-10" x1="-70.96" y1="25" x2="2.48" y2="25">
</line>
<line class="cls-10" x1="-70.96" y1="21" x2="2.48" y2="21">
</line>
<line class="cls-10" x1="-70.96" y1="17" x2="2.48" y2="17">
</line>
<line class="cls-10" x1="-70.96" y1="13" x2="2.48" y2="13">
</line>
<line class="cls-10" x1="-70.96" y1="9" x2="2.48" y2="9">
</line>
<line class="cls-10" x1="-70.96" y1="5" x2="2.48" y2="5">
</line>
<line class="cls-10" x1="-70.96" y1="1" x2="2.48" y2="1">
</line>
</g>


</g>


</pattern>
</defs>



<g >
<path class="cls-1" d="M18.85,32.76s-2.3-3.54-3.98-2.39-.44,6.37,.44,8.67,3.36,5.05,5.31,5.13c1.86,5.84,3.36,7.97,3.36,7.97l-.97,7.35-14.69,4.51,.27,10.44,25.93,2.21,24.69-3.19,1.68-9.38-13.63-4.87-.71-6.64s2.12-4.51,2.83-8.76c4.16,1.33,6.2-4.78,6.73-7.61s.44-9.74-4.34-3.81c.09-9.82-.89-12.75-2.3-15.67s-4.87-7.43-14.34-7.43c-10.62,.35-13.45,5.13-15.22,9.91-2.04,4.96-1.06,13.54-1.06,13.54Z">
</path>
<path class="cls-11" d="M47.16,58.81s-2.45,9.56-12.18,13.37c-2.79-1.18-3.38-1.61-3.38-1.61l-3.3,3.81s9.31,.93,16.58,.59,14.3-3.22,14.3-3.22l1.72-7.67-13.74-5.28Z">
</path>
<path class="cls-2" d="M35.06,53.82V18.65c0-5.5,5.85-9.2,10.71-6.62,.36,.19,.65,.38,.85,.57,1.99,2.22,5.61,11.09,5.72,13.43-.47,7.47-3.04,20.67-4.2,23.36-1.58,3.19-4.32,6.54-5.49,7.24-.01,.01-.02,.03-.04,.04-2.57,3.04-7.56,1.13-7.56-2.85Z">
</path>
<path d="M18.73,33.31s-1.43-3.48-3.21-3.14-1.23,4.91-.82,6.76,1.88,6.93,5.92,7.25c-.94-5.61-1.9-10.87-1.9-10.87Z">
</path>
<path class="cls-4" d="M38.66,37.45l-1.29-6.33,6.71-.07s3.41,.93,4.26,1.45c-.26,3.3-.93,4.04-.93,4.04l-8.76,.92Z">
</path>
<path class="cls-3" d="M38.42,37.39s.38-2.3,.77-2.81c4.28-.58,6.77,1.09,7.22,1.66-3.71,1.98-6.71,1.73-7.99,1.15Z">
</path>
<path class="cls-4" d="M31.72,37.45l1.29-6.33-6.71-.07s-3.41,.93-4.26,1.45c.26,3.3,.93,4.04,.93,4.04l8.76,.92Z">
</path>
<path class="cls-3" d="M31.72,37.45s-.14-2.34-.41-2.79c-4.19,.14-5.18,.14-7.29,1.94,3.92,1.58,6.39,1.31,7.7,.86Z">
</path>
<path d="M43.1,56.79l-14.41,17.84-18.3-2.97-1.6-7.44,14.23-4.74,1.1-6.47,3.55,3.43s1.83,2.52,7.78,3.09c3.89,0,7.09-2.06,7.66-2.75Z">
</path>
<path class="cls-2" d="M24.44,38.6c1.17,.27,3.1,.63,5.06,.58,.49-.01,.7,.63,.29,.9-3.06,2.04-4.48,1.46-5.88-.75-.23-.37,.11-.83,.53-.74Z">
</path>
<path class="cls-2" d="M45.47,56.1l-2.71,2.79-9.05,10.91,1.61,1.02s7.28-2.79,10.75-11.93c-.17-2.12-.59-2.79-.59-2.79Z">
</path>
<path class="cls-2" d="M52.05,31.94s2.38-1.01,2.85,.65-1.43,9.45-2.55,10.64c4.16-5.35,4.34-8.91,4.04-11.11s-2.02-2.55-4.34-.18Z">
</path>
<path class="cls-1" d="M16.06,30.53s-2.7,.31-1.62,5.09,2.54,6.78,4.47,7.71c-1.93-3.24-4.93-8.32-2.85-12.79Z">
</path>
<path class="cls-1" d="M35.91,11.15c1.92,.25,6.98,1.22,9.46,3.04,3.09,3.63,3.92,7.82,4.33,9.85,.1,.51,.18,.9,.27,1.22,.3,3.59-1.45,13.68-1.76,14.94l-.05,.13-.04,.23c-1.14,7.38-3.29,12.12-6.55,14.49l-.38,.28-.22,.42c-.2,.38-1.95,1.5-5.83,1.79-3.87-.29-5.62-1.41-5.82-1.78l-.22-.42-.39-.28c-3.27-2.36-5.41-7.1-6.56-14.49l-.04-.23-.05-.13c-.31-1.26-2.06-11.35-1.76-14.94,.09-.32,.17-.71,.27-1.22,.4-2.03,1.23-6.22,4.33-9.85,2.48-1.82,7.53-2.79,9.46-3.04h1.54m.12-2h-1.79s-7.25,.87-10.71,3.57c-4.44,5.09-4.76,11.04-5.19,12.12-.44,3.9,1.62,15.48,1.84,16.02,1.19,7.68,3.46,12.98,7.36,15.8,.79,1.53,3.88,2.61,7.6,2.87,3.71-.26,6.8-1.34,7.6-2.87,3.89-2.82,6.16-8.12,7.35-15.8,.22-.54,2.28-12.12,1.84-16.02-.43-1.08-.75-7.03-5.19-12.12-3.46-2.7-10.71-3.57-10.71-3.57h0Zm-.85,50.38h0Z">
</path>
<path class="cls-6" d="M36.03,9.15s7.25,.87,10.71,3.57c4.44,5.09,4.76,11.04,5.19,12.12,.44,3.9-1.62,15.48-1.84,16.02-1.19,7.68-3.46,12.98-7.35,15.8-.8,1.53-3.89,2.61-7.6,2.87h0c-3.72-.26-6.81-1.34-7.6-2.87-3.9-2.82-6.17-8.12-7.36-15.8-.22-.54-2.28-12.12-1.84-16.02,.43-1.08,.75-7.03,5.19-12.12,3.46-2.7,10.71-3.57,10.71-3.57h1.79Z">
</path>
<path class="cls-6" d="M18.91,33.06s-1.8-3.41-3.54-2.87-1.54,6.02-.07,9.09,2.87,4.95,5.48,4.75">
</path>
<path class="cls-6" d="M51.33,33.06s2.01-3.41,3.74-2.87,1.54,6.02,.07,9.09-2.87,4.95-5.48,4.75">
</path>
<polyline class="cls-6" points="23.6 52.09 23.07 59.11 7.13 64.91">
</polyline>
<polyline class="cls-6" points="46.59 52.09 47.13 59.11 63.06 64.91">
</polyline>
<path class="cls-5" d="M47.09,59.11s-1.98,9.06-12.01,13.37c-10.03-4.31-12.01-13.37-12.01-13.37">
</path>
<path class="cls-5" d="M29.86,69.59l-7.19,4.78s-3.75-6.97-2.37-14.29">
</path>
<path class="cls-5" d="M40.4,69.59l7.19,4.78s3.75-6.97,2.37-14.29">
</path>
<path d="M24.97,18.69c-1.48,3.37-2.29,7.3-3.03,10.7-.62-2.84,.07-5.78,1.31-8.35,.43-.85,.93-1.67,1.63-2.39,0,0,.09,.04,.09,.04h0Z">
</path>
<path d="M45.55,18.51c1.94,2.16,2.89,5,3.14,7.85,.08,.95,.03,1.92-.2,2.89h-.1c-.39-3.65-1.81-7.42-2.84-10.74h0Z">
</path>
<path d="M28.58,26.26c3.25-.95,6.63-.99,9.97-.66,1.11,.13,2.21,.31,3.32,.66v.1c-3.31,.05-9.98,.05-13.29,0,0,0,0-.1,0-.1h0Z">
</path>
<path d="M21.94,32.57s2.05-2.16,5.37-2.77c4.93,.94,5.76,1.27,5.76,1.27,0,0-.61,1.11-1.44,1.44-2.66-.11-5.09-.72-5.09-.72,0,0-2.55,.28-4.6,.78Z">
</path>
<path d="M31.79,37.49c-.2-.87-.38-1.86-.77-2.64,0,0,.24,.17,.24,.17-2.61-.14-5.28-.04-7.3,1.76,0,0-.09-.75-.09-.75,.8,.45,1.67,.8,2.57,1.07,.91,.27,1.84,.5,2.8,.66-2.18,.25-4.43-.15-6.38-1.21,.67-.66,1.39-1.28,2.25-1.7,1.98-1.02,4.35-.81,6.41-.4,.37,1,.33,2.01,.27,3.03h0Z">
</path>
<path d="M48.32,32.57s-2.05-2.16-5.37-2.77c-4.93,.94-5.76,1.27-5.76,1.27,0,0,.61,1.11,1.44,1.44,2.66-.11,5.09-.72,5.09-.72,0,0,2.55,.28,4.6,.78Z">
</path>
<path d="M38.46,37.49c-.05-1.03-.1-2.03,.27-3.03,2.06-.41,4.43-.62,6.41,.4,.86,.42,1.58,1.04,2.25,1.7-1.95,1.06-4.2,1.46-6.38,1.21,.96-.16,1.9-.39,2.8-.66,.91-.27,1.78-.63,2.57-1.07l-.09,.75c-2.03-1.8-4.69-1.9-7.3-1.76,0,0,.24-.17,.24-.17-.39,.78-.57,1.77-.77,2.64h0Z">
</path>
<path d="M37.81,40.79c1.18,.21,2.89,1.64,1.45,2.72-.42,.26-.83,.34-1.29,.36l.43-.36c-.29,1.5-1.97,2.04-3.27,2.09,0,0,0-1,0-1h.1s0,1,0,1c-.03,0-.11,0-.13,0-1.27-.09-2.86-.63-3.14-2.08,0,0,.43,.36,.43,.36-2.78-.19-2.07-2.61,.17-3.09-1.44,.8-2.3,2.49,.11,2.23,0,0,.12,.39,.12,.39,.33,.91,1.67,1.18,2.45,1.19,0,0,0,1,0,1h-.1v-1c.77-.01,2.11-.28,2.45-1.19,0,0,.13-.38,.13-.38,2.41,.26,1.54-1.44,.11-2.23h0Z">
</path>
<path class="cls-7" d="M28.98,47.41c-.3,.49-.7,1.11-1.05,1.9">
</path>
<path class="cls-7" d="M41.37,47.41c.3,.49,.7,1.11,1.05,1.9">
</path>
<polyline class="cls-6" points="41.79 48.58 41.14 49.37 35.97 49.37 34.38 49.37 29.22 49.37 28.56 48.58">
</polyline>
<path d="M39.05,51.14c-.13,.45-.33,.83-.53,1.22-1.17,.34-2.37,.49-3.55,.5-1.2-.01-2.39-.16-3.55-.5-.2-.39-.4-.77-.53-1.22,0,0,.07-.07,.07-.07l.82,.84-.05-.02c1.61-.03,4.85-.03,6.47,0-.19,.13,.81-.84,.78-.83,0,0,.07,.07,.07,.07h0Z">
</path>
<path class="cls-11" d="M24.17,55.92c.22,1.42,.31,2.85,.33,4.28-3.15,1.57-6.53,2.87-9.95,3.72-1.09,.3-2.21,.52-3.36,.68l-.04-.09c3.63-1.35,9.22-3.63,12.6-4.72,0,0,.32-3.87,.32-3.87h.1Z">
</path>
</g>




 <g
     id="g2850">
    <g
       id="g2837">
      <path
         id="path1951"
         d="M 0.056640625 0.04296875 L 0.056640625 79.943359 L 69.308594 79.943359 L 69.308594 0.04296875 L 0.056640625 0.04296875 z M 33.615234 3.5957031 C 34.206332 3.5957038 34.786991 3.6051034 35.421875 3.6152344 C 44.430653 3.7671809 53.471255 5.1336733 61.560547 7.5546875 L 62.064453 7.7070312 L 62.25 8.1640625 C 66.070247 17.605006 66.990234 28.726438 66.990234 40.0625 C 66.990234 51.398562 65.972723 63.025755 61.988281 72.578125 L 61.791016 73.044922 L 61.275391 73.185547 C 53.273669 75.403966 44.691921 76.529297 35.759766 76.529297 C 35.212453 76.529297 34.675812 76.519896 34.150391 76.509766 L 33.943359 76.509766 C 24.901742 76.357819 15.860367 74.989738 7.7929688 72.558594 L 7.2890625 72.40625 L 7.1035156 71.951172 C 3.2942144 62.520359 2.375 51.369168 2.375 40.0625 C 2.375 28.755832 3.3819737 17.127318 7.3554688 7.5546875 L 7.5527344 7.0898438 L 8.0664062 6.9472656 C 15.509867 4.890923 23.785212 3.7371557 32.005859 3.6054688 C 32.542226 3.5953387 33.078867 3.5957031 33.615234 3.5957031 z "
         style="opacity:1;vector-effect:none;fill:#ffffff;fill-opacity:1;fill-rule:nonzero;stroke:none;stroke-width:1.95200002;stroke-linecap:butt;stroke-linejoin:miter;stroke-miterlimit:4;stroke-dasharray:none;stroke-dashoffset:0;stroke-opacity:1" />
    </g>
    <path
       id="path1154-8-2"
       d="m 33.675163,6.6112954 c 0.557696,0 1.115392,0.00956 1.683415,0.019115 8.427403,0.14336 16.803167,1.4049288 24.363042,3.6700176 3.573384,8.830981 4.443772,19.417362 4.443772,29.761551 0,10.344189 -0.95301,21.39888 -4.68131,30.334991 -7.435942,2.064385 -15.429581,3.274388 -23.774362,3.274388 -0.506058,0 -1.012115,-0.0096 -1.518172,-0.01911 h -0.17557 C 25.56792,73.508883 17.192156,72.088619 9.6426089,69.813973 6.0795528,61.002107 5.2088244,50.415411 5.2088244,40.061979 c 0,-10.353432 0.95335,-21.389323 4.6609939,-30.325434 C 16.820359,7.8155201 24.462856,6.7450981 32.177647,6.6208528 c 0.49573,-0.00956 1.001787,-0.00956 1.497516,-0.00956 m 0,-0.9557337 c -0.506057,0 -1.012114,0 -1.518171,0.00956 C 24.40089,5.7893644 16.593149,6.8789009 9.570315,8.8190405 L 9.0849131,8.9528432 8.8990146,9.3924808 C 5.1500599,18.424166 4.1999116,29.394246 4.1999116,40.061979 c 0,10.667733 0.8675267,21.188618 4.461566,30.0865 l 0.1755708,0.430081 0.4750741,0.14336 c 7.6115135,2.293761 16.1421925,3.584001 24.6728715,3.727361 h 0.196227 c 0.495729,0.0096 1.001786,0.01911 1.518171,0.01911 8.427403,0 16.524318,-1.060864 24.073866,-3.153921 l 0.485403,-0.133802 0.185898,-0.439639 c 3.759282,-9.01257 4.719759,-19.983589 4.719759,-30.679055 0,-10.695466 -0.867528,-21.188618 -4.471894,-30.0960578 L 60.516853,9.5358409 60.041779,9.3924808 C 52.409609,7.108277 43.87893,5.8180364 35.379234,5.6746763 34.780227,5.6651187 34.232859,5.6555621 33.675163,5.6555615 Z"
       style="fill:#ff0000;stroke:#ffffff;stroke-width:1.84341729;stroke-miterlimit:4;stroke-dasharray:none" />
    <path
       id="path1154"
       d="m 33.614853,4.6077955 c 0.591098,0 1.182197,0.01013 1.784241,0.02026 8.932155,0.1519464 17.809578,1.4890758 25.822246,3.8898304 3.787408,9.3599041 4.709928,20.5803481 4.709928,31.5440931 0,10.963745 -1.01009,22.680548 -4.961693,32.151879 -7.881312,2.18803 -16.353723,3.302304 -25.198307,3.302304 -0.536368,0 -1.072735,-0.01013 -1.609102,-0.02026 H 33.97608 C 25.022033,75.343956 16.14461,74.006827 8.1428892,71.595943 4.3664269,62.256298 3.443547,51.035521 3.443547,40.061979 c 0,-10.973542 1.01045,-22.670418 4.9401601,-32.1417498 7.3668369,-2.036083 15.4670749,-3.170617 23.6439369,-3.3023039 0.525421,-0.01013 1.061788,-0.01013 1.587209,-0.01013 m 0,-1.0129766 c -0.536367,0 -1.072734,0 -1.609101,0.01013 C 23.785105,3.7366356 15.509726,4.891429 8.0662653,6.9477716 L 7.5517907,7.0895883 7.3547579,7.5555576 C 3.3812628,17.128188 2.3742062,28.755311 2.3742062,40.061979 c 0,11.306668 0.9194864,22.457692 4.7287876,31.888505 l 0.1860865,0.45584 0.5035283,0.151947 c 8.0673984,2.431144 17.1090154,3.798662 26.1506324,3.950608 h 0.207979 c 0.525421,0.01013 1.061788,0.02026 1.609101,0.02026 8.932155,0 17.514028,-1.124404 25.51575,-3.342823 l 0.514475,-0.141816 0.197032,-0.46597 c 3.984442,-9.55237 5.002445,-21.180489 5.002445,-32.516551 0,-11.336062 -0.919487,-22.457692 -4.739734,-31.8986353 L 62.064202,7.7075041 61.560674,7.5555576 C 53.471382,5.1345434 44.429765,3.7670249 35.420987,3.6150784 c -0.634884,-0.01013 -1.215036,-0.020259 -1.806134,-0.02026 z"
       style="fill:#000000;stroke:#000000;stroke-width:1.95382714;stroke-miterlimit:4;stroke-dasharray:none" />
    <g
       id="g1810">
      <path
         d="M 6.5134911,7.7433673 C 5.6489029,6.8479453 4.058602,6.5681013 3.6272194,7.3820013 3.284151,8.0292783 3.3625296,8.5309135 4.395235,8.9201755 3.2963719,9.5187755 1.4857674,9.4447465 1.1893447,7.4467713 0.95320848,5.8551433 2.674739,4.8863543 3.1399725,5.0916244 3.0034432,3.6818714 1.8221094,4.0692802 0.95849208,3.2813384 0.34259068,2.7194046 0.23126071,-0.02624603 0.0561761,0.04378767 -0.0138576,0.21887227 2.7317937,0.33020157 3.2937267,0.94610377 4.0816685,1.8097211 3.6942598,2.9910547 5.1040128,3.1275841 4.8987425,2.6623507 5.8675315,0.94082017 7.4591593,1.1769564 9.4571345,1.4733791 9.5311625,3.2839847 8.9325635,4.3828467 8.5433008,3.3501417 8.041666,3.2717627 7.3943894,3.6148312 6.5804899,4.0462137 6.8603354,5.6365129 7.7557553,6.5011023"
         style="fill:#000000;stroke:#000000;stroke-width:0.1112323px;stroke-linecap:butt;stroke-linejoin:miter;stroke-opacity:1"
         id="path1737-3" />
      <path
         d="m 62.850738,7.7433673 c 0.864588,-0.895422 2.454889,-1.175266 2.886271,-0.361366 0.343069,0.647277 0.26469,1.148912 -0.768015,1.538174 1.098863,0.5986 2.909467,0.524571 3.20589,-1.473404 0.236136,-1.591628 -1.485394,-2.560417 -1.950628,-2.3551469 0.13653,-1.409753 1.317863,-1.0223442 2.181481,-1.810286 0.615901,-0.5619338 0.727231,-3.30758442 0.902316,-3.23755072 0.07003,0.1750846 -2.675618,0.2864139 -3.237551,0.9023161 C 65.28256,1.8097211 65.669969,2.9910547 64.260216,3.1275841 64.465486,2.6623507 63.496697,0.94082018 61.905069,1.1769564 c -1.997975,0.2964227 -2.072003,2.1070283 -1.473404,3.2058903 0.389263,-1.032705 0.890898,-1.111084 1.538174,-0.7680155 0.8139,0.4313825 0.534054,2.0216817 -0.361366,2.8862711"
         style="fill:#000000;stroke:#000000;stroke-width:0.1112323px;stroke-linecap:butt;stroke-linejoin:miter;stroke-opacity:1"
         id="path1737-3-5" />
      <path
         d="m 62.850738,72.244244 c 0.864588,0.895422 2.454889,1.175266 2.886272,0.361366 0.343068,-0.647277 0.264689,-1.148912 -0.768016,-1.538174 1.098863,-0.5986 2.909468,-0.524571 3.20589,1.473404 0.236137,1.591628 -1.485394,2.560417 -1.950628,2.355147 0.13653,1.409753 1.317864,1.022344 2.181481,1.810286 0.615901,0.561934 0.727231,3.307584 0.902316,3.237551 0.07003,-0.175085 -2.675618,-0.286414 -3.237551,-0.902317 -0.787942,-0.863617 -0.400533,-2.04495 -1.810286,-2.18148 0.20527,0.465234 -0.763519,2.186764 -2.355146,1.950628 -1.997976,-0.296423 -2.072004,-2.107028 -1.473405,-3.20589 0.389263,1.032705 0.890898,1.111084 1.538175,0.768015 0.813899,-0.431382 0.534054,-2.021682 -0.361366,-2.886271"
         style="fill:#000000;stroke:#000000;stroke-width:0.1112323px;stroke-linecap:butt;stroke-linejoin:miter;stroke-opacity:1"
         id="path1737-3-7" />
      <path
         d="M 6.513491,72.244245 C 5.648903,73.139667 4.058602,73.419511 3.62722,72.605611 3.284151,71.958334 3.36253,71.456699 4.395235,71.067437 c -1.098863,-0.5986 -2.909467,-0.524571 -3.20589,1.473404 -0.23613599,1.591628 1.485394,2.560417 1.950628,2.355147 -0.13653,1.409753 -1.317863,1.022344 -2.18148099,1.810286 -0.615901,0.561933 -0.727231,3.307584 -0.902316,3.23755 C -0.01385399,79.76874 2.731794,79.65741 3.293727,79.041508 4.081669,78.177891 3.69426,76.996557 5.104013,76.860028 4.898743,77.325261 5.867532,79.046792 7.45916,78.810656 9.457135,78.514233 9.531163,76.703627 8.932564,75.604765 8.543301,76.63747 8.041666,76.715849 7.39439,76.372781 6.58049,75.941398 6.860336,74.351099 7.755756,73.48651"
         style="fill:#000000;stroke:#000000;stroke-width:0.1112323px;stroke-linecap:butt;stroke-linejoin:miter;stroke-opacity:1"
         id="path1737-3-5-5" />
    </g>
    <path
       id="path1154-9"
       d="m 33.712865,7.4258691 c 0.536813,0 1.07363,0.00933 1.620386,0.01865 8.111875,0.1398689 16.174044,1.3707167 23.450873,3.5806479 3.439594,8.615932 4.277395,18.944521 4.277395,29.036812 0,10.092292 -0.917329,20.877786 -4.506039,29.596289 -7.157536,2.014114 -14.851888,3.03982 -22.884234,3.03982 -0.487111,0 -0.974221,-0.0094 -1.461331,-0.01865 H 34.040918 C 25.909161,72.53957 17.846991,71.308722 10.580105,69.089467 7.1504515,60.492184 6.3123238,50.163289 6.3123238,40.061979 c 0,-10.101311 0.9176558,-20.868461 4.4864832,-29.586965 6.690308,-1.8742449 14.046665,-2.9186005 21.472608,-3.0398203 0.47717,-0.00933 0.964281,-0.00933 1.44145,-0.00933 m 0,-0.9324602 c -0.487111,0 -0.974221,0 -1.46133,0.00933 C 24.785826,6.6239532 17.270413,7.686958 10.510517,9.5798526 L 10.043289,9.710397 9.8643508,10.139328 c -3.6085914,8.811751 -4.5231655,19.514693 -4.5231655,29.922651 0,10.407958 0.8350459,20.672644 4.294522,29.353849 l 0.1689973,0.419608 0.4572874,0.13987 c 7.326533,2.237904 15.537818,3.496724 23.749103,3.636593 h 0.188879 c 0.47717,0.0094 0.96428,0.01865 1.461331,0.01865 8.111875,0 15.905636,-1.035031 23.172525,-3.077119 l 0.467228,-0.130544 0.178938,-0.428932 c 3.618533,-8.793101 4.543048,-19.496959 4.543048,-29.931975 0,-10.435016 -0.835047,-20.672644 -4.304463,-29.363174 l -0.168997,-0.419609 -0.457288,-0.13987 C 51.74588,7.9107484 43.534594,6.6519271 35.353133,6.512058 34.776554,6.502738 34.249678,6.493409 33.712865,6.493409 Z"
       style="fill:#000000;stroke:none;stroke-width:1.78642213;stroke-miterlimit:4;stroke-dasharray:none" />
    <path
       id="path1154-9-3"
       d="m 33.712865,7.4258686 c 0.536813,0 1.07363,0.00933 1.620386,0.01865 8.111875,0.1398689 16.174044,1.3707167 23.450873,3.5806484 3.439594,8.615932 4.277395,18.944521 4.277395,29.036812 0,10.092292 -0.917329,20.877786 -4.506039,29.596288 -7.157536,2.014114 -14.851888,3.03982 -22.884234,3.03982 -0.487111,0 -0.974221,-0.0094 -1.461331,-0.01865 H 34.040918 C 25.909161,72.539569 17.846991,71.308722 10.580105,69.089466 7.1504515,60.492184 6.3123238,50.163288 6.3123238,40.061979 c 0,-10.101312 0.9176558,-20.868461 4.4864832,-29.586965 6.690308,-1.8742454 14.046665,-2.918601 21.472608,-3.0398208 0.47717,-0.00933 0.964281,-0.00933 1.44145,-0.00933 m 0,-0.9324602 c -0.487111,0 -0.974221,0 -1.46133,0.00933 C 24.785826,6.6239527 17.270413,7.6869575 10.510517,9.5798521 L 10.043289,9.7103965 9.8643508,10.139328 C 6.2557594,18.951079 5.3411853,29.65402 5.3411853,40.061979 c 0,10.407958 0.8350459,20.672643 4.294522,29.353849 l 0.1689973,0.419608 0.4572874,0.13987 c 7.326533,2.237904 15.537818,3.496724 23.749103,3.636593 h 0.188879 c 0.47717,0.0094 0.96428,0.01865 1.461331,0.01865 8.111875,0 15.905636,-1.035032 23.172525,-3.077119 l 0.467228,-0.130544 0.178938,-0.428932 c 3.618533,-8.793101 4.543048,-19.49696 4.543048,-29.931975 0,-10.435016 -0.835047,-20.672644 -4.304463,-29.363175 l -0.168997,-0.419609 -0.457288,-0.13987 C 51.74588,7.9107479 43.534594,6.6519266 35.353133,6.5120575 34.776554,6.5027375 34.249678,6.4934085 33.712865,6.4934085 Z"
       style="fill:#000000;stroke:none;stroke-width:1.78642213;stroke-miterlimit:4;stroke-dasharray:none" />
  </g>
</svg>
