<svg id="Capa_2" xmlns="http://www.w3.org/2000/svg" xmlns:xlink="http://www.w3.org/1999/xlink" viewBox="0 0 69.02 80">
<defs >
<style >
.cls-1{fill:#c89aed;}.cls-2{fill:#fff;}.cls-3{fill:#f8ffbf;}.cls-4{fill:#7b7be8;}.cls-5,.cls-6,.cls-7{stroke:#000;}.cls-5,.cls-6,.cls-7,.cls-8,.cls-9,.cls-10{fill:none;}.cls-5,.cls-8{stroke-linejoin:round;}.cls-11{fill:#a88347;}.cls-12{fill:#782ab5;}.cls-6,.cls-7{stroke-miterlimit:10;}.cls-7{stroke-width:.75px;}.cls-8{stroke:#deb778;stroke-dasharray:0 0 0 4.06;stroke-linecap:round;}.cls-13{fill:#deb778;}.cls-14{fill:url(#USGS_19_Inundación_de_tierra_2);}.cls-10{stroke:#1d1d1b;stroke-dasharray:0 0 2 2;stroke-width:.3px;}.cls-15{fill:#fcf0c5;}
</style>
<pattern id="USGS_19_Inundación_de_tierra_2" x="0" y="0" width="72" height="72" patternTransform="translate(-524.48 -17071) rotate(-90)" patternUnits="userSpaceOnUse" viewBox="0 0 72 72">
<g >
<rect class="cls-9" width="72" height="72">
</rect>
<g >
<line class="cls-10" x1="71" y1="71" x2="144.44" y2="71">
</line>
<line class="cls-10" x1="71" y1="67" x2="144.44" y2="67">
</line>
<line class="cls-10" x1="71" y1="63" x2="144.44" y2="63">
</line>
<line class="cls-10" x1="71" y1="59" x2="144.44" y2="59">
</line>
<line class="cls-10" x1="71" y1="55" x2="144.44" y2="55">
</line>
<line class="cls-10" x1="71" y1="51" x2="144.44" y2="51">
</line>
<line class="cls-10" x1="71" y1="47" x2="144.44" y2="47">
</line>
<line class="cls-10" x1="71" y1="43" x2="144.44" y2="43">
</line>
<line class="cls-10" x1="71" y1="39" x2="144.44" y2="39">
</line>
<line class="cls-10" x1="71" y1="35" x2="144.44" y2="35">
</line>
<line class="cls-10" x1="71" y1="31" x2="144.44" y2="31">
</line>
<line class="cls-10" x1="71" y1="27" x2="144.44" y2="27">
</line>
<line class="cls-10" x1="71" y1="23" x2="144.44" y2="23">
</line>
<line class="cls-10" x1="71" y1="19" x2="144.44" y2="19">
</line>
<line class="cls-10" x1="71" y1="15" x2="144.44" y2="15">
</line>
<line class="cls-10" x1="71" y1="11" x2="144.44" y2="11">
</line>
<line class="cls-10" x1="71" y1="7" x2="144.44" y2="7">
</line>
<line class="cls-10" x1="71" y1="3" x2="144.44" y2="3">
</line>
</g>


<g >
<line class="cls-10" x1="-1" y1="71" x2="72.44" y2="71">
</line>
<line class="cls-10" x1="-1" y1="67" x2="72.44" y2="67">
</line>
<line class="cls-10" x1="-1" y1="63" x2="72.44" y2="63">
</line>
<line class="cls-10" x1="-1" y1="59" x2="72.44" y2="59">
</line>
<line class="cls-10" x1="-1" y1="55" x2="72.44" y2="55">
</line>
<line class="cls-10" x1="-1" y1="51" x2="72.44" y2="51">
</line>
<line class="cls-10" x1="-1" y1="47" x2="72.44" y2="47">
</line>
<line class="cls-10" x1="-1" y1="43" x2="72.44" y2="43">
</line>
<line class="cls-10" x1="-1" y1="39" x2="72.44" y2="39">
</line>
<line class="cls-10" x1="-1" y1="35" x2="72.44" y2="35">
</line>
<line class="cls-10" x1="-1" y1="31" x2="72.44" y2="31">
</line>
<line class="cls-10" x1="-1" y1="27" x2="72.44" y2="27">
</line>
<line class="cls-10" x1="-1" y1="23" x2="72.44" y2="23">
</line>
<line class="cls-10" x1="-1" y1="19" x2="72.44" y2="19">
</line>
<line class="cls-10" x1="-1" y1="15" x2="72.44" y2="15">
</line>
<line class="cls-10" x1="-1" y1="11" x2="72.44" y2="11">
</line>
<line class="cls-10" x1="-1" y1="7" x2="72.44" y2="7">
</line>
<line class="cls-10" x1="-1" y1="3" x2="72.44" y2="3">
</line>
<line class="cls-10" x1="1.04" y1="69" x2="74.48" y2="69">
</line>
<line class="cls-10" x1="1.04" y1="65" x2="74.48" y2="65">
</line>
<line class="cls-10" x1="1.04" y1="61" x2="74.48" y2="61">
</line>
<line class="cls-10" x1="1.04" y1="57" x2="74.48" y2="57">
</line>
<line class="cls-10" x1="1.04" y1="53" x2="74.48" y2="53">
</line>
<line class="cls-10" x1="1.04" y1="49" x2="74.48" y2="49">
</line>
<line class="cls-10" x1="1.04" y1="45" x2="74.48" y2="45">
</line>
<line class="cls-10" x1="1.04" y1="41" x2="74.48" y2="41">
</line>
<line class="cls-10" x1="1.04" y1="37" x2="74.48" y2="37">
</line>
<line class="cls-10" x1="1.04" y1="33" x2="74.48" y2="33">
</line>
<line class="cls-10" x1="1.04" y1="29" x2="74.48" y2="29">
</line>
<line class="cls-10" x1="1.04" y1="25" x2="74.48" y2="25">
</line>
<line class="cls-10" x1="1.04" y1="21" x2="74.48" y2="21">
</line>
<line class="cls-10" x1="1.04" y1="17" x2="74.48" y2="17">
</line>
<line class="cls-10" x1="1.04" y1="13" x2="74.48" y2="13">
</line>
<line class="cls-10" x1="1.04" y1="9" x2="74.48" y2="9">
</line>
<line class="cls-10" x1="1.04" y1="5" x2="74.48" y2="5">
</line>
<line class="cls-10" x1="1.04" y1="1" x2="74.48" y2="1">
</line>
</g>


<g >
<line class="cls-10" x1="-73" y1="71" x2=".44" y2="71">
</line>
<line class="cls-10" x1="-73" y1="67" x2=".44" y2="67">
</line>
<line class="cls-10" x1="-73" y1="63" x2=".44" y2="63">
</line>
<line class="cls-10" x1="-73" y1="59" x2=".44" y2="59">
</line>
<line class="cls-10" x1="-73" y1="55" x2=".44" y2="55">
</line>
<line class="cls-10" x1="-73" y1="51" x2=".44" y2="51">
</line>
<line class="cls-10" x1="-73" y1="47" x2=".44" y2="47">
</line>
<line class="cls-10" x1="-73" y1="43" x2=".44" y2="43">
</line>
<line class="cls-10" x1="-73" y1="39" x2=".44" y2="39">
</line>
<line class="cls-10" x1="-73" y1="35" x2=".44" y2="35">
</line>
<line class="cls-10" x1="-73" y1="31" x2=".44" y2="31">
</line>
<line class="cls-10" x1="-73" y1="27" x2=".44" y2="27">
</line>
<line class="cls-10" x1="-73" y1="23" x2=".44" y2="23">
</line>
<line class="cls-10" x1="-73" y1="19" x2=".44" y2="19">
</line>
<line class="cls-10" x1="-73" y1="15" x2=".44" y2="15">
</line>
<line class="cls-10" x1="-73" y1="11" x2=".44" y2="11">
</line>
<line class="cls-10" x1="-73" y1="7" x2=".44" y2="7">
</line>
<line class="cls-10" x1="-73" y1="3" x2=".44" y2="3">
</line>
<line class="cls-10" x1="-70.96" y1="69" x2="2.48" y2="69">
</line>
<line class="cls-10" x1="-70.96" y1="65" x2="2.48" y2="65">
</line>
<line class="cls-10" x1="-70.96" y1="61" x2="2.48" y2="61">
</line>
<line class="cls-10" x1="-70.96" y1="57" x2="2.48" y2="57">
</line>
<line class="cls-10" x1="-70.96" y1="53" x2="2.48" y2="53">
</line>
<line class="cls-10" x1="-70.96" y1="49" x2="2.48" y2="49">
</line>
<line class="cls-10" x1="-70.96" y1="45" x2="2.48" y2="45">
</line>
<line class="cls-10" x1="-70.96" y1="41" x2="2.48" y2="41">
</line>
<line class="cls-10" x1="-70.96" y1="37" x2="2.48" y2="37">
</line>
<line class="cls-10" x1="-70.96" y1="33" x2="2.48" y2="33">
</line>
<line class="cls-10" x1="-70.96" y1="29" x2="2.48" y2="29">
</line>
<line class="cls-10" x1="-70.96" y1="25" x2="2.48" y2="25">
</line>
<line class="cls-10" x1="-70.96" y1="21" x2="2.48" y2="21">
</line>
<line class="cls-10" x1="-70.96" y1="17" x2="2.48" y2="17">
</line>
<line class="cls-10" x1="-70.96" y1="13" x2="2.48" y2="13">
</line>
<line class="cls-10" x1="-70.96" y1="9" x2="2.48" y2="9">
</line>
<line class="cls-10" x1="-70.96" y1="5" x2="2.48" y2="5">
</line>
<line class="cls-10" x1="-70.96" y1="1" x2="2.48" y2="1">
</line>
</g>


</g>


</pattern>
</defs>

  <path
     id="path7641-4"
     style="fill:#782ab5;fill-opacity:1;stroke:#4d4d4d;stroke-width:1.62226;stop-color:#000000"
     d="M 34.900259,1.6936052 C 14.323312,9.5265586 1.6299002,23.954051 1.5689773,39.580572 V 79.197446 H 67.963672 V 39.580572 C 67.958188,23.990066 55.374427,9.5708664 34.900259,1.6936052 Z"/>
  <path
     id="path7641-7"
     style="fill:#808080;stroke:#4d4d4d;stroke-width:1.48325;stop-color:#000000"
     d="M 34.629293,5.0425238 C 15.815619,12.204258 4.1542243,25.395327 4.1542243,39.682894 V 76.559207 H 64.859448 V 39.682894 c 0,-14.254531 -11.510452,-27.438125 -30.230155,-34.6403702 z m -0.01233,3.4358455 C 51.537073,14.988239 61.941622,26.904418 61.941622,39.788613 v 33.82806 H 7.07205 v -33.82806 c 0,-12.914055 10.539857,-24.836991 27.544909,-31.3102437 z"/>
  <path
     id="path7641-7-8"
     style="fill:#808080;stroke:#4d4d4d;stroke-width:1.35027;stop-color:#000000"
     d="M 34.618314,8.2461803 C 17.491429,14.76581 6.8755673,26.7742 6.8755673,39.780777 v 33.57007 H 62.138105 v -33.57007 c 0,-12.976504 -10.478452,-24.978088 -27.519791,-31.5345967 z m -0.01123,3.1277957 c 15.403093,5.926211 24.874795,16.774013 24.874795,28.503041 V 70.672134 H 9.5317874 V 39.877017 c 0,-11.75621 9.5948786,-22.610165 25.0752986,-28.503041 z"/>
  <path
     id="path7641-7-8-0"
     style="fill:#808080;stroke:#4d4d4d;stroke-width:1.21411;stop-color:#000000"
     d="M 34.607073,11.526302 C 19.207238,17.388502 9.6618637,28.185984 9.6618637,39.880997 V 70.06591 H 59.351809 V 39.880997 c 0,-11.667973 -9.421821,-22.459335 -24.744736,-28.354695 z m -0.0101,2.812393 c 13.849868,5.328621 22.366458,15.082547 22.366458,25.628837 V 67.657315 H 12.050234 V 39.967532 c 0,-10.570731 8.627346,-20.33019 22.546743,-25.628837 z"/>




<g >
<path class="cls-1" d="M18.85,32.76s-2.3-3.54-3.98-2.39-.44,6.37,.44,8.67,3.36,5.05,5.31,5.13c1.86,5.84,3.36,7.97,3.36,7.97l-.97,7.35-14.69,4.51,.27,10.44,25.93,2.21,24.69-3.19,1.68-9.38-13.63-4.87-.71-6.64s2.12-4.51,2.83-8.76c4.16,1.33,6.2-4.78,6.73-7.61s.44-9.74-4.34-3.81c.09-9.82-.89-12.75-2.3-15.67s-4.87-7.43-14.34-7.43c-10.62,.35-13.45,5.13-15.22,9.91-2.04,4.96-1.06,13.54-1.06,13.54Z">
</path>
<path class="cls-11" d="M47.16,58.81s-2.45,9.56-12.18,13.37c-2.79-1.18-3.38-1.61-3.38-1.61l-3.3,3.81s9.31,.93,16.58,.59,14.3-3.22,14.3-3.22l1.72-7.67-13.74-5.28Z">
</path>
<path class="cls-2" d="M35.06,53.82V18.65c0-5.5,5.85-9.2,10.71-6.62,.36,.19,.65,.38,.85,.57,1.99,2.22,5.61,11.09,5.72,13.43-.47,7.47-3.04,20.67-4.2,23.36-1.58,3.19-4.32,6.54-5.49,7.24-.01,.01-.02,.03-.04,.04-2.57,3.04-7.56,1.13-7.56-2.85Z">
</path>
<path d="M18.73,33.31s-1.43-3.48-3.21-3.14-1.23,4.91-.82,6.76,1.88,6.93,5.92,7.25c-.94-5.61-1.9-10.87-1.9-10.87Z">
</path>
<path class="cls-4" d="M38.66,37.45l-1.29-6.33,6.71-.07s3.41,.93,4.26,1.45c-.26,3.3-.93,4.04-.93,4.04l-8.76,.92Z">
</path>
<path class="cls-3" d="M38.42,37.39s.38-2.3,.77-2.81c4.28-.58,6.77,1.09,7.22,1.66-3.71,1.98-6.71,1.73-7.99,1.15Z">
</path>
<path class="cls-4" d="M31.72,37.45l1.29-6.33-6.71-.07s-3.41,.93-4.26,1.45c.26,3.3,.93,4.04,.93,4.04l8.76,.92Z">
</path>
<path class="cls-3" d="M31.72,37.45s-.14-2.34-.41-2.79c-4.19,.14-5.18,.14-7.29,1.94,3.92,1.58,6.39,1.31,7.7,.86Z">
</path>
<path d="M43.1,56.79l-14.41,17.84-18.3-2.97-1.6-7.44,14.23-4.74,1.1-6.47,3.55,3.43s1.83,2.52,7.78,3.09c3.89,0,7.09-2.06,7.66-2.75Z">
</path>
<path class="cls-2" d="M24.44,38.6c1.17,.27,3.1,.63,5.06,.58,.49-.01,.7,.63,.29,.9-3.06,2.04-4.48,1.46-5.88-.75-.23-.37,.11-.83,.53-.74Z">
</path>
<path class="cls-2" d="M45.47,56.1l-2.71,2.79-9.05,10.91,1.61,1.02s7.28-2.79,10.75-11.93c-.17-2.12-.59-2.79-.59-2.79Z">
</path>
<path class="cls-2" d="M52.05,31.94s2.38-1.01,2.85,.65-1.43,9.45-2.55,10.64c4.16-5.35,4.34-8.91,4.04-11.11s-2.02-2.55-4.34-.18Z">
</path>
<path class="cls-1" d="M16.06,30.53s-2.7,.31-1.62,5.09,2.54,6.78,4.47,7.71c-1.93-3.24-4.93-8.32-2.85-12.79Z">
</path>
<path class="cls-1" d="M35.91,11.15c1.92,.25,6.98,1.22,9.46,3.04,3.09,3.63,3.92,7.82,4.33,9.85,.1,.51,.18,.9,.27,1.22,.3,3.59-1.45,13.68-1.76,14.94l-.05,.13-.04,.23c-1.14,7.38-3.29,12.12-6.55,14.49l-.38,.28-.22,.42c-.2,.38-1.95,1.5-5.83,1.79-3.87-.29-5.62-1.41-5.82-1.78l-.22-.42-.39-.28c-3.27-2.36-5.41-7.1-6.56-14.49l-.04-.23-.05-.13c-.31-1.26-2.06-11.35-1.76-14.94,.09-.32,.17-.71,.27-1.22,.4-2.03,1.23-6.22,4.33-9.85,2.48-1.82,7.53-2.79,9.46-3.04h1.54m.12-2h-1.79s-7.25,.87-10.71,3.57c-4.44,5.09-4.76,11.04-5.19,12.12-.44,3.9,1.62,15.48,1.84,16.02,1.19,7.68,3.46,12.98,7.36,15.8,.79,1.53,3.88,2.61,7.6,2.87,3.71-.26,6.8-1.34,7.6-2.87,3.89-2.82,6.16-8.12,7.35-15.8,.22-.54,2.28-12.12,1.84-16.02-.43-1.08-.75-7.03-5.19-12.12-3.46-2.7-10.71-3.57-10.71-3.57h0Zm-.85,50.38h0Z">
</path>
<path class="cls-6" d="M36.03,9.15s7.25,.87,10.71,3.57c4.44,5.09,4.76,11.04,5.19,12.12,.44,3.9-1.62,15.48-1.84,16.02-1.19,7.68-3.46,12.98-7.35,15.8-.8,1.53-3.89,2.61-7.6,2.87h0c-3.72-.26-6.81-1.34-7.6-2.87-3.9-2.82-6.17-8.12-7.36-15.8-.22-.54-2.28-12.12-1.84-16.02,.43-1.08,.75-7.03,5.19-12.12,3.46-2.7,10.71-3.57,10.71-3.57h1.79Z">
</path>
<path class="cls-6" d="M18.91,33.06s-1.8-3.41-3.54-2.87-1.54,6.02-.07,9.09,2.87,4.95,5.48,4.75">
</path>
<path class="cls-6" d="M51.33,33.06s2.01-3.41,3.74-2.87,1.54,6.02,.07,9.09-2.87,4.95-5.48,4.75">
</path>
<polyline class="cls-6" points="23.6 52.09 23.07 59.11 7.13 64.91">
</polyline>
<polyline class="cls-6" points="46.59 52.09 47.13 59.11 63.06 64.91">
</polyline>
<path class="cls-5" d="M47.09,59.11s-1.98,9.06-12.01,13.37c-10.03-4.31-12.01-13.37-12.01-13.37">
</path>
<path class="cls-5" d="M29.86,69.59l-7.19,4.78s-3.75-6.97-2.37-14.29">
</path>
<path class="cls-5" d="M40.4,69.59l7.19,4.78s3.75-6.97,2.37-14.29">
</path>
<path d="M24.97,18.69c-1.48,3.37-2.29,7.3-3.03,10.7-.62-2.84,.07-5.78,1.31-8.35,.43-.85,.93-1.67,1.63-2.39,0,0,.09,.04,.09,.04h0Z">
</path>
<path d="M45.55,18.51c1.94,2.16,2.89,5,3.14,7.85,.08,.95,.03,1.92-.2,2.89h-.1c-.39-3.65-1.81-7.42-2.84-10.74h0Z">
</path>
<path d="M28.58,26.26c3.25-.95,6.63-.99,9.97-.66,1.11,.13,2.21,.31,3.32,.66v.1c-3.31,.05-9.98,.05-13.29,0,0,0,0-.1,0-.1h0Z">
</path>
<path d="M21.94,32.57s2.05-2.16,5.37-2.77c4.93,.94,5.76,1.27,5.76,1.27,0,0-.61,1.11-1.44,1.44-2.66-.11-5.09-.72-5.09-.72,0,0-2.55,.28-4.6,.78Z">
</path>
<path d="M31.79,37.49c-.2-.87-.38-1.86-.77-2.64,0,0,.24,.17,.24,.17-2.61-.14-5.28-.04-7.3,1.76,0,0-.09-.75-.09-.75,.8,.45,1.67,.8,2.57,1.07,.91,.27,1.84,.5,2.8,.66-2.18,.25-4.43-.15-6.38-1.21,.67-.66,1.39-1.28,2.25-1.7,1.98-1.02,4.35-.81,6.41-.4,.37,1,.33,2.01,.27,3.03h0Z">
</path>
<path d="M48.32,32.57s-2.05-2.16-5.37-2.77c-4.93,.94-5.76,1.27-5.76,1.27,0,0,.61,1.11,1.44,1.44,2.66-.11,5.09-.72,5.09-.72,0,0,2.55,.28,4.6,.78Z">
</path>
<path d="M38.46,37.49c-.05-1.03-.1-2.03,.27-3.03,2.06-.41,4.43-.62,6.41,.4,.86,.42,1.58,1.04,2.25,1.7-1.95,1.06-4.2,1.46-6.38,1.21,.96-.16,1.9-.39,2.8-.66,.91-.27,1.78-.63,2.57-1.07l-.09,.75c-2.03-1.8-4.69-1.9-7.3-1.76,0,0,.24-.17,.24-.17-.39,.78-.57,1.77-.77,2.64h0Z">
</path>
<path d="M37.81,40.79c1.18,.21,2.89,1.64,1.45,2.72-.42,.26-.83,.34-1.29,.36l.43-.36c-.29,1.5-1.97,2.04-3.27,2.09,0,0,0-1,0-1h.1s0,1,0,1c-.03,0-.11,0-.13,0-1.27-.09-2.86-.63-3.14-2.08,0,0,.43,.36,.43,.36-2.78-.19-2.07-2.61,.17-3.09-1.44,.8-2.3,2.49,.11,2.23,0,0,.12,.39,.12,.39,.33,.91,1.67,1.18,2.45,1.19,0,0,0,1,0,1h-.1v-1c.77-.01,2.11-.28,2.45-1.19,0,0,.13-.38,.13-.38,2.41,.26,1.54-1.44,.11-2.23h0Z">
</path>
<path class="cls-7" d="M28.98,47.41c-.3,.49-.7,1.11-1.05,1.9">
</path>
<path class="cls-7" d="M41.37,47.41c.3,.49,.7,1.11,1.05,1.9">
</path>
<polyline class="cls-6" points="41.79 48.58 41.14 49.37 35.97 49.37 34.38 49.37 29.22 49.37 28.56 48.58">
</polyline>
<path d="M39.05,51.14c-.13,.45-.33,.83-.53,1.22-1.17,.34-2.37,.49-3.55,.5-1.2-.01-2.39-.16-3.55-.5-.2-.39-.4-.77-.53-1.22,0,0,.07-.07,.07-.07l.82,.84-.05-.02c1.61-.03,4.85-.03,6.47,0-.19,.13,.81-.84,.78-.83,0,0,.07,.07,.07,.07h0Z">
</path>
<path class="cls-11" d="M24.17,55.92c.22,1.42,.31,2.85,.33,4.28-3.15,1.57-6.53,2.87-9.95,3.72-1.09,.3-2.21,.52-3.36,.68l-.04-.09c3.63-1.35,9.22-3.63,12.6-4.72,0,0,.32-3.87,.32-3.87h.1Z">
</path>
</g>




  <g
     id="g20645">
    <path
       style="fill:#808080;stroke:#4d4d4d;stroke-width:0.937908;stop-color:#000000;fill-opacity:1"
       d="m 9.541565,65.883425 a 5.4759801,5.4759801 0 0 1 5.47598,5.475981 5.4759801,5.4759801 0 0 1 -5.47598,5.47598 5.4759801,5.4759801 0 0 1 -5.4759806,-5.47598 5.4759801,5.4759801 0 0 1 5.4759806,-5.475981 z"/>
    <path
       style="fill:#808080;stroke:#4d4d4d;stroke-width:0.937908;stop-color:#000000;fill-opacity:1"
       d="m 59.472108,65.883425 a 5.4759801,5.4759801 0 0 1 5.47598,5.475981 5.4759801,5.4759801 0 0 1 -5.47598,5.47598 5.4759801,5.4759801 0 0 1 -5.475981,-5.47598 5.4759801,5.4759801 0 0 1 5.475981,-5.475981 z"/>
    <path
       id="path7641"
       style="fill:#808080;stroke:#4d4d4d;stroke-width:1.64416;stop-color:#000000"
       d="M 34.642578,1.1660156 C 13.787845,9.1047124 0.86132813,23.726855 0.86132812,39.564453 V 79.340489 H 68.152344 V 39.564453 c 0,-15.800978 -12.759199,-30.4148342 -33.509766,-38.3984374 z m -0.01367,3.8085938 C 53.384648,12.190722 64.917969,25.399665 64.917969,39.681641 v 26.507812 c -1.368656,-1.44106 -3.300993,-2.341797 -5.445313,-2.341797 -4.14856,0 -7.511718,3.363159 -7.511718,7.511719 0,2.347008 1.075662,4.442843 2.761718,5.820313 H 14.269531 c 1.756069,-1.422629 2.778281,-3.560307 2.783203,-5.820313 4.8e-5,-4.148627 -3.363091,-7.511766 -7.5117184,-7.511719 -2.0622939,0.0062 -4.0313164,0.860092 -5.4453125,2.361328 V 39.681641 c 0,-14.315076 11.6833059,-27.531508 30.5332029,-34.7070316 z"/>
    <circle
       style="fill:#4d4d4d;fill-opacity:1;stroke:#4d4d4d;stop-color:#000000"
       id="path16431"
       cx="9.6010828"
       cy="71.229652"
       r="5.06003" />
    <circle
       style="fill:#4d4d4d;fill-opacity:1;stroke:#4d4d4d;stop-color:#000000"
       id="path16431-3"
       cx="59.42292"
       cy="71.229652"
       r="5.06003" />
  </g>
</svg>
