<svg id="Capa_2" xmlns="http://www.w3.org/2000/svg" xmlns:xlink="http://www.w3.org/1999/xlink" viewBox="0 0 69.02 80">
<defs >
<style >
.cls-1{fill:#000000;}.cls-2{fill:#000;}.cls-3{fill:#000000;}.cls-4{fill:#000000;}.cls-5{fill:#000000;}.cls-6{fill:#000000;}.cls-7,.cls-8{stroke-miterlimit:10;}.cls-7,.cls-8,.cls-9,.cls-10{stroke:#000;}.cls-7,.cls-8,.cls-9,.cls-10,.cls-11,.cls-12,.cls-13{fill:none;}.cls-8,.cls-9,.cls-10,.cls-11{stroke-linecap:round;}.cls-9{stroke-width:.75px;}.cls-9,.cls-10,.cls-11{stroke-linejoin:round;}.cls-14{fill:#000000;}.cls-11{stroke:#000000;stroke-dasharray:0 0 0 4.06;}.cls-15{fill:#000000;}.cls-16{fill:url(#USGS_19_Inundación_de_tierra_2);}.cls-13{stroke:#000000;stroke-dasharray:0 0 2 2;stroke-width:.3px;}.cls-17{fill:#000000;}.cls-18{fill:#000000;}
</style>
<pattern id="USGS_19_Inundación_de_tierra_2" x="0" y="0" width="72" height="72" patternTransform="translate(267.52 -16207) rotate(-90)" patternUnits="userSpaceOnUse" viewBox="0 0 72 72">
<g >
<rect class="cls-12" width="72" height="72">
</rect>
<g >
<line class="cls-13" x1="71" y1="71" x2="144.44" y2="71">
</line>
<line class="cls-13" x1="71" y1="67" x2="144.44" y2="67">
</line>
<line class="cls-13" x1="71" y1="63" x2="144.44" y2="63">
</line>
<line class="cls-13" x1="71" y1="59" x2="144.44" y2="59">
</line>
<line class="cls-13" x1="71" y1="55" x2="144.44" y2="55">
</line>
<line class="cls-13" x1="71" y1="51" x2="144.44" y2="51">
</line>
<line class="cls-13" x1="71" y1="47" x2="144.44" y2="47">
</line>
<line class="cls-13" x1="71" y1="43" x2="144.44" y2="43">
</line>
<line class="cls-13" x1="71" y1="39" x2="144.44" y2="39">
</line>
<line class="cls-13" x1="71" y1="35" x2="144.44" y2="35">
</line>
<line class="cls-13" x1="71" y1="31" x2="144.44" y2="31">
</line>
<line class="cls-13" x1="71" y1="27" x2="144.44" y2="27">
</line>
<line class="cls-13" x1="71" y1="23" x2="144.44" y2="23">
</line>
<line class="cls-13" x1="71" y1="19" x2="144.44" y2="19">
</line>
<line class="cls-13" x1="71" y1="15" x2="144.44" y2="15">
</line>
<line class="cls-13" x1="71" y1="11" x2="144.44" y2="11">
</line>
<line class="cls-13" x1="71" y1="7" x2="144.44" y2="7">
</line>
<line class="cls-13" x1="71" y1="3" x2="144.44" y2="3">
</line>
</g>
<g >
<line class="cls-13" x1="-1" y1="71" x2="72.44" y2="71">
</line>
<line class="cls-13" x1="-1" y1="67" x2="72.44" y2="67">
</line>
<line class="cls-13" x1="-1" y1="63" x2="72.44" y2="63">
</line>
<line class="cls-13" x1="-1" y1="59" x2="72.44" y2="59">
</line>
<line class="cls-13" x1="-1" y1="55" x2="72.44" y2="55">
</line>
<line class="cls-13" x1="-1" y1="51" x2="72.44" y2="51">
</line>
<line class="cls-13" x1="-1" y1="47" x2="72.44" y2="47">
</line>
<line class="cls-13" x1="-1" y1="43" x2="72.44" y2="43">
</line>
<line class="cls-13" x1="-1" y1="39" x2="72.44" y2="39">
</line>
<line class="cls-13" x1="-1" y1="35" x2="72.44" y2="35">
</line>
<line class="cls-13" x1="-1" y1="31" x2="72.44" y2="31">
</line>
<line class="cls-13" x1="-1" y1="27" x2="72.44" y2="27">
</line>
<line class="cls-13" x1="-1" y1="23" x2="72.44" y2="23">
</line>
<line class="cls-13" x1="-1" y1="19" x2="72.44" y2="19">
</line>
<line class="cls-13" x1="-1" y1="15" x2="72.44" y2="15">
</line>
<line class="cls-13" x1="-1" y1="11" x2="72.44" y2="11">
</line>
<line class="cls-13" x1="-1" y1="7" x2="72.44" y2="7">
</line>
<line class="cls-13" x1="-1" y1="3" x2="72.44" y2="3">
</line>
<line class="cls-13" x1="1.04" y1="69" x2="74.48" y2="69">
</line>
<line class="cls-13" x1="1.04" y1="65" x2="74.48" y2="65">
</line>
<line class="cls-13" x1="1.04" y1="61" x2="74.48" y2="61">
</line>
<line class="cls-13" x1="1.04" y1="57" x2="74.48" y2="57">
</line>
<line class="cls-13" x1="1.04" y1="53" x2="74.48" y2="53">
</line>
<line class="cls-13" x1="1.04" y1="49" x2="74.48" y2="49">
</line>
<line class="cls-13" x1="1.04" y1="45" x2="74.48" y2="45">
</line>
<line class="cls-13" x1="1.04" y1="41" x2="74.48" y2="41">
</line>
<line class="cls-13" x1="1.04" y1="37" x2="74.48" y2="37">
</line>
<line class="cls-13" x1="1.04" y1="33" x2="74.48" y2="33">
</line>
<line class="cls-13" x1="1.04" y1="29" x2="74.48" y2="29">
</line>
<line class="cls-13" x1="1.04" y1="25" x2="74.48" y2="25">
</line>
<line class="cls-13" x1="1.04" y1="21" x2="74.48" y2="21">
</line>
<line class="cls-13" x1="1.04" y1="17" x2="74.48" y2="17">
</line>
<line class="cls-13" x1="1.04" y1="13" x2="74.48" y2="13">
</line>
<line class="cls-13" x1="1.04" y1="9" x2="74.48" y2="9">
</line>
<line class="cls-13" x1="1.04" y1="5" x2="74.48" y2="5">
</line>
<line class="cls-13" x1="1.04" y1="1" x2="74.48" y2="1">
</line>
</g>
<g >
<line class="cls-13" x1="-73" y1="71" x2=".44" y2="71">
</line>
<line class="cls-13" x1="-73" y1="67" x2=".44" y2="67">
</line>
<line class="cls-13" x1="-73" y1="63" x2=".44" y2="63">
</line>
<line class="cls-13" x1="-73" y1="59" x2=".44" y2="59">
</line>
<line class="cls-13" x1="-73" y1="55" x2=".44" y2="55">
</line>
<line class="cls-13" x1="-73" y1="51" x2=".44" y2="51">
</line>
<line class="cls-13" x1="-73" y1="47" x2=".44" y2="47">
</line>
<line class="cls-13" x1="-73" y1="43" x2=".44" y2="43">
</line>
<line class="cls-13" x1="-73" y1="39" x2=".44" y2="39">
</line>
<line class="cls-13" x1="-73" y1="35" x2=".44" y2="35">
</line>
<line class="cls-13" x1="-73" y1="31" x2=".44" y2="31">
</line>
<line class="cls-13" x1="-73" y1="27" x2=".44" y2="27">
</line>
<line class="cls-13" x1="-73" y1="23" x2=".44" y2="23">
</line>
<line class="cls-13" x1="-73" y1="19" x2=".44" y2="19">
</line>
<line class="cls-13" x1="-73" y1="15" x2=".44" y2="15">
</line>
<line class="cls-13" x1="-73" y1="11" x2=".44" y2="11">
</line>
<line class="cls-13" x1="-73" y1="7" x2=".44" y2="7">
</line>
<line class="cls-13" x1="-73" y1="3" x2=".44" y2="3">
</line>
<line class="cls-13" x1="-70.96" y1="69" x2="2.48" y2="69">
</line>
<line class="cls-13" x1="-70.96" y1="65" x2="2.48" y2="65">
</line>
<line class="cls-13" x1="-70.96" y1="61" x2="2.48" y2="61">
</line>
<line class="cls-13" x1="-70.96" y1="57" x2="2.48" y2="57">
</line>
<line class="cls-13" x1="-70.96" y1="53" x2="2.48" y2="53">
</line>
<line class="cls-13" x1="-70.96" y1="49" x2="2.48" y2="49">
</line>
<line class="cls-13" x1="-70.96" y1="45" x2="2.48" y2="45">
</line>
<line class="cls-13" x1="-70.96" y1="41" x2="2.48" y2="41">
</line>
<line class="cls-13" x1="-70.96" y1="37" x2="2.48" y2="37">
</line>
<line class="cls-13" x1="-70.96" y1="33" x2="2.48" y2="33">
</line>
<line class="cls-13" x1="-70.96" y1="29" x2="2.48" y2="29">
</line>
<line class="cls-13" x1="-70.96" y1="25" x2="2.48" y2="25">
</line>
<line class="cls-13" x1="-70.96" y1="21" x2="2.48" y2="21">
</line>
<line class="cls-13" x1="-70.96" y1="17" x2="2.48" y2="17">
</line>
<line class="cls-13" x1="-70.96" y1="13" x2="2.48" y2="13">
</line>
<line class="cls-13" x1="-70.96" y1="9" x2="2.48" y2="9">
</line>
<line class="cls-13" x1="-70.96" y1="5" x2="2.48" y2="5">
</line>
<line class="cls-13" x1="-70.96" y1="1" x2="2.48" y2="1">
</line>
</g>
</g>
</pattern>
</defs>
  <path
     id="circle1849"
     style="fill:#AA00DD;stroke:#000000;stroke-width:2"
     d="M 34.875,3.84375 C 30.2026,3.8566827 25.91896,6.4477515 23.738281,10.580078 21.63936,9.1446679 19.156089,8.3761337 16.613281,8.375 9.636905,8.3755251 3.9818685,14.031436 3.9824219,21.007812 c 0.012178,4.019812 1.9368978,7.79383 5.1835937,10.164063 -1.8357739,2.246976 -2.8420262,5.057448 -2.8496094,7.958984 0.00713,1.935325 0.4588528,3.843134 1.3203126,5.576172 -2.4145566,2.364898 -3.7807042,5.598771 -3.7929688,8.978516 0.00466,4.996359 2.9538661,9.520462 7.523438,11.541015 0.767283,6.336372 6.140784,11.10481 12.523437,11.113282 3.186693,-0.0091 6.252191,-1.222333 8.582031,-3.396485 1.867081,1.045968 3.9693,1.600422 6.109375,1.611329 2.723791,-0.01118 5.371006,-0.902492 7.546875,-2.541016 1.56279,0.673484 3.245549,1.024252 4.947266,1.03125 6.977139,5.53e-4 12.633366,-5.655674 12.632812,-12.632813 -0.0013,-2.652818 -0.837669,-5.237911 -2.390625,-7.388671 2.480721,-2.37284 3.888874,-5.653124 3.900391,-9.085938 -9.13e-4,-3.96978 -1.867955,-7.708203 -5.041016,-10.09375 2.59288,-2.385063 4.071919,-5.744584 4.080078,-9.267578 C 64.257287,17.599796 58.601376,11.944759 51.625,11.945312 50.032147,11.955601 48.455612,12.267065 46.978516,12.863281 45.38146,7.5117456 40.459758,3.8440964 34.875,3.84375 Z"/>



<g id="Capa_10">
<g >
<path class="cls-1" d="M34.33,15.39s-3-.7-6.7,.8c-4.8,.3-5.4,2.5-5.4,2.5,0,0-3.4,2.4-3.1,7.09-.7,3.7-.2,7.39-.2,7.39,0,0-1.8-.2-2.2,1.8s.2,7.29,4.5,9.19c.9,6.4,1.4,7.89,1.4,7.89l1.4,1.5-.1,1.8-1.4,.6-2,4.5-12.59,4.3,.4,8.59,25.38,4.5,25.78-4.8,1.2-8.89-11.39-3.6-2.6-4.8-1.5,.2,.1-2.7,.7-.8,1.7-8.69s2.9,0,4.1-4.4c1.3-4.8,.5-6.4-1.8-6.2,.8-5.2,.1-7.79,.1-7.79,0,0-.4-5-3.3-6.6-.9-1.8-4.3-2.7-5.7-2.7-1.8-1.8-5.4-1-6.8-.7Z">
</path>
<path class="cls-2" d="M34.69,58.98V24.07s5.57-3.88,11.38-1.18c2.19,5.31,.93,10.96,.93,10.96,0,0,.52,3.68,.73,6.69,.45,3.77-1.71,11.93-1.71,11.93,0,0-6.86,7.27-11.33,6.51Z">
</path>
<path class="cls-17" d="M20.98,38.47l1.08-5.22s-1.26-6.21,.36-10.27c2.25-1.08,4.41-.36,4.41-.36,0,0-2.16,2.25-1.08,4.5s4.41,3.51,4.41,3.51c0,0-2.18-4.11-.27-6.3,1.62-1.53,2.7-1.53,4.5-.09,3.78-2.79,9.73-2.34,11.98-.9,1.53,5.13,.99,8.83,.36,10.09,1.44,4.23,.99,7.11,.99,7.11,0,0,3.24-6.93,2.61-11.8-.18-5.22-.92-8.64-3.52-9.95-1.16-2.84-5.21-3.02-5.21-3.02,0,0-4.32-1.53-6.93-.45-4.59-1.44-5.94,.63-5.94,.63,0,0-3.78-.27-6.12,2.79-4.5,4.23-3.96,10.09-3.96,10.09,0,0,.27,6.75,2.34,9.64Z">
</path>
<polygon class="cls-4" points="31.56 34.97 27.84 34.05 23.4 35.23 25.34 38.39 31.1 38.18 31.56 34.97">
</polygon>
<polygon class="cls-4" points="37.58 34.87 42.22 33.9 45.74 35.17 43.65 38.95 38.24 38.13 37.58 34.87">
</polygon>
<path class="cls-3" d="M31.02,37.66s-1.65-1.17-3.9-.69c-1.86,.56-1.79,1.42-1.79,1.42l.53,.83,3.55-.04,1.43-.91,.17-.61Z">
</path>
<path class="cls-3" d="M38.21,37.66s1.65-1.17,3.9-.69c1.86,.56,1.79,1.42,1.79,1.42l-.53,.83-3.55-.04-1.43-.91-.17-.61Z">
</path>
<path d="M18.94,33.18s-2.35-.24-2.5,1.94,1.82,7.7,4.87,8.64c-.58-3.7-.33-5.3-.33-5.3,0,0-1.72-3.82-2.04-5.29Z">
</path>
<path d="M43.17,55.66l-19.47,19.47-14.6-2.72-1.15-7.66,12.59-4.3,2-4.5,1.5-.08v-2.32s6.23,5.49,10.19,5.15c4.19,.45,8.94-3.06,8.94-3.06Z">
</path>
<path class="cls-1" d="M41.38,23.53c1.31,0,2.61,.24,3.85,.7,.19,.54,.35,1.16,.48,1.86,.47,2.4,.4,4.87-.21,7.16-.05,.18-.04,.37,.01,.54,.75,2.48,.65,5.36-.32,9.06-.26,.97-.56,1.99-.99,2.95-.21,.46-.04,1.01,.4,1.27,.16,.1,.34,.14,.51,.14,.3,0,.6-.14,.8-.4,0,0,.01-.02,.02-.02-.34,2.18-.75,3.9-1.19,5.05-3.37,2.82-6.85,5.69-9.99,5.69h-.35c-3.13,0-6.61-2.86-9.98-5.68-.5-1.31-.89-3.16-1.18-5.05,.03,.03,.05,.06,.08,.09,.2,.22,.47,.33,.74,.33,.19,0,.38-.05,.55-.17,.41-.27,.56-.81,.35-1.26-.44-.95-.73-1.98-.99-2.94-.98-3.7-1.08-6.58-.32-9.06,.05-.18,.06-.37,.01-.55-.78-2.96-.69-6.25,.25-9.32,.25-.07,.5-.12,.76-.16-.61,1.36-.66,2.9-.04,4.18,0,.02,.02,.03,.03,.05,.89,1.63,2.43,2.58,3.78,3.42,.47,.29,.91,.57,1.34,.88l1.48,1c.17,.11,.37,.17,.56,.17,.25,0,.49-.09,.68-.27,.34-.32,.41-.83,.18-1.23-1.01-1.73-2.11-4.24-1.62-6.44,.13-.66,.75-1.01,1.3-1.01,.26,0,.64,.08,.93,.43,.11,.15,.23,.25,.32,.31,.24,.21,.55,.33,.87,.33,.26,0,.52-.08,.71-.21,1.93-1.21,4.07-1.85,6.19-1.85m0-1c-2.27,0-4.58,.65-6.73,2-.06,.04-.12,.06-.18,.06-.1,0-.19-.05-.25-.12-.05-.03-.1-.06-.14-.12-.45-.57-1.09-.83-1.73-.83-1.03,0-2.06,.68-2.28,1.82-.54,2.41,.54,5.09,1.74,7.14l-1.48-1c-1.64-1.18-3.77-2.05-4.81-3.95-.76-1.59-.19-3.55,1.05-4.76-.32-.04-.63-.06-.95-.06-.86,0-1.71,.15-2.51,.43-1.11,3.3-1.31,6.99-.42,10.37-.96,3.13-.52,6.48,.31,9.61,.28,1.05,.58,2.1,1.05,3.11-.76-.84-1.25-1.86-1.72-2.88-.3-.71-.55-1.45-.76-2.21,.28,3.37,.88,8.6,2.01,11.33,3.61,3.02,7.29,6.08,10.82,6.08h.35c3.56,0,7.25-3.09,10.82-6.08,1.12-2.69,1.72-7.8,2.01-11.18-.52,1.8-1.37,3.49-2.47,4.94,.46-1.01,.77-2.06,1.05-3.11,.82-3.13,1.26-6.48,.31-9.61,.65-2.47,.71-5.1,.22-7.61-.16-.82-.38-1.67-.68-2.42h0c-1.48-.63-3.05-.95-4.63-.95h0Z">
</path>
<path d="M34.08,24.35c-1.18-1.49-3.65-.85-4,.99-.54,2.41,.54,5.09,1.73,7.14,0,0-1.48-1-1.48-1-1.64-1.17-3.76-2.05-4.81-3.95-.97-2.03,.21-4.71,2.23-5.57,1.34-.55,2.85-.45,4.06,.18-1.3-.36-2.71-.27-3.82,.33-1.6,.81-2.55,3.07-1.76,4.71,1.01,1.68,2.98,2.44,4.59,3.56,0,0-.63,.61-.63,.61-1.03-2.27-1.97-5.66-.14-7.73,1.29-1.3,3.5-1.17,4.61,.29,.32,.39-.29,.86-.59,.46h0Z">
</path>
<path d="M27.09,22.84c-2.83-.58-5.94,.58-7.52,3.04,0,0-.81,1.17-.81,1.17-.62-4.07,.64-8.97,5.58-8.93,1.18,.05,2.3,.46,3.19,1.17-1.13-.1-2.17-.24-3.17-.16-3.34,.07-4.72,3.53-4.7,6.45,0,0-.91-.27-.91-.27,.95-1.3,2.25-2.38,3.79-2.9,1.53-.54,3.14-.62,4.73-.27,.19,.05,.32,.24,.27,.43-.05,.2-.25,.32-.45,.27h0Z">
</path>
<path d="M21.43,18.72c2.39-4.04,9.22-4.28,11.14,.24-.64-.85-1.5-1.46-2.43-1.81-2.78-1.19-6.04-.23-7.87,2.13-.37,.53-1.18-.02-.83-.56h0Z">
</path>
<path d="M34.26,23.92c4.95-3.35,11.9-2.9,16.21,1.3,0,0-.84,.35-.84,.35-.03-1.05-.17-2.08-.48-3.03-.6-1.92-2.17-3.38-4.23-3.43-1-.08-2.04,.06-3.17,.17,.88-.71,2-1.14,3.19-1.18,3.98-.21,6.17,3.99,5.69,7.51,0,0-.02,1.11-.02,1.11-4.28-4.59-10.62-5.54-15.96-2.19-.38,.25-.79-.36-.39-.61h0Z">
</path>
<path d="M47.03,19.28c-1.83-2.36-5.09-3.32-7.87-2.13-.93,.36-1.8,.96-2.43,1.81,.35-1.02,1.17-1.86,2.13-2.43,3.01-1.85,7.14-.8,9.01,2.19,.35,.54-.46,1.08-.83,.56h0Z">
</path>
<path class="cls-8" d="M41.73,16.07s-3.51-1.92-7.08-.78c-3.57-1.15-7.09,.78-7.09,.78">
</path>
<path class="cls-8" d="M19.36,24.87s-2.06,7.07,2.26,14.75">
</path>
<path d="M23.12,23.09c-1.12,3.31-1.32,7.03-.44,10.42-.95,3.13-.51,6.48,.31,9.61,.28,1.05,.59,2.1,1.05,3.11-.75-.84-1.25-1.86-1.72-2.88-1.3-3.13-1.91-6.73-.63-10.01,0,0-.01,.3-.01,.3-.68-2.69-.71-5.5-.2-8.22,.17-.91,.38-1.78,.7-2.69,.09-.26,.38-.4,.64-.3,.27,.09,.4,.4,.3,.66h0Z">
</path>
<path class="cls-8" d="M34.75,59.05h-.35c-3.76,0-7.53-3.17-11.23-6.27-1.84-4.29-2.32-14.76-2.32-14.76">
</path>
<path class="cls-8" d="M19.24,33.19s-1.76-.53-2.4,.85,.21,9.06,4.58,10.01">
</path>
<path class="cls-8" d="M49.79,24.87s2.06,7.07-2.26,14.75">
</path>
<path d="M46.95,23.12c1.24,3.36,1.39,7.05,.52,10.51,0,0-.01-.3-.01-.3,1.57,4.31,.35,9.34-2.35,12.89,.46-1.01,.77-2.06,1.05-3.11,.83-3.13,1.26-6.48,.31-9.61,.66-2.47,.72-5.1,.22-7.6-.16-.83-.38-1.67-.68-2.42-.23-.6,.69-.97,.93-.36h0Z">
</path>
<path class="cls-8" d="M34.4,59.05h.35c3.77,0,7.53-3.17,11.23-6.27,1.85-4.29,2.33-14.76,2.33-14.76">
</path>
<path class="cls-8" d="M49.91,33.19s1.76-.53,2.4,.85,0,9-4.38,9.96">
</path>
<path d="M23.56,35.15s2.64-1.58,3.99-1.69c2.49,.04,4.18,.92,4.18,.92l-.26,1.25s-3.59-1.1-4.14-1.1c-2.09,.4-3.77,.62-3.77,.62Z">
</path>
<path d="M30.62,37.38c-1.7-.54-3.84-.59-4.99,.96,0,0,.05-.32,.05-.32,.11,.26,.31,.76,.45,.99l-.26-.15c.99,.07,2.59,.04,3.25,0,.49-.18,1.05-.4,1.46-.7,1.86-.49-1.72,3.45-2.36,3.47-.73,.25-1.67,.01-2.02-.71,1.83,1.84,3.43-1.24,4.28-2.65,0,0,.53,.42,.53,.42-1.46,1.27-3.45,.98-5.23,.87-.23-.02-.32-.32-.39-.46-.09-.18-.25-.66-.33-.85-.04-.11-.02-.23,.06-.31,1.37-1.63,3.81-1.5,5.49-.55h0Z">
</path>
<path d="M45.62,35.15s-2.64-1.58-3.99-1.69c-2.49,.04-4.18,.92-4.18,.92l.26,1.25s3.59-1.1,4.14-1.1c2.09,.4,3.77,.62,3.77,.62Z">
</path>
<path d="M38.56,37.38c1.68-.96,4.13-1.08,5.49,.55,.08,.09,.09,.21,.06,.31-.08,.19-.24,.67-.33,.85-.07,.15-.18,.47-.42,.46-1.77,.11-3.74,.39-5.2-.87,0,0,.53-.42,.53-.42,.32,.57,.67,1.14,1.05,1.67,.73,1.12,2.09,2.28,3.22,.98-.35,.72-1.28,.96-2.02,.71-1.27-.64-2.1-1.86-2.86-3.02-.21-.33,.26-.7,.53-.42,.41,.28,.95,.5,1.42,.67,.66,.04,2.25,.07,3.25,0,0,0-.26,.15-.26,.15,.14-.23,.34-.73,.45-.99,0,0,.05,.32,.05,.32-1.15-1.55-3.29-1.5-4.99-.96h0Z">
</path>
<path d="M36.59,39.99c.2,1.13,.36,2.24,.48,3.35l-.13-.22,1.48,1.08c.17,.12,.2,.35,.08,.52-1.11,.9-2.36,1.58-3.65,2.18-.13,.06-.28,.05-.4,0-1.27-.57-2.46-1.26-3.57-2.1-.16-.12-.2-.35-.07-.51,.02-.03,.05-.06,.08-.08l1.49-1.09-.13,.22c.13-1.11,.28-2.23,.48-3.35,.09,1.13,.14,2.28,.16,3.43,0,.1-.06,.17-.13,.22l-1.27,1.15-.06-.63c1.08,.69,2.24,1.31,3.42,1.82h-.4c1.18-.51,2.34-1.14,3.42-1.82l-.05,.64-1.28-1.16c-.07-.05-.13-.13-.13-.22,.02-1.15,.07-2.29,.16-3.43h0Z">
</path>
<polyline class="cls-9" points="29.58 47.01 29.91 48.55 38.01 49.34 39.19 48.19">
</polyline>
<path class="cls-9" d="M30.21,46.42s-1.15,.49-1.64,1.67">
</path>
<path class="cls-9" d="M38.93,47.3s.92,1.15,.79,2.56">
</path>
<path d="M31.55,50.23c1.4,.59,3.14,.48,4.5,.43-1.3,1.19-3.44,1.05-4.53-.36-.03-.03-.01-.08,.03-.07h0Z">
</path>
<path d="M31.1,52.47c1.31-1.73,4.37-1.56,5.47,.32-1.9-.57-3.46-.68-5.47-.32h0Z">
</path>
<path d="M25.84,49.33l.66,5.58c.02,.21-.12,.39-.33,.42-.22,.03-.42-.15-.42-.38l.09-5.62h0Z">
</path>
<path d="M43.51,49.33l.09,5.62c0,.21-.16,.38-.37,.38-.23,0-.41-.2-.38-.42l.66-5.58h0Z">
</path>
<path class="cls-10" d="M45.27,53.65v5.25s-4.15,2.67-7.56,4.15c-.97,2.87-2.1,4.93-3.07,6.34-.97-1.41-2.09-3.47-3.06-6.34-3.42-1.48-7.57-4.15-7.57-4.15v-5.25">
</path>
<path class="cls-10" d="M23.66,55.73l-1.04,.2-1.93,4.35s-.1,4.5,7.37,9c1.09-3.86,3.52-6.23,3.52-6.23">
</path>
<path class="cls-10" d="M45.77,55.73l1.04,.2,1.93,4.35s.1,4.5-7.37,9c-1.09-3.86-3.52-6.23-3.52-6.23">
</path>
<line class="cls-10" x1="20.7" y1="60.28" x2="7.72" y2="64.64">
</line>
<line class="cls-10" x1="48.78" y1="60.28" x2="61.75" y2="64.64">
</line>
<path class="cls-4" d="M23.37,56.61c-.24,1.59-.68,3.14-1.18,4.66-2.82,1.2-5.73,2.19-8.75,2.77-.96,.22-1.95,.36-2.94,.44,0,0-.03-.09-.03-.09,3.6-1.2,7.62-2.69,11.04-3.71,0,0,1.77-4.11,1.77-4.11l.09,.04h0Z">
</path>
<polygon points="45.37 55.63 45.2 59.1 37.92 62.91 34.96 69.25 32.17 65.27 22.95 74.75 58.74 74.75 61.53 70.77 60.09 64.17 48.92 60.2 46.72 55.71 45.37 55.63">
</polygon>
<path class="cls-14" d="M49.49,61.09l12.49,4.03-3.9,7.64-22.48,2.4s11.57-6.2,13.89-14.07Z">
</path>
<path class="cls-2" d="M39.08,60.59c.21,0,5.05-4.62,5.05-4.62v2.28l-5.05,2.35Z">
</path>
<path d="M22.8,23.36s-2.55,0-3.83,2.41c-.85,7.66,2.27,12.55,2.27,12.55l.57-4.61s-.78-6.88,.99-10.35Z">
</path>
<path d="M46.55,23.36c-.08-.28,3.33,2.06,3.33,2.06,0,0,.99,8.01-1.84,12.48-.64-3.12-.92-4.68-.92-4.68,0,0,1.13-3.97-.57-9.86Z">
</path>
<path class="cls-2" d="M24.58,41.65s2.46,2.4,5.45-.06c-3.34,4.39-3.87,5.04-5.45,.06Z">
</path>
<path class="cls-14" d="M38.14,63.5l3.31,5.94s1.73-2.68-3.31-5.94Z">
</path>
<path class="cls-1" d="M18.39,33.75c-.71,.49-.58,1.19-.47,1.92,.54,2.33,1.43,4.56,2.11,6.91,0,0-.08,.07-.08,.07-1.07-1.32-1.85-2.86-2.37-4.47-.32-1.2-.73-2.56-.21-3.76,.18-.4,.56-.71,1.01-.77v.1h0Z">
</path>
</g>
</g>

</svg>
