<svg id="Capa_2" xmlns="http://www.w3.org/2000/svg" xmlns:xlink="http://www.w3.org/1999/xlink" viewBox="0 0 69.02 80">
<defs >
<style >
.cls-1{fill:#c89aed;}.cls-2{fill:#fff;}.cls-3{fill:#f8ffbf;}.cls-4{fill:#7b7be8;}.cls-5{fill:#a88347;}.cls-6{fill:#782ab5;}.cls-7,.cls-8{stroke-miterlimit:10;}.cls-7,.cls-8,.cls-9,.cls-10{stroke:#000;}.cls-7,.cls-8,.cls-9,.cls-10,.cls-11,.cls-12,.cls-13{fill:none;}.cls-8,.cls-9,.cls-10,.cls-11{stroke-linecap:round;}.cls-9{stroke-width:.75px;}.cls-9,.cls-10,.cls-11{stroke-linejoin:round;}.cls-14{fill:#1c46ff;}.cls-11{stroke:#deb778;stroke-dasharray:0 0 0 4.06;}.cls-15{fill:#deb778;}.cls-16{fill:url(#USGS_19_Inundación_de_tierra_2);}.cls-13{stroke:#1d1d1b;stroke-dasharray:0 0 2 2;stroke-width:.3px;}.cls-17{fill:#cf5f2b;}.cls-18{fill:#fcf0c5;}
</style>
<pattern id="USGS_19_Inundación_de_tierra_2" x="0" y="0" width="72" height="72" patternTransform="translate(267.52 -16207) rotate(-90)" patternUnits="userSpaceOnUse" viewBox="0 0 72 72">
<g >
<rect class="cls-12" width="72" height="72">
</rect>
<g >
<line class="cls-13" x1="71" y1="71" x2="144.44" y2="71">
</line>
<line class="cls-13" x1="71" y1="67" x2="144.44" y2="67">
</line>
<line class="cls-13" x1="71" y1="63" x2="144.44" y2="63">
</line>
<line class="cls-13" x1="71" y1="59" x2="144.44" y2="59">
</line>
<line class="cls-13" x1="71" y1="55" x2="144.44" y2="55">
</line>
<line class="cls-13" x1="71" y1="51" x2="144.44" y2="51">
</line>
<line class="cls-13" x1="71" y1="47" x2="144.44" y2="47">
</line>
<line class="cls-13" x1="71" y1="43" x2="144.44" y2="43">
</line>
<line class="cls-13" x1="71" y1="39" x2="144.44" y2="39">
</line>
<line class="cls-13" x1="71" y1="35" x2="144.44" y2="35">
</line>
<line class="cls-13" x1="71" y1="31" x2="144.44" y2="31">
</line>
<line class="cls-13" x1="71" y1="27" x2="144.44" y2="27">
</line>
<line class="cls-13" x1="71" y1="23" x2="144.44" y2="23">
</line>
<line class="cls-13" x1="71" y1="19" x2="144.44" y2="19">
</line>
<line class="cls-13" x1="71" y1="15" x2="144.44" y2="15">
</line>
<line class="cls-13" x1="71" y1="11" x2="144.44" y2="11">
</line>
<line class="cls-13" x1="71" y1="7" x2="144.44" y2="7">
</line>
<line class="cls-13" x1="71" y1="3" x2="144.44" y2="3">
</line>
</g>
<g >
<line class="cls-13" x1="-1" y1="71" x2="72.44" y2="71">
</line>
<line class="cls-13" x1="-1" y1="67" x2="72.44" y2="67">
</line>
<line class="cls-13" x1="-1" y1="63" x2="72.44" y2="63">
</line>
<line class="cls-13" x1="-1" y1="59" x2="72.44" y2="59">
</line>
<line class="cls-13" x1="-1" y1="55" x2="72.44" y2="55">
</line>
<line class="cls-13" x1="-1" y1="51" x2="72.44" y2="51">
</line>
<line class="cls-13" x1="-1" y1="47" x2="72.44" y2="47">
</line>
<line class="cls-13" x1="-1" y1="43" x2="72.44" y2="43">
</line>
<line class="cls-13" x1="-1" y1="39" x2="72.44" y2="39">
</line>
<line class="cls-13" x1="-1" y1="35" x2="72.44" y2="35">
</line>
<line class="cls-13" x1="-1" y1="31" x2="72.44" y2="31">
</line>
<line class="cls-13" x1="-1" y1="27" x2="72.44" y2="27">
</line>
<line class="cls-13" x1="-1" y1="23" x2="72.44" y2="23">
</line>
<line class="cls-13" x1="-1" y1="19" x2="72.44" y2="19">
</line>
<line class="cls-13" x1="-1" y1="15" x2="72.44" y2="15">
</line>
<line class="cls-13" x1="-1" y1="11" x2="72.44" y2="11">
</line>
<line class="cls-13" x1="-1" y1="7" x2="72.44" y2="7">
</line>
<line class="cls-13" x1="-1" y1="3" x2="72.44" y2="3">
</line>
<line class="cls-13" x1="1.04" y1="69" x2="74.48" y2="69">
</line>
<line class="cls-13" x1="1.04" y1="65" x2="74.48" y2="65">
</line>
<line class="cls-13" x1="1.04" y1="61" x2="74.48" y2="61">
</line>
<line class="cls-13" x1="1.04" y1="57" x2="74.48" y2="57">
</line>
<line class="cls-13" x1="1.04" y1="53" x2="74.48" y2="53">
</line>
<line class="cls-13" x1="1.04" y1="49" x2="74.48" y2="49">
</line>
<line class="cls-13" x1="1.04" y1="45" x2="74.48" y2="45">
</line>
<line class="cls-13" x1="1.04" y1="41" x2="74.48" y2="41">
</line>
<line class="cls-13" x1="1.04" y1="37" x2="74.48" y2="37">
</line>
<line class="cls-13" x1="1.04" y1="33" x2="74.48" y2="33">
</line>
<line class="cls-13" x1="1.04" y1="29" x2="74.48" y2="29">
</line>
<line class="cls-13" x1="1.04" y1="25" x2="74.48" y2="25">
</line>
<line class="cls-13" x1="1.04" y1="21" x2="74.48" y2="21">
</line>
<line class="cls-13" x1="1.04" y1="17" x2="74.48" y2="17">
</line>
<line class="cls-13" x1="1.04" y1="13" x2="74.48" y2="13">
</line>
<line class="cls-13" x1="1.04" y1="9" x2="74.48" y2="9">
</line>
<line class="cls-13" x1="1.04" y1="5" x2="74.48" y2="5">
</line>
<line class="cls-13" x1="1.04" y1="1" x2="74.48" y2="1">
</line>
</g>
<g >
<line class="cls-13" x1="-73" y1="71" x2=".44" y2="71">
</line>
<line class="cls-13" x1="-73" y1="67" x2=".44" y2="67">
</line>
<line class="cls-13" x1="-73" y1="63" x2=".44" y2="63">
</line>
<line class="cls-13" x1="-73" y1="59" x2=".44" y2="59">
</line>
<line class="cls-13" x1="-73" y1="55" x2=".44" y2="55">
</line>
<line class="cls-13" x1="-73" y1="51" x2=".44" y2="51">
</line>
<line class="cls-13" x1="-73" y1="47" x2=".44" y2="47">
</line>
<line class="cls-13" x1="-73" y1="43" x2=".44" y2="43">
</line>
<line class="cls-13" x1="-73" y1="39" x2=".44" y2="39">
</line>
<line class="cls-13" x1="-73" y1="35" x2=".44" y2="35">
</line>
<line class="cls-13" x1="-73" y1="31" x2=".44" y2="31">
</line>
<line class="cls-13" x1="-73" y1="27" x2=".44" y2="27">
</line>
<line class="cls-13" x1="-73" y1="23" x2=".44" y2="23">
</line>
<line class="cls-13" x1="-73" y1="19" x2=".44" y2="19">
</line>
<line class="cls-13" x1="-73" y1="15" x2=".44" y2="15">
</line>
<line class="cls-13" x1="-73" y1="11" x2=".44" y2="11">
</line>
<line class="cls-13" x1="-73" y1="7" x2=".44" y2="7">
</line>
<line class="cls-13" x1="-73" y1="3" x2=".44" y2="3">
</line>
<line class="cls-13" x1="-70.96" y1="69" x2="2.48" y2="69">
</line>
<line class="cls-13" x1="-70.96" y1="65" x2="2.48" y2="65">
</line>
<line class="cls-13" x1="-70.96" y1="61" x2="2.48" y2="61">
</line>
<line class="cls-13" x1="-70.96" y1="57" x2="2.48" y2="57">
</line>
<line class="cls-13" x1="-70.96" y1="53" x2="2.48" y2="53">
</line>
<line class="cls-13" x1="-70.96" y1="49" x2="2.48" y2="49">
</line>
<line class="cls-13" x1="-70.96" y1="45" x2="2.48" y2="45">
</line>
<line class="cls-13" x1="-70.96" y1="41" x2="2.48" y2="41">
</line>
<line class="cls-13" x1="-70.96" y1="37" x2="2.48" y2="37">
</line>
<line class="cls-13" x1="-70.96" y1="33" x2="2.48" y2="33">
</line>
<line class="cls-13" x1="-70.96" y1="29" x2="2.48" y2="29">
</line>
<line class="cls-13" x1="-70.96" y1="25" x2="2.48" y2="25">
</line>
<line class="cls-13" x1="-70.96" y1="21" x2="2.48" y2="21">
</line>
<line class="cls-13" x1="-70.96" y1="17" x2="2.48" y2="17">
</line>
<line class="cls-13" x1="-70.96" y1="13" x2="2.48" y2="13">
</line>
<line class="cls-13" x1="-70.96" y1="9" x2="2.48" y2="9">
</line>
<line class="cls-13" x1="-70.96" y1="5" x2="2.48" y2="5">
</line>
<line class="cls-13" x1="-70.96" y1="1" x2="2.48" y2="1">
</line>
</g>
</g>
</pattern>
</defs>

<g id="Capa_10">
<g >
<path class="cls-1" d="M34.33,15.39s-3-.7-6.7,.8c-4.8,.3-5.4,2.5-5.4,2.5,0,0-3.4,2.4-3.1,7.09-.7,3.7-.2,7.39-.2,7.39,0,0-1.8-.2-2.2,1.8s.2,7.29,4.5,9.19c.9,6.4,1.4,7.89,1.4,7.89l1.4,1.5-.1,1.8-1.4,.6-2,4.5-12.59,4.3,.4,8.59,25.38,4.5,25.78-4.8,1.2-8.89-11.39-3.6-2.6-4.8-1.5,.2,.1-2.7,.7-.8,1.7-8.69s2.9,0,4.1-4.4c1.3-4.8,.5-6.4-1.8-6.2,.8-5.2,.1-7.79,.1-7.79,0,0-.4-5-3.3-6.6-.9-1.8-4.3-2.7-5.7-2.7-1.8-1.8-5.4-1-6.8-.7Z">
</path>
<path class="cls-2" d="M34.69,58.98V24.07s5.57-3.88,11.38-1.18c2.19,5.31,.93,10.96,.93,10.96,0,0,.52,3.68,.73,6.69,.45,3.77-1.71,11.93-1.71,11.93,0,0-6.86,7.27-11.33,6.51Z">
</path>
<path class="cls-17" d="M20.98,38.47l1.08-5.22s-1.26-6.21,.36-10.27c2.25-1.08,4.41-.36,4.41-.36,0,0-2.16,2.25-1.08,4.5s4.41,3.51,4.41,3.51c0,0-2.18-4.11-.27-6.3,1.62-1.53,2.7-1.53,4.5-.09,3.78-2.79,9.73-2.34,11.98-.9,1.53,5.13,.99,8.83,.36,10.09,1.44,4.23,.99,7.11,.99,7.11,0,0,3.24-6.93,2.61-11.8-.18-5.22-.92-8.64-3.52-9.95-1.16-2.84-5.21-3.02-5.21-3.02,0,0-4.32-1.53-6.93-.45-4.59-1.44-5.94,.63-5.94,.63,0,0-3.78-.27-6.12,2.79-4.5,4.23-3.96,10.09-3.96,10.09,0,0,.27,6.75,2.34,9.64Z">
</path>
<polygon class="cls-4" points="31.56 34.97 27.84 34.05 23.4 35.23 25.34 38.39 31.1 38.18 31.56 34.97">
</polygon>
<polygon class="cls-4" points="37.58 34.87 42.22 33.9 45.74 35.17 43.65 38.95 38.24 38.13 37.58 34.87">
</polygon>
<path class="cls-3" d="M31.02,37.66s-1.65-1.17-3.9-.69c-1.86,.56-1.79,1.42-1.79,1.42l.53,.83,3.55-.04,1.43-.91,.17-.61Z">
</path>
<path class="cls-3" d="M38.21,37.66s1.65-1.17,3.9-.69c1.86,.56,1.79,1.42,1.79,1.42l-.53,.83-3.55-.04-1.43-.91-.17-.61Z">
</path>
<path d="M18.94,33.18s-2.35-.24-2.5,1.94,1.82,7.7,4.87,8.64c-.58-3.7-.33-5.3-.33-5.3,0,0-1.72-3.82-2.04-5.29Z">
</path>
<path d="M43.17,55.66l-19.47,19.47-14.6-2.72-1.15-7.66,12.59-4.3,2-4.5,1.5-.08v-2.32s6.23,5.49,10.19,5.15c4.19,.45,8.94-3.06,8.94-3.06Z">
</path>
<path class="cls-1" d="M41.38,23.53c1.31,0,2.61,.24,3.85,.7,.19,.54,.35,1.16,.48,1.86,.47,2.4,.4,4.87-.21,7.16-.05,.18-.04,.37,.01,.54,.75,2.48,.65,5.36-.32,9.06-.26,.97-.56,1.99-.99,2.95-.21,.46-.04,1.01,.4,1.27,.16,.1,.34,.14,.51,.14,.3,0,.6-.14,.8-.4,0,0,.01-.02,.02-.02-.34,2.18-.75,3.9-1.19,5.05-3.37,2.82-6.85,5.69-9.99,5.69h-.35c-3.13,0-6.61-2.86-9.98-5.68-.5-1.31-.89-3.16-1.18-5.05,.03,.03,.05,.06,.08,.09,.2,.22,.47,.33,.74,.33,.19,0,.38-.05,.55-.17,.41-.27,.56-.81,.35-1.26-.44-.95-.73-1.98-.99-2.94-.98-3.7-1.08-6.58-.32-9.06,.05-.18,.06-.37,.01-.55-.78-2.96-.69-6.25,.25-9.32,.25-.07,.5-.12,.76-.16-.61,1.36-.66,2.9-.04,4.18,0,.02,.02,.03,.03,.05,.89,1.63,2.43,2.58,3.78,3.42,.47,.29,.91,.57,1.34,.88l1.48,1c.17,.11,.37,.17,.56,.17,.25,0,.49-.09,.68-.27,.34-.32,.41-.83,.18-1.23-1.01-1.73-2.11-4.24-1.62-6.44,.13-.66,.75-1.01,1.3-1.01,.26,0,.64,.08,.93,.43,.11,.15,.23,.25,.32,.31,.24,.21,.55,.33,.87,.33,.26,0,.52-.08,.71-.21,1.93-1.21,4.07-1.85,6.19-1.85m0-1c-2.27,0-4.58,.65-6.73,2-.06,.04-.12,.06-.18,.06-.1,0-.19-.05-.25-.12-.05-.03-.1-.06-.14-.12-.45-.57-1.09-.83-1.73-.83-1.03,0-2.06,.68-2.28,1.82-.54,2.41,.54,5.09,1.74,7.14l-1.48-1c-1.64-1.18-3.77-2.05-4.81-3.95-.76-1.59-.19-3.55,1.05-4.76-.32-.04-.63-.06-.95-.06-.86,0-1.71,.15-2.51,.43-1.11,3.3-1.31,6.99-.42,10.37-.96,3.13-.52,6.48,.31,9.61,.28,1.05,.58,2.1,1.05,3.11-.76-.84-1.25-1.86-1.72-2.88-.3-.71-.55-1.45-.76-2.21,.28,3.37,.88,8.6,2.01,11.33,3.61,3.02,7.29,6.08,10.82,6.08h.35c3.56,0,7.25-3.09,10.82-6.08,1.12-2.69,1.72-7.8,2.01-11.18-.52,1.8-1.37,3.49-2.47,4.94,.46-1.01,.77-2.06,1.05-3.11,.82-3.13,1.26-6.48,.31-9.61,.65-2.47,.71-5.1,.22-7.61-.16-.82-.38-1.67-.68-2.42h0c-1.48-.63-3.05-.95-4.63-.95h0Z">
</path>
<path d="M34.08,24.35c-1.18-1.49-3.65-.85-4,.99-.54,2.41,.54,5.09,1.73,7.14,0,0-1.48-1-1.48-1-1.64-1.17-3.76-2.05-4.81-3.95-.97-2.03,.21-4.71,2.23-5.57,1.34-.55,2.85-.45,4.06,.18-1.3-.36-2.71-.27-3.82,.33-1.6,.81-2.55,3.07-1.76,4.71,1.01,1.68,2.98,2.44,4.59,3.56,0,0-.63,.61-.63,.61-1.03-2.27-1.97-5.66-.14-7.73,1.29-1.3,3.5-1.17,4.61,.29,.32,.39-.29,.86-.59,.46h0Z">
</path>
<path d="M27.09,22.84c-2.83-.58-5.94,.58-7.52,3.04,0,0-.81,1.17-.81,1.17-.62-4.07,.64-8.97,5.58-8.93,1.18,.05,2.3,.46,3.19,1.17-1.13-.1-2.17-.24-3.17-.16-3.34,.07-4.72,3.53-4.7,6.45,0,0-.91-.27-.91-.27,.95-1.3,2.25-2.38,3.79-2.9,1.53-.54,3.14-.62,4.73-.27,.19,.05,.32,.24,.27,.43-.05,.2-.25,.32-.45,.27h0Z">
</path>
<path d="M21.43,18.72c2.39-4.04,9.22-4.28,11.14,.24-.64-.85-1.5-1.46-2.43-1.81-2.78-1.19-6.04-.23-7.87,2.13-.37,.53-1.18-.02-.83-.56h0Z">
</path>
<path d="M34.26,23.92c4.95-3.35,11.9-2.9,16.21,1.3,0,0-.84,.35-.84,.35-.03-1.05-.17-2.08-.48-3.03-.6-1.92-2.17-3.38-4.23-3.43-1-.08-2.04,.06-3.17,.17,.88-.71,2-1.14,3.19-1.18,3.98-.21,6.17,3.99,5.69,7.51,0,0-.02,1.11-.02,1.11-4.28-4.59-10.62-5.54-15.96-2.19-.38,.25-.79-.36-.39-.61h0Z">
</path>
<path d="M47.03,19.28c-1.83-2.36-5.09-3.32-7.87-2.13-.93,.36-1.8,.96-2.43,1.81,.35-1.02,1.17-1.86,2.13-2.43,3.01-1.85,7.14-.8,9.01,2.19,.35,.54-.46,1.08-.83,.56h0Z">
</path>
<path class="cls-8" d="M41.73,16.07s-3.51-1.92-7.08-.78c-3.57-1.15-7.09,.78-7.09,.78">
</path>
<path class="cls-8" d="M19.36,24.87s-2.06,7.07,2.26,14.75">
</path>
<path d="M23.12,23.09c-1.12,3.31-1.32,7.03-.44,10.42-.95,3.13-.51,6.48,.31,9.61,.28,1.05,.59,2.1,1.05,3.11-.75-.84-1.25-1.86-1.72-2.88-1.3-3.13-1.91-6.73-.63-10.01,0,0-.01,.3-.01,.3-.68-2.69-.71-5.5-.2-8.22,.17-.91,.38-1.78,.7-2.69,.09-.26,.38-.4,.64-.3,.27,.09,.4,.4,.3,.66h0Z">
</path>
<path class="cls-8" d="M34.75,59.05h-.35c-3.76,0-7.53-3.17-11.23-6.27-1.84-4.29-2.32-14.76-2.32-14.76">
</path>
<path class="cls-8" d="M19.24,33.19s-1.76-.53-2.4,.85,.21,9.06,4.58,10.01">
</path>
<path class="cls-8" d="M49.79,24.87s2.06,7.07-2.26,14.75">
</path>
<path d="M46.95,23.12c1.24,3.36,1.39,7.05,.52,10.51,0,0-.01-.3-.01-.3,1.57,4.31,.35,9.34-2.35,12.89,.46-1.01,.77-2.06,1.05-3.11,.83-3.13,1.26-6.48,.31-9.61,.66-2.47,.72-5.1,.22-7.6-.16-.83-.38-1.67-.68-2.42-.23-.6,.69-.97,.93-.36h0Z">
</path>
<path class="cls-8" d="M34.4,59.05h.35c3.77,0,7.53-3.17,11.23-6.27,1.85-4.29,2.33-14.76,2.33-14.76">
</path>
<path class="cls-8" d="M49.91,33.19s1.76-.53,2.4,.85,0,9-4.38,9.96">
</path>
<path d="M23.56,35.15s2.64-1.58,3.99-1.69c2.49,.04,4.18,.92,4.18,.92l-.26,1.25s-3.59-1.1-4.14-1.1c-2.09,.4-3.77,.62-3.77,.62Z">
</path>
<path d="M30.62,37.38c-1.7-.54-3.84-.59-4.99,.96,0,0,.05-.32,.05-.32,.11,.26,.31,.76,.45,.99l-.26-.15c.99,.07,2.59,.04,3.25,0,.49-.18,1.05-.4,1.46-.7,1.86-.49-1.72,3.45-2.36,3.47-.73,.25-1.67,.01-2.02-.71,1.83,1.84,3.43-1.24,4.28-2.65,0,0,.53,.42,.53,.42-1.46,1.27-3.45,.98-5.23,.87-.23-.02-.32-.32-.39-.46-.09-.18-.25-.66-.33-.85-.04-.11-.02-.23,.06-.31,1.37-1.63,3.81-1.5,5.49-.55h0Z">
</path>
<path d="M45.62,35.15s-2.64-1.58-3.99-1.69c-2.49,.04-4.18,.92-4.18,.92l.26,1.25s3.59-1.1,4.14-1.1c2.09,.4,3.77,.62,3.77,.62Z">
</path>
<path d="M38.56,37.38c1.68-.96,4.13-1.08,5.49,.55,.08,.09,.09,.21,.06,.31-.08,.19-.24,.67-.33,.85-.07,.15-.18,.47-.42,.46-1.77,.11-3.74,.39-5.2-.87,0,0,.53-.42,.53-.42,.32,.57,.67,1.14,1.05,1.67,.73,1.12,2.09,2.28,3.22,.98-.35,.72-1.28,.96-2.02,.71-1.27-.64-2.1-1.86-2.86-3.02-.21-.33,.26-.7,.53-.42,.41,.28,.95,.5,1.42,.67,.66,.04,2.25,.07,3.25,0,0,0-.26,.15-.26,.15,.14-.23,.34-.73,.45-.99,0,0,.05,.32,.05,.32-1.15-1.55-3.29-1.5-4.99-.96h0Z">
</path>
<path d="M36.59,39.99c.2,1.13,.36,2.24,.48,3.35l-.13-.22,1.48,1.08c.17,.12,.2,.35,.08,.52-1.11,.9-2.36,1.58-3.65,2.18-.13,.06-.28,.05-.4,0-1.27-.57-2.46-1.26-3.57-2.1-.16-.12-.2-.35-.07-.51,.02-.03,.05-.06,.08-.08l1.49-1.09-.13,.22c.13-1.11,.28-2.23,.48-3.35,.09,1.13,.14,2.28,.16,3.43,0,.1-.06,.17-.13,.22l-1.27,1.15-.06-.63c1.08,.69,2.24,1.31,3.42,1.82h-.4c1.18-.51,2.34-1.14,3.42-1.82l-.05,.64-1.28-1.16c-.07-.05-.13-.13-.13-.22,.02-1.15,.07-2.29,.16-3.43h0Z">
</path>
<polyline class="cls-9" points="29.58 47.01 29.91 48.55 38.01 49.34 39.19 48.19">
</polyline>
<path class="cls-9" d="M30.21,46.42s-1.15,.49-1.64,1.67">
</path>
<path class="cls-9" d="M38.93,47.3s.92,1.15,.79,2.56">
</path>
<path d="M31.55,50.23c1.4,.59,3.14,.48,4.5,.43-1.3,1.19-3.44,1.05-4.53-.36-.03-.03-.01-.08,.03-.07h0Z">
</path>
<path d="M31.1,52.47c1.31-1.73,4.37-1.56,5.47,.32-1.9-.57-3.46-.68-5.47-.32h0Z">
</path>
<path d="M25.84,49.33l.66,5.58c.02,.21-.12,.39-.33,.42-.22,.03-.42-.15-.42-.38l.09-5.62h0Z">
</path>
<path d="M43.51,49.33l.09,5.62c0,.21-.16,.38-.37,.38-.23,0-.41-.2-.38-.42l.66-5.58h0Z">
</path>
<path class="cls-10" d="M45.27,53.65v5.25s-4.15,2.67-7.56,4.15c-.97,2.87-2.1,4.93-3.07,6.34-.97-1.41-2.09-3.47-3.06-6.34-3.42-1.48-7.57-4.15-7.57-4.15v-5.25">
</path>
<path class="cls-10" d="M23.66,55.73l-1.04,.2-1.93,4.35s-.1,4.5,7.37,9c1.09-3.86,3.52-6.23,3.52-6.23">
</path>
<path class="cls-10" d="M45.77,55.73l1.04,.2,1.93,4.35s.1,4.5-7.37,9c-1.09-3.86-3.52-6.23-3.52-6.23">
</path>
<line class="cls-10" x1="20.7" y1="60.28" x2="7.72" y2="64.64">
</line>
<line class="cls-10" x1="48.78" y1="60.28" x2="61.75" y2="64.64">
</line>
<path class="cls-4" d="M23.37,56.61c-.24,1.59-.68,3.14-1.18,4.66-2.82,1.2-5.73,2.19-8.75,2.77-.96,.22-1.95,.36-2.94,.44,0,0-.03-.09-.03-.09,3.6-1.2,7.62-2.69,11.04-3.71,0,0,1.77-4.11,1.77-4.11l.09,.04h0Z">
</path>
<polygon points="45.37 55.63 45.2 59.1 37.92 62.91 34.96 69.25 32.17 65.27 22.95 74.75 58.74 74.75 61.53 70.77 60.09 64.17 48.92 60.2 46.72 55.71 45.37 55.63">
</polygon>
<path class="cls-14" d="M49.49,61.09l12.49,4.03-3.9,7.64-22.48,2.4s11.57-6.2,13.89-14.07Z">
</path>
<path class="cls-2" d="M39.08,60.59c.21,0,5.05-4.62,5.05-4.62v2.28l-5.05,2.35Z">
</path>
<path d="M22.8,23.36s-2.55,0-3.83,2.41c-.85,7.66,2.27,12.55,2.27,12.55l.57-4.61s-.78-6.88,.99-10.35Z">
</path>
<path d="M46.55,23.36c-.08-.28,3.33,2.06,3.33,2.06,0,0,.99,8.01-1.84,12.48-.64-3.12-.92-4.68-.92-4.68,0,0,1.13-3.97-.57-9.86Z">
</path>
<path class="cls-2" d="M24.58,41.65s2.46,2.4,5.45-.06c-3.34,4.39-3.87,5.04-5.45,.06Z">
</path>
<path class="cls-14" d="M38.14,63.5l3.31,5.94s1.73-2.68-3.31-5.94Z">
</path>
<path class="cls-1" d="M18.39,33.75c-.71,.49-.58,1.19-.47,1.92,.54,2.33,1.43,4.56,2.11,6.91,0,0-.08,.07-.08,.07-1.07-1.32-1.85-2.86-2.37-4.47-.32-1.2-.73-2.56-.21-3.76,.18-.4,.56-.71,1.01-.77v.1h0Z">
</path>
</g>
</g>
 <g
     id="g2850">
    <g
       id="g2837">
      <path
         id="path1951"
         d="M 0.056640625 0.04296875 L 0.056640625 79.943359 L 69.308594 79.943359 L 69.308594 0.04296875 L 0.056640625 0.04296875 z M 33.615234 3.5957031 C 34.206332 3.5957038 34.786991 3.6051034 35.421875 3.6152344 C 44.430653 3.7671809 53.471255 5.1336733 61.560547 7.5546875 L 62.064453 7.7070312 L 62.25 8.1640625 C 66.070247 17.605006 66.990234 28.726438 66.990234 40.0625 C 66.990234 51.398562 65.972723 63.025755 61.988281 72.578125 L 61.791016 73.044922 L 61.275391 73.185547 C 53.273669 75.403966 44.691921 76.529297 35.759766 76.529297 C 35.212453 76.529297 34.675812 76.519896 34.150391 76.509766 L 33.943359 76.509766 C 24.901742 76.357819 15.860367 74.989738 7.7929688 72.558594 L 7.2890625 72.40625 L 7.1035156 71.951172 C 3.2942144 62.520359 2.375 51.369168 2.375 40.0625 C 2.375 28.755832 3.3819737 17.127318 7.3554688 7.5546875 L 7.5527344 7.0898438 L 8.0664062 6.9472656 C 15.509867 4.890923 23.785212 3.7371557 32.005859 3.6054688 C 32.542226 3.5953387 33.078867 3.5957031 33.615234 3.5957031 z "
         style="opacity:1;vector-effect:none;fill:#ffffff;fill-opacity:1;fill-rule:nonzero;stroke:none;stroke-width:1.95200002;stroke-linecap:butt;stroke-linejoin:miter;stroke-miterlimit:4;stroke-dasharray:none;stroke-dashoffset:0;stroke-opacity:1" />
    </g>
    <path
       id="path1154-8-2"
       d="m 33.675163,6.6112954 c 0.557696,0 1.115392,0.00956 1.683415,0.019115 8.427403,0.14336 16.803167,1.4049288 24.363042,3.6700176 3.573384,8.830981 4.443772,19.417362 4.443772,29.761551 0,10.344189 -0.95301,21.39888 -4.68131,30.334991 -7.435942,2.064385 -15.429581,3.274388 -23.774362,3.274388 -0.506058,0 -1.012115,-0.0096 -1.518172,-0.01911 h -0.17557 C 25.56792,73.508883 17.192156,72.088619 9.6426089,69.813973 6.0795528,61.002107 5.2088244,50.415411 5.2088244,40.061979 c 0,-10.353432 0.95335,-21.389323 4.6609939,-30.325434 C 16.820359,7.8155201 24.462856,6.7450981 32.177647,6.6208528 c 0.49573,-0.00956 1.001787,-0.00956 1.497516,-0.00956 m 0,-0.9557337 c -0.506057,0 -1.012114,0 -1.518171,0.00956 C 24.40089,5.7893644 16.593149,6.8789009 9.570315,8.8190405 L 9.0849131,8.9528432 8.8990146,9.3924808 C 5.1500599,18.424166 4.1999116,29.394246 4.1999116,40.061979 c 0,10.667733 0.8675267,21.188618 4.461566,30.0865 l 0.1755708,0.430081 0.4750741,0.14336 c 7.6115135,2.293761 16.1421925,3.584001 24.6728715,3.727361 h 0.196227 c 0.495729,0.0096 1.001786,0.01911 1.518171,0.01911 8.427403,0 16.524318,-1.060864 24.073866,-3.153921 l 0.485403,-0.133802 0.185898,-0.439639 c 3.759282,-9.01257 4.719759,-19.983589 4.719759,-30.679055 0,-10.695466 -0.867528,-21.188618 -4.471894,-30.0960578 L 60.516853,9.5358409 60.041779,9.3924808 C 52.409609,7.108277 43.87893,5.8180364 35.379234,5.6746763 34.780227,5.6651187 34.232859,5.6555621 33.675163,5.6555615 Z"
       style="fill:#ff0000;stroke:#ffffff;stroke-width:1.84341729;stroke-miterlimit:4;stroke-dasharray:none" />
    <path
       id="path1154"
       d="m 33.614853,4.6077955 c 0.591098,0 1.182197,0.01013 1.784241,0.02026 8.932155,0.1519464 17.809578,1.4890758 25.822246,3.8898304 3.787408,9.3599041 4.709928,20.5803481 4.709928,31.5440931 0,10.963745 -1.01009,22.680548 -4.961693,32.151879 -7.881312,2.18803 -16.353723,3.302304 -25.198307,3.302304 -0.536368,0 -1.072735,-0.01013 -1.609102,-0.02026 H 33.97608 C 25.022033,75.343956 16.14461,74.006827 8.1428892,71.595943 4.3664269,62.256298 3.443547,51.035521 3.443547,40.061979 c 0,-10.973542 1.01045,-22.670418 4.9401601,-32.1417498 7.3668369,-2.036083 15.4670749,-3.170617 23.6439369,-3.3023039 0.525421,-0.01013 1.061788,-0.01013 1.587209,-0.01013 m 0,-1.0129766 c -0.536367,0 -1.072734,0 -1.609101,0.01013 C 23.785105,3.7366356 15.509726,4.891429 8.0662653,6.9477716 L 7.5517907,7.0895883 7.3547579,7.5555576 C 3.3812628,17.128188 2.3742062,28.755311 2.3742062,40.061979 c 0,11.306668 0.9194864,22.457692 4.7287876,31.888505 l 0.1860865,0.45584 0.5035283,0.151947 c 8.0673984,2.431144 17.1090154,3.798662 26.1506324,3.950608 h 0.207979 c 0.525421,0.01013 1.061788,0.02026 1.609101,0.02026 8.932155,0 17.514028,-1.124404 25.51575,-3.342823 l 0.514475,-0.141816 0.197032,-0.46597 c 3.984442,-9.55237 5.002445,-21.180489 5.002445,-32.516551 0,-11.336062 -0.919487,-22.457692 -4.739734,-31.8986353 L 62.064202,7.7075041 61.560674,7.5555576 C 53.471382,5.1345434 44.429765,3.7670249 35.420987,3.6150784 c -0.634884,-0.01013 -1.215036,-0.020259 -1.806134,-0.02026 z"
       style="fill:#000000;stroke:#000000;stroke-width:1.95382714;stroke-miterlimit:4;stroke-dasharray:none" />
    <g
       id="g1810">
      <path
         d="M 6.5134911,7.7433673 C 5.6489029,6.8479453 4.058602,6.5681013 3.6272194,7.3820013 3.284151,8.0292783 3.3625296,8.5309135 4.395235,8.9201755 3.2963719,9.5187755 1.4857674,9.4447465 1.1893447,7.4467713 0.95320848,5.8551433 2.674739,4.8863543 3.1399725,5.0916244 3.0034432,3.6818714 1.8221094,4.0692802 0.95849208,3.2813384 0.34259068,2.7194046 0.23126071,-0.02624603 0.0561761,0.04378767 -0.0138576,0.21887227 2.7317937,0.33020157 3.2937267,0.94610377 4.0816685,1.8097211 3.6942598,2.9910547 5.1040128,3.1275841 4.8987425,2.6623507 5.8675315,0.94082017 7.4591593,1.1769564 9.4571345,1.4733791 9.5311625,3.2839847 8.9325635,4.3828467 8.5433008,3.3501417 8.041666,3.2717627 7.3943894,3.6148312 6.5804899,4.0462137 6.8603354,5.6365129 7.7557553,6.5011023"
         style="fill:#000000;stroke:#000000;stroke-width:0.1112323px;stroke-linecap:butt;stroke-linejoin:miter;stroke-opacity:1"
         id="path1737-3" />
      <path
         d="m 62.850738,7.7433673 c 0.864588,-0.895422 2.454889,-1.175266 2.886271,-0.361366 0.343069,0.647277 0.26469,1.148912 -0.768015,1.538174 1.098863,0.5986 2.909467,0.524571 3.20589,-1.473404 0.236136,-1.591628 -1.485394,-2.560417 -1.950628,-2.3551469 0.13653,-1.409753 1.317863,-1.0223442 2.181481,-1.810286 0.615901,-0.5619338 0.727231,-3.30758442 0.902316,-3.23755072 0.07003,0.1750846 -2.675618,0.2864139 -3.237551,0.9023161 C 65.28256,1.8097211 65.669969,2.9910547 64.260216,3.1275841 64.465486,2.6623507 63.496697,0.94082018 61.905069,1.1769564 c -1.997975,0.2964227 -2.072003,2.1070283 -1.473404,3.2058903 0.389263,-1.032705 0.890898,-1.111084 1.538174,-0.7680155 0.8139,0.4313825 0.534054,2.0216817 -0.361366,2.8862711"
         style="fill:#000000;stroke:#000000;stroke-width:0.1112323px;stroke-linecap:butt;stroke-linejoin:miter;stroke-opacity:1"
         id="path1737-3-5" />
      <path
         d="m 62.850738,72.244244 c 0.864588,0.895422 2.454889,1.175266 2.886272,0.361366 0.343068,-0.647277 0.264689,-1.148912 -0.768016,-1.538174 1.098863,-0.5986 2.909468,-0.524571 3.20589,1.473404 0.236137,1.591628 -1.485394,2.560417 -1.950628,2.355147 0.13653,1.409753 1.317864,1.022344 2.181481,1.810286 0.615901,0.561934 0.727231,3.307584 0.902316,3.237551 0.07003,-0.175085 -2.675618,-0.286414 -3.237551,-0.902317 -0.787942,-0.863617 -0.400533,-2.04495 -1.810286,-2.18148 0.20527,0.465234 -0.763519,2.186764 -2.355146,1.950628 -1.997976,-0.296423 -2.072004,-2.107028 -1.473405,-3.20589 0.389263,1.032705 0.890898,1.111084 1.538175,0.768015 0.813899,-0.431382 0.534054,-2.021682 -0.361366,-2.886271"
         style="fill:#000000;stroke:#000000;stroke-width:0.1112323px;stroke-linecap:butt;stroke-linejoin:miter;stroke-opacity:1"
         id="path1737-3-7" />
      <path
         d="M 6.513491,72.244245 C 5.648903,73.139667 4.058602,73.419511 3.62722,72.605611 3.284151,71.958334 3.36253,71.456699 4.395235,71.067437 c -1.098863,-0.5986 -2.909467,-0.524571 -3.20589,1.473404 -0.23613599,1.591628 1.485394,2.560417 1.950628,2.355147 -0.13653,1.409753 -1.317863,1.022344 -2.18148099,1.810286 -0.615901,0.561933 -0.727231,3.307584 -0.902316,3.23755 C -0.01385399,79.76874 2.731794,79.65741 3.293727,79.041508 4.081669,78.177891 3.69426,76.996557 5.104013,76.860028 4.898743,77.325261 5.867532,79.046792 7.45916,78.810656 9.457135,78.514233 9.531163,76.703627 8.932564,75.604765 8.543301,76.63747 8.041666,76.715849 7.39439,76.372781 6.58049,75.941398 6.860336,74.351099 7.755756,73.48651"
         style="fill:#000000;stroke:#000000;stroke-width:0.1112323px;stroke-linecap:butt;stroke-linejoin:miter;stroke-opacity:1"
         id="path1737-3-5-5" />
    </g>
    <path
       id="path1154-9"
       d="m 33.712865,7.4258691 c 0.536813,0 1.07363,0.00933 1.620386,0.01865 8.111875,0.1398689 16.174044,1.3707167 23.450873,3.5806479 3.439594,8.615932 4.277395,18.944521 4.277395,29.036812 0,10.092292 -0.917329,20.877786 -4.506039,29.596289 -7.157536,2.014114 -14.851888,3.03982 -22.884234,3.03982 -0.487111,0 -0.974221,-0.0094 -1.461331,-0.01865 H 34.040918 C 25.909161,72.53957 17.846991,71.308722 10.580105,69.089467 7.1504515,60.492184 6.3123238,50.163289 6.3123238,40.061979 c 0,-10.101311 0.9176558,-20.868461 4.4864832,-29.586965 6.690308,-1.8742449 14.046665,-2.9186005 21.472608,-3.0398203 0.47717,-0.00933 0.964281,-0.00933 1.44145,-0.00933 m 0,-0.9324602 c -0.487111,0 -0.974221,0 -1.46133,0.00933 C 24.785826,6.6239532 17.270413,7.686958 10.510517,9.5798526 L 10.043289,9.710397 9.8643508,10.139328 c -3.6085914,8.811751 -4.5231655,19.514693 -4.5231655,29.922651 0,10.407958 0.8350459,20.672644 4.294522,29.353849 l 0.1689973,0.419608 0.4572874,0.13987 c 7.326533,2.237904 15.537818,3.496724 23.749103,3.636593 h 0.188879 c 0.47717,0.0094 0.96428,0.01865 1.461331,0.01865 8.111875,0 15.905636,-1.035031 23.172525,-3.077119 l 0.467228,-0.130544 0.178938,-0.428932 c 3.618533,-8.793101 4.543048,-19.496959 4.543048,-29.931975 0,-10.435016 -0.835047,-20.672644 -4.304463,-29.363174 l -0.168997,-0.419609 -0.457288,-0.13987 C 51.74588,7.9107484 43.534594,6.6519271 35.353133,6.512058 34.776554,6.502738 34.249678,6.493409 33.712865,6.493409 Z"
       style="fill:#000000;stroke:none;stroke-width:1.78642213;stroke-miterlimit:4;stroke-dasharray:none" />
    <path
       id="path1154-9-3"
       d="m 33.712865,7.4258686 c 0.536813,0 1.07363,0.00933 1.620386,0.01865 8.111875,0.1398689 16.174044,1.3707167 23.450873,3.5806484 3.439594,8.615932 4.277395,18.944521 4.277395,29.036812 0,10.092292 -0.917329,20.877786 -4.506039,29.596288 -7.157536,2.014114 -14.851888,3.03982 -22.884234,3.03982 -0.487111,0 -0.974221,-0.0094 -1.461331,-0.01865 H 34.040918 C 25.909161,72.539569 17.846991,71.308722 10.580105,69.089466 7.1504515,60.492184 6.3123238,50.163288 6.3123238,40.061979 c 0,-10.101312 0.9176558,-20.868461 4.4864832,-29.586965 6.690308,-1.8742454 14.046665,-2.918601 21.472608,-3.0398208 0.47717,-0.00933 0.964281,-0.00933 1.44145,-0.00933 m 0,-0.9324602 c -0.487111,0 -0.974221,0 -1.46133,0.00933 C 24.785826,6.6239527 17.270413,7.6869575 10.510517,9.5798521 L 10.043289,9.7103965 9.8643508,10.139328 C 6.2557594,18.951079 5.3411853,29.65402 5.3411853,40.061979 c 0,10.407958 0.8350459,20.672643 4.294522,29.353849 l 0.1689973,0.419608 0.4572874,0.13987 c 7.326533,2.237904 15.537818,3.496724 23.749103,3.636593 h 0.188879 c 0.47717,0.0094 0.96428,0.01865 1.461331,0.01865 8.111875,0 15.905636,-1.035032 23.172525,-3.077119 l 0.467228,-0.130544 0.178938,-0.428932 c 3.618533,-8.793101 4.543048,-19.49696 4.543048,-29.931975 0,-10.435016 -0.835047,-20.672644 -4.304463,-29.363175 l -0.168997,-0.419609 -0.457288,-0.13987 C 51.74588,7.9107479 43.534594,6.6519266 35.353133,6.5120575 34.776554,6.5027375 34.249678,6.4934085 33.712865,6.4934085 Z"
       style="fill:#000000;stroke:none;stroke-width:1.78642213;stroke-miterlimit:4;stroke-dasharray:none" />
  </g>
</svg>
