<?xml version="1.0" encoding="UTF-8"?><svg id="Capa_2" xmlns="http://www.w3.org/2000/svg" xmlns:xlink="http://www.w3.org/1999/xlink" viewBox="0 0 69.02 80"><defs><style>.cls-1{fill:#c89aed;}.cls-2{fill:#f8ffbf;}.cls-3{fill:#7b7be8;}.cls-4{fill:#a88347;}.cls-5{fill:#782ab5;}.cls-6{stroke-miterlimit:10;}.cls-6,.cls-7,.cls-8,.cls-9,.cls-10,.cls-11,.cls-12{fill:none;}.cls-6,.cls-7,.cls-8,.cls-12{stroke:#000;}.cls-7{stroke-width:.96px;}.cls-7,.cls-8,.cls-9,.cls-12{stroke-linecap:round;stroke-linejoin:round;}.cls-9{stroke:#deb778;stroke-dasharray:0 0 0 4.06;}.cls-13{fill:#deb778;}.cls-14{fill:url(#USGS_19_Inundación_de_tierra_2);}.cls-11{stroke:#1d1d1b;stroke-dasharray:0 0 2 2;stroke-width:.3px;}.cls-15{fill:#fcf0c5;}.cls-16{fill:#b83521;}.cls-12{stroke-width:.97px;}</style><pattern id="USGS_19_Inundación_de_tierra_2" x="0" y="0" width="72" height="72" patternTransform="translate(195.52 -16207) rotate(-90)" patternUnits="userSpaceOnUse" viewBox="0 0 72 72"><g><rect class="cls-10" width="72" height="72"/><g><line class="cls-11" x1="71" y1="71" x2="144.44" y2="71"/><line class="cls-11" x1="71" y1="67" x2="144.44" y2="67"/><line class="cls-11" x1="71" y1="63" x2="144.44" y2="63"/><line class="cls-11" x1="71" y1="59" x2="144.44" y2="59"/><line class="cls-11" x1="71" y1="55" x2="144.44" y2="55"/><line class="cls-11" x1="71" y1="51" x2="144.44" y2="51"/><line class="cls-11" x1="71" y1="47" x2="144.44" y2="47"/><line class="cls-11" x1="71" y1="43" x2="144.44" y2="43"/><line class="cls-11" x1="71" y1="39" x2="144.44" y2="39"/><line class="cls-11" x1="71" y1="35" x2="144.44" y2="35"/><line class="cls-11" x1="71" y1="31" x2="144.44" y2="31"/><line class="cls-11" x1="71" y1="27" x2="144.44" y2="27"/><line class="cls-11" x1="71" y1="23" x2="144.44" y2="23"/><line class="cls-11" x1="71" y1="19" x2="144.44" y2="19"/><line class="cls-11" x1="71" y1="15" x2="144.44" y2="15"/><line class="cls-11" x1="71" y1="11" x2="144.44" y2="11"/><line class="cls-11" x1="71" y1="7" x2="144.44" y2="7"/><line class="cls-11" x1="71" y1="3" x2="144.44" y2="3"/></g><g><line class="cls-11" x1="-1" y1="71" x2="72.44" y2="71"/><line class="cls-11" x1="-1" y1="67" x2="72.44" y2="67"/><line class="cls-11" x1="-1" y1="63" x2="72.44" y2="63"/><line class="cls-11" x1="-1" y1="59" x2="72.44" y2="59"/><line class="cls-11" x1="-1" y1="55" x2="72.44" y2="55"/><line class="cls-11" x1="-1" y1="51" x2="72.44" y2="51"/><line class="cls-11" x1="-1" y1="47" x2="72.44" y2="47"/><line class="cls-11" x1="-1" y1="43" x2="72.44" y2="43"/><line class="cls-11" x1="-1" y1="39" x2="72.44" y2="39"/><line class="cls-11" x1="-1" y1="35" x2="72.44" y2="35"/><line class="cls-11" x1="-1" y1="31" x2="72.44" y2="31"/><line class="cls-11" x1="-1" y1="27" x2="72.44" y2="27"/><line class="cls-11" x1="-1" y1="23" x2="72.44" y2="23"/><line class="cls-11" x1="-1" y1="19" x2="72.44" y2="19"/><line class="cls-11" x1="-1" y1="15" x2="72.44" y2="15"/><line class="cls-11" x1="-1" y1="11" x2="72.44" y2="11"/><line class="cls-11" x1="-1" y1="7" x2="72.44" y2="7"/><line class="cls-11" x1="-1" y1="3" x2="72.44" y2="3"/><line class="cls-11" x1="1.04" y1="69" x2="74.48" y2="69"/><line class="cls-11" x1="1.04" y1="65" x2="74.48" y2="65"/><line class="cls-11" x1="1.04" y1="61" x2="74.48" y2="61"/><line class="cls-11" x1="1.04" y1="57" x2="74.48" y2="57"/><line class="cls-11" x1="1.04" y1="53" x2="74.48" y2="53"/><line class="cls-11" x1="1.04" y1="49" x2="74.48" y2="49"/><line class="cls-11" x1="1.04" y1="45" x2="74.48" y2="45"/><line class="cls-11" x1="1.04" y1="41" x2="74.48" y2="41"/><line class="cls-11" x1="1.04" y1="37" x2="74.48" y2="37"/><line class="cls-11" x1="1.04" y1="33" x2="74.48" y2="33"/><line class="cls-11" x1="1.04" y1="29" x2="74.48" y2="29"/><line class="cls-11" x1="1.04" y1="25" x2="74.48" y2="25"/><line class="cls-11" x1="1.04" y1="21" x2="74.48" y2="21"/><line class="cls-11" x1="1.04" y1="17" x2="74.48" y2="17"/><line class="cls-11" x1="1.04" y1="13" x2="74.48" y2="13"/><line class="cls-11" x1="1.04" y1="9" x2="74.48" y2="9"/><line class="cls-11" x1="1.04" y1="5" x2="74.48" y2="5"/><line class="cls-11" x1="1.04" y1="1" x2="74.48" y2="1"/></g><g><line class="cls-11" x1="-73" y1="71" x2=".44" y2="71"/><line class="cls-11" x1="-73" y1="67" x2=".44" y2="67"/><line class="cls-11" x1="-73" y1="63" x2=".44" y2="63"/><line class="cls-11" x1="-73" y1="59" x2=".44" y2="59"/><line class="cls-11" x1="-73" y1="55" x2=".44" y2="55"/><line class="cls-11" x1="-73" y1="51" x2=".44" y2="51"/><line class="cls-11" x1="-73" y1="47" x2=".44" y2="47"/><line class="cls-11" x1="-73" y1="43" x2=".44" y2="43"/><line class="cls-11" x1="-73" y1="39" x2=".44" y2="39"/><line class="cls-11" x1="-73" y1="35" x2=".44" y2="35"/><line class="cls-11" x1="-73" y1="31" x2=".44" y2="31"/><line class="cls-11" x1="-73" y1="27" x2=".44" y2="27"/><line class="cls-11" x1="-73" y1="23" x2=".44" y2="23"/><line class="cls-11" x1="-73" y1="19" x2=".44" y2="19"/><line class="cls-11" x1="-73" y1="15" x2=".44" y2="15"/><line class="cls-11" x1="-73" y1="11" x2=".44" y2="11"/><line class="cls-11" x1="-73" y1="7" x2=".44" y2="7"/><line class="cls-11" x1="-73" y1="3" x2=".44" y2="3"/><line class="cls-11" x1="-70.96" y1="69" x2="2.48" y2="69"/><line class="cls-11" x1="-70.96" y1="65" x2="2.48" y2="65"/><line class="cls-11" x1="-70.96" y1="61" x2="2.48" y2="61"/><line class="cls-11" x1="-70.96" y1="57" x2="2.48" y2="57"/><line class="cls-11" x1="-70.96" y1="53" x2="2.48" y2="53"/><line class="cls-11" x1="-70.96" y1="49" x2="2.48" y2="49"/><line class="cls-11" x1="-70.96" y1="45" x2="2.48" y2="45"/><line class="cls-11" x1="-70.96" y1="41" x2="2.48" y2="41"/><line class="cls-11" x1="-70.96" y1="37" x2="2.48" y2="37"/><line class="cls-11" x1="-70.96" y1="33" x2="2.48" y2="33"/><line class="cls-11" x1="-70.96" y1="29" x2="2.48" y2="29"/><line class="cls-11" x1="-70.96" y1="25" x2="2.48" y2="25"/><line class="cls-11" x1="-70.96" y1="21" x2="2.48" y2="21"/><line class="cls-11" x1="-70.96" y1="17" x2="2.48" y2="17"/><line class="cls-11" x1="-70.96" y1="13" x2="2.48" y2="13"/><line class="cls-11" x1="-70.96" y1="9" x2="2.48" y2="9"/><line class="cls-11" x1="-70.96" y1="5" x2="2.48" y2="5"/><line class="cls-11" x1="-70.96" y1="1" x2="2.48" y2="1"/></g></g></pattern></defs><g id="BG"><g><path class="cls-5" d="M64.02,40c0,11.47-1.89,22.39-5.5,31.74-7.2,2.16-14.94,3.26-23.02,3.26-.49,0-.98-.01-1.47-.02h-.17c-8.18-.15-16.29-1.47-23.6-3.85-3.45-9.22-5.26-19.93-5.26-31.13s1.89-22.38,5.48-31.73c6.73-2.01,14.13-3.13,21.6-3.26,.48-.01,.97-.01,1.45-.01,.54,0,1.08,.01,1.63,.02,8.16,.15,16.27,1.47,23.59,3.84,3.46,9.24,5.27,19.95,5.27,31.14Z"/><path class="cls-14" d="M34.03,5.59V74.98h-.17c-8.18-.15-16.29-1.47-23.6-3.85-3.45-9.22-5.26-19.93-5.26-31.13s1.89-22.38,5.48-31.73c6.73-2.01,14.13-3.13,21.6-3.26,.65,.16,1.3,.36,1.95,.58Z"/></g></g><g id="Capa_10"><g><path class="cls-3" d="M63.85,62.4l-3.37,10.98-26.07,3.99-25.95-5.24-1.12-10.72,14.72-5.24,.25-6.74-1.25-1.87-.62-5.36-1.75-.25s-1.37-2.87-1.75-6.12c-.37-3.24,.25-4.24,.25-4.24l2.62-.87s0-.09-.02-.26v-.02c-.1-1.26-.48-6.4-.48-7.7,0-1.5,3-8.86,13.6-8.86s13.35,2.74,15.34,6.99c1.75,4.24,.38,9.73,.38,9.73l.26,.08,2.73,.79s-.12,8.11-1.87,10.85c-1.37,0-2-.25-2-.25l-.12,5.74-1.87,2,.5,6.61,17.59,5.98Z"/><path d="M22.06,56.17s-.68,6,6.21,7.93c7.19,1.93,12.36,.81,14.89-1.11s3.45-4.61,3.09-6.56c5.93,2.1,16.16,5.65,16.16,5.65l-1.62,12.06-26.85,4.66-25.33-5.88-1.28-11.5,14.72-5.24Z"/><path d="M48.63,30.6l.26,.08-.39,2.37-1.09-2.29-.3-9.36-1.59,.4s-4.09-.8-7.67-1.1c-3.59-.3-10.76,.1-13.25,.7-2.48,.6-3.18,0-3.18,0,0,0-.4,5.58-.4,7.37s-.7,4.28-.7,4.28l-.53-2.59v-.02c-.1-1.26-.48-6.4-.48-7.7,0-1.5,3-8.86,13.6-8.86s13.35,2.74,15.34,6.99c1.75,4.24,.38,9.73,.38,9.73Z"/><path class="cls-1" d="M34.38,58.57V20.18s7.47,1.06,8.52,1.14,4.14,.49,4.14,.49l.49,9.9,1.06,1.95-1.22,14.12-8.04,10.39-4.95,.41Z"/><path class="cls-2" d="M44.31,35.78s-1.54-1.25-3.36-1.31c-2.56,0-3.53,.17-3.53,.17l.28,1.65s4.27,1.03,6.61-.51Z"/><path class="cls-2" d="M24.12,35.89s1.54-1.25,3.36-1.31c2.56,0,3.53,.17,3.53,.17l-.28,1.65s-4.27,1.03-6.61-.51Z"/><path d="M19.81,30.72s-2.39,.15-2.89,2.14,1.14,8.48,1.77,9.09c1.38,.28,1.75,.25,1.75,.25l-.63-11.48Z"/><path class="cls-3" d="M37.41,34.64l-1.54-2.08,5.97-1.79s3.18,.5,3.74,1.06c-.45,2.9-1,3.91-1,3.91,0,0-1.49-1.92-7.16-1.1Z"/><path class="cls-1" d="M23.71,39.17s3.42,.81,5.62,.49c-2.93,4.32-4.4,3.67-5.62-.49Z"/><path class="cls-1" d="M44.61,53.66l-7.63,9.49s5.97-.39,7.24-4.4c.78-3.43,.39-5.09,.39-5.09Z"/><path d="M39.33,58.17l-6.82,8.87-14.66-1.16,4.21-9.71,.21-6.36,6.52,8.15s6.78,1.23,10.55,.21Z"/><path class="cls-16" d="M43.07,53.32s-1.02-1.31-2.28-1.95c.8,1.86,.97,3.38,.97,3.38l1.31-1.44Z"/><path class="cls-16" d="M42.81,42.75s3.06-1.72,5.29-5.48c-.13,1.97-.19,2.42-.19,2.42,0,0-1.34,2.42-5.09,3.06Z"/><path class="cls-8" d="M19.81,31.07s-1.29-.51-2.64,.62c-1.12,3.93,.79,9.44,1.63,10.34,.73,.34,1.63,.22,1.63,.22"/><path class="cls-8" d="M48.53,31.07s1.29-.51,2.64,.62c1.12,3.93-.79,9.44-1.63,10.34-.73,.34-1.63,.22-1.63,.22"/><path class="cls-12" d="M48.96,24.82l-1.6,23.01-8,10.35c-4.23,.82-8.07,.47-10.28,.12l-8.1-10.47-1.58-22.97c-.18-2.63,.81-5.2,2.73-7,2.36-2.21,5.94-4.11,11.3-4.11h1.54c5.3,0,8.86,1.85,11.22,4.03,1.95,1.8,2.95,4.4,2.77,7.04Z"/><path class="cls-7" d="M48.2,33.11c-.63-.93-.92-2.37-.85-5.32s-.42-6.4-.42-6.4c0,0-.98,.77-2.25,.33-3.24-.86-9.74-1.34-9.74-1.34h-1.5s-6.49,.48-9.74,1.34c-1.27,.43-2.25-.33-2.25-.33,0,0-.49,3.45-.42,6.4s-.21,4.39-.85,5.32"/><path d="M42.63,27.11c-.54-.37-1.23-.9-1.87-.87-.74,.06-1.47,.11-2.21,.14-2.95,.14-5.9,.14-8.85,0-1.07,.05-2.15-.42-3.15,.14-1,.64-1.09,.66-.14-.21,.3-.23,.61-.48,1.08-.54,2.21-.18,4.42-.24,6.64-.25,2.21,0,4.43,.07,6.64,.25,.85,.15,1.35,.74,1.87,1.34h0Z"/><path d="M22.48,31.91s2.27-1.77,3.93-1.96c2.93,.96,6.05,2.62,6.05,2.62,0,0-.85,.92-1.93,1s-4.2-2.23-4.2-2.23c0,0-2-.08-3.85,.58Z"/><path d="M45.68,31.91s-2.27-1.77-3.93-1.96c-2.93,.96-6.05,2.62-6.05,2.62,0,0,.85,.92,1.93,1s4.2-2.23,4.2-2.23c0,0,2-.08,3.85,.58Z"/><path d="M31.02,34.68c-2.36,.07-4.93-.2-6.78,1.35,0,0-.03-.59-.03-.59,.92,.48,2.09,.68,3.14,.74,1.13,.06,2.25-.07,3.37-.26,.15-.02,.3,.08,.32,.24-.03,.42-.12,.82-.3,1.21-.54,.45-1.25,.64-1.9,.8-.63,.13-1.28,.18-1.91,.11,1.11,0,2.84-.79,3.38-1.14,.09-.29,.13-.65,.15-.96l.36,.32c-2.28,.59-4.84,.69-6.99-.45-.17-.09-.23-.31-.13-.47,2.02-1.76,4.89-1.29,7.32-.9h0Z"/><path d="M37.44,34.68c2.41-.4,5.13-.82,7.22,.78,.16,.11,.19,.33,.08,.48-2.1,1.3-4.8,1.12-7.1,.55,0,0,.36-.32,.36-.32,.02,.31,.06,.67,.15,.96,.54,.34,2.27,1.14,3.38,1.14-.63,.07-1.28,.02-1.91-.11-.65-.15-1.36-.35-1.9-.8-.17-.37-.23-.74-.3-1.13-.03-.19,.14-.35,.32-.32,1.65,.3,3.36,.41,5.01,.05,.53-.12,1.08-.29,1.51-.52l-.03,.59c-1.86-1.55-4.43-1.28-6.78-1.35h0Z"/><path d="M36.91,40.29c.99,.5,1.36,1.76,1.33,2.81,0,.15-.11,.28-.26,.31-.48,.08-1.01,.19-1.46,.33l.25-.2-.62,1.16c-.08,.16-.25,.24-.41,.24-1.11,.02-2.21,.02-3.32,0-.17,0-.31-.1-.39-.24l-.62-1.16,.25,.2c-.44-.14-.98-.25-1.46-.33-.15-.03-.26-.16-.26-.31,0-.55,.06-1.11,.29-1.62,.22-.5,.56-.97,1.05-1.19-.73,.74-.8,1.79-.64,2.75l-.31-.31c.55,.03,1.04,.05,1.59,.19,.22-.02,.72,1,.95,1.31,0,0-.41-.24-.41-.24,1.1-.02,2.19-.02,3.29,0l-.41,.24,.7-1.11,.02-.03c.43-.39,1.27-.27,1.82-.35,0,0-.31,.31-.31,.31,.15-.96,.08-2.01-.64-2.75h0Z"/><path d="M40.85,48.67c-1.95,1.52-4.54,1.18-6.86,1.27-2.32-.09-4.91,.25-6.86-1.27,2.24,.75,4.55,.2,6.86,.27,2.31-.07,4.63,.49,6.86-.27h0Z"/><path d="M38.27,50.93c-.14,.39-.31,.79-.75,1.06-1.2,.19-2.41,.26-3.61,.27-1.2,0-2.41-.08-3.61-.26-.44-.27-.61-.68-.75-1.06,.3,.26,.63,.54,.92,.6,.67-.22,2.41-.25,3.44-.27,1.03,.02,2.77,.06,3.44,.27,.29-.06,.62-.34,.92-.6h0Z"/><path d="M38.2,54.05c-.46-.21-.96-.54-1.44-.55-.88,.12-1.84,.16-2.74,.17-.89,0-1.86-.05-2.74-.17-.1-.02-.27,.03-.43,.09-.33,.12-.66,.29-1.01,.46,.34-.51,.71-1,1.36-1.2,1.69-.23,3.35-.23,5.04-.07,.85-.04,1.55,.58,1.95,1.27h0Z"/><path d="M39.38,49.28s-1.46-1.46-4.77-1.46h-1.44c-3.3,0-4.77,1.46-4.77,1.46,0,0,3.56,.23,5.6,.23s5.37-.23,5.37-.23Z"/><line class="cls-12" x1="22.15" y1="56.34" x2="5.98" y2="61.98"/><line class="cls-12" x1="46.21" y1="56.34" x2="62.38" y2="61.98"/><path class="cls-12" d="M22.21,49.7v6.79c0,3.15,1.84,6.06,4.76,7.23,2.15,.86,4.75,1.37,7.56,1.37,2.21,0,4.3-.31,6.13-.86,3.28-.99,5.48-4.07,5.48-7.5v-7.02"/><path class="cls-16" d="M23.96,39.39c.96,2.69,2.37,5.02,3.89,7.44-2.51-1.44-4.29-4.51-3.89-7.44h0Z"/><path class="cls-3" d="M34.86,21.86s.06,0,.1,0c4.12,.34,7.49,.8,9.26,1.27,.4,.13,.81,.2,1.23,.2,.07,0,.13,0,.2,0,.12,1.18,.25,2.89,.21,4.42-.07,3.02,.2,4.73,.98,5.99l-.94,13.53-7.37,9.54c-1.46,.25-2.98,.37-4.54,.37-1.35,0-2.73-.09-4.1-.28l-7.46-9.64-.93-13.48c.8-1.27,1.08-2.99,1.01-6.04-.04-1.57,.09-3.29,.21-4.42,.07,0,.14,0,.21,0,.4,0,.81-.06,1.2-.19,2.98-.78,8.96-1.25,9.36-1.28h1.39m.04-1.01h-1.46s-6.45,.49-9.61,1.33c-.32,.11-.63,.15-.91,.15-.42,0-.79-.09-1.08-.2-.14,1.14-.38,3.53-.33,5.64,.07,2.94-.19,4.51-.93,5.6-.03,.04-.06,.07-.1,.1l.98,14.17,7.89,10.2c1.26,.19,2.85,.35,4.65,.35,1.57,0,3.3-.12,5.09-.46l7.79-10.09,.99-14.21s-.05-.03-.07-.06c-.74-1.09-1-2.66-.93-5.6,.05-2.11-.2-4.5-.34-5.64-.28,.11-.65,.2-1.07,.2-.29,0-.61-.04-.94-.16-3.13-.83-9.56-1.31-9.62-1.32h0Z"/><path class="cls-3" d="M23.36,53.01c.19,1.46,.28,2.91,.42,4.37l-.32,.14c-2.46,1.04-5.89,2.58-8.36,3.49,0,0-4.22,1.64-4.22,1.64-1.42,.51-2.73,1.31-4.53,.81,2.46-1.31,5.7-2.16,8.44-3.28,0,0,8.49-3.14,8.49-3.14-.1,.37,0-4.11-.03-4.03,0,0,.1,0,.1,0h0Z"/><path class="cls-3" d="M17.55,32.19c.69,2.15,.95,4.22,1.18,6.43,.06,.73,.12,1.45,.07,2.28l-.09,.04c-1.06-2.65-1.82-6.1-1.15-8.75h0Z"/></g></g><g id="Frame"><g><path class="cls-4" d="M62.56,4.88C54.4,1.94,45.12,.2,35.25,.02c-.57-.01-1.15-.02-1.72-.02C23.88,0,14.77,1.52,6.72,4.21,2.49,14.22,0,26.6,0,40s2.39,25.22,6.45,35.11c8.16,2.94,17.45,4.69,27.32,4.87,.58,.01,1.15,.02,1.73,.02,9.63,0,18.73-1.51,26.78-4.2,4.24-10.01,6.74-22.39,6.74-35.8s-2.4-25.24-6.46-35.12Zm-4.04,66.86c-7.2,2.16-14.94,3.26-23.02,3.26-.49,0-.98-.01-1.47-.02h-.17c-8.18-.15-16.29-1.47-23.6-3.85-3.45-9.22-5.26-19.93-5.26-31.13s1.89-22.38,5.48-31.73c6.73-2.01,14.13-3.13,21.6-3.26,.48-.01,.97-.01,1.45-.01,.54,0,1.08,.01,1.63,.02,8.16,.15,16.27,1.47,23.59,3.84,3.46,9.24,5.27,19.95,5.27,31.14s-1.89,22.39-5.5,31.74Z"/><path class="cls-13" d="M17.21,2.06h0c1.63,.63,2.06,2.75,.81,3.97l-1.26,1.22s8.35-2.37,18.84-1.69h0c-1-1.49-.45-3.52,1.14-4.34l1-.51S28.26-.43,17.21,2.06Z"/><path class="cls-15" d="M21.81,1.66s.7,2.18-.22,3.1c3.77-.41,7.98-.74,11.12-.74-.33-1.33,1.26-3.4,1.26-3.4,0,0-6.17-.26-12.16,1.03Z"/><path class="cls-13" d="M36.25,79.21h0c-1.52-.87-1.62-3.03-.2-4.04l1.43-1.02s-8.61,1.07-18.88-1.19h0c.76,1.63-.09,3.55-1.79,4.11l-1.07,.36s9.19,2.56,20.5,1.78Z"/><path class="cls-15" d="M19.28,77.8s1.76-1.83,1.3-3.09c4.43,.69,9.11,1.14,12.25,1.14-.33,1.33,.44,3.4,.44,3.4,0,0-8-.16-13.99-1.45Z"/><polygon points="47.48 1.77 47.48 6.73 54.49 8.44 54.49 2.62 47.48 1.77"/><line class="cls-6" x1="45.5" y1="1.23" x2="45.5" y2="6.29"/><line class="cls-6" x1="56.47" y1="3.67" x2="56.47" y2="8.73"/><polygon points="47.48 78.74 47.48 73.78 54.49 72.07 54.49 77.88 47.48 78.74"/><line class="cls-6" x1="45.5" y1="79.28" x2="45.5" y2="74.21"/><line class="cls-6" x1="56.47" y1="76.84" x2="56.47" y2="71.77"/><path d="M33.53,1c.56,0,1.14,0,1.7,.02,9.39,.17,18.33,1.74,26.57,4.65,4.07,10.08,6.22,21.94,6.22,34.33s-2.24,24.79-6.49,34.99c-8.12,2.66-16.87,4.01-26.03,4.01-.56,0-1.12,0-1.71-.02-9.25-.17-18.42-1.78-26.58-4.66C3.15,64.25,1,52.39,1,40S3.23,15.21,7.47,5.02C15.6,2.35,24.37,1,33.53,1m0-1C23.88,0,14.77,1.52,6.72,4.21,2.49,14.22,0,26.6,0,40s2.39,25.22,6.45,35.11c8.16,2.94,17.45,4.69,27.32,4.87,.58,.01,1.15,.02,1.73,.02,9.63,0,18.73-1.51,26.78-4.2,4.24-10.01,6.74-22.39,6.74-35.8s-2.4-25.24-6.46-35.12C54.4,1.94,45.12,.2,35.25,.02c-.57,0-1.15-.02-1.72-.02h0Z"/><path class="cls-13" d="M33.53,6c.52,0,1.04,0,1.61,.02,7.87,.14,15.75,1.4,22.84,3.64,3.3,9,5.04,19.47,5.04,30.34s-1.82,21.82-5.26,30.92c-6.98,2.04-14.47,3.08-22.26,3.08-.48,0-.97,0-1.47-.02h-.15c-7.89-.14-15.78-1.41-22.85-3.65-3.29-8.99-5.03-19.46-5.03-30.33s1.81-21.79,5.24-30.91c6.5-1.89,13.7-2.95,20.86-3.08,.47,0,.96,0,1.43,0m0-1c-.48,0-.97,0-1.45,.01-7.47,.13-14.87,1.25-21.6,3.26-3.59,9.35-5.48,20.26-5.48,31.73s1.81,21.91,5.26,31.13c7.31,2.38,15.42,3.7,23.6,3.85h.17c.49,.01,.98,.02,1.47,.02,8.08,0,15.82-1.1,23.02-3.26,3.61-9.35,5.5-20.27,5.5-31.74s-1.81-21.9-5.27-31.14c-7.32-2.37-15.43-3.69-23.59-3.84-.55,0-1.09-.02-1.63-.02h0Z"/><path class="cls-9" d="M8.14,7.1s-12.66,32.94,0,66.06"/><path class="cls-9" d="M60.88,7.58s12.66,32.94,0,66.06"/></g><path d="M33.53,5c.54,0,1.08,.01,1.63,.02,8.16,.15,16.27,1.47,23.59,3.84,3.46,9.24,5.27,19.95,5.27,31.14s-1.89,22.39-5.5,31.74c-7.2,2.16-14.94,3.26-23.02,3.26-.49,0-.98-.01-1.47-.02h-.17c-8.18-.15-16.29-1.47-23.6-3.85-3.45-9.22-5.26-19.93-5.26-31.13s1.89-22.38,5.48-31.73c6.73-2.01,14.13-3.13,21.6-3.26,.48-.01,.97-.01,1.45-.01m0-1c-.49,0-.98,0-1.47,.01-7.51,.13-15.07,1.27-21.87,3.3l-.47,.14-.18,.46c-3.63,9.45-5.55,20.55-5.55,32.09s1.84,22.17,5.32,31.48l.17,.45,.46,.15c7.37,2.4,15.63,3.75,23.89,3.9h.19c.48,.01,.97,.02,1.47,.02,8.16,0,16-1.11,23.31-3.3l.47-.14,.18-.46c3.64-9.43,5.57-20.53,5.57-32.1s-1.84-22.17-5.33-31.49l-.17-.45-.46-.15c-7.39-2.39-15.65-3.74-23.88-3.89-.58-.01-1.12-.02-1.65-.02h0Z"/></g></svg>