<svg id="Capa_2" xmlns="http://www.w3.org/2000/svg" xmlns:xlink="http://www.w3.org/1999/xlink" viewBox="0 0 69.02 80">
<defs >
<style >
.cls-1{fill:#c89aed;}.cls-2{fill:#f8ffbf;}.cls-3{fill:#7b7be8;}.cls-4{fill:#a88347;}.cls-5{fill:#782ab5;}.cls-6{stroke-miterlimit:10;}.cls-6,.cls-7,.cls-8,.cls-9,.cls-10,.cls-11,.cls-12{fill:none;}.cls-6,.cls-7,.cls-8,.cls-12{stroke:#000;}.cls-7{stroke-width:.96px;}.cls-7,.cls-8,.cls-9,.cls-12{stroke-linecap:round;stroke-linejoin:round;}.cls-9{stroke:#deb778;stroke-dasharray:0 0 0 4.06;}.cls-13{fill:#deb778;}.cls-14{fill:url(#USGS_19_Inundación_de_tierra_2);}.cls-11{stroke:#1d1d1b;stroke-dasharray:0 0 2 2;stroke-width:.3px;}.cls-15{fill:#fcf0c5;}.cls-16{fill:#b83521;}.cls-12{stroke-width:.97px;}
</style>
<pattern id="USGS_19_Inundación_de_tierra_2" x="0" y="0" width="72" height="72" patternTransform="translate(195.52 -16207) rotate(-90)" patternUnits="userSpaceOnUse" viewBox="0 0 72 72">
<g >
<rect class="cls-10" width="72" height="72">
</rect>
<g >
<line class="cls-11" x1="71" y1="71" x2="144.44" y2="71">
</line>
<line class="cls-11" x1="71" y1="67" x2="144.44" y2="67">
</line>
<line class="cls-11" x1="71" y1="63" x2="144.44" y2="63">
</line>
<line class="cls-11" x1="71" y1="59" x2="144.44" y2="59">
</line>
<line class="cls-11" x1="71" y1="55" x2="144.44" y2="55">
</line>
<line class="cls-11" x1="71" y1="51" x2="144.44" y2="51">
</line>
<line class="cls-11" x1="71" y1="47" x2="144.44" y2="47">
</line>
<line class="cls-11" x1="71" y1="43" x2="144.44" y2="43">
</line>
<line class="cls-11" x1="71" y1="39" x2="144.44" y2="39">
</line>
<line class="cls-11" x1="71" y1="35" x2="144.44" y2="35">
</line>
<line class="cls-11" x1="71" y1="31" x2="144.44" y2="31">
</line>
<line class="cls-11" x1="71" y1="27" x2="144.44" y2="27">
</line>
<line class="cls-11" x1="71" y1="23" x2="144.44" y2="23">
</line>
<line class="cls-11" x1="71" y1="19" x2="144.44" y2="19">
</line>
<line class="cls-11" x1="71" y1="15" x2="144.44" y2="15">
</line>
<line class="cls-11" x1="71" y1="11" x2="144.44" y2="11">
</line>
<line class="cls-11" x1="71" y1="7" x2="144.44" y2="7">
</line>
<line class="cls-11" x1="71" y1="3" x2="144.44" y2="3">
</line>
</g>
<g >
<line class="cls-11" x1="-1" y1="71" x2="72.44" y2="71">
</line>
<line class="cls-11" x1="-1" y1="67" x2="72.44" y2="67">
</line>
<line class="cls-11" x1="-1" y1="63" x2="72.44" y2="63">
</line>
<line class="cls-11" x1="-1" y1="59" x2="72.44" y2="59">
</line>
<line class="cls-11" x1="-1" y1="55" x2="72.44" y2="55">
</line>
<line class="cls-11" x1="-1" y1="51" x2="72.44" y2="51">
</line>
<line class="cls-11" x1="-1" y1="47" x2="72.44" y2="47">
</line>
<line class="cls-11" x1="-1" y1="43" x2="72.44" y2="43">
</line>
<line class="cls-11" x1="-1" y1="39" x2="72.44" y2="39">
</line>
<line class="cls-11" x1="-1" y1="35" x2="72.44" y2="35">
</line>
<line class="cls-11" x1="-1" y1="31" x2="72.44" y2="31">
</line>
<line class="cls-11" x1="-1" y1="27" x2="72.44" y2="27">
</line>
<line class="cls-11" x1="-1" y1="23" x2="72.44" y2="23">
</line>
<line class="cls-11" x1="-1" y1="19" x2="72.44" y2="19">
</line>
<line class="cls-11" x1="-1" y1="15" x2="72.44" y2="15">
</line>
<line class="cls-11" x1="-1" y1="11" x2="72.44" y2="11">
</line>
<line class="cls-11" x1="-1" y1="7" x2="72.44" y2="7">
</line>
<line class="cls-11" x1="-1" y1="3" x2="72.44" y2="3">
</line>
<line class="cls-11" x1="1.04" y1="69" x2="74.48" y2="69">
</line>
<line class="cls-11" x1="1.04" y1="65" x2="74.48" y2="65">
</line>
<line class="cls-11" x1="1.04" y1="61" x2="74.48" y2="61">
</line>
<line class="cls-11" x1="1.04" y1="57" x2="74.48" y2="57">
</line>
<line class="cls-11" x1="1.04" y1="53" x2="74.48" y2="53">
</line>
<line class="cls-11" x1="1.04" y1="49" x2="74.48" y2="49">
</line>
<line class="cls-11" x1="1.04" y1="45" x2="74.48" y2="45">
</line>
<line class="cls-11" x1="1.04" y1="41" x2="74.48" y2="41">
</line>
<line class="cls-11" x1="1.04" y1="37" x2="74.48" y2="37">
</line>
<line class="cls-11" x1="1.04" y1="33" x2="74.48" y2="33">
</line>
<line class="cls-11" x1="1.04" y1="29" x2="74.48" y2="29">
</line>
<line class="cls-11" x1="1.04" y1="25" x2="74.48" y2="25">
</line>
<line class="cls-11" x1="1.04" y1="21" x2="74.48" y2="21">
</line>
<line class="cls-11" x1="1.04" y1="17" x2="74.48" y2="17">
</line>
<line class="cls-11" x1="1.04" y1="13" x2="74.48" y2="13">
</line>
<line class="cls-11" x1="1.04" y1="9" x2="74.48" y2="9">
</line>
<line class="cls-11" x1="1.04" y1="5" x2="74.48" y2="5">
</line>
<line class="cls-11" x1="1.04" y1="1" x2="74.48" y2="1">
</line>
</g>
<g >
<line class="cls-11" x1="-73" y1="71" x2=".44" y2="71">
</line>
<line class="cls-11" x1="-73" y1="67" x2=".44" y2="67">
</line>
<line class="cls-11" x1="-73" y1="63" x2=".44" y2="63">
</line>
<line class="cls-11" x1="-73" y1="59" x2=".44" y2="59">
</line>
<line class="cls-11" x1="-73" y1="55" x2=".44" y2="55">
</line>
<line class="cls-11" x1="-73" y1="51" x2=".44" y2="51">
</line>
<line class="cls-11" x1="-73" y1="47" x2=".44" y2="47">
</line>
<line class="cls-11" x1="-73" y1="43" x2=".44" y2="43">
</line>
<line class="cls-11" x1="-73" y1="39" x2=".44" y2="39">
</line>
<line class="cls-11" x1="-73" y1="35" x2=".44" y2="35">
</line>
<line class="cls-11" x1="-73" y1="31" x2=".44" y2="31">
</line>
<line class="cls-11" x1="-73" y1="27" x2=".44" y2="27">
</line>
<line class="cls-11" x1="-73" y1="23" x2=".44" y2="23">
</line>
<line class="cls-11" x1="-73" y1="19" x2=".44" y2="19">
</line>
<line class="cls-11" x1="-73" y1="15" x2=".44" y2="15">
</line>
<line class="cls-11" x1="-73" y1="11" x2=".44" y2="11">
</line>
<line class="cls-11" x1="-73" y1="7" x2=".44" y2="7">
</line>
<line class="cls-11" x1="-73" y1="3" x2=".44" y2="3">
</line>
<line class="cls-11" x1="-70.96" y1="69" x2="2.48" y2="69">
</line>
<line class="cls-11" x1="-70.96" y1="65" x2="2.48" y2="65">
</line>
<line class="cls-11" x1="-70.96" y1="61" x2="2.48" y2="61">
</line>
<line class="cls-11" x1="-70.96" y1="57" x2="2.48" y2="57">
</line>
<line class="cls-11" x1="-70.96" y1="53" x2="2.48" y2="53">
</line>
<line class="cls-11" x1="-70.96" y1="49" x2="2.48" y2="49">
</line>
<line class="cls-11" x1="-70.96" y1="45" x2="2.48" y2="45">
</line>
<line class="cls-11" x1="-70.96" y1="41" x2="2.48" y2="41">
</line>
<line class="cls-11" x1="-70.96" y1="37" x2="2.48" y2="37">
</line>
<line class="cls-11" x1="-70.96" y1="33" x2="2.48" y2="33">
</line>
<line class="cls-11" x1="-70.96" y1="29" x2="2.48" y2="29">
</line>
<line class="cls-11" x1="-70.96" y1="25" x2="2.48" y2="25">
</line>
<line class="cls-11" x1="-70.96" y1="21" x2="2.48" y2="21">
</line>
<line class="cls-11" x1="-70.96" y1="17" x2="2.48" y2="17">
</line>
<line class="cls-11" x1="-70.96" y1="13" x2="2.48" y2="13">
</line>
<line class="cls-11" x1="-70.96" y1="9" x2="2.48" y2="9">
</line>
<line class="cls-11" x1="-70.96" y1="5" x2="2.48" y2="5">
</line>
<line class="cls-11" x1="-70.96" y1="1" x2="2.48" y2="1">
</line>
</g>
</g>
</pattern>
</defs>

<g id="Capa_10">
<g >
<path class="cls-3" d="M63.85,62.4l-3.37,10.98-26.07,3.99-25.95-5.24-1.12-10.72,14.72-5.24,.25-6.74-1.25-1.87-.62-5.36-1.75-.25s-1.37-2.87-1.75-6.12c-.37-3.24,.25-4.24,.25-4.24l2.62-.87s0-.09-.02-.26v-.02c-.1-1.26-.48-6.4-.48-7.7,0-1.5,3-8.86,13.6-8.86s13.35,2.74,15.34,6.99c1.75,4.24,.38,9.73,.38,9.73l.26,.08,2.73,.79s-.12,8.11-1.87,10.85c-1.37,0-2-.25-2-.25l-.12,5.74-1.87,2,.5,6.61,17.59,5.98Z">
</path>
<path d="M22.06,56.17s-.68,6,6.21,7.93c7.19,1.93,12.36,.81,14.89-1.11s3.45-4.61,3.09-6.56c5.93,2.1,16.16,5.65,16.16,5.65l-1.62,12.06-26.85,4.66-25.33-5.88-1.28-11.5,14.72-5.24Z">
</path>
<path d="M48.63,30.6l.26,.08-.39,2.37-1.09-2.29-.3-9.36-1.59,.4s-4.09-.8-7.67-1.1c-3.59-.3-10.76,.1-13.25,.7-2.48,.6-3.18,0-3.18,0,0,0-.4,5.58-.4,7.37s-.7,4.28-.7,4.28l-.53-2.59v-.02c-.1-1.26-.48-6.4-.48-7.7,0-1.5,3-8.86,13.6-8.86s13.35,2.74,15.34,6.99c1.75,4.24,.38,9.73,.38,9.73Z">
</path>
<path class="cls-1" d="M34.38,58.57V20.18s7.47,1.06,8.52,1.14,4.14,.49,4.14,.49l.49,9.9,1.06,1.95-1.22,14.12-8.04,10.39-4.95,.41Z">
</path>
<path class="cls-2" d="M44.31,35.78s-1.54-1.25-3.36-1.31c-2.56,0-3.53,.17-3.53,.17l.28,1.65s4.27,1.03,6.61-.51Z">
</path>
<path class="cls-2" d="M24.12,35.89s1.54-1.25,3.36-1.31c2.56,0,3.53,.17,3.53,.17l-.28,1.65s-4.27,1.03-6.61-.51Z">
</path>
<path d="M19.81,30.72s-2.39,.15-2.89,2.14,1.14,8.48,1.77,9.09c1.38,.28,1.75,.25,1.75,.25l-.63-11.48Z">
</path>
<path class="cls-3" d="M37.41,34.64l-1.54-2.08,5.97-1.79s3.18,.5,3.74,1.06c-.45,2.9-1,3.91-1,3.91,0,0-1.49-1.92-7.16-1.1Z">
</path>
<path class="cls-1" d="M23.71,39.17s3.42,.81,5.62,.49c-2.93,4.32-4.4,3.67-5.62-.49Z">
</path>
<path class="cls-1" d="M44.61,53.66l-7.63,9.49s5.97-.39,7.24-4.4c.78-3.43,.39-5.09,.39-5.09Z">
</path>
<path d="M39.33,58.17l-6.82,8.87-14.66-1.16,4.21-9.71,.21-6.36,6.52,8.15s6.78,1.23,10.55,.21Z">
</path>
<path class="cls-16" d="M43.07,53.32s-1.02-1.31-2.28-1.95c.8,1.86,.97,3.38,.97,3.38l1.31-1.44Z">
</path>
<path class="cls-16" d="M42.81,42.75s3.06-1.72,5.29-5.48c-.13,1.97-.19,2.42-.19,2.42,0,0-1.34,2.42-5.09,3.06Z">
</path>
<path class="cls-8" d="M19.81,31.07s-1.29-.51-2.64,.62c-1.12,3.93,.79,9.44,1.63,10.34,.73,.34,1.63,.22,1.63,.22">
</path>
<path class="cls-8" d="M48.53,31.07s1.29-.51,2.64,.62c1.12,3.93-.79,9.44-1.63,10.34-.73,.34-1.63,.22-1.63,.22">
</path>
<path class="cls-12" d="M48.96,24.82l-1.6,23.01-8,10.35c-4.23,.82-8.07,.47-10.28,.12l-8.1-10.47-1.58-22.97c-.18-2.63,.81-5.2,2.73-7,2.36-2.21,5.94-4.11,11.3-4.11h1.54c5.3,0,8.86,1.85,11.22,4.03,1.95,1.8,2.95,4.4,2.77,7.04Z">
</path>
<path class="cls-7" d="M48.2,33.11c-.63-.93-.92-2.37-.85-5.32s-.42-6.4-.42-6.4c0,0-.98,.77-2.25,.33-3.24-.86-9.74-1.34-9.74-1.34h-1.5s-6.49,.48-9.74,1.34c-1.27,.43-2.25-.33-2.25-.33,0,0-.49,3.45-.42,6.4s-.21,4.39-.85,5.32">
</path>
<path d="M42.63,27.11c-.54-.37-1.23-.9-1.87-.87-.74,.06-1.47,.11-2.21,.14-2.95,.14-5.9,.14-8.85,0-1.07,.05-2.15-.42-3.15,.14-1,.64-1.09,.66-.14-.21,.3-.23,.61-.48,1.08-.54,2.21-.18,4.42-.24,6.64-.25,2.21,0,4.43,.07,6.64,.25,.85,.15,1.35,.74,1.87,1.34h0Z">
</path>
<path d="M22.48,31.91s2.27-1.77,3.93-1.96c2.93,.96,6.05,2.62,6.05,2.62,0,0-.85,.92-1.93,1s-4.2-2.23-4.2-2.23c0,0-2-.08-3.85,.58Z">
</path>
<path d="M45.68,31.91s-2.27-1.77-3.93-1.96c-2.93,.96-6.05,2.62-6.05,2.62,0,0,.85,.92,1.93,1s4.2-2.23,4.2-2.23c0,0,2-.08,3.85,.58Z">
</path>
<path d="M31.02,34.68c-2.36,.07-4.93-.2-6.78,1.35,0,0-.03-.59-.03-.59,.92,.48,2.09,.68,3.14,.74,1.13,.06,2.25-.07,3.37-.26,.15-.02,.3,.08,.32,.24-.03,.42-.12,.82-.3,1.21-.54,.45-1.25,.64-1.9,.8-.63,.13-1.28,.18-1.91,.11,1.11,0,2.84-.79,3.38-1.14,.09-.29,.13-.65,.15-.96l.36,.32c-2.28,.59-4.84,.69-6.99-.45-.17-.09-.23-.31-.13-.47,2.02-1.76,4.89-1.29,7.32-.9h0Z">
</path>
<path d="M37.44,34.68c2.41-.4,5.13-.82,7.22,.78,.16,.11,.19,.33,.08,.48-2.1,1.3-4.8,1.12-7.1,.55,0,0,.36-.32,.36-.32,.02,.31,.06,.67,.15,.96,.54,.34,2.27,1.14,3.38,1.14-.63,.07-1.28,.02-1.91-.11-.65-.15-1.36-.35-1.9-.8-.17-.37-.23-.74-.3-1.13-.03-.19,.14-.35,.32-.32,1.65,.3,3.36,.41,5.01,.05,.53-.12,1.08-.29,1.51-.52l-.03,.59c-1.86-1.55-4.43-1.28-6.78-1.35h0Z">
</path>
<path d="M36.91,40.29c.99,.5,1.36,1.76,1.33,2.81,0,.15-.11,.28-.26,.31-.48,.08-1.01,.19-1.46,.33l.25-.2-.62,1.16c-.08,.16-.25,.24-.41,.24-1.11,.02-2.21,.02-3.32,0-.17,0-.31-.1-.39-.24l-.62-1.16,.25,.2c-.44-.14-.98-.25-1.46-.33-.15-.03-.26-.16-.26-.31,0-.55,.06-1.11,.29-1.62,.22-.5,.56-.97,1.05-1.19-.73,.74-.8,1.79-.64,2.75l-.31-.31c.55,.03,1.04,.05,1.59,.19,.22-.02,.72,1,.95,1.31,0,0-.41-.24-.41-.24,1.1-.02,2.19-.02,3.29,0l-.41,.24,.7-1.11,.02-.03c.43-.39,1.27-.27,1.82-.35,0,0-.31,.31-.31,.31,.15-.96,.08-2.01-.64-2.75h0Z">
</path>
<path d="M40.85,48.67c-1.95,1.52-4.54,1.18-6.86,1.27-2.32-.09-4.91,.25-6.86-1.27,2.24,.75,4.55,.2,6.86,.27,2.31-.07,4.63,.49,6.86-.27h0Z">
</path>
<path d="M38.27,50.93c-.14,.39-.31,.79-.75,1.06-1.2,.19-2.41,.26-3.61,.27-1.2,0-2.41-.08-3.61-.26-.44-.27-.61-.68-.75-1.06,.3,.26,.63,.54,.92,.6,.67-.22,2.41-.25,3.44-.27,1.03,.02,2.77,.06,3.44,.27,.29-.06,.62-.34,.92-.6h0Z">
</path>
<path d="M38.2,54.05c-.46-.21-.96-.54-1.44-.55-.88,.12-1.84,.16-2.74,.17-.89,0-1.86-.05-2.74-.17-.1-.02-.27,.03-.43,.09-.33,.12-.66,.29-1.01,.46,.34-.51,.71-1,1.36-1.2,1.69-.23,3.35-.23,5.04-.07,.85-.04,1.55,.58,1.95,1.27h0Z">
</path>
<path d="M39.38,49.28s-1.46-1.46-4.77-1.46h-1.44c-3.3,0-4.77,1.46-4.77,1.46,0,0,3.56,.23,5.6,.23s5.37-.23,5.37-.23Z">
</path>
<line class="cls-12" x1="22.15" y1="56.34" x2="5.98" y2="61.98">
</line>
<line class="cls-12" x1="46.21" y1="56.34" x2="62.38" y2="61.98">
</line>
<path class="cls-12" d="M22.21,49.7v6.79c0,3.15,1.84,6.06,4.76,7.23,2.15,.86,4.75,1.37,7.56,1.37,2.21,0,4.3-.31,6.13-.86,3.28-.99,5.48-4.07,5.48-7.5v-7.02">
</path>
<path class="cls-16" d="M23.96,39.39c.96,2.69,2.37,5.02,3.89,7.44-2.51-1.44-4.29-4.51-3.89-7.44h0Z">
</path>
<path class="cls-3" d="M34.86,21.86s.06,0,.1,0c4.12,.34,7.49,.8,9.26,1.27,.4,.13,.81,.2,1.23,.2,.07,0,.13,0,.2,0,.12,1.18,.25,2.89,.21,4.42-.07,3.02,.2,4.73,.98,5.99l-.94,13.53-7.37,9.54c-1.46,.25-2.98,.37-4.54,.37-1.35,0-2.73-.09-4.1-.28l-7.46-9.64-.93-13.48c.8-1.27,1.08-2.99,1.01-6.04-.04-1.57,.09-3.29,.21-4.42,.07,0,.14,0,.21,0,.4,0,.81-.06,1.2-.19,2.98-.78,8.96-1.25,9.36-1.28h1.39m.04-1.01h-1.46s-6.45,.49-9.61,1.33c-.32,.11-.63,.15-.91,.15-.42,0-.79-.09-1.08-.2-.14,1.14-.38,3.53-.33,5.64,.07,2.94-.19,4.51-.93,5.6-.03,.04-.06,.07-.1,.1l.98,14.17,7.89,10.2c1.26,.19,2.85,.35,4.65,.35,1.57,0,3.3-.12,5.09-.46l7.79-10.09,.99-14.21s-.05-.03-.07-.06c-.74-1.09-1-2.66-.93-5.6,.05-2.11-.2-4.5-.34-5.64-.28,.11-.65,.2-1.07,.2-.29,0-.61-.04-.94-.16-3.13-.83-9.56-1.31-9.62-1.32h0Z">
</path>
<path class="cls-3" d="M23.36,53.01c.19,1.46,.28,2.91,.42,4.37l-.32,.14c-2.46,1.04-5.89,2.58-8.36,3.49,0,0-4.22,1.64-4.22,1.64-1.42,.51-2.73,1.31-4.53,.81,2.46-1.31,5.7-2.16,8.44-3.28,0,0,8.49-3.14,8.49-3.14-.1,.37,0-4.11-.03-4.03,0,0,.1,0,.1,0h0Z">
</path>
<path class="cls-3" d="M17.55,32.19c.69,2.15,.95,4.22,1.18,6.43,.06,.73,.12,1.45,.07,2.28l-.09,.04c-1.06-2.65-1.82-6.1-1.15-8.75h0Z">
</path>
</g>
</g>
 <g
     id="g2850">
    <g
       id="g2837">
      <path
         id="path1951"
         d="M 0.056640625 0.04296875 L 0.056640625 79.943359 L 69.308594 79.943359 L 69.308594 0.04296875 L 0.056640625 0.04296875 z M 33.615234 3.5957031 C 34.206332 3.5957038 34.786991 3.6051034 35.421875 3.6152344 C 44.430653 3.7671809 53.471255 5.1336733 61.560547 7.5546875 L 62.064453 7.7070312 L 62.25 8.1640625 C 66.070247 17.605006 66.990234 28.726438 66.990234 40.0625 C 66.990234 51.398562 65.972723 63.025755 61.988281 72.578125 L 61.791016 73.044922 L 61.275391 73.185547 C 53.273669 75.403966 44.691921 76.529297 35.759766 76.529297 C 35.212453 76.529297 34.675812 76.519896 34.150391 76.509766 L 33.943359 76.509766 C 24.901742 76.357819 15.860367 74.989738 7.7929688 72.558594 L 7.2890625 72.40625 L 7.1035156 71.951172 C 3.2942144 62.520359 2.375 51.369168 2.375 40.0625 C 2.375 28.755832 3.3819737 17.127318 7.3554688 7.5546875 L 7.5527344 7.0898438 L 8.0664062 6.9472656 C 15.509867 4.890923 23.785212 3.7371557 32.005859 3.6054688 C 32.542226 3.5953387 33.078867 3.5957031 33.615234 3.5957031 z "
         style="opacity:1;vector-effect:none;fill:#ffffff;fill-opacity:1;fill-rule:nonzero;stroke:none;stroke-width:1.95200002;stroke-linecap:butt;stroke-linejoin:miter;stroke-miterlimit:4;stroke-dasharray:none;stroke-dashoffset:0;stroke-opacity:1" />
    </g>
    <path
       id="path1154-8-2"
       d="m 33.675163,6.6112954 c 0.557696,0 1.115392,0.00956 1.683415,0.019115 8.427403,0.14336 16.803167,1.4049288 24.363042,3.6700176 3.573384,8.830981 4.443772,19.417362 4.443772,29.761551 0,10.344189 -0.95301,21.39888 -4.68131,30.334991 -7.435942,2.064385 -15.429581,3.274388 -23.774362,3.274388 -0.506058,0 -1.012115,-0.0096 -1.518172,-0.01911 h -0.17557 C 25.56792,73.508883 17.192156,72.088619 9.6426089,69.813973 6.0795528,61.002107 5.2088244,50.415411 5.2088244,40.061979 c 0,-10.353432 0.95335,-21.389323 4.6609939,-30.325434 C 16.820359,7.8155201 24.462856,6.7450981 32.177647,6.6208528 c 0.49573,-0.00956 1.001787,-0.00956 1.497516,-0.00956 m 0,-0.9557337 c -0.506057,0 -1.012114,0 -1.518171,0.00956 C 24.40089,5.7893644 16.593149,6.8789009 9.570315,8.8190405 L 9.0849131,8.9528432 8.8990146,9.3924808 C 5.1500599,18.424166 4.1999116,29.394246 4.1999116,40.061979 c 0,10.667733 0.8675267,21.188618 4.461566,30.0865 l 0.1755708,0.430081 0.4750741,0.14336 c 7.6115135,2.293761 16.1421925,3.584001 24.6728715,3.727361 h 0.196227 c 0.495729,0.0096 1.001786,0.01911 1.518171,0.01911 8.427403,0 16.524318,-1.060864 24.073866,-3.153921 l 0.485403,-0.133802 0.185898,-0.439639 c 3.759282,-9.01257 4.719759,-19.983589 4.719759,-30.679055 0,-10.695466 -0.867528,-21.188618 -4.471894,-30.0960578 L 60.516853,9.5358409 60.041779,9.3924808 C 52.409609,7.108277 43.87893,5.8180364 35.379234,5.6746763 34.780227,5.6651187 34.232859,5.6555621 33.675163,5.6555615 Z"
       style="fill:#ff0000;stroke:#ffffff;stroke-width:1.84341729;stroke-miterlimit:4;stroke-dasharray:none" />
    <path
       id="path1154"
       d="m 33.614853,4.6077955 c 0.591098,0 1.182197,0.01013 1.784241,0.02026 8.932155,0.1519464 17.809578,1.4890758 25.822246,3.8898304 3.787408,9.3599041 4.709928,20.5803481 4.709928,31.5440931 0,10.963745 -1.01009,22.680548 -4.961693,32.151879 -7.881312,2.18803 -16.353723,3.302304 -25.198307,3.302304 -0.536368,0 -1.072735,-0.01013 -1.609102,-0.02026 H 33.97608 C 25.022033,75.343956 16.14461,74.006827 8.1428892,71.595943 4.3664269,62.256298 3.443547,51.035521 3.443547,40.061979 c 0,-10.973542 1.01045,-22.670418 4.9401601,-32.1417498 7.3668369,-2.036083 15.4670749,-3.170617 23.6439369,-3.3023039 0.525421,-0.01013 1.061788,-0.01013 1.587209,-0.01013 m 0,-1.0129766 c -0.536367,0 -1.072734,0 -1.609101,0.01013 C 23.785105,3.7366356 15.509726,4.891429 8.0662653,6.9477716 L 7.5517907,7.0895883 7.3547579,7.5555576 C 3.3812628,17.128188 2.3742062,28.755311 2.3742062,40.061979 c 0,11.306668 0.9194864,22.457692 4.7287876,31.888505 l 0.1860865,0.45584 0.5035283,0.151947 c 8.0673984,2.431144 17.1090154,3.798662 26.1506324,3.950608 h 0.207979 c 0.525421,0.01013 1.061788,0.02026 1.609101,0.02026 8.932155,0 17.514028,-1.124404 25.51575,-3.342823 l 0.514475,-0.141816 0.197032,-0.46597 c 3.984442,-9.55237 5.002445,-21.180489 5.002445,-32.516551 0,-11.336062 -0.919487,-22.457692 -4.739734,-31.8986353 L 62.064202,7.7075041 61.560674,7.5555576 C 53.471382,5.1345434 44.429765,3.7670249 35.420987,3.6150784 c -0.634884,-0.01013 -1.215036,-0.020259 -1.806134,-0.02026 z"
       style="fill:#000000;stroke:#000000;stroke-width:1.95382714;stroke-miterlimit:4;stroke-dasharray:none" />
    <g
       id="g1810">
      <path
         d="M 6.5134911,7.7433673 C 5.6489029,6.8479453 4.058602,6.5681013 3.6272194,7.3820013 3.284151,8.0292783 3.3625296,8.5309135 4.395235,8.9201755 3.2963719,9.5187755 1.4857674,9.4447465 1.1893447,7.4467713 0.95320848,5.8551433 2.674739,4.8863543 3.1399725,5.0916244 3.0034432,3.6818714 1.8221094,4.0692802 0.95849208,3.2813384 0.34259068,2.7194046 0.23126071,-0.02624603 0.0561761,0.04378767 -0.0138576,0.21887227 2.7317937,0.33020157 3.2937267,0.94610377 4.0816685,1.8097211 3.6942598,2.9910547 5.1040128,3.1275841 4.8987425,2.6623507 5.8675315,0.94082017 7.4591593,1.1769564 9.4571345,1.4733791 9.5311625,3.2839847 8.9325635,4.3828467 8.5433008,3.3501417 8.041666,3.2717627 7.3943894,3.6148312 6.5804899,4.0462137 6.8603354,5.6365129 7.7557553,6.5011023"
         style="fill:#000000;stroke:#000000;stroke-width:0.1112323px;stroke-linecap:butt;stroke-linejoin:miter;stroke-opacity:1"
         id="path1737-3" />
      <path
         d="m 62.850738,7.7433673 c 0.864588,-0.895422 2.454889,-1.175266 2.886271,-0.361366 0.343069,0.647277 0.26469,1.148912 -0.768015,1.538174 1.098863,0.5986 2.909467,0.524571 3.20589,-1.473404 0.236136,-1.591628 -1.485394,-2.560417 -1.950628,-2.3551469 0.13653,-1.409753 1.317863,-1.0223442 2.181481,-1.810286 0.615901,-0.5619338 0.727231,-3.30758442 0.902316,-3.23755072 0.07003,0.1750846 -2.675618,0.2864139 -3.237551,0.9023161 C 65.28256,1.8097211 65.669969,2.9910547 64.260216,3.1275841 64.465486,2.6623507 63.496697,0.94082018 61.905069,1.1769564 c -1.997975,0.2964227 -2.072003,2.1070283 -1.473404,3.2058903 0.389263,-1.032705 0.890898,-1.111084 1.538174,-0.7680155 0.8139,0.4313825 0.534054,2.0216817 -0.361366,2.8862711"
         style="fill:#000000;stroke:#000000;stroke-width:0.1112323px;stroke-linecap:butt;stroke-linejoin:miter;stroke-opacity:1"
         id="path1737-3-5" />
      <path
         d="m 62.850738,72.244244 c 0.864588,0.895422 2.454889,1.175266 2.886272,0.361366 0.343068,-0.647277 0.264689,-1.148912 -0.768016,-1.538174 1.098863,-0.5986 2.909468,-0.524571 3.20589,1.473404 0.236137,1.591628 -1.485394,2.560417 -1.950628,2.355147 0.13653,1.409753 1.317864,1.022344 2.181481,1.810286 0.615901,0.561934 0.727231,3.307584 0.902316,3.237551 0.07003,-0.175085 -2.675618,-0.286414 -3.237551,-0.902317 -0.787942,-0.863617 -0.400533,-2.04495 -1.810286,-2.18148 0.20527,0.465234 -0.763519,2.186764 -2.355146,1.950628 -1.997976,-0.296423 -2.072004,-2.107028 -1.473405,-3.20589 0.389263,1.032705 0.890898,1.111084 1.538175,0.768015 0.813899,-0.431382 0.534054,-2.021682 -0.361366,-2.886271"
         style="fill:#000000;stroke:#000000;stroke-width:0.1112323px;stroke-linecap:butt;stroke-linejoin:miter;stroke-opacity:1"
         id="path1737-3-7" />
      <path
         d="M 6.513491,72.244245 C 5.648903,73.139667 4.058602,73.419511 3.62722,72.605611 3.284151,71.958334 3.36253,71.456699 4.395235,71.067437 c -1.098863,-0.5986 -2.909467,-0.524571 -3.20589,1.473404 -0.23613599,1.591628 1.485394,2.560417 1.950628,2.355147 -0.13653,1.409753 -1.317863,1.022344 -2.18148099,1.810286 -0.615901,0.561933 -0.727231,3.307584 -0.902316,3.23755 C -0.01385399,79.76874 2.731794,79.65741 3.293727,79.041508 4.081669,78.177891 3.69426,76.996557 5.104013,76.860028 4.898743,77.325261 5.867532,79.046792 7.45916,78.810656 9.457135,78.514233 9.531163,76.703627 8.932564,75.604765 8.543301,76.63747 8.041666,76.715849 7.39439,76.372781 6.58049,75.941398 6.860336,74.351099 7.755756,73.48651"
         style="fill:#000000;stroke:#000000;stroke-width:0.1112323px;stroke-linecap:butt;stroke-linejoin:miter;stroke-opacity:1"
         id="path1737-3-5-5" />
    </g>
    <path
       id="path1154-9"
       d="m 33.712865,7.4258691 c 0.536813,0 1.07363,0.00933 1.620386,0.01865 8.111875,0.1398689 16.174044,1.3707167 23.450873,3.5806479 3.439594,8.615932 4.277395,18.944521 4.277395,29.036812 0,10.092292 -0.917329,20.877786 -4.506039,29.596289 -7.157536,2.014114 -14.851888,3.03982 -22.884234,3.03982 -0.487111,0 -0.974221,-0.0094 -1.461331,-0.01865 H 34.040918 C 25.909161,72.53957 17.846991,71.308722 10.580105,69.089467 7.1504515,60.492184 6.3123238,50.163289 6.3123238,40.061979 c 0,-10.101311 0.9176558,-20.868461 4.4864832,-29.586965 6.690308,-1.8742449 14.046665,-2.9186005 21.472608,-3.0398203 0.47717,-0.00933 0.964281,-0.00933 1.44145,-0.00933 m 0,-0.9324602 c -0.487111,0 -0.974221,0 -1.46133,0.00933 C 24.785826,6.6239532 17.270413,7.686958 10.510517,9.5798526 L 10.043289,9.710397 9.8643508,10.139328 c -3.6085914,8.811751 -4.5231655,19.514693 -4.5231655,29.922651 0,10.407958 0.8350459,20.672644 4.294522,29.353849 l 0.1689973,0.419608 0.4572874,0.13987 c 7.326533,2.237904 15.537818,3.496724 23.749103,3.636593 h 0.188879 c 0.47717,0.0094 0.96428,0.01865 1.461331,0.01865 8.111875,0 15.905636,-1.035031 23.172525,-3.077119 l 0.467228,-0.130544 0.178938,-0.428932 c 3.618533,-8.793101 4.543048,-19.496959 4.543048,-29.931975 0,-10.435016 -0.835047,-20.672644 -4.304463,-29.363174 l -0.168997,-0.419609 -0.457288,-0.13987 C 51.74588,7.9107484 43.534594,6.6519271 35.353133,6.512058 34.776554,6.502738 34.249678,6.493409 33.712865,6.493409 Z"
       style="fill:#000000;stroke:none;stroke-width:1.78642213;stroke-miterlimit:4;stroke-dasharray:none" />
    <path
       id="path1154-9-3"
       d="m 33.712865,7.4258686 c 0.536813,0 1.07363,0.00933 1.620386,0.01865 8.111875,0.1398689 16.174044,1.3707167 23.450873,3.5806484 3.439594,8.615932 4.277395,18.944521 4.277395,29.036812 0,10.092292 -0.917329,20.877786 -4.506039,29.596288 -7.157536,2.014114 -14.851888,3.03982 -22.884234,3.03982 -0.487111,0 -0.974221,-0.0094 -1.461331,-0.01865 H 34.040918 C 25.909161,72.539569 17.846991,71.308722 10.580105,69.089466 7.1504515,60.492184 6.3123238,50.163288 6.3123238,40.061979 c 0,-10.101312 0.9176558,-20.868461 4.4864832,-29.586965 6.690308,-1.8742454 14.046665,-2.918601 21.472608,-3.0398208 0.47717,-0.00933 0.964281,-0.00933 1.44145,-0.00933 m 0,-0.9324602 c -0.487111,0 -0.974221,0 -1.46133,0.00933 C 24.785826,6.6239527 17.270413,7.6869575 10.510517,9.5798521 L 10.043289,9.7103965 9.8643508,10.139328 C 6.2557594,18.951079 5.3411853,29.65402 5.3411853,40.061979 c 0,10.407958 0.8350459,20.672643 4.294522,29.353849 l 0.1689973,0.419608 0.4572874,0.13987 c 7.326533,2.237904 15.537818,3.496724 23.749103,3.636593 h 0.188879 c 0.47717,0.0094 0.96428,0.01865 1.461331,0.01865 8.111875,0 15.905636,-1.035032 23.172525,-3.077119 l 0.467228,-0.130544 0.178938,-0.428932 c 3.618533,-8.793101 4.543048,-19.49696 4.543048,-29.931975 0,-10.435016 -0.835047,-20.672644 -4.304463,-29.363175 l -0.168997,-0.419609 -0.457288,-0.13987 C 51.74588,7.9107479 43.534594,6.6519266 35.353133,6.5120575 34.776554,6.5027375 34.249678,6.4934085 33.712865,6.4934085 Z"
       style="fill:#000000;stroke:none;stroke-width:1.78642213;stroke-miterlimit:4;stroke-dasharray:none" />
  </g>
</svg>
