<svg id="Capa_2" xmlns="http://www.w3.org/2000/svg" xmlns:xlink="http://www.w3.org/1999/xlink" viewBox="0 0 69.02 80">
<defs >
<style >
.cls-1{fill:#000000;}.cls-2{fill:#000;}.cls-3{fill:#000000;}.cls-4{fill:#000000;}.cls-5{fill:#000000;}.cls-6{fill:#000000;}.cls-7,.cls-8{stroke-miterlimit:10;}.cls-7,.cls-8,.cls-9,.cls-10,.cls-11,.cls-12{fill:none;}.cls-7,.cls-8,.cls-12{stroke:#000;}.cls-8{stroke-width:.75px;}.cls-9{stroke:#000000;stroke-dasharray:0 0 0 4.06;}.cls-9,.cls-12{stroke-linecap:round;stroke-linejoin:round;}.cls-13{fill:#000000;}.cls-14{fill:url(#USGS_19_Inundación_de_tierra_2);}.cls-11{stroke:#000000;stroke-dasharray:0 0 2 2;stroke-width:.3px;}.cls-15{fill:#000000;}.cls-16{fill:#000000;}.cls-12{stroke-width:.97px;}
</style>
<pattern id="USGS_19_Inundación_de_tierra_2" x="0" y="0" width="72" height="72" patternTransform="translate(51.52 -16207) rotate(-90)" patternUnits="userSpaceOnUse" viewBox="0 0 72 72">
<g >
<rect class="cls-10" width="72" height="72">
</rect>
<g >
<line class="cls-11" x1="71" y1="71" x2="144.44" y2="71">
</line>
<line class="cls-11" x1="71" y1="67" x2="144.44" y2="67">
</line>
<line class="cls-11" x1="71" y1="63" x2="144.44" y2="63">
</line>
<line class="cls-11" x1="71" y1="59" x2="144.44" y2="59">
</line>
<line class="cls-11" x1="71" y1="55" x2="144.44" y2="55">
</line>
<line class="cls-11" x1="71" y1="51" x2="144.44" y2="51">
</line>
<line class="cls-11" x1="71" y1="47" x2="144.44" y2="47">
</line>
<line class="cls-11" x1="71" y1="43" x2="144.44" y2="43">
</line>
<line class="cls-11" x1="71" y1="39" x2="144.44" y2="39">
</line>
<line class="cls-11" x1="71" y1="35" x2="144.44" y2="35">
</line>
<line class="cls-11" x1="71" y1="31" x2="144.44" y2="31">
</line>
<line class="cls-11" x1="71" y1="27" x2="144.44" y2="27">
</line>
<line class="cls-11" x1="71" y1="23" x2="144.44" y2="23">
</line>
<line class="cls-11" x1="71" y1="19" x2="144.44" y2="19">
</line>
<line class="cls-11" x1="71" y1="15" x2="144.44" y2="15">
</line>
<line class="cls-11" x1="71" y1="11" x2="144.44" y2="11">
</line>
<line class="cls-11" x1="71" y1="7" x2="144.44" y2="7">
</line>
<line class="cls-11" x1="71" y1="3" x2="144.44" y2="3">
</line>
</g>
<g >
<line class="cls-11" x1="-1" y1="71" x2="72.44" y2="71">
</line>
<line class="cls-11" x1="-1" y1="67" x2="72.44" y2="67">
</line>
<line class="cls-11" x1="-1" y1="63" x2="72.44" y2="63">
</line>
<line class="cls-11" x1="-1" y1="59" x2="72.44" y2="59">
</line>
<line class="cls-11" x1="-1" y1="55" x2="72.44" y2="55">
</line>
<line class="cls-11" x1="-1" y1="51" x2="72.44" y2="51">
</line>
<line class="cls-11" x1="-1" y1="47" x2="72.44" y2="47">
</line>
<line class="cls-11" x1="-1" y1="43" x2="72.44" y2="43">
</line>
<line class="cls-11" x1="-1" y1="39" x2="72.44" y2="39">
</line>
<line class="cls-11" x1="-1" y1="35" x2="72.44" y2="35">
</line>
<line class="cls-11" x1="-1" y1="31" x2="72.44" y2="31">
</line>
<line class="cls-11" x1="-1" y1="27" x2="72.44" y2="27">
</line>
<line class="cls-11" x1="-1" y1="23" x2="72.44" y2="23">
</line>
<line class="cls-11" x1="-1" y1="19" x2="72.44" y2="19">
</line>
<line class="cls-11" x1="-1" y1="15" x2="72.44" y2="15">
</line>
<line class="cls-11" x1="-1" y1="11" x2="72.44" y2="11">
</line>
<line class="cls-11" x1="-1" y1="7" x2="72.44" y2="7">
</line>
<line class="cls-11" x1="-1" y1="3" x2="72.44" y2="3">
</line>
<line class="cls-11" x1="1.04" y1="69" x2="74.48" y2="69">
</line>
<line class="cls-11" x1="1.04" y1="65" x2="74.48" y2="65">
</line>
<line class="cls-11" x1="1.04" y1="61" x2="74.48" y2="61">
</line>
<line class="cls-11" x1="1.04" y1="57" x2="74.48" y2="57">
</line>
<line class="cls-11" x1="1.04" y1="53" x2="74.48" y2="53">
</line>
<line class="cls-11" x1="1.04" y1="49" x2="74.48" y2="49">
</line>
<line class="cls-11" x1="1.04" y1="45" x2="74.48" y2="45">
</line>
<line class="cls-11" x1="1.04" y1="41" x2="74.48" y2="41">
</line>
<line class="cls-11" x1="1.04" y1="37" x2="74.48" y2="37">
</line>
<line class="cls-11" x1="1.04" y1="33" x2="74.48" y2="33">
</line>
<line class="cls-11" x1="1.04" y1="29" x2="74.48" y2="29">
</line>
<line class="cls-11" x1="1.04" y1="25" x2="74.48" y2="25">
</line>
<line class="cls-11" x1="1.04" y1="21" x2="74.48" y2="21">
</line>
<line class="cls-11" x1="1.04" y1="17" x2="74.48" y2="17">
</line>
<line class="cls-11" x1="1.04" y1="13" x2="74.48" y2="13">
</line>
<line class="cls-11" x1="1.04" y1="9" x2="74.48" y2="9">
</line>
<line class="cls-11" x1="1.04" y1="5" x2="74.48" y2="5">
</line>
<line class="cls-11" x1="1.04" y1="1" x2="74.48" y2="1">
</line>
</g>
<g >
<line class="cls-11" x1="-73" y1="71" x2=".44" y2="71">
</line>
<line class="cls-11" x1="-73" y1="67" x2=".44" y2="67">
</line>
<line class="cls-11" x1="-73" y1="63" x2=".44" y2="63">
</line>
<line class="cls-11" x1="-73" y1="59" x2=".44" y2="59">
</line>
<line class="cls-11" x1="-73" y1="55" x2=".44" y2="55">
</line>
<line class="cls-11" x1="-73" y1="51" x2=".44" y2="51">
</line>
<line class="cls-11" x1="-73" y1="47" x2=".44" y2="47">
</line>
<line class="cls-11" x1="-73" y1="43" x2=".44" y2="43">
</line>
<line class="cls-11" x1="-73" y1="39" x2=".44" y2="39">
</line>
<line class="cls-11" x1="-73" y1="35" x2=".44" y2="35">
</line>
<line class="cls-11" x1="-73" y1="31" x2=".44" y2="31">
</line>
<line class="cls-11" x1="-73" y1="27" x2=".44" y2="27">
</line>
<line class="cls-11" x1="-73" y1="23" x2=".44" y2="23">
</line>
<line class="cls-11" x1="-73" y1="19" x2=".44" y2="19">
</line>
<line class="cls-11" x1="-73" y1="15" x2=".44" y2="15">
</line>
<line class="cls-11" x1="-73" y1="11" x2=".44" y2="11">
</line>
<line class="cls-11" x1="-73" y1="7" x2=".44" y2="7">
</line>
<line class="cls-11" x1="-73" y1="3" x2=".44" y2="3">
</line>
<line class="cls-11" x1="-70.96" y1="69" x2="2.48" y2="69">
</line>
<line class="cls-11" x1="-70.96" y1="65" x2="2.48" y2="65">
</line>
<line class="cls-11" x1="-70.96" y1="61" x2="2.48" y2="61">
</line>
<line class="cls-11" x1="-70.96" y1="57" x2="2.48" y2="57">
</line>
<line class="cls-11" x1="-70.96" y1="53" x2="2.48" y2="53">
</line>
<line class="cls-11" x1="-70.96" y1="49" x2="2.48" y2="49">
</line>
<line class="cls-11" x1="-70.96" y1="45" x2="2.48" y2="45">
</line>
<line class="cls-11" x1="-70.96" y1="41" x2="2.48" y2="41">
</line>
<line class="cls-11" x1="-70.96" y1="37" x2="2.48" y2="37">
</line>
<line class="cls-11" x1="-70.96" y1="33" x2="2.48" y2="33">
</line>
<line class="cls-11" x1="-70.96" y1="29" x2="2.48" y2="29">
</line>
<line class="cls-11" x1="-70.96" y1="25" x2="2.48" y2="25">
</line>
<line class="cls-11" x1="-70.96" y1="21" x2="2.48" y2="21">
</line>
<line class="cls-11" x1="-70.96" y1="17" x2="2.48" y2="17">
</line>
<line class="cls-11" x1="-70.96" y1="13" x2="2.48" y2="13">
</line>
<line class="cls-11" x1="-70.96" y1="9" x2="2.48" y2="9">
</line>
<line class="cls-11" x1="-70.96" y1="5" x2="2.48" y2="5">
</line>
<line class="cls-11" x1="-70.96" y1="1" x2="2.48" y2="1">
</line>
</g>
</g>
</pattern>
</defs>
  <path
     id="circle1849"
     style="fill:#AA00DD;stroke:#000000;stroke-width:2"
     d="M 34.875,3.84375 C 30.2026,3.8566827 25.91896,6.4477515 23.738281,10.580078 21.63936,9.1446679 19.156089,8.3761337 16.613281,8.375 9.636905,8.3755251 3.9818685,14.031436 3.9824219,21.007812 c 0.012178,4.019812 1.9368978,7.79383 5.1835937,10.164063 -1.8357739,2.246976 -2.8420262,5.057448 -2.8496094,7.958984 0.00713,1.935325 0.4588528,3.843134 1.3203126,5.576172 -2.4145566,2.364898 -3.7807042,5.598771 -3.7929688,8.978516 0.00466,4.996359 2.9538661,9.520462 7.523438,11.541015 0.767283,6.336372 6.140784,11.10481 12.523437,11.113282 3.186693,-0.0091 6.252191,-1.222333 8.582031,-3.396485 1.867081,1.045968 3.9693,1.600422 6.109375,1.611329 2.723791,-0.01118 5.371006,-0.902492 7.546875,-2.541016 1.56279,0.673484 3.245549,1.024252 4.947266,1.03125 6.977139,5.53e-4 12.633366,-5.655674 12.632812,-12.632813 -0.0013,-2.652818 -0.837669,-5.237911 -2.390625,-7.388671 2.480721,-2.37284 3.888874,-5.653124 3.900391,-9.085938 -9.13e-4,-3.96978 -1.867955,-7.708203 -5.041016,-10.09375 2.59288,-2.385063 4.071919,-5.744584 4.080078,-9.267578 C 64.257287,17.599796 58.601376,11.944759 51.625,11.945312 50.032147,11.955601 48.455612,12.267065 46.978516,12.863281 45.38146,7.5117456 40.459758,3.8440964 34.875,3.84375 Z"/>



<g id="Capa_10">
<g >
<path class="cls-1" d="M32.87,10.87s-9.87,1.15-12.51,7c-2.41,6.66-1.61,13.32-1.61,13.32l-2.98-2.98s-1.26,3.56-.57,6.77c.69,3.33,1.84,6.66,3.79,7.46-.11,1.72-.23,2.18-.23,2.18,0,0-10.68,2.64-14.58,7.92,2.53,15.73,5.05,20.2,5.05,20.2l27.66,4.71,24.79-5.62,1.84-21.12s-8.95-5.05-12.74-5.85c-.34-2.07-.23-2.41-.23-2.41,0,0,2.75-2.18,3.44-6.31,.8-4.71-.34-7.92-.34-7.92l-2.87,3.1s.69-7.46-1.72-13.09c-2.53-5.62-8.84-8.04-16.18-7.35Z">
</path>
<path class="cls-2" d="M34.52,62.54V13.07s4.5-1.57,7.64-1.01c3.26,.67,6.97,4.16,7.98,9.67,.79,6.07-.11,17.2-.11,17.2,0,0,1.69,11.8,.79,15.74s-4.16,6.18-7.98,7.87c-4.38,1.8-8.32,0-8.32,0Z">
</path>
<path class="cls-4" d="M46.95,36.14l1.66-4.46s-3.92-1.84-5.7-1.49c-2.55,1.78-4.52,3.8-4.52,3.8l.65,2.12,7.91,.02Z">
</path>
<path class="cls-4" d="M22.75,36.14l-1.66-4.46s3.92-1.84,5.7-1.49c2.55,1.78,4.52,3.8,4.52,3.8l-.65,2.12-7.91,.02Z">
</path>
<path class="cls-16" d="M4.84,51.98s6.08-5.13,13.92-7.37c-.93,10.33,2.03,24.59,6.47,30.4-12.15,.95-16.9-1.8-16.9-1.8l-3.49-21.23Z">
</path>
<path class="cls-16" d="M64.6,51.98s-6.08-5.13-13.92-7.37c.93,10.33-2.03,24.59-6.47,30.4,12.15,.95,16.9-1.8,16.9-1.8l3.49-21.23Z">
</path>
<path class="cls-3" d="M30.74,36.13s-1.23-1.32-2.59-1.5c-3.41,.32-4.19,1.41-4.19,1.41,0,0,4.78,.91,6.78,.09Z">
</path>
<path class="cls-3" d="M39.04,36.13s1.23-1.32,2.59-1.5c3.41,.32,4.19,1.41,4.19,1.41,0,0-4.78,.91-6.78,.09Z">
</path>
<path class="cls-3" d="M18.94,55.76s2.08,5.54,9.89,7.32,19.19-.2,21.66-7.22c.69,7.12-6.63,19.48-6.63,19.48l-19.09-.59s-2.87-5.93-4.45-10.28">
</path>
<path d="M18.76,31.18l-2.98-2.98s-1.7,5.66,.48,10.92c1.49,3.18,2.28,3.67,2.28,3.67l.99-4.56-.77-7.05Z">
</path>
<path class="cls-2" d="M23.95,40.17c1.01,.74,2.61,1.48,4.5,.72,.35-.14,.65,.29,.42,.59-2.42,3.05-4.03,2.51-5.47-.84-.15-.35,.25-.69,.56-.46Z">
</path>
<path d="M49.96,57.67l-12.57,17.23s-20.83,.12-27.58-4.42c-4.54-13.97-3.61-20.37-3.61-20.37l12.56-5.49s-1.62,7.82,.94,12.36,10.47,6.75,10.47,6.75c0,0,9.16-.62,12.67-1.19,4.21-.91,7.12-4.87,7.12-4.87Z">
</path>
<path class="cls-1" d="M32.91,12.11l.69,1.66c.16,.37,.52,.61,.92,.61,.24,0,.4-.08,.54-.15,1.52-.75,3.13-1.14,4.66-1.14,3.23,0,5.83,1.78,7.72,5.3,1.61,3,2.23,7.2,1.83,12.49-.1,1.53-.6,4.6-1.02,7.09-.13,.72-.31,1.38-.54,1.98-.87,2.21-2.16,4.25-2.18,4.29-.43,.7-.21,1.62,.46,2.03,.24,.16,.52,.24,.81,.24,.52,0,.99-.27,1.26-.71h0c.11-.18,.53-.84,1.03-1.77,.23,2.49,.42,5.17,.46,7.29,.03,2.15-.56,6-4.63,8.6-.45-1.1-.95-1.82-1.03-1.93-.38-.51-.97-.82-1.6-.82-.37,0-.72,.1-1.03,.3l-4.05,2.49c-.78-.36-1.65-.55-2.56-.55s-1.79,.19-2.56,.55l-4.04-2.49c-.32-.2-.67-.3-1.04-.3-.63,0-1.23,.31-1.61,.82-.01,.02-.05,.08-.06,.09-.35,.55-.67,1.15-.93,1.77-4.15-2.73-4.55-6.81-4.52-8.53,.03-2.15,.22-4.83,.45-7.3,.45,.83,.83,1.46,1.01,1.75,0,0,.02,.04,.03,.04,.28,.43,.75,.68,1.25,.68,.29,0,.57-.08,.8-.24,.33-.21,.56-.54,.65-.93,.08-.39,.01-.78-.2-1.12,0,0,0-.01,0-.01-.32-.51-3.15-5.2-3.63-12.39-.25-2.48-.58-8.76,1.77-13.46,2.46-4.91,8.8-6.02,10.88-6.26m.64-1.06c-.07,0-9.21,.45-12.42,6.87-2.41,4.82-2.17,11.04-1.87,14.01,.53,7.87,3.77,12.8,3.79,12.84,.15,.23,.08,.53-.14,.67-.08,.05-.17,.08-.26,.08-.16,0-.32-.08-.42-.23-.08-.13-1.58-2.48-2.49-5-.41,3.48-.79,7.89-.84,11.03-.04,2.1,.51,7.08,6.05,10.02,.46-1.57,1.2-2.65,1.26-2.75,.19-.26,.49-.41,.8-.41,.18,0,.35,.05,.51,.15l4.53,2.79c.75-.46,1.65-.7,2.6-.7s1.85,.24,2.6,.7l4.54-2.79c.16-.1,.33-.15,.51-.15,.3,0,.6,.15,.79,.41,.07,.1,.83,1.21,1.29,2.81,5.65-2.93,6.2-7.96,6.17-10.08-.06-3.13-.44-7.54-.84-11.03-.92,2.52-2.41,4.87-2.5,5-.09,.15-.25,.23-.41,.23-.09,0-.18-.03-.26-.08-.23-.14-.29-.44-.15-.67,.02-.03,1.36-2.15,2.26-4.45,.27-.7,.46-1.43,.59-2.17,.37-2.2,.92-5.55,1.03-7.2,.24-3.22,.35-8.76-1.95-13.03-2.5-4.65-5.83-5.83-8.6-5.83s-5.15,1.29-5.19,1.29l-.97-2.33h0Z">
</path>
<path class="cls-2" d="M20.65,46.01s2.46,9.85,4.39,11.78c-4.82-.86-5.03-5.35-4.39-11.78Z">
</path>
<path class="cls-16" d="M7.28,51.32c2.94-2.32,6.68-4.48,10.2-5.22-2.35,1.72-4.85,2.93-7.44,4.18-.86,.4-1.73,.78-2.69,1.11l-.07-.08h0Z">
</path>
<path class="cls-16" d="M18.24,56.07c.71,5.62,2.12,11.24,4.76,16.28,0,0-.09,.05-.09,.05-2.86-3.31-4.28-7.68-4.78-11.97-.17-1.44-.17-2.9,0-4.35h.1Z">
</path>
<path class="cls-12" d="M18.75,31.79s-1.5-2.8-3.07-3.82c-1.77,5.32,.34,13.58,3.07,14.4">
</path>
<path class="cls-12" d="M50.67,31.79s1.5-2.8,3.07-3.82c1.77,5.32-.34,13.58-3.07,14.4">
</path>
<path class="cls-12" d="M22.64,45.03s-2.66-4.16-3.07-7.3c-.55,3.89-1.09,9.83-1.16,13.58s1.57,8.53,7.58,11.06">
</path>
<path class="cls-12" d="M18.77,44.52s-9.96,3.37-14.61,7.61">
</path>
<path class="cls-12" d="M50.66,44.52s9.96,3.37,14.61,7.61">
</path>
<path class="cls-12" d="M50.44,33.75s1.69-9.29-1.69-16.05c-3.38-6.76-12.86-7.14-12.86-7.14h-2.34s-9.48,.38-12.86,7.14-1.69,16.05-1.69,16.05">
</path>
<path class="cls-12" d="M46.8,45.03s2.66-4.16,3.07-7.3c.55,3.89,1.09,9.83,1.16,13.58s-1.57,8.53-7.58,11.06">
</path>
<path class="cls-12" d="M40.76,52.32s.58,1.36-.45,2.27c-.79,.68-3.45,.36-5.59-.2h0c-2.14,.56-4.8,.88-5.58,.2-1.04-.91-.46-2.27-.46-2.27">
</path>
<path d="M33.07,33.06s-1.12,1.06-1.93,1.12c-2.8-2.09-4.49-3.68-4.49-3.68,0,0-3.74,.44-5.61,1.31,3.06-2.56,5.74-2.62,5.74-2.62l6.3,3.87Z">
</path>
<path d="M43.1,25.94c-.82-.74-1.82-1.29-2.89-.81,0,0-1.04,.38-1.04,.38-1.36,.5-2.75,1.01-4.17,1.3-1.56-.03-3.16-.68-4.6-1.25-.69-.25-1.36-.69-2.01-.6-.69,.06-1.33,.5-1.89,.98,.62-.91,1.88-1.72,3.02-1.25,1.74,.53,3.53,1.17,5.32,1.4,1.37-.3,2.8-.76,4.15-1.13,0,0,1.09-.28,1.09-.28,1.14-.44,2.4,.35,3.02,1.27h0Z">
</path>
<path d="M41.16,23.1c-.97-.42-2.09-.4-3.09-.12-.97,.42-2.09,.85-3.27,.86-1.33,.03-2.47-.57-3.6-.96-.38-.05-.81-.09-1.19-.09-.53,0-1.07,.07-1.57,.31,.41-.39,.98-.55,1.53-.67,1.65-.42,3.25,.74,4.82,.66,1.18,.05,2.33-.52,3.55-.75,.96-.01,2.06,.11,2.8,.76h0Z">
</path>
<path d="M30.84,36.15c-.9-.55-1.84-1.08-2.77-1.24-.91,.15-2.99,.56-4.03,1.38,0,0-.21-.85-.21-.85,1.87,.41,3.77,.7,5.69,.99-2.29,.47-4.66,.25-6.93-.24,1.53-1.42,3.57-2.12,5.63-2.01,1.09,.35,1.94,1.1,2.62,1.97h0Z">
</path>
<path d="M30.42,36.94c-.02,1.25-.92,2.18-1.9,2.82-1.1,.68-2.48,.02-3.37-.62-.61-.43-1.17-.94-1.65-1.49,.6,.42,1.22,.82,1.86,1.15,2.91,1.6,3.12-.19,5.06-1.86h0Z">
</path>
<path d="M36.6,33.06s1.12,1.06,1.93,1.12c2.8-2.09,4.49-3.68,4.49-3.68,0,0,3.74,.44,5.61,1.31-3.06-2.56-5.74-2.62-5.74-2.62l-6.3,3.87Z">
</path>
<path d="M38.83,36.15c.68-.87,1.53-1.61,2.62-1.97,2.06-.11,4.1,.59,5.63,2.01-2.27,.49-4.64,.71-6.93,.24,1.91-.29,3.82-.58,5.69-.99l-.21,.85c-1.04-.82-3.12-1.23-4.03-1.38-.93,.16-1.87,.69-2.77,1.24h0Z">
</path>
<path d="M39.25,36.94c1.94,1.67,2.15,3.46,5.06,1.86,.64-.34,1.26-.73,1.86-1.15-.49,.56-1.04,1.06-1.65,1.49-.89,.64-2.27,1.3-3.37,.62-.98-.64-1.88-1.57-1.9-2.82h0Z">
</path>
<path d="M37.05,39.82c.97,.68,1.91,1.4,2.85,2.12l-.09,.21c-.19,.46-.45,1.04-.53,1.52-.48-.25-1.01-.46-1.55-.55-.39-.08-.78-.09-1.16-.03l.33-.22c-.66,1.11-2.26,1.85-3.37,.94-.35-.26-.62-.57-.82-.94l.33,.22c-.75-.11-1.6,.08-2.29,.39l-.4,.19-.1-.38c-.13-.39-.37-.95-.53-1.34,.93-.73,1.87-1.44,2.84-2.12-.76,.83-1.55,1.62-2.34,2.41l.06-.32,.32,.56c.11,.2,.21,.39,.3,.61,0,0-.5-.19-.5-.19,.9-.54,1.91-.77,2.95-.65,.27,.56,.88,1.13,1.41,1.08,.55-.04,1.25-.57,1.5-1.08,1.04-.12,2.05,.11,2.95,.65,0,0-.5,.2-.5,.2,.15-.39,.41-.82,.62-1.18,0,0,.06,.32,.06,.32-.8-.79-1.59-1.59-2.35-2.41h0Z">
</path>
<path d="M41.36,47.52c-.44-.54-1.63-1.48-1.93-1.52-3.2,.24-6.4,.24-9.6,0h.09c-.33,.06-.71,.32-1.05,.59-.34,.28-.66,.6-.98,.93,.45-.86,.89-1.69,1.84-2.14,3.25-.27,6.51-.25,9.77,0,.96,.45,1.41,1.29,1.86,2.15h0Z">
</path>
<path d="M39.2,47.22c-.34,.47-.7,.9-1.09,1.32-2.31,.29-4.63,.29-6.94,0-.38-.42-.75-.85-1.09-1.32,.5,.25,.96,.53,1.41,.83l-.19-.07c2.22-.27,4.44-.26,6.66,0l-.19,.07c.45-.3,.92-.58,1.41-.83h0Z">
</path>
<path class="cls-16" d="M42.3,59.15l-5.09,3.14c-.63-.55-1.54-.9-2.56-.9s-1.93,.35-2.56,.9l-5.09-3.14s-2.95,4.2-.37,7.9c2.36-.8,3.95-1.36,5-1.76,.58,.84,1.7,1.41,3.02,1.41s2.44-.58,3.02-1.41c1.05,.4,2.63,.97,5,1.76,2.58-3.71-.37-7.9-.37-7.9Z">
</path>
<path d="M42.3,59.15s2.95,4.2,.37,7.9c-2.36-.8-3.95-1.36-5-1.76-.58,.84-1.7,1.41-3.02,1.41s-2.44-.58-3.02-1.41c-1.05,.4-2.63,.97-5,1.76-2.58-3.71,.37-7.9,.37-7.9l5.09,3.14c.63-.55,1.54-.9,2.56-.9s1.93,.35,2.56,.9l5.09-3.14m0-.97c-.17,0-.35,.05-.51,.15l-4.53,2.79c-.75-.46-1.65-.7-2.6-.7s-1.85,.25-2.6,.7l-4.53-2.79c-.16-.1-.34-.15-.51-.15-.31,0-.61,.15-.8,.41-.14,.19-3.31,4.8-.37,9.02,.19,.27,.49,.42,.8,.42,.1,0,.21-.02,.31-.05,1.72-.58,3.19-1.09,4.4-1.54,.83,.78,2.03,1.24,3.3,1.24s2.48-.46,3.3-1.24c1.21,.44,2.68,.96,4.4,1.54,.1,.03,.21,.05,.31,.05,.31,0,.61-.15,.8-.42,2.94-4.22-.24-8.83-.37-9.02-.19-.27-.49-.41-.8-.41h0Z">
</path>
<path class="cls-8" d="M18.58,46.53s-2.42,14.95,8.03,30.84">
</path>
<path class="cls-8" d="M50.86,46.53s2.42,14.95-8.03,30.84">
</path>
<path d="M24.24,13.44s4.4-2.42,10.33,.64c2.57-2.08,7.61-1.98,9.2-1.29-4.9-3.41-13.45-3.96-19.53,.64Z">
</path>
<path class="cls-1" d="M16.05,29.28c.32,2.76,.52,5.35,1,8.07,.13,.9,.32,1.78,.41,2.78l-.09,.05c-1.64-3.22-2.49-7.59-1.32-10.89h0Z">
</path>
</g>
</g>

</svg>
