<svg id="Capa_2" xmlns="http://www.w3.org/2000/svg" xmlns:xlink="http://www.w3.org/1999/xlink" viewBox="0 0 69.02 80">
<defs >
<style >
.cls-1{fill:#c89aed;}.cls-2{fill:#fff;}.cls-3{fill:#f8ffbf;}.cls-4{fill:#7b7be8;}.cls-5{fill:#a88347;}.cls-6{fill:#782ab5;}.cls-7,.cls-8{stroke-miterlimit:10;}.cls-7,.cls-8,.cls-9,.cls-10,.cls-11,.cls-12{fill:none;}.cls-7,.cls-8,.cls-12{stroke:#000;}.cls-8{stroke-width:.75px;}.cls-9{stroke:#deb778;stroke-dasharray:0 0 0 4.06;}.cls-9,.cls-12{stroke-linecap:round;stroke-linejoin:round;}.cls-13{fill:#deb778;}.cls-14{fill:url(#USGS_19_Inundación_de_tierra_2);}.cls-11{stroke:#1d1d1b;stroke-dasharray:0 0 2 2;stroke-width:.3px;}.cls-15{fill:#fcf0c5;}.cls-16{fill:#b83521;}.cls-12{stroke-width:.97px;}
</style>
<pattern id="USGS_19_Inundación_de_tierra_2" x="0" y="0" width="72" height="72" patternTransform="translate(51.52 -16207) rotate(-90)" patternUnits="userSpaceOnUse" viewBox="0 0 72 72">
<g >
<rect class="cls-10" width="72" height="72">
</rect>
<g >
<line class="cls-11" x1="71" y1="71" x2="144.44" y2="71">
</line>
<line class="cls-11" x1="71" y1="67" x2="144.44" y2="67">
</line>
<line class="cls-11" x1="71" y1="63" x2="144.44" y2="63">
</line>
<line class="cls-11" x1="71" y1="59" x2="144.44" y2="59">
</line>
<line class="cls-11" x1="71" y1="55" x2="144.44" y2="55">
</line>
<line class="cls-11" x1="71" y1="51" x2="144.44" y2="51">
</line>
<line class="cls-11" x1="71" y1="47" x2="144.44" y2="47">
</line>
<line class="cls-11" x1="71" y1="43" x2="144.44" y2="43">
</line>
<line class="cls-11" x1="71" y1="39" x2="144.44" y2="39">
</line>
<line class="cls-11" x1="71" y1="35" x2="144.44" y2="35">
</line>
<line class="cls-11" x1="71" y1="31" x2="144.44" y2="31">
</line>
<line class="cls-11" x1="71" y1="27" x2="144.44" y2="27">
</line>
<line class="cls-11" x1="71" y1="23" x2="144.44" y2="23">
</line>
<line class="cls-11" x1="71" y1="19" x2="144.44" y2="19">
</line>
<line class="cls-11" x1="71" y1="15" x2="144.44" y2="15">
</line>
<line class="cls-11" x1="71" y1="11" x2="144.44" y2="11">
</line>
<line class="cls-11" x1="71" y1="7" x2="144.44" y2="7">
</line>
<line class="cls-11" x1="71" y1="3" x2="144.44" y2="3">
</line>
</g>
<g >
<line class="cls-11" x1="-1" y1="71" x2="72.44" y2="71">
</line>
<line class="cls-11" x1="-1" y1="67" x2="72.44" y2="67">
</line>
<line class="cls-11" x1="-1" y1="63" x2="72.44" y2="63">
</line>
<line class="cls-11" x1="-1" y1="59" x2="72.44" y2="59">
</line>
<line class="cls-11" x1="-1" y1="55" x2="72.44" y2="55">
</line>
<line class="cls-11" x1="-1" y1="51" x2="72.44" y2="51">
</line>
<line class="cls-11" x1="-1" y1="47" x2="72.44" y2="47">
</line>
<line class="cls-11" x1="-1" y1="43" x2="72.44" y2="43">
</line>
<line class="cls-11" x1="-1" y1="39" x2="72.44" y2="39">
</line>
<line class="cls-11" x1="-1" y1="35" x2="72.44" y2="35">
</line>
<line class="cls-11" x1="-1" y1="31" x2="72.44" y2="31">
</line>
<line class="cls-11" x1="-1" y1="27" x2="72.44" y2="27">
</line>
<line class="cls-11" x1="-1" y1="23" x2="72.44" y2="23">
</line>
<line class="cls-11" x1="-1" y1="19" x2="72.44" y2="19">
</line>
<line class="cls-11" x1="-1" y1="15" x2="72.44" y2="15">
</line>
<line class="cls-11" x1="-1" y1="11" x2="72.44" y2="11">
</line>
<line class="cls-11" x1="-1" y1="7" x2="72.44" y2="7">
</line>
<line class="cls-11" x1="-1" y1="3" x2="72.44" y2="3">
</line>
<line class="cls-11" x1="1.04" y1="69" x2="74.48" y2="69">
</line>
<line class="cls-11" x1="1.04" y1="65" x2="74.48" y2="65">
</line>
<line class="cls-11" x1="1.04" y1="61" x2="74.48" y2="61">
</line>
<line class="cls-11" x1="1.04" y1="57" x2="74.48" y2="57">
</line>
<line class="cls-11" x1="1.04" y1="53" x2="74.48" y2="53">
</line>
<line class="cls-11" x1="1.04" y1="49" x2="74.48" y2="49">
</line>
<line class="cls-11" x1="1.04" y1="45" x2="74.48" y2="45">
</line>
<line class="cls-11" x1="1.04" y1="41" x2="74.48" y2="41">
</line>
<line class="cls-11" x1="1.04" y1="37" x2="74.48" y2="37">
</line>
<line class="cls-11" x1="1.04" y1="33" x2="74.48" y2="33">
</line>
<line class="cls-11" x1="1.04" y1="29" x2="74.48" y2="29">
</line>
<line class="cls-11" x1="1.04" y1="25" x2="74.48" y2="25">
</line>
<line class="cls-11" x1="1.04" y1="21" x2="74.48" y2="21">
</line>
<line class="cls-11" x1="1.04" y1="17" x2="74.48" y2="17">
</line>
<line class="cls-11" x1="1.04" y1="13" x2="74.48" y2="13">
</line>
<line class="cls-11" x1="1.04" y1="9" x2="74.48" y2="9">
</line>
<line class="cls-11" x1="1.04" y1="5" x2="74.48" y2="5">
</line>
<line class="cls-11" x1="1.04" y1="1" x2="74.48" y2="1">
</line>
</g>
<g >
<line class="cls-11" x1="-73" y1="71" x2=".44" y2="71">
</line>
<line class="cls-11" x1="-73" y1="67" x2=".44" y2="67">
</line>
<line class="cls-11" x1="-73" y1="63" x2=".44" y2="63">
</line>
<line class="cls-11" x1="-73" y1="59" x2=".44" y2="59">
</line>
<line class="cls-11" x1="-73" y1="55" x2=".44" y2="55">
</line>
<line class="cls-11" x1="-73" y1="51" x2=".44" y2="51">
</line>
<line class="cls-11" x1="-73" y1="47" x2=".44" y2="47">
</line>
<line class="cls-11" x1="-73" y1="43" x2=".44" y2="43">
</line>
<line class="cls-11" x1="-73" y1="39" x2=".44" y2="39">
</line>
<line class="cls-11" x1="-73" y1="35" x2=".44" y2="35">
</line>
<line class="cls-11" x1="-73" y1="31" x2=".44" y2="31">
</line>
<line class="cls-11" x1="-73" y1="27" x2=".44" y2="27">
</line>
<line class="cls-11" x1="-73" y1="23" x2=".44" y2="23">
</line>
<line class="cls-11" x1="-73" y1="19" x2=".44" y2="19">
</line>
<line class="cls-11" x1="-73" y1="15" x2=".44" y2="15">
</line>
<line class="cls-11" x1="-73" y1="11" x2=".44" y2="11">
</line>
<line class="cls-11" x1="-73" y1="7" x2=".44" y2="7">
</line>
<line class="cls-11" x1="-73" y1="3" x2=".44" y2="3">
</line>
<line class="cls-11" x1="-70.96" y1="69" x2="2.48" y2="69">
</line>
<line class="cls-11" x1="-70.96" y1="65" x2="2.48" y2="65">
</line>
<line class="cls-11" x1="-70.96" y1="61" x2="2.48" y2="61">
</line>
<line class="cls-11" x1="-70.96" y1="57" x2="2.48" y2="57">
</line>
<line class="cls-11" x1="-70.96" y1="53" x2="2.48" y2="53">
</line>
<line class="cls-11" x1="-70.96" y1="49" x2="2.48" y2="49">
</line>
<line class="cls-11" x1="-70.96" y1="45" x2="2.48" y2="45">
</line>
<line class="cls-11" x1="-70.96" y1="41" x2="2.48" y2="41">
</line>
<line class="cls-11" x1="-70.96" y1="37" x2="2.48" y2="37">
</line>
<line class="cls-11" x1="-70.96" y1="33" x2="2.48" y2="33">
</line>
<line class="cls-11" x1="-70.96" y1="29" x2="2.48" y2="29">
</line>
<line class="cls-11" x1="-70.96" y1="25" x2="2.48" y2="25">
</line>
<line class="cls-11" x1="-70.96" y1="21" x2="2.48" y2="21">
</line>
<line class="cls-11" x1="-70.96" y1="17" x2="2.48" y2="17">
</line>
<line class="cls-11" x1="-70.96" y1="13" x2="2.48" y2="13">
</line>
<line class="cls-11" x1="-70.96" y1="9" x2="2.48" y2="9">
</line>
<line class="cls-11" x1="-70.96" y1="5" x2="2.48" y2="5">
</line>
<line class="cls-11" x1="-70.96" y1="1" x2="2.48" y2="1">
</line>
</g>
</g>
</pattern>
</defs>

<g id="Capa_10">
<g >
<path class="cls-1" d="M32.87,10.87s-9.87,1.15-12.51,7c-2.41,6.66-1.61,13.32-1.61,13.32l-2.98-2.98s-1.26,3.56-.57,6.77c.69,3.33,1.84,6.66,3.79,7.46-.11,1.72-.23,2.18-.23,2.18,0,0-10.68,2.64-14.58,7.92,2.53,15.73,5.05,20.2,5.05,20.2l27.66,4.71,24.79-5.62,1.84-21.12s-8.95-5.05-12.74-5.85c-.34-2.07-.23-2.41-.23-2.41,0,0,2.75-2.18,3.44-6.31,.8-4.71-.34-7.92-.34-7.92l-2.87,3.1s.69-7.46-1.72-13.09c-2.53-5.62-8.84-8.04-16.18-7.35Z">
</path>
<path class="cls-2" d="M34.52,62.54V13.07s4.5-1.57,7.64-1.01c3.26,.67,6.97,4.16,7.98,9.67,.79,6.07-.11,17.2-.11,17.2,0,0,1.69,11.8,.79,15.74s-4.16,6.18-7.98,7.87c-4.38,1.8-8.32,0-8.32,0Z">
</path>
<path class="cls-4" d="M46.95,36.14l1.66-4.46s-3.92-1.84-5.7-1.49c-2.55,1.78-4.52,3.8-4.52,3.8l.65,2.12,7.91,.02Z">
</path>
<path class="cls-4" d="M22.75,36.14l-1.66-4.46s3.92-1.84,5.7-1.49c2.55,1.78,4.52,3.8,4.52,3.8l-.65,2.12-7.91,.02Z">
</path>
<path class="cls-16" d="M4.84,51.98s6.08-5.13,13.92-7.37c-.93,10.33,2.03,24.59,6.47,30.4-12.15,.95-16.9-1.8-16.9-1.8l-3.49-21.23Z">
</path>
<path class="cls-16" d="M64.6,51.98s-6.08-5.13-13.92-7.37c.93,10.33-2.03,24.59-6.47,30.4,12.15,.95,16.9-1.8,16.9-1.8l3.49-21.23Z">
</path>
<path class="cls-3" d="M30.74,36.13s-1.23-1.32-2.59-1.5c-3.41,.32-4.19,1.41-4.19,1.41,0,0,4.78,.91,6.78,.09Z">
</path>
<path class="cls-3" d="M39.04,36.13s1.23-1.32,2.59-1.5c3.41,.32,4.19,1.41,4.19,1.41,0,0-4.78,.91-6.78,.09Z">
</path>
<path class="cls-3" d="M18.94,55.76s2.08,5.54,9.89,7.32,19.19-.2,21.66-7.22c.69,7.12-6.63,19.48-6.63,19.48l-19.09-.59s-2.87-5.93-4.45-10.28">
</path>
<path d="M18.76,31.18l-2.98-2.98s-1.7,5.66,.48,10.92c1.49,3.18,2.28,3.67,2.28,3.67l.99-4.56-.77-7.05Z">
</path>
<path class="cls-2" d="M23.95,40.17c1.01,.74,2.61,1.48,4.5,.72,.35-.14,.65,.29,.42,.59-2.42,3.05-4.03,2.51-5.47-.84-.15-.35,.25-.69,.56-.46Z">
</path>
<path d="M49.96,57.67l-12.57,17.23s-20.83,.12-27.58-4.42c-4.54-13.97-3.61-20.37-3.61-20.37l12.56-5.49s-1.62,7.82,.94,12.36,10.47,6.75,10.47,6.75c0,0,9.16-.62,12.67-1.19,4.21-.91,7.12-4.87,7.12-4.87Z">
</path>
<path class="cls-1" d="M32.91,12.11l.69,1.66c.16,.37,.52,.61,.92,.61,.24,0,.4-.08,.54-.15,1.52-.75,3.13-1.14,4.66-1.14,3.23,0,5.83,1.78,7.72,5.3,1.61,3,2.23,7.2,1.83,12.49-.1,1.53-.6,4.6-1.02,7.09-.13,.72-.31,1.38-.54,1.98-.87,2.21-2.16,4.25-2.18,4.29-.43,.7-.21,1.62,.46,2.03,.24,.16,.52,.24,.81,.24,.52,0,.99-.27,1.26-.71h0c.11-.18,.53-.84,1.03-1.77,.23,2.49,.42,5.17,.46,7.29,.03,2.15-.56,6-4.63,8.6-.45-1.1-.95-1.82-1.03-1.93-.38-.51-.97-.82-1.6-.82-.37,0-.72,.1-1.03,.3l-4.05,2.49c-.78-.36-1.65-.55-2.56-.55s-1.79,.19-2.56,.55l-4.04-2.49c-.32-.2-.67-.3-1.04-.3-.63,0-1.23,.31-1.61,.82-.01,.02-.05,.08-.06,.09-.35,.55-.67,1.15-.93,1.77-4.15-2.73-4.55-6.81-4.52-8.53,.03-2.15,.22-4.83,.45-7.3,.45,.83,.83,1.46,1.01,1.75,0,0,.02,.04,.03,.04,.28,.43,.75,.68,1.25,.68,.29,0,.57-.08,.8-.24,.33-.21,.56-.54,.65-.93,.08-.39,.01-.78-.2-1.12,0,0,0-.01,0-.01-.32-.51-3.15-5.2-3.63-12.39-.25-2.48-.58-8.76,1.77-13.46,2.46-4.91,8.8-6.02,10.88-6.26m.64-1.06c-.07,0-9.21,.45-12.42,6.87-2.41,4.82-2.17,11.04-1.87,14.01,.53,7.87,3.77,12.8,3.79,12.84,.15,.23,.08,.53-.14,.67-.08,.05-.17,.08-.26,.08-.16,0-.32-.08-.42-.23-.08-.13-1.58-2.48-2.49-5-.41,3.48-.79,7.89-.84,11.03-.04,2.1,.51,7.08,6.05,10.02,.46-1.57,1.2-2.65,1.26-2.75,.19-.26,.49-.41,.8-.41,.18,0,.35,.05,.51,.15l4.53,2.79c.75-.46,1.65-.7,2.6-.7s1.85,.24,2.6,.7l4.54-2.79c.16-.1,.33-.15,.51-.15,.3,0,.6,.15,.79,.41,.07,.1,.83,1.21,1.29,2.81,5.65-2.93,6.2-7.96,6.17-10.08-.06-3.13-.44-7.54-.84-11.03-.92,2.52-2.41,4.87-2.5,5-.09,.15-.25,.23-.41,.23-.09,0-.18-.03-.26-.08-.23-.14-.29-.44-.15-.67,.02-.03,1.36-2.15,2.26-4.45,.27-.7,.46-1.43,.59-2.17,.37-2.2,.92-5.55,1.03-7.2,.24-3.22,.35-8.76-1.95-13.03-2.5-4.65-5.83-5.83-8.6-5.83s-5.15,1.29-5.19,1.29l-.97-2.33h0Z">
</path>
<path class="cls-2" d="M20.65,46.01s2.46,9.85,4.39,11.78c-4.82-.86-5.03-5.35-4.39-11.78Z">
</path>
<path class="cls-16" d="M7.28,51.32c2.94-2.32,6.68-4.48,10.2-5.22-2.35,1.72-4.85,2.93-7.44,4.18-.86,.4-1.73,.78-2.69,1.11l-.07-.08h0Z">
</path>
<path class="cls-16" d="M18.24,56.07c.71,5.62,2.12,11.24,4.76,16.28,0,0-.09,.05-.09,.05-2.86-3.31-4.28-7.68-4.78-11.97-.17-1.44-.17-2.9,0-4.35h.1Z">
</path>
<path class="cls-12" d="M18.75,31.79s-1.5-2.8-3.07-3.82c-1.77,5.32,.34,13.58,3.07,14.4">
</path>
<path class="cls-12" d="M50.67,31.79s1.5-2.8,3.07-3.82c1.77,5.32-.34,13.58-3.07,14.4">
</path>
<path class="cls-12" d="M22.64,45.03s-2.66-4.16-3.07-7.3c-.55,3.89-1.09,9.83-1.16,13.58s1.57,8.53,7.58,11.06">
</path>
<path class="cls-12" d="M18.77,44.52s-9.96,3.37-14.61,7.61">
</path>
<path class="cls-12" d="M50.66,44.52s9.96,3.37,14.61,7.61">
</path>
<path class="cls-12" d="M50.44,33.75s1.69-9.29-1.69-16.05c-3.38-6.76-12.86-7.14-12.86-7.14h-2.34s-9.48,.38-12.86,7.14-1.69,16.05-1.69,16.05">
</path>
<path class="cls-12" d="M46.8,45.03s2.66-4.16,3.07-7.3c.55,3.89,1.09,9.83,1.16,13.58s-1.57,8.53-7.58,11.06">
</path>
<path class="cls-12" d="M40.76,52.32s.58,1.36-.45,2.27c-.79,.68-3.45,.36-5.59-.2h0c-2.14,.56-4.8,.88-5.58,.2-1.04-.91-.46-2.27-.46-2.27">
</path>
<path d="M33.07,33.06s-1.12,1.06-1.93,1.12c-2.8-2.09-4.49-3.68-4.49-3.68,0,0-3.74,.44-5.61,1.31,3.06-2.56,5.74-2.62,5.74-2.62l6.3,3.87Z">
</path>
<path d="M43.1,25.94c-.82-.74-1.82-1.29-2.89-.81,0,0-1.04,.38-1.04,.38-1.36,.5-2.75,1.01-4.17,1.3-1.56-.03-3.16-.68-4.6-1.25-.69-.25-1.36-.69-2.01-.6-.69,.06-1.33,.5-1.89,.98,.62-.91,1.88-1.72,3.02-1.25,1.74,.53,3.53,1.17,5.32,1.4,1.37-.3,2.8-.76,4.15-1.13,0,0,1.09-.28,1.09-.28,1.14-.44,2.4,.35,3.02,1.27h0Z">
</path>
<path d="M41.16,23.1c-.97-.42-2.09-.4-3.09-.12-.97,.42-2.09,.85-3.27,.86-1.33,.03-2.47-.57-3.6-.96-.38-.05-.81-.09-1.19-.09-.53,0-1.07,.07-1.57,.31,.41-.39,.98-.55,1.53-.67,1.65-.42,3.25,.74,4.82,.66,1.18,.05,2.33-.52,3.55-.75,.96-.01,2.06,.11,2.8,.76h0Z">
</path>
<path d="M30.84,36.15c-.9-.55-1.84-1.08-2.77-1.24-.91,.15-2.99,.56-4.03,1.38,0,0-.21-.85-.21-.85,1.87,.41,3.77,.7,5.69,.99-2.29,.47-4.66,.25-6.93-.24,1.53-1.42,3.57-2.12,5.63-2.01,1.09,.35,1.94,1.1,2.62,1.97h0Z">
</path>
<path d="M30.42,36.94c-.02,1.25-.92,2.18-1.9,2.82-1.1,.68-2.48,.02-3.37-.62-.61-.43-1.17-.94-1.65-1.49,.6,.42,1.22,.82,1.86,1.15,2.91,1.6,3.12-.19,5.06-1.86h0Z">
</path>
<path d="M36.6,33.06s1.12,1.06,1.93,1.12c2.8-2.09,4.49-3.68,4.49-3.68,0,0,3.74,.44,5.61,1.31-3.06-2.56-5.74-2.62-5.74-2.62l-6.3,3.87Z">
</path>
<path d="M38.83,36.15c.68-.87,1.53-1.61,2.62-1.97,2.06-.11,4.1,.59,5.63,2.01-2.27,.49-4.64,.71-6.93,.24,1.91-.29,3.82-.58,5.69-.99l-.21,.85c-1.04-.82-3.12-1.23-4.03-1.38-.93,.16-1.87,.69-2.77,1.24h0Z">
</path>
<path d="M39.25,36.94c1.94,1.67,2.15,3.46,5.06,1.86,.64-.34,1.26-.73,1.86-1.15-.49,.56-1.04,1.06-1.65,1.49-.89,.64-2.27,1.3-3.37,.62-.98-.64-1.88-1.57-1.9-2.82h0Z">
</path>
<path d="M37.05,39.82c.97,.68,1.91,1.4,2.85,2.12l-.09,.21c-.19,.46-.45,1.04-.53,1.52-.48-.25-1.01-.46-1.55-.55-.39-.08-.78-.09-1.16-.03l.33-.22c-.66,1.11-2.26,1.85-3.37,.94-.35-.26-.62-.57-.82-.94l.33,.22c-.75-.11-1.6,.08-2.29,.39l-.4,.19-.1-.38c-.13-.39-.37-.95-.53-1.34,.93-.73,1.87-1.44,2.84-2.12-.76,.83-1.55,1.62-2.34,2.41l.06-.32,.32,.56c.11,.2,.21,.39,.3,.61,0,0-.5-.19-.5-.19,.9-.54,1.91-.77,2.95-.65,.27,.56,.88,1.13,1.41,1.08,.55-.04,1.25-.57,1.5-1.08,1.04-.12,2.05,.11,2.95,.65,0,0-.5,.2-.5,.2,.15-.39,.41-.82,.62-1.18,0,0,.06,.32,.06,.32-.8-.79-1.59-1.59-2.35-2.41h0Z">
</path>
<path d="M41.36,47.52c-.44-.54-1.63-1.48-1.93-1.52-3.2,.24-6.4,.24-9.6,0h.09c-.33,.06-.71,.32-1.05,.59-.34,.28-.66,.6-.98,.93,.45-.86,.89-1.69,1.84-2.14,3.25-.27,6.51-.25,9.77,0,.96,.45,1.41,1.29,1.86,2.15h0Z">
</path>
<path d="M39.2,47.22c-.34,.47-.7,.9-1.09,1.32-2.31,.29-4.63,.29-6.94,0-.38-.42-.75-.85-1.09-1.32,.5,.25,.96,.53,1.41,.83l-.19-.07c2.22-.27,4.44-.26,6.66,0l-.19,.07c.45-.3,.92-.58,1.41-.83h0Z">
</path>
<path class="cls-16" d="M42.3,59.15l-5.09,3.14c-.63-.55-1.54-.9-2.56-.9s-1.93,.35-2.56,.9l-5.09-3.14s-2.95,4.2-.37,7.9c2.36-.8,3.95-1.36,5-1.76,.58,.84,1.7,1.41,3.02,1.41s2.44-.58,3.02-1.41c1.05,.4,2.63,.97,5,1.76,2.58-3.71-.37-7.9-.37-7.9Z">
</path>
<path d="M42.3,59.15s2.95,4.2,.37,7.9c-2.36-.8-3.95-1.36-5-1.76-.58,.84-1.7,1.41-3.02,1.41s-2.44-.58-3.02-1.41c-1.05,.4-2.63,.97-5,1.76-2.58-3.71,.37-7.9,.37-7.9l5.09,3.14c.63-.55,1.54-.9,2.56-.9s1.93,.35,2.56,.9l5.09-3.14m0-.97c-.17,0-.35,.05-.51,.15l-4.53,2.79c-.75-.46-1.65-.7-2.6-.7s-1.85,.25-2.6,.7l-4.53-2.79c-.16-.1-.34-.15-.51-.15-.31,0-.61,.15-.8,.41-.14,.19-3.31,4.8-.37,9.02,.19,.27,.49,.42,.8,.42,.1,0,.21-.02,.31-.05,1.72-.58,3.19-1.09,4.4-1.54,.83,.78,2.03,1.24,3.3,1.24s2.48-.46,3.3-1.24c1.21,.44,2.68,.96,4.4,1.54,.1,.03,.21,.05,.31,.05,.31,0,.61-.15,.8-.42,2.94-4.22-.24-8.83-.37-9.02-.19-.27-.49-.41-.8-.41h0Z">
</path>
<path class="cls-8" d="M18.58,46.53s-2.42,14.95,8.03,30.84">
</path>
<path class="cls-8" d="M50.86,46.53s2.42,14.95-8.03,30.84">
</path>
<path d="M24.24,13.44s4.4-2.42,10.33,.64c2.57-2.08,7.61-1.98,9.2-1.29-4.9-3.41-13.45-3.96-19.53,.64Z">
</path>
<path class="cls-1" d="M16.05,29.28c.32,2.76,.52,5.35,1,8.07,.13,.9,.32,1.78,.41,2.78l-.09,.05c-1.64-3.22-2.49-7.59-1.32-10.89h0Z">
</path>
</g>
</g>
 <g
     id="g2850">
    <g
       id="g2837">
      <path
         id="path1951"
         d="M 0.056640625 0.04296875 L 0.056640625 79.943359 L 69.308594 79.943359 L 69.308594 0.04296875 L 0.056640625 0.04296875 z M 33.615234 3.5957031 C 34.206332 3.5957038 34.786991 3.6051034 35.421875 3.6152344 C 44.430653 3.7671809 53.471255 5.1336733 61.560547 7.5546875 L 62.064453 7.7070312 L 62.25 8.1640625 C 66.070247 17.605006 66.990234 28.726438 66.990234 40.0625 C 66.990234 51.398562 65.972723 63.025755 61.988281 72.578125 L 61.791016 73.044922 L 61.275391 73.185547 C 53.273669 75.403966 44.691921 76.529297 35.759766 76.529297 C 35.212453 76.529297 34.675812 76.519896 34.150391 76.509766 L 33.943359 76.509766 C 24.901742 76.357819 15.860367 74.989738 7.7929688 72.558594 L 7.2890625 72.40625 L 7.1035156 71.951172 C 3.2942144 62.520359 2.375 51.369168 2.375 40.0625 C 2.375 28.755832 3.3819737 17.127318 7.3554688 7.5546875 L 7.5527344 7.0898438 L 8.0664062 6.9472656 C 15.509867 4.890923 23.785212 3.7371557 32.005859 3.6054688 C 32.542226 3.5953387 33.078867 3.5957031 33.615234 3.5957031 z "
         style="opacity:1;vector-effect:none;fill:#ffffff;fill-opacity:1;fill-rule:nonzero;stroke:none;stroke-width:1.95200002;stroke-linecap:butt;stroke-linejoin:miter;stroke-miterlimit:4;stroke-dasharray:none;stroke-dashoffset:0;stroke-opacity:1" />
    </g>
    <path
       id="path1154-8-2"
       d="m 33.675163,6.6112954 c 0.557696,0 1.115392,0.00956 1.683415,0.019115 8.427403,0.14336 16.803167,1.4049288 24.363042,3.6700176 3.573384,8.830981 4.443772,19.417362 4.443772,29.761551 0,10.344189 -0.95301,21.39888 -4.68131,30.334991 -7.435942,2.064385 -15.429581,3.274388 -23.774362,3.274388 -0.506058,0 -1.012115,-0.0096 -1.518172,-0.01911 h -0.17557 C 25.56792,73.508883 17.192156,72.088619 9.6426089,69.813973 6.0795528,61.002107 5.2088244,50.415411 5.2088244,40.061979 c 0,-10.353432 0.95335,-21.389323 4.6609939,-30.325434 C 16.820359,7.8155201 24.462856,6.7450981 32.177647,6.6208528 c 0.49573,-0.00956 1.001787,-0.00956 1.497516,-0.00956 m 0,-0.9557337 c -0.506057,0 -1.012114,0 -1.518171,0.00956 C 24.40089,5.7893644 16.593149,6.8789009 9.570315,8.8190405 L 9.0849131,8.9528432 8.8990146,9.3924808 C 5.1500599,18.424166 4.1999116,29.394246 4.1999116,40.061979 c 0,10.667733 0.8675267,21.188618 4.461566,30.0865 l 0.1755708,0.430081 0.4750741,0.14336 c 7.6115135,2.293761 16.1421925,3.584001 24.6728715,3.727361 h 0.196227 c 0.495729,0.0096 1.001786,0.01911 1.518171,0.01911 8.427403,0 16.524318,-1.060864 24.073866,-3.153921 l 0.485403,-0.133802 0.185898,-0.439639 c 3.759282,-9.01257 4.719759,-19.983589 4.719759,-30.679055 0,-10.695466 -0.867528,-21.188618 -4.471894,-30.0960578 L 60.516853,9.5358409 60.041779,9.3924808 C 52.409609,7.108277 43.87893,5.8180364 35.379234,5.6746763 34.780227,5.6651187 34.232859,5.6555621 33.675163,5.6555615 Z"
       style="fill:#ff0000;stroke:#ffffff;stroke-width:1.84341729;stroke-miterlimit:4;stroke-dasharray:none" />
    <path
       id="path1154"
       d="m 33.614853,4.6077955 c 0.591098,0 1.182197,0.01013 1.784241,0.02026 8.932155,0.1519464 17.809578,1.4890758 25.822246,3.8898304 3.787408,9.3599041 4.709928,20.5803481 4.709928,31.5440931 0,10.963745 -1.01009,22.680548 -4.961693,32.151879 -7.881312,2.18803 -16.353723,3.302304 -25.198307,3.302304 -0.536368,0 -1.072735,-0.01013 -1.609102,-0.02026 H 33.97608 C 25.022033,75.343956 16.14461,74.006827 8.1428892,71.595943 4.3664269,62.256298 3.443547,51.035521 3.443547,40.061979 c 0,-10.973542 1.01045,-22.670418 4.9401601,-32.1417498 7.3668369,-2.036083 15.4670749,-3.170617 23.6439369,-3.3023039 0.525421,-0.01013 1.061788,-0.01013 1.587209,-0.01013 m 0,-1.0129766 c -0.536367,0 -1.072734,0 -1.609101,0.01013 C 23.785105,3.7366356 15.509726,4.891429 8.0662653,6.9477716 L 7.5517907,7.0895883 7.3547579,7.5555576 C 3.3812628,17.128188 2.3742062,28.755311 2.3742062,40.061979 c 0,11.306668 0.9194864,22.457692 4.7287876,31.888505 l 0.1860865,0.45584 0.5035283,0.151947 c 8.0673984,2.431144 17.1090154,3.798662 26.1506324,3.950608 h 0.207979 c 0.525421,0.01013 1.061788,0.02026 1.609101,0.02026 8.932155,0 17.514028,-1.124404 25.51575,-3.342823 l 0.514475,-0.141816 0.197032,-0.46597 c 3.984442,-9.55237 5.002445,-21.180489 5.002445,-32.516551 0,-11.336062 -0.919487,-22.457692 -4.739734,-31.8986353 L 62.064202,7.7075041 61.560674,7.5555576 C 53.471382,5.1345434 44.429765,3.7670249 35.420987,3.6150784 c -0.634884,-0.01013 -1.215036,-0.020259 -1.806134,-0.02026 z"
       style="fill:#000000;stroke:#000000;stroke-width:1.95382714;stroke-miterlimit:4;stroke-dasharray:none" />
    <g
       id="g1810">
      <path
         d="M 6.5134911,7.7433673 C 5.6489029,6.8479453 4.058602,6.5681013 3.6272194,7.3820013 3.284151,8.0292783 3.3625296,8.5309135 4.395235,8.9201755 3.2963719,9.5187755 1.4857674,9.4447465 1.1893447,7.4467713 0.95320848,5.8551433 2.674739,4.8863543 3.1399725,5.0916244 3.0034432,3.6818714 1.8221094,4.0692802 0.95849208,3.2813384 0.34259068,2.7194046 0.23126071,-0.02624603 0.0561761,0.04378767 -0.0138576,0.21887227 2.7317937,0.33020157 3.2937267,0.94610377 4.0816685,1.8097211 3.6942598,2.9910547 5.1040128,3.1275841 4.8987425,2.6623507 5.8675315,0.94082017 7.4591593,1.1769564 9.4571345,1.4733791 9.5311625,3.2839847 8.9325635,4.3828467 8.5433008,3.3501417 8.041666,3.2717627 7.3943894,3.6148312 6.5804899,4.0462137 6.8603354,5.6365129 7.7557553,6.5011023"
         style="fill:#000000;stroke:#000000;stroke-width:0.1112323px;stroke-linecap:butt;stroke-linejoin:miter;stroke-opacity:1"
         id="path1737-3" />
      <path
         d="m 62.850738,7.7433673 c 0.864588,-0.895422 2.454889,-1.175266 2.886271,-0.361366 0.343069,0.647277 0.26469,1.148912 -0.768015,1.538174 1.098863,0.5986 2.909467,0.524571 3.20589,-1.473404 0.236136,-1.591628 -1.485394,-2.560417 -1.950628,-2.3551469 0.13653,-1.409753 1.317863,-1.0223442 2.181481,-1.810286 0.615901,-0.5619338 0.727231,-3.30758442 0.902316,-3.23755072 0.07003,0.1750846 -2.675618,0.2864139 -3.237551,0.9023161 C 65.28256,1.8097211 65.669969,2.9910547 64.260216,3.1275841 64.465486,2.6623507 63.496697,0.94082018 61.905069,1.1769564 c -1.997975,0.2964227 -2.072003,2.1070283 -1.473404,3.2058903 0.389263,-1.032705 0.890898,-1.111084 1.538174,-0.7680155 0.8139,0.4313825 0.534054,2.0216817 -0.361366,2.8862711"
         style="fill:#000000;stroke:#000000;stroke-width:0.1112323px;stroke-linecap:butt;stroke-linejoin:miter;stroke-opacity:1"
         id="path1737-3-5" />
      <path
         d="m 62.850738,72.244244 c 0.864588,0.895422 2.454889,1.175266 2.886272,0.361366 0.343068,-0.647277 0.264689,-1.148912 -0.768016,-1.538174 1.098863,-0.5986 2.909468,-0.524571 3.20589,1.473404 0.236137,1.591628 -1.485394,2.560417 -1.950628,2.355147 0.13653,1.409753 1.317864,1.022344 2.181481,1.810286 0.615901,0.561934 0.727231,3.307584 0.902316,3.237551 0.07003,-0.175085 -2.675618,-0.286414 -3.237551,-0.902317 -0.787942,-0.863617 -0.400533,-2.04495 -1.810286,-2.18148 0.20527,0.465234 -0.763519,2.186764 -2.355146,1.950628 -1.997976,-0.296423 -2.072004,-2.107028 -1.473405,-3.20589 0.389263,1.032705 0.890898,1.111084 1.538175,0.768015 0.813899,-0.431382 0.534054,-2.021682 -0.361366,-2.886271"
         style="fill:#000000;stroke:#000000;stroke-width:0.1112323px;stroke-linecap:butt;stroke-linejoin:miter;stroke-opacity:1"
         id="path1737-3-7" />
      <path
         d="M 6.513491,72.244245 C 5.648903,73.139667 4.058602,73.419511 3.62722,72.605611 3.284151,71.958334 3.36253,71.456699 4.395235,71.067437 c -1.098863,-0.5986 -2.909467,-0.524571 -3.20589,1.473404 -0.23613599,1.591628 1.485394,2.560417 1.950628,2.355147 -0.13653,1.409753 -1.317863,1.022344 -2.18148099,1.810286 -0.615901,0.561933 -0.727231,3.307584 -0.902316,3.23755 C -0.01385399,79.76874 2.731794,79.65741 3.293727,79.041508 4.081669,78.177891 3.69426,76.996557 5.104013,76.860028 4.898743,77.325261 5.867532,79.046792 7.45916,78.810656 9.457135,78.514233 9.531163,76.703627 8.932564,75.604765 8.543301,76.63747 8.041666,76.715849 7.39439,76.372781 6.58049,75.941398 6.860336,74.351099 7.755756,73.48651"
         style="fill:#000000;stroke:#000000;stroke-width:0.1112323px;stroke-linecap:butt;stroke-linejoin:miter;stroke-opacity:1"
         id="path1737-3-5-5" />
    </g>
    <path
       id="path1154-9"
       d="m 33.712865,7.4258691 c 0.536813,0 1.07363,0.00933 1.620386,0.01865 8.111875,0.1398689 16.174044,1.3707167 23.450873,3.5806479 3.439594,8.615932 4.277395,18.944521 4.277395,29.036812 0,10.092292 -0.917329,20.877786 -4.506039,29.596289 -7.157536,2.014114 -14.851888,3.03982 -22.884234,3.03982 -0.487111,0 -0.974221,-0.0094 -1.461331,-0.01865 H 34.040918 C 25.909161,72.53957 17.846991,71.308722 10.580105,69.089467 7.1504515,60.492184 6.3123238,50.163289 6.3123238,40.061979 c 0,-10.101311 0.9176558,-20.868461 4.4864832,-29.586965 6.690308,-1.8742449 14.046665,-2.9186005 21.472608,-3.0398203 0.47717,-0.00933 0.964281,-0.00933 1.44145,-0.00933 m 0,-0.9324602 c -0.487111,0 -0.974221,0 -1.46133,0.00933 C 24.785826,6.6239532 17.270413,7.686958 10.510517,9.5798526 L 10.043289,9.710397 9.8643508,10.139328 c -3.6085914,8.811751 -4.5231655,19.514693 -4.5231655,29.922651 0,10.407958 0.8350459,20.672644 4.294522,29.353849 l 0.1689973,0.419608 0.4572874,0.13987 c 7.326533,2.237904 15.537818,3.496724 23.749103,3.636593 h 0.188879 c 0.47717,0.0094 0.96428,0.01865 1.461331,0.01865 8.111875,0 15.905636,-1.035031 23.172525,-3.077119 l 0.467228,-0.130544 0.178938,-0.428932 c 3.618533,-8.793101 4.543048,-19.496959 4.543048,-29.931975 0,-10.435016 -0.835047,-20.672644 -4.304463,-29.363174 l -0.168997,-0.419609 -0.457288,-0.13987 C 51.74588,7.9107484 43.534594,6.6519271 35.353133,6.512058 34.776554,6.502738 34.249678,6.493409 33.712865,6.493409 Z"
       style="fill:#000000;stroke:none;stroke-width:1.78642213;stroke-miterlimit:4;stroke-dasharray:none" />
    <path
       id="path1154-9-3"
       d="m 33.712865,7.4258686 c 0.536813,0 1.07363,0.00933 1.620386,0.01865 8.111875,0.1398689 16.174044,1.3707167 23.450873,3.5806484 3.439594,8.615932 4.277395,18.944521 4.277395,29.036812 0,10.092292 -0.917329,20.877786 -4.506039,29.596288 -7.157536,2.014114 -14.851888,3.03982 -22.884234,3.03982 -0.487111,0 -0.974221,-0.0094 -1.461331,-0.01865 H 34.040918 C 25.909161,72.539569 17.846991,71.308722 10.580105,69.089466 7.1504515,60.492184 6.3123238,50.163288 6.3123238,40.061979 c 0,-10.101312 0.9176558,-20.868461 4.4864832,-29.586965 6.690308,-1.8742454 14.046665,-2.918601 21.472608,-3.0398208 0.47717,-0.00933 0.964281,-0.00933 1.44145,-0.00933 m 0,-0.9324602 c -0.487111,0 -0.974221,0 -1.46133,0.00933 C 24.785826,6.6239527 17.270413,7.6869575 10.510517,9.5798521 L 10.043289,9.7103965 9.8643508,10.139328 C 6.2557594,18.951079 5.3411853,29.65402 5.3411853,40.061979 c 0,10.407958 0.8350459,20.672643 4.294522,29.353849 l 0.1689973,0.419608 0.4572874,0.13987 c 7.326533,2.237904 15.537818,3.496724 23.749103,3.636593 h 0.188879 c 0.47717,0.0094 0.96428,0.01865 1.461331,0.01865 8.111875,0 15.905636,-1.035032 23.172525,-3.077119 l 0.467228,-0.130544 0.178938,-0.428932 c 3.618533,-8.793101 4.543048,-19.49696 4.543048,-29.931975 0,-10.435016 -0.835047,-20.672644 -4.304463,-29.363175 l -0.168997,-0.419609 -0.457288,-0.13987 C 51.74588,7.9107479 43.534594,6.6519266 35.353133,6.5120575 34.776554,6.5027375 34.249678,6.4934085 33.712865,6.4934085 Z"
       style="fill:#000000;stroke:none;stroke-width:1.78642213;stroke-miterlimit:4;stroke-dasharray:none" />
  </g>
</svg>
