<?xml version="1.0" encoding="UTF-8"?><svg id="Capa_2" xmlns="http://www.w3.org/2000/svg" xmlns:xlink="http://www.w3.org/1999/xlink" viewBox="0 0 69.02 80"><defs><style>.cls-1{fill:#c89aed;}.cls-2{stroke-width:.96px;}.cls-2,.cls-3,.cls-4,.cls-5,.cls-6,.cls-7,.cls-8,.cls-9,.cls-10,.cls-11,.cls-12{fill:none;}.cls-2,.cls-3,.cls-4,.cls-5,.cls-6,.cls-8,.cls-11,.cls-12{stroke:#000;}.cls-2,.cls-4,.cls-6,.cls-7,.cls-8,.cls-11,.cls-12{stroke-linecap:round;stroke-linejoin:round;}.cls-13{fill:#fff;}.cls-14{fill:#f8ffbf;}.cls-15{fill:#7b7be8;}.cls-16{fill:#a88347;}.cls-17{fill:#782ab5;}.cls-3,.cls-5{stroke-miterlimit:10;}.cls-4{stroke-width:.5px;}.cls-18{fill:#1c46ff;}.cls-5{stroke-width:.75px;}.cls-7{stroke:#deb778;stroke-dasharray:0 0 0 4.06;}.cls-19{fill:#deb778;}.cls-8{stroke-width:.97px;}.cls-20{fill:url(#USGS_19_Inundación_de_tierra_2);}.cls-10{stroke:#1d1d1b;stroke-dasharray:0 0 2 2;stroke-width:.3px;}.cls-11{stroke-width:.96px;}.cls-21{fill:#fcf0c5;}.cls-22{fill:#b83521;}.cls-12{stroke-width:.97px;}</style><pattern id="USGS_19_Inundación_de_tierra_2" x="0" y="0" width="72" height="72" patternTransform="translate(-20.48 -16207) rotate(-90)" patternUnits="userSpaceOnUse" viewBox="0 0 72 72"><g><rect class="cls-9" width="72" height="72"/><g><line class="cls-10" x1="71" y1="71" x2="144.44" y2="71"/><line class="cls-10" x1="71" y1="67" x2="144.44" y2="67"/><line class="cls-10" x1="71" y1="63" x2="144.44" y2="63"/><line class="cls-10" x1="71" y1="59" x2="144.44" y2="59"/><line class="cls-10" x1="71" y1="55" x2="144.44" y2="55"/><line class="cls-10" x1="71" y1="51" x2="144.44" y2="51"/><line class="cls-10" x1="71" y1="47" x2="144.44" y2="47"/><line class="cls-10" x1="71" y1="43" x2="144.44" y2="43"/><line class="cls-10" x1="71" y1="39" x2="144.44" y2="39"/><line class="cls-10" x1="71" y1="35" x2="144.44" y2="35"/><line class="cls-10" x1="71" y1="31" x2="144.44" y2="31"/><line class="cls-10" x1="71" y1="27" x2="144.44" y2="27"/><line class="cls-10" x1="71" y1="23" x2="144.44" y2="23"/><line class="cls-10" x1="71" y1="19" x2="144.44" y2="19"/><line class="cls-10" x1="71" y1="15" x2="144.44" y2="15"/><line class="cls-10" x1="71" y1="11" x2="144.44" y2="11"/><line class="cls-10" x1="71" y1="7" x2="144.44" y2="7"/><line class="cls-10" x1="71" y1="3" x2="144.44" y2="3"/></g><g><line class="cls-10" x1="-1" y1="71" x2="72.44" y2="71"/><line class="cls-10" x1="-1" y1="67" x2="72.44" y2="67"/><line class="cls-10" x1="-1" y1="63" x2="72.44" y2="63"/><line class="cls-10" x1="-1" y1="59" x2="72.44" y2="59"/><line class="cls-10" x1="-1" y1="55" x2="72.44" y2="55"/><line class="cls-10" x1="-1" y1="51" x2="72.44" y2="51"/><line class="cls-10" x1="-1" y1="47" x2="72.44" y2="47"/><line class="cls-10" x1="-1" y1="43" x2="72.44" y2="43"/><line class="cls-10" x1="-1" y1="39" x2="72.44" y2="39"/><line class="cls-10" x1="-1" y1="35" x2="72.44" y2="35"/><line class="cls-10" x1="-1" y1="31" x2="72.44" y2="31"/><line class="cls-10" x1="-1" y1="27" x2="72.44" y2="27"/><line class="cls-10" x1="-1" y1="23" x2="72.44" y2="23"/><line class="cls-10" x1="-1" y1="19" x2="72.44" y2="19"/><line class="cls-10" x1="-1" y1="15" x2="72.44" y2="15"/><line class="cls-10" x1="-1" y1="11" x2="72.44" y2="11"/><line class="cls-10" x1="-1" y1="7" x2="72.44" y2="7"/><line class="cls-10" x1="-1" y1="3" x2="72.44" y2="3"/><line class="cls-10" x1="1.04" y1="69" x2="74.48" y2="69"/><line class="cls-10" x1="1.04" y1="65" x2="74.48" y2="65"/><line class="cls-10" x1="1.04" y1="61" x2="74.48" y2="61"/><line class="cls-10" x1="1.04" y1="57" x2="74.48" y2="57"/><line class="cls-10" x1="1.04" y1="53" x2="74.48" y2="53"/><line class="cls-10" x1="1.04" y1="49" x2="74.48" y2="49"/><line class="cls-10" x1="1.04" y1="45" x2="74.48" y2="45"/><line class="cls-10" x1="1.04" y1="41" x2="74.48" y2="41"/><line class="cls-10" x1="1.04" y1="37" x2="74.48" y2="37"/><line class="cls-10" x1="1.04" y1="33" x2="74.48" y2="33"/><line class="cls-10" x1="1.04" y1="29" x2="74.48" y2="29"/><line class="cls-10" x1="1.04" y1="25" x2="74.48" y2="25"/><line class="cls-10" x1="1.04" y1="21" x2="74.48" y2="21"/><line class="cls-10" x1="1.04" y1="17" x2="74.48" y2="17"/><line class="cls-10" x1="1.04" y1="13" x2="74.48" y2="13"/><line class="cls-10" x1="1.04" y1="9" x2="74.48" y2="9"/><line class="cls-10" x1="1.04" y1="5" x2="74.48" y2="5"/><line class="cls-10" x1="1.04" y1="1" x2="74.48" y2="1"/></g><g><line class="cls-10" x1="-73" y1="71" x2=".44" y2="71"/><line class="cls-10" x1="-73" y1="67" x2=".44" y2="67"/><line class="cls-10" x1="-73" y1="63" x2=".44" y2="63"/><line class="cls-10" x1="-73" y1="59" x2=".44" y2="59"/><line class="cls-10" x1="-73" y1="55" x2=".44" y2="55"/><line class="cls-10" x1="-73" y1="51" x2=".44" y2="51"/><line class="cls-10" x1="-73" y1="47" x2=".44" y2="47"/><line class="cls-10" x1="-73" y1="43" x2=".44" y2="43"/><line class="cls-10" x1="-73" y1="39" x2=".44" y2="39"/><line class="cls-10" x1="-73" y1="35" x2=".44" y2="35"/><line class="cls-10" x1="-73" y1="31" x2=".44" y2="31"/><line class="cls-10" x1="-73" y1="27" x2=".44" y2="27"/><line class="cls-10" x1="-73" y1="23" x2=".44" y2="23"/><line class="cls-10" x1="-73" y1="19" x2=".44" y2="19"/><line class="cls-10" x1="-73" y1="15" x2=".44" y2="15"/><line class="cls-10" x1="-73" y1="11" x2=".44" y2="11"/><line class="cls-10" x1="-73" y1="7" x2=".44" y2="7"/><line class="cls-10" x1="-73" y1="3" x2=".44" y2="3"/><line class="cls-10" x1="-70.96" y1="69" x2="2.48" y2="69"/><line class="cls-10" x1="-70.96" y1="65" x2="2.48" y2="65"/><line class="cls-10" x1="-70.96" y1="61" x2="2.48" y2="61"/><line class="cls-10" x1="-70.96" y1="57" x2="2.48" y2="57"/><line class="cls-10" x1="-70.96" y1="53" x2="2.48" y2="53"/><line class="cls-10" x1="-70.96" y1="49" x2="2.48" y2="49"/><line class="cls-10" x1="-70.96" y1="45" x2="2.48" y2="45"/><line class="cls-10" x1="-70.96" y1="41" x2="2.48" y2="41"/><line class="cls-10" x1="-70.96" y1="37" x2="2.48" y2="37"/><line class="cls-10" x1="-70.96" y1="33" x2="2.48" y2="33"/><line class="cls-10" x1="-70.96" y1="29" x2="2.48" y2="29"/><line class="cls-10" x1="-70.96" y1="25" x2="2.48" y2="25"/><line class="cls-10" x1="-70.96" y1="21" x2="2.48" y2="21"/><line class="cls-10" x1="-70.96" y1="17" x2="2.48" y2="17"/><line class="cls-10" x1="-70.96" y1="13" x2="2.48" y2="13"/><line class="cls-10" x1="-70.96" y1="9" x2="2.48" y2="9"/><line class="cls-10" x1="-70.96" y1="5" x2="2.48" y2="5"/><line class="cls-10" x1="-70.96" y1="1" x2="2.48" y2="1"/></g></g></pattern></defs><g id="BG"><g><path class="cls-17" d="M64.02,40c0,11.47-1.89,22.39-5.5,31.74-7.2,2.16-14.94,3.26-23.02,3.26-.49,0-.98-.01-1.47-.02h-.17c-8.18-.15-16.29-1.47-23.6-3.85-3.45-9.22-5.26-19.93-5.26-31.13s1.89-22.38,5.48-31.73c6.73-2.01,14.13-3.13,21.6-3.26,.48-.01,.97-.01,1.45-.01,.54,0,1.08,.01,1.63,.02,8.16,.15,16.27,1.47,23.59,3.84,3.46,9.24,5.27,19.95,5.27,31.14Z"/><path class="cls-20" d="M34.03,5.59V74.98h-.17c-8.18-.15-16.29-1.47-23.6-3.85-3.45-9.22-5.26-19.93-5.26-31.13s1.89-22.38,5.48-31.73c6.73-2.01,14.13-3.13,21.6-3.26,.65,.16,1.3,.36,1.95,.58Z"/></g></g><g id="Capa_10"><g><path class="cls-1" d="M18.57,33.57s-2.93-4.56-4.22-4.3c-.43,6.03,.26,12.66,5.77,13.34,.52,2.84,.86,3.01,.86,3.01l2.67,2.15-.34,4.48-17.99,6.11,3.7,15.15,30.13,2.67,20.49-4.05,2.67-14.38-17.39-5.25-.69-4.56,2.93-2.32,.77-2.93s2.58,1.12,4.56-3.44,1.21-9.9,1.21-9.9c0,0-3.1,1.98-4.22,4.65-.09-5.94-.26-11.28-2.75-15.75s-10.93-6.89-16.19-5.34-8.35,3.7-10.24,7.23-1.72,13.43-1.72,13.43Z"/><path class="cls-13" d="M33.47,54.67V17.45s5.15-.27,7.73-1.33c2.93-.89,5.86,2.13,7.19,6.13,1.42,4.44,1.33,16.88-1.51,23.27-5.6,6.22-8.17,7.28-8.17,7.28,0,0-2.4,2.75-5.24,1.87Z"/><path class="cls-15" d="M23.11,16.8s1.61-1.48,3.76-.54,6.78,1.74,10.06,1.07,5.84-1.61,7.45-1.27c-3.89-3.35-8.72-3.96-12.68-3.56s-6.84,2.88-8.59,4.29Z"/><path class="cls-15" d="M21.96,35.24l-1.34-2.45s2.22-1.58,4.15-.93,5.96,2.45,10.69,1.69,5.72-1.64,7.47-1.75,2.74,.41,3.56,.99c-.7,1.75-1.58,2.45-1.58,2.45l-3.27-1.23-4.44,.93h-7.65l-4.5-1.05-3.1,1.34Z"/><path class="cls-14" d="M29.26,35.36s-1.81,.93-3.97,.35-1.87-1.23-1.87-1.23l1.64-.58,4.5,1.05-.29,.41Z"/><path class="cls-14" d="M37.57,35.36s1.81,.93,3.97,.35,1.87-1.23,1.87-1.23l-1.37-.49c-.17-.06-.36-.07-.54-.03l-4.22,.99,.29,.41Z"/><path class="cls-15" d="M29.1,35.41s-3.17,1.31-5.68-.93c-1.29,.24-1.46,.76-1.46,.76,0,0,.27,2.86,4.6,2.6,2.11-1.64,2.53-2.43,2.53-2.43Z"/><path class="cls-15" d="M37.7,35.41s3.17,1.31,5.68-.93c1.29,.24,1.46,.76,1.46,.76,0,0-.27,2.86-4.6,2.6-2.11-1.64-2.53-2.43-2.53-2.43Z"/><path class="cls-1" d="M25.43,17.4c.27,0,.55,.04,.83,.12,1.43,.41,4.06,1.16,7.35,1.37,.08,.03,.17,.05,.26,.05,.07,.02,.14,.02,.21,.02,.13,0,.26-.03,.39-.08,3.23-.23,5.83-.96,7.24-1.35h.05c.29-.09,.57-.13,.84-.13,.51,0,.99,.15,1.42,.43,1.23,1.31,2.16,2.92,2.78,4.79-.2,.77-.62,1.99-1.42,2.92-.31,.36-.32,.88-.04,1.25,1.33,1.76,2.18,4.96,2.51,6.39-.33,5.52-1.66,10.2-2.09,11.59l-8.15,7.2c-.13,.11-.21,.22-.25,.28l-.03,.05s-.33,.44-1.25,.84c-.65,.29-1.35,.43-2.07,.43s-1.42-.15-2.08-.44c-.91-.39-1.25-.83-1.25-.83,0,0,0,0,0,0-.01-.02-.03-.04-.04-.06-.06-.08-.12-.15-.19-.23-.01-.01-.03-.03-.04-.04l-8.16-7.22c-.43-1.4-1.77-6.11-2.09-11.63,.39-1.7,1.22-4.66,2.5-6.35,.28-.37,.27-.9-.04-1.25-.75-.88-1.18-2.02-1.42-2.91,.61-1.83,1.49-3.39,2.62-4.65,.34-.28,.88-.59,1.63-.59m0-1c-1.09,0-1.88,.49-2.32,.87-1.21,1.33-2.25,3.07-2.96,5.34,.23,.95,.71,2.43,1.7,3.59-1.43,1.88-2.31,5.1-2.71,6.87,.34,6.22,1.96,11.44,2.23,12.28l8.37,7.4s.07,.08,.1,.12c0,0,.42,.65,1.69,1.2,.79,.35,1.63,.52,2.47,.52s1.69-.17,2.47-.52c1.27-.55,1.68-1.2,1.68-1.2,.03-.04,.06-.09,.1-.12l8.37-7.4c.27-.84,1.88-6.04,2.23-12.24-.4-1.77-1.29-5.02-2.72-6.91,1-1.17,1.48-2.65,1.7-3.61-.74-2.37-1.87-4.16-3.17-5.52-.47-.33-1.16-.67-2.08-.67-.34,0-.71,.05-1.1,.16-1.42,.4-4.05,1.15-7.33,1.35l-.08,.06-.08-.03h-.06s-.06-.03-.06-.03c-3.25-.19-5.9-.94-7.34-1.35-.4-.11-.77-.16-1.11-.16h0Z"/><path d="M19.02,35.06s-2.9-6.06-4.66-5.8c-.51,6.95,1.81,13.46,5.73,13.73-.98-4.72-1.07-7.93-1.07-7.93Z"/><path d="M44.1,48.7l-18.54,25.68-16.02-2.41-2.52-14.16,16.3-5.56,.38-4.1,5.93,5.27s2.3,1.76,5.71,1.43c3.07-.44,3.39-2.04,3.39-2.04l5.39-4.1Z"/><path class="cls-14" d="M44.46,56.4s-1.97,6.56-11.92,6.01c-4.92,6.89-4.92,8.53-4.92,8.53l5.14,6.56,4.59-1.2s4.16-6.89,5.58-10.5,1.53-9.4,1.53-9.4Z"/><polygon class="cls-22" points="31.44 62.67 36.43 62.54 39.02 66.36 35.84 70.38 38.56 74.07 35.84 76.79 30.53 75.3 29.36 73.29 31.37 70.12 28.59 66.94 31.44 62.67"/><path class="cls-13" d="M23.38,38.64c.52,.2,1.18,.4,1.94,.5,.54,.07,.81,.68,.54,1.15-.49,.84-.87,1.67-1.14,2.35-.25,.63-1.14,.66-1.41,.03-.38-.86-.78-2-.95-3.24-.08-.56,.5-1,1.03-.79Z"/><path class="cls-13" d="M50.18,33.38l2.27-1.08s.15,6.44-2.73,9.69c4.23-2.32,4.18-7.94,4.18-9.07s-.36-3.56-.36-3.56c0,0-2.01,1.8-3.35,4.02Z"/><path class="cls-18" d="M44.54,52.53s.84,15-7.24,22.24c13.95,1.57,21.08-1.36,21.08-1.36l4.76-14.95-18.6-5.92Z"/><polygon class="cls-18" points="27.55 71.21 30.12 74.55 25.36 74.15 27.55 71.21"/><path class="cls-18" d="M20.68,60.03c2.18,4.33,4.44,8.65,7.42,12.46,0,0-.75,.67-.75,.67-3.32-3.7-5.11-8.49-6.67-13.13h0Z"/><path class="cls-2" d="M47.04,45.62l-8.47,7.49s-.44,.77-1.9,1.4c-1.69,.74-3.64,.74-5.34,0-1.46-.63-1.91-1.4-1.91-1.4l-8.47-7.49s-4-11.63-1.61-21.88c2.76-11.73,13.99-11.33,13.99-11.33h1.33s11.23-.4,13.98,11.33c2.39,10.25-1.61,21.88-1.61,21.88Z"/><path class="cls-12" d="M18.75,34.56s-2.46-4.99-4.39-5.28c-.97,6.77,1.94,13.92,5.73,13.47"/><path class="cls-12" d="M49.34,34.56s2.46-4.99,4.39-5.28c.97,6.77-1.94,13.92-5.73,13.47"/><path d="M18.87,34.35s.94-5.45,2.97-8.15c-1.6-1.87-1.87-4.57-1.87-4.57,0,0-1.87,6.44-1.1,12.72Z"/><path d="M49.12,34.35s-.94-5.45-2.97-8.15c1.6-1.87,1.87-4.57,1.87-4.57,0,0,1.87,6.44,1.1,12.72Z"/><path class="cls-5" d="M45.65,17.46s-1.53-2.02-4.25-1.26c-1.69,.48-4.23,1.16-7.36,1.34,0,0-.02-.01-.02,0,0,0,.02,0,.02,0,0,.01-.01,0-.02,0-3.14-.18-5.67-.86-7.37-1.34-2.72-.76-4.25,1.26-4.25,1.26"/><path d="M46.5,32.83c-2.01-1.26-4.19-1.02-6.27-.06-4.14,1.89-9.2,1.89-13.35,0-1.04-.38-2.08-.84-3.13-.83-1.07-.02-2.16,.34-3.13,.89,.86-.73,1.94-1.22,3.11-1.35,1.21-.1,2.32,.31,3.39,.61,4.26,1.56,8.62,1.56,12.88,0,1.07-.3,2.18-.71,3.39-.61,1.17,.14,2.25,.63,3.11,1.35h0Z"/><polygon points="31.47 30.46 32.59 33.7 31.6 33.89 31.47 30.46 31.47 30.46"/><polygon points="35.4 30.46 35.27 33.89 34.29 33.7 35.4 30.46 35.4 30.46"/><path d="M41.61,28.02c-.65,.41-1.5,.13-2.12-.23-1.8-1.14-3.87-1.72-6-1.64-2.13-.08-4.2,.5-6,1.64-.62,.36-1.47,.64-2.12,.23,.7,.25,1.4-.1,1.93-.51,1.73-1.38,3.98-2.14,6.19-2.05,2.21-.09,4.46,.68,6.19,2.05,.53,.42,1.24,.76,1.93,.51h0Z"/><path d="M37.49,24.37c-2.76-.53-5.49-.51-8.26,.11,2.38-1.56,5.82-1.59,8.26-.11h0Z"/><path d="M36.22,22.21c-1.91-.37-3.8-.36-5.72,.08,1.64-1.08,4.04-1.09,5.72-.08h0Z"/><path d="M20.98,38.22c.6,2.61,1.58,5.18,3.1,7.39,0,0,0,.92,0,.92,0,.05-.08,.07-.1,.01-.1-.31-.15-.63-.22-.94l.05,.16c-1.95-1.96-3.01-4.78-2.93-7.53,0-.06,.08-.08,.1-.02h0Z"/><path d="M46.1,38.24c-.57,2.57-1.58,5.35-3.09,7.37,0,0,0,.92,0,.92,0,.03-.02,.05-.05,.05-.11-.06-.26-.86-.26-1.04,.3-.63,.58-1.26,.85-1.89,.78-1.78,1.54-3.72,2.45-5.44,.02-.06,.11-.05,.1,.02h0Z"/><path d="M22.01,35.28c.99-.65,2.02-1.24,3.19-1.51,1.54,.1,3.06,.33,4.57,.69,.26,.05,.37,.38,.21,.58-.97,1.2-1.92,2.48-3.41,3.07-1.04,0-2.16-.2-2.98-.85,.94,.43,1.97,.45,2.96,.36,.77-.52,2.11-1.98,2.83-3.02,0,0,.21,.58,.21,.58-1.32-.35-3.27-.63-4.34-.89-1.1,.16-2.19,.59-3.24,.98h0Z"/><path class="cls-4" d="M23.49,34.69s.56,.78,2.58,1.07,3.61-.93,3.61-.93"/><path d="M45.08,35.28c-1.05-.39-2.14-.82-3.24-.98-1.07,.26-3.02,.54-4.34,.89,0,0,.21-.58,.21-.58,.72,1.03,2.06,2.51,2.83,3.02,.98,.09,2.01,.07,2.96-.36-.83,.65-1.95,.85-2.98,.85-1.49-.6-2.44-1.88-3.41-3.07-.12-.16-.09-.39,.07-.51,1.52-.46,3.13-.63,4.71-.76,1.18,.26,2.21,.85,3.2,1.51h0Z"/><path class="cls-4" d="M43.6,34.69s-.56,.78-2.58,1.07-3.61-.93-3.61-.93"/><path d="M35.2,38.48c.82,.22,1.58,.71,2.12,1.38,.08,.1,.06,.24-.04,.32-.71,.29-1.45,.51-2.18,.75,0,0,.09-.05,.09-.05-.52,.46-1.06,.89-1.59,1.34-.14,.12-.34,.11-.47,0-.53-.45-1.08-.88-1.6-1.33l.09,.05c-.7-.22-1.4-.46-2.1-.71-.12-.04-.18-.17-.14-.29,.52-.74,1.33-1.22,2.14-1.45-.72,.42-1.32,.99-1.71,1.66l-.14-.37c.75,.17,1.51,.32,2.25,.55,.57,.42,1.12,.87,1.67,1.31h-.47c.54-.43,1.08-.87,1.63-1.28,.73-.27,1.54-.39,2.3-.58,0,0-.14,.37-.14,.37-.39-.67-1-1.24-1.72-1.65h0Z"/><path d="M28.58,41.3c-.36,1.32-1.39,2.31-2.01,3.49-.24,.38-.47,.77-.73,1.16,.2-1.38,.76-2.69,1.57-3.82,.29-.36,.65-.7,1.17-.83h0Z"/><path d="M37.78,41.3c.52,.13,.88,.46,1.17,.83,.81,1.13,1.38,2.44,1.57,3.82-.25-.39-.49-.77-.73-1.16-.63-1.18-1.65-2.17-2.01-3.49h0Z"/><path class="cls-8" d="M39.04,43.24s-.26,.97-1.14,1.57c-1.8-.54-3.63-.23-4.7,.91-1.07-1.14-2.91-1.45-4.71-.91-.88-.6-1.14-1.57-1.14-1.57"/><path d="M37.34,46.33c.05,.42,.08,.72-.09,1.15-.03,.1-.22,.11-.3,.15-2.56,.64-5.15,.63-7.7-.05-.25-.14-.21-.53-.24-.7,0-.13-.02-.58,.09-.6,.15,.28,.18,.69,.38,.94,0,0-.04-.02-.04-.02,1.87-.03,5.64-.03,7.51,0,0,0-.04,.02-.04,.02,.17-.26,.26-.59,.35-.91,.01-.06,.1-.03,.09,.02h0Z"/><path class="cls-11" d="M44.57,47.93l.02,7.93s-2.08,6.29-9.59,6.61c-.47,.02-1.41,.02-1.88,0-7.6-.26-9.57-6.74-9.57-6.74l.04-7.65"/><g><path class="cls-6" d="M7.64,57.65l15.89-5.35s-1.59,13.89,6.98,22.36"/><path class="cls-6" d="M62.58,58.19l-17.97-5.76s1.45,13.76-7.11,22.23"/></g><line class="cls-6" x1="31.47" y1="62.4" x2="26.91" y2="69.58"/><line class="cls-6" x1="36.54" y1="62.4" x2="41.1" y2="69.58"/><polyline class="cls-6" points="28.77 66.97 31.68 70.43 29.55 73.53"/><polyline class="cls-6" points="38.96 66.65 35.77 70.43 37.89 73.53"/><path class="cls-6" d="M52.54,55.24s.84,11.12-6.86,20.34"/><path class="cls-18" d="M8.94,58.31c3.81-1.34,11.48-3.98,15.31-5.26,0,0-.04,.06-.04,.06v-2.71h.11c.21,1,.39,2,.48,3.02-4.98,2.25-10.5,4.49-15.86,4.89h0Z"/><path class="cls-18" d="M14.88,30.56c.71,2.76,1,5.15,1.76,7.76,.23,.84,.54,1.65,.83,2.59,0,0-.08,.06-.08,.06-2.28-2.77-3.18-7.1-2.51-10.41h0Z"/></g></g><g id="Frame"><g><path class="cls-16" d="M62.56,4.88C54.4,1.94,45.12,.2,35.25,.02c-.57-.01-1.15-.02-1.72-.02C23.88,0,14.77,1.52,6.72,4.21,2.49,14.22,0,26.6,0,40s2.39,25.22,6.45,35.11c8.16,2.94,17.45,4.69,27.32,4.87,.58,.01,1.15,.02,1.73,.02,9.63,0,18.73-1.51,26.78-4.2,4.24-10.01,6.74-22.39,6.74-35.8s-2.4-25.24-6.46-35.12Zm-4.04,66.86c-7.2,2.16-14.94,3.26-23.02,3.26-.49,0-.98-.01-1.47-.02h-.17c-8.18-.15-16.29-1.47-23.6-3.85-3.45-9.22-5.26-19.93-5.26-31.13s1.89-22.38,5.48-31.73c6.73-2.01,14.13-3.13,21.6-3.26,.48-.01,.97-.01,1.45-.01,.54,0,1.08,.01,1.63,.02,8.16,.15,16.27,1.47,23.59,3.84,3.46,9.24,5.27,19.95,5.27,31.14s-1.89,22.39-5.5,31.74Z"/><path class="cls-19" d="M17.21,2.06h0c1.63,.63,2.06,2.75,.81,3.97l-1.26,1.22s8.35-2.37,18.84-1.69h0c-1-1.49-.45-3.52,1.14-4.34l1-.51S28.26-.43,17.21,2.06Z"/><path class="cls-21" d="M21.81,1.66s.7,2.18-.22,3.1c3.77-.41,7.98-.74,11.12-.74-.33-1.33,1.26-3.4,1.26-3.4,0,0-6.17-.26-12.16,1.03Z"/><path class="cls-19" d="M36.25,79.21h0c-1.52-.87-1.62-3.03-.2-4.04l1.43-1.02s-8.61,1.07-18.88-1.19h0c.76,1.63-.09,3.55-1.79,4.11l-1.07,.36s9.19,2.56,20.5,1.78Z"/><path class="cls-21" d="M19.28,77.8s1.76-1.83,1.3-3.09c4.43,.69,9.11,1.14,12.25,1.14-.33,1.33,.44,3.4,.44,3.4,0,0-8-.16-13.99-1.45Z"/><polygon points="47.48 1.77 47.48 6.73 54.49 8.44 54.49 2.62 47.48 1.77"/><line class="cls-3" x1="45.5" y1="1.23" x2="45.5" y2="6.29"/><line class="cls-3" x1="56.47" y1="3.67" x2="56.47" y2="8.73"/><polygon points="47.48 78.74 47.48 73.78 54.49 72.07 54.49 77.88 47.48 78.74"/><line class="cls-3" x1="45.5" y1="79.28" x2="45.5" y2="74.21"/><line class="cls-3" x1="56.47" y1="76.84" x2="56.47" y2="71.77"/><path d="M33.53,1c.56,0,1.14,0,1.7,.02,9.39,.17,18.33,1.74,26.57,4.65,4.07,10.08,6.22,21.94,6.22,34.33s-2.24,24.79-6.49,34.99c-8.12,2.66-16.87,4.01-26.03,4.01-.56,0-1.12,0-1.71-.02-9.25-.17-18.42-1.78-26.58-4.66C3.15,64.25,1,52.39,1,40S3.23,15.21,7.47,5.02C15.6,2.35,24.37,1,33.53,1m0-1C23.88,0,14.77,1.52,6.72,4.21,2.49,14.22,0,26.6,0,40s2.39,25.22,6.45,35.11c8.16,2.94,17.45,4.69,27.32,4.87,.58,.01,1.15,.02,1.73,.02,9.63,0,18.73-1.51,26.78-4.2,4.24-10.01,6.74-22.39,6.74-35.8s-2.4-25.24-6.46-35.12C54.4,1.94,45.12,.2,35.25,.02c-.57,0-1.15-.02-1.72-.02h0Z"/><path class="cls-19" d="M33.53,6c.52,0,1.04,0,1.61,.02,7.87,.14,15.75,1.4,22.84,3.64,3.3,9,5.04,19.47,5.04,30.34s-1.82,21.82-5.26,30.92c-6.98,2.04-14.47,3.08-22.26,3.08-.48,0-.97,0-1.47-.02h-.15c-7.89-.14-15.78-1.41-22.85-3.65-3.29-8.99-5.03-19.46-5.03-30.33s1.81-21.79,5.24-30.91c6.5-1.89,13.7-2.95,20.86-3.08,.47,0,.96,0,1.43,0m0-1c-.48,0-.97,0-1.45,.01-7.47,.13-14.87,1.25-21.6,3.26-3.59,9.35-5.48,20.26-5.48,31.73s1.81,21.91,5.26,31.13c7.31,2.38,15.42,3.7,23.6,3.85h.17c.49,.01,.98,.02,1.47,.02,8.08,0,15.82-1.1,23.02-3.26,3.61-9.35,5.5-20.27,5.5-31.74s-1.81-21.9-5.27-31.14c-7.32-2.37-15.43-3.69-23.59-3.84-.55,0-1.09-.02-1.63-.02h0Z"/><path class="cls-7" d="M8.14,7.1s-12.66,32.94,0,66.06"/><path class="cls-7" d="M60.88,7.58s12.66,32.94,0,66.06"/></g><path d="M33.53,5c.54,0,1.08,.01,1.63,.02,8.16,.15,16.27,1.47,23.59,3.84,3.46,9.24,5.27,19.95,5.27,31.14s-1.89,22.39-5.5,31.74c-7.2,2.16-14.94,3.26-23.02,3.26-.49,0-.98-.01-1.47-.02h-.17c-8.18-.15-16.29-1.47-23.6-3.85-3.45-9.22-5.26-19.93-5.26-31.13s1.89-22.38,5.48-31.73c6.73-2.01,14.13-3.13,21.6-3.26,.48-.01,.97-.01,1.45-.01m0-1c-.49,0-.98,0-1.47,.01-7.51,.13-15.07,1.27-21.87,3.3l-.47,.14-.18,.46c-3.63,9.45-5.55,20.55-5.55,32.09s1.84,22.17,5.32,31.48l.17,.45,.46,.15c7.37,2.4,15.63,3.75,23.89,3.9h.19c.48,.01,.97,.02,1.47,.02,8.16,0,16-1.11,23.31-3.3l.47-.14,.18-.46c3.64-9.43,5.57-20.53,5.57-32.1s-1.84-22.17-5.33-31.49l-.17-.45-.46-.15c-7.39-2.39-15.65-3.74-23.88-3.89-.58-.01-1.12-.02-1.65-.02h0Z"/></g></svg>