<svg id="Capa_2" xmlns="http://www.w3.org/2000/svg" xmlns:xlink="http://www.w3.org/1999/xlink" viewBox="0 0 69.02 80">
<defs >
<style >
.cls-1{fill:#c89aed;}.cls-2{fill:#fff;}.cls-3{fill:#f8ffbf;}.cls-4{fill:#7b7be8;}.cls-5{fill:#a88347;}.cls-6{fill:#782ab5;}.cls-7{stroke-miterlimit:10;}.cls-7,.cls-8,.cls-9{stroke:#000;}.cls-7,.cls-8,.cls-9,.cls-10,.cls-11,.cls-12{fill:none;}.cls-8{stroke-width:.99px;}.cls-8,.cls-9,.cls-10{stroke-linecap:round;stroke-linejoin:round;}.cls-13{fill:#1c46ff;}.cls-10{stroke:#deb778;stroke-dasharray:0 0 0 4.06;}.cls-14{fill:#deb778;}.cls-15{fill:url(#USGS_19_Inundación_de_tierra_2);}.cls-12{stroke:#1d1d1b;stroke-dasharray:0 0 2 2;stroke-width:.3px;}.cls-16{fill:#cf5f2b;}.cls-17{fill:#fcf0c5;}.cls-18{fill:#b83521;}
</style>
<pattern id="USGS_19_Inundación_de_tierra_2" x="0" y="0" width="72" height="72" patternTransform="translate(-92.48 -16207) rotate(-90)" patternUnits="userSpaceOnUse" viewBox="0 0 72 72">
<g >
<rect class="cls-11" width="72" height="72">
</rect>
<g >
<line class="cls-12" x1="71" y1="71" x2="144.44" y2="71">
</line>
<line class="cls-12" x1="71" y1="67" x2="144.44" y2="67">
</line>
<line class="cls-12" x1="71" y1="63" x2="144.44" y2="63">
</line>
<line class="cls-12" x1="71" y1="59" x2="144.44" y2="59">
</line>
<line class="cls-12" x1="71" y1="55" x2="144.44" y2="55">
</line>
<line class="cls-12" x1="71" y1="51" x2="144.44" y2="51">
</line>
<line class="cls-12" x1="71" y1="47" x2="144.44" y2="47">
</line>
<line class="cls-12" x1="71" y1="43" x2="144.44" y2="43">
</line>
<line class="cls-12" x1="71" y1="39" x2="144.44" y2="39">
</line>
<line class="cls-12" x1="71" y1="35" x2="144.44" y2="35">
</line>
<line class="cls-12" x1="71" y1="31" x2="144.44" y2="31">
</line>
<line class="cls-12" x1="71" y1="27" x2="144.44" y2="27">
</line>
<line class="cls-12" x1="71" y1="23" x2="144.44" y2="23">
</line>
<line class="cls-12" x1="71" y1="19" x2="144.44" y2="19">
</line>
<line class="cls-12" x1="71" y1="15" x2="144.44" y2="15">
</line>
<line class="cls-12" x1="71" y1="11" x2="144.44" y2="11">
</line>
<line class="cls-12" x1="71" y1="7" x2="144.44" y2="7">
</line>
<line class="cls-12" x1="71" y1="3" x2="144.44" y2="3">
</line>
</g>
<g >
<line class="cls-12" x1="-1" y1="71" x2="72.44" y2="71">
</line>
<line class="cls-12" x1="-1" y1="67" x2="72.44" y2="67">
</line>
<line class="cls-12" x1="-1" y1="63" x2="72.44" y2="63">
</line>
<line class="cls-12" x1="-1" y1="59" x2="72.44" y2="59">
</line>
<line class="cls-12" x1="-1" y1="55" x2="72.44" y2="55">
</line>
<line class="cls-12" x1="-1" y1="51" x2="72.44" y2="51">
</line>
<line class="cls-12" x1="-1" y1="47" x2="72.44" y2="47">
</line>
<line class="cls-12" x1="-1" y1="43" x2="72.44" y2="43">
</line>
<line class="cls-12" x1="-1" y1="39" x2="72.44" y2="39">
</line>
<line class="cls-12" x1="-1" y1="35" x2="72.44" y2="35">
</line>
<line class="cls-12" x1="-1" y1="31" x2="72.44" y2="31">
</line>
<line class="cls-12" x1="-1" y1="27" x2="72.44" y2="27">
</line>
<line class="cls-12" x1="-1" y1="23" x2="72.44" y2="23">
</line>
<line class="cls-12" x1="-1" y1="19" x2="72.44" y2="19">
</line>
<line class="cls-12" x1="-1" y1="15" x2="72.44" y2="15">
</line>
<line class="cls-12" x1="-1" y1="11" x2="72.44" y2="11">
</line>
<line class="cls-12" x1="-1" y1="7" x2="72.44" y2="7">
</line>
<line class="cls-12" x1="-1" y1="3" x2="72.44" y2="3">
</line>
<line class="cls-12" x1="1.04" y1="69" x2="74.48" y2="69">
</line>
<line class="cls-12" x1="1.04" y1="65" x2="74.48" y2="65">
</line>
<line class="cls-12" x1="1.04" y1="61" x2="74.48" y2="61">
</line>
<line class="cls-12" x1="1.04" y1="57" x2="74.48" y2="57">
</line>
<line class="cls-12" x1="1.04" y1="53" x2="74.48" y2="53">
</line>
<line class="cls-12" x1="1.04" y1="49" x2="74.48" y2="49">
</line>
<line class="cls-12" x1="1.04" y1="45" x2="74.48" y2="45">
</line>
<line class="cls-12" x1="1.04" y1="41" x2="74.48" y2="41">
</line>
<line class="cls-12" x1="1.04" y1="37" x2="74.48" y2="37">
</line>
<line class="cls-12" x1="1.04" y1="33" x2="74.48" y2="33">
</line>
<line class="cls-12" x1="1.04" y1="29" x2="74.48" y2="29">
</line>
<line class="cls-12" x1="1.04" y1="25" x2="74.48" y2="25">
</line>
<line class="cls-12" x1="1.04" y1="21" x2="74.48" y2="21">
</line>
<line class="cls-12" x1="1.04" y1="17" x2="74.48" y2="17">
</line>
<line class="cls-12" x1="1.04" y1="13" x2="74.48" y2="13">
</line>
<line class="cls-12" x1="1.04" y1="9" x2="74.48" y2="9">
</line>
<line class="cls-12" x1="1.04" y1="5" x2="74.48" y2="5">
</line>
<line class="cls-12" x1="1.04" y1="1" x2="74.48" y2="1">
</line>
</g>
<g >
<line class="cls-12" x1="-73" y1="71" x2=".44" y2="71">
</line>
<line class="cls-12" x1="-73" y1="67" x2=".44" y2="67">
</line>
<line class="cls-12" x1="-73" y1="63" x2=".44" y2="63">
</line>
<line class="cls-12" x1="-73" y1="59" x2=".44" y2="59">
</line>
<line class="cls-12" x1="-73" y1="55" x2=".44" y2="55">
</line>
<line class="cls-12" x1="-73" y1="51" x2=".44" y2="51">
</line>
<line class="cls-12" x1="-73" y1="47" x2=".44" y2="47">
</line>
<line class="cls-12" x1="-73" y1="43" x2=".44" y2="43">
</line>
<line class="cls-12" x1="-73" y1="39" x2=".44" y2="39">
</line>
<line class="cls-12" x1="-73" y1="35" x2=".44" y2="35">
</line>
<line class="cls-12" x1="-73" y1="31" x2=".44" y2="31">
</line>
<line class="cls-12" x1="-73" y1="27" x2=".44" y2="27">
</line>
<line class="cls-12" x1="-73" y1="23" x2=".44" y2="23">
</line>
<line class="cls-12" x1="-73" y1="19" x2=".44" y2="19">
</line>
<line class="cls-12" x1="-73" y1="15" x2=".44" y2="15">
</line>
<line class="cls-12" x1="-73" y1="11" x2=".44" y2="11">
</line>
<line class="cls-12" x1="-73" y1="7" x2=".44" y2="7">
</line>
<line class="cls-12" x1="-73" y1="3" x2=".44" y2="3">
</line>
<line class="cls-12" x1="-70.96" y1="69" x2="2.48" y2="69">
</line>
<line class="cls-12" x1="-70.96" y1="65" x2="2.48" y2="65">
</line>
<line class="cls-12" x1="-70.96" y1="61" x2="2.48" y2="61">
</line>
<line class="cls-12" x1="-70.96" y1="57" x2="2.48" y2="57">
</line>
<line class="cls-12" x1="-70.96" y1="53" x2="2.48" y2="53">
</line>
<line class="cls-12" x1="-70.96" y1="49" x2="2.48" y2="49">
</line>
<line class="cls-12" x1="-70.96" y1="45" x2="2.48" y2="45">
</line>
<line class="cls-12" x1="-70.96" y1="41" x2="2.48" y2="41">
</line>
<line class="cls-12" x1="-70.96" y1="37" x2="2.48" y2="37">
</line>
<line class="cls-12" x1="-70.96" y1="33" x2="2.48" y2="33">
</line>
<line class="cls-12" x1="-70.96" y1="29" x2="2.48" y2="29">
</line>
<line class="cls-12" x1="-70.96" y1="25" x2="2.48" y2="25">
</line>
<line class="cls-12" x1="-70.96" y1="21" x2="2.48" y2="21">
</line>
<line class="cls-12" x1="-70.96" y1="17" x2="2.48" y2="17">
</line>
<line class="cls-12" x1="-70.96" y1="13" x2="2.48" y2="13">
</line>
<line class="cls-12" x1="-70.96" y1="9" x2="2.48" y2="9">
</line>
<line class="cls-12" x1="-70.96" y1="5" x2="2.48" y2="5">
</line>
<line class="cls-12" x1="-70.96" y1="1" x2="2.48" y2="1">
</line>
</g>
</g>
</pattern>
</defs>

<g id="Capa_10">
<g >
<path class="cls-1" d="M61.04,62.13l-1,10.75-25.03,4.45-26.8-4.15-1.46-10.36,15.97-5.61,.31-5.3,1.38-.61-.23-1.77-.61-.69s-1.08-2.69-2.08-8.21c-1.99,.53-2.3-1.92-2.76-3.69-.45-1.73-1.12-4.04,.72-6.51,.03-.06,.08-.11,.12-.17-.61-1.77-.53-6.22-.53-6.22l-1.39,1.08s-.53-3.77,1.39-8.07c-.85-.61-1.23-1.53-1.23-1.53,0,0,2.07-.62,8.06-4.69,4.91-2.68,9.75-1.23,9.75-1.23,10.77-1.84,15.28,5.83,16.65,8.95,.33,.78,.48,1.27,.48,1.27,0,0-.05,.2-1.23-.26-.27-.1-.6-.24-1-.43,.83,1.43,1.42,5.28,1.68,7.34v.02c.11,.79,.16,1.31,.16,1.31l-.2-.05-1.03-.25s-.07,.76-.69,3.37c1.31,1.31,1.08,5.92-.23,8.37-1.3,2.46-2.38,1.46-2.38,1.46l-1.84,7.76-.69,1.3-.23,1.69h.01s1.6,.62,1.6,.62v5.07l14.36,4.99Z">
</path>
<path class="cls-2" d="M34.83,55.36V24.79l2.99-1.72-.41,2.92,2.98-2.48,.89,1.89,2.82-3.52s4.52,5.7,4.22,12.45c-.3,7.14-2.38,14.69-2.38,14.69l-7.64,5.95-3.47,.4Z">
</path>
<path d="M51.52,19.56l-.83-.2s1.01,2.45,1.32,4.46c.15,.91,.19,1.87,.19,2.65v.02c0,.53-.02,.98-.04,1.26-.01,.22-.02,.34-.02,.34l-1.01-.59s-.5,1.78-.88,3.17c-.37,1.38-1.94,3.95-1.94,3.95,0,0,0-.62-.38-3.64-.31-2.39-3.83-9.11-3.83-9.11,0,0,0,1.83-2.58,4.15,.07-1.32-1-2.89-1-2.89,0,0-.44,2.64-3.83,3.27,.44-.51,1.13-3.33,1.13-3.33,0,0-3.08,2.7-6.72,1.88,.43-.43,.8-2.38,.81-2.5-.08,.05-.9,.55-5.02,2.38-2.57,1.31-3.2,4.45-3.2,4.45,0,0-.5,.13-.63-1.69-1.26,1.51-1.82,6.28-1.82,6.28-1.19-1.13-1.7-3.33-1.7-3.33l-.09-.11c.03-.06,.08-.11,.12-.17-.61-1.77-.53-6.22-.53-6.22l-1.39,1.08s-.53-3.77,1.39-8.07c-.85-.61-1.23-1.53-1.23-1.53,0,0,2.07-.62,8.06-4.69,4.91-2.68,9.75-1.23,9.75-1.23,10.77-1.84,15.28,5.83,16.65,8.95v1.19s-.75-.18-.75-.18Z">
</path>
<path class="cls-3" d="M31.56,38.05s-.36-2.04-1.36-2.68c-3.49,.45-5.08,1.72-5.08,1.72,0,0,5.03,2.99,6.44,.95Z">
</path>
<path class="cls-3" d="M38.15,38.05s.36-2.04,1.36-2.68c3.49,.45,5.08,1.72,5.08,1.72,0,0-5.03,2.99-6.44,.95Z">
</path>
<path class="cls-5" d="M61.04,62.13l-1,10.75-25.03,4.45-26.8-4.15-1.46-10.36,15.97-5.61,.31-5.3,1.38-.61c.93,2.01,2.19,4.47,6.78,5.29,4.59,.82,7.46,.17,10.66-1.23,2.07-.9,2.9-2.72,3.23-3.9l1.6,.61v5.07l14.36,4.99Z">
</path>
<path d="M19.81,30.18s-1.26,.94-1.38,3.08,.82,5.4,1.51,6.59,2.24,1.15,2.53,.96c-.79-6.23-.77-7.49-.77-7.49l-1.88-3.14Z">
</path>
<path d="M44.91,50.44l-15.62,24.16-19.17-2.97-1.92-9.49,14.52-4.93,.31-5.3,1.38-.61,.27-1.53,5.85,4.79s5.46,.86,8.44,0c2.88-2.88,5.94-4.12,5.94-4.12Z">
</path>
<path class="cls-18" d="M52.17,24.81c-3.1-3.1-7.06-4.79-8.18-5.24-.13,1.24-.61,3.38-2.27,5.2-.06-1.23-.99-1.97-.99-1.97,0,0-.44,.57-2.79,2.18,.53-1.81-.08-2.44-.08-2.44,0,0-.53,1.63-4.64,2.27,1.6-1.87,.75-3.7,.64-3.92-1.11,.2-2.54,.8-4.86,2.14,1.52-1.79,2.37-2.47,2.37-2.47,0,0-4.95,1.13-6.54,4.08-1.01-4.08,1.19-6.79,1.19-6.79,0,0-2.8,.59-3.56,1.61-.68-2.8,2.8-5.35,3.65-5.94-2.47,.08-3.74,.53-3.89,.58,.14-.12,.95-.83,2.23-1.64,1.3-.81,3.08-1.74,5.11-2.27,1.68-.45,3.55-.63,5.46-.24,2.52-.37,5.11-.45,7.55,.16,2.07,.52,4.05,1.52,5.8,3.24,.85,.83,1.65,1.82,2.39,3.01,.43,.7,.84,1.47,1.22,2.31-1.38-.42-3.15-.87-3.37-.92,.13,.11,.78,.7,1.53,1.86,.73,1.14,1.55,2.84,2.03,5.2Z">
</path>
<path class="cls-16" d="M50.76,16.36c-4.07-1.9-9.57-1.57-11.07-.12-1.74,1.68-5.16,3.23-6.59,.19,3.67,2.48,2.86-3.42,6.28-2.74,3.41,.69,5.34-.56,1.86-3.66,.45,0,.9,.03,1.33,.08,2.07,.52,4.05,1.52,5.8,3.24,.85,.83,1.65,1.82,2.39,3.01Z">
</path>
<path class="cls-4" d="M37.92,37.97l-.71-5.74,5.5-.14,2.94,1.52-.43,3.32-6.02-1.57s-1.09,1.52-1.28,2.61Z">
</path>
<path class="cls-4" d="M31.59,37.97l.71-5.74-5.5-.14-2.94,1.52,.43,3.32,6.02-1.57s1.09,1.52,1.28,2.61Z">
</path>
<path class="cls-1" d="M44.38,25.04c2.09,3.65,2.45,8.85,2.41,10.14,0,.08,0,.16,.02,.24-.19,1.84-1,9.16-2.3,12.7-.5,.41-1.04,.83-1.59,1.26l-.27,.22c-1.53,1.21-3.11,2.47-4.48,3.66-1.31,.25-2.47,.38-3.54,.38-1.18,0-2.27-.15-3.31-.46-1.44-1.24-3.09-2.55-4.65-3.78-.55-.44-1.08-.87-1.59-1.27-1.21-3.4-1.87-11.14-2.06-13.77,.03-.12,.04-.27,.02-.44,0,0,0-.02,0-.03-.01-.11-.13-1.3,.26-2.92,.16,.06,.34,.09,.52,.09,.07,0,.15,0,.21-.02,.61-.09,1.1-.53,1.25-1.14,0-.02,0-.03,.01-.05,.04-.14,.65-2.4,2.62-3.59,.53-.32,.99-.58,1.42-.82,.13,.3,.36,.56,.66,.73,.02,.01,.05,.03,.07,.04,.31,.14,1.16,.48,2.41,.48,.62,0,1.42-.09,2.33-.38,0,.1,0,.19,.01,.29,.09,.64,.57,1.15,1.2,1.27h0c.2,.04,.47,.05,.67,.05,.69,0,2.08-.15,3.34-1.24,.09,.22,.23,.42,.42,.56,.27,.23,.61,.36,.96,.36,.19,0,.39-.04,.54-.1,.17-.07,1.43-.59,2.45-2.46m-.23-2.08c-.86,2.9-2.49,3.58-2.57,3.61-.06,.02-.12,.04-.19,.04-.11,0-.22-.04-.31-.12-.14-.11-.21-.29-.17-.47,0,0,.14-.87-.26-1.85-1.15,2.45-3.08,2.76-3.97,2.76-.3,0-.48-.03-.49-.04-.21-.04-.37-.2-.4-.42-.03-.21,.08-.41,.27-.51,.05-.03,1.08-.6,1.2-2.1-1.92,1.47-3.59,1.84-4.8,1.84s-1.92-.36-1.99-.39c-.16-.09-.27-.26-.27-.44,0-.19,.1-.36,.26-.45,.04-.02,.74-.42,1.04-1.28-.35,.21-.74,.41-1.2,.65-.75,.39-1.67,.88-2.91,1.62-2.44,1.47-3.09,4.22-3.09,4.25-.05,.2-.21,.36-.42,.39-.02,0-.05,0-.07,0-.18,0-.34-.1-.43-.26-.02-.02-.22-.38-.39-1.06-1.27,2.87-.96,5.29-.95,5.31,0,.07-.02,.13-.04,.19,.22,3.05,.91,11.1,2.23,14.49,.57,.46,1.18,.95,1.81,1.45,1.64,1.29,3.33,2.63,4.78,3.89,1.21,.39,2.46,.57,3.81,.57,1.24,0,2.55-.15,3.99-.45,1.48-1.3,3.23-2.68,4.92-4.02,.63-.49,1.24-.98,1.81-1.44,1.38-3.51,2.23-10.98,2.47-13.37-.02-.06-.03-.12-.03-.18,.05-1.69-.45-8.42-3.64-12.22h0Z">
</path>
<path class="cls-2" d="M24.92,39.41s3.46,1.38,6.31,.69c-2.85,3.63-5.01,1.55-6.31-.69Z">
</path>
<path class="cls-9" d="M35.39,9.4s-4.55-1.09-9.1,1.19-6.23,5.14-8.8,4.94c.49,1.58,1.88,1.68,1.88,1.68,0,0-2.67,4.05-1.58,8.21,.89-1.58,1.48-1.58,1.48-1.58,0,0-1.19,6.23,2.27,10.28,0,0-.47-3.38,1.73-7,.06,1.6,.53,2.44,.53,2.44,0,0,.65-2.97,3.33-4.58s3.92-2.02,4.99-2.85c.12,1.9-1.43,2.73-1.43,2.73,0,0,3.03,1.54,7.01-2.02,.42,2.61-1.43,3.57-1.43,3.57,0,0,3.03,.59,4.28-3.39,1.13,1.49,.83,3.09,.83,3.09,0,0,1.78-.71,2.5-4.16,3.86,3.74,4.46,11.29,4.4,13.25,1.96-3.33,2.55-5.94,2.73-8.32,1.19,1.37,1.37,1.31,1.37,1.31,0,0,.24-5.17-2.14-9.15,1.9,.65,2.2,1.19,2.2,1.19,0,0-2.63-12.33-17.06-10.83Z">
</path>
<path class="cls-9" d="M19.41,30.38s-1.27,.64-1.1,3.7,1.79,6.82,2.49,6.88,.98-.52,.98-.52">
</path>
<path class="cls-9" d="M50.56,30.74c.36,.46,.81,1.42,.7,3.34-.17,3.06-1.79,6.82-2.49,6.88s-.98-.52-.98-.52">
</path>
<path class="cls-9" d="M21.42,33.06s.67,11.74,2.39,15.98c2.09,1.68,4.71,3.68,6.76,5.47,1.06,.35,2.41,.63,3.97,.63s3.02-.22,4.31-.49c2.08-1.83,4.78-3.89,6.92-5.61,1.72-4.24,2.62-14.39,2.62-14.39">
</path>
<path d="M23.97,33.69s1.61-2.07,2.58-2.37c2.96-.89,5.88-.63,5.88-.63,0,0,.3,.93,.04,1.69-3.09-.25-5.67,.15-5.67,.15l-2.83,1.17Z">
</path>
<path d="M45.69,33.69s-1.61-2.07-2.58-2.37c-2.96-.89-5.88-.63-5.88-.63,0,0-.3,.93-.04,1.69,3.09-.25,5.67,.15,5.67,.15l2.83,1.17Z">
</path>
<path d="M31.63,38.16c-.34-.88-.75-1.98-1.52-2.49,0,0,.19,.07,.19,.07-1.85,.1-3.68,.71-5.29,1.61,0,0,.12-.71,.12-.71,.55,.62,1.45,1.12,2.26,1.43,.9,.36,1.86,.54,2.83,.71-2.02,.34-4.32,0-5.84-1.54-.2-.21-.14-.57,.12-.71,1.76-1.07,3.78-1.67,5.83-1.5,1.05,.5,1.26,2.12,1.31,3.13h0Z">
</path>
<path d="M37.95,38.16c.05-1.01,.26-2.63,1.31-3.13,2.05-.17,4.07,.43,5.83,1.5,.26,.14,.32,.49,.12,.71-1.52,1.53-3.82,1.87-5.84,1.54,.97-.16,1.93-.35,2.83-.71,.81-.31,1.72-.81,2.26-1.43l.12,.71c-1.61-.89-3.44-1.51-5.29-1.61,0,0,.19-.07,.19-.07-.77,.52-1.18,1.61-1.52,2.49h0Z">
</path>
<path d="M32.21,42.62c-.8,.91,.39,1.81,1.18,2.19,.04,.02,0,.07-.03,.07-1.01,.39-2.26-.48-2-1.62,.1-.42,.45-.69,.83-.7,.03,0,.05,.04,.03,.06h0Z">
</path>
<path d="M37.52,42.57c.89,.04,1.05,1.27,.54,1.82-.47,.55-1.09,.72-1.77,.49-.03,0-.03-.05,0-.06,.44-.23,.89-.5,1.18-.89,.35-.36,.34-.94,0-1.3-.03-.04,.02-.07,.05-.05h0Z">
</path>
<path d="M32.74,43.91c-.03-.37,.44-.58,.74-.49,.31,.08,.54,.29,.64,.6-.33,0-.55-.08-.74-.12-.2-.04-.32-.1-.64,0h0Z">
</path>
<path d="M36.97,43.91c-.32-.1-.44-.04-.64,0-.2,.03-.42,.12-.74,.12,.09-.31,.32-.53,.64-.6,.31-.09,.78,.12,.74,.49h0Z">
</path>
<path d="M40.33,48.31c-.98-.34-3.16-.7-3.62-.73,0,0-1.57,.81-1.57,.81-.13,.07-.29,.06-.42,0l-1.57-.81c-.45,.03-2.64,.39-3.61,.73,.59-.28,1.18-.55,1.79-.79,.64-.22,1.33-.59,2.06-.58,0,0,1.75,.55,1.75,.55h-.41s1.75-.55,1.75-.55c1.39,.12,2.61,.84,3.86,1.37h0Z">
</path>
<path d="M37.69,48.91c.14,1.46-1.75,1.58-2.84,1.62-1.09-.04-2.98-.16-2.84-1.62,0-.05,.06-.09,.09-.04,.16,.34,.55,.64,.86,.69,1.26-.03,2.51-.03,3.77,0,.31-.05,.7-.35,.86-.69,.03-.05,.1-.01,.09,.04h0Z">
</path>
<path class="cls-8" d="M45.24,49.66l-.13,1.58s.92,.32,1.54,.9c-.13,2.35,.18,6.37,.48,7.86-.79,3.84-5.32,7.73-11.87,7.73h-.96c-6.55,0-11.08-3.89-11.87-7.73,.31-1.49,.62-5.51,.48-7.86,.62-.59,1.54-.9,1.54-.9l-.13-1.58">
</path>
<path class="cls-8" d="M24.45,51.24s.55,5.8,10.43,5.8,10.23-5.8,10.23-5.8">
</path>
<line class="cls-8" x1="22.65" y1="57.18" x2="7.03" y2="62.78">
</line>
<line class="cls-8" x1="47.21" y1="57.18" x2="62.83" y2="62.78">
</line>
<path class="cls-13" d="M10.01,62.68c4.42-1.45,9.36-3.34,13.54-4.54,.03-1.53,0-3.68,.18-5.18,0,0,.1,.02,.1,.02,.04,.43,.1,.86,.15,1.29,.17,1.07,.33,3.25,.43,4.34-4.52,1.82-9.63,3.76-14.39,4.07h0Z">
</path>
<path class="cls-13" d="M19.73,31.39c-.54,2.84,.75,5.12,.83,8.06,0,0-.09,.05-.09,.05-1.03-1.88-1.83-4.03-1.65-6.2,.09-.72,.31-1.45,.84-1.99l.07,.08h0Z">
</path>
</g>
</g>
 <g
     id="g2850">
    <g
       id="g2837">
      <path
         id="path1951"
         d="M 0.056640625 0.04296875 L 0.056640625 79.943359 L 69.308594 79.943359 L 69.308594 0.04296875 L 0.056640625 0.04296875 z M 33.615234 3.5957031 C 34.206332 3.5957038 34.786991 3.6051034 35.421875 3.6152344 C 44.430653 3.7671809 53.471255 5.1336733 61.560547 7.5546875 L 62.064453 7.7070312 L 62.25 8.1640625 C 66.070247 17.605006 66.990234 28.726438 66.990234 40.0625 C 66.990234 51.398562 65.972723 63.025755 61.988281 72.578125 L 61.791016 73.044922 L 61.275391 73.185547 C 53.273669 75.403966 44.691921 76.529297 35.759766 76.529297 C 35.212453 76.529297 34.675812 76.519896 34.150391 76.509766 L 33.943359 76.509766 C 24.901742 76.357819 15.860367 74.989738 7.7929688 72.558594 L 7.2890625 72.40625 L 7.1035156 71.951172 C 3.2942144 62.520359 2.375 51.369168 2.375 40.0625 C 2.375 28.755832 3.3819737 17.127318 7.3554688 7.5546875 L 7.5527344 7.0898438 L 8.0664062 6.9472656 C 15.509867 4.890923 23.785212 3.7371557 32.005859 3.6054688 C 32.542226 3.5953387 33.078867 3.5957031 33.615234 3.5957031 z "
         style="opacity:1;vector-effect:none;fill:#ffffff;fill-opacity:1;fill-rule:nonzero;stroke:none;stroke-width:1.95200002;stroke-linecap:butt;stroke-linejoin:miter;stroke-miterlimit:4;stroke-dasharray:none;stroke-dashoffset:0;stroke-opacity:1" />
    </g>
    <path
       id="path1154-8-2"
       d="m 33.675163,6.6112954 c 0.557696,0 1.115392,0.00956 1.683415,0.019115 8.427403,0.14336 16.803167,1.4049288 24.363042,3.6700176 3.573384,8.830981 4.443772,19.417362 4.443772,29.761551 0,10.344189 -0.95301,21.39888 -4.68131,30.334991 -7.435942,2.064385 -15.429581,3.274388 -23.774362,3.274388 -0.506058,0 -1.012115,-0.0096 -1.518172,-0.01911 h -0.17557 C 25.56792,73.508883 17.192156,72.088619 9.6426089,69.813973 6.0795528,61.002107 5.2088244,50.415411 5.2088244,40.061979 c 0,-10.353432 0.95335,-21.389323 4.6609939,-30.325434 C 16.820359,7.8155201 24.462856,6.7450981 32.177647,6.6208528 c 0.49573,-0.00956 1.001787,-0.00956 1.497516,-0.00956 m 0,-0.9557337 c -0.506057,0 -1.012114,0 -1.518171,0.00956 C 24.40089,5.7893644 16.593149,6.8789009 9.570315,8.8190405 L 9.0849131,8.9528432 8.8990146,9.3924808 C 5.1500599,18.424166 4.1999116,29.394246 4.1999116,40.061979 c 0,10.667733 0.8675267,21.188618 4.461566,30.0865 l 0.1755708,0.430081 0.4750741,0.14336 c 7.6115135,2.293761 16.1421925,3.584001 24.6728715,3.727361 h 0.196227 c 0.495729,0.0096 1.001786,0.01911 1.518171,0.01911 8.427403,0 16.524318,-1.060864 24.073866,-3.153921 l 0.485403,-0.133802 0.185898,-0.439639 c 3.759282,-9.01257 4.719759,-19.983589 4.719759,-30.679055 0,-10.695466 -0.867528,-21.188618 -4.471894,-30.0960578 L 60.516853,9.5358409 60.041779,9.3924808 C 52.409609,7.108277 43.87893,5.8180364 35.379234,5.6746763 34.780227,5.6651187 34.232859,5.6555621 33.675163,5.6555615 Z"
       style="fill:#ff0000;stroke:#ffffff;stroke-width:1.84341729;stroke-miterlimit:4;stroke-dasharray:none" />
    <path
       id="path1154"
       d="m 33.614853,4.6077955 c 0.591098,0 1.182197,0.01013 1.784241,0.02026 8.932155,0.1519464 17.809578,1.4890758 25.822246,3.8898304 3.787408,9.3599041 4.709928,20.5803481 4.709928,31.5440931 0,10.963745 -1.01009,22.680548 -4.961693,32.151879 -7.881312,2.18803 -16.353723,3.302304 -25.198307,3.302304 -0.536368,0 -1.072735,-0.01013 -1.609102,-0.02026 H 33.97608 C 25.022033,75.343956 16.14461,74.006827 8.1428892,71.595943 4.3664269,62.256298 3.443547,51.035521 3.443547,40.061979 c 0,-10.973542 1.01045,-22.670418 4.9401601,-32.1417498 7.3668369,-2.036083 15.4670749,-3.170617 23.6439369,-3.3023039 0.525421,-0.01013 1.061788,-0.01013 1.587209,-0.01013 m 0,-1.0129766 c -0.536367,0 -1.072734,0 -1.609101,0.01013 C 23.785105,3.7366356 15.509726,4.891429 8.0662653,6.9477716 L 7.5517907,7.0895883 7.3547579,7.5555576 C 3.3812628,17.128188 2.3742062,28.755311 2.3742062,40.061979 c 0,11.306668 0.9194864,22.457692 4.7287876,31.888505 l 0.1860865,0.45584 0.5035283,0.151947 c 8.0673984,2.431144 17.1090154,3.798662 26.1506324,3.950608 h 0.207979 c 0.525421,0.01013 1.061788,0.02026 1.609101,0.02026 8.932155,0 17.514028,-1.124404 25.51575,-3.342823 l 0.514475,-0.141816 0.197032,-0.46597 c 3.984442,-9.55237 5.002445,-21.180489 5.002445,-32.516551 0,-11.336062 -0.919487,-22.457692 -4.739734,-31.8986353 L 62.064202,7.7075041 61.560674,7.5555576 C 53.471382,5.1345434 44.429765,3.7670249 35.420987,3.6150784 c -0.634884,-0.01013 -1.215036,-0.020259 -1.806134,-0.02026 z"
       style="fill:#000000;stroke:#000000;stroke-width:1.95382714;stroke-miterlimit:4;stroke-dasharray:none" />
    <g
       id="g1810">
      <path
         d="M 6.5134911,7.7433673 C 5.6489029,6.8479453 4.058602,6.5681013 3.6272194,7.3820013 3.284151,8.0292783 3.3625296,8.5309135 4.395235,8.9201755 3.2963719,9.5187755 1.4857674,9.4447465 1.1893447,7.4467713 0.95320848,5.8551433 2.674739,4.8863543 3.1399725,5.0916244 3.0034432,3.6818714 1.8221094,4.0692802 0.95849208,3.2813384 0.34259068,2.7194046 0.23126071,-0.02624603 0.0561761,0.04378767 -0.0138576,0.21887227 2.7317937,0.33020157 3.2937267,0.94610377 4.0816685,1.8097211 3.6942598,2.9910547 5.1040128,3.1275841 4.8987425,2.6623507 5.8675315,0.94082017 7.4591593,1.1769564 9.4571345,1.4733791 9.5311625,3.2839847 8.9325635,4.3828467 8.5433008,3.3501417 8.041666,3.2717627 7.3943894,3.6148312 6.5804899,4.0462137 6.8603354,5.6365129 7.7557553,6.5011023"
         style="fill:#000000;stroke:#000000;stroke-width:0.1112323px;stroke-linecap:butt;stroke-linejoin:miter;stroke-opacity:1"
         id="path1737-3" />
      <path
         d="m 62.850738,7.7433673 c 0.864588,-0.895422 2.454889,-1.175266 2.886271,-0.361366 0.343069,0.647277 0.26469,1.148912 -0.768015,1.538174 1.098863,0.5986 2.909467,0.524571 3.20589,-1.473404 0.236136,-1.591628 -1.485394,-2.560417 -1.950628,-2.3551469 0.13653,-1.409753 1.317863,-1.0223442 2.181481,-1.810286 0.615901,-0.5619338 0.727231,-3.30758442 0.902316,-3.23755072 0.07003,0.1750846 -2.675618,0.2864139 -3.237551,0.9023161 C 65.28256,1.8097211 65.669969,2.9910547 64.260216,3.1275841 64.465486,2.6623507 63.496697,0.94082018 61.905069,1.1769564 c -1.997975,0.2964227 -2.072003,2.1070283 -1.473404,3.2058903 0.389263,-1.032705 0.890898,-1.111084 1.538174,-0.7680155 0.8139,0.4313825 0.534054,2.0216817 -0.361366,2.8862711"
         style="fill:#000000;stroke:#000000;stroke-width:0.1112323px;stroke-linecap:butt;stroke-linejoin:miter;stroke-opacity:1"
         id="path1737-3-5" />
      <path
         d="m 62.850738,72.244244 c 0.864588,0.895422 2.454889,1.175266 2.886272,0.361366 0.343068,-0.647277 0.264689,-1.148912 -0.768016,-1.538174 1.098863,-0.5986 2.909468,-0.524571 3.20589,1.473404 0.236137,1.591628 -1.485394,2.560417 -1.950628,2.355147 0.13653,1.409753 1.317864,1.022344 2.181481,1.810286 0.615901,0.561934 0.727231,3.307584 0.902316,3.237551 0.07003,-0.175085 -2.675618,-0.286414 -3.237551,-0.902317 -0.787942,-0.863617 -0.400533,-2.04495 -1.810286,-2.18148 0.20527,0.465234 -0.763519,2.186764 -2.355146,1.950628 -1.997976,-0.296423 -2.072004,-2.107028 -1.473405,-3.20589 0.389263,1.032705 0.890898,1.111084 1.538175,0.768015 0.813899,-0.431382 0.534054,-2.021682 -0.361366,-2.886271"
         style="fill:#000000;stroke:#000000;stroke-width:0.1112323px;stroke-linecap:butt;stroke-linejoin:miter;stroke-opacity:1"
         id="path1737-3-7" />
      <path
         d="M 6.513491,72.244245 C 5.648903,73.139667 4.058602,73.419511 3.62722,72.605611 3.284151,71.958334 3.36253,71.456699 4.395235,71.067437 c -1.098863,-0.5986 -2.909467,-0.524571 -3.20589,1.473404 -0.23613599,1.591628 1.485394,2.560417 1.950628,2.355147 -0.13653,1.409753 -1.317863,1.022344 -2.18148099,1.810286 -0.615901,0.561933 -0.727231,3.307584 -0.902316,3.23755 C -0.01385399,79.76874 2.731794,79.65741 3.293727,79.041508 4.081669,78.177891 3.69426,76.996557 5.104013,76.860028 4.898743,77.325261 5.867532,79.046792 7.45916,78.810656 9.457135,78.514233 9.531163,76.703627 8.932564,75.604765 8.543301,76.63747 8.041666,76.715849 7.39439,76.372781 6.58049,75.941398 6.860336,74.351099 7.755756,73.48651"
         style="fill:#000000;stroke:#000000;stroke-width:0.1112323px;stroke-linecap:butt;stroke-linejoin:miter;stroke-opacity:1"
         id="path1737-3-5-5" />
    </g>
    <path
       id="path1154-9"
       d="m 33.712865,7.4258691 c 0.536813,0 1.07363,0.00933 1.620386,0.01865 8.111875,0.1398689 16.174044,1.3707167 23.450873,3.5806479 3.439594,8.615932 4.277395,18.944521 4.277395,29.036812 0,10.092292 -0.917329,20.877786 -4.506039,29.596289 -7.157536,2.014114 -14.851888,3.03982 -22.884234,3.03982 -0.487111,0 -0.974221,-0.0094 -1.461331,-0.01865 H 34.040918 C 25.909161,72.53957 17.846991,71.308722 10.580105,69.089467 7.1504515,60.492184 6.3123238,50.163289 6.3123238,40.061979 c 0,-10.101311 0.9176558,-20.868461 4.4864832,-29.586965 6.690308,-1.8742449 14.046665,-2.9186005 21.472608,-3.0398203 0.47717,-0.00933 0.964281,-0.00933 1.44145,-0.00933 m 0,-0.9324602 c -0.487111,0 -0.974221,0 -1.46133,0.00933 C 24.785826,6.6239532 17.270413,7.686958 10.510517,9.5798526 L 10.043289,9.710397 9.8643508,10.139328 c -3.6085914,8.811751 -4.5231655,19.514693 -4.5231655,29.922651 0,10.407958 0.8350459,20.672644 4.294522,29.353849 l 0.1689973,0.419608 0.4572874,0.13987 c 7.326533,2.237904 15.537818,3.496724 23.749103,3.636593 h 0.188879 c 0.47717,0.0094 0.96428,0.01865 1.461331,0.01865 8.111875,0 15.905636,-1.035031 23.172525,-3.077119 l 0.467228,-0.130544 0.178938,-0.428932 c 3.618533,-8.793101 4.543048,-19.496959 4.543048,-29.931975 0,-10.435016 -0.835047,-20.672644 -4.304463,-29.363174 l -0.168997,-0.419609 -0.457288,-0.13987 C 51.74588,7.9107484 43.534594,6.6519271 35.353133,6.512058 34.776554,6.502738 34.249678,6.493409 33.712865,6.493409 Z"
       style="fill:#000000;stroke:none;stroke-width:1.78642213;stroke-miterlimit:4;stroke-dasharray:none" />
    <path
       id="path1154-9-3"
       d="m 33.712865,7.4258686 c 0.536813,0 1.07363,0.00933 1.620386,0.01865 8.111875,0.1398689 16.174044,1.3707167 23.450873,3.5806484 3.439594,8.615932 4.277395,18.944521 4.277395,29.036812 0,10.092292 -0.917329,20.877786 -4.506039,29.596288 -7.157536,2.014114 -14.851888,3.03982 -22.884234,3.03982 -0.487111,0 -0.974221,-0.0094 -1.461331,-0.01865 H 34.040918 C 25.909161,72.539569 17.846991,71.308722 10.580105,69.089466 7.1504515,60.492184 6.3123238,50.163288 6.3123238,40.061979 c 0,-10.101312 0.9176558,-20.868461 4.4864832,-29.586965 6.690308,-1.8742454 14.046665,-2.918601 21.472608,-3.0398208 0.47717,-0.00933 0.964281,-0.00933 1.44145,-0.00933 m 0,-0.9324602 c -0.487111,0 -0.974221,0 -1.46133,0.00933 C 24.785826,6.6239527 17.270413,7.6869575 10.510517,9.5798521 L 10.043289,9.7103965 9.8643508,10.139328 C 6.2557594,18.951079 5.3411853,29.65402 5.3411853,40.061979 c 0,10.407958 0.8350459,20.672643 4.294522,29.353849 l 0.1689973,0.419608 0.4572874,0.13987 c 7.326533,2.237904 15.537818,3.496724 23.749103,3.636593 h 0.188879 c 0.47717,0.0094 0.96428,0.01865 1.461331,0.01865 8.111875,0 15.905636,-1.035032 23.172525,-3.077119 l 0.467228,-0.130544 0.178938,-0.428932 c 3.618533,-8.793101 4.543048,-19.49696 4.543048,-29.931975 0,-10.435016 -0.835047,-20.672644 -4.304463,-29.363175 l -0.168997,-0.419609 -0.457288,-0.13987 C 51.74588,7.9107479 43.534594,6.6519266 35.353133,6.5120575 34.776554,6.5027375 34.249678,6.4934085 33.712865,6.4934085 Z"
       style="fill:#000000;stroke:none;stroke-width:1.78642213;stroke-miterlimit:4;stroke-dasharray:none" />
  </g>
</svg>
