<svg id="Capa_2" xmlns="http://www.w3.org/2000/svg" xmlns:xlink="http://www.w3.org/1999/xlink" viewBox="0 0 69.02 80">
<defs >
<style >
.cls-1{fill:#c89aed;}.cls-2{fill:#fff;}.cls-3{fill:#f8ffbf;}.cls-4{fill:#7b7be8;}.cls-5{fill:#a88347;}.cls-6{fill:#782ab5;}.cls-7{stroke-miterlimit:10;}.cls-7,.cls-8,.cls-9{stroke:#000;}.cls-7,.cls-8,.cls-9,.cls-10,.cls-11,.cls-12{fill:none;}.cls-8{stroke-width:.99px;}.cls-8,.cls-9,.cls-10{stroke-linecap:round;stroke-linejoin:round;}.cls-13{fill:#1c46ff;}.cls-10{stroke:#deb778;stroke-dasharray:0 0 0 4.06;}.cls-14{fill:#deb778;}.cls-15{fill:url(#USGS_19_Inundación_de_tierra_2);}.cls-12{stroke:#1d1d1b;stroke-dasharray:0 0 2 2;stroke-width:.3px;}.cls-16{fill:#cf5f2b;}.cls-17{fill:#fcf0c5;}.cls-18{fill:#b83521;}
</style>
<pattern id="USGS_19_Inundación_de_tierra_2" x="0" y="0" width="72" height="72" patternTransform="translate(-92.48 -16207) rotate(-90)" patternUnits="userSpaceOnUse" viewBox="0 0 72 72">
<g >
<rect class="cls-11" width="72" height="72">
</rect>
<g >
<line class="cls-12" x1="71" y1="71" x2="144.44" y2="71">
</line>
<line class="cls-12" x1="71" y1="67" x2="144.44" y2="67">
</line>
<line class="cls-12" x1="71" y1="63" x2="144.44" y2="63">
</line>
<line class="cls-12" x1="71" y1="59" x2="144.44" y2="59">
</line>
<line class="cls-12" x1="71" y1="55" x2="144.44" y2="55">
</line>
<line class="cls-12" x1="71" y1="51" x2="144.44" y2="51">
</line>
<line class="cls-12" x1="71" y1="47" x2="144.44" y2="47">
</line>
<line class="cls-12" x1="71" y1="43" x2="144.44" y2="43">
</line>
<line class="cls-12" x1="71" y1="39" x2="144.44" y2="39">
</line>
<line class="cls-12" x1="71" y1="35" x2="144.44" y2="35">
</line>
<line class="cls-12" x1="71" y1="31" x2="144.44" y2="31">
</line>
<line class="cls-12" x1="71" y1="27" x2="144.44" y2="27">
</line>
<line class="cls-12" x1="71" y1="23" x2="144.44" y2="23">
</line>
<line class="cls-12" x1="71" y1="19" x2="144.44" y2="19">
</line>
<line class="cls-12" x1="71" y1="15" x2="144.44" y2="15">
</line>
<line class="cls-12" x1="71" y1="11" x2="144.44" y2="11">
</line>
<line class="cls-12" x1="71" y1="7" x2="144.44" y2="7">
</line>
<line class="cls-12" x1="71" y1="3" x2="144.44" y2="3">
</line>
</g>
<g >
<line class="cls-12" x1="-1" y1="71" x2="72.44" y2="71">
</line>
<line class="cls-12" x1="-1" y1="67" x2="72.44" y2="67">
</line>
<line class="cls-12" x1="-1" y1="63" x2="72.44" y2="63">
</line>
<line class="cls-12" x1="-1" y1="59" x2="72.44" y2="59">
</line>
<line class="cls-12" x1="-1" y1="55" x2="72.44" y2="55">
</line>
<line class="cls-12" x1="-1" y1="51" x2="72.44" y2="51">
</line>
<line class="cls-12" x1="-1" y1="47" x2="72.44" y2="47">
</line>
<line class="cls-12" x1="-1" y1="43" x2="72.44" y2="43">
</line>
<line class="cls-12" x1="-1" y1="39" x2="72.44" y2="39">
</line>
<line class="cls-12" x1="-1" y1="35" x2="72.44" y2="35">
</line>
<line class="cls-12" x1="-1" y1="31" x2="72.44" y2="31">
</line>
<line class="cls-12" x1="-1" y1="27" x2="72.44" y2="27">
</line>
<line class="cls-12" x1="-1" y1="23" x2="72.44" y2="23">
</line>
<line class="cls-12" x1="-1" y1="19" x2="72.44" y2="19">
</line>
<line class="cls-12" x1="-1" y1="15" x2="72.44" y2="15">
</line>
<line class="cls-12" x1="-1" y1="11" x2="72.44" y2="11">
</line>
<line class="cls-12" x1="-1" y1="7" x2="72.44" y2="7">
</line>
<line class="cls-12" x1="-1" y1="3" x2="72.44" y2="3">
</line>
<line class="cls-12" x1="1.04" y1="69" x2="74.48" y2="69">
</line>
<line class="cls-12" x1="1.04" y1="65" x2="74.48" y2="65">
</line>
<line class="cls-12" x1="1.04" y1="61" x2="74.48" y2="61">
</line>
<line class="cls-12" x1="1.04" y1="57" x2="74.48" y2="57">
</line>
<line class="cls-12" x1="1.04" y1="53" x2="74.48" y2="53">
</line>
<line class="cls-12" x1="1.04" y1="49" x2="74.48" y2="49">
</line>
<line class="cls-12" x1="1.04" y1="45" x2="74.48" y2="45">
</line>
<line class="cls-12" x1="1.04" y1="41" x2="74.48" y2="41">
</line>
<line class="cls-12" x1="1.04" y1="37" x2="74.48" y2="37">
</line>
<line class="cls-12" x1="1.04" y1="33" x2="74.48" y2="33">
</line>
<line class="cls-12" x1="1.04" y1="29" x2="74.48" y2="29">
</line>
<line class="cls-12" x1="1.04" y1="25" x2="74.48" y2="25">
</line>
<line class="cls-12" x1="1.04" y1="21" x2="74.48" y2="21">
</line>
<line class="cls-12" x1="1.04" y1="17" x2="74.48" y2="17">
</line>
<line class="cls-12" x1="1.04" y1="13" x2="74.48" y2="13">
</line>
<line class="cls-12" x1="1.04" y1="9" x2="74.48" y2="9">
</line>
<line class="cls-12" x1="1.04" y1="5" x2="74.48" y2="5">
</line>
<line class="cls-12" x1="1.04" y1="1" x2="74.48" y2="1">
</line>
</g>
<g >
<line class="cls-12" x1="-73" y1="71" x2=".44" y2="71">
</line>
<line class="cls-12" x1="-73" y1="67" x2=".44" y2="67">
</line>
<line class="cls-12" x1="-73" y1="63" x2=".44" y2="63">
</line>
<line class="cls-12" x1="-73" y1="59" x2=".44" y2="59">
</line>
<line class="cls-12" x1="-73" y1="55" x2=".44" y2="55">
</line>
<line class="cls-12" x1="-73" y1="51" x2=".44" y2="51">
</line>
<line class="cls-12" x1="-73" y1="47" x2=".44" y2="47">
</line>
<line class="cls-12" x1="-73" y1="43" x2=".44" y2="43">
</line>
<line class="cls-12" x1="-73" y1="39" x2=".44" y2="39">
</line>
<line class="cls-12" x1="-73" y1="35" x2=".44" y2="35">
</line>
<line class="cls-12" x1="-73" y1="31" x2=".44" y2="31">
</line>
<line class="cls-12" x1="-73" y1="27" x2=".44" y2="27">
</line>
<line class="cls-12" x1="-73" y1="23" x2=".44" y2="23">
</line>
<line class="cls-12" x1="-73" y1="19" x2=".44" y2="19">
</line>
<line class="cls-12" x1="-73" y1="15" x2=".44" y2="15">
</line>
<line class="cls-12" x1="-73" y1="11" x2=".44" y2="11">
</line>
<line class="cls-12" x1="-73" y1="7" x2=".44" y2="7">
</line>
<line class="cls-12" x1="-73" y1="3" x2=".44" y2="3">
</line>
<line class="cls-12" x1="-70.96" y1="69" x2="2.48" y2="69">
</line>
<line class="cls-12" x1="-70.96" y1="65" x2="2.48" y2="65">
</line>
<line class="cls-12" x1="-70.96" y1="61" x2="2.48" y2="61">
</line>
<line class="cls-12" x1="-70.96" y1="57" x2="2.48" y2="57">
</line>
<line class="cls-12" x1="-70.96" y1="53" x2="2.48" y2="53">
</line>
<line class="cls-12" x1="-70.96" y1="49" x2="2.48" y2="49">
</line>
<line class="cls-12" x1="-70.96" y1="45" x2="2.48" y2="45">
</line>
<line class="cls-12" x1="-70.96" y1="41" x2="2.48" y2="41">
</line>
<line class="cls-12" x1="-70.96" y1="37" x2="2.48" y2="37">
</line>
<line class="cls-12" x1="-70.96" y1="33" x2="2.48" y2="33">
</line>
<line class="cls-12" x1="-70.96" y1="29" x2="2.48" y2="29">
</line>
<line class="cls-12" x1="-70.96" y1="25" x2="2.48" y2="25">
</line>
<line class="cls-12" x1="-70.96" y1="21" x2="2.48" y2="21">
</line>
<line class="cls-12" x1="-70.96" y1="17" x2="2.48" y2="17">
</line>
<line class="cls-12" x1="-70.96" y1="13" x2="2.48" y2="13">
</line>
<line class="cls-12" x1="-70.96" y1="9" x2="2.48" y2="9">
</line>
<line class="cls-12" x1="-70.96" y1="5" x2="2.48" y2="5">
</line>
<line class="cls-12" x1="-70.96" y1="1" x2="2.48" y2="1">
</line>
</g>
</g>
</pattern>
</defs>

  <path
     id="path7641-4"
     style="fill:#782ab5;fill-opacity:1;stroke:#4d4d4d;stroke-width:1.62226;stop-color:#000000"
     d="M 34.900259,1.6936052 C 14.323312,9.5265586 1.6299002,23.954051 1.5689773,39.580572 V 79.197446 H 67.963672 V 39.580572 C 67.958188,23.990066 55.374427,9.5708664 34.900259,1.6936052 Z"/>
  <path
     id="path7641-7"
     style="fill:#808080;stroke:#4d4d4d;stroke-width:1.48325;stop-color:#000000"
     d="M 34.629293,5.0425238 C 15.815619,12.204258 4.1542243,25.395327 4.1542243,39.682894 V 76.559207 H 64.859448 V 39.682894 c 0,-14.254531 -11.510452,-27.438125 -30.230155,-34.6403702 z m -0.01233,3.4358455 C 51.537073,14.988239 61.941622,26.904418 61.941622,39.788613 v 33.82806 H 7.07205 v -33.82806 c 0,-12.914055 10.539857,-24.836991 27.544909,-31.3102437 z"/>
  <path
     id="path7641-7-8"
     style="fill:#808080;stroke:#4d4d4d;stroke-width:1.35027;stop-color:#000000"
     d="M 34.618314,8.2461803 C 17.491429,14.76581 6.8755673,26.7742 6.8755673,39.780777 v 33.57007 H 62.138105 v -33.57007 c 0,-12.976504 -10.478452,-24.978088 -27.519791,-31.5345967 z m -0.01123,3.1277957 c 15.403093,5.926211 24.874795,16.774013 24.874795,28.503041 V 70.672134 H 9.5317874 V 39.877017 c 0,-11.75621 9.5948786,-22.610165 25.0752986,-28.503041 z"/>
  <path
     id="path7641-7-8-0"
     style="fill:#808080;stroke:#4d4d4d;stroke-width:1.21411;stop-color:#000000"
     d="M 34.607073,11.526302 C 19.207238,17.388502 9.6618637,28.185984 9.6618637,39.880997 V 70.06591 H 59.351809 V 39.880997 c 0,-11.667973 -9.421821,-22.459335 -24.744736,-28.354695 z m -0.0101,2.812393 c 13.849868,5.328621 22.366458,15.082547 22.366458,25.628837 V 67.657315 H 12.050234 V 39.967532 c 0,-10.570731 8.627346,-20.33019 22.546743,-25.628837 z"/>


<g id="Capa_10">
<g >
<path class="cls-1" d="M61.04,62.13l-1,10.75-25.03,4.45-26.8-4.15-1.46-10.36,15.97-5.61,.31-5.3,1.38-.61-.23-1.77-.61-.69s-1.08-2.69-2.08-8.21c-1.99,.53-2.3-1.92-2.76-3.69-.45-1.73-1.12-4.04,.72-6.51,.03-.06,.08-.11,.12-.17-.61-1.77-.53-6.22-.53-6.22l-1.39,1.08s-.53-3.77,1.39-8.07c-.85-.61-1.23-1.53-1.23-1.53,0,0,2.07-.62,8.06-4.69,4.91-2.68,9.75-1.23,9.75-1.23,10.77-1.84,15.28,5.83,16.65,8.95,.33,.78,.48,1.27,.48,1.27,0,0-.05,.2-1.23-.26-.27-.1-.6-.24-1-.43,.83,1.43,1.42,5.28,1.68,7.34v.02c.11,.79,.16,1.31,.16,1.31l-.2-.05-1.03-.25s-.07,.76-.69,3.37c1.31,1.31,1.08,5.92-.23,8.37-1.3,2.46-2.38,1.46-2.38,1.46l-1.84,7.76-.69,1.3-.23,1.69h.01s1.6,.62,1.6,.62v5.07l14.36,4.99Z">
</path>
<path class="cls-2" d="M34.83,55.36V24.79l2.99-1.72-.41,2.92,2.98-2.48,.89,1.89,2.82-3.52s4.52,5.7,4.22,12.45c-.3,7.14-2.38,14.69-2.38,14.69l-7.64,5.95-3.47,.4Z">
</path>
<path d="M51.52,19.56l-.83-.2s1.01,2.45,1.32,4.46c.15,.91,.19,1.87,.19,2.65v.02c0,.53-.02,.98-.04,1.26-.01,.22-.02,.34-.02,.34l-1.01-.59s-.5,1.78-.88,3.17c-.37,1.38-1.94,3.95-1.94,3.95,0,0,0-.62-.38-3.64-.31-2.39-3.83-9.11-3.83-9.11,0,0,0,1.83-2.58,4.15,.07-1.32-1-2.89-1-2.89,0,0-.44,2.64-3.83,3.27,.44-.51,1.13-3.33,1.13-3.33,0,0-3.08,2.7-6.72,1.88,.43-.43,.8-2.38,.81-2.5-.08,.05-.9,.55-5.02,2.38-2.57,1.31-3.2,4.45-3.2,4.45,0,0-.5,.13-.63-1.69-1.26,1.51-1.82,6.28-1.82,6.28-1.19-1.13-1.7-3.33-1.7-3.33l-.09-.11c.03-.06,.08-.11,.12-.17-.61-1.77-.53-6.22-.53-6.22l-1.39,1.08s-.53-3.77,1.39-8.07c-.85-.61-1.23-1.53-1.23-1.53,0,0,2.07-.62,8.06-4.69,4.91-2.68,9.75-1.23,9.75-1.23,10.77-1.84,15.28,5.83,16.65,8.95v1.19s-.75-.18-.75-.18Z">
</path>
<path class="cls-3" d="M31.56,38.05s-.36-2.04-1.36-2.68c-3.49,.45-5.08,1.72-5.08,1.72,0,0,5.03,2.99,6.44,.95Z">
</path>
<path class="cls-3" d="M38.15,38.05s.36-2.04,1.36-2.68c3.49,.45,5.08,1.72,5.08,1.72,0,0-5.03,2.99-6.44,.95Z">
</path>
<path class="cls-5" d="M61.04,62.13l-1,10.75-25.03,4.45-26.8-4.15-1.46-10.36,15.97-5.61,.31-5.3,1.38-.61c.93,2.01,2.19,4.47,6.78,5.29,4.59,.82,7.46,.17,10.66-1.23,2.07-.9,2.9-2.72,3.23-3.9l1.6,.61v5.07l14.36,4.99Z">
</path>
<path d="M19.81,30.18s-1.26,.94-1.38,3.08,.82,5.4,1.51,6.59,2.24,1.15,2.53,.96c-.79-6.23-.77-7.49-.77-7.49l-1.88-3.14Z">
</path>
<path d="M44.91,50.44l-15.62,24.16-19.17-2.97-1.92-9.49,14.52-4.93,.31-5.3,1.38-.61,.27-1.53,5.85,4.79s5.46,.86,8.44,0c2.88-2.88,5.94-4.12,5.94-4.12Z">
</path>
<path class="cls-18" d="M52.17,24.81c-3.1-3.1-7.06-4.79-8.18-5.24-.13,1.24-.61,3.38-2.27,5.2-.06-1.23-.99-1.97-.99-1.97,0,0-.44,.57-2.79,2.18,.53-1.81-.08-2.44-.08-2.44,0,0-.53,1.63-4.64,2.27,1.6-1.87,.75-3.7,.64-3.92-1.11,.2-2.54,.8-4.86,2.14,1.52-1.79,2.37-2.47,2.37-2.47,0,0-4.95,1.13-6.54,4.08-1.01-4.08,1.19-6.79,1.19-6.79,0,0-2.8,.59-3.56,1.61-.68-2.8,2.8-5.35,3.65-5.94-2.47,.08-3.74,.53-3.89,.58,.14-.12,.95-.83,2.23-1.64,1.3-.81,3.08-1.74,5.11-2.27,1.68-.45,3.55-.63,5.46-.24,2.52-.37,5.11-.45,7.55,.16,2.07,.52,4.05,1.52,5.8,3.24,.85,.83,1.65,1.82,2.39,3.01,.43,.7,.84,1.47,1.22,2.31-1.38-.42-3.15-.87-3.37-.92,.13,.11,.78,.7,1.53,1.86,.73,1.14,1.55,2.84,2.03,5.2Z">
</path>
<path class="cls-16" d="M50.76,16.36c-4.07-1.9-9.57-1.57-11.07-.12-1.74,1.68-5.16,3.23-6.59,.19,3.67,2.48,2.86-3.42,6.28-2.74,3.41,.69,5.34-.56,1.86-3.66,.45,0,.9,.03,1.33,.08,2.07,.52,4.05,1.52,5.8,3.24,.85,.83,1.65,1.82,2.39,3.01Z">
</path>
<path class="cls-4" d="M37.92,37.97l-.71-5.74,5.5-.14,2.94,1.52-.43,3.32-6.02-1.57s-1.09,1.52-1.28,2.61Z">
</path>
<path class="cls-4" d="M31.59,37.97l.71-5.74-5.5-.14-2.94,1.52,.43,3.32,6.02-1.57s1.09,1.52,1.28,2.61Z">
</path>
<path class="cls-1" d="M44.38,25.04c2.09,3.65,2.45,8.85,2.41,10.14,0,.08,0,.16,.02,.24-.19,1.84-1,9.16-2.3,12.7-.5,.41-1.04,.83-1.59,1.26l-.27,.22c-1.53,1.21-3.11,2.47-4.48,3.66-1.31,.25-2.47,.38-3.54,.38-1.18,0-2.27-.15-3.31-.46-1.44-1.24-3.09-2.55-4.65-3.78-.55-.44-1.08-.87-1.59-1.27-1.21-3.4-1.87-11.14-2.06-13.77,.03-.12,.04-.27,.02-.44,0,0,0-.02,0-.03-.01-.11-.13-1.3,.26-2.92,.16,.06,.34,.09,.52,.09,.07,0,.15,0,.21-.02,.61-.09,1.1-.53,1.25-1.14,0-.02,0-.03,.01-.05,.04-.14,.65-2.4,2.62-3.59,.53-.32,.99-.58,1.42-.82,.13,.3,.36,.56,.66,.73,.02,.01,.05,.03,.07,.04,.31,.14,1.16,.48,2.41,.48,.62,0,1.42-.09,2.33-.38,0,.1,0,.19,.01,.29,.09,.64,.57,1.15,1.2,1.27h0c.2,.04,.47,.05,.67,.05,.69,0,2.08-.15,3.34-1.24,.09,.22,.23,.42,.42,.56,.27,.23,.61,.36,.96,.36,.19,0,.39-.04,.54-.1,.17-.07,1.43-.59,2.45-2.46m-.23-2.08c-.86,2.9-2.49,3.58-2.57,3.61-.06,.02-.12,.04-.19,.04-.11,0-.22-.04-.31-.12-.14-.11-.21-.29-.17-.47,0,0,.14-.87-.26-1.85-1.15,2.45-3.08,2.76-3.97,2.76-.3,0-.48-.03-.49-.04-.21-.04-.37-.2-.4-.42-.03-.21,.08-.41,.27-.51,.05-.03,1.08-.6,1.2-2.1-1.92,1.47-3.59,1.84-4.8,1.84s-1.92-.36-1.99-.39c-.16-.09-.27-.26-.27-.44,0-.19,.1-.36,.26-.45,.04-.02,.74-.42,1.04-1.28-.35,.21-.74,.41-1.2,.65-.75,.39-1.67,.88-2.91,1.62-2.44,1.47-3.09,4.22-3.09,4.25-.05,.2-.21,.36-.42,.39-.02,0-.05,0-.07,0-.18,0-.34-.1-.43-.26-.02-.02-.22-.38-.39-1.06-1.27,2.87-.96,5.29-.95,5.31,0,.07-.02,.13-.04,.19,.22,3.05,.91,11.1,2.23,14.49,.57,.46,1.18,.95,1.81,1.45,1.64,1.29,3.33,2.63,4.78,3.89,1.21,.39,2.46,.57,3.81,.57,1.24,0,2.55-.15,3.99-.45,1.48-1.3,3.23-2.68,4.92-4.02,.63-.49,1.24-.98,1.81-1.44,1.38-3.51,2.23-10.98,2.47-13.37-.02-.06-.03-.12-.03-.18,.05-1.69-.45-8.42-3.64-12.22h0Z">
</path>
<path class="cls-2" d="M24.92,39.41s3.46,1.38,6.31,.69c-2.85,3.63-5.01,1.55-6.31-.69Z">
</path>
<path class="cls-9" d="M35.39,9.4s-4.55-1.09-9.1,1.19-6.23,5.14-8.8,4.94c.49,1.58,1.88,1.68,1.88,1.68,0,0-2.67,4.05-1.58,8.21,.89-1.58,1.48-1.58,1.48-1.58,0,0-1.19,6.23,2.27,10.28,0,0-.47-3.38,1.73-7,.06,1.6,.53,2.44,.53,2.44,0,0,.65-2.97,3.33-4.58s3.92-2.02,4.99-2.85c.12,1.9-1.43,2.73-1.43,2.73,0,0,3.03,1.54,7.01-2.02,.42,2.61-1.43,3.57-1.43,3.57,0,0,3.03,.59,4.28-3.39,1.13,1.49,.83,3.09,.83,3.09,0,0,1.78-.71,2.5-4.16,3.86,3.74,4.46,11.29,4.4,13.25,1.96-3.33,2.55-5.94,2.73-8.32,1.19,1.37,1.37,1.31,1.37,1.31,0,0,.24-5.17-2.14-9.15,1.9,.65,2.2,1.19,2.2,1.19,0,0-2.63-12.33-17.06-10.83Z">
</path>
<path class="cls-9" d="M19.41,30.38s-1.27,.64-1.1,3.7,1.79,6.82,2.49,6.88,.98-.52,.98-.52">
</path>
<path class="cls-9" d="M50.56,30.74c.36,.46,.81,1.42,.7,3.34-.17,3.06-1.79,6.82-2.49,6.88s-.98-.52-.98-.52">
</path>
<path class="cls-9" d="M21.42,33.06s.67,11.74,2.39,15.98c2.09,1.68,4.71,3.68,6.76,5.47,1.06,.35,2.41,.63,3.97,.63s3.02-.22,4.31-.49c2.08-1.83,4.78-3.89,6.92-5.61,1.72-4.24,2.62-14.39,2.62-14.39">
</path>
<path d="M23.97,33.69s1.61-2.07,2.58-2.37c2.96-.89,5.88-.63,5.88-.63,0,0,.3,.93,.04,1.69-3.09-.25-5.67,.15-5.67,.15l-2.83,1.17Z">
</path>
<path d="M45.69,33.69s-1.61-2.07-2.58-2.37c-2.96-.89-5.88-.63-5.88-.63,0,0-.3,.93-.04,1.69,3.09-.25,5.67,.15,5.67,.15l2.83,1.17Z">
</path>
<path d="M31.63,38.16c-.34-.88-.75-1.98-1.52-2.49,0,0,.19,.07,.19,.07-1.85,.1-3.68,.71-5.29,1.61,0,0,.12-.71,.12-.71,.55,.62,1.45,1.12,2.26,1.43,.9,.36,1.86,.54,2.83,.71-2.02,.34-4.32,0-5.84-1.54-.2-.21-.14-.57,.12-.71,1.76-1.07,3.78-1.67,5.83-1.5,1.05,.5,1.26,2.12,1.31,3.13h0Z">
</path>
<path d="M37.95,38.16c.05-1.01,.26-2.63,1.31-3.13,2.05-.17,4.07,.43,5.83,1.5,.26,.14,.32,.49,.12,.71-1.52,1.53-3.82,1.87-5.84,1.54,.97-.16,1.93-.35,2.83-.71,.81-.31,1.72-.81,2.26-1.43l.12,.71c-1.61-.89-3.44-1.51-5.29-1.61,0,0,.19-.07,.19-.07-.77,.52-1.18,1.61-1.52,2.49h0Z">
</path>
<path d="M32.21,42.62c-.8,.91,.39,1.81,1.18,2.19,.04,.02,0,.07-.03,.07-1.01,.39-2.26-.48-2-1.62,.1-.42,.45-.69,.83-.7,.03,0,.05,.04,.03,.06h0Z">
</path>
<path d="M37.52,42.57c.89,.04,1.05,1.27,.54,1.82-.47,.55-1.09,.72-1.77,.49-.03,0-.03-.05,0-.06,.44-.23,.89-.5,1.18-.89,.35-.36,.34-.94,0-1.3-.03-.04,.02-.07,.05-.05h0Z">
</path>
<path d="M32.74,43.91c-.03-.37,.44-.58,.74-.49,.31,.08,.54,.29,.64,.6-.33,0-.55-.08-.74-.12-.2-.04-.32-.1-.64,0h0Z">
</path>
<path d="M36.97,43.91c-.32-.1-.44-.04-.64,0-.2,.03-.42,.12-.74,.12,.09-.31,.32-.53,.64-.6,.31-.09,.78,.12,.74,.49h0Z">
</path>
<path d="M40.33,48.31c-.98-.34-3.16-.7-3.62-.73,0,0-1.57,.81-1.57,.81-.13,.07-.29,.06-.42,0l-1.57-.81c-.45,.03-2.64,.39-3.61,.73,.59-.28,1.18-.55,1.79-.79,.64-.22,1.33-.59,2.06-.58,0,0,1.75,.55,1.75,.55h-.41s1.75-.55,1.75-.55c1.39,.12,2.61,.84,3.86,1.37h0Z">
</path>
<path d="M37.69,48.91c.14,1.46-1.75,1.58-2.84,1.62-1.09-.04-2.98-.16-2.84-1.62,0-.05,.06-.09,.09-.04,.16,.34,.55,.64,.86,.69,1.26-.03,2.51-.03,3.77,0,.31-.05,.7-.35,.86-.69,.03-.05,.1-.01,.09,.04h0Z">
</path>
<path class="cls-8" d="M45.24,49.66l-.13,1.58s.92,.32,1.54,.9c-.13,2.35,.18,6.37,.48,7.86-.79,3.84-5.32,7.73-11.87,7.73h-.96c-6.55,0-11.08-3.89-11.87-7.73,.31-1.49,.62-5.51,.48-7.86,.62-.59,1.54-.9,1.54-.9l-.13-1.58">
</path>
<path class="cls-8" d="M24.45,51.24s.55,5.8,10.43,5.8,10.23-5.8,10.23-5.8">
</path>
<line class="cls-8" x1="22.65" y1="57.18" x2="7.03" y2="62.78">
</line>
<line class="cls-8" x1="47.21" y1="57.18" x2="62.83" y2="62.78">
</line>
<path class="cls-13" d="M10.01,62.68c4.42-1.45,9.36-3.34,13.54-4.54,.03-1.53,0-3.68,.18-5.18,0,0,.1,.02,.1,.02,.04,.43,.1,.86,.15,1.29,.17,1.07,.33,3.25,.43,4.34-4.52,1.82-9.63,3.76-14.39,4.07h0Z">
</path>
<path class="cls-13" d="M19.73,31.39c-.54,2.84,.75,5.12,.83,8.06,0,0-.09,.05-.09,.05-1.03-1.88-1.83-4.03-1.65-6.2,.09-.72,.31-1.45,.84-1.99l.07,.08h0Z">
</path>
</g>
</g>
  <g
     id="g20645">
    <path
       style="fill:#808080;stroke:#4d4d4d;stroke-width:0.937908;stop-color:#000000;fill-opacity:1"
       d="m 9.541565,65.883425 a 5.4759801,5.4759801 0 0 1 5.47598,5.475981 5.4759801,5.4759801 0 0 1 -5.47598,5.47598 5.4759801,5.4759801 0 0 1 -5.4759806,-5.47598 5.4759801,5.4759801 0 0 1 5.4759806,-5.475981 z"/>
    <path
       style="fill:#808080;stroke:#4d4d4d;stroke-width:0.937908;stop-color:#000000;fill-opacity:1"
       d="m 59.472108,65.883425 a 5.4759801,5.4759801 0 0 1 5.47598,5.475981 5.4759801,5.4759801 0 0 1 -5.47598,5.47598 5.4759801,5.4759801 0 0 1 -5.475981,-5.47598 5.4759801,5.4759801 0 0 1 5.475981,-5.475981 z"/>
    <path
       id="path7641"
       style="fill:#808080;stroke:#4d4d4d;stroke-width:1.64416;stop-color:#000000"
       d="M 34.642578,1.1660156 C 13.787845,9.1047124 0.86132813,23.726855 0.86132812,39.564453 V 79.340489 H 68.152344 V 39.564453 c 0,-15.800978 -12.759199,-30.4148342 -33.509766,-38.3984374 z m -0.01367,3.8085938 C 53.384648,12.190722 64.917969,25.399665 64.917969,39.681641 v 26.507812 c -1.368656,-1.44106 -3.300993,-2.341797 -5.445313,-2.341797 -4.14856,0 -7.511718,3.363159 -7.511718,7.511719 0,2.347008 1.075662,4.442843 2.761718,5.820313 H 14.269531 c 1.756069,-1.422629 2.778281,-3.560307 2.783203,-5.820313 4.8e-5,-4.148627 -3.363091,-7.511766 -7.5117184,-7.511719 -2.0622939,0.0062 -4.0313164,0.860092 -5.4453125,2.361328 V 39.681641 c 0,-14.315076 11.6833059,-27.531508 30.5332029,-34.7070316 z"/>
    <circle
       style="fill:#4d4d4d;fill-opacity:1;stroke:#4d4d4d;stop-color:#000000"
       id="path16431"
       cx="9.6010828"
       cy="71.229652"
       r="5.06003" />
    <circle
       style="fill:#4d4d4d;fill-opacity:1;stroke:#4d4d4d;stop-color:#000000"
       id="path16431-3"
       cx="59.42292"
       cy="71.229652"
       r="5.06003" />
  </g>
</svg>
