<svg id="Capa_2" xmlns="http://www.w3.org/2000/svg" xmlns:xlink="http://www.w3.org/1999/xlink" viewBox="0 0 69.02 80">
<defs >
<style >
.cls-1{fill:#000000;}.cls-2{fill:#000;}.cls-3{fill:#000000;}.cls-4{fill:#000000;}.cls-5{fill:#000000;}.cls-6{fill:#000000;}.cls-7{stroke-miterlimit:10;}.cls-7,.cls-8,.cls-9,.cls-10,.cls-11,.cls-12{fill:none;}.cls-7,.cls-8,.cls-10{stroke:#000;}.cls-8{stroke-width:.99px;}.cls-8,.cls-9,.cls-10{stroke-linecap:round;stroke-linejoin:round;}.cls-13{fill:#000000;}.cls-9{stroke:#000000;stroke-dasharray:0 0 0 4.06;}.cls-14{fill:#000000;}.cls-10{stroke-width:.88px;}.cls-15{fill:url(#USGS_19_Inundación_de_tierra_2);}.cls-12{stroke:#000000;stroke-dasharray:0 0 2 2;stroke-width:.3px;}.cls-16{fill:#000000;}
</style>
<pattern id="USGS_19_Inundación_de_tierra_2" x="0" y="0" width="72" height="72" patternTransform="translate(-164.48 -16207) rotate(-90)" patternUnits="userSpaceOnUse" viewBox="0 0 72 72">
<g >
<rect class="cls-11" width="72" height="72">
</rect>
<g >
<line class="cls-12" x1="71" y1="71" x2="144.44" y2="71">
</line>
<line class="cls-12" x1="71" y1="67" x2="144.44" y2="67">
</line>
<line class="cls-12" x1="71" y1="63" x2="144.44" y2="63">
</line>
<line class="cls-12" x1="71" y1="59" x2="144.44" y2="59">
</line>
<line class="cls-12" x1="71" y1="55" x2="144.44" y2="55">
</line>
<line class="cls-12" x1="71" y1="51" x2="144.44" y2="51">
</line>
<line class="cls-12" x1="71" y1="47" x2="144.44" y2="47">
</line>
<line class="cls-12" x1="71" y1="43" x2="144.44" y2="43">
</line>
<line class="cls-12" x1="71" y1="39" x2="144.44" y2="39">
</line>
<line class="cls-12" x1="71" y1="35" x2="144.44" y2="35">
</line>
<line class="cls-12" x1="71" y1="31" x2="144.44" y2="31">
</line>
<line class="cls-12" x1="71" y1="27" x2="144.44" y2="27">
</line>
<line class="cls-12" x1="71" y1="23" x2="144.44" y2="23">
</line>
<line class="cls-12" x1="71" y1="19" x2="144.44" y2="19">
</line>
<line class="cls-12" x1="71" y1="15" x2="144.44" y2="15">
</line>
<line class="cls-12" x1="71" y1="11" x2="144.44" y2="11">
</line>
<line class="cls-12" x1="71" y1="7" x2="144.44" y2="7">
</line>
<line class="cls-12" x1="71" y1="3" x2="144.44" y2="3">
</line>
</g>
<g >
<line class="cls-12" x1="-1" y1="71" x2="72.44" y2="71">
</line>
<line class="cls-12" x1="-1" y1="67" x2="72.44" y2="67">
</line>
<line class="cls-12" x1="-1" y1="63" x2="72.44" y2="63">
</line>
<line class="cls-12" x1="-1" y1="59" x2="72.44" y2="59">
</line>
<line class="cls-12" x1="-1" y1="55" x2="72.44" y2="55">
</line>
<line class="cls-12" x1="-1" y1="51" x2="72.44" y2="51">
</line>
<line class="cls-12" x1="-1" y1="47" x2="72.44" y2="47">
</line>
<line class="cls-12" x1="-1" y1="43" x2="72.44" y2="43">
</line>
<line class="cls-12" x1="-1" y1="39" x2="72.44" y2="39">
</line>
<line class="cls-12" x1="-1" y1="35" x2="72.44" y2="35">
</line>
<line class="cls-12" x1="-1" y1="31" x2="72.44" y2="31">
</line>
<line class="cls-12" x1="-1" y1="27" x2="72.44" y2="27">
</line>
<line class="cls-12" x1="-1" y1="23" x2="72.44" y2="23">
</line>
<line class="cls-12" x1="-1" y1="19" x2="72.44" y2="19">
</line>
<line class="cls-12" x1="-1" y1="15" x2="72.44" y2="15">
</line>
<line class="cls-12" x1="-1" y1="11" x2="72.44" y2="11">
</line>
<line class="cls-12" x1="-1" y1="7" x2="72.44" y2="7">
</line>
<line class="cls-12" x1="-1" y1="3" x2="72.44" y2="3">
</line>
<line class="cls-12" x1="1.04" y1="69" x2="74.48" y2="69">
</line>
<line class="cls-12" x1="1.04" y1="65" x2="74.48" y2="65">
</line>
<line class="cls-12" x1="1.04" y1="61" x2="74.48" y2="61">
</line>
<line class="cls-12" x1="1.04" y1="57" x2="74.48" y2="57">
</line>
<line class="cls-12" x1="1.04" y1="53" x2="74.48" y2="53">
</line>
<line class="cls-12" x1="1.04" y1="49" x2="74.48" y2="49">
</line>
<line class="cls-12" x1="1.04" y1="45" x2="74.48" y2="45">
</line>
<line class="cls-12" x1="1.04" y1="41" x2="74.48" y2="41">
</line>
<line class="cls-12" x1="1.04" y1="37" x2="74.48" y2="37">
</line>
<line class="cls-12" x1="1.04" y1="33" x2="74.48" y2="33">
</line>
<line class="cls-12" x1="1.04" y1="29" x2="74.48" y2="29">
</line>
<line class="cls-12" x1="1.04" y1="25" x2="74.48" y2="25">
</line>
<line class="cls-12" x1="1.04" y1="21" x2="74.48" y2="21">
</line>
<line class="cls-12" x1="1.04" y1="17" x2="74.48" y2="17">
</line>
<line class="cls-12" x1="1.04" y1="13" x2="74.48" y2="13">
</line>
<line class="cls-12" x1="1.04" y1="9" x2="74.48" y2="9">
</line>
<line class="cls-12" x1="1.04" y1="5" x2="74.48" y2="5">
</line>
<line class="cls-12" x1="1.04" y1="1" x2="74.48" y2="1">
</line>
</g>
<g >
<line class="cls-12" x1="-73" y1="71" x2=".44" y2="71">
</line>
<line class="cls-12" x1="-73" y1="67" x2=".44" y2="67">
</line>
<line class="cls-12" x1="-73" y1="63" x2=".44" y2="63">
</line>
<line class="cls-12" x1="-73" y1="59" x2=".44" y2="59">
</line>
<line class="cls-12" x1="-73" y1="55" x2=".44" y2="55">
</line>
<line class="cls-12" x1="-73" y1="51" x2=".44" y2="51">
</line>
<line class="cls-12" x1="-73" y1="47" x2=".44" y2="47">
</line>
<line class="cls-12" x1="-73" y1="43" x2=".44" y2="43">
</line>
<line class="cls-12" x1="-73" y1="39" x2=".44" y2="39">
</line>
<line class="cls-12" x1="-73" y1="35" x2=".44" y2="35">
</line>
<line class="cls-12" x1="-73" y1="31" x2=".44" y2="31">
</line>
<line class="cls-12" x1="-73" y1="27" x2=".44" y2="27">
</line>
<line class="cls-12" x1="-73" y1="23" x2=".44" y2="23">
</line>
<line class="cls-12" x1="-73" y1="19" x2=".44" y2="19">
</line>
<line class="cls-12" x1="-73" y1="15" x2=".44" y2="15">
</line>
<line class="cls-12" x1="-73" y1="11" x2=".44" y2="11">
</line>
<line class="cls-12" x1="-73" y1="7" x2=".44" y2="7">
</line>
<line class="cls-12" x1="-73" y1="3" x2=".44" y2="3">
</line>
<line class="cls-12" x1="-70.96" y1="69" x2="2.48" y2="69">
</line>
<line class="cls-12" x1="-70.96" y1="65" x2="2.48" y2="65">
</line>
<line class="cls-12" x1="-70.96" y1="61" x2="2.48" y2="61">
</line>
<line class="cls-12" x1="-70.96" y1="57" x2="2.48" y2="57">
</line>
<line class="cls-12" x1="-70.96" y1="53" x2="2.48" y2="53">
</line>
<line class="cls-12" x1="-70.96" y1="49" x2="2.48" y2="49">
</line>
<line class="cls-12" x1="-70.96" y1="45" x2="2.48" y2="45">
</line>
<line class="cls-12" x1="-70.96" y1="41" x2="2.48" y2="41">
</line>
<line class="cls-12" x1="-70.96" y1="37" x2="2.48" y2="37">
</line>
<line class="cls-12" x1="-70.96" y1="33" x2="2.48" y2="33">
</line>
<line class="cls-12" x1="-70.96" y1="29" x2="2.48" y2="29">
</line>
<line class="cls-12" x1="-70.96" y1="25" x2="2.48" y2="25">
</line>
<line class="cls-12" x1="-70.96" y1="21" x2="2.48" y2="21">
</line>
<line class="cls-12" x1="-70.96" y1="17" x2="2.48" y2="17">
</line>
<line class="cls-12" x1="-70.96" y1="13" x2="2.48" y2="13">
</line>
<line class="cls-12" x1="-70.96" y1="9" x2="2.48" y2="9">
</line>
<line class="cls-12" x1="-70.96" y1="5" x2="2.48" y2="5">
</line>
<line class="cls-12" x1="-70.96" y1="1" x2="2.48" y2="1">
</line>
</g>
</g>
</pattern>
</defs>
  <path
     id="circle1849"
     style="fill:#AA00DD;stroke:#000000;stroke-width:2"
     d="M 34.875,3.84375 C 30.2026,3.8566827 25.91896,6.4477515 23.738281,10.580078 21.63936,9.1446679 19.156089,8.3761337 16.613281,8.375 9.636905,8.3755251 3.9818685,14.031436 3.9824219,21.007812 c 0.012178,4.019812 1.9368978,7.79383 5.1835937,10.164063 -1.8357739,2.246976 -2.8420262,5.057448 -2.8496094,7.958984 0.00713,1.935325 0.4588528,3.843134 1.3203126,5.576172 -2.4145566,2.364898 -3.7807042,5.598771 -3.7929688,8.978516 0.00466,4.996359 2.9538661,9.520462 7.523438,11.541015 0.767283,6.336372 6.140784,11.10481 12.523437,11.113282 3.186693,-0.0091 6.252191,-1.222333 8.582031,-3.396485 1.867081,1.045968 3.9693,1.600422 6.109375,1.611329 2.723791,-0.01118 5.371006,-0.902492 7.546875,-2.541016 1.56279,0.673484 3.245549,1.024252 4.947266,1.03125 6.977139,5.53e-4 12.633366,-5.655674 12.632812,-12.632813 -0.0013,-2.652818 -0.837669,-5.237911 -2.390625,-7.388671 2.480721,-2.37284 3.888874,-5.653124 3.900391,-9.085938 -9.13e-4,-3.96978 -1.867955,-7.708203 -5.041016,-10.09375 2.59288,-2.385063 4.071919,-5.744584 4.080078,-9.267578 C 64.257287,17.599796 58.601376,11.944759 51.625,11.945312 50.032147,11.955601 48.455612,12.267065 46.978516,12.863281 45.38146,7.5117456 40.459758,3.8440964 34.875,3.84375 Z"/>



<g id="Capa_10">
<g >
<path class="cls-1" d="M64.46,62.2l-3.89,11.41-28.44,3.89-24.82-5.91v-10.06l17.44-5.77,.27-4.56-2.41-5.77s-2.82-.53-4.7-4.42c-1.88-3.9-.4-8.46,1.75-7.79-.1-.27-.2-.53-.29-.79-1.44-4.19-1.32-6.45-1.32-6.45l-1.87,.66c.14-.29,2.43-4.9,3.34-7.23,.94-2.42,3.89-8.05,14.22-8.59,10.33-.54,14.76,4.03,16.64,7.92s1.88,10.33-.4,14.35c.13-.03,.26-.04,.39-.05,3.22-.31,3.06,3.65,2.29,6.49-.81,3.22-2.82,5.5-5.1,5.5-1.61,4.29-2.55,6.31-2.55,6.31l.27,4.83,19.18,6.03Z">
</path>
<path class="cls-2" d="M34.97,52.46V27.92s5.88-.27,7.39-1.46,3.5-2.26,3.5-2.26l2.21,2.43s2.05,5.66,.81,11.7-3.13,13.64-6.85,17.15c-.04,.04-.07,.07-.11,.1-2.65,2.44-6.95,.48-6.95-3.12Z">
</path>
<path d="M49.98,33.09c.13-.03,.26-.04,.39-.05l-1.1,2.45s-1.01-8-1.66-9.37c-1.88,2.02-2.24,1.87-2.24,1.87,0,0,.58-3.39,.51-4.62-4.4,3.97-4.91,3.9-10.75,4.48,.72-1.66,.86-2.24,.86-2.24,0,0-3.17,2.24-6.63,2.02,3.68-3.03,4.33-6.49,4.33-6.49,0,0-5.7,3.46-8.3,4.4,1.59-2.45,.87-3.75,.87-3.75,0,0-5.56,3.82-5.27,13.27l-1.62-2.63c-1.44-4.19-1.32-6.45-1.32-6.45l-1.87,.66c.14-.29,2.43-4.9,3.34-7.23,.94-2.42,3.89-8.05,14.22-8.59,10.33-.54,14.76,4.03,16.64,7.92s1.88,10.33-.4,14.35Z">
</path>
<path class="cls-3" d="M31.71,39.58s-1.98-2.89-6.61-2.05c1.67,1.67,2.89,2.58,2.89,2.58,0,0,2.66,0,3.72-.53Z">
</path>
<path class="cls-3" d="M38.58,39.58s1.98-2.89,6.61-2.05c-1.67,1.67-2.89,2.58-2.89,2.58,0,0-2.66,0-3.72-.53Z">
</path>
<path d="M21.02,33.59s-2.17-1.9-3.16,.54-.36,6.69,1.54,9.04,3.34,1.54,3.34,1.54c0,0-.45-8.68-1.72-11.12Z">
</path>
<path d="M41.73,56.19l-16.37,19.12-16.48-1.9-1.57-11.87,17.44-5.77,.39-4.12s2.22,4.86,6.13,6.13,8.87,.11,10.46-1.58Z">
</path>
<path class="cls-13" d="M45.02,56.3v5.11s-.19,8.08-14.22,6.32c-5.39,5.48-6.5,6.88-6.5,6.88v2.23l37.72-2.79-.09-12.54-16.91-5.2Z">
</path>
<path class="cls-2" d="M43.33,56.23l-7.72,9.54s4.77,.45,7.95-4.09c-.11-3.86-.23-5.45-.23-5.45Z">
</path>
<path class="cls-4" d="M32.06,39.84l1.5-4.62-7.81-.39s-1.76,.64-2.44,1.43c.47,1.04,.82,1.33,.82,1.33,0,0,1.36-.47,2.72-.47s4.3,1.4,5.19,2.72Z">
</path>
<path class="cls-4" d="M38.29,39.84l-1.5-4.62,7.81-.39s1.76,.64,2.44,1.43c-.47,1.04-.78,1.17-.78,1.17,0,0-1.4-.31-2.77-.31s-4.3,1.4-5.19,2.72Z">
</path>
<path class="cls-2" d="M25.27,39.58s1.92,1.55,2.53,1.78c2.49-.23,3.9-.38,3.9-.38,0,0-1.78,3.05-3.66,3.43-2.82-1.78-2.77-4.83-2.77-4.83Z">
</path>
<path class="cls-1" d="M29.1,25.65c-.34,.28-.72,.54-1.14,.77-.58,.31-.89,.95-.77,1.55,.1,.64,.61,1.15,1.23,1.24,.29,.05,.61,.07,.93,.07,1.25,0,2.64-.34,3.91-.79,.05,.18,.13,.35,.24,.51,.28,.38,.74,.6,1.21,.6,.12,0,.24-.02,.38-.05,.8-.22,1.7-.32,2.65-.44h.05c1.74-.2,3.75-.43,5.66-1.46-.23,.5-.15,1.1,.21,1.54,.29,.35,.71,.56,1.16,.56,.17,0,.33-.03,.47-.08,.11-.04,.79-.28,1.66-.87,.57,2.52,1.05,5.62,1.23,6.78,.03,.17,.05,.3,.06,.4-.06,.33-.12,.69-.18,1.07-.86,5.09-2.46,14.56-8.7,18.74-1.01,.68-2.47,1.09-4.32,1.22-1.81-.12-3.29-.54-4.41-1.23-4.98-3.14-7.27-15.88-7.9-20.08,.04-.18,.04-.35,0-.5-.57-3.71,.15-6.49,1.17-8.46,0,0,0,0,0,0,.01,.02,.03,.03,.04,.05,.29,.35,.72,.55,1.17,.55,.17,0,.34-.03,.53-.1,1.18-.46,2.36-1.02,3.45-1.6m3.65-3.35c-1.6,1.07-4.51,2.88-7.46,4.02-.05,.02-.11,.03-.17,.03-.15,0-.3-.07-.4-.19-.13-.18-.13-.42,0-.6,.85-1.15,1.17-2.25,1.28-3-1.7,1.4-5.39,5.38-4.25,12.8,.02,.1,0,.19-.04,.28,.63,4.3,2.96,17.58,8.39,21,1.27,.79,2.93,1.26,4.94,1.39,1.95-.13,3.64-.56,4.88-1.39,7.18-4.81,8.53-16.15,9.34-20.64-.03-.06-.81-5.66-1.72-8.95-1.26,1.24-2.51,1.67-2.57,1.69-.05,.02-.11,.03-.16,.03-.15,0-.29-.07-.38-.19-.13-.16-.15-.39-.04-.56,.01-.02,.8-1.37,1.06-3.32-2.27,2.8-5.17,3.14-7.77,3.43-1.01,.12-1.96,.23-2.85,.47-.04,.01-.08,.01-.12,.01-.16,0-.31-.08-.41-.2-.12-.17-.12-.39,0-.56,.29-.43,.51-.81,.7-1.13-1.43,.66-3.74,1.57-5.64,1.57-.27,0-.53-.02-.77-.06-.2-.03-.37-.2-.4-.4-.04-.21,.06-.42,.25-.52,2.4-1.32,3.7-3.56,4.32-5.01h0Z">
</path>
<path class="cls-13" d="M23.86,15.51s3.19-2.32,7.63-3.09c-1.93,2.9,.29,3.96,4.15,2.99s5.02,5.6,7.24,3.28,6.47,1.16,5.89-1.54c2.41,2.41,2.9,7.91,2.8,8.69-.87-2.22-3.47-7.14-8.59-4.25s-2.41-6.56-9.65-4.44-4.63-3.28-9.46-1.64Z">
</path>
<path class="cls-8" d="M21.19,35.67s-4-7.17-2.79-10.26c-1.13,1.28-1.96,1.06-1.96,1.06,0,0,1.58-3.17,2.49-6.34s6.34-9.36,15.47-9.21,12.6,3.02,14.57,5.58,3.78,8.81,2.31,13.73l-2.01,5.44s-.38-6.34-1.51-9.58c-1.36,1.66-2.94,2.19-2.94,2.19,0,0,1.36-2.26,1.21-5.28-3.02,5.28-7.62,4.15-11.32,5.13,1.06-1.58,1.36-2.49,1.36-2.49,0,0-4.6,2.57-7.4,2.11,4-2.19,5.06-6.72,5.06-6.72,0,0-4.3,3.17-8.6,4.83,1.66-2.26,1.43-4.3,1.43-4.3,0,0-6.79,4.08-5.28,13.89">
</path>
<path class="cls-10" d="M20.7,34.01s-1.53-2.07-2.6-.67c-1.6,2.09-.4,11.7,4.53,11.62">
</path>
<path class="cls-10" d="M49.67,34.01s1.53-2.07,2.6-.67c1.6,2.09,.4,11.7-4.53,11.62">
</path>
<path class="cls-8" d="M49.09,37.42s-2.16,15.39-8.91,19.64c-1.47,.92-3.29,1.34-5.17,1.46-1.88-.12-3.7-.54-5.17-1.46-6.75-4.25-8.39-19.64-8.39-19.64">
</path>
<path d="M23.19,36.39s1.4-1.16,2.97-.99,5.78,.99,6.44,.91c.95-.58,1.2-1.57,1.2-1.57,0,0-4.21-1.07-6.81-.83-2.64,.41-3.8,2.48-3.8,2.48Z">
</path>
<path d="M32.13,40.05c-1.96-1.79-4.54-2.8-7.12-2.02,0,0,.2-.82,.2-.82,.79,.86,2.26,2.04,2.92,2.51,.8,.07,1.59,.16,2.39,.3-.81,.14-1.61,.23-2.42,.3-.41-.12-.74-.29-1.07-.48-1.16-.65-2.17-1.58-3.1-2.52,3.14-1.23,6.53-.24,8.21,2.73h0Z">
</path>
<path d="M32.59,43.15c-.11,.56-.25,1.1-.14,1.5,.16,.45,.54,.85,.89,1.22-1.44-.18-1.89-1.81-.75-2.72h0Z">
</path>
<path d="M33.16,44.71c.51-.53,1.42,.09,1.33,.73-.48-.41-.87-.34-1.33-.73h0Z">
</path>
<path d="M47.11,36.39s-1.4-1.16-2.97-.99-5.78,.99-6.44,.91c-.95-.58-1.2-1.57-1.2-1.57,0,0,4.21-1.07,6.81-.83,2.64,.41,3.8,2.48,3.8,2.48Z">
</path>
<path d="M38.17,40.05c1.68-2.97,5.06-3.96,8.21-2.73-.94,.94-1.94,1.86-3.1,2.52-.34,.18-.68,.39-1.1,.47-.8-.07-1.59-.16-2.39-.3,.8-.14,1.59-.23,2.39-.3,.66-.47,2.13-1.64,2.92-2.51,0,0,.2,.82,.2,.82-2.58-.78-5.16,.23-7.12,2.02h0Z">
</path>
<path d="M37.7,43.15c1.14,.9,.69,2.54-.75,2.72,.35-.37,.74-.77,.89-1.22,.11-.4-.03-.94-.14-1.5h0Z">
</path>
<path d="M37.13,44.71c-.46,.39-.85,.31-1.33,.73-.09-.64,.82-1.26,1.33-.73h0Z">
</path>
<path d="M40.32,49.81c-1.49,.3-3.37,.29-4.66,.19-1.81,.01-3.74,.21-5.68-.19,1.83-.65,3.74-1.06,5.68-1.02,1.59,.16,3.15,.44,4.66,1.02h0Z">
</path>
<path d="M31.77,51.89c.99-.17,2.2-.16,3.05-.1,1.19,0,2.43-.13,3.71,.1-2.22,.82-4.54,.81-6.76,0h0Z">
</path>
<path class="cls-7" d="M45.15,50.73v11.02s-1.7,6.09-9.31,6.09h-1.75c-7.61,0-9.31-6.09-9.31-6.09v-11.02">
</path>
<line class="cls-7" x1="24.73" y1="55.97" x2="6.63" y2="61.76">
</line>
<line class="cls-7" x1="45.06" y1="55.97" x2="63.16" y2="61.76">
</line>
<path class="cls-13" d="M9.96,61.7c4.54-1.53,10.9-3.65,15.4-5.08,0,0-.05,.06-.05,.06,0,0,.02-3.27,.02-3.27h.1c.24,1.2,.44,2.4,.52,3.62-4.95,2.16-10.7,4.32-16,4.67h0Z">
</path>
<path class="cls-13" d="M18.94,33.95c.16,2.85,.61,5.6,1,8.45,0,0-.09,.05-.09,.05-.76-1.27-1.31-2.68-1.5-4.15-.16-1.48-.03-2.99,.5-4.39l.09,.04h0Z">
</path>
</g>
</g>

</svg>
