<svg id="Capa_2" xmlns="http://www.w3.org/2000/svg" xmlns:xlink="http://www.w3.org/1999/xlink" viewBox="0 0 69.02 80">
<defs >
<style >
.cls-1{fill:#c89aed;}.cls-2{fill:#fff;}.cls-3{fill:#f8ffbf;}.cls-4{fill:#7b7be8;}.cls-5{fill:#a88347;}.cls-6{fill:#782ab5;}.cls-7{stroke-miterlimit:10;}.cls-7,.cls-8,.cls-9,.cls-10,.cls-11,.cls-12,.cls-13{fill:none;}.cls-7,.cls-8,.cls-9,.cls-13{stroke:#000;}.cls-8{stroke-width:.5px;}.cls-8,.cls-9,.cls-10,.cls-13{stroke-linecap:round;stroke-linejoin:round;}.cls-14{fill:#1c46ff;}.cls-10{stroke:#deb778;stroke-dasharray:0 0 0 4.06;}.cls-15{fill:#deb778;}.cls-16{fill:url(#USGS_19_Inundación_de_tierra_2);}.cls-12{stroke:#1d1d1b;stroke-dasharray:0 0 2 2;stroke-width:.3px;}.cls-17{fill:#fcf0c5;}.cls-13{stroke-width:1.02px;}
</style>
<pattern id="USGS_19_Inundación_de_tierra_2" x="0" y="0" width="72" height="72" patternTransform="translate(-236.48 -16207) rotate(-90)" patternUnits="userSpaceOnUse" viewBox="0 0 72 72">
<g >
<rect class="cls-11" width="72" height="72">
</rect>
<g >
<line class="cls-12" x1="71" y1="71" x2="144.44" y2="71">
</line>
<line class="cls-12" x1="71" y1="67" x2="144.44" y2="67">
</line>
<line class="cls-12" x1="71" y1="63" x2="144.44" y2="63">
</line>
<line class="cls-12" x1="71" y1="59" x2="144.44" y2="59">
</line>
<line class="cls-12" x1="71" y1="55" x2="144.44" y2="55">
</line>
<line class="cls-12" x1="71" y1="51" x2="144.44" y2="51">
</line>
<line class="cls-12" x1="71" y1="47" x2="144.44" y2="47">
</line>
<line class="cls-12" x1="71" y1="43" x2="144.44" y2="43">
</line>
<line class="cls-12" x1="71" y1="39" x2="144.44" y2="39">
</line>
<line class="cls-12" x1="71" y1="35" x2="144.44" y2="35">
</line>
<line class="cls-12" x1="71" y1="31" x2="144.44" y2="31">
</line>
<line class="cls-12" x1="71" y1="27" x2="144.44" y2="27">
</line>
<line class="cls-12" x1="71" y1="23" x2="144.44" y2="23">
</line>
<line class="cls-12" x1="71" y1="19" x2="144.44" y2="19">
</line>
<line class="cls-12" x1="71" y1="15" x2="144.44" y2="15">
</line>
<line class="cls-12" x1="71" y1="11" x2="144.44" y2="11">
</line>
<line class="cls-12" x1="71" y1="7" x2="144.44" y2="7">
</line>
<line class="cls-12" x1="71" y1="3" x2="144.44" y2="3">
</line>
</g>
<g >
<line class="cls-12" x1="-1" y1="71" x2="72.44" y2="71">
</line>
<line class="cls-12" x1="-1" y1="67" x2="72.44" y2="67">
</line>
<line class="cls-12" x1="-1" y1="63" x2="72.44" y2="63">
</line>
<line class="cls-12" x1="-1" y1="59" x2="72.44" y2="59">
</line>
<line class="cls-12" x1="-1" y1="55" x2="72.44" y2="55">
</line>
<line class="cls-12" x1="-1" y1="51" x2="72.44" y2="51">
</line>
<line class="cls-12" x1="-1" y1="47" x2="72.44" y2="47">
</line>
<line class="cls-12" x1="-1" y1="43" x2="72.44" y2="43">
</line>
<line class="cls-12" x1="-1" y1="39" x2="72.44" y2="39">
</line>
<line class="cls-12" x1="-1" y1="35" x2="72.44" y2="35">
</line>
<line class="cls-12" x1="-1" y1="31" x2="72.44" y2="31">
</line>
<line class="cls-12" x1="-1" y1="27" x2="72.44" y2="27">
</line>
<line class="cls-12" x1="-1" y1="23" x2="72.44" y2="23">
</line>
<line class="cls-12" x1="-1" y1="19" x2="72.44" y2="19">
</line>
<line class="cls-12" x1="-1" y1="15" x2="72.44" y2="15">
</line>
<line class="cls-12" x1="-1" y1="11" x2="72.44" y2="11">
</line>
<line class="cls-12" x1="-1" y1="7" x2="72.44" y2="7">
</line>
<line class="cls-12" x1="-1" y1="3" x2="72.44" y2="3">
</line>
<line class="cls-12" x1="1.04" y1="69" x2="74.48" y2="69">
</line>
<line class="cls-12" x1="1.04" y1="65" x2="74.48" y2="65">
</line>
<line class="cls-12" x1="1.04" y1="61" x2="74.48" y2="61">
</line>
<line class="cls-12" x1="1.04" y1="57" x2="74.48" y2="57">
</line>
<line class="cls-12" x1="1.04" y1="53" x2="74.48" y2="53">
</line>
<line class="cls-12" x1="1.04" y1="49" x2="74.48" y2="49">
</line>
<line class="cls-12" x1="1.04" y1="45" x2="74.48" y2="45">
</line>
<line class="cls-12" x1="1.04" y1="41" x2="74.48" y2="41">
</line>
<line class="cls-12" x1="1.04" y1="37" x2="74.48" y2="37">
</line>
<line class="cls-12" x1="1.04" y1="33" x2="74.48" y2="33">
</line>
<line class="cls-12" x1="1.04" y1="29" x2="74.48" y2="29">
</line>
<line class="cls-12" x1="1.04" y1="25" x2="74.48" y2="25">
</line>
<line class="cls-12" x1="1.04" y1="21" x2="74.48" y2="21">
</line>
<line class="cls-12" x1="1.04" y1="17" x2="74.48" y2="17">
</line>
<line class="cls-12" x1="1.04" y1="13" x2="74.48" y2="13">
</line>
<line class="cls-12" x1="1.04" y1="9" x2="74.48" y2="9">
</line>
<line class="cls-12" x1="1.04" y1="5" x2="74.48" y2="5">
</line>
<line class="cls-12" x1="1.04" y1="1" x2="74.48" y2="1">
</line>
</g>
<g >
<line class="cls-12" x1="-73" y1="71" x2=".44" y2="71">
</line>
<line class="cls-12" x1="-73" y1="67" x2=".44" y2="67">
</line>
<line class="cls-12" x1="-73" y1="63" x2=".44" y2="63">
</line>
<line class="cls-12" x1="-73" y1="59" x2=".44" y2="59">
</line>
<line class="cls-12" x1="-73" y1="55" x2=".44" y2="55">
</line>
<line class="cls-12" x1="-73" y1="51" x2=".44" y2="51">
</line>
<line class="cls-12" x1="-73" y1="47" x2=".44" y2="47">
</line>
<line class="cls-12" x1="-73" y1="43" x2=".44" y2="43">
</line>
<line class="cls-12" x1="-73" y1="39" x2=".44" y2="39">
</line>
<line class="cls-12" x1="-73" y1="35" x2=".44" y2="35">
</line>
<line class="cls-12" x1="-73" y1="31" x2=".44" y2="31">
</line>
<line class="cls-12" x1="-73" y1="27" x2=".44" y2="27">
</line>
<line class="cls-12" x1="-73" y1="23" x2=".44" y2="23">
</line>
<line class="cls-12" x1="-73" y1="19" x2=".44" y2="19">
</line>
<line class="cls-12" x1="-73" y1="15" x2=".44" y2="15">
</line>
<line class="cls-12" x1="-73" y1="11" x2=".44" y2="11">
</line>
<line class="cls-12" x1="-73" y1="7" x2=".44" y2="7">
</line>
<line class="cls-12" x1="-73" y1="3" x2=".44" y2="3">
</line>
<line class="cls-12" x1="-70.96" y1="69" x2="2.48" y2="69">
</line>
<line class="cls-12" x1="-70.96" y1="65" x2="2.48" y2="65">
</line>
<line class="cls-12" x1="-70.96" y1="61" x2="2.48" y2="61">
</line>
<line class="cls-12" x1="-70.96" y1="57" x2="2.48" y2="57">
</line>
<line class="cls-12" x1="-70.96" y1="53" x2="2.48" y2="53">
</line>
<line class="cls-12" x1="-70.96" y1="49" x2="2.48" y2="49">
</line>
<line class="cls-12" x1="-70.96" y1="45" x2="2.48" y2="45">
</line>
<line class="cls-12" x1="-70.96" y1="41" x2="2.48" y2="41">
</line>
<line class="cls-12" x1="-70.96" y1="37" x2="2.48" y2="37">
</line>
<line class="cls-12" x1="-70.96" y1="33" x2="2.48" y2="33">
</line>
<line class="cls-12" x1="-70.96" y1="29" x2="2.48" y2="29">
</line>
<line class="cls-12" x1="-70.96" y1="25" x2="2.48" y2="25">
</line>
<line class="cls-12" x1="-70.96" y1="21" x2="2.48" y2="21">
</line>
<line class="cls-12" x1="-70.96" y1="17" x2="2.48" y2="17">
</line>
<line class="cls-12" x1="-70.96" y1="13" x2="2.48" y2="13">
</line>
<line class="cls-12" x1="-70.96" y1="9" x2="2.48" y2="9">
</line>
<line class="cls-12" x1="-70.96" y1="5" x2="2.48" y2="5">
</line>
<line class="cls-12" x1="-70.96" y1="1" x2="2.48" y2="1">
</line>
</g>
</g>
</pattern>
</defs>

  <path
     id="path7641-4"
     style="fill:#782ab5;fill-opacity:1;stroke:#4d4d4d;stroke-width:1.62226;stop-color:#000000"
     d="M 34.900259,1.6936052 C 14.323312,9.5265586 1.6299002,23.954051 1.5689773,39.580572 V 79.197446 H 67.963672 V 39.580572 C 67.958188,23.990066 55.374427,9.5708664 34.900259,1.6936052 Z"/>
  <path
     id="path7641-7"
     style="fill:#808080;stroke:#4d4d4d;stroke-width:1.48325;stop-color:#000000"
     d="M 34.629293,5.0425238 C 15.815619,12.204258 4.1542243,25.395327 4.1542243,39.682894 V 76.559207 H 64.859448 V 39.682894 c 0,-14.254531 -11.510452,-27.438125 -30.230155,-34.6403702 z m -0.01233,3.4358455 C 51.537073,14.988239 61.941622,26.904418 61.941622,39.788613 v 33.82806 H 7.07205 v -33.82806 c 0,-12.914055 10.539857,-24.836991 27.544909,-31.3102437 z"/>
  <path
     id="path7641-7-8"
     style="fill:#808080;stroke:#4d4d4d;stroke-width:1.35027;stop-color:#000000"
     d="M 34.618314,8.2461803 C 17.491429,14.76581 6.8755673,26.7742 6.8755673,39.780777 v 33.57007 H 62.138105 v -33.57007 c 0,-12.976504 -10.478452,-24.978088 -27.519791,-31.5345967 z m -0.01123,3.1277957 c 15.403093,5.926211 24.874795,16.774013 24.874795,28.503041 V 70.672134 H 9.5317874 V 39.877017 c 0,-11.75621 9.5948786,-22.610165 25.0752986,-28.503041 z"/>
  <path
     id="path7641-7-8-0"
     style="fill:#808080;stroke:#4d4d4d;stroke-width:1.21411;stop-color:#000000"
     d="M 34.607073,11.526302 C 19.207238,17.388502 9.6618637,28.185984 9.6618637,39.880997 V 70.06591 H 59.351809 V 39.880997 c 0,-11.667973 -9.421821,-22.459335 -24.744736,-28.354695 z m -0.0101,2.812393 c 13.849868,5.328621 22.366458,15.082547 22.366458,25.628837 V 67.657315 H 12.050234 V 39.967532 c 0,-10.570731 8.627346,-20.33019 22.546743,-25.628837 z"/>


<g id="Capa_10">
<g >
<path class="cls-1" d="M34.94,12.44s-10.17-.62-14.07,6.57c-2.67,6.06-1.03,14.69-1.03,14.69,0,0-1.85-1.13-2.16,.21s1.13,8.01,1.85,9.66,2.57,2.26,2.57,2.26l1.13,3.6,.51,8.63-16.23,5.96,1.85,9.55s26.09,3.9,26.4,3.9,26.2-5.03,26.2-5.03l-1.34-9.35-13.36-4.93-.21-7.81,1.13-1.64,.62-2.98s1.03,.41,2.88-3.08,2.36-9.14,.92-9.45-1.95,1.03-1.95,1.03c0,0,1.44-8.94-.51-14.9-2.47-4.52-6.16-6.57-15.2-6.88Z">
</path>
<path class="cls-2" d="M35.44,57.32V12.72s11.32,.23,14.38,5.77c3.06,6.11,0,21.96,0,21.96l-1.81,8.72-8.83,9.06-3.74-.91Z">
</path>
<path d="M18.92,60.12s2.71,8.49,15.27,8.31,15.91-4.52,16.99-8.4c5.24,1.54,11.12,3.8,11.12,3.8l-1.9,9.58-25.94,3.89-25.66-4.34-.72-9.13,10.84-3.71Z">
</path>
<path class="cls-14" d="M51.53,60.04s-2.16,6.15-8.84,7.66c6.35,3.07,9.62,6.14,9.62,6.14l8.39-2.53,.41-7.3-9.58-3.97Z">
</path>
<path class="cls-4" d="M38.28,37.21s-1.07-.72-1.1-1.86c5.77-.34,8.8,.03,8.8,.03l1.58,1.17-2.41,1.17-6.87-.52Z">
</path>
<path class="cls-4" d="M32.28,37.21s1.07-.72,1.1-1.86c-5.77-.34-8.8,.03-8.8,.03l-1.58,1.17,2.41,1.17,6.87-.52Z">
</path>
<path class="cls-3" d="M45.23,37.42s-3.02-1.11-6.86-.43c1.28,2,3.24,2.34,3.24,2.34,0,0,2.3,.17,3.62-1.92Z">
</path>
<path class="cls-3" d="M25.43,37.42s3.02-1.11,6.86-.43c-1.28,2-3.24,2.34-3.24,2.34,0,0-2.3,.17-3.62-1.92Z">
</path>
<path d="M20.47,34.51s-1.65-1.85-2.36-1.02,.35,6.23,.53,7.17,2.43,4.98,4.03,5.34c-1.16-5.11-2.2-11.49-2.2-11.49Z">
</path>
<polygon points="40.25 58.62 26.85 74.42 10.75 71.03 9.06 63.33 23.74 58.05 23.78 50.04 31.31 58.67 40.25 58.62">
</polygon>
<path class="cls-2" d="M45.39,54.02l-10.17,12.26s9.63,1.2,14.36-5.68c-2.27-.9-4.19-1.68-4.19-1.68v-4.91Z">
</path>
<path class="cls-1" d="M36.04,14c.3,.01,11.03,.49,12.87,6.48,2.08,6.77,.43,17.12,.42,17.21-.79,4.25-2.15,9.6-2.57,10.46-.61,.94-2.47,3.02-5.03,5.89-.94,1.05-1.99,2.23-3.14,3.53-.93,.16-1.94,.23-3.02,.23s-2.13-.07-3.24-.21c-1.84-2.07-6.72-7.62-7.92-9.5-.41-.79-1.43-4.94-2.15-8.38l-.24-2.23s0-.07-.02-.1c-.09-.42-2.06-10.27-.03-16.88,1.85-6.03,12.74-6.48,12.83-6.48h1.25m.01-1h-1.26c-.1,0-11.71,.4-13.79,7.19-2.15,7.01-.01,17.28,.01,17.38l.25,2.28c.42,2.02,1.67,7.64,2.27,8.73,1.14,1.81,5.62,6.95,8.28,9.94,1.05,.15,2.35,.27,3.74,.27,1.15,0,2.36-.08,3.54-.31,4.62-5.22,7.66-8.48,8.52-9.83,.54-1,1.97-6.9,2.69-10.78,.02-.11,1.71-10.67-.44-17.68-2.08-6.79-13.69-7.19-13.81-7.19h0Z">
</path>
<path class="cls-2" d="M25.12,41.71l3.9,1.27,2.23-1.67-2.38,4.93s-2.86-1.27-3.74-4.53Z">
</path>
<path class="cls-9" d="M50.34,37.67s2.21-10.42,0-17.63-14.27-7.55-14.27-7.55h-1.28s-12.06,.33-14.27,7.55,0,17.63,0,17.63">
</path>
<path class="cls-9" d="M20.76,39.9s1.56,7.53,2.33,8.92c1.19,1.89,5.77,7.13,8.47,10.17,2.01,.29,5,.51,7.79-.05,2.7-3.05,7.24-8.24,8.42-10.12,.77-1.39,2.32-8.92,2.32-8.92">
</path>
<path class="cls-9" d="M20.02,34.35s-.75-1.7-1.9-.95,.61,8.23,1.84,10.75c.88,1.84,1.97,1.7,1.97,1.7">
</path>
<path class="cls-9" d="M50.9,34.35s.75-1.7,1.9-.95-.61,8.23-1.84,10.75c-.88,1.84-1.97,1.7-1.97,1.7">
</path>
<polyline class="cls-9" points="23.69 49.85 23.75 58.18 7.55 64.35">
</polyline>
<polyline class="cls-9" points="47 50.05 46.93 58.18 63.13 64.35">
</polyline>
<path d="M25.21,21.58c-.37,2.75-.92,5.79-1.44,8.53-.18,.94-.31,1.9-.8,2.78-.14-1.71,.64-4.01,.91-5.7,.42-1.88,.84-3.75,1.33-5.61h0Z">
</path>
<path d="M45.48,21.58c.71,2.69,1.35,5.7,1.91,8.44,.19,.94,.43,1.87,.32,2.87-.78-1.53-.94-3.95-1.33-5.61-.33-1.89-.65-3.79-.91-5.7h0Z">
</path>
<path d="M29.22,27.34c4.1-.38,8.11-.53,12.15,.09-3.9,.43-8.47,.59-12.15-.09h0Z">
</path>
<path d="M22.93,36.62s1.29-2.66,3.11-3.33c4.84-.75,7.59-.36,7.59-.36,0,0,.04,1.87-.31,2.84-4.04-.36-8.57-.36-10.39,.84Z">
</path>
<path d="M47.55,36.62s-1.29-2.66-3.11-3.33c-4.84-.75-7.59-.36-7.59-.36,0,0-.04,1.87,.31,2.84,4.04-.36,8.57-.36,10.39,.84Z">
</path>
<path class="cls-8" d="M32.29,36.85s-4.15-.71-7.16,.53c2.06,1.84,3.62,1.91,3.62,1.91,0,0,2.23-.32,3.55-2.45Z">
</path>
<path d="M31.78,39.38c-.78,.89-1.61,1.81-2.71,2.31-1.46-.03-2.86-.62-3.97-1.53,1.31,.53,2.63,.99,3.97,1.04,.38-.29,1.92-1.25,2.71-1.82h0Z">
</path>
<path class="cls-8" d="M38.15,36.85s4.15-.71,7.16,.53c-2.06,1.84-3.62,1.91-3.62,1.91,0,0-2.23-.32-3.55-2.45Z">
</path>
<path d="M38.66,39.38c.96,.62,1.87,1.34,2.82,1.85,.74-.08,2.72-.52,3.86-1.07-1.11,.91-2.51,1.5-3.97,1.53-1.1-.5-1.93-1.42-2.71-2.31h0Z">
</path>
<path d="M37.52,42.93c.44,.22,.89,.51,1.3,.79,.15,.13,.52,.29,.46,.56-.43,1.25-1.11,2.36-2,3.35-.08,.09-.18,.13-.29,.13-1.11,.02-2.21,.02-3.32,0-.13,0-.25-.05-.33-.13-.89-.99-1.58-2.1-2-3.35-.06-.27,.32-.42,.46-.56,0,0,.42-.28,.42-.28,.29-.18,.58-.35,.87-.5-.36,.4-1.03,1.02-1.32,1.44l.03-.25c.3,.53,.64,1.03,1,1.51,.37,.47,.77,.95,1.18,1.34l-.33-.13c1.1-.02,2.19-.02,3.29,0l-.33,.13c.84-.82,1.59-1.82,2.18-2.86,0,0,.03,.25,.03,.25-.28-.41-.96-1.04-1.32-1.44h0Z">
</path>
<path d="M41.85,51.86c-1.96-.45-4.77-.61-6.47-.66h-.07c-1.69,.04-4.6,.19-6.62,.66,1.32-1.05,4.22-2.27,4.22-2.27l2.37,.64,2.36-.64s2.9,1.22,4.21,2.27Z">
</path>
<path d="M39.22,52.55c-.27,.4-.49,.89-.87,1.18-1.1,.17-2.2,.23-3.29,.24-1.1,0-2.2-.07-3.29-.24-.37-.28-.59-.78-.87-1.18,.4,.22,.77,.46,1.14,.72l-.19-.08c1.07-.16,2.14-.22,3.21-.23,1.07,0,2.14,.07,3.21,.23l-.19,.08c.36-.26,.73-.51,1.14-.72h0Z">
</path>
<polygon points="36.33 53.68 36.9 56.89 40.65 56.89 38.59 59.07 35.13 59.38 35.23 59.38 31.76 59.07 29.71 56.89 33.46 56.89 34.02 53.68 36.33 53.68">
</polygon>
<path class="cls-9" d="M51.27,59.92s-1.25,8.41-15.2,8.41h-1.77c-13.95,0-15.2-8.41-15.2-8.41">
</path>
<path class="cls-13" d="M22.29,46.62c0,1.37-.48,2.47-1.08,2.47s-1.08-1.11-1.08-2.47,.48-2.47,1.08-2.47">
</path>
<path class="cls-13" d="M48.62,46.62c0,1.37,.48,2.47,1.08,2.47s1.08-1.11,1.08-2.47-.48-2.47-1.08-2.47">
</path>
<path class="cls-14" d="M24.75,53.82c.35,1.68,.56,3.38,.68,5.08-2.87,1.44-5.9,2.64-8.96,3.63-1.72,.5-3.59,1.06-5.36,1.34,0,0-.04-.09-.04-.09,4.43-1.71,9.34-3.84,13.55-5.3,0,0,.02-4.66,.02-4.66,0,0,.1,0,.1,0h0Z">
</path>
</g>
</g>
  <g
     id="g20645">
    <path
       style="fill:#808080;stroke:#4d4d4d;stroke-width:0.937908;stop-color:#000000;fill-opacity:1"
       d="m 9.541565,65.883425 a 5.4759801,5.4759801 0 0 1 5.47598,5.475981 5.4759801,5.4759801 0 0 1 -5.47598,5.47598 5.4759801,5.4759801 0 0 1 -5.4759806,-5.47598 5.4759801,5.4759801 0 0 1 5.4759806,-5.475981 z"/>
    <path
       style="fill:#808080;stroke:#4d4d4d;stroke-width:0.937908;stop-color:#000000;fill-opacity:1"
       d="m 59.472108,65.883425 a 5.4759801,5.4759801 0 0 1 5.47598,5.475981 5.4759801,5.4759801 0 0 1 -5.47598,5.47598 5.4759801,5.4759801 0 0 1 -5.475981,-5.47598 5.4759801,5.4759801 0 0 1 5.475981,-5.475981 z"/>
    <path
       id="path7641"
       style="fill:#808080;stroke:#4d4d4d;stroke-width:1.64416;stop-color:#000000"
       d="M 34.642578,1.1660156 C 13.787845,9.1047124 0.86132813,23.726855 0.86132812,39.564453 V 79.340489 H 68.152344 V 39.564453 c 0,-15.800978 -12.759199,-30.4148342 -33.509766,-38.3984374 z m -0.01367,3.8085938 C 53.384648,12.190722 64.917969,25.399665 64.917969,39.681641 v 26.507812 c -1.368656,-1.44106 -3.300993,-2.341797 -5.445313,-2.341797 -4.14856,0 -7.511718,3.363159 -7.511718,7.511719 0,2.347008 1.075662,4.442843 2.761718,5.820313 H 14.269531 c 1.756069,-1.422629 2.778281,-3.560307 2.783203,-5.820313 4.8e-5,-4.148627 -3.363091,-7.511766 -7.5117184,-7.511719 -2.0622939,0.0062 -4.0313164,0.860092 -5.4453125,2.361328 V 39.681641 c 0,-14.315076 11.6833059,-27.531508 30.5332029,-34.7070316 z"/>
    <circle
       style="fill:#4d4d4d;fill-opacity:1;stroke:#4d4d4d;stop-color:#000000"
       id="path16431"
       cx="9.6010828"
       cy="71.229652"
       r="5.06003" />
    <circle
       style="fill:#4d4d4d;fill-opacity:1;stroke:#4d4d4d;stop-color:#000000"
       id="path16431-3"
       cx="59.42292"
       cy="71.229652"
       r="5.06003" />
  </g>
</svg>
