<?xml version="1.0" encoding="UTF-8"?><svg id="Capa_2" xmlns="http://www.w3.org/2000/svg" xmlns:xlink="http://www.w3.org/1999/xlink" viewBox="0 0 69.02 80"><defs><style>.cls-1{fill:#c89aed;}.cls-2{fill:#fff;}.cls-3{fill:#f8ffbf;}.cls-4{fill:#7b7be8;}.cls-5{fill:#a88347;}.cls-6{fill:#782ab5;}.cls-7{stroke-miterlimit:10;}.cls-7,.cls-8,.cls-9,.cls-10,.cls-11,.cls-12,.cls-13{fill:none;}.cls-7,.cls-8,.cls-12,.cls-13{stroke:#000;}.cls-8{stroke-width:.95px;}.cls-8,.cls-9,.cls-12,.cls-13{stroke-linecap:round;stroke-linejoin:round;}.cls-14{fill:#1c46ff;}.cls-9{stroke:#deb778;stroke-dasharray:0 0 0 4.06;}.cls-15{fill:#deb778;}.cls-16{fill:url(#USGS_19_Inundación_de_tierra_2);}.cls-11{stroke:#1d1d1b;stroke-dasharray:0 0 2 2;stroke-width:.3px;}.cls-12{stroke-width:.98px;}.cls-17{fill:#fcf0c5;}.cls-13{stroke-width:1.02px;}.cls-18{fill:#b83521;}</style><pattern id="USGS_19_Inundación_de_tierra_2" x="0" y="0" width="72" height="72" patternTransform="translate(-308.48 -16207) rotate(-90)" patternUnits="userSpaceOnUse" viewBox="0 0 72 72"><g><rect class="cls-10" width="72" height="72"/><g><line class="cls-11" x1="71" y1="71" x2="144.44" y2="71"/><line class="cls-11" x1="71" y1="67" x2="144.44" y2="67"/><line class="cls-11" x1="71" y1="63" x2="144.44" y2="63"/><line class="cls-11" x1="71" y1="59" x2="144.44" y2="59"/><line class="cls-11" x1="71" y1="55" x2="144.44" y2="55"/><line class="cls-11" x1="71" y1="51" x2="144.44" y2="51"/><line class="cls-11" x1="71" y1="47" x2="144.44" y2="47"/><line class="cls-11" x1="71" y1="43" x2="144.44" y2="43"/><line class="cls-11" x1="71" y1="39" x2="144.44" y2="39"/><line class="cls-11" x1="71" y1="35" x2="144.44" y2="35"/><line class="cls-11" x1="71" y1="31" x2="144.44" y2="31"/><line class="cls-11" x1="71" y1="27" x2="144.44" y2="27"/><line class="cls-11" x1="71" y1="23" x2="144.44" y2="23"/><line class="cls-11" x1="71" y1="19" x2="144.44" y2="19"/><line class="cls-11" x1="71" y1="15" x2="144.44" y2="15"/><line class="cls-11" x1="71" y1="11" x2="144.44" y2="11"/><line class="cls-11" x1="71" y1="7" x2="144.44" y2="7"/><line class="cls-11" x1="71" y1="3" x2="144.44" y2="3"/></g><g><line class="cls-11" x1="-1" y1="71" x2="72.44" y2="71"/><line class="cls-11" x1="-1" y1="67" x2="72.44" y2="67"/><line class="cls-11" x1="-1" y1="63" x2="72.44" y2="63"/><line class="cls-11" x1="-1" y1="59" x2="72.44" y2="59"/><line class="cls-11" x1="-1" y1="55" x2="72.44" y2="55"/><line class="cls-11" x1="-1" y1="51" x2="72.44" y2="51"/><line class="cls-11" x1="-1" y1="47" x2="72.44" y2="47"/><line class="cls-11" x1="-1" y1="43" x2="72.44" y2="43"/><line class="cls-11" x1="-1" y1="39" x2="72.44" y2="39"/><line class="cls-11" x1="-1" y1="35" x2="72.44" y2="35"/><line class="cls-11" x1="-1" y1="31" x2="72.44" y2="31"/><line class="cls-11" x1="-1" y1="27" x2="72.44" y2="27"/><line class="cls-11" x1="-1" y1="23" x2="72.44" y2="23"/><line class="cls-11" x1="-1" y1="19" x2="72.44" y2="19"/><line class="cls-11" x1="-1" y1="15" x2="72.44" y2="15"/><line class="cls-11" x1="-1" y1="11" x2="72.44" y2="11"/><line class="cls-11" x1="-1" y1="7" x2="72.44" y2="7"/><line class="cls-11" x1="-1" y1="3" x2="72.44" y2="3"/><line class="cls-11" x1="1.04" y1="69" x2="74.48" y2="69"/><line class="cls-11" x1="1.04" y1="65" x2="74.48" y2="65"/><line class="cls-11" x1="1.04" y1="61" x2="74.48" y2="61"/><line class="cls-11" x1="1.04" y1="57" x2="74.48" y2="57"/><line class="cls-11" x1="1.04" y1="53" x2="74.48" y2="53"/><line class="cls-11" x1="1.04" y1="49" x2="74.48" y2="49"/><line class="cls-11" x1="1.04" y1="45" x2="74.48" y2="45"/><line class="cls-11" x1="1.04" y1="41" x2="74.48" y2="41"/><line class="cls-11" x1="1.04" y1="37" x2="74.48" y2="37"/><line class="cls-11" x1="1.04" y1="33" x2="74.48" y2="33"/><line class="cls-11" x1="1.04" y1="29" x2="74.48" y2="29"/><line class="cls-11" x1="1.04" y1="25" x2="74.48" y2="25"/><line class="cls-11" x1="1.04" y1="21" x2="74.48" y2="21"/><line class="cls-11" x1="1.04" y1="17" x2="74.48" y2="17"/><line class="cls-11" x1="1.04" y1="13" x2="74.48" y2="13"/><line class="cls-11" x1="1.04" y1="9" x2="74.48" y2="9"/><line class="cls-11" x1="1.04" y1="5" x2="74.48" y2="5"/><line class="cls-11" x1="1.04" y1="1" x2="74.48" y2="1"/></g><g><line class="cls-11" x1="-73" y1="71" x2=".44" y2="71"/><line class="cls-11" x1="-73" y1="67" x2=".44" y2="67"/><line class="cls-11" x1="-73" y1="63" x2=".44" y2="63"/><line class="cls-11" x1="-73" y1="59" x2=".44" y2="59"/><line class="cls-11" x1="-73" y1="55" x2=".44" y2="55"/><line class="cls-11" x1="-73" y1="51" x2=".44" y2="51"/><line class="cls-11" x1="-73" y1="47" x2=".44" y2="47"/><line class="cls-11" x1="-73" y1="43" x2=".44" y2="43"/><line class="cls-11" x1="-73" y1="39" x2=".44" y2="39"/><line class="cls-11" x1="-73" y1="35" x2=".44" y2="35"/><line class="cls-11" x1="-73" y1="31" x2=".44" y2="31"/><line class="cls-11" x1="-73" y1="27" x2=".44" y2="27"/><line class="cls-11" x1="-73" y1="23" x2=".44" y2="23"/><line class="cls-11" x1="-73" y1="19" x2=".44" y2="19"/><line class="cls-11" x1="-73" y1="15" x2=".44" y2="15"/><line class="cls-11" x1="-73" y1="11" x2=".44" y2="11"/><line class="cls-11" x1="-73" y1="7" x2=".44" y2="7"/><line class="cls-11" x1="-73" y1="3" x2=".44" y2="3"/><line class="cls-11" x1="-70.96" y1="69" x2="2.48" y2="69"/><line class="cls-11" x1="-70.96" y1="65" x2="2.48" y2="65"/><line class="cls-11" x1="-70.96" y1="61" x2="2.48" y2="61"/><line class="cls-11" x1="-70.96" y1="57" x2="2.48" y2="57"/><line class="cls-11" x1="-70.96" y1="53" x2="2.48" y2="53"/><line class="cls-11" x1="-70.96" y1="49" x2="2.48" y2="49"/><line class="cls-11" x1="-70.96" y1="45" x2="2.48" y2="45"/><line class="cls-11" x1="-70.96" y1="41" x2="2.48" y2="41"/><line class="cls-11" x1="-70.96" y1="37" x2="2.48" y2="37"/><line class="cls-11" x1="-70.96" y1="33" x2="2.48" y2="33"/><line class="cls-11" x1="-70.96" y1="29" x2="2.48" y2="29"/><line class="cls-11" x1="-70.96" y1="25" x2="2.48" y2="25"/><line class="cls-11" x1="-70.96" y1="21" x2="2.48" y2="21"/><line class="cls-11" x1="-70.96" y1="17" x2="2.48" y2="17"/><line class="cls-11" x1="-70.96" y1="13" x2="2.48" y2="13"/><line class="cls-11" x1="-70.96" y1="9" x2="2.48" y2="9"/><line class="cls-11" x1="-70.96" y1="5" x2="2.48" y2="5"/><line class="cls-11" x1="-70.96" y1="1" x2="2.48" y2="1"/></g></g></pattern></defs><g id="BG"><g><path class="cls-6" d="M64.02,40c0,11.47-1.89,22.39-5.5,31.74-7.2,2.16-14.94,3.26-23.02,3.26-.49,0-.98-.01-1.47-.02h-.17c-8.18-.15-16.29-1.47-23.6-3.85-3.45-9.22-5.26-19.93-5.26-31.13s1.89-22.38,5.48-31.73c6.73-2.01,14.13-3.13,21.6-3.26,.48-.01,.97-.01,1.45-.01,.54,0,1.08,.01,1.63,.02,8.16,.15,16.27,1.47,23.59,3.84,3.46,9.24,5.27,19.95,5.27,31.14Z"/><path class="cls-16" d="M34.03,5.59V74.98h-.17c-8.18-.15-16.29-1.47-23.6-3.85-3.45-9.22-5.26-19.93-5.26-31.13s1.89-22.38,5.48-31.73c6.73-2.01,14.13-3.13,21.6-3.26,.65,.16,1.3,.36,1.95,.58Z"/></g></g><g id="Capa_10"><g><path class="cls-1" d="M61.58,68.19l-1.64,5.31s-12.65,3.95-25.49,4.34c-12.83,.39-24.99-4.25-24.99-4.25l-.49-6.17s6.37-2.51,13.23-5.41c5.5-2.32,3.86-5.79,3.86-5.79,0,0-.12,.05-.33,.14-.76,.32-2.74,1.15-5.08,1.98-2.99,1.07-4.44,.2-4.92-1.64,1.83,.39,1.25-1.16-.58-3.86-1.5-2.57-.39-5.6,.48-6.75,.8-1.07,4.3-5.15,4.85-5.8,.05-.06,.08-.09,.08-.09l-1.65-2.71s-1.93-3.76-1.15-5.79c.77-2.02,2.31-1.44,2.31-1.44,0,0-.15-1.37-.15-3.26,.01-2.83,.39-6.8,2.18-9,5.98-6.76,13.22-5.6,13.22-5.6,5.02-.39,12.16,3.57,13.71,6.66,.81,1.93,.89,5.89,.85,8.44-.02,1.39-.08,2.37-.08,2.37,0,0,2.22,.48,2.41,1.83,.2,1.35,0,4.44-2.99,8.59,.12,.26,.33,.53,.59,.84,1.42,1.63,4.52,3.99,5.01,7.66,.58,4.34-1.83,5.89-2.32,6.75-.48,.87,1.35,1.74,1.35,1.74,0,0-.96,1.45-3.08,1.55-2.13,.09-4.54-2.42-7.34-2.61-.01,.16-.01,.32,0,.48,.1,2.29,2.12,4.15,2.12,4.15l16.03,7.34Z"/><path class="cls-2" d="M41.43,53.86l-10.92,19.25s15,4.33,21.07-8.06c-6.68-2.77-8.93-3.38-9.36-5.89s-.78-5.29-.78-5.29Z"/><path class="cls-2" d="M34.77,55.87V18.84h8.14s3.49,1.07,4.65,4.11c1.52,3.67,2.24,5.81,2.24,5.81l-2.15,13.33-7.78,11.89s-2.77,2.06-5.1,1.88Z"/><path class="cls-4" d="M38.07,34.65l-.41-4.23s4.63-.66,5.95-.2,3.31,1.52,3.31,1.52l-2.05,2.78s-3.23-2.25-6.8,.13Z"/><path class="cls-4" d="M31.05,34.51l.63-4.09s-4.63-.66-5.95-.2-3.31,1.52-3.31,1.52l1.51,2.7s3.56-2.32,7.13,.07Z"/><path class="cls-3" d="M31.21,34.76s-1.71-1.48-3.6-1.42c-2.48,.35-3.01,.94-3.01,.94,0,0,.47,3.07,2.42,3.66s4.25-1.59,4.19-3.19Z"/><path class="cls-3" d="M38.27,34.84s1.71-1.48,3.6-1.42c2.48,.35,3.01,.94,3.01,.94,0,0-.47,3.07-2.42,3.66s-4.25-1.59-4.19-3.19Z"/><path d="M20.07,30.26s-1.57-1.04-2.32,1.45,2.13,7.56,3.57,8.52c-.68-6.16-1.26-9.97-1.26-9.97Z"/><path d="M26,48.15l-.27,8.21c-.76,.32-2.74,1.15-5.08,1.98-2.99,1.07-4.44,.2-4.92-1.64,1.83,.39,1.25-1.16-.58-3.86-1.5-2.57-.39-5.6,.48-6.75,.8-1.07,4.3-5.15,4.85-5.8l.88-.41,.37,1.67,4.27,6.6Z"/><path d="M49.89,26.27c0,.44,0,.85-.01,1.23l-.08,1.27s-2.1-4.79-3.32-7c-1.22-2.22-3.82-2.75-3.82-2.75h-15.63c-3.28,.08-7.01,8.08-7.01,8.08l-.1-.1c.01-2.83,.39-6.8,2.18-9,3.17-3.58,6.7-4.94,9.31-5.43,2.31-.43,3.91-.17,3.91-.17,5.02-.39,12.16,3.57,13.71,6.66,.69,1.65,.85,4.75,.86,7.21Z"/><path class="cls-5" d="M53.85,57.28s-.96,1.45-3.08,1.55c-2.13,.09-4.54-2.42-7.34-2.61-.01,.16-.01,.32,0,.48l-.2-.17-.24-7.01,4.75-6.85,.97-2.18,1.1,.64c1.42,1.63,4.52,3.99,5.01,7.66,.58,4.34-1.83,5.89-2.32,6.75-.48,.87,1.35,1.74,1.35,1.74Z"/><path class="cls-5" d="M49.89,26.27c-1.15-2.27-1.97-6.33-4.44-8.2-3.76-2.83-12.93,.07-14.6-3.57-.4-.88-.11-1.5,.56-1.93,2.31-.43,3.91-.17,3.91-.17,5.02-.39,12.16,3.57,13.71,6.66,.69,1.65,.85,4.75,.86,7.21Z"/><path class="cls-2" d="M25.09,39.27s3.67,1.74,5.96-.79c-2.06,5.52-5.05,3.64-5.96,.79Z"/><path d="M43.21,49.86l-15.37,25-17.53-2.49-1.19-5.52,14.61-5.84s2.27-1.95,2.27-4.11,.11-8.22,.11-8.22l4.33,5.74s2.49,1.62,5.63,1.19,5.52-3.46,7.14-5.74Z"/><ellipse class="cls-5" cx="34.96" cy="70.54" rx="2.72" ry="2.24"/><path class="cls-5" d="M53.3,64.53s-1.38,7.34-11.06,10.11c10.02-.78,16.67-2.51,16.67-2.51l1.3-4.84-6.91-2.76Z"/><path class="cls-1" d="M42.58,20.53c3.06,.55,5.09,6.45,5.56,8.51,.02,.08,.05,.16,.09,.24-.31,5.92-1.45,11.58-1.88,12.55-2.06,3.26-4.59,7.02-6.77,10.07-1.1,1.52-2.8,2.39-4.67,2.39s-3.58-.87-4.67-2.39c-2.17-3.03-4.69-6.78-6.76-10.05-.45-1.05-1.62-6.9-1.92-12.87v-.08c.52-2.13,2.51-7.85,5.46-8.38h15.57m.08-1.01h-15.73c-4.35,.67-6.36,9.18-6.38,9.27,0,0,0,.01,0,.01,.28,6.06,1.48,12.34,2.05,13.53,2.11,3.33,4.67,7.13,6.83,10.15,1.28,1.79,3.28,2.81,5.48,2.81s4.19-1.02,5.48-2.81c2.17-3.03,4.73-6.83,6.84-10.17,.54-1.09,1.73-7.26,2.02-13.3-.06-.06-.11-.14-.13-.22-.02-.09-2.02-8.6-6.45-9.27h0Z"/><path class="cls-5" d="M19.86,42.01s-3.99,3.11-4.47,6.86,2.47,7.02,2.47,7.02c5.5-4.71-.16-5.26,1.99-13.88Z"/><path class="cls-13" d="M22.15,42.59c-.96-1.92-3.16-15.14-1.63-22.05,1.74-4.24,5.72-6.39,9.05-7.46s7.19-1.12,10.66,0,7.31,3.22,9.05,7.46c1.53,6.91-.67,20.13-1.63,22.05-1.78,2.81-4.38,6.74-6.86,10.2-2.89,4.03-8.89,4.03-11.78,0-2.48-3.46-5.09-7.39-6.86-10.2Z"/><path class="cls-13" d="M20.04,30.07s-1.68-.58-2.37,1.53,2,8.47,3.84,9.32"/><path class="cls-13" d="M49.67,30.07s1.68-.58,2.37,1.53-2,8.47-3.84,9.32"/><path d="M22.29,31.79s2.17-1.97,3.71-2.13c2.29-.2,5.84,.67,5.84,.67,0,0-1.14,1.26-3.87,.83s-3.39-.47-5.68,.63Z"/><path d="M31.2,34.8c-2.33-1.43-4.76-.91-7.07,.11-.26,.11-.56-.01-.67-.27-.1-.25,0-.53,.23-.65,2.3-1.23,5.91-1.75,7.5,.81h0Z"/><path d="M25.15,34.39c.28,1.31,.83,2.78,1.95,3.05,1.34,.31,2.75-.39,3.69-1.43-.25,.73-.77,1.38-1.44,1.85-2.78,1.79-5.12-.49-5.2-3.38-.03-.63,.91-.71,1-.09h0Z"/><path d="M46.89,31.79s-2.17-1.97-3.71-2.13c-2.29-.2-5.84,.67-5.84,.67,0,0,1.14,1.26,3.87,.83s3.39-.47,5.68,.63Z"/><path d="M37.99,34.8c1.59-2.56,5.2-2.04,7.5-.81,.25,.13,.35,.44,.22,.69-.12,.24-.4,.34-.65,.23-2.32-1.03-4.74-1.54-7.07-.11h0Z"/><path d="M45.03,34.48c-.09,1.65-.87,3.66-2.76,3.97-1.71,.24-3.34-.9-3.88-2.44,.52,.56,1.12,1,1.77,1.25,2.31,.91,3.46-.6,3.89-2.91,.12-.59,1.02-.47,.99,.13h0Z"/><path d="M36.94,40.62c1.69,1.47-1.04,2.3-2.05,2.99-.12,.07-.26,.06-.38,0-.63-.35-1.26-.7-1.87-1.11-.31-.22-.75-.49-.72-.93,.03-.43,.29-.72,.55-.96-.2,.28-.36,.64-.3,.94,.05,.15,.11,.23,.25,.3,.78,.38,1.64,.58,2.48,.83,0,0-.38,0-.38,0,.84-.24,1.7-.45,2.48-.83,.48-.25,.21-.86-.05-1.24h0Z"/><path class="cls-18" d="M30.98,48.08s.58,2.03,3.36,2.03h.73c2.78,0,3.36-2.03,3.36-2.03l-3.73-1.44-3.71,1.44Z"/><path d="M39.28,47.83c-.02,.18-.13,.32-.3,.38-.05,0-.21,.05-.48,.05-.36,0-.94-.08-1.75-.41-.89-.36-1.69-.44-2.04-.45-.35,0-1.16,.08-2.05,.45-.81,.33-1.39,.41-1.75,.41-.26,0-.42-.04-.48-.05-.17-.06-.28-.2-.3-.38s.07-.34,.22-.42c0,0,.62-.36,1.19-.95,1.29-1.36,2.36-1.45,3.17-1.12,.8-.33,1.87-.24,3.16,1.12,.57,.59,1.18,.94,1.19,.95,.15,.08,.24,.25,.22,.42Z"/><path class="cls-13" d="M20.16,39.89s.38,.3-3.24,4.52-2.35,8.45-.27,11c.94,1.01-.27,2.01-1.41,1.34,1.68,2.62,4.49,2.15,6.77,.87s3.89-1.34,3.89-1.34"/><path class="cls-13" d="M26.01,48.69v8.25c0,1.87-1.1,3.56-2.81,4.31l-14.84,6.55"/><path class="cls-13" d="M49.15,39.95s-.29,.24,3.34,4.46,2.35,8.45,.27,11c-.94,1.01,.27,2.01,1.41,1.34-1.68,2.62-4.49,2.15-6.77,.87s-3.89-1.34-3.89-1.34"/><path class="cls-13" d="M43.39,49.28v7.66c0,1.87,1.1,3.56,2.81,4.31l14.84,6.55"/><path class="cls-13" d="M49.61,28.68s-2.05-8.92-6.88-9.66h-7.17s-1.46,0-1.46,0h-7.17c-4.83,.73-6.88,9.66-6.88,9.66"/><path class="cls-12" d="M44.03,59.27s-.79,8.24-8.52,8.24h-1.37c-7.73,0-8.52-8.24-8.52-8.24"/><ellipse class="cls-12" cx="34.82" cy="70.6" rx="2.82" ry="2.26"/><path class="cls-8" d="M53.49,64.53s-3.47,10.83-17.61,10.83h-2.48c-14.14,0-17.61-10.83-17.61-10.83"/><path class="cls-14" d="M26.23,59.24c1.08,3.49-9.9,6.83-12.51,7.58-.71,.14-1.41,.34-2.14,.44l-.04-.09c3.95-1.67,7.9-3.33,11.8-5.08,1.13-.56,2.86-1.34,2.79-2.81,0,0,.09-.03,.09-.03h0Z"/><path class="cls-14" d="M19.32,30.63c-.84,1.47-.02,3.05-.61,4.72,0,0-.09,.04-.09,.04-.47-1.23-1.01-2.71-.37-3.99,.21-.42,.6-.75,1.06-.87l.02,.1h0Z"/></g></g><g id="Frame"><path class="cls-5" d="M62.56,4.88C54.4,1.94,45.12,.2,35.25,.02c-.57-.01-1.15-.02-1.72-.02C23.88,0,14.77,1.52,6.72,4.21,2.49,14.22,0,26.6,0,40s2.39,25.22,6.45,35.11c8.16,2.94,17.45,4.69,27.32,4.87,.58,.01,1.15,.02,1.73,.02,9.63,0,18.73-1.51,26.78-4.2,4.24-10.01,6.74-22.39,6.74-35.8s-2.4-25.24-6.46-35.12Zm-4.04,66.86c-7.2,2.16-14.94,3.26-23.02,3.26-.49,0-.98-.01-1.47-.02h-.17c-8.18-.15-16.29-1.47-23.6-3.85-3.45-9.22-5.26-19.93-5.26-31.13s1.89-22.38,5.48-31.73c6.73-2.01,14.13-3.13,21.6-3.26,.48-.01,.97-.01,1.45-.01,.54,0,1.08,.01,1.63,.02,8.16,.15,16.27,1.47,23.59,3.84,3.46,9.24,5.27,19.95,5.27,31.14s-1.89,22.39-5.5,31.74Z"/><path class="cls-15" d="M17.21,2.06h0c1.63,.63,2.06,2.75,.81,3.97l-1.26,1.22s8.35-2.37,18.84-1.69h0c-1-1.49-.45-3.52,1.14-4.34l1-.51S28.26-.43,17.21,2.06Z"/><path class="cls-17" d="M21.81,1.66s.7,2.18-.22,3.1c3.77-.41,7.98-.74,11.12-.74-.33-1.33,1.26-3.4,1.26-3.4,0,0-6.17-.26-12.16,1.03Z"/><path class="cls-15" d="M36.25,79.21h0c-1.52-.87-1.62-3.03-.2-4.04l1.43-1.02s-8.61,1.07-18.88-1.19h0c.76,1.63-.09,3.55-1.79,4.11l-1.07,.36s9.19,2.56,20.5,1.78Z"/><path class="cls-17" d="M19.28,77.8s1.76-1.83,1.3-3.09c4.43,.69,9.11,1.14,12.25,1.14-.33,1.33,.44,3.4,.44,3.4,0,0-8-.16-13.99-1.45Z"/><polygon points="47.48 1.77 47.48 6.73 54.49 8.44 54.49 2.62 47.48 1.77"/><line class="cls-7" x1="45.5" y1="1.23" x2="45.5" y2="6.29"/><line class="cls-7" x1="56.47" y1="3.67" x2="56.47" y2="8.73"/><polygon points="47.48 78.74 47.48 73.78 54.49 72.07 54.49 77.88 47.48 78.74"/><line class="cls-7" x1="45.5" y1="79.28" x2="45.5" y2="74.21"/><line class="cls-7" x1="56.47" y1="76.84" x2="56.47" y2="71.77"/><path d="M33.53,1c.56,0,1.14,0,1.7,.02,9.39,.17,18.33,1.74,26.57,4.65,4.07,10.08,6.22,21.94,6.22,34.33s-2.24,24.79-6.49,34.99c-8.12,2.66-16.87,4.01-26.03,4.01-.56,0-1.12,0-1.71-.02-9.25-.17-18.42-1.78-26.58-4.66C3.15,64.25,1,52.39,1,40S3.23,15.21,7.47,5.02C15.6,2.35,24.37,1,33.53,1m0-1C23.88,0,14.77,1.52,6.72,4.21,2.49,14.22,0,26.6,0,40s2.39,25.22,6.45,35.11c8.16,2.94,17.45,4.69,27.32,4.87,.58,.01,1.15,.02,1.73,.02,9.63,0,18.73-1.51,26.78-4.2,4.24-10.01,6.74-22.39,6.74-35.8s-2.4-25.24-6.46-35.12C54.4,1.94,45.12,.2,35.25,.02c-.57,0-1.15-.02-1.72-.02h0Z"/><path class="cls-15" d="M33.53,6c.52,0,1.04,0,1.61,.02,7.87,.14,15.75,1.4,22.84,3.64,3.3,9,5.04,19.47,5.04,30.34s-1.82,21.82-5.26,30.92c-6.98,2.04-14.47,3.08-22.26,3.08-.48,0-.97,0-1.47-.02h-.15c-7.89-.14-15.78-1.41-22.85-3.65-3.29-8.99-5.03-19.46-5.03-30.33s1.81-21.79,5.24-30.91c6.5-1.89,13.7-2.95,20.86-3.08,.47,0,.96,0,1.43,0m0-1c-.48,0-.97,0-1.45,.01-7.47,.13-14.87,1.25-21.6,3.26-3.59,9.35-5.48,20.26-5.48,31.73s1.81,21.91,5.26,31.13c7.31,2.38,15.42,3.7,23.6,3.85h.17c.49,.01,.98,.02,1.47,.02,8.08,0,15.82-1.1,23.02-3.26,3.61-9.35,5.5-20.27,5.5-31.74s-1.81-21.9-5.27-31.14c-7.32-2.37-15.43-3.69-23.59-3.84-.55,0-1.09-.02-1.63-.02h0Z"/><path d="M33.53,5c.54,0,1.08,.01,1.63,.02,8.16,.15,16.27,1.47,23.59,3.84,3.46,9.24,5.27,19.95,5.27,31.14s-1.89,22.39-5.5,31.74c-7.2,2.16-14.94,3.26-23.02,3.26-.49,0-.98-.01-1.47-.02h-.17c-8.18-.15-16.29-1.47-23.6-3.85-3.45-9.22-5.26-19.93-5.26-31.13s1.89-22.38,5.48-31.73c6.73-2.01,14.13-3.13,21.6-3.26,.48-.01,.97-.01,1.45-.01m0-1c-.49,0-.98,0-1.47,.01-7.51,.13-15.07,1.27-21.87,3.3l-.47,.14-.18,.46c-3.63,9.45-5.55,20.55-5.55,32.09s1.84,22.17,5.32,31.48l.17,.45,.46,.15c7.37,2.4,15.63,3.75,23.89,3.9h.19c.48,.01,.97,.02,1.47,.02,8.16,0,16-1.11,23.31-3.3l.47-.14,.18-.46c3.64-9.43,5.57-20.53,5.57-32.1s-1.84-22.17-5.33-31.49l-.17-.45-.46-.15c-7.39-2.39-15.65-3.74-23.88-3.89-.58-.01-1.12-.02-1.65-.02h0Z"/><path class="cls-9" d="M8.14,7.1s-12.66,32.94,0,66.06"/><path class="cls-9" d="M60.88,7.58s12.66,32.94,0,66.06"/></g></svg>