<?xml version="1.0" encoding="UTF-8"?><svg id="Capa_2" xmlns="http://www.w3.org/2000/svg" xmlns:xlink="http://www.w3.org/1999/xlink" viewBox="0 0 69.02 80"><defs><style>.cls-1{fill:#c89aed;}.cls-2{fill:#fff;}.cls-3{fill:#f8ffbf;}.cls-4{fill:#7b7be8;}.cls-5{fill:#a88347;}.cls-6{fill:#782ab5;}.cls-7{stroke-miterlimit:10;}.cls-7,.cls-8,.cls-9,.cls-10,.cls-11,.cls-12,.cls-13{fill:none;}.cls-7,.cls-8,.cls-9,.cls-13{stroke:#000;}.cls-8{stroke-width:.5px;}.cls-8,.cls-9,.cls-10,.cls-13{stroke-linecap:round;stroke-linejoin:round;}.cls-10{stroke:#deb778;stroke-dasharray:0 0 0 4.06;}.cls-14{fill:#deb778;}.cls-15{fill:url(#USGS_19_Inundación_de_tierra_2);}.cls-12{stroke:#1d1d1b;stroke-dasharray:0 0 2 2;stroke-width:.3px;}.cls-13{stroke-width:.98px;}.cls-16{fill:#fcf0c5;}</style><pattern id="USGS_19_Inundación_de_tierra_2" x="0" y="0" width="72" height="72" patternTransform="translate(-452.48 -16207) rotate(-90)" patternUnits="userSpaceOnUse" viewBox="0 0 72 72"><g><rect class="cls-11" width="72" height="72"/><g><line class="cls-12" x1="71" y1="71" x2="144.44" y2="71"/><line class="cls-12" x1="71" y1="67" x2="144.44" y2="67"/><line class="cls-12" x1="71" y1="63" x2="144.44" y2="63"/><line class="cls-12" x1="71" y1="59" x2="144.44" y2="59"/><line class="cls-12" x1="71" y1="55" x2="144.44" y2="55"/><line class="cls-12" x1="71" y1="51" x2="144.44" y2="51"/><line class="cls-12" x1="71" y1="47" x2="144.44" y2="47"/><line class="cls-12" x1="71" y1="43" x2="144.44" y2="43"/><line class="cls-12" x1="71" y1="39" x2="144.44" y2="39"/><line class="cls-12" x1="71" y1="35" x2="144.44" y2="35"/><line class="cls-12" x1="71" y1="31" x2="144.44" y2="31"/><line class="cls-12" x1="71" y1="27" x2="144.44" y2="27"/><line class="cls-12" x1="71" y1="23" x2="144.44" y2="23"/><line class="cls-12" x1="71" y1="19" x2="144.44" y2="19"/><line class="cls-12" x1="71" y1="15" x2="144.44" y2="15"/><line class="cls-12" x1="71" y1="11" x2="144.44" y2="11"/><line class="cls-12" x1="71" y1="7" x2="144.44" y2="7"/><line class="cls-12" x1="71" y1="3" x2="144.44" y2="3"/></g><g><line class="cls-12" x1="-1" y1="71" x2="72.44" y2="71"/><line class="cls-12" x1="-1" y1="67" x2="72.44" y2="67"/><line class="cls-12" x1="-1" y1="63" x2="72.44" y2="63"/><line class="cls-12" x1="-1" y1="59" x2="72.44" y2="59"/><line class="cls-12" x1="-1" y1="55" x2="72.44" y2="55"/><line class="cls-12" x1="-1" y1="51" x2="72.44" y2="51"/><line class="cls-12" x1="-1" y1="47" x2="72.44" y2="47"/><line class="cls-12" x1="-1" y1="43" x2="72.44" y2="43"/><line class="cls-12" x1="-1" y1="39" x2="72.44" y2="39"/><line class="cls-12" x1="-1" y1="35" x2="72.44" y2="35"/><line class="cls-12" x1="-1" y1="31" x2="72.44" y2="31"/><line class="cls-12" x1="-1" y1="27" x2="72.44" y2="27"/><line class="cls-12" x1="-1" y1="23" x2="72.44" y2="23"/><line class="cls-12" x1="-1" y1="19" x2="72.44" y2="19"/><line class="cls-12" x1="-1" y1="15" x2="72.44" y2="15"/><line class="cls-12" x1="-1" y1="11" x2="72.44" y2="11"/><line class="cls-12" x1="-1" y1="7" x2="72.44" y2="7"/><line class="cls-12" x1="-1" y1="3" x2="72.44" y2="3"/><line class="cls-12" x1="1.04" y1="69" x2="74.48" y2="69"/><line class="cls-12" x1="1.04" y1="65" x2="74.48" y2="65"/><line class="cls-12" x1="1.04" y1="61" x2="74.48" y2="61"/><line class="cls-12" x1="1.04" y1="57" x2="74.48" y2="57"/><line class="cls-12" x1="1.04" y1="53" x2="74.48" y2="53"/><line class="cls-12" x1="1.04" y1="49" x2="74.48" y2="49"/><line class="cls-12" x1="1.04" y1="45" x2="74.48" y2="45"/><line class="cls-12" x1="1.04" y1="41" x2="74.48" y2="41"/><line class="cls-12" x1="1.04" y1="37" x2="74.48" y2="37"/><line class="cls-12" x1="1.04" y1="33" x2="74.48" y2="33"/><line class="cls-12" x1="1.04" y1="29" x2="74.48" y2="29"/><line class="cls-12" x1="1.04" y1="25" x2="74.48" y2="25"/><line class="cls-12" x1="1.04" y1="21" x2="74.48" y2="21"/><line class="cls-12" x1="1.04" y1="17" x2="74.48" y2="17"/><line class="cls-12" x1="1.04" y1="13" x2="74.48" y2="13"/><line class="cls-12" x1="1.04" y1="9" x2="74.48" y2="9"/><line class="cls-12" x1="1.04" y1="5" x2="74.48" y2="5"/><line class="cls-12" x1="1.04" y1="1" x2="74.48" y2="1"/></g><g><line class="cls-12" x1="-73" y1="71" x2=".44" y2="71"/><line class="cls-12" x1="-73" y1="67" x2=".44" y2="67"/><line class="cls-12" x1="-73" y1="63" x2=".44" y2="63"/><line class="cls-12" x1="-73" y1="59" x2=".44" y2="59"/><line class="cls-12" x1="-73" y1="55" x2=".44" y2="55"/><line class="cls-12" x1="-73" y1="51" x2=".44" y2="51"/><line class="cls-12" x1="-73" y1="47" x2=".44" y2="47"/><line class="cls-12" x1="-73" y1="43" x2=".44" y2="43"/><line class="cls-12" x1="-73" y1="39" x2=".44" y2="39"/><line class="cls-12" x1="-73" y1="35" x2=".44" y2="35"/><line class="cls-12" x1="-73" y1="31" x2=".44" y2="31"/><line class="cls-12" x1="-73" y1="27" x2=".44" y2="27"/><line class="cls-12" x1="-73" y1="23" x2=".44" y2="23"/><line class="cls-12" x1="-73" y1="19" x2=".44" y2="19"/><line class="cls-12" x1="-73" y1="15" x2=".44" y2="15"/><line class="cls-12" x1="-73" y1="11" x2=".44" y2="11"/><line class="cls-12" x1="-73" y1="7" x2=".44" y2="7"/><line class="cls-12" x1="-73" y1="3" x2=".44" y2="3"/><line class="cls-12" x1="-70.96" y1="69" x2="2.48" y2="69"/><line class="cls-12" x1="-70.96" y1="65" x2="2.48" y2="65"/><line class="cls-12" x1="-70.96" y1="61" x2="2.48" y2="61"/><line class="cls-12" x1="-70.96" y1="57" x2="2.48" y2="57"/><line class="cls-12" x1="-70.96" y1="53" x2="2.48" y2="53"/><line class="cls-12" x1="-70.96" y1="49" x2="2.48" y2="49"/><line class="cls-12" x1="-70.96" y1="45" x2="2.48" y2="45"/><line class="cls-12" x1="-70.96" y1="41" x2="2.48" y2="41"/><line class="cls-12" x1="-70.96" y1="37" x2="2.48" y2="37"/><line class="cls-12" x1="-70.96" y1="33" x2="2.48" y2="33"/><line class="cls-12" x1="-70.96" y1="29" x2="2.48" y2="29"/><line class="cls-12" x1="-70.96" y1="25" x2="2.48" y2="25"/><line class="cls-12" x1="-70.96" y1="21" x2="2.48" y2="21"/><line class="cls-12" x1="-70.96" y1="17" x2="2.48" y2="17"/><line class="cls-12" x1="-70.96" y1="13" x2="2.48" y2="13"/><line class="cls-12" x1="-70.96" y1="9" x2="2.48" y2="9"/><line class="cls-12" x1="-70.96" y1="5" x2="2.48" y2="5"/><line class="cls-12" x1="-70.96" y1="1" x2="2.48" y2="1"/></g></g></pattern></defs><g id="BG"><g><path class="cls-6" d="M64.02,40c0,11.47-1.89,22.39-5.5,31.74-7.2,2.16-14.94,3.26-23.02,3.26-.49,0-.98-.01-1.47-.02h-.17c-8.18-.15-16.29-1.47-23.6-3.85-3.45-9.22-5.26-19.93-5.26-31.13s1.89-22.38,5.48-31.73c6.73-2.01,14.13-3.13,21.6-3.26,.48-.01,.97-.01,1.45-.01,.54,0,1.08,.01,1.63,.02,8.16,.15,16.27,1.47,23.59,3.84,3.46,9.24,5.27,19.95,5.27,31.14Z"/><path class="cls-15" d="M34.03,5.59V74.98h-.17c-8.18-.15-16.29-1.47-23.6-3.85-3.45-9.22-5.26-19.93-5.26-31.13s1.89-22.38,5.48-31.73c6.73-2.01,14.13-3.13,21.6-3.26,.65,.16,1.3,.36,1.95,.58Z"/></g></g><g id="Capa_10"><g><path class="cls-1" d="M61.45,73.18l-10.85,3.71-18,.79-23.28-4.5-1.94-6.61s1.23-.09,5.38-1.85c6-6.88,11.46-7.85,11.46-7.85l-1.5-10.94-.61-2.03s-2.38-.27-3.8-2.38c-1.41-2.12-1.49-5.21-1.23-10.5,1.15-.09,3.26,3.27,3.26,3.27l-.53-8.38-2.99-.97,1.67-2.47s-.44-.27-3.09-.89c1.24-1.32,5.56-4.32,5.56-4.32l-2.82-.44c4.06-3.09,11.46-3.44,11.46-3.44l-1.23-2.29,8.66,1.93-.9-1.32c4.41-.17,8.47,3.71,8.47,3.71l4.15-.44s-.27,.44-1.68,2.11c4.06,.18,7.5,3.45,7.5,3.45l-2.83,.35,.62,5.03-2.09-.88h-.01s0,.02,.01,.04c0,0,.01,.02,.01,.02,.06,.19,.23,.78,.33,1.91v.04c.1,1.44,.08,3.76-.45,7.25,.97-1.33,3.44-3.27,3.44-3.27,0,0,.79,6.09-.89,9.35-1.67,3.26-3.88,3.53-3.88,3.53l-1.05,.97s-.45,4.15-1.42,11.82c5.74,1.41,11.12,8.03,11.12,8.03l3,.88,.97,7.58Z"/><path class="cls-2" d="M35.07,62.04V21.86l7.6-2.24,4.98,3.46-.84-2.63s2.86,1.39,3.29,3c.38,8.17-.66,13.89-.66,13.89,0,0,.84,2.72,.28,4.13-.75,1.88-1.94,3.39-1.94,3.39l-1.53,9.38-4.6,4.32-.56,2.07s-3.85,1.78-6.01,1.41Z"/><path d="M50.28,25.09c.06,.19,.23,.78,.33,1.91-.09-.5-.21-1.22-.33-1.91Z"/><path d="M51.74,20.88l.62,5.03-2.09-.88h-.01c-.15-.85-.31-1.63-.39-1.86-.18-.56-3.08-3.18-3.08-3.18l.37,2.53s-1.68-.47-4.49-2.9c-3.74,1.68-9.17,2.34-9.17,2.34,0,0,0-.28,3-2.44-2.44-.46-10.48,1.22-10.48,1.22l1.68-2.06c-3.46,.56-7.76,4.68-7.76,4.68l-.13,2.55-2.99-.97,1.67-2.47s-.44-.27-3.09-.89c1.24-1.32,5.56-4.32,5.56-4.32l-2.82-.44c4.06-3.09,11.46-3.44,11.46-3.44l-1.23-2.29,8.66,1.93-.9-1.32c4.41-.17,8.47,3.71,8.47,3.71l4.15-.44s-.27,.44-1.68,2.11c4.06,.18,7.5,3.45,7.5,3.45l-2.83,.35Z"/><path class="cls-4" d="M33.27,34.36l-1.38,2.23s-3.42-1.23-7.68,.31c-1.02-1.02-1.08-1.56-1.08-1.56l3.94-2.06,6.19,1.08Z"/><path class="cls-4" d="M36.98,34.36l1.38,2.23s3.42-1.23,7.68,.31c1.02-1.02,1.08-1.56,1.08-1.56l-3.94-2.06-6.19,1.08Z"/><path class="cls-3" d="M31.75,36.27s-5.07-.55-7.28,.47c1.53,2,3.58,2.47,4.98,1.75s2.3-2.22,2.3-2.22Z"/><path class="cls-3" d="M38.26,36.27s5.07-.55,7.28,.47c-1.53,2-3.58,2.47-4.98,1.75s-2.3-2.22-2.3-2.22Z"/><path d="M20.34,34.29l-2.88-3.3s-.73,4.35-.27,6.35,1.45,5.8,4.35,6.35c-2.09-3.17-.63-6.35-.63-6.35l-.57-3.05Z"/><path class="cls-2" d="M24.47,39.24s3.78,3.16,6.81-.12c-2.23,5.33-4.83,7.06-6.81,.12Z"/><path class="cls-1" d="M17.55,32.58s-.64,5.66,2.36,9.39"/><path d="M41.13,61.17l-15.15,16.53-17.68-4.59,.11-7.23,4.34-1.15s6.03-7.21,11.46-7.85c-.19-1.79-.31-2.24-.31-2.24l4.71,3.79,.8,2.53s6.2,2.3,11.71,.23Z"/><path class="cls-2" d="M30.48,75.78l12.05-14.06,.37-2.1,1.55-1.19-.49,4.94c-.08,.84,.56,1.57,1.4,1.6h0c.73,.02,1.37-.5,1.48-1.22l.62-3.76s4.57,1.28,7.94,5.66c3.2,1.1,4.84,2.01,4.84,2.01l-.55,6.39-26.66,2.56-2.56-.82Z"/><path class="cls-1" d="M31.46,21.26c-.14,.22-.22,.48-.22,.73-.01,.4,.13,.79,.41,1.08,.28,.29,.65,.45,1.03,.45h0c.17,0,.34,0,.51,0,.74,0,1.48-.05,2.33-.15,2.43-.29,4.74-.96,6.87-2,.93,1.04,1.98,1.84,3.13,2.4l.04,.02,.04,.02c.12,.04,.24,.1,.36,.16,.43,.2,.96,.45,1.57,.45,.2,0,.4-.03,.59-.08l.13-.04,.12-.07c.08-.05,.16-.11,.23-.18,.4,3.87,.64,8.76-.61,13.19-.11,.44-.02,.91,.23,1.26,.09,.14,.15,.35,.17,.61-.15,2.48-1.77,4.38-3.5,6.38-.5,.58-1.02,1.19-1.49,1.8l-1.73,2.24,2.76-.66c.5-.12,.99-.33,1.44-.59-.25,2.12-.56,4.2-.89,5.25-1.03,.91-1.93,1.72-2.71,2.43-.01-.03-.02-.06-.03-.08l-1.04-2.82-.86,2.88c-.2,.68-.26,1.35-.31,2-.05,.62-.1,1.2-.28,1.68-1.28,.6-2.9,.95-4.59,.99-1.25-.02-3.05-.21-4.65-.96-.19-.49-.24-1.12-.29-1.77-.05-.62-.09-1.26-.27-1.91l-.86-3.2-1.05,3.15s-.02,.05-.03,.08c-.66-.61-1.55-1.41-2.73-2.45-.29-.91-.59-2.67-.87-5.04,.45,.24,.95,.42,1.53,.49l1.88,.24-.87-1.69c-.46-.9-1.07-1.51-1.6-2.05-.18-.18-.37-.37-.55-.57-2.04-2.22-2.92-4.85-2.43-7.21l.04-.19-.03-.19c-.09-.52-.18-1.05-.28-1.57-.32-1.79-.66-3.64-.73-5.46v-.04s0-.04,0-.04c-.16-1.44-.03-3.79,.05-5.34,.02-.37,.04-.69,.05-.96,.73-.92,1.63-1.73,2.63-2.37,0,.01,0,.03,.01,.04,.11,.34,.46,.92,1.53,.98h.15s.15-.03,.15-.03l.11-.03c1.77-.46,3.58-.93,5.4-1.26m-4.78-1.96c-2.45,.7-4.67,2.25-6.19,4.28-.03,1.2-.34,4.75-.11,6.77,.09,2.42,.62,4.8,1.02,7.16-.62,2.97,.67,5.91,2.67,8.09,.68,.76,1.46,1.36,2,2.41-1.18-.15-2.01-.9-2.79-1.66-.04-.03-.07-.07-.11-.11,.21,2.18,.67,6.32,1.26,7.88,2.34,2.07,3.55,3.2,4.16,3.79,.09-.59,.23-1.16,.4-1.67,.37,1.37,.09,2.96,.77,4.16,1.61,.84,3.56,1.19,5.39,1.22,1.83-.04,3.77-.41,5.37-1.25,.65-1.2,.38-2.76,.79-4.13,.18,.49,.33,1.04,.43,1.61,.62-.59,1.83-1.72,4.11-3.73,.59-1.6,1.06-5.88,1.26-8.02-.96,.92-1.99,1.6-2.91,1.82,2.1-2.72,5.02-5.16,5.2-8.81-.03-.43-.13-.83-.34-1.15-.1-.14-.14-.31-.1-.47,1.27-4.51,1.08-9.42,.58-14.06-.28-.66-.74-1.34-1.27-1.85-.35-.34-.75-.62-1.17-.85,.17,.67,.52,1.36,.88,1.97,.16,.23,.1,.54-.14,.69-.1,.03-.2,.04-.31,.04-.55,0-1.11-.38-1.58-.55-1.31-.64-2.42-1.62-3.31-2.76-2.25,1.21-4.71,1.96-7.24,2.26-.74,.09-1.46,.15-2.21,.15-.16,0-.32,0-.48,0-.27,0-.48-.22-.47-.49,0-.18,.11-.34,.26-.42l2.93-1.8c-3.29,.09-6.57,.95-9.73,1.77-1.4-.07-.26-1.28,.98-2.28h0Z"/><path class="cls-13" d="M19.75,25.92s-.17-.51-3.29-.76c.67-.84,2.19-2.7,2.19-2.7,0,0-1.18-.08-3.71-.76,2.45-2.19,6.58-4.38,6.58-4.38,0,0-.67-.17-3.88-.42,5.9-3.37,12.23-3.46,12.23-3.46,0,0-.67-.67-1.94-2.36,2.11-.17,9.11,1.94,9.11,1.94,0,0-.34-.25-1.35-1.43,6.58,.42,8.68,3.79,8.68,3.79,0,0,3.63-.25,4.64-.25-1.43,1.18-2.28,2.02-2.28,2.02,0,0,5.14,.84,8.09,3.63-2.36,.25-3.29,.08-3.29,.08,0,0,1.1,3.46,.84,5.4-1.43-1.1-1.85-1.18-1.85-1.18"/><path d="M26.07,48.01c-1.18-.14-2.02-.9-2.79-1.65-1.57-1.53-2.82-3.53-3.11-5.76-.15-1.12-.05-2.28,.29-3.34,0,0,0,.24,0,.24-1.09-4.67-1.44-9.51-.85-14.28,1.99-3.03,5.53-4.98,9.13-5.29,.5-.07,.73,.64,.31,.89-.87,.55-1.72,1.13-2.46,1.84-.23,.21-.48,.51-.58,.67l-.57-.69c3.84-.99,7.73-2.02,11.74-1.79,.46,.02,.61,.67,.22,.89,0,0-4.42,2.72-4.42,2.72l-.21-.91c.82,.02,1.69-.04,2.53-.14,2.53-.3,5.03-1.07,7.24-2.33,.22-.13,.5-.06,.64,.14,1.09,1.51,2.69,2.8,4.5,3.26l-.5,.74c-.39-.62-1.97-3.59-.7-3.79,1.84,.47,3.28,1.97,4.01,3.69,.34,2.45,.43,4.91,.41,7.37-.06,2.43-.28,4.89-.99,7.27l-.1-.46c2.5,3.17-2.28,9.81-5.6,10.61,2.1-2.73,5.02-5.17,5.2-8.81-.03-.43-.12-.83-.34-1.15-.1-.14-.14-.31-.1-.46,1.27-4.53,1.08-9.47,.57-14.12,0,0,.03,.1,.03,.1-.28-.67-.75-1.37-1.29-1.89-.55-.55-1.22-.94-1.94-1.19l.64-.46c.02,.9,.5,1.92,1.02,2.77,.16,.23,.09,.54-.14,.69-.65,.2-1.33-.3-1.89-.51-1.43-.7-2.65-1.8-3.57-3.09l.64,.14c-2.34,1.33-4.95,2.13-7.61,2.45-.89,.11-1.76,.17-2.69,.14-.27,0-.48-.23-.47-.5,0-.18,.11-.34,.26-.42l4.35-2.68,.22,.89c-3.83-.22-7.68,.8-11.36,1.75-2.3-.11,2.21-3.29,2.81-3.58,0,0,.29,.9,.29,.9-3.27,.25-6.37,2.07-8.32,4.68-.03,1.21-.34,4.75-.11,6.77,.09,2.42,.62,4.8,1.02,7.16-.62,2.97,.67,5.91,2.66,8.09,.68,.76,1.46,1.36,2.01,2.4h0Z"/><path class="cls-13" d="M22.56,44.88s.6,7.41,1.46,9.53c3.97,3.51,4.76,4.37,4.76,4.37"/><path class="cls-13" d="M47.71,44.88s-.6,7.41-1.46,9.53c-3.97,3.51-4.76,4.37-4.76,4.37"/><path d="M41.31,56.24c.55,1.47,.88,3.52-.12,4.88-1.79,1.17-3.97,1.42-6.04,1.47-2.06-.06-4.24-.34-6.02-1.5-.99-1.38-.63-3.36-.14-4.85,.37,1.37,.09,2.96,.77,4.16,1.61,.84,3.56,1.2,5.39,1.22,1.83-.04,3.77-.41,5.37-1.25,.66-1.2,.38-2.76,.79-4.13h0Z"/><path class="cls-9" d="M20.35,34.55s-1.97-3.26-3.26-3.6c-.88,7.41,1.63,12.85,4.69,12.99"/><path class="cls-9" d="M50.15,34.55s1.97-3.26,3.26-3.6c.88,7.41-1.63,12.85-4.69,12.99"/><path d="M37.13,36.54l.39,1.71c-.13-.51,2.72,7.4,2.7,7.28-.11,.95-1.32,2.14-1.97,2.86-1.14,1.32-3.13,2.13-4.73,1.08-1.38-.96-2.44-2.14-3.28-3.6-.07-.11-.07-.25-.03-.36,0,0,2.86-7.33,2.86-7.34-.08,.41,.32-1.71,.31-1.63,0,0,.22,1.73,.22,1.73,0,.03,0,.06-.02,.09,0,0-2.56,7.44-2.56,7.44,0,0-.03-.36-.03-.36,.53,.81,1.2,1.59,1.92,2.26,2.67,2.9,4.94,.07,6.66-2.22,0,0-.02,.29-.02,.29l-2.68-7.4s-.03-.07-.02-.1c0,0,.27-1.73,.27-1.73h0Z"/><path d="M23.04,35.42s2.59-2.29,3.82-2.7c3.21-.65,7.06,0,7.06,0,0,0-.58,1.54-.85,1.91-3.17-.31-6.14-.65-6.14-.65,0,0-2.7,.72-3.89,1.43Z"/><path class="cls-8" d="M31.74,36.34s-4.37-.96-7.37,.38c1.98,1.98,4.23,3.69,7.37-.38Z"/><path d="M47.2,35.42s-2.59-2.29-3.82-2.7c-3.21-.65-7.06,0-7.06,0,0,0,.58,1.54,.85,1.91,3.17-.31,6.14-.65,6.14-.65,0,0,2.7,.72,3.89,1.43Z"/><path class="cls-8" d="M38.5,36.34s4.37-.96,7.37,.38c-1.98,1.98-4.23,3.69-7.37-.38Z"/><path d="M40.98,52.34c-.78-.22-1.5-.62-2.15-1.13l.26,.09c-1.37,.32-2.75,.63-4.14,.78-1.33-.21-2.66-.46-3.97-.78l.27-.09c-.65,.51-1.37,.91-2.15,1.13,.72-.45,1.32-1.37,1.92-1.68,1.11,.07,3.44,.28,3.94,.44,1.36-.2,2.73-.36,4.11-.44,.51,.23,1.21,1.25,1.92,1.68h0Z"/><path d="M31.51,52.49c1.7,2.26,5.27,1.85,7.23,.14,.04-.04,.1,.02,.07,.07-.94,2.22-4.07,2.99-6.05,1.73-.68-.44-1.23-1.11-1.34-1.91,0-.05,.06-.08,.09-.04h0Z"/><path d="M25.71,22.84c-.66,3.59-1.58,6.9-2.7,10.37-.27-3.63,.76-7.3,2.7-10.37h0Z"/><path d="M44.61,22.84c1.94,3.07,2.96,6.74,2.7,10.37-1.12-3.47-2.04-6.78-2.7-10.37h0Z"/><line class="cls-9" x1="23.81" y1="53.96" x2="24.74" y2="63.32"/><path class="cls-9" d="M23.81,56.82s-6.26,1.38-11.01,7.86c-2.44,1.09-4.2,1.55-4.2,1.55"/><line class="cls-9" x1="46.45" y1="53.96" x2="45.52" y2="63.32"/><path class="cls-9" d="M46.45,56.82s6.26,1.38,11.01,7.86c2.44,1.09,4.2,1.55,4.2,1.55"/></g></g><g id="Frame"><path class="cls-5" d="M62.56,4.88C54.4,1.94,45.12,.2,35.25,.02c-.57-.01-1.15-.02-1.72-.02C23.88,0,14.77,1.52,6.72,4.21,2.49,14.22,0,26.6,0,40s2.39,25.22,6.45,35.11c8.16,2.94,17.45,4.69,27.32,4.87,.58,.01,1.15,.02,1.73,.02,9.63,0,18.73-1.51,26.78-4.2,4.24-10.01,6.74-22.39,6.74-35.8s-2.4-25.24-6.46-35.12Zm-4.04,66.86c-7.2,2.16-14.94,3.26-23.02,3.26-.49,0-.98-.01-1.47-.02h-.17c-8.18-.15-16.29-1.47-23.6-3.85-3.45-9.22-5.26-19.93-5.26-31.13s1.89-22.38,5.48-31.73c6.73-2.01,14.13-3.13,21.6-3.26,.48-.01,.97-.01,1.45-.01,.54,0,1.08,.01,1.63,.02,8.16,.15,16.27,1.47,23.59,3.84,3.46,9.24,5.27,19.95,5.27,31.14s-1.89,22.39-5.5,31.74Z"/><path class="cls-14" d="M17.21,2.06h0c1.63,.63,2.06,2.75,.81,3.97l-1.26,1.22s8.35-2.37,18.84-1.69h0c-1-1.49-.45-3.52,1.14-4.34l1-.51S28.26-.43,17.21,2.06Z"/><path class="cls-16" d="M21.81,1.66s.7,2.18-.22,3.1c3.77-.41,7.98-.74,11.12-.74-.33-1.33,1.26-3.4,1.26-3.4,0,0-6.17-.26-12.16,1.03Z"/><path class="cls-14" d="M36.25,79.21h0c-1.52-.87-1.62-3.03-.2-4.04l1.43-1.02s-8.61,1.07-18.88-1.19h0c.76,1.63-.09,3.55-1.79,4.11l-1.07,.36s9.19,2.56,20.5,1.78Z"/><path class="cls-16" d="M19.28,77.8s1.76-1.83,1.3-3.09c4.43,.69,9.11,1.14,12.25,1.14-.33,1.33,.44,3.4,.44,3.4,0,0-8-.16-13.99-1.45Z"/><polygon points="47.48 1.77 47.48 6.73 54.49 8.44 54.49 2.62 47.48 1.77"/><line class="cls-7" x1="45.5" y1="1.23" x2="45.5" y2="6.29"/><line class="cls-7" x1="56.47" y1="3.67" x2="56.47" y2="8.73"/><polygon points="47.48 78.74 47.48 73.78 54.49 72.07 54.49 77.88 47.48 78.74"/><line class="cls-7" x1="45.5" y1="79.28" x2="45.5" y2="74.21"/><line class="cls-7" x1="56.47" y1="76.84" x2="56.47" y2="71.77"/><path d="M33.53,1c.56,0,1.14,0,1.7,.02,9.39,.17,18.33,1.74,26.57,4.65,4.07,10.08,6.22,21.94,6.22,34.33s-2.24,24.79-6.49,34.99c-8.12,2.66-16.87,4.01-26.03,4.01-.56,0-1.12,0-1.71-.02-9.25-.17-18.42-1.78-26.58-4.66C3.15,64.25,1,52.39,1,40S3.23,15.21,7.47,5.02C15.6,2.35,24.37,1,33.53,1m0-1C23.88,0,14.77,1.52,6.72,4.21,2.49,14.22,0,26.6,0,40s2.39,25.22,6.45,35.11c8.16,2.94,17.45,4.69,27.32,4.87,.58,.01,1.15,.02,1.73,.02,9.63,0,18.73-1.51,26.78-4.2,4.24-10.01,6.74-22.39,6.74-35.8s-2.4-25.24-6.46-35.12C54.4,1.94,45.12,.2,35.25,.02c-.57,0-1.15-.02-1.72-.02h0Z"/><path class="cls-14" d="M33.53,6c.52,0,1.04,0,1.61,.02,7.87,.14,15.75,1.4,22.84,3.64,3.3,9,5.04,19.47,5.04,30.34s-1.82,21.82-5.26,30.92c-6.98,2.04-14.47,3.08-22.26,3.08-.48,0-.97,0-1.47-.02h-.15c-7.89-.14-15.78-1.41-22.85-3.65-3.29-8.99-5.03-19.46-5.03-30.33s1.81-21.79,5.24-30.91c6.5-1.89,13.7-2.95,20.86-3.08,.47,0,.96,0,1.43,0m0-1c-.48,0-.97,0-1.45,.01-7.47,.13-14.87,1.25-21.6,3.26-3.59,9.35-5.48,20.26-5.48,31.73s1.81,21.91,5.26,31.13c7.31,2.38,15.42,3.7,23.6,3.85h.17c.49,.01,.98,.02,1.47,.02,8.08,0,15.82-1.1,23.02-3.26,3.61-9.35,5.5-20.27,5.5-31.74s-1.81-21.9-5.27-31.14c-7.32-2.37-15.43-3.69-23.59-3.84-.55,0-1.09-.02-1.63-.02h0Z"/><path d="M33.53,5c.54,0,1.08,.01,1.63,.02,8.16,.15,16.27,1.47,23.59,3.84,3.46,9.24,5.27,19.95,5.27,31.14s-1.89,22.39-5.5,31.74c-7.2,2.16-14.94,3.26-23.02,3.26-.49,0-.98-.01-1.47-.02h-.17c-8.18-.15-16.29-1.47-23.6-3.85-3.45-9.22-5.26-19.93-5.26-31.13s1.89-22.38,5.48-31.73c6.73-2.01,14.13-3.13,21.6-3.26,.48-.01,.97-.01,1.45-.01m0-1c-.49,0-.98,0-1.47,.01-7.51,.13-15.07,1.27-21.87,3.3l-.47,.14-.18,.46c-3.63,9.45-5.55,20.55-5.55,32.09s1.84,22.17,5.32,31.48l.17,.45,.46,.15c7.37,2.4,15.63,3.75,23.89,3.9h.19c.48,.01,.97,.02,1.47,.02,8.16,0,16-1.11,23.31-3.3l.47-.14,.18-.46c3.64-9.43,5.57-20.53,5.57-32.1s-1.84-22.17-5.33-31.49l-.17-.45-.46-.15c-7.39-2.39-15.65-3.74-23.88-3.89-.58-.01-1.12-.02-1.65-.02h0Z"/><path class="cls-10" d="M8.14,7.1s-12.66,32.94,0,66.06"/><path class="cls-10" d="M60.88,7.58s12.66,32.94,0,66.06"/></g></svg>