<svg id="Capa_2" xmlns="http://www.w3.org/2000/svg" xmlns:xlink="http://www.w3.org/1999/xlink" viewBox="0 0 69.02 80">
<defs >
<style >
.cls-1{fill:#c89aed;}.cls-2{fill:#fff;}.cls-3{fill:#f8ffbf;}.cls-4{fill:#7b7be8;}.cls-5{fill:#a88347;}.cls-6{fill:#782ab5;}.cls-7{stroke-miterlimit:10;}.cls-7,.cls-8,.cls-9,.cls-10,.cls-11,.cls-12,.cls-13{fill:none;}.cls-7,.cls-8,.cls-9,.cls-13{stroke:#000;}.cls-8{stroke-width:.5px;}.cls-8,.cls-9,.cls-10,.cls-13{stroke-linecap:round;stroke-linejoin:round;}.cls-10{stroke:#deb778;stroke-dasharray:0 0 0 4.06;}.cls-14{fill:#deb778;}.cls-15{fill:url(#USGS_19_Inundación_de_tierra_2);}.cls-12{stroke:#1d1d1b;stroke-dasharray:0 0 2 2;stroke-width:.3px;}.cls-13{stroke-width:.98px;}.cls-16{fill:#fcf0c5;}
</style>
<pattern id="USGS_19_Inundación_de_tierra_2" x="0" y="0" width="72" height="72" patternTransform="translate(-452.48 -16207) rotate(-90)" patternUnits="userSpaceOnUse" viewBox="0 0 72 72">
<g >
<rect class="cls-11" width="72" height="72">
</rect>
<g >
<line class="cls-12" x1="71" y1="71" x2="144.44" y2="71">
</line>
<line class="cls-12" x1="71" y1="67" x2="144.44" y2="67">
</line>
<line class="cls-12" x1="71" y1="63" x2="144.44" y2="63">
</line>
<line class="cls-12" x1="71" y1="59" x2="144.44" y2="59">
</line>
<line class="cls-12" x1="71" y1="55" x2="144.44" y2="55">
</line>
<line class="cls-12" x1="71" y1="51" x2="144.44" y2="51">
</line>
<line class="cls-12" x1="71" y1="47" x2="144.44" y2="47">
</line>
<line class="cls-12" x1="71" y1="43" x2="144.44" y2="43">
</line>
<line class="cls-12" x1="71" y1="39" x2="144.44" y2="39">
</line>
<line class="cls-12" x1="71" y1="35" x2="144.44" y2="35">
</line>
<line class="cls-12" x1="71" y1="31" x2="144.44" y2="31">
</line>
<line class="cls-12" x1="71" y1="27" x2="144.44" y2="27">
</line>
<line class="cls-12" x1="71" y1="23" x2="144.44" y2="23">
</line>
<line class="cls-12" x1="71" y1="19" x2="144.44" y2="19">
</line>
<line class="cls-12" x1="71" y1="15" x2="144.44" y2="15">
</line>
<line class="cls-12" x1="71" y1="11" x2="144.44" y2="11">
</line>
<line class="cls-12" x1="71" y1="7" x2="144.44" y2="7">
</line>
<line class="cls-12" x1="71" y1="3" x2="144.44" y2="3">
</line>
</g>
<g >
<line class="cls-12" x1="-1" y1="71" x2="72.44" y2="71">
</line>
<line class="cls-12" x1="-1" y1="67" x2="72.44" y2="67">
</line>
<line class="cls-12" x1="-1" y1="63" x2="72.44" y2="63">
</line>
<line class="cls-12" x1="-1" y1="59" x2="72.44" y2="59">
</line>
<line class="cls-12" x1="-1" y1="55" x2="72.44" y2="55">
</line>
<line class="cls-12" x1="-1" y1="51" x2="72.44" y2="51">
</line>
<line class="cls-12" x1="-1" y1="47" x2="72.44" y2="47">
</line>
<line class="cls-12" x1="-1" y1="43" x2="72.44" y2="43">
</line>
<line class="cls-12" x1="-1" y1="39" x2="72.44" y2="39">
</line>
<line class="cls-12" x1="-1" y1="35" x2="72.44" y2="35">
</line>
<line class="cls-12" x1="-1" y1="31" x2="72.44" y2="31">
</line>
<line class="cls-12" x1="-1" y1="27" x2="72.44" y2="27">
</line>
<line class="cls-12" x1="-1" y1="23" x2="72.44" y2="23">
</line>
<line class="cls-12" x1="-1" y1="19" x2="72.44" y2="19">
</line>
<line class="cls-12" x1="-1" y1="15" x2="72.44" y2="15">
</line>
<line class="cls-12" x1="-1" y1="11" x2="72.44" y2="11">
</line>
<line class="cls-12" x1="-1" y1="7" x2="72.44" y2="7">
</line>
<line class="cls-12" x1="-1" y1="3" x2="72.44" y2="3">
</line>
<line class="cls-12" x1="1.04" y1="69" x2="74.48" y2="69">
</line>
<line class="cls-12" x1="1.04" y1="65" x2="74.48" y2="65">
</line>
<line class="cls-12" x1="1.04" y1="61" x2="74.48" y2="61">
</line>
<line class="cls-12" x1="1.04" y1="57" x2="74.48" y2="57">
</line>
<line class="cls-12" x1="1.04" y1="53" x2="74.48" y2="53">
</line>
<line class="cls-12" x1="1.04" y1="49" x2="74.48" y2="49">
</line>
<line class="cls-12" x1="1.04" y1="45" x2="74.48" y2="45">
</line>
<line class="cls-12" x1="1.04" y1="41" x2="74.48" y2="41">
</line>
<line class="cls-12" x1="1.04" y1="37" x2="74.48" y2="37">
</line>
<line class="cls-12" x1="1.04" y1="33" x2="74.48" y2="33">
</line>
<line class="cls-12" x1="1.04" y1="29" x2="74.48" y2="29">
</line>
<line class="cls-12" x1="1.04" y1="25" x2="74.48" y2="25">
</line>
<line class="cls-12" x1="1.04" y1="21" x2="74.48" y2="21">
</line>
<line class="cls-12" x1="1.04" y1="17" x2="74.48" y2="17">
</line>
<line class="cls-12" x1="1.04" y1="13" x2="74.48" y2="13">
</line>
<line class="cls-12" x1="1.04" y1="9" x2="74.48" y2="9">
</line>
<line class="cls-12" x1="1.04" y1="5" x2="74.48" y2="5">
</line>
<line class="cls-12" x1="1.04" y1="1" x2="74.48" y2="1">
</line>
</g>
<g >
<line class="cls-12" x1="-73" y1="71" x2=".44" y2="71">
</line>
<line class="cls-12" x1="-73" y1="67" x2=".44" y2="67">
</line>
<line class="cls-12" x1="-73" y1="63" x2=".44" y2="63">
</line>
<line class="cls-12" x1="-73" y1="59" x2=".44" y2="59">
</line>
<line class="cls-12" x1="-73" y1="55" x2=".44" y2="55">
</line>
<line class="cls-12" x1="-73" y1="51" x2=".44" y2="51">
</line>
<line class="cls-12" x1="-73" y1="47" x2=".44" y2="47">
</line>
<line class="cls-12" x1="-73" y1="43" x2=".44" y2="43">
</line>
<line class="cls-12" x1="-73" y1="39" x2=".44" y2="39">
</line>
<line class="cls-12" x1="-73" y1="35" x2=".44" y2="35">
</line>
<line class="cls-12" x1="-73" y1="31" x2=".44" y2="31">
</line>
<line class="cls-12" x1="-73" y1="27" x2=".44" y2="27">
</line>
<line class="cls-12" x1="-73" y1="23" x2=".44" y2="23">
</line>
<line class="cls-12" x1="-73" y1="19" x2=".44" y2="19">
</line>
<line class="cls-12" x1="-73" y1="15" x2=".44" y2="15">
</line>
<line class="cls-12" x1="-73" y1="11" x2=".44" y2="11">
</line>
<line class="cls-12" x1="-73" y1="7" x2=".44" y2="7">
</line>
<line class="cls-12" x1="-73" y1="3" x2=".44" y2="3">
</line>
<line class="cls-12" x1="-70.96" y1="69" x2="2.48" y2="69">
</line>
<line class="cls-12" x1="-70.96" y1="65" x2="2.48" y2="65">
</line>
<line class="cls-12" x1="-70.96" y1="61" x2="2.48" y2="61">
</line>
<line class="cls-12" x1="-70.96" y1="57" x2="2.48" y2="57">
</line>
<line class="cls-12" x1="-70.96" y1="53" x2="2.48" y2="53">
</line>
<line class="cls-12" x1="-70.96" y1="49" x2="2.48" y2="49">
</line>
<line class="cls-12" x1="-70.96" y1="45" x2="2.48" y2="45">
</line>
<line class="cls-12" x1="-70.96" y1="41" x2="2.48" y2="41">
</line>
<line class="cls-12" x1="-70.96" y1="37" x2="2.48" y2="37">
</line>
<line class="cls-12" x1="-70.96" y1="33" x2="2.48" y2="33">
</line>
<line class="cls-12" x1="-70.96" y1="29" x2="2.48" y2="29">
</line>
<line class="cls-12" x1="-70.96" y1="25" x2="2.48" y2="25">
</line>
<line class="cls-12" x1="-70.96" y1="21" x2="2.48" y2="21">
</line>
<line class="cls-12" x1="-70.96" y1="17" x2="2.48" y2="17">
</line>
<line class="cls-12" x1="-70.96" y1="13" x2="2.48" y2="13">
</line>
<line class="cls-12" x1="-70.96" y1="9" x2="2.48" y2="9">
</line>
<line class="cls-12" x1="-70.96" y1="5" x2="2.48" y2="5">
</line>
<line class="cls-12" x1="-70.96" y1="1" x2="2.48" y2="1">
</line>
</g>
</g>
</pattern>
</defs>

<g id="Capa_10">
<g >
<path class="cls-1" d="M61.45,73.18l-10.85,3.71-18,.79-23.28-4.5-1.94-6.61s1.23-.09,5.38-1.85c6-6.88,11.46-7.85,11.46-7.85l-1.5-10.94-.61-2.03s-2.38-.27-3.8-2.38c-1.41-2.12-1.49-5.21-1.23-10.5,1.15-.09,3.26,3.27,3.26,3.27l-.53-8.38-2.99-.97,1.67-2.47s-.44-.27-3.09-.89c1.24-1.32,5.56-4.32,5.56-4.32l-2.82-.44c4.06-3.09,11.46-3.44,11.46-3.44l-1.23-2.29,8.66,1.93-.9-1.32c4.41-.17,8.47,3.71,8.47,3.71l4.15-.44s-.27,.44-1.68,2.11c4.06,.18,7.5,3.45,7.5,3.45l-2.83,.35,.62,5.03-2.09-.88h-.01s0,.02,.01,.04c0,0,.01,.02,.01,.02,.06,.19,.23,.78,.33,1.91v.04c.1,1.44,.08,3.76-.45,7.25,.97-1.33,3.44-3.27,3.44-3.27,0,0,.79,6.09-.89,9.35-1.67,3.26-3.88,3.53-3.88,3.53l-1.05,.97s-.45,4.15-1.42,11.82c5.74,1.41,11.12,8.03,11.12,8.03l3,.88,.97,7.58Z">
</path>
<path class="cls-2" d="M35.07,62.04V21.86l7.6-2.24,4.98,3.46-.84-2.63s2.86,1.39,3.29,3c.38,8.17-.66,13.89-.66,13.89,0,0,.84,2.72,.28,4.13-.75,1.88-1.94,3.39-1.94,3.39l-1.53,9.38-4.6,4.32-.56,2.07s-3.85,1.78-6.01,1.41Z">
</path>
<path d="M50.28,25.09c.06,.19,.23,.78,.33,1.91-.09-.5-.21-1.22-.33-1.91Z">
</path>
<path d="M51.74,20.88l.62,5.03-2.09-.88h-.01c-.15-.85-.31-1.63-.39-1.86-.18-.56-3.08-3.18-3.08-3.18l.37,2.53s-1.68-.47-4.49-2.9c-3.74,1.68-9.17,2.34-9.17,2.34,0,0,0-.28,3-2.44-2.44-.46-10.48,1.22-10.48,1.22l1.68-2.06c-3.46,.56-7.76,4.68-7.76,4.68l-.13,2.55-2.99-.97,1.67-2.47s-.44-.27-3.09-.89c1.24-1.32,5.56-4.32,5.56-4.32l-2.82-.44c4.06-3.09,11.46-3.44,11.46-3.44l-1.23-2.29,8.66,1.93-.9-1.32c4.41-.17,8.47,3.71,8.47,3.71l4.15-.44s-.27,.44-1.68,2.11c4.06,.18,7.5,3.45,7.5,3.45l-2.83,.35Z">
</path>
<path class="cls-4" d="M33.27,34.36l-1.38,2.23s-3.42-1.23-7.68,.31c-1.02-1.02-1.08-1.56-1.08-1.56l3.94-2.06,6.19,1.08Z">
</path>
<path class="cls-4" d="M36.98,34.36l1.38,2.23s3.42-1.23,7.68,.31c1.02-1.02,1.08-1.56,1.08-1.56l-3.94-2.06-6.19,1.08Z">
</path>
<path class="cls-3" d="M31.75,36.27s-5.07-.55-7.28,.47c1.53,2,3.58,2.47,4.98,1.75s2.3-2.22,2.3-2.22Z">
</path>
<path class="cls-3" d="M38.26,36.27s5.07-.55,7.28,.47c-1.53,2-3.58,2.47-4.98,1.75s-2.3-2.22-2.3-2.22Z">
</path>
<path d="M20.34,34.29l-2.88-3.3s-.73,4.35-.27,6.35,1.45,5.8,4.35,6.35c-2.09-3.17-.63-6.35-.63-6.35l-.57-3.05Z">
</path>
<path class="cls-2" d="M24.47,39.24s3.78,3.16,6.81-.12c-2.23,5.33-4.83,7.06-6.81,.12Z">
</path>
<path class="cls-1" d="M17.55,32.58s-.64,5.66,2.36,9.39">
</path>
<path d="M41.13,61.17l-15.15,16.53-17.68-4.59,.11-7.23,4.34-1.15s6.03-7.21,11.46-7.85c-.19-1.79-.31-2.24-.31-2.24l4.71,3.79,.8,2.53s6.2,2.3,11.71,.23Z">
</path>
<path class="cls-2" d="M30.48,75.78l12.05-14.06,.37-2.1,1.55-1.19-.49,4.94c-.08,.84,.56,1.57,1.4,1.6h0c.73,.02,1.37-.5,1.48-1.22l.62-3.76s4.57,1.28,7.94,5.66c3.2,1.1,4.84,2.01,4.84,2.01l-.55,6.39-26.66,2.56-2.56-.82Z">
</path>
<path class="cls-1" d="M31.46,21.26c-.14,.22-.22,.48-.22,.73-.01,.4,.13,.79,.41,1.08,.28,.29,.65,.45,1.03,.45h0c.17,0,.34,0,.51,0,.74,0,1.48-.05,2.33-.15,2.43-.29,4.74-.96,6.87-2,.93,1.04,1.98,1.84,3.13,2.4l.04,.02,.04,.02c.12,.04,.24,.1,.36,.16,.43,.2,.96,.45,1.57,.45,.2,0,.4-.03,.59-.08l.13-.04,.12-.07c.08-.05,.16-.11,.23-.18,.4,3.87,.64,8.76-.61,13.19-.11,.44-.02,.91,.23,1.26,.09,.14,.15,.35,.17,.61-.15,2.48-1.77,4.38-3.5,6.38-.5,.58-1.02,1.19-1.49,1.8l-1.73,2.24,2.76-.66c.5-.12,.99-.33,1.44-.59-.25,2.12-.56,4.2-.89,5.25-1.03,.91-1.93,1.72-2.71,2.43-.01-.03-.02-.06-.03-.08l-1.04-2.82-.86,2.88c-.2,.68-.26,1.35-.31,2-.05,.62-.1,1.2-.28,1.68-1.28,.6-2.9,.95-4.59,.99-1.25-.02-3.05-.21-4.65-.96-.19-.49-.24-1.12-.29-1.77-.05-.62-.09-1.26-.27-1.91l-.86-3.2-1.05,3.15s-.02,.05-.03,.08c-.66-.61-1.55-1.41-2.73-2.45-.29-.91-.59-2.67-.87-5.04,.45,.24,.95,.42,1.53,.49l1.88,.24-.87-1.69c-.46-.9-1.07-1.51-1.6-2.05-.18-.18-.37-.37-.55-.57-2.04-2.22-2.92-4.85-2.43-7.21l.04-.19-.03-.19c-.09-.52-.18-1.05-.28-1.57-.32-1.79-.66-3.64-.73-5.46v-.04s0-.04,0-.04c-.16-1.44-.03-3.79,.05-5.34,.02-.37,.04-.69,.05-.96,.73-.92,1.63-1.73,2.63-2.37,0,.01,0,.03,.01,.04,.11,.34,.46,.92,1.53,.98h.15s.15-.03,.15-.03l.11-.03c1.77-.46,3.58-.93,5.4-1.26m-4.78-1.96c-2.45,.7-4.67,2.25-6.19,4.28-.03,1.2-.34,4.75-.11,6.77,.09,2.42,.62,4.8,1.02,7.16-.62,2.97,.67,5.91,2.67,8.09,.68,.76,1.46,1.36,2,2.41-1.18-.15-2.01-.9-2.79-1.66-.04-.03-.07-.07-.11-.11,.21,2.18,.67,6.32,1.26,7.88,2.34,2.07,3.55,3.2,4.16,3.79,.09-.59,.23-1.16,.4-1.67,.37,1.37,.09,2.96,.77,4.16,1.61,.84,3.56,1.19,5.39,1.22,1.83-.04,3.77-.41,5.37-1.25,.65-1.2,.38-2.76,.79-4.13,.18,.49,.33,1.04,.43,1.61,.62-.59,1.83-1.72,4.11-3.73,.59-1.6,1.06-5.88,1.26-8.02-.96,.92-1.99,1.6-2.91,1.82,2.1-2.72,5.02-5.16,5.2-8.81-.03-.43-.13-.83-.34-1.15-.1-.14-.14-.31-.1-.47,1.27-4.51,1.08-9.42,.58-14.06-.28-.66-.74-1.34-1.27-1.85-.35-.34-.75-.62-1.17-.85,.17,.67,.52,1.36,.88,1.97,.16,.23,.1,.54-.14,.69-.1,.03-.2,.04-.31,.04-.55,0-1.11-.38-1.58-.55-1.31-.64-2.42-1.62-3.31-2.76-2.25,1.21-4.71,1.96-7.24,2.26-.74,.09-1.46,.15-2.21,.15-.16,0-.32,0-.48,0-.27,0-.48-.22-.47-.49,0-.18,.11-.34,.26-.42l2.93-1.8c-3.29,.09-6.57,.95-9.73,1.77-1.4-.07-.26-1.28,.98-2.28h0Z">
</path>
<path class="cls-13" d="M19.75,25.92s-.17-.51-3.29-.76c.67-.84,2.19-2.7,2.19-2.7,0,0-1.18-.08-3.71-.76,2.45-2.19,6.58-4.38,6.58-4.38,0,0-.67-.17-3.88-.42,5.9-3.37,12.23-3.46,12.23-3.46,0,0-.67-.67-1.94-2.36,2.11-.17,9.11,1.94,9.11,1.94,0,0-.34-.25-1.35-1.43,6.58,.42,8.68,3.79,8.68,3.79,0,0,3.63-.25,4.64-.25-1.43,1.18-2.28,2.02-2.28,2.02,0,0,5.14,.84,8.09,3.63-2.36,.25-3.29,.08-3.29,.08,0,0,1.1,3.46,.84,5.4-1.43-1.1-1.85-1.18-1.85-1.18">
</path>
<path d="M26.07,48.01c-1.18-.14-2.02-.9-2.79-1.65-1.57-1.53-2.82-3.53-3.11-5.76-.15-1.12-.05-2.28,.29-3.34,0,0,0,.24,0,.24-1.09-4.67-1.44-9.51-.85-14.28,1.99-3.03,5.53-4.98,9.13-5.29,.5-.07,.73,.64,.31,.89-.87,.55-1.72,1.13-2.46,1.84-.23,.21-.48,.51-.58,.67l-.57-.69c3.84-.99,7.73-2.02,11.74-1.79,.46,.02,.61,.67,.22,.89,0,0-4.42,2.72-4.42,2.72l-.21-.91c.82,.02,1.69-.04,2.53-.14,2.53-.3,5.03-1.07,7.24-2.33,.22-.13,.5-.06,.64,.14,1.09,1.51,2.69,2.8,4.5,3.26l-.5,.74c-.39-.62-1.97-3.59-.7-3.79,1.84,.47,3.28,1.97,4.01,3.69,.34,2.45,.43,4.91,.41,7.37-.06,2.43-.28,4.89-.99,7.27l-.1-.46c2.5,3.17-2.28,9.81-5.6,10.61,2.1-2.73,5.02-5.17,5.2-8.81-.03-.43-.12-.83-.34-1.15-.1-.14-.14-.31-.1-.46,1.27-4.53,1.08-9.47,.57-14.12,0,0,.03,.1,.03,.1-.28-.67-.75-1.37-1.29-1.89-.55-.55-1.22-.94-1.94-1.19l.64-.46c.02,.9,.5,1.92,1.02,2.77,.16,.23,.09,.54-.14,.69-.65,.2-1.33-.3-1.89-.51-1.43-.7-2.65-1.8-3.57-3.09l.64,.14c-2.34,1.33-4.95,2.13-7.61,2.45-.89,.11-1.76,.17-2.69,.14-.27,0-.48-.23-.47-.5,0-.18,.11-.34,.26-.42l4.35-2.68,.22,.89c-3.83-.22-7.68,.8-11.36,1.75-2.3-.11,2.21-3.29,2.81-3.58,0,0,.29,.9,.29,.9-3.27,.25-6.37,2.07-8.32,4.68-.03,1.21-.34,4.75-.11,6.77,.09,2.42,.62,4.8,1.02,7.16-.62,2.97,.67,5.91,2.66,8.09,.68,.76,1.46,1.36,2.01,2.4h0Z">
</path>
<path class="cls-13" d="M22.56,44.88s.6,7.41,1.46,9.53c3.97,3.51,4.76,4.37,4.76,4.37">
</path>
<path class="cls-13" d="M47.71,44.88s-.6,7.41-1.46,9.53c-3.97,3.51-4.76,4.37-4.76,4.37">
</path>
<path d="M41.31,56.24c.55,1.47,.88,3.52-.12,4.88-1.79,1.17-3.97,1.42-6.04,1.47-2.06-.06-4.24-.34-6.02-1.5-.99-1.38-.63-3.36-.14-4.85,.37,1.37,.09,2.96,.77,4.16,1.61,.84,3.56,1.2,5.39,1.22,1.83-.04,3.77-.41,5.37-1.25,.66-1.2,.38-2.76,.79-4.13h0Z">
</path>
<path class="cls-9" d="M20.35,34.55s-1.97-3.26-3.26-3.6c-.88,7.41,1.63,12.85,4.69,12.99">
</path>
<path class="cls-9" d="M50.15,34.55s1.97-3.26,3.26-3.6c.88,7.41-1.63,12.85-4.69,12.99">
</path>
<path d="M37.13,36.54l.39,1.71c-.13-.51,2.72,7.4,2.7,7.28-.11,.95-1.32,2.14-1.97,2.86-1.14,1.32-3.13,2.13-4.73,1.08-1.38-.96-2.44-2.14-3.28-3.6-.07-.11-.07-.25-.03-.36,0,0,2.86-7.33,2.86-7.34-.08,.41,.32-1.71,.31-1.63,0,0,.22,1.73,.22,1.73,0,.03,0,.06-.02,.09,0,0-2.56,7.44-2.56,7.44,0,0-.03-.36-.03-.36,.53,.81,1.2,1.59,1.92,2.26,2.67,2.9,4.94,.07,6.66-2.22,0,0-.02,.29-.02,.29l-2.68-7.4s-.03-.07-.02-.1c0,0,.27-1.73,.27-1.73h0Z">
</path>
<path d="M23.04,35.42s2.59-2.29,3.82-2.7c3.21-.65,7.06,0,7.06,0,0,0-.58,1.54-.85,1.91-3.17-.31-6.14-.65-6.14-.65,0,0-2.7,.72-3.89,1.43Z">
</path>
<path class="cls-8" d="M31.74,36.34s-4.37-.96-7.37,.38c1.98,1.98,4.23,3.69,7.37-.38Z">
</path>
<path d="M47.2,35.42s-2.59-2.29-3.82-2.7c-3.21-.65-7.06,0-7.06,0,0,0,.58,1.54,.85,1.91,3.17-.31,6.14-.65,6.14-.65,0,0,2.7,.72,3.89,1.43Z">
</path>
<path class="cls-8" d="M38.5,36.34s4.37-.96,7.37,.38c-1.98,1.98-4.23,3.69-7.37-.38Z">
</path>
<path d="M40.98,52.34c-.78-.22-1.5-.62-2.15-1.13l.26,.09c-1.37,.32-2.75,.63-4.14,.78-1.33-.21-2.66-.46-3.97-.78l.27-.09c-.65,.51-1.37,.91-2.15,1.13,.72-.45,1.32-1.37,1.92-1.68,1.11,.07,3.44,.28,3.94,.44,1.36-.2,2.73-.36,4.11-.44,.51,.23,1.21,1.25,1.92,1.68h0Z">
</path>
<path d="M31.51,52.49c1.7,2.26,5.27,1.85,7.23,.14,.04-.04,.1,.02,.07,.07-.94,2.22-4.07,2.99-6.05,1.73-.68-.44-1.23-1.11-1.34-1.91,0-.05,.06-.08,.09-.04h0Z">
</path>
<path d="M25.71,22.84c-.66,3.59-1.58,6.9-2.7,10.37-.27-3.63,.76-7.3,2.7-10.37h0Z">
</path>
<path d="M44.61,22.84c1.94,3.07,2.96,6.74,2.7,10.37-1.12-3.47-2.04-6.78-2.7-10.37h0Z">
</path>
<line class="cls-9" x1="23.81" y1="53.96" x2="24.74" y2="63.32">
</line>
<path class="cls-9" d="M23.81,56.82s-6.26,1.38-11.01,7.86c-2.44,1.09-4.2,1.55-4.2,1.55">
</path>
<line class="cls-9" x1="46.45" y1="53.96" x2="45.52" y2="63.32">
</line>
<path class="cls-9" d="M46.45,56.82s6.26,1.38,11.01,7.86c2.44,1.09,4.2,1.55,4.2,1.55">
</path>
</g>
</g>
 <g
     id="g2850">
    <g
       id="g2837">
      <path
         id="path1951"
         d="M 0.056640625 0.04296875 L 0.056640625 79.943359 L 69.308594 79.943359 L 69.308594 0.04296875 L 0.056640625 0.04296875 z M 33.615234 3.5957031 C 34.206332 3.5957038 34.786991 3.6051034 35.421875 3.6152344 C 44.430653 3.7671809 53.471255 5.1336733 61.560547 7.5546875 L 62.064453 7.7070312 L 62.25 8.1640625 C 66.070247 17.605006 66.990234 28.726438 66.990234 40.0625 C 66.990234 51.398562 65.972723 63.025755 61.988281 72.578125 L 61.791016 73.044922 L 61.275391 73.185547 C 53.273669 75.403966 44.691921 76.529297 35.759766 76.529297 C 35.212453 76.529297 34.675812 76.519896 34.150391 76.509766 L 33.943359 76.509766 C 24.901742 76.357819 15.860367 74.989738 7.7929688 72.558594 L 7.2890625 72.40625 L 7.1035156 71.951172 C 3.2942144 62.520359 2.375 51.369168 2.375 40.0625 C 2.375 28.755832 3.3819737 17.127318 7.3554688 7.5546875 L 7.5527344 7.0898438 L 8.0664062 6.9472656 C 15.509867 4.890923 23.785212 3.7371557 32.005859 3.6054688 C 32.542226 3.5953387 33.078867 3.5957031 33.615234 3.5957031 z "
         style="opacity:1;vector-effect:none;fill:#ffffff;fill-opacity:1;fill-rule:nonzero;stroke:none;stroke-width:1.95200002;stroke-linecap:butt;stroke-linejoin:miter;stroke-miterlimit:4;stroke-dasharray:none;stroke-dashoffset:0;stroke-opacity:1" />
    </g>
    <path
       id="path1154-8-2"
       d="m 33.675163,6.6112954 c 0.557696,0 1.115392,0.00956 1.683415,0.019115 8.427403,0.14336 16.803167,1.4049288 24.363042,3.6700176 3.573384,8.830981 4.443772,19.417362 4.443772,29.761551 0,10.344189 -0.95301,21.39888 -4.68131,30.334991 -7.435942,2.064385 -15.429581,3.274388 -23.774362,3.274388 -0.506058,0 -1.012115,-0.0096 -1.518172,-0.01911 h -0.17557 C 25.56792,73.508883 17.192156,72.088619 9.6426089,69.813973 6.0795528,61.002107 5.2088244,50.415411 5.2088244,40.061979 c 0,-10.353432 0.95335,-21.389323 4.6609939,-30.325434 C 16.820359,7.8155201 24.462856,6.7450981 32.177647,6.6208528 c 0.49573,-0.00956 1.001787,-0.00956 1.497516,-0.00956 m 0,-0.9557337 c -0.506057,0 -1.012114,0 -1.518171,0.00956 C 24.40089,5.7893644 16.593149,6.8789009 9.570315,8.8190405 L 9.0849131,8.9528432 8.8990146,9.3924808 C 5.1500599,18.424166 4.1999116,29.394246 4.1999116,40.061979 c 0,10.667733 0.8675267,21.188618 4.461566,30.0865 l 0.1755708,0.430081 0.4750741,0.14336 c 7.6115135,2.293761 16.1421925,3.584001 24.6728715,3.727361 h 0.196227 c 0.495729,0.0096 1.001786,0.01911 1.518171,0.01911 8.427403,0 16.524318,-1.060864 24.073866,-3.153921 l 0.485403,-0.133802 0.185898,-0.439639 c 3.759282,-9.01257 4.719759,-19.983589 4.719759,-30.679055 0,-10.695466 -0.867528,-21.188618 -4.471894,-30.0960578 L 60.516853,9.5358409 60.041779,9.3924808 C 52.409609,7.108277 43.87893,5.8180364 35.379234,5.6746763 34.780227,5.6651187 34.232859,5.6555621 33.675163,5.6555615 Z"
       style="fill:#ff0000;stroke:#ffffff;stroke-width:1.84341729;stroke-miterlimit:4;stroke-dasharray:none" />
    <path
       id="path1154"
       d="m 33.614853,4.6077955 c 0.591098,0 1.182197,0.01013 1.784241,0.02026 8.932155,0.1519464 17.809578,1.4890758 25.822246,3.8898304 3.787408,9.3599041 4.709928,20.5803481 4.709928,31.5440931 0,10.963745 -1.01009,22.680548 -4.961693,32.151879 -7.881312,2.18803 -16.353723,3.302304 -25.198307,3.302304 -0.536368,0 -1.072735,-0.01013 -1.609102,-0.02026 H 33.97608 C 25.022033,75.343956 16.14461,74.006827 8.1428892,71.595943 4.3664269,62.256298 3.443547,51.035521 3.443547,40.061979 c 0,-10.973542 1.01045,-22.670418 4.9401601,-32.1417498 7.3668369,-2.036083 15.4670749,-3.170617 23.6439369,-3.3023039 0.525421,-0.01013 1.061788,-0.01013 1.587209,-0.01013 m 0,-1.0129766 c -0.536367,0 -1.072734,0 -1.609101,0.01013 C 23.785105,3.7366356 15.509726,4.891429 8.0662653,6.9477716 L 7.5517907,7.0895883 7.3547579,7.5555576 C 3.3812628,17.128188 2.3742062,28.755311 2.3742062,40.061979 c 0,11.306668 0.9194864,22.457692 4.7287876,31.888505 l 0.1860865,0.45584 0.5035283,0.151947 c 8.0673984,2.431144 17.1090154,3.798662 26.1506324,3.950608 h 0.207979 c 0.525421,0.01013 1.061788,0.02026 1.609101,0.02026 8.932155,0 17.514028,-1.124404 25.51575,-3.342823 l 0.514475,-0.141816 0.197032,-0.46597 c 3.984442,-9.55237 5.002445,-21.180489 5.002445,-32.516551 0,-11.336062 -0.919487,-22.457692 -4.739734,-31.8986353 L 62.064202,7.7075041 61.560674,7.5555576 C 53.471382,5.1345434 44.429765,3.7670249 35.420987,3.6150784 c -0.634884,-0.01013 -1.215036,-0.020259 -1.806134,-0.02026 z"
       style="fill:#000000;stroke:#000000;stroke-width:1.95382714;stroke-miterlimit:4;stroke-dasharray:none" />
    <g
       id="g1810">
      <path
         d="M 6.5134911,7.7433673 C 5.6489029,6.8479453 4.058602,6.5681013 3.6272194,7.3820013 3.284151,8.0292783 3.3625296,8.5309135 4.395235,8.9201755 3.2963719,9.5187755 1.4857674,9.4447465 1.1893447,7.4467713 0.95320848,5.8551433 2.674739,4.8863543 3.1399725,5.0916244 3.0034432,3.6818714 1.8221094,4.0692802 0.95849208,3.2813384 0.34259068,2.7194046 0.23126071,-0.02624603 0.0561761,0.04378767 -0.0138576,0.21887227 2.7317937,0.33020157 3.2937267,0.94610377 4.0816685,1.8097211 3.6942598,2.9910547 5.1040128,3.1275841 4.8987425,2.6623507 5.8675315,0.94082017 7.4591593,1.1769564 9.4571345,1.4733791 9.5311625,3.2839847 8.9325635,4.3828467 8.5433008,3.3501417 8.041666,3.2717627 7.3943894,3.6148312 6.5804899,4.0462137 6.8603354,5.6365129 7.7557553,6.5011023"
         style="fill:#000000;stroke:#000000;stroke-width:0.1112323px;stroke-linecap:butt;stroke-linejoin:miter;stroke-opacity:1"
         id="path1737-3" />
      <path
         d="m 62.850738,7.7433673 c 0.864588,-0.895422 2.454889,-1.175266 2.886271,-0.361366 0.343069,0.647277 0.26469,1.148912 -0.768015,1.538174 1.098863,0.5986 2.909467,0.524571 3.20589,-1.473404 0.236136,-1.591628 -1.485394,-2.560417 -1.950628,-2.3551469 0.13653,-1.409753 1.317863,-1.0223442 2.181481,-1.810286 0.615901,-0.5619338 0.727231,-3.30758442 0.902316,-3.23755072 0.07003,0.1750846 -2.675618,0.2864139 -3.237551,0.9023161 C 65.28256,1.8097211 65.669969,2.9910547 64.260216,3.1275841 64.465486,2.6623507 63.496697,0.94082018 61.905069,1.1769564 c -1.997975,0.2964227 -2.072003,2.1070283 -1.473404,3.2058903 0.389263,-1.032705 0.890898,-1.111084 1.538174,-0.7680155 0.8139,0.4313825 0.534054,2.0216817 -0.361366,2.8862711"
         style="fill:#000000;stroke:#000000;stroke-width:0.1112323px;stroke-linecap:butt;stroke-linejoin:miter;stroke-opacity:1"
         id="path1737-3-5" />
      <path
         d="m 62.850738,72.244244 c 0.864588,0.895422 2.454889,1.175266 2.886272,0.361366 0.343068,-0.647277 0.264689,-1.148912 -0.768016,-1.538174 1.098863,-0.5986 2.909468,-0.524571 3.20589,1.473404 0.236137,1.591628 -1.485394,2.560417 -1.950628,2.355147 0.13653,1.409753 1.317864,1.022344 2.181481,1.810286 0.615901,0.561934 0.727231,3.307584 0.902316,3.237551 0.07003,-0.175085 -2.675618,-0.286414 -3.237551,-0.902317 -0.787942,-0.863617 -0.400533,-2.04495 -1.810286,-2.18148 0.20527,0.465234 -0.763519,2.186764 -2.355146,1.950628 -1.997976,-0.296423 -2.072004,-2.107028 -1.473405,-3.20589 0.389263,1.032705 0.890898,1.111084 1.538175,0.768015 0.813899,-0.431382 0.534054,-2.021682 -0.361366,-2.886271"
         style="fill:#000000;stroke:#000000;stroke-width:0.1112323px;stroke-linecap:butt;stroke-linejoin:miter;stroke-opacity:1"
         id="path1737-3-7" />
      <path
         d="M 6.513491,72.244245 C 5.648903,73.139667 4.058602,73.419511 3.62722,72.605611 3.284151,71.958334 3.36253,71.456699 4.395235,71.067437 c -1.098863,-0.5986 -2.909467,-0.524571 -3.20589,1.473404 -0.23613599,1.591628 1.485394,2.560417 1.950628,2.355147 -0.13653,1.409753 -1.317863,1.022344 -2.18148099,1.810286 -0.615901,0.561933 -0.727231,3.307584 -0.902316,3.23755 C -0.01385399,79.76874 2.731794,79.65741 3.293727,79.041508 4.081669,78.177891 3.69426,76.996557 5.104013,76.860028 4.898743,77.325261 5.867532,79.046792 7.45916,78.810656 9.457135,78.514233 9.531163,76.703627 8.932564,75.604765 8.543301,76.63747 8.041666,76.715849 7.39439,76.372781 6.58049,75.941398 6.860336,74.351099 7.755756,73.48651"
         style="fill:#000000;stroke:#000000;stroke-width:0.1112323px;stroke-linecap:butt;stroke-linejoin:miter;stroke-opacity:1"
         id="path1737-3-5-5" />
    </g>
    <path
       id="path1154-9"
       d="m 33.712865,7.4258691 c 0.536813,0 1.07363,0.00933 1.620386,0.01865 8.111875,0.1398689 16.174044,1.3707167 23.450873,3.5806479 3.439594,8.615932 4.277395,18.944521 4.277395,29.036812 0,10.092292 -0.917329,20.877786 -4.506039,29.596289 -7.157536,2.014114 -14.851888,3.03982 -22.884234,3.03982 -0.487111,0 -0.974221,-0.0094 -1.461331,-0.01865 H 34.040918 C 25.909161,72.53957 17.846991,71.308722 10.580105,69.089467 7.1504515,60.492184 6.3123238,50.163289 6.3123238,40.061979 c 0,-10.101311 0.9176558,-20.868461 4.4864832,-29.586965 6.690308,-1.8742449 14.046665,-2.9186005 21.472608,-3.0398203 0.47717,-0.00933 0.964281,-0.00933 1.44145,-0.00933 m 0,-0.9324602 c -0.487111,0 -0.974221,0 -1.46133,0.00933 C 24.785826,6.6239532 17.270413,7.686958 10.510517,9.5798526 L 10.043289,9.710397 9.8643508,10.139328 c -3.6085914,8.811751 -4.5231655,19.514693 -4.5231655,29.922651 0,10.407958 0.8350459,20.672644 4.294522,29.353849 l 0.1689973,0.419608 0.4572874,0.13987 c 7.326533,2.237904 15.537818,3.496724 23.749103,3.636593 h 0.188879 c 0.47717,0.0094 0.96428,0.01865 1.461331,0.01865 8.111875,0 15.905636,-1.035031 23.172525,-3.077119 l 0.467228,-0.130544 0.178938,-0.428932 c 3.618533,-8.793101 4.543048,-19.496959 4.543048,-29.931975 0,-10.435016 -0.835047,-20.672644 -4.304463,-29.363174 l -0.168997,-0.419609 -0.457288,-0.13987 C 51.74588,7.9107484 43.534594,6.6519271 35.353133,6.512058 34.776554,6.502738 34.249678,6.493409 33.712865,6.493409 Z"
       style="fill:#000000;stroke:none;stroke-width:1.78642213;stroke-miterlimit:4;stroke-dasharray:none" />
    <path
       id="path1154-9-3"
       d="m 33.712865,7.4258686 c 0.536813,0 1.07363,0.00933 1.620386,0.01865 8.111875,0.1398689 16.174044,1.3707167 23.450873,3.5806484 3.439594,8.615932 4.277395,18.944521 4.277395,29.036812 0,10.092292 -0.917329,20.877786 -4.506039,29.596288 -7.157536,2.014114 -14.851888,3.03982 -22.884234,3.03982 -0.487111,0 -0.974221,-0.0094 -1.461331,-0.01865 H 34.040918 C 25.909161,72.539569 17.846991,71.308722 10.580105,69.089466 7.1504515,60.492184 6.3123238,50.163288 6.3123238,40.061979 c 0,-10.101312 0.9176558,-20.868461 4.4864832,-29.586965 6.690308,-1.8742454 14.046665,-2.918601 21.472608,-3.0398208 0.47717,-0.00933 0.964281,-0.00933 1.44145,-0.00933 m 0,-0.9324602 c -0.487111,0 -0.974221,0 -1.46133,0.00933 C 24.785826,6.6239527 17.270413,7.6869575 10.510517,9.5798521 L 10.043289,9.7103965 9.8643508,10.139328 C 6.2557594,18.951079 5.3411853,29.65402 5.3411853,40.061979 c 0,10.407958 0.8350459,20.672643 4.294522,29.353849 l 0.1689973,0.419608 0.4572874,0.13987 c 7.326533,2.237904 15.537818,3.496724 23.749103,3.636593 h 0.188879 c 0.47717,0.0094 0.96428,0.01865 1.461331,0.01865 8.111875,0 15.905636,-1.035032 23.172525,-3.077119 l 0.467228,-0.130544 0.178938,-0.428932 c 3.618533,-8.793101 4.543048,-19.49696 4.543048,-29.931975 0,-10.435016 -0.835047,-20.672644 -4.304463,-29.363175 l -0.168997,-0.419609 -0.457288,-0.13987 C 51.74588,7.9107479 43.534594,6.6519266 35.353133,6.5120575 34.776554,6.5027375 34.249678,6.4934085 33.712865,6.4934085 Z"
       style="fill:#000000;stroke:none;stroke-width:1.78642213;stroke-miterlimit:4;stroke-dasharray:none" />
  </g>
</svg>
