<?xml version="1.0" encoding="UTF-8"?>
<svg id="Capa_2" xmlns="http://www.w3.org/2000/svg" xmlns:xlink="http://www.w3.org/1999/xlink" viewBox="0 0 69.02 80">
<defs>
<style>
.cls-1{fill:#c89aed;}.cls-2{fill:#fff;}.cls-3{fill:#f8ffbf;}.cls-4{fill:#7b7be8;}.cls-5{fill:#a88347;}.cls-6{fill:#782ab5;}.cls-7{stroke-miterlimit:10;}.cls-7,.cls-8{stroke:#000;}.cls-7,.cls-8,.cls-9,.cls-10,.cls-11{fill:none;}.cls-12{fill:#1c46ff;}.cls-8,.cls-9{stroke-linecap:round;stroke-linejoin:round;}.cls-9{stroke:#deb778;stroke-dasharray:0 0 0 4.06;}.cls-13{fill:#deb778;}.cls-14{fill:url(#USGS_19_Inundación_de_tierra_2);}.cls-11{stroke:#1d1d1b;stroke-dasharray:0 0 2 2;stroke-width:.3px;}.cls-15{fill:#fcf0c5;}</style>
<pattern id="USGS_19_Inundación_de_tierra_2" x="0" y="0" width="72" height="72" patternTransform="translate(339.52 -16279) rotate(-90)" patternUnits="userSpaceOnUse" viewBox="0 0 72 72">
<g>
<rect class="cls-10" width="72" height="72"/>
<g>
<line class="cls-11" x1="71" y1="71" x2="144.44" y2="71"/>
<line class="cls-11" x1="71" y1="67" x2="144.44" y2="67"/>
<line class="cls-11" x1="71" y1="63" x2="144.44" y2="63"/>
<line class="cls-11" x1="71" y1="59" x2="144.44" y2="59"/>
<line class="cls-11" x1="71" y1="55" x2="144.44" y2="55"/>
<line class="cls-11" x1="71" y1="51" x2="144.44" y2="51"/>
<line class="cls-11" x1="71" y1="47" x2="144.44" y2="47"/>
<line class="cls-11" x1="71" y1="43" x2="144.44" y2="43"/>
<line class="cls-11" x1="71" y1="39" x2="144.44" y2="39"/>
<line class="cls-11" x1="71" y1="35" x2="144.44" y2="35"/>
<line class="cls-11" x1="71" y1="31" x2="144.44" y2="31"/>
<line class="cls-11" x1="71" y1="27" x2="144.44" y2="27"/>
<line class="cls-11" x1="71" y1="23" x2="144.44" y2="23"/>
<line class="cls-11" x1="71" y1="19" x2="144.44" y2="19"/>
<line class="cls-11" x1="71" y1="15" x2="144.44" y2="15"/>
<line class="cls-11" x1="71" y1="11" x2="144.44" y2="11"/>
<line class="cls-11" x1="71" y1="7" x2="144.44" y2="7"/>
<line class="cls-11" x1="71" y1="3" x2="144.44" y2="3"/>
</g>
<g>
<line class="cls-11" x1="-1" y1="71" x2="72.44" y2="71"/>
<line class="cls-11" x1="-1" y1="67" x2="72.44" y2="67"/>
<line class="cls-11" x1="-1" y1="63" x2="72.44" y2="63"/>
<line class="cls-11" x1="-1" y1="59" x2="72.44" y2="59"/>
<line class="cls-11" x1="-1" y1="55" x2="72.44" y2="55"/>
<line class="cls-11" x1="-1" y1="51" x2="72.44" y2="51"/>
<line class="cls-11" x1="-1" y1="47" x2="72.44" y2="47"/>
<line class="cls-11" x1="-1" y1="43" x2="72.44" y2="43"/>
<line class="cls-11" x1="-1" y1="39" x2="72.44" y2="39"/>
<line class="cls-11" x1="-1" y1="35" x2="72.44" y2="35"/>
<line class="cls-11" x1="-1" y1="31" x2="72.44" y2="31"/>
<line class="cls-11" x1="-1" y1="27" x2="72.44" y2="27"/>
<line class="cls-11" x1="-1" y1="23" x2="72.44" y2="23"/>
<line class="cls-11" x1="-1" y1="19" x2="72.44" y2="19"/>
<line class="cls-11" x1="-1" y1="15" x2="72.44" y2="15"/>
<line class="cls-11" x1="-1" y1="11" x2="72.44" y2="11"/>
<line class="cls-11" x1="-1" y1="7" x2="72.44" y2="7"/>
<line class="cls-11" x1="-1" y1="3" x2="72.44" y2="3"/>
<line class="cls-11" x1="1.04" y1="69" x2="74.48" y2="69"/>
<line class="cls-11" x1="1.04" y1="65" x2="74.48" y2="65"/>
<line class="cls-11" x1="1.04" y1="61" x2="74.48" y2="61"/>
<line class="cls-11" x1="1.04" y1="57" x2="74.48" y2="57"/>
<line class="cls-11" x1="1.04" y1="53" x2="74.48" y2="53"/>
<line class="cls-11" x1="1.04" y1="49" x2="74.48" y2="49"/>
<line class="cls-11" x1="1.04" y1="45" x2="74.48" y2="45"/>
<line class="cls-11" x1="1.04" y1="41" x2="74.48" y2="41"/>
<line class="cls-11" x1="1.04" y1="37" x2="74.48" y2="37"/>
<line class="cls-11" x1="1.04" y1="33" x2="74.48" y2="33"/>
<line class="cls-11" x1="1.04" y1="29" x2="74.48" y2="29"/>
<line class="cls-11" x1="1.04" y1="25" x2="74.48" y2="25"/>
<line class="cls-11" x1="1.04" y1="21" x2="74.48" y2="21"/>
<line class="cls-11" x1="1.04" y1="17" x2="74.48" y2="17"/>
<line class="cls-11" x1="1.04" y1="13" x2="74.48" y2="13"/>
<line class="cls-11" x1="1.04" y1="9" x2="74.48" y2="9"/>
<line class="cls-11" x1="1.04" y1="5" x2="74.48" y2="5"/>
<line class="cls-11" x1="1.04" y1="1" x2="74.48" y2="1"/>
</g>
<g>
<line class="cls-11" x1="-73" y1="71" x2=".44" y2="71"/>
<line class="cls-11" x1="-73" y1="67" x2=".44" y2="67"/>
<line class="cls-11" x1="-73" y1="63" x2=".44" y2="63"/>
<line class="cls-11" x1="-73" y1="59" x2=".44" y2="59"/>
<line class="cls-11" x1="-73" y1="55" x2=".44" y2="55"/>
<line class="cls-11" x1="-73" y1="51" x2=".44" y2="51"/>
<line class="cls-11" x1="-73" y1="47" x2=".44" y2="47"/>
<line class="cls-11" x1="-73" y1="43" x2=".44" y2="43"/>
<line class="cls-11" x1="-73" y1="39" x2=".44" y2="39"/>
<line class="cls-11" x1="-73" y1="35" x2=".44" y2="35"/>
<line class="cls-11" x1="-73" y1="31" x2=".44" y2="31"/>
<line class="cls-11" x1="-73" y1="27" x2=".44" y2="27"/>
<line class="cls-11" x1="-73" y1="23" x2=".44" y2="23"/>
<line class="cls-11" x1="-73" y1="19" x2=".44" y2="19"/>
<line class="cls-11" x1="-73" y1="15" x2=".44" y2="15"/>
<line class="cls-11" x1="-73" y1="11" x2=".44" y2="11"/>
<line class="cls-11" x1="-73" y1="7" x2=".44" y2="7"/>
<line class="cls-11" x1="-73" y1="3" x2=".44" y2="3"/>
<line class="cls-11" x1="-70.96" y1="69" x2="2.48" y2="69"/>
<line class="cls-11" x1="-70.96" y1="65" x2="2.48" y2="65"/>
<line class="cls-11" x1="-70.96" y1="61" x2="2.48" y2="61"/>
<line class="cls-11" x1="-70.96" y1="57" x2="2.48" y2="57"/>
<line class="cls-11" x1="-70.96" y1="53" x2="2.48" y2="53"/>
<line class="cls-11" x1="-70.96" y1="49" x2="2.48" y2="49"/>
<line class="cls-11" x1="-70.96" y1="45" x2="2.48" y2="45"/>
<line class="cls-11" x1="-70.96" y1="41" x2="2.48" y2="41"/>
<line class="cls-11" x1="-70.96" y1="37" x2="2.48" y2="37"/>
<line class="cls-11" x1="-70.96" y1="33" x2="2.48" y2="33"/>
<line class="cls-11" x1="-70.96" y1="29" x2="2.48" y2="29"/>
<line class="cls-11" x1="-70.96" y1="25" x2="2.48" y2="25"/>
<line class="cls-11" x1="-70.96" y1="21" x2="2.48" y2="21"/>
<line class="cls-11" x1="-70.96" y1="17" x2="2.48" y2="17"/>
<line class="cls-11" x1="-70.96" y1="13" x2="2.48" y2="13"/>
<line class="cls-11" x1="-70.96" y1="9" x2="2.48" y2="9"/>
<line class="cls-11" x1="-70.96" y1="5" x2="2.48" y2="5"/>
<line class="cls-11" x1="-70.96" y1="1" x2="2.48" y2="1"/>
</g>
</g>
</pattern>
</defs>
<g id="BG">
<path class="cls-6" d="M64.02,40c0,11.47-1.89,22.39-5.5,31.74-7.2,2.16-14.94,3.26-23.02,3.26-.49,0-.98-.01-1.47-.02h-.17c-8.18-.15-16.29-1.47-23.6-3.85-3.45-9.22-5.26-19.93-5.26-31.13s1.89-22.38,5.48-31.73c6.73-2.01,14.13-3.13,21.6-3.26,.48-.01,.97-.01,1.45-.01,.54,0,1.08,.01,1.63,.02,8.16,.15,16.27,1.47,23.59,3.84,3.46,9.24,5.27,19.95,5.27,31.14Z"/>
<path class="cls-14" d="M34.03,5.59V74.98h-.17c-8.18-.15-16.29-1.47-23.6-3.85-3.45-9.22-5.26-19.93-5.26-31.13s1.89-22.38,5.48-31.73c6.73-2.01,14.13-3.13,21.6-3.26,.65,.16,1.3,.36,1.95,.58Z"/>
</g>
<g id="Capa_10">
<g>
<path class="cls-4" d="M61.7,67.59l-2.24,6.16-26.11,3.47-24.2-5.15-1.12-5.38s.02-.08,.05-.25c.66-3.29,7.76-38.49,9.37-42.66,1.68-4.37,6.38-14,17.25-9.52,6.27-3.25,12.43,0,15.57,4.48,2.91,4.15,10.23,42.5,11.3,48.15,.08,.46,.13,.7,.13,.7Z"/>
<path class="cls-1" d="M34.77,56.15V31.64s9.06,0,11.72,1.47c.8,5.86,3.05,7.12,.8,11.86s-6.79,11.59-12.52,11.19Z"/>
<path class="cls-4" d="M37.4,34.47l.51,4.52s1.47-2.02,3.41-2.3,4.52,.87,4.52,.87l1.39-3.6s-4.2-2.85-9.82,.51Z"/>
<path d="M61.57,66.89l-.9,.56-16.29-6.93-.19-7.61s3.21-3.31,5.26-8.19c1.37-3.71,.29-7.41-1.27-12.97-9.26-3.22-27.5-.59-27.5-.59,0,3.71-2.73,6.93-1.76,10.93,.98,4,5.66,11.21,5.66,11.21l.2,7.42-15.61,6.33-1.09-.61c.66-3.29,7.76-38.49,9.37-42.66,1.68-4.37,6.38-14,17.25-9.52,6.27-3.25,12.43,0,15.57,4.48,2.91,4.15,10.23,42.5,11.3,48.15Z"/>
<path class="cls-5" d="M20.11,62.65s1.88,8.95,11.9,9.45c-3.54,2.81-2.74,3.32-2.74,3.32l11.25-.43-3.68-3.03s10.46-1.59,12.19-9.38c-3.75-1.52-4.66-2.06-4.66-2.06,0,0-1.18,7.18-10.06,7.33-7.21,.14-9.31-5.34-9.96-7.07-3.17,1.15-4.26,1.88-4.26,1.88Z"/>
<path class="cls-3" d="M30.73,38.96s-1.22-3.44-6.62-1.7c.11,1.59,1.64,1.96,2.97,2.38s3.39-.05,3.66-.69Z"/>
<path class="cls-3" d="M37.9,38.98s1.16-1.91,3.6-2.2,4.06,.93,4.06,.93c0,0-.61,1.37-2.61,1.86-3.13,.75-5.05-.58-5.05-.58Z"/>
<path class="cls-2" d="M30.71,50.47s1.67-1.05,3.82-1.32,3.43,1.19,3.43,1.19c0,0-.92,2.33-3.47,2.37s-3.78-2.24-3.78-2.24Z"/>
<path class="cls-1" d="M22.52,39.93s3.88,2.32,7.62,1.2c-3.51,4.33-6.57,3.21-7.62-1.2Z"/>
<path class="cls-13" d="M38.47,67.48s3.13,1.23,1.9,3.7c5.12-2.75,6.74-4.65,6.74-4.65,0,0-3.51-.19-3.89-2.94-2.18,2.94-4.74,3.89-4.74,3.89Z"/>
<path d="M43.97,53.85l-18.41,20.38-15.41-2.9-.98-4.28,15.61-6.33,.16-7.08s3.21,3.83,7.45,4.45,8.28-1.03,11.59-4.24Z"/>
<polygon class="cls-4" points="25.65 55.79 26.15 61.81 26.18 62.13 25.84 62.27 10.23 68.61 9.86 67.68 25.46 61.34 25.15 61.81 25.65 55.79 25.65 55.79"/>
<path class="cls-1" d="M42.59,57.07l-7.87,8.63s9.01-1.42,7.87-8.63Z"/>
<path class="cls-1" d="M49.99,65.32s-1.8,5.6-8.44,6.93c6.93-.19,15.08-2.09,15.08-2.09l1.23-2.66-7.87-2.18Z"/>
<path class="cls-12" d="M52.78,26.95s-8.77-5.45-15.22-2.6-12.71-2.75-18.31-.09c.09-4.08,3.42-6.64,3.42-6.64,0,0,7.65,7.26,13.72,3.28s11.56,.2,13.65-1.7c3.45,4.52,2.74,7.76,2.74,7.76Z"/>
<polygon class="cls-12" points="20.35 31.16 15.03 63.15 13.12 64.33 20.35 31.16"/>
<polygon class="cls-12" points="50.42 31.62 56.19 64.97 58.37 65.62 50.42 31.62"/>
<path class="cls-2" d="M40.73,41.51c1.1-.01,2.74-.13,4.3-.65,.79-.26,1.6,.39,1.47,1.21-.23,1.34-1.54,3.09-3.56,4.44-.63,.42-1.5,.13-1.71-.61-.3-1.1-1.05-1.89-1.49-2.78-.37-.74,.18-1.6,1-1.61Z"/>
<circle cx="29.31" cy="46.78" r=".31"/>
<path class="cls-8" d="M61.59,67.36s-3.71-18.95-6.62-32.89-5.11-18.45-11.43-20.86c-3.98-1.51-7-.24-8.69,.91-1.69-1.15-4.71-2.42-8.7-.91-6.31,2.41-8.52,6.92-11.43,20.86-2.9,13.94-6.61,32.89-6.61,32.89"/>
<path class="cls-8" d="M48.52,29.49s-.85,2.22,.69,6.24c1.53,4.02,1.02,8.72-2.57,13.76-2.77,3.89-5.47,8.55-12.22,8.55s-9.46-4.66-12.23-8.55c-3.59-5.04-4.1-9.74-2.57-13.76,1.54-4.02,.69-6.24,.69-6.24"/>
<path class="cls-8" d="M20.88,31.39s16.98-3.23,27.15,.27"/>
<polyline class="cls-8" points="24.67 53.06 24.67 60.51 7.45 67.55"/>
<polyline class="cls-8" points="44.41 52.7 44.41 60.51 61.63 67.55"/>
<path class="cls-8" d="M24.67,60.51s.51,7.42,9.45,7.42,10.29-7.42,10.29-7.42"/>
<path class="cls-8" d="M20.22,62.88s.74,9.3,13.71,9.3,14.93-9.3,14.93-9.3"/>
<ellipse class="cls-8" cx="34.54" cy="75.2" rx="5.24" ry="2.8"/>
<path d="M21.52,33.95c1.1-1.5,3.16-2.01,4.91-1.52,1.7,.34,3.3,.89,4.87,1.58,.25,.11,.37,.41,.26,.66-.1,.23-.35,.35-.59,.28-2.17-.52-4.28-1.43-6.48-1.62-1.01,.06-1.91,.33-2.97,.62h0Z"/>
<path d="M30.87,39.19c-1.71-2.55-5.08-2.4-7.61-1.31,0,0,.23-.7,.23-.7,1.11,1.89,3.47,2.42,5.58,2.58-2.26,.54-5.11,.1-6.42-2.09-.15-.25-.03-.59,.24-.69,2.76-1.3,6.86-1.12,7.98,2.21h0Z"/>
<path d="M24.98,39.04s-1.2-1.17-.06-2.03c-1.29,.09-1.69,.46-1.69,.46,0,0,.28,1.05,1.75,1.57Z"/>
<path d="M31.39,42.8c-.43,.9-.76,1.18-.49,2.21-1.22-.42-.63-2.16,.49-2.21h0Z"/>
<path d="M33.36,45.27c-.57-.39-1.11-.41-1.75-.45-.28-.02-.32-.43-.06-.51,.72-.26,1.6,.26,1.81,.96h0Z"/>
<path d="M47.24,33.95c-1.06-.29-1.96-.56-2.97-.62-2.2,.19-4.31,1.1-6.48,1.62-.27,.07-.54-.09-.61-.35-.07-.24,.06-.49,.28-.59,1.56-.69,3.17-1.23,4.87-1.58,1.75-.49,3.81,.02,4.91,1.52h0Z"/>
<path d="M37.89,39.19c1.12-3.34,5.22-3.51,7.98-2.21,.25,.09,.37,.36,.28,.61-1.26,2.25-4.19,2.72-6.46,2.17,2.1-.16,4.47-.68,5.58-2.58,0,0,.23,.7,.23,.7-2.53-1.09-5.9-1.24-7.61,1.31h0Z"/>
<path d="M43.78,39.04s1.2-1.17,.06-2.03c1.29,.09,1.69,.46,1.69,.46,0,0-.28,1.05-1.75,1.57Z"/>
<path d="M37.36,42.8c1.12,.04,1.71,1.79,.49,2.21,.27-1.03-.06-1.3-.49-2.21h0Z"/>
<path d="M35.4,45.27c.21-.7,1.09-1.22,1.81-.96,.26,.09,.21,.49-.06,.51-.64,.04-1.18,.06-1.75,.45h0Z"/>
<path d="M37.98,48.24c-1.36-1.27-3.35-.86-3.35-.86,0,0-2.02-.41-3.38,.86s-1.98,2.04-2.6,2.15c1.36,.05,1.16,4.21,5.63,4.12,4.48-.09,4.75-2.52,5.16-3.23,.4-.71,1.13-.88,1.13-.88-.62-.12-1.24-.89-2.6-2.15Zm-3.72,3.78c-1.3,0-2.52-1.19-2.96-1.66,.54-.12,1.05-.27,1.6-.38,1.36-.27,1.72,0,1.72,0,0,0,.34-.27,1.7,0,.39,.08,.77,.18,1.15,.27-.56,.96-1.76,1.77-3.22,1.77Z"/>
</g>
</g>
<g id="Frame">
<path class="cls-5" d="M62.56,4.88C54.4,1.94,45.12,.2,35.25,.02c-.57-.01-1.15-.02-1.72-.02C23.88,0,14.77,1.52,6.72,4.21,2.49,14.22,0,26.6,0,40s2.39,25.22,6.45,35.11c8.16,2.94,17.45,4.69,27.32,4.87,.58,.01,1.15,.02,1.73,.02,9.63,0,18.73-1.51,26.78-4.2,4.24-10.01,6.74-22.39,6.74-35.8s-2.4-25.24-6.46-35.12Zm-4.04,66.86c-7.2,2.16-14.94,3.26-23.02,3.26-.49,0-.98-.01-1.47-.02h-.17c-8.18-.15-16.29-1.47-23.6-3.85-3.45-9.22-5.26-19.93-5.26-31.13s1.89-22.38,5.48-31.73c6.73-2.01,14.13-3.13,21.6-3.26,.48-.01,.97-.01,1.45-.01,.54,0,1.08,.01,1.63,.02,8.16,.15,16.27,1.47,23.59,3.84,3.46,9.24,5.27,19.95,5.27,31.14s-1.89,22.39-5.5,31.74Z"/>
<path class="cls-13" d="M17.21,2.06h0c1.63,.63,2.06,2.75,.81,3.97l-1.26,1.22s8.35-2.37,18.84-1.69h0c-1-1.49-.45-3.52,1.14-4.34l1-.51S28.26-.43,17.21,2.06Z"/>
<path class="cls-15" d="M21.81,1.66s.7,2.18-.22,3.1c3.77-.41,7.98-.74,11.12-.74-.33-1.33,1.26-3.4,1.26-3.4,0,0-6.17-.26-12.16,1.03Z"/>
<path class="cls-13" d="M36.25,79.21h0c-1.52-.87-1.62-3.03-.2-4.04l1.43-1.02s-8.61,1.07-18.88-1.19h0c.76,1.63-.09,3.55-1.79,4.11l-1.07,.36s9.19,2.56,20.5,1.78Z"/>
<path class="cls-15" d="M19.28,77.8s1.76-1.83,1.3-3.09c4.43,.69,9.11,1.14,12.25,1.14-.33,1.33,.44,3.4,.44,3.4,0,0-8-.16-13.99-1.45Z"/>
<polygon points="47.48 1.77 47.48 6.73 54.49 8.44 54.49 2.62 47.48 1.77"/>
<line class="cls-7" x1="45.5" y1="1.23" x2="45.5" y2="6.29"/>
<line class="cls-7" x1="56.47" y1="3.67" x2="56.47" y2="8.73"/>
<polygon points="47.48 78.74 47.48 73.78 54.49 72.07 54.49 77.88 47.48 78.74"/>
<line class="cls-7" x1="45.5" y1="79.28" x2="45.5" y2="74.21"/>
<line class="cls-7" x1="56.47" y1="76.84" x2="56.47" y2="71.77"/>
<path d="M33.53,1c.56,0,1.14,0,1.7,.02,9.39,.17,18.33,1.74,26.57,4.65,4.07,10.08,6.22,21.94,6.22,34.33s-2.24,24.79-6.49,34.99c-8.12,2.66-16.87,4.01-26.03,4.01-.56,0-1.12,0-1.71-.02-9.25-.17-18.42-1.78-26.58-4.66C3.15,64.25,1,52.39,1,40S3.23,15.21,7.47,5.02C15.6,2.35,24.37,1,33.53,1m0-1C23.88,0,14.77,1.52,6.72,4.21,2.49,14.22,0,26.6,0,40s2.39,25.22,6.45,35.11c8.16,2.94,17.45,4.69,27.32,4.87,.58,.01,1.15,.02,1.73,.02,9.63,0,18.73-1.51,26.78-4.2,4.24-10.01,6.74-22.39,6.74-35.8s-2.4-25.24-6.46-35.12C54.4,1.94,45.12,.2,35.25,.02c-.57,0-1.15-.02-1.72-.02h0Z"/>
<path class="cls-13" d="M33.53,6c.52,0,1.04,0,1.61,.02,7.87,.14,15.75,1.4,22.84,3.64,3.3,9,5.04,19.47,5.04,30.34s-1.82,21.82-5.26,30.92c-6.98,2.04-14.47,3.08-22.26,3.08-.48,0-.97,0-1.47-.02h-.15c-7.89-.14-15.78-1.41-22.85-3.65-3.29-8.99-5.03-19.46-5.03-30.33s1.81-21.79,5.24-30.91c6.5-1.89,13.7-2.95,20.86-3.08,.47,0,.96,0,1.43,0m0-1c-.48,0-.97,0-1.45,.01-7.47,.13-14.87,1.25-21.6,3.26-3.59,9.35-5.48,20.26-5.48,31.73s1.81,21.91,5.26,31.13c7.31,2.38,15.42,3.7,23.6,3.85h.17c.49,.01,.98,.02,1.47,.02,8.08,0,15.82-1.1,23.02-3.26,3.61-9.35,5.5-20.27,5.5-31.74s-1.81-21.9-5.27-31.14c-7.32-2.37-15.43-3.69-23.59-3.84-.55,0-1.09-.02-1.63-.02h0Z"/>
<path d="M33.53,5c.54,0,1.08,.01,1.63,.02,8.16,.15,16.27,1.47,23.59,3.84,3.46,9.24,5.27,19.95,5.27,31.14s-1.89,22.39-5.5,31.74c-7.2,2.16-14.94,3.26-23.02,3.26-.49,0-.98-.01-1.47-.02h-.17c-8.18-.15-16.29-1.47-23.6-3.85-3.45-9.22-5.26-19.93-5.26-31.13s1.89-22.38,5.48-31.73c6.73-2.01,14.13-3.13,21.6-3.26,.48-.01,.97-.01,1.45-.01m0-1c-.49,0-.98,0-1.47,.01-7.51,.13-15.07,1.27-21.87,3.3l-.47,.14-.18,.46c-3.63,9.45-5.55,20.55-5.55,32.09s1.84,22.17,5.32,31.48l.17,.45,.46,.15c7.37,2.4,15.63,3.75,23.89,3.9h.19c.48,.01,.97,.02,1.47,.02,8.16,0,16-1.11,23.31-3.3l.47-.14,.18-.46c3.64-9.43,5.57-20.53,5.57-32.1s-1.84-22.17-5.33-31.49l-.17-.45-.46-.15c-7.39-2.39-15.65-3.74-23.88-3.89-.58-.01-1.12-.02-1.65-.02h0Z"/>
<path class="cls-9" d="M8.14,7.1s-12.66,32.94,0,66.06"/>
<path class="cls-9" d="M60.88,7.58s12.66,32.94,0,66.06"/>
</g>
</svg>
