<svg id="Capa_2" xmlns="http://www.w3.org/2000/svg" xmlns:xlink="http://www.w3.org/1999/xlink" viewBox="0 0 69.02 80">


<defs >


<style >


.cls-1{fill:#c89aed;}.cls-2{fill:#fff;}.cls-3{fill:#f8ffbf;}.cls-4{fill:#7b7be8;}.cls-5{fill:#a88347;}.cls-6{fill:#782ab5;}.cls-7{stroke-miterlimit:10;}.cls-7,.cls-8{stroke:#000;}.cls-7,.cls-8,.cls-9,.cls-10,.cls-11{fill:none;}.cls-12{fill:#1c46ff;}.cls-8,.cls-9{stroke-linecap:round;stroke-linejoin:round;}.cls-9{stroke:#deb778;stroke-dasharray:0 0 0 4.06;}.cls-13{fill:#deb778;}.cls-14{fill:url(#USGS_19_Inundación_de_tierra_2);}.cls-11{stroke:#1d1d1b;stroke-dasharray:0 0 2 2;stroke-width:.3px;}.cls-15{fill:#fcf0c5;}
</style>


<pattern id="USGS_19_Inundación_de_tierra_2" x="0" y="0" width="72" height="72" patternTransform="translate(339.52 -16279) rotate(-90)" patternUnits="userSpaceOnUse" viewBox="0 0 72 72">


<g >


<rect class="cls-10" width="72" height="72">
</rect>


<g >


<line class="cls-11" x1="71" y1="71" x2="144.44" y2="71">
</line>


<line class="cls-11" x1="71" y1="67" x2="144.44" y2="67">
</line>


<line class="cls-11" x1="71" y1="63" x2="144.44" y2="63">
</line>


<line class="cls-11" x1="71" y1="59" x2="144.44" y2="59">
</line>


<line class="cls-11" x1="71" y1="55" x2="144.44" y2="55">
</line>


<line class="cls-11" x1="71" y1="51" x2="144.44" y2="51">
</line>


<line class="cls-11" x1="71" y1="47" x2="144.44" y2="47">
</line>


<line class="cls-11" x1="71" y1="43" x2="144.44" y2="43">
</line>


<line class="cls-11" x1="71" y1="39" x2="144.44" y2="39">
</line>


<line class="cls-11" x1="71" y1="35" x2="144.44" y2="35">
</line>


<line class="cls-11" x1="71" y1="31" x2="144.44" y2="31">
</line>


<line class="cls-11" x1="71" y1="27" x2="144.44" y2="27">
</line>


<line class="cls-11" x1="71" y1="23" x2="144.44" y2="23">
</line>


<line class="cls-11" x1="71" y1="19" x2="144.44" y2="19">
</line>


<line class="cls-11" x1="71" y1="15" x2="144.44" y2="15">
</line>


<line class="cls-11" x1="71" y1="11" x2="144.44" y2="11">
</line>


<line class="cls-11" x1="71" y1="7" x2="144.44" y2="7">
</line>


<line class="cls-11" x1="71" y1="3" x2="144.44" y2="3">
</line>


</g>


<g >


<line class="cls-11" x1="-1" y1="71" x2="72.44" y2="71">
</line>


<line class="cls-11" x1="-1" y1="67" x2="72.44" y2="67">
</line>


<line class="cls-11" x1="-1" y1="63" x2="72.44" y2="63">
</line>


<line class="cls-11" x1="-1" y1="59" x2="72.44" y2="59">
</line>


<line class="cls-11" x1="-1" y1="55" x2="72.44" y2="55">
</line>


<line class="cls-11" x1="-1" y1="51" x2="72.44" y2="51">
</line>


<line class="cls-11" x1="-1" y1="47" x2="72.44" y2="47">
</line>


<line class="cls-11" x1="-1" y1="43" x2="72.44" y2="43">
</line>


<line class="cls-11" x1="-1" y1="39" x2="72.44" y2="39">
</line>


<line class="cls-11" x1="-1" y1="35" x2="72.44" y2="35">
</line>


<line class="cls-11" x1="-1" y1="31" x2="72.44" y2="31">
</line>


<line class="cls-11" x1="-1" y1="27" x2="72.44" y2="27">
</line>


<line class="cls-11" x1="-1" y1="23" x2="72.44" y2="23">
</line>


<line class="cls-11" x1="-1" y1="19" x2="72.44" y2="19">
</line>


<line class="cls-11" x1="-1" y1="15" x2="72.44" y2="15">
</line>


<line class="cls-11" x1="-1" y1="11" x2="72.44" y2="11">
</line>


<line class="cls-11" x1="-1" y1="7" x2="72.44" y2="7">
</line>


<line class="cls-11" x1="-1" y1="3" x2="72.44" y2="3">
</line>


<line class="cls-11" x1="1.04" y1="69" x2="74.48" y2="69">
</line>


<line class="cls-11" x1="1.04" y1="65" x2="74.48" y2="65">
</line>


<line class="cls-11" x1="1.04" y1="61" x2="74.48" y2="61">
</line>


<line class="cls-11" x1="1.04" y1="57" x2="74.48" y2="57">
</line>


<line class="cls-11" x1="1.04" y1="53" x2="74.48" y2="53">
</line>


<line class="cls-11" x1="1.04" y1="49" x2="74.48" y2="49">
</line>


<line class="cls-11" x1="1.04" y1="45" x2="74.48" y2="45">
</line>


<line class="cls-11" x1="1.04" y1="41" x2="74.48" y2="41">
</line>


<line class="cls-11" x1="1.04" y1="37" x2="74.48" y2="37">
</line>


<line class="cls-11" x1="1.04" y1="33" x2="74.48" y2="33">
</line>


<line class="cls-11" x1="1.04" y1="29" x2="74.48" y2="29">
</line>


<line class="cls-11" x1="1.04" y1="25" x2="74.48" y2="25">
</line>


<line class="cls-11" x1="1.04" y1="21" x2="74.48" y2="21">
</line>


<line class="cls-11" x1="1.04" y1="17" x2="74.48" y2="17">
</line>


<line class="cls-11" x1="1.04" y1="13" x2="74.48" y2="13">
</line>


<line class="cls-11" x1="1.04" y1="9" x2="74.48" y2="9">
</line>


<line class="cls-11" x1="1.04" y1="5" x2="74.48" y2="5">
</line>


<line class="cls-11" x1="1.04" y1="1" x2="74.48" y2="1">
</line>


</g>


<g >


<line class="cls-11" x1="-73" y1="71" x2=".44" y2="71">
</line>


<line class="cls-11" x1="-73" y1="67" x2=".44" y2="67">
</line>


<line class="cls-11" x1="-73" y1="63" x2=".44" y2="63">
</line>


<line class="cls-11" x1="-73" y1="59" x2=".44" y2="59">
</line>


<line class="cls-11" x1="-73" y1="55" x2=".44" y2="55">
</line>


<line class="cls-11" x1="-73" y1="51" x2=".44" y2="51">
</line>


<line class="cls-11" x1="-73" y1="47" x2=".44" y2="47">
</line>


<line class="cls-11" x1="-73" y1="43" x2=".44" y2="43">
</line>


<line class="cls-11" x1="-73" y1="39" x2=".44" y2="39">
</line>


<line class="cls-11" x1="-73" y1="35" x2=".44" y2="35">
</line>


<line class="cls-11" x1="-73" y1="31" x2=".44" y2="31">
</line>


<line class="cls-11" x1="-73" y1="27" x2=".44" y2="27">
</line>


<line class="cls-11" x1="-73" y1="23" x2=".44" y2="23">
</line>


<line class="cls-11" x1="-73" y1="19" x2=".44" y2="19">
</line>


<line class="cls-11" x1="-73" y1="15" x2=".44" y2="15">
</line>


<line class="cls-11" x1="-73" y1="11" x2=".44" y2="11">
</line>


<line class="cls-11" x1="-73" y1="7" x2=".44" y2="7">
</line>


<line class="cls-11" x1="-73" y1="3" x2=".44" y2="3">
</line>


<line class="cls-11" x1="-70.96" y1="69" x2="2.48" y2="69">
</line>


<line class="cls-11" x1="-70.96" y1="65" x2="2.48" y2="65">
</line>


<line class="cls-11" x1="-70.96" y1="61" x2="2.48" y2="61">
</line>


<line class="cls-11" x1="-70.96" y1="57" x2="2.48" y2="57">
</line>


<line class="cls-11" x1="-70.96" y1="53" x2="2.48" y2="53">
</line>


<line class="cls-11" x1="-70.96" y1="49" x2="2.48" y2="49">
</line>


<line class="cls-11" x1="-70.96" y1="45" x2="2.48" y2="45">
</line>


<line class="cls-11" x1="-70.96" y1="41" x2="2.48" y2="41">
</line>


<line class="cls-11" x1="-70.96" y1="37" x2="2.48" y2="37">
</line>


<line class="cls-11" x1="-70.96" y1="33" x2="2.48" y2="33">
</line>


<line class="cls-11" x1="-70.96" y1="29" x2="2.48" y2="29">
</line>


<line class="cls-11" x1="-70.96" y1="25" x2="2.48" y2="25">
</line>


<line class="cls-11" x1="-70.96" y1="21" x2="2.48" y2="21">
</line>


<line class="cls-11" x1="-70.96" y1="17" x2="2.48" y2="17">
</line>


<line class="cls-11" x1="-70.96" y1="13" x2="2.48" y2="13">
</line>


<line class="cls-11" x1="-70.96" y1="9" x2="2.48" y2="9">
</line>


<line class="cls-11" x1="-70.96" y1="5" x2="2.48" y2="5">
</line>


<line class="cls-11" x1="-70.96" y1="1" x2="2.48" y2="1">
</line>


</g>


</g>


</pattern>


</defs>

  <path
     id="path7641-4"
     style="fill:#782ab5;fill-opacity:1;stroke:#4d4d4d;stroke-width:1.62226;stop-color:#000000"
     d="M 34.900259,1.6936052 C 14.323312,9.5265586 1.6299002,23.954051 1.5689773,39.580572 V 79.197446 H 67.963672 V 39.580572 C 67.958188,23.990066 55.374427,9.5708664 34.900259,1.6936052 Z"/>
  <path
     id="path7641-7"
     style="fill:#808080;stroke:#4d4d4d;stroke-width:1.48325;stop-color:#000000"
     d="M 34.629293,5.0425238 C 15.815619,12.204258 4.1542243,25.395327 4.1542243,39.682894 V 76.559207 H 64.859448 V 39.682894 c 0,-14.254531 -11.510452,-27.438125 -30.230155,-34.6403702 z m -0.01233,3.4358455 C 51.537073,14.988239 61.941622,26.904418 61.941622,39.788613 v 33.82806 H 7.07205 v -33.82806 c 0,-12.914055 10.539857,-24.836991 27.544909,-31.3102437 z"/>
  <path
     id="path7641-7-8"
     style="fill:#808080;stroke:#4d4d4d;stroke-width:1.35027;stop-color:#000000"
     d="M 34.618314,8.2461803 C 17.491429,14.76581 6.8755673,26.7742 6.8755673,39.780777 v 33.57007 H 62.138105 v -33.57007 c 0,-12.976504 -10.478452,-24.978088 -27.519791,-31.5345967 z m -0.01123,3.1277957 c 15.403093,5.926211 24.874795,16.774013 24.874795,28.503041 V 70.672134 H 9.5317874 V 39.877017 c 0,-11.75621 9.5948786,-22.610165 25.0752986,-28.503041 z"/>
  <path
     id="path7641-7-8-0"
     style="fill:#808080;stroke:#4d4d4d;stroke-width:1.21411;stop-color:#000000"
     d="M 34.607073,11.526302 C 19.207238,17.388502 9.6618637,28.185984 9.6618637,39.880997 V 70.06591 H 59.351809 V 39.880997 c 0,-11.667973 -9.421821,-22.459335 -24.744736,-28.354695 z m -0.0101,2.812393 c 13.849868,5.328621 22.366458,15.082547 22.366458,25.628837 V 67.657315 H 12.050234 V 39.967532 c 0,-10.570731 8.627346,-20.33019 22.546743,-25.628837 z"/>






<g id="Capa_10">


<g >


<path class="cls-4" d="M61.7,67.59l-2.24,6.16-26.11,3.47-24.2-5.15-1.12-5.38s.02-.08,.05-.25c.66-3.29,7.76-38.49,9.37-42.66,1.68-4.37,6.38-14,17.25-9.52,6.27-3.25,12.43,0,15.57,4.48,2.91,4.15,10.23,42.5,11.3,48.15,.08,.46,.13,.7,.13,.7Z">
</path>


<path class="cls-1" d="M34.77,56.15V31.64s9.06,0,11.72,1.47c.8,5.86,3.05,7.12,.8,11.86s-6.79,11.59-12.52,11.19Z">
</path>


<path class="cls-4" d="M37.4,34.47l.51,4.52s1.47-2.02,3.41-2.3,4.52,.87,4.52,.87l1.39-3.6s-4.2-2.85-9.82,.51Z">
</path>


<path d="M61.57,66.89l-.9,.56-16.29-6.93-.19-7.61s3.21-3.31,5.26-8.19c1.37-3.71,.29-7.41-1.27-12.97-9.26-3.22-27.5-.59-27.5-.59,0,3.71-2.73,6.93-1.76,10.93,.98,4,5.66,11.21,5.66,11.21l.2,7.42-15.61,6.33-1.09-.61c.66-3.29,7.76-38.49,9.37-42.66,1.68-4.37,6.38-14,17.25-9.52,6.27-3.25,12.43,0,15.57,4.48,2.91,4.15,10.23,42.5,11.3,48.15Z">
</path>


<path class="cls-5" d="M20.11,62.65s1.88,8.95,11.9,9.45c-3.54,2.81-2.74,3.32-2.74,3.32l11.25-.43-3.68-3.03s10.46-1.59,12.19-9.38c-3.75-1.52-4.66-2.06-4.66-2.06,0,0-1.18,7.18-10.06,7.33-7.21,.14-9.31-5.34-9.96-7.07-3.17,1.15-4.26,1.88-4.26,1.88Z">
</path>


<path class="cls-3" d="M30.73,38.96s-1.22-3.44-6.62-1.7c.11,1.59,1.64,1.96,2.97,2.38s3.39-.05,3.66-.69Z">
</path>


<path class="cls-3" d="M37.9,38.98s1.16-1.91,3.6-2.2,4.06,.93,4.06,.93c0,0-.61,1.37-2.61,1.86-3.13,.75-5.05-.58-5.05-.58Z">
</path>


<path class="cls-2" d="M30.71,50.47s1.67-1.05,3.82-1.32,3.43,1.19,3.43,1.19c0,0-.92,2.33-3.47,2.37s-3.78-2.24-3.78-2.24Z">
</path>


<path class="cls-1" d="M22.52,39.93s3.88,2.32,7.62,1.2c-3.51,4.33-6.57,3.21-7.62-1.2Z">
</path>


<path class="cls-13" d="M38.47,67.48s3.13,1.23,1.9,3.7c5.12-2.75,6.74-4.65,6.74-4.65,0,0-3.51-.19-3.89-2.94-2.18,2.94-4.74,3.89-4.74,3.89Z">
</path>


<path d="M43.97,53.85l-18.41,20.38-15.41-2.9-.98-4.28,15.61-6.33,.16-7.08s3.21,3.83,7.45,4.45,8.28-1.03,11.59-4.24Z">
</path>


<polygon class="cls-4" points="25.65 55.79 26.15 61.81 26.18 62.13 25.84 62.27 10.23 68.61 9.86 67.68 25.46 61.34 25.15 61.81 25.65 55.79 25.65 55.79">
</polygon>


<path class="cls-1" d="M42.59,57.07l-7.87,8.63s9.01-1.42,7.87-8.63Z">
</path>


<path class="cls-1" d="M49.99,65.32s-1.8,5.6-8.44,6.93c6.93-.19,15.08-2.09,15.08-2.09l1.23-2.66-7.87-2.18Z">
</path>


<path class="cls-12" d="M52.78,26.95s-8.77-5.45-15.22-2.6-12.71-2.75-18.31-.09c.09-4.08,3.42-6.64,3.42-6.64,0,0,7.65,7.26,13.72,3.28s11.56,.2,13.65-1.7c3.45,4.52,2.74,7.76,2.74,7.76Z">
</path>


<polygon class="cls-12" points="20.35 31.16 15.03 63.15 13.12 64.33 20.35 31.16">
</polygon>


<polygon class="cls-12" points="50.42 31.62 56.19 64.97 58.37 65.62 50.42 31.62">
</polygon>


<path class="cls-2" d="M40.73,41.51c1.1-.01,2.74-.13,4.3-.65,.79-.26,1.6,.39,1.47,1.21-.23,1.34-1.54,3.09-3.56,4.44-.63,.42-1.5,.13-1.71-.61-.3-1.1-1.05-1.89-1.49-2.78-.37-.74,.18-1.6,1-1.61Z">
</path>


<circle cx="29.31" cy="46.78" r=".31">
</circle>


<path class="cls-8" d="M61.59,67.36s-3.71-18.95-6.62-32.89-5.11-18.45-11.43-20.86c-3.98-1.51-7-.24-8.69,.91-1.69-1.15-4.71-2.42-8.7-.91-6.31,2.41-8.52,6.92-11.43,20.86-2.9,13.94-6.61,32.89-6.61,32.89">
</path>


<path class="cls-8" d="M48.52,29.49s-.85,2.22,.69,6.24c1.53,4.02,1.02,8.72-2.57,13.76-2.77,3.89-5.47,8.55-12.22,8.55s-9.46-4.66-12.23-8.55c-3.59-5.04-4.1-9.74-2.57-13.76,1.54-4.02,.69-6.24,.69-6.24">
</path>


<path class="cls-8" d="M20.88,31.39s16.98-3.23,27.15,.27">
</path>


<polyline class="cls-8" points="24.67 53.06 24.67 60.51 7.45 67.55">
</polyline>


<polyline class="cls-8" points="44.41 52.7 44.41 60.51 61.63 67.55">
</polyline>


<path class="cls-8" d="M24.67,60.51s.51,7.42,9.45,7.42,10.29-7.42,10.29-7.42">
</path>


<path class="cls-8" d="M20.22,62.88s.74,9.3,13.71,9.3,14.93-9.3,14.93-9.3">
</path>


<ellipse class="cls-8" cx="34.54" cy="75.2" rx="5.24" ry="2.8">
</ellipse>


<path d="M21.52,33.95c1.1-1.5,3.16-2.01,4.91-1.52,1.7,.34,3.3,.89,4.87,1.58,.25,.11,.37,.41,.26,.66-.1,.23-.35,.35-.59,.28-2.17-.52-4.28-1.43-6.48-1.62-1.01,.06-1.91,.33-2.97,.62h0Z">
</path>


<path d="M30.87,39.19c-1.71-2.55-5.08-2.4-7.61-1.31,0,0,.23-.7,.23-.7,1.11,1.89,3.47,2.42,5.58,2.58-2.26,.54-5.11,.1-6.42-2.09-.15-.25-.03-.59,.24-.69,2.76-1.3,6.86-1.12,7.98,2.21h0Z">
</path>


<path d="M24.98,39.04s-1.2-1.17-.06-2.03c-1.29,.09-1.69,.46-1.69,.46,0,0,.28,1.05,1.75,1.57Z">
</path>


<path d="M31.39,42.8c-.43,.9-.76,1.18-.49,2.21-1.22-.42-.63-2.16,.49-2.21h0Z">
</path>


<path d="M33.36,45.27c-.57-.39-1.11-.41-1.75-.45-.28-.02-.32-.43-.06-.51,.72-.26,1.6,.26,1.81,.96h0Z">
</path>


<path d="M47.24,33.95c-1.06-.29-1.96-.56-2.97-.62-2.2,.19-4.31,1.1-6.48,1.62-.27,.07-.54-.09-.61-.35-.07-.24,.06-.49,.28-.59,1.56-.69,3.17-1.23,4.87-1.58,1.75-.49,3.81,.02,4.91,1.52h0Z">
</path>


<path d="M37.89,39.19c1.12-3.34,5.22-3.51,7.98-2.21,.25,.09,.37,.36,.28,.61-1.26,2.25-4.19,2.72-6.46,2.17,2.1-.16,4.47-.68,5.58-2.58,0,0,.23,.7,.23,.7-2.53-1.09-5.9-1.24-7.61,1.31h0Z">
</path>


<path d="M43.78,39.04s1.2-1.17,.06-2.03c1.29,.09,1.69,.46,1.69,.46,0,0-.28,1.05-1.75,1.57Z">
</path>


<path d="M37.36,42.8c1.12,.04,1.71,1.79,.49,2.21,.27-1.03-.06-1.3-.49-2.21h0Z">
</path>


<path d="M35.4,45.27c.21-.7,1.09-1.22,1.81-.96,.26,.09,.21,.49-.06,.51-.64,.04-1.18,.06-1.75,.45h0Z">
</path>


<path d="M37.98,48.24c-1.36-1.27-3.35-.86-3.35-.86,0,0-2.02-.41-3.38,.86s-1.98,2.04-2.6,2.15c1.36,.05,1.16,4.21,5.63,4.12,4.48-.09,4.75-2.52,5.16-3.23,.4-.71,1.13-.88,1.13-.88-.62-.12-1.24-.89-2.6-2.15Zm-3.72,3.78c-1.3,0-2.52-1.19-2.96-1.66,.54-.12,1.05-.27,1.6-.38,1.36-.27,1.72,0,1.72,0,0,0,.34-.27,1.7,0,.39,.08,.77,.18,1.15,.27-.56,.96-1.76,1.77-3.22,1.77Z">
</path>


</g>


</g>




  <g
     id="g20645">
    <path
       style="fill:#808080;stroke:#4d4d4d;stroke-width:0.937908;stop-color:#000000;fill-opacity:1"
       d="m 9.541565,65.883425 a 5.4759801,5.4759801 0 0 1 5.47598,5.475981 5.4759801,5.4759801 0 0 1 -5.47598,5.47598 5.4759801,5.4759801 0 0 1 -5.4759806,-5.47598 5.4759801,5.4759801 0 0 1 5.4759806,-5.475981 z"/>
    <path
       style="fill:#808080;stroke:#4d4d4d;stroke-width:0.937908;stop-color:#000000;fill-opacity:1"
       d="m 59.472108,65.883425 a 5.4759801,5.4759801 0 0 1 5.47598,5.475981 5.4759801,5.4759801 0 0 1 -5.47598,5.47598 5.4759801,5.4759801 0 0 1 -5.475981,-5.47598 5.4759801,5.4759801 0 0 1 5.475981,-5.475981 z"/>
    <path
       id="path7641"
       style="fill:#808080;stroke:#4d4d4d;stroke-width:1.64416;stop-color:#000000"
       d="M 34.642578,1.1660156 C 13.787845,9.1047124 0.86132813,23.726855 0.86132812,39.564453 V 79.340489 H 68.152344 V 39.564453 c 0,-15.800978 -12.759199,-30.4148342 -33.509766,-38.3984374 z m -0.01367,3.8085938 C 53.384648,12.190722 64.917969,25.399665 64.917969,39.681641 v 26.507812 c -1.368656,-1.44106 -3.300993,-2.341797 -5.445313,-2.341797 -4.14856,0 -7.511718,3.363159 -7.511718,7.511719 0,2.347008 1.075662,4.442843 2.761718,5.820313 H 14.269531 c 1.756069,-1.422629 2.778281,-3.560307 2.783203,-5.820313 4.8e-5,-4.148627 -3.363091,-7.511766 -7.5117184,-7.511719 -2.0622939,0.0062 -4.0313164,0.860092 -5.4453125,2.361328 V 39.681641 c 0,-14.315076 11.6833059,-27.531508 30.5332029,-34.7070316 z"/>
    <circle
       style="fill:#4d4d4d;fill-opacity:1;stroke:#4d4d4d;stop-color:#000000"
       id="path16431"
       cx="9.6010828"
       cy="71.229652"
       r="5.06003" />
    <circle
       style="fill:#4d4d4d;fill-opacity:1;stroke:#4d4d4d;stop-color:#000000"
       id="path16431-3"
       cx="59.42292"
       cy="71.229652"
       r="5.06003" />
  </g>
</svg>
