<?xml version="1.0" encoding="UTF-8"?><svg id="Capa_2" xmlns="http://www.w3.org/2000/svg" xmlns:xlink="http://www.w3.org/1999/xlink" viewBox="0 0 69.02 80"><defs><style>.cls-1{fill:#c89aed;}.cls-2{fill:#fff;}.cls-3{fill:#f8ffbf;}.cls-4{fill:#7b7be8;}.cls-5{fill:#a88347;}.cls-6{fill:#782ab5;}.cls-7{stroke-miterlimit:10;}.cls-7,.cls-8{stroke:#000;}.cls-7,.cls-8,.cls-9,.cls-10,.cls-11{fill:none;}.cls-12{fill:#1c46ff;}.cls-8,.cls-9{stroke-linecap:round;stroke-linejoin:round;}.cls-9{stroke:#deb778;stroke-dasharray:0 0 0 4.06;}.cls-13{fill:#deb778;}.cls-14{fill:url(#USGS_19_Inundación_de_tierra_2);}.cls-11{stroke:#1d1d1b;stroke-dasharray:0 0 2 2;stroke-width:.3px;}.cls-15{fill:#fcf0c5;}.cls-16{fill:#b83521;}</style><pattern id="USGS_19_Inundación_de_tierra_2" x="0" y="0" width="72" height="72" patternTransform="translate(267.52 -16279) rotate(-90)" patternUnits="userSpaceOnUse" viewBox="0 0 72 72"><g><rect class="cls-10" width="72" height="72"/><g><line class="cls-11" x1="71" y1="71" x2="144.44" y2="71"/><line class="cls-11" x1="71" y1="67" x2="144.44" y2="67"/><line class="cls-11" x1="71" y1="63" x2="144.44" y2="63"/><line class="cls-11" x1="71" y1="59" x2="144.44" y2="59"/><line class="cls-11" x1="71" y1="55" x2="144.44" y2="55"/><line class="cls-11" x1="71" y1="51" x2="144.44" y2="51"/><line class="cls-11" x1="71" y1="47" x2="144.44" y2="47"/><line class="cls-11" x1="71" y1="43" x2="144.44" y2="43"/><line class="cls-11" x1="71" y1="39" x2="144.44" y2="39"/><line class="cls-11" x1="71" y1="35" x2="144.44" y2="35"/><line class="cls-11" x1="71" y1="31" x2="144.44" y2="31"/><line class="cls-11" x1="71" y1="27" x2="144.44" y2="27"/><line class="cls-11" x1="71" y1="23" x2="144.44" y2="23"/><line class="cls-11" x1="71" y1="19" x2="144.44" y2="19"/><line class="cls-11" x1="71" y1="15" x2="144.44" y2="15"/><line class="cls-11" x1="71" y1="11" x2="144.44" y2="11"/><line class="cls-11" x1="71" y1="7" x2="144.44" y2="7"/><line class="cls-11" x1="71" y1="3" x2="144.44" y2="3"/></g><g><line class="cls-11" x1="-1" y1="71" x2="72.44" y2="71"/><line class="cls-11" x1="-1" y1="67" x2="72.44" y2="67"/><line class="cls-11" x1="-1" y1="63" x2="72.44" y2="63"/><line class="cls-11" x1="-1" y1="59" x2="72.44" y2="59"/><line class="cls-11" x1="-1" y1="55" x2="72.44" y2="55"/><line class="cls-11" x1="-1" y1="51" x2="72.44" y2="51"/><line class="cls-11" x1="-1" y1="47" x2="72.44" y2="47"/><line class="cls-11" x1="-1" y1="43" x2="72.44" y2="43"/><line class="cls-11" x1="-1" y1="39" x2="72.44" y2="39"/><line class="cls-11" x1="-1" y1="35" x2="72.44" y2="35"/><line class="cls-11" x1="-1" y1="31" x2="72.44" y2="31"/><line class="cls-11" x1="-1" y1="27" x2="72.44" y2="27"/><line class="cls-11" x1="-1" y1="23" x2="72.44" y2="23"/><line class="cls-11" x1="-1" y1="19" x2="72.44" y2="19"/><line class="cls-11" x1="-1" y1="15" x2="72.44" y2="15"/><line class="cls-11" x1="-1" y1="11" x2="72.44" y2="11"/><line class="cls-11" x1="-1" y1="7" x2="72.44" y2="7"/><line class="cls-11" x1="-1" y1="3" x2="72.44" y2="3"/><line class="cls-11" x1="1.04" y1="69" x2="74.48" y2="69"/><line class="cls-11" x1="1.04" y1="65" x2="74.48" y2="65"/><line class="cls-11" x1="1.04" y1="61" x2="74.48" y2="61"/><line class="cls-11" x1="1.04" y1="57" x2="74.48" y2="57"/><line class="cls-11" x1="1.04" y1="53" x2="74.48" y2="53"/><line class="cls-11" x1="1.04" y1="49" x2="74.48" y2="49"/><line class="cls-11" x1="1.04" y1="45" x2="74.48" y2="45"/><line class="cls-11" x1="1.04" y1="41" x2="74.48" y2="41"/><line class="cls-11" x1="1.04" y1="37" x2="74.48" y2="37"/><line class="cls-11" x1="1.04" y1="33" x2="74.48" y2="33"/><line class="cls-11" x1="1.04" y1="29" x2="74.48" y2="29"/><line class="cls-11" x1="1.04" y1="25" x2="74.48" y2="25"/><line class="cls-11" x1="1.04" y1="21" x2="74.48" y2="21"/><line class="cls-11" x1="1.04" y1="17" x2="74.48" y2="17"/><line class="cls-11" x1="1.04" y1="13" x2="74.48" y2="13"/><line class="cls-11" x1="1.04" y1="9" x2="74.48" y2="9"/><line class="cls-11" x1="1.04" y1="5" x2="74.48" y2="5"/><line class="cls-11" x1="1.04" y1="1" x2="74.48" y2="1"/></g><g><line class="cls-11" x1="-73" y1="71" x2=".44" y2="71"/><line class="cls-11" x1="-73" y1="67" x2=".44" y2="67"/><line class="cls-11" x1="-73" y1="63" x2=".44" y2="63"/><line class="cls-11" x1="-73" y1="59" x2=".44" y2="59"/><line class="cls-11" x1="-73" y1="55" x2=".44" y2="55"/><line class="cls-11" x1="-73" y1="51" x2=".44" y2="51"/><line class="cls-11" x1="-73" y1="47" x2=".44" y2="47"/><line class="cls-11" x1="-73" y1="43" x2=".44" y2="43"/><line class="cls-11" x1="-73" y1="39" x2=".44" y2="39"/><line class="cls-11" x1="-73" y1="35" x2=".44" y2="35"/><line class="cls-11" x1="-73" y1="31" x2=".44" y2="31"/><line class="cls-11" x1="-73" y1="27" x2=".44" y2="27"/><line class="cls-11" x1="-73" y1="23" x2=".44" y2="23"/><line class="cls-11" x1="-73" y1="19" x2=".44" y2="19"/><line class="cls-11" x1="-73" y1="15" x2=".44" y2="15"/><line class="cls-11" x1="-73" y1="11" x2=".44" y2="11"/><line class="cls-11" x1="-73" y1="7" x2=".44" y2="7"/><line class="cls-11" x1="-73" y1="3" x2=".44" y2="3"/><line class="cls-11" x1="-70.96" y1="69" x2="2.48" y2="69"/><line class="cls-11" x1="-70.96" y1="65" x2="2.48" y2="65"/><line class="cls-11" x1="-70.96" y1="61" x2="2.48" y2="61"/><line class="cls-11" x1="-70.96" y1="57" x2="2.48" y2="57"/><line class="cls-11" x1="-70.96" y1="53" x2="2.48" y2="53"/><line class="cls-11" x1="-70.96" y1="49" x2="2.48" y2="49"/><line class="cls-11" x1="-70.96" y1="45" x2="2.48" y2="45"/><line class="cls-11" x1="-70.96" y1="41" x2="2.48" y2="41"/><line class="cls-11" x1="-70.96" y1="37" x2="2.48" y2="37"/><line class="cls-11" x1="-70.96" y1="33" x2="2.48" y2="33"/><line class="cls-11" x1="-70.96" y1="29" x2="2.48" y2="29"/><line class="cls-11" x1="-70.96" y1="25" x2="2.48" y2="25"/><line class="cls-11" x1="-70.96" y1="21" x2="2.48" y2="21"/><line class="cls-11" x1="-70.96" y1="17" x2="2.48" y2="17"/><line class="cls-11" x1="-70.96" y1="13" x2="2.48" y2="13"/><line class="cls-11" x1="-70.96" y1="9" x2="2.48" y2="9"/><line class="cls-11" x1="-70.96" y1="5" x2="2.48" y2="5"/><line class="cls-11" x1="-70.96" y1="1" x2="2.48" y2="1"/></g></g></pattern></defs><g id="BG"><g><path class="cls-6" d="M64.02,40c0,11.47-1.89,22.39-5.5,31.74-7.2,2.16-14.94,3.26-23.02,3.26-.49,0-.98-.01-1.47-.02h-.17c-8.18-.15-16.29-1.47-23.6-3.85-3.45-9.22-5.26-19.93-5.26-31.13s1.89-22.38,5.48-31.73c6.73-2.01,14.13-3.13,21.6-3.26,.48-.01,.97-.01,1.45-.01,.54,0,1.08,.01,1.63,.02,8.16,.15,16.27,1.47,23.59,3.84,3.46,9.24,5.27,19.95,5.27,31.14Z"/><path class="cls-14" d="M34.03,5.59V74.98h-.17c-8.18-.15-16.29-1.47-23.6-3.85-3.45-9.22-5.26-19.93-5.26-31.13s1.89-22.38,5.48-31.73c6.73-2.01,14.13-3.13,21.6-3.26,.65,.16,1.3,.36,1.95,.58Z"/></g></g><g id="Capa_10"><g><path class="cls-1" d="M61.61,67.16c-1.39,5.41-1.49,7.09-1.49,7.09l-29.46,2.98-23.59-3.82,.93-6.9s15.39-5.97,16.6-6.25c.28-6.43,.37-8.29,.37-8.29l-1.3-.66s-1.96,2.05-4.01,1.03c-2.05-1.03-2.33-3.64-1.03-4.66,1.31-1.03,3.36-1.12,3.36-1.12l-1.21-3.73s-4.29,.93-6.25-10.54c0,0-2.7-2.42-3.36-5.41,2.99,1.31,3.45,.84,3.45,.84,0,0-4.1-4.28-3.91-8.57,4.29,2.05,7.55,.18,7.55,.18,0,0-3.64-.65-4.38-2.51,3.45-.1,6.34-2.06,7.18-2.52,.84-.47,5.78-2.05,9.32-1.68,5.78-2.8,11.1-1.03,14.82-.37,3.73,.65,8.58,.46,9.42,.37-.28,2.33-2.14,3.08-2.14,3.08,0,0,2.42,2.05,3.82,4.19,1.4,2.15,2.8,6.25,2.8,6.25,0,0-4.48-.56-6.16-2.8,1.22,3.82-1.77,6.34-1.77,6.34l-.65,3.27s2.42-2.99,3.73-2.52c1.3,.46,.46,4.19-.09,5.78-.56,1.58-2.62,6.06-5.32,7.08-1.12,3.17-1.02,3.92-1.02,3.92,0,0,2.98-1.12,3.72,2.24,.75,3.35-3.35,3.82-5.78,1.3l-.57,1.43,.11,8.18s13.98,4.29,16.31,6.8Z"/><path class="cls-2" d="M34.81,53.51V24.91l7.55-3.35,4.91,2.8,3.11-2.73s1.17,7.4,.55,10.28c-.62,4.59-1.48,9.03-2.49,11.91s-3.11,7.71-3.11,7.71l-7.11,5.3h0c-1.87,.04-3.4-1.46-3.4-3.33Z"/><path d="M52.94,23.34c1.22,3.82-1.77,6.34-1.77,6.34,0,0,.41-4.52-1.87-7.47-1.81,5.14-9.71,5.52-9.71,5.52,0,0,2.09-3.14,2.19-5.81-5.05,4.19-11.99,3.81-14.66,5.81-2.76,2-3.9,2.19-3.9,2.19,0,0,2.28-5.43,3.14-6.28-5.33,3.33-8,3.33-8,3.33l.57,6.09s-3.47-5.44-4.4-.77c0,0-2.7-2.42-3.36-5.41,2.99,1.31,3.45,.84,3.45,.84,0,0-4.1-4.28-3.91-8.57,4.29,2.05,7.55,.18,7.55,.18,0,0-3.64-.65-4.38-2.51,3.45-.1,6.34-2.06,7.18-2.52,.84-.47,5.78-2.05,9.32-1.68,5.78-2.8,11.1-1.03,14.82-.37,3.73,.65,8.58,.46,9.42,.37-.28,2.33-2.14,3.08-2.14,3.08,0,0,2.42,2.05,3.82,4.19,1.4,2.15,2.8,6.25,2.8,6.25,0,0-4.48-.56-6.16-2.8Z"/><path class="cls-12" d="M25.02,54.76s3.57,4.9,9.63,4.55,8.47-2.5,10.25-4.19c.36,4.81,.8,5.53,.8,5.53,0,0,13.46,4.01,15.51,5.7-.71,7.22-1.09,7.9-1.09,7.9,0,0-25.56,3.59-26.01,3.59s-24.33-5.26-24.33-5.26l-.98-6.86,16.13-5.7,.09-5.26Z"/><circle class="cls-16" cx="21.09" cy="49.77" r="2.44"/><circle class="cls-16" cx="48.77" cy="49.77" r="2.44"/><polygon class="cls-2" points="31.1 49.42 34.72 47.23 37.14 47.61 38.95 50.25 34.65 50.93 31.1 49.42"/><path class="cls-3" d="M31.62,37.9s.9-1.42-.9-1.87c-3.06-.37-6.42,.37-6.42,.37,0,0,3.06,3.66,7.32,1.49Z"/><path class="cls-3" d="M38.04,37.9s-.9-1.42,.9-1.87c3.06-.37,6.42,.37,6.42,.37,0,0-3.06,3.66-7.32,1.49Z"/><path class="cls-12" d="M48.38,16.29s1.52,4.38-1.28,6.55c.31-4.66-2.79-5.17-8.9-1.66s-13.35-7.14-20.28-3.93c2.07-2.9,10.97-4.34,10.97-4.34,0,0-4.45,3.52,.31,3.1s5.59,4.86,12.41,.31c4.55-2.48,6.76-.03,6.76-.03Z"/><path d="M45.39,52.13l-19.93,23.44-17.05-2.2,.13-6.84s14.29-6.09,16.06-6.28c.48-4.57,.48-7.8,.48-7.8l7.1,4.65,6.2-.26,7.01-4.72Z"/><path class="cls-1" d="M49.33,24.91c.21,.83,.3,1.68,.33,2.09,0,.36-.08,4.42-.6,6.46-.18,.73,.22,1.48,.92,1.76,.17,.07,.36,.1,.54,.1,.56,0,1.07-.31,1.32-.79,.68-1.25,1.19-1.93,1.52-2.3-.1,1.02-.47,2.83-1.27,4.77-.2,.49-.41,.94-.63,1.36,.05-.44,.05-.69,.05-.69h0c.01-.4-.14-.8-.42-1.09-.28-.29-.67-.45-1.07-.45-.03,0-.07,0-.1,0-.8,.08-1.38,.68-1.41,1.46,0,.06-.22,5.68-4.65,8.26-.7,.4-.96,1.31-.57,2.03,0,.02,.02,.04,.03,.05,.28,.45,.76,.72,1.29,.72,.28,0,.55-.08,.76-.21,.05-.03,.1-.06,.15-.09-.27,.76-.52,1.36-.75,1.75-2.82,2.48-6.23,4.66-7.21,5.28h-5.41c-.98-.61-4.39-2.79-7.22-5.27-.22-.4-.47-.99-.74-1.76,.04,.03,.09,.05,.13,.08,.24,.15,.5,.22,.78,.22,.54,0,1.04-.29,1.29-.75,.2-.35,.26-.77,.15-1.16-.11-.39-.36-.71-.69-.88-4.11-2.4-4.61-7.32-4.66-8.28,0,0,0,0,0-.01-.02-.77-.59-1.36-1.41-1.44-.03,0-.07,0-.1,0-.82,0-1.49,.68-1.49,1.51,0,.02,0,.07,0,.09,0,.16,.02,.38,.05,.64-.22-.42-.44-.88-.64-1.36-.8-1.95-1.16-3.76-1.27-4.78,.34,.36,.85,1.04,1.53,2.3,.26,.49,.77,.8,1.32,.8,.19,0,.37-.03,.53-.1,.73-.27,1.12-1.05,.92-1.77-.34-1.36-.49-3.66-.55-5.08,.75-.09,1.52-.31,2.3-.64-.3,.7-.5,1.37-.6,2.01-.09,.57,.16,1.15,.63,1.47,.24,.17,.54,.27,.85,.27,.24,0,.48-.06,.74-.19,1.33-.75,2.33-1.34,3.04-1.77,2.41-1.42,2.91-1.71,5.74-2.41l.88-.21c2.02-.48,3.97-.95,5.7-1.67-.6,1.12-1.12,1.66-1.12,1.66,0,0,0,0,0,0-.48,.45-.61,1.14-.34,1.71,.24,.54,.77,.88,1.38,.88,.02,0,.06,0,.08,0,.02,0,.03,0,.05,0,.3-.03,6.6-.71,9.91-4.55m.22-2.1c-2.46,4.84-10.13,5.65-10.23,5.66,0,0-.02,0-.03,0-.2,0-.39-.1-.47-.29-.09-.19-.05-.42,.11-.57,0-.01,1.48-1.48,2.43-4.63-2.1,1.55-4.95,2.23-7.93,2.94l-.88,.21c-2.98,.73-3.56,1.07-6.02,2.52-.78,.47-1.74,1.04-3.02,1.76-.08,.04-.16,.06-.25,.06-.1,0-.2-.03-.28-.09-.16-.1-.24-.3-.21-.48,.28-1.77,1.38-3.56,2.48-4.98-.61,.38-1.33,.83-2.18,1.35-1.53,.87-2.82,1.15-3.86,1.15-.05,0-.11,0-.16,0,.03,1.18,.15,4.44,.61,6.27,.07,.25-.06,.5-.3,.59-.06,.02-.12,.03-.18,.03-.18,0-.35-.09-.44-.26-1.47-2.71-2.35-3.19-2.75-3.23-.02,0-.05,0-.07,0-.14,0-.33,.06-.57,.35-.2,.4,.08,3.19,1.32,6.21,.98,2.37,2.23,4.04,3.57,4.85-.99-2.36-1.05-4.44-1.06-4.59,0-.28,.22-.51,.49-.51,.3,.03,.51,.21,.51,.49,0,.06,.21,6.22,5.16,9.11,.24,.13,.32,.44,.18,.68-.09,.16-.26,.25-.43,.25-.09,0-.17-.02-.25-.07-1.05-.61-1.9-1.34-2.59-2.13,.48,1.78,1.2,4.17,1.89,5.3,3.13,2.77,7,5.19,7.72,5.63h5.98c.72-.44,4.59-2.86,7.71-5.63,.7-1.13,1.42-3.52,1.9-5.3-.7,.79-1.55,1.52-2.59,2.13-.08,.05-.17,.07-.25,.07-.18,0-.34-.09-.44-.25-.13-.24-.05-.55,.18-.68,4.96-2.89,5.16-9.05,5.16-9.11,.01-.28,.22-.46,.51-.49,.28,0,.5,.23,.49,.51,0,.15-.07,2.23-1.06,4.59,1.35-.81,2.6-2.48,3.57-4.85,1.25-3.02,1.52-5.81,1.31-6.23-.24-.28-.42-.32-.56-.32-.02,0-.04,0-.06,0-.4,.04-1.29,.52-2.75,3.23-.09,.17-.26,.26-.44,.26-.06,0-.13-.01-.19-.03-.23-.09-.36-.34-.3-.59,.58-2.25,.63-6.66,.63-6.71,0,0-.13-2.68-1.11-4.17h0Z"/><path class="cls-4" d="M23.77,36.27l-2.57-2.9s1.84-2.06,3.93-2.24c4.33,2.17,7.96,2.06,7.96,2.06l-1.17,3.89s-1.21-1.36-3.74-1.28-4.4,.48-4.4,.48Z"/><path class="cls-4" d="M37.39,37.3l-.7-3.56,8.11-2.72s2.64,1.69,3.27,2.35c-.44,2.31-2.06,3.05-2.06,3.05,0,0-7.19-1.8-8.63,.88Z"/><path d="M18.92,30.46s-2.76-.87-3.95-.28,.73,6.75,1.98,9.06,3.11,3.57,3.97,3.84c-.84-3.85-.67-8.73-2-12.62Z"/><path class="cls-8" d="M14.63,32.28s-2.66-1.33-3.74-5.65c1.91,1.25,3.99,1,3.99,1,0,0-3.58-2.99-4.32-8.81,3.16,2.58,7.65,.25,7.65,.25,0,0-3.66-.25-5.07-2.66,3.08,.58,6.15-1.16,9.48-2.74s7.98-1,7.98-1c0,0,3.83-2.49,9.73-1.58s9.73,2.66,14.55,1.33c-.67,2.33-2.74,3.24-2.74,3.24,0,0,3.24,2,4.91,5.57,1,3.41,1.91,4.91,1.91,4.91,0,0-2.91,.08-5.74-2.74-.17,5.57-2,6.24-2,6.24"/><path class="cls-8" d="M16.74,26.23s2.26,1.81,6.07-.39c4.2-2.58,5.36-3.36,5.36-3.36,0,0-4.33,3.87-4.91,7.49,5.36-3.03,5.17-3.36,9.17-4.33s7.62-1.68,9.81-4.13c-.9,4.46-2.97,6.46-2.97,6.46,0,0,10.65-1.03,10.52-8.52"/><path class="cls-8" d="M18.54,26.99s.05,4.49,.64,6.83c-2.15-3.99-3.44-3.89-4.22-2.98s1.26,10.69,5.91,12.23"/><path class="cls-8" d="M19.68,37.62s.14,6.46,5.41,9.53"/><path class="cls-8" d="M48.82,43.07c4.65-1.54,6.69-11.32,5.91-12.23s-2.06-1.01-4.22,2.98c.6-2.34,.64-6.83,.64-6.83,0,0-.15-3.6-1.67-5.04"/><path class="cls-8" d="M50.01,37.62s-.14,6.46-5.41,9.53"/><path class="cls-8" d="M48.48,43.38s-1.3,5.74-2.54,7.7c-3.52,3.13-7.96,5.81-7.96,5.81h-6.26s-4.44-2.67-7.96-5.81c-1.24-1.96-2.54-7.7-2.54-7.7"/><path d="M21.15,33.47s1.58-2.9,4.18-3.52c2.5,1.36,7.01,2.53,7.93,2.17-.07,1.72-.66,2.09-.66,2.09,0,0-4.37-.51-7.93-2.5-1.47,.33-3.52,1.76-3.52,1.76Z"/><path d="M31.86,37.4s.09-.69-1.27-.9-6.87,.57-8.46,.21c-1.57-.36-1.33-1.57-1.33-1.57,0,0,.63,.66,3.25,.24s5.87-.15,7.02,.48c1.3,.72,.78,1.54,.78,1.54Z"/><path d="M24.7,36.14c.71,1.51,2.48,2.21,4.12,2.26,.46,.02,1.38,0,1.83-.04-1.81,.59-3.92,.86-5.63-.24-.57-.41-1.07-.92-1.28-1.71l.96-.27h0Z"/><path d="M32.03,41.14c-.45,1.5-.18,2.06,1.23,2.57-1.77,.37-2.55-1.43-1.23-2.57h0Z"/><path d="M32.42,42.55s.84-.6,1.43-.15c.35,.54-.43,.48-1.43,.15Z"/><path d="M48.2,33.47s-1.58-2.9-4.18-3.52c-2.5,1.36-7.01,2.53-7.93,2.17,.07,1.72,.66,2.09,.66,2.09,0,0,4.37-.51,7.93-2.5,1.47,.33,3.52,1.76,3.52,1.76Z"/><path d="M37.5,37.4s-.09-.69,1.27-.9,6.87,.57,8.46,.21c1.57-.36,1.33-1.57,1.33-1.57,0,0-.63,.66-3.25,.24s-5.87-.15-7.02,.48c-1.3,.72-.78,1.54-.78,1.54Z"/><path d="M45.62,36.41c-.95,2.86-4.58,2.78-6.91,1.95,0,0,.92,.05,.92,.05,1.89,.09,4.17-.44,5.03-2.27,0,0,.96,.27,.96,.27h0Z"/><path d="M37.33,41.14c1.32,1.15,.54,2.94-1.23,2.57,1.41-.51,1.68-1.08,1.23-2.57h0Z"/><path d="M36.93,42.55s-.84-.6-1.43-.15c-.35,.54,.43,.48,1.43,.15Z"/><path d="M39.6,49.87s-.3-.94-1.24-2.45c-.4-.64-.98-1.02-1.55-1.24-.55-.23-1.1-.3-1.42-.33h-.05c-.14,0-.23,0-.24,0h-.08s-.11,0-.24,0h-.05c-.32,.03-.87,.1-1.42,.33-.57,.22-1.15,.6-1.55,1.24-.94,1.51-1.24,2.41-1.24,2.45l-.05,.16,.12,.14c.08,.09,1.8,2,3.63,2,.27,0,.55-.04,.82-.14h.04s.04,0,.04,0c2.11,.74,4.35-1.76,4.44-1.86l.13-.14-.05-.16Zm-4.56,.03l-2.51-.69,2.51-1.37,2.51,1.37-2.51,.69Z"/><path class="cls-8" d="M45.19,52.18s-.47,8.76,.6,11.8c-1.64,2.93-5.16,6.32-10.75,6.32-4.81,0-9.11-3.39-10.75-6.32,1.07-3.04,.6-11.8,.6-11.8"/><path class="cls-8" d="M24.72,60.25s-11.99,3.8-17.16,6.92"/><path class="cls-8" d="M45.36,60.25s11.99,3.8,17.16,6.92"/><path d="M23.29,50.47c-.08-.13-.16-.3-.24-.5-.15,.89-.92,1.55-1.84,1.55-1.03,0-1.87-.83-1.87-1.87s.84-1.86,1.87-1.86c.5,0,.96,.2,1.29,.51-.23-.82-.45-1.71-.62-2.45-.22-.04-.44-.06-.67-.06-2.14,0-3.87,1.73-3.87,3.86s1.73,3.87,3.87,3.87c1.4,0,2.63-.75,3.31-1.87-.35-.3-.76-.69-1.23-1.18Z"/><path d="M45.61,51.65c.68,1.12,1.91,1.87,3.31,1.87,2.14,0,3.87-1.73,3.87-3.87s-1.73-3.86-3.87-3.86c-.23,0-.45,.02-.67,.06-.17,.74-.39,1.63-.62,2.45,.33-.31,.79-.51,1.29-.51,1.03,0,1.87,.83,1.87,1.86s-.84,1.87-1.87,1.87c-.92,0-1.69-.66-1.84-1.55-.08,.2-.16,.37-.24,.5-.47,.49-.88,.88-1.23,1.18Z"/><path d="M23.08,49.65c0,.11-.01,.22-.03,.32-.19-.45-.38-1.04-.55-1.67,.36,.35,.58,.82,.58,1.35Z"/><path class="cls-8" d="M25.11,54.22s2.74,5.21,9.73,5.21,10.2-4.66,10.2-4.66"/><path class="cls-12" d="M25.76,55.53c.29,1.95,.41,3.91,.45,5.88-3.04,1.37-6.23,2.56-9.41,3.57-1.79,.52-3.73,1.11-5.56,1.5,0,0-.04-.09-.04-.09,4.57-1.95,9.75-4.02,14.2-5.45,0,0,.26-5.41,.26-5.41h.1Z"/><path class="cls-2" d="M24.52,39.61c1.06,.47,2.87,1,5.07,.55,.47-.1,.8,.47,.47,.82-2.14,2.28-4.82,3.02-6.19-.73-.15-.41,.25-.82,.66-.64Z"/><path class="cls-1" d="M15.54,33.19c1.71,2.83,2.63,5.93,4.4,8.74,0,0-.06,.08-.06,.08-1.39-.99-2.35-2.45-3.05-3.97-.67-1.55-1.12-3.18-1.39-4.84h.1Z"/><path class="cls-12" d="M11.44,27.55c1.4,.37,2.18,1.42,2.1,2.87,0,0-.07,.07-.07,.07-.45-.4-.86-.85-1.23-1.32-.34-.5-.65-1.02-.89-1.58l.09-.04h0Z"/></g></g><g id="Frame"><g><path class="cls-5" d="M62.56,4.88C54.4,1.94,45.12,.2,35.25,.02c-.57-.01-1.15-.02-1.72-.02C23.88,0,14.77,1.52,6.72,4.21,2.49,14.22,0,26.6,0,40s2.39,25.22,6.45,35.11c8.16,2.94,17.45,4.69,27.32,4.87,.58,.01,1.15,.02,1.73,.02,9.63,0,18.73-1.51,26.78-4.2,4.24-10.01,6.74-22.39,6.74-35.8s-2.4-25.24-6.46-35.12Zm-4.04,66.86c-7.2,2.16-14.94,3.26-23.02,3.26-.49,0-.98-.01-1.47-.02h-.17c-8.18-.15-16.29-1.47-23.6-3.85-3.45-9.22-5.26-19.93-5.26-31.13s1.89-22.38,5.48-31.73c6.73-2.01,14.13-3.13,21.6-3.26,.48-.01,.97-.01,1.45-.01,.54,0,1.08,.01,1.63,.02,8.16,.15,16.27,1.47,23.59,3.84,3.46,9.24,5.27,19.95,5.27,31.14s-1.89,22.39-5.5,31.74Z"/><path class="cls-13" d="M17.21,2.06h0c1.63,.63,2.06,2.75,.81,3.97l-1.26,1.22s8.35-2.37,18.84-1.69h0c-1-1.49-.45-3.52,1.14-4.34l1-.51S28.26-.43,17.21,2.06Z"/><path class="cls-15" d="M21.81,1.66s.7,2.18-.22,3.1c3.77-.41,7.98-.74,11.12-.74-.33-1.33,1.26-3.4,1.26-3.4,0,0-6.17-.26-12.16,1.03Z"/><path class="cls-13" d="M36.25,79.21h0c-1.52-.87-1.62-3.03-.2-4.04l1.43-1.02s-8.61,1.07-18.88-1.19h0c.76,1.63-.09,3.55-1.79,4.11l-1.07,.36s9.19,2.56,20.5,1.78Z"/><path class="cls-15" d="M19.28,77.8s1.76-1.83,1.3-3.09c4.43,.69,9.11,1.14,12.25,1.14-.33,1.33,.44,3.4,.44,3.4,0,0-8-.16-13.99-1.45Z"/><polygon points="47.48 1.77 47.48 6.73 54.49 8.44 54.49 2.62 47.48 1.77"/><line class="cls-7" x1="45.5" y1="1.23" x2="45.5" y2="6.29"/><line class="cls-7" x1="56.47" y1="3.67" x2="56.47" y2="8.73"/><polygon points="47.48 78.74 47.48 73.78 54.49 72.07 54.49 77.88 47.48 78.74"/><line class="cls-7" x1="45.5" y1="79.28" x2="45.5" y2="74.21"/><line class="cls-7" x1="56.47" y1="76.84" x2="56.47" y2="71.77"/><path d="M33.53,1c.56,0,1.14,0,1.7,.02,9.39,.17,18.33,1.74,26.57,4.65,4.07,10.08,6.22,21.94,6.22,34.33s-2.24,24.79-6.49,34.99c-8.12,2.66-16.87,4.01-26.03,4.01-.56,0-1.12,0-1.71-.02-9.25-.17-18.42-1.78-26.58-4.66C3.15,64.25,1,52.39,1,40S3.23,15.21,7.47,5.02C15.6,2.35,24.37,1,33.53,1m0-1C23.88,0,14.77,1.52,6.72,4.21,2.49,14.22,0,26.6,0,40s2.39,25.22,6.45,35.11c8.16,2.94,17.45,4.69,27.32,4.87,.58,.01,1.15,.02,1.73,.02,9.63,0,18.73-1.51,26.78-4.2,4.24-10.01,6.74-22.39,6.74-35.8s-2.4-25.24-6.46-35.12C54.4,1.94,45.12,.2,35.25,.02c-.57,0-1.15-.02-1.72-.02h0Z"/><path class="cls-13" d="M33.53,6c.52,0,1.04,0,1.61,.02,7.87,.14,15.75,1.4,22.84,3.64,3.3,9,5.04,19.47,5.04,30.34s-1.82,21.82-5.26,30.92c-6.98,2.04-14.47,3.08-22.26,3.08-.48,0-.97,0-1.47-.02h-.15c-7.89-.14-15.78-1.41-22.85-3.65-3.29-8.99-5.03-19.46-5.03-30.33s1.81-21.79,5.24-30.91c6.5-1.89,13.7-2.95,20.86-3.08,.47,0,.96,0,1.43,0m0-1c-.48,0-.97,0-1.45,.01-7.47,.13-14.87,1.25-21.6,3.26-3.59,9.35-5.48,20.26-5.48,31.73s1.81,21.91,5.26,31.13c7.31,2.38,15.42,3.7,23.6,3.85h.17c.49,.01,.98,.02,1.47,.02,8.08,0,15.82-1.1,23.02-3.26,3.61-9.35,5.5-20.27,5.5-31.74s-1.81-21.9-5.27-31.14c-7.32-2.37-15.43-3.69-23.59-3.84-.55,0-1.09-.02-1.63-.02h0Z"/><path class="cls-9" d="M8.14,7.1s-12.66,32.94,0,66.06"/><path class="cls-9" d="M60.88,7.58s12.66,32.94,0,66.06"/></g><path d="M33.53,5c.54,0,1.08,.01,1.63,.02,8.16,.15,16.27,1.47,23.59,3.84,3.46,9.24,5.27,19.95,5.27,31.14s-1.89,22.39-5.5,31.74c-7.2,2.16-14.94,3.26-23.02,3.26-.49,0-.98-.01-1.47-.02h-.17c-8.18-.15-16.29-1.47-23.6-3.85-3.45-9.22-5.26-19.93-5.26-31.13s1.89-22.38,5.48-31.73c6.73-2.01,14.13-3.13,21.6-3.26,.48-.01,.97-.01,1.45-.01m0-1c-.49,0-.98,0-1.47,.01-7.51,.13-15.07,1.27-21.87,3.3l-.47,.14-.18,.46c-3.63,9.45-5.55,20.55-5.55,32.09s1.84,22.17,5.32,31.48l.17,.45,.46,.15c7.37,2.4,15.63,3.75,23.89,3.9h.19c.48,.01,.97,.02,1.47,.02,8.16,0,16-1.11,23.31-3.3l.47-.14,.18-.46c3.64-9.43,5.57-20.53,5.57-32.1s-1.84-22.17-5.33-31.49l-.17-.45-.46-.15c-7.39-2.39-15.65-3.74-23.88-3.89-.58-.01-1.12-.02-1.65-.02h0Z"/></g></svg>