<?xml version="1.0" encoding="UTF-8"?><svg id="Capa_2" xmlns="http://www.w3.org/2000/svg" xmlns:xlink="http://www.w3.org/1999/xlink" viewBox="0 0 69.02 80"><defs><style>.cls-1{fill:#c89aed;}.cls-2{fill:#fff;}.cls-3{fill:#f8ffbf;}.cls-4{fill:#7b7be8;}.cls-5{fill:#a88347;}.cls-6{fill:#782ab5;}.cls-7{stroke-miterlimit:10;}.cls-7,.cls-8,.cls-9,.cls-10,.cls-11,.cls-12{fill:none;}.cls-7,.cls-8,.cls-12{stroke:#000;}.cls-8,.cls-9,.cls-12{stroke-linecap:round;stroke-linejoin:round;}.cls-9{stroke:#deb778;stroke-dasharray:0 0 0 4.06;}.cls-13{fill:#deb778;}.cls-14{fill:url(#USGS_19_Inundación_de_tierra_2);}.cls-11{stroke:#1d1d1b;stroke-dasharray:0 0 2 2;stroke-width:.3px;}.cls-12{stroke-width:1px;}.cls-15{fill:#ccbc64;}.cls-16{fill:#fcf0c5;}.cls-17{fill:#b83521;}</style><pattern id="USGS_19_Inundación_de_tierra_2" x="0" y="0" width="72" height="72" patternTransform="translate(195.52 -16279) rotate(-90)" patternUnits="userSpaceOnUse" viewBox="0 0 72 72"><g><rect class="cls-10" width="72" height="72"/><g><line class="cls-11" x1="71" y1="71" x2="144.44" y2="71"/><line class="cls-11" x1="71" y1="67" x2="144.44" y2="67"/><line class="cls-11" x1="71" y1="63" x2="144.44" y2="63"/><line class="cls-11" x1="71" y1="59" x2="144.44" y2="59"/><line class="cls-11" x1="71" y1="55" x2="144.44" y2="55"/><line class="cls-11" x1="71" y1="51" x2="144.44" y2="51"/><line class="cls-11" x1="71" y1="47" x2="144.44" y2="47"/><line class="cls-11" x1="71" y1="43" x2="144.44" y2="43"/><line class="cls-11" x1="71" y1="39" x2="144.44" y2="39"/><line class="cls-11" x1="71" y1="35" x2="144.44" y2="35"/><line class="cls-11" x1="71" y1="31" x2="144.44" y2="31"/><line class="cls-11" x1="71" y1="27" x2="144.44" y2="27"/><line class="cls-11" x1="71" y1="23" x2="144.44" y2="23"/><line class="cls-11" x1="71" y1="19" x2="144.44" y2="19"/><line class="cls-11" x1="71" y1="15" x2="144.44" y2="15"/><line class="cls-11" x1="71" y1="11" x2="144.44" y2="11"/><line class="cls-11" x1="71" y1="7" x2="144.44" y2="7"/><line class="cls-11" x1="71" y1="3" x2="144.44" y2="3"/></g><g><line class="cls-11" x1="-1" y1="71" x2="72.44" y2="71"/><line class="cls-11" x1="-1" y1="67" x2="72.44" y2="67"/><line class="cls-11" x1="-1" y1="63" x2="72.44" y2="63"/><line class="cls-11" x1="-1" y1="59" x2="72.44" y2="59"/><line class="cls-11" x1="-1" y1="55" x2="72.44" y2="55"/><line class="cls-11" x1="-1" y1="51" x2="72.44" y2="51"/><line class="cls-11" x1="-1" y1="47" x2="72.44" y2="47"/><line class="cls-11" x1="-1" y1="43" x2="72.44" y2="43"/><line class="cls-11" x1="-1" y1="39" x2="72.44" y2="39"/><line class="cls-11" x1="-1" y1="35" x2="72.44" y2="35"/><line class="cls-11" x1="-1" y1="31" x2="72.44" y2="31"/><line class="cls-11" x1="-1" y1="27" x2="72.44" y2="27"/><line class="cls-11" x1="-1" y1="23" x2="72.44" y2="23"/><line class="cls-11" x1="-1" y1="19" x2="72.44" y2="19"/><line class="cls-11" x1="-1" y1="15" x2="72.44" y2="15"/><line class="cls-11" x1="-1" y1="11" x2="72.44" y2="11"/><line class="cls-11" x1="-1" y1="7" x2="72.44" y2="7"/><line class="cls-11" x1="-1" y1="3" x2="72.44" y2="3"/><line class="cls-11" x1="1.04" y1="69" x2="74.48" y2="69"/><line class="cls-11" x1="1.04" y1="65" x2="74.48" y2="65"/><line class="cls-11" x1="1.04" y1="61" x2="74.48" y2="61"/><line class="cls-11" x1="1.04" y1="57" x2="74.48" y2="57"/><line class="cls-11" x1="1.04" y1="53" x2="74.48" y2="53"/><line class="cls-11" x1="1.04" y1="49" x2="74.48" y2="49"/><line class="cls-11" x1="1.04" y1="45" x2="74.48" y2="45"/><line class="cls-11" x1="1.04" y1="41" x2="74.48" y2="41"/><line class="cls-11" x1="1.04" y1="37" x2="74.48" y2="37"/><line class="cls-11" x1="1.04" y1="33" x2="74.48" y2="33"/><line class="cls-11" x1="1.04" y1="29" x2="74.48" y2="29"/><line class="cls-11" x1="1.04" y1="25" x2="74.48" y2="25"/><line class="cls-11" x1="1.04" y1="21" x2="74.48" y2="21"/><line class="cls-11" x1="1.04" y1="17" x2="74.48" y2="17"/><line class="cls-11" x1="1.04" y1="13" x2="74.48" y2="13"/><line class="cls-11" x1="1.04" y1="9" x2="74.48" y2="9"/><line class="cls-11" x1="1.04" y1="5" x2="74.48" y2="5"/><line class="cls-11" x1="1.04" y1="1" x2="74.48" y2="1"/></g><g><line class="cls-11" x1="-73" y1="71" x2=".44" y2="71"/><line class="cls-11" x1="-73" y1="67" x2=".44" y2="67"/><line class="cls-11" x1="-73" y1="63" x2=".44" y2="63"/><line class="cls-11" x1="-73" y1="59" x2=".44" y2="59"/><line class="cls-11" x1="-73" y1="55" x2=".44" y2="55"/><line class="cls-11" x1="-73" y1="51" x2=".44" y2="51"/><line class="cls-11" x1="-73" y1="47" x2=".44" y2="47"/><line class="cls-11" x1="-73" y1="43" x2=".44" y2="43"/><line class="cls-11" x1="-73" y1="39" x2=".44" y2="39"/><line class="cls-11" x1="-73" y1="35" x2=".44" y2="35"/><line class="cls-11" x1="-73" y1="31" x2=".44" y2="31"/><line class="cls-11" x1="-73" y1="27" x2=".44" y2="27"/><line class="cls-11" x1="-73" y1="23" x2=".44" y2="23"/><line class="cls-11" x1="-73" y1="19" x2=".44" y2="19"/><line class="cls-11" x1="-73" y1="15" x2=".44" y2="15"/><line class="cls-11" x1="-73" y1="11" x2=".44" y2="11"/><line class="cls-11" x1="-73" y1="7" x2=".44" y2="7"/><line class="cls-11" x1="-73" y1="3" x2=".44" y2="3"/><line class="cls-11" x1="-70.96" y1="69" x2="2.48" y2="69"/><line class="cls-11" x1="-70.96" y1="65" x2="2.48" y2="65"/><line class="cls-11" x1="-70.96" y1="61" x2="2.48" y2="61"/><line class="cls-11" x1="-70.96" y1="57" x2="2.48" y2="57"/><line class="cls-11" x1="-70.96" y1="53" x2="2.48" y2="53"/><line class="cls-11" x1="-70.96" y1="49" x2="2.48" y2="49"/><line class="cls-11" x1="-70.96" y1="45" x2="2.48" y2="45"/><line class="cls-11" x1="-70.96" y1="41" x2="2.48" y2="41"/><line class="cls-11" x1="-70.96" y1="37" x2="2.48" y2="37"/><line class="cls-11" x1="-70.96" y1="33" x2="2.48" y2="33"/><line class="cls-11" x1="-70.96" y1="29" x2="2.48" y2="29"/><line class="cls-11" x1="-70.96" y1="25" x2="2.48" y2="25"/><line class="cls-11" x1="-70.96" y1="21" x2="2.48" y2="21"/><line class="cls-11" x1="-70.96" y1="17" x2="2.48" y2="17"/><line class="cls-11" x1="-70.96" y1="13" x2="2.48" y2="13"/><line class="cls-11" x1="-70.96" y1="9" x2="2.48" y2="9"/><line class="cls-11" x1="-70.96" y1="5" x2="2.48" y2="5"/><line class="cls-11" x1="-70.96" y1="1" x2="2.48" y2="1"/></g></g></pattern></defs><g id="BG"><g><path class="cls-6" d="M64.02,40c0,11.47-1.89,22.39-5.5,31.74-7.2,2.16-14.94,3.26-23.02,3.26-.49,0-.98-.01-1.47-.02h-.17c-8.18-.15-16.29-1.47-23.6-3.85-3.45-9.22-5.26-19.93-5.26-31.13s1.89-22.38,5.48-31.73c6.73-2.01,14.13-3.13,21.6-3.26,.48-.01,.97-.01,1.45-.01,.54,0,1.08,.01,1.63,.02,8.16,.15,16.27,1.47,23.59,3.84,3.46,9.24,5.27,19.95,5.27,31.14Z"/><path class="cls-14" d="M34.03,5.59V74.98h-.17c-8.18-.15-16.29-1.47-23.6-3.85-3.45-9.22-5.26-19.93-5.26-31.13s1.89-22.38,5.48-31.73c6.73-2.01,14.13-3.13,21.6-3.26,.65,.16,1.3,.36,1.95,.58Z"/></g></g><g id="Capa_10"><g><path class="cls-1" d="M61.4,66.11v8.06l-29.45,3.79-23.58-5.62,.12-7.09,16.5-4.15s1.46-5.38-.37-8.55c0,0-7.94,.85-12.46-3.91-.73-13.93,1.95-25.66,8.31-31.4,6.35-5.74,16.12-5.13,21.62-3.79,5.5,1.34,11,7.33,13.44,17.72,2.44,10.38,.86,17.59,.86,17.59,0,0-5.8,4.52-11.3,3.62-.14-.02-.29-.05-.43-.08-.99,1.52-1.22,2.32-1.22,2.32l1.1,6.11,16.86,5.38Z"/><path class="cls-4" d="M30.86,41.66l.88-5.17c-3.83-1.7-6.3-1.57-6.3-1.57,0,0-3.26,1.07-4,1.47,.5,1.9,1.87,3.23,1.87,3.23,0,0,3.96-1.23,5.16-1.13,1.5,.63,2.39,3.17,2.39,3.17Z"/><path class="cls-2" d="M34.06,58.82v-26.2l12.79,.64s-.38-5.63-.41-7.23c4.61,6.51,2.49,17.29-.27,23.34-2.67,5.51-6.75,8.73-8.29,9.52s-3.82-.08-3.82-.08Z"/><path class="cls-5" d="M56.39,48.76s-5.8,4.52-11.3,3.62c-.01-.01-.02-.03-.03-.05,2-3.69,4.43-13.58,4-17.37-.4-3.62-2.44-8.5-2.62-8.92,.08,.35,.91,4.03,.41,7.23-1.05-.31-15.36-1.26-24.73,.21-.61-2.45,1.26-8.99,1.36-9.35-.16,.26-2.75,4.54-3.47,11.88-.63,7.26,4.61,16.54,4.61,16.54,0,0-7.94,.85-12.46-3.91-.73-13.93,1.95-25.66,8.31-31.4,6.35-5.74,16.12-5.13,21.62-3.79,5.5,1.34,11,7.33,13.44,17.72,2.44,10.38,.86,17.59,.86,17.59Z"/><path d="M13.97,29.56s3.09-3.77,6.06,2.86c-.57,10.18,4.59,20.13,4.59,20.13,0,0-6.26,1.56-12.46-3.91-1.17-12.56,1.81-19.08,1.81-19.08Z"/><path class="cls-3" d="M30.86,41.66c-.2-.79,.14-1.9-2.54-3.18-3.66,.16-5.01,1.03-5.01,1.03,0,0,.23,2.5,2.51,3.05s5.04-.91,5.04-.91Z"/><path class="cls-3" d="M37.69,41.66c.2-.79-.14-1.9,2.54-3.18,3.66,.16,5.01,1.03,5.01,1.03,0,0-.23,2.5-2.51,3.05s-5.04-.91-5.04-.91Z"/><path d="M43.27,55.18l-15.24,20.91-18.12-2.69-1.42-8.14,16.2-4.21,.84-6.69s3.44,4.09,5.76,4.74,5.39,.09,6.6-.19,5.39-3.72,5.39-3.72Z"/><path class="cls-2" d="M42.16,58.61l-12.18,17.78,29.36-2.06,1.77-6.78-15.19-4.43c-1.97-.47-3.45-2.11-3.72-4.12l-.05-.39Z"/><path class="cls-1" d="M35.82,34.21c.07,0,6.9,.08,10.84,.8,.1,.02,.21,.04,.31,.04,.19,0,.39-.04,.57-.12,.03,.48,.04,.97,.04,1.46,0,1.72-.19,3.5-.55,5.31-1.37,6.72-3.77,11.26-7.78,14.73-.99,.87-2.31,1.34-3.71,1.34h-1.87c-1.39,0-2.71-.47-3.71-1.34-4.01-3.45-6.41-8-7.78-14.73-.51-2.49-.62-4.75-.5-6.76,.18,.07,.36,.11,.56,.11,.11,0,.22-.01,.28-.03,3.96-.73,10.81-.81,10.87-.81h2.44m10.93-7.1c.51,2.18,.95,4.73,.72,6.51-.02,.13-.1,.25-.21,.33-.09,.06-.19,.1-.29,.1-.03,0-.06,0-.09,0-4.06-.75-10.99-.83-11.06-.83h-2.44c-.06,0-6.99,.08-11.05,.83-.03,0-.07,.01-.1,.01-.1,0-.2-.03-.28-.1-.11-.08-.19-.2-.21-.33-.23-1.77,.19-4.28,.71-6.46-1.33,3.15-2.58,8.22-1.25,14.74,1.42,6.96,3.92,11.68,8.11,15.29,1.18,1.02,2.73,1.58,4.36,1.58h1.87c1.64,0,3.19-.56,4.37-1.59,4.18-3.61,6.68-8.32,8.1-15.28,.4-1.98,.57-3.82,.57-5.51,0-3.94-.9-7.08-1.83-9.28h0Z"/><path class="cls-15" d="M22.94,15.11s-3.86,15.35,27.82,4.58c3.86,5.21,4.13,9.51,4.13,9.51,0,0-6.91-5.3-20.55-1.79s-17.05-6.64-17.05-6.64c0,0,2.69-4.04,5.65-5.65Z"/><path class="cls-2" d="M25.31,44.04c.98,.11,2.73,.12,4.69-.7,.33-.14,.67,.22,.49,.54-1.76,3.27-3.92,3.04-5.53,.77-.19-.27,.02-.65,.35-.61Z"/><path class="cls-4" d="M37.73,41.49s-1.17-3.41-.7-4.68c1.82-1.36,6.22-1.92,6.22-1.92l3.93,1.45-1.96,3.65s-2.39-1.73-5.43-1.36c-1.54,.7-2.29,2.39-2.06,2.85Z"/><path d="M49.08,35.7s1.61,10.15,6.94,5.08c.68,6.01,.08,8.29,.08,8.29,0,0-6.39,4.94-11.45,3.23,3.49-5.35,4.59-14.91,4.42-16.6Z"/><path class="cls-8" d="M44.84,52.46c7.22,.44,11.52-3.59,11.52-3.59,0,0,1.44-16.25-4.06-26.48-5.5-10.24-16.33-9.98-16.33-9.98h-3.25s-10.83-.25-16.33,9.98-4.06,26.48-4.06,26.48c0,0,2.87,4.03,12.35,4.03"/><path class="cls-8" d="M48.5,42c-1.65,8.09-4.62,12.42-8.26,15.56-1.3,1.12-2.98,1.71-4.7,1.71h-1.87c-1.71,0-3.39-.58-4.69-1.7-3.65-3.14-6.62-7.47-8.27-15.57-2.31-11.31,3.03-18.36,3.37-18.79-.12,.37-2.29,6.91-1.84,10.34,4.15-.77,11.14-.84,11.14-.84h2.45s6.99,.07,11.14,.84c.45-3.43-1.71-9.97-1.83-10.34,.34,.43,5.67,7.48,3.36,18.79Z"/><path d="M31.83,36.05l-.26,1.36s-2.55-1.86-5.89-2.05c-2.67,.57-4.31,1.08-4.31,1.08,0,0,1.53-1.77,4.11-2.48,3.53,.24,6.35,2.1,6.35,2.1Z"/><path d="M30.61,40.41c-.64-.65-1.42-1.45-2.3-1.62-1.38,0-3.27,.43-4.7,1.06,0,0,.28-.56,.28-.56,.25,1.07,.6,2.13,1.48,2.64,.94,.55,2.16,.51,3.26,.5-1.69,.69-4.09,.7-5.03-1.17-.33-.56-.51-1.16-.66-1.75-.06-.23,.06-.46,.27-.55,.82-.38,1.68-.63,2.56-.79,.89-.16,1.81-.19,2.72-.04,1.08,.41,1.67,1.33,2.14,2.28h0Z"/><path d="M22.12,38.49s.35,.6,2.01,.17c-.73,.95-.39,2.07-.39,2.07,0,0-1.55-.33-1.62-2.24Z"/><path d="M36.69,36.05l.26,1.36s2.55-1.86,5.89-2.05c2.67,.57,4.31,1.08,4.31,1.08,0,0-1.53-1.77-4.11-2.48-3.53,.24-6.35,2.1-6.35,2.1Z"/><path d="M37.9,40.41c.48-.95,1.06-1.88,2.15-2.29,.9-.14,1.82-.11,2.71,.04,.88,.16,1.74,.41,2.56,.79,.21,.1,.32,.33,.27,.55-.15,.59-.33,1.19-.66,1.75-.94,1.86-3.35,1.86-5.03,1.17,1.09,.02,2.32,.06,3.26-.5,.87-.51,1.23-1.57,1.48-2.64l.28,.56c-1.42-.63-3.33-1.06-4.7-1.06-.88,.17-1.66,.97-2.3,1.62h0Z"/><path d="M46.39,38.49s-.35,.6-2.01,.17c.73,.95,.39,2.07,.39,2.07,0,0,1.55-.33,1.62-2.24Z"/><path d="M36.09,44.42c.5,.49,1.02,1.15,.94,1.9-.27,.65-1.04,.87-1.58,1.13-.47,.13-.94,.42-1.43,.38-.84-.26-1.73-.5-2.44-1.06-.83-.62,.08-1.84,.63-2.35-.16,.5-.41,1.32-.29,1.71,.65,.25,1.59,.55,2.37,.74,0,0-.26,0-.26,0,.74-.2,1.53-.4,2.16-.67,.07-.03,.14-.07,.17-.1,.03-.04,0,.08,.04-.04,.07-.54-.14-1.1-.3-1.65h0Z"/><path class="cls-17" d="M29.59,52.74s1.43,2.75,4.58,2.75,4.55-2.79,4.55-2.79l-1.95-1.1-5.47,.12-1.71,1.03Z"/><path class="cls-2" d="M31.46,52.02s.94,1.08,2.82,1.08,2.88-1.03,2.88-1.03c0,0-2.31-3.31-5.7-.06Z"/><path d="M34.44,48.77c1.5,0,3.15,1.17,3.9,2.67,.36,.72,.99,1.08,1.53,1.25-.51,.17-1.29,.24-2.33-.25-1.96-.91-2.37-1.03-3.12-1.03h-.28c-.75,0-1.16,.12-3.12,1.03-1.04,.49-1.82,.42-2.33,.25,.55-.17,1.17-.53,1.53-1.25,.75-1.5,2.4-2.67,3.9-2.67h.32Z"/><path class="cls-12" d="M25.49,53.82s.43,5.64-.97,7.17c-6.5,2.02-16.22,4.78-16.22,4.78"/><path d="M19.07,74.49c-1.1-5.29,.55-11.6,.63-11.84l-1.82,.55s-1.78,5.6-.76,10.22c1.31,.38,1.96,1.08,1.96,1.08Z"/><path class="cls-12" d="M43.67,53.82s-.43,5.64,.97,7.17c6.5,2.02,16.22,4.78,16.22,4.78"/><path d="M50.1,74.49c1.1-5.29-.55-11.6-.63-11.84l1.82,.55s1.78,5.6,.76,10.22c-1.31,.38-1.96,1.08-1.96,1.08Z"/><path class="cls-1" d="M26.7,58.31c-.04,1.24-.18,2.47-.35,3.7-4.8,2.03-9.84,3.54-15.04,4.06,0,0-.03-.1-.03-.1,4.28-1.34,10.27-3.2,14.5-4.45-.16,.28,.86-3.3,.82-3.24,0,0,.1,.02,.1,.02h0Z"/><path class="cls-15" d="M14.08,32.4c.16,5.1-.4,10.54,.02,15.6,0,0-.23-.46-.23-.46,1.69,1.69,3.98,2.63,6.28,3.23,.8,.22,1.62,.37,2.46,.51v.1c-3.33-.03-6.98-.81-9.41-3.24-.36-2.62-.21-5.27-.04-7.9,.19-2.63,.47-5.24,.83-7.85,0,0,.1,.01,.1,.01h0Z"/></g></g><g id="Frame"><g><path class="cls-5" d="M62.56,4.88C54.4,1.94,45.12,.2,35.25,.02c-.57-.01-1.15-.02-1.72-.02C23.88,0,14.77,1.52,6.72,4.21,2.49,14.22,0,26.6,0,40s2.39,25.22,6.45,35.11c8.16,2.94,17.45,4.69,27.32,4.87,.58,.01,1.15,.02,1.73,.02,9.63,0,18.73-1.51,26.78-4.2,4.24-10.01,6.74-22.39,6.74-35.8s-2.4-25.24-6.46-35.12Zm-4.04,66.86c-7.2,2.16-14.94,3.26-23.02,3.26-.49,0-.98-.01-1.47-.02h-.17c-8.18-.15-16.29-1.47-23.6-3.85-3.45-9.22-5.26-19.93-5.26-31.13s1.89-22.38,5.48-31.73c6.73-2.01,14.13-3.13,21.6-3.26,.48-.01,.97-.01,1.45-.01,.54,0,1.08,.01,1.63,.02,8.16,.15,16.27,1.47,23.59,3.84,3.46,9.24,5.27,19.95,5.27,31.14s-1.89,22.39-5.5,31.74Z"/><path class="cls-13" d="M17.21,2.06h0c1.63,.63,2.06,2.75,.81,3.97l-1.26,1.22s8.35-2.37,18.84-1.69h0c-1-1.49-.45-3.52,1.14-4.34l1-.51S28.26-.43,17.21,2.06Z"/><path class="cls-16" d="M21.81,1.66s.7,2.18-.22,3.1c3.77-.41,7.98-.74,11.12-.74-.33-1.33,1.26-3.4,1.26-3.4,0,0-6.17-.26-12.16,1.03Z"/><path class="cls-13" d="M36.25,79.21h0c-1.52-.87-1.62-3.03-.2-4.04l1.43-1.02s-8.61,1.07-18.88-1.19h0c.76,1.63-.09,3.55-1.79,4.11l-1.07,.36s9.19,2.56,20.5,1.78Z"/><path class="cls-16" d="M19.28,77.8s1.76-1.83,1.3-3.09c4.43,.69,9.11,1.14,12.25,1.14-.33,1.33,.44,3.4,.44,3.4,0,0-8-.16-13.99-1.45Z"/><polygon points="47.48 1.77 47.48 6.73 54.49 8.44 54.49 2.62 47.48 1.77"/><line class="cls-7" x1="45.5" y1="1.23" x2="45.5" y2="6.29"/><line class="cls-7" x1="56.47" y1="3.67" x2="56.47" y2="8.73"/><polygon points="47.48 78.74 47.48 73.78 54.49 72.07 54.49 77.88 47.48 78.74"/><line class="cls-7" x1="45.5" y1="79.28" x2="45.5" y2="74.21"/><line class="cls-7" x1="56.47" y1="76.84" x2="56.47" y2="71.77"/><path d="M33.53,1c.56,0,1.14,0,1.7,.02,9.39,.17,18.33,1.74,26.57,4.65,4.07,10.08,6.22,21.94,6.22,34.33s-2.24,24.79-6.49,34.99c-8.12,2.66-16.87,4.01-26.03,4.01-.56,0-1.12,0-1.71-.02-9.25-.17-18.42-1.78-26.58-4.66C3.15,64.25,1,52.39,1,40S3.23,15.21,7.47,5.02C15.6,2.35,24.37,1,33.53,1m0-1C23.88,0,14.77,1.52,6.72,4.21,2.49,14.22,0,26.6,0,40s2.39,25.22,6.45,35.11c8.16,2.94,17.45,4.69,27.32,4.87,.58,.01,1.15,.02,1.73,.02,9.63,0,18.73-1.51,26.78-4.2,4.24-10.01,6.74-22.39,6.74-35.8s-2.4-25.24-6.46-35.12C54.4,1.94,45.12,.2,35.25,.02c-.57,0-1.15-.02-1.72-.02h0Z"/><path class="cls-13" d="M33.53,6c.52,0,1.04,0,1.61,.02,7.87,.14,15.75,1.4,22.84,3.64,3.3,9,5.04,19.47,5.04,30.34s-1.82,21.82-5.26,30.92c-6.98,2.04-14.47,3.08-22.26,3.08-.48,0-.97,0-1.47-.02h-.15c-7.89-.14-15.78-1.41-22.85-3.65-3.29-8.99-5.03-19.46-5.03-30.33s1.81-21.79,5.24-30.91c6.5-1.89,13.7-2.95,20.86-3.08,.47,0,.96,0,1.43,0m0-1c-.48,0-.97,0-1.45,.01-7.47,.13-14.87,1.25-21.6,3.26-3.59,9.35-5.48,20.26-5.48,31.73s1.81,21.91,5.26,31.13c7.31,2.38,15.42,3.7,23.6,3.85h.17c.49,.01,.98,.02,1.47,.02,8.08,0,15.82-1.1,23.02-3.26,3.61-9.35,5.5-20.27,5.5-31.74s-1.81-21.9-5.27-31.14c-7.32-2.37-15.43-3.69-23.59-3.84-.55,0-1.09-.02-1.63-.02h0Z"/><path class="cls-9" d="M8.14,7.1s-12.66,32.94,0,66.06"/><path class="cls-9" d="M60.88,7.58s12.66,32.94,0,66.06"/></g><path d="M33.53,5c.54,0,1.08,.01,1.63,.02,8.16,.15,16.27,1.47,23.59,3.84,3.46,9.24,5.27,19.95,5.27,31.14s-1.89,22.39-5.5,31.74c-7.2,2.16-14.94,3.26-23.02,3.26-.49,0-.98-.01-1.47-.02h-.17c-8.18-.15-16.29-1.47-23.6-3.85-3.45-9.22-5.26-19.93-5.26-31.13s1.89-22.38,5.48-31.73c6.73-2.01,14.13-3.13,21.6-3.26,.48-.01,.97-.01,1.45-.01m0-1c-.49,0-.98,0-1.47,.01-7.51,.13-15.07,1.27-21.87,3.3l-.47,.14-.18,.46c-3.63,9.45-5.55,20.55-5.55,32.09s1.84,22.17,5.32,31.48l.17,.45,.46,.15c7.37,2.4,15.63,3.75,23.89,3.9h.19c.48,.01,.97,.02,1.47,.02,8.16,0,16-1.11,23.31-3.3l.47-.14,.18-.46c3.64-9.43,5.57-20.53,5.57-32.1s-1.84-22.17-5.33-31.49l-.17-.45-.46-.15c-7.39-2.39-15.65-3.74-23.88-3.89-.58-.01-1.12-.02-1.65-.02h0Z"/></g></svg>