<svg id="Capa_2" xmlns="http://www.w3.org/2000/svg" xmlns:xlink="http://www.w3.org/1999/xlink" viewBox="0 0 69.02 80">
<defs >
<style >
.cls-1{fill:#000000;}.cls-2{fill:#000;}.cls-3{fill:#000000;}.cls-4{fill:#000000;}.cls-5{fill:#000000;}.cls-6{fill:#000000;}.cls-7{stroke-miterlimit:10;}.cls-7,.cls-8,.cls-9,.cls-10,.cls-11,.cls-12{fill:none;}.cls-7,.cls-8,.cls-12{stroke:#000;}.cls-8,.cls-9,.cls-12{stroke-linecap:round;stroke-linejoin:round;}.cls-9{stroke:#000000;stroke-dasharray:0 0 0 4.06;}.cls-13{fill:#000000;}.cls-14{fill:url(#USGS_19_Inundación_de_tierra_2);}.cls-11{stroke:#000000;stroke-dasharray:0 0 2 2;stroke-width:.3px;}.cls-12{stroke-width:1px;}.cls-15{fill:#000000;}.cls-16{fill:#000000;}.cls-17{fill:#000000;}
</style>
<pattern id="USGS_19_Inundación_de_tierra_2" x="0" y="0" width="72" height="72" patternTransform="translate(195.52 -16279) rotate(-90)" patternUnits="userSpaceOnUse" viewBox="0 0 72 72">
<g >
<rect class="cls-10" width="72" height="72">
</rect>
<g >
<line class="cls-11" x1="71" y1="71" x2="144.44" y2="71">
</line>
<line class="cls-11" x1="71" y1="67" x2="144.44" y2="67">
</line>
<line class="cls-11" x1="71" y1="63" x2="144.44" y2="63">
</line>
<line class="cls-11" x1="71" y1="59" x2="144.44" y2="59">
</line>
<line class="cls-11" x1="71" y1="55" x2="144.44" y2="55">
</line>
<line class="cls-11" x1="71" y1="51" x2="144.44" y2="51">
</line>
<line class="cls-11" x1="71" y1="47" x2="144.44" y2="47">
</line>
<line class="cls-11" x1="71" y1="43" x2="144.44" y2="43">
</line>
<line class="cls-11" x1="71" y1="39" x2="144.44" y2="39">
</line>
<line class="cls-11" x1="71" y1="35" x2="144.44" y2="35">
</line>
<line class="cls-11" x1="71" y1="31" x2="144.44" y2="31">
</line>
<line class="cls-11" x1="71" y1="27" x2="144.44" y2="27">
</line>
<line class="cls-11" x1="71" y1="23" x2="144.44" y2="23">
</line>
<line class="cls-11" x1="71" y1="19" x2="144.44" y2="19">
</line>
<line class="cls-11" x1="71" y1="15" x2="144.44" y2="15">
</line>
<line class="cls-11" x1="71" y1="11" x2="144.44" y2="11">
</line>
<line class="cls-11" x1="71" y1="7" x2="144.44" y2="7">
</line>
<line class="cls-11" x1="71" y1="3" x2="144.44" y2="3">
</line>
</g>
<g >
<line class="cls-11" x1="-1" y1="71" x2="72.44" y2="71">
</line>
<line class="cls-11" x1="-1" y1="67" x2="72.44" y2="67">
</line>
<line class="cls-11" x1="-1" y1="63" x2="72.44" y2="63">
</line>
<line class="cls-11" x1="-1" y1="59" x2="72.44" y2="59">
</line>
<line class="cls-11" x1="-1" y1="55" x2="72.44" y2="55">
</line>
<line class="cls-11" x1="-1" y1="51" x2="72.44" y2="51">
</line>
<line class="cls-11" x1="-1" y1="47" x2="72.44" y2="47">
</line>
<line class="cls-11" x1="-1" y1="43" x2="72.44" y2="43">
</line>
<line class="cls-11" x1="-1" y1="39" x2="72.44" y2="39">
</line>
<line class="cls-11" x1="-1" y1="35" x2="72.44" y2="35">
</line>
<line class="cls-11" x1="-1" y1="31" x2="72.44" y2="31">
</line>
<line class="cls-11" x1="-1" y1="27" x2="72.44" y2="27">
</line>
<line class="cls-11" x1="-1" y1="23" x2="72.44" y2="23">
</line>
<line class="cls-11" x1="-1" y1="19" x2="72.44" y2="19">
</line>
<line class="cls-11" x1="-1" y1="15" x2="72.44" y2="15">
</line>
<line class="cls-11" x1="-1" y1="11" x2="72.44" y2="11">
</line>
<line class="cls-11" x1="-1" y1="7" x2="72.44" y2="7">
</line>
<line class="cls-11" x1="-1" y1="3" x2="72.44" y2="3">
</line>
<line class="cls-11" x1="1.04" y1="69" x2="74.48" y2="69">
</line>
<line class="cls-11" x1="1.04" y1="65" x2="74.48" y2="65">
</line>
<line class="cls-11" x1="1.04" y1="61" x2="74.48" y2="61">
</line>
<line class="cls-11" x1="1.04" y1="57" x2="74.48" y2="57">
</line>
<line class="cls-11" x1="1.04" y1="53" x2="74.48" y2="53">
</line>
<line class="cls-11" x1="1.04" y1="49" x2="74.48" y2="49">
</line>
<line class="cls-11" x1="1.04" y1="45" x2="74.48" y2="45">
</line>
<line class="cls-11" x1="1.04" y1="41" x2="74.48" y2="41">
</line>
<line class="cls-11" x1="1.04" y1="37" x2="74.48" y2="37">
</line>
<line class="cls-11" x1="1.04" y1="33" x2="74.48" y2="33">
</line>
<line class="cls-11" x1="1.04" y1="29" x2="74.48" y2="29">
</line>
<line class="cls-11" x1="1.04" y1="25" x2="74.48" y2="25">
</line>
<line class="cls-11" x1="1.04" y1="21" x2="74.48" y2="21">
</line>
<line class="cls-11" x1="1.04" y1="17" x2="74.48" y2="17">
</line>
<line class="cls-11" x1="1.04" y1="13" x2="74.48" y2="13">
</line>
<line class="cls-11" x1="1.04" y1="9" x2="74.48" y2="9">
</line>
<line class="cls-11" x1="1.04" y1="5" x2="74.48" y2="5">
</line>
<line class="cls-11" x1="1.04" y1="1" x2="74.48" y2="1">
</line>
</g>
<g >
<line class="cls-11" x1="-73" y1="71" x2=".44" y2="71">
</line>
<line class="cls-11" x1="-73" y1="67" x2=".44" y2="67">
</line>
<line class="cls-11" x1="-73" y1="63" x2=".44" y2="63">
</line>
<line class="cls-11" x1="-73" y1="59" x2=".44" y2="59">
</line>
<line class="cls-11" x1="-73" y1="55" x2=".44" y2="55">
</line>
<line class="cls-11" x1="-73" y1="51" x2=".44" y2="51">
</line>
<line class="cls-11" x1="-73" y1="47" x2=".44" y2="47">
</line>
<line class="cls-11" x1="-73" y1="43" x2=".44" y2="43">
</line>
<line class="cls-11" x1="-73" y1="39" x2=".44" y2="39">
</line>
<line class="cls-11" x1="-73" y1="35" x2=".44" y2="35">
</line>
<line class="cls-11" x1="-73" y1="31" x2=".44" y2="31">
</line>
<line class="cls-11" x1="-73" y1="27" x2=".44" y2="27">
</line>
<line class="cls-11" x1="-73" y1="23" x2=".44" y2="23">
</line>
<line class="cls-11" x1="-73" y1="19" x2=".44" y2="19">
</line>
<line class="cls-11" x1="-73" y1="15" x2=".44" y2="15">
</line>
<line class="cls-11" x1="-73" y1="11" x2=".44" y2="11">
</line>
<line class="cls-11" x1="-73" y1="7" x2=".44" y2="7">
</line>
<line class="cls-11" x1="-73" y1="3" x2=".44" y2="3">
</line>
<line class="cls-11" x1="-70.96" y1="69" x2="2.48" y2="69">
</line>
<line class="cls-11" x1="-70.96" y1="65" x2="2.48" y2="65">
</line>
<line class="cls-11" x1="-70.96" y1="61" x2="2.48" y2="61">
</line>
<line class="cls-11" x1="-70.96" y1="57" x2="2.48" y2="57">
</line>
<line class="cls-11" x1="-70.96" y1="53" x2="2.48" y2="53">
</line>
<line class="cls-11" x1="-70.96" y1="49" x2="2.48" y2="49">
</line>
<line class="cls-11" x1="-70.96" y1="45" x2="2.48" y2="45">
</line>
<line class="cls-11" x1="-70.96" y1="41" x2="2.48" y2="41">
</line>
<line class="cls-11" x1="-70.96" y1="37" x2="2.48" y2="37">
</line>
<line class="cls-11" x1="-70.96" y1="33" x2="2.48" y2="33">
</line>
<line class="cls-11" x1="-70.96" y1="29" x2="2.48" y2="29">
</line>
<line class="cls-11" x1="-70.96" y1="25" x2="2.48" y2="25">
</line>
<line class="cls-11" x1="-70.96" y1="21" x2="2.48" y2="21">
</line>
<line class="cls-11" x1="-70.96" y1="17" x2="2.48" y2="17">
</line>
<line class="cls-11" x1="-70.96" y1="13" x2="2.48" y2="13">
</line>
<line class="cls-11" x1="-70.96" y1="9" x2="2.48" y2="9">
</line>
<line class="cls-11" x1="-70.96" y1="5" x2="2.48" y2="5">
</line>
<line class="cls-11" x1="-70.96" y1="1" x2="2.48" y2="1">
</line>
</g>
</g>
</pattern>
</defs>
  <path
     id="circle1849"
     style="fill:#AA00DD;stroke:#000000;stroke-width:2"
     d="M 34.875,3.84375 C 30.2026,3.8566827 25.91896,6.4477515 23.738281,10.580078 21.63936,9.1446679 19.156089,8.3761337 16.613281,8.375 9.636905,8.3755251 3.9818685,14.031436 3.9824219,21.007812 c 0.012178,4.019812 1.9368978,7.79383 5.1835937,10.164063 -1.8357739,2.246976 -2.8420262,5.057448 -2.8496094,7.958984 0.00713,1.935325 0.4588528,3.843134 1.3203126,5.576172 -2.4145566,2.364898 -3.7807042,5.598771 -3.7929688,8.978516 0.00466,4.996359 2.9538661,9.520462 7.523438,11.541015 0.767283,6.336372 6.140784,11.10481 12.523437,11.113282 3.186693,-0.0091 6.252191,-1.222333 8.582031,-3.396485 1.867081,1.045968 3.9693,1.600422 6.109375,1.611329 2.723791,-0.01118 5.371006,-0.902492 7.546875,-2.541016 1.56279,0.673484 3.245549,1.024252 4.947266,1.03125 6.977139,5.53e-4 12.633366,-5.655674 12.632812,-12.632813 -0.0013,-2.652818 -0.837669,-5.237911 -2.390625,-7.388671 2.480721,-2.37284 3.888874,-5.653124 3.900391,-9.085938 -9.13e-4,-3.96978 -1.867955,-7.708203 -5.041016,-10.09375 2.59288,-2.385063 4.071919,-5.744584 4.080078,-9.267578 C 64.257287,17.599796 58.601376,11.944759 51.625,11.945312 50.032147,11.955601 48.455612,12.267065 46.978516,12.863281 45.38146,7.5117456 40.459758,3.8440964 34.875,3.84375 Z"/>



<g id="Capa_10">
<g >
<path class="cls-1" d="M61.4,66.11v8.06l-29.45,3.79-23.58-5.62,.12-7.09,16.5-4.15s1.46-5.38-.37-8.55c0,0-7.94,.85-12.46-3.91-.73-13.93,1.95-25.66,8.31-31.4,6.35-5.74,16.12-5.13,21.62-3.79,5.5,1.34,11,7.33,13.44,17.72,2.44,10.38,.86,17.59,.86,17.59,0,0-5.8,4.52-11.3,3.62-.14-.02-.29-.05-.43-.08-.99,1.52-1.22,2.32-1.22,2.32l1.1,6.11,16.86,5.38Z">
</path>
<path class="cls-4" d="M30.86,41.66l.88-5.17c-3.83-1.7-6.3-1.57-6.3-1.57,0,0-3.26,1.07-4,1.47,.5,1.9,1.87,3.23,1.87,3.23,0,0,3.96-1.23,5.16-1.13,1.5,.63,2.39,3.17,2.39,3.17Z">
</path>
<path class="cls-2" d="M34.06,58.82v-26.2l12.79,.64s-.38-5.63-.41-7.23c4.61,6.51,2.49,17.29-.27,23.34-2.67,5.51-6.75,8.73-8.29,9.52s-3.82-.08-3.82-.08Z">
</path>
<path class="cls-5" d="M56.39,48.76s-5.8,4.52-11.3,3.62c-.01-.01-.02-.03-.03-.05,2-3.69,4.43-13.58,4-17.37-.4-3.62-2.44-8.5-2.62-8.92,.08,.35,.91,4.03,.41,7.23-1.05-.31-15.36-1.26-24.73,.21-.61-2.45,1.26-8.99,1.36-9.35-.16,.26-2.75,4.54-3.47,11.88-.63,7.26,4.61,16.54,4.61,16.54,0,0-7.94,.85-12.46-3.91-.73-13.93,1.95-25.66,8.31-31.4,6.35-5.74,16.12-5.13,21.62-3.79,5.5,1.34,11,7.33,13.44,17.72,2.44,10.38,.86,17.59,.86,17.59Z">
</path>
<path d="M13.97,29.56s3.09-3.77,6.06,2.86c-.57,10.18,4.59,20.13,4.59,20.13,0,0-6.26,1.56-12.46-3.91-1.17-12.56,1.81-19.08,1.81-19.08Z">
</path>
<path class="cls-3" d="M30.86,41.66c-.2-.79,.14-1.9-2.54-3.18-3.66,.16-5.01,1.03-5.01,1.03,0,0,.23,2.5,2.51,3.05s5.04-.91,5.04-.91Z">
</path>
<path class="cls-3" d="M37.69,41.66c.2-.79-.14-1.9,2.54-3.18,3.66,.16,5.01,1.03,5.01,1.03,0,0-.23,2.5-2.51,3.05s-5.04-.91-5.04-.91Z">
</path>
<path d="M43.27,55.18l-15.24,20.91-18.12-2.69-1.42-8.14,16.2-4.21,.84-6.69s3.44,4.09,5.76,4.74,5.39,.09,6.6-.19,5.39-3.72,5.39-3.72Z">
</path>
<path class="cls-2" d="M42.16,58.61l-12.18,17.78,29.36-2.06,1.77-6.78-15.19-4.43c-1.97-.47-3.45-2.11-3.72-4.12l-.05-.39Z">
</path>
<path class="cls-1" d="M35.82,34.21c.07,0,6.9,.08,10.84,.8,.1,.02,.21,.04,.31,.04,.19,0,.39-.04,.57-.12,.03,.48,.04,.97,.04,1.46,0,1.72-.19,3.5-.55,5.31-1.37,6.72-3.77,11.26-7.78,14.73-.99,.87-2.31,1.34-3.71,1.34h-1.87c-1.39,0-2.71-.47-3.71-1.34-4.01-3.45-6.41-8-7.78-14.73-.51-2.49-.62-4.75-.5-6.76,.18,.07,.36,.11,.56,.11,.11,0,.22-.01,.28-.03,3.96-.73,10.81-.81,10.87-.81h2.44m10.93-7.1c.51,2.18,.95,4.73,.72,6.51-.02,.13-.1,.25-.21,.33-.09,.06-.19,.1-.29,.1-.03,0-.06,0-.09,0-4.06-.75-10.99-.83-11.06-.83h-2.44c-.06,0-6.99,.08-11.05,.83-.03,0-.07,.01-.1,.01-.1,0-.2-.03-.28-.1-.11-.08-.19-.2-.21-.33-.23-1.77,.19-4.28,.71-6.46-1.33,3.15-2.58,8.22-1.25,14.74,1.42,6.96,3.92,11.68,8.11,15.29,1.18,1.02,2.73,1.58,4.36,1.58h1.87c1.64,0,3.19-.56,4.37-1.59,4.18-3.61,6.68-8.32,8.1-15.28,.4-1.98,.57-3.82,.57-5.51,0-3.94-.9-7.08-1.83-9.28h0Z">
</path>
<path class="cls-15" d="M22.94,15.11s-3.86,15.35,27.82,4.58c3.86,5.21,4.13,9.51,4.13,9.51,0,0-6.91-5.3-20.55-1.79s-17.05-6.64-17.05-6.64c0,0,2.69-4.04,5.65-5.65Z">
</path>
<path class="cls-2" d="M25.31,44.04c.98,.11,2.73,.12,4.69-.7,.33-.14,.67,.22,.49,.54-1.76,3.27-3.92,3.04-5.53,.77-.19-.27,.02-.65,.35-.61Z">
</path>
<path class="cls-4" d="M37.73,41.49s-1.17-3.41-.7-4.68c1.82-1.36,6.22-1.92,6.22-1.92l3.93,1.45-1.96,3.65s-2.39-1.73-5.43-1.36c-1.54,.7-2.29,2.39-2.06,2.85Z">
</path>
<path d="M49.08,35.7s1.61,10.15,6.94,5.08c.68,6.01,.08,8.29,.08,8.29,0,0-6.39,4.94-11.45,3.23,3.49-5.35,4.59-14.91,4.42-16.6Z">
</path>
<path class="cls-8" d="M44.84,52.46c7.22,.44,11.52-3.59,11.52-3.59,0,0,1.44-16.25-4.06-26.48-5.5-10.24-16.33-9.98-16.33-9.98h-3.25s-10.83-.25-16.33,9.98-4.06,26.48-4.06,26.48c0,0,2.87,4.03,12.35,4.03">
</path>
<path class="cls-8" d="M48.5,42c-1.65,8.09-4.62,12.42-8.26,15.56-1.3,1.12-2.98,1.71-4.7,1.71h-1.87c-1.71,0-3.39-.58-4.69-1.7-3.65-3.14-6.62-7.47-8.27-15.57-2.31-11.31,3.03-18.36,3.37-18.79-.12,.37-2.29,6.91-1.84,10.34,4.15-.77,11.14-.84,11.14-.84h2.45s6.99,.07,11.14,.84c.45-3.43-1.71-9.97-1.83-10.34,.34,.43,5.67,7.48,3.36,18.79Z">
</path>
<path d="M31.83,36.05l-.26,1.36s-2.55-1.86-5.89-2.05c-2.67,.57-4.31,1.08-4.31,1.08,0,0,1.53-1.77,4.11-2.48,3.53,.24,6.35,2.1,6.35,2.1Z">
</path>
<path d="M30.61,40.41c-.64-.65-1.42-1.45-2.3-1.62-1.38,0-3.27,.43-4.7,1.06,0,0,.28-.56,.28-.56,.25,1.07,.6,2.13,1.48,2.64,.94,.55,2.16,.51,3.26,.5-1.69,.69-4.09,.7-5.03-1.17-.33-.56-.51-1.16-.66-1.75-.06-.23,.06-.46,.27-.55,.82-.38,1.68-.63,2.56-.79,.89-.16,1.81-.19,2.72-.04,1.08,.41,1.67,1.33,2.14,2.28h0Z">
</path>
<path d="M22.12,38.49s.35,.6,2.01,.17c-.73,.95-.39,2.07-.39,2.07,0,0-1.55-.33-1.62-2.24Z">
</path>
<path d="M36.69,36.05l.26,1.36s2.55-1.86,5.89-2.05c2.67,.57,4.31,1.08,4.31,1.08,0,0-1.53-1.77-4.11-2.48-3.53,.24-6.35,2.1-6.35,2.1Z">
</path>
<path d="M37.9,40.41c.48-.95,1.06-1.88,2.15-2.29,.9-.14,1.82-.11,2.71,.04,.88,.16,1.74,.41,2.56,.79,.21,.1,.32,.33,.27,.55-.15,.59-.33,1.19-.66,1.75-.94,1.86-3.35,1.86-5.03,1.17,1.09,.02,2.32,.06,3.26-.5,.87-.51,1.23-1.57,1.48-2.64l.28,.56c-1.42-.63-3.33-1.06-4.7-1.06-.88,.17-1.66,.97-2.3,1.62h0Z">
</path>
<path d="M46.39,38.49s-.35,.6-2.01,.17c.73,.95,.39,2.07,.39,2.07,0,0,1.55-.33,1.62-2.24Z">
</path>
<path d="M36.09,44.42c.5,.49,1.02,1.15,.94,1.9-.27,.65-1.04,.87-1.58,1.13-.47,.13-.94,.42-1.43,.38-.84-.26-1.73-.5-2.44-1.06-.83-.62,.08-1.84,.63-2.35-.16,.5-.41,1.32-.29,1.71,.65,.25,1.59,.55,2.37,.74,0,0-.26,0-.26,0,.74-.2,1.53-.4,2.16-.67,.07-.03,.14-.07,.17-.1,.03-.04,0,.08,.04-.04,.07-.54-.14-1.1-.3-1.65h0Z">
</path>
<path class="cls-17" d="M29.59,52.74s1.43,2.75,4.58,2.75,4.55-2.79,4.55-2.79l-1.95-1.1-5.47,.12-1.71,1.03Z">
</path>
<path class="cls-2" d="M31.46,52.02s.94,1.08,2.82,1.08,2.88-1.03,2.88-1.03c0,0-2.31-3.31-5.7-.06Z">
</path>
<path d="M34.44,48.77c1.5,0,3.15,1.17,3.9,2.67,.36,.72,.99,1.08,1.53,1.25-.51,.17-1.29,.24-2.33-.25-1.96-.91-2.37-1.03-3.12-1.03h-.28c-.75,0-1.16,.12-3.12,1.03-1.04,.49-1.82,.42-2.33,.25,.55-.17,1.17-.53,1.53-1.25,.75-1.5,2.4-2.67,3.9-2.67h.32Z">
</path>
<path class="cls-12" d="M25.49,53.82s.43,5.64-.97,7.17c-6.5,2.02-16.22,4.78-16.22,4.78">
</path>
<path d="M19.07,74.49c-1.1-5.29,.55-11.6,.63-11.84l-1.82,.55s-1.78,5.6-.76,10.22c1.31,.38,1.96,1.08,1.96,1.08Z">
</path>
<path class="cls-12" d="M43.67,53.82s-.43,5.64,.97,7.17c6.5,2.02,16.22,4.78,16.22,4.78">
</path>
<path d="M50.1,74.49c1.1-5.29-.55-11.6-.63-11.84l1.82,.55s1.78,5.6,.76,10.22c-1.31,.38-1.96,1.08-1.96,1.08Z">
</path>
<path class="cls-1" d="M26.7,58.31c-.04,1.24-.18,2.47-.35,3.7-4.8,2.03-9.84,3.54-15.04,4.06,0,0-.03-.1-.03-.1,4.28-1.34,10.27-3.2,14.5-4.45-.16,.28,.86-3.3,.82-3.24,0,0,.1,.02,.1,.02h0Z">
</path>
<path class="cls-15" d="M14.08,32.4c.16,5.1-.4,10.54,.02,15.6,0,0-.23-.46-.23-.46,1.69,1.69,3.98,2.63,6.28,3.23,.8,.22,1.62,.37,2.46,.51v.1c-3.33-.03-6.98-.81-9.41-3.24-.36-2.62-.21-5.27-.04-7.9,.19-2.63,.47-5.24,.83-7.85,0,0,.1,.01,.1,.01h0Z">
</path>
</g>
</g>

</svg>
