<svg id="Capa_2" xmlns="http://www.w3.org/2000/svg" xmlns:xlink="http://www.w3.org/1999/xlink" viewBox="0 0 69.02 80">
<defs >
<style >
.cls-1{fill:#000000;}.cls-2{fill:#000;}.cls-3{fill:#000000;}.cls-4{fill:#000000;}.cls-5{fill:#000000;}.cls-6{fill:#000000;}.cls-7{stroke-miterlimit:10;}.cls-7,.cls-8,.cls-9,.cls-10,.cls-11,.cls-12,.cls-13{fill:none;}.cls-7,.cls-9,.cls-11,.cls-13{stroke:#000;}.cls-8{stroke:#000000;stroke-dasharray:0 0 0 4.06;}.cls-8,.cls-9,.cls-11,.cls-13{stroke-linecap:round;stroke-linejoin:round;}.cls-9{stroke-width:.95px;}.cls-14{fill:#000000;}.cls-15{fill:url(#USGS_19_Inundación_de_tierra_2);}.cls-11{stroke-width:.96px;}.cls-12{stroke:#000000;stroke-dasharray:0 0 2 2;stroke-width:.3px;}.cls-13{stroke-width:1px;}.cls-16{fill:#000000;}.cls-17{fill:#000000;}
</style>
<pattern id="USGS_19_Inundación_de_tierra_2" x="0" y="0" width="72" height="72" patternTransform="translate(123.52 -16279) rotate(-90)" patternUnits="userSpaceOnUse" viewBox="0 0 72 72">
<g >
<rect class="cls-10" width="72" height="72">
</rect>
<g >
<line class="cls-12" x1="71" y1="71" x2="144.44" y2="71">
</line>
<line class="cls-12" x1="71" y1="67" x2="144.44" y2="67">
</line>
<line class="cls-12" x1="71" y1="63" x2="144.44" y2="63">
</line>
<line class="cls-12" x1="71" y1="59" x2="144.44" y2="59">
</line>
<line class="cls-12" x1="71" y1="55" x2="144.44" y2="55">
</line>
<line class="cls-12" x1="71" y1="51" x2="144.44" y2="51">
</line>
<line class="cls-12" x1="71" y1="47" x2="144.44" y2="47">
</line>
<line class="cls-12" x1="71" y1="43" x2="144.44" y2="43">
</line>
<line class="cls-12" x1="71" y1="39" x2="144.44" y2="39">
</line>
<line class="cls-12" x1="71" y1="35" x2="144.44" y2="35">
</line>
<line class="cls-12" x1="71" y1="31" x2="144.44" y2="31">
</line>
<line class="cls-12" x1="71" y1="27" x2="144.44" y2="27">
</line>
<line class="cls-12" x1="71" y1="23" x2="144.44" y2="23">
</line>
<line class="cls-12" x1="71" y1="19" x2="144.44" y2="19">
</line>
<line class="cls-12" x1="71" y1="15" x2="144.44" y2="15">
</line>
<line class="cls-12" x1="71" y1="11" x2="144.44" y2="11">
</line>
<line class="cls-12" x1="71" y1="7" x2="144.44" y2="7">
</line>
<line class="cls-12" x1="71" y1="3" x2="144.44" y2="3">
</line>
</g>
<g >
<line class="cls-12" x1="-1" y1="71" x2="72.44" y2="71">
</line>
<line class="cls-12" x1="-1" y1="67" x2="72.44" y2="67">
</line>
<line class="cls-12" x1="-1" y1="63" x2="72.44" y2="63">
</line>
<line class="cls-12" x1="-1" y1="59" x2="72.44" y2="59">
</line>
<line class="cls-12" x1="-1" y1="55" x2="72.44" y2="55">
</line>
<line class="cls-12" x1="-1" y1="51" x2="72.44" y2="51">
</line>
<line class="cls-12" x1="-1" y1="47" x2="72.44" y2="47">
</line>
<line class="cls-12" x1="-1" y1="43" x2="72.44" y2="43">
</line>
<line class="cls-12" x1="-1" y1="39" x2="72.44" y2="39">
</line>
<line class="cls-12" x1="-1" y1="35" x2="72.44" y2="35">
</line>
<line class="cls-12" x1="-1" y1="31" x2="72.44" y2="31">
</line>
<line class="cls-12" x1="-1" y1="27" x2="72.44" y2="27">
</line>
<line class="cls-12" x1="-1" y1="23" x2="72.44" y2="23">
</line>
<line class="cls-12" x1="-1" y1="19" x2="72.44" y2="19">
</line>
<line class="cls-12" x1="-1" y1="15" x2="72.44" y2="15">
</line>
<line class="cls-12" x1="-1" y1="11" x2="72.44" y2="11">
</line>
<line class="cls-12" x1="-1" y1="7" x2="72.44" y2="7">
</line>
<line class="cls-12" x1="-1" y1="3" x2="72.44" y2="3">
</line>
<line class="cls-12" x1="1.04" y1="69" x2="74.48" y2="69">
</line>
<line class="cls-12" x1="1.04" y1="65" x2="74.48" y2="65">
</line>
<line class="cls-12" x1="1.04" y1="61" x2="74.48" y2="61">
</line>
<line class="cls-12" x1="1.04" y1="57" x2="74.48" y2="57">
</line>
<line class="cls-12" x1="1.04" y1="53" x2="74.48" y2="53">
</line>
<line class="cls-12" x1="1.04" y1="49" x2="74.48" y2="49">
</line>
<line class="cls-12" x1="1.04" y1="45" x2="74.48" y2="45">
</line>
<line class="cls-12" x1="1.04" y1="41" x2="74.48" y2="41">
</line>
<line class="cls-12" x1="1.04" y1="37" x2="74.48" y2="37">
</line>
<line class="cls-12" x1="1.04" y1="33" x2="74.48" y2="33">
</line>
<line class="cls-12" x1="1.04" y1="29" x2="74.48" y2="29">
</line>
<line class="cls-12" x1="1.04" y1="25" x2="74.48" y2="25">
</line>
<line class="cls-12" x1="1.04" y1="21" x2="74.48" y2="21">
</line>
<line class="cls-12" x1="1.04" y1="17" x2="74.48" y2="17">
</line>
<line class="cls-12" x1="1.04" y1="13" x2="74.48" y2="13">
</line>
<line class="cls-12" x1="1.04" y1="9" x2="74.48" y2="9">
</line>
<line class="cls-12" x1="1.04" y1="5" x2="74.48" y2="5">
</line>
<line class="cls-12" x1="1.04" y1="1" x2="74.48" y2="1">
</line>
</g>
<g >
<line class="cls-12" x1="-73" y1="71" x2=".44" y2="71">
</line>
<line class="cls-12" x1="-73" y1="67" x2=".44" y2="67">
</line>
<line class="cls-12" x1="-73" y1="63" x2=".44" y2="63">
</line>
<line class="cls-12" x1="-73" y1="59" x2=".44" y2="59">
</line>
<line class="cls-12" x1="-73" y1="55" x2=".44" y2="55">
</line>
<line class="cls-12" x1="-73" y1="51" x2=".44" y2="51">
</line>
<line class="cls-12" x1="-73" y1="47" x2=".44" y2="47">
</line>
<line class="cls-12" x1="-73" y1="43" x2=".44" y2="43">
</line>
<line class="cls-12" x1="-73" y1="39" x2=".44" y2="39">
</line>
<line class="cls-12" x1="-73" y1="35" x2=".44" y2="35">
</line>
<line class="cls-12" x1="-73" y1="31" x2=".44" y2="31">
</line>
<line class="cls-12" x1="-73" y1="27" x2=".44" y2="27">
</line>
<line class="cls-12" x1="-73" y1="23" x2=".44" y2="23">
</line>
<line class="cls-12" x1="-73" y1="19" x2=".44" y2="19">
</line>
<line class="cls-12" x1="-73" y1="15" x2=".44" y2="15">
</line>
<line class="cls-12" x1="-73" y1="11" x2=".44" y2="11">
</line>
<line class="cls-12" x1="-73" y1="7" x2=".44" y2="7">
</line>
<line class="cls-12" x1="-73" y1="3" x2=".44" y2="3">
</line>
<line class="cls-12" x1="-70.96" y1="69" x2="2.48" y2="69">
</line>
<line class="cls-12" x1="-70.96" y1="65" x2="2.48" y2="65">
</line>
<line class="cls-12" x1="-70.96" y1="61" x2="2.48" y2="61">
</line>
<line class="cls-12" x1="-70.96" y1="57" x2="2.48" y2="57">
</line>
<line class="cls-12" x1="-70.96" y1="53" x2="2.48" y2="53">
</line>
<line class="cls-12" x1="-70.96" y1="49" x2="2.48" y2="49">
</line>
<line class="cls-12" x1="-70.96" y1="45" x2="2.48" y2="45">
</line>
<line class="cls-12" x1="-70.96" y1="41" x2="2.48" y2="41">
</line>
<line class="cls-12" x1="-70.96" y1="37" x2="2.48" y2="37">
</line>
<line class="cls-12" x1="-70.96" y1="33" x2="2.48" y2="33">
</line>
<line class="cls-12" x1="-70.96" y1="29" x2="2.48" y2="29">
</line>
<line class="cls-12" x1="-70.96" y1="25" x2="2.48" y2="25">
</line>
<line class="cls-12" x1="-70.96" y1="21" x2="2.48" y2="21">
</line>
<line class="cls-12" x1="-70.96" y1="17" x2="2.48" y2="17">
</line>
<line class="cls-12" x1="-70.96" y1="13" x2="2.48" y2="13">
</line>
<line class="cls-12" x1="-70.96" y1="9" x2="2.48" y2="9">
</line>
<line class="cls-12" x1="-70.96" y1="5" x2="2.48" y2="5">
</line>
<line class="cls-12" x1="-70.96" y1="1" x2="2.48" y2="1">
</line>
</g>
</g>
</pattern>
</defs>
  <path
     id="circle1849"
     style="fill:#AA00DD;stroke:#000000;stroke-width:2"
     d="M 34.875,3.84375 C 30.2026,3.8566827 25.91896,6.4477515 23.738281,10.580078 21.63936,9.1446679 19.156089,8.3761337 16.613281,8.375 9.636905,8.3755251 3.9818685,14.031436 3.9824219,21.007812 c 0.012178,4.019812 1.9368978,7.79383 5.1835937,10.164063 -1.8357739,2.246976 -2.8420262,5.057448 -2.8496094,7.958984 0.00713,1.935325 0.4588528,3.843134 1.3203126,5.576172 -2.4145566,2.364898 -3.7807042,5.598771 -3.7929688,8.978516 0.00466,4.996359 2.9538661,9.520462 7.523438,11.541015 0.767283,6.336372 6.140784,11.10481 12.523437,11.113282 3.186693,-0.0091 6.252191,-1.222333 8.582031,-3.396485 1.867081,1.045968 3.9693,1.600422 6.109375,1.611329 2.723791,-0.01118 5.371006,-0.902492 7.546875,-2.541016 1.56279,0.673484 3.245549,1.024252 4.947266,1.03125 6.977139,5.53e-4 12.633366,-5.655674 12.632812,-12.632813 -0.0013,-2.652818 -0.837669,-5.237911 -2.390625,-7.388671 2.480721,-2.37284 3.888874,-5.653124 3.900391,-9.085938 -9.13e-4,-3.96978 -1.867955,-7.708203 -5.041016,-10.09375 2.59288,-2.385063 4.071919,-5.744584 4.080078,-9.267578 C 64.257287,17.599796 58.601376,11.944759 51.625,11.945312 50.032147,11.955601 48.455612,12.267065 46.978516,12.863281 45.38146,7.5117456 40.459758,3.8440964 34.875,3.84375 Z"/>



<g id="Capa_10">
<g >
<path class="cls-1" d="M19.13,35.54s-1.52-2.15-2.86-1.16-.36,5.46,.36,7.33,1.79,4.2,4.74,3.94c1.52,4.65,4.02,8.05,4.02,8.05l-.63,5.9-17.44,5.28,1.52,7.96,26.38,4.56,23.16-3.4,2.86-9.75-17.08-4.56-.18-5.9s2.95-4.47,4.02-7.87c3.13,.89,5.46-4.83,5.72-6.08s-.18-5.46-1.25-5.28-2.41,1.7-2.41,1.7l1.16-5.55s-6.98-9.12-16.28-10.02c-10.82,.18-17.17,.98-15.83,14.85Z">
</path>
<path class="cls-2" d="M34.46,58.69V22.4l1.52-.07,4.33,1.73s9.02,3.68,10.46,5.12c-.14,8.15-2.81,17.53-3.82,20.06s-6.57,9.31-12.48,9.45Z">
</path>
<path d="M19.27,35.96s-1.62-2.18-2.75-1.48-.99,5.21,.21,7.6,2.85,3.87,4.63,3.56c-1.18-4.89-2.1-9.68-2.1-9.68Z">
</path>
<path class="cls-3" d="M31.31,41.45s-.28-2.32-.49-2.61c-3.73-.07-6.69,1.62-6.69,1.62,0,0,3.1,2.46,7.18,.99Z">
</path>
<path class="cls-3" d="M38.26,41.45s.28-2.32,.49-2.61c3.73-.07,6.69,1.62,6.69,1.62,0,0-3.1,2.46-7.18,.99Z">
</path>
<path d="M43.81,54.93l-20.77,20.48-15.21-2.44,.39-8.88,16.56-4.5,.7-6.33s5.27,4.68,8.49,5.27,8.78-3.41,9.66-4.29c.39,.29,.2,.68,.2,.68Z">
</path>
<path class="cls-2" d="M40.9,59.36l-15.15,15.23,25.58,3.25,8.04-5.78,1.9-5.51-18.53-5.51-.05-1c-.05-.9-1.14-1.32-1.78-.68Z">
</path>
<path class="cls-2" d="M25.08,42.78c.94,.22,2.43,.43,4.25,.25,.57-.06,.9,.65,.48,1.05-2.09,1.94-4.13,2.47-5.41-.44-.21-.47,.19-.97,.69-.85Z">
</path>
<path class="cls-1" d="M34.7,25.06c.92,2.56,3.07,4.07,4.33,4.96,.27,.19,.61,.43,.68,.51,.19,.24,.48,.37,.78,.37,.08,0,.17-.01,.26-.03,.38-.1,.67-.42,.73-.8,.16-.99,.02-2-.22-2.88,1.12,.55,2.32,1.21,2.83,1.74,1.16,1.2,1.95,2.48,1.96,2.49,.18,.3,.51,.47,.85,.47,.04,0,.07,0,.11,0,.38-.04,.71-.3,.83-.67,.02-.07,.13-.38,.23-.8,.39,.54,.77,1.24,1.12,2.05-.8,6.97-2.94,14.86-3.96,16.64-1.51,2.62-3.02,4.66-5.5,6.07-1.5,.87-2.46,1.35-3.18,1.63-.7,.27-1.22,.37-1.8,.37-1.15,0-2.27-.45-4.99-2.01-2.48-1.41-3.99-3.45-5.5-6.07-.84-1.46-2.68-7.74-3.67-14.32,.06-.42,.11-.79,.16-1.12,.22,.26,.39,.35,.55,.41,.11,.04,.22,.06,.33,.06,.22,0,.44-.07,.62-.21,.27-.21,.41-.55,.38-.89-.12-1.19-.1-4.5,1.5-5.58,.82-.56,1.81-1,2.74-1.34-.52,.81-.97,1.74-1.12,2.7-.06,.41,.14,.82,.51,1.02,.15,.08,.32,.12,.48,.12,.23,0,.47-.08,.65-.24,1.29-1.11,2.92-2.03,4.36-2.84,1.11-.62,2.13-1.2,2.94-1.81m.59-2.04c-1.09,1.93-5.52,3.34-8.54,5.94,.36-2.39,3.02-4.69,3.02-4.69,0,0-3.75,.68-6.2,2.35-2.45,1.66-1.93,6.51-1.93,6.51,0,0-.31-.11-1.25-2.19-.36,.77-.64,2.53-.81,3.85,.97,6.54,2.84,13.13,3.81,14.81,1.59,2.76,3.19,4.91,5.87,6.44,2.9,1.66,4.13,2.14,5.49,2.14,.68,0,1.32-.12,2.16-.44,.83-.32,1.86-.86,3.32-1.7,2.68-1.53,4.28-3.68,5.87-6.44,1.09-1.89,3.32-10.02,4.12-17.28-.53-1.3-1.55-3.3-2.95-3.98,.16,1.04-.36,2.55-.36,2.55,0,0-.84-1.36-2.09-2.66-1.21-1.26-5.15-2.87-5.4-2.96,.07,.13,1.43,2.5,1.08,4.63-.63-.78-4.9-2.61-5.21-6.88h0Z">
</path>
<path class="cls-4" d="M38.16,40.8l-.59-4.98,5.63-.59s2.75,.85,4.19,2.03c-.92,2.68-1.9,2.68-1.9,2.68l-6.74-1.1-.59,1.95Z">
</path>
<path class="cls-4" d="M31.39,40.8l.59-4.98-5.63-.59s-2.75,.85-4.19,2.03c.92,2.68,1.9,2.68,1.9,2.68l6.74-1.1,.59,1.95Z">
</path>
<path class="cls-17" d="M30.29,50.64s.81,3.6,4.32,3.6,4.41-3.62,4.41-3.62l-8.74,.02Z">
</path>
<path class="cls-2" d="M31.2,50.63s1.25,1.56,3.29,1.56c2.52,0,3.4-1.55,3.4-1.55">
</path>
<polyline class="cls-13" points="25.22 53.69 24.82 59.67 7.51 64.78">
</polyline>
<path class="cls-9" d="M19.26,36.11s-1.45-2.34-2.68-1.7-1.11,4.57-.06,6.92,2.33,4.73,4.89,4.31">
</path>
<path d="M31.27,41.16c-.16-.67-.38-1.56-.82-2.05,0,0,.38,.23,.38,.23-1.73-.1-3.49,.09-5.14,.6-.54,.17-1.11,.38-1.58,.62l.13-.74c1.24,1.38,3.22,1.97,5.06,2.08-1.99,.2-4.16-.1-5.76-1.44-.25-.21-.17-.62,.13-.74,2.26-1.09,4.78-1.47,7.27-1.33,.16,0,.29,.1,.35,.23,.29,.91,.13,1.66,0,2.53h0Z">
</path>
<path d="M33.19,34.79s-1.13,1.6-1.39,1.88c-3.71-.42-5.05-.99-6.19-.9s-3.71,1.51-3.71,1.51c0,0,1.96-2.36,5.15-2.87,2.58,0,6.13,.38,6.13,.38Z">
</path>
<path class="cls-13" d="M40.48,56.47c2.86-1.63,4.5-3.92,6.05-6.62s5.64-18.55,4.17-26.15c-1.1-5.68-8.03-9.82-15.94-9.82-7.92,0-14.87,4.14-15.97,9.82-1.47,7.6,2.61,23.45,4.17,26.15,1.55,2.7,3.19,4.99,6.05,6.62,2.86,1.64,4.2,2.21,5.74,2.21s2.87-.57,5.73-2.21Z">
</path>
<path class="cls-9" d="M50.22,36.44s1.45-2.34,2.68-1.7,1.11,4.57,.06,6.92-2.33,4.73-4.89,4.31">
</path>
<path d="M38.21,41.16c-.13-.87-.29-1.62,0-2.53,.07-.15,.22-.23,.38-.23,2.48-.14,4.98,.24,7.24,1.33,.24,.1,.35,.39,.22,.62-1.54,1.47-3.85,1.74-5.86,1.55,1.84-.11,3.82-.69,5.06-2.08,0,0,.13,.74,.13,.74-.48-.24-1.04-.45-1.58-.62-1.66-.51-3.41-.7-5.14-.6l.38-.23c-.44,.48-.66,1.37-.82,2.05h0Z">
</path>
<path d="M36.3,34.79s1.13,1.6,1.39,1.88c3.71-.42,5.05-.99,6.19-.9s3.71,1.51,3.71,1.51c0,0-1.96-2.36-5.15-2.87-2.58,0-6.13,.38-6.13,.38Z">
</path>
<path d="M32.44,45.09c-.17,.39-.38,.74-.6,1.09v-.25c.15,.14,.3,.3,.46,.45,.16,.15,.32,.3,.46,.47l-.3-.03c.26-.16,.5-.34,.77-.49,.06-.05,.15-.05,.21,0,.29,.25,.58,.51,.84,.82-.37-.14-.71-.33-1.05-.52h.21c-.26,.15-.72,.76-1,.56-.32-.31-.61-.65-.9-.99-.07-.07-.08-.18-.01-.25,.28-.3,.57-.6,.9-.86h0Z">
</path>
<path d="M36.65,45.09c.33,.26,.62,.56,.9,.86,.07,.07,.05,.18-.01,.25-.29,.34-.58,.68-.9,.99-.29,.2-.73-.4-1-.56,0,0,.21,0,.21,0-.34,.19-.68,.38-1.05,.52,.26-.3,.54-.56,.84-.82,.06-.06,.15-.04,.21,0,.27,.15,.51,.33,.77,.49l-.3,.03c.14-.17,.3-.31,.46-.47,.16-.15,.31-.31,.48-.45v.25c-.23-.35-.45-.7-.61-1.09h0Z">
</path>
<path class="cls-11" d="M28.47,49.92s.59-.56,1.43-.92">
</path>
<path class="cls-11" d="M40.69,49.92s-.59-.56-1.43-.92">
</path>
<path class="cls-11" d="M39.98,49.45s-.64,.98-1.6,.98h-3.03s-1.45,0-1.45,0h-3.03c-.97,0-1.6-.98-1.6-.98">
</path>
<path d="M30.62,50.29s2.12-1.41,3.96-1.41,3.94,1.36,3.94,1.36l-7.9,.04Z">
</path>
<path d="M19.4,36.41s.36-4.17,.99-5.47c.94,2.08,1.25,2.19,1.25,2.19,0,0-.52-4.84,1.93-6.51s6.2-2.34,6.2-2.34c0,0-2.66,2.29-3.02,4.69,3.02-2.6,7.45-4.01,8.54-5.94,.31,4.27,4.58,6.09,5.21,6.88,.36-2.19-1.09-4.64-1.09-4.64,0,0,4.17,1.67,5.42,2.97s2.08,2.66,2.08,2.66c0,0,.52-1.51,.36-2.55,2.14,1.04,3.39,5.16,3.39,5.16,0,0,1.3-7.08-.73-12.34s-12.14-7.66-16.67-7.34-12.5,3.23-14.27,8.85c-1.46,4.95,.42,13.75,.42,13.75Z">
</path>
<line class="cls-13" x1="16.93" y1="62.29" x2="20.18" y2="74.93">
</line>
<polyline class="cls-13" points="43.98 53.69 44.37 59.67 61.68 64.78">
</polyline>
<line class="cls-13" x1="52.26" y1="62.29" x2="49.01" y2="74.93">
</line>
<path class="cls-5" d="M20.65,20.96s2.66-3.39,7.18-5.2c-1.3,2.32,2.26,3.9,6.56,2.15s9.96-1.41,12.84,1.58c2.38,2.49,2.66,5.77,2.66,5.77,0,0-4.7-8.43-15.61-5.49-11.48,3.28-9.11-.79-13.63,1.19Z">
</path>
<path class="cls-1" d="M26.07,56.68c.25,1.36,.37,2.73,.48,4.1-5.07,2.05-10.35,3.59-15.81,4.15,0,0-.03-.1-.03-.1,4.38-1.28,11.03-3.43,15.12-4.45,0,0,.13-3.71,.13-3.71h.1Z">
</path>
</g>
</g>

</svg>
