<svg id="Capa_2" xmlns="http://www.w3.org/2000/svg" xmlns:xlink="http://www.w3.org/1999/xlink" viewBox="0 0 69.02 80">
<defs >
<style >
.cls-1{fill:#000000;}.cls-2{fill:#000;}.cls-3{fill:#000000;}.cls-4{fill:#000000;}.cls-5{fill:#000000;}.cls-6{fill:#000000;}.cls-7{stroke-miterlimit:10;}.cls-7,.cls-8{stroke:#000;}.cls-7,.cls-8,.cls-9,.cls-10,.cls-11{fill:none;}.cls-12{fill:#000000;}.cls-8,.cls-9{stroke-linecap:round;stroke-linejoin:round;}.cls-9{stroke:#000000;stroke-dasharray:0 0 0 4.06;}.cls-13{fill:#000000;}.cls-14{fill:url(#USGS_19_Inundación_de_tierra_2);}.cls-11{stroke:#000000;stroke-dasharray:0 0 2 2;stroke-width:.3px;}.cls-15{fill:#000000;}.cls-16{fill:#000000;}
</style>
<pattern id="USGS_19_Inundación_de_tierra_2" x="0" y="0" width="72" height="72" patternTransform="translate(-20.48 -16279) rotate(-90)" patternUnits="userSpaceOnUse" viewBox="0 0 72 72">
<g >
<rect class="cls-10" width="72" height="72">
</rect>
<g >
<line class="cls-11" x1="71" y1="71" x2="144.44" y2="71">
</line>
<line class="cls-11" x1="71" y1="67" x2="144.44" y2="67">
</line>
<line class="cls-11" x1="71" y1="63" x2="144.44" y2="63">
</line>
<line class="cls-11" x1="71" y1="59" x2="144.44" y2="59">
</line>
<line class="cls-11" x1="71" y1="55" x2="144.44" y2="55">
</line>
<line class="cls-11" x1="71" y1="51" x2="144.44" y2="51">
</line>
<line class="cls-11" x1="71" y1="47" x2="144.44" y2="47">
</line>
<line class="cls-11" x1="71" y1="43" x2="144.44" y2="43">
</line>
<line class="cls-11" x1="71" y1="39" x2="144.44" y2="39">
</line>
<line class="cls-11" x1="71" y1="35" x2="144.44" y2="35">
</line>
<line class="cls-11" x1="71" y1="31" x2="144.44" y2="31">
</line>
<line class="cls-11" x1="71" y1="27" x2="144.44" y2="27">
</line>
<line class="cls-11" x1="71" y1="23" x2="144.44" y2="23">
</line>
<line class="cls-11" x1="71" y1="19" x2="144.44" y2="19">
</line>
<line class="cls-11" x1="71" y1="15" x2="144.44" y2="15">
</line>
<line class="cls-11" x1="71" y1="11" x2="144.44" y2="11">
</line>
<line class="cls-11" x1="71" y1="7" x2="144.44" y2="7">
</line>
<line class="cls-11" x1="71" y1="3" x2="144.44" y2="3">
</line>
</g>
<g >
<line class="cls-11" x1="-1" y1="71" x2="72.44" y2="71">
</line>
<line class="cls-11" x1="-1" y1="67" x2="72.44" y2="67">
</line>
<line class="cls-11" x1="-1" y1="63" x2="72.44" y2="63">
</line>
<line class="cls-11" x1="-1" y1="59" x2="72.44" y2="59">
</line>
<line class="cls-11" x1="-1" y1="55" x2="72.44" y2="55">
</line>
<line class="cls-11" x1="-1" y1="51" x2="72.44" y2="51">
</line>
<line class="cls-11" x1="-1" y1="47" x2="72.44" y2="47">
</line>
<line class="cls-11" x1="-1" y1="43" x2="72.44" y2="43">
</line>
<line class="cls-11" x1="-1" y1="39" x2="72.44" y2="39">
</line>
<line class="cls-11" x1="-1" y1="35" x2="72.44" y2="35">
</line>
<line class="cls-11" x1="-1" y1="31" x2="72.44" y2="31">
</line>
<line class="cls-11" x1="-1" y1="27" x2="72.44" y2="27">
</line>
<line class="cls-11" x1="-1" y1="23" x2="72.44" y2="23">
</line>
<line class="cls-11" x1="-1" y1="19" x2="72.44" y2="19">
</line>
<line class="cls-11" x1="-1" y1="15" x2="72.44" y2="15">
</line>
<line class="cls-11" x1="-1" y1="11" x2="72.44" y2="11">
</line>
<line class="cls-11" x1="-1" y1="7" x2="72.44" y2="7">
</line>
<line class="cls-11" x1="-1" y1="3" x2="72.44" y2="3">
</line>
<line class="cls-11" x1="1.04" y1="69" x2="74.48" y2="69">
</line>
<line class="cls-11" x1="1.04" y1="65" x2="74.48" y2="65">
</line>
<line class="cls-11" x1="1.04" y1="61" x2="74.48" y2="61">
</line>
<line class="cls-11" x1="1.04" y1="57" x2="74.48" y2="57">
</line>
<line class="cls-11" x1="1.04" y1="53" x2="74.48" y2="53">
</line>
<line class="cls-11" x1="1.04" y1="49" x2="74.48" y2="49">
</line>
<line class="cls-11" x1="1.04" y1="45" x2="74.48" y2="45">
</line>
<line class="cls-11" x1="1.04" y1="41" x2="74.48" y2="41">
</line>
<line class="cls-11" x1="1.04" y1="37" x2="74.48" y2="37">
</line>
<line class="cls-11" x1="1.04" y1="33" x2="74.48" y2="33">
</line>
<line class="cls-11" x1="1.04" y1="29" x2="74.48" y2="29">
</line>
<line class="cls-11" x1="1.04" y1="25" x2="74.48" y2="25">
</line>
<line class="cls-11" x1="1.04" y1="21" x2="74.48" y2="21">
</line>
<line class="cls-11" x1="1.04" y1="17" x2="74.48" y2="17">
</line>
<line class="cls-11" x1="1.04" y1="13" x2="74.48" y2="13">
</line>
<line class="cls-11" x1="1.04" y1="9" x2="74.48" y2="9">
</line>
<line class="cls-11" x1="1.04" y1="5" x2="74.48" y2="5">
</line>
<line class="cls-11" x1="1.04" y1="1" x2="74.48" y2="1">
</line>
</g>
<g >
<line class="cls-11" x1="-73" y1="71" x2=".44" y2="71">
</line>
<line class="cls-11" x1="-73" y1="67" x2=".44" y2="67">
</line>
<line class="cls-11" x1="-73" y1="63" x2=".44" y2="63">
</line>
<line class="cls-11" x1="-73" y1="59" x2=".44" y2="59">
</line>
<line class="cls-11" x1="-73" y1="55" x2=".44" y2="55">
</line>
<line class="cls-11" x1="-73" y1="51" x2=".44" y2="51">
</line>
<line class="cls-11" x1="-73" y1="47" x2=".44" y2="47">
</line>
<line class="cls-11" x1="-73" y1="43" x2=".44" y2="43">
</line>
<line class="cls-11" x1="-73" y1="39" x2=".44" y2="39">
</line>
<line class="cls-11" x1="-73" y1="35" x2=".44" y2="35">
</line>
<line class="cls-11" x1="-73" y1="31" x2=".44" y2="31">
</line>
<line class="cls-11" x1="-73" y1="27" x2=".44" y2="27">
</line>
<line class="cls-11" x1="-73" y1="23" x2=".44" y2="23">
</line>
<line class="cls-11" x1="-73" y1="19" x2=".44" y2="19">
</line>
<line class="cls-11" x1="-73" y1="15" x2=".44" y2="15">
</line>
<line class="cls-11" x1="-73" y1="11" x2=".44" y2="11">
</line>
<line class="cls-11" x1="-73" y1="7" x2=".44" y2="7">
</line>
<line class="cls-11" x1="-73" y1="3" x2=".44" y2="3">
</line>
<line class="cls-11" x1="-70.96" y1="69" x2="2.48" y2="69">
</line>
<line class="cls-11" x1="-70.96" y1="65" x2="2.48" y2="65">
</line>
<line class="cls-11" x1="-70.96" y1="61" x2="2.48" y2="61">
</line>
<line class="cls-11" x1="-70.96" y1="57" x2="2.48" y2="57">
</line>
<line class="cls-11" x1="-70.96" y1="53" x2="2.48" y2="53">
</line>
<line class="cls-11" x1="-70.96" y1="49" x2="2.48" y2="49">
</line>
<line class="cls-11" x1="-70.96" y1="45" x2="2.48" y2="45">
</line>
<line class="cls-11" x1="-70.96" y1="41" x2="2.48" y2="41">
</line>
<line class="cls-11" x1="-70.96" y1="37" x2="2.48" y2="37">
</line>
<line class="cls-11" x1="-70.96" y1="33" x2="2.48" y2="33">
</line>
<line class="cls-11" x1="-70.96" y1="29" x2="2.48" y2="29">
</line>
<line class="cls-11" x1="-70.96" y1="25" x2="2.48" y2="25">
</line>
<line class="cls-11" x1="-70.96" y1="21" x2="2.48" y2="21">
</line>
<line class="cls-11" x1="-70.96" y1="17" x2="2.48" y2="17">
</line>
<line class="cls-11" x1="-70.96" y1="13" x2="2.48" y2="13">
</line>
<line class="cls-11" x1="-70.96" y1="9" x2="2.48" y2="9">
</line>
<line class="cls-11" x1="-70.96" y1="5" x2="2.48" y2="5">
</line>
<line class="cls-11" x1="-70.96" y1="1" x2="2.48" y2="1">
</line>
</g>
</g>
</pattern>
</defs>
  <path
     id="circle1849"
     style="fill:#AA00DD;stroke:#000000;stroke-width:2"
     d="M 34.875,3.84375 C 30.2026,3.8566827 25.91896,6.4477515 23.738281,10.580078 21.63936,9.1446679 19.156089,8.3761337 16.613281,8.375 9.636905,8.3755251 3.9818685,14.031436 3.9824219,21.007812 c 0.012178,4.019812 1.9368978,7.79383 5.1835937,10.164063 -1.8357739,2.246976 -2.8420262,5.057448 -2.8496094,7.958984 0.00713,1.935325 0.4588528,3.843134 1.3203126,5.576172 -2.4145566,2.364898 -3.7807042,5.598771 -3.7929688,8.978516 0.00466,4.996359 2.9538661,9.520462 7.523438,11.541015 0.767283,6.336372 6.140784,11.10481 12.523437,11.113282 3.186693,-0.0091 6.252191,-1.222333 8.582031,-3.396485 1.867081,1.045968 3.9693,1.600422 6.109375,1.611329 2.723791,-0.01118 5.371006,-0.902492 7.546875,-2.541016 1.56279,0.673484 3.245549,1.024252 4.947266,1.03125 6.977139,5.53e-4 12.633366,-5.655674 12.632812,-12.632813 -0.0013,-2.652818 -0.837669,-5.237911 -2.390625,-7.388671 2.480721,-2.37284 3.888874,-5.653124 3.900391,-9.085938 -9.13e-4,-3.96978 -1.867955,-7.708203 -5.041016,-10.09375 2.59288,-2.385063 4.071919,-5.744584 4.080078,-9.267578 C 64.257287,17.599796 58.601376,11.944759 51.625,11.945312 50.032147,11.955601 48.455612,12.267065 46.978516,12.863281 45.38146,7.5117456 40.459758,3.8440964 34.875,3.84375 Z"/>



<g id="Capa_10">
<g >
<path class="cls-1" d="M61.57,62.92l-3.43,10.83-20.27,4.45-27.5-4.35-3.15-10.56,14.81-3.24-.05-5.75-.04-4.16-.93-1.76s-.09-1.85-.64-6.11c-2.04,.09-5.19-4.53-5.37-7.22-.19-2.69,1.2-5.09,1.2-5.09l3.52,4.63s-.65-5.1-.84-7.13c-.18-2.04-.37-8.98,3.25-12.78,3.61-3.8,12.22-5.74,19.72-3.33,7.4,2.4,8.24,8.51,8.7,11.57,.46,3.06-1.11,11.94-1.11,11.94l4.17-4.9s.83,2.31,.64,4.53c-.18,2.23-1.2,4.73-2.4,6.3-1.21,1.57-2.87,1.85-2.87,1.85l-1.02,5.28-.74,1.94,.04,4.38,.05,5.72,14.26,2.96Z">
</path>
<path class="cls-2" d="M34.86,58.21V19.75c0-6.8,8.85-9.93,12.77-4.38,.13,.19,.26,.38,.37,.58,3.53,6.08,1.27,20.49,1.27,20.49l-1.27,12.29s-6.64,8.2-7.63,8.9c-2.4,.71-5.51,.57-5.51,.57Z">
</path>
<path class="cls-4" d="M31.85,42.96s-1.41,.54-3.08,2.06-3.57,5.25-3.57,5.25c0,0,1.73-.43,4.17-1.84s3.68-2,5.36-1.84,8.01,3.63,8.98,3.68c-2.81-4.49-4.98-7.03-6.49-7.14-1.41,2.11-2.87,2.27-3.73,1.68s-1.62-1.84-1.62-1.84Z">
</path>
<path class="cls-5" d="M61.57,62.92l-3.43,10.83-20.27,4.45-27.5-4.35-3.15-10.56,14.81-3.24-.05-5.75c.62,.93,3.83,5.41,8.98,6.7,2.44,4.99,3.66,6.66,3.66,6.66l3.66-6.54s4.51-.39,8.98-6.88l.05,5.72,14.26,2.96Z">
</path>
<path d="M40.92,58.03l-15.18,19-14.73-3.82-3.26-10.57,14.28-2.59,.34-9.78,6.18,7.31s7.76,.79,12.37,.45Z">
</path>
<ellipse class="cls-3" cx="27.18" cy="35.95" rx="5.62" ry="4.21">
</ellipse>
<ellipse class="cls-3" cx="42.16" cy="35.95" rx="5.62" ry="4.21">
</ellipse>
<path class="cls-1" d="M34.2,12.47c.13,0,.23,0,.36,0h.17s.05,0,.05,0c.08,0,.18,0,.31,0,1.24,0,7.56,.16,10.48,3.43,2.52,2.75,3.39,7.61,2.52,14.07-.15,1.08-.33,3-.54,5.21-.39,4.01-1.1,11.4-1.63,12.89-1.57,2.62-3.92,5.51-6.38,7.85-1.81,.28-3.48,.42-4.95,.42-1.6,0-3.31-.23-5.08-.68-2.37-2.29-4.62-5.09-6.11-7.59-.53-1.47-1.24-8.79-1.62-12.76-.22-2.28-.41-4.24-.56-5.34-.87-6.46,0-11.33,2.54-14.09,2.9-3.24,9.22-3.41,10.46-3.41m.88-2c-.15,0-.27,0-.36,0h-.17c-.09,0-.21,0-.36,0-1.92,0-8.58,.3-11.95,4.07-4.16,4.54-3.5,12.19-3.03,15.69,.48,3.5,1.42,16.55,2.37,18.72,1.55,2.64,4.04,5.81,6.9,8.5,1.63,.45,3.77,.88,6.09,.88,2.05,0,4.13-.25,5.87-.54,3.01-2.76,5.64-6.09,7.26-8.84,.94-2.17,1.89-15.22,2.36-18.72,.47-3.5,1.13-11.15-3.03-15.69-3.37-3.77-10.03-4.07-11.95-4.07h0Zm-.36,0h0Z">
</path>
<path d="M20.05,35.73l-4.07-6.24s-1.45,3.8-.9,6.33,3.16,5.87,3.8,6.33,1.5,.12,1.5,.12l-.32-6.54Z">
</path>
<polygon class="cls-15" points="48.67 62.37 61.29 64.85 59.57 72.72 38.72 75.16 48.67 62.37">
</polygon>
<path class="cls-2" d="M24.39,41.2c.81,.21,2.01,.4,3.49,.3,.5-.04,.78,.58,.42,.93-1.75,1.72-3,2.29-4.53-.43-.24-.42,.14-.93,.62-.8Z">
</path>
<path class="cls-4" d="M48.94,40.51s-1.91,4.19-5.34,5.75c-.44,1.79-1.09,6.14-3.38,7.48-2.02-1.06-3.16-2.68-3.16-2.68h-1.31s-2.24,0-2.24,0h-1.31s-1.14,1.62-3.16,2.68c-2.29-1.34-2.94-5.69-3.38-7.48-3.43-1.56-5.34-5.75-5.34-5.75,0,0,.8,7.1,1.36,8.83,1.45,3.24,6.82,8.1,6.82,8.1,0,0,6.58,1.44,12.16,.27,4.24-3.24,7.31-9.38,7.31-9.38l.98-7.83Z">
</path>
<path class="cls-8" d="M34.73,10.47h-.17c-1.24-.03-8.68,.01-12.31,4.07-4.16,4.54-3.5,12.19-3.03,15.69,.48,3.5,1.42,16.55,2.37,18.72,1.55,2.64,4.04,5.81,6.9,8.5,1.63,.45,3.77,.88,6.09,.88,2.05,0,4.13-.25,5.87-.54,3.01-2.76,5.64-6.09,7.26-8.84,.94-2.17,1.89-15.22,2.36-18.72s1.13-11.15-3.03-15.69c-3.63-4.06-11.07-4.1-12.31-4.07h-.17">
</path>
<path class="cls-8" d="M19.63,35.02s-2.67-4.57-4.01-5.55c-1.45,6.21-.21,7.19,.83,9.26s2.22,4.09,3.93,3.67">
</path>
<path class="cls-8" d="M49.62,35.02s2.67-4.57,4.01-5.55c1.45,6.21,.21,7.19-.83,9.26s-2.22,4.09-3.93,3.67">
</path>
<ellipse class="cls-8" cx="27.18" cy="35.95" rx="5.62" ry="4.21">
</ellipse>
<ellipse class="cls-8" cx="42.16" cy="35.95" rx="5.62" ry="4.21">
</ellipse>
<line class="cls-8" x1="19.78" y1="34.98" x2="21.57" y2="35.95">
</line>
<line class="cls-8" x1="49.62" y1="34.98" x2="48.04" y2="35.95">
</line>
<path class="cls-8" d="M32.8,36.48s1.74-1.67,3.74,.11">
</path>
<path class="cls-8" d="M36.95,40.71s1.25-.03,1.25,1.09-1.05,.85-1.5,1.71c-.15,.28-.4,.65-.76,.99-.76,.73-1.96,.73-2.72,0-.36-.35-.61-.71-.76-.99-.45-.86-1.5-.63-1.5-1.71s1.25-1.09,1.25-1.09">
</path>
<path class="cls-8" d="M36.93,43.19c.9,0,2.86,1.19,4.51,3.72s2.59,3.57,2.59,3.57c0,0-1.8,.15-4.36-1.69s-4.29-2.11-5.08-2.11h-.45c-.79,0-2.52,.27-5.08,2.11s-4.36,1.69-4.36,1.69c0,0,.94-1.04,2.59-3.57s3.61-3.72,4.51-3.72">
</path>
<path class="cls-8" d="M39.14,48.57s-.39,.81-1.16,.87-1.9-.67-3.18-.67h-.87c-1.28,0-2.41,.73-3.18,.67s-1.16-.87-1.16-.87">
</path>
<path d="M23.89,17.46c-.12,2.13-.29,5.15-.35,7.25-.52,1.89-1.28,3.74-1.48,5.69-.62-1.78,.03-4.03,.5-5.69,0-2.47,.36-4.97,1.23-7.29,.03-.06,.11-.02,.09,.04h0Z">
</path>
<path d="M45.19,17.42c1.57,2.08,2.06,4.74,2.02,7.29,0,0-.04-.27-.04-.27,.51,1.89,.88,4.17-.2,5.93-.03,.04-.11,0-.09-.04,.47-1.86-.11-3.83-.64-5.62-.03-2.45-.29-4.94-1.14-7.25-.02-.05,.06-.1,.09-.04h0Z">
</path>
<path d="M27.69,26.24c4.61,.58,9.18,.49,13.79,0-4.29,1.87-9.51,1.95-13.79,0h0Z">
</path>
<polyline class="cls-8" points="22.06 50.05 22.06 60 6.65 63.38">
</polyline>
<path class="cls-8" d="M30.74,61.42l-1.87,7.64s-5.32-3.95-6.81-9.37">
</path>
<polyline class="cls-8" points="47.21 50.05 47.21 60 62.62 63.38">
</polyline>
<path class="cls-8" d="M47.18,53.97s-2.73,5.95-8.81,7.25c-.91,1.13-2.47,5.23-3.74,6.9-1.27-1.67-2.83-5.77-3.74-6.9-6.08-1.3-8.81-7.25-8.81-7.25">
</path>
<path class="cls-8" d="M38.53,61.42l1.87,7.64s5.32-3.95,6.81-9.37">
</path>
<path class="cls-12" d="M23.54,54.9c.49,2.34,.7,4.72,.79,7.1,0,0-.68,.17-.68,.17-4.21,1.04-8.52,1.78-12.86,1.79,3.93-1.09,8.53-1.78,12.69-2.67,0,0-.07,.08-.07,.08l.03-6.47s.1,0,.1,0h0Z">
</path>
<path class="cls-12" d="M16.11,31.04c-.02,3.68,1.47,6.83,2.71,10.19,0,0-.08,.06-.08,.06-1.76-2.13-3.17-4.73-3.17-7.55,0-.93,.11-1.87,.45-2.74l.09,.04h0Z">
</path>
</g>
</g>

</svg>
