<svg id="Capa_2" xmlns="http://www.w3.org/2000/svg" xmlns:xlink="http://www.w3.org/1999/xlink" viewBox="0 0 69.02 80">
<defs >
<style >
.cls-1{fill:#c89aed;}.cls-2{fill:#f8ffbf;}.cls-3{fill:#7b7be8;}.cls-4{fill:#a88347;}.cls-5{fill:#782ab5;}.cls-6{stroke-miterlimit:10;}.cls-6,.cls-7,.cls-8{stroke:#000;}.cls-6,.cls-7,.cls-8,.cls-9,.cls-10,.cls-11{fill:none;}.cls-7{stroke-linecap:square;}.cls-7,.cls-8,.cls-9{stroke-linejoin:round;}.cls-12{fill:#1c46ff;}.cls-8,.cls-9{stroke-linecap:round;}.cls-9{stroke:#deb778;stroke-dasharray:0 0 0 4.06;}.cls-13{fill:#deb778;}.cls-14{fill:url(#USGS_19_Inundación_de_tierra_2);}.cls-11{stroke:#1d1d1b;stroke-dasharray:0 0 2 2;stroke-width:.3px;}.cls-15{fill:#fcf0c5;}.cls-16{fill:#b83521;}
</style>
<pattern id="USGS_19_Inundación_de_tierra_2" x="0" y="0" width="72" height="72" patternTransform="translate(-92.48 -16279) rotate(-90)" patternUnits="userSpaceOnUse" viewBox="0 0 72 72">
<g >
<rect class="cls-10" width="72" height="72">
</rect>
<g >
<line class="cls-11" x1="71" y1="71" x2="144.44" y2="71">
</line>
<line class="cls-11" x1="71" y1="67" x2="144.44" y2="67">
</line>
<line class="cls-11" x1="71" y1="63" x2="144.44" y2="63">
</line>
<line class="cls-11" x1="71" y1="59" x2="144.44" y2="59">
</line>
<line class="cls-11" x1="71" y1="55" x2="144.44" y2="55">
</line>
<line class="cls-11" x1="71" y1="51" x2="144.44" y2="51">
</line>
<line class="cls-11" x1="71" y1="47" x2="144.44" y2="47">
</line>
<line class="cls-11" x1="71" y1="43" x2="144.44" y2="43">
</line>
<line class="cls-11" x1="71" y1="39" x2="144.44" y2="39">
</line>
<line class="cls-11" x1="71" y1="35" x2="144.44" y2="35">
</line>
<line class="cls-11" x1="71" y1="31" x2="144.44" y2="31">
</line>
<line class="cls-11" x1="71" y1="27" x2="144.44" y2="27">
</line>
<line class="cls-11" x1="71" y1="23" x2="144.44" y2="23">
</line>
<line class="cls-11" x1="71" y1="19" x2="144.44" y2="19">
</line>
<line class="cls-11" x1="71" y1="15" x2="144.44" y2="15">
</line>
<line class="cls-11" x1="71" y1="11" x2="144.44" y2="11">
</line>
<line class="cls-11" x1="71" y1="7" x2="144.44" y2="7">
</line>
<line class="cls-11" x1="71" y1="3" x2="144.44" y2="3">
</line>
</g>
<g >
<line class="cls-11" x1="-1" y1="71" x2="72.44" y2="71">
</line>
<line class="cls-11" x1="-1" y1="67" x2="72.44" y2="67">
</line>
<line class="cls-11" x1="-1" y1="63" x2="72.44" y2="63">
</line>
<line class="cls-11" x1="-1" y1="59" x2="72.44" y2="59">
</line>
<line class="cls-11" x1="-1" y1="55" x2="72.44" y2="55">
</line>
<line class="cls-11" x1="-1" y1="51" x2="72.44" y2="51">
</line>
<line class="cls-11" x1="-1" y1="47" x2="72.44" y2="47">
</line>
<line class="cls-11" x1="-1" y1="43" x2="72.44" y2="43">
</line>
<line class="cls-11" x1="-1" y1="39" x2="72.44" y2="39">
</line>
<line class="cls-11" x1="-1" y1="35" x2="72.44" y2="35">
</line>
<line class="cls-11" x1="-1" y1="31" x2="72.44" y2="31">
</line>
<line class="cls-11" x1="-1" y1="27" x2="72.44" y2="27">
</line>
<line class="cls-11" x1="-1" y1="23" x2="72.44" y2="23">
</line>
<line class="cls-11" x1="-1" y1="19" x2="72.44" y2="19">
</line>
<line class="cls-11" x1="-1" y1="15" x2="72.44" y2="15">
</line>
<line class="cls-11" x1="-1" y1="11" x2="72.44" y2="11">
</line>
<line class="cls-11" x1="-1" y1="7" x2="72.44" y2="7">
</line>
<line class="cls-11" x1="-1" y1="3" x2="72.44" y2="3">
</line>
<line class="cls-11" x1="1.04" y1="69" x2="74.48" y2="69">
</line>
<line class="cls-11" x1="1.04" y1="65" x2="74.48" y2="65">
</line>
<line class="cls-11" x1="1.04" y1="61" x2="74.48" y2="61">
</line>
<line class="cls-11" x1="1.04" y1="57" x2="74.48" y2="57">
</line>
<line class="cls-11" x1="1.04" y1="53" x2="74.48" y2="53">
</line>
<line class="cls-11" x1="1.04" y1="49" x2="74.48" y2="49">
</line>
<line class="cls-11" x1="1.04" y1="45" x2="74.48" y2="45">
</line>
<line class="cls-11" x1="1.04" y1="41" x2="74.48" y2="41">
</line>
<line class="cls-11" x1="1.04" y1="37" x2="74.48" y2="37">
</line>
<line class="cls-11" x1="1.04" y1="33" x2="74.48" y2="33">
</line>
<line class="cls-11" x1="1.04" y1="29" x2="74.48" y2="29">
</line>
<line class="cls-11" x1="1.04" y1="25" x2="74.48" y2="25">
</line>
<line class="cls-11" x1="1.04" y1="21" x2="74.48" y2="21">
</line>
<line class="cls-11" x1="1.04" y1="17" x2="74.48" y2="17">
</line>
<line class="cls-11" x1="1.04" y1="13" x2="74.48" y2="13">
</line>
<line class="cls-11" x1="1.04" y1="9" x2="74.48" y2="9">
</line>
<line class="cls-11" x1="1.04" y1="5" x2="74.48" y2="5">
</line>
<line class="cls-11" x1="1.04" y1="1" x2="74.48" y2="1">
</line>
</g>
<g >
<line class="cls-11" x1="-73" y1="71" x2=".44" y2="71">
</line>
<line class="cls-11" x1="-73" y1="67" x2=".44" y2="67">
</line>
<line class="cls-11" x1="-73" y1="63" x2=".44" y2="63">
</line>
<line class="cls-11" x1="-73" y1="59" x2=".44" y2="59">
</line>
<line class="cls-11" x1="-73" y1="55" x2=".44" y2="55">
</line>
<line class="cls-11" x1="-73" y1="51" x2=".44" y2="51">
</line>
<line class="cls-11" x1="-73" y1="47" x2=".44" y2="47">
</line>
<line class="cls-11" x1="-73" y1="43" x2=".44" y2="43">
</line>
<line class="cls-11" x1="-73" y1="39" x2=".44" y2="39">
</line>
<line class="cls-11" x1="-73" y1="35" x2=".44" y2="35">
</line>
<line class="cls-11" x1="-73" y1="31" x2=".44" y2="31">
</line>
<line class="cls-11" x1="-73" y1="27" x2=".44" y2="27">
</line>
<line class="cls-11" x1="-73" y1="23" x2=".44" y2="23">
</line>
<line class="cls-11" x1="-73" y1="19" x2=".44" y2="19">
</line>
<line class="cls-11" x1="-73" y1="15" x2=".44" y2="15">
</line>
<line class="cls-11" x1="-73" y1="11" x2=".44" y2="11">
</line>
<line class="cls-11" x1="-73" y1="7" x2=".44" y2="7">
</line>
<line class="cls-11" x1="-73" y1="3" x2=".44" y2="3">
</line>
<line class="cls-11" x1="-70.96" y1="69" x2="2.48" y2="69">
</line>
<line class="cls-11" x1="-70.96" y1="65" x2="2.48" y2="65">
</line>
<line class="cls-11" x1="-70.96" y1="61" x2="2.48" y2="61">
</line>
<line class="cls-11" x1="-70.96" y1="57" x2="2.48" y2="57">
</line>
<line class="cls-11" x1="-70.96" y1="53" x2="2.48" y2="53">
</line>
<line class="cls-11" x1="-70.96" y1="49" x2="2.48" y2="49">
</line>
<line class="cls-11" x1="-70.96" y1="45" x2="2.48" y2="45">
</line>
<line class="cls-11" x1="-70.96" y1="41" x2="2.48" y2="41">
</line>
<line class="cls-11" x1="-70.96" y1="37" x2="2.48" y2="37">
</line>
<line class="cls-11" x1="-70.96" y1="33" x2="2.48" y2="33">
</line>
<line class="cls-11" x1="-70.96" y1="29" x2="2.48" y2="29">
</line>
<line class="cls-11" x1="-70.96" y1="25" x2="2.48" y2="25">
</line>
<line class="cls-11" x1="-70.96" y1="21" x2="2.48" y2="21">
</line>
<line class="cls-11" x1="-70.96" y1="17" x2="2.48" y2="17">
</line>
<line class="cls-11" x1="-70.96" y1="13" x2="2.48" y2="13">
</line>
<line class="cls-11" x1="-70.96" y1="9" x2="2.48" y2="9">
</line>
<line class="cls-11" x1="-70.96" y1="5" x2="2.48" y2="5">
</line>
<line class="cls-11" x1="-70.96" y1="1" x2="2.48" y2="1">
</line>
</g>
</g>
</pattern>
</defs>
  <path
     style="opacity:1;vector-effect:none;fill:#cccccc;fill-opacity:1;fill-rule:nonzero;stroke:none;stroke-width:4.49546146;stroke-linecap:butt;stroke-linejoin:miter;stroke-miterlimit:4;stroke-dasharray:none;stroke-dashoffset:0;stroke-opacity:1"
     d="M -0.08007812,0.36132812 V 80.361328 H 68.919922 V 0.36132812 Z"
     id="rect4304"/>

<g id="Capa_10">
<g >
<path class="cls-3" d="M59.68,75.63l-32.92,2.39-18.3-4.5,1.84-4.6s12.69-3.68,13.7-4.78c1.01-1.1,1.47-4.97,1.47-4.97l-.18-5.42s-4.42-5.89-4.51-9.29c-2.85-.73-3.49-6.44-3.49-6.44,0,0-.01,0-.04-.03-.36-.27-3.3-2.51-3.82-4.84,2.85-2.02,6.62-8.09,6.62-8.09l-5.89,3.95s-2.11-3.31-2.11-4.59c4.41-3.59,10.39-5.15,10.39-5.15,0,0-5.43-.37-6.81-1.57,.65-3.49,3.13-4.96,3.13-4.96,0,0,5.79,3.95,13.06,3.12-2.76-1.65-3.68-2.75-3.68-2.75l4.6-1.38s2.57,2.2,3.49,2.66c1.47-1.38,2.3-2.94,2.3-2.94l3.68,.55-1.11,2.85s5.24-1.84,8.92,.46c.74,2.85,.28,3.4,.28,3.4l-3.77-.46s3.12,3.77,8.46,5.15c.37,3.31-1.01,3.77-1.01,3.77l-3.31-.92s-.1,2.58,3.95,4.79c.46,4.13-2.3,6.16-2.3,6.16,0,0,1.2,5.79-3.22,8-1.19,4.5-5.05,9.01-5.05,9.01,0,0-.1,7.35,.46,8.64,.55,1.29,1.01,2.39,4.78,3.31,3.77,.92,10.2,4.05,10.2,4.05l.19,5.42Z">
</path>
<path class="cls-1" d="M35.03,60.93V31.23l2.78,.25s1.52-4.81,3.66-5.79c.72,2.86,1.21,5.56,1.21,5.56l3.71-.39-.39-4.79s3.52,3.91,3.7,7.67c.09,4.02-1.43,7.07-1.43,7.07,0,0,1.25,3.31,.09,6.44s-8.41,13.77-13.33,13.68Z">
</path>
<path class="cls-3" d="M40.52,29.71c.08,.49,.12,.96,.09,1.38l-.15,1.91,1.9,.23c.69,.08,1.34,.13,1.91,.13,1.61,0,2.56-.33,3.12-.69,.21,.89,.26,1.59,.27,1.89,0,1.79-.9,4.61-1.24,5.55l-.24,.68,.23,.67s.96,2.82,.14,5.1c-1.21,3.29-8.2,12.79-11.58,12.79-3.09,0-8.07-5.97-11.2-11.59-1.75-3.15-.55-6.45-.55-6.47l.26-.67-.23-.68s-1.45-4.44-1.04-8.12l1.25,.69c.16,.09,1.66,.88,3.59,.88,.56,0,1.11-.07,1.64-.2l.89-.22,.41-.81c.44-.87,.95-1.61,1.49-2.24-.09,.3-.14,.49-.15,.52l-.32,1.4,1.22,.75c.2,.12,1.99,1.17,4.55,1.17,.44,0,.88-.03,1.31-.09l1.47-.21,.22-1.47c.13-.88,.4-1.64,.72-2.27m-3.56-4.78c-2.91,.19-6.57,2.05-8.74,6.32-.4,.1-.79,.14-1.15,.14-1.48,0-2.63-.63-2.63-.63,0,0,.43-2.11,3.78-5.39-2.79,.62-6.38,2.79-7.93,5.83-.62,4.28,1.08,9.38,1.08,9.38,0,0-1.59,4.1,.66,8.16,2.25,4.06,8.05,12.62,12.94,12.62s12.3-10.95,13.46-14.1c1.09-3.03-.13-6.45-.13-6.45,0,0,1.36-3.72,1.36-6.26-.06-2.29-1.05-6.32-4.59-9.05,1.12,1.86,1.3,5.45,1.3,5.45,0,0-.42,.42-2.1,.42-.46,0-1.01-.03-1.68-.11,.19-2.42-1.24-5.64-1.24-5.64,0,0-2.91,1.98-3.53,6.07-.35,.05-.7,.07-1.02,.07-2.07,0-3.5-.88-3.5-.88,0,0,.74-3.29,3.66-5.95h0Z">
</path>
<polygon class="cls-3" points="37.5 42.45 36.73 35.2 41.54 33.71 47.58 33.32 47.26 38.13 37.5 42.45">
</polygon>
<path d="M54.62,31.04c.46,4.13-2.3,6.16-2.3,6.16-.64-2.33-.83-3.01-2.61-1.78,.23-5.72-3.71-9.35-3.71-9.35l.39,4.79s-.62,.54-3.71,.39c-.24-2.09-1.55-5.34-1.55-5.34,0,0-2.01,1.39-3.32,5.57-2.25,.39-4.41-.54-4.41-.54,0,0,.54-2.55,3.32-5.96-5.72,.93-8.5,6.27-8.5,6.27l-3.71-.23s.07-1.71,3.32-5.49c-3.87,.69-7.58,5.25-7.58,5.25,0,0-.23,1.24,0,4.64-2.78-1.7-2.78,2.17-2.78,2.17-.07,.14-.15,.28-.22,.4-.36-.27-3.3-2.51-3.82-4.84,2.85-2.02,6.62-8.09,6.62-8.09l-5.89,3.95s-2.11-3.31-2.11-4.59c4.41-3.59,10.39-5.15,10.39-5.15,0,0-5.43-.37-6.81-1.57,.65-3.49,3.13-4.96,3.13-4.96,0,0,5.79,3.95,13.06,3.12-2.76-1.65-3.68-2.75-3.68-2.75l4.6-1.38s2.57,2.2,3.49,2.66c1.47-1.38,2.3-2.94,2.3-2.94l3.68,.55-1.11,2.85s5.24-1.84,8.92,.46c.74,2.85,.28,3.4,.28,3.4l-3.77-.46s3.12,3.77,8.46,5.15c.37,3.31-1.01,3.77-1.01,3.77l-3.31-.92s-.1,2.58,3.95,4.79Z">
</path>
<path class="cls-12" d="M45.94,30.27s.23-5.99-2.94-7.77c.63,2.53,.52,3.97,.17,4.72,1.32,.29,.4,2.82,.17,3.17,1.44,.23,2.59-.12,2.59-.12Z">
</path>
<path class="cls-12" d="M54.36,23.54s-.29,1.74-.51,2.61c-.72-2.24-2.24-2.32-3.55-2.03-.58-1.59-2.39-2.1-3.33-2.03-.51-1.95-4.85-3.69-4.85-3.69,3.4,.51,6.73,2.97,8.11,3.62s4.13,1.52,4.13,1.52Z">
</path>
<path class="cls-12" d="M49.95,27.53s2.52,3.22,4.55,3.78c-.21,2.17-1.12,3.71-1.12,3.71,0,0,.63-2.52-1.4-3.01,.14-.98-.91-1.61-1.61-1.68,.07-.77-.42-2.8-.42-2.8Z">
</path>
<path class="cls-12" d="M40.16,15.92s5.1-2.24,9.58-.7c.28,1.54,.28,2.73,.28,2.73,0,0-1.19-2.17-3.64-1.54,.07-1.12-2.59-.35-3.43,.28-1.12-.56-2.8-.77-2.8-.77Z">
</path>
<path class="cls-12" d="M40.65,24.18s-2.87,4.06-3.22,6.71c-1.68-.49-2.94-.84-2.94-.84,0,0,2.66-1.12,2.73-2.73,1.26-.63,1.19-1.61,.98-2.1,.98-.14,2.45-1.05,2.45-1.05Z">
</path>
<path class="cls-12" d="M34.85,24.6s-4.27,1.26-6.99,5.87c-2.03,.21-2.59-.35-2.59-.35,0,0,2.52-1.05,3.15-2.87,2.1-.35,2.38-2.31,2.38-2.31,0,0,1.89,.63,4.06-.35Z">
</path>
<path class="cls-12" d="M32.05,12.22s2.59,2.73,5.87,3.01c-3.22,1.26-5.03,.28-5.8,.56,.56-1.68-1.54-1.61-1.75-1.54-.21-1.12,1.68-2.03,1.68-2.03Z">
</path>
<path class="cls-12" d="M18.55,13.62s6.22,2.45,12.03,2.8c-3.85,1.61-6.5,.7-7.83,1.47,.21-1.61-1.4-1.68-2.73-.98,.35-1.61-2.59-1.54-3.36-1.05,.98-1.68,1.89-2.24,1.89-2.24Z">
</path>
<path class="cls-12" d="M39.93,19.56s-3.75-2.04-9.32,1.25c.4,1.7,1.48,1.99,1.48,1.99,0,0-.06-2.33,2.16-2.1,.45-1.31,2.1-.57,2.9-.17,.51-1.02,2.78-.97,2.78-.97Z">
</path>
<path class="cls-12" d="M27.15,22.74s-5.62,1.7-7.95,5.34c2.39,0,3.35-.45,3.35-.45,0,0-.34-1.36,1.08-1.82-.45-.62,1.53-1.53,2.16-1.42-.17-.57,1.36-1.65,1.36-1.65Z">
</path>
<path class="cls-2" d="M37.5,42.45s.5-3.53,2.9-4.34c4.41-.38,6.3-.19,6.3-.19,0,0,.25,2.08-1.7,3.53s-7.5,1-7.5,1Z">
</path>
<path class="cls-2" d="M32.18,42.45s-.5-3.53-2.9-4.34c-4.41-.38-6.3-.19-6.3-.19,0,0-.25,2.08,1.7,3.53s7.5,1,7.5,1Z">
</path>
<path d="M20.05,35.1s-1.88-.33-2.27,.5-.39,5.21,.5,6.82,2.27,2.22,2.27,2.22l.78-4.27-1.28-5.27Z">
</path>
<path d="M43.89,55.45l-18.53,19.64-16.18-2.54,1.12-3.63,12.84-4.46s1.96-.91,2.22-3.72,.13-7.05,.13-7.05c0,0,3.83,5.66,6.66,6.66s3.59,1.17,5.55,.13,6.2-5.02,6.2-5.02Z">
</path>
<path class="cls-1" d="M23.32,43.33s3.13,1.57,6.79,.96c-4.61,4.18-5.65,1.65-6.79-.96Z">
</path>
<path class="cls-1" d="M42.46,58.65l-15.31,16.7,24.27,.78,8.7-4.18-13.25-5.01c-1.3-.49-2.48-1.3-3.31-2.42-.54-.72-.97-1.6-1.01-2.58-.09-2.61-.09-3.31-.09-3.31Z">
</path>
<path class="cls-16" d="M39.54,53.82c-.08,.02-1.25,2.72-3.9,2.43-.5-.05-1.01-.05-1.52,0-2.65,.28-3.82-2.42-3.9-2.43,0,0,2.04-1.3,4.59-.95,2.63-.46,4.73,.95,4.73,.95Z">
</path>
<path class="cls-8" d="M17.29,37.79s-2.86-.68-3.79-4.73c3.61-2.49,6.9-8.34,6.9-8.34,0,0-2.86,1.12-6.1,4.11-1.62-1.24-2.24-4.23-2.24-4.23,0,0,3.86-4.11,10.64-5.1-5.78-.87-7.28-1.87-7.28-1.87,0,0,.62-3.05,3.11-5.1,1.62,1.24,8.96,4.04,12.94,3.17-1.62-.75-3.17-2.3-3.17-2.3,0,0,.68-1.49,4.6-1.8,1.18,1.93,3.67,2.86,3.67,2.86l2.05-3.11s1.93,.19,3.61,.87c-.68,1.68-1.49,2.8-1.49,2.8,0,0,5.29-2.05,9.27,.12,.87,2.18,.19,3.48,.19,3.48,0,0-2.3-.62-4.04-.68,2.24,3.17,6.64,4.6,8.63,5.28,.44,3.05-.84,3.94-.84,3.94,0,0-2.03-.46-3.59-1.27,.68,2.92,2.95,4.8,4.45,5.05,.44,3.36-2.43,6.1-2.43,6.1">
</path>
<path class="cls-8" d="M48.3,40.79s1.36-3.72,1.36-6.26c-.06-2.29-1.05-6.32-4.59-9.05,1.12,1.86,1.3,5.45,1.3,5.45,0,0-.68,.68-3.78,.31,.19-2.42-1.24-5.64-1.24-5.64,0,0-2.91,1.98-3.53,6.07-2.6,.37-4.53-.81-4.53-.81,0,0,.74-3.29,3.66-5.95-2.91,.19-6.57,2.05-8.74,6.32-1.98,.5-3.78-.5-3.78-.5,0,0,.43-2.11,3.78-5.39-2.79,.62-6.38,2.79-7.93,5.83-.62,4.28,1.08,9.38,1.08,9.38,0,0-1.59,4.1,.66,8.16s8.05,12.62,12.94,12.62,12.3-10.95,13.46-14.1c1.09-3.03-.13-6.45-.13-6.45Z">
</path>
<path class="cls-8" d="M20.25,35.65s-.77-1.18-1.8-.57-1.98,7.17,2.44,10.05">
</path>
<path class="cls-8" d="M49.81,35.65s.77-1.18,1.8-.57,1.98,7.17-2.44,10.05">
</path>
<path d="M22.12,33.4c3.49-.86,7.46-1.29,10.46,1.21,0,0,.59,.47,.59,.47l-.85,1.11c-.89-.54-1.81-1.03-2.79-1.53-2.24-.93-4.95-.74-7.41-1.26h0Z">
</path>
<path d="M32.17,41.79c-.69-1.14-1.4-2.43-2.59-2.99-2.15-.45-4.58-.28-6.82-.44,0,0,.76-.78,.76-.78,.13,1.35,.62,2.85,1.94,3.48,1.34,.68,2.97,1.05,4.57,1.43-.82,.11-1.66,.12-2.49,.08-3.11-.07-5.22-1.68-5.49-4.9-.05-.44,.32-.81,.76-.78,2.46,.14,4.92,.05,7.25,1.01,1.32,.88,1.86,2.45,2.12,3.9h0Z">
</path>
<path d="M47.67,33.4c-2.45,.52-5.17,.32-7.41,1.26-.99,.5-1.91,.99-2.79,1.53,0,0-.85-1.11-.85-1.11l.59-.47c3-2.49,6.98-2.07,10.46-1.21h0Z">
</path>
<path d="M37.62,41.79c.25-1.45,.8-3.02,2.12-3.9,2.34-.95,4.79-.87,7.25-1.01,.44-.03,.81,.35,.76,.78-.27,3.23-2.38,4.84-5.49,4.9-.84,.05-1.67,.04-2.49-.08,1.6-.38,3.22-.75,4.57-1.43,1.32-.64,1.81-2.14,1.94-3.48,0,0,.76,.78,.76,.78-1.87,.08-3.77,.11-5.6,.25-1.97-.07-2.9,1.67-3.81,3.18h0Z">
</path>
<path d="M37.44,45.88c1.16-.16,2.61,.63,1.86,2.01-.74,1.11-2.17,1-3.22,.67,0,0,.79-.21,.79-.21-1.11,1.32-3.14,1.32-4.25,0,0,0,.79,.21,.79,.21-.5,.16-1.03,.26-1.61,.22-1.32,.02-2.61-1.7-1.21-2.62,.49-.27,.98-.3,1.46-.27-.43,.19-.84,.44-1.09,.73-.22,.26-.15,.53,.05,.71,.36,.33,1.2,.2,1.92-.1,.58-.24,.74,.33,1.28,.5,.55,.29,1.27,.03,1.65-.36,.19-.19,.48-.24,.72-.14,.72,.31,1.56,.44,1.93,.1,.61-.63-.49-1.17-1.05-1.44h0Z">
</path>
<path d="M32.18,53.33c-.97,.27-2.04,1.44-3.08,.34,.81-.24,1.51-1.58,2.98-2.58,1.48-1,2.79-.36,2.79-.36h.05s1.31-.64,2.78,.36c1.48,1,2.18,2.35,2.98,2.58-1.04,1.11-2.11-.07-3.08-.34-.65-.19-1.75-.14-2.7,.22-.95-.35-2.05-.41-2.71-.22Z">
</path>
<path class="cls-7" d="M25.24,53.99v6.46c0,1.91-1.04,3.61-2.61,4.24l-13.36,4.79">
</path>
<path class="cls-7" d="M44.15,54.57v6.34c0,1.91,1.04,3.61,2.61,4.24l12.99,5.1">
</path>
<path class="cls-12" d="M14.4,33.15c1.33,1.22,2.74,2.29,4.45,2.71,0,0,.02,.64,.02,.64,.04,2.55,.84,5,1.39,7.4-1.51-1.95-2.51-5.2-2.29-7.32-1.59-.62-2.83-1.92-3.66-3.39,0,0,.09-.05,.09-.05h0Z">
</path>
<path class="cls-12" d="M26.43,58.05c.92,3.6,.67,7.11-3.24,8.66-2.46,.91-5.22,1.65-7.79,2.24-.83,.14-1.64,.33-2.49,.42,0,0-.03-.09-.03-.09l9.39-3.29c1.59-.42,2.98-1.52,3.62-3.05,.64-1.32,.37-3.45,.44-4.89,0,0,.1,0,.1,0h0Z">
</path>
</g>
</g>

  <path
     style="opacity:1;vector-effect:none;fill:#8d5fd3;fill-opacity:1;fill-rule:nonzero;stroke:none;stroke-width:2.35769176;stroke-linecap:butt;stroke-linejoin:miter;stroke-miterlimit:4;stroke-dasharray:none;stroke-dashoffset:0;stroke-opacity:0.44186048"
     d="M 0,1.2e-7 V 80 H 69 V 1.2e-7 Z M 35.240234,4.658203 c 6.067554,0.1120422 16.269844,1.4698438 23.589844,3.8398438 3.46,9.2400002 5.269531,19.9506252 5.269531,31.1406252 0,11.47 -1.89,22.390234 -5.5,31.740234 -7.2,2.16 -14.940375,3.376539 -23.019531,3.259766 -8.580486,-0.124019 -18.036001,-1.572896 -25.240234,-3.86914 -3.4500003,-9.22 -5.2597659,-19.930859 -5.2597659,-31.130859 0,-11.2 1.8904687,-22.380469 5.4804689,-31.730469 C 17.682894,5.1336941 29.17268,4.5461608 35.240234,4.658203 Z"
     id="rect4304" />


</svg>
