<?xml version="1.0" encoding="UTF-8"?><svg id="Capa_2" xmlns="http://www.w3.org/2000/svg" xmlns:xlink="http://www.w3.org/1999/xlink" viewBox="0 0 69.02 80"><defs><style>.cls-1{fill:#c89aed;}.cls-2{fill:#fff;}.cls-3{fill:#f8ffbf;}.cls-4{fill:#7b7be8;}.cls-5{fill:#a88347;}.cls-6{fill:#782ab5;}.cls-7{stroke-miterlimit:10;}.cls-7,.cls-8{stroke:#000;}.cls-7,.cls-8,.cls-9,.cls-10,.cls-11{fill:none;}.cls-12{fill:#1c46ff;}.cls-8,.cls-9{stroke-linecap:round;stroke-linejoin:round;}.cls-9{stroke:#deb778;stroke-dasharray:0 0 0 4.06;}.cls-13{fill:#deb778;}.cls-14{fill:url(#USGS_19_Inundación_de_tierra_2);}.cls-11{stroke:#1d1d1b;stroke-dasharray:0 0 2 2;stroke-width:.3px;}.cls-15{fill:#fcf0c5;}</style><pattern id="USGS_19_Inundación_de_tierra_2" x="0" y="0" width="72" height="72" patternTransform="translate(-164.48 -16279) rotate(-90)" patternUnits="userSpaceOnUse" viewBox="0 0 72 72"><g><rect class="cls-10" width="72" height="72"/><g><line class="cls-11" x1="71" y1="71" x2="144.44" y2="71"/><line class="cls-11" x1="71" y1="67" x2="144.44" y2="67"/><line class="cls-11" x1="71" y1="63" x2="144.44" y2="63"/><line class="cls-11" x1="71" y1="59" x2="144.44" y2="59"/><line class="cls-11" x1="71" y1="55" x2="144.44" y2="55"/><line class="cls-11" x1="71" y1="51" x2="144.44" y2="51"/><line class="cls-11" x1="71" y1="47" x2="144.44" y2="47"/><line class="cls-11" x1="71" y1="43" x2="144.44" y2="43"/><line class="cls-11" x1="71" y1="39" x2="144.44" y2="39"/><line class="cls-11" x1="71" y1="35" x2="144.44" y2="35"/><line class="cls-11" x1="71" y1="31" x2="144.44" y2="31"/><line class="cls-11" x1="71" y1="27" x2="144.44" y2="27"/><line class="cls-11" x1="71" y1="23" x2="144.44" y2="23"/><line class="cls-11" x1="71" y1="19" x2="144.44" y2="19"/><line class="cls-11" x1="71" y1="15" x2="144.44" y2="15"/><line class="cls-11" x1="71" y1="11" x2="144.44" y2="11"/><line class="cls-11" x1="71" y1="7" x2="144.44" y2="7"/><line class="cls-11" x1="71" y1="3" x2="144.44" y2="3"/></g><g><line class="cls-11" x1="-1" y1="71" x2="72.44" y2="71"/><line class="cls-11" x1="-1" y1="67" x2="72.44" y2="67"/><line class="cls-11" x1="-1" y1="63" x2="72.44" y2="63"/><line class="cls-11" x1="-1" y1="59" x2="72.44" y2="59"/><line class="cls-11" x1="-1" y1="55" x2="72.44" y2="55"/><line class="cls-11" x1="-1" y1="51" x2="72.44" y2="51"/><line class="cls-11" x1="-1" y1="47" x2="72.44" y2="47"/><line class="cls-11" x1="-1" y1="43" x2="72.44" y2="43"/><line class="cls-11" x1="-1" y1="39" x2="72.44" y2="39"/><line class="cls-11" x1="-1" y1="35" x2="72.44" y2="35"/><line class="cls-11" x1="-1" y1="31" x2="72.44" y2="31"/><line class="cls-11" x1="-1" y1="27" x2="72.44" y2="27"/><line class="cls-11" x1="-1" y1="23" x2="72.44" y2="23"/><line class="cls-11" x1="-1" y1="19" x2="72.44" y2="19"/><line class="cls-11" x1="-1" y1="15" x2="72.44" y2="15"/><line class="cls-11" x1="-1" y1="11" x2="72.44" y2="11"/><line class="cls-11" x1="-1" y1="7" x2="72.44" y2="7"/><line class="cls-11" x1="-1" y1="3" x2="72.44" y2="3"/><line class="cls-11" x1="1.04" y1="69" x2="74.48" y2="69"/><line class="cls-11" x1="1.04" y1="65" x2="74.48" y2="65"/><line class="cls-11" x1="1.04" y1="61" x2="74.48" y2="61"/><line class="cls-11" x1="1.04" y1="57" x2="74.48" y2="57"/><line class="cls-11" x1="1.04" y1="53" x2="74.48" y2="53"/><line class="cls-11" x1="1.04" y1="49" x2="74.48" y2="49"/><line class="cls-11" x1="1.04" y1="45" x2="74.48" y2="45"/><line class="cls-11" x1="1.04" y1="41" x2="74.48" y2="41"/><line class="cls-11" x1="1.04" y1="37" x2="74.48" y2="37"/><line class="cls-11" x1="1.04" y1="33" x2="74.48" y2="33"/><line class="cls-11" x1="1.04" y1="29" x2="74.48" y2="29"/><line class="cls-11" x1="1.04" y1="25" x2="74.48" y2="25"/><line class="cls-11" x1="1.04" y1="21" x2="74.48" y2="21"/><line class="cls-11" x1="1.04" y1="17" x2="74.48" y2="17"/><line class="cls-11" x1="1.04" y1="13" x2="74.48" y2="13"/><line class="cls-11" x1="1.04" y1="9" x2="74.48" y2="9"/><line class="cls-11" x1="1.04" y1="5" x2="74.48" y2="5"/><line class="cls-11" x1="1.04" y1="1" x2="74.48" y2="1"/></g><g><line class="cls-11" x1="-73" y1="71" x2=".44" y2="71"/><line class="cls-11" x1="-73" y1="67" x2=".44" y2="67"/><line class="cls-11" x1="-73" y1="63" x2=".44" y2="63"/><line class="cls-11" x1="-73" y1="59" x2=".44" y2="59"/><line class="cls-11" x1="-73" y1="55" x2=".44" y2="55"/><line class="cls-11" x1="-73" y1="51" x2=".44" y2="51"/><line class="cls-11" x1="-73" y1="47" x2=".44" y2="47"/><line class="cls-11" x1="-73" y1="43" x2=".44" y2="43"/><line class="cls-11" x1="-73" y1="39" x2=".44" y2="39"/><line class="cls-11" x1="-73" y1="35" x2=".44" y2="35"/><line class="cls-11" x1="-73" y1="31" x2=".44" y2="31"/><line class="cls-11" x1="-73" y1="27" x2=".44" y2="27"/><line class="cls-11" x1="-73" y1="23" x2=".44" y2="23"/><line class="cls-11" x1="-73" y1="19" x2=".44" y2="19"/><line class="cls-11" x1="-73" y1="15" x2=".44" y2="15"/><line class="cls-11" x1="-73" y1="11" x2=".44" y2="11"/><line class="cls-11" x1="-73" y1="7" x2=".44" y2="7"/><line class="cls-11" x1="-73" y1="3" x2=".44" y2="3"/><line class="cls-11" x1="-70.96" y1="69" x2="2.48" y2="69"/><line class="cls-11" x1="-70.96" y1="65" x2="2.48" y2="65"/><line class="cls-11" x1="-70.96" y1="61" x2="2.48" y2="61"/><line class="cls-11" x1="-70.96" y1="57" x2="2.48" y2="57"/><line class="cls-11" x1="-70.96" y1="53" x2="2.48" y2="53"/><line class="cls-11" x1="-70.96" y1="49" x2="2.48" y2="49"/><line class="cls-11" x1="-70.96" y1="45" x2="2.48" y2="45"/><line class="cls-11" x1="-70.96" y1="41" x2="2.48" y2="41"/><line class="cls-11" x1="-70.96" y1="37" x2="2.48" y2="37"/><line class="cls-11" x1="-70.96" y1="33" x2="2.48" y2="33"/><line class="cls-11" x1="-70.96" y1="29" x2="2.48" y2="29"/><line class="cls-11" x1="-70.96" y1="25" x2="2.48" y2="25"/><line class="cls-11" x1="-70.96" y1="21" x2="2.48" y2="21"/><line class="cls-11" x1="-70.96" y1="17" x2="2.48" y2="17"/><line class="cls-11" x1="-70.96" y1="13" x2="2.48" y2="13"/><line class="cls-11" x1="-70.96" y1="9" x2="2.48" y2="9"/><line class="cls-11" x1="-70.96" y1="5" x2="2.48" y2="5"/><line class="cls-11" x1="-70.96" y1="1" x2="2.48" y2="1"/></g></g></pattern></defs><g id="BG"><g><path class="cls-6" d="M64.02,40c0,11.47-1.89,22.39-5.5,31.74-7.2,2.16-14.94,3.26-23.02,3.26-.49,0-.98-.01-1.47-.02h-.17c-8.18-.15-16.29-1.47-23.6-3.85-3.45-9.22-5.26-19.93-5.26-31.13s1.89-22.38,5.48-31.73c6.73-2.01,14.13-3.13,21.6-3.26,.48-.01,.97-.01,1.45-.01,.54,0,1.08,.01,1.63,.02,8.16,.15,16.27,1.47,23.59,3.84,3.46,9.24,5.27,19.95,5.27,31.14Z"/><path class="cls-14" d="M34.03,5.59V74.98h-.17c-8.18-.15-16.29-1.47-23.6-3.85-3.45-9.22-5.26-19.93-5.26-31.13s1.89-22.38,5.48-31.73c6.73-2.01,14.13-3.13,21.6-3.26,.65,.16,1.3,.36,1.95,.58Z"/></g></g><g id="Capa_10"><g><path class="cls-1" d="M61.4,73.05l-22.79,5.88-30.95-4.29-.29-.04v-7.73l17.01-4.74,.42-9.39s-.72-2.06-2.27-7.32c-.72-.3-3.09-1.23-4.12-2.88-1.04-1.65-2.27-5.78-1.55-7.94,.72-2.16,3.3-1.86,3.3-1.86l.93-12.99,28.86,.83s1.65,3.09,3.61,11.86c3.51,1.64,2.37,7.52,.52,10.2-1.86,2.68-3.92,2.37-3.92,2.37l-1.69,5.75-.58,1.98,.41,8.66,12.48,4.44,.62,7.21Z"/><polygon class="cls-4" points="33.12 39.57 34.3 33.75 27.25 34.11 24.41 35.94 24.53 38.67 33.12 39.57"/><path class="cls-2" d="M36.11,55.59v-21.42c0-6.4,4.36-11.97,10.57-13.51l.41-.1,3.22,.66s2.31,7.93,1.82,10.9-.66,7.85-.66,7.85l-1.9,6.52-3.06,9.5-5.8,4.17h0c-2.54,.02-4.6-2.03-4.6-4.56Z"/><polygon class="cls-4" points="39.17 39.57 37.99 33.75 45.03 34.11 47.88 35.94 47.76 38.67 39.17 39.57"/><polygon class="cls-5" points="61.4 73.05 38.61 78.93 7.66 74.64 7.37 73.94 7.37 66.87 24.38 62.13 24.8 52.74 25.73 55.73 28.65 57.8 31.38 60.34 34.11 60.53 40.71 60.15 46.64 55.73 48.43 50.73 48.47 50.76 47.89 52.74 48.3 61.4 60.78 65.84 61.4 73.05"/><path class="cls-1" d="M47.46,52.65l.44,10.42s-.95,5.83-8.24,7.36c-7.29,1.39-11.01-1.6-11.01-1.6l6.63-8.38s3.13,.44,6.27-1.02c3.64-2.11,4.53-3.53,4.53-3.53l1.38-3.24Z"/><polygon points="46.69 56.41 27.38 75.83 9.38 74.1 8.57 66.58 24.12 61.8 24.83 53.05 25.73 55.73 31.38 60.34 40.19 60.58 46.69 56.41"/><path d="M19.78,33.04s-2.57-.45-3.02,2.34,1.51,6.49,2.57,7.92,2.79,1.89,2.79,1.89c0,0-1.43-4.38-1.13-6.79s-1.21-5.36-1.21-5.36Z"/><path class="cls-3" d="M33.12,39.57l-1.28-1.99-5.1-.52s-1.47,1.09-1.84,1.56c2.93,2.27,7.66,1.56,8.22,.95Z"/><path class="cls-3" d="M39.18,39.51l1.28-1.99,5.1-.52s1.47,1.09,1.84,1.56c-2.93,2.27-7.66,1.56-8.22,.95Z"/><path class="cls-2" d="M25.6,41.11c.91,.27,2.25,.56,4.01,.62,.89,.03,1.22,1.19,.51,1.71-1.69,1.25-2.8,1.78-3.44,2-.41,.14-.85,0-1.09-.36-.37-.54-.89-1.5-1.19-2.87-.15-.7,.51-1.32,1.2-1.11Z"/><path class="cls-2" d="M46.73,58.14l-10.76,11.08s5.07,.41,8.58-2.64c1.68-1.46,2.53-3.67,2.47-5.89-.05-1.66-.29-2.55-.29-2.55Z"/><path class="cls-1" d="M24.76,22.28c.7,0,1.08,.13,1.27,.23,.78,.43,4.87,2.55,8.54,2.55,.2,0,.39,0,.58-.02,3.35-.22,8.27-1.09,11.21-2.49,.43-.15,.93-.23,1.5-.23,.37,0,.7,.03,.97,.07,.34,1.45,1.11,5.31,.56,8.6-.56,3.37,.09,6.08,.55,7.46,.1,.77,.25,3.05-1.03,5.58-.25,.49-.6,.98-1.04,1.44-1.73,1.74-2.67,3.1-2.96,4.25-.21,.79,.27,1.61,1.09,1.83,.15,.04,.28,.04,.35,.04l-1.12,3.41-3.94,3.1c-.72,.57-1.64,.89-2.57,.89h-5.02c-.93,0-1.85-.31-2.57-.89l-3.94-3.1-1.11-3.41c.07,0,.2,0,.36-.04,.79-.21,1.27-.99,1.09-1.82-.29-1.17-1.23-2.52-2.96-4.26-.44-.45-.79-.94-1.05-1.45-.97-1.91-1.13-3.71-1.08-4.92,.51-1.6,.98-4.1,.45-7.18-.64-3.75,.28-8.03,.66-9.55,.33-.05,.76-.11,1.21-.11m0-1c-1.05,0-2.02,.25-2.02,.25,0,0-1.68,5.65-.84,10.57,.51,3,.01,5.4-.46,6.83-.06,1.17,.03,3.28,1.18,5.55,.3,.6,.71,1.17,1.23,1.7,1.58,1.59,2.46,2.83,2.7,3.8,.06,.27-.1,.54-.37,.61-.04,.01-.08,.01-.12,.01-.22,0-.43-.15-.48-.38-.17-.67-.82-1.62-1.92-2.8l2.67,8.19,4.18,3.29c.9,.71,2.04,1.1,3.19,1.1h5.02c1.15,0,2.29-.39,3.19-1.1l4.18-3.29,2.68-8.19c-1.11,1.18-1.75,2.13-1.92,2.8-.06,.23-.26,.38-.49,.38-.04,0-.08,0-.12-.01-.26-.07-.43-.34-.36-.61,.24-.97,1.12-2.21,2.7-3.8,.51-.53,.93-1.1,1.23-1.7,1.45-2.88,1.22-5.51,1.11-6.26-.54-1.56-1.03-4.12-.54-7.06,.73-4.4-.73-9.63-.73-9.63,0,0-.78-.21-1.78-.21-.59,0-1.26,.07-1.89,.31-2.83,1.36-7.64,2.2-10.89,2.41-.17,.01-.34,.02-.51,.02-3.14,0-6.78-1.73-8.07-2.43-.5-.27-1.14-.35-1.75-.35h0Z"/><path d="M51.11,21s1.26-7.54-5.76-9.95c-7.02-2.51-8.17-1.15-10.47-2.83-.1,2.3,.42,2.3,.42,2.3,0,0-3.77-1.78-5.44-1.88,.73,1.78,.21,1.78,.21,1.78,0,0-5.24-.1-8.59,.94s-4.5,3.56-4.5,3.56c0,0,3.56-.84,3.66,.73-.1,1.57-5.13,1.99-6.7,7.02,2.72-.42,2.83,1.15,2.62,2.2s1.88,6.07,2.62,8.38,1.68,7.12,1.68,7.12c0,0,1.88-3.35,1.05-8.27s.84-10.58,.84-10.58c0,0,2.41-.63,3.77,.1s5.34,2.62,8.59,2.41,8.06-1.05,10.89-2.41c1.68-.63,3.66-.1,3.66-.1,0,0,1.47,5.24,.73,9.63s.73,7.96,1.26,8.59c1.88-5.65,5.34-13.51-.52-18.74Z"/><path class="cls-8" d="M19.91,32.97s-2.24-.67-3.06,1.57,1.12,10.14,5.22,10.74"/><path class="cls-8" d="M21.06,37.89s-.7,3.2,1.11,6.81c.34,.67,.8,1.29,1.33,1.83,1.39,1.41,2.33,2.64,2.57,3.58"/><path class="cls-8" d="M52.52,32.97s2.24-.67,3.06,1.57-1.12,10.14-5.22,10.74"/><path class="cls-8" d="M51.37,37.89s.7,3.2-1.11,6.81c-.34,.67-.8,1.29-1.33,1.83-1.39,1.41-2.33,2.64-2.57,3.58"/><path class="cls-8" d="M22.58,45.72l3.32,10.19,4.3,3.38c1,.78,2.23,1.21,3.5,1.21h5.02c1.27,0,2.5-.43,3.5-1.21l4.3-3.38,3.33-10.19"/><path d="M41.74,51.98c-2.09-.07-4.05,.15-5.93,.51-1.74-.52-3.67-.51-5.63-.51,.91-.41,1.89-.63,2.89-.71,1-.09,2.03-.01,3.04,.27h-.29c1.97-.55,4.07-.35,5.93,.44h0Z"/><path d="M39.78,53.48c-.4,.38-.87,.98-1.36,1.15-1.67,.22-3.34,.22-5.01-.01-.47-.3-.87-.72-1.27-1.14,.54,.13,1.04,.32,1.53,.52l-.17-.05c1.64-.21,3.28-.21,4.92,0l-.17,.05c.49-.2,1-.39,1.53-.52h0Z"/><path class="cls-8" d="M38.67,43.99l1.69,1.23s.07,.96-.43,1.49c-1.19-.17-1.82-.1-1.82-.1l-.9,.89s-.54,.24-1.33,.48h-.01c-.79-.24-1.33-.48-1.33-.48l-.9-.89s-.63-.07-1.82,.1c-.5-.53-.43-1.49-.43-1.49l1.69-1.23"/><path d="M33.18,39.63c-.46-.62-.87-1.27-1.31-1.91l.19,.13-2.6-.17c-.72-.05-1.85-.15-2.53-.14l.2-.05c-.69,.38-1.43,.72-1.98,1.27,.01-.04,0,.02,.03-.13l-.22-.46c1.98,1.2,4.32,1.85,6.64,1.94-2.4,.56-5.01,.1-7.16-1.13-.17-.09-.25-.28-.22-.46,.04-.21,.04-.15,.1-.28,.59-.8,1.54-1.2,2.39-1.65,.88-.15,1.98,.15,2.85,.23,.88,.15,1.75,.31,2.62,.51,.49,.61,.67,1.53,1,2.27h0Z"/><path d="M34.35,33.73l-.66,1.73s-4.7-.22-6.38-.62c-2.08,.4-2.88,1.11-2.88,1.11,0,0,1.64-1.99,3.15-2.48,3.63,0,6.78,.27,6.78,.27Z"/><path d="M39.13,39.63c.33-.74,.51-1.66,1-2.27,.87-.2,1.74-.36,2.62-.51,.87-.08,1.96-.38,2.85-.23,.84,.44,1.8,.85,2.39,1.65,.06,.13,.06,.07,.1,.28,.03,.19-.06,.37-.22,.46-2.15,1.22-4.76,1.69-7.16,1.13,2.32-.09,4.66-.75,6.64-1.94l-.22,.46c.03,.15,.02,.08,.03,.13-.55-.56-1.29-.89-1.98-1.27,0,0,.2,.05,.2,.05-.68-.01-1.82,.09-2.53,.14,0,0-2.6,.17-2.6,.17l.19-.13c-.44,.64-.84,1.29-1.31,1.91h0Z"/><path d="M37.96,33.73l.66,1.73s4.7-.22,6.38-.62c2.08,.4,2.88,1.11,2.88,1.11,0,0-1.64-1.99-3.15-2.48-3.63,0-6.78,.27-6.78,.27Z"/><g><line class="cls-8" x1="24.14" y1="61.76" x2="7.6" y2="67.07"/><path class="cls-8" d="M47.84,52.27l.41,9.63c.09,2.38-.96,4.66-2.85,6.05-1.99,1.47-4.89,2.98-8.4,2.98h-1.6c-3.51,0-6.41-1.51-8.4-2.98-1.88-1.39-2.93-3.67-2.85-6.05l.44-9.82"/><line class="cls-8" x1="48.29" y1="61.76" x2="64.83" y2="67.07"/></g><path class="cls-5" d="M25.43,57.49c.29,1.77,.43,3.56,.48,5.35-3.09,1.3-6.34,2.36-9.59,3.21-1.83,.41-3.82,.89-5.69,1.08,0,0-.03-.1-.03-.1,4.75-1.5,10-3.4,14.52-4.66,0,0,.21-4.89,.21-4.89h.1Z"/><path class="cls-12" d="M48.72,17.35s-.56-2.93-4.74-4.93c-.5,2.93-7.8,1.62-13.16,1s-8.48,.94-8.48,.94c0,0,6.11-.87,10.23,1.87s11.23,3.56,16.15,1.12Z"/></g></g><g id="Frame"><path class="cls-5" d="M62.56,4.88C54.4,1.94,45.12,.2,35.25,.02c-.57-.01-1.15-.02-1.72-.02C23.88,0,14.77,1.52,6.72,4.21,2.49,14.22,0,26.6,0,40s2.39,25.22,6.45,35.11c8.16,2.94,17.45,4.69,27.32,4.87,.58,.01,1.15,.02,1.73,.02,9.63,0,18.73-1.51,26.78-4.2,4.24-10.01,6.74-22.39,6.74-35.8s-2.4-25.24-6.46-35.12Zm-4.04,66.86c-7.2,2.16-14.94,3.26-23.02,3.26-.49,0-.98-.01-1.47-.02h-.17c-8.18-.15-16.29-1.47-23.6-3.85-3.45-9.22-5.26-19.93-5.26-31.13s1.89-22.38,5.48-31.73c6.73-2.01,14.13-3.13,21.6-3.26,.48-.01,.97-.01,1.45-.01,.54,0,1.08,.01,1.63,.02,8.16,.15,16.27,1.47,23.59,3.84,3.46,9.24,5.27,19.95,5.27,31.14s-1.89,22.39-5.5,31.74Z"/><path class="cls-13" d="M17.21,2.06h0c1.63,.63,2.06,2.75,.81,3.97l-1.26,1.22s8.35-2.37,18.84-1.69h0c-1-1.49-.45-3.52,1.14-4.34l1-.51S28.26-.43,17.21,2.06Z"/><path class="cls-15" d="M21.81,1.66s.7,2.18-.22,3.1c3.77-.41,7.98-.74,11.12-.74-.33-1.33,1.26-3.4,1.26-3.4,0,0-6.17-.26-12.16,1.03Z"/><path class="cls-13" d="M36.25,79.21h0c-1.52-.87-1.62-3.03-.2-4.04l1.43-1.02s-8.61,1.07-18.88-1.19h0c.76,1.63-.09,3.55-1.79,4.11l-1.07,.36s9.19,2.56,20.5,1.78Z"/><path class="cls-15" d="M19.28,77.8s1.76-1.83,1.3-3.09c4.43,.69,9.11,1.14,12.25,1.14-.33,1.33,.44,3.4,.44,3.4,0,0-8-.16-13.99-1.45Z"/><polygon points="47.48 1.77 47.48 6.73 54.49 8.44 54.49 2.62 47.48 1.77"/><line class="cls-7" x1="45.5" y1="1.23" x2="45.5" y2="6.29"/><line class="cls-7" x1="56.47" y1="3.67" x2="56.47" y2="8.73"/><polygon points="47.48 78.74 47.48 73.78 54.49 72.07 54.49 77.88 47.48 78.74"/><line class="cls-7" x1="45.5" y1="79.28" x2="45.5" y2="74.21"/><line class="cls-7" x1="56.47" y1="76.84" x2="56.47" y2="71.77"/><path d="M33.53,1c.56,0,1.14,0,1.7,.02,9.39,.17,18.33,1.74,26.57,4.65,4.07,10.08,6.22,21.94,6.22,34.33s-2.24,24.79-6.49,34.99c-8.12,2.66-16.87,4.01-26.03,4.01-.56,0-1.12,0-1.71-.02-9.25-.17-18.42-1.78-26.58-4.66C3.15,64.25,1,52.39,1,40S3.23,15.21,7.47,5.02C15.6,2.35,24.37,1,33.53,1m0-1C23.88,0,14.77,1.52,6.72,4.21,2.49,14.22,0,26.6,0,40s2.39,25.22,6.45,35.11c8.16,2.94,17.45,4.69,27.32,4.87,.58,.01,1.15,.02,1.73,.02,9.63,0,18.73-1.51,26.78-4.2,4.24-10.01,6.74-22.39,6.74-35.8s-2.4-25.24-6.46-35.12C54.4,1.94,45.12,.2,35.25,.02c-.57,0-1.15-.02-1.72-.02h0Z"/><path class="cls-13" d="M33.53,6c.52,0,1.04,0,1.61,.02,7.87,.14,15.75,1.4,22.84,3.64,3.3,9,5.04,19.47,5.04,30.34s-1.82,21.82-5.26,30.92c-6.98,2.04-14.47,3.08-22.26,3.08-.48,0-.97,0-1.47-.02h-.15c-7.89-.14-15.78-1.41-22.85-3.65-3.29-8.99-5.03-19.46-5.03-30.33s1.81-21.79,5.24-30.91c6.5-1.89,13.7-2.95,20.86-3.08,.47,0,.96,0,1.43,0m0-1c-.48,0-.97,0-1.45,.01-7.47,.13-14.87,1.25-21.6,3.26-3.59,9.35-5.48,20.26-5.48,31.73s1.81,21.91,5.26,31.13c7.31,2.38,15.42,3.7,23.6,3.85h.17c.49,.01,.98,.02,1.47,.02,8.08,0,15.82-1.1,23.02-3.26,3.61-9.35,5.5-20.27,5.5-31.74s-1.81-21.9-5.27-31.14c-7.32-2.37-15.43-3.69-23.59-3.84-.55,0-1.09-.02-1.63-.02h0Z"/><path d="M33.53,5c.54,0,1.08,.01,1.63,.02,8.16,.15,16.27,1.47,23.59,3.84,3.46,9.24,5.27,19.95,5.27,31.14s-1.89,22.39-5.5,31.74c-7.2,2.16-14.94,3.26-23.02,3.26-.49,0-.98-.01-1.47-.02h-.17c-8.18-.15-16.29-1.47-23.6-3.85-3.45-9.22-5.26-19.93-5.26-31.13s1.89-22.38,5.48-31.73c6.73-2.01,14.13-3.13,21.6-3.26,.48-.01,.97-.01,1.45-.01m0-1c-.49,0-.98,0-1.47,.01-7.51,.13-15.07,1.27-21.87,3.3l-.47,.14-.18,.46c-3.63,9.45-5.55,20.55-5.55,32.09s1.84,22.17,5.32,31.48l.17,.45,.46,.15c7.37,2.4,15.63,3.75,23.89,3.9h.19c.48,.01,.97,.02,1.47,.02,8.16,0,16-1.11,23.31-3.3l.47-.14,.18-.46c3.64-9.43,5.57-20.53,5.57-32.1s-1.84-22.17-5.33-31.49l-.17-.45-.46-.15c-7.39-2.39-15.65-3.74-23.88-3.89-.58-.01-1.12-.02-1.65-.02h0Z"/><path class="cls-9" d="M8.14,7.1s-12.66,32.94,0,66.06"/><path class="cls-9" d="M60.88,7.58s12.66,32.94,0,66.06"/></g></svg>