<svg id="Capa_2" xmlns="http://www.w3.org/2000/svg" xmlns:xlink="http://www.w3.org/1999/xlink" viewBox="0 0 69.02 80">
<defs >
<style >
.cls-1{fill:#c89aed;}.cls-2{fill:#fff;}.cls-3{fill:#f8ffbf;}.cls-4{fill:#7b7be8;}.cls-5{fill:#a88347;}.cls-6{fill:#782ab5;}.cls-7{stroke-miterlimit:10;}.cls-7,.cls-8{stroke:#000;}.cls-7,.cls-8,.cls-9,.cls-10,.cls-11{fill:none;}.cls-12{fill:#1c46ff;}.cls-8,.cls-9{stroke-linecap:round;stroke-linejoin:round;}.cls-9{stroke:#deb778;stroke-dasharray:0 0 0 4.06;}.cls-13{fill:#deb778;}.cls-14{fill:url(#USGS_19_Inundación_de_tierra_2);}.cls-11{stroke:#1d1d1b;stroke-dasharray:0 0 2 2;stroke-width:.3px;}.cls-15{fill:#fcf0c5;}
</style>
<pattern id="USGS_19_Inundación_de_tierra_2" x="0" y="0" width="72" height="72" patternTransform="translate(-164.48 -16279) rotate(-90)" patternUnits="userSpaceOnUse" viewBox="0 0 72 72">
<g >
<rect class="cls-10" width="72" height="72">
</rect>
<g >
<line class="cls-11" x1="71" y1="71" x2="144.44" y2="71">
</line>
<line class="cls-11" x1="71" y1="67" x2="144.44" y2="67">
</line>
<line class="cls-11" x1="71" y1="63" x2="144.44" y2="63">
</line>
<line class="cls-11" x1="71" y1="59" x2="144.44" y2="59">
</line>
<line class="cls-11" x1="71" y1="55" x2="144.44" y2="55">
</line>
<line class="cls-11" x1="71" y1="51" x2="144.44" y2="51">
</line>
<line class="cls-11" x1="71" y1="47" x2="144.44" y2="47">
</line>
<line class="cls-11" x1="71" y1="43" x2="144.44" y2="43">
</line>
<line class="cls-11" x1="71" y1="39" x2="144.44" y2="39">
</line>
<line class="cls-11" x1="71" y1="35" x2="144.44" y2="35">
</line>
<line class="cls-11" x1="71" y1="31" x2="144.44" y2="31">
</line>
<line class="cls-11" x1="71" y1="27" x2="144.44" y2="27">
</line>
<line class="cls-11" x1="71" y1="23" x2="144.44" y2="23">
</line>
<line class="cls-11" x1="71" y1="19" x2="144.44" y2="19">
</line>
<line class="cls-11" x1="71" y1="15" x2="144.44" y2="15">
</line>
<line class="cls-11" x1="71" y1="11" x2="144.44" y2="11">
</line>
<line class="cls-11" x1="71" y1="7" x2="144.44" y2="7">
</line>
<line class="cls-11" x1="71" y1="3" x2="144.44" y2="3">
</line>
</g>
<g >
<line class="cls-11" x1="-1" y1="71" x2="72.44" y2="71">
</line>
<line class="cls-11" x1="-1" y1="67" x2="72.44" y2="67">
</line>
<line class="cls-11" x1="-1" y1="63" x2="72.44" y2="63">
</line>
<line class="cls-11" x1="-1" y1="59" x2="72.44" y2="59">
</line>
<line class="cls-11" x1="-1" y1="55" x2="72.44" y2="55">
</line>
<line class="cls-11" x1="-1" y1="51" x2="72.44" y2="51">
</line>
<line class="cls-11" x1="-1" y1="47" x2="72.44" y2="47">
</line>
<line class="cls-11" x1="-1" y1="43" x2="72.44" y2="43">
</line>
<line class="cls-11" x1="-1" y1="39" x2="72.44" y2="39">
</line>
<line class="cls-11" x1="-1" y1="35" x2="72.44" y2="35">
</line>
<line class="cls-11" x1="-1" y1="31" x2="72.44" y2="31">
</line>
<line class="cls-11" x1="-1" y1="27" x2="72.44" y2="27">
</line>
<line class="cls-11" x1="-1" y1="23" x2="72.44" y2="23">
</line>
<line class="cls-11" x1="-1" y1="19" x2="72.44" y2="19">
</line>
<line class="cls-11" x1="-1" y1="15" x2="72.44" y2="15">
</line>
<line class="cls-11" x1="-1" y1="11" x2="72.44" y2="11">
</line>
<line class="cls-11" x1="-1" y1="7" x2="72.44" y2="7">
</line>
<line class="cls-11" x1="-1" y1="3" x2="72.44" y2="3">
</line>
<line class="cls-11" x1="1.04" y1="69" x2="74.48" y2="69">
</line>
<line class="cls-11" x1="1.04" y1="65" x2="74.48" y2="65">
</line>
<line class="cls-11" x1="1.04" y1="61" x2="74.48" y2="61">
</line>
<line class="cls-11" x1="1.04" y1="57" x2="74.48" y2="57">
</line>
<line class="cls-11" x1="1.04" y1="53" x2="74.48" y2="53">
</line>
<line class="cls-11" x1="1.04" y1="49" x2="74.48" y2="49">
</line>
<line class="cls-11" x1="1.04" y1="45" x2="74.48" y2="45">
</line>
<line class="cls-11" x1="1.04" y1="41" x2="74.48" y2="41">
</line>
<line class="cls-11" x1="1.04" y1="37" x2="74.48" y2="37">
</line>
<line class="cls-11" x1="1.04" y1="33" x2="74.48" y2="33">
</line>
<line class="cls-11" x1="1.04" y1="29" x2="74.48" y2="29">
</line>
<line class="cls-11" x1="1.04" y1="25" x2="74.48" y2="25">
</line>
<line class="cls-11" x1="1.04" y1="21" x2="74.48" y2="21">
</line>
<line class="cls-11" x1="1.04" y1="17" x2="74.48" y2="17">
</line>
<line class="cls-11" x1="1.04" y1="13" x2="74.48" y2="13">
</line>
<line class="cls-11" x1="1.04" y1="9" x2="74.48" y2="9">
</line>
<line class="cls-11" x1="1.04" y1="5" x2="74.48" y2="5">
</line>
<line class="cls-11" x1="1.04" y1="1" x2="74.48" y2="1">
</line>
</g>
<g >
<line class="cls-11" x1="-73" y1="71" x2=".44" y2="71">
</line>
<line class="cls-11" x1="-73" y1="67" x2=".44" y2="67">
</line>
<line class="cls-11" x1="-73" y1="63" x2=".44" y2="63">
</line>
<line class="cls-11" x1="-73" y1="59" x2=".44" y2="59">
</line>
<line class="cls-11" x1="-73" y1="55" x2=".44" y2="55">
</line>
<line class="cls-11" x1="-73" y1="51" x2=".44" y2="51">
</line>
<line class="cls-11" x1="-73" y1="47" x2=".44" y2="47">
</line>
<line class="cls-11" x1="-73" y1="43" x2=".44" y2="43">
</line>
<line class="cls-11" x1="-73" y1="39" x2=".44" y2="39">
</line>
<line class="cls-11" x1="-73" y1="35" x2=".44" y2="35">
</line>
<line class="cls-11" x1="-73" y1="31" x2=".44" y2="31">
</line>
<line class="cls-11" x1="-73" y1="27" x2=".44" y2="27">
</line>
<line class="cls-11" x1="-73" y1="23" x2=".44" y2="23">
</line>
<line class="cls-11" x1="-73" y1="19" x2=".44" y2="19">
</line>
<line class="cls-11" x1="-73" y1="15" x2=".44" y2="15">
</line>
<line class="cls-11" x1="-73" y1="11" x2=".44" y2="11">
</line>
<line class="cls-11" x1="-73" y1="7" x2=".44" y2="7">
</line>
<line class="cls-11" x1="-73" y1="3" x2=".44" y2="3">
</line>
<line class="cls-11" x1="-70.96" y1="69" x2="2.48" y2="69">
</line>
<line class="cls-11" x1="-70.96" y1="65" x2="2.48" y2="65">
</line>
<line class="cls-11" x1="-70.96" y1="61" x2="2.48" y2="61">
</line>
<line class="cls-11" x1="-70.96" y1="57" x2="2.48" y2="57">
</line>
<line class="cls-11" x1="-70.96" y1="53" x2="2.48" y2="53">
</line>
<line class="cls-11" x1="-70.96" y1="49" x2="2.48" y2="49">
</line>
<line class="cls-11" x1="-70.96" y1="45" x2="2.48" y2="45">
</line>
<line class="cls-11" x1="-70.96" y1="41" x2="2.48" y2="41">
</line>
<line class="cls-11" x1="-70.96" y1="37" x2="2.48" y2="37">
</line>
<line class="cls-11" x1="-70.96" y1="33" x2="2.48" y2="33">
</line>
<line class="cls-11" x1="-70.96" y1="29" x2="2.48" y2="29">
</line>
<line class="cls-11" x1="-70.96" y1="25" x2="2.48" y2="25">
</line>
<line class="cls-11" x1="-70.96" y1="21" x2="2.48" y2="21">
</line>
<line class="cls-11" x1="-70.96" y1="17" x2="2.48" y2="17">
</line>
<line class="cls-11" x1="-70.96" y1="13" x2="2.48" y2="13">
</line>
<line class="cls-11" x1="-70.96" y1="9" x2="2.48" y2="9">
</line>
<line class="cls-11" x1="-70.96" y1="5" x2="2.48" y2="5">
</line>
<line class="cls-11" x1="-70.96" y1="1" x2="2.48" y2="1">
</line>
</g>
</g>
</pattern>
</defs>

<g id="Capa_10">
<g >
<path class="cls-1" d="M61.4,73.05l-22.79,5.88-30.95-4.29-.29-.04v-7.73l17.01-4.74,.42-9.39s-.72-2.06-2.27-7.32c-.72-.3-3.09-1.23-4.12-2.88-1.04-1.65-2.27-5.78-1.55-7.94,.72-2.16,3.3-1.86,3.3-1.86l.93-12.99,28.86,.83s1.65,3.09,3.61,11.86c3.51,1.64,2.37,7.52,.52,10.2-1.86,2.68-3.92,2.37-3.92,2.37l-1.69,5.75-.58,1.98,.41,8.66,12.48,4.44,.62,7.21Z">
</path>
<polygon class="cls-4" points="33.12 39.57 34.3 33.75 27.25 34.11 24.41 35.94 24.53 38.67 33.12 39.57">
</polygon>
<path class="cls-2" d="M36.11,55.59v-21.42c0-6.4,4.36-11.97,10.57-13.51l.41-.1,3.22,.66s2.31,7.93,1.82,10.9-.66,7.85-.66,7.85l-1.9,6.52-3.06,9.5-5.8,4.17h0c-2.54,.02-4.6-2.03-4.6-4.56Z">
</path>
<polygon class="cls-4" points="39.17 39.57 37.99 33.75 45.03 34.11 47.88 35.94 47.76 38.67 39.17 39.57">
</polygon>
<polygon class="cls-5" points="61.4 73.05 38.61 78.93 7.66 74.64 7.37 73.94 7.37 66.87 24.38 62.13 24.8 52.74 25.73 55.73 28.65 57.8 31.38 60.34 34.11 60.53 40.71 60.15 46.64 55.73 48.43 50.73 48.47 50.76 47.89 52.74 48.3 61.4 60.78 65.84 61.4 73.05">
</polygon>
<path class="cls-1" d="M47.46,52.65l.44,10.42s-.95,5.83-8.24,7.36c-7.29,1.39-11.01-1.6-11.01-1.6l6.63-8.38s3.13,.44,6.27-1.02c3.64-2.11,4.53-3.53,4.53-3.53l1.38-3.24Z">
</path>
<polygon points="46.69 56.41 27.38 75.83 9.38 74.1 8.57 66.58 24.12 61.8 24.83 53.05 25.73 55.73 31.38 60.34 40.19 60.58 46.69 56.41">
</polygon>
<path d="M19.78,33.04s-2.57-.45-3.02,2.34,1.51,6.49,2.57,7.92,2.79,1.89,2.79,1.89c0,0-1.43-4.38-1.13-6.79s-1.21-5.36-1.21-5.36Z">
</path>
<path class="cls-3" d="M33.12,39.57l-1.28-1.99-5.1-.52s-1.47,1.09-1.84,1.56c2.93,2.27,7.66,1.56,8.22,.95Z">
</path>
<path class="cls-3" d="M39.18,39.51l1.28-1.99,5.1-.52s1.47,1.09,1.84,1.56c-2.93,2.27-7.66,1.56-8.22,.95Z">
</path>
<path class="cls-2" d="M25.6,41.11c.91,.27,2.25,.56,4.01,.62,.89,.03,1.22,1.19,.51,1.71-1.69,1.25-2.8,1.78-3.44,2-.41,.14-.85,0-1.09-.36-.37-.54-.89-1.5-1.19-2.87-.15-.7,.51-1.32,1.2-1.11Z">
</path>
<path class="cls-2" d="M46.73,58.14l-10.76,11.08s5.07,.41,8.58-2.64c1.68-1.46,2.53-3.67,2.47-5.89-.05-1.66-.29-2.55-.29-2.55Z">
</path>
<path class="cls-1" d="M24.76,22.28c.7,0,1.08,.13,1.27,.23,.78,.43,4.87,2.55,8.54,2.55,.2,0,.39,0,.58-.02,3.35-.22,8.27-1.09,11.21-2.49,.43-.15,.93-.23,1.5-.23,.37,0,.7,.03,.97,.07,.34,1.45,1.11,5.31,.56,8.6-.56,3.37,.09,6.08,.55,7.46,.1,.77,.25,3.05-1.03,5.58-.25,.49-.6,.98-1.04,1.44-1.73,1.74-2.67,3.1-2.96,4.25-.21,.79,.27,1.61,1.09,1.83,.15,.04,.28,.04,.35,.04l-1.12,3.41-3.94,3.1c-.72,.57-1.64,.89-2.57,.89h-5.02c-.93,0-1.85-.31-2.57-.89l-3.94-3.1-1.11-3.41c.07,0,.2,0,.36-.04,.79-.21,1.27-.99,1.09-1.82-.29-1.17-1.23-2.52-2.96-4.26-.44-.45-.79-.94-1.05-1.45-.97-1.91-1.13-3.71-1.08-4.92,.51-1.6,.98-4.1,.45-7.18-.64-3.75,.28-8.03,.66-9.55,.33-.05,.76-.11,1.21-.11m0-1c-1.05,0-2.02,.25-2.02,.25,0,0-1.68,5.65-.84,10.57,.51,3,.01,5.4-.46,6.83-.06,1.17,.03,3.28,1.18,5.55,.3,.6,.71,1.17,1.23,1.7,1.58,1.59,2.46,2.83,2.7,3.8,.06,.27-.1,.54-.37,.61-.04,.01-.08,.01-.12,.01-.22,0-.43-.15-.48-.38-.17-.67-.82-1.62-1.92-2.8l2.67,8.19,4.18,3.29c.9,.71,2.04,1.1,3.19,1.1h5.02c1.15,0,2.29-.39,3.19-1.1l4.18-3.29,2.68-8.19c-1.11,1.18-1.75,2.13-1.92,2.8-.06,.23-.26,.38-.49,.38-.04,0-.08,0-.12-.01-.26-.07-.43-.34-.36-.61,.24-.97,1.12-2.21,2.7-3.8,.51-.53,.93-1.1,1.23-1.7,1.45-2.88,1.22-5.51,1.11-6.26-.54-1.56-1.03-4.12-.54-7.06,.73-4.4-.73-9.63-.73-9.63,0,0-.78-.21-1.78-.21-.59,0-1.26,.07-1.89,.31-2.83,1.36-7.64,2.2-10.89,2.41-.17,.01-.34,.02-.51,.02-3.14,0-6.78-1.73-8.07-2.43-.5-.27-1.14-.35-1.75-.35h0Z">
</path>
<path d="M51.11,21s1.26-7.54-5.76-9.95c-7.02-2.51-8.17-1.15-10.47-2.83-.1,2.3,.42,2.3,.42,2.3,0,0-3.77-1.78-5.44-1.88,.73,1.78,.21,1.78,.21,1.78,0,0-5.24-.1-8.59,.94s-4.5,3.56-4.5,3.56c0,0,3.56-.84,3.66,.73-.1,1.57-5.13,1.99-6.7,7.02,2.72-.42,2.83,1.15,2.62,2.2s1.88,6.07,2.62,8.38,1.68,7.12,1.68,7.12c0,0,1.88-3.35,1.05-8.27s.84-10.58,.84-10.58c0,0,2.41-.63,3.77,.1s5.34,2.62,8.59,2.41,8.06-1.05,10.89-2.41c1.68-.63,3.66-.1,3.66-.1,0,0,1.47,5.24,.73,9.63s.73,7.96,1.26,8.59c1.88-5.65,5.34-13.51-.52-18.74Z">
</path>
<path class="cls-8" d="M19.91,32.97s-2.24-.67-3.06,1.57,1.12,10.14,5.22,10.74">
</path>
<path class="cls-8" d="M21.06,37.89s-.7,3.2,1.11,6.81c.34,.67,.8,1.29,1.33,1.83,1.39,1.41,2.33,2.64,2.57,3.58">
</path>
<path class="cls-8" d="M52.52,32.97s2.24-.67,3.06,1.57-1.12,10.14-5.22,10.74">
</path>
<path class="cls-8" d="M51.37,37.89s.7,3.2-1.11,6.81c-.34,.67-.8,1.29-1.33,1.83-1.39,1.41-2.33,2.64-2.57,3.58">
</path>
<path class="cls-8" d="M22.58,45.72l3.32,10.19,4.3,3.38c1,.78,2.23,1.21,3.5,1.21h5.02c1.27,0,2.5-.43,3.5-1.21l4.3-3.38,3.33-10.19">
</path>
<path d="M41.74,51.98c-2.09-.07-4.05,.15-5.93,.51-1.74-.52-3.67-.51-5.63-.51,.91-.41,1.89-.63,2.89-.71,1-.09,2.03-.01,3.04,.27h-.29c1.97-.55,4.07-.35,5.93,.44h0Z">
</path>
<path d="M39.78,53.48c-.4,.38-.87,.98-1.36,1.15-1.67,.22-3.34,.22-5.01-.01-.47-.3-.87-.72-1.27-1.14,.54,.13,1.04,.32,1.53,.52l-.17-.05c1.64-.21,3.28-.21,4.92,0l-.17,.05c.49-.2,1-.39,1.53-.52h0Z">
</path>
<path class="cls-8" d="M38.67,43.99l1.69,1.23s.07,.96-.43,1.49c-1.19-.17-1.82-.1-1.82-.1l-.9,.89s-.54,.24-1.33,.48h-.01c-.79-.24-1.33-.48-1.33-.48l-.9-.89s-.63-.07-1.82,.1c-.5-.53-.43-1.49-.43-1.49l1.69-1.23">
</path>
<path d="M33.18,39.63c-.46-.62-.87-1.27-1.31-1.91l.19,.13-2.6-.17c-.72-.05-1.85-.15-2.53-.14l.2-.05c-.69,.38-1.43,.72-1.98,1.27,.01-.04,0,.02,.03-.13l-.22-.46c1.98,1.2,4.32,1.85,6.64,1.94-2.4,.56-5.01,.1-7.16-1.13-.17-.09-.25-.28-.22-.46,.04-.21,.04-.15,.1-.28,.59-.8,1.54-1.2,2.39-1.65,.88-.15,1.98,.15,2.85,.23,.88,.15,1.75,.31,2.62,.51,.49,.61,.67,1.53,1,2.27h0Z">
</path>
<path d="M34.35,33.73l-.66,1.73s-4.7-.22-6.38-.62c-2.08,.4-2.88,1.11-2.88,1.11,0,0,1.64-1.99,3.15-2.48,3.63,0,6.78,.27,6.78,.27Z">
</path>
<path d="M39.13,39.63c.33-.74,.51-1.66,1-2.27,.87-.2,1.74-.36,2.62-.51,.87-.08,1.96-.38,2.85-.23,.84,.44,1.8,.85,2.39,1.65,.06,.13,.06,.07,.1,.28,.03,.19-.06,.37-.22,.46-2.15,1.22-4.76,1.69-7.16,1.13,2.32-.09,4.66-.75,6.64-1.94l-.22,.46c.03,.15,.02,.08,.03,.13-.55-.56-1.29-.89-1.98-1.27,0,0,.2,.05,.2,.05-.68-.01-1.82,.09-2.53,.14,0,0-2.6,.17-2.6,.17l.19-.13c-.44,.64-.84,1.29-1.31,1.91h0Z">
</path>
<path d="M37.96,33.73l.66,1.73s4.7-.22,6.38-.62c2.08,.4,2.88,1.11,2.88,1.11,0,0-1.64-1.99-3.15-2.48-3.63,0-6.78,.27-6.78,.27Z">
</path>
<g >
<line class="cls-8" x1="24.14" y1="61.76" x2="7.6" y2="67.07">
</line>
<path class="cls-8" d="M47.84,52.27l.41,9.63c.09,2.38-.96,4.66-2.85,6.05-1.99,1.47-4.89,2.98-8.4,2.98h-1.6c-3.51,0-6.41-1.51-8.4-2.98-1.88-1.39-2.93-3.67-2.85-6.05l.44-9.82">
</path>
<line class="cls-8" x1="48.29" y1="61.76" x2="64.83" y2="67.07">
</line>
</g>
<path class="cls-5" d="M25.43,57.49c.29,1.77,.43,3.56,.48,5.35-3.09,1.3-6.34,2.36-9.59,3.21-1.83,.41-3.82,.89-5.69,1.08,0,0-.03-.1-.03-.1,4.75-1.5,10-3.4,14.52-4.66,0,0,.21-4.89,.21-4.89h.1Z">
</path>
<path class="cls-12" d="M48.72,17.35s-.56-2.93-4.74-4.93c-.5,2.93-7.8,1.62-13.16,1s-8.48,.94-8.48,.94c0,0,6.11-.87,10.23,1.87s11.23,3.56,16.15,1.12Z">
</path>
</g>
</g>
 <g
     id="g2850">
    <g
       id="g2837">
      <path
         id="path1951"
         d="M 0.056640625 0.04296875 L 0.056640625 79.943359 L 69.308594 79.943359 L 69.308594 0.04296875 L 0.056640625 0.04296875 z M 33.615234 3.5957031 C 34.206332 3.5957038 34.786991 3.6051034 35.421875 3.6152344 C 44.430653 3.7671809 53.471255 5.1336733 61.560547 7.5546875 L 62.064453 7.7070312 L 62.25 8.1640625 C 66.070247 17.605006 66.990234 28.726438 66.990234 40.0625 C 66.990234 51.398562 65.972723 63.025755 61.988281 72.578125 L 61.791016 73.044922 L 61.275391 73.185547 C 53.273669 75.403966 44.691921 76.529297 35.759766 76.529297 C 35.212453 76.529297 34.675812 76.519896 34.150391 76.509766 L 33.943359 76.509766 C 24.901742 76.357819 15.860367 74.989738 7.7929688 72.558594 L 7.2890625 72.40625 L 7.1035156 71.951172 C 3.2942144 62.520359 2.375 51.369168 2.375 40.0625 C 2.375 28.755832 3.3819737 17.127318 7.3554688 7.5546875 L 7.5527344 7.0898438 L 8.0664062 6.9472656 C 15.509867 4.890923 23.785212 3.7371557 32.005859 3.6054688 C 32.542226 3.5953387 33.078867 3.5957031 33.615234 3.5957031 z "
         style="opacity:1;vector-effect:none;fill:#ffffff;fill-opacity:1;fill-rule:nonzero;stroke:none;stroke-width:1.95200002;stroke-linecap:butt;stroke-linejoin:miter;stroke-miterlimit:4;stroke-dasharray:none;stroke-dashoffset:0;stroke-opacity:1" />
    </g>
    <path
       id="path1154-8-2"
       d="m 33.675163,6.6112954 c 0.557696,0 1.115392,0.00956 1.683415,0.019115 8.427403,0.14336 16.803167,1.4049288 24.363042,3.6700176 3.573384,8.830981 4.443772,19.417362 4.443772,29.761551 0,10.344189 -0.95301,21.39888 -4.68131,30.334991 -7.435942,2.064385 -15.429581,3.274388 -23.774362,3.274388 -0.506058,0 -1.012115,-0.0096 -1.518172,-0.01911 h -0.17557 C 25.56792,73.508883 17.192156,72.088619 9.6426089,69.813973 6.0795528,61.002107 5.2088244,50.415411 5.2088244,40.061979 c 0,-10.353432 0.95335,-21.389323 4.6609939,-30.325434 C 16.820359,7.8155201 24.462856,6.7450981 32.177647,6.6208528 c 0.49573,-0.00956 1.001787,-0.00956 1.497516,-0.00956 m 0,-0.9557337 c -0.506057,0 -1.012114,0 -1.518171,0.00956 C 24.40089,5.7893644 16.593149,6.8789009 9.570315,8.8190405 L 9.0849131,8.9528432 8.8990146,9.3924808 C 5.1500599,18.424166 4.1999116,29.394246 4.1999116,40.061979 c 0,10.667733 0.8675267,21.188618 4.461566,30.0865 l 0.1755708,0.430081 0.4750741,0.14336 c 7.6115135,2.293761 16.1421925,3.584001 24.6728715,3.727361 h 0.196227 c 0.495729,0.0096 1.001786,0.01911 1.518171,0.01911 8.427403,0 16.524318,-1.060864 24.073866,-3.153921 l 0.485403,-0.133802 0.185898,-0.439639 c 3.759282,-9.01257 4.719759,-19.983589 4.719759,-30.679055 0,-10.695466 -0.867528,-21.188618 -4.471894,-30.0960578 L 60.516853,9.5358409 60.041779,9.3924808 C 52.409609,7.108277 43.87893,5.8180364 35.379234,5.6746763 34.780227,5.6651187 34.232859,5.6555621 33.675163,5.6555615 Z"
       style="fill:#ff0000;stroke:#ffffff;stroke-width:1.84341729;stroke-miterlimit:4;stroke-dasharray:none" />
    <path
       id="path1154"
       d="m 33.614853,4.6077955 c 0.591098,0 1.182197,0.01013 1.784241,0.02026 8.932155,0.1519464 17.809578,1.4890758 25.822246,3.8898304 3.787408,9.3599041 4.709928,20.5803481 4.709928,31.5440931 0,10.963745 -1.01009,22.680548 -4.961693,32.151879 -7.881312,2.18803 -16.353723,3.302304 -25.198307,3.302304 -0.536368,0 -1.072735,-0.01013 -1.609102,-0.02026 H 33.97608 C 25.022033,75.343956 16.14461,74.006827 8.1428892,71.595943 4.3664269,62.256298 3.443547,51.035521 3.443547,40.061979 c 0,-10.973542 1.01045,-22.670418 4.9401601,-32.1417498 7.3668369,-2.036083 15.4670749,-3.170617 23.6439369,-3.3023039 0.525421,-0.01013 1.061788,-0.01013 1.587209,-0.01013 m 0,-1.0129766 c -0.536367,0 -1.072734,0 -1.609101,0.01013 C 23.785105,3.7366356 15.509726,4.891429 8.0662653,6.9477716 L 7.5517907,7.0895883 7.3547579,7.5555576 C 3.3812628,17.128188 2.3742062,28.755311 2.3742062,40.061979 c 0,11.306668 0.9194864,22.457692 4.7287876,31.888505 l 0.1860865,0.45584 0.5035283,0.151947 c 8.0673984,2.431144 17.1090154,3.798662 26.1506324,3.950608 h 0.207979 c 0.525421,0.01013 1.061788,0.02026 1.609101,0.02026 8.932155,0 17.514028,-1.124404 25.51575,-3.342823 l 0.514475,-0.141816 0.197032,-0.46597 c 3.984442,-9.55237 5.002445,-21.180489 5.002445,-32.516551 0,-11.336062 -0.919487,-22.457692 -4.739734,-31.8986353 L 62.064202,7.7075041 61.560674,7.5555576 C 53.471382,5.1345434 44.429765,3.7670249 35.420987,3.6150784 c -0.634884,-0.01013 -1.215036,-0.020259 -1.806134,-0.02026 z"
       style="fill:#000000;stroke:#000000;stroke-width:1.95382714;stroke-miterlimit:4;stroke-dasharray:none" />
    <g
       id="g1810">
      <path
         d="M 6.5134911,7.7433673 C 5.6489029,6.8479453 4.058602,6.5681013 3.6272194,7.3820013 3.284151,8.0292783 3.3625296,8.5309135 4.395235,8.9201755 3.2963719,9.5187755 1.4857674,9.4447465 1.1893447,7.4467713 0.95320848,5.8551433 2.674739,4.8863543 3.1399725,5.0916244 3.0034432,3.6818714 1.8221094,4.0692802 0.95849208,3.2813384 0.34259068,2.7194046 0.23126071,-0.02624603 0.0561761,0.04378767 -0.0138576,0.21887227 2.7317937,0.33020157 3.2937267,0.94610377 4.0816685,1.8097211 3.6942598,2.9910547 5.1040128,3.1275841 4.8987425,2.6623507 5.8675315,0.94082017 7.4591593,1.1769564 9.4571345,1.4733791 9.5311625,3.2839847 8.9325635,4.3828467 8.5433008,3.3501417 8.041666,3.2717627 7.3943894,3.6148312 6.5804899,4.0462137 6.8603354,5.6365129 7.7557553,6.5011023"
         style="fill:#000000;stroke:#000000;stroke-width:0.1112323px;stroke-linecap:butt;stroke-linejoin:miter;stroke-opacity:1"
         id="path1737-3" />
      <path
         d="m 62.850738,7.7433673 c 0.864588,-0.895422 2.454889,-1.175266 2.886271,-0.361366 0.343069,0.647277 0.26469,1.148912 -0.768015,1.538174 1.098863,0.5986 2.909467,0.524571 3.20589,-1.473404 0.236136,-1.591628 -1.485394,-2.560417 -1.950628,-2.3551469 0.13653,-1.409753 1.317863,-1.0223442 2.181481,-1.810286 0.615901,-0.5619338 0.727231,-3.30758442 0.902316,-3.23755072 0.07003,0.1750846 -2.675618,0.2864139 -3.237551,0.9023161 C 65.28256,1.8097211 65.669969,2.9910547 64.260216,3.1275841 64.465486,2.6623507 63.496697,0.94082018 61.905069,1.1769564 c -1.997975,0.2964227 -2.072003,2.1070283 -1.473404,3.2058903 0.389263,-1.032705 0.890898,-1.111084 1.538174,-0.7680155 0.8139,0.4313825 0.534054,2.0216817 -0.361366,2.8862711"
         style="fill:#000000;stroke:#000000;stroke-width:0.1112323px;stroke-linecap:butt;stroke-linejoin:miter;stroke-opacity:1"
         id="path1737-3-5" />
      <path
         d="m 62.850738,72.244244 c 0.864588,0.895422 2.454889,1.175266 2.886272,0.361366 0.343068,-0.647277 0.264689,-1.148912 -0.768016,-1.538174 1.098863,-0.5986 2.909468,-0.524571 3.20589,1.473404 0.236137,1.591628 -1.485394,2.560417 -1.950628,2.355147 0.13653,1.409753 1.317864,1.022344 2.181481,1.810286 0.615901,0.561934 0.727231,3.307584 0.902316,3.237551 0.07003,-0.175085 -2.675618,-0.286414 -3.237551,-0.902317 -0.787942,-0.863617 -0.400533,-2.04495 -1.810286,-2.18148 0.20527,0.465234 -0.763519,2.186764 -2.355146,1.950628 -1.997976,-0.296423 -2.072004,-2.107028 -1.473405,-3.20589 0.389263,1.032705 0.890898,1.111084 1.538175,0.768015 0.813899,-0.431382 0.534054,-2.021682 -0.361366,-2.886271"
         style="fill:#000000;stroke:#000000;stroke-width:0.1112323px;stroke-linecap:butt;stroke-linejoin:miter;stroke-opacity:1"
         id="path1737-3-7" />
      <path
         d="M 6.513491,72.244245 C 5.648903,73.139667 4.058602,73.419511 3.62722,72.605611 3.284151,71.958334 3.36253,71.456699 4.395235,71.067437 c -1.098863,-0.5986 -2.909467,-0.524571 -3.20589,1.473404 -0.23613599,1.591628 1.485394,2.560417 1.950628,2.355147 -0.13653,1.409753 -1.317863,1.022344 -2.18148099,1.810286 -0.615901,0.561933 -0.727231,3.307584 -0.902316,3.23755 C -0.01385399,79.76874 2.731794,79.65741 3.293727,79.041508 4.081669,78.177891 3.69426,76.996557 5.104013,76.860028 4.898743,77.325261 5.867532,79.046792 7.45916,78.810656 9.457135,78.514233 9.531163,76.703627 8.932564,75.604765 8.543301,76.63747 8.041666,76.715849 7.39439,76.372781 6.58049,75.941398 6.860336,74.351099 7.755756,73.48651"
         style="fill:#000000;stroke:#000000;stroke-width:0.1112323px;stroke-linecap:butt;stroke-linejoin:miter;stroke-opacity:1"
         id="path1737-3-5-5" />
    </g>
    <path
       id="path1154-9"
       d="m 33.712865,7.4258691 c 0.536813,0 1.07363,0.00933 1.620386,0.01865 8.111875,0.1398689 16.174044,1.3707167 23.450873,3.5806479 3.439594,8.615932 4.277395,18.944521 4.277395,29.036812 0,10.092292 -0.917329,20.877786 -4.506039,29.596289 -7.157536,2.014114 -14.851888,3.03982 -22.884234,3.03982 -0.487111,0 -0.974221,-0.0094 -1.461331,-0.01865 H 34.040918 C 25.909161,72.53957 17.846991,71.308722 10.580105,69.089467 7.1504515,60.492184 6.3123238,50.163289 6.3123238,40.061979 c 0,-10.101311 0.9176558,-20.868461 4.4864832,-29.586965 6.690308,-1.8742449 14.046665,-2.9186005 21.472608,-3.0398203 0.47717,-0.00933 0.964281,-0.00933 1.44145,-0.00933 m 0,-0.9324602 c -0.487111,0 -0.974221,0 -1.46133,0.00933 C 24.785826,6.6239532 17.270413,7.686958 10.510517,9.5798526 L 10.043289,9.710397 9.8643508,10.139328 c -3.6085914,8.811751 -4.5231655,19.514693 -4.5231655,29.922651 0,10.407958 0.8350459,20.672644 4.294522,29.353849 l 0.1689973,0.419608 0.4572874,0.13987 c 7.326533,2.237904 15.537818,3.496724 23.749103,3.636593 h 0.188879 c 0.47717,0.0094 0.96428,0.01865 1.461331,0.01865 8.111875,0 15.905636,-1.035031 23.172525,-3.077119 l 0.467228,-0.130544 0.178938,-0.428932 c 3.618533,-8.793101 4.543048,-19.496959 4.543048,-29.931975 0,-10.435016 -0.835047,-20.672644 -4.304463,-29.363174 l -0.168997,-0.419609 -0.457288,-0.13987 C 51.74588,7.9107484 43.534594,6.6519271 35.353133,6.512058 34.776554,6.502738 34.249678,6.493409 33.712865,6.493409 Z"
       style="fill:#000000;stroke:none;stroke-width:1.78642213;stroke-miterlimit:4;stroke-dasharray:none" />
    <path
       id="path1154-9-3"
       d="m 33.712865,7.4258686 c 0.536813,0 1.07363,0.00933 1.620386,0.01865 8.111875,0.1398689 16.174044,1.3707167 23.450873,3.5806484 3.439594,8.615932 4.277395,18.944521 4.277395,29.036812 0,10.092292 -0.917329,20.877786 -4.506039,29.596288 -7.157536,2.014114 -14.851888,3.03982 -22.884234,3.03982 -0.487111,0 -0.974221,-0.0094 -1.461331,-0.01865 H 34.040918 C 25.909161,72.539569 17.846991,71.308722 10.580105,69.089466 7.1504515,60.492184 6.3123238,50.163288 6.3123238,40.061979 c 0,-10.101312 0.9176558,-20.868461 4.4864832,-29.586965 6.690308,-1.8742454 14.046665,-2.918601 21.472608,-3.0398208 0.47717,-0.00933 0.964281,-0.00933 1.44145,-0.00933 m 0,-0.9324602 c -0.487111,0 -0.974221,0 -1.46133,0.00933 C 24.785826,6.6239527 17.270413,7.6869575 10.510517,9.5798521 L 10.043289,9.7103965 9.8643508,10.139328 C 6.2557594,18.951079 5.3411853,29.65402 5.3411853,40.061979 c 0,10.407958 0.8350459,20.672643 4.294522,29.353849 l 0.1689973,0.419608 0.4572874,0.13987 c 7.326533,2.237904 15.537818,3.496724 23.749103,3.636593 h 0.188879 c 0.47717,0.0094 0.96428,0.01865 1.461331,0.01865 8.111875,0 15.905636,-1.035032 23.172525,-3.077119 l 0.467228,-0.130544 0.178938,-0.428932 c 3.618533,-8.793101 4.543048,-19.49696 4.543048,-29.931975 0,-10.435016 -0.835047,-20.672644 -4.304463,-29.363175 l -0.168997,-0.419609 -0.457288,-0.13987 C 51.74588,7.9107479 43.534594,6.6519266 35.353133,6.5120575 34.776554,6.5027375 34.249678,6.4934085 33.712865,6.4934085 Z"
       style="fill:#000000;stroke:none;stroke-width:1.78642213;stroke-miterlimit:4;stroke-dasharray:none" />
  </g>
</svg>
