<svg id="Capa_2" xmlns="http://www.w3.org/2000/svg" xmlns:xlink="http://www.w3.org/1999/xlink" viewBox="0 0 69.02 80">
<defs >
<style >
.cls-1{fill:#c89aed;}.cls-2{fill:#fff;}.cls-3{fill:#f8ffbf;}.cls-4{fill:#7b7be8;}.cls-5{fill:#a88347;}.cls-6{fill:#782ab5;}.cls-7{stroke-miterlimit:10;}.cls-7,.cls-8{stroke:#000;}.cls-7,.cls-8,.cls-9,.cls-10,.cls-11{fill:none;}.cls-12{fill:#1c46ff;}.cls-8,.cls-9{stroke-linecap:round;stroke-linejoin:round;}.cls-9{stroke:#deb778;stroke-dasharray:0 0 0 4.06;}.cls-13{fill:#deb778;}.cls-14{fill:url(#USGS_19_Inundación_de_tierra_2);}.cls-11{stroke:#1d1d1b;stroke-dasharray:0 0 2 2;stroke-width:.3px;}.cls-15{fill:#fcf0c5;}
</style>
<pattern id="USGS_19_Inundación_de_tierra_2" x="0" y="0" width="72" height="72" patternTransform="translate(-164.48 -16279) rotate(-90)" patternUnits="userSpaceOnUse" viewBox="0 0 72 72">
<g >
<rect class="cls-10" width="72" height="72">
</rect>
<g >
<line class="cls-11" x1="71" y1="71" x2="144.44" y2="71">
</line>
<line class="cls-11" x1="71" y1="67" x2="144.44" y2="67">
</line>
<line class="cls-11" x1="71" y1="63" x2="144.44" y2="63">
</line>
<line class="cls-11" x1="71" y1="59" x2="144.44" y2="59">
</line>
<line class="cls-11" x1="71" y1="55" x2="144.44" y2="55">
</line>
<line class="cls-11" x1="71" y1="51" x2="144.44" y2="51">
</line>
<line class="cls-11" x1="71" y1="47" x2="144.44" y2="47">
</line>
<line class="cls-11" x1="71" y1="43" x2="144.44" y2="43">
</line>
<line class="cls-11" x1="71" y1="39" x2="144.44" y2="39">
</line>
<line class="cls-11" x1="71" y1="35" x2="144.44" y2="35">
</line>
<line class="cls-11" x1="71" y1="31" x2="144.44" y2="31">
</line>
<line class="cls-11" x1="71" y1="27" x2="144.44" y2="27">
</line>
<line class="cls-11" x1="71" y1="23" x2="144.44" y2="23">
</line>
<line class="cls-11" x1="71" y1="19" x2="144.44" y2="19">
</line>
<line class="cls-11" x1="71" y1="15" x2="144.44" y2="15">
</line>
<line class="cls-11" x1="71" y1="11" x2="144.44" y2="11">
</line>
<line class="cls-11" x1="71" y1="7" x2="144.44" y2="7">
</line>
<line class="cls-11" x1="71" y1="3" x2="144.44" y2="3">
</line>
</g>
<g >
<line class="cls-11" x1="-1" y1="71" x2="72.44" y2="71">
</line>
<line class="cls-11" x1="-1" y1="67" x2="72.44" y2="67">
</line>
<line class="cls-11" x1="-1" y1="63" x2="72.44" y2="63">
</line>
<line class="cls-11" x1="-1" y1="59" x2="72.44" y2="59">
</line>
<line class="cls-11" x1="-1" y1="55" x2="72.44" y2="55">
</line>
<line class="cls-11" x1="-1" y1="51" x2="72.44" y2="51">
</line>
<line class="cls-11" x1="-1" y1="47" x2="72.44" y2="47">
</line>
<line class="cls-11" x1="-1" y1="43" x2="72.44" y2="43">
</line>
<line class="cls-11" x1="-1" y1="39" x2="72.44" y2="39">
</line>
<line class="cls-11" x1="-1" y1="35" x2="72.44" y2="35">
</line>
<line class="cls-11" x1="-1" y1="31" x2="72.44" y2="31">
</line>
<line class="cls-11" x1="-1" y1="27" x2="72.44" y2="27">
</line>
<line class="cls-11" x1="-1" y1="23" x2="72.44" y2="23">
</line>
<line class="cls-11" x1="-1" y1="19" x2="72.44" y2="19">
</line>
<line class="cls-11" x1="-1" y1="15" x2="72.44" y2="15">
</line>
<line class="cls-11" x1="-1" y1="11" x2="72.44" y2="11">
</line>
<line class="cls-11" x1="-1" y1="7" x2="72.44" y2="7">
</line>
<line class="cls-11" x1="-1" y1="3" x2="72.44" y2="3">
</line>
<line class="cls-11" x1="1.04" y1="69" x2="74.48" y2="69">
</line>
<line class="cls-11" x1="1.04" y1="65" x2="74.48" y2="65">
</line>
<line class="cls-11" x1="1.04" y1="61" x2="74.48" y2="61">
</line>
<line class="cls-11" x1="1.04" y1="57" x2="74.48" y2="57">
</line>
<line class="cls-11" x1="1.04" y1="53" x2="74.48" y2="53">
</line>
<line class="cls-11" x1="1.04" y1="49" x2="74.48" y2="49">
</line>
<line class="cls-11" x1="1.04" y1="45" x2="74.48" y2="45">
</line>
<line class="cls-11" x1="1.04" y1="41" x2="74.48" y2="41">
</line>
<line class="cls-11" x1="1.04" y1="37" x2="74.48" y2="37">
</line>
<line class="cls-11" x1="1.04" y1="33" x2="74.48" y2="33">
</line>
<line class="cls-11" x1="1.04" y1="29" x2="74.48" y2="29">
</line>
<line class="cls-11" x1="1.04" y1="25" x2="74.48" y2="25">
</line>
<line class="cls-11" x1="1.04" y1="21" x2="74.48" y2="21">
</line>
<line class="cls-11" x1="1.04" y1="17" x2="74.48" y2="17">
</line>
<line class="cls-11" x1="1.04" y1="13" x2="74.48" y2="13">
</line>
<line class="cls-11" x1="1.04" y1="9" x2="74.48" y2="9">
</line>
<line class="cls-11" x1="1.04" y1="5" x2="74.48" y2="5">
</line>
<line class="cls-11" x1="1.04" y1="1" x2="74.48" y2="1">
</line>
</g>
<g >
<line class="cls-11" x1="-73" y1="71" x2=".44" y2="71">
</line>
<line class="cls-11" x1="-73" y1="67" x2=".44" y2="67">
</line>
<line class="cls-11" x1="-73" y1="63" x2=".44" y2="63">
</line>
<line class="cls-11" x1="-73" y1="59" x2=".44" y2="59">
</line>
<line class="cls-11" x1="-73" y1="55" x2=".44" y2="55">
</line>
<line class="cls-11" x1="-73" y1="51" x2=".44" y2="51">
</line>
<line class="cls-11" x1="-73" y1="47" x2=".44" y2="47">
</line>
<line class="cls-11" x1="-73" y1="43" x2=".44" y2="43">
</line>
<line class="cls-11" x1="-73" y1="39" x2=".44" y2="39">
</line>
<line class="cls-11" x1="-73" y1="35" x2=".44" y2="35">
</line>
<line class="cls-11" x1="-73" y1="31" x2=".44" y2="31">
</line>
<line class="cls-11" x1="-73" y1="27" x2=".44" y2="27">
</line>
<line class="cls-11" x1="-73" y1="23" x2=".44" y2="23">
</line>
<line class="cls-11" x1="-73" y1="19" x2=".44" y2="19">
</line>
<line class="cls-11" x1="-73" y1="15" x2=".44" y2="15">
</line>
<line class="cls-11" x1="-73" y1="11" x2=".44" y2="11">
</line>
<line class="cls-11" x1="-73" y1="7" x2=".44" y2="7">
</line>
<line class="cls-11" x1="-73" y1="3" x2=".44" y2="3">
</line>
<line class="cls-11" x1="-70.96" y1="69" x2="2.48" y2="69">
</line>
<line class="cls-11" x1="-70.96" y1="65" x2="2.48" y2="65">
</line>
<line class="cls-11" x1="-70.96" y1="61" x2="2.48" y2="61">
</line>
<line class="cls-11" x1="-70.96" y1="57" x2="2.48" y2="57">
</line>
<line class="cls-11" x1="-70.96" y1="53" x2="2.48" y2="53">
</line>
<line class="cls-11" x1="-70.96" y1="49" x2="2.48" y2="49">
</line>
<line class="cls-11" x1="-70.96" y1="45" x2="2.48" y2="45">
</line>
<line class="cls-11" x1="-70.96" y1="41" x2="2.48" y2="41">
</line>
<line class="cls-11" x1="-70.96" y1="37" x2="2.48" y2="37">
</line>
<line class="cls-11" x1="-70.96" y1="33" x2="2.48" y2="33">
</line>
<line class="cls-11" x1="-70.96" y1="29" x2="2.48" y2="29">
</line>
<line class="cls-11" x1="-70.96" y1="25" x2="2.48" y2="25">
</line>
<line class="cls-11" x1="-70.96" y1="21" x2="2.48" y2="21">
</line>
<line class="cls-11" x1="-70.96" y1="17" x2="2.48" y2="17">
</line>
<line class="cls-11" x1="-70.96" y1="13" x2="2.48" y2="13">
</line>
<line class="cls-11" x1="-70.96" y1="9" x2="2.48" y2="9">
</line>
<line class="cls-11" x1="-70.96" y1="5" x2="2.48" y2="5">
</line>
<line class="cls-11" x1="-70.96" y1="1" x2="2.48" y2="1">
</line>
</g>
</g>
</pattern>
</defs>

  <path
     id="path7641-4"
     style="fill:#782ab5;fill-opacity:1;stroke:#4d4d4d;stroke-width:1.62226;stop-color:#000000"
     d="M 34.900259,1.6936052 C 14.323312,9.5265586 1.6299002,23.954051 1.5689773,39.580572 V 79.197446 H 67.963672 V 39.580572 C 67.958188,23.990066 55.374427,9.5708664 34.900259,1.6936052 Z"/>
  <path
     id="path7641-7"
     style="fill:#808080;stroke:#4d4d4d;stroke-width:1.48325;stop-color:#000000"
     d="M 34.629293,5.0425238 C 15.815619,12.204258 4.1542243,25.395327 4.1542243,39.682894 V 76.559207 H 64.859448 V 39.682894 c 0,-14.254531 -11.510452,-27.438125 -30.230155,-34.6403702 z m -0.01233,3.4358455 C 51.537073,14.988239 61.941622,26.904418 61.941622,39.788613 v 33.82806 H 7.07205 v -33.82806 c 0,-12.914055 10.539857,-24.836991 27.544909,-31.3102437 z"/>
  <path
     id="path7641-7-8"
     style="fill:#808080;stroke:#4d4d4d;stroke-width:1.35027;stop-color:#000000"
     d="M 34.618314,8.2461803 C 17.491429,14.76581 6.8755673,26.7742 6.8755673,39.780777 v 33.57007 H 62.138105 v -33.57007 c 0,-12.976504 -10.478452,-24.978088 -27.519791,-31.5345967 z m -0.01123,3.1277957 c 15.403093,5.926211 24.874795,16.774013 24.874795,28.503041 V 70.672134 H 9.5317874 V 39.877017 c 0,-11.75621 9.5948786,-22.610165 25.0752986,-28.503041 z"/>
  <path
     id="path7641-7-8-0"
     style="fill:#808080;stroke:#4d4d4d;stroke-width:1.21411;stop-color:#000000"
     d="M 34.607073,11.526302 C 19.207238,17.388502 9.6618637,28.185984 9.6618637,39.880997 V 70.06591 H 59.351809 V 39.880997 c 0,-11.667973 -9.421821,-22.459335 -24.744736,-28.354695 z m -0.0101,2.812393 c 13.849868,5.328621 22.366458,15.082547 22.366458,25.628837 V 67.657315 H 12.050234 V 39.967532 c 0,-10.570731 8.627346,-20.33019 22.546743,-25.628837 z"/>


<g id="Capa_10">
<g >
<path class="cls-1" d="M61.4,73.05l-22.79,5.88-30.95-4.29-.29-.04v-7.73l17.01-4.74,.42-9.39s-.72-2.06-2.27-7.32c-.72-.3-3.09-1.23-4.12-2.88-1.04-1.65-2.27-5.78-1.55-7.94,.72-2.16,3.3-1.86,3.3-1.86l.93-12.99,28.86,.83s1.65,3.09,3.61,11.86c3.51,1.64,2.37,7.52,.52,10.2-1.86,2.68-3.92,2.37-3.92,2.37l-1.69,5.75-.58,1.98,.41,8.66,12.48,4.44,.62,7.21Z">
</path>
<polygon class="cls-4" points="33.12 39.57 34.3 33.75 27.25 34.11 24.41 35.94 24.53 38.67 33.12 39.57">
</polygon>
<path class="cls-2" d="M36.11,55.59v-21.42c0-6.4,4.36-11.97,10.57-13.51l.41-.1,3.22,.66s2.31,7.93,1.82,10.9-.66,7.85-.66,7.85l-1.9,6.52-3.06,9.5-5.8,4.17h0c-2.54,.02-4.6-2.03-4.6-4.56Z">
</path>
<polygon class="cls-4" points="39.17 39.57 37.99 33.75 45.03 34.11 47.88 35.94 47.76 38.67 39.17 39.57">
</polygon>
<polygon class="cls-5" points="61.4 73.05 38.61 78.93 7.66 74.64 7.37 73.94 7.37 66.87 24.38 62.13 24.8 52.74 25.73 55.73 28.65 57.8 31.38 60.34 34.11 60.53 40.71 60.15 46.64 55.73 48.43 50.73 48.47 50.76 47.89 52.74 48.3 61.4 60.78 65.84 61.4 73.05">
</polygon>
<path class="cls-1" d="M47.46,52.65l.44,10.42s-.95,5.83-8.24,7.36c-7.29,1.39-11.01-1.6-11.01-1.6l6.63-8.38s3.13,.44,6.27-1.02c3.64-2.11,4.53-3.53,4.53-3.53l1.38-3.24Z">
</path>
<polygon points="46.69 56.41 27.38 75.83 9.38 74.1 8.57 66.58 24.12 61.8 24.83 53.05 25.73 55.73 31.38 60.34 40.19 60.58 46.69 56.41">
</polygon>
<path d="M19.78,33.04s-2.57-.45-3.02,2.34,1.51,6.49,2.57,7.92,2.79,1.89,2.79,1.89c0,0-1.43-4.38-1.13-6.79s-1.21-5.36-1.21-5.36Z">
</path>
<path class="cls-3" d="M33.12,39.57l-1.28-1.99-5.1-.52s-1.47,1.09-1.84,1.56c2.93,2.27,7.66,1.56,8.22,.95Z">
</path>
<path class="cls-3" d="M39.18,39.51l1.28-1.99,5.1-.52s1.47,1.09,1.84,1.56c-2.93,2.27-7.66,1.56-8.22,.95Z">
</path>
<path class="cls-2" d="M25.6,41.11c.91,.27,2.25,.56,4.01,.62,.89,.03,1.22,1.19,.51,1.71-1.69,1.25-2.8,1.78-3.44,2-.41,.14-.85,0-1.09-.36-.37-.54-.89-1.5-1.19-2.87-.15-.7,.51-1.32,1.2-1.11Z">
</path>
<path class="cls-2" d="M46.73,58.14l-10.76,11.08s5.07,.41,8.58-2.64c1.68-1.46,2.53-3.67,2.47-5.89-.05-1.66-.29-2.55-.29-2.55Z">
</path>
<path class="cls-1" d="M24.76,22.28c.7,0,1.08,.13,1.27,.23,.78,.43,4.87,2.55,8.54,2.55,.2,0,.39,0,.58-.02,3.35-.22,8.27-1.09,11.21-2.49,.43-.15,.93-.23,1.5-.23,.37,0,.7,.03,.97,.07,.34,1.45,1.11,5.31,.56,8.6-.56,3.37,.09,6.08,.55,7.46,.1,.77,.25,3.05-1.03,5.58-.25,.49-.6,.98-1.04,1.44-1.73,1.74-2.67,3.1-2.96,4.25-.21,.79,.27,1.61,1.09,1.83,.15,.04,.28,.04,.35,.04l-1.12,3.41-3.94,3.1c-.72,.57-1.64,.89-2.57,.89h-5.02c-.93,0-1.85-.31-2.57-.89l-3.94-3.1-1.11-3.41c.07,0,.2,0,.36-.04,.79-.21,1.27-.99,1.09-1.82-.29-1.17-1.23-2.52-2.96-4.26-.44-.45-.79-.94-1.05-1.45-.97-1.91-1.13-3.71-1.08-4.92,.51-1.6,.98-4.1,.45-7.18-.64-3.75,.28-8.03,.66-9.55,.33-.05,.76-.11,1.21-.11m0-1c-1.05,0-2.02,.25-2.02,.25,0,0-1.68,5.65-.84,10.57,.51,3,.01,5.4-.46,6.83-.06,1.17,.03,3.28,1.18,5.55,.3,.6,.71,1.17,1.23,1.7,1.58,1.59,2.46,2.83,2.7,3.8,.06,.27-.1,.54-.37,.61-.04,.01-.08,.01-.12,.01-.22,0-.43-.15-.48-.38-.17-.67-.82-1.62-1.92-2.8l2.67,8.19,4.18,3.29c.9,.71,2.04,1.1,3.19,1.1h5.02c1.15,0,2.29-.39,3.19-1.1l4.18-3.29,2.68-8.19c-1.11,1.18-1.75,2.13-1.92,2.8-.06,.23-.26,.38-.49,.38-.04,0-.08,0-.12-.01-.26-.07-.43-.34-.36-.61,.24-.97,1.12-2.21,2.7-3.8,.51-.53,.93-1.1,1.23-1.7,1.45-2.88,1.22-5.51,1.11-6.26-.54-1.56-1.03-4.12-.54-7.06,.73-4.4-.73-9.63-.73-9.63,0,0-.78-.21-1.78-.21-.59,0-1.26,.07-1.89,.31-2.83,1.36-7.64,2.2-10.89,2.41-.17,.01-.34,.02-.51,.02-3.14,0-6.78-1.73-8.07-2.43-.5-.27-1.14-.35-1.75-.35h0Z">
</path>
<path d="M51.11,21s1.26-7.54-5.76-9.95c-7.02-2.51-8.17-1.15-10.47-2.83-.1,2.3,.42,2.3,.42,2.3,0,0-3.77-1.78-5.44-1.88,.73,1.78,.21,1.78,.21,1.78,0,0-5.24-.1-8.59,.94s-4.5,3.56-4.5,3.56c0,0,3.56-.84,3.66,.73-.1,1.57-5.13,1.99-6.7,7.02,2.72-.42,2.83,1.15,2.62,2.2s1.88,6.07,2.62,8.38,1.68,7.12,1.68,7.12c0,0,1.88-3.35,1.05-8.27s.84-10.58,.84-10.58c0,0,2.41-.63,3.77,.1s5.34,2.62,8.59,2.41,8.06-1.05,10.89-2.41c1.68-.63,3.66-.1,3.66-.1,0,0,1.47,5.24,.73,9.63s.73,7.96,1.26,8.59c1.88-5.65,5.34-13.51-.52-18.74Z">
</path>
<path class="cls-8" d="M19.91,32.97s-2.24-.67-3.06,1.57,1.12,10.14,5.22,10.74">
</path>
<path class="cls-8" d="M21.06,37.89s-.7,3.2,1.11,6.81c.34,.67,.8,1.29,1.33,1.83,1.39,1.41,2.33,2.64,2.57,3.58">
</path>
<path class="cls-8" d="M52.52,32.97s2.24-.67,3.06,1.57-1.12,10.14-5.22,10.74">
</path>
<path class="cls-8" d="M51.37,37.89s.7,3.2-1.11,6.81c-.34,.67-.8,1.29-1.33,1.83-1.39,1.41-2.33,2.64-2.57,3.58">
</path>
<path class="cls-8" d="M22.58,45.72l3.32,10.19,4.3,3.38c1,.78,2.23,1.21,3.5,1.21h5.02c1.27,0,2.5-.43,3.5-1.21l4.3-3.38,3.33-10.19">
</path>
<path d="M41.74,51.98c-2.09-.07-4.05,.15-5.93,.51-1.74-.52-3.67-.51-5.63-.51,.91-.41,1.89-.63,2.89-.71,1-.09,2.03-.01,3.04,.27h-.29c1.97-.55,4.07-.35,5.93,.44h0Z">
</path>
<path d="M39.78,53.48c-.4,.38-.87,.98-1.36,1.15-1.67,.22-3.34,.22-5.01-.01-.47-.3-.87-.72-1.27-1.14,.54,.13,1.04,.32,1.53,.52l-.17-.05c1.64-.21,3.28-.21,4.92,0l-.17,.05c.49-.2,1-.39,1.53-.52h0Z">
</path>
<path class="cls-8" d="M38.67,43.99l1.69,1.23s.07,.96-.43,1.49c-1.19-.17-1.82-.1-1.82-.1l-.9,.89s-.54,.24-1.33,.48h-.01c-.79-.24-1.33-.48-1.33-.48l-.9-.89s-.63-.07-1.82,.1c-.5-.53-.43-1.49-.43-1.49l1.69-1.23">
</path>
<path d="M33.18,39.63c-.46-.62-.87-1.27-1.31-1.91l.19,.13-2.6-.17c-.72-.05-1.85-.15-2.53-.14l.2-.05c-.69,.38-1.43,.72-1.98,1.27,.01-.04,0,.02,.03-.13l-.22-.46c1.98,1.2,4.32,1.85,6.64,1.94-2.4,.56-5.01,.1-7.16-1.13-.17-.09-.25-.28-.22-.46,.04-.21,.04-.15,.1-.28,.59-.8,1.54-1.2,2.39-1.65,.88-.15,1.98,.15,2.85,.23,.88,.15,1.75,.31,2.62,.51,.49,.61,.67,1.53,1,2.27h0Z">
</path>
<path d="M34.35,33.73l-.66,1.73s-4.7-.22-6.38-.62c-2.08,.4-2.88,1.11-2.88,1.11,0,0,1.64-1.99,3.15-2.48,3.63,0,6.78,.27,6.78,.27Z">
</path>
<path d="M39.13,39.63c.33-.74,.51-1.66,1-2.27,.87-.2,1.74-.36,2.62-.51,.87-.08,1.96-.38,2.85-.23,.84,.44,1.8,.85,2.39,1.65,.06,.13,.06,.07,.1,.28,.03,.19-.06,.37-.22,.46-2.15,1.22-4.76,1.69-7.16,1.13,2.32-.09,4.66-.75,6.64-1.94l-.22,.46c.03,.15,.02,.08,.03,.13-.55-.56-1.29-.89-1.98-1.27,0,0,.2,.05,.2,.05-.68-.01-1.82,.09-2.53,.14,0,0-2.6,.17-2.6,.17l.19-.13c-.44,.64-.84,1.29-1.31,1.91h0Z">
</path>
<path d="M37.96,33.73l.66,1.73s4.7-.22,6.38-.62c2.08,.4,2.88,1.11,2.88,1.11,0,0-1.64-1.99-3.15-2.48-3.63,0-6.78,.27-6.78,.27Z">
</path>
<g >
<line class="cls-8" x1="24.14" y1="61.76" x2="7.6" y2="67.07">
</line>
<path class="cls-8" d="M47.84,52.27l.41,9.63c.09,2.38-.96,4.66-2.85,6.05-1.99,1.47-4.89,2.98-8.4,2.98h-1.6c-3.51,0-6.41-1.51-8.4-2.98-1.88-1.39-2.93-3.67-2.85-6.05l.44-9.82">
</path>
<line class="cls-8" x1="48.29" y1="61.76" x2="64.83" y2="67.07">
</line>
</g>
<path class="cls-5" d="M25.43,57.49c.29,1.77,.43,3.56,.48,5.35-3.09,1.3-6.34,2.36-9.59,3.21-1.83,.41-3.82,.89-5.69,1.08,0,0-.03-.1-.03-.1,4.75-1.5,10-3.4,14.52-4.66,0,0,.21-4.89,.21-4.89h.1Z">
</path>
<path class="cls-12" d="M48.72,17.35s-.56-2.93-4.74-4.93c-.5,2.93-7.8,1.62-13.16,1s-8.48,.94-8.48,.94c0,0,6.11-.87,10.23,1.87s11.23,3.56,16.15,1.12Z">
</path>
</g>
</g>
  <g
     id="g20645">
    <path
       style="fill:#808080;stroke:#4d4d4d;stroke-width:0.937908;stop-color:#000000;fill-opacity:1"
       d="m 9.541565,65.883425 a 5.4759801,5.4759801 0 0 1 5.47598,5.475981 5.4759801,5.4759801 0 0 1 -5.47598,5.47598 5.4759801,5.4759801 0 0 1 -5.4759806,-5.47598 5.4759801,5.4759801 0 0 1 5.4759806,-5.475981 z"/>
    <path
       style="fill:#808080;stroke:#4d4d4d;stroke-width:0.937908;stop-color:#000000;fill-opacity:1"
       d="m 59.472108,65.883425 a 5.4759801,5.4759801 0 0 1 5.47598,5.475981 5.4759801,5.4759801 0 0 1 -5.47598,5.47598 5.4759801,5.4759801 0 0 1 -5.475981,-5.47598 5.4759801,5.4759801 0 0 1 5.475981,-5.475981 z"/>
    <path
       id="path7641"
       style="fill:#808080;stroke:#4d4d4d;stroke-width:1.64416;stop-color:#000000"
       d="M 34.642578,1.1660156 C 13.787845,9.1047124 0.86132813,23.726855 0.86132812,39.564453 V 79.340489 H 68.152344 V 39.564453 c 0,-15.800978 -12.759199,-30.4148342 -33.509766,-38.3984374 z m -0.01367,3.8085938 C 53.384648,12.190722 64.917969,25.399665 64.917969,39.681641 v 26.507812 c -1.368656,-1.44106 -3.300993,-2.341797 -5.445313,-2.341797 -4.14856,0 -7.511718,3.363159 -7.511718,7.511719 0,2.347008 1.075662,4.442843 2.761718,5.820313 H 14.269531 c 1.756069,-1.422629 2.778281,-3.560307 2.783203,-5.820313 4.8e-5,-4.148627 -3.363091,-7.511766 -7.5117184,-7.511719 -2.0622939,0.0062 -4.0313164,0.860092 -5.4453125,2.361328 V 39.681641 c 0,-14.315076 11.6833059,-27.531508 30.5332029,-34.7070316 z"/>
    <circle
       style="fill:#4d4d4d;fill-opacity:1;stroke:#4d4d4d;stop-color:#000000"
       id="path16431"
       cx="9.6010828"
       cy="71.229652"
       r="5.06003" />
    <circle
       style="fill:#4d4d4d;fill-opacity:1;stroke:#4d4d4d;stop-color:#000000"
       id="path16431-3"
       cx="59.42292"
       cy="71.229652"
       r="5.06003" />
  </g>
</svg>
