<?xml version="1.0" encoding="UTF-8"?><svg id="Capa_2" xmlns="http://www.w3.org/2000/svg" xmlns:xlink="http://www.w3.org/1999/xlink" viewBox="0 0 69.02 80"><defs><style>.cls-1{fill:#c89aed;}.cls-2{fill:#fff;}.cls-3{fill:#f8ffbf;}.cls-4{fill:#7b7be8;}.cls-5{fill:#a88347;}.cls-6{fill:#782ab5;}.cls-7{stroke-miterlimit:10;}.cls-7,.cls-8{stroke:#000;}.cls-7,.cls-8,.cls-9,.cls-10,.cls-11{fill:none;}.cls-8,.cls-9{stroke-linecap:round;stroke-linejoin:round;}.cls-9{stroke:#deb778;stroke-dasharray:0 0 0 4.06;}.cls-12{fill:#deb778;}.cls-13{fill:url(#USGS_19_Inundación_de_tierra_2);}.cls-11{stroke:#1d1d1b;stroke-dasharray:0 0 2 2;stroke-width:.3px;}.cls-14{fill:#fcf0c5;}.cls-15{fill:#b83521;}</style><pattern id="USGS_19_Inundación_de_tierra_2" x="0" y="0" width="72" height="72" patternTransform="translate(-236.48 -16279) rotate(-90)" patternUnits="userSpaceOnUse" viewBox="0 0 72 72"><g><rect class="cls-10" width="72" height="72"/><g><line class="cls-11" x1="71" y1="71" x2="144.44" y2="71"/><line class="cls-11" x1="71" y1="67" x2="144.44" y2="67"/><line class="cls-11" x1="71" y1="63" x2="144.44" y2="63"/><line class="cls-11" x1="71" y1="59" x2="144.44" y2="59"/><line class="cls-11" x1="71" y1="55" x2="144.44" y2="55"/><line class="cls-11" x1="71" y1="51" x2="144.44" y2="51"/><line class="cls-11" x1="71" y1="47" x2="144.44" y2="47"/><line class="cls-11" x1="71" y1="43" x2="144.44" y2="43"/><line class="cls-11" x1="71" y1="39" x2="144.44" y2="39"/><line class="cls-11" x1="71" y1="35" x2="144.44" y2="35"/><line class="cls-11" x1="71" y1="31" x2="144.44" y2="31"/><line class="cls-11" x1="71" y1="27" x2="144.44" y2="27"/><line class="cls-11" x1="71" y1="23" x2="144.44" y2="23"/><line class="cls-11" x1="71" y1="19" x2="144.44" y2="19"/><line class="cls-11" x1="71" y1="15" x2="144.44" y2="15"/><line class="cls-11" x1="71" y1="11" x2="144.44" y2="11"/><line class="cls-11" x1="71" y1="7" x2="144.44" y2="7"/><line class="cls-11" x1="71" y1="3" x2="144.44" y2="3"/></g><g><line class="cls-11" x1="-1" y1="71" x2="72.44" y2="71"/><line class="cls-11" x1="-1" y1="67" x2="72.44" y2="67"/><line class="cls-11" x1="-1" y1="63" x2="72.44" y2="63"/><line class="cls-11" x1="-1" y1="59" x2="72.44" y2="59"/><line class="cls-11" x1="-1" y1="55" x2="72.44" y2="55"/><line class="cls-11" x1="-1" y1="51" x2="72.44" y2="51"/><line class="cls-11" x1="-1" y1="47" x2="72.44" y2="47"/><line class="cls-11" x1="-1" y1="43" x2="72.44" y2="43"/><line class="cls-11" x1="-1" y1="39" x2="72.44" y2="39"/><line class="cls-11" x1="-1" y1="35" x2="72.44" y2="35"/><line class="cls-11" x1="-1" y1="31" x2="72.44" y2="31"/><line class="cls-11" x1="-1" y1="27" x2="72.44" y2="27"/><line class="cls-11" x1="-1" y1="23" x2="72.44" y2="23"/><line class="cls-11" x1="-1" y1="19" x2="72.44" y2="19"/><line class="cls-11" x1="-1" y1="15" x2="72.44" y2="15"/><line class="cls-11" x1="-1" y1="11" x2="72.44" y2="11"/><line class="cls-11" x1="-1" y1="7" x2="72.44" y2="7"/><line class="cls-11" x1="-1" y1="3" x2="72.44" y2="3"/><line class="cls-11" x1="1.04" y1="69" x2="74.48" y2="69"/><line class="cls-11" x1="1.04" y1="65" x2="74.48" y2="65"/><line class="cls-11" x1="1.04" y1="61" x2="74.48" y2="61"/><line class="cls-11" x1="1.04" y1="57" x2="74.48" y2="57"/><line class="cls-11" x1="1.04" y1="53" x2="74.48" y2="53"/><line class="cls-11" x1="1.04" y1="49" x2="74.48" y2="49"/><line class="cls-11" x1="1.04" y1="45" x2="74.48" y2="45"/><line class="cls-11" x1="1.04" y1="41" x2="74.48" y2="41"/><line class="cls-11" x1="1.04" y1="37" x2="74.48" y2="37"/><line class="cls-11" x1="1.04" y1="33" x2="74.48" y2="33"/><line class="cls-11" x1="1.04" y1="29" x2="74.48" y2="29"/><line class="cls-11" x1="1.04" y1="25" x2="74.48" y2="25"/><line class="cls-11" x1="1.04" y1="21" x2="74.48" y2="21"/><line class="cls-11" x1="1.04" y1="17" x2="74.48" y2="17"/><line class="cls-11" x1="1.04" y1="13" x2="74.48" y2="13"/><line class="cls-11" x1="1.04" y1="9" x2="74.48" y2="9"/><line class="cls-11" x1="1.04" y1="5" x2="74.48" y2="5"/><line class="cls-11" x1="1.04" y1="1" x2="74.48" y2="1"/></g><g><line class="cls-11" x1="-73" y1="71" x2=".44" y2="71"/><line class="cls-11" x1="-73" y1="67" x2=".44" y2="67"/><line class="cls-11" x1="-73" y1="63" x2=".44" y2="63"/><line class="cls-11" x1="-73" y1="59" x2=".44" y2="59"/><line class="cls-11" x1="-73" y1="55" x2=".44" y2="55"/><line class="cls-11" x1="-73" y1="51" x2=".44" y2="51"/><line class="cls-11" x1="-73" y1="47" x2=".44" y2="47"/><line class="cls-11" x1="-73" y1="43" x2=".44" y2="43"/><line class="cls-11" x1="-73" y1="39" x2=".44" y2="39"/><line class="cls-11" x1="-73" y1="35" x2=".44" y2="35"/><line class="cls-11" x1="-73" y1="31" x2=".44" y2="31"/><line class="cls-11" x1="-73" y1="27" x2=".44" y2="27"/><line class="cls-11" x1="-73" y1="23" x2=".44" y2="23"/><line class="cls-11" x1="-73" y1="19" x2=".44" y2="19"/><line class="cls-11" x1="-73" y1="15" x2=".44" y2="15"/><line class="cls-11" x1="-73" y1="11" x2=".44" y2="11"/><line class="cls-11" x1="-73" y1="7" x2=".44" y2="7"/><line class="cls-11" x1="-73" y1="3" x2=".44" y2="3"/><line class="cls-11" x1="-70.96" y1="69" x2="2.48" y2="69"/><line class="cls-11" x1="-70.96" y1="65" x2="2.48" y2="65"/><line class="cls-11" x1="-70.96" y1="61" x2="2.48" y2="61"/><line class="cls-11" x1="-70.96" y1="57" x2="2.48" y2="57"/><line class="cls-11" x1="-70.96" y1="53" x2="2.48" y2="53"/><line class="cls-11" x1="-70.96" y1="49" x2="2.48" y2="49"/><line class="cls-11" x1="-70.96" y1="45" x2="2.48" y2="45"/><line class="cls-11" x1="-70.96" y1="41" x2="2.48" y2="41"/><line class="cls-11" x1="-70.96" y1="37" x2="2.48" y2="37"/><line class="cls-11" x1="-70.96" y1="33" x2="2.48" y2="33"/><line class="cls-11" x1="-70.96" y1="29" x2="2.48" y2="29"/><line class="cls-11" x1="-70.96" y1="25" x2="2.48" y2="25"/><line class="cls-11" x1="-70.96" y1="21" x2="2.48" y2="21"/><line class="cls-11" x1="-70.96" y1="17" x2="2.48" y2="17"/><line class="cls-11" x1="-70.96" y1="13" x2="2.48" y2="13"/><line class="cls-11" x1="-70.96" y1="9" x2="2.48" y2="9"/><line class="cls-11" x1="-70.96" y1="5" x2="2.48" y2="5"/><line class="cls-11" x1="-70.96" y1="1" x2="2.48" y2="1"/></g></g></pattern></defs><g id="BG"><g><path class="cls-6" d="M64.02,40c0,11.47-1.89,22.39-5.5,31.74-7.2,2.16-14.94,3.26-23.02,3.26-.49,0-.98-.01-1.47-.02h-.17c-8.18-.15-16.29-1.47-23.6-3.85-3.45-9.22-5.26-19.93-5.26-31.13s1.89-22.38,5.48-31.73c6.73-2.01,14.13-3.13,21.6-3.26,.48-.01,.97-.01,1.45-.01,.54,0,1.08,.01,1.63,.02,8.16,.15,16.27,1.47,23.59,3.84,3.46,9.24,5.27,19.95,5.27,31.14Z"/><path class="cls-13" d="M34.03,5.59V74.98h-.17c-8.18-.15-16.29-1.47-23.6-3.85-3.45-9.22-5.26-19.93-5.26-31.13s1.89-22.38,5.48-31.73c6.73-2.01,14.13-3.13,21.6-3.26,.65,.16,1.3,.36,1.95,.58Z"/></g></g><g id="Capa_10"><g><path class="cls-1" d="M62.59,66.09c0,7.04-3.46,8.55-3.46,8.55,0,0-19.37,3.47-33.66,1.08-14.28-2.38-16.45-4.43-16.45-4.43l-.32-4.76s12.23-6.06,18.18-6.61c.33-7.03,.22-8.22,.22-8.22,0,0-3.03-3.57-3.47-5.95-6.06,2.05-7.03,.65-7.03,.65,0,0,2.6-1.63,2.06-4.66-.54-3.03-3.03-6.81-1.84-8.87,0,0-4.55-6.17,1.62-13.31,2.16-7.14,7.14-10.17,12.66-10.71,5.74-.65,9.52,1.08,12.55,4.11,9.1-.22,11.48,6.27,12.77,10.6,1.19,4.33,.33,7.69,2.93,10.39-2.28,.44-4.33-.97-4.33-.97,0,0-.98,3.57-1.52,4.54-.03,.13-.05,.26-.08,.38-.8,3.62-2.66,6.55-3.92,6.44-1.08,3.79-3.46,6.71-4.65,8.01,.21,5.09,.54,7.47,.54,7.47,0,0,13.85,2.7,17.2,6.27Z"/><path class="cls-2" d="M36.1,54.13v-19.16l7.69-7.1,4.43-4.23s2.75,7.16,2.75,10.23c-.08,3.93-1.1,7.79-1.34,9.36s-1.97,6.37-5.27,9.83c-1.5,1.47-2.83,2.6-4.01,3.36-1.84,1.19-4.26-.11-4.26-2.3Z"/><path class="cls-3" d="M32.63,40.58s-.46-2.05-3.14-2.83-4.36,2.12-4.36,2.12c0,0,4.22,3.31,7.5,.71Z"/><path class="cls-4" d="M23.8,35.02l1.11,4.86s1.48-2.49,3.8-2.36c1.91,.13,3.53,1.71,3.93,3.07,.63-2.36,1.11-4.45,1.11-4.45,0,0-2.09-1.23-3.6-1.46s-5.76,.23-6.34,.35Z"/><path d="M59.35,33.95c-2.28,.44-4.33-.97-4.33-.97,0,0-.98,3.57-1.52,4.54-.03,.13-.05,.26-.08,.38l-.12,.04-.76-2.08-1.86,1.86s.55-4.49-.55-7.77c-1.09-3.28-1.64-5.46-1.64-5.46,0,0-1.97,1.42-1.97,3.17s1.97,3.39,1.97,3.39c0,0-3.06,.32-4.7-3.17-.44,3.28-3.28,5.79-5.69,6.88-1.86,1.43-2.07,3.61-2.07,3.61,0,0-1.1-2.29-.99-4.81-3.72,3.28-5.57,4.81-6.12,6.45-.66,1.75,0,3.72,0,3.72l-1.97-1.64-3.32,3.66c-6.06,2.05-7.03,.65-7.03,.65,0,0,2.6-1.63,2.06-4.66-.54-3.03-3.03-6.81-1.84-8.87,0,0-4.55-6.17,1.62-13.31,2.16-7.14,7.14-10.17,12.66-10.71,5.74-.65,9.52,1.08,12.55,4.11,9.1-.22,11.48,6.27,12.77,10.6,1.19,4.33,.33,7.69,2.93,10.39Z"/><path class="cls-3" d="M39.96,40.58s.46-2.05,3.14-2.83,4.36,2.12,4.36,2.12c0,0-4.22,3.31-7.5,.71Z"/><path class="cls-4" d="M48.79,35.02l-1.11,4.86s-1.48-2.49-3.8-2.36c-1.91,.13-3.53,1.71-3.93,3.07-.63-2.36-1.11-4.45-1.11-4.45,0,0,2.09-1.23,3.6-1.46s5.76,.23,6.34,.35Z"/><path d="M45.1,52.98l-16.68,22.68-17.1-2.69-2.63-6.44s11.95-6.34,18.38-6.91c-.07-5.3,.07-7.56,.07-7.56,0,0,2.33,1.84,4.24,3.6s5.23,2.33,7.42,1.48c2.26-.92,4.95-4.03,6.29-4.17Z"/><path class="cls-2" d="M43.63,56.25l-10.6,15.1,2.52,3.66s3.58-1.22,5.57-4.88,3.1-8.39,2.52-13.88Z"/><path class="cls-15" d="M31.03,72.13l2.96,3.47,5.79-.9s3.35-4.7,3.93-6.63,1.68-8.26,1.68-8.26c0,0,4.04,.47,8.23,1.95s7.98,3.41,7.98,3.41l-1.09,9.01-25.29,4.05-7.98-1.61,3.8-4.5Z"/><path class="cls-1" d="M44.09,31.27c1.32,1.29,2.8,1.52,3.69,1.52,.63,0,1.09-.11,1.26-.16,.03,0,.06-.02,.09-.03,.35,1.71,.44,3.37-.1,4.83l-.04,.12-.04,.1v.13l-1.24,7.29c-.17,.54-1.21,3.7-3.78,6.2-.81,.8-1.98,1.87-3.58,3.26-1.1,.96-2.52,1.49-4,1.49s-2.9-.53-4-1.48c-1.49-1.3-2.7-2.4-3.6-3.27-1.88-1.83-2.94-3.97-3.43-5.16,.7-.54,1.33-1.16,1.83-1.8,.31,.29,.65,.57,1.01,.82,.25,.18,.54,.27,.85,.27s.6-.09,.86-.26l.03-.02,.03-.02c.5-.38,.71-1.04,.53-1.64-1.02-3.34,.47-4.51,3.19-6.62,.34,1.97,1.25,2.82,1.59,3.07,.26,.19,.56,.29,.88,.29,.22,0,.45-.05,.7-.17,.49-.26,.8-.77,.8-1.31,0-.02,.06-1.94,1.4-2.7,1.15-.65,3.66-2.25,5.07-4.74m4.16-6.03c-.78,.72-1.19,1.48-1.2,2.27-.04,1.79,1.85,3.28,1.87,3.29,.15,.12,.22,.3,.19,.49-.03,.18-.16,.33-.34,.38-.01,0-.41,.12-.99,.12-1.05,0-2.72-.38-3.93-2.47-.95,3.14-4.21,5.2-5.32,5.82-1.87,1.06-1.91,3.53-1.91,3.56,0,.18-.1,.35-.27,.44-.07,.03-.15,.05-.23,.05-.1,0-.2-.03-.29-.09-.16-.12-1.39-1.11-1.31-4.22-.49,.4-.98,.78-1.46,1.15-2.77,2.16-4.77,3.71-3.55,7.72,.06,.2-.01,.42-.18,.55-.09,.06-.2,.1-.31,.1-.1,0-.19-.03-.27-.09-.71-.5-1.27-1.05-1.71-1.64-.48,.95-1.54,2.16-2.92,3.07,.3,.87,1.43,3.79,3.94,6.24,.89,.87,2.12,1.99,3.64,3.31,1.33,1.15,2.99,1.72,4.65,1.72s3.33-.58,4.66-1.73c1.52-1.32,2.75-2.43,3.63-3.3,2.98-2.9,4.04-6.65,4.05-6.68l1.26-7.43s.02-.05,.02-.07v-.02c1.02-2.76,.09-5.93-.81-8.99-.36-1.24-.71-2.43-.91-3.55h0Z"/><path class="cls-15" d="M59.35,33.95s-2.65,.59-4.33-.97c-.12,3.02-2.08,4.4-2.08,4.4l.09-2.47s-.18,1.1-2.35,2.81c.31-1.04,.43-5.1-.55-7.77-.98-2.67-1.64-5.46-1.64-5.46,0,0-1.98,.25-2.2,2.74-.05,.52-.68,.72-1.01,.31-.74-.93-1.26-1.95-1.62-3.01-.97,4.23-3.24,6.33-4.66,7.27-.32,.21-.68-.15-.5-.48,2.34-4.11,.51-6.52,1.7-10.74,1.6-5.75,4.51-7.13,4.75-7.29h.01c11.36,1.64,11.54,12.91,11.54,12.91,.73,5.96,2.84,7.75,2.84,7.75Z"/><path class="cls-8" d="M27.95,31.81s-4.66,8.11,1.08,12.09c-1.69-5.54,2.5-6.89,6.08-10.2-.47,3.92,1.01,5,1.01,5,0,0,0-2.77,2.16-3.99s5.34-3.78,5.34-7.16c1.55,4.73,5,3.65,5,3.65,0,0-4.66-3.58,0-6.89,.41,3.92,3.44,9.25,1.82,13.64,1.62-.81,2.36-2.57,2.36-2.57,0,0,.27,1.62,.07,2.3,1.96-1.15,2.16-3.85,1.96-5.34,2.3,2.7,4.66,1.69,4.66,1.69,0,0-2.7-3.04-2.77-7.77s-3.21-13.94-12.92-13.25c0,0-4.9-6.32-15.58-3.38-8.61,2.62-9.71,10.01-9.71,10.01,0,0-6.19,4.73-1.36,13.56-2.46,6.55,5.19,8.74-.73,13.19,6.1,1.74,10.06-2.98,10.39-4.51"/><path class="cls-8" d="M50.44,37.95l-1.27,7.48s-1.06,3.87-4.18,6.91c-1.01,.98-2.33,2.17-3.65,3.32-2.86,2.48-7.1,2.49-9.96,0-1.33-1.15-2.65-2.34-3.66-3.33-3.11-3.04-4.16-6.73-4.16-6.73"/><path class="cls-8" d="M53.56,37.39s-1.3,6.45-4.09,6.81"/><path d="M39.86,40.78c.36-2.82,3.66-4.51,6.22-3.21,.86,.45,1.54,1.16,1.88,2.12,.05,.15,.01,.31-.09,.42-1.33,1.4-3.43,1.94-5.25,1.44,1.31-.06,2.59-.44,3.65-1.21,.33-.24,.67-.53,.9-.81l-.08,.44c-1.51-3.09-6.02-2.08-7.22,.82h0Z"/><path d="M28.76,41.37c.43,.1,.86,.16,1.3,.18-.44,.12-.89,.18-1.36,.18,.01-.12,.03-.24,.06-.36Z"/><path d="M32.82,40.78c-.49-1.2-1.55-2.08-2.73-2.47,.16-.24,.34-.44,.51-.63,1.16,.61,2.04,1.72,2.22,3.1Z"/><path d="M39.05,35.5c2.93-2.01,6.59-1.5,9.81-.52-2.44,.16-4.81-.27-7.13,.54-.75,.24-1.5,.56-2.21,.86-.55,.25-.98-.58-.46-.89h0Z"/><path d="M37.79,43.5c3.02,1.14,.22,2.53-1.29,3.28-.14,.07-.3,.06-.43,0-.72-.36-1.43-.71-2.09-1.24-.17-.16-.33-.24-.51-.56-.14-.41,.03-.58,.21-.85,.32-.34,.69-.52,1.09-.64-.32,.36-.66,.69-.74,1.12-.02,.07,.02,.13,.01,.04,.72,.46,1.64,.82,2.45,1.21,0,0-.43,0-.43,0,.81-.39,1.73-.75,2.45-1.21-.01,.1,.03,.02,.01-.05-.08-.43-.42-.76-.74-1.12h0Z"/><path class="cls-15" d="M41.72,50.16s-1.26,1.01-2.23,1.59-2.66,.58-2.66,.58h-.5s-1.69,0-2.66-.58-2.23-1.59-2.23-1.59"/><path d="M36.87,48.47s2.28-.05,3.71,.85,2.03,.64,2.03,.64c0,0-.4,.6-2.25,.46s-3.67-.13-3.67-.13h-.19s-1.82,0-3.67,.13-2.25-.46-2.25-.46c0,0,.6,.26,2.03-.64s3.71-.85,3.71-.85h.55Z"/><path class="cls-8" d="M27.2,52.17v7.34s-14.84,3.54-18.72,7.59"/><path class="cls-8" d="M45.21,52.17v7.34s14.84,3.54,18.72,7.59"/><path class="cls-8" d="M27.2,59.5s-.53,10.83,7.92,16.57"/><path class="cls-8" d="M45.19,59.5s.53,10.83-7.92,16.57"/><path class="cls-8" d="M22.65,60.96s-1.24,5.01-.13,7.8c2.73,.07,3.38,.2,3.38,.2l-2.73,2.67s1.24,3.71,5.01,5.33"/><path class="cls-8" d="M49.88,60.96s1.24,5.01,.13,7.8c-2.73,.07-3.38,.2-3.38,.2l2.73,2.67s-1.24,3.71-5.01,5.33"/><line class="cls-8" x1="50.67" y1="46.39" x2="50.67" y2="53.22"/><line class="cls-8" x1="48.75" y1="50.96" x2="52.6" y2="50.96"/><path class="cls-15" d="M19.51,31.23c-1.39,2.13-1.72,4.77-.69,7.1,.61,1.74,2.14,3.73,1.43,5.76-.23,.69-.6,1.28-1.01,1.81l-.31-.74c1.39,.21,2.82,.06,4.1-.59,1.28-.63,2.37-1.66,3.36-2.78-.75,1.28-1.71,2.51-3.04,3.34-1.54,1.01-3.5,1.16-5.29,.86,0,0,.44-.65,.44-.65,1.94-2.33,.31-4.27-.51-6.72-.98-2.47-.36-5.53,1.52-7.4h0Z"/><path class="cls-15" d="M26.21,40.5c-3.05-3.51-2.66-9.38,.81-12.47-.48,1.03-.97,1.99-1.28,3.02-1.04,3.12-.7,6.33,.47,9.45h0Z"/><path class="cls-15" d="M11.05,66.58c5.32-2.82,11.65-5.82,17.45-6.06,0,0,.02-5.12,.02-5.12h.1c.33,1.88,.51,3.78,.65,5.67-6.3,.78-12.32,3.79-18.23,5.5h0Z"/><path class="cls-15" d="M16.3,30.26c-.87-3.4-.26-8.14,2.78-9.95,.82-6.55,7.53-10.97,13.85-10.65,0,0,0,.1,0,.1-1.18,.19-2.33,.31-3.45,.71-4.71,1.33-8.94,5.35-9.55,10.31-1.53,.94-2.62,2.39-3.12,4.14-.43,1.67-.58,3.49-.41,5.31l-.1,.03h0Z"/></g></g><g id="Frame"><path class="cls-5" d="M62.56,4.88C54.4,1.94,45.12,.2,35.25,.02c-.57-.01-1.15-.02-1.72-.02C23.88,0,14.77,1.52,6.72,4.21,2.49,14.22,0,26.6,0,40s2.39,25.22,6.45,35.11c8.16,2.94,17.45,4.69,27.32,4.87,.58,.01,1.15,.02,1.73,.02,9.63,0,18.73-1.51,26.78-4.2,4.24-10.01,6.74-22.39,6.74-35.8s-2.4-25.24-6.46-35.12Zm-4.04,66.86c-7.2,2.16-14.94,3.26-23.02,3.26-.49,0-.98-.01-1.47-.02h-.17c-8.18-.15-16.29-1.47-23.6-3.85-3.45-9.22-5.26-19.93-5.26-31.13s1.89-22.38,5.48-31.73c6.73-2.01,14.13-3.13,21.6-3.26,.48-.01,.97-.01,1.45-.01,.54,0,1.08,.01,1.63,.02,8.16,.15,16.27,1.47,23.59,3.84,3.46,9.24,5.27,19.95,5.27,31.14s-1.89,22.39-5.5,31.74Z"/><path class="cls-12" d="M17.21,2.06h0c1.63,.63,2.06,2.75,.81,3.97l-1.26,1.22s8.35-2.37,18.84-1.69h0c-1-1.49-.45-3.52,1.14-4.34l1-.51S28.26-.43,17.21,2.06Z"/><path class="cls-14" d="M21.81,1.66s.7,2.18-.22,3.1c3.77-.41,7.98-.74,11.12-.74-.33-1.33,1.26-3.4,1.26-3.4,0,0-6.17-.26-12.16,1.03Z"/><path class="cls-12" d="M36.25,79.21h0c-1.52-.87-1.62-3.03-.2-4.04l1.43-1.02s-8.61,1.07-18.88-1.19h0c.76,1.63-.09,3.55-1.79,4.11l-1.07,.36s9.19,2.56,20.5,1.78Z"/><path class="cls-14" d="M19.28,77.8s1.76-1.83,1.3-3.09c4.43,.69,9.11,1.14,12.25,1.14-.33,1.33,.44,3.4,.44,3.4,0,0-8-.16-13.99-1.45Z"/><polygon points="47.48 1.77 47.48 6.73 54.49 8.44 54.49 2.62 47.48 1.77"/><line class="cls-7" x1="45.5" y1="1.23" x2="45.5" y2="6.29"/><line class="cls-7" x1="56.47" y1="3.67" x2="56.47" y2="8.73"/><polygon points="47.48 78.74 47.48 73.78 54.49 72.07 54.49 77.88 47.48 78.74"/><line class="cls-7" x1="45.5" y1="79.28" x2="45.5" y2="74.21"/><line class="cls-7" x1="56.47" y1="76.84" x2="56.47" y2="71.77"/><path d="M33.53,1c.56,0,1.14,0,1.7,.02,9.39,.17,18.33,1.74,26.57,4.65,4.07,10.08,6.22,21.94,6.22,34.33s-2.24,24.79-6.49,34.99c-8.12,2.66-16.87,4.01-26.03,4.01-.56,0-1.12,0-1.71-.02-9.25-.17-18.42-1.78-26.58-4.66C3.15,64.25,1,52.39,1,40S3.23,15.21,7.47,5.02C15.6,2.35,24.37,1,33.53,1m0-1C23.88,0,14.77,1.52,6.72,4.21,2.49,14.22,0,26.6,0,40s2.39,25.22,6.45,35.11c8.16,2.94,17.45,4.69,27.32,4.87,.58,.01,1.15,.02,1.73,.02,9.63,0,18.73-1.51,26.78-4.2,4.24-10.01,6.74-22.39,6.74-35.8s-2.4-25.24-6.46-35.12C54.4,1.94,45.12,.2,35.25,.02c-.57,0-1.15-.02-1.72-.02h0Z"/><path class="cls-12" d="M33.53,6c.52,0,1.04,0,1.61,.02,7.87,.14,15.75,1.4,22.84,3.64,3.3,9,5.04,19.47,5.04,30.34s-1.82,21.82-5.26,30.92c-6.98,2.04-14.47,3.08-22.26,3.08-.48,0-.97,0-1.47-.02h-.15c-7.89-.14-15.78-1.41-22.85-3.65-3.29-8.99-5.03-19.46-5.03-30.33s1.81-21.79,5.24-30.91c6.5-1.89,13.7-2.95,20.86-3.08,.47,0,.96,0,1.43,0m0-1c-.48,0-.97,0-1.45,.01-7.47,.13-14.87,1.25-21.6,3.26-3.59,9.35-5.48,20.26-5.48,31.73s1.81,21.91,5.26,31.13c7.31,2.38,15.42,3.7,23.6,3.85h.17c.49,.01,.98,.02,1.47,.02,8.08,0,15.82-1.1,23.02-3.26,3.61-9.35,5.5-20.27,5.5-31.74s-1.81-21.9-5.27-31.14c-7.32-2.37-15.43-3.69-23.59-3.84-.55,0-1.09-.02-1.63-.02h0Z"/><path d="M33.53,5c.54,0,1.08,.01,1.63,.02,8.16,.15,16.27,1.47,23.59,3.84,3.46,9.24,5.27,19.95,5.27,31.14s-1.89,22.39-5.5,31.74c-7.2,2.16-14.94,3.26-23.02,3.26-.49,0-.98-.01-1.47-.02h-.17c-8.18-.15-16.29-1.47-23.6-3.85-3.45-9.22-5.26-19.93-5.26-31.13s1.89-22.38,5.48-31.73c6.73-2.01,14.13-3.13,21.6-3.26,.48-.01,.97-.01,1.45-.01m0-1c-.49,0-.98,0-1.47,.01-7.51,.13-15.07,1.27-21.87,3.3l-.47,.14-.18,.46c-3.63,9.45-5.55,20.55-5.55,32.09s1.84,22.17,5.32,31.48l.17,.45,.46,.15c7.37,2.4,15.63,3.75,23.89,3.9h.19c.48,.01,.97,.02,1.47,.02,8.16,0,16-1.11,23.31-3.3l.47-.14,.18-.46c3.64-9.43,5.57-20.53,5.57-32.1s-1.84-22.17-5.33-31.49l-.17-.45-.46-.15c-7.39-2.39-15.65-3.74-23.88-3.89-.58-.01-1.12-.02-1.65-.02h0Z"/><path class="cls-9" d="M8.14,7.1s-12.66,32.94,0,66.06"/><path class="cls-9" d="M60.88,7.58s12.66,32.94,0,66.06"/></g></svg>