<svg id="Capa_2" xmlns="http://www.w3.org/2000/svg" xmlns:xlink="http://www.w3.org/1999/xlink" viewBox="0 0 69.02 80">
<defs >
<style >
.cls-1{fill:#c89aed;}.cls-2{fill:#fff;}.cls-3{fill:#f8ffbf;}.cls-4{fill:#7b7be8;}.cls-5{fill:#a88347;}.cls-6{fill:#782ab5;}.cls-7{stroke-miterlimit:10;}.cls-7,.cls-8{stroke:#000;}.cls-7,.cls-8,.cls-9,.cls-10,.cls-11{fill:none;}.cls-8,.cls-9{stroke-linecap:round;stroke-linejoin:round;}.cls-9{stroke:#deb778;stroke-dasharray:0 0 0 4.06;}.cls-12{fill:#deb778;}.cls-13{fill:url(#USGS_19_Inundación_de_tierra_2);}.cls-11{stroke:#1d1d1b;stroke-dasharray:0 0 2 2;stroke-width:.3px;}.cls-14{fill:#fcf0c5;}.cls-15{fill:#b83521;}
</style>
<pattern id="USGS_19_Inundación_de_tierra_2" x="0" y="0" width="72" height="72" patternTransform="translate(-236.48 -16279) rotate(-90)" patternUnits="userSpaceOnUse" viewBox="0 0 72 72">
<g >
<rect class="cls-10" width="72" height="72">
</rect>
<g >
<line class="cls-11" x1="71" y1="71" x2="144.44" y2="71">
</line>
<line class="cls-11" x1="71" y1="67" x2="144.44" y2="67">
</line>
<line class="cls-11" x1="71" y1="63" x2="144.44" y2="63">
</line>
<line class="cls-11" x1="71" y1="59" x2="144.44" y2="59">
</line>
<line class="cls-11" x1="71" y1="55" x2="144.44" y2="55">
</line>
<line class="cls-11" x1="71" y1="51" x2="144.44" y2="51">
</line>
<line class="cls-11" x1="71" y1="47" x2="144.44" y2="47">
</line>
<line class="cls-11" x1="71" y1="43" x2="144.44" y2="43">
</line>
<line class="cls-11" x1="71" y1="39" x2="144.44" y2="39">
</line>
<line class="cls-11" x1="71" y1="35" x2="144.44" y2="35">
</line>
<line class="cls-11" x1="71" y1="31" x2="144.44" y2="31">
</line>
<line class="cls-11" x1="71" y1="27" x2="144.44" y2="27">
</line>
<line class="cls-11" x1="71" y1="23" x2="144.44" y2="23">
</line>
<line class="cls-11" x1="71" y1="19" x2="144.44" y2="19">
</line>
<line class="cls-11" x1="71" y1="15" x2="144.44" y2="15">
</line>
<line class="cls-11" x1="71" y1="11" x2="144.44" y2="11">
</line>
<line class="cls-11" x1="71" y1="7" x2="144.44" y2="7">
</line>
<line class="cls-11" x1="71" y1="3" x2="144.44" y2="3">
</line>
</g>
<g >
<line class="cls-11" x1="-1" y1="71" x2="72.44" y2="71">
</line>
<line class="cls-11" x1="-1" y1="67" x2="72.44" y2="67">
</line>
<line class="cls-11" x1="-1" y1="63" x2="72.44" y2="63">
</line>
<line class="cls-11" x1="-1" y1="59" x2="72.44" y2="59">
</line>
<line class="cls-11" x1="-1" y1="55" x2="72.44" y2="55">
</line>
<line class="cls-11" x1="-1" y1="51" x2="72.44" y2="51">
</line>
<line class="cls-11" x1="-1" y1="47" x2="72.44" y2="47">
</line>
<line class="cls-11" x1="-1" y1="43" x2="72.44" y2="43">
</line>
<line class="cls-11" x1="-1" y1="39" x2="72.44" y2="39">
</line>
<line class="cls-11" x1="-1" y1="35" x2="72.44" y2="35">
</line>
<line class="cls-11" x1="-1" y1="31" x2="72.44" y2="31">
</line>
<line class="cls-11" x1="-1" y1="27" x2="72.44" y2="27">
</line>
<line class="cls-11" x1="-1" y1="23" x2="72.44" y2="23">
</line>
<line class="cls-11" x1="-1" y1="19" x2="72.44" y2="19">
</line>
<line class="cls-11" x1="-1" y1="15" x2="72.44" y2="15">
</line>
<line class="cls-11" x1="-1" y1="11" x2="72.44" y2="11">
</line>
<line class="cls-11" x1="-1" y1="7" x2="72.44" y2="7">
</line>
<line class="cls-11" x1="-1" y1="3" x2="72.44" y2="3">
</line>
<line class="cls-11" x1="1.04" y1="69" x2="74.48" y2="69">
</line>
<line class="cls-11" x1="1.04" y1="65" x2="74.48" y2="65">
</line>
<line class="cls-11" x1="1.04" y1="61" x2="74.48" y2="61">
</line>
<line class="cls-11" x1="1.04" y1="57" x2="74.48" y2="57">
</line>
<line class="cls-11" x1="1.04" y1="53" x2="74.48" y2="53">
</line>
<line class="cls-11" x1="1.04" y1="49" x2="74.48" y2="49">
</line>
<line class="cls-11" x1="1.04" y1="45" x2="74.48" y2="45">
</line>
<line class="cls-11" x1="1.04" y1="41" x2="74.48" y2="41">
</line>
<line class="cls-11" x1="1.04" y1="37" x2="74.48" y2="37">
</line>
<line class="cls-11" x1="1.04" y1="33" x2="74.48" y2="33">
</line>
<line class="cls-11" x1="1.04" y1="29" x2="74.48" y2="29">
</line>
<line class="cls-11" x1="1.04" y1="25" x2="74.48" y2="25">
</line>
<line class="cls-11" x1="1.04" y1="21" x2="74.48" y2="21">
</line>
<line class="cls-11" x1="1.04" y1="17" x2="74.48" y2="17">
</line>
<line class="cls-11" x1="1.04" y1="13" x2="74.48" y2="13">
</line>
<line class="cls-11" x1="1.04" y1="9" x2="74.48" y2="9">
</line>
<line class="cls-11" x1="1.04" y1="5" x2="74.48" y2="5">
</line>
<line class="cls-11" x1="1.04" y1="1" x2="74.48" y2="1">
</line>
</g>
<g >
<line class="cls-11" x1="-73" y1="71" x2=".44" y2="71">
</line>
<line class="cls-11" x1="-73" y1="67" x2=".44" y2="67">
</line>
<line class="cls-11" x1="-73" y1="63" x2=".44" y2="63">
</line>
<line class="cls-11" x1="-73" y1="59" x2=".44" y2="59">
</line>
<line class="cls-11" x1="-73" y1="55" x2=".44" y2="55">
</line>
<line class="cls-11" x1="-73" y1="51" x2=".44" y2="51">
</line>
<line class="cls-11" x1="-73" y1="47" x2=".44" y2="47">
</line>
<line class="cls-11" x1="-73" y1="43" x2=".44" y2="43">
</line>
<line class="cls-11" x1="-73" y1="39" x2=".44" y2="39">
</line>
<line class="cls-11" x1="-73" y1="35" x2=".44" y2="35">
</line>
<line class="cls-11" x1="-73" y1="31" x2=".44" y2="31">
</line>
<line class="cls-11" x1="-73" y1="27" x2=".44" y2="27">
</line>
<line class="cls-11" x1="-73" y1="23" x2=".44" y2="23">
</line>
<line class="cls-11" x1="-73" y1="19" x2=".44" y2="19">
</line>
<line class="cls-11" x1="-73" y1="15" x2=".44" y2="15">
</line>
<line class="cls-11" x1="-73" y1="11" x2=".44" y2="11">
</line>
<line class="cls-11" x1="-73" y1="7" x2=".44" y2="7">
</line>
<line class="cls-11" x1="-73" y1="3" x2=".44" y2="3">
</line>
<line class="cls-11" x1="-70.96" y1="69" x2="2.48" y2="69">
</line>
<line class="cls-11" x1="-70.96" y1="65" x2="2.48" y2="65">
</line>
<line class="cls-11" x1="-70.96" y1="61" x2="2.48" y2="61">
</line>
<line class="cls-11" x1="-70.96" y1="57" x2="2.48" y2="57">
</line>
<line class="cls-11" x1="-70.96" y1="53" x2="2.48" y2="53">
</line>
<line class="cls-11" x1="-70.96" y1="49" x2="2.48" y2="49">
</line>
<line class="cls-11" x1="-70.96" y1="45" x2="2.48" y2="45">
</line>
<line class="cls-11" x1="-70.96" y1="41" x2="2.48" y2="41">
</line>
<line class="cls-11" x1="-70.96" y1="37" x2="2.48" y2="37">
</line>
<line class="cls-11" x1="-70.96" y1="33" x2="2.48" y2="33">
</line>
<line class="cls-11" x1="-70.96" y1="29" x2="2.48" y2="29">
</line>
<line class="cls-11" x1="-70.96" y1="25" x2="2.48" y2="25">
</line>
<line class="cls-11" x1="-70.96" y1="21" x2="2.48" y2="21">
</line>
<line class="cls-11" x1="-70.96" y1="17" x2="2.48" y2="17">
</line>
<line class="cls-11" x1="-70.96" y1="13" x2="2.48" y2="13">
</line>
<line class="cls-11" x1="-70.96" y1="9" x2="2.48" y2="9">
</line>
<line class="cls-11" x1="-70.96" y1="5" x2="2.48" y2="5">
</line>
<line class="cls-11" x1="-70.96" y1="1" x2="2.48" y2="1">
</line>
</g>
</g>
</pattern>
</defs>

<g id="Capa_10">
<g >
<path class="cls-1" d="M62.59,66.09c0,7.04-3.46,8.55-3.46,8.55,0,0-19.37,3.47-33.66,1.08-14.28-2.38-16.45-4.43-16.45-4.43l-.32-4.76s12.23-6.06,18.18-6.61c.33-7.03,.22-8.22,.22-8.22,0,0-3.03-3.57-3.47-5.95-6.06,2.05-7.03,.65-7.03,.65,0,0,2.6-1.63,2.06-4.66-.54-3.03-3.03-6.81-1.84-8.87,0,0-4.55-6.17,1.62-13.31,2.16-7.14,7.14-10.17,12.66-10.71,5.74-.65,9.52,1.08,12.55,4.11,9.1-.22,11.48,6.27,12.77,10.6,1.19,4.33,.33,7.69,2.93,10.39-2.28,.44-4.33-.97-4.33-.97,0,0-.98,3.57-1.52,4.54-.03,.13-.05,.26-.08,.38-.8,3.62-2.66,6.55-3.92,6.44-1.08,3.79-3.46,6.71-4.65,8.01,.21,5.09,.54,7.47,.54,7.47,0,0,13.85,2.7,17.2,6.27Z">
</path>
<path class="cls-2" d="M36.1,54.13v-19.16l7.69-7.1,4.43-4.23s2.75,7.16,2.75,10.23c-.08,3.93-1.1,7.79-1.34,9.36s-1.97,6.37-5.27,9.83c-1.5,1.47-2.83,2.6-4.01,3.36-1.84,1.19-4.26-.11-4.26-2.3Z">
</path>
<path class="cls-3" d="M32.63,40.58s-.46-2.05-3.14-2.83-4.36,2.12-4.36,2.12c0,0,4.22,3.31,7.5,.71Z">
</path>
<path class="cls-4" d="M23.8,35.02l1.11,4.86s1.48-2.49,3.8-2.36c1.91,.13,3.53,1.71,3.93,3.07,.63-2.36,1.11-4.45,1.11-4.45,0,0-2.09-1.23-3.6-1.46s-5.76,.23-6.34,.35Z">
</path>
<path d="M59.35,33.95c-2.28,.44-4.33-.97-4.33-.97,0,0-.98,3.57-1.52,4.54-.03,.13-.05,.26-.08,.38l-.12,.04-.76-2.08-1.86,1.86s.55-4.49-.55-7.77c-1.09-3.28-1.64-5.46-1.64-5.46,0,0-1.97,1.42-1.97,3.17s1.97,3.39,1.97,3.39c0,0-3.06,.32-4.7-3.17-.44,3.28-3.28,5.79-5.69,6.88-1.86,1.43-2.07,3.61-2.07,3.61,0,0-1.1-2.29-.99-4.81-3.72,3.28-5.57,4.81-6.12,6.45-.66,1.75,0,3.72,0,3.72l-1.97-1.64-3.32,3.66c-6.06,2.05-7.03,.65-7.03,.65,0,0,2.6-1.63,2.06-4.66-.54-3.03-3.03-6.81-1.84-8.87,0,0-4.55-6.17,1.62-13.31,2.16-7.14,7.14-10.17,12.66-10.71,5.74-.65,9.52,1.08,12.55,4.11,9.1-.22,11.48,6.27,12.77,10.6,1.19,4.33,.33,7.69,2.93,10.39Z">
</path>
<path class="cls-3" d="M39.96,40.58s.46-2.05,3.14-2.83,4.36,2.12,4.36,2.12c0,0-4.22,3.31-7.5,.71Z">
</path>
<path class="cls-4" d="M48.79,35.02l-1.11,4.86s-1.48-2.49-3.8-2.36c-1.91,.13-3.53,1.71-3.93,3.07-.63-2.36-1.11-4.45-1.11-4.45,0,0,2.09-1.23,3.6-1.46s5.76,.23,6.34,.35Z">
</path>
<path d="M45.1,52.98l-16.68,22.68-17.1-2.69-2.63-6.44s11.95-6.34,18.38-6.91c-.07-5.3,.07-7.56,.07-7.56,0,0,2.33,1.84,4.24,3.6s5.23,2.33,7.42,1.48c2.26-.92,4.95-4.03,6.29-4.17Z">
</path>
<path class="cls-2" d="M43.63,56.25l-10.6,15.1,2.52,3.66s3.58-1.22,5.57-4.88,3.1-8.39,2.52-13.88Z">
</path>
<path class="cls-15" d="M31.03,72.13l2.96,3.47,5.79-.9s3.35-4.7,3.93-6.63,1.68-8.26,1.68-8.26c0,0,4.04,.47,8.23,1.95s7.98,3.41,7.98,3.41l-1.09,9.01-25.29,4.05-7.98-1.61,3.8-4.5Z">
</path>
<path class="cls-1" d="M44.09,31.27c1.32,1.29,2.8,1.52,3.69,1.52,.63,0,1.09-.11,1.26-.16,.03,0,.06-.02,.09-.03,.35,1.71,.44,3.37-.1,4.83l-.04,.12-.04,.1v.13l-1.24,7.29c-.17,.54-1.21,3.7-3.78,6.2-.81,.8-1.98,1.87-3.58,3.26-1.1,.96-2.52,1.49-4,1.49s-2.9-.53-4-1.48c-1.49-1.3-2.7-2.4-3.6-3.27-1.88-1.83-2.94-3.97-3.43-5.16,.7-.54,1.33-1.16,1.83-1.8,.31,.29,.65,.57,1.01,.82,.25,.18,.54,.27,.85,.27s.6-.09,.86-.26l.03-.02,.03-.02c.5-.38,.71-1.04,.53-1.64-1.02-3.34,.47-4.51,3.19-6.62,.34,1.97,1.25,2.82,1.59,3.07,.26,.19,.56,.29,.88,.29,.22,0,.45-.05,.7-.17,.49-.26,.8-.77,.8-1.31,0-.02,.06-1.94,1.4-2.7,1.15-.65,3.66-2.25,5.07-4.74m4.16-6.03c-.78,.72-1.19,1.48-1.2,2.27-.04,1.79,1.85,3.28,1.87,3.29,.15,.12,.22,.3,.19,.49-.03,.18-.16,.33-.34,.38-.01,0-.41,.12-.99,.12-1.05,0-2.72-.38-3.93-2.47-.95,3.14-4.21,5.2-5.32,5.82-1.87,1.06-1.91,3.53-1.91,3.56,0,.18-.1,.35-.27,.44-.07,.03-.15,.05-.23,.05-.1,0-.2-.03-.29-.09-.16-.12-1.39-1.11-1.31-4.22-.49,.4-.98,.78-1.46,1.15-2.77,2.16-4.77,3.71-3.55,7.72,.06,.2-.01,.42-.18,.55-.09,.06-.2,.1-.31,.1-.1,0-.19-.03-.27-.09-.71-.5-1.27-1.05-1.71-1.64-.48,.95-1.54,2.16-2.92,3.07,.3,.87,1.43,3.79,3.94,6.24,.89,.87,2.12,1.99,3.64,3.31,1.33,1.15,2.99,1.72,4.65,1.72s3.33-.58,4.66-1.73c1.52-1.32,2.75-2.43,3.63-3.3,2.98-2.9,4.04-6.65,4.05-6.68l1.26-7.43s.02-.05,.02-.07v-.02c1.02-2.76,.09-5.93-.81-8.99-.36-1.24-.71-2.43-.91-3.55h0Z">
</path>
<path class="cls-15" d="M59.35,33.95s-2.65,.59-4.33-.97c-.12,3.02-2.08,4.4-2.08,4.4l.09-2.47s-.18,1.1-2.35,2.81c.31-1.04,.43-5.1-.55-7.77-.98-2.67-1.64-5.46-1.64-5.46,0,0-1.98,.25-2.2,2.74-.05,.52-.68,.72-1.01,.31-.74-.93-1.26-1.95-1.62-3.01-.97,4.23-3.24,6.33-4.66,7.27-.32,.21-.68-.15-.5-.48,2.34-4.11,.51-6.52,1.7-10.74,1.6-5.75,4.51-7.13,4.75-7.29h.01c11.36,1.64,11.54,12.91,11.54,12.91,.73,5.96,2.84,7.75,2.84,7.75Z">
</path>
<path class="cls-8" d="M27.95,31.81s-4.66,8.11,1.08,12.09c-1.69-5.54,2.5-6.89,6.08-10.2-.47,3.92,1.01,5,1.01,5,0,0,0-2.77,2.16-3.99s5.34-3.78,5.34-7.16c1.55,4.73,5,3.65,5,3.65,0,0-4.66-3.58,0-6.89,.41,3.92,3.44,9.25,1.82,13.64,1.62-.81,2.36-2.57,2.36-2.57,0,0,.27,1.62,.07,2.3,1.96-1.15,2.16-3.85,1.96-5.34,2.3,2.7,4.66,1.69,4.66,1.69,0,0-2.7-3.04-2.77-7.77s-3.21-13.94-12.92-13.25c0,0-4.9-6.32-15.58-3.38-8.61,2.62-9.71,10.01-9.71,10.01,0,0-6.19,4.73-1.36,13.56-2.46,6.55,5.19,8.74-.73,13.19,6.1,1.74,10.06-2.98,10.39-4.51">
</path>
<path class="cls-8" d="M50.44,37.95l-1.27,7.48s-1.06,3.87-4.18,6.91c-1.01,.98-2.33,2.17-3.65,3.32-2.86,2.48-7.1,2.49-9.96,0-1.33-1.15-2.65-2.34-3.66-3.33-3.11-3.04-4.16-6.73-4.16-6.73">
</path>
<path class="cls-8" d="M53.56,37.39s-1.3,6.45-4.09,6.81">
</path>
<path d="M39.86,40.78c.36-2.82,3.66-4.51,6.22-3.21,.86,.45,1.54,1.16,1.88,2.12,.05,.15,.01,.31-.09,.42-1.33,1.4-3.43,1.94-5.25,1.44,1.31-.06,2.59-.44,3.65-1.21,.33-.24,.67-.53,.9-.81l-.08,.44c-1.51-3.09-6.02-2.08-7.22,.82h0Z">
</path>
<path d="M28.76,41.37c.43,.1,.86,.16,1.3,.18-.44,.12-.89,.18-1.36,.18,.01-.12,.03-.24,.06-.36Z">
</path>
<path d="M32.82,40.78c-.49-1.2-1.55-2.08-2.73-2.47,.16-.24,.34-.44,.51-.63,1.16,.61,2.04,1.72,2.22,3.1Z">
</path>
<path d="M39.05,35.5c2.93-2.01,6.59-1.5,9.81-.52-2.44,.16-4.81-.27-7.13,.54-.75,.24-1.5,.56-2.21,.86-.55,.25-.98-.58-.46-.89h0Z">
</path>
<path d="M37.79,43.5c3.02,1.14,.22,2.53-1.29,3.28-.14,.07-.3,.06-.43,0-.72-.36-1.43-.71-2.09-1.24-.17-.16-.33-.24-.51-.56-.14-.41,.03-.58,.21-.85,.32-.34,.69-.52,1.09-.64-.32,.36-.66,.69-.74,1.12-.02,.07,.02,.13,.01,.04,.72,.46,1.64,.82,2.45,1.21,0,0-.43,0-.43,0,.81-.39,1.73-.75,2.45-1.21-.01,.1,.03,.02,.01-.05-.08-.43-.42-.76-.74-1.12h0Z">
</path>
<path class="cls-15" d="M41.72,50.16s-1.26,1.01-2.23,1.59-2.66,.58-2.66,.58h-.5s-1.69,0-2.66-.58-2.23-1.59-2.23-1.59">
</path>
<path d="M36.87,48.47s2.28-.05,3.71,.85,2.03,.64,2.03,.64c0,0-.4,.6-2.25,.46s-3.67-.13-3.67-.13h-.19s-1.82,0-3.67,.13-2.25-.46-2.25-.46c0,0,.6,.26,2.03-.64s3.71-.85,3.71-.85h.55Z">
</path>
<path class="cls-8" d="M27.2,52.17v7.34s-14.84,3.54-18.72,7.59">
</path>
<path class="cls-8" d="M45.21,52.17v7.34s14.84,3.54,18.72,7.59">
</path>
<path class="cls-8" d="M27.2,59.5s-.53,10.83,7.92,16.57">
</path>
<path class="cls-8" d="M45.19,59.5s.53,10.83-7.92,16.57">
</path>
<path class="cls-8" d="M22.65,60.96s-1.24,5.01-.13,7.8c2.73,.07,3.38,.2,3.38,.2l-2.73,2.67s1.24,3.71,5.01,5.33">
</path>
<path class="cls-8" d="M49.88,60.96s1.24,5.01,.13,7.8c-2.73,.07-3.38,.2-3.38,.2l2.73,2.67s-1.24,3.71-5.01,5.33">
</path>
<line class="cls-8" x1="50.67" y1="46.39" x2="50.67" y2="53.22">
</line>
<line class="cls-8" x1="48.75" y1="50.96" x2="52.6" y2="50.96">
</line>
<path class="cls-15" d="M19.51,31.23c-1.39,2.13-1.72,4.77-.69,7.1,.61,1.74,2.14,3.73,1.43,5.76-.23,.69-.6,1.28-1.01,1.81l-.31-.74c1.39,.21,2.82,.06,4.1-.59,1.28-.63,2.37-1.66,3.36-2.78-.75,1.28-1.71,2.51-3.04,3.34-1.54,1.01-3.5,1.16-5.29,.86,0,0,.44-.65,.44-.65,1.94-2.33,.31-4.27-.51-6.72-.98-2.47-.36-5.53,1.52-7.4h0Z">
</path>
<path class="cls-15" d="M26.21,40.5c-3.05-3.51-2.66-9.38,.81-12.47-.48,1.03-.97,1.99-1.28,3.02-1.04,3.12-.7,6.33,.47,9.45h0Z">
</path>
<path class="cls-15" d="M11.05,66.58c5.32-2.82,11.65-5.82,17.45-6.06,0,0,.02-5.12,.02-5.12h.1c.33,1.88,.51,3.78,.65,5.67-6.3,.78-12.32,3.79-18.23,5.5h0Z">
</path>
<path class="cls-15" d="M16.3,30.26c-.87-3.4-.26-8.14,2.78-9.95,.82-6.55,7.53-10.97,13.85-10.65,0,0,0,.1,0,.1-1.18,.19-2.33,.31-3.45,.71-4.71,1.33-8.94,5.35-9.55,10.31-1.53,.94-2.62,2.39-3.12,4.14-.43,1.67-.58,3.49-.41,5.31l-.1,.03h0Z">
</path>
</g>
</g>
 <g
     id="g2850">
    <g
       id="g2837">
      <path
         id="path1951"
         d="M 0.056640625 0.04296875 L 0.056640625 79.943359 L 69.308594 79.943359 L 69.308594 0.04296875 L 0.056640625 0.04296875 z M 33.615234 3.5957031 C 34.206332 3.5957038 34.786991 3.6051034 35.421875 3.6152344 C 44.430653 3.7671809 53.471255 5.1336733 61.560547 7.5546875 L 62.064453 7.7070312 L 62.25 8.1640625 C 66.070247 17.605006 66.990234 28.726438 66.990234 40.0625 C 66.990234 51.398562 65.972723 63.025755 61.988281 72.578125 L 61.791016 73.044922 L 61.275391 73.185547 C 53.273669 75.403966 44.691921 76.529297 35.759766 76.529297 C 35.212453 76.529297 34.675812 76.519896 34.150391 76.509766 L 33.943359 76.509766 C 24.901742 76.357819 15.860367 74.989738 7.7929688 72.558594 L 7.2890625 72.40625 L 7.1035156 71.951172 C 3.2942144 62.520359 2.375 51.369168 2.375 40.0625 C 2.375 28.755832 3.3819737 17.127318 7.3554688 7.5546875 L 7.5527344 7.0898438 L 8.0664062 6.9472656 C 15.509867 4.890923 23.785212 3.7371557 32.005859 3.6054688 C 32.542226 3.5953387 33.078867 3.5957031 33.615234 3.5957031 z "
         style="opacity:1;vector-effect:none;fill:#ffffff;fill-opacity:1;fill-rule:nonzero;stroke:none;stroke-width:1.95200002;stroke-linecap:butt;stroke-linejoin:miter;stroke-miterlimit:4;stroke-dasharray:none;stroke-dashoffset:0;stroke-opacity:1" />
    </g>
    <path
       id="path1154-8-2"
       d="m 33.675163,6.6112954 c 0.557696,0 1.115392,0.00956 1.683415,0.019115 8.427403,0.14336 16.803167,1.4049288 24.363042,3.6700176 3.573384,8.830981 4.443772,19.417362 4.443772,29.761551 0,10.344189 -0.95301,21.39888 -4.68131,30.334991 -7.435942,2.064385 -15.429581,3.274388 -23.774362,3.274388 -0.506058,0 -1.012115,-0.0096 -1.518172,-0.01911 h -0.17557 C 25.56792,73.508883 17.192156,72.088619 9.6426089,69.813973 6.0795528,61.002107 5.2088244,50.415411 5.2088244,40.061979 c 0,-10.353432 0.95335,-21.389323 4.6609939,-30.325434 C 16.820359,7.8155201 24.462856,6.7450981 32.177647,6.6208528 c 0.49573,-0.00956 1.001787,-0.00956 1.497516,-0.00956 m 0,-0.9557337 c -0.506057,0 -1.012114,0 -1.518171,0.00956 C 24.40089,5.7893644 16.593149,6.8789009 9.570315,8.8190405 L 9.0849131,8.9528432 8.8990146,9.3924808 C 5.1500599,18.424166 4.1999116,29.394246 4.1999116,40.061979 c 0,10.667733 0.8675267,21.188618 4.461566,30.0865 l 0.1755708,0.430081 0.4750741,0.14336 c 7.6115135,2.293761 16.1421925,3.584001 24.6728715,3.727361 h 0.196227 c 0.495729,0.0096 1.001786,0.01911 1.518171,0.01911 8.427403,0 16.524318,-1.060864 24.073866,-3.153921 l 0.485403,-0.133802 0.185898,-0.439639 c 3.759282,-9.01257 4.719759,-19.983589 4.719759,-30.679055 0,-10.695466 -0.867528,-21.188618 -4.471894,-30.0960578 L 60.516853,9.5358409 60.041779,9.3924808 C 52.409609,7.108277 43.87893,5.8180364 35.379234,5.6746763 34.780227,5.6651187 34.232859,5.6555621 33.675163,5.6555615 Z"
       style="fill:#ff0000;stroke:#ffffff;stroke-width:1.84341729;stroke-miterlimit:4;stroke-dasharray:none" />
    <path
       id="path1154"
       d="m 33.614853,4.6077955 c 0.591098,0 1.182197,0.01013 1.784241,0.02026 8.932155,0.1519464 17.809578,1.4890758 25.822246,3.8898304 3.787408,9.3599041 4.709928,20.5803481 4.709928,31.5440931 0,10.963745 -1.01009,22.680548 -4.961693,32.151879 -7.881312,2.18803 -16.353723,3.302304 -25.198307,3.302304 -0.536368,0 -1.072735,-0.01013 -1.609102,-0.02026 H 33.97608 C 25.022033,75.343956 16.14461,74.006827 8.1428892,71.595943 4.3664269,62.256298 3.443547,51.035521 3.443547,40.061979 c 0,-10.973542 1.01045,-22.670418 4.9401601,-32.1417498 7.3668369,-2.036083 15.4670749,-3.170617 23.6439369,-3.3023039 0.525421,-0.01013 1.061788,-0.01013 1.587209,-0.01013 m 0,-1.0129766 c -0.536367,0 -1.072734,0 -1.609101,0.01013 C 23.785105,3.7366356 15.509726,4.891429 8.0662653,6.9477716 L 7.5517907,7.0895883 7.3547579,7.5555576 C 3.3812628,17.128188 2.3742062,28.755311 2.3742062,40.061979 c 0,11.306668 0.9194864,22.457692 4.7287876,31.888505 l 0.1860865,0.45584 0.5035283,0.151947 c 8.0673984,2.431144 17.1090154,3.798662 26.1506324,3.950608 h 0.207979 c 0.525421,0.01013 1.061788,0.02026 1.609101,0.02026 8.932155,0 17.514028,-1.124404 25.51575,-3.342823 l 0.514475,-0.141816 0.197032,-0.46597 c 3.984442,-9.55237 5.002445,-21.180489 5.002445,-32.516551 0,-11.336062 -0.919487,-22.457692 -4.739734,-31.8986353 L 62.064202,7.7075041 61.560674,7.5555576 C 53.471382,5.1345434 44.429765,3.7670249 35.420987,3.6150784 c -0.634884,-0.01013 -1.215036,-0.020259 -1.806134,-0.02026 z"
       style="fill:#000000;stroke:#000000;stroke-width:1.95382714;stroke-miterlimit:4;stroke-dasharray:none" />
    <g
       id="g1810">
      <path
         d="M 6.5134911,7.7433673 C 5.6489029,6.8479453 4.058602,6.5681013 3.6272194,7.3820013 3.284151,8.0292783 3.3625296,8.5309135 4.395235,8.9201755 3.2963719,9.5187755 1.4857674,9.4447465 1.1893447,7.4467713 0.95320848,5.8551433 2.674739,4.8863543 3.1399725,5.0916244 3.0034432,3.6818714 1.8221094,4.0692802 0.95849208,3.2813384 0.34259068,2.7194046 0.23126071,-0.02624603 0.0561761,0.04378767 -0.0138576,0.21887227 2.7317937,0.33020157 3.2937267,0.94610377 4.0816685,1.8097211 3.6942598,2.9910547 5.1040128,3.1275841 4.8987425,2.6623507 5.8675315,0.94082017 7.4591593,1.1769564 9.4571345,1.4733791 9.5311625,3.2839847 8.9325635,4.3828467 8.5433008,3.3501417 8.041666,3.2717627 7.3943894,3.6148312 6.5804899,4.0462137 6.8603354,5.6365129 7.7557553,6.5011023"
         style="fill:#000000;stroke:#000000;stroke-width:0.1112323px;stroke-linecap:butt;stroke-linejoin:miter;stroke-opacity:1"
         id="path1737-3" />
      <path
         d="m 62.850738,7.7433673 c 0.864588,-0.895422 2.454889,-1.175266 2.886271,-0.361366 0.343069,0.647277 0.26469,1.148912 -0.768015,1.538174 1.098863,0.5986 2.909467,0.524571 3.20589,-1.473404 0.236136,-1.591628 -1.485394,-2.560417 -1.950628,-2.3551469 0.13653,-1.409753 1.317863,-1.0223442 2.181481,-1.810286 0.615901,-0.5619338 0.727231,-3.30758442 0.902316,-3.23755072 0.07003,0.1750846 -2.675618,0.2864139 -3.237551,0.9023161 C 65.28256,1.8097211 65.669969,2.9910547 64.260216,3.1275841 64.465486,2.6623507 63.496697,0.94082018 61.905069,1.1769564 c -1.997975,0.2964227 -2.072003,2.1070283 -1.473404,3.2058903 0.389263,-1.032705 0.890898,-1.111084 1.538174,-0.7680155 0.8139,0.4313825 0.534054,2.0216817 -0.361366,2.8862711"
         style="fill:#000000;stroke:#000000;stroke-width:0.1112323px;stroke-linecap:butt;stroke-linejoin:miter;stroke-opacity:1"
         id="path1737-3-5" />
      <path
         d="m 62.850738,72.244244 c 0.864588,0.895422 2.454889,1.175266 2.886272,0.361366 0.343068,-0.647277 0.264689,-1.148912 -0.768016,-1.538174 1.098863,-0.5986 2.909468,-0.524571 3.20589,1.473404 0.236137,1.591628 -1.485394,2.560417 -1.950628,2.355147 0.13653,1.409753 1.317864,1.022344 2.181481,1.810286 0.615901,0.561934 0.727231,3.307584 0.902316,3.237551 0.07003,-0.175085 -2.675618,-0.286414 -3.237551,-0.902317 -0.787942,-0.863617 -0.400533,-2.04495 -1.810286,-2.18148 0.20527,0.465234 -0.763519,2.186764 -2.355146,1.950628 -1.997976,-0.296423 -2.072004,-2.107028 -1.473405,-3.20589 0.389263,1.032705 0.890898,1.111084 1.538175,0.768015 0.813899,-0.431382 0.534054,-2.021682 -0.361366,-2.886271"
         style="fill:#000000;stroke:#000000;stroke-width:0.1112323px;stroke-linecap:butt;stroke-linejoin:miter;stroke-opacity:1"
         id="path1737-3-7" />
      <path
         d="M 6.513491,72.244245 C 5.648903,73.139667 4.058602,73.419511 3.62722,72.605611 3.284151,71.958334 3.36253,71.456699 4.395235,71.067437 c -1.098863,-0.5986 -2.909467,-0.524571 -3.20589,1.473404 -0.23613599,1.591628 1.485394,2.560417 1.950628,2.355147 -0.13653,1.409753 -1.317863,1.022344 -2.18148099,1.810286 -0.615901,0.561933 -0.727231,3.307584 -0.902316,3.23755 C -0.01385399,79.76874 2.731794,79.65741 3.293727,79.041508 4.081669,78.177891 3.69426,76.996557 5.104013,76.860028 4.898743,77.325261 5.867532,79.046792 7.45916,78.810656 9.457135,78.514233 9.531163,76.703627 8.932564,75.604765 8.543301,76.63747 8.041666,76.715849 7.39439,76.372781 6.58049,75.941398 6.860336,74.351099 7.755756,73.48651"
         style="fill:#000000;stroke:#000000;stroke-width:0.1112323px;stroke-linecap:butt;stroke-linejoin:miter;stroke-opacity:1"
         id="path1737-3-5-5" />
    </g>
    <path
       id="path1154-9"
       d="m 33.712865,7.4258691 c 0.536813,0 1.07363,0.00933 1.620386,0.01865 8.111875,0.1398689 16.174044,1.3707167 23.450873,3.5806479 3.439594,8.615932 4.277395,18.944521 4.277395,29.036812 0,10.092292 -0.917329,20.877786 -4.506039,29.596289 -7.157536,2.014114 -14.851888,3.03982 -22.884234,3.03982 -0.487111,0 -0.974221,-0.0094 -1.461331,-0.01865 H 34.040918 C 25.909161,72.53957 17.846991,71.308722 10.580105,69.089467 7.1504515,60.492184 6.3123238,50.163289 6.3123238,40.061979 c 0,-10.101311 0.9176558,-20.868461 4.4864832,-29.586965 6.690308,-1.8742449 14.046665,-2.9186005 21.472608,-3.0398203 0.47717,-0.00933 0.964281,-0.00933 1.44145,-0.00933 m 0,-0.9324602 c -0.487111,0 -0.974221,0 -1.46133,0.00933 C 24.785826,6.6239532 17.270413,7.686958 10.510517,9.5798526 L 10.043289,9.710397 9.8643508,10.139328 c -3.6085914,8.811751 -4.5231655,19.514693 -4.5231655,29.922651 0,10.407958 0.8350459,20.672644 4.294522,29.353849 l 0.1689973,0.419608 0.4572874,0.13987 c 7.326533,2.237904 15.537818,3.496724 23.749103,3.636593 h 0.188879 c 0.47717,0.0094 0.96428,0.01865 1.461331,0.01865 8.111875,0 15.905636,-1.035031 23.172525,-3.077119 l 0.467228,-0.130544 0.178938,-0.428932 c 3.618533,-8.793101 4.543048,-19.496959 4.543048,-29.931975 0,-10.435016 -0.835047,-20.672644 -4.304463,-29.363174 l -0.168997,-0.419609 -0.457288,-0.13987 C 51.74588,7.9107484 43.534594,6.6519271 35.353133,6.512058 34.776554,6.502738 34.249678,6.493409 33.712865,6.493409 Z"
       style="fill:#000000;stroke:none;stroke-width:1.78642213;stroke-miterlimit:4;stroke-dasharray:none" />
    <path
       id="path1154-9-3"
       d="m 33.712865,7.4258686 c 0.536813,0 1.07363,0.00933 1.620386,0.01865 8.111875,0.1398689 16.174044,1.3707167 23.450873,3.5806484 3.439594,8.615932 4.277395,18.944521 4.277395,29.036812 0,10.092292 -0.917329,20.877786 -4.506039,29.596288 -7.157536,2.014114 -14.851888,3.03982 -22.884234,3.03982 -0.487111,0 -0.974221,-0.0094 -1.461331,-0.01865 H 34.040918 C 25.909161,72.539569 17.846991,71.308722 10.580105,69.089466 7.1504515,60.492184 6.3123238,50.163288 6.3123238,40.061979 c 0,-10.101312 0.9176558,-20.868461 4.4864832,-29.586965 6.690308,-1.8742454 14.046665,-2.918601 21.472608,-3.0398208 0.47717,-0.00933 0.964281,-0.00933 1.44145,-0.00933 m 0,-0.9324602 c -0.487111,0 -0.974221,0 -1.46133,0.00933 C 24.785826,6.6239527 17.270413,7.6869575 10.510517,9.5798521 L 10.043289,9.7103965 9.8643508,10.139328 C 6.2557594,18.951079 5.3411853,29.65402 5.3411853,40.061979 c 0,10.407958 0.8350459,20.672643 4.294522,29.353849 l 0.1689973,0.419608 0.4572874,0.13987 c 7.326533,2.237904 15.537818,3.496724 23.749103,3.636593 h 0.188879 c 0.47717,0.0094 0.96428,0.01865 1.461331,0.01865 8.111875,0 15.905636,-1.035032 23.172525,-3.077119 l 0.467228,-0.130544 0.178938,-0.428932 c 3.618533,-8.793101 4.543048,-19.49696 4.543048,-29.931975 0,-10.435016 -0.835047,-20.672644 -4.304463,-29.363175 l -0.168997,-0.419609 -0.457288,-0.13987 C 51.74588,7.9107479 43.534594,6.6519266 35.353133,6.5120575 34.776554,6.5027375 34.249678,6.4934085 33.712865,6.4934085 Z"
       style="fill:#000000;stroke:none;stroke-width:1.78642213;stroke-miterlimit:4;stroke-dasharray:none" />
  </g>
</svg>
