<svg id="Capa_2" xmlns="http://www.w3.org/2000/svg" xmlns:xlink="http://www.w3.org/1999/xlink" viewBox="0 0 69.02 80">
<defs >
<style >
.cls-1{fill:#c89aed;}.cls-2{fill:#fff;}.cls-3{fill:#f8ffbf;}.cls-4{fill:#7b7be8;}.cls-5{fill:#a88347;}.cls-6{fill:#782ab5;}.cls-7,.cls-8,.cls-9,.cls-10,.cls-11,.cls-12{fill:none;}.cls-7,.cls-8,.cls-12{stroke:#000;}.cls-7,.cls-12{stroke-miterlimit:10;}.cls-8,.cls-9{stroke-linecap:round;stroke-linejoin:round;}.cls-9{stroke:#deb778;stroke-dasharray:0 0 0 4.06;}.cls-13{fill:#deb778;}.cls-14{fill:url(#USGS_19_Inundación_de_tierra_2);}.cls-11{stroke:#1d1d1b;stroke-dasharray:0 0 2 2;stroke-width:.3px;}.cls-15{fill:#cf5f2b;}.cls-16{fill:#fcf0c5;}.cls-12{stroke-width:.5px;}.cls-17{fill:#b83521;}
</style>
<pattern id="USGS_19_Inundación_de_tierra_2" x="0" y="0" width="72" height="72" patternTransform="translate(-308.48 -16279) rotate(-90)" patternUnits="userSpaceOnUse" viewBox="0 0 72 72">
<g >
<rect class="cls-10" width="72" height="72">
</rect>
<g >
<line class="cls-11" x1="71" y1="71" x2="144.44" y2="71">
</line>
<line class="cls-11" x1="71" y1="67" x2="144.44" y2="67">
</line>
<line class="cls-11" x1="71" y1="63" x2="144.44" y2="63">
</line>
<line class="cls-11" x1="71" y1="59" x2="144.44" y2="59">
</line>
<line class="cls-11" x1="71" y1="55" x2="144.44" y2="55">
</line>
<line class="cls-11" x1="71" y1="51" x2="144.44" y2="51">
</line>
<line class="cls-11" x1="71" y1="47" x2="144.44" y2="47">
</line>
<line class="cls-11" x1="71" y1="43" x2="144.44" y2="43">
</line>
<line class="cls-11" x1="71" y1="39" x2="144.44" y2="39">
</line>
<line class="cls-11" x1="71" y1="35" x2="144.44" y2="35">
</line>
<line class="cls-11" x1="71" y1="31" x2="144.44" y2="31">
</line>
<line class="cls-11" x1="71" y1="27" x2="144.44" y2="27">
</line>
<line class="cls-11" x1="71" y1="23" x2="144.44" y2="23">
</line>
<line class="cls-11" x1="71" y1="19" x2="144.44" y2="19">
</line>
<line class="cls-11" x1="71" y1="15" x2="144.44" y2="15">
</line>
<line class="cls-11" x1="71" y1="11" x2="144.44" y2="11">
</line>
<line class="cls-11" x1="71" y1="7" x2="144.44" y2="7">
</line>
<line class="cls-11" x1="71" y1="3" x2="144.44" y2="3">
</line>
</g>
<g >
<line class="cls-11" x1="-1" y1="71" x2="72.44" y2="71">
</line>
<line class="cls-11" x1="-1" y1="67" x2="72.44" y2="67">
</line>
<line class="cls-11" x1="-1" y1="63" x2="72.44" y2="63">
</line>
<line class="cls-11" x1="-1" y1="59" x2="72.44" y2="59">
</line>
<line class="cls-11" x1="-1" y1="55" x2="72.44" y2="55">
</line>
<line class="cls-11" x1="-1" y1="51" x2="72.44" y2="51">
</line>
<line class="cls-11" x1="-1" y1="47" x2="72.44" y2="47">
</line>
<line class="cls-11" x1="-1" y1="43" x2="72.44" y2="43">
</line>
<line class="cls-11" x1="-1" y1="39" x2="72.44" y2="39">
</line>
<line class="cls-11" x1="-1" y1="35" x2="72.44" y2="35">
</line>
<line class="cls-11" x1="-1" y1="31" x2="72.44" y2="31">
</line>
<line class="cls-11" x1="-1" y1="27" x2="72.44" y2="27">
</line>
<line class="cls-11" x1="-1" y1="23" x2="72.44" y2="23">
</line>
<line class="cls-11" x1="-1" y1="19" x2="72.44" y2="19">
</line>
<line class="cls-11" x1="-1" y1="15" x2="72.44" y2="15">
</line>
<line class="cls-11" x1="-1" y1="11" x2="72.44" y2="11">
</line>
<line class="cls-11" x1="-1" y1="7" x2="72.44" y2="7">
</line>
<line class="cls-11" x1="-1" y1="3" x2="72.44" y2="3">
</line>
<line class="cls-11" x1="1.04" y1="69" x2="74.48" y2="69">
</line>
<line class="cls-11" x1="1.04" y1="65" x2="74.48" y2="65">
</line>
<line class="cls-11" x1="1.04" y1="61" x2="74.48" y2="61">
</line>
<line class="cls-11" x1="1.04" y1="57" x2="74.48" y2="57">
</line>
<line class="cls-11" x1="1.04" y1="53" x2="74.48" y2="53">
</line>
<line class="cls-11" x1="1.04" y1="49" x2="74.48" y2="49">
</line>
<line class="cls-11" x1="1.04" y1="45" x2="74.48" y2="45">
</line>
<line class="cls-11" x1="1.04" y1="41" x2="74.48" y2="41">
</line>
<line class="cls-11" x1="1.04" y1="37" x2="74.48" y2="37">
</line>
<line class="cls-11" x1="1.04" y1="33" x2="74.48" y2="33">
</line>
<line class="cls-11" x1="1.04" y1="29" x2="74.48" y2="29">
</line>
<line class="cls-11" x1="1.04" y1="25" x2="74.48" y2="25">
</line>
<line class="cls-11" x1="1.04" y1="21" x2="74.48" y2="21">
</line>
<line class="cls-11" x1="1.04" y1="17" x2="74.48" y2="17">
</line>
<line class="cls-11" x1="1.04" y1="13" x2="74.48" y2="13">
</line>
<line class="cls-11" x1="1.04" y1="9" x2="74.48" y2="9">
</line>
<line class="cls-11" x1="1.04" y1="5" x2="74.48" y2="5">
</line>
<line class="cls-11" x1="1.04" y1="1" x2="74.48" y2="1">
</line>
</g>
<g >
<line class="cls-11" x1="-73" y1="71" x2=".44" y2="71">
</line>
<line class="cls-11" x1="-73" y1="67" x2=".44" y2="67">
</line>
<line class="cls-11" x1="-73" y1="63" x2=".44" y2="63">
</line>
<line class="cls-11" x1="-73" y1="59" x2=".44" y2="59">
</line>
<line class="cls-11" x1="-73" y1="55" x2=".44" y2="55">
</line>
<line class="cls-11" x1="-73" y1="51" x2=".44" y2="51">
</line>
<line class="cls-11" x1="-73" y1="47" x2=".44" y2="47">
</line>
<line class="cls-11" x1="-73" y1="43" x2=".44" y2="43">
</line>
<line class="cls-11" x1="-73" y1="39" x2=".44" y2="39">
</line>
<line class="cls-11" x1="-73" y1="35" x2=".44" y2="35">
</line>
<line class="cls-11" x1="-73" y1="31" x2=".44" y2="31">
</line>
<line class="cls-11" x1="-73" y1="27" x2=".44" y2="27">
</line>
<line class="cls-11" x1="-73" y1="23" x2=".44" y2="23">
</line>
<line class="cls-11" x1="-73" y1="19" x2=".44" y2="19">
</line>
<line class="cls-11" x1="-73" y1="15" x2=".44" y2="15">
</line>
<line class="cls-11" x1="-73" y1="11" x2=".44" y2="11">
</line>
<line class="cls-11" x1="-73" y1="7" x2=".44" y2="7">
</line>
<line class="cls-11" x1="-73" y1="3" x2=".44" y2="3">
</line>
<line class="cls-11" x1="-70.96" y1="69" x2="2.48" y2="69">
</line>
<line class="cls-11" x1="-70.96" y1="65" x2="2.48" y2="65">
</line>
<line class="cls-11" x1="-70.96" y1="61" x2="2.48" y2="61">
</line>
<line class="cls-11" x1="-70.96" y1="57" x2="2.48" y2="57">
</line>
<line class="cls-11" x1="-70.96" y1="53" x2="2.48" y2="53">
</line>
<line class="cls-11" x1="-70.96" y1="49" x2="2.48" y2="49">
</line>
<line class="cls-11" x1="-70.96" y1="45" x2="2.48" y2="45">
</line>
<line class="cls-11" x1="-70.96" y1="41" x2="2.48" y2="41">
</line>
<line class="cls-11" x1="-70.96" y1="37" x2="2.48" y2="37">
</line>
<line class="cls-11" x1="-70.96" y1="33" x2="2.48" y2="33">
</line>
<line class="cls-11" x1="-70.96" y1="29" x2="2.48" y2="29">
</line>
<line class="cls-11" x1="-70.96" y1="25" x2="2.48" y2="25">
</line>
<line class="cls-11" x1="-70.96" y1="21" x2="2.48" y2="21">
</line>
<line class="cls-11" x1="-70.96" y1="17" x2="2.48" y2="17">
</line>
<line class="cls-11" x1="-70.96" y1="13" x2="2.48" y2="13">
</line>
<line class="cls-11" x1="-70.96" y1="9" x2="2.48" y2="9">
</line>
<line class="cls-11" x1="-70.96" y1="5" x2="2.48" y2="5">
</line>
<line class="cls-11" x1="-70.96" y1="1" x2="2.48" y2="1">
</line>
</g>
</g>
</pattern>
</defs>

<g id="Capa_10">
<g >
<path class="cls-1" d="M63.24,64.3l-2.3,9.87-21.4,3.41-26.55-3.19-6.26-3.95-.55-6.36,14.93-5.16,.21-10.53-1.64-2.31-.44-3.62s-2.09-.55-3.62-4.5c-.03-.04-.07-.08-.1-.12-.11-.12-.21-.24-.3-.36-1.76-2.17-2.83-4.39-3.32-5.57-.23-.54-.34-.86-.34-.86,0,0,4.94-12.4,6.03-14.16,1.1-1.75,6.37-10.53,16.35-7.68,8.45-1.86,12.62,1.65,16.35,7.68,3.73,6.26,6.37,14.38,6.37,14.38,0,0-2.22,5.06-4.16,6.39-.04,.03-.08,.06-.12,.08-.55,2.97-3.4,4.94-3.4,4.94l-.66,3.51-1.65,2.2,.33,10.86,16.24,5.05Z">
</path>
<path class="cls-17" d="M56.66,31.27s-2.22,5.06-4.16,6.39l.21-2.67-3.07,1.75-1.55-6.42s-2.37-.39-3.88-4.06c-1.5-3.68-6.2-6.21-10.3-3.38-3.01-1.68-6.26-1.08-8.13,.85-2.47,3.97-4.4,6.44-5.66,6.74-.97,3.32-1.69,8.02-1.69,8.02l-2.91-.65-.1-.02-.2-.34-3.32-5.57c-.23-.54-.34-.86-.34-.86,0,0,4.94-12.4,6.03-14.16,1.1-1.75,6.37-10.53,16.35-7.68,8.45-1.86,12.62,1.65,16.35,7.68,3.73,6.26,6.37,14.38,6.37,14.38Z">
</path>
<polygon class="cls-4" points="32.22 31.29 31.08 37.84 23.93 36.8 21.72 33.58 26.26 31.16 32.22 31.29">
</polygon>
<path class="cls-2" d="M33.99,57.9V23.27s2.52-1.74,4-1.57,4.18,.96,5.22,2.87,3.39,5.22,4.87,5.74c1.83,5.39,1.65,7.13,1.65,7.13l-1.74,9.05-8.85,10.65-5.15,.75Z">
</path>
<polygon class="cls-4" points="35.81 31.29 36.95 37.84 44.1 36.8 46.31 33.68 45.41 32.86 41.76 31.16 35.81 31.29">
</polygon>
<path d="M46.67,48.39l-15.59,26.99-20.99-1.88-2.21-10.05,13.23-4.53,.22-10.53,7.77,9.21s5.86,1.1,10.05-.44c3.43-4.31,7.53-8.76,7.53-8.76Z">
</path>
<path class="cls-3" d="M36.8,37.84l.69-2.32,4.7-.26,1.74,1.69s-3.75,2.17-7.13,.9Z">
</path>
<path class="cls-3" d="M31.08,37.84l-.69-2.32-4.7-.26-1.74,1.69s3.75,2.17,7.13,.9Z">
</path>
<path d="M15.54,34.77s-.1,6.02,3.57,7.82c-.82-4.42-.75-5.96-.75-5.96l-2.82-1.87Z">
</path>
<path class="cls-2" d="M23.99,39.16c1.1,.31,2.71,.69,4.2,.75,.56,.03,.77,.75,.32,1.08-1.57,1.2-2.55,1.71-3.09,1.94-.29,.12-.61,0-.75-.28l-1.38-2.63c-.25-.47,.19-1,.7-.86Z">
</path>
<path class="cls-15" d="M39.83,22s0-4.19,3.33-4.38,4-3.9,3.14-5.52c4.57,4.57,5.62,7.62,6.47,9.9-2.57-1.81-5.71-2.09-6.09-.19-2.28-.67-3.9,.95-4.09,2.19-1.52-1.14-2.76-2-2.76-2Z">
</path>
<path d="M25.95,17.14s-6.9-.42-4.99-4.41c-4.99,5.82-5.9,10.81-7.15,13.06s-2.58,5.82-2.58,5.82l3.99,5.49,.08-2.58,3.05,2.12,1.76-6.17-1.16-.2s1.41-3.24,1.5-5.32,.67-7.57,5.49-7.82Z">
</path>
<path d="M47,59.25s-4.2,11.86-12.73,15.25c11.83,2.96,25.49-1.91,25.49-1.91l1.04-8.96-13.8-4.38Z">
</path>
<path class="cls-15" d="M31.75,16.68s-2.87-1.4-6.28-.85c2.72-1.63,3.96-6.05,2.33-6.52,2.56-.54,4.03-.23,4.03-.23,0,0,1.24,3.1-.08,7.6Z">
</path>
<path class="cls-1" d="M30.49,23.2c.95,0,1.82,.32,2.6,.96,.27,.22,.61,.34,.95,.34s.69-.12,.95-.34c.78-.64,1.66-.96,2.61-.96,1.68,0,3.23,1,4.04,1.85,.45,.48,.93,1.28,1.4,2.07,.92,1.53,2.04,3.41,3.85,4.33,.38,1.17,1.44,4.71,1.14,6.89-.37,2.58-.97,6.18-1.14,7.17l-8.63,10.45c-1.63,.42-3.17,.65-4.57,.69-.08,0-.16,0-.23,0-1.35,0-2.57-.27-3.43-.54l-8.77-10.6c-.17-1-.78-4.62-1.13-7.17-.31-2.16,.74-5.68,1.13-6.91,1.78-.93,2.9-2.79,3.83-4.33,.46-.77,.93-1.57,1.38-2.05,.81-.85,2.36-1.85,4.04-1.85m7.11-1c-1.08,0-2.19,.34-3.24,1.19-.09,.07-.2,.11-.31,.11s-.23-.04-.32-.11c-1.04-.85-2.16-1.19-3.24-1.19-1.92,0-3.72,1.07-4.76,2.16-.52,.55-1.01,1.37-1.52,2.23-.94,1.56-2.04,3.4-3.78,4.12-.1,.29-1.71,4.95-1.31,7.77,.38,2.73,1.05,6.7,1.18,7.46l9.13,11.03c.98,.32,2.41,.67,4.01,.67,.08,0,.17,0,.26,0,1.98-.05,3.85-.46,5.11-.8l9.01-10.9c.13-.76,.8-4.73,1.19-7.46,.38-2.77-1.16-7.32-1.32-7.76-1.76-.7-2.87-2.56-3.81-4.13-.51-.86-1-1.68-1.52-2.23-1.04-1.09-2.84-2.16-4.76-2.16h0Z">
</path>
<path class="cls-8" d="M36.53,18.29s4.15-2.58,8.12,0,2.49,10.7,5.17,12.18c-3.97,.55-5.17-4.43-7.1-6.46s-5.63-3.51-8.67-1.01c-3.04-2.49-6.74-1.01-8.67,1.01s-3.14,7.01-7.1,6.46c2.68-1.48,1.2-9.6,5.17-12.18s8.12,0,8.12,0">
</path>
<path d="M13.5,31.86c1.25,1.95,3.11,3.36,5.19,4.31,.24,.13,.34,.43,.21,.68-.11,.22-.37,.32-.59,.24-.6-.19-1.17-.45-1.69-.8-1.52-1.03-2.73-2.65-3.11-4.43h0Z">
</path>
<path class="cls-8" d="M15.35,34.71s0,6.4,3.98,8.32">
</path>
<path class="cls-8" d="M52.47,38.08s1.93-1.81,4.08-6.9c-1.81-3.62-3.85-13.25-9.85-18.79-5.5-5.09-11.67-3.51-12.65-3.21h0c-.97-.29-7.15-1.89-12.66,3.21-6,5.54-8.04,15.17-9.85,18.79,2.15,5.09,4.07,6.9,4.07,6.9">
</path>
<path d="M54.59,31.86c-.53,2.38-2.45,4.51-4.8,5.23-.57,.18-.91-.65-.38-.92,2.08-.95,3.94-2.36,5.19-4.32h0Z">
</path>
<path class="cls-8" d="M52.74,34.71s.27,6.34-3.72,8.26">
</path>
<path class="cls-8" d="M19.97,30.51s-1.78,4.98-1.35,8.04,1.21,7.61,1.21,7.61l9.31,11.24c1.29,.44,2.88,.78,4.57,.74,1.96-.05,3.88-.44,5.37-.86h.01l9.2-11.12s.78-4.55,1.21-7.61-1.35-8.04-1.35-8.04">
</path>
<path d="M20.51,39.73c1.11,1.36,1.87,2.98,2.98,4.18,.53,1.13,.53,2.51,.58,3.76-.03,.32,0,1.12-.16,1.22-.02,0-.03-.02-.04-.04l-1.15-4.35c-1.12-1.08-1.85-3.11-2.3-4.75-.01-.06,.07-.08,.1-.02h0Z">
</path>
<path d="M47.54,39.75c.21,1.95-.38,3.96-1.78,5.36,0,0,.24-.4,.24-.4-.41,1.47-1,2.92-1.93,4.16-.03,.04-.1,0-.08-.04,0,0,1.06-4.38,1.06-4.38,1.21-1.3,1.89-3.03,2.39-4.72,.02-.06,.1-.04,.1,.02h0Z">
</path>
<polygon points="34.15 47.97 35.67 47.54 39.96 49.12 34.98 49.12 34.12 49.59 33.97 49.59 33.11 49.12 28.13 49.12 32.42 47.54 33.94 47.97 34.15 47.97">
</polygon>
<path d="M30.25,50.45c2.24,1.36,5.21,1.44,7.44,.03,0,0,.05,.08,.05,.08-1.18,1.96-3.98,2.42-5.93,1.42-.65-.33-1.24-.79-1.62-1.45l.06-.08h0Z">
</path>
<path d="M36.89,40.49c.48,.91,.88,1.83,1.28,2.77-.56,1.71-2.5,2.48-4.11,2.36-1.56,.11-3.46-.59-4.06-2.23-.04-.12-.08-.1,0-.23,.38-.9,.77-1.79,1.24-2.66-.15,.98-.36,1.93-.59,2.88v-.23c.3,.53,.85,.98,1.44,1.21,1.73,.53,4.38,.54,5.41-1.21,0,0,0,.23,0,.23-.23-.95-.44-1.9-.59-2.88h0Z">
</path>
<path d="M31.35,43.02c.82,.39,1.62,.9,2.27,1.69l-.87,.49c-.24-.76-.77-1.53-1.39-2.17,0,0,.63,.65,0,0Z">
</path>
<path d="M36.76,43.02c-.63,.65-1.15,1.41-1.39,2.17l-.87-.49c.65-.79,1.44-1.3,2.27-1.69,0,0-.82,.39,0,0Z">
</path>
<path d="M27.05,26.62c4.45-.21,9.14,.06,13.57-.04-1.87,.69-4.59,.7-6.78,.74-2.19-.11-4.88-.15-6.79-.7h0Z">
</path>
<path d="M21.72,33.68s1.6-2.79,4.52-3.67c4.08-.14,6.16,.82,6.16,.82,0,0-.27,1.36-1.16,1.77-2.62,.07-5.31-.75-5.31-.75,0,0-2.65,.65-4.22,1.84Z">
</path>
<path d="M46.31,33.68s-1.6-2.79-4.52-3.67c-4.08-.14-6.16,.82-6.16,.82,0,0,.27,1.36,1.16,1.77,2.62,.07,5.31-.75,5.31-.75,0,0,2.65,.65,4.22,1.84Z">
</path>
<path d="M31.23,37.9c-.38-.79-.73-1.6-1.05-2.41l.27,.21c-1.61,.07-3.22,.07-4.82,.01l.24-.06c-.58,.34-1.2,.79-1.49,1.37,0,0-.12-.46-.12-.46,.98,.87,2.45,1.24,3.74,1.48,.47,.08,.95,.13,1.44,.19-.48,.1-.97,.16-1.46,.18-1.63,.07-3.31-.23-4.59-1.37,0,0,.09-.29,.09-.29,.36-.98,1.18-1.57,2.04-2.04,1.66,.06,3.32,.19,4.97,.38l.23,.03c.2,.91,.38,1.83,.52,2.77h0Z">
</path>
<path d="M36.77,37.9c.14-.93,.31-1.85,.52-2.77l.23-.03c1.65-.19,3.31-.32,4.97-.38,.86,.47,1.68,1.07,2.04,2.04,0,0,.09,.29,.09,.29-1.28,1.14-2.96,1.43-4.59,1.37-.49-.03-.98-.08-1.46-.18,.49-.06,.97-.1,1.44-.19,1.29-.25,2.76-.62,3.74-1.48,0,0-.12,.46-.12,.46-.03-.06-.13-.24-.23-.36-.34-.42-.79-.73-1.26-1.01l.24,.06c-1.61,.06-3.21,.05-4.82-.01l.27-.21c-.32,.81-.67,1.61-1.05,2.41h0Z">
</path>
<polyline class="cls-7" points="21.28 47.77 21.28 58.86 6.86 63.88">
</polyline>
<polyline class="cls-7" points="46.73 47.77 46.73 58.86 61.15 63.88">
</polyline>
<path class="cls-7" d="M21.28,58.86s2.81,12.98,15.66,17.37">
</path>
<path class="cls-7" d="M46.8,58.58s-2.81,12.98-15.66,17.37">
</path>
<path class="cls-12" d="M15.23,61.2s1.73,8.56,6.72,13.11">
</path>
<path class="cls-12" d="M53.01,61.2s-1.73,8.56-6.72,13.11">
</path>
<path class="cls-1" d="M10.29,63.68c3.92-1.34,8.42-3.18,12.07-4.26,0,0,.04-7.4,.04-7.4h.1c.51,2.63,.72,5.3,.81,7.97-4.16,1.55-8.7,3.35-13.02,3.69h0Z">
</path>
<path class="cls-2" d="M45.3,52.61l-11.01,19.54s7.55-3.46,11.19-13.15l-.18-6.39Z">
</path>
</g>
</g>
 <g
     id="g2850">
    <g
       id="g2837">
      <path
         id="path1951"
         d="M 0.056640625 0.04296875 L 0.056640625 79.943359 L 69.308594 79.943359 L 69.308594 0.04296875 L 0.056640625 0.04296875 z M 33.615234 3.5957031 C 34.206332 3.5957038 34.786991 3.6051034 35.421875 3.6152344 C 44.430653 3.7671809 53.471255 5.1336733 61.560547 7.5546875 L 62.064453 7.7070312 L 62.25 8.1640625 C 66.070247 17.605006 66.990234 28.726438 66.990234 40.0625 C 66.990234 51.398562 65.972723 63.025755 61.988281 72.578125 L 61.791016 73.044922 L 61.275391 73.185547 C 53.273669 75.403966 44.691921 76.529297 35.759766 76.529297 C 35.212453 76.529297 34.675812 76.519896 34.150391 76.509766 L 33.943359 76.509766 C 24.901742 76.357819 15.860367 74.989738 7.7929688 72.558594 L 7.2890625 72.40625 L 7.1035156 71.951172 C 3.2942144 62.520359 2.375 51.369168 2.375 40.0625 C 2.375 28.755832 3.3819737 17.127318 7.3554688 7.5546875 L 7.5527344 7.0898438 L 8.0664062 6.9472656 C 15.509867 4.890923 23.785212 3.7371557 32.005859 3.6054688 C 32.542226 3.5953387 33.078867 3.5957031 33.615234 3.5957031 z "
         style="opacity:1;vector-effect:none;fill:#ffffff;fill-opacity:1;fill-rule:nonzero;stroke:none;stroke-width:1.95200002;stroke-linecap:butt;stroke-linejoin:miter;stroke-miterlimit:4;stroke-dasharray:none;stroke-dashoffset:0;stroke-opacity:1" />
    </g>
    <path
       id="path1154-8-2"
       d="m 33.675163,6.6112954 c 0.557696,0 1.115392,0.00956 1.683415,0.019115 8.427403,0.14336 16.803167,1.4049288 24.363042,3.6700176 3.573384,8.830981 4.443772,19.417362 4.443772,29.761551 0,10.344189 -0.95301,21.39888 -4.68131,30.334991 -7.435942,2.064385 -15.429581,3.274388 -23.774362,3.274388 -0.506058,0 -1.012115,-0.0096 -1.518172,-0.01911 h -0.17557 C 25.56792,73.508883 17.192156,72.088619 9.6426089,69.813973 6.0795528,61.002107 5.2088244,50.415411 5.2088244,40.061979 c 0,-10.353432 0.95335,-21.389323 4.6609939,-30.325434 C 16.820359,7.8155201 24.462856,6.7450981 32.177647,6.6208528 c 0.49573,-0.00956 1.001787,-0.00956 1.497516,-0.00956 m 0,-0.9557337 c -0.506057,0 -1.012114,0 -1.518171,0.00956 C 24.40089,5.7893644 16.593149,6.8789009 9.570315,8.8190405 L 9.0849131,8.9528432 8.8990146,9.3924808 C 5.1500599,18.424166 4.1999116,29.394246 4.1999116,40.061979 c 0,10.667733 0.8675267,21.188618 4.461566,30.0865 l 0.1755708,0.430081 0.4750741,0.14336 c 7.6115135,2.293761 16.1421925,3.584001 24.6728715,3.727361 h 0.196227 c 0.495729,0.0096 1.001786,0.01911 1.518171,0.01911 8.427403,0 16.524318,-1.060864 24.073866,-3.153921 l 0.485403,-0.133802 0.185898,-0.439639 c 3.759282,-9.01257 4.719759,-19.983589 4.719759,-30.679055 0,-10.695466 -0.867528,-21.188618 -4.471894,-30.0960578 L 60.516853,9.5358409 60.041779,9.3924808 C 52.409609,7.108277 43.87893,5.8180364 35.379234,5.6746763 34.780227,5.6651187 34.232859,5.6555621 33.675163,5.6555615 Z"
       style="fill:#ff0000;stroke:#ffffff;stroke-width:1.84341729;stroke-miterlimit:4;stroke-dasharray:none" />
    <path
       id="path1154"
       d="m 33.614853,4.6077955 c 0.591098,0 1.182197,0.01013 1.784241,0.02026 8.932155,0.1519464 17.809578,1.4890758 25.822246,3.8898304 3.787408,9.3599041 4.709928,20.5803481 4.709928,31.5440931 0,10.963745 -1.01009,22.680548 -4.961693,32.151879 -7.881312,2.18803 -16.353723,3.302304 -25.198307,3.302304 -0.536368,0 -1.072735,-0.01013 -1.609102,-0.02026 H 33.97608 C 25.022033,75.343956 16.14461,74.006827 8.1428892,71.595943 4.3664269,62.256298 3.443547,51.035521 3.443547,40.061979 c 0,-10.973542 1.01045,-22.670418 4.9401601,-32.1417498 7.3668369,-2.036083 15.4670749,-3.170617 23.6439369,-3.3023039 0.525421,-0.01013 1.061788,-0.01013 1.587209,-0.01013 m 0,-1.0129766 c -0.536367,0 -1.072734,0 -1.609101,0.01013 C 23.785105,3.7366356 15.509726,4.891429 8.0662653,6.9477716 L 7.5517907,7.0895883 7.3547579,7.5555576 C 3.3812628,17.128188 2.3742062,28.755311 2.3742062,40.061979 c 0,11.306668 0.9194864,22.457692 4.7287876,31.888505 l 0.1860865,0.45584 0.5035283,0.151947 c 8.0673984,2.431144 17.1090154,3.798662 26.1506324,3.950608 h 0.207979 c 0.525421,0.01013 1.061788,0.02026 1.609101,0.02026 8.932155,0 17.514028,-1.124404 25.51575,-3.342823 l 0.514475,-0.141816 0.197032,-0.46597 c 3.984442,-9.55237 5.002445,-21.180489 5.002445,-32.516551 0,-11.336062 -0.919487,-22.457692 -4.739734,-31.8986353 L 62.064202,7.7075041 61.560674,7.5555576 C 53.471382,5.1345434 44.429765,3.7670249 35.420987,3.6150784 c -0.634884,-0.01013 -1.215036,-0.020259 -1.806134,-0.02026 z"
       style="fill:#000000;stroke:#000000;stroke-width:1.95382714;stroke-miterlimit:4;stroke-dasharray:none" />
    <g
       id="g1810">
      <path
         d="M 6.5134911,7.7433673 C 5.6489029,6.8479453 4.058602,6.5681013 3.6272194,7.3820013 3.284151,8.0292783 3.3625296,8.5309135 4.395235,8.9201755 3.2963719,9.5187755 1.4857674,9.4447465 1.1893447,7.4467713 0.95320848,5.8551433 2.674739,4.8863543 3.1399725,5.0916244 3.0034432,3.6818714 1.8221094,4.0692802 0.95849208,3.2813384 0.34259068,2.7194046 0.23126071,-0.02624603 0.0561761,0.04378767 -0.0138576,0.21887227 2.7317937,0.33020157 3.2937267,0.94610377 4.0816685,1.8097211 3.6942598,2.9910547 5.1040128,3.1275841 4.8987425,2.6623507 5.8675315,0.94082017 7.4591593,1.1769564 9.4571345,1.4733791 9.5311625,3.2839847 8.9325635,4.3828467 8.5433008,3.3501417 8.041666,3.2717627 7.3943894,3.6148312 6.5804899,4.0462137 6.8603354,5.6365129 7.7557553,6.5011023"
         style="fill:#000000;stroke:#000000;stroke-width:0.1112323px;stroke-linecap:butt;stroke-linejoin:miter;stroke-opacity:1"
         id="path1737-3" />
      <path
         d="m 62.850738,7.7433673 c 0.864588,-0.895422 2.454889,-1.175266 2.886271,-0.361366 0.343069,0.647277 0.26469,1.148912 -0.768015,1.538174 1.098863,0.5986 2.909467,0.524571 3.20589,-1.473404 0.236136,-1.591628 -1.485394,-2.560417 -1.950628,-2.3551469 0.13653,-1.409753 1.317863,-1.0223442 2.181481,-1.810286 0.615901,-0.5619338 0.727231,-3.30758442 0.902316,-3.23755072 0.07003,0.1750846 -2.675618,0.2864139 -3.237551,0.9023161 C 65.28256,1.8097211 65.669969,2.9910547 64.260216,3.1275841 64.465486,2.6623507 63.496697,0.94082018 61.905069,1.1769564 c -1.997975,0.2964227 -2.072003,2.1070283 -1.473404,3.2058903 0.389263,-1.032705 0.890898,-1.111084 1.538174,-0.7680155 0.8139,0.4313825 0.534054,2.0216817 -0.361366,2.8862711"
         style="fill:#000000;stroke:#000000;stroke-width:0.1112323px;stroke-linecap:butt;stroke-linejoin:miter;stroke-opacity:1"
         id="path1737-3-5" />
      <path
         d="m 62.850738,72.244244 c 0.864588,0.895422 2.454889,1.175266 2.886272,0.361366 0.343068,-0.647277 0.264689,-1.148912 -0.768016,-1.538174 1.098863,-0.5986 2.909468,-0.524571 3.20589,1.473404 0.236137,1.591628 -1.485394,2.560417 -1.950628,2.355147 0.13653,1.409753 1.317864,1.022344 2.181481,1.810286 0.615901,0.561934 0.727231,3.307584 0.902316,3.237551 0.07003,-0.175085 -2.675618,-0.286414 -3.237551,-0.902317 -0.787942,-0.863617 -0.400533,-2.04495 -1.810286,-2.18148 0.20527,0.465234 -0.763519,2.186764 -2.355146,1.950628 -1.997976,-0.296423 -2.072004,-2.107028 -1.473405,-3.20589 0.389263,1.032705 0.890898,1.111084 1.538175,0.768015 0.813899,-0.431382 0.534054,-2.021682 -0.361366,-2.886271"
         style="fill:#000000;stroke:#000000;stroke-width:0.1112323px;stroke-linecap:butt;stroke-linejoin:miter;stroke-opacity:1"
         id="path1737-3-7" />
      <path
         d="M 6.513491,72.244245 C 5.648903,73.139667 4.058602,73.419511 3.62722,72.605611 3.284151,71.958334 3.36253,71.456699 4.395235,71.067437 c -1.098863,-0.5986 -2.909467,-0.524571 -3.20589,1.473404 -0.23613599,1.591628 1.485394,2.560417 1.950628,2.355147 -0.13653,1.409753 -1.317863,1.022344 -2.18148099,1.810286 -0.615901,0.561933 -0.727231,3.307584 -0.902316,3.23755 C -0.01385399,79.76874 2.731794,79.65741 3.293727,79.041508 4.081669,78.177891 3.69426,76.996557 5.104013,76.860028 4.898743,77.325261 5.867532,79.046792 7.45916,78.810656 9.457135,78.514233 9.531163,76.703627 8.932564,75.604765 8.543301,76.63747 8.041666,76.715849 7.39439,76.372781 6.58049,75.941398 6.860336,74.351099 7.755756,73.48651"
         style="fill:#000000;stroke:#000000;stroke-width:0.1112323px;stroke-linecap:butt;stroke-linejoin:miter;stroke-opacity:1"
         id="path1737-3-5-5" />
    </g>
    <path
       id="path1154-9"
       d="m 33.712865,7.4258691 c 0.536813,0 1.07363,0.00933 1.620386,0.01865 8.111875,0.1398689 16.174044,1.3707167 23.450873,3.5806479 3.439594,8.615932 4.277395,18.944521 4.277395,29.036812 0,10.092292 -0.917329,20.877786 -4.506039,29.596289 -7.157536,2.014114 -14.851888,3.03982 -22.884234,3.03982 -0.487111,0 -0.974221,-0.0094 -1.461331,-0.01865 H 34.040918 C 25.909161,72.53957 17.846991,71.308722 10.580105,69.089467 7.1504515,60.492184 6.3123238,50.163289 6.3123238,40.061979 c 0,-10.101311 0.9176558,-20.868461 4.4864832,-29.586965 6.690308,-1.8742449 14.046665,-2.9186005 21.472608,-3.0398203 0.47717,-0.00933 0.964281,-0.00933 1.44145,-0.00933 m 0,-0.9324602 c -0.487111,0 -0.974221,0 -1.46133,0.00933 C 24.785826,6.6239532 17.270413,7.686958 10.510517,9.5798526 L 10.043289,9.710397 9.8643508,10.139328 c -3.6085914,8.811751 -4.5231655,19.514693 -4.5231655,29.922651 0,10.407958 0.8350459,20.672644 4.294522,29.353849 l 0.1689973,0.419608 0.4572874,0.13987 c 7.326533,2.237904 15.537818,3.496724 23.749103,3.636593 h 0.188879 c 0.47717,0.0094 0.96428,0.01865 1.461331,0.01865 8.111875,0 15.905636,-1.035031 23.172525,-3.077119 l 0.467228,-0.130544 0.178938,-0.428932 c 3.618533,-8.793101 4.543048,-19.496959 4.543048,-29.931975 0,-10.435016 -0.835047,-20.672644 -4.304463,-29.363174 l -0.168997,-0.419609 -0.457288,-0.13987 C 51.74588,7.9107484 43.534594,6.6519271 35.353133,6.512058 34.776554,6.502738 34.249678,6.493409 33.712865,6.493409 Z"
       style="fill:#000000;stroke:none;stroke-width:1.78642213;stroke-miterlimit:4;stroke-dasharray:none" />
    <path
       id="path1154-9-3"
       d="m 33.712865,7.4258686 c 0.536813,0 1.07363,0.00933 1.620386,0.01865 8.111875,0.1398689 16.174044,1.3707167 23.450873,3.5806484 3.439594,8.615932 4.277395,18.944521 4.277395,29.036812 0,10.092292 -0.917329,20.877786 -4.506039,29.596288 -7.157536,2.014114 -14.851888,3.03982 -22.884234,3.03982 -0.487111,0 -0.974221,-0.0094 -1.461331,-0.01865 H 34.040918 C 25.909161,72.539569 17.846991,71.308722 10.580105,69.089466 7.1504515,60.492184 6.3123238,50.163288 6.3123238,40.061979 c 0,-10.101312 0.9176558,-20.868461 4.4864832,-29.586965 6.690308,-1.8742454 14.046665,-2.918601 21.472608,-3.0398208 0.47717,-0.00933 0.964281,-0.00933 1.44145,-0.00933 m 0,-0.9324602 c -0.487111,0 -0.974221,0 -1.46133,0.00933 C 24.785826,6.6239527 17.270413,7.6869575 10.510517,9.5798521 L 10.043289,9.7103965 9.8643508,10.139328 C 6.2557594,18.951079 5.3411853,29.65402 5.3411853,40.061979 c 0,10.407958 0.8350459,20.672643 4.294522,29.353849 l 0.1689973,0.419608 0.4572874,0.13987 c 7.326533,2.237904 15.537818,3.496724 23.749103,3.636593 h 0.188879 c 0.47717,0.0094 0.96428,0.01865 1.461331,0.01865 8.111875,0 15.905636,-1.035032 23.172525,-3.077119 l 0.467228,-0.130544 0.178938,-0.428932 c 3.618533,-8.793101 4.543048,-19.49696 4.543048,-29.931975 0,-10.435016 -0.835047,-20.672644 -4.304463,-29.363175 l -0.168997,-0.419609 -0.457288,-0.13987 C 51.74588,7.9107479 43.534594,6.6519266 35.353133,6.5120575 34.776554,6.5027375 34.249678,6.4934085 33.712865,6.4934085 Z"
       style="fill:#000000;stroke:none;stroke-width:1.78642213;stroke-miterlimit:4;stroke-dasharray:none" />
  </g>
</svg>
