<svg id="Capa_2" xmlns="http://www.w3.org/2000/svg" xmlns:xlink="http://www.w3.org/1999/xlink" viewBox="0 0 69.02 80">
<defs >
<style >
.cls-1{fill:#c89aed;}.cls-2{fill:#fff;}.cls-3{fill:#f8ffbf;}.cls-4{fill:#7b7be8;}.cls-5{fill:#a88347;}.cls-6{fill:#782ab5;}.cls-7,.cls-8,.cls-9,.cls-10,.cls-11,.cls-12{fill:none;}.cls-7,.cls-8,.cls-12{stroke:#000;}.cls-7,.cls-12{stroke-miterlimit:10;}.cls-8,.cls-9{stroke-linecap:round;stroke-linejoin:round;}.cls-9{stroke:#deb778;stroke-dasharray:0 0 0 4.06;}.cls-13{fill:#deb778;}.cls-14{fill:url(#USGS_19_Inundación_de_tierra_2);}.cls-11{stroke:#1d1d1b;stroke-dasharray:0 0 2 2;stroke-width:.3px;}.cls-15{fill:#cf5f2b;}.cls-16{fill:#fcf0c5;}.cls-12{stroke-width:.5px;}.cls-17{fill:#b83521;}
</style>
<pattern id="USGS_19_Inundación_de_tierra_2" x="0" y="0" width="72" height="72" patternTransform="translate(-308.48 -16279) rotate(-90)" patternUnits="userSpaceOnUse" viewBox="0 0 72 72">
<g >
<rect class="cls-10" width="72" height="72">
</rect>
<g >
<line class="cls-11" x1="71" y1="71" x2="144.44" y2="71">
</line>
<line class="cls-11" x1="71" y1="67" x2="144.44" y2="67">
</line>
<line class="cls-11" x1="71" y1="63" x2="144.44" y2="63">
</line>
<line class="cls-11" x1="71" y1="59" x2="144.44" y2="59">
</line>
<line class="cls-11" x1="71" y1="55" x2="144.44" y2="55">
</line>
<line class="cls-11" x1="71" y1="51" x2="144.44" y2="51">
</line>
<line class="cls-11" x1="71" y1="47" x2="144.44" y2="47">
</line>
<line class="cls-11" x1="71" y1="43" x2="144.44" y2="43">
</line>
<line class="cls-11" x1="71" y1="39" x2="144.44" y2="39">
</line>
<line class="cls-11" x1="71" y1="35" x2="144.44" y2="35">
</line>
<line class="cls-11" x1="71" y1="31" x2="144.44" y2="31">
</line>
<line class="cls-11" x1="71" y1="27" x2="144.44" y2="27">
</line>
<line class="cls-11" x1="71" y1="23" x2="144.44" y2="23">
</line>
<line class="cls-11" x1="71" y1="19" x2="144.44" y2="19">
</line>
<line class="cls-11" x1="71" y1="15" x2="144.44" y2="15">
</line>
<line class="cls-11" x1="71" y1="11" x2="144.44" y2="11">
</line>
<line class="cls-11" x1="71" y1="7" x2="144.44" y2="7">
</line>
<line class="cls-11" x1="71" y1="3" x2="144.44" y2="3">
</line>
</g>
<g >
<line class="cls-11" x1="-1" y1="71" x2="72.44" y2="71">
</line>
<line class="cls-11" x1="-1" y1="67" x2="72.44" y2="67">
</line>
<line class="cls-11" x1="-1" y1="63" x2="72.44" y2="63">
</line>
<line class="cls-11" x1="-1" y1="59" x2="72.44" y2="59">
</line>
<line class="cls-11" x1="-1" y1="55" x2="72.44" y2="55">
</line>
<line class="cls-11" x1="-1" y1="51" x2="72.44" y2="51">
</line>
<line class="cls-11" x1="-1" y1="47" x2="72.44" y2="47">
</line>
<line class="cls-11" x1="-1" y1="43" x2="72.44" y2="43">
</line>
<line class="cls-11" x1="-1" y1="39" x2="72.44" y2="39">
</line>
<line class="cls-11" x1="-1" y1="35" x2="72.44" y2="35">
</line>
<line class="cls-11" x1="-1" y1="31" x2="72.44" y2="31">
</line>
<line class="cls-11" x1="-1" y1="27" x2="72.44" y2="27">
</line>
<line class="cls-11" x1="-1" y1="23" x2="72.44" y2="23">
</line>
<line class="cls-11" x1="-1" y1="19" x2="72.44" y2="19">
</line>
<line class="cls-11" x1="-1" y1="15" x2="72.44" y2="15">
</line>
<line class="cls-11" x1="-1" y1="11" x2="72.44" y2="11">
</line>
<line class="cls-11" x1="-1" y1="7" x2="72.44" y2="7">
</line>
<line class="cls-11" x1="-1" y1="3" x2="72.44" y2="3">
</line>
<line class="cls-11" x1="1.04" y1="69" x2="74.48" y2="69">
</line>
<line class="cls-11" x1="1.04" y1="65" x2="74.48" y2="65">
</line>
<line class="cls-11" x1="1.04" y1="61" x2="74.48" y2="61">
</line>
<line class="cls-11" x1="1.04" y1="57" x2="74.48" y2="57">
</line>
<line class="cls-11" x1="1.04" y1="53" x2="74.48" y2="53">
</line>
<line class="cls-11" x1="1.04" y1="49" x2="74.48" y2="49">
</line>
<line class="cls-11" x1="1.04" y1="45" x2="74.48" y2="45">
</line>
<line class="cls-11" x1="1.04" y1="41" x2="74.48" y2="41">
</line>
<line class="cls-11" x1="1.04" y1="37" x2="74.48" y2="37">
</line>
<line class="cls-11" x1="1.04" y1="33" x2="74.48" y2="33">
</line>
<line class="cls-11" x1="1.04" y1="29" x2="74.48" y2="29">
</line>
<line class="cls-11" x1="1.04" y1="25" x2="74.48" y2="25">
</line>
<line class="cls-11" x1="1.04" y1="21" x2="74.48" y2="21">
</line>
<line class="cls-11" x1="1.04" y1="17" x2="74.48" y2="17">
</line>
<line class="cls-11" x1="1.04" y1="13" x2="74.48" y2="13">
</line>
<line class="cls-11" x1="1.04" y1="9" x2="74.48" y2="9">
</line>
<line class="cls-11" x1="1.04" y1="5" x2="74.48" y2="5">
</line>
<line class="cls-11" x1="1.04" y1="1" x2="74.48" y2="1">
</line>
</g>
<g >
<line class="cls-11" x1="-73" y1="71" x2=".44" y2="71">
</line>
<line class="cls-11" x1="-73" y1="67" x2=".44" y2="67">
</line>
<line class="cls-11" x1="-73" y1="63" x2=".44" y2="63">
</line>
<line class="cls-11" x1="-73" y1="59" x2=".44" y2="59">
</line>
<line class="cls-11" x1="-73" y1="55" x2=".44" y2="55">
</line>
<line class="cls-11" x1="-73" y1="51" x2=".44" y2="51">
</line>
<line class="cls-11" x1="-73" y1="47" x2=".44" y2="47">
</line>
<line class="cls-11" x1="-73" y1="43" x2=".44" y2="43">
</line>
<line class="cls-11" x1="-73" y1="39" x2=".44" y2="39">
</line>
<line class="cls-11" x1="-73" y1="35" x2=".44" y2="35">
</line>
<line class="cls-11" x1="-73" y1="31" x2=".44" y2="31">
</line>
<line class="cls-11" x1="-73" y1="27" x2=".44" y2="27">
</line>
<line class="cls-11" x1="-73" y1="23" x2=".44" y2="23">
</line>
<line class="cls-11" x1="-73" y1="19" x2=".44" y2="19">
</line>
<line class="cls-11" x1="-73" y1="15" x2=".44" y2="15">
</line>
<line class="cls-11" x1="-73" y1="11" x2=".44" y2="11">
</line>
<line class="cls-11" x1="-73" y1="7" x2=".44" y2="7">
</line>
<line class="cls-11" x1="-73" y1="3" x2=".44" y2="3">
</line>
<line class="cls-11" x1="-70.96" y1="69" x2="2.48" y2="69">
</line>
<line class="cls-11" x1="-70.96" y1="65" x2="2.48" y2="65">
</line>
<line class="cls-11" x1="-70.96" y1="61" x2="2.48" y2="61">
</line>
<line class="cls-11" x1="-70.96" y1="57" x2="2.48" y2="57">
</line>
<line class="cls-11" x1="-70.96" y1="53" x2="2.48" y2="53">
</line>
<line class="cls-11" x1="-70.96" y1="49" x2="2.48" y2="49">
</line>
<line class="cls-11" x1="-70.96" y1="45" x2="2.48" y2="45">
</line>
<line class="cls-11" x1="-70.96" y1="41" x2="2.48" y2="41">
</line>
<line class="cls-11" x1="-70.96" y1="37" x2="2.48" y2="37">
</line>
<line class="cls-11" x1="-70.96" y1="33" x2="2.48" y2="33">
</line>
<line class="cls-11" x1="-70.96" y1="29" x2="2.48" y2="29">
</line>
<line class="cls-11" x1="-70.96" y1="25" x2="2.48" y2="25">
</line>
<line class="cls-11" x1="-70.96" y1="21" x2="2.48" y2="21">
</line>
<line class="cls-11" x1="-70.96" y1="17" x2="2.48" y2="17">
</line>
<line class="cls-11" x1="-70.96" y1="13" x2="2.48" y2="13">
</line>
<line class="cls-11" x1="-70.96" y1="9" x2="2.48" y2="9">
</line>
<line class="cls-11" x1="-70.96" y1="5" x2="2.48" y2="5">
</line>
<line class="cls-11" x1="-70.96" y1="1" x2="2.48" y2="1">
</line>
</g>
</g>
</pattern>
</defs>

  <path
     id="path7641-4"
     style="fill:#782ab5;fill-opacity:1;stroke:#4d4d4d;stroke-width:1.62226;stop-color:#000000"
     d="M 34.900259,1.6936052 C 14.323312,9.5265586 1.6299002,23.954051 1.5689773,39.580572 V 79.197446 H 67.963672 V 39.580572 C 67.958188,23.990066 55.374427,9.5708664 34.900259,1.6936052 Z"/>
  <path
     id="path7641-7"
     style="fill:#808080;stroke:#4d4d4d;stroke-width:1.48325;stop-color:#000000"
     d="M 34.629293,5.0425238 C 15.815619,12.204258 4.1542243,25.395327 4.1542243,39.682894 V 76.559207 H 64.859448 V 39.682894 c 0,-14.254531 -11.510452,-27.438125 -30.230155,-34.6403702 z m -0.01233,3.4358455 C 51.537073,14.988239 61.941622,26.904418 61.941622,39.788613 v 33.82806 H 7.07205 v -33.82806 c 0,-12.914055 10.539857,-24.836991 27.544909,-31.3102437 z"/>
  <path
     id="path7641-7-8"
     style="fill:#808080;stroke:#4d4d4d;stroke-width:1.35027;stop-color:#000000"
     d="M 34.618314,8.2461803 C 17.491429,14.76581 6.8755673,26.7742 6.8755673,39.780777 v 33.57007 H 62.138105 v -33.57007 c 0,-12.976504 -10.478452,-24.978088 -27.519791,-31.5345967 z m -0.01123,3.1277957 c 15.403093,5.926211 24.874795,16.774013 24.874795,28.503041 V 70.672134 H 9.5317874 V 39.877017 c 0,-11.75621 9.5948786,-22.610165 25.0752986,-28.503041 z"/>
  <path
     id="path7641-7-8-0"
     style="fill:#808080;stroke:#4d4d4d;stroke-width:1.21411;stop-color:#000000"
     d="M 34.607073,11.526302 C 19.207238,17.388502 9.6618637,28.185984 9.6618637,39.880997 V 70.06591 H 59.351809 V 39.880997 c 0,-11.667973 -9.421821,-22.459335 -24.744736,-28.354695 z m -0.0101,2.812393 c 13.849868,5.328621 22.366458,15.082547 22.366458,25.628837 V 67.657315 H 12.050234 V 39.967532 c 0,-10.570731 8.627346,-20.33019 22.546743,-25.628837 z"/>


<g id="Capa_10">
<g >
<path class="cls-1" d="M63.24,64.3l-2.3,9.87-21.4,3.41-26.55-3.19-6.26-3.95-.55-6.36,14.93-5.16,.21-10.53-1.64-2.31-.44-3.62s-2.09-.55-3.62-4.5c-.03-.04-.07-.08-.1-.12-.11-.12-.21-.24-.3-.36-1.76-2.17-2.83-4.39-3.32-5.57-.23-.54-.34-.86-.34-.86,0,0,4.94-12.4,6.03-14.16,1.1-1.75,6.37-10.53,16.35-7.68,8.45-1.86,12.62,1.65,16.35,7.68,3.73,6.26,6.37,14.38,6.37,14.38,0,0-2.22,5.06-4.16,6.39-.04,.03-.08,.06-.12,.08-.55,2.97-3.4,4.94-3.4,4.94l-.66,3.51-1.65,2.2,.33,10.86,16.24,5.05Z">
</path>
<path class="cls-17" d="M56.66,31.27s-2.22,5.06-4.16,6.39l.21-2.67-3.07,1.75-1.55-6.42s-2.37-.39-3.88-4.06c-1.5-3.68-6.2-6.21-10.3-3.38-3.01-1.68-6.26-1.08-8.13,.85-2.47,3.97-4.4,6.44-5.66,6.74-.97,3.32-1.69,8.02-1.69,8.02l-2.91-.65-.1-.02-.2-.34-3.32-5.57c-.23-.54-.34-.86-.34-.86,0,0,4.94-12.4,6.03-14.16,1.1-1.75,6.37-10.53,16.35-7.68,8.45-1.86,12.62,1.65,16.35,7.68,3.73,6.26,6.37,14.38,6.37,14.38Z">
</path>
<polygon class="cls-4" points="32.22 31.29 31.08 37.84 23.93 36.8 21.72 33.58 26.26 31.16 32.22 31.29">
</polygon>
<path class="cls-2" d="M33.99,57.9V23.27s2.52-1.74,4-1.57,4.18,.96,5.22,2.87,3.39,5.22,4.87,5.74c1.83,5.39,1.65,7.13,1.65,7.13l-1.74,9.05-8.85,10.65-5.15,.75Z">
</path>
<polygon class="cls-4" points="35.81 31.29 36.95 37.84 44.1 36.8 46.31 33.68 45.41 32.86 41.76 31.16 35.81 31.29">
</polygon>
<path d="M46.67,48.39l-15.59,26.99-20.99-1.88-2.21-10.05,13.23-4.53,.22-10.53,7.77,9.21s5.86,1.1,10.05-.44c3.43-4.31,7.53-8.76,7.53-8.76Z">
</path>
<path class="cls-3" d="M36.8,37.84l.69-2.32,4.7-.26,1.74,1.69s-3.75,2.17-7.13,.9Z">
</path>
<path class="cls-3" d="M31.08,37.84l-.69-2.32-4.7-.26-1.74,1.69s3.75,2.17,7.13,.9Z">
</path>
<path d="M15.54,34.77s-.1,6.02,3.57,7.82c-.82-4.42-.75-5.96-.75-5.96l-2.82-1.87Z">
</path>
<path class="cls-2" d="M23.99,39.16c1.1,.31,2.71,.69,4.2,.75,.56,.03,.77,.75,.32,1.08-1.57,1.2-2.55,1.71-3.09,1.94-.29,.12-.61,0-.75-.28l-1.38-2.63c-.25-.47,.19-1,.7-.86Z">
</path>
<path class="cls-15" d="M39.83,22s0-4.19,3.33-4.38,4-3.9,3.14-5.52c4.57,4.57,5.62,7.62,6.47,9.9-2.57-1.81-5.71-2.09-6.09-.19-2.28-.67-3.9,.95-4.09,2.19-1.52-1.14-2.76-2-2.76-2Z">
</path>
<path d="M25.95,17.14s-6.9-.42-4.99-4.41c-4.99,5.82-5.9,10.81-7.15,13.06s-2.58,5.82-2.58,5.82l3.99,5.49,.08-2.58,3.05,2.12,1.76-6.17-1.16-.2s1.41-3.24,1.5-5.32,.67-7.57,5.49-7.82Z">
</path>
<path d="M47,59.25s-4.2,11.86-12.73,15.25c11.83,2.96,25.49-1.91,25.49-1.91l1.04-8.96-13.8-4.38Z">
</path>
<path class="cls-15" d="M31.75,16.68s-2.87-1.4-6.28-.85c2.72-1.63,3.96-6.05,2.33-6.52,2.56-.54,4.03-.23,4.03-.23,0,0,1.24,3.1-.08,7.6Z">
</path>
<path class="cls-1" d="M30.49,23.2c.95,0,1.82,.32,2.6,.96,.27,.22,.61,.34,.95,.34s.69-.12,.95-.34c.78-.64,1.66-.96,2.61-.96,1.68,0,3.23,1,4.04,1.85,.45,.48,.93,1.28,1.4,2.07,.92,1.53,2.04,3.41,3.85,4.33,.38,1.17,1.44,4.71,1.14,6.89-.37,2.58-.97,6.18-1.14,7.17l-8.63,10.45c-1.63,.42-3.17,.65-4.57,.69-.08,0-.16,0-.23,0-1.35,0-2.57-.27-3.43-.54l-8.77-10.6c-.17-1-.78-4.62-1.13-7.17-.31-2.16,.74-5.68,1.13-6.91,1.78-.93,2.9-2.79,3.83-4.33,.46-.77,.93-1.57,1.38-2.05,.81-.85,2.36-1.85,4.04-1.85m7.11-1c-1.08,0-2.19,.34-3.24,1.19-.09,.07-.2,.11-.31,.11s-.23-.04-.32-.11c-1.04-.85-2.16-1.19-3.24-1.19-1.92,0-3.72,1.07-4.76,2.16-.52,.55-1.01,1.37-1.52,2.23-.94,1.56-2.04,3.4-3.78,4.12-.1,.29-1.71,4.95-1.31,7.77,.38,2.73,1.05,6.7,1.18,7.46l9.13,11.03c.98,.32,2.41,.67,4.01,.67,.08,0,.17,0,.26,0,1.98-.05,3.85-.46,5.11-.8l9.01-10.9c.13-.76,.8-4.73,1.19-7.46,.38-2.77-1.16-7.32-1.32-7.76-1.76-.7-2.87-2.56-3.81-4.13-.51-.86-1-1.68-1.52-2.23-1.04-1.09-2.84-2.16-4.76-2.16h0Z">
</path>
<path class="cls-8" d="M36.53,18.29s4.15-2.58,8.12,0,2.49,10.7,5.17,12.18c-3.97,.55-5.17-4.43-7.1-6.46s-5.63-3.51-8.67-1.01c-3.04-2.49-6.74-1.01-8.67,1.01s-3.14,7.01-7.1,6.46c2.68-1.48,1.2-9.6,5.17-12.18s8.12,0,8.12,0">
</path>
<path d="M13.5,31.86c1.25,1.95,3.11,3.36,5.19,4.31,.24,.13,.34,.43,.21,.68-.11,.22-.37,.32-.59,.24-.6-.19-1.17-.45-1.69-.8-1.52-1.03-2.73-2.65-3.11-4.43h0Z">
</path>
<path class="cls-8" d="M15.35,34.71s0,6.4,3.98,8.32">
</path>
<path class="cls-8" d="M52.47,38.08s1.93-1.81,4.08-6.9c-1.81-3.62-3.85-13.25-9.85-18.79-5.5-5.09-11.67-3.51-12.65-3.21h0c-.97-.29-7.15-1.89-12.66,3.21-6,5.54-8.04,15.17-9.85,18.79,2.15,5.09,4.07,6.9,4.07,6.9">
</path>
<path d="M54.59,31.86c-.53,2.38-2.45,4.51-4.8,5.23-.57,.18-.91-.65-.38-.92,2.08-.95,3.94-2.36,5.19-4.32h0Z">
</path>
<path class="cls-8" d="M52.74,34.71s.27,6.34-3.72,8.26">
</path>
<path class="cls-8" d="M19.97,30.51s-1.78,4.98-1.35,8.04,1.21,7.61,1.21,7.61l9.31,11.24c1.29,.44,2.88,.78,4.57,.74,1.96-.05,3.88-.44,5.37-.86h.01l9.2-11.12s.78-4.55,1.21-7.61-1.35-8.04-1.35-8.04">
</path>
<path d="M20.51,39.73c1.11,1.36,1.87,2.98,2.98,4.18,.53,1.13,.53,2.51,.58,3.76-.03,.32,0,1.12-.16,1.22-.02,0-.03-.02-.04-.04l-1.15-4.35c-1.12-1.08-1.85-3.11-2.3-4.75-.01-.06,.07-.08,.1-.02h0Z">
</path>
<path d="M47.54,39.75c.21,1.95-.38,3.96-1.78,5.36,0,0,.24-.4,.24-.4-.41,1.47-1,2.92-1.93,4.16-.03,.04-.1,0-.08-.04,0,0,1.06-4.38,1.06-4.38,1.21-1.3,1.89-3.03,2.39-4.72,.02-.06,.1-.04,.1,.02h0Z">
</path>
<polygon points="34.15 47.97 35.67 47.54 39.96 49.12 34.98 49.12 34.12 49.59 33.97 49.59 33.11 49.12 28.13 49.12 32.42 47.54 33.94 47.97 34.15 47.97">
</polygon>
<path d="M30.25,50.45c2.24,1.36,5.21,1.44,7.44,.03,0,0,.05,.08,.05,.08-1.18,1.96-3.98,2.42-5.93,1.42-.65-.33-1.24-.79-1.62-1.45l.06-.08h0Z">
</path>
<path d="M36.89,40.49c.48,.91,.88,1.83,1.28,2.77-.56,1.71-2.5,2.48-4.11,2.36-1.56,.11-3.46-.59-4.06-2.23-.04-.12-.08-.1,0-.23,.38-.9,.77-1.79,1.24-2.66-.15,.98-.36,1.93-.59,2.88v-.23c.3,.53,.85,.98,1.44,1.21,1.73,.53,4.38,.54,5.41-1.21,0,0,0,.23,0,.23-.23-.95-.44-1.9-.59-2.88h0Z">
</path>
<path d="M31.35,43.02c.82,.39,1.62,.9,2.27,1.69l-.87,.49c-.24-.76-.77-1.53-1.39-2.17,0,0,.63,.65,0,0Z">
</path>
<path d="M36.76,43.02c-.63,.65-1.15,1.41-1.39,2.17l-.87-.49c.65-.79,1.44-1.3,2.27-1.69,0,0-.82,.39,0,0Z">
</path>
<path d="M27.05,26.62c4.45-.21,9.14,.06,13.57-.04-1.87,.69-4.59,.7-6.78,.74-2.19-.11-4.88-.15-6.79-.7h0Z">
</path>
<path d="M21.72,33.68s1.6-2.79,4.52-3.67c4.08-.14,6.16,.82,6.16,.82,0,0-.27,1.36-1.16,1.77-2.62,.07-5.31-.75-5.31-.75,0,0-2.65,.65-4.22,1.84Z">
</path>
<path d="M46.31,33.68s-1.6-2.79-4.52-3.67c-4.08-.14-6.16,.82-6.16,.82,0,0,.27,1.36,1.16,1.77,2.62,.07,5.31-.75,5.31-.75,0,0,2.65,.65,4.22,1.84Z">
</path>
<path d="M31.23,37.9c-.38-.79-.73-1.6-1.05-2.41l.27,.21c-1.61,.07-3.22,.07-4.82,.01l.24-.06c-.58,.34-1.2,.79-1.49,1.37,0,0-.12-.46-.12-.46,.98,.87,2.45,1.24,3.74,1.48,.47,.08,.95,.13,1.44,.19-.48,.1-.97,.16-1.46,.18-1.63,.07-3.31-.23-4.59-1.37,0,0,.09-.29,.09-.29,.36-.98,1.18-1.57,2.04-2.04,1.66,.06,3.32,.19,4.97,.38l.23,.03c.2,.91,.38,1.83,.52,2.77h0Z">
</path>
<path d="M36.77,37.9c.14-.93,.31-1.85,.52-2.77l.23-.03c1.65-.19,3.31-.32,4.97-.38,.86,.47,1.68,1.07,2.04,2.04,0,0,.09,.29,.09,.29-1.28,1.14-2.96,1.43-4.59,1.37-.49-.03-.98-.08-1.46-.18,.49-.06,.97-.1,1.44-.19,1.29-.25,2.76-.62,3.74-1.48,0,0-.12,.46-.12,.46-.03-.06-.13-.24-.23-.36-.34-.42-.79-.73-1.26-1.01l.24,.06c-1.61,.06-3.21,.05-4.82-.01l.27-.21c-.32,.81-.67,1.61-1.05,2.41h0Z">
</path>
<polyline class="cls-7" points="21.28 47.77 21.28 58.86 6.86 63.88">
</polyline>
<polyline class="cls-7" points="46.73 47.77 46.73 58.86 61.15 63.88">
</polyline>
<path class="cls-7" d="M21.28,58.86s2.81,12.98,15.66,17.37">
</path>
<path class="cls-7" d="M46.8,58.58s-2.81,12.98-15.66,17.37">
</path>
<path class="cls-12" d="M15.23,61.2s1.73,8.56,6.72,13.11">
</path>
<path class="cls-12" d="M53.01,61.2s-1.73,8.56-6.72,13.11">
</path>
<path class="cls-1" d="M10.29,63.68c3.92-1.34,8.42-3.18,12.07-4.26,0,0,.04-7.4,.04-7.4h.1c.51,2.63,.72,5.3,.81,7.97-4.16,1.55-8.7,3.35-13.02,3.69h0Z">
</path>
<path class="cls-2" d="M45.3,52.61l-11.01,19.54s7.55-3.46,11.19-13.15l-.18-6.39Z">
</path>
</g>
</g>
  <g
     id="g20645">
    <path
       style="fill:#808080;stroke:#4d4d4d;stroke-width:0.937908;stop-color:#000000;fill-opacity:1"
       d="m 9.541565,65.883425 a 5.4759801,5.4759801 0 0 1 5.47598,5.475981 5.4759801,5.4759801 0 0 1 -5.47598,5.47598 5.4759801,5.4759801 0 0 1 -5.4759806,-5.47598 5.4759801,5.4759801 0 0 1 5.4759806,-5.475981 z"/>
    <path
       style="fill:#808080;stroke:#4d4d4d;stroke-width:0.937908;stop-color:#000000;fill-opacity:1"
       d="m 59.472108,65.883425 a 5.4759801,5.4759801 0 0 1 5.47598,5.475981 5.4759801,5.4759801 0 0 1 -5.47598,5.47598 5.4759801,5.4759801 0 0 1 -5.475981,-5.47598 5.4759801,5.4759801 0 0 1 5.475981,-5.475981 z"/>
    <path
       id="path7641"
       style="fill:#808080;stroke:#4d4d4d;stroke-width:1.64416;stop-color:#000000"
       d="M 34.642578,1.1660156 C 13.787845,9.1047124 0.86132813,23.726855 0.86132812,39.564453 V 79.340489 H 68.152344 V 39.564453 c 0,-15.800978 -12.759199,-30.4148342 -33.509766,-38.3984374 z m -0.01367,3.8085938 C 53.384648,12.190722 64.917969,25.399665 64.917969,39.681641 v 26.507812 c -1.368656,-1.44106 -3.300993,-2.341797 -5.445313,-2.341797 -4.14856,0 -7.511718,3.363159 -7.511718,7.511719 0,2.347008 1.075662,4.442843 2.761718,5.820313 H 14.269531 c 1.756069,-1.422629 2.778281,-3.560307 2.783203,-5.820313 4.8e-5,-4.148627 -3.363091,-7.511766 -7.5117184,-7.511719 -2.0622939,0.0062 -4.0313164,0.860092 -5.4453125,2.361328 V 39.681641 c 0,-14.315076 11.6833059,-27.531508 30.5332029,-34.7070316 z"/>
    <circle
       style="fill:#4d4d4d;fill-opacity:1;stroke:#4d4d4d;stop-color:#000000"
       id="path16431"
       cx="9.6010828"
       cy="71.229652"
       r="5.06003" />
    <circle
       style="fill:#4d4d4d;fill-opacity:1;stroke:#4d4d4d;stop-color:#000000"
       id="path16431-3"
       cx="59.42292"
       cy="71.229652"
       r="5.06003" />
  </g>
</svg>
