<?xml version="1.0" encoding="UTF-8"?><svg id="Capa_2" xmlns="http://www.w3.org/2000/svg" xmlns:xlink="http://www.w3.org/1999/xlink" viewBox="0 0 69.02 80"><defs><style>.cls-1{fill:#c89aed;}.cls-2{fill:#fff;}.cls-3{fill:#f8ffbf;}.cls-4{fill:#7b7be8;}.cls-5{fill:#a88347;}.cls-6{fill:#782ab5;}.cls-7,.cls-8,.cls-9,.cls-10,.cls-11,.cls-12,.cls-13{fill:none;}.cls-7,.cls-8,.cls-9,.cls-13{stroke-miterlimit:10;}.cls-7,.cls-9,.cls-13{stroke:#000;}.cls-8{stroke:#c89aed;stroke-width:2px;}.cls-8,.cls-10{stroke-linecap:round;}.cls-9{stroke-width:.75px;}.cls-10{stroke:#deb778;stroke-dasharray:0 0 0 4.06;stroke-linejoin:round;}.cls-14{fill:#deb778;}.cls-15{fill:url(#USGS_19_Inundación_de_tierra_2);}.cls-12{stroke:#1d1d1b;stroke-dasharray:0 0 2 2;stroke-width:.3px;}.cls-16{fill:#fcf0c5;}.cls-13{stroke-width:.5px;}</style><pattern id="USGS_19_Inundación_de_tierra_2" x="0" y="0" width="72" height="72" patternTransform="translate(339.52 -16351) rotate(-90)" patternUnits="userSpaceOnUse" viewBox="0 0 72 72"><g><rect class="cls-11" width="72" height="72"/><g><line class="cls-12" x1="71" y1="71" x2="144.44" y2="71"/><line class="cls-12" x1="71" y1="67" x2="144.44" y2="67"/><line class="cls-12" x1="71" y1="63" x2="144.44" y2="63"/><line class="cls-12" x1="71" y1="59" x2="144.44" y2="59"/><line class="cls-12" x1="71" y1="55" x2="144.44" y2="55"/><line class="cls-12" x1="71" y1="51" x2="144.44" y2="51"/><line class="cls-12" x1="71" y1="47" x2="144.44" y2="47"/><line class="cls-12" x1="71" y1="43" x2="144.44" y2="43"/><line class="cls-12" x1="71" y1="39" x2="144.44" y2="39"/><line class="cls-12" x1="71" y1="35" x2="144.44" y2="35"/><line class="cls-12" x1="71" y1="31" x2="144.44" y2="31"/><line class="cls-12" x1="71" y1="27" x2="144.44" y2="27"/><line class="cls-12" x1="71" y1="23" x2="144.44" y2="23"/><line class="cls-12" x1="71" y1="19" x2="144.44" y2="19"/><line class="cls-12" x1="71" y1="15" x2="144.44" y2="15"/><line class="cls-12" x1="71" y1="11" x2="144.44" y2="11"/><line class="cls-12" x1="71" y1="7" x2="144.44" y2="7"/><line class="cls-12" x1="71" y1="3" x2="144.44" y2="3"/></g><g><line class="cls-12" x1="-1" y1="71" x2="72.44" y2="71"/><line class="cls-12" x1="-1" y1="67" x2="72.44" y2="67"/><line class="cls-12" x1="-1" y1="63" x2="72.44" y2="63"/><line class="cls-12" x1="-1" y1="59" x2="72.44" y2="59"/><line class="cls-12" x1="-1" y1="55" x2="72.44" y2="55"/><line class="cls-12" x1="-1" y1="51" x2="72.44" y2="51"/><line class="cls-12" x1="-1" y1="47" x2="72.44" y2="47"/><line class="cls-12" x1="-1" y1="43" x2="72.44" y2="43"/><line class="cls-12" x1="-1" y1="39" x2="72.44" y2="39"/><line class="cls-12" x1="-1" y1="35" x2="72.44" y2="35"/><line class="cls-12" x1="-1" y1="31" x2="72.44" y2="31"/><line class="cls-12" x1="-1" y1="27" x2="72.44" y2="27"/><line class="cls-12" x1="-1" y1="23" x2="72.44" y2="23"/><line class="cls-12" x1="-1" y1="19" x2="72.44" y2="19"/><line class="cls-12" x1="-1" y1="15" x2="72.44" y2="15"/><line class="cls-12" x1="-1" y1="11" x2="72.44" y2="11"/><line class="cls-12" x1="-1" y1="7" x2="72.44" y2="7"/><line class="cls-12" x1="-1" y1="3" x2="72.44" y2="3"/><line class="cls-12" x1="1.04" y1="69" x2="74.48" y2="69"/><line class="cls-12" x1="1.04" y1="65" x2="74.48" y2="65"/><line class="cls-12" x1="1.04" y1="61" x2="74.48" y2="61"/><line class="cls-12" x1="1.04" y1="57" x2="74.48" y2="57"/><line class="cls-12" x1="1.04" y1="53" x2="74.48" y2="53"/><line class="cls-12" x1="1.04" y1="49" x2="74.48" y2="49"/><line class="cls-12" x1="1.04" y1="45" x2="74.48" y2="45"/><line class="cls-12" x1="1.04" y1="41" x2="74.48" y2="41"/><line class="cls-12" x1="1.04" y1="37" x2="74.48" y2="37"/><line class="cls-12" x1="1.04" y1="33" x2="74.48" y2="33"/><line class="cls-12" x1="1.04" y1="29" x2="74.48" y2="29"/><line class="cls-12" x1="1.04" y1="25" x2="74.48" y2="25"/><line class="cls-12" x1="1.04" y1="21" x2="74.48" y2="21"/><line class="cls-12" x1="1.04" y1="17" x2="74.48" y2="17"/><line class="cls-12" x1="1.04" y1="13" x2="74.48" y2="13"/><line class="cls-12" x1="1.04" y1="9" x2="74.48" y2="9"/><line class="cls-12" x1="1.04" y1="5" x2="74.48" y2="5"/><line class="cls-12" x1="1.04" y1="1" x2="74.48" y2="1"/></g><g><line class="cls-12" x1="-73" y1="71" x2=".44" y2="71"/><line class="cls-12" x1="-73" y1="67" x2=".44" y2="67"/><line class="cls-12" x1="-73" y1="63" x2=".44" y2="63"/><line class="cls-12" x1="-73" y1="59" x2=".44" y2="59"/><line class="cls-12" x1="-73" y1="55" x2=".44" y2="55"/><line class="cls-12" x1="-73" y1="51" x2=".44" y2="51"/><line class="cls-12" x1="-73" y1="47" x2=".44" y2="47"/><line class="cls-12" x1="-73" y1="43" x2=".44" y2="43"/><line class="cls-12" x1="-73" y1="39" x2=".44" y2="39"/><line class="cls-12" x1="-73" y1="35" x2=".44" y2="35"/><line class="cls-12" x1="-73" y1="31" x2=".44" y2="31"/><line class="cls-12" x1="-73" y1="27" x2=".44" y2="27"/><line class="cls-12" x1="-73" y1="23" x2=".44" y2="23"/><line class="cls-12" x1="-73" y1="19" x2=".44" y2="19"/><line class="cls-12" x1="-73" y1="15" x2=".44" y2="15"/><line class="cls-12" x1="-73" y1="11" x2=".44" y2="11"/><line class="cls-12" x1="-73" y1="7" x2=".44" y2="7"/><line class="cls-12" x1="-73" y1="3" x2=".44" y2="3"/><line class="cls-12" x1="-70.96" y1="69" x2="2.48" y2="69"/><line class="cls-12" x1="-70.96" y1="65" x2="2.48" y2="65"/><line class="cls-12" x1="-70.96" y1="61" x2="2.48" y2="61"/><line class="cls-12" x1="-70.96" y1="57" x2="2.48" y2="57"/><line class="cls-12" x1="-70.96" y1="53" x2="2.48" y2="53"/><line class="cls-12" x1="-70.96" y1="49" x2="2.48" y2="49"/><line class="cls-12" x1="-70.96" y1="45" x2="2.48" y2="45"/><line class="cls-12" x1="-70.96" y1="41" x2="2.48" y2="41"/><line class="cls-12" x1="-70.96" y1="37" x2="2.48" y2="37"/><line class="cls-12" x1="-70.96" y1="33" x2="2.48" y2="33"/><line class="cls-12" x1="-70.96" y1="29" x2="2.48" y2="29"/><line class="cls-12" x1="-70.96" y1="25" x2="2.48" y2="25"/><line class="cls-12" x1="-70.96" y1="21" x2="2.48" y2="21"/><line class="cls-12" x1="-70.96" y1="17" x2="2.48" y2="17"/><line class="cls-12" x1="-70.96" y1="13" x2="2.48" y2="13"/><line class="cls-12" x1="-70.96" y1="9" x2="2.48" y2="9"/><line class="cls-12" x1="-70.96" y1="5" x2="2.48" y2="5"/><line class="cls-12" x1="-70.96" y1="1" x2="2.48" y2="1"/></g></g></pattern></defs><g id="BG"><g><path class="cls-6" d="M64.02,40c0,11.47-1.89,22.39-5.5,31.74-7.2,2.16-14.94,3.26-23.02,3.26-.49,0-.98-.01-1.47-.02h-.17c-8.18-.15-16.29-1.47-23.6-3.85-3.45-9.22-5.26-19.93-5.26-31.13s1.89-22.38,5.48-31.73c6.73-2.01,14.13-3.13,21.6-3.26,.48-.01,.97-.01,1.45-.01,.54,0,1.08,.01,1.63,.02,8.16,.15,16.27,1.47,23.59,3.84,3.46,9.24,5.27,19.95,5.27,31.14Z"/><path class="cls-15" d="M34.03,5.59V74.98h-.17c-8.18-.15-16.29-1.47-23.6-3.85-3.45-9.22-5.26-19.93-5.26-31.13s1.89-22.38,5.48-31.73c6.73-2.01,14.13-3.13,21.6-3.26,.65,.16,1.3,.36,1.95,.58Z"/></g></g><g id="Capa_9"><g><path class="cls-1" d="M7.04,59.42s4.14-14.68,4.83-20.89,4.83-23.16,6.7-25.62c4.14-3.65,21.78-8.08,33.41-.1,5.32,13.21,5.91,26.12,7.79,34.49s4.43,14.88,4.43,14.88l-4.93,11.04s-10.35,5.03-20.99,4.04-29.07-4.83-29.07-4.83l-2.17-13.01Z"/><path class="cls-1" d="M54.33,43.74c-.97,3.34-4.15,4.81-4.15,4.81l-.9,6.59-1.06,1.74-.32,.54-.08,3.83s-4.32,5.38-10.92,6.03c-.97,3.34-2.03,7.41-2.03,7.41l-1.87-7.25s-7.74-1.46-11.08-6.19c-.25-3.34-.08-4.07-.08-4.07l-1.39-2.44-.65-6.28s-3.09-.48-4.23-4.8c-1.14-4.32-.09-8.39-.09-8.39l4.24,3.34-.08-5.78s5.37-3.42,15.15-3.34h.15c9.68,.11,15.24,3.26,15.24,3.26l.41,6.19,3.74-4.08s.98,5.54,0,8.88Z"/><path class="cls-4" d="M31.94,38.09l.55,2.88s-2.57,4.13-4.91,5.45c-3.27,.47-5.14-3.58-5.45-4.83-.08-1.71-.47-3.11-.47-3.11l3.43-1.48,6.85,1.09Z"/><path class="cls-2" d="M50.18,48.55l-.9,6.59-1.06,1.74-.13,.03-13.15,8.87V29.49c9.68,.11,15.24,3.26,15.24,3.26l.41,6.19-.41,9.61Z"/><path class="cls-4" d="M37.85,38.09l-.55,2.88s2.99,4.23,5.33,5.55c2.75,.36,4.63-3.21,4.94-4.46,.08-1.71,.56-3.59,.56-3.59l-3.43-1.48-6.85,1.09Z"/><path class="cls-3" d="M38.65,41.49l7.65,.33s-.75,1.6-3.43,2.35c-2.72-1.08-4.22-2.68-4.22-2.68Z"/><path class="cls-3" d="M31.29,41.49l-7.65,.33s.75,1.6,3.43,2.35c2.72-1.08,4.22-2.68,4.22-2.68Z"/><path class="cls-4" d="M45.71,50.45c-1.44,3.97-1.86,5.06-1.86,5.06l-2.27-4.85-2.88-1.49-3.48,2.41-.26,.15-.26-.15-3.48-2.41-2.89,1.49-2.27,4.85s-.41-1.09-1.85-5.06c-3.25-3.04-4.79-8.81-4.79-8.81,0,0,.05,10.67,1.08,12.94,1.03,2.27,4.84,6.54,8.61,9.17,2.34,1.64,4.53,1.94,5.84,1.93h.02c1.31,.01,3.5-.29,5.84-1.93,3.76-2.63,7.58-6.9,8.61-9.17,1.03-2.27,1.08-12.94,1.08-12.94,0,0-1.54,5.77-4.79,8.81Zm-6.61,5.82h-8.4l-.85-1.38,2.89-1.54,2.16,.69,1.85-.62,3.19,1.47-.84,1.38Z"/><path d="M18.47,13.11s-4.03,11.76-6.11,21.71-5.58,27.12-5.58,27.12l.87,2.73s10.7-4.99,13.98-5.43c.51-1.93,.01-2.77,.01-2.77l-1.64-2.62-.22-10.17s-.22-12.14,.11-15.64-1.44-14.93-1.44-14.93Z"/><path class="cls-4" d="M19.37,38.57l-3.89-3.3s-.78,7.1,.53,9.79c1.53,2.84,3.79,3.4,3.79,3.4l-.43-9.89Z"/><path class="cls-1" d="M20.02,32.35c.1-.3,17.49-6.92,30.16,.4l.03,5.51,4.12-3.4s2.8,11.23-4.02,14.03c-.5,4.21-1.03,6.25-1.03,6.25l-1.06,1.74-.42,1.94s12.23,5.01,13.84,6.42c2.21-2.91,.6-8.32,.6-8.32,0,0-3.11-10.73-3.81-17.55s-3.77-23.65-6.45-26.56c-9.6-4.92-23.84-5.82-33.36-.21,.8,9.73,1.4,19.75,1.4,19.75Z"/><path class="cls-2" d="M34.94,29.49V8.62s12.96,1.23,17.04,4.18c-1.7,9.55-1.97,19.67-1.97,19.67,0,0-6.56-3.09-15.08-2.99Z"/><path class="cls-2" d="M47.82,61.25s-2.33,4.6-10.92,6.03c-1.22,3.88-2.5,8.6-2.5,8.6l22.29-.1,5.7-9.82-2.26-2.06s-11.21-4.55-12.14-4.48c.17,1.55-.17,1.84-.17,1.84Z"/><path d="M8.95,65.91s6.74-4.16,12.94-5.33c.47,4.55,2.67,14.27,2.67,14.27l-15.34-2.42-.26-6.52Z"/><path d="M42.93,62.87l-15.02,13.25-7.31-.96,1.24-17.98s3.82,4.57,5.19,5.37,6.99,5.3,15.9,.32Z"/><path class="cls-4" d="M21.26,31.75s-.41-15.05-1.43-19.66c2.35-1.13,8.91-2.46,10.54-2.87V29.29s-6.14,1.43-9.11,2.46Z"/><path class="cls-8" d="M33.78,29.48s11.13-.38,16.36,3.63c-.08,11.44-.41,20.65-1.55,22.24s-5.59,9.66-12.68,9.15"/><path class="cls-2" d="M24.2,46.84s2.92,1.77,5.31-.36c-2.97,3.96-4.32,2.86-5.31,.36Z"/><path class="cls-7" d="M6.97,60.16s1.62-3.73,4.58-20.82c2.96-17.1,6.78-26.65,6.78-26.65,0,0,15.19-9.17,33.62,.1,5.06,10.32,6.78,35.72,10.98,46.9"/><path class="cls-7" d="M51.62,12.68s-1.47,11.56-1.37,20.64c.21,9.69,.1,20.1-1.12,21.84-1.09,1.53-5.9,10.36-14.14,10.36s-13.08-8.83-14.17-10.36c-1.22-1.74-1.32-12.15-1.12-21.84,.1-9.08-1.37-20.64-1.37-20.64"/><path class="cls-13" d="M19.7,32.68s5-3.29,15.13-3.29,15.25,3.36,15.25,3.36"/><path class="cls-7" d="M19.7,38.87l-4.07-4.12s-1.15,6.32,.22,9.84,3.96,3.9,3.96,3.9"/><path class="cls-7" d="M50.32,38.87l4.07-4.12s1.15,6.32-.22,9.84-3.96,3.9-3.96,3.9"/><path class="cls-9" d="M23.52,41.71l8.29-.18s-1.52,1.66-4.88,2.64c-2.51-.76-3.41-2.46-3.41-2.46Z"/><path d="M24.3,45.19c.61,.64,1.41,1.12,2.25,1.24,.88,.22,1.54-.49,2.15-1.08,1.19-1.28,2.22-2.73,3.24-4.16l.42,.27c-1.37,1.93-2.81,4.41-5.15,5.25-1.17,.07-2.25-.65-2.91-1.53h0Z"/><path class="cls-9" d="M46.51,41.71l-8.29-.18s1.52,1.66,4.88,2.64c2.51-.76,3.41-2.46,3.41-2.46Z"/><path d="M45.73,45.19c-.67,.88-1.74,1.6-2.91,1.53-2.31-.82-3.79-3.34-5.15-5.25,0,0,.42-.27,.42-.27,1.02,1.43,2.05,2.88,3.24,4.16,.61,.59,1.27,1.3,2.15,1.08,.85-.13,1.64-.6,2.25-1.24h0Z"/><path d="M32.3,37.04c-.12,.67-.3,1.37-.58,1.99-.09,.01-.18,.02-.27,.03-2.88-.22-5.47-1.63-6.71-1.57-2.25,.54-3.07,1.06-3.19,1.13,.17-.24,1.62-2.15,4.63-2.7,2.38,.19,4.63,.71,6.12,1.12Z"/><path d="M48.22,38.62c-.12-.07-.93-.59-3.19-1.13-1.24-.06-3.83,1.35-6.71,1.57-.13-.01-.26-.03-.38-.04-.27-.61-.46-1.29-.57-1.95,1.49-.42,3.79-.96,6.22-1.15,3.01,.55,4.46,2.46,4.63,2.7Z"/><path d="M37.44,44.2c.59,1.47,1.17,2.99,1.99,4.33-1.21,1.59-2.8,2.85-4.52,3.84-1.73-.98-3.32-2.25-4.53-3.84l.13-.21c.74-1.26,1.31-2.7,1.88-4.12-.22,1.54-.55,3.05-1.22,4.48,0,0-.05-.43-.05-.43,1.2,1.21,2.57,2.26,4.05,3.1h-.5c1.48-.85,2.84-1.89,4.04-3.1l-.05,.43c-.67-1.43-.99-2.94-1.21-4.48h0Z"/><path d="M41.79,55.99c-1.41-.62-3.47-1.69-4.9-2.12,0,0,.19,.02,.19,.02-.72,.15-1.45,.26-2.17,.4-.72-.13-1.43-.25-2.15-.4l.19-.02c-.8,.24-1.62,.61-2.44,.98l-2.47,1.14c1.42-1.25,2.91-2.36,4.72-3.03,.75,.09,1.5,.22,2.25,.34,0,0-.2,0-.2,0,.76-.11,1.51-.24,2.27-.33,1.8,.68,3.29,1.79,4.71,3.03h0Z"/><path class="cls-9" d="M39.97,54.93s-.5,.99-.87,1.32c-1.53,.17-3.96,.17-3.96,.17h-.52s-2.42,0-3.96-.17c-.37-.33-.87-1.32-.87-1.32"/><path class="cls-9" d="M21.71,56.91s.17,6.34,1.27,11.4,1.61,6.91,1.61,6.91"/><path class="cls-9" d="M48.09,56.91s-.17,6.34-1.27,11.4-1.61,6.91-1.61,6.91"/><path class="cls-13" d="M21.76,60.37s1.84,5.3,11.17,7.03c.98,3.69,2.36,8.29,2.36,8.29"/><path class="cls-13" d="M47.97,60.37s-1.84,5.3-11.17,7.03c-.98,3.69-2.36,8.29-2.36,8.29"/><path class="cls-9" d="M21.65,59.24s-6.74,1.94-13.66,5.67"/><path class="cls-9" d="M47.85,59.24s6.74,1.94,13.66,5.67"/><path class="cls-13" d="M14.3,62.02s-2.39,4.88,.31,11.06"/><path class="cls-13" d="M55.72,62.02s2.39,4.88-.31,11.06"/></g></g><g id="Frame"><path class="cls-5" d="M62.56,4.88C54.4,1.94,45.12,.2,35.25,.02c-.57-.01-1.15-.02-1.72-.02C23.88,0,14.77,1.52,6.72,4.21,2.49,14.22,0,26.6,0,40s2.39,25.22,6.45,35.11c8.16,2.94,17.45,4.69,27.32,4.87,.58,.01,1.15,.02,1.73,.02,9.63,0,18.73-1.51,26.78-4.2,4.24-10.01,6.74-22.39,6.74-35.8s-2.4-25.24-6.46-35.12Zm-4.04,66.86c-7.2,2.16-14.94,3.26-23.02,3.26-.49,0-.98-.01-1.47-.02h-.17c-8.18-.15-16.29-1.47-23.6-3.85-3.45-9.22-5.26-19.93-5.26-31.13s1.89-22.38,5.48-31.73c6.73-2.01,14.13-3.13,21.6-3.26,.48-.01,.97-.01,1.45-.01,.54,0,1.08,.01,1.63,.02,8.16,.15,16.27,1.47,23.59,3.84,3.46,9.24,5.27,19.95,5.27,31.14s-1.89,22.39-5.5,31.74Z"/><path class="cls-14" d="M17.21,2.06h0c1.63,.63,2.06,2.75,.81,3.97l-1.26,1.22s8.35-2.37,18.84-1.69h0c-1-1.49-.45-3.52,1.14-4.34l1-.51S28.26-.43,17.21,2.06Z"/><path class="cls-16" d="M21.81,1.66s.7,2.18-.22,3.1c3.77-.41,7.98-.74,11.12-.74-.33-1.33,1.26-3.4,1.26-3.4,0,0-6.17-.26-12.16,1.03Z"/><path class="cls-14" d="M36.25,79.21h0c-1.52-.87-1.62-3.03-.2-4.04l1.43-1.02s-8.61,1.07-18.88-1.19h0c.76,1.63-.09,3.55-1.79,4.11l-1.07,.36s9.19,2.56,20.5,1.78Z"/><path class="cls-16" d="M19.28,77.8s1.76-1.83,1.3-3.09c4.43,.69,9.11,1.14,12.25,1.14-.33,1.33,.44,3.4,.44,3.4,0,0-8-.16-13.99-1.45Z"/><polygon points="47.48 1.77 47.48 6.73 54.49 8.44 54.49 2.62 47.48 1.77"/><line class="cls-7" x1="45.5" y1="1.23" x2="45.5" y2="6.29"/><line class="cls-7" x1="56.47" y1="3.67" x2="56.47" y2="8.73"/><polygon points="47.48 78.74 47.48 73.78 54.49 72.07 54.49 77.88 47.48 78.74"/><line class="cls-7" x1="45.5" y1="79.28" x2="45.5" y2="74.21"/><line class="cls-7" x1="56.47" y1="76.84" x2="56.47" y2="71.77"/><path d="M33.53,1c.56,0,1.14,0,1.7,.02,9.39,.17,18.33,1.74,26.57,4.65,4.07,10.08,6.22,21.94,6.22,34.33s-2.24,24.79-6.49,34.99c-8.12,2.66-16.87,4.01-26.03,4.01-.56,0-1.12,0-1.71-.02-9.25-.17-18.42-1.78-26.58-4.66C3.15,64.25,1,52.39,1,40S3.23,15.21,7.47,5.02C15.6,2.35,24.37,1,33.53,1m0-1C23.88,0,14.77,1.52,6.72,4.21,2.49,14.22,0,26.6,0,40s2.39,25.22,6.45,35.11c8.16,2.94,17.45,4.69,27.32,4.87,.58,.01,1.15,.02,1.73,.02,9.63,0,18.73-1.51,26.78-4.2,4.24-10.01,6.74-22.39,6.74-35.8s-2.4-25.24-6.46-35.12C54.4,1.94,45.12,.2,35.25,.02c-.57,0-1.15-.02-1.72-.02h0Z"/><path class="cls-14" d="M33.53,6c.52,0,1.04,0,1.61,.02,7.87,.14,15.75,1.4,22.84,3.64,3.3,9,5.04,19.47,5.04,30.34s-1.82,21.82-5.26,30.92c-6.98,2.04-14.47,3.08-22.26,3.08-.48,0-.97,0-1.47-.02h-.15c-7.89-.14-15.78-1.41-22.85-3.65-3.29-8.99-5.03-19.46-5.03-30.33s1.81-21.79,5.24-30.91c6.5-1.89,13.7-2.95,20.86-3.08,.47,0,.96,0,1.43,0m0-1c-.48,0-.97,0-1.45,.01-7.47,.13-14.87,1.25-21.6,3.26-3.59,9.35-5.48,20.26-5.48,31.73s1.81,21.91,5.26,31.13c7.31,2.38,15.42,3.7,23.6,3.85h.17c.49,.01,.98,.02,1.47,.02,8.08,0,15.82-1.1,23.02-3.26,3.61-9.35,5.5-20.27,5.5-31.74s-1.81-21.9-5.27-31.14c-7.32-2.37-15.43-3.69-23.59-3.84-.55,0-1.09-.02-1.63-.02h0Z"/><path d="M33.53,5c.54,0,1.08,.01,1.63,.02,8.16,.15,16.27,1.47,23.59,3.84,3.46,9.24,5.27,19.95,5.27,31.14s-1.89,22.39-5.5,31.74c-7.2,2.16-14.94,3.26-23.02,3.26-.49,0-.98-.01-1.47-.02h-.17c-8.18-.15-16.29-1.47-23.6-3.85-3.45-9.22-5.26-19.93-5.26-31.13s1.89-22.38,5.48-31.73c6.73-2.01,14.13-3.13,21.6-3.26,.48-.01,.97-.01,1.45-.01m0-1c-.49,0-.98,0-1.47,.01-7.51,.13-15.07,1.27-21.87,3.3l-.47,.14-.18,.46c-3.63,9.45-5.55,20.55-5.55,32.09s1.84,22.17,5.32,31.48l.17,.45,.46,.15c7.37,2.4,15.63,3.75,23.89,3.9h.19c.48,.01,.97,.02,1.47,.02,8.16,0,16-1.11,23.31-3.3l.47-.14,.18-.46c3.64-9.43,5.57-20.53,5.57-32.1s-1.84-22.17-5.33-31.49l-.17-.45-.46-.15c-7.39-2.39-15.65-3.74-23.88-3.89-.58-.01-1.12-.02-1.65-.02h0Z"/><path class="cls-10" d="M8.14,7.1s-12.66,32.94,0,66.06"/><path class="cls-10" d="M60.88,7.58s12.66,32.94,0,66.06"/></g></svg>