<svg id="Capa_2" xmlns="http://www.w3.org/2000/svg" xmlns:xlink="http://www.w3.org/1999/xlink" viewBox="0 0 69.02 80">
<defs >
<style >
.cls-1{fill:#000000;}.cls-2{fill:#000;}.cls-3{fill:#000000;}.cls-4{fill:#000000;}.cls-5{fill:#000000;}.cls-6{fill:#000000;}.cls-7,.cls-8,.cls-9,.cls-10,.cls-11,.cls-12,.cls-13{fill:none;}.cls-7,.cls-8,.cls-9,.cls-13{stroke-miterlimit:10;}.cls-7,.cls-9,.cls-13{stroke:#000;}.cls-8{stroke:#000000;stroke-width:2px;}.cls-8,.cls-10{stroke-linecap:round;}.cls-9{stroke-width:.75px;}.cls-10{stroke:#000000;stroke-dasharray:0 0 0 4.06;stroke-linejoin:round;}.cls-14{fill:#000000;}.cls-15{fill:url(#USGS_19_Inundación_de_tierra_2);}.cls-12{stroke:#000000;stroke-dasharray:0 0 2 2;stroke-width:.3px;}.cls-16{fill:#000000;}.cls-13{stroke-width:.5px;}
</style>
<pattern id="USGS_19_Inundación_de_tierra_2" x="0" y="0" width="72" height="72" patternTransform="translate(339.52 -16351) rotate(-90)" patternUnits="userSpaceOnUse" viewBox="0 0 72 72">
<g >
<rect class="cls-11" width="72" height="72">
</rect>
<g >
<line class="cls-12" x1="71" y1="71" x2="144.44" y2="71">
</line>
<line class="cls-12" x1="71" y1="67" x2="144.44" y2="67">
</line>
<line class="cls-12" x1="71" y1="63" x2="144.44" y2="63">
</line>
<line class="cls-12" x1="71" y1="59" x2="144.44" y2="59">
</line>
<line class="cls-12" x1="71" y1="55" x2="144.44" y2="55">
</line>
<line class="cls-12" x1="71" y1="51" x2="144.44" y2="51">
</line>
<line class="cls-12" x1="71" y1="47" x2="144.44" y2="47">
</line>
<line class="cls-12" x1="71" y1="43" x2="144.44" y2="43">
</line>
<line class="cls-12" x1="71" y1="39" x2="144.44" y2="39">
</line>
<line class="cls-12" x1="71" y1="35" x2="144.44" y2="35">
</line>
<line class="cls-12" x1="71" y1="31" x2="144.44" y2="31">
</line>
<line class="cls-12" x1="71" y1="27" x2="144.44" y2="27">
</line>
<line class="cls-12" x1="71" y1="23" x2="144.44" y2="23">
</line>
<line class="cls-12" x1="71" y1="19" x2="144.44" y2="19">
</line>
<line class="cls-12" x1="71" y1="15" x2="144.44" y2="15">
</line>
<line class="cls-12" x1="71" y1="11" x2="144.44" y2="11">
</line>
<line class="cls-12" x1="71" y1="7" x2="144.44" y2="7">
</line>
<line class="cls-12" x1="71" y1="3" x2="144.44" y2="3">
</line>
</g>
<g >
<line class="cls-12" x1="-1" y1="71" x2="72.44" y2="71">
</line>
<line class="cls-12" x1="-1" y1="67" x2="72.44" y2="67">
</line>
<line class="cls-12" x1="-1" y1="63" x2="72.44" y2="63">
</line>
<line class="cls-12" x1="-1" y1="59" x2="72.44" y2="59">
</line>
<line class="cls-12" x1="-1" y1="55" x2="72.44" y2="55">
</line>
<line class="cls-12" x1="-1" y1="51" x2="72.44" y2="51">
</line>
<line class="cls-12" x1="-1" y1="47" x2="72.44" y2="47">
</line>
<line class="cls-12" x1="-1" y1="43" x2="72.44" y2="43">
</line>
<line class="cls-12" x1="-1" y1="39" x2="72.44" y2="39">
</line>
<line class="cls-12" x1="-1" y1="35" x2="72.44" y2="35">
</line>
<line class="cls-12" x1="-1" y1="31" x2="72.44" y2="31">
</line>
<line class="cls-12" x1="-1" y1="27" x2="72.44" y2="27">
</line>
<line class="cls-12" x1="-1" y1="23" x2="72.44" y2="23">
</line>
<line class="cls-12" x1="-1" y1="19" x2="72.44" y2="19">
</line>
<line class="cls-12" x1="-1" y1="15" x2="72.44" y2="15">
</line>
<line class="cls-12" x1="-1" y1="11" x2="72.44" y2="11">
</line>
<line class="cls-12" x1="-1" y1="7" x2="72.44" y2="7">
</line>
<line class="cls-12" x1="-1" y1="3" x2="72.44" y2="3">
</line>
<line class="cls-12" x1="1.04" y1="69" x2="74.48" y2="69">
</line>
<line class="cls-12" x1="1.04" y1="65" x2="74.48" y2="65">
</line>
<line class="cls-12" x1="1.04" y1="61" x2="74.48" y2="61">
</line>
<line class="cls-12" x1="1.04" y1="57" x2="74.48" y2="57">
</line>
<line class="cls-12" x1="1.04" y1="53" x2="74.48" y2="53">
</line>
<line class="cls-12" x1="1.04" y1="49" x2="74.48" y2="49">
</line>
<line class="cls-12" x1="1.04" y1="45" x2="74.48" y2="45">
</line>
<line class="cls-12" x1="1.04" y1="41" x2="74.48" y2="41">
</line>
<line class="cls-12" x1="1.04" y1="37" x2="74.48" y2="37">
</line>
<line class="cls-12" x1="1.04" y1="33" x2="74.48" y2="33">
</line>
<line class="cls-12" x1="1.04" y1="29" x2="74.48" y2="29">
</line>
<line class="cls-12" x1="1.04" y1="25" x2="74.48" y2="25">
</line>
<line class="cls-12" x1="1.04" y1="21" x2="74.48" y2="21">
</line>
<line class="cls-12" x1="1.04" y1="17" x2="74.48" y2="17">
</line>
<line class="cls-12" x1="1.04" y1="13" x2="74.48" y2="13">
</line>
<line class="cls-12" x1="1.04" y1="9" x2="74.48" y2="9">
</line>
<line class="cls-12" x1="1.04" y1="5" x2="74.48" y2="5">
</line>
<line class="cls-12" x1="1.04" y1="1" x2="74.48" y2="1">
</line>
</g>
<g >
<line class="cls-12" x1="-73" y1="71" x2=".44" y2="71">
</line>
<line class="cls-12" x1="-73" y1="67" x2=".44" y2="67">
</line>
<line class="cls-12" x1="-73" y1="63" x2=".44" y2="63">
</line>
<line class="cls-12" x1="-73" y1="59" x2=".44" y2="59">
</line>
<line class="cls-12" x1="-73" y1="55" x2=".44" y2="55">
</line>
<line class="cls-12" x1="-73" y1="51" x2=".44" y2="51">
</line>
<line class="cls-12" x1="-73" y1="47" x2=".44" y2="47">
</line>
<line class="cls-12" x1="-73" y1="43" x2=".44" y2="43">
</line>
<line class="cls-12" x1="-73" y1="39" x2=".44" y2="39">
</line>
<line class="cls-12" x1="-73" y1="35" x2=".44" y2="35">
</line>
<line class="cls-12" x1="-73" y1="31" x2=".44" y2="31">
</line>
<line class="cls-12" x1="-73" y1="27" x2=".44" y2="27">
</line>
<line class="cls-12" x1="-73" y1="23" x2=".44" y2="23">
</line>
<line class="cls-12" x1="-73" y1="19" x2=".44" y2="19">
</line>
<line class="cls-12" x1="-73" y1="15" x2=".44" y2="15">
</line>
<line class="cls-12" x1="-73" y1="11" x2=".44" y2="11">
</line>
<line class="cls-12" x1="-73" y1="7" x2=".44" y2="7">
</line>
<line class="cls-12" x1="-73" y1="3" x2=".44" y2="3">
</line>
<line class="cls-12" x1="-70.96" y1="69" x2="2.48" y2="69">
</line>
<line class="cls-12" x1="-70.96" y1="65" x2="2.48" y2="65">
</line>
<line class="cls-12" x1="-70.96" y1="61" x2="2.48" y2="61">
</line>
<line class="cls-12" x1="-70.96" y1="57" x2="2.48" y2="57">
</line>
<line class="cls-12" x1="-70.96" y1="53" x2="2.48" y2="53">
</line>
<line class="cls-12" x1="-70.96" y1="49" x2="2.48" y2="49">
</line>
<line class="cls-12" x1="-70.96" y1="45" x2="2.48" y2="45">
</line>
<line class="cls-12" x1="-70.96" y1="41" x2="2.48" y2="41">
</line>
<line class="cls-12" x1="-70.96" y1="37" x2="2.48" y2="37">
</line>
<line class="cls-12" x1="-70.96" y1="33" x2="2.48" y2="33">
</line>
<line class="cls-12" x1="-70.96" y1="29" x2="2.48" y2="29">
</line>
<line class="cls-12" x1="-70.96" y1="25" x2="2.48" y2="25">
</line>
<line class="cls-12" x1="-70.96" y1="21" x2="2.48" y2="21">
</line>
<line class="cls-12" x1="-70.96" y1="17" x2="2.48" y2="17">
</line>
<line class="cls-12" x1="-70.96" y1="13" x2="2.48" y2="13">
</line>
<line class="cls-12" x1="-70.96" y1="9" x2="2.48" y2="9">
</line>
<line class="cls-12" x1="-70.96" y1="5" x2="2.48" y2="5">
</line>
<line class="cls-12" x1="-70.96" y1="1" x2="2.48" y2="1">
</line>
</g>
</g>
</pattern>
</defs>
  <path
     id="circle1849"
     style="fill:#AA00DD;stroke:#000000;stroke-width:2"
     d="M 34.875,3.84375 C 30.2026,3.8566827 25.91896,6.4477515 23.738281,10.580078 21.63936,9.1446679 19.156089,8.3761337 16.613281,8.375 9.636905,8.3755251 3.9818685,14.031436 3.9824219,21.007812 c 0.012178,4.019812 1.9368978,7.79383 5.1835937,10.164063 -1.8357739,2.246976 -2.8420262,5.057448 -2.8496094,7.958984 0.00713,1.935325 0.4588528,3.843134 1.3203126,5.576172 -2.4145566,2.364898 -3.7807042,5.598771 -3.7929688,8.978516 0.00466,4.996359 2.9538661,9.520462 7.523438,11.541015 0.767283,6.336372 6.140784,11.10481 12.523437,11.113282 3.186693,-0.0091 6.252191,-1.222333 8.582031,-3.396485 1.867081,1.045968 3.9693,1.600422 6.109375,1.611329 2.723791,-0.01118 5.371006,-0.902492 7.546875,-2.541016 1.56279,0.673484 3.245549,1.024252 4.947266,1.03125 6.977139,5.53e-4 12.633366,-5.655674 12.632812,-12.632813 -0.0013,-2.652818 -0.837669,-5.237911 -2.390625,-7.388671 2.480721,-2.37284 3.888874,-5.653124 3.900391,-9.085938 -9.13e-4,-3.96978 -1.867955,-7.708203 -5.041016,-10.09375 2.59288,-2.385063 4.071919,-5.744584 4.080078,-9.267578 C 64.257287,17.599796 58.601376,11.944759 51.625,11.945312 50.032147,11.955601 48.455612,12.267065 46.978516,12.863281 45.38146,7.5117456 40.459758,3.8440964 34.875,3.84375 Z"/>



<g id="Capa_9">
<g >
<path class="cls-1" d="M7.04,59.42s4.14-14.68,4.83-20.89,4.83-23.16,6.7-25.62c4.14-3.65,21.78-8.08,33.41-.1,5.32,13.21,5.91,26.12,7.79,34.49s4.43,14.88,4.43,14.88l-4.93,11.04s-10.35,5.03-20.99,4.04-29.07-4.83-29.07-4.83l-2.17-13.01Z">
</path>
<path class="cls-1" d="M54.33,43.74c-.97,3.34-4.15,4.81-4.15,4.81l-.9,6.59-1.06,1.74-.32,.54-.08,3.83s-4.32,5.38-10.92,6.03c-.97,3.34-2.03,7.41-2.03,7.41l-1.87-7.25s-7.74-1.46-11.08-6.19c-.25-3.34-.08-4.07-.08-4.07l-1.39-2.44-.65-6.28s-3.09-.48-4.23-4.8c-1.14-4.32-.09-8.39-.09-8.39l4.24,3.34-.08-5.78s5.37-3.42,15.15-3.34h.15c9.68,.11,15.24,3.26,15.24,3.26l.41,6.19,3.74-4.08s.98,5.54,0,8.88Z">
</path>
<path class="cls-4" d="M31.94,38.09l.55,2.88s-2.57,4.13-4.91,5.45c-3.27,.47-5.14-3.58-5.45-4.83-.08-1.71-.47-3.11-.47-3.11l3.43-1.48,6.85,1.09Z">
</path>
<path class="cls-2" d="M50.18,48.55l-.9,6.59-1.06,1.74-.13,.03-13.15,8.87V29.49c9.68,.11,15.24,3.26,15.24,3.26l.41,6.19-.41,9.61Z">
</path>
<path class="cls-4" d="M37.85,38.09l-.55,2.88s2.99,4.23,5.33,5.55c2.75,.36,4.63-3.21,4.94-4.46,.08-1.71,.56-3.59,.56-3.59l-3.43-1.48-6.85,1.09Z">
</path>
<path class="cls-3" d="M38.65,41.49l7.65,.33s-.75,1.6-3.43,2.35c-2.72-1.08-4.22-2.68-4.22-2.68Z">
</path>
<path class="cls-3" d="M31.29,41.49l-7.65,.33s.75,1.6,3.43,2.35c2.72-1.08,4.22-2.68,4.22-2.68Z">
</path>
<path class="cls-4" d="M45.71,50.45c-1.44,3.97-1.86,5.06-1.86,5.06l-2.27-4.85-2.88-1.49-3.48,2.41-.26,.15-.26-.15-3.48-2.41-2.89,1.49-2.27,4.85s-.41-1.09-1.85-5.06c-3.25-3.04-4.79-8.81-4.79-8.81,0,0,.05,10.67,1.08,12.94,1.03,2.27,4.84,6.54,8.61,9.17,2.34,1.64,4.53,1.94,5.84,1.93h.02c1.31,.01,3.5-.29,5.84-1.93,3.76-2.63,7.58-6.9,8.61-9.17,1.03-2.27,1.08-12.94,1.08-12.94,0,0-1.54,5.77-4.79,8.81Zm-6.61,5.82h-8.4l-.85-1.38,2.89-1.54,2.16,.69,1.85-.62,3.19,1.47-.84,1.38Z">
</path>
<path d="M18.47,13.11s-4.03,11.76-6.11,21.71-5.58,27.12-5.58,27.12l.87,2.73s10.7-4.99,13.98-5.43c.51-1.93,.01-2.77,.01-2.77l-1.64-2.62-.22-10.17s-.22-12.14,.11-15.64-1.44-14.93-1.44-14.93Z">
</path>
<path class="cls-4" d="M19.37,38.57l-3.89-3.3s-.78,7.1,.53,9.79c1.53,2.84,3.79,3.4,3.79,3.4l-.43-9.89Z">
</path>
<path class="cls-1" d="M20.02,32.35c.1-.3,17.49-6.92,30.16,.4l.03,5.51,4.12-3.4s2.8,11.23-4.02,14.03c-.5,4.21-1.03,6.25-1.03,6.25l-1.06,1.74-.42,1.94s12.23,5.01,13.84,6.42c2.21-2.91,.6-8.32,.6-8.32,0,0-3.11-10.73-3.81-17.55s-3.77-23.65-6.45-26.56c-9.6-4.92-23.84-5.82-33.36-.21,.8,9.73,1.4,19.75,1.4,19.75Z">
</path>
<path class="cls-2" d="M34.94,29.49V8.62s12.96,1.23,17.04,4.18c-1.7,9.55-1.97,19.67-1.97,19.67,0,0-6.56-3.09-15.08-2.99Z">
</path>
<path class="cls-2" d="M47.82,61.25s-2.33,4.6-10.92,6.03c-1.22,3.88-2.5,8.6-2.5,8.6l22.29-.1,5.7-9.82-2.26-2.06s-11.21-4.55-12.14-4.48c.17,1.55-.17,1.84-.17,1.84Z">
</path>
<path d="M8.95,65.91s6.74-4.16,12.94-5.33c.47,4.55,2.67,14.27,2.67,14.27l-15.34-2.42-.26-6.52Z">
</path>
<path d="M42.93,62.87l-15.02,13.25-7.31-.96,1.24-17.98s3.82,4.57,5.19,5.37,6.99,5.3,15.9,.32Z">
</path>
<path class="cls-4" d="M21.26,31.75s-.41-15.05-1.43-19.66c2.35-1.13,8.91-2.46,10.54-2.87V29.29s-6.14,1.43-9.11,2.46Z">
</path>
<path class="cls-8" d="M33.78,29.48s11.13-.38,16.36,3.63c-.08,11.44-.41,20.65-1.55,22.24s-5.59,9.66-12.68,9.15">
</path>
<path class="cls-2" d="M24.2,46.84s2.92,1.77,5.31-.36c-2.97,3.96-4.32,2.86-5.31,.36Z">
</path>
<path class="cls-7" d="M6.97,60.16s1.62-3.73,4.58-20.82c2.96-17.1,6.78-26.65,6.78-26.65,0,0,15.19-9.17,33.62,.1,5.06,10.32,6.78,35.72,10.98,46.9">
</path>
<path class="cls-7" d="M51.62,12.68s-1.47,11.56-1.37,20.64c.21,9.69,.1,20.1-1.12,21.84-1.09,1.53-5.9,10.36-14.14,10.36s-13.08-8.83-14.17-10.36c-1.22-1.74-1.32-12.15-1.12-21.84,.1-9.08-1.37-20.64-1.37-20.64">
</path>
<path class="cls-13" d="M19.7,32.68s5-3.29,15.13-3.29,15.25,3.36,15.25,3.36">
</path>
<path class="cls-7" d="M19.7,38.87l-4.07-4.12s-1.15,6.32,.22,9.84,3.96,3.9,3.96,3.9">
</path>
<path class="cls-7" d="M50.32,38.87l4.07-4.12s1.15,6.32-.22,9.84-3.96,3.9-3.96,3.9">
</path>
<path class="cls-9" d="M23.52,41.71l8.29-.18s-1.52,1.66-4.88,2.64c-2.51-.76-3.41-2.46-3.41-2.46Z">
</path>
<path d="M24.3,45.19c.61,.64,1.41,1.12,2.25,1.24,.88,.22,1.54-.49,2.15-1.08,1.19-1.28,2.22-2.73,3.24-4.16l.42,.27c-1.37,1.93-2.81,4.41-5.15,5.25-1.17,.07-2.25-.65-2.91-1.53h0Z">
</path>
<path class="cls-9" d="M46.51,41.71l-8.29-.18s1.52,1.66,4.88,2.64c2.51-.76,3.41-2.46,3.41-2.46Z">
</path>
<path d="M45.73,45.19c-.67,.88-1.74,1.6-2.91,1.53-2.31-.82-3.79-3.34-5.15-5.25,0,0,.42-.27,.42-.27,1.02,1.43,2.05,2.88,3.24,4.16,.61,.59,1.27,1.3,2.15,1.08,.85-.13,1.64-.6,2.25-1.24h0Z">
</path>
<path d="M32.3,37.04c-.12,.67-.3,1.37-.58,1.99-.09,.01-.18,.02-.27,.03-2.88-.22-5.47-1.63-6.71-1.57-2.25,.54-3.07,1.06-3.19,1.13,.17-.24,1.62-2.15,4.63-2.7,2.38,.19,4.63,.71,6.12,1.12Z">
</path>
<path d="M48.22,38.62c-.12-.07-.93-.59-3.19-1.13-1.24-.06-3.83,1.35-6.71,1.57-.13-.01-.26-.03-.38-.04-.27-.61-.46-1.29-.57-1.95,1.49-.42,3.79-.96,6.22-1.15,3.01,.55,4.46,2.46,4.63,2.7Z">
</path>
<path d="M37.44,44.2c.59,1.47,1.17,2.99,1.99,4.33-1.21,1.59-2.8,2.85-4.52,3.84-1.73-.98-3.32-2.25-4.53-3.84l.13-.21c.74-1.26,1.31-2.7,1.88-4.12-.22,1.54-.55,3.05-1.22,4.48,0,0-.05-.43-.05-.43,1.2,1.21,2.57,2.26,4.05,3.1h-.5c1.48-.85,2.84-1.89,4.04-3.1l-.05,.43c-.67-1.43-.99-2.94-1.21-4.48h0Z">
</path>
<path d="M41.79,55.99c-1.41-.62-3.47-1.69-4.9-2.12,0,0,.19,.02,.19,.02-.72,.15-1.45,.26-2.17,.4-.72-.13-1.43-.25-2.15-.4l.19-.02c-.8,.24-1.62,.61-2.44,.98l-2.47,1.14c1.42-1.25,2.91-2.36,4.72-3.03,.75,.09,1.5,.22,2.25,.34,0,0-.2,0-.2,0,.76-.11,1.51-.24,2.27-.33,1.8,.68,3.29,1.79,4.71,3.03h0Z">
</path>
<path class="cls-9" d="M39.97,54.93s-.5,.99-.87,1.32c-1.53,.17-3.96,.17-3.96,.17h-.52s-2.42,0-3.96-.17c-.37-.33-.87-1.32-.87-1.32">
</path>
<path class="cls-9" d="M21.71,56.91s.17,6.34,1.27,11.4,1.61,6.91,1.61,6.91">
</path>
<path class="cls-9" d="M48.09,56.91s-.17,6.34-1.27,11.4-1.61,6.91-1.61,6.91">
</path>
<path class="cls-13" d="M21.76,60.37s1.84,5.3,11.17,7.03c.98,3.69,2.36,8.29,2.36,8.29">
</path>
<path class="cls-13" d="M47.97,60.37s-1.84,5.3-11.17,7.03c-.98,3.69-2.36,8.29-2.36,8.29">
</path>
<path class="cls-9" d="M21.65,59.24s-6.74,1.94-13.66,5.67">
</path>
<path class="cls-9" d="M47.85,59.24s6.74,1.94,13.66,5.67">
</path>
<path class="cls-13" d="M14.3,62.02s-2.39,4.88,.31,11.06">
</path>
<path class="cls-13" d="M55.72,62.02s2.39,4.88-.31,11.06">
</path>
</g>
</g>

</svg>
