<svg id="Capa_2" xmlns="http://www.w3.org/2000/svg" xmlns:xlink="http://www.w3.org/1999/xlink" viewBox="0 0 69.02 80">
<defs >
<style >
.cls-1{fill:#c89aed;}.cls-2{fill:#fff;}.cls-3{fill:#f8ffbf;}.cls-4{fill:#7b7be8;}.cls-5{fill:#a88347;}.cls-6{fill:#782ab5;}.cls-7,.cls-8,.cls-9,.cls-10,.cls-11,.cls-12,.cls-13{fill:none;}.cls-7,.cls-8,.cls-9,.cls-13{stroke-miterlimit:10;}.cls-7,.cls-9,.cls-13{stroke:#000;}.cls-8{stroke:#c89aed;stroke-width:2px;}.cls-8,.cls-10{stroke-linecap:round;}.cls-9{stroke-width:.75px;}.cls-10{stroke:#deb778;stroke-dasharray:0 0 0 4.06;stroke-linejoin:round;}.cls-14{fill:#deb778;}.cls-15{fill:url(#USGS_19_Inundación_de_tierra_2);}.cls-12{stroke:#1d1d1b;stroke-dasharray:0 0 2 2;stroke-width:.3px;}.cls-16{fill:#fcf0c5;}.cls-13{stroke-width:.5px;}
</style>
<pattern id="USGS_19_Inundación_de_tierra_2" x="0" y="0" width="72" height="72" patternTransform="translate(339.52 -16351) rotate(-90)" patternUnits="userSpaceOnUse" viewBox="0 0 72 72">
<g >
<rect class="cls-11" width="72" height="72">
</rect>
<g >
<line class="cls-12" x1="71" y1="71" x2="144.44" y2="71">
</line>
<line class="cls-12" x1="71" y1="67" x2="144.44" y2="67">
</line>
<line class="cls-12" x1="71" y1="63" x2="144.44" y2="63">
</line>
<line class="cls-12" x1="71" y1="59" x2="144.44" y2="59">
</line>
<line class="cls-12" x1="71" y1="55" x2="144.44" y2="55">
</line>
<line class="cls-12" x1="71" y1="51" x2="144.44" y2="51">
</line>
<line class="cls-12" x1="71" y1="47" x2="144.44" y2="47">
</line>
<line class="cls-12" x1="71" y1="43" x2="144.44" y2="43">
</line>
<line class="cls-12" x1="71" y1="39" x2="144.44" y2="39">
</line>
<line class="cls-12" x1="71" y1="35" x2="144.44" y2="35">
</line>
<line class="cls-12" x1="71" y1="31" x2="144.44" y2="31">
</line>
<line class="cls-12" x1="71" y1="27" x2="144.44" y2="27">
</line>
<line class="cls-12" x1="71" y1="23" x2="144.44" y2="23">
</line>
<line class="cls-12" x1="71" y1="19" x2="144.44" y2="19">
</line>
<line class="cls-12" x1="71" y1="15" x2="144.44" y2="15">
</line>
<line class="cls-12" x1="71" y1="11" x2="144.44" y2="11">
</line>
<line class="cls-12" x1="71" y1="7" x2="144.44" y2="7">
</line>
<line class="cls-12" x1="71" y1="3" x2="144.44" y2="3">
</line>
</g>
<g >
<line class="cls-12" x1="-1" y1="71" x2="72.44" y2="71">
</line>
<line class="cls-12" x1="-1" y1="67" x2="72.44" y2="67">
</line>
<line class="cls-12" x1="-1" y1="63" x2="72.44" y2="63">
</line>
<line class="cls-12" x1="-1" y1="59" x2="72.44" y2="59">
</line>
<line class="cls-12" x1="-1" y1="55" x2="72.44" y2="55">
</line>
<line class="cls-12" x1="-1" y1="51" x2="72.44" y2="51">
</line>
<line class="cls-12" x1="-1" y1="47" x2="72.44" y2="47">
</line>
<line class="cls-12" x1="-1" y1="43" x2="72.44" y2="43">
</line>
<line class="cls-12" x1="-1" y1="39" x2="72.44" y2="39">
</line>
<line class="cls-12" x1="-1" y1="35" x2="72.44" y2="35">
</line>
<line class="cls-12" x1="-1" y1="31" x2="72.44" y2="31">
</line>
<line class="cls-12" x1="-1" y1="27" x2="72.44" y2="27">
</line>
<line class="cls-12" x1="-1" y1="23" x2="72.44" y2="23">
</line>
<line class="cls-12" x1="-1" y1="19" x2="72.44" y2="19">
</line>
<line class="cls-12" x1="-1" y1="15" x2="72.44" y2="15">
</line>
<line class="cls-12" x1="-1" y1="11" x2="72.44" y2="11">
</line>
<line class="cls-12" x1="-1" y1="7" x2="72.44" y2="7">
</line>
<line class="cls-12" x1="-1" y1="3" x2="72.44" y2="3">
</line>
<line class="cls-12" x1="1.04" y1="69" x2="74.48" y2="69">
</line>
<line class="cls-12" x1="1.04" y1="65" x2="74.48" y2="65">
</line>
<line class="cls-12" x1="1.04" y1="61" x2="74.48" y2="61">
</line>
<line class="cls-12" x1="1.04" y1="57" x2="74.48" y2="57">
</line>
<line class="cls-12" x1="1.04" y1="53" x2="74.48" y2="53">
</line>
<line class="cls-12" x1="1.04" y1="49" x2="74.48" y2="49">
</line>
<line class="cls-12" x1="1.04" y1="45" x2="74.48" y2="45">
</line>
<line class="cls-12" x1="1.04" y1="41" x2="74.48" y2="41">
</line>
<line class="cls-12" x1="1.04" y1="37" x2="74.48" y2="37">
</line>
<line class="cls-12" x1="1.04" y1="33" x2="74.48" y2="33">
</line>
<line class="cls-12" x1="1.04" y1="29" x2="74.48" y2="29">
</line>
<line class="cls-12" x1="1.04" y1="25" x2="74.48" y2="25">
</line>
<line class="cls-12" x1="1.04" y1="21" x2="74.48" y2="21">
</line>
<line class="cls-12" x1="1.04" y1="17" x2="74.48" y2="17">
</line>
<line class="cls-12" x1="1.04" y1="13" x2="74.48" y2="13">
</line>
<line class="cls-12" x1="1.04" y1="9" x2="74.48" y2="9">
</line>
<line class="cls-12" x1="1.04" y1="5" x2="74.48" y2="5">
</line>
<line class="cls-12" x1="1.04" y1="1" x2="74.48" y2="1">
</line>
</g>
<g >
<line class="cls-12" x1="-73" y1="71" x2=".44" y2="71">
</line>
<line class="cls-12" x1="-73" y1="67" x2=".44" y2="67">
</line>
<line class="cls-12" x1="-73" y1="63" x2=".44" y2="63">
</line>
<line class="cls-12" x1="-73" y1="59" x2=".44" y2="59">
</line>
<line class="cls-12" x1="-73" y1="55" x2=".44" y2="55">
</line>
<line class="cls-12" x1="-73" y1="51" x2=".44" y2="51">
</line>
<line class="cls-12" x1="-73" y1="47" x2=".44" y2="47">
</line>
<line class="cls-12" x1="-73" y1="43" x2=".44" y2="43">
</line>
<line class="cls-12" x1="-73" y1="39" x2=".44" y2="39">
</line>
<line class="cls-12" x1="-73" y1="35" x2=".44" y2="35">
</line>
<line class="cls-12" x1="-73" y1="31" x2=".44" y2="31">
</line>
<line class="cls-12" x1="-73" y1="27" x2=".44" y2="27">
</line>
<line class="cls-12" x1="-73" y1="23" x2=".44" y2="23">
</line>
<line class="cls-12" x1="-73" y1="19" x2=".44" y2="19">
</line>
<line class="cls-12" x1="-73" y1="15" x2=".44" y2="15">
</line>
<line class="cls-12" x1="-73" y1="11" x2=".44" y2="11">
</line>
<line class="cls-12" x1="-73" y1="7" x2=".44" y2="7">
</line>
<line class="cls-12" x1="-73" y1="3" x2=".44" y2="3">
</line>
<line class="cls-12" x1="-70.96" y1="69" x2="2.48" y2="69">
</line>
<line class="cls-12" x1="-70.96" y1="65" x2="2.48" y2="65">
</line>
<line class="cls-12" x1="-70.96" y1="61" x2="2.48" y2="61">
</line>
<line class="cls-12" x1="-70.96" y1="57" x2="2.48" y2="57">
</line>
<line class="cls-12" x1="-70.96" y1="53" x2="2.48" y2="53">
</line>
<line class="cls-12" x1="-70.96" y1="49" x2="2.48" y2="49">
</line>
<line class="cls-12" x1="-70.96" y1="45" x2="2.48" y2="45">
</line>
<line class="cls-12" x1="-70.96" y1="41" x2="2.48" y2="41">
</line>
<line class="cls-12" x1="-70.96" y1="37" x2="2.48" y2="37">
</line>
<line class="cls-12" x1="-70.96" y1="33" x2="2.48" y2="33">
</line>
<line class="cls-12" x1="-70.96" y1="29" x2="2.48" y2="29">
</line>
<line class="cls-12" x1="-70.96" y1="25" x2="2.48" y2="25">
</line>
<line class="cls-12" x1="-70.96" y1="21" x2="2.48" y2="21">
</line>
<line class="cls-12" x1="-70.96" y1="17" x2="2.48" y2="17">
</line>
<line class="cls-12" x1="-70.96" y1="13" x2="2.48" y2="13">
</line>
<line class="cls-12" x1="-70.96" y1="9" x2="2.48" y2="9">
</line>
<line class="cls-12" x1="-70.96" y1="5" x2="2.48" y2="5">
</line>
<line class="cls-12" x1="-70.96" y1="1" x2="2.48" y2="1">
</line>
</g>
</g>
</pattern>
</defs>

<g id="Capa_9">
<g >
<path class="cls-1" d="M7.04,59.42s4.14-14.68,4.83-20.89,4.83-23.16,6.7-25.62c4.14-3.65,21.78-8.08,33.41-.1,5.32,13.21,5.91,26.12,7.79,34.49s4.43,14.88,4.43,14.88l-4.93,11.04s-10.35,5.03-20.99,4.04-29.07-4.83-29.07-4.83l-2.17-13.01Z">
</path>
<path class="cls-1" d="M54.33,43.74c-.97,3.34-4.15,4.81-4.15,4.81l-.9,6.59-1.06,1.74-.32,.54-.08,3.83s-4.32,5.38-10.92,6.03c-.97,3.34-2.03,7.41-2.03,7.41l-1.87-7.25s-7.74-1.46-11.08-6.19c-.25-3.34-.08-4.07-.08-4.07l-1.39-2.44-.65-6.28s-3.09-.48-4.23-4.8c-1.14-4.32-.09-8.39-.09-8.39l4.24,3.34-.08-5.78s5.37-3.42,15.15-3.34h.15c9.68,.11,15.24,3.26,15.24,3.26l.41,6.19,3.74-4.08s.98,5.54,0,8.88Z">
</path>
<path class="cls-4" d="M31.94,38.09l.55,2.88s-2.57,4.13-4.91,5.45c-3.27,.47-5.14-3.58-5.45-4.83-.08-1.71-.47-3.11-.47-3.11l3.43-1.48,6.85,1.09Z">
</path>
<path class="cls-2" d="M50.18,48.55l-.9,6.59-1.06,1.74-.13,.03-13.15,8.87V29.49c9.68,.11,15.24,3.26,15.24,3.26l.41,6.19-.41,9.61Z">
</path>
<path class="cls-4" d="M37.85,38.09l-.55,2.88s2.99,4.23,5.33,5.55c2.75,.36,4.63-3.21,4.94-4.46,.08-1.71,.56-3.59,.56-3.59l-3.43-1.48-6.85,1.09Z">
</path>
<path class="cls-3" d="M38.65,41.49l7.65,.33s-.75,1.6-3.43,2.35c-2.72-1.08-4.22-2.68-4.22-2.68Z">
</path>
<path class="cls-3" d="M31.29,41.49l-7.65,.33s.75,1.6,3.43,2.35c2.72-1.08,4.22-2.68,4.22-2.68Z">
</path>
<path class="cls-4" d="M45.71,50.45c-1.44,3.97-1.86,5.06-1.86,5.06l-2.27-4.85-2.88-1.49-3.48,2.41-.26,.15-.26-.15-3.48-2.41-2.89,1.49-2.27,4.85s-.41-1.09-1.85-5.06c-3.25-3.04-4.79-8.81-4.79-8.81,0,0,.05,10.67,1.08,12.94,1.03,2.27,4.84,6.54,8.61,9.17,2.34,1.64,4.53,1.94,5.84,1.93h.02c1.31,.01,3.5-.29,5.84-1.93,3.76-2.63,7.58-6.9,8.61-9.17,1.03-2.27,1.08-12.94,1.08-12.94,0,0-1.54,5.77-4.79,8.81Zm-6.61,5.82h-8.4l-.85-1.38,2.89-1.54,2.16,.69,1.85-.62,3.19,1.47-.84,1.38Z">
</path>
<path d="M18.47,13.11s-4.03,11.76-6.11,21.71-5.58,27.12-5.58,27.12l.87,2.73s10.7-4.99,13.98-5.43c.51-1.93,.01-2.77,.01-2.77l-1.64-2.62-.22-10.17s-.22-12.14,.11-15.64-1.44-14.93-1.44-14.93Z">
</path>
<path class="cls-4" d="M19.37,38.57l-3.89-3.3s-.78,7.1,.53,9.79c1.53,2.84,3.79,3.4,3.79,3.4l-.43-9.89Z">
</path>
<path class="cls-1" d="M20.02,32.35c.1-.3,17.49-6.92,30.16,.4l.03,5.51,4.12-3.4s2.8,11.23-4.02,14.03c-.5,4.21-1.03,6.25-1.03,6.25l-1.06,1.74-.42,1.94s12.23,5.01,13.84,6.42c2.21-2.91,.6-8.32,.6-8.32,0,0-3.11-10.73-3.81-17.55s-3.77-23.65-6.45-26.56c-9.6-4.92-23.84-5.82-33.36-.21,.8,9.73,1.4,19.75,1.4,19.75Z">
</path>
<path class="cls-2" d="M34.94,29.49V8.62s12.96,1.23,17.04,4.18c-1.7,9.55-1.97,19.67-1.97,19.67,0,0-6.56-3.09-15.08-2.99Z">
</path>
<path class="cls-2" d="M47.82,61.25s-2.33,4.6-10.92,6.03c-1.22,3.88-2.5,8.6-2.5,8.6l22.29-.1,5.7-9.82-2.26-2.06s-11.21-4.55-12.14-4.48c.17,1.55-.17,1.84-.17,1.84Z">
</path>
<path d="M8.95,65.91s6.74-4.16,12.94-5.33c.47,4.55,2.67,14.27,2.67,14.27l-15.34-2.42-.26-6.52Z">
</path>
<path d="M42.93,62.87l-15.02,13.25-7.31-.96,1.24-17.98s3.82,4.57,5.19,5.37,6.99,5.3,15.9,.32Z">
</path>
<path class="cls-4" d="M21.26,31.75s-.41-15.05-1.43-19.66c2.35-1.13,8.91-2.46,10.54-2.87V29.29s-6.14,1.43-9.11,2.46Z">
</path>
<path class="cls-8" d="M33.78,29.48s11.13-.38,16.36,3.63c-.08,11.44-.41,20.65-1.55,22.24s-5.59,9.66-12.68,9.15">
</path>
<path class="cls-2" d="M24.2,46.84s2.92,1.77,5.31-.36c-2.97,3.96-4.32,2.86-5.31,.36Z">
</path>
<path class="cls-7" d="M6.97,60.16s1.62-3.73,4.58-20.82c2.96-17.1,6.78-26.65,6.78-26.65,0,0,15.19-9.17,33.62,.1,5.06,10.32,6.78,35.72,10.98,46.9">
</path>
<path class="cls-7" d="M51.62,12.68s-1.47,11.56-1.37,20.64c.21,9.69,.1,20.1-1.12,21.84-1.09,1.53-5.9,10.36-14.14,10.36s-13.08-8.83-14.17-10.36c-1.22-1.74-1.32-12.15-1.12-21.84,.1-9.08-1.37-20.64-1.37-20.64">
</path>
<path class="cls-13" d="M19.7,32.68s5-3.29,15.13-3.29,15.25,3.36,15.25,3.36">
</path>
<path class="cls-7" d="M19.7,38.87l-4.07-4.12s-1.15,6.32,.22,9.84,3.96,3.9,3.96,3.9">
</path>
<path class="cls-7" d="M50.32,38.87l4.07-4.12s1.15,6.32-.22,9.84-3.96,3.9-3.96,3.9">
</path>
<path class="cls-9" d="M23.52,41.71l8.29-.18s-1.52,1.66-4.88,2.64c-2.51-.76-3.41-2.46-3.41-2.46Z">
</path>
<path d="M24.3,45.19c.61,.64,1.41,1.12,2.25,1.24,.88,.22,1.54-.49,2.15-1.08,1.19-1.28,2.22-2.73,3.24-4.16l.42,.27c-1.37,1.93-2.81,4.41-5.15,5.25-1.17,.07-2.25-.65-2.91-1.53h0Z">
</path>
<path class="cls-9" d="M46.51,41.71l-8.29-.18s1.52,1.66,4.88,2.64c2.51-.76,3.41-2.46,3.41-2.46Z">
</path>
<path d="M45.73,45.19c-.67,.88-1.74,1.6-2.91,1.53-2.31-.82-3.79-3.34-5.15-5.25,0,0,.42-.27,.42-.27,1.02,1.43,2.05,2.88,3.24,4.16,.61,.59,1.27,1.3,2.15,1.08,.85-.13,1.64-.6,2.25-1.24h0Z">
</path>
<path d="M32.3,37.04c-.12,.67-.3,1.37-.58,1.99-.09,.01-.18,.02-.27,.03-2.88-.22-5.47-1.63-6.71-1.57-2.25,.54-3.07,1.06-3.19,1.13,.17-.24,1.62-2.15,4.63-2.7,2.38,.19,4.63,.71,6.12,1.12Z">
</path>
<path d="M48.22,38.62c-.12-.07-.93-.59-3.19-1.13-1.24-.06-3.83,1.35-6.71,1.57-.13-.01-.26-.03-.38-.04-.27-.61-.46-1.29-.57-1.95,1.49-.42,3.79-.96,6.22-1.15,3.01,.55,4.46,2.46,4.63,2.7Z">
</path>
<path d="M37.44,44.2c.59,1.47,1.17,2.99,1.99,4.33-1.21,1.59-2.8,2.85-4.52,3.84-1.73-.98-3.32-2.25-4.53-3.84l.13-.21c.74-1.26,1.31-2.7,1.88-4.12-.22,1.54-.55,3.05-1.22,4.48,0,0-.05-.43-.05-.43,1.2,1.21,2.57,2.26,4.05,3.1h-.5c1.48-.85,2.84-1.89,4.04-3.1l-.05,.43c-.67-1.43-.99-2.94-1.21-4.48h0Z">
</path>
<path d="M41.79,55.99c-1.41-.62-3.47-1.69-4.9-2.12,0,0,.19,.02,.19,.02-.72,.15-1.45,.26-2.17,.4-.72-.13-1.43-.25-2.15-.4l.19-.02c-.8,.24-1.62,.61-2.44,.98l-2.47,1.14c1.42-1.25,2.91-2.36,4.72-3.03,.75,.09,1.5,.22,2.25,.34,0,0-.2,0-.2,0,.76-.11,1.51-.24,2.27-.33,1.8,.68,3.29,1.79,4.71,3.03h0Z">
</path>
<path class="cls-9" d="M39.97,54.93s-.5,.99-.87,1.32c-1.53,.17-3.96,.17-3.96,.17h-.52s-2.42,0-3.96-.17c-.37-.33-.87-1.32-.87-1.32">
</path>
<path class="cls-9" d="M21.71,56.91s.17,6.34,1.27,11.4,1.61,6.91,1.61,6.91">
</path>
<path class="cls-9" d="M48.09,56.91s-.17,6.34-1.27,11.4-1.61,6.91-1.61,6.91">
</path>
<path class="cls-13" d="M21.76,60.37s1.84,5.3,11.17,7.03c.98,3.69,2.36,8.29,2.36,8.29">
</path>
<path class="cls-13" d="M47.97,60.37s-1.84,5.3-11.17,7.03c-.98,3.69-2.36,8.29-2.36,8.29">
</path>
<path class="cls-9" d="M21.65,59.24s-6.74,1.94-13.66,5.67">
</path>
<path class="cls-9" d="M47.85,59.24s6.74,1.94,13.66,5.67">
</path>
<path class="cls-13" d="M14.3,62.02s-2.39,4.88,.31,11.06">
</path>
<path class="cls-13" d="M55.72,62.02s2.39,4.88-.31,11.06">
</path>
</g>
</g>
 <g
     id="g2850">
    <g
       id="g2837">
      <path
         id="path1951"
         d="M 0.056640625 0.04296875 L 0.056640625 79.943359 L 69.308594 79.943359 L 69.308594 0.04296875 L 0.056640625 0.04296875 z M 33.615234 3.5957031 C 34.206332 3.5957038 34.786991 3.6051034 35.421875 3.6152344 C 44.430653 3.7671809 53.471255 5.1336733 61.560547 7.5546875 L 62.064453 7.7070312 L 62.25 8.1640625 C 66.070247 17.605006 66.990234 28.726438 66.990234 40.0625 C 66.990234 51.398562 65.972723 63.025755 61.988281 72.578125 L 61.791016 73.044922 L 61.275391 73.185547 C 53.273669 75.403966 44.691921 76.529297 35.759766 76.529297 C 35.212453 76.529297 34.675812 76.519896 34.150391 76.509766 L 33.943359 76.509766 C 24.901742 76.357819 15.860367 74.989738 7.7929688 72.558594 L 7.2890625 72.40625 L 7.1035156 71.951172 C 3.2942144 62.520359 2.375 51.369168 2.375 40.0625 C 2.375 28.755832 3.3819737 17.127318 7.3554688 7.5546875 L 7.5527344 7.0898438 L 8.0664062 6.9472656 C 15.509867 4.890923 23.785212 3.7371557 32.005859 3.6054688 C 32.542226 3.5953387 33.078867 3.5957031 33.615234 3.5957031 z "
         style="opacity:1;vector-effect:none;fill:#ffffff;fill-opacity:1;fill-rule:nonzero;stroke:none;stroke-width:1.95200002;stroke-linecap:butt;stroke-linejoin:miter;stroke-miterlimit:4;stroke-dasharray:none;stroke-dashoffset:0;stroke-opacity:1" />
    </g>
    <path
       id="path1154-8-2"
       d="m 33.675163,6.6112954 c 0.557696,0 1.115392,0.00956 1.683415,0.019115 8.427403,0.14336 16.803167,1.4049288 24.363042,3.6700176 3.573384,8.830981 4.443772,19.417362 4.443772,29.761551 0,10.344189 -0.95301,21.39888 -4.68131,30.334991 -7.435942,2.064385 -15.429581,3.274388 -23.774362,3.274388 -0.506058,0 -1.012115,-0.0096 -1.518172,-0.01911 h -0.17557 C 25.56792,73.508883 17.192156,72.088619 9.6426089,69.813973 6.0795528,61.002107 5.2088244,50.415411 5.2088244,40.061979 c 0,-10.353432 0.95335,-21.389323 4.6609939,-30.325434 C 16.820359,7.8155201 24.462856,6.7450981 32.177647,6.6208528 c 0.49573,-0.00956 1.001787,-0.00956 1.497516,-0.00956 m 0,-0.9557337 c -0.506057,0 -1.012114,0 -1.518171,0.00956 C 24.40089,5.7893644 16.593149,6.8789009 9.570315,8.8190405 L 9.0849131,8.9528432 8.8990146,9.3924808 C 5.1500599,18.424166 4.1999116,29.394246 4.1999116,40.061979 c 0,10.667733 0.8675267,21.188618 4.461566,30.0865 l 0.1755708,0.430081 0.4750741,0.14336 c 7.6115135,2.293761 16.1421925,3.584001 24.6728715,3.727361 h 0.196227 c 0.495729,0.0096 1.001786,0.01911 1.518171,0.01911 8.427403,0 16.524318,-1.060864 24.073866,-3.153921 l 0.485403,-0.133802 0.185898,-0.439639 c 3.759282,-9.01257 4.719759,-19.983589 4.719759,-30.679055 0,-10.695466 -0.867528,-21.188618 -4.471894,-30.0960578 L 60.516853,9.5358409 60.041779,9.3924808 C 52.409609,7.108277 43.87893,5.8180364 35.379234,5.6746763 34.780227,5.6651187 34.232859,5.6555621 33.675163,5.6555615 Z"
       style="fill:#ff0000;stroke:#ffffff;stroke-width:1.84341729;stroke-miterlimit:4;stroke-dasharray:none" />
    <path
       id="path1154"
       d="m 33.614853,4.6077955 c 0.591098,0 1.182197,0.01013 1.784241,0.02026 8.932155,0.1519464 17.809578,1.4890758 25.822246,3.8898304 3.787408,9.3599041 4.709928,20.5803481 4.709928,31.5440931 0,10.963745 -1.01009,22.680548 -4.961693,32.151879 -7.881312,2.18803 -16.353723,3.302304 -25.198307,3.302304 -0.536368,0 -1.072735,-0.01013 -1.609102,-0.02026 H 33.97608 C 25.022033,75.343956 16.14461,74.006827 8.1428892,71.595943 4.3664269,62.256298 3.443547,51.035521 3.443547,40.061979 c 0,-10.973542 1.01045,-22.670418 4.9401601,-32.1417498 7.3668369,-2.036083 15.4670749,-3.170617 23.6439369,-3.3023039 0.525421,-0.01013 1.061788,-0.01013 1.587209,-0.01013 m 0,-1.0129766 c -0.536367,0 -1.072734,0 -1.609101,0.01013 C 23.785105,3.7366356 15.509726,4.891429 8.0662653,6.9477716 L 7.5517907,7.0895883 7.3547579,7.5555576 C 3.3812628,17.128188 2.3742062,28.755311 2.3742062,40.061979 c 0,11.306668 0.9194864,22.457692 4.7287876,31.888505 l 0.1860865,0.45584 0.5035283,0.151947 c 8.0673984,2.431144 17.1090154,3.798662 26.1506324,3.950608 h 0.207979 c 0.525421,0.01013 1.061788,0.02026 1.609101,0.02026 8.932155,0 17.514028,-1.124404 25.51575,-3.342823 l 0.514475,-0.141816 0.197032,-0.46597 c 3.984442,-9.55237 5.002445,-21.180489 5.002445,-32.516551 0,-11.336062 -0.919487,-22.457692 -4.739734,-31.8986353 L 62.064202,7.7075041 61.560674,7.5555576 C 53.471382,5.1345434 44.429765,3.7670249 35.420987,3.6150784 c -0.634884,-0.01013 -1.215036,-0.020259 -1.806134,-0.02026 z"
       style="fill:#000000;stroke:#000000;stroke-width:1.95382714;stroke-miterlimit:4;stroke-dasharray:none" />
    <g
       id="g1810">
      <path
         d="M 6.5134911,7.7433673 C 5.6489029,6.8479453 4.058602,6.5681013 3.6272194,7.3820013 3.284151,8.0292783 3.3625296,8.5309135 4.395235,8.9201755 3.2963719,9.5187755 1.4857674,9.4447465 1.1893447,7.4467713 0.95320848,5.8551433 2.674739,4.8863543 3.1399725,5.0916244 3.0034432,3.6818714 1.8221094,4.0692802 0.95849208,3.2813384 0.34259068,2.7194046 0.23126071,-0.02624603 0.0561761,0.04378767 -0.0138576,0.21887227 2.7317937,0.33020157 3.2937267,0.94610377 4.0816685,1.8097211 3.6942598,2.9910547 5.1040128,3.1275841 4.8987425,2.6623507 5.8675315,0.94082017 7.4591593,1.1769564 9.4571345,1.4733791 9.5311625,3.2839847 8.9325635,4.3828467 8.5433008,3.3501417 8.041666,3.2717627 7.3943894,3.6148312 6.5804899,4.0462137 6.8603354,5.6365129 7.7557553,6.5011023"
         style="fill:#000000;stroke:#000000;stroke-width:0.1112323px;stroke-linecap:butt;stroke-linejoin:miter;stroke-opacity:1"
         id="path1737-3" />
      <path
         d="m 62.850738,7.7433673 c 0.864588,-0.895422 2.454889,-1.175266 2.886271,-0.361366 0.343069,0.647277 0.26469,1.148912 -0.768015,1.538174 1.098863,0.5986 2.909467,0.524571 3.20589,-1.473404 0.236136,-1.591628 -1.485394,-2.560417 -1.950628,-2.3551469 0.13653,-1.409753 1.317863,-1.0223442 2.181481,-1.810286 0.615901,-0.5619338 0.727231,-3.30758442 0.902316,-3.23755072 0.07003,0.1750846 -2.675618,0.2864139 -3.237551,0.9023161 C 65.28256,1.8097211 65.669969,2.9910547 64.260216,3.1275841 64.465486,2.6623507 63.496697,0.94082018 61.905069,1.1769564 c -1.997975,0.2964227 -2.072003,2.1070283 -1.473404,3.2058903 0.389263,-1.032705 0.890898,-1.111084 1.538174,-0.7680155 0.8139,0.4313825 0.534054,2.0216817 -0.361366,2.8862711"
         style="fill:#000000;stroke:#000000;stroke-width:0.1112323px;stroke-linecap:butt;stroke-linejoin:miter;stroke-opacity:1"
         id="path1737-3-5" />
      <path
         d="m 62.850738,72.244244 c 0.864588,0.895422 2.454889,1.175266 2.886272,0.361366 0.343068,-0.647277 0.264689,-1.148912 -0.768016,-1.538174 1.098863,-0.5986 2.909468,-0.524571 3.20589,1.473404 0.236137,1.591628 -1.485394,2.560417 -1.950628,2.355147 0.13653,1.409753 1.317864,1.022344 2.181481,1.810286 0.615901,0.561934 0.727231,3.307584 0.902316,3.237551 0.07003,-0.175085 -2.675618,-0.286414 -3.237551,-0.902317 -0.787942,-0.863617 -0.400533,-2.04495 -1.810286,-2.18148 0.20527,0.465234 -0.763519,2.186764 -2.355146,1.950628 -1.997976,-0.296423 -2.072004,-2.107028 -1.473405,-3.20589 0.389263,1.032705 0.890898,1.111084 1.538175,0.768015 0.813899,-0.431382 0.534054,-2.021682 -0.361366,-2.886271"
         style="fill:#000000;stroke:#000000;stroke-width:0.1112323px;stroke-linecap:butt;stroke-linejoin:miter;stroke-opacity:1"
         id="path1737-3-7" />
      <path
         d="M 6.513491,72.244245 C 5.648903,73.139667 4.058602,73.419511 3.62722,72.605611 3.284151,71.958334 3.36253,71.456699 4.395235,71.067437 c -1.098863,-0.5986 -2.909467,-0.524571 -3.20589,1.473404 -0.23613599,1.591628 1.485394,2.560417 1.950628,2.355147 -0.13653,1.409753 -1.317863,1.022344 -2.18148099,1.810286 -0.615901,0.561933 -0.727231,3.307584 -0.902316,3.23755 C -0.01385399,79.76874 2.731794,79.65741 3.293727,79.041508 4.081669,78.177891 3.69426,76.996557 5.104013,76.860028 4.898743,77.325261 5.867532,79.046792 7.45916,78.810656 9.457135,78.514233 9.531163,76.703627 8.932564,75.604765 8.543301,76.63747 8.041666,76.715849 7.39439,76.372781 6.58049,75.941398 6.860336,74.351099 7.755756,73.48651"
         style="fill:#000000;stroke:#000000;stroke-width:0.1112323px;stroke-linecap:butt;stroke-linejoin:miter;stroke-opacity:1"
         id="path1737-3-5-5" />
    </g>
    <path
       id="path1154-9"
       d="m 33.712865,7.4258691 c 0.536813,0 1.07363,0.00933 1.620386,0.01865 8.111875,0.1398689 16.174044,1.3707167 23.450873,3.5806479 3.439594,8.615932 4.277395,18.944521 4.277395,29.036812 0,10.092292 -0.917329,20.877786 -4.506039,29.596289 -7.157536,2.014114 -14.851888,3.03982 -22.884234,3.03982 -0.487111,0 -0.974221,-0.0094 -1.461331,-0.01865 H 34.040918 C 25.909161,72.53957 17.846991,71.308722 10.580105,69.089467 7.1504515,60.492184 6.3123238,50.163289 6.3123238,40.061979 c 0,-10.101311 0.9176558,-20.868461 4.4864832,-29.586965 6.690308,-1.8742449 14.046665,-2.9186005 21.472608,-3.0398203 0.47717,-0.00933 0.964281,-0.00933 1.44145,-0.00933 m 0,-0.9324602 c -0.487111,0 -0.974221,0 -1.46133,0.00933 C 24.785826,6.6239532 17.270413,7.686958 10.510517,9.5798526 L 10.043289,9.710397 9.8643508,10.139328 c -3.6085914,8.811751 -4.5231655,19.514693 -4.5231655,29.922651 0,10.407958 0.8350459,20.672644 4.294522,29.353849 l 0.1689973,0.419608 0.4572874,0.13987 c 7.326533,2.237904 15.537818,3.496724 23.749103,3.636593 h 0.188879 c 0.47717,0.0094 0.96428,0.01865 1.461331,0.01865 8.111875,0 15.905636,-1.035031 23.172525,-3.077119 l 0.467228,-0.130544 0.178938,-0.428932 c 3.618533,-8.793101 4.543048,-19.496959 4.543048,-29.931975 0,-10.435016 -0.835047,-20.672644 -4.304463,-29.363174 l -0.168997,-0.419609 -0.457288,-0.13987 C 51.74588,7.9107484 43.534594,6.6519271 35.353133,6.512058 34.776554,6.502738 34.249678,6.493409 33.712865,6.493409 Z"
       style="fill:#000000;stroke:none;stroke-width:1.78642213;stroke-miterlimit:4;stroke-dasharray:none" />
    <path
       id="path1154-9-3"
       d="m 33.712865,7.4258686 c 0.536813,0 1.07363,0.00933 1.620386,0.01865 8.111875,0.1398689 16.174044,1.3707167 23.450873,3.5806484 3.439594,8.615932 4.277395,18.944521 4.277395,29.036812 0,10.092292 -0.917329,20.877786 -4.506039,29.596288 -7.157536,2.014114 -14.851888,3.03982 -22.884234,3.03982 -0.487111,0 -0.974221,-0.0094 -1.461331,-0.01865 H 34.040918 C 25.909161,72.539569 17.846991,71.308722 10.580105,69.089466 7.1504515,60.492184 6.3123238,50.163288 6.3123238,40.061979 c 0,-10.101312 0.9176558,-20.868461 4.4864832,-29.586965 6.690308,-1.8742454 14.046665,-2.918601 21.472608,-3.0398208 0.47717,-0.00933 0.964281,-0.00933 1.44145,-0.00933 m 0,-0.9324602 c -0.487111,0 -0.974221,0 -1.46133,0.00933 C 24.785826,6.6239527 17.270413,7.6869575 10.510517,9.5798521 L 10.043289,9.7103965 9.8643508,10.139328 C 6.2557594,18.951079 5.3411853,29.65402 5.3411853,40.061979 c 0,10.407958 0.8350459,20.672643 4.294522,29.353849 l 0.1689973,0.419608 0.4572874,0.13987 c 7.326533,2.237904 15.537818,3.496724 23.749103,3.636593 h 0.188879 c 0.47717,0.0094 0.96428,0.01865 1.461331,0.01865 8.111875,0 15.905636,-1.035032 23.172525,-3.077119 l 0.467228,-0.130544 0.178938,-0.428932 c 3.618533,-8.793101 4.543048,-19.49696 4.543048,-29.931975 0,-10.435016 -0.835047,-20.672644 -4.304463,-29.363175 l -0.168997,-0.419609 -0.457288,-0.13987 C 51.74588,7.9107479 43.534594,6.6519266 35.353133,6.5120575 34.776554,6.5027375 34.249678,6.4934085 33.712865,6.4934085 Z"
       style="fill:#000000;stroke:none;stroke-width:1.78642213;stroke-miterlimit:4;stroke-dasharray:none" />
  </g>
</svg>
