<?xml version="1.0" encoding="UTF-8"?><svg id="Capa_2" xmlns="http://www.w3.org/2000/svg" xmlns:xlink="http://www.w3.org/1999/xlink" viewBox="0 0 69.02 80"><defs><style>.cls-1{fill:#c89aed;}.cls-2{fill:#fff;}.cls-3{fill:#f8ffbf;}.cls-4{fill:#7b7be8;}.cls-5{fill:#a88347;}.cls-6{stroke:#c89aed;stroke-width:1.2px;}.cls-6,.cls-7,.cls-8,.cls-9,.cls-10,.cls-11,.cls-12{fill:none;}.cls-6,.cls-7,.cls-11,.cls-12{stroke-miterlimit:10;}.cls-13{fill:#782ab5;}.cls-7,.cls-11,.cls-12{stroke:#000;}.cls-8{stroke:#deb778;stroke-dasharray:0 0 0 4.06;stroke-linecap:round;stroke-linejoin:round;}.cls-14{fill:#deb778;}.cls-15{fill:url(#USGS_19_Inundación_de_tierra_2);}.cls-10{stroke:#1d1d1b;stroke-dasharray:0 0 2 2;stroke-width:.3px;}.cls-16{fill:#fcf0c5;}.cls-11{stroke-width:.5px;}.cls-12{stroke-width:.52px;}</style><pattern id="USGS_19_Inundación_de_tierra_2" x="0" y="0" width="72" height="72" patternTransform="translate(267.52 -16351) rotate(-90)" patternUnits="userSpaceOnUse" viewBox="0 0 72 72"><g><rect class="cls-9" width="72" height="72"/><g><line class="cls-10" x1="71" y1="71" x2="144.44" y2="71"/><line class="cls-10" x1="71" y1="67" x2="144.44" y2="67"/><line class="cls-10" x1="71" y1="63" x2="144.44" y2="63"/><line class="cls-10" x1="71" y1="59" x2="144.44" y2="59"/><line class="cls-10" x1="71" y1="55" x2="144.44" y2="55"/><line class="cls-10" x1="71" y1="51" x2="144.44" y2="51"/><line class="cls-10" x1="71" y1="47" x2="144.44" y2="47"/><line class="cls-10" x1="71" y1="43" x2="144.44" y2="43"/><line class="cls-10" x1="71" y1="39" x2="144.44" y2="39"/><line class="cls-10" x1="71" y1="35" x2="144.44" y2="35"/><line class="cls-10" x1="71" y1="31" x2="144.44" y2="31"/><line class="cls-10" x1="71" y1="27" x2="144.44" y2="27"/><line class="cls-10" x1="71" y1="23" x2="144.44" y2="23"/><line class="cls-10" x1="71" y1="19" x2="144.44" y2="19"/><line class="cls-10" x1="71" y1="15" x2="144.44" y2="15"/><line class="cls-10" x1="71" y1="11" x2="144.44" y2="11"/><line class="cls-10" x1="71" y1="7" x2="144.44" y2="7"/><line class="cls-10" x1="71" y1="3" x2="144.44" y2="3"/></g><g><line class="cls-10" x1="-1" y1="71" x2="72.44" y2="71"/><line class="cls-10" x1="-1" y1="67" x2="72.44" y2="67"/><line class="cls-10" x1="-1" y1="63" x2="72.44" y2="63"/><line class="cls-10" x1="-1" y1="59" x2="72.44" y2="59"/><line class="cls-10" x1="-1" y1="55" x2="72.44" y2="55"/><line class="cls-10" x1="-1" y1="51" x2="72.44" y2="51"/><line class="cls-10" x1="-1" y1="47" x2="72.44" y2="47"/><line class="cls-10" x1="-1" y1="43" x2="72.44" y2="43"/><line class="cls-10" x1="-1" y1="39" x2="72.44" y2="39"/><line class="cls-10" x1="-1" y1="35" x2="72.44" y2="35"/><line class="cls-10" x1="-1" y1="31" x2="72.44" y2="31"/><line class="cls-10" x1="-1" y1="27" x2="72.44" y2="27"/><line class="cls-10" x1="-1" y1="23" x2="72.44" y2="23"/><line class="cls-10" x1="-1" y1="19" x2="72.44" y2="19"/><line class="cls-10" x1="-1" y1="15" x2="72.44" y2="15"/><line class="cls-10" x1="-1" y1="11" x2="72.44" y2="11"/><line class="cls-10" x1="-1" y1="7" x2="72.44" y2="7"/><line class="cls-10" x1="-1" y1="3" x2="72.44" y2="3"/><line class="cls-10" x1="1.04" y1="69" x2="74.48" y2="69"/><line class="cls-10" x1="1.04" y1="65" x2="74.48" y2="65"/><line class="cls-10" x1="1.04" y1="61" x2="74.48" y2="61"/><line class="cls-10" x1="1.04" y1="57" x2="74.48" y2="57"/><line class="cls-10" x1="1.04" y1="53" x2="74.48" y2="53"/><line class="cls-10" x1="1.04" y1="49" x2="74.48" y2="49"/><line class="cls-10" x1="1.04" y1="45" x2="74.48" y2="45"/><line class="cls-10" x1="1.04" y1="41" x2="74.48" y2="41"/><line class="cls-10" x1="1.04" y1="37" x2="74.48" y2="37"/><line class="cls-10" x1="1.04" y1="33" x2="74.48" y2="33"/><line class="cls-10" x1="1.04" y1="29" x2="74.48" y2="29"/><line class="cls-10" x1="1.04" y1="25" x2="74.48" y2="25"/><line class="cls-10" x1="1.04" y1="21" x2="74.48" y2="21"/><line class="cls-10" x1="1.04" y1="17" x2="74.48" y2="17"/><line class="cls-10" x1="1.04" y1="13" x2="74.48" y2="13"/><line class="cls-10" x1="1.04" y1="9" x2="74.48" y2="9"/><line class="cls-10" x1="1.04" y1="5" x2="74.48" y2="5"/><line class="cls-10" x1="1.04" y1="1" x2="74.48" y2="1"/></g><g><line class="cls-10" x1="-73" y1="71" x2=".44" y2="71"/><line class="cls-10" x1="-73" y1="67" x2=".44" y2="67"/><line class="cls-10" x1="-73" y1="63" x2=".44" y2="63"/><line class="cls-10" x1="-73" y1="59" x2=".44" y2="59"/><line class="cls-10" x1="-73" y1="55" x2=".44" y2="55"/><line class="cls-10" x1="-73" y1="51" x2=".44" y2="51"/><line class="cls-10" x1="-73" y1="47" x2=".44" y2="47"/><line class="cls-10" x1="-73" y1="43" x2=".44" y2="43"/><line class="cls-10" x1="-73" y1="39" x2=".44" y2="39"/><line class="cls-10" x1="-73" y1="35" x2=".44" y2="35"/><line class="cls-10" x1="-73" y1="31" x2=".44" y2="31"/><line class="cls-10" x1="-73" y1="27" x2=".44" y2="27"/><line class="cls-10" x1="-73" y1="23" x2=".44" y2="23"/><line class="cls-10" x1="-73" y1="19" x2=".44" y2="19"/><line class="cls-10" x1="-73" y1="15" x2=".44" y2="15"/><line class="cls-10" x1="-73" y1="11" x2=".44" y2="11"/><line class="cls-10" x1="-73" y1="7" x2=".44" y2="7"/><line class="cls-10" x1="-73" y1="3" x2=".44" y2="3"/><line class="cls-10" x1="-70.96" y1="69" x2="2.48" y2="69"/><line class="cls-10" x1="-70.96" y1="65" x2="2.48" y2="65"/><line class="cls-10" x1="-70.96" y1="61" x2="2.48" y2="61"/><line class="cls-10" x1="-70.96" y1="57" x2="2.48" y2="57"/><line class="cls-10" x1="-70.96" y1="53" x2="2.48" y2="53"/><line class="cls-10" x1="-70.96" y1="49" x2="2.48" y2="49"/><line class="cls-10" x1="-70.96" y1="45" x2="2.48" y2="45"/><line class="cls-10" x1="-70.96" y1="41" x2="2.48" y2="41"/><line class="cls-10" x1="-70.96" y1="37" x2="2.48" y2="37"/><line class="cls-10" x1="-70.96" y1="33" x2="2.48" y2="33"/><line class="cls-10" x1="-70.96" y1="29" x2="2.48" y2="29"/><line class="cls-10" x1="-70.96" y1="25" x2="2.48" y2="25"/><line class="cls-10" x1="-70.96" y1="21" x2="2.48" y2="21"/><line class="cls-10" x1="-70.96" y1="17" x2="2.48" y2="17"/><line class="cls-10" x1="-70.96" y1="13" x2="2.48" y2="13"/><line class="cls-10" x1="-70.96" y1="9" x2="2.48" y2="9"/><line class="cls-10" x1="-70.96" y1="5" x2="2.48" y2="5"/><line class="cls-10" x1="-70.96" y1="1" x2="2.48" y2="1"/></g></g></pattern></defs><g id="BG"><g><path class="cls-13" d="M64.02,40c0,11.47-1.89,22.39-5.5,31.74-7.2,2.16-14.94,3.26-23.02,3.26-.49,0-.98-.01-1.47-.02h-.17c-8.18-.15-16.29-1.47-23.6-3.85-3.45-9.22-5.26-19.93-5.26-31.13s1.89-22.38,5.48-31.73c6.73-2.01,14.13-3.13,21.6-3.26,.48-.01,.97-.01,1.45-.01,.54,0,1.08,.01,1.63,.02,8.16,.15,16.27,1.47,23.59,3.84,3.46,9.24,5.27,19.95,5.27,31.14Z"/><path class="cls-15" d="M34.03,5.59V74.98h-.17c-8.18-.15-16.29-1.47-23.6-3.85-3.45-9.22-5.26-19.93-5.26-31.13s1.89-22.38,5.48-31.73c6.73-2.01,14.13-3.13,21.6-3.26,.65,.16,1.3,.36,1.95,.58Z"/></g></g><g id="Capa_9"><g><g><path class="cls-1" d="M6.18,60.95s6.16-11.17,8.38-20.37c-1.19-6.97-1.48-8.75-1.48-8.75l3.12,1.93,2.52-15.43s3.86-7.27,16.32-6.97c9.2,.45,14.24,6.38,14.24,6.38l2.82,16.02,2.37-2.23s.59,3.86-.74,7.42c1.63,8.6,6.68,19.73,9.05,23.44-1.48,8.75-3.71,10.98-3.71,10.98,0,0-19.14,5.19-29.07,2.97s-20.92-4.6-20.92-4.6l-2.89-10.78Z"/><path d="M19.04,20.15s-4.67,23.92-8.87,32.8c-2.38,5.86-3.56,7.45-3.56,7.45l1.11,2.69s8.79-3.8,11.01-3.56c.87-10.3,1.43-23.05,1.11-25.11s-.79-14.26-.79-14.26Z"/><path class="cls-4" d="M32.07,40.03s-6.06-1.15-7.8-1.15c-2.11,.52-3.07,.89-3.55,1.29,.85,2.25,2.25,6.13,4.43,6.5s5.85-3.98,5.85-3.98l1.06-2.67Z"/><path class="cls-2" d="M33.62,75.07V10.99s10.26,.83,15.65,6.75c-1.8,10.97-1.13,27.76-1.13,27.76,0,0,1.65,12.92,.93,15.85s-6.53,14.12-6.53,14.12l-8.93-.4Z"/><path class="cls-4" d="M36.16,40.03s6.06-1.15,7.8-1.15c2.11,.52,3.07,.89,3.55,1.29-.85,2.25-2.25,6.13-4.43,6.5s-5.85-3.98-5.85-3.98l-1.06-2.67Z"/><path class="cls-4" d="M19.49,50.25l4.88,9.77,.58-5.03,3.13-5.39s1.97,.15,2.77,1.17,2.33,1.53,3.86,1.39,2.41-2.19,3.43-2.26l2.04-.15s2.84,4.37,3.13,5.69,.51,4.3,.51,4.3l4.59-9.11s1.31,7.22,.87,9.4-1.75,7.8-4.08,11.08c-2.48,3.64-3.5,4.74-3.5,4.74l-17.06-1.17s-2.99-4.96-3.79-6.93-2.62-6.56-2.19-8.89c.51-3.94,.8-8.6,.8-8.6Z"/><path d="M34.05,52.12v24.87l-8.54-1.67s-3.68-5.78-4.94-8.71-1.85-7.08-1.85-7.08l.84-9.35,4.94,9.49,.46-4.67,3.13-5.39s1.85,.02,2.69,.69,3.27,1.84,3.27,1.84Z"/><path class="cls-3" d="M31.02,42.7s-2.01-.73-3.67-.93-4.43,.07-4.43,.07c0,0,2.53,1.52,4.64,1.66s3.46-.8,3.46-.8Z"/><path class="cls-3" d="M36.76,42.7s2.01-.73,3.67-.93,4.43,.07,4.43,.07c0,0-2.53,1.52-4.64,1.66s-3.46-.8-3.46-.8Z"/><path class="cls-4" d="M29.57,29.53V11.65s-6.06,2.16-9.25,4.93c.62,5.44,.82,15,.82,15,0,0,4.42-1.44,8.42-2.05Z"/><path class="cls-4" d="M19.75,40.67s-1.66-4.75-2.93-5.78c-1.74-1.66-3.74-3.06-3.74-3.06,0,0,.65,4.25,1.12,6.23s.32,5.78,.79,6.97,2.46,3.41,4.2,4.12c.95-5.7,.55-8.48,.55-8.48Z"/><path class="cls-1" d="M29.24,58s2.02-1.6,3.38-1.6c1.92,.03,3.57,0,3.57,0,0,0,2.49,1.17,2.86,1.64-1.74,.61-2.11,.84-2.11,.84l-5.54-.05-2.16-.84Z"/><path class="cls-2" d="M49.6,60.88s8.28,1.87,11.23,4.43c-2.32,6.42-3.15,8.97-3.15,8.97l-15.96,1.55s6.3-8.35,7.88-14.95Z"/><path class="cls-6" d="M32.46,29.98s7.73-.81,15.18,2.3c-.13,7.89,.54,17.53,.54,17.53,0,0-3.45,8.04-4.12,8.78-.14-3.8-.35-4.17-1.32-5.83-.83-1.42-2.26-3.3-2.26-3.3,0,0-2.21-.43-3.16,.45s-2.76,2.43-3.98,1.75"/><path class="cls-2" d="M39.05,58.05h-9.79s2.15-1.35,3.06-1.6,3.87,0,3.87,0c0,0,2.46,1.14,2.86,1.6Z"/><path d="M18.63,60.72s-6.5,1.3-10.47,4.03c1.49,6.13,2.91,8.67,2.91,8.67l14.99,1.11-7.43-13.81Z"/><path class="cls-2" d="M22.77,46.3s1.52,2.28,4.56,.46c-2.84,3.55-3.85,2.63-4.56-.46Z"/><path class="cls-7" d="M14.48,39.86c-3.94,14.91-8.26,21.33-8.26,21.33"/><path class="cls-7" d="M52.1,33.82c-1.01-4.63-1.96-9.9-2.75-15.88,0,0-5.41-6.42-14.7-6.77h-1.27c-9.29,.36-14.7,6.77-14.7,6.77-.8,6.08-1.77,11.43-2.8,16.12"/><path class="cls-7" d="M61.82,61.19s-4.37-6.34-8.35-21.64"/><path class="cls-7" d="M18.68,17.94s1.52,12.61,1.04,25.22-1.85,16.63-.16,21.13,3.78,8.59,7.55,12.61"/><path class="cls-7" d="M49.24,17.94s-1.52,12.61-1.04,25.22c.48,12.61,1.85,16.63,.16,21.13s-3.78,8.59-7.55,12.61"/><path class="cls-7" d="M19.75,40.34c-.97-1.13-1.54-4.15-3.22-5.73s-3.28-3.28-3.28-3.28c0,0-.36,3.38,.56,5.78s.82,5.02,1.23,7.12,2.35,4.66,4.3,4.91"/><path d="M15.1,35.74c1.46,.91,1.75,2.79,2.19,4.27,.5,1.36,1.29,3,2.5,3.74,0,0-.51,.86-.51,.86-.82-.59-1.24-1.34-1.63-2.09-1.3-2.14-.56-5.07-2.55-6.78h0Z"/><path d="M17.83,45.53c-.58-.97-.85-2.21-.25-3.3l.8,.6c-.7,.63-.77,1.79-.55,2.71h0Z"/><path class="cls-7" d="M48.12,40.34c.97-1.13,1.54-4.15,3.22-5.73s3.28-3.28,3.28-3.28c0,0,.36,3.38-.56,5.78s-.82,5.02-1.23,7.12-2.35,4.66-4.3,4.91"/><path d="M52.77,35.74c-1.99,1.71-1.24,4.64-2.55,6.78-.39,.75-.81,1.51-1.63,2.09l-.51-.86c1.22-.75,2.01-2.38,2.5-3.74,.44-1.48,.73-3.37,2.19-4.27h0Z"/><path d="M50.04,45.53c.22-.92,.15-2.08-.55-2.71,0,0,.8-.6,.8-.6,.6,1.09,.33,2.33-.25,3.3h0Z"/><path class="cls-11" d="M19.87,32.14s5.74-2.57,14.11-2.57,14.04,2.49,14.04,2.49"/><path class="cls-11" d="M19.41,49.48s3.12,7.3,4.99,10.35"/><path d="M28.21,49.88c-1.5,2.19-3.08,4.52-3.19,7.25-.08,.81-.25,2.45-.34,3.26-.05,.54-.12,1.09-.41,1.61-.33-.96-.01-2.31,.02-3.29,0,0,.13-1.64,.13-1.64,.05-2.84,1.72-5.33,3.4-7.49,0,0,.39,.31,.39,.31h0Z"/><path class="cls-11" d="M48.84,49.48s-3.12,7.3-4.99,10.35"/><path d="M40.42,49.57c1.68,2.16,3.35,4.66,3.4,7.49,.06,.81,.2,2.46,.26,3.28,.18,1.97-.34,2.04-.53,.05-.08-.81-.25-2.45-.34-3.26-.11-2.73-1.69-5.06-3.19-7.25,0,0,.39-.31,.39-.31h0Z"/><path class="cls-11" d="M34.74,58.84h2.27c.44-.27,2.16-.82,2.16-.82,0,0-2.16-1.59-3.27-1.59h-1.35s-.72,0-.72,0h-1.35c-1.11,0-3.27,1.59-3.27,1.59,0,0,1.72,.56,2.16,.82h3.39Z"/><path d="M21.63,46.48c.39,2.02,1.38,3.52,2.87,4.73,.41,1.08,.75,2.17,.95,3.33l-.49,.08c-.25-1.08-.62-2.16-.98-3.22l.1,.13c-1.56-1.17-2.49-3.13-2.44-5.06h0Z"/><path d="M46.58,46.48c.06,1.93-.88,3.89-2.44,5.06,0,0,.1-.13,.1-.13-.37,1.06-.73,2.15-.98,3.22l-.49-.08c.2-1.16,.54-2.25,.95-3.33,1.49-1.22,2.48-2.71,2.87-4.73h0Z"/><path d="M37.89,45.77c.76,.68,1.62,1.14,2.37,1.83,.91,1.04,.61,2.57-.96,2.65-.42,.02-.9,.02-1.26,.23-.7,.46-1.49,1.37-2.29,1.84-1.23,.73-2.93,.5-3.95-.47-.48-.38-1.22-1.09-1.64-1.37-.66-.37-1.45-.07-2.12-.49-1.2-.69-.45-2.43,.52-2.89,.61-.41,1.18-.87,1.75-1.34-.54,.76-1.42,1.46-1.98,2.13-.48,.71-.42,1.62,.62,1.57,.24,0,.52-.03,.76,0,1.12,.1,1.87,1.05,2.67,1.61,.78,.73,1.96,.89,2.9,.38,.86-.53,1.41-1.2,2.37-1.76,.5-.26,1.07-.27,1.61-.23,1.04,.04,1.1-.87,.62-1.58-.56-.67-1.44-1.36-1.99-2.12h0Z"/><path d="M20.67,40.3c-.09,.07,1.68-2.26,3.45-2.78,3.03-.06,8.3,.97,8.3,.97,0,0-.03,1.52-.9,2.39-4-.84-8.46-2.29-10.85-.58Z"/><path d="M22.81,41.87c2.85-.68,6.06-.65,8.68,.84,0,0-.29,.24-.29,.24-1.8,1.28-5.43,5.65-7.51,2.86,.95,1.41,2.83,.68,3.87-.23,1.16-.92,2.16-2.03,3.32-3.01l.05,.41c-2.61-.94-5.37-1-8.13-1.11h0Z"/><path d="M24.83,42.72c.76,.22,1.5,.48,2.27,.59,1.26,.03,2.5-.48,3.73-.78,0,0,.16,.47,.16,.47-1.26,.44-2.61,.95-3.98,.77-.79-.2-1.52-.58-2.18-1.06h0Z"/><path d="M47.6,40.3c.09,.07-1.68-2.26-3.45-2.78-3.03-.06-8.3,.97-8.3,.97,0,0,.03,1.52,.9,2.39,4-.84,8.46-2.29,10.85-.58Z"/><path d="M45.46,41.87c-2.76,.23-5.53,.01-8.13,1.11,0,0,.05-.42,.05-.42,1.18,.94,2.23,2.02,3.38,2.93,1.07,.89,2.75,1.56,3.81,.32-.75,1.65-3.01,.96-4.09,.06-1.35-.98-2.47-2.14-3.73-3.17,2.65-1.3,5.86-1.62,8.7-.82h0Z"/><path d="M43.44,42.72c-.65,.48-1.39,.85-2.18,1.06-1.37,.18-2.73-.33-3.98-.77,0,0,.16-.47,.16-.47,1.23,.3,2.47,.81,3.73,.78,.77-.11,1.51-.37,2.27-.59h0Z"/><path d="M25.42,34.81c5.63,1.16,11.45,1.26,17.1,.13-5.49,1.8-11.63,1.69-17.1-.13h0Z"/><path d="M28.54,33.08c3.61,.61,7.24,.67,10.85,.09-3.45,1.27-7.42,1.2-10.85-.09h0Z"/><path d="M30.9,31.54c2.08,.2,4.07,.23,6.14,.05-1.91,.87-4.24,.82-6.14-.05h0Z"/><path class="cls-7" d="M8.26,63.03s4.54-2.46,10.35-3.5"/><path class="cls-7" d="M59.92,63.03s-4.54-2.46-10.35-3.5"/><path class="cls-12" d="M14.72,60.46s-1.15,5.6,2.14,12.43"/><path class="cls-12" d="M53.56,60.46s1.15,5.6-2.14,12.43"/></g><path class="cls-4" d="M19.55,55.17c-.02,3.45,.2,7.09,1.67,10.22,1.57,3.04,3.86,5.82,6.16,8.37,0,0-.7,.71-.7,.71-5.69-5.54-8.75-11.22-7.12-19.3h0Z"/></g></g><g id="Frame"><g><path class="cls-5" d="M62.56,4.88C54.4,1.94,45.12,.2,35.25,.02c-.57-.01-1.15-.02-1.72-.02C23.88,0,14.77,1.52,6.72,4.21,2.49,14.22,0,26.6,0,40s2.39,25.22,6.45,35.11c8.16,2.94,17.45,4.69,27.32,4.87,.58,.01,1.15,.02,1.73,.02,9.63,0,18.73-1.51,26.78-4.2,4.24-10.01,6.74-22.39,6.74-35.8s-2.4-25.24-6.46-35.12Zm-4.04,66.86c-7.2,2.16-14.94,3.26-23.02,3.26-.49,0-.98-.01-1.47-.02h-.17c-8.18-.15-16.29-1.47-23.6-3.85-3.45-9.22-5.26-19.93-5.26-31.13s1.89-22.38,5.48-31.73c6.73-2.01,14.13-3.13,21.6-3.26,.48-.01,.97-.01,1.45-.01,.54,0,1.08,.01,1.63,.02,8.16,.15,16.27,1.47,23.59,3.84,3.46,9.24,5.27,19.95,5.27,31.14s-1.89,22.39-5.5,31.74Z"/><path class="cls-14" d="M17.21,2.06h0c1.63,.63,2.06,2.75,.81,3.97l-1.26,1.22s8.35-2.37,18.84-1.69h0c-1-1.49-.45-3.52,1.14-4.34l1-.51S28.26-.43,17.21,2.06Z"/><path class="cls-16" d="M21.81,1.66s.7,2.18-.22,3.1c3.77-.41,7.98-.74,11.12-.74-.33-1.33,1.26-3.4,1.26-3.4,0,0-6.17-.26-12.16,1.03Z"/><path class="cls-14" d="M36.25,79.21h0c-1.52-.87-1.62-3.03-.2-4.04l1.43-1.02s-8.61,1.07-18.88-1.19h0c.76,1.63-.09,3.55-1.79,4.11l-1.07,.36s9.19,2.56,20.5,1.78Z"/><path class="cls-16" d="M19.28,77.8s1.76-1.83,1.3-3.09c4.43,.69,9.11,1.14,12.25,1.14-.33,1.33,.44,3.4,.44,3.4,0,0-8-.16-13.99-1.45Z"/><polygon points="47.48 1.77 47.48 6.73 54.49 8.44 54.49 2.62 47.48 1.77"/><line class="cls-7" x1="45.5" y1="1.23" x2="45.5" y2="6.29"/><line class="cls-7" x1="56.47" y1="3.67" x2="56.47" y2="8.73"/><polygon points="47.48 78.74 47.48 73.78 54.49 72.07 54.49 77.88 47.48 78.74"/><line class="cls-7" x1="45.5" y1="79.28" x2="45.5" y2="74.21"/><line class="cls-7" x1="56.47" y1="76.84" x2="56.47" y2="71.77"/><path d="M33.53,1c.56,0,1.14,0,1.7,.02,9.39,.17,18.33,1.74,26.57,4.65,4.07,10.08,6.22,21.94,6.22,34.33s-2.24,24.79-6.49,34.99c-8.12,2.66-16.87,4.01-26.03,4.01-.56,0-1.12,0-1.71-.02-9.25-.17-18.42-1.78-26.58-4.66C3.15,64.25,1,52.39,1,40S3.23,15.21,7.47,5.02C15.6,2.35,24.37,1,33.53,1m0-1C23.88,0,14.77,1.52,6.72,4.21,2.49,14.22,0,26.6,0,40s2.39,25.22,6.45,35.11c8.16,2.94,17.45,4.69,27.32,4.87,.58,.01,1.15,.02,1.73,.02,9.63,0,18.73-1.51,26.78-4.2,4.24-10.01,6.74-22.39,6.74-35.8s-2.4-25.24-6.46-35.12C54.4,1.94,45.12,.2,35.25,.02c-.57,0-1.15-.02-1.72-.02h0Z"/><path class="cls-14" d="M33.53,6c.52,0,1.04,0,1.61,.02,7.87,.14,15.75,1.4,22.84,3.64,3.3,9,5.04,19.47,5.04,30.34s-1.82,21.82-5.26,30.92c-6.98,2.04-14.47,3.08-22.26,3.08-.48,0-.97,0-1.47-.02h-.15c-7.89-.14-15.78-1.41-22.85-3.65-3.29-8.99-5.03-19.46-5.03-30.33s1.81-21.79,5.24-30.91c6.5-1.89,13.7-2.95,20.86-3.08,.47,0,.96,0,1.43,0m0-1c-.48,0-.97,0-1.45,.01-7.47,.13-14.87,1.25-21.6,3.26-3.59,9.35-5.48,20.26-5.48,31.73s1.81,21.91,5.26,31.13c7.31,2.38,15.42,3.7,23.6,3.85h.17c.49,.01,.98,.02,1.47,.02,8.08,0,15.82-1.1,23.02-3.26,3.61-9.35,5.5-20.27,5.5-31.74s-1.81-21.9-5.27-31.14c-7.32-2.37-15.43-3.69-23.59-3.84-.55,0-1.09-.02-1.63-.02h0Z"/><path class="cls-8" d="M8.14,7.1s-12.66,32.94,0,66.06"/><path class="cls-8" d="M60.88,7.58s12.66,32.94,0,66.06"/></g><path d="M33.53,5c.54,0,1.08,.01,1.63,.02,8.16,.15,16.27,1.47,23.59,3.84,3.46,9.24,5.27,19.95,5.27,31.14s-1.89,22.39-5.5,31.74c-7.2,2.16-14.94,3.26-23.02,3.26-.49,0-.98-.01-1.47-.02h-.17c-8.18-.15-16.29-1.47-23.6-3.85-3.45-9.22-5.26-19.93-5.26-31.13s1.89-22.38,5.48-31.73c6.73-2.01,14.13-3.13,21.6-3.26,.48-.01,.97-.01,1.45-.01m0-1c-.49,0-.98,0-1.47,.01-7.51,.13-15.07,1.27-21.87,3.3l-.47,.14-.18,.46c-3.63,9.45-5.55,20.55-5.55,32.09s1.84,22.17,5.32,31.48l.17,.45,.46,.15c7.37,2.4,15.63,3.75,23.89,3.9h.19c.48,.01,.97,.02,1.47,.02,8.16,0,16-1.11,23.31-3.3l.47-.14,.18-.46c3.64-9.43,5.57-20.53,5.57-32.1s-1.84-22.17-5.33-31.49l-.17-.45-.46-.15c-7.39-2.39-15.65-3.74-23.88-3.89-.58-.01-1.12-.02-1.65-.02h0Z"/></g></svg>