<?xml version="1.0" encoding="UTF-8"?><svg id="Capa_2" xmlns="http://www.w3.org/2000/svg" xmlns:xlink="http://www.w3.org/1999/xlink" viewBox="0 0 69.02 80"><defs><style>.cls-1{fill:#c89aed;}.cls-2{fill:#fff;}.cls-3{fill:#f8ffbf;}.cls-4{fill:#7b7be8;}.cls-5,.cls-6,.cls-7,.cls-8,.cls-9,.cls-10,.cls-11{fill:none;}.cls-5,.cls-6,.cls-11{stroke:#000;}.cls-5,.cls-7{stroke-linejoin:round;}.cls-12{fill:#a88347;}.cls-13{fill:#782ab5;}.cls-6,.cls-8,.cls-11{stroke-miterlimit:10;}.cls-7{stroke:#deb778;stroke-dasharray:0 0 0 4.06;stroke-linecap:round;}.cls-8{stroke:#c89aed;}.cls-14{fill:#deb778;}.cls-15{fill:url(#USGS_19_Inundación_de_tierra_2);}.cls-10{stroke:#1d1d1b;stroke-dasharray:0 0 2 2;stroke-width:.3px;}.cls-16{fill:#ccbc64;}.cls-17{fill:#fcf0c5;}.cls-11{stroke-width:.5px;}.cls-18{fill:#b83521;}</style><pattern id="USGS_19_Inundación_de_tierra_2" x="0" y="0" width="72" height="72" patternTransform="translate(195.52 -16351) rotate(-90)" patternUnits="userSpaceOnUse" viewBox="0 0 72 72"><g><rect class="cls-9" width="72" height="72"/><g><line class="cls-10" x1="71" y1="71" x2="144.44" y2="71"/><line class="cls-10" x1="71" y1="67" x2="144.44" y2="67"/><line class="cls-10" x1="71" y1="63" x2="144.44" y2="63"/><line class="cls-10" x1="71" y1="59" x2="144.44" y2="59"/><line class="cls-10" x1="71" y1="55" x2="144.44" y2="55"/><line class="cls-10" x1="71" y1="51" x2="144.44" y2="51"/><line class="cls-10" x1="71" y1="47" x2="144.44" y2="47"/><line class="cls-10" x1="71" y1="43" x2="144.44" y2="43"/><line class="cls-10" x1="71" y1="39" x2="144.44" y2="39"/><line class="cls-10" x1="71" y1="35" x2="144.44" y2="35"/><line class="cls-10" x1="71" y1="31" x2="144.44" y2="31"/><line class="cls-10" x1="71" y1="27" x2="144.44" y2="27"/><line class="cls-10" x1="71" y1="23" x2="144.44" y2="23"/><line class="cls-10" x1="71" y1="19" x2="144.44" y2="19"/><line class="cls-10" x1="71" y1="15" x2="144.44" y2="15"/><line class="cls-10" x1="71" y1="11" x2="144.44" y2="11"/><line class="cls-10" x1="71" y1="7" x2="144.44" y2="7"/><line class="cls-10" x1="71" y1="3" x2="144.44" y2="3"/></g><g><line class="cls-10" x1="-1" y1="71" x2="72.44" y2="71"/><line class="cls-10" x1="-1" y1="67" x2="72.44" y2="67"/><line class="cls-10" x1="-1" y1="63" x2="72.44" y2="63"/><line class="cls-10" x1="-1" y1="59" x2="72.44" y2="59"/><line class="cls-10" x1="-1" y1="55" x2="72.44" y2="55"/><line class="cls-10" x1="-1" y1="51" x2="72.44" y2="51"/><line class="cls-10" x1="-1" y1="47" x2="72.44" y2="47"/><line class="cls-10" x1="-1" y1="43" x2="72.44" y2="43"/><line class="cls-10" x1="-1" y1="39" x2="72.44" y2="39"/><line class="cls-10" x1="-1" y1="35" x2="72.44" y2="35"/><line class="cls-10" x1="-1" y1="31" x2="72.44" y2="31"/><line class="cls-10" x1="-1" y1="27" x2="72.44" y2="27"/><line class="cls-10" x1="-1" y1="23" x2="72.44" y2="23"/><line class="cls-10" x1="-1" y1="19" x2="72.44" y2="19"/><line class="cls-10" x1="-1" y1="15" x2="72.44" y2="15"/><line class="cls-10" x1="-1" y1="11" x2="72.44" y2="11"/><line class="cls-10" x1="-1" y1="7" x2="72.44" y2="7"/><line class="cls-10" x1="-1" y1="3" x2="72.44" y2="3"/><line class="cls-10" x1="1.04" y1="69" x2="74.48" y2="69"/><line class="cls-10" x1="1.04" y1="65" x2="74.48" y2="65"/><line class="cls-10" x1="1.04" y1="61" x2="74.48" y2="61"/><line class="cls-10" x1="1.04" y1="57" x2="74.48" y2="57"/><line class="cls-10" x1="1.04" y1="53" x2="74.48" y2="53"/><line class="cls-10" x1="1.04" y1="49" x2="74.48" y2="49"/><line class="cls-10" x1="1.04" y1="45" x2="74.48" y2="45"/><line class="cls-10" x1="1.04" y1="41" x2="74.48" y2="41"/><line class="cls-10" x1="1.04" y1="37" x2="74.48" y2="37"/><line class="cls-10" x1="1.04" y1="33" x2="74.48" y2="33"/><line class="cls-10" x1="1.04" y1="29" x2="74.48" y2="29"/><line class="cls-10" x1="1.04" y1="25" x2="74.48" y2="25"/><line class="cls-10" x1="1.04" y1="21" x2="74.48" y2="21"/><line class="cls-10" x1="1.04" y1="17" x2="74.48" y2="17"/><line class="cls-10" x1="1.04" y1="13" x2="74.48" y2="13"/><line class="cls-10" x1="1.04" y1="9" x2="74.48" y2="9"/><line class="cls-10" x1="1.04" y1="5" x2="74.48" y2="5"/><line class="cls-10" x1="1.04" y1="1" x2="74.48" y2="1"/></g><g><line class="cls-10" x1="-73" y1="71" x2=".44" y2="71"/><line class="cls-10" x1="-73" y1="67" x2=".44" y2="67"/><line class="cls-10" x1="-73" y1="63" x2=".44" y2="63"/><line class="cls-10" x1="-73" y1="59" x2=".44" y2="59"/><line class="cls-10" x1="-73" y1="55" x2=".44" y2="55"/><line class="cls-10" x1="-73" y1="51" x2=".44" y2="51"/><line class="cls-10" x1="-73" y1="47" x2=".44" y2="47"/><line class="cls-10" x1="-73" y1="43" x2=".44" y2="43"/><line class="cls-10" x1="-73" y1="39" x2=".44" y2="39"/><line class="cls-10" x1="-73" y1="35" x2=".44" y2="35"/><line class="cls-10" x1="-73" y1="31" x2=".44" y2="31"/><line class="cls-10" x1="-73" y1="27" x2=".44" y2="27"/><line class="cls-10" x1="-73" y1="23" x2=".44" y2="23"/><line class="cls-10" x1="-73" y1="19" x2=".44" y2="19"/><line class="cls-10" x1="-73" y1="15" x2=".44" y2="15"/><line class="cls-10" x1="-73" y1="11" x2=".44" y2="11"/><line class="cls-10" x1="-73" y1="7" x2=".44" y2="7"/><line class="cls-10" x1="-73" y1="3" x2=".44" y2="3"/><line class="cls-10" x1="-70.96" y1="69" x2="2.48" y2="69"/><line class="cls-10" x1="-70.96" y1="65" x2="2.48" y2="65"/><line class="cls-10" x1="-70.96" y1="61" x2="2.48" y2="61"/><line class="cls-10" x1="-70.96" y1="57" x2="2.48" y2="57"/><line class="cls-10" x1="-70.96" y1="53" x2="2.48" y2="53"/><line class="cls-10" x1="-70.96" y1="49" x2="2.48" y2="49"/><line class="cls-10" x1="-70.96" y1="45" x2="2.48" y2="45"/><line class="cls-10" x1="-70.96" y1="41" x2="2.48" y2="41"/><line class="cls-10" x1="-70.96" y1="37" x2="2.48" y2="37"/><line class="cls-10" x1="-70.96" y1="33" x2="2.48" y2="33"/><line class="cls-10" x1="-70.96" y1="29" x2="2.48" y2="29"/><line class="cls-10" x1="-70.96" y1="25" x2="2.48" y2="25"/><line class="cls-10" x1="-70.96" y1="21" x2="2.48" y2="21"/><line class="cls-10" x1="-70.96" y1="17" x2="2.48" y2="17"/><line class="cls-10" x1="-70.96" y1="13" x2="2.48" y2="13"/><line class="cls-10" x1="-70.96" y1="9" x2="2.48" y2="9"/><line class="cls-10" x1="-70.96" y1="5" x2="2.48" y2="5"/><line class="cls-10" x1="-70.96" y1="1" x2="2.48" y2="1"/></g></g></pattern></defs><g id="BG"><g><path class="cls-13" d="M64.02,40c0,11.47-1.89,22.39-5.5,31.74-7.2,2.16-14.94,3.26-23.02,3.26-.49,0-.98-.01-1.47-.02h-.17c-8.18-.15-16.29-1.47-23.6-3.85-3.45-9.22-5.26-19.93-5.26-31.13s1.89-22.38,5.48-31.73c6.73-2.01,14.13-3.13,21.6-3.26,.48-.01,.97-.01,1.45-.01,.54,0,1.08,.01,1.63,.02,8.16,.15,16.27,1.47,23.59,3.84,3.46,9.24,5.27,19.95,5.27,31.14Z"/><path class="cls-15" d="M34.03,5.59V74.98h-.17c-8.18-.15-16.29-1.47-23.6-3.85-3.45-9.22-5.26-19.93-5.26-31.13s1.89-22.38,5.48-31.73c6.73-2.01,14.13-3.13,21.6-3.26,.65,.16,1.3,.36,1.95,.58Z"/></g></g><g id="Capa_9"><g><g><path class="cls-1" d="M9.65,68.46l2.33-.58,5.99-25.93s-1.33-1.45-.96-3.98,.6-6.39,.48-8.68-1.33-7.83,5.3-13.25c6.39-5.18,13.01-4.46,13.98-4.46s11.69,1.93,15.9,10.36c1.33,8.8,.72,12.41,1.08,15.18s-.24,4.58-.24,4.58l5.42,26.39,.48,3.98-15.54,4.82-23.74,.12-11.57-6.39,1.08-2.17Z"/><path class="cls-12" d="M17.33,40.88s-.62-.82-.34-2.61,.76-6.39,.55-7.9,.07-3.57,.07-3.57c0,0,2.75-8.93,11.41-10.86,8.11-1.72,12.51-.27,16.08,1.31s6.87,6.12,7.83,9.76c.27,6.32,.48,13.68,.34,13.88-1.51-4.67-4.6-10.38-15.74-10.65-11.2-.34-17.39,2.06-20.21,10.65Z"/><path d="M52.96,36.09s-3.68-8.66-17.03-8.36c-13.94,.2-18.22,6.87-18.62,9.26-.3,2.79,.02,3.89,.02,3.89,0,0,.68-7.57,10.14-9.77s16.73-.6,20.22,1.99,5.58,7.37,5.58,7.37c0,0,0-3.09-.3-4.38Z"/><path class="cls-2" d="M17.48,27.66s-.24-4.78,1.06-6.84,7.7-9.97,17.25-9.14c9.62,.82,14.78,5.84,16.29,9.21,1.65,3.71,.96,6.39,.96,6.39,0,0-1.99-7.63-8.87-10.52s-14.43-1.72-19.04,.76c-5.85,3.13-7.42,9.77-7.66,10.14Z"/><path class="cls-1" d="M28.93,12.61s3.27,1.95,4.43,3.89c-6.55,.18-12.56,3.92-15.75,10.28-.18-5.24,2.92-11.87,11.32-14.18Z"/><path d="M17.48,27.66s2.28-8.23,8.82-10.74,12.03-1.87,15.71-.99,7.47,4.26,8.64,6.37c1.17,2.16,2.28,4.71,2.28,4.71l-.06,1.48s-2.22-9.17-12.15-10.92c-9.11-1.17-12.96,.35-16.64,2.45-3.85,2.28-6.42,8.58-6.42,8.58l-.18-.93Z"/><path class="cls-2" d="M22.06,46.76l.15-1.8s2.25-.37,1.12-3.67c1.5,.3,1.95-2.47,1.8-3.45,2.55,.15,2.7-2.1,2.7-2.1,0,0,2.17,.45,3.45-.9,2.62,1.27,3.9,.07,3.9,.07,0,0,2.1,1.5,3.9-.07,1.42,1.2,3.6,.82,3.6,.82,0,0-.15,2.47,2.92,2.17,0,3.07,1.35,3.45,1.35,3.45,0,0-.3,2.47,.52,3.22,.67,.15,1.05,.3,1.05,.3l-.15,1.95-2.02,6.07-1.57,2.02,.37,9.07,13.34,3.82-5.55-25.71v-2.06s-3.09-8.6-12.54-9.8-16.66,1.23-20.26,5.05c-1.95,2.92-2.65,6.37-2.65,6.37l-5.47,26.46,13.94-4.12,.15-8.84s-2.1-2.02-2.55-3.37-1.5-4.95-1.5-4.95Z"/><path d="M18.24,38.15s-.51,3.88,.22,6.22c.8,2.34,3.61,2.39,3.61,2.39l2.17,6.03,1.88,2.29-.15,8.84-13.94,4.12,5.41-25.57s-.37-3.07,.8-4.32Z"/><path class="cls-16" d="M33.83,17.02s8.98-1.84,15.72,5.64c-2.65,0-3.25,5.97-2.33,7.69-4.32-2.53-11.55-2.68-14.66-2.22,5.41-1.21,2.82-10.02,1.27-11.12Z"/><path class="cls-1" d="M32.04,30.02s-4.32,3.56-1.99,5.82c-1.73,.6-2.22-.1-2.22-.1,0,0-.25,2.29-2.7,2.1,.11,2.82-1.8,3.45-1.8,3.45,0,0,.72,2.23,.1,2.91-.68,.68-1.55,.56-1.55,.56,0,0,.37,1.86-.81,2.17s-3.72-3.04-3.41-7.43c1.24-4.65,6.14-8.92,14.37-9.47Z"/><path class="cls-1" d="M53.51,41.71s-2.45,6.98-4.7,4.84c-1.29,3.96-2.72,7.28-4.04,8.3,.18,5.84,.08,8.73,.08,8.73l13.64,4.16-4.98-26.03Z"/><path class="cls-2" d="M35.43,60.65v-25.56s2.01,1.54,3.64-.25c1.43,1.59,3.6,.82,3.6,.82,0,0,0,2.24,2.92,2.17-.02,2.53,1.35,3.45,1.35,3.45,0,0-.83,2.96,1.57,3.52-.76,5.14-2.17,8.24-2.17,8.24,0,0-2.46,3.38-5.42,5.28s-5.49,2.32-5.49,2.32Z"/><path class="cls-3" d="M38.72,42.38s1.17-2.37,2.94-2.37,3.03,1.03,3.45,1.59c-.35,2.35-1.77,3.14-3.05,3.23s-2.81-1.21-3.34-2.45Z"/><path class="cls-3" d="M31.94,42.38s-1.17-2.37-2.94-2.37-3.03,1.03-3.45,1.59c.35,2.35,1.77,3.14,3.05,3.23s2.81-1.21,3.34-2.45Z"/><path class="cls-18" d="M31.92,54.01s1.21,2.24,3.44,2.24,3.31-1.59,3.62-2.41c-1.85-1.08-4.69-1.76-7.06,.17Z"/><path class="cls-2" d="M26.38,45.78c1.01,.39,2.66,.81,4.12,.15,.4-.18,.79,.26,.6,.65-1.81,3.62-4.16,2.75-5.32-.19-.15-.37,.23-.75,.6-.61Z"/><path class="cls-2" d="M43.67,57.52s-7.84,5.44-8.33,11.21c5.04-.32,7.76-3.28,8.16-4.96,0-2.88,.16-6.24,.16-6.24Z"/><path d="M40.74,58.8s-4.28,3.64-8.64,11.17c-3.64,5.47-3.8,8.4-3.8,8.4l-19.09-5.39,.08-4.36,16.67-4.7,.15-8.84s5.04,5.55,8.29,5.78,6.34-2.06,6.34-2.06Z"/><path class="cls-2" d="M32.05,69.47s3.06,1.19,7.86-.25,4.86-5.55,4.86-5.55l15.34,4.74-1.12,5.11-26.38,3.18-3.18-2.06s1.62-3.87,2.62-5.18Z"/><path class="cls-2" d="M39.88,17.11s2.24,8.46-2.31,10.91c3.64,.21,6.08,1.05,6.08,1.05,0,0-1.54-6.85,1.54-9.93-1.75-1.33-5.31-2.03-5.31-2.03Z"/><path class="cls-4" d="M31.94,42.38s1.34-2.86,1.39-3.65c-3.49-1.92-5.89-1.67-5.89-1.67l-2.31,.78-.49,2.76,.54,1.42s1.52-2.06,3.34-2.01,3.42,2.37,3.42,2.37Z"/><path class="cls-4" d="M38.72,42.38l-1.7-3.65,1.72-.64,4.32-1.08,2.9,1.08-.59,3.83s-3.12-4.49-6.64,.45Z"/><path class="cls-8" d="M35.23,35.38s1.89,1.55,3.92,.13c.9,.99,2.32,1.25,3.31,.6,0,1.98,2.02,2.2,2.67,2.07-.17,2.58,.39,3.1,1.59,3.44-.77,2.88,.52,3.4,1.38,3.4-.04,1.29,.13,1.16,.13,1.16,0,0-1.25,5.34-3.4,7.75s-5.77,6.2-9.47,6.2"/><path class="cls-5" d="M35.59,11.54s9.41-.22,15.56,7.85c1.47,1.93,2.18,4.34,2.08,6.76-.48,12.52,1.19,13.67,.04,15.09,0,0-.88,5.38-3.4,5.8-1.75,.14-1.12-2.44-1.12-2.44,0,0-2.73,.83-1.33-3.43-2.51,.35-1.68-3.5-1.68-3.5,0,0-3.28,.56-2.86-2.3-1.61,1.25-3.22,.21-3.71-.84-.69,1.23-2.43,1.42-3.84,.2-1.41,1.22-3.15,1.03-3.85-.2-.49,1.05-2.1,2.09-3.71,.84,.42,2.86-2.86,2.3-2.86,2.3,0,0,.83,3.85-1.68,3.5,1.4,4.26-1.33,3.43-1.33,3.43,0,0,.63,2.58-1.12,2.44-2.52-.42-3.24-5.64-3.24-5.64-1.4-1.65,.36-2.73-.12-15.25-.09-2.42,.62-4.83,2.08-6.76,6.16-8.07,15.56-7.85,15.56-7.85h.51Z"/><path class="cls-6" d="M17.55,41.4s-2.57,14.67-5.46,26.51"/><path class="cls-11" d="M53.13,41.4s-.18-11.29-17.69-11.38h-.2c-17.51,.09-17.69,11.38-17.69,11.38"/><path class="cls-6" d="M58.59,67.91c-2.89-11.84-5.31-26.51-5.31-26.51"/><path class="cls-11" d="M53.47,37.26s0-.01-.01-.02c-1.18-3.47-5.11-9.34-18.02-9.41h-.2c-12.98,.07-16.88,6-18.04,9.47"/><path class="cls-11" d="M53.15,27.97s0-.01,0-.03c-1.16-4.75-5.02-12.79-17.7-12.89h-.2c-12.75,.1-16.58,8.22-17.72,12.97"/><path class="cls-11" d="M53.15,29.85s0-.01,0-.03c-1.16-4.75-5.02-12.79-17.7-12.89h-.2c-12.75,.1-16.58,8.22-17.72,12.97"/><path class="cls-6" d="M48.66,46.18s-1.33,4.75-2.1,6.22c-.53,1-3.32,4.89-7.97,7.49-2.02,1.13-4.5,1.13-6.52,0-4.65-2.6-7.44-6.49-7.97-7.49-.77-1.47-2.1-6.22-2.1-6.22"/><path d="M31.87,42.45c-.96-1.76-3.17-2.71-4.91-1.46-.55,.35-1.07,.75-1.73,1.18,.22-1.64,1.94-2.64,3.52-2.66,1.65,0,3.02,1.3,3.47,2.81,.07,.21-.25,.33-.34,.13h0Z"/><path d="M25.96,41.66c.19,2.62,3.25,4.01,5.12,2.05,.09-.14,.3,.01,.21,.14-1.21,1.72-4.12,1.52-5.18-.26-.37-.57-.6-1.19-.71-1.87-.03-.16,.08-.31,.24-.33,.17-.03,.32,.1,.34,.27h0Z"/><path d="M38.55,42.31c.45-1.51,1.81-2.8,3.47-2.81,1.57,.02,3.3,1.02,3.52,2.66-.67-.43-1.18-.83-1.73-1.18-1.75-1.25-3.95-.3-4.91,1.46-.09,.2-.41,.07-.34-.13h0Z"/><path d="M45.37,41.72c-.31,2.99-3.88,4.6-5.9,2.13-.09-.13,.11-.28,.21-.14,1.87,1.96,4.93,.57,5.12-2.05,.02-.39,.64-.33,.57,.06h0Z"/><polygon points="37.18 46.92 37.86 48.94 37.91 49.09 37.74 49.19 35.54 50.56 35.32 50.7 35.1 50.56 32.91 49.19 32.74 49.09 32.79 48.94 33.46 46.92 33.23 49.04 33.11 48.79 35.54 49.66 35.1 49.66 37.54 48.79 37.42 49.04 37.18 46.92 37.18 46.92"/><path d="M40.26,54.11c-.93,1-1.89-.13-2.74-.45-.62-.24-1.4,.04-2.1,.64-.71-.6-1.49-.87-2.11-.64-.85,.32-1.8,1.45-2.73,.45,1.15-.3,1.91-2.01,3.39-2.32,.71-.15,1.17,.06,1.45,.32,.28-.27,.74-.47,1.45-.32,1.47,.32,2.24,2.03,3.39,2.32Z"/><path d="M32.9,55.19c1.35,1.15,3.54,1.02,4.99,.11,0,0,.03,.04,.03,.04-1.04,1.53-4.32,1.63-5.02-.16h0Z"/><path d="M33.58,38.64s-.46,.57-.99,.7c-1.73-1.55-4.12-2.03-5.64-1.96,.38-.25,.6-.55,.73-.83,.91,.06,2.14,.19,2.97,.51,1.47,.56,2.93,1.58,2.93,1.58Z"/><path d="M43.63,37.38c-1.51-.08-3.94,.39-5.7,1.96-.52-.13-.98-.7-.98-.7,0,0,1.45-1.02,2.93-1.58,.89-.34,2.23-.47,3.15-.52,.13,.28,.32,.59,.6,.84Z"/><polyline class="cls-6" points="25.98 54.9 26.04 63.79 9.73 68.61"/><polyline class="cls-6" points="44.86 54.9 44.8 63.79 61.11 68.61"/><path class="cls-11" d="M44.57,64.19c0,3.18-4.09,5.76-9.14,5.76s-9.14-2.58-9.14-5.76"/><path class="cls-11" d="M23.11,64.89s-4.06,.84,.79,2.61c-2.09,1.98-1.22,3.53,2.47,3.22-1.69,2.64,1.11,3.18,2.94,2.47,.56,2.38,4.71,1.91,4.71,1.91"/><path class="cls-11" d="M47.73,64.89s4.06,.84-.79,2.61c2.09,1.98,1.22,3.53-2.47,3.22,1.69,2.64-1.11,3.18-2.94,2.47-.56,2.38-4.71,1.91-4.71,1.91"/></g><polygon class="cls-1" points="26.61 57.06 27.11 64.88 27.13 65.26 26.74 65.37 10.18 69.97 9.91 69 26.47 64.4 26.11 64.88 26.61 57.06 26.61 57.06"/><path d="M28.69,17.76s-1.79,2.72-1.79,5.88c0,3.38,1.79,4.87,1.79,4.87,0,0-4.72,1.79-8.8,4.62,1.68-4.07-.92-8.04-.92-8.04,0,0,2.97-6.51,9.72-7.33Z"/><path class="cls-1" d="M18.05,45.59c.28,3.52-.72,6.88-1.35,10.29-.75,3.38-1.53,6.78-2.82,10,.8-3.36,1.36-6.76,1.95-10.17,.6-3.01,.98-7.3,2.22-10.13h0Z"/></g></g><g id="Frame"><g><path class="cls-12" d="M62.56,4.88C54.4,1.94,45.12,.2,35.25,.02c-.57-.01-1.15-.02-1.72-.02C23.88,0,14.77,1.52,6.72,4.21,2.49,14.22,0,26.6,0,40s2.39,25.22,6.45,35.11c8.16,2.94,17.45,4.69,27.32,4.87,.58,.01,1.15,.02,1.73,.02,9.63,0,18.73-1.51,26.78-4.2,4.24-10.01,6.74-22.39,6.74-35.8s-2.4-25.24-6.46-35.12Zm-4.04,66.86c-7.2,2.16-14.94,3.26-23.02,3.26-.49,0-.98-.01-1.47-.02h-.17c-8.18-.15-16.29-1.47-23.6-3.85-3.45-9.22-5.26-19.93-5.26-31.13s1.89-22.38,5.48-31.73c6.73-2.01,14.13-3.13,21.6-3.26,.48-.01,.97-.01,1.45-.01,.54,0,1.08,.01,1.63,.02,8.16,.15,16.27,1.47,23.59,3.84,3.46,9.24,5.27,19.95,5.27,31.14s-1.89,22.39-5.5,31.74Z"/><path class="cls-14" d="M17.21,2.06h0c1.63,.63,2.06,2.75,.81,3.97l-1.26,1.22s8.35-2.37,18.84-1.69h0c-1-1.49-.45-3.52,1.14-4.34l1-.51S28.26-.43,17.21,2.06Z"/><path class="cls-17" d="M21.81,1.66s.7,2.18-.22,3.1c3.77-.41,7.98-.74,11.12-.74-.33-1.33,1.26-3.4,1.26-3.4,0,0-6.17-.26-12.16,1.03Z"/><path class="cls-14" d="M36.25,79.21h0c-1.52-.87-1.62-3.03-.2-4.04l1.43-1.02s-8.61,1.07-18.88-1.19h0c.76,1.63-.09,3.55-1.79,4.11l-1.07,.36s9.19,2.56,20.5,1.78Z"/><path class="cls-17" d="M19.28,77.8s1.76-1.83,1.3-3.09c4.43,.69,9.11,1.14,12.25,1.14-.33,1.33,.44,3.4,.44,3.4,0,0-8-.16-13.99-1.45Z"/><polygon points="47.48 1.77 47.48 6.73 54.49 8.44 54.49 2.62 47.48 1.77"/><line class="cls-6" x1="45.5" y1="1.23" x2="45.5" y2="6.29"/><line class="cls-6" x1="56.47" y1="3.67" x2="56.47" y2="8.73"/><polygon points="47.48 78.74 47.48 73.78 54.49 72.07 54.49 77.88 47.48 78.74"/><line class="cls-6" x1="45.5" y1="79.28" x2="45.5" y2="74.21"/><line class="cls-6" x1="56.47" y1="76.84" x2="56.47" y2="71.77"/><path d="M33.53,1c.56,0,1.14,0,1.7,.02,9.39,.17,18.33,1.74,26.57,4.65,4.07,10.08,6.22,21.94,6.22,34.33s-2.24,24.79-6.49,34.99c-8.12,2.66-16.87,4.01-26.03,4.01-.56,0-1.12,0-1.71-.02-9.25-.17-18.42-1.78-26.58-4.66C3.15,64.25,1,52.39,1,40S3.23,15.21,7.47,5.02C15.6,2.35,24.37,1,33.53,1m0-1C23.88,0,14.77,1.52,6.72,4.21,2.49,14.22,0,26.6,0,40s2.39,25.22,6.45,35.11c8.16,2.94,17.45,4.69,27.32,4.87,.58,.01,1.15,.02,1.73,.02,9.63,0,18.73-1.51,26.78-4.2,4.24-10.01,6.74-22.39,6.74-35.8s-2.4-25.24-6.46-35.12C54.4,1.94,45.12,.2,35.25,.02c-.57,0-1.15-.02-1.72-.02h0Z"/><path class="cls-14" d="M33.53,6c.52,0,1.04,0,1.61,.02,7.87,.14,15.75,1.4,22.84,3.64,3.3,9,5.04,19.47,5.04,30.34s-1.82,21.82-5.26,30.92c-6.98,2.04-14.47,3.08-22.26,3.08-.48,0-.97,0-1.47-.02h-.15c-7.89-.14-15.78-1.41-22.85-3.65-3.29-8.99-5.03-19.46-5.03-30.33s1.81-21.79,5.24-30.91c6.5-1.89,13.7-2.95,20.86-3.08,.47,0,.96,0,1.43,0m0-1c-.48,0-.97,0-1.45,.01-7.47,.13-14.87,1.25-21.6,3.26-3.59,9.35-5.48,20.26-5.48,31.73s1.81,21.91,5.26,31.13c7.31,2.38,15.42,3.7,23.6,3.85h.17c.49,.01,.98,.02,1.47,.02,8.08,0,15.82-1.1,23.02-3.26,3.61-9.35,5.5-20.27,5.5-31.74s-1.81-21.9-5.27-31.14c-7.32-2.37-15.43-3.69-23.59-3.84-.55,0-1.09-.02-1.63-.02h0Z"/><path class="cls-7" d="M8.14,7.1s-12.66,32.94,0,66.06"/><path class="cls-7" d="M60.88,7.58s12.66,32.94,0,66.06"/></g><path d="M33.53,5c.54,0,1.08,.01,1.63,.02,8.16,.15,16.27,1.47,23.59,3.84,3.46,9.24,5.27,19.95,5.27,31.14s-1.89,22.39-5.5,31.74c-7.2,2.16-14.94,3.26-23.02,3.26-.49,0-.98-.01-1.47-.02h-.17c-8.18-.15-16.29-1.47-23.6-3.85-3.45-9.22-5.26-19.93-5.26-31.13s1.89-22.38,5.48-31.73c6.73-2.01,14.13-3.13,21.6-3.26,.48-.01,.97-.01,1.45-.01m0-1c-.49,0-.98,0-1.47,.01-7.51,.13-15.07,1.27-21.87,3.3l-.47,.14-.18,.46c-3.63,9.45-5.55,20.55-5.55,32.09s1.84,22.17,5.32,31.48l.17,.45,.46,.15c7.37,2.4,15.63,3.75,23.89,3.9h.19c.48,.01,.97,.02,1.47,.02,8.16,0,16-1.11,23.31-3.3l.47-.14,.18-.46c3.64-9.43,5.57-20.53,5.57-32.1s-1.84-22.17-5.33-31.49l-.17-.45-.46-.15c-7.39-2.39-15.65-3.74-23.88-3.89-.58-.01-1.12-.02-1.65-.02h0Z"/></g></svg>