<svg id="Capa_2" xmlns="http://www.w3.org/2000/svg" xmlns:xlink="http://www.w3.org/1999/xlink" viewBox="0 0 69.02 80">
<defs >
<style >
.cls-1{fill:#c89aed;}.cls-2{fill:#fff;}.cls-3{fill:#f8ffbf;}.cls-4{fill:#7b7be8;}.cls-5,.cls-6,.cls-7,.cls-8,.cls-9,.cls-10,.cls-11{fill:none;}.cls-5,.cls-6,.cls-11{stroke:#000;}.cls-5,.cls-7{stroke-linejoin:round;}.cls-12{fill:#a88347;}.cls-13{fill:#782ab5;}.cls-6,.cls-8,.cls-11{stroke-miterlimit:10;}.cls-7{stroke:#deb778;stroke-dasharray:0 0 0 4.06;stroke-linecap:round;}.cls-8{stroke:#c89aed;}.cls-14{fill:#deb778;}.cls-15{fill:url(#USGS_19_Inundación_de_tierra_2);}.cls-10{stroke:#1d1d1b;stroke-dasharray:0 0 2 2;stroke-width:.3px;}.cls-16{fill:#ccbc64;}.cls-17{fill:#fcf0c5;}.cls-11{stroke-width:.5px;}.cls-18{fill:#b83521;}
</style>
<pattern id="USGS_19_Inundación_de_tierra_2" x="0" y="0" width="72" height="72" patternTransform="translate(195.52 -16351) rotate(-90)" patternUnits="userSpaceOnUse" viewBox="0 0 72 72">
<g >
<rect class="cls-9" width="72" height="72">
</rect>
<g >
<line class="cls-10" x1="71" y1="71" x2="144.44" y2="71">
</line>
<line class="cls-10" x1="71" y1="67" x2="144.44" y2="67">
</line>
<line class="cls-10" x1="71" y1="63" x2="144.44" y2="63">
</line>
<line class="cls-10" x1="71" y1="59" x2="144.44" y2="59">
</line>
<line class="cls-10" x1="71" y1="55" x2="144.44" y2="55">
</line>
<line class="cls-10" x1="71" y1="51" x2="144.44" y2="51">
</line>
<line class="cls-10" x1="71" y1="47" x2="144.44" y2="47">
</line>
<line class="cls-10" x1="71" y1="43" x2="144.44" y2="43">
</line>
<line class="cls-10" x1="71" y1="39" x2="144.44" y2="39">
</line>
<line class="cls-10" x1="71" y1="35" x2="144.44" y2="35">
</line>
<line class="cls-10" x1="71" y1="31" x2="144.44" y2="31">
</line>
<line class="cls-10" x1="71" y1="27" x2="144.44" y2="27">
</line>
<line class="cls-10" x1="71" y1="23" x2="144.44" y2="23">
</line>
<line class="cls-10" x1="71" y1="19" x2="144.44" y2="19">
</line>
<line class="cls-10" x1="71" y1="15" x2="144.44" y2="15">
</line>
<line class="cls-10" x1="71" y1="11" x2="144.44" y2="11">
</line>
<line class="cls-10" x1="71" y1="7" x2="144.44" y2="7">
</line>
<line class="cls-10" x1="71" y1="3" x2="144.44" y2="3">
</line>
</g>
<g >
<line class="cls-10" x1="-1" y1="71" x2="72.44" y2="71">
</line>
<line class="cls-10" x1="-1" y1="67" x2="72.44" y2="67">
</line>
<line class="cls-10" x1="-1" y1="63" x2="72.44" y2="63">
</line>
<line class="cls-10" x1="-1" y1="59" x2="72.44" y2="59">
</line>
<line class="cls-10" x1="-1" y1="55" x2="72.44" y2="55">
</line>
<line class="cls-10" x1="-1" y1="51" x2="72.44" y2="51">
</line>
<line class="cls-10" x1="-1" y1="47" x2="72.44" y2="47">
</line>
<line class="cls-10" x1="-1" y1="43" x2="72.44" y2="43">
</line>
<line class="cls-10" x1="-1" y1="39" x2="72.44" y2="39">
</line>
<line class="cls-10" x1="-1" y1="35" x2="72.44" y2="35">
</line>
<line class="cls-10" x1="-1" y1="31" x2="72.44" y2="31">
</line>
<line class="cls-10" x1="-1" y1="27" x2="72.44" y2="27">
</line>
<line class="cls-10" x1="-1" y1="23" x2="72.44" y2="23">
</line>
<line class="cls-10" x1="-1" y1="19" x2="72.44" y2="19">
</line>
<line class="cls-10" x1="-1" y1="15" x2="72.44" y2="15">
</line>
<line class="cls-10" x1="-1" y1="11" x2="72.44" y2="11">
</line>
<line class="cls-10" x1="-1" y1="7" x2="72.44" y2="7">
</line>
<line class="cls-10" x1="-1" y1="3" x2="72.44" y2="3">
</line>
<line class="cls-10" x1="1.04" y1="69" x2="74.48" y2="69">
</line>
<line class="cls-10" x1="1.04" y1="65" x2="74.48" y2="65">
</line>
<line class="cls-10" x1="1.04" y1="61" x2="74.48" y2="61">
</line>
<line class="cls-10" x1="1.04" y1="57" x2="74.48" y2="57">
</line>
<line class="cls-10" x1="1.04" y1="53" x2="74.48" y2="53">
</line>
<line class="cls-10" x1="1.04" y1="49" x2="74.48" y2="49">
</line>
<line class="cls-10" x1="1.04" y1="45" x2="74.48" y2="45">
</line>
<line class="cls-10" x1="1.04" y1="41" x2="74.48" y2="41">
</line>
<line class="cls-10" x1="1.04" y1="37" x2="74.48" y2="37">
</line>
<line class="cls-10" x1="1.04" y1="33" x2="74.48" y2="33">
</line>
<line class="cls-10" x1="1.04" y1="29" x2="74.48" y2="29">
</line>
<line class="cls-10" x1="1.04" y1="25" x2="74.48" y2="25">
</line>
<line class="cls-10" x1="1.04" y1="21" x2="74.48" y2="21">
</line>
<line class="cls-10" x1="1.04" y1="17" x2="74.48" y2="17">
</line>
<line class="cls-10" x1="1.04" y1="13" x2="74.48" y2="13">
</line>
<line class="cls-10" x1="1.04" y1="9" x2="74.48" y2="9">
</line>
<line class="cls-10" x1="1.04" y1="5" x2="74.48" y2="5">
</line>
<line class="cls-10" x1="1.04" y1="1" x2="74.48" y2="1">
</line>
</g>
<g >
<line class="cls-10" x1="-73" y1="71" x2=".44" y2="71">
</line>
<line class="cls-10" x1="-73" y1="67" x2=".44" y2="67">
</line>
<line class="cls-10" x1="-73" y1="63" x2=".44" y2="63">
</line>
<line class="cls-10" x1="-73" y1="59" x2=".44" y2="59">
</line>
<line class="cls-10" x1="-73" y1="55" x2=".44" y2="55">
</line>
<line class="cls-10" x1="-73" y1="51" x2=".44" y2="51">
</line>
<line class="cls-10" x1="-73" y1="47" x2=".44" y2="47">
</line>
<line class="cls-10" x1="-73" y1="43" x2=".44" y2="43">
</line>
<line class="cls-10" x1="-73" y1="39" x2=".44" y2="39">
</line>
<line class="cls-10" x1="-73" y1="35" x2=".44" y2="35">
</line>
<line class="cls-10" x1="-73" y1="31" x2=".44" y2="31">
</line>
<line class="cls-10" x1="-73" y1="27" x2=".44" y2="27">
</line>
<line class="cls-10" x1="-73" y1="23" x2=".44" y2="23">
</line>
<line class="cls-10" x1="-73" y1="19" x2=".44" y2="19">
</line>
<line class="cls-10" x1="-73" y1="15" x2=".44" y2="15">
</line>
<line class="cls-10" x1="-73" y1="11" x2=".44" y2="11">
</line>
<line class="cls-10" x1="-73" y1="7" x2=".44" y2="7">
</line>
<line class="cls-10" x1="-73" y1="3" x2=".44" y2="3">
</line>
<line class="cls-10" x1="-70.96" y1="69" x2="2.48" y2="69">
</line>
<line class="cls-10" x1="-70.96" y1="65" x2="2.48" y2="65">
</line>
<line class="cls-10" x1="-70.96" y1="61" x2="2.48" y2="61">
</line>
<line class="cls-10" x1="-70.96" y1="57" x2="2.48" y2="57">
</line>
<line class="cls-10" x1="-70.96" y1="53" x2="2.48" y2="53">
</line>
<line class="cls-10" x1="-70.96" y1="49" x2="2.48" y2="49">
</line>
<line class="cls-10" x1="-70.96" y1="45" x2="2.48" y2="45">
</line>
<line class="cls-10" x1="-70.96" y1="41" x2="2.48" y2="41">
</line>
<line class="cls-10" x1="-70.96" y1="37" x2="2.48" y2="37">
</line>
<line class="cls-10" x1="-70.96" y1="33" x2="2.48" y2="33">
</line>
<line class="cls-10" x1="-70.96" y1="29" x2="2.48" y2="29">
</line>
<line class="cls-10" x1="-70.96" y1="25" x2="2.48" y2="25">
</line>
<line class="cls-10" x1="-70.96" y1="21" x2="2.48" y2="21">
</line>
<line class="cls-10" x1="-70.96" y1="17" x2="2.48" y2="17">
</line>
<line class="cls-10" x1="-70.96" y1="13" x2="2.48" y2="13">
</line>
<line class="cls-10" x1="-70.96" y1="9" x2="2.48" y2="9">
</line>
<line class="cls-10" x1="-70.96" y1="5" x2="2.48" y2="5">
</line>
<line class="cls-10" x1="-70.96" y1="1" x2="2.48" y2="1">
</line>
</g>
</g>
</pattern>
</defs>

<g id="Capa_9">
<g >
<g >
<path class="cls-1" d="M9.65,68.46l2.33-.58,5.99-25.93s-1.33-1.45-.96-3.98,.6-6.39,.48-8.68-1.33-7.83,5.3-13.25c6.39-5.18,13.01-4.46,13.98-4.46s11.69,1.93,15.9,10.36c1.33,8.8,.72,12.41,1.08,15.18s-.24,4.58-.24,4.58l5.42,26.39,.48,3.98-15.54,4.82-23.74,.12-11.57-6.39,1.08-2.17Z">
</path>
<path class="cls-12" d="M17.33,40.88s-.62-.82-.34-2.61,.76-6.39,.55-7.9,.07-3.57,.07-3.57c0,0,2.75-8.93,11.41-10.86,8.11-1.72,12.51-.27,16.08,1.31s6.87,6.12,7.83,9.76c.27,6.32,.48,13.68,.34,13.88-1.51-4.67-4.6-10.38-15.74-10.65-11.2-.34-17.39,2.06-20.21,10.65Z">
</path>
<path d="M52.96,36.09s-3.68-8.66-17.03-8.36c-13.94,.2-18.22,6.87-18.62,9.26-.3,2.79,.02,3.89,.02,3.89,0,0,.68-7.57,10.14-9.77s16.73-.6,20.22,1.99,5.58,7.37,5.58,7.37c0,0,0-3.09-.3-4.38Z">
</path>
<path class="cls-2" d="M17.48,27.66s-.24-4.78,1.06-6.84,7.7-9.97,17.25-9.14c9.62,.82,14.78,5.84,16.29,9.21,1.65,3.71,.96,6.39,.96,6.39,0,0-1.99-7.63-8.87-10.52s-14.43-1.72-19.04,.76c-5.85,3.13-7.42,9.77-7.66,10.14Z">
</path>
<path class="cls-1" d="M28.93,12.61s3.27,1.95,4.43,3.89c-6.55,.18-12.56,3.92-15.75,10.28-.18-5.24,2.92-11.87,11.32-14.18Z">
</path>
<path d="M17.48,27.66s2.28-8.23,8.82-10.74,12.03-1.87,15.71-.99,7.47,4.26,8.64,6.37c1.17,2.16,2.28,4.71,2.28,4.71l-.06,1.48s-2.22-9.17-12.15-10.92c-9.11-1.17-12.96,.35-16.64,2.45-3.85,2.28-6.42,8.58-6.42,8.58l-.18-.93Z">
</path>
<path class="cls-2" d="M22.06,46.76l.15-1.8s2.25-.37,1.12-3.67c1.5,.3,1.95-2.47,1.8-3.45,2.55,.15,2.7-2.1,2.7-2.1,0,0,2.17,.45,3.45-.9,2.62,1.27,3.9,.07,3.9,.07,0,0,2.1,1.5,3.9-.07,1.42,1.2,3.6,.82,3.6,.82,0,0-.15,2.47,2.92,2.17,0,3.07,1.35,3.45,1.35,3.45,0,0-.3,2.47,.52,3.22,.67,.15,1.05,.3,1.05,.3l-.15,1.95-2.02,6.07-1.57,2.02,.37,9.07,13.34,3.82-5.55-25.71v-2.06s-3.09-8.6-12.54-9.8-16.66,1.23-20.26,5.05c-1.95,2.92-2.65,6.37-2.65,6.37l-5.47,26.46,13.94-4.12,.15-8.84s-2.1-2.02-2.55-3.37-1.5-4.95-1.5-4.95Z">
</path>
<path d="M18.24,38.15s-.51,3.88,.22,6.22c.8,2.34,3.61,2.39,3.61,2.39l2.17,6.03,1.88,2.29-.15,8.84-13.94,4.12,5.41-25.57s-.37-3.07,.8-4.32Z">
</path>
<path class="cls-16" d="M33.83,17.02s8.98-1.84,15.72,5.64c-2.65,0-3.25,5.97-2.33,7.69-4.32-2.53-11.55-2.68-14.66-2.22,5.41-1.21,2.82-10.02,1.27-11.12Z">
</path>
<path class="cls-1" d="M32.04,30.02s-4.32,3.56-1.99,5.82c-1.73,.6-2.22-.1-2.22-.1,0,0-.25,2.29-2.7,2.1,.11,2.82-1.8,3.45-1.8,3.45,0,0,.72,2.23,.1,2.91-.68,.68-1.55,.56-1.55,.56,0,0,.37,1.86-.81,2.17s-3.72-3.04-3.41-7.43c1.24-4.65,6.14-8.92,14.37-9.47Z">
</path>
<path class="cls-1" d="M53.51,41.71s-2.45,6.98-4.7,4.84c-1.29,3.96-2.72,7.28-4.04,8.3,.18,5.84,.08,8.73,.08,8.73l13.64,4.16-4.98-26.03Z">
</path>
<path class="cls-2" d="M35.43,60.65v-25.56s2.01,1.54,3.64-.25c1.43,1.59,3.6,.82,3.6,.82,0,0,0,2.24,2.92,2.17-.02,2.53,1.35,3.45,1.35,3.45,0,0-.83,2.96,1.57,3.52-.76,5.14-2.17,8.24-2.17,8.24,0,0-2.46,3.38-5.42,5.28s-5.49,2.32-5.49,2.32Z">
</path>
<path class="cls-3" d="M38.72,42.38s1.17-2.37,2.94-2.37,3.03,1.03,3.45,1.59c-.35,2.35-1.77,3.14-3.05,3.23s-2.81-1.21-3.34-2.45Z">
</path>
<path class="cls-3" d="M31.94,42.38s-1.17-2.37-2.94-2.37-3.03,1.03-3.45,1.59c.35,2.35,1.77,3.14,3.05,3.23s2.81-1.21,3.34-2.45Z">
</path>
<path class="cls-18" d="M31.92,54.01s1.21,2.24,3.44,2.24,3.31-1.59,3.62-2.41c-1.85-1.08-4.69-1.76-7.06,.17Z">
</path>
<path class="cls-2" d="M26.38,45.78c1.01,.39,2.66,.81,4.12,.15,.4-.18,.79,.26,.6,.65-1.81,3.62-4.16,2.75-5.32-.19-.15-.37,.23-.75,.6-.61Z">
</path>
<path class="cls-2" d="M43.67,57.52s-7.84,5.44-8.33,11.21c5.04-.32,7.76-3.28,8.16-4.96,0-2.88,.16-6.24,.16-6.24Z">
</path>
<path d="M40.74,58.8s-4.28,3.64-8.64,11.17c-3.64,5.47-3.8,8.4-3.8,8.4l-19.09-5.39,.08-4.36,16.67-4.7,.15-8.84s5.04,5.55,8.29,5.78,6.34-2.06,6.34-2.06Z">
</path>
<path class="cls-2" d="M32.05,69.47s3.06,1.19,7.86-.25,4.86-5.55,4.86-5.55l15.34,4.74-1.12,5.11-26.38,3.18-3.18-2.06s1.62-3.87,2.62-5.18Z">
</path>
<path class="cls-2" d="M39.88,17.11s2.24,8.46-2.31,10.91c3.64,.21,6.08,1.05,6.08,1.05,0,0-1.54-6.85,1.54-9.93-1.75-1.33-5.31-2.03-5.31-2.03Z">
</path>
<path class="cls-4" d="M31.94,42.38s1.34-2.86,1.39-3.65c-3.49-1.92-5.89-1.67-5.89-1.67l-2.31,.78-.49,2.76,.54,1.42s1.52-2.06,3.34-2.01,3.42,2.37,3.42,2.37Z">
</path>
<path class="cls-4" d="M38.72,42.38l-1.7-3.65,1.72-.64,4.32-1.08,2.9,1.08-.59,3.83s-3.12-4.49-6.64,.45Z">
</path>
<path class="cls-8" d="M35.23,35.38s1.89,1.55,3.92,.13c.9,.99,2.32,1.25,3.31,.6,0,1.98,2.02,2.2,2.67,2.07-.17,2.58,.39,3.1,1.59,3.44-.77,2.88,.52,3.4,1.38,3.4-.04,1.29,.13,1.16,.13,1.16,0,0-1.25,5.34-3.4,7.75s-5.77,6.2-9.47,6.2">
</path>
<path class="cls-5" d="M35.59,11.54s9.41-.22,15.56,7.85c1.47,1.93,2.18,4.34,2.08,6.76-.48,12.52,1.19,13.67,.04,15.09,0,0-.88,5.38-3.4,5.8-1.75,.14-1.12-2.44-1.12-2.44,0,0-2.73,.83-1.33-3.43-2.51,.35-1.68-3.5-1.68-3.5,0,0-3.28,.56-2.86-2.3-1.61,1.25-3.22,.21-3.71-.84-.69,1.23-2.43,1.42-3.84,.2-1.41,1.22-3.15,1.03-3.85-.2-.49,1.05-2.1,2.09-3.71,.84,.42,2.86-2.86,2.3-2.86,2.3,0,0,.83,3.85-1.68,3.5,1.4,4.26-1.33,3.43-1.33,3.43,0,0,.63,2.58-1.12,2.44-2.52-.42-3.24-5.64-3.24-5.64-1.4-1.65,.36-2.73-.12-15.25-.09-2.42,.62-4.83,2.08-6.76,6.16-8.07,15.56-7.85,15.56-7.85h.51Z">
</path>
<path class="cls-6" d="M17.55,41.4s-2.57,14.67-5.46,26.51">
</path>
<path class="cls-11" d="M53.13,41.4s-.18-11.29-17.69-11.38h-.2c-17.51,.09-17.69,11.38-17.69,11.38">
</path>
<path class="cls-6" d="M58.59,67.91c-2.89-11.84-5.31-26.51-5.31-26.51">
</path>
<path class="cls-11" d="M53.47,37.26s0-.01-.01-.02c-1.18-3.47-5.11-9.34-18.02-9.41h-.2c-12.98,.07-16.88,6-18.04,9.47">
</path>
<path class="cls-11" d="M53.15,27.97s0-.01,0-.03c-1.16-4.75-5.02-12.79-17.7-12.89h-.2c-12.75,.1-16.58,8.22-17.72,12.97">
</path>
<path class="cls-11" d="M53.15,29.85s0-.01,0-.03c-1.16-4.75-5.02-12.79-17.7-12.89h-.2c-12.75,.1-16.58,8.22-17.72,12.97">
</path>
<path class="cls-6" d="M48.66,46.18s-1.33,4.75-2.1,6.22c-.53,1-3.32,4.89-7.97,7.49-2.02,1.13-4.5,1.13-6.52,0-4.65-2.6-7.44-6.49-7.97-7.49-.77-1.47-2.1-6.22-2.1-6.22">
</path>
<path d="M31.87,42.45c-.96-1.76-3.17-2.71-4.91-1.46-.55,.35-1.07,.75-1.73,1.18,.22-1.64,1.94-2.64,3.52-2.66,1.65,0,3.02,1.3,3.47,2.81,.07,.21-.25,.33-.34,.13h0Z">
</path>
<path d="M25.96,41.66c.19,2.62,3.25,4.01,5.12,2.05,.09-.14,.3,.01,.21,.14-1.21,1.72-4.12,1.52-5.18-.26-.37-.57-.6-1.19-.71-1.87-.03-.16,.08-.31,.24-.33,.17-.03,.32,.1,.34,.27h0Z">
</path>
<path d="M38.55,42.31c.45-1.51,1.81-2.8,3.47-2.81,1.57,.02,3.3,1.02,3.52,2.66-.67-.43-1.18-.83-1.73-1.18-1.75-1.25-3.95-.3-4.91,1.46-.09,.2-.41,.07-.34-.13h0Z">
</path>
<path d="M45.37,41.72c-.31,2.99-3.88,4.6-5.9,2.13-.09-.13,.11-.28,.21-.14,1.87,1.96,4.93,.57,5.12-2.05,.02-.39,.64-.33,.57,.06h0Z">
</path>
<polygon points="37.18 46.92 37.86 48.94 37.91 49.09 37.74 49.19 35.54 50.56 35.32 50.7 35.1 50.56 32.91 49.19 32.74 49.09 32.79 48.94 33.46 46.92 33.23 49.04 33.11 48.79 35.54 49.66 35.1 49.66 37.54 48.79 37.42 49.04 37.18 46.92 37.18 46.92">
</polygon>
<path d="M40.26,54.11c-.93,1-1.89-.13-2.74-.45-.62-.24-1.4,.04-2.1,.64-.71-.6-1.49-.87-2.11-.64-.85,.32-1.8,1.45-2.73,.45,1.15-.3,1.91-2.01,3.39-2.32,.71-.15,1.17,.06,1.45,.32,.28-.27,.74-.47,1.45-.32,1.47,.32,2.24,2.03,3.39,2.32Z">
</path>
<path d="M32.9,55.19c1.35,1.15,3.54,1.02,4.99,.11,0,0,.03,.04,.03,.04-1.04,1.53-4.32,1.63-5.02-.16h0Z">
</path>
<path d="M33.58,38.64s-.46,.57-.99,.7c-1.73-1.55-4.12-2.03-5.64-1.96,.38-.25,.6-.55,.73-.83,.91,.06,2.14,.19,2.97,.51,1.47,.56,2.93,1.58,2.93,1.58Z">
</path>
<path d="M43.63,37.38c-1.51-.08-3.94,.39-5.7,1.96-.52-.13-.98-.7-.98-.7,0,0,1.45-1.02,2.93-1.58,.89-.34,2.23-.47,3.15-.52,.13,.28,.32,.59,.6,.84Z">
</path>
<polyline class="cls-6" points="25.98 54.9 26.04 63.79 9.73 68.61">
</polyline>
<polyline class="cls-6" points="44.86 54.9 44.8 63.79 61.11 68.61">
</polyline>
<path class="cls-11" d="M44.57,64.19c0,3.18-4.09,5.76-9.14,5.76s-9.14-2.58-9.14-5.76">
</path>
<path class="cls-11" d="M23.11,64.89s-4.06,.84,.79,2.61c-2.09,1.98-1.22,3.53,2.47,3.22-1.69,2.64,1.11,3.18,2.94,2.47,.56,2.38,4.71,1.91,4.71,1.91">
</path>
<path class="cls-11" d="M47.73,64.89s4.06,.84-.79,2.61c2.09,1.98,1.22,3.53-2.47,3.22,1.69,2.64-1.11,3.18-2.94,2.47-.56,2.38-4.71,1.91-4.71,1.91">
</path>
</g>
<polygon class="cls-1" points="26.61 57.06 27.11 64.88 27.13 65.26 26.74 65.37 10.18 69.97 9.91 69 26.47 64.4 26.11 64.88 26.61 57.06 26.61 57.06">
</polygon>
<path d="M28.69,17.76s-1.79,2.72-1.79,5.88c0,3.38,1.79,4.87,1.79,4.87,0,0-4.72,1.79-8.8,4.62,1.68-4.07-.92-8.04-.92-8.04,0,0,2.97-6.51,9.72-7.33Z">
</path>
<path class="cls-1" d="M18.05,45.59c.28,3.52-.72,6.88-1.35,10.29-.75,3.38-1.53,6.78-2.82,10,.8-3.36,1.36-6.76,1.95-10.17,.6-3.01,.98-7.3,2.22-10.13h0Z">
</path>
</g>
</g>
 <g
     id="g2850">
    <g
       id="g2837">
      <path
         id="path1951"
         d="M 0.056640625 0.04296875 L 0.056640625 79.943359 L 69.308594 79.943359 L 69.308594 0.04296875 L 0.056640625 0.04296875 z M 33.615234 3.5957031 C 34.206332 3.5957038 34.786991 3.6051034 35.421875 3.6152344 C 44.430653 3.7671809 53.471255 5.1336733 61.560547 7.5546875 L 62.064453 7.7070312 L 62.25 8.1640625 C 66.070247 17.605006 66.990234 28.726438 66.990234 40.0625 C 66.990234 51.398562 65.972723 63.025755 61.988281 72.578125 L 61.791016 73.044922 L 61.275391 73.185547 C 53.273669 75.403966 44.691921 76.529297 35.759766 76.529297 C 35.212453 76.529297 34.675812 76.519896 34.150391 76.509766 L 33.943359 76.509766 C 24.901742 76.357819 15.860367 74.989738 7.7929688 72.558594 L 7.2890625 72.40625 L 7.1035156 71.951172 C 3.2942144 62.520359 2.375 51.369168 2.375 40.0625 C 2.375 28.755832 3.3819737 17.127318 7.3554688 7.5546875 L 7.5527344 7.0898438 L 8.0664062 6.9472656 C 15.509867 4.890923 23.785212 3.7371557 32.005859 3.6054688 C 32.542226 3.5953387 33.078867 3.5957031 33.615234 3.5957031 z "
         style="opacity:1;vector-effect:none;fill:#ffffff;fill-opacity:1;fill-rule:nonzero;stroke:none;stroke-width:1.95200002;stroke-linecap:butt;stroke-linejoin:miter;stroke-miterlimit:4;stroke-dasharray:none;stroke-dashoffset:0;stroke-opacity:1" />
    </g>
    <path
       id="path1154-8-2"
       d="m 33.675163,6.6112954 c 0.557696,0 1.115392,0.00956 1.683415,0.019115 8.427403,0.14336 16.803167,1.4049288 24.363042,3.6700176 3.573384,8.830981 4.443772,19.417362 4.443772,29.761551 0,10.344189 -0.95301,21.39888 -4.68131,30.334991 -7.435942,2.064385 -15.429581,3.274388 -23.774362,3.274388 -0.506058,0 -1.012115,-0.0096 -1.518172,-0.01911 h -0.17557 C 25.56792,73.508883 17.192156,72.088619 9.6426089,69.813973 6.0795528,61.002107 5.2088244,50.415411 5.2088244,40.061979 c 0,-10.353432 0.95335,-21.389323 4.6609939,-30.325434 C 16.820359,7.8155201 24.462856,6.7450981 32.177647,6.6208528 c 0.49573,-0.00956 1.001787,-0.00956 1.497516,-0.00956 m 0,-0.9557337 c -0.506057,0 -1.012114,0 -1.518171,0.00956 C 24.40089,5.7893644 16.593149,6.8789009 9.570315,8.8190405 L 9.0849131,8.9528432 8.8990146,9.3924808 C 5.1500599,18.424166 4.1999116,29.394246 4.1999116,40.061979 c 0,10.667733 0.8675267,21.188618 4.461566,30.0865 l 0.1755708,0.430081 0.4750741,0.14336 c 7.6115135,2.293761 16.1421925,3.584001 24.6728715,3.727361 h 0.196227 c 0.495729,0.0096 1.001786,0.01911 1.518171,0.01911 8.427403,0 16.524318,-1.060864 24.073866,-3.153921 l 0.485403,-0.133802 0.185898,-0.439639 c 3.759282,-9.01257 4.719759,-19.983589 4.719759,-30.679055 0,-10.695466 -0.867528,-21.188618 -4.471894,-30.0960578 L 60.516853,9.5358409 60.041779,9.3924808 C 52.409609,7.108277 43.87893,5.8180364 35.379234,5.6746763 34.780227,5.6651187 34.232859,5.6555621 33.675163,5.6555615 Z"
       style="fill:#ff0000;stroke:#ffffff;stroke-width:1.84341729;stroke-miterlimit:4;stroke-dasharray:none" />
    <path
       id="path1154"
       d="m 33.614853,4.6077955 c 0.591098,0 1.182197,0.01013 1.784241,0.02026 8.932155,0.1519464 17.809578,1.4890758 25.822246,3.8898304 3.787408,9.3599041 4.709928,20.5803481 4.709928,31.5440931 0,10.963745 -1.01009,22.680548 -4.961693,32.151879 -7.881312,2.18803 -16.353723,3.302304 -25.198307,3.302304 -0.536368,0 -1.072735,-0.01013 -1.609102,-0.02026 H 33.97608 C 25.022033,75.343956 16.14461,74.006827 8.1428892,71.595943 4.3664269,62.256298 3.443547,51.035521 3.443547,40.061979 c 0,-10.973542 1.01045,-22.670418 4.9401601,-32.1417498 7.3668369,-2.036083 15.4670749,-3.170617 23.6439369,-3.3023039 0.525421,-0.01013 1.061788,-0.01013 1.587209,-0.01013 m 0,-1.0129766 c -0.536367,0 -1.072734,0 -1.609101,0.01013 C 23.785105,3.7366356 15.509726,4.891429 8.0662653,6.9477716 L 7.5517907,7.0895883 7.3547579,7.5555576 C 3.3812628,17.128188 2.3742062,28.755311 2.3742062,40.061979 c 0,11.306668 0.9194864,22.457692 4.7287876,31.888505 l 0.1860865,0.45584 0.5035283,0.151947 c 8.0673984,2.431144 17.1090154,3.798662 26.1506324,3.950608 h 0.207979 c 0.525421,0.01013 1.061788,0.02026 1.609101,0.02026 8.932155,0 17.514028,-1.124404 25.51575,-3.342823 l 0.514475,-0.141816 0.197032,-0.46597 c 3.984442,-9.55237 5.002445,-21.180489 5.002445,-32.516551 0,-11.336062 -0.919487,-22.457692 -4.739734,-31.8986353 L 62.064202,7.7075041 61.560674,7.5555576 C 53.471382,5.1345434 44.429765,3.7670249 35.420987,3.6150784 c -0.634884,-0.01013 -1.215036,-0.020259 -1.806134,-0.02026 z"
       style="fill:#000000;stroke:#000000;stroke-width:1.95382714;stroke-miterlimit:4;stroke-dasharray:none" />
    <g
       id="g1810">
      <path
         d="M 6.5134911,7.7433673 C 5.6489029,6.8479453 4.058602,6.5681013 3.6272194,7.3820013 3.284151,8.0292783 3.3625296,8.5309135 4.395235,8.9201755 3.2963719,9.5187755 1.4857674,9.4447465 1.1893447,7.4467713 0.95320848,5.8551433 2.674739,4.8863543 3.1399725,5.0916244 3.0034432,3.6818714 1.8221094,4.0692802 0.95849208,3.2813384 0.34259068,2.7194046 0.23126071,-0.02624603 0.0561761,0.04378767 -0.0138576,0.21887227 2.7317937,0.33020157 3.2937267,0.94610377 4.0816685,1.8097211 3.6942598,2.9910547 5.1040128,3.1275841 4.8987425,2.6623507 5.8675315,0.94082017 7.4591593,1.1769564 9.4571345,1.4733791 9.5311625,3.2839847 8.9325635,4.3828467 8.5433008,3.3501417 8.041666,3.2717627 7.3943894,3.6148312 6.5804899,4.0462137 6.8603354,5.6365129 7.7557553,6.5011023"
         style="fill:#000000;stroke:#000000;stroke-width:0.1112323px;stroke-linecap:butt;stroke-linejoin:miter;stroke-opacity:1"
         id="path1737-3" />
      <path
         d="m 62.850738,7.7433673 c 0.864588,-0.895422 2.454889,-1.175266 2.886271,-0.361366 0.343069,0.647277 0.26469,1.148912 -0.768015,1.538174 1.098863,0.5986 2.909467,0.524571 3.20589,-1.473404 0.236136,-1.591628 -1.485394,-2.560417 -1.950628,-2.3551469 0.13653,-1.409753 1.317863,-1.0223442 2.181481,-1.810286 0.615901,-0.5619338 0.727231,-3.30758442 0.902316,-3.23755072 0.07003,0.1750846 -2.675618,0.2864139 -3.237551,0.9023161 C 65.28256,1.8097211 65.669969,2.9910547 64.260216,3.1275841 64.465486,2.6623507 63.496697,0.94082018 61.905069,1.1769564 c -1.997975,0.2964227 -2.072003,2.1070283 -1.473404,3.2058903 0.389263,-1.032705 0.890898,-1.111084 1.538174,-0.7680155 0.8139,0.4313825 0.534054,2.0216817 -0.361366,2.8862711"
         style="fill:#000000;stroke:#000000;stroke-width:0.1112323px;stroke-linecap:butt;stroke-linejoin:miter;stroke-opacity:1"
         id="path1737-3-5" />
      <path
         d="m 62.850738,72.244244 c 0.864588,0.895422 2.454889,1.175266 2.886272,0.361366 0.343068,-0.647277 0.264689,-1.148912 -0.768016,-1.538174 1.098863,-0.5986 2.909468,-0.524571 3.20589,1.473404 0.236137,1.591628 -1.485394,2.560417 -1.950628,2.355147 0.13653,1.409753 1.317864,1.022344 2.181481,1.810286 0.615901,0.561934 0.727231,3.307584 0.902316,3.237551 0.07003,-0.175085 -2.675618,-0.286414 -3.237551,-0.902317 -0.787942,-0.863617 -0.400533,-2.04495 -1.810286,-2.18148 0.20527,0.465234 -0.763519,2.186764 -2.355146,1.950628 -1.997976,-0.296423 -2.072004,-2.107028 -1.473405,-3.20589 0.389263,1.032705 0.890898,1.111084 1.538175,0.768015 0.813899,-0.431382 0.534054,-2.021682 -0.361366,-2.886271"
         style="fill:#000000;stroke:#000000;stroke-width:0.1112323px;stroke-linecap:butt;stroke-linejoin:miter;stroke-opacity:1"
         id="path1737-3-7" />
      <path
         d="M 6.513491,72.244245 C 5.648903,73.139667 4.058602,73.419511 3.62722,72.605611 3.284151,71.958334 3.36253,71.456699 4.395235,71.067437 c -1.098863,-0.5986 -2.909467,-0.524571 -3.20589,1.473404 -0.23613599,1.591628 1.485394,2.560417 1.950628,2.355147 -0.13653,1.409753 -1.317863,1.022344 -2.18148099,1.810286 -0.615901,0.561933 -0.727231,3.307584 -0.902316,3.23755 C -0.01385399,79.76874 2.731794,79.65741 3.293727,79.041508 4.081669,78.177891 3.69426,76.996557 5.104013,76.860028 4.898743,77.325261 5.867532,79.046792 7.45916,78.810656 9.457135,78.514233 9.531163,76.703627 8.932564,75.604765 8.543301,76.63747 8.041666,76.715849 7.39439,76.372781 6.58049,75.941398 6.860336,74.351099 7.755756,73.48651"
         style="fill:#000000;stroke:#000000;stroke-width:0.1112323px;stroke-linecap:butt;stroke-linejoin:miter;stroke-opacity:1"
         id="path1737-3-5-5" />
    </g>
    <path
       id="path1154-9"
       d="m 33.712865,7.4258691 c 0.536813,0 1.07363,0.00933 1.620386,0.01865 8.111875,0.1398689 16.174044,1.3707167 23.450873,3.5806479 3.439594,8.615932 4.277395,18.944521 4.277395,29.036812 0,10.092292 -0.917329,20.877786 -4.506039,29.596289 -7.157536,2.014114 -14.851888,3.03982 -22.884234,3.03982 -0.487111,0 -0.974221,-0.0094 -1.461331,-0.01865 H 34.040918 C 25.909161,72.53957 17.846991,71.308722 10.580105,69.089467 7.1504515,60.492184 6.3123238,50.163289 6.3123238,40.061979 c 0,-10.101311 0.9176558,-20.868461 4.4864832,-29.586965 6.690308,-1.8742449 14.046665,-2.9186005 21.472608,-3.0398203 0.47717,-0.00933 0.964281,-0.00933 1.44145,-0.00933 m 0,-0.9324602 c -0.487111,0 -0.974221,0 -1.46133,0.00933 C 24.785826,6.6239532 17.270413,7.686958 10.510517,9.5798526 L 10.043289,9.710397 9.8643508,10.139328 c -3.6085914,8.811751 -4.5231655,19.514693 -4.5231655,29.922651 0,10.407958 0.8350459,20.672644 4.294522,29.353849 l 0.1689973,0.419608 0.4572874,0.13987 c 7.326533,2.237904 15.537818,3.496724 23.749103,3.636593 h 0.188879 c 0.47717,0.0094 0.96428,0.01865 1.461331,0.01865 8.111875,0 15.905636,-1.035031 23.172525,-3.077119 l 0.467228,-0.130544 0.178938,-0.428932 c 3.618533,-8.793101 4.543048,-19.496959 4.543048,-29.931975 0,-10.435016 -0.835047,-20.672644 -4.304463,-29.363174 l -0.168997,-0.419609 -0.457288,-0.13987 C 51.74588,7.9107484 43.534594,6.6519271 35.353133,6.512058 34.776554,6.502738 34.249678,6.493409 33.712865,6.493409 Z"
       style="fill:#000000;stroke:none;stroke-width:1.78642213;stroke-miterlimit:4;stroke-dasharray:none" />
    <path
       id="path1154-9-3"
       d="m 33.712865,7.4258686 c 0.536813,0 1.07363,0.00933 1.620386,0.01865 8.111875,0.1398689 16.174044,1.3707167 23.450873,3.5806484 3.439594,8.615932 4.277395,18.944521 4.277395,29.036812 0,10.092292 -0.917329,20.877786 -4.506039,29.596288 -7.157536,2.014114 -14.851888,3.03982 -22.884234,3.03982 -0.487111,0 -0.974221,-0.0094 -1.461331,-0.01865 H 34.040918 C 25.909161,72.539569 17.846991,71.308722 10.580105,69.089466 7.1504515,60.492184 6.3123238,50.163288 6.3123238,40.061979 c 0,-10.101312 0.9176558,-20.868461 4.4864832,-29.586965 6.690308,-1.8742454 14.046665,-2.918601 21.472608,-3.0398208 0.47717,-0.00933 0.964281,-0.00933 1.44145,-0.00933 m 0,-0.9324602 c -0.487111,0 -0.974221,0 -1.46133,0.00933 C 24.785826,6.6239527 17.270413,7.6869575 10.510517,9.5798521 L 10.043289,9.7103965 9.8643508,10.139328 C 6.2557594,18.951079 5.3411853,29.65402 5.3411853,40.061979 c 0,10.407958 0.8350459,20.672643 4.294522,29.353849 l 0.1689973,0.419608 0.4572874,0.13987 c 7.326533,2.237904 15.537818,3.496724 23.749103,3.636593 h 0.188879 c 0.47717,0.0094 0.96428,0.01865 1.461331,0.01865 8.111875,0 15.905636,-1.035032 23.172525,-3.077119 l 0.467228,-0.130544 0.178938,-0.428932 c 3.618533,-8.793101 4.543048,-19.49696 4.543048,-29.931975 0,-10.435016 -0.835047,-20.672644 -4.304463,-29.363175 l -0.168997,-0.419609 -0.457288,-0.13987 C 51.74588,7.9107479 43.534594,6.6519266 35.353133,6.5120575 34.776554,6.5027375 34.249678,6.4934085 33.712865,6.4934085 Z"
       style="fill:#000000;stroke:none;stroke-width:1.78642213;stroke-miterlimit:4;stroke-dasharray:none" />
  </g>
</svg>
