<svg id="Capa_2" xmlns="http://www.w3.org/2000/svg" xmlns:xlink="http://www.w3.org/1999/xlink" viewBox="0 0 69.02 80">
<defs >
<style >
.cls-1{fill:#c89aed;}.cls-2{fill:#fff;}.cls-3{fill:#f8ffbf;}.cls-4{fill:#7b7be8;}.cls-5{fill:#a88347;}.cls-6{fill:#782ab5;}.cls-7,.cls-8,.cls-9,.cls-10,.cls-11,.cls-12{fill:none;}.cls-7,.cls-8,.cls-12{stroke-miterlimit:10;}.cls-7,.cls-12{stroke:#000;}.cls-8{stroke:#c89aed;stroke-width:2px;}.cls-9{stroke:#deb778;stroke-dasharray:0 0 0 4.06;stroke-linecap:round;stroke-linejoin:round;}.cls-13{fill:#deb778;}.cls-14{fill:url(#USGS_19_Inundación_de_tierra_2);}.cls-11{stroke:#1d1d1b;stroke-dasharray:0 0 2 2;stroke-width:.3px;}.cls-15{fill:#fcf0c5;}.cls-12{stroke-width:.5px;}
</style>
<pattern id="USGS_19_Inundación_de_tierra_2" x="0" y="0" width="72" height="72" patternTransform="translate(51.52 -16351) rotate(-90)" patternUnits="userSpaceOnUse" viewBox="0 0 72 72">
<g >
<rect class="cls-10" width="72" height="72">
</rect>
<g >
<line class="cls-11" x1="71" y1="71" x2="144.44" y2="71">
</line>
<line class="cls-11" x1="71" y1="67" x2="144.44" y2="67">
</line>
<line class="cls-11" x1="71" y1="63" x2="144.44" y2="63">
</line>
<line class="cls-11" x1="71" y1="59" x2="144.44" y2="59">
</line>
<line class="cls-11" x1="71" y1="55" x2="144.44" y2="55">
</line>
<line class="cls-11" x1="71" y1="51" x2="144.44" y2="51">
</line>
<line class="cls-11" x1="71" y1="47" x2="144.44" y2="47">
</line>
<line class="cls-11" x1="71" y1="43" x2="144.44" y2="43">
</line>
<line class="cls-11" x1="71" y1="39" x2="144.44" y2="39">
</line>
<line class="cls-11" x1="71" y1="35" x2="144.44" y2="35">
</line>
<line class="cls-11" x1="71" y1="31" x2="144.44" y2="31">
</line>
<line class="cls-11" x1="71" y1="27" x2="144.44" y2="27">
</line>
<line class="cls-11" x1="71" y1="23" x2="144.44" y2="23">
</line>
<line class="cls-11" x1="71" y1="19" x2="144.44" y2="19">
</line>
<line class="cls-11" x1="71" y1="15" x2="144.44" y2="15">
</line>
<line class="cls-11" x1="71" y1="11" x2="144.44" y2="11">
</line>
<line class="cls-11" x1="71" y1="7" x2="144.44" y2="7">
</line>
<line class="cls-11" x1="71" y1="3" x2="144.44" y2="3">
</line>
</g>
<g >
<line class="cls-11" x1="-1" y1="71" x2="72.44" y2="71">
</line>
<line class="cls-11" x1="-1" y1="67" x2="72.44" y2="67">
</line>
<line class="cls-11" x1="-1" y1="63" x2="72.44" y2="63">
</line>
<line class="cls-11" x1="-1" y1="59" x2="72.44" y2="59">
</line>
<line class="cls-11" x1="-1" y1="55" x2="72.44" y2="55">
</line>
<line class="cls-11" x1="-1" y1="51" x2="72.44" y2="51">
</line>
<line class="cls-11" x1="-1" y1="47" x2="72.44" y2="47">
</line>
<line class="cls-11" x1="-1" y1="43" x2="72.44" y2="43">
</line>
<line class="cls-11" x1="-1" y1="39" x2="72.44" y2="39">
</line>
<line class="cls-11" x1="-1" y1="35" x2="72.44" y2="35">
</line>
<line class="cls-11" x1="-1" y1="31" x2="72.44" y2="31">
</line>
<line class="cls-11" x1="-1" y1="27" x2="72.44" y2="27">
</line>
<line class="cls-11" x1="-1" y1="23" x2="72.44" y2="23">
</line>
<line class="cls-11" x1="-1" y1="19" x2="72.44" y2="19">
</line>
<line class="cls-11" x1="-1" y1="15" x2="72.44" y2="15">
</line>
<line class="cls-11" x1="-1" y1="11" x2="72.44" y2="11">
</line>
<line class="cls-11" x1="-1" y1="7" x2="72.44" y2="7">
</line>
<line class="cls-11" x1="-1" y1="3" x2="72.44" y2="3">
</line>
<line class="cls-11" x1="1.04" y1="69" x2="74.48" y2="69">
</line>
<line class="cls-11" x1="1.04" y1="65" x2="74.48" y2="65">
</line>
<line class="cls-11" x1="1.04" y1="61" x2="74.48" y2="61">
</line>
<line class="cls-11" x1="1.04" y1="57" x2="74.48" y2="57">
</line>
<line class="cls-11" x1="1.04" y1="53" x2="74.48" y2="53">
</line>
<line class="cls-11" x1="1.04" y1="49" x2="74.48" y2="49">
</line>
<line class="cls-11" x1="1.04" y1="45" x2="74.48" y2="45">
</line>
<line class="cls-11" x1="1.04" y1="41" x2="74.48" y2="41">
</line>
<line class="cls-11" x1="1.04" y1="37" x2="74.48" y2="37">
</line>
<line class="cls-11" x1="1.04" y1="33" x2="74.48" y2="33">
</line>
<line class="cls-11" x1="1.04" y1="29" x2="74.48" y2="29">
</line>
<line class="cls-11" x1="1.04" y1="25" x2="74.48" y2="25">
</line>
<line class="cls-11" x1="1.04" y1="21" x2="74.48" y2="21">
</line>
<line class="cls-11" x1="1.04" y1="17" x2="74.48" y2="17">
</line>
<line class="cls-11" x1="1.04" y1="13" x2="74.48" y2="13">
</line>
<line class="cls-11" x1="1.04" y1="9" x2="74.48" y2="9">
</line>
<line class="cls-11" x1="1.04" y1="5" x2="74.48" y2="5">
</line>
<line class="cls-11" x1="1.04" y1="1" x2="74.48" y2="1">
</line>
</g>
<g >
<line class="cls-11" x1="-73" y1="71" x2=".44" y2="71">
</line>
<line class="cls-11" x1="-73" y1="67" x2=".44" y2="67">
</line>
<line class="cls-11" x1="-73" y1="63" x2=".44" y2="63">
</line>
<line class="cls-11" x1="-73" y1="59" x2=".44" y2="59">
</line>
<line class="cls-11" x1="-73" y1="55" x2=".44" y2="55">
</line>
<line class="cls-11" x1="-73" y1="51" x2=".44" y2="51">
</line>
<line class="cls-11" x1="-73" y1="47" x2=".44" y2="47">
</line>
<line class="cls-11" x1="-73" y1="43" x2=".44" y2="43">
</line>
<line class="cls-11" x1="-73" y1="39" x2=".44" y2="39">
</line>
<line class="cls-11" x1="-73" y1="35" x2=".44" y2="35">
</line>
<line class="cls-11" x1="-73" y1="31" x2=".44" y2="31">
</line>
<line class="cls-11" x1="-73" y1="27" x2=".44" y2="27">
</line>
<line class="cls-11" x1="-73" y1="23" x2=".44" y2="23">
</line>
<line class="cls-11" x1="-73" y1="19" x2=".44" y2="19">
</line>
<line class="cls-11" x1="-73" y1="15" x2=".44" y2="15">
</line>
<line class="cls-11" x1="-73" y1="11" x2=".44" y2="11">
</line>
<line class="cls-11" x1="-73" y1="7" x2=".44" y2="7">
</line>
<line class="cls-11" x1="-73" y1="3" x2=".44" y2="3">
</line>
<line class="cls-11" x1="-70.96" y1="69" x2="2.48" y2="69">
</line>
<line class="cls-11" x1="-70.96" y1="65" x2="2.48" y2="65">
</line>
<line class="cls-11" x1="-70.96" y1="61" x2="2.48" y2="61">
</line>
<line class="cls-11" x1="-70.96" y1="57" x2="2.48" y2="57">
</line>
<line class="cls-11" x1="-70.96" y1="53" x2="2.48" y2="53">
</line>
<line class="cls-11" x1="-70.96" y1="49" x2="2.48" y2="49">
</line>
<line class="cls-11" x1="-70.96" y1="45" x2="2.48" y2="45">
</line>
<line class="cls-11" x1="-70.96" y1="41" x2="2.48" y2="41">
</line>
<line class="cls-11" x1="-70.96" y1="37" x2="2.48" y2="37">
</line>
<line class="cls-11" x1="-70.96" y1="33" x2="2.48" y2="33">
</line>
<line class="cls-11" x1="-70.96" y1="29" x2="2.48" y2="29">
</line>
<line class="cls-11" x1="-70.96" y1="25" x2="2.48" y2="25">
</line>
<line class="cls-11" x1="-70.96" y1="21" x2="2.48" y2="21">
</line>
<line class="cls-11" x1="-70.96" y1="17" x2="2.48" y2="17">
</line>
<line class="cls-11" x1="-70.96" y1="13" x2="2.48" y2="13">
</line>
<line class="cls-11" x1="-70.96" y1="9" x2="2.48" y2="9">
</line>
<line class="cls-11" x1="-70.96" y1="5" x2="2.48" y2="5">
</line>
<line class="cls-11" x1="-70.96" y1="1" x2="2.48" y2="1">
</line>
</g>
</g>
</pattern>
</defs>

<g id="Capa_9">
<g >
<g >
<path d="M50.99,40.25c-9.49,1.05-27.89,.67-33.83-.58-5.95-1.24-10.64-5.08-8.44-8.81,1.27-1.98,4.35-3.48,6.95-4.45t.02-.01c2.31-.86,4.25-1.3,4.25-1.3,0,0-.1-3.64,2.59-7.95,3.73-5.08,11.69-4.99,11.69-4.99,7.67,.1,13.13,3.93,13.8,12.75,.87,.12,1.68,.26,2.45,.43,8.16,1.76,10.9,6.07,11.07,6.76,.19,.77,.48,6.62-10.55,8.15Z">
</path>
<path d="M51.25,40.25c-9.49,1.05-27.89,.67-33.83-.58-5.95-1.24-10.64-5.08-8.44-8.81,1.27-1.98,4.35-3.48,6.95-4.45t.02-.01c4.96-1.28,11.65-2.56,18.01-2.38,6.93,.19,12.92,.82,16.77,1.32,8.16,1.76,10.9,6.07,11.07,6.76,.19,.77,.48,6.62-10.55,8.15Z">
</path>
<path class="cls-4" d="M9.15,66.45l8.77-3.65s1.73-4.02,4.66-4.47,21.46-1,24.2,.18c2.74,1.28,3.47,4.02,3.47,4.02l12.14,5.02-1.73,6.67-24.75,3.65-27.21-4.75,.46-6.67Z">
</path>
<path class="cls-1" d="M22.38,54.61l-.45,9.17s2.68,2.68,7.26,4.23c4.41,1.99,4.58,6.31,4.58,6.31h.78s-.35-4.06,2.42-5.18,9.24-3.2,9.33-5.53c.43-6.48,.17-10.37,.17-10.37l-24.08,1.37Z">
</path>
<path class="cls-1" d="M48.15,31.71s-5.95-3.89-14.31-3.67c-8.59,.33-14.09,3.78-14.09,3.78v4.51s-1.1-.55-1.87-.11-.22,5.51,0,7.05,1.54,3.3,2.09,3.74c.33,3.85,1.32,6.39,2.42,7.6s6.39,6.94,6.39,6.94c0,0,5.29,1.98,9.91,.11,4.73-5.07,7.82-8.15,8.15-9.91s.44-4.62,.44-4.62c0,0,1.76-1.76,2.2-4.07s.99-6.28,.11-6.5-2.09,1.43-2.09,1.43l.66-6.28Z">
</path>
<path class="cls-2" d="M34.19,59.4V31.76s9.58-2.8,13.47,.72c0,10.12,0,17.9-.36,18.89s-1.99,3.16-3.52,5.06-4.97,5.51-4.97,5.51c0,0-.15,.08-.41,.2-1.97,.89-4.2-.58-4.2-2.74Z">
</path>
<path class="cls-2" d="M34.58,75.45s-.31-3.96,1.24-5.33,9.6-4.09,10.59-6.75c-.06-3.28,.37-4.87,.37-4.87,0,0,2.48,1.65,3.16,3.82,4.58,2.29,10.16,4.58,10.16,4.58l-.81,6.75-21.49,3.41-3.22-1.61Z">
</path>
<path class="cls-1" d="M28.5,70.41l-5.28,2.69c-.3,.15-.66,.05-.83-.25-.65-1.17-2.11-4.12-2.17-6.89-.01-.56,.68-.82,1.07-.41,1.56,1.6,4.71,2.91,7.12,3.73,.52,.18,.57,.89,.08,1.14Z">
</path>
<path class="cls-3" d="M31.43,41.02s-3.78-.61-7.12,.56c1.89,1.34,2.95,1.89,2.95,1.89,0,0,3.5-1.17,4.17-2.45Z">
</path>
<path class="cls-3" d="M37.02,41.02s3.78-.61,7.12,.56c-1.89,1.34-2.95,1.89-2.95,1.89,0,0-3.5-1.17-4.17-2.45Z">
</path>
<path class="cls-4" d="M48.02,24.91l-10.68-1.08s-11.97-9.83-5.54-11.46c6.5-1.63,13.16,3.77,14.19,5.62,1.11,2,2.03,6.92,2.03,6.92Z">
</path>
<path class="cls-4" d="M36.73,41.02l-.94-4.01,7.49,.86s2.16,1.3,2.52,2c-.9,1.51-1.67,1.63-1.67,1.63,0,0-3.67-1.19-7.41-.47Z">
</path>
<path class="cls-4" d="M31.6,41.02l.5-4.03-7.06,.88s-2.48,1.2-2.84,1.89c.9,1.51,1.99,1.73,1.99,1.73,0,0,3.67-1.19,7.41-.47Z">
</path>
<path class="cls-2" d="M44.83,57.47l-9.09,10.09s7.82-2.34,9.29-4.34c.13-4.41-.2-5.75-.2-5.75Z">
</path>
<path class="cls-8" d="M32.99,62.16c2.73,.31,5.69-.5,5.69-.5,0,0,.26-.43,2.49-2.78,4.15-4.21,5.39-6.19,5.7-8.86s.2-17.79,.2-17.79c0,0-4.49-3.27-13.61-2.36">
</path>
<path class="cls-2" d="M23.62,43.13s2.62,1.43,3.37,1.75c2.68-.75,4.49-2.18,4.49-2.18,0,0-3.06,4.68-5.36,5.3-2.62-1.75-2.49-4.86-2.49-4.86Z">
</path>
<path d="M38.8,61.95l-6.61,8.01s-3.26-2.15-5.56-3.18-4.69-3-4.69-3l.24-8.93s2.46,2.86,3.34,3.97,3.5,3.26,3.5,3.26c0,0,4.48,1.13,9.79-.14Z">
</path>
<path d="M31.53,69.39s-6.11,2.18-9.92,4.8c-7.55-.56-11.48-2.62-11.48-2.62l-1.12-5.49,9.23-3.56s2.06-3.68,3.62-3.68c.37,4.49,.5,4.99,.5,4.99,0,0,4.62,3.99,9.17,5.55Z">
</path>
<path d="M20.08,36.57s-1.09-1.09-2.01-.34-.92,4.42-.69,6.31,1.89,3.9,2.58,4.48c.06-5.17,.12-10.45,.12-10.45Z">
</path>
<path class="cls-7" d="M17.19,39.92c-5.58-1.67-9.09-4.13-9.09-6.87,0-5.05,11.95-9.14,26.7-9.14s26.7,4.09,26.7,9.14c0,3.03-4.31,5.72-10.95,7.38">
</path>
<path class="cls-7" d="M48.07,25.2s-.15-7.2-4.31-9.87c-.72-.46-1.51-.94-2.36-1.39-4.64-2.51-10.24-2.51-14.88,0-.85,.46-1.64,.93-2.37,1.4-4.16,2.67-4.31,9.87-4.31,9.87">
</path>
<path class="cls-7" d="M33.34,62.82c-2.76,0-4.56-.9-4.56-.9,0,0-6.87-6.72-7.99-9.56s-.97-20.39-.97-20.39c0,0,4.33-3.73,13.89-3.73h.3c9.56,0,13.89,3.73,13.89,3.73,0,0,.15,17.55-.97,20.39s-7.99,9.56-7.99,9.56c0,0-1.79,.9-4.56,.9h-1.05Z">
</path>
<path class="cls-7" d="M19.93,37.02s-.98-1.48-2.08-.71-.66,9.51,2.08,10.99">
</path>
<path class="cls-7" d="M47.92,36.93s.76-1.38,1.85-.62,.66,9.51-2.08,10.99">
</path>
<path d="M22.04,39.88s.91-2.62,3.59-3.16,6.48,.27,6.48,.27c0,0-.48,1.39-1.66,1.5s-3.27-.7-5.03-.27-3.37,1.66-3.37,1.66Z">
</path>
<path d="M45.82,39.88s-.91-2.62-3.59-3.16-6.48,.27-6.48,.27c0,0,.48,1.39,1.66,1.5s3.27-.7,5.03-.27,3.37,1.66,3.37,1.66Z">
</path>
<path d="M22.47,32.68c.15,1.12-.13,2.28-.5,3.32-.37,1.07-.32,2.09-.42,3.22-1.24-2.16,.84-4.34,.92-6.54h0Z">
</path>
<path d="M22.04,44.91c.33,2.89,2.77,5.2,2.6,8.17-.52-2.83-2.95-5.16-2.6-8.17h0Z">
</path>
<path d="M45.75,32.68c.08,2.2,2.16,4.38,.92,6.54-.1-1.13-.05-2.15-.42-3.22-.37-1.04-.65-2.2-.5-3.32h0Z">
</path>
<path d="M46.18,44.91c.35,3.01-2.08,5.34-2.6,8.17-.17-2.97,2.26-5.28,2.6-8.17h0Z">
</path>
<path d="M36.02,43.28c.23,1.92,.54,3.88,1.3,5.66-.26,.45-.54,.9-.89,1.29-.14,.18-.41,.39-.63,.53,0,0-.1-.29-.1-.29-.41-1.15-1.16,.16-1.49,.69-.5-.78-1.19-1.92-1.61-.4-.7-.44-1.12-1.13-1.52-1.82,.39-.89,.65-1.85,.84-2.82,.19-.94,.34-1.89,.44-2.84,0,1.94-.2,3.88-.85,5.73,0,0-.01-.18-.01-.18,.24,.4,.49,.78,.8,1.12,.1,.1,.22,.22,.3,.27l-.34,.13c.5-1.44,1.64-.68,2.15,.23,0,0-.42,0-.42,0,.51-.91,1.64-1.67,2.14-.23,0,0-.34-.13-.34-.13,.45-.36,.8-.9,1.11-1.39,0,0-.01,.19-.01,.19-.65-1.84-.87-3.79-.86-5.73h0Z">
</path>
<path class="cls-12" d="M24.28,41.5s3.39-1.33,7.03-.38c-1.22,1.5-4.09,2.2-4.09,2.2,0,0-2.17-.66-2.94-1.82Z">
</path>
<path class="cls-12" d="M44.07,41.5s-3.39-1.33-7.03-.38c1.22,1.5,4.09,2.2,4.09,2.2,0,0,2.17-.66,2.94-1.82Z">
</path>
<path d="M35.94,52.65s-1.17,.12-1.88,.51c-.71-.4-1.88-.51-1.88-.51l-4.49,1.34s3.5-.29,5.48-.19c.42,.3,.7,.37,.89,.34,.19,.04,.48-.04,.89-.34,1.97-.1,5.48,.19,5.48,.19l-4.49-1.34Z">
</path>
<path d="M37.51,55.26c-.71,2.49-6.17,2.49-6.89,0,0,0,.08-.05,.08-.05,1.33,1.22,3.49,.94,5.16,.78,.57-.13,1.18-.33,1.56-.78l.08,.05h0Z">
</path>
<path class="cls-7" d="M21.89,54.51v8.91s.6,1.85,4.08,3.15,6.32,2.89,7.02,4.78,.75,4.48,.75,4.48">
</path>
<path class="cls-7" d="M21.68,58.46s-3.4,1.55-4.05,6.74,3.34,8.94,4.77,10.08c3.52-1.91,8.41-4.11,8.41-4.11,0,0,1.25,3.22,1.49,5.31">
</path>
<path class="cls-7" d="M46.49,53.22v10.2s-.6,1.85-4.08,3.15-6.32,2.89-7.02,4.78-.75,4.48-.75,4.48">
</path>
<path class="cls-7" d="M46.7,58.46s3.4,1.55,4.05,6.74-3.34,8.94-4.77,10.08c-3.52-1.91-8.41-4.11-8.41-4.11,0,0-1.25,3.22-1.49,5.31">
</path>
<line class="cls-7" x1="18.58" y1="62.24" x2="8.11" y2="66.67">
</line>
<line class="cls-7" x1="49.87" y1="62.36" x2="59.8" y2="66.67">
</line>
</g>
<path class="cls-4" d="M38.66,24.23c-6.07,.73-29.78,1.54-29.54,9.66,.1,.71,.43,1.39,.87,1.98-.52-.53-.96-1.18-1.13-1.94-.78-9.36,23.29-10.15,29.8-9.71h0Z">
</path>
<path class="cls-4" d="M21.31,59.16c-4.59,2.56-1.62,9.86-1,13.94,0,0-.96,.27-.96,.27-1.07-4.05-3.22-12.29,1.97-14.21h0Z">
</path>
<path class="cls-4" d="M16.75,63.77c-2.57,1.35-5.09,2.83-7.8,3.89,0,0-.39-.92-.39-.92,2.63-1.23,5.44-2.04,8.19-2.97h0Z">
</path>
<path class="cls-4" d="M22.83,60.17c1.62,3.37,5.06,5.15,7.06,8.22-1.86-.57-3.12-2.01-4.38-3.38-1.18-1.4-2.39-2.99-2.68-4.84h0Z">
</path>
</g>
</g>
 <g
     id="g2850">
    <g
       id="g2837">
      <path
         id="path1951"
         d="M 0.056640625 0.04296875 L 0.056640625 79.943359 L 69.308594 79.943359 L 69.308594 0.04296875 L 0.056640625 0.04296875 z M 33.615234 3.5957031 C 34.206332 3.5957038 34.786991 3.6051034 35.421875 3.6152344 C 44.430653 3.7671809 53.471255 5.1336733 61.560547 7.5546875 L 62.064453 7.7070312 L 62.25 8.1640625 C 66.070247 17.605006 66.990234 28.726438 66.990234 40.0625 C 66.990234 51.398562 65.972723 63.025755 61.988281 72.578125 L 61.791016 73.044922 L 61.275391 73.185547 C 53.273669 75.403966 44.691921 76.529297 35.759766 76.529297 C 35.212453 76.529297 34.675812 76.519896 34.150391 76.509766 L 33.943359 76.509766 C 24.901742 76.357819 15.860367 74.989738 7.7929688 72.558594 L 7.2890625 72.40625 L 7.1035156 71.951172 C 3.2942144 62.520359 2.375 51.369168 2.375 40.0625 C 2.375 28.755832 3.3819737 17.127318 7.3554688 7.5546875 L 7.5527344 7.0898438 L 8.0664062 6.9472656 C 15.509867 4.890923 23.785212 3.7371557 32.005859 3.6054688 C 32.542226 3.5953387 33.078867 3.5957031 33.615234 3.5957031 z "
         style="opacity:1;vector-effect:none;fill:#ffffff;fill-opacity:1;fill-rule:nonzero;stroke:none;stroke-width:1.95200002;stroke-linecap:butt;stroke-linejoin:miter;stroke-miterlimit:4;stroke-dasharray:none;stroke-dashoffset:0;stroke-opacity:1" />
    </g>
    <path
       id="path1154-8-2"
       d="m 33.675163,6.6112954 c 0.557696,0 1.115392,0.00956 1.683415,0.019115 8.427403,0.14336 16.803167,1.4049288 24.363042,3.6700176 3.573384,8.830981 4.443772,19.417362 4.443772,29.761551 0,10.344189 -0.95301,21.39888 -4.68131,30.334991 -7.435942,2.064385 -15.429581,3.274388 -23.774362,3.274388 -0.506058,0 -1.012115,-0.0096 -1.518172,-0.01911 h -0.17557 C 25.56792,73.508883 17.192156,72.088619 9.6426089,69.813973 6.0795528,61.002107 5.2088244,50.415411 5.2088244,40.061979 c 0,-10.353432 0.95335,-21.389323 4.6609939,-30.325434 C 16.820359,7.8155201 24.462856,6.7450981 32.177647,6.6208528 c 0.49573,-0.00956 1.001787,-0.00956 1.497516,-0.00956 m 0,-0.9557337 c -0.506057,0 -1.012114,0 -1.518171,0.00956 C 24.40089,5.7893644 16.593149,6.8789009 9.570315,8.8190405 L 9.0849131,8.9528432 8.8990146,9.3924808 C 5.1500599,18.424166 4.1999116,29.394246 4.1999116,40.061979 c 0,10.667733 0.8675267,21.188618 4.461566,30.0865 l 0.1755708,0.430081 0.4750741,0.14336 c 7.6115135,2.293761 16.1421925,3.584001 24.6728715,3.727361 h 0.196227 c 0.495729,0.0096 1.001786,0.01911 1.518171,0.01911 8.427403,0 16.524318,-1.060864 24.073866,-3.153921 l 0.485403,-0.133802 0.185898,-0.439639 c 3.759282,-9.01257 4.719759,-19.983589 4.719759,-30.679055 0,-10.695466 -0.867528,-21.188618 -4.471894,-30.0960578 L 60.516853,9.5358409 60.041779,9.3924808 C 52.409609,7.108277 43.87893,5.8180364 35.379234,5.6746763 34.780227,5.6651187 34.232859,5.6555621 33.675163,5.6555615 Z"
       style="fill:#ff0000;stroke:#ffffff;stroke-width:1.84341729;stroke-miterlimit:4;stroke-dasharray:none" />
    <path
       id="path1154"
       d="m 33.614853,4.6077955 c 0.591098,0 1.182197,0.01013 1.784241,0.02026 8.932155,0.1519464 17.809578,1.4890758 25.822246,3.8898304 3.787408,9.3599041 4.709928,20.5803481 4.709928,31.5440931 0,10.963745 -1.01009,22.680548 -4.961693,32.151879 -7.881312,2.18803 -16.353723,3.302304 -25.198307,3.302304 -0.536368,0 -1.072735,-0.01013 -1.609102,-0.02026 H 33.97608 C 25.022033,75.343956 16.14461,74.006827 8.1428892,71.595943 4.3664269,62.256298 3.443547,51.035521 3.443547,40.061979 c 0,-10.973542 1.01045,-22.670418 4.9401601,-32.1417498 7.3668369,-2.036083 15.4670749,-3.170617 23.6439369,-3.3023039 0.525421,-0.01013 1.061788,-0.01013 1.587209,-0.01013 m 0,-1.0129766 c -0.536367,0 -1.072734,0 -1.609101,0.01013 C 23.785105,3.7366356 15.509726,4.891429 8.0662653,6.9477716 L 7.5517907,7.0895883 7.3547579,7.5555576 C 3.3812628,17.128188 2.3742062,28.755311 2.3742062,40.061979 c 0,11.306668 0.9194864,22.457692 4.7287876,31.888505 l 0.1860865,0.45584 0.5035283,0.151947 c 8.0673984,2.431144 17.1090154,3.798662 26.1506324,3.950608 h 0.207979 c 0.525421,0.01013 1.061788,0.02026 1.609101,0.02026 8.932155,0 17.514028,-1.124404 25.51575,-3.342823 l 0.514475,-0.141816 0.197032,-0.46597 c 3.984442,-9.55237 5.002445,-21.180489 5.002445,-32.516551 0,-11.336062 -0.919487,-22.457692 -4.739734,-31.8986353 L 62.064202,7.7075041 61.560674,7.5555576 C 53.471382,5.1345434 44.429765,3.7670249 35.420987,3.6150784 c -0.634884,-0.01013 -1.215036,-0.020259 -1.806134,-0.02026 z"
       style="fill:#000000;stroke:#000000;stroke-width:1.95382714;stroke-miterlimit:4;stroke-dasharray:none" />
    <g
       id="g1810">
      <path
         d="M 6.5134911,7.7433673 C 5.6489029,6.8479453 4.058602,6.5681013 3.6272194,7.3820013 3.284151,8.0292783 3.3625296,8.5309135 4.395235,8.9201755 3.2963719,9.5187755 1.4857674,9.4447465 1.1893447,7.4467713 0.95320848,5.8551433 2.674739,4.8863543 3.1399725,5.0916244 3.0034432,3.6818714 1.8221094,4.0692802 0.95849208,3.2813384 0.34259068,2.7194046 0.23126071,-0.02624603 0.0561761,0.04378767 -0.0138576,0.21887227 2.7317937,0.33020157 3.2937267,0.94610377 4.0816685,1.8097211 3.6942598,2.9910547 5.1040128,3.1275841 4.8987425,2.6623507 5.8675315,0.94082017 7.4591593,1.1769564 9.4571345,1.4733791 9.5311625,3.2839847 8.9325635,4.3828467 8.5433008,3.3501417 8.041666,3.2717627 7.3943894,3.6148312 6.5804899,4.0462137 6.8603354,5.6365129 7.7557553,6.5011023"
         style="fill:#000000;stroke:#000000;stroke-width:0.1112323px;stroke-linecap:butt;stroke-linejoin:miter;stroke-opacity:1"
         id="path1737-3" />
      <path
         d="m 62.850738,7.7433673 c 0.864588,-0.895422 2.454889,-1.175266 2.886271,-0.361366 0.343069,0.647277 0.26469,1.148912 -0.768015,1.538174 1.098863,0.5986 2.909467,0.524571 3.20589,-1.473404 0.236136,-1.591628 -1.485394,-2.560417 -1.950628,-2.3551469 0.13653,-1.409753 1.317863,-1.0223442 2.181481,-1.810286 0.615901,-0.5619338 0.727231,-3.30758442 0.902316,-3.23755072 0.07003,0.1750846 -2.675618,0.2864139 -3.237551,0.9023161 C 65.28256,1.8097211 65.669969,2.9910547 64.260216,3.1275841 64.465486,2.6623507 63.496697,0.94082018 61.905069,1.1769564 c -1.997975,0.2964227 -2.072003,2.1070283 -1.473404,3.2058903 0.389263,-1.032705 0.890898,-1.111084 1.538174,-0.7680155 0.8139,0.4313825 0.534054,2.0216817 -0.361366,2.8862711"
         style="fill:#000000;stroke:#000000;stroke-width:0.1112323px;stroke-linecap:butt;stroke-linejoin:miter;stroke-opacity:1"
         id="path1737-3-5" />
      <path
         d="m 62.850738,72.244244 c 0.864588,0.895422 2.454889,1.175266 2.886272,0.361366 0.343068,-0.647277 0.264689,-1.148912 -0.768016,-1.538174 1.098863,-0.5986 2.909468,-0.524571 3.20589,1.473404 0.236137,1.591628 -1.485394,2.560417 -1.950628,2.355147 0.13653,1.409753 1.317864,1.022344 2.181481,1.810286 0.615901,0.561934 0.727231,3.307584 0.902316,3.237551 0.07003,-0.175085 -2.675618,-0.286414 -3.237551,-0.902317 -0.787942,-0.863617 -0.400533,-2.04495 -1.810286,-2.18148 0.20527,0.465234 -0.763519,2.186764 -2.355146,1.950628 -1.997976,-0.296423 -2.072004,-2.107028 -1.473405,-3.20589 0.389263,1.032705 0.890898,1.111084 1.538175,0.768015 0.813899,-0.431382 0.534054,-2.021682 -0.361366,-2.886271"
         style="fill:#000000;stroke:#000000;stroke-width:0.1112323px;stroke-linecap:butt;stroke-linejoin:miter;stroke-opacity:1"
         id="path1737-3-7" />
      <path
         d="M 6.513491,72.244245 C 5.648903,73.139667 4.058602,73.419511 3.62722,72.605611 3.284151,71.958334 3.36253,71.456699 4.395235,71.067437 c -1.098863,-0.5986 -2.909467,-0.524571 -3.20589,1.473404 -0.23613599,1.591628 1.485394,2.560417 1.950628,2.355147 -0.13653,1.409753 -1.317863,1.022344 -2.18148099,1.810286 -0.615901,0.561933 -0.727231,3.307584 -0.902316,3.23755 C -0.01385399,79.76874 2.731794,79.65741 3.293727,79.041508 4.081669,78.177891 3.69426,76.996557 5.104013,76.860028 4.898743,77.325261 5.867532,79.046792 7.45916,78.810656 9.457135,78.514233 9.531163,76.703627 8.932564,75.604765 8.543301,76.63747 8.041666,76.715849 7.39439,76.372781 6.58049,75.941398 6.860336,74.351099 7.755756,73.48651"
         style="fill:#000000;stroke:#000000;stroke-width:0.1112323px;stroke-linecap:butt;stroke-linejoin:miter;stroke-opacity:1"
         id="path1737-3-5-5" />
    </g>
    <path
       id="path1154-9"
       d="m 33.712865,7.4258691 c 0.536813,0 1.07363,0.00933 1.620386,0.01865 8.111875,0.1398689 16.174044,1.3707167 23.450873,3.5806479 3.439594,8.615932 4.277395,18.944521 4.277395,29.036812 0,10.092292 -0.917329,20.877786 -4.506039,29.596289 -7.157536,2.014114 -14.851888,3.03982 -22.884234,3.03982 -0.487111,0 -0.974221,-0.0094 -1.461331,-0.01865 H 34.040918 C 25.909161,72.53957 17.846991,71.308722 10.580105,69.089467 7.1504515,60.492184 6.3123238,50.163289 6.3123238,40.061979 c 0,-10.101311 0.9176558,-20.868461 4.4864832,-29.586965 6.690308,-1.8742449 14.046665,-2.9186005 21.472608,-3.0398203 0.47717,-0.00933 0.964281,-0.00933 1.44145,-0.00933 m 0,-0.9324602 c -0.487111,0 -0.974221,0 -1.46133,0.00933 C 24.785826,6.6239532 17.270413,7.686958 10.510517,9.5798526 L 10.043289,9.710397 9.8643508,10.139328 c -3.6085914,8.811751 -4.5231655,19.514693 -4.5231655,29.922651 0,10.407958 0.8350459,20.672644 4.294522,29.353849 l 0.1689973,0.419608 0.4572874,0.13987 c 7.326533,2.237904 15.537818,3.496724 23.749103,3.636593 h 0.188879 c 0.47717,0.0094 0.96428,0.01865 1.461331,0.01865 8.111875,0 15.905636,-1.035031 23.172525,-3.077119 l 0.467228,-0.130544 0.178938,-0.428932 c 3.618533,-8.793101 4.543048,-19.496959 4.543048,-29.931975 0,-10.435016 -0.835047,-20.672644 -4.304463,-29.363174 l -0.168997,-0.419609 -0.457288,-0.13987 C 51.74588,7.9107484 43.534594,6.6519271 35.353133,6.512058 34.776554,6.502738 34.249678,6.493409 33.712865,6.493409 Z"
       style="fill:#000000;stroke:none;stroke-width:1.78642213;stroke-miterlimit:4;stroke-dasharray:none" />
    <path
       id="path1154-9-3"
       d="m 33.712865,7.4258686 c 0.536813,0 1.07363,0.00933 1.620386,0.01865 8.111875,0.1398689 16.174044,1.3707167 23.450873,3.5806484 3.439594,8.615932 4.277395,18.944521 4.277395,29.036812 0,10.092292 -0.917329,20.877786 -4.506039,29.596288 -7.157536,2.014114 -14.851888,3.03982 -22.884234,3.03982 -0.487111,0 -0.974221,-0.0094 -1.461331,-0.01865 H 34.040918 C 25.909161,72.539569 17.846991,71.308722 10.580105,69.089466 7.1504515,60.492184 6.3123238,50.163288 6.3123238,40.061979 c 0,-10.101312 0.9176558,-20.868461 4.4864832,-29.586965 6.690308,-1.8742454 14.046665,-2.918601 21.472608,-3.0398208 0.47717,-0.00933 0.964281,-0.00933 1.44145,-0.00933 m 0,-0.9324602 c -0.487111,0 -0.974221,0 -1.46133,0.00933 C 24.785826,6.6239527 17.270413,7.6869575 10.510517,9.5798521 L 10.043289,9.7103965 9.8643508,10.139328 C 6.2557594,18.951079 5.3411853,29.65402 5.3411853,40.061979 c 0,10.407958 0.8350459,20.672643 4.294522,29.353849 l 0.1689973,0.419608 0.4572874,0.13987 c 7.326533,2.237904 15.537818,3.496724 23.749103,3.636593 h 0.188879 c 0.47717,0.0094 0.96428,0.01865 1.461331,0.01865 8.111875,0 15.905636,-1.035032 23.172525,-3.077119 l 0.467228,-0.130544 0.178938,-0.428932 c 3.618533,-8.793101 4.543048,-19.49696 4.543048,-29.931975 0,-10.435016 -0.835047,-20.672644 -4.304463,-29.363175 l -0.168997,-0.419609 -0.457288,-0.13987 C 51.74588,7.9107479 43.534594,6.6519266 35.353133,6.5120575 34.776554,6.5027375 34.249678,6.4934085 33.712865,6.4934085 Z"
       style="fill:#000000;stroke:none;stroke-width:1.78642213;stroke-miterlimit:4;stroke-dasharray:none" />
  </g>
</svg>
