<svg id="Capa_2" xmlns="http://www.w3.org/2000/svg" xmlns:xlink="http://www.w3.org/1999/xlink" viewBox="0 0 69.02 80">
<defs >
<style >
.cls-1{fill:#c89aed;}.cls-2{fill:#fff;}.cls-3{fill:#f8ffbf;}.cls-4{fill:#7b7be8;}.cls-5{fill:#a88347;}.cls-6{fill:#782ab5;}.cls-7,.cls-8,.cls-9,.cls-10,.cls-11,.cls-12{fill:none;}.cls-7,.cls-8,.cls-12{stroke-miterlimit:10;}.cls-7,.cls-12{stroke:#000;}.cls-8{stroke:#c89aed;stroke-width:2px;}.cls-9{stroke:#deb778;stroke-dasharray:0 0 0 4.06;stroke-linecap:round;stroke-linejoin:round;}.cls-13{fill:#deb778;}.cls-14{fill:url(#USGS_19_Inundación_de_tierra_2);}.cls-11{stroke:#1d1d1b;stroke-dasharray:0 0 2 2;stroke-width:.3px;}.cls-15{fill:#fcf0c5;}.cls-12{stroke-width:.5px;}
</style>
<pattern id="USGS_19_Inundación_de_tierra_2" x="0" y="0" width="72" height="72" patternTransform="translate(51.52 -16351) rotate(-90)" patternUnits="userSpaceOnUse" viewBox="0 0 72 72">
<g >
<rect class="cls-10" width="72" height="72">
</rect>
<g >
<line class="cls-11" x1="71" y1="71" x2="144.44" y2="71">
</line>
<line class="cls-11" x1="71" y1="67" x2="144.44" y2="67">
</line>
<line class="cls-11" x1="71" y1="63" x2="144.44" y2="63">
</line>
<line class="cls-11" x1="71" y1="59" x2="144.44" y2="59">
</line>
<line class="cls-11" x1="71" y1="55" x2="144.44" y2="55">
</line>
<line class="cls-11" x1="71" y1="51" x2="144.44" y2="51">
</line>
<line class="cls-11" x1="71" y1="47" x2="144.44" y2="47">
</line>
<line class="cls-11" x1="71" y1="43" x2="144.44" y2="43">
</line>
<line class="cls-11" x1="71" y1="39" x2="144.44" y2="39">
</line>
<line class="cls-11" x1="71" y1="35" x2="144.44" y2="35">
</line>
<line class="cls-11" x1="71" y1="31" x2="144.44" y2="31">
</line>
<line class="cls-11" x1="71" y1="27" x2="144.44" y2="27">
</line>
<line class="cls-11" x1="71" y1="23" x2="144.44" y2="23">
</line>
<line class="cls-11" x1="71" y1="19" x2="144.44" y2="19">
</line>
<line class="cls-11" x1="71" y1="15" x2="144.44" y2="15">
</line>
<line class="cls-11" x1="71" y1="11" x2="144.44" y2="11">
</line>
<line class="cls-11" x1="71" y1="7" x2="144.44" y2="7">
</line>
<line class="cls-11" x1="71" y1="3" x2="144.44" y2="3">
</line>
</g>
<g >
<line class="cls-11" x1="-1" y1="71" x2="72.44" y2="71">
</line>
<line class="cls-11" x1="-1" y1="67" x2="72.44" y2="67">
</line>
<line class="cls-11" x1="-1" y1="63" x2="72.44" y2="63">
</line>
<line class="cls-11" x1="-1" y1="59" x2="72.44" y2="59">
</line>
<line class="cls-11" x1="-1" y1="55" x2="72.44" y2="55">
</line>
<line class="cls-11" x1="-1" y1="51" x2="72.44" y2="51">
</line>
<line class="cls-11" x1="-1" y1="47" x2="72.44" y2="47">
</line>
<line class="cls-11" x1="-1" y1="43" x2="72.44" y2="43">
</line>
<line class="cls-11" x1="-1" y1="39" x2="72.44" y2="39">
</line>
<line class="cls-11" x1="-1" y1="35" x2="72.44" y2="35">
</line>
<line class="cls-11" x1="-1" y1="31" x2="72.44" y2="31">
</line>
<line class="cls-11" x1="-1" y1="27" x2="72.44" y2="27">
</line>
<line class="cls-11" x1="-1" y1="23" x2="72.44" y2="23">
</line>
<line class="cls-11" x1="-1" y1="19" x2="72.44" y2="19">
</line>
<line class="cls-11" x1="-1" y1="15" x2="72.44" y2="15">
</line>
<line class="cls-11" x1="-1" y1="11" x2="72.44" y2="11">
</line>
<line class="cls-11" x1="-1" y1="7" x2="72.44" y2="7">
</line>
<line class="cls-11" x1="-1" y1="3" x2="72.44" y2="3">
</line>
<line class="cls-11" x1="1.04" y1="69" x2="74.48" y2="69">
</line>
<line class="cls-11" x1="1.04" y1="65" x2="74.48" y2="65">
</line>
<line class="cls-11" x1="1.04" y1="61" x2="74.48" y2="61">
</line>
<line class="cls-11" x1="1.04" y1="57" x2="74.48" y2="57">
</line>
<line class="cls-11" x1="1.04" y1="53" x2="74.48" y2="53">
</line>
<line class="cls-11" x1="1.04" y1="49" x2="74.48" y2="49">
</line>
<line class="cls-11" x1="1.04" y1="45" x2="74.48" y2="45">
</line>
<line class="cls-11" x1="1.04" y1="41" x2="74.48" y2="41">
</line>
<line class="cls-11" x1="1.04" y1="37" x2="74.48" y2="37">
</line>
<line class="cls-11" x1="1.04" y1="33" x2="74.48" y2="33">
</line>
<line class="cls-11" x1="1.04" y1="29" x2="74.48" y2="29">
</line>
<line class="cls-11" x1="1.04" y1="25" x2="74.48" y2="25">
</line>
<line class="cls-11" x1="1.04" y1="21" x2="74.48" y2="21">
</line>
<line class="cls-11" x1="1.04" y1="17" x2="74.48" y2="17">
</line>
<line class="cls-11" x1="1.04" y1="13" x2="74.48" y2="13">
</line>
<line class="cls-11" x1="1.04" y1="9" x2="74.48" y2="9">
</line>
<line class="cls-11" x1="1.04" y1="5" x2="74.48" y2="5">
</line>
<line class="cls-11" x1="1.04" y1="1" x2="74.48" y2="1">
</line>
</g>
<g >
<line class="cls-11" x1="-73" y1="71" x2=".44" y2="71">
</line>
<line class="cls-11" x1="-73" y1="67" x2=".44" y2="67">
</line>
<line class="cls-11" x1="-73" y1="63" x2=".44" y2="63">
</line>
<line class="cls-11" x1="-73" y1="59" x2=".44" y2="59">
</line>
<line class="cls-11" x1="-73" y1="55" x2=".44" y2="55">
</line>
<line class="cls-11" x1="-73" y1="51" x2=".44" y2="51">
</line>
<line class="cls-11" x1="-73" y1="47" x2=".44" y2="47">
</line>
<line class="cls-11" x1="-73" y1="43" x2=".44" y2="43">
</line>
<line class="cls-11" x1="-73" y1="39" x2=".44" y2="39">
</line>
<line class="cls-11" x1="-73" y1="35" x2=".44" y2="35">
</line>
<line class="cls-11" x1="-73" y1="31" x2=".44" y2="31">
</line>
<line class="cls-11" x1="-73" y1="27" x2=".44" y2="27">
</line>
<line class="cls-11" x1="-73" y1="23" x2=".44" y2="23">
</line>
<line class="cls-11" x1="-73" y1="19" x2=".44" y2="19">
</line>
<line class="cls-11" x1="-73" y1="15" x2=".44" y2="15">
</line>
<line class="cls-11" x1="-73" y1="11" x2=".44" y2="11">
</line>
<line class="cls-11" x1="-73" y1="7" x2=".44" y2="7">
</line>
<line class="cls-11" x1="-73" y1="3" x2=".44" y2="3">
</line>
<line class="cls-11" x1="-70.96" y1="69" x2="2.48" y2="69">
</line>
<line class="cls-11" x1="-70.96" y1="65" x2="2.48" y2="65">
</line>
<line class="cls-11" x1="-70.96" y1="61" x2="2.48" y2="61">
</line>
<line class="cls-11" x1="-70.96" y1="57" x2="2.48" y2="57">
</line>
<line class="cls-11" x1="-70.96" y1="53" x2="2.48" y2="53">
</line>
<line class="cls-11" x1="-70.96" y1="49" x2="2.48" y2="49">
</line>
<line class="cls-11" x1="-70.96" y1="45" x2="2.48" y2="45">
</line>
<line class="cls-11" x1="-70.96" y1="41" x2="2.48" y2="41">
</line>
<line class="cls-11" x1="-70.96" y1="37" x2="2.48" y2="37">
</line>
<line class="cls-11" x1="-70.96" y1="33" x2="2.48" y2="33">
</line>
<line class="cls-11" x1="-70.96" y1="29" x2="2.48" y2="29">
</line>
<line class="cls-11" x1="-70.96" y1="25" x2="2.48" y2="25">
</line>
<line class="cls-11" x1="-70.96" y1="21" x2="2.48" y2="21">
</line>
<line class="cls-11" x1="-70.96" y1="17" x2="2.48" y2="17">
</line>
<line class="cls-11" x1="-70.96" y1="13" x2="2.48" y2="13">
</line>
<line class="cls-11" x1="-70.96" y1="9" x2="2.48" y2="9">
</line>
<line class="cls-11" x1="-70.96" y1="5" x2="2.48" y2="5">
</line>
<line class="cls-11" x1="-70.96" y1="1" x2="2.48" y2="1">
</line>
</g>
</g>
</pattern>
</defs>
  <path
     style="opacity:1;vector-effect:none;fill:#cccccc;fill-opacity:1;fill-rule:nonzero;stroke:none;stroke-width:4.49546146;stroke-linecap:butt;stroke-linejoin:miter;stroke-miterlimit:4;stroke-dasharray:none;stroke-dashoffset:0;stroke-opacity:1"
     d="M -0.08007812,0.36132812 V 80.361328 H 68.919922 V 0.36132812 Z"
     id="rect4304"/>

<g id="Capa_9">
<g >
<g >
<path d="M50.99,40.25c-9.49,1.05-27.89,.67-33.83-.58-5.95-1.24-10.64-5.08-8.44-8.81,1.27-1.98,4.35-3.48,6.95-4.45t.02-.01c2.31-.86,4.25-1.3,4.25-1.3,0,0-.1-3.64,2.59-7.95,3.73-5.08,11.69-4.99,11.69-4.99,7.67,.1,13.13,3.93,13.8,12.75,.87,.12,1.68,.26,2.45,.43,8.16,1.76,10.9,6.07,11.07,6.76,.19,.77,.48,6.62-10.55,8.15Z">
</path>
<path d="M51.25,40.25c-9.49,1.05-27.89,.67-33.83-.58-5.95-1.24-10.64-5.08-8.44-8.81,1.27-1.98,4.35-3.48,6.95-4.45t.02-.01c4.96-1.28,11.65-2.56,18.01-2.38,6.93,.19,12.92,.82,16.77,1.32,8.16,1.76,10.9,6.07,11.07,6.76,.19,.77,.48,6.62-10.55,8.15Z">
</path>
<path class="cls-4" d="M9.15,66.45l8.77-3.65s1.73-4.02,4.66-4.47,21.46-1,24.2,.18c2.74,1.28,3.47,4.02,3.47,4.02l12.14,5.02-1.73,6.67-24.75,3.65-27.21-4.75,.46-6.67Z">
</path>
<path class="cls-1" d="M22.38,54.61l-.45,9.17s2.68,2.68,7.26,4.23c4.41,1.99,4.58,6.31,4.58,6.31h.78s-.35-4.06,2.42-5.18,9.24-3.2,9.33-5.53c.43-6.48,.17-10.37,.17-10.37l-24.08,1.37Z">
</path>
<path class="cls-1" d="M48.15,31.71s-5.95-3.89-14.31-3.67c-8.59,.33-14.09,3.78-14.09,3.78v4.51s-1.1-.55-1.87-.11-.22,5.51,0,7.05,1.54,3.3,2.09,3.74c.33,3.85,1.32,6.39,2.42,7.6s6.39,6.94,6.39,6.94c0,0,5.29,1.98,9.91,.11,4.73-5.07,7.82-8.15,8.15-9.91s.44-4.62,.44-4.62c0,0,1.76-1.76,2.2-4.07s.99-6.28,.11-6.5-2.09,1.43-2.09,1.43l.66-6.28Z">
</path>
<path class="cls-2" d="M34.19,59.4V31.76s9.58-2.8,13.47,.72c0,10.12,0,17.9-.36,18.89s-1.99,3.16-3.52,5.06-4.97,5.51-4.97,5.51c0,0-.15,.08-.41,.2-1.97,.89-4.2-.58-4.2-2.74Z">
</path>
<path class="cls-2" d="M34.58,75.45s-.31-3.96,1.24-5.33,9.6-4.09,10.59-6.75c-.06-3.28,.37-4.87,.37-4.87,0,0,2.48,1.65,3.16,3.82,4.58,2.29,10.16,4.58,10.16,4.58l-.81,6.75-21.49,3.41-3.22-1.61Z">
</path>
<path class="cls-1" d="M28.5,70.41l-5.28,2.69c-.3,.15-.66,.05-.83-.25-.65-1.17-2.11-4.12-2.17-6.89-.01-.56,.68-.82,1.07-.41,1.56,1.6,4.71,2.91,7.12,3.73,.52,.18,.57,.89,.08,1.14Z">
</path>
<path class="cls-3" d="M31.43,41.02s-3.78-.61-7.12,.56c1.89,1.34,2.95,1.89,2.95,1.89,0,0,3.5-1.17,4.17-2.45Z">
</path>
<path class="cls-3" d="M37.02,41.02s3.78-.61,7.12,.56c-1.89,1.34-2.95,1.89-2.95,1.89,0,0-3.5-1.17-4.17-2.45Z">
</path>
<path class="cls-4" d="M48.02,24.91l-10.68-1.08s-11.97-9.83-5.54-11.46c6.5-1.63,13.16,3.77,14.19,5.62,1.11,2,2.03,6.92,2.03,6.92Z">
</path>
<path class="cls-4" d="M36.73,41.02l-.94-4.01,7.49,.86s2.16,1.3,2.52,2c-.9,1.51-1.67,1.63-1.67,1.63,0,0-3.67-1.19-7.41-.47Z">
</path>
<path class="cls-4" d="M31.6,41.02l.5-4.03-7.06,.88s-2.48,1.2-2.84,1.89c.9,1.51,1.99,1.73,1.99,1.73,0,0,3.67-1.19,7.41-.47Z">
</path>
<path class="cls-2" d="M44.83,57.47l-9.09,10.09s7.82-2.34,9.29-4.34c.13-4.41-.2-5.75-.2-5.75Z">
</path>
<path class="cls-8" d="M32.99,62.16c2.73,.31,5.69-.5,5.69-.5,0,0,.26-.43,2.49-2.78,4.15-4.21,5.39-6.19,5.7-8.86s.2-17.79,.2-17.79c0,0-4.49-3.27-13.61-2.36">
</path>
<path class="cls-2" d="M23.62,43.13s2.62,1.43,3.37,1.75c2.68-.75,4.49-2.18,4.49-2.18,0,0-3.06,4.68-5.36,5.3-2.62-1.75-2.49-4.86-2.49-4.86Z">
</path>
<path d="M38.8,61.95l-6.61,8.01s-3.26-2.15-5.56-3.18-4.69-3-4.69-3l.24-8.93s2.46,2.86,3.34,3.97,3.5,3.26,3.5,3.26c0,0,4.48,1.13,9.79-.14Z">
</path>
<path d="M31.53,69.39s-6.11,2.18-9.92,4.8c-7.55-.56-11.48-2.62-11.48-2.62l-1.12-5.49,9.23-3.56s2.06-3.68,3.62-3.68c.37,4.49,.5,4.99,.5,4.99,0,0,4.62,3.99,9.17,5.55Z">
</path>
<path d="M20.08,36.57s-1.09-1.09-2.01-.34-.92,4.42-.69,6.31,1.89,3.9,2.58,4.48c.06-5.17,.12-10.45,.12-10.45Z">
</path>
<path class="cls-7" d="M17.19,39.92c-5.58-1.67-9.09-4.13-9.09-6.87,0-5.05,11.95-9.14,26.7-9.14s26.7,4.09,26.7,9.14c0,3.03-4.31,5.72-10.95,7.38">
</path>
<path class="cls-7" d="M48.07,25.2s-.15-7.2-4.31-9.87c-.72-.46-1.51-.94-2.36-1.39-4.64-2.51-10.24-2.51-14.88,0-.85,.46-1.64,.93-2.37,1.4-4.16,2.67-4.31,9.87-4.31,9.87">
</path>
<path class="cls-7" d="M33.34,62.82c-2.76,0-4.56-.9-4.56-.9,0,0-6.87-6.72-7.99-9.56s-.97-20.39-.97-20.39c0,0,4.33-3.73,13.89-3.73h.3c9.56,0,13.89,3.73,13.89,3.73,0,0,.15,17.55-.97,20.39s-7.99,9.56-7.99,9.56c0,0-1.79,.9-4.56,.9h-1.05Z">
</path>
<path class="cls-7" d="M19.93,37.02s-.98-1.48-2.08-.71-.66,9.51,2.08,10.99">
</path>
<path class="cls-7" d="M47.92,36.93s.76-1.38,1.85-.62,.66,9.51-2.08,10.99">
</path>
<path d="M22.04,39.88s.91-2.62,3.59-3.16,6.48,.27,6.48,.27c0,0-.48,1.39-1.66,1.5s-3.27-.7-5.03-.27-3.37,1.66-3.37,1.66Z">
</path>
<path d="M45.82,39.88s-.91-2.62-3.59-3.16-6.48,.27-6.48,.27c0,0,.48,1.39,1.66,1.5s3.27-.7,5.03-.27,3.37,1.66,3.37,1.66Z">
</path>
<path d="M22.47,32.68c.15,1.12-.13,2.28-.5,3.32-.37,1.07-.32,2.09-.42,3.22-1.24-2.16,.84-4.34,.92-6.54h0Z">
</path>
<path d="M22.04,44.91c.33,2.89,2.77,5.2,2.6,8.17-.52-2.83-2.95-5.16-2.6-8.17h0Z">
</path>
<path d="M45.75,32.68c.08,2.2,2.16,4.38,.92,6.54-.1-1.13-.05-2.15-.42-3.22-.37-1.04-.65-2.2-.5-3.32h0Z">
</path>
<path d="M46.18,44.91c.35,3.01-2.08,5.34-2.6,8.17-.17-2.97,2.26-5.28,2.6-8.17h0Z">
</path>
<path d="M36.02,43.28c.23,1.92,.54,3.88,1.3,5.66-.26,.45-.54,.9-.89,1.29-.14,.18-.41,.39-.63,.53,0,0-.1-.29-.1-.29-.41-1.15-1.16,.16-1.49,.69-.5-.78-1.19-1.92-1.61-.4-.7-.44-1.12-1.13-1.52-1.82,.39-.89,.65-1.85,.84-2.82,.19-.94,.34-1.89,.44-2.84,0,1.94-.2,3.88-.85,5.73,0,0-.01-.18-.01-.18,.24,.4,.49,.78,.8,1.12,.1,.1,.22,.22,.3,.27l-.34,.13c.5-1.44,1.64-.68,2.15,.23,0,0-.42,0-.42,0,.51-.91,1.64-1.67,2.14-.23,0,0-.34-.13-.34-.13,.45-.36,.8-.9,1.11-1.39,0,0-.01,.19-.01,.19-.65-1.84-.87-3.79-.86-5.73h0Z">
</path>
<path class="cls-12" d="M24.28,41.5s3.39-1.33,7.03-.38c-1.22,1.5-4.09,2.2-4.09,2.2,0,0-2.17-.66-2.94-1.82Z">
</path>
<path class="cls-12" d="M44.07,41.5s-3.39-1.33-7.03-.38c1.22,1.5,4.09,2.2,4.09,2.2,0,0,2.17-.66,2.94-1.82Z">
</path>
<path d="M35.94,52.65s-1.17,.12-1.88,.51c-.71-.4-1.88-.51-1.88-.51l-4.49,1.34s3.5-.29,5.48-.19c.42,.3,.7,.37,.89,.34,.19,.04,.48-.04,.89-.34,1.97-.1,5.48,.19,5.48,.19l-4.49-1.34Z">
</path>
<path d="M37.51,55.26c-.71,2.49-6.17,2.49-6.89,0,0,0,.08-.05,.08-.05,1.33,1.22,3.49,.94,5.16,.78,.57-.13,1.18-.33,1.56-.78l.08,.05h0Z">
</path>
<path class="cls-7" d="M21.89,54.51v8.91s.6,1.85,4.08,3.15,6.32,2.89,7.02,4.78,.75,4.48,.75,4.48">
</path>
<path class="cls-7" d="M21.68,58.46s-3.4,1.55-4.05,6.74,3.34,8.94,4.77,10.08c3.52-1.91,8.41-4.11,8.41-4.11,0,0,1.25,3.22,1.49,5.31">
</path>
<path class="cls-7" d="M46.49,53.22v10.2s-.6,1.85-4.08,3.15-6.32,2.89-7.02,4.78-.75,4.48-.75,4.48">
</path>
<path class="cls-7" d="M46.7,58.46s3.4,1.55,4.05,6.74-3.34,8.94-4.77,10.08c-3.52-1.91-8.41-4.11-8.41-4.11,0,0-1.25,3.22-1.49,5.31">
</path>
<line class="cls-7" x1="18.58" y1="62.24" x2="8.11" y2="66.67">
</line>
<line class="cls-7" x1="49.87" y1="62.36" x2="59.8" y2="66.67">
</line>
</g>
<path class="cls-4" d="M38.66,24.23c-6.07,.73-29.78,1.54-29.54,9.66,.1,.71,.43,1.39,.87,1.98-.52-.53-.96-1.18-1.13-1.94-.78-9.36,23.29-10.15,29.8-9.71h0Z">
</path>
<path class="cls-4" d="M21.31,59.16c-4.59,2.56-1.62,9.86-1,13.94,0,0-.96,.27-.96,.27-1.07-4.05-3.22-12.29,1.97-14.21h0Z">
</path>
<path class="cls-4" d="M16.75,63.77c-2.57,1.35-5.09,2.83-7.8,3.89,0,0-.39-.92-.39-.92,2.63-1.23,5.44-2.04,8.19-2.97h0Z">
</path>
<path class="cls-4" d="M22.83,60.17c1.62,3.37,5.06,5.15,7.06,8.22-1.86-.57-3.12-2.01-4.38-3.38-1.18-1.4-2.39-2.99-2.68-4.84h0Z">
</path>
</g>
</g>

  <path
     style="opacity:1;vector-effect:none;fill:#8d5fd3;fill-opacity:1;fill-rule:nonzero;stroke:none;stroke-width:2.35769176;stroke-linecap:butt;stroke-linejoin:miter;stroke-miterlimit:4;stroke-dasharray:none;stroke-dashoffset:0;stroke-opacity:0.44186048"
     d="M 0,1.2e-7 V 80 H 69 V 1.2e-7 Z M 35.240234,4.658203 c 6.067554,0.1120422 16.269844,1.4698438 23.589844,3.8398438 3.46,9.2400002 5.269531,19.9506252 5.269531,31.1406252 0,11.47 -1.89,22.390234 -5.5,31.740234 -7.2,2.16 -14.940375,3.376539 -23.019531,3.259766 -8.580486,-0.124019 -18.036001,-1.572896 -25.240234,-3.86914 -3.4500003,-9.22 -5.2597659,-19.930859 -5.2597659,-31.130859 0,-11.2 1.8904687,-22.380469 5.4804689,-31.730469 C 17.682894,5.1336941 29.17268,4.5461608 35.240234,4.658203 Z"
     id="rect4304" />


</svg>
