<?xml version="1.0" encoding="UTF-8"?><svg id="Capa_2" xmlns="http://www.w3.org/2000/svg" xmlns:xlink="http://www.w3.org/1999/xlink" viewBox="0 0 69.02 80"><defs><style>.cls-1{fill:#c89aed;}.cls-2{fill:#fff;}.cls-3{fill:#f8ffbf;}.cls-4{fill:#7b7be8;}.cls-5{fill:#a88347;}.cls-6{fill:#782ab5;}.cls-7,.cls-8,.cls-9,.cls-10,.cls-11,.cls-12,.cls-13{fill:none;}.cls-7,.cls-8,.cls-9,.cls-13{stroke-miterlimit:10;}.cls-7,.cls-9,.cls-13{stroke:#000;}.cls-8{stroke:#c89aed;}.cls-8,.cls-9{stroke-width:2px;}.cls-9,.cls-10{stroke-linecap:round;}.cls-14{fill:#1c46ff;}.cls-10{stroke:#deb778;stroke-dasharray:0 0 0 4.06;stroke-linejoin:round;}.cls-15{fill:#deb778;}.cls-16{fill:url(#USGS_19_Inundación_de_tierra_2);}.cls-12{stroke:#1d1d1b;stroke-dasharray:0 0 2 2;stroke-width:.3px;}.cls-17{fill:#fcf0c5;}.cls-13{stroke-width:.5px;}</style><pattern id="USGS_19_Inundación_de_tierra_2" x="0" y="0" width="72" height="72" patternTransform="translate(-20.48 -16351) rotate(-90)" patternUnits="userSpaceOnUse" viewBox="0 0 72 72"><g><rect class="cls-11" width="72" height="72"/><g><line class="cls-12" x1="71" y1="71" x2="144.44" y2="71"/><line class="cls-12" x1="71" y1="67" x2="144.44" y2="67"/><line class="cls-12" x1="71" y1="63" x2="144.44" y2="63"/><line class="cls-12" x1="71" y1="59" x2="144.44" y2="59"/><line class="cls-12" x1="71" y1="55" x2="144.44" y2="55"/><line class="cls-12" x1="71" y1="51" x2="144.44" y2="51"/><line class="cls-12" x1="71" y1="47" x2="144.44" y2="47"/><line class="cls-12" x1="71" y1="43" x2="144.44" y2="43"/><line class="cls-12" x1="71" y1="39" x2="144.44" y2="39"/><line class="cls-12" x1="71" y1="35" x2="144.44" y2="35"/><line class="cls-12" x1="71" y1="31" x2="144.44" y2="31"/><line class="cls-12" x1="71" y1="27" x2="144.44" y2="27"/><line class="cls-12" x1="71" y1="23" x2="144.44" y2="23"/><line class="cls-12" x1="71" y1="19" x2="144.44" y2="19"/><line class="cls-12" x1="71" y1="15" x2="144.44" y2="15"/><line class="cls-12" x1="71" y1="11" x2="144.44" y2="11"/><line class="cls-12" x1="71" y1="7" x2="144.44" y2="7"/><line class="cls-12" x1="71" y1="3" x2="144.44" y2="3"/></g><g><line class="cls-12" x1="-1" y1="71" x2="72.44" y2="71"/><line class="cls-12" x1="-1" y1="67" x2="72.44" y2="67"/><line class="cls-12" x1="-1" y1="63" x2="72.44" y2="63"/><line class="cls-12" x1="-1" y1="59" x2="72.44" y2="59"/><line class="cls-12" x1="-1" y1="55" x2="72.44" y2="55"/><line class="cls-12" x1="-1" y1="51" x2="72.44" y2="51"/><line class="cls-12" x1="-1" y1="47" x2="72.44" y2="47"/><line class="cls-12" x1="-1" y1="43" x2="72.44" y2="43"/><line class="cls-12" x1="-1" y1="39" x2="72.44" y2="39"/><line class="cls-12" x1="-1" y1="35" x2="72.44" y2="35"/><line class="cls-12" x1="-1" y1="31" x2="72.44" y2="31"/><line class="cls-12" x1="-1" y1="27" x2="72.44" y2="27"/><line class="cls-12" x1="-1" y1="23" x2="72.44" y2="23"/><line class="cls-12" x1="-1" y1="19" x2="72.44" y2="19"/><line class="cls-12" x1="-1" y1="15" x2="72.44" y2="15"/><line class="cls-12" x1="-1" y1="11" x2="72.44" y2="11"/><line class="cls-12" x1="-1" y1="7" x2="72.44" y2="7"/><line class="cls-12" x1="-1" y1="3" x2="72.44" y2="3"/><line class="cls-12" x1="1.04" y1="69" x2="74.48" y2="69"/><line class="cls-12" x1="1.04" y1="65" x2="74.48" y2="65"/><line class="cls-12" x1="1.04" y1="61" x2="74.48" y2="61"/><line class="cls-12" x1="1.04" y1="57" x2="74.48" y2="57"/><line class="cls-12" x1="1.04" y1="53" x2="74.48" y2="53"/><line class="cls-12" x1="1.04" y1="49" x2="74.48" y2="49"/><line class="cls-12" x1="1.04" y1="45" x2="74.48" y2="45"/><line class="cls-12" x1="1.04" y1="41" x2="74.48" y2="41"/><line class="cls-12" x1="1.04" y1="37" x2="74.48" y2="37"/><line class="cls-12" x1="1.04" y1="33" x2="74.48" y2="33"/><line class="cls-12" x1="1.04" y1="29" x2="74.48" y2="29"/><line class="cls-12" x1="1.04" y1="25" x2="74.48" y2="25"/><line class="cls-12" x1="1.04" y1="21" x2="74.48" y2="21"/><line class="cls-12" x1="1.04" y1="17" x2="74.48" y2="17"/><line class="cls-12" x1="1.04" y1="13" x2="74.48" y2="13"/><line class="cls-12" x1="1.04" y1="9" x2="74.48" y2="9"/><line class="cls-12" x1="1.04" y1="5" x2="74.48" y2="5"/><line class="cls-12" x1="1.04" y1="1" x2="74.48" y2="1"/></g><g><line class="cls-12" x1="-73" y1="71" x2=".44" y2="71"/><line class="cls-12" x1="-73" y1="67" x2=".44" y2="67"/><line class="cls-12" x1="-73" y1="63" x2=".44" y2="63"/><line class="cls-12" x1="-73" y1="59" x2=".44" y2="59"/><line class="cls-12" x1="-73" y1="55" x2=".44" y2="55"/><line class="cls-12" x1="-73" y1="51" x2=".44" y2="51"/><line class="cls-12" x1="-73" y1="47" x2=".44" y2="47"/><line class="cls-12" x1="-73" y1="43" x2=".44" y2="43"/><line class="cls-12" x1="-73" y1="39" x2=".44" y2="39"/><line class="cls-12" x1="-73" y1="35" x2=".44" y2="35"/><line class="cls-12" x1="-73" y1="31" x2=".44" y2="31"/><line class="cls-12" x1="-73" y1="27" x2=".44" y2="27"/><line class="cls-12" x1="-73" y1="23" x2=".44" y2="23"/><line class="cls-12" x1="-73" y1="19" x2=".44" y2="19"/><line class="cls-12" x1="-73" y1="15" x2=".44" y2="15"/><line class="cls-12" x1="-73" y1="11" x2=".44" y2="11"/><line class="cls-12" x1="-73" y1="7" x2=".44" y2="7"/><line class="cls-12" x1="-73" y1="3" x2=".44" y2="3"/><line class="cls-12" x1="-70.96" y1="69" x2="2.48" y2="69"/><line class="cls-12" x1="-70.96" y1="65" x2="2.48" y2="65"/><line class="cls-12" x1="-70.96" y1="61" x2="2.48" y2="61"/><line class="cls-12" x1="-70.96" y1="57" x2="2.48" y2="57"/><line class="cls-12" x1="-70.96" y1="53" x2="2.48" y2="53"/><line class="cls-12" x1="-70.96" y1="49" x2="2.48" y2="49"/><line class="cls-12" x1="-70.96" y1="45" x2="2.48" y2="45"/><line class="cls-12" x1="-70.96" y1="41" x2="2.48" y2="41"/><line class="cls-12" x1="-70.96" y1="37" x2="2.48" y2="37"/><line class="cls-12" x1="-70.96" y1="33" x2="2.48" y2="33"/><line class="cls-12" x1="-70.96" y1="29" x2="2.48" y2="29"/><line class="cls-12" x1="-70.96" y1="25" x2="2.48" y2="25"/><line class="cls-12" x1="-70.96" y1="21" x2="2.48" y2="21"/><line class="cls-12" x1="-70.96" y1="17" x2="2.48" y2="17"/><line class="cls-12" x1="-70.96" y1="13" x2="2.48" y2="13"/><line class="cls-12" x1="-70.96" y1="9" x2="2.48" y2="9"/><line class="cls-12" x1="-70.96" y1="5" x2="2.48" y2="5"/><line class="cls-12" x1="-70.96" y1="1" x2="2.48" y2="1"/></g></g></pattern></defs><g id="BG"><g><path class="cls-6" d="M64.02,40c0,11.47-1.89,22.39-5.5,31.74-7.2,2.16-14.94,3.26-23.02,3.26-.49,0-.98-.01-1.47-.02h-.17c-8.18-.15-16.29-1.47-23.6-3.85-3.45-9.22-5.26-19.93-5.26-31.13s1.89-22.38,5.48-31.73c6.73-2.01,14.13-3.13,21.6-3.26,.48-.01,.97-.01,1.45-.01,.54,0,1.08,.01,1.63,.02,8.16,.15,16.27,1.47,23.59,3.84,3.46,9.24,5.27,19.95,5.27,31.14Z"/><path class="cls-16" d="M34.03,5.59V74.98h-.17c-8.18-.15-16.29-1.47-23.6-3.85-3.45-9.22-5.26-19.93-5.26-31.13s1.89-22.38,5.48-31.73c6.73-2.01,14.13-3.13,21.6-3.26,.65,.16,1.3,.36,1.95,.58Z"/></g></g><g id="Capa_9"><g><g><path class="cls-1" d="M60.98,64.35l-.3,9.23-24.9,3.67-26.1-3.67-1.99-9.63,14.59-6.15-.1-3.47s-.4-.2-2.98-5.46c-3.57,0-5.06-4.37-5.06-8.04s1.39-5.45,4.07-4.46c0-.9,.4-6.45,.4-6.45,0,0,.05-.14-.65-.04h-.03c-.25,.04-.61,.11-1.1,.23,0,0,0-.01-.01,0-.12,.03-.26,.06-.4,.1-.25-.16-.48-.34-.7-.53-1.54-1.36-2.35-3.44-1.48-4.82,.99-1.59,3.97-4.37,9.83-8.44,5.16-3.27,11.11-2.78,11.11-2.78,0,0,6.75,1.29,8.34,2.38,1.58,1.1,6.05,4.87,8.13,6.55,2.09,1.69,2.58,4.27,2.38,5.36-.12,.68-1.57,1.66-2.67,2.31-.67,.4-1.2,.67-1.2,.67,0,0,.2,2.08,.2,5.76,2.15-1.28,3.97,.69,3.87,3.17-.1,2.48-.99,9.82-5.16,9.33-.59,2.08-3.27,5.75-3.27,5.75l.1,2.98,15.08,6.45Z"/><path class="cls-2" d="M49.44,39.66s1.26,5.83-.1,9.23c-.93,2.33-4.43,8.01-8.79,11.18-2.65,1.93-6.37,.02-6.37-3.26v-24.36c7.21-3.97,15.65,.26,15.65,.26,0,0,.03-.41,.01-1.19,.88,5.51-.4,8.14-.4,8.14Z"/><path class="cls-4" d="M32.03,36.73s-.65,2.57-1.78,3.18c-2.53-.47-7.67-.23-7.67-.23,0,0-3.04-1.31-2.57-1.87,.75-.7,5.15-1.82,7.3-1.59s4.72,.51,4.72,.51Z"/><path class="cls-4" d="M36.15,36.73s.65,2.57,1.78,3.18c2.53-.47,7.67-.23,7.67-.23,0,0,3.04-1.31,2.57-1.87-.75-.7-5.15-1.82-7.3-1.59s-4.72,.51-4.72,.51Z"/><path class="cls-3" d="M30.09,39.99s-5.55-.88-7.51-.31c.97,1.64,2.67,2.64,3.88,2.42s3.62-2.11,3.62-2.11Z"/><path class="cls-3" d="M38.03,39.99s5.55-.88,7.51-.31c-.97,1.64-2.67,2.64-3.88,2.42s-3.62-2.11-3.62-2.11Z"/><path class="cls-5" d="M54.03,27.93c-.12,.68-1.57,1.66-2.67,2.31-5.13-2.64-12.73-4.43-19.66-3.75-5.59,.56-11.63,2.61-13.74,3.39h-.03c-.49,.18-.76,.29-.76,.29,0,0-.12-.01-.34-.06,0,0,0-.01-.01,0-.26-.08-.65-.2-1.1-.43-1.54-1.36-2.35-3.44-1.48-4.82,.99-1.59,3.97-4.37,9.83-8.44,5.16-3.27,11.11-2.78,11.11-2.78,0,0,6.75,1.29,8.34,2.38,1.58,1.1,6.05,4.87,8.13,6.55,2.09,1.69,2.58,4.27,2.38,5.36Z"/><path class="cls-5" d="M22.28,57.8l-15.05,6.48,1.88,9.17,32.22,5.17,20.58-5.64-.47-8.7-15.55-6.38,.14,6.26s-3.41,5.76-12.58,5.76c-8.58-.12-10.7-6.59-10.7-6.59l-.47-5.54Z"/><path class="cls-15" d="M46.11,58.29s.38,8.6-.38,10.78-2.84,5.39-2.84,5.39l15.79-2.74,2.27-7.66-14.84-5.77Z"/><path class="cls-15" d="M53.58,25.47s-1.34-3.13-9.21-4.2c-5.99-.36-10.64,.89-10.64,.89,0,0-8.32-6.8,.18-8.32,5.81-.09,9.66,2.06,12.97,5.1s6.26,4.68,6.71,6.53Z"/><path d="M17.88,36.52s-1.48-.83-2.89,.89-.71,5.49-.3,7.38,2.36,4.13,4.78,4.43c-1.53-4.84-.59-9.5-.59-9.5l-1-3.19Z"/><path d="M45.47,55.94l-17.48,18.91-17.58-3.15-2.01-7.93,13.87-5.97,.46-2.82s5.83,6.97,10.7,7.64,11.84-7.45,11.84-7.45l.19,.76Z"/><path class="cls-8" d="M49.25,31.19s1.2,5.63-.28,8.67c1.01,6.46-.54,11.99-5.89,16.6-5.81,4.98-6.25,5.31-9.58,4.94"/><path class="cls-2" d="M22.56,42.25s1.97,2.07,3.36,1.71,3.1-1.76,3.1-1.76c0,0-1.34,4.91-3.67,4.91s-2.79-4.86-2.79-4.86Z"/><path d="M28.26,25.83s-8.37-1.83-5.15-4.38c-2.89-.05-1.64-2.93-.91-3.51-4.95,3.66-6.73,5.24-7.55,6.49s-1.9,4,2.17,5.68c5.47-2.26,11.44-4.28,11.44-4.28Z"/><path class="cls-7" d="M51.57,30.08s2.39-.6,2.46-2.76-.52-3.14-3.14-5.08-7.84-8.89-16.43-8.59h-.9c-8.59-.3-13.82,6.65-16.43,8.59s-3.21,2.91-3.14,5.08,2.46,2.76,2.46,2.76"/><path class="cls-9" d="M52.17,31.54s-4-5.1-17.46-5.1h-1.38c-13.45,0-17.46,5.1-17.46,5.1"/><path class="cls-7" d="M49.62,30.15s1.29,5.94,0,9.63c.81,6.43,.35,11.04-5.7,17.11-5.29,5.3-10.92,9.23-19.44,0-5.81-6.3-6.51-10.68-5.7-17.11-1.29-3.69,0-9.63,0-9.63"/><path class="cls-7" d="M18.26,36.86s-.98-1.37-2.62-.38-1.69,5.08-.77,8.09,2.08,4.54,4.26,4.48"/><path class="cls-7" d="M50.19,36.86s.98-1.37,2.62-.38,1.69,5.08,.77,8.09-2.08,4.54-4.26,4.48"/><path class="cls-7" d="M22.44,54.82v11.65s.14,5.86,4.55,9.86"/><line class="cls-7" x1="22.24" y1="57.93" x2="7.13" y2="64.34"/><line class="cls-7" x1="11.41" y1="72.48" x2="13.75" y2="61.46"/><path class="cls-7" d="M45.89,54.82v11.65s-.14,5.86-4.55,9.86"/><line class="cls-7" x1="46.09" y1="57.93" x2="61.2" y2="64.34"/><line class="cls-7" x1="56.92" y1="72.48" x2="54.58" y2="61.46"/><path class="cls-7" d="M22.46,61.69s.91,8.24,10.94,8.24c11.41,0,12.49-7.26,12.49-7.26"/><path d="M32.1,36.57s.1,1.32-1.58,1.37-5.9-2.39-10.57,0c.25-.71,3.2-3.2,5.85-3.3s6.3,1.93,6.3,1.93Z"/><path d="M36.06,36.57s-.1,1.32,1.58,1.37,5.9-2.39,10.57,0c-.25-.71-3.2-3.2-5.85-3.3s-6.3,1.93-6.3,1.93Z"/><path class="cls-13" d="M22.68,39.63s3.44-.34,7.34,.25c-2.59,2.33-3.91,2.21-3.91,2.21,0,0-2.38-.3-3.44-2.46Z"/><path class="cls-13" d="M45.51,39.63s-3.44-.34-7.34,.25c2.59,2.33,3.91,2.21,3.91,2.21,0,0,2.38-.3,3.44-2.46Z"/><path d="M35.24,38.44c1.16,2.16,1.6,4.67,1.48,7.11,0,0-.03-.16-.03-.16,.46,.78,.86,1.58,1.21,2.45l.08,.19c-.07,.05-1.07,1.1-1.17,1.19,0,0-.14,.15-.14,.15-.08-.03-1.45-.42-1.57-.47,0,0,.29-.03,.29-.03l-1.09,.66-.19,.11c-.09-.06-1.17-.7-1.29-.77,0,0,.29,.03,.29,.03-.12,.04-1.49,.44-1.57,.47,0,0-.15-.15-.15-.15-.1-.1-1.1-1.12-1.17-1.19,0,0,.08-.19,.08-.19,.35-.86,.75-1.66,1.21-2.45l-.03,.17c-.06-1.24,.03-2.47,.26-3.68,.27-1.19,.63-2.37,1.22-3.44-.43,1.13-.71,2.31-.85,3.5-.17,1.21-.17,2.44-.04,3.64l-.04,.09c-.39,.79-.79,1.59-1.09,2.39l-.08-.35,1.03,1.01-.35-.09c.08-.03,1.47-.47,1.5-.48,.02,0,1.19,.68,1.26,.72h-.38c.07-.04,1.22-.71,1.25-.72,.04,.01,1.42,.45,1.51,.48,0,0-.35,.09-.35,.09l1.03-1.01-.08,.35c-.31-.83-.74-1.66-1.14-2.48,.26-2.4-.04-4.87-.89-7.14h0Z"/><path d="M39.76,52.85c-1.19-.23-2.4-.65-3.59-.74-.74,.1-1.43,.52-2.07,.9-.65-.38-1.33-.8-2.07-.9-1.19,.08-2.4,.51-3.59,.74,1.17-.48,2.33-1.03,3.61-1.17,.8,.05,1.51,.45,2.18,.83,0,0-.26,0-.26,0,.67-.38,1.38-.78,2.18-.83,1.28,.15,2.43,.69,3.61,1.17h0Z"/><path d="M37.71,53.5c-.86,1.04-2.41,.81-3.61,.89-1.21-.07-2.76,.16-3.61-.89,1.18,.51,2.39,.06,3.61,.14,1.22-.08,2.43,.38,3.61-.14h0Z"/><path d="M38.68,56.63c-1.42-1.15-2.99-.8-4.67-.8-1.68,0-3.25-.35-4.67,.8,.93-1.6,3.05-1.58,4.67-1.55,1.62-.03,3.74-.05,4.67,1.55h0Z"/><path d="M48.07,22.09c-4.64-1.37-9.38-.13-14.06,.24-4.68-.37-9.42-1.61-14.06-.24,4.53-1.75,9.42-.61,14.06-.26,4.64-.34,9.53-1.48,14.06,.26h0Z"/></g><path class="cls-14" d="M9.81,64.07l13.07-5.53s-6.55,5.77-13.07,5.53Z"/><path class="cls-5" d="M23.59,62.99c.22,4.08,1.97,7.82,3.64,11.47,0,0-.89,.45-.89,.45-1.86-3.63-2.96-7.83-2.75-11.91h0Z"/><path class="cls-14" d="M18.83,21.5c-2.04,2.54-4.85,4.35-2.82,7.83,0,0-.07,.07-.07,.07-2.48-2.11-1.65-4.78,.69-6.58,.67-.54,1.39-1.02,2.15-1.42l.05,.09h0Z"/></g></g><g id="Frame"><g><path class="cls-5" d="M62.56,4.88C54.4,1.94,45.12,.2,35.25,.02c-.57-.01-1.15-.02-1.72-.02C23.88,0,14.77,1.52,6.72,4.21,2.49,14.22,0,26.6,0,40s2.39,25.22,6.45,35.11c8.16,2.94,17.45,4.69,27.32,4.87,.58,.01,1.15,.02,1.73,.02,9.63,0,18.73-1.51,26.78-4.2,4.24-10.01,6.74-22.39,6.74-35.8s-2.4-25.24-6.46-35.12Zm-4.04,66.86c-7.2,2.16-14.94,3.26-23.02,3.26-.49,0-.98-.01-1.47-.02h-.17c-8.18-.15-16.29-1.47-23.6-3.85-3.45-9.22-5.26-19.93-5.26-31.13s1.89-22.38,5.48-31.73c6.73-2.01,14.13-3.13,21.6-3.26,.48-.01,.97-.01,1.45-.01,.54,0,1.08,.01,1.63,.02,8.16,.15,16.27,1.47,23.59,3.84,3.46,9.24,5.27,19.95,5.27,31.14s-1.89,22.39-5.5,31.74Z"/><path class="cls-15" d="M17.21,2.06h0c1.63,.63,2.06,2.75,.81,3.97l-1.26,1.22s8.35-2.37,18.84-1.69h0c-1-1.49-.45-3.52,1.14-4.34l1-.51S28.26-.43,17.21,2.06Z"/><path class="cls-17" d="M21.81,1.66s.7,2.18-.22,3.1c3.77-.41,7.98-.74,11.12-.74-.33-1.33,1.26-3.4,1.26-3.4,0,0-6.17-.26-12.16,1.03Z"/><path class="cls-15" d="M36.25,79.21h0c-1.52-.87-1.62-3.03-.2-4.04l1.43-1.02s-8.61,1.07-18.88-1.19h0c.76,1.63-.09,3.55-1.79,4.11l-1.07,.36s9.19,2.56,20.5,1.78Z"/><path class="cls-17" d="M19.28,77.8s1.76-1.83,1.3-3.09c4.43,.69,9.11,1.14,12.25,1.14-.33,1.33,.44,3.4,.44,3.4,0,0-8-.16-13.99-1.45Z"/><polygon points="47.48 1.77 47.48 6.73 54.49 8.44 54.49 2.62 47.48 1.77"/><line class="cls-7" x1="45.5" y1="1.23" x2="45.5" y2="6.29"/><line class="cls-7" x1="56.47" y1="3.67" x2="56.47" y2="8.73"/><polygon points="47.48 78.74 47.48 73.78 54.49 72.07 54.49 77.88 47.48 78.74"/><line class="cls-7" x1="45.5" y1="79.28" x2="45.5" y2="74.21"/><line class="cls-7" x1="56.47" y1="76.84" x2="56.47" y2="71.77"/><path d="M33.53,1c.56,0,1.14,0,1.7,.02,9.39,.17,18.33,1.74,26.57,4.65,4.07,10.08,6.22,21.94,6.22,34.33s-2.24,24.79-6.49,34.99c-8.12,2.66-16.87,4.01-26.03,4.01-.56,0-1.12,0-1.71-.02-9.25-.17-18.42-1.78-26.58-4.66C3.15,64.25,1,52.39,1,40S3.23,15.21,7.47,5.02C15.6,2.35,24.37,1,33.53,1m0-1C23.88,0,14.77,1.52,6.72,4.21,2.49,14.22,0,26.6,0,40s2.39,25.22,6.45,35.11c8.16,2.94,17.45,4.69,27.32,4.87,.58,.01,1.15,.02,1.73,.02,9.63,0,18.73-1.51,26.78-4.2,4.24-10.01,6.74-22.39,6.74-35.8s-2.4-25.24-6.46-35.12C54.4,1.94,45.12,.2,35.25,.02c-.57,0-1.15-.02-1.72-.02h0Z"/><path class="cls-15" d="M33.53,6c.52,0,1.04,0,1.61,.02,7.87,.14,15.75,1.4,22.84,3.64,3.3,9,5.04,19.47,5.04,30.34s-1.82,21.82-5.26,30.92c-6.98,2.04-14.47,3.08-22.26,3.08-.48,0-.97,0-1.47-.02h-.15c-7.89-.14-15.78-1.41-22.85-3.65-3.29-8.99-5.03-19.46-5.03-30.33s1.81-21.79,5.24-30.91c6.5-1.89,13.7-2.95,20.86-3.08,.47,0,.96,0,1.43,0m0-1c-.48,0-.97,0-1.45,.01-7.47,.13-14.87,1.25-21.6,3.26-3.59,9.35-5.48,20.26-5.48,31.73s1.81,21.91,5.26,31.13c7.31,2.38,15.42,3.7,23.6,3.85h.17c.49,.01,.98,.02,1.47,.02,8.08,0,15.82-1.1,23.02-3.26,3.61-9.35,5.5-20.27,5.5-31.74s-1.81-21.9-5.27-31.14c-7.32-2.37-15.43-3.69-23.59-3.84-.55,0-1.09-.02-1.63-.02h0Z"/><path class="cls-10" d="M8.14,7.1s-12.66,32.94,0,66.06"/><path class="cls-10" d="M60.88,7.58s12.66,32.94,0,66.06"/></g><path d="M33.53,5c.54,0,1.08,.01,1.63,.02,8.16,.15,16.27,1.47,23.59,3.84,3.46,9.24,5.27,19.95,5.27,31.14s-1.89,22.39-5.5,31.74c-7.2,2.16-14.94,3.26-23.02,3.26-.49,0-.98-.01-1.47-.02h-.17c-8.18-.15-16.29-1.47-23.6-3.85-3.45-9.22-5.26-19.93-5.26-31.13s1.89-22.38,5.48-31.73c6.73-2.01,14.13-3.13,21.6-3.26,.48-.01,.97-.01,1.45-.01m0-1c-.49,0-.98,0-1.47,.01-7.51,.13-15.07,1.27-21.87,3.3l-.47,.14-.18,.46c-3.63,9.45-5.55,20.55-5.55,32.09s1.84,22.17,5.32,31.48l.17,.45,.46,.15c7.37,2.4,15.63,3.75,23.89,3.9h.19c.48,.01,.97,.02,1.47,.02,8.16,0,16-1.11,23.31-3.3l.47-.14,.18-.46c3.64-9.43,5.57-20.53,5.57-32.1s-1.84-22.17-5.33-31.49l-.17-.45-.46-.15c-7.39-2.39-15.65-3.74-23.88-3.89-.58-.01-1.12-.02-1.65-.02h0Z"/></g></svg>