<?xml version="1.0" encoding="UTF-8"?><svg id="Capa_2" xmlns="http://www.w3.org/2000/svg" xmlns:xlink="http://www.w3.org/1999/xlink" viewBox="0 0 69.02 80"><defs><style>.cls-1{fill:#c89aed;}.cls-2{fill:#fff;}.cls-3{fill:#f8ffbf;}.cls-4{fill:#7b7be8;}.cls-5,.cls-6{stroke:#000;}.cls-5,.cls-6,.cls-7,.cls-8,.cls-9{fill:none;}.cls-5,.cls-7{stroke-linejoin:round;}.cls-10{fill:#a88347;}.cls-11{fill:#782ab5;}.cls-6{stroke-miterlimit:10;}.cls-12{fill:#1c46ff;}.cls-7{stroke:#deb778;stroke-dasharray:0 0 0 4.06;stroke-linecap:round;}.cls-13{fill:#deb778;}.cls-14{fill:url(#USGS_19_Inundación_de_tierra_2);}.cls-9{stroke:#1d1d1b;stroke-dasharray:0 0 2 2;stroke-width:.3px;}.cls-15{fill:#fcf0c5;}.cls-16{fill:#b83521;}</style><pattern id="USGS_19_Inundación_de_tierra_2" x="0" y="0" width="72" height="72" patternTransform="translate(-92.48 -16351) rotate(-90)" patternUnits="userSpaceOnUse" viewBox="0 0 72 72"><g><rect class="cls-8" width="72" height="72"/><g><line class="cls-9" x1="71" y1="71" x2="144.44" y2="71"/><line class="cls-9" x1="71" y1="67" x2="144.44" y2="67"/><line class="cls-9" x1="71" y1="63" x2="144.44" y2="63"/><line class="cls-9" x1="71" y1="59" x2="144.44" y2="59"/><line class="cls-9" x1="71" y1="55" x2="144.44" y2="55"/><line class="cls-9" x1="71" y1="51" x2="144.44" y2="51"/><line class="cls-9" x1="71" y1="47" x2="144.44" y2="47"/><line class="cls-9" x1="71" y1="43" x2="144.44" y2="43"/><line class="cls-9" x1="71" y1="39" x2="144.44" y2="39"/><line class="cls-9" x1="71" y1="35" x2="144.44" y2="35"/><line class="cls-9" x1="71" y1="31" x2="144.44" y2="31"/><line class="cls-9" x1="71" y1="27" x2="144.44" y2="27"/><line class="cls-9" x1="71" y1="23" x2="144.44" y2="23"/><line class="cls-9" x1="71" y1="19" x2="144.44" y2="19"/><line class="cls-9" x1="71" y1="15" x2="144.44" y2="15"/><line class="cls-9" x1="71" y1="11" x2="144.44" y2="11"/><line class="cls-9" x1="71" y1="7" x2="144.44" y2="7"/><line class="cls-9" x1="71" y1="3" x2="144.44" y2="3"/></g><g><line class="cls-9" x1="-1" y1="71" x2="72.44" y2="71"/><line class="cls-9" x1="-1" y1="67" x2="72.44" y2="67"/><line class="cls-9" x1="-1" y1="63" x2="72.44" y2="63"/><line class="cls-9" x1="-1" y1="59" x2="72.44" y2="59"/><line class="cls-9" x1="-1" y1="55" x2="72.44" y2="55"/><line class="cls-9" x1="-1" y1="51" x2="72.44" y2="51"/><line class="cls-9" x1="-1" y1="47" x2="72.44" y2="47"/><line class="cls-9" x1="-1" y1="43" x2="72.44" y2="43"/><line class="cls-9" x1="-1" y1="39" x2="72.44" y2="39"/><line class="cls-9" x1="-1" y1="35" x2="72.44" y2="35"/><line class="cls-9" x1="-1" y1="31" x2="72.44" y2="31"/><line class="cls-9" x1="-1" y1="27" x2="72.44" y2="27"/><line class="cls-9" x1="-1" y1="23" x2="72.44" y2="23"/><line class="cls-9" x1="-1" y1="19" x2="72.44" y2="19"/><line class="cls-9" x1="-1" y1="15" x2="72.44" y2="15"/><line class="cls-9" x1="-1" y1="11" x2="72.44" y2="11"/><line class="cls-9" x1="-1" y1="7" x2="72.44" y2="7"/><line class="cls-9" x1="-1" y1="3" x2="72.44" y2="3"/><line class="cls-9" x1="1.04" y1="69" x2="74.48" y2="69"/><line class="cls-9" x1="1.04" y1="65" x2="74.48" y2="65"/><line class="cls-9" x1="1.04" y1="61" x2="74.48" y2="61"/><line class="cls-9" x1="1.04" y1="57" x2="74.48" y2="57"/><line class="cls-9" x1="1.04" y1="53" x2="74.48" y2="53"/><line class="cls-9" x1="1.04" y1="49" x2="74.48" y2="49"/><line class="cls-9" x1="1.04" y1="45" x2="74.48" y2="45"/><line class="cls-9" x1="1.04" y1="41" x2="74.48" y2="41"/><line class="cls-9" x1="1.04" y1="37" x2="74.48" y2="37"/><line class="cls-9" x1="1.04" y1="33" x2="74.48" y2="33"/><line class="cls-9" x1="1.04" y1="29" x2="74.48" y2="29"/><line class="cls-9" x1="1.04" y1="25" x2="74.48" y2="25"/><line class="cls-9" x1="1.04" y1="21" x2="74.48" y2="21"/><line class="cls-9" x1="1.04" y1="17" x2="74.48" y2="17"/><line class="cls-9" x1="1.04" y1="13" x2="74.48" y2="13"/><line class="cls-9" x1="1.04" y1="9" x2="74.48" y2="9"/><line class="cls-9" x1="1.04" y1="5" x2="74.48" y2="5"/><line class="cls-9" x1="1.04" y1="1" x2="74.48" y2="1"/></g><g><line class="cls-9" x1="-73" y1="71" x2=".44" y2="71"/><line class="cls-9" x1="-73" y1="67" x2=".44" y2="67"/><line class="cls-9" x1="-73" y1="63" x2=".44" y2="63"/><line class="cls-9" x1="-73" y1="59" x2=".44" y2="59"/><line class="cls-9" x1="-73" y1="55" x2=".44" y2="55"/><line class="cls-9" x1="-73" y1="51" x2=".44" y2="51"/><line class="cls-9" x1="-73" y1="47" x2=".44" y2="47"/><line class="cls-9" x1="-73" y1="43" x2=".44" y2="43"/><line class="cls-9" x1="-73" y1="39" x2=".44" y2="39"/><line class="cls-9" x1="-73" y1="35" x2=".44" y2="35"/><line class="cls-9" x1="-73" y1="31" x2=".44" y2="31"/><line class="cls-9" x1="-73" y1="27" x2=".44" y2="27"/><line class="cls-9" x1="-73" y1="23" x2=".44" y2="23"/><line class="cls-9" x1="-73" y1="19" x2=".44" y2="19"/><line class="cls-9" x1="-73" y1="15" x2=".44" y2="15"/><line class="cls-9" x1="-73" y1="11" x2=".44" y2="11"/><line class="cls-9" x1="-73" y1="7" x2=".44" y2="7"/><line class="cls-9" x1="-73" y1="3" x2=".44" y2="3"/><line class="cls-9" x1="-70.96" y1="69" x2="2.48" y2="69"/><line class="cls-9" x1="-70.96" y1="65" x2="2.48" y2="65"/><line class="cls-9" x1="-70.96" y1="61" x2="2.48" y2="61"/><line class="cls-9" x1="-70.96" y1="57" x2="2.48" y2="57"/><line class="cls-9" x1="-70.96" y1="53" x2="2.48" y2="53"/><line class="cls-9" x1="-70.96" y1="49" x2="2.48" y2="49"/><line class="cls-9" x1="-70.96" y1="45" x2="2.48" y2="45"/><line class="cls-9" x1="-70.96" y1="41" x2="2.48" y2="41"/><line class="cls-9" x1="-70.96" y1="37" x2="2.48" y2="37"/><line class="cls-9" x1="-70.96" y1="33" x2="2.48" y2="33"/><line class="cls-9" x1="-70.96" y1="29" x2="2.48" y2="29"/><line class="cls-9" x1="-70.96" y1="25" x2="2.48" y2="25"/><line class="cls-9" x1="-70.96" y1="21" x2="2.48" y2="21"/><line class="cls-9" x1="-70.96" y1="17" x2="2.48" y2="17"/><line class="cls-9" x1="-70.96" y1="13" x2="2.48" y2="13"/><line class="cls-9" x1="-70.96" y1="9" x2="2.48" y2="9"/><line class="cls-9" x1="-70.96" y1="5" x2="2.48" y2="5"/><line class="cls-9" x1="-70.96" y1="1" x2="2.48" y2="1"/></g></g></pattern></defs><g id="BG"><g><path class="cls-11" d="M64.02,40c0,11.47-1.89,22.39-5.5,31.74-7.2,2.16-14.94,3.26-23.02,3.26-.49,0-.98-.01-1.47-.02h-.17c-8.18-.15-16.29-1.47-23.6-3.85-3.45-9.22-5.26-19.93-5.26-31.13s1.89-22.38,5.48-31.73c6.73-2.01,14.13-3.13,21.6-3.26,.48-.01,.97-.01,1.45-.01,.54,0,1.08,.01,1.63,.02,8.16,.15,16.27,1.47,23.59,3.84,3.46,9.24,5.27,19.95,5.27,31.14Z"/><path class="cls-14" d="M34.03,5.59V74.98h-.17c-8.18-.15-16.29-1.47-23.6-3.85-3.45-9.22-5.26-19.93-5.26-31.13s1.89-22.38,5.48-31.73c6.73-2.01,14.13-3.13,21.6-3.26,.65,.16,1.3,.36,1.95,.58Z"/></g></g><g id="Capa_9"><g><g><path class="cls-1" d="M60.89,65.7l-.77,8.35-26.75,2.81-24.28-4.43-.26-6.9,12.53-5.11s-2.22-5.63,2.3-6.56c-1.96-2.22-2.56-4.01-2.56-4.01,0,0-5.36-7.15-.76-8.6-.12-1.02-.21-1.6-.28-1.93h0c-.11-.57-.15-.37-.15-.37,0,0-1.45-.43-2.04-2.99-2.13-6.21-3.5-12.6-2.99-14.56,.52-1.96,4.43-11.25,15.6-11.42,3.32-.17,4.6,1.11,4.6,1.11,0,0,.76-1.71,4.09-1.28,3.32,.42,11.24,1.53,14.48,7.84,2.98,6.13-.12,14.44-.77,16.53-.48,1.54-.99,3.18-1.68,4.13-.24,.34-.5,.59-.79,.72l-.34,2.13s1.33-.07,1.53,1.11c.21,1.18,.35,6.73-4.34,9.12-.34,2.81-.34,3.4-.34,3.4,0,0,1.7,.86,1.62,2.3-.09,1.45,.25,3.58,.25,3.58l12.1,5.03Z"/><path class="cls-2" d="M35.24,58.76v-25.41c0-2.52,2.13-4.51,4.65-4.37,1.47,.08,2.92,.25,3.7,.58,2,.83,5.97,4.39,6.55,6.97s-.71,6.71-.71,6.71c0,0-2.25,6.76-2.59,9.43s-1,4.42-2.75,5.92c-.88,.75-2.4,1.96-4.05,2.94-2.12,1.26-4.8-.32-4.8-2.78Z"/><path class="cls-10" d="M52.88,34.18c-.48,1.54-.99,3.18-1.68,4.13l-.61,.41s-.19-4.44-1.48-6.62c-1.48-2-7.46-2.9-13.87-3.29-6.42-.39-10.71,.91-13.41,2.71-2.7,1.8-1.61,7.72-1.61,7.72-.05,.03-.1,.05-.16,.07-.11-.56-.15-.36-.15-.36,0,0-1.45-.43-2.04-2.99-2.13-6.21-3.5-12.6-2.99-14.56,.52-1.96,4.43-11.25,15.6-11.42,3.32-.17,4.6,1.11,4.6,1.11,0,0,.76-1.71,4.09-1.28,3.32,.42,11.24,1.53,14.48,7.84,2.98,6.13-.12,14.44-.77,16.53Z"/><polygon class="cls-16" points="35.18 22.63 32.81 23.29 33.26 20.56 31.78 19.15 33.99 18.71 35.1 17.16 36.29 18.86 38.8 19.45 36.95 21 37.1 23.44 35.18 22.63"/><path class="cls-3" d="M31.24,42.06s-1-2.11-2.9-2.32c-2.38,.16-3.96,2.17-3.96,2.17,0,0,4.44,4.38,6.87,.16Z"/><path class="cls-3" d="M39.06,42.06s1-2.11,2.9-2.32c2.38,.16,3.96,2.17,3.96,2.17,0,0-4.44,4.38-6.87,.16Z"/><path class="cls-4" d="M21.87,39.13l2.04,2.9s2.39-2.39,4.09-2.27c1.87,.17,3.23,2.31,3.23,2.31,0,0,1.31-3.45,1.37-3.96-3.98-1.08-5.06-.97-5.06-.97,0,0-3.46-.51-5.68,1.99Z"/><path class="cls-4" d="M48.48,39.13l-2.04,2.9s-2.39-2.39-4.09-2.27c-1.87,.17-3.23,2.31-3.23,2.31,0,0-1.31-3.45-1.37-3.96,3.98-1.08,5.06-.97,5.06-.97,0,0,3.46-.51,5.68,1.99Z"/><path class="cls-10" d="M23.77,54.83s-2.39,.72-2.23,2.63,.08,2.87,.08,2.87c0,0-8.93,4.79-13.08,5.26,.56,5.74,2.07,7.74,2.07,7.74l27.6,4.39,21.7-4.87,.32-7.58-11.65-4.87s.4-3.59-.32-4.31-1.44-1.04-1.44-1.04l-2.07,3.43,.08,1.2s-2.31,3.75-8.14,5.9c-.8,1.6-1.68,2.71-1.68,2.71l-1.36-2.31s-6.62-3.11-8.22-6.38c-.08-1.04,.08-1.52,.08-1.52,0,0-1.75-2.55-1.75-3.27Z"/><path class="cls-1" d="M36.38,30.08c4.09,0,9.61,.61,11.73,2.33,1.24,1.15,1.31,5.33,.18,10.2-.32,1.41-.73,2.64-1.13,3.82-.62,1.86-1.21,3.63-1.45,5.92-.31,2.97-1.45,6.07-7.58,8.66-.7,.29-1.67,.55-2.9,.78-1.22-.23-2.2-.5-2.89-.78-6.15-2.6-7.28-5.7-7.59-8.66-.24-2.3-.83-4.07-1.46-5.93-.4-1.19-.81-2.41-1.13-3.82-1.14-4.95-1.06-9.04,.18-10.19,2.13-1.72,7.64-2.33,11.73-2.33h.25s1.83,0,1.83,0h.23m0-1.3c-.16,0-.25,0-.25,0h-1.81s-.09,0-.25,0c-1.52,0-9.51,.12-12.58,2.64-2.19,1.96-1.43,7.85-.6,11.47,.83,3.63,2.19,5.97,2.56,9.59,.38,3.62,1.97,7.02,8.38,9.73,.94,.38,2.14,.67,3.4,.9,1.26-.23,2.46-.52,3.39-.9,6.42-2.71,8-6.11,8.38-9.73,.38-3.62,1.73-5.96,2.56-9.59,.84-3.62,1.59-9.51-.6-11.47-3.06-2.52-11.05-2.64-12.58-2.64h0Z"/><path d="M42.69,60.06l-7.87,7.69s-1.53-1.16-6.18,7.32c-7.94,.91-18.33-2.93-18.33-2.93l-1.49-6.6s10.75-2.96,12.53-5.11c-.52-3.69,1.92-5.36,2.75-5.57,.56,3.34,3.28,5.23,4.39,5.64s6.73,2.61,6.73,2.61c0,0,1.98-.22,7.46-3.05Z"/><path d="M35.22,12.32s0-1.83-1.83-2.38-7.55,.4-11.45,2.23-6.2,6.76-7,10.02,1.27,7.87,1.67,9.78,1.18,5.96,3.29,6.99c-.03-3.73,.6-6.99,1.48-7.79-2.62-5.96-1.59-11.21-.87-13.12s4.29-4.85,8.51-5.41,6.2-.32,6.2-.32Z"/><path class="cls-2" d="M29.82,44.88c-.98,.36-2.55,.75-4.08,.35-.5-.13-.9,.41-.61,.83,1.79,2.56,4.3,2.5,5.38-.47,.16-.44-.25-.87-.69-.7Z"/><path class="cls-13" d="M48.21,56.55s-.43,3.73-3.26,6.55c-1.88,1.88-4.08,3.44-5.33,4.27-.48,.32-.53,1.01-.09,1.39,1.24,1.07,3.37,3.23,4.12,5.93,4.92-.24,15.91-2.82,15.91-2.82l.67-6.58-11.65-4.87-.37-3.87Z"/><path class="cls-13" d="M28.72,12.94s15.23-1.14,18.57,5.7c1.79,4.48-1.3,11.73-1.3,11.73,0,0,3.67,1.38,4.07,4.07s.73,4.64,.73,4.64c0,0,1.06-1.47,1.63-4.15,2.36-6.11,3.83-10.51,2.61-14.01s-5.62-8.71-9.61-9.77-9.61-2.77-10.34,.81c-4.07-.08-6.35,.98-6.35,.98Z"/><path d="M20.59,41.03s-1.35-.23-1.99,1.46,.18,3.87,.94,5.16,2.34,2.99,3.52,2.99c-.76-3.22-2.52-7.68-2.46-9.61Z"/><path class="cls-4" d="M30.41,53.79s.78,1.79,2.56,1.97c2.39-.04,4.49,.05,4.49,.05,0,0,1.88-.5,2.01-2.11-3.39-.96-9.07,.09-9.07,.09Z"/><path d="M48.82,49.87s-.45,1.09,2.18,3.47,3.13,5.21,1.98,6.85c-.2-1.59-1.24-2.28-1.24-2.28,0,0,.5,2.93-.2,3.82-2.23-1.34-3.27-1.89-3.27-1.89,0,0,.79-2.88-.05-3.67s-1.54-1.29-1.54-1.29l.35-3.72,1.79-1.29Z"/><path class="cls-6" d="M20.59,41.24s-1.89-.49-2.05,2.21,2.46,7.22,4.67,7.63"/><path class="cls-6" d="M47.13,51.08c2.21-.41,4.84-4.92,4.67-7.63s-2.05-2.21-2.05-2.21"/><path class="cls-6" d="M36.13,28.78s9.44-.15,12.83,2.64c2.19,1.96,1.44,7.85,.6,11.47-.83,3.63-2.18,5.97-2.56,9.59s-1.96,7.02-8.38,9.73c-.93,.38-2.13,.67-3.39,.9-1.26-.23-2.46-.52-3.4-.9-6.41-2.71-8-6.11-8.38-9.73-.37-3.62-1.73-5.96-2.56-9.59-.83-3.62-1.59-9.51,.6-11.47,3.4-2.79,12.83-2.64,12.83-2.64h1.81Z"/><path d="M32.77,38.05s-1.24,.69-3.37,.15-3.87-.5-4.91-.25-1.98,1.19-2.58,1.09c1.54-1.64,2.58-2.28,3.62-2.33s4.81-.2,5.46,.05,1.79,1.29,1.79,1.29Z"/><path d="M31.11,41.73c-2.07-2.36-4.46-1.72-6.37,.4,0,0,.05-.57,.05-.57,1.19,2.08,3.35,2.73,5.56,1.62-.43,.41-.96,.71-1.53,.94-2.03,.85-4.09-.59-5.07-2.34,2.04-2.61,5.72-3.54,7.37-.04h0Z"/><path d="M32.99,39.86c.45,.62,.96,1.43,.83,2.24-.17,1.28-.4,2.58-.83,3.81-.03-1.05,.08-2.08,.23-3.1l.13-.76c.17-.75-.19-1.44-.36-2.18h0Z"/><path d="M37.67,38.05s1.24,.69,3.37,.15,3.87-.5,4.91-.25,1.98,1.19,2.58,1.09c-1.54-1.64-2.58-2.28-3.62-2.33s-4.81-.2-5.46,.05-1.79,1.29-1.79,1.29Z"/><path d="M39.33,41.73c1.65-3.5,5.32-2.57,7.37,.04-.98,1.75-3.04,3.2-5.07,2.34-.57-.22-1.1-.52-1.53-.94,2.21,1.11,4.37,.46,5.56-1.62,0,0,.05,.57,.05,.57-1.91-2.12-4.31-2.76-6.37-.4h0Z"/><path d="M37.45,39.86c-.18,.75-.53,1.43-.36,2.18,0,0,.13,.76,.13,.76,.15,1.02,.26,2.04,.23,3.1-.43-1.23-.66-2.53-.83-3.81-.12-.81,.38-1.62,.83-2.24h0Z"/><path d="M37.55,47.69c.48,.42,.54,1.11-.11,1.48-.73,.56-1.53,1.04-2.33,1.5-.91-.56-2.06-1.11-2.76-1.91-.19-.5,.08-.84,.31-1.07-.1,.6-.07,.81,.48,.94,.76,.29,1.51,.65,2.22,1.03,0,0-.49,0-.49,0,.8-.45,1.74-.86,2.59-1.18,.16-.09,.17-.48,.1-.8h0Z"/><path d="M35.36,53.58c1.33,0,2.78,.28,4.68,.41s1.64-.44,1.64-.44c0,0-.79,.19-1.8-.41s-2.75-1.23-4.55-1.23h-.25c-1.8,0-3.54,.63-4.55,1.23s-1.8,.41-1.8,.41c0,0-.25,.57,1.64,.44s3.35-.41,4.68-.41h.32Z"/><path d="M38.93,54.94c-.64,1.4-2.54,1.23-3.83,1.29-1.29-.05-3.19,.11-3.83-1.29,1.24,.75,2.5,.21,3.83,.29,1.33-.08,2.59,.47,3.83-.29h0Z"/><path d="M20.91,42.21s.4-2.96,.28-4.62,3.7-7.81,11.57-8.66c-5.81-1.14-10.94,1.88-11.97,3.36s-.74,7.3,.11,9.92Z"/><path d="M49.52,42.21s-.4-2.96-.28-4.62-3.7-7.81-11.57-8.66c5.81-1.14,10.94,1.88,11.97,3.36s.74,7.3-.11,9.92Z"/><path d="M20.63,49.54s-.44,.75-1.99,2.55-2.24,3.79,.12,4.6c-.75,1.99-2.8,1.62-3.61,1.06,.99,2.36,3.54,1.8,4.79,1.31-.25,1.74,.44,2.05,.44,2.05l1.74-1.12s-.19-1.62-.12-2.8,1.31-2.11,1.86-1.93c-.44-1.99-.31-3.73-.31-3.73l-2.92-1.99Z"/><path d="M23.88,55.34c-1.06,.34-1.76,1.32-1.62,2.41,0,0,.05,.77,.05,.77,.21,2.02,.2,4.31-.19,6.28,.21,4.46,3.25,8.49,6.42,11.48,0,0-.88,.28-.88,.28,1.02-3.21,2.7-6.57,5.68-8.31-2.2,2.72-4.07,6.01-4.84,9.42-4.02-3.49-8.48-8.84-7.35-14.53,.19-1.43,.1-3.09,.03-4.56-.12-1.15-.05-2.49,.88-3.33,.46-.44,.96-.72,1.58-.9l.24,.97h0Z"/><path class="cls-6" d="M21.84,60.06s-7.86,4.25-13.5,5.76"/><path d="M46.56,54.37c1.55,.38,2.65,1.86,2.5,3.45-.01,.48-.09,1.83-.11,2.33-.25,2.13,.61,4.17,.2,6.29-.98,4.58-3.98,8.31-7.45,11.26-.77-3.41-2.64-6.71-4.84-9.42,2.98,1.73,4.66,5.09,5.68,8.31,0,0-.88-.28-.88-.28,2.93-2.68,5.43-6.2,6.3-10.08,.25-1.04,.05-1.82-.1-2.9-.21-1.56-.08-3.23,.03-4.78,.02-.37,.11-1.07,.03-1.42-.09-.82-.8-1.5-1.6-1.76l.24-.97h0Z"/><path class="cls-6" d="M48.35,60.06s7.86,4.25,13.5,5.76"/><path class="cls-6" d="M35.32,75.01s.76-8.36-2.48-9.57c-6.33-2.74-7.55-5.98-7.55-5.98v-1.87"/><path class="cls-6" d="M35.11,69.16c.33-1.71,.99-3.25,2.24-3.72,6.33-2.74,7.55-5.98,7.55-5.98v-1.54"/><path class="cls-5" d="M50.1,39.23s1.82-.91,2.13-2.96,3.57-9.96,2.96-13.83c-.61-3.88-3.27-9.5-10.72-11.55s-9.04-.91-9.35,.3h-.15c-.3-1.22-1.9-2.36-9.35-.3s-10.11,7.68-10.72,11.55,2.66,11.78,2.96,13.83,2.13,2.96,2.13,2.96"/><path class="cls-5" d="M48.77,31.42s2.34-5.6,1.76-10.52-3.51-8.7-15.06-8.7h-.69c-11.56,0-14.49,3.77-15.06,8.7s1.76,10.52,1.76,10.52"/><polygon class="cls-5" points="35.12 16.53 36.26 18.83 38.8 19.2 36.96 20.99 37.4 23.53 35.12 22.33 32.85 23.53 33.28 20.99 31.44 19.2 33.98 18.83 35.12 16.53"/></g><path class="cls-12" d="M23.48,57.38c-1.95,.96-1.42,3.51-2.03,5.28-.18,.68-.41,1.35-.8,1.97,.05-2.14-.33-7.42,2.83-7.24h0Z"/><path class="cls-12" d="M19.88,61.69c-1.82,2.03-4.29,3.25-6.89,3.92-.87,.21-1.77,.34-2.71,.27l-.03-.1c3.29-1.01,6.6-2.9,9.63-4.1h0Z"/><path class="cls-12" d="M21.9,13.06c-3.82,2.91-6.3,7.64-5.46,12.5,.16,1.35,.52,2.64,.98,3.97,.82,2.4,.98,4.93,1.38,7.39,.09,.32,.2,.65,.49,.84l-.04,.09c-.69-.35-.8-1.2-.99-1.86,0,0-.46-2.08-.46-2.08-.54-2.81-1.91-5.37-2.32-8.2-.95-4.92,2.01-10.66,6.42-12.64h0Z"/></g></g><g id="Frame"><path class="cls-10" d="M62.56,4.88C54.4,1.94,45.12,.2,35.25,.02c-.57-.01-1.15-.02-1.72-.02C23.88,0,14.77,1.52,6.72,4.21,2.49,14.22,0,26.6,0,40s2.39,25.22,6.45,35.11c8.16,2.94,17.45,4.69,27.32,4.87,.58,.01,1.15,.02,1.73,.02,9.63,0,18.73-1.51,26.78-4.2,4.24-10.01,6.74-22.39,6.74-35.8s-2.4-25.24-6.46-35.12Zm-4.04,66.86c-7.2,2.16-14.94,3.26-23.02,3.26-.49,0-.98-.01-1.47-.02h-.17c-8.18-.15-16.29-1.47-23.6-3.85-3.45-9.22-5.26-19.93-5.26-31.13s1.89-22.38,5.48-31.73c6.73-2.01,14.13-3.13,21.6-3.26,.48-.01,.97-.01,1.45-.01,.54,0,1.08,.01,1.63,.02,8.16,.15,16.27,1.47,23.59,3.84,3.46,9.24,5.27,19.95,5.27,31.14s-1.89,22.39-5.5,31.74Z"/><path class="cls-13" d="M17.21,2.06h0c1.63,.63,2.06,2.75,.81,3.97l-1.26,1.22s8.35-2.37,18.84-1.69h0c-1-1.49-.45-3.52,1.14-4.34l1-.51S28.26-.43,17.21,2.06Z"/><path class="cls-15" d="M21.81,1.66s.7,2.18-.22,3.1c3.77-.41,7.98-.74,11.12-.74-.33-1.33,1.26-3.4,1.26-3.4,0,0-6.17-.26-12.16,1.03Z"/><path class="cls-13" d="M36.25,79.21h0c-1.52-.87-1.62-3.03-.2-4.04l1.43-1.02s-8.61,1.07-18.88-1.19h0c.76,1.63-.09,3.55-1.79,4.11l-1.07,.36s9.19,2.56,20.5,1.78Z"/><path class="cls-15" d="M19.28,77.8s1.76-1.83,1.3-3.09c4.43,.69,9.11,1.14,12.25,1.14-.33,1.33,.44,3.4,.44,3.4,0,0-8-.16-13.99-1.45Z"/><polygon points="47.48 1.77 47.48 6.73 54.49 8.44 54.49 2.62 47.48 1.77"/><line class="cls-6" x1="45.5" y1="1.23" x2="45.5" y2="6.29"/><line class="cls-6" x1="56.47" y1="3.67" x2="56.47" y2="8.73"/><polygon points="47.48 78.74 47.48 73.78 54.49 72.07 54.49 77.88 47.48 78.74"/><line class="cls-6" x1="45.5" y1="79.28" x2="45.5" y2="74.21"/><line class="cls-6" x1="56.47" y1="76.84" x2="56.47" y2="71.77"/><path d="M33.53,1c.56,0,1.14,0,1.7,.02,9.39,.17,18.33,1.74,26.57,4.65,4.07,10.08,6.22,21.94,6.22,34.33s-2.24,24.79-6.49,34.99c-8.12,2.66-16.87,4.01-26.03,4.01-.56,0-1.12,0-1.71-.02-9.25-.17-18.42-1.78-26.58-4.66C3.15,64.25,1,52.39,1,40S3.23,15.21,7.47,5.02C15.6,2.35,24.37,1,33.53,1m0-1C23.88,0,14.77,1.52,6.72,4.21,2.49,14.22,0,26.6,0,40s2.39,25.22,6.45,35.11c8.16,2.94,17.45,4.69,27.32,4.87,.58,.01,1.15,.02,1.73,.02,9.63,0,18.73-1.51,26.78-4.2,4.24-10.01,6.74-22.39,6.74-35.8s-2.4-25.24-6.46-35.12C54.4,1.94,45.12,.2,35.25,.02c-.57,0-1.15-.02-1.72-.02h0Z"/><path class="cls-13" d="M33.53,6c.52,0,1.04,0,1.61,.02,7.87,.14,15.75,1.4,22.84,3.64,3.3,9,5.04,19.47,5.04,30.34s-1.82,21.82-5.26,30.92c-6.98,2.04-14.47,3.08-22.26,3.08-.48,0-.97,0-1.47-.02h-.15c-7.89-.14-15.78-1.41-22.85-3.65-3.29-8.99-5.03-19.46-5.03-30.33s1.81-21.79,5.24-30.91c6.5-1.89,13.7-2.95,20.86-3.08,.47,0,.96,0,1.43,0m0-1c-.48,0-.97,0-1.45,.01-7.47,.13-14.87,1.25-21.6,3.26-3.59,9.35-5.48,20.26-5.48,31.73s1.81,21.91,5.26,31.13c7.31,2.38,15.42,3.7,23.6,3.85h.17c.49,.01,.98,.02,1.47,.02,8.08,0,15.82-1.1,23.02-3.26,3.61-9.35,5.5-20.27,5.5-31.74s-1.81-21.9-5.27-31.14c-7.32-2.37-15.43-3.69-23.59-3.84-.55,0-1.09-.02-1.63-.02h0Z"/><path d="M33.53,5c.54,0,1.08,.01,1.63,.02,8.16,.15,16.27,1.47,23.59,3.84,3.46,9.24,5.27,19.95,5.27,31.14s-1.89,22.39-5.5,31.74c-7.2,2.16-14.94,3.26-23.02,3.26-.49,0-.98-.01-1.47-.02h-.17c-8.18-.15-16.29-1.47-23.6-3.85-3.45-9.22-5.26-19.93-5.26-31.13s1.89-22.38,5.48-31.73c6.73-2.01,14.13-3.13,21.6-3.26,.48-.01,.97-.01,1.45-.01m0-1c-.49,0-.98,0-1.47,.01-7.51,.13-15.07,1.27-21.87,3.3l-.47,.14-.18,.46c-3.63,9.45-5.55,20.55-5.55,32.09s1.84,22.17,5.32,31.48l.17,.45,.46,.15c7.37,2.4,15.63,3.75,23.89,3.9h.19c.48,.01,.97,.02,1.47,.02,8.16,0,16-1.11,23.31-3.3l.47-.14,.18-.46c3.64-9.43,5.57-20.53,5.57-32.1s-1.84-22.17-5.33-31.49l-.17-.45-.46-.15c-7.39-2.39-15.65-3.74-23.88-3.89-.58-.01-1.12-.02-1.65-.02h0Z"/><path class="cls-7" d="M8.14,7.1s-12.66,32.94,0,66.06"/><path class="cls-7" d="M60.88,7.58s12.66,32.94,0,66.06"/></g></svg>