<svg id="Capa_2" xmlns="http://www.w3.org/2000/svg" xmlns:xlink="http://www.w3.org/1999/xlink" viewBox="0 0 69.02 80">
<defs >
<style >
.cls-1{fill:#c89aed;}.cls-2{fill:#fff;}.cls-3{fill:#f8ffbf;}.cls-4{fill:#7b7be8;}.cls-5,.cls-6{stroke:#000;}.cls-5,.cls-6,.cls-7,.cls-8,.cls-9,.cls-10{fill:none;}.cls-5,.cls-7{stroke-linejoin:round;}.cls-11{fill:#a88347;}.cls-12{fill:#782ab5;}.cls-6,.cls-8{stroke-miterlimit:10;}.cls-7{stroke:#deb778;stroke-dasharray:0 0 0 4.06;stroke-linecap:round;}.cls-8{stroke:#c89aed;}.cls-13{fill:#deb778;}.cls-14{fill:url(#USGS_19_Inundación_de_tierra_2);}.cls-10{stroke:#1d1d1b;stroke-dasharray:0 0 2 2;stroke-width:.3px;}.cls-15{fill:#fcf0c5;}
</style>
<pattern id="USGS_19_Inundación_de_tierra_2" x="0" y="0" width="72" height="72" patternTransform="translate(-236.48 -16351) rotate(-90)" patternUnits="userSpaceOnUse" viewBox="0 0 72 72">
<g >
<rect class="cls-9" width="72" height="72">
</rect>
<g >
<line class="cls-10" x1="71" y1="71" x2="144.44" y2="71">
</line>
<line class="cls-10" x1="71" y1="67" x2="144.44" y2="67">
</line>
<line class="cls-10" x1="71" y1="63" x2="144.44" y2="63">
</line>
<line class="cls-10" x1="71" y1="59" x2="144.44" y2="59">
</line>
<line class="cls-10" x1="71" y1="55" x2="144.44" y2="55">
</line>
<line class="cls-10" x1="71" y1="51" x2="144.44" y2="51">
</line>
<line class="cls-10" x1="71" y1="47" x2="144.44" y2="47">
</line>
<line class="cls-10" x1="71" y1="43" x2="144.44" y2="43">
</line>
<line class="cls-10" x1="71" y1="39" x2="144.44" y2="39">
</line>
<line class="cls-10" x1="71" y1="35" x2="144.44" y2="35">
</line>
<line class="cls-10" x1="71" y1="31" x2="144.44" y2="31">
</line>
<line class="cls-10" x1="71" y1="27" x2="144.44" y2="27">
</line>
<line class="cls-10" x1="71" y1="23" x2="144.44" y2="23">
</line>
<line class="cls-10" x1="71" y1="19" x2="144.44" y2="19">
</line>
<line class="cls-10" x1="71" y1="15" x2="144.44" y2="15">
</line>
<line class="cls-10" x1="71" y1="11" x2="144.44" y2="11">
</line>
<line class="cls-10" x1="71" y1="7" x2="144.44" y2="7">
</line>
<line class="cls-10" x1="71" y1="3" x2="144.44" y2="3">
</line>
</g>
<g >
<line class="cls-10" x1="-1" y1="71" x2="72.44" y2="71">
</line>
<line class="cls-10" x1="-1" y1="67" x2="72.44" y2="67">
</line>
<line class="cls-10" x1="-1" y1="63" x2="72.44" y2="63">
</line>
<line class="cls-10" x1="-1" y1="59" x2="72.44" y2="59">
</line>
<line class="cls-10" x1="-1" y1="55" x2="72.44" y2="55">
</line>
<line class="cls-10" x1="-1" y1="51" x2="72.44" y2="51">
</line>
<line class="cls-10" x1="-1" y1="47" x2="72.44" y2="47">
</line>
<line class="cls-10" x1="-1" y1="43" x2="72.44" y2="43">
</line>
<line class="cls-10" x1="-1" y1="39" x2="72.44" y2="39">
</line>
<line class="cls-10" x1="-1" y1="35" x2="72.44" y2="35">
</line>
<line class="cls-10" x1="-1" y1="31" x2="72.44" y2="31">
</line>
<line class="cls-10" x1="-1" y1="27" x2="72.44" y2="27">
</line>
<line class="cls-10" x1="-1" y1="23" x2="72.44" y2="23">
</line>
<line class="cls-10" x1="-1" y1="19" x2="72.44" y2="19">
</line>
<line class="cls-10" x1="-1" y1="15" x2="72.44" y2="15">
</line>
<line class="cls-10" x1="-1" y1="11" x2="72.44" y2="11">
</line>
<line class="cls-10" x1="-1" y1="7" x2="72.44" y2="7">
</line>
<line class="cls-10" x1="-1" y1="3" x2="72.44" y2="3">
</line>
<line class="cls-10" x1="1.04" y1="69" x2="74.48" y2="69">
</line>
<line class="cls-10" x1="1.04" y1="65" x2="74.48" y2="65">
</line>
<line class="cls-10" x1="1.04" y1="61" x2="74.48" y2="61">
</line>
<line class="cls-10" x1="1.04" y1="57" x2="74.48" y2="57">
</line>
<line class="cls-10" x1="1.04" y1="53" x2="74.48" y2="53">
</line>
<line class="cls-10" x1="1.04" y1="49" x2="74.48" y2="49">
</line>
<line class="cls-10" x1="1.04" y1="45" x2="74.48" y2="45">
</line>
<line class="cls-10" x1="1.04" y1="41" x2="74.48" y2="41">
</line>
<line class="cls-10" x1="1.04" y1="37" x2="74.48" y2="37">
</line>
<line class="cls-10" x1="1.04" y1="33" x2="74.48" y2="33">
</line>
<line class="cls-10" x1="1.04" y1="29" x2="74.48" y2="29">
</line>
<line class="cls-10" x1="1.04" y1="25" x2="74.48" y2="25">
</line>
<line class="cls-10" x1="1.04" y1="21" x2="74.48" y2="21">
</line>
<line class="cls-10" x1="1.04" y1="17" x2="74.48" y2="17">
</line>
<line class="cls-10" x1="1.04" y1="13" x2="74.48" y2="13">
</line>
<line class="cls-10" x1="1.04" y1="9" x2="74.48" y2="9">
</line>
<line class="cls-10" x1="1.04" y1="5" x2="74.48" y2="5">
</line>
<line class="cls-10" x1="1.04" y1="1" x2="74.48" y2="1">
</line>
</g>
<g >
<line class="cls-10" x1="-73" y1="71" x2=".44" y2="71">
</line>
<line class="cls-10" x1="-73" y1="67" x2=".44" y2="67">
</line>
<line class="cls-10" x1="-73" y1="63" x2=".44" y2="63">
</line>
<line class="cls-10" x1="-73" y1="59" x2=".44" y2="59">
</line>
<line class="cls-10" x1="-73" y1="55" x2=".44" y2="55">
</line>
<line class="cls-10" x1="-73" y1="51" x2=".44" y2="51">
</line>
<line class="cls-10" x1="-73" y1="47" x2=".44" y2="47">
</line>
<line class="cls-10" x1="-73" y1="43" x2=".44" y2="43">
</line>
<line class="cls-10" x1="-73" y1="39" x2=".44" y2="39">
</line>
<line class="cls-10" x1="-73" y1="35" x2=".44" y2="35">
</line>
<line class="cls-10" x1="-73" y1="31" x2=".44" y2="31">
</line>
<line class="cls-10" x1="-73" y1="27" x2=".44" y2="27">
</line>
<line class="cls-10" x1="-73" y1="23" x2=".44" y2="23">
</line>
<line class="cls-10" x1="-73" y1="19" x2=".44" y2="19">
</line>
<line class="cls-10" x1="-73" y1="15" x2=".44" y2="15">
</line>
<line class="cls-10" x1="-73" y1="11" x2=".44" y2="11">
</line>
<line class="cls-10" x1="-73" y1="7" x2=".44" y2="7">
</line>
<line class="cls-10" x1="-73" y1="3" x2=".44" y2="3">
</line>
<line class="cls-10" x1="-70.96" y1="69" x2="2.48" y2="69">
</line>
<line class="cls-10" x1="-70.96" y1="65" x2="2.48" y2="65">
</line>
<line class="cls-10" x1="-70.96" y1="61" x2="2.48" y2="61">
</line>
<line class="cls-10" x1="-70.96" y1="57" x2="2.48" y2="57">
</line>
<line class="cls-10" x1="-70.96" y1="53" x2="2.48" y2="53">
</line>
<line class="cls-10" x1="-70.96" y1="49" x2="2.48" y2="49">
</line>
<line class="cls-10" x1="-70.96" y1="45" x2="2.48" y2="45">
</line>
<line class="cls-10" x1="-70.96" y1="41" x2="2.48" y2="41">
</line>
<line class="cls-10" x1="-70.96" y1="37" x2="2.48" y2="37">
</line>
<line class="cls-10" x1="-70.96" y1="33" x2="2.48" y2="33">
</line>
<line class="cls-10" x1="-70.96" y1="29" x2="2.48" y2="29">
</line>
<line class="cls-10" x1="-70.96" y1="25" x2="2.48" y2="25">
</line>
<line class="cls-10" x1="-70.96" y1="21" x2="2.48" y2="21">
</line>
<line class="cls-10" x1="-70.96" y1="17" x2="2.48" y2="17">
</line>
<line class="cls-10" x1="-70.96" y1="13" x2="2.48" y2="13">
</line>
<line class="cls-10" x1="-70.96" y1="9" x2="2.48" y2="9">
</line>
<line class="cls-10" x1="-70.96" y1="5" x2="2.48" y2="5">
</line>
<line class="cls-10" x1="-70.96" y1="1" x2="2.48" y2="1">
</line>
</g>
</g>
</pattern>
</defs>

<g id="Capa_9">
<g >
<g >
<path class="cls-1" d="M4.83,43.25s7.67-16.13,13.09-22.79,11.28-10.6,17.03-10.04,13.31,7.11,18.39,14.55,11.28,22.45,11.28,22.45l-4.96,25.83-23.92,4.4-27.07-4.74s-7.22-19.4-3.84-29.67Z">
</path>
<path class="cls-2" d="M34.23,64.01V31.06c0-3.03,2.3-5.57,5.32-5.86h0s4.1,.92,5.84,2.66c2.05,1.95,4.2,10.75,4.2,10.75,0,0-.1,8.09-1.33,10.85s-7.17,11.16-8.91,13-5.12,1.54-5.12,1.54Z">
</path>
<path d="M22.83,28.28s4.1-3.71,6.96-3.19,4.49,1.24,7.93,.39c3.58-.85,7.09,1.56,8.06,2.6-1.95-4.62-5.98-7.02-8.84-7.54s-6.57-.13-9.04,1.37-4.03,4.62-5.07,6.37Z">
</path>
<path d="M49.93,37.6s-.18,8.53-1.6,11.28-3.91,7.28-3.91,7.28l.09,7.99s1.87,3.46,5.95,4.09c4-9.77,3.46-11.46,3.11-16.08s-3.02-12.88-3.64-14.57Z">
</path>
<path d="M19.2,37.15s-.53,7.99,.53,10.75,4.17,7.99,4.17,7.99l.27,8.26s-2.84,4.26-5.95,4c-3.29-7.19-4-11.55-3.82-13.14s3.2-15.28,4.8-17.85Z">
</path>
<path class="cls-4" d="M31.9,36.25s-1.15,5.21-2.21,6.27c-1.8,1.15-4.76,.85-5.67-1.75-1.8-3.26-2.06-3.86-2.06-3.86,0,0,3.26-4.31,9.93-.65Z">
</path>
<path class="cls-3" d="M30.41,41.13s-.08-1.89-2.01-2.53-3.69,.91-4.37,2.16c.32,1.81,2.12,2.58,3.33,2.66s2.93-1.08,3.05-2.29Z">
</path>
<path class="cls-1" d="M47.43,50.94c1.38-4.65-.2-16.51-3.96-20.67-3.75-4.15-11.37-1.58-11.37-1.58,.13-1.21,.42-2.1,.85-2.76,1.03,.03,2.38,0,3.6-.27,1.07-.24,2.21-.47,3.16-.64h.01c.63,.17,1.28,.38,1.93,.59,4.55,1.49,7.26,7.63,7.86,10.6,.59,2.96,.98,7.41-2.08,14.73Z">
</path>
<path class="cls-4" d="M37.43,36.25s1.15,5.21,2.21,6.27c1.8,1.15,4.76,.85,5.67-1.75,1.8-3.26,2.06-3.86,2.06-3.86,0,0-3.26-4.31-9.93-.65Z">
</path>
<path class="cls-3" d="M38.92,41.13s.08-1.89,2.01-2.53,3.69,.91,4.37,2.16c-.32,1.81-2.12,2.58-3.33,2.66s-2.93-1.08-3.05-2.29Z">
</path>
<path class="cls-11" d="M24.36,64.41s1.44,7.26,9.31,7.19,10.31-5.11,10.84-7.45c2.18,2.45,5.6,4.1,5.6,4.1l-2.81,5.75s-18.29,3.7-26.3-.27c-1.71-2.81-2.81-5.34-2.81-5.34,0,0,3.15-.27,6.16-3.97Z">
</path>
<path class="cls-13" d="M25.58,67.46s-2.66,3.47-6.06,3.18c.81,2.29,5.4,6.13,5.4,6.13l5.03-5.69s-2.73-1.77-4.36-3.62Z">
</path>
<path d="M41.5,69.41s4,3.34,6.25,3.34c-1.53,2.4-3.05,3.41-3.05,3.41,0,0-3.2-4.5-4.65-5.59,1.02-.36,1.45-1.16,1.45-1.16Z">
</path>
<path class="cls-13" d="M37.35,71.67v5.78l4.32-1.18s-2.32-2.41-3.09-5c-.41-.09-1.23,.41-1.23,.41Z">
</path>
<path d="M44.03,57.67l-14.91,20.02-8.35-2.64-2.55-6.9,6.47-11.25s4.35,6.9,7.84,7.07,5.28-.68,6.99-2.13,4.52-4.17,4.52-4.17Z">
</path>
<path class="cls-2" d="M29.19,44.75c-1.09,.36-2.93,.75-4.43-.05-.38-.21-.82,.14-.7,.56,1.07,3.58,4.08,4.52,5.74,.11,.14-.38-.23-.75-.61-.63Z">
</path>
<path class="cls-1" d="M45.18,46.97c-.16,1.99-.84,3.72-1.74,5.45-.31,.56-.63,1.12-1.11,1.67l-.1-.02c.5-2.34,1.47-5.42,2.95-7.11h0Z">
</path>
<path class="cls-2" d="M33.83,20.51V10.44s6.32-.64,11.89,5.89,11.99,15.53,18.31,30.2c-1.93,20.46-5.35,27.95-5.35,27.95l-12.74,.43s7.6-10.17,7.71-17.78c-.32-10.82-4.5-22.81-8.67-30.84-5.08-7.17-11.14-5.78-11.14-5.78Z">
</path>
<path d="M14.54,25.74s.1,8.35,3.63,13.26c-3.63,13.45-3.63,18.66-2.85,21.31s6.78,14.83,6.78,14.83l-13.55-4.12-3.54-28.38s7.27-13.45,9.53-16.89Z">
</path>
<path class="cls-1" d="M54.35,56.77s4.8,2.45,7.72,2.45c-.19,7.91-3.01,14.69-3.01,14.69l-12.43,.66s6.12-9.51,7.72-17.79Z">
</path>
<path class="cls-4" d="M30.51,54.58s2.47-1.31,3.79-1c2.47-.47,3.73,1.26,3.73,1.26,0,0-1.42,1.89-3.73,1.58-2.05,0-3.31-.89-3.79-1.84Z">
</path>
<path class="cls-8" d="M48.8,45.71s-2.32,5.59-5.37,10.31-5.23,7.33-9.58,7.33">
</path>
<path class="cls-5" d="M46.91,74.33s7.96-11.69,6.95-19.15c-1.01-7.47-5.14-34.63-18.14-34.74h-2.82c-13,.11-17.13,27.27-18.14,34.74-1.01,7.47,6.95,19.15,6.95,19.15">
</path>
<path class="cls-5" d="M63.35,44.81s-10.01-22.44-17.66-28.93c-1.47-1.26-2.85-2.3-4.14-3.16-4.69-3.12-10.81-3.12-15.49,0-1.3,.86-2.67,1.91-4.15,3.16-7.65,6.49-17.66,28.93-17.66,28.93">
</path>
<path class="cls-5" d="M49.46,35.37s.84,10.1-1.68,14.5c-1.54,2.71-4.14,8.31-8.2,12.09-2.96,2.75-7.55,2.75-10.51,0-4.07-3.78-6.66-9.39-8.21-12.09-2.52-4.4-1.68-14.5-1.68-14.5">
</path>
<path class="cls-5" d="M49.51,38.37s-1.89-9.93-6.43-12.01-5.58-.57-8.7-.57h-.18c-3.12,0-4.16-1.51-8.7,.57s-6.43,12.01-6.43,12.01">
</path>
<path d="M21.84,36.95s1.22-2.6,4.57-2.83,5.45,2.17,5.45,2.17c0,0-1.71,1-3.64,.13s-3.91-.97-6.38,.53Z">
</path>
<path d="M30.36,40.91c-.73-2.11-2.99-2.81-4.79-1.58-.63,.38-1.02,1.05-1.61,1.49-.28,.04-.57-.08-.87-.22,.21-.24,.45-.38,.68-.5l-.27,.2c1.25-3.24,6.61-3.31,6.86,.61h0Z">
</path>
<path d="M30.12,41.81c-.99,2.38-5.48,2.43-5.88-.38,1.31,2.07,4.38,2.27,5.88,.38h0Z">
</path>
<path d="M47.42,36.95s-1.22-2.6-4.57-2.83-5.45,2.17-5.45,2.17c0,0,1.71,1,3.64,.13s3.91-.97,6.38,.53Z">
</path>
<path d="M38.9,40.91c.25-3.92,5.61-3.85,6.86-.61,0,0-.27-.2-.27-.2,.24,.12,.47,.26,.68,.5-.3,.14-.59,.26-.87,.23-.59-.45-.98-1.12-1.61-1.49-1.8-1.23-4.06-.53-4.79,1.58h0Z">
</path>
<path d="M39.14,41.81c1.51,1.89,4.58,1.7,5.88-.38-.4,2.81-4.9,2.76-5.88,.38h0Z">
</path>
<path d="M37.26,46.98c1.04,.53-.07,1.6-.57,2.09-.55,.61-1.39,1.23-2.3,1.2-.91,.03-1.75-.59-2.3-1.2-.38-.46-1.09-.91-1-1.6,.06-.25,.24-.4,.42-.48-.56,.77,.6,1.08,1.07,1.49,1.3,1.06,2.31,1.06,3.61,0,.47-.41,1.63-.72,1.07-1.49h0Z">
</path>
<path d="M34.39,54.17c.5-.09,1.74-.22,2.96,.44,1.57,.86,2.07,.1,2.07,.1,0,0-.83-.82-2.11-1.9-1.06-.9-2.16-.96-2.92-.43-.76-.53-1.86-.47-2.92,.43-1.28,1.08-2.11,1.9-2.11,1.9,0,0,.5,.76,2.07-.1,1.22-.66,2.46-.53,2.96-.44Z">
</path>
<path d="M37.34,55.48c-.58,.85-2.23,1.38-3.02,1.21-.02,.02-.02-.76,0-.75,0,0,.01,.77,0,.75-.79,.16-2.44-.36-3.02-1.21,.92,.7,2.06,.79,3.02,.47,.02-.02,0,.75,0,.75,0,0,0,0,0,0,0,0-.01-.77,0-.75,.96,.32,2.11,.24,3.02-.47h0Z">
</path>
<path class="cls-6" d="M24.28,56.08v6.9c0,.65-.19,1.29-.54,1.83-.71,1.1-2.25,2.79-5.27,3.67">
</path>
<path class="cls-6" d="M44.41,56.08v6.9c0,.65,.19,1.29,.54,1.83,.71,1.1,2.25,2.79,5.27,3.67">
</path>
<path class="cls-6" d="M44.38,63.46s-.65,8.18-9.39,8.18h-1.38c-8.74,0-9.39-8.18-9.39-8.18">
</path>
<path class="cls-6" d="M47.34,67.06s-1.26,8.67-12.19,8.67h-1.79c-10.93,0-12.19-8.67-12.19-8.67">
</path>
</g>
<path class="cls-1" d="M17.32,41.11c-1.09,4.98-2.56,10-2.8,15.11,.47,5.1,2.66,9.92,4.68,14.58,0,0-.09,.04-.09,.04-2.7-4.48-5.02-9.31-5.59-14.59,.17-4.02,1.31-7.7,2.4-11.51,.43-1.22,.8-2.46,1.3-3.66l.1,.02h0Z">
</path>
</g>
</g>
 <g
     id="g2850">
    <g
       id="g2837">
      <path
         id="path1951"
         d="M 0.056640625 0.04296875 L 0.056640625 79.943359 L 69.308594 79.943359 L 69.308594 0.04296875 L 0.056640625 0.04296875 z M 33.615234 3.5957031 C 34.206332 3.5957038 34.786991 3.6051034 35.421875 3.6152344 C 44.430653 3.7671809 53.471255 5.1336733 61.560547 7.5546875 L 62.064453 7.7070312 L 62.25 8.1640625 C 66.070247 17.605006 66.990234 28.726438 66.990234 40.0625 C 66.990234 51.398562 65.972723 63.025755 61.988281 72.578125 L 61.791016 73.044922 L 61.275391 73.185547 C 53.273669 75.403966 44.691921 76.529297 35.759766 76.529297 C 35.212453 76.529297 34.675812 76.519896 34.150391 76.509766 L 33.943359 76.509766 C 24.901742 76.357819 15.860367 74.989738 7.7929688 72.558594 L 7.2890625 72.40625 L 7.1035156 71.951172 C 3.2942144 62.520359 2.375 51.369168 2.375 40.0625 C 2.375 28.755832 3.3819737 17.127318 7.3554688 7.5546875 L 7.5527344 7.0898438 L 8.0664062 6.9472656 C 15.509867 4.890923 23.785212 3.7371557 32.005859 3.6054688 C 32.542226 3.5953387 33.078867 3.5957031 33.615234 3.5957031 z "
         style="opacity:1;vector-effect:none;fill:#ffffff;fill-opacity:1;fill-rule:nonzero;stroke:none;stroke-width:1.95200002;stroke-linecap:butt;stroke-linejoin:miter;stroke-miterlimit:4;stroke-dasharray:none;stroke-dashoffset:0;stroke-opacity:1" />
    </g>
    <path
       id="path1154-8-2"
       d="m 33.675163,6.6112954 c 0.557696,0 1.115392,0.00956 1.683415,0.019115 8.427403,0.14336 16.803167,1.4049288 24.363042,3.6700176 3.573384,8.830981 4.443772,19.417362 4.443772,29.761551 0,10.344189 -0.95301,21.39888 -4.68131,30.334991 -7.435942,2.064385 -15.429581,3.274388 -23.774362,3.274388 -0.506058,0 -1.012115,-0.0096 -1.518172,-0.01911 h -0.17557 C 25.56792,73.508883 17.192156,72.088619 9.6426089,69.813973 6.0795528,61.002107 5.2088244,50.415411 5.2088244,40.061979 c 0,-10.353432 0.95335,-21.389323 4.6609939,-30.325434 C 16.820359,7.8155201 24.462856,6.7450981 32.177647,6.6208528 c 0.49573,-0.00956 1.001787,-0.00956 1.497516,-0.00956 m 0,-0.9557337 c -0.506057,0 -1.012114,0 -1.518171,0.00956 C 24.40089,5.7893644 16.593149,6.8789009 9.570315,8.8190405 L 9.0849131,8.9528432 8.8990146,9.3924808 C 5.1500599,18.424166 4.1999116,29.394246 4.1999116,40.061979 c 0,10.667733 0.8675267,21.188618 4.461566,30.0865 l 0.1755708,0.430081 0.4750741,0.14336 c 7.6115135,2.293761 16.1421925,3.584001 24.6728715,3.727361 h 0.196227 c 0.495729,0.0096 1.001786,0.01911 1.518171,0.01911 8.427403,0 16.524318,-1.060864 24.073866,-3.153921 l 0.485403,-0.133802 0.185898,-0.439639 c 3.759282,-9.01257 4.719759,-19.983589 4.719759,-30.679055 0,-10.695466 -0.867528,-21.188618 -4.471894,-30.0960578 L 60.516853,9.5358409 60.041779,9.3924808 C 52.409609,7.108277 43.87893,5.8180364 35.379234,5.6746763 34.780227,5.6651187 34.232859,5.6555621 33.675163,5.6555615 Z"
       style="fill:#ff0000;stroke:#ffffff;stroke-width:1.84341729;stroke-miterlimit:4;stroke-dasharray:none" />
    <path
       id="path1154"
       d="m 33.614853,4.6077955 c 0.591098,0 1.182197,0.01013 1.784241,0.02026 8.932155,0.1519464 17.809578,1.4890758 25.822246,3.8898304 3.787408,9.3599041 4.709928,20.5803481 4.709928,31.5440931 0,10.963745 -1.01009,22.680548 -4.961693,32.151879 -7.881312,2.18803 -16.353723,3.302304 -25.198307,3.302304 -0.536368,0 -1.072735,-0.01013 -1.609102,-0.02026 H 33.97608 C 25.022033,75.343956 16.14461,74.006827 8.1428892,71.595943 4.3664269,62.256298 3.443547,51.035521 3.443547,40.061979 c 0,-10.973542 1.01045,-22.670418 4.9401601,-32.1417498 7.3668369,-2.036083 15.4670749,-3.170617 23.6439369,-3.3023039 0.525421,-0.01013 1.061788,-0.01013 1.587209,-0.01013 m 0,-1.0129766 c -0.536367,0 -1.072734,0 -1.609101,0.01013 C 23.785105,3.7366356 15.509726,4.891429 8.0662653,6.9477716 L 7.5517907,7.0895883 7.3547579,7.5555576 C 3.3812628,17.128188 2.3742062,28.755311 2.3742062,40.061979 c 0,11.306668 0.9194864,22.457692 4.7287876,31.888505 l 0.1860865,0.45584 0.5035283,0.151947 c 8.0673984,2.431144 17.1090154,3.798662 26.1506324,3.950608 h 0.207979 c 0.525421,0.01013 1.061788,0.02026 1.609101,0.02026 8.932155,0 17.514028,-1.124404 25.51575,-3.342823 l 0.514475,-0.141816 0.197032,-0.46597 c 3.984442,-9.55237 5.002445,-21.180489 5.002445,-32.516551 0,-11.336062 -0.919487,-22.457692 -4.739734,-31.8986353 L 62.064202,7.7075041 61.560674,7.5555576 C 53.471382,5.1345434 44.429765,3.7670249 35.420987,3.6150784 c -0.634884,-0.01013 -1.215036,-0.020259 -1.806134,-0.02026 z"
       style="fill:#000000;stroke:#000000;stroke-width:1.95382714;stroke-miterlimit:4;stroke-dasharray:none" />
    <g
       id="g1810">
      <path
         d="M 6.5134911,7.7433673 C 5.6489029,6.8479453 4.058602,6.5681013 3.6272194,7.3820013 3.284151,8.0292783 3.3625296,8.5309135 4.395235,8.9201755 3.2963719,9.5187755 1.4857674,9.4447465 1.1893447,7.4467713 0.95320848,5.8551433 2.674739,4.8863543 3.1399725,5.0916244 3.0034432,3.6818714 1.8221094,4.0692802 0.95849208,3.2813384 0.34259068,2.7194046 0.23126071,-0.02624603 0.0561761,0.04378767 -0.0138576,0.21887227 2.7317937,0.33020157 3.2937267,0.94610377 4.0816685,1.8097211 3.6942598,2.9910547 5.1040128,3.1275841 4.8987425,2.6623507 5.8675315,0.94082017 7.4591593,1.1769564 9.4571345,1.4733791 9.5311625,3.2839847 8.9325635,4.3828467 8.5433008,3.3501417 8.041666,3.2717627 7.3943894,3.6148312 6.5804899,4.0462137 6.8603354,5.6365129 7.7557553,6.5011023"
         style="fill:#000000;stroke:#000000;stroke-width:0.1112323px;stroke-linecap:butt;stroke-linejoin:miter;stroke-opacity:1"
         id="path1737-3" />
      <path
         d="m 62.850738,7.7433673 c 0.864588,-0.895422 2.454889,-1.175266 2.886271,-0.361366 0.343069,0.647277 0.26469,1.148912 -0.768015,1.538174 1.098863,0.5986 2.909467,0.524571 3.20589,-1.473404 0.236136,-1.591628 -1.485394,-2.560417 -1.950628,-2.3551469 0.13653,-1.409753 1.317863,-1.0223442 2.181481,-1.810286 0.615901,-0.5619338 0.727231,-3.30758442 0.902316,-3.23755072 0.07003,0.1750846 -2.675618,0.2864139 -3.237551,0.9023161 C 65.28256,1.8097211 65.669969,2.9910547 64.260216,3.1275841 64.465486,2.6623507 63.496697,0.94082018 61.905069,1.1769564 c -1.997975,0.2964227 -2.072003,2.1070283 -1.473404,3.2058903 0.389263,-1.032705 0.890898,-1.111084 1.538174,-0.7680155 0.8139,0.4313825 0.534054,2.0216817 -0.361366,2.8862711"
         style="fill:#000000;stroke:#000000;stroke-width:0.1112323px;stroke-linecap:butt;stroke-linejoin:miter;stroke-opacity:1"
         id="path1737-3-5" />
      <path
         d="m 62.850738,72.244244 c 0.864588,0.895422 2.454889,1.175266 2.886272,0.361366 0.343068,-0.647277 0.264689,-1.148912 -0.768016,-1.538174 1.098863,-0.5986 2.909468,-0.524571 3.20589,1.473404 0.236137,1.591628 -1.485394,2.560417 -1.950628,2.355147 0.13653,1.409753 1.317864,1.022344 2.181481,1.810286 0.615901,0.561934 0.727231,3.307584 0.902316,3.237551 0.07003,-0.175085 -2.675618,-0.286414 -3.237551,-0.902317 -0.787942,-0.863617 -0.400533,-2.04495 -1.810286,-2.18148 0.20527,0.465234 -0.763519,2.186764 -2.355146,1.950628 -1.997976,-0.296423 -2.072004,-2.107028 -1.473405,-3.20589 0.389263,1.032705 0.890898,1.111084 1.538175,0.768015 0.813899,-0.431382 0.534054,-2.021682 -0.361366,-2.886271"
         style="fill:#000000;stroke:#000000;stroke-width:0.1112323px;stroke-linecap:butt;stroke-linejoin:miter;stroke-opacity:1"
         id="path1737-3-7" />
      <path
         d="M 6.513491,72.244245 C 5.648903,73.139667 4.058602,73.419511 3.62722,72.605611 3.284151,71.958334 3.36253,71.456699 4.395235,71.067437 c -1.098863,-0.5986 -2.909467,-0.524571 -3.20589,1.473404 -0.23613599,1.591628 1.485394,2.560417 1.950628,2.355147 -0.13653,1.409753 -1.317863,1.022344 -2.18148099,1.810286 -0.615901,0.561933 -0.727231,3.307584 -0.902316,3.23755 C -0.01385399,79.76874 2.731794,79.65741 3.293727,79.041508 4.081669,78.177891 3.69426,76.996557 5.104013,76.860028 4.898743,77.325261 5.867532,79.046792 7.45916,78.810656 9.457135,78.514233 9.531163,76.703627 8.932564,75.604765 8.543301,76.63747 8.041666,76.715849 7.39439,76.372781 6.58049,75.941398 6.860336,74.351099 7.755756,73.48651"
         style="fill:#000000;stroke:#000000;stroke-width:0.1112323px;stroke-linecap:butt;stroke-linejoin:miter;stroke-opacity:1"
         id="path1737-3-5-5" />
    </g>
    <path
       id="path1154-9"
       d="m 33.712865,7.4258691 c 0.536813,0 1.07363,0.00933 1.620386,0.01865 8.111875,0.1398689 16.174044,1.3707167 23.450873,3.5806479 3.439594,8.615932 4.277395,18.944521 4.277395,29.036812 0,10.092292 -0.917329,20.877786 -4.506039,29.596289 -7.157536,2.014114 -14.851888,3.03982 -22.884234,3.03982 -0.487111,0 -0.974221,-0.0094 -1.461331,-0.01865 H 34.040918 C 25.909161,72.53957 17.846991,71.308722 10.580105,69.089467 7.1504515,60.492184 6.3123238,50.163289 6.3123238,40.061979 c 0,-10.101311 0.9176558,-20.868461 4.4864832,-29.586965 6.690308,-1.8742449 14.046665,-2.9186005 21.472608,-3.0398203 0.47717,-0.00933 0.964281,-0.00933 1.44145,-0.00933 m 0,-0.9324602 c -0.487111,0 -0.974221,0 -1.46133,0.00933 C 24.785826,6.6239532 17.270413,7.686958 10.510517,9.5798526 L 10.043289,9.710397 9.8643508,10.139328 c -3.6085914,8.811751 -4.5231655,19.514693 -4.5231655,29.922651 0,10.407958 0.8350459,20.672644 4.294522,29.353849 l 0.1689973,0.419608 0.4572874,0.13987 c 7.326533,2.237904 15.537818,3.496724 23.749103,3.636593 h 0.188879 c 0.47717,0.0094 0.96428,0.01865 1.461331,0.01865 8.111875,0 15.905636,-1.035031 23.172525,-3.077119 l 0.467228,-0.130544 0.178938,-0.428932 c 3.618533,-8.793101 4.543048,-19.496959 4.543048,-29.931975 0,-10.435016 -0.835047,-20.672644 -4.304463,-29.363174 l -0.168997,-0.419609 -0.457288,-0.13987 C 51.74588,7.9107484 43.534594,6.6519271 35.353133,6.512058 34.776554,6.502738 34.249678,6.493409 33.712865,6.493409 Z"
       style="fill:#000000;stroke:none;stroke-width:1.78642213;stroke-miterlimit:4;stroke-dasharray:none" />
    <path
       id="path1154-9-3"
       d="m 33.712865,7.4258686 c 0.536813,0 1.07363,0.00933 1.620386,0.01865 8.111875,0.1398689 16.174044,1.3707167 23.450873,3.5806484 3.439594,8.615932 4.277395,18.944521 4.277395,29.036812 0,10.092292 -0.917329,20.877786 -4.506039,29.596288 -7.157536,2.014114 -14.851888,3.03982 -22.884234,3.03982 -0.487111,0 -0.974221,-0.0094 -1.461331,-0.01865 H 34.040918 C 25.909161,72.539569 17.846991,71.308722 10.580105,69.089466 7.1504515,60.492184 6.3123238,50.163288 6.3123238,40.061979 c 0,-10.101312 0.9176558,-20.868461 4.4864832,-29.586965 6.690308,-1.8742454 14.046665,-2.918601 21.472608,-3.0398208 0.47717,-0.00933 0.964281,-0.00933 1.44145,-0.00933 m 0,-0.9324602 c -0.487111,0 -0.974221,0 -1.46133,0.00933 C 24.785826,6.6239527 17.270413,7.6869575 10.510517,9.5798521 L 10.043289,9.7103965 9.8643508,10.139328 C 6.2557594,18.951079 5.3411853,29.65402 5.3411853,40.061979 c 0,10.407958 0.8350459,20.672643 4.294522,29.353849 l 0.1689973,0.419608 0.4572874,0.13987 c 7.326533,2.237904 15.537818,3.496724 23.749103,3.636593 h 0.188879 c 0.47717,0.0094 0.96428,0.01865 1.461331,0.01865 8.111875,0 15.905636,-1.035032 23.172525,-3.077119 l 0.467228,-0.130544 0.178938,-0.428932 c 3.618533,-8.793101 4.543048,-19.49696 4.543048,-29.931975 0,-10.435016 -0.835047,-20.672644 -4.304463,-29.363175 l -0.168997,-0.419609 -0.457288,-0.13987 C 51.74588,7.9107479 43.534594,6.6519266 35.353133,6.5120575 34.776554,6.5027375 34.249678,6.4934085 33.712865,6.4934085 Z"
       style="fill:#000000;stroke:none;stroke-width:1.78642213;stroke-miterlimit:4;stroke-dasharray:none" />
  </g>
</svg>
