<svg id="Capa_2" xmlns="http://www.w3.org/2000/svg" xmlns:xlink="http://www.w3.org/1999/xlink" viewBox="0 0 69.02 80">
<defs >
<style >
.cls-1{fill:#c89aed;}.cls-2{fill:#fff;}.cls-3{fill:#f8ffbf;}.cls-4{fill:#7b7be8;}.cls-5,.cls-6{stroke:#000;}.cls-5,.cls-6,.cls-7,.cls-8,.cls-9,.cls-10{fill:none;}.cls-5,.cls-7{stroke-linejoin:round;}.cls-11{fill:#a88347;}.cls-12{fill:#782ab5;}.cls-6,.cls-8{stroke-miterlimit:10;}.cls-7{stroke:#deb778;stroke-dasharray:0 0 0 4.06;stroke-linecap:round;}.cls-8{stroke:#c89aed;}.cls-13{fill:#deb778;}.cls-14{fill:url(#USGS_19_Inundación_de_tierra_2);}.cls-10{stroke:#1d1d1b;stroke-dasharray:0 0 2 2;stroke-width:.3px;}.cls-15{fill:#fcf0c5;}
</style>
<pattern id="USGS_19_Inundación_de_tierra_2" x="0" y="0" width="72" height="72" patternTransform="translate(-236.48 -16351) rotate(-90)" patternUnits="userSpaceOnUse" viewBox="0 0 72 72">
<g >
<rect class="cls-9" width="72" height="72">
</rect>
<g >
<line class="cls-10" x1="71" y1="71" x2="144.44" y2="71">
</line>
<line class="cls-10" x1="71" y1="67" x2="144.44" y2="67">
</line>
<line class="cls-10" x1="71" y1="63" x2="144.44" y2="63">
</line>
<line class="cls-10" x1="71" y1="59" x2="144.44" y2="59">
</line>
<line class="cls-10" x1="71" y1="55" x2="144.44" y2="55">
</line>
<line class="cls-10" x1="71" y1="51" x2="144.44" y2="51">
</line>
<line class="cls-10" x1="71" y1="47" x2="144.44" y2="47">
</line>
<line class="cls-10" x1="71" y1="43" x2="144.44" y2="43">
</line>
<line class="cls-10" x1="71" y1="39" x2="144.44" y2="39">
</line>
<line class="cls-10" x1="71" y1="35" x2="144.44" y2="35">
</line>
<line class="cls-10" x1="71" y1="31" x2="144.44" y2="31">
</line>
<line class="cls-10" x1="71" y1="27" x2="144.44" y2="27">
</line>
<line class="cls-10" x1="71" y1="23" x2="144.44" y2="23">
</line>
<line class="cls-10" x1="71" y1="19" x2="144.44" y2="19">
</line>
<line class="cls-10" x1="71" y1="15" x2="144.44" y2="15">
</line>
<line class="cls-10" x1="71" y1="11" x2="144.44" y2="11">
</line>
<line class="cls-10" x1="71" y1="7" x2="144.44" y2="7">
</line>
<line class="cls-10" x1="71" y1="3" x2="144.44" y2="3">
</line>
</g>
<g >
<line class="cls-10" x1="-1" y1="71" x2="72.44" y2="71">
</line>
<line class="cls-10" x1="-1" y1="67" x2="72.44" y2="67">
</line>
<line class="cls-10" x1="-1" y1="63" x2="72.44" y2="63">
</line>
<line class="cls-10" x1="-1" y1="59" x2="72.44" y2="59">
</line>
<line class="cls-10" x1="-1" y1="55" x2="72.44" y2="55">
</line>
<line class="cls-10" x1="-1" y1="51" x2="72.44" y2="51">
</line>
<line class="cls-10" x1="-1" y1="47" x2="72.44" y2="47">
</line>
<line class="cls-10" x1="-1" y1="43" x2="72.44" y2="43">
</line>
<line class="cls-10" x1="-1" y1="39" x2="72.44" y2="39">
</line>
<line class="cls-10" x1="-1" y1="35" x2="72.44" y2="35">
</line>
<line class="cls-10" x1="-1" y1="31" x2="72.44" y2="31">
</line>
<line class="cls-10" x1="-1" y1="27" x2="72.44" y2="27">
</line>
<line class="cls-10" x1="-1" y1="23" x2="72.44" y2="23">
</line>
<line class="cls-10" x1="-1" y1="19" x2="72.44" y2="19">
</line>
<line class="cls-10" x1="-1" y1="15" x2="72.44" y2="15">
</line>
<line class="cls-10" x1="-1" y1="11" x2="72.44" y2="11">
</line>
<line class="cls-10" x1="-1" y1="7" x2="72.44" y2="7">
</line>
<line class="cls-10" x1="-1" y1="3" x2="72.44" y2="3">
</line>
<line class="cls-10" x1="1.04" y1="69" x2="74.48" y2="69">
</line>
<line class="cls-10" x1="1.04" y1="65" x2="74.48" y2="65">
</line>
<line class="cls-10" x1="1.04" y1="61" x2="74.48" y2="61">
</line>
<line class="cls-10" x1="1.04" y1="57" x2="74.48" y2="57">
</line>
<line class="cls-10" x1="1.04" y1="53" x2="74.48" y2="53">
</line>
<line class="cls-10" x1="1.04" y1="49" x2="74.48" y2="49">
</line>
<line class="cls-10" x1="1.04" y1="45" x2="74.48" y2="45">
</line>
<line class="cls-10" x1="1.04" y1="41" x2="74.48" y2="41">
</line>
<line class="cls-10" x1="1.04" y1="37" x2="74.48" y2="37">
</line>
<line class="cls-10" x1="1.04" y1="33" x2="74.48" y2="33">
</line>
<line class="cls-10" x1="1.04" y1="29" x2="74.48" y2="29">
</line>
<line class="cls-10" x1="1.04" y1="25" x2="74.48" y2="25">
</line>
<line class="cls-10" x1="1.04" y1="21" x2="74.48" y2="21">
</line>
<line class="cls-10" x1="1.04" y1="17" x2="74.48" y2="17">
</line>
<line class="cls-10" x1="1.04" y1="13" x2="74.48" y2="13">
</line>
<line class="cls-10" x1="1.04" y1="9" x2="74.48" y2="9">
</line>
<line class="cls-10" x1="1.04" y1="5" x2="74.48" y2="5">
</line>
<line class="cls-10" x1="1.04" y1="1" x2="74.48" y2="1">
</line>
</g>
<g >
<line class="cls-10" x1="-73" y1="71" x2=".44" y2="71">
</line>
<line class="cls-10" x1="-73" y1="67" x2=".44" y2="67">
</line>
<line class="cls-10" x1="-73" y1="63" x2=".44" y2="63">
</line>
<line class="cls-10" x1="-73" y1="59" x2=".44" y2="59">
</line>
<line class="cls-10" x1="-73" y1="55" x2=".44" y2="55">
</line>
<line class="cls-10" x1="-73" y1="51" x2=".44" y2="51">
</line>
<line class="cls-10" x1="-73" y1="47" x2=".44" y2="47">
</line>
<line class="cls-10" x1="-73" y1="43" x2=".44" y2="43">
</line>
<line class="cls-10" x1="-73" y1="39" x2=".44" y2="39">
</line>
<line class="cls-10" x1="-73" y1="35" x2=".44" y2="35">
</line>
<line class="cls-10" x1="-73" y1="31" x2=".44" y2="31">
</line>
<line class="cls-10" x1="-73" y1="27" x2=".44" y2="27">
</line>
<line class="cls-10" x1="-73" y1="23" x2=".44" y2="23">
</line>
<line class="cls-10" x1="-73" y1="19" x2=".44" y2="19">
</line>
<line class="cls-10" x1="-73" y1="15" x2=".44" y2="15">
</line>
<line class="cls-10" x1="-73" y1="11" x2=".44" y2="11">
</line>
<line class="cls-10" x1="-73" y1="7" x2=".44" y2="7">
</line>
<line class="cls-10" x1="-73" y1="3" x2=".44" y2="3">
</line>
<line class="cls-10" x1="-70.96" y1="69" x2="2.48" y2="69">
</line>
<line class="cls-10" x1="-70.96" y1="65" x2="2.48" y2="65">
</line>
<line class="cls-10" x1="-70.96" y1="61" x2="2.48" y2="61">
</line>
<line class="cls-10" x1="-70.96" y1="57" x2="2.48" y2="57">
</line>
<line class="cls-10" x1="-70.96" y1="53" x2="2.48" y2="53">
</line>
<line class="cls-10" x1="-70.96" y1="49" x2="2.48" y2="49">
</line>
<line class="cls-10" x1="-70.96" y1="45" x2="2.48" y2="45">
</line>
<line class="cls-10" x1="-70.96" y1="41" x2="2.48" y2="41">
</line>
<line class="cls-10" x1="-70.96" y1="37" x2="2.48" y2="37">
</line>
<line class="cls-10" x1="-70.96" y1="33" x2="2.48" y2="33">
</line>
<line class="cls-10" x1="-70.96" y1="29" x2="2.48" y2="29">
</line>
<line class="cls-10" x1="-70.96" y1="25" x2="2.48" y2="25">
</line>
<line class="cls-10" x1="-70.96" y1="21" x2="2.48" y2="21">
</line>
<line class="cls-10" x1="-70.96" y1="17" x2="2.48" y2="17">
</line>
<line class="cls-10" x1="-70.96" y1="13" x2="2.48" y2="13">
</line>
<line class="cls-10" x1="-70.96" y1="9" x2="2.48" y2="9">
</line>
<line class="cls-10" x1="-70.96" y1="5" x2="2.48" y2="5">
</line>
<line class="cls-10" x1="-70.96" y1="1" x2="2.48" y2="1">
</line>
</g>
</g>
</pattern>
</defs>
  <path
     style="opacity:1;vector-effect:none;fill:#cccccc;fill-opacity:1;fill-rule:nonzero;stroke:none;stroke-width:4.49546146;stroke-linecap:butt;stroke-linejoin:miter;stroke-miterlimit:4;stroke-dasharray:none;stroke-dashoffset:0;stroke-opacity:1"
     d="M -0.08007812,0.36132812 V 80.361328 H 68.919922 V 0.36132812 Z"
     id="rect4304"/>

<g id="Capa_9">
<g >
<g >
<path class="cls-1" d="M4.83,43.25s7.67-16.13,13.09-22.79,11.28-10.6,17.03-10.04,13.31,7.11,18.39,14.55,11.28,22.45,11.28,22.45l-4.96,25.83-23.92,4.4-27.07-4.74s-7.22-19.4-3.84-29.67Z">
</path>
<path class="cls-2" d="M34.23,64.01V31.06c0-3.03,2.3-5.57,5.32-5.86h0s4.1,.92,5.84,2.66c2.05,1.95,4.2,10.75,4.2,10.75,0,0-.1,8.09-1.33,10.85s-7.17,11.16-8.91,13-5.12,1.54-5.12,1.54Z">
</path>
<path d="M22.83,28.28s4.1-3.71,6.96-3.19,4.49,1.24,7.93,.39c3.58-.85,7.09,1.56,8.06,2.6-1.95-4.62-5.98-7.02-8.84-7.54s-6.57-.13-9.04,1.37-4.03,4.62-5.07,6.37Z">
</path>
<path d="M49.93,37.6s-.18,8.53-1.6,11.28-3.91,7.28-3.91,7.28l.09,7.99s1.87,3.46,5.95,4.09c4-9.77,3.46-11.46,3.11-16.08s-3.02-12.88-3.64-14.57Z">
</path>
<path d="M19.2,37.15s-.53,7.99,.53,10.75,4.17,7.99,4.17,7.99l.27,8.26s-2.84,4.26-5.95,4c-3.29-7.19-4-11.55-3.82-13.14s3.2-15.28,4.8-17.85Z">
</path>
<path class="cls-4" d="M31.9,36.25s-1.15,5.21-2.21,6.27c-1.8,1.15-4.76,.85-5.67-1.75-1.8-3.26-2.06-3.86-2.06-3.86,0,0,3.26-4.31,9.93-.65Z">
</path>
<path class="cls-3" d="M30.41,41.13s-.08-1.89-2.01-2.53-3.69,.91-4.37,2.16c.32,1.81,2.12,2.58,3.33,2.66s2.93-1.08,3.05-2.29Z">
</path>
<path class="cls-1" d="M47.43,50.94c1.38-4.65-.2-16.51-3.96-20.67-3.75-4.15-11.37-1.58-11.37-1.58,.13-1.21,.42-2.1,.85-2.76,1.03,.03,2.38,0,3.6-.27,1.07-.24,2.21-.47,3.16-.64h.01c.63,.17,1.28,.38,1.93,.59,4.55,1.49,7.26,7.63,7.86,10.6,.59,2.96,.98,7.41-2.08,14.73Z">
</path>
<path class="cls-4" d="M37.43,36.25s1.15,5.21,2.21,6.27c1.8,1.15,4.76,.85,5.67-1.75,1.8-3.26,2.06-3.86,2.06-3.86,0,0-3.26-4.31-9.93-.65Z">
</path>
<path class="cls-3" d="M38.92,41.13s.08-1.89,2.01-2.53,3.69,.91,4.37,2.16c-.32,1.81-2.12,2.58-3.33,2.66s-2.93-1.08-3.05-2.29Z">
</path>
<path class="cls-11" d="M24.36,64.41s1.44,7.26,9.31,7.19,10.31-5.11,10.84-7.45c2.18,2.45,5.6,4.1,5.6,4.1l-2.81,5.75s-18.29,3.7-26.3-.27c-1.71-2.81-2.81-5.34-2.81-5.34,0,0,3.15-.27,6.16-3.97Z">
</path>
<path class="cls-13" d="M25.58,67.46s-2.66,3.47-6.06,3.18c.81,2.29,5.4,6.13,5.4,6.13l5.03-5.69s-2.73-1.77-4.36-3.62Z">
</path>
<path d="M41.5,69.41s4,3.34,6.25,3.34c-1.53,2.4-3.05,3.41-3.05,3.41,0,0-3.2-4.5-4.65-5.59,1.02-.36,1.45-1.16,1.45-1.16Z">
</path>
<path class="cls-13" d="M37.35,71.67v5.78l4.32-1.18s-2.32-2.41-3.09-5c-.41-.09-1.23,.41-1.23,.41Z">
</path>
<path d="M44.03,57.67l-14.91,20.02-8.35-2.64-2.55-6.9,6.47-11.25s4.35,6.9,7.84,7.07,5.28-.68,6.99-2.13,4.52-4.17,4.52-4.17Z">
</path>
<path class="cls-2" d="M29.19,44.75c-1.09,.36-2.93,.75-4.43-.05-.38-.21-.82,.14-.7,.56,1.07,3.58,4.08,4.52,5.74,.11,.14-.38-.23-.75-.61-.63Z">
</path>
<path class="cls-1" d="M45.18,46.97c-.16,1.99-.84,3.72-1.74,5.45-.31,.56-.63,1.12-1.11,1.67l-.1-.02c.5-2.34,1.47-5.42,2.95-7.11h0Z">
</path>
<path class="cls-2" d="M33.83,20.51V10.44s6.32-.64,11.89,5.89,11.99,15.53,18.31,30.2c-1.93,20.46-5.35,27.95-5.35,27.95l-12.74,.43s7.6-10.17,7.71-17.78c-.32-10.82-4.5-22.81-8.67-30.84-5.08-7.17-11.14-5.78-11.14-5.78Z">
</path>
<path d="M14.54,25.74s.1,8.35,3.63,13.26c-3.63,13.45-3.63,18.66-2.85,21.31s6.78,14.83,6.78,14.83l-13.55-4.12-3.54-28.38s7.27-13.45,9.53-16.89Z">
</path>
<path class="cls-1" d="M54.35,56.77s4.8,2.45,7.72,2.45c-.19,7.91-3.01,14.69-3.01,14.69l-12.43,.66s6.12-9.51,7.72-17.79Z">
</path>
<path class="cls-4" d="M30.51,54.58s2.47-1.31,3.79-1c2.47-.47,3.73,1.26,3.73,1.26,0,0-1.42,1.89-3.73,1.58-2.05,0-3.31-.89-3.79-1.84Z">
</path>
<path class="cls-8" d="M48.8,45.71s-2.32,5.59-5.37,10.31-5.23,7.33-9.58,7.33">
</path>
<path class="cls-5" d="M46.91,74.33s7.96-11.69,6.95-19.15c-1.01-7.47-5.14-34.63-18.14-34.74h-2.82c-13,.11-17.13,27.27-18.14,34.74-1.01,7.47,6.95,19.15,6.95,19.15">
</path>
<path class="cls-5" d="M63.35,44.81s-10.01-22.44-17.66-28.93c-1.47-1.26-2.85-2.3-4.14-3.16-4.69-3.12-10.81-3.12-15.49,0-1.3,.86-2.67,1.91-4.15,3.16-7.65,6.49-17.66,28.93-17.66,28.93">
</path>
<path class="cls-5" d="M49.46,35.37s.84,10.1-1.68,14.5c-1.54,2.71-4.14,8.31-8.2,12.09-2.96,2.75-7.55,2.75-10.51,0-4.07-3.78-6.66-9.39-8.21-12.09-2.52-4.4-1.68-14.5-1.68-14.5">
</path>
<path class="cls-5" d="M49.51,38.37s-1.89-9.93-6.43-12.01-5.58-.57-8.7-.57h-.18c-3.12,0-4.16-1.51-8.7,.57s-6.43,12.01-6.43,12.01">
</path>
<path d="M21.84,36.95s1.22-2.6,4.57-2.83,5.45,2.17,5.45,2.17c0,0-1.71,1-3.64,.13s-3.91-.97-6.38,.53Z">
</path>
<path d="M30.36,40.91c-.73-2.11-2.99-2.81-4.79-1.58-.63,.38-1.02,1.05-1.61,1.49-.28,.04-.57-.08-.87-.22,.21-.24,.45-.38,.68-.5l-.27,.2c1.25-3.24,6.61-3.31,6.86,.61h0Z">
</path>
<path d="M30.12,41.81c-.99,2.38-5.48,2.43-5.88-.38,1.31,2.07,4.38,2.27,5.88,.38h0Z">
</path>
<path d="M47.42,36.95s-1.22-2.6-4.57-2.83-5.45,2.17-5.45,2.17c0,0,1.71,1,3.64,.13s3.91-.97,6.38,.53Z">
</path>
<path d="M38.9,40.91c.25-3.92,5.61-3.85,6.86-.61,0,0-.27-.2-.27-.2,.24,.12,.47,.26,.68,.5-.3,.14-.59,.26-.87,.23-.59-.45-.98-1.12-1.61-1.49-1.8-1.23-4.06-.53-4.79,1.58h0Z">
</path>
<path d="M39.14,41.81c1.51,1.89,4.58,1.7,5.88-.38-.4,2.81-4.9,2.76-5.88,.38h0Z">
</path>
<path d="M37.26,46.98c1.04,.53-.07,1.6-.57,2.09-.55,.61-1.39,1.23-2.3,1.2-.91,.03-1.75-.59-2.3-1.2-.38-.46-1.09-.91-1-1.6,.06-.25,.24-.4,.42-.48-.56,.77,.6,1.08,1.07,1.49,1.3,1.06,2.31,1.06,3.61,0,.47-.41,1.63-.72,1.07-1.49h0Z">
</path>
<path d="M34.39,54.17c.5-.09,1.74-.22,2.96,.44,1.57,.86,2.07,.1,2.07,.1,0,0-.83-.82-2.11-1.9-1.06-.9-2.16-.96-2.92-.43-.76-.53-1.86-.47-2.92,.43-1.28,1.08-2.11,1.9-2.11,1.9,0,0,.5,.76,2.07-.1,1.22-.66,2.46-.53,2.96-.44Z">
</path>
<path d="M37.34,55.48c-.58,.85-2.23,1.38-3.02,1.21-.02,.02-.02-.76,0-.75,0,0,.01,.77,0,.75-.79,.16-2.44-.36-3.02-1.21,.92,.7,2.06,.79,3.02,.47,.02-.02,0,.75,0,.75,0,0,0,0,0,0,0,0-.01-.77,0-.75,.96,.32,2.11,.24,3.02-.47h0Z">
</path>
<path class="cls-6" d="M24.28,56.08v6.9c0,.65-.19,1.29-.54,1.83-.71,1.1-2.25,2.79-5.27,3.67">
</path>
<path class="cls-6" d="M44.41,56.08v6.9c0,.65,.19,1.29,.54,1.83,.71,1.1,2.25,2.79,5.27,3.67">
</path>
<path class="cls-6" d="M44.38,63.46s-.65,8.18-9.39,8.18h-1.38c-8.74,0-9.39-8.18-9.39-8.18">
</path>
<path class="cls-6" d="M47.34,67.06s-1.26,8.67-12.19,8.67h-1.79c-10.93,0-12.19-8.67-12.19-8.67">
</path>
</g>
<path class="cls-1" d="M17.32,41.11c-1.09,4.98-2.56,10-2.8,15.11,.47,5.1,2.66,9.92,4.68,14.58,0,0-.09,.04-.09,.04-2.7-4.48-5.02-9.31-5.59-14.59,.17-4.02,1.31-7.7,2.4-11.51,.43-1.22,.8-2.46,1.3-3.66l.1,.02h0Z">
</path>
</g>
</g>

  <path
     style="opacity:1;vector-effect:none;fill:#8d5fd3;fill-opacity:1;fill-rule:nonzero;stroke:none;stroke-width:2.35769176;stroke-linecap:butt;stroke-linejoin:miter;stroke-miterlimit:4;stroke-dasharray:none;stroke-dashoffset:0;stroke-opacity:0.44186048"
     d="M 0,1.2e-7 V 80 H 69 V 1.2e-7 Z M 35.240234,4.658203 c 6.067554,0.1120422 16.269844,1.4698438 23.589844,3.8398438 3.46,9.2400002 5.269531,19.9506252 5.269531,31.1406252 0,11.47 -1.89,22.390234 -5.5,31.740234 -7.2,2.16 -14.940375,3.376539 -23.019531,3.259766 -8.580486,-0.124019 -18.036001,-1.572896 -25.240234,-3.86914 -3.4500003,-9.22 -5.2597659,-19.930859 -5.2597659,-31.130859 0,-11.2 1.8904687,-22.380469 5.4804689,-31.730469 C 17.682894,5.1336941 29.17268,4.5461608 35.240234,4.658203 Z"
     id="rect4304" />


</svg>
