<svg id="Capa_2" xmlns="http://www.w3.org/2000/svg" xmlns:xlink="http://www.w3.org/1999/xlink" viewBox="0 0 69.02 80">
<defs >
<style >
.cls-1{fill:#c89aed;}.cls-2{fill:#fff;}.cls-3{fill:#f8ffbf;}.cls-4{fill:#7b7be8;}.cls-5,.cls-6{stroke:#000;}.cls-5,.cls-6,.cls-7,.cls-8,.cls-9,.cls-10{fill:none;}.cls-5,.cls-7{stroke-linejoin:round;}.cls-11{fill:#a88347;}.cls-12{fill:#782ab5;}.cls-6,.cls-8{stroke-miterlimit:10;}.cls-13{fill:#1c46ff;}.cls-7{stroke:#deb778;stroke-dasharray:0 0 0 4.06;stroke-linecap:round;}.cls-8{stroke:#c89aed;}.cls-14{fill:#deb778;}.cls-15{fill:url(#USGS_19_Inundación_de_tierra_2);}.cls-10{stroke:#1d1d1b;stroke-dasharray:0 0 2 2;stroke-width:.3px;}.cls-16{fill:#fcf0c5;}
</style>
<pattern id="USGS_19_Inundación_de_tierra_2" x="0" y="0" width="72" height="72" patternTransform="translate(-452.48 -16351) rotate(-90)" patternUnits="userSpaceOnUse" viewBox="0 0 72 72">
<g >
<rect class="cls-9" width="72" height="72">
</rect>
<g >
<line class="cls-10" x1="71" y1="71" x2="144.44" y2="71">
</line>
<line class="cls-10" x1="71" y1="67" x2="144.44" y2="67">
</line>
<line class="cls-10" x1="71" y1="63" x2="144.44" y2="63">
</line>
<line class="cls-10" x1="71" y1="59" x2="144.44" y2="59">
</line>
<line class="cls-10" x1="71" y1="55" x2="144.44" y2="55">
</line>
<line class="cls-10" x1="71" y1="51" x2="144.44" y2="51">
</line>
<line class="cls-10" x1="71" y1="47" x2="144.44" y2="47">
</line>
<line class="cls-10" x1="71" y1="43" x2="144.44" y2="43">
</line>
<line class="cls-10" x1="71" y1="39" x2="144.44" y2="39">
</line>
<line class="cls-10" x1="71" y1="35" x2="144.44" y2="35">
</line>
<line class="cls-10" x1="71" y1="31" x2="144.44" y2="31">
</line>
<line class="cls-10" x1="71" y1="27" x2="144.44" y2="27">
</line>
<line class="cls-10" x1="71" y1="23" x2="144.44" y2="23">
</line>
<line class="cls-10" x1="71" y1="19" x2="144.44" y2="19">
</line>
<line class="cls-10" x1="71" y1="15" x2="144.44" y2="15">
</line>
<line class="cls-10" x1="71" y1="11" x2="144.44" y2="11">
</line>
<line class="cls-10" x1="71" y1="7" x2="144.44" y2="7">
</line>
<line class="cls-10" x1="71" y1="3" x2="144.44" y2="3">
</line>
</g>
<g >
<line class="cls-10" x1="-1" y1="71" x2="72.44" y2="71">
</line>
<line class="cls-10" x1="-1" y1="67" x2="72.44" y2="67">
</line>
<line class="cls-10" x1="-1" y1="63" x2="72.44" y2="63">
</line>
<line class="cls-10" x1="-1" y1="59" x2="72.44" y2="59">
</line>
<line class="cls-10" x1="-1" y1="55" x2="72.44" y2="55">
</line>
<line class="cls-10" x1="-1" y1="51" x2="72.44" y2="51">
</line>
<line class="cls-10" x1="-1" y1="47" x2="72.44" y2="47">
</line>
<line class="cls-10" x1="-1" y1="43" x2="72.44" y2="43">
</line>
<line class="cls-10" x1="-1" y1="39" x2="72.44" y2="39">
</line>
<line class="cls-10" x1="-1" y1="35" x2="72.44" y2="35">
</line>
<line class="cls-10" x1="-1" y1="31" x2="72.44" y2="31">
</line>
<line class="cls-10" x1="-1" y1="27" x2="72.44" y2="27">
</line>
<line class="cls-10" x1="-1" y1="23" x2="72.44" y2="23">
</line>
<line class="cls-10" x1="-1" y1="19" x2="72.44" y2="19">
</line>
<line class="cls-10" x1="-1" y1="15" x2="72.44" y2="15">
</line>
<line class="cls-10" x1="-1" y1="11" x2="72.44" y2="11">
</line>
<line class="cls-10" x1="-1" y1="7" x2="72.44" y2="7">
</line>
<line class="cls-10" x1="-1" y1="3" x2="72.44" y2="3">
</line>
<line class="cls-10" x1="1.04" y1="69" x2="74.48" y2="69">
</line>
<line class="cls-10" x1="1.04" y1="65" x2="74.48" y2="65">
</line>
<line class="cls-10" x1="1.04" y1="61" x2="74.48" y2="61">
</line>
<line class="cls-10" x1="1.04" y1="57" x2="74.48" y2="57">
</line>
<line class="cls-10" x1="1.04" y1="53" x2="74.48" y2="53">
</line>
<line class="cls-10" x1="1.04" y1="49" x2="74.48" y2="49">
</line>
<line class="cls-10" x1="1.04" y1="45" x2="74.48" y2="45">
</line>
<line class="cls-10" x1="1.04" y1="41" x2="74.48" y2="41">
</line>
<line class="cls-10" x1="1.04" y1="37" x2="74.48" y2="37">
</line>
<line class="cls-10" x1="1.04" y1="33" x2="74.48" y2="33">
</line>
<line class="cls-10" x1="1.04" y1="29" x2="74.48" y2="29">
</line>
<line class="cls-10" x1="1.04" y1="25" x2="74.48" y2="25">
</line>
<line class="cls-10" x1="1.04" y1="21" x2="74.48" y2="21">
</line>
<line class="cls-10" x1="1.04" y1="17" x2="74.48" y2="17">
</line>
<line class="cls-10" x1="1.04" y1="13" x2="74.48" y2="13">
</line>
<line class="cls-10" x1="1.04" y1="9" x2="74.48" y2="9">
</line>
<line class="cls-10" x1="1.04" y1="5" x2="74.48" y2="5">
</line>
<line class="cls-10" x1="1.04" y1="1" x2="74.48" y2="1">
</line>
</g>
<g >
<line class="cls-10" x1="-73" y1="71" x2=".44" y2="71">
</line>
<line class="cls-10" x1="-73" y1="67" x2=".44" y2="67">
</line>
<line class="cls-10" x1="-73" y1="63" x2=".44" y2="63">
</line>
<line class="cls-10" x1="-73" y1="59" x2=".44" y2="59">
</line>
<line class="cls-10" x1="-73" y1="55" x2=".44" y2="55">
</line>
<line class="cls-10" x1="-73" y1="51" x2=".44" y2="51">
</line>
<line class="cls-10" x1="-73" y1="47" x2=".44" y2="47">
</line>
<line class="cls-10" x1="-73" y1="43" x2=".44" y2="43">
</line>
<line class="cls-10" x1="-73" y1="39" x2=".44" y2="39">
</line>
<line class="cls-10" x1="-73" y1="35" x2=".44" y2="35">
</line>
<line class="cls-10" x1="-73" y1="31" x2=".44" y2="31">
</line>
<line class="cls-10" x1="-73" y1="27" x2=".44" y2="27">
</line>
<line class="cls-10" x1="-73" y1="23" x2=".44" y2="23">
</line>
<line class="cls-10" x1="-73" y1="19" x2=".44" y2="19">
</line>
<line class="cls-10" x1="-73" y1="15" x2=".44" y2="15">
</line>
<line class="cls-10" x1="-73" y1="11" x2=".44" y2="11">
</line>
<line class="cls-10" x1="-73" y1="7" x2=".44" y2="7">
</line>
<line class="cls-10" x1="-73" y1="3" x2=".44" y2="3">
</line>
<line class="cls-10" x1="-70.96" y1="69" x2="2.48" y2="69">
</line>
<line class="cls-10" x1="-70.96" y1="65" x2="2.48" y2="65">
</line>
<line class="cls-10" x1="-70.96" y1="61" x2="2.48" y2="61">
</line>
<line class="cls-10" x1="-70.96" y1="57" x2="2.48" y2="57">
</line>
<line class="cls-10" x1="-70.96" y1="53" x2="2.48" y2="53">
</line>
<line class="cls-10" x1="-70.96" y1="49" x2="2.48" y2="49">
</line>
<line class="cls-10" x1="-70.96" y1="45" x2="2.48" y2="45">
</line>
<line class="cls-10" x1="-70.96" y1="41" x2="2.48" y2="41">
</line>
<line class="cls-10" x1="-70.96" y1="37" x2="2.48" y2="37">
</line>
<line class="cls-10" x1="-70.96" y1="33" x2="2.48" y2="33">
</line>
<line class="cls-10" x1="-70.96" y1="29" x2="2.48" y2="29">
</line>
<line class="cls-10" x1="-70.96" y1="25" x2="2.48" y2="25">
</line>
<line class="cls-10" x1="-70.96" y1="21" x2="2.48" y2="21">
</line>
<line class="cls-10" x1="-70.96" y1="17" x2="2.48" y2="17">
</line>
<line class="cls-10" x1="-70.96" y1="13" x2="2.48" y2="13">
</line>
<line class="cls-10" x1="-70.96" y1="9" x2="2.48" y2="9">
</line>
<line class="cls-10" x1="-70.96" y1="5" x2="2.48" y2="5">
</line>
<line class="cls-10" x1="-70.96" y1="1" x2="2.48" y2="1">
</line>
</g>
</g>
</pattern>
</defs>

<g id="Capa_9">
<g >
<g >
<path class="cls-1" d="M17.36,30.74s-4.5,0-5.03,4.17,1.39,9.2,6.1,10.28c.43,3.96,1.82,6.21,1.82,6.21l.21,8.67-13.49,4.39,.43,8.99,26.76,4.39,26.12-4.6,1.18-7.92-13.91-5.46,.11-9.42s1.5-2.35,1.39-5.14c4.71-.43,6.21-6.42,6.31-8.78s-.96-5.35-4.5-5.35c-1.18-5.46-1.18-7.49-1.18-7.49l-10.49-10.28s-2.68-3.43-7.06-2.03-7.28,4.39-7.28,4.39l-6.64,8.24-.86,6.74Z">
</path>
<path class="cls-2" d="M33.59,61.04V27.72s4.77-.24,6.97-3.13c4.68-.22,8.78,3.13,8.78,3.13l-.57,14.7s.38,7.54-2.67,10.31c-4.39,5.16-7.92,9.45-12.51,8.31Z">
</path>
<path class="cls-4" d="M41.63,20c-.19,4.28-3.47,7.76-7.76,7.76s-7.94-3.84-7.94-8.12,3.66-8.16,7.94-8.16,7.98,3.31,7.76,8.53Z">
</path>
<path class="cls-2" d="M37.72,12.33s-2.96,3.52-3.03,5.49c-1.76-.21-2.81,.63-2.81,.63,0,0-.07-4.64-2.74-5.49,3.45-1.76,5.91-2.04,8.59-.63Z">
</path>
<path class="cls-2" d="M34.46,21.38s.33,4.56,3.78,5.15c-4.56,2.41-8.22,.85-10.24-1.24,1.96-.46,4.17-3.52,4.24-4.76,1.17,.98,2.22,.85,2.22,.85Z">
</path>
<path class="cls-11" d="M27.22,24.71s-5.54,.33-9.69,3.14c.13-2.47,.47-3.87,.47-3.87,0,0,5.14-2.2,7.82-1.94,1.14,1.74,1.4,2.67,1.4,2.67Z">
</path>
<path class="cls-11" d="M40.35,24.71s5.54,.33,9.69,3.14c-.13-2.47-.47-3.87-.47-3.87,0,0-5.14-2.2-7.82-1.94-1.14,1.74-1.4,2.67-1.4,2.67Z">
</path>
<polygon class="cls-4" points="45.58 22.34 45.07 25.33 40.56 24.59 42.15 21.6 45.58 22.34">
</polygon>
<ellipse class="cls-2" cx="34.75" cy="19.36" rx=".72" ry="1.29">
</ellipse>
<polygon class="cls-2" points="44.44 22.33 43.49 24.99 45.39 25.37 45.77 22.52 44.44 22.33">
</polygon>
<path class="cls-14" d="M48.66,25.3l.02,.39-.07-.03,.05-.36m-.76-1.82l-.39,2.77,2.27,1.05-.21-3.33-1.67-.49h0Z">
</path>
<polygon class="cls-14" points="19.12 24.07 18.79 26.78 17.36 27.31 18.12 24.31 19.12 24.07">
</polygon>
<path d="M17.44,31.28s-1.69-1.13-4.02,.94-.94,6.97,.06,9.23,3.14,3.39,4.77,3.26c.13-5.21,.31-7.28,.31-7.28l-1.13-6.15Z">
</path>
<circle class="cls-3" cx="27.47" cy="36.59" r="4.23">
</circle>
<circle class="cls-3" cx="40.24" cy="36.59" r="4.23">
</circle>
<path d="M40.52,59.33l-14.18,16.21-16.01-3.76-1.83-7.43,11.96-4.82v-7.81s7.04,8.39,9.07,9.26,4.73,.29,4.73,.29c0,0,2.7,.19,6.27-1.93Z">
</path>
<path class="cls-4" d="M47.54,59.85s1.47,5.18-.71,8.19c-2.39,3.63-5.08,6.64-5.08,6.64l3.32-.31s3.11-4.05,4.05-6.33,1.14-5.71,.31-7.26c-.93-.52-1.88-.93-1.88-.93Z">
</path>
<path class="cls-2" d="M48.12,62.57s1.11,.98,1.83,.59c.07,4.06-2.42,7.13-2.42,7.13,0,0-.26-1.37-1.18-1.18,1.44-2.88,1.7-4.51,1.77-6.54Z">
</path>
<path class="cls-13" d="M38.31,74.77s5.15-4.57,6.51-7.67c1.65-3.69,2.82-6.31,2.82-6.31,0,0,1.09,3.52-.1,5.93s-5.25,8.45-5.25,8.45l-3.98-.39Z">
</path>
<path class="cls-13" d="M45.42,73.99s3.21-4.52,3.95-6.58,.58-6.25,.41-6.83c9.95,3.54,11.43,4.11,11.43,4.11l-1.56,9.21-14.23,.08Z">
</path>
<path class="cls-8" d="M48.5,43.34c-.06,1.95-.32,4.22-1.05,6.24-3.25,5.55-7.74,9.42-9.41,10.41-1.75,1.06-3.99,.79-4.07,.78h-.65s-2.25,.28-4.01-.78c-1.66-.99-6.16-4.86-9.37-10.33-.76-2.1-.98-4.54-1-6.61,.55,1.33,1.41,2.49,2.71,3.22,.12,.4,1.08,3.39,1.08,3.39l-.17-3.79v-.11s-.3-.26-.3-.26c-2.54-1.34-3.2-4.63-3.01-7.29-.79-3.24-2.63-6.66-1.51-9.97,.58-.45,4.02-2.89,9.57-2.97,1.61,1.84,3.97,3,6.59,3s4.98-1.16,6.59-3c5.54,.08,8.8,2.52,9.34,2.96,1.13,3.31-.72,6.74-1.51,9.98,.02,.16,.01,.33,.02,.5h-.03s.02,.11,.04,.28c0,2.49-.74,5.29-3.03,6.51l-.3,.26v.11s-.18,3.79-.18,3.79c0,0,.96-2.99,1.08-3.39,1.21-.67,2.02-1.72,2.58-2.93Z">
</path>
<path d="M19.25,38.11s-.75-4.68-.55-7.02,1-4.43,1-4.43c0,0-1.74,.8-2.49,1.54-1,2.74,.3,7.57,2.04,9.91Z">
</path>
<path d="M18.06,23.97s-.4-1.34,.15-3.88,4.68-6.37,9.96-6.82c-3.34,4.13-2.44,8.91-2.44,8.91,0,0-3.29-.55-7.67,1.79Z">
</path>
<path d="M41.86,21.73s.75-1.54,.25-3.78-1.94-4.38-1.94-4.38c0,0,3.63-.05,6.22,2.39s4.18,5.43,3.04,8.07c-2.49-1.84-7.57-2.29-7.57-2.29Z">
</path>
<path d="M48.48,26.76s.84,5.56-.25,11.75c2.44-3.49,2.59-7.57,2.49-8.56s-.65-2.14-.65-2.14l-1.59-1.05Z">
</path>
<path class="cls-6" d="M18.37,45.01s-2.56,.38-4.36-2.85-1.99-6.83-1.23-8.73,2.66-3.04,4.17-2.09">
</path>
<path class="cls-6" d="M49.11,45.01s2.56,.38,4.36-2.85,1.99-6.83,1.23-8.73-2.66-3.04-4.17-2.09">
</path>
<path d="M22.73,49.66l-1.16-3.61,.3,.37c-1.52-.75-2.47-2.1-3.05-3.61-.55-1.44-.65-3.04-.58-4.57-.7-2.51-2.8-7.22-1.38-10.51,0,0-.03,.11-.03,.11,.18-1.17,.5-3.03,.56-4.19-1.19-4,2.59-8.31,6.66-9.82,1.33-.54,2.7-.89,4.2-.92l-.02,1c-2.57,.08-5.19,1.23-7.17,2.89-2.03,1.57-3.38,4.3-2.65,6.8-.02,.71-.15,1.57-.24,2.27,0,0-.33,2.14-.33,2.14-1.29,3.37,.62,6.88,1.43,10.19-.19,2.66,.47,5.95,3.01,7.29,0,0,.3,.26,.3,.26v.11s.18,3.79,.18,3.79h0Z">
</path>
<path d="M44.84,49.66l.17-3.79v-.11s.3-.26,.3-.26c2.54-1.34,3.19-4.63,3.01-7.29,.81-3.31,2.72-6.82,1.43-10.19,0,0-.33-2.14-.33-2.14-.09-.69-.22-1.55-.24-2.27,.72-2.5-.62-5.23-2.65-6.8-1.98-1.66-4.6-2.81-7.17-2.89,0,0-.02-1-.02-1,1.5,.04,2.87,.39,4.2,.92,4.05,1.49,7.85,5.85,6.66,9.82,.07,1.15,.38,3.02,.56,4.19,0,0-.03-.11-.03-.11,1.42,3.28-.68,8.01-1.38,10.51,.07,1.52-.03,3.13-.58,4.57-.58,1.51-1.53,2.85-3.05,3.61,0,0,.3-.37,.3-.37l-1.16,3.61h0Z">
</path>
<path class="cls-6" d="M48.81,38.65s.86,6.23-.92,11.18c-3.17,5.41-7.65,9.43-9.59,10.59s-4.33,.85-4.33,.85h-.58s-2.4,.31-4.33-.85-6.42-5.18-9.59-10.59c-1.78-4.95-.72-11.56-.72-11.56">
</path>
<path d="M39.49,51.82c-1.45-.25-2.71-.88-4.17-.79-.73,.03-2.2,.03-2.93,0-1.46-.09-2.72,.54-4.17,.79,1.21-.83,2.65-1.73,4.17-1.74,0,0,1.46-.03,1.46-.03l1.46,.03c1.52,0,2.95,.91,4.17,1.74h0Z">
</path>
<path d="M30.77,52.64c.89,.2,2.09,.08,2.99,.1,1.03-.01,1.99,.09,3.04,.05-1.31,1.27-4.87,1.36-6.03-.15h0Z">
</path>
<path d="M30.9,56.4c1.27-1.85,4.49-1.67,5.78,.08-2.09-.41-3.7-.6-5.78-.08h0Z">
</path>
<circle class="cls-6" cx="33.9" cy="19.49" r="8.28">
</circle>
<circle class="cls-6" cx="33.9" cy="19.49" r="1.72">
</circle>
<polyline class="cls-6" points="20.25 51.32 20.62 59.6 7.17 64.48">
</polyline>
<path class="cls-6" d="M17.32,27.93s3.73-3.17,10.26-3.17">
</path>
<path class="cls-6" d="M50.25,27.93s-3.5-3.17-10.02-3.17">
</path>
<path class="cls-6" d="M17.83,24.5s3.36-2.57,8.02-2.57">
</path>
<path class="cls-6" d="M49.67,24.34s-3.06-2.41-7.72-2.41">
</path>
<line class="cls-6" x1="45.7" y1="22.62" x2="45.26" y2="25.24">
</line>
<path class="cls-5" d="M36.22,37.9s.23,4.01,1.77,5.89c-.19,2.22-1.15,3.14-1.15,3.14,0,0,0-1.59-.68-1.64-.38-.03-1.45,1.11-2.31,2.11-.87-1-1.94-2.14-2.32-2.11-.68,.05-.68,1.64-.68,1.64,0,0-.96-.92-1.16-3.14,1.55-1.88,1.78-5.64,1.78-5.64">
</path>
<circle class="cls-5" cx="27.5" cy="36.67" r="4.22">
</circle>
<circle class="cls-5" cx="40.24" cy="36.67" r="4.22">
</circle>
<path class="cls-5" d="M31.74,37.35s1-.76,2.16-.76,2.03,.69,2.03,.69">
</path>
<path d="M22.32,32.73c1.45-2.34,4.6-2.94,7.14-2.34,.88,.19,1.69,.47,2.51,.96l-.64,1.08c-1.33-.62-2.97-1.01-4.46-1.01-1.6,.02-3.01,.73-4.54,1.3h0Z">
</path>
<path d="M45.43,32.73c-1.53-.57-2.95-1.29-4.54-1.3-1.49,0-3.13,.39-4.46,1.01l-.64-1.08c.83-.49,1.63-.77,2.51-.96,2.53-.6,5.69,0,7.14,2.34h0Z">
</path>
<path class="cls-5" d="M20.62,59.6s1.2,10.76,10.54,16.21">
</path>
<polyline class="cls-6" points="47.62 50.32 47.25 59.6 60.7 64.48">
</polyline>
<path class="cls-5" d="M47.25,59.6s-1.2,10.76-10.54,16.21">
</path>
<path class="cls-5" d="M25.07,77.66c-.11-.12-2.82-3.06-5.77-7.9-3.16-5.18-1.15-9.1-1.07-9.29l1.72-.45c-.06,.15-1.56,4.41,1.05,8.7,2.83,4.65,5.5,7.55,5.52,7.58l-1.47,1.36Z">
</path>
<path class="cls-5" d="M42.42,77.66c.11-.12,2.82-3.06,5.77-7.9,3.16-5.18,1.15-9.1,1.07-9.29l-1.72-.45c.06,.15,1.56,4.41-1.05,8.7-2.83,4.65-5.5,7.55-5.52,7.58l1.47,1.36Z">
</path>
</g>
<path class="cls-13" d="M21.28,55.68c.39,1.6,.6,3.3,.73,4.94l-.52,.24c-3.68,1.61-7.81,3.33-11.73,3.56,0,0,5.71-2.19,5.71-2.19,1.8-.64,4.12-1.66,5.68-2.07,0,0,.03-4.49,.03-4.49h.1Z">
</path>
<path class="cls-13" d="M16.06,31.89c-4.06,1.84-2.18,7.99-.17,10.77,.35,.5,.8,.91,1.32,1.32l-.03,.09c-4.36-1.45-6.81-11.55-1.11-12.18h0Z">
</path>
<path class="cls-13" d="M48.83,20.93s-2.43-3.21-5.99-3.57c-.86-1.78-1.71-3.28-1.71-3.28,0,0,6.35,1.36,7.71,6.85Z">
</path>
</g>
</g>
 <g
     id="g2850">
    <g
       id="g2837">
      <path
         id="path1951"
         d="M 0.056640625 0.04296875 L 0.056640625 79.943359 L 69.308594 79.943359 L 69.308594 0.04296875 L 0.056640625 0.04296875 z M 33.615234 3.5957031 C 34.206332 3.5957038 34.786991 3.6051034 35.421875 3.6152344 C 44.430653 3.7671809 53.471255 5.1336733 61.560547 7.5546875 L 62.064453 7.7070312 L 62.25 8.1640625 C 66.070247 17.605006 66.990234 28.726438 66.990234 40.0625 C 66.990234 51.398562 65.972723 63.025755 61.988281 72.578125 L 61.791016 73.044922 L 61.275391 73.185547 C 53.273669 75.403966 44.691921 76.529297 35.759766 76.529297 C 35.212453 76.529297 34.675812 76.519896 34.150391 76.509766 L 33.943359 76.509766 C 24.901742 76.357819 15.860367 74.989738 7.7929688 72.558594 L 7.2890625 72.40625 L 7.1035156 71.951172 C 3.2942144 62.520359 2.375 51.369168 2.375 40.0625 C 2.375 28.755832 3.3819737 17.127318 7.3554688 7.5546875 L 7.5527344 7.0898438 L 8.0664062 6.9472656 C 15.509867 4.890923 23.785212 3.7371557 32.005859 3.6054688 C 32.542226 3.5953387 33.078867 3.5957031 33.615234 3.5957031 z "
         style="opacity:1;vector-effect:none;fill:#ffffff;fill-opacity:1;fill-rule:nonzero;stroke:none;stroke-width:1.95200002;stroke-linecap:butt;stroke-linejoin:miter;stroke-miterlimit:4;stroke-dasharray:none;stroke-dashoffset:0;stroke-opacity:1" />
    </g>
    <path
       id="path1154-8-2"
       d="m 33.675163,6.6112954 c 0.557696,0 1.115392,0.00956 1.683415,0.019115 8.427403,0.14336 16.803167,1.4049288 24.363042,3.6700176 3.573384,8.830981 4.443772,19.417362 4.443772,29.761551 0,10.344189 -0.95301,21.39888 -4.68131,30.334991 -7.435942,2.064385 -15.429581,3.274388 -23.774362,3.274388 -0.506058,0 -1.012115,-0.0096 -1.518172,-0.01911 h -0.17557 C 25.56792,73.508883 17.192156,72.088619 9.6426089,69.813973 6.0795528,61.002107 5.2088244,50.415411 5.2088244,40.061979 c 0,-10.353432 0.95335,-21.389323 4.6609939,-30.325434 C 16.820359,7.8155201 24.462856,6.7450981 32.177647,6.6208528 c 0.49573,-0.00956 1.001787,-0.00956 1.497516,-0.00956 m 0,-0.9557337 c -0.506057,0 -1.012114,0 -1.518171,0.00956 C 24.40089,5.7893644 16.593149,6.8789009 9.570315,8.8190405 L 9.0849131,8.9528432 8.8990146,9.3924808 C 5.1500599,18.424166 4.1999116,29.394246 4.1999116,40.061979 c 0,10.667733 0.8675267,21.188618 4.461566,30.0865 l 0.1755708,0.430081 0.4750741,0.14336 c 7.6115135,2.293761 16.1421925,3.584001 24.6728715,3.727361 h 0.196227 c 0.495729,0.0096 1.001786,0.01911 1.518171,0.01911 8.427403,0 16.524318,-1.060864 24.073866,-3.153921 l 0.485403,-0.133802 0.185898,-0.439639 c 3.759282,-9.01257 4.719759,-19.983589 4.719759,-30.679055 0,-10.695466 -0.867528,-21.188618 -4.471894,-30.0960578 L 60.516853,9.5358409 60.041779,9.3924808 C 52.409609,7.108277 43.87893,5.8180364 35.379234,5.6746763 34.780227,5.6651187 34.232859,5.6555621 33.675163,5.6555615 Z"
       style="fill:#ff0000;stroke:#ffffff;stroke-width:1.84341729;stroke-miterlimit:4;stroke-dasharray:none" />
    <path
       id="path1154"
       d="m 33.614853,4.6077955 c 0.591098,0 1.182197,0.01013 1.784241,0.02026 8.932155,0.1519464 17.809578,1.4890758 25.822246,3.8898304 3.787408,9.3599041 4.709928,20.5803481 4.709928,31.5440931 0,10.963745 -1.01009,22.680548 -4.961693,32.151879 -7.881312,2.18803 -16.353723,3.302304 -25.198307,3.302304 -0.536368,0 -1.072735,-0.01013 -1.609102,-0.02026 H 33.97608 C 25.022033,75.343956 16.14461,74.006827 8.1428892,71.595943 4.3664269,62.256298 3.443547,51.035521 3.443547,40.061979 c 0,-10.973542 1.01045,-22.670418 4.9401601,-32.1417498 7.3668369,-2.036083 15.4670749,-3.170617 23.6439369,-3.3023039 0.525421,-0.01013 1.061788,-0.01013 1.587209,-0.01013 m 0,-1.0129766 c -0.536367,0 -1.072734,0 -1.609101,0.01013 C 23.785105,3.7366356 15.509726,4.891429 8.0662653,6.9477716 L 7.5517907,7.0895883 7.3547579,7.5555576 C 3.3812628,17.128188 2.3742062,28.755311 2.3742062,40.061979 c 0,11.306668 0.9194864,22.457692 4.7287876,31.888505 l 0.1860865,0.45584 0.5035283,0.151947 c 8.0673984,2.431144 17.1090154,3.798662 26.1506324,3.950608 h 0.207979 c 0.525421,0.01013 1.061788,0.02026 1.609101,0.02026 8.932155,0 17.514028,-1.124404 25.51575,-3.342823 l 0.514475,-0.141816 0.197032,-0.46597 c 3.984442,-9.55237 5.002445,-21.180489 5.002445,-32.516551 0,-11.336062 -0.919487,-22.457692 -4.739734,-31.8986353 L 62.064202,7.7075041 61.560674,7.5555576 C 53.471382,5.1345434 44.429765,3.7670249 35.420987,3.6150784 c -0.634884,-0.01013 -1.215036,-0.020259 -1.806134,-0.02026 z"
       style="fill:#000000;stroke:#000000;stroke-width:1.95382714;stroke-miterlimit:4;stroke-dasharray:none" />
    <g
       id="g1810">
      <path
         d="M 6.5134911,7.7433673 C 5.6489029,6.8479453 4.058602,6.5681013 3.6272194,7.3820013 3.284151,8.0292783 3.3625296,8.5309135 4.395235,8.9201755 3.2963719,9.5187755 1.4857674,9.4447465 1.1893447,7.4467713 0.95320848,5.8551433 2.674739,4.8863543 3.1399725,5.0916244 3.0034432,3.6818714 1.8221094,4.0692802 0.95849208,3.2813384 0.34259068,2.7194046 0.23126071,-0.02624603 0.0561761,0.04378767 -0.0138576,0.21887227 2.7317937,0.33020157 3.2937267,0.94610377 4.0816685,1.8097211 3.6942598,2.9910547 5.1040128,3.1275841 4.8987425,2.6623507 5.8675315,0.94082017 7.4591593,1.1769564 9.4571345,1.4733791 9.5311625,3.2839847 8.9325635,4.3828467 8.5433008,3.3501417 8.041666,3.2717627 7.3943894,3.6148312 6.5804899,4.0462137 6.8603354,5.6365129 7.7557553,6.5011023"
         style="fill:#000000;stroke:#000000;stroke-width:0.1112323px;stroke-linecap:butt;stroke-linejoin:miter;stroke-opacity:1"
         id="path1737-3" />
      <path
         d="m 62.850738,7.7433673 c 0.864588,-0.895422 2.454889,-1.175266 2.886271,-0.361366 0.343069,0.647277 0.26469,1.148912 -0.768015,1.538174 1.098863,0.5986 2.909467,0.524571 3.20589,-1.473404 0.236136,-1.591628 -1.485394,-2.560417 -1.950628,-2.3551469 0.13653,-1.409753 1.317863,-1.0223442 2.181481,-1.810286 0.615901,-0.5619338 0.727231,-3.30758442 0.902316,-3.23755072 0.07003,0.1750846 -2.675618,0.2864139 -3.237551,0.9023161 C 65.28256,1.8097211 65.669969,2.9910547 64.260216,3.1275841 64.465486,2.6623507 63.496697,0.94082018 61.905069,1.1769564 c -1.997975,0.2964227 -2.072003,2.1070283 -1.473404,3.2058903 0.389263,-1.032705 0.890898,-1.111084 1.538174,-0.7680155 0.8139,0.4313825 0.534054,2.0216817 -0.361366,2.8862711"
         style="fill:#000000;stroke:#000000;stroke-width:0.1112323px;stroke-linecap:butt;stroke-linejoin:miter;stroke-opacity:1"
         id="path1737-3-5" />
      <path
         d="m 62.850738,72.244244 c 0.864588,0.895422 2.454889,1.175266 2.886272,0.361366 0.343068,-0.647277 0.264689,-1.148912 -0.768016,-1.538174 1.098863,-0.5986 2.909468,-0.524571 3.20589,1.473404 0.236137,1.591628 -1.485394,2.560417 -1.950628,2.355147 0.13653,1.409753 1.317864,1.022344 2.181481,1.810286 0.615901,0.561934 0.727231,3.307584 0.902316,3.237551 0.07003,-0.175085 -2.675618,-0.286414 -3.237551,-0.902317 -0.787942,-0.863617 -0.400533,-2.04495 -1.810286,-2.18148 0.20527,0.465234 -0.763519,2.186764 -2.355146,1.950628 -1.997976,-0.296423 -2.072004,-2.107028 -1.473405,-3.20589 0.389263,1.032705 0.890898,1.111084 1.538175,0.768015 0.813899,-0.431382 0.534054,-2.021682 -0.361366,-2.886271"
         style="fill:#000000;stroke:#000000;stroke-width:0.1112323px;stroke-linecap:butt;stroke-linejoin:miter;stroke-opacity:1"
         id="path1737-3-7" />
      <path
         d="M 6.513491,72.244245 C 5.648903,73.139667 4.058602,73.419511 3.62722,72.605611 3.284151,71.958334 3.36253,71.456699 4.395235,71.067437 c -1.098863,-0.5986 -2.909467,-0.524571 -3.20589,1.473404 -0.23613599,1.591628 1.485394,2.560417 1.950628,2.355147 -0.13653,1.409753 -1.317863,1.022344 -2.18148099,1.810286 -0.615901,0.561933 -0.727231,3.307584 -0.902316,3.23755 C -0.01385399,79.76874 2.731794,79.65741 3.293727,79.041508 4.081669,78.177891 3.69426,76.996557 5.104013,76.860028 4.898743,77.325261 5.867532,79.046792 7.45916,78.810656 9.457135,78.514233 9.531163,76.703627 8.932564,75.604765 8.543301,76.63747 8.041666,76.715849 7.39439,76.372781 6.58049,75.941398 6.860336,74.351099 7.755756,73.48651"
         style="fill:#000000;stroke:#000000;stroke-width:0.1112323px;stroke-linecap:butt;stroke-linejoin:miter;stroke-opacity:1"
         id="path1737-3-5-5" />
    </g>
    <path
       id="path1154-9"
       d="m 33.712865,7.4258691 c 0.536813,0 1.07363,0.00933 1.620386,0.01865 8.111875,0.1398689 16.174044,1.3707167 23.450873,3.5806479 3.439594,8.615932 4.277395,18.944521 4.277395,29.036812 0,10.092292 -0.917329,20.877786 -4.506039,29.596289 -7.157536,2.014114 -14.851888,3.03982 -22.884234,3.03982 -0.487111,0 -0.974221,-0.0094 -1.461331,-0.01865 H 34.040918 C 25.909161,72.53957 17.846991,71.308722 10.580105,69.089467 7.1504515,60.492184 6.3123238,50.163289 6.3123238,40.061979 c 0,-10.101311 0.9176558,-20.868461 4.4864832,-29.586965 6.690308,-1.8742449 14.046665,-2.9186005 21.472608,-3.0398203 0.47717,-0.00933 0.964281,-0.00933 1.44145,-0.00933 m 0,-0.9324602 c -0.487111,0 -0.974221,0 -1.46133,0.00933 C 24.785826,6.6239532 17.270413,7.686958 10.510517,9.5798526 L 10.043289,9.710397 9.8643508,10.139328 c -3.6085914,8.811751 -4.5231655,19.514693 -4.5231655,29.922651 0,10.407958 0.8350459,20.672644 4.294522,29.353849 l 0.1689973,0.419608 0.4572874,0.13987 c 7.326533,2.237904 15.537818,3.496724 23.749103,3.636593 h 0.188879 c 0.47717,0.0094 0.96428,0.01865 1.461331,0.01865 8.111875,0 15.905636,-1.035031 23.172525,-3.077119 l 0.467228,-0.130544 0.178938,-0.428932 c 3.618533,-8.793101 4.543048,-19.496959 4.543048,-29.931975 0,-10.435016 -0.835047,-20.672644 -4.304463,-29.363174 l -0.168997,-0.419609 -0.457288,-0.13987 C 51.74588,7.9107484 43.534594,6.6519271 35.353133,6.512058 34.776554,6.502738 34.249678,6.493409 33.712865,6.493409 Z"
       style="fill:#000000;stroke:none;stroke-width:1.78642213;stroke-miterlimit:4;stroke-dasharray:none" />
    <path
       id="path1154-9-3"
       d="m 33.712865,7.4258686 c 0.536813,0 1.07363,0.00933 1.620386,0.01865 8.111875,0.1398689 16.174044,1.3707167 23.450873,3.5806484 3.439594,8.615932 4.277395,18.944521 4.277395,29.036812 0,10.092292 -0.917329,20.877786 -4.506039,29.596288 -7.157536,2.014114 -14.851888,3.03982 -22.884234,3.03982 -0.487111,0 -0.974221,-0.0094 -1.461331,-0.01865 H 34.040918 C 25.909161,72.539569 17.846991,71.308722 10.580105,69.089466 7.1504515,60.492184 6.3123238,50.163288 6.3123238,40.061979 c 0,-10.101312 0.9176558,-20.868461 4.4864832,-29.586965 6.690308,-1.8742454 14.046665,-2.918601 21.472608,-3.0398208 0.47717,-0.00933 0.964281,-0.00933 1.44145,-0.00933 m 0,-0.9324602 c -0.487111,0 -0.974221,0 -1.46133,0.00933 C 24.785826,6.6239527 17.270413,7.6869575 10.510517,9.5798521 L 10.043289,9.7103965 9.8643508,10.139328 C 6.2557594,18.951079 5.3411853,29.65402 5.3411853,40.061979 c 0,10.407958 0.8350459,20.672643 4.294522,29.353849 l 0.1689973,0.419608 0.4572874,0.13987 c 7.326533,2.237904 15.537818,3.496724 23.749103,3.636593 h 0.188879 c 0.47717,0.0094 0.96428,0.01865 1.461331,0.01865 8.111875,0 15.905636,-1.035032 23.172525,-3.077119 l 0.467228,-0.130544 0.178938,-0.428932 c 3.618533,-8.793101 4.543048,-19.49696 4.543048,-29.931975 0,-10.435016 -0.835047,-20.672644 -4.304463,-29.363175 l -0.168997,-0.419609 -0.457288,-0.13987 C 51.74588,7.9107479 43.534594,6.6519266 35.353133,6.5120575 34.776554,6.5027375 34.249678,6.4934085 33.712865,6.4934085 Z"
       style="fill:#000000;stroke:none;stroke-width:1.78642213;stroke-miterlimit:4;stroke-dasharray:none" />
  </g>
</svg>
