<svg id="Capa_2" xmlns="http://www.w3.org/2000/svg" xmlns:xlink="http://www.w3.org/1999/xlink" viewBox="0 0 69.02 80">
<defs >
<style >
.cls-1{fill:#c89aed;}.cls-2{fill:#fff;}.cls-3{fill:#f8ffbf;}.cls-4{fill:#7b7be8;}.cls-5{fill:#a88347;}.cls-6{fill:#782ab5;}.cls-7{stroke:#000;stroke-miterlimit:10;}.cls-7,.cls-8,.cls-9,.cls-10{fill:none;}.cls-11{fill:#1c46ff;}.cls-8{stroke:#deb778;stroke-dasharray:0 0 0 4.06;stroke-linecap:round;stroke-linejoin:round;}.cls-12{fill:#deb778;}.cls-13{fill:url(#USGS_19_Inundación_de_tierra_2);}.cls-10{stroke:#1d1d1b;stroke-dasharray:0 0 2 2;stroke-width:.3px;}.cls-14{fill:#fcf0c5;}.cls-15{fill:#b83521;}
</style>
<pattern id="USGS_19_Inundación_de_tierra_2" x="0" y="0" width="72" height="72" patternTransform="translate(267.52 -16423) rotate(-90)" patternUnits="userSpaceOnUse" viewBox="0 0 72 72">
<g >
<rect class="cls-9" width="72" height="72">
</rect>
<g >
<line class="cls-10" x1="71" y1="71" x2="144.44" y2="71">
</line>
<line class="cls-10" x1="71" y1="67" x2="144.44" y2="67">
</line>
<line class="cls-10" x1="71" y1="63" x2="144.44" y2="63">
</line>
<line class="cls-10" x1="71" y1="59" x2="144.44" y2="59">
</line>
<line class="cls-10" x1="71" y1="55" x2="144.44" y2="55">
</line>
<line class="cls-10" x1="71" y1="51" x2="144.44" y2="51">
</line>
<line class="cls-10" x1="71" y1="47" x2="144.44" y2="47">
</line>
<line class="cls-10" x1="71" y1="43" x2="144.44" y2="43">
</line>
<line class="cls-10" x1="71" y1="39" x2="144.44" y2="39">
</line>
<line class="cls-10" x1="71" y1="35" x2="144.44" y2="35">
</line>
<line class="cls-10" x1="71" y1="31" x2="144.44" y2="31">
</line>
<line class="cls-10" x1="71" y1="27" x2="144.44" y2="27">
</line>
<line class="cls-10" x1="71" y1="23" x2="144.44" y2="23">
</line>
<line class="cls-10" x1="71" y1="19" x2="144.44" y2="19">
</line>
<line class="cls-10" x1="71" y1="15" x2="144.44" y2="15">
</line>
<line class="cls-10" x1="71" y1="11" x2="144.44" y2="11">
</line>
<line class="cls-10" x1="71" y1="7" x2="144.44" y2="7">
</line>
<line class="cls-10" x1="71" y1="3" x2="144.44" y2="3">
</line>
</g>
<g >
<line class="cls-10" x1="-1" y1="71" x2="72.44" y2="71">
</line>
<line class="cls-10" x1="-1" y1="67" x2="72.44" y2="67">
</line>
<line class="cls-10" x1="-1" y1="63" x2="72.44" y2="63">
</line>
<line class="cls-10" x1="-1" y1="59" x2="72.44" y2="59">
</line>
<line class="cls-10" x1="-1" y1="55" x2="72.44" y2="55">
</line>
<line class="cls-10" x1="-1" y1="51" x2="72.44" y2="51">
</line>
<line class="cls-10" x1="-1" y1="47" x2="72.44" y2="47">
</line>
<line class="cls-10" x1="-1" y1="43" x2="72.44" y2="43">
</line>
<line class="cls-10" x1="-1" y1="39" x2="72.44" y2="39">
</line>
<line class="cls-10" x1="-1" y1="35" x2="72.44" y2="35">
</line>
<line class="cls-10" x1="-1" y1="31" x2="72.44" y2="31">
</line>
<line class="cls-10" x1="-1" y1="27" x2="72.44" y2="27">
</line>
<line class="cls-10" x1="-1" y1="23" x2="72.44" y2="23">
</line>
<line class="cls-10" x1="-1" y1="19" x2="72.44" y2="19">
</line>
<line class="cls-10" x1="-1" y1="15" x2="72.44" y2="15">
</line>
<line class="cls-10" x1="-1" y1="11" x2="72.44" y2="11">
</line>
<line class="cls-10" x1="-1" y1="7" x2="72.44" y2="7">
</line>
<line class="cls-10" x1="-1" y1="3" x2="72.44" y2="3">
</line>
<line class="cls-10" x1="1.04" y1="69" x2="74.48" y2="69">
</line>
<line class="cls-10" x1="1.04" y1="65" x2="74.48" y2="65">
</line>
<line class="cls-10" x1="1.04" y1="61" x2="74.48" y2="61">
</line>
<line class="cls-10" x1="1.04" y1="57" x2="74.48" y2="57">
</line>
<line class="cls-10" x1="1.04" y1="53" x2="74.48" y2="53">
</line>
<line class="cls-10" x1="1.04" y1="49" x2="74.48" y2="49">
</line>
<line class="cls-10" x1="1.04" y1="45" x2="74.48" y2="45">
</line>
<line class="cls-10" x1="1.04" y1="41" x2="74.48" y2="41">
</line>
<line class="cls-10" x1="1.04" y1="37" x2="74.48" y2="37">
</line>
<line class="cls-10" x1="1.04" y1="33" x2="74.48" y2="33">
</line>
<line class="cls-10" x1="1.04" y1="29" x2="74.48" y2="29">
</line>
<line class="cls-10" x1="1.04" y1="25" x2="74.48" y2="25">
</line>
<line class="cls-10" x1="1.04" y1="21" x2="74.48" y2="21">
</line>
<line class="cls-10" x1="1.04" y1="17" x2="74.48" y2="17">
</line>
<line class="cls-10" x1="1.04" y1="13" x2="74.48" y2="13">
</line>
<line class="cls-10" x1="1.04" y1="9" x2="74.48" y2="9">
</line>
<line class="cls-10" x1="1.04" y1="5" x2="74.48" y2="5">
</line>
<line class="cls-10" x1="1.04" y1="1" x2="74.48" y2="1">
</line>
</g>
<g >
<line class="cls-10" x1="-73" y1="71" x2=".44" y2="71">
</line>
<line class="cls-10" x1="-73" y1="67" x2=".44" y2="67">
</line>
<line class="cls-10" x1="-73" y1="63" x2=".44" y2="63">
</line>
<line class="cls-10" x1="-73" y1="59" x2=".44" y2="59">
</line>
<line class="cls-10" x1="-73" y1="55" x2=".44" y2="55">
</line>
<line class="cls-10" x1="-73" y1="51" x2=".44" y2="51">
</line>
<line class="cls-10" x1="-73" y1="47" x2=".44" y2="47">
</line>
<line class="cls-10" x1="-73" y1="43" x2=".44" y2="43">
</line>
<line class="cls-10" x1="-73" y1="39" x2=".44" y2="39">
</line>
<line class="cls-10" x1="-73" y1="35" x2=".44" y2="35">
</line>
<line class="cls-10" x1="-73" y1="31" x2=".44" y2="31">
</line>
<line class="cls-10" x1="-73" y1="27" x2=".44" y2="27">
</line>
<line class="cls-10" x1="-73" y1="23" x2=".44" y2="23">
</line>
<line class="cls-10" x1="-73" y1="19" x2=".44" y2="19">
</line>
<line class="cls-10" x1="-73" y1="15" x2=".44" y2="15">
</line>
<line class="cls-10" x1="-73" y1="11" x2=".44" y2="11">
</line>
<line class="cls-10" x1="-73" y1="7" x2=".44" y2="7">
</line>
<line class="cls-10" x1="-73" y1="3" x2=".44" y2="3">
</line>
<line class="cls-10" x1="-70.96" y1="69" x2="2.48" y2="69">
</line>
<line class="cls-10" x1="-70.96" y1="65" x2="2.48" y2="65">
</line>
<line class="cls-10" x1="-70.96" y1="61" x2="2.48" y2="61">
</line>
<line class="cls-10" x1="-70.96" y1="57" x2="2.48" y2="57">
</line>
<line class="cls-10" x1="-70.96" y1="53" x2="2.48" y2="53">
</line>
<line class="cls-10" x1="-70.96" y1="49" x2="2.48" y2="49">
</line>
<line class="cls-10" x1="-70.96" y1="45" x2="2.48" y2="45">
</line>
<line class="cls-10" x1="-70.96" y1="41" x2="2.48" y2="41">
</line>
<line class="cls-10" x1="-70.96" y1="37" x2="2.48" y2="37">
</line>
<line class="cls-10" x1="-70.96" y1="33" x2="2.48" y2="33">
</line>
<line class="cls-10" x1="-70.96" y1="29" x2="2.48" y2="29">
</line>
<line class="cls-10" x1="-70.96" y1="25" x2="2.48" y2="25">
</line>
<line class="cls-10" x1="-70.96" y1="21" x2="2.48" y2="21">
</line>
<line class="cls-10" x1="-70.96" y1="17" x2="2.48" y2="17">
</line>
<line class="cls-10" x1="-70.96" y1="13" x2="2.48" y2="13">
</line>
<line class="cls-10" x1="-70.96" y1="9" x2="2.48" y2="9">
</line>
<line class="cls-10" x1="-70.96" y1="5" x2="2.48" y2="5">
</line>
<line class="cls-10" x1="-70.96" y1="1" x2="2.48" y2="1">
</line>
</g>
</g>
</pattern>
</defs>

<g id="Capa_9">
<g >
<g >
<path class="cls-1" d="M62.73,64.32l-1.87,9.44-24.78,4.31-27.4-5.71,.19-8.13,4.39-1.78,1.87-2.99s5.8-2.15,6.55-2.62c.49-.25,.93-.33,1.27-.34,.43-.03,.69,.06,.69,.06l.19-1.96s-1.96-2.81-2.06-4.3c-.09-1.5-.46-3.56-.46-3.56,0,0-1.59,.1-2.06-1.87-.38-2.15,.09-5.89,.09-5.89,0,0-.84-1.96-.93-3.36-.1-1.41-.1-3-.56-5.05-.47-2.06-2.15-8.23,.37-11.32,2.52-3.08,5.1-3.47,7.95-4.39,2.85-.92,7.46-2.69,9.07-.37,2.43-1.87,5.33-.85,7.1-.19,1.78,.65,8.67,1.89,10.07,5.73,1.49,4.21,1.9,7.08,.59,11.1-1.31,4.02-1.3,6.94-1.77,8.43l.06,.71c.65,5.13-.15,7.61-1.55,6.2-.37,5.24-2.24,8.14-3.18,9.07,.02,.61,.08,.86,.14,.94,.07,.11,.14,0,.14,0,0,0,1.71,.58,2.74,1.24,1.02,.65,4.55,1.38,5.77,1.84,1.71,2.69,1.28,3.1,1.28,3.1l6.11,1.67Z">
</path>
<path class="cls-5" d="M53,31.13c-1.31,4.02-.84,6.92-1.31,8.41v.04c-2.07-.16-5.49-5.44-5.49-5.44l-22.67-.15-4.59,5.33s-.44-2.3-.53-3.7c-.1-1.41-.1-3-.56-5.05-.47-2.06-2.15-8.23,.37-11.32,2.52-3.08,5.1-3.47,7.95-4.39,2.85-.92,7.46-2.69,9.07-.37,2.43-1.87,5.33-.85,7.1-.19,1.78,.65,8.67,1.89,10.07,5.73,1.49,4.21,1.9,7.08,.59,11.1Z">
</path>
<path class="cls-5" d="M62.73,64.32l-1.87,9.44-24.78,4.31-27.4-5.71,.19-8.13,4.39-1.78,1.87-2.99s5.8-2.15,6.55-2.62c.49-.25,.93-.33,1.27-.34l.79,.47c-1.22,11.96,5.2,16.06,5.31,16.4,.12,.33,5.43,3.43,5.77,3.21,.33-.22,5.76-1.44,9.08-7.09,3.11-5.65,2.44-12.97,2.44-12.97l.35-.05c.07,.11,.14,0,.14,0,0,0,1.66,.28,2.51,1.15,1.73,1.76,4.78,1.47,6,1.93,1.71,2.69,1.43,3.25,1.43,3.25l5.96,1.53Z">
</path>
<path d="M23.98,61.89s2.07,6.56,8.35,7.71c1.5,1.64,2.5,2.93,2.5,2.93l2.28-2.93s5.14,.36,8.78-7.71c-.5,7.06-4.07,10.85-6.92,13.2-6.99,2.57-10.27-2.28-10.27-2.28,0,0-4.57-4.99-4.71-10.92Z">
</path>
<path class="cls-2" d="M35.39,63.28v-29.05l10.81-.08,3.46,3.8s-.25,11.97-1.07,14.28-3.3,5.03-4.87,6.02-3.88,5.36-8.34,5.03Z">
</path>
<path class="cls-4" d="M39.07,43.18l-1.47-2.07,6.15-2.07s2.61,1.07,3.21,1.87c-.8,2.87-1.6,3.74-1.6,3.74l-2.54-2s-3.07,.33-3.74,.53Z">
</path>
<path class="cls-4" d="M31.43,43.18l1.47-2.07-6.15-2.07s-2.61,1.07-3.21,1.87c.8,2.87,1.6,3.74,1.6,3.74l2.54-2s3.07,.33,3.74,.53Z">
</path>
<path class="cls-3" d="M30.75,44.88l.58-1.69s-2.75-.57-4.13-.2c-1.71,1.01-1.75,1.61-1.75,1.61,0,0,2.4,1.2,5.3,.28Z">
</path>
<path class="cls-3" d="M39.66,44.88l-.58-1.69s2.75-.57,4.13-.2c1.71,1.01,1.75,1.61,1.75,1.61,0,0-2.4,1.2-5.3,.28Z">
</path>
<path class="cls-2" d="M25.49,46.47c.73,.22,1.8,.41,3.14,.29,.89-.08,1.43,.94,.9,1.66-1.19,1.62-2.42,2.49-3.22,2.93-.5,.27-1.13,.08-1.4-.43-.4-.76-.86-1.99-.75-3.51,.05-.66,.68-1.14,1.32-.94Z">
</path>
<path d="M21.31,46.36s-.63,1.04-1.72,.52-.68-1.67-.63-3.03,.05-4.7,.05-4.7l1.93-1.78,.37,8.98Z">
</path>
<path d="M41.28,61.1l-12.75,14.49-18.3-4.39-1.41-6.63,4.45-2.13,1.51-2.42s1.66-.17,3.48-1.24,4.31-1.74,5.05-1.49c.25-1.57,.41-2.15,.41-2.15,0,0,6.29,6.54,7.79,7.7s6.29,.58,9.77-1.74Z">
</path>
<path d="M23.78,34.1l-4.74,5.64s-.57-2.21-.9-5.8c-1.72-6.46-1.96-10.13-1.23-12.42s1.31-3.51,4.33-4.66,2.37,.65,6.46,.49c-4.17,.08-4.99,1.14-4.99,1.14,0,0-2.37,2.7-2.04,8.5,.16,4.74,.57,7.11,3.11,7.11Z">
</path>
<path class="cls-15" d="M35.19,27.65l-2.08-1.61-1.15-3.06s2.33-1.83,3.06-3.01c1.06,1.44,3.14,2.93,3.14,2.93l-1.02,3.06-1.95,1.7Z">
</path>
<path class="cls-12" d="M32.72,17.26s10.28,1.09,12.46,2.87c2.87,5.93,1.68,12.66-2.37,14.14,4.85,.1,5.04,.3,6.03-2.27s2.27-9.49-1.38-13.94c-4.65-.99-14.73-.79-14.73-.79Z">
</path>
<path class="cls-12" d="M36.25,14.26s-1.14,.47,1.61,1.27,7.31,.67,9.99,2.95,2.55,8.85,1.74,11.74c-1.01,3.15-1.14,3.42-.13,4.7s1.81,3.22,2.35,.54,1.68-6.44,1.74-9.06-.54-5.9-2.08-7.92-5.97-3.02-7.18-3.42-5.9-1.48-8.05-.8Z">
</path>
<path class="cls-12" d="M48.72,57.36s.47,10.21-5.2,16.64c12.01-1.89,14.65-2.27,14.65-2.27l2.84-7.28-4.63-2.17-1.13-2.27s-5.77-1.8-6.52-2.65Z">
</path>
<path class="cls-1" d="M45.42,35.67c.92,.21,1.97,1.63,2.76,2.69l.04,.05c-.05,1.35-.22,5.58-.28,6.64-.01,.19-.02,.47-.02,.81-.04,1.74-.13,5.81-1.72,7.77-1.81,2.23-5.01,5.06-6.72,6.58l-.13,.11-.62,.55c-.06,.05-.21,.15-.5,.28-.9,.42-1.92,.65-2.95,.65s-2.04-.22-2.95-.65c-.29-.13-.44-.23-.5-.28l-.62-.55-.12-.11c-1.72-1.52-4.91-4.35-6.73-6.6-1.61-1.97-1.68-6.21-1.71-7.82v-.35c-.01-.15-.01-.28-.02-.39-.06-1.1-.16-5.94-.19-7.39,.55-.72,1.44-1.81,2.24-2h20.73m.09-1H24.59c-1.2,.2-2.26,1.48-3.15,2.67,.01,.6,.13,6.51,.2,7.77,.01,.18,.01,.42,.02,.72,.03,1.85,.11,6.19,1.93,8.42,1.91,2.36,5.2,5.26,6.96,6.82l.64,.57c.1,.08,.31,.23,.72,.42,1.05,.49,2.21,.74,3.37,.74s2.32-.25,3.37-.74c.41-.19,.62-.34,.72-.42l.64-.57c1.76-1.56,5.05-4.46,6.96-6.81,1.81-2.23,1.9-6.55,1.94-8.39,0-.32,.01-.58,.02-.76,.07-1.23,.27-6.32,.29-7.01-.08-.11-.16-.22-.24-.33-.95-1.28-2.13-2.88-3.47-3.1h0Z">
</path>
<path class="cls-7" d="M33.48,17.05s1.39-.75,1.31-2.02-2.91-1.87-6.12-.75-8.74,1.57-10.76,5.45-1.34,8.44-.37,12.02,.15,6.87,1.27,7.39,2.93-4.53,5.7-4.98">
</path>
<path class="cls-7" d="M36.5,17.15s-1.27-.85-1.2-2.12,2.91-1.87,6.12-.75,8.74,1.57,10.76,5.45,1.34,8.44,.37,12.02-.15,6.87-1.27,7.39-2.93-4.53-5.7-4.98">
</path>
<path class="cls-7" d="M38.34,34.17h8.21c.92,0,1.76-.57,2.09-1.44,2.7-7.12,.43-12.06-.77-13.97-.35-.55-.91-.93-1.56-1.03-1.61-.25-5.02-.7-8.05-.65h-6.08c-3.03-.05-6.45,.4-8.05,.65-.65,.1-1.21,.48-1.56,1.03-1.2,1.91-3.47,6.85-.77,13.97,.33,.86,1.16,1.44,2.09,1.44h14.44Z">
</path>
<path class="cls-7" d="M18.94,39.32s.26,1.89-.13,3.78,.48,5.19,2.15,3.56">
</path>
<path class="cls-7" d="M51.33,39.32s-.26,1.89,.13,3.78-.48,5.19-2.15,3.56">
</path>
<path class="cls-7" d="M49.72,38.01c0,.22-.22,5.81-.29,7.13-.08,1.33,.14,6.71-2.07,9.43-2.21,2.73-6.26,6.19-7.66,7.44-.18,.16-.47,.33-.84,.5-2.26,1.06-4.91,1.06-7.17,0-.37-.17-.65-.34-.84-.5-1.4-1.25-5.45-4.71-7.66-7.44-2.21-2.72-1.99-8.1-2.06-9.43-.07-1.32-.2-7.64-.2-7.86">
</path>
<path class="cls-7" d="M23.2,54.57l.93,9.9s1.04,8.95,10.79,11.65">
</path>
<path class="cls-7" d="M23.43,57.47s-.55-1.42-2.59,0-6.06,2.3-6.06,2.3c0,0-2.98,3.92-1.05,8.62,3.55,.47,6.59,1.1,6.59,1.1l-3.71,4.76">
</path>
<line class="cls-7" x1="13.16" y1="62.59" x2="7.62" y2="64.83">
</line>
<path class="cls-7" d="M46.67,55.25l-.93,9.22s-1.04,8.95-10.79,11.65">
</path>
<path class="cls-7" d="M46.25,57.2s.73-1.15,2.77,.26,6.06,2.3,6.06,2.3c0,0,2.98,3.92,1.05,8.62-3.55,.47-6.59,1.1-6.59,1.1l3.71,4.76">
</path>
<line class="cls-7" x1="56.42" y1="62.56" x2="62.25" y2="64.83">
</line>
<path class="cls-7" d="M46.16,60.44s-2.53,9.25-8.93,9.25l-2.28,2.96-2.28-2.96c-6.39,0-8.92-9.25-8.92-9.25">
</path>
<path d="M40.89,55.32c-.61-.38-1.23-.92-1.92-1.08-1.05,.08-2.53,.02-3.73,0-1.19,.02-2.68,.08-3.73,0-.29,.03-.66,.27-.94,.44,0,0-.98,.65-.98,.65,.48-.69,.96-1.39,1.77-1.73,1.28-.18,2.58-.3,3.88-.35,1.3,.06,2.6,.17,3.88,.35,.81,.34,1.29,1.04,1.77,1.73h0Z">
</path>
<path d="M23.35,41.05s1.56-2.17,3.38-2.62c2.32-.38,6.84,.91,6.84,.91l-.72,1.94-6.19-1.44s-1.79,.27-3.31,1.22Z">
</path>
<path d="M31.07,43.94c.04-.26,.09-.51,.15-.77l.05,.12c-1.07-.31-2.83-.27-3.59-.14-.75,.35-1.48,.85-1.99,1.49l-.1-.51c.73,.45,1.64,.74,2.5,.85,.92,.12,1.85,.05,2.77-.15-1.72,.94-3.96,.94-5.68-.09l-.32-.2c.61-.96,1.55-1.65,2.6-2.05,1.37-.17,2.76,.05,3.97,.66-.11,.26-.23,.52-.36,.78h0Z">
</path>
<path d="M47.04,41.05s-1.56-2.17-3.38-2.62c-2.32-.38-6.84,.91-6.84,.91l.72,1.94,6.19-1.44s1.79,.27,3.31,1.22Z">
</path>
<path d="M39.32,43.94c-.13-.26-.25-.52-.36-.78,1.21-.61,2.6-.83,3.97-.66,1.05,.4,1.99,1.09,2.6,2.05-.54,.36-1.13,.64-1.73,.78-1.41,.39-3.01,.2-4.27-.49,.92,.2,1.84,.28,2.77,.15,.87-.11,1.78-.41,2.5-.85,0,0-.1,.51-.1,.51-.51-.64-1.24-1.14-1.99-1.49-.76-.13-2.52-.17-3.59,.14,0,0,.05-.12,.05-.12,.06,.25,.1,.51,.15,.77h0Z">
</path>
<path d="M36.84,42.02c.67,2.49,1.24,5.01,1.77,7.54,0,0,.03,.16,.03,.16l-.12,.13-1.19,1.32-.1,.12c-1.33,.01-2.65,.02-3.98,0l-.1-.12s-1.31-1.46-1.31-1.45c.26-1.32,.57-2.63,.87-3.94,.28-1.26,.6-2.51,.94-3.76-.28,2.57-.67,5.12-1.1,7.66,0,0-.08-.29-.08-.29l1.22,1.29-.27-.12c1.22-.01,2.44-.01,3.65,0l-.27,.12,1.22-1.29-.08,.29c-.43-2.55-.82-5.1-1.1-7.66h0Z">
</path>
<path d="M32.24,55.43c2.05-.2,3.9-.18,5.96,0-1.87,.85-4.08,.83-5.96,0h0Z">
</path>
<path class="cls-7" d="M35.04,27.57l2.13-1.7s.76-1.37,.91-3.14c-.91-.6-2.19-1.62-3.04-2.97-.86,1.35-2.14,2.37-3.05,2.97,.15,1.77,.91,3.14,.91,3.14l2.14,1.7Z">
</path>
<path d="M36.09,29.53c-.29,.2-.57,.4-.83,.57-.03,.02-.07,.05-.1,.07,0,0-.01-.01-.02-.02l.53-.36c.14-.09,.28-.18,.42-.27m3.56-5.94c.8,2.98-2.46,3.98-4.54,5.38-.44-.29-.87-.56-1.29-.82-1.72-1.05-3.92-2.18-3.19-4.56-.57,.53-.91,1.37-.84,2.27,.46,2.66,3.41,4.05,5.35,5.54,2.33-1.64,7.36-4.56,4.51-7.81h0Z">
</path>
</g>
<path class="cls-11" d="M23.37,57.92c-.81-.85-1.92-.16-2.65,.44-1.59,1.13-3.35,1.91-5.24,2.42,0,0,.52-.32,.52-.32-1.21,2.02-1.43,4.64-.86,6.92,0,0-.74-.69-.74-.69,2.04,.48,4.94,1.32,6.98,1.93,0,0,.85,.25,.85,.25-1.03,1.03-1.99,2.14-3.05,3.14,0,0-.09-.07-.09-.07l2.11-2.85,.04,.11-7.04-1.47h-.06c-.34-1.34-.49-2.72-.31-4.09,.2-1.33,.61-2.74,1.46-3.81,1.43-.32,2.85-.78,4.17-1.42,1.15-.56,2.97-2.05,4.02-.53,0,0-.1,.05-.1,.05h0Z">
</path>
<path class="cls-5" d="M23.09,61.32c.37,4.8,2.61,9.56,6.6,12.35,.22,.17,.26,.48,.1,.7-.17,.23-.51,.27-.73,.08-3.91-3.13-5.93-8.2-5.97-13.12h0Z">
</path>
<path class="cls-11" d="M20.52,18.22c-4.99,5.42-.06,13.12-1.69,19.52,0,0-.11,0-.11,0,.23-6.01-4.59-15.62,1.8-19.52h0Z">
</path>
</g>
</g>
 <g
     id="g2850">
    <g
       id="g2837">
      <path
         id="path1951"
         d="M 0.056640625 0.04296875 L 0.056640625 79.943359 L 69.308594 79.943359 L 69.308594 0.04296875 L 0.056640625 0.04296875 z M 33.615234 3.5957031 C 34.206332 3.5957038 34.786991 3.6051034 35.421875 3.6152344 C 44.430653 3.7671809 53.471255 5.1336733 61.560547 7.5546875 L 62.064453 7.7070312 L 62.25 8.1640625 C 66.070247 17.605006 66.990234 28.726438 66.990234 40.0625 C 66.990234 51.398562 65.972723 63.025755 61.988281 72.578125 L 61.791016 73.044922 L 61.275391 73.185547 C 53.273669 75.403966 44.691921 76.529297 35.759766 76.529297 C 35.212453 76.529297 34.675812 76.519896 34.150391 76.509766 L 33.943359 76.509766 C 24.901742 76.357819 15.860367 74.989738 7.7929688 72.558594 L 7.2890625 72.40625 L 7.1035156 71.951172 C 3.2942144 62.520359 2.375 51.369168 2.375 40.0625 C 2.375 28.755832 3.3819737 17.127318 7.3554688 7.5546875 L 7.5527344 7.0898438 L 8.0664062 6.9472656 C 15.509867 4.890923 23.785212 3.7371557 32.005859 3.6054688 C 32.542226 3.5953387 33.078867 3.5957031 33.615234 3.5957031 z "
         style="opacity:1;vector-effect:none;fill:#ffffff;fill-opacity:1;fill-rule:nonzero;stroke:none;stroke-width:1.95200002;stroke-linecap:butt;stroke-linejoin:miter;stroke-miterlimit:4;stroke-dasharray:none;stroke-dashoffset:0;stroke-opacity:1" />
    </g>
    <path
       id="path1154-8-2"
       d="m 33.675163,6.6112954 c 0.557696,0 1.115392,0.00956 1.683415,0.019115 8.427403,0.14336 16.803167,1.4049288 24.363042,3.6700176 3.573384,8.830981 4.443772,19.417362 4.443772,29.761551 0,10.344189 -0.95301,21.39888 -4.68131,30.334991 -7.435942,2.064385 -15.429581,3.274388 -23.774362,3.274388 -0.506058,0 -1.012115,-0.0096 -1.518172,-0.01911 h -0.17557 C 25.56792,73.508883 17.192156,72.088619 9.6426089,69.813973 6.0795528,61.002107 5.2088244,50.415411 5.2088244,40.061979 c 0,-10.353432 0.95335,-21.389323 4.6609939,-30.325434 C 16.820359,7.8155201 24.462856,6.7450981 32.177647,6.6208528 c 0.49573,-0.00956 1.001787,-0.00956 1.497516,-0.00956 m 0,-0.9557337 c -0.506057,0 -1.012114,0 -1.518171,0.00956 C 24.40089,5.7893644 16.593149,6.8789009 9.570315,8.8190405 L 9.0849131,8.9528432 8.8990146,9.3924808 C 5.1500599,18.424166 4.1999116,29.394246 4.1999116,40.061979 c 0,10.667733 0.8675267,21.188618 4.461566,30.0865 l 0.1755708,0.430081 0.4750741,0.14336 c 7.6115135,2.293761 16.1421925,3.584001 24.6728715,3.727361 h 0.196227 c 0.495729,0.0096 1.001786,0.01911 1.518171,0.01911 8.427403,0 16.524318,-1.060864 24.073866,-3.153921 l 0.485403,-0.133802 0.185898,-0.439639 c 3.759282,-9.01257 4.719759,-19.983589 4.719759,-30.679055 0,-10.695466 -0.867528,-21.188618 -4.471894,-30.0960578 L 60.516853,9.5358409 60.041779,9.3924808 C 52.409609,7.108277 43.87893,5.8180364 35.379234,5.6746763 34.780227,5.6651187 34.232859,5.6555621 33.675163,5.6555615 Z"
       style="fill:#ff0000;stroke:#ffffff;stroke-width:1.84341729;stroke-miterlimit:4;stroke-dasharray:none" />
    <path
       id="path1154"
       d="m 33.614853,4.6077955 c 0.591098,0 1.182197,0.01013 1.784241,0.02026 8.932155,0.1519464 17.809578,1.4890758 25.822246,3.8898304 3.787408,9.3599041 4.709928,20.5803481 4.709928,31.5440931 0,10.963745 -1.01009,22.680548 -4.961693,32.151879 -7.881312,2.18803 -16.353723,3.302304 -25.198307,3.302304 -0.536368,0 -1.072735,-0.01013 -1.609102,-0.02026 H 33.97608 C 25.022033,75.343956 16.14461,74.006827 8.1428892,71.595943 4.3664269,62.256298 3.443547,51.035521 3.443547,40.061979 c 0,-10.973542 1.01045,-22.670418 4.9401601,-32.1417498 7.3668369,-2.036083 15.4670749,-3.170617 23.6439369,-3.3023039 0.525421,-0.01013 1.061788,-0.01013 1.587209,-0.01013 m 0,-1.0129766 c -0.536367,0 -1.072734,0 -1.609101,0.01013 C 23.785105,3.7366356 15.509726,4.891429 8.0662653,6.9477716 L 7.5517907,7.0895883 7.3547579,7.5555576 C 3.3812628,17.128188 2.3742062,28.755311 2.3742062,40.061979 c 0,11.306668 0.9194864,22.457692 4.7287876,31.888505 l 0.1860865,0.45584 0.5035283,0.151947 c 8.0673984,2.431144 17.1090154,3.798662 26.1506324,3.950608 h 0.207979 c 0.525421,0.01013 1.061788,0.02026 1.609101,0.02026 8.932155,0 17.514028,-1.124404 25.51575,-3.342823 l 0.514475,-0.141816 0.197032,-0.46597 c 3.984442,-9.55237 5.002445,-21.180489 5.002445,-32.516551 0,-11.336062 -0.919487,-22.457692 -4.739734,-31.8986353 L 62.064202,7.7075041 61.560674,7.5555576 C 53.471382,5.1345434 44.429765,3.7670249 35.420987,3.6150784 c -0.634884,-0.01013 -1.215036,-0.020259 -1.806134,-0.02026 z"
       style="fill:#000000;stroke:#000000;stroke-width:1.95382714;stroke-miterlimit:4;stroke-dasharray:none" />
    <g
       id="g1810">
      <path
         d="M 6.5134911,7.7433673 C 5.6489029,6.8479453 4.058602,6.5681013 3.6272194,7.3820013 3.284151,8.0292783 3.3625296,8.5309135 4.395235,8.9201755 3.2963719,9.5187755 1.4857674,9.4447465 1.1893447,7.4467713 0.95320848,5.8551433 2.674739,4.8863543 3.1399725,5.0916244 3.0034432,3.6818714 1.8221094,4.0692802 0.95849208,3.2813384 0.34259068,2.7194046 0.23126071,-0.02624603 0.0561761,0.04378767 -0.0138576,0.21887227 2.7317937,0.33020157 3.2937267,0.94610377 4.0816685,1.8097211 3.6942598,2.9910547 5.1040128,3.1275841 4.8987425,2.6623507 5.8675315,0.94082017 7.4591593,1.1769564 9.4571345,1.4733791 9.5311625,3.2839847 8.9325635,4.3828467 8.5433008,3.3501417 8.041666,3.2717627 7.3943894,3.6148312 6.5804899,4.0462137 6.8603354,5.6365129 7.7557553,6.5011023"
         style="fill:#000000;stroke:#000000;stroke-width:0.1112323px;stroke-linecap:butt;stroke-linejoin:miter;stroke-opacity:1"
         id="path1737-3" />
      <path
         d="m 62.850738,7.7433673 c 0.864588,-0.895422 2.454889,-1.175266 2.886271,-0.361366 0.343069,0.647277 0.26469,1.148912 -0.768015,1.538174 1.098863,0.5986 2.909467,0.524571 3.20589,-1.473404 0.236136,-1.591628 -1.485394,-2.560417 -1.950628,-2.3551469 0.13653,-1.409753 1.317863,-1.0223442 2.181481,-1.810286 0.615901,-0.5619338 0.727231,-3.30758442 0.902316,-3.23755072 0.07003,0.1750846 -2.675618,0.2864139 -3.237551,0.9023161 C 65.28256,1.8097211 65.669969,2.9910547 64.260216,3.1275841 64.465486,2.6623507 63.496697,0.94082018 61.905069,1.1769564 c -1.997975,0.2964227 -2.072003,2.1070283 -1.473404,3.2058903 0.389263,-1.032705 0.890898,-1.111084 1.538174,-0.7680155 0.8139,0.4313825 0.534054,2.0216817 -0.361366,2.8862711"
         style="fill:#000000;stroke:#000000;stroke-width:0.1112323px;stroke-linecap:butt;stroke-linejoin:miter;stroke-opacity:1"
         id="path1737-3-5" />
      <path
         d="m 62.850738,72.244244 c 0.864588,0.895422 2.454889,1.175266 2.886272,0.361366 0.343068,-0.647277 0.264689,-1.148912 -0.768016,-1.538174 1.098863,-0.5986 2.909468,-0.524571 3.20589,1.473404 0.236137,1.591628 -1.485394,2.560417 -1.950628,2.355147 0.13653,1.409753 1.317864,1.022344 2.181481,1.810286 0.615901,0.561934 0.727231,3.307584 0.902316,3.237551 0.07003,-0.175085 -2.675618,-0.286414 -3.237551,-0.902317 -0.787942,-0.863617 -0.400533,-2.04495 -1.810286,-2.18148 0.20527,0.465234 -0.763519,2.186764 -2.355146,1.950628 -1.997976,-0.296423 -2.072004,-2.107028 -1.473405,-3.20589 0.389263,1.032705 0.890898,1.111084 1.538175,0.768015 0.813899,-0.431382 0.534054,-2.021682 -0.361366,-2.886271"
         style="fill:#000000;stroke:#000000;stroke-width:0.1112323px;stroke-linecap:butt;stroke-linejoin:miter;stroke-opacity:1"
         id="path1737-3-7" />
      <path
         d="M 6.513491,72.244245 C 5.648903,73.139667 4.058602,73.419511 3.62722,72.605611 3.284151,71.958334 3.36253,71.456699 4.395235,71.067437 c -1.098863,-0.5986 -2.909467,-0.524571 -3.20589,1.473404 -0.23613599,1.591628 1.485394,2.560417 1.950628,2.355147 -0.13653,1.409753 -1.317863,1.022344 -2.18148099,1.810286 -0.615901,0.561933 -0.727231,3.307584 -0.902316,3.23755 C -0.01385399,79.76874 2.731794,79.65741 3.293727,79.041508 4.081669,78.177891 3.69426,76.996557 5.104013,76.860028 4.898743,77.325261 5.867532,79.046792 7.45916,78.810656 9.457135,78.514233 9.531163,76.703627 8.932564,75.604765 8.543301,76.63747 8.041666,76.715849 7.39439,76.372781 6.58049,75.941398 6.860336,74.351099 7.755756,73.48651"
         style="fill:#000000;stroke:#000000;stroke-width:0.1112323px;stroke-linecap:butt;stroke-linejoin:miter;stroke-opacity:1"
         id="path1737-3-5-5" />
    </g>
    <path
       id="path1154-9"
       d="m 33.712865,7.4258691 c 0.536813,0 1.07363,0.00933 1.620386,0.01865 8.111875,0.1398689 16.174044,1.3707167 23.450873,3.5806479 3.439594,8.615932 4.277395,18.944521 4.277395,29.036812 0,10.092292 -0.917329,20.877786 -4.506039,29.596289 -7.157536,2.014114 -14.851888,3.03982 -22.884234,3.03982 -0.487111,0 -0.974221,-0.0094 -1.461331,-0.01865 H 34.040918 C 25.909161,72.53957 17.846991,71.308722 10.580105,69.089467 7.1504515,60.492184 6.3123238,50.163289 6.3123238,40.061979 c 0,-10.101311 0.9176558,-20.868461 4.4864832,-29.586965 6.690308,-1.8742449 14.046665,-2.9186005 21.472608,-3.0398203 0.47717,-0.00933 0.964281,-0.00933 1.44145,-0.00933 m 0,-0.9324602 c -0.487111,0 -0.974221,0 -1.46133,0.00933 C 24.785826,6.6239532 17.270413,7.686958 10.510517,9.5798526 L 10.043289,9.710397 9.8643508,10.139328 c -3.6085914,8.811751 -4.5231655,19.514693 -4.5231655,29.922651 0,10.407958 0.8350459,20.672644 4.294522,29.353849 l 0.1689973,0.419608 0.4572874,0.13987 c 7.326533,2.237904 15.537818,3.496724 23.749103,3.636593 h 0.188879 c 0.47717,0.0094 0.96428,0.01865 1.461331,0.01865 8.111875,0 15.905636,-1.035031 23.172525,-3.077119 l 0.467228,-0.130544 0.178938,-0.428932 c 3.618533,-8.793101 4.543048,-19.496959 4.543048,-29.931975 0,-10.435016 -0.835047,-20.672644 -4.304463,-29.363174 l -0.168997,-0.419609 -0.457288,-0.13987 C 51.74588,7.9107484 43.534594,6.6519271 35.353133,6.512058 34.776554,6.502738 34.249678,6.493409 33.712865,6.493409 Z"
       style="fill:#000000;stroke:none;stroke-width:1.78642213;stroke-miterlimit:4;stroke-dasharray:none" />
    <path
       id="path1154-9-3"
       d="m 33.712865,7.4258686 c 0.536813,0 1.07363,0.00933 1.620386,0.01865 8.111875,0.1398689 16.174044,1.3707167 23.450873,3.5806484 3.439594,8.615932 4.277395,18.944521 4.277395,29.036812 0,10.092292 -0.917329,20.877786 -4.506039,29.596288 -7.157536,2.014114 -14.851888,3.03982 -22.884234,3.03982 -0.487111,0 -0.974221,-0.0094 -1.461331,-0.01865 H 34.040918 C 25.909161,72.539569 17.846991,71.308722 10.580105,69.089466 7.1504515,60.492184 6.3123238,50.163288 6.3123238,40.061979 c 0,-10.101312 0.9176558,-20.868461 4.4864832,-29.586965 6.690308,-1.8742454 14.046665,-2.918601 21.472608,-3.0398208 0.47717,-0.00933 0.964281,-0.00933 1.44145,-0.00933 m 0,-0.9324602 c -0.487111,0 -0.974221,0 -1.46133,0.00933 C 24.785826,6.6239527 17.270413,7.6869575 10.510517,9.5798521 L 10.043289,9.7103965 9.8643508,10.139328 C 6.2557594,18.951079 5.3411853,29.65402 5.3411853,40.061979 c 0,10.407958 0.8350459,20.672643 4.294522,29.353849 l 0.1689973,0.419608 0.4572874,0.13987 c 7.326533,2.237904 15.537818,3.496724 23.749103,3.636593 h 0.188879 c 0.47717,0.0094 0.96428,0.01865 1.461331,0.01865 8.111875,0 15.905636,-1.035032 23.172525,-3.077119 l 0.467228,-0.130544 0.178938,-0.428932 c 3.618533,-8.793101 4.543048,-19.49696 4.543048,-29.931975 0,-10.435016 -0.835047,-20.672644 -4.304463,-29.363175 l -0.168997,-0.419609 -0.457288,-0.13987 C 51.74588,7.9107479 43.534594,6.6519266 35.353133,6.5120575 34.776554,6.5027375 34.249678,6.4934085 33.712865,6.4934085 Z"
       style="fill:#000000;stroke:none;stroke-width:1.78642213;stroke-miterlimit:4;stroke-dasharray:none" />
  </g>
</svg>
