<svg id="Capa_2" xmlns="http://www.w3.org/2000/svg" xmlns:xlink="http://www.w3.org/1999/xlink" viewBox="0 0 69.02 80">
<defs >
<style >
.cls-1{fill:#c89aed;}.cls-2{fill:#fff;}.cls-3{fill:#f8ffbf;}.cls-4{fill:#7b7be8;}.cls-5{fill:#a88347;}.cls-6{fill:#782ab5;}.cls-7{stroke:#000;stroke-miterlimit:10;}.cls-7,.cls-8,.cls-9,.cls-10{fill:none;}.cls-11{fill:#1c46ff;}.cls-8{stroke:#deb778;stroke-dasharray:0 0 0 4.06;stroke-linecap:round;stroke-linejoin:round;}.cls-12{fill:#deb778;}.cls-13{fill:url(#USGS_19_Inundación_de_tierra_2);}.cls-10{stroke:#1d1d1b;stroke-dasharray:0 0 2 2;stroke-width:.3px;}.cls-14{fill:#fcf0c5;}.cls-15{fill:#b83521;}
</style>
<pattern id="USGS_19_Inundación_de_tierra_2" x="0" y="0" width="72" height="72" patternTransform="translate(267.52 -16423) rotate(-90)" patternUnits="userSpaceOnUse" viewBox="0 0 72 72">
<g >
<rect class="cls-9" width="72" height="72">
</rect>
<g >
<line class="cls-10" x1="71" y1="71" x2="144.44" y2="71">
</line>
<line class="cls-10" x1="71" y1="67" x2="144.44" y2="67">
</line>
<line class="cls-10" x1="71" y1="63" x2="144.44" y2="63">
</line>
<line class="cls-10" x1="71" y1="59" x2="144.44" y2="59">
</line>
<line class="cls-10" x1="71" y1="55" x2="144.44" y2="55">
</line>
<line class="cls-10" x1="71" y1="51" x2="144.44" y2="51">
</line>
<line class="cls-10" x1="71" y1="47" x2="144.44" y2="47">
</line>
<line class="cls-10" x1="71" y1="43" x2="144.44" y2="43">
</line>
<line class="cls-10" x1="71" y1="39" x2="144.44" y2="39">
</line>
<line class="cls-10" x1="71" y1="35" x2="144.44" y2="35">
</line>
<line class="cls-10" x1="71" y1="31" x2="144.44" y2="31">
</line>
<line class="cls-10" x1="71" y1="27" x2="144.44" y2="27">
</line>
<line class="cls-10" x1="71" y1="23" x2="144.44" y2="23">
</line>
<line class="cls-10" x1="71" y1="19" x2="144.44" y2="19">
</line>
<line class="cls-10" x1="71" y1="15" x2="144.44" y2="15">
</line>
<line class="cls-10" x1="71" y1="11" x2="144.44" y2="11">
</line>
<line class="cls-10" x1="71" y1="7" x2="144.44" y2="7">
</line>
<line class="cls-10" x1="71" y1="3" x2="144.44" y2="3">
</line>
</g>
<g >
<line class="cls-10" x1="-1" y1="71" x2="72.44" y2="71">
</line>
<line class="cls-10" x1="-1" y1="67" x2="72.44" y2="67">
</line>
<line class="cls-10" x1="-1" y1="63" x2="72.44" y2="63">
</line>
<line class="cls-10" x1="-1" y1="59" x2="72.44" y2="59">
</line>
<line class="cls-10" x1="-1" y1="55" x2="72.44" y2="55">
</line>
<line class="cls-10" x1="-1" y1="51" x2="72.44" y2="51">
</line>
<line class="cls-10" x1="-1" y1="47" x2="72.44" y2="47">
</line>
<line class="cls-10" x1="-1" y1="43" x2="72.44" y2="43">
</line>
<line class="cls-10" x1="-1" y1="39" x2="72.44" y2="39">
</line>
<line class="cls-10" x1="-1" y1="35" x2="72.44" y2="35">
</line>
<line class="cls-10" x1="-1" y1="31" x2="72.44" y2="31">
</line>
<line class="cls-10" x1="-1" y1="27" x2="72.44" y2="27">
</line>
<line class="cls-10" x1="-1" y1="23" x2="72.44" y2="23">
</line>
<line class="cls-10" x1="-1" y1="19" x2="72.44" y2="19">
</line>
<line class="cls-10" x1="-1" y1="15" x2="72.44" y2="15">
</line>
<line class="cls-10" x1="-1" y1="11" x2="72.44" y2="11">
</line>
<line class="cls-10" x1="-1" y1="7" x2="72.44" y2="7">
</line>
<line class="cls-10" x1="-1" y1="3" x2="72.44" y2="3">
</line>
<line class="cls-10" x1="1.04" y1="69" x2="74.48" y2="69">
</line>
<line class="cls-10" x1="1.04" y1="65" x2="74.48" y2="65">
</line>
<line class="cls-10" x1="1.04" y1="61" x2="74.48" y2="61">
</line>
<line class="cls-10" x1="1.04" y1="57" x2="74.48" y2="57">
</line>
<line class="cls-10" x1="1.04" y1="53" x2="74.48" y2="53">
</line>
<line class="cls-10" x1="1.04" y1="49" x2="74.48" y2="49">
</line>
<line class="cls-10" x1="1.04" y1="45" x2="74.48" y2="45">
</line>
<line class="cls-10" x1="1.04" y1="41" x2="74.48" y2="41">
</line>
<line class="cls-10" x1="1.04" y1="37" x2="74.48" y2="37">
</line>
<line class="cls-10" x1="1.04" y1="33" x2="74.48" y2="33">
</line>
<line class="cls-10" x1="1.04" y1="29" x2="74.48" y2="29">
</line>
<line class="cls-10" x1="1.04" y1="25" x2="74.48" y2="25">
</line>
<line class="cls-10" x1="1.04" y1="21" x2="74.48" y2="21">
</line>
<line class="cls-10" x1="1.04" y1="17" x2="74.48" y2="17">
</line>
<line class="cls-10" x1="1.04" y1="13" x2="74.48" y2="13">
</line>
<line class="cls-10" x1="1.04" y1="9" x2="74.48" y2="9">
</line>
<line class="cls-10" x1="1.04" y1="5" x2="74.48" y2="5">
</line>
<line class="cls-10" x1="1.04" y1="1" x2="74.48" y2="1">
</line>
</g>
<g >
<line class="cls-10" x1="-73" y1="71" x2=".44" y2="71">
</line>
<line class="cls-10" x1="-73" y1="67" x2=".44" y2="67">
</line>
<line class="cls-10" x1="-73" y1="63" x2=".44" y2="63">
</line>
<line class="cls-10" x1="-73" y1="59" x2=".44" y2="59">
</line>
<line class="cls-10" x1="-73" y1="55" x2=".44" y2="55">
</line>
<line class="cls-10" x1="-73" y1="51" x2=".44" y2="51">
</line>
<line class="cls-10" x1="-73" y1="47" x2=".44" y2="47">
</line>
<line class="cls-10" x1="-73" y1="43" x2=".44" y2="43">
</line>
<line class="cls-10" x1="-73" y1="39" x2=".44" y2="39">
</line>
<line class="cls-10" x1="-73" y1="35" x2=".44" y2="35">
</line>
<line class="cls-10" x1="-73" y1="31" x2=".44" y2="31">
</line>
<line class="cls-10" x1="-73" y1="27" x2=".44" y2="27">
</line>
<line class="cls-10" x1="-73" y1="23" x2=".44" y2="23">
</line>
<line class="cls-10" x1="-73" y1="19" x2=".44" y2="19">
</line>
<line class="cls-10" x1="-73" y1="15" x2=".44" y2="15">
</line>
<line class="cls-10" x1="-73" y1="11" x2=".44" y2="11">
</line>
<line class="cls-10" x1="-73" y1="7" x2=".44" y2="7">
</line>
<line class="cls-10" x1="-73" y1="3" x2=".44" y2="3">
</line>
<line class="cls-10" x1="-70.96" y1="69" x2="2.48" y2="69">
</line>
<line class="cls-10" x1="-70.96" y1="65" x2="2.48" y2="65">
</line>
<line class="cls-10" x1="-70.96" y1="61" x2="2.48" y2="61">
</line>
<line class="cls-10" x1="-70.96" y1="57" x2="2.48" y2="57">
</line>
<line class="cls-10" x1="-70.96" y1="53" x2="2.48" y2="53">
</line>
<line class="cls-10" x1="-70.96" y1="49" x2="2.48" y2="49">
</line>
<line class="cls-10" x1="-70.96" y1="45" x2="2.48" y2="45">
</line>
<line class="cls-10" x1="-70.96" y1="41" x2="2.48" y2="41">
</line>
<line class="cls-10" x1="-70.96" y1="37" x2="2.48" y2="37">
</line>
<line class="cls-10" x1="-70.96" y1="33" x2="2.48" y2="33">
</line>
<line class="cls-10" x1="-70.96" y1="29" x2="2.48" y2="29">
</line>
<line class="cls-10" x1="-70.96" y1="25" x2="2.48" y2="25">
</line>
<line class="cls-10" x1="-70.96" y1="21" x2="2.48" y2="21">
</line>
<line class="cls-10" x1="-70.96" y1="17" x2="2.48" y2="17">
</line>
<line class="cls-10" x1="-70.96" y1="13" x2="2.48" y2="13">
</line>
<line class="cls-10" x1="-70.96" y1="9" x2="2.48" y2="9">
</line>
<line class="cls-10" x1="-70.96" y1="5" x2="2.48" y2="5">
</line>
<line class="cls-10" x1="-70.96" y1="1" x2="2.48" y2="1">
</line>
</g>
</g>
</pattern>
</defs>

  <path
     id="path7641-4"
     style="fill:#782ab5;fill-opacity:1;stroke:#4d4d4d;stroke-width:1.62226;stop-color:#000000"
     d="M 34.900259,1.6936052 C 14.323312,9.5265586 1.6299002,23.954051 1.5689773,39.580572 V 79.197446 H 67.963672 V 39.580572 C 67.958188,23.990066 55.374427,9.5708664 34.900259,1.6936052 Z"/>
  <path
     id="path7641-7"
     style="fill:#808080;stroke:#4d4d4d;stroke-width:1.48325;stop-color:#000000"
     d="M 34.629293,5.0425238 C 15.815619,12.204258 4.1542243,25.395327 4.1542243,39.682894 V 76.559207 H 64.859448 V 39.682894 c 0,-14.254531 -11.510452,-27.438125 -30.230155,-34.6403702 z m -0.01233,3.4358455 C 51.537073,14.988239 61.941622,26.904418 61.941622,39.788613 v 33.82806 H 7.07205 v -33.82806 c 0,-12.914055 10.539857,-24.836991 27.544909,-31.3102437 z"/>
  <path
     id="path7641-7-8"
     style="fill:#808080;stroke:#4d4d4d;stroke-width:1.35027;stop-color:#000000"
     d="M 34.618314,8.2461803 C 17.491429,14.76581 6.8755673,26.7742 6.8755673,39.780777 v 33.57007 H 62.138105 v -33.57007 c 0,-12.976504 -10.478452,-24.978088 -27.519791,-31.5345967 z m -0.01123,3.1277957 c 15.403093,5.926211 24.874795,16.774013 24.874795,28.503041 V 70.672134 H 9.5317874 V 39.877017 c 0,-11.75621 9.5948786,-22.610165 25.0752986,-28.503041 z"/>
  <path
     id="path7641-7-8-0"
     style="fill:#808080;stroke:#4d4d4d;stroke-width:1.21411;stop-color:#000000"
     d="M 34.607073,11.526302 C 19.207238,17.388502 9.6618637,28.185984 9.6618637,39.880997 V 70.06591 H 59.351809 V 39.880997 c 0,-11.667973 -9.421821,-22.459335 -24.744736,-28.354695 z m -0.0101,2.812393 c 13.849868,5.328621 22.366458,15.082547 22.366458,25.628837 V 67.657315 H 12.050234 V 39.967532 c 0,-10.570731 8.627346,-20.33019 22.546743,-25.628837 z"/>


<g id="Capa_9">
<g >
<g >
<path class="cls-1" d="M62.73,64.32l-1.87,9.44-24.78,4.31-27.4-5.71,.19-8.13,4.39-1.78,1.87-2.99s5.8-2.15,6.55-2.62c.49-.25,.93-.33,1.27-.34,.43-.03,.69,.06,.69,.06l.19-1.96s-1.96-2.81-2.06-4.3c-.09-1.5-.46-3.56-.46-3.56,0,0-1.59,.1-2.06-1.87-.38-2.15,.09-5.89,.09-5.89,0,0-.84-1.96-.93-3.36-.1-1.41-.1-3-.56-5.05-.47-2.06-2.15-8.23,.37-11.32,2.52-3.08,5.1-3.47,7.95-4.39,2.85-.92,7.46-2.69,9.07-.37,2.43-1.87,5.33-.85,7.1-.19,1.78,.65,8.67,1.89,10.07,5.73,1.49,4.21,1.9,7.08,.59,11.1-1.31,4.02-1.3,6.94-1.77,8.43l.06,.71c.65,5.13-.15,7.61-1.55,6.2-.37,5.24-2.24,8.14-3.18,9.07,.02,.61,.08,.86,.14,.94,.07,.11,.14,0,.14,0,0,0,1.71,.58,2.74,1.24,1.02,.65,4.55,1.38,5.77,1.84,1.71,2.69,1.28,3.1,1.28,3.1l6.11,1.67Z">
</path>
<path class="cls-5" d="M53,31.13c-1.31,4.02-.84,6.92-1.31,8.41v.04c-2.07-.16-5.49-5.44-5.49-5.44l-22.67-.15-4.59,5.33s-.44-2.3-.53-3.7c-.1-1.41-.1-3-.56-5.05-.47-2.06-2.15-8.23,.37-11.32,2.52-3.08,5.1-3.47,7.95-4.39,2.85-.92,7.46-2.69,9.07-.37,2.43-1.87,5.33-.85,7.1-.19,1.78,.65,8.67,1.89,10.07,5.73,1.49,4.21,1.9,7.08,.59,11.1Z">
</path>
<path class="cls-5" d="M62.73,64.32l-1.87,9.44-24.78,4.31-27.4-5.71,.19-8.13,4.39-1.78,1.87-2.99s5.8-2.15,6.55-2.62c.49-.25,.93-.33,1.27-.34l.79,.47c-1.22,11.96,5.2,16.06,5.31,16.4,.12,.33,5.43,3.43,5.77,3.21,.33-.22,5.76-1.44,9.08-7.09,3.11-5.65,2.44-12.97,2.44-12.97l.35-.05c.07,.11,.14,0,.14,0,0,0,1.66,.28,2.51,1.15,1.73,1.76,4.78,1.47,6,1.93,1.71,2.69,1.43,3.25,1.43,3.25l5.96,1.53Z">
</path>
<path d="M23.98,61.89s2.07,6.56,8.35,7.71c1.5,1.64,2.5,2.93,2.5,2.93l2.28-2.93s5.14,.36,8.78-7.71c-.5,7.06-4.07,10.85-6.92,13.2-6.99,2.57-10.27-2.28-10.27-2.28,0,0-4.57-4.99-4.71-10.92Z">
</path>
<path class="cls-2" d="M35.39,63.28v-29.05l10.81-.08,3.46,3.8s-.25,11.97-1.07,14.28-3.3,5.03-4.87,6.02-3.88,5.36-8.34,5.03Z">
</path>
<path class="cls-4" d="M39.07,43.18l-1.47-2.07,6.15-2.07s2.61,1.07,3.21,1.87c-.8,2.87-1.6,3.74-1.6,3.74l-2.54-2s-3.07,.33-3.74,.53Z">
</path>
<path class="cls-4" d="M31.43,43.18l1.47-2.07-6.15-2.07s-2.61,1.07-3.21,1.87c.8,2.87,1.6,3.74,1.6,3.74l2.54-2s3.07,.33,3.74,.53Z">
</path>
<path class="cls-3" d="M30.75,44.88l.58-1.69s-2.75-.57-4.13-.2c-1.71,1.01-1.75,1.61-1.75,1.61,0,0,2.4,1.2,5.3,.28Z">
</path>
<path class="cls-3" d="M39.66,44.88l-.58-1.69s2.75-.57,4.13-.2c1.71,1.01,1.75,1.61,1.75,1.61,0,0-2.4,1.2-5.3,.28Z">
</path>
<path class="cls-2" d="M25.49,46.47c.73,.22,1.8,.41,3.14,.29,.89-.08,1.43,.94,.9,1.66-1.19,1.62-2.42,2.49-3.22,2.93-.5,.27-1.13,.08-1.4-.43-.4-.76-.86-1.99-.75-3.51,.05-.66,.68-1.14,1.32-.94Z">
</path>
<path d="M21.31,46.36s-.63,1.04-1.72,.52-.68-1.67-.63-3.03,.05-4.7,.05-4.7l1.93-1.78,.37,8.98Z">
</path>
<path d="M41.28,61.1l-12.75,14.49-18.3-4.39-1.41-6.63,4.45-2.13,1.51-2.42s1.66-.17,3.48-1.24,4.31-1.74,5.05-1.49c.25-1.57,.41-2.15,.41-2.15,0,0,6.29,6.54,7.79,7.7s6.29,.58,9.77-1.74Z">
</path>
<path d="M23.78,34.1l-4.74,5.64s-.57-2.21-.9-5.8c-1.72-6.46-1.96-10.13-1.23-12.42s1.31-3.51,4.33-4.66,2.37,.65,6.46,.49c-4.17,.08-4.99,1.14-4.99,1.14,0,0-2.37,2.7-2.04,8.5,.16,4.74,.57,7.11,3.11,7.11Z">
</path>
<path class="cls-15" d="M35.19,27.65l-2.08-1.61-1.15-3.06s2.33-1.83,3.06-3.01c1.06,1.44,3.14,2.93,3.14,2.93l-1.02,3.06-1.95,1.7Z">
</path>
<path class="cls-12" d="M32.72,17.26s10.28,1.09,12.46,2.87c2.87,5.93,1.68,12.66-2.37,14.14,4.85,.1,5.04,.3,6.03-2.27s2.27-9.49-1.38-13.94c-4.65-.99-14.73-.79-14.73-.79Z">
</path>
<path class="cls-12" d="M36.25,14.26s-1.14,.47,1.61,1.27,7.31,.67,9.99,2.95,2.55,8.85,1.74,11.74c-1.01,3.15-1.14,3.42-.13,4.7s1.81,3.22,2.35,.54,1.68-6.44,1.74-9.06-.54-5.9-2.08-7.92-5.97-3.02-7.18-3.42-5.9-1.48-8.05-.8Z">
</path>
<path class="cls-12" d="M48.72,57.36s.47,10.21-5.2,16.64c12.01-1.89,14.65-2.27,14.65-2.27l2.84-7.28-4.63-2.17-1.13-2.27s-5.77-1.8-6.52-2.65Z">
</path>
<path class="cls-1" d="M45.42,35.67c.92,.21,1.97,1.63,2.76,2.69l.04,.05c-.05,1.35-.22,5.58-.28,6.64-.01,.19-.02,.47-.02,.81-.04,1.74-.13,5.81-1.72,7.77-1.81,2.23-5.01,5.06-6.72,6.58l-.13,.11-.62,.55c-.06,.05-.21,.15-.5,.28-.9,.42-1.92,.65-2.95,.65s-2.04-.22-2.95-.65c-.29-.13-.44-.23-.5-.28l-.62-.55-.12-.11c-1.72-1.52-4.91-4.35-6.73-6.6-1.61-1.97-1.68-6.21-1.71-7.82v-.35c-.01-.15-.01-.28-.02-.39-.06-1.1-.16-5.94-.19-7.39,.55-.72,1.44-1.81,2.24-2h20.73m.09-1H24.59c-1.2,.2-2.26,1.48-3.15,2.67,.01,.6,.13,6.51,.2,7.77,.01,.18,.01,.42,.02,.72,.03,1.85,.11,6.19,1.93,8.42,1.91,2.36,5.2,5.26,6.96,6.82l.64,.57c.1,.08,.31,.23,.72,.42,1.05,.49,2.21,.74,3.37,.74s2.32-.25,3.37-.74c.41-.19,.62-.34,.72-.42l.64-.57c1.76-1.56,5.05-4.46,6.96-6.81,1.81-2.23,1.9-6.55,1.94-8.39,0-.32,.01-.58,.02-.76,.07-1.23,.27-6.32,.29-7.01-.08-.11-.16-.22-.24-.33-.95-1.28-2.13-2.88-3.47-3.1h0Z">
</path>
<path class="cls-7" d="M33.48,17.05s1.39-.75,1.31-2.02-2.91-1.87-6.12-.75-8.74,1.57-10.76,5.45-1.34,8.44-.37,12.02,.15,6.87,1.27,7.39,2.93-4.53,5.7-4.98">
</path>
<path class="cls-7" d="M36.5,17.15s-1.27-.85-1.2-2.12,2.91-1.87,6.12-.75,8.74,1.57,10.76,5.45,1.34,8.44,.37,12.02-.15,6.87-1.27,7.39-2.93-4.53-5.7-4.98">
</path>
<path class="cls-7" d="M38.34,34.17h8.21c.92,0,1.76-.57,2.09-1.44,2.7-7.12,.43-12.06-.77-13.97-.35-.55-.91-.93-1.56-1.03-1.61-.25-5.02-.7-8.05-.65h-6.08c-3.03-.05-6.45,.4-8.05,.65-.65,.1-1.21,.48-1.56,1.03-1.2,1.91-3.47,6.85-.77,13.97,.33,.86,1.16,1.44,2.09,1.44h14.44Z">
</path>
<path class="cls-7" d="M18.94,39.32s.26,1.89-.13,3.78,.48,5.19,2.15,3.56">
</path>
<path class="cls-7" d="M51.33,39.32s-.26,1.89,.13,3.78-.48,5.19-2.15,3.56">
</path>
<path class="cls-7" d="M49.72,38.01c0,.22-.22,5.81-.29,7.13-.08,1.33,.14,6.71-2.07,9.43-2.21,2.73-6.26,6.19-7.66,7.44-.18,.16-.47,.33-.84,.5-2.26,1.06-4.91,1.06-7.17,0-.37-.17-.65-.34-.84-.5-1.4-1.25-5.45-4.71-7.66-7.44-2.21-2.72-1.99-8.1-2.06-9.43-.07-1.32-.2-7.64-.2-7.86">
</path>
<path class="cls-7" d="M23.2,54.57l.93,9.9s1.04,8.95,10.79,11.65">
</path>
<path class="cls-7" d="M23.43,57.47s-.55-1.42-2.59,0-6.06,2.3-6.06,2.3c0,0-2.98,3.92-1.05,8.62,3.55,.47,6.59,1.1,6.59,1.1l-3.71,4.76">
</path>
<line class="cls-7" x1="13.16" y1="62.59" x2="7.62" y2="64.83">
</line>
<path class="cls-7" d="M46.67,55.25l-.93,9.22s-1.04,8.95-10.79,11.65">
</path>
<path class="cls-7" d="M46.25,57.2s.73-1.15,2.77,.26,6.06,2.3,6.06,2.3c0,0,2.98,3.92,1.05,8.62-3.55,.47-6.59,1.1-6.59,1.1l3.71,4.76">
</path>
<line class="cls-7" x1="56.42" y1="62.56" x2="62.25" y2="64.83">
</line>
<path class="cls-7" d="M46.16,60.44s-2.53,9.25-8.93,9.25l-2.28,2.96-2.28-2.96c-6.39,0-8.92-9.25-8.92-9.25">
</path>
<path d="M40.89,55.32c-.61-.38-1.23-.92-1.92-1.08-1.05,.08-2.53,.02-3.73,0-1.19,.02-2.68,.08-3.73,0-.29,.03-.66,.27-.94,.44,0,0-.98,.65-.98,.65,.48-.69,.96-1.39,1.77-1.73,1.28-.18,2.58-.3,3.88-.35,1.3,.06,2.6,.17,3.88,.35,.81,.34,1.29,1.04,1.77,1.73h0Z">
</path>
<path d="M23.35,41.05s1.56-2.17,3.38-2.62c2.32-.38,6.84,.91,6.84,.91l-.72,1.94-6.19-1.44s-1.79,.27-3.31,1.22Z">
</path>
<path d="M31.07,43.94c.04-.26,.09-.51,.15-.77l.05,.12c-1.07-.31-2.83-.27-3.59-.14-.75,.35-1.48,.85-1.99,1.49l-.1-.51c.73,.45,1.64,.74,2.5,.85,.92,.12,1.85,.05,2.77-.15-1.72,.94-3.96,.94-5.68-.09l-.32-.2c.61-.96,1.55-1.65,2.6-2.05,1.37-.17,2.76,.05,3.97,.66-.11,.26-.23,.52-.36,.78h0Z">
</path>
<path d="M47.04,41.05s-1.56-2.17-3.38-2.62c-2.32-.38-6.84,.91-6.84,.91l.72,1.94,6.19-1.44s1.79,.27,3.31,1.22Z">
</path>
<path d="M39.32,43.94c-.13-.26-.25-.52-.36-.78,1.21-.61,2.6-.83,3.97-.66,1.05,.4,1.99,1.09,2.6,2.05-.54,.36-1.13,.64-1.73,.78-1.41,.39-3.01,.2-4.27-.49,.92,.2,1.84,.28,2.77,.15,.87-.11,1.78-.41,2.5-.85,0,0-.1,.51-.1,.51-.51-.64-1.24-1.14-1.99-1.49-.76-.13-2.52-.17-3.59,.14,0,0,.05-.12,.05-.12,.06,.25,.1,.51,.15,.77h0Z">
</path>
<path d="M36.84,42.02c.67,2.49,1.24,5.01,1.77,7.54,0,0,.03,.16,.03,.16l-.12,.13-1.19,1.32-.1,.12c-1.33,.01-2.65,.02-3.98,0l-.1-.12s-1.31-1.46-1.31-1.45c.26-1.32,.57-2.63,.87-3.94,.28-1.26,.6-2.51,.94-3.76-.28,2.57-.67,5.12-1.1,7.66,0,0-.08-.29-.08-.29l1.22,1.29-.27-.12c1.22-.01,2.44-.01,3.65,0l-.27,.12,1.22-1.29-.08,.29c-.43-2.55-.82-5.1-1.1-7.66h0Z">
</path>
<path d="M32.24,55.43c2.05-.2,3.9-.18,5.96,0-1.87,.85-4.08,.83-5.96,0h0Z">
</path>
<path class="cls-7" d="M35.04,27.57l2.13-1.7s.76-1.37,.91-3.14c-.91-.6-2.19-1.62-3.04-2.97-.86,1.35-2.14,2.37-3.05,2.97,.15,1.77,.91,3.14,.91,3.14l2.14,1.7Z">
</path>
<path d="M36.09,29.53c-.29,.2-.57,.4-.83,.57-.03,.02-.07,.05-.1,.07,0,0-.01-.01-.02-.02l.53-.36c.14-.09,.28-.18,.42-.27m3.56-5.94c.8,2.98-2.46,3.98-4.54,5.38-.44-.29-.87-.56-1.29-.82-1.72-1.05-3.92-2.18-3.19-4.56-.57,.53-.91,1.37-.84,2.27,.46,2.66,3.41,4.05,5.35,5.54,2.33-1.64,7.36-4.56,4.51-7.81h0Z">
</path>
</g>
<path class="cls-11" d="M23.37,57.92c-.81-.85-1.92-.16-2.65,.44-1.59,1.13-3.35,1.91-5.24,2.42,0,0,.52-.32,.52-.32-1.21,2.02-1.43,4.64-.86,6.92,0,0-.74-.69-.74-.69,2.04,.48,4.94,1.32,6.98,1.93,0,0,.85,.25,.85,.25-1.03,1.03-1.99,2.14-3.05,3.14,0,0-.09-.07-.09-.07l2.11-2.85,.04,.11-7.04-1.47h-.06c-.34-1.34-.49-2.72-.31-4.09,.2-1.33,.61-2.74,1.46-3.81,1.43-.32,2.85-.78,4.17-1.42,1.15-.56,2.97-2.05,4.02-.53,0,0-.1,.05-.1,.05h0Z">
</path>
<path class="cls-5" d="M23.09,61.32c.37,4.8,2.61,9.56,6.6,12.35,.22,.17,.26,.48,.1,.7-.17,.23-.51,.27-.73,.08-3.91-3.13-5.93-8.2-5.97-13.12h0Z">
</path>
<path class="cls-11" d="M20.52,18.22c-4.99,5.42-.06,13.12-1.69,19.52,0,0-.11,0-.11,0,.23-6.01-4.59-15.62,1.8-19.52h0Z">
</path>
</g>
</g>
  <g
     id="g20645">
    <path
       style="fill:#808080;stroke:#4d4d4d;stroke-width:0.937908;stop-color:#000000;fill-opacity:1"
       d="m 9.541565,65.883425 a 5.4759801,5.4759801 0 0 1 5.47598,5.475981 5.4759801,5.4759801 0 0 1 -5.47598,5.47598 5.4759801,5.4759801 0 0 1 -5.4759806,-5.47598 5.4759801,5.4759801 0 0 1 5.4759806,-5.475981 z"/>
    <path
       style="fill:#808080;stroke:#4d4d4d;stroke-width:0.937908;stop-color:#000000;fill-opacity:1"
       d="m 59.472108,65.883425 a 5.4759801,5.4759801 0 0 1 5.47598,5.475981 5.4759801,5.4759801 0 0 1 -5.47598,5.47598 5.4759801,5.4759801 0 0 1 -5.475981,-5.47598 5.4759801,5.4759801 0 0 1 5.475981,-5.475981 z"/>
    <path
       id="path7641"
       style="fill:#808080;stroke:#4d4d4d;stroke-width:1.64416;stop-color:#000000"
       d="M 34.642578,1.1660156 C 13.787845,9.1047124 0.86132813,23.726855 0.86132812,39.564453 V 79.340489 H 68.152344 V 39.564453 c 0,-15.800978 -12.759199,-30.4148342 -33.509766,-38.3984374 z m -0.01367,3.8085938 C 53.384648,12.190722 64.917969,25.399665 64.917969,39.681641 v 26.507812 c -1.368656,-1.44106 -3.300993,-2.341797 -5.445313,-2.341797 -4.14856,0 -7.511718,3.363159 -7.511718,7.511719 0,2.347008 1.075662,4.442843 2.761718,5.820313 H 14.269531 c 1.756069,-1.422629 2.778281,-3.560307 2.783203,-5.820313 4.8e-5,-4.148627 -3.363091,-7.511766 -7.5117184,-7.511719 -2.0622939,0.0062 -4.0313164,0.860092 -5.4453125,2.361328 V 39.681641 c 0,-14.315076 11.6833059,-27.531508 30.5332029,-34.7070316 z"/>
    <circle
       style="fill:#4d4d4d;fill-opacity:1;stroke:#4d4d4d;stop-color:#000000"
       id="path16431"
       cx="9.6010828"
       cy="71.229652"
       r="5.06003" />
    <circle
       style="fill:#4d4d4d;fill-opacity:1;stroke:#4d4d4d;stop-color:#000000"
       id="path16431-3"
       cx="59.42292"
       cy="71.229652"
       r="5.06003" />
  </g>
</svg>
