<svg id="Capa_2" xmlns="http://www.w3.org/2000/svg" xmlns:xlink="http://www.w3.org/1999/xlink" viewBox="0 0 69.02 80">
<defs >
<style >
.cls-1{fill:#c89aed;}.cls-2{fill:#fff;}.cls-3{fill:#f8ffbf;}.cls-4{fill:#7b7be8;}.cls-5{fill:#a88347;}.cls-6{fill:#782ab5;}.cls-7,.cls-8{stroke:#000;}.cls-7,.cls-8,.cls-9,.cls-10,.cls-11,.cls-12{fill:none;}.cls-7,.cls-8,.cls-12{stroke-miterlimit:10;}.cls-13{fill:#1c46ff;}.cls-8{stroke-width:.75px;}.cls-9{stroke:#deb778;stroke-dasharray:0 0 0 4.06;stroke-linecap:round;stroke-linejoin:round;}.cls-14{fill:#deb778;}.cls-15{fill:url(#USGS_19_Inundación_de_tierra_2);}.cls-11{stroke:#1d1d1b;stroke-dasharray:0 0 2 2;stroke-width:.3px;}.cls-16{fill:#cf5f2b;}.cls-12{stroke:#c89aed;stroke-width:1.3px;}.cls-17{fill:#fcf0c5;}.cls-18{fill:#b83521;}
</style>
<pattern id="USGS_19_Inundación_de_tierra_2" x="0" y="0" width="72" height="72" patternTransform="translate(195.52 -16423) rotate(-90)" patternUnits="userSpaceOnUse" viewBox="0 0 72 72">
<g >
<rect class="cls-10" width="72" height="72">
</rect>
<g >
<line class="cls-11" x1="71" y1="71" x2="144.44" y2="71">
</line>
<line class="cls-11" x1="71" y1="67" x2="144.44" y2="67">
</line>
<line class="cls-11" x1="71" y1="63" x2="144.44" y2="63">
</line>
<line class="cls-11" x1="71" y1="59" x2="144.44" y2="59">
</line>
<line class="cls-11" x1="71" y1="55" x2="144.44" y2="55">
</line>
<line class="cls-11" x1="71" y1="51" x2="144.44" y2="51">
</line>
<line class="cls-11" x1="71" y1="47" x2="144.44" y2="47">
</line>
<line class="cls-11" x1="71" y1="43" x2="144.44" y2="43">
</line>
<line class="cls-11" x1="71" y1="39" x2="144.44" y2="39">
</line>
<line class="cls-11" x1="71" y1="35" x2="144.44" y2="35">
</line>
<line class="cls-11" x1="71" y1="31" x2="144.44" y2="31">
</line>
<line class="cls-11" x1="71" y1="27" x2="144.44" y2="27">
</line>
<line class="cls-11" x1="71" y1="23" x2="144.44" y2="23">
</line>
<line class="cls-11" x1="71" y1="19" x2="144.44" y2="19">
</line>
<line class="cls-11" x1="71" y1="15" x2="144.44" y2="15">
</line>
<line class="cls-11" x1="71" y1="11" x2="144.44" y2="11">
</line>
<line class="cls-11" x1="71" y1="7" x2="144.44" y2="7">
</line>
<line class="cls-11" x1="71" y1="3" x2="144.44" y2="3">
</line>
</g>
<g >
<line class="cls-11" x1="-1" y1="71" x2="72.44" y2="71">
</line>
<line class="cls-11" x1="-1" y1="67" x2="72.44" y2="67">
</line>
<line class="cls-11" x1="-1" y1="63" x2="72.44" y2="63">
</line>
<line class="cls-11" x1="-1" y1="59" x2="72.44" y2="59">
</line>
<line class="cls-11" x1="-1" y1="55" x2="72.44" y2="55">
</line>
<line class="cls-11" x1="-1" y1="51" x2="72.44" y2="51">
</line>
<line class="cls-11" x1="-1" y1="47" x2="72.44" y2="47">
</line>
<line class="cls-11" x1="-1" y1="43" x2="72.44" y2="43">
</line>
<line class="cls-11" x1="-1" y1="39" x2="72.44" y2="39">
</line>
<line class="cls-11" x1="-1" y1="35" x2="72.44" y2="35">
</line>
<line class="cls-11" x1="-1" y1="31" x2="72.44" y2="31">
</line>
<line class="cls-11" x1="-1" y1="27" x2="72.44" y2="27">
</line>
<line class="cls-11" x1="-1" y1="23" x2="72.44" y2="23">
</line>
<line class="cls-11" x1="-1" y1="19" x2="72.44" y2="19">
</line>
<line class="cls-11" x1="-1" y1="15" x2="72.44" y2="15">
</line>
<line class="cls-11" x1="-1" y1="11" x2="72.44" y2="11">
</line>
<line class="cls-11" x1="-1" y1="7" x2="72.44" y2="7">
</line>
<line class="cls-11" x1="-1" y1="3" x2="72.44" y2="3">
</line>
<line class="cls-11" x1="1.04" y1="69" x2="74.48" y2="69">
</line>
<line class="cls-11" x1="1.04" y1="65" x2="74.48" y2="65">
</line>
<line class="cls-11" x1="1.04" y1="61" x2="74.48" y2="61">
</line>
<line class="cls-11" x1="1.04" y1="57" x2="74.48" y2="57">
</line>
<line class="cls-11" x1="1.04" y1="53" x2="74.48" y2="53">
</line>
<line class="cls-11" x1="1.04" y1="49" x2="74.48" y2="49">
</line>
<line class="cls-11" x1="1.04" y1="45" x2="74.48" y2="45">
</line>
<line class="cls-11" x1="1.04" y1="41" x2="74.48" y2="41">
</line>
<line class="cls-11" x1="1.04" y1="37" x2="74.48" y2="37">
</line>
<line class="cls-11" x1="1.04" y1="33" x2="74.48" y2="33">
</line>
<line class="cls-11" x1="1.04" y1="29" x2="74.48" y2="29">
</line>
<line class="cls-11" x1="1.04" y1="25" x2="74.48" y2="25">
</line>
<line class="cls-11" x1="1.04" y1="21" x2="74.48" y2="21">
</line>
<line class="cls-11" x1="1.04" y1="17" x2="74.48" y2="17">
</line>
<line class="cls-11" x1="1.04" y1="13" x2="74.48" y2="13">
</line>
<line class="cls-11" x1="1.04" y1="9" x2="74.48" y2="9">
</line>
<line class="cls-11" x1="1.04" y1="5" x2="74.48" y2="5">
</line>
<line class="cls-11" x1="1.04" y1="1" x2="74.48" y2="1">
</line>
</g>
<g >
<line class="cls-11" x1="-73" y1="71" x2=".44" y2="71">
</line>
<line class="cls-11" x1="-73" y1="67" x2=".44" y2="67">
</line>
<line class="cls-11" x1="-73" y1="63" x2=".44" y2="63">
</line>
<line class="cls-11" x1="-73" y1="59" x2=".44" y2="59">
</line>
<line class="cls-11" x1="-73" y1="55" x2=".44" y2="55">
</line>
<line class="cls-11" x1="-73" y1="51" x2=".44" y2="51">
</line>
<line class="cls-11" x1="-73" y1="47" x2=".44" y2="47">
</line>
<line class="cls-11" x1="-73" y1="43" x2=".44" y2="43">
</line>
<line class="cls-11" x1="-73" y1="39" x2=".44" y2="39">
</line>
<line class="cls-11" x1="-73" y1="35" x2=".44" y2="35">
</line>
<line class="cls-11" x1="-73" y1="31" x2=".44" y2="31">
</line>
<line class="cls-11" x1="-73" y1="27" x2=".44" y2="27">
</line>
<line class="cls-11" x1="-73" y1="23" x2=".44" y2="23">
</line>
<line class="cls-11" x1="-73" y1="19" x2=".44" y2="19">
</line>
<line class="cls-11" x1="-73" y1="15" x2=".44" y2="15">
</line>
<line class="cls-11" x1="-73" y1="11" x2=".44" y2="11">
</line>
<line class="cls-11" x1="-73" y1="7" x2=".44" y2="7">
</line>
<line class="cls-11" x1="-73" y1="3" x2=".44" y2="3">
</line>
<line class="cls-11" x1="-70.96" y1="69" x2="2.48" y2="69">
</line>
<line class="cls-11" x1="-70.96" y1="65" x2="2.48" y2="65">
</line>
<line class="cls-11" x1="-70.96" y1="61" x2="2.48" y2="61">
</line>
<line class="cls-11" x1="-70.96" y1="57" x2="2.48" y2="57">
</line>
<line class="cls-11" x1="-70.96" y1="53" x2="2.48" y2="53">
</line>
<line class="cls-11" x1="-70.96" y1="49" x2="2.48" y2="49">
</line>
<line class="cls-11" x1="-70.96" y1="45" x2="2.48" y2="45">
</line>
<line class="cls-11" x1="-70.96" y1="41" x2="2.48" y2="41">
</line>
<line class="cls-11" x1="-70.96" y1="37" x2="2.48" y2="37">
</line>
<line class="cls-11" x1="-70.96" y1="33" x2="2.48" y2="33">
</line>
<line class="cls-11" x1="-70.96" y1="29" x2="2.48" y2="29">
</line>
<line class="cls-11" x1="-70.96" y1="25" x2="2.48" y2="25">
</line>
<line class="cls-11" x1="-70.96" y1="21" x2="2.48" y2="21">
</line>
<line class="cls-11" x1="-70.96" y1="17" x2="2.48" y2="17">
</line>
<line class="cls-11" x1="-70.96" y1="13" x2="2.48" y2="13">
</line>
<line class="cls-11" x1="-70.96" y1="9" x2="2.48" y2="9">
</line>
<line class="cls-11" x1="-70.96" y1="5" x2="2.48" y2="5">
</line>
<line class="cls-11" x1="-70.96" y1="1" x2="2.48" y2="1">
</line>
</g>
</g>
</pattern>
</defs>

<g id="Capa_9">
<g >
<g >
<path class="cls-1" d="M18.8,33.23s-.61-7.72,.81-11.79,6.6-10.06,15.55-9.65c9.35,.41,14.02,6.5,15.04,10.36,1.32,4.88,.61,13.01,.61,13.01l2.64-4.67s1.22,4.37,1.12,7.42-.91,4.37-3.66,6.71c-1.12,1.83-1.22,2.24-1.22,2.24,0,0-.3,6.6-2.03,8.84l.55,3.52,15,4.81-2.74,9.25-26.62,4.47-25.71-5.28-.41-8.64,14.02-4.47,.61-2.85s-2.24-5.59-2.34-9.86c-1.93-2.74-4.47-5.59-4.67-6.5s.81-9.55,.81-9.55l2.34,4.17,.3-1.52Z">
</path>
<path class="cls-2" d="M34.76,57.5V30.46c0-4.21,4.12-7.2,8.11-5.88,2.07,.69,4.14,1.62,5.65,2.88,3.32,8.71,4.14,12.75,3.32,14.96s-2.14,5.04-2.14,5.04c0,0,.16,5.17-1.09,6.94s-6.88,6.15-6.88,6.15l-1.35,1.25s-.01,0-.03,0c-2.82,.76-5.59-1.38-5.59-4.3Z">
</path>
<path class="cls-18" d="M20.52,20.03s.07-.05,.1-.08c10.73-8.23,25.43-2.88,29.22,1.32,1.9,5.12,.91,13.13,.91,13.13l-2.23-6.94s-1.16-2.23-8.84-4.21-14.2,.5-17.18-1.49c0,2.31-1.16,6.94-2.31,8.18-.94,1-1.49,3.8-1.67,4.82-.04,.24-.06,.38-.06,.38,0,0-1.25-10.94,2.06-15.11Z">
</path>
<path d="M20.19,20.19s4.95-8,14.97-8.4c9.92,.16,14.22,6.9,14.69,9.8-5.24-5.33-17.12-9.45-29.66-1.4Z">
</path>
<path class="cls-18" d="M22.12,59.46s4.94,4.52,10.39,5.88c1.45,2.81,2.3,4.09,2.3,4.09h1.02l1.87-3.92s6.67-1.7,10.49-6.3c4.76,1.62,15,4.81,15,4.81l-3.51,10.35-26.92,3.15-24.62-5.62-.42-8.08,14.4-4.36Z">
</path>
<path class="cls-3" d="M30.94,40.87s-2.29-1.12-3.08-1.12c-2.29,.48-3.88,1.12-3.88,1.12,0,0,3.62,2.23,6.97,0Z">
</path>
<polygon class="cls-4" points="32.85 36.89 31.68 41.01 28.29 39.67 23.77 40.74 21.35 37.48 25.83 35.6 32.85 36.89">
</polygon>
<path class="cls-3" d="M39.07,40.87s2.29-1.12,3.08-1.12c2.29,.48,3.88,1.12,3.88,1.12,0,0-3.62,2.23-6.97,0Z">
</path>
<polygon class="cls-4" points="37.16 36.89 38.33 41.01 41.72 39.67 46.24 40.74 48.66 37.48 44.18 35.6 37.16 36.89">
</polygon>
<path class="cls-12" d="M50.16,44.96c-.25,.38-2.69,3.7-3.17,5.14,.7-.96,1.49-1.77,2.27-2.61-.12,2.02-.52,5.72-1.85,7.59-.88,1.22-2.17,2.17-3.66,3.27-1.1,.81-2.34,1.72-3.53,2.85-1.37,.48-3.07,.73-4.95,.73h-1.08c-1.65,0-3.14-.19-4.42-.56-1.25-1.22-2.55-2.18-3.7-3.03-1.49-1.09-2.78-2.04-3.66-3.26-1.36-1.91-1.82-5.77-1.97-7.76,.83,.88,1.68,1.75,2.4,2.78-.68-1.9-2.13-3.51-3.19-5.14-1.57-2.9-1.07-6.47-.34-9.57,0-.16-.02-.33-.03-.49,.13-1.1,.55-3.83,1.7-5.65,1.3-2.07,1.84-5.16,1.79-6.86,1.33,.63,3.43,.6,6.15,.57,5.26-.05,12.45-.14,19.2,4.52,1.17,3.89,2.21,7.38,2.47,8.25,.69,3,1.11,6.45-.43,9.23Z">
</path>
<path d="M19.16,35.66l-3-5.07s-.73,6.58-.79,8.26,2.11,4.22,3.07,5c-1.08-3.8,.18-7.53,.72-8.19Z">
</path>
<path d="M40.78,61.91l-18.12,13.75-13.26-3.24-1.67-8.6,14.4-4.36,.23-2.96s5.16,2.9,6.53,4.68,7.93,1.38,11.89,.73Z">
</path>
<path class="cls-16" d="M49.32,21.12s-3.94-1.59-7.54-.35-11.14,2.56-14.95,1.73c-2.91-.28-4.32-.74-4.32-.74,0,0,7.44,.4,11.1-1.89s8.44-2.49,10.1-2.49c2.98,.62,5.61,3.74,5.61,3.74Z">
</path>
<path d="M19.46,22.84s2.3-.21,2.44,1.67c.21,2.3-2.79,7.87-3.07,8.5-.35-5.23,.63-10.17,.63-10.17Z">
</path>
<path d="M48.45,27.65s1.32-2.79,2.65-2.86c.56,4.46-.21,9.9-.21,9.9l-2.44-7.04Z">
</path>
<path class="cls-2" d="M23.93,42.79c1.04,.3,2.84,.73,4.48,.73,.75,0,1.14,.91,.64,1.46-1.58,1.77-3.15,2.87-4.07,3.43-.44,.27-1.02,.11-1.24-.36-.48-.97-1.14-2.71-.92-4.55,.06-.53,.6-.86,1.11-.71Z">
</path>
<path class="cls-16" d="M50.41,63.69s-3.62,6.88-14.54,7.44c-3.1,4.02-3.27,6.08-3.27,6.08l27.49-4.38,.82-6.21-10.5-2.92Z">
</path>
<polyline class="cls-7" points="6.76 64.15 21.96 59.21 22.32 55.88">
</polyline>
<polyline class="cls-7" points="63.4 64.15 48.2 59.21 47.81 55.37">
</polyline>
<path class="cls-7" d="M18.79,35.63s-1.25-3.06-2.8-5.47c-.4,4.4-1.09,9.04-.23,10.78s3.18,3.8,3.18,3.8">
</path>
<path d="M46.99,50.1c.64-1.92,2.09-3.53,3.17-5.14,1.57-2.85,1.1-6.4,.38-9.45,.21-4.1,.38-8.33-.43-12.4-1.23-6.86-8.83-10.4-15.2-10.74-5.18,.31-10.9,2.55-13.78,7.07-1.49,2.27-1.7,5.06-1.92,7.71-.18,2.74-.12,5.52,.11,8.25-.73,3.09-1.23,6.66,.34,9.57,1.06,1.63,2.51,3.24,3.18,5.14-1.2-1.72-2.74-2.95-4-4.64-1.93-2.79-1.45-7.78-.44-10.05-.23-5.35-.81-11.65,1.96-16.45,3.64-5.68,12.33-8.78,18.73-6.85,7.72,1.99,12.34,6.78,12.43,14.98,.17,2.48,.14,6.38-.12,8.13,1.11,3.28,1.47,7.16-.41,10.25-1.23,1.71-2.77,2.94-4,4.64h0Z">
</path>
<path class="cls-7" d="M51.09,35.67s1.19-3.11,2.74-5.52c.4,4.4,1.09,9.04,.23,10.78s-3.25,3.85-3.25,3.85">
</path>
<path class="cls-7" d="M19.87,46.08s.14,6.5,2.13,9.29c1.66,2.32,4.69,3.67,7.5,6.44,1.16,.35,2.69,.62,4.68,.62h1.08c2.31,0,4.02-.36,5.22-.79,2.77-2.66,5.7-4,7.33-6.27,2-2.79,1.99-9.15,1.99-9.15">
</path>
<path class="cls-8" d="M19.86,20.91s5.13-5.04,15.36-5.08c10.23-.04,15.06,6.14,15.06,6.14">
</path>
<path class="cls-8" d="M18.85,35.36s.28-3.88,1.81-6.31,1.95-6.3,1.64-7.4c2.96,2.71,15.19-2.05,26.14,5.61,1.38,4.55,2.58,8.59,2.58,8.59">
</path>
<g >
<path d="M21.31,37.53s2.91-2.75,5.34-3.1c3.5-.1,5.97,.81,5.97,.81l.19,1.73s-3.59,.2-6.41-.36c-2.96-.46-3.55,.81-5.1,.92Z">
</path>
<path d="M48.51,37.53s-2.91-2.75-5.34-3.1c-3.5-.1-5.97,.81-5.97,.81l-.19,1.73s3.59,.2,6.41-.36c2.96-.46,3.55,.81,5.1,.92Z">
</path>
<path d="M23.86,40.84c1.34-.75,2.66-1.42,4.19-1.72,1.41,.24,2.77,.82,3.75,1.92-1.77,.96-4.26,1.77-6.03,.45,1.74,.51,3.47-.25,4.98-1,0,0-.12,.76-.12,.76-.75-.61-1.75-.96-2.69-1.24,0,0,.14,.01,.14,.01-1.37,.18-2.83,.62-4.22,.82h0Z">
</path>
<path d="M46.26,40.84c-1.38-.2-2.85-.64-4.22-.82,0,0,.14-.01,.14-.01-.93,.28-1.94,.63-2.69,1.24,0,0-.12-.76-.12-.76,1.51,.75,3.24,1.51,4.98,1-1.77,1.31-4.26,.5-6.03-.45,.98-1.1,2.34-1.68,3.75-1.92,1.53,.3,2.85,.98,4.19,1.72h0Z">
</path>
<path d="M36.9,38.52l.12,1.55-.02-.19,1.25,3.3c.43,1.11,.86,2.24,1.35,3.31,.06,.73-.07,1.5-.4,2.17-.14,.31-.4,.65-.64,.93l-.33-.22-1.26-.85,.57-.03c-.2,.19-2.34,2.09-2.47,2.22,0,0-.33-.29-.33-.29l-2.18-1.9,.61,.03c-.25,.17-1.38,.96-1.61,1.12-.79-.84-1.18-1.96-1.11-3.09,.79-1.91,1.94-4.7,2.69-6.68-.06,.76,.1-1.45,.09-1.37,0,0,.61,1.43,.61,1.43,.05,.08,0,.1-.02,.19-.68,1.71-1.96,5.42-2.56,6.45,0,.75,.27,1.54,.73,2.11l-.63-.07c.24-.18,1.32-.97,1.54-1.13,.09,.07,2.31,2.01,2.48,2.16,0,0-.66,0-.66,0l2.19-1.87,.29-.24,.29,.22,1.21,.91-.56,.06c.49-.58,.77-1.38,.78-2.14,0,0,.03,.13,.03,.13-.87-1.89-1.89-4.63-2.66-6.58,0,0-.05-.12-.05-.12l.03-.07,.6-1.44h0Z">
</path>
<path d="M35.37,53.69h1.66c.85,0,3.73,1.18,3.73,1.18,0,0-2.34-2.62-3.29-2.91s-2.27-.25-2.27-.25h-.34s-1.32-.05-2.27,.25-3.29,2.91-3.29,2.91c0,0,2.88-1.18,3.73-1.18h2.34Z">
</path>
<path d="M38.27,54.81c-.85,2.07-5.77,2.08-6.61,0,1.08,.6,2.11,.54,3.31,.52,1.2,.02,2.23,.08,3.31-.52h0Z">
</path>
</g>
<path class="cls-7" d="M47.81,55.37l.68,7.89s-3.7,6.26-12.64,6.26h-1.39c-8.95,0-12.64-6.26-12.64-6.26l.54-6.89">
</path>
<path class="cls-7" d="M22.13,58.3s1,4.45,10.48,7.17c1.26,2.38,2.09,4.08,2.09,4.08">
</path>
<path class="cls-7" d="M48.05,58.38s-.83,4.37-10.3,7.1c-1.26,2.38-2.09,4.08-2.09,4.08">
</path>
</g>
<path class="cls-13" d="M22.97,58.21c.02,.73-.07,1.43-.14,2.14-3.98,2.11-8.33,3.6-12.86,3.84,0,0-.03-.1-.03-.1,3.65-1.25,8.77-2.98,12.39-4.12-.16,.27,.57-1.82,.54-1.78,0,0,.11,.03,.11,.03h0Z">
</path>
</g>
</g>
 <g
     id="g2850">
    <g
       id="g2837">
      <path
         id="path1951"
         d="M 0.056640625 0.04296875 L 0.056640625 79.943359 L 69.308594 79.943359 L 69.308594 0.04296875 L 0.056640625 0.04296875 z M 33.615234 3.5957031 C 34.206332 3.5957038 34.786991 3.6051034 35.421875 3.6152344 C 44.430653 3.7671809 53.471255 5.1336733 61.560547 7.5546875 L 62.064453 7.7070312 L 62.25 8.1640625 C 66.070247 17.605006 66.990234 28.726438 66.990234 40.0625 C 66.990234 51.398562 65.972723 63.025755 61.988281 72.578125 L 61.791016 73.044922 L 61.275391 73.185547 C 53.273669 75.403966 44.691921 76.529297 35.759766 76.529297 C 35.212453 76.529297 34.675812 76.519896 34.150391 76.509766 L 33.943359 76.509766 C 24.901742 76.357819 15.860367 74.989738 7.7929688 72.558594 L 7.2890625 72.40625 L 7.1035156 71.951172 C 3.2942144 62.520359 2.375 51.369168 2.375 40.0625 C 2.375 28.755832 3.3819737 17.127318 7.3554688 7.5546875 L 7.5527344 7.0898438 L 8.0664062 6.9472656 C 15.509867 4.890923 23.785212 3.7371557 32.005859 3.6054688 C 32.542226 3.5953387 33.078867 3.5957031 33.615234 3.5957031 z "
         style="opacity:1;vector-effect:none;fill:#ffffff;fill-opacity:1;fill-rule:nonzero;stroke:none;stroke-width:1.95200002;stroke-linecap:butt;stroke-linejoin:miter;stroke-miterlimit:4;stroke-dasharray:none;stroke-dashoffset:0;stroke-opacity:1" />
    </g>
    <path
       id="path1154-8-2"
       d="m 33.675163,6.6112954 c 0.557696,0 1.115392,0.00956 1.683415,0.019115 8.427403,0.14336 16.803167,1.4049288 24.363042,3.6700176 3.573384,8.830981 4.443772,19.417362 4.443772,29.761551 0,10.344189 -0.95301,21.39888 -4.68131,30.334991 -7.435942,2.064385 -15.429581,3.274388 -23.774362,3.274388 -0.506058,0 -1.012115,-0.0096 -1.518172,-0.01911 h -0.17557 C 25.56792,73.508883 17.192156,72.088619 9.6426089,69.813973 6.0795528,61.002107 5.2088244,50.415411 5.2088244,40.061979 c 0,-10.353432 0.95335,-21.389323 4.6609939,-30.325434 C 16.820359,7.8155201 24.462856,6.7450981 32.177647,6.6208528 c 0.49573,-0.00956 1.001787,-0.00956 1.497516,-0.00956 m 0,-0.9557337 c -0.506057,0 -1.012114,0 -1.518171,0.00956 C 24.40089,5.7893644 16.593149,6.8789009 9.570315,8.8190405 L 9.0849131,8.9528432 8.8990146,9.3924808 C 5.1500599,18.424166 4.1999116,29.394246 4.1999116,40.061979 c 0,10.667733 0.8675267,21.188618 4.461566,30.0865 l 0.1755708,0.430081 0.4750741,0.14336 c 7.6115135,2.293761 16.1421925,3.584001 24.6728715,3.727361 h 0.196227 c 0.495729,0.0096 1.001786,0.01911 1.518171,0.01911 8.427403,0 16.524318,-1.060864 24.073866,-3.153921 l 0.485403,-0.133802 0.185898,-0.439639 c 3.759282,-9.01257 4.719759,-19.983589 4.719759,-30.679055 0,-10.695466 -0.867528,-21.188618 -4.471894,-30.0960578 L 60.516853,9.5358409 60.041779,9.3924808 C 52.409609,7.108277 43.87893,5.8180364 35.379234,5.6746763 34.780227,5.6651187 34.232859,5.6555621 33.675163,5.6555615 Z"
       style="fill:#ff0000;stroke:#ffffff;stroke-width:1.84341729;stroke-miterlimit:4;stroke-dasharray:none" />
    <path
       id="path1154"
       d="m 33.614853,4.6077955 c 0.591098,0 1.182197,0.01013 1.784241,0.02026 8.932155,0.1519464 17.809578,1.4890758 25.822246,3.8898304 3.787408,9.3599041 4.709928,20.5803481 4.709928,31.5440931 0,10.963745 -1.01009,22.680548 -4.961693,32.151879 -7.881312,2.18803 -16.353723,3.302304 -25.198307,3.302304 -0.536368,0 -1.072735,-0.01013 -1.609102,-0.02026 H 33.97608 C 25.022033,75.343956 16.14461,74.006827 8.1428892,71.595943 4.3664269,62.256298 3.443547,51.035521 3.443547,40.061979 c 0,-10.973542 1.01045,-22.670418 4.9401601,-32.1417498 7.3668369,-2.036083 15.4670749,-3.170617 23.6439369,-3.3023039 0.525421,-0.01013 1.061788,-0.01013 1.587209,-0.01013 m 0,-1.0129766 c -0.536367,0 -1.072734,0 -1.609101,0.01013 C 23.785105,3.7366356 15.509726,4.891429 8.0662653,6.9477716 L 7.5517907,7.0895883 7.3547579,7.5555576 C 3.3812628,17.128188 2.3742062,28.755311 2.3742062,40.061979 c 0,11.306668 0.9194864,22.457692 4.7287876,31.888505 l 0.1860865,0.45584 0.5035283,0.151947 c 8.0673984,2.431144 17.1090154,3.798662 26.1506324,3.950608 h 0.207979 c 0.525421,0.01013 1.061788,0.02026 1.609101,0.02026 8.932155,0 17.514028,-1.124404 25.51575,-3.342823 l 0.514475,-0.141816 0.197032,-0.46597 c 3.984442,-9.55237 5.002445,-21.180489 5.002445,-32.516551 0,-11.336062 -0.919487,-22.457692 -4.739734,-31.8986353 L 62.064202,7.7075041 61.560674,7.5555576 C 53.471382,5.1345434 44.429765,3.7670249 35.420987,3.6150784 c -0.634884,-0.01013 -1.215036,-0.020259 -1.806134,-0.02026 z"
       style="fill:#000000;stroke:#000000;stroke-width:1.95382714;stroke-miterlimit:4;stroke-dasharray:none" />
    <g
       id="g1810">
      <path
         d="M 6.5134911,7.7433673 C 5.6489029,6.8479453 4.058602,6.5681013 3.6272194,7.3820013 3.284151,8.0292783 3.3625296,8.5309135 4.395235,8.9201755 3.2963719,9.5187755 1.4857674,9.4447465 1.1893447,7.4467713 0.95320848,5.8551433 2.674739,4.8863543 3.1399725,5.0916244 3.0034432,3.6818714 1.8221094,4.0692802 0.95849208,3.2813384 0.34259068,2.7194046 0.23126071,-0.02624603 0.0561761,0.04378767 -0.0138576,0.21887227 2.7317937,0.33020157 3.2937267,0.94610377 4.0816685,1.8097211 3.6942598,2.9910547 5.1040128,3.1275841 4.8987425,2.6623507 5.8675315,0.94082017 7.4591593,1.1769564 9.4571345,1.4733791 9.5311625,3.2839847 8.9325635,4.3828467 8.5433008,3.3501417 8.041666,3.2717627 7.3943894,3.6148312 6.5804899,4.0462137 6.8603354,5.6365129 7.7557553,6.5011023"
         style="fill:#000000;stroke:#000000;stroke-width:0.1112323px;stroke-linecap:butt;stroke-linejoin:miter;stroke-opacity:1"
         id="path1737-3" />
      <path
         d="m 62.850738,7.7433673 c 0.864588,-0.895422 2.454889,-1.175266 2.886271,-0.361366 0.343069,0.647277 0.26469,1.148912 -0.768015,1.538174 1.098863,0.5986 2.909467,0.524571 3.20589,-1.473404 0.236136,-1.591628 -1.485394,-2.560417 -1.950628,-2.3551469 0.13653,-1.409753 1.317863,-1.0223442 2.181481,-1.810286 0.615901,-0.5619338 0.727231,-3.30758442 0.902316,-3.23755072 0.07003,0.1750846 -2.675618,0.2864139 -3.237551,0.9023161 C 65.28256,1.8097211 65.669969,2.9910547 64.260216,3.1275841 64.465486,2.6623507 63.496697,0.94082018 61.905069,1.1769564 c -1.997975,0.2964227 -2.072003,2.1070283 -1.473404,3.2058903 0.389263,-1.032705 0.890898,-1.111084 1.538174,-0.7680155 0.8139,0.4313825 0.534054,2.0216817 -0.361366,2.8862711"
         style="fill:#000000;stroke:#000000;stroke-width:0.1112323px;stroke-linecap:butt;stroke-linejoin:miter;stroke-opacity:1"
         id="path1737-3-5" />
      <path
         d="m 62.850738,72.244244 c 0.864588,0.895422 2.454889,1.175266 2.886272,0.361366 0.343068,-0.647277 0.264689,-1.148912 -0.768016,-1.538174 1.098863,-0.5986 2.909468,-0.524571 3.20589,1.473404 0.236137,1.591628 -1.485394,2.560417 -1.950628,2.355147 0.13653,1.409753 1.317864,1.022344 2.181481,1.810286 0.615901,0.561934 0.727231,3.307584 0.902316,3.237551 0.07003,-0.175085 -2.675618,-0.286414 -3.237551,-0.902317 -0.787942,-0.863617 -0.400533,-2.04495 -1.810286,-2.18148 0.20527,0.465234 -0.763519,2.186764 -2.355146,1.950628 -1.997976,-0.296423 -2.072004,-2.107028 -1.473405,-3.20589 0.389263,1.032705 0.890898,1.111084 1.538175,0.768015 0.813899,-0.431382 0.534054,-2.021682 -0.361366,-2.886271"
         style="fill:#000000;stroke:#000000;stroke-width:0.1112323px;stroke-linecap:butt;stroke-linejoin:miter;stroke-opacity:1"
         id="path1737-3-7" />
      <path
         d="M 6.513491,72.244245 C 5.648903,73.139667 4.058602,73.419511 3.62722,72.605611 3.284151,71.958334 3.36253,71.456699 4.395235,71.067437 c -1.098863,-0.5986 -2.909467,-0.524571 -3.20589,1.473404 -0.23613599,1.591628 1.485394,2.560417 1.950628,2.355147 -0.13653,1.409753 -1.317863,1.022344 -2.18148099,1.810286 -0.615901,0.561933 -0.727231,3.307584 -0.902316,3.23755 C -0.01385399,79.76874 2.731794,79.65741 3.293727,79.041508 4.081669,78.177891 3.69426,76.996557 5.104013,76.860028 4.898743,77.325261 5.867532,79.046792 7.45916,78.810656 9.457135,78.514233 9.531163,76.703627 8.932564,75.604765 8.543301,76.63747 8.041666,76.715849 7.39439,76.372781 6.58049,75.941398 6.860336,74.351099 7.755756,73.48651"
         style="fill:#000000;stroke:#000000;stroke-width:0.1112323px;stroke-linecap:butt;stroke-linejoin:miter;stroke-opacity:1"
         id="path1737-3-5-5" />
    </g>
    <path
       id="path1154-9"
       d="m 33.712865,7.4258691 c 0.536813,0 1.07363,0.00933 1.620386,0.01865 8.111875,0.1398689 16.174044,1.3707167 23.450873,3.5806479 3.439594,8.615932 4.277395,18.944521 4.277395,29.036812 0,10.092292 -0.917329,20.877786 -4.506039,29.596289 -7.157536,2.014114 -14.851888,3.03982 -22.884234,3.03982 -0.487111,0 -0.974221,-0.0094 -1.461331,-0.01865 H 34.040918 C 25.909161,72.53957 17.846991,71.308722 10.580105,69.089467 7.1504515,60.492184 6.3123238,50.163289 6.3123238,40.061979 c 0,-10.101311 0.9176558,-20.868461 4.4864832,-29.586965 6.690308,-1.8742449 14.046665,-2.9186005 21.472608,-3.0398203 0.47717,-0.00933 0.964281,-0.00933 1.44145,-0.00933 m 0,-0.9324602 c -0.487111,0 -0.974221,0 -1.46133,0.00933 C 24.785826,6.6239532 17.270413,7.686958 10.510517,9.5798526 L 10.043289,9.710397 9.8643508,10.139328 c -3.6085914,8.811751 -4.5231655,19.514693 -4.5231655,29.922651 0,10.407958 0.8350459,20.672644 4.294522,29.353849 l 0.1689973,0.419608 0.4572874,0.13987 c 7.326533,2.237904 15.537818,3.496724 23.749103,3.636593 h 0.188879 c 0.47717,0.0094 0.96428,0.01865 1.461331,0.01865 8.111875,0 15.905636,-1.035031 23.172525,-3.077119 l 0.467228,-0.130544 0.178938,-0.428932 c 3.618533,-8.793101 4.543048,-19.496959 4.543048,-29.931975 0,-10.435016 -0.835047,-20.672644 -4.304463,-29.363174 l -0.168997,-0.419609 -0.457288,-0.13987 C 51.74588,7.9107484 43.534594,6.6519271 35.353133,6.512058 34.776554,6.502738 34.249678,6.493409 33.712865,6.493409 Z"
       style="fill:#000000;stroke:none;stroke-width:1.78642213;stroke-miterlimit:4;stroke-dasharray:none" />
    <path
       id="path1154-9-3"
       d="m 33.712865,7.4258686 c 0.536813,0 1.07363,0.00933 1.620386,0.01865 8.111875,0.1398689 16.174044,1.3707167 23.450873,3.5806484 3.439594,8.615932 4.277395,18.944521 4.277395,29.036812 0,10.092292 -0.917329,20.877786 -4.506039,29.596288 -7.157536,2.014114 -14.851888,3.03982 -22.884234,3.03982 -0.487111,0 -0.974221,-0.0094 -1.461331,-0.01865 H 34.040918 C 25.909161,72.539569 17.846991,71.308722 10.580105,69.089466 7.1504515,60.492184 6.3123238,50.163288 6.3123238,40.061979 c 0,-10.101312 0.9176558,-20.868461 4.4864832,-29.586965 6.690308,-1.8742454 14.046665,-2.918601 21.472608,-3.0398208 0.47717,-0.00933 0.964281,-0.00933 1.44145,-0.00933 m 0,-0.9324602 c -0.487111,0 -0.974221,0 -1.46133,0.00933 C 24.785826,6.6239527 17.270413,7.6869575 10.510517,9.5798521 L 10.043289,9.7103965 9.8643508,10.139328 C 6.2557594,18.951079 5.3411853,29.65402 5.3411853,40.061979 c 0,10.407958 0.8350459,20.672643 4.294522,29.353849 l 0.1689973,0.419608 0.4572874,0.13987 c 7.326533,2.237904 15.537818,3.496724 23.749103,3.636593 h 0.188879 c 0.47717,0.0094 0.96428,0.01865 1.461331,0.01865 8.111875,0 15.905636,-1.035032 23.172525,-3.077119 l 0.467228,-0.130544 0.178938,-0.428932 c 3.618533,-8.793101 4.543048,-19.49696 4.543048,-29.931975 0,-10.435016 -0.835047,-20.672644 -4.304463,-29.363175 l -0.168997,-0.419609 -0.457288,-0.13987 C 51.74588,7.9107479 43.534594,6.6519266 35.353133,6.5120575 34.776554,6.5027375 34.249678,6.4934085 33.712865,6.4934085 Z"
       style="fill:#000000;stroke:none;stroke-width:1.78642213;stroke-miterlimit:4;stroke-dasharray:none" />
  </g>
</svg>
