<svg id="Capa_2" xmlns="http://www.w3.org/2000/svg" xmlns:xlink="http://www.w3.org/1999/xlink" viewBox="0 0 69.02 80">
<defs >
<style >
.cls-1{fill:#c89aed;}.cls-2{fill:#fff;}.cls-3{fill:#f8ffbf;}.cls-4{fill:#7b7be8;}.cls-5{fill:#a88347;}.cls-6{fill:#782ab5;}.cls-7,.cls-8,.cls-9,.cls-10,.cls-11,.cls-12{fill:none;}.cls-7,.cls-11,.cls-12{stroke-miterlimit:10;}.cls-7,.cls-12{stroke:#000;}.cls-13{fill:#1c46ff;}.cls-8{stroke:#deb778;stroke-dasharray:0 0 0 4.06;stroke-linecap:round;stroke-linejoin:round;}.cls-14{fill:#deb778;}.cls-15{fill:url(#USGS_19_Inundación_de_tierra_2);}.cls-10{stroke:#1d1d1b;stroke-dasharray:0 0 2 2;stroke-width:.3px;}.cls-16{fill:#cf5f2b;}.cls-11{stroke:#c89aed;stroke-width:1.3px;}.cls-17{fill:#fcf0c5;}.cls-12{stroke-width:.5px;}.cls-18{fill:#b83521;}
</style>
<pattern id="USGS_19_Inundación_de_tierra_2" x="0" y="0" width="72" height="72" patternTransform="translate(123.52 -16423) rotate(-90)" patternUnits="userSpaceOnUse" viewBox="0 0 72 72">
<g >
<rect class="cls-9" width="72" height="72">
</rect>
<g >
<line class="cls-10" x1="71" y1="71" x2="144.44" y2="71">
</line>
<line class="cls-10" x1="71" y1="67" x2="144.44" y2="67">
</line>
<line class="cls-10" x1="71" y1="63" x2="144.44" y2="63">
</line>
<line class="cls-10" x1="71" y1="59" x2="144.44" y2="59">
</line>
<line class="cls-10" x1="71" y1="55" x2="144.44" y2="55">
</line>
<line class="cls-10" x1="71" y1="51" x2="144.44" y2="51">
</line>
<line class="cls-10" x1="71" y1="47" x2="144.44" y2="47">
</line>
<line class="cls-10" x1="71" y1="43" x2="144.44" y2="43">
</line>
<line class="cls-10" x1="71" y1="39" x2="144.44" y2="39">
</line>
<line class="cls-10" x1="71" y1="35" x2="144.44" y2="35">
</line>
<line class="cls-10" x1="71" y1="31" x2="144.44" y2="31">
</line>
<line class="cls-10" x1="71" y1="27" x2="144.44" y2="27">
</line>
<line class="cls-10" x1="71" y1="23" x2="144.44" y2="23">
</line>
<line class="cls-10" x1="71" y1="19" x2="144.44" y2="19">
</line>
<line class="cls-10" x1="71" y1="15" x2="144.44" y2="15">
</line>
<line class="cls-10" x1="71" y1="11" x2="144.44" y2="11">
</line>
<line class="cls-10" x1="71" y1="7" x2="144.44" y2="7">
</line>
<line class="cls-10" x1="71" y1="3" x2="144.44" y2="3">
</line>
</g>
<g >
<line class="cls-10" x1="-1" y1="71" x2="72.44" y2="71">
</line>
<line class="cls-10" x1="-1" y1="67" x2="72.44" y2="67">
</line>
<line class="cls-10" x1="-1" y1="63" x2="72.44" y2="63">
</line>
<line class="cls-10" x1="-1" y1="59" x2="72.44" y2="59">
</line>
<line class="cls-10" x1="-1" y1="55" x2="72.44" y2="55">
</line>
<line class="cls-10" x1="-1" y1="51" x2="72.44" y2="51">
</line>
<line class="cls-10" x1="-1" y1="47" x2="72.44" y2="47">
</line>
<line class="cls-10" x1="-1" y1="43" x2="72.44" y2="43">
</line>
<line class="cls-10" x1="-1" y1="39" x2="72.44" y2="39">
</line>
<line class="cls-10" x1="-1" y1="35" x2="72.44" y2="35">
</line>
<line class="cls-10" x1="-1" y1="31" x2="72.44" y2="31">
</line>
<line class="cls-10" x1="-1" y1="27" x2="72.44" y2="27">
</line>
<line class="cls-10" x1="-1" y1="23" x2="72.44" y2="23">
</line>
<line class="cls-10" x1="-1" y1="19" x2="72.44" y2="19">
</line>
<line class="cls-10" x1="-1" y1="15" x2="72.44" y2="15">
</line>
<line class="cls-10" x1="-1" y1="11" x2="72.44" y2="11">
</line>
<line class="cls-10" x1="-1" y1="7" x2="72.44" y2="7">
</line>
<line class="cls-10" x1="-1" y1="3" x2="72.44" y2="3">
</line>
<line class="cls-10" x1="1.04" y1="69" x2="74.48" y2="69">
</line>
<line class="cls-10" x1="1.04" y1="65" x2="74.48" y2="65">
</line>
<line class="cls-10" x1="1.04" y1="61" x2="74.48" y2="61">
</line>
<line class="cls-10" x1="1.04" y1="57" x2="74.48" y2="57">
</line>
<line class="cls-10" x1="1.04" y1="53" x2="74.48" y2="53">
</line>
<line class="cls-10" x1="1.04" y1="49" x2="74.48" y2="49">
</line>
<line class="cls-10" x1="1.04" y1="45" x2="74.48" y2="45">
</line>
<line class="cls-10" x1="1.04" y1="41" x2="74.48" y2="41">
</line>
<line class="cls-10" x1="1.04" y1="37" x2="74.48" y2="37">
</line>
<line class="cls-10" x1="1.04" y1="33" x2="74.48" y2="33">
</line>
<line class="cls-10" x1="1.04" y1="29" x2="74.48" y2="29">
</line>
<line class="cls-10" x1="1.04" y1="25" x2="74.48" y2="25">
</line>
<line class="cls-10" x1="1.04" y1="21" x2="74.48" y2="21">
</line>
<line class="cls-10" x1="1.04" y1="17" x2="74.48" y2="17">
</line>
<line class="cls-10" x1="1.04" y1="13" x2="74.48" y2="13">
</line>
<line class="cls-10" x1="1.04" y1="9" x2="74.48" y2="9">
</line>
<line class="cls-10" x1="1.04" y1="5" x2="74.48" y2="5">
</line>
<line class="cls-10" x1="1.04" y1="1" x2="74.48" y2="1">
</line>
</g>
<g >
<line class="cls-10" x1="-73" y1="71" x2=".44" y2="71">
</line>
<line class="cls-10" x1="-73" y1="67" x2=".44" y2="67">
</line>
<line class="cls-10" x1="-73" y1="63" x2=".44" y2="63">
</line>
<line class="cls-10" x1="-73" y1="59" x2=".44" y2="59">
</line>
<line class="cls-10" x1="-73" y1="55" x2=".44" y2="55">
</line>
<line class="cls-10" x1="-73" y1="51" x2=".44" y2="51">
</line>
<line class="cls-10" x1="-73" y1="47" x2=".44" y2="47">
</line>
<line class="cls-10" x1="-73" y1="43" x2=".44" y2="43">
</line>
<line class="cls-10" x1="-73" y1="39" x2=".44" y2="39">
</line>
<line class="cls-10" x1="-73" y1="35" x2=".44" y2="35">
</line>
<line class="cls-10" x1="-73" y1="31" x2=".44" y2="31">
</line>
<line class="cls-10" x1="-73" y1="27" x2=".44" y2="27">
</line>
<line class="cls-10" x1="-73" y1="23" x2=".44" y2="23">
</line>
<line class="cls-10" x1="-73" y1="19" x2=".44" y2="19">
</line>
<line class="cls-10" x1="-73" y1="15" x2=".44" y2="15">
</line>
<line class="cls-10" x1="-73" y1="11" x2=".44" y2="11">
</line>
<line class="cls-10" x1="-73" y1="7" x2=".44" y2="7">
</line>
<line class="cls-10" x1="-73" y1="3" x2=".44" y2="3">
</line>
<line class="cls-10" x1="-70.96" y1="69" x2="2.48" y2="69">
</line>
<line class="cls-10" x1="-70.96" y1="65" x2="2.48" y2="65">
</line>
<line class="cls-10" x1="-70.96" y1="61" x2="2.48" y2="61">
</line>
<line class="cls-10" x1="-70.96" y1="57" x2="2.48" y2="57">
</line>
<line class="cls-10" x1="-70.96" y1="53" x2="2.48" y2="53">
</line>
<line class="cls-10" x1="-70.96" y1="49" x2="2.48" y2="49">
</line>
<line class="cls-10" x1="-70.96" y1="45" x2="2.48" y2="45">
</line>
<line class="cls-10" x1="-70.96" y1="41" x2="2.48" y2="41">
</line>
<line class="cls-10" x1="-70.96" y1="37" x2="2.48" y2="37">
</line>
<line class="cls-10" x1="-70.96" y1="33" x2="2.48" y2="33">
</line>
<line class="cls-10" x1="-70.96" y1="29" x2="2.48" y2="29">
</line>
<line class="cls-10" x1="-70.96" y1="25" x2="2.48" y2="25">
</line>
<line class="cls-10" x1="-70.96" y1="21" x2="2.48" y2="21">
</line>
<line class="cls-10" x1="-70.96" y1="17" x2="2.48" y2="17">
</line>
<line class="cls-10" x1="-70.96" y1="13" x2="2.48" y2="13">
</line>
<line class="cls-10" x1="-70.96" y1="9" x2="2.48" y2="9">
</line>
<line class="cls-10" x1="-70.96" y1="5" x2="2.48" y2="5">
</line>
<line class="cls-10" x1="-70.96" y1="1" x2="2.48" y2="1">
</line>
</g>
</g>
</pattern>
</defs>

<g id="Capa_9">
<g >
<g >
<path class="cls-1" d="M21.06,5.43s-4.98,3.28-5.61,8.47,5.08,26.48,5.08,26.48l-2.12-2.12s-1.59,2.12-1.06,6.14,2.75,5.93,4.13,6.25c.85,4.34,1.48,6.89,2.33,7.41-.32,4.77-.53,6.04-.53,6.04l-13.66,4.77,.74,3.5,27.43,4.45,22.67-3.28v-4.45l-13.77-4.77-.42-6.36s1.81-3.4,2.22-7.31c3.39-.42,4.13-6.14,4.34-7.63s-1.06-5.3-1.06-5.3l-2.33,2.44,.95-4.98s4.66-17.8,4.24-20.76-3.18-8.16-4.34-9.11c-6.78-3.5-23.3-2.44-29.24,.11Z">
</path>
<path class="cls-2" d="M34.89,61.52v-25.3c0-3.45,3.17-6.01,6.55-5.32s6.81,2.22,8.35,5.79c-.84,6.04-1.03,12.9-1.29,13.97s-1.48,6.82-2.96,8.13c-3.14,2.62-6.29,5.15-8.03,5.24h0c-1.43,.06-2.62-1.08-2.62-2.51Z">
</path>
<path class="cls-18" d="M19.83,37.73s2.16-5.73,9.39-7.14,16.15,1.31,16.15,1.31c0,0,3.66,3.47,4.41,4.79,2.25-7.42,4.79-19.43,4.79-21.69s-2.25-7.14-4.13-8.45c-3.94-1.97-21.87-5.35-31.17,.38-4.32,4.79-3.76,7.98-3.1,13.24s3.66,17.56,3.66,17.56Z">
</path>
<path class="cls-2" d="M22.93,64.05s2.45,7.9,11.21,7.68,11.57-4.88,12.56-7.4c6.65,2.07,14.34,4.52,14.34,4.52l-.64,5.44-29.14,3.74-21.56-4.7,.96-4.8,12.27-4.48Z">
</path>
<path class="cls-5" d="M32.95,24.61s-5.04,.51-11.71,4.1c-2.99-10.09-2.99-13.68-1.88-17.18s5.81-6.58,10.86-8.12c2.56,.17,2.74,2.48,2.74,2.48V24.61Z">
</path>
<path class="cls-5" d="M36.99,24.84V3.41s10.04,2.25,13.12,6.37c1.8,3.6,1.5,6.6,1.5,6.6l-2.92,12.82s-5.85-4.72-11.69-4.35Z">
</path>
<path class="cls-14" d="M42.65,5.6s-1.51,18.85-1.74,19.88c4.44,1.43,5.86,2.54,5.86,2.54,0,0,1.43-15.21,2.69-18.85-3.01-3.64-6.81-3.56-6.81-3.56Z">
</path>
<path class="cls-17" d="M42.51,25.83l2.35-19.72s2.95,1.07,3.82,2.28c-1.34,3.69-3.22,18.51-3.22,18.51l-2.95-1.07Z">
</path>
<path d="M25.02,5.59s1.2,19.58,2.56,20.43c-3.59,1.28-4.45,1.97-4.45,1.97,0,0-2.14-15.73-3.16-17.61,2.22-3.08,5.04-4.79,5.04-4.79Z">
</path>
<path d="M17.22,9.6s2.63-.73,1.81,2.63c-.73,2.63-.73,6.08-.27,7.8s2.54,9.25,2.54,9.25l3.81-2.27s.09,3.26,.91,4.9c-3.17,.73-6.18,5.82-6.18,5.82,0,0-3.88-18.97-4.16-21.05s0-5.8,1.54-7.07Z">
</path>
<path d="M20.84,40.72l-2.67-2.81s-1.15,2.74-1.01,5.84,2.72,6.48,4.32,6.92c-.93-5.84-.64-9.95-.64-9.95Z">
</path>
<path d="M41.48,62.5l-15.01,13.78-15.94-3.32,.51-4.69,12.25-4.16,.53-6.04s4.1,3.41,5.69,4.71,5.41,.51,5.41,.51c0,0,2.67,1.08,6.57-.79Z">
</path>
<polygon class="cls-4" points="37.24 43.64 36.7 40.89 41.23 38.95 45.28 40.07 47.55 41.98 45.13 45 43.01 46.32 40.46 45.73 37.24 43.64">
</polygon>
<polygon class="cls-4" points="32.57 43.64 33.11 40.89 28.58 38.95 24.53 40.07 22.26 41.98 24.68 45 26.8 46.32 29.35 45.73 32.57 43.64">
</polygon>
<path class="cls-3" d="M37.59,43.65l3.23-.97,3.52,1.04s-2.29,1.1-3.67,1.26c-2.07-.47-3.08-1.32-3.08-1.32Z">
</path>
<path class="cls-3" d="M32.01,43.65l-3.23-.97-3.52,1.04s2.29,1.1,3.67,1.26c2.07-.47,3.08-1.32,3.08-1.32Z">
</path>
<path class="cls-2" d="M35.46,70.24l9.44-9.51,.15,3.58s-1.98,5.56-9.58,5.93Z">
</path>
<path class="cls-2" d="M24.73,46.66c.93,.56,2.59,1.33,4.24,.96,.33-.07,.55,.34,.32,.58-2.67,2.89-4.04,2.52-5.08-1.13-.09-.31,.24-.58,.52-.41Z">
</path>
<path class="cls-11" d="M49.42,37.4c-.38,1.9-.65,3.6-.7,4.93-.07,1.54-.16,3-.28,4.35h-.03c-.36,1.79-1.26,3.6-2.64,4.84-.51,.49-1.14,.83-1.75,1.17-.24,1.45-.49,2.91-.63,4.38,.44-1.27,.95-2.49,1.48-3.72,1.31-.7,2.36-1.76,3.14-3.01-.59,4.01-1.49,6.67-2.6,7.49-.52,.39-1.11,.94-1.74,1.52-2.33,2.15-5.24,4.83-8.39,3.47l-.5-.04-.2,.04c-3.16,1.36-6.06-1.32-8.39-3.47-.63-.58-1.22-1.13-1.75-1.52-1.72-1.28-2.96-7.07-3.3-15.5-.04-1.07-.22-2.38-.49-3.84h.01s-.05-2.18,1.9-4.18c2.3-2.38,6.5-3.64,12.14-3.64,14.15,0,14.69,6.66,14.7,6.73h.02Z">
</path>
<path class="cls-16" d="M40.91,25.48l-.52,5.24s4.55,.94,5.6,2c-.22-2.88,.61-5.16,.61-5.16,0,0-3.73-1.84-5.69-2.08Z">
</path>
<path class="cls-7" d="M48.71,5.8s5,1.76,5.75,9.08c-.13,6.93-5,21.3-5.25,27.48s-1.13,14.12-3.5,15.88-6.25,6.93-10.63,5.04h-.31c-4.38,1.89-8.25-3.28-10.63-5.04s-3.25-9.71-3.5-15.88-5.13-20.54-5.25-27.48c.75-7.31,5.75-9.08,5.75-9.08">
</path>
<path class="cls-7" d="M20.16,38.51s-.33-8.34,14.55-8.34,15.19,7.2,15.19,7.2">
</path>
<path class="cls-7" d="M44.43,5.51s5.78,1.46,7.02,9.3c-.19,6.49-2.66,14.14-2.66,14.14,0,0-5.14-3.62-11.85-4.14V5.11h-3.9V24.81c-6.71,.52-11.85,4.14-11.85,4.14,0,0-2.46-7.65-2.65-14.14,1.23-7.84,7.01-9.3,7.01-9.3">
</path>
<path d="M21.42,46.53c.47,2.54,1.98,5.03,4.37,6.16,.24,1.45,.49,2.91,.63,4.38-.46-1.33-1.01-2.62-1.56-3.92l.26,.31c-2.59-1.3-4.16-3.99-4.69-6.78,0,0,.99-.15,.99-.15h0Z">
</path>
<path d="M49.4,46.83c-.55,2.75-2.16,5.35-4.71,6.62,0,0,.26-.31,.26-.31-.55,1.29-1.1,2.59-1.56,3.92,.14-1.47,.39-2.92,.63-4.38,.61-.34,1.24-.68,1.75-1.17,1.38-1.24,2.28-3.05,2.64-4.84,0,0,.99,.16,.99,.16h0Z">
</path>
<path class="cls-7" d="M20.55,40.91l-2.44-3.03s-1.43,2.57-.83,6.21,2.39,6.53,3.91,6.39">
</path>
<path class="cls-7" d="M49.28,40.91l2.44-3.03s1.43,2.57,.83,6.21-2.39,6.53-3.91,6.39">
</path>
<polyline class="cls-7" points="23.63 57.68 23.31 63.96 8.84 69.04">
</polyline>
<polyline class="cls-7" points="46.33 57.59 46.59 63.96 61.06 69.04">
</polyline>
<path class="cls-7" d="M23.31,63.96s1,7.69,11.38,7.69,11.91-7.69,11.91-7.69">
</path>
<path d="M22.44,41.98s.72-1.92,3.58-3.15,5.54-.72,5.54-.72c0,0,1.75,1.06,1.66,2.81-2.56,0-4.35-1.36-6.52-.89s-2.9,1.92-4.26,1.96Z">
</path>
<path d="M47.41,41.98s-.72-1.92-3.58-3.15-5.54-.72-5.54-.72c0,0-1.75,1.06-1.66,2.81,2.56,0,4.35-1.36,6.52-.89s2.9,1.92,4.26,1.96Z">
</path>
<path class="cls-12" d="M32.28,43.68l-3.24-.98-3.62,.89s2.34,1.28,3.83,1.32c1.96-.34,3.02-1.24,3.02-1.24Z">
</path>
<path d="M24.71,44.8c.81,.72,1.83,1.22,2.85,1.31,1.39-.24,3.55-1.29,4.64-2.65,0,0,.39,.31,.39,.31-1.32,1.5-3.12,2.5-5.07,2.84-1.14-.28-2.1-.97-2.81-1.81h0Z">
</path>
<path class="cls-12" d="M37.73,43.68l3.24-.98,3.62,.89s-2.34,1.28-3.83,1.32c-1.96-.34-3.02-1.24-3.02-1.24Z">
</path>
<path d="M45.3,44.8c-.71,.84-1.66,1.53-2.81,1.81-1.96-.34-3.75-1.34-5.07-2.84,0,0,.39-.31,.39-.31,1.08,1.35,3.25,2.41,4.64,2.65,1.02-.09,2.04-.59,2.85-1.31h0Z">
</path>
<path d="M36.97,46.23c.22,.9,.6,1.77,1.18,2.42,.42,.68,.32,1.63-.29,2.18-.42-.28-1-.24-1.47-.01-.53,.22-1.01,.64-1.44,1.05-.6-.56-1.27-1.13-2.09-1.23-.34-.04-.57,.07-.82,.2-.61-.56-.71-1.51-.28-2.19,.57-.65,.95-1.51,1.17-2.42,0,.47-.07,.93-.19,1.39-.18,.96-1.22,1.66-.39,2.59,0,0-.41-.04-.41-.04,.62-.34,1.25-.25,1.84-.02,.55,.22,1,.56,1.42,.93h-.5c.85-.75,2.1-1.53,3.26-.91,0,0-.4,.04-.4,.04,.38-.32,.34-1.04,.23-1.29-.57-.78-.8-1.75-.81-2.7h0Z">
</path>
<path d="M41.61,54.99c-3.06-.92-4.72-.51-5.66,0-.57,.31-1.25,.3-1.83,0-.95-.49-2.68-.9-5.67,0,0,0,3.13-2.82,6.58-1.19,3.45-1.63,6.58,1.19,6.58,1.19Z">
</path>
<path d="M30.91,55.85c2.58,1.09,5.72,.68,8.2,.15-1.85,2-6.71,2.15-8.2-.15h0Z">
</path>
</g>
<path class="cls-13" d="M23.6,60.88c.21,1.26,.27,2.53,.27,3.8-3.78,1.93-7.83,3.4-12.08,3.78,0,0-.04-.1-.04-.1,3.25-1.18,8.33-3.22,11.32-4.13,0,0,.43-3.36,.43-3.36,0,0,.11,.01,.11,.01h0Z">
</path>
</g>
</g>
 <g
     id="g2850">
    <g
       id="g2837">
      <path
         id="path1951"
         d="M 0.056640625 0.04296875 L 0.056640625 79.943359 L 69.308594 79.943359 L 69.308594 0.04296875 L 0.056640625 0.04296875 z M 33.615234 3.5957031 C 34.206332 3.5957038 34.786991 3.6051034 35.421875 3.6152344 C 44.430653 3.7671809 53.471255 5.1336733 61.560547 7.5546875 L 62.064453 7.7070312 L 62.25 8.1640625 C 66.070247 17.605006 66.990234 28.726438 66.990234 40.0625 C 66.990234 51.398562 65.972723 63.025755 61.988281 72.578125 L 61.791016 73.044922 L 61.275391 73.185547 C 53.273669 75.403966 44.691921 76.529297 35.759766 76.529297 C 35.212453 76.529297 34.675812 76.519896 34.150391 76.509766 L 33.943359 76.509766 C 24.901742 76.357819 15.860367 74.989738 7.7929688 72.558594 L 7.2890625 72.40625 L 7.1035156 71.951172 C 3.2942144 62.520359 2.375 51.369168 2.375 40.0625 C 2.375 28.755832 3.3819737 17.127318 7.3554688 7.5546875 L 7.5527344 7.0898438 L 8.0664062 6.9472656 C 15.509867 4.890923 23.785212 3.7371557 32.005859 3.6054688 C 32.542226 3.5953387 33.078867 3.5957031 33.615234 3.5957031 z "
         style="opacity:1;vector-effect:none;fill:#ffffff;fill-opacity:1;fill-rule:nonzero;stroke:none;stroke-width:1.95200002;stroke-linecap:butt;stroke-linejoin:miter;stroke-miterlimit:4;stroke-dasharray:none;stroke-dashoffset:0;stroke-opacity:1" />
    </g>
    <path
       id="path1154-8-2"
       d="m 33.675163,6.6112954 c 0.557696,0 1.115392,0.00956 1.683415,0.019115 8.427403,0.14336 16.803167,1.4049288 24.363042,3.6700176 3.573384,8.830981 4.443772,19.417362 4.443772,29.761551 0,10.344189 -0.95301,21.39888 -4.68131,30.334991 -7.435942,2.064385 -15.429581,3.274388 -23.774362,3.274388 -0.506058,0 -1.012115,-0.0096 -1.518172,-0.01911 h -0.17557 C 25.56792,73.508883 17.192156,72.088619 9.6426089,69.813973 6.0795528,61.002107 5.2088244,50.415411 5.2088244,40.061979 c 0,-10.353432 0.95335,-21.389323 4.6609939,-30.325434 C 16.820359,7.8155201 24.462856,6.7450981 32.177647,6.6208528 c 0.49573,-0.00956 1.001787,-0.00956 1.497516,-0.00956 m 0,-0.9557337 c -0.506057,0 -1.012114,0 -1.518171,0.00956 C 24.40089,5.7893644 16.593149,6.8789009 9.570315,8.8190405 L 9.0849131,8.9528432 8.8990146,9.3924808 C 5.1500599,18.424166 4.1999116,29.394246 4.1999116,40.061979 c 0,10.667733 0.8675267,21.188618 4.461566,30.0865 l 0.1755708,0.430081 0.4750741,0.14336 c 7.6115135,2.293761 16.1421925,3.584001 24.6728715,3.727361 h 0.196227 c 0.495729,0.0096 1.001786,0.01911 1.518171,0.01911 8.427403,0 16.524318,-1.060864 24.073866,-3.153921 l 0.485403,-0.133802 0.185898,-0.439639 c 3.759282,-9.01257 4.719759,-19.983589 4.719759,-30.679055 0,-10.695466 -0.867528,-21.188618 -4.471894,-30.0960578 L 60.516853,9.5358409 60.041779,9.3924808 C 52.409609,7.108277 43.87893,5.8180364 35.379234,5.6746763 34.780227,5.6651187 34.232859,5.6555621 33.675163,5.6555615 Z"
       style="fill:#ff0000;stroke:#ffffff;stroke-width:1.84341729;stroke-miterlimit:4;stroke-dasharray:none" />
    <path
       id="path1154"
       d="m 33.614853,4.6077955 c 0.591098,0 1.182197,0.01013 1.784241,0.02026 8.932155,0.1519464 17.809578,1.4890758 25.822246,3.8898304 3.787408,9.3599041 4.709928,20.5803481 4.709928,31.5440931 0,10.963745 -1.01009,22.680548 -4.961693,32.151879 -7.881312,2.18803 -16.353723,3.302304 -25.198307,3.302304 -0.536368,0 -1.072735,-0.01013 -1.609102,-0.02026 H 33.97608 C 25.022033,75.343956 16.14461,74.006827 8.1428892,71.595943 4.3664269,62.256298 3.443547,51.035521 3.443547,40.061979 c 0,-10.973542 1.01045,-22.670418 4.9401601,-32.1417498 7.3668369,-2.036083 15.4670749,-3.170617 23.6439369,-3.3023039 0.525421,-0.01013 1.061788,-0.01013 1.587209,-0.01013 m 0,-1.0129766 c -0.536367,0 -1.072734,0 -1.609101,0.01013 C 23.785105,3.7366356 15.509726,4.891429 8.0662653,6.9477716 L 7.5517907,7.0895883 7.3547579,7.5555576 C 3.3812628,17.128188 2.3742062,28.755311 2.3742062,40.061979 c 0,11.306668 0.9194864,22.457692 4.7287876,31.888505 l 0.1860865,0.45584 0.5035283,0.151947 c 8.0673984,2.431144 17.1090154,3.798662 26.1506324,3.950608 h 0.207979 c 0.525421,0.01013 1.061788,0.02026 1.609101,0.02026 8.932155,0 17.514028,-1.124404 25.51575,-3.342823 l 0.514475,-0.141816 0.197032,-0.46597 c 3.984442,-9.55237 5.002445,-21.180489 5.002445,-32.516551 0,-11.336062 -0.919487,-22.457692 -4.739734,-31.8986353 L 62.064202,7.7075041 61.560674,7.5555576 C 53.471382,5.1345434 44.429765,3.7670249 35.420987,3.6150784 c -0.634884,-0.01013 -1.215036,-0.020259 -1.806134,-0.02026 z"
       style="fill:#000000;stroke:#000000;stroke-width:1.95382714;stroke-miterlimit:4;stroke-dasharray:none" />
    <g
       id="g1810">
      <path
         d="M 6.5134911,7.7433673 C 5.6489029,6.8479453 4.058602,6.5681013 3.6272194,7.3820013 3.284151,8.0292783 3.3625296,8.5309135 4.395235,8.9201755 3.2963719,9.5187755 1.4857674,9.4447465 1.1893447,7.4467713 0.95320848,5.8551433 2.674739,4.8863543 3.1399725,5.0916244 3.0034432,3.6818714 1.8221094,4.0692802 0.95849208,3.2813384 0.34259068,2.7194046 0.23126071,-0.02624603 0.0561761,0.04378767 -0.0138576,0.21887227 2.7317937,0.33020157 3.2937267,0.94610377 4.0816685,1.8097211 3.6942598,2.9910547 5.1040128,3.1275841 4.8987425,2.6623507 5.8675315,0.94082017 7.4591593,1.1769564 9.4571345,1.4733791 9.5311625,3.2839847 8.9325635,4.3828467 8.5433008,3.3501417 8.041666,3.2717627 7.3943894,3.6148312 6.5804899,4.0462137 6.8603354,5.6365129 7.7557553,6.5011023"
         style="fill:#000000;stroke:#000000;stroke-width:0.1112323px;stroke-linecap:butt;stroke-linejoin:miter;stroke-opacity:1"
         id="path1737-3" />
      <path
         d="m 62.850738,7.7433673 c 0.864588,-0.895422 2.454889,-1.175266 2.886271,-0.361366 0.343069,0.647277 0.26469,1.148912 -0.768015,1.538174 1.098863,0.5986 2.909467,0.524571 3.20589,-1.473404 0.236136,-1.591628 -1.485394,-2.560417 -1.950628,-2.3551469 0.13653,-1.409753 1.317863,-1.0223442 2.181481,-1.810286 0.615901,-0.5619338 0.727231,-3.30758442 0.902316,-3.23755072 0.07003,0.1750846 -2.675618,0.2864139 -3.237551,0.9023161 C 65.28256,1.8097211 65.669969,2.9910547 64.260216,3.1275841 64.465486,2.6623507 63.496697,0.94082018 61.905069,1.1769564 c -1.997975,0.2964227 -2.072003,2.1070283 -1.473404,3.2058903 0.389263,-1.032705 0.890898,-1.111084 1.538174,-0.7680155 0.8139,0.4313825 0.534054,2.0216817 -0.361366,2.8862711"
         style="fill:#000000;stroke:#000000;stroke-width:0.1112323px;stroke-linecap:butt;stroke-linejoin:miter;stroke-opacity:1"
         id="path1737-3-5" />
      <path
         d="m 62.850738,72.244244 c 0.864588,0.895422 2.454889,1.175266 2.886272,0.361366 0.343068,-0.647277 0.264689,-1.148912 -0.768016,-1.538174 1.098863,-0.5986 2.909468,-0.524571 3.20589,1.473404 0.236137,1.591628 -1.485394,2.560417 -1.950628,2.355147 0.13653,1.409753 1.317864,1.022344 2.181481,1.810286 0.615901,0.561934 0.727231,3.307584 0.902316,3.237551 0.07003,-0.175085 -2.675618,-0.286414 -3.237551,-0.902317 -0.787942,-0.863617 -0.400533,-2.04495 -1.810286,-2.18148 0.20527,0.465234 -0.763519,2.186764 -2.355146,1.950628 -1.997976,-0.296423 -2.072004,-2.107028 -1.473405,-3.20589 0.389263,1.032705 0.890898,1.111084 1.538175,0.768015 0.813899,-0.431382 0.534054,-2.021682 -0.361366,-2.886271"
         style="fill:#000000;stroke:#000000;stroke-width:0.1112323px;stroke-linecap:butt;stroke-linejoin:miter;stroke-opacity:1"
         id="path1737-3-7" />
      <path
         d="M 6.513491,72.244245 C 5.648903,73.139667 4.058602,73.419511 3.62722,72.605611 3.284151,71.958334 3.36253,71.456699 4.395235,71.067437 c -1.098863,-0.5986 -2.909467,-0.524571 -3.20589,1.473404 -0.23613599,1.591628 1.485394,2.560417 1.950628,2.355147 -0.13653,1.409753 -1.317863,1.022344 -2.18148099,1.810286 -0.615901,0.561933 -0.727231,3.307584 -0.902316,3.23755 C -0.01385399,79.76874 2.731794,79.65741 3.293727,79.041508 4.081669,78.177891 3.69426,76.996557 5.104013,76.860028 4.898743,77.325261 5.867532,79.046792 7.45916,78.810656 9.457135,78.514233 9.531163,76.703627 8.932564,75.604765 8.543301,76.63747 8.041666,76.715849 7.39439,76.372781 6.58049,75.941398 6.860336,74.351099 7.755756,73.48651"
         style="fill:#000000;stroke:#000000;stroke-width:0.1112323px;stroke-linecap:butt;stroke-linejoin:miter;stroke-opacity:1"
         id="path1737-3-5-5" />
    </g>
    <path
       id="path1154-9"
       d="m 33.712865,7.4258691 c 0.536813,0 1.07363,0.00933 1.620386,0.01865 8.111875,0.1398689 16.174044,1.3707167 23.450873,3.5806479 3.439594,8.615932 4.277395,18.944521 4.277395,29.036812 0,10.092292 -0.917329,20.877786 -4.506039,29.596289 -7.157536,2.014114 -14.851888,3.03982 -22.884234,3.03982 -0.487111,0 -0.974221,-0.0094 -1.461331,-0.01865 H 34.040918 C 25.909161,72.53957 17.846991,71.308722 10.580105,69.089467 7.1504515,60.492184 6.3123238,50.163289 6.3123238,40.061979 c 0,-10.101311 0.9176558,-20.868461 4.4864832,-29.586965 6.690308,-1.8742449 14.046665,-2.9186005 21.472608,-3.0398203 0.47717,-0.00933 0.964281,-0.00933 1.44145,-0.00933 m 0,-0.9324602 c -0.487111,0 -0.974221,0 -1.46133,0.00933 C 24.785826,6.6239532 17.270413,7.686958 10.510517,9.5798526 L 10.043289,9.710397 9.8643508,10.139328 c -3.6085914,8.811751 -4.5231655,19.514693 -4.5231655,29.922651 0,10.407958 0.8350459,20.672644 4.294522,29.353849 l 0.1689973,0.419608 0.4572874,0.13987 c 7.326533,2.237904 15.537818,3.496724 23.749103,3.636593 h 0.188879 c 0.47717,0.0094 0.96428,0.01865 1.461331,0.01865 8.111875,0 15.905636,-1.035031 23.172525,-3.077119 l 0.467228,-0.130544 0.178938,-0.428932 c 3.618533,-8.793101 4.543048,-19.496959 4.543048,-29.931975 0,-10.435016 -0.835047,-20.672644 -4.304463,-29.363174 l -0.168997,-0.419609 -0.457288,-0.13987 C 51.74588,7.9107484 43.534594,6.6519271 35.353133,6.512058 34.776554,6.502738 34.249678,6.493409 33.712865,6.493409 Z"
       style="fill:#000000;stroke:none;stroke-width:1.78642213;stroke-miterlimit:4;stroke-dasharray:none" />
    <path
       id="path1154-9-3"
       d="m 33.712865,7.4258686 c 0.536813,0 1.07363,0.00933 1.620386,0.01865 8.111875,0.1398689 16.174044,1.3707167 23.450873,3.5806484 3.439594,8.615932 4.277395,18.944521 4.277395,29.036812 0,10.092292 -0.917329,20.877786 -4.506039,29.596288 -7.157536,2.014114 -14.851888,3.03982 -22.884234,3.03982 -0.487111,0 -0.974221,-0.0094 -1.461331,-0.01865 H 34.040918 C 25.909161,72.539569 17.846991,71.308722 10.580105,69.089466 7.1504515,60.492184 6.3123238,50.163288 6.3123238,40.061979 c 0,-10.101312 0.9176558,-20.868461 4.4864832,-29.586965 6.690308,-1.8742454 14.046665,-2.918601 21.472608,-3.0398208 0.47717,-0.00933 0.964281,-0.00933 1.44145,-0.00933 m 0,-0.9324602 c -0.487111,0 -0.974221,0 -1.46133,0.00933 C 24.785826,6.6239527 17.270413,7.6869575 10.510517,9.5798521 L 10.043289,9.7103965 9.8643508,10.139328 C 6.2557594,18.951079 5.3411853,29.65402 5.3411853,40.061979 c 0,10.407958 0.8350459,20.672643 4.294522,29.353849 l 0.1689973,0.419608 0.4572874,0.13987 c 7.326533,2.237904 15.537818,3.496724 23.749103,3.636593 h 0.188879 c 0.47717,0.0094 0.96428,0.01865 1.461331,0.01865 8.111875,0 15.905636,-1.035032 23.172525,-3.077119 l 0.467228,-0.130544 0.178938,-0.428932 c 3.618533,-8.793101 4.543048,-19.49696 4.543048,-29.931975 0,-10.435016 -0.835047,-20.672644 -4.304463,-29.363175 l -0.168997,-0.419609 -0.457288,-0.13987 C 51.74588,7.9107479 43.534594,6.6519266 35.353133,6.5120575 34.776554,6.5027375 34.249678,6.4934085 33.712865,6.4934085 Z"
       style="fill:#000000;stroke:none;stroke-width:1.78642213;stroke-miterlimit:4;stroke-dasharray:none" />
  </g>
</svg>
