<svg id="Capa_2" xmlns="http://www.w3.org/2000/svg" xmlns:xlink="http://www.w3.org/1999/xlink" viewBox="0 0 69.02 80">
<defs >
<style >
.cls-1{fill:#c89aed;}.cls-2{fill:#fff;}.cls-3{fill:#f8ffbf;}.cls-4{fill:#7b7be8;}.cls-5{fill:#a88347;}.cls-6{fill:#782ab5;}.cls-7,.cls-8,.cls-9,.cls-10,.cls-11,.cls-12{fill:none;}.cls-7,.cls-11,.cls-12{stroke-miterlimit:10;}.cls-7,.cls-12{stroke:#000;}.cls-13{fill:#1c46ff;}.cls-8{stroke:#deb778;stroke-dasharray:0 0 0 4.06;stroke-linecap:round;stroke-linejoin:round;}.cls-14{fill:#deb778;}.cls-15{fill:url(#USGS_19_Inundación_de_tierra_2);}.cls-10{stroke:#1d1d1b;stroke-dasharray:0 0 2 2;stroke-width:.3px;}.cls-16{fill:#cf5f2b;}.cls-11{stroke:#c89aed;stroke-width:1.3px;}.cls-17{fill:#fcf0c5;}.cls-12{stroke-width:.5px;}.cls-18{fill:#b83521;}
</style>
<pattern id="USGS_19_Inundación_de_tierra_2" x="0" y="0" width="72" height="72" patternTransform="translate(123.52 -16423) rotate(-90)" patternUnits="userSpaceOnUse" viewBox="0 0 72 72">
<g >
<rect class="cls-9" width="72" height="72">
</rect>
<g >
<line class="cls-10" x1="71" y1="71" x2="144.44" y2="71">
</line>
<line class="cls-10" x1="71" y1="67" x2="144.44" y2="67">
</line>
<line class="cls-10" x1="71" y1="63" x2="144.44" y2="63">
</line>
<line class="cls-10" x1="71" y1="59" x2="144.44" y2="59">
</line>
<line class="cls-10" x1="71" y1="55" x2="144.44" y2="55">
</line>
<line class="cls-10" x1="71" y1="51" x2="144.44" y2="51">
</line>
<line class="cls-10" x1="71" y1="47" x2="144.44" y2="47">
</line>
<line class="cls-10" x1="71" y1="43" x2="144.44" y2="43">
</line>
<line class="cls-10" x1="71" y1="39" x2="144.44" y2="39">
</line>
<line class="cls-10" x1="71" y1="35" x2="144.44" y2="35">
</line>
<line class="cls-10" x1="71" y1="31" x2="144.44" y2="31">
</line>
<line class="cls-10" x1="71" y1="27" x2="144.44" y2="27">
</line>
<line class="cls-10" x1="71" y1="23" x2="144.44" y2="23">
</line>
<line class="cls-10" x1="71" y1="19" x2="144.44" y2="19">
</line>
<line class="cls-10" x1="71" y1="15" x2="144.44" y2="15">
</line>
<line class="cls-10" x1="71" y1="11" x2="144.44" y2="11">
</line>
<line class="cls-10" x1="71" y1="7" x2="144.44" y2="7">
</line>
<line class="cls-10" x1="71" y1="3" x2="144.44" y2="3">
</line>
</g>
<g >
<line class="cls-10" x1="-1" y1="71" x2="72.44" y2="71">
</line>
<line class="cls-10" x1="-1" y1="67" x2="72.44" y2="67">
</line>
<line class="cls-10" x1="-1" y1="63" x2="72.44" y2="63">
</line>
<line class="cls-10" x1="-1" y1="59" x2="72.44" y2="59">
</line>
<line class="cls-10" x1="-1" y1="55" x2="72.44" y2="55">
</line>
<line class="cls-10" x1="-1" y1="51" x2="72.44" y2="51">
</line>
<line class="cls-10" x1="-1" y1="47" x2="72.44" y2="47">
</line>
<line class="cls-10" x1="-1" y1="43" x2="72.44" y2="43">
</line>
<line class="cls-10" x1="-1" y1="39" x2="72.44" y2="39">
</line>
<line class="cls-10" x1="-1" y1="35" x2="72.44" y2="35">
</line>
<line class="cls-10" x1="-1" y1="31" x2="72.44" y2="31">
</line>
<line class="cls-10" x1="-1" y1="27" x2="72.44" y2="27">
</line>
<line class="cls-10" x1="-1" y1="23" x2="72.44" y2="23">
</line>
<line class="cls-10" x1="-1" y1="19" x2="72.44" y2="19">
</line>
<line class="cls-10" x1="-1" y1="15" x2="72.44" y2="15">
</line>
<line class="cls-10" x1="-1" y1="11" x2="72.44" y2="11">
</line>
<line class="cls-10" x1="-1" y1="7" x2="72.44" y2="7">
</line>
<line class="cls-10" x1="-1" y1="3" x2="72.44" y2="3">
</line>
<line class="cls-10" x1="1.04" y1="69" x2="74.48" y2="69">
</line>
<line class="cls-10" x1="1.04" y1="65" x2="74.48" y2="65">
</line>
<line class="cls-10" x1="1.04" y1="61" x2="74.48" y2="61">
</line>
<line class="cls-10" x1="1.04" y1="57" x2="74.48" y2="57">
</line>
<line class="cls-10" x1="1.04" y1="53" x2="74.48" y2="53">
</line>
<line class="cls-10" x1="1.04" y1="49" x2="74.48" y2="49">
</line>
<line class="cls-10" x1="1.04" y1="45" x2="74.48" y2="45">
</line>
<line class="cls-10" x1="1.04" y1="41" x2="74.48" y2="41">
</line>
<line class="cls-10" x1="1.04" y1="37" x2="74.48" y2="37">
</line>
<line class="cls-10" x1="1.04" y1="33" x2="74.48" y2="33">
</line>
<line class="cls-10" x1="1.04" y1="29" x2="74.48" y2="29">
</line>
<line class="cls-10" x1="1.04" y1="25" x2="74.48" y2="25">
</line>
<line class="cls-10" x1="1.04" y1="21" x2="74.48" y2="21">
</line>
<line class="cls-10" x1="1.04" y1="17" x2="74.48" y2="17">
</line>
<line class="cls-10" x1="1.04" y1="13" x2="74.48" y2="13">
</line>
<line class="cls-10" x1="1.04" y1="9" x2="74.48" y2="9">
</line>
<line class="cls-10" x1="1.04" y1="5" x2="74.48" y2="5">
</line>
<line class="cls-10" x1="1.04" y1="1" x2="74.48" y2="1">
</line>
</g>
<g >
<line class="cls-10" x1="-73" y1="71" x2=".44" y2="71">
</line>
<line class="cls-10" x1="-73" y1="67" x2=".44" y2="67">
</line>
<line class="cls-10" x1="-73" y1="63" x2=".44" y2="63">
</line>
<line class="cls-10" x1="-73" y1="59" x2=".44" y2="59">
</line>
<line class="cls-10" x1="-73" y1="55" x2=".44" y2="55">
</line>
<line class="cls-10" x1="-73" y1="51" x2=".44" y2="51">
</line>
<line class="cls-10" x1="-73" y1="47" x2=".44" y2="47">
</line>
<line class="cls-10" x1="-73" y1="43" x2=".44" y2="43">
</line>
<line class="cls-10" x1="-73" y1="39" x2=".44" y2="39">
</line>
<line class="cls-10" x1="-73" y1="35" x2=".44" y2="35">
</line>
<line class="cls-10" x1="-73" y1="31" x2=".44" y2="31">
</line>
<line class="cls-10" x1="-73" y1="27" x2=".44" y2="27">
</line>
<line class="cls-10" x1="-73" y1="23" x2=".44" y2="23">
</line>
<line class="cls-10" x1="-73" y1="19" x2=".44" y2="19">
</line>
<line class="cls-10" x1="-73" y1="15" x2=".44" y2="15">
</line>
<line class="cls-10" x1="-73" y1="11" x2=".44" y2="11">
</line>
<line class="cls-10" x1="-73" y1="7" x2=".44" y2="7">
</line>
<line class="cls-10" x1="-73" y1="3" x2=".44" y2="3">
</line>
<line class="cls-10" x1="-70.96" y1="69" x2="2.48" y2="69">
</line>
<line class="cls-10" x1="-70.96" y1="65" x2="2.48" y2="65">
</line>
<line class="cls-10" x1="-70.96" y1="61" x2="2.48" y2="61">
</line>
<line class="cls-10" x1="-70.96" y1="57" x2="2.48" y2="57">
</line>
<line class="cls-10" x1="-70.96" y1="53" x2="2.48" y2="53">
</line>
<line class="cls-10" x1="-70.96" y1="49" x2="2.48" y2="49">
</line>
<line class="cls-10" x1="-70.96" y1="45" x2="2.48" y2="45">
</line>
<line class="cls-10" x1="-70.96" y1="41" x2="2.48" y2="41">
</line>
<line class="cls-10" x1="-70.96" y1="37" x2="2.48" y2="37">
</line>
<line class="cls-10" x1="-70.96" y1="33" x2="2.48" y2="33">
</line>
<line class="cls-10" x1="-70.96" y1="29" x2="2.48" y2="29">
</line>
<line class="cls-10" x1="-70.96" y1="25" x2="2.48" y2="25">
</line>
<line class="cls-10" x1="-70.96" y1="21" x2="2.48" y2="21">
</line>
<line class="cls-10" x1="-70.96" y1="17" x2="2.48" y2="17">
</line>
<line class="cls-10" x1="-70.96" y1="13" x2="2.48" y2="13">
</line>
<line class="cls-10" x1="-70.96" y1="9" x2="2.48" y2="9">
</line>
<line class="cls-10" x1="-70.96" y1="5" x2="2.48" y2="5">
</line>
<line class="cls-10" x1="-70.96" y1="1" x2="2.48" y2="1">
</line>
</g>
</g>
</pattern>
</defs>

  <path
     id="path7641-4"
     style="fill:#782ab5;fill-opacity:1;stroke:#4d4d4d;stroke-width:1.62226;stop-color:#000000"
     d="M 34.900259,1.6936052 C 14.323312,9.5265586 1.6299002,23.954051 1.5689773,39.580572 V 79.197446 H 67.963672 V 39.580572 C 67.958188,23.990066 55.374427,9.5708664 34.900259,1.6936052 Z"/>
  <path
     id="path7641-7"
     style="fill:#808080;stroke:#4d4d4d;stroke-width:1.48325;stop-color:#000000"
     d="M 34.629293,5.0425238 C 15.815619,12.204258 4.1542243,25.395327 4.1542243,39.682894 V 76.559207 H 64.859448 V 39.682894 c 0,-14.254531 -11.510452,-27.438125 -30.230155,-34.6403702 z m -0.01233,3.4358455 C 51.537073,14.988239 61.941622,26.904418 61.941622,39.788613 v 33.82806 H 7.07205 v -33.82806 c 0,-12.914055 10.539857,-24.836991 27.544909,-31.3102437 z"/>
  <path
     id="path7641-7-8"
     style="fill:#808080;stroke:#4d4d4d;stroke-width:1.35027;stop-color:#000000"
     d="M 34.618314,8.2461803 C 17.491429,14.76581 6.8755673,26.7742 6.8755673,39.780777 v 33.57007 H 62.138105 v -33.57007 c 0,-12.976504 -10.478452,-24.978088 -27.519791,-31.5345967 z m -0.01123,3.1277957 c 15.403093,5.926211 24.874795,16.774013 24.874795,28.503041 V 70.672134 H 9.5317874 V 39.877017 c 0,-11.75621 9.5948786,-22.610165 25.0752986,-28.503041 z"/>
  <path
     id="path7641-7-8-0"
     style="fill:#808080;stroke:#4d4d4d;stroke-width:1.21411;stop-color:#000000"
     d="M 34.607073,11.526302 C 19.207238,17.388502 9.6618637,28.185984 9.6618637,39.880997 V 70.06591 H 59.351809 V 39.880997 c 0,-11.667973 -9.421821,-22.459335 -24.744736,-28.354695 z m -0.0101,2.812393 c 13.849868,5.328621 22.366458,15.082547 22.366458,25.628837 V 67.657315 H 12.050234 V 39.967532 c 0,-10.570731 8.627346,-20.33019 22.546743,-25.628837 z"/>


<g id="Capa_9">
<g >
<g >
<path class="cls-1" d="M21.06,5.43s-4.98,3.28-5.61,8.47,5.08,26.48,5.08,26.48l-2.12-2.12s-1.59,2.12-1.06,6.14,2.75,5.93,4.13,6.25c.85,4.34,1.48,6.89,2.33,7.41-.32,4.77-.53,6.04-.53,6.04l-13.66,4.77,.74,3.5,27.43,4.45,22.67-3.28v-4.45l-13.77-4.77-.42-6.36s1.81-3.4,2.22-7.31c3.39-.42,4.13-6.14,4.34-7.63s-1.06-5.3-1.06-5.3l-2.33,2.44,.95-4.98s4.66-17.8,4.24-20.76-3.18-8.16-4.34-9.11c-6.78-3.5-23.3-2.44-29.24,.11Z">
</path>
<path class="cls-2" d="M34.89,61.52v-25.3c0-3.45,3.17-6.01,6.55-5.32s6.81,2.22,8.35,5.79c-.84,6.04-1.03,12.9-1.29,13.97s-1.48,6.82-2.96,8.13c-3.14,2.62-6.29,5.15-8.03,5.24h0c-1.43,.06-2.62-1.08-2.62-2.51Z">
</path>
<path class="cls-18" d="M19.83,37.73s2.16-5.73,9.39-7.14,16.15,1.31,16.15,1.31c0,0,3.66,3.47,4.41,4.79,2.25-7.42,4.79-19.43,4.79-21.69s-2.25-7.14-4.13-8.45c-3.94-1.97-21.87-5.35-31.17,.38-4.32,4.79-3.76,7.98-3.1,13.24s3.66,17.56,3.66,17.56Z">
</path>
<path class="cls-2" d="M22.93,64.05s2.45,7.9,11.21,7.68,11.57-4.88,12.56-7.4c6.65,2.07,14.34,4.52,14.34,4.52l-.64,5.44-29.14,3.74-21.56-4.7,.96-4.8,12.27-4.48Z">
</path>
<path class="cls-5" d="M32.95,24.61s-5.04,.51-11.71,4.1c-2.99-10.09-2.99-13.68-1.88-17.18s5.81-6.58,10.86-8.12c2.56,.17,2.74,2.48,2.74,2.48V24.61Z">
</path>
<path class="cls-5" d="M36.99,24.84V3.41s10.04,2.25,13.12,6.37c1.8,3.6,1.5,6.6,1.5,6.6l-2.92,12.82s-5.85-4.72-11.69-4.35Z">
</path>
<path class="cls-14" d="M42.65,5.6s-1.51,18.85-1.74,19.88c4.44,1.43,5.86,2.54,5.86,2.54,0,0,1.43-15.21,2.69-18.85-3.01-3.64-6.81-3.56-6.81-3.56Z">
</path>
<path class="cls-17" d="M42.51,25.83l2.35-19.72s2.95,1.07,3.82,2.28c-1.34,3.69-3.22,18.51-3.22,18.51l-2.95-1.07Z">
</path>
<path d="M25.02,5.59s1.2,19.58,2.56,20.43c-3.59,1.28-4.45,1.97-4.45,1.97,0,0-2.14-15.73-3.16-17.61,2.22-3.08,5.04-4.79,5.04-4.79Z">
</path>
<path d="M17.22,9.6s2.63-.73,1.81,2.63c-.73,2.63-.73,6.08-.27,7.8s2.54,9.25,2.54,9.25l3.81-2.27s.09,3.26,.91,4.9c-3.17,.73-6.18,5.82-6.18,5.82,0,0-3.88-18.97-4.16-21.05s0-5.8,1.54-7.07Z">
</path>
<path d="M20.84,40.72l-2.67-2.81s-1.15,2.74-1.01,5.84,2.72,6.48,4.32,6.92c-.93-5.84-.64-9.95-.64-9.95Z">
</path>
<path d="M41.48,62.5l-15.01,13.78-15.94-3.32,.51-4.69,12.25-4.16,.53-6.04s4.1,3.41,5.69,4.71,5.41,.51,5.41,.51c0,0,2.67,1.08,6.57-.79Z">
</path>
<polygon class="cls-4" points="37.24 43.64 36.7 40.89 41.23 38.95 45.28 40.07 47.55 41.98 45.13 45 43.01 46.32 40.46 45.73 37.24 43.64">
</polygon>
<polygon class="cls-4" points="32.57 43.64 33.11 40.89 28.58 38.95 24.53 40.07 22.26 41.98 24.68 45 26.8 46.32 29.35 45.73 32.57 43.64">
</polygon>
<path class="cls-3" d="M37.59,43.65l3.23-.97,3.52,1.04s-2.29,1.1-3.67,1.26c-2.07-.47-3.08-1.32-3.08-1.32Z">
</path>
<path class="cls-3" d="M32.01,43.65l-3.23-.97-3.52,1.04s2.29,1.1,3.67,1.26c2.07-.47,3.08-1.32,3.08-1.32Z">
</path>
<path class="cls-2" d="M35.46,70.24l9.44-9.51,.15,3.58s-1.98,5.56-9.58,5.93Z">
</path>
<path class="cls-2" d="M24.73,46.66c.93,.56,2.59,1.33,4.24,.96,.33-.07,.55,.34,.32,.58-2.67,2.89-4.04,2.52-5.08-1.13-.09-.31,.24-.58,.52-.41Z">
</path>
<path class="cls-11" d="M49.42,37.4c-.38,1.9-.65,3.6-.7,4.93-.07,1.54-.16,3-.28,4.35h-.03c-.36,1.79-1.26,3.6-2.64,4.84-.51,.49-1.14,.83-1.75,1.17-.24,1.45-.49,2.91-.63,4.38,.44-1.27,.95-2.49,1.48-3.72,1.31-.7,2.36-1.76,3.14-3.01-.59,4.01-1.49,6.67-2.6,7.49-.52,.39-1.11,.94-1.74,1.52-2.33,2.15-5.24,4.83-8.39,3.47l-.5-.04-.2,.04c-3.16,1.36-6.06-1.32-8.39-3.47-.63-.58-1.22-1.13-1.75-1.52-1.72-1.28-2.96-7.07-3.3-15.5-.04-1.07-.22-2.38-.49-3.84h.01s-.05-2.18,1.9-4.18c2.3-2.38,6.5-3.64,12.14-3.64,14.15,0,14.69,6.66,14.7,6.73h.02Z">
</path>
<path class="cls-16" d="M40.91,25.48l-.52,5.24s4.55,.94,5.6,2c-.22-2.88,.61-5.16,.61-5.16,0,0-3.73-1.84-5.69-2.08Z">
</path>
<path class="cls-7" d="M48.71,5.8s5,1.76,5.75,9.08c-.13,6.93-5,21.3-5.25,27.48s-1.13,14.12-3.5,15.88-6.25,6.93-10.63,5.04h-.31c-4.38,1.89-8.25-3.28-10.63-5.04s-3.25-9.71-3.5-15.88-5.13-20.54-5.25-27.48c.75-7.31,5.75-9.08,5.75-9.08">
</path>
<path class="cls-7" d="M20.16,38.51s-.33-8.34,14.55-8.34,15.19,7.2,15.19,7.2">
</path>
<path class="cls-7" d="M44.43,5.51s5.78,1.46,7.02,9.3c-.19,6.49-2.66,14.14-2.66,14.14,0,0-5.14-3.62-11.85-4.14V5.11h-3.9V24.81c-6.71,.52-11.85,4.14-11.85,4.14,0,0-2.46-7.65-2.65-14.14,1.23-7.84,7.01-9.3,7.01-9.3">
</path>
<path d="M21.42,46.53c.47,2.54,1.98,5.03,4.37,6.16,.24,1.45,.49,2.91,.63,4.38-.46-1.33-1.01-2.62-1.56-3.92l.26,.31c-2.59-1.3-4.16-3.99-4.69-6.78,0,0,.99-.15,.99-.15h0Z">
</path>
<path d="M49.4,46.83c-.55,2.75-2.16,5.35-4.71,6.62,0,0,.26-.31,.26-.31-.55,1.29-1.1,2.59-1.56,3.92,.14-1.47,.39-2.92,.63-4.38,.61-.34,1.24-.68,1.75-1.17,1.38-1.24,2.28-3.05,2.64-4.84,0,0,.99,.16,.99,.16h0Z">
</path>
<path class="cls-7" d="M20.55,40.91l-2.44-3.03s-1.43,2.57-.83,6.21,2.39,6.53,3.91,6.39">
</path>
<path class="cls-7" d="M49.28,40.91l2.44-3.03s1.43,2.57,.83,6.21-2.39,6.53-3.91,6.39">
</path>
<polyline class="cls-7" points="23.63 57.68 23.31 63.96 8.84 69.04">
</polyline>
<polyline class="cls-7" points="46.33 57.59 46.59 63.96 61.06 69.04">
</polyline>
<path class="cls-7" d="M23.31,63.96s1,7.69,11.38,7.69,11.91-7.69,11.91-7.69">
</path>
<path d="M22.44,41.98s.72-1.92,3.58-3.15,5.54-.72,5.54-.72c0,0,1.75,1.06,1.66,2.81-2.56,0-4.35-1.36-6.52-.89s-2.9,1.92-4.26,1.96Z">
</path>
<path d="M47.41,41.98s-.72-1.92-3.58-3.15-5.54-.72-5.54-.72c0,0-1.75,1.06-1.66,2.81,2.56,0,4.35-1.36,6.52-.89s2.9,1.92,4.26,1.96Z">
</path>
<path class="cls-12" d="M32.28,43.68l-3.24-.98-3.62,.89s2.34,1.28,3.83,1.32c1.96-.34,3.02-1.24,3.02-1.24Z">
</path>
<path d="M24.71,44.8c.81,.72,1.83,1.22,2.85,1.31,1.39-.24,3.55-1.29,4.64-2.65,0,0,.39,.31,.39,.31-1.32,1.5-3.12,2.5-5.07,2.84-1.14-.28-2.1-.97-2.81-1.81h0Z">
</path>
<path class="cls-12" d="M37.73,43.68l3.24-.98,3.62,.89s-2.34,1.28-3.83,1.32c-1.96-.34-3.02-1.24-3.02-1.24Z">
</path>
<path d="M45.3,44.8c-.71,.84-1.66,1.53-2.81,1.81-1.96-.34-3.75-1.34-5.07-2.84,0,0,.39-.31,.39-.31,1.08,1.35,3.25,2.41,4.64,2.65,1.02-.09,2.04-.59,2.85-1.31h0Z">
</path>
<path d="M36.97,46.23c.22,.9,.6,1.77,1.18,2.42,.42,.68,.32,1.63-.29,2.18-.42-.28-1-.24-1.47-.01-.53,.22-1.01,.64-1.44,1.05-.6-.56-1.27-1.13-2.09-1.23-.34-.04-.57,.07-.82,.2-.61-.56-.71-1.51-.28-2.19,.57-.65,.95-1.51,1.17-2.42,0,.47-.07,.93-.19,1.39-.18,.96-1.22,1.66-.39,2.59,0,0-.41-.04-.41-.04,.62-.34,1.25-.25,1.84-.02,.55,.22,1,.56,1.42,.93h-.5c.85-.75,2.1-1.53,3.26-.91,0,0-.4,.04-.4,.04,.38-.32,.34-1.04,.23-1.29-.57-.78-.8-1.75-.81-2.7h0Z">
</path>
<path d="M41.61,54.99c-3.06-.92-4.72-.51-5.66,0-.57,.31-1.25,.3-1.83,0-.95-.49-2.68-.9-5.67,0,0,0,3.13-2.82,6.58-1.19,3.45-1.63,6.58,1.19,6.58,1.19Z">
</path>
<path d="M30.91,55.85c2.58,1.09,5.72,.68,8.2,.15-1.85,2-6.71,2.15-8.2-.15h0Z">
</path>
</g>
<path class="cls-13" d="M23.6,60.88c.21,1.26,.27,2.53,.27,3.8-3.78,1.93-7.83,3.4-12.08,3.78,0,0-.04-.1-.04-.1,3.25-1.18,8.33-3.22,11.32-4.13,0,0,.43-3.36,.43-3.36,0,0,.11,.01,.11,.01h0Z">
</path>
</g>
</g>
  <g
     id="g20645">
    <path
       style="fill:#808080;stroke:#4d4d4d;stroke-width:0.937908;stop-color:#000000;fill-opacity:1"
       d="m 9.541565,65.883425 a 5.4759801,5.4759801 0 0 1 5.47598,5.475981 5.4759801,5.4759801 0 0 1 -5.47598,5.47598 5.4759801,5.4759801 0 0 1 -5.4759806,-5.47598 5.4759801,5.4759801 0 0 1 5.4759806,-5.475981 z"/>
    <path
       style="fill:#808080;stroke:#4d4d4d;stroke-width:0.937908;stop-color:#000000;fill-opacity:1"
       d="m 59.472108,65.883425 a 5.4759801,5.4759801 0 0 1 5.47598,5.475981 5.4759801,5.4759801 0 0 1 -5.47598,5.47598 5.4759801,5.4759801 0 0 1 -5.475981,-5.47598 5.4759801,5.4759801 0 0 1 5.475981,-5.475981 z"/>
    <path
       id="path7641"
       style="fill:#808080;stroke:#4d4d4d;stroke-width:1.64416;stop-color:#000000"
       d="M 34.642578,1.1660156 C 13.787845,9.1047124 0.86132813,23.726855 0.86132812,39.564453 V 79.340489 H 68.152344 V 39.564453 c 0,-15.800978 -12.759199,-30.4148342 -33.509766,-38.3984374 z m -0.01367,3.8085938 C 53.384648,12.190722 64.917969,25.399665 64.917969,39.681641 v 26.507812 c -1.368656,-1.44106 -3.300993,-2.341797 -5.445313,-2.341797 -4.14856,0 -7.511718,3.363159 -7.511718,7.511719 0,2.347008 1.075662,4.442843 2.761718,5.820313 H 14.269531 c 1.756069,-1.422629 2.778281,-3.560307 2.783203,-5.820313 4.8e-5,-4.148627 -3.363091,-7.511766 -7.5117184,-7.511719 -2.0622939,0.0062 -4.0313164,0.860092 -5.4453125,2.361328 V 39.681641 c 0,-14.315076 11.6833059,-27.531508 30.5332029,-34.7070316 z"/>
    <circle
       style="fill:#4d4d4d;fill-opacity:1;stroke:#4d4d4d;stop-color:#000000"
       id="path16431"
       cx="9.6010828"
       cy="71.229652"
       r="5.06003" />
    <circle
       style="fill:#4d4d4d;fill-opacity:1;stroke:#4d4d4d;stop-color:#000000"
       id="path16431-3"
       cx="59.42292"
       cy="71.229652"
       r="5.06003" />
  </g>
</svg>
