<svg id="Capa_2" xmlns="http://www.w3.org/2000/svg" xmlns:xlink="http://www.w3.org/1999/xlink" viewBox="0 0 69.02 80">
<defs >
<style >
.cls-1{fill:#c89aed;}.cls-2{fill:#fff;}.cls-3{fill:#f8ffbf;}.cls-4{fill:#7b7be8;}.cls-5{fill:#a88347;}.cls-6{fill:#782ab5;}.cls-7,.cls-8{stroke:#000;stroke-miterlimit:10;}.cls-7,.cls-8,.cls-9,.cls-10,.cls-11{fill:none;}.cls-12{fill:#1c46ff;}.cls-8{stroke-width:.75px;}.cls-9{stroke:#deb778;stroke-dasharray:0 0 0 4.06;stroke-linecap:round;stroke-linejoin:round;}.cls-13{fill:#deb778;}.cls-14{fill:url(#USGS_19_Inundación_de_tierra_2);}.cls-11{stroke:#1d1d1b;stroke-dasharray:0 0 2 2;stroke-width:.3px;}.cls-15{fill:#fcf0c5;}
</style>
<pattern id="USGS_19_Inundación_de_tierra_2" x="0" y="0" width="72" height="72" patternTransform="translate(-20.48 -16423) rotate(-90)" patternUnits="userSpaceOnUse" viewBox="0 0 72 72">
<g >
<rect class="cls-10" width="72" height="72">
</rect>
<g >
<line class="cls-11" x1="71" y1="71" x2="144.44" y2="71">
</line>
<line class="cls-11" x1="71" y1="67" x2="144.44" y2="67">
</line>
<line class="cls-11" x1="71" y1="63" x2="144.44" y2="63">
</line>
<line class="cls-11" x1="71" y1="59" x2="144.44" y2="59">
</line>
<line class="cls-11" x1="71" y1="55" x2="144.44" y2="55">
</line>
<line class="cls-11" x1="71" y1="51" x2="144.44" y2="51">
</line>
<line class="cls-11" x1="71" y1="47" x2="144.44" y2="47">
</line>
<line class="cls-11" x1="71" y1="43" x2="144.44" y2="43">
</line>
<line class="cls-11" x1="71" y1="39" x2="144.44" y2="39">
</line>
<line class="cls-11" x1="71" y1="35" x2="144.44" y2="35">
</line>
<line class="cls-11" x1="71" y1="31" x2="144.44" y2="31">
</line>
<line class="cls-11" x1="71" y1="27" x2="144.44" y2="27">
</line>
<line class="cls-11" x1="71" y1="23" x2="144.44" y2="23">
</line>
<line class="cls-11" x1="71" y1="19" x2="144.44" y2="19">
</line>
<line class="cls-11" x1="71" y1="15" x2="144.44" y2="15">
</line>
<line class="cls-11" x1="71" y1="11" x2="144.44" y2="11">
</line>
<line class="cls-11" x1="71" y1="7" x2="144.44" y2="7">
</line>
<line class="cls-11" x1="71" y1="3" x2="144.44" y2="3">
</line>
</g>
<g >
<line class="cls-11" x1="-1" y1="71" x2="72.44" y2="71">
</line>
<line class="cls-11" x1="-1" y1="67" x2="72.44" y2="67">
</line>
<line class="cls-11" x1="-1" y1="63" x2="72.44" y2="63">
</line>
<line class="cls-11" x1="-1" y1="59" x2="72.44" y2="59">
</line>
<line class="cls-11" x1="-1" y1="55" x2="72.44" y2="55">
</line>
<line class="cls-11" x1="-1" y1="51" x2="72.44" y2="51">
</line>
<line class="cls-11" x1="-1" y1="47" x2="72.44" y2="47">
</line>
<line class="cls-11" x1="-1" y1="43" x2="72.44" y2="43">
</line>
<line class="cls-11" x1="-1" y1="39" x2="72.44" y2="39">
</line>
<line class="cls-11" x1="-1" y1="35" x2="72.44" y2="35">
</line>
<line class="cls-11" x1="-1" y1="31" x2="72.44" y2="31">
</line>
<line class="cls-11" x1="-1" y1="27" x2="72.44" y2="27">
</line>
<line class="cls-11" x1="-1" y1="23" x2="72.44" y2="23">
</line>
<line class="cls-11" x1="-1" y1="19" x2="72.44" y2="19">
</line>
<line class="cls-11" x1="-1" y1="15" x2="72.44" y2="15">
</line>
<line class="cls-11" x1="-1" y1="11" x2="72.44" y2="11">
</line>
<line class="cls-11" x1="-1" y1="7" x2="72.44" y2="7">
</line>
<line class="cls-11" x1="-1" y1="3" x2="72.44" y2="3">
</line>
<line class="cls-11" x1="1.04" y1="69" x2="74.48" y2="69">
</line>
<line class="cls-11" x1="1.04" y1="65" x2="74.48" y2="65">
</line>
<line class="cls-11" x1="1.04" y1="61" x2="74.48" y2="61">
</line>
<line class="cls-11" x1="1.04" y1="57" x2="74.48" y2="57">
</line>
<line class="cls-11" x1="1.04" y1="53" x2="74.48" y2="53">
</line>
<line class="cls-11" x1="1.04" y1="49" x2="74.48" y2="49">
</line>
<line class="cls-11" x1="1.04" y1="45" x2="74.48" y2="45">
</line>
<line class="cls-11" x1="1.04" y1="41" x2="74.48" y2="41">
</line>
<line class="cls-11" x1="1.04" y1="37" x2="74.48" y2="37">
</line>
<line class="cls-11" x1="1.04" y1="33" x2="74.48" y2="33">
</line>
<line class="cls-11" x1="1.04" y1="29" x2="74.48" y2="29">
</line>
<line class="cls-11" x1="1.04" y1="25" x2="74.48" y2="25">
</line>
<line class="cls-11" x1="1.04" y1="21" x2="74.48" y2="21">
</line>
<line class="cls-11" x1="1.04" y1="17" x2="74.48" y2="17">
</line>
<line class="cls-11" x1="1.04" y1="13" x2="74.48" y2="13">
</line>
<line class="cls-11" x1="1.04" y1="9" x2="74.48" y2="9">
</line>
<line class="cls-11" x1="1.04" y1="5" x2="74.48" y2="5">
</line>
<line class="cls-11" x1="1.04" y1="1" x2="74.48" y2="1">
</line>
</g>
<g >
<line class="cls-11" x1="-73" y1="71" x2=".44" y2="71">
</line>
<line class="cls-11" x1="-73" y1="67" x2=".44" y2="67">
</line>
<line class="cls-11" x1="-73" y1="63" x2=".44" y2="63">
</line>
<line class="cls-11" x1="-73" y1="59" x2=".44" y2="59">
</line>
<line class="cls-11" x1="-73" y1="55" x2=".44" y2="55">
</line>
<line class="cls-11" x1="-73" y1="51" x2=".44" y2="51">
</line>
<line class="cls-11" x1="-73" y1="47" x2=".44" y2="47">
</line>
<line class="cls-11" x1="-73" y1="43" x2=".44" y2="43">
</line>
<line class="cls-11" x1="-73" y1="39" x2=".44" y2="39">
</line>
<line class="cls-11" x1="-73" y1="35" x2=".44" y2="35">
</line>
<line class="cls-11" x1="-73" y1="31" x2=".44" y2="31">
</line>
<line class="cls-11" x1="-73" y1="27" x2=".44" y2="27">
</line>
<line class="cls-11" x1="-73" y1="23" x2=".44" y2="23">
</line>
<line class="cls-11" x1="-73" y1="19" x2=".44" y2="19">
</line>
<line class="cls-11" x1="-73" y1="15" x2=".44" y2="15">
</line>
<line class="cls-11" x1="-73" y1="11" x2=".44" y2="11">
</line>
<line class="cls-11" x1="-73" y1="7" x2=".44" y2="7">
</line>
<line class="cls-11" x1="-73" y1="3" x2=".44" y2="3">
</line>
<line class="cls-11" x1="-70.96" y1="69" x2="2.48" y2="69">
</line>
<line class="cls-11" x1="-70.96" y1="65" x2="2.48" y2="65">
</line>
<line class="cls-11" x1="-70.96" y1="61" x2="2.48" y2="61">
</line>
<line class="cls-11" x1="-70.96" y1="57" x2="2.48" y2="57">
</line>
<line class="cls-11" x1="-70.96" y1="53" x2="2.48" y2="53">
</line>
<line class="cls-11" x1="-70.96" y1="49" x2="2.48" y2="49">
</line>
<line class="cls-11" x1="-70.96" y1="45" x2="2.48" y2="45">
</line>
<line class="cls-11" x1="-70.96" y1="41" x2="2.48" y2="41">
</line>
<line class="cls-11" x1="-70.96" y1="37" x2="2.48" y2="37">
</line>
<line class="cls-11" x1="-70.96" y1="33" x2="2.48" y2="33">
</line>
<line class="cls-11" x1="-70.96" y1="29" x2="2.48" y2="29">
</line>
<line class="cls-11" x1="-70.96" y1="25" x2="2.48" y2="25">
</line>
<line class="cls-11" x1="-70.96" y1="21" x2="2.48" y2="21">
</line>
<line class="cls-11" x1="-70.96" y1="17" x2="2.48" y2="17">
</line>
<line class="cls-11" x1="-70.96" y1="13" x2="2.48" y2="13">
</line>
<line class="cls-11" x1="-70.96" y1="9" x2="2.48" y2="9">
</line>
<line class="cls-11" x1="-70.96" y1="5" x2="2.48" y2="5">
</line>
<line class="cls-11" x1="-70.96" y1="1" x2="2.48" y2="1">
</line>
</g>
</g>
</pattern>
</defs>

<g id="Capa_9">
<g >
<g >
<path d="M6.69,60.28s4-21.15,5.24-26.18,4.52-17.97,9.04-20.43,9.55-3.49,15.09-2.98c8.11,.31,14.68,.92,17.35,6.47,2.67,5.54,8.42,27.31,9.75,39.53-2.05,15.4-4,17.66-4,17.66,0,0-18.38,4.52-26.59,3.29s-23.2-5.95-23.2-5.95l-2.67-11.4Z">
</path>
<path class="cls-1" d="M19.63,38.72s5.4-4.23,15.85-3.96,15.58,4.05,15.58,4.05c0,0,1.89,6.12-1.08,11.71-1.53,6.03-3.78,9.01-3.78,9.01,0,0-3.33,4.23-5.85,5.85-.54,1.26-2.52,2.97-4.95,2.34-3.33,.09-4.14-.36-4.77-2.07-2.97-.9-5.94-6.03-5.94-6.03,0,0-4.14-8.47-4.86-10.99-1.08-5.13-1.44-7.47-.18-9.91Z">
</path>
<path class="cls-2" d="M35.3,67.43V34.87s10.09-.08,15.58,3.53c1.72,7.96-1.64,12.55-1.64,12.55,0,0-2.03,9.58-8.89,14.43-.86,1.31-1.53,2.88-5.05,2.06Z">
</path>
<path d="M23.29,12.86s-6.32,10.42-3.77,25.28c-1.22,8.09,1.66,13.97,1.66,13.97l3.49,7.5-.05,1.04-15.97,8.09-1.55-10.75s4.99-25.61,6.87-30.82,2.88-13.53,9.31-14.3Z">
</path>
<path d="M47.97,13.08s2.97,8.04,3.96,14.75c.33,4.84-.88,10.13-.88,10.13,0,0,.77,4.84,.22,7.6s-1.29,4.95-1.29,4.95l-3.78,9.01,.23,1.68,14.75,7.27,1.65-14.2s-3.08-16.96-4.4-22.35-4.51-18.61-10.46-18.83Z">
</path>
<path d="M39.66,67.13l-15.07,9.86-15.14-4.86v-3.97l15.89-7.53s4.18,3.97,5.21,4.66c1.23,2.88,4.08,2.69,4.85,2.44,2.28,.37,4.26-.59,4.26-.59Z">
</path>
<path class="cls-4" d="M33.32,45.71l.47-6.35-7.85,.51-4.46,1.76,3.4,3.22s5.91,1.11,8.44,.85Z">
</path>
<path class="cls-4" d="M37.91,45.71l-.47-6.35,7.85,.51,4.46,1.76-3.99,3.46s-5.32,.87-7.85,.61Z">
</path>
<path class="cls-3" d="M32.55,45.64l-4.13-2.17-3.74,1.19s1.56,2.99,7.87,.99Z">
</path>
<path class="cls-3" d="M38.13,45.64l4.13-2.17,3.87,1.3s-1.7,2.87-8,.87Z">
</path>
<path class="cls-4" d="M30.8,58.75s.9,2.81,4.47,2.14c2.86,.62,4.47-.81,4.76-2.19-3-1.38-5.19-1.19-5.19-1.19l-4.05,1.24Z">
</path>
<path class="cls-1" d="M35.44,35.89c8.48,0,13.15,2.6,14.45,3.45,.62,2.78,.54,5.43-.24,7.7,0,.02-.01,.05-.02,.07-.38,1.11-.94,2.13-1.68,3.06-.78,1.08-1.68,2.1-2.69,3.23-.25,.28-.26,.7-.02,.98,.15,.17,.36,.27,.57,.27,.14,0,.28-.04,.4-.12,.41-.26,.81-.54,1.19-.82-.83,2.13-1.64,3.8-2.37,4.92-.99,1.51-2.02,2.69-2.88,3.55-.02-.27-.19-.52-.45-.63-.1-.04-.2-.06-.3-.06-.26,0-.5,.13-.64,.36-.7,1.16-1.77,3.15-2.21,4.14-.44,.37-1.12,.45-1.62,.45-.35,0-.72-.04-1.11-.11-.08-.02-.21-.03-.49-.03-.26,0-.39,.01-.49,.03-.39,.07-.76,.1-1.11,.1-.5,0-1.18-.08-1.62-.45-.45-1-1.54-3.02-2.21-4.14-.14-.23-.39-.37-.64-.37-.1,0-.2,.02-.3,.06-.31,.13-.48,.45-.44,.77-.86-.89-1.86-2.12-2.89-3.7-.73-1.11-1.54-2.78-2.37-4.91,.38,.29,.78,.56,1.19,.82,.12,.08,.26,.11,.4,.11,.22,0,.43-.09,.57-.27,.24-.29,.23-.71-.02-.98-1.01-1.13-1.91-2.15-2.71-3.25-.72-.9-1.27-1.92-1.66-3.04,0-.02-.01-.04-.02-.06-.43-1.25-.65-2.63-.65-4.11,0-1.15,.14-2.35,.4-3.58,1.34-.85,6.15-3.46,14.66-3.46m0-.75c-9.42,0-14.5,3.19-15.32,3.75-.31,1.32-.49,2.68-.49,4.04,0,1.48,.21,2.96,.69,4.35,0,0,0,.04,.02,.07,.4,1.15,.98,2.24,1.78,3.25,.82,1.14,1.77,2.21,2.74,3.29-1.23-.77-2.36-1.7-3.34-2.81,.88,2.6,2.15,5.92,3.49,7.95,1.97,3.02,3.88,4.85,4.98,5.51-.25-.77-.49-1.54-.72-2.31,.73,1.22,1.86,3.33,2.23,4.2,.56,.57,1.41,.75,2.24,.75,.44,0,.88-.05,1.28-.12,.02-.01,.17-.02,.32-.02s.29,0,.32,.02c.39,.07,.83,.12,1.27,.12,.84,0,1.68-.18,2.25-.75,.37-.88,1.5-2.98,2.23-4.2-.21,.73-.44,1.45-.69,2.17,1.08-.78,3.14-2.59,4.95-5.37,1.34-2.03,2.61-5.35,3.49-7.95-.98,1.11-2.12,2.04-3.34,2.81,.97-1.08,1.92-2.15,2.74-3.29,.8-1.01,1.38-2.1,1.78-3.25,.01-.03,.02-.07,.02-.07,.91-2.66,.86-5.61,.19-8.4-.78-.55-5.69-3.74-15.11-3.74h0Z">
</path>
<path class="cls-2" d="M25.34,49.77c.61,.31,2.33,.9,2.85,1.03,.15,.04,.31,0,.45-.06,.53-.27,1.01-.54,1.42-.77,.56-.32,1.21,.24,.95,.83-.56,1.29-1.48,2.88-2.78,3.49-1.6,.75-3.67-1.94-4.06-3.65-.13-.56,.66-1.13,1.17-.87Z">
</path>
<polygon points="46.26 60.8 46.09 74.36 59.24 72.85 60.16 67.58 46.26 60.8">
</polygon>
<path class="cls-4" d="M19.85,33.07s15.52-8.38,31.14,.1c-2.28,2.17-8.79-6.62-31.14-.1Z">
</path>
<path class="cls-4" d="M45.51,13.31s4.97,12.41,3.93,23.28c1.34,.52,1.76,.62,1.76,.62,0,0,2.08-11.29-5.69-23.9Z">
</path>
<path class="cls-7" d="M63.82,62.49s-2.92-22.07-5.76-31.24c-2.83-9.17-3.9-14.42-6.91-16.81s-9.74-4.2-14.43-3.82h-2.66c-4.69-.38-11.42,1.43-14.43,3.82s-4.07,7.64-6.91,16.81-5.76,31.24-5.76,31.24">
</path>
<path d="M21.03,18.51c-2.57,6.38-2.12,13.48-.85,20.09-1.04,4.09-.78,8.59,1.93,11.99,.82,1.14,1.77,2.22,2.74,3.29-1.23-.77-2.37-1.7-3.35-2.81-1.98-2.22-3.1-5.26-2.99-8.24,.02-1.5,.29-2.96,.69-4.38v.22c-1.19-6.68-1.01-13.92,1.82-20.16h0Z">
</path>
<path class="cls-7" d="M30.56,65.33c-1.03-.17-3.47-2.2-5.97-6.02s-4.75-11.89-4.75-11.89">
</path>
<path d="M49.64,18.51c2.83,6.25,3.01,13.49,1.83,20.16,0,0,0-.22,0-.22,.4,1.41,.67,2.88,.69,4.38,.11,2.98-1,6.03-2.99,8.24-.98,1.11-2.12,2.04-3.35,2.81,.98-1.08,1.92-2.15,2.74-3.29,2.71-3.41,2.97-7.9,1.93-11.99,1.27-6.61,1.72-13.72-.85-20.09h0Z">
</path>
<path class="cls-7" d="M40.12,65.33c.49-.09,3.47-2.2,5.97-6.02s4.75-11.89,4.75-11.89">
</path>
<path d="M41.41,62.23c-.45,1.58-.99,3.12-1.57,4.65-.91,1.36-3.31,1.4-4.28,1.16,0,0-.43,0-.43,0h.11c-1.52,.24-3.27,.2-4.35-1.1-.65-1.52-1.14-3.12-1.61-4.71,.73,1.22,1.86,3.33,2.23,4.2,.85,.87,2.37,.84,3.51,.63,.06-.02,.59-.02,.65,0,1.14,.21,2.66,.24,3.51-.63,.37-.88,1.5-2.97,2.23-4.2h0Z">
</path>
<path class="cls-7" d="M19.69,38.58s5.16-3.94,15.75-3.94,15.55,3.94,15.55,3.94">
</path>
<path class="cls-8" d="M19,33.2s5.39-4.11,16.45-4.11,16.23,4.11,16.23,4.11">
</path>
<path d="M21.49,41.75s3.04-2.5,4.78-2.95c2.68-.4,7.6,.18,7.6,.18,0,0-.09,1.39-.58,2.01-2.55-.13-6.48-.36-6.48-.36l-5.32,1.12Z">
</path>
<path d="M49.75,41.75s-3.04-2.5-4.78-2.95c-2.68-.4-7.6,.18-7.6,.18,0,0,.09,1.39,.58,2.01,2.55-.13,6.48-.36,6.48-.36l5.32,1.12Z">
</path>
<path d="M24.95,44.56c1.13-.55,2.28-1.05,3.44-1.49l.17,.08c1.65,.77,3.27,1.66,4.86,2.56-.81,.43-1.76,.89-2.64,.99-1.83,.31-3.74-.16-5.26-1.2,1.13,.32,2.27,.53,3.43,.5,1.07-.03,2.25-.26,3.18-.74,0,0,0,.86,0,.86-1.34-.73-2.65-1.49-3.93-2.31l.29,.03c-1.16,.29-2.34,.54-3.54,.72h0Z">
</path>
<path d="M45.98,44.56c-1.2-.19-2.38-.43-3.54-.72l.29-.03c-1.28,.82-2.6,1.58-3.93,2.31v-.86c.94,.48,2.11,.71,3.19,.74,1.16,.02,2.3-.18,3.43-.5-1.52,1.03-3.44,1.5-5.26,1.2-.88-.1-1.83-.56-2.64-.99,1.59-.9,3.2-1.78,4.86-2.56,0,0,.17-.08,.17-.08,1.17,.44,2.31,.93,3.44,1.49h0Z">
</path>
<path d="M31.74,47.39c-.59,1.12-1.77,1.87-2.99,2.16-.99-.28-1.99-.66-2.82-1.3-.25-.22-.53-.45-.67-.76,.53,.38,1.16,.54,1.77,.75,0,0,1.84,.57,1.84,.57h-.19c1.07-.26,2.09-.72,3.07-1.42h0Z">
</path>
<path d="M39.39,47.39c.98,.69,2,1.16,3.07,1.41h-.19s1.83-.56,1.83-.56c.6-.22,1.23-.38,1.77-.75-.14,.32-.42,.54-.67,.76-.83,.64-1.83,1.02-2.82,1.3-1.22-.29-2.4-1.03-2.99-2.16h0Z">
</path>
<path d="M32.96,49.76c-.08,.77-.42,1.39-.86,1.97,0,0-.07-.67-.07-.67,2.09,2.19,.52,1.76-.99,.47,.5-.74,1.06-1.43,1.93-1.77h0Z">
</path>
<path d="M38.56,49.76c.87,.34,1.43,1.03,1.93,1.77-1.52,1.3-3.09,1.72-.99-.47,0,0-.07,.67-.07,.67-.45-.59-.79-1.2-.86-1.97h0Z">
</path>
<path d="M33.48,51.46c.93,.12,1.65,.41,2.35,1.09,0,0-.7-.06-.7-.06,.69-.57,1.51-1.03,2.44-1.04-.69,.87-1.4,1.47-2.19,2.12-.55-.73-1.38-1.28-1.9-2.12h0Z">
</path>
<path d="M35.29,58.73h.05c.5,.03,1.45,0,2.47-.46,1.61,.83,3.28,1.06,3.28,1.06l-2.75-3.07s-1.63-.19-3.08,.48c-1.45-.67-3.08-.48-3.08-.48l-2.75,3.07s1.66-.23,3.28-1.06c1.1,.5,2.12,.5,2.58,.46,.02,.01,.03,.01,.05,0">
</path>
<path d="M32.09,60.36c1.14,.57,2.21,.38,3.29,.09,.94,.39,2.01,.24,3.28,.08-.86,.93-2.24,1.36-3.49,.9,0,0,.31,.02,.31,.02-1.17,.32-2.81,.11-3.39-1.09h0Z">
</path>
<path class="cls-7" d="M24.36,58.91s1.06,10.02,.33,15.64">
</path>
<path class="cls-7" d="M24.22,60.81s-10.39,5.57-15.31,7.76">
</path>
<path class="cls-7" d="M46.35,58.91s-1.06,10.02-.33,15.64">
</path>
<path class="cls-7" d="M46.5,60.81s10.39,5.57,15.31,7.76">
</path>
</g>
<path class="cls-12" d="M23.5,61.65c-3.5,2.52-7.3,4.62-11.14,6.57-.72,.41-1.18,.61-2.06-.01,0,0-.05-.1-.05-.1,1.06-.63,2.18-1.13,3.28-1.68,2.1-1.03,7.75-3.81,9.92-4.88,0,0,.05,.1,.05,.1h0Z">
</path>
<path class="cls-12" d="M20.55,16.2c-.61,6.88-1,13.96-1.35,20.85-.78-3.15-.65-7.09-.53-10.51,.31-3.24,.69-7.53,1.88-10.35h0Z">
</path>
</g>
</g>
 <g
     id="g2850">
    <g
       id="g2837">
      <path
         id="path1951"
         d="M 0.056640625 0.04296875 L 0.056640625 79.943359 L 69.308594 79.943359 L 69.308594 0.04296875 L 0.056640625 0.04296875 z M 33.615234 3.5957031 C 34.206332 3.5957038 34.786991 3.6051034 35.421875 3.6152344 C 44.430653 3.7671809 53.471255 5.1336733 61.560547 7.5546875 L 62.064453 7.7070312 L 62.25 8.1640625 C 66.070247 17.605006 66.990234 28.726438 66.990234 40.0625 C 66.990234 51.398562 65.972723 63.025755 61.988281 72.578125 L 61.791016 73.044922 L 61.275391 73.185547 C 53.273669 75.403966 44.691921 76.529297 35.759766 76.529297 C 35.212453 76.529297 34.675812 76.519896 34.150391 76.509766 L 33.943359 76.509766 C 24.901742 76.357819 15.860367 74.989738 7.7929688 72.558594 L 7.2890625 72.40625 L 7.1035156 71.951172 C 3.2942144 62.520359 2.375 51.369168 2.375 40.0625 C 2.375 28.755832 3.3819737 17.127318 7.3554688 7.5546875 L 7.5527344 7.0898438 L 8.0664062 6.9472656 C 15.509867 4.890923 23.785212 3.7371557 32.005859 3.6054688 C 32.542226 3.5953387 33.078867 3.5957031 33.615234 3.5957031 z "
         style="opacity:1;vector-effect:none;fill:#ffffff;fill-opacity:1;fill-rule:nonzero;stroke:none;stroke-width:1.95200002;stroke-linecap:butt;stroke-linejoin:miter;stroke-miterlimit:4;stroke-dasharray:none;stroke-dashoffset:0;stroke-opacity:1" />
    </g>
    <path
       id="path1154-8-2"
       d="m 33.675163,6.6112954 c 0.557696,0 1.115392,0.00956 1.683415,0.019115 8.427403,0.14336 16.803167,1.4049288 24.363042,3.6700176 3.573384,8.830981 4.443772,19.417362 4.443772,29.761551 0,10.344189 -0.95301,21.39888 -4.68131,30.334991 -7.435942,2.064385 -15.429581,3.274388 -23.774362,3.274388 -0.506058,0 -1.012115,-0.0096 -1.518172,-0.01911 h -0.17557 C 25.56792,73.508883 17.192156,72.088619 9.6426089,69.813973 6.0795528,61.002107 5.2088244,50.415411 5.2088244,40.061979 c 0,-10.353432 0.95335,-21.389323 4.6609939,-30.325434 C 16.820359,7.8155201 24.462856,6.7450981 32.177647,6.6208528 c 0.49573,-0.00956 1.001787,-0.00956 1.497516,-0.00956 m 0,-0.9557337 c -0.506057,0 -1.012114,0 -1.518171,0.00956 C 24.40089,5.7893644 16.593149,6.8789009 9.570315,8.8190405 L 9.0849131,8.9528432 8.8990146,9.3924808 C 5.1500599,18.424166 4.1999116,29.394246 4.1999116,40.061979 c 0,10.667733 0.8675267,21.188618 4.461566,30.0865 l 0.1755708,0.430081 0.4750741,0.14336 c 7.6115135,2.293761 16.1421925,3.584001 24.6728715,3.727361 h 0.196227 c 0.495729,0.0096 1.001786,0.01911 1.518171,0.01911 8.427403,0 16.524318,-1.060864 24.073866,-3.153921 l 0.485403,-0.133802 0.185898,-0.439639 c 3.759282,-9.01257 4.719759,-19.983589 4.719759,-30.679055 0,-10.695466 -0.867528,-21.188618 -4.471894,-30.0960578 L 60.516853,9.5358409 60.041779,9.3924808 C 52.409609,7.108277 43.87893,5.8180364 35.379234,5.6746763 34.780227,5.6651187 34.232859,5.6555621 33.675163,5.6555615 Z"
       style="fill:#ff0000;stroke:#ffffff;stroke-width:1.84341729;stroke-miterlimit:4;stroke-dasharray:none" />
    <path
       id="path1154"
       d="m 33.614853,4.6077955 c 0.591098,0 1.182197,0.01013 1.784241,0.02026 8.932155,0.1519464 17.809578,1.4890758 25.822246,3.8898304 3.787408,9.3599041 4.709928,20.5803481 4.709928,31.5440931 0,10.963745 -1.01009,22.680548 -4.961693,32.151879 -7.881312,2.18803 -16.353723,3.302304 -25.198307,3.302304 -0.536368,0 -1.072735,-0.01013 -1.609102,-0.02026 H 33.97608 C 25.022033,75.343956 16.14461,74.006827 8.1428892,71.595943 4.3664269,62.256298 3.443547,51.035521 3.443547,40.061979 c 0,-10.973542 1.01045,-22.670418 4.9401601,-32.1417498 7.3668369,-2.036083 15.4670749,-3.170617 23.6439369,-3.3023039 0.525421,-0.01013 1.061788,-0.01013 1.587209,-0.01013 m 0,-1.0129766 c -0.536367,0 -1.072734,0 -1.609101,0.01013 C 23.785105,3.7366356 15.509726,4.891429 8.0662653,6.9477716 L 7.5517907,7.0895883 7.3547579,7.5555576 C 3.3812628,17.128188 2.3742062,28.755311 2.3742062,40.061979 c 0,11.306668 0.9194864,22.457692 4.7287876,31.888505 l 0.1860865,0.45584 0.5035283,0.151947 c 8.0673984,2.431144 17.1090154,3.798662 26.1506324,3.950608 h 0.207979 c 0.525421,0.01013 1.061788,0.02026 1.609101,0.02026 8.932155,0 17.514028,-1.124404 25.51575,-3.342823 l 0.514475,-0.141816 0.197032,-0.46597 c 3.984442,-9.55237 5.002445,-21.180489 5.002445,-32.516551 0,-11.336062 -0.919487,-22.457692 -4.739734,-31.8986353 L 62.064202,7.7075041 61.560674,7.5555576 C 53.471382,5.1345434 44.429765,3.7670249 35.420987,3.6150784 c -0.634884,-0.01013 -1.215036,-0.020259 -1.806134,-0.02026 z"
       style="fill:#000000;stroke:#000000;stroke-width:1.95382714;stroke-miterlimit:4;stroke-dasharray:none" />
    <g
       id="g1810">
      <path
         d="M 6.5134911,7.7433673 C 5.6489029,6.8479453 4.058602,6.5681013 3.6272194,7.3820013 3.284151,8.0292783 3.3625296,8.5309135 4.395235,8.9201755 3.2963719,9.5187755 1.4857674,9.4447465 1.1893447,7.4467713 0.95320848,5.8551433 2.674739,4.8863543 3.1399725,5.0916244 3.0034432,3.6818714 1.8221094,4.0692802 0.95849208,3.2813384 0.34259068,2.7194046 0.23126071,-0.02624603 0.0561761,0.04378767 -0.0138576,0.21887227 2.7317937,0.33020157 3.2937267,0.94610377 4.0816685,1.8097211 3.6942598,2.9910547 5.1040128,3.1275841 4.8987425,2.6623507 5.8675315,0.94082017 7.4591593,1.1769564 9.4571345,1.4733791 9.5311625,3.2839847 8.9325635,4.3828467 8.5433008,3.3501417 8.041666,3.2717627 7.3943894,3.6148312 6.5804899,4.0462137 6.8603354,5.6365129 7.7557553,6.5011023"
         style="fill:#000000;stroke:#000000;stroke-width:0.1112323px;stroke-linecap:butt;stroke-linejoin:miter;stroke-opacity:1"
         id="path1737-3" />
      <path
         d="m 62.850738,7.7433673 c 0.864588,-0.895422 2.454889,-1.175266 2.886271,-0.361366 0.343069,0.647277 0.26469,1.148912 -0.768015,1.538174 1.098863,0.5986 2.909467,0.524571 3.20589,-1.473404 0.236136,-1.591628 -1.485394,-2.560417 -1.950628,-2.3551469 0.13653,-1.409753 1.317863,-1.0223442 2.181481,-1.810286 0.615901,-0.5619338 0.727231,-3.30758442 0.902316,-3.23755072 0.07003,0.1750846 -2.675618,0.2864139 -3.237551,0.9023161 C 65.28256,1.8097211 65.669969,2.9910547 64.260216,3.1275841 64.465486,2.6623507 63.496697,0.94082018 61.905069,1.1769564 c -1.997975,0.2964227 -2.072003,2.1070283 -1.473404,3.2058903 0.389263,-1.032705 0.890898,-1.111084 1.538174,-0.7680155 0.8139,0.4313825 0.534054,2.0216817 -0.361366,2.8862711"
         style="fill:#000000;stroke:#000000;stroke-width:0.1112323px;stroke-linecap:butt;stroke-linejoin:miter;stroke-opacity:1"
         id="path1737-3-5" />
      <path
         d="m 62.850738,72.244244 c 0.864588,0.895422 2.454889,1.175266 2.886272,0.361366 0.343068,-0.647277 0.264689,-1.148912 -0.768016,-1.538174 1.098863,-0.5986 2.909468,-0.524571 3.20589,1.473404 0.236137,1.591628 -1.485394,2.560417 -1.950628,2.355147 0.13653,1.409753 1.317864,1.022344 2.181481,1.810286 0.615901,0.561934 0.727231,3.307584 0.902316,3.237551 0.07003,-0.175085 -2.675618,-0.286414 -3.237551,-0.902317 -0.787942,-0.863617 -0.400533,-2.04495 -1.810286,-2.18148 0.20527,0.465234 -0.763519,2.186764 -2.355146,1.950628 -1.997976,-0.296423 -2.072004,-2.107028 -1.473405,-3.20589 0.389263,1.032705 0.890898,1.111084 1.538175,0.768015 0.813899,-0.431382 0.534054,-2.021682 -0.361366,-2.886271"
         style="fill:#000000;stroke:#000000;stroke-width:0.1112323px;stroke-linecap:butt;stroke-linejoin:miter;stroke-opacity:1"
         id="path1737-3-7" />
      <path
         d="M 6.513491,72.244245 C 5.648903,73.139667 4.058602,73.419511 3.62722,72.605611 3.284151,71.958334 3.36253,71.456699 4.395235,71.067437 c -1.098863,-0.5986 -2.909467,-0.524571 -3.20589,1.473404 -0.23613599,1.591628 1.485394,2.560417 1.950628,2.355147 -0.13653,1.409753 -1.317863,1.022344 -2.18148099,1.810286 -0.615901,0.561933 -0.727231,3.307584 -0.902316,3.23755 C -0.01385399,79.76874 2.731794,79.65741 3.293727,79.041508 4.081669,78.177891 3.69426,76.996557 5.104013,76.860028 4.898743,77.325261 5.867532,79.046792 7.45916,78.810656 9.457135,78.514233 9.531163,76.703627 8.932564,75.604765 8.543301,76.63747 8.041666,76.715849 7.39439,76.372781 6.58049,75.941398 6.860336,74.351099 7.755756,73.48651"
         style="fill:#000000;stroke:#000000;stroke-width:0.1112323px;stroke-linecap:butt;stroke-linejoin:miter;stroke-opacity:1"
         id="path1737-3-5-5" />
    </g>
    <path
       id="path1154-9"
       d="m 33.712865,7.4258691 c 0.536813,0 1.07363,0.00933 1.620386,0.01865 8.111875,0.1398689 16.174044,1.3707167 23.450873,3.5806479 3.439594,8.615932 4.277395,18.944521 4.277395,29.036812 0,10.092292 -0.917329,20.877786 -4.506039,29.596289 -7.157536,2.014114 -14.851888,3.03982 -22.884234,3.03982 -0.487111,0 -0.974221,-0.0094 -1.461331,-0.01865 H 34.040918 C 25.909161,72.53957 17.846991,71.308722 10.580105,69.089467 7.1504515,60.492184 6.3123238,50.163289 6.3123238,40.061979 c 0,-10.101311 0.9176558,-20.868461 4.4864832,-29.586965 6.690308,-1.8742449 14.046665,-2.9186005 21.472608,-3.0398203 0.47717,-0.00933 0.964281,-0.00933 1.44145,-0.00933 m 0,-0.9324602 c -0.487111,0 -0.974221,0 -1.46133,0.00933 C 24.785826,6.6239532 17.270413,7.686958 10.510517,9.5798526 L 10.043289,9.710397 9.8643508,10.139328 c -3.6085914,8.811751 -4.5231655,19.514693 -4.5231655,29.922651 0,10.407958 0.8350459,20.672644 4.294522,29.353849 l 0.1689973,0.419608 0.4572874,0.13987 c 7.326533,2.237904 15.537818,3.496724 23.749103,3.636593 h 0.188879 c 0.47717,0.0094 0.96428,0.01865 1.461331,0.01865 8.111875,0 15.905636,-1.035031 23.172525,-3.077119 l 0.467228,-0.130544 0.178938,-0.428932 c 3.618533,-8.793101 4.543048,-19.496959 4.543048,-29.931975 0,-10.435016 -0.835047,-20.672644 -4.304463,-29.363174 l -0.168997,-0.419609 -0.457288,-0.13987 C 51.74588,7.9107484 43.534594,6.6519271 35.353133,6.512058 34.776554,6.502738 34.249678,6.493409 33.712865,6.493409 Z"
       style="fill:#000000;stroke:none;stroke-width:1.78642213;stroke-miterlimit:4;stroke-dasharray:none" />
    <path
       id="path1154-9-3"
       d="m 33.712865,7.4258686 c 0.536813,0 1.07363,0.00933 1.620386,0.01865 8.111875,0.1398689 16.174044,1.3707167 23.450873,3.5806484 3.439594,8.615932 4.277395,18.944521 4.277395,29.036812 0,10.092292 -0.917329,20.877786 -4.506039,29.596288 -7.157536,2.014114 -14.851888,3.03982 -22.884234,3.03982 -0.487111,0 -0.974221,-0.0094 -1.461331,-0.01865 H 34.040918 C 25.909161,72.539569 17.846991,71.308722 10.580105,69.089466 7.1504515,60.492184 6.3123238,50.163288 6.3123238,40.061979 c 0,-10.101312 0.9176558,-20.868461 4.4864832,-29.586965 6.690308,-1.8742454 14.046665,-2.918601 21.472608,-3.0398208 0.47717,-0.00933 0.964281,-0.00933 1.44145,-0.00933 m 0,-0.9324602 c -0.487111,0 -0.974221,0 -1.46133,0.00933 C 24.785826,6.6239527 17.270413,7.6869575 10.510517,9.5798521 L 10.043289,9.7103965 9.8643508,10.139328 C 6.2557594,18.951079 5.3411853,29.65402 5.3411853,40.061979 c 0,10.407958 0.8350459,20.672643 4.294522,29.353849 l 0.1689973,0.419608 0.4572874,0.13987 c 7.326533,2.237904 15.537818,3.496724 23.749103,3.636593 h 0.188879 c 0.47717,0.0094 0.96428,0.01865 1.461331,0.01865 8.111875,0 15.905636,-1.035032 23.172525,-3.077119 l 0.467228,-0.130544 0.178938,-0.428932 c 3.618533,-8.793101 4.543048,-19.49696 4.543048,-29.931975 0,-10.435016 -0.835047,-20.672644 -4.304463,-29.363175 l -0.168997,-0.419609 -0.457288,-0.13987 C 51.74588,7.9107479 43.534594,6.6519266 35.353133,6.5120575 34.776554,6.5027375 34.249678,6.4934085 33.712865,6.4934085 Z"
       style="fill:#000000;stroke:none;stroke-width:1.78642213;stroke-miterlimit:4;stroke-dasharray:none" />
  </g>
</svg>
