<svg id="Capa_2" xmlns="http://www.w3.org/2000/svg" xmlns:xlink="http://www.w3.org/1999/xlink" viewBox="0 0 69.02 80">
<defs >
<style >
.cls-1{fill:#c89aed;}.cls-2{fill:#fff;}.cls-3{fill:#f8ffbf;}.cls-4{fill:#7b7be8;}.cls-5{fill:#a88347;}.cls-6{fill:#782ab5;}.cls-7{stroke:#000;stroke-miterlimit:10;}.cls-7,.cls-8,.cls-9,.cls-10{fill:none;}.cls-11{fill:#1c46ff;}.cls-8{stroke:#deb778;stroke-dasharray:0 0 0 4.06;stroke-linecap:round;stroke-linejoin:round;}.cls-12{fill:#deb778;}.cls-13{fill:url(#USGS_19_Inundación_de_tierra_2);}.cls-10{stroke:#1d1d1b;stroke-dasharray:0 0 2 2;stroke-width:.3px;}.cls-14{fill:#cf5f2b;}.cls-15{fill:#fcf0c5;}.cls-16{fill:#b83521;}
</style>
<pattern id="USGS_19_Inundación_de_tierra_2" x="0" y="0" width="72" height="72" patternTransform="translate(-92.48 -16423) rotate(-90)" patternUnits="userSpaceOnUse" viewBox="0 0 72 72">
<g >
<rect class="cls-9" width="72" height="72">
</rect>
<g >
<line class="cls-10" x1="71" y1="71" x2="144.44" y2="71">
</line>
<line class="cls-10" x1="71" y1="67" x2="144.44" y2="67">
</line>
<line class="cls-10" x1="71" y1="63" x2="144.44" y2="63">
</line>
<line class="cls-10" x1="71" y1="59" x2="144.44" y2="59">
</line>
<line class="cls-10" x1="71" y1="55" x2="144.44" y2="55">
</line>
<line class="cls-10" x1="71" y1="51" x2="144.44" y2="51">
</line>
<line class="cls-10" x1="71" y1="47" x2="144.44" y2="47">
</line>
<line class="cls-10" x1="71" y1="43" x2="144.44" y2="43">
</line>
<line class="cls-10" x1="71" y1="39" x2="144.44" y2="39">
</line>
<line class="cls-10" x1="71" y1="35" x2="144.44" y2="35">
</line>
<line class="cls-10" x1="71" y1="31" x2="144.44" y2="31">
</line>
<line class="cls-10" x1="71" y1="27" x2="144.44" y2="27">
</line>
<line class="cls-10" x1="71" y1="23" x2="144.44" y2="23">
</line>
<line class="cls-10" x1="71" y1="19" x2="144.44" y2="19">
</line>
<line class="cls-10" x1="71" y1="15" x2="144.44" y2="15">
</line>
<line class="cls-10" x1="71" y1="11" x2="144.44" y2="11">
</line>
<line class="cls-10" x1="71" y1="7" x2="144.44" y2="7">
</line>
<line class="cls-10" x1="71" y1="3" x2="144.44" y2="3">
</line>
</g>
<g >
<line class="cls-10" x1="-1" y1="71" x2="72.44" y2="71">
</line>
<line class="cls-10" x1="-1" y1="67" x2="72.44" y2="67">
</line>
<line class="cls-10" x1="-1" y1="63" x2="72.44" y2="63">
</line>
<line class="cls-10" x1="-1" y1="59" x2="72.44" y2="59">
</line>
<line class="cls-10" x1="-1" y1="55" x2="72.44" y2="55">
</line>
<line class="cls-10" x1="-1" y1="51" x2="72.44" y2="51">
</line>
<line class="cls-10" x1="-1" y1="47" x2="72.44" y2="47">
</line>
<line class="cls-10" x1="-1" y1="43" x2="72.44" y2="43">
</line>
<line class="cls-10" x1="-1" y1="39" x2="72.44" y2="39">
</line>
<line class="cls-10" x1="-1" y1="35" x2="72.44" y2="35">
</line>
<line class="cls-10" x1="-1" y1="31" x2="72.44" y2="31">
</line>
<line class="cls-10" x1="-1" y1="27" x2="72.44" y2="27">
</line>
<line class="cls-10" x1="-1" y1="23" x2="72.44" y2="23">
</line>
<line class="cls-10" x1="-1" y1="19" x2="72.44" y2="19">
</line>
<line class="cls-10" x1="-1" y1="15" x2="72.44" y2="15">
</line>
<line class="cls-10" x1="-1" y1="11" x2="72.44" y2="11">
</line>
<line class="cls-10" x1="-1" y1="7" x2="72.44" y2="7">
</line>
<line class="cls-10" x1="-1" y1="3" x2="72.44" y2="3">
</line>
<line class="cls-10" x1="1.04" y1="69" x2="74.48" y2="69">
</line>
<line class="cls-10" x1="1.04" y1="65" x2="74.48" y2="65">
</line>
<line class="cls-10" x1="1.04" y1="61" x2="74.48" y2="61">
</line>
<line class="cls-10" x1="1.04" y1="57" x2="74.48" y2="57">
</line>
<line class="cls-10" x1="1.04" y1="53" x2="74.48" y2="53">
</line>
<line class="cls-10" x1="1.04" y1="49" x2="74.48" y2="49">
</line>
<line class="cls-10" x1="1.04" y1="45" x2="74.48" y2="45">
</line>
<line class="cls-10" x1="1.04" y1="41" x2="74.48" y2="41">
</line>
<line class="cls-10" x1="1.04" y1="37" x2="74.48" y2="37">
</line>
<line class="cls-10" x1="1.04" y1="33" x2="74.48" y2="33">
</line>
<line class="cls-10" x1="1.04" y1="29" x2="74.48" y2="29">
</line>
<line class="cls-10" x1="1.04" y1="25" x2="74.48" y2="25">
</line>
<line class="cls-10" x1="1.04" y1="21" x2="74.48" y2="21">
</line>
<line class="cls-10" x1="1.04" y1="17" x2="74.48" y2="17">
</line>
<line class="cls-10" x1="1.04" y1="13" x2="74.48" y2="13">
</line>
<line class="cls-10" x1="1.04" y1="9" x2="74.48" y2="9">
</line>
<line class="cls-10" x1="1.04" y1="5" x2="74.48" y2="5">
</line>
<line class="cls-10" x1="1.04" y1="1" x2="74.48" y2="1">
</line>
</g>
<g >
<line class="cls-10" x1="-73" y1="71" x2=".44" y2="71">
</line>
<line class="cls-10" x1="-73" y1="67" x2=".44" y2="67">
</line>
<line class="cls-10" x1="-73" y1="63" x2=".44" y2="63">
</line>
<line class="cls-10" x1="-73" y1="59" x2=".44" y2="59">
</line>
<line class="cls-10" x1="-73" y1="55" x2=".44" y2="55">
</line>
<line class="cls-10" x1="-73" y1="51" x2=".44" y2="51">
</line>
<line class="cls-10" x1="-73" y1="47" x2=".44" y2="47">
</line>
<line class="cls-10" x1="-73" y1="43" x2=".44" y2="43">
</line>
<line class="cls-10" x1="-73" y1="39" x2=".44" y2="39">
</line>
<line class="cls-10" x1="-73" y1="35" x2=".44" y2="35">
</line>
<line class="cls-10" x1="-73" y1="31" x2=".44" y2="31">
</line>
<line class="cls-10" x1="-73" y1="27" x2=".44" y2="27">
</line>
<line class="cls-10" x1="-73" y1="23" x2=".44" y2="23">
</line>
<line class="cls-10" x1="-73" y1="19" x2=".44" y2="19">
</line>
<line class="cls-10" x1="-73" y1="15" x2=".44" y2="15">
</line>
<line class="cls-10" x1="-73" y1="11" x2=".44" y2="11">
</line>
<line class="cls-10" x1="-73" y1="7" x2=".44" y2="7">
</line>
<line class="cls-10" x1="-73" y1="3" x2=".44" y2="3">
</line>
<line class="cls-10" x1="-70.96" y1="69" x2="2.48" y2="69">
</line>
<line class="cls-10" x1="-70.96" y1="65" x2="2.48" y2="65">
</line>
<line class="cls-10" x1="-70.96" y1="61" x2="2.48" y2="61">
</line>
<line class="cls-10" x1="-70.96" y1="57" x2="2.48" y2="57">
</line>
<line class="cls-10" x1="-70.96" y1="53" x2="2.48" y2="53">
</line>
<line class="cls-10" x1="-70.96" y1="49" x2="2.48" y2="49">
</line>
<line class="cls-10" x1="-70.96" y1="45" x2="2.48" y2="45">
</line>
<line class="cls-10" x1="-70.96" y1="41" x2="2.48" y2="41">
</line>
<line class="cls-10" x1="-70.96" y1="37" x2="2.48" y2="37">
</line>
<line class="cls-10" x1="-70.96" y1="33" x2="2.48" y2="33">
</line>
<line class="cls-10" x1="-70.96" y1="29" x2="2.48" y2="29">
</line>
<line class="cls-10" x1="-70.96" y1="25" x2="2.48" y2="25">
</line>
<line class="cls-10" x1="-70.96" y1="21" x2="2.48" y2="21">
</line>
<line class="cls-10" x1="-70.96" y1="17" x2="2.48" y2="17">
</line>
<line class="cls-10" x1="-70.96" y1="13" x2="2.48" y2="13">
</line>
<line class="cls-10" x1="-70.96" y1="9" x2="2.48" y2="9">
</line>
<line class="cls-10" x1="-70.96" y1="5" x2="2.48" y2="5">
</line>
<line class="cls-10" x1="-70.96" y1="1" x2="2.48" y2="1">
</line>
</g>
</g>
</pattern>
</defs>
  <path
     style="opacity:1;vector-effect:none;fill:#cccccc;fill-opacity:1;fill-rule:nonzero;stroke:none;stroke-width:4.49546146;stroke-linecap:butt;stroke-linejoin:miter;stroke-miterlimit:4;stroke-dasharray:none;stroke-dashoffset:0;stroke-opacity:1"
     d="M -0.08007812,0.36132812 V 80.361328 H 68.919922 V 0.36132812 Z"
     id="rect4304"/>

<g id="Capa_9">
<g >
<g >
<path class="cls-1" d="M59.77,72.79s-11.19,3.62-20.4,3.73c-9.21,.11-28.07-4.28-28.07-4.28l14.91-4.61-.18-4.72-.04-1.09s-2.74-2.74-3.18-3.95c-1.64-.33-2.41-1.97-2.41-1.97,0,0-6.14,.77-6.58-5.26-2.52-2.31-3.51-6.69,2.08-10.2-1.09-2.74-.66-4.28,.99-5.38,.23-.15,.46-.32,.68-.51,1.36-1.12,2.5-2.67,2.5-2.67,0,0-2.96-14.14-2.96-16.45,5.37-3.72,21.27-10.19,35.2,.55-1.66,10.52-2.7,15.14-2.99,16.34-.05,.23-.08,.33-.08,.33,0,0,4.17,2.52,4.6,4.06,.44,1.53-.43,3.4-.43,3.4,0,0,4.16,2.96,4.05,6.8-.55,3.4-2.3,3.73-2.3,3.73,0,0-.22,3.18-1.75,4.16-1.87,1.1-4.83,.99-4.83,.99,0,0-.55,1.75-2.19,1.86-.6,2.72-3.05,3.87-3.45,4.04-.04,.01-.06,.02-.06,.02l-.11,5.48,17,5.6Z">
</path>
<path class="cls-2" d="M34.64,63.49v-30.36s3.16,3.57,7.03,3.35c-.11,2.46,2.81,4.35,5.18,4.51,1.27,2.19,2.08,2.59,2.08,2.59,0,0-3.03,11.69-6.54,16.03-4.06,4.24-7.75,3.88-7.75,3.88Z">
</path>
<path class="cls-4" d="M30.87,46.69s3.41-1.49,1.36-6.27c-2.96,.32-6.69,.68-9.01,2.82,.32,2.09,.91,3.09,2.05,3.5s5.6-.05,5.6-.05Z">
</path>
<path class="cls-4" d="M38.25,46.71s-3.41-1.49-1.36-6.27c2.96,.32,6.69,.68,9.01,2.82-.32,2.09-.91,3.09-2.05,3.5s-5.6-.05-5.6-.05Z">
</path>
<path class="cls-16" d="M57.46,46.91c-.55,3.4-2.3,3.73-2.3,3.73,0,0-.22,3.18-1.75,4.16-1.87,1.1-4.83,.99-4.83,.99,0,0-.55,1.75-2.19,1.86-.6,2.72-3.05,3.87-3.45,4.04-.13-.68-.19-1.53-.1-2.58,.83-2.17,5.26-9.68,6.09-15.52-.58-.25-2.08-2.59-2.08-2.59,0,0-4.42-.23-5.18-4.51-6.51,0-7.34-4.17-7.34-4.17,0,0-1.25,3.42-6.34,4.26-1.59,4.25-5.76,4.59-5.76,4.59,0,0-.25,.58-1.92,2.58,.83,8.35,6.01,15.36,6.01,15.36l.08,3.59-.37,.21-.04-1.09s-2.74-2.74-3.18-3.95c-1.64-.33-2.41-1.97-2.41-1.97,0,0-6.14,.77-6.58-5.26-2.52-2.31-3.51-6.69,2.08-10.2-1.09-2.74-.66-4.28,.99-5.38,.23-.15,.46-.32,.68-.51l1.57-.81s-.25-.92,2.34-3.25c4.5-2.67,13.35-2.92,13.35-2.92,0,0,10.6,0,14.27,4.5,.07,.08,.15,.17,.22,.25-.05,.23-.08,.33-.08,.33,0,0,4.17,2.52,4.6,4.06,.44,1.53-.43,3.4-.43,3.4,0,0,4.16,2.96,4.05,6.8Z">
</path>
<path class="cls-2" d="M19.55,31.67l-2.27-15.54s8.29-6.63,18.07-5.59c9.78,.96,16.67,5.41,16.67,5.41l-2.78,16.69s-2.46-4.47-12.06-4.82-13.53,1.05-17.63,3.84Z">
</path>
<path class="cls-2" d="M26.21,67.63s4.43,3.83,8.93,3.74c4.67-.18,7.67-3.79,7.67-3.79l16.67,5.03s-17.46,5.38-27.96,4.06-18.96-4.94-18.96-4.94l13.65-4.09Z">
</path>
<path d="M42.46,60.23l-16.24,15.13-13.65-2.67,1.48-1.48,12.15-3.58,.38-8.44s4.45,4.08,6.01,4.67c3.86,.22,4.08-.15,4.08-.15l5.79-3.49Z">
</path>
<path class="cls-3" d="M30.87,46.69s-.46-2.22-1.75-2.94c-1.91-.41-2.68-.1-3.14,.41s-1.39,2.01-1.39,2.01c0,0,1.37,1.39,3.07,1.7,1.86,.31,3.22-1.18,3.22-1.18Z">
</path>
<path class="cls-3" d="M38.11,46.69s.46-2.22,1.75-2.94c1.91-.41,2.68-.1,3.14,.41s1.39,2.01,1.39,2.01c0,0-1.37,1.39-3.07,1.7-1.86,.31-3.22-1.18-3.22-1.18Z">
</path>
<path class="cls-1" d="M34.6,34.6c1.4,1.72,3.64,2.82,6.04,2.93,.66,2.57,2.97,4.47,5.65,4.6,.4,.59,.87,1.15,1.4,1.64-.5,2.74-3.21,15.44-11.27,18.55-.17,.06-.81,.16-1.87,.16s-1.7-.1-1.85-.15c-8.13-3.13-10.82-15.96-11.27-18.48,.55-.49,1.04-1.05,1.46-1.66,2.69-.12,5.03-2.02,5.72-4.59,2.41-.15,4.53-1.17,5.86-2.84,.04-.05,.09-.1,.13-.16m-.02-1.35c-.19,.37-.41,.71-.68,1.02-1.41,1.77-3.67,2.6-5.9,2.6-.42,2.62-2.74,4.58-5.38,4.58-.05,0-.09,0-.14,0-.49,.79-1.13,1.52-1.86,2.11,.18,1.16,2.74,15.98,11.81,19.47,.37,.14,1.24,.2,2.12,.2s1.76-.07,2.13-.2c9.38-3.62,11.79-19.38,11.82-19.54-.71-.6-1.33-1.32-1.8-2.1-.04,0-.08,0-.12,0-2.65,0-4.95-1.97-5.33-4.6-.08,0-.16,0-.23,0-2.59,0-5.17-1.28-6.44-3.54h0Z">
</path>
<path class="cls-2" d="M25.75,49.1c.79,.16,2.03,.3,3.41,0,.59-.12,1.08,.47,.84,1.02-1.21,2.78-1.77,3.19-2.81,3.19-.98,0-2.1-1.79-2.32-3.41-.07-.5,.39-.92,.88-.81Z">
</path>
<path class="cls-14" d="M41.67,36.49s2.72,1.62,4.39-.75,3.97,1.81,4.88,.77-.14-2.51-.14-2.51c3.55,1.74,3.14,4.74,2.37,6.34,2.37,1.32,2.86,2.37,2.86,2.37,0,0-4.25-2.93-7.8,.07-1.11-1.32-1.37-1.78-1.37-1.78,0,0-4.7,.35-5.18-4.51Z">
</path>
<path class="cls-14" d="M27.79,36.22s-3.07,1.39-3.95-.44c-2.63,1.68-5.56-.66-4.97-2.19-3.88,2.19-4.54,4.39-3.15,6.51,2.19-.88,2.34,1.39,4.24,1.61s2.78-.66,2.78-.66c0,0,4.46-.66,5.05-4.83Z">
</path>
<path d="M20.61,44.57s-3.77,3.58-9.1,1.5c.33,1.43,.39,1.69,.39,1.69,0,0,5.14,.07,7.93-.98-1.69,2.21-6.7,2.6-6.7,2.6l.98,.98s-.78,3.25,1.17,4.49,5.12,1.05,5.12,1.05c0,0,.66,1.87,2.35,2.2,1.76,2.93,3.71,4.16,3.71,4.16l-.26-3.51s-4.49-7.74-5.59-14.17Z">
</path>
<path d="M48.89,43.92s2.73,1.82,7.54,.39c1.11,1.43,.85,2.34,.85,2.34,0,0-4.94,.07-7.28-1.17,1.82,3.06,5.16,5.16,5.16,5.16,0,0,.2,5.96-6.58,5.15-.21,1.85-2.19,1.86-2.19,1.86,0,0-1.01,3.67-3.45,4.04,.03-2.36,.1-3.01,.1-3.01,0,0,4.81-7.54,5.85-14.76Z">
</path>
<path class="cls-1" d="M29.97,10.92l1.19,17.03s-5.44,.01-9.69,2.54c-1.66-10.51-2.76-15.39-2.76-15.39,0,0,4.18-3.78,11.25-4.18Z">
</path>
<path class="cls-7" d="M19.85,32.45s-1.64-6.65-2.69-16.73c18.37-12.4,34.95,.07,34.95,.07,0,0-1.49,12.92-2.69,16.58">
</path>
<path class="cls-7" d="M42.49,61.85c2.87-.82,3.82-4.03,3.82-4.03,0,0,1.57,0,2.25-2.18,2.18,.61,7.1-.41,6.48-5.12,3.28-2.73,3.41-6.42-1.91-10.24,2.53-4.98-2.05-5.26-3.62-7.37-3.48-5.66-13.67-5.12-13.67-5.12h-2.49s-10.38-.55-13.86,5.12c-1.57,2.12-6.14,2.39-3.62,7.37-5.32,3.82-5.19,7.51-1.91,10.24-.61,4.71,4.3,5.73,6.48,5.12,.68,2.18,2.25,2.18,2.25,2.18,0,0,.96,3.21,3.82,4.03">
</path>
<path d="M54.48,44.63c-3.1,1.37-6.36-.73-7.91-3.44,0,0,.37,.21,.37,.21-2.9,.2-5.51-2.01-5.75-4.93,0,0,.37,.32,.37,.32-3.15,.23-6.42-1.51-7.45-4.58,0,0,.94,0,.94,0-.29,.73-.62,1.46-1.15,2.07-1.5,1.88-3.96,2.71-6.31,2.6,0,0,.46-.4,.46-.4-.25,2.95-2.9,5.19-5.84,4.97,0,0,.41-.23,.41-.23-1.56,2.71-4.86,4.81-7.95,3.42,3.27,1.04,5.97-1.26,7.27-4.07,2.95,.13,5.08-1.58,5.27-4.56,2.85,.16,5.98-1.24,6.89-4.12,0,0,.48-1.18,.48-1.18l.46,1.18c.83,2.75,3.73,4.22,6.47,4.22,0,0,.34,0,.34,0,.1,2.66,2.39,4.71,5.06,4.49,0,0,.26,.02,.26,.02l.11,.19c1.23,2.69,4.12,4.88,7.19,3.84h0Z">
</path>
<path class="cls-7" d="M48.99,43.56s-2.36,16.17-12.14,19.94c-.85,.31-3.75,.31-4.6,0-9.78-3.77-12.14-19.94-12.14-19.94">
</path>
<path d="M23.09,43.27s1.31-1.81,2.62-2.2,4.51-1.19,6.51-.65c-1.66,1.43-3.51,.89-5.24,1.19s-3.16,1.5-3.89,1.66Z">
</path>
<path d="M46.02,43.27s-1.31-1.81-2.62-2.2-4.51-1.19-6.51-.65c1.66,1.43,3.51,.89,5.24,1.19s3.16,1.5,3.89,1.66Z">
</path>
<path d="M30.88,46.63c-.43-1.04-1.06-1.98-2.03-2.5l.23,.07c-.77,.02-1.77-.1-2.42,.21-.34,.19-.58,.65-.89,.9-.36,.33-.76,.6-1.2,.78,.41-.57,.78-1.1,1.07-1.72,.64-1.39,2.4-1.18,3.62-1.13,1.15,.7,1.82,2.08,1.63,3.38h0Z">
</path>
<path d="M25.5,46.83c1.54,.53,2.68,.71,4.32,.61-1.2,1.18-3.48,.84-4.32-.61h0Z">
</path>
<path d="M38.11,46.63c-.19-1.31,.49-2.68,1.63-3.38,1.22-.06,2.98-.27,3.62,1.13,.29,.62,.67,1.14,1.07,1.72-.44-.19-.84-.46-1.2-.78-.32-.25-.55-.71-.89-.9-.65-.31-1.65-.19-2.42-.21,0,0,.23-.07,.23-.07-.97,.52-1.6,1.46-2.03,2.5h0Z">
</path>
<path d="M43.49,46.83c-.83,1.44-3.12,1.79-4.32,.61,1.63,.11,2.78-.07,4.32-.61h0Z">
</path>
<path d="M36.33,48.86c1.75,1.41-.65,2.76-1.89,3.38-.73-.32-1.41-.79-1.97-1.31-.14-.13-.34-.28-.43-.46-.33-.58,.05-1.29,.5-1.61-.1,.34-.18,.68-.12,.95,.02,.13,.08,.23,.16,.29,.64,.38,1.42,.84,2.07,1.14,0,0-.42,0-.42,0,.65-.3,1.42-.76,2.06-1.14,.31-.31,.16-.8,.04-1.24h0Z">
</path>
<path class="cls-16" d="M30.95,56.58s.51,3.54,3.5,3.54,3.84-3.44,3.84-3.44l-2.33-1.88-2.56-.09-2.45,1.86Z">
</path>
<path class="cls-2" d="M32.01,56.1s.86,1.93,2.46,1.93,2.65-1.74,2.65-1.74c0,0-.66-.97-2.37-1.16s-2.73,.97-2.73,.97Z">
</path>
<path d="M37.5,56.62c-.92-.64-1.59-1.19-2.93-.74h-.1c-1.34-.45-2.01,.1-2.92,.74-.84,.59-1.55-.11-1.67-.25,.11,.06,.65,.33,1.03-.41,.43-.83,1.82-3.08,3.61-1.98,1.8-1.1,3.19,1.15,3.61,1.98,.38,.74,.92,.47,1.03,.41-.12,.14-.83,.84-1.66,.25Z">
</path>
<path d="M32.5,41.65c1.24,1.27,.75,3.22,.41,4.77-.37-1.62,.18-3.21-.41-4.77h0Z">
</path>
<path d="M36.56,41.65c-.59,1.56-.04,3.16-.41,4.77-.34-1.55-.83-3.5,.41-4.77h0Z">
</path>
<polyline class="cls-7" points="26.33 59.05 26.33 67.57 9.71 72.37">
</polyline>
<polyline class="cls-7" points="42.81 59.05 42.81 67.57 59.43 72.37">
</polyline>
<path class="cls-7" d="M26.33,67.57s3.48,3.78,8.56,3.78,7.93-3.78,7.93-3.78">
</path>
<rect class="cls-16" x="32.77" y="15.55" width="3.52" height="8.08">
</rect>
<path class="cls-16" d="M39.63,19.3c-4.49-2.56-10.21-.27-10.21-.27v2.86s5.72-2.29,10.21,.27v-2.86Z">
</path>
</g>
<path class="cls-11" d="M27.25,63.68c.39,1.59,.59,3.2,.72,4.83-2.59,1.03-5.26,1.85-7.98,2.44-1.5,.27-3.12,.59-4.66,.64,0,0-.03-.1-.03-.1,3.84-1.1,8.23-2.62,11.82-3.47,0,0,.03-4.35,.03-4.35h.1Z">
</path>
<path class="cls-11" d="M14.54,50.8c.94,3.29,3.93,3.58,6.86,3.43,.12,.74,.33,1.74,1.03,2.05,0,0,.7,.46,.7,.46,.73,1.57,1.43,3.32,2.95,4.31,0,0-.02,.1-.02,.1-.93-.26-1.63-.95-2.22-1.67-.59-.72-1.09-1.52-1.51-2.35l.07,.05c-1.01-.12-1.61-1.1-1.82-2.01,0,0,.1,.08,.1,.08-1.41,.03-2.93-.11-4.16-.86-1.24-.74-2.05-2.13-2.07-3.58h.1Z">
</path>
</g>
</g>

  <path
     style="opacity:1;vector-effect:none;fill:#8d5fd3;fill-opacity:1;fill-rule:nonzero;stroke:none;stroke-width:2.35769176;stroke-linecap:butt;stroke-linejoin:miter;stroke-miterlimit:4;stroke-dasharray:none;stroke-dashoffset:0;stroke-opacity:0.44186048"
     d="M 0,1.2e-7 V 80 H 69 V 1.2e-7 Z M 35.240234,4.658203 c 6.067554,0.1120422 16.269844,1.4698438 23.589844,3.8398438 3.46,9.2400002 5.269531,19.9506252 5.269531,31.1406252 0,11.47 -1.89,22.390234 -5.5,31.740234 -7.2,2.16 -14.940375,3.376539 -23.019531,3.259766 -8.580486,-0.124019 -18.036001,-1.572896 -25.240234,-3.86914 -3.4500003,-9.22 -5.2597659,-19.930859 -5.2597659,-31.130859 0,-11.2 1.8904687,-22.380469 5.4804689,-31.730469 C 17.682894,5.1336941 29.17268,4.5461608 35.240234,4.658203 Z"
     id="rect4304" />


</svg>
