<svg id="Capa_2" xmlns="http://www.w3.org/2000/svg" xmlns:xlink="http://www.w3.org/1999/xlink" viewBox="0 0 69.02 80">
<defs >
<style >
.cls-1{fill:#c89aed;}.cls-2{fill:#fff;}.cls-3{fill:#f8ffbf;}.cls-4{fill:#7b7be8;}.cls-5{fill:#a88347;}.cls-6{fill:#782ab5;}.cls-7{stroke:#000;stroke-miterlimit:10;}.cls-7,.cls-8,.cls-9,.cls-10{fill:none;}.cls-11{fill:#1c46ff;}.cls-8{stroke:#deb778;stroke-dasharray:0 0 0 4.06;stroke-linecap:round;stroke-linejoin:round;}.cls-12{fill:#deb778;}.cls-13{fill:url(#USGS_19_Inundación_de_tierra_2);}.cls-10{stroke:#1d1d1b;stroke-dasharray:0 0 2 2;stroke-width:.3px;}.cls-14{fill:#fcf0c5;}
</style>
<pattern id="USGS_19_Inundación_de_tierra_2" x="0" y="0" width="72" height="72" patternTransform="translate(-164.48 -16423) rotate(-90)" patternUnits="userSpaceOnUse" viewBox="0 0 72 72">
<g >
<rect class="cls-9" width="72" height="72">
</rect>
<g >
<line class="cls-10" x1="71" y1="71" x2="144.44" y2="71">
</line>
<line class="cls-10" x1="71" y1="67" x2="144.44" y2="67">
</line>
<line class="cls-10" x1="71" y1="63" x2="144.44" y2="63">
</line>
<line class="cls-10" x1="71" y1="59" x2="144.44" y2="59">
</line>
<line class="cls-10" x1="71" y1="55" x2="144.44" y2="55">
</line>
<line class="cls-10" x1="71" y1="51" x2="144.44" y2="51">
</line>
<line class="cls-10" x1="71" y1="47" x2="144.44" y2="47">
</line>
<line class="cls-10" x1="71" y1="43" x2="144.44" y2="43">
</line>
<line class="cls-10" x1="71" y1="39" x2="144.44" y2="39">
</line>
<line class="cls-10" x1="71" y1="35" x2="144.44" y2="35">
</line>
<line class="cls-10" x1="71" y1="31" x2="144.44" y2="31">
</line>
<line class="cls-10" x1="71" y1="27" x2="144.44" y2="27">
</line>
<line class="cls-10" x1="71" y1="23" x2="144.44" y2="23">
</line>
<line class="cls-10" x1="71" y1="19" x2="144.44" y2="19">
</line>
<line class="cls-10" x1="71" y1="15" x2="144.44" y2="15">
</line>
<line class="cls-10" x1="71" y1="11" x2="144.44" y2="11">
</line>
<line class="cls-10" x1="71" y1="7" x2="144.44" y2="7">
</line>
<line class="cls-10" x1="71" y1="3" x2="144.44" y2="3">
</line>
</g>
<g >
<line class="cls-10" x1="-1" y1="71" x2="72.44" y2="71">
</line>
<line class="cls-10" x1="-1" y1="67" x2="72.44" y2="67">
</line>
<line class="cls-10" x1="-1" y1="63" x2="72.44" y2="63">
</line>
<line class="cls-10" x1="-1" y1="59" x2="72.44" y2="59">
</line>
<line class="cls-10" x1="-1" y1="55" x2="72.44" y2="55">
</line>
<line class="cls-10" x1="-1" y1="51" x2="72.44" y2="51">
</line>
<line class="cls-10" x1="-1" y1="47" x2="72.44" y2="47">
</line>
<line class="cls-10" x1="-1" y1="43" x2="72.44" y2="43">
</line>
<line class="cls-10" x1="-1" y1="39" x2="72.44" y2="39">
</line>
<line class="cls-10" x1="-1" y1="35" x2="72.44" y2="35">
</line>
<line class="cls-10" x1="-1" y1="31" x2="72.44" y2="31">
</line>
<line class="cls-10" x1="-1" y1="27" x2="72.44" y2="27">
</line>
<line class="cls-10" x1="-1" y1="23" x2="72.44" y2="23">
</line>
<line class="cls-10" x1="-1" y1="19" x2="72.44" y2="19">
</line>
<line class="cls-10" x1="-1" y1="15" x2="72.44" y2="15">
</line>
<line class="cls-10" x1="-1" y1="11" x2="72.44" y2="11">
</line>
<line class="cls-10" x1="-1" y1="7" x2="72.44" y2="7">
</line>
<line class="cls-10" x1="-1" y1="3" x2="72.44" y2="3">
</line>
<line class="cls-10" x1="1.04" y1="69" x2="74.48" y2="69">
</line>
<line class="cls-10" x1="1.04" y1="65" x2="74.48" y2="65">
</line>
<line class="cls-10" x1="1.04" y1="61" x2="74.48" y2="61">
</line>
<line class="cls-10" x1="1.04" y1="57" x2="74.48" y2="57">
</line>
<line class="cls-10" x1="1.04" y1="53" x2="74.48" y2="53">
</line>
<line class="cls-10" x1="1.04" y1="49" x2="74.48" y2="49">
</line>
<line class="cls-10" x1="1.04" y1="45" x2="74.48" y2="45">
</line>
<line class="cls-10" x1="1.04" y1="41" x2="74.48" y2="41">
</line>
<line class="cls-10" x1="1.04" y1="37" x2="74.48" y2="37">
</line>
<line class="cls-10" x1="1.04" y1="33" x2="74.48" y2="33">
</line>
<line class="cls-10" x1="1.04" y1="29" x2="74.48" y2="29">
</line>
<line class="cls-10" x1="1.04" y1="25" x2="74.48" y2="25">
</line>
<line class="cls-10" x1="1.04" y1="21" x2="74.48" y2="21">
</line>
<line class="cls-10" x1="1.04" y1="17" x2="74.48" y2="17">
</line>
<line class="cls-10" x1="1.04" y1="13" x2="74.48" y2="13">
</line>
<line class="cls-10" x1="1.04" y1="9" x2="74.48" y2="9">
</line>
<line class="cls-10" x1="1.04" y1="5" x2="74.48" y2="5">
</line>
<line class="cls-10" x1="1.04" y1="1" x2="74.48" y2="1">
</line>
</g>
<g >
<line class="cls-10" x1="-73" y1="71" x2=".44" y2="71">
</line>
<line class="cls-10" x1="-73" y1="67" x2=".44" y2="67">
</line>
<line class="cls-10" x1="-73" y1="63" x2=".44" y2="63">
</line>
<line class="cls-10" x1="-73" y1="59" x2=".44" y2="59">
</line>
<line class="cls-10" x1="-73" y1="55" x2=".44" y2="55">
</line>
<line class="cls-10" x1="-73" y1="51" x2=".44" y2="51">
</line>
<line class="cls-10" x1="-73" y1="47" x2=".44" y2="47">
</line>
<line class="cls-10" x1="-73" y1="43" x2=".44" y2="43">
</line>
<line class="cls-10" x1="-73" y1="39" x2=".44" y2="39">
</line>
<line class="cls-10" x1="-73" y1="35" x2=".44" y2="35">
</line>
<line class="cls-10" x1="-73" y1="31" x2=".44" y2="31">
</line>
<line class="cls-10" x1="-73" y1="27" x2=".44" y2="27">
</line>
<line class="cls-10" x1="-73" y1="23" x2=".44" y2="23">
</line>
<line class="cls-10" x1="-73" y1="19" x2=".44" y2="19">
</line>
<line class="cls-10" x1="-73" y1="15" x2=".44" y2="15">
</line>
<line class="cls-10" x1="-73" y1="11" x2=".44" y2="11">
</line>
<line class="cls-10" x1="-73" y1="7" x2=".44" y2="7">
</line>
<line class="cls-10" x1="-73" y1="3" x2=".44" y2="3">
</line>
<line class="cls-10" x1="-70.96" y1="69" x2="2.48" y2="69">
</line>
<line class="cls-10" x1="-70.96" y1="65" x2="2.48" y2="65">
</line>
<line class="cls-10" x1="-70.96" y1="61" x2="2.48" y2="61">
</line>
<line class="cls-10" x1="-70.96" y1="57" x2="2.48" y2="57">
</line>
<line class="cls-10" x1="-70.96" y1="53" x2="2.48" y2="53">
</line>
<line class="cls-10" x1="-70.96" y1="49" x2="2.48" y2="49">
</line>
<line class="cls-10" x1="-70.96" y1="45" x2="2.48" y2="45">
</line>
<line class="cls-10" x1="-70.96" y1="41" x2="2.48" y2="41">
</line>
<line class="cls-10" x1="-70.96" y1="37" x2="2.48" y2="37">
</line>
<line class="cls-10" x1="-70.96" y1="33" x2="2.48" y2="33">
</line>
<line class="cls-10" x1="-70.96" y1="29" x2="2.48" y2="29">
</line>
<line class="cls-10" x1="-70.96" y1="25" x2="2.48" y2="25">
</line>
<line class="cls-10" x1="-70.96" y1="21" x2="2.48" y2="21">
</line>
<line class="cls-10" x1="-70.96" y1="17" x2="2.48" y2="17">
</line>
<line class="cls-10" x1="-70.96" y1="13" x2="2.48" y2="13">
</line>
<line class="cls-10" x1="-70.96" y1="9" x2="2.48" y2="9">
</line>
<line class="cls-10" x1="-70.96" y1="5" x2="2.48" y2="5">
</line>
<line class="cls-10" x1="-70.96" y1="1" x2="2.48" y2="1">
</line>
</g>
</g>
</pattern>
</defs>
  <path
     style="opacity:1;vector-effect:none;fill:#cccccc;fill-opacity:1;fill-rule:nonzero;stroke:none;stroke-width:4.49546146;stroke-linecap:butt;stroke-linejoin:miter;stroke-miterlimit:4;stroke-dasharray:none;stroke-dashoffset:0;stroke-opacity:1"
     d="M -0.08007812,0.36132812 V 80.361328 H 68.919922 V 0.36132812 Z"
     id="rect4304"/>

<g id="Capa_9">
<g >
<g >
<path class="cls-2" d="M7.5,62.07l4.54-1.91s.24-13.75,1.2-17.1,2.99-10.88,2.99-10.88c0,0-.36-5.74,1.55-8.37,.24-5.26,.84-7.06,.84-7.06,0,0,13.99-8.37,32.05,.24,.12,5.02,.12,6.34,.12,6.34,0,0,2.39,5.26,1.67,9.57,5.98,13.15,4.07,27.27,4.07,27.27l5.38,2.39-1.08,10.64-26.31,4.66-26.19-6.1-.84-9.69Z">
</path>
<path class="cls-1" d="M19.46,31.88s8.67-3.88,15.96-3.48c7.49,.39,14.12,3.68,14.12,3.68,0,0,.85,12.94-4.34,23.26-3.35,3.15-6.9,5.98-8.87,6.57s-4.93,0-4.93,0c0,0-6.37-4.73-7.75-6.5s-4.4-13.73-4.73-17.21c-.33-4.4,.53-6.31,.53-6.31Z">
</path>
<path class="cls-2" d="M34.3,61.85V28.73s12.41,.7,15.25,3.35c.18,11.12-3.23,21.49-4.34,23.26s-4,3.97-5.69,5.15-4.26,1.56-5.22,1.37Z">
</path>
<path class="cls-2" d="M30.45,54.15s1.51-1.41,3.44-1.41,4,1.22,4,1.22c0,0-1.08,2.31-3.72,2.12s-3.72-1.93-3.72-1.93Z">
</path>
<path class="cls-4" d="M50.98,32.78s2.2,9.07,.38,13.85c-2.29,5.73-8.21,15.86-11.75,20.63-4.78-2.96-7.26-4.78-7.26-4.78,0,0,4.87-.38,7.16-2.01s5.54-4.2,6.11-5.44,3.15-9.93,3.53-12.32,.38-10.64,.38-10.64l1.43,.71Z">
</path>
<path d="M22.98,22.57s-3.42,4.76-.98,7.7c-2.44,.86-3.05,2.32-3.05,2.32,0,0-1.95,3.91-1.59,11.24s4.4,14.29,6.23,16.98,18.94,13.56,19.79,14.54c-17.47,2.93-34.09-3.18-34.09-3.18l-1.1-11,3.84-1.02s-.06-16.21,1.78-20.49c2.32-6.6,2.41-7.5,2.41-7.5,0,0,.02-5.79,1.55-8.37,.19-5.63,.84-7.06,.84-7.06,0,0,5.22-2.49,11.57-2.73-7.21,2.81-8.55,5.62-7.21,8.55Z">
</path>
<path class="cls-4" d="M48.34,22.67s-2.12-3.7-10.81-3.77c-9.59,0-13.58,2.27-14.07,2.97,8-1.24,17.01-1.34,24.88,.8Z">
</path>
<path class="cls-2" d="M17.73,57.45c-.25-.47-.97-.24-.9,.29,.26,2.13,.67,5.14,1.08,6.89,.6,2.58,2.73,8.67,3.22,10.05,.06,.18,.22,.3,.4,.32l6.91,.72c.43,.04,.7-.45,.43-.78-1.75-2.14-6.06-7.56-7.45-10.41-1.06-2.18-2.62-5.11-3.69-7.08Z">
</path>
<path class="cls-4" d="M37.74,39.38l-1.54-4.22h2.52l5.52-1.14,3.9,1.3-.65,2.6s-3.17,2.43-9.74,1.46Z">
</path>
<path class="cls-4" d="M21.67,37.93s-1.17-2.11-1.08-2.53c2.07-1.22,4.37-1.36,4.37-1.36l7.56,1.03-1.17,4.55-9.67-1.69Z">
</path>
<path class="cls-3" d="M31.34,39.62s-2.77-1.78-4.93-1.84c-2.78,.06-3.98,.23-3.98,.23,0,0,1.93,3.12,4.37,3.58s4.52-1.32,4.53-1.97Z">
</path>
<path class="cls-3" d="M37.64,39.62s2.77-1.78,4.93-1.84c2.78,.06,3.98,.23,3.98,.23,0,0-1.93,3.12-4.37,3.58s-4.52-1.32-4.53-1.97Z">
</path>
<path class="cls-1" d="M34.28,29.81h0c2.85,0,5.68,.35,8.43,1.05,1.62,.38,3.13,.95,4.73,1.56,.29,.11,.59,.22,.88,.33,.1,2.11,.2,8.5-1.6,14.39-.37,1.16-.66,2.16-.91,3.01l-.09,.31c-1.24,4.2-1.29,4.37-3.31,5.86-.56,.41-1.12,.88-1.61,1.3-1.92,1.61-3.9,3.28-6.98,3.28-.61,0-1.25-.07-1.92-.2-1.17-.9-2.3-1.79-3.34-2.64-.34-.3-.69-.6-1.04-.9-1.49-1.26-2.9-2.45-3.62-4.17-1-2.17-1.63-4.58-2.17-6.84-.16-.82-.34-1.64-.52-2.48-.81-3.73-1.64-7.58-.61-11.1,.12-.04,.23-.09,.35-.13,.38-.15,.76-.29,1.18-.43,3.88-1.47,7.97-2.22,12.16-2.22m0-.75c-4.23,0-8.46,.76-12.43,2.26-.63,.21-1.24,.46-1.87,.69-1.52,4.61,.11,9.67,1,14.3,.58,2.4,1.21,4.81,2.23,7.01,.95,2.28,3.04,3.71,4.84,5.31,1.15,.94,2.33,1.87,3.52,2.78,.8,.17,1.54,.25,2.24,.25,3.35,0,5.52-1.82,7.46-3.46,.53-.45,1.05-.89,1.57-1.27,2.23-1.65,2.33-1.99,3.59-6.26,.27-.91,.59-2,1-3.3,2.11-6.9,1.65-14.5,1.61-15.15-2.04-.75-4.02-1.59-6.16-2.09-2.81-.72-5.71-1.07-8.6-1.07h0Z">
</path>
<path class="cls-2" d="M23.29,41.95c1.44,.64,3.87,1.33,6.5,.41,.67-.23,1.26,.47,.89,1.08-2.56,4.27-7.03,2.99-8.37-.54-.24-.62,.37-1.22,.98-.95Z">
</path>
<path class="cls-4" d="M38.59,54.5s-1.06,3.13-4.38,3.13c-2.97,0-4.03-3.29-4.03-3.29l.97-.58s.9,1.55,3.13,1.55,3.32-1.42,3.32-1.42l1,.61Z">
</path>
<path class="cls-7" d="M53.36,75.05c7.5-20.74-.88-42.48-.88-42.48,0,0,.44-4.63-1.77-8.94,.22-2.21-.11-6.62-.11-6.62-17.32-8.61-32.44,0-32.44,0,0,0-.55,1.88-.33,6.51-1.77,2.65-1.66,8.72-1.66,8.72,0,0-7.06,14.68-1.99,41.38">
</path>
<line class="cls-7" x1="6.69" y1="62.14" x2="12.42" y2="60.16">
</line>
<line class="cls-7" x1="56.56" y1="60.16" x2="62.19" y2="62.81">
</line>
<path d="M51.04,32.9c-2.8-.87-5.33-2.11-8.16-2.77-6.93-1.77-14.35-1.34-21.03,1.19-1.36,.46-2.66,1.06-4.13,1.36,1.16-.89,2.41-1.72,3.77-2.27,6.79-2.86,14.57-3.4,21.67-1.34,2.79,.87,5.74,1.73,7.88,3.83h0Z">
</path>
<path d="M20.01,31.89c-1.58,4.64,.07,9.75,.97,14.41,.58,2.4,1.21,4.81,2.23,7.01,.96,2.27,3.04,3.71,4.84,5.3,3.81,3.12,7.81,6.16,12.15,8.48,4.29,2.45,9.92,3.33,12.95,7.6,0,0-.83,.56-.83,.56-1.32-1.97-3.52-3.15-5.77-4.13-7.05-2.65-13.44-6.84-19.17-11.71-1.44-1.27-2.95-2.41-4.14-3.96-1.76-2.69-2.48-5.89-3.24-8.92-.93-4.87-2.69-10.17-.58-15,0,0,.59,.35,.59,.35h0Z">
</path>
<path class="cls-7" d="M49.53,32.11s.62,8.04-1.63,15.4c-2.32,7.5-1.91,7.7-4.77,9.81s-5.69,5.86-11.68,4.57">
</path>
<path d="M20.37,35.48s2.84-2.23,4.83-2.17c2.96,.18,7.31,1.75,7.31,1.75,0,0-1.03,1.03-2.23,1.09-2.72-.78-5.74-1.57-5.74-1.57l-4.17,.91Z">
</path>
<path d="M48.14,35.48s-2.84-2.23-4.83-2.17c-2.96,.18-7.31,1.75-7.31,1.75,0,0,1.03,1.03,2.23,1.09,2.72-.78,5.74-1.57,5.74-1.57l4.17,.91Z">
</path>
<path d="M31.37,39.47c-2.18-.78-4.33-1.6-6.67-1.15-.76,.09-1.54,.17-2.29,.29l.35-.74c.83,1.27,2.08,2.46,3.56,2.93,1.49,.47,3.23,.32,4.69-.56-.59,.62-1.39,1.02-2.24,1.28-2.71,.78-5.46-.85-6.87-3.15,0,0-.4-.65-.4-.65l.76-.1c1.61-.19,3.15-.4,4.79-.19,1.62,.35,2.96,1.16,4.33,2.02h0Z">
</path>
<path d="M37.71,39.47c1.36-.86,2.7-1.67,4.33-2.02,1.64-.21,3.18,0,4.79,.19,0,0,.76,.1,.76,.1l-.4,.65c-1.41,2.3-4.17,3.93-6.87,3.15-.84-.26-1.64-.66-2.24-1.28,1.46,.88,3.2,1.03,4.69,.56,1.48-.47,2.73-1.66,3.56-2.93,0,0,.35,.74,.35,.74-1.48-.2-3.07-.45-4.55-.41-1.47,.18-2.99,.79-4.42,1.27h0Z">
</path>
<path d="M31.66,46.31c.06,.77,.03,1.45,.24,2.12l-.41-.32c.76,.11,1.51,.49,1.88,1.2-.9-.07-1.53-.18-2.29-.24-.45-.94-.28-2.13,.57-2.76h0Z">
</path>
<path d="M36.77,46.31c.85,.62,1.02,1.82,.57,2.76-.76,.06-1.39,.17-2.29,.24,.38-.7,1.12-1.08,1.88-1.2,0,0-.41,.32-.41,.32,.21-.68,.19-1.35,.24-2.12h0Z">
</path>
<path d="M34.78,51.61c2.42,0,3.32,1.18,3.63,1.92s.97,.91,.97,.91c0,0-.57,.72-1.52-.11s-2.09-.99-3.49-.99h0c-1.4,0-2.54,.15-3.49,.99s-1.52,.11-1.52,.11c0,0,.66-.16,.97-.91s1.21-1.92,3.63-1.92h.81Z">
</path>
<path d="M16.01,41.93c.82,3.96,1.5,8.42,2.73,12.25,2.63,6.41,5.62,12.83,10.18,18.13-1.06-.93-2.04-1.95-2.95-3.02-3.61-4.38-6.11-9.54-8.12-14.81-1.16-4.09-1.58-8.32-1.84-12.54h0Z">
</path>
<path d="M15.06,46.37c.31,4.45-.15,9.12,.39,13.56,.53,3.89,1.74,9.44,2.52,13.34,0,0-.97,.23-.97,.23-1.32-5.54-2.74-11.17-2.75-16.92,.19-3.3,.44-6.94,.81-10.22h0Z">
</path>
<path d="M39.02,67.15c5.57-6.54,9.65-14.3,12.59-22.34,0,0,.23-.6,.23-.6,.94,.9,1.19,1.99,1.26,3.11,.04,6.09-2.25,12.07-5.2,17.3,2.72-5.29,4.78-11.25,4.54-17.25-.1-.8-.25-1.69-.75-2.19l.62-.13c-2.22,6.13-5.13,12.01-8.79,17.4-1.23,1.8-2.5,3.54-3.96,5.2l-.55-.51h0Z">
</path>
<path d="M48.65,22.75c-8.31-1.98-17.1-1.77-25.42,0,0,0-.74,.15-.74,.15-.28,.03-.51,.18-.85,.04-.56-.22-.59-1.08-.05-1.32,6.32-3.05,13.71-3.88,20.55-2.33-6.7-.84-13.69,.08-19.79,3.01,0,0-.33,.16-.33,.16,.28-.19,.05-.46-.12-.43,0,0,.37-.08,.37-.08,8.63-1.95,17.95-2.1,26.37,.79h0Z">
</path>
<path d="M31.38,56.36c2.14,1.08,4,.85,6.06-.1-1.17,2.3-4.88,2.48-6.06,.1h0Z">
</path>
</g>
<path class="cls-11" d="M19.53,17.12c-.5,1.88-.8,3.96-.29,5.84-1.26,2.8-1.62,6-1.59,9.04,.02,.13-.03,.21-.07,.32-2.92,7.77-3.72,16.39-3.91,24.67-.11,5.07,.48,10.14,.49,15.23,0,0-.1,.01-.1,.01-.17-2.03-1.06-10.86-1.15-12.68-.18-5.93,.1-11.93,1.17-17.77,.62-3.34,1.44-6.66,2.76-9.8,0-1.38,.2-3.14,.47-4.62,.28-1.47,.77-3.22,1.44-4.4-.37-1.97,.02-3.99,.69-5.86,0,0,.09,.04,.09,.04h0Z">
</path>
</g>
</g>

  <path
     style="opacity:1;vector-effect:none;fill:#8d5fd3;fill-opacity:1;fill-rule:nonzero;stroke:none;stroke-width:2.35769176;stroke-linecap:butt;stroke-linejoin:miter;stroke-miterlimit:4;stroke-dasharray:none;stroke-dashoffset:0;stroke-opacity:0.44186048"
     d="M 0,1.2e-7 V 80 H 69 V 1.2e-7 Z M 35.240234,4.658203 c 6.067554,0.1120422 16.269844,1.4698438 23.589844,3.8398438 3.46,9.2400002 5.269531,19.9506252 5.269531,31.1406252 0,11.47 -1.89,22.390234 -5.5,31.740234 -7.2,2.16 -14.940375,3.376539 -23.019531,3.259766 -8.580486,-0.124019 -18.036001,-1.572896 -25.240234,-3.86914 -3.4500003,-9.22 -5.2597659,-19.930859 -5.2597659,-31.130859 0,-11.2 1.8904687,-22.380469 5.4804689,-31.730469 C 17.682894,5.1336941 29.17268,4.5461608 35.240234,4.658203 Z"
     id="rect4304" />


</svg>
