<svg id="Capa_2" xmlns="http://www.w3.org/2000/svg" xmlns:xlink="http://www.w3.org/1999/xlink" viewBox="0 0 69.02 80">
<defs >
<style >
.cls-1{fill:#c89aed;}.cls-2{fill:#fff;}.cls-3{fill:#f8ffbf;}.cls-4{fill:#7b7be8;}.cls-5{fill:#a88347;}.cls-6{fill:#782ab5;}.cls-7{stroke:#000;stroke-miterlimit:10;}.cls-7,.cls-8,.cls-9,.cls-10{fill:none;}.cls-8{stroke:#deb778;stroke-dasharray:0 0 0 4.06;stroke-linecap:round;stroke-linejoin:round;}.cls-11{fill:#deb778;}.cls-12{fill:url(#USGS_19_Inundación_de_tierra_2);}.cls-10{stroke:#1d1d1b;stroke-dasharray:0 0 2 2;stroke-width:.3px;}.cls-13{fill:#fcf0c5;}.cls-14{fill:#b83521;}
</style>
<pattern id="USGS_19_Inundación_de_tierra_2" x="0" y="0" width="72" height="72" patternTransform="translate(-236.48 -16423) rotate(-90)" patternUnits="userSpaceOnUse" viewBox="0 0 72 72">
<g >
<rect class="cls-9" width="72" height="72">
</rect>
<g >
<line class="cls-10" x1="71" y1="71" x2="144.44" y2="71">
</line>
<line class="cls-10" x1="71" y1="67" x2="144.44" y2="67">
</line>
<line class="cls-10" x1="71" y1="63" x2="144.44" y2="63">
</line>
<line class="cls-10" x1="71" y1="59" x2="144.44" y2="59">
</line>
<line class="cls-10" x1="71" y1="55" x2="144.44" y2="55">
</line>
<line class="cls-10" x1="71" y1="51" x2="144.44" y2="51">
</line>
<line class="cls-10" x1="71" y1="47" x2="144.44" y2="47">
</line>
<line class="cls-10" x1="71" y1="43" x2="144.44" y2="43">
</line>
<line class="cls-10" x1="71" y1="39" x2="144.44" y2="39">
</line>
<line class="cls-10" x1="71" y1="35" x2="144.44" y2="35">
</line>
<line class="cls-10" x1="71" y1="31" x2="144.44" y2="31">
</line>
<line class="cls-10" x1="71" y1="27" x2="144.44" y2="27">
</line>
<line class="cls-10" x1="71" y1="23" x2="144.44" y2="23">
</line>
<line class="cls-10" x1="71" y1="19" x2="144.44" y2="19">
</line>
<line class="cls-10" x1="71" y1="15" x2="144.44" y2="15">
</line>
<line class="cls-10" x1="71" y1="11" x2="144.44" y2="11">
</line>
<line class="cls-10" x1="71" y1="7" x2="144.44" y2="7">
</line>
<line class="cls-10" x1="71" y1="3" x2="144.44" y2="3">
</line>
</g>
<g >
<line class="cls-10" x1="-1" y1="71" x2="72.44" y2="71">
</line>
<line class="cls-10" x1="-1" y1="67" x2="72.44" y2="67">
</line>
<line class="cls-10" x1="-1" y1="63" x2="72.44" y2="63">
</line>
<line class="cls-10" x1="-1" y1="59" x2="72.44" y2="59">
</line>
<line class="cls-10" x1="-1" y1="55" x2="72.44" y2="55">
</line>
<line class="cls-10" x1="-1" y1="51" x2="72.44" y2="51">
</line>
<line class="cls-10" x1="-1" y1="47" x2="72.44" y2="47">
</line>
<line class="cls-10" x1="-1" y1="43" x2="72.44" y2="43">
</line>
<line class="cls-10" x1="-1" y1="39" x2="72.44" y2="39">
</line>
<line class="cls-10" x1="-1" y1="35" x2="72.44" y2="35">
</line>
<line class="cls-10" x1="-1" y1="31" x2="72.44" y2="31">
</line>
<line class="cls-10" x1="-1" y1="27" x2="72.44" y2="27">
</line>
<line class="cls-10" x1="-1" y1="23" x2="72.44" y2="23">
</line>
<line class="cls-10" x1="-1" y1="19" x2="72.44" y2="19">
</line>
<line class="cls-10" x1="-1" y1="15" x2="72.44" y2="15">
</line>
<line class="cls-10" x1="-1" y1="11" x2="72.44" y2="11">
</line>
<line class="cls-10" x1="-1" y1="7" x2="72.44" y2="7">
</line>
<line class="cls-10" x1="-1" y1="3" x2="72.44" y2="3">
</line>
<line class="cls-10" x1="1.04" y1="69" x2="74.48" y2="69">
</line>
<line class="cls-10" x1="1.04" y1="65" x2="74.48" y2="65">
</line>
<line class="cls-10" x1="1.04" y1="61" x2="74.48" y2="61">
</line>
<line class="cls-10" x1="1.04" y1="57" x2="74.48" y2="57">
</line>
<line class="cls-10" x1="1.04" y1="53" x2="74.48" y2="53">
</line>
<line class="cls-10" x1="1.04" y1="49" x2="74.48" y2="49">
</line>
<line class="cls-10" x1="1.04" y1="45" x2="74.48" y2="45">
</line>
<line class="cls-10" x1="1.04" y1="41" x2="74.48" y2="41">
</line>
<line class="cls-10" x1="1.04" y1="37" x2="74.48" y2="37">
</line>
<line class="cls-10" x1="1.04" y1="33" x2="74.48" y2="33">
</line>
<line class="cls-10" x1="1.04" y1="29" x2="74.48" y2="29">
</line>
<line class="cls-10" x1="1.04" y1="25" x2="74.48" y2="25">
</line>
<line class="cls-10" x1="1.04" y1="21" x2="74.48" y2="21">
</line>
<line class="cls-10" x1="1.04" y1="17" x2="74.48" y2="17">
</line>
<line class="cls-10" x1="1.04" y1="13" x2="74.48" y2="13">
</line>
<line class="cls-10" x1="1.04" y1="9" x2="74.48" y2="9">
</line>
<line class="cls-10" x1="1.04" y1="5" x2="74.48" y2="5">
</line>
<line class="cls-10" x1="1.04" y1="1" x2="74.48" y2="1">
</line>
</g>
<g >
<line class="cls-10" x1="-73" y1="71" x2=".44" y2="71">
</line>
<line class="cls-10" x1="-73" y1="67" x2=".44" y2="67">
</line>
<line class="cls-10" x1="-73" y1="63" x2=".44" y2="63">
</line>
<line class="cls-10" x1="-73" y1="59" x2=".44" y2="59">
</line>
<line class="cls-10" x1="-73" y1="55" x2=".44" y2="55">
</line>
<line class="cls-10" x1="-73" y1="51" x2=".44" y2="51">
</line>
<line class="cls-10" x1="-73" y1="47" x2=".44" y2="47">
</line>
<line class="cls-10" x1="-73" y1="43" x2=".44" y2="43">
</line>
<line class="cls-10" x1="-73" y1="39" x2=".44" y2="39">
</line>
<line class="cls-10" x1="-73" y1="35" x2=".44" y2="35">
</line>
<line class="cls-10" x1="-73" y1="31" x2=".44" y2="31">
</line>
<line class="cls-10" x1="-73" y1="27" x2=".44" y2="27">
</line>
<line class="cls-10" x1="-73" y1="23" x2=".44" y2="23">
</line>
<line class="cls-10" x1="-73" y1="19" x2=".44" y2="19">
</line>
<line class="cls-10" x1="-73" y1="15" x2=".44" y2="15">
</line>
<line class="cls-10" x1="-73" y1="11" x2=".44" y2="11">
</line>
<line class="cls-10" x1="-73" y1="7" x2=".44" y2="7">
</line>
<line class="cls-10" x1="-73" y1="3" x2=".44" y2="3">
</line>
<line class="cls-10" x1="-70.96" y1="69" x2="2.48" y2="69">
</line>
<line class="cls-10" x1="-70.96" y1="65" x2="2.48" y2="65">
</line>
<line class="cls-10" x1="-70.96" y1="61" x2="2.48" y2="61">
</line>
<line class="cls-10" x1="-70.96" y1="57" x2="2.48" y2="57">
</line>
<line class="cls-10" x1="-70.96" y1="53" x2="2.48" y2="53">
</line>
<line class="cls-10" x1="-70.96" y1="49" x2="2.48" y2="49">
</line>
<line class="cls-10" x1="-70.96" y1="45" x2="2.48" y2="45">
</line>
<line class="cls-10" x1="-70.96" y1="41" x2="2.48" y2="41">
</line>
<line class="cls-10" x1="-70.96" y1="37" x2="2.48" y2="37">
</line>
<line class="cls-10" x1="-70.96" y1="33" x2="2.48" y2="33">
</line>
<line class="cls-10" x1="-70.96" y1="29" x2="2.48" y2="29">
</line>
<line class="cls-10" x1="-70.96" y1="25" x2="2.48" y2="25">
</line>
<line class="cls-10" x1="-70.96" y1="21" x2="2.48" y2="21">
</line>
<line class="cls-10" x1="-70.96" y1="17" x2="2.48" y2="17">
</line>
<line class="cls-10" x1="-70.96" y1="13" x2="2.48" y2="13">
</line>
<line class="cls-10" x1="-70.96" y1="9" x2="2.48" y2="9">
</line>
<line class="cls-10" x1="-70.96" y1="5" x2="2.48" y2="5">
</line>
<line class="cls-10" x1="-70.96" y1="1" x2="2.48" y2="1">
</line>
</g>
</g>
</pattern>
</defs>
  <path
     style="opacity:1;vector-effect:none;fill:#cccccc;fill-opacity:1;fill-rule:nonzero;stroke:none;stroke-width:4.49546146;stroke-linecap:butt;stroke-linejoin:miter;stroke-miterlimit:4;stroke-dasharray:none;stroke-dashoffset:0;stroke-opacity:1"
     d="M -0.08007812,0.36132812 V 80.361328 H 68.919922 V 0.36132812 Z"
     id="rect4304"/>

<g id="Capa_9">
<g >
<g >
<path class="cls-1" d="M62.36,65.66l-2.39,8.13-27.38,2.75-24.04-3.46,.24-8.26,16.5-5.98,.12-1.79s-2.63-2.63-3.11-6.1c-4.06-1.19-5.5-7.17-5.38-8.49,.12-1.31,.84-3.11,2.15-2.99l-6.1-3.71s0-.05,0-.14c.08-1.51,1.04-14.91,8.48-20.66,6.7-4.43,16.63-4.31,22.85-1.92,6.21,2.39,11.95,11.48,11.24,22.49-3.98,3.13-5.03,3.8-5.23,3.92l-.04,.02s1.92,1.32,1.44,4.19c-.41,2.47-2.41,5.81-2.96,6.7,0,0-.01,0-.01,.01-.09,.14-.14,.22-.14,.22,0,0,4.54,1.08,5.5,1.56,.96,.48,2.87,3.47,.24,5.86,2.83,2.83,2.23,5.23,2.16,5.48v.02s5.85,2.15,5.85,2.15Z">
</path>
<path class="cls-2" d="M34.5,64.14V29.64s2.54,3.02,7.15,4.05,6.44,2.54,7,4.85c-1.19,7.63-2.28,13.99-3.5,16.3s-5.8,7.15-6.92,8.27-3.74,1.03-3.74,1.03Z">
</path>
<path class="cls-2" d="M34.91,75.09l2.6-4.8s3.07-2.52,4.09-4.48,1.89-5.19,1.89-5.19l13.01,2.89,6.97,1.99-3.3,9.28-25.25,.31Z">
</path>
<path class="cls-4" d="M42.62,63.28s1.61,1.68,2.11,1.89c-1.26,4.07,2.03,5.19,2.03,5.19,0,0-1.61,3.72-.7,4.42,2.74-.7,4.91-1.54,4.91-1.54l-.28-10.24-6.95-2.88-1.12,3.16Z">
</path>
<path class="cls-2" d="M55.55,35.53c-3.98,3.13-5.03,3.8-5.23,3.92l-.04,.02-1.8,.37s.42-7.53-2.97-12.72-8.26-6.78-13.14-5.83-11.98,4.24-11.87,18.02c-.74,0-1.43,.16-1.43,.16l-6.09-3.85c.08-1.51,1.04-14.91,8.48-20.66,6.7-4.43,16.63-4.31,22.85-1.92,6.21,2.39,11.95,11.48,11.24,22.49Z">
</path>
<path class="cls-5" d="M20.5,37.44s0-6.23,2.51-10.11,6.47-6.47,11.32-6.39,10.76,3.4,12.78,8.25c1.7,5.18,1.29,9.3,1.29,9.3,0,0-.32-3.15-4.04-4.04s-8.49-2.51-9.79-5.34c-2.51,4.21-8.98,5.18-10.27,5.5s-3.8,2.83-3.8,2.83Z">
</path>
<path class="cls-5" d="M57.88,72.05l-8.86,1.96s-.94-1.57-.31-2.98c.63-1.41,1.26-2.35,1.26-2.35,0,0-2.75,.39-3.53-1.26-.79-1.64,.7-4.7,.7-4.7,0,0-2.51-.71-3.37-1.88-.86-1.18,.16-3.69,.16-3.69,0,0,2.04-4,2.43-5.56,1.55-.54,2.23-1.08,2.39-1.22-.09,.14-.14,.22-.14,.22,0,0,4.54,1.08,5.5,1.56,.96,.48,2.87,3.47,.24,5.86,2.83,2.83,2.23,5.23,2.16,5.48v.02s-.9,3.68-.9,3.68l2.27,4.86Z">
</path>
<path class="cls-2" d="M24.99,59.19s.99,8.12,6.63,11.27c1.41,3.31,2.15,4.56,2.15,4.56l-12.84,.83-6.96-.83-5.88-3.48,1.24-6.71,15.66-5.64Z">
</path>
<path class="cls-4" d="M32.3,44.6l.53-4.33s-5.7-.44-7.16-.24-2.99,1.58-2.99,1.58l1.54,2.71,8.09,.28Z">
</path>
<path class="cls-4" d="M36.82,44.6l-.53-4.33s5.7-.44,7.16-.24,2.99,1.58,2.99,1.58l-1.54,2.71-8.09,.28Z">
</path>
<path class="cls-3" d="M31.58,44.55s-3.25-2.37-7.54-.22c3.19,1.38,6.17,.99,7.76,.33">
</path>
<path class="cls-3" d="M37.31,44.55s3.25-2.37,7.54-.22c-3.19,1.38-6.17,.99-7.76,.33">
</path>
<path d="M43.26,58.39l-14.69,19.09-19.65-3.84,.09-7.95,16.28-6.85v-1.47s3.46,3.27,4.96,5.05,3.09,2.06,4.77,1.96,3.46-2.06,4.21-2.62,4.02-3.37,4.02-3.37Z">
</path>
<path class="cls-4" d="M27.23,23.2l-7.17-6.55s-3.58,3.38-5.32,8.6c-1.74,5.63-1.76,10.37-1.76,10.37l6.09,3.85,1.43-.16s-1.15-11.91,6.73-16.11Z">
</path>
<path d="M20.5,39.31s-1.68-.5-2.88,1.62,.26,5.82,.66,6.68,2.47,3.5,4.01,3.34c-.97-6.85-1.8-11.64-1.8-11.64Z">
</path>
<path class="cls-2" d="M41.84,61.29l-5.84,7.71s4.94-1.39,5.84-7.71Z">
</path>
<path class="cls-1" d="M34.55,31.34c2.04,2.18,6.23,3.56,9.56,4.35,2.5,.61,3,2.5,3.1,3.01-.07,2.32-.42,4.84-1.02,7.52-.19,.85-.35,1.69-.46,2.31-.62,3.25-1.2,6.32-4.37,9.33-.84,.78-1.5,1.5-2.16,2.22-1.59,1.73-2.56,2.79-4.7,3.14-2.18-.36-3.15-1.41-4.73-3.14-.66-.73-1.32-1.45-2.16-2.22-3.18-3-3.73-5.93-4.38-9.33-.17-.93-.32-1.64-.47-2.32-.59-2.63-.93-5.15-1.01-7.51h0s.37-2.32,3.24-3.02c3.34-.79,7.52-2.17,9.56-4.35m0-1.22c-1.56,2.51-6.54,4.08-9.73,4.84-3.35,.81-3.8,3.53-3.81,3.65h-.01c.08,2.76,.51,5.46,1.03,7.77,.17,.77,.32,1.54,.46,2.29,.64,3.38,1.24,6.57,4.6,9.74,.84,.78,1.52,1.52,2.12,2.18,1.66,1.81,2.77,3.01,5.28,3.39,2.47-.37,3.58-1.57,5.25-3.39,.6-.66,1.28-1.4,2.12-2.18,3.35-3.17,3.96-6.36,4.6-9.74,.14-.75,.29-1.52,.46-2.29,.52-2.3,.96-4.98,1.04-7.73-.07-.47-.59-2.94-3.67-3.69-3.19-.76-8.17-2.33-9.74-4.84h0Z">
</path>
<path class="cls-2" d="M25.6,46.61c1.02,.34,2.51,.62,4.16,.22,.76-.19,1.36,.64,.95,1.31-1.32,2.17-2.56,2.99-3.26,3.3-.34,.15-.73,.08-.99-.18-.54-.54-1.48-1.7-1.99-3.58-.18-.67,.46-1.28,1.12-1.06Z">
</path>
<path class="cls-11" d="M41.62,23.17s.22,7.84-6.04,7.48c3.67,2.73,7.48,3.59,9.42,3.95-1.73-2.37,1.73-4.82,.22-8.34-2.52-2.66-3.59-3.09-3.59-3.09Z">
</path>
<path class="cls-2" d="M38.31,32.53s5.88-3.48,4.68-8.41c1.44,1.26,1.74,1.62,1.74,1.62,0,0-.54,5.46-3.3,7.68-2.1-.66-3.12-.9-3.12-.9Z">
</path>
<path d="M26.2,24.17s-2,7.36,1.92,9.37c-3.83,1.07-6.37,1.65-7.63,3.9-.3-5.43,1.63-11.67,5.71-13.27Z">
</path>
<path class="cls-11" d="M49.92,51.13s2.2,4.11,.14,6.38c3.55,3.33,1.63,7.94,1.63,7.94,2.69,2.27,.64,7.44,.64,7.44l4.96-1.06s-1.42-3.62-2.34-4.89c2.84-4.89,.35-7.37-.85-8.37,2.91-2.06,1.91-4.68,.99-5.88s-4.02-.79-5.18-1.56Z">
</path>
<polygon points="13.76 28.9 21.32 33.38 20.02 39.99 12.98 35.62 13.76 28.9">
</polygon>
<path class="cls-14" d="M38.51,55.33s-.87,.41-1.3,1.33-1.06,1.3-2.52,1.3h-.38c-1.47,0-2.09-.38-2.52-1.3s-1.3-1.33-1.3-1.33h8.03Z">
</path>
<path class="cls-7" d="M49.83,39.62l5.77-3.83s.98-24.45-20.36-24.45h-1.74c-21.34,0-20.36,24.45-20.36,24.45l5.77,3.83">
</path>
<path class="cls-7" d="M20.61,39.99s-1.45-1.45-2.89,.41,.31,9.81,4.65,10.64">
</path>
<path class="cls-7" d="M48.33,40.17s1.45-1.45,2.89,.41-.31,9.81-4.65,10.64">
</path>
<path class="cls-7" d="M34.46,64.48c-3.7-.54-4.62-2.8-7.71-5.71-4.23-3.99-4.23-7.97-5.21-12.28-.97-4.31-2.35-13.02,1.55-19.28s11.31-6.18,11.31-6.18h.16s7.4-.08,11.3,6.18c3.91,6.26,2.53,14.97,1.55,19.28s-.98,8.29-5.21,12.28c-3.09,2.91-4.01,5.17-7.71,5.71h-.03Z">
</path>
<path class="cls-7" d="M20.51,38.53s.45-3.15,4.2-4.05,9.85-2.91,9.85-5.96v-7.48">
</path>
<path class="cls-7" d="M48.46,38.68s-.32-3.3-4.06-4.2-9.85-2.91-9.85-5.96v-7.48">
</path>
<path d="M22.64,41.69s1.47-1.94,3.83-2.3,6.42,.82,6.42,.82c0,0-.88,1.41-1.77,1.47s-4.48-2.65-8.49,0Z">
</path>
<path d="M46.45,41.69s-1.47-1.94-3.83-2.3-6.42,.82-6.42,.82c0,0,.88,1.41,1.77,1.47s4.48-2.65,8.49,0Z">
</path>
<path d="M24,44.44c2.39-2.28,5.89-1.91,8.36,.09,0,0-.71,.38-.71,.38-1.87,.99-4.17,.93-6.04,.07,1.93,.16,3.88,.03,5.57-.92,0,0-.04,.83-.04,.83-2.13-1.45-4.77-1.53-7.14-.45h0Z">
</path>
<path d="M45.17,44.44c-2.37-1.08-5-1.01-7.14,.45,0,0-.04-.83-.04-.83,1.69,.94,3.64,1.07,5.57,.92-1.87,.86-4.17,.92-6.04-.07,0,0-.71-.38-.71-.38,2.47-2,5.97-2.37,8.36-.09h0Z">
</path>
<path d="M36.42,47.16c.57,.84,2.59,3.28,1.01,3.89-1.08,.3-2.17,.51-2.97,1.32,0,0-.32-.26-.32-.26-.74-.64-1.73-.78-2.66-1.06-1.6-.59,.44-3.07,1-3.89-.23,.82-.86,2.32-.86,3.08,.9,.11,2.33,.37,3.14,1.09,0,0-.63,0-.63,0,.81-.71,2.24-.98,3.13-1.09,0-.78-.63-2.26-.86-3.09h0Z">
</path>
<path d="M34.45,56.38c.44-.56,1-1.02,2.5-.86,1.86,.2,2.38-.34,2.38-.34,0,0-.4-.06-1.3-.65-.87-.56-1.63-1.68-3.58-.36-1.96-1.32-2.71-.2-3.58,.36-.91,.59-1.31,.65-1.31,.65,0,0,.52,.54,2.39,.34,1.49-.16,2.06,.3,2.5,.86Z">
</path>
<polyline class="cls-7" points="25.1 57.08 25.29 58.96 8.34 65.37">
</polyline>
<path class="cls-7" d="M25.29,58.96s.51,8.67,6.33,11.58c1.42,3.04,2.39,5.56,2.39,5.56">
</path>
<path class="cls-7" d="M21.12,60.73s-2.82,8.14,4.09,13.78c4.8-2.49,6.41-3.97,6.41-3.97">
</path>
<path class="cls-7" d="M34.57,76.11s.97-2.52,2.39-5.56c5.82-2.91,6.59-11.46,6.59-11.46v-.2s.1-1.8,.1-1.8">
</path>
<path class="cls-7" d="M47.68,68.4c-.62,1.97-1.89,4.14-4.31,6.12-4.8-2.49-6.41-3.97-6.41-3.97">
</path>
<path class="cls-7" d="M48.52,50.37s2.54,.95,4.77,1.6c2.41,.7,3.8,4.62,.53,6.45">
</path>
<path class="cls-7" d="M43.48,59.62s.48,3.29,4.05,2.88">
</path>
<path class="cls-7" d="M54.77,67.18c1.86-1.58,2.51-5.89,.51-7.79s-6.4-1.76-6.4-1.76c0,0-.09,2.78-1.99,5.89-1.72,3.43,.28,5.43,2.74,5.29">
</path>
<path class="cls-7" d="M48.88,73.77s-1.02-1.95,.23-3.62,2.27-4.78,2.27-4.78c0,0,5.71,1.02,6.22,7.28">
</path>
<line class="cls-7" x1="56.58" y1="63.43" x2="60.82" y2="65.02">
</line>
</g>
<path class="cls-2" d="M10.2,65.7c4.78-2.28,9.69-4.23,14.65-6.06,.32,2.26,.99,4.54,2.01,6.6,.96,1.9,2.31,3.62,4.16,4.74-4.16-1.76-6.24-6.39-7.04-10.61,0,0,.66,.39,.66,.39-4.75,1.83-9.54,3.54-14.43,4.94h0Z">
</path>
</g>
</g>

  <path
     style="opacity:1;vector-effect:none;fill:#8d5fd3;fill-opacity:1;fill-rule:nonzero;stroke:none;stroke-width:2.35769176;stroke-linecap:butt;stroke-linejoin:miter;stroke-miterlimit:4;stroke-dasharray:none;stroke-dashoffset:0;stroke-opacity:0.44186048"
     d="M 0,1.2e-7 V 80 H 69 V 1.2e-7 Z M 35.240234,4.658203 c 6.067554,0.1120422 16.269844,1.4698438 23.589844,3.8398438 3.46,9.2400002 5.269531,19.9506252 5.269531,31.1406252 0,11.47 -1.89,22.390234 -5.5,31.740234 -7.2,2.16 -14.940375,3.376539 -23.019531,3.259766 -8.580486,-0.124019 -18.036001,-1.572896 -25.240234,-3.86914 -3.4500003,-9.22 -5.2597659,-19.930859 -5.2597659,-31.130859 0,-11.2 1.8904687,-22.380469 5.4804689,-31.730469 C 17.682894,5.1336941 29.17268,4.5461608 35.240234,4.658203 Z"
     id="rect4304" />


</svg>
