<svg id="Capa_2" xmlns="http://www.w3.org/2000/svg" xmlns:xlink="http://www.w3.org/1999/xlink" viewBox="0 0 69.02 80">
<defs >
<style >
.cls-1{fill:#c89aed;}.cls-2{fill:#fff;}.cls-3{fill:#f8ffbf;}.cls-4{fill:#7b7be8;}.cls-5{fill:#a88347;}.cls-6{fill:#782ab5;}.cls-7{stroke:#000;stroke-miterlimit:10;}.cls-7,.cls-8,.cls-9,.cls-10{fill:none;}.cls-11{fill:#1c46ff;}.cls-8{stroke:#deb778;stroke-dasharray:0 0 0 4.06;stroke-linecap:round;stroke-linejoin:round;}.cls-12{fill:#deb778;}.cls-13{fill:url(#USGS_19_Inundación_de_tierra_2);}.cls-10{stroke:#1d1d1b;stroke-dasharray:0 0 2 2;stroke-width:.3px;}.cls-14{fill:#fcf0c5;}
</style>
<pattern id="USGS_19_Inundación_de_tierra_2" x="0" y="0" width="72" height="72" patternTransform="translate(-308.48 -16423) rotate(-90)" patternUnits="userSpaceOnUse" viewBox="0 0 72 72">
<g >
<rect class="cls-9" width="72" height="72">
</rect>
<g >
<line class="cls-10" x1="71" y1="71" x2="144.44" y2="71">
</line>
<line class="cls-10" x1="71" y1="67" x2="144.44" y2="67">
</line>
<line class="cls-10" x1="71" y1="63" x2="144.44" y2="63">
</line>
<line class="cls-10" x1="71" y1="59" x2="144.44" y2="59">
</line>
<line class="cls-10" x1="71" y1="55" x2="144.44" y2="55">
</line>
<line class="cls-10" x1="71" y1="51" x2="144.44" y2="51">
</line>
<line class="cls-10" x1="71" y1="47" x2="144.44" y2="47">
</line>
<line class="cls-10" x1="71" y1="43" x2="144.44" y2="43">
</line>
<line class="cls-10" x1="71" y1="39" x2="144.44" y2="39">
</line>
<line class="cls-10" x1="71" y1="35" x2="144.44" y2="35">
</line>
<line class="cls-10" x1="71" y1="31" x2="144.44" y2="31">
</line>
<line class="cls-10" x1="71" y1="27" x2="144.44" y2="27">
</line>
<line class="cls-10" x1="71" y1="23" x2="144.44" y2="23">
</line>
<line class="cls-10" x1="71" y1="19" x2="144.44" y2="19">
</line>
<line class="cls-10" x1="71" y1="15" x2="144.44" y2="15">
</line>
<line class="cls-10" x1="71" y1="11" x2="144.44" y2="11">
</line>
<line class="cls-10" x1="71" y1="7" x2="144.44" y2="7">
</line>
<line class="cls-10" x1="71" y1="3" x2="144.44" y2="3">
</line>
</g>
<g >
<line class="cls-10" x1="-1" y1="71" x2="72.44" y2="71">
</line>
<line class="cls-10" x1="-1" y1="67" x2="72.44" y2="67">
</line>
<line class="cls-10" x1="-1" y1="63" x2="72.44" y2="63">
</line>
<line class="cls-10" x1="-1" y1="59" x2="72.44" y2="59">
</line>
<line class="cls-10" x1="-1" y1="55" x2="72.44" y2="55">
</line>
<line class="cls-10" x1="-1" y1="51" x2="72.44" y2="51">
</line>
<line class="cls-10" x1="-1" y1="47" x2="72.44" y2="47">
</line>
<line class="cls-10" x1="-1" y1="43" x2="72.44" y2="43">
</line>
<line class="cls-10" x1="-1" y1="39" x2="72.44" y2="39">
</line>
<line class="cls-10" x1="-1" y1="35" x2="72.44" y2="35">
</line>
<line class="cls-10" x1="-1" y1="31" x2="72.44" y2="31">
</line>
<line class="cls-10" x1="-1" y1="27" x2="72.44" y2="27">
</line>
<line class="cls-10" x1="-1" y1="23" x2="72.44" y2="23">
</line>
<line class="cls-10" x1="-1" y1="19" x2="72.44" y2="19">
</line>
<line class="cls-10" x1="-1" y1="15" x2="72.44" y2="15">
</line>
<line class="cls-10" x1="-1" y1="11" x2="72.44" y2="11">
</line>
<line class="cls-10" x1="-1" y1="7" x2="72.44" y2="7">
</line>
<line class="cls-10" x1="-1" y1="3" x2="72.44" y2="3">
</line>
<line class="cls-10" x1="1.04" y1="69" x2="74.48" y2="69">
</line>
<line class="cls-10" x1="1.04" y1="65" x2="74.48" y2="65">
</line>
<line class="cls-10" x1="1.04" y1="61" x2="74.48" y2="61">
</line>
<line class="cls-10" x1="1.04" y1="57" x2="74.48" y2="57">
</line>
<line class="cls-10" x1="1.04" y1="53" x2="74.48" y2="53">
</line>
<line class="cls-10" x1="1.04" y1="49" x2="74.48" y2="49">
</line>
<line class="cls-10" x1="1.04" y1="45" x2="74.48" y2="45">
</line>
<line class="cls-10" x1="1.04" y1="41" x2="74.48" y2="41">
</line>
<line class="cls-10" x1="1.04" y1="37" x2="74.48" y2="37">
</line>
<line class="cls-10" x1="1.04" y1="33" x2="74.48" y2="33">
</line>
<line class="cls-10" x1="1.04" y1="29" x2="74.48" y2="29">
</line>
<line class="cls-10" x1="1.04" y1="25" x2="74.48" y2="25">
</line>
<line class="cls-10" x1="1.04" y1="21" x2="74.48" y2="21">
</line>
<line class="cls-10" x1="1.04" y1="17" x2="74.48" y2="17">
</line>
<line class="cls-10" x1="1.04" y1="13" x2="74.48" y2="13">
</line>
<line class="cls-10" x1="1.04" y1="9" x2="74.48" y2="9">
</line>
<line class="cls-10" x1="1.04" y1="5" x2="74.48" y2="5">
</line>
<line class="cls-10" x1="1.04" y1="1" x2="74.48" y2="1">
</line>
</g>
<g >
<line class="cls-10" x1="-73" y1="71" x2=".44" y2="71">
</line>
<line class="cls-10" x1="-73" y1="67" x2=".44" y2="67">
</line>
<line class="cls-10" x1="-73" y1="63" x2=".44" y2="63">
</line>
<line class="cls-10" x1="-73" y1="59" x2=".44" y2="59">
</line>
<line class="cls-10" x1="-73" y1="55" x2=".44" y2="55">
</line>
<line class="cls-10" x1="-73" y1="51" x2=".44" y2="51">
</line>
<line class="cls-10" x1="-73" y1="47" x2=".44" y2="47">
</line>
<line class="cls-10" x1="-73" y1="43" x2=".44" y2="43">
</line>
<line class="cls-10" x1="-73" y1="39" x2=".44" y2="39">
</line>
<line class="cls-10" x1="-73" y1="35" x2=".44" y2="35">
</line>
<line class="cls-10" x1="-73" y1="31" x2=".44" y2="31">
</line>
<line class="cls-10" x1="-73" y1="27" x2=".44" y2="27">
</line>
<line class="cls-10" x1="-73" y1="23" x2=".44" y2="23">
</line>
<line class="cls-10" x1="-73" y1="19" x2=".44" y2="19">
</line>
<line class="cls-10" x1="-73" y1="15" x2=".44" y2="15">
</line>
<line class="cls-10" x1="-73" y1="11" x2=".44" y2="11">
</line>
<line class="cls-10" x1="-73" y1="7" x2=".44" y2="7">
</line>
<line class="cls-10" x1="-73" y1="3" x2=".44" y2="3">
</line>
<line class="cls-10" x1="-70.96" y1="69" x2="2.48" y2="69">
</line>
<line class="cls-10" x1="-70.96" y1="65" x2="2.48" y2="65">
</line>
<line class="cls-10" x1="-70.96" y1="61" x2="2.48" y2="61">
</line>
<line class="cls-10" x1="-70.96" y1="57" x2="2.48" y2="57">
</line>
<line class="cls-10" x1="-70.96" y1="53" x2="2.48" y2="53">
</line>
<line class="cls-10" x1="-70.96" y1="49" x2="2.48" y2="49">
</line>
<line class="cls-10" x1="-70.96" y1="45" x2="2.48" y2="45">
</line>
<line class="cls-10" x1="-70.96" y1="41" x2="2.48" y2="41">
</line>
<line class="cls-10" x1="-70.96" y1="37" x2="2.48" y2="37">
</line>
<line class="cls-10" x1="-70.96" y1="33" x2="2.48" y2="33">
</line>
<line class="cls-10" x1="-70.96" y1="29" x2="2.48" y2="29">
</line>
<line class="cls-10" x1="-70.96" y1="25" x2="2.48" y2="25">
</line>
<line class="cls-10" x1="-70.96" y1="21" x2="2.48" y2="21">
</line>
<line class="cls-10" x1="-70.96" y1="17" x2="2.48" y2="17">
</line>
<line class="cls-10" x1="-70.96" y1="13" x2="2.48" y2="13">
</line>
<line class="cls-10" x1="-70.96" y1="9" x2="2.48" y2="9">
</line>
<line class="cls-10" x1="-70.96" y1="5" x2="2.48" y2="5">
</line>
<line class="cls-10" x1="-70.96" y1="1" x2="2.48" y2="1">
</line>
</g>
</g>
</pattern>
</defs>
  <path
     style="opacity:1;vector-effect:none;fill:#cccccc;fill-opacity:1;fill-rule:nonzero;stroke:none;stroke-width:4.49546146;stroke-linecap:butt;stroke-linejoin:miter;stroke-miterlimit:4;stroke-dasharray:none;stroke-dashoffset:0;stroke-opacity:1"
     d="M -0.08007812,0.36132812 V 80.361328 H 68.919922 V 0.36132812 Z"
     id="rect4304"/>

<g id="Capa_9">
<g >
<g >
<path class="cls-1" d="M62.49,63.27l-1.45,10.75-23.91,3-29.33-5.23-.58-9.87,8.91-3.1,3.87-2.91,.19-3.87s-1.64-2.9-1.64-4.16-.39-4.36-.39-4.36c0,0-3.19-1.54-2.71-8.13-.43-.43-.65-.73-.73-.98-.11-.38,.09-.64,.44-1.05,.58-.68,2.61-2.71,2.61-2.71,0,0-1.25-9.29,1.55-14.23,5.42-5.42,14.43-6.1,20.52-3.97,6.1,2.13,7.75,3.78,8.14,4.84,.38,1.07,1.06,11.81,1.06,14.04,3.33,2.32,3.13,2.59,2,3.81-.06,.05-.11,.1-.16,.16,0,3.97-.58,7.64-2.81,8.51-.29,5.52-1.93,8.14-1.93,8.14l.29,3.77,4.06,3.39,12,4.16Z">
</path>
<path class="cls-2" d="M33.32,61.24V31.77s12.4-.16,14.64,1.38l.59,.89s-.79,12.26-.99,13.84-.49,4.35-5.24,8.31-9,5.04-9,5.04Z">
</path>
<path class="cls-2" d="M7.84,61.72l6.73-2.39,5.43-3.42s.38,6.04,.72,7.41,3.99,9.58,11.29,11.97c6.16-1.25,11.74-4.67,14.02-14.02,.34-3.65,.34-5.02,.34-5.02l4.12,2.86,12.75,4.33-3.42,11.29-27.7,3.19-23.82-4.45-.46-11.74Z">
</path>
<path class="cls-11" d="M51.04,35.14c-1.6-.47-5.21-3.65-7.45-5.06-2.5-1.56-5.42-3.22-10.1-3.33-4.69-.1-13.03,4.79-13.03,4.79l-5.01,3.85-.73-.98c-.11-.38,.09-.64,.44-1.05,.58-.68,2.61-2.71,2.61-2.71,0,0-1.25-9.29,1.55-14.23,5.42-5.42,14.43-6.1,20.52-3.97,6.1,2.13,7.75,3.78,8.14,4.84,.38,1.07,1.06,11.81,1.06,14.04,3.33,2.32,3.13,2.59,2,3.81Z">
</path>
<path class="cls-4" d="M19.94,36.75s2.55-1.83,3.94-2.46c3.17-.63,6.75,.27,6.75,.27l-1.48,4.96-7-.5-2.21-2.27Z">
</path>
<path class="cls-4" d="M46.7,36.75s-2.55-1.83-3.94-2.46c-3.17-.63-6.75,.27-6.75,.27l1.48,4.96,7-.5,2.21-2.27Z">
</path>
<polygon class="cls-3" points="37.42 38 42.61 37.83 44.32 39.02 39.72 40.47 37.24 39.28 37.42 38">
</polygon>
<polygon class="cls-3" points="29.05 38 23.85 37.83 22.15 39.02 26.75 40.47 29.22 39.28 29.05 38">
</polygon>
<path class="cls-4" d="M29.83,51.06s1.67,.49,3.73,.44,3.68-.69,3.68-.69c0,0-.93,2.5-3.83,2.5s-3.58-2.26-3.58-2.26Z">
</path>
<path d="M46.07,52.97l-19.19,22.28-16.86-1.67-2.17-11.86,8.1-2.58,4.06-3.23,.2-3.11s6.01,5.84,7.84,6.93,5.09,1.92,7.51,.92,10.51-7.68,10.51-7.68Z">
</path>
<path d="M18.15,33.53l-1.93,1.6h-.8s-.2,5.4,.87,6.79,1.88,1.59,1.88,1.59v-9.99Z">
</path>
<path d="M48.52,33.18s-21.32-3.31-30.07,4.84c.22-2.16-.3-4.49-.3-4.49,0,0,9.38-6.84,13.71-7.17s16.67,6.82,16.67,6.82Z">
</path>
<path class="cls-1" d="M38.72,32.52v.75c3.62,0,6.69,.29,8.32,.48,.07,.05,.15,.11,.22,.16-.18,1.77-.56,5.9-.6,9.07-.13-.13-.3-.21-.49-.22-.01,0-.03,0-.04,0-.38,0-.7,.28-.74,.66-.26,2.11-1.15,3.98-2.43,5.12-.02,.02-.07,.07-.08,.08-.22,.23-.27,.4-.3,.67-.24,1.82-.48,3.77-.68,5.74-4.16,3.97-7.1,4.81-8.84,4.81-2.28,0-4.98-1.41-8.02-4.2-.22-1.63-.85-6.33-.85-6.33h0c-.03-.28-.08-.45-.33-.72-.02-.02-.03-.03-.05-.05-1.27-1.14-2.16-3.01-2.43-5.12-.05-.38-.37-.66-.74-.66-.01,0-.03,0-.04,0-.39,.02-.7,.34-.71,.73-.04,1.74,.25,4.24,1.86,6.43l.37,2.73c-2.13-2.62-2.54-5.15-2.48-8.61,.03-1.84-.08-4.14-.19-5.87,4.8-4.04,13.11-4.9,19.3-4.9v-.75m7.86,13.91c-.17,1.97-.66,3.7-1.81,5.4,.08-.61,.15-1.25,.24-1.91,.83-1.13,1.31-2.34,1.57-3.49m-7.86-13.91c-6.69,0-15.21,.98-20.07,5.33,.13,2,.24,4.34,.21,6.18-.07,4.13,.54,7.17,3.91,10.47l.27,.28s.07,.07,.11,.1l-.71-5.25c-1.35-1.75-1.88-3.96-1.83-6.12,.27,2.14,1.16,4.24,2.67,5.59,.12,.13,.12,.11,.14,.29,0,0,.71,5.33,.89,6.62,1.99,1.85,5.39,4.58,8.73,4.58h0c3.81,0,7.67-3.39,9.55-5.21,.2-2.01,.45-4,.71-5.99,.02-.18,.02-.16,.14-.29,1.55-1.39,2.41-3.51,2.67-5.59,.05,2.16-.48,4.37-1.83,6.12-.2,1.54-.39,3.09-.56,4.63,3.14-3.2,3.73-6.19,3.67-10.23-.06-3.59,.52-9.31,.64-10.46-.22-.17-.46-.35-.72-.54-1.64-.2-4.84-.51-8.6-.51h0Z">
</path>
<path class="cls-2" d="M48.93,26.47s-7.13-14.27-22.45-13.95c7.13-1.68,16.15-.84,20.98,3.99,1.47,4.41,1.47,9.96,1.47,9.96Z">
</path>
<path class="cls-2" d="M44.52,56.31l-13.35,15.84s1,1.75,3.12,1.12,12.22-8.61,10.23-16.96Z">
</path>
<path class="cls-2" d="M23.38,42.44c.81,.37,1.86,.79,2.95,1.1,.67,.19,.98,.97,.59,1.55-.63,.96-1.15,1.77-1.54,2.37s-1.29,.63-1.7,.02c-.63-.93-1.4-2.32-1.72-3.9-.16-.82,.65-1.5,1.41-1.16Z">
</path>
<path class="cls-7" d="M48.91,31.44s1.1-10.79-1.65-15.1c-.68-.58-1.46-1.15-2.31-1.68-7.11-4.43-16.25-4.43-23.36,0-.86,.54-1.64,1.1-2.33,1.69-2.74,4.31-1.64,15.1-1.64,15.1">
</path>
<path class="cls-7" d="M15.59,35.26c-.26,0-.53-.1-.72-.31-.38-.4-.36-1.03,.04-1.41,.38-.36,9.31-8.75,18.37-8.75s17.91,8.1,18.29,8.45c.4,.38,.43,1.01,.05,1.41-.38,.41-1.01,.43-1.41,.06-.09-.08-8.66-7.92-16.93-7.92s-16.9,8.12-16.99,8.2c-.19,.18-.44,.28-.69,.28Z">
</path>
<path class="cls-7" d="M48.56,33.41s-.73,6.62-.66,10.61c.06,3.99-.47,7.32-4.06,10.84-1.17,1.15-5.99,6.24-10.8,6.23s-9.47-5.09-10.62-6.23c-3.59-3.52-4.13-6.85-4.06-10.84s-.53-10.32-.53-10.32">
</path>
<path d="M20.61,43.51c.28,2.14,1.17,4.24,2.68,5.59,.12,.13,.12,.11,.14,.28,0,0,.93,6.9,.93,6.9l-.99,.14-.93-6.91,.14,.28c-1.45-1.78-2.01-4.06-1.96-6.28h0Z">
</path>
<path d="M46.12,43.51c.05,2.22-.51,4.51-1.96,6.28,0,0,.14-.28,.14-.28-.27,2.1-.54,4.21-.74,6.3l-1-.08c.2-2.14,.47-4.24,.75-6.35,.02-.18,.02-.16,.14-.28,1.55-1.39,2.41-3.51,2.68-5.59h0Z">
</path>
<path d="M19.84,36.9s2.53-1.76,3.78-1.91c5.48,.36,6.83,.36,6.83,.36l.36-1.4s-2.84-1.09-5.33-.72-4.29,1.6-5.64,3.67Z">
</path>
<path d="M46.62,36.9s-2.53-1.76-3.78-1.91c-5.48,.36-6.83,.36-6.83,.36l-.36-1.4s2.84-1.09,5.33-.72,4.29,1.6,5.64,3.67Z">
</path>
<path d="M29.15,37.93c-1.78,.15-3.56,.24-5.32,.34l.15-.03c-.5,.26-1.17,.6-1.55,.94,0,0-.15-.67-.15-.67,1.44,.68,3.06,1.33,4.65,1.42,0,0-.19,.03-.19,.03,.32-.12,1.15-.42,1.46-.54,0,0,.45-.18,.45-.18l.06-.02c.38-.17,.75,.32,.5,.64-.74,.98-1.5,1.93-2.58,2.56-.84-.01-1.71-.48-2.45-.87,.78,.23,1.57,.4,2.36,.45l-.16,.03c.84-.69,1.5-1.7,2.11-2.64l.56,.61c-.31,.16-.68,.32-.99,.46-2,1.08-4.43-.27-6.28-1.17-.56-.37,.14-.91,.42-1.07,.51-.29,1.04-.58,1.59-.73,1.8,.03,3.56,.2,5.34,.44h0Z">
</path>
<path d="M37.34,37.93c1.78-.24,3.54-.41,5.34-.44,.56,.15,1.08,.44,1.59,.73,.29,.15,.99,.69,.43,1.06-1.81,.89-4.32,2.25-6.28,1.17-.31-.14-.68-.29-.99-.46,0,0,.56-.61,.56-.61,.6,.95,1.26,1.95,2.11,2.64l-.16-.03c.79-.05,1.58-.22,2.36-.45-.74,.39-1.61,.86-2.45,.87-.56-.19-3.97-3.34-2.08-3.2,0,0,.06,.02,.06,.02l.45,.18c.3,.12,1.14,.42,1.46,.54l-.19-.03c1.59-.09,3.21-.74,4.65-1.42,0,0-.15,.67-.15,.67-.38-.34-1.04-.68-1.55-.94l.15,.03c-1.75-.1-3.54-.19-5.32-.34h0Z">
</path>
<path d="M35.82,37.09c.46,1.77,.77,3.58,.54,5.43,0,0-.02-.22-.02-.22,.2,.43,.41,.86,.54,1.37,.06,.25,.14,.53,.05,.91-.08,.42-.53,.71-.76,.78-.79,.33-1.89,.63-2.7,.89-.14,.05-.13,.05-.28,0-2.52-.92-4.6-.6-2.88-3.95,0,0-.02,.22-.02,.22-.13-.94-.08-1.86,.02-2.77,.13-.9,.27-1.79,.52-2.66-.07,1.79-.14,3.65,.24,5.39-.19,.59-.54,1.3-.48,1.87,.03,.05,.01,.06,.23,.14,.84,.29,1.76,.55,2.65,.81h-.28c.92-.31,2.09-.51,2.87-.95,.07-.57-.29-1.28-.48-1.87,.38-1.73,.31-3.6,.24-5.39h0Z">
</path>
<path d="M26.19,49.85c.09-.75,.31-1.45,.64-2.12,.33-.64,.69-1.37,1.53-1.61-.42,1.49-1.32,2.48-2.17,3.72h0Z">
</path>
<path d="M40.39,49.85c-.85-1.25-1.75-2.23-2.17-3.72,.84,.24,1.2,.97,1.53,1.61,.32,.66,.55,1.37,.64,2.12h0Z">
</path>
<polyline class="cls-7" points="27.35 47.62 28.85 48.58 37.41 48.58 39.18 47.69">
</polyline>
<path d="M37.71,50.51c-1.21,2.09-7.28,2.1-8.49,0,1.35,.69,2.77,.51,4.25,.53,1.47-.01,2.9,.16,4.25-.53h0Z">
</path>
<path class="cls-7" d="M15.42,35.2s-.51,6.68,2.72,8.43">
</path>
<path class="cls-7" d="M50.91,35.2s.51,6.68-2.72,8.43">
</path>
<polyline class="cls-7" points="20.01 51.91 19.97 56.01 16.04 58.89 5.31 62.72">
</polyline>
<polyline class="cls-7" points="46.35 51.91 46.38 56.01 50.31 58.89 61.05 62.72">
</polyline>
<path class="cls-7" d="M19.99,55.47l.28,5.75s1.82,10.93,12.44,14.02">
</path>
<path class="cls-7" d="M14.47,59.29s-2.59,6.14,3.96,13.99">
</path>
<path class="cls-7" d="M46.33,55.47l-.28,5.75s-1.82,10.93-12.44,14.02">
</path>
<path class="cls-7" d="M51.85,59.29s2.59,6.14-3.96,13.99">
</path>
</g>
<path class="cls-11" d="M20.25,56.66c-1.03,1.17-2.15,2.33-3.42,3.24-2.76,1.14-6.23,2.4-9.09,3.2-1.03,.31-2.08,.56-3.14,.78,0,0-.03-.07-.03-.07,3.98-1.49,8.08-3.09,12.01-4.52,0,0,3.62-2.68,3.62-2.68,0,0,.04,.06,.04,.06h0Z">
</path>
</g>
</g>

  <path
     style="opacity:1;vector-effect:none;fill:#8d5fd3;fill-opacity:1;fill-rule:nonzero;stroke:none;stroke-width:2.35769176;stroke-linecap:butt;stroke-linejoin:miter;stroke-miterlimit:4;stroke-dasharray:none;stroke-dashoffset:0;stroke-opacity:0.44186048"
     d="M 0,1.2e-7 V 80 H 69 V 1.2e-7 Z M 35.240234,4.658203 c 6.067554,0.1120422 16.269844,1.4698438 23.589844,3.8398438 3.46,9.2400002 5.269531,19.9506252 5.269531,31.1406252 0,11.47 -1.89,22.390234 -5.5,31.740234 -7.2,2.16 -14.940375,3.376539 -23.019531,3.259766 -8.580486,-0.124019 -18.036001,-1.572896 -25.240234,-3.86914 -3.4500003,-9.22 -5.2597659,-19.930859 -5.2597659,-31.130859 0,-11.2 1.8904687,-22.380469 5.4804689,-31.730469 C 17.682894,5.1336941 29.17268,4.5461608 35.240234,4.658203 Z"
     id="rect4304" />


</svg>
