<?xml version="1.0" encoding="UTF-8" standalone="no"?>
<svg
   id="Capa_2"
   viewBox="0 0 80 80"
   version="1.1"
   sodipodi:docname="01f.svg"
   inkscape:version="1.1.1 (3bf5ae0d25, 2021-09-20)"
   width="80"
   height="80"
   xmlns:inkscape="http://www.inkscape.org/namespaces/inkscape"
   xmlns:sodipodi="http://sodipodi.sourceforge.net/DTD/sodipodi-0.dtd"
   xmlns="http://www.w3.org/2000/svg"
   xmlns:svg="http://www.w3.org/2000/svg">
  <sodipodi:namedview
     id="namedview733"
     pagecolor="#ffffff"
     bordercolor="#666666"
     borderopacity="1.0"
     inkscape:pageshadow="2"
     inkscape:pageopacity="0.0"
     inkscape:pagecheckerboard="0"
     showgrid="false"
     inkscape:zoom="2.503125"
     inkscape:cx="5.3932584"
     inkscape:cy="17.378277"
     inkscape:window-width="1920"
     inkscape:window-height="1009"
     inkscape:window-x="-8"
     inkscape:window-y="-8"
     inkscape:window-maximized="1"
     inkscape:current-layer="Capa_2"
     inkscape:snap-global="false"
     showguides="true"
     inkscape:guide-bbox="true">
    <sodipodi:guide
       position="-72.109866,51.635456"
       orientation="1,0"
       id="guide2823" />
  </sodipodi:namedview>
  <defs
     id="defs565">
    <style
       id="style372">.cls-1{fill:#c89aed;}.cls-2{fill:#fff;}.cls-3{fill:#f8ffbf;}.cls-4{fill:#7b7be8;}.cls-5{fill:#a88347;}.cls-6{fill:#782ab5;}.cls-7,.cls-8{stroke-miterlimit:10;}.cls-7,.cls-8,.cls-9{stroke:#000;}.cls-7,.cls-8,.cls-9,.cls-10,.cls-11,.cls-12{fill:none;}.cls-8,.cls-9,.cls-10{stroke-linecap:round;}.cls-13{fill:#1c46ff;}.cls-9,.cls-10{stroke-linejoin:round;}.cls-10{stroke:#deb778;stroke-dasharray:0 0 0 4.06;}.cls-14{fill:url(#USGS_19_Inundación_de_tierra);}.cls-15{fill:#e6c0f2;}.cls-16{fill:#deb778;}.cls-17{fill:#ffc16b;}.cls-18{fill:#fefffc;}.cls-12{stroke:#1d1d1b;stroke-dasharray:0 0 2 2;stroke-width:.3px;}.cls-19{fill:#fcf0ff;}.cls-20{fill:#fcf0c5;}.cls-21{fill:#b83521;}</style>
    <pattern
       id="USGS_19_Inundación_de_tierra"
       x="0"
       y="0"
       width="72"
       height="72"
       patternTransform="translate(-20.48 -15991) rotate(-90)"
       patternUnits="userSpaceOnUse"
       viewBox="0 0 72 72">
      <g
         id="g562">
        <rect
           class="cls-11"
           width="72"
           height="72"
           id="rect374" />
        <g
           id="g412">
          <line
             class="cls-12"
             x1="71"
             y1="71"
             x2="144.44"
             y2="71"
             id="line376" />
          <line
             class="cls-12"
             x1="71"
             y1="67"
             x2="144.44"
             y2="67"
             id="line378" />
          <line
             class="cls-12"
             x1="71"
             y1="63"
             x2="144.44"
             y2="63"
             id="line380" />
          <line
             class="cls-12"
             x1="71"
             y1="59"
             x2="144.44"
             y2="59"
             id="line382" />
          <line
             class="cls-12"
             x1="71"
             y1="55"
             x2="144.44"
             y2="55"
             id="line384" />
          <line
             class="cls-12"
             x1="71"
             y1="51"
             x2="144.44"
             y2="51"
             id="line386" />
          <line
             class="cls-12"
             x1="71"
             y1="47"
             x2="144.44"
             y2="47"
             id="line388" />
          <line
             class="cls-12"
             x1="71"
             y1="43"
             x2="144.44"
             y2="43"
             id="line390" />
          <line
             class="cls-12"
             x1="71"
             y1="39"
             x2="144.44"
             y2="39"
             id="line392" />
          <line
             class="cls-12"
             x1="71"
             y1="35"
             x2="144.44"
             y2="35"
             id="line394" />
          <line
             class="cls-12"
             x1="71"
             y1="31"
             x2="144.44"
             y2="31"
             id="line396" />
          <line
             class="cls-12"
             x1="71"
             y1="27"
             x2="144.44"
             y2="27"
             id="line398" />
          <line
             class="cls-12"
             x1="71"
             y1="23"
             x2="144.44"
             y2="23"
             id="line400" />
          <line
             class="cls-12"
             x1="71"
             y1="19"
             x2="144.44"
             y2="19"
             id="line402" />
          <line
             class="cls-12"
             x1="71"
             y1="15"
             x2="144.44"
             y2="15"
             id="line404" />
          <line
             class="cls-12"
             x1="71"
             y1="11"
             x2="144.44"
             y2="11"
             id="line406" />
          <line
             class="cls-12"
             x1="71"
             y1="7"
             x2="144.44"
             y2="7"
             id="line408" />
          <line
             class="cls-12"
             x1="71"
             y1="3"
             x2="144.44"
             y2="3"
             id="line410" />
        </g>
        <g
           id="g486">
          <line
             class="cls-12"
             x1="-1"
             y1="71"
             x2="72.44"
             y2="71"
             id="line414" />
          <line
             class="cls-12"
             x1="-1"
             y1="67"
             x2="72.44"
             y2="67"
             id="line416" />
          <line
             class="cls-12"
             x1="-1"
             y1="63"
             x2="72.44"
             y2="63"
             id="line418" />
          <line
             class="cls-12"
             x1="-1"
             y1="59"
             x2="72.44"
             y2="59"
             id="line420" />
          <line
             class="cls-12"
             x1="-1"
             y1="55"
             x2="72.44"
             y2="55"
             id="line422" />
          <line
             class="cls-12"
             x1="-1"
             y1="51"
             x2="72.44"
             y2="51"
             id="line424" />
          <line
             class="cls-12"
             x1="-1"
             y1="47"
             x2="72.44"
             y2="47"
             id="line426" />
          <line
             class="cls-12"
             x1="-1"
             y1="43"
             x2="72.44"
             y2="43"
             id="line428" />
          <line
             class="cls-12"
             x1="-1"
             y1="39"
             x2="72.44"
             y2="39"
             id="line430" />
          <line
             class="cls-12"
             x1="-1"
             y1="35"
             x2="72.44"
             y2="35"
             id="line432" />
          <line
             class="cls-12"
             x1="-1"
             y1="31"
             x2="72.44"
             y2="31"
             id="line434" />
          <line
             class="cls-12"
             x1="-1"
             y1="27"
             x2="72.44"
             y2="27"
             id="line436" />
          <line
             class="cls-12"
             x1="-1"
             y1="23"
             x2="72.44"
             y2="23"
             id="line438" />
          <line
             class="cls-12"
             x1="-1"
             y1="19"
             x2="72.44"
             y2="19"
             id="line440" />
          <line
             class="cls-12"
             x1="-1"
             y1="15"
             x2="72.44"
             y2="15"
             id="line442" />
          <line
             class="cls-12"
             x1="-1"
             y1="11"
             x2="72.44"
             y2="11"
             id="line444" />
          <line
             class="cls-12"
             x1="-1"
             y1="7"
             x2="72.44"
             y2="7"
             id="line446" />
          <line
             class="cls-12"
             x1="-1"
             y1="3"
             x2="72.44"
             y2="3"
             id="line448" />
          <line
             class="cls-12"
             x1="1.04"
             y1="69"
             x2="74.48"
             y2="69"
             id="line450" />
          <line
             class="cls-12"
             x1="1.04"
             y1="65"
             x2="74.48"
             y2="65"
             id="line452" />
          <line
             class="cls-12"
             x1="1.04"
             y1="61"
             x2="74.48"
             y2="61"
             id="line454" />
          <line
             class="cls-12"
             x1="1.04"
             y1="57"
             x2="74.48"
             y2="57"
             id="line456" />
          <line
             class="cls-12"
             x1="1.04"
             y1="53"
             x2="74.48"
             y2="53"
             id="line458" />
          <line
             class="cls-12"
             x1="1.04"
             y1="49"
             x2="74.48"
             y2="49"
             id="line460" />
          <line
             class="cls-12"
             x1="1.04"
             y1="45"
             x2="74.48"
             y2="45"
             id="line462" />
          <line
             class="cls-12"
             x1="1.04"
             y1="41"
             x2="74.48"
             y2="41"
             id="line464" />
          <line
             class="cls-12"
             x1="1.04"
             y1="37"
             x2="74.48"
             y2="37"
             id="line466" />
          <line
             class="cls-12"
             x1="1.04"
             y1="33"
             x2="74.48"
             y2="33"
             id="line468" />
          <line
             class="cls-12"
             x1="1.04"
             y1="29"
             x2="74.48"
             y2="29"
             id="line470" />
          <line
             class="cls-12"
             x1="1.04"
             y1="25"
             x2="74.48"
             y2="25"
             id="line472" />
          <line
             class="cls-12"
             x1="1.04"
             y1="21"
             x2="74.48"
             y2="21"
             id="line474" />
          <line
             class="cls-12"
             x1="1.04"
             y1="17"
             x2="74.48"
             y2="17"
             id="line476" />
          <line
             class="cls-12"
             x1="1.04"
             y1="13"
             x2="74.48"
             y2="13"
             id="line478" />
          <line
             class="cls-12"
             x1="1.04"
             y1="9"
             x2="74.48"
             y2="9"
             id="line480" />
          <line
             class="cls-12"
             x1="1.04"
             y1="5"
             x2="74.48"
             y2="5"
             id="line482" />
          <line
             class="cls-12"
             x1="1.04"
             y1="1"
             x2="74.48"
             y2="1"
             id="line484" />
        </g>
        <g
           id="g560">
          <line
             class="cls-12"
             x1="-73"
             y1="71"
             x2=".44"
             y2="71"
             id="line488" />
          <line
             class="cls-12"
             x1="-73"
             y1="67"
             x2=".44"
             y2="67"
             id="line490" />
          <line
             class="cls-12"
             x1="-73"
             y1="63"
             x2=".44"
             y2="63"
             id="line492" />
          <line
             class="cls-12"
             x1="-73"
             y1="59"
             x2=".44"
             y2="59"
             id="line494" />
          <line
             class="cls-12"
             x1="-73"
             y1="55"
             x2=".44"
             y2="55"
             id="line496" />
          <line
             class="cls-12"
             x1="-73"
             y1="51"
             x2=".44"
             y2="51"
             id="line498" />
          <line
             class="cls-12"
             x1="-73"
             y1="47"
             x2=".44"
             y2="47"
             id="line500" />
          <line
             class="cls-12"
             x1="-73"
             y1="43"
             x2=".44"
             y2="43"
             id="line502" />
          <line
             class="cls-12"
             x1="-73"
             y1="39"
             x2=".44"
             y2="39"
             id="line504" />
          <line
             class="cls-12"
             x1="-73"
             y1="35"
             x2=".44"
             y2="35"
             id="line506" />
          <line
             class="cls-12"
             x1="-73"
             y1="31"
             x2=".44"
             y2="31"
             id="line508" />
          <line
             class="cls-12"
             x1="-73"
             y1="27"
             x2=".44"
             y2="27"
             id="line510" />
          <line
             class="cls-12"
             x1="-73"
             y1="23"
             x2=".44"
             y2="23"
             id="line512" />
          <line
             class="cls-12"
             x1="-73"
             y1="19"
             x2=".44"
             y2="19"
             id="line514" />
          <line
             class="cls-12"
             x1="-73"
             y1="15"
             x2=".44"
             y2="15"
             id="line516" />
          <line
             class="cls-12"
             x1="-73"
             y1="11"
             x2=".44"
             y2="11"
             id="line518" />
          <line
             class="cls-12"
             x1="-73"
             y1="7"
             x2=".44"
             y2="7"
             id="line520" />
          <line
             class="cls-12"
             x1="-73"
             y1="3"
             x2=".44"
             y2="3"
             id="line522" />
          <line
             class="cls-12"
             x1="-70.96"
             y1="69"
             x2="2.48"
             y2="69"
             id="line524" />
          <line
             class="cls-12"
             x1="-70.96"
             y1="65"
             x2="2.48"
             y2="65"
             id="line526" />
          <line
             class="cls-12"
             x1="-70.96"
             y1="61"
             x2="2.48"
             y2="61"
             id="line528" />
          <line
             class="cls-12"
             x1="-70.96"
             y1="57"
             x2="2.48"
             y2="57"
             id="line530" />
          <line
             class="cls-12"
             x1="-70.96"
             y1="53"
             x2="2.48"
             y2="53"
             id="line532" />
          <line
             class="cls-12"
             x1="-70.96"
             y1="49"
             x2="2.48"
             y2="49"
             id="line534" />
          <line
             class="cls-12"
             x1="-70.96"
             y1="45"
             x2="2.48"
             y2="45"
             id="line536" />
          <line
             class="cls-12"
             x1="-70.96"
             y1="41"
             x2="2.48"
             y2="41"
             id="line538" />
          <line
             class="cls-12"
             x1="-70.96"
             y1="37"
             x2="2.48"
             y2="37"
             id="line540" />
          <line
             class="cls-12"
             x1="-70.96"
             y1="33"
             x2="2.48"
             y2="33"
             id="line542" />
          <line
             class="cls-12"
             x1="-70.96"
             y1="29"
             x2="2.48"
             y2="29"
             id="line544" />
          <line
             class="cls-12"
             x1="-70.96"
             y1="25"
             x2="2.48"
             y2="25"
             id="line546" />
          <line
             class="cls-12"
             x1="-70.96"
             y1="21"
             x2="2.48"
             y2="21"
             id="line548" />
          <line
             class="cls-12"
             x1="-70.96"
             y1="17"
             x2="2.48"
             y2="17"
             id="line550" />
          <line
             class="cls-12"
             x1="-70.96"
             y1="13"
             x2="2.48"
             y2="13"
             id="line552" />
          <line
             class="cls-12"
             x1="-70.96"
             y1="9"
             x2="2.48"
             y2="9"
             id="line554" />
          <line
             class="cls-12"
             x1="-70.96"
             y1="5"
             x2="2.48"
             y2="5"
             id="line556" />
          <line
             class="cls-12"
             x1="-70.96"
             y1="1"
             x2="2.48"
             y2="1"
             id="line558" />
        </g>
      </g>
    </pattern>
  </defs>
  <g
     id="BG"
     transform="matrix(0.95938659,0,0,1,5.4015668,4.3895129)">
    <g
       id="g571">
      <path
         class="cls-6"
         d="m 72.764664,41.598002 c 0,11.47 5.189013,21.590999 1.579013,30.940999 C 45.703059,72.144105 2.0903644,73.991559 -1.8159642,71.529501 -5.2659642,62.309501 -0.41336325,51.2 -0.41336325,40 -0.41336325,28.8 6.89,17.62 10.48,8.27 17.21,6.26 24.61,5.14 32.08,5.01 32.56,5 33.05,5 33.53,5 c 0.54,0 1.08,0.01 1.63,0.02 8.16,0.15 16.27,1.47 23.59,3.84 3.46,9.24 14.014664,21.548002 14.014664,32.738002 z"
         id="path567"
         sodipodi:nodetypes="sccsccsccs" />
      <path
         class="cls-14"
         d="M 34.03,5.59 V 74.98 H 33.86 C 25.68,74.83 17.57,73.51 10.26,71.13 6.81,61.91 5,51.2 5,40 5,28.8 6.89,17.62 10.48,8.27 17.21,6.26 24.61,5.14 32.08,5.01 c 0.65,0.16 1.3,0.36 1.95,0.58 z"
         id="path569" />
    </g>
  </g>
  <g
     id="Characters"
     transform="translate(5.1984997,4.3895129)">
    <path
       class="cls-1"
       d="m 59.56,64.08 -2.26,6.64 c -2.28,0.57 -11.92,2.82 -23.3,2.82 -8.54,0 -16.11,-1.24 -22.51,-3.69 l -1.75,-5.83 4.7,-1.61 0.34,-0.12 0.18,-0.31 1.55,-2.52 2.49,-0.79 2.33,1.07 0.37,0.17 0.38,-0.14 1.5,-0.52 0.46,-0.16 0.16,-0.46 0.92,-2.76 0.23,-0.68 -0.58,-0.44 -0.23,-0.18 c -0.17,-0.12 -0.34,-0.25 -0.5,-0.38 -1.29,-1.74 -1.91,-3.73 -2.56,-5.84 l -0.2,-0.64 c -0.1,-0.39 -0.2,-0.77 -0.31,-1.16 -0.29,-1.08 -0.57,-2.11 -0.74,-3.16 l -0.19,-1.16 -1.12,0.37 c -0.17,0.06 -0.35,0.09 -0.51,0.09 -0.51,0 -1.01,-0.24 -1.34,-0.64 -1.06,-1.27 -2.52,-3.09 -3.43,-4.59 -1.19,-1.94 -0.66,-6.68 1.73,-10.42 0.25,0.34 0.5,0.74 0.73,1.16 l 0.04,0.06 h 0.01 c 0,0 0.03,0.08 0.03,0.08 h 0.02 c 0,0 2.04,3.08 2.04,3.08 l -0.21,-3.68 c -0.21,-3.71 -0.01,-6.45 0.6,-8.14 1.97,-5.48 7.51,-8.62 15.21,-8.62 h 1.11 c 7.7,0 13.24,3.14 15.21,8.62 0.37,1.03 0.59,2.47 0.65,4.27 0.05,1.12 0.03,2.42 -0.06,3.97 l -0.26,4.44 2.14,-3.9 c 0.28,-0.51 0.56,-0.96 0.84,-1.34 2.39,3.75 2.91,8.48 1.72,10.42 -0.9,1.5 -2.36,3.32 -3.42,4.59 -0.34,0.41 -0.83,0.64 -1.35,0.64 -0.17,0 -0.33,-0.02 -0.5,-0.08 l -1.09,-0.33 -0.19,1.13 c -0.14,0.88 -0.38,1.75 -0.64,2.67 -0.15,0.54 -0.3,1.1 -0.44,1.66 l -0.19,0.61 c -0.65,2.12 -1.27,4.13 -2.57,5.89 -0.14,0.12 -0.29,0.23 -0.43,0.34 l -0.16,0.12 -0.55,0.44 0.22,0.67 0.94,2.82 0.16,0.46 0.46,0.17 1.62,0.56 0.38,0.13 0.37,-0.17 2.42,-1.11 2.48,0.79 1.5,2.44 0.03,0.06 0.18,0.36 0.39,0.14 z"
       id="path574" />
    <path
       class="cls-2"
       d="M 33.96,58.58 V 17.1 l 8.77,-1.8 4.61,2.59 3.16,14.4 -1.25,10.67 -3.71,11.13 c 0,0 -5.62,4.72 -11.58,4.5 z"
       id="path576" />
    <path
       class="cls-1"
       d="m 26.59,18.15 3.5,0.83 c 1.52,0.37 3.09,0.55 4.67,0.55 1.58,0 3.15,-0.19 4.67,-0.55 l 3.51,-0.83 c 0.91,0.48 1.76,0.99 2.46,1.49 1.26,2.59 2.41,8.95 3.04,13.8 0,0.03 0,0.05 0,0.07 0.02,0.16 0.05,0.32 0.1,0.47 -0.14,0.92 -0.26,1.61 -0.32,1.93 -0.02,0.12 -0.04,0.21 -0.05,0.28 -0.1,0.64 0.04,1.28 0.41,1.82 0.15,0.22 0.33,0.4 0.53,0.56 l -0.68,1.04 c -0.91,1.39 -1.33,2.82 -1.62,4.03 -0.12,0.41 -0.23,0.83 -0.34,1.26 -0.75,2.77 -1.52,5.62 -3.01,7.75 -2.67,2.19 -5.84,3.45 -8.72,3.45 -1.52,0 -2.97,-0.35 -4.3,-1.03 L 30.36,55.03 30.28,55 c -1.3,-0.53 -3.07,-1.59 -4.11,-2.36 -1.36,-1.91 -2.01,-4.29 -2.69,-6.8 -0.55,-2 -1.11,-4.08 -2.07,-6.03 l -0.67,-1.36 c 0.15,-0.13 0.29,-0.28 0.4,-0.45 0.37,-0.53 0.51,-1.18 0.41,-1.82 -0.01,-0.07 -0.03,-0.17 -0.05,-0.29 -0.07,-0.43 -0.24,-1.4 -0.42,-2.67 0.25,-2.14 1.48,-10.42 3.02,-13.59 0.71,-0.5 1.56,-1.01 2.47,-1.49 m 27.29,13.73 c 0.54,2.02 0.53,3.83 0.09,4.53 -0.47,0.77 -1.17,1.75 -2.08,2.91 l -0.1,-0.51 c 0.66,-0.33 1.15,-0.95 1.31,-1.72 v -0.03 c 0,0 0.01,-0.03 0.01,-0.03 v -0.07 c 0.31,-1.62 0.57,-3.39 0.77,-5.07 M 15.87,32 c 0.15,1.31 0.39,3 0.73,4.9 l 0.03,0.15 c 0.14,0.74 0.59,1.34 1.19,1.7 l -0.05,0.42 C 16.91,38.07 16.25,37.14 15.8,36.41 15.37,35.72 15.36,33.98 15.87,32 m 27.3,-15.96 -4.22,1 c -1.38,0.33 -2.79,0.5 -4.2,0.5 -1.41,0 -2.83,-0.17 -4.2,-0.5 l -4.22,-1 c -0.51,0.25 -2.24,1.11 -3.77,2.26 -2.1,3.67 -3.46,14.68 -3.47,14.79 -0.01,0.03 -0.02,0.06 -0.03,0.09 0.27,1.94 0.52,3.28 0.52,3.32 0.05,0.27 -0.12,0.53 -0.4,0.58 -0.04,0 -0.07,0.01 -0.1,0.01 -0.23,0 -0.43,-0.17 -0.48,-0.4 -0.04,-0.24 -0.54,-2.88 -0.87,-6.16 -0.3,-0.7 -1.04,-2.33 -1.88,-3.49 -2.17,3.43 -3.03,8.33 -1.74,10.42 0.96,1.58 2.56,3.55 3.42,4.59 0.36,0.42 0.86,0.64 1.36,0.64 0.25,0 0.49,-0.05 0.71,-0.16 -0.05,-0.6 -0.05,-1.2 0.02,-1.82 2.11,4.27 2.21,9.51 5.12,13.36 1.07,0.83 3.17,2.13 4.79,2.79 1.7,0.87 3.47,1.25 5.21,1.25 3.77,0 7.45,-1.75 10.2,-4.08 2.05,-2.8 2.88,-6.55 3.81,-9.88 0.28,-1.18 0.64,-2.34 1.36,-3.44 0.12,0.62 0.14,1.23 0.1,1.83 0.22,0.1 0.46,0.15 0.69,0.15 0.5,0 1,-0.22 1.35,-0.64 1.05,-1.27 2.51,-3.1 3.42,-4.59 1.29,-2.09 0.43,-6.99 -1.74,-10.42 -0.92,1.27 -1.71,3.08 -1.94,3.65 -0.34,3.21 -0.82,5.77 -0.86,6 -0.05,0.24 -0.25,0.4 -0.49,0.4 -0.03,0 -0.06,0 -0.09,-0.01 -0.28,-0.05 -0.45,-0.31 -0.4,-0.58 0,-0.04 0.22,-1.18 0.46,-2.89 -0.1,-0.08 -0.18,-0.2 -0.19,-0.33 C 50.4,33.16 49.04,21.97 46.94,18.3 45.42,17.15 43.69,16.29 43.18,16.04 v 0 z"
       id="path578" />
    <path
       class="cls-19"
       d="m 54.42,28.43 c 2.7,4.07 1.88,10.13 -2.19,13 0,0 -0.07,-0.07 -0.07,-0.07 1.4,-1.78 2.26,-3.98 2.81,-6.16 0.51,-2.7 -0.3,-4.66 -0.54,-6.77 v 0 z"
       id="path580" />
    <path
       d="m 23.95,58.57 -15.3,5.25 2.16,7.16 c 0,0 11.45,3.88 24.3,3.63 13.9,-0.27 22.94,-2.86 22.94,-2.86 l 2.62,-7.82 -15.58,-5.36 z"
       id="path582" />
    <path
       class="cls-1"
       d="m 28.27,26.27 c 0,0 3.26,-1.44 6.08,-1.44 2.82,0 6.35,1.44 6.35,1.44 0,0 -5.12,0.91 -12.43,0 z"
       id="path584" />
    <path
       class="cls-3"
       d="m 30.5,36.65 c 0,0 -3.91,-2.1 -7.88,0.58 2.98,1.75 7.71,1.69 7.88,-0.58 z"
       id="path586" />
    <path
       class="cls-3"
       d="m 38.23,36.65 c 0,0 3.91,-2.1 7.88,0.58 -2.98,1.75 -7.71,1.69 -7.88,-0.58 z"
       id="path588" />
    <path
       d="m 51.81,23.82 -0.23,1.82 -0.79,8.14 -3.59,-15.5 c 0,0 -0.7,-0.7 -4.46,-2.63 -7.8,3.07 -16.91,-0.17 -16.91,-0.17 l -4.2,2.45 -3.51,13.14 -1.14,-3.35 c 0,0 0.03,0.05 0.05,0.08 -0.18,-3.14 -0.11,-6.41 0.66,-8.54 2.12,-5.9 8.01,-9.28 16.15,-9.28 h 1.11 c 8.14,0 14.03,3.38 16.15,9.28 0.44,1.23 0.65,2.82 0.71,4.56 z"
       id="path590" />
    <path
       class="cls-1"
       d="m 45.38,44.42 c 0,0 -1.05,2.98 -3.04,5.08 0.41,-2.28 0.7,-3.45 0.7,-3.45 0,0 1.46,-0.41 2.34,-1.64 z"
       id="path592" />
    <polygon
       class="cls-13"
       points="19.35,26.44 17.27,25.13 17.69,20.98 20.11,22.02 "
       id="polygon594" />
    <polygon
       class="cls-13"
       points="49.27,26.44 51.34,25.13 50.93,20.98 48.51,22.02 "
       id="polygon596" />
    <path
       class="cls-18"
       d="m 24.77,55.39 c 0,0 -1.16,3.06 -0.66,3.8 0.5,0.74 0.99,2.23 3.39,1.32 1.24,3.22 4.21,2.48 4.87,1.73 2.31,1.98 4.95,-0.08 4.95,-0.08 0,0 2.23,1.73 4.21,-1.32 2.89,0.58 4.46,-1.4 2.89,-5.37 -3.96,2.06 -6.11,3.3 -10.16,3.47 -4.05,0.17 -9.5,-3.55 -9.5,-3.55 z"
       id="path598" />
    <polygon
       class="cls-21"
       points="16.18,59.03 15.06,61.83 21.28,59.59 18.98,58.14 "
       id="polygon600" />
    <polygon
       class="cls-21"
       points="36.68,67.55 34.26,65.43 31.85,67.55 31.85,71.02 34.26,72.63 36.68,71.02 "
       id="polygon602" />
    <polygon
       class="cls-21"
       points="29.4,66.95 27.68,64.24 24.77,65.6 23.8,68.93 25.67,71.14 28.44,70.28 "
       id="polygon604" />
    <polygon
       class="cls-21"
       points="22.95,65.28 23.34,62.09 20.22,61.3 17.36,63.25 17.4,66.15 20.09,67.23 "
       id="polygon606" />
    <polygon
       class="cls-21"
       points="40.85,64.24 39.13,66.95 40.09,70.28 42.86,71.14 44.73,68.93 43.76,65.6 "
       id="polygon608" />
    <polygon
       class="cls-21"
       points="45.19,62.09 45.58,65.28 48.44,67.23 51.13,66.15 51.17,63.25 48.31,61.3 "
       id="polygon610" />
    <polygon
       class="cls-21"
       points="53.05,59 54.49,61.82 48.08,59.26 50.43,58.22 "
       id="polygon612" />
    <polygon
       points="23.59,59.65 24.77,55.39 33.2,58.94 28.72,62.35 "
       id="polygon614" />
    <path
       d="m 15.34,26.2 2.85,4.69 2.2,13.09 c 0,0 -2.01,0.31 -5,-3.33 -2.99,-3.56 -3.24,-6.47 -2.59,-8.82 0.65,-2.35 2.54,-5.63 2.54,-5.63 z"
       id="path616" />
    <polygon
       class="cls-1"
       points="38.22,41.6 36.75,45.41 32.94,46.37 33.67,43.51 35.1,43.51 35.93,42.42 36.66,42.9 "
       id="polygon618" />
    <polygon
       class="cls-17"
       points="36.44,71.15 36.44,67.39 34.33,65.92 34.33,72.27 "
       id="polygon620" />
    <polygon
       class="cls-17"
       points="28.02,70.42 29.06,66.8 27.43,64.8 25.68,70.91 "
       id="polygon622" />
    <polygon
       class="cls-17"
       points="19.6,66.78 22.84,64.86 23.02,62.29 17.56,65.53 "
       id="polygon624" />
    <polygon
       class="cls-17"
       points="44.44,69 43.3,65.41 40.83,64.65 42.76,70.71 "
       id="polygon626" />
    <polygon
       class="cls-17"
       points="51.02,63.75 47.96,61.56 45.53,62.42 50.69,66.12 "
       id="polygon628" />
    <polygon
       class="cls-4"
       points="43.03,35.9 38.21,36.45 36.16,34.29 43.87,31.35 47.79,32.23 46.36,37.3 "
       id="polygon630" />
    <polygon
       class="cls-4"
       points="25.43,35.9 30.25,36.45 32.3,34.29 24.59,31.35 20.67,32.23 22.1,37.3 "
       id="polygon632" />
    <polygon
       class="cls-17"
       points="50.17,58.36 47.83,59.33 49.45,59.94 50.58,59.33 52.24,59.86 52.6,61.07 54.3,61.56 52.92,59.21 "
       id="polygon634" />
    <polygon
       class="cls-17"
       points="19.08,58.26 21.32,59.26 19.6,59.77 18.81,59.29 16.97,59.83 16.45,61.1 14.91,61.53 16.3,59.2 "
       id="polygon636" />
    <path
       class="cls-2"
       d="m 23.62,41.23 4.95,0.47 -2.17,2.78 c 0,0 -2.3,-0.88 -2.78,-3.25 z"
       id="path638" />
    <path
       class="cls-7"
       d="m 17.87,30.7 c 0,0 -1.18,-3 -2.53,-4.5 -2.53,3.55 -3.63,9.08 -2.13,11.52 0.95,1.56 2.48,3.46 3.47,4.65 0.74,0.88 2.05,1.11 2.97,0.43 0,0 0.02,-0.01 0.03,-0.02"
       id="path640" />
    <path
       class="cls-7"
       d="m 50.97,30.7 c 0,0 1.18,-3 2.53,-4.5 2.53,3.55 3.63,9.08 2.13,11.52 -0.95,1.56 -2.48,3.46 -3.47,4.65 -0.74,0.88 -2.05,1.11 -2.97,0.43 0,0 -0.02,-0.01 -0.03,-0.02"
       id="path642" />
    <path
       d="m 49.64,40.71 c 0.46,2.55 -0.54,4.87 -1.12,7.29 -0.76,2.44 -1.4,4.82 -3,6.93 -3.11,2.66 -6.94,4.62 -11.12,4.68 -4.19,-0.22 -7.88,-2.16 -11.1,-4.72 -1.59,-2.1 -2.23,-4.49 -2.99,-6.91 -0.62,-2.39 -1.45,-4.74 -1.17,-7.27 2.11,4.26 2.21,9.5 5.12,13.35 1.07,0.83 3.17,2.13 4.79,2.79 5.37,2.75 11.39,0.57 15.41,-2.84 2.06,-2.8 2.88,-6.54 3.81,-9.88 0.28,-1.18 0.64,-2.33 1.36,-3.43 v 0 z"
       id="path644" />
    <path
       class="cls-9"
       d="m 50.17,36.59 c 0,0 2.29,-12.07 0.46,-17.17 -1.83,-5.1 -7.06,-8.94 -15.68,-8.94 h -1.1 c -8.62,0 -13.85,3.84 -15.68,8.94 -1.83,5.1 0.46,17.17 0.46,17.17"
       id="path646" />
    <path
       class="cls-9"
       d="m 50.44,33.22 c 0,0 -1.39,-11.53 -3.59,-15.25 -1.88,-1.45 -4.09,-2.45 -4.09,-2.45 l -4.39,1.05 c -2.69,0.64 -5.48,0.64 -8.17,0 l -4.39,-1.05 c 0,0 -2.2,1 -4.1,2.45 -2.2,3.72 -3.59,15.06 -3.59,15.06"
       id="path648" />
    <polyline
       class="cls-9"
       points="60.2 63.77 45.37 58.7 44.24 55.31"
       id="polyline650" />
    <polyline
       class="cls-9"
       points="24.78 55.31 23.65 58.7 8.82 63.81"
       id="polyline652" />
    <path
       d="m 27.86,26.24 c 4.36,0.38 8.72,0.51 13.06,0 -3.99,1.19 -9.09,1.06 -13.06,0 z"
       id="path654" />
    <path
       d="m 21.96,41.89 c 0.77,1.63 2.07,3.02 3.77,3.66 0.54,1.28 0.82,2.65 1.02,4.02 0.09,1.26 0.28,2.82 -0.02,3.93 -0.11,-2.58 -0.49,-5.18 -1.36,-7.61 -1.49,-0.54 -3.16,-2.43 -3.39,-4 v 0 z"
       id="path656" />
    <path
       d="m 46.45,41.9 c -0.26,1.89 -1.57,3.6 -3.32,4.36 0,0 0.23,-0.24 0.23,-0.24 -0.82,2.42 -1.25,4.95 -1.72,7.48 0,0.03 -0.05,0.03 -0.05,0 0.1,-2.59 0.43,-5.21 1.34,-7.66 1.74,-0.64 2.94,-2.4 3.52,-3.93 v 0 z"
       id="path658" />
    <path
       d="m 30.06,36.44 c -2.51,-0.57 -5.19,-0.52 -7.34,1 0,0 -0.02,-0.49 -0.02,-0.49 2.14,1.19 4.99,2.1 7.13,0.48 0.13,-0.1 0.31,-0.08 0.41,0.05 0.08,0.11 0.08,0.26 0,0.36 -0.85,1.02 -1.6,2.17 -2.86,2.74 -0.03,0 -0.07,0 -0.1,0 0,0 -3.97,-0.94 -3.97,-0.94 -0.07,0 4.42,0.48 3.96,0.45 0.99,-0.55 1.79,-1.68 2.49,-2.61 0,0 0.42,0.41 0.42,0.41 -2.31,1.81 -5.51,0.9 -7.78,-0.46 -0.19,-0.1 -0.19,-0.38 0,-0.49 2.21,-1.45 5.33,-1.93 7.67,-0.52 v 0 z"
       id="path660" />
    <path
       d="m 38.59,36.44 c 2.33,-1.42 5.45,-0.93 7.67,0.52 0.13,0.08 0.17,0.26 0.09,0.39 -2.23,1.47 -5.55,2.36 -7.88,0.55 0,0 0.42,-0.41 0.42,-0.41 0.7,0.92 1.51,2.05 2.49,2.61 -0.48,0.02 4.07,-0.46 3.96,-0.45 0,0 -3.97,0.94 -3.97,0.94 -0.03,0 -0.06,0 -0.1,0 -1.26,-0.58 -2.01,-1.72 -2.86,-2.74 -0.21,-0.26 0.15,-0.62 0.42,-0.41 2.13,1.62 4.98,0.71 7.13,-0.48 0,0 -0.02,0.49 -0.02,0.49 -2.15,-1.51 -4.83,-1.57 -7.34,-1 v 0 z"
       id="path662" />
    <path
       d="m 20.62,32.23 c 1.33,-0.71 2.8,-1.33 4.34,-1.38 1.32,0.27 2.62,0.68 3.94,0.96 1.25,0.29 2.51,0.57 3.74,0.79 l -0.37,1.71 c -2.22,-0.64 -5.83,-1.71 -7.24,-2.37 -1.45,0.16 -2.93,0.1 -4.4,0.29 v 0 z"
       id="path664" />
    <path
       d="m 47.79,32.23 c -1.47,-0.19 -2.95,-0.13 -4.4,-0.29 -1.42,0.66 -5.01,1.73 -7.24,2.37 0,0 -0.37,-1.71 -0.37,-1.71 1.23,-0.22 2.5,-0.5 3.74,-0.79 1.32,-0.28 2.62,-0.69 3.94,-0.96 1.53,0.05 3,0.67 4.34,1.38 v 0 z"
       id="path666" />
    <path
       d="m 36.48,40.59 c 0.7,0.26 1.37,0.57 2.05,0.88 0,0 -0.2,0.27 -0.2,0.27 -0.5,0.68 -1.03,1.34 -1.56,2 -0.21,-0.17 -0.97,-0.77 -1.2,-0.95 0,0 0.63,-0.03 0.63,-0.03 -0.37,0.42 -0.76,0.82 -1.13,1.22 -0.57,0.01 -1.15,0.02 -1.72,0 -0.38,-0.41 -0.77,-0.8 -1.13,-1.22 0,0 0.63,0.03 0.63,0.03 -0.23,0.19 -0.98,0.77 -1.2,0.95 -0.53,-0.66 -1.06,-1.32 -1.56,-2 0,0 -0.2,-0.27 -0.2,-0.27 0.68,-0.31 1.35,-0.62 2.05,-0.88 -0.49,0.43 -1.01,0.81 -1.53,1.2 l 0.06,-0.39 c 0.53,0.48 1.04,0.98 1.55,1.48 l -0.58,-0.04 c 0.22,-0.2 0.89,-0.84 1.1,-1.03 0.47,0.43 0.93,0.9 1.37,1.35 0,0 -0.35,-0.15 -0.35,-0.15 0.43,0 0.85,0 1.28,0 l -0.35,0.15 c 0.44,-0.45 0.9,-0.92 1.37,-1.35 0.21,0.19 0.89,0.84 1.1,1.03 0,0 -0.58,0.04 -0.58,0.04 0.51,-0.5 1.02,-0.99 1.55,-1.48 0,0 0.06,0.39 0.06,0.39 -0.52,-0.39 -1.04,-0.77 -1.53,-1.2 v 0 z"
       id="path668" />
    <path
       d="M 40.21,49.26 C 38.93,49.14 37.7,48.87 36.47,48.58 h 0.19 c -0.82,0.19 -1.64,0.33 -2.46,0.48 -0.82,-0.14 -1.64,-0.28 -2.46,-0.46 0,0 0.19,-0.01 0.19,-0.01 -1.23,0.29 -2.46,0.56 -3.74,0.68 1.15,-0.62 2.35,-1.09 3.56,-1.54 0.85,0.08 1.69,0.21 2.53,0.33 0,0 -0.16,0 -0.16,0 0.84,-0.12 1.68,-0.25 2.53,-0.33 1.21,0.45 2.4,0.92 3.56,1.54 v 0 z"
       id="path670" />
    <path
       d="m 30.49,49.77 c 2.45,0.86 5.3,0.44 7.67,0.1 -2.06,1.44 -5.86,1.71 -7.67,-0.1 z"
       id="path672" />
    <polyline
       class="cls-8"
       points="21.66 59.34 19.03 58.13 16.18 59.04 14.54 61.72"
       id="polyline674" />
    <polyline
       class="cls-8"
       points="47.56 59.34 50.19 58.13 53.04 59.04 54.68 61.72"
       id="polyline676" />
    <polygon
       class="cls-9"
       points="36.68,67.55 34.26,65.43 31.85,67.55 31.85,71.02 34.26,72.63 36.68,71.02 "
       id="polygon678" />
    <polygon
       class="cls-9"
       points="29.4,66.95 27.68,64.24 24.77,65.6 23.8,68.93 25.67,71.14 28.44,70.28 "
       id="polygon680" />
    <polygon
       class="cls-9"
       points="22.95,65.28 23.34,62.09 20.22,61.3 17.36,63.25 17.4,66.15 20.09,67.23 "
       id="polygon682" />
    <polygon
       class="cls-9"
       points="40.85,64.24 39.13,66.95 40.09,70.28 42.86,71.14 44.73,68.93 43.76,65.6 "
       id="polygon684" />
    <polygon
       class="cls-9"
       points="45.19,62.09 45.58,65.28 48.44,67.23 51.13,66.15 51.17,63.25 48.31,61.3 "
       id="polygon686" />
    <path
       class="cls-9"
       d="m 45.06,57.77 c 0.04,0.19 0.06,0.38 0.06,0.55 0,0.8 -0.36,1.58 -1.05,2.09 -0.47,0.36 -1.03,0.52 -1.57,0.52 -0.41,0 -0.82,-0.09 -1.19,-0.28 -0.15,0.94 -0.82,1.77 -1.8,2.07 -0.26,0.08 -0.52,0.13 -0.79,0.13 -0.7,0 -1.37,-0.29 -1.86,-0.79 -0.43,0.84 -1.31,1.41 -2.31,1.41 -1,0 -1.9,-0.57 -2.32,-1.4 -0.67,0.67 -1.68,0.96 -2.65,0.66 -0.97,-0.3 -1.65,-1.13 -1.81,-2.07 -0.37,0.19 -0.79,0.29 -1.19,0.29 -0.54,0 -1.09,-0.18 -1.56,-0.52 -0.69,-0.52 -1.06,-1.3 -1.06,-2.09 0,-0.19 0.02,-0.38 0.06,-0.55"
       id="path688" />
    <path
       class="cls-4"
       d="m 15.5,62.82 c -1.57,1.22 -3.4,2.03 -5.26,2.7 -0.1,0.12 -0.38,-0.07 -0.68,-0.77 0.81,-0.4 2.08,-0.72 2.94,-1.04 0,0 2.96,-0.99 2.96,-0.99 l 0.03,0.09 v 0 z"
       id="path690" />
    <path
       class="cls-4"
       d="m 25.76,56.82 c 0.5,1.25 0.09,2.59 -0.73,3.58 -0.62,0.1 -1.2,0.06 -1.82,-0.21 0,0 -0.03,-0.09 -0.03,-0.09 l 1.4,-0.51 c 0.11,-0.67 0.78,-1.93 1.09,-2.8 0,0 0.09,0.04 0.09,0.04 v 0 z"
       id="path692" />
    <path
       class="cls-15"
       d="m 14.47,28.92 c -0.22,2.18 -0.71,4.47 -0.15,6.51 0.62,2.16 1.62,4.07 2.91,5.97 0,0 -0.06,0.08 -0.06,0.08 -2.65,-2.19 -4.65,-5.78 -3.85,-9.27 0.23,-1.15 0.58,-2.27 1.06,-3.33 z"
       id="path694" />
    <path
       class="cls-11"
       d="m 64.02,40 c 0,11.47 -1.89,22.39 -5.5,31.74 C 51.32,73.9 43.58,75 35.5,75 35.01,75 34.52,74.99 34.03,74.98 H 33.86 C 25.68,74.83 17.57,73.51 10.26,71.13 6.81,61.91 5,51.2 5,40 5,28.8 6.89,17.62 10.48,8.27 17.21,6.26 24.61,5.14 32.08,5.01 32.56,5 33.05,5 33.53,5 c 0.54,0 1.08,0.01 1.63,0.02 8.16,0.15 16.27,1.47 23.59,3.84 3.46,9.24 5.27,19.95 5.27,31.14 z"
       id="path696" />
  </g>
  <path
     id="circle3976"
     style="fill:#999999;stroke:#4d4d4d;stroke-width:1.71962;stroke-miterlimit:4;stroke-dasharray:none;stop-color:#000000"
     d="M 40.447769,1.1626169 C 17.573358,4.7476225 0.65850568,25.138294 0.64695211,49.13928 V 79.65391 L 80.133595,80.02885 v 0.365172 H 80.3953 V 76.597758 H 80.133595 V 49.13928 C 80.130876,25.177399 63.276198,4.8010475 40.447769,1.1626169 Z m -0.0079,10.2600701 c 19.783225,0.02313 33.94782,20.543368 33.950147,41.042231 V 77.642514 L 6.3905619,77.322245 V 52.464918 C 6.4004458,31.932602 20.625125,11.399524 40.439839,11.422687 Z"
     sodipodi:nodetypes="ccccccccccsccccs" />
  <path
     id="path6995"
     style="fill:#4d4d4d;stroke:#4d4d4d;stroke-width:1;stroke-miterlimit:4;stroke-dasharray:none;stop-color:#000000"
     d="M 11.785259,57.927795 A 11.385768,11.385768 0 0 0 0.39854011,69.312561 11.385768,11.385768 0 0 0 11.785259,80.69928 11.385768,11.385768 0 0 0 23.171977,69.312561 11.385768,11.385768 0 0 0 11.785259,57.927795 Z m 0,4.97461 a 6.4107356,6.4107356 0 0 1 6.410156,6.410156 6.4107356,6.4107356 0 0 1 -6.410156,6.41211 6.4107356,6.4107356 0 0 1 -6.4101569,-6.41211 6.4107356,6.4107356 0 0 1 6.4101569,-6.410156 z" />
  <path
     id="path6719"
     style="fill:#4d4d4d;stroke:#4d4d4d;stroke-width:1;stroke-miterlimit:4;stroke-dasharray:none;stop-color:#000000"
     d="M 68.514348,58.327295 A 11.385768,11.385768 0 0 0 57.127629,69.712061 11.385768,11.385768 0 0 0 68.514348,81.09878 11.385768,11.385768 0 0 0 79.901066,69.712061 11.385768,11.385768 0 0 0 68.514348,58.327295 Z m 0,4.97461 a 6.4107356,6.4107356 0 0 1 6.410156,6.410156 6.4107356,6.4107356 0 0 1 -6.410156,6.41211 6.4107356,6.4107356 0 0 1 -6.410157,-6.41211 6.4107356,6.4107356 0 0 1 6.410157,-6.410156 z" />
  <path
     id="path6997"
     style="fill:#808080;stroke:#4d4d4d;stroke-width:0.630301;stroke-miterlimit:4;stroke-dasharray:none;stop-color:#000000"
     d="m 11.785259,62.137092 a 7.176462,7.176462 0 0 0 -7.1770619,7.17583 7.176462,7.176462 0 0 0 7.1770619,7.177061 7.176462,7.176462 0 0 0 7.177061,-7.177061 7.176462,7.176462 0 0 0 -7.177061,-7.17583 z m 0,3.135502 a 4.0406937,4.0406937 0 0 1 4.040328,4.040328 4.0406937,4.0406937 0 0 1 -4.040328,4.04156 4.0406937,4.0406937 0 0 1 -4.0403289,-4.04156 4.0406937,4.0406937 0 0 1 4.0403289,-4.040328 z" />
  <path
     id="path6719-2"
     style="fill:#808080;stroke:#4d4d4d;stroke-width:0.630301;stroke-miterlimit:4;stroke-dasharray:none;stop-color:#000000"
     d="m 68.514348,62.536592 a 7.176462,7.176462 0 0 0 -7.177062,7.17583 7.176462,7.176462 0 0 0 7.177062,7.177061 7.176462,7.176462 0 0 0 7.177061,-7.177061 7.176462,7.176462 0 0 0 -7.177061,-7.17583 z m 0,3.135502 a 4.0406937,4.0406937 0 0 1 4.040328,4.040328 4.0406937,4.0406937 0 0 1 -4.040328,4.04156 4.0406937,4.0406937 0 0 1 -4.040329,-4.04156 4.0406937,4.0406937 0 0 1 4.040329,-4.040328 z" />
  <path
     id="path6999"
     style="fill:#ff0000;stroke:#4d4d4d;stroke-width:1;stroke-miterlimit:4;stroke-dasharray:none;stop-color:#000000"
     d="m 12.156525,61.611389 a 3.7952559,3.7952559 0 0 0 -3.5839839,1.998047 3.7952559,3.7952559 0 0 0 0.261719,3.992188 3.7952559,3.7952559 0 0 0 -3.464844,1.996093 3.7952559,3.7952559 0 0 0 1.55664,5.136719 3.7952559,3.7952559 0 0 0 5.1367189,-1.556641 3.7952559,3.7952559 0 0 0 0.119141,-0.242187 3.7952559,3.7952559 0 0 0 1.373047,1.267578 3.7952559,3.7952559 0 0 0 5.136718,-1.558594 3.7952559,3.7952559 0 0 0 -1.55664,-5.134765 3.7952559,3.7952559 0 0 0 -1.808594,-0.439453 3.7952559,3.7952559 0 0 0 -1.617187,-5.017579 3.7952559,3.7952559 0 0 0 -1.552735,-0.441406 z m -0.210937,7.574219 a 3.7952559,3.7952559 0 0 0 -0.05469,0.123047 3.7952559,3.7952559 0 0 0 -0.08398,-0.121094 3.7952559,3.7952559 0 0 0 0.138672,-0.002 z" />
  <path
     id="circle6950"
     style="fill:#ff0000;stroke:#4d4d4d;stroke-width:1;stroke-miterlimit:4;stroke-dasharray:none;stop-color:#000000"
     d="m 68.885614,62.010889 a 3.7952559,3.7952559 0 0 0 -3.583984,1.998047 3.7952559,3.7952559 0 0 0 0.261719,3.992188 3.7952559,3.7952559 0 0 0 -3.464844,1.996093 3.7952559,3.7952559 0 0 0 1.55664,5.136719 3.7952559,3.7952559 0 0 0 5.136719,-1.556641 3.7952559,3.7952559 0 0 0 0.119141,-0.242187 3.7952559,3.7952559 0 0 0 1.373047,1.267578 3.7952559,3.7952559 0 0 0 5.136718,-1.558594 3.7952559,3.7952559 0 0 0 -1.55664,-5.134765 3.7952559,3.7952559 0 0 0 -1.808594,-0.439453 3.7952559,3.7952559 0 0 0 -1.617187,-5.017579 3.7952559,3.7952559 0 0 0 -1.552735,-0.441406 z m -0.210937,7.574219 a 3.7952559,3.7952559 0 0 0 -0.05469,0.123047 3.7952559,3.7952559 0 0 0 -0.08398,-0.121094 3.7952559,3.7952559 0 0 0 0.138672,-0.002 z" />
</svg>
