<?xml version="1.0" encoding="UTF-8" standalone="no"?>
<svg
   id="Capa_2"
   viewBox="0 0 69.02 80"
   version="1.1"
   sodipodi:docname="01f2.svg"
   inkscape:version="1.1.1 (3bf5ae0d25, 2021-09-20)"
   xmlns:inkscape="http://www.inkscape.org/namespaces/inkscape"
   xmlns:sodipodi="http://sodipodi.sourceforge.net/DTD/sodipodi-0.dtd"
   xmlns="http://www.w3.org/2000/svg"
   xmlns:svg="http://www.w3.org/2000/svg">
  <sodipodi:namedview
     id="namedview7537"
     pagecolor="#ffffff"
     bordercolor="#666666"
     borderopacity="1.0"
     inkscape:pageshadow="2"
     inkscape:pageopacity="0.0"
     inkscape:pagecheckerboard="0"
     showgrid="false"
     inkscape:snap-global="false"
     inkscape:zoom="5.45"
     inkscape:cx="12.385321"
     inkscape:cy="45.412844"
     inkscape:window-width="1920"
     inkscape:window-height="1009"
     inkscape:window-x="-8"
     inkscape:window-y="-8"
     inkscape:window-maximized="1"
     inkscape:current-layer="Capa_2" />
  <defs
     id="defs7369">
    <style
       id="style7176">.cls-1{fill:#c89aed;}.cls-2{fill:#fff;}.cls-3{fill:#f8ffbf;}.cls-4{fill:#7b7be8;}.cls-5{fill:#a88347;}.cls-6{fill:#782ab5;}.cls-7,.cls-8{stroke-miterlimit:10;}.cls-7,.cls-8,.cls-9{stroke:#000;}.cls-7,.cls-8,.cls-9,.cls-10,.cls-11,.cls-12{fill:none;}.cls-8,.cls-9,.cls-10{stroke-linecap:round;}.cls-13{fill:#1c46ff;}.cls-9,.cls-10{stroke-linejoin:round;}.cls-10{stroke:#deb778;stroke-dasharray:0 0 0 4.06;}.cls-14{fill:url(#USGS_19_Inundación_de_tierra);}.cls-15{fill:#e6c0f2;}.cls-16{fill:#deb778;}.cls-17{fill:#ffc16b;}.cls-18{fill:#fefffc;}.cls-12{stroke:#1d1d1b;stroke-dasharray:0 0 2 2;stroke-width:.3px;}.cls-19{fill:#fcf0ff;}.cls-20{fill:#fcf0c5;}.cls-21{fill:#b83521;}</style>
    <pattern
       id="USGS_19_Inundación_de_tierra"
       x="0"
       y="0"
       width="72"
       height="72"
       patternTransform="translate(-20.48 -15991) rotate(-90)"
       patternUnits="userSpaceOnUse"
       viewBox="0 0 72 72">
      <g
         id="g7366">
        <rect
           class="cls-11"
           width="72"
           height="72"
           id="rect7178" />
        <g
           id="g7216">
          <line
             class="cls-12"
             x1="71"
             y1="71"
             x2="144.44"
             y2="71"
             id="line7180" />
          <line
             class="cls-12"
             x1="71"
             y1="67"
             x2="144.44"
             y2="67"
             id="line7182" />
          <line
             class="cls-12"
             x1="71"
             y1="63"
             x2="144.44"
             y2="63"
             id="line7184" />
          <line
             class="cls-12"
             x1="71"
             y1="59"
             x2="144.44"
             y2="59"
             id="line7186" />
          <line
             class="cls-12"
             x1="71"
             y1="55"
             x2="144.44"
             y2="55"
             id="line7188" />
          <line
             class="cls-12"
             x1="71"
             y1="51"
             x2="144.44"
             y2="51"
             id="line7190" />
          <line
             class="cls-12"
             x1="71"
             y1="47"
             x2="144.44"
             y2="47"
             id="line7192" />
          <line
             class="cls-12"
             x1="71"
             y1="43"
             x2="144.44"
             y2="43"
             id="line7194" />
          <line
             class="cls-12"
             x1="71"
             y1="39"
             x2="144.44"
             y2="39"
             id="line7196" />
          <line
             class="cls-12"
             x1="71"
             y1="35"
             x2="144.44"
             y2="35"
             id="line7198" />
          <line
             class="cls-12"
             x1="71"
             y1="31"
             x2="144.44"
             y2="31"
             id="line7200" />
          <line
             class="cls-12"
             x1="71"
             y1="27"
             x2="144.44"
             y2="27"
             id="line7202" />
          <line
             class="cls-12"
             x1="71"
             y1="23"
             x2="144.44"
             y2="23"
             id="line7204" />
          <line
             class="cls-12"
             x1="71"
             y1="19"
             x2="144.44"
             y2="19"
             id="line7206" />
          <line
             class="cls-12"
             x1="71"
             y1="15"
             x2="144.44"
             y2="15"
             id="line7208" />
          <line
             class="cls-12"
             x1="71"
             y1="11"
             x2="144.44"
             y2="11"
             id="line7210" />
          <line
             class="cls-12"
             x1="71"
             y1="7"
             x2="144.44"
             y2="7"
             id="line7212" />
          <line
             class="cls-12"
             x1="71"
             y1="3"
             x2="144.44"
             y2="3"
             id="line7214" />
        </g>
        <g
           id="g7290">
          <line
             class="cls-12"
             x1="-1"
             y1="71"
             x2="72.44"
             y2="71"
             id="line7218" />
          <line
             class="cls-12"
             x1="-1"
             y1="67"
             x2="72.44"
             y2="67"
             id="line7220" />
          <line
             class="cls-12"
             x1="-1"
             y1="63"
             x2="72.44"
             y2="63"
             id="line7222" />
          <line
             class="cls-12"
             x1="-1"
             y1="59"
             x2="72.44"
             y2="59"
             id="line7224" />
          <line
             class="cls-12"
             x1="-1"
             y1="55"
             x2="72.44"
             y2="55"
             id="line7226" />
          <line
             class="cls-12"
             x1="-1"
             y1="51"
             x2="72.44"
             y2="51"
             id="line7228" />
          <line
             class="cls-12"
             x1="-1"
             y1="47"
             x2="72.44"
             y2="47"
             id="line7230" />
          <line
             class="cls-12"
             x1="-1"
             y1="43"
             x2="72.44"
             y2="43"
             id="line7232" />
          <line
             class="cls-12"
             x1="-1"
             y1="39"
             x2="72.44"
             y2="39"
             id="line7234" />
          <line
             class="cls-12"
             x1="-1"
             y1="35"
             x2="72.44"
             y2="35"
             id="line7236" />
          <line
             class="cls-12"
             x1="-1"
             y1="31"
             x2="72.44"
             y2="31"
             id="line7238" />
          <line
             class="cls-12"
             x1="-1"
             y1="27"
             x2="72.44"
             y2="27"
             id="line7240" />
          <line
             class="cls-12"
             x1="-1"
             y1="23"
             x2="72.44"
             y2="23"
             id="line7242" />
          <line
             class="cls-12"
             x1="-1"
             y1="19"
             x2="72.44"
             y2="19"
             id="line7244" />
          <line
             class="cls-12"
             x1="-1"
             y1="15"
             x2="72.44"
             y2="15"
             id="line7246" />
          <line
             class="cls-12"
             x1="-1"
             y1="11"
             x2="72.44"
             y2="11"
             id="line7248" />
          <line
             class="cls-12"
             x1="-1"
             y1="7"
             x2="72.44"
             y2="7"
             id="line7250" />
          <line
             class="cls-12"
             x1="-1"
             y1="3"
             x2="72.44"
             y2="3"
             id="line7252" />
          <line
             class="cls-12"
             x1="1.04"
             y1="69"
             x2="74.48"
             y2="69"
             id="line7254" />
          <line
             class="cls-12"
             x1="1.04"
             y1="65"
             x2="74.48"
             y2="65"
             id="line7256" />
          <line
             class="cls-12"
             x1="1.04"
             y1="61"
             x2="74.48"
             y2="61"
             id="line7258" />
          <line
             class="cls-12"
             x1="1.04"
             y1="57"
             x2="74.48"
             y2="57"
             id="line7260" />
          <line
             class="cls-12"
             x1="1.04"
             y1="53"
             x2="74.48"
             y2="53"
             id="line7262" />
          <line
             class="cls-12"
             x1="1.04"
             y1="49"
             x2="74.48"
             y2="49"
             id="line7264" />
          <line
             class="cls-12"
             x1="1.04"
             y1="45"
             x2="74.48"
             y2="45"
             id="line7266" />
          <line
             class="cls-12"
             x1="1.04"
             y1="41"
             x2="74.48"
             y2="41"
             id="line7268" />
          <line
             class="cls-12"
             x1="1.04"
             y1="37"
             x2="74.48"
             y2="37"
             id="line7270" />
          <line
             class="cls-12"
             x1="1.04"
             y1="33"
             x2="74.48"
             y2="33"
             id="line7272" />
          <line
             class="cls-12"
             x1="1.04"
             y1="29"
             x2="74.48"
             y2="29"
             id="line7274" />
          <line
             class="cls-12"
             x1="1.04"
             y1="25"
             x2="74.48"
             y2="25"
             id="line7276" />
          <line
             class="cls-12"
             x1="1.04"
             y1="21"
             x2="74.48"
             y2="21"
             id="line7278" />
          <line
             class="cls-12"
             x1="1.04"
             y1="17"
             x2="74.48"
             y2="17"
             id="line7280" />
          <line
             class="cls-12"
             x1="1.04"
             y1="13"
             x2="74.48"
             y2="13"
             id="line7282" />
          <line
             class="cls-12"
             x1="1.04"
             y1="9"
             x2="74.48"
             y2="9"
             id="line7284" />
          <line
             class="cls-12"
             x1="1.04"
             y1="5"
             x2="74.48"
             y2="5"
             id="line7286" />
          <line
             class="cls-12"
             x1="1.04"
             y1="1"
             x2="74.48"
             y2="1"
             id="line7288" />
        </g>
        <g
           id="g7364">
          <line
             class="cls-12"
             x1="-73"
             y1="71"
             x2=".44"
             y2="71"
             id="line7292" />
          <line
             class="cls-12"
             x1="-73"
             y1="67"
             x2=".44"
             y2="67"
             id="line7294" />
          <line
             class="cls-12"
             x1="-73"
             y1="63"
             x2=".44"
             y2="63"
             id="line7296" />
          <line
             class="cls-12"
             x1="-73"
             y1="59"
             x2=".44"
             y2="59"
             id="line7298" />
          <line
             class="cls-12"
             x1="-73"
             y1="55"
             x2=".44"
             y2="55"
             id="line7300" />
          <line
             class="cls-12"
             x1="-73"
             y1="51"
             x2=".44"
             y2="51"
             id="line7302" />
          <line
             class="cls-12"
             x1="-73"
             y1="47"
             x2=".44"
             y2="47"
             id="line7304" />
          <line
             class="cls-12"
             x1="-73"
             y1="43"
             x2=".44"
             y2="43"
             id="line7306" />
          <line
             class="cls-12"
             x1="-73"
             y1="39"
             x2=".44"
             y2="39"
             id="line7308" />
          <line
             class="cls-12"
             x1="-73"
             y1="35"
             x2=".44"
             y2="35"
             id="line7310" />
          <line
             class="cls-12"
             x1="-73"
             y1="31"
             x2=".44"
             y2="31"
             id="line7312" />
          <line
             class="cls-12"
             x1="-73"
             y1="27"
             x2=".44"
             y2="27"
             id="line7314" />
          <line
             class="cls-12"
             x1="-73"
             y1="23"
             x2=".44"
             y2="23"
             id="line7316" />
          <line
             class="cls-12"
             x1="-73"
             y1="19"
             x2=".44"
             y2="19"
             id="line7318" />
          <line
             class="cls-12"
             x1="-73"
             y1="15"
             x2=".44"
             y2="15"
             id="line7320" />
          <line
             class="cls-12"
             x1="-73"
             y1="11"
             x2=".44"
             y2="11"
             id="line7322" />
          <line
             class="cls-12"
             x1="-73"
             y1="7"
             x2=".44"
             y2="7"
             id="line7324" />
          <line
             class="cls-12"
             x1="-73"
             y1="3"
             x2=".44"
             y2="3"
             id="line7326" />
          <line
             class="cls-12"
             x1="-70.96"
             y1="69"
             x2="2.48"
             y2="69"
             id="line7328" />
          <line
             class="cls-12"
             x1="-70.96"
             y1="65"
             x2="2.48"
             y2="65"
             id="line7330" />
          <line
             class="cls-12"
             x1="-70.96"
             y1="61"
             x2="2.48"
             y2="61"
             id="line7332" />
          <line
             class="cls-12"
             x1="-70.96"
             y1="57"
             x2="2.48"
             y2="57"
             id="line7334" />
          <line
             class="cls-12"
             x1="-70.96"
             y1="53"
             x2="2.48"
             y2="53"
             id="line7336" />
          <line
             class="cls-12"
             x1="-70.96"
             y1="49"
             x2="2.48"
             y2="49"
             id="line7338" />
          <line
             class="cls-12"
             x1="-70.96"
             y1="45"
             x2="2.48"
             y2="45"
             id="line7340" />
          <line
             class="cls-12"
             x1="-70.96"
             y1="41"
             x2="2.48"
             y2="41"
             id="line7342" />
          <line
             class="cls-12"
             x1="-70.96"
             y1="37"
             x2="2.48"
             y2="37"
             id="line7344" />
          <line
             class="cls-12"
             x1="-70.96"
             y1="33"
             x2="2.48"
             y2="33"
             id="line7346" />
          <line
             class="cls-12"
             x1="-70.96"
             y1="29"
             x2="2.48"
             y2="29"
             id="line7348" />
          <line
             class="cls-12"
             x1="-70.96"
             y1="25"
             x2="2.48"
             y2="25"
             id="line7350" />
          <line
             class="cls-12"
             x1="-70.96"
             y1="21"
             x2="2.48"
             y2="21"
             id="line7352" />
          <line
             class="cls-12"
             x1="-70.96"
             y1="17"
             x2="2.48"
             y2="17"
             id="line7354" />
          <line
             class="cls-12"
             x1="-70.96"
             y1="13"
             x2="2.48"
             y2="13"
             id="line7356" />
          <line
             class="cls-12"
             x1="-70.96"
             y1="9"
             x2="2.48"
             y2="9"
             id="line7358" />
          <line
             class="cls-12"
             x1="-70.96"
             y1="5"
             x2="2.48"
             y2="5"
             id="line7360" />
          <line
             class="cls-12"
             x1="-70.96"
             y1="1"
             x2="2.48"
             y2="1"
             id="line7362" />
        </g>
      </g>
    </pattern>
  </defs>
  <path
     id="path7641-4"
     style="fill:#782ab5;fill-opacity:1;stroke:#4d4d4d;stroke-width:1.62226;stop-color:#000000"
     d="M 34.900259,1.6936052 C 14.323312,9.5265586 1.6299002,23.954051 1.5689773,39.580572 V 79.197446 H 67.963672 V 39.580572 C 67.958188,23.990066 55.374427,9.5708664 34.900259,1.6936052 Z"
     sodipodi:nodetypes="cccccc" />
  <path
     id="path7641-7"
     style="fill:#808080;stroke:#4d4d4d;stroke-width:1.48325;stop-color:#000000"
     d="M 34.629293,5.0425238 C 15.815619,12.204258 4.1542243,25.395327 4.1542243,39.682894 V 76.559207 H 64.859448 V 39.682894 c 0,-14.254531 -11.510452,-27.438125 -30.230155,-34.6403702 z m -0.01233,3.4358455 C 51.537073,14.988239 61.941622,26.904418 61.941622,39.788613 v 33.82806 H 7.07205 v -33.82806 c 0,-12.914055 10.539857,-24.836991 27.544909,-31.3102437 z"
     sodipodi:nodetypes="csccsccsccscc" />
  <path
     id="path7641-7-8"
     style="fill:#808080;stroke:#4d4d4d;stroke-width:1.35027;stop-color:#000000"
     d="M 34.618314,8.2461803 C 17.491429,14.76581 6.8755673,26.7742 6.8755673,39.780777 v 33.57007 H 62.138105 v -33.57007 c 0,-12.976504 -10.478452,-24.978088 -27.519791,-31.5345967 z m -0.01123,3.1277957 c 15.403093,5.926211 24.874795,16.774013 24.874795,28.503041 V 70.672134 H 9.5317874 V 39.877017 c 0,-11.75621 9.5948786,-22.610165 25.0752986,-28.503041 z"
     sodipodi:nodetypes="csccsccsccscc" />
  <path
     id="path7641-7-8-0"
     style="fill:#808080;stroke:#4d4d4d;stroke-width:1.21411;stop-color:#000000"
     d="M 34.607073,11.526302 C 19.207238,17.388502 9.6618637,28.185984 9.6618637,39.880997 V 70.06591 H 59.351809 V 39.880997 c 0,-11.667973 -9.421821,-22.459335 -24.744736,-28.354695 z m -0.0101,2.812393 c 13.849868,5.328621 22.366458,15.082547 22.366458,25.628837 V 67.657315 H 12.050234 V 39.967532 c 0,-10.570731 8.627346,-20.33019 22.546743,-25.628837 z"
     sodipodi:nodetypes="csccsccsccscc" />
  <g
     id="Characters">
    <path
       class="cls-1"
       d="M59.56,64.08l-2.26,6.64c-2.28,.57-11.92,2.82-23.3,2.82-8.54,0-16.11-1.24-22.51-3.69l-1.75-5.83,4.7-1.61,.34-.12,.18-.31,1.55-2.52,2.49-.79,2.33,1.07,.37,.17,.38-.14,1.5-.52,.46-.16,.16-.46,.92-2.76,.23-.68-.58-.44-.23-.18c-.17-.12-.34-.25-.5-.38-1.29-1.74-1.91-3.73-2.56-5.84l-.2-.64c-.1-.39-.2-.77-.31-1.16-.29-1.08-.57-2.11-.74-3.16l-.19-1.16-1.12,.37c-.17,.06-.35,.09-.51,.09-.51,0-1.01-.24-1.34-.64-1.06-1.27-2.52-3.09-3.43-4.59-1.19-1.94-.66-6.68,1.73-10.42,.25,.34,.5,.74,.73,1.16l.04,.06h.01s.03,.08,.03,.08h.02s2.04,3.08,2.04,3.08l-.21-3.68c-.21-3.71-.01-6.45,.6-8.14,1.97-5.48,7.51-8.62,15.21-8.62h1.11c7.7,0,13.24,3.14,15.21,8.62,.37,1.03,.59,2.47,.65,4.27,.05,1.12,.03,2.42-.06,3.97l-.26,4.44,2.14-3.9c.28-.51,.56-.96,.84-1.34,2.39,3.75,2.91,8.48,1.72,10.42-.9,1.5-2.36,3.32-3.42,4.59-.34,.41-.83,.64-1.35,.64-.17,0-.33-.02-.5-.08l-1.09-.33-.19,1.13c-.14,.88-.38,1.75-.64,2.67-.15,.54-.3,1.1-.44,1.66l-.19,.61c-.65,2.12-1.27,4.13-2.57,5.89-.14,.12-.29,.23-.43,.34l-.16,.12-.55,.44,.22,.67,.94,2.82,.16,.46,.46,.17,1.62,.56,.38,.13,.37-.17,2.42-1.11,2.48,.79,1.5,2.44,.03,.06,.18,.36,.39,.14,4.75,1.62Z"
       id="path7378" />
    <path
       class="cls-2"
       d="M33.96,58.58V17.1l8.77-1.8,4.61,2.59,3.16,14.4-1.25,10.67-3.71,11.13s-5.62,4.72-11.58,4.5Z"
       id="path7380" />
    <path
       class="cls-1"
       d="M26.59,18.15l3.5,.83c1.52,.37,3.09,.55,4.67,.55s3.15-.19,4.67-.55l3.51-.83c.91,.48,1.76,.99,2.46,1.49,1.26,2.59,2.41,8.95,3.04,13.8,0,.03,0,.05,0,.07,.02,.16,.05,.32,.1,.47-.14,.92-.26,1.61-.32,1.93-.02,.12-.04,.21-.05,.28-.1,.64,.04,1.28,.41,1.82,.15,.22,.33,.4,.53,.56l-.68,1.04c-.91,1.39-1.33,2.82-1.62,4.03-.12,.41-.23,.83-.34,1.26-.75,2.77-1.52,5.62-3.01,7.75-2.67,2.19-5.84,3.45-8.72,3.45-1.52,0-2.97-.35-4.3-1.03l-.08-.04-.08-.03c-1.3-.53-3.07-1.59-4.11-2.36-1.36-1.91-2.01-4.29-2.69-6.8-.55-2-1.11-4.08-2.07-6.03l-.67-1.36c.15-.13,.29-.28,.4-.45,.37-.53,.51-1.18,.41-1.82-.01-.07-.03-.17-.05-.29-.07-.43-.24-1.4-.42-2.67,.25-2.14,1.48-10.42,3.02-13.59,.71-.5,1.56-1.01,2.47-1.49m27.29,13.73c.54,2.02,.53,3.83,.09,4.53-.47,.77-1.17,1.75-2.08,2.91l-.1-.51c.66-.33,1.15-.95,1.31-1.72v-.03s.01-.03,.01-.03v-.07c.31-1.62,.57-3.39,.77-5.07m-37.99,.12c.15,1.31,.39,3,.73,4.9l.03,.15c.14,.74,.59,1.34,1.19,1.7l-.05,.42c-.86-1.1-1.52-2.03-1.97-2.76-.43-.69-.44-2.43,.07-4.41m27.3-15.96l-4.22,1c-1.38,.33-2.79,.5-4.2,.5s-2.83-.17-4.2-.5l-4.22-1c-.51,.25-2.24,1.11-3.77,2.26-2.1,3.67-3.46,14.68-3.47,14.79-.01,.03-.02,.06-.03,.09,.27,1.94,.52,3.28,.52,3.32,.05,.27-.12,.53-.4,.58-.04,0-.07,.01-.1,.01-.23,0-.43-.17-.48-.4-.04-.24-.54-2.88-.87-6.16-.3-.7-1.04-2.33-1.88-3.49-2.17,3.43-3.03,8.33-1.74,10.42,.96,1.58,2.56,3.55,3.42,4.59,.36,.42,.86,.64,1.36,.64,.25,0,.49-.05,.71-.16-.05-.6-.05-1.2,.02-1.82,2.11,4.27,2.21,9.51,5.12,13.36,1.07,.83,3.17,2.13,4.79,2.79,1.7,.87,3.47,1.25,5.21,1.25,3.77,0,7.45-1.75,10.2-4.08,2.05-2.8,2.88-6.55,3.81-9.88,.28-1.18,.64-2.34,1.36-3.44,.12,.62,.14,1.23,.1,1.83,.22,.1,.46,.15,.69,.15,.5,0,1-.22,1.35-.64,1.05-1.27,2.51-3.1,3.42-4.59,1.29-2.09,.43-6.99-1.74-10.42-.92,1.27-1.71,3.08-1.94,3.65-.34,3.21-.82,5.77-.86,6-.05,.24-.25,.4-.49,.4-.03,0-.06,0-.09-.01-.28-.05-.45-.31-.4-.58,0-.04,.22-1.18,.46-2.89-.1-.08-.18-.2-.19-.33-.02-.12-1.38-11.31-3.48-14.98-1.52-1.15-3.25-2.01-3.76-2.26h0Z"
       id="path7382" />
    <path
       class="cls-19"
       d="M54.42,28.43c2.7,4.07,1.88,10.13-2.19,13,0,0-.07-.07-.07-.07,1.4-1.78,2.26-3.98,2.81-6.16,.51-2.7-.3-4.66-.54-6.77h0Z"
       id="path7384" />
    <path
       d="M23.95,58.57l-15.3,5.25,2.16,7.16s11.45,3.88,24.3,3.63c13.9-.27,22.94-2.86,22.94-2.86l2.62-7.82-15.58-5.36H23.95Z"
       id="path7386" />
    <path
       class="cls-1"
       d="M28.27,26.27s3.26-1.44,6.08-1.44,6.35,1.44,6.35,1.44c0,0-5.12,.91-12.43,0Z"
       id="path7388" />
    <path
       class="cls-3"
       d="M30.5,36.65s-3.91-2.1-7.88,.58c2.98,1.75,7.71,1.69,7.88-.58Z"
       id="path7390" />
    <path
       class="cls-3"
       d="M38.23,36.65s3.91-2.1,7.88,.58c-2.98,1.75-7.71,1.69-7.88-.58Z"
       id="path7392" />
    <path
       d="M51.81,23.82l-.23,1.82-.79,8.14-3.59-15.5s-.7-.7-4.46-2.63c-7.8,3.07-16.91-.17-16.91-.17l-4.2,2.45-3.51,13.14-1.14-3.35s.03,.05,.05,.08c-.18-3.14-.11-6.41,.66-8.54,2.12-5.9,8.01-9.28,16.15-9.28h1.11c8.14,0,14.03,3.38,16.15,9.28,.44,1.23,.65,2.82,.71,4.56Z"
       id="path7394" />
    <path
       class="cls-1"
       d="M45.38,44.42s-1.05,2.98-3.04,5.08c.41-2.28,.7-3.45,.7-3.45,0,0,1.46-.41,2.34-1.64Z"
       id="path7396" />
    <polygon
       class="cls-13"
       points="17.69 20.98 20.11 22.02 19.35 26.44 17.27 25.13 17.69 20.98"
       id="polygon7398" />
    <polygon
       class="cls-13"
       points="50.93 20.98 48.51 22.02 49.27 26.44 51.34 25.13 50.93 20.98"
       id="polygon7400" />
    <path
       class="cls-18"
       d="M24.77,55.39s-1.16,3.06-.66,3.8,.99,2.23,3.39,1.32c1.24,3.22,4.21,2.48,4.87,1.73,2.31,1.98,4.95-.08,4.95-.08,0,0,2.23,1.73,4.21-1.32,2.89,.58,4.46-1.4,2.89-5.37-3.96,2.06-6.11,3.3-10.16,3.47s-9.5-3.55-9.5-3.55Z"
       id="path7402" />
    <polygon
       class="cls-21"
       points="21.28 59.59 18.98 58.14 16.18 59.03 15.06 61.83 21.28 59.59"
       id="polygon7404" />
    <polygon
       class="cls-21"
       points="34.26 72.63 36.68 71.02 36.68 67.55 34.26 65.43 31.85 67.55 31.85 71.02 34.26 72.63"
       id="polygon7406" />
    <polygon
       class="cls-21"
       points="25.67 71.14 28.44 70.28 29.4 66.95 27.68 64.24 24.77 65.6 23.8 68.93 25.67 71.14"
       id="polygon7408" />
    <polygon
       class="cls-21"
       points="17.4 66.15 20.09 67.23 22.95 65.28 23.34 62.09 20.22 61.3 17.36 63.25 17.4 66.15"
       id="polygon7410" />
    <polygon
       class="cls-21"
       points="44.73 68.93 43.76 65.6 40.85 64.24 39.13 66.95 40.09 70.28 42.86 71.14 44.73 68.93"
       id="polygon7412" />
    <polygon
       class="cls-21"
       points="51.17 63.25 48.31 61.3 45.19 62.09 45.58 65.28 48.44 67.23 51.13 66.15 51.17 63.25"
       id="polygon7414" />
    <polygon
       class="cls-21"
       points="48.08 59.26 50.43 58.22 53.05 59 54.49 61.82 48.08 59.26"
       id="polygon7416" />
    <polygon
       points="33.2 58.94 28.72 62.35 23.59 59.65 24.77 55.39 33.2 58.94"
       id="polygon7418" />
    <path
       d="M15.34,26.2l2.85,4.69,2.2,13.09s-2.01,.31-5-3.33c-2.99-3.56-3.24-6.47-2.59-8.82s2.54-5.63,2.54-5.63Z"
       id="path7420" />
    <polygon
       class="cls-1"
       points="38.22 41.6 36.75 45.41 32.94 46.37 33.67 43.51 35.1 43.51 35.93 42.42 36.66 42.9 38.22 41.6"
       id="polygon7422" />
    <polygon
       class="cls-17"
       points="34.33 65.92 34.33 72.27 36.44 71.15 36.44 67.39 34.33 65.92"
       id="polygon7424" />
    <polygon
       class="cls-17"
       points="27.43 64.8 25.68 70.91 28.02 70.42 29.06 66.8 27.43 64.8"
       id="polygon7426" />
    <polygon
       class="cls-17"
       points="23.02 62.29 17.56 65.53 19.6 66.78 22.84 64.86 23.02 62.29"
       id="polygon7428" />
    <polygon
       class="cls-17"
       points="40.83 64.65 42.76 70.71 44.44 69 43.3 65.41 40.83 64.65"
       id="polygon7430" />
    <polygon
       class="cls-17"
       points="45.53 62.42 50.69 66.12 51.02 63.75 47.96 61.56 45.53 62.42"
       id="polygon7432" />
    <polygon
       class="cls-4"
       points="47.79 32.23 46.36 37.3 43.03 35.9 38.21 36.45 36.16 34.29 43.87 31.35 47.79 32.23"
       id="polygon7434" />
    <polygon
       class="cls-4"
       points="20.67 32.23 22.1 37.3 25.43 35.9 30.25 36.45 32.3 34.29 24.59 31.35 20.67 32.23"
       id="polygon7436" />
    <polygon
       class="cls-17"
       points="49.45 59.94 50.58 59.33 52.24 59.86 52.6 61.07 54.3 61.56 52.92 59.21 50.17 58.36 47.83 59.33 49.45 59.94"
       id="polygon7438" />
    <polygon
       class="cls-17"
       points="19.6 59.77 18.81 59.29 16.97 59.83 16.45 61.1 14.91 61.53 16.3 59.2 19.08 58.26 21.32 59.26 19.6 59.77"
       id="polygon7440" />
    <path
       class="cls-2"
       d="M23.62,41.23l4.95,.47-2.17,2.78s-2.3-.88-2.78-3.25Z"
       id="path7442" />
    <path
       class="cls-7"
       d="M17.87,30.7s-1.18-3-2.53-4.5c-2.53,3.55-3.63,9.08-2.13,11.52,.95,1.56,2.48,3.46,3.47,4.65,.74,.88,2.05,1.11,2.97,.43,0,0,.02-.01,.03-.02"
       id="path7444" />
    <path
       class="cls-7"
       d="M50.97,30.7s1.18-3,2.53-4.5c2.53,3.55,3.63,9.08,2.13,11.52-.95,1.56-2.48,3.46-3.47,4.65-.74,.88-2.05,1.11-2.97,.43,0,0-.02-.01-.03-.02"
       id="path7446" />
    <path
       d="M49.64,40.71c.46,2.55-.54,4.87-1.12,7.29-.76,2.44-1.4,4.82-3,6.93-3.11,2.66-6.94,4.62-11.12,4.68-4.19-.22-7.88-2.16-11.1-4.72-1.59-2.1-2.23-4.49-2.99-6.91-.62-2.39-1.45-4.74-1.17-7.27,2.11,4.26,2.21,9.5,5.12,13.35,1.07,.83,3.17,2.13,4.79,2.79,5.37,2.75,11.39,.57,15.41-2.84,2.06-2.8,2.88-6.54,3.81-9.88,.28-1.18,.64-2.33,1.36-3.43h0Z"
       id="path7448" />
    <path
       class="cls-9"
       d="M50.17,36.59s2.29-12.07,.46-17.17-7.06-8.94-15.68-8.94h-1.1c-8.62,0-13.85,3.84-15.68,8.94s.46,17.17,.46,17.17"
       id="path7450" />
    <path
       class="cls-9"
       d="M50.44,33.22s-1.39-11.53-3.59-15.25c-1.88-1.45-4.09-2.45-4.09-2.45l-4.39,1.05c-2.69,.64-5.48,.64-8.17,0l-4.39-1.05s-2.2,1-4.1,2.45c-2.2,3.72-3.59,15.06-3.59,15.06"
       id="path7452" />
    <polyline
       class="cls-9"
       points="60.2 63.77 45.37 58.7 44.24 55.31"
       id="polyline7454" />
    <polyline
       class="cls-9"
       points="24.78 55.31 23.65 58.7 8.82 63.81"
       id="polyline7456" />
    <path
       d="M27.86,26.24c4.36,.38,8.72,.51,13.06,0-3.99,1.19-9.09,1.06-13.06,0h0Z"
       id="path7458" />
    <path
       d="M21.96,41.89c.77,1.63,2.07,3.02,3.77,3.66,.54,1.28,.82,2.65,1.02,4.02,.09,1.26,.28,2.82-.02,3.93-.11-2.58-.49-5.18-1.36-7.61-1.49-.54-3.16-2.43-3.39-4h0Z"
       id="path7460" />
    <path
       d="M46.45,41.9c-.26,1.89-1.57,3.6-3.32,4.36,0,0,.23-.24,.23-.24-.82,2.42-1.25,4.95-1.72,7.48,0,.03-.05,.03-.05,0,.1-2.59,.43-5.21,1.34-7.66,1.74-.64,2.94-2.4,3.52-3.93h0Z"
       id="path7462" />
    <path
       d="M30.06,36.44c-2.51-.57-5.19-.52-7.34,1,0,0-.02-.49-.02-.49,2.14,1.19,4.99,2.1,7.13,.48,.13-.1,.31-.08,.41,.05,.08,.11,.08,.26,0,.36-.85,1.02-1.6,2.17-2.86,2.74-.03,0-.07,0-.1,0,0,0-3.97-.94-3.97-.94-.07,0,4.42,.48,3.96,.45,.99-.55,1.79-1.68,2.49-2.61,0,0,.42,.41,.42,.41-2.31,1.81-5.51,.9-7.78-.46-.19-.1-.19-.38,0-.49,2.21-1.45,5.33-1.93,7.67-.52h0Z"
       id="path7464" />
    <path
       d="M38.59,36.44c2.33-1.42,5.45-.93,7.67,.52,.13,.08,.17,.26,.09,.39-2.23,1.47-5.55,2.36-7.88,.55,0,0,.42-.41,.42-.41,.7,.92,1.51,2.05,2.49,2.61-.48,.02,4.07-.46,3.96-.45,0,0-3.97,.94-3.97,.94-.03,0-.06,0-.1,0-1.26-.58-2.01-1.72-2.86-2.74-.21-.26,.15-.62,.42-.41,2.13,1.62,4.98,.71,7.13-.48,0,0-.02,.49-.02,.49-2.15-1.51-4.83-1.57-7.34-1h0Z"
       id="path7466" />
    <path
       d="M20.62,32.23c1.33-.71,2.8-1.33,4.34-1.38,1.32,.27,2.62,.68,3.94,.96,1.25,.29,2.51,.57,3.74,.79l-.37,1.71c-2.22-.64-5.83-1.71-7.24-2.37-1.45,.16-2.93,.1-4.4,.29h0Z"
       id="path7468" />
    <path
       d="M47.79,32.23c-1.47-.19-2.95-.13-4.4-.29-1.42,.66-5.01,1.73-7.24,2.37,0,0-.37-1.71-.37-1.71,1.23-.22,2.5-.5,3.74-.79,1.32-.28,2.62-.69,3.94-.96,1.53,.05,3,.67,4.34,1.38h0Z"
       id="path7470" />
    <path
       d="M36.48,40.59c.7,.26,1.37,.57,2.05,.88,0,0-.2,.27-.2,.27-.5,.68-1.03,1.34-1.56,2-.21-.17-.97-.77-1.2-.95,0,0,.63-.03,.63-.03-.37,.42-.76,.82-1.13,1.22-.57,.01-1.15,.02-1.72,0-.38-.41-.77-.8-1.13-1.22,0,0,.63,.03,.63,.03-.23,.19-.98,.77-1.2,.95-.53-.66-1.06-1.32-1.56-2,0,0-.2-.27-.2-.27,.68-.31,1.35-.62,2.05-.88-.49,.43-1.01,.81-1.53,1.2l.06-.39c.53,.48,1.04,.98,1.55,1.48l-.58-.04c.22-.2,.89-.84,1.1-1.03,.47,.43,.93,.9,1.37,1.35,0,0-.35-.15-.35-.15,.43,0,.85,0,1.28,0l-.35,.15c.44-.45,.9-.92,1.37-1.35,.21,.19,.89,.84,1.1,1.03,0,0-.58,.04-.58,.04,.51-.5,1.02-.99,1.55-1.48,0,0,.06,.39,.06,.39-.52-.39-1.04-.77-1.53-1.2h0Z"
       id="path7472" />
    <path
       d="M40.21,49.26c-1.28-.12-2.51-.39-3.74-.68h.19c-.82,.19-1.64,.33-2.46,.48-.82-.14-1.64-.28-2.46-.46,0,0,.19-.01,.19-.01-1.23,.29-2.46,.56-3.74,.68,1.15-.62,2.35-1.09,3.56-1.54,.85,.08,1.69,.21,2.53,.33,0,0-.16,0-.16,0,.84-.12,1.68-.25,2.53-.33,1.21,.45,2.4,.92,3.56,1.54h0Z"
       id="path7474" />
    <path
       d="M30.49,49.77c2.45,.86,5.3,.44,7.67,.1-2.06,1.44-5.86,1.71-7.67-.1h0Z"
       id="path7476" />
    <polyline
       class="cls-8"
       points="21.66 59.34 19.03 58.13 16.18 59.04 14.54 61.72"
       id="polyline7478" />
    <polyline
       class="cls-8"
       points="47.56 59.34 50.19 58.13 53.04 59.04 54.68 61.72"
       id="polyline7480" />
    <polygon
       class="cls-9"
       points="34.26 72.63 36.68 71.02 36.68 67.55 34.26 65.43 31.85 67.55 31.85 71.02 34.26 72.63"
       id="polygon7482" />
    <polygon
       class="cls-9"
       points="25.67 71.14 28.44 70.28 29.4 66.95 27.68 64.24 24.77 65.6 23.8 68.93 25.67 71.14"
       id="polygon7484" />
    <polygon
       class="cls-9"
       points="17.4 66.15 20.09 67.23 22.95 65.28 23.34 62.09 20.22 61.3 17.36 63.25 17.4 66.15"
       id="polygon7486" />
    <polygon
       class="cls-9"
       points="44.73 68.93 43.76 65.6 40.85 64.24 39.13 66.95 40.09 70.28 42.86 71.14 44.73 68.93"
       id="polygon7488" />
    <polygon
       class="cls-9"
       points="51.17 63.25 48.31 61.3 45.19 62.09 45.58 65.28 48.44 67.23 51.13 66.15 51.17 63.25"
       id="polygon7490" />
    <path
       class="cls-9"
       d="M45.06,57.77c.04,.19,.06,.38,.06,.55,0,.8-.36,1.58-1.05,2.09-.47,.36-1.03,.52-1.57,.52-.41,0-.82-.09-1.19-.28-.15,.94-.82,1.77-1.8,2.07-.26,.08-.52,.13-.79,.13-.7,0-1.37-.29-1.86-.79-.43,.84-1.31,1.41-2.31,1.41s-1.9-.57-2.32-1.4c-.67,.67-1.68,.96-2.65,.66s-1.65-1.13-1.81-2.07c-.37,.19-.79,.29-1.19,.29-.54,0-1.09-.18-1.56-.52-.69-.52-1.06-1.3-1.06-2.09,0-.19,.02-.38,.06-.55"
       id="path7492" />
    <path
       class="cls-4"
       d="M15.5,62.82c-1.57,1.22-3.4,2.03-5.26,2.7-.1,.12-.38-.07-.68-.77,.81-.4,2.08-.72,2.94-1.04,0,0,2.96-.99,2.96-.99l.03,.09h0Z"
       id="path7494" />
    <path
       class="cls-4"
       d="M25.76,56.82c.5,1.25,.09,2.59-.73,3.58-.62,.1-1.2,.06-1.82-.21,0,0-.03-.09-.03-.09l1.4-.51c.11-.67,.78-1.93,1.09-2.8,0,0,.09,.04,.09,.04h0Z"
       id="path7496" />
    <path
       class="cls-15"
       d="M14.47,28.92c-.22,2.18-.71,4.47-.15,6.51,.62,2.16,1.62,4.07,2.91,5.97,0,0-.06,.08-.06,.08-2.65-2.19-4.65-5.78-3.85-9.27,.23-1.15,.58-2.27,1.06-3.33l.09,.04h0Z"
       id="path7498" />
    <path
       class="cls-11"
       d="M64.02,40c0,11.47-1.89,22.39-5.5,31.74-7.2,2.16-14.94,3.26-23.02,3.26-.49,0-.98-.01-1.47-.02h-.17c-8.18-.15-16.29-1.47-23.6-3.85-3.45-9.22-5.26-19.93-5.26-31.13s1.89-22.38,5.48-31.73c6.73-2.01,14.13-3.13,21.6-3.26,.48-.01,.97-.01,1.45-.01,.54,0,1.08,.01,1.63,.02,8.16,.15,16.27,1.47,23.59,3.84,3.46,9.24,5.27,19.95,5.27,31.14Z"
       id="path7500" />
  </g>
  <path
     style="fill:#808080;stroke:#4d4d4d;stroke-width:0.937908;stop-color:#000000;fill-opacity:1"
     d="m 9.541565,65.883425 a 5.4759801,5.4759801 0 0 1 5.47598,5.475981 5.4759801,5.4759801 0 0 1 -5.47598,5.47598 5.4759801,5.4759801 0 0 1 -5.4759806,-5.47598 5.4759801,5.4759801 0 0 1 5.4759806,-5.475981 z"
     id="path9869-6" />
  <path
     style="fill:#808080;stroke:#4d4d4d;stroke-width:0.937908;stop-color:#000000;fill-opacity:1"
     d="m 59.472108,65.883425 a 5.4759801,5.4759801 0 0 1 5.47598,5.475981 5.4759801,5.4759801 0 0 1 -5.47598,5.47598 5.4759801,5.4759801 0 0 1 -5.475981,-5.47598 5.4759801,5.4759801 0 0 1 5.475981,-5.475981 z"
     id="path8494-8-5" />
  <path
     id="path7641"
     style="fill:#808080;stroke:#4d4d4d;stroke-width:1.64416;stop-color:#000000"
     d="M 34.642578,1.1660156 C 13.787845,9.1047124 0.86132813,23.726855 0.86132812,39.564453 V 79.340489 H 68.152344 V 39.564453 c 0,-15.800978 -12.759199,-30.4148342 -33.509766,-38.3984374 z m -0.01367,3.8085938 C 53.384648,12.190722 64.917969,25.399665 64.917969,39.681641 v 26.507812 c -1.368656,-1.44106 -3.300993,-2.341797 -5.445313,-2.341797 -4.14856,0 -7.511718,3.363159 -7.511718,7.511719 0,2.347008 1.075662,4.442843 2.761718,5.820313 H 14.269531 c 1.756069,-1.422629 2.778281,-3.560307 2.783203,-5.820313 4.8e-5,-4.148627 -3.363091,-7.511766 -7.5117184,-7.511719 -2.0622939,0.0062 -4.0313164,0.860092 -5.4453125,2.361328 V 39.681641 c 0,-14.315076 11.6833059,-27.531508 30.5332029,-34.7070316 z"
     sodipodi:nodetypes="csccsccscsscccccscc" />
  <circle
     style="fill:#4d4d4d;fill-opacity:1;stroke:#4d4d4d;stop-color:#000000"
     id="path16431"
     cx="9.6010828"
     cy="71.229652"
     r="5.06003" />
  <circle
     style="fill:#4d4d4d;fill-opacity:1;stroke:#4d4d4d;stop-color:#000000"
     id="path16431-3"
     cx="59.42292"
     cy="71.229652"
     r="5.06003" />
</svg>
