<?xml version="1.0" encoding="UTF-8" standalone="no"?>
<!-- Created with Inkscape (http://www.inkscape.org/) -->

<svg
   xmlns:dc="http://purl.org/dc/elements/1.1/"
   xmlns:cc="http://creativecommons.org/ns#"
   xmlns:rdf="http://www.w3.org/1999/02/22-rdf-syntax-ns#"
   xmlns:svg="http://www.w3.org/2000/svg"
   xmlns="http://www.w3.org/2000/svg"
   xmlns:sodipodi="http://sodipodi.sourceforge.net/DTD/sodipodi-0.dtd"
   xmlns:inkscape="http://www.inkscape.org/namespaces/inkscape"
   width="100"
   height="100"
   id="svg2"
   version="1.1"
   inkscape:version="0.92.3 (2405546, 2018-03-11)"
   sodipodi:docname="h.svg">
  <defs
     id="defs4" />
  <sodipodi:namedview
     id="base"
     pagecolor="#ffffff"
     bordercolor="#666666"
     borderopacity="1.0"
     inkscape:pageopacity="0.0"
     inkscape:pageshadow="2"
     inkscape:zoom="4.2623907"
     inkscape:cx="51.756808"
     inkscape:cy="49.983936"
     inkscape:document-units="px"
     inkscape:current-layer="layer1"
     showgrid="false"
     inkscape:window-width="789"
     inkscape:window-height="800"
     inkscape:window-x="1150"
     inkscape:window-y="122"
     inkscape:window-maximized="0" />
  <metadata
     id="metadata7">
    <rdf:RDF>
      <cc:Work
         rdf:about="">
        <dc:format>image/svg+xml</dc:format>
        <dc:type
           rdf:resource="http://purl.org/dc/dcmitype/StillImage" />
        <dc:title></dc:title>
      </cc:Work>
    </rdf:RDF>
  </metadata>
  <g
     inkscape:label="Layer 1"
     inkscape:groupmode="layer"
     id="layer1"
     transform="translate(0,-952.3622)">
    <path
       class="fil0"
       d="m 46.312347,997.32472 c 2.937933,-0.26993 5.877636,-0.58965 8.78883,-1.06032 1.86484,-0.30161 3.848431,-1.53926 3.78473,-3.47231 -0.02143,-0.65215 -0.301992,-2.62258 -0.495653,-3.24504 -1.438197,-4.62386 -2.268281,-4.70919 -6.058516,-3.52914 -4.588665,1.42857 -9.2139,1.28858 -13.850537,0.29963 -2.130459,-0.45436 -3.872417,-4.04995 -2.776714,-6.04298 1.700868,-3.09306 5.97889,-8.27981 9.032036,-9.86015 3.230291,-1.67216 6.529592,-1.86347 9.968486,-1.55263 2.46902,0.22296 4.921918,0.62758 7.391725,0.83736 2.493596,0.21155 3.163444,1.26813 2.218933,3.57082 -1.035542,2.52505 -0.190318,5.01668 0.426248,7.44127 1.715024,6.74645 3.74069,11.70356 6.093907,18.0731 1.064639,2.88207 1.977889,5.81987 3.010678,8.71427 0.410521,1.1508 0.08317,1.9009 -0.928389,2.4974 -0.805312,0.4746 -1.506814,1.1633 -2.354396,1.5182 -1.020403,0.4272 -2.144222,0.8321 -3.227736,0.8441 -3.630784,0.041 -7.31662,-0.4805 -10.652097,1.551 -2.062825,1.2565 -3.22046,3.2362 -3.548798,5.4738 -0.361368,2.4634 0.796071,4.63 2.893302,5.9304 1.830237,1.1348 3.897191,0.8588 5.881569,0.012 2.55828,-1.0919 4.757159,-2.4584 5.506634,-5.4219 0.539299,-2.1318 1.950954,-3.7452 3.81776,-4.7945 2.211855,-1.243 3.699794,1.1681 2.73287,2.6891 -2.285977,3.5953 -4.909335,6.8361 -8.660445,9.183 -3.32604,2.0809 -6.911014,3.4111 -10.566375,4.4838 -2.54963,0.7483 -5.006853,0.2739 -7.171325,-1.064 -2.823703,-1.7443 -3.252115,-4.9862 -2.204974,-7.7208 0.921901,-2.4075 7.154614,-9.3103 9.035378,-10.8515 2.211855,-1.813 5.220961,-2.7223 7.970936,-3.7879 2.2266,-0.8628 2.499691,-1.2674 1.463167,-3.4548 -0.891624,-1.8822 -1.696149,-3.807 -2.496153,-5.73061 -0.711332,-1.71051 -2.354789,-2.59032 -3.87104,-1.33165 -4.704076,3.90486 -10.471217,4.32046 -16.035064,5.45436 -1.518611,0.3095 -2.377597,1.0039 -2.510898,2.585 -0.09241,1.0975 -0.27368,2.1894 -0.456527,3.2767 -0.386534,2.2992 -2.874035,4.4593 -5.170235,4.5572 -1.337337,0.057 -2.141863,-0.4821 -2.195734,-1.8729 -0.109118,-2.8158 -1.383343,-5.0369 -3.339212,-6.9891 -1.530801,-1.5282 -1.507797,-2.6853 -0.03657,-4.2984 1.675505,-1.83753 3.827198,-2.77539 6.278326,-2.86601 3.961088,-0.14628 8.501191,0.30494 12.311873,-0.0458 z m 9.462217,-17.16832 c -0.0025,-1.29566 -0.240847,-2.64322 -0.676926,-3.86534 -0.253036,-0.70858 -1.024334,-1.66843 -1.643457,-1.73272 -2.391753,-0.24851 -4.831478,-0.37198 -7.223623,-0.17655 -2.127117,0.1738 -2.652457,2.08563 -1.468869,3.91862 1.070538,1.6582 2.408465,2.65639 3.930614,3.12136 0.536743,0.16398 2.727758,0.35607 4.280185,0.34604 0.974396,-0.006 2.804632,-0.31182 2.802076,-1.61141 z"
       id="path4207"
       inkscape:connector-curvature="0"
       style="clip-rule:evenodd;fill:#000000;fill-rule:nonzero;stroke-width:0.01966093;image-rendering:optimizeQuality;shape-rendering:geometricPrecision;text-rendering:geometricPrecision" />
  </g>
</svg>
