<?xml version="1.0" encoding="UTF-8" standalone="no"?>
<!-- Created with Inkscape (http://www.inkscape.org/) -->

<svg
   xmlns:dc="http://purl.org/dc/elements/1.1/"
   xmlns:cc="http://creativecommons.org/ns#"
   xmlns:rdf="http://www.w3.org/1999/02/22-rdf-syntax-ns#"
   xmlns:svg="http://www.w3.org/2000/svg"
   xmlns="http://www.w3.org/2000/svg"
   xmlns:sodipodi="http://sodipodi.sourceforge.net/DTD/sodipodi-0.dtd"
   xmlns:inkscape="http://www.inkscape.org/namespaces/inkscape"
   width="100"
   height="100"
   id="svg2"
   version="1.1"
   inkscape:version="0.92.3 (2405546, 2018-03-11)"
   sodipodi:docname="j.svg">
  <defs
     id="defs4" />
  <sodipodi:namedview
     id="base"
     pagecolor="#ffffff"
     bordercolor="#666666"
     borderopacity="1.0"
     inkscape:pageopacity="0.0"
     inkscape:pageshadow="2"
     inkscape:zoom="4.2623907"
     inkscape:cx="51.756808"
     inkscape:cy="49.983936"
     inkscape:document-units="px"
     inkscape:current-layer="layer1"
     showgrid="false"
     inkscape:window-width="789"
     inkscape:window-height="800"
     inkscape:window-x="1150"
     inkscape:window-y="122"
     inkscape:window-maximized="0" />
  <metadata
     id="metadata7">
    <rdf:RDF>
      <cc:Work
         rdf:about="">
        <dc:format>image/svg+xml</dc:format>
        <dc:type
           rdf:resource="http://purl.org/dc/dcmitype/StillImage" />
        <dc:title></dc:title>
      </cc:Work>
    </rdf:RDF>
  </metadata>
  <g
     inkscape:label="Layer 1"
     inkscape:groupmode="layer"
     id="layer1"
     transform="translate(0,-952.3622)">
    <path
       class="fil0"
       d="m 74.251011,989.04934 c -2.667827,4.91587 -6.383932,8.91499 -11.220428,11.69486 -2.00208,1.1506 -4.359493,1.7333 -6.608937,2.3906 -2.383601,0.6966 -2.795942,1.1043 -2.768345,3.6599 0.02055,1.9173 0.07896,3.8352 0.04915,5.7514 -0.02055,1.311 0.524138,2.0974 1.75814,2.5553 2.489959,0.924 2.696432,2.503 0.618209,4.1907 -1.62922,1.323 -3.404684,2.2037 -5.449468,2.8658 -2.068956,0.67 -3.8698,2.1807 -5.76814,3.3559 -0.426845,0.2643 -0.720741,0.7963 -1.166319,0.9627 -1.158865,0.4323 -2.036928,-0.4744 -1.492444,-1.4342 0.440944,-0.7768 0.959241,-1.6234 1.67273,-2.1092 1.775463,-1.2093 2.123747,-3.0885 2.282278,-4.889 0.652454,-7.4162 -0.169408,-10.4428 -0.960248,-17.389 -0.165984,-1.46482 -1.19593,-2.17811 -2.615455,-1.74019 -0.802725,0.24777 -1.643522,0.49735 -2.339687,0.94474 -3.978779,2.55705 -12.628471,3.63105 -15.493707,-0.70946 -3.923585,-5.94299 3.614782,-16.26561 8.80218,-19.05954 2.123546,-1.14335 4.54824,-1.60364 6.939294,-2.22185 4.261998,-1.10226 6.540247,1.20097 8.514932,4.35567 1.33351,2.13059 2.640634,2.16746 4.551865,0.55798 3.448597,-2.90371 7.299866,-4.68663 11.933515,-5.36688 6.007447,-0.88229 12.485648,4.76962 8.760885,11.63377 z m -10.507745,-4.32122 c -1.975892,-1.98112 -4.272876,-1.83528 -6.14523,0.2802 -3.082183,3.48264 -4.661246,7.52689 -4.81333,12.16175 -0.0566,1.72671 1.122606,2.91763 2.892027,2.69522 4.677159,-0.5882 8.60719,-1.34943 10.629211,-6.29631 1.266635,-3.0985 -0.314442,-6.58698 -2.562678,-8.84086 z M 35.733692,996.0257 c 2.067546,0.85289 4.052503,0.97878 6.210898,0.35111 1.710198,-0.49715 2.457931,-1.11455 2.101992,-2.76532 -0.880882,-4.08333 -1.834081,-8.16625 -6.328336,-9.98946 -1.205599,-0.48908 -2.248839,-0.52413 -3.19116,0.57793 -0.752366,0.87967 -1.342979,1.8085 -1.741219,2.76633 -1.408043,3.38756 -0.847646,7.49364 2.947825,9.05941 z"
       id="path4221"
       inkscape:connector-curvature="0"
       style="clip-rule:evenodd;fill:#000000;fill-rule:nonzero;stroke-width:0.02014367;image-rendering:optimizeQuality;shape-rendering:geometricPrecision;text-rendering:geometricPrecision" />
  </g>
</svg>
