<?xml version="1.0" encoding="UTF-8" standalone="no"?>
<!-- Created with Inkscape (http://www.inkscape.org/) -->

<svg
   xmlns:dc="http://purl.org/dc/elements/1.1/"
   xmlns:cc="http://creativecommons.org/ns#"
   xmlns:rdf="http://www.w3.org/1999/02/22-rdf-syntax-ns#"
   xmlns:svg="http://www.w3.org/2000/svg"
   xmlns="http://www.w3.org/2000/svg"
   xmlns:sodipodi="http://sodipodi.sourceforge.net/DTD/sodipodi-0.dtd"
   xmlns:inkscape="http://www.inkscape.org/namespaces/inkscape"
   width="100"
   height="100"
   id="svg2"
   version="1.1"
   inkscape:version="0.92.3 (2405546, 2018-03-11)"
   sodipodi:docname="m.svg">
  <defs
     id="defs4" />
  <sodipodi:namedview
     id="base"
     pagecolor="#ffffff"
     bordercolor="#666666"
     borderopacity="1.0"
     inkscape:pageopacity="0.0"
     inkscape:pageshadow="2"
     inkscape:zoom="4.2623907"
     inkscape:cx="51.756808"
     inkscape:cy="49.983936"
     inkscape:document-units="px"
     inkscape:current-layer="layer1"
     showgrid="false"
     inkscape:window-width="789"
     inkscape:window-height="800"
     inkscape:window-x="1150"
     inkscape:window-y="122"
     inkscape:window-maximized="0" />
  <metadata
     id="metadata7">
    <rdf:RDF>
      <cc:Work
         rdf:about="">
        <dc:format>image/svg+xml</dc:format>
        <dc:type
           rdf:resource="http://purl.org/dc/dcmitype/StillImage" />
        <dc:title></dc:title>
      </cc:Work>
    </rdf:RDF>
  </metadata>
  <g
     inkscape:label="Layer 1"
     inkscape:groupmode="layer"
     id="layer1"
     transform="translate(0,-952.3622)">
    <path
       class="fil0"
       d="m 54.192813,986.07706 c -0.440462,-1.18848 -0.729605,-2.24677 -1.212939,-3.20772 -0.712615,-1.41665 -1.951753,-1.78551 -3.47273,-1.10719 -0.290096,0.12941 -2.145151,1.11783 -2.814895,1.47192 -0.811378,0.42839 -4.386365,0.0808 -1.393634,-1.51733 2.337595,-1.24851 7.800028,-3.33824 9.522183,-4.65661 1.328056,-1.017 2.818705,-1.01478 4.335554,-0.85584 1.012714,0.10607 1.575439,0.73897 2.000817,1.7085 1.068765,2.43636 0.293589,4.81126 -0.06542,7.19173 -0.2504,1.66086 0.400766,2.7155 2.082272,2.89477 1.726759,0.18402 3.462092,0.29104 5.18742,0.48762 2.287742,0.26056 4.04991,1.52034 5.570089,3.14008 0.619413,0.6599 0.588291,1.35298 -0.257385,1.90935 -1.041769,0.68531 -2.078462,1.38237 -3.075295,2.13023 -1.179915,0.88523 -2.434139,0.84868 -3.665972,0.28088 -1.365529,-0.62957 -2.696761,-1.34901 -3.987344,-2.12196 -1.953659,-1.17007 -3.816336,-0.1572 -4.584208,1.9319 -0.580032,1.57796 -1.318688,3.10755 -2.12689,4.60131 -3.097211,5.7257 -8.51836,13.392 -13.147979,17.6966 -3.261868,3.0322 -9.413257,7.5591 -13.852179,8.6718 -0.626079,0.1568 -1.212304,-0.045 -1.672932,-0.7519 -0.231822,-0.3557 -0.628937,-0.6242 -0.993501,-0.8687 -1.137359,-0.7624 -1.324246,-1.3038 -0.360754,-2.2079 1.185787,-1.1126 2.493678,-2.1372 3.889852,-2.961 0.491431,-0.2898 1.424596,0.039 2.110854,0.2396 1.055426,0.3092 2.052104,0.8276 3.113882,1.1024 0.458405,0.1187 1.102744,-0.013 1.512244,-0.2697 2.0656,-1.2965 3.128807,-2.628 4.594845,-4.5204 0.58559,-0.7561 0.544306,-1.5284 -0.273582,-2.0783 -2.158647,-1.4508 -4.693767,-2.7346 -6.946413,-4.2038 -0.877591,-0.5724 -1.07591,-1.4073 -0.254052,-2.118 1.344887,-1.1626 2.67072,-2.4664 4.240443,-3.2184 1.679124,-0.8045 3.359519,0.2022 4.890023,1.0362 0.73675,0.4015 1.483345,0.8176 2.13086,1.3435 1.275975,1.0367 1.619422,1.5555 2.793141,-0.2836 0.658471,-1.0319 1.627203,-2.8685 2.050517,-4.0319 0.829638,-2.2797 1.642763,-4.56805 2.359983,-6.8847 0.403466,-1.30312 -0.204512,-2.00859 -1.598145,-1.83838 -1.173561,0.14338 -2.30822,0.58146 -3.4767,0.80185 -1.205476,0.22722 -1.496683,-0.85202 -0.88553,-1.53939 1.026052,-1.15387 1.982875,-2.35458 3.560696,-2.94033 1.142757,-0.42427 2.253282,-1.15626 3.12595,-2.00924 0.574157,-0.56113 0.699754,-1.58147 1.046852,-2.44795 z"
       id="path4227"
       inkscape:connector-curvature="0"
       style="clip-rule:evenodd;fill:#000000;fill-rule:nonzero;stroke-width:0.01587824;image-rendering:optimizeQuality;shape-rendering:geometricPrecision;text-rendering:geometricPrecision" />
  </g>
</svg>
