<?xml version="1.0" encoding="UTF-8" standalone="no"?>
<!-- Created with Inkscape (http://www.inkscape.org/) -->

<svg
   xmlns:dc="http://purl.org/dc/elements/1.1/"
   xmlns:cc="http://creativecommons.org/ns#"
   xmlns:rdf="http://www.w3.org/1999/02/22-rdf-syntax-ns#"
   xmlns:svg="http://www.w3.org/2000/svg"
   xmlns="http://www.w3.org/2000/svg"
   xmlns:sodipodi="http://sodipodi.sourceforge.net/DTD/sodipodi-0.dtd"
   xmlns:inkscape="http://www.inkscape.org/namespaces/inkscape"
   width="100"
   height="130"
   viewBox="0 0 26.458333 34.395834"
   version="1.1"
   id="svg5382"
   inkscape:version="0.92.3 (2405546, 2018-03-11)"
   sodipodi:docname="bheart1.svg">
  <defs
     id="defs5376" />
  <sodipodi:namedview
     id="base"
     pagecolor="#ffffff"
     bordercolor="#666666"
     borderopacity="1.0"
     inkscape:pageopacity="0.0"
     inkscape:pageshadow="2"
     inkscape:zoom="4.1264843"
     inkscape:cx="42.345724"
     inkscape:cy="61.232002"
     inkscape:document-units="px"
     inkscape:current-layer="layer1"
     showgrid="false"
     units="px"
     inkscape:window-width="1920"
     inkscape:window-height="1017"
     inkscape:window-x="-8"
     inkscape:window-y="-8"
     inkscape:window-maximized="1"
     inkscape:snap-global="false" />
  <metadata
     id="metadata5379">
    <rdf:RDF>
      <cc:Work
         rdf:about="">
        <dc:format>image/svg+xml</dc:format>
        <dc:type
           rdf:resource="http://purl.org/dc/dcmitype/StillImage" />
        <dc:title />
      </cc:Work>
    </rdf:RDF>
  </metadata>
  <g
     inkscape:label="Layer 1"
     inkscape:groupmode="layer"
     id="layer1"
     transform="translate(0,-262.60415)">
    <path
       inkscape:connector-curvature="0"
       id="path5348"
       d="m 8.4637381,265.48755 c -2.305014,-0.0351 -4.430565,1.76509 -4.9481986,2.71209 -4.05830215,7.42437 8.8355105,11.9955 9.6190735,20.19036 -1.036433,-2.02071 -2.782306,-0.72877 -3.064309,-0.21282 -1.3540841,2.47717 2.385852,6.25805 3.171079,6.25805 0.78521,0 4.524898,-3.78088 3.170845,-6.25805 -0.282019,-0.51595 -2.027891,-1.80789 -3.064309,0.21282 0.783532,-8.19486 13.677361,-12.76599 9.619074,-20.19036 -0.8954,-1.63807 -6.601776,-5.82874 -9.72561,1.34177 -1.317877,-3.02507 -3.095604,-4.02821 -4.7776449,-4.05386 z"
       style="fill:#00ff00;stroke:none;stroke-width:0.09608812px;stroke-linecap:butt;stroke-linejoin:miter;stroke-opacity:1" />
    <path
       sodipodi:nodetypes="ssscscscscccccccs"
       inkscape:connector-curvature="0"
       id="path5350"
       d="m 7.2207304,262.65994 c -2.9013563,-0.0443 -5.5769703,2.22166 -6.22854783,3.41368 -3.89220917,7.12054 4.60377803,11.05647 9.30583843,17.05141 0.771825,0.98404 -2.3333391,2.99424 -3.4193482,3.93267 0,0 4.8314022,-1.43659 5.5201032,-2.8432 0.443651,-0.90614 0.700485,-2.15921 0.842373,-3.48408 0.141935,1.32487 0.398956,2.57794 0.842622,3.48408 0.688686,1.40661 5.520088,2.8432 5.520088,2.8432 -1.086009,-0.93843 -4.191406,-2.94863 -3.419581,-3.93267 4.70206,-5.99494 13.198297,-9.93087 9.306072,-17.05141 -0.651578,-1.19202 -3.327192,-3.45794 -6.228533,-3.41368 -2.117203,0.0323 -4.354763,1.29478 -6.013579,5.10245 v 2.44883 c 0,0 -0.0078,-1.52158 -0.0078,0.0818 -0.0016,-0.014 -0.0078,-0.0818 -0.0078,-0.0818 v -2.44883 c -1.658831,-3.80765 -3.8963751,-5.07016 -6.0135784,-5.10245 z"
       style="fill:#00ffff;fill-opacity:0.78431373;stroke:none;stroke-width:0.12094706px;stroke-linecap:butt;stroke-linejoin:miter;stroke-opacity:1" />
    <circle
       r="1.0536479"
       cy="270.21121"
       cx="13.241257"
       id="circle5352"
       style="opacity:1;vector-effect:none;fill:#ff0000;fill-opacity:0.39215686;fill-rule:nonzero;stroke:none;stroke-width:0.74693859;stroke-linecap:butt;stroke-linejoin:miter;stroke-miterlimit:4;stroke-dasharray:none;stroke-dashoffset:0;stroke-opacity:1" />
    <path
       sodipodi:nodetypes="cscsc"
       inkscape:connector-curvature="0"
       id="path5356"
       d="m 10.756571,269.45186 c 0,0 -3.2161561,-1.39547 -3.964137,-0.67327 -2.9579775,2.856 4.472553,12.01092 4.472553,12.01092 0,0 -5.4476096,-7.98018 -3.2523597,-10.89241 0.3474407,-0.46092 2.7439437,-0.44524 2.7439437,-0.44524 z"
       style="fill:#ff0000;fill-opacity:0.39215686;stroke:none;stroke-width:0.12094706px;stroke-linecap:butt;stroke-linejoin:miter;stroke-opacity:1" />
    <path
       style="fill:#ff0000;fill-opacity:0.39215686;stroke:none;stroke-width:0.12094706px;stroke-linecap:butt;stroke-linejoin:miter;stroke-opacity:1"
       d="m 9.9110227,269.83933 c -0.6439416,0.008 -1.3054496,0.32541 -1.8732706,1.21027 -1.345298,2.09644 1.6791876,5.85849 3.3455319,7.67239 0.07548,0.16345 0.156708,0.33033 0.224793,0.48938 -0.02605,-0.11464 -0.05781,-0.22957 -0.09043,-0.34468 0.507262,0.54394 0.870281,0.89249 0.872298,0.89193 0,0 -0.472847,-0.62586 -1.066601,-1.49448 -0.702496,-1.95938 -1.9991348,-3.96129 -1.274858,-5.81876 0.03927,-0.10074 0.135909,-0.18836 0.135909,-0.30076 0,0 0.18652,-0.53946 0,-0.64854 -0.2014127,-0.1178 -0.6097817,0.34365 -0.6097817,0.34365 -0.8333579,1.43653 0.1840237,3.55335 1.1792557,5.5702 -1.2501395,-1.94741 -2.6411829,-4.55147 -1.8913569,-5.5609 1.2598409,-1.69603 3.8555779,-0.34572 3.8555779,-0.34572 -0.05926,-0.20614 -1.390392,-1.68201 -2.8070633,-1.66398 z"
       id="path5358"
       inkscape:connector-curvature="0" />
    <path
       id="path5360"
       style="fill:#ff0000;fill-opacity:0.39215686;stroke:none;stroke-width:0.12094706px;stroke-linecap:butt;stroke-linejoin:miter;stroke-opacity:1"
       d="m 14.794669,267.07922 c 0.203369,0 3.414099,-5.72672 9.027228,-1.67204 5.61313,4.05468 -7.654507,16.36522 -7.654507,16.36522 0,0 8.715517,-11.05866 6.230945,-14.07736 -2.484572,-3.01869 -7.603666,-0.61582 -7.603666,-0.61582 z m -3.003151,0 c -0.170013,-0.53369 -5.647176,-5.84752 -9.2305935,-0.80773 -3.5834174,5.03978 8.5668105,15.5051 8.5835545,15.50091 0,0 -9.4411991,-11.05866 -6.9566271,-14.07736 2.4845721,-3.01869 7.6036661,-0.61582 7.6036661,-0.61582 z"
       inkscape:connector-curvature="0" />
    <path
       sodipodi:nodetypes="scssss"
       inkscape:connector-curvature="0"
       id="path5364"
       d="m 16.980079,272.04172 c 1.088354,1.87609 -0.981717,4.91467 -2.033662,7.37201 0.512435,-2.25482 2.40117,-4.60795 1.559666,-6.76606 -0.03927,-0.10074 -0.136103,-0.1885 -0.136103,-0.3009 0,0 -0.18652,-0.53915 0,-0.64823 0.201413,-0.1178 0.610099,0.34318 0.610099,0.34318 z"
       style="fill:#ff0000;fill-opacity:0.39215686;stroke:none;stroke-width:0.12094706px;stroke-linecap:butt;stroke-linejoin:miter;stroke-opacity:1" />
    <rect
       ry="0.10635537"
       y="267.15836"
       x="13.134891"
       height="2.3650739"
       width="0.21271074"
       id="rect5368"
       style="opacity:1;vector-effect:none;fill:#ff0000;fill-opacity:0.39215686;fill-rule:nonzero;stroke:none;stroke-width:0.74693859;stroke-linecap:butt;stroke-linejoin:miter;stroke-miterlimit:4;stroke-dasharray:none;stroke-dashoffset:0;stroke-opacity:1" />
    <path
       sodipodi:nodetypes="czczc"
       inkscape:connector-curvature="0"
       id="path5354-1"
       d="m 15.895012,268.87193 c 0.113236,-0.39387 3.761452,-4.31563 6.148282,-0.59612 2.38683,3.71951 -5.706152,11.4432 -5.717304,11.44012 0,0 6.288561,-8.16161 4.633646,-10.38949 -1.654915,-2.22789 -5.064624,-0.45451 -5.064624,-0.45451 z"
       style="fill:#ff0000;fill-opacity:0.39215686;stroke:none;stroke-width:0.08479965px;stroke-linecap:butt;stroke-linejoin:miter;stroke-opacity:1" />
    <path
       id="path6150"
       style="fill:#ff0000;fill-opacity:0.39215686;stroke:none;stroke-width:0.08200334px;stroke-linecap:butt;stroke-linejoin:miter;stroke-opacity:1"
       d="m 10.468629,268.9828 c -0.105891,-0.39387 -3.5174705,-4.31563 -5.7494822,-0.59612 -2.2320117,3.71951 5.3360312,11.4432 5.3464592,11.44012 0,0 -5.8806624,-8.16161 -4.3330911,-10.38949 1.5475713,-2.22789 4.7361141,-0.45451 4.7361141,-0.45451 z m 5.001075,0.83196 c 0,0 3.57807,-2.00557 4.277534,-1.28337 2.766113,2.856 -4.895603,12.06176 -4.895603,12.06176 0,0 5.331976,-7.67513 3.279117,-10.58737 -0.324904,-0.46091 -2.661048,-0.19102 -2.661048,-0.19102 z"
       inkscape:connector-curvature="0" />
    <path
       style="fill:#ff0000;fill-opacity:0.39215686;stroke:none;stroke-width:0.06455559px;stroke-linecap:butt;stroke-linejoin:miter;stroke-opacity:1"
       d="m 18.178788,270.76486 c 1.088354,1.87609 -0.981717,4.91467 -2.033662,7.37201 0.512435,-2.25482 2.40117,-4.60795 1.559666,-6.76606 -0.03927,-0.10074 -0.136103,-0.1885 -0.136103,-0.3009 0,0 -0.18652,-0.53915 0,-0.64823 0.201413,-0.1178 0.610099,0.34318 0.610099,0.34318 z"
       id="path5354-1-1"
       inkscape:connector-curvature="0" />
    <path
       style="fill:#ff0000;fill-opacity:0.4720812;stroke:none;stroke-width:0.26458332px;stroke-linecap:butt;stroke-linejoin:miter;stroke-opacity:1"
       d="m 11.311959,287.86116 c 0,0 -1.151597,0.64823 -1.269478,1.22414 -0.2335894,1.1412 0.698713,2.26018 1.360155,3.21903 0.403628,0.58512 1.54151,1.47351 1.54151,1.47351 0,0 -0.713098,-0.99189 -1.020117,-1.51885 -0.552888,-0.94897 -1.513122,-1.84943 -1.473502,-2.947 0.02029,-0.56207 0.861432,-1.45083 0.861432,-1.45083 z"
       id="path14647"
       inkscape:connector-curvature="0"
       sodipodi:nodetypes="csscssc" />
    <path
       id="path14651"
       style="fill:#ff0000;fill-opacity:0.4720812;stroke:none;stroke-width:0.26458332px;stroke-linecap:butt;stroke-linejoin:miter;stroke-opacity:1"
       d="m 14.64434,287.74781 c 0.552547,-0.0821 1.419515,0.38975 1.541509,0.65741 0.178781,0.39225 0.304058,1.2756 0.136016,1.88155 -0.200006,0.72121 -1.292148,1.83621 -1.292148,1.83621 0,0 0.684372,-1.30284 0.770755,-2.01756 0.05117,-0.42337 0.05036,-0.89778 -0.158685,-1.26948 -0.137103,-0.24378 -0.392491,-0.4317 -0.657408,-0.5214 -0.408027,-0.13816 -1.292148,0.0227 -1.292148,0.0227 0.214197,-0.39246 0.639129,-0.5429 0.952109,-0.58943 z m -2.697642,1.04279 c 0,0 -0.677876,0.31534 -0.748085,0.63474 -0.22355,1.017 1.314817,2.83365 1.314817,2.83365 0,0 -0.836085,-1.78925 -0.816093,-2.74298 0.0054,-0.25563 0.249361,-0.72541 0.249361,-0.72541 z"
       inkscape:connector-curvature="0" />
  </g>
</svg>
