<?xml version="1.0" encoding="UTF-8" standalone="no"?>
<!-- Created with Inkscape (http://www.inkscape.org/) -->

<svg
   xmlns:dc="http://purl.org/dc/elements/1.1/"
   xmlns:cc="http://creativecommons.org/ns#"
   xmlns:rdf="http://www.w3.org/1999/02/22-rdf-syntax-ns#"
   xmlns:svg="http://www.w3.org/2000/svg"
   xmlns="http://www.w3.org/2000/svg"
   xmlns:sodipodi="http://sodipodi.sourceforge.net/DTD/sodipodi-0.dtd"
   xmlns:inkscape="http://www.inkscape.org/namespaces/inkscape"
   width="100"
   height="130"
   viewBox="0 0 26.458333 34.395834"
   version="1.1"
   id="svg5382"
   inkscape:version="0.92.3 (2405546, 2018-03-11)"
   sodipodi:docname="bheart2.svg">
  <defs
     id="defs5376" />
  <sodipodi:namedview
     id="base"
     pagecolor="#ffffff"
     bordercolor="#666666"
     borderopacity="1.0"
     inkscape:pageopacity="0.0"
     inkscape:pageshadow="2"
     inkscape:zoom="3.5789293"
     inkscape:cx="41.035628"
     inkscape:cy="74.684356"
     inkscape:document-units="px"
     inkscape:current-layer="layer1"
     showgrid="false"
     units="px"
     inkscape:window-width="1920"
     inkscape:window-height="1017"
     inkscape:window-x="-8"
     inkscape:window-y="-8"
     inkscape:window-maximized="1"
     inkscape:snap-global="false" />
  <metadata
     id="metadata5379">
    <rdf:RDF>
      <cc:Work
         rdf:about="">
        <dc:format>image/svg+xml</dc:format>
        <dc:type
           rdf:resource="http://purl.org/dc/dcmitype/StillImage" />
        <dc:title />
      </cc:Work>
    </rdf:RDF>
  </metadata>
  <g
     inkscape:label="Layer 1"
     inkscape:groupmode="layer"
     id="layer1"
     transform="translate(0,-262.60415)">
    <path
       inkscape:connector-curvature="0"
       id="path5348"
       d="m 8.4746308,265.49569 c -2.2699574,-0.0346 -4.3631812,1.73825 -4.8729421,2.67084 -3.99658002,7.31146 8.7011323,11.81307 9.4727783,19.88329 -1.02067,-1.98997 -2.73999,-0.71768 -3.017704,-0.20958 -1.3334903,2.43949 2.349566,6.16287 3.12285,6.16287 0.773268,0 4.45608,-3.72338 3.12262,-6.16287 -0.277729,-0.5081 -1.997049,-1.78039 -3.017704,0.20958 0.771615,-8.07022 13.469344,-12.57183 9.472779,-19.88329 -0.881782,-1.61315 -6.501371,-5.74009 -9.577695,1.32137 -1.297833,-2.97906 -3.048523,-3.96695 -4.7049822,-3.99221 z"
       style="fill:#00ff00;stroke:none;stroke-width:0.09462672px;stroke-linecap:butt;stroke-linejoin:miter;stroke-opacity:1" />
    <path
       sodipodi:nodetypes="csscscscscccccccsc"
       inkscape:connector-curvature="0"
       id="path5350"
       d="m 7.2505278,262.71109 c -2.8572299,-0.0436 -5.4921509,2.18787 -6.1338187,3.36176 -3.8330131,7.01224 3.062234,10.73342 7.6927814,16.63718 0.7600865,0.96907 -1.2910182,2.6389 -2.3605104,3.56306 0,0 5.6098579,-1.29856 6.2880849,-2.68378 0.436903,-0.89236 0.302588,-1.77785 0.442318,-3.08257 0.139776,1.30472 -0.0718,2.07404 0.365114,2.96639 0.678212,1.38522 7.449801,2.49017 7.449801,2.49017 -1.069492,-0.92416 -3.353172,-2.4391 -2.593086,-3.40817 4.630547,-5.90376 10.674104,-9.47004 6.841075,-16.48228 -0.641668,-1.17389 -3.276589,-3.40535 -6.133804,-3.36176 -2.085002,0.0318 -4.288532,1.27509 -5.922119,5.02484 v 2.41159 c 0,0 -0.0077,-1.49844 -0.0077,0.0806 -0.0016,-0.0138 -0.0077,-0.0806 -0.0077,-0.0806 v -2.41159 c -1.633602,-3.74974 -3.8371155,-4.99304 -5.9221185,-5.02484 z"
       style="fill:#00ffff;fill-opacity:0.78431373;stroke:none;stroke-width:0.1191076px;stroke-linecap:butt;stroke-linejoin:miter;stroke-opacity:1" />
    <circle
       cy="270.14749"
       cx="13.179488"
       id="circle5352"
       style="opacity:1;vector-effect:none;fill:#ff0000;fill-opacity:0.39215686;fill-rule:nonzero;stroke:none;stroke-width:0.73557848;stroke-linecap:butt;stroke-linejoin:miter;stroke-miterlimit:4;stroke-dasharray:none;stroke-dashoffset:0;stroke-opacity:1"
       r="1.037623" />
    <path
       id="path5360"
       style="fill:#ff0000;fill-opacity:0.39215686;stroke:none;stroke-width:0.12331951px;stroke-linecap:butt;stroke-linejoin:miter;stroke-opacity:1"
       d="m 14.829643,267.32271 c -0.172137,-2.29655 8.327057,-6.91684 10.089654,0.47646 1.829056,7.67207 -8.737811,15.03472 -8.737811,15.03472 0,0 7.722644,-11.41356 5.275859,-14.60031 -2.446784,-3.18675 -6.627702,-0.91087 -6.627702,-0.91087 z m -2.957477,0 c -0.167427,-0.5634 -6.6662939,-6.33092 -10.1952117,-1.01056 -3.5289178,5.32036 9.5415247,16.52616 9.5580137,16.52174 0,0 -9.0973312,-11.23232 -6.6505467,-14.41907 2.4467846,-3.18674 7.2877447,-1.09211 7.2877447,-1.09211 z"
       inkscape:connector-curvature="0"
       sodipodi:nodetypes="csccccsccc" />
    <path
       id="path5362"
       style="fill:#ff0000;fill-opacity:0.39215686;stroke:none;stroke-width:0.1191076px;stroke-linecap:butt;stroke-linejoin:miter;stroke-opacity:1"
       d="m 15.368279,269.6854 c 0,0 3.262916,-1.2805 3.999522,-0.56928 2.91299,2.81256 -4.65041,11.18374 -4.65041,11.18374 0,0 5.615098,-7.5584 3.453235,-10.42635 -0.342155,-0.4539 -2.802347,-0.18811 -2.802347,-0.18811 z m -5.210551,-0.55076 c 0,0 -3.1672428,-1.37424 -3.9038478,-0.66303 -2.91299,2.81257 4.8149618,11.60725 4.8149618,11.60725 0,0 -5.7751889,-7.63781 -3.6133262,-10.50575 0.1371641,-0.93222 2.6827672,-0.48384 2.7022122,-0.43847 z"
       inkscape:connector-curvature="0"
       sodipodi:nodetypes="cccccccccc" />
    <path
       style="fill:#ff0000;fill-opacity:0.39215686;stroke:none;stroke-width:0.1191076px;stroke-linecap:butt;stroke-linejoin:miter;stroke-opacity:1"
       d="m 15.641863,270.34452 c 5.836115,-1.26278 0.606731,4.89454 0.374933,7.52173 -0.217153,-2.26677 0.822334,-5.05051 -0.631044,-6.80871 -0.06783,-0.082 -0.185484,-0.13424 -0.220196,-0.23935 0,0 -0.34092,-0.44657 -0.200188,-0.60617 0.151965,-0.17235 0.676495,0.1325 0.676495,0.1325 z"
       id="path6155"
       inkscape:connector-curvature="0"
       sodipodi:nodetypes="scssss" />
    <rect
       ry="0.10473783"
       y="267.14105"
       x="13.07474"
       height="2.3291039"
       width="0.20947565"
       id="rect5368"
       style="opacity:1;vector-effect:none;fill:#ff0000;fill-opacity:0.39215686;fill-rule:nonzero;stroke:none;stroke-width:0.73557848;stroke-linecap:butt;stroke-linejoin:miter;stroke-miterlimit:4;stroke-dasharray:none;stroke-dashoffset:0;stroke-opacity:1" />
    <path
       id="path5354-1"
       style="fill:#ff0000;fill-opacity:0.39215686;stroke:none;stroke-width:0.08350994px;stroke-linecap:butt;stroke-linejoin:miter;stroke-opacity:1"
       d="m 15.173293,269.1384 c 0.111514,-0.38788 3.704245,-4.25 6.054774,-0.58706 2.350529,3.66294 -5.619368,11.26916 -5.63035,11.26613 0,0 6.192919,-8.03748 4.563173,-10.23148 -1.629745,-2.194 -4.987597,-0.44759 -4.987597,-0.44759 z m -5.7982864,1.80692 c -1.0718018,1.84756 0.9667864,4.83992 2.0027324,7.25989 -0.504641,-2.22053 -2.3646514,-4.53787 -1.5359461,-6.66316 0.03867,-0.0992 0.134034,-0.18563 0.134034,-0.29632 0,0 0.1836831,-0.53095 0,-0.63837 -0.1983498,-0.11601 -0.6008203,0.33796 -0.6008203,0.33796 z"
       inkscape:connector-curvature="0" />
    <path
       style="fill:#ff0000;fill-opacity:0.39215686;stroke:none;stroke-width:0.08350994px;stroke-linecap:butt;stroke-linejoin:miter;stroke-opacity:1"
       d="m 11.033998,269.50245 c -0.111514,-0.38788 -3.704244,-4.24999 -6.054773,-0.58705 -2.3505291,3.66294 5.619368,11.26916 5.63035,11.26613 0,0 -6.6980643,-8.98464 -5.0683186,-11.17863 1.6297456,-2.19401 5.4927416,0.49955 5.4927416,0.49955 z"
       id="path6150"
       inkscape:connector-curvature="0"
       sodipodi:nodetypes="czczc" />
    <path
       sodipodi:nodetypes="czczc"
       inkscape:connector-curvature="0"
       id="path5354-1-1"
       d="m 11.903202,270.6983 c -0.08489,-0.29527 -2.535794,-3.1091 -4.3251864,-0.32061 -1.7893918,2.78849 3.9937244,8.45261 4.0020844,8.4503 0,0 -4.7144965,-6.11871 -3.4738169,-7.78894 1.2406801,-1.67023 3.7969189,-0.34075 3.7969189,-0.34075 z"
       style="fill:#ff0000;fill-opacity:0.39215686;stroke:none;stroke-width:0.06357378px;stroke-linecap:butt;stroke-linejoin:miter;stroke-opacity:1" />
    <path
       id="path12954"
       style="fill:#ff0000;fill-opacity:0.47058824;stroke:none;stroke-width:0.26055932px;stroke-linecap:butt;stroke-linejoin:miter;stroke-opacity:1"
       d="m 11.970715,288.71083 c 0,0 -0.445778,0.67076 -0.437378,1.04972 0.01178,0.53142 0.634199,1.55269 0.677937,1.44335 0.04373,-0.10935 -0.409579,-1.12058 -0.41551,-1.70577 -0.0028,-0.26882 0.174951,-0.7873 0.174951,-0.7873 z m 2.602404,-1.24652 c 0,0 0.742525,1.44239 0.750826,2.00118 0.02185,1.47115 -1.975486,3.94717 -1.975486,3.94717 0,0 3.040214,-2.47103 2.799225,-4.11136 -0.100945,-0.68709 -1.574565,-1.83699 -1.574565,-1.83699 z"
       inkscape:connector-curvature="0" />
    <path
       id="path12956"
       style="fill:#ff0000;fill-opacity:0.47058824;stroke:none;stroke-width:0.26055932px;stroke-linecap:butt;stroke-linejoin:miter;stroke-opacity:1"
       d="m 13.7421,288.97327 c 0.02187,0.0874 0.828145,0.77245 0.787282,1.26839 -0.05175,0.62808 -1.24653,1.42149 -1.24653,1.42149 0,0 0.812128,-0.88426 0.874757,-1.44335 0.04876,-0.43527 -0.415509,-1.24653 -0.415509,-1.24653 z m -3.367818,0.24056 c -0.211086,0.55428 2.209188,4.18226 2.27437,4.1551 0,0 -1.546993,-2.41355 -1.618301,-3.78334 -0.03332,-0.64012 0.590461,-1.92445 0.568593,-1.83699 -0.0275,0.0853 -0.73004,0.16643 -1.224662,1.46523 z"
       inkscape:connector-curvature="0" />
  </g>
</svg>
