<?xml version="1.0" encoding="UTF-8" standalone="no"?>
<!-- Created with Inkscape (http://www.inkscape.org/) -->

<svg
   xmlns:dc="http://purl.org/dc/elements/1.1/"
   xmlns:cc="http://creativecommons.org/ns#"
   xmlns:rdf="http://www.w3.org/1999/02/22-rdf-syntax-ns#"
   xmlns:svg="http://www.w3.org/2000/svg"
   xmlns="http://www.w3.org/2000/svg"
   xmlns:sodipodi="http://sodipodi.sourceforge.net/DTD/sodipodi-0.dtd"
   xmlns:inkscape="http://www.inkscape.org/namespaces/inkscape"
   width="100"
   height="100"
   viewBox="0 0 26.458333 26.458334"
   version="1.1"
   id="svg2638"
   inkscape:version="0.92.3 (2405546, 2018-03-11)"
   sodipodi:docname="butterfly2.svg">
  <defs
     id="defs2632" />
  <sodipodi:namedview
     id="base"
     pagecolor="#ffffff"
     bordercolor="#666666"
     borderopacity="1.0"
     inkscape:pageopacity="0.0"
     inkscape:pageshadow="2"
     inkscape:zoom="4.9062297"
     inkscape:cx="18.0471"
     inkscape:cy="84.584417"
     inkscape:document-units="mm"
     inkscape:current-layer="layer1"
     showgrid="false"
     units="px"
     inkscape:window-width="1920"
     inkscape:window-height="1017"
     inkscape:window-x="-8"
     inkscape:window-y="-8"
     inkscape:window-maximized="1" />
  <metadata
     id="metadata2635">
    <rdf:RDF>
      <cc:Work
         rdf:about="">
        <dc:format>image/svg+xml</dc:format>
        <dc:type
           rdf:resource="http://purl.org/dc/dcmitype/StillImage" />
        <dc:title />
      </cc:Work>
    </rdf:RDF>
  </metadata>
  <g
     inkscape:label="Layer 1"
     inkscape:groupmode="layer"
     id="layer1"
     transform="translate(0,-270.54165)">
    <g
       transform="matrix(0.38816649,0,0,0.38816649,-110.22964,275.80225)"
       id="g3196">
      <path
         sodipodi:nodetypes="sssssss"
         inkscape:connector-curvature="0"
         id="path2145-5"
         d="m 315.91778,13.956324 c -7.94349,-3.514378 -18.43062,4.119733 -23.56342,11.127171 -1.53525,2.095957 -2.09592,5.346525 -1.04725,7.723565 2.29137,5.193885 8.39786,8.81375 14.00713,9.687185 2.65963,0.414136 5.78728,-0.486619 7.72358,-2.356342 4.24871,-4.102624 5.65793,-10.850904 5.75995,-16.756211 0.0567,-3.284694 0.1243,-8.096203 -2.87999,-9.425368 z"
         style="fill:#ff0000;stroke:none;stroke-width:0.26458332px;stroke-linecap:butt;stroke-linejoin:miter;stroke-opacity:1" />
      <path
         sodipodi:nodetypes="cccccccccccccccccsccccccscccccsccccccccccccccccccccccc"
         inkscape:connector-curvature="0"
         id="path2228-3"
         transform="scale(0.26458333)"
         d="m 1161.7324,51.927734 c -2.1363,0.642174 -4.2694,1.393139 -6.3945,2.25 16.7939,8.733372 33.9971,20.306897 49.5781,33.324219 0.032,-1.947004 0.059,-3.991879 0.039,-6.123047 -1.5563,-1.259444 -3.1188,-2.511023 -4.6992,-3.742187 -12.3976,-9.657732 -25.4927,-18.388126 -38.5235,-25.708985 z m -13.2012,5.335938 c -2.0246,1.025104 -4.0303,2.132832 -6.0136,3.3125 20.3845,7.98439 43.199,22.95713 61.6543,40.117188 0.2086,-2.038638 0.3615,-4.067102 0.4804,-6.083985 -17.2118,-15.199798 -37.1972,-28.548109 -56.1211,-37.345703 z m -10.2929,6.007812 c -2.4164,1.589018 -4.7922,3.26701 -7.1035,5.033204 0.5071,0.05995 1.0151,0.120253 1.541,0.201171 21.0714,3.242007 50.6529,21.960446 69.9414,42.878911 0.3869,-2.04477 0.7336,-4.09539 1.0156,-6.15039 -18.969,-18.730106 -44.1525,-35.118831 -65.3945,-41.962896 z m -9.4942,7.44336 c -0.2394,6.56e-4 -0.4636,0.0149 -0.6972,0.02148 -4.7944,3.896183 -9.2811,8.105561 -13.3477,12.425781 0.2503,5.679405 3.3299,13.00472 9.5547,21.369145 14.6681,19.71002 42.6489,39.04882 62.7598,42.98047 2.3846,-2.86133 4.4884,-5.96617 6.3281,-9.26172 -2.2677,1.6409 -5.8094,2.24293 -10.5195,1.52539 -15.7117,-2.39351 -38.819,-18.1258 -50.6602,-34.03711 -12.8268,-17.235692 -8.7479,-29.108979 8.0899,-26.535159 18.2232,2.785637 44.9808,21.009799 58.6914,39.445319 0.5191,0.69805 1.0071,1.38797 1.4785,2.07031 0.6304,-2.22563 1.2069,-4.47335 1.6914,-6.74609 -17.8454,-20.665304 -47.0867,-39.641233 -67.8457,-42.814461 -1.9833,-0.303162 -3.8269,-0.448008 -5.5235,-0.443359 z m -16.2578,14.855468 c -1.8958,2.115581 -3.6879,4.246497 -5.3535,6.375 1.7984,3.362022 4.0563,6.911856 6.8203,10.630858 15.7178,21.14826 43.5933,41.96878 67.211,50.83789 0.6832,-0.54693 1.3486,-1.11029 1.9707,-1.71094 1.0222,-0.9871 2.0007,-2.01533 2.9375,-3.08007 -20.8415,-4.8247 -49.2557,-24.70853 -64.209,-44.82813 -5.0652,-6.815175 -8.1325,-12.990438 -9.377,-18.224608 z m -7.791,9.625 c -1.2163,1.724352 -2.2593,3.640059 -3.1113,5.677738 16.9413,22.49301 44.6621,44.60267 70.7558,57.55273 2.1272,-0.82481 4.1684,-1.8337 6.0567,-3.0293 -24.8605,-10.46805 -53.214,-32.15013 -69.4649,-54.04296 -1.5604,-2.102164 -2.9606,-4.153548 -4.2363,-6.158208 z m -5.0039,11.746098 c -0.4841,2.30252 -0.7194,4.65578 -0.7012,6.97656 16.4636,17.65337 37.2222,34.2674 58.2754,47.01367 2.8702,0.13969 5.8205,-0.0867 8.7246,-0.66016 -24.1546,-13.23397 -48.8189,-32.82219 -66.2988,-53.33007 z m 96.5723,25.4414 c 1.5301,-3.4441 2.8106,-7.03994 3.8925,-10.71875 -0.7519,-1.15394 -1.5756,-2.33264 -2.4726,-3.53711 0.9009,-0.33862 -1.2494,3.64339 -1.4199,14.25586 z"
         style="color:#000000;font-style:normal;font-variant:normal;font-weight:normal;font-stretch:normal;font-size:medium;line-height:normal;font-family:sans-serif;font-variant-ligatures:normal;font-variant-position:normal;font-variant-caps:normal;font-variant-numeric:normal;font-variant-alternates:normal;font-feature-settings:normal;text-indent:0;text-align:start;text-decoration:none;text-decoration-line:none;text-decoration-style:solid;text-decoration-color:#000000;letter-spacing:normal;word-spacing:normal;text-transform:none;writing-mode:lr-tb;direction:ltr;text-orientation:mixed;dominant-baseline:auto;baseline-shift:baseline;text-anchor:start;white-space:normal;shape-padding:0;clip-rule:nonzero;display:inline;overflow:visible;visibility:visible;opacity:1;isolation:auto;mix-blend-mode:normal;color-interpolation:sRGB;color-interpolation-filters:linearRGB;solid-color:#000000;solid-opacity:1;vector-effect:none;fill:#00ff00;fill-opacity:1;fill-rule:evenodd;stroke:none;stroke-width:7.50992107;stroke-linecap:butt;stroke-linejoin:miter;stroke-miterlimit:4;stroke-dasharray:none;stroke-dashoffset:0;stroke-opacity:1;color-rendering:auto;image-rendering:auto;shape-rendering:auto;text-rendering:auto;enable-background:accumulate" />
      <path
         sodipodi:nodetypes="sssssss"
         inkscape:connector-curvature="0"
         id="path2143-4"
         d="m 317.61958,12.123613 c -7.8445,-6.5421585 -21.81887,-14.5425686 -31.15606,-12.43625156 -2.04008,0.460209 -2.464,3.66873316 -2.48727,5.75994796 -0.0555,4.9911956 1.98903,10.4607636 5.62904,13.8762376 1.50941,1.416303 3.82602,1.82004 5.89087,1.963619 7.65858,0.532538 18.05307,1.961781 22.64706,-4.189053 0.99773,-1.335855 0.75683,-3.906614 -0.52364,-4.9745 z"
         style="fill:#ff0000;stroke:none;stroke-width:0.26458332px;stroke-linecap:butt;stroke-linejoin:miter;stroke-opacity:1" />
      <path
         sodipodi:nodetypes="ccccccccccccccccccccccccccccccccccccccccccccccc"
         inkscape:connector-curvature="0"
         id="path2228"
         transform="scale(0.26458333)"
         d="m 1104.3535,-1.8886719 c -10.4138,14.7235799 -19.6949,31.0266619 -26.998,47.2734379 0.7464,2.20038 1.5994,4.365197 2.541,6.484375 7.482,-18.154669 17.9418,-36.768884 29.8594,-52.9179691 -1.8161,-0.3296073 -3.621,-0.6224726 -5.4024,-0.8398438 z m 10.5352,1.8964844 c -13.3329,16.9830325 -24.9306,37.6603895 -32.2871,57.3085935 1.0777,1.967295 2.229,3.885924 3.4804,5.720703 6.5458,-20.828601 19.3745,-44.110048 34.1797,-61.6523434 -1.801,-0.50524357 -3.5919,-0.96325867 -5.373,-1.3769531 z m 8.5449,2.3027344 c -15.7126,17.3913311 -29.4105,42.2066841 -35.3066,63.5585941 1.4705,1.923494 3.0423,3.748048 4.7109,5.457031 3.1376,-21.111682 18.5909,-49.984667 35.8398,-66.6562501 0.1637,-0.1582175 0.3252,-0.3017553 0.4883,-0.4570313 -1.9157,-0.6743241 -3.8276,-1.3174089 -5.7324,-1.9023437 z m 7.3613,2.4804687 c -0.8388,0.7440653 -1.683,1.5153567 -2.539,2.34375 -16.9549,16.4079644 -31.9846,44.9448514 -34.3086,65.2949224 0.2077,0.201215 0.4124,0.405904 0.623,0.603515 2.1626,2.029149 4.7646,3.507593 7.5859,4.591797 -0.91,-1.992888 -1.3759,-4.623839 -1.3046,-7.869141 0.3488,-15.889122 12.9739,-40.830137 27.2265,-54.623047 3.5171,-3.403632 6.867,-5.8909242 9.9453,-7.5175776 -2.4092,-1.0005678 -4.82,-1.9471844 -7.2285,-2.8242188 z m 24.459,10.9316404 c 0.1446,1.234991 0.2102,2.567537 0.1777,4.013672 0.425,17.62811 -31.5323,61.277061 -23.1308,61.875 14.8457,-18.114654 26.9938,-43.03138 29.7578,-62.171875 -2.2461,-1.26983 -4.5126,-2.514107 -6.8047,-3.716797 z m 8.7559,4.826172 c -3.4721,19.06652 -15.0534,42.928889 -29.2735,61.230469 1.9446,0.129518 3.9017,0.246991 5.8692,0.347656 12.9646,-18.020011 23.5709,-39.567264 28.5722,-58.513672 -1.7044,-1.035626 -3.4258,-2.059403 -5.1679,-3.064453 z m 8.5117,5.128906 c -5.5161,18.491203 -15.5216,38.859621 -27.6582,56.63086 1.8959,0.06796 3.7897,0.108643 5.6836,0.126953 11.182,-17.107121 20.5444,-36.009089 26.5664,-53.814453 -1.509,-0.989673 -3.0416,-1.970303 -4.5918,-2.94336 z m 9.5097,6.242188 c -6.1656,16.766135 -14.782,34.196416 -24.9003,50.464844 1.9363,-0.0577 3.8581,-0.155926 5.7617,-0.296875 0.613,-1.014462 1.2261,-2.029433 1.8281,-3.050782 v 0 c 8.4809,-14.389691 15.8298,-29.424713 21.5703,-44.125 -1.3957,-0.999315 -2.8111,-1.997982 -4.2579,-2.992187 z"
         style="color:#000000;font-style:normal;font-variant:normal;font-weight:normal;font-stretch:normal;font-size:medium;line-height:normal;font-family:sans-serif;font-variant-ligatures:normal;font-variant-position:normal;font-variant-caps:normal;font-variant-numeric:normal;font-variant-alternates:normal;font-feature-settings:normal;text-indent:0;text-align:start;text-decoration:none;text-decoration-line:none;text-decoration-style:solid;text-decoration-color:#000000;letter-spacing:normal;word-spacing:normal;text-transform:none;writing-mode:lr-tb;direction:ltr;text-orientation:mixed;dominant-baseline:auto;baseline-shift:baseline;text-anchor:start;white-space:normal;shape-padding:0;clip-rule:nonzero;display:inline;overflow:visible;visibility:visible;opacity:1;isolation:auto;mix-blend-mode:normal;color-interpolation:sRGB;color-interpolation-filters:linearRGB;solid-color:#000000;solid-opacity:1;vector-effect:none;fill:#00ff00;fill-opacity:1;fill-rule:evenodd;stroke:none;stroke-width:7.50992107;stroke-linecap:butt;stroke-linejoin:miter;stroke-miterlimit:4;stroke-dasharray:none;stroke-dashoffset:0;stroke-opacity:1;color-rendering:auto;image-rendering:auto;shape-rendering:auto;text-rendering:auto;enable-background:accumulate" />
      <circle
         style="opacity:1;vector-effect:none;fill:#0000ff;fill-opacity:1;fill-rule:nonzero;stroke:none;stroke-width:1.98699987;stroke-linecap:butt;stroke-linejoin:miter;stroke-miterlimit:4;stroke-dasharray:none;stroke-dashoffset:0;stroke-opacity:0.44186048"
         id="circle2347"
         cx="298.43234"
         cy="11.526872"
         r="2.7769759" />
      <circle
         r="2.7769759"
         cy="28.744123"
         cx="306.20789"
         id="path2345"
         style="opacity:1;vector-effect:none;fill:#0000ff;fill-opacity:1;fill-rule:nonzero;stroke:none;stroke-width:1.98699987;stroke-linecap:butt;stroke-linejoin:miter;stroke-miterlimit:4;stroke-dasharray:none;stroke-dashoffset:0;stroke-opacity:0.44186048" />
      <path
         sodipodi:nodetypes="sssssss"
         inkscape:connector-curvature="0"
         id="path2145-5-8"
         d="m 320.19485,13.956334 c 7.94349,-3.514378 18.43062,4.119733 23.56342,11.127171 1.53525,2.095957 2.09592,5.346525 1.04725,7.723565 -2.29137,5.193885 -8.39786,8.81375 -14.00713,9.687185 -2.65963,0.414136 -5.78728,-0.486619 -7.72358,-2.356342 -4.24871,-4.102624 -5.65793,-10.850904 -5.75995,-16.756211 -0.0567,-3.284694 -0.1243,-8.096203 2.87999,-9.425368 z"
         style="fill:#ff0000;stroke:none;stroke-width:0.26458332px;stroke-linecap:butt;stroke-linejoin:miter;stroke-opacity:1" />
      <path
         sodipodi:nodetypes="cccccccccccccccccsccccccscccccsccccccccccccccccccccccc"
         inkscape:connector-curvature="0"
         id="path2228-3-8"
         d="m 328.7376,13.739223 c 0.56523,0.169908 1.12961,0.368601 1.69188,0.595312 -4.44339,2.310705 -8.99507,5.372867 -13.11754,8.817033 -0.009,-0.515144 -0.0156,-1.056184 -0.0103,-1.620056 0.41177,-0.333228 0.82518,-0.664375 1.24333,-0.99012 3.2802,-2.555275 6.74494,-4.865192 10.19268,-6.802169 z m 3.49282,1.4118 c 0.53568,0.271226 1.06635,0.564312 1.5911,0.876433 -5.3934,2.112536 -11.42974,6.074073 -16.3127,10.614339 -0.0552,-0.539391 -0.0956,-1.076088 -0.12711,-1.609721 4.55396,-4.021613 9.84176,-7.553354 14.84871,-9.881051 z m 2.72333,1.589567 c 0.63934,0.420428 1.26794,0.864397 1.87947,1.331702 -0.13417,0.01586 -0.26858,0.03182 -0.40773,0.05323 -5.57514,0.857781 -13.40191,5.810368 -18.50532,11.345044 -0.10237,-0.541012 -0.1941,-1.083571 -0.26872,-1.62729 5.01889,-4.955677 11.68202,-9.29186 17.3023,-11.102686 z m 2.51201,1.969389 c 0.0633,1.74e-4 0.12266,0.0039 0.18446,0.0057 1.26852,1.030865 2.45563,2.144597 3.53158,3.287655 -0.0662,1.502676 -0.88103,3.440832 -2.52801,5.653919 -3.88094,5.214943 -11.28419,10.331667 -16.6052,11.371916 -0.63092,-0.75706 -1.18755,-1.578549 -1.67431,-2.450496 0.6,0.434154 1.53707,0.593441 2.78329,0.403592 4.15705,-0.633283 10.27086,-4.795784 13.40384,-9.005652 3.39376,-4.560276 2.31455,-7.70175 -2.14045,-7.02076 -4.82156,0.737033 -11.90117,5.558842 -15.52877,10.436573 -0.13734,0.184693 -0.26646,0.367234 -0.39119,0.54777 -0.16679,-0.588865 -0.31932,-1.183574 -0.44751,-1.784903 4.72159,-5.467712 12.45836,-10.488426 17.95084,-11.32801 0.52475,-0.08021 1.01253,-0.118535 1.46143,-0.117304 z m 4.30154,3.930509 c 0.5016,0.559748 0.97576,1.123553 1.41645,1.686719 -0.47583,0.889535 -1.07323,1.828762 -1.80454,2.812748 -4.15867,5.595477 -11.53406,11.104239 -17.78291,13.450858 -0.18077,-0.144708 -0.35682,-0.293764 -0.52142,-0.452686 -0.27045,-0.26117 -0.52935,-0.533223 -0.77721,-0.814935 5.51431,-1.276536 13.03224,-6.537466 16.98863,-11.860776 1.34017,-1.803182 2.15173,-3.437053 2.481,-4.821928 z m 2.06137,2.546615 c 0.32181,0.456235 0.59777,0.963098 0.8232,1.502235 -4.48239,5.951275 -11.81685,11.801123 -18.72081,15.227493 -0.56282,-0.218231 -1.10289,-0.485167 -1.6025,-0.801503 6.57767,-2.769671 14.07954,-8.506388 18.37925,-14.298866 0.41286,-0.556197 0.78333,-1.098959 1.12086,-1.629359 z m 1.32395,3.107821 c 0.12808,0.609209 0.19034,1.231842 0.18552,1.845882 -4.35599,4.670787 -9.84837,9.066583 -15.4187,12.439033 -0.7594,0.03696 -1.54,-0.02294 -2.30838,-0.174667 6.3909,-3.501488 12.91667,-8.684204 17.54156,-14.110248 z m -25.55142,6.731371 c -0.40484,-0.911252 -0.74364,-1.862651 -1.0299,-2.836003 0.19894,-0.305313 0.41688,-0.617177 0.65421,-0.93586 -0.23836,-0.08959 0.33057,0.96398 0.37569,3.771863 z"
         style="color:#000000;font-style:normal;font-variant:normal;font-weight:normal;font-stretch:normal;font-size:medium;line-height:normal;font-family:sans-serif;font-variant-ligatures:normal;font-variant-position:normal;font-variant-caps:normal;font-variant-numeric:normal;font-variant-alternates:normal;font-feature-settings:normal;text-indent:0;text-align:start;text-decoration:none;text-decoration-line:none;text-decoration-style:solid;text-decoration-color:#000000;letter-spacing:normal;word-spacing:normal;text-transform:none;writing-mode:lr-tb;direction:ltr;text-orientation:mixed;dominant-baseline:auto;baseline-shift:baseline;text-anchor:start;white-space:normal;shape-padding:0;clip-rule:nonzero;display:inline;overflow:visible;visibility:visible;opacity:1;isolation:auto;mix-blend-mode:normal;color-interpolation:sRGB;color-interpolation-filters:linearRGB;solid-color:#000000;solid-opacity:1;vector-effect:none;fill:#00ff00;fill-opacity:1;fill-rule:evenodd;stroke:none;stroke-width:1.98699999;stroke-linecap:butt;stroke-linejoin:miter;stroke-miterlimit:4;stroke-dasharray:none;stroke-dashoffset:0;stroke-opacity:1;color-rendering:auto;image-rendering:auto;shape-rendering:auto;text-rendering:auto;enable-background:accumulate" />
      <path
         sodipodi:nodetypes="sssssss"
         inkscape:connector-curvature="0"
         id="path2143-4-4"
         d="m 318.49305,12.123623 c 7.8445,-6.542159 21.81887,-14.5425691 31.15606,-12.43625198 2.04008,0.460209 2.464,3.66873308 2.48727,5.75994788 0.0555,4.9911961 -1.98903,10.4607641 -5.62904,13.8762381 -1.50941,1.416303 -3.82602,1.82004 -5.89087,1.963619 -7.65858,0.532538 -18.05307,1.961781 -22.64706,-4.189053 -0.99773,-1.335855 -0.75683,-3.906614 0.52364,-4.9745 z"
         style="fill:#ff0000;stroke:none;stroke-width:0.26458332px;stroke-linecap:butt;stroke-linejoin:miter;stroke-opacity:1" />
      <path
         sodipodi:nodetypes="ccccccccccccccccccccccccccccccccccccccccccccccc"
         inkscape:connector-curvature="0"
         id="path2228-0"
         d="m 343.9191,-0.49970152 c 2.75532,3.89561372 5.21095,8.20913752 7.14322,12.50776452 -0.19748,0.582184 -0.42317,1.154958 -0.6723,1.715657 -1.97961,-4.8034231 -4.7471,-9.7284342 -7.9003,-14.00121284 0.48051,-0.0872086 0.95805,-0.16469589 1.42938,-0.22220868 z m -2.78744,0.50177817 c 3.52767,4.49342725 6.59623,9.96431085 8.54263,15.16289935 -0.28514,0.520513 -0.58975,1.02815 -0.92085,1.513602 -1.73191,-5.5109 -5.12617,-11.6707836 -9.04338,-16.31218255 0.47651,-0.13367899 0.95036,-0.25486215 1.4216,-0.3643188 z m -2.26083,0.6092651 c 4.15729,4.60145625 7.78152,11.16718525 9.34153,16.81654525 -0.38907,0.508924 -0.80494,0.991671 -1.24642,1.443839 -0.83016,-5.585799 -4.91884,-13.22511 -9.48261,-17.636133 -0.0433,-0.041862 -0.0861,-0.079839 -0.1292,-0.1209228 0.50686,-0.17841485 1.01272,-0.34856445 1.5167,-0.50332845 z m -1.94768,0.65629065 c 0.22193,0.1968673 0.44529,0.4009382 0.67178,0.6201172 4.48598,4.3412739 8.46259,11.8916594 9.07748,17.2759484 -0.0549,0.05324 -0.10911,0.107396 -0.16484,0.15968 -0.57218,0.536879 -1.26063,0.928051 -2.0071,1.214913 0.24077,-0.527285 0.36404,-1.22339 0.34518,-2.082043 -0.0923,-4.203997 -3.43268,-10.8029746 -7.20368,-14.4523487 -0.93057,-0.9005443 -1.81689,-1.5586403 -2.63136,-1.9890255 0.63743,-0.2647337 1.27529,-0.5151927 1.91254,-0.7472414 z m -6.47144,2.8923298 c -0.0383,0.3267581 -0.0556,0.6793275 -0.047,1.0619507 -0.11245,4.6641046 8.34292,16.2128891 6.12002,16.3710941 -3.92793,-4.792835 -7.14211,-11.385386 -7.87342,-16.4496422 0.59428,-0.3359759 1.19396,-0.6651908 1.80041,-0.9834026 z m -2.31667,1.2769247 c 0.91866,5.0446841 3.98288,11.3582691 7.74528,16.2005621 -0.51451,0.03427 -1.03232,0.06535 -1.55289,0.09198 -3.43022,-4.767791 -6.23647,-10.468835 -7.55973,-15.4817389 0.45096,-0.2740094 0.90641,-0.5448837 1.36734,-0.8108032 z m -2.25205,1.357023 c 1.45946,4.8924651 4.10675,10.2816091 7.3179,14.9835821 -0.50163,0.01798 -1.0027,0.02875 -1.50379,0.03359 -2.95857,-4.526259 -5.43571,-9.527405 -7.02903,-14.2384081 0.39926,-0.2618509 0.80476,-0.5213093 1.21492,-0.778764 z m -2.51611,1.651579 c 1.63131,4.4360401 3.91107,9.0478021 6.5882,13.3521571 -0.51231,-0.01527 -1.02079,-0.04125 -1.52445,-0.07855 -0.16219,-0.26841 -0.3244,-0.536954 -0.48368,-0.807186 v 0 c -2.24391,-3.807271 -4.1883,-7.785287 -5.70714,-11.6747383 0.36927,-0.2644021 0.74377,-0.5286328 1.12656,-0.7916828 z"
         style="color:#000000;font-style:normal;font-variant:normal;font-weight:normal;font-stretch:normal;font-size:medium;line-height:normal;font-family:sans-serif;font-variant-ligatures:normal;font-variant-position:normal;font-variant-caps:normal;font-variant-numeric:normal;font-variant-alternates:normal;font-feature-settings:normal;text-indent:0;text-align:start;text-decoration:none;text-decoration-line:none;text-decoration-style:solid;text-decoration-color:#000000;letter-spacing:normal;word-spacing:normal;text-transform:none;writing-mode:lr-tb;direction:ltr;text-orientation:mixed;dominant-baseline:auto;baseline-shift:baseline;text-anchor:start;white-space:normal;shape-padding:0;clip-rule:nonzero;display:inline;overflow:visible;visibility:visible;opacity:1;isolation:auto;mix-blend-mode:normal;color-interpolation:sRGB;color-interpolation-filters:linearRGB;solid-color:#000000;solid-opacity:1;vector-effect:none;fill:#00ff00;fill-opacity:1;fill-rule:evenodd;stroke:none;stroke-width:1.98699999;stroke-linecap:butt;stroke-linejoin:miter;stroke-miterlimit:4;stroke-dasharray:none;stroke-dashoffset:0;stroke-opacity:1;color-rendering:auto;image-rendering:auto;shape-rendering:auto;text-rendering:auto;enable-background:accumulate" />
      <circle
         transform="scale(-1,1)"
         style="opacity:1;vector-effect:none;fill:#0000ff;fill-opacity:1;fill-rule:nonzero;stroke:none;stroke-width:1.98699999;stroke-linecap:butt;stroke-linejoin:miter;stroke-miterlimit:4;stroke-dasharray:none;stroke-dashoffset:0;stroke-opacity:0.44186048"
         id="circle2347-6"
         cx="-337.68027"
         cy="11.526881"
         r="2.7769759" />
      <circle
         transform="scale(-1,1)"
         r="2.7769759"
         cy="28.744133"
         cx="-329.90472"
         id="path2345-4"
         style="opacity:1;vector-effect:none;fill:#0000ff;fill-opacity:1;fill-rule:nonzero;stroke:none;stroke-width:1.98699999;stroke-linecap:butt;stroke-linejoin:miter;stroke-miterlimit:4;stroke-dasharray:none;stroke-dashoffset:0;stroke-opacity:0.44186048" />
      <ellipse
         ry="12.218695"
         rx="2.4992783"
         cy="21.894249"
         cx="318.42657"
         id="path2208-2"
         style="opacity:1;vector-effect:none;fill:#000000;fill-opacity:1;fill-rule:nonzero;stroke:none;stroke-width:1.16499996;stroke-linecap:butt;stroke-linejoin:miter;stroke-miterlimit:4;stroke-dasharray:none;stroke-dashoffset:0;stroke-opacity:0.44186048" />
    </g>
  </g>
</svg>
