<?xml version="1.0" encoding="UTF-8" standalone="no"?>
<!-- Created with Inkscape (http://www.inkscape.org/) -->

<svg
   xmlns:dc="http://purl.org/dc/elements/1.1/"
   xmlns:cc="http://creativecommons.org/ns#"
   xmlns:rdf="http://www.w3.org/1999/02/22-rdf-syntax-ns#"
   xmlns:svg="http://www.w3.org/2000/svg"
   xmlns="http://www.w3.org/2000/svg"
   xmlns:sodipodi="http://sodipodi.sourceforge.net/DTD/sodipodi-0.dtd"
   xmlns:inkscape="http://www.inkscape.org/namespaces/inkscape"
   width="100"
   height="100"
   viewBox="0 0 26.458333 26.458334"
   version="1.1"
   id="svg2638"
   inkscape:version="0.92.3 (2405546, 2018-03-11)"
   sodipodi:docname="butterfly5.svg">
  <defs
     id="defs2632" />
  <sodipodi:namedview
     id="base"
     pagecolor="#ffffff"
     bordercolor="#666666"
     borderopacity="1.0"
     inkscape:pageopacity="0.0"
     inkscape:pageshadow="2"
     inkscape:zoom="11.549377"
     inkscape:cx="91.589007"
     inkscape:cy="25.753347"
     inkscape:document-units="mm"
     inkscape:current-layer="layer1"
     showgrid="false"
     units="px"
     inkscape:window-width="1920"
     inkscape:window-height="1017"
     inkscape:window-x="-8"
     inkscape:window-y="-8"
     inkscape:window-maximized="1" />
  <metadata
     id="metadata2635">
    <rdf:RDF>
      <cc:Work
         rdf:about="">
        <dc:format>image/svg+xml</dc:format>
        <dc:type
           rdf:resource="http://purl.org/dc/dcmitype/StillImage" />
        <dc:title />
      </cc:Work>
    </rdf:RDF>
  </metadata>
  <g
     inkscape:label="Layer 1"
     inkscape:groupmode="layer"
     id="layer1"
     transform="translate(0,-270.54165)">
    <g
       style="fill:#ff0000;stroke:none"
       id="g2269"
       transform="matrix(0.12977266,0,0,0.13073802,-2.7094514,267.58628)">
      <path
         sodipodi:nodetypes="ssssasasssss"
         inkscape:connector-curvature="0"
         id="path2172"
         d="M 120.48387,106.67952 C 103.0153,78.022315 60.981981,29.958488 24.126634,49.349756 c -9.79518,5.153688 15.864559,8.233835 15.393151,11.108963 -0.588954,3.592046 -5.811816,4.943213 -4.916061,8.471284 0.889788,3.50457 9.919168,7.197946 10.26391,12.60553 0.172245,2.701815 -5.223988,3.855396 -4.286904,6.898386 1.161711,3.77242 9.014619,8.036898 10.578489,13.549271 0.863806,3.04476 -2.09607,6.35686 -1.042424,9.43737 0.699602,2.0454 4.645373,4.35611 6.075693,5.97701 2.082577,2.36006 2.140197,3.55567 5.287327,3.60649 21.706229,0.3505 49.295805,-4.86943 60.262375,-3.31426 3.65739,0.51865 0.66437,-7.85611 -1.25832,-11.01028 z"
         style="fill:#ff0000;stroke:none;stroke-width:0.26458332px;stroke-linecap:butt;stroke-linejoin:miter;stroke-opacity:1" />
      <path
         sodipodi:nodetypes="ssssssssssssssssssss"
         inkscape:connector-curvature="0"
         id="path2174"
         d="m 120.48387,106.67952 c -15.31519,-10.393876 -60.120917,9.60877 -70.465762,33.34541 -1.161757,2.6657 3.765734,4.95664 3.774953,7.86448 0.01324,4.17466 -7.134763,7.55193 -5.347848,11.32485 1.480484,3.12592 8.058158,-0.29931 10.066536,2.51664 2.811411,3.94189 -4.587409,10.95501 -1.258316,14.47064 2.236249,2.36155 7.756261,-2.88263 9.751959,-0.31457 5.090898,6.55095 -3.638438,16.28839 -6.920746,23.90802 -1.636429,3.79884 -5.795869,6.5892 -6.291585,10.6957 -0.262404,2.17375 -0.195513,5.61688 1.887474,6.29158 2.134895,0.69152 4.137557,-2.19978 5.347848,-4.08953 2.318681,-3.6204 1.150634,-8.626 2.831214,-12.58317 1.86447,-4.39017 3.103103,-11.67279 7.864483,-11.95401 2.600132,-0.15357 2.457195,5.59216 5.033269,5.97701 2.099945,0.31372 3.226828,-3.55766 5.347848,-3.46038 3.73003,0.17107 5.288861,8.16835 8.80822,6.92075 4.459567,-1.5809 -1.052102,-11.65868 3.145795,-13.84149 2.211399,-1.14988 5.909467,5.10932 6.920748,2.83121 6.17902,-13.91949 10.00544,-42.80577 20.13307,-61.65754 2.87998,-5.36085 4.40621,-14.82827 -0.62916,-18.2456 z"
         style="fill:#ff0000;stroke:none;stroke-width:0.26458332px;stroke-linecap:butt;stroke-linejoin:miter;stroke-opacity:1" />
      <path
         sodipodi:nodetypes="ssssssssssss"
         inkscape:connector-curvature="0"
         id="path2172-7"
         d="M 120.82729,108.15086 C 105.28168,82.648284 75.464951,51.612755 46.3606,58.319769 c -2.526573,0.582241 -3.499787,4.16017 -3.919301,6.718799 -0.524121,3.196629 5.833765,5.043956 6.630914,8.183652 0.791839,3.118782 -0.813249,6.384477 0.130206,9.460791 0.830798,2.708975 0.795856,5.410534 1.629785,8.118548 1.033828,3.357145 5.672561,6.478452 6.638508,9.855751 0.796722,2.78563 -3.369325,6.99175 -2.431665,9.73315 0.622589,1.82024 0.966732,3.87658 2.2396,5.31905 1.853324,2.10026 4.47801,4.15403 7.2787,4.19925 19.316776,0.31192 47.630383,-3.34362 57.389743,-1.95964 3.25478,0.46155 0.59123,-6.9913 -1.1198,-9.79826 z"
         style="fill:#00ff00;stroke:none;stroke-width:0.23545761px;stroke-linecap:butt;stroke-linejoin:miter;stroke-opacity:1" />
      <path
         sodipodi:nodetypes="ssssssccsssccs"
         inkscape:connector-curvature="0"
         id="path2174-5"
         d="m 121.30548,108.44963 c -10.64602,-7.22506 -41.791724,6.67933 -48.982714,23.17933 -0.807569,1.853 2.617667,3.44549 2.624075,5.46681 0.0092,2.90193 -4.959572,5.24956 -3.717438,7.87222 1.029126,2.17292 5.60145,-0.20806 6.997529,1.74939 1.95429,2.74011 -3.188835,7.61513 -0.87469,10.05894 1.554479,1.64158 5.391592,-2.00379 6.778857,-0.21866 -1.89422,6.13626 -2.49236,9.03195 3.280092,8.52823 1.807424,-0.10675 1.708064,3.88727 3.498765,4.15479 1.45973,0.21807 2.243058,-2.47303 3.717437,-2.40541 2.592848,0.11892 3.676435,5.67805 6.122837,4.81081 3.09997,-1.09893 -0.73134,-8.10427 2.18673,-9.62161 5.64327,-0.15807 8.48782,-30.48723 18.80586,-40.89181 2.00196,-3.72648 3.06288,-10.30754 -0.43734,-12.68303 z"
         style="fill:#00ff00;stroke:none;stroke-width:0.18391922px;stroke-linecap:butt;stroke-linejoin:miter;stroke-opacity:1" />
      <path
         sodipodi:nodetypes="sssssscscsscscscsssss"
         inkscape:connector-curvature="0"
         id="path2206"
         transform="scale(0.26458333)"
         d="m 257.01758,270.96094 c -16.21551,-0.12857 -34.96315,6.36016 -40.95117,20.08398 -9.76058,22.37004 9.62773,50.85794 26.90234,68.09961 41.76887,41.68923 150.43537,7.4908 164.78125,64.73438 9.037,36.05983 -58.88067,50.24593 -72.30078,84.91406 -6.07336,15.68931 -13.48363,38.45368 -1.68164,50.44336 11.20739,11.38564 34.47039,7.78078 47.91992,-0.8418 40.83606,-26.18018 79.85505,-110.72312 76.50586,-128.63086 -5.55398,-29.69635 -114.62562,-144.54415 -192.52539,-158.05469 -2.73205,-0.47383 -5.64752,-0.72423 -8.65039,-0.74804 z m 9.41992,13.30859 c 3.30452,-0.0728 6.52214,0.15184 9.49805,0.66602 8.88492,1.53513 18.21655,4.51708 27.75237,8.61129 66.35534,28.48973 142.59744,110.83671 147.00544,134.31644 3.0401,16.19377 -32.37771,92.644 -69.44531,116.31836 -12.20836,7.79724 -33.32687,11.05569 -43.5,0.75977 -10.71287,-10.84207 4.42205,-33.949 14.97929,-45.61446 22.56839,-24.93745 72.9913,-44.17753 64.78828,-76.78593 -13.02202,-51.76457 -106.61577,-37.6545 -151.25585,-58.53907 -20.02906,-9.37045 -44.20946,-41.35116 -35.34961,-61.58007 5.23412,-11.95062 21.20775,-17.83667 35.52734,-18.15235 z"
         style="fill:#0000ff;stroke:none;stroke-width:0.99999994px;stroke-linecap:butt;stroke-linejoin:miter;stroke-opacity:1" />
    </g>
    <g
       style="fill:#ff0000;stroke:none"
       id="g2282"
       transform="matrix(0.12977266,0,0,0.13073802,-2.7094514,267.58628)">
      <path
         sodipodi:nodetypes="ssssasasssss"
         inkscape:connector-curvature="0"
         id="path2172-4"
         d="m 127.18953,106.67952 c 17.46857,-28.657204 59.50189,-76.721032 96.35724,-57.329764 9.79518,5.153689 -15.86456,8.233835 -15.39315,11.108963 0.58895,3.592046 5.81181,4.943213 4.91606,8.471284 -0.88979,3.504569 -9.91917,7.197946 -10.26391,12.60553 -0.17225,2.701816 5.22398,3.855397 4.2869,6.898386 -1.16171,3.772421 -9.01462,8.036898 -10.57849,13.549271 -0.8638,3.04476 2.09607,6.35686 1.04243,9.43737 -0.69961,2.0454 -4.64538,4.35611 -6.0757,5.97701 -2.08258,2.36006 -0.36067,4.89031 -3.5078,4.94113 -21.70622,0.3505 -51.07533,-6.20407 -62.0419,-4.6489 -3.65739,0.51865 -0.66437,-7.85611 1.25832,-11.01028 z"
         style="fill:#ff0000;stroke:none;stroke-width:0.26458332px;stroke-linecap:butt;stroke-linejoin:miter;stroke-opacity:1" />
      <path
         sodipodi:nodetypes="ssssssssssssssssssss"
         inkscape:connector-curvature="0"
         id="path2174-9"
         d="m 127.18953,106.67952 c 15.31519,-10.393877 60.12091,9.60877 70.46576,33.34541 1.16176,2.6657 -3.76574,4.95664 -3.77495,7.86448 -0.0132,4.17466 7.13476,7.55193 5.34785,11.32485 -1.48049,3.12592 -8.05816,-0.29931 -10.06654,2.51664 -2.81141,3.94189 4.58741,10.95501 1.25831,14.47064 -2.23625,2.36155 -7.75626,-2.88263 -9.75196,-0.31457 -5.09089,6.55095 3.63844,16.28839 6.92075,23.90802 1.63643,3.79884 5.79587,6.5892 6.29159,10.6957 0.2624,2.17375 0.19551,5.61688 -1.88748,6.29158 -2.13489,0.69152 -4.13755,-2.19978 -5.34785,-4.08953 -2.31868,-3.6204 -1.15063,-8.626 -2.83121,-12.58317 -1.86447,-4.39017 -3.1031,-11.67279 -7.86448,-11.95401 -2.60013,-0.15357 -2.4572,5.59216 -5.03327,5.97701 -2.09995,0.31372 -3.22683,-3.55766 -5.34785,-3.46038 -3.73003,0.17107 -5.28886,8.16835 -8.80822,6.92075 -4.45957,-1.5809 1.0521,-11.65868 -3.1458,-13.84149 -2.21139,-1.14988 -5.90946,5.10932 -6.92074,2.83121 -6.17902,-13.91949 -10.00544,-42.80577 -20.13307,-61.65754 -2.87998,-5.36085 -4.40621,-14.82827 0.62916,-18.2456 z"
         style="fill:#ff0000;stroke:none;stroke-width:0.26458332px;stroke-linecap:butt;stroke-linejoin:miter;stroke-opacity:1" />
      <path
         sodipodi:nodetypes="ssssssssssss"
         inkscape:connector-curvature="0"
         id="path2172-7-7"
         d="m 126.84611,108.15086 c 15.54561,-25.502574 45.36234,-56.538105 74.46669,-49.831091 2.52657,0.582241 3.49979,4.16017 3.9193,6.718799 0.52412,3.196629 -5.83376,5.043956 -6.63091,8.183653 -0.79184,3.118782 0.81325,6.384475 -0.13021,9.460791 -0.8308,2.708974 -0.79585,5.410533 -1.62978,8.118547 -1.03383,3.357147 -5.67257,6.478452 -6.63851,9.855751 -0.79673,2.78563 3.36932,6.99175 2.43166,9.73315 -0.62259,1.82024 -0.96673,3.87658 -2.2396,5.31905 -1.85332,2.10026 -4.47801,4.15403 -7.2787,4.19925 -19.31678,0.31192 -47.63038,-3.34362 -57.38974,-1.95964 -3.25478,0.46155 -0.59123,-6.9913 1.1198,-9.79826 z"
         style="fill:#00ff00;stroke:none;stroke-width:0.23545761px;stroke-linecap:butt;stroke-linejoin:miter;stroke-opacity:1" />
      <path
         sodipodi:nodetypes="ssssssccsssccs"
         inkscape:connector-curvature="0"
         id="path2174-5-0"
         d="m 126.36792,108.44963 c 10.64602,-7.22506 41.79172,6.67933 48.98271,23.17933 0.80757,1.853 -2.61767,3.44549 -2.62408,5.46681 -0.009,2.90193 4.95958,5.24956 3.71744,7.87222 -1.02912,2.17292 -5.60145,-0.20806 -6.99753,1.74939 -1.95428,2.74011 3.18884,7.61513 0.87469,10.05894 -1.55447,1.64158 -5.39159,-2.00379 -6.77885,-0.21866 1.89422,6.13626 2.49236,9.03195 -3.28009,8.52823 -1.80743,-0.10675 -1.70807,3.88727 -3.49877,4.15479 -1.45973,0.21807 -2.24306,-2.47303 -3.71744,-2.40541 -2.59285,0.11892 -3.67643,5.67805 -6.12283,4.81081 -3.09997,-1.09893 0.73134,-8.10427 -2.18673,-9.62161 -5.64327,-0.15807 -8.48782,-30.48723 -18.80586,-40.89181 -2.00196,-3.72648 -3.06288,-10.30754 0.43734,-12.68303 z"
         style="fill:#00ff00;stroke:none;stroke-width:0.18391922px;stroke-linecap:butt;stroke-linejoin:miter;stroke-opacity:1" />
      <path
         sodipodi:nodetypes="sssssscscssccscsssss"
         inkscape:connector-curvature="0"
         id="path2206-2"
         d="m 179.67083,71.691749 c 4.29035,-0.03402 9.25067,1.682793 10.835,5.313887 2.58248,5.91874 -2.54734,13.456163 -7.11791,18.018022 -11.05135,11.030272 -39.80269,1.98194 -43.59837,17.127642 -2.39104,9.54083 15.57884,13.29423 19.12958,22.46684 1.60691,4.15113 3.56754,10.1742 0.44493,13.34647 -2.96529,3.01245 -9.12029,2.05867 -12.67881,-0.22272 -10.80454,-6.92684 -21.12832,-29.29549 -20.24218,-34.03358 1.4695,-7.85716 30.32803,-38.243978 50.93901,-41.818642 0.72286,-0.125367 1.49424,-0.191619 2.28875,-0.197919 z m -2.49235,3.521232 c -0.87432,-0.01926 -1.72565,0.04017 -2.51303,0.176217 -18.70893,3.232515 -44.90411,30.711182 -46.238,37.816292 -0.80436,4.28461 8.5666,24.51206 18.37407,30.7759 3.23013,2.06302 8.81773,2.92515 11.50937,0.20103 2.83445,-2.86864 -1.17,-8.98234 -3.96327,-12.06883 -5.97122,-6.59803 -19.31228,-11.68864 -17.14189,-20.31628 3.44541,-13.69604 28.20875,-9.96275 40.01977,-15.48846 5.29936,-2.479265 11.69709,-10.940828 9.35292,-16.29306 -1.38486,-3.161935 -5.61122,-4.719286 -9.39994,-4.802809 z"
         style="fill:#0000ff;stroke:none;stroke-width:0.26458332px;stroke-linecap:butt;stroke-linejoin:miter;stroke-opacity:1" />
    </g>
    <g
       style="fill:#ff0000;stroke:none"
       id="g2285"
       transform="matrix(0.12977266,0,0,0.13073802,-2.7094514,267.58628)">
      <ellipse
         ry="29.139791"
         rx="6.2283525"
         cy="129.05692"
         cx="124.34461"
         id="path2224"
         style="opacity:1;vector-effect:none;fill:#000000;fill-opacity:1;fill-rule:nonzero;stroke:none;stroke-width:1.19591665;stroke-linecap:butt;stroke-linejoin:miter;stroke-miterlimit:4;stroke-dasharray:none;stroke-dashoffset:0;stroke-opacity:0.44186048" />
    </g>
  </g>
</svg>
