<?xml version="1.0" encoding="UTF-8" standalone="no"?>
<!-- Created with Inkscape (http://www.inkscape.org/) -->

<svg
   width="50"
   height="50"
   viewBox="0 0 13.229166 13.229167"
   version="1.1"
   id="svg2496"
   sodipodi:docname="corner.svg"
   inkscape:version="1.1.1 (3bf5ae0d25, 2021-09-20)"
   inkscape:export-filename="C:\Users\Nathan\Projects\VGame\assets\png\corner.png"
   inkscape:export-xdpi="119.618"
   inkscape:export-ydpi="119.618"
   xmlns:inkscape="http://www.inkscape.org/namespaces/inkscape"
   xmlns:sodipodi="http://sodipodi.sourceforge.net/DTD/sodipodi-0.dtd"
   xmlns="http://www.w3.org/2000/svg"
   xmlns:svg="http://www.w3.org/2000/svg">
  <sodipodi:namedview
     id="namedview2498"
     pagecolor="#ffffff"
     bordercolor="#666666"
     borderopacity="1.0"
     inkscape:pageshadow="2"
     inkscape:pageopacity="0.0"
     inkscape:pagecheckerboard="0"
     inkscape:document-units="mm"
     showgrid="false"
     inkscape:snap-global="false"
     units="px"
     inkscape:zoom="6.2145903"
     inkscape:cx="-9.5742433"
     inkscape:cy="24.539027"
     inkscape:window-width="1920"
     inkscape:window-height="1009"
     inkscape:window-x="1912"
     inkscape:window-y="-8"
     inkscape:window-maximized="1"
     inkscape:current-layer="layer1" />
  <defs
     id="defs2493" />
  <g
     inkscape:label="Layer 1"
     inkscape:groupmode="layer"
     id="layer1">
    <g
       id="g4003"
       transform="matrix(0,-0.41072613,0.41072613,0,-170.50763,4.5436753)"
       inkscape:transform-center-x="2.830929">
      <path
         id="path3999"
         style="fill:#000000;stroke:none;stroke-width:0.264583px;stroke-linecap:butt;stroke-linejoin:miter;stroke-opacity:1"
         d="m -7.1686535,435.13529 c -0.122492,-1.66145 -0.618541,-8.00475 -1.873279,-9.43975 l 1.470334,-0.35048 -0.440355,-0.47329 0.610653,-0.20792 -0.212872,-0.42574 -0.916866,-0.24557 c 1.406164,-2.49049 1.878755,-5.57507 2.065205,-8.8555 0.18645,3.28043 0.659041,6.36501 2.065205,8.8555 l -0.916866,0.24557 -0.212872,0.42574 0.610653,0.20791 -0.440355,0.47329 1.470334,0.35048 c -1.254738,1.435 -1.750787,7.7783 -1.873279,9.43975 z"
         sodipodi:nodetypes="cccccccccccccccc" />
      <circle
         style="fill:#000000;stroke:none;stroke-width:0.988877;stop-color:#000000"
         id="circle4001"
         cx="-6.4658337"
         cy="432.66544"
         r="2.5890083" />
    </g>
    <g
       id="g3837"
       inkscape:transform-center-y="-2.8309226"
       transform="matrix(0.41072613,0,0,0.41072613,9.8550622,-170.50763)">
      <path
         id="path2545-4-1"
         style="fill:#000000;stroke:none;stroke-width:0.264583px;stroke-linecap:butt;stroke-linejoin:miter;stroke-opacity:1"
         d="m -7.1686535,435.13529 c -0.122492,-1.66145 -0.618541,-8.00475 -1.873279,-9.43975 l 1.470334,-0.35048 -0.440355,-0.47329 0.610653,-0.20792 -0.212872,-0.42574 -0.916866,-0.24557 c 1.406164,-2.49049 1.878755,-5.57507 2.065205,-8.8555 0.18645,3.28043 0.659041,6.36501 2.065205,8.8555 l -0.916866,0.24557 -0.212872,0.42574 0.610653,0.20791 -0.440355,0.47329 1.470334,0.35048 c -1.254738,1.435 -1.750787,7.7783 -1.873279,9.43975 z"
         sodipodi:nodetypes="cccccccccccccccc" />
      <circle
         style="fill:#000000;stroke:none;stroke-width:0.988877;stop-color:#000000"
         id="path3717"
         cx="-6.4658337"
         cy="432.66544"
         r="2.5890083" />
    </g>
    <path
       id="path4038-5"
       style="fill:#000000;stroke:none;stroke-width:0.108672px;stroke-linecap:butt;stroke-linejoin:miter;stroke-opacity:1"
       d="M 12.61093,6.4079526 12.239919,7.0756825 H 11.540348 A 0.71715879,0.71715879 0 0 0 10.842687,6.524689 0.71715879,0.71715879 0 0 0 10.145237,7.0756825 H 9.2724713 V 6.4327848 C 8.9170753,6.856527 8.414626,7.1288549 7.6649001,7.2416695 8.414626,7.354471 8.9170753,7.6270165 9.2724713,8.0507593 V 7.4078615 h 0.8727657 a 0.71715879,0.71715879 0 0 0 0.69745,0.550993 0.71715879,0.71715879 0 0 0 0.697448,-0.550993 h 0.699784 L 12.61093,8.0755909 C 12.6643,7.7092811 12.784276,7.3984061 13.22921,7.3584014 V 7.1251419 C 12.784276,7.0851387 12.664301,6.7742748 12.61093,6.4079526 Z" />
    <path
       id="path4038-5-1"
       style="fill:#000000;stroke:none;stroke-width:0.108672px;stroke-linecap:butt;stroke-linejoin:miter;stroke-opacity:1"
       d="M 8.0481796,12.624573 7.3804457,12.253564 V 11.553991 A 0.71715879,0.71715879 0 0 0 7.931443,10.856331 0.71715879,0.71715879 0 0 0 7.3804457,10.158881 V 9.2861161 H 8.0233471 C 7.5996051,8.9307187 7.3272731,8.4282694 7.2144631,7.6785418 7.1016613,8.4282694 6.8291158,8.9307187 6.4053738,9.2861161 H 7.048271 v 0.8727649 a 0.71715879,0.71715879 0 0 0 -0.5509932,0.69745 0.71715879,0.71715879 0 0 0 0.5509932,0.69745 v 0.699783 l -0.6677298,0.371009 c 0.3663102,0.05337 0.6771847,0.173347 0.7171853,0.618283 h 0.2332637 c 0.040004,-0.444936 0.350867,-0.564913 0.7171894,-0.618283 z" />
  </g>
</svg>
