<?xml version="1.0" encoding="UTF-8" standalone="no"?>
<!-- Created with Inkscape (http://www.inkscape.org/) -->

<svg
   xmlns:dc="http://purl.org/dc/elements/1.1/"
   xmlns:cc="http://creativecommons.org/ns#"
   xmlns:rdf="http://www.w3.org/1999/02/22-rdf-syntax-ns#"
   xmlns:svg="http://www.w3.org/2000/svg"
   xmlns="http://www.w3.org/2000/svg"
   xmlns:sodipodi="http://sodipodi.sourceforge.net/DTD/sodipodi-0.dtd"
   xmlns:inkscape="http://www.inkscape.org/namespaces/inkscape"
   width="25"
   height="25"
   viewBox="0 0 6.6145833 6.6145833"
   version="1.1"
   id="svg3490"
   inkscape:version="0.92.3 (2405546, 2018-03-11)"
   sodipodi:docname="flame2.svg"
   inkscape:export-filename="C:\Users\Narthan\Projects\vdna\assets\png\candles\flame2.png"
   inkscape:export-xdpi="96"
   inkscape:export-ydpi="96">
  <defs
     id="defs3484" />
  <sodipodi:namedview
     id="base"
     pagecolor="#ffffff"
     bordercolor="#666666"
     borderopacity="1.0"
     inkscape:pageopacity="0.0"
     inkscape:pageshadow="2"
     inkscape:zoom="16.169128"
     inkscape:cx="3.9819434"
     inkscape:cy="7.5834677"
     inkscape:document-units="mm"
     inkscape:current-layer="layer1"
     showgrid="false"
     units="px"
     inkscape:window-width="1920"
     inkscape:window-height="1017"
     inkscape:window-x="-8"
     inkscape:window-y="-8"
     inkscape:window-maximized="1" />
  <metadata
     id="metadata3487">
    <rdf:RDF>
      <cc:Work
         rdf:about="">
        <dc:format>image/svg+xml</dc:format>
        <dc:type
           rdf:resource="http://purl.org/dc/dcmitype/StillImage" />
        <dc:title></dc:title>
      </cc:Work>
    </rdf:RDF>
  </metadata>
  <g
     inkscape:label="Layer 1"
     inkscape:groupmode="layer"
     id="layer1"
     transform="translate(0,-290.38542)">
    <path
       sodipodi:type="star"
       style="opacity:1;vector-effect:none;fill:#58d400;fill-opacity:0.2639594;fill-rule:nonzero;stroke:none;stroke-width:0.00197594;stroke-linecap:butt;stroke-linejoin:miter;stroke-miterlimit:4;stroke-dasharray:none;stroke-dashoffset:0;stroke-opacity:1"
       id="path4195-6"
       sodipodi:sides="45"
       sodipodi:cx="3.3089983"
       sodipodi:cy="293.69443"
       sodipodi:r1="2.8021569"
       sodipodi:r2="2.4378767"
       sodipodi:arg1="0.78539816"
       sodipodi:arg2="0.85521133"
       inkscape:flatsided="false"
       inkscape:rounded="-0.01"
       inkscape:randomized="0"
       d="m 5.2904225,295.67585 c 0.00288,-0.003 -0.3851079,-0.13886 -0.3820331,-0.14153 0.00307,-0.003 0.083735,0.40046 0.086989,0.39801 0.00325,-0.002 -0.3620341,-0.19111 -0.3586173,-0.19333 0.00342,-0.002 0.027187,0.40822 0.03075,0.40625 0.00356,-0.002 -0.3319138,-0.23963 -0.3282214,-0.24136 0.00369,-0.002 -0.029891,0.40804 -0.026088,0.40658 0.0038,-0.001 -0.2953331,-0.2835 -0.2914371,-0.28469 0.0039,-0.001 -0.086388,0.3999 -0.082418,0.39899 0.00397,-9.2e-4 -0.2530041,-0.32184 -0.2489802,-0.32248 0.00402,-6.4e-4 -0.1412025,0.38399 -0.1371439,0.38363 0.00406,-3.5e-4 -0.2057507,-0.35392 -0.2016772,-0.35399 0.00407,-7e-5 -0.1932689,0.3606 -0.1892004,0.36081 0.00407,2.2e-4 -0.1544926,-0.3791 -0.1504489,-0.37861 0.00404,5e-4 -0.2415735,0.33019 -0.2375743,0.33097 0.004,7.8e-4 -0.1002274,-0.39692 -0.096292,-0.39586 0.00394,0.001 -0.2851762,0.29335 -0.2813241,0.29468 0.00385,0.001 -0.044011,-0.40701 -0.040261,-0.40542 0.00375,0.002 -0.3232283,0.25082 -0.3195983,0.25267 0.00363,0.002 0.013061,-0.40917 0.016553,-0.40707 0.00349,0.002 -0.3549891,0.20338 -0.3516518,0.20572 0.00334,0.002 0.06988,-0.40337 0.073046,-0.40081 0.00317,0.003 -0.3798405,0.15201 -0.3768609,0.15479 0.00298,0.003 0.1253378,-0.38972 0.1281163,-0.38674 0.00278,0.003 -0.3972987,0.0977 -0.3947348,0.10082 0.00256,0.003 0.1783565,-0.36848 0.1806933,-0.36514 0.00234,0.003 -0.40702394,0.0414 -0.40492564,0.0449 0.002098,0.003 0.22790364,-0.34008 0.22975324,-0.33645 0.00185,0.004 -0.40882687,-0.0156 -0.407235,-0.0119 0.001592,0.004 0.273015,-0.30505 0.2743413,-0.3012 0.00133,0.004 -0.40267244,-0.0724 -0.40161799,-0.0684 0.001054,0.004 0.31281233,-0.26408 0.3135897,-0.26008 7.7737e-4,0.004 -0.38868054,-0.12772 -0.38818403,-0.12368 4.965e-4,0.004 0.34652117,-0.21797 0.34673439,-0.2139 2.1322e-4,0.004 -0.36712336,-0.18057 -0.36719447,-0.1765 -7.11e-5,0.004 0.37348538,-0.16763 0.3731303,-0.16357 -3.5508e-4,0.004 -0.33842055,-0.2299 -0.33905788,-0.22588 -6.3733e-4,0.004 0.39318011,-0.11402 0.39226364,-0.11005 -9.1646e-4,0.004 -0.30313076,-0.27476 -0.30432191,-0.27086 -0.001191,0.004 0.40522205,-0.0582 0.40376205,-0.0544 -0.00146,0.004 -0.26194092,-0.31428 -0.2636627,-0.31059 -0.001722,0.004 0.4093768,-0.001 0.4074016,0.002 -0.00198,0.004 -0.21565259,-0.34767 -0.2178715,-0.34426 -0.002219,0.003 0.4055635,0.0558 0.4031116,0.059 -0.00245,0.003 -0.1651669,-0.37431 -0.1678397,-0.37123 -0.00267,0.003 0.3938563,0.11166 0.3909755,0.11454 -0.00288,0.003 -0.1114665,-0.39365 -0.1145412,-0.39098 -0.00307,0.003 0.3744832,0.16539 0.3712295,0.16784 -0.00325,0.002 -0.055596,-0.40533 -0.059013,-0.40311 -0.00342,0.002 0.3478212,0.2159 0.344258,0.21787 -0.00356,0.002 0.00136,-0.40912 -0.00234,-0.4074 -0.00369,0.002 0.3143893,0.2622 0.3105859,0.26366 -0.0038,0.001 0.058282,-0.40495 0.054385,-0.40376 -0.0039,0.001 0.2748382,0.30341 0.2708685,0.30432 -0.00397,9.2e-4 0.1140729,-0.3929 0.110049,-0.39226 -0.00402,6.4e-4 0.2299376,0.3387 0.225879,0.33906 -0.00406,3.5e-4 0.167644,-0.3732 0.1635706,-0.37313 -0.00407,7e-5 0.1805614,0.36741 0.1764929,0.36719 -0.00407,-2.1e-4 0.2179522,-0.34624 0.2139085,-0.34673 -0.00404,-5e-4 0.127671,0.38896 0.1236717,0.38818 -0.004,-7.8e-4 0.2640181,-0.31253 0.2600828,-0.31359 -0.00394,-0.001 0.072296,0.40295 0.068443,0.40162 -0.00385,-0.001 0.3049451,-0.27275 0.3011949,-0.27434 -0.00375,-0.002 0.015513,0.40908 0.011883,0.40723 -0.00363,-0.002 0.3399368,-0.22765 0.3364446,-0.22975 -0.00349,-0.002 -0.041571,0.40726 -0.044909,0.40493 -0.00334,-0.002 0.368312,-0.17813 0.3651458,-0.1807 -0.00317,-0.003 -0.097847,0.39752 -0.1008265,0.39474 -0.00298,-0.003 0.3895184,-0.12514 0.3867399,-0.12812 -0.00278,-0.003 -0.1522179,0.38003 -0.1547818,0.37686 -0.00256,-0.003 0.4031433,-0.0697 0.4008065,-0.073 -0.00234,-0.003 -0.2036261,0.35514 -0.2057244,0.35165 -0.0021,-0.003 0.4089215,-0.0129 0.4070719,-0.0166 -0.00185,-0.004 -0.2510709,0.32335 -0.2526627,0.3196 -0.00159,-0.004 0.4067405,0.0441 0.4054141,0.0403 -0.00133,-0.004 -0.2936289,0.28526 -0.2946834,0.28133 -0.00105,-0.004 0.3966427,0.10029 0.3958654,0.0963 -7.774e-4,-0.004 -0.3304718,0.24162 -0.3309683,0.23758 -4.965e-4,-0.004 0.3788247,0.15451 0.3786115,0.15044 -2.132e-4,-0.004 -0.3608824,0.19328 -0.3608113,0.1892 7.11e-5,-0.004 0.3536334,0.20574 0.3539885,0.20168 3.551e-4,-0.004 -0.3842688,0.14117 -0.3836315,0.13715 6.374e-4,-0.004 0.321559,0.25295 0.3224755,0.24898 9.164e-4,-0.004 -0.4001759,0.0863 -0.3989848,0.0824 0.00119,-0.004 0.2832258,0.29524 0.2846858,0.29144 0.00146,-0.004 -0.408294,0.0298 -0.4065722,0.0261 0.00172,-0.004 0.2393799,0.33178 0.241355,0.32822 0.00198,-0.004 -0.4084651,-0.0273 -0.4062462,-0.0307 0.00222,-0.003 0.1908747,0.36187 0.1933266,0.35862 0.00245,-0.003 -0.400686,-0.0839 -0.3980131,-0.087 0.00267,-0.003 0.1386544,0.38491 0.1415352,0.38203 z" />
  </g>
</svg>
