<?xml version="1.0" encoding="UTF-8" standalone="no"?>
<!-- Created with Inkscape (http://www.inkscape.org/) -->

<svg
   xmlns:dc="http://purl.org/dc/elements/1.1/"
   xmlns:cc="http://creativecommons.org/ns#"
   xmlns:rdf="http://www.w3.org/1999/02/22-rdf-syntax-ns#"
   xmlns:svg="http://www.w3.org/2000/svg"
   xmlns="http://www.w3.org/2000/svg"
   xmlns:sodipodi="http://sodipodi.sourceforge.net/DTD/sodipodi-0.dtd"
   xmlns:inkscape="http://www.inkscape.org/namespaces/inkscape"
   width="25"
   height="25"
   viewBox="0 0 6.6145833 6.6145833"
   version="1.1"
   id="svg3490"
   inkscape:version="0.92.3 (2405546, 2018-03-11)"
   sodipodi:docname="flame1v.svg"
   inkscape:export-filename="C:\Users\Narthan\Projects\vdna\assets\png\flame\flame3.png"
   inkscape:export-xdpi="96"
   inkscape:export-ydpi="96">
  <defs
     id="defs3484" />
  <sodipodi:namedview
     id="base"
     pagecolor="#ffffff"
     bordercolor="#666666"
     borderopacity="1.0"
     inkscape:pageopacity="0.0"
     inkscape:pageshadow="2"
     inkscape:zoom="33.011874"
     inkscape:cx="16.496235"
     inkscape:cy="8.4717424"
     inkscape:document-units="mm"
     inkscape:current-layer="layer1"
     showgrid="false"
     units="px"
     inkscape:window-width="1920"
     inkscape:window-height="1017"
     inkscape:window-x="-8"
     inkscape:window-y="-8"
     inkscape:window-maximized="1" />
  <metadata
     id="metadata3487">
    <rdf:RDF>
      <cc:Work
         rdf:about="">
        <dc:format>image/svg+xml</dc:format>
        <dc:type
           rdf:resource="http://purl.org/dc/dcmitype/StillImage" />
        <dc:title />
      </cc:Work>
    </rdf:RDF>
  </metadata>
  <g
     inkscape:label="Layer 1"
     inkscape:groupmode="layer"
     id="layer1"
     transform="translate(0,-290.38542)">
    <path
       sodipodi:type="star"
       style="opacity:1;vector-effect:none;fill:#e580ff;fill-opacity:0.26395938;fill-rule:nonzero;stroke:none;stroke-width:0.00233391;stroke-linecap:butt;stroke-linejoin:miter;stroke-miterlimit:4;stroke-dasharray:none;stroke-dashoffset:0;stroke-opacity:1"
       id="path4195"
       sodipodi:sides="45"
       sodipodi:cx="3.3093075"
       sodipodi:cy="293.69473"
       sodipodi:r1="3.3098116"
       sodipodi:r2="2.8795362"
       sodipodi:arg1="0.78539816"
       sodipodi:arg2="0.85521133"
       inkscape:flatsided="false"
       inkscape:rounded="-0.01"
       inkscape:randomized="0"
       d="m 5.6496978,296.03512 c 0.0034,-0.003 -0.4548763,-0.16402 -0.4512445,-0.16717 0.00363,-0.003 0.098905,0.47301 0.1027486,0.47012 0.00384,-0.003 -0.4276223,-0.22573 -0.4235865,-0.22836 0.00404,-0.003 0.032112,0.48218 0.036321,0.47985 0.00421,-0.002 -0.3920453,-0.28305 -0.387684,-0.28508 0.00436,-0.002 -0.035307,0.48195 -0.030814,0.48023 0.00449,-0.002 -0.3488374,-0.33486 -0.3442355,-0.33626 0.0046,-0.001 -0.1020381,0.47235 -0.097349,0.47126 0.00469,-0.001 -0.2988398,-0.38014 -0.2940869,-0.38089 0.00475,-7.6e-4 -0.1667835,0.45355 -0.1619896,0.45313 0.00479,-4.2e-4 -0.2430257,-0.41804 -0.2382143,-0.41812 0.00481,-8e-5 -0.2282825,0.42593 -0.223477,0.42618 0.00481,2.5e-4 -0.1824813,-0.44779 -0.177705,-0.4472 0.00478,5.8e-4 -0.2853384,0.39001 -0.2806146,0.39092 0.00472,9.2e-4 -0.1183852,-0.46882 -0.113737,-0.46758 0.00465,0.001 -0.3368405,0.3465 -0.3322905,0.34807 0.00455,0.002 -0.051985,-0.48074 -0.047555,-0.47886 0.00443,0.002 -0.3817863,0.29625 -0.3774986,0.29844 0.00429,0.002 0.015427,-0.4833 0.019552,-0.48082 0.00412,0.002 -0.4193011,0.24023 -0.4153592,0.24299 0.00394,0.003 0.082539,-0.47645 0.086279,-0.47342 0.00374,0.003 -0.4486547,0.17954 -0.4451353,0.18283 0.00352,0.003 0.1480448,-0.46033 0.1513267,-0.45681 0.00328,0.004 -0.46927573,0.11535 -0.46624733,0.11909 0.003028,0.004 0.21066864,-0.43524 0.21342879,-0.43129 0.00276,0.004 -0.4807628,0.0489 -0.47828435,0.053 0.002478,0.004 0.26919209,-0.40168 0.27137677,-0.3974 0.002185,0.004 -0.4828924,-0.0185 -0.48101213,-0.014 0.00188,0.004 0.32247602,-0.36031 0.32404271,-0.35576 0.001567,0.005 -0.47562306,-0.0855 -0.47437758,-0.0808 0.001245,0.005 0.36948333,-0.31192 0.37040153,-0.3072 9.1821e-4,0.005 -0.45909625,-0.15085 -0.45850979,-0.14607 5.8645e-4,0.005 0.40929906,-0.25747 0.40955091,-0.25266 C 0.43396958,293.85024 8.4067171e-5,293.63216 8.3264438e-8,293.63697 -8.3900643e-5,293.64178 0.44114834,293.43897 0.44072893,293.44376 c -4.1941e-4,0.005 -0.39973089,-0.27155 -0.40048368,-0.2668 -7.5278e-4,0.005 0.464411,-0.13467 0.4633285,-0.12998 -0.001083,0.005 -0.3580478,-0.32454 -0.35945474,-0.31994 -0.001407,0.005 0.4786345,-0.0687 0.47690997,-0.0642 -0.001725,0.004 -0.30939572,-0.37122 -0.31142943,-0.36685 -0.002034,0.004 0.48354194,-0.001 0.48120895,0.003 -0.002333,0.004 -0.2547216,-0.41067 -0.2573425,-0.40663 -0.002621,0.004 0.4790378,0.0659 0.4761417,0.0697 -0.0029,0.004 -0.19508958,-0.44211 -0.19824665,-0.43848 -0.003157,0.004 0.46520965,0.13189 0.46180695,0.13529 -0.0034,0.003 -0.1316604,-0.46496 -0.1352922,-0.4618 -0.00363,0.003 0.4423268,0.19535 0.4384837,0.19824 -0.00384,0.003 -0.065669,-0.47876 -0.069704,-0.47614 -0.00404,0.003 0.4108346,0.25501 0.4066257,0.25734 -0.00421,0.002 0.0016,-0.48324 -0.00276,-0.48121 -0.00436,0.002 0.3713459,0.30971 0.3668534,0.31143 -0.00449,0.002 0.06884,-0.47831 0.064238,-0.47691 -0.0046,0.001 0.3246294,0.35838 0.3199406,0.35946 -0.00469,0.001 0.134739,-0.46408 0.1299861,-0.46333 -0.00475,7.5e-4 0.2715943,0.40006 0.2668005,0.40048 -0.00479,4.2e-4 0.1980153,-0.44081 0.1932039,-0.44072 -0.00481,8e-5 0.213273,0.43396 0.2084674,0.43371 -0.00481,-2.5e-4 0.2574376,-0.40896 0.2526613,-0.40955 -0.00478,-5.8e-4 0.1508006,0.45943 0.1460769,0.45851 -0.00472,-9.2e-4 0.311849,-0.36915 0.3072008,-0.3704 -0.00465,-0.001 0.085393,0.47594 0.080843,0.47438 -0.00455,-0.002 0.3601908,-0.32216 0.3557612,-0.32404 -0.00443,-0.002 0.018323,0.48319 0.014036,0.48101 -0.00429,-0.002 0.4015218,-0.2689 0.397397,-0.27138 -0.00412,-0.002 -0.049103,0.48104 -0.053045,0.47828 -0.00394,-0.003 0.4350375,-0.2104 0.4312978,-0.21342 -0.00374,-0.003 -0.1155736,0.46953 -0.119093,0.46624 -0.00352,-0.003 0.4600859,-0.1478 0.456804,-0.15132 -0.00328,-0.004 -0.1797946,0.44887 -0.182823,0.44513 -0.00303,-0.004 0.4761791,-0.0823 0.473419,-0.0863 -0.00276,-0.004 -0.2405162,0.41949 -0.2429947,0.41536 -0.00248,-0.004 0.4830042,-0.0153 0.4808195,-0.0195 -0.00218,-0.004 -0.2965565,0.38193 -0.2984367,0.3775 -0.00188,-0.004 0.480428,0.0521 0.4788613,0.0476 -0.00157,-0.005 -0.3468245,0.33694 -0.34807,0.33229 -0.00125,-0.005 0.4685009,0.11846 0.4675827,0.11374 -9.182e-4,-0.005 -0.390342,0.28539 -0.3909285,0.28062 -5.865e-4,-0.005 0.4474549,0.18251 0.4472031,0.1777 -2.519e-4,-0.005 -0.426262,0.22829 -0.426178,0.22348 8.39e-5,-0.005 0.4176997,0.24301 0.4181191,0.23821 4.194e-4,-0.005 -0.4538852,0.16674 -0.4531324,0.16199 7.527e-4,-0.005 0.3798145,0.29878 0.380897,0.29409 0.00108,-0.005 -0.4726741,0.10195 -0.4712672,0.0974 0.00141,-0.005 0.3345367,0.34873 0.3362612,0.34423 0.00172,-0.004 -0.482263,0.0352 -0.4802293,0.0308 0.00203,-0.004 0.2827474,0.39189 0.2850804,0.38768 0.00233,-0.004 -0.4824651,-0.0323 -0.4798442,-0.0363 0.00262,-0.004 0.2254548,0.42743 0.2283509,0.42359 0.0029,-0.004 -0.4732767,-0.0991 -0.4701196,-0.10275 0.00316,-0.004 0.163774,0.45465 0.1671767,0.45124 z"
       inkscape:export-filename="C:\Users\Narthan\Projects\vdna\assets\png\candles\flame1v.png"
       inkscape:export-xdpi="96"
       inkscape:export-ydpi="96" />
  </g>
</svg>
