<?xml version="1.0" encoding="UTF-8" standalone="no"?>
<!-- Created with Inkscape (http://www.inkscape.org/) -->

<svg
   xmlns:dc="http://purl.org/dc/elements/1.1/"
   xmlns:cc="http://creativecommons.org/ns#"
   xmlns:rdf="http://www.w3.org/1999/02/22-rdf-syntax-ns#"
   xmlns:svg="http://www.w3.org/2000/svg"
   xmlns="http://www.w3.org/2000/svg"
   xmlns:sodipodi="http://sodipodi.sourceforge.net/DTD/sodipodi-0.dtd"
   xmlns:inkscape="http://www.inkscape.org/namespaces/inkscape"
   width="274"
   height="40"
   id="svg2"
   version="1.1"
   inkscape:version="0.48.2 r9819"
   sodipodi:docname="The Church Slavonic name of the Glagolitic script on Glagolitic.svg">
  <defs
     id="defs4" />
  <sodipodi:namedview
     id="base"
     pagecolor="#ffffff"
     bordercolor="#666666"
     borderopacity="1.0"
     inkscape:pageopacity="0.0"
     inkscape:pageshadow="2"
     inkscape:zoom="3.3420276"
     inkscape:cx="178.99925"
     inkscape:cy="14.686091"
     inkscape:document-units="px"
     inkscape:current-layer="layer1"
     showgrid="false"
     inkscape:window-width="1366"
     inkscape:window-height="706"
     inkscape:window-x="-8"
     inkscape:window-y="-8"
     inkscape:window-maximized="1" />
  <metadata
     id="metadata7">
    <rdf:RDF>
      <cc:Work
         rdf:about="">
        <dc:format>image/svg+xml</dc:format>
        <dc:type
           rdf:resource="http://purl.org/dc/dcmitype/StillImage" />
        <dc:title></dc:title>
      </cc:Work>
    </rdf:RDF>
  </metadata>
  <g
     inkscape:label="Layer 1"
     inkscape:groupmode="layer"
     id="layer1"
     transform="translate(0,-1012.3622)">
    <text
       xml:space="preserve"
       style="font-size:48px;font-style:normal;font-weight:normal;line-height:125%;letter-spacing:0px;word-spacing:0px;fill:#000000;fill-opacity:1;stroke:none;font-family:Sans"
       x="0.39825609"
       y="1048.3796"
       id="text3000"
       sodipodi:linespacing="125%"><tspan
         sodipodi:role="line"
         id="tspan3002"
         x="0.39825609"
         y="1048.3796"
         style="font-style:normal;font-variant:normal;font-weight:normal;font-stretch:normal;font-family:OsGlagoljicaOblaV;-inkscape-font-specification:OsGlagoljicaOblaV" /></text>
    <g
       id="g3042"
       transform="translate(1.7953173,-0.89765866)">
      <path
         transform="translate(0,1012.3622)"
         inkscape:connector-curvature="0"
         id="path3004"
         d="M 10.897487,36.633518 C 8.2588131,36.301895 6.2100434,35.115947 5.0896691,33.271612 4.9437477,33.031399 4.7180351,32.522018 4.5880855,32.139654 4.3758165,31.515073 4.3484609,31.33603 4.3188124,30.377251 4.2525594,28.234742 4.8194139,26.654894 6.1423018,25.295109 7.737332,23.655591 10.187235,22.882719 12.91149,23.159632 c 1.245866,0.126639 2.185829,0.489136 3.048088,1.175494 0.157366,0.125263 0.294506,0.227751 0.304756,0.227751 0.06294,0 0.96166,-1.402791 1.273126,-1.987191 0.606329,-1.137648 0.928647,-2.293717 1.313276,-4.710379 0.121612,-0.764108 0.134709,-1.370285 0.134709,-6.23492 0,-5.073251 -0.0077,-5.3962132 -0.131327,-5.5199751 -0.119336,-0.1194508 -0.336053,-0.1334117 -2.373589,-0.1529067 -1.458847,-0.013958 -2.242263,0.00424 -2.242263,0.052085 0,0.040446 0.277367,0.3481791 0.616371,0.6838508 0.517732,0.5126428 0.671048,0.7231561 0.958032,1.3154442 0.4269,0.8810506 0.557083,1.4857732 0.55871,2.5952918 0.0023,1.582632 -0.33242,2.75725 -1.138062,3.99352 -0.980944,1.505271 -2.430936,2.551946 -4.233437,3.055901 -0.555984,0.155446 -0.773012,0.174481 -1.950391,0.171066 C 7.8843391,17.821286 7.625161,17.797435 6.8987216,17.626753 4.7867103,17.130522 3.3354758,16.016372 2.5034511,14.25239 2.2031467,13.615713 2.0509827,13.065284 1.9478056,12.24243 1.6470346,9.8437349 2.2514918,7.8669759 3.7503123,6.347684 4.7328299,5.3517469 5.8259133,4.77462 7.2978329,4.4746619 8.0332835,4.3247866 8.2011776,4.3229663 21.288866,4.3229663 c 14.508163,0 13.743881,-0.021941 15.024779,0.4313322 2.125278,0.7520762 3.761655,2.5927649 4.201926,4.7265651 0.176139,0.8536704 0.190067,2.1780034 0.03309,3.1459444 -0.339582,2.093854 -1.672184,3.783947 -3.634929,4.610055 -1.546307,0.650832 -3.980737,0.818948 -5.489938,0.379122 -2.004594,-0.584197 -3.61943,-1.925916 -4.527618,-3.761861 -0.528729,-1.068852 -0.684745,-1.790616 -0.692052,-3.201586 -0.0068,-1.3049882 0.05896,-1.6555772 0.481382,-2.5682768 0.34954,-0.7552194 0.684079,-1.2042133 1.209823,-1.623734 0.220264,-0.1757609 0.400479,-0.3656702 0.400479,-0.4220205 0,-0.085775 -0.366448,-0.098962 -2.2508,-0.081002 -2.077739,0.019804 -2.258329,0.031757 -2.348712,0.1554607 -0.168961,0.2312511 -0.199001,1.3463654 -0.165907,6.1587656 0.03007,4.371986 0.04264,4.740072 0.194881,5.703974 0.203508,1.288502 0.478061,2.578013 0.681657,3.201586 0.293413,0.898664 1.2533,2.639902 1.771579,3.21365 l 0.143866,0.159264 0.379521,-0.290802 c 0.581621,-0.445658 1.482666,-0.862724 2.126995,-0.984521 2.404188,-0.454462 5.007114,0.02867 6.713073,1.246017 1.262383,0.900818 2.247792,2.418424 2.583995,3.979561 0.188239,0.874075 0.170938,2.463723 -0.03525,3.238385 -0.667651,2.508458 -2.680612,4.174874 -5.792993,4.795689 -0.903067,0.180132 -3.144059,0.18691 -3.928504,0.01188 -2.56313,-0.571892 -4.300287,-2.197937 -4.939511,-4.623572 -0.225177,-0.854471 -0.225939,-2.203259 -0.0017,-3.054387 0.177841,-0.675097 0.819254,-2.01934 1.245436,-2.610129 L 24.9635,25.856191 24.481101,25.264734 C 23.36551,23.896932 22.12685,21.709133 21.59397,20.165296 c -0.129243,-0.374438 -0.273997,-0.680797 -0.321675,-0.680797 -0.04768,0 -0.163727,0.240119 -0.257888,0.533598 -0.47705,1.486859 -1.730126,3.737503 -2.870155,5.155074 -0.286221,0.355902 -0.520401,0.666103 -0.520401,0.689336 0,0.02323 0.112264,0.19572 0.249475,0.383302 0.423005,0.578293 0.98348,1.70688 1.192798,2.40185 0.173654,0.576562 0.20035,0.795918 0.206011,1.692792 0.0086,1.361059 -0.213018,2.202634 -0.884157,3.357635 -0.333568,0.574054 -1.38594,1.632235 -1.955077,1.965868 -0.635505,0.372538 -1.507006,0.725046 -2.121035,0.857922 -0.647532,0.140126 -2.663295,0.206037 -3.414379,0.111642 z m 2.654656,-1.918609 c 1.686232,-0.229401 3.08356,-1.615506 3.346717,-3.319836 0.198017,-1.28244 -0.207682,-2.486853 -1.151853,-3.419547 -0.877125,-0.866464 -1.733259,-1.181213 -3.029051,-1.113599 -1.083797,0.05655 -1.749185,0.351619 -2.53669,1.124897 -0.7412351,0.727844 -1.0925639,1.51532 -1.1485695,2.574427 -0.077386,1.463428 0.5544064,2.762797 1.7193195,3.536023 0.640055,0.424845 1.110817,0.57605 2.13773,0.686625 0.04767,0.0051 0.34575,-0.02591 0.662397,-0.06899 l 0,0 z M 30.80125,34.569722 c 1.199718,-0.347377 2.290944,-1.471642 2.607309,-2.68625 0.139512,-0.535623 0.144916,-1.636728 0.01051,-2.141504 -0.159965,-0.600768 -0.561075,-1.279276 -1.038493,-1.756695 -0.763959,-0.763959 -1.68783,-1.140806 -2.796777,-1.140806 -1.126917,0 -2.032224,0.376232 -2.833587,1.177595 -0.779062,0.779062 -1.101636,1.60001 -1.103122,2.807434 -0.0011,0.858839 0.164447,1.460881 0.575169,2.092253 1.003329,1.542339 2.760149,2.174617 4.578992,1.647973 l 0,0 z M 11.434628,13.703997 c 1.147393,-0.27046 2.161229,-1.147698 2.639233,-2.283639 0.210663,-0.500625 0.310857,-1.368057 0.234849,-2.0332219 C 14.203864,8.4696039 13.93012,7.8669821 13.317675,7.2054683 12.568064,6.3957999 11.794688,6.034026 10.668682,5.9663101 9.4704909,5.8942531 8.5243947,6.2304594 7.677696,7.029192 c -2.2089422,2.0838042 -1.2695209,5.888833 1.6478411,6.674411 0.5127211,0.138063 1.5242429,0.138252 2.1090909,3.68e-4 l 0,2.6e-5 z m 21.745909,0.0023 C 34.661656,13.320562 35.776941,12.115909 36.02733,10.631434 36.190262,9.6654602 36.006473,8.5991198 35.5398,7.8028025 35.297446,7.3892575 34.650271,6.7420827 34.236726,6.4997292 33.395433,6.0066985 32.166261,5.8207855 31.22139,6.0436576 c -1.427907,0.3368085 -2.519878,1.4012283 -2.888206,2.8153345 -0.130618,0.5014773 -0.144325,1.4056009 -0.02965,1.9555229 0.274881,1.318142 1.421334,2.531618 2.709478,2.867881 0.606571,0.158342 1.609027,0.169418 2.167521,0.02395 l 0,0 z"
         style="fill:#000000;fill-opacity:1;stroke:#000000;stroke-width:0.30661625;stroke-linecap:round;stroke-linejoin:round;stroke-miterlimit:4;stroke-opacity:1;stroke-dasharray:none;stroke-dashoffset:0" />
      <path
         transform="translate(0,1012.3622)"
         inkscape:connector-curvature="0"
         id="path3006"
         d="m 53.893771,35.85517 c -0.103695,-0.103695 -0.115657,-0.926614 -0.115657,-7.956726 l 0,-7.841069 -2.18959,0.0278 c -2.001344,0.02541 -2.214901,0.04033 -2.483989,0.17356 -0.521934,0.258423 -0.510607,0.174258 -0.554454,4.120147 -0.02159,1.943031 -0.06537,3.587712 -0.09729,3.654845 -0.129105,0.271552 -0.462279,0.319537 -2.218645,0.319537 -1.834895,0 -1.976988,-0.02656 -2.078322,-0.388522 -0.03084,-0.110152 -0.05607,-2.154347 -0.05607,-4.542656 0,-4.898551 -0.01758,-4.737437 0.533716,-4.890541 0.177037,-0.04917 1.864647,-0.07676 4.710261,-0.07703 l 4.43438,-4.11e-4 0,-6.949912 c 0,-6.2199694 0.01215,-6.9620598 0.115657,-7.0655691 0.09953,-0.099527 0.394627,-0.1154995 2.115991,-0.1145296 1.102638,6.212e-4 2.048846,0.031808 2.108434,0.069494 0.187272,0.1184388 0.212449,1.0012201 0.217862,7.6389447 l 0.0052,6.421572 4.397581,4.42e-4 c 2.82835,2.94e-4 4.496316,0.02783 4.674275,0.07725 0.558367,0.155065 0.532902,-0.08276 0.532902,4.977035 l 0,4.509172 -0.167608,0.167644 c -0.164799,0.164835 -0.196252,0.167644 -1.876792,0.167644 -0.940051,0 -1.799844,-0.02536 -1.910652,-0.05637 -0.110807,-0.031 -0.259846,-0.145427 -0.331198,-0.254277 -0.11804,-0.180073 -0.133047,-0.519887 -0.166531,-3.770815 -0.02868,-2.784223 -0.05841,-3.610836 -0.134723,-3.744736 -0.208682,-0.366181 -0.464509,-0.4059 -2.827664,-0.439011 l -2.18959,-0.03068 -0.0052,7.312729 c -0.0029,4.022001 -0.02875,7.571254 -0.0575,7.887231 -0.03449,0.379163 -0.08902,0.597749 -0.160362,0.64287 -0.05959,0.03769 -1.005796,0.06887 -2.108435,0.0695 -1.721364,9.71e-4 -2.016464,-0.015 -2.11599,-0.11453 l -4e-6,-3.1e-5 z"
         style="fill:#000000;fill-opacity:1;stroke:#000000;stroke-width:0.30661625;stroke-linecap:round;stroke-linejoin:round;stroke-miterlimit:4;stroke-opacity:1;stroke-dasharray:none;stroke-dashoffset:0" />
      <path
         transform="translate(0,1012.3622)"
         inkscape:connector-curvature="0"
         id="path3008"
         d="m 83.090111,26.615166 c -0.152191,-0.04396 -0.28514,-0.15457 -0.367999,-0.306161 -0.118986,-0.217687 -0.132771,-0.632346 -0.166525,-5.0089 -0.0356,-4.615919 -0.04146,-4.77497 -0.179666,-4.875978 -0.119001,-0.08697 -0.780226,-0.104414 -3.958346,-0.104414 -4.262152,0 -4.240229,0.0023 -4.438999,-0.473385 -0.09137,-0.218668 -0.10775,-1.101005 -0.10775,-5.802303 0,-4.2141934 0.02119,-5.5656093 0.08832,-5.6327391 0.06444,-0.064438 0.639133,-0.08832 2.125379,-0.08832 1.804705,0 2.048581,0.013877 2.138071,0.121659 0.08282,0.099756 0.105392,1.0018667 0.125345,5.010712 0.02342,4.7049841 0.02965,4.8943711 0.165599,5.0303191 0.135629,0.135628 0.292451,0.141265 3.930159,0.141265 3.278992,0 3.827947,0.01563 4.079074,0.116107 0.539939,0.216041 0.522449,0.01828 0.521985,5.902156 -2.95e-4,3.34081 -0.02754,5.303361 -0.07614,5.478338 -0.04165,0.149959 -0.16185,0.340398 -0.267113,0.423198 -0.180061,0.141635 -0.285566,0.150155 -1.782258,0.14391 -0.874977,-0.0037 -1.69809,-0.03761 -1.82914,-0.07546 z"
         style="fill:#000000;fill-opacity:1;stroke:#000000;stroke-width:0.30661625;stroke-linecap:round;stroke-linejoin:round;stroke-miterlimit:4;stroke-opacity:1;stroke-dasharray:none;stroke-dashoffset:0" />
      <path
         transform="translate(0,1012.3622)"
         inkscape:connector-curvature="0"
         id="path3012"
         d="m 98.573436,36.628397 c -2.38094,-0.329707 -4.449283,-1.514204 -5.212524,-2.985103 -0.363367,-0.700272 -0.458071,-1.162507 -0.40149,-1.959618 0.08194,-1.154438 0.537808,-2.250021 1.368672,-3.289345 0.469274,-0.587012 0.616833,-0.694925 0.865046,-0.632627 0.346805,0.08704 0.586263,0.440293 0.829768,1.224084 0.64739,2.08381 1.546472,3.495116 2.861298,4.491432 0.769657,0.583212 1.117144,0.685655 2.334444,0.688226 l 1.03595,0.0022 0.62005,-0.307579 c 1.01211,-0.502065 2.12097,-1.566184 3.01567,-2.894006 0.59472,-0.882617 1.02873,-2.083355 1.39666,-3.863983 0.17353,-0.839803 0.51293,-3.065131 0.51315,-3.364552 l 1.5e-4,-0.199766 -3.64916,-0.02103 c -4.236637,-0.02442 -3.85875,0.06014 -3.85688,-0.863097 5.8e-4,-0.305982 0.0325,-0.60601 0.0709,-0.66673 0.0602,-0.09533 0.58129,-0.113176 3.81724,-0.130736 l 3.74749,-0.02034 0.0456,-0.228062 c 0.0593,-0.296433 0.0593,-2.698881 0,-2.995313 l -0.0456,-0.228062 -3.74749,-0.02034 c -3.23595,-0.01756 -3.75701,-0.0354 -3.81724,-0.130734 -0.0906,-0.143447 -0.0907,-1.254922 -1e-5,-1.398394 0.0602,-0.09524 0.57546,-0.113448 3.75245,-0.132601 3.40709,-0.02054 3.68269,-0.03156 3.68232,-0.147199 -9.2e-4,-0.286445 -0.31994,-2.273448 -0.55182,-3.436984 -0.5263,-2.640791 -1.16386,-3.9094016 -2.76361,-5.4989596 -1.1925,-1.1849041 -2.00396,-1.5665472 -3.30814,-1.5558748 -1.307383,0.010699 -2.047579,0.3725295 -3.173232,1.5511743 -0.846056,0.8858845 -1.417449,1.9449465 -1.976648,3.6636691 -0.27286,0.838646 -0.570421,1.232794 -0.930694,1.232794 -0.234358,0 -0.650225,-0.41218 -1.130385,-1.120366 -0.720032,-1.061969 -0.991465,-1.9094778 -0.990671,-3.0932153 6.59e-4,-0.9826914 0.113033,-1.3382081 0.669463,-2.1179749 0.71685,-1.0045755 2.141895,-1.8680364 3.817631,-2.3131728 0.867349,-0.2303995 0.907066,-0.2340276 2.573736,-0.235107 1.83069,-0.00119 2.44079,0.081658 3.7509,0.5093228 2.37107,0.7739957 4.67517,2.6617309 6.1553,5.0430062 2.53383,4.076501 3.42786,10.210025 2.30611,15.821052 -1.27712,6.388199 -4.93504,10.593015 -10.02185,11.520219 -0.771,0.140535 -2.941534,0.202161 -3.652534,0.103703 l 0,0 z"
         style="fill:#000000;fill-opacity:1;stroke:#000000;stroke-width:0.30661625;stroke-linecap:round;stroke-linejoin:round;stroke-miterlimit:4;stroke-opacity:1;stroke-dasharray:none;stroke-dashoffset:0" />
      <path
         transform="translate(0,1012.3622)"
         inkscape:connector-curvature="0"
         id="path3014"
         d="m 123.25029,36.633701 c -3.18057,-0.400878 -5.48117,-2.031298 -6.30111,-4.465558 -0.2202,-0.653728 -0.247,-0.826875 -0.27717,-1.790892 -0.0252,-0.806732 -0.003,-1.228419 0.0907,-1.72778 0.5729,-3.048804 2.9506,-5.091134 6.39308,-5.491343 2.43893,-0.28354 4.39106,0.495167 5.71684,2.280445 0.3933,0.52962 0.61181,0.598246 0.55116,0.173099 -0.0825,-0.578591 -0.62302,-5.631565 -0.73017,-6.82637 -0.32338,-3.606116 -0.38087,-6.101987 -0.16872,-7.324042 0.33548,-1.9324075 0.96556,-3.3529266 2.05425,-4.631382 1.0818,-1.2703609 2.63619,-2.2403812 4.41616,-2.755915 1.06572,-0.3086641 2.08853,-0.431122 3.59247,-0.4301128 2.18278,0.00146 3.50966,0.2669066 5.06904,1.0140619 1.00702,0.4824976 1.62058,0.9055989 2.38923,1.6475642 0.71833,0.6934016 1.20451,1.3435743 1.63432,2.1855908 1.31236,2.5709269 1.37308,5.2892109 0.32531,14.5630169 -0.16007,1.416793 -0.29115,2.633948 -0.29129,2.704788 -5.1e-4,0.268221 0.22131,0.107574 0.71566,-0.518276 0.79548,-1.007075 1.83254,-1.68923 3.00291,-1.97525 0.71488,-0.174706 2.42181,-0.175547 3.2992,-0.0016 2.47185,0.489984 4.2663,1.841951 5.21141,3.926357 0.46414,1.023625 0.69036,2.765255 0.5096,3.92317 -0.10979,0.703257 -0.43443,1.648558 -0.7522,2.190299 -0.36908,0.629232 -1.52937,1.752833 -2.23487,2.164215 -1.55826,0.90863 -3.36537,1.306578 -5.51998,1.215567 -3.70539,-0.156515 -5.61256,-1.74521 -6.51078,-5.42356 -0.46426,-1.901223 -0.54917,-2.936042 -1.03256,-12.584864 -0.25143,-5.018788 -0.30996,-5.740335 -0.56385,-6.951314 -0.48445,-2.3106972 -1.34291,-4.0928203 -2.54828,-5.2901192 -0.82329,-0.8177665 -1.5996,-1.1537077 -2.66607,-1.1537077 -1.06949,0 -1.85622,0.3392844 -2.71162,1.1694122 -1.30417,1.2656322 -2.16567,3.0591753 -2.65537,5.5281587 -0.19483,0.982298 -0.28724,2.014936 -0.41165,4.599979 -0.5353,11.122923 -0.66725,12.740074 -1.21314,14.867135 -0.44215,1.722803 -1.00233,2.77919 -1.93659,3.651974 -0.81351,0.759977 -1.58453,1.140435 -2.88437,1.42328 -0.6486,0.141134 -2.79996,0.209996 -3.56158,0.114 z m 3.19358,-2.035898 c 1.43863,-0.39814 2.58354,-1.71107 2.80552,-3.217237 0.1906,-1.293279 -0.20653,-2.474638 -1.14146,-3.395512 -0.82368,-0.811306 -1.64064,-1.140587 -2.82982,-1.140587 -1.42151,0 -2.63548,0.708463 -3.41062,1.990409 -0.63249,1.046024 -0.67337,2.553218 -0.10072,3.713566 0.8655,1.75377 2.75445,2.581452 4.6771,2.049361 z m 26.49588,0 c 1.43863,-0.39814 2.58354,-1.71107 2.80552,-3.217237 0.1906,-1.293279 -0.20653,-2.474638 -1.14146,-3.395512 -0.82368,-0.811306 -1.64063,-1.140587 -2.82981,-1.140587 -1.42151,0 -2.63548,0.708463 -3.41062,1.990409 -0.64163,1.061144 -0.6652,2.678121 -0.0557,3.821659 0.89384,1.677012 2.76037,2.459261 4.63207,1.941268 z"
         style="fill:#000000;fill-opacity:1;stroke:#000000;stroke-width:0.30661625;stroke-linecap:round;stroke-linejoin:round;stroke-miterlimit:4;stroke-opacity:1;stroke-dasharray:none;stroke-dashoffset:0" />
      <path
         transform="translate(0,1012.3622)"
         inkscape:connector-curvature="0"
         id="path3016"
         d="m 170.86751,36.625377 c -1.5268,-0.222684 -2.95529,-0.921538 -4.00124,-1.95751 -0.57285,-0.567381 -0.857,-0.960233 -1.22523,-1.693956 -0.58799,-1.171618 -0.82,-2.640875 -0.63665,-4.031853 0.12972,-0.984185 0.27035,-1.46947 0.6505,-2.24479 0.28298,-0.57716 0.45253,-0.809658 0.97141,-1.332068 0.7322,-0.737187 1.37834,-1.142801 2.3217,-1.45743 1.37251,-0.457758 3.28175,-0.635555 4.51193,-0.42017 1.34156,0.234886 2.60195,0.883944 3.63724,1.873053 1.00827,0.963288 1.64906,2.122789 1.88697,3.414424 0.0654,0.354959 0.15446,0.645379 0.19795,0.645379 0.15396,0 0.61357,-1.166615 1.09548,-2.780654 0.58813,-1.969763 0.74046,-3.305454 0.74046,-6.492906 0,-3.482462 -0.1835,-4.836531 -0.98371,-7.259118 -0.50901,-1.540991 -0.70539,-2.014533 -0.83527,-2.014194 -0.0607,1.47e-4 -0.1419,0.244176 -0.22655,0.680797 -0.39306,2.027464 -1.83651,3.808748 -3.83441,4.731837 -0.92377,0.426807 -1.68182,0.576078 -2.91523,0.57405 -2.96069,-0.0049 -5.07579,-0.925555 -6.25686,-2.723562 -0.72164,-1.098594 -0.99051,-2.134683 -0.99012,-3.815366 2.1e-4,-0.9157186 0.0286,-1.2086348 0.16659,-1.7175684 0.70455,-2.5988799 2.70319,-4.3824364 5.50209,-4.9099703 0.52638,-0.099213 0.9238,-0.1162424 1.9831,-0.084978 1.49937,0.044253 2.29384,0.1687947 3.44046,0.5393285 1.54969,0.5007907 2.63659,1.1709229 3.97605,2.4514554 2.83046,2.7059457 4.66901,6.3236788 5.28714,10.4036098 0.29827,1.968671 0.26531,4.776843 -0.0793,6.756883 -0.56284,3.233987 -2.00517,6.320041 -4.08027,8.730266 -2.2559,2.620225 -4.38601,3.796651 -7.49239,4.137937 -0.82475,0.09061 -2.18019,0.0892 -2.81185,-0.0029 l 0,3e-6 z m 3.5664,-1.761579 c 0.60711,-0.17538 1.25279,-0.590967 1.72654,-1.11126 0.69982,-0.768583 0.99359,-1.548944 0.99359,-2.63929 0,-1.175689 -0.35624,-2.035476 -1.16816,-2.819315 -0.58771,-0.567388 -1.22296,-0.904868 -1.98616,-1.055158 -2.03289,-0.400321 -4.05633,0.797684 -4.6141,2.731837 -0.16765,0.581375 -0.16758,1.630707 1.5e-4,2.211672 0.44521,1.542044 1.73661,2.655031 3.27869,2.82573 0.63326,0.0701 1.18254,0.02533 1.76945,-0.144216 l 0,0 z m -0.0716,-21.899749 c 1.17958,-0.346056 2.20967,-1.354627 2.57144,-2.51772 0.21463,-0.6900268 0.26717,-1.7075759 0.11812,-2.2878701 -0.50982,-1.9849343 -2.55648,-3.2637263 -4.58414,-2.864256 -1.08484,0.2137251 -1.99672,0.8066917 -2.57967,1.6774891 -0.44239,0.660808 -0.6199,1.2664888 -0.62582,2.1352532 -0.008,1.2190528 0.36159,2.1114878 1.20486,2.9069878 0.53794,0.507462 0.88869,0.719657 1.53498,0.928605 0.53632,0.173396 1.80315,0.184943 2.36023,0.02151 z"
         style="fill:#000000;fill-opacity:1;stroke:#000000;stroke-width:0.30661625;stroke-linecap:round;stroke-linejoin:round;stroke-miterlimit:4;stroke-opacity:1;stroke-dasharray:none;stroke-dashoffset:0" />
      <path
         transform="translate(0,1012.3622)"
         inkscape:connector-curvature="0"
         id="path3018"
         d="m 189.11696,40.398308 c -0.0987,-0.140959 -0.11457,-0.543582 -0.11457,-2.912026 0,-1.639195 0.0289,-2.80241 0.0716,-2.882151 0.0394,-0.07354 0.13043,-0.162194 0.2024,-0.197017 0.072,-0.03482 2.02533,-0.08012 4.34082,-0.100658 3.13583,-0.02782 4.23252,-0.0599 4.2983,-0.125746 0.0486,-0.04862 0.11447,-0.24734 0.14642,-0.441598 0.0319,-0.194258 0.0601,-2.944825 0.0625,-6.112371 l 0.004,-5.759174 -2.97599,0 c -1.78497,0 -3.05267,-0.02915 -3.16756,-0.07283 -0.18957,-0.07207 -0.19134,-0.0799 -0.17039,-0.752425 0.02,-0.64125 0.0316,-0.684832 0.20517,-0.772479 0.13894,-0.07014 0.90946,-0.09315 3.14638,-0.09397 l 2.96239,-0.0011 4.4e-4,-4.691979 c 4.4e-4,-5.172873 0.0257,-5.5595413 0.44407,-6.8119065 0.90367,-2.7049723 3.18928,-4.464462 6.43463,-4.9534581 1.01081,-0.152305 2.75942,-0.1478262 3.68242,0.00943 2.63212,0.4484538 4.6782,1.8574771 5.79271,3.9891197 0.73514,1.4060317 1.00433,2.5390729 1.06673,4.4898329 0.0468,1.461973 -0.0131,2.043256 -0.31951,3.102426 -0.80979,2.799251 -3.22217,5.163475 -6.08964,5.968089 -0.93874,0.263411 -2.20803,0.38961 -5.65529,0.562279 l -0.86263,0.04321 -0.0206,6.856046 c -0.0113,3.770824 -0.0481,6.91169 -0.0817,6.9797 -0.13114,0.265395 -0.42057,0.281142 -5.16731,0.281142 -4.47169,0 -4.66127,0.0055 -4.8282,0.140581 -0.17312,0.140069 -0.17389,0.147864 -0.21055,2.141053 -0.0367,1.993206 -0.0374,2.000984 -0.21056,2.14101 -0.15687,0.126886 -0.3048,0.140536 -1.52302,0.140536 -1.31086,0 -1.35252,-0.0047 -1.46384,-0.163576 z m 16.63828,-20.482081 c 1.46587,-0.211702 2.02129,-0.368156 2.66789,-0.7515 0.91834,-0.544454 1.54607,-1.437085 1.9811,-2.817136 0.36338,-1.15274 0.42047,-1.637343 0.42047,-3.569584 0,-2.351109 -0.19952,-3.5592918 -0.8288,-5.0188012 -0.48933,-1.1349173 -1.18524,-1.9607672 -1.98188,-2.3519436 -0.39203,-0.1925017 -0.49218,-0.2094464 -1.20051,-0.2031211 -0.59227,0.00529 -0.87303,0.043521 -1.2019,0.1636678 -1.40057,0.5116753 -2.30283,1.980835 -2.7875,4.5389146 -0.14322,0.7559445 -0.15567,1.1295245 -0.18497,5.5507715 l -0.0314,4.740279 0.94369,-0.04978 c 0.51903,-0.02738 1.51075,-0.131674 2.20381,-0.231767 l 0,0 z"
         style="fill:#000000;fill-opacity:1;stroke:#000000;stroke-width:0.30661625;stroke-linecap:round;stroke-linejoin:round;stroke-miterlimit:4;stroke-opacity:1;stroke-dasharray:none;stroke-dashoffset:0" />
      <path
         transform="translate(0,1012.3622)"
         inkscape:connector-curvature="0"
         id="path3020"
         d="m 228.45182,36.543372 c -3.698,-0.445399 -6.40997,-2.183281 -7.8317,-5.018682 -1.01595,-2.026164 -1.39592,-5.105703 -0.92123,-7.466331 0.75858,-3.772371 3.86256,-6.800127 7.83293,-7.640583 0.24288,-0.05141 0.46592,-0.114212 0.49564,-0.139551 0.0297,-0.02534 -1.85229,-2.462689 -4.18225,-5.41633 -2.32995,-2.9536407 -4.31662,-5.5264744 -4.41482,-5.7174079 -0.20963,-0.4076157 -0.2239,-0.5907718 -0.0568,-0.7294316 0.18822,-0.1562067 22.24414,-0.1503331 22.43248,0.00597 0.16046,0.1331724 0.11676,0.4889091 -0.10393,0.8459867 -0.0842,0.1362565 -2.05434,2.6589984 -4.37806,5.6060928 -2.32372,2.947095 -4.21116,5.380661 -4.19431,5.407926 0.0169,0.02726 0.18836,0.07311 0.38114,0.101885 0.87151,0.130074 2.69491,0.853931 3.58222,1.422081 2.56394,1.64169 4.1876,4.229811 4.53742,7.232636 0.10945,0.9395 0.0477,2.398953 -0.15069,3.559156 -0.79909,4.674198 -3.98846,7.468444 -9.11664,7.987205 -1.02387,0.103575 -2.87366,0.08436 -3.91138,-0.04063 l 0,0 z m 3.60638,-1.698277 c 1.96204,-0.471283 3.46594,-2.028041 4.27692,-4.427249 0.81782,-2.419409 0.82562,-6.019315 0.0177,-8.167207 -0.74166,-1.971756 -2.06355,-3.371441 -3.7995,-4.023125 -0.27416,-0.102921 -0.5614,-0.187131 -0.63831,-0.187131 -0.15985,0 -0.68206,0.586689 -1.03179,1.159195 -0.12982,0.212519 -0.26317,0.386399 -0.29633,0.386399 -0.0332,0 -0.14755,-0.148898 -0.25421,-0.330885 -0.32121,-0.54811 -0.91377,-1.214709 -1.0798,-1.214709 -0.22305,0 -1.06352,0.348485 -1.62719,0.674689 -1.56092,0.903315 -2.73547,2.714235 -3.18265,4.906996 -0.26174,1.283461 -0.26572,3.71446 -0.008,5.164858 0.37228,2.098896 1.30493,3.925745 2.52851,4.952822 1.34758,1.131156 3.26022,1.546089 5.09511,1.105347 l 0,0 z m 1.01898,-23.709447 c 1.57929,-2.9384099 2.39379,-4.5278175 2.41984,-4.7220649 0.0357,-0.2662621 0.0213,-0.2996341 -0.15897,-0.3681743 -0.27163,-0.1032738 -9.23205,-0.1032738 -9.50368,0 -0.17883,0.067991 -0.19452,0.1031263 -0.16023,0.3587935 0.0243,0.1809445 0.84232,1.783647 2.26249,4.4326077 2.64481,4.933213 2.5646,4.790533 2.67358,4.755708 0.0475,-0.01518 1.15765,-2.020776 2.46697,-4.45687 l 0,0 z"
         style="fill:#000000;fill-opacity:1;stroke:#000000;stroke-width:0.30661625;stroke-linecap:round;stroke-linejoin:round;stroke-miterlimit:4;stroke-opacity:1;stroke-dasharray:none;stroke-dashoffset:0" />
      <path
         transform="translate(0,1012.3622)"
         inkscape:connector-curvature="0"
         id="path3022"
         d="m 245.66298,35.888088 c -0.81456,-0.288182 -0.95976,-1.247053 -0.45132,-2.98057 0.21726,-0.740758 11.67391,-27.9521768 11.93781,-28.354275 l 0.18115,-0.2759988 1.06445,0 c 1.02268,0 1.06871,0.0065 1.1729,0.1655993 0.0596,0.09108 2.61736,6.8392495 5.68381,14.9959335 5.12117,13.622189 5.57775,14.872921 5.60472,15.35309 0.0358,0.63651 -0.0958,0.94733 -0.46655,1.102236 -0.37437,0.15642 -24.28428,0.150605 -24.72697,-0.006 l 0,-2e-6 z m 9.08956,-7.146229 c 0,-4.838013 -0.0147,-5.594968 -0.11243,-5.80098 -0.0953,-0.200868 -0.27734,-0.316717 -1.19599,-0.761173 -0.59596,-0.288335 -1.15684,-0.544596 -1.24639,-0.569469 -0.27941,-0.07761 -0.4337,0.08315 -0.72119,0.75142 -0.61906,1.439029 -3.95456,9.874463 -4.05243,10.248526 -0.21763,0.831839 -0.10506,1.463673 0.28914,1.622749 0.0868,0.03501 1.70607,0.06575 3.59851,0.06831 l 3.44078,0.0047 0,-5.564053 0,0 z m 10.68836,5.35935 c 0.21807,-0.218476 0.21297,-0.748758 -0.0145,-1.500327 -0.17802,-0.588306 -3.80354,-10.152301 -4.02299,-10.612487 -0.12885,-0.270206 -0.14768,-0.281087 -0.42261,-0.244212 -0.29567,0.03966 -1.55395,0.61677 -2.22899,1.022339 -0.20893,0.125523 -0.41593,0.307365 -0.46,0.404094 -0.0555,0.121776 -0.0801,1.861968 -0.0801,5.657643 l 0,5.481773 3.53079,-0.02046 3.53079,-0.02046 0.16759,-0.167903 z m -7.89913,-12.633953 c 0.33992,-0.137849 1.15791,-0.50989 1.81775,-0.826758 1.02248,-0.491015 1.20028,-0.60085 1.20355,-0.743503 0.004,-0.168086 -3.26864,-9.152378 -3.4888,-9.578115 -0.0646,-0.124994 -0.16579,-0.227261 -0.22479,-0.227261 -0.15923,0 -0.29786,0.308847 -2.27595,5.070579 -1.30961,3.152564 -1.80971,4.43512 -1.79365,4.59998 0.0213,0.2184 0.0857,0.26021 1.4434,0.937324 1.42508,0.710696 2.17316,1.012865 2.51645,1.016462 0.1012,0.0011 0.46212,-0.110858 0.80204,-0.248708 z"
         style="fill:#000000;fill-opacity:1;stroke:#000000;stroke-width:0.30661625;stroke-linecap:round;stroke-linejoin:round;stroke-miterlimit:4;stroke-opacity:1;stroke-dasharray:none;stroke-dashoffset:0" />
      <path
         inkscape:connector-curvature="0"
         id="path3008-1"
         d="m 82.947568,1027.2251 c -0.152191,0.044 -0.28514,0.1546 -0.367999,0.3062 -0.118986,0.2176 -0.132771,0.6323 -0.166525,5.0089 -0.0356,4.6159 -0.04146,4.7749 -0.179666,4.8759 -0.119001,0.087 -0.780226,0.1044 -3.958346,0.1044 -4.262152,0 -4.240229,0 -4.438999,0.4734 -0.09137,0.2187 -0.10775,1.101 -0.10775,5.8023 0,4.2142 0.02119,5.5656 0.08832,5.6328 0.06444,0.064 0.639133,0.088 2.125379,0.088 1.804705,0 2.048581,-0.014 2.138071,-0.1217 0.08282,-0.1 0.105392,-1.0018 0.125345,-5.0107 0.02342,-4.705 0.02965,-4.8944 0.165599,-5.0303 0.135629,-0.1356 0.292451,-0.1413 3.930159,-0.1413 3.278991,0 3.827946,-0.016 4.079073,-0.1161 0.539939,-0.216 0.522449,-0.018 0.521985,-5.9021 -2.95e-4,-3.3408 -0.02754,-5.3034 -0.07614,-5.4784 -0.04165,-0.1499 -0.16185,-0.3404 -0.267113,-0.4232 -0.180061,-0.1416 -0.285566,-0.1501 -1.782258,-0.1439 -0.874977,0 -1.698089,0.038 -1.829139,0.075 z"
         style="fill:#000000;fill-opacity:1;stroke:#000000;stroke-width:0.30661625;stroke-linecap:round;stroke-linejoin:round;stroke-miterlimit:4;stroke-opacity:1;stroke-dasharray:none;stroke-dashoffset:0" />
    </g>
  </g>
</svg>
