<?xml version="1.0" encoding="UTF-8" standalone="no"?>
<!-- Created with Inkscape (http://www.inkscape.org/) -->

<svg
   xmlns:dc="http://purl.org/dc/elements/1.1/"
   xmlns:cc="http://creativecommons.org/ns#"
   xmlns:rdf="http://www.w3.org/1999/02/22-rdf-syntax-ns#"
   xmlns:svg="http://www.w3.org/2000/svg"
   xmlns="http://www.w3.org/2000/svg"
   xmlns:sodipodi="http://sodipodi.sourceforge.net/DTD/sodipodi-0.dtd"
   xmlns:inkscape="http://www.inkscape.org/namespaces/inkscape"
   width="12"
   height="12"
   viewBox="0 0 3.1749999 3.1750001"
   version="1.1"
   id="svg3639"
   sodipodi:docname="mini_template_fear.svg"
   inkscape:version="0.92.3 (2405546, 2018-03-11)">
  <defs
     id="defs3633" />
  <sodipodi:namedview
     id="base"
     pagecolor="#ffffff"
     bordercolor="#666666"
     borderopacity="1.0"
     inkscape:pageopacity="0.0"
     inkscape:pageshadow="2"
     inkscape:zoom="45.733202"
     inkscape:cx="7.5635441"
     inkscape:cy="2.9869294"
     inkscape:document-units="mm"
     inkscape:current-layer="layer1"
     showgrid="false"
     units="px"
     inkscape:window-width="1920"
     inkscape:window-height="1017"
     inkscape:window-x="-8"
     inkscape:window-y="-8"
     inkscape:window-maximized="1"
     inkscape:snap-global="false" />
  <metadata
     id="metadata3636">
    <rdf:RDF>
      <cc:Work
         rdf:about="">
        <dc:format>image/svg+xml</dc:format>
        <dc:type
           rdf:resource="http://purl.org/dc/dcmitype/StillImage" />
        <dc:title />
      </cc:Work>
    </rdf:RDF>
  </metadata>
  <g
     inkscape:label="Layer 1"
     inkscape:groupmode="layer"
     id="layer1"
     transform="translate(0,-293.82498)">
    <circle
       style="fill:#4d4d4d;fill-opacity:1;stroke:none;stroke-width:0.31373331"
       id="path16431"
       cx="1.5875"
       cy="295.41248"
       r="1.5875" />
    <path
       inkscape:connector-curvature="0"
       id="path2523"
       d="m 1.5878906,294.05478 c -0.74875667,0 -1.35732049,0.60858 -1.35732049,1.35733 0,0.74875 0.60856382,1.35733 1.35732049,1.35733 0.7487566,0 1.3573209,-0.60858 1.3573209,-1.35733 0,-0.74875 -0.6085643,-1.35733 -1.3573209,-1.35733 z m 0,0.15247 c 0.6660302,0 1.2048462,0.53882 1.2048462,1.20485 0,0.66602 -0.538816,1.20484 -1.2048462,1.20484 -0.66603019,0 -1.20484618,-0.53882 -1.20484618,-1.20484 0,-0.66603 0.53881599,-1.20485 1.20484618,-1.20485 z"
       style="color:#000000;font-style:normal;font-variant:normal;font-weight:normal;font-stretch:normal;font-size:medium;line-height:normal;font-family:sans-serif;font-variant-ligatures:normal;font-variant-position:normal;font-variant-caps:normal;font-variant-numeric:normal;font-variant-alternates:normal;font-feature-settings:normal;text-indent:0;text-align:start;text-decoration:none;text-decoration-line:none;text-decoration-style:solid;text-decoration-color:#000000;letter-spacing:normal;word-spacing:normal;text-transform:none;writing-mode:lr-tb;direction:ltr;text-orientation:mixed;dominant-baseline:auto;baseline-shift:baseline;text-anchor:start;white-space:normal;shape-padding:0;clip-rule:nonzero;display:inline;overflow:visible;visibility:visible;opacity:1;isolation:auto;mix-blend-mode:normal;color-interpolation:sRGB;color-interpolation-filters:linearRGB;solid-color:#000000;solid-opacity:1;vector-effect:none;fill:#999999;fill-opacity:1;fill-rule:nonzero;stroke:none;stroke-width:0.15307227;stroke-linecap:butt;stroke-linejoin:miter;stroke-miterlimit:4;stroke-dasharray:none;stroke-dashoffset:0;stroke-opacity:1;color-rendering:auto;image-rendering:auto;shape-rendering:auto;text-rendering:auto;enable-background:accumulate" />
    <path
       style="color:#000000;font-style:normal;font-variant:normal;font-weight:normal;font-stretch:normal;font-size:medium;line-height:normal;font-family:sans-serif;font-variant-ligatures:normal;font-variant-position:normal;font-variant-caps:normal;font-variant-numeric:normal;font-variant-alternates:normal;font-feature-settings:normal;text-indent:0;text-align:start;text-decoration:none;text-decoration-line:none;text-decoration-style:solid;text-decoration-color:#000000;letter-spacing:normal;word-spacing:normal;text-transform:none;writing-mode:lr-tb;direction:ltr;text-orientation:mixed;dominant-baseline:auto;baseline-shift:baseline;text-anchor:start;white-space:normal;shape-padding:0;clip-rule:nonzero;display:inline;overflow:visible;visibility:visible;opacity:1;isolation:auto;mix-blend-mode:normal;color-interpolation:sRGB;color-interpolation-filters:linearRGB;solid-color:#000000;solid-opacity:1;vector-effect:none;fill:#ff0000;fill-opacity:1;fill-rule:nonzero;stroke:none;stroke-width:0.16090164;stroke-linecap:butt;stroke-linejoin:miter;stroke-miterlimit:4;stroke-dasharray:none;stroke-dashoffset:0;stroke-opacity:1;color-rendering:auto;image-rendering:auto;shape-rendering:auto;text-rendering:auto;enable-background:accumulate"
       d="m 1.5878906,293.98536 c -0.78705419,0 -1.42674489,0.6397 -1.42674489,1.42675 0,0.78705 0.6396907,1.42675 1.42674489,1.42675 0.787054,0 1.4267452,-0.6397 1.4267452,-1.42675 0,-0.78705 -0.6396912,-1.42675 -1.4267452,-1.42675 z m 0,0.16026 c 0.7000964,0 1.2664717,0.56638 1.2664717,1.26648 0,0.70009 -0.5663753,1.26646 -1.2664717,1.26646 -0.70009641,0 -1.2664718,-0.56637 -1.2664718,-1.26646 0,-0.7001 0.56637539,-1.26648 1.2664718,-1.26648 z"
       id="path16431-8-9-6"
       inkscape:connector-curvature="0" />
    <path
       inkscape:connector-curvature="0"
       id="path2525"
       d="m 1.5878907,294.32669 c -0.59875985,0 -1.08541133,0.48666 -1.08541133,1.08542 0,0.59876 0.48665148,1.08542 1.08541133,1.08542 0.5987597,0 1.0854115,-0.48666 1.0854115,-1.08542 0,-0.59876 -0.4866518,-1.08542 -1.0854115,-1.08542 z m 0,0.12192 c 0.5326057,0 0.9634818,0.43088 0.9634818,0.96349 0,0.5326 -0.4308761,0.96348 -0.9634818,0.96348 -0.5326058,0 -0.96348188,-0.43088 -0.96348188,-0.96348 0,-0.53261 0.43087608,-0.96349 0.96348188,-0.96349 z"
       style="color:#000000;font-style:normal;font-variant:normal;font-weight:normal;font-stretch:normal;font-size:medium;line-height:normal;font-family:sans-serif;font-variant-ligatures:normal;font-variant-position:normal;font-variant-caps:normal;font-variant-numeric:normal;font-variant-alternates:normal;font-feature-settings:normal;text-indent:0;text-align:start;text-decoration:none;text-decoration-line:none;text-decoration-style:solid;text-decoration-color:#000000;letter-spacing:normal;word-spacing:normal;text-transform:none;writing-mode:lr-tb;direction:ltr;text-orientation:mixed;dominant-baseline:auto;baseline-shift:baseline;text-anchor:start;white-space:normal;shape-padding:0;clip-rule:nonzero;display:inline;overflow:visible;visibility:visible;opacity:1;isolation:auto;mix-blend-mode:normal;color-interpolation:sRGB;color-interpolation-filters:linearRGB;solid-color:#000000;solid-opacity:1;vector-effect:none;fill:#999999;fill-opacity:1;fill-rule:nonzero;stroke:none;stroke-width:0.12240762;stroke-linecap:butt;stroke-linejoin:miter;stroke-miterlimit:4;stroke-dasharray:none;stroke-dashoffset:0;stroke-opacity:1;color-rendering:auto;image-rendering:auto;shape-rendering:auto;text-rendering:auto;enable-background:accumulate" />
    <path
       style="color:#000000;font-style:normal;font-variant:normal;font-weight:normal;font-stretch:normal;font-size:medium;line-height:normal;font-family:sans-serif;font-variant-ligatures:normal;font-variant-position:normal;font-variant-caps:normal;font-variant-numeric:normal;font-variant-alternates:normal;font-feature-settings:normal;text-indent:0;text-align:start;text-decoration:none;text-decoration-line:none;text-decoration-style:solid;text-decoration-color:#000000;letter-spacing:normal;word-spacing:normal;text-transform:none;writing-mode:lr-tb;direction:ltr;text-orientation:mixed;dominant-baseline:auto;baseline-shift:baseline;text-anchor:start;white-space:normal;shape-padding:0;clip-rule:nonzero;display:inline;overflow:visible;visibility:visible;opacity:1;isolation:auto;mix-blend-mode:normal;color-interpolation:sRGB;color-interpolation-filters:linearRGB;solid-color:#000000;solid-opacity:1;vector-effect:none;fill:#999999;fill-opacity:1;fill-rule:nonzero;stroke:none;stroke-width:0.08717571;stroke-linecap:butt;stroke-linejoin:miter;stroke-miterlimit:4;stroke-dasharray:none;stroke-dashoffset:0;stroke-opacity:1;color-rendering:auto;image-rendering:auto;shape-rendering:auto;text-rendering:auto;enable-background:accumulate"
       d="m 1.5878907,294.6391 c -0.4264221,0 -0.77300336,0.34659 -0.77300336,0.77301 0,0.42642 0.34658126,0.77301 0.77300336,0.77301 0.426422,0 0.7730035,-0.34659 0.7730035,-0.77301 0,-0.42642 -0.3465815,-0.77301 -0.7730035,-0.77301 z m 0,0.0868 c 0.3793088,0 0.6861682,0.30686 0.6861682,0.68618 0,0.3793 -0.3068594,0.68616 -0.6861682,0.68616 -0.3793088,0 -0.68616819,-0.30686 -0.68616819,-0.68616 0,-0.37932 0.30685939,-0.68618 0.68616819,-0.68618 z"
       id="path16431-8-9-6-4"
       inkscape:connector-curvature="0" />
    <path
       style="fill:#ff0000;stroke:#999999;stroke-width:0.0941806px;stroke-linecap:butt;stroke-linejoin:miter;stroke-opacity:1"
       d="m 2.5425986,294.42283 c 0,0 -0.7154695,0.21373 -0.8861675,0.50844 -0.04188,0.0723 0.05075,0.18436 -1.297e-4,0.25064 -0.01919,0.025 -0.057417,0.0405 -0.09846,0.0506 -0.041052,-0.0101 -0.079287,-0.0256 -0.098467,-0.0506 -0.050878,-0.0662 0.041761,-0.17835 -1.28e-4,-0.25064 -0.1707005,-0.29471 -0.88616829,-0.50844 -0.88616829,-0.50844 0,0 0.21360247,0.71559 0.50831549,0.88629 0.072296,0.0419 0.1844938,-0.0509 0.2507739,0 0.024986,0.0192 0.040506,0.0575 0.050596,0.0985 -0.01009,0.0411 -0.025729,0.0794 -0.050724,0.0986 -0.066278,0.0509 -0.1782075,-0.0419 -0.2505136,0 -0.2947113,0.1707 -0.50857328,0.8863 -0.50857328,0.8863 0,0 0.71572728,-0.21374 0.88642608,-0.50845 0.041889,-0.0723 -0.050997,-0.18435 -1.315e-4,-0.25064 0.01919,-0.025 0.057545,-0.0406 0.098593,-0.0507 0.041052,0.0101 0.079407,0.0257 0.098597,0.0507 0.050878,0.0662 -0.042008,0.17835 -1.298e-4,0.25065 0.1706997,0.29472 0.8862938,0.50832 0.8862938,0.50832 0,0 -0.2137279,-0.71547 -0.508441,-0.88617 -0.072296,-0.0419 -0.1842257,0.0509 -0.2505152,0 -0.025012,-0.0192 -0.040634,-0.0575 -0.050724,-0.0986 0.01009,-0.0411 0.025593,-0.0793 0.050596,-0.0985 0.066295,-0.0509 0.178479,0.0419 0.2507748,0 0.2947113,-0.1707 0.5083146,-0.88629 0.5083146,-0.88629 z"
       id="path4513-3"
       inkscape:connector-curvature="0" />
    <path
       inkscape:connector-curvature="0"
       id="path2525-5"
       d="m 1.5878906,293.82336 c -0.87641666,0 -1.58873812642,0.71233 -1.58873812642,1.58875 0,0.87642 0.71232146642,1.58875 1.58873812642,1.58875 0.8764167,0 1.5887386,-0.71233 1.5887386,-1.58875 0,-0.87642 -0.7123219,-1.58875 -1.5887386,-1.58875 z m 0,0.17846 c 0.7795856,0 1.4102675,0.63068 1.4102675,1.41028 0,0.77957 -0.6306819,1.41026 -1.4102675,1.41026 -0.77958566,0 -1.41026757,-0.63069 -1.41026757,-1.41026 0,-0.7796 0.63068191,-1.41028 1.41026757,-1.41028 z"
       style="color:#000000;font-style:normal;font-variant:normal;font-weight:normal;font-stretch:normal;font-size:medium;line-height:normal;font-family:sans-serif;font-variant-ligatures:normal;font-variant-position:normal;font-variant-caps:normal;font-variant-numeric:normal;font-variant-alternates:normal;font-feature-settings:normal;text-indent:0;text-align:start;text-decoration:none;text-decoration-line:none;text-decoration-style:solid;text-decoration-color:#000000;letter-spacing:normal;word-spacing:normal;text-transform:none;writing-mode:lr-tb;direction:ltr;text-orientation:mixed;dominant-baseline:auto;baseline-shift:baseline;text-anchor:start;white-space:normal;shape-padding:0;clip-rule:nonzero;display:inline;overflow:visible;visibility:visible;opacity:1;isolation:auto;mix-blend-mode:normal;color-interpolation:sRGB;color-interpolation-filters:linearRGB;solid-color:#000000;solid-opacity:1;vector-effect:none;fill:#999999;fill-opacity:1;fill-rule:nonzero;stroke:none;stroke-width:0.17917049;stroke-linecap:butt;stroke-linejoin:miter;stroke-miterlimit:4;stroke-dasharray:none;stroke-dashoffset:0;stroke-opacity:1;color-rendering:auto;image-rendering:auto;shape-rendering:auto;text-rendering:auto;enable-background:accumulate" />
  </g>
</svg>
