<?xml version="1.0" encoding="UTF-8" standalone="no"?>
<!-- Created with Inkscape (http://www.inkscape.org/) -->

<svg
   xmlns:dc="http://purl.org/dc/elements/1.1/"
   xmlns:cc="http://creativecommons.org/ns#"
   xmlns:rdf="http://www.w3.org/1999/02/22-rdf-syntax-ns#"
   xmlns:svg="http://www.w3.org/2000/svg"
   xmlns="http://www.w3.org/2000/svg"
   xmlns:sodipodi="http://sodipodi.sourceforge.net/DTD/sodipodi-0.dtd"
   xmlns:inkscape="http://www.inkscape.org/namespaces/inkscape"
   width="210mm"
   height="297mm"
   viewBox="0 0 210 297"
   version="1.1"
   id="svg2546"
   inkscape:version="0.92.3 (2405546, 2018-03-11)"
   sodipodi:docname="start_buttons.svg">
  <defs
     id="defs2540" />
  <sodipodi:namedview
     id="base"
     pagecolor="#ffffff"
     bordercolor="#666666"
     borderopacity="1.0"
     inkscape:pageopacity="0.0"
     inkscape:pageshadow="2"
     inkscape:zoom="0.77212751"
     inkscape:cx="332.03023"
     inkscape:cy="713.67084"
     inkscape:document-units="mm"
     inkscape:current-layer="layer1"
     showgrid="false"
     inkscape:window-width="1560"
     inkscape:window-height="810"
     inkscape:window-x="180"
     inkscape:window-y="12"
     inkscape:window-maximized="1"
     inkscape:snap-global="false" />
  <metadata
     id="metadata2543">
    <rdf:RDF>
      <cc:Work
         rdf:about="">
        <dc:format>image/svg+xml</dc:format>
        <dc:type
           rdf:resource="http://purl.org/dc/dcmitype/StillImage" />
        <dc:title />
      </cc:Work>
    </rdf:RDF>
  </metadata>
  <g
     inkscape:label="Layer 1"
     inkscape:groupmode="layer"
     id="layer1">
    <rect
       style="opacity:1;vector-effect:none;fill:#000000;fill-opacity:1;fill-rule:nonzero;stroke:#ffffff;stroke-width:0.24841374;stroke-linecap:butt;stroke-linejoin:miter;stroke-miterlimit:4;stroke-dasharray:none;stroke-dashoffset:0;stroke-opacity:0.4"
       id="rect3103"
       width="92.355751"
       height="23.842583"
       x="50.58403"
       y="81.48465"
       rx="3.6450016"
       ry="2.7405279"
       inkscape:export-filename="C:\Users\Narthan\Projects\vdna\assets\png\buttons\startButton.png"
       inkscape:export-xdpi="38.606174"
       inkscape:export-ydpi="38.606174" />
    <text
       xml:space="preserve"
       style="font-style:normal;font-variant:normal;font-weight:normal;font-stretch:normal;font-size:19.1483326px;line-height:1.25;font-family:'Malgun Gothic';-inkscape-font-specification:'Malgun Gothic';letter-spacing:0px;word-spacing:0px;opacity:1;vector-effect:none;fill:#7b7be8;fill-opacity:1;stroke:none;stroke-width:0.47870827;stroke-linecap:butt;stroke-linejoin:miter;stroke-miterlimit:4;stroke-dasharray:none;stroke-dashoffset:0;stroke-opacity:1"
       x="54.336464"
       y="98.569366"
       id="text3093"
       inkscape:export-filename="C:\Users\Narthan\Projects\vdna\assets\png\buttons\tutorialButton.png"
       inkscape:export-xdpi="38.606174"
       inkscape:export-ydpi="38.606174"><tspan
         sodipodi:role="line"
         id="tspan3091"
         x="54.336464"
         y="98.569366"
         style="font-style:normal;font-variant:normal;font-weight:normal;font-stretch:normal;font-family:'Malgun Gothic';-inkscape-font-specification:'Malgun Gothic';vector-effect:none;fill:#7b7be8;fill-opacity:1;stroke-width:0.47870827;stroke-linecap:butt;stroke-linejoin:miter;stroke-miterlimit:4;stroke-dasharray:none;stroke-dashoffset:0;stroke-opacity:1">quickstart</tspan></text>
    <rect
       style="opacity:1;vector-effect:none;fill:#000000;fill-opacity:1;fill-rule:nonzero;stroke:#ffffff;stroke-width:0.24841374;stroke-linecap:butt;stroke-linejoin:miter;stroke-miterlimit:4;stroke-dasharray:none;stroke-dashoffset:0;stroke-opacity:0.4"
       id="rect3103-4"
       width="92.355751"
       height="23.842583"
       x="50.875923"
       y="117.38726"
       rx="3.6450016"
       ry="2.7405279"
       inkscape:export-filename="C:\Users\Narthan\Projects\vdna\assets\png\buttons\newgameButton.png"
       inkscape:export-xdpi="57.988491"
       inkscape:export-ydpi="57.988491" />
    <text
       xml:space="preserve"
       style="font-style:normal;font-variant:normal;font-weight:normal;font-stretch:normal;font-size:14.73195171px;line-height:1.25;font-family:'Malgun Gothic';-inkscape-font-specification:'Malgun Gothic';font-variant-ligatures:normal;font-variant-position:normal;font-variant-caps:normal;font-variant-numeric:normal;font-variant-alternates:normal;font-feature-settings:normal;text-indent:0;text-align:start;text-decoration:none;text-decoration-line:none;text-decoration-style:solid;text-decoration-color:#000000;letter-spacing:0px;word-spacing:0px;text-transform:none;writing-mode:lr-tb;direction:ltr;text-orientation:mixed;dominant-baseline:auto;baseline-shift:baseline;text-anchor:start;white-space:normal;shape-padding:0;opacity:1;vector-effect:none;fill:#7b7be8;fill-opacity:1;stroke:none;stroke-width:0.36829877;stroke-linecap:butt;stroke-linejoin:miter;stroke-miterlimit:4;stroke-dasharray:none;stroke-dashoffset:0;stroke-opacity:1"
       x="59.495079"
       y="134.26309"
       id="text3097"
       inkscape:export-filename="C:\Users\Narthan\Projects\vdna\assets\png\buttons\tutorialButton.png"
       inkscape:export-xdpi="38.606174"
       inkscape:export-ydpi="38.606174"><tspan
         sodipodi:role="line"
         id="tspan3095"
         x="59.495079"
         y="134.26309"
         style="font-style:normal;font-variant:normal;font-weight:normal;font-stretch:normal;font-size:14.73195171px;line-height:1.25;font-family:'Malgun Gothic';-inkscape-font-specification:'Malgun Gothic';font-variant-ligatures:normal;font-variant-position:normal;font-variant-caps:normal;font-variant-numeric:normal;font-variant-alternates:normal;font-feature-settings:normal;text-indent:0;text-align:start;text-decoration:none;text-decoration-line:none;text-decoration-style:solid;text-decoration-color:#000000;letter-spacing:0px;word-spacing:0px;text-transform:none;writing-mode:lr-tb;direction:ltr;text-orientation:mixed;dominant-baseline:auto;baseline-shift:baseline;text-anchor:start;white-space:normal;shape-padding:0;vector-effect:none;fill:#7b7be8;fill-opacity:1;stroke:none;stroke-width:0.36829877;stroke-linecap:butt;stroke-linejoin:miter;stroke-miterlimit:4;stroke-dasharray:none;stroke-dashoffset:0;stroke-opacity:1">New Game</tspan></text>
    <rect
       inkscape:export-ydpi="38.606174"
       inkscape:export-xdpi="38.606174"
       inkscape:export-filename="C:\Users\Narthan\Projects\vdna\assets\png\buttons\numberButton.png"
       ry="3.444804"
       rx="2.9597683"
       y="160.82912"
       x="50.122276"
       height="17.323107"
       width="19.745842"
       id="rect3863"
       style="opacity:1;vector-effect:none;fill:#000000;fill-opacity:1;fill-rule:nonzero;stroke:#ffffff;stroke-width:0.09790789;stroke-linecap:butt;stroke-linejoin:miter;stroke-miterlimit:4;stroke-dasharray:none;stroke-dashoffset:0;stroke-opacity:0.4" />
    <rect
       style="opacity:1;vector-effect:none;fill:#7b7be8;fill-opacity:1;fill-rule:nonzero;stroke:#000000;stroke-width:0.24841374;stroke-linecap:butt;stroke-linejoin:miter;stroke-miterlimit:4;stroke-dasharray:none;stroke-dashoffset:0;stroke-opacity:0.4"
       id="rect3103-8"
       width="92.355751"
       height="23.842583"
       x="50.703796"
       y="41.699413"
       rx="3.6450016"
       ry="2.7405279"
       inkscape:export-filename="C:\Users\Narthan\Projects\vdna\assets\png\buttons\startButton.png"
       inkscape:export-xdpi="38.606174"
       inkscape:export-ydpi="38.606174" />
    <rect
       style="opacity:1;vector-effect:none;fill:#000000;fill-opacity:1;fill-rule:nonzero;stroke:#ffffff;stroke-width:0.24841374;stroke-linecap:butt;stroke-linejoin:miter;stroke-miterlimit:4;stroke-dasharray:none;stroke-dashoffset:0;stroke-opacity:0.4"
       id="rect3103-4-5"
       width="92.355751"
       height="23.842583"
       x="-50.28989"
       y="118.88477"
       rx="3.6450016"
       ry="2.7405279"
       inkscape:export-filename="C:\Users\Narthan\Projects\vdna\assets\png\buttons\quickButton.png"
       inkscape:export-xdpi="57.988453"
       inkscape:export-ydpi="57.988453" />
    <path
       style="fill:#7b7be8;fill-opacity:1;stroke:#000000;stroke-width:0.12388921;stroke-linecap:round;stroke-linejoin:round;stroke-miterlimit:4;stroke-dasharray:none;stroke-dashoffset:0;stroke-opacity:1"
       d="m 24.195464,136.97824 c -1.06617,-0.13399 -1.89398,-0.61319 -2.34666,-1.35839 -0.0589,-0.0971 -0.15012,-0.30288 -0.20267,-0.45734 -0.0858,-0.25238 -0.0968,-0.32474 -0.10873,-0.71211 -0.0267,-0.86572 0.20227,-1.50404 0.73678,-2.05348 0.64448,-0.66244 1.63436,-0.97473 2.7351,-0.86285 0.50341,0.0512 0.8832,0.19766 1.2316,0.47496 0.0635,0.0506 0.11896,0.092 0.12309,0.092 0.0253,0 0.38856,-0.5668 0.5144,-0.80293 0.24499,-0.45969 0.37523,-0.92678 0.53064,-1.90325 0.0492,-0.30874 0.0544,-0.55368 0.0544,-2.51923 0,-2.04988 -0.003,-2.18035 -0.053,-2.23037 -0.0483,-0.0482 -0.13576,-0.0539 -0.95907,-0.0618 -0.58944,-0.006 -0.90598,0 -0.90598,0.021 0,0.0162 0.11209,0.14069 0.24904,0.27629 0.20919,0.20716 0.27114,0.29221 0.3871,0.53153 0.17249,0.35597 0.2251,0.60034 0.22574,1.04864 8.1e-4,0.63945 -0.13439,1.11405 -0.45984,1.61358 -0.39635,0.60822 -0.98222,1.03111 -1.71052,1.23475 -0.22466,0.0628 -0.31234,0.0705 -0.78807,0.0691 -0.47077,0 -0.5755,-0.0108 -0.86902,-0.08 -0.85336,-0.20053 -1.43974,-0.65069 -1.77593,-1.36344 -0.1214,-0.25726 -0.18281,-0.47965 -0.2245,-0.81214 -0.12156,-0.96921 0.12278,-1.7679 0.7283,-2.38177 0.397,-0.40244 0.83866,-0.63562 1.4334,-0.7568 0.29715,-0.0606 0.365,-0.0613 5.65311,-0.0613 5.86207,0 5.55325,-0.009 6.07081,0.17427 0.85872,0.30389 1.51991,1.04763 1.6978,1.9098 0.0712,0.3449 0.0768,0.88003 0.0137,1.27111 -0.13729,0.84605 -0.67567,1.52894 -1.4687,1.86272 -0.6248,0.26296 -1.60844,0.33088 -2.21824,0.15318 -0.80997,-0.23605 -1.46244,-0.77817 -1.82939,-1.52001 -0.21365,-0.43185 -0.27669,-0.72349 -0.27963,-1.29361 -0.003,-0.52729 0.0238,-0.66891 0.19451,-1.03769 0.14126,-0.30518 0.27639,-0.4866 0.48882,-0.6561 0.089,-0.071 0.16181,-0.14772 0.16181,-0.17051 0,-0.0347 -0.14813,-0.04 -0.90943,-0.0327 -0.83953,0.008 -0.91249,0.013 -0.94901,0.0628 -0.0683,0.0934 -0.0803,0.54397 -0.067,2.48844 0.0122,1.76652 0.0173,1.91525 0.0788,2.30472 0.0822,0.52062 0.19317,1.04165 0.27543,1.29361 0.11851,0.36312 0.5064,1.06666 0.71581,1.29847 l 0.0582,0.0644 0.15334,-0.1175 c 0.23501,-0.18009 0.59907,-0.34858 0.85942,-0.39779 0.97142,-0.18364 2.02314,0.0118 2.71244,0.50345 0.51006,0.36397 0.90823,0.97716 1.04407,1.60797 0.0761,0.35314 0.069,0.99546 -0.0137,1.30844 -0.26976,1.01357 -1.08311,1.68689 -2.34067,1.93772 -0.36489,0.0728 -1.27038,0.0755 -1.58733,0.005 -1.03572,-0.23107 -1.73761,-0.88806 -1.9959,-1.86817 -0.091,-0.34522 -0.0913,-0.89021 -8.1e-4,-1.2341 0.0718,-0.27277 0.33102,-0.81594 0.50322,-1.05466 l 0.11729,-0.16247 -0.19491,-0.23899 c -0.45076,-0.55267 -0.95125,-1.43666 -1.16656,-2.06043 -0.0522,-0.15128 -0.11072,-0.27508 -0.12996,-0.27508 -0.0192,0 -0.0661,0.097 -0.10415,0.2156 -0.19275,0.60079 -0.69907,1.51015 -1.1597,2.08293 -0.11561,0.1438 -0.21027,0.26914 -0.21027,0.27852 0,0.009 0.0454,0.0791 0.10079,0.15487 0.17092,0.23367 0.39739,0.68968 0.48196,0.9705 0.0703,0.23293 0.0809,0.32158 0.0832,0.68398 0.003,0.54991 -0.0861,0.88996 -0.35726,1.35665 -0.13484,0.23192 -0.55998,0.65949 -0.78995,0.79432 -0.25677,0.15052 -0.6089,0.29294 -0.85701,0.34664 -0.26163,0.0566 -1.07611,0.0832 -1.37959,0.0451 z m 1.07262,-0.77522 c 0.68133,-0.0927 1.24593,-0.65274 1.35225,-1.34137 0.08,-0.5182 -0.084,-1.00484 -0.46541,-1.3817 -0.3544,-0.35007 -0.70033,-0.47727 -1.2239,-0.44996 -0.43791,0.023 -0.70676,0.14207 -1.02495,0.45452 -0.2995,0.29411 -0.44145,0.61226 -0.46408,1.04024 -0.0313,0.59129 0.224,1.11627 0.69469,1.42873 0.25862,0.17164 0.44882,0.23273 0.86376,0.27742 0.0192,0.004 0.13973,-0.0105 0.26764,-0.0279 z m 6.96955,-0.0587 c 0.48476,-0.14037 0.92567,-0.5946 1.05349,-1.08536 0.0564,-0.21646 0.0585,-0.66136 0.005,-0.86528 -0.0646,-0.24276 -0.22673,-0.51691 -0.41964,-0.7098 -0.30868,-0.3087 -0.68197,-0.46095 -1.13005,-0.46095 -0.45532,0 -0.82112,0.15201 -1.14491,0.47582 -0.31479,0.31475 -0.44512,0.64648 -0.44573,1.13433 -3.9e-4,0.347 0.0664,0.59028 0.2324,0.84536 0.40541,0.62321 1.11525,0.8787 1.85016,0.66588 z m -7.82513,-8.43085 c 0.4636,-0.10929 0.87324,-0.46373 1.06639,-0.92269 0.0851,-0.20231 0.12568,-0.55279 0.0948,-0.82156 -0.0423,-0.37072 -0.15297,-0.6142 -0.40042,-0.88148 -0.30289,-0.32717 -0.61538,-0.47335 -1.07034,-0.50071 -0.48413,-0.0291 -0.86642,0.10675 -1.20852,0.42947 -0.89253,0.84197 -0.51295,2.37939 0.66581,2.69681 0.20717,0.0558 0.61588,0.0559 0.85218,1.6e-4 z m 8.78649,0 c 0.59845,-0.15584 1.04909,-0.6426 1.15026,-1.24242 0.0658,-0.39027 -0.008,-0.82116 -0.197,-1.1429 -0.0979,-0.16708 -0.35941,-0.42858 -0.52651,-0.52652 -0.33992,-0.1992 -0.83657,-0.27432 -1.21836,-0.18425 -0.57693,0.13608 -1.01815,0.56616 -1.16698,1.13753 -0.0528,0.20263 -0.0583,0.56794 -0.0122,0.79012 0.11102,0.53263 0.57431,1.0229 1.09478,1.15879 0.24509,0.064 0.65013,0.0684 0.8758,0.01 v 0 z"
       id="path3004"
       inkscape:connector-curvature="0" />
    <path
       style="fill:#7b7be8;fill-opacity:1;stroke:#000000;stroke-width:0.12388921;stroke-linecap:round;stroke-linejoin:round;stroke-miterlimit:4;stroke-dasharray:none;stroke-dashoffset:0;stroke-opacity:1"
       d="m -40.799797,137.11688 c -0.962024,-0.13321 -1.797744,-0.61182 -2.106134,-1.20614 -0.146818,-0.28296 -0.185085,-0.46971 -0.162224,-0.79178 0.03311,-0.46648 0.217303,-0.90912 0.553016,-1.32909 0.189612,-0.23718 0.249234,-0.28078 0.349525,-0.25561 0.14013,0.0352 0.236881,0.17791 0.335269,0.49461 0.261581,0.84196 0.624857,1.4122 1.156115,1.81476 0.310985,0.23564 0.451389,0.27706 0.943242,0.27807 h 0.418579 l 0.250533,-0.12425 c 0.408945,-0.20287 0.856984,-0.63282 1.21849,-1.16933 0.240299,-0.35665 0.415662,-0.8418 0.564325,-1.56126 0.07011,-0.33932 0.207251,-1.2385 0.20734,-1.35947 l 6.1e-5,-0.0807 -1.474454,-0.009 c -1.711828,-0.01 -1.55914,0.0243 -1.558384,-0.34874 2.34e-4,-0.12361 0.01313,-0.24486 0.02865,-0.26938 0.02433,-0.0384 0.234871,-0.0457 1.542367,-0.0528 l 1.514184,-0.008 0.01843,-0.0921 c 0.02396,-0.11981 0.02396,-1.0905 0,-1.21026 l -0.01843,-0.0922 -1.514184,-0.008 c -1.307496,-0.007 -1.518032,-0.0142 -1.542368,-0.0529 -0.03661,-0.0579 -0.03665,-0.50705 -3e-6,-0.56503 0.02433,-0.0384 0.232516,-0.0458 1.516189,-0.0536 1.376644,-0.008 1.488001,-0.013 1.487851,-0.0595 -3.71e-4,-0.11573 -0.129271,-0.91857 -0.222964,-1.38873 -0.212652,-1.06702 -0.470261,-1.5796 -1.116644,-2.22185 -0.481834,-0.47876 -0.809707,-0.63299 -1.336665,-0.62866 -0.528255,0.004 -0.827331,0.15051 -1.282155,0.62676 -0.341852,0.35795 -0.572725,0.78585 -0.79867,1.48029 -0.110259,0.33888 -0.23048,0.49812 -0.376049,0.49812 -0.0947,0 -0.262726,-0.16651 -0.456737,-0.45266 -0.290931,-0.42911 -0.400604,-0.77154 -0.400284,-1.24982 2.67e-4,-0.39706 0.04568,-0.5407 0.270499,-0.85578 0.289646,-0.40591 0.86544,-0.75481 1.542526,-0.93466 0.350455,-0.0931 0.366503,-0.0945 1.039926,-0.095 0.739696,0 0.98621,0.0331 1.515563,0.20579 0.958037,0.31273 1.889016,1.0755 2.487068,2.03764 1.023801,1.64712 1.385036,4.12542 0.93179,6.39256 -0.516025,2.58117 -1.994017,4.28013 -4.049359,4.65477 -0.311524,0.0568 -1.188537,0.0817 -1.47582,0.0419 v 0 z"
       id="path3012"
       inkscape:connector-curvature="0" />
    <path
       style="fill:#7b7be8;fill-opacity:1;stroke:#000000;stroke-width:0.12388921;stroke-linecap:round;stroke-linejoin:round;stroke-miterlimit:4;stroke-dasharray:none;stroke-dashoffset:0;stroke-opacity:1"
       d="m 13.126075,137.1188 c -0.61691,-0.09 -1.19409,-0.37237 -1.61671,-0.79093 -0.23147,-0.22926 -0.34628,-0.38801 -0.49506,-0.68447 -0.23758,-0.47339 -0.33133,-1.06706 -0.25724,-1.62906 0.0524,-0.39767 0.10923,-0.59375 0.26283,-0.90702 0.11434,-0.23322 0.18285,-0.32716 0.39251,-0.53824 0.29584,-0.29786 0.55692,-0.46175 0.93809,-0.58886 0.55456,-0.18498 1.326,-0.25682 1.82305,-0.16979 0.54207,0.0949 1.05133,0.35715 1.46964,0.75684 0.4074,0.38918 0.66631,0.85768 0.76244,1.3796 0.0264,0.14339 0.0624,0.26077 0.08,0.26077 0.0622,0 0.24792,-0.47141 0.44263,-1.12355 0.23764,-0.7959 0.29919,-1.3356 0.29919,-2.62347 0,-1.40712 -0.0741,-1.95421 -0.39747,-2.93307 -0.20567,-0.62264 -0.28502,-0.814 -0.33749,-0.81384 -0.0245,4e-5 -0.0573,0.0987 -0.0915,0.27508 -0.15882,0.81918 -0.74205,1.53892 -1.5493,1.9119 -0.37326,0.17245 -0.67955,0.23277 -1.17791,0.23196 -1.19628,0 -2.05089,-0.37399 -2.5281,-1.10047 -0.29159,-0.4439 -0.40022,-0.86254 -0.40007,-1.54163 9e-5,-0.36999 0.0116,-0.48834 0.0673,-0.69396 0.28468,-1.05009 1.09223,-1.77076 2.22314,-1.9839 0.21268,-0.04 0.37326,-0.047 0.80127,-0.0344 0.60583,0.0178 0.92684,0.0682 1.39013,0.21795 0.62616,0.20231 1.06532,0.4731 1.60654,0.99049 1.14365,1.09337 1.88652,2.55511 2.13629,4.20361 0.12049,0.79546 0.1072,1.93012 -0.0321,2.73014 -0.22742,1.30671 -0.8102,2.55362 -1.64865,3.52751 -0.91151,1.0587 -1.77218,1.53403 -3.02733,1.67193 -0.33324,0.0368 -0.88091,0.036 -1.13613,0 v 0 z m 1.44101,-0.71178 c 0.24531,-0.0709 0.5062,-0.23879 0.69762,-0.44902 0.28276,-0.31052 0.40146,-0.62584 0.40146,-1.06642 0,-0.475 -0.14393,-0.82241 -0.472,-1.13915 -0.23747,-0.22925 -0.49414,-0.36558 -0.80251,-0.42631 -0.8214,-0.16174 -1.63898,0.32231 -1.86434,1.10379 -0.0678,0.23492 -0.0677,0.65889 6e-5,0.89364 0.17989,0.62305 0.70168,1.07277 1.32476,1.14174 0.25587,0.0283 0.47781,0.0101 0.71495,-0.0583 z m -0.0289,-8.84868 c 0.47661,-0.13981 0.89282,-0.54733 1.039,-1.01728 0.0867,-0.2788 0.10795,-0.68992 0.0477,-0.92439 -0.20599,-0.80205 -1.03295,-1.31875 -1.85224,-1.15733 -0.43833,0.0863 -0.80678,0.32595 -1.04232,0.6778 -0.17875,0.26699 -0.25047,0.51173 -0.25286,0.86273 -0.003,0.49258 0.1461,0.85316 0.48682,1.17458 0.21736,0.20506 0.35908,0.2908 0.62022,0.37521 0.2167,0.0701 0.72856,0.0747 0.95365,0.009 z"
       id="path3016"
       inkscape:connector-curvature="0" />
    <path
       style="fill:#7b7be8;fill-opacity:1;stroke:#000000;stroke-width:0.12388921;stroke-linecap:round;stroke-linejoin:round;stroke-miterlimit:4;stroke-dasharray:none;stroke-dashoffset:0;stroke-opacity:1"
       d="m -3.9198833,137.86003 c -0.0399,-0.057 -0.0463,-0.21965 -0.0463,-1.17661 0,-0.66232 0.0116,-1.13231 0.0289,-1.16456 0.0159,-0.0295 0.0527,-0.0655 0.0818,-0.0796 0.0291,-0.0142 0.81834,-0.0323 1.75392,-0.0406 1.26703998,-0.0113 1.71015998,-0.0242 1.73673998,-0.0508 0.0196,-0.0198 0.0463,-0.0999 0.0592,-0.17843 0.0128,-0.0785 0.0243,-1.18985 0.0253,-2.46973 l 0.002,-2.32698 H -1.4811633 c -0.72123,0 -1.23345,-0.0118 -1.27987,-0.0295 -0.0766,-0.0291 -0.0773,-0.0323 -0.0688,-0.30401 0.008,-0.25908 0.0128,-0.2767 0.0829,-0.31213 0.0561,-0.0283 0.36747,-0.0376 1.27131,-0.038 h 1.19695998 l 1.8e-4,-1.89582 c 1.8e-4,-2.09013 0.0104,-2.24638 0.17943,-2.75237 0.36512504,-1.09296 1.28862502,-1.8039 2.59992502,-2.00148 0.40842,-0.0615 1.11495,-0.0597 1.48789,0.004 1.06352,0.18122 1.89024,0.75053 2.34056,1.61185 0.29704,0.5681 0.4058,1.02589 0.43102,1.81412 0.0189,0.59072 -0.005,0.8256 -0.12911,1.25353 -0.3272,1.13107 -1.30192,2.08633 -2.46053,2.41143 -0.37931,0.10643 -0.89217,0.15742 -2.28504,0.2272 l -0.34855,0.0174 -0.008,2.77023 c -0.005,1.5236 -0.0194,2.79265 -0.033,2.82017 -0.053,0.10718 -0.16993,0.11357 -2.08785502,0.11357 -1.80679998,0 -1.88339998,0.004 -1.95084998,0.0568 -0.07,0.0566 -0.0703,0.0597 -0.0851,0.86508 -0.0148,0.80536 -0.0151,0.80851 -0.0851,0.86507 -0.0634,0.0513 -0.12317,0.0568 -0.61539,0.0568 -0.52965,0 -0.54648,0 -0.59146,-0.0661 z m 6.722735,-8.27586 c 0.59229,-0.0855 0.81671,-0.14873 1.07797,-0.30364 0.37106,-0.21997 0.6247,-0.58067 0.80047,-1.13826 0.14682,-0.46575 0.16989,-0.6616 0.16989,-1.44231 0,-0.94997 -0.0806,-1.43815 -0.33487,-2.02786 -0.19772,-0.45856 -0.4789,-0.79227 -0.80079,-0.95029 -0.1584,-0.0778 -0.19887,-0.0847 -0.48507,-0.0821 -0.23931,0.004 -0.35275,0.0178 -0.48563,0.0661 -0.56591,0.20675 -0.93047,0.80035 -1.1263,1.83395 -0.0579,0.30547 -0.0629,0.45638 -0.0747,2.24282 l -0.0127,1.91533 0.3813,-0.0202 c 0.20972,-0.0108 0.61042,-0.0532 0.89046,-0.0937 z"
       id="path3018"
       inkscape:connector-curvature="0" />
    <path
       style="fill:#7b7be8;fill-opacity:1;stroke:#000000;stroke-width:0.12388921;stroke-linecap:round;stroke-linejoin:round;stroke-miterlimit:4;stroke-dasharray:none;stroke-dashoffset:0;stroke-opacity:1"
       d="m -12.953034,136.95129 c -1.494188,-0.17996 -2.589968,-0.88217 -3.164422,-2.02782 -0.410497,-0.81869 -0.564025,-2.06297 -0.372225,-3.01678 0.306507,-1.52425 1.560679,-2.74764 3.164919,-3.08721 0.09813,-0.0206 0.188255,-0.0461 0.200264,-0.0564 0.01207,-0.0101 -0.748423,-0.99506 -1.689851,-2.18847 -0.941423,-1.19341 -1.744142,-2.233 -1.783821,-2.31013 -0.0847,-0.16469 -0.09047,-0.23872 -0.02295,-0.29472 0.07605,-0.0632 8.9878099,-0.0608 9.0639099,0.004 0.06484,0.0538 0.04717,0.19754 -0.042,0.34183 -0.03402,0.0551 -0.830062,1.07438 -1.768969,2.26516 -0.9389059,1.19079 -1.7015299,2.17409 -1.6947219,2.18508 0.0069,0.0108 0.07611,0.0295 0.154,0.0412 0.352136,0.0526 1.0888863,0.34502 1.4474069,0.5746 1.035966,0.66334 1.692012,1.70907 1.833357,2.92236 0.04423,0.37961 0.01927,0.96932 -0.06089,1.4381 -0.322874,1.88863 -1.611549,3.01763 -3.6836039,3.22725 -0.413697,0.0419 -1.161111,0.0339 -1.580404,-0.0166 v 0 z m 1.45717,-0.6862 c 0.792768,-0.19043 1.400421,-0.81942 1.7281013,-1.78887 0.3304406,-0.97756 0.3335926,-2.43211 0.0072,-3.29998 -0.2996703,-0.79667 -0.8337833,-1.36222 -1.5351993,-1.62554 -0.110778,-0.0416 -0.226835,-0.0756 -0.25791,-0.0756 -0.06458,0 -0.275589,0.23706 -0.416899,0.46838 -0.05246,0.0859 -0.106334,0.15612 -0.119727,0.15612 -0.01344,0 -0.05962,-0.0602 -0.102715,-0.1337 -0.12979,-0.22146 -0.369212,-0.4908 -0.436296,-0.4908 -0.09013,0 -0.429719,0.14082 -0.657472,0.27261 -0.630694,0.36498 -1.105275,1.09668 -1.285959,1.98269 -0.105754,0.51856 -0.107357,1.50082 -0.0032,2.08685 0.150422,0.84807 0.527261,1.58624 1.021653,2.0012 0.544493,0.45706 1.317302,0.6247 2.058694,0.44664 v 0 z m 0.411721,-9.5799 c 0.638116,-1.18726 0.967217,-1.82947 0.977742,-1.90793 0.01436,-0.1076 0.0086,-0.1211 -0.06423,-0.14878 -0.109755,-0.0417 -3.730237,-0.0417 -3.83999,0 -0.07226,0.0275 -0.0786,0.0417 -0.06473,0.14497 0.0098,0.0731 0.340341,0.72067 0.914166,1.79101 1.068642,1.99327 1.036233,1.93561 1.080266,1.92155 0.0192,-0.006 0.467753,-0.81651 0.996788,-1.80082 z"
       id="path3020"
       inkscape:connector-curvature="0" />
    <path
       style="fill:#7b7be8;fill-opacity:1;stroke:#000000;stroke-width:0.12388921;stroke-linecap:round;stroke-linejoin:round;stroke-miterlimit:4;stroke-dasharray:none;stroke-dashoffset:0;stroke-opacity:1"
       d="m -30.525169,136.82222 c -0.329125,-0.11645 -0.387793,-0.5039 -0.182357,-1.20432 0.08778,-0.29929 4.716878,-11.29417 4.823508,-11.45664 l 0.07319,-0.11153 h 0.430095 c 0.413217,0 0.431815,0.004 0.473914,0.0669 0.02408,0.0368 1.057552,2.76344 2.29656,6.05918 2.069223,5.50409 2.253707,6.00944 2.264604,6.20347 0.01451,0.25718 -0.03871,0.38276 -0.188512,0.44534 -0.151262,0.0632 -9.812134,0.0609 -9.991005,-0.004 v 0 z m 3.672664,-2.88745 c 0,-1.95485 -0.006,-2.26067 -0.04543,-2.34391 -0.0385,-0.0812 -0.112061,-0.12796 -0.483239,-0.30756 -0.240799,-0.11649 -0.467425,-0.22005 -0.503608,-0.23011 -0.1129,-0.0315 -0.175238,0.0335 -0.291399,0.30364 -0.250133,0.58144 -1.597851,3.98979 -1.637396,4.14094 -0.08793,0.33609 -0.04245,0.59141 0.116826,0.65566 0.03508,0.0142 0.689341,0.0267 1.453989,0.0275 h 1.390256 v -2.24815 0 z m 4.318664,2.16544 c 0.08812,-0.0883 0.08605,-0.30251 -0.0058,-0.6062 -0.07193,-0.2377 -1.536832,-4.10206 -1.6255,-4.28801 -0.05206,-0.10917 -0.05966,-0.11357 -0.170758,-0.0987 -0.119467,0.0162 -0.627878,0.24922 -0.900631,0.41307 -0.08442,0.0507 -0.168057,0.1242 -0.185863,0.16327 -0.02242,0.0492 -0.03236,0.75235 -0.03236,2.28601 v 2.2149 l 1.426626,-0.008 1.426626,-0.009 0.06771,-0.0678 z m -3.191667,-5.10476 c 0.13735,-0.0557 0.467857,-0.20603 0.734467,-0.33407 0.413135,-0.19839 0.484976,-0.2428 0.486299,-0.30041 0.0017,-0.0679 -1.320705,-3.69806 -1.409661,-3.87006 -0.0261,-0.0505 -0.067,-0.0918 -0.09083,-0.0918 -0.06434,0 -0.120353,0.12481 -0.919605,2.04879 -0.529152,1.27381 -0.731219,1.79201 -0.72473,1.85864 0.0086,0.0882 0.03462,0.10513 0.583211,0.37872 0.575807,0.28716 0.878072,0.40926 1.016779,0.41072 0.0409,0 0.186721,-0.0448 0.324066,-0.10049 z"
       id="path3022"
       inkscape:connector-curvature="0" />
  </g>
</svg>
