<?xml version="1.0" encoding="UTF-8" standalone="no"?>
<!-- Created with Inkscape (http://www.inkscape.org/) -->

<svg
   xmlns:dc="http://purl.org/dc/elements/1.1/"
   xmlns:cc="http://creativecommons.org/ns#"
   xmlns:rdf="http://www.w3.org/1999/02/22-rdf-syntax-ns#"
   xmlns:svg="http://www.w3.org/2000/svg"
   xmlns="http://www.w3.org/2000/svg"
   xmlns:sodipodi="http://sodipodi.sourceforge.net/DTD/sodipodi-0.dtd"
   xmlns:inkscape="http://www.inkscape.org/namespaces/inkscape"
   width="100"
   height="100"
   viewBox="0 0 26.458333 26.458333"
   version="1.1"
   id="svg5178"
   inkscape:version="0.92.3 (2405546, 2018-03-11)"
   sodipodi:docname="template2.svg">
  <defs
     id="defs5172" />
  <sodipodi:namedview
     id="base"
     pagecolor="#ffffff"
     bordercolor="#666666"
     borderopacity="1.0"
     inkscape:pageopacity="0.0"
     inkscape:pageshadow="2"
     inkscape:zoom="6.728563"
     inkscape:cx="5.8034234"
     inkscape:cy="40.538845"
     inkscape:document-units="mm"
     inkscape:current-layer="layer1"
     showgrid="false"
     units="px"
     inkscape:window-width="1920"
     inkscape:window-height="1017"
     inkscape:window-x="-8"
     inkscape:window-y="-8"
     inkscape:window-maximized="1"
     inkscape:snap-global="false"
     showguides="true"
     inkscape:guide-bbox="true">
    <sodipodi:guide
       position="7.8430059,-2.9293154"
       orientation="0,1"
       id="guide7436"
       inkscape:locked="false" />
  </sodipodi:namedview>
  <metadata
     id="metadata5175">
    <rdf:RDF>
      <cc:Work
         rdf:about="">
        <dc:format>image/svg+xml</dc:format>
        <dc:type
           rdf:resource="http://purl.org/dc/dcmitype/StillImage" />
        <dc:title />
      </cc:Work>
    </rdf:RDF>
  </metadata>
  <g
     inkscape:label="Layer 1"
     inkscape:groupmode="layer"
     id="layer1"
     transform="translate(0,-270.54167)">
    <circle
       style="opacity:1;vector-effect:none;fill:#000000;fill-opacity:1;fill-rule:nonzero;stroke:none;stroke-width:0.24100003;stroke-linecap:butt;stroke-linejoin:miter;stroke-miterlimit:4;stroke-dasharray:none;stroke-dashoffset:0;stroke-opacity:1"
       id="path5798-6"
       cx="13.229167"
       cy="283.77084"
       r="13.229167" />
    <path
       style="opacity:1;vector-effect:none;fill:#000000;fill-opacity:1;fill-rule:nonzero;stroke:none;stroke-width:0.26458332px;stroke-linecap:butt;stroke-linejoin:miter;stroke-miterlimit:4;stroke-dasharray:none;stroke-dashoffset:0;stroke-opacity:1"
       d="m 17.742964,271.40775 c -0.459042,0.27104 -1.037,0.59872 -1.613555,0.87094 0.249758,0.455 0.601858,0.88085 0.867697,1.17669 l -3.767742,9.13653 -3.7825658,-9.17174 c 0.2685541,-0.27449 0.6210608,-0.66485 0.8862278,-1.08913 -0.5800756,-0.28436 -1.1733131,-0.63266 -1.6432042,-0.92051 a 13.177409,13.177409 0 0 0 -1.071534,0.45215 c -0.130668,0.50462 -0.2962798,1.10521 -0.5049598,1.6872 0.5263472,0.1533 1.1087288,0.2025 1.5065406,0.22098 l 3.7825664,9.17267 -9.2069467,-3.79693 c -0.00132,-0.38573 -0.024001,-0.94286 -0.1436124,-1.46114 -0.5929889,0.20285 -1.2123644,0.36337 -1.7353941,0.48968 a 13.177409,13.177409 0 0 0 -0.47855364,1.16047 c 0.25718394,0.44006 0.55006364,0.96048 0.79913364,1.48801 0.4527587,-0.24852 0.8766878,-0.59895 1.172526,-0.86445 l 9.2416912,3.81129 -9.2097258,3.79785 c -0.2725847,-0.27219 -0.6915176,-0.66014 -1.1526056,-0.9483 -0.2720095,0.55488 -0.5888351,1.09419 -0.86630721,1.54916 a 13.177409,13.177409 0 0 0 0.48828221,1.18781 c 0.4891761,0.12885 1.056715,0.28858 1.5968776,0.48226 0.1411205,-0.48456 0.1947418,-1.0203 0.2172717,-1.41574 l 9.2773631,-3.82612 -3.7774703,9.1597 c -0.3764187,-0.004 -1.0060407,0.0113 -1.5815898,0.14408 0.2054833,0.60066 0.3625813,1.21139 0.4882823,1.73353 a 13.177409,13.177409 0 0 0 1.1484359,0.48551 c 0.4415802,-0.25757 0.9791835,-0.55765 1.5014449,-0.80423 -0.2200902,-0.40096 -0.5286142,-0.79209 -0.7810663,-1.08218 l 3.8288923,-9.28478 3.754771,9.10502 c -0.269782,0.26551 -0.696994,0.71481 -1.006214,1.20959 0.59517,0.29176 1.167913,0.63146 1.634865,0.91866 a 13.177409,13.177409 0 0 0 1.071997,-0.43454 c 0.132108,-0.5066 0.309013,-1.13453 0.512836,-1.70297 -0.44652,-0.13005 -0.947117,-0.18758 -1.333279,-0.21357 l -3.808046,-9.23382 9.059165,3.73578 c -0.0034,0.37724 0.01185,1.00314 0.144076,1.57604 0.653943,-0.22372 1.330633,-0.39441 1.87252,-0.52211 a 13.177409,13.177409 0 0 0 0.428521,-1.01733 l -0.03521,-0.0144 c -0.26658,-0.4541 -0.590645,-1.03192 -0.851482,-1.58438 -0.403437,0.22145 -0.795288,0.53195 -1.085895,0.78524 l -9.18054,-3.78581 9.067503,-3.73901 c 0.272985,0.27212 0.689139,0.65702 1.147047,0.9432 0.305896,-0.62402 0.676735,-1.24814 0.972858,-1.72706 a 13.177409,13.177409 0 0 0 -0.399335,-0.9571 c -0.521207,-0.13372 -1.181636,-0.31609 -1.792376,-0.53507 -0.14216,0.48814 -0.195544,1.02718 -0.217735,1.42315 l -9.129118,3.76496 3.755234,-9.10641 c 0.385764,-0.002 0.940279,-0.0246 1.456045,-0.14362 -0.220129,-0.64347 -0.396282,-1.33149 -0.525344,-1.87577 a 13.177409,13.177409 0 0 0 -0.999265,-0.40998 z"
       id="rect7220"
       inkscape:connector-curvature="0" />
    <circle
       r="6.4913564"
       cy="127.01601"
       cx="258.1319"
       id="circle8267"
       style="opacity:1;vector-effect:none;fill:#ff0000;fill-opacity:1;fill-rule:nonzero;stroke:none;stroke-width:0.26458332px;stroke-linecap:butt;stroke-linejoin:miter;stroke-miterlimit:4;stroke-dasharray:none;stroke-dashoffset:0;stroke-opacity:1"
       transform="rotate(59.999999)" />
    <circle
       style="opacity:1;vector-effect:none;fill:#ff0000;fill-opacity:1;fill-rule:nonzero;stroke:none;stroke-width:0.26458332px;stroke-linecap:butt;stroke-linejoin:miter;stroke-miterlimit:4;stroke-dasharray:none;stroke-dashoffset:0;stroke-opacity:1"
       id="path8250-1"
       cx="247.00327"
       cy="127.01601"
       r="6.4913564"
       transform="rotate(59.999999)" />
    <circle
       r="6.4913564"
       cy="-150.41159"
       cx="244.61362"
       id="circle8267-9"
       style="opacity:1;vector-effect:none;fill:#ff0000;fill-opacity:1;fill-rule:nonzero;stroke:none;stroke-width:0.26458332px;stroke-linecap:butt;stroke-linejoin:miter;stroke-miterlimit:4;stroke-dasharray:none;stroke-dashoffset:0;stroke-opacity:1"
       transform="rotate(120)" />
    <circle
       r="5.5825663"
       cy="127.01601"
       cx="258.1319"
       id="circle8267-1"
       style="opacity:1;vector-effect:none;fill:#00ffff;fill-opacity:1;fill-rule:nonzero;stroke:none;stroke-width:0.26458332px;stroke-linecap:butt;stroke-linejoin:miter;stroke-miterlimit:4;stroke-dasharray:none;stroke-dashoffset:0;stroke-opacity:1"
       transform="rotate(59.999999)" />
    <circle
       style="opacity:1;vector-effect:none;fill:#00ffff;fill-opacity:1;fill-rule:nonzero;stroke:none;stroke-width:0.26458332px;stroke-linecap:butt;stroke-linejoin:miter;stroke-miterlimit:4;stroke-dasharray:none;stroke-dashoffset:0;stroke-opacity:1"
       id="path8250-1-7"
       cx="247.00327"
       cy="127.01601"
       r="5.5825663"
       transform="rotate(59.999999)" />
    <circle
       r="5.5825663"
       cy="-150.41159"
       cx="244.61362"
       id="circle8267-9-1"
       style="opacity:1;vector-effect:none;fill:#00ffff;fill-opacity:1;fill-rule:nonzero;stroke:none;stroke-width:0.26458332px;stroke-linecap:butt;stroke-linejoin:miter;stroke-miterlimit:4;stroke-dasharray:none;stroke-dashoffset:0;stroke-opacity:1"
       transform="rotate(120)" />
    <g
       id="g8612">
      <circle
         transform="scale(1,-1)"
         style="opacity:1;vector-effect:none;fill:#ff0000;fill-opacity:1;fill-rule:nonzero;stroke:none;stroke-width:0.26458332px;stroke-linecap:butt;stroke-linejoin:miter;stroke-miterlimit:4;stroke-dasharray:none;stroke-dashoffset:0;stroke-opacity:1"
         id="circle8267-17"
         cx="14.334547"
         cy="-295.29761"
         r="1.235793" />
      <circle
         transform="scale(1,-1)"
         r="1.235793"
         cy="-295.29761"
         cx="12.215937"
         id="path8250-1-8"
         style="opacity:1;vector-effect:none;fill:#ff0000;fill-opacity:1;fill-rule:nonzero;stroke:none;stroke-width:0.26458332px;stroke-linecap:butt;stroke-linejoin:miter;stroke-miterlimit:4;stroke-dasharray:none;stroke-dashoffset:0;stroke-opacity:1" />
      <circle
         transform="matrix(0.5,-0.8660254,-0.8660254,-0.5,0,0)"
         style="opacity:1;vector-effect:none;fill:#ff0000;fill-opacity:1;fill-rule:nonzero;stroke:none;stroke-width:0.26458332px;stroke-linecap:butt;stroke-linejoin:miter;stroke-miterlimit:4;stroke-dasharray:none;stroke-dashoffset:0;stroke-opacity:1"
         id="circle8267-9-4"
         cx="-247.51169"
         cy="-158.22975"
         r="1.235793" />
    </g>
    <g
       id="g8623"
       style="fill:#00ff00;fill-opacity:1">
      <circle
         r="2.0273032"
         cy="-151.38005"
         cx="-231.43956"
         id="circle8535"
         style="opacity:1;vector-effect:none;fill:#00ff00;fill-opacity:1;fill-rule:nonzero;stroke:none;stroke-width:0.26458332px;stroke-linecap:butt;stroke-linejoin:miter;stroke-miterlimit:4;stroke-dasharray:none;stroke-dashoffset:0;stroke-opacity:1"
         transform="matrix(0.50000002,-0.86602539,-0.86602539,-0.50000002,0,0)" />
      <circle
         r="2.0273032"
         cy="-245.74942"
         cx="-148.5112"
         id="circle8541"
         style="opacity:1;vector-effect:none;fill:#00ff00;fill-opacity:1;fill-rule:nonzero;stroke:none;stroke-width:0.26458332px;stroke-linecap:butt;stroke-linejoin:miter;stroke-miterlimit:4;stroke-dasharray:none;stroke-dashoffset:0;stroke-opacity:1"
         transform="rotate(-150)" />
      <circle
         style="opacity:1;vector-effect:none;fill:#00ff00;fill-opacity:1;fill-rule:nonzero;stroke:none;stroke-width:0.26458332px;stroke-linecap:butt;stroke-linejoin:miter;stroke-miterlimit:4;stroke-dasharray:none;stroke-dashoffset:0;stroke-opacity:1"
         id="circle8537"
         cx="-234.91512"
         cy="-151.38005"
         r="2.0273032"
         transform="matrix(0.50000002,-0.86602539,-0.86602539,-0.50000002,0,0)" />
      <circle
         style="opacity:1;vector-effect:none;fill:#00ff00;fill-opacity:1;fill-rule:nonzero;stroke:none;stroke-width:0.26458332px;stroke-linecap:butt;stroke-linejoin:miter;stroke-miterlimit:4;stroke-dasharray:none;stroke-dashoffset:0;stroke-opacity:1"
         id="circle8543"
         cx="-151.98677"
         cy="-245.74942"
         r="2.0273032"
         transform="rotate(-150)" />
      <circle
         r="2.0273032"
         cy="127.74979"
         cx="-245.08592"
         id="circle8539"
         style="opacity:1;vector-effect:none;fill:#00ff00;fill-opacity:1;fill-rule:nonzero;stroke:none;stroke-width:0.26458332px;stroke-linecap:butt;stroke-linejoin:miter;stroke-miterlimit:4;stroke-dasharray:none;stroke-dashoffset:0;stroke-opacity:1"
         transform="matrix(-0.5,-0.8660254,-0.8660254,0.5,0,0)" />
      <circle
         r="2.0273032"
         cy="8.7470455"
         cx="-285.34802"
         id="circle8545"
         style="opacity:1;vector-effect:none;fill:#00ff00;fill-opacity:1;fill-rule:nonzero;stroke:none;stroke-width:0.26458332px;stroke-linecap:butt;stroke-linejoin:miter;stroke-miterlimit:4;stroke-dasharray:none;stroke-dashoffset:0;stroke-opacity:1"
         transform="rotate(-90)" />
      <circle
         r="2.0273032"
         cy="-259.28476"
         cx="-125.12273"
         id="circle8541-5"
         style="opacity:1;vector-effect:none;fill:#00ff00;fill-opacity:1;fill-rule:nonzero;stroke:none;stroke-width:0.26458332px;stroke-linecap:butt;stroke-linejoin:miter;stroke-miterlimit:4;stroke-dasharray:none;stroke-dashoffset:0;stroke-opacity:1"
         transform="matrix(0.8660254,-0.5,-0.5,-0.8660254,0,0)" />
      <circle
         style="opacity:1;vector-effect:none;fill:#00ff00;fill-opacity:1;fill-rule:nonzero;stroke:none;stroke-width:0.26458332px;stroke-linecap:butt;stroke-linejoin:miter;stroke-miterlimit:4;stroke-dasharray:none;stroke-dashoffset:0;stroke-opacity:1"
         id="circle8543-9"
         cx="-128.5983"
         cy="-259.28476"
         r="2.0273032"
         transform="matrix(0.8660254,-0.5,-0.5,-0.8660254,0,0)" />
      <circle
         r="2.0273032"
         cy="-18.275631"
         cx="-285.3757"
         id="circle8545-5"
         style="opacity:1;vector-effect:none;fill:#00ff00;fill-opacity:1;fill-rule:nonzero;stroke:none;stroke-width:0.26458332px;stroke-linecap:butt;stroke-linejoin:miter;stroke-miterlimit:4;stroke-dasharray:none;stroke-dashoffset:0;stroke-opacity:1"
         transform="matrix(0,-1,-1,0,0,0)" />
    </g>
    <g
       id="g8607"
       transform="translate(0,-0.10218479)">
      <circle
         transform="rotate(59.674148)"
         style="opacity:1;vector-effect:none;fill:#ff0000;fill-opacity:1;fill-rule:nonzero;stroke:none;stroke-width:0.26458332px;stroke-linecap:butt;stroke-linejoin:miter;stroke-miterlimit:4;stroke-dasharray:none;stroke-dashoffset:0;stroke-opacity:1"
         id="circle8267-17-9"
         cx="253.03079"
         cy="120.41591"
         r="1.235793" />
      <circle
         transform="rotate(59.674148)"
         r="1.235793"
         cy="120.41591"
         cx="250.91219"
         id="path8250-1-8-0"
         style="opacity:1;vector-effect:none;fill:#ff0000;fill-opacity:1;fill-rule:nonzero;stroke:none;stroke-width:0.26458332px;stroke-linecap:butt;stroke-linejoin:miter;stroke-miterlimit:4;stroke-dasharray:none;stroke-dashoffset:0;stroke-opacity:1" />
      <circle
         transform="rotate(119.67415)"
         style="opacity:1;vector-effect:none;fill:#ff0000;fill-opacity:1;fill-rule:nonzero;stroke:none;stroke-width:0.26458332px;stroke-linecap:butt;stroke-linejoin:miter;stroke-miterlimit:4;stroke-dasharray:none;stroke-dashoffset:0;stroke-opacity:1"
         id="circle8267-9-4-1"
         cx="231.85492"
         cy="-157.08998"
         r="1.235793" />
    </g>
    <g
       id="g8602"
       transform="translate(0,0.10598546)">
      <circle
         transform="scale(1,-1)"
         style="opacity:1;vector-effect:none;fill:#ff0000;fill-opacity:1;fill-rule:nonzero;stroke:none;stroke-width:0.26458332px;stroke-linecap:butt;stroke-linejoin:miter;stroke-miterlimit:4;stroke-dasharray:none;stroke-dashoffset:0;stroke-opacity:1"
         id="circle8267-17-4"
         cx="5.2019835"
         cy="-279.00635"
         r="1.235793" />
      <circle
         transform="scale(1,-1)"
         r="1.235793"
         cy="-279.00635"
         cx="3.0833731"
         id="path8250-1-8-6"
         style="opacity:1;vector-effect:none;fill:#ff0000;fill-opacity:1;fill-rule:nonzero;stroke:none;stroke-width:0.26458332px;stroke-linecap:butt;stroke-linejoin:miter;stroke-miterlimit:4;stroke-dasharray:none;stroke-dashoffset:0;stroke-opacity:1" />
      <circle
         transform="matrix(0.5,-0.8660254,-0.8660254,-0.5,0,0)"
         style="opacity:1;vector-effect:none;fill:#ff0000;fill-opacity:1;fill-rule:nonzero;stroke:none;stroke-width:0.26458332px;stroke-linecap:butt;stroke-linejoin:miter;stroke-miterlimit:4;stroke-dasharray:none;stroke-dashoffset:0;stroke-opacity:1"
         id="circle8267-9-4-5"
         cx="-237.96931"
         cy="-142.17508"
         r="1.235793" />
    </g>
  </g>
</svg>
