<?xml version="1.0" encoding="UTF-8" standalone="no"?>
<!-- Created with Inkscape (http://www.inkscape.org/) -->

<svg
   xmlns:dc="http://purl.org/dc/elements/1.1/"
   xmlns:cc="http://creativecommons.org/ns#"
   xmlns:rdf="http://www.w3.org/1999/02/22-rdf-syntax-ns#"
   xmlns:svg="http://www.w3.org/2000/svg"
   xmlns="http://www.w3.org/2000/svg"
   xmlns:sodipodi="http://sodipodi.sourceforge.net/DTD/sodipodi-0.dtd"
   xmlns:inkscape="http://www.inkscape.org/namespaces/inkscape"
   width="100"
   height="100"
   viewBox="0 0 26.458333 26.458333"
   version="1.1"
   id="svg5178"
   inkscape:version="0.92.3 (2405546, 2018-03-11)"
   sodipodi:docname="template1.svg">
  <defs
     id="defs5172" />
  <sodipodi:namedview
     id="base"
     pagecolor="#ffffff"
     bordercolor="#666666"
     borderopacity="1.0"
     inkscape:pageopacity="0.0"
     inkscape:pageshadow="2"
     inkscape:zoom="3.3642815"
     inkscape:cx="132.12464"
     inkscape:cy="10.490177"
     inkscape:document-units="mm"
     inkscape:current-layer="layer1"
     showgrid="false"
     units="px"
     inkscape:window-width="1920"
     inkscape:window-height="1017"
     inkscape:window-x="-8"
     inkscape:window-y="-8"
     inkscape:window-maximized="1"
     inkscape:snap-global="false"
     showguides="true"
     inkscape:guide-bbox="true">
    <sodipodi:guide
       position="7.8430059,-2.9293154"
       orientation="0,1"
       id="guide7436"
       inkscape:locked="false" />
  </sodipodi:namedview>
  <metadata
     id="metadata5175">
    <rdf:RDF>
      <cc:Work
         rdf:about="">
        <dc:format>image/svg+xml</dc:format>
        <dc:type
           rdf:resource="http://purl.org/dc/dcmitype/StillImage" />
        <dc:title />
      </cc:Work>
    </rdf:RDF>
  </metadata>
  <g
     inkscape:label="Layer 1"
     inkscape:groupmode="layer"
     id="layer1"
     transform="translate(0,-270.54167)">
    <circle
       style="opacity:1;vector-effect:none;fill:#000000;fill-opacity:1;fill-rule:nonzero;stroke:none;stroke-width:0.24100003;stroke-linecap:butt;stroke-linejoin:miter;stroke-miterlimit:4;stroke-dasharray:none;stroke-dashoffset:0;stroke-opacity:1"
       id="path5798-6-7"
       cx="13.229167"
       cy="283.77084"
       r="13.229167" />
    <path
       style="opacity:1;vector-effect:none;fill:#00ff00;fill-opacity:1;fill-rule:nonzero;stroke:none;stroke-width:0.24100001;stroke-linecap:butt;stroke-linejoin:miter;stroke-miterlimit:4;stroke-dasharray:none;stroke-dashoffset:0;stroke-opacity:1"
       d="m 15.951225,272.48844 a 6.1320721,6.1320721 0 0 1 3.331887,5.45422 6.1320721,6.1320721 0 0 1 5.292981,3.04799 11.760139,11.760139 0 0 0 -8.624868,-8.50221 z m -5.650379,0.0299 a 11.760139,11.760139 0 0 0 -8.4186054,8.21051 6.1320721,6.1320721 0 0 1 5.136792,-2.78615 6.1320721,6.1320721 0 0 1 3.2818134,-5.42436 z m 14.107114,14.9193 a 6.1320721,6.1320721 0 0 1 -5.124848,2.76914 6.1320721,6.1320721 0 0 1 -2.386941,4.84647 11.760139,11.760139 0 0 0 7.511789,-7.61561 z m -22.3350765,0.25082 a 11.760139,11.760139 0 0 0 7.2540764,7.31058 6.1320721,6.1320721 0 0 1 -2.3079273,-4.79226 6.1320721,6.1320721 0 0 1 -4.9461491,-2.51832 z"
       id="path5798-6"
       inkscape:connector-curvature="0" />
    <circle
       style="opacity:1;vector-effect:none;fill:#00ffff;fill-opacity:1;fill-rule:nonzero;stroke:none;stroke-width:0.26458332px;stroke-linecap:butt;stroke-linejoin:miter;stroke-miterlimit:4;stroke-dasharray:none;stroke-dashoffset:0;stroke-opacity:1"
       id="path8875"
       cx="13.129615"
       cy="275.85229"
       r="3.6415472" />
    <circle
       style="opacity:1;vector-effect:none;fill:#00ffff;fill-opacity:1;fill-rule:nonzero;stroke:none;stroke-width:0.26458332px;stroke-linecap:butt;stroke-linejoin:miter;stroke-miterlimit:4;stroke-dasharray:none;stroke-dashoffset:0;stroke-opacity:1"
       id="path8875-9"
       cx="13.056253"
       cy="292.26868"
       r="3.6415474" />
    <path
       style="opacity:1;vector-effect:none;fill:#00ffff;fill-opacity:1;fill-rule:nonzero;stroke:none;stroke-width:0.26458332px;stroke-linecap:butt;stroke-linejoin:miter;stroke-miterlimit:4;stroke-dasharray:none;stroke-dashoffset:0;stroke-opacity:1"
       d="M 13.227626,273.03998 A 19.345355,19.345355 0 0 1 2.4998482,283.77388 19.345355,19.345355 0 0 1 13.230708,294.5017 19.345355,19.345355 0 0 1 23.958486,283.76774 19.345355,19.345355 0 0 1 13.227626,273.03998 Z"
       id="path8735"
       inkscape:connector-curvature="0" />
    <circle
       style="opacity:1;vector-effect:none;fill:#00ffff;fill-opacity:1;fill-rule:nonzero;stroke:none;stroke-width:0.26458332px;stroke-linecap:butt;stroke-linejoin:miter;stroke-miterlimit:4;stroke-dasharray:none;stroke-dashoffset:0;stroke-opacity:1"
       id="path8875-9-6"
       cx="21.589741"
       cy="283.67352"
       r="3.6415479" />
    <circle
       style="opacity:1;vector-effect:none;fill:#00ffff;fill-opacity:1;fill-rule:nonzero;stroke:none;stroke-width:0.26458332px;stroke-linecap:butt;stroke-linejoin:miter;stroke-miterlimit:4;stroke-dasharray:none;stroke-dashoffset:0;stroke-opacity:1"
       id="path8875-9-8"
       cx="5.1187572"
       cy="283.80188"
       r="3.6415479" />
    <path
       style="opacity:1;vector-effect:none;fill:#ff0000;fill-opacity:1;fill-rule:nonzero;stroke:none;stroke-width:0.26458332px;stroke-linecap:butt;stroke-linejoin:miter;stroke-miterlimit:4;stroke-dasharray:none;stroke-dashoffset:0;stroke-opacity:1"
       d="m 13.227933,275.17814 a 15.490735,15.490735 0 0 1 -8.5902357,8.59513 15.490735,15.490735 0 0 1 8.5927037,8.59027 15.490735,15.490735 0 0 1 8.590236,-8.59518 15.490735,15.490735 0 0 1 -8.592704,-8.59022 z"
       id="path8735-9"
       inkscape:connector-curvature="0" />
    <path
       style="opacity:1;vector-effect:none;fill:#00ff00;fill-opacity:1;fill-rule:nonzero;stroke:none;stroke-width:0.26458332px;stroke-linecap:butt;stroke-linejoin:miter;stroke-miterlimit:4;stroke-dasharray:none;stroke-dashoffset:0;stroke-opacity:1"
       d="m 14.630603,282.16771 a 11.355083,11.355083 0 0 1 -1.46974,-2.5766 11.355083,11.355083 0 0 1 -1.46558,2.57433 11.355083,11.355083 0 0 1 1.46937,2.57622 11.355083,11.355083 0 0 1 1.46595,-2.57395 z"
       id="path8871"
       inkscape:connector-curvature="0" />
    <path
       inkscape:connector-curvature="0"
       id="path8869"
       d="m 10.702769,282.10189 a 11.355083,11.355083 0 0 1 -2.5766019,1.46974 11.355083,11.355083 0 0 1 2.5743309,1.46558 11.355083,11.355083 0 0 1 2.576223,-1.46937 11.355083,11.355083 0 0 1 -2.573952,-1.46595 z"
       style="opacity:1;vector-effect:none;fill:#00ff00;fill-opacity:1;fill-rule:nonzero;stroke:none;stroke-width:0.26458332px;stroke-linecap:butt;stroke-linejoin:miter;stroke-miterlimit:4;stroke-dasharray:none;stroke-dashoffset:0;stroke-opacity:1" />
    <path
       inkscape:connector-curvature="0"
       id="path8873"
       d="m 14.630603,284.97404 a 11.355083,11.355083 0 0 1 -1.46974,-2.5766 11.355083,11.355083 0 0 1 -1.46558,2.57433 11.355083,11.355083 0 0 1 1.46937,2.57622 11.355083,11.355083 0 0 1 1.46595,-2.57395 z"
       style="opacity:1;vector-effect:none;fill:#00ff00;fill-opacity:1;fill-rule:nonzero;stroke:none;stroke-width:0.26458332px;stroke-linecap:butt;stroke-linejoin:miter;stroke-miterlimit:4;stroke-dasharray:none;stroke-dashoffset:0;stroke-opacity:1" />
    <path
       style="opacity:1;vector-effect:none;fill:#00ff00;fill-opacity:1;fill-rule:nonzero;stroke:none;stroke-width:0.26458332px;stroke-linecap:butt;stroke-linejoin:miter;stroke-miterlimit:4;stroke-dasharray:none;stroke-dashoffset:0;stroke-opacity:1"
       d="m 15.625767,282.10189 a 11.355083,11.355083 0 0 1 -2.576602,1.46974 11.355083,11.355083 0 0 1 2.574331,1.46558 11.355083,11.355083 0 0 1 2.576223,-1.46937 11.355083,11.355083 0 0 1 -2.573952,-1.46595 z"
       id="path8735-9-8"
       inkscape:connector-curvature="0" />
    <circle
       style="opacity:1;vector-effect:none;fill:#ff0000;fill-opacity:1;fill-rule:nonzero;stroke:none;stroke-width:0.26458332px;stroke-linecap:butt;stroke-linejoin:miter;stroke-miterlimit:4;stroke-dasharray:none;stroke-dashoffset:0;stroke-opacity:1"
       id="path8875-8"
       cx="13.263249"
       cy="275.65186"
       r="0.69305694" />
    <circle
       style="opacity:1;vector-effect:none;fill:#ff0000;fill-opacity:1;fill-rule:nonzero;stroke:none;stroke-width:0.26458332px;stroke-linecap:butt;stroke-linejoin:miter;stroke-miterlimit:4;stroke-dasharray:none;stroke-dashoffset:0;stroke-opacity:1"
       id="path8875-9-3"
       cx="13.189888"
       cy="292.06824"
       r="0.69305718" />
    <circle
       style="opacity:1;vector-effect:none;fill:#ff0000;fill-opacity:1;fill-rule:nonzero;stroke:none;stroke-width:0.26458332px;stroke-linecap:butt;stroke-linejoin:miter;stroke-miterlimit:4;stroke-dasharray:none;stroke-dashoffset:0;stroke-opacity:1"
       id="path8875-9-6-8"
       cx="21.723375"
       cy="283.47308"
       r="0.69305718" />
    <circle
       style="opacity:1;vector-effect:none;fill:#ff0000;fill-opacity:1;fill-rule:nonzero;stroke:none;stroke-width:0.26458332px;stroke-linecap:butt;stroke-linejoin:miter;stroke-miterlimit:4;stroke-dasharray:none;stroke-dashoffset:0;stroke-opacity:1"
       id="path8875-9-8-9"
       cx="5.2523918"
       cy="283.60144"
       r="0.69305718" />
  </g>
</svg>
