<?xml version="1.0" encoding="UTF-8" standalone="no"?>
<!-- Created with Inkscape (http://www.inkscape.org/) -->

<svg
   xmlns:dc="http://purl.org/dc/elements/1.1/"
   xmlns:cc="http://creativecommons.org/ns#"
   xmlns:rdf="http://www.w3.org/1999/02/22-rdf-syntax-ns#"
   xmlns:svg="http://www.w3.org/2000/svg"
   xmlns="http://www.w3.org/2000/svg"
   xmlns:sodipodi="http://sodipodi.sourceforge.net/DTD/sodipodi-0.dtd"
   xmlns:inkscape="http://www.inkscape.org/namespaces/inkscape"
   width="100"
   height="100"
   viewBox="0 0 26.458333 26.458333"
   version="1.1"
   id="svg5178"
   inkscape:version="0.92.3 (2405546, 2018-03-11)"
   sodipodi:docname="template3.svg">
  <defs
     id="defs5172" />
  <sodipodi:namedview
     id="base"
     pagecolor="#ffffff"
     bordercolor="#666666"
     borderopacity="1.0"
     inkscape:pageopacity="0.0"
     inkscape:pageshadow="2"
     inkscape:zoom="4.7578125"
     inkscape:cx="77.790806"
     inkscape:cy="55.961285"
     inkscape:document-units="mm"
     inkscape:current-layer="layer1"
     showgrid="false"
     units="px"
     inkscape:window-width="1920"
     inkscape:window-height="1017"
     inkscape:window-x="-8"
     inkscape:window-y="-8"
     inkscape:window-maximized="1"
     inkscape:snap-global="false"
     showguides="true"
     inkscape:guide-bbox="true">
    <sodipodi:guide
       position="7.8430059,-2.9293154"
       orientation="0,1"
       id="guide7436"
       inkscape:locked="false" />
  </sodipodi:namedview>
  <metadata
     id="metadata5175">
    <rdf:RDF>
      <cc:Work
         rdf:about="">
        <dc:format>image/svg+xml</dc:format>
        <dc:type
           rdf:resource="http://purl.org/dc/dcmitype/StillImage" />
        <dc:title />
      </cc:Work>
    </rdf:RDF>
  </metadata>
  <g
     inkscape:label="Layer 1"
     inkscape:groupmode="layer"
     id="layer1"
     transform="translate(0,-270.54167)">
    <circle
       style="opacity:1;vector-effect:none;fill:#000000;fill-opacity:1;fill-rule:nonzero;stroke:none;stroke-width:0.24100003;stroke-linecap:butt;stroke-linejoin:miter;stroke-miterlimit:4;stroke-dasharray:none;stroke-dashoffset:0;stroke-opacity:1"
       id="path5798-6"
       cx="13.229167"
       cy="283.77084"
       r="13.229167" />
    <circle
       style="opacity:1;vector-effect:none;fill:#ff0000;fill-opacity:1;fill-rule:nonzero;stroke:none;stroke-width:0.241;stroke-linecap:butt;stroke-linejoin:miter;stroke-miterlimit:4;stroke-dasharray:none;stroke-dashoffset:0;stroke-opacity:1"
       id="path5798"
       cx="13.229167"
       cy="283.77084"
       r="11.746009" />
    <g
       id="g6776"
       transform="matrix(0.88788726,0,0,0.88788726,1.6929083,31.825863)"
       style="stroke-width:1.1262691">
      <path
         sodipodi:nodetypes="scscs"
         inkscape:connector-curvature="0"
         d="m 16.424703,273.52577 c 0.870436,2.97642 -3.431771,8.64717 -3.431771,8.64717 0,0 -4.3022077,-5.67075 -3.4317707,-8.64717 0.3956375,-1.35286 3.4317707,-2.47061 3.4317707,-2.47061 0,0 3.036133,1.11775 3.431771,2.47061 z"
         id="path6696" />
      <path
         id="path6698"
         d="m 16.424703,273.52577 c 0.870436,2.97642 -3.431771,8.64717 -3.431771,8.64717 0,0 -4.3022077,-5.67075 -3.4317707,-8.64717 0.3956375,-1.35286 3.4317707,-2.47061 3.4317707,-2.47061 0,0 3.036133,1.11775 3.431771,2.47061 z"
         inkscape:connector-curvature="0"
         sodipodi:nodetypes="scscs" />
      <path
         id="path6700"
         d="m 16.424703,273.52577 c 0.870436,2.97642 -3.431771,8.64717 -3.431771,8.64717 0,0 -4.3022077,-5.67075 -3.4317707,-8.64717 0.3956375,-1.35286 3.4317707,-2.47061 3.4317707,-2.47061 0,0 3.036133,1.11775 3.431771,2.47061 z"
         inkscape:connector-curvature="0"
         sodipodi:nodetypes="scscs" />
      <path
         sodipodi:nodetypes="scscs"
         inkscape:connector-curvature="0"
         d="m 16.424703,273.52577 c 0.870436,2.97642 -3.431771,8.64717 -3.431771,8.64717 0,0 -4.3022077,-5.67075 -3.4317707,-8.64717 0.3956375,-1.35286 3.4317707,-2.47061 3.4317707,-2.47061 0,0 3.036133,1.11775 3.431771,2.47061 z"
         id="path6702"
         style="fill:#00ffff" />
      <g
         style="stroke-width:1.20125806"
         transform="matrix(0.93757463,0,0,0.93757463,0.58960113,15.947585)"
         id="g6708">
        <path
           style="fill:#00ff00;stroke:none;stroke-width:1.20125806px;stroke-linecap:butt;stroke-linejoin:miter;stroke-opacity:1"
           d="m 40.277344,14.988281 c -0.363413,0.02269 -0.63747,0.263981 -0.789063,0.783203 -1.869356,6.402722 3.947759,16.753961 7.658203,22.484375 C 47.815578,35.757005 50,32.869141 50,32.869141 c 0,0 2.184422,2.887864 2.853516,5.386718 3.710442,-5.730414 9.527555,-16.081653 7.658203,-22.484375 -1.212741,-4.153776 -10.763672,9.554688 -10.763672,9.554688 0,0 -6.926812,-10.49674 -9.470703,-10.337891 z"
           transform="matrix(0.26458333,0,0,0.26458333,0,270.54167)"
           id="path6704"
           inkscape:connector-curvature="0" />
        <path
           style="fill:#00ff00;stroke:none;stroke-width:0.31783286px;stroke-linecap:butt;stroke-linejoin:miter;stroke-opacity:1"
           d="m 13.251431,272.58702 c 0,0 -1.219453,0.45153 -2.072225,1.10588 0.984647,1.13317 1.97714,2.62929 1.97714,2.62929 0,0 1.071589,-1.52974 2.118217,-2.66702 -0.849678,-0.63409 -2.023132,-1.06815 -2.023132,-1.06815 z"
           id="path6706"
           inkscape:connector-curvature="0" />
      </g>
      <g
         id="g6714"
         transform="matrix(0.93757463,0,0,0.93757463,0.58960113,15.947585)"
         style="stroke-width:1.20125806">
        <path
           inkscape:connector-curvature="0"
           id="path6710"
           transform="matrix(0.26458333,0,0,0.26458333,0,270.54167)"
           d="m 40.277344,14.988281 c -0.363413,0.02269 -0.63747,0.263981 -0.789063,0.783203 -1.869356,6.402722 3.947759,16.753961 7.658203,22.484375 C 47.815578,35.757005 50,32.869141 50,32.869141 c 0,0 2.184422,2.887864 2.853516,5.386718 3.710442,-5.730414 9.527555,-16.081653 7.658203,-22.484375 -1.212741,-4.153776 -10.763672,9.554688 -10.763672,9.554688 0,0 -6.926812,-10.49674 -9.470703,-10.337891 z"
           style="fill:#00ff00;stroke:none;stroke-width:1.20125806px;stroke-linecap:butt;stroke-linejoin:miter;stroke-opacity:1" />
        <path
           inkscape:connector-curvature="0"
           id="path6712"
           d="m 13.251431,272.58702 c 0,0 -1.219453,0.45153 -2.072225,1.10588 0.984647,1.13317 1.97714,2.62929 1.97714,2.62929 0,0 1.071589,-1.52974 2.118217,-2.66702 -0.849678,-0.63409 -2.023132,-1.06815 -2.023132,-1.06815 z"
           style="fill:#00ff00;stroke:none;stroke-width:0.31783286px;stroke-linecap:butt;stroke-linejoin:miter;stroke-opacity:1" />
      </g>
      <g
         id="g6720"
         transform="matrix(0.93757463,0,0,0.93757463,0.58960113,15.947585)"
         style="stroke-width:1.20125806">
        <path
           inkscape:connector-curvature="0"
           id="path6716"
           transform="matrix(0.26458333,0,0,0.26458333,0,270.54167)"
           d="m 40.277344,14.988281 c -0.363413,0.02269 -0.63747,0.263981 -0.789063,0.783203 -1.869356,6.402722 3.947759,16.753961 7.658203,22.484375 C 47.815578,35.757005 50,32.869141 50,32.869141 c 0,0 2.184422,2.887864 2.853516,5.386718 3.710442,-5.730414 9.527555,-16.081653 7.658203,-22.484375 -1.212741,-4.153776 -10.763672,9.554688 -10.763672,9.554688 0,0 -6.926812,-10.49674 -9.470703,-10.337891 z"
           style="fill:#00ff00;stroke:none;stroke-width:1.20125806px;stroke-linecap:butt;stroke-linejoin:miter;stroke-opacity:1" />
        <path
           inkscape:connector-curvature="0"
           id="path6718"
           d="m 13.251431,272.58702 c 0,0 -1.219453,0.45153 -2.072225,1.10588 0.984647,1.13317 1.97714,2.62929 1.97714,2.62929 0,0 1.071589,-1.52974 2.118217,-2.66702 -0.849678,-0.63409 -2.023132,-1.06815 -2.023132,-1.06815 z"
           style="fill:#00ff00;stroke:none;stroke-width:0.31783286px;stroke-linecap:butt;stroke-linejoin:miter;stroke-opacity:1" />
      </g>
      <g
         style="stroke-width:1.20125806"
         transform="matrix(0.93757463,0,0,0.93757463,0.58960113,15.947585)"
         id="g6726">
        <path
           style="fill:#00ff00;stroke:none;stroke-width:1.20125806px;stroke-linecap:butt;stroke-linejoin:miter;stroke-opacity:1"
           d="m 40.277344,14.988281 c -0.363413,0.02269 -0.63747,0.263981 -0.789063,0.783203 -1.869356,6.402722 3.947759,16.753961 7.658203,22.484375 C 47.815578,35.757005 50,32.869141 50,32.869141 c 0,0 2.184422,2.887864 2.853516,5.386718 3.710442,-5.730414 9.527555,-16.081653 7.658203,-22.484375 -1.212741,-4.153776 -10.763672,9.554688 -10.763672,9.554688 0,0 -6.926812,-10.49674 -9.470703,-10.337891 z"
           transform="matrix(0.26458333,0,0,0.26458333,0,270.54167)"
           id="path6722"
           inkscape:connector-curvature="0" />
        <path
           style="fill:#00ff00;stroke:none;stroke-width:0.31783286px;stroke-linecap:butt;stroke-linejoin:miter;stroke-opacity:1"
           d="m 13.251431,272.58702 c 0,0 -1.219453,0.45153 -2.072225,1.10588 0.984647,1.13317 1.97714,2.62929 1.97714,2.62929 0,0 1.071589,-1.52974 2.118217,-2.66702 -0.849678,-0.63409 -2.023132,-1.06815 -2.023132,-1.06815 z"
           id="path6724"
           inkscape:connector-curvature="0" />
      </g>
      <path
         sodipodi:nodetypes="czczc"
         inkscape:connector-curvature="0"
         id="path6728"
         d="m 13.016555,279.09338 c 0,0 -0.43262,0.51905 -0.437035,0.83864 -0.0044,0.31959 0.425223,0.87407 0.425223,0.87407 0,0 0.434391,-0.53086 0.437035,-0.85045 0.0026,-0.31959 -0.425223,-0.86226 -0.425223,-0.86226 z"
         style="opacity:1;vector-effect:none;fill:#00ff00;fill-opacity:1;stroke:none;stroke-width:0.29799202px;stroke-linecap:butt;stroke-linejoin:miter;stroke-miterlimit:4;stroke-dasharray:none;stroke-dashoffset:0;stroke-opacity:1" />
      <path
         style="opacity:1;vector-effect:none;fill:#00ff00;fill-opacity:1;stroke:none;stroke-width:0.29799202px;stroke-linecap:butt;stroke-linejoin:miter;stroke-miterlimit:4;stroke-dasharray:none;stroke-dashoffset:0;stroke-opacity:1"
         d="m 13.016555,279.09338 c 0,0 -0.43262,0.51905 -0.437035,0.83864 -0.0044,0.31959 0.425223,0.87407 0.425223,0.87407 0,0 0.434391,-0.53086 0.437035,-0.85045 0.0026,-0.31959 -0.425223,-0.86226 -0.425223,-0.86226 z"
         id="path6730"
         inkscape:connector-curvature="0"
         sodipodi:nodetypes="czczc" />
      <path
         style="opacity:1;vector-effect:none;fill:#00ff00;fill-opacity:1;stroke:none;stroke-width:0.29799202px;stroke-linecap:butt;stroke-linejoin:miter;stroke-miterlimit:4;stroke-dasharray:none;stroke-dashoffset:0;stroke-opacity:1"
         d="m 13.016555,279.09338 c 0,0 -0.43262,0.51905 -0.437035,0.83864 -0.0044,0.31959 0.425223,0.87407 0.425223,0.87407 0,0 0.434391,-0.53086 0.437035,-0.85045 0.0026,-0.31959 -0.425223,-0.86226 -0.425223,-0.86226 z"
         id="path6732"
         inkscape:connector-curvature="0"
         sodipodi:nodetypes="czczc" />
      <path
         sodipodi:nodetypes="czczc"
         inkscape:connector-curvature="0"
         id="path6734"
         d="m 13.016555,279.09338 c 0,0 -0.43262,0.51905 -0.437035,0.83864 -0.0044,0.31959 0.425223,0.87407 0.425223,0.87407 0,0 0.434391,-0.53086 0.437035,-0.85045 0.0026,-0.31959 -0.425223,-0.86226 -0.425223,-0.86226 z"
         style="opacity:1;vector-effect:none;fill:#ff0000;fill-opacity:1;stroke:none;stroke-width:0.29799202px;stroke-linecap:butt;stroke-linejoin:miter;stroke-miterlimit:4;stroke-dasharray:none;stroke-dashoffset:0;stroke-opacity:1" />
      <path
         sodipodi:nodetypes="scscs"
         inkscape:connector-curvature="0"
         d="m 16.424703,293.98992 c 0.870436,-2.97642 -3.431771,-8.64717 -3.431771,-8.64717 0,0 -4.3022077,5.67075 -3.4317707,8.64717 0.3956375,1.35286 3.4317707,2.47061 3.4317707,2.47061 0,0 3.036133,-1.11775 3.431771,-2.47061 z"
         id="path6736" />
      <path
         id="path6738"
         d="m 16.424703,293.98992 c 0.870436,-2.97642 -3.431771,-8.64717 -3.431771,-8.64717 0,0 -4.3022077,5.67075 -3.4317707,8.64717 0.3956375,1.35286 3.4317707,2.47061 3.4317707,2.47061 0,0 3.036133,-1.11775 3.431771,-2.47061 z"
         inkscape:connector-curvature="0"
         sodipodi:nodetypes="scscs" />
      <path
         id="path6740"
         d="m 16.424703,293.98992 c 0.870436,-2.97642 -3.431771,-8.64717 -3.431771,-8.64717 0,0 -4.3022077,5.67075 -3.4317707,8.64717 0.3956375,1.35286 3.4317707,2.47061 3.4317707,2.47061 0,0 3.036133,-1.11775 3.431771,-2.47061 z"
         inkscape:connector-curvature="0"
         sodipodi:nodetypes="scscs" />
      <path
         sodipodi:nodetypes="scscs"
         inkscape:connector-curvature="0"
         d="m 16.424703,293.98992 c 0.870436,-2.97642 -3.431771,-8.64717 -3.431771,-8.64717 0,0 -4.3022077,5.67075 -3.4317707,8.64717 0.3956375,1.35286 3.4317707,2.47061 3.4317707,2.47061 0,0 3.036133,-1.11775 3.431771,-2.47061 z"
         id="path6742"
         style="fill:#00ffff" />
      <g
         style="stroke-width:1.20125806"
         transform="matrix(0.93757464,0,0,-0.93757464,0.58960098,551.56811)"
         id="g6748">
        <path
           style="fill:#00ff00;stroke:none;stroke-width:1.20125806px;stroke-linecap:butt;stroke-linejoin:miter;stroke-opacity:1"
           d="m 40.277344,14.988281 c -0.363413,0.02269 -0.63747,0.263981 -0.789063,0.783203 -1.869356,6.402722 3.947759,16.753961 7.658203,22.484375 C 47.815578,35.757005 50,32.869141 50,32.869141 c 0,0 2.184422,2.887864 2.853516,5.386718 3.710442,-5.730414 9.527555,-16.081653 7.658203,-22.484375 -1.212741,-4.153776 -10.763672,9.554688 -10.763672,9.554688 0,0 -6.926812,-10.49674 -9.470703,-10.337891 z"
           transform="matrix(0.26458333,0,0,0.26458333,0,270.54167)"
           id="path6744"
           inkscape:connector-curvature="0" />
        <path
           style="fill:#00ff00;stroke:none;stroke-width:0.31783286px;stroke-linecap:butt;stroke-linejoin:miter;stroke-opacity:1"
           d="m 13.251431,272.58702 c 0,0 -1.219453,0.45153 -2.072225,1.10588 0.984647,1.13317 1.97714,2.62929 1.97714,2.62929 0,0 1.071589,-1.52974 2.118217,-2.66702 -0.849678,-0.63409 -2.023132,-1.06815 -2.023132,-1.06815 z"
           id="path6746"
           inkscape:connector-curvature="0" />
      </g>
      <g
         id="g6754"
         transform="matrix(0.93757464,0,0,-0.93757464,0.58960098,551.56811)"
         style="stroke-width:1.20125806">
        <path
           inkscape:connector-curvature="0"
           id="path6750"
           transform="matrix(0.26458333,0,0,0.26458333,0,270.54167)"
           d="m 40.277344,14.988281 c -0.363413,0.02269 -0.63747,0.263981 -0.789063,0.783203 -1.869356,6.402722 3.947759,16.753961 7.658203,22.484375 C 47.815578,35.757005 50,32.869141 50,32.869141 c 0,0 2.184422,2.887864 2.853516,5.386718 3.710442,-5.730414 9.527555,-16.081653 7.658203,-22.484375 -1.212741,-4.153776 -10.763672,9.554688 -10.763672,9.554688 0,0 -6.926812,-10.49674 -9.470703,-10.337891 z"
           style="fill:#00ff00;stroke:none;stroke-width:1.20125806px;stroke-linecap:butt;stroke-linejoin:miter;stroke-opacity:1" />
        <path
           inkscape:connector-curvature="0"
           id="path6752"
           d="m 13.251431,272.58702 c 0,0 -1.219453,0.45153 -2.072225,1.10588 0.984647,1.13317 1.97714,2.62929 1.97714,2.62929 0,0 1.071589,-1.52974 2.118217,-2.66702 -0.849678,-0.63409 -2.023132,-1.06815 -2.023132,-1.06815 z"
           style="fill:#00ff00;stroke:none;stroke-width:0.31783286px;stroke-linecap:butt;stroke-linejoin:miter;stroke-opacity:1" />
      </g>
      <g
         id="g6760"
         transform="matrix(0.93757464,0,0,-0.93757464,0.58960098,551.56811)"
         style="stroke-width:1.20125806">
        <path
           inkscape:connector-curvature="0"
           id="path6756"
           transform="matrix(0.26458333,0,0,0.26458333,0,270.54167)"
           d="m 40.277344,14.988281 c -0.363413,0.02269 -0.63747,0.263981 -0.789063,0.783203 -1.869356,6.402722 3.947759,16.753961 7.658203,22.484375 C 47.815578,35.757005 50,32.869141 50,32.869141 c 0,0 2.184422,2.887864 2.853516,5.386718 3.710442,-5.730414 9.527555,-16.081653 7.658203,-22.484375 -1.212741,-4.153776 -10.763672,9.554688 -10.763672,9.554688 0,0 -6.926812,-10.49674 -9.470703,-10.337891 z"
           style="fill:#00ff00;stroke:none;stroke-width:1.20125806px;stroke-linecap:butt;stroke-linejoin:miter;stroke-opacity:1" />
        <path
           inkscape:connector-curvature="0"
           id="path6758"
           d="m 13.251431,272.58702 c 0,0 -1.219453,0.45153 -2.072225,1.10588 0.984647,1.13317 1.97714,2.62929 1.97714,2.62929 0,0 1.071589,-1.52974 2.118217,-2.66702 -0.849678,-0.63409 -2.023132,-1.06815 -2.023132,-1.06815 z"
           style="fill:#00ff00;stroke:none;stroke-width:0.31783286px;stroke-linecap:butt;stroke-linejoin:miter;stroke-opacity:1" />
      </g>
      <g
         style="stroke-width:1.20125806"
         transform="matrix(0.93757464,0,0,-0.93757464,0.58960098,551.56811)"
         id="g6766">
        <path
           style="fill:#00ff00;stroke:none;stroke-width:1.20125806px;stroke-linecap:butt;stroke-linejoin:miter;stroke-opacity:1"
           d="m 40.277344,14.988281 c -0.363413,0.02269 -0.63747,0.263981 -0.789063,0.783203 -1.869356,6.402722 3.947759,16.753961 7.658203,22.484375 C 47.815578,35.757005 50,32.869141 50,32.869141 c 0,0 2.184422,2.887864 2.853516,5.386718 3.710442,-5.730414 9.527555,-16.081653 7.658203,-22.484375 -1.212741,-4.153776 -10.763672,9.554688 -10.763672,9.554688 0,0 -6.926812,-10.49674 -9.470703,-10.337891 z"
           transform="matrix(0.26458333,0,0,0.26458333,0,270.54167)"
           id="path6762"
           inkscape:connector-curvature="0" />
        <path
           style="fill:#00ff00;stroke:none;stroke-width:0.31783286px;stroke-linecap:butt;stroke-linejoin:miter;stroke-opacity:1"
           d="m 13.251431,272.58702 c 0,0 -1.219453,0.45153 -2.072225,1.10588 0.984647,1.13317 1.97714,2.62929 1.97714,2.62929 0,0 1.071589,-1.52974 2.118217,-2.66702 -0.849678,-0.63409 -2.023132,-1.06815 -2.023132,-1.06815 z"
           id="path6764"
           inkscape:connector-curvature="0" />
      </g>
      <path
         sodipodi:nodetypes="czczc"
         inkscape:connector-curvature="0"
         id="path6768"
         d="m 13.016555,288.42231 c 0,0 -0.43262,-0.51905 -0.437035,-0.83864 -0.0044,-0.31959 0.425223,-0.87407 0.425223,-0.87407 0,0 0.434391,0.53086 0.437035,0.85045 0.0026,0.31959 -0.425223,0.86226 -0.425223,0.86226 z"
         style="opacity:1;vector-effect:none;fill:#00ff00;fill-opacity:1;stroke:none;stroke-width:0.29799202px;stroke-linecap:butt;stroke-linejoin:miter;stroke-miterlimit:4;stroke-dasharray:none;stroke-dashoffset:0;stroke-opacity:1" />
      <path
         style="opacity:1;vector-effect:none;fill:#00ff00;fill-opacity:1;stroke:none;stroke-width:0.29799202px;stroke-linecap:butt;stroke-linejoin:miter;stroke-miterlimit:4;stroke-dasharray:none;stroke-dashoffset:0;stroke-opacity:1"
         d="m 13.016555,288.42231 c 0,0 -0.43262,-0.51905 -0.437035,-0.83864 -0.0044,-0.31959 0.425223,-0.87407 0.425223,-0.87407 0,0 0.434391,0.53086 0.437035,0.85045 0.0026,0.31959 -0.425223,0.86226 -0.425223,0.86226 z"
         id="path6770"
         inkscape:connector-curvature="0"
         sodipodi:nodetypes="czczc" />
      <path
         style="opacity:1;vector-effect:none;fill:#00ff00;fill-opacity:1;stroke:none;stroke-width:0.29799202px;stroke-linecap:butt;stroke-linejoin:miter;stroke-miterlimit:4;stroke-dasharray:none;stroke-dashoffset:0;stroke-opacity:1"
         d="m 13.016555,288.42231 c 0,0 -0.43262,-0.51905 -0.437035,-0.83864 -0.0044,-0.31959 0.425223,-0.87407 0.425223,-0.87407 0,0 0.434391,0.53086 0.437035,0.85045 0.0026,0.31959 -0.425223,0.86226 -0.425223,0.86226 z"
         id="path6772"
         inkscape:connector-curvature="0"
         sodipodi:nodetypes="czczc" />
      <path
         sodipodi:nodetypes="czczc"
         inkscape:connector-curvature="0"
         id="path6774"
         d="m 13.016555,288.42231 c 0,0 -0.43262,-0.51905 -0.437035,-0.83864 -0.0044,-0.31959 0.425223,-0.87407 0.425223,-0.87407 0,0 0.434391,0.53086 0.437035,0.85045 0.0026,0.31959 -0.425223,0.86226 -0.425223,0.86226 z"
         style="opacity:1;vector-effect:none;fill:#ff0000;fill-opacity:1;stroke:none;stroke-width:0.29799202px;stroke-linecap:butt;stroke-linejoin:miter;stroke-miterlimit:4;stroke-dasharray:none;stroke-dashoffset:0;stroke-opacity:1" />
    </g>
    <g
       id="g6940"
       transform="matrix(0.6278311,0.6278311,-0.6278311,0.6278311,183.2238,97.461469)"
       style="stroke-width:1.1262691">
      <path
         sodipodi:nodetypes="scscs"
         inkscape:connector-curvature="0"
         d="m 16.424703,273.52577 c 0.870436,2.97642 -3.431771,8.64717 -3.431771,8.64717 0,0 -4.3022077,-5.67075 -3.4317707,-8.64717 0.3956375,-1.35286 3.4317707,-2.47061 3.4317707,-2.47061 0,0 3.036133,1.11775 3.431771,2.47061 z"
         id="path6860" />
      <path
         id="path6862"
         d="m 16.424703,273.52577 c 0.870436,2.97642 -3.431771,8.64717 -3.431771,8.64717 0,0 -4.3022077,-5.67075 -3.4317707,-8.64717 0.3956375,-1.35286 3.4317707,-2.47061 3.4317707,-2.47061 0,0 3.036133,1.11775 3.431771,2.47061 z"
         inkscape:connector-curvature="0"
         sodipodi:nodetypes="scscs" />
      <path
         id="path6864"
         d="m 16.424703,273.52577 c 0.870436,2.97642 -3.431771,8.64717 -3.431771,8.64717 0,0 -4.3022077,-5.67075 -3.4317707,-8.64717 0.3956375,-1.35286 3.4317707,-2.47061 3.4317707,-2.47061 0,0 3.036133,1.11775 3.431771,2.47061 z"
         inkscape:connector-curvature="0"
         sodipodi:nodetypes="scscs" />
      <path
         sodipodi:nodetypes="scscs"
         inkscape:connector-curvature="0"
         d="m 16.424703,273.52577 c 0.870436,2.97642 -3.431771,8.64717 -3.431771,8.64717 0,0 -4.3022077,-5.67075 -3.4317707,-8.64717 0.3956375,-1.35286 3.4317707,-2.47061 3.4317707,-2.47061 0,0 3.036133,1.11775 3.431771,2.47061 z"
         id="path6866"
         style="fill:#00ffff" />
      <g
         style="stroke-width:1.20125806"
         transform="matrix(0.93757463,0,0,0.93757463,0.58960113,15.947585)"
         id="g6872">
        <path
           style="fill:#00ff00;stroke:none;stroke-width:1.20125806px;stroke-linecap:butt;stroke-linejoin:miter;stroke-opacity:1"
           d="m 40.277344,14.988281 c -0.363413,0.02269 -0.63747,0.263981 -0.789063,0.783203 -1.869356,6.402722 3.947759,16.753961 7.658203,22.484375 C 47.815578,35.757005 50,32.869141 50,32.869141 c 0,0 2.184422,2.887864 2.853516,5.386718 3.710442,-5.730414 9.527555,-16.081653 7.658203,-22.484375 -1.212741,-4.153776 -10.763672,9.554688 -10.763672,9.554688 0,0 -6.926812,-10.49674 -9.470703,-10.337891 z"
           transform="matrix(0.26458333,0,0,0.26458333,0,270.54167)"
           id="path6868"
           inkscape:connector-curvature="0" />
        <path
           style="fill:#00ff00;stroke:none;stroke-width:0.31783286px;stroke-linecap:butt;stroke-linejoin:miter;stroke-opacity:1"
           d="m 13.251431,272.58702 c 0,0 -1.219453,0.45153 -2.072225,1.10588 0.984647,1.13317 1.97714,2.62929 1.97714,2.62929 0,0 1.071589,-1.52974 2.118217,-2.66702 -0.849678,-0.63409 -2.023132,-1.06815 -2.023132,-1.06815 z"
           id="path6870"
           inkscape:connector-curvature="0" />
      </g>
      <g
         id="g6878"
         transform="matrix(0.93757463,0,0,0.93757463,0.58960113,15.947585)"
         style="stroke-width:1.20125806">
        <path
           inkscape:connector-curvature="0"
           id="path6874"
           transform="matrix(0.26458333,0,0,0.26458333,0,270.54167)"
           d="m 40.277344,14.988281 c -0.363413,0.02269 -0.63747,0.263981 -0.789063,0.783203 -1.869356,6.402722 3.947759,16.753961 7.658203,22.484375 C 47.815578,35.757005 50,32.869141 50,32.869141 c 0,0 2.184422,2.887864 2.853516,5.386718 3.710442,-5.730414 9.527555,-16.081653 7.658203,-22.484375 -1.212741,-4.153776 -10.763672,9.554688 -10.763672,9.554688 0,0 -6.926812,-10.49674 -9.470703,-10.337891 z"
           style="fill:#00ff00;stroke:none;stroke-width:1.20125806px;stroke-linecap:butt;stroke-linejoin:miter;stroke-opacity:1" />
        <path
           inkscape:connector-curvature="0"
           id="path6876"
           d="m 13.251431,272.58702 c 0,0 -1.219453,0.45153 -2.072225,1.10588 0.984647,1.13317 1.97714,2.62929 1.97714,2.62929 0,0 1.071589,-1.52974 2.118217,-2.66702 -0.849678,-0.63409 -2.023132,-1.06815 -2.023132,-1.06815 z"
           style="fill:#00ff00;stroke:none;stroke-width:0.31783286px;stroke-linecap:butt;stroke-linejoin:miter;stroke-opacity:1" />
      </g>
      <g
         id="g6884"
         transform="matrix(0.93757463,0,0,0.93757463,0.58960113,15.947585)"
         style="stroke-width:1.20125806">
        <path
           inkscape:connector-curvature="0"
           id="path6880"
           transform="matrix(0.26458333,0,0,0.26458333,0,270.54167)"
           d="m 40.277344,14.988281 c -0.363413,0.02269 -0.63747,0.263981 -0.789063,0.783203 -1.869356,6.402722 3.947759,16.753961 7.658203,22.484375 C 47.815578,35.757005 50,32.869141 50,32.869141 c 0,0 2.184422,2.887864 2.853516,5.386718 3.710442,-5.730414 9.527555,-16.081653 7.658203,-22.484375 -1.212741,-4.153776 -10.763672,9.554688 -10.763672,9.554688 0,0 -6.926812,-10.49674 -9.470703,-10.337891 z"
           style="fill:#00ff00;stroke:none;stroke-width:1.20125806px;stroke-linecap:butt;stroke-linejoin:miter;stroke-opacity:1" />
        <path
           inkscape:connector-curvature="0"
           id="path6882"
           d="m 13.251431,272.58702 c 0,0 -1.219453,0.45153 -2.072225,1.10588 0.984647,1.13317 1.97714,2.62929 1.97714,2.62929 0,0 1.071589,-1.52974 2.118217,-2.66702 -0.849678,-0.63409 -2.023132,-1.06815 -2.023132,-1.06815 z"
           style="fill:#00ff00;stroke:none;stroke-width:0.31783286px;stroke-linecap:butt;stroke-linejoin:miter;stroke-opacity:1" />
      </g>
      <g
         style="stroke-width:1.20125806"
         transform="matrix(0.93757463,0,0,0.93757463,0.58960113,15.947585)"
         id="g6890">
        <path
           style="fill:#00ff00;stroke:none;stroke-width:1.20125806px;stroke-linecap:butt;stroke-linejoin:miter;stroke-opacity:1"
           d="m 40.277344,14.988281 c -0.363413,0.02269 -0.63747,0.263981 -0.789063,0.783203 -1.869356,6.402722 3.947759,16.753961 7.658203,22.484375 C 47.815578,35.757005 50,32.869141 50,32.869141 c 0,0 2.184422,2.887864 2.853516,5.386718 3.710442,-5.730414 9.527555,-16.081653 7.658203,-22.484375 -1.212741,-4.153776 -10.763672,9.554688 -10.763672,9.554688 0,0 -6.926812,-10.49674 -9.470703,-10.337891 z"
           transform="matrix(0.26458333,0,0,0.26458333,0,270.54167)"
           id="path6886"
           inkscape:connector-curvature="0" />
        <path
           style="fill:#00ff00;stroke:none;stroke-width:0.31783286px;stroke-linecap:butt;stroke-linejoin:miter;stroke-opacity:1"
           d="m 13.251431,272.58702 c 0,0 -1.219453,0.45153 -2.072225,1.10588 0.984647,1.13317 1.97714,2.62929 1.97714,2.62929 0,0 1.071589,-1.52974 2.118217,-2.66702 -0.849678,-0.63409 -2.023132,-1.06815 -2.023132,-1.06815 z"
           id="path6888"
           inkscape:connector-curvature="0" />
      </g>
      <path
         sodipodi:nodetypes="czczc"
         inkscape:connector-curvature="0"
         id="path6892"
         d="m 13.016555,279.09338 c 0,0 -0.43262,0.51905 -0.437035,0.83864 -0.0044,0.31959 0.425223,0.87407 0.425223,0.87407 0,0 0.434391,-0.53086 0.437035,-0.85045 0.0026,-0.31959 -0.425223,-0.86226 -0.425223,-0.86226 z"
         style="opacity:1;vector-effect:none;fill:#00ff00;fill-opacity:1;stroke:none;stroke-width:0.29799202px;stroke-linecap:butt;stroke-linejoin:miter;stroke-miterlimit:4;stroke-dasharray:none;stroke-dashoffset:0;stroke-opacity:1" />
      <path
         style="opacity:1;vector-effect:none;fill:#00ff00;fill-opacity:1;stroke:none;stroke-width:0.29799202px;stroke-linecap:butt;stroke-linejoin:miter;stroke-miterlimit:4;stroke-dasharray:none;stroke-dashoffset:0;stroke-opacity:1"
         d="m 13.016555,279.09338 c 0,0 -0.43262,0.51905 -0.437035,0.83864 -0.0044,0.31959 0.425223,0.87407 0.425223,0.87407 0,0 0.434391,-0.53086 0.437035,-0.85045 0.0026,-0.31959 -0.425223,-0.86226 -0.425223,-0.86226 z"
         id="path6894"
         inkscape:connector-curvature="0"
         sodipodi:nodetypes="czczc" />
      <path
         style="opacity:1;vector-effect:none;fill:#00ff00;fill-opacity:1;stroke:none;stroke-width:0.29799202px;stroke-linecap:butt;stroke-linejoin:miter;stroke-miterlimit:4;stroke-dasharray:none;stroke-dashoffset:0;stroke-opacity:1"
         d="m 13.016555,279.09338 c 0,0 -0.43262,0.51905 -0.437035,0.83864 -0.0044,0.31959 0.425223,0.87407 0.425223,0.87407 0,0 0.434391,-0.53086 0.437035,-0.85045 0.0026,-0.31959 -0.425223,-0.86226 -0.425223,-0.86226 z"
         id="path6896"
         inkscape:connector-curvature="0"
         sodipodi:nodetypes="czczc" />
      <path
         sodipodi:nodetypes="czczc"
         inkscape:connector-curvature="0"
         id="path6898"
         d="m 13.016555,279.09338 c 0,0 -0.43262,0.51905 -0.437035,0.83864 -0.0044,0.31959 0.425223,0.87407 0.425223,0.87407 0,0 0.434391,-0.53086 0.437035,-0.85045 0.0026,-0.31959 -0.425223,-0.86226 -0.425223,-0.86226 z"
         style="opacity:1;vector-effect:none;fill:#ff0000;fill-opacity:1;stroke:none;stroke-width:0.29799202px;stroke-linecap:butt;stroke-linejoin:miter;stroke-miterlimit:4;stroke-dasharray:none;stroke-dashoffset:0;stroke-opacity:1" />
      <path
         sodipodi:nodetypes="scscs"
         inkscape:connector-curvature="0"
         d="m 16.424703,293.98992 c 0.870436,-2.97642 -3.431771,-8.64717 -3.431771,-8.64717 0,0 -4.3022077,5.67075 -3.4317707,8.64717 0.3956375,1.35286 3.4317707,2.47061 3.4317707,2.47061 0,0 3.036133,-1.11775 3.431771,-2.47061 z"
         id="path6900" />
      <path
         id="path6902"
         d="m 16.424703,293.98992 c 0.870436,-2.97642 -3.431771,-8.64717 -3.431771,-8.64717 0,0 -4.3022077,5.67075 -3.4317707,8.64717 0.3956375,1.35286 3.4317707,2.47061 3.4317707,2.47061 0,0 3.036133,-1.11775 3.431771,-2.47061 z"
         inkscape:connector-curvature="0"
         sodipodi:nodetypes="scscs" />
      <path
         id="path6904"
         d="m 16.424703,293.98992 c 0.870436,-2.97642 -3.431771,-8.64717 -3.431771,-8.64717 0,0 -4.3022077,5.67075 -3.4317707,8.64717 0.3956375,1.35286 3.4317707,2.47061 3.4317707,2.47061 0,0 3.036133,-1.11775 3.431771,-2.47061 z"
         inkscape:connector-curvature="0"
         sodipodi:nodetypes="scscs" />
      <path
         sodipodi:nodetypes="scscs"
         inkscape:connector-curvature="0"
         d="m 16.424703,293.98992 c 0.870436,-2.97642 -3.431771,-8.64717 -3.431771,-8.64717 0,0 -4.3022077,5.67075 -3.4317707,8.64717 0.3956375,1.35286 3.4317707,2.47061 3.4317707,2.47061 0,0 3.036133,-1.11775 3.431771,-2.47061 z"
         id="path6906"
         style="fill:#00ffff" />
      <g
         style="stroke-width:1.20125806"
         transform="matrix(0.93757464,0,0,-0.93757464,0.58960098,551.56811)"
         id="g6912">
        <path
           style="fill:#00ff00;stroke:none;stroke-width:1.20125806px;stroke-linecap:butt;stroke-linejoin:miter;stroke-opacity:1"
           d="m 40.277344,14.988281 c -0.363413,0.02269 -0.63747,0.263981 -0.789063,0.783203 -1.869356,6.402722 3.947759,16.753961 7.658203,22.484375 C 47.815578,35.757005 50,32.869141 50,32.869141 c 0,0 2.184422,2.887864 2.853516,5.386718 3.710442,-5.730414 9.527555,-16.081653 7.658203,-22.484375 -1.212741,-4.153776 -10.763672,9.554688 -10.763672,9.554688 0,0 -6.926812,-10.49674 -9.470703,-10.337891 z"
           transform="matrix(0.26458333,0,0,0.26458333,0,270.54167)"
           id="path6908"
           inkscape:connector-curvature="0" />
        <path
           style="fill:#00ff00;stroke:none;stroke-width:0.31783286px;stroke-linecap:butt;stroke-linejoin:miter;stroke-opacity:1"
           d="m 13.251431,272.58702 c 0,0 -1.219453,0.45153 -2.072225,1.10588 0.984647,1.13317 1.97714,2.62929 1.97714,2.62929 0,0 1.071589,-1.52974 2.118217,-2.66702 -0.849678,-0.63409 -2.023132,-1.06815 -2.023132,-1.06815 z"
           id="path6910"
           inkscape:connector-curvature="0" />
      </g>
      <g
         id="g6918"
         transform="matrix(0.93757464,0,0,-0.93757464,0.58960098,551.56811)"
         style="stroke-width:1.20125806">
        <path
           inkscape:connector-curvature="0"
           id="path6914"
           transform="matrix(0.26458333,0,0,0.26458333,0,270.54167)"
           d="m 40.277344,14.988281 c -0.363413,0.02269 -0.63747,0.263981 -0.789063,0.783203 -1.869356,6.402722 3.947759,16.753961 7.658203,22.484375 C 47.815578,35.757005 50,32.869141 50,32.869141 c 0,0 2.184422,2.887864 2.853516,5.386718 3.710442,-5.730414 9.527555,-16.081653 7.658203,-22.484375 -1.212741,-4.153776 -10.763672,9.554688 -10.763672,9.554688 0,0 -6.926812,-10.49674 -9.470703,-10.337891 z"
           style="fill:#00ff00;stroke:none;stroke-width:1.20125806px;stroke-linecap:butt;stroke-linejoin:miter;stroke-opacity:1" />
        <path
           inkscape:connector-curvature="0"
           id="path6916"
           d="m 13.251431,272.58702 c 0,0 -1.219453,0.45153 -2.072225,1.10588 0.984647,1.13317 1.97714,2.62929 1.97714,2.62929 0,0 1.071589,-1.52974 2.118217,-2.66702 -0.849678,-0.63409 -2.023132,-1.06815 -2.023132,-1.06815 z"
           style="fill:#00ff00;stroke:none;stroke-width:0.31783286px;stroke-linecap:butt;stroke-linejoin:miter;stroke-opacity:1" />
      </g>
      <g
         id="g6924"
         transform="matrix(0.93757464,0,0,-0.93757464,0.58960098,551.56811)"
         style="stroke-width:1.20125806">
        <path
           inkscape:connector-curvature="0"
           id="path6920"
           transform="matrix(0.26458333,0,0,0.26458333,0,270.54167)"
           d="m 40.277344,14.988281 c -0.363413,0.02269 -0.63747,0.263981 -0.789063,0.783203 -1.869356,6.402722 3.947759,16.753961 7.658203,22.484375 C 47.815578,35.757005 50,32.869141 50,32.869141 c 0,0 2.184422,2.887864 2.853516,5.386718 3.710442,-5.730414 9.527555,-16.081653 7.658203,-22.484375 -1.212741,-4.153776 -10.763672,9.554688 -10.763672,9.554688 0,0 -6.926812,-10.49674 -9.470703,-10.337891 z"
           style="fill:#00ff00;stroke:none;stroke-width:1.20125806px;stroke-linecap:butt;stroke-linejoin:miter;stroke-opacity:1" />
        <path
           inkscape:connector-curvature="0"
           id="path6922"
           d="m 13.251431,272.58702 c 0,0 -1.219453,0.45153 -2.072225,1.10588 0.984647,1.13317 1.97714,2.62929 1.97714,2.62929 0,0 1.071589,-1.52974 2.118217,-2.66702 -0.849678,-0.63409 -2.023132,-1.06815 -2.023132,-1.06815 z"
           style="fill:#00ff00;stroke:none;stroke-width:0.31783286px;stroke-linecap:butt;stroke-linejoin:miter;stroke-opacity:1" />
      </g>
      <g
         style="stroke-width:1.20125806"
         transform="matrix(0.93757464,0,0,-0.93757464,0.58960098,551.56811)"
         id="g6930">
        <path
           style="fill:#00ff00;stroke:none;stroke-width:1.20125806px;stroke-linecap:butt;stroke-linejoin:miter;stroke-opacity:1"
           d="m 40.277344,14.988281 c -0.363413,0.02269 -0.63747,0.263981 -0.789063,0.783203 -1.869356,6.402722 3.947759,16.753961 7.658203,22.484375 C 47.815578,35.757005 50,32.869141 50,32.869141 c 0,0 2.184422,2.887864 2.853516,5.386718 3.710442,-5.730414 9.527555,-16.081653 7.658203,-22.484375 -1.212741,-4.153776 -10.763672,9.554688 -10.763672,9.554688 0,0 -6.926812,-10.49674 -9.470703,-10.337891 z"
           transform="matrix(0.26458333,0,0,0.26458333,0,270.54167)"
           id="path6926"
           inkscape:connector-curvature="0" />
        <path
           style="fill:#00ff00;stroke:none;stroke-width:0.31783286px;stroke-linecap:butt;stroke-linejoin:miter;stroke-opacity:1"
           d="m 13.251431,272.58702 c 0,0 -1.219453,0.45153 -2.072225,1.10588 0.984647,1.13317 1.97714,2.62929 1.97714,2.62929 0,0 1.071589,-1.52974 2.118217,-2.66702 -0.849678,-0.63409 -2.023132,-1.06815 -2.023132,-1.06815 z"
           id="path6928"
           inkscape:connector-curvature="0" />
      </g>
      <path
         sodipodi:nodetypes="czczc"
         inkscape:connector-curvature="0"
         id="path6932"
         d="m 13.016555,288.42231 c 0,0 -0.43262,-0.51905 -0.437035,-0.83864 -0.0044,-0.31959 0.425223,-0.87407 0.425223,-0.87407 0,0 0.434391,0.53086 0.437035,0.85045 0.0026,0.31959 -0.425223,0.86226 -0.425223,0.86226 z"
         style="opacity:1;vector-effect:none;fill:#00ff00;fill-opacity:1;stroke:none;stroke-width:0.29799202px;stroke-linecap:butt;stroke-linejoin:miter;stroke-miterlimit:4;stroke-dasharray:none;stroke-dashoffset:0;stroke-opacity:1" />
      <path
         style="opacity:1;vector-effect:none;fill:#00ff00;fill-opacity:1;stroke:none;stroke-width:0.29799202px;stroke-linecap:butt;stroke-linejoin:miter;stroke-miterlimit:4;stroke-dasharray:none;stroke-dashoffset:0;stroke-opacity:1"
         d="m 13.016555,288.42231 c 0,0 -0.43262,-0.51905 -0.437035,-0.83864 -0.0044,-0.31959 0.425223,-0.87407 0.425223,-0.87407 0,0 0.434391,0.53086 0.437035,0.85045 0.0026,0.31959 -0.425223,0.86226 -0.425223,0.86226 z"
         id="path6934"
         inkscape:connector-curvature="0"
         sodipodi:nodetypes="czczc" />
      <path
         style="opacity:1;vector-effect:none;fill:#00ff00;fill-opacity:1;stroke:none;stroke-width:0.29799202px;stroke-linecap:butt;stroke-linejoin:miter;stroke-miterlimit:4;stroke-dasharray:none;stroke-dashoffset:0;stroke-opacity:1"
         d="m 13.016555,288.42231 c 0,0 -0.43262,-0.51905 -0.437035,-0.83864 -0.0044,-0.31959 0.425223,-0.87407 0.425223,-0.87407 0,0 0.434391,0.53086 0.437035,0.85045 0.0026,0.31959 -0.425223,0.86226 -0.425223,0.86226 z"
         id="path6936"
         inkscape:connector-curvature="0"
         sodipodi:nodetypes="czczc" />
      <path
         sodipodi:nodetypes="czczc"
         inkscape:connector-curvature="0"
         id="path6938"
         d="m 13.016555,288.42231 c 0,0 -0.43262,-0.51905 -0.437035,-0.83864 -0.0044,-0.31959 0.425223,-0.87407 0.425223,-0.87407 0,0 0.434391,0.53086 0.437035,0.85045 0.0026,0.31959 -0.425223,0.86226 -0.425223,0.86226 z"
         style="opacity:1;vector-effect:none;fill:#ff0000;fill-opacity:1;stroke:none;stroke-width:0.29799202px;stroke-linecap:butt;stroke-linejoin:miter;stroke-miterlimit:4;stroke-dasharray:none;stroke-dashoffset:0;stroke-opacity:1" />
    </g>
    <g
       transform="matrix(0,0.88788726,-0.88788726,0,265.17414,272.23458)"
       id="g7104"
       style="stroke-width:1.1262691">
      <path
         sodipodi:nodetypes="scscs"
         inkscape:connector-curvature="0"
         d="m 16.424703,273.52577 c 0.870436,2.97642 -3.431771,8.64717 -3.431771,8.64717 0,0 -4.3022077,-5.67075 -3.4317707,-8.64717 0.3956375,-1.35286 3.4317707,-2.47061 3.4317707,-2.47061 0,0 3.036133,1.11775 3.431771,2.47061 z"
         id="path7024" />
      <path
         id="path7026"
         d="m 16.424703,273.52577 c 0.870436,2.97642 -3.431771,8.64717 -3.431771,8.64717 0,0 -4.3022077,-5.67075 -3.4317707,-8.64717 0.3956375,-1.35286 3.4317707,-2.47061 3.4317707,-2.47061 0,0 3.036133,1.11775 3.431771,2.47061 z"
         inkscape:connector-curvature="0"
         sodipodi:nodetypes="scscs" />
      <path
         id="path7028"
         d="m 16.424703,273.52577 c 0.870436,2.97642 -3.431771,8.64717 -3.431771,8.64717 0,0 -4.3022077,-5.67075 -3.4317707,-8.64717 0.3956375,-1.35286 3.4317707,-2.47061 3.4317707,-2.47061 0,0 3.036133,1.11775 3.431771,2.47061 z"
         inkscape:connector-curvature="0"
         sodipodi:nodetypes="scscs" />
      <path
         sodipodi:nodetypes="scscs"
         inkscape:connector-curvature="0"
         d="m 16.424703,273.52577 c 0.870436,2.97642 -3.431771,8.64717 -3.431771,8.64717 0,0 -4.3022077,-5.67075 -3.4317707,-8.64717 0.3956375,-1.35286 3.4317707,-2.47061 3.4317707,-2.47061 0,0 3.036133,1.11775 3.431771,2.47061 z"
         id="path7030"
         style="fill:#00ffff" />
      <g
         style="stroke-width:1.20125806"
         transform="matrix(0.93757463,0,0,0.93757463,0.58960113,15.947585)"
         id="g7036">
        <path
           style="fill:#00ff00;stroke:none;stroke-width:1.20125806px;stroke-linecap:butt;stroke-linejoin:miter;stroke-opacity:1"
           d="m 40.277344,14.988281 c -0.363413,0.02269 -0.63747,0.263981 -0.789063,0.783203 -1.869356,6.402722 3.947759,16.753961 7.658203,22.484375 C 47.815578,35.757005 50,32.869141 50,32.869141 c 0,0 2.184422,2.887864 2.853516,5.386718 3.710442,-5.730414 9.527555,-16.081653 7.658203,-22.484375 -1.212741,-4.153776 -10.763672,9.554688 -10.763672,9.554688 0,0 -6.926812,-10.49674 -9.470703,-10.337891 z"
           transform="matrix(0.26458333,0,0,0.26458333,0,270.54167)"
           id="path7032"
           inkscape:connector-curvature="0" />
        <path
           style="fill:#00ff00;stroke:none;stroke-width:0.31783286px;stroke-linecap:butt;stroke-linejoin:miter;stroke-opacity:1"
           d="m 13.251431,272.58702 c 0,0 -1.219453,0.45153 -2.072225,1.10588 0.984647,1.13317 1.97714,2.62929 1.97714,2.62929 0,0 1.071589,-1.52974 2.118217,-2.66702 -0.849678,-0.63409 -2.023132,-1.06815 -2.023132,-1.06815 z"
           id="path7034"
           inkscape:connector-curvature="0" />
      </g>
      <g
         id="g7042"
         transform="matrix(0.93757463,0,0,0.93757463,0.58960113,15.947585)"
         style="stroke-width:1.20125806">
        <path
           inkscape:connector-curvature="0"
           id="path7038"
           transform="matrix(0.26458333,0,0,0.26458333,0,270.54167)"
           d="m 40.277344,14.988281 c -0.363413,0.02269 -0.63747,0.263981 -0.789063,0.783203 -1.869356,6.402722 3.947759,16.753961 7.658203,22.484375 C 47.815578,35.757005 50,32.869141 50,32.869141 c 0,0 2.184422,2.887864 2.853516,5.386718 3.710442,-5.730414 9.527555,-16.081653 7.658203,-22.484375 -1.212741,-4.153776 -10.763672,9.554688 -10.763672,9.554688 0,0 -6.926812,-10.49674 -9.470703,-10.337891 z"
           style="fill:#00ff00;stroke:none;stroke-width:1.20125806px;stroke-linecap:butt;stroke-linejoin:miter;stroke-opacity:1" />
        <path
           inkscape:connector-curvature="0"
           id="path7040"
           d="m 13.251431,272.58702 c 0,0 -1.219453,0.45153 -2.072225,1.10588 0.984647,1.13317 1.97714,2.62929 1.97714,2.62929 0,0 1.071589,-1.52974 2.118217,-2.66702 -0.849678,-0.63409 -2.023132,-1.06815 -2.023132,-1.06815 z"
           style="fill:#00ff00;stroke:none;stroke-width:0.31783286px;stroke-linecap:butt;stroke-linejoin:miter;stroke-opacity:1" />
      </g>
      <g
         id="g7048"
         transform="matrix(0.93757463,0,0,0.93757463,0.58960113,15.947585)"
         style="stroke-width:1.20125806">
        <path
           inkscape:connector-curvature="0"
           id="path7044"
           transform="matrix(0.26458333,0,0,0.26458333,0,270.54167)"
           d="m 40.277344,14.988281 c -0.363413,0.02269 -0.63747,0.263981 -0.789063,0.783203 -1.869356,6.402722 3.947759,16.753961 7.658203,22.484375 C 47.815578,35.757005 50,32.869141 50,32.869141 c 0,0 2.184422,2.887864 2.853516,5.386718 3.710442,-5.730414 9.527555,-16.081653 7.658203,-22.484375 -1.212741,-4.153776 -10.763672,9.554688 -10.763672,9.554688 0,0 -6.926812,-10.49674 -9.470703,-10.337891 z"
           style="fill:#00ff00;stroke:none;stroke-width:1.20125806px;stroke-linecap:butt;stroke-linejoin:miter;stroke-opacity:1" />
        <path
           inkscape:connector-curvature="0"
           id="path7046"
           d="m 13.251431,272.58702 c 0,0 -1.219453,0.45153 -2.072225,1.10588 0.984647,1.13317 1.97714,2.62929 1.97714,2.62929 0,0 1.071589,-1.52974 2.118217,-2.66702 -0.849678,-0.63409 -2.023132,-1.06815 -2.023132,-1.06815 z"
           style="fill:#00ff00;stroke:none;stroke-width:0.31783286px;stroke-linecap:butt;stroke-linejoin:miter;stroke-opacity:1" />
      </g>
      <g
         style="stroke-width:1.20125806"
         transform="matrix(0.93757463,0,0,0.93757463,0.58960113,15.947585)"
         id="g7054">
        <path
           style="fill:#00ff00;stroke:none;stroke-width:1.20125806px;stroke-linecap:butt;stroke-linejoin:miter;stroke-opacity:1"
           d="m 40.277344,14.988281 c -0.363413,0.02269 -0.63747,0.263981 -0.789063,0.783203 -1.869356,6.402722 3.947759,16.753961 7.658203,22.484375 C 47.815578,35.757005 50,32.869141 50,32.869141 c 0,0 2.184422,2.887864 2.853516,5.386718 3.710442,-5.730414 9.527555,-16.081653 7.658203,-22.484375 -1.212741,-4.153776 -10.763672,9.554688 -10.763672,9.554688 0,0 -6.926812,-10.49674 -9.470703,-10.337891 z"
           transform="matrix(0.26458333,0,0,0.26458333,0,270.54167)"
           id="path7050"
           inkscape:connector-curvature="0" />
        <path
           style="fill:#00ff00;stroke:none;stroke-width:0.31783286px;stroke-linecap:butt;stroke-linejoin:miter;stroke-opacity:1"
           d="m 13.251431,272.58702 c 0,0 -1.219453,0.45153 -2.072225,1.10588 0.984647,1.13317 1.97714,2.62929 1.97714,2.62929 0,0 1.071589,-1.52974 2.118217,-2.66702 -0.849678,-0.63409 -2.023132,-1.06815 -2.023132,-1.06815 z"
           id="path7052"
           inkscape:connector-curvature="0" />
      </g>
      <path
         sodipodi:nodetypes="czczc"
         inkscape:connector-curvature="0"
         id="path7056"
         d="m 13.016555,279.09338 c 0,0 -0.43262,0.51905 -0.437035,0.83864 -0.0044,0.31959 0.425223,0.87407 0.425223,0.87407 0,0 0.434391,-0.53086 0.437035,-0.85045 0.0026,-0.31959 -0.425223,-0.86226 -0.425223,-0.86226 z"
         style="opacity:1;vector-effect:none;fill:#00ff00;fill-opacity:1;stroke:none;stroke-width:0.29799202px;stroke-linecap:butt;stroke-linejoin:miter;stroke-miterlimit:4;stroke-dasharray:none;stroke-dashoffset:0;stroke-opacity:1" />
      <path
         style="opacity:1;vector-effect:none;fill:#00ff00;fill-opacity:1;stroke:none;stroke-width:0.29799202px;stroke-linecap:butt;stroke-linejoin:miter;stroke-miterlimit:4;stroke-dasharray:none;stroke-dashoffset:0;stroke-opacity:1"
         d="m 13.016555,279.09338 c 0,0 -0.43262,0.51905 -0.437035,0.83864 -0.0044,0.31959 0.425223,0.87407 0.425223,0.87407 0,0 0.434391,-0.53086 0.437035,-0.85045 0.0026,-0.31959 -0.425223,-0.86226 -0.425223,-0.86226 z"
         id="path7058"
         inkscape:connector-curvature="0"
         sodipodi:nodetypes="czczc" />
      <path
         style="opacity:1;vector-effect:none;fill:#00ff00;fill-opacity:1;stroke:none;stroke-width:0.29799202px;stroke-linecap:butt;stroke-linejoin:miter;stroke-miterlimit:4;stroke-dasharray:none;stroke-dashoffset:0;stroke-opacity:1"
         d="m 13.016555,279.09338 c 0,0 -0.43262,0.51905 -0.437035,0.83864 -0.0044,0.31959 0.425223,0.87407 0.425223,0.87407 0,0 0.434391,-0.53086 0.437035,-0.85045 0.0026,-0.31959 -0.425223,-0.86226 -0.425223,-0.86226 z"
         id="path7060"
         inkscape:connector-curvature="0"
         sodipodi:nodetypes="czczc" />
      <path
         sodipodi:nodetypes="czczc"
         inkscape:connector-curvature="0"
         id="path7062"
         d="m 13.016555,279.09338 c 0,0 -0.43262,0.51905 -0.437035,0.83864 -0.0044,0.31959 0.425223,0.87407 0.425223,0.87407 0,0 0.434391,-0.53086 0.437035,-0.85045 0.0026,-0.31959 -0.425223,-0.86226 -0.425223,-0.86226 z"
         style="opacity:1;vector-effect:none;fill:#ff0000;fill-opacity:1;stroke:none;stroke-width:0.29799202px;stroke-linecap:butt;stroke-linejoin:miter;stroke-miterlimit:4;stroke-dasharray:none;stroke-dashoffset:0;stroke-opacity:1" />
      <path
         sodipodi:nodetypes="scscs"
         inkscape:connector-curvature="0"
         d="m 16.424703,293.98992 c 0.870436,-2.97642 -3.431771,-8.64717 -3.431771,-8.64717 0,0 -4.3022077,5.67075 -3.4317707,8.64717 0.3956375,1.35286 3.4317707,2.47061 3.4317707,2.47061 0,0 3.036133,-1.11775 3.431771,-2.47061 z"
         id="path7064" />
      <path
         id="path7066"
         d="m 16.424703,293.98992 c 0.870436,-2.97642 -3.431771,-8.64717 -3.431771,-8.64717 0,0 -4.3022077,5.67075 -3.4317707,8.64717 0.3956375,1.35286 3.4317707,2.47061 3.4317707,2.47061 0,0 3.036133,-1.11775 3.431771,-2.47061 z"
         inkscape:connector-curvature="0"
         sodipodi:nodetypes="scscs" />
      <path
         id="path7068"
         d="m 16.424703,293.98992 c 0.870436,-2.97642 -3.431771,-8.64717 -3.431771,-8.64717 0,0 -4.3022077,5.67075 -3.4317707,8.64717 0.3956375,1.35286 3.4317707,2.47061 3.4317707,2.47061 0,0 3.036133,-1.11775 3.431771,-2.47061 z"
         inkscape:connector-curvature="0"
         sodipodi:nodetypes="scscs" />
      <path
         sodipodi:nodetypes="scscs"
         inkscape:connector-curvature="0"
         d="m 16.424703,293.98992 c 0.870436,-2.97642 -3.431771,-8.64717 -3.431771,-8.64717 0,0 -4.3022077,5.67075 -3.4317707,8.64717 0.3956375,1.35286 3.4317707,2.47061 3.4317707,2.47061 0,0 3.036133,-1.11775 3.431771,-2.47061 z"
         id="path7070"
         style="fill:#00ffff" />
      <g
         style="stroke-width:1.20125806"
         transform="matrix(0.93757464,0,0,-0.93757464,0.58960098,551.56811)"
         id="g7076">
        <path
           style="fill:#00ff00;stroke:none;stroke-width:1.20125806px;stroke-linecap:butt;stroke-linejoin:miter;stroke-opacity:1"
           d="m 40.277344,14.988281 c -0.363413,0.02269 -0.63747,0.263981 -0.789063,0.783203 -1.869356,6.402722 3.947759,16.753961 7.658203,22.484375 C 47.815578,35.757005 50,32.869141 50,32.869141 c 0,0 2.184422,2.887864 2.853516,5.386718 3.710442,-5.730414 9.527555,-16.081653 7.658203,-22.484375 -1.212741,-4.153776 -10.763672,9.554688 -10.763672,9.554688 0,0 -6.926812,-10.49674 -9.470703,-10.337891 z"
           transform="matrix(0.26458333,0,0,0.26458333,0,270.54167)"
           id="path7072"
           inkscape:connector-curvature="0" />
        <path
           style="fill:#00ff00;stroke:none;stroke-width:0.31783286px;stroke-linecap:butt;stroke-linejoin:miter;stroke-opacity:1"
           d="m 13.251431,272.58702 c 0,0 -1.219453,0.45153 -2.072225,1.10588 0.984647,1.13317 1.97714,2.62929 1.97714,2.62929 0,0 1.071589,-1.52974 2.118217,-2.66702 -0.849678,-0.63409 -2.023132,-1.06815 -2.023132,-1.06815 z"
           id="path7074"
           inkscape:connector-curvature="0" />
      </g>
      <g
         id="g7082"
         transform="matrix(0.93757464,0,0,-0.93757464,0.58960098,551.56811)"
         style="stroke-width:1.20125806">
        <path
           inkscape:connector-curvature="0"
           id="path7078"
           transform="matrix(0.26458333,0,0,0.26458333,0,270.54167)"
           d="m 40.277344,14.988281 c -0.363413,0.02269 -0.63747,0.263981 -0.789063,0.783203 -1.869356,6.402722 3.947759,16.753961 7.658203,22.484375 C 47.815578,35.757005 50,32.869141 50,32.869141 c 0,0 2.184422,2.887864 2.853516,5.386718 3.710442,-5.730414 9.527555,-16.081653 7.658203,-22.484375 -1.212741,-4.153776 -10.763672,9.554688 -10.763672,9.554688 0,0 -6.926812,-10.49674 -9.470703,-10.337891 z"
           style="fill:#00ff00;stroke:none;stroke-width:1.20125806px;stroke-linecap:butt;stroke-linejoin:miter;stroke-opacity:1" />
        <path
           inkscape:connector-curvature="0"
           id="path7080"
           d="m 13.251431,272.58702 c 0,0 -1.219453,0.45153 -2.072225,1.10588 0.984647,1.13317 1.97714,2.62929 1.97714,2.62929 0,0 1.071589,-1.52974 2.118217,-2.66702 -0.849678,-0.63409 -2.023132,-1.06815 -2.023132,-1.06815 z"
           style="fill:#00ff00;stroke:none;stroke-width:0.31783286px;stroke-linecap:butt;stroke-linejoin:miter;stroke-opacity:1" />
      </g>
      <g
         id="g7088"
         transform="matrix(0.93757464,0,0,-0.93757464,0.58960098,551.56811)"
         style="stroke-width:1.20125806">
        <path
           inkscape:connector-curvature="0"
           id="path7084"
           transform="matrix(0.26458333,0,0,0.26458333,0,270.54167)"
           d="m 40.277344,14.988281 c -0.363413,0.02269 -0.63747,0.263981 -0.789063,0.783203 -1.869356,6.402722 3.947759,16.753961 7.658203,22.484375 C 47.815578,35.757005 50,32.869141 50,32.869141 c 0,0 2.184422,2.887864 2.853516,5.386718 3.710442,-5.730414 9.527555,-16.081653 7.658203,-22.484375 -1.212741,-4.153776 -10.763672,9.554688 -10.763672,9.554688 0,0 -6.926812,-10.49674 -9.470703,-10.337891 z"
           style="fill:#00ff00;stroke:none;stroke-width:1.20125806px;stroke-linecap:butt;stroke-linejoin:miter;stroke-opacity:1" />
        <path
           inkscape:connector-curvature="0"
           id="path7086"
           d="m 13.251431,272.58702 c 0,0 -1.219453,0.45153 -2.072225,1.10588 0.984647,1.13317 1.97714,2.62929 1.97714,2.62929 0,0 1.071589,-1.52974 2.118217,-2.66702 -0.849678,-0.63409 -2.023132,-1.06815 -2.023132,-1.06815 z"
           style="fill:#00ff00;stroke:none;stroke-width:0.31783286px;stroke-linecap:butt;stroke-linejoin:miter;stroke-opacity:1" />
      </g>
      <g
         style="stroke-width:1.20125806"
         transform="matrix(0.93757464,0,0,-0.93757464,0.58960098,551.56811)"
         id="g7094">
        <path
           style="fill:#00ff00;stroke:none;stroke-width:1.20125806px;stroke-linecap:butt;stroke-linejoin:miter;stroke-opacity:1"
           d="m 40.277344,14.988281 c -0.363413,0.02269 -0.63747,0.263981 -0.789063,0.783203 -1.869356,6.402722 3.947759,16.753961 7.658203,22.484375 C 47.815578,35.757005 50,32.869141 50,32.869141 c 0,0 2.184422,2.887864 2.853516,5.386718 3.710442,-5.730414 9.527555,-16.081653 7.658203,-22.484375 -1.212741,-4.153776 -10.763672,9.554688 -10.763672,9.554688 0,0 -6.926812,-10.49674 -9.470703,-10.337891 z"
           transform="matrix(0.26458333,0,0,0.26458333,0,270.54167)"
           id="path7090"
           inkscape:connector-curvature="0" />
        <path
           style="fill:#00ff00;stroke:none;stroke-width:0.31783286px;stroke-linecap:butt;stroke-linejoin:miter;stroke-opacity:1"
           d="m 13.251431,272.58702 c 0,0 -1.219453,0.45153 -2.072225,1.10588 0.984647,1.13317 1.97714,2.62929 1.97714,2.62929 0,0 1.071589,-1.52974 2.118217,-2.66702 -0.849678,-0.63409 -2.023132,-1.06815 -2.023132,-1.06815 z"
           id="path7092"
           inkscape:connector-curvature="0" />
      </g>
      <path
         sodipodi:nodetypes="czczc"
         inkscape:connector-curvature="0"
         id="path7096"
         d="m 13.016555,288.42231 c 0,0 -0.43262,-0.51905 -0.437035,-0.83864 -0.0044,-0.31959 0.425223,-0.87407 0.425223,-0.87407 0,0 0.434391,0.53086 0.437035,0.85045 0.0026,0.31959 -0.425223,0.86226 -0.425223,0.86226 z"
         style="opacity:1;vector-effect:none;fill:#00ff00;fill-opacity:1;stroke:none;stroke-width:0.29799202px;stroke-linecap:butt;stroke-linejoin:miter;stroke-miterlimit:4;stroke-dasharray:none;stroke-dashoffset:0;stroke-opacity:1" />
      <path
         style="opacity:1;vector-effect:none;fill:#00ff00;fill-opacity:1;stroke:none;stroke-width:0.29799202px;stroke-linecap:butt;stroke-linejoin:miter;stroke-miterlimit:4;stroke-dasharray:none;stroke-dashoffset:0;stroke-opacity:1"
         d="m 13.016555,288.42231 c 0,0 -0.43262,-0.51905 -0.437035,-0.83864 -0.0044,-0.31959 0.425223,-0.87407 0.425223,-0.87407 0,0 0.434391,0.53086 0.437035,0.85045 0.0026,0.31959 -0.425223,0.86226 -0.425223,0.86226 z"
         id="path7098"
         inkscape:connector-curvature="0"
         sodipodi:nodetypes="czczc" />
      <path
         style="opacity:1;vector-effect:none;fill:#00ff00;fill-opacity:1;stroke:none;stroke-width:0.29799202px;stroke-linecap:butt;stroke-linejoin:miter;stroke-miterlimit:4;stroke-dasharray:none;stroke-dashoffset:0;stroke-opacity:1"
         d="m 13.016555,288.42231 c 0,0 -0.43262,-0.51905 -0.437035,-0.83864 -0.0044,-0.31959 0.425223,-0.87407 0.425223,-0.87407 0,0 0.434391,0.53086 0.437035,0.85045 0.0026,0.31959 -0.425223,0.86226 -0.425223,0.86226 z"
         id="path7100"
         inkscape:connector-curvature="0"
         sodipodi:nodetypes="czczc" />
      <path
         sodipodi:nodetypes="czczc"
         inkscape:connector-curvature="0"
         id="path7102"
         d="m 13.016555,288.42231 c 0,0 -0.43262,-0.51905 -0.437035,-0.83864 -0.0044,-0.31959 0.425223,-0.87407 0.425223,-0.87407 0,0 0.434391,0.53086 0.437035,0.85045 0.0026,0.31959 -0.425223,0.86226 -0.425223,0.86226 z"
         style="opacity:1;vector-effect:none;fill:#ff0000;fill-opacity:1;stroke:none;stroke-width:0.29799202px;stroke-linecap:butt;stroke-linejoin:miter;stroke-miterlimit:4;stroke-dasharray:none;stroke-dashoffset:0;stroke-opacity:1" />
    </g>
    <g
       id="g6530"
       transform="matrix(-0.6278311,0.6278311,-0.6278311,-0.6278311,199.53854,453.76547)"
       style="stroke-width:1.1262691">
      <path
         id="path6450"
         d="m 16.424703,273.52577 c 0.870436,2.97642 -3.431771,8.64717 -3.431771,8.64717 0,0 -4.3022077,-5.67075 -3.4317707,-8.64717 0.3956375,-1.35286 3.4317707,-2.47061 3.4317707,-2.47061 0,0 3.036133,1.11775 3.431771,2.47061 z"
         inkscape:connector-curvature="0"
         sodipodi:nodetypes="scscs" />
      <path
         sodipodi:nodetypes="scscs"
         inkscape:connector-curvature="0"
         d="m 16.424703,273.52577 c 0.870436,2.97642 -3.431771,8.64717 -3.431771,8.64717 0,0 -4.3022077,-5.67075 -3.4317707,-8.64717 0.3956375,-1.35286 3.4317707,-2.47061 3.4317707,-2.47061 0,0 3.036133,1.11775 3.431771,2.47061 z"
         id="path6452" />
      <path
         sodipodi:nodetypes="scscs"
         inkscape:connector-curvature="0"
         d="m 16.424703,273.52577 c 0.870436,2.97642 -3.431771,8.64717 -3.431771,8.64717 0,0 -4.3022077,-5.67075 -3.4317707,-8.64717 0.3956375,-1.35286 3.4317707,-2.47061 3.4317707,-2.47061 0,0 3.036133,1.11775 3.431771,2.47061 z"
         id="path6454" />
      <path
         id="path6456"
         d="m 16.424703,273.52577 c 0.870436,2.97642 -3.431771,8.64717 -3.431771,8.64717 0,0 -4.3022077,-5.67075 -3.4317707,-8.64717 0.3956375,-1.35286 3.4317707,-2.47061 3.4317707,-2.47061 0,0 3.036133,1.11775 3.431771,2.47061 z"
         inkscape:connector-curvature="0"
         sodipodi:nodetypes="scscs"
         style="fill:#00ffff" />
      <g
         id="g6462"
         transform="matrix(0.93757463,0,0,0.93757463,0.58960113,15.947585)"
         style="stroke-width:1.20125806">
        <path
           inkscape:connector-curvature="0"
           id="path6458"
           transform="matrix(0.26458333,0,0,0.26458333,0,270.54167)"
           d="m 40.277344,14.988281 c -0.363413,0.02269 -0.63747,0.263981 -0.789063,0.783203 -1.869356,6.402722 3.947759,16.753961 7.658203,22.484375 C 47.815578,35.757005 50,32.869141 50,32.869141 c 0,0 2.184422,2.887864 2.853516,5.386718 3.710442,-5.730414 9.527555,-16.081653 7.658203,-22.484375 -1.212741,-4.153776 -10.763672,9.554688 -10.763672,9.554688 0,0 -6.926812,-10.49674 -9.470703,-10.337891 z"
           style="fill:#00ff00;stroke:none;stroke-width:1.20125806px;stroke-linecap:butt;stroke-linejoin:miter;stroke-opacity:1" />
        <path
           inkscape:connector-curvature="0"
           id="path6460"
           d="m 13.251431,272.58702 c 0,0 -1.219453,0.45153 -2.072225,1.10588 0.984647,1.13317 1.97714,2.62929 1.97714,2.62929 0,0 1.071589,-1.52974 2.118217,-2.66702 -0.849678,-0.63409 -2.023132,-1.06815 -2.023132,-1.06815 z"
           style="fill:#00ff00;stroke:none;stroke-width:0.31783286px;stroke-linecap:butt;stroke-linejoin:miter;stroke-opacity:1" />
      </g>
      <g
         style="stroke-width:1.20125806"
         transform="matrix(0.93757463,0,0,0.93757463,0.58960113,15.947585)"
         id="g6468">
        <path
           style="fill:#00ff00;stroke:none;stroke-width:1.20125806px;stroke-linecap:butt;stroke-linejoin:miter;stroke-opacity:1"
           d="m 40.277344,14.988281 c -0.363413,0.02269 -0.63747,0.263981 -0.789063,0.783203 -1.869356,6.402722 3.947759,16.753961 7.658203,22.484375 C 47.815578,35.757005 50,32.869141 50,32.869141 c 0,0 2.184422,2.887864 2.853516,5.386718 3.710442,-5.730414 9.527555,-16.081653 7.658203,-22.484375 -1.212741,-4.153776 -10.763672,9.554688 -10.763672,9.554688 0,0 -6.926812,-10.49674 -9.470703,-10.337891 z"
           transform="matrix(0.26458333,0,0,0.26458333,0,270.54167)"
           id="path6464"
           inkscape:connector-curvature="0" />
        <path
           style="fill:#00ff00;stroke:none;stroke-width:0.31783286px;stroke-linecap:butt;stroke-linejoin:miter;stroke-opacity:1"
           d="m 13.251431,272.58702 c 0,0 -1.219453,0.45153 -2.072225,1.10588 0.984647,1.13317 1.97714,2.62929 1.97714,2.62929 0,0 1.071589,-1.52974 2.118217,-2.66702 -0.849678,-0.63409 -2.023132,-1.06815 -2.023132,-1.06815 z"
           id="path6466"
           inkscape:connector-curvature="0" />
      </g>
      <g
         style="stroke-width:1.20125806"
         transform="matrix(0.93757463,0,0,0.93757463,0.58960113,15.947585)"
         id="g6474">
        <path
           style="fill:#00ff00;stroke:none;stroke-width:1.20125806px;stroke-linecap:butt;stroke-linejoin:miter;stroke-opacity:1"
           d="m 40.277344,14.988281 c -0.363413,0.02269 -0.63747,0.263981 -0.789063,0.783203 -1.869356,6.402722 3.947759,16.753961 7.658203,22.484375 C 47.815578,35.757005 50,32.869141 50,32.869141 c 0,0 2.184422,2.887864 2.853516,5.386718 3.710442,-5.730414 9.527555,-16.081653 7.658203,-22.484375 -1.212741,-4.153776 -10.763672,9.554688 -10.763672,9.554688 0,0 -6.926812,-10.49674 -9.470703,-10.337891 z"
           transform="matrix(0.26458333,0,0,0.26458333,0,270.54167)"
           id="path6470"
           inkscape:connector-curvature="0" />
        <path
           style="fill:#00ff00;stroke:none;stroke-width:0.31783286px;stroke-linecap:butt;stroke-linejoin:miter;stroke-opacity:1"
           d="m 13.251431,272.58702 c 0,0 -1.219453,0.45153 -2.072225,1.10588 0.984647,1.13317 1.97714,2.62929 1.97714,2.62929 0,0 1.071589,-1.52974 2.118217,-2.66702 -0.849678,-0.63409 -2.023132,-1.06815 -2.023132,-1.06815 z"
           id="path6472"
           inkscape:connector-curvature="0" />
      </g>
      <g
         id="g6480"
         transform="matrix(0.93757463,0,0,0.93757463,0.58960113,15.947585)"
         style="stroke-width:1.20125806">
        <path
           inkscape:connector-curvature="0"
           id="path6476"
           transform="matrix(0.26458333,0,0,0.26458333,0,270.54167)"
           d="m 40.277344,14.988281 c -0.363413,0.02269 -0.63747,0.263981 -0.789063,0.783203 -1.869356,6.402722 3.947759,16.753961 7.658203,22.484375 C 47.815578,35.757005 50,32.869141 50,32.869141 c 0,0 2.184422,2.887864 2.853516,5.386718 3.710442,-5.730414 9.527555,-16.081653 7.658203,-22.484375 -1.212741,-4.153776 -10.763672,9.554688 -10.763672,9.554688 0,0 -6.926812,-10.49674 -9.470703,-10.337891 z"
           style="fill:#00ff00;stroke:none;stroke-width:1.20125806px;stroke-linecap:butt;stroke-linejoin:miter;stroke-opacity:1" />
        <path
           inkscape:connector-curvature="0"
           id="path6478"
           d="m 13.251431,272.58702 c 0,0 -1.219453,0.45153 -2.072225,1.10588 0.984647,1.13317 1.97714,2.62929 1.97714,2.62929 0,0 1.071589,-1.52974 2.118217,-2.66702 -0.849678,-0.63409 -2.023132,-1.06815 -2.023132,-1.06815 z"
           style="fill:#00ff00;stroke:none;stroke-width:0.31783286px;stroke-linecap:butt;stroke-linejoin:miter;stroke-opacity:1" />
      </g>
      <path
         style="opacity:1;vector-effect:none;fill:#00ff00;fill-opacity:1;stroke:none;stroke-width:0.29799202px;stroke-linecap:butt;stroke-linejoin:miter;stroke-miterlimit:4;stroke-dasharray:none;stroke-dashoffset:0;stroke-opacity:1"
         d="m 13.016555,279.09338 c 0,0 -0.43262,0.51905 -0.437035,0.83864 -0.0044,0.31959 0.425223,0.87407 0.425223,0.87407 0,0 0.434391,-0.53086 0.437035,-0.85045 0.0026,-0.31959 -0.425223,-0.86226 -0.425223,-0.86226 z"
         id="path6482"
         inkscape:connector-curvature="0"
         sodipodi:nodetypes="czczc" />
      <path
         sodipodi:nodetypes="czczc"
         inkscape:connector-curvature="0"
         id="path6484"
         d="m 13.016555,279.09338 c 0,0 -0.43262,0.51905 -0.437035,0.83864 -0.0044,0.31959 0.425223,0.87407 0.425223,0.87407 0,0 0.434391,-0.53086 0.437035,-0.85045 0.0026,-0.31959 -0.425223,-0.86226 -0.425223,-0.86226 z"
         style="opacity:1;vector-effect:none;fill:#00ff00;fill-opacity:1;stroke:none;stroke-width:0.29799202px;stroke-linecap:butt;stroke-linejoin:miter;stroke-miterlimit:4;stroke-dasharray:none;stroke-dashoffset:0;stroke-opacity:1" />
      <path
         sodipodi:nodetypes="czczc"
         inkscape:connector-curvature="0"
         id="path6486"
         d="m 13.016555,279.09338 c 0,0 -0.43262,0.51905 -0.437035,0.83864 -0.0044,0.31959 0.425223,0.87407 0.425223,0.87407 0,0 0.434391,-0.53086 0.437035,-0.85045 0.0026,-0.31959 -0.425223,-0.86226 -0.425223,-0.86226 z"
         style="opacity:1;vector-effect:none;fill:#00ff00;fill-opacity:1;stroke:none;stroke-width:0.29799202px;stroke-linecap:butt;stroke-linejoin:miter;stroke-miterlimit:4;stroke-dasharray:none;stroke-dashoffset:0;stroke-opacity:1" />
      <path
         style="opacity:1;vector-effect:none;fill:#ff0000;fill-opacity:1;stroke:none;stroke-width:0.29799202px;stroke-linecap:butt;stroke-linejoin:miter;stroke-miterlimit:4;stroke-dasharray:none;stroke-dashoffset:0;stroke-opacity:1"
         d="m 13.016555,279.09338 c 0,0 -0.43262,0.51905 -0.437035,0.83864 -0.0044,0.31959 0.425223,0.87407 0.425223,0.87407 0,0 0.434391,-0.53086 0.437035,-0.85045 0.0026,-0.31959 -0.425223,-0.86226 -0.425223,-0.86226 z"
         id="path6488"
         inkscape:connector-curvature="0"
         sodipodi:nodetypes="czczc" />
      <path
         id="path6490"
         d="m 16.424703,293.98992 c 0.870436,-2.97642 -3.431771,-8.64717 -3.431771,-8.64717 0,0 -4.3022077,5.67075 -3.4317707,8.64717 0.3956375,1.35286 3.4317707,2.47061 3.4317707,2.47061 0,0 3.036133,-1.11775 3.431771,-2.47061 z"
         inkscape:connector-curvature="0"
         sodipodi:nodetypes="scscs" />
      <path
         sodipodi:nodetypes="scscs"
         inkscape:connector-curvature="0"
         d="m 16.424703,293.98992 c 0.870436,-2.97642 -3.431771,-8.64717 -3.431771,-8.64717 0,0 -4.3022077,5.67075 -3.4317707,8.64717 0.3956375,1.35286 3.4317707,2.47061 3.4317707,2.47061 0,0 3.036133,-1.11775 3.431771,-2.47061 z"
         id="path6492" />
      <path
         sodipodi:nodetypes="scscs"
         inkscape:connector-curvature="0"
         d="m 16.424703,293.98992 c 0.870436,-2.97642 -3.431771,-8.64717 -3.431771,-8.64717 0,0 -4.3022077,5.67075 -3.4317707,8.64717 0.3956375,1.35286 3.4317707,2.47061 3.4317707,2.47061 0,0 3.036133,-1.11775 3.431771,-2.47061 z"
         id="path6494" />
      <path
         id="path6496"
         d="m 16.424703,293.98992 c 0.870436,-2.97642 -3.431771,-8.64717 -3.431771,-8.64717 0,0 -4.3022077,5.67075 -3.4317707,8.64717 0.3956375,1.35286 3.4317707,2.47061 3.4317707,2.47061 0,0 3.036133,-1.11775 3.431771,-2.47061 z"
         inkscape:connector-curvature="0"
         sodipodi:nodetypes="scscs"
         style="fill:#00ffff" />
      <g
         id="g6502"
         transform="matrix(0.93757464,0,0,-0.93757464,0.58960098,551.56811)"
         style="stroke-width:1.20125806">
        <path
           inkscape:connector-curvature="0"
           id="path6498"
           transform="matrix(0.26458333,0,0,0.26458333,0,270.54167)"
           d="m 40.277344,14.988281 c -0.363413,0.02269 -0.63747,0.263981 -0.789063,0.783203 -1.869356,6.402722 3.947759,16.753961 7.658203,22.484375 C 47.815578,35.757005 50,32.869141 50,32.869141 c 0,0 2.184422,2.887864 2.853516,5.386718 3.710442,-5.730414 9.527555,-16.081653 7.658203,-22.484375 -1.212741,-4.153776 -10.763672,9.554688 -10.763672,9.554688 0,0 -6.926812,-10.49674 -9.470703,-10.337891 z"
           style="fill:#00ff00;stroke:none;stroke-width:1.20125806px;stroke-linecap:butt;stroke-linejoin:miter;stroke-opacity:1" />
        <path
           inkscape:connector-curvature="0"
           id="path6500"
           d="m 13.251431,272.58702 c 0,0 -1.219453,0.45153 -2.072225,1.10588 0.984647,1.13317 1.97714,2.62929 1.97714,2.62929 0,0 1.071589,-1.52974 2.118217,-2.66702 -0.849678,-0.63409 -2.023132,-1.06815 -2.023132,-1.06815 z"
           style="fill:#00ff00;stroke:none;stroke-width:0.31783286px;stroke-linecap:butt;stroke-linejoin:miter;stroke-opacity:1" />
      </g>
      <g
         style="stroke-width:1.20125806"
         transform="matrix(0.93757464,0,0,-0.93757464,0.58960098,551.56811)"
         id="g6508">
        <path
           style="fill:#00ff00;stroke:none;stroke-width:1.20125806px;stroke-linecap:butt;stroke-linejoin:miter;stroke-opacity:1"
           d="m 40.277344,14.988281 c -0.363413,0.02269 -0.63747,0.263981 -0.789063,0.783203 -1.869356,6.402722 3.947759,16.753961 7.658203,22.484375 C 47.815578,35.757005 50,32.869141 50,32.869141 c 0,0 2.184422,2.887864 2.853516,5.386718 3.710442,-5.730414 9.527555,-16.081653 7.658203,-22.484375 -1.212741,-4.153776 -10.763672,9.554688 -10.763672,9.554688 0,0 -6.926812,-10.49674 -9.470703,-10.337891 z"
           transform="matrix(0.26458333,0,0,0.26458333,0,270.54167)"
           id="path6504"
           inkscape:connector-curvature="0" />
        <path
           style="fill:#00ff00;stroke:none;stroke-width:0.31783286px;stroke-linecap:butt;stroke-linejoin:miter;stroke-opacity:1"
           d="m 13.251431,272.58702 c 0,0 -1.219453,0.45153 -2.072225,1.10588 0.984647,1.13317 1.97714,2.62929 1.97714,2.62929 0,0 1.071589,-1.52974 2.118217,-2.66702 -0.849678,-0.63409 -2.023132,-1.06815 -2.023132,-1.06815 z"
           id="path6506"
           inkscape:connector-curvature="0" />
      </g>
      <g
         style="stroke-width:1.20125806"
         transform="matrix(0.93757464,0,0,-0.93757464,0.58960098,551.56811)"
         id="g6514">
        <path
           style="fill:#00ff00;stroke:none;stroke-width:1.20125806px;stroke-linecap:butt;stroke-linejoin:miter;stroke-opacity:1"
           d="m 40.277344,14.988281 c -0.363413,0.02269 -0.63747,0.263981 -0.789063,0.783203 -1.869356,6.402722 3.947759,16.753961 7.658203,22.484375 C 47.815578,35.757005 50,32.869141 50,32.869141 c 0,0 2.184422,2.887864 2.853516,5.386718 3.710442,-5.730414 9.527555,-16.081653 7.658203,-22.484375 -1.212741,-4.153776 -10.763672,9.554688 -10.763672,9.554688 0,0 -6.926812,-10.49674 -9.470703,-10.337891 z"
           transform="matrix(0.26458333,0,0,0.26458333,0,270.54167)"
           id="path6510"
           inkscape:connector-curvature="0" />
        <path
           style="fill:#00ff00;stroke:none;stroke-width:0.31783286px;stroke-linecap:butt;stroke-linejoin:miter;stroke-opacity:1"
           d="m 13.251431,272.58702 c 0,0 -1.219453,0.45153 -2.072225,1.10588 0.984647,1.13317 1.97714,2.62929 1.97714,2.62929 0,0 1.071589,-1.52974 2.118217,-2.66702 -0.849678,-0.63409 -2.023132,-1.06815 -2.023132,-1.06815 z"
           id="path6512"
           inkscape:connector-curvature="0" />
      </g>
      <g
         id="g6520"
         transform="matrix(0.93757464,0,0,-0.93757464,0.58960098,551.56811)"
         style="stroke-width:1.20125806">
        <path
           inkscape:connector-curvature="0"
           id="path6516"
           transform="matrix(0.26458333,0,0,0.26458333,0,270.54167)"
           d="m 40.277344,14.988281 c -0.363413,0.02269 -0.63747,0.263981 -0.789063,0.783203 -1.869356,6.402722 3.947759,16.753961 7.658203,22.484375 C 47.815578,35.757005 50,32.869141 50,32.869141 c 0,0 2.184422,2.887864 2.853516,5.386718 3.710442,-5.730414 9.527555,-16.081653 7.658203,-22.484375 -1.212741,-4.153776 -10.763672,9.554688 -10.763672,9.554688 0,0 -6.926812,-10.49674 -9.470703,-10.337891 z"
           style="fill:#00ff00;stroke:none;stroke-width:1.20125806px;stroke-linecap:butt;stroke-linejoin:miter;stroke-opacity:1" />
        <path
           inkscape:connector-curvature="0"
           id="path6518"
           d="m 13.251431,272.58702 c 0,0 -1.219453,0.45153 -2.072225,1.10588 0.984647,1.13317 1.97714,2.62929 1.97714,2.62929 0,0 1.071589,-1.52974 2.118217,-2.66702 -0.849678,-0.63409 -2.023132,-1.06815 -2.023132,-1.06815 z"
           style="fill:#00ff00;stroke:none;stroke-width:0.31783286px;stroke-linecap:butt;stroke-linejoin:miter;stroke-opacity:1" />
      </g>
      <path
         style="opacity:1;vector-effect:none;fill:#00ff00;fill-opacity:1;stroke:none;stroke-width:0.29799202px;stroke-linecap:butt;stroke-linejoin:miter;stroke-miterlimit:4;stroke-dasharray:none;stroke-dashoffset:0;stroke-opacity:1"
         d="m 13.016555,288.42231 c 0,0 -0.43262,-0.51905 -0.437035,-0.83864 -0.0044,-0.31959 0.425223,-0.87407 0.425223,-0.87407 0,0 0.434391,0.53086 0.437035,0.85045 0.0026,0.31959 -0.425223,0.86226 -0.425223,0.86226 z"
         id="path6522"
         inkscape:connector-curvature="0"
         sodipodi:nodetypes="czczc" />
      <path
         sodipodi:nodetypes="czczc"
         inkscape:connector-curvature="0"
         id="path6524"
         d="m 13.016555,288.42231 c 0,0 -0.43262,-0.51905 -0.437035,-0.83864 -0.0044,-0.31959 0.425223,-0.87407 0.425223,-0.87407 0,0 0.434391,0.53086 0.437035,0.85045 0.0026,0.31959 -0.425223,0.86226 -0.425223,0.86226 z"
         style="opacity:1;vector-effect:none;fill:#00ff00;fill-opacity:1;stroke:none;stroke-width:0.29799202px;stroke-linecap:butt;stroke-linejoin:miter;stroke-miterlimit:4;stroke-dasharray:none;stroke-dashoffset:0;stroke-opacity:1" />
      <path
         sodipodi:nodetypes="czczc"
         inkscape:connector-curvature="0"
         id="path6526"
         d="m 13.016555,288.42231 c 0,0 -0.43262,-0.51905 -0.437035,-0.83864 -0.0044,-0.31959 0.425223,-0.87407 0.425223,-0.87407 0,0 0.434391,0.53086 0.437035,0.85045 0.0026,0.31959 -0.425223,0.86226 -0.425223,0.86226 z"
         style="opacity:1;vector-effect:none;fill:#00ff00;fill-opacity:1;stroke:none;stroke-width:0.29799202px;stroke-linecap:butt;stroke-linejoin:miter;stroke-miterlimit:4;stroke-dasharray:none;stroke-dashoffset:0;stroke-opacity:1" />
      <path
         style="opacity:1;vector-effect:none;fill:#ff0000;fill-opacity:1;stroke:none;stroke-width:0.29799202px;stroke-linecap:butt;stroke-linejoin:miter;stroke-miterlimit:4;stroke-dasharray:none;stroke-dashoffset:0;stroke-opacity:1"
         d="m 13.016555,288.42231 c 0,0 -0.43262,-0.51905 -0.437035,-0.83864 -0.0044,-0.31959 0.425223,-0.87407 0.425223,-0.87407 0,0 0.434391,0.53086 0.437035,0.85045 0.0026,0.31959 -0.425223,0.86226 -0.425223,0.86226 z"
         id="path6528"
         inkscape:connector-curvature="0"
         sodipodi:nodetypes="czczc" />
    </g>
    <path
       style="opacity:1;vector-effect:none;fill:#000000;fill-opacity:1;fill-rule:nonzero;stroke:none;stroke-width:0.99999994px;stroke-linecap:butt;stroke-linejoin:miter;stroke-miterlimit:4;stroke-dasharray:none;stroke-dashoffset:0;stroke-opacity:1"
       d="m 67.060547,3.2734375 c -1.734962,1.0244031 -3.920504,2.2621526 -6.099609,3.2910156 0.943967,1.7196851 2.274551,3.3291302 3.279296,4.4472659 l -8.380859,20.326172 a 19.336615,19.336615 0 0 1 3.130859,1.3125 l 8.328125,-20.195313 c 1.458006,-0.0076 3.554555,-0.09313 5.503907,-0.542969 C 71.990282,9.4800968 71.323731,6.8793869 70.835938,4.8222656 A 49.80438,49.80438 0 0 0 67.060547,3.2734375 Z m -34.216797,0.00977 a 49.80438,49.80438 0 0 0 -4.050781,1.7089844 c -0.493864,1.9072252 -1.119492,4.1773059 -1.908203,6.3769531 1.989343,0.579401 4.189818,0.766091 5.693359,0.835937 l 8.439453,20.462891 a 19.336615,19.336615 0 0 1 3.134766,-1.302735 L 35.705078,10.878906 C 36.720086,9.8414637 38.052482,8.3672498 39.054688,6.7636719 36.862276,5.6889254 34.619716,4.3711401 32.84375,3.2832031 Z M 11.535156,27 c -2.2412176,0.766677 -4.5817883,1.37417 -6.5585935,1.851562 a 49.80438,49.80438 0 0 0 -1.8105469,4.384766 c 0.9720338,1.663219 2.0801175,3.631186 3.0214844,5.625 1.711214,-0.939288 3.313512,-2.264113 4.431641,-3.267578 l 20.892578,8.615234 A 19.336615,19.336615 0 0 1 32.78125,41.060547 L 12.078125,32.523438 C 12.073136,31.06556 11.987231,28.958854 11.535156,27 Z m 76.917969,0.263672 c -0.537298,1.844938 -0.738394,3.882327 -0.822266,5.378906 l -20.355468,8.396484 a 19.336615,19.336615 0 0 1 1.246093,3.158204 l 20.203125,-8.330078 c 1.031755,1.028485 2.603309,2.482827 4.333985,3.564453 1.156142,-2.358501 2.558529,-4.717253 3.677734,-6.527344 a 49.80438,49.80438 0 0 0 -1.509766,-3.617188 c -1.969916,-0.505398 -4.465128,-1.195796 -6.773437,-2.023437 z m -56.800781,28.464844 -20.91211,8.625 C 9.709993,63.324766 8.1255073,61.856687 6.3828125,60.767578 5.3547451,62.864762 4.1580885,64.903475 3.109375,66.623047 a 49.80438,49.80438 0 0 0 1.8457031,4.490234 c 1.8488546,0.486992 3.9935968,1.090247 6.0351559,1.822266 0.533369,-1.831408 0.73516,-3.856986 0.820313,-5.351563 l 21.164062,-8.728515 a 19.336615,19.336615 0 0 1 -1.322265,-3.126953 z m 36.746094,0.01953 A 19.336615,19.336615 0 0 1 67.070312,58.875 l 20.294922,8.369141 c -0.01285,1.425789 0.04517,3.789786 0.544922,5.955078 2.471596,-0.845556 5.028095,-1.490011 7.076172,-1.972657 a 49.80438,49.80438 0 0 0 1.621094,-3.845703 l -0.132813,-0.05273 c -1.007546,-1.716283 -2.232909,-3.900243 -3.21875,-5.988281 -1.524801,0.836976 -3.005158,2.00948 -4.103515,2.966797 z m -27.222657,11.19336 -8.578125,20.802735 c -1.422685,-0.01512 -3.801259,0.04112 -5.976562,0.542968 0.77663,2.270211 1.370612,4.579292 1.845703,6.552735 a 49.80438,49.80438 0 0 0 4.339844,1.833984 c 1.668964,-0.973493 3.699926,-2.107106 5.673828,-3.039062 -0.831837,-1.51544 -1.997022,-2.993441 -2.951172,-4.089844 l 8.785156,-21.302734 a 19.336615,19.336615 0 0 1 -3.138672,-1.300782 z m 17.664063,0.0332 a 19.336615,19.336615 0 0 1 -3.15625,1.261719 l 8.507812,20.628906 c -1.019648,1.003503 -2.634029,2.702231 -3.802734,4.572266 2.249461,1.102715 4.414829,2.387176 6.179687,3.472656 a 49.80438,49.80438 0 0 0 4.050782,-1.642578 c 0.499305,-1.914709 1.169098,-4.289065 1.939453,-6.4375 -1.687635,-0.491527 -3.579553,-0.708411 -5.039063,-0.80664 z"
       transform="matrix(0.26458333,0,0,0.26458333,0,270.54167)"
       id="rect7220"
       inkscape:connector-curvature="0" />
    <path
       style="opacity:1;vector-effect:none;fill:#000000;fill-opacity:1;fill-rule:nonzero;stroke:none;stroke-width:1.9749006;stroke-linecap:butt;stroke-linejoin:miter;stroke-miterlimit:4;stroke-dasharray:none;stroke-dashoffset:0;stroke-opacity:1"
       d="M 50.023438,26.857422 A 22.909686,22.909686 0 0 0 27.113281,49.767578 22.909686,22.909686 0 0 0 50.023438,72.675781 22.909686,22.909686 0 0 0 72.933594,49.767578 22.909686,22.909686 0 0 0 50.023438,26.857422 Z m 0,3.572266 A 19.336615,19.336615 0 0 1 69.359375,49.767578 19.336615,19.336615 0 0 1 50.023438,69.103516 19.336615,19.336615 0 0 1 30.685547,49.767578 19.336615,19.336615 0 0 1 50.023438,30.429688 Z"
       transform="matrix(0.26458333,0,0,0.26458333,0,270.54167)"
       id="path295-9"
       inkscape:connector-curvature="0" />
  </g>
</svg>
