<?xml version="1.0" encoding="UTF-8" standalone="no"?>
<!-- Created with Inkscape (http://www.inkscape.org/) -->

<svg
   xmlns:dc="http://purl.org/dc/elements/1.1/"
   xmlns:cc="http://creativecommons.org/ns#"
   xmlns:rdf="http://www.w3.org/1999/02/22-rdf-syntax-ns#"
   xmlns:svg="http://www.w3.org/2000/svg"
   xmlns="http://www.w3.org/2000/svg"
   xmlns:sodipodi="http://sodipodi.sourceforge.net/DTD/sodipodi-0.dtd"
   xmlns:inkscape="http://www.inkscape.org/namespaces/inkscape"
   width="100"
   height="100"
   viewBox="0 0 26.458333 26.458333"
   version="1.1"
   id="svg5178"
   inkscape:version="0.92.3 (2405546, 2018-03-11)"
   sodipodi:docname="template5.svg">
  <defs
     id="defs5172" />
  <sodipodi:namedview
     id="base"
     pagecolor="#ffffff"
     bordercolor="#666666"
     borderopacity="1.0"
     inkscape:pageopacity="0.0"
     inkscape:pageshadow="2"
     inkscape:zoom="4.7578125"
     inkscape:cx="-39.590733"
     inkscape:cy="77.849496"
     inkscape:document-units="mm"
     inkscape:current-layer="layer1"
     showgrid="false"
     units="px"
     inkscape:window-width="1920"
     inkscape:window-height="1017"
     inkscape:window-x="-8"
     inkscape:window-y="-8"
     inkscape:window-maximized="1"
     inkscape:snap-global="false"
     showguides="true"
     inkscape:guide-bbox="true">
    <sodipodi:guide
       position="7.8430059,-2.9293154"
       orientation="0,1"
       id="guide7436"
       inkscape:locked="false" />
  </sodipodi:namedview>
  <metadata
     id="metadata5175">
    <rdf:RDF>
      <cc:Work
         rdf:about="">
        <dc:format>image/svg+xml</dc:format>
        <dc:type
           rdf:resource="http://purl.org/dc/dcmitype/StillImage" />
        <dc:title />
      </cc:Work>
    </rdf:RDF>
  </metadata>
  <g
     inkscape:label="Layer 1"
     inkscape:groupmode="layer"
     id="layer1"
     transform="translate(0,-270.54167)">
    <circle
       style="opacity:1;vector-effect:none;fill:#000000;fill-opacity:1;fill-rule:nonzero;stroke:none;stroke-width:0.24100003;stroke-linecap:butt;stroke-linejoin:miter;stroke-miterlimit:4;stroke-dasharray:none;stroke-dashoffset:0;stroke-opacity:1"
       id="path5798-6-7"
       cx="13.229167"
       cy="283.77084"
       r="13.229167" />
    <path
       style="opacity:1;vector-effect:none;fill:#000000;fill-opacity:1;fill-rule:nonzero;stroke:none;stroke-width:0.91086626;stroke-linecap:butt;stroke-linejoin:miter;stroke-miterlimit:4;stroke-dasharray:none;stroke-dashoffset:0;stroke-opacity:1"
       d="m 69.353516,3.9042969 a 24.822535,24.822535 0 0 1 3.601562,6.9062501 24.822535,24.822535 0 0 1 1.201172,6.433594 24.822535,24.82253 71.605763 0 1 14.162109,0.710937 A 50.000001,50.000001 0 0 0 69.353516,3.9042969 Z M 28.894531,4.734375 A 50.000001,50.000001 0 0 0 12.005859,17.523438 24.822535,24.82253 71.605763 0 1 24.640625,17.199219 24.822535,24.822535 0 0 1 28.894531,4.734375 Z m 20.742188,33.189453 a 13.595402,13.595402 0 0 0 -13.595703,13.59375 13.595402,13.595402 0 0 0 13.595703,13.595703 13.595402,13.595402 0 0 0 13.59375,-13.595703 13.595402,13.595402 0 0 0 -13.59375,-13.59375 z m 49.845703,18.839844 a 24.822535,24.82253 71.605763 0 1 -9.652344,7.376953 24.82253,24.822535 71.605763 0 1 2.734375,5.648437 24.82253,24.822535 71.605763 0 1 1.039063,4.63086 50.000001,50.000001 0 0 0 5.878906,-17.65625 z M 0.67382812,58.064453 A 50.000001,50.000001 0 0 0 6.4121094,74.375 24.82253,24.82253 0 0 1 9.9667969,64.455078 24.822535,24.82253 71.605763 0 1 0.67382812,58.064453 Z M 49.988281,93.560547 A 24.82253,24.82253 0 0 1 42.804688,99.417969 50.000001,50.000001 0 0 0 50,100 50.000001,50.000001 0 0 0 57.208984,99.429688 24.82253,24.822535 71.605763 0 1 49.988281,93.560547 Z"
       transform="matrix(0.26458333,0,0,0.26458333,0,270.54167)"
       id="path5798-6-7-9"
       inkscape:connector-curvature="0" />
    <path
       style="opacity:1;vector-effect:none;fill:#ff0000;fill-opacity:1;fill-rule:nonzero;stroke:none;stroke-width:0.43539676;stroke-linecap:butt;stroke-linejoin:miter;stroke-miterlimit:4;stroke-dasharray:none;stroke-dashoffset:0;stroke-opacity:1"
       d="m 13.351346,271.67336 a 11.950075,11.950075 0 0 0 -10.0305974,5.47743 8.3223743,8.3223743 0 0 1 4.9947586,-1.67862 8.3223743,8.3223743 0 0 1 5.1151908,1.77011 8.3223743,8.3223743 0 0 1 5.12733,-1.77011 8.3223743,8.3223743 0 0 1 4.667999,1.44148 11.950075,11.950075 0 0 0 -9.874681,-5.24029 z"
       id="path4242"
       inkscape:connector-curvature="0" />
    <path
       style="opacity:1;vector-effect:none;fill:#ff0000;fill-opacity:1;fill-rule:nonzero;stroke:none;stroke-width:0.43539676;stroke-linecap:butt;stroke-linejoin:miter;stroke-miterlimit:4;stroke-dasharray:none;stroke-dashoffset:0;stroke-opacity:1"
       d="m 13.442836,290.34628 a 8.3223743,8.3223743 0 0 1 -5.1273276,1.77011 8.3223743,8.3223743 0 0 1 -4.5176877,-1.33504 11.950075,11.950075 0 0 0 9.5535263,4.79216 11.950075,11.950075 0 0 0 9.409748,-4.60639 8.3223743,8.3223743 0 0 1 -4.203066,1.14927 8.3223743,8.3223743 0 0 1 -5.115193,-1.77011 z"
       id="path4168"
       inkscape:connector-curvature="0" />
    <circle
       style="opacity:1;vector-effect:none;fill:#00ff00;fill-opacity:1;fill-rule:nonzero;stroke:none;stroke-width:0.59867048;stroke-linecap:butt;stroke-linejoin:miter;stroke-miterlimit:4;stroke-dasharray:none;stroke-dashoffset:0;stroke-opacity:1"
       id="path4174"
       cx="18.558428"
       cy="283.79416"
       r="7.0420089" />
    <circle
       style="opacity:1;vector-effect:none;fill:#00ff00;fill-opacity:1;fill-rule:nonzero;stroke:none;stroke-width:0.59867048;stroke-linecap:butt;stroke-linejoin:miter;stroke-miterlimit:4;stroke-dasharray:none;stroke-dashoffset:0;stroke-opacity:1"
       id="path4174-5"
       cx="8.3155088"
       cy="283.79416"
       r="7.0420089" />
    <path
       sodipodi:nodetypes="cccccccccccccccccccccccccccccccccccc"
       inkscape:connector-curvature="0"
       id="path4172"
       d="m 10.42622,278.20056 -2.5728564,1.82039 1.3147093,1.84264 -1.3215694,1.02163 -1.456976,-1.89239 -3.9972707,3.17454 0.5502236,0.69247 3.2910598,-2.62255 0.9170472,1.18613 -3.4950446,2.6997 0.5313689,0.6942 1.6129634,-1.24443 1.0027477,1.32158 -1.5392531,1.19129 0.5296539,0.69423 1.5375379,-1.18788 1.2547214,1.65412 0.7010657,-0.53141 -1.2615752,-1.65924 3.6510256,-2.8231 c 0.148887,-0.1106 0.150966,-0.14729 0.08399,-0.24677 l -2.6808459,-3.75735 1.1912909,-0.84158 1.347282,1.60608 0.673642,-0.56394 z m -0.749063,4.3778 0.961614,1.34729 -1.247865,0.96675 -1.0113122,-1.31301 z m -1.9917772,1.53756 1.0130336,1.3113 -1.2033003,0.93074 -1.0044582,-1.31987 z"
       style="color:#000000;font-style:normal;font-variant:normal;font-weight:normal;font-stretch:normal;font-size:medium;line-height:normal;font-family:sans-serif;font-variant-ligatures:normal;font-variant-position:normal;font-variant-caps:normal;font-variant-numeric:normal;font-variant-alternates:normal;font-feature-settings:normal;text-indent:0;text-align:start;text-decoration:none;text-decoration-line:none;text-decoration-style:solid;text-decoration-color:#000000;letter-spacing:normal;word-spacing:normal;text-transform:none;writing-mode:lr-tb;direction:ltr;text-orientation:mixed;dominant-baseline:auto;baseline-shift:baseline;text-anchor:start;white-space:normal;shape-padding:0;clip-rule:nonzero;display:inline;overflow:visible;visibility:visible;opacity:1;isolation:auto;mix-blend-mode:normal;color-interpolation:sRGB;color-interpolation-filters:linearRGB;solid-color:#000000;solid-opacity:1;vector-effect:none;fill:#00ffff;fill-opacity:1;fill-rule:nonzero;stroke:none;stroke-width:0.87761652px;stroke-linecap:butt;stroke-linejoin:miter;stroke-miterlimit:4;stroke-dasharray:none;stroke-dashoffset:0;stroke-opacity:1;color-rendering:auto;image-rendering:auto;shape-rendering:auto;text-rendering:auto;enable-background:accumulate" />
    <path
       style="color:#000000;font-style:normal;font-variant:normal;font-weight:normal;font-stretch:normal;font-size:medium;line-height:normal;font-family:sans-serif;font-variant-ligatures:normal;font-variant-position:normal;font-variant-caps:normal;font-variant-numeric:normal;font-variant-alternates:normal;font-feature-settings:normal;text-indent:0;text-align:start;text-decoration:none;text-decoration-line:none;text-decoration-style:solid;text-decoration-color:#000000;letter-spacing:normal;word-spacing:normal;text-transform:none;writing-mode:lr-tb;direction:ltr;text-orientation:mixed;dominant-baseline:auto;baseline-shift:baseline;text-anchor:start;white-space:normal;shape-padding:0;clip-rule:nonzero;display:inline;overflow:visible;visibility:visible;opacity:1;isolation:auto;mix-blend-mode:normal;color-interpolation:sRGB;color-interpolation-filters:linearRGB;solid-color:#000000;solid-opacity:1;vector-effect:none;fill:#00ffff;fill-opacity:1;fill-rule:nonzero;stroke:none;stroke-width:0.84793574px;stroke-linecap:butt;stroke-linejoin:miter;stroke-miterlimit:4;stroke-dasharray:none;stroke-dashoffset:0;stroke-opacity:1;color-rendering:auto;image-rendering:auto;shape-rendering:auto;text-rendering:auto;enable-background:accumulate"
       d="m 19.329663,278.15499 -0.670729,0.51838 1.551789,2.01054 -1.290123,0.93074 -1.601469,-2.10826 -0.669074,0.51342 1.586566,2.09001 -1.167568,0.84299 -1.758805,-1.87475 -2.227488,1.48223 0.468686,0.70219 1.634594,-1.08308 1.194064,1.27188 -1.594846,1.151 0.493525,0.68731 1.684278,-1.21558 1.124509,1.19737 -1.669373,1.31994 0.526648,0.66409 1.727337,-1.36133 1.021829,1.08972 -1.616377,1.38617 0.549831,0.64424 3.756093,-3.21786 -1.596505,-1.91448 1.152662,-0.78167 1.488856,1.78858 0.650856,-0.54316 -1.984036,-2.37326 -2.560368,1.73397 1.659436,1.99067 -0.857873,0.73531 -2.682921,-2.85681 3.766027,-2.7177 z"
       id="path4132"
       inkscape:connector-curvature="0" />
    <path
       style="color:#000000;font-style:normal;font-variant:normal;font-weight:normal;font-stretch:normal;font-size:medium;line-height:normal;font-family:sans-serif;font-variant-ligatures:normal;font-variant-position:normal;font-variant-caps:normal;font-variant-numeric:normal;font-variant-alternates:normal;font-feature-settings:normal;text-indent:0;text-align:start;text-decoration:none;text-decoration-line:none;text-decoration-style:solid;text-decoration-color:#000000;letter-spacing:normal;word-spacing:normal;text-transform:none;writing-mode:lr-tb;direction:ltr;text-orientation:mixed;dominant-baseline:auto;baseline-shift:baseline;text-anchor:start;white-space:normal;shape-padding:0;clip-rule:nonzero;display:inline;overflow:visible;visibility:visible;opacity:1;isolation:auto;mix-blend-mode:normal;color-interpolation:sRGB;color-interpolation-filters:linearRGB;solid-color:#000000;solid-opacity:1;vector-effect:none;fill:#00ff00;fill-opacity:1;fill-rule:nonzero;stroke:none;stroke-width:0.75099999;stroke-linecap:butt;stroke-linejoin:miter;stroke-miterlimit:4;stroke-dasharray:none;stroke-dashoffset:0;stroke-opacity:1;color-rendering:auto;image-rendering:auto;shape-rendering:auto;text-rendering:auto;enable-background:accumulate"
       d="m 11.849609,271.89648 -1.533203,1.16211 0.453125,0.59766 0.96875,-0.73242 0.527344,0.61719 -1.039063,0.79882 0.455079,0.59571 1.072265,-0.82227 0.253906,0.29688 -1.074218,1.01172 1.429687,1.38281 1.560547,-1.30664 -0.880859,-1.03125 0.363281,-0.34375 0.511719,0.6289 0.582031,-0.47461 -0.544922,-0.66992 0.433594,-0.41015 0.478516,0.63281 0.599609,-0.45117 -0.982422,-1.30274 -1.929687,1.81836 z m 1.646485,3.08399 0.365234,0.42969 -0.460937,0.38476 -0.378907,-0.36523 z"
       id="path4248"
       inkscape:connector-curvature="0" />
    <path
       id="path4252"
       style="color:#000000;font-style:normal;font-variant:normal;font-weight:normal;font-stretch:normal;font-size:medium;line-height:normal;font-family:sans-serif;font-variant-ligatures:normal;font-variant-position:normal;font-variant-caps:normal;font-variant-numeric:normal;font-variant-alternates:normal;font-feature-settings:normal;text-indent:0;text-align:start;text-decoration:none;text-decoration-line:none;text-decoration-style:solid;text-decoration-color:#000000;letter-spacing:normal;word-spacing:normal;text-transform:none;writing-mode:lr-tb;direction:ltr;text-orientation:mixed;dominant-baseline:auto;baseline-shift:baseline;text-anchor:start;white-space:normal;shape-padding:0;clip-rule:nonzero;display:inline;overflow:visible;visibility:visible;opacity:1;isolation:auto;mix-blend-mode:normal;color-interpolation:sRGB;color-interpolation-filters:linearRGB;solid-color:#000000;solid-opacity:1;vector-effect:none;fill:#00ff00;fill-opacity:1;fill-rule:nonzero;stroke:none;stroke-width:0.72753412;stroke-linecap:butt;stroke-linejoin:miter;stroke-miterlimit:4;stroke-dasharray:none;stroke-dashoffset:0;stroke-opacity:1;color-rendering:auto;image-rendering:auto;shape-rendering:auto;text-rendering:auto;enable-background:accumulate"
       d="m 13.234871,292.10714 v 2.95499 h 0.727289 v -2.95499 z m -1.350682,-0.44921 0.09167,1.87017 0.72729,-0.0366 -0.05501,-1.08483 1.98935,0.0551 v 1.0773 h 0.727291 v -1.78625 z"
       inkscape:connector-curvature="0"
       sodipodi:nodetypes="cccccccccccccc" />
  </g>
</svg>
