<?xml version="1.0" encoding="UTF-8" standalone="no"?>
<!-- Created with Inkscape (http://www.inkscape.org/) -->

<svg
   xmlns:dc="http://purl.org/dc/elements/1.1/"
   xmlns:cc="http://creativecommons.org/ns#"
   xmlns:rdf="http://www.w3.org/1999/02/22-rdf-syntax-ns#"
   xmlns:svg="http://www.w3.org/2000/svg"
   xmlns="http://www.w3.org/2000/svg"
   xmlns:sodipodi="http://sodipodi.sourceforge.net/DTD/sodipodi-0.dtd"
   xmlns:inkscape="http://www.inkscape.org/namespaces/inkscape"
   width="100"
   height="100"
   id="svg2"
   version="1.1"
   inkscape:version="0.92.3 (2405546, 2018-03-11)"
   sodipodi:docname="q.svg">
  <defs
     id="defs4" />
  <sodipodi:namedview
     id="base"
     pagecolor="#ffffff"
     bordercolor="#666666"
     borderopacity="1.0"
     inkscape:pageopacity="0.0"
     inkscape:pageshadow="2"
     inkscape:zoom="4.2623907"
     inkscape:cx="51.756808"
     inkscape:cy="49.983936"
     inkscape:document-units="px"
     inkscape:current-layer="layer1"
     showgrid="false"
     inkscape:window-width="789"
     inkscape:window-height="800"
     inkscape:window-x="1150"
     inkscape:window-y="122"
     inkscape:window-maximized="0" />
  <metadata
     id="metadata7">
    <rdf:RDF>
      <cc:Work
         rdf:about="">
        <dc:format>image/svg+xml</dc:format>
        <dc:type
           rdf:resource="http://purl.org/dc/dcmitype/StillImage" />
        <dc:title></dc:title>
      </cc:Work>
    </rdf:RDF>
  </metadata>
  <g
     inkscape:label="Layer 1"
     inkscape:groupmode="layer"
     id="layer1"
     transform="translate(0,-952.3622)">
    <path
       class="fil0"
       d="m 65.677268,1001.0078 c -1.995336,4.9859 -0.1181,12.7715 5.824319,12.1132 2.485995,-0.2888 3.227981,-1.0984 4.591671,-1.7268 1.490098,-0.6866 1.302118,0.8837 1.01919,1.0984 -2.760478,2.0951 -5.281213,4.4485 -9.081313,4.8693 -5.356268,0.5929 -9.529882,-3.7107 -9.299672,-8.9454 0.05912,-1.3464 -0.01323,-1.3859 -1.282094,-0.8494 -2.224866,0.9406 -6.267574,2.1254 -8.480452,1.2674 -1.128302,-0.4374 -2.253607,-0.8866 -3.400707,-1.2695 -0.679733,-0.227 -1.099832,0.1005 -1.45768,0.7424 -0.814726,1.4611 -1.676039,2.8911 -2.6451,4.2454 -3.336685,4.6639 -6.078093,7.9515 -11.966296,9.0081 -6.027282,1.0813 -8.712976,-2.567 -5.081514,-7.5792 1.872058,-2.5835 4.921457,-4.3287 7.991425,-5.2446 1.573874,-0.4694 3.138077,-0.1118 4.655284,0.4632 1.496911,0.5672 2.349506,0.063 2.476598,-1.5341 0.220267,-2.7713 0.984727,-5.3252 0.384955,-8.04028 -0.188118,-0.85233 -0.918525,-1.1971 -1.670589,-0.70631 -2.483137,1.62079 -5.311316,1.92699 -8.113341,1.90189 -3.163551,-0.029 -9.585051,-1.26982 -7.372037,-5.88779 2.222004,-4.63758 12.539777,-8.09972 17.545554,-8.37815 2.012635,-0.11225 3.168181,1.02968 4.284496,3.30018 1.711865,3.48175 0.642001,5.61058 1.267518,8.60999 0.2313,1.111 0.732722,1.32188 1.80463,0.84184 1.279777,-0.57321 2.516237,-1.34871 3.858539,-1.65343 2.450172,-0.55605 7.266194,-1.42608 9.76663,-0.98936 0.993309,0.17354 1.068231,0.24356 1.563114,-0.80614 0.879159,-1.86498 1.7481,-3.75624 2.859509,-5.48323 1.34598,-2.0911 5.448898,-6.4674 7.683981,-7.42489 1.667047,-0.71392 3.180305,-1.49459 4.772432,-0.0381 1.400878,1.28182 1.08662,4.16081 -0.918389,4.87215 -1.331542,0.4724 -2.502069,1.13048 -3.720142,-0.23798 -0.578794,-0.65031 -1.356057,-0.49951 -1.880095,0.41411 -1.245587,2.17106 -2.61118,4.31746 -3.601631,6.56943 -0.390266,0.88733 -0.770862,1.36001 0.188118,1.40101 2.798076,0.11933 6.850047,-1.54309 9.183479,-0.33877 1.152957,0.7022 0.991813,1.21562 0.07887,2.19912 -1.076269,1.15949 -2.294745,1.64893 -3.636775,1.75735 -1.305934,0.10556 -4.102919,-0.2084 -5.939695,-0.0249 -1.309203,0.13093 -1.865111,0.51496 -2.252793,1.48376 z m -28.491431,-4.09183 c 0.58724,-0.21809 1.243407,-0.50088 1.705734,-0.97329 1.032132,-1.05447 0.03841,-2.34637 -0.44816,-3.36597 -0.471999,-0.98895 -0.989359,-2.36286 -2.494579,-2.15526 -1.840183,0.25364 -3.706928,0.53956 -5.462519,1.1155 -1.681896,0.55183 -2.022035,1.28073 -0.976418,2.71757 1.551944,2.13292 5.094319,3.62084 7.675942,2.66145 z m -9.650709,18.21103 c -0.09127,2.2506 1.298849,3.4067 3.389402,3.358 2.889069,-0.068 5.128101,-2.2126 6.314568,-4.981 0.337006,-0.7863 0.09099,-0.7412 -0.81636,-1.2156 -1.103238,-0.5769 -2.945872,-1.0187 -4.750093,-0.6283 -1.733115,0.3752 -4.053333,1.393 -4.137517,3.4669 z m 31.219629,-13.6091 c -2.256333,-0.8048 -4.466215,-1.2798 -6.862716,-0.7636 -0.964703,0.2079 -1.367639,1.1192 -0.761736,1.8182 0.997395,1.1507 2.033068,2.3253 3.566758,2.6355 1.614877,0.3261 2.424971,-0.023 3.821353,-0.8773 1.296394,-0.7926 2.57808,-1.9779 0.236341,-2.8128 z"
       id="path4195"
       inkscape:connector-curvature="0"
       style="clip-rule:evenodd;fill:#000000;fill-rule:nonzero;stroke-width:0.0136219;image-rendering:optimizeQuality;shape-rendering:geometricPrecision;text-rendering:geometricPrecision" />
  </g>
</svg>
