<svg id="Capa_2" xmlns="http://www.w3.org/2000/svg" xmlns:xlink="http://www.w3.org/1999/xlink" viewBox="0 0 69.02 80">
<defs >
<style >
.cls-1{fill:#c89aed;}.cls-2{fill:#fff;}.cls-3{fill:#f8ffbf;}.cls-4{fill:#7b7be8;}.cls-5{fill:#a88347;}.cls-6{fill:#782ab5;}.cls-7{stroke:#000;stroke-miterlimit:10;}.cls-7,.cls-8,.cls-9,.cls-10{fill:none;}.cls-11{fill:#1c46ff;}.cls-8{stroke:#deb778;stroke-dasharray:0 0 0 4.06;stroke-linecap:round;stroke-linejoin:round;}.cls-12{fill:#deb778;}.cls-13{fill:url(#USGS_19_Inundación_de_tierra_2);}.cls-10{stroke:#1d1d1b;stroke-dasharray:0 0 2 2;stroke-width:.3px;}.cls-14{fill:#fcf0c5;}.cls-15{fill:#b83521;}
</style>
<pattern id="USGS_19_Inundación_de_tierra_2" x="0" y="0" width="72" height="72" patternTransform="translate(-452.48 -16423) rotate(-90)" patternUnits="userSpaceOnUse" viewBox="0 0 72 72">
<g >
<rect class="cls-9" width="72" height="72">
</rect>
<g >
<line class="cls-10" x1="71" y1="71" x2="144.44" y2="71">
</line>
<line class="cls-10" x1="71" y1="67" x2="144.44" y2="67">
</line>
<line class="cls-10" x1="71" y1="63" x2="144.44" y2="63">
</line>
<line class="cls-10" x1="71" y1="59" x2="144.44" y2="59">
</line>
<line class="cls-10" x1="71" y1="55" x2="144.44" y2="55">
</line>
<line class="cls-10" x1="71" y1="51" x2="144.44" y2="51">
</line>
<line class="cls-10" x1="71" y1="47" x2="144.44" y2="47">
</line>
<line class="cls-10" x1="71" y1="43" x2="144.44" y2="43">
</line>
<line class="cls-10" x1="71" y1="39" x2="144.44" y2="39">
</line>
<line class="cls-10" x1="71" y1="35" x2="144.44" y2="35">
</line>
<line class="cls-10" x1="71" y1="31" x2="144.44" y2="31">
</line>
<line class="cls-10" x1="71" y1="27" x2="144.44" y2="27">
</line>
<line class="cls-10" x1="71" y1="23" x2="144.44" y2="23">
</line>
<line class="cls-10" x1="71" y1="19" x2="144.44" y2="19">
</line>
<line class="cls-10" x1="71" y1="15" x2="144.44" y2="15">
</line>
<line class="cls-10" x1="71" y1="11" x2="144.44" y2="11">
</line>
<line class="cls-10" x1="71" y1="7" x2="144.44" y2="7">
</line>
<line class="cls-10" x1="71" y1="3" x2="144.44" y2="3">
</line>
</g>
<g >
<line class="cls-10" x1="-1" y1="71" x2="72.44" y2="71">
</line>
<line class="cls-10" x1="-1" y1="67" x2="72.44" y2="67">
</line>
<line class="cls-10" x1="-1" y1="63" x2="72.44" y2="63">
</line>
<line class="cls-10" x1="-1" y1="59" x2="72.44" y2="59">
</line>
<line class="cls-10" x1="-1" y1="55" x2="72.44" y2="55">
</line>
<line class="cls-10" x1="-1" y1="51" x2="72.44" y2="51">
</line>
<line class="cls-10" x1="-1" y1="47" x2="72.44" y2="47">
</line>
<line class="cls-10" x1="-1" y1="43" x2="72.44" y2="43">
</line>
<line class="cls-10" x1="-1" y1="39" x2="72.44" y2="39">
</line>
<line class="cls-10" x1="-1" y1="35" x2="72.44" y2="35">
</line>
<line class="cls-10" x1="-1" y1="31" x2="72.44" y2="31">
</line>
<line class="cls-10" x1="-1" y1="27" x2="72.44" y2="27">
</line>
<line class="cls-10" x1="-1" y1="23" x2="72.44" y2="23">
</line>
<line class="cls-10" x1="-1" y1="19" x2="72.44" y2="19">
</line>
<line class="cls-10" x1="-1" y1="15" x2="72.44" y2="15">
</line>
<line class="cls-10" x1="-1" y1="11" x2="72.44" y2="11">
</line>
<line class="cls-10" x1="-1" y1="7" x2="72.44" y2="7">
</line>
<line class="cls-10" x1="-1" y1="3" x2="72.44" y2="3">
</line>
<line class="cls-10" x1="1.04" y1="69" x2="74.48" y2="69">
</line>
<line class="cls-10" x1="1.04" y1="65" x2="74.48" y2="65">
</line>
<line class="cls-10" x1="1.04" y1="61" x2="74.48" y2="61">
</line>
<line class="cls-10" x1="1.04" y1="57" x2="74.48" y2="57">
</line>
<line class="cls-10" x1="1.04" y1="53" x2="74.48" y2="53">
</line>
<line class="cls-10" x1="1.04" y1="49" x2="74.48" y2="49">
</line>
<line class="cls-10" x1="1.04" y1="45" x2="74.48" y2="45">
</line>
<line class="cls-10" x1="1.04" y1="41" x2="74.48" y2="41">
</line>
<line class="cls-10" x1="1.04" y1="37" x2="74.48" y2="37">
</line>
<line class="cls-10" x1="1.04" y1="33" x2="74.48" y2="33">
</line>
<line class="cls-10" x1="1.04" y1="29" x2="74.48" y2="29">
</line>
<line class="cls-10" x1="1.04" y1="25" x2="74.48" y2="25">
</line>
<line class="cls-10" x1="1.04" y1="21" x2="74.48" y2="21">
</line>
<line class="cls-10" x1="1.04" y1="17" x2="74.48" y2="17">
</line>
<line class="cls-10" x1="1.04" y1="13" x2="74.48" y2="13">
</line>
<line class="cls-10" x1="1.04" y1="9" x2="74.48" y2="9">
</line>
<line class="cls-10" x1="1.04" y1="5" x2="74.48" y2="5">
</line>
<line class="cls-10" x1="1.04" y1="1" x2="74.48" y2="1">
</line>
</g>
<g >
<line class="cls-10" x1="-73" y1="71" x2=".44" y2="71">
</line>
<line class="cls-10" x1="-73" y1="67" x2=".44" y2="67">
</line>
<line class="cls-10" x1="-73" y1="63" x2=".44" y2="63">
</line>
<line class="cls-10" x1="-73" y1="59" x2=".44" y2="59">
</line>
<line class="cls-10" x1="-73" y1="55" x2=".44" y2="55">
</line>
<line class="cls-10" x1="-73" y1="51" x2=".44" y2="51">
</line>
<line class="cls-10" x1="-73" y1="47" x2=".44" y2="47">
</line>
<line class="cls-10" x1="-73" y1="43" x2=".44" y2="43">
</line>
<line class="cls-10" x1="-73" y1="39" x2=".44" y2="39">
</line>
<line class="cls-10" x1="-73" y1="35" x2=".44" y2="35">
</line>
<line class="cls-10" x1="-73" y1="31" x2=".44" y2="31">
</line>
<line class="cls-10" x1="-73" y1="27" x2=".44" y2="27">
</line>
<line class="cls-10" x1="-73" y1="23" x2=".44" y2="23">
</line>
<line class="cls-10" x1="-73" y1="19" x2=".44" y2="19">
</line>
<line class="cls-10" x1="-73" y1="15" x2=".44" y2="15">
</line>
<line class="cls-10" x1="-73" y1="11" x2=".44" y2="11">
</line>
<line class="cls-10" x1="-73" y1="7" x2=".44" y2="7">
</line>
<line class="cls-10" x1="-73" y1="3" x2=".44" y2="3">
</line>
<line class="cls-10" x1="-70.96" y1="69" x2="2.48" y2="69">
</line>
<line class="cls-10" x1="-70.96" y1="65" x2="2.48" y2="65">
</line>
<line class="cls-10" x1="-70.96" y1="61" x2="2.48" y2="61">
</line>
<line class="cls-10" x1="-70.96" y1="57" x2="2.48" y2="57">
</line>
<line class="cls-10" x1="-70.96" y1="53" x2="2.48" y2="53">
</line>
<line class="cls-10" x1="-70.96" y1="49" x2="2.48" y2="49">
</line>
<line class="cls-10" x1="-70.96" y1="45" x2="2.48" y2="45">
</line>
<line class="cls-10" x1="-70.96" y1="41" x2="2.48" y2="41">
</line>
<line class="cls-10" x1="-70.96" y1="37" x2="2.48" y2="37">
</line>
<line class="cls-10" x1="-70.96" y1="33" x2="2.48" y2="33">
</line>
<line class="cls-10" x1="-70.96" y1="29" x2="2.48" y2="29">
</line>
<line class="cls-10" x1="-70.96" y1="25" x2="2.48" y2="25">
</line>
<line class="cls-10" x1="-70.96" y1="21" x2="2.48" y2="21">
</line>
<line class="cls-10" x1="-70.96" y1="17" x2="2.48" y2="17">
</line>
<line class="cls-10" x1="-70.96" y1="13" x2="2.48" y2="13">
</line>
<line class="cls-10" x1="-70.96" y1="9" x2="2.48" y2="9">
</line>
<line class="cls-10" x1="-70.96" y1="5" x2="2.48" y2="5">
</line>
<line class="cls-10" x1="-70.96" y1="1" x2="2.48" y2="1">
</line>
</g>
</g>
</pattern>
</defs>

  <path
     id="path7641-4"
     style="fill:#782ab5;fill-opacity:1;stroke:#4d4d4d;stroke-width:1.62226;stop-color:#000000"
     d="M 34.900259,1.6936052 C 14.323312,9.5265586 1.6299002,23.954051 1.5689773,39.580572 V 79.197446 H 67.963672 V 39.580572 C 67.958188,23.990066 55.374427,9.5708664 34.900259,1.6936052 Z"/>
  <path
     id="path7641-7"
     style="fill:#808080;stroke:#4d4d4d;stroke-width:1.48325;stop-color:#000000"
     d="M 34.629293,5.0425238 C 15.815619,12.204258 4.1542243,25.395327 4.1542243,39.682894 V 76.559207 H 64.859448 V 39.682894 c 0,-14.254531 -11.510452,-27.438125 -30.230155,-34.6403702 z m -0.01233,3.4358455 C 51.537073,14.988239 61.941622,26.904418 61.941622,39.788613 v 33.82806 H 7.07205 v -33.82806 c 0,-12.914055 10.539857,-24.836991 27.544909,-31.3102437 z"/>
  <path
     id="path7641-7-8"
     style="fill:#808080;stroke:#4d4d4d;stroke-width:1.35027;stop-color:#000000"
     d="M 34.618314,8.2461803 C 17.491429,14.76581 6.8755673,26.7742 6.8755673,39.780777 v 33.57007 H 62.138105 v -33.57007 c 0,-12.976504 -10.478452,-24.978088 -27.519791,-31.5345967 z m -0.01123,3.1277957 c 15.403093,5.926211 24.874795,16.774013 24.874795,28.503041 V 70.672134 H 9.5317874 V 39.877017 c 0,-11.75621 9.5948786,-22.610165 25.0752986,-28.503041 z"/>
  <path
     id="path7641-7-8-0"
     style="fill:#808080;stroke:#4d4d4d;stroke-width:1.21411;stop-color:#000000"
     d="M 34.607073,11.526302 C 19.207238,17.388502 9.6618637,28.185984 9.6618637,39.880997 V 70.06591 H 59.351809 V 39.880997 c 0,-11.667973 -9.421821,-22.459335 -24.744736,-28.354695 z m -0.0101,2.812393 c 13.849868,5.328621 22.366458,15.082547 22.366458,25.628837 V 67.657315 H 12.050234 V 39.967532 c 0,-10.570731 8.627346,-20.33019 22.546743,-25.628837 z"/>


<g id="Capa_9">
<g >
<g >
<path class="cls-1" d="M62.33,61.46l-1.91,12.22-27.49,3.69-24.57-5.48-1.27-10.69,15.02-7.51-.51-7.12s-2.16-1.66-3.06-3.82c-.89-2.17-1.14-6.24-.5-7.13-.66-.63-1.24-1.14-1.71-1.58-.01-.01-.01-.02-.02-.02-1.51-1.43-1.83-2.07,.2-3.24,1.34-6.83,1.02-15.02,6.74-18.33,5.99-3.31,9.55-4.2,13.75-3.31,4.2,.9,10.31,4.71,11.58,7.26,1.28,2.55,2.42,14,2.42,14,0,0,2.08,1.2,2.4,2.09,.04,.11,.05,.23,.02,.33-.25,.89-3.44,2.8-3.44,2.8,0,0,.89,1.4,.64,4.45-.25,3.06-1.53,5.6-3.31,6.5-1.27,4.71-1.27,6.87-1.27,6.87l16.29,8.02Z">
</path>
<path class="cls-2" d="M34.34,63.37V31.11l13.8,1.31-.26,3.24s2.03-.81,2.87,1.15-.91,8.83-3.44,9.77c-1.41,4.49-1.5,7.85-1.5,7.85,0,0,.93,3.17-.37,4.48s-7.27,4.48-7.27,4.48h-3.82Z">
</path>
<path class="cls-5" d="M53.4,32.49c-1.28,1.07-2.59,2.07-3.59,2.59-1.25,.45-1.93,.57-1.93,.57l.23-3.87s-13.52-5.34-27.5,0c.3,3.19,.8,4.22-.68,4.21,0,0-2.04-.97-3.6-1.95-.01-.01-.01-.02-.02-.02-1.51-1.43-1.83-2.07,.2-3.24,1.34-6.83,1.02-15.02,6.74-18.33,5.99-3.31,9.55-4.2,13.75-3.31,4.2,.9,10.31,4.71,11.58,7.26,1.28,2.55,2.42,14,2.42,14,0,0,2.08,1.2,2.4,2.09Z">
</path>
<path class="cls-15" d="M22.52,54.32s.19,7.43,.68,9.56,1.16,4.25,1.16,4.25l7.63,7.43,4.15-.19,7.82-7.72s1.54-8.01,1.83-9.36c.39-2.32,.29-4.44,.29-4.44l15.83,7.24v10.33l-4.05,4.05-27.03,2.61-20.46-4.92-2.7-12.35,14.86-6.47Z">
</path>
<path d="M45.7,59.31l-18.49,17.98-18.83-4.6-.72-11.89,14.86-6.47s-.42,4,.34,4.56,7.16,3.92,7.16,3.92l8.43,.09,7.24-3.58Z">
</path>
<path d="M48.25,33.25s-15.24-3.95-27.89,.93l.26-2.4s8.37-3.13,16.78-2.34c8.7,.86,11.14,2.8,11.14,2.8l-.29,1.01Z">
</path>
<path d="M20.8,35.16l.54,2.01s-.29,1.87-.44,2.65,.49,7.12,.49,7.12c0,0-2.11-1.47-3.09-4.91s-1.18-5.3-.2-6.09,2.7-.79,2.7-.79Z">
</path>
<path class="cls-2" d="M34.18,20.18V9.18s1.54-.51,6.8,1.54c6.35,2.82,8.14,7.31,8.66,10.13s.9,9.3,.9,9.3l2.87,2.34s-7.36-3.69-13.41-5.06c-3.4-.77-5.81-3.77-5.81-7.25Z">
</path>
<polygon class="cls-4" points="37.99 42.69 36.75 38.45 43.14 36.41 45.88 38.49 44.68 41.53 37.99 42.69">
</polygon>
<polygon class="cls-4" points="30.78 42.69 32.02 38.45 25.62 36.41 22.89 38.49 24.08 41.53 30.78 42.69">
</polygon>
<path class="cls-3" d="M37.99,42.69l.05-2.06s3.64-.67,4.55-.53c1.25,.62,1.49,1.29,1.49,1.29,0,0-.77,1.87-4.79,1.97-1.1-.05-1.29-.67-1.29-.67Z">
</path>
<path class="cls-3" d="M30.82,42.58l-.05-2.06s-3.64-.67-4.55-.53c-1.25,.62-1.49,1.29-1.49,1.29,0,0,.77,1.87,4.79,1.97,1.1-.05,1.29-.67,1.29-.67Z">
</path>
<path class="cls-2" d="M23.94,43.44c.87,.55,2.31,1.13,4.46,1.1,.81-.01,1.21,.97,.61,1.51-1.75,1.59-3.33,1.9-4.09,1.94-.29,.02-.57-.1-.74-.34-.45-.6-1.35-1.92-1.54-3.34-.1-.73,.68-1.27,1.3-.88Z">
</path>
<path class="cls-2" d="M24.83,12.17s-3.37,1.9-4.58,7-1.9,10.71-1.9,10.71c0,0,4.49-1.73,6.82-2.59-3.46,2.59-9.59,6.57-9.59,6.57-1.99-1.73,1.3-3.54,1.3-3.54,0,0,1.3-11.84,2.59-14.08s5.36-4.06,5.36-4.06Z">
</path>
<path d="M19.07,35.95c-3.13-1.06-7.43-3.6-2.15-5.61,.89-.34,1.8-.61,2.73-.77-1.3,.78-3.53,1.58-4.23,2.87-.06,.06,.2,.4,.51,.64,1.04,.8,2.31,1.35,3.5,1.94,0,0-.36,.93-.36,.93h0Z">
</path>
<path d="M48.91,35.01c1.19-.58,2.46-1.14,3.5-1.94,.32-.24,.57-.58,.51-.64,0-.17-.33-.54-.66-.79-1.09-.83-2.34-1.44-3.57-2.08,1.4,.27,2.79,.67,4.04,1.41,.41,.29,.89,.52,1.16,1.25,.27,1.92-3.17,3.17-4.62,3.73,0,0-.36-.93-.36-.93h0Z">
</path>
<path d="M17.99,32.86c8.5-5.17,19.42-5.03,28.58-1.73,1.31,.51,2.59,1.08,3.86,1.66-1.94-.57-4.05-1.25-6.03-1.7-8.7-2.04-18.15-1.88-26.42,1.76h0Z">
</path>
<path class="cls-7" d="M50.88,30.38s-.52-2.91-.82-6.42-1.03-8.29-4.19-10.53-7.8-4.56-11.18-4.56h-1.47c-3.38,0-8.02,2.32-11.18,4.56s-3.9,7.02-4.19,10.53-.85,6.61-.85,6.61">
</path>
<path class="cls-7" d="M20.39,31.79s.05,3.6,.15,3.99c-1.58-.84-2.86-.44-2.71,2.61s1.48,7.69,3.74,8.18">
</path>
<path d="M21.08,38.64c-.34,4.76,.7,10.14,5.13,12.71,.12,.87,.15,1.75,.04,2.61-.14-.82-.32-1.63-.56-2.41l.14,.18c-1.14-.54-2.28-1.23-3.1-2.24-2.53-2.94-2.84-7.29-1.65-10.86h0Z">
</path>
<path class="cls-7" d="M48.33,32.06s-.18,3.33-.27,3.72c1.42-.64,2.72-.26,2.71,2.61,0,3.06-1.48,7.69-3.74,8.18">
</path>
<path d="M47.52,38.64c1.19,3.56,.88,7.92-1.65,10.86-.82,1.02-1.96,1.7-3.1,2.24l.14-.18c-.24,.78-.42,1.58-.56,2.41-.1-.87-.07-1.75,.04-2.61,4.43-2.57,5.47-7.95,5.13-12.71h0Z">
</path>
<path class="cls-7" d="M46.85,46.83l-.99,7.92s.82,3.48-1.05,4.68-5.21,2.64-6.32,3.54h-3.33s-1.87,0-1.87,0h-3.33c-1.11-.9-4.45-2.34-6.32-3.54s-1.05-4.68-1.05-4.68l-.99-7.92">
</path>
<line class="cls-7" x1="22.31" y1="53.92" x2="6.69" y2="61.37">
</line>
<line class="cls-7" x1="45.88" y1="53.7" x2="62.14" y2="61.37">
</line>
<path d="M47.34,29.21c-6.59-3.83-15.01-4.43-22.03-1.44-1.02,.4-2.01,.9-2.98,1.44,6.93-5.77,18.08-5.77,25.01,0h0Z">
</path>
<path d="M25.89,14.51c-.21-1.42-.15-2.92,.65-4.21,0,0,.78,.63,.78,.63-.87,.83-1.31,2.23-1.43,3.58h0Z">
</path>
<path d="M41.97,14.51c-.12-1.35-.56-2.75-1.43-3.58l.78-.63c.8,1.29,.86,2.79,.65,4.21h0Z">
</path>
<path d="M40.23,55.3c-1.45-.12-2.84-.39-4.22-.72h.12c-.26,.04-.5,.08-.73,.15-.15,.04-.43,.2-.48,.27-.05,.02-.43,.24-.47,.2,0,0-.4-.2-.4-.2-.26-.26-.79-.37-1.21-.4-.72,.24-2.84,.62-4.1,.71,1.3-.67,2.66-1.17,4.04-1.63,.75-.01,1.52,.12,2.07,.73,0,0-.4-.2-.4-.2h.07s-.4,.2-.4,.2c.55-.61,1.32-.74,2.07-.73,1.37,.45,2.74,.96,4.04,1.63h0Z">
</path>
<path d="M38.54,56.1c-.28,.46-.8,.87-1.39,.88-.85,.12-1.71,.16-2.56,.17-.85,0-1.72-.05-2.56-.17-.59-.01-1.11-.42-1.38-.88,.49,.21,.9,.37,1.38,.23,.85-.12,1.72-.17,2.56-.17,.94,.01,1.89,.06,2.82,.21,.38,.07,.72-.12,1.13-.27h0Z">
</path>
<path d="M30.69,58.68c1.04-.82,2.39-1.09,3.68-1.1,1.3,.02,2.61,.37,3.66,1.15-.66,0-1.27-.07-1.88-.09-1.75-.12-3.7-.05-5.47,.04h0Z">
</path>
<path d="M22.9,38.51s1.66-2.44,3.15-2.75c2.17-.37,6.03,.68,6.03,.68l-.03,2.07s-4.58-1.05-6.03-.88c-1.69,.37-3.12,.88-3.12,.88Z">
</path>
<path d="M30.83,41.9c-.06-.4-.1-.79-.14-1.19l.13,.17c-1.54-.18-3.19-.56-4.7-.28,0,0,.09-.04,.09-.04-.46,.25-.89,.64-1.2,1.05,0,0,.04-.44,.04-.44,.35,.77,1.21,1.4,2.05,1.68,.95,.35,1.99,.4,3.02,.43-1.02,.34-2.13,.5-3.21,.27-1.24-.25-2.37-.99-2.87-2.25,.14-.22,.31-.48,.48-.65,.37-.41,.82-.77,1.34-.99,1.76-.32,3.45,.28,5.06,.88,0,0,.14,.06,.14,.06-.06,.43-.14,.86-.23,1.3h0Z">
</path>
<path d="M45.94,38.51s-1.66-2.44-3.15-2.75c-2.17-.37-6.03,.68-6.03,.68l.03,2.07s4.58-1.05,6.03-.88c1.69,.37,3.12,.88,3.12,.88Z">
</path>
<path d="M38.01,41.9c-.09-.43-.16-.86-.23-1.3l.14-.06c1.63-.6,3.34-1.21,5.1-.87,.66,.33,1.21,.79,1.63,1.41l.14,.22c-.71,1.82-2.73,2.52-4.52,2.33-.54-.06-1.06-.18-1.56-.35,.53-.02,1.05-.03,1.56-.09,.97-.13,1.94-.4,2.7-1.01,.34-.28,.67-.68,.81-1l.04,.44c-.31-.41-.74-.8-1.2-1.05,0,0,.09,.04,.09,.04-1.51-.28-3.16,.1-4.7,.28,0,0,.13-.17,.13-.17-.04,.4-.08,.79-.14,1.19h0Z">
</path>
<path d="M37.59,46.85c2.26,.55,.93,2.1,.07,3.3-.34-.29-.72-.58-1.05-.88,0,0,.61-.02,.61-.02-.36,.38-.72,.72-1.16,1-.71,.48-1.61,.64-2.44,.36-.77-.27-1.36-.78-1.9-1.36l.61,.02c-.33,.29-.71,.59-1.06,.88-.47-.73-1.89-2.19-.79-2.93,.27-.19,.56-.29,.85-.37-.25,.17-.49,.36-.67,.57-.16,.21-.26,.36-.11,.6,.26,.46,.68,.91,1.07,1.32l-.55-.03c.3-.32,.63-.66,.95-.97,.79,.76,1.81,1.68,2.99,1.33,.72-.25,1.35-.81,1.9-1.33,.32,.31,.65,.64,.95,.97,0,0-.55,.03-.55,.03,.41-.49,1.05-.99,1.14-1.6-.12-.38-.52-.66-.85-.89h0Z">
</path>
<path class="cls-7" d="M22.43,57.78s.39,6.26,1.89,10.05c4.11,5.15,8.16,7.7,8.16,7.7">
</path>
<path class="cls-7" d="M45.86,57.78s-.39,6.26-1.89,10.05c-4.11,5.15-8.16,7.7-8.16,7.7">
</path>
<path class="cls-7" d="M15.65,57.19s.26,4.5,.65,6.26c2.35,.33,3,.59,3,.59l-2.48,1.96s.72,3.91,5.09,8.09">
</path>
<path class="cls-7" d="M53.4,57.19s-.26,4.5-.65,6.26c-2.35,.33-3,.59-3,.59l2.48,1.96s-.72,3.91-5.09,8.09">
</path>
</g>
<path class="cls-11" d="M21.38,55.34c-3.78,2.66-8.14,4.89-12.58,5.77,3.11-1.49,9.41-4.42,12.55-5.84,0,0,.03,.07,.03,.07h0Z">
</path>
</g>
</g>
  <g
     id="g20645">
    <path
       style="fill:#808080;stroke:#4d4d4d;stroke-width:0.937908;stop-color:#000000;fill-opacity:1"
       d="m 9.541565,65.883425 a 5.4759801,5.4759801 0 0 1 5.47598,5.475981 5.4759801,5.4759801 0 0 1 -5.47598,5.47598 5.4759801,5.4759801 0 0 1 -5.4759806,-5.47598 5.4759801,5.4759801 0 0 1 5.4759806,-5.475981 z"/>
    <path
       style="fill:#808080;stroke:#4d4d4d;stroke-width:0.937908;stop-color:#000000;fill-opacity:1"
       d="m 59.472108,65.883425 a 5.4759801,5.4759801 0 0 1 5.47598,5.475981 5.4759801,5.4759801 0 0 1 -5.47598,5.47598 5.4759801,5.4759801 0 0 1 -5.475981,-5.47598 5.4759801,5.4759801 0 0 1 5.475981,-5.475981 z"/>
    <path
       id="path7641"
       style="fill:#808080;stroke:#4d4d4d;stroke-width:1.64416;stop-color:#000000"
       d="M 34.642578,1.1660156 C 13.787845,9.1047124 0.86132813,23.726855 0.86132812,39.564453 V 79.340489 H 68.152344 V 39.564453 c 0,-15.800978 -12.759199,-30.4148342 -33.509766,-38.3984374 z m -0.01367,3.8085938 C 53.384648,12.190722 64.917969,25.399665 64.917969,39.681641 v 26.507812 c -1.368656,-1.44106 -3.300993,-2.341797 -5.445313,-2.341797 -4.14856,0 -7.511718,3.363159 -7.511718,7.511719 0,2.347008 1.075662,4.442843 2.761718,5.820313 H 14.269531 c 1.756069,-1.422629 2.778281,-3.560307 2.783203,-5.820313 4.8e-5,-4.148627 -3.363091,-7.511766 -7.5117184,-7.511719 -2.0622939,0.0062 -4.0313164,0.860092 -5.4453125,2.361328 V 39.681641 c 0,-14.315076 11.6833059,-27.531508 30.5332029,-34.7070316 z"/>
    <circle
       style="fill:#4d4d4d;fill-opacity:1;stroke:#4d4d4d;stop-color:#000000"
       id="path16431"
       cx="9.6010828"
       cy="71.229652"
       r="5.06003" />
    <circle
       style="fill:#4d4d4d;fill-opacity:1;stroke:#4d4d4d;stop-color:#000000"
       id="path16431-3"
       cx="59.42292"
       cy="71.229652"
       r="5.06003" />
  </g>
</svg>
