<?xml version="1.0" encoding="UTF-8"?><svg id="Capa_2" xmlns="http://www.w3.org/2000/svg" xmlns:xlink="http://www.w3.org/1999/xlink" viewBox="0 0 69.02 80"><defs><style>.cls-1{fill:#c89aed;}.cls-2{fill:#fff;}.cls-3{fill:#f8ffbf;}.cls-4{fill:#7b7be8;}.cls-5{fill:#a88347;}.cls-6{fill:#782ab5;}.cls-7,.cls-8{stroke:#000;stroke-miterlimit:10;}.cls-7,.cls-8,.cls-9,.cls-10,.cls-11{fill:none;}.cls-8,.cls-9{stroke-linecap:round;}.cls-9{stroke:#deb778;stroke-dasharray:0 0 0 4.06;stroke-linejoin:round;}.cls-12{fill:url(#USGS_19_Inundación_de_tierra);}.cls-13{fill:#deb778;}.cls-11{stroke:#1d1d1b;stroke-dasharray:0 0 2 2;stroke-width:.3px;}.cls-14{fill:#cf5f2b;}.cls-15{fill:#fcf0c5;}.cls-16{fill:#b83521;}</style><pattern id="USGS_19_Inundación_de_tierra" x="0" y="0" width="72" height="72" patternTransform="translate(-20.48 -16135) rotate(-90)" patternUnits="userSpaceOnUse" viewBox="0 0 72 72"><g><rect class="cls-10" width="72" height="72"/><g><line class="cls-11" x1="71" y1="71" x2="144.44" y2="71"/><line class="cls-11" x1="71" y1="67" x2="144.44" y2="67"/><line class="cls-11" x1="71" y1="63" x2="144.44" y2="63"/><line class="cls-11" x1="71" y1="59" x2="144.44" y2="59"/><line class="cls-11" x1="71" y1="55" x2="144.44" y2="55"/><line class="cls-11" x1="71" y1="51" x2="144.44" y2="51"/><line class="cls-11" x1="71" y1="47" x2="144.44" y2="47"/><line class="cls-11" x1="71" y1="43" x2="144.44" y2="43"/><line class="cls-11" x1="71" y1="39" x2="144.44" y2="39"/><line class="cls-11" x1="71" y1="35" x2="144.44" y2="35"/><line class="cls-11" x1="71" y1="31" x2="144.44" y2="31"/><line class="cls-11" x1="71" y1="27" x2="144.44" y2="27"/><line class="cls-11" x1="71" y1="23" x2="144.44" y2="23"/><line class="cls-11" x1="71" y1="19" x2="144.44" y2="19"/><line class="cls-11" x1="71" y1="15" x2="144.44" y2="15"/><line class="cls-11" x1="71" y1="11" x2="144.44" y2="11"/><line class="cls-11" x1="71" y1="7" x2="144.44" y2="7"/><line class="cls-11" x1="71" y1="3" x2="144.44" y2="3"/></g><g><line class="cls-11" x1="-1" y1="71" x2="72.44" y2="71"/><line class="cls-11" x1="-1" y1="67" x2="72.44" y2="67"/><line class="cls-11" x1="-1" y1="63" x2="72.44" y2="63"/><line class="cls-11" x1="-1" y1="59" x2="72.44" y2="59"/><line class="cls-11" x1="-1" y1="55" x2="72.44" y2="55"/><line class="cls-11" x1="-1" y1="51" x2="72.44" y2="51"/><line class="cls-11" x1="-1" y1="47" x2="72.44" y2="47"/><line class="cls-11" x1="-1" y1="43" x2="72.44" y2="43"/><line class="cls-11" x1="-1" y1="39" x2="72.44" y2="39"/><line class="cls-11" x1="-1" y1="35" x2="72.44" y2="35"/><line class="cls-11" x1="-1" y1="31" x2="72.44" y2="31"/><line class="cls-11" x1="-1" y1="27" x2="72.44" y2="27"/><line class="cls-11" x1="-1" y1="23" x2="72.44" y2="23"/><line class="cls-11" x1="-1" y1="19" x2="72.44" y2="19"/><line class="cls-11" x1="-1" y1="15" x2="72.44" y2="15"/><line class="cls-11" x1="-1" y1="11" x2="72.44" y2="11"/><line class="cls-11" x1="-1" y1="7" x2="72.44" y2="7"/><line class="cls-11" x1="-1" y1="3" x2="72.44" y2="3"/><line class="cls-11" x1="1.04" y1="69" x2="74.48" y2="69"/><line class="cls-11" x1="1.04" y1="65" x2="74.48" y2="65"/><line class="cls-11" x1="1.04" y1="61" x2="74.48" y2="61"/><line class="cls-11" x1="1.04" y1="57" x2="74.48" y2="57"/><line class="cls-11" x1="1.04" y1="53" x2="74.48" y2="53"/><line class="cls-11" x1="1.04" y1="49" x2="74.48" y2="49"/><line class="cls-11" x1="1.04" y1="45" x2="74.48" y2="45"/><line class="cls-11" x1="1.04" y1="41" x2="74.48" y2="41"/><line class="cls-11" x1="1.04" y1="37" x2="74.48" y2="37"/><line class="cls-11" x1="1.04" y1="33" x2="74.48" y2="33"/><line class="cls-11" x1="1.04" y1="29" x2="74.48" y2="29"/><line class="cls-11" x1="1.04" y1="25" x2="74.48" y2="25"/><line class="cls-11" x1="1.04" y1="21" x2="74.48" y2="21"/><line class="cls-11" x1="1.04" y1="17" x2="74.48" y2="17"/><line class="cls-11" x1="1.04" y1="13" x2="74.48" y2="13"/><line class="cls-11" x1="1.04" y1="9" x2="74.48" y2="9"/><line class="cls-11" x1="1.04" y1="5" x2="74.48" y2="5"/><line class="cls-11" x1="1.04" y1="1" x2="74.48" y2="1"/></g><g><line class="cls-11" x1="-73" y1="71" x2=".44" y2="71"/><line class="cls-11" x1="-73" y1="67" x2=".44" y2="67"/><line class="cls-11" x1="-73" y1="63" x2=".44" y2="63"/><line class="cls-11" x1="-73" y1="59" x2=".44" y2="59"/><line class="cls-11" x1="-73" y1="55" x2=".44" y2="55"/><line class="cls-11" x1="-73" y1="51" x2=".44" y2="51"/><line class="cls-11" x1="-73" y1="47" x2=".44" y2="47"/><line class="cls-11" x1="-73" y1="43" x2=".44" y2="43"/><line class="cls-11" x1="-73" y1="39" x2=".44" y2="39"/><line class="cls-11" x1="-73" y1="35" x2=".44" y2="35"/><line class="cls-11" x1="-73" y1="31" x2=".44" y2="31"/><line class="cls-11" x1="-73" y1="27" x2=".44" y2="27"/><line class="cls-11" x1="-73" y1="23" x2=".44" y2="23"/><line class="cls-11" x1="-73" y1="19" x2=".44" y2="19"/><line class="cls-11" x1="-73" y1="15" x2=".44" y2="15"/><line class="cls-11" x1="-73" y1="11" x2=".44" y2="11"/><line class="cls-11" x1="-73" y1="7" x2=".44" y2="7"/><line class="cls-11" x1="-73" y1="3" x2=".44" y2="3"/><line class="cls-11" x1="-70.96" y1="69" x2="2.48" y2="69"/><line class="cls-11" x1="-70.96" y1="65" x2="2.48" y2="65"/><line class="cls-11" x1="-70.96" y1="61" x2="2.48" y2="61"/><line class="cls-11" x1="-70.96" y1="57" x2="2.48" y2="57"/><line class="cls-11" x1="-70.96" y1="53" x2="2.48" y2="53"/><line class="cls-11" x1="-70.96" y1="49" x2="2.48" y2="49"/><line class="cls-11" x1="-70.96" y1="45" x2="2.48" y2="45"/><line class="cls-11" x1="-70.96" y1="41" x2="2.48" y2="41"/><line class="cls-11" x1="-70.96" y1="37" x2="2.48" y2="37"/><line class="cls-11" x1="-70.96" y1="33" x2="2.48" y2="33"/><line class="cls-11" x1="-70.96" y1="29" x2="2.48" y2="29"/><line class="cls-11" x1="-70.96" y1="25" x2="2.48" y2="25"/><line class="cls-11" x1="-70.96" y1="21" x2="2.48" y2="21"/><line class="cls-11" x1="-70.96" y1="17" x2="2.48" y2="17"/><line class="cls-11" x1="-70.96" y1="13" x2="2.48" y2="13"/><line class="cls-11" x1="-70.96" y1="9" x2="2.48" y2="9"/><line class="cls-11" x1="-70.96" y1="5" x2="2.48" y2="5"/><line class="cls-11" x1="-70.96" y1="1" x2="2.48" y2="1"/></g></g></pattern></defs><g id="BG"><g><path class="cls-6" d="M64.02,40c0,11.47-1.89,22.39-5.5,31.74-7.2,2.16-14.94,3.26-23.02,3.26-.49,0-.98-.01-1.47-.02h-.17c-8.18-.15-16.29-1.47-23.6-3.85-3.45-9.22-5.26-19.93-5.26-31.13s1.89-22.38,5.48-31.73c6.73-2.01,14.13-3.13,21.6-3.26,.48-.01,.97-.01,1.45-.01,.54,0,1.08,.01,1.63,.02,8.16,.15,16.27,1.47,23.59,3.84,3.46,9.24,5.27,19.95,5.27,31.14Z"/><path class="cls-12" d="M34.03,5.59V74.98h-.17c-8.18-.15-16.29-1.47-23.6-3.85-3.45-9.22-5.26-19.93-5.26-31.13s1.89-22.38,5.48-31.73c6.73-2.01,14.13-3.13,21.6-3.26,.65,.16,1.3,.36,1.95,.58Z"/></g></g><g id="Characters"><g><path class="cls-16" d="M5.29,55.36s2.78-7.18,6.1-8.89c-.32-10.17,2.57-15.53,2.57-15.53l5.14-2.25s2.36-14.35,15.31-14.99c12.32-.21,15.21,9,16.17,12.32s2.78,7.6,4.5,10.28,1.07,5.68-2.25,7.93-3.75,4.61-4.18,6.43-.75,6-4.93,7.18c.21,2.78,2.14,3.64,2.14,3.64l14.24,4.93-1.39,5.89s-33.2,7.6-48.51-.96c-4.71-11.78-4.93-15.96-4.93-15.96Z"/><path class="cls-1" d="M22.07,38.89s5.56-2.47,7.23-6.26,6.79-10.41,6.79-10.41c0,0,3.97-1.41,7.41,3.18l1.76-1.41s2.38,2.91,2.65,6.7,1.06,7.5,1.85,8.56c-1.41,7.14-2.21,9.44-3.18,10.5s-3,2.65-3,2.65l.44,7.23s-.09,1.06,4.23,2.82,7.59,2.65,7.59,2.65l-4.59,4.67s-16.49,1.94-19.32,1.85c-1.85-4.94-3.53-6.44-5.56-7.76l-2.03-1.32s3.09-1.94,3.18-3.88,.18-6.26,.18-6.26c0,0-3.09-2.65-3.97-5.82s-1.68-7.67-1.68-7.67Z"/><path class="cls-2" d="M35.61,56.91V22.53s4.84-1.12,7.26,2.59c1.99-.6,2.76-.86,2.76-.86,0,0,2.68,3.54,2.68,8.81-.09,5.7,1.46,6.17,1.46,6.17,0,0-1.8,8.34-3.1,10.07-3.02,3.54-7,8.12-11.06,7.6Z"/><path class="cls-2" d="M31.33,49.04s4.59,.83,8.18-.06c-.44,2.04-4.59,2.98-4.59,2.98,0,0-4.03,.33-3.59-2.93Z"/><path class="cls-3" d="M32.74,37.84s-2.73-1.6-4.32-1.65c-2.56,.43-3.47,.87-3.47,.87,0,0,.63,1.64,2.94,1.98,2.36,.34,4.23-.67,4.85-1.2Z"/><path class="cls-3" d="M38.06,37.88s2.94-1.64,4.54-1.69c2.56,.43,3.47,.87,3.47,.87,0,0-1.03,1.8-3.34,2.13-2.36,.34-4.04-.78-4.67-1.31Z"/><polygon class="cls-4" points="33.33 34.71 32.94 37.88 28.54 36.26 25.89 36.81 29.57 32.46 33.33 34.71"/><path class="cls-4" d="M37.83,37.88l-.43-3.28s3.72-2.56,5.26-2.75c3.23,.68,5.31,1.4,5.31,1.4,0,0,1.4,2.75-1.69,4.15-1.98-1.25-4.25-1.25-4.25-1.25,0,0-3.09,1.01-4.2,1.74Z"/><ellipse class="cls-4" cx="35.46" cy="45.15" rx="2.45" ry="1.07"/><path class="cls-1" d="M37.78,23.54c.67,0,1.3,.1,1.86,.3,1.11,.38,2.11,1.29,2.62,2.36l.47,.98,.94-.55c.11-.07,.71-.43,1.26-.77,1.21,1.7,1.58,3.92,1.75,6.67v.03s0,.03,0,.03l.08,.63c.24,1.94,.5,3.95,1.33,5.82-.17,1.09-1.01,6.03-2.2,8.73-1.69,2.58-5.54,5.73-7.13,6.97-.62,.48-1.39,.76-2.17,.79-.16,0-.32,0-.49,0-.34,0-.69-.01-1.07-.04-.71-.05-1.4-.31-1.99-.76-3.58-2.76-6.09-5.15-7.26-6.91-1.11-2.48-1.9-6.73-2.17-8.37,5.15-2.4,8.14-7.45,11.04-12.34,.69-1.17,1.41-2.38,2.14-3.51,.34-.04,.68-.07,1-.07m0-1c-.53,0-1.07,.05-1.59,.15-3.93,6.02-7,13.5-13.72,16.18,.02,.05,.05,.1,.05,.16,.01,.06,.92,6.09,2.38,9.29,1.21,1.86,3.75,4.31,7.53,7.22,.74,.57,1.61,.91,2.53,.97,.4,.03,.78,.04,1.14,.04,.18,0,.36,0,.53-.01,.99-.03,1.97-.39,2.75-1,2.04-1.6,5.71-4.68,7.39-7.28,1.42-3.14,2.33-9.17,2.34-9.23,0-.04,.02-.07,.03-.1-.97-2.01-1.18-4.3-1.46-6.46-.17-2.84-.57-5.79-2.52-7.92-.55,.34-1.82,1.12-1.99,1.22-.62-1.3-1.81-2.39-3.2-2.87-.71-.25-1.44-.36-2.19-.36h0Z"/><path d="M43.63,53.24l-13.21,13.89-4.75-3.47-1.13-1.51s2.76-1.19,3-3.5,.17-6.61,.17-6.61l5.58,4.68s1.66,.53,3.55,.3,2.72-.91,3.09-1.36,3.7-2.41,3.7-2.41Z"/><path d="M30.97,33.02s-3.05,5.46-8.31,8.31c-.63-2.24-.38-2.73-.38-2.73,0,0,5.33-3.62,7.3-6.35,1.02,.51,1.4,.76,1.4,.76Z"/><path d="M22.07,38.89s-3.8,1.22-5.4,1.3c.59,6.41,1.52,10.12,5.31,12.06-2.02,6.07,2.56,9.9,2.56,9.9,0,0,3.94-.63,4.36-2.99s-.59-6.83-.59-6.83c0,0-1.77-.93-3.79-4.13s-2.86-8.42-2.44-9.31Z"/><path d="M19.67,53.5s-1.79,5.56,2.55,9.4,9.62,6.27,7.22,12.25c-11.88-2.11-19.54-4.01-19.54-4.01l-2.99-13.56s1.09-8.24,6.05-10.21c-3.13,6.12,2.33,1.24,6.71,6.12Z"/><path class="cls-14" d="M26.8,19.71s2.2,7.15,8.43,3.39c-4.12,7.33-7.24,11.09-7.24,11.09,0,0-1.47-7.97-7.97-6.14,3.58-3.22,5.31-5.5,6.78-8.34Z"/><path class="cls-14" d="M46.4,25.55s3.37-.86,2.84-3.37c2.05,5.09,3.64,10.12,3.64,10.12,0,0-3.37-2.51-4.56,1.12-.26-5.23-1.92-7.87-1.92-7.87Z"/><path class="cls-2" d="M41.66,56.64s-.28,3.98,1.3,5.18,10.09,3.7,10.09,3.7l-3.06,2.69-16.67,1.3-.74-2.96,9.07-9.91Z"/><path class="cls-16" d="M13.36,54.18c-2.88,5.34-3.25,11.9-.32,17.27,0,0-.87,.5-.87,.5-3.4-5.4-2.86-12.86,1.19-17.77h0Z"/><path class="cls-16" d="M16.02,59.95c.14,5.37,2.52,10.72,6.97,13.85,0,0-.55,.83-.55,.83-4.88-2.99-7-9.2-6.41-14.68h0Z"/><path d="M48.46,35.23s5.3,3,5.25-.6c3.05,3.25,2.55,6.2,.75,7.84s-4.45,3.5-5.1,5.3-.5,5.95-2.1,7.49-3.52,2.56-3.52,2.56l.13-5.56s2.85-2.8,3.7-4.7,2-8.14,2-8.14l-1.1-4.2Z"/><path class="cls-2" d="M27.68,40.43c.7,0,1.84-.03,2.9-.18,.57-.08,.92,.58,.54,1.01-1.15,1.27-2.16,2.09-2.83,2.57-.37,.27-.89,.03-.94-.43l-.26-2.3c-.04-.36,.24-.67,.6-.67Z"/><path d="M5.57,55.52c.47-3.75,2.13-7.58,5.36-9.73,0,0-.28,.57-.28,.57-.24-2.7-.16-5.43,.33-8.09,.51-2.76,1.3-5.41,2.56-7.94,2.03-.45,3.97-1.31,5.82-2.28,.6-.3,1.18-.63,1.84-.94-.72,1.25-1.94,2.12-3.19,2.74-1.27,.62-2.57,1.12-3.97,1.48l.36-.28c-.54,1.14-.98,2.39-1.34,3.63-1.13,3.86-1.53,7.93-1.15,11.93-1.55,1-2.82,2.39-3.68,4.04-.82,1.54-1.39,3.29-1.66,5-.09,.63-1.06,.52-.99-.13h0Z"/><path class="cls-8" d="M19.29,28.49s2.16-10.66,10.03-13.73,17.7,1.6,20.14,8.01,2.72,9.06,5.37,13.24-.91,7.46-3.76,9.48-1.92,6.8-3.9,9.69c-.84,1.22-2.23,2.09-3.31,2.62"/><path d="M17.95,39.88c10.19-2.81,12.2-10.09,17.55-17.95,0,0,.12-.17,.12-.17,3.06-.7,6.59,.35,8.05,3.31,0,0-.54-.17-.54-.17,.06-.04,2.17-1.18,2.14-1.17,1.33,1.05,2.18,2.51,2.71,4.08,1.1,3.64,.52,7.5,2.09,10.98,.27,.66,.57,1.29,.97,1.98-.77-.27-1.36-.89-1.77-1.58-1.09-2.07-1.3-4.47-1.59-6.73-.18-2.91-.58-5.95-2.67-8.08,0,0,.37,.03,.37,.03-.25,.15-2.02,1.24-2.21,1.36-.63-1.3-1.82-2.39-3.2-2.87-1.27-.46-2.66-.44-3.98-.18,0,0,.3-.19,.3-.19-4.78,7.25-8.22,16.76-18.35,17.35h0Z"/><path class="cls-8" d="M22.03,39.1s.91,6.12,2.41,9.43c1.62,2.5,5.03,5.36,7.68,7.41,.81,.62,1.78,1,2.8,1.07,.54,.04,1.12,.05,1.72,.03,1.1-.04,2.17-.43,3.04-1.11,2.63-2.06,5.92-4.96,7.5-7.4,1.5-3.31,2.41-9.43,2.41-9.43"/><path d="M43.42,23.04c-3.31-6.22-10.19-6.23-16.09-4.11,0,0,.44-.47,.44-.47-.5,1.2-1.11,2.33-1.78,3.41-.7,1.06-1.47,2.07-2.35,2.98-.04,.04-.11-.02-.08-.06,1.43-2.05,2.6-4.33,3.46-6.64,1.78-.64,3.97-1.32,5.86-1.44,.7-.12,1.71-.02,2.42,0,0,0,1.2,.2,1.2,.2,3.19,.64,5.94,3.02,7.01,6.1,.02,.06-.07,.09-.1,.03h0Z"/><path d="M33.01,37.88c-1.43-.52-3.02-1.11-4.51-1.18,0,0,.14,0,.14,0-1.07,.09-2.21,.16-3.22,.48-.21,.12-.4-.19-.2-.32,1.05-.59,2.19-.86,3.34-1.18,1.68,.44,3.03,1.31,4.46,2.19h0Z"/><path d="M24.94,36.96c.92,.83,2.06,1.6,3.28,1.92,1.25,.25,2.64,.01,3.85-.56-1.7,1.14-4.07,1.45-5.96,.48-.64-.3-1.25-.62-1.83-1.08-.22-.17-.25-.49-.08-.7,.18-.23,.53-.25,.74-.05h0Z"/><path d="M37.78,37.88c1.39-.9,2.77-1.74,4.44-2.1,.72,.08,1.45,.17,2.16,.35,.71,.19,1.36,.42,2,.82,0,0-.37-.01-.37-.01l1.8-.35-1.45,1.12-.07,.05c-1.36-.34-2.75-.87-4.12-1.16-.88,.1-3.11,.78-4.39,1.27h0Z"/><path d="M37.46,35.25s3.3-2.65,5.15-2.9c2.55,.8,5.45,.95,5.45,.95,0,0-3.3-1.85-5.45-1.9-3.85,1.15-5.5,2.65-5.5,2.65l.35,1.2Z"/><path d="M33.71,34.05l-.35,1.2s-2.19-1.76-4-2.55l.54-.72c2.65,1.01,3.81,2.07,3.81,2.07Z"/><path d="M46.22,37.76c-1.9,1.69-4.79,2.21-7.02,.88,2.2,1.08,4.92,.41,6.56-1.33,.29-.34,.8,.15,.46,.45h0Z"/><path d="M39.34,36c1.7-1.86,4.2-1.84,6.08-.25-1.01-.32-2.05-.71-3.09-.71-1,.03-2,.51-2.99,.97h0Z"/><path d="M31.74,36c-1.42-.59-2.71-1.2-4.26-1.02,1.41-.9,3.27-.16,4.26,1.02h0Z"/><path d="M33.86,42.11c.15,.33,.13,.72,0,1.05-.17,.59-.7,.91-.66,1.47,.03,.22,.19,.51,.36,.82-.88-.13-1.32-1.09-.81-1.82,.44-.61,.79-.85,1.11-1.52h0Z"/><path d="M37.16,42.11c.32,.66,.67,.91,1.11,1.52,.51,.73,.07,1.7-.81,1.82,.3-.55,.53-.9,.17-1.43-.34-.45-.79-1.28-.47-1.91h0Z"/><path d="M33.7,44.86c.36-.38,1.02-.07,.96,.45-.52-.04-.6-.09-.96-.45h0Z"/><path d="M37.22,44.86c-.37,.36-.45,.41-.96,.45-.05-.52,.6-.83,.96-.45h0Z"/><path d="M34.52,45.11c-.16,1.07,1.05,1.43,1.7,.76,.17-.21,.25-.55,.25-.84-.01-.15,.1-.27,.25-.27,.14,0,.25,.11,.25,.24,0,.42-.07,.82-.34,1.19-.56,.71-1.71,.77-2.33,.07-.29-.38-.33-.81-.29-1.23,.01-.14,.14-.24,.28-.22,.15,.02,.24,.15,.22,.3h0Z"/><path d="M37.41,48.18c-.9,.22-1.65,.74-2.02,1.03-.37-.29-1.12-.81-2.02-1.03-2.93,.81-3.89,.11-3.89,.11,1.1,1.44,4.9,1.49,5.9,1.49s4.8-.05,5.9-1.49c0,0-.95,.71-3.89-.11Z"/><path d="M29.16,48.89c.04-.31,.26-.57,.5-.74,.25-.14,.51-.39,.88-.11-.17,.42-.43,.37-.66,.49-.24,.12-.48,.21-.72,.36h0Z"/><path d="M41.63,48.89c-.24-.15-.48-.24-.72-.36-.23-.13-.49-.08-.66-.49,.37-.28,.63-.03,.88,.11,.24,.17,.46,.43,.5,.74h0Z"/><path d="M39.94,49.14c-.76,5.76-8.62,5.76-9.38,0-.04-.28,.36-.41,.5-.17,2.46,3.56,5.95,3.53,8.39-.03,.15-.22,.53-.07,.49,.2h0Z"/><path d="M37.94,50.82l-.73-.71-.37,.68h-1.68s-1.68,0-1.68,0l-.37-.68-.73,.71s.88,1.24,2.73,1.24,2.83-1.24,2.83-1.24Z"/><path d="M24.73,43.32c.85,.4,1.18,1.19,1.49,1.94,.3,.76,.47,1.61,.35,2.43-.54-1.59-1.59-2.67-1.85-4.37h0Z"/><path d="M46.12,43.32c-.26,1.7-1.31,2.78-1.85,4.37-.11-.82,.05-1.67,.35-2.43,.31-.75,.65-1.54,1.49-1.94h0Z"/><path d="M17.05,40.99c.6,4.32,1.86,9.06,5.88,11.37-2.79,3.85,.25,8.78,3.65,11.16,.32,.22,1.01,.63,1.36,.79,3.82,1.97,5.12,6.95,4.12,10.9,0,0-.97-.25-.97-.25,.83-3.77-.67-8.46-4.46-9.97,0,0-.75-.48-.75-.48-3.75-2.59-6.94-7.92-4.17-12.29,0,0,.17,.76,.17,.76-3.83-2.53-5.67-7.57-4.84-11.99h0Z"/><path class="cls-7" d="M27.62,52.02l.11,6.16c.02,1.35-.69,2.6-1.84,3.23l-1.22,.67"/><path class="cls-7" d="M43.83,52.31l-.11,5.87c-.02,1.35,.64,2.72,1.84,3.23,3.44,1.46,14.21,4.48,14.21,4.48"/><path d="M31.96,70.46s6.68,.62,18.63-1.43c2.67-1.43,4.81-4.46,4.81-4.46l5.53,1.6-2.05,6.06s-14.88,4.19-27.36,2.5c.62-2.58,.45-4.28,.45-4.28Z"/><circle cx="40.83" cy="59.71" r=".5"/><circle cx="43.03" cy="62.97" r=".5"/></g></g><g id="Frame"><path class="cls-5" d="M62.56,4.88C54.4,1.94,45.12,.2,35.25,.02c-.57-.01-1.15-.02-1.72-.02C23.88,0,14.77,1.52,6.72,4.21,2.49,14.22,0,26.6,0,40s2.39,25.22,6.45,35.11c8.16,2.94,17.45,4.69,27.32,4.87,.58,.01,1.15,.02,1.73,.02,9.63,0,18.73-1.51,26.78-4.2,4.24-10.01,6.74-22.39,6.74-35.8s-2.4-25.24-6.46-35.12Zm-4.04,66.86c-7.2,2.16-14.94,3.26-23.02,3.26-.49,0-.98-.01-1.47-.02h-.17c-8.18-.15-16.29-1.47-23.6-3.85-3.45-9.22-5.26-19.93-5.26-31.13s1.89-22.38,5.48-31.73c6.73-2.01,14.13-3.13,21.6-3.26,.48-.01,.97-.01,1.45-.01,.54,0,1.08,.01,1.63,.02,8.16,.15,16.27,1.47,23.59,3.84,3.46,9.24,5.27,19.95,5.27,31.14s-1.89,22.39-5.5,31.74Z"/><path class="cls-13" d="M17.21,2.06h0c1.63,.63,2.06,2.75,.81,3.97l-1.26,1.22s8.35-2.37,18.84-1.69h0c-1-1.49-.45-3.52,1.14-4.34l1-.51S28.26-.43,17.21,2.06Z"/><path class="cls-15" d="M21.81,1.66s.7,2.18-.22,3.1c3.77-.41,7.98-.74,11.12-.74-.33-1.33,1.26-3.4,1.26-3.4,0,0-6.17-.26-12.16,1.03Z"/><path class="cls-13" d="M36.25,79.21h0c-1.52-.87-1.62-3.03-.2-4.04l1.43-1.02s-8.61,1.07-18.88-1.19h0c.76,1.63-.09,3.55-1.79,4.11l-1.07,.36s9.19,2.56,20.5,1.78Z"/><path class="cls-15" d="M19.28,77.8s1.76-1.83,1.3-3.09c4.43,.69,9.11,1.14,12.25,1.14-.33,1.33,.44,3.4,.44,3.4,0,0-8-.16-13.99-1.45Z"/><polygon points="47.48 1.77 47.48 6.73 54.49 8.44 54.49 2.62 47.48 1.77"/><line class="cls-7" x1="45.5" y1="1.23" x2="45.5" y2="6.29"/><line class="cls-7" x1="56.47" y1="3.67" x2="56.47" y2="8.73"/><polygon points="47.48 78.74 47.48 73.78 54.49 72.07 54.49 77.88 47.48 78.74"/><line class="cls-7" x1="45.5" y1="79.28" x2="45.5" y2="74.21"/><line class="cls-7" x1="56.47" y1="76.84" x2="56.47" y2="71.77"/><path d="M33.53,1c.56,0,1.14,0,1.7,.02,9.39,.17,18.33,1.74,26.57,4.65,4.07,10.08,6.22,21.94,6.22,34.33s-2.24,24.79-6.49,34.99c-8.12,2.66-16.87,4.01-26.03,4.01-.56,0-1.12,0-1.71-.02-9.25-.17-18.42-1.78-26.58-4.66C3.15,64.25,1,52.39,1,40S3.23,15.21,7.47,5.02C15.6,2.35,24.37,1,33.53,1m0-1C23.88,0,14.77,1.52,6.72,4.21,2.49,14.22,0,26.6,0,40s2.39,25.22,6.45,35.11c8.16,2.94,17.45,4.69,27.32,4.87,.58,.01,1.15,.02,1.73,.02,9.63,0,18.73-1.51,26.78-4.2,4.24-10.01,6.74-22.39,6.74-35.8s-2.4-25.24-6.46-35.12C54.4,1.94,45.12,.2,35.25,.02c-.57,0-1.15-.02-1.72-.02h0Z"/><path class="cls-13" d="M33.53,6c.52,0,1.04,0,1.61,.02,7.87,.14,15.75,1.4,22.84,3.64,3.3,9,5.04,19.47,5.04,30.34s-1.82,21.82-5.26,30.92c-6.98,2.04-14.47,3.08-22.26,3.08-.48,0-.97,0-1.47-.02h-.15c-7.89-.14-15.78-1.41-22.85-3.65-3.29-8.99-5.03-19.46-5.03-30.33s1.81-21.79,5.24-30.91c6.5-1.89,13.7-2.95,20.86-3.08,.47,0,.96,0,1.43,0m0-1c-.48,0-.97,0-1.45,.01-7.47,.13-14.87,1.25-21.6,3.26-3.59,9.35-5.48,20.26-5.48,31.73s1.81,21.91,5.26,31.13c7.31,2.38,15.42,3.7,23.6,3.85h.17c.49,.01,.98,.02,1.47,.02,8.08,0,15.82-1.1,23.02-3.26,3.61-9.35,5.5-20.27,5.5-31.74s-1.81-21.9-5.27-31.14c-7.32-2.37-15.43-3.69-23.59-3.84-.55,0-1.09-.02-1.63-.02h0Z"/><path d="M33.53,5c.54,0,1.08,.01,1.63,.02,8.16,.15,16.27,1.47,23.59,3.84,3.46,9.24,5.27,19.95,5.27,31.14s-1.89,22.39-5.5,31.74c-7.2,2.16-14.94,3.26-23.02,3.26-.49,0-.98-.01-1.47-.02h-.17c-8.18-.15-16.29-1.47-23.6-3.85-3.45-9.22-5.26-19.93-5.26-31.13s1.89-22.38,5.48-31.73c6.73-2.01,14.13-3.13,21.6-3.26,.48-.01,.97-.01,1.45-.01m0-1c-.49,0-.98,0-1.47,.01-7.51,.13-15.07,1.27-21.87,3.3l-.47,.14-.18,.46c-3.63,9.45-5.55,20.55-5.55,32.09s1.84,22.17,5.32,31.48l.17,.45,.46,.15c7.37,2.4,15.63,3.75,23.89,3.9h.19c.48,.01,.97,.02,1.47,.02,8.16,0,16-1.11,23.31-3.3l.47-.14,.18-.46c3.64-9.43,5.57-20.53,5.57-32.1s-1.84-22.17-5.33-31.49l-.17-.45-.46-.15c-7.39-2.39-15.65-3.74-23.88-3.89-.58-.01-1.12-.02-1.65-.02h0Z"/><path class="cls-9" d="M8.14,7.1s-12.66,32.94,0,66.06"/><path class="cls-9" d="M60.88,7.58s12.66,32.94,0,66.06"/></g></svg>