<svg id="Capa_2" xmlns="http://www.w3.org/2000/svg" xmlns:xlink="http://www.w3.org/1999/xlink" viewBox="0 0 69.02 80">
<defs >
<style >
.cls-1{fill:#c89aed;}.cls-2{fill:#fff;}.cls-3{fill:#f8ffbf;}.cls-4{fill:#7b7be8;}.cls-5,.cls-6{fill:#a88347;}.cls-7{fill:#782ab5;}.cls-8,.cls-9,.cls-6,.cls-10{stroke:#000;stroke-miterlimit:10;}.cls-8,.cls-9,.cls-11,.cls-12,.cls-13,.cls-10{fill:none;}.cls-9,.cls-6,.cls-11,.cls-10{stroke-linecap:round;}.cls-11{stroke:#deb778;stroke-dasharray:0 0 0 4.06;stroke-linejoin:round;}.cls-14{fill:url(#USGS_19_Inundación_de_tierra);}.cls-15{fill:#deb778;}.cls-16{fill:#ffc16b;}.cls-13{stroke:#1d1d1b;stroke-dasharray:0 0 2 2;stroke-width:.3px;}.cls-10{stroke-width:.75px;}.cls-17{fill:#fcf0c5;}.cls-18{fill:#b83521;}
</style>
<pattern id="USGS_19_Inundación_de_tierra" x="0" y="0" width="72" height="72" patternTransform="translate(-164.48 -16135) rotate(-90)" patternUnits="userSpaceOnUse" viewBox="0 0 72 72">
<g >
<rect class="cls-12" width="72" height="72">
</rect>
<g >
<line class="cls-13" x1="71" y1="71" x2="144.44" y2="71">
</line>
<line class="cls-13" x1="71" y1="67" x2="144.44" y2="67">
</line>
<line class="cls-13" x1="71" y1="63" x2="144.44" y2="63">
</line>
<line class="cls-13" x1="71" y1="59" x2="144.44" y2="59">
</line>
<line class="cls-13" x1="71" y1="55" x2="144.44" y2="55">
</line>
<line class="cls-13" x1="71" y1="51" x2="144.44" y2="51">
</line>
<line class="cls-13" x1="71" y1="47" x2="144.44" y2="47">
</line>
<line class="cls-13" x1="71" y1="43" x2="144.44" y2="43">
</line>
<line class="cls-13" x1="71" y1="39" x2="144.44" y2="39">
</line>
<line class="cls-13" x1="71" y1="35" x2="144.44" y2="35">
</line>
<line class="cls-13" x1="71" y1="31" x2="144.44" y2="31">
</line>
<line class="cls-13" x1="71" y1="27" x2="144.44" y2="27">
</line>
<line class="cls-13" x1="71" y1="23" x2="144.44" y2="23">
</line>
<line class="cls-13" x1="71" y1="19" x2="144.44" y2="19">
</line>
<line class="cls-13" x1="71" y1="15" x2="144.44" y2="15">
</line>
<line class="cls-13" x1="71" y1="11" x2="144.44" y2="11">
</line>
<line class="cls-13" x1="71" y1="7" x2="144.44" y2="7">
</line>
<line class="cls-13" x1="71" y1="3" x2="144.44" y2="3">
</line>
</g>
<g >
<line class="cls-13" x1="-1" y1="71" x2="72.44" y2="71">
</line>
<line class="cls-13" x1="-1" y1="67" x2="72.44" y2="67">
</line>
<line class="cls-13" x1="-1" y1="63" x2="72.44" y2="63">
</line>
<line class="cls-13" x1="-1" y1="59" x2="72.44" y2="59">
</line>
<line class="cls-13" x1="-1" y1="55" x2="72.44" y2="55">
</line>
<line class="cls-13" x1="-1" y1="51" x2="72.44" y2="51">
</line>
<line class="cls-13" x1="-1" y1="47" x2="72.44" y2="47">
</line>
<line class="cls-13" x1="-1" y1="43" x2="72.44" y2="43">
</line>
<line class="cls-13" x1="-1" y1="39" x2="72.44" y2="39">
</line>
<line class="cls-13" x1="-1" y1="35" x2="72.44" y2="35">
</line>
<line class="cls-13" x1="-1" y1="31" x2="72.44" y2="31">
</line>
<line class="cls-13" x1="-1" y1="27" x2="72.44" y2="27">
</line>
<line class="cls-13" x1="-1" y1="23" x2="72.44" y2="23">
</line>
<line class="cls-13" x1="-1" y1="19" x2="72.44" y2="19">
</line>
<line class="cls-13" x1="-1" y1="15" x2="72.44" y2="15">
</line>
<line class="cls-13" x1="-1" y1="11" x2="72.44" y2="11">
</line>
<line class="cls-13" x1="-1" y1="7" x2="72.44" y2="7">
</line>
<line class="cls-13" x1="-1" y1="3" x2="72.44" y2="3">
</line>
<line class="cls-13" x1="1.04" y1="69" x2="74.48" y2="69">
</line>
<line class="cls-13" x1="1.04" y1="65" x2="74.48" y2="65">
</line>
<line class="cls-13" x1="1.04" y1="61" x2="74.48" y2="61">
</line>
<line class="cls-13" x1="1.04" y1="57" x2="74.48" y2="57">
</line>
<line class="cls-13" x1="1.04" y1="53" x2="74.48" y2="53">
</line>
<line class="cls-13" x1="1.04" y1="49" x2="74.48" y2="49">
</line>
<line class="cls-13" x1="1.04" y1="45" x2="74.48" y2="45">
</line>
<line class="cls-13" x1="1.04" y1="41" x2="74.48" y2="41">
</line>
<line class="cls-13" x1="1.04" y1="37" x2="74.48" y2="37">
</line>
<line class="cls-13" x1="1.04" y1="33" x2="74.48" y2="33">
</line>
<line class="cls-13" x1="1.04" y1="29" x2="74.48" y2="29">
</line>
<line class="cls-13" x1="1.04" y1="25" x2="74.48" y2="25">
</line>
<line class="cls-13" x1="1.04" y1="21" x2="74.48" y2="21">
</line>
<line class="cls-13" x1="1.04" y1="17" x2="74.48" y2="17">
</line>
<line class="cls-13" x1="1.04" y1="13" x2="74.48" y2="13">
</line>
<line class="cls-13" x1="1.04" y1="9" x2="74.48" y2="9">
</line>
<line class="cls-13" x1="1.04" y1="5" x2="74.48" y2="5">
</line>
<line class="cls-13" x1="1.04" y1="1" x2="74.48" y2="1">
</line>
</g>
<g >
<line class="cls-13" x1="-73" y1="71" x2=".44" y2="71">
</line>
<line class="cls-13" x1="-73" y1="67" x2=".44" y2="67">
</line>
<line class="cls-13" x1="-73" y1="63" x2=".44" y2="63">
</line>
<line class="cls-13" x1="-73" y1="59" x2=".44" y2="59">
</line>
<line class="cls-13" x1="-73" y1="55" x2=".44" y2="55">
</line>
<line class="cls-13" x1="-73" y1="51" x2=".44" y2="51">
</line>
<line class="cls-13" x1="-73" y1="47" x2=".44" y2="47">
</line>
<line class="cls-13" x1="-73" y1="43" x2=".44" y2="43">
</line>
<line class="cls-13" x1="-73" y1="39" x2=".44" y2="39">
</line>
<line class="cls-13" x1="-73" y1="35" x2=".44" y2="35">
</line>
<line class="cls-13" x1="-73" y1="31" x2=".44" y2="31">
</line>
<line class="cls-13" x1="-73" y1="27" x2=".44" y2="27">
</line>
<line class="cls-13" x1="-73" y1="23" x2=".44" y2="23">
</line>
<line class="cls-13" x1="-73" y1="19" x2=".44" y2="19">
</line>
<line class="cls-13" x1="-73" y1="15" x2=".44" y2="15">
</line>
<line class="cls-13" x1="-73" y1="11" x2=".44" y2="11">
</line>
<line class="cls-13" x1="-73" y1="7" x2=".44" y2="7">
</line>
<line class="cls-13" x1="-73" y1="3" x2=".44" y2="3">
</line>
<line class="cls-13" x1="-70.96" y1="69" x2="2.48" y2="69">
</line>
<line class="cls-13" x1="-70.96" y1="65" x2="2.48" y2="65">
</line>
<line class="cls-13" x1="-70.96" y1="61" x2="2.48" y2="61">
</line>
<line class="cls-13" x1="-70.96" y1="57" x2="2.48" y2="57">
</line>
<line class="cls-13" x1="-70.96" y1="53" x2="2.48" y2="53">
</line>
<line class="cls-13" x1="-70.96" y1="49" x2="2.48" y2="49">
</line>
<line class="cls-13" x1="-70.96" y1="45" x2="2.48" y2="45">
</line>
<line class="cls-13" x1="-70.96" y1="41" x2="2.48" y2="41">
</line>
<line class="cls-13" x1="-70.96" y1="37" x2="2.48" y2="37">
</line>
<line class="cls-13" x1="-70.96" y1="33" x2="2.48" y2="33">
</line>
<line class="cls-13" x1="-70.96" y1="29" x2="2.48" y2="29">
</line>
<line class="cls-13" x1="-70.96" y1="25" x2="2.48" y2="25">
</line>
<line class="cls-13" x1="-70.96" y1="21" x2="2.48" y2="21">
</line>
<line class="cls-13" x1="-70.96" y1="17" x2="2.48" y2="17">
</line>
<line class="cls-13" x1="-70.96" y1="13" x2="2.48" y2="13">
</line>
<line class="cls-13" x1="-70.96" y1="9" x2="2.48" y2="9">
</line>
<line class="cls-13" x1="-70.96" y1="5" x2="2.48" y2="5">
</line>
<line class="cls-13" x1="-70.96" y1="1" x2="2.48" y2="1">
</line>
</g>
</g>
</pattern>
</defs>

  <path
     id="path7641-4"
     style="fill:#782ab5;fill-opacity:1;stroke:#4d4d4d;stroke-width:1.62226;stop-color:#000000"
     d="M 34.900259,1.6936052 C 14.323312,9.5265586 1.6299002,23.954051 1.5689773,39.580572 V 79.197446 H 67.963672 V 39.580572 C 67.958188,23.990066 55.374427,9.5708664 34.900259,1.6936052 Z"/>
  <path
     id="path7641-7"
     style="fill:#808080;stroke:#4d4d4d;stroke-width:1.48325;stop-color:#000000"
     d="M 34.629293,5.0425238 C 15.815619,12.204258 4.1542243,25.395327 4.1542243,39.682894 V 76.559207 H 64.859448 V 39.682894 c 0,-14.254531 -11.510452,-27.438125 -30.230155,-34.6403702 z m -0.01233,3.4358455 C 51.537073,14.988239 61.941622,26.904418 61.941622,39.788613 v 33.82806 H 7.07205 v -33.82806 c 0,-12.914055 10.539857,-24.836991 27.544909,-31.3102437 z"/>
  <path
     id="path7641-7-8"
     style="fill:#808080;stroke:#4d4d4d;stroke-width:1.35027;stop-color:#000000"
     d="M 34.618314,8.2461803 C 17.491429,14.76581 6.8755673,26.7742 6.8755673,39.780777 v 33.57007 H 62.138105 v -33.57007 c 0,-12.976504 -10.478452,-24.978088 -27.519791,-31.5345967 z m -0.01123,3.1277957 c 15.403093,5.926211 24.874795,16.774013 24.874795,28.503041 V 70.672134 H 9.5317874 V 39.877017 c 0,-11.75621 9.5948786,-22.610165 25.0752986,-28.503041 z"/>
  <path
     id="path7641-7-8-0"
     style="fill:#808080;stroke:#4d4d4d;stroke-width:1.21411;stop-color:#000000"
     d="M 34.607073,11.526302 C 19.207238,17.388502 9.6618637,28.185984 9.6618637,39.880997 V 70.06591 H 59.351809 V 39.880997 c 0,-11.667973 -9.421821,-22.459335 -24.744736,-28.354695 z m -0.0101,2.812393 c 13.849868,5.328621 22.366458,15.082547 22.366458,25.628837 V 67.657315 H 12.050234 V 39.967532 c 0,-10.570731 8.627346,-20.33019 22.546743,-25.628837 z"/>


<g id="Characters">
<g >
<g >
<path class="cls-1" d="M60.2,66.76l-1.37,5.11s-11.14,3.84-22.74,3.65c-11.6-.18-24.84-3.38-24.84-3.38,0,0-1.37-.18-2.28-5.93,2.19-2.19,4.47-1.92,8.4-3.29s8.68-4.29,8.68-4.29l.36-7.49s-2.28-2.28-3.47-3.56c-1.19-1.28-1.37-3.47-1.37-3.47l-2.65-.82s-.36-2.01-.91-3.47c-.55-1.46-1.55-3.2,.64-6.39-.05-.12-.1-.28-.14-.45-.57-2.09-.96-7.31-.96-7.31,0,0-.18-1.28,2.83-3.84-2.92-3.47-.27-8.86,2.65-8.86,2.74-2.83,5.94-1.92,5.94-1.92-1.28,1.83,1.92,1.37,4.2,1.01,2.28-.37,10.13,.27,11.32,3.74,7.21,3.2,4.48,7.22,4.48,7.22l1.82,2.28-1.46,7.94s.06,.08,.16,.23c.32,.5,1.05,1.75,1.12,2.88,.09,1.46-1.55,6.48-1.55,6.48l-2.19,.82-.46,2.01c-.41,1.59-5.02,5.66-5.02,5.66,0,0-.55,3.93,.27,6.03,.82,2.1,3.84,3.93,7.67,5.02,3.11,.46,10.87,4.39,10.87,4.39Z">
</path>
<path class="cls-2" d="M34.18,48.56v-16.42c0-4.26,3.67-7.59,7.91-7.18l1.61,.15,3.15,2.31s1.04,13.85-.85,18.69c-1.74,2.49-3.48,4.33-5.11,5.65-2.69,2.18-6.7,.26-6.7-3.2Z">
</path>
<path class="cls-5" d="M49.33,33.24s.06,.08,.16,.23c-.72,1.71-1.43,3.25-2.03,4.29-.31-7.32-1.02-11.01-1.02-11.01l-2.83-1.58s-2.91,.55-4.64-.71c-3.07,.87-5.35-.39-5.35-.39,0,0-7.55-.94-12.04,2.99-.94,4.25-.94,10.46-.94,10.46,0,0-.99-1.81-2.13-4.54-.57-2.09-.96-7.31-.96-7.31,0,0-.18-1.28,2.83-3.84-2.92-3.47-.27-8.86,2.65-8.86,2.74-2.83,5.94-1.92,5.94-1.92-1.28,1.83,1.92,1.37,4.2,1.01,2.28-.37,10.13,.27,11.32,3.74,7.21,3.2,4.48,7.22,4.48,7.22l1.82,2.28-1.46,7.94Z">
</path>
<path d="M33.94,24.34s-.64-3.67-5.15-3.41-4.95,2.12-8.11,1.16c-3.35,2.25-3.14,3.59-3.14,3.59,0,0,1.33,8.96,2.88,11.21,.51-7.79,1.15-9.82,1.15-9.82,0,0,5.54-5.17,12.36-2.72Z">
</path>
<path d="M50.13,28.39s-1.55-1.93-3.17,.31c.44,3.98,.62,8.64,.62,8.64,0,0,2.49-6.09,2.55-8.95Z">
</path>
<path class="cls-17" d="M49.08,21.2s-6.12-7.56-18.55-2.43c.36-3.87,8.38-6.21,10.9-5.76,3.06,1.71,3.51,2.88,3.51,2.88,0,0,5.04,1.8,4.14,5.31Z">
</path>
<path d="M40.66,52.12l-17.09,22.41-13.19-2.91-1.49-5.74s7.3-2.48,11.49-3.97,5.25-2.62,5.6-4.68,.28-6.52,.28-6.52c0,0,3.76,3.76,6.38,3.9s3.9-.35,4.96-.92,3.05-1.56,3.05-1.56Z">
</path>
<path class="cls-3" d="M30.53,38.93s-2.52-1.98-3.24-2.08c-2.03,.11-3.73,.82-3.73,.82,0,0,.66,3.29,6.97,1.26Z">
</path>
<path class="cls-4" d="M30.91,33.1s1.37,2.32,.05,5.77c-2.46-1.99-3.69-2.17-3.69-2.17l-3.88,1.04s-1.09-2.32,.14-3.59c2.32-1.47,6.38-1.75,7.37-1.04Z">
</path>
<path class="cls-3" d="M36.69,38.93s2.52-1.98,3.24-2.08c2.03,.11,3.73,.82,3.73,.82,0,0-.66,3.29-6.97,1.26Z">
</path>
<path class="cls-4" d="M36.31,33.1s-1.37,2.32-.05,5.77c2.46-1.99,3.69-2.17,3.69-2.17l3.88,1.04s1.09-2.32-.14-3.59c-2.32-1.47-6.38-1.75-7.37-1.04Z">
</path>
<path class="cls-4" d="M36.94,43.1c0,.46-1.34,1.38-2.99,1.38s-2.99-.92-2.99-1.38,1.34-.84,2.99-.84,2.99,.38,2.99,.84Z">
</path>
<path class="cls-2" d="M31.25,48.46l2.87-1.76,2.14,1.89s-.99,1.46-2.62,1.54-2.4-1.67-2.4-1.67Z">
</path>
<path d="M18.65,33.43l2.19,5.64,.46,5.24-2.29-1.44s-1.83-5.04-1.64-6.55,1.28-2.89,1.28-2.89Z">
</path>
<path class="cls-2" d="M37.47,59.9l-9.58,12.87s14.64,1.38,28.24-2.58c1.12-2.15,1.29-2.58,1.29-2.58,0,0-5.42-3.96-13.34-4.99-1.46-.52-2.41-1.5-3.02-2.53-.79-1.32-2.66-1.41-3.58-.18Z">
</path>
<path class="cls-1" d="M30.77,25.82h0c1.24,0,2.22,.15,2.69,.24l.09,.02h.09s9.5,.98,9.5,.98c.58,.3,1.15,.66,1.69,1.06,.98,5.55,.34,13.79-.45,16.76-2.58,3.71-7.4,7.74-10.19,7.74h-.36c-2.79,0-7.61-4.03-10.19-7.74-.79-2.98-1.42-11.2-.45-16.76,2.63-1.89,5.54-2.31,7.58-2.31m0-2c-2.66,0-6.25,.61-9.4,3.18-1.3,6.17-.49,15.71,.43,18.74,2.44,3.63,7.96,8.88,12.02,8.88h.36c4.06,0,9.59-5.25,12.02-8.88,.92-3.03,1.73-12.57,.43-18.74-.98-.8-1.97-1.42-2.94-1.9l-9.87-1.01c-.69-.13-1.77-.28-3.07-.28h0Z">
</path>
<path class="cls-2" d="M23.91,40.18s2.7,1.35,5.83,.85c-4.27,3.98-5.49,1.66-5.83-.85Z">
</path>
<path class="cls-18" d="M35.51,48.12c-.17,.47-.77,1.11-1.68,1.17-.91-.06-1.51-.71-1.68-1.17l-2.15,.27s1,1.73,1.57,2.42c.76,.92,2.22,.78,2.22,.78h.09s1.45,.13,2.22-.78c.57-.69,1.57-2.42,1.57-2.42l-2.15-.27Z">
</path>
<path class="cls-9" d="M34.12,24.21s-1.2-4.82-7.43-2.81-7.76-.2-7.63-3.14,2.01-5.02,4.48-5.62c1.34-1.87,4.95-2.07,5.69-1.61-1.67,1.41,.07,1.74,4.15,.94,0,0,8.5-1.2,11.37,3.88,5.29,2.27,5.55,6.02,3.01,7.69s-5.69,2.07-9.17,.94c-1.61,.74-4.48-.27-4.48-.27Z">
</path>
<path class="cls-9" d="M33.83,24.1c-2.12-.41-7.78-.92-12.47,2.9-1.3,6.17-.49,15.71,.43,18.74,2.44,3.63,7.96,8.88,12.02,8.88">
</path>
<path class="cls-9" d="M34.18,54.63c4.06,0,9.59-5.25,12.02-8.88,.92-3.03,1.73-12.57,.43-18.74-.98-.8-1.97-1.42-2.94-1.9">
</path>
<path class="cls-9" d="M20.84,21.83s-2.63,1.45-3.32,3.54c.43,4.66,.98,8.27,3.16,13.49">
</path>
<path class="cls-9" d="M48.7,22.98c.74,.62,1.41,1.34,1.76,2.39-.43,4.66-.98,8.27-3.16,13.49">
</path>
<path class="cls-9" d="M18.53,33.45s-1.61,1.79-.9,4.71,1.43,4.71,1.43,4.71l2.15,1.19">
</path>
<path class="cls-9" d="M49.5,33.45s1.61,1.79,.9,4.71-1.43,4.71-1.43,4.71l-2.15,1.19">
</path>
<path class="cls-10" d="M37.67,24.72s4.67-1.39,4.67-5.47-3.01-7.65-8.96-7.29">
</path>
<path class="cls-10" d="M44.23,15.23s3.49,6.7-5.07,9.15">
</path>
<path class="cls-10" d="M34.5,24.27s1.66-7.52-2.24-8.35-12.32,6.18-9.22-3.07">
</path>
<path class="cls-10" d="M35.43,24.38s4.07-3.31,3.56-7.56-4.49-4.83-4.49-4.83">
</path>
<path class="cls-9" d="M26.19,50.91s.88,7.03-1.84,9.26-13.73,3.51-17.01,7.27">
</path>
<path class="cls-9" d="M41.44,51.3s-.88,6.64,1.84,8.87,13.73,3.51,17.01,7.27">
</path>
<ellipse class="cls-6" cx="26.84" cy="65.24" rx="4.14" ry="2.77" transform="translate(-41.2 46.61) rotate(-52.33)">
</ellipse>
<path class="cls-18" d="M27.97,66.12c-.58,.76-1.32,1.26-1.94,1.36-.31,.05-.59,.01-.8-.16-.62-.48-.41-1.8,.48-2.95,.88-1.15,2.11-1.69,2.74-1.21,.05,.04,.09,.08,.13,.13,.45,.57,.21,1.77-.61,2.83Z">
</path>
<ellipse class="cls-6" cx="33.85" cy="66.65" rx="4.43" ry="3.23" transform="translate(-33.97 98.08) rotate(-87.94)">
</ellipse>
<path class="cls-18" d="M35.53,66.71c-.06,1.45-.75,2.61-1.6,2.74-.06,0-.12,0-.18,0-.92-.03-1.63-1.32-1.57-2.88,.06-1.53,.83-2.75,1.75-2.75h.03c.92,.03,1.62,1.32,1.57,2.88Z">
</path>
<ellipse class="cls-6" cx="22.31" cy="60.59" rx="4.14" ry="2.77" transform="translate(-23.64 15.23) rotate(-25.16)">
</ellipse>
<ellipse class="cls-18" cx="22.31" cy="60.59" rx="2.63" ry="1.43" transform="translate(-23.64 15.23) rotate(-25.16)">
</ellipse>
<ellipse class="cls-6" cx="40.86" cy="65.24" rx="2.77" ry="4.14" transform="translate(-31.35 38.58) rotate(-37.67)">
</ellipse>
<path class="cls-18" d="M42.65,67.11c-.04,.08-.11,.15-.18,.21-.63,.49-1.86-.05-2.74-1.2-.89-1.15-1.1-2.47-.48-2.96,.05-.03,.09-.06,.15-.09,.65-.31,1.77,.23,2.6,1.3,.77,1.01,1.03,2.16,.65,2.74Z">
</path>
<ellipse class="cls-6" cx="45.39" cy="60.59" rx="2.77" ry="4.14" transform="translate(-28.75 75.91) rotate(-64.84)">
</ellipse>
<path class="cls-18" d="M47.77,61.71c-.06,.13-.16,.24-.28,.32-.54,.41-1.64,.37-2.71-.14-1.32-.62-2.11-1.7-1.77-2.42,.03-.06,.06-.11,.1-.16,.44-.56,1.68-.58,2.89-.01,1.31,.61,2.1,1.69,1.77,2.41Z">
</path>
<path d="M31.31,33.75l-.47-1.54s-3.07-.2-4.88,.28c-2.28,1.14-2.83,2.05-2.83,2.05,0,0,2.32-1.02,3.43-1.18,2.36-.04,4.76,.39,4.76,.39Z">
</path>
<path d="M36.31,33.75l.47-1.54s3.07-.2,4.88,.28c2.28,1.14,2.83,2.05,2.83,2.05,0,0-2.32-1.02-3.43-1.18-2.36-.04-4.76,.39-4.76,.39Z">
</path>
<path d="M23.37,37.79c1.34-.56,2.62-1.19,4.08-1.42,1.31,.49,2.18,1.43,3.27,2.23,0,0,.5,.3,.5,.3-1.2,.59-2.5,.97-3.83,.94-1.09-.01-2.16-.39-3-1.07,.89,.57,1.94,.81,2.99,.7,1-.1,2.02-.45,2.88-.95,0,0-.1,.57-.1,.57-.55-.98-1.86-1.52-2.91-1.72-.55-.06-2.79,.2-3.86,.41h0Z">
</path>
<path d="M44.05,37.79c-1.07-.21-3.32-.48-3.86-.41-1.06,.2-2.36,.74-2.91,1.72,0,0-.1-.57-.1-.57,.85,.5,1.88,.85,2.88,.95,1.04,.11,2.1-.13,2.99-.7-.83,.69-1.91,1.06-3,1.07-1.33,.03-2.63-.35-3.83-.94,0,0,.5-.3,.5-.3,1.09-.8,1.96-1.75,3.27-2.23,1.46,.23,2.74,.86,4.08,1.42h0Z">
</path>
<path d="M25.13,36.21c.68-.61,1.4-1.15,2.33-1.36,.55,.21,1.05,.54,1.46,.96,.38,.4,.71,.87,.86,1.39-.35-.41-.72-.78-1.14-1.08-.4-.32-.84-.57-1.3-.78l.14,.02c-.78,.17-1.57,.58-2.35,.86h0Z">
</path>
<path d="M42.23,36.21c-.77-.28-1.57-.69-2.35-.86,0,0,.14-.02,.14-.02-.46,.21-.9,.47-1.3,.78-.41,.31-.78,.67-1.14,1.08,.15-.53,.48-.99,.86-1.39,.41-.41,.91-.74,1.46-.96,.93,.21,1.65,.74,2.33,1.36h0Z">
</path>
<path d="M31.96,41.28c-.31,.44-.8,.81-.95,1.26-.04,.43-.02,.75,.31,1.15-.74,.1-1.23-.87-.97-1.51,.32-.67,.94-.92,1.61-.9h0Z">
</path>
<path d="M31.65,43.02s.94,.06,1.35,.88c-.9-.19-1.54-.45-1.35-.88Z">
</path>
<path d="M35.49,41.28c.67-.02,1.29,.22,1.61,.9,.26,.64-.23,1.62-.97,1.51,.33-.39,.35-.71,.31-1.15-.14-.46-.63-.82-.95-1.26h0Z">
</path>
<path d="M35.79,43.02s-.94,.06-1.35,.88c.9-.19,1.54-.45,1.35-.88Z">
</path>
<path d="M37.82,48.36s-1.34,.53-3.28-.32c-.29-.14-.52-.24-.7-.3h-.01c-.19,.06-.42,.15-.69,.3-1.92,.85-3.28,.32-3.28,.32,0,0,.75-.41,1.41-1.5,.65-1.1,2.02-1.13,2.58-1.13s1.92,.03,2.58,1.13c.65,1.09,1.41,1.5,1.41,1.5Z">
</path>
</g>
<path class="cls-5" d="M18.6,25.3c.81,1.78,1.07,3.56,1.12,5.48,0,.62-.02,1.26-.18,1.96l-.1,.03c-.65-2.31-1.33-5.26-.83-7.47h0Z">
</path>
<path class="cls-1" d="M18.69,34.86c-.37,1.29,.16,2.14,.46,3.39,.31,1.23,.49,2.48,.44,3.79l-.19-.31c.29,.38,.56,.77,.79,1.24l-.06,.08s-1.08-.83-1.11-.86c-.35-1.88-.97-3.71-1.05-5.63,.02-.63,.18-1.31,.67-1.77l.06,.08h0Z">
</path>
<path class="cls-1" d="M10.75,66.51c1.79-1.66,4.49-3.39,7.04-2.85-2.19,1.42-4.66,1.78-7.04,2.85h0Z">
</path>
<path class="cls-1" d="M27.4,53.03c1.11,.47,.92,1.55,.7,2.47-.19,.84-.61,1.66-1.27,2.25,0,0-.09-.03-.09-.03,.5-1.5,.57-3.11,.56-4.68,0,0,.1,0,.1,0h0Z">
</path>
<path class="cls-16" d="M35.53,66.71c-.06,1.45-.75,2.61-1.6,2.74v-5.62h.03c.92,.03,1.62,1.32,1.57,2.88Z">
</path>
<path class="cls-16" d="M42.65,67.11l-3.25-4.04c.65-.31,1.77,.23,2.6,1.3,.77,1.01,1.03,2.16,.65,2.74Z">
</path>
<path class="cls-16" d="M47.77,61.71c-.06,.13-.16,.24-.28,.32l-4.38-2.72c.44-.56,1.68-.58,2.89-.01,1.31,.61,2.1,1.69,1.77,2.41Z">
</path>
<path class="cls-16" d="M27.97,66.12c-.58,.76-1.32,1.26-1.94,1.36l2.55-4.19c.45,.57,.21,1.77-.61,2.83Z">
</path>
</g>
</g>
  <g
     id="g20645">
    <path
       style="fill:#808080;stroke:#4d4d4d;stroke-width:0.937908;stop-color:#000000;fill-opacity:1"
       d="m 9.541565,65.883425 a 5.4759801,5.4759801 0 0 1 5.47598,5.475981 5.4759801,5.4759801 0 0 1 -5.47598,5.47598 5.4759801,5.4759801 0 0 1 -5.4759806,-5.47598 5.4759801,5.4759801 0 0 1 5.4759806,-5.475981 z"/>
    <path
       style="fill:#808080;stroke:#4d4d4d;stroke-width:0.937908;stop-color:#000000;fill-opacity:1"
       d="m 59.472108,65.883425 a 5.4759801,5.4759801 0 0 1 5.47598,5.475981 5.4759801,5.4759801 0 0 1 -5.47598,5.47598 5.4759801,5.4759801 0 0 1 -5.475981,-5.47598 5.4759801,5.4759801 0 0 1 5.475981,-5.475981 z"/>
    <path
       id="path7641"
       style="fill:#808080;stroke:#4d4d4d;stroke-width:1.64416;stop-color:#000000"
       d="M 34.642578,1.1660156 C 13.787845,9.1047124 0.86132813,23.726855 0.86132812,39.564453 V 79.340489 H 68.152344 V 39.564453 c 0,-15.800978 -12.759199,-30.4148342 -33.509766,-38.3984374 z m -0.01367,3.8085938 C 53.384648,12.190722 64.917969,25.399665 64.917969,39.681641 v 26.507812 c -1.368656,-1.44106 -3.300993,-2.341797 -5.445313,-2.341797 -4.14856,0 -7.511718,3.363159 -7.511718,7.511719 0,2.347008 1.075662,4.442843 2.761718,5.820313 H 14.269531 c 1.756069,-1.422629 2.778281,-3.560307 2.783203,-5.820313 4.8e-5,-4.148627 -3.363091,-7.511766 -7.5117184,-7.511719 -2.0622939,0.0062 -4.0313164,0.860092 -5.4453125,2.361328 V 39.681641 c 0,-14.315076 11.6833059,-27.531508 30.5332029,-34.7070316 z"/>
    <circle
       style="fill:#4d4d4d;fill-opacity:1;stroke:#4d4d4d;stop-color:#000000"
       id="path16431"
       cx="9.6010828"
       cy="71.229652"
       r="5.06003" />
    <circle
       style="fill:#4d4d4d;fill-opacity:1;stroke:#4d4d4d;stop-color:#000000"
       id="path16431-3"
       cx="59.42292"
       cy="71.229652"
       r="5.06003" />
  </g>
</svg>
