<svg id="Capa_2" xmlns="http://www.w3.org/2000/svg" xmlns:xlink="http://www.w3.org/1999/xlink" viewBox="0 0 69.02 80">
<defs >
<style >
.cls-1{fill:#c89aed;}.cls-2{fill:#fff;}.cls-3{fill:#f8ffbf;}.cls-4{fill:#7b7be8;}.cls-5{fill:#a88347;}.cls-6{fill:#782ab5;}.cls-7,.cls-8,.cls-9{stroke:#000;stroke-miterlimit:10;}.cls-7,.cls-8,.cls-9,.cls-10,.cls-11,.cls-12{fill:none;}.cls-8,.cls-10{stroke-linecap:round;}.cls-9{stroke-width:.75px;}.cls-10{stroke:#deb778;stroke-dasharray:0 0 0 4.06;stroke-linejoin:round;}.cls-13{fill:url(#USGS_19_Inundación_de_tierra);}.cls-14{fill:#deb778;}.cls-12{stroke:#1d1d1b;stroke-dasharray:0 0 2 2;stroke-width:.3px;}.cls-15{fill:#fcf0c5;}.cls-16{fill:#b83521;}
</style>
<pattern id="USGS_19_Inundación_de_tierra" x="0" y="0" width="72" height="72" patternTransform="translate(-164.48 -16207) rotate(-90)" patternUnits="userSpaceOnUse" viewBox="0 0 72 72">
<g >
<rect class="cls-11" width="72" height="72">
</rect>
<g >
<line class="cls-12" x1="71" y1="71" x2="144.44" y2="71">
</line>
<line class="cls-12" x1="71" y1="67" x2="144.44" y2="67">
</line>
<line class="cls-12" x1="71" y1="63" x2="144.44" y2="63">
</line>
<line class="cls-12" x1="71" y1="59" x2="144.44" y2="59">
</line>
<line class="cls-12" x1="71" y1="55" x2="144.44" y2="55">
</line>
<line class="cls-12" x1="71" y1="51" x2="144.44" y2="51">
</line>
<line class="cls-12" x1="71" y1="47" x2="144.44" y2="47">
</line>
<line class="cls-12" x1="71" y1="43" x2="144.44" y2="43">
</line>
<line class="cls-12" x1="71" y1="39" x2="144.44" y2="39">
</line>
<line class="cls-12" x1="71" y1="35" x2="144.44" y2="35">
</line>
<line class="cls-12" x1="71" y1="31" x2="144.44" y2="31">
</line>
<line class="cls-12" x1="71" y1="27" x2="144.44" y2="27">
</line>
<line class="cls-12" x1="71" y1="23" x2="144.44" y2="23">
</line>
<line class="cls-12" x1="71" y1="19" x2="144.44" y2="19">
</line>
<line class="cls-12" x1="71" y1="15" x2="144.44" y2="15">
</line>
<line class="cls-12" x1="71" y1="11" x2="144.44" y2="11">
</line>
<line class="cls-12" x1="71" y1="7" x2="144.44" y2="7">
</line>
<line class="cls-12" x1="71" y1="3" x2="144.44" y2="3">
</line>
</g>
<g >
<line class="cls-12" x1="-1" y1="71" x2="72.44" y2="71">
</line>
<line class="cls-12" x1="-1" y1="67" x2="72.44" y2="67">
</line>
<line class="cls-12" x1="-1" y1="63" x2="72.44" y2="63">
</line>
<line class="cls-12" x1="-1" y1="59" x2="72.44" y2="59">
</line>
<line class="cls-12" x1="-1" y1="55" x2="72.44" y2="55">
</line>
<line class="cls-12" x1="-1" y1="51" x2="72.44" y2="51">
</line>
<line class="cls-12" x1="-1" y1="47" x2="72.44" y2="47">
</line>
<line class="cls-12" x1="-1" y1="43" x2="72.44" y2="43">
</line>
<line class="cls-12" x1="-1" y1="39" x2="72.44" y2="39">
</line>
<line class="cls-12" x1="-1" y1="35" x2="72.44" y2="35">
</line>
<line class="cls-12" x1="-1" y1="31" x2="72.44" y2="31">
</line>
<line class="cls-12" x1="-1" y1="27" x2="72.44" y2="27">
</line>
<line class="cls-12" x1="-1" y1="23" x2="72.44" y2="23">
</line>
<line class="cls-12" x1="-1" y1="19" x2="72.44" y2="19">
</line>
<line class="cls-12" x1="-1" y1="15" x2="72.44" y2="15">
</line>
<line class="cls-12" x1="-1" y1="11" x2="72.44" y2="11">
</line>
<line class="cls-12" x1="-1" y1="7" x2="72.44" y2="7">
</line>
<line class="cls-12" x1="-1" y1="3" x2="72.44" y2="3">
</line>
<line class="cls-12" x1="1.04" y1="69" x2="74.48" y2="69">
</line>
<line class="cls-12" x1="1.04" y1="65" x2="74.48" y2="65">
</line>
<line class="cls-12" x1="1.04" y1="61" x2="74.48" y2="61">
</line>
<line class="cls-12" x1="1.04" y1="57" x2="74.48" y2="57">
</line>
<line class="cls-12" x1="1.04" y1="53" x2="74.48" y2="53">
</line>
<line class="cls-12" x1="1.04" y1="49" x2="74.48" y2="49">
</line>
<line class="cls-12" x1="1.04" y1="45" x2="74.48" y2="45">
</line>
<line class="cls-12" x1="1.04" y1="41" x2="74.48" y2="41">
</line>
<line class="cls-12" x1="1.04" y1="37" x2="74.48" y2="37">
</line>
<line class="cls-12" x1="1.04" y1="33" x2="74.48" y2="33">
</line>
<line class="cls-12" x1="1.04" y1="29" x2="74.48" y2="29">
</line>
<line class="cls-12" x1="1.04" y1="25" x2="74.48" y2="25">
</line>
<line class="cls-12" x1="1.04" y1="21" x2="74.48" y2="21">
</line>
<line class="cls-12" x1="1.04" y1="17" x2="74.48" y2="17">
</line>
<line class="cls-12" x1="1.04" y1="13" x2="74.48" y2="13">
</line>
<line class="cls-12" x1="1.04" y1="9" x2="74.48" y2="9">
</line>
<line class="cls-12" x1="1.04" y1="5" x2="74.48" y2="5">
</line>
<line class="cls-12" x1="1.04" y1="1" x2="74.48" y2="1">
</line>
</g>
<g >
<line class="cls-12" x1="-73" y1="71" x2=".44" y2="71">
</line>
<line class="cls-12" x1="-73" y1="67" x2=".44" y2="67">
</line>
<line class="cls-12" x1="-73" y1="63" x2=".44" y2="63">
</line>
<line class="cls-12" x1="-73" y1="59" x2=".44" y2="59">
</line>
<line class="cls-12" x1="-73" y1="55" x2=".44" y2="55">
</line>
<line class="cls-12" x1="-73" y1="51" x2=".44" y2="51">
</line>
<line class="cls-12" x1="-73" y1="47" x2=".44" y2="47">
</line>
<line class="cls-12" x1="-73" y1="43" x2=".44" y2="43">
</line>
<line class="cls-12" x1="-73" y1="39" x2=".44" y2="39">
</line>
<line class="cls-12" x1="-73" y1="35" x2=".44" y2="35">
</line>
<line class="cls-12" x1="-73" y1="31" x2=".44" y2="31">
</line>
<line class="cls-12" x1="-73" y1="27" x2=".44" y2="27">
</line>
<line class="cls-12" x1="-73" y1="23" x2=".44" y2="23">
</line>
<line class="cls-12" x1="-73" y1="19" x2=".44" y2="19">
</line>
<line class="cls-12" x1="-73" y1="15" x2=".44" y2="15">
</line>
<line class="cls-12" x1="-73" y1="11" x2=".44" y2="11">
</line>
<line class="cls-12" x1="-73" y1="7" x2=".44" y2="7">
</line>
<line class="cls-12" x1="-73" y1="3" x2=".44" y2="3">
</line>
<line class="cls-12" x1="-70.96" y1="69" x2="2.48" y2="69">
</line>
<line class="cls-12" x1="-70.96" y1="65" x2="2.48" y2="65">
</line>
<line class="cls-12" x1="-70.96" y1="61" x2="2.48" y2="61">
</line>
<line class="cls-12" x1="-70.96" y1="57" x2="2.48" y2="57">
</line>
<line class="cls-12" x1="-70.96" y1="53" x2="2.48" y2="53">
</line>
<line class="cls-12" x1="-70.96" y1="49" x2="2.48" y2="49">
</line>
<line class="cls-12" x1="-70.96" y1="45" x2="2.48" y2="45">
</line>
<line class="cls-12" x1="-70.96" y1="41" x2="2.48" y2="41">
</line>
<line class="cls-12" x1="-70.96" y1="37" x2="2.48" y2="37">
</line>
<line class="cls-12" x1="-70.96" y1="33" x2="2.48" y2="33">
</line>
<line class="cls-12" x1="-70.96" y1="29" x2="2.48" y2="29">
</line>
<line class="cls-12" x1="-70.96" y1="25" x2="2.48" y2="25">
</line>
<line class="cls-12" x1="-70.96" y1="21" x2="2.48" y2="21">
</line>
<line class="cls-12" x1="-70.96" y1="17" x2="2.48" y2="17">
</line>
<line class="cls-12" x1="-70.96" y1="13" x2="2.48" y2="13">
</line>
<line class="cls-12" x1="-70.96" y1="9" x2="2.48" y2="9">
</line>
<line class="cls-12" x1="-70.96" y1="5" x2="2.48" y2="5">
</line>
<line class="cls-12" x1="-70.96" y1="1" x2="2.48" y2="1">
</line>
</g>
</g>
</pattern>
</defs>

<g id="Characters">
<g >
<path class="cls-16" d="M60.68,63.61l-2.09,7.97s-27.38,8.19-48.78-.83c-1.26-6.09-1.68-7.45-1.68-7.45l10.23-4.25,5.19-2.15,.84-10.49s-4.41-4.51-4.41-7.87c-2.41-.31-3.98-4.51-4.19-7.44-.21-2.94,.1-6.51,4.19-1.26,.74-9.55,.53-17.1,11.33-18.25,10.7-1.16,16.89,3.25,17.94,9.54,.84,6.4,.42,8.5,.42,8.5,0,0,2.52-3.15,3.57-2.41,1.04,.73,.84,11.11-3.78,11.43-.31,2.73-3.46,7.45-4.93,8.91,.73,7.35,1.05,9.55,1.05,9.55l4.55,1.96,10.55,4.54Z">
</path>
<path class="cls-1" d="M49.46,38.65c-.31,2.73-3.46,7.45-4.93,8.91,.73,7.35,1.05,9.55,1.05,9.55l4.55,1.96c-.53,1.63-1.27,3.48-2.18,4.81-2.07,3-10.04,3.82-13.56,3.51-3.51-.31-10.13-.93-13.03-3.41-1.76-1.51-2.61-3.55-3-4.93l5.19-2.15,.84-10.49s-4.41-4.51-4.41-7.87c-2.41-.31-3.98-4.51-4.19-7.44-.21-2.94,.1-6.51,4.19-1.26,.12-1.49,.21-2.94,.32-4.32,0,0,0,0,0,0,.62-7.43,1.9-12.95,11.01-13.92,10.7-1.16,16.89,3.25,17.94,9.54,.16,1.24,.28,2.32,.36,3.25,.33,3.88,.06,5.25,.06,5.25,0,0,2.52-3.15,3.57-2.41,1.04,.73,.84,11.11-3.78,11.43Z">
</path>
<path class="cls-2" d="M43.33,51.32l-13.89,13.46s14.4,2.81,18.66-5.03c-3.32-1.53-4.43-1.36-4.43-1.36l-.34-7.07Z">
</path>
<path class="cls-2" d="M40.86,22.45c1.18-.83,2.43-2.01,3.62-3.67,5.22,3.51,5.22,12.97,5.22,12.97,0,0,.27,7.47-.63,9.28s-6.03,9.82-8.38,10.81c-.02,0-.05,.02-.07,.03-2.59,1.07-5.43-.95-5.44-3.75l-.05-14.56c-.01-4.41,2.12-8.55,5.72-11.09Z">
</path>
<path d="M49.61,24.38c-1.08-1.43-3.13-4.03-5.15-5.87-1.5,3.59-4.92,5.51-11.09,5.84,1.92-1,2.75-3,2.75-3-4.26,2-10.1,1.84-10.1,1.84l1.26-2.17s-1.84,.58-3.76,1.25c-1.33,.47-2.59,2.21-3.22,3.24,.62-7.43,1.9-12.95,11.01-13.92,10.7-1.16,16.89,3.25,17.94,9.54,.16,1.24,.28,2.32,.36,3.25Z">
</path>
<path class="cls-5" d="M39.75,23.12s.07-3.62-5.73-1.98-7.17-3.96-11.81-1.23c2.18-3.55,5.6-2.66,7.92-1.98s4.78-1.91,8.05-2.25,4.85,2.66,6.14,1.37c-.2,3.69-4.57,6.07-4.57,6.07Z">
</path>
<path class="cls-4" d="M31.92,29.43s-.36,1.14-1.71,2.63-3.63,1.92-3.63,1.92c0,0-2.35-2.06-2.99-3.34s-1-2.42-1-2.42c0,0,2.42-.92,3.77-1s5.55,2.21,5.55,2.21Z">
</path>
<path class="cls-3" d="M30.53,31.42s-4.71-1.09-6.55-.34c1.63,2.72,2.86,3.13,2.86,3.13,0,0,2.8-.27,3.69-2.79Z">
</path>
<path class="cls-4" d="M36.71,29.43s.36,1.14,1.71,2.63,3.63,1.92,3.63,1.92c0,0,2.35-2.06,2.99-3.34s1-2.42,1-2.42c0,0-2.42-.92-3.77-1s-5.55,2.21-5.55,2.21Z">
</path>
<path class="cls-3" d="M38.1,31.42s4.71-1.09,6.55-.34c-1.63,2.72-2.86,3.13-2.86,3.13,0,0-2.8-.27-3.69-2.79Z">
</path>
<path class="cls-4" d="M40.71,61.03c.46,1.05,.7,1.48,.7,1.48,0,0-2.52,2.95-6.89,4.24-4.37-1.28-6.89-4.24-6.89-4.24,0,0,.24-.43,.7-1.48-1.12-.63-2.09-1.83-2.09-1.83,0,0,.19-.66,1-2.42-.73-1.16-.77-2.38-.64-3.26,.42,.77,1.18,1.93,2.2,2.84-.43,1.4-.51,1.79-.51,1.79,0,0,.73,1.67,3.3,2.76-.23,1.09-.23,1.24-.23,1.24,0,0,1.41,.94,3.15,1.42,1.74-.49,3.15-1.42,3.15-1.42,0,0,0-.15-.23-1.24,2.57-1.09,3.3-2.76,3.3-2.76,0,0-.08-.39-.51-1.79,1.02-.91,1.78-2.07,2.2-2.84,.13,.87,.1,2.09-.64,3.26,.81,1.76,1,2.42,1,2.42,0,0-.97,1.21-2.09,1.83Z">
</path>
<path class="cls-4" d="M48.09,63.4s-1.18-1.86-3.36-2.73c.91,2.68,.27,4.91,.27,4.91l3.09-2.18Z">
</path>
<path class="cls-4" d="M34.9,55.42c-.15-.08-.27-.14-.38-.18-.11,.04-.23,.11-.38,.18-.65,.32-1.67,.91-2.94,1.84,.82,1.77,3.3,4.08,3.32,4.1,.02-.02,2.5-2.33,3.32-4.1-1.27-.94-2.3-1.52-2.94-1.84Z">
</path>
<path d="M41.05,51.67l-14.81,14.72-7.98,6.93-7.89-2.12-2.24-7.9,15.42-6.4,.96-10.8s3.27,5.19,5.19,5.87,7.79,.87,11.35-.29Z">
</path>
<path class="cls-16" d="M25.48,51.03c.32,2.44,.4,4.91,.4,7.37-3.71,1.71-7.53,3.19-11.46,4.33-1.25,.39-2.52,.7-3.81,.96,0,0-.04-.09-.04-.09,4.72-1.83,9.94-4.12,14.44-5.71,0,0,.37-6.86,.37-6.86h.1Z">
</path>
<path d="M20.2,30.17s-2.55-3.43-3.83-2.62-.41,10.97,3.7,11.31c-.2-4.11,.13-8.68,.13-8.68Z">
</path>
<path class="cls-16" d="M16.48,29.37c.86,2.65,1.1,5,1.87,7.56,0,0-.07,.07-.07,.07-.93-1-1.53-2.27-1.82-3.6-.26-1.34-.28-2.71-.08-4.05l.1,.02h0Z">
</path>
<path class="cls-1" d="M45.05,20.77c1.99,1.93,2.98,5.57,2.98,7.36,0,.19,.04,.39,.12,.57,.11,3.76,.09,7.38,.07,9.22-.03,1.22-.4,2.37-1.07,3.31l-.09,.12c-1.23,1.73-3.51,4.94-5.81,7.77-1.07,1.31-2.68,2.06-4.42,2.06h-3.7c-1.72,0-3.33-.76-4.42-2.08-4.03-4.89-5.63-6.98-6.27-7.86-.68-.96-1.05-2.11-1.07-3.32-.04-2.84-.05-7.02,.12-10.9,.23-.67,.68-1.66,1.23-2.32l1.26,.11,1.33,.12c.37,.03,.74,.06,1.1,.07l-1.8,.6,5.35,.26,2.69,.13c.05,0,.24,.01,.54,.01,2.17,0,9.04-.4,11.82-5.23m-.37-1.55c-2.04,5.4-9.44,5.78-11.46,5.78-.27,0-.45,0-.49,0l-2.69-.13,2.56-.85s.97-.36,2.33-1.84c-1.9,.91-4.53,1.84-7.87,1.84-.53,0-1.07-.02-1.64-.07l-1.33-.12,1.08-.79c.6-.43,1.02-.84,1.32-1.19-1.1,.35-2.67,.89-3.62,1.43-1.46,.84-2.31,3.44-2.32,3.47,0,.02-.02,.03-.03,.04-.18,3.96-.17,8.26-.13,11.16,.02,1.41,.45,2.75,1.25,3.88,.89,1.24,3.01,3.91,6.31,7.92,1.28,1.55,3.17,2.44,5.19,2.44h3.7c2.04,0,3.92-.88,5.19-2.43,2.29-2.82,4.52-5.95,5.85-7.82l.08-.11c.8-1.13,1.23-2.47,1.26-3.88,.03-2.5,.03-6.04-.08-9.51-.06-.08-.11-.18-.11-.3,0-2.36-1.46-7.14-4.35-8.91h0Z">
</path>
<path class="cls-2" d="M23.7,34.49l2.62,1.48,3.23-1.57s-2.44,3.67-4.28,4.28c-2.18-2.53-1.57-4.19-1.57-4.19Z">
</path>
<path d="M20.96,63.4s1.18-1.86,3.36-2.73c-.91,2.68-.27,4.91-.27,4.91l-3.09-2.18Z">
</path>
<path class="cls-7" d="M36.84,52.68c2.16,0,4.21-.95,5.57-2.62,2.35-2.88,4.6-6.05,5.95-7.95,.86-1.22,1.33-2.66,1.35-4.16,.05-4.3,.06-13.63-.83-18.34-2.58-8.43-13.49-8.23-13.49-8.23h-1.19s-10.91-.2-13.49,8.23c-.9,4.71-.88,14.04-.83,18.34,.02,1.5,.49,2.94,1.35,4.16,1.16,1.62,4.21,5.38,6.33,7.94,1.37,1.67,3.42,2.63,5.58,2.63h3.71Z">
</path>
<polyline class="cls-7" points="24.31 46.5 23.52 57.13 6.7 63.88">
</polyline>
<polyline class="cls-7" points="44.71 47.22 45.5 57.13 63.37 64.3">
</polyline>
<path d="M37.01,36.94c.85,.74,1.21,2.02-.02,2.66-1.6,1.18-4.02,1.18-5.62,0-.53-.29-.94-.8-.78-1.42,.11-.52,.4-.93,.76-1.24-.18,.44-.3,.88-.27,1.28,.01,.3,.14,.44,.37,.55,.86,.41,1.84,.75,2.73,.74,.95-.01,2.05-.35,2.92-.86,.39-.45,.11-1.16-.09-1.72h0Z">
</path>
<path d="M31.62,30.01s-4.36-2.12-6.42-2.21c-1.45,.06-3.19,.8-3.19,.8,0,0,2.32-1.82,4.5-1.9,2.25-.08,5.52,1.63,5.52,1.63,0,0,.98,1.41-.4,1.68Z">
</path>
<path d="M36.56,30.01s4.36-2.12,6.42-2.21c1.45,.06,3.19,.8,3.19,.8,0,0-2.32-1.82-4.5-1.9-2.25-.08-5.52,1.63-5.52,1.63,0,0-.98,1.41,.4,1.68Z">
</path>
<path d="M30.75,31.43c-2.22-.36-4.44-.47-6.63-.05,0,0,.4-.51,.4-.51,.14,1.14,1.24,2.18,2.14,2.9,0,0-.22-.07-.22-.07,1.41-.01,2.73-.83,3.87-1.65-.45,.62-.99,1.19-1.63,1.63-.72,.49-1.46,.85-2.39,.88-1.29-.88-2.57-1.92-2.75-3.63,0,0-.03-.43-.03-.43,2.44-.5,5.02-.18,7.24,.94h0Z">
</path>
<path d="M37.92,31.43c2.21-1.11,4.8-1.43,7.24-.94,0,0-.03,.43-.03,.43-.18,1.71-1.47,2.75-2.75,3.63-.93-.03-1.66-.39-2.39-.88-.63-.45-1.18-1.01-1.63-1.63,1.14,.83,2.46,1.64,3.87,1.65,0,0-.22,.07-.22,.07,.89-.72,1.99-1.76,2.14-2.9,0,0,.4,.51,.4,.51-2.19-.42-4.41-.31-6.63,.05h0Z">
</path>
<path d="M26.41,40.91c.27-.81,1.39-1.81,2.14-.97-.35,.86-1.28,.92-2.14,.97h0Z">
</path>
<path class="cls-9" d="M27.61,40.32s3.46,4.36,11.69,2.05">
</path>
<path d="M39.04,41.41c1.11-.11,1.28,1.63,.58,2.18-.19-.44-.35-.7-.5-1.01-.13-.32-.39-.51-.08-1.17h0Z">
</path>
<path d="M28.85,43.27c.49,1.51,1.96,1.81,3.35,2.01,1.29,.19,3.01,.36,4.13,.09,.57-.3,1.11-.74,1.48-1.34-.16,.69-.62,1.32-1.21,1.76-2.09,.9-7.74,.51-7.75-2.52h0Z">
</path>
<path d="M22.22,35.81c1.16,1.18,1.85,2.84,1.83,4.5-.65-1.48-1.26-2.98-1.83-4.5h0Z">
</path>
<path d="M46.29,35.81c-.57,1.53-1.19,3.02-1.83,4.5-.02-1.66,.67-3.33,1.83-4.5h0Z">
</path>
<path class="cls-7" d="M19.93,30.02s-1.93-3.32-3.56-2.48-.3,11.24,3.44,11.18">
</path>
<path class="cls-8" d="M18.67,38.52c.02,.24,.01,.51-.02,.78-.15,1.19-.76,2.09-1.38,2.01s-.99-1.1-.85-2.28c.11-.89,.48-1.62,.92-1.89">
</path>
<path class="cls-7" d="M49.61,30.02s1.93-3.32,3.56-2.48,.3,11.24-3.44,11.18">
</path>
<path class="cls-8" d="M53.53,33.24c.65,.32,1.14,.35,1.43,.02,.41-.47,0-1.48-.89-2.27-.67-.59-1.44-.88-1.95-.8">
</path>
<path class="cls-8" d="M20.07,26.58s.9-2.8,2.55-3.74,4.99-1.85,4.99-1.85c0,0-.35,1.15-2.15,2.45,5.54,.5,9.39-1.75,11.28-2.8-2.2,3.25-3.99,3.84-3.99,3.84,0,0,9.79,.45,11.63-5.99,3.44,1.6,5.14,7.04,5.14,9.64">
</path>
<path class="cls-8" d="M18.69,59.35s.08,7.98,15.96,7.98,15.12-8.13,15.12-8.13">
</path>
</g>
</g>
 <g
     id="g2850">
    <g
       id="g2837">
      <path
         id="path1951"
         d="M 0.056640625 0.04296875 L 0.056640625 79.943359 L 69.308594 79.943359 L 69.308594 0.04296875 L 0.056640625 0.04296875 z M 33.615234 3.5957031 C 34.206332 3.5957038 34.786991 3.6051034 35.421875 3.6152344 C 44.430653 3.7671809 53.471255 5.1336733 61.560547 7.5546875 L 62.064453 7.7070312 L 62.25 8.1640625 C 66.070247 17.605006 66.990234 28.726438 66.990234 40.0625 C 66.990234 51.398562 65.972723 63.025755 61.988281 72.578125 L 61.791016 73.044922 L 61.275391 73.185547 C 53.273669 75.403966 44.691921 76.529297 35.759766 76.529297 C 35.212453 76.529297 34.675812 76.519896 34.150391 76.509766 L 33.943359 76.509766 C 24.901742 76.357819 15.860367 74.989738 7.7929688 72.558594 L 7.2890625 72.40625 L 7.1035156 71.951172 C 3.2942144 62.520359 2.375 51.369168 2.375 40.0625 C 2.375 28.755832 3.3819737 17.127318 7.3554688 7.5546875 L 7.5527344 7.0898438 L 8.0664062 6.9472656 C 15.509867 4.890923 23.785212 3.7371557 32.005859 3.6054688 C 32.542226 3.5953387 33.078867 3.5957031 33.615234 3.5957031 z "
         style="opacity:1;vector-effect:none;fill:#ffffff;fill-opacity:1;fill-rule:nonzero;stroke:none;stroke-width:1.95200002;stroke-linecap:butt;stroke-linejoin:miter;stroke-miterlimit:4;stroke-dasharray:none;stroke-dashoffset:0;stroke-opacity:1" />
    </g>
    <path
       id="path1154-8-2"
       d="m 33.675163,6.6112954 c 0.557696,0 1.115392,0.00956 1.683415,0.019115 8.427403,0.14336 16.803167,1.4049288 24.363042,3.6700176 3.573384,8.830981 4.443772,19.417362 4.443772,29.761551 0,10.344189 -0.95301,21.39888 -4.68131,30.334991 -7.435942,2.064385 -15.429581,3.274388 -23.774362,3.274388 -0.506058,0 -1.012115,-0.0096 -1.518172,-0.01911 h -0.17557 C 25.56792,73.508883 17.192156,72.088619 9.6426089,69.813973 6.0795528,61.002107 5.2088244,50.415411 5.2088244,40.061979 c 0,-10.353432 0.95335,-21.389323 4.6609939,-30.325434 C 16.820359,7.8155201 24.462856,6.7450981 32.177647,6.6208528 c 0.49573,-0.00956 1.001787,-0.00956 1.497516,-0.00956 m 0,-0.9557337 c -0.506057,0 -1.012114,0 -1.518171,0.00956 C 24.40089,5.7893644 16.593149,6.8789009 9.570315,8.8190405 L 9.0849131,8.9528432 8.8990146,9.3924808 C 5.1500599,18.424166 4.1999116,29.394246 4.1999116,40.061979 c 0,10.667733 0.8675267,21.188618 4.461566,30.0865 l 0.1755708,0.430081 0.4750741,0.14336 c 7.6115135,2.293761 16.1421925,3.584001 24.6728715,3.727361 h 0.196227 c 0.495729,0.0096 1.001786,0.01911 1.518171,0.01911 8.427403,0 16.524318,-1.060864 24.073866,-3.153921 l 0.485403,-0.133802 0.185898,-0.439639 c 3.759282,-9.01257 4.719759,-19.983589 4.719759,-30.679055 0,-10.695466 -0.867528,-21.188618 -4.471894,-30.0960578 L 60.516853,9.5358409 60.041779,9.3924808 C 52.409609,7.108277 43.87893,5.8180364 35.379234,5.6746763 34.780227,5.6651187 34.232859,5.6555621 33.675163,5.6555615 Z"
       style="fill:#ff0000;stroke:#ffffff;stroke-width:1.84341729;stroke-miterlimit:4;stroke-dasharray:none" />
    <path
       id="path1154"
       d="m 33.614853,4.6077955 c 0.591098,0 1.182197,0.01013 1.784241,0.02026 8.932155,0.1519464 17.809578,1.4890758 25.822246,3.8898304 3.787408,9.3599041 4.709928,20.5803481 4.709928,31.5440931 0,10.963745 -1.01009,22.680548 -4.961693,32.151879 -7.881312,2.18803 -16.353723,3.302304 -25.198307,3.302304 -0.536368,0 -1.072735,-0.01013 -1.609102,-0.02026 H 33.97608 C 25.022033,75.343956 16.14461,74.006827 8.1428892,71.595943 4.3664269,62.256298 3.443547,51.035521 3.443547,40.061979 c 0,-10.973542 1.01045,-22.670418 4.9401601,-32.1417498 7.3668369,-2.036083 15.4670749,-3.170617 23.6439369,-3.3023039 0.525421,-0.01013 1.061788,-0.01013 1.587209,-0.01013 m 0,-1.0129766 c -0.536367,0 -1.072734,0 -1.609101,0.01013 C 23.785105,3.7366356 15.509726,4.891429 8.0662653,6.9477716 L 7.5517907,7.0895883 7.3547579,7.5555576 C 3.3812628,17.128188 2.3742062,28.755311 2.3742062,40.061979 c 0,11.306668 0.9194864,22.457692 4.7287876,31.888505 l 0.1860865,0.45584 0.5035283,0.151947 c 8.0673984,2.431144 17.1090154,3.798662 26.1506324,3.950608 h 0.207979 c 0.525421,0.01013 1.061788,0.02026 1.609101,0.02026 8.932155,0 17.514028,-1.124404 25.51575,-3.342823 l 0.514475,-0.141816 0.197032,-0.46597 c 3.984442,-9.55237 5.002445,-21.180489 5.002445,-32.516551 0,-11.336062 -0.919487,-22.457692 -4.739734,-31.8986353 L 62.064202,7.7075041 61.560674,7.5555576 C 53.471382,5.1345434 44.429765,3.7670249 35.420987,3.6150784 c -0.634884,-0.01013 -1.215036,-0.020259 -1.806134,-0.02026 z"
       style="fill:#000000;stroke:#000000;stroke-width:1.95382714;stroke-miterlimit:4;stroke-dasharray:none" />
    <g
       id="g1810">
      <path
         d="M 6.5134911,7.7433673 C 5.6489029,6.8479453 4.058602,6.5681013 3.6272194,7.3820013 3.284151,8.0292783 3.3625296,8.5309135 4.395235,8.9201755 3.2963719,9.5187755 1.4857674,9.4447465 1.1893447,7.4467713 0.95320848,5.8551433 2.674739,4.8863543 3.1399725,5.0916244 3.0034432,3.6818714 1.8221094,4.0692802 0.95849208,3.2813384 0.34259068,2.7194046 0.23126071,-0.02624603 0.0561761,0.04378767 -0.0138576,0.21887227 2.7317937,0.33020157 3.2937267,0.94610377 4.0816685,1.8097211 3.6942598,2.9910547 5.1040128,3.1275841 4.8987425,2.6623507 5.8675315,0.94082017 7.4591593,1.1769564 9.4571345,1.4733791 9.5311625,3.2839847 8.9325635,4.3828467 8.5433008,3.3501417 8.041666,3.2717627 7.3943894,3.6148312 6.5804899,4.0462137 6.8603354,5.6365129 7.7557553,6.5011023"
         style="fill:#000000;stroke:#000000;stroke-width:0.1112323px;stroke-linecap:butt;stroke-linejoin:miter;stroke-opacity:1"
         id="path1737-3" />
      <path
         d="m 62.850738,7.7433673 c 0.864588,-0.895422 2.454889,-1.175266 2.886271,-0.361366 0.343069,0.647277 0.26469,1.148912 -0.768015,1.538174 1.098863,0.5986 2.909467,0.524571 3.20589,-1.473404 0.236136,-1.591628 -1.485394,-2.560417 -1.950628,-2.3551469 0.13653,-1.409753 1.317863,-1.0223442 2.181481,-1.810286 0.615901,-0.5619338 0.727231,-3.30758442 0.902316,-3.23755072 0.07003,0.1750846 -2.675618,0.2864139 -3.237551,0.9023161 C 65.28256,1.8097211 65.669969,2.9910547 64.260216,3.1275841 64.465486,2.6623507 63.496697,0.94082018 61.905069,1.1769564 c -1.997975,0.2964227 -2.072003,2.1070283 -1.473404,3.2058903 0.389263,-1.032705 0.890898,-1.111084 1.538174,-0.7680155 0.8139,0.4313825 0.534054,2.0216817 -0.361366,2.8862711"
         style="fill:#000000;stroke:#000000;stroke-width:0.1112323px;stroke-linecap:butt;stroke-linejoin:miter;stroke-opacity:1"
         id="path1737-3-5" />
      <path
         d="m 62.850738,72.244244 c 0.864588,0.895422 2.454889,1.175266 2.886272,0.361366 0.343068,-0.647277 0.264689,-1.148912 -0.768016,-1.538174 1.098863,-0.5986 2.909468,-0.524571 3.20589,1.473404 0.236137,1.591628 -1.485394,2.560417 -1.950628,2.355147 0.13653,1.409753 1.317864,1.022344 2.181481,1.810286 0.615901,0.561934 0.727231,3.307584 0.902316,3.237551 0.07003,-0.175085 -2.675618,-0.286414 -3.237551,-0.902317 -0.787942,-0.863617 -0.400533,-2.04495 -1.810286,-2.18148 0.20527,0.465234 -0.763519,2.186764 -2.355146,1.950628 -1.997976,-0.296423 -2.072004,-2.107028 -1.473405,-3.20589 0.389263,1.032705 0.890898,1.111084 1.538175,0.768015 0.813899,-0.431382 0.534054,-2.021682 -0.361366,-2.886271"
         style="fill:#000000;stroke:#000000;stroke-width:0.1112323px;stroke-linecap:butt;stroke-linejoin:miter;stroke-opacity:1"
         id="path1737-3-7" />
      <path
         d="M 6.513491,72.244245 C 5.648903,73.139667 4.058602,73.419511 3.62722,72.605611 3.284151,71.958334 3.36253,71.456699 4.395235,71.067437 c -1.098863,-0.5986 -2.909467,-0.524571 -3.20589,1.473404 -0.23613599,1.591628 1.485394,2.560417 1.950628,2.355147 -0.13653,1.409753 -1.317863,1.022344 -2.18148099,1.810286 -0.615901,0.561933 -0.727231,3.307584 -0.902316,3.23755 C -0.01385399,79.76874 2.731794,79.65741 3.293727,79.041508 4.081669,78.177891 3.69426,76.996557 5.104013,76.860028 4.898743,77.325261 5.867532,79.046792 7.45916,78.810656 9.457135,78.514233 9.531163,76.703627 8.932564,75.604765 8.543301,76.63747 8.041666,76.715849 7.39439,76.372781 6.58049,75.941398 6.860336,74.351099 7.755756,73.48651"
         style="fill:#000000;stroke:#000000;stroke-width:0.1112323px;stroke-linecap:butt;stroke-linejoin:miter;stroke-opacity:1"
         id="path1737-3-5-5" />
    </g>
    <path
       id="path1154-9"
       d="m 33.712865,7.4258691 c 0.536813,0 1.07363,0.00933 1.620386,0.01865 8.111875,0.1398689 16.174044,1.3707167 23.450873,3.5806479 3.439594,8.615932 4.277395,18.944521 4.277395,29.036812 0,10.092292 -0.917329,20.877786 -4.506039,29.596289 -7.157536,2.014114 -14.851888,3.03982 -22.884234,3.03982 -0.487111,0 -0.974221,-0.0094 -1.461331,-0.01865 H 34.040918 C 25.909161,72.53957 17.846991,71.308722 10.580105,69.089467 7.1504515,60.492184 6.3123238,50.163289 6.3123238,40.061979 c 0,-10.101311 0.9176558,-20.868461 4.4864832,-29.586965 6.690308,-1.8742449 14.046665,-2.9186005 21.472608,-3.0398203 0.47717,-0.00933 0.964281,-0.00933 1.44145,-0.00933 m 0,-0.9324602 c -0.487111,0 -0.974221,0 -1.46133,0.00933 C 24.785826,6.6239532 17.270413,7.686958 10.510517,9.5798526 L 10.043289,9.710397 9.8643508,10.139328 c -3.6085914,8.811751 -4.5231655,19.514693 -4.5231655,29.922651 0,10.407958 0.8350459,20.672644 4.294522,29.353849 l 0.1689973,0.419608 0.4572874,0.13987 c 7.326533,2.237904 15.537818,3.496724 23.749103,3.636593 h 0.188879 c 0.47717,0.0094 0.96428,0.01865 1.461331,0.01865 8.111875,0 15.905636,-1.035031 23.172525,-3.077119 l 0.467228,-0.130544 0.178938,-0.428932 c 3.618533,-8.793101 4.543048,-19.496959 4.543048,-29.931975 0,-10.435016 -0.835047,-20.672644 -4.304463,-29.363174 l -0.168997,-0.419609 -0.457288,-0.13987 C 51.74588,7.9107484 43.534594,6.6519271 35.353133,6.512058 34.776554,6.502738 34.249678,6.493409 33.712865,6.493409 Z"
       style="fill:#000000;stroke:none;stroke-width:1.78642213;stroke-miterlimit:4;stroke-dasharray:none" />
    <path
       id="path1154-9-3"
       d="m 33.712865,7.4258686 c 0.536813,0 1.07363,0.00933 1.620386,0.01865 8.111875,0.1398689 16.174044,1.3707167 23.450873,3.5806484 3.439594,8.615932 4.277395,18.944521 4.277395,29.036812 0,10.092292 -0.917329,20.877786 -4.506039,29.596288 -7.157536,2.014114 -14.851888,3.03982 -22.884234,3.03982 -0.487111,0 -0.974221,-0.0094 -1.461331,-0.01865 H 34.040918 C 25.909161,72.539569 17.846991,71.308722 10.580105,69.089466 7.1504515,60.492184 6.3123238,50.163288 6.3123238,40.061979 c 0,-10.101312 0.9176558,-20.868461 4.4864832,-29.586965 6.690308,-1.8742454 14.046665,-2.918601 21.472608,-3.0398208 0.47717,-0.00933 0.964281,-0.00933 1.44145,-0.00933 m 0,-0.9324602 c -0.487111,0 -0.974221,0 -1.46133,0.00933 C 24.785826,6.6239527 17.270413,7.6869575 10.510517,9.5798521 L 10.043289,9.7103965 9.8643508,10.139328 C 6.2557594,18.951079 5.3411853,29.65402 5.3411853,40.061979 c 0,10.407958 0.8350459,20.672643 4.294522,29.353849 l 0.1689973,0.419608 0.4572874,0.13987 c 7.326533,2.237904 15.537818,3.496724 23.749103,3.636593 h 0.188879 c 0.47717,0.0094 0.96428,0.01865 1.461331,0.01865 8.111875,0 15.905636,-1.035032 23.172525,-3.077119 l 0.467228,-0.130544 0.178938,-0.428932 c 3.618533,-8.793101 4.543048,-19.49696 4.543048,-29.931975 0,-10.435016 -0.835047,-20.672644 -4.304463,-29.363175 l -0.168997,-0.419609 -0.457288,-0.13987 C 51.74588,7.9107479 43.534594,6.6519266 35.353133,6.5120575 34.776554,6.5027375 34.249678,6.4934085 33.712865,6.4934085 Z"
       style="fill:#000000;stroke:none;stroke-width:1.78642213;stroke-miterlimit:4;stroke-dasharray:none" />
  </g>
</svg>
