<svg id="Capa_2" xmlns="http://www.w3.org/2000/svg" xmlns:xlink="http://www.w3.org/1999/xlink" viewBox="0 0 69.02 80">
<defs >
<style >
.cls-1{fill:#c89aed;}.cls-2{stroke-width:.99px;}.cls-2,.cls-3,.cls-4,.cls-5{stroke:#000;}.cls-2,.cls-3,.cls-4,.cls-5,.cls-6,.cls-7,.cls-8{fill:none;}.cls-2,.cls-4,.cls-5,.cls-6{stroke-linecap:round;}.cls-2,.cls-5,.cls-6{stroke-linejoin:round;}.cls-9{fill:#fff;}.cls-10{fill:#f8ffbf;}.cls-11{fill:#7b7be8;}.cls-12{fill:#a88347;}.cls-13{fill:#782ab5;}.cls-3,.cls-4{stroke-miterlimit:10;}.cls-14{fill:#1c46ff;}.cls-6{stroke:#deb778;stroke-dasharray:0 0 0 4.06;}.cls-15{fill:#deb778;}.cls-16{fill:url(#USGS_19_Inundación_de_tierra_2);}.cls-8{stroke:#1d1d1b;stroke-dasharray:0 0 2 2;stroke-width:.3px;}.cls-17{fill:#cf5f2b;}.cls-18{fill:#fcf0c5;}.cls-19{fill:#b83521;}
</style>
<pattern id="USGS_19_Inundación_de_tierra_2" x="0" y="0" width="72" height="72" patternTransform="translate(267.52 -16063) rotate(-90)" patternUnits="userSpaceOnUse" viewBox="0 0 72 72">
<g >
<rect class="cls-7" width="72" height="72">
</rect>
<g >
<line class="cls-8" x1="71" y1="71" x2="144.44" y2="71">
</line>
<line class="cls-8" x1="71" y1="67" x2="144.44" y2="67">
</line>
<line class="cls-8" x1="71" y1="63" x2="144.44" y2="63">
</line>
<line class="cls-8" x1="71" y1="59" x2="144.44" y2="59">
</line>
<line class="cls-8" x1="71" y1="55" x2="144.44" y2="55">
</line>
<line class="cls-8" x1="71" y1="51" x2="144.44" y2="51">
</line>
<line class="cls-8" x1="71" y1="47" x2="144.44" y2="47">
</line>
<line class="cls-8" x1="71" y1="43" x2="144.44" y2="43">
</line>
<line class="cls-8" x1="71" y1="39" x2="144.44" y2="39">
</line>
<line class="cls-8" x1="71" y1="35" x2="144.44" y2="35">
</line>
<line class="cls-8" x1="71" y1="31" x2="144.44" y2="31">
</line>
<line class="cls-8" x1="71" y1="27" x2="144.44" y2="27">
</line>
<line class="cls-8" x1="71" y1="23" x2="144.44" y2="23">
</line>
<line class="cls-8" x1="71" y1="19" x2="144.44" y2="19">
</line>
<line class="cls-8" x1="71" y1="15" x2="144.44" y2="15">
</line>
<line class="cls-8" x1="71" y1="11" x2="144.44" y2="11">
</line>
<line class="cls-8" x1="71" y1="7" x2="144.44" y2="7">
</line>
<line class="cls-8" x1="71" y1="3" x2="144.44" y2="3">
</line>
</g>
<g >
<line class="cls-8" x1="-1" y1="71" x2="72.44" y2="71">
</line>
<line class="cls-8" x1="-1" y1="67" x2="72.44" y2="67">
</line>
<line class="cls-8" x1="-1" y1="63" x2="72.44" y2="63">
</line>
<line class="cls-8" x1="-1" y1="59" x2="72.44" y2="59">
</line>
<line class="cls-8" x1="-1" y1="55" x2="72.44" y2="55">
</line>
<line class="cls-8" x1="-1" y1="51" x2="72.44" y2="51">
</line>
<line class="cls-8" x1="-1" y1="47" x2="72.44" y2="47">
</line>
<line class="cls-8" x1="-1" y1="43" x2="72.44" y2="43">
</line>
<line class="cls-8" x1="-1" y1="39" x2="72.44" y2="39">
</line>
<line class="cls-8" x1="-1" y1="35" x2="72.44" y2="35">
</line>
<line class="cls-8" x1="-1" y1="31" x2="72.44" y2="31">
</line>
<line class="cls-8" x1="-1" y1="27" x2="72.44" y2="27">
</line>
<line class="cls-8" x1="-1" y1="23" x2="72.44" y2="23">
</line>
<line class="cls-8" x1="-1" y1="19" x2="72.44" y2="19">
</line>
<line class="cls-8" x1="-1" y1="15" x2="72.44" y2="15">
</line>
<line class="cls-8" x1="-1" y1="11" x2="72.44" y2="11">
</line>
<line class="cls-8" x1="-1" y1="7" x2="72.44" y2="7">
</line>
<line class="cls-8" x1="-1" y1="3" x2="72.44" y2="3">
</line>
<line class="cls-8" x1="1.04" y1="69" x2="74.48" y2="69">
</line>
<line class="cls-8" x1="1.04" y1="65" x2="74.48" y2="65">
</line>
<line class="cls-8" x1="1.04" y1="61" x2="74.48" y2="61">
</line>
<line class="cls-8" x1="1.04" y1="57" x2="74.48" y2="57">
</line>
<line class="cls-8" x1="1.04" y1="53" x2="74.48" y2="53">
</line>
<line class="cls-8" x1="1.04" y1="49" x2="74.48" y2="49">
</line>
<line class="cls-8" x1="1.04" y1="45" x2="74.48" y2="45">
</line>
<line class="cls-8" x1="1.04" y1="41" x2="74.48" y2="41">
</line>
<line class="cls-8" x1="1.04" y1="37" x2="74.48" y2="37">
</line>
<line class="cls-8" x1="1.04" y1="33" x2="74.48" y2="33">
</line>
<line class="cls-8" x1="1.04" y1="29" x2="74.48" y2="29">
</line>
<line class="cls-8" x1="1.04" y1="25" x2="74.48" y2="25">
</line>
<line class="cls-8" x1="1.04" y1="21" x2="74.48" y2="21">
</line>
<line class="cls-8" x1="1.04" y1="17" x2="74.48" y2="17">
</line>
<line class="cls-8" x1="1.04" y1="13" x2="74.48" y2="13">
</line>
<line class="cls-8" x1="1.04" y1="9" x2="74.48" y2="9">
</line>
<line class="cls-8" x1="1.04" y1="5" x2="74.48" y2="5">
</line>
<line class="cls-8" x1="1.04" y1="1" x2="74.48" y2="1">
</line>
</g>
<g >
<line class="cls-8" x1="-73" y1="71" x2=".44" y2="71">
</line>
<line class="cls-8" x1="-73" y1="67" x2=".44" y2="67">
</line>
<line class="cls-8" x1="-73" y1="63" x2=".44" y2="63">
</line>
<line class="cls-8" x1="-73" y1="59" x2=".44" y2="59">
</line>
<line class="cls-8" x1="-73" y1="55" x2=".44" y2="55">
</line>
<line class="cls-8" x1="-73" y1="51" x2=".44" y2="51">
</line>
<line class="cls-8" x1="-73" y1="47" x2=".44" y2="47">
</line>
<line class="cls-8" x1="-73" y1="43" x2=".44" y2="43">
</line>
<line class="cls-8" x1="-73" y1="39" x2=".44" y2="39">
</line>
<line class="cls-8" x1="-73" y1="35" x2=".44" y2="35">
</line>
<line class="cls-8" x1="-73" y1="31" x2=".44" y2="31">
</line>
<line class="cls-8" x1="-73" y1="27" x2=".44" y2="27">
</line>
<line class="cls-8" x1="-73" y1="23" x2=".44" y2="23">
</line>
<line class="cls-8" x1="-73" y1="19" x2=".44" y2="19">
</line>
<line class="cls-8" x1="-73" y1="15" x2=".44" y2="15">
</line>
<line class="cls-8" x1="-73" y1="11" x2=".44" y2="11">
</line>
<line class="cls-8" x1="-73" y1="7" x2=".44" y2="7">
</line>
<line class="cls-8" x1="-73" y1="3" x2=".44" y2="3">
</line>
<line class="cls-8" x1="-70.96" y1="69" x2="2.48" y2="69">
</line>
<line class="cls-8" x1="-70.96" y1="65" x2="2.48" y2="65">
</line>
<line class="cls-8" x1="-70.96" y1="61" x2="2.48" y2="61">
</line>
<line class="cls-8" x1="-70.96" y1="57" x2="2.48" y2="57">
</line>
<line class="cls-8" x1="-70.96" y1="53" x2="2.48" y2="53">
</line>
<line class="cls-8" x1="-70.96" y1="49" x2="2.48" y2="49">
</line>
<line class="cls-8" x1="-70.96" y1="45" x2="2.48" y2="45">
</line>
<line class="cls-8" x1="-70.96" y1="41" x2="2.48" y2="41">
</line>
<line class="cls-8" x1="-70.96" y1="37" x2="2.48" y2="37">
</line>
<line class="cls-8" x1="-70.96" y1="33" x2="2.48" y2="33">
</line>
<line class="cls-8" x1="-70.96" y1="29" x2="2.48" y2="29">
</line>
<line class="cls-8" x1="-70.96" y1="25" x2="2.48" y2="25">
</line>
<line class="cls-8" x1="-70.96" y1="21" x2="2.48" y2="21">
</line>
<line class="cls-8" x1="-70.96" y1="17" x2="2.48" y2="17">
</line>
<line class="cls-8" x1="-70.96" y1="13" x2="2.48" y2="13">
</line>
<line class="cls-8" x1="-70.96" y1="9" x2="2.48" y2="9">
</line>
<line class="cls-8" x1="-70.96" y1="5" x2="2.48" y2="5">
</line>
<line class="cls-8" x1="-70.96" y1="1" x2="2.48" y2="1">
</line>
</g>
</g>
</pattern>
</defs>

<g id="Characters">
<g >
<path class="cls-1" d="M60.44,68.08c-.95,6.39-1.9,6.74-1.9,6.74,0,0-40.26,6.39-50.71-3.46,.77-2.96,2.16-3.36,2.16-3.36,0,0,8.12-3.63,13.04-4.41,1.73-5.96,1.99-7.78,1.99-7.78,0,0-4.67-3.02-6.05-6.91-1.73,1.21-3.8-.17-4.15-1.81-.34-1.64,2.6-2.59,2.6-2.59,0,0-2.23-3.26-3.02-7.47,0-.02-.01-.03-.01-.05-.55-.27-1.06-.59-1.52-.95-2.3-1.76-3.56-4.29-3.65-4.48,.04,.02,.19,.1,.43,.21,.94,.44,3.26,1.28,5.26,.21,.61-2.25,1.3-2.59,1.3-2.59l1.03,1.12,1.3-.86s1.21-7.51,8.36-13.9c-.44,.11-7.12,1.78-8.97-1.48-1.9-3.37,4.58-8.29,4.58-8.29,0,0,15.64-.35,18.92,.17,1.56,2.51,.26,4.32,.26,4.32,0,0,2.59-3.02,3.03-3.97,.6,3.19-1.39,5.35-6.4,7.25,7,2.33,9.25,6.22,10.97,9.51,.22,.41,.41,.82,.58,1.23,.01,.02,.02,.04,.02,.06,.7,1.64,1.07,3.2,1.32,4.29,.17,.79,.29,1.35,.42,1.5,.07-.03,.14-.05,.21-.08,1.48-.54,2.03-.7,2.03-.7,0,0,.85,2.02,1.3,4.37,.01,.08,.02,.16,.04,.24,.15,.84,.24,1.72,.22,2.56-.09,3.29-3.2,7.86-3.2,7.86,0,0,2.42-.34,3.11,1.39,.69,1.72-1.21,4.92-4.32,2.93-2.42,3.72-6.13,6.91-6.13,6.91l2.42,7.61s9.67,1.72,13.13,4.66Z">
</path>
<path class="cls-19" d="M43.84,28.53c.09,.35,.88,3.13,3.46,4.89-6.29-.5-8.23-7.07-8.32-7.38,0,.22-.06,3.14-3.41,7.52-4.19,4.93-10.13,4.93-10.13,4.93,0,0,9.77-5.51,8.98-10.86-3.99,8.03-11.51,10.57-14.55,10.49-1.75-.04-3.9-.39-5.47-1.09-.62-.28-1.15-.61-1.53-1-.33-.34-.55-.73-.61-1.16-.5-.29-2.67-2.68-2.67-2.68l.06-.43c.94,.44,3.26,1.28,5.26,.21,.61-2.25,1.3-2.59,1.3-2.59l1.03,1.12,1.3-.86s1.21-7.51,8.36-13.9c-.44,.11-7.12,1.78-8.97-1.48-1.9-3.37,4.58-8.29,4.58-8.29,0,0,15.64-.35,18.92,.17,1.56,2.51,.26,4.32,.26,4.32,0,0,2.59-3.02,3.03-3.97,.6,3.19-1.39,5.35-6.4,7.25,7,2.33,9.25,6.22,10.97,9.51,.22,.41,.41,.82,.58,1.23,.01,.02,.02,.04,.02,.06,.29,1.14,.69,2.73,1.32,4.29,.18,.48,.39,.96,.63,1.42,.8,1.58,1.87,2.98,3.33,3.67,.17,.09,.35,.16,.53,.22-.16,0-.33,.02-.49,.02-6.48,.06-11.09-5.31-11.37-5.63Z">
</path>
<path class="cls-17" d="M25.42,23.19s-1.86,4.69,4.02,3.5c2.75-.52,4.61,.74,4.61,.74l-2.9,4.76s.52-3.05-4.47-1.79-4.54-3.87-4.54-3.87c0,0,2.01-2.83,3.27-3.35Z">
</path>
<path class="cls-17" d="M35.05,27.49s1.47,1.41,3.51-.19c-.45,2.88-3,5.75-3,5.75,0,0-1.02-1.47-2.04-1.15,1.34-2.04,1.53-4.41,1.53-4.41Z">
</path>
<path class="cls-17" d="M39.72,27.56s2.04,.83,3.45-.32c1.21,2.81,2.94,4.54,2.94,4.54,0,0-2.3-.38-3,.26-2.62-2.62-3.39-4.47-3.39-4.47Z">
</path>
<path class="cls-17" d="M44.06,27.62s6.77,1.47,6.39-1.47c1.66,4.54,2.11,4.86,2.11,4.86,0,0-2.88,1.66-6.65-.77-1.85-1.66-1.85-2.62-1.85-2.62Z">
</path>
<path class="cls-17" d="M41.3,10.36s-.56-4.51-6.53-1.69-13.54,.97-16.28,6.29c-1.45-2.02,.64-5.8,.64-5.8,0,0,2.26,2.98,14.75-2.34,3.71-1.93,7.34-.97,7.34-.97,0,0,1.21,2.1,.08,4.51Z">
</path>
<path class="cls-17" d="M48.23,21.65s-10.24-9.43-25.15-1.77c3.22-3.47,18.38-10.96,25.15,1.77Z">
</path>
<path d="M23.66,18.59s-1.34,5.26,3.59,3.59c-5.76,6.09-8.85,7.76-8.85,7.76,0,0,1.67-7.84,5.26-11.35Z">
</path>
<path class="cls-10" d="M31.25,41.39s-3.96-3.3-8.67-2.23c1.82,2.81,7.1,2.73,8.67,2.23Z">
</path>
<path class="cls-9" d="M34.89,59.44v-25.51s3.22-3.18,4.09-7.89c2.21,5.6,5.36,7.8,8.42,7.7-3.73-3.34-3.56-5.21-3.56-5.21,0,0,4.42,4.35,7.57,4.92,.48,7.07,.96,14.04-1.43,17.39s-8.12,7.64-15.09,8.6Z">
</path>
<path class="cls-10" d="M38.81,41.4s4-3.4,9.06-2.19c-3.77,3.7-9.06,2.19-9.06,2.19Z">
</path>
<path class="cls-9" d="M32.1,51.06h6.04s.23,2.26-1.96,3.4-4.6-1.81-4.08-3.4">
</path>
<path d="M18.03,44.79s-2.78-.51-3.1,2.09c-.25,2.59,2.83,2.78,4.04,2.02-.88-2.21-.94-4.11-.94-4.11Z">
</path>
<path class="cls-19" d="M51.93,44.79s2.78-.51,3.1,2.09c.25,2.59-2.83,2.78-4.04,2.02,.88-2.21,.94-4.11,.94-4.11Z">
</path>
<path d="M19.74,64.59s-7.46,1.31-10.54,3.36c.56,5.13,1.77,5.87,1.77,5.87,0,0,29.46,6.06,49.41-.47,0-4.1-.28-5.41-.28-5.41,0,0-8.39-3.17-9.42-2.98-2.8,4.85-6.15,7.74-17.81,7.55s-13.15-7.92-13.15-7.92Z">
</path>
<path class="cls-14" d="M51.25,65.16s-3.55,5.66-10.64,9.2c13.8-.58,17.73-2.3,17.73-2.3l1.05-3.93s-2.97-2.2-8.15-2.97Z">
</path>
<path d="M44.89,55.81l-19.99,18.03-7.08-9.09,5.21-1.16,1.99-7.78s6.02,4.22,10.74,3.28,9.13-3.28,9.13-3.28Z">
</path>
<path class="cls-11" d="M37.83,34.56l.54,6.94s3.95-3.21,9.49-2.28c.1-1.59,.24-3.02-2.42-4.18s-6.05-1.16-7.62-.48Z">
</path>
<polygon class="cls-14" points="25.04 59.15 23.66 64.18 11.14 67.72 12.03 69.6 25.34 65.36 25.04 59.15">
</polygon>
<path class="cls-9" d="M22.6,42.49s4.05,1.45,8.11,.87c-4.63,3.33-6.66,1.45-8.11-.87Z">
</path>
<path d="M30.99,50.73s1.63-1.63,3.95-1.63,4.08,1.17,4.54,1.78c-3.45,.66-7.31,.36-8.49-.15Z">
</path>
<path class="cls-19" d="M39.55,51.19s-.43,4.26-4.18,4.39h-.82c-3.75-.13-4.18-4.39-4.18-4.39l1.39,.1s1.31,1.87,3.2,1.87c1.89,0,3.2-1.87,3.2-1.87l1.39-.1Z">
</path>
<path class="cls-1" d="M39.3,29.87c1.93,3.14,5.2,5.22,8.67,5.38h.08s.04,0,.04,0c.61,0,1.16-.39,1.37-.98,.28,.12,.56,.24,.84,.35v3.61s0,.05,0,.05v.05c.01,.09,.86,9.17-2.58,12.9-3.71,4.04-9.42,6.55-12.57,6.55h-.46c-3.15,0-8.86-2.5-12.57-6.55-2.7-2.93-2.74-9.26-2.65-11.71,1.07-.04,2.16-.2,3.24-.45,.06,.13,.14,.26,.23,.37,.25,.3,.6,.48,.98,.52,.51,.07,1.04,.11,1.57,.11,1.53,0,3.1-.32,4.56-.93,4.15-1.86,7.52-5.29,9.23-9.27m-.16-2.63c-1.2,4.82-5.02,8.99-9.48,10.99-1.3,.55-2.72,.85-4.15,.85-.48,0-.97-.03-1.45-.11-.27-.02-.47-.26-.45-.53,.02-.23,.18-.39,.39-.45,4.22-1.22,8.51-3.81,9.95-8.19,.12-.34,.23-.7,.31-1.06-.66,1.38-1.48,2.67-2.46,3.85-2.76,3.42-8.06,5.94-12.92,5.94-.11,0-.22,0-.34,0-.12,1.58-.54,9.69,2.86,13.38,3.95,4.3,9.87,6.87,13.31,6.87h.46c3.44,0,9.36-2.57,13.31-6.87,3.76-4.08,2.85-13.58,2.84-13.68v-4.31c-2.48-.81-4.73-2.29-6.48-4.24,.89,1.47,2.11,2.76,3.53,3.69,.38,.26,.16,.89-.27,.89-.01,0-.03,0-.04,0-4.16-.2-7.57-3.23-8.92-7.02h0Z">
</path>
<path d="M17.96,44.79s-3.53-3.59-3.23-7.55c1.58,.73,3.23,1.03,3.23,1.03v6.51Z">
</path>
<path d="M15.08,31.87l1-2.36,1.42,1.31s-1.26,.63-2.41,1.05Z">
</path>
<path class="cls-9" d="M30.85,70.53l13.13-12.23,1.47,6.23,3.17,1.36s-4.08,6.11-17.77,4.64Z">
</path>
<path class="cls-4" d="M37.81,13.65c8.66-1.88,7.03-7.93,7.03-7.93,0,0-.74,3.11-3.51,4.9,1.63-3.84,.16-5.88-7.11-7.03s-17.98,4.41-16.26,10.13c1.39,4.41,9.32,1.8,9.32,1.8">
</path>
<path d="M29.98,29.78c-2.89,2.8-6.42,5.12-10.44,5.91-4.42,.93-9.84-.4-11.73-4.96,0,0,1.24,.43,1.24,.43,12.64,4.21,13.93-17.13,29.2-8.46,0,0-.57,.01-.57,.01,3.09-2.01,7.51-2.41,10.35,.22,.9,.82,1.63,1.78,2.18,2.83-1.35-1.86-3.24-3.49-5.55-3.83-2.34-.37-4.78,.48-6.66,1.81-5.32-3.13-10.42-2.53-14.55,2.14-3.81,4.06-8.66,8.65-14.73,6.22,0,0,.61-.7,.61-.7,.86,1.58,2.59,2.64,4.38,3.14,5.72,1.58,11.56-1.52,15.58-5.47,.47-.46,1.17,.26,.7,.72h0Z">
</path>
<path d="M11.37,34.03c2.9,4.39,9.19,3.93,13.59,2.27,4.74-1.82,8.3-6.19,9.55-11.04,.07-.26,.34-.42,.6-.35,.2,.05,.35,.23,.37,.43,.18,1.68-.06,3.27-.59,4.8-.53,1.53-1.38,2.93-2.45,4.12-2.15,2.35-5.16,3.78-8.16,4.7,0,0-.06-.97-.06-.97,1.71,.26,3.47,.02,5.09-.63,4.68-2.04,8.76-6.81,9.35-11.94,0-.22,.2-.4,.42-.39,.18,0,.34,.14,.38,.31,.79,4.13,4.3,7.76,8.6,7.93,0,0-.27,.93-.28,.91-2.76-1.84-4.81-4.75-5.29-8.08-.09-.56,.76-.78,.96-.25,2.22,4.55,7.01,7.76,12.12,7.77,0,0-.25,.94-.25,.94-2.75-1.53-4.42-4.64-5.15-7.44-1.08-3.68-2.92-7.19-5.82-9.66-5.76-5.05-15.51-4.6-20.23,1.66-2.43,2.93-4.04,6.57-4.94,10.25-.05,.28-.33,.47-.61,.4-.27-.07-.43-.33-.37-.6,.46-1.97,1.13-3.82,1.98-5.63,2.43-5.43,7.35-10.32,13.6-10.52,4-.14,8.16,.99,11.22,3.69,3.09,2.64,5.01,6.35,6.12,10.13,.71,2.69,2.22,5.48,4.7,6.87,.45,.24,.24,.97-.27,.93-5.5-.03-10.62-3.43-13.01-8.37,0,0,.96-.25,.96-.25,.44,2.99,2.37,5.71,4.88,7.37,.39,.27,.16,.93-.31,.89-4.77-.24-8.57-4.2-9.39-8.76-.02-.02,.8-.08,.8-.09-.58,5.58-4.79,10.57-9.81,12.82-1.74,.72-3.7,1.02-5.6,.74-.27-.02-.47-.26-.45-.53,.02-.23,.18-.39,.39-.45,4.22-1.23,8.51-3.82,9.95-8.19,.49-1.38,.69-2.92,.55-4.32l.98,.03c-.69,2.64-1.96,5.01-3.68,7.08-4.63,5.75-16.46,8.97-21.31,1.9-.34-.61,.58-1.1,.89-.46h0Z">
</path>
<path class="cls-5" d="M17.21,30.37l-1.02-1.09s-.86,1.17-1.02,2.42">
</path>
<path class="cls-5" d="M14.56,37.48s.31,5.08,3.59,7.27">
</path>
<path class="cls-2" d="M51.81,33.81v4.38s.99,9.77-2.96,14.06-10.03,7.03-13.68,7.03h-.46c-3.65,0-9.73-2.73-13.68-7.03s-2.96-14.06-2.96-14.06">
</path>
<path class="cls-5" d="M52.14,30.51l1.54-1.08s4.14,8.91-1.25,14.69">
</path>
<path class="cls-5" d="M18.97,48.9c-.45,.45-.91,.61-1.6,.61-1.38,0-2.5-1.12-2.5-2.5s1.12-2.5,2.5-2.5c.29,0,.56,.05,.82,.14">
</path>
<path class="cls-5" d="M51.17,48.78c.45,.45,1.08,.73,1.77,.73,1.38,0,2.5-1.12,2.5-2.5s-1.12-2.5-2.5-2.5c-.29,0-.56,.05-.82,.14">
</path>
<path class="cls-5" d="M25.12,55.65l-2.11,8s-7.03,1.41-14.42,4.75">
</path>
<path class="cls-5" d="M45,55.65l2.11,8s7.03,1.41,14.42,4.75">
</path>
<path class="cls-5" d="M19.6,64.56s.63,7.93,15.23,7.93,15.8-7.62,15.8-7.62">
</path>
<path d="M28.89,50.51c4.19,.43,8.28,.32,12.48,.15-3.86,1.76-8.69,1.84-12.48-.15h0Z">
</path>
<path class="cls-5" d="M37.5,44.97c.18,.2,.28,.43,.28,.67,0,.83-1.17,1.49-2.61,1.49s-2.61-.67-2.61-1.49c0-.21,.07-.4,.21-.58">
</path>
<path d="M37.58,33.35s0,1.25,.37,1.93c3.24-.64,5.3-.71,6.62-.24s3.14,1.93,3.14,1.93c0,0-1.62-3.11-4.26-3.58s-5.88-.03-5.88-.03Z">
</path>
<polygon points="32.58 33.29 30.69 33.22 28.93 34.97 30.99 35.11 32.58 33.29">
</polygon>
<path d="M47.84,39.53c-2.99-.32-6.57-.16-8.71,2.19,0,0-.18-.63-.18-.63,3.02,.93,6.28-.08,8.67-2.04,.17-.14-.07,.04-.03,.2,0,.14,.14,.27,.27,.28h0Zm.13-1.07c.56,.04,.9,.79,.52,1.23-.57,.54-1.21,.91-1.9,1.31-2.38,1.3-5.27,1.62-7.86,.84,0,0-.58-.17-.58-.17l.4-.46c2.35-2.61,6.12-3.09,9.43-2.75h0Z">
</path>
<path d="M39.66,39.41c.39-.66,.79-1.26,1.44-1.72,1.61-.39,3.36-.33,4.89,.3,0,0-1.21-.04-1.21-.04-1.08-.04-2.67,.1-3.48,.17-.5,.24-1.19,.92-1.65,1.29h0Z">
</path>
<path d="M22.21,38.46c3.3-.34,7.07,.14,9.43,2.75,0,0,.4,.46,.4,.46l-.58,.17c-2.59,.78-5.48,.47-7.86-.84-.69-.4-1.33-.77-1.9-1.31-.38-.44-.05-1.19,.52-1.23h0Zm.13,1.07c.13,0,.26-.14,.27-.28,.04-.16-.2-.34-.03-.2,2.38,1.97,5.65,2.97,8.67,2.04,0,0-.18,.63-.18,.63-2.15-2.35-5.72-2.51-8.71-2.19h0Z">
</path>
<path d="M30.51,39.41c-.46-.37-1.15-1.04-1.65-1.29-.81-.07-2.39-.21-3.48-.17,0,0-1.21,.04-1.21,.04,1.54-.63,3.28-.69,4.89-.3,.66,.46,1.05,1.06,1.44,1.72h0Z">
</path>
</g>
</g>
 <g
     id="g2850">
    <g
       id="g2837">
      <path
         id="path1951"
         d="M 0.056640625 0.04296875 L 0.056640625 79.943359 L 69.308594 79.943359 L 69.308594 0.04296875 L 0.056640625 0.04296875 z M 33.615234 3.5957031 C 34.206332 3.5957038 34.786991 3.6051034 35.421875 3.6152344 C 44.430653 3.7671809 53.471255 5.1336733 61.560547 7.5546875 L 62.064453 7.7070312 L 62.25 8.1640625 C 66.070247 17.605006 66.990234 28.726438 66.990234 40.0625 C 66.990234 51.398562 65.972723 63.025755 61.988281 72.578125 L 61.791016 73.044922 L 61.275391 73.185547 C 53.273669 75.403966 44.691921 76.529297 35.759766 76.529297 C 35.212453 76.529297 34.675812 76.519896 34.150391 76.509766 L 33.943359 76.509766 C 24.901742 76.357819 15.860367 74.989738 7.7929688 72.558594 L 7.2890625 72.40625 L 7.1035156 71.951172 C 3.2942144 62.520359 2.375 51.369168 2.375 40.0625 C 2.375 28.755832 3.3819737 17.127318 7.3554688 7.5546875 L 7.5527344 7.0898438 L 8.0664062 6.9472656 C 15.509867 4.890923 23.785212 3.7371557 32.005859 3.6054688 C 32.542226 3.5953387 33.078867 3.5957031 33.615234 3.5957031 z "
         style="opacity:1;vector-effect:none;fill:#ffffff;fill-opacity:1;fill-rule:nonzero;stroke:none;stroke-width:1.95200002;stroke-linecap:butt;stroke-linejoin:miter;stroke-miterlimit:4;stroke-dasharray:none;stroke-dashoffset:0;stroke-opacity:1" />
    </g>
    <path
       id="path1154-8-2"
       d="m 33.675163,6.6112954 c 0.557696,0 1.115392,0.00956 1.683415,0.019115 8.427403,0.14336 16.803167,1.4049288 24.363042,3.6700176 3.573384,8.830981 4.443772,19.417362 4.443772,29.761551 0,10.344189 -0.95301,21.39888 -4.68131,30.334991 -7.435942,2.064385 -15.429581,3.274388 -23.774362,3.274388 -0.506058,0 -1.012115,-0.0096 -1.518172,-0.01911 h -0.17557 C 25.56792,73.508883 17.192156,72.088619 9.6426089,69.813973 6.0795528,61.002107 5.2088244,50.415411 5.2088244,40.061979 c 0,-10.353432 0.95335,-21.389323 4.6609939,-30.325434 C 16.820359,7.8155201 24.462856,6.7450981 32.177647,6.6208528 c 0.49573,-0.00956 1.001787,-0.00956 1.497516,-0.00956 m 0,-0.9557337 c -0.506057,0 -1.012114,0 -1.518171,0.00956 C 24.40089,5.7893644 16.593149,6.8789009 9.570315,8.8190405 L 9.0849131,8.9528432 8.8990146,9.3924808 C 5.1500599,18.424166 4.1999116,29.394246 4.1999116,40.061979 c 0,10.667733 0.8675267,21.188618 4.461566,30.0865 l 0.1755708,0.430081 0.4750741,0.14336 c 7.6115135,2.293761 16.1421925,3.584001 24.6728715,3.727361 h 0.196227 c 0.495729,0.0096 1.001786,0.01911 1.518171,0.01911 8.427403,0 16.524318,-1.060864 24.073866,-3.153921 l 0.485403,-0.133802 0.185898,-0.439639 c 3.759282,-9.01257 4.719759,-19.983589 4.719759,-30.679055 0,-10.695466 -0.867528,-21.188618 -4.471894,-30.0960578 L 60.516853,9.5358409 60.041779,9.3924808 C 52.409609,7.108277 43.87893,5.8180364 35.379234,5.6746763 34.780227,5.6651187 34.232859,5.6555621 33.675163,5.6555615 Z"
       style="fill:#ff0000;stroke:#ffffff;stroke-width:1.84341729;stroke-miterlimit:4;stroke-dasharray:none" />
    <path
       id="path1154"
       d="m 33.614853,4.6077955 c 0.591098,0 1.182197,0.01013 1.784241,0.02026 8.932155,0.1519464 17.809578,1.4890758 25.822246,3.8898304 3.787408,9.3599041 4.709928,20.5803481 4.709928,31.5440931 0,10.963745 -1.01009,22.680548 -4.961693,32.151879 -7.881312,2.18803 -16.353723,3.302304 -25.198307,3.302304 -0.536368,0 -1.072735,-0.01013 -1.609102,-0.02026 H 33.97608 C 25.022033,75.343956 16.14461,74.006827 8.1428892,71.595943 4.3664269,62.256298 3.443547,51.035521 3.443547,40.061979 c 0,-10.973542 1.01045,-22.670418 4.9401601,-32.1417498 7.3668369,-2.036083 15.4670749,-3.170617 23.6439369,-3.3023039 0.525421,-0.01013 1.061788,-0.01013 1.587209,-0.01013 m 0,-1.0129766 c -0.536367,0 -1.072734,0 -1.609101,0.01013 C 23.785105,3.7366356 15.509726,4.891429 8.0662653,6.9477716 L 7.5517907,7.0895883 7.3547579,7.5555576 C 3.3812628,17.128188 2.3742062,28.755311 2.3742062,40.061979 c 0,11.306668 0.9194864,22.457692 4.7287876,31.888505 l 0.1860865,0.45584 0.5035283,0.151947 c 8.0673984,2.431144 17.1090154,3.798662 26.1506324,3.950608 h 0.207979 c 0.525421,0.01013 1.061788,0.02026 1.609101,0.02026 8.932155,0 17.514028,-1.124404 25.51575,-3.342823 l 0.514475,-0.141816 0.197032,-0.46597 c 3.984442,-9.55237 5.002445,-21.180489 5.002445,-32.516551 0,-11.336062 -0.919487,-22.457692 -4.739734,-31.8986353 L 62.064202,7.7075041 61.560674,7.5555576 C 53.471382,5.1345434 44.429765,3.7670249 35.420987,3.6150784 c -0.634884,-0.01013 -1.215036,-0.020259 -1.806134,-0.02026 z"
       style="fill:#000000;stroke:#000000;stroke-width:1.95382714;stroke-miterlimit:4;stroke-dasharray:none" />
    <g
       id="g1810">
      <path
         d="M 6.5134911,7.7433673 C 5.6489029,6.8479453 4.058602,6.5681013 3.6272194,7.3820013 3.284151,8.0292783 3.3625296,8.5309135 4.395235,8.9201755 3.2963719,9.5187755 1.4857674,9.4447465 1.1893447,7.4467713 0.95320848,5.8551433 2.674739,4.8863543 3.1399725,5.0916244 3.0034432,3.6818714 1.8221094,4.0692802 0.95849208,3.2813384 0.34259068,2.7194046 0.23126071,-0.02624603 0.0561761,0.04378767 -0.0138576,0.21887227 2.7317937,0.33020157 3.2937267,0.94610377 4.0816685,1.8097211 3.6942598,2.9910547 5.1040128,3.1275841 4.8987425,2.6623507 5.8675315,0.94082017 7.4591593,1.1769564 9.4571345,1.4733791 9.5311625,3.2839847 8.9325635,4.3828467 8.5433008,3.3501417 8.041666,3.2717627 7.3943894,3.6148312 6.5804899,4.0462137 6.8603354,5.6365129 7.7557553,6.5011023"
         style="fill:#000000;stroke:#000000;stroke-width:0.1112323px;stroke-linecap:butt;stroke-linejoin:miter;stroke-opacity:1"
         id="path1737-3" />
      <path
         d="m 62.850738,7.7433673 c 0.864588,-0.895422 2.454889,-1.175266 2.886271,-0.361366 0.343069,0.647277 0.26469,1.148912 -0.768015,1.538174 1.098863,0.5986 2.909467,0.524571 3.20589,-1.473404 0.236136,-1.591628 -1.485394,-2.560417 -1.950628,-2.3551469 0.13653,-1.409753 1.317863,-1.0223442 2.181481,-1.810286 0.615901,-0.5619338 0.727231,-3.30758442 0.902316,-3.23755072 0.07003,0.1750846 -2.675618,0.2864139 -3.237551,0.9023161 C 65.28256,1.8097211 65.669969,2.9910547 64.260216,3.1275841 64.465486,2.6623507 63.496697,0.94082018 61.905069,1.1769564 c -1.997975,0.2964227 -2.072003,2.1070283 -1.473404,3.2058903 0.389263,-1.032705 0.890898,-1.111084 1.538174,-0.7680155 0.8139,0.4313825 0.534054,2.0216817 -0.361366,2.8862711"
         style="fill:#000000;stroke:#000000;stroke-width:0.1112323px;stroke-linecap:butt;stroke-linejoin:miter;stroke-opacity:1"
         id="path1737-3-5" />
      <path
         d="m 62.850738,72.244244 c 0.864588,0.895422 2.454889,1.175266 2.886272,0.361366 0.343068,-0.647277 0.264689,-1.148912 -0.768016,-1.538174 1.098863,-0.5986 2.909468,-0.524571 3.20589,1.473404 0.236137,1.591628 -1.485394,2.560417 -1.950628,2.355147 0.13653,1.409753 1.317864,1.022344 2.181481,1.810286 0.615901,0.561934 0.727231,3.307584 0.902316,3.237551 0.07003,-0.175085 -2.675618,-0.286414 -3.237551,-0.902317 -0.787942,-0.863617 -0.400533,-2.04495 -1.810286,-2.18148 0.20527,0.465234 -0.763519,2.186764 -2.355146,1.950628 -1.997976,-0.296423 -2.072004,-2.107028 -1.473405,-3.20589 0.389263,1.032705 0.890898,1.111084 1.538175,0.768015 0.813899,-0.431382 0.534054,-2.021682 -0.361366,-2.886271"
         style="fill:#000000;stroke:#000000;stroke-width:0.1112323px;stroke-linecap:butt;stroke-linejoin:miter;stroke-opacity:1"
         id="path1737-3-7" />
      <path
         d="M 6.513491,72.244245 C 5.648903,73.139667 4.058602,73.419511 3.62722,72.605611 3.284151,71.958334 3.36253,71.456699 4.395235,71.067437 c -1.098863,-0.5986 -2.909467,-0.524571 -3.20589,1.473404 -0.23613599,1.591628 1.485394,2.560417 1.950628,2.355147 -0.13653,1.409753 -1.317863,1.022344 -2.18148099,1.810286 -0.615901,0.561933 -0.727231,3.307584 -0.902316,3.23755 C -0.01385399,79.76874 2.731794,79.65741 3.293727,79.041508 4.081669,78.177891 3.69426,76.996557 5.104013,76.860028 4.898743,77.325261 5.867532,79.046792 7.45916,78.810656 9.457135,78.514233 9.531163,76.703627 8.932564,75.604765 8.543301,76.63747 8.041666,76.715849 7.39439,76.372781 6.58049,75.941398 6.860336,74.351099 7.755756,73.48651"
         style="fill:#000000;stroke:#000000;stroke-width:0.1112323px;stroke-linecap:butt;stroke-linejoin:miter;stroke-opacity:1"
         id="path1737-3-5-5" />
    </g>
    <path
       id="path1154-9"
       d="m 33.712865,7.4258691 c 0.536813,0 1.07363,0.00933 1.620386,0.01865 8.111875,0.1398689 16.174044,1.3707167 23.450873,3.5806479 3.439594,8.615932 4.277395,18.944521 4.277395,29.036812 0,10.092292 -0.917329,20.877786 -4.506039,29.596289 -7.157536,2.014114 -14.851888,3.03982 -22.884234,3.03982 -0.487111,0 -0.974221,-0.0094 -1.461331,-0.01865 H 34.040918 C 25.909161,72.53957 17.846991,71.308722 10.580105,69.089467 7.1504515,60.492184 6.3123238,50.163289 6.3123238,40.061979 c 0,-10.101311 0.9176558,-20.868461 4.4864832,-29.586965 6.690308,-1.8742449 14.046665,-2.9186005 21.472608,-3.0398203 0.47717,-0.00933 0.964281,-0.00933 1.44145,-0.00933 m 0,-0.9324602 c -0.487111,0 -0.974221,0 -1.46133,0.00933 C 24.785826,6.6239532 17.270413,7.686958 10.510517,9.5798526 L 10.043289,9.710397 9.8643508,10.139328 c -3.6085914,8.811751 -4.5231655,19.514693 -4.5231655,29.922651 0,10.407958 0.8350459,20.672644 4.294522,29.353849 l 0.1689973,0.419608 0.4572874,0.13987 c 7.326533,2.237904 15.537818,3.496724 23.749103,3.636593 h 0.188879 c 0.47717,0.0094 0.96428,0.01865 1.461331,0.01865 8.111875,0 15.905636,-1.035031 23.172525,-3.077119 l 0.467228,-0.130544 0.178938,-0.428932 c 3.618533,-8.793101 4.543048,-19.496959 4.543048,-29.931975 0,-10.435016 -0.835047,-20.672644 -4.304463,-29.363174 l -0.168997,-0.419609 -0.457288,-0.13987 C 51.74588,7.9107484 43.534594,6.6519271 35.353133,6.512058 34.776554,6.502738 34.249678,6.493409 33.712865,6.493409 Z"
       style="fill:#000000;stroke:none;stroke-width:1.78642213;stroke-miterlimit:4;stroke-dasharray:none" />
    <path
       id="path1154-9-3"
       d="m 33.712865,7.4258686 c 0.536813,0 1.07363,0.00933 1.620386,0.01865 8.111875,0.1398689 16.174044,1.3707167 23.450873,3.5806484 3.439594,8.615932 4.277395,18.944521 4.277395,29.036812 0,10.092292 -0.917329,20.877786 -4.506039,29.596288 -7.157536,2.014114 -14.851888,3.03982 -22.884234,3.03982 -0.487111,0 -0.974221,-0.0094 -1.461331,-0.01865 H 34.040918 C 25.909161,72.539569 17.846991,71.308722 10.580105,69.089466 7.1504515,60.492184 6.3123238,50.163288 6.3123238,40.061979 c 0,-10.101312 0.9176558,-20.868461 4.4864832,-29.586965 6.690308,-1.8742454 14.046665,-2.918601 21.472608,-3.0398208 0.47717,-0.00933 0.964281,-0.00933 1.44145,-0.00933 m 0,-0.9324602 c -0.487111,0 -0.974221,0 -1.46133,0.00933 C 24.785826,6.6239527 17.270413,7.6869575 10.510517,9.5798521 L 10.043289,9.7103965 9.8643508,10.139328 C 6.2557594,18.951079 5.3411853,29.65402 5.3411853,40.061979 c 0,10.407958 0.8350459,20.672643 4.294522,29.353849 l 0.1689973,0.419608 0.4572874,0.13987 c 7.326533,2.237904 15.537818,3.496724 23.749103,3.636593 h 0.188879 c 0.47717,0.0094 0.96428,0.01865 1.461331,0.01865 8.111875,0 15.905636,-1.035032 23.172525,-3.077119 l 0.467228,-0.130544 0.178938,-0.428932 c 3.618533,-8.793101 4.543048,-19.49696 4.543048,-29.931975 0,-10.435016 -0.835047,-20.672644 -4.304463,-29.363175 l -0.168997,-0.419609 -0.457288,-0.13987 C 51.74588,7.9107479 43.534594,6.6519266 35.353133,6.5120575 34.776554,6.5027375 34.249678,6.4934085 33.712865,6.4934085 Z"
       style="fill:#000000;stroke:none;stroke-width:1.78642213;stroke-miterlimit:4;stroke-dasharray:none" />
  </g>
</svg>
