<svg id="Capa_2" xmlns="http://www.w3.org/2000/svg" xmlns:xlink="http://www.w3.org/1999/xlink" viewBox="0 0 69.02 80">
<defs >
<style >
.cls-1{fill:#fff;}.cls-2{fill:#f8ffbf;}.cls-3{fill:#7b7be8;}.cls-4{fill:#a88347;}.cls-5{fill:#782ab5;}.cls-6,.cls-7,.cls-8,.cls-9,.cls-10{stroke:#000;stroke-miterlimit:10;}.cls-6,.cls-7,.cls-11,.cls-9,.cls-10,.cls-12,.cls-13{fill:none;}.cls-7{stroke-width:1.01px;}.cls-7,.cls-8,.cls-11,.cls-9{stroke-linecap:round;}.cls-8{fill:#b83521;}.cls-8,.cls-9{stroke-width:1.1px;}.cls-11{stroke:#deb778;stroke-dasharray:0 0 0 4.06;stroke-linejoin:round;}.cls-14{fill:#deb778;}.cls-10{stroke-width:1.09px;}.cls-15{fill:url(#USGS_19_Inundación_de_tierra_2);}.cls-13{stroke:#1d1d1b;stroke-dasharray:0 0 2 2;stroke-width:.3px;}.cls-16{fill:#ddb3f5;}.cls-17{fill:#fcf0c5;}
</style>
<pattern id="USGS_19_Inundación_de_tierra_2" x="0" y="0" width="72" height="72" patternTransform="translate(-236.48 -16063) rotate(-90)" patternUnits="userSpaceOnUse" viewBox="0 0 72 72">
<g >
<rect class="cls-12" width="72" height="72">
</rect>
<g >
<line class="cls-13" x1="71" y1="71" x2="144.44" y2="71">
</line>
<line class="cls-13" x1="71" y1="67" x2="144.44" y2="67">
</line>
<line class="cls-13" x1="71" y1="63" x2="144.44" y2="63">
</line>
<line class="cls-13" x1="71" y1="59" x2="144.44" y2="59">
</line>
<line class="cls-13" x1="71" y1="55" x2="144.44" y2="55">
</line>
<line class="cls-13" x1="71" y1="51" x2="144.44" y2="51">
</line>
<line class="cls-13" x1="71" y1="47" x2="144.44" y2="47">
</line>
<line class="cls-13" x1="71" y1="43" x2="144.44" y2="43">
</line>
<line class="cls-13" x1="71" y1="39" x2="144.44" y2="39">
</line>
<line class="cls-13" x1="71" y1="35" x2="144.44" y2="35">
</line>
<line class="cls-13" x1="71" y1="31" x2="144.44" y2="31">
</line>
<line class="cls-13" x1="71" y1="27" x2="144.44" y2="27">
</line>
<line class="cls-13" x1="71" y1="23" x2="144.44" y2="23">
</line>
<line class="cls-13" x1="71" y1="19" x2="144.44" y2="19">
</line>
<line class="cls-13" x1="71" y1="15" x2="144.44" y2="15">
</line>
<line class="cls-13" x1="71" y1="11" x2="144.44" y2="11">
</line>
<line class="cls-13" x1="71" y1="7" x2="144.44" y2="7">
</line>
<line class="cls-13" x1="71" y1="3" x2="144.44" y2="3">
</line>
</g>
<g >
<line class="cls-13" x1="-1" y1="71" x2="72.44" y2="71">
</line>
<line class="cls-13" x1="-1" y1="67" x2="72.44" y2="67">
</line>
<line class="cls-13" x1="-1" y1="63" x2="72.44" y2="63">
</line>
<line class="cls-13" x1="-1" y1="59" x2="72.44" y2="59">
</line>
<line class="cls-13" x1="-1" y1="55" x2="72.44" y2="55">
</line>
<line class="cls-13" x1="-1" y1="51" x2="72.44" y2="51">
</line>
<line class="cls-13" x1="-1" y1="47" x2="72.44" y2="47">
</line>
<line class="cls-13" x1="-1" y1="43" x2="72.44" y2="43">
</line>
<line class="cls-13" x1="-1" y1="39" x2="72.44" y2="39">
</line>
<line class="cls-13" x1="-1" y1="35" x2="72.44" y2="35">
</line>
<line class="cls-13" x1="-1" y1="31" x2="72.44" y2="31">
</line>
<line class="cls-13" x1="-1" y1="27" x2="72.44" y2="27">
</line>
<line class="cls-13" x1="-1" y1="23" x2="72.44" y2="23">
</line>
<line class="cls-13" x1="-1" y1="19" x2="72.44" y2="19">
</line>
<line class="cls-13" x1="-1" y1="15" x2="72.44" y2="15">
</line>
<line class="cls-13" x1="-1" y1="11" x2="72.44" y2="11">
</line>
<line class="cls-13" x1="-1" y1="7" x2="72.44" y2="7">
</line>
<line class="cls-13" x1="-1" y1="3" x2="72.44" y2="3">
</line>
<line class="cls-13" x1="1.04" y1="69" x2="74.48" y2="69">
</line>
<line class="cls-13" x1="1.04" y1="65" x2="74.48" y2="65">
</line>
<line class="cls-13" x1="1.04" y1="61" x2="74.48" y2="61">
</line>
<line class="cls-13" x1="1.04" y1="57" x2="74.48" y2="57">
</line>
<line class="cls-13" x1="1.04" y1="53" x2="74.48" y2="53">
</line>
<line class="cls-13" x1="1.04" y1="49" x2="74.48" y2="49">
</line>
<line class="cls-13" x1="1.04" y1="45" x2="74.48" y2="45">
</line>
<line class="cls-13" x1="1.04" y1="41" x2="74.48" y2="41">
</line>
<line class="cls-13" x1="1.04" y1="37" x2="74.48" y2="37">
</line>
<line class="cls-13" x1="1.04" y1="33" x2="74.48" y2="33">
</line>
<line class="cls-13" x1="1.04" y1="29" x2="74.48" y2="29">
</line>
<line class="cls-13" x1="1.04" y1="25" x2="74.48" y2="25">
</line>
<line class="cls-13" x1="1.04" y1="21" x2="74.48" y2="21">
</line>
<line class="cls-13" x1="1.04" y1="17" x2="74.48" y2="17">
</line>
<line class="cls-13" x1="1.04" y1="13" x2="74.48" y2="13">
</line>
<line class="cls-13" x1="1.04" y1="9" x2="74.48" y2="9">
</line>
<line class="cls-13" x1="1.04" y1="5" x2="74.48" y2="5">
</line>
<line class="cls-13" x1="1.04" y1="1" x2="74.48" y2="1">
</line>
</g>
<g >
<line class="cls-13" x1="-73" y1="71" x2=".44" y2="71">
</line>
<line class="cls-13" x1="-73" y1="67" x2=".44" y2="67">
</line>
<line class="cls-13" x1="-73" y1="63" x2=".44" y2="63">
</line>
<line class="cls-13" x1="-73" y1="59" x2=".44" y2="59">
</line>
<line class="cls-13" x1="-73" y1="55" x2=".44" y2="55">
</line>
<line class="cls-13" x1="-73" y1="51" x2=".44" y2="51">
</line>
<line class="cls-13" x1="-73" y1="47" x2=".44" y2="47">
</line>
<line class="cls-13" x1="-73" y1="43" x2=".44" y2="43">
</line>
<line class="cls-13" x1="-73" y1="39" x2=".44" y2="39">
</line>
<line class="cls-13" x1="-73" y1="35" x2=".44" y2="35">
</line>
<line class="cls-13" x1="-73" y1="31" x2=".44" y2="31">
</line>
<line class="cls-13" x1="-73" y1="27" x2=".44" y2="27">
</line>
<line class="cls-13" x1="-73" y1="23" x2=".44" y2="23">
</line>
<line class="cls-13" x1="-73" y1="19" x2=".44" y2="19">
</line>
<line class="cls-13" x1="-73" y1="15" x2=".44" y2="15">
</line>
<line class="cls-13" x1="-73" y1="11" x2=".44" y2="11">
</line>
<line class="cls-13" x1="-73" y1="7" x2=".44" y2="7">
</line>
<line class="cls-13" x1="-73" y1="3" x2=".44" y2="3">
</line>
<line class="cls-13" x1="-70.96" y1="69" x2="2.48" y2="69">
</line>
<line class="cls-13" x1="-70.96" y1="65" x2="2.48" y2="65">
</line>
<line class="cls-13" x1="-70.96" y1="61" x2="2.48" y2="61">
</line>
<line class="cls-13" x1="-70.96" y1="57" x2="2.48" y2="57">
</line>
<line class="cls-13" x1="-70.96" y1="53" x2="2.48" y2="53">
</line>
<line class="cls-13" x1="-70.96" y1="49" x2="2.48" y2="49">
</line>
<line class="cls-13" x1="-70.96" y1="45" x2="2.48" y2="45">
</line>
<line class="cls-13" x1="-70.96" y1="41" x2="2.48" y2="41">
</line>
<line class="cls-13" x1="-70.96" y1="37" x2="2.48" y2="37">
</line>
<line class="cls-13" x1="-70.96" y1="33" x2="2.48" y2="33">
</line>
<line class="cls-13" x1="-70.96" y1="29" x2="2.48" y2="29">
</line>
<line class="cls-13" x1="-70.96" y1="25" x2="2.48" y2="25">
</line>
<line class="cls-13" x1="-70.96" y1="21" x2="2.48" y2="21">
</line>
<line class="cls-13" x1="-70.96" y1="17" x2="2.48" y2="17">
</line>
<line class="cls-13" x1="-70.96" y1="13" x2="2.48" y2="13">
</line>
<line class="cls-13" x1="-70.96" y1="9" x2="2.48" y2="9">
</line>
<line class="cls-13" x1="-70.96" y1="5" x2="2.48" y2="5">
</line>
<line class="cls-13" x1="-70.96" y1="1" x2="2.48" y2="1">
</line>
</g>
</g>
</pattern>
</defs>

<g id="Characters">
<g >
<path class="cls-3" d="M46.64,49.88c-.85,1.33-3.51,4.84-3.51,4.84,0,0,0,2.66,.12,5.32,.24,2.05,3.99,3.63,3.99,3.63l13.79,4.11-.73,5.92s-11,3.39-23.82,3.63c-12.82,.24-26.96-3.51-26.96-3.51l-.12-5.8s11.36-3.63,14.26-4.72c2.91-1.08,2.79-2.66,2.79-2.66l-.25-6.89s-.72-.72-2.66-3.87c-.1,0-.21,0-.31-.02-12.96-.41-18.31-12.43-18.31-12.43,0,0-1.33-17.05,3.51-30.47,18.5-11,52.35-.85,52.35-.85,0,0,7.62,25.52,3.39,32.65-4.23,7.13-8.58,9.67-17.52,11.12h-.01Z">
</path>
<path d="M64.17,38.76c-4.23,7.13-8.58,9.67-17.52,11.12,.46-1.47,1.65-5.24,1.97-5.78,3.26,1.08,5.16-5.29,4.88-10.44-2.57,5.02-3.79,5.15-3.79,5.15,0,0,1.08-10.3-1.36-13.69s-9.35-6.51-18.16-4.34c-8.81,2.17-10.85,5.43-9.49,18.44-2.98-2.44-3.8-5.42-3.8-5.42,0,0-.68,4.61,.82,8.13,1.49,2.71,3.66,2.58,3.66,2.58,0,0,1.04,3.05,1.85,5.35-12.96-.41-18.31-12.43-18.31-12.43,0,0-1.33-17.05,3.51-30.47,18.5-11,52.35-.85,52.35-.85,0,0,7.62,25.52,3.39,32.65Z">
</path>
<path class="cls-16" d="M34.84,59.17V29.31c0-6.92,8.89-10.27,13.1-4.77,.14,.19,.28,.38,.41,.59,2.85,5.72,.56,18.32-1.53,24.16s-9.17,9.9-11.98,9.9Z">
</path>
<path class="cls-3" d="M37.6,34.38l1.55,5.65s3.16-2.36,6.87-.4c1.35-2.63,1.95-5.25,1.95-5.25,0,0-1.41-2.22-4.11-1.68s-6.26,1.68-6.26,1.68Z">
</path>
<path class="cls-2" d="M30.92,40.04s-2.95-2.54-6.66-.46c2.19,1.57,4.35,1.7,6.66,.46Z">
</path>
<path class="cls-2" d="M39.17,40.04s2.95-2.54,6.66-.46c-2.19,1.57-4.35,1.7-6.66,.46Z">
</path>
<path class="cls-1" d="M30.84,51.16l2.64-1.56h3.48l1.44,1.56s-1.32,2.16-3.96,2.4-3.6-2.4-3.6-2.4Z">
</path>
<path class="cls-16" d="M24.58,42.28s3.18,.99,5.56-.1c-1.86,4.79-4.66,3.92-5.56,.1Z">
</path>
<path class="cls-16" d="M41.47,57.66l-11.78,13.17s9.32,3.11,18.96-5.25c-6.96-.86-7.39-4.28-7.18-7.93Z">
</path>
<path d="M39.97,57.45l-16.92,16.28-12.32-2.57-1.07-3.64,12.85-3.96s3.8-.37,3.94-2.92,.35-6.4,.35-6.4c0,0,4.28,3.75,6.21,4.18s4.61-.11,4.61-.11l2.36-.86Z">
</path>
<path class="cls-1" d="M50.66,64.67l3.14,1.05-5.85,7.84s-15.37,3.45-26.13-.21c2.4-2.09,3.66-2.61,3.66-2.61,0,0,5.02,2.82,11.71,1.88s11.71-3.76,13.48-7.94Z">
</path>
<path class="cls-1" d="M24.17,56.45s-2.57-3.96-4.33-4.7c-3.6,2.86-4.33,4.7-4.33,4.7,0,0,2.79,4.18,4.7,4.48,3.16-1.98,3.96-4.48,3.96-4.48Z">
</path>
<path class="cls-1" d="M49.57,51.68s-3.16,2.13-4.26,4.92c2.35,3.45,3.96,4.26,3.96,4.26,0,0,3.67-2.57,4.18-4.7-1.98-3.3-3.89-4.48-3.89-4.48Z">
</path>
<path class="cls-4" d="M49.21,52.06v8.8s-3.62-2.87-3.89-4.26c2.23-3.8,3.89-4.54,3.89-4.54Z">
</path>
<path class="cls-4" d="M20.17,52.06v8.8s-3.62-2.87-3.89-4.26c2.23-3.8,3.89-4.54,3.89-4.54Z">
</path>
<path class="cls-3" d="M35.29,22.21c2.3,0,8.72,.64,10.84,3.48,2.3,3.06,1.86,10.79,1.49,13.51l-.2,1.46-.07-.05-.6,2.98c-1.06,5.29-4.1,9.5-9.05,12.52-.79,.48-1.71,.74-2.65,.74s-1.86-.26-2.65-.74c-4.95-3.01-7.99-7.22-9.05-12.52l-.61-2.97-.06,.04-.2-1.46c-.36-2.72-.81-10.44,1.48-13.51,2.12-2.84,8.54-3.47,10.83-3.48h.49m0-2h-.49s-9.24,0-12.43,4.28c-3.29,4.4-1.86,14.97-1.86,14.97,0,0-2.53-3.08-3.63-5.95-1.28,4.4,1.01,10.79,3.54,10.79,.32,0,.65-.1,.97-.32,1.19,5.93,4.6,10.56,9.97,13.83,1.13,.69,2.41,1.03,3.69,1.03s2.56-.34,3.69-1.03c5.38-3.27,8.79-7.9,9.97-13.83,.32,.22,.65,.32,.97,.32,2.53,0,4.82-6.38,3.54-10.79-1.1,2.87-3.63,5.95-3.63,5.95,0,0,1.43-10.57-1.87-14.97-3.18-4.28-12.43-4.28-12.43-4.28h0Z">
</path>
<path class="cls-1" d="M38.04,31.71s4.74-.76,7.39-.57c-1.9-2.65-3.98-2.75-7.39,.57Z">
</path>
<path class="cls-1" d="M38.8,42.23s3.89,1.14,6.83,.28c-1.99,3.51-4.46,3.89-6.83-.28Z">
</path>
<path class="cls-9" d="M35.3,20.21s9.25,0,12.43,4.28c3.3,4.4,1.87,14.97,1.87,14.97,0,0,2.53-3.08,3.63-5.95,1.44,4.96-1.65,12.43-4.51,10.46-1.19,5.93-4.6,10.56-9.97,13.83-2.25,1.37-5.13,1.37-7.38,0-5.38-3.27-8.79-7.9-9.97-13.83-2.87,1.97-5.95-5.5-4.51-10.46,1.1,2.87,3.63,5.95,3.63,5.95,0,0-1.43-10.57,1.86-14.97,3.19-4.28,12.43-4.28,12.43-4.28">
</path>
<path class="cls-9" d="M23.41,49.93S2.58,49.19,2.58,24.48">
</path>
<path class="cls-9" d="M46.82,49.93s20.16-.57,20.16-25.28">
</path>
<path d="M22.11,34.46c.68-1.27,2.15-2.4,3.71-2.36,2.42,.08,4.76,.62,7.05,1.27,0,0-.66,2.07-.66,2.07-2.16-.67-4.3-1.56-6.5-2.04-1.3-.27-2.48,.29-3.61,1.05h0Z">
</path>
<path d="M31.13,40.12c-2.15-1.13-4.59-1.39-6.69-.16,0,0,.13-.8,.13-.8,.5,.58,1.34,.94,2.23,1.17,.91,.21,1.86,.37,2.81,.31-.9,.46-1.94,.52-2.94,.47-1.22-.06-2.52-.61-3.35-1.73,2.43-1.75,5.86-1.59,7.8,.75h0Z">
</path>
<path d="M48.06,34.46c-1.13-.76-2.31-1.33-3.61-1.05-2.19,.48-4.34,1.36-6.5,2.04,0,0-.66-2.07-.66-2.07,2.29-.65,4.63-1.19,7.05-1.27,1.56-.05,3.03,1.08,3.71,2.36h0Z">
</path>
<path d="M39.04,40.12c1.95-2.34,5.37-2.5,7.8-.75-.82,1.12-2.12,1.67-3.35,1.73-1,.05-2.04-.01-2.94-.47,.95,.06,1.9-.1,2.81-.31,.88-.22,1.73-.59,2.23-1.17l.13,.8c-2.1-1.23-4.54-.97-6.69,.16h0Z">
</path>
<path d="M31.67,43.89c.28,1.69,1.82,1.6,3.17,1.62,.95-.07,2.09,.12,2.73-.59,.16-.24,.17-.63,.15-1.03,.25,.3,.47,.69,.42,1.19-.52,2.64-8.02,2.1-6.48-1.19h0Z">
</path>
<path d="M39.94,51.26s-1.42-1.71-2.36-2.34-2.76-.5-2.76-.5c0,0-1.82-.13-2.76,.5s-2.36,2.34-2.36,2.34c0,0,1.69,.75,3.52-.62,1.33,1.03,2.89,0,2.89,0,0,0,1.99,1.46,3.83,.62Z">
</path>
<path d="M29.7,51.26s1.28,4.06,4.95,4.06,5.29-4.06,5.29-4.06l-2.53-.37s-.61,1.9-2.83,1.9-2.56-1.97-2.56-1.97l-2.32,.45Z">
</path>
<path class="cls-7" d="M19.98,60.83c1.46-.87,3.32-2.32,4.23-4.49-1.55-2.71-3.18-4.03-4.22-4.65-1.04,.6-2.67,1.93-4.24,4.65,.92,2.17,2.77,3.62,4.23,4.49Z">
</path>
<circle class="cls-8" cx="19.98" cy="56.26" r="1.6">
</circle>
<path class="cls-7" d="M53.52,56.34c-1.57-2.72-3.2-4.05-4.24-4.65-1.04,.62-2.67,1.94-4.22,4.65,.91,2.17,2.77,3.62,4.23,4.49,1.46-.87,3.31-2.32,4.23-4.49Z">
</path>
<circle class="cls-8" cx="49.29" cy="56.26" r="1.6">
</circle>
<g >
<path class="cls-10" d="M26.59,54.27v4.8c0,1.94-1.25,3.66-3.09,4.27l-11.66,3.84s-3.83,1.2-4.78,4.07">
</path>
<path class="cls-10" d="M43.16,54.27v4.8c0,1.94,1.25,3.66,3.09,4.27l11.66,3.84s3.83,1.2,4.78,4.07">
</path>
</g>
<path class="cls-6" d="M18.71,65.17s4.54,7.69,16.07,7.69,16.26-7.69,16.26-7.69">
</path>
<path d="M16.73,65.81s2.14,3.98,6.56,6.17c-1.09,2.42-1.02,2.73-1.02,2.73l-11.95-3.13-.7-3.28,7.11-2.5Z">
</path>
<path d="M52.56,65.81s-2.14,3.98-6.56,6.17c1.09,2.42,1.02,2.73,1.02,2.73l11.95-3.13,.7-3.28-7.11-2.5Z">
</path>
<path class="cls-1" d="M27.1,61.11c.21,3.38-4.36,3.84-6.71,4.89-2.77,.92-5.57,1.77-8.46,2.33,2.64-1.31,5.36-2.32,8.12-3.27,1.38-.46,2.77-.9,4.18-1.29,1.32-.39,2.71-1.14,2.88-2.66h0Z">
</path>
<path class="cls-1" d="M7.06,39.01c3.67,4.91,9.2,7.81,14.96,9.59-.76-.06-1.53-.15-2.3-.27-5.26-1-10.49-4.28-12.66-9.32h0Z">
</path>
</g>
</g>
 <g
     id="g2850">
    <g
       id="g2837">
      <path
         id="path1951"
         d="M 0.056640625 0.04296875 L 0.056640625 79.943359 L 69.308594 79.943359 L 69.308594 0.04296875 L 0.056640625 0.04296875 z M 33.615234 3.5957031 C 34.206332 3.5957038 34.786991 3.6051034 35.421875 3.6152344 C 44.430653 3.7671809 53.471255 5.1336733 61.560547 7.5546875 L 62.064453 7.7070312 L 62.25 8.1640625 C 66.070247 17.605006 66.990234 28.726438 66.990234 40.0625 C 66.990234 51.398562 65.972723 63.025755 61.988281 72.578125 L 61.791016 73.044922 L 61.275391 73.185547 C 53.273669 75.403966 44.691921 76.529297 35.759766 76.529297 C 35.212453 76.529297 34.675812 76.519896 34.150391 76.509766 L 33.943359 76.509766 C 24.901742 76.357819 15.860367 74.989738 7.7929688 72.558594 L 7.2890625 72.40625 L 7.1035156 71.951172 C 3.2942144 62.520359 2.375 51.369168 2.375 40.0625 C 2.375 28.755832 3.3819737 17.127318 7.3554688 7.5546875 L 7.5527344 7.0898438 L 8.0664062 6.9472656 C 15.509867 4.890923 23.785212 3.7371557 32.005859 3.6054688 C 32.542226 3.5953387 33.078867 3.5957031 33.615234 3.5957031 z "
         style="opacity:1;vector-effect:none;fill:#ffffff;fill-opacity:1;fill-rule:nonzero;stroke:none;stroke-width:1.95200002;stroke-linecap:butt;stroke-linejoin:miter;stroke-miterlimit:4;stroke-dasharray:none;stroke-dashoffset:0;stroke-opacity:1" />
    </g>
    <path
       id="path1154-8-2"
       d="m 33.675163,6.6112954 c 0.557696,0 1.115392,0.00956 1.683415,0.019115 8.427403,0.14336 16.803167,1.4049288 24.363042,3.6700176 3.573384,8.830981 4.443772,19.417362 4.443772,29.761551 0,10.344189 -0.95301,21.39888 -4.68131,30.334991 -7.435942,2.064385 -15.429581,3.274388 -23.774362,3.274388 -0.506058,0 -1.012115,-0.0096 -1.518172,-0.01911 h -0.17557 C 25.56792,73.508883 17.192156,72.088619 9.6426089,69.813973 6.0795528,61.002107 5.2088244,50.415411 5.2088244,40.061979 c 0,-10.353432 0.95335,-21.389323 4.6609939,-30.325434 C 16.820359,7.8155201 24.462856,6.7450981 32.177647,6.6208528 c 0.49573,-0.00956 1.001787,-0.00956 1.497516,-0.00956 m 0,-0.9557337 c -0.506057,0 -1.012114,0 -1.518171,0.00956 C 24.40089,5.7893644 16.593149,6.8789009 9.570315,8.8190405 L 9.0849131,8.9528432 8.8990146,9.3924808 C 5.1500599,18.424166 4.1999116,29.394246 4.1999116,40.061979 c 0,10.667733 0.8675267,21.188618 4.461566,30.0865 l 0.1755708,0.430081 0.4750741,0.14336 c 7.6115135,2.293761 16.1421925,3.584001 24.6728715,3.727361 h 0.196227 c 0.495729,0.0096 1.001786,0.01911 1.518171,0.01911 8.427403,0 16.524318,-1.060864 24.073866,-3.153921 l 0.485403,-0.133802 0.185898,-0.439639 c 3.759282,-9.01257 4.719759,-19.983589 4.719759,-30.679055 0,-10.695466 -0.867528,-21.188618 -4.471894,-30.0960578 L 60.516853,9.5358409 60.041779,9.3924808 C 52.409609,7.108277 43.87893,5.8180364 35.379234,5.6746763 34.780227,5.6651187 34.232859,5.6555621 33.675163,5.6555615 Z"
       style="fill:#ff0000;stroke:#ffffff;stroke-width:1.84341729;stroke-miterlimit:4;stroke-dasharray:none" />
    <path
       id="path1154"
       d="m 33.614853,4.6077955 c 0.591098,0 1.182197,0.01013 1.784241,0.02026 8.932155,0.1519464 17.809578,1.4890758 25.822246,3.8898304 3.787408,9.3599041 4.709928,20.5803481 4.709928,31.5440931 0,10.963745 -1.01009,22.680548 -4.961693,32.151879 -7.881312,2.18803 -16.353723,3.302304 -25.198307,3.302304 -0.536368,0 -1.072735,-0.01013 -1.609102,-0.02026 H 33.97608 C 25.022033,75.343956 16.14461,74.006827 8.1428892,71.595943 4.3664269,62.256298 3.443547,51.035521 3.443547,40.061979 c 0,-10.973542 1.01045,-22.670418 4.9401601,-32.1417498 7.3668369,-2.036083 15.4670749,-3.170617 23.6439369,-3.3023039 0.525421,-0.01013 1.061788,-0.01013 1.587209,-0.01013 m 0,-1.0129766 c -0.536367,0 -1.072734,0 -1.609101,0.01013 C 23.785105,3.7366356 15.509726,4.891429 8.0662653,6.9477716 L 7.5517907,7.0895883 7.3547579,7.5555576 C 3.3812628,17.128188 2.3742062,28.755311 2.3742062,40.061979 c 0,11.306668 0.9194864,22.457692 4.7287876,31.888505 l 0.1860865,0.45584 0.5035283,0.151947 c 8.0673984,2.431144 17.1090154,3.798662 26.1506324,3.950608 h 0.207979 c 0.525421,0.01013 1.061788,0.02026 1.609101,0.02026 8.932155,0 17.514028,-1.124404 25.51575,-3.342823 l 0.514475,-0.141816 0.197032,-0.46597 c 3.984442,-9.55237 5.002445,-21.180489 5.002445,-32.516551 0,-11.336062 -0.919487,-22.457692 -4.739734,-31.8986353 L 62.064202,7.7075041 61.560674,7.5555576 C 53.471382,5.1345434 44.429765,3.7670249 35.420987,3.6150784 c -0.634884,-0.01013 -1.215036,-0.020259 -1.806134,-0.02026 z"
       style="fill:#000000;stroke:#000000;stroke-width:1.95382714;stroke-miterlimit:4;stroke-dasharray:none" />
    <g
       id="g1810">
      <path
         d="M 6.5134911,7.7433673 C 5.6489029,6.8479453 4.058602,6.5681013 3.6272194,7.3820013 3.284151,8.0292783 3.3625296,8.5309135 4.395235,8.9201755 3.2963719,9.5187755 1.4857674,9.4447465 1.1893447,7.4467713 0.95320848,5.8551433 2.674739,4.8863543 3.1399725,5.0916244 3.0034432,3.6818714 1.8221094,4.0692802 0.95849208,3.2813384 0.34259068,2.7194046 0.23126071,-0.02624603 0.0561761,0.04378767 -0.0138576,0.21887227 2.7317937,0.33020157 3.2937267,0.94610377 4.0816685,1.8097211 3.6942598,2.9910547 5.1040128,3.1275841 4.8987425,2.6623507 5.8675315,0.94082017 7.4591593,1.1769564 9.4571345,1.4733791 9.5311625,3.2839847 8.9325635,4.3828467 8.5433008,3.3501417 8.041666,3.2717627 7.3943894,3.6148312 6.5804899,4.0462137 6.8603354,5.6365129 7.7557553,6.5011023"
         style="fill:#000000;stroke:#000000;stroke-width:0.1112323px;stroke-linecap:butt;stroke-linejoin:miter;stroke-opacity:1"
         id="path1737-3" />
      <path
         d="m 62.850738,7.7433673 c 0.864588,-0.895422 2.454889,-1.175266 2.886271,-0.361366 0.343069,0.647277 0.26469,1.148912 -0.768015,1.538174 1.098863,0.5986 2.909467,0.524571 3.20589,-1.473404 0.236136,-1.591628 -1.485394,-2.560417 -1.950628,-2.3551469 0.13653,-1.409753 1.317863,-1.0223442 2.181481,-1.810286 0.615901,-0.5619338 0.727231,-3.30758442 0.902316,-3.23755072 0.07003,0.1750846 -2.675618,0.2864139 -3.237551,0.9023161 C 65.28256,1.8097211 65.669969,2.9910547 64.260216,3.1275841 64.465486,2.6623507 63.496697,0.94082018 61.905069,1.1769564 c -1.997975,0.2964227 -2.072003,2.1070283 -1.473404,3.2058903 0.389263,-1.032705 0.890898,-1.111084 1.538174,-0.7680155 0.8139,0.4313825 0.534054,2.0216817 -0.361366,2.8862711"
         style="fill:#000000;stroke:#000000;stroke-width:0.1112323px;stroke-linecap:butt;stroke-linejoin:miter;stroke-opacity:1"
         id="path1737-3-5" />
      <path
         d="m 62.850738,72.244244 c 0.864588,0.895422 2.454889,1.175266 2.886272,0.361366 0.343068,-0.647277 0.264689,-1.148912 -0.768016,-1.538174 1.098863,-0.5986 2.909468,-0.524571 3.20589,1.473404 0.236137,1.591628 -1.485394,2.560417 -1.950628,2.355147 0.13653,1.409753 1.317864,1.022344 2.181481,1.810286 0.615901,0.561934 0.727231,3.307584 0.902316,3.237551 0.07003,-0.175085 -2.675618,-0.286414 -3.237551,-0.902317 -0.787942,-0.863617 -0.400533,-2.04495 -1.810286,-2.18148 0.20527,0.465234 -0.763519,2.186764 -2.355146,1.950628 -1.997976,-0.296423 -2.072004,-2.107028 -1.473405,-3.20589 0.389263,1.032705 0.890898,1.111084 1.538175,0.768015 0.813899,-0.431382 0.534054,-2.021682 -0.361366,-2.886271"
         style="fill:#000000;stroke:#000000;stroke-width:0.1112323px;stroke-linecap:butt;stroke-linejoin:miter;stroke-opacity:1"
         id="path1737-3-7" />
      <path
         d="M 6.513491,72.244245 C 5.648903,73.139667 4.058602,73.419511 3.62722,72.605611 3.284151,71.958334 3.36253,71.456699 4.395235,71.067437 c -1.098863,-0.5986 -2.909467,-0.524571 -3.20589,1.473404 -0.23613599,1.591628 1.485394,2.560417 1.950628,2.355147 -0.13653,1.409753 -1.317863,1.022344 -2.18148099,1.810286 -0.615901,0.561933 -0.727231,3.307584 -0.902316,3.23755 C -0.01385399,79.76874 2.731794,79.65741 3.293727,79.041508 4.081669,78.177891 3.69426,76.996557 5.104013,76.860028 4.898743,77.325261 5.867532,79.046792 7.45916,78.810656 9.457135,78.514233 9.531163,76.703627 8.932564,75.604765 8.543301,76.63747 8.041666,76.715849 7.39439,76.372781 6.58049,75.941398 6.860336,74.351099 7.755756,73.48651"
         style="fill:#000000;stroke:#000000;stroke-width:0.1112323px;stroke-linecap:butt;stroke-linejoin:miter;stroke-opacity:1"
         id="path1737-3-5-5" />
    </g>
    <path
       id="path1154-9"
       d="m 33.712865,7.4258691 c 0.536813,0 1.07363,0.00933 1.620386,0.01865 8.111875,0.1398689 16.174044,1.3707167 23.450873,3.5806479 3.439594,8.615932 4.277395,18.944521 4.277395,29.036812 0,10.092292 -0.917329,20.877786 -4.506039,29.596289 -7.157536,2.014114 -14.851888,3.03982 -22.884234,3.03982 -0.487111,0 -0.974221,-0.0094 -1.461331,-0.01865 H 34.040918 C 25.909161,72.53957 17.846991,71.308722 10.580105,69.089467 7.1504515,60.492184 6.3123238,50.163289 6.3123238,40.061979 c 0,-10.101311 0.9176558,-20.868461 4.4864832,-29.586965 6.690308,-1.8742449 14.046665,-2.9186005 21.472608,-3.0398203 0.47717,-0.00933 0.964281,-0.00933 1.44145,-0.00933 m 0,-0.9324602 c -0.487111,0 -0.974221,0 -1.46133,0.00933 C 24.785826,6.6239532 17.270413,7.686958 10.510517,9.5798526 L 10.043289,9.710397 9.8643508,10.139328 c -3.6085914,8.811751 -4.5231655,19.514693 -4.5231655,29.922651 0,10.407958 0.8350459,20.672644 4.294522,29.353849 l 0.1689973,0.419608 0.4572874,0.13987 c 7.326533,2.237904 15.537818,3.496724 23.749103,3.636593 h 0.188879 c 0.47717,0.0094 0.96428,0.01865 1.461331,0.01865 8.111875,0 15.905636,-1.035031 23.172525,-3.077119 l 0.467228,-0.130544 0.178938,-0.428932 c 3.618533,-8.793101 4.543048,-19.496959 4.543048,-29.931975 0,-10.435016 -0.835047,-20.672644 -4.304463,-29.363174 l -0.168997,-0.419609 -0.457288,-0.13987 C 51.74588,7.9107484 43.534594,6.6519271 35.353133,6.512058 34.776554,6.502738 34.249678,6.493409 33.712865,6.493409 Z"
       style="fill:#000000;stroke:none;stroke-width:1.78642213;stroke-miterlimit:4;stroke-dasharray:none" />
    <path
       id="path1154-9-3"
       d="m 33.712865,7.4258686 c 0.536813,0 1.07363,0.00933 1.620386,0.01865 8.111875,0.1398689 16.174044,1.3707167 23.450873,3.5806484 3.439594,8.615932 4.277395,18.944521 4.277395,29.036812 0,10.092292 -0.917329,20.877786 -4.506039,29.596288 -7.157536,2.014114 -14.851888,3.03982 -22.884234,3.03982 -0.487111,0 -0.974221,-0.0094 -1.461331,-0.01865 H 34.040918 C 25.909161,72.539569 17.846991,71.308722 10.580105,69.089466 7.1504515,60.492184 6.3123238,50.163288 6.3123238,40.061979 c 0,-10.101312 0.9176558,-20.868461 4.4864832,-29.586965 6.690308,-1.8742454 14.046665,-2.918601 21.472608,-3.0398208 0.47717,-0.00933 0.964281,-0.00933 1.44145,-0.00933 m 0,-0.9324602 c -0.487111,0 -0.974221,0 -1.46133,0.00933 C 24.785826,6.6239527 17.270413,7.6869575 10.510517,9.5798521 L 10.043289,9.7103965 9.8643508,10.139328 C 6.2557594,18.951079 5.3411853,29.65402 5.3411853,40.061979 c 0,10.407958 0.8350459,20.672643 4.294522,29.353849 l 0.1689973,0.419608 0.4572874,0.13987 c 7.326533,2.237904 15.537818,3.496724 23.749103,3.636593 h 0.188879 c 0.47717,0.0094 0.96428,0.01865 1.461331,0.01865 8.111875,0 15.905636,-1.035032 23.172525,-3.077119 l 0.467228,-0.130544 0.178938,-0.428932 c 3.618533,-8.793101 4.543048,-19.49696 4.543048,-29.931975 0,-10.435016 -0.835047,-20.672644 -4.304463,-29.363175 l -0.168997,-0.419609 -0.457288,-0.13987 C 51.74588,7.9107479 43.534594,6.6519266 35.353133,6.5120575 34.776554,6.5027375 34.249678,6.4934085 33.712865,6.4934085 Z"
       style="fill:#000000;stroke:none;stroke-width:1.78642213;stroke-miterlimit:4;stroke-dasharray:none" />
  </g>
</svg>
