<svg id="Capa_2" xmlns="http://www.w3.org/2000/svg" xmlns:xlink="http://www.w3.org/1999/xlink" viewBox="0 0 69.02 80">
<defs >
<style >
.cls-1{fill:#c89aed;}.cls-2{fill:#fff;}.cls-3{fill:#f8ffbf;}.cls-4{fill:#7b7be8;}.cls-5{fill:#a88347;}.cls-6{fill:#782ab5;}.cls-7,.cls-8{stroke:#000;stroke-miterlimit:10;}.cls-7,.cls-8,.cls-9,.cls-10,.cls-11{fill:none;}.cls-8,.cls-9{stroke-linecap:round;}.cls-9{stroke:#deb778;stroke-dasharray:0 0 0 4.06;stroke-linejoin:round;}.cls-12{fill:#deb778;}.cls-13{fill:url(#USGS_19_Inundación_de_tierra_2);}.cls-11{stroke:#1d1d1b;stroke-dasharray:0 0 2 2;stroke-width:.3px;}.cls-14{fill:#fcf0c5;}.cls-15{fill:#b83521;}
</style>
<pattern id="USGS_19_Inundación_de_tierra_2" x="0" y="0" width="72" height="72" patternTransform="translate(339.52 -16135) rotate(-90)" patternUnits="userSpaceOnUse" viewBox="0 0 72 72">
<g >
<rect class="cls-10" width="72" height="72">
</rect>
<g >
<line class="cls-11" x1="71" y1="71" x2="144.44" y2="71">
</line>
<line class="cls-11" x1="71" y1="67" x2="144.44" y2="67">
</line>
<line class="cls-11" x1="71" y1="63" x2="144.44" y2="63">
</line>
<line class="cls-11" x1="71" y1="59" x2="144.44" y2="59">
</line>
<line class="cls-11" x1="71" y1="55" x2="144.44" y2="55">
</line>
<line class="cls-11" x1="71" y1="51" x2="144.44" y2="51">
</line>
<line class="cls-11" x1="71" y1="47" x2="144.44" y2="47">
</line>
<line class="cls-11" x1="71" y1="43" x2="144.44" y2="43">
</line>
<line class="cls-11" x1="71" y1="39" x2="144.44" y2="39">
</line>
<line class="cls-11" x1="71" y1="35" x2="144.44" y2="35">
</line>
<line class="cls-11" x1="71" y1="31" x2="144.44" y2="31">
</line>
<line class="cls-11" x1="71" y1="27" x2="144.44" y2="27">
</line>
<line class="cls-11" x1="71" y1="23" x2="144.44" y2="23">
</line>
<line class="cls-11" x1="71" y1="19" x2="144.44" y2="19">
</line>
<line class="cls-11" x1="71" y1="15" x2="144.44" y2="15">
</line>
<line class="cls-11" x1="71" y1="11" x2="144.44" y2="11">
</line>
<line class="cls-11" x1="71" y1="7" x2="144.44" y2="7">
</line>
<line class="cls-11" x1="71" y1="3" x2="144.44" y2="3">
</line>
</g>
<g >
<line class="cls-11" x1="-1" y1="71" x2="72.44" y2="71">
</line>
<line class="cls-11" x1="-1" y1="67" x2="72.44" y2="67">
</line>
<line class="cls-11" x1="-1" y1="63" x2="72.44" y2="63">
</line>
<line class="cls-11" x1="-1" y1="59" x2="72.44" y2="59">
</line>
<line class="cls-11" x1="-1" y1="55" x2="72.44" y2="55">
</line>
<line class="cls-11" x1="-1" y1="51" x2="72.44" y2="51">
</line>
<line class="cls-11" x1="-1" y1="47" x2="72.44" y2="47">
</line>
<line class="cls-11" x1="-1" y1="43" x2="72.44" y2="43">
</line>
<line class="cls-11" x1="-1" y1="39" x2="72.44" y2="39">
</line>
<line class="cls-11" x1="-1" y1="35" x2="72.44" y2="35">
</line>
<line class="cls-11" x1="-1" y1="31" x2="72.44" y2="31">
</line>
<line class="cls-11" x1="-1" y1="27" x2="72.44" y2="27">
</line>
<line class="cls-11" x1="-1" y1="23" x2="72.44" y2="23">
</line>
<line class="cls-11" x1="-1" y1="19" x2="72.44" y2="19">
</line>
<line class="cls-11" x1="-1" y1="15" x2="72.44" y2="15">
</line>
<line class="cls-11" x1="-1" y1="11" x2="72.44" y2="11">
</line>
<line class="cls-11" x1="-1" y1="7" x2="72.44" y2="7">
</line>
<line class="cls-11" x1="-1" y1="3" x2="72.44" y2="3">
</line>
<line class="cls-11" x1="1.04" y1="69" x2="74.48" y2="69">
</line>
<line class="cls-11" x1="1.04" y1="65" x2="74.48" y2="65">
</line>
<line class="cls-11" x1="1.04" y1="61" x2="74.48" y2="61">
</line>
<line class="cls-11" x1="1.04" y1="57" x2="74.48" y2="57">
</line>
<line class="cls-11" x1="1.04" y1="53" x2="74.48" y2="53">
</line>
<line class="cls-11" x1="1.04" y1="49" x2="74.48" y2="49">
</line>
<line class="cls-11" x1="1.04" y1="45" x2="74.48" y2="45">
</line>
<line class="cls-11" x1="1.04" y1="41" x2="74.48" y2="41">
</line>
<line class="cls-11" x1="1.04" y1="37" x2="74.48" y2="37">
</line>
<line class="cls-11" x1="1.04" y1="33" x2="74.48" y2="33">
</line>
<line class="cls-11" x1="1.04" y1="29" x2="74.48" y2="29">
</line>
<line class="cls-11" x1="1.04" y1="25" x2="74.48" y2="25">
</line>
<line class="cls-11" x1="1.04" y1="21" x2="74.48" y2="21">
</line>
<line class="cls-11" x1="1.04" y1="17" x2="74.48" y2="17">
</line>
<line class="cls-11" x1="1.04" y1="13" x2="74.48" y2="13">
</line>
<line class="cls-11" x1="1.04" y1="9" x2="74.48" y2="9">
</line>
<line class="cls-11" x1="1.04" y1="5" x2="74.48" y2="5">
</line>
<line class="cls-11" x1="1.04" y1="1" x2="74.48" y2="1">
</line>
</g>
<g >
<line class="cls-11" x1="-73" y1="71" x2=".44" y2="71">
</line>
<line class="cls-11" x1="-73" y1="67" x2=".44" y2="67">
</line>
<line class="cls-11" x1="-73" y1="63" x2=".44" y2="63">
</line>
<line class="cls-11" x1="-73" y1="59" x2=".44" y2="59">
</line>
<line class="cls-11" x1="-73" y1="55" x2=".44" y2="55">
</line>
<line class="cls-11" x1="-73" y1="51" x2=".44" y2="51">
</line>
<line class="cls-11" x1="-73" y1="47" x2=".44" y2="47">
</line>
<line class="cls-11" x1="-73" y1="43" x2=".44" y2="43">
</line>
<line class="cls-11" x1="-73" y1="39" x2=".44" y2="39">
</line>
<line class="cls-11" x1="-73" y1="35" x2=".44" y2="35">
</line>
<line class="cls-11" x1="-73" y1="31" x2=".44" y2="31">
</line>
<line class="cls-11" x1="-73" y1="27" x2=".44" y2="27">
</line>
<line class="cls-11" x1="-73" y1="23" x2=".44" y2="23">
</line>
<line class="cls-11" x1="-73" y1="19" x2=".44" y2="19">
</line>
<line class="cls-11" x1="-73" y1="15" x2=".44" y2="15">
</line>
<line class="cls-11" x1="-73" y1="11" x2=".44" y2="11">
</line>
<line class="cls-11" x1="-73" y1="7" x2=".44" y2="7">
</line>
<line class="cls-11" x1="-73" y1="3" x2=".44" y2="3">
</line>
<line class="cls-11" x1="-70.96" y1="69" x2="2.48" y2="69">
</line>
<line class="cls-11" x1="-70.96" y1="65" x2="2.48" y2="65">
</line>
<line class="cls-11" x1="-70.96" y1="61" x2="2.48" y2="61">
</line>
<line class="cls-11" x1="-70.96" y1="57" x2="2.48" y2="57">
</line>
<line class="cls-11" x1="-70.96" y1="53" x2="2.48" y2="53">
</line>
<line class="cls-11" x1="-70.96" y1="49" x2="2.48" y2="49">
</line>
<line class="cls-11" x1="-70.96" y1="45" x2="2.48" y2="45">
</line>
<line class="cls-11" x1="-70.96" y1="41" x2="2.48" y2="41">
</line>
<line class="cls-11" x1="-70.96" y1="37" x2="2.48" y2="37">
</line>
<line class="cls-11" x1="-70.96" y1="33" x2="2.48" y2="33">
</line>
<line class="cls-11" x1="-70.96" y1="29" x2="2.48" y2="29">
</line>
<line class="cls-11" x1="-70.96" y1="25" x2="2.48" y2="25">
</line>
<line class="cls-11" x1="-70.96" y1="21" x2="2.48" y2="21">
</line>
<line class="cls-11" x1="-70.96" y1="17" x2="2.48" y2="17">
</line>
<line class="cls-11" x1="-70.96" y1="13" x2="2.48" y2="13">
</line>
<line class="cls-11" x1="-70.96" y1="9" x2="2.48" y2="9">
</line>
<line class="cls-11" x1="-70.96" y1="5" x2="2.48" y2="5">
</line>
<line class="cls-11" x1="-70.96" y1="1" x2="2.48" y2="1">
</line>
</g>
</g>
</pattern>
</defs>

<g id="Characters">
<g >
<path class="cls-4" d="M28.47,23.25s-6.09,4.78-7.05,13.83c-.43,6.52,.52,11.31,3.13,14.35l1.91,2s1.04,5.22,.09,7.39-3.22,3.48-7.57,4.61-10.53,3.91-10.53,3.91l1.04,5.05,24.36,2.87,25.31-3.74-.96-5.31s-7.83-2.78-11.22-3.65c-4-1.39-4.78-3.22-4.87-5.22s0-6.26,0-6.26c0,0,4-3.57,4.87-5.74s3.04-11.83-.52-19.05c-3.74-7.13-13.22-8.96-18.01-5.05Z">
</path>
<path class="cls-1" d="M34.17,26.09v30.51s4.05,.21,8.64-3.94c5.36-5.14,7.11-10.93,7.11-16.4s-9.08-14.98-15.75-10.17Z">
</path>
<path d="M22.74,48.46s-13.43,.1-13.43-7.77,5.45-19.89,14.94-24.94c9.19-4.85,19.49-1.72,23.12,1.51s11.61,12.72,12.32,20.7c.61,7.98-6.56,11.11-13.73,10.5-2.32-.4-3.43-1.51-3.43-1.51,0,0,4.14-1.31,4.95-6.16s-1.11-9.29-2.52-12.12c-1.31,2.73-1.92,3.84-1.92,3.84,0,0-2.63-10.1-8.58-8.38-2.52-.81-6.16,.3-8.89,8.38-1.01-2.32-1.62-3.13-1.62-3.13,0,0-2.63,5.35-2.63,9.59s3.33,6.66,5.55,7.77c-1.62,1.41-4.14,1.72-4.14,1.72Z">
</path>
<path class="cls-15" d="M39.75,25.47s5.13,1.37,4.1-1.94c1.94,1.71,1.71,3.65,.46,5.13-.46-1.14-2.51-1.6-3.19-1.25-.68-1.25-1.37-1.94-1.37-1.94Z">
</path>
<path class="cls-15" d="M46.66,31.19s8.55-.46,7.52-4.45c4.79,3.42,4.79,11.29,4.56,13.34-1.48-3.88-7.98-5.02-10.49-3.42-.11-2.62-1.6-5.47-1.6-5.47Z">
</path>
<path class="cls-15" d="M21.93,32.52s-8.96,.63-8.75-4.06c-3.02,4.69-2.92,8.33-2.92,8.33,0,0,5.94-4.27,10.52,.52,.1-3.13,1.15-4.79,1.15-4.79Z">
</path>
<path class="cls-15" d="M24.84,30.23s-1.56-3.96-1.15-6.35c1.25,1.98,4.58,1.77,6.15,.94-3.13,3.23-2.6,3.96-2.6,3.96,0,0-1.46,0-2.4,1.46Z">
</path>
<path class="cls-3" d="M22.56,37.65s3.8-1.83,7.41,.7c-1.67,4.23-6.91,4.34-7.41-.7Z">
</path>
<path class="cls-3" d="M45.81,37.65s-3.8-1.83-7.41,.7c1.67,4.23,6.91,4.34,7.41-.7Z">
</path>
<path class="cls-2" d="M30.9,50.05s2.29-1.07,3.56-.81,2.54,1.02,2.54,1.02c0,0-1.22,1.63-3.15,1.58s-2.95-1.78-2.95-1.78Z">
</path>
<path d="M42.04,53.45s-3.99,3.41-7.79,3.15c-3.93-.26-7.21-3.28-7.21-3.28l-.45,7.21s-.71,2.83-3.93,3.86-13.71,4.57-13.71,4.57l.19,2.06,13.58,3.73,19.11-18.53,.19-2.77Z">
</path>
<path class="cls-1" d="M24.31,42.78s2.69,1.35,5.86-1.51c-1.9,4.67-4.67,3.72-5.86,1.51Z">
</path>
<path class="cls-1" d="M22.88,76.78s27.12,.81,36.08-4.56c-.41-1.55-.16-2.69-.16-2.69,0,0-3.18-2.93-8.8-4.24-6.11-1.55-8.39-3.99-7.98-7.33-.57,.41-19.14,18.81-19.14,18.81Z">
</path>
<path class="cls-4" d="M37.76,38.27l-.08-3.15s3.64-1.54,6.15-1.29c2.51,.32,2.91,.49,2.91,.49l-.93,3.35s-3.76-1.57-8.05,.62Z">
</path>
<path class="cls-1" d="M10.67,69.04c4.87-1.46,9.83-2.78,14.48-4.88,2.87-1.48,2.76-5.38,2.6-8.18,0,0,.07,0,.07,0,.52,2.66,.76,6.39-1.64,8.35-2.9,1.8-6.25,2.59-9.47,3.53-1.71,.35-4.41,1.2-6.04,1.19h0Z">
</path>
<path class="cls-4" d="M35.48,25.56c3.02,0,5.05,4.7,6.39,7.8,.17,.4,.34,.78,.49,1.12l1.04,2.31,.82-2.39c.23-.68,.46-1.33,.68-1.94,.78,2.12,1.53,5.04,1.07,7.68-.79,4.46-4,5.17-4.15,5.21l-1.26,.26-2.53,.52,2.22,1.32,1.11,.66h0c.2,.12,1.09,.61,2.5,1.05-.93,1.19-2.66,3.06-5.38,4.78-1.22,.77-2.63,1.18-4.1,1.18s-2.88-.41-4.11-1.18c-2.69-1.69-4.41-3.56-5.33-4.73,1.68-.5,2.68-1.1,2.68-1.1h0s1.1-.66,1.1-.66l2.2-1.32-2.51-.52-1.27-.26c-.14-.03-3.34-.75-4.13-5.2-.44-2.5,.12-5.06,.77-6.95,.14,.39,.27,.79,.4,1.19l.8,2.48,1.07-2.38c.15-.34,.31-.72,.49-1.12,1.34-3.11,3.36-7.81,6.39-7.81,.24,0,.5,.03,.76,.09,.16,.06,.32,.09,.49,.09,.08,0,.14,0,.2-.02h.35s.09-.1,.09-.1c.22-.04,.43-.07,.64-.07m0-1c-.37,0-.75,.05-1.15,.16,0,0,0,0,0,0,0,0,0,0-.01,0-.04,.01-.08,.02-.12,.02-.07,0-.12-.01-.18-.04-.37-.09-.73-.14-1.07-.14-4.13,0-6.36,6.32-7.79,9.52-.39-1.21-.84-2.42-1.3-3.62-.84,1.71-2.53,5.8-1.81,9.86,.91,5.12,4.76,5.98,4.92,6.01l1.26,.26-1.1,.66s-1.51,.88-3.83,1.34c.41,.68,2.38,3.62,6.46,6.19,1.41,.89,3.02,1.34,4.64,1.34s3.23-.45,4.63-1.34c4.19-2.65,6.14-5.65,6.49-6.22-2.21-.48-3.61-1.29-3.64-1.31l-1.11-.66,1.26-.26c.17-.03,4.02-.89,4.93-6.01,.71-4.06-1.17-8.6-2.11-10.54-.56,1.42-1.08,2.87-1.57,4.3-1.43-3.19-3.67-9.52-7.79-9.52h0Z">
</path>
<path class="cls-2" d="M40.93,62.05l-7.09,6.69s6.12-1.93,9.51-3.87c-1.45-1.29-2.42-2.82-2.42-2.82Z">
</path>
<path class="cls-2" d="M37.46,40.46s1.98,3.22,5.69,2.15c-3.88,2.89-5.69-.08-5.69-2.15Z">
</path>
<path d="M34.03,24.7c-4.83-1.22-7.32,5.91-8.87,9.38-.75-2.35-1.73-4.66-2.61-6.94-.4-2.89,2.44-4.84,4.69-5.88-1.7,1.39-4.1,3.29-3.75,5.65,.78,1.75,1.59,3.58,2.25,5.39,0,0-1.06-.02-1.06-.02,1.37-3.11,2.81-6.7,6.03-8.36,1.16-.5,2.45-.6,3.69-.15,.26,.09,.39,.38,.3,.64-.1,.27-.41,.39-.67,.29h0Z">
</path>
<path d="M34.03,23.78c5.28-1.66,8.07,4.62,9.72,8.51,0,0-1.06,.02-1.06,.02,.65-1.82,1.47-3.64,2.25-5.39,.28-1.23-.48-2.38-1.3-3.4-.71-.83-1.55-1.56-2.45-2.25,1.04,.45,2.02,1.05,2.88,1.83,1.31,1.08,2.52,3.19,1.49,4.92-.87,1.95-1.59,4.04-2.29,6.07-1.56-3.48-4.07-10.67-8.93-9.36-.6,.18-.9-.73-.31-.95h0Z">
</path>
<path class="cls-8" d="M23.87,29.37s-3.29,5.49-2.31,11.04c.98,5.55,5.32,6.41,5.32,6.41,0,0-6.76,4.05-14.22-.81s0-20.23,6.24-26.35,12.54-5.95,15.6-5.95">
</path>
<path class="cls-8" d="M44.79,28.56s3.64,6.3,2.66,11.85-5.32,6.41-5.32,6.41c0,0,6.76,4.05,14.22-.81s0-20.23-6.24-26.35c-6.24-6.13-12.54-5.95-15.6-5.95">
</path>
<path class="cls-8" d="M46.02,48.69s-1.93,3.48-6.72,6.51c-2.99,1.89-6.81,1.89-9.8,0-4.8-3.03-6.73-6.51-6.73-6.51">
</path>
<path d="M31.01,35.18c-2.99-.88-5.89-1.33-8.98-.87,2.66-1.27,7.01-1.83,8.98,.87h0Z">
</path>
<path d="M37.71,35.18c.92-1.46,2.75-1.82,4.34-1.9,1.61-.04,3.21,.32,4.64,1.03-.4-.02-.79-.06-1.17-.1-2.61-.32-5.31,.26-7.81,.97h0Z">
</path>
<path class="cls-8" d="M26.77,53.19v5.8c0,2.4-1.59,4.51-3.89,5.16-3.72,1.05-9.45,2.85-14.2,5.09">
</path>
<path class="cls-8" d="M42.12,53.19v5.8c0,2.4,1.59,4.51,3.89,5.16,3.72,1.05,9.45,2.85,14.2,5.09">
</path>
<path d="M29.85,50.56c2.13-3.58,6.44-3.53,8.6,0-1.48-.25-2.96-.89-4.32-.97-1.35,.03-2.83,.69-4.28,.97h0Z">
</path>
<path d="M31.46,49.8s1.21,1.24,2.7,1.24,2.78-1.27,2.78-1.27l1.13,.66s-1.16,2.48-3.99,2.48-3.8-2.64-3.8-2.64l1.18-.47Z">
</path>
<path d="M36.67,43.24c1.42,1.41-1,2.94-2.36,2.83-1.33,.15-3.78-1.15-2.66-2.68-.12,.74,.38,1.14,.89,1.37,1.2,.56,4.61,.5,4.12-1.53h0Z">
</path>
<path d="M22.83,37.55c2.42-1.48,5.71-1.29,7.86,.6,0,0-.16,.35-.16,.35-.97,2.61-3.95,4.93-6.43,2.58-.64-.63-1.07-1.4-1.32-2.21,1.22,2.1,3.81,3.4,5.61,1.22,.5-.58,.89-1.27,1.25-1.98l.14,.58c-1.93-1.6-4.56-1.8-6.95-1.14h0Z">
</path>
<path d="M45.59,37.55c-2.39-.66-5.02-.47-6.95,1.14,0,0,.14-.58,.14-.58,.36,.71,.74,1.41,1.25,1.99,1.8,2.18,4.39,.88,5.61-1.22-.25,.81-.69,1.58-1.32,2.21-2.47,2.35-5.46,.03-6.43-2.58,0,0-.16-.35-.16-.35,2.15-1.89,5.44-2.08,7.86-.6h0Z">
</path>
<path d="M19.73,65.26s-1.05,4.41,.14,8.6c-2.24-.21-2.87-.35-2.87-.35,0,0-.56-4.55,.63-7.69,1.47-.49,2.1-.56,2.1-.56Z">
</path>
<path d="M49.24,65.26s1.05,4.41-.14,8.6c2.24-.21,2.87-.35,2.87-.35,0,0,.56-4.55-.63-7.69-1.47-.49-2.1-.56-2.1-.56Z">
</path>
<path d="M46.14,67.54c-3.13,1.48-6.36,2.68-9.77,3.37,0,0,.37-.3,.37-.3-.35,1.01-1.4,1.62-2.41,1.73-1.01-.11-2.07-.72-2.42-1.73,0,0,.37,.3,.37,.3-3.4-.69-6.64-1.9-9.76-3.37,0,0,4.96,1.34,4.96,1.34,1.75,.44,3.48,.86,5.24,1.14,.2,.76,.83,1.24,1.69,1.33,0,0-.14,0-.14,0,.85-.1,1.48-.58,1.68-1.33,3.03-.46,7.2-1.67,10.2-2.47h0Z">
</path>
</g>
</g>
 <g
     id="g2850">
    <g
       id="g2837">
      <path
         id="path1951"
         d="M 0.056640625 0.04296875 L 0.056640625 79.943359 L 69.308594 79.943359 L 69.308594 0.04296875 L 0.056640625 0.04296875 z M 33.615234 3.5957031 C 34.206332 3.5957038 34.786991 3.6051034 35.421875 3.6152344 C 44.430653 3.7671809 53.471255 5.1336733 61.560547 7.5546875 L 62.064453 7.7070312 L 62.25 8.1640625 C 66.070247 17.605006 66.990234 28.726438 66.990234 40.0625 C 66.990234 51.398562 65.972723 63.025755 61.988281 72.578125 L 61.791016 73.044922 L 61.275391 73.185547 C 53.273669 75.403966 44.691921 76.529297 35.759766 76.529297 C 35.212453 76.529297 34.675812 76.519896 34.150391 76.509766 L 33.943359 76.509766 C 24.901742 76.357819 15.860367 74.989738 7.7929688 72.558594 L 7.2890625 72.40625 L 7.1035156 71.951172 C 3.2942144 62.520359 2.375 51.369168 2.375 40.0625 C 2.375 28.755832 3.3819737 17.127318 7.3554688 7.5546875 L 7.5527344 7.0898438 L 8.0664062 6.9472656 C 15.509867 4.890923 23.785212 3.7371557 32.005859 3.6054688 C 32.542226 3.5953387 33.078867 3.5957031 33.615234 3.5957031 z "
         style="opacity:1;vector-effect:none;fill:#ffffff;fill-opacity:1;fill-rule:nonzero;stroke:none;stroke-width:1.95200002;stroke-linecap:butt;stroke-linejoin:miter;stroke-miterlimit:4;stroke-dasharray:none;stroke-dashoffset:0;stroke-opacity:1" />
    </g>
    <path
       id="path1154-8-2"
       d="m 33.675163,6.6112954 c 0.557696,0 1.115392,0.00956 1.683415,0.019115 8.427403,0.14336 16.803167,1.4049288 24.363042,3.6700176 3.573384,8.830981 4.443772,19.417362 4.443772,29.761551 0,10.344189 -0.95301,21.39888 -4.68131,30.334991 -7.435942,2.064385 -15.429581,3.274388 -23.774362,3.274388 -0.506058,0 -1.012115,-0.0096 -1.518172,-0.01911 h -0.17557 C 25.56792,73.508883 17.192156,72.088619 9.6426089,69.813973 6.0795528,61.002107 5.2088244,50.415411 5.2088244,40.061979 c 0,-10.353432 0.95335,-21.389323 4.6609939,-30.325434 C 16.820359,7.8155201 24.462856,6.7450981 32.177647,6.6208528 c 0.49573,-0.00956 1.001787,-0.00956 1.497516,-0.00956 m 0,-0.9557337 c -0.506057,0 -1.012114,0 -1.518171,0.00956 C 24.40089,5.7893644 16.593149,6.8789009 9.570315,8.8190405 L 9.0849131,8.9528432 8.8990146,9.3924808 C 5.1500599,18.424166 4.1999116,29.394246 4.1999116,40.061979 c 0,10.667733 0.8675267,21.188618 4.461566,30.0865 l 0.1755708,0.430081 0.4750741,0.14336 c 7.6115135,2.293761 16.1421925,3.584001 24.6728715,3.727361 h 0.196227 c 0.495729,0.0096 1.001786,0.01911 1.518171,0.01911 8.427403,0 16.524318,-1.060864 24.073866,-3.153921 l 0.485403,-0.133802 0.185898,-0.439639 c 3.759282,-9.01257 4.719759,-19.983589 4.719759,-30.679055 0,-10.695466 -0.867528,-21.188618 -4.471894,-30.0960578 L 60.516853,9.5358409 60.041779,9.3924808 C 52.409609,7.108277 43.87893,5.8180364 35.379234,5.6746763 34.780227,5.6651187 34.232859,5.6555621 33.675163,5.6555615 Z"
       style="fill:#ff0000;stroke:#ffffff;stroke-width:1.84341729;stroke-miterlimit:4;stroke-dasharray:none" />
    <path
       id="path1154"
       d="m 33.614853,4.6077955 c 0.591098,0 1.182197,0.01013 1.784241,0.02026 8.932155,0.1519464 17.809578,1.4890758 25.822246,3.8898304 3.787408,9.3599041 4.709928,20.5803481 4.709928,31.5440931 0,10.963745 -1.01009,22.680548 -4.961693,32.151879 -7.881312,2.18803 -16.353723,3.302304 -25.198307,3.302304 -0.536368,0 -1.072735,-0.01013 -1.609102,-0.02026 H 33.97608 C 25.022033,75.343956 16.14461,74.006827 8.1428892,71.595943 4.3664269,62.256298 3.443547,51.035521 3.443547,40.061979 c 0,-10.973542 1.01045,-22.670418 4.9401601,-32.1417498 7.3668369,-2.036083 15.4670749,-3.170617 23.6439369,-3.3023039 0.525421,-0.01013 1.061788,-0.01013 1.587209,-0.01013 m 0,-1.0129766 c -0.536367,0 -1.072734,0 -1.609101,0.01013 C 23.785105,3.7366356 15.509726,4.891429 8.0662653,6.9477716 L 7.5517907,7.0895883 7.3547579,7.5555576 C 3.3812628,17.128188 2.3742062,28.755311 2.3742062,40.061979 c 0,11.306668 0.9194864,22.457692 4.7287876,31.888505 l 0.1860865,0.45584 0.5035283,0.151947 c 8.0673984,2.431144 17.1090154,3.798662 26.1506324,3.950608 h 0.207979 c 0.525421,0.01013 1.061788,0.02026 1.609101,0.02026 8.932155,0 17.514028,-1.124404 25.51575,-3.342823 l 0.514475,-0.141816 0.197032,-0.46597 c 3.984442,-9.55237 5.002445,-21.180489 5.002445,-32.516551 0,-11.336062 -0.919487,-22.457692 -4.739734,-31.8986353 L 62.064202,7.7075041 61.560674,7.5555576 C 53.471382,5.1345434 44.429765,3.7670249 35.420987,3.6150784 c -0.634884,-0.01013 -1.215036,-0.020259 -1.806134,-0.02026 z"
       style="fill:#000000;stroke:#000000;stroke-width:1.95382714;stroke-miterlimit:4;stroke-dasharray:none" />
    <g
       id="g1810">
      <path
         d="M 6.5134911,7.7433673 C 5.6489029,6.8479453 4.058602,6.5681013 3.6272194,7.3820013 3.284151,8.0292783 3.3625296,8.5309135 4.395235,8.9201755 3.2963719,9.5187755 1.4857674,9.4447465 1.1893447,7.4467713 0.95320848,5.8551433 2.674739,4.8863543 3.1399725,5.0916244 3.0034432,3.6818714 1.8221094,4.0692802 0.95849208,3.2813384 0.34259068,2.7194046 0.23126071,-0.02624603 0.0561761,0.04378767 -0.0138576,0.21887227 2.7317937,0.33020157 3.2937267,0.94610377 4.0816685,1.8097211 3.6942598,2.9910547 5.1040128,3.1275841 4.8987425,2.6623507 5.8675315,0.94082017 7.4591593,1.1769564 9.4571345,1.4733791 9.5311625,3.2839847 8.9325635,4.3828467 8.5433008,3.3501417 8.041666,3.2717627 7.3943894,3.6148312 6.5804899,4.0462137 6.8603354,5.6365129 7.7557553,6.5011023"
         style="fill:#000000;stroke:#000000;stroke-width:0.1112323px;stroke-linecap:butt;stroke-linejoin:miter;stroke-opacity:1"
         id="path1737-3" />
      <path
         d="m 62.850738,7.7433673 c 0.864588,-0.895422 2.454889,-1.175266 2.886271,-0.361366 0.343069,0.647277 0.26469,1.148912 -0.768015,1.538174 1.098863,0.5986 2.909467,0.524571 3.20589,-1.473404 0.236136,-1.591628 -1.485394,-2.560417 -1.950628,-2.3551469 0.13653,-1.409753 1.317863,-1.0223442 2.181481,-1.810286 0.615901,-0.5619338 0.727231,-3.30758442 0.902316,-3.23755072 0.07003,0.1750846 -2.675618,0.2864139 -3.237551,0.9023161 C 65.28256,1.8097211 65.669969,2.9910547 64.260216,3.1275841 64.465486,2.6623507 63.496697,0.94082018 61.905069,1.1769564 c -1.997975,0.2964227 -2.072003,2.1070283 -1.473404,3.2058903 0.389263,-1.032705 0.890898,-1.111084 1.538174,-0.7680155 0.8139,0.4313825 0.534054,2.0216817 -0.361366,2.8862711"
         style="fill:#000000;stroke:#000000;stroke-width:0.1112323px;stroke-linecap:butt;stroke-linejoin:miter;stroke-opacity:1"
         id="path1737-3-5" />
      <path
         d="m 62.850738,72.244244 c 0.864588,0.895422 2.454889,1.175266 2.886272,0.361366 0.343068,-0.647277 0.264689,-1.148912 -0.768016,-1.538174 1.098863,-0.5986 2.909468,-0.524571 3.20589,1.473404 0.236137,1.591628 -1.485394,2.560417 -1.950628,2.355147 0.13653,1.409753 1.317864,1.022344 2.181481,1.810286 0.615901,0.561934 0.727231,3.307584 0.902316,3.237551 0.07003,-0.175085 -2.675618,-0.286414 -3.237551,-0.902317 -0.787942,-0.863617 -0.400533,-2.04495 -1.810286,-2.18148 0.20527,0.465234 -0.763519,2.186764 -2.355146,1.950628 -1.997976,-0.296423 -2.072004,-2.107028 -1.473405,-3.20589 0.389263,1.032705 0.890898,1.111084 1.538175,0.768015 0.813899,-0.431382 0.534054,-2.021682 -0.361366,-2.886271"
         style="fill:#000000;stroke:#000000;stroke-width:0.1112323px;stroke-linecap:butt;stroke-linejoin:miter;stroke-opacity:1"
         id="path1737-3-7" />
      <path
         d="M 6.513491,72.244245 C 5.648903,73.139667 4.058602,73.419511 3.62722,72.605611 3.284151,71.958334 3.36253,71.456699 4.395235,71.067437 c -1.098863,-0.5986 -2.909467,-0.524571 -3.20589,1.473404 -0.23613599,1.591628 1.485394,2.560417 1.950628,2.355147 -0.13653,1.409753 -1.317863,1.022344 -2.18148099,1.810286 -0.615901,0.561933 -0.727231,3.307584 -0.902316,3.23755 C -0.01385399,79.76874 2.731794,79.65741 3.293727,79.041508 4.081669,78.177891 3.69426,76.996557 5.104013,76.860028 4.898743,77.325261 5.867532,79.046792 7.45916,78.810656 9.457135,78.514233 9.531163,76.703627 8.932564,75.604765 8.543301,76.63747 8.041666,76.715849 7.39439,76.372781 6.58049,75.941398 6.860336,74.351099 7.755756,73.48651"
         style="fill:#000000;stroke:#000000;stroke-width:0.1112323px;stroke-linecap:butt;stroke-linejoin:miter;stroke-opacity:1"
         id="path1737-3-5-5" />
    </g>
    <path
       id="path1154-9"
       d="m 33.712865,7.4258691 c 0.536813,0 1.07363,0.00933 1.620386,0.01865 8.111875,0.1398689 16.174044,1.3707167 23.450873,3.5806479 3.439594,8.615932 4.277395,18.944521 4.277395,29.036812 0,10.092292 -0.917329,20.877786 -4.506039,29.596289 -7.157536,2.014114 -14.851888,3.03982 -22.884234,3.03982 -0.487111,0 -0.974221,-0.0094 -1.461331,-0.01865 H 34.040918 C 25.909161,72.53957 17.846991,71.308722 10.580105,69.089467 7.1504515,60.492184 6.3123238,50.163289 6.3123238,40.061979 c 0,-10.101311 0.9176558,-20.868461 4.4864832,-29.586965 6.690308,-1.8742449 14.046665,-2.9186005 21.472608,-3.0398203 0.47717,-0.00933 0.964281,-0.00933 1.44145,-0.00933 m 0,-0.9324602 c -0.487111,0 -0.974221,0 -1.46133,0.00933 C 24.785826,6.6239532 17.270413,7.686958 10.510517,9.5798526 L 10.043289,9.710397 9.8643508,10.139328 c -3.6085914,8.811751 -4.5231655,19.514693 -4.5231655,29.922651 0,10.407958 0.8350459,20.672644 4.294522,29.353849 l 0.1689973,0.419608 0.4572874,0.13987 c 7.326533,2.237904 15.537818,3.496724 23.749103,3.636593 h 0.188879 c 0.47717,0.0094 0.96428,0.01865 1.461331,0.01865 8.111875,0 15.905636,-1.035031 23.172525,-3.077119 l 0.467228,-0.130544 0.178938,-0.428932 c 3.618533,-8.793101 4.543048,-19.496959 4.543048,-29.931975 0,-10.435016 -0.835047,-20.672644 -4.304463,-29.363174 l -0.168997,-0.419609 -0.457288,-0.13987 C 51.74588,7.9107484 43.534594,6.6519271 35.353133,6.512058 34.776554,6.502738 34.249678,6.493409 33.712865,6.493409 Z"
       style="fill:#000000;stroke:none;stroke-width:1.78642213;stroke-miterlimit:4;stroke-dasharray:none" />
    <path
       id="path1154-9-3"
       d="m 33.712865,7.4258686 c 0.536813,0 1.07363,0.00933 1.620386,0.01865 8.111875,0.1398689 16.174044,1.3707167 23.450873,3.5806484 3.439594,8.615932 4.277395,18.944521 4.277395,29.036812 0,10.092292 -0.917329,20.877786 -4.506039,29.596288 -7.157536,2.014114 -14.851888,3.03982 -22.884234,3.03982 -0.487111,0 -0.974221,-0.0094 -1.461331,-0.01865 H 34.040918 C 25.909161,72.539569 17.846991,71.308722 10.580105,69.089466 7.1504515,60.492184 6.3123238,50.163288 6.3123238,40.061979 c 0,-10.101312 0.9176558,-20.868461 4.4864832,-29.586965 6.690308,-1.8742454 14.046665,-2.918601 21.472608,-3.0398208 0.47717,-0.00933 0.964281,-0.00933 1.44145,-0.00933 m 0,-0.9324602 c -0.487111,0 -0.974221,0 -1.46133,0.00933 C 24.785826,6.6239527 17.270413,7.6869575 10.510517,9.5798521 L 10.043289,9.7103965 9.8643508,10.139328 C 6.2557594,18.951079 5.3411853,29.65402 5.3411853,40.061979 c 0,10.407958 0.8350459,20.672643 4.294522,29.353849 l 0.1689973,0.419608 0.4572874,0.13987 c 7.326533,2.237904 15.537818,3.496724 23.749103,3.636593 h 0.188879 c 0.47717,0.0094 0.96428,0.01865 1.461331,0.01865 8.111875,0 15.905636,-1.035032 23.172525,-3.077119 l 0.467228,-0.130544 0.178938,-0.428932 c 3.618533,-8.793101 4.543048,-19.49696 4.543048,-29.931975 0,-10.435016 -0.835047,-20.672644 -4.304463,-29.363175 l -0.168997,-0.419609 -0.457288,-0.13987 C 51.74588,7.9107479 43.534594,6.6519266 35.353133,6.5120575 34.776554,6.5027375 34.249678,6.4934085 33.712865,6.4934085 Z"
       style="fill:#000000;stroke:none;stroke-width:1.78642213;stroke-miterlimit:4;stroke-dasharray:none" />
  </g>
</svg>
