<svg id="Capa_2" xmlns="http://www.w3.org/2000/svg" xmlns:xlink="http://www.w3.org/1999/xlink" viewBox="0 0 69.02 80">
<defs >
<style >
.cls-1{fill:#c89aed;}.cls-2{fill:#fff;}.cls-3{fill:#f8ffbf;}.cls-4{fill:#7b7be8;}.cls-5{fill:#a88347;}.cls-6{fill:#782ab5;}.cls-7,.cls-8,.cls-9,.cls-10,.cls-11{fill:none;}.cls-7,.cls-9{stroke:#000;stroke-miterlimit:10;}.cls-12{fill:#1c46ff;}.cls-8{stroke:#deb778;stroke-dasharray:0 0 0 4.06;stroke-linejoin:round;}.cls-8,.cls-9{stroke-linecap:round;}.cls-9{stroke-width:1.02px;}.cls-13{fill:#deb778;}.cls-14{fill:url(#USGS_19_Inundación_de_tierra_2);}.cls-11{stroke:#1d1d1b;stroke-dasharray:0 0 2 2;stroke-width:.3px;}.cls-15{fill:#fcf0c5;}
</style>
<pattern id="USGS_19_Inundación_de_tierra_2" x="0" y="0" width="72" height="72" patternTransform="translate(123.52 -16135) rotate(-90)" patternUnits="userSpaceOnUse" viewBox="0 0 72 72">
<g >
<rect class="cls-10" width="72" height="72">
</rect>
<g >
<line class="cls-11" x1="71" y1="71" x2="144.44" y2="71">
</line>
<line class="cls-11" x1="71" y1="67" x2="144.44" y2="67">
</line>
<line class="cls-11" x1="71" y1="63" x2="144.44" y2="63">
</line>
<line class="cls-11" x1="71" y1="59" x2="144.44" y2="59">
</line>
<line class="cls-11" x1="71" y1="55" x2="144.44" y2="55">
</line>
<line class="cls-11" x1="71" y1="51" x2="144.44" y2="51">
</line>
<line class="cls-11" x1="71" y1="47" x2="144.44" y2="47">
</line>
<line class="cls-11" x1="71" y1="43" x2="144.44" y2="43">
</line>
<line class="cls-11" x1="71" y1="39" x2="144.44" y2="39">
</line>
<line class="cls-11" x1="71" y1="35" x2="144.44" y2="35">
</line>
<line class="cls-11" x1="71" y1="31" x2="144.44" y2="31">
</line>
<line class="cls-11" x1="71" y1="27" x2="144.44" y2="27">
</line>
<line class="cls-11" x1="71" y1="23" x2="144.44" y2="23">
</line>
<line class="cls-11" x1="71" y1="19" x2="144.44" y2="19">
</line>
<line class="cls-11" x1="71" y1="15" x2="144.44" y2="15">
</line>
<line class="cls-11" x1="71" y1="11" x2="144.44" y2="11">
</line>
<line class="cls-11" x1="71" y1="7" x2="144.44" y2="7">
</line>
<line class="cls-11" x1="71" y1="3" x2="144.44" y2="3">
</line>
</g>
<g >
<line class="cls-11" x1="-1" y1="71" x2="72.44" y2="71">
</line>
<line class="cls-11" x1="-1" y1="67" x2="72.44" y2="67">
</line>
<line class="cls-11" x1="-1" y1="63" x2="72.44" y2="63">
</line>
<line class="cls-11" x1="-1" y1="59" x2="72.44" y2="59">
</line>
<line class="cls-11" x1="-1" y1="55" x2="72.44" y2="55">
</line>
<line class="cls-11" x1="-1" y1="51" x2="72.44" y2="51">
</line>
<line class="cls-11" x1="-1" y1="47" x2="72.44" y2="47">
</line>
<line class="cls-11" x1="-1" y1="43" x2="72.44" y2="43">
</line>
<line class="cls-11" x1="-1" y1="39" x2="72.44" y2="39">
</line>
<line class="cls-11" x1="-1" y1="35" x2="72.44" y2="35">
</line>
<line class="cls-11" x1="-1" y1="31" x2="72.44" y2="31">
</line>
<line class="cls-11" x1="-1" y1="27" x2="72.44" y2="27">
</line>
<line class="cls-11" x1="-1" y1="23" x2="72.44" y2="23">
</line>
<line class="cls-11" x1="-1" y1="19" x2="72.44" y2="19">
</line>
<line class="cls-11" x1="-1" y1="15" x2="72.44" y2="15">
</line>
<line class="cls-11" x1="-1" y1="11" x2="72.44" y2="11">
</line>
<line class="cls-11" x1="-1" y1="7" x2="72.44" y2="7">
</line>
<line class="cls-11" x1="-1" y1="3" x2="72.44" y2="3">
</line>
<line class="cls-11" x1="1.04" y1="69" x2="74.48" y2="69">
</line>
<line class="cls-11" x1="1.04" y1="65" x2="74.48" y2="65">
</line>
<line class="cls-11" x1="1.04" y1="61" x2="74.48" y2="61">
</line>
<line class="cls-11" x1="1.04" y1="57" x2="74.48" y2="57">
</line>
<line class="cls-11" x1="1.04" y1="53" x2="74.48" y2="53">
</line>
<line class="cls-11" x1="1.04" y1="49" x2="74.48" y2="49">
</line>
<line class="cls-11" x1="1.04" y1="45" x2="74.48" y2="45">
</line>
<line class="cls-11" x1="1.04" y1="41" x2="74.48" y2="41">
</line>
<line class="cls-11" x1="1.04" y1="37" x2="74.48" y2="37">
</line>
<line class="cls-11" x1="1.04" y1="33" x2="74.48" y2="33">
</line>
<line class="cls-11" x1="1.04" y1="29" x2="74.48" y2="29">
</line>
<line class="cls-11" x1="1.04" y1="25" x2="74.48" y2="25">
</line>
<line class="cls-11" x1="1.04" y1="21" x2="74.48" y2="21">
</line>
<line class="cls-11" x1="1.04" y1="17" x2="74.48" y2="17">
</line>
<line class="cls-11" x1="1.04" y1="13" x2="74.48" y2="13">
</line>
<line class="cls-11" x1="1.04" y1="9" x2="74.48" y2="9">
</line>
<line class="cls-11" x1="1.04" y1="5" x2="74.48" y2="5">
</line>
<line class="cls-11" x1="1.04" y1="1" x2="74.48" y2="1">
</line>
</g>
<g >
<line class="cls-11" x1="-73" y1="71" x2=".44" y2="71">
</line>
<line class="cls-11" x1="-73" y1="67" x2=".44" y2="67">
</line>
<line class="cls-11" x1="-73" y1="63" x2=".44" y2="63">
</line>
<line class="cls-11" x1="-73" y1="59" x2=".44" y2="59">
</line>
<line class="cls-11" x1="-73" y1="55" x2=".44" y2="55">
</line>
<line class="cls-11" x1="-73" y1="51" x2=".44" y2="51">
</line>
<line class="cls-11" x1="-73" y1="47" x2=".44" y2="47">
</line>
<line class="cls-11" x1="-73" y1="43" x2=".44" y2="43">
</line>
<line class="cls-11" x1="-73" y1="39" x2=".44" y2="39">
</line>
<line class="cls-11" x1="-73" y1="35" x2=".44" y2="35">
</line>
<line class="cls-11" x1="-73" y1="31" x2=".44" y2="31">
</line>
<line class="cls-11" x1="-73" y1="27" x2=".44" y2="27">
</line>
<line class="cls-11" x1="-73" y1="23" x2=".44" y2="23">
</line>
<line class="cls-11" x1="-73" y1="19" x2=".44" y2="19">
</line>
<line class="cls-11" x1="-73" y1="15" x2=".44" y2="15">
</line>
<line class="cls-11" x1="-73" y1="11" x2=".44" y2="11">
</line>
<line class="cls-11" x1="-73" y1="7" x2=".44" y2="7">
</line>
<line class="cls-11" x1="-73" y1="3" x2=".44" y2="3">
</line>
<line class="cls-11" x1="-70.96" y1="69" x2="2.48" y2="69">
</line>
<line class="cls-11" x1="-70.96" y1="65" x2="2.48" y2="65">
</line>
<line class="cls-11" x1="-70.96" y1="61" x2="2.48" y2="61">
</line>
<line class="cls-11" x1="-70.96" y1="57" x2="2.48" y2="57">
</line>
<line class="cls-11" x1="-70.96" y1="53" x2="2.48" y2="53">
</line>
<line class="cls-11" x1="-70.96" y1="49" x2="2.48" y2="49">
</line>
<line class="cls-11" x1="-70.96" y1="45" x2="2.48" y2="45">
</line>
<line class="cls-11" x1="-70.96" y1="41" x2="2.48" y2="41">
</line>
<line class="cls-11" x1="-70.96" y1="37" x2="2.48" y2="37">
</line>
<line class="cls-11" x1="-70.96" y1="33" x2="2.48" y2="33">
</line>
<line class="cls-11" x1="-70.96" y1="29" x2="2.48" y2="29">
</line>
<line class="cls-11" x1="-70.96" y1="25" x2="2.48" y2="25">
</line>
<line class="cls-11" x1="-70.96" y1="21" x2="2.48" y2="21">
</line>
<line class="cls-11" x1="-70.96" y1="17" x2="2.48" y2="17">
</line>
<line class="cls-11" x1="-70.96" y1="13" x2="2.48" y2="13">
</line>
<line class="cls-11" x1="-70.96" y1="9" x2="2.48" y2="9">
</line>
<line class="cls-11" x1="-70.96" y1="5" x2="2.48" y2="5">
</line>
<line class="cls-11" x1="-70.96" y1="1" x2="2.48" y2="1">
</line>
</g>
</g>
</pattern>
</defs>

  <path
     id="path7641-4"
     style="fill:#782ab5;fill-opacity:1;stroke:#4d4d4d;stroke-width:1.62226;stop-color:#000000"
     d="M 34.900259,1.6936052 C 14.323312,9.5265586 1.6299002,23.954051 1.5689773,39.580572 V 79.197446 H 67.963672 V 39.580572 C 67.958188,23.990066 55.374427,9.5708664 34.900259,1.6936052 Z"/>
  <path
     id="path7641-7"
     style="fill:#808080;stroke:#4d4d4d;stroke-width:1.48325;stop-color:#000000"
     d="M 34.629293,5.0425238 C 15.815619,12.204258 4.1542243,25.395327 4.1542243,39.682894 V 76.559207 H 64.859448 V 39.682894 c 0,-14.254531 -11.510452,-27.438125 -30.230155,-34.6403702 z m -0.01233,3.4358455 C 51.537073,14.988239 61.941622,26.904418 61.941622,39.788613 v 33.82806 H 7.07205 v -33.82806 c 0,-12.914055 10.539857,-24.836991 27.544909,-31.3102437 z"/>
  <path
     id="path7641-7-8"
     style="fill:#808080;stroke:#4d4d4d;stroke-width:1.35027;stop-color:#000000"
     d="M 34.618314,8.2461803 C 17.491429,14.76581 6.8755673,26.7742 6.8755673,39.780777 v 33.57007 H 62.138105 v -33.57007 c 0,-12.976504 -10.478452,-24.978088 -27.519791,-31.5345967 z m -0.01123,3.1277957 c 15.403093,5.926211 24.874795,16.774013 24.874795,28.503041 V 70.672134 H 9.5317874 V 39.877017 c 0,-11.75621 9.5948786,-22.610165 25.0752986,-28.503041 z"/>
  <path
     id="path7641-7-8-0"
     style="fill:#808080;stroke:#4d4d4d;stroke-width:1.21411;stop-color:#000000"
     d="M 34.607073,11.526302 C 19.207238,17.388502 9.6618637,28.185984 9.6618637,39.880997 V 70.06591 H 59.351809 V 39.880997 c 0,-11.667973 -9.421821,-22.459335 -24.744736,-28.354695 z m -0.0101,2.812393 c 13.849868,5.328621 22.366458,15.082547 22.366458,25.628837 V 67.657315 H 12.050234 V 39.967532 c 0,-10.570731 8.627346,-20.33019 22.546743,-25.628837 z"/>


<g id="Characters">
<g >
<path class="cls-1" d="M62.58,69.46l-1.74,5.43s-33.01,8.36-52.23-1.85c-.33-3.37,0-4.02,0-4.02l16.29-4.99,.67-5.89,.17-1.42,.03-.29h-.01c-.43-.16-11.78-4.47-14.65-16.29-2.94-12.06,3.14-21.61,10.1-26.07,6.95-4.45,15.2-6.95,24.43-2.49,11.48,1.73,10.64,15.66,8.71,22.52-.01,.02-.01,.04-.02,.06,.1,.41,.17,.82,.22,1.22,0,.02,.01,.03,0,.05,.31,2.87-.66,5.35-1.2,6.47-.02,.05-.04,.09-.05,.11-.17,.34-.28,.52-.28,.52v.18c.01,.94,.26,5.1,4.02,3.94-.22,3.91-6.51,8.8-13.14,9.34-.01,.34-.01,.68-.01,1,.06,4.6,1.21,7.25,1.21,7.25l17.48,5.22Z">
</path>
<path class="cls-2" d="M51.54,33.15s3.63,5.26,.18,10.52c4.72-6.71,2.45-11.7-.18-10.52Z">
</path>
<path class="cls-2" d="M35.49,58.5V25.92l8.46-6.13s2.25,8.46,7.06,12.57c-2.79,13.89-3.88,15.83-7.14,19.86s-6.98,6.67-6.98,6.67l-1.4-.39Z">
</path>
<path class="cls-4" d="M39.1,37.87l-2.19-4.5s3.49-2.42,6.46-2.08,5.34,1.69,5.34,1.69l-1.69,4.5s-2.3-2.64-4.44-2.36c-2.25,.51-3.49,2.75-3.49,2.75Z">
</path>
<path class="cls-4" d="M30.85,37.87l2.19-4.5s-3.49-2.42-6.46-2.08-5.34,1.69-5.34,1.69l1.69,4.5s2.3-2.64,4.44-2.36c2.25,.51,3.49,2.75,3.49,2.75Z">
</path>
<polygon class="cls-1" points="25.57 58.14 25.74 56.72 25.61 58.14 25.57 58.14">
</polygon>
<path d="M43.63,18.51c-2.11,6.71-8.64,7.63-9.29,7.54,2.91-2.29,4.38-4.75,4.5-4.96-.29,.18-4.9,3.15-8.91,4.13-4.14,1.01-8.64,3.86-11.68,7.36-3.03,0-3.22,3.03-3.03,5.51,.18,2.49,1.38,7.18,5.79,6.72,2.39,4.69,5.06,8.18,5.06,8.18l-.31,3.44c-.43-.16-11.78-4.47-14.65-16.29-2.94-12.06,3.14-21.61,10.1-26.07,6.95-4.45,15.2-6.95,24.43-2.49,11.48,1.73,10.64,15.66,8.71,22.52-.04-.15-.09-.28-.14-.42-2.3-2.39-3.22-.92-3.22-.92,0,0-6.35-5.88-7.36-14.25Z">
</path>
<path class="cls-1" d="M53.35,41.9c.26-.7,1.36-3.84,1.2-6.47,.31,2.87-.66,5.35-1.2,6.47Z">
</path>
<path d="M57.04,46.65c-.22,3.91-6.51,8.8-13.14,9.34-.01,.34-.01,.68-.01,1l-.35-3.54s3.03-5.06,4.5-8.46c3.22-.06,4.5-1.43,4.98-2.28,.01,.94,.26,5.1,4.02,3.94Z">
</path>
<path class="cls-12" d="M17.51,17.58s7.34-5.66,12.01-6.95c-5.06,6.25-.63,13.83,7.51,11.64-6.7,3.26-11.96,4.63-13.85,5.82,5.16-5.16,.09-12.21-5.67-10.52Z">
</path>
<path class="cls-12" d="M45.52,22.86s9.08,.32,8.27-5.78c2.57,4.98,1.2,12.45,1.2,12.45,0,0-2.49-5.22-7.23-.88-1.85-3.53-2.25-5.78-2.25-5.78Z">
</path>
<path class="cls-3" d="M30.82,37.99s-.71-2.98-4.51-2.63c-2.83,.18-3.01,2.21-3.01,2.21,0,0,4.51,1.39,7.52,.42Z">
</path>
<path class="cls-3" d="M39.02,37.93s.89-2.92,4.69-2.57c2.83,.18,3.01,2.21,3.01,2.21,0,0-4.69,1.33-7.7,.35Z">
</path>
<polygon points="43.22 53.92 21.86 73.39 9.75 71.15 9.83 68.9 25.27 64.15 26.35 53.29 32.36 58.76 37.03 58.58 43.22 53.92">
</polygon>
<path class="cls-2" d="M43.9,55.99l-19.34,18.27s17.93,2.91,33.8-2.53c.56-2.63,.84-3.38,.84-3.38,0,0-12.96-3.1-14.74-4.41-.56-5.16-.57-7.94-.57-7.94Z">
</path>
<path class="cls-1" d="M43.28,22.99c1.77,5.26,4.79,8.8,6.18,10.22-.34,2.19-1.51,8.78-3.72,13.52-1.62,3.45-5.18,7.53-9.12,10.46h-3.81c-3.94-2.93-7.5-7.01-9.12-10.46-2.2-4.71-3.37-11.31-3.73-13.59,.01-.06,.02-.12,.03-.18,.13-.27,.96-1.69,5.18-4.17,.18-.1,.35-.21,.53-.3l3.25-.25,4.02-.31c.78-.06,6.92-.71,10.33-4.93m.34-2.42c-2.65,5.67-10.39,6.33-10.75,6.36l-4.01,.31,3.8-1.3s2.99-1.05,5.05-3.57c-2.05,1.37-4.09,2.02-6.22,2.7-2.13,.68-4.34,1.38-6.84,2.86-5.47,3.21-5.67,4.85-5.67,4.87,.01,.09-.02,.17-.06,.25,.28,1.83,1.47,9,3.85,14.1,1.73,3.68,5.53,8,9.7,11.04h4.47c4.19-3.05,7.98-7.37,9.7-11.04,2.48-5.32,3.67-12.86,3.88-14.29-.96-.93-5.22-5.33-6.9-12.29h0Z">
</path>
<path class="cls-2" d="M22.64,39.21s4.09,2,8.76,.67c-4.66,5.05-8.19,1.14-8.76-.67Z">
</path>
<path d="M18.42,32.03l3.03,12.84s-4.47,1.08-5.92-5.12,1.3-7.94,2.89-7.72Z">
</path>
<path class="cls-9" d="M51.06,32.67s-5.92-5.33-7.31-14.06c-1.6,7.11-10.92,7.82-10.92,7.82,0,0,4.97-1.69,6.75-6.22-4.71,4.53-9.15,3.73-15.19,7.28s-5.92,5.31-5.92,5.31">
</path>
<path class="cls-9" d="M25.68,56.26c-4.41-1.6-10.36-6-13.15-12.33-6.25-14.15,2.12-28.03,13.55-32.56,11.82-4.68,19.08,.07,19.3,.15,0,0,13.19-.37,9.06,22.32">
</path>
<path class="cls-9" d="M53.12,42.83s.35,5.39,4.11,3.84c-3.31,9.06-13.09,9.43-13.09,9.43">
</path>
<path class="cls-9" d="M18.32,32.89s-1.88-1.06-2.94,1.55,.82,11.2,5.64,10.38">
</path>
<path class="cls-9" d="M51.34,32.89s1.88-1.06,2.94,1.55-.82,11.2-5.64,10.38">
</path>
<path class="cls-9" d="M51.07,32.67s-1.16,8.69-3.96,14.69c-1.83,3.91-5.83,8.33-10,11.34h-4.8c-4.17-3-8.17-7.43-10-11.34-2.81-6-3.96-14.69-3.96-14.69">
</path>
<path class="cls-9" d="M26.04,53.09s-.08,8.79-1.09,11.05c-5.87,2.33-16.47,4.89-17.92,5.19">
</path>
<path class="cls-9" d="M43.79,53.09s.08,8.79,1.09,11.05c5.87,2.33,16.47,4.89,17.92,5.19">
</path>
<path d="M21.3,32.97c4.24-2.71,7.83-2.7,12.19-.24,0,0-.51,.92-.51,.92-1.76-.9-3.71-1.84-5.69-2.03-2.02-.08-4.09,.64-5.99,1.34h0Z">
</path>
<path d="M30.91,38.06c-.99-1.09-2.17-2.15-3.64-2.22-1.31-.04-2.79,.56-3.53,1.63,0,0-.22-.69-.22-.69,.8,.5,1.79,.89,2.73,1.13,.98,.26,2,.38,3.04,.38-2.09,.36-4.28,.21-6.27-.59,0,0-.44-.19-.44-.19,1.46-4.03,7.53-3.74,8.34,.54h0Z">
</path>
<path d="M48.69,32.97c-1.9-.7-3.97-1.42-5.99-1.34-1.98,.19-3.92,1.13-5.69,2.03,0,0-.51-.92-.51-.92,4.36-2.46,7.95-2.47,12.19,.24h0Z">
</path>
<path d="M39.08,38.06c.81-4.28,6.88-4.56,8.34-.54,0,0-.44,.19-.44,.19-1.99,.79-4.19,.95-6.27,.59,1.03,0,2.06-.12,3.04-.38,.94-.25,1.93-.63,2.73-1.13,0,0-.22,.69-.22,.69-.74-1.07-2.22-1.67-3.53-1.63-1.46,.07-2.65,1.13-3.64,2.22h0Z">
</path>
<path d="M38.29,42.77c1.01,.66,.54,2.17-.38,2.72-1.77,1.17-4.22,.97-5.84-.39-1-.84-.77-2.22,.48-2.62-.32,.35-.6,.76-.57,1.13,.46,2.24,7.68,2.24,6.3-.83h0Z">
</path>
<path d="M40.04,50.68s-1.06,.51-2.88-.17c-.55,.72-3.75,.76-4.31,0-1.82,.68-2.88,.17-2.88,.17,0,0,2.03-1.7,2.96-1.99,.96-.3,1.58-.13,2.07,.28h0s.01,.01,.01,.01c.49-.42,1.12-.59,2.07-.3,.93,.3,2.96,1.99,2.96,1.99Z">
</path>
<path d="M32.72,52.68c1.73,.21,2.8,.14,4.45-.02-.81,1.68-3.64,1.74-4.45,.02h0Z">
</path>
<path class="cls-9" d="M22.79,65.12s.51,6.03,4.79,10.05c5.49,1.21,15,0,15,0,0,0,3.89-4.56,4.72-9.8">
</path>
<path class="cls-12" d="M11.22,29.6c-.15,11.26,4.13,19.63,13.64,25.71,0,0-.04,.09-.04,.09,0,0-1.72-.94-1.72-.94-4.02-2.17-7.45-5.52-9.55-9.61-2.32-4.56-3.38-10.41-2.33-15.25h0Z">
</path>
<path class="cls-12" d="M11.14,69.18c3.37-1.1,10.17-3.24,13.57-4.25-1.48,1.38-4.5,2.31-6.5,3.03-2.06,.55-5.06,1.5-7.07,1.22h0Z">
</path>
</g>
</g>
  <g
     id="g20645">
    <path
       style="fill:#808080;stroke:#4d4d4d;stroke-width:0.937908;stop-color:#000000;fill-opacity:1"
       d="m 9.541565,65.883425 a 5.4759801,5.4759801 0 0 1 5.47598,5.475981 5.4759801,5.4759801 0 0 1 -5.47598,5.47598 5.4759801,5.4759801 0 0 1 -5.4759806,-5.47598 5.4759801,5.4759801 0 0 1 5.4759806,-5.475981 z"/>
    <path
       style="fill:#808080;stroke:#4d4d4d;stroke-width:0.937908;stop-color:#000000;fill-opacity:1"
       d="m 59.472108,65.883425 a 5.4759801,5.4759801 0 0 1 5.47598,5.475981 5.4759801,5.4759801 0 0 1 -5.47598,5.47598 5.4759801,5.4759801 0 0 1 -5.475981,-5.47598 5.4759801,5.4759801 0 0 1 5.475981,-5.475981 z"/>
    <path
       id="path7641"
       style="fill:#808080;stroke:#4d4d4d;stroke-width:1.64416;stop-color:#000000"
       d="M 34.642578,1.1660156 C 13.787845,9.1047124 0.86132813,23.726855 0.86132812,39.564453 V 79.340489 H 68.152344 V 39.564453 c 0,-15.800978 -12.759199,-30.4148342 -33.509766,-38.3984374 z m -0.01367,3.8085938 C 53.384648,12.190722 64.917969,25.399665 64.917969,39.681641 v 26.507812 c -1.368656,-1.44106 -3.300993,-2.341797 -5.445313,-2.341797 -4.14856,0 -7.511718,3.363159 -7.511718,7.511719 0,2.347008 1.075662,4.442843 2.761718,5.820313 H 14.269531 c 1.756069,-1.422629 2.778281,-3.560307 2.783203,-5.820313 4.8e-5,-4.148627 -3.363091,-7.511766 -7.5117184,-7.511719 -2.0622939,0.0062 -4.0313164,0.860092 -5.4453125,2.361328 V 39.681641 c 0,-14.315076 11.6833059,-27.531508 30.5332029,-34.7070316 z"/>
    <circle
       style="fill:#4d4d4d;fill-opacity:1;stroke:#4d4d4d;stop-color:#000000"
       id="path16431"
       cx="9.6010828"
       cy="71.229652"
       r="5.06003" />
    <circle
       style="fill:#4d4d4d;fill-opacity:1;stroke:#4d4d4d;stop-color:#000000"
       id="path16431-3"
       cx="59.42292"
       cy="71.229652"
       r="5.06003" />
  </g>
</svg>
