<?xml version="1.0" encoding="UTF-8"?><svg id="Capa_2" xmlns="http://www.w3.org/2000/svg" xmlns:xlink="http://www.w3.org/1999/xlink" viewBox="0 0 69.02 80"><defs><style>.cls-1{fill:#c89aed;}.cls-2{fill:#fff;}.cls-3{fill:#f8ffbf;}.cls-4{fill:#7b7be8;}.cls-5{stroke-width:1px;}.cls-5,.cls-6,.cls-7,.cls-8,.cls-9,.cls-10,.cls-11,.cls-12{fill:none;}.cls-5,.cls-6,.cls-7,.cls-9,.cls-12{stroke:#000;stroke-miterlimit:10;}.cls-5,.cls-7,.cls-8,.cls-9,.cls-12{stroke-linecap:round;}.cls-13{fill:#a88347;}.cls-14{fill:#782ab5;}.cls-15{fill:#1c46ff;}.cls-8{stroke:#deb778;stroke-dasharray:0 0 0 4.06;stroke-linejoin:round;}.cls-9{stroke-width:1.01px;}.cls-16{fill:#deb778;}.cls-17{fill:url(#USGS_19_Inundación_de_tierra_2);}.cls-11{stroke:#1d1d1b;stroke-dasharray:0 0 2 2;stroke-width:.3px;}.cls-12{stroke-width:1.01px;}.cls-18{fill:#fcf0c5;}</style><pattern id="USGS_19_Inundación_de_tierra_2" x="0" y="0" width="72" height="72" patternTransform="translate(-92.48 -16135) rotate(-90)" patternUnits="userSpaceOnUse" viewBox="0 0 72 72"><g><rect class="cls-10" width="72" height="72"/><g><line class="cls-11" x1="71" y1="71" x2="144.44" y2="71"/><line class="cls-11" x1="71" y1="67" x2="144.44" y2="67"/><line class="cls-11" x1="71" y1="63" x2="144.44" y2="63"/><line class="cls-11" x1="71" y1="59" x2="144.44" y2="59"/><line class="cls-11" x1="71" y1="55" x2="144.44" y2="55"/><line class="cls-11" x1="71" y1="51" x2="144.44" y2="51"/><line class="cls-11" x1="71" y1="47" x2="144.44" y2="47"/><line class="cls-11" x1="71" y1="43" x2="144.44" y2="43"/><line class="cls-11" x1="71" y1="39" x2="144.44" y2="39"/><line class="cls-11" x1="71" y1="35" x2="144.44" y2="35"/><line class="cls-11" x1="71" y1="31" x2="144.44" y2="31"/><line class="cls-11" x1="71" y1="27" x2="144.44" y2="27"/><line class="cls-11" x1="71" y1="23" x2="144.44" y2="23"/><line class="cls-11" x1="71" y1="19" x2="144.44" y2="19"/><line class="cls-11" x1="71" y1="15" x2="144.44" y2="15"/><line class="cls-11" x1="71" y1="11" x2="144.44" y2="11"/><line class="cls-11" x1="71" y1="7" x2="144.44" y2="7"/><line class="cls-11" x1="71" y1="3" x2="144.44" y2="3"/></g><g><line class="cls-11" x1="-1" y1="71" x2="72.44" y2="71"/><line class="cls-11" x1="-1" y1="67" x2="72.44" y2="67"/><line class="cls-11" x1="-1" y1="63" x2="72.44" y2="63"/><line class="cls-11" x1="-1" y1="59" x2="72.44" y2="59"/><line class="cls-11" x1="-1" y1="55" x2="72.44" y2="55"/><line class="cls-11" x1="-1" y1="51" x2="72.44" y2="51"/><line class="cls-11" x1="-1" y1="47" x2="72.44" y2="47"/><line class="cls-11" x1="-1" y1="43" x2="72.44" y2="43"/><line class="cls-11" x1="-1" y1="39" x2="72.44" y2="39"/><line class="cls-11" x1="-1" y1="35" x2="72.44" y2="35"/><line class="cls-11" x1="-1" y1="31" x2="72.44" y2="31"/><line class="cls-11" x1="-1" y1="27" x2="72.44" y2="27"/><line class="cls-11" x1="-1" y1="23" x2="72.44" y2="23"/><line class="cls-11" x1="-1" y1="19" x2="72.44" y2="19"/><line class="cls-11" x1="-1" y1="15" x2="72.44" y2="15"/><line class="cls-11" x1="-1" y1="11" x2="72.44" y2="11"/><line class="cls-11" x1="-1" y1="7" x2="72.44" y2="7"/><line class="cls-11" x1="-1" y1="3" x2="72.44" y2="3"/><line class="cls-11" x1="1.04" y1="69" x2="74.48" y2="69"/><line class="cls-11" x1="1.04" y1="65" x2="74.48" y2="65"/><line class="cls-11" x1="1.04" y1="61" x2="74.48" y2="61"/><line class="cls-11" x1="1.04" y1="57" x2="74.48" y2="57"/><line class="cls-11" x1="1.04" y1="53" x2="74.48" y2="53"/><line class="cls-11" x1="1.04" y1="49" x2="74.48" y2="49"/><line class="cls-11" x1="1.04" y1="45" x2="74.48" y2="45"/><line class="cls-11" x1="1.04" y1="41" x2="74.48" y2="41"/><line class="cls-11" x1="1.04" y1="37" x2="74.48" y2="37"/><line class="cls-11" x1="1.04" y1="33" x2="74.48" y2="33"/><line class="cls-11" x1="1.04" y1="29" x2="74.48" y2="29"/><line class="cls-11" x1="1.04" y1="25" x2="74.48" y2="25"/><line class="cls-11" x1="1.04" y1="21" x2="74.48" y2="21"/><line class="cls-11" x1="1.04" y1="17" x2="74.48" y2="17"/><line class="cls-11" x1="1.04" y1="13" x2="74.48" y2="13"/><line class="cls-11" x1="1.04" y1="9" x2="74.48" y2="9"/><line class="cls-11" x1="1.04" y1="5" x2="74.48" y2="5"/><line class="cls-11" x1="1.04" y1="1" x2="74.48" y2="1"/></g><g><line class="cls-11" x1="-73" y1="71" x2=".44" y2="71"/><line class="cls-11" x1="-73" y1="67" x2=".44" y2="67"/><line class="cls-11" x1="-73" y1="63" x2=".44" y2="63"/><line class="cls-11" x1="-73" y1="59" x2=".44" y2="59"/><line class="cls-11" x1="-73" y1="55" x2=".44" y2="55"/><line class="cls-11" x1="-73" y1="51" x2=".44" y2="51"/><line class="cls-11" x1="-73" y1="47" x2=".44" y2="47"/><line class="cls-11" x1="-73" y1="43" x2=".44" y2="43"/><line class="cls-11" x1="-73" y1="39" x2=".44" y2="39"/><line class="cls-11" x1="-73" y1="35" x2=".44" y2="35"/><line class="cls-11" x1="-73" y1="31" x2=".44" y2="31"/><line class="cls-11" x1="-73" y1="27" x2=".44" y2="27"/><line class="cls-11" x1="-73" y1="23" x2=".44" y2="23"/><line class="cls-11" x1="-73" y1="19" x2=".44" y2="19"/><line class="cls-11" x1="-73" y1="15" x2=".44" y2="15"/><line class="cls-11" x1="-73" y1="11" x2=".44" y2="11"/><line class="cls-11" x1="-73" y1="7" x2=".44" y2="7"/><line class="cls-11" x1="-73" y1="3" x2=".44" y2="3"/><line class="cls-11" x1="-70.96" y1="69" x2="2.48" y2="69"/><line class="cls-11" x1="-70.96" y1="65" x2="2.48" y2="65"/><line class="cls-11" x1="-70.96" y1="61" x2="2.48" y2="61"/><line class="cls-11" x1="-70.96" y1="57" x2="2.48" y2="57"/><line class="cls-11" x1="-70.96" y1="53" x2="2.48" y2="53"/><line class="cls-11" x1="-70.96" y1="49" x2="2.48" y2="49"/><line class="cls-11" x1="-70.96" y1="45" x2="2.48" y2="45"/><line class="cls-11" x1="-70.96" y1="41" x2="2.48" y2="41"/><line class="cls-11" x1="-70.96" y1="37" x2="2.48" y2="37"/><line class="cls-11" x1="-70.96" y1="33" x2="2.48" y2="33"/><line class="cls-11" x1="-70.96" y1="29" x2="2.48" y2="29"/><line class="cls-11" x1="-70.96" y1="25" x2="2.48" y2="25"/><line class="cls-11" x1="-70.96" y1="21" x2="2.48" y2="21"/><line class="cls-11" x1="-70.96" y1="17" x2="2.48" y2="17"/><line class="cls-11" x1="-70.96" y1="13" x2="2.48" y2="13"/><line class="cls-11" x1="-70.96" y1="9" x2="2.48" y2="9"/><line class="cls-11" x1="-70.96" y1="5" x2="2.48" y2="5"/><line class="cls-11" x1="-70.96" y1="1" x2="2.48" y2="1"/></g></g></pattern></defs><g id="BG"><g><path class="cls-14" d="M64.02,40c0,11.47-1.89,22.39-5.5,31.74-7.2,2.16-14.94,3.26-23.02,3.26-.49,0-.98-.01-1.47-.02h-.17c-8.18-.15-16.29-1.47-23.6-3.85-3.45-9.22-5.26-19.93-5.26-31.13s1.89-22.38,5.48-31.73c6.73-2.01,14.13-3.13,21.6-3.26,.48-.01,.97-.01,1.45-.01,.54,0,1.08,.01,1.63,.02,8.16,.15,16.27,1.47,23.59,3.84,3.46,9.24,5.27,19.95,5.27,31.14Z"/><path class="cls-17" d="M34.03,5.59V74.98h-.17c-8.18-.15-16.29-1.47-23.6-3.85-3.45-9.22-5.26-19.93-5.26-31.13s1.89-22.38,5.48-31.73c6.73-2.01,14.13-3.13,21.6-3.26,.65,.16,1.3,.36,1.95,.58Z"/></g></g><g id="Characters"><g><path class="cls-1" d="M62.52,59.86c-.14,11.58-2.35,14.21-2.35,14.21,0,0-34.21,6.75-51.45-2.35-1.51-9.38-1.51-12.96-1.51-12.96,0,0,13.1-3.87,14.2-4,.42-4.42,.42-4.97,.42-4.97,0,0-1.93-3.59-1.93-6.9-3.32,0-3.18-6.89-3.18-8.27s.42-3.04,2.21-3.31c-.02-.65-.04-1.29-.06-1.9-.24-7.54-.26-12.11,2.54-14.65,3.04-2.76,10.76-3.45,16.97-3.18,6.2,.28,10.07,2.35,11.72,5.8,.97,2,1.09,6.53,1.02,9.97-.04,2.47-.19,4.37-.19,4.37,0,0,1.65,1.1,2.07,2.76,.41,1.65-.55,8.14-3.45,8.55-.69,4-2.48,7.59-2.48,7.59l.27,4s12.83,3.58,15.18,5.24Z"/><path class="cls-2" d="M34.43,58.77V21.24s8.09,2.04,13.53-1.31c1.5,4.62,2.3,12.41,2.3,12.41,0,0-.28,11.54-1.73,14.91s-5.87,11.71-14.09,11.52Z"/><path d="M51.12,27.35l-.48,.95s0-2.34-2.68-8.37c-4.69,2.12-18.31,4.13-26.01-.23-2.23,2.24-2.68,9.83-2.68,9.83l-.4-.12c-.24-7.54-.26-12.11,2.54-14.65,3.04-2.76,10.76-3.45,16.97-3.18,6.2,.28,10.07,2.35,11.72,5.8,.97,2,1.09,6.53,1.02,9.97Z"/><path class="cls-13" d="M22.66,14.96s13.19-5.4,25,.25c-9.67,4.52-15.7,.63-25-.25Z"/><path class="cls-3" d="M23.22,34.64s5.18-1.08,7.98-.57c-1.47,2.28-3.79,3.15-3.79,3.15,0,0-3.54-1.4-4.2-2.58Z"/><path class="cls-3" d="M45.32,34.64s-5.47-1.08-8.27-.57c1.47,2.28,4.07,3.15,4.07,3.15,0,0,3.54-1.4,4.2-2.58Z"/><path d="M46.43,51.92l-18.4,23.21-18.04-3.68-2.78-12.7s13.38-3.68,14.43-3.68c.26-4.03,.35-4.82,.35-4.82,0,0,4.03,5.52,6.66,7.01s5.96,1.31,5.96,1.31c0,0,4.38-.18,7.27-2.54,3.5-2.89,4.56-4.12,4.56-4.12Z"/><path class="cls-4" d="M48.24,39.04s.23,5.59-4.29,7.88c-2.07-2.53-5.89-4.21-5.89-4.21,0,0-1.02,.89-2.58,1v-.05h-2.07c-1.34-.2-2.2-.95-2.2-.95,0,0-3.83,1.68-5.89,4.21-4.51-2.3-4.29-7.88-4.29-7.88l-1.45-3.44s0,7.04,.38,9.26c.38,2.22,1.76,5.43,6.27,10.02,4.25,4.62,8.19,4.13,8.19,4.13v-.25h.42v.25s3.93,.49,8.19-4.13c4.51-4.59,5.89-7.81,6.27-10.02,.38-2.22,.38-9.26,.38-9.26l-1.45,3.44Z"/><path class="cls-4" d="M37.45,33.98s-1.58-1.51-1.35-2.61c2.61-1.43,7.13-.55,9.51,.16,.48,2.77,.16,3.33,.16,3.33,0,0-4.04-1.51-8.32-.87Z"/><path class="cls-4" d="M31.23,33.98s1.58-1.51,1.35-2.61c-2.61-1.43-7.75-.49-10.12,.23-.48,2.77-.14,3.24-.14,3.24,0,0,4.63-1.49,8.91-.85Z"/><path class="cls-2" d="M45.39,54.48l-8.7,11.45s7.16-2.53,8.37-5.84c.99-3.96,.33-5.62,.33-5.62Z"/><path class="cls-15" d="M46.81,55.05s1.07,5.01-1.43,7.87-7.75,5.37-13.71,4.41c-3.7,4.89-4.53,7.39-4.53,7.39,0,0,19.91,2.62,31.6-3.46,2.5-8.94,3.22-12.52,3.22-12.52,0,0-12.64-3.7-15.14-3.7Z"/><path class="cls-15" d="M9.22,59.15c3.67-1.49,7.42-2.95,11.35-3.56,0,0,.02,.1,.02,.1-.84,.92-1.73,1.23-2.68,1.46-1.69,.43-4.02,1.08-5.7,1.47-.97,.23-1.94,.44-2.94,.62l-.04-.09h0Z"/><path d="M18.93,31.31s-2.22,.68-2.46,3.42,.75,7.71,3.07,8.37c-.08-5.97-.6-11.79-.6-11.79Z"/><path class="cls-2" d="M23.11,37.86s3.56,2.35,6.88-.24c-3.56,5.34-5.99,2.67-6.88,.24Z"/><path d="M19.93,34.39v.03c-.03-.09-.04-.18-.06-.28,.04,.07,.06,.16,.06,.25Z"/><path class="cls-1" d="M47.21,21.75c.77,2.02,1.33,5.68,1.53,10.11v.07c-.05,.38-.11,.75-.17,1.09-.01,.06-.03,.14-.04,.25-.37,2.24-.87,4.35-1.38,5.81-.05,.14-.07,.29-.05,.43,.18,1.68-.5,3.64-1.86,5.39-.32,.41-.27,1,.11,1.35,.19,.17,.43,.26,.67,.26s.49-.09,.68-.27c.22-.2,.43-.44,.65-.7-.31,1.24-.69,2.24-1.11,2.97-1.93,3.47-6.23,8.64-10.18,8.64-.31,0-.62-.03-.91-.1-.07-.02-.15-.02-.22-.02h-.69c-.07,0-.15,0-.22,.02-.3,.07-.6,.1-.92,.1-3.95,0-8.26-5.17-10.2-8.66-.46-.8-.85-1.89-1.16-3.21,.28,.35,.57,.66,.84,.93,.19,.2,.45,.3,.71,.3,.23,0,.47-.08,.65-.24,.4-.34,.46-.94,.14-1.36-1.33-1.76-1.98-3.73-1.78-5.41,.02-.18,0-.36-.08-.53-.48-1.07-.95-2.72-1.32-4.66,0-.16-.04-.32-.09-.47-.08-.44-.16-.88-.23-1.33,.05-.14,.07-.29,.07-.43,.04-1.52,.41-7.27,1.59-10.27,3.98,1.49,9.14,1.66,11.29,1.66,.54,0,.88-.01,.92-.01h.48c.06,0,.31,0,.73,0,2.19,0,7.45-.18,11.53-1.72m.51-1.29c-4.05,1.85-10,2.02-12.03,2.02-.4,0-.64,0-.7,0h-.51c-.06,0-.39,.01-.92,.01-2.21,0-7.89-.18-11.79-1.95-1.81,3.23-2.09,11.45-2.09,11.54,0,.11-.04,.2-.11,.28,.09,.62,.19,1.21,.3,1.78h0c.04,.08,.06,.17,.06,.26v.03c.39,2.04,.88,3.79,1.41,4.97-.26,2.17,.67,4.4,1.98,6.13-1.57-1.59-2.77-3.66-2.85-5.98-.19-.41-.36-.89-.53-1.42,.11,3.36,.56,8.16,2.12,10.88,2.15,3.87,6.7,9.17,11.06,9.17,.38,0,.76-.04,1.14-.13h.69c.38,.09,.75,.13,1.13,.13,4.36,0,8.91-5.29,11.06-9.16,1.46-2.55,2.04-7.23,2.26-10.8-.2,.53-.41,1-.62,1.39,.19,1.49-1.24,4.52-2.74,5.92,1.34-1.72,2.3-3.93,2.07-6.11,.51-1.47,1.03-3.61,1.43-6.03,0-.06,0-.11,.02-.16,.07-.4,.13-.81,.19-1.23v-.03c-.03-.56-.3-8.37-2.03-11.5h0Z"/><path class="cls-2" d="M50.53,32.55s1.69,4.11,1.15,8.22c1.51-4.84,1.45-7.01,.66-8.04s-1.69-1.33-1.69-1.33l-.12,1.15Z"/><path d="M46.04,45.52c1.34-1.72,2.3-3.93,2.08-6.11,1.83-5.28,3.72-19.18,.06-23.64-4.12-5.15-22.88-5.19-27.03-.04-3.61,4.14-1.98,18.8,.2,23.66-.27,2.17,.67,4.39,1.98,6.13-1.59-1.62-2.81-3.73-2.87-6.09,0,0,.04,.2,.04,.2-2.28-5.22-3.98-20.11-.07-24.54,3.62-3.82,9.38-4.02,14.26-4.15,4.88,.11,10.66,.28,14.3,4.11,3.86,4.13,2.4,19.75-.2,24.54,.19,1.49-1.24,4.52-2.74,5.93h0Z"/><path class="cls-7" d="M18.94,31.34s-2.24,.35-2.36,3.25,.65,8.14,3.01,8.5"/><path class="cls-7" d="M50.35,31.34s2.24,.35,2.36,3.25-.65,8.14-3.01,8.5"/><path class="cls-9" d="M50.04,33.37s.21,11.24-2.46,15.89c-2.61,4.7-7.94,10.36-12.75,9.28h-.46c-4.81,1.08-10.14-4.58-12.75-9.28-2.67-4.64-2.2-14.89-2.2-14.89"/><path class="cls-7" d="M21.78,49.47v5.2s-8.57,1.92-15.61,4.96"/><path class="cls-7" d="M46.96,50.43v4.24s8.57,1.92,15.61,4.96"/><path class="cls-12" d="M46.92,54.68s-.05,4.74-1.25,7.3-5.07,5.5-11.32,5.5c-6.26,0-10.13-2.95-11.32-5.5s-1.25-7.3-1.25-7.3"/><path d="M25.27,49.7c.81,1.99,1.73,3.97,2.19,6.07,.05,.28-.14,.54-.41,.58-.24,.04-.47-.1-.56-.32-.68-2.04-.9-4.21-1.22-6.34h0Z"/><path d="M43.47,49.7c-.32,2.13-.54,4.3-1.22,6.34-.1,.26-.39,.39-.65,.29-.23-.09-.36-.32-.32-.56,.46-2.1,1.38-4.08,2.19-6.07h0Z"/><path d="M34.97,48.33l1.06-.56s2.58,.06,5.49,1.4c-2.74-2.46-5.49-3.36-5.49-3.36l-1.51,.5h-.11s-1.51-.5-1.51-.5c0,0-2.74,.9-5.49,3.36,2.91-1.34,5.49-1.4,5.49-1.4l1.06,.56h1.01Z"/><path d="M30.62,50.21c2.35,.54,4.86,.7,7.17-.05-1.34,2.06-5.7,1.93-7.17,.05h0Z"/><path class="cls-5" d="M50.24,31.97s-.24-9.07-2.34-12.15c-4.74,2.39-12.9,2.15-12.9,2.15h-.53s-8.16,.29-12.89-2.08c-2.11,3.09-2.4,12.16-2.4,12.16"/><path d="M22.25,31.69c2.63-1.27,5.28-2.24,8.3-2.23,1,.22,2.02,1.03,2.01,2.17l-.97,.22c-.45-.26-.88-.53-1.41-.71,0,0,.17,.03,.17,.03-2.67-.28-5.4,.26-8.09,.52h0Z"/><path d="M30.75,34.02c-2.55-.22-5.22,.16-7.5,1.29,0,0,.22-.74,.22-.74,.9,1.26,2.56,1.94,4.06,2.2,0,0-.27,.04-.27,.04,.49-.13,1.01-.35,1.5-.59,.49-.25,.96-.55,1.4-.9-.32,.47-.69,.91-1.11,1.31-.45,.43-.93,.82-1.49,1.16l-.17-.02c-2.06-.34-4.03-1.32-5.14-3.17,2.72-1.01,5.69-1.19,8.49-.56h0Z"/><path d="M45.98,31.69c-2.7-.25-5.42-.79-8.09-.52,0,0,.17-.03,.17-.03-.53,.18-.96,.45-1.41,.71,0,0-.97-.22-.97-.22,0-.34,.07-.56,.17-.81,.34-.72,1.1-1.2,1.83-1.37,3.02-.01,5.67,.96,8.3,2.23h0Z"/><path d="M37.48,34.02c2.81-.62,5.77-.44,8.49,.56-1.1,1.86-3.08,2.83-5.14,3.17,0,0-.17,.03-.17,.03-.56-.35-1.04-.74-1.49-1.16-.42-.4-.8-.84-1.11-1.31,.44,.36,.91,.66,1.4,.9,.48,.25,1.01,.46,1.5,.59l-.27-.04c1.5-.26,3.17-.94,4.06-2.2,0,0,.22,.74,.22,.74-2.28-1.13-4.95-1.51-7.5-1.29h0Z"/><path d="M35.78,35.02c.46,2.27,1.96,3.38,2.95,5.26,.92,2.61-2.61,3.61-4.49,3.96-1.89-.34-5.41-1.35-4.49-3.96,.39-1.03,1.23-1.62,1.76-2.54,.54-.82,.94-1.74,1.19-2.72-.06,1.52-.66,3.04-1.56,4.29-2.14,2.63,1,3.5,3.19,3.92,7.34-1.78,1.58-3.38,1.45-8.21h0Z"/><path class="cls-1" d="M17.55,33.15c.58,.82,.67,1.51,.65,2.21-.06,2.12,0,4.24,.67,6.28,0,0-.08,.06-.08,.06-.87-1.21-1.29-2.68-1.48-4.14-.18-1.47-.14-2.96,.14-4.42l.1,.02h0Z"/></g></g><g id="Frame"><path class="cls-13" d="M62.56,4.88C54.4,1.94,45.12,.2,35.25,.02c-.57-.01-1.15-.02-1.72-.02C23.88,0,14.77,1.52,6.72,4.21,2.49,14.22,0,26.6,0,40s2.39,25.22,6.45,35.11c8.16,2.94,17.45,4.69,27.32,4.87,.58,.01,1.15,.02,1.73,.02,9.63,0,18.73-1.51,26.78-4.2,4.24-10.01,6.74-22.39,6.74-35.8s-2.4-25.24-6.46-35.12Zm-4.04,66.86c-7.2,2.16-14.94,3.26-23.02,3.26-.49,0-.98-.01-1.47-.02h-.17c-8.18-.15-16.29-1.47-23.6-3.85-3.45-9.22-5.26-19.93-5.26-31.13s1.89-22.38,5.48-31.73c6.73-2.01,14.13-3.13,21.6-3.26,.48-.01,.97-.01,1.45-.01,.54,0,1.08,.01,1.63,.02,8.16,.15,16.27,1.47,23.59,3.84,3.46,9.24,5.27,19.95,5.27,31.14s-1.89,22.39-5.5,31.74Z"/><path class="cls-16" d="M17.21,2.06h0c1.63,.63,2.06,2.75,.81,3.97l-1.26,1.22s8.35-2.37,18.84-1.69h0c-1-1.49-.45-3.52,1.14-4.34l1-.51S28.26-.43,17.21,2.06Z"/><path class="cls-18" d="M21.81,1.66s.7,2.18-.22,3.1c3.77-.41,7.98-.74,11.12-.74-.33-1.33,1.26-3.4,1.26-3.4,0,0-6.17-.26-12.16,1.03Z"/><path class="cls-16" d="M36.25,79.21h0c-1.52-.87-1.62-3.03-.2-4.04l1.43-1.02s-8.61,1.07-18.88-1.19h0c.76,1.63-.09,3.55-1.79,4.11l-1.07,.36s9.19,2.56,20.5,1.78Z"/><path class="cls-18" d="M19.28,77.8s1.76-1.83,1.3-3.09c4.43,.69,9.11,1.14,12.25,1.14-.33,1.33,.44,3.4,.44,3.4,0,0-8-.16-13.99-1.45Z"/><polygon points="47.48 1.77 47.48 6.73 54.49 8.44 54.49 2.62 47.48 1.77"/><line class="cls-6" x1="45.5" y1="1.23" x2="45.5" y2="6.29"/><line class="cls-6" x1="56.47" y1="3.67" x2="56.47" y2="8.73"/><polygon points="47.48 78.74 47.48 73.78 54.49 72.07 54.49 77.88 47.48 78.74"/><line class="cls-6" x1="45.5" y1="79.28" x2="45.5" y2="74.21"/><line class="cls-6" x1="56.47" y1="76.84" x2="56.47" y2="71.77"/><path d="M33.53,1c.56,0,1.14,0,1.7,.02,9.39,.17,18.33,1.74,26.57,4.65,4.07,10.08,6.22,21.94,6.22,34.33s-2.24,24.79-6.49,34.99c-8.12,2.66-16.87,4.01-26.03,4.01-.56,0-1.12,0-1.71-.02-9.25-.17-18.42-1.78-26.58-4.66C3.15,64.25,1,52.39,1,40S3.23,15.21,7.47,5.02C15.6,2.35,24.37,1,33.53,1m0-1C23.88,0,14.77,1.52,6.72,4.21,2.49,14.22,0,26.6,0,40s2.39,25.22,6.45,35.11c8.16,2.94,17.45,4.69,27.32,4.87,.58,.01,1.15,.02,1.73,.02,9.63,0,18.73-1.51,26.78-4.2,4.24-10.01,6.74-22.39,6.74-35.8s-2.4-25.24-6.46-35.12C54.4,1.94,45.12,.2,35.25,.02c-.57,0-1.15-.02-1.72-.02h0Z"/><path class="cls-16" d="M33.53,6c.52,0,1.04,0,1.61,.02,7.87,.14,15.75,1.4,22.84,3.64,3.3,9,5.04,19.47,5.04,30.34s-1.82,21.82-5.26,30.92c-6.98,2.04-14.47,3.08-22.26,3.08-.48,0-.97,0-1.47-.02h-.15c-7.89-.14-15.78-1.41-22.85-3.65-3.29-8.99-5.03-19.46-5.03-30.33s1.81-21.79,5.24-30.91c6.5-1.89,13.7-2.95,20.86-3.08,.47,0,.96,0,1.43,0m0-1c-.48,0-.97,0-1.45,.01-7.47,.13-14.87,1.25-21.6,3.26-3.59,9.35-5.48,20.26-5.48,31.73s1.81,21.91,5.26,31.13c7.31,2.38,15.42,3.7,23.6,3.85h.17c.49,.01,.98,.02,1.47,.02,8.08,0,15.82-1.1,23.02-3.26,3.61-9.35,5.5-20.27,5.5-31.74s-1.81-21.9-5.27-31.14c-7.32-2.37-15.43-3.69-23.59-3.84-.55,0-1.09-.02-1.63-.02h0Z"/><path d="M33.53,5c.54,0,1.08,.01,1.63,.02,8.16,.15,16.27,1.47,23.59,3.84,3.46,9.24,5.27,19.95,5.27,31.14s-1.89,22.39-5.5,31.74c-7.2,2.16-14.94,3.26-23.02,3.26-.49,0-.98-.01-1.47-.02h-.17c-8.18-.15-16.29-1.47-23.6-3.85-3.45-9.22-5.26-19.93-5.26-31.13s1.89-22.38,5.48-31.73c6.73-2.01,14.13-3.13,21.6-3.26,.48-.01,.97-.01,1.45-.01m0-1c-.49,0-.98,0-1.47,.01-7.51,.13-15.07,1.27-21.87,3.3l-.47,.14-.18,.46c-3.63,9.45-5.55,20.55-5.55,32.09s1.84,22.17,5.32,31.48l.17,.45,.46,.15c7.37,2.4,15.63,3.75,23.89,3.9h.19c.48,.01,.97,.02,1.47,.02,8.16,0,16-1.11,23.31-3.3l.47-.14,.18-.46c3.64-9.43,5.57-20.53,5.57-32.1s-1.84-22.17-5.33-31.49l-.17-.45-.46-.15c-7.39-2.39-15.65-3.74-23.88-3.89-.58-.01-1.12-.02-1.65-.02h0Z"/><path class="cls-8" d="M8.14,7.1s-12.66,32.94,0,66.06"/><path class="cls-8" d="M60.88,7.58s12.66,32.94,0,66.06"/></g></svg>