<svg id="Capa_2" xmlns="http://www.w3.org/2000/svg" xmlns:xlink="http://www.w3.org/1999/xlink" viewBox="0 0 69.02 80.03">
<defs >
<style >
.cls-1{fill:#c89aed;}.cls-2{fill:#fff;}.cls-3{fill:#f8ffbf;}.cls-4{fill:#7b7be8;}.cls-5{fill:#a88347;}.cls-6{fill:#782ab5;}.cls-7,.cls-8{stroke:#000;stroke-miterlimit:10;}.cls-7,.cls-8,.cls-9,.cls-10,.cls-11{fill:none;}.cls-12{fill:#1c46ff;}.cls-8{stroke-width:.75px;}.cls-9{stroke:#deb778;stroke-dasharray:0 0 0 4.06;stroke-linecap:round;stroke-linejoin:round;}.cls-13{fill:#deb778;}.cls-14{fill:url(#USGS_19_Inundación_de_tierra_2);}.cls-11{stroke:#1d1d1b;stroke-dasharray:0 0 2 2;stroke-width:.3px;}.cls-15{fill:#cf5f2b;}.cls-16{fill:#fcf0c5;}.cls-17{fill:#b83521;}
</style>
<pattern id="USGS_19_Inundación_de_tierra_2" x="0" y="0" width="72" height="72" patternTransform="translate(267.52 -16063) rotate(-90)" patternUnits="userSpaceOnUse" viewBox="0 0 72 72">
<g >
<rect class="cls-10" width="72" height="72">
</rect>
<g >
<line class="cls-11" x1="71" y1="71" x2="144.44" y2="71">
</line>
<line class="cls-11" x1="71" y1="67" x2="144.44" y2="67">
</line>
<line class="cls-11" x1="71" y1="63" x2="144.44" y2="63">
</line>
<line class="cls-11" x1="71" y1="59" x2="144.44" y2="59">
</line>
<line class="cls-11" x1="71" y1="55" x2="144.44" y2="55">
</line>
<line class="cls-11" x1="71" y1="51" x2="144.44" y2="51">
</line>
<line class="cls-11" x1="71" y1="47" x2="144.44" y2="47">
</line>
<line class="cls-11" x1="71" y1="43" x2="144.44" y2="43">
</line>
<line class="cls-11" x1="71" y1="39" x2="144.44" y2="39">
</line>
<line class="cls-11" x1="71" y1="35" x2="144.44" y2="35">
</line>
<line class="cls-11" x1="71" y1="31" x2="144.44" y2="31">
</line>
<line class="cls-11" x1="71" y1="27" x2="144.44" y2="27">
</line>
<line class="cls-11" x1="71" y1="23" x2="144.44" y2="23">
</line>
<line class="cls-11" x1="71" y1="19" x2="144.44" y2="19">
</line>
<line class="cls-11" x1="71" y1="15" x2="144.44" y2="15">
</line>
<line class="cls-11" x1="71" y1="11" x2="144.44" y2="11">
</line>
<line class="cls-11" x1="71" y1="7" x2="144.44" y2="7">
</line>
<line class="cls-11" x1="71" y1="3" x2="144.44" y2="3">
</line>
</g>


<g >
<line class="cls-11" x1="-1" y1="71" x2="72.44" y2="71">
</line>
<line class="cls-11" x1="-1" y1="67" x2="72.44" y2="67">
</line>
<line class="cls-11" x1="-1" y1="63" x2="72.44" y2="63">
</line>
<line class="cls-11" x1="-1" y1="59" x2="72.44" y2="59">
</line>
<line class="cls-11" x1="-1" y1="55" x2="72.44" y2="55">
</line>
<line class="cls-11" x1="-1" y1="51" x2="72.44" y2="51">
</line>
<line class="cls-11" x1="-1" y1="47" x2="72.44" y2="47">
</line>
<line class="cls-11" x1="-1" y1="43" x2="72.44" y2="43">
</line>
<line class="cls-11" x1="-1" y1="39" x2="72.44" y2="39">
</line>
<line class="cls-11" x1="-1" y1="35" x2="72.44" y2="35">
</line>
<line class="cls-11" x1="-1" y1="31" x2="72.44" y2="31">
</line>
<line class="cls-11" x1="-1" y1="27" x2="72.44" y2="27">
</line>
<line class="cls-11" x1="-1" y1="23" x2="72.44" y2="23">
</line>
<line class="cls-11" x1="-1" y1="19" x2="72.44" y2="19">
</line>
<line class="cls-11" x1="-1" y1="15" x2="72.44" y2="15">
</line>
<line class="cls-11" x1="-1" y1="11" x2="72.44" y2="11">
</line>
<line class="cls-11" x1="-1" y1="7" x2="72.44" y2="7">
</line>
<line class="cls-11" x1="-1" y1="3" x2="72.44" y2="3">
</line>
<line class="cls-11" x1="1.04" y1="69" x2="74.48" y2="69">
</line>
<line class="cls-11" x1="1.04" y1="65" x2="74.48" y2="65">
</line>
<line class="cls-11" x1="1.04" y1="61" x2="74.48" y2="61">
</line>
<line class="cls-11" x1="1.04" y1="57" x2="74.48" y2="57">
</line>
<line class="cls-11" x1="1.04" y1="53" x2="74.48" y2="53">
</line>
<line class="cls-11" x1="1.04" y1="49" x2="74.48" y2="49">
</line>
<line class="cls-11" x1="1.04" y1="45" x2="74.48" y2="45">
</line>
<line class="cls-11" x1="1.04" y1="41" x2="74.48" y2="41">
</line>
<line class="cls-11" x1="1.04" y1="37" x2="74.48" y2="37">
</line>
<line class="cls-11" x1="1.04" y1="33" x2="74.48" y2="33">
</line>
<line class="cls-11" x1="1.04" y1="29" x2="74.48" y2="29">
</line>
<line class="cls-11" x1="1.04" y1="25" x2="74.48" y2="25">
</line>
<line class="cls-11" x1="1.04" y1="21" x2="74.48" y2="21">
</line>
<line class="cls-11" x1="1.04" y1="17" x2="74.48" y2="17">
</line>
<line class="cls-11" x1="1.04" y1="13" x2="74.48" y2="13">
</line>
<line class="cls-11" x1="1.04" y1="9" x2="74.48" y2="9">
</line>
<line class="cls-11" x1="1.04" y1="5" x2="74.48" y2="5">
</line>
<line class="cls-11" x1="1.04" y1="1" x2="74.48" y2="1">
</line>
</g>


<g >
<line class="cls-11" x1="-73" y1="71" x2=".44" y2="71">
</line>
<line class="cls-11" x1="-73" y1="67" x2=".44" y2="67">
</line>
<line class="cls-11" x1="-73" y1="63" x2=".44" y2="63">
</line>
<line class="cls-11" x1="-73" y1="59" x2=".44" y2="59">
</line>
<line class="cls-11" x1="-73" y1="55" x2=".44" y2="55">
</line>
<line class="cls-11" x1="-73" y1="51" x2=".44" y2="51">
</line>
<line class="cls-11" x1="-73" y1="47" x2=".44" y2="47">
</line>
<line class="cls-11" x1="-73" y1="43" x2=".44" y2="43">
</line>
<line class="cls-11" x1="-73" y1="39" x2=".44" y2="39">
</line>
<line class="cls-11" x1="-73" y1="35" x2=".44" y2="35">
</line>
<line class="cls-11" x1="-73" y1="31" x2=".44" y2="31">
</line>
<line class="cls-11" x1="-73" y1="27" x2=".44" y2="27">
</line>
<line class="cls-11" x1="-73" y1="23" x2=".44" y2="23">
</line>
<line class="cls-11" x1="-73" y1="19" x2=".44" y2="19">
</line>
<line class="cls-11" x1="-73" y1="15" x2=".44" y2="15">
</line>
<line class="cls-11" x1="-73" y1="11" x2=".44" y2="11">
</line>
<line class="cls-11" x1="-73" y1="7" x2=".44" y2="7">
</line>
<line class="cls-11" x1="-73" y1="3" x2=".44" y2="3">
</line>
<line class="cls-11" x1="-70.96" y1="69" x2="2.48" y2="69">
</line>
<line class="cls-11" x1="-70.96" y1="65" x2="2.48" y2="65">
</line>
<line class="cls-11" x1="-70.96" y1="61" x2="2.48" y2="61">
</line>
<line class="cls-11" x1="-70.96" y1="57" x2="2.48" y2="57">
</line>
<line class="cls-11" x1="-70.96" y1="53" x2="2.48" y2="53">
</line>
<line class="cls-11" x1="-70.96" y1="49" x2="2.48" y2="49">
</line>
<line class="cls-11" x1="-70.96" y1="45" x2="2.48" y2="45">
</line>
<line class="cls-11" x1="-70.96" y1="41" x2="2.48" y2="41">
</line>
<line class="cls-11" x1="-70.96" y1="37" x2="2.48" y2="37">
</line>
<line class="cls-11" x1="-70.96" y1="33" x2="2.48" y2="33">
</line>
<line class="cls-11" x1="-70.96" y1="29" x2="2.48" y2="29">
</line>
<line class="cls-11" x1="-70.96" y1="25" x2="2.48" y2="25">
</line>
<line class="cls-11" x1="-70.96" y1="21" x2="2.48" y2="21">
</line>
<line class="cls-11" x1="-70.96" y1="17" x2="2.48" y2="17">
</line>
<line class="cls-11" x1="-70.96" y1="13" x2="2.48" y2="13">
</line>
<line class="cls-11" x1="-70.96" y1="9" x2="2.48" y2="9">
</line>
<line class="cls-11" x1="-70.96" y1="5" x2="2.48" y2="5">
</line>
<line class="cls-11" x1="-70.96" y1="1" x2="2.48" y2="1">
</line>
</g>


</g>


</pattern>
</defs>



<g id="Characters">
<g >
<path class="cls-1" d="M64.07,64.8l-1.61,9.75-24.86,5.48-30.48-4.94-3.75-8.83,21.26-8.82-.13-4.01-.53-1.08s-.67-1.46-2.01-6.68c-3.07-.27-5.08-4.15-6.15-7.09-1.07-2.94,.67-7.08,3.87-4.01-.1-.26-.35-1.9-.29-4.24,.1-3.88,1.05-9.65,4.97-14.08,7.22-7.89,12.17-6.01,12.17-6.01,10.04,3.06,13.55,9.82,14.53,16.22,.42,2.8,.37,5.52,.17,7.84,2.41-2.81,4.68-.54,3.34,4.94-1.07,5.08-5.75,6.42-5.75,6.42l-2.81,8.42,.4,3.74,17.65,6.96Z">
</path>
<path class="cls-2" d="M35.6,29.56v29.43l4.68-.3,5.89-5.36s3.02-10.04,4.23-14.79,.75-11.85,.6-12.53-6.94-3.09-8.98-2.04-6.41,5.58-6.41,5.58Z">
</path>
<path d="M51.06,26.48l-1.4-.38-1.2,3.03s-2.26-1.09-3.03-6.49c-2.92,6.06-9.2,6.6-9.2,6.6,0,0,3.36-4.23,4.87-9.42-2.92,2.6-6.7,4.01-9.95,5.52-3.25,1.51-5.71,3.35-5.71,3.35l-.02-1.95c-1.94,2.03-5.13,3.27-6.04,3.61,.1-3.88,1.05-9.65,4.97-14.08,7.22-7.89,12.17-6.01,12.17-6.01,10.04,3.06,13.55,9.82,14.53,16.22Z">
</path>
<path class="cls-12" d="M28.85,12.58s-4.96,4.23-6.62,7.54c4.23-1.84,9.18-4.08,12.62-1.49,6.51,4.9,4.66-4.49,12.94,.11-2.76-3.4-5.79-6.07-5.79-6.07,0,0-1.17,5.78-5.18,1.86-3.29-3.21-9.89,4.76-7.96-1.95Z">
</path>
<path d="M19.68,34.59s-1.33-2.19-3.23-.89-.8,5.6,.3,7.59,3.22,4.68,5.21,4.39c-1.28-5.27-2.27-11.09-2.27-11.09Z">
</path>
<path d="M40.33,58.98l-19.08,16.29-14.29-2.7-1.9-7.69,19.57-7.43-.13-4.01,5.64,4.94s6.49,1.4,10.19,.6Z">
</path>
<path class="cls-3" d="M31.16,35.36l-5.13,.16s-2.53,1.34-3,2.37c5.21,1.03,6.87,.63,6.87,.63,0,0,1.11-1.97,1.26-3.16Z">
</path>
<path class="cls-3" d="M40.41,38.37s-1.17-1.46-1.17-2.82c4.18-.29,5.25,0,5.25,0,0,0,2.53,1.36,3.01,2.33-3.79,1.17-7.09,.49-7.09,.49Z">
</path>
<path class="cls-17" d="M46.09,56.48s-2.03,4.7-10.56,5.02c-11.2,7.47-16.11,13.55-16.11,13.55,0,0,9.92,5.76,22.2,3.63s21.13-5.12,21.13-5.12l.96-9.18-17.28-6.53-.33-1.37Z">
</path>
<path class="cls-4" d="M32.79,31.87l-1.04,4.1-5.72-.46-3.72,2.54s-1.53-4.45-1.04-5.59c4.28-1.58,4.8-1.73,4.8-1.73,0,0,4.35-.44,6.72,1.14Z">
</path>
<path class="cls-4" d="M37.35,31.87l1.56,4.26,5.2-.62,4.1,2.6s1.08-4.38,.59-5.51c-4.28-1.58-4.73-1.87-4.73-1.87,0,0-4.35-.44-6.72,1.14Z">
</path>
<path class="cls-1" d="M37.09,24.46c-1.17,1.81-2.59,3.51-4.2,5.02l-2.14,2.02,2.93-.29c4.1-.41,8.25-1.25,11.2-4.38,.68,1.74,1.72,2.97,3.17,3.75l.41,.21,.67,.35,.52-.55c.06-.07,.12-.14,.18-.21-.06,3.55-.74,6.76-1.15,8.67-.09,.42-.17,.79-.23,1.09-.48,2.45-2.83,10.14-3.48,12.25l-5.39,4.94c-1.44,.26-2.94,.39-4.47,.39-1.32,0-2.64-.1-3.94-.29l-5.51-5.04c-.49-1.59-2.97-9.71-3.47-12.27l-.08-.38c-.04-.19-.09-.4-.14-.66-.35-1.59-.99-4.47-1.15-7.73,.73-.29,1.75-.73,2.8-1.3l-.21,2.14,1.84-1.42c2.88-2.23,6.21-3.81,9.06-5.04,.98-.39,1.9-.81,2.77-1.26m2.7-2.88c-1.78,1.36-3.82,2.41-5.84,3.21-3.31,1.43-6.5,3.01-9.31,5.18,.07-.67,.19-1.32,.34-1.97-1.92,1.44-4.37,2.37-5.18,2.66,.09,3.55,.78,6.73,1.2,8.63,.08,.4,.16,.74,.21,1.02,.52,2.7,3.2,11.4,3.57,12.63l5.94,5.43c1.18,.19,2.68,.35,4.39,.35,1.51,0,3.18-.12,4.93-.46l5.8-5.31c.38-1.22,3.06-9.93,3.58-12.61,.06-.29,.13-.65,.22-1.06,.52-2.44,1.49-6.97,1.08-11.67l-.51-.49c-.14,1.03-.57,2.01-1.31,2.81l-.41-.21c-1.94-1.04-2.78-2.97-3.21-4.99-2.63,3.96-6.93,5.04-11.72,5.51,2.58-2.43,4.74-5.35,6.2-8.6,.01-.01,.01-.02,.01-.03h0Z">
</path>
<path class="cls-2" d="M24.54,42.2s3.67,.19,7.05-2.22c-2.32,4.34-4.63,4.34-4.63,4.34l-2.41-2.12Z">
</path>
<path class="cls-15" d="M43.59,59.09l-.21,6.97s-1.58,1.37-3.59,1.9v-7.08l3.8-1.8Z">
</path>
<path class="cls-15" d="M48.47,61.68s-1.3,7.22-11.96,9.99c6.72-.59,9.79-3.26,10.58-1.68s-6.53,3.56-6.62,6.23c14.73-.99,20.67-2.97,20.67-2.97l1.58-6.13-14.24-5.44Z">
</path>
<path class="cls-2" d="M51.23,34.32s2.69-.26,2.35,2.74-2.74,7.12-2.83,7.55c4.8-4.03,4.12-7.29,4.2-9.44s-2.55-2.48-3.72-.85Z">
</path>
<path class="cls-7" d="M35.78,9.97s-.04,0-.13-.01c-.3-.02-.52-.01-.64,0-1.99,.08-7.5,1.13-13.3,9.66-4.44,7.61-1.6,17.83-1.02,20.79,.57,2.95,3.63,12.82,3.63,12.82l6.17,5.64c2.35,.39,5.94,.65,9.83-.12l6.04-5.51s3.07-9.87,3.64-12.82c.57-2.96,3.41-13.18-1.02-20.79-5.68-8.35-11.08-9.54-13.18-9.65-.04-.01-.09-.01-.13-.01-.3-.02-.52-.01-.64,0-.09,.01-.13,.01-.13,.01">
</path>
<path class="cls-7" d="M19.37,30.22s4.58-1.5,6.62-3.89">
</path>
<path d="M32.22,18.25c-3.24,2.63-5.68,6.36-6.28,10.52,0,0-.8-.47-.8-.47,4.95-3.92,11.7-4.78,15.92-9.57,0,0,1.83-1.96,1.83-1.96-1.13,3.75-2.65,7.5-5.04,10.62-.6,.82-1.29,1.59-2,2.33l-.5-1.03c5.95-.8,8.28-2.75,10.74-8.12,.15,2.74,.24,6.59,2.89,8.13,0,0-.64,.13-.64,.13,1.01-1.14,.91-2.89,.76-4.3,.61,.58,2.04,2.01,2.66,2.6,0,0-.7,.72-.7,.72l-1.71-1.65s.86-.42,.86-.42c.11,1.48-.3,2.95-1.33,4.05-2.1-.85-3.08-3.06-3.55-5.12-.14-.64-.24-1.25-.29-1.93l1.12,.22c-2.43,5.25-7.05,6.59-12.38,7.12,2.51-2.43,4.61-5.28,6.05-8.47,.41-.88,.79-1.8,1.09-2.69l1,.57c-2.14,2.43-5.09,4.05-8.01,5.21-3.26,1.43-6.43,2.96-9.2,5.11,.52-4.77,3.25-9.27,7.49-11.59h0Z">
</path>
<path d="M21.25,32.61c1.31-.87,2.69-1.6,4.17-2.21,1.32-.24,2.63-.22,3.91-.12,1.27,.1,2.5,.29,3.75,.57l-.48,1.79c-2.11-.63-5.03-1.3-6.91-1.28-1.3,.27-3.16,.87-4.45,1.24h0Z">
</path>
<path d="M48.81,32.61c-1.31-.38-3.15-.97-4.45-1.24-1.88-.02-4.8,.65-6.91,1.28,0,0-.48-1.79-.48-1.79,1.26-.28,2.49-.47,3.75-.57,1.28-.1,2.6-.12,3.91,.12,1.48,.61,2.86,1.34,4.17,2.21h0Z">
</path>
<path class="cls-8" d="M31.38,35.54s-4.05-.51-5.62,.05c-2.43,1.32-2.94,2.28-2.94,2.28,0,0,3.8,1.27,6.94,.46,1.32-1.27,1.62-2.79,1.62-2.79Z">
</path>
<path class="cls-8" d="M39.08,35.54s4.05-.51,5.62,.05c2.43,1.32,2.94,2.28,2.94,2.28,0,0-3.8,1.27-6.94,.46-1.32-1.27-1.62-2.79-1.62-2.79Z">
</path>
<path d="M38.06,42.49c1.19,1.07,.48,2.43-.75,3.11-.25-.36-.5-.74-.73-1.11,0,0,.51,.07,.51,.07-.56,.54-1.15,1.06-1.72,1.59,0,0-.25-.23-.25-.23-.5-.45-1-.89-1.49-1.36l.51-.07-.55,.84-.18,.27c-1.24-.68-1.96-2.04-.76-3.11-.68,1-.18,2,.83,2.44,0,0-.41,.11-.41,.11l.49-.91,.18-.34c.64,.5,1.25,1.04,1.86,1.57,0,0-.5,0-.5,0,.61-.53,1.22-1.07,1.85-1.57,.22,.41,.47,.83,.68,1.25,0,0-.41-.11-.41-.11,1.01-.44,1.51-1.44,.83-2.44h0Z">
</path>
<path d="M22.07,41.71c1.13,1.5,2.41,2.81,3.98,3.57,.4,1.53,.78,3.07,1.06,4.63,.27,1.49,.52,2.98,.61,4.51-.6-1.41-1.05-2.86-1.47-4.31-.42-1.45-.76-2.93-1.07-4.4l.24,.31c-1.62-.96-2.79-2.55-3.36-4.31h0Z">
</path>
<path d="M48.64,41.71c-.57,1.76-1.73,3.34-3.36,4.31,0,0,.24-.31,.24-.31-.31,1.48-.65,2.95-1.07,4.4-.42,1.45-.87,2.9-1.47,4.31,.09-1.53,.34-3.02,.61-4.51,.29-1.56,.66-3.1,1.06-4.63,1.57-.76,2.86-2.07,3.98-3.57h0Z">
</path>
<path class="cls-7" d="M24.59,57.31l.13,5.5c0,3.43,4.62,6.2,10.33,6.2s10.89-3.37,10.89-6.8l.2-8.69">
</path>
<path class="cls-7" d="M24.5,55.4c0,3.43,4.67,6.2,10.44,6.2s11-3.37,11-6.8">
</path>
<polyline class="cls-7" points="24.47 53.52 24.56 57.44 5.36 65.27">
</polyline>
<polyline class="cls-7" points="46.13 53.52 46.04 57.44 65.24 65.27">
</polyline>
<path class="cls-7" d="M19.56,34.72s-.98-2.42-3.11-1.08-.3,11.38,5.48,11.99">
</path>
<path class="cls-7" d="M51,34.72s.98-2.42,3.11-1.08,.3,11.38-5.48,11.99">
</path>
<path d="M41.39,50.13s-2.34-2.62-4.52-2.94c-.73-.1-1.31-.08-1.75,0-.44-.08-1.02-.1-1.75,0-2.19,.32-4.52,2.94-4.52,2.94,0,0,3.83-1.14,6.08-1.14s6.45,1.14,6.45,1.14Z">
</path>
<path d="M31.75,51.13l3.46-.07c1.05-.01,2.42-.11,3.48-.02-2.03,1.28-4.91,1.45-6.94,.09h0Z">
</path>
<path d="M30.78,39.13c-.83,1.39-2.84,1.58-4.26,1.1,1.5-.24,2.96-.28,4.26-1.1h0Z">
</path>
<path d="M39.9,39.13c1.3,.83,2.76,.86,4.26,1.1-.18,.07-.37,.11-.56,.16-1.3,.22-2.98-.03-3.7-1.26h0Z">
</path>
<path class="cls-12" d="M8.05,65.62c4.23-1.84,12.75-5.48,17-7.25-.11,.33,.22-3.3,.2-3.23,0,0,.1,0,.1,0,.13,1.2,.24,2.4,.25,3.6-5.51,2.89-11.51,5.78-17.54,6.88h0Z">
</path>
<path class="cls-12" d="M16.06,34.6c.91,3.91,1.93,7.15,4.69,10.04-1.53-.41-3.33-2.64-3.97-4.23-.75-1.84-1-3.85-.82-5.82,0,0,.1,.01,.1,.01h0Z">
</path>
</g>


</g>




 <g
     id="g2850">
    <g
       id="g2837">
      <path
         id="path1951"
         d="M 0.056640625 0.04296875 L 0.056640625 79.943359 L 69.308594 79.943359 L 69.308594 0.04296875 L 0.056640625 0.04296875 z M 33.615234 3.5957031 C 34.206332 3.5957038 34.786991 3.6051034 35.421875 3.6152344 C 44.430653 3.7671809 53.471255 5.1336733 61.560547 7.5546875 L 62.064453 7.7070312 L 62.25 8.1640625 C 66.070247 17.605006 66.990234 28.726438 66.990234 40.0625 C 66.990234 51.398562 65.972723 63.025755 61.988281 72.578125 L 61.791016 73.044922 L 61.275391 73.185547 C 53.273669 75.403966 44.691921 76.529297 35.759766 76.529297 C 35.212453 76.529297 34.675812 76.519896 34.150391 76.509766 L 33.943359 76.509766 C 24.901742 76.357819 15.860367 74.989738 7.7929688 72.558594 L 7.2890625 72.40625 L 7.1035156 71.951172 C 3.2942144 62.520359 2.375 51.369168 2.375 40.0625 C 2.375 28.755832 3.3819737 17.127318 7.3554688 7.5546875 L 7.5527344 7.0898438 L 8.0664062 6.9472656 C 15.509867 4.890923 23.785212 3.7371557 32.005859 3.6054688 C 32.542226 3.5953387 33.078867 3.5957031 33.615234 3.5957031 z "
         style="opacity:1;vector-effect:none;fill:#ffffff;fill-opacity:1;fill-rule:nonzero;stroke:none;stroke-width:1.95200002;stroke-linecap:butt;stroke-linejoin:miter;stroke-miterlimit:4;stroke-dasharray:none;stroke-dashoffset:0;stroke-opacity:1" />
    </g>
    <path
       id="path1154-8-2"
       d="m 33.675163,6.6112954 c 0.557696,0 1.115392,0.00956 1.683415,0.019115 8.427403,0.14336 16.803167,1.4049288 24.363042,3.6700176 3.573384,8.830981 4.443772,19.417362 4.443772,29.761551 0,10.344189 -0.95301,21.39888 -4.68131,30.334991 -7.435942,2.064385 -15.429581,3.274388 -23.774362,3.274388 -0.506058,0 -1.012115,-0.0096 -1.518172,-0.01911 h -0.17557 C 25.56792,73.508883 17.192156,72.088619 9.6426089,69.813973 6.0795528,61.002107 5.2088244,50.415411 5.2088244,40.061979 c 0,-10.353432 0.95335,-21.389323 4.6609939,-30.325434 C 16.820359,7.8155201 24.462856,6.7450981 32.177647,6.6208528 c 0.49573,-0.00956 1.001787,-0.00956 1.497516,-0.00956 m 0,-0.9557337 c -0.506057,0 -1.012114,0 -1.518171,0.00956 C 24.40089,5.7893644 16.593149,6.8789009 9.570315,8.8190405 L 9.0849131,8.9528432 8.8990146,9.3924808 C 5.1500599,18.424166 4.1999116,29.394246 4.1999116,40.061979 c 0,10.667733 0.8675267,21.188618 4.461566,30.0865 l 0.1755708,0.430081 0.4750741,0.14336 c 7.6115135,2.293761 16.1421925,3.584001 24.6728715,3.727361 h 0.196227 c 0.495729,0.0096 1.001786,0.01911 1.518171,0.01911 8.427403,0 16.524318,-1.060864 24.073866,-3.153921 l 0.485403,-0.133802 0.185898,-0.439639 c 3.759282,-9.01257 4.719759,-19.983589 4.719759,-30.679055 0,-10.695466 -0.867528,-21.188618 -4.471894,-30.0960578 L 60.516853,9.5358409 60.041779,9.3924808 C 52.409609,7.108277 43.87893,5.8180364 35.379234,5.6746763 34.780227,5.6651187 34.232859,5.6555621 33.675163,5.6555615 Z"
       style="fill:#ff0000;stroke:#ffffff;stroke-width:1.84341729;stroke-miterlimit:4;stroke-dasharray:none" />
    <path
       id="path1154"
       d="m 33.614853,4.6077955 c 0.591098,0 1.182197,0.01013 1.784241,0.02026 8.932155,0.1519464 17.809578,1.4890758 25.822246,3.8898304 3.787408,9.3599041 4.709928,20.5803481 4.709928,31.5440931 0,10.963745 -1.01009,22.680548 -4.961693,32.151879 -7.881312,2.18803 -16.353723,3.302304 -25.198307,3.302304 -0.536368,0 -1.072735,-0.01013 -1.609102,-0.02026 H 33.97608 C 25.022033,75.343956 16.14461,74.006827 8.1428892,71.595943 4.3664269,62.256298 3.443547,51.035521 3.443547,40.061979 c 0,-10.973542 1.01045,-22.670418 4.9401601,-32.1417498 7.3668369,-2.036083 15.4670749,-3.170617 23.6439369,-3.3023039 0.525421,-0.01013 1.061788,-0.01013 1.587209,-0.01013 m 0,-1.0129766 c -0.536367,0 -1.072734,0 -1.609101,0.01013 C 23.785105,3.7366356 15.509726,4.891429 8.0662653,6.9477716 L 7.5517907,7.0895883 7.3547579,7.5555576 C 3.3812628,17.128188 2.3742062,28.755311 2.3742062,40.061979 c 0,11.306668 0.9194864,22.457692 4.7287876,31.888505 l 0.1860865,0.45584 0.5035283,0.151947 c 8.0673984,2.431144 17.1090154,3.798662 26.1506324,3.950608 h 0.207979 c 0.525421,0.01013 1.061788,0.02026 1.609101,0.02026 8.932155,0 17.514028,-1.124404 25.51575,-3.342823 l 0.514475,-0.141816 0.197032,-0.46597 c 3.984442,-9.55237 5.002445,-21.180489 5.002445,-32.516551 0,-11.336062 -0.919487,-22.457692 -4.739734,-31.8986353 L 62.064202,7.7075041 61.560674,7.5555576 C 53.471382,5.1345434 44.429765,3.7670249 35.420987,3.6150784 c -0.634884,-0.01013 -1.215036,-0.020259 -1.806134,-0.02026 z"
       style="fill:#000000;stroke:#000000;stroke-width:1.95382714;stroke-miterlimit:4;stroke-dasharray:none" />
    <g
       id="g1810">
      <path
         d="M 6.5134911,7.7433673 C 5.6489029,6.8479453 4.058602,6.5681013 3.6272194,7.3820013 3.284151,8.0292783 3.3625296,8.5309135 4.395235,8.9201755 3.2963719,9.5187755 1.4857674,9.4447465 1.1893447,7.4467713 0.95320848,5.8551433 2.674739,4.8863543 3.1399725,5.0916244 3.0034432,3.6818714 1.8221094,4.0692802 0.95849208,3.2813384 0.34259068,2.7194046 0.23126071,-0.02624603 0.0561761,0.04378767 -0.0138576,0.21887227 2.7317937,0.33020157 3.2937267,0.94610377 4.0816685,1.8097211 3.6942598,2.9910547 5.1040128,3.1275841 4.8987425,2.6623507 5.8675315,0.94082017 7.4591593,1.1769564 9.4571345,1.4733791 9.5311625,3.2839847 8.9325635,4.3828467 8.5433008,3.3501417 8.041666,3.2717627 7.3943894,3.6148312 6.5804899,4.0462137 6.8603354,5.6365129 7.7557553,6.5011023"
         style="fill:#000000;stroke:#000000;stroke-width:0.1112323px;stroke-linecap:butt;stroke-linejoin:miter;stroke-opacity:1"
         id="path1737-3" />
      <path
         d="m 62.850738,7.7433673 c 0.864588,-0.895422 2.454889,-1.175266 2.886271,-0.361366 0.343069,0.647277 0.26469,1.148912 -0.768015,1.538174 1.098863,0.5986 2.909467,0.524571 3.20589,-1.473404 0.236136,-1.591628 -1.485394,-2.560417 -1.950628,-2.3551469 0.13653,-1.409753 1.317863,-1.0223442 2.181481,-1.810286 0.615901,-0.5619338 0.727231,-3.30758442 0.902316,-3.23755072 0.07003,0.1750846 -2.675618,0.2864139 -3.237551,0.9023161 C 65.28256,1.8097211 65.669969,2.9910547 64.260216,3.1275841 64.465486,2.6623507 63.496697,0.94082018 61.905069,1.1769564 c -1.997975,0.2964227 -2.072003,2.1070283 -1.473404,3.2058903 0.389263,-1.032705 0.890898,-1.111084 1.538174,-0.7680155 0.8139,0.4313825 0.534054,2.0216817 -0.361366,2.8862711"
         style="fill:#000000;stroke:#000000;stroke-width:0.1112323px;stroke-linecap:butt;stroke-linejoin:miter;stroke-opacity:1"
         id="path1737-3-5" />
      <path
         d="m 62.850738,72.244244 c 0.864588,0.895422 2.454889,1.175266 2.886272,0.361366 0.343068,-0.647277 0.264689,-1.148912 -0.768016,-1.538174 1.098863,-0.5986 2.909468,-0.524571 3.20589,1.473404 0.236137,1.591628 -1.485394,2.560417 -1.950628,2.355147 0.13653,1.409753 1.317864,1.022344 2.181481,1.810286 0.615901,0.561934 0.727231,3.307584 0.902316,3.237551 0.07003,-0.175085 -2.675618,-0.286414 -3.237551,-0.902317 -0.787942,-0.863617 -0.400533,-2.04495 -1.810286,-2.18148 0.20527,0.465234 -0.763519,2.186764 -2.355146,1.950628 -1.997976,-0.296423 -2.072004,-2.107028 -1.473405,-3.20589 0.389263,1.032705 0.890898,1.111084 1.538175,0.768015 0.813899,-0.431382 0.534054,-2.021682 -0.361366,-2.886271"
         style="fill:#000000;stroke:#000000;stroke-width:0.1112323px;stroke-linecap:butt;stroke-linejoin:miter;stroke-opacity:1"
         id="path1737-3-7" />
      <path
         d="M 6.513491,72.244245 C 5.648903,73.139667 4.058602,73.419511 3.62722,72.605611 3.284151,71.958334 3.36253,71.456699 4.395235,71.067437 c -1.098863,-0.5986 -2.909467,-0.524571 -3.20589,1.473404 -0.23613599,1.591628 1.485394,2.560417 1.950628,2.355147 -0.13653,1.409753 -1.317863,1.022344 -2.18148099,1.810286 -0.615901,0.561933 -0.727231,3.307584 -0.902316,3.23755 C -0.01385399,79.76874 2.731794,79.65741 3.293727,79.041508 4.081669,78.177891 3.69426,76.996557 5.104013,76.860028 4.898743,77.325261 5.867532,79.046792 7.45916,78.810656 9.457135,78.514233 9.531163,76.703627 8.932564,75.604765 8.543301,76.63747 8.041666,76.715849 7.39439,76.372781 6.58049,75.941398 6.860336,74.351099 7.755756,73.48651"
         style="fill:#000000;stroke:#000000;stroke-width:0.1112323px;stroke-linecap:butt;stroke-linejoin:miter;stroke-opacity:1"
         id="path1737-3-5-5" />
    </g>
    <path
       id="path1154-9"
       d="m 33.712865,7.4258691 c 0.536813,0 1.07363,0.00933 1.620386,0.01865 8.111875,0.1398689 16.174044,1.3707167 23.450873,3.5806479 3.439594,8.615932 4.277395,18.944521 4.277395,29.036812 0,10.092292 -0.917329,20.877786 -4.506039,29.596289 -7.157536,2.014114 -14.851888,3.03982 -22.884234,3.03982 -0.487111,0 -0.974221,-0.0094 -1.461331,-0.01865 H 34.040918 C 25.909161,72.53957 17.846991,71.308722 10.580105,69.089467 7.1504515,60.492184 6.3123238,50.163289 6.3123238,40.061979 c 0,-10.101311 0.9176558,-20.868461 4.4864832,-29.586965 6.690308,-1.8742449 14.046665,-2.9186005 21.472608,-3.0398203 0.47717,-0.00933 0.964281,-0.00933 1.44145,-0.00933 m 0,-0.9324602 c -0.487111,0 -0.974221,0 -1.46133,0.00933 C 24.785826,6.6239532 17.270413,7.686958 10.510517,9.5798526 L 10.043289,9.710397 9.8643508,10.139328 c -3.6085914,8.811751 -4.5231655,19.514693 -4.5231655,29.922651 0,10.407958 0.8350459,20.672644 4.294522,29.353849 l 0.1689973,0.419608 0.4572874,0.13987 c 7.326533,2.237904 15.537818,3.496724 23.749103,3.636593 h 0.188879 c 0.47717,0.0094 0.96428,0.01865 1.461331,0.01865 8.111875,0 15.905636,-1.035031 23.172525,-3.077119 l 0.467228,-0.130544 0.178938,-0.428932 c 3.618533,-8.793101 4.543048,-19.496959 4.543048,-29.931975 0,-10.435016 -0.835047,-20.672644 -4.304463,-29.363174 l -0.168997,-0.419609 -0.457288,-0.13987 C 51.74588,7.9107484 43.534594,6.6519271 35.353133,6.512058 34.776554,6.502738 34.249678,6.493409 33.712865,6.493409 Z"
       style="fill:#000000;stroke:none;stroke-width:1.78642213;stroke-miterlimit:4;stroke-dasharray:none" />
    <path
       id="path1154-9-3"
       d="m 33.712865,7.4258686 c 0.536813,0 1.07363,0.00933 1.620386,0.01865 8.111875,0.1398689 16.174044,1.3707167 23.450873,3.5806484 3.439594,8.615932 4.277395,18.944521 4.277395,29.036812 0,10.092292 -0.917329,20.877786 -4.506039,29.596288 -7.157536,2.014114 -14.851888,3.03982 -22.884234,3.03982 -0.487111,0 -0.974221,-0.0094 -1.461331,-0.01865 H 34.040918 C 25.909161,72.539569 17.846991,71.308722 10.580105,69.089466 7.1504515,60.492184 6.3123238,50.163288 6.3123238,40.061979 c 0,-10.101312 0.9176558,-20.868461 4.4864832,-29.586965 6.690308,-1.8742454 14.046665,-2.918601 21.472608,-3.0398208 0.47717,-0.00933 0.964281,-0.00933 1.44145,-0.00933 m 0,-0.9324602 c -0.487111,0 -0.974221,0 -1.46133,0.00933 C 24.785826,6.6239527 17.270413,7.6869575 10.510517,9.5798521 L 10.043289,9.7103965 9.8643508,10.139328 C 6.2557594,18.951079 5.3411853,29.65402 5.3411853,40.061979 c 0,10.407958 0.8350459,20.672643 4.294522,29.353849 l 0.1689973,0.419608 0.4572874,0.13987 c 7.326533,2.237904 15.537818,3.496724 23.749103,3.636593 h 0.188879 c 0.47717,0.0094 0.96428,0.01865 1.461331,0.01865 8.111875,0 15.905636,-1.035032 23.172525,-3.077119 l 0.467228,-0.130544 0.178938,-0.428932 c 3.618533,-8.793101 4.543048,-19.49696 4.543048,-29.931975 0,-10.435016 -0.835047,-20.672644 -4.304463,-29.363175 l -0.168997,-0.419609 -0.457288,-0.13987 C 51.74588,7.9107479 43.534594,6.6519266 35.353133,6.5120575 34.776554,6.5027375 34.249678,6.4934085 33.712865,6.4934085 Z"
       style="fill:#000000;stroke:none;stroke-width:1.78642213;stroke-miterlimit:4;stroke-dasharray:none" />
  </g>
</svg>
