<?xml version="1.0" encoding="UTF-8"?><svg id="Capa_2" xmlns="http://www.w3.org/2000/svg" xmlns:xlink="http://www.w3.org/1999/xlink" viewBox="0 0 69.02 80"><defs><style>.cls-1{fill:#c89aed;}.cls-2{fill:#fff;}.cls-3{fill:#f8ffbf;}.cls-4{fill:#7b7be8;}.cls-5{fill:#a88347;}.cls-6{fill:#782ab5;}.cls-7{stroke-miterlimit:10;}.cls-7,.cls-8{stroke:#000;}.cls-7,.cls-8,.cls-9,.cls-10,.cls-11{fill:none;}.cls-8,.cls-9{stroke-linecap:round;stroke-linejoin:round;}.cls-9{stroke:#deb778;stroke-dasharray:0 0 0 4.06;}.cls-12{fill:#deb778;}.cls-13{fill:url(#USGS_19_Inundación_de_tierra_2);}.cls-11{stroke:#1d1d1b;stroke-dasharray:0 0 2 2;stroke-width:.3px;}.cls-14{fill:#cf5f2b;}.cls-15{fill:#ccbc64;}.cls-16{fill:#fcf0c5;}.cls-17{fill:#b83521;}</style><pattern id="USGS_19_Inundación_de_tierra_2" x="0" y="0" width="72" height="72" patternTransform="translate(-236.48 -16999) rotate(-90)" patternUnits="userSpaceOnUse" viewBox="0 0 72 72"><g><rect class="cls-10" width="72" height="72"/><g><line class="cls-11" x1="71" y1="71" x2="144.44" y2="71"/><line class="cls-11" x1="71" y1="67" x2="144.44" y2="67"/><line class="cls-11" x1="71" y1="63" x2="144.44" y2="63"/><line class="cls-11" x1="71" y1="59" x2="144.44" y2="59"/><line class="cls-11" x1="71" y1="55" x2="144.44" y2="55"/><line class="cls-11" x1="71" y1="51" x2="144.44" y2="51"/><line class="cls-11" x1="71" y1="47" x2="144.44" y2="47"/><line class="cls-11" x1="71" y1="43" x2="144.44" y2="43"/><line class="cls-11" x1="71" y1="39" x2="144.44" y2="39"/><line class="cls-11" x1="71" y1="35" x2="144.44" y2="35"/><line class="cls-11" x1="71" y1="31" x2="144.44" y2="31"/><line class="cls-11" x1="71" y1="27" x2="144.44" y2="27"/><line class="cls-11" x1="71" y1="23" x2="144.44" y2="23"/><line class="cls-11" x1="71" y1="19" x2="144.44" y2="19"/><line class="cls-11" x1="71" y1="15" x2="144.44" y2="15"/><line class="cls-11" x1="71" y1="11" x2="144.44" y2="11"/><line class="cls-11" x1="71" y1="7" x2="144.44" y2="7"/><line class="cls-11" x1="71" y1="3" x2="144.44" y2="3"/></g>
<g><line class="cls-11" x1="-1" y1="71" x2="72.44" y2="71"/><line class="cls-11" x1="-1" y1="67" x2="72.44" y2="67"/><line class="cls-11" x1="-1" y1="63" x2="72.44" y2="63"/><line class="cls-11" x1="-1" y1="59" x2="72.44" y2="59"/><line class="cls-11" x1="-1" y1="55" x2="72.44" y2="55"/><line class="cls-11" x1="-1" y1="51" x2="72.44" y2="51"/><line class="cls-11" x1="-1" y1="47" x2="72.44" y2="47"/><line class="cls-11" x1="-1" y1="43" x2="72.44" y2="43"/><line class="cls-11" x1="-1" y1="39" x2="72.44" y2="39"/><line class="cls-11" x1="-1" y1="35" x2="72.44" y2="35"/><line class="cls-11" x1="-1" y1="31" x2="72.44" y2="31"/><line class="cls-11" x1="-1" y1="27" x2="72.44" y2="27"/><line class="cls-11" x1="-1" y1="23" x2="72.44" y2="23"/><line class="cls-11" x1="-1" y1="19" x2="72.44" y2="19"/><line class="cls-11" x1="-1" y1="15" x2="72.44" y2="15"/><line class="cls-11" x1="-1" y1="11" x2="72.44" y2="11"/><line class="cls-11" x1="-1" y1="7" x2="72.44" y2="7"/><line class="cls-11" x1="-1" y1="3" x2="72.44" y2="3"/><line class="cls-11" x1="1.04" y1="69" x2="74.48" y2="69"/><line class="cls-11" x1="1.04" y1="65" x2="74.48" y2="65"/><line class="cls-11" x1="1.04" y1="61" x2="74.48" y2="61"/><line class="cls-11" x1="1.04" y1="57" x2="74.48" y2="57"/><line class="cls-11" x1="1.04" y1="53" x2="74.48" y2="53"/><line class="cls-11" x1="1.04" y1="49" x2="74.48" y2="49"/><line class="cls-11" x1="1.04" y1="45" x2="74.48" y2="45"/><line class="cls-11" x1="1.04" y1="41" x2="74.48" y2="41"/><line class="cls-11" x1="1.04" y1="37" x2="74.48" y2="37"/><line class="cls-11" x1="1.04" y1="33" x2="74.48" y2="33"/><line class="cls-11" x1="1.04" y1="29" x2="74.48" y2="29"/><line class="cls-11" x1="1.04" y1="25" x2="74.48" y2="25"/><line class="cls-11" x1="1.04" y1="21" x2="74.48" y2="21"/><line class="cls-11" x1="1.04" y1="17" x2="74.48" y2="17"/><line class="cls-11" x1="1.04" y1="13" x2="74.48" y2="13"/><line class="cls-11" x1="1.04" y1="9" x2="74.48" y2="9"/><line class="cls-11" x1="1.04" y1="5" x2="74.48" y2="5"/><line class="cls-11" x1="1.04" y1="1" x2="74.48" y2="1"/></g>
<g><line class="cls-11" x1="-73" y1="71" x2=".44" y2="71"/><line class="cls-11" x1="-73" y1="67" x2=".44" y2="67"/><line class="cls-11" x1="-73" y1="63" x2=".44" y2="63"/><line class="cls-11" x1="-73" y1="59" x2=".44" y2="59"/><line class="cls-11" x1="-73" y1="55" x2=".44" y2="55"/><line class="cls-11" x1="-73" y1="51" x2=".44" y2="51"/><line class="cls-11" x1="-73" y1="47" x2=".44" y2="47"/><line class="cls-11" x1="-73" y1="43" x2=".44" y2="43"/><line class="cls-11" x1="-73" y1="39" x2=".44" y2="39"/><line class="cls-11" x1="-73" y1="35" x2=".44" y2="35"/><line class="cls-11" x1="-73" y1="31" x2=".44" y2="31"/><line class="cls-11" x1="-73" y1="27" x2=".44" y2="27"/><line class="cls-11" x1="-73" y1="23" x2=".44" y2="23"/><line class="cls-11" x1="-73" y1="19" x2=".44" y2="19"/><line class="cls-11" x1="-73" y1="15" x2=".44" y2="15"/><line class="cls-11" x1="-73" y1="11" x2=".44" y2="11"/><line class="cls-11" x1="-73" y1="7" x2=".44" y2="7"/><line class="cls-11" x1="-73" y1="3" x2=".44" y2="3"/><line class="cls-11" x1="-70.96" y1="69" x2="2.48" y2="69"/><line class="cls-11" x1="-70.96" y1="65" x2="2.48" y2="65"/><line class="cls-11" x1="-70.96" y1="61" x2="2.48" y2="61"/><line class="cls-11" x1="-70.96" y1="57" x2="2.48" y2="57"/><line class="cls-11" x1="-70.96" y1="53" x2="2.48" y2="53"/><line class="cls-11" x1="-70.96" y1="49" x2="2.48" y2="49"/><line class="cls-11" x1="-70.96" y1="45" x2="2.48" y2="45"/><line class="cls-11" x1="-70.96" y1="41" x2="2.48" y2="41"/><line class="cls-11" x1="-70.96" y1="37" x2="2.48" y2="37"/><line class="cls-11" x1="-70.96" y1="33" x2="2.48" y2="33"/><line class="cls-11" x1="-70.96" y1="29" x2="2.48" y2="29"/><line class="cls-11" x1="-70.96" y1="25" x2="2.48" y2="25"/><line class="cls-11" x1="-70.96" y1="21" x2="2.48" y2="21"/><line class="cls-11" x1="-70.96" y1="17" x2="2.48" y2="17"/><line class="cls-11" x1="-70.96" y1="13" x2="2.48" y2="13"/><line class="cls-11" x1="-70.96" y1="9" x2="2.48" y2="9"/><line class="cls-11" x1="-70.96" y1="5" x2="2.48" y2="5"/><line class="cls-11" x1="-70.96" y1="1" x2="2.48" y2="1"/></g>
</g>
</pattern></defs><g id="Frame"><path class="cls-6" d="M64.02,40c0,11.47-1.89,22.39-5.5,31.74-7.2,2.16-14.94,3.26-23.02,3.26-.49,0-.98-.01-1.47-.02h-.17c-8.18-.15-16.29-1.47-23.6-3.85-3.45-9.22-5.26-19.93-5.26-31.13s1.89-22.38,5.48-31.73c6.73-2.01,14.13-3.13,21.6-3.26,.48-.01,.97-.01,1.45-.01,.54,0,1.08,.01,1.63,.02,8.16,.15,16.27,1.47,23.59,3.84,3.46,9.24,5.27,19.95,5.27,31.14Z"/><path class="cls-13" d="M34.03,5.59V74.98h-.17c-8.18-.15-16.29-1.47-23.6-3.85-3.45-9.22-5.26-19.93-5.26-31.13s1.89-22.38,5.48-31.73c6.73-2.01,14.13-3.13,21.6-3.26,.65,.16,1.3,.36,1.95,.58Z"/></g>
<g><path class="cls-1" d="M61.89,67.5l-3.4,7.07s-18.91,5.31-31.02,2.32c-12.1-3-19.45-5.72-19.45-5.72l-.13-4.89,16.05-7.89,.27-4.76-2.18-1.23-.68,2.86-5.57-.27s-2.05-4.22-.96-8.03c.44-.56,.68-.87,.81-1.03l.15-.19,.13-4.63s-2.04,2.04-4.35,1.36c2.04-3.13,2.17-4.21,1.49-7.75-.68-3.54-2.31-7.21,5.04-12.24-1.33-1.33-5.14,.07-5.3,.12,.22-.31,3.75-5.21,6.11-6.65,2.45-1.5,6.67-.68,9.25,0-2.31-3.4-4.62-5.44-4.62-5.44,0,0,4.49,1.49,7.62,.95,3.13-.55,6.8,1.22,9.52,4.89,.65-2.33-.07-4.67-.13-4.88,.29,.18,4.83,3.15,7.47,4.2,2.72,1.09,5.58,4.22,3.81,9.66,3-1.9,3.68-3.26,3.68-3.26,0,0,0,3.26,1.08,6.66,1.09,3.4-.23,6.28-3.12,8.3,1.49,2.99,.27,4.63-1.09,6.39-1.36,1.77-.82,2.18-.82,2.18l.49,.32,1.14,.77s1.09,6.12-1.49,8.57c-4.49,.68-5.72-.27-5.72-.27l-.54-2.59-1.63,1.5v4.62l18.09,8.98Z"/><path class="cls-2" d="M33.8,52.3v-18.25c0-3.9,3.81-6.77,7.51-5.54,.04,.01,.08,.03,.12,.04,4.09,1.42,5.11,2.12,6.61,4.25s.39,8.89-.31,11.72-1.95,7.74-1.95,7.74l-7.26,5.08h0c-2.66-.18-4.72-2.38-4.72-5.05Z"/><path class="cls-4" d="M38.29,39.64l-2.28-5.91s5.03-.85,6.56-.63c2.53,.86,3.46,.97,3.46,.97l.15,4.18s-4.55-.6-7.88,1.39Z"/><path class="cls-4" d="M29.22,39.68l2.47-5.83s-5.42-1.31-6.96-1.08c-2.53,.86-3.12,1.76-3.12,1.76l-.09,3.84s4.37-.67,7.7,1.32Z"/><path d="M21.6,34.39l1.99-2.01s.14-.06,.15-.07c2.44-.7,4.96-.44,7.38,.17,0,0-.63,1.9-.63,1.9-2.01-.8-4.29-1.33-6.44-1.01,0,0,.15-.07,.15-.07l-2.61,1.1h0Z"/><path d="M45.75,34.39l-2.61-1.1,.15,.07c-2.15-.31-4.43,.21-6.44,1.01,0,0-.63-1.9-.63-1.9,2.42-.61,4.94-.87,7.38-.17,0,0,.15,.06,.15,.07,0,0,1.99,2.01,1.99,2.01h0Z"/><path class="cls-17" d="M56.58,28.73c1.09,3.4-.09,5.94-3.12,8.3,1.49,2.99,.27,4.63-1.09,6.39-1.36,1.77-.82,2.18-.82,2.18l.49,.32-.06,.03-4.33,.14s1.52-6.13,1.3-8.8c-.21-2.67-2.52-6.78-2.52-6.78,0,0-2.24,.58-1.23,3.03-4.33-.43-4.83-1.95-3.9-4.47-2.02-.87-3.03-1.01-3.96,.64-.94,1.66,0,4.19-.87,4.77-.86,.57-5.12-.08-5.48,1.73-1.3-2.31-.87-3.68,.43-3.9,1.3-.21,3.18,.29,2.31-4.25-2.38,2.74-6.2,.64-7.65,1.44-1.44,.79-1.66,2.88-.79,4.4-2.67-.36-3.61-3.03-3.61-3.03,0,0-2.23,1.73-2.88,3.82-.65,2.09-1.09,6.13,.86,11.11,0,0-2.89-.06-4.03,.13l.15-.19,.13-4.63s-2.04,2.04-4.35,1.36c2.04-3.13,2.17-4.21,1.49-7.75-.68-3.54-2.31-7.21,5.04-12.24-1.33-1.33-5.14,.07-5.3,.12,.22-.31,3.75-5.21,6.11-6.65,2.45-1.5,6.67-.68,9.25,0-2.31-3.4-4.62-5.44-4.62-5.44,0,0,4.49,1.49,7.62,.95,3.13-.55,6.8,1.22,9.52,4.89,.65-2.33-.07-4.67-.13-4.88,.29,.18,4.83,3.15,7.47,4.2,2.72,1.09,5.58,4.22,3.81,9.66,3-1.9,3.68-3.26,3.68-3.26,0,0,0,3.26,1.08,6.66Z"/><path class="cls-4" d="M58.52,39.86l-.08,.13h0c-.06,.08-.09,.11-.1,.12,.01-.03,.12-.18,.18-.25Z"/><polygon points="43.3 54.69 23.94 74.61 9.25 71.6 8.81 65.6 23.94 58.39 24.21 53.63 29.28 57.14 38.85 57.14 43.3 54.69"/><path class="cls-5" d="M19.96,45.8s-3.09-.46-5.14,1.16c-.84,3.47,.48,7.04,.96,8.03,2.69,1.06,5.6-.15,5.6-.15l.43-3.06-1.85-5.98Z"/><path class="cls-5" d="M47.86,45.8s3.09-.46,5.14,1.16c.84,3.47-.48,7.04-.96,8.03-2.69,1.06-5.6-.15-5.6-.15l-.43-3.06,1.85-5.98Z"/><path class="cls-3" d="M29.22,39.68s-2.72-1.98-6.87-.95c2.1,2.35,5.93,2.47,6.87,.95Z"/><path class="cls-4" d="M29.22,39.68s.02-3.32-1.71-4.05c-1.67-.47-4.7,2.56-4.7,2.56,0,0,4.2,.1,6.41,1.49Z"/><path class="cls-3" d="M38.29,39.64s2.9-2.05,7.06-1.02c-2.1,2.35-6.11,2.54-7.06,1.02Z"/><path class="cls-4" d="M38.26,39.74s.22-3.45,1.94-4.18c1.67-.47,4.7,2.56,4.7,2.56,0,0-4.44,.24-6.65,1.62Z"/><path class="cls-15" d="M46.94,48.12s3.23,2.53,6.09,0c.04,3.36-.54,4.81-.54,4.81,0,0-4.6-1.33-6.71-.66,.95-2.65,1.16-4.14,1.16-4.14Z"/><path class="cls-15" d="M14.61,48.8s3.76,1.65,5.9-1.5c.87,3.24,.66,4.79,.66,4.79,0,0-4.78-.15-6.67,1.01,.27-2.8,.1-4.3,.1-4.3Z"/><circle class="cls-17" cx="18.11" cy="50.68" r="1.12"/><circle class="cls-17" cx="49.19" cy="50.68" r="1.12"/><path d="M54.99,23.33s.45,6.67-2.63,9.19c.73-2.02,.5-4.31,.5-4.31,0,0-1.06,3.98-5.49,3.36,2.63,3.98,1.57,8.4,1.06,10.14s-1.12,4.59-1.12,4.59c0,0,2.41-.95,4.2-.5,.73-2.86,3.95-6.49,1.95-8.76,3.6-2.44,3.71-6.02,3.15-7.87s-1.62-5.83-1.62-5.83Z"/><path class="cls-2" d="M42.36,57.31l-9.98,10.35s10.5,.81,16.33-4.88c-4.07-2.14-6.36-3.7-6.36-3.7v-1.77Z"/><path class="cls-1" d="M46.24,30.94c-.36,.23-.83,.62-.89,1.08-.07,.52,.43,1.05,.86,1.4,.16,.13,.22,.35,.15,.55-.06,.19-.24,.33-.44,.34-.11,0-.21,.01-.32,.01-1.74,0-3.86-.61-4.74-2.04-.38-.64-.66-1.68,.05-3.14-.54-.36-1.03-.54-1.47-.54-.26,0-.5,.06-.72,.19-1.08,.62-1.6,2.6-1.47,3.65,.12,.97-.15,1.82-.74,2.38-.44,.41-1.04,.64-1.69,.64-.18,0-.38-.02-.57-.06-.14-.03-.29-.06-.45-.08l-.52,1.02c.09,.01,.7,.03,.78,.04,.25,.05,.51,.08,.76,.08,.9,0,1.74-.32,2.38-.91,.82-.78,1.2-1.96,1.04-3.23-.1-.82,.37-2.32,.97-2.66,.08-.04,.15-.06,.23-.06,.06,0,.13,.01,.21,.03-.4,1.4-.06,2.47,.36,3.17,1.13,1.86,3.72,2.52,5.59,2.52,.12,0,.24-.01,.37-.01,.46-.02,.88-.26,1.13-.61,.4,1.17,.63,2.58,.4,4.11-.35,2.25-1.38,6.5-3.09,12.61l-6.2,4.25h-4.92l-.27,1h5.5l6.76-4.63c1.77-6.34,2.85-10.74,3.21-13.08,.59-3.88-1.51-7.05-2.25-8.02Z"/><path class="cls-14" d="M21.27,18.14s3.13-1.73,7.39,0c-2.4,1.4-2.73,2.07-2.73,2.07,0,0,8.59-1.8,12.66-1.07-1.2,2.4,1.07,2.66,1.07,2.66,0,0,9.66-1,6.2-4.66,4.46,1,5.93,5.4,3.46,9.46-.8-3.46-4.33-4.66-9.93-2.4-5.26,1.6-3.46-3.33-3.46-3.33,0,0-8.93-.4-14.46,3.2,1.53-4.66,4.33-5.66,4.33-5.66,0,0-1.07-.93-4.53-.27Z"/><path class="cls-8" d="M15.39,45.94s-.18-3.64,1.18-5.37c-3.09,2.64-5.19,1.73-5.19,1.73,0,0,2.91-1.82,1.64-6.83s-2.09-8.46,4.91-12.92c-1.55-1.37-5.37,.09-5.37,.09,0,0,2.55-2.82,4.64-5.28s7.92-3.37,11.19-1.18c-.73-2.46-5.1-4.55-5.28-6.1,4.1,2.09,9.92,.64,12.74,1.82s5.46,5.01,5.46,5.01c0,0-.18-3.28-1-5.73,2.64,2.82,7.74,2.91,10.56,6.73s.36,8.19,.36,8.19c0,0,3-2.18,4.19-4-.46,4.37,4.19,10.74-2.28,14.83,2.82,3.55-1.73,5.82-1.73,9.01"/><path class="cls-8" d="M26.3,25.21s-3.37,.55-4.33,3.51c-.96,2.82,1.86,5.15,3.65,5.15-2.07-2.33-.49-4.05,1.37-4.46,1.86-.42,5.09,1.03,6.74-1.45,.54,3.3,.75,4.26-1.24,4.33-2,.07-3.37,1.65-.96,4.81-.49-2.61,1.37-2.47,2.81-2.19,1.45,.27,2.62-.69,2.41-2.41s1.17-6.32,4.81-3.51c-2.06,3.51,1.72,4.95,4.33,4.82-2.61-2.14,.48-3.51,.48-3.51,0,0,3.37,3.78,2.61,8.73-.47,3.11-2.12,9.22-3.27,13.32l-7.04,4.82h-9.62l-7.23-4.95c-1.42-4.1-3.52-10.59-3.7-13.74-.27-4.81,3.37-7.63,3.37-7.63"/><path class="cls-8" d="M19.65,46.01s-2.16-.8-4.88,.57c-1.14,5.06,.97,8.58,.97,8.58,0,0,2.04,.97,5.62-.11,.4-1.36,.47-2.82,.47-2.82"/><path class="cls-8" d="M47.87,46.01s2.16-.8,4.88,.57c1.14,5.06-.97,8.58-.97,8.58,0,0-2.04,.97-5.62-.11-.4-1.36-.47-2.82-.47-2.82"/><path d="M18.03,49.73c.49,0,.88,.4,.88,.88s-.4,.88-.88,.88-.88-.4-.88-.88,.4-.88,.88-.88m0-1c-1.04,0-1.88,.84-1.88,1.88s.84,1.88,1.88,1.88,1.88-.84,1.88-1.88-.84-1.88-1.88-1.88h0Z"/><path d="M49.4,49.73c.49,0,.88,.4,.88,.88s-.4,.88-.88,.88-.88-.4-.88-.88,.4-.88,.88-.88m0-1c-1.04,0-1.88,.84-1.88,1.88s.84,1.88,1.88,1.88,1.88-.84,1.88-1.88-.84-1.88-1.88-1.88h0Z"/><path d="M29.25,39.86c-.18-3.16-1.95-5.18-4.78-2.67-.84,.57-1.48,1.47-2.67,1.55,0,0,.4-.67,.4-.67,.85,1.5,2.63,2.24,4.32,2.55-.91,.1-1.86,0-2.77-.32-1.15-.36-2.12-1.3-2.71-2.39,0,0,.8-.06,.8-.06,.47-.07,1.56-1.11,2.01-1.45,3.26-2.82,6.23-.48,5.39,3.46h0Z"/><path d="M21.98,38.03c2.05-.16,4.18,.11,5.99,1.07-1.88-.62-3.93-.55-5.81-.09-.69,.17-.89-.91-.18-.99h0Z"/><path d="M38.28,39.86c-.84-3.94,2.13-6.27,5.39-3.46,.45,.34,1.54,1.38,2.01,1.45,0,0,.8,.06,.8,.06-.59,1.08-1.56,2.03-2.71,2.39-.9,.31-1.85,.42-2.77,.32,1.68-.31,3.46-1.05,4.32-2.55,0,0,.4,.67,.4,.67-1.19-.09-1.83-.98-2.67-1.55-2.82-2.5-4.6-.48-4.78,2.67h0Z"/><path d="M45.36,39.01c-1.88-.46-3.93-.53-5.8,.09,1.82-.96,3.94-1.23,5.99-1.07,.28,.03,.48,.27,.45,.55-.03,.31-.34,.53-.64,.44h0Z"/><path d="M36.27,42.06c.16,.58,.34,1.15,.62,1.66,0,0-.14,.09-.14,.09l-2.72,1.71s-.18,.04-.22,.05c0,0,0-1,0-1,.02-.02,0,1,0,1-.12,.01-.12,.03-.22-.05,0,0-2.72-1.71-2.72-1.71l-.14-.09,.07-.13c.25-.47,.42-1,.57-1.53-.04,.55-.09,1.11-.25,1.67l-.08-.22,2.98,1.11s-.25-.05-.2-.05c0,0,0,1,0,1-.03,.02,0-1,0-1,.05,0-.21,.05-.2,.05,0,0,2.98-1.11,2.98-1.11l-.08,.21c-.16-.56-.21-1.11-.24-1.66h0Z"/><path d="M21.09,43.45c.67,1.54,1.98,2.73,3.44,3.45,0,0,1.21,4.75,1.21,4.75,0,.04-.05,.07-.07,.02-.88-1.41-1.42-3-1.86-4.59,0,0,.38,.45,.38,.45-1.63-.74-2.95-2.26-3.17-4.05-.01-.04,.05-.07,.07-.03h0Z"/><path d="M46.56,43.47c-.6,1.45-2.09,3.01-3.37,3.46,0,0-1.28,4.74-1.28,4.74-.01,.04-.08,.03-.07-.02-.07-1.77,.27-3.51,.71-5.22,1.54-.62,2.85-1.73,3.94-2.98,.02-.04,.09-.02,.07,.03h0Z"/><path class="cls-17" d="M29.3,49.26s.85,1.79,2.27,2.95c.96,.16,2.63,.32,4.32-.03h0c1.38-1.17,2.21-2.92,2.21-2.92l-4.44-.95-4.37,.95Z"/><path class="cls-2" d="M31.38,49.19s.59,1.28,2.38,1.28,2.29-1.51,2.29-1.51c0,0-2.29-1.51-4.67,.24Z"/><path d="M33.85,48.85h.01c.95,.06,2,.31,2.93,.68,1.55,.63,2.3-.66,2.3-.66,0,0-.72,.21-1.67-.87-.8-.89-2.13-1.72-3.57-1.21-1.44-.51-2.77,.32-3.57,1.21-.95,1.08-1.66,.87-1.66,.87,0,0,.74,1.29,2.29,.66,.93-.37,1.98-.62,2.94-.68h.01"/><path class="cls-8" d="M23.85,53.6v5.01s-6.22,3.62-14.98,7.04"/><path class="cls-8" d="M43.67,53.85v4.76s6.22,3.62,14.98,7.04"/><path class="cls-8" d="M16.64,62.48s3.86,6.82,16.32,6.82,17.13-5.12,17.73-6.97"/><path class="cls-17" d="M24.66,56.34c.27,.98,.48,1.96,.63,2.95-4.39,2.81-9.13,5.08-14.2,6.35,0,0-.04-.09-.04-.09l6.81-3.32s7.03-3.42,6.8-3.2c0,0-.1-2.7-.1-2.7h.1Z"/><path d="M26.53,25.13s-4.28-.54-8.14,3.59c-2.14-3.59-.02-5.88-.02-5.88,0,0-6.19,2.67-6.03,6.79s2.03,9.96-.32,12.64c2.95-.96,4.18-1.45,4.18-1.45,0,0-1.45,3.53-.7,5.19,3-1.02,4.44,.05,4.44,.05,0,0-1.77-6.27-2.09-8.89s4.07-6.69,4.07-6.69c0,0-1.07-3.75,4.61-5.35Z"/></g>
<g id="BG"><path class="cls-5" d="M62.56,4.88C54.4,1.94,45.12,.2,35.25,.02c-.57-.01-1.15-.02-1.72-.02C23.88,0,14.77,1.52,6.72,4.21,2.49,14.22,0,26.6,0,40s2.39,25.22,6.45,35.11c8.16,2.94,17.45,4.69,27.32,4.87,.58,.01,1.15,.02,1.73,.02,9.63,0,18.73-1.51,26.78-4.2,4.24-10.01,6.74-22.39,6.74-35.8s-2.4-25.24-6.46-35.12Zm-4.04,66.86c-7.2,2.16-14.94,3.26-23.02,3.26-.49,0-.98-.01-1.47-.02h-.17c-8.18-.15-16.29-1.47-23.6-3.85-3.45-9.22-5.26-19.93-5.26-31.13s1.89-22.38,5.48-31.73c6.73-2.01,14.13-3.13,21.6-3.26,.48-.01,.97-.01,1.45-.01,.54,0,1.08,.01,1.63,.02,8.16,.15,16.27,1.47,23.59,3.84,3.46,9.24,5.27,19.95,5.27,31.14s-1.89,22.39-5.5,31.74Z"/><path class="cls-12" d="M17.21,2.06h0c1.63,.63,2.06,2.75,.81,3.97l-1.26,1.22s8.35-2.37,18.84-1.69h0c-1-1.49-.45-3.52,1.14-4.34l1-.51S28.26-.43,17.21,2.06Z"/><path class="cls-16" d="M21.81,1.66s.7,2.18-.22,3.1c3.77-.41,7.98-.74,11.12-.74-.33-1.33,1.26-3.4,1.26-3.4,0,0-6.17-.26-12.16,1.03Z"/><path class="cls-12" d="M36.25,79.21h0c-1.52-.87-1.62-3.03-.2-4.04l1.43-1.02s-8.61,1.07-18.88-1.19h0c.76,1.63-.09,3.55-1.79,4.11l-1.07,.36s9.19,2.56,20.5,1.78Z"/><path class="cls-16" d="M19.28,77.8s1.76-1.83,1.3-3.09c4.43,.69,9.11,1.14,12.25,1.14-.33,1.33,.44,3.4,.44,3.4,0,0-8-.16-13.99-1.45Z"/><polygon points="47.48 1.77 47.48 6.73 54.49 8.44 54.49 2.62 47.48 1.77"/><line class="cls-7" x1="45.5" y1="1.23" x2="45.5" y2="6.29"/><line class="cls-7" x1="56.47" y1="3.67" x2="56.47" y2="8.73"/><polygon points="47.48 78.74 47.48 73.78 54.49 72.07 54.49 77.88 47.48 78.74"/><line class="cls-7" x1="45.5" y1="79.28" x2="45.5" y2="74.21"/><line class="cls-7" x1="56.47" y1="76.84" x2="56.47" y2="71.77"/><path d="M33.53,1c.56,0,1.14,0,1.7,.02,9.39,.17,18.33,1.74,26.57,4.65,4.07,10.08,6.22,21.94,6.22,34.33s-2.24,24.79-6.49,34.99c-8.12,2.66-16.87,4.01-26.03,4.01-.56,0-1.12,0-1.71-.02-9.25-.17-18.42-1.78-26.58-4.66C3.15,64.25,1,52.39,1,40S3.23,15.21,7.47,5.02C15.6,2.35,24.37,1,33.53,1M33.53,0C23.88,0,14.77,1.52,6.72,4.21,2.49,14.22,0,26.6,0,40s2.39,25.22,6.45,35.11c8.16,2.94,17.45,4.69,27.32,4.87,.58,.01,1.15,.02,1.73,.02,9.63,0,18.73-1.51,26.78-4.2,4.24-10.01,6.74-22.39,6.74-35.8s-2.4-25.24-6.46-35.12C54.4,1.94,45.12,.2,35.25,.02,34.68,.01,34.1,0,33.53,0h0Z"/><path class="cls-12" d="M33.53,6c.52,0,1.04,0,1.61,.02,7.87,.14,15.75,1.4,22.84,3.64,3.3,9,5.04,19.47,5.04,30.34s-1.82,21.82-5.26,30.92c-6.98,2.04-14.47,3.08-22.26,3.08-.48,0-.97,0-1.47-.02h-.15c-7.89-.14-15.78-1.41-22.85-3.65-3.29-8.99-5.03-19.46-5.03-30.33s1.81-21.79,5.24-30.91c6.5-1.89,13.7-2.95,20.86-3.08,.47,0,.96,0,1.43,0m0-1c-.48,0-.97,0-1.45,.01-7.47,.13-14.87,1.25-21.6,3.26-3.59,9.35-5.48,20.26-5.48,31.73s1.81,21.91,5.26,31.13c7.31,2.38,15.42,3.7,23.6,3.85h.17c.49,.01,.98,.02,1.47,.02,8.08,0,15.82-1.1,23.02-3.26,3.61-9.35,5.5-20.27,5.5-31.74s-1.81-21.9-5.27-31.14c-7.32-2.37-15.43-3.69-23.59-3.84-.55,0-1.09-.02-1.63-.02h0Z"/><path d="M33.53,5c.54,0,1.08,.01,1.63,.02,8.16,.15,16.27,1.47,23.59,3.84,3.46,9.24,5.27,19.95,5.27,31.14s-1.89,22.39-5.5,31.74c-7.2,2.16-14.94,3.26-23.02,3.26-.49,0-.98-.01-1.47-.02h-.17c-8.18-.15-16.29-1.47-23.6-3.85-3.45-9.22-5.26-19.93-5.26-31.13s1.89-22.38,5.48-31.73c6.73-2.01,14.13-3.13,21.6-3.26,.48-.01,.97-.01,1.45-.01m0-1c-.49,0-.98,0-1.47,.01-7.51,.13-15.07,1.27-21.87,3.3l-.47,.14-.18,.46c-3.63,9.45-5.55,20.55-5.55,32.09s1.84,22.17,5.32,31.48l.17,.45,.46,.15c7.37,2.4,15.63,3.75,23.89,3.9h.19c.48,.01,.97,.02,1.47,.02,8.16,0,16-1.11,23.31-3.3l.47-.14,.18-.46c3.64-9.43,5.57-20.53,5.57-32.1s-1.84-22.17-5.33-31.49l-.17-.45-.46-.15c-7.39-2.39-15.65-3.74-23.88-3.89-.58-.01-1.11-.02-1.65-.02h0Z"/><path class="cls-9" d="M8.14,7.1s-12.66,32.94,0,66.06"/><path class="cls-9" d="M60.88,7.58s12.66,32.94,0,66.06"/></g>
</svg>