<svg id="Capa_2" xmlns="http://www.w3.org/2000/svg" xmlns:xlink="http://www.w3.org/1999/xlink" viewBox="0 0 69.02 80">
<defs >
<style >
.cls-1{fill:#c89aed;}.cls-2{fill:#fff;}.cls-3{fill:#f8ffbf;}.cls-4{fill:#7b7be8;}.cls-5{fill:#a88347;}.cls-6{fill:#782ab5;}.cls-7,.cls-8,.cls-9,.cls-10,.cls-11,.cls-12{fill:none;}.cls-7,.cls-8,.cls-12{stroke:#000;stroke-miterlimit:10;}.cls-8,.cls-9{stroke-linecap:round;}.cls-9{stroke:#deb778;stroke-dasharray:0 0 0 4.06;stroke-linejoin:round;}.cls-13{fill:#deb778;}.cls-14{fill:url(#USGS_19_Inundación_de_tierra_2);}.cls-11{stroke:#1d1d1b;stroke-dasharray:0 0 2 2;stroke-width:.3px;}.cls-15{fill:#cf5f2b;}.cls-16{fill:#fcf0c5;}.cls-12{stroke-width:.5px;}.cls-17{fill:#b83521;}
</style>
<pattern id="USGS_19_Inundación_de_tierra_2" x="0" y="0" width="72" height="72" patternTransform="translate(123.52 -17071) rotate(-90)" patternUnits="userSpaceOnUse" viewBox="0 0 72 72">
<g >
<rect class="cls-10" width="72" height="72">
</rect>
<g >
<line class="cls-11" x1="71" y1="71" x2="144.44" y2="71">
</line>
<line class="cls-11" x1="71" y1="67" x2="144.44" y2="67">
</line>
<line class="cls-11" x1="71" y1="63" x2="144.44" y2="63">
</line>
<line class="cls-11" x1="71" y1="59" x2="144.44" y2="59">
</line>
<line class="cls-11" x1="71" y1="55" x2="144.44" y2="55">
</line>
<line class="cls-11" x1="71" y1="51" x2="144.44" y2="51">
</line>
<line class="cls-11" x1="71" y1="47" x2="144.44" y2="47">
</line>
<line class="cls-11" x1="71" y1="43" x2="144.44" y2="43">
</line>
<line class="cls-11" x1="71" y1="39" x2="144.44" y2="39">
</line>
<line class="cls-11" x1="71" y1="35" x2="144.44" y2="35">
</line>
<line class="cls-11" x1="71" y1="31" x2="144.44" y2="31">
</line>
<line class="cls-11" x1="71" y1="27" x2="144.44" y2="27">
</line>
<line class="cls-11" x1="71" y1="23" x2="144.44" y2="23">
</line>
<line class="cls-11" x1="71" y1="19" x2="144.44" y2="19">
</line>
<line class="cls-11" x1="71" y1="15" x2="144.44" y2="15">
</line>
<line class="cls-11" x1="71" y1="11" x2="144.44" y2="11">
</line>
<line class="cls-11" x1="71" y1="7" x2="144.44" y2="7">
</line>
<line class="cls-11" x1="71" y1="3" x2="144.44" y2="3">
</line>
</g>


<g >
<line class="cls-11" x1="-1" y1="71" x2="72.44" y2="71">
</line>
<line class="cls-11" x1="-1" y1="67" x2="72.44" y2="67">
</line>
<line class="cls-11" x1="-1" y1="63" x2="72.44" y2="63">
</line>
<line class="cls-11" x1="-1" y1="59" x2="72.44" y2="59">
</line>
<line class="cls-11" x1="-1" y1="55" x2="72.44" y2="55">
</line>
<line class="cls-11" x1="-1" y1="51" x2="72.44" y2="51">
</line>
<line class="cls-11" x1="-1" y1="47" x2="72.44" y2="47">
</line>
<line class="cls-11" x1="-1" y1="43" x2="72.44" y2="43">
</line>
<line class="cls-11" x1="-1" y1="39" x2="72.44" y2="39">
</line>
<line class="cls-11" x1="-1" y1="35" x2="72.44" y2="35">
</line>
<line class="cls-11" x1="-1" y1="31" x2="72.44" y2="31">
</line>
<line class="cls-11" x1="-1" y1="27" x2="72.44" y2="27">
</line>
<line class="cls-11" x1="-1" y1="23" x2="72.44" y2="23">
</line>
<line class="cls-11" x1="-1" y1="19" x2="72.44" y2="19">
</line>
<line class="cls-11" x1="-1" y1="15" x2="72.44" y2="15">
</line>
<line class="cls-11" x1="-1" y1="11" x2="72.44" y2="11">
</line>
<line class="cls-11" x1="-1" y1="7" x2="72.44" y2="7">
</line>
<line class="cls-11" x1="-1" y1="3" x2="72.44" y2="3">
</line>
<line class="cls-11" x1="1.04" y1="69" x2="74.48" y2="69">
</line>
<line class="cls-11" x1="1.04" y1="65" x2="74.48" y2="65">
</line>
<line class="cls-11" x1="1.04" y1="61" x2="74.48" y2="61">
</line>
<line class="cls-11" x1="1.04" y1="57" x2="74.48" y2="57">
</line>
<line class="cls-11" x1="1.04" y1="53" x2="74.48" y2="53">
</line>
<line class="cls-11" x1="1.04" y1="49" x2="74.48" y2="49">
</line>
<line class="cls-11" x1="1.04" y1="45" x2="74.48" y2="45">
</line>
<line class="cls-11" x1="1.04" y1="41" x2="74.48" y2="41">
</line>
<line class="cls-11" x1="1.04" y1="37" x2="74.48" y2="37">
</line>
<line class="cls-11" x1="1.04" y1="33" x2="74.48" y2="33">
</line>
<line class="cls-11" x1="1.04" y1="29" x2="74.48" y2="29">
</line>
<line class="cls-11" x1="1.04" y1="25" x2="74.48" y2="25">
</line>
<line class="cls-11" x1="1.04" y1="21" x2="74.48" y2="21">
</line>
<line class="cls-11" x1="1.04" y1="17" x2="74.48" y2="17">
</line>
<line class="cls-11" x1="1.04" y1="13" x2="74.48" y2="13">
</line>
<line class="cls-11" x1="1.04" y1="9" x2="74.48" y2="9">
</line>
<line class="cls-11" x1="1.04" y1="5" x2="74.48" y2="5">
</line>
<line class="cls-11" x1="1.04" y1="1" x2="74.48" y2="1">
</line>
</g>


<g >
<line class="cls-11" x1="-73" y1="71" x2=".44" y2="71">
</line>
<line class="cls-11" x1="-73" y1="67" x2=".44" y2="67">
</line>
<line class="cls-11" x1="-73" y1="63" x2=".44" y2="63">
</line>
<line class="cls-11" x1="-73" y1="59" x2=".44" y2="59">
</line>
<line class="cls-11" x1="-73" y1="55" x2=".44" y2="55">
</line>
<line class="cls-11" x1="-73" y1="51" x2=".44" y2="51">
</line>
<line class="cls-11" x1="-73" y1="47" x2=".44" y2="47">
</line>
<line class="cls-11" x1="-73" y1="43" x2=".44" y2="43">
</line>
<line class="cls-11" x1="-73" y1="39" x2=".44" y2="39">
</line>
<line class="cls-11" x1="-73" y1="35" x2=".44" y2="35">
</line>
<line class="cls-11" x1="-73" y1="31" x2=".44" y2="31">
</line>
<line class="cls-11" x1="-73" y1="27" x2=".44" y2="27">
</line>
<line class="cls-11" x1="-73" y1="23" x2=".44" y2="23">
</line>
<line class="cls-11" x1="-73" y1="19" x2=".44" y2="19">
</line>
<line class="cls-11" x1="-73" y1="15" x2=".44" y2="15">
</line>
<line class="cls-11" x1="-73" y1="11" x2=".44" y2="11">
</line>
<line class="cls-11" x1="-73" y1="7" x2=".44" y2="7">
</line>
<line class="cls-11" x1="-73" y1="3" x2=".44" y2="3">
</line>
<line class="cls-11" x1="-70.96" y1="69" x2="2.48" y2="69">
</line>
<line class="cls-11" x1="-70.96" y1="65" x2="2.48" y2="65">
</line>
<line class="cls-11" x1="-70.96" y1="61" x2="2.48" y2="61">
</line>
<line class="cls-11" x1="-70.96" y1="57" x2="2.48" y2="57">
</line>
<line class="cls-11" x1="-70.96" y1="53" x2="2.48" y2="53">
</line>
<line class="cls-11" x1="-70.96" y1="49" x2="2.48" y2="49">
</line>
<line class="cls-11" x1="-70.96" y1="45" x2="2.48" y2="45">
</line>
<line class="cls-11" x1="-70.96" y1="41" x2="2.48" y2="41">
</line>
<line class="cls-11" x1="-70.96" y1="37" x2="2.48" y2="37">
</line>
<line class="cls-11" x1="-70.96" y1="33" x2="2.48" y2="33">
</line>
<line class="cls-11" x1="-70.96" y1="29" x2="2.48" y2="29">
</line>
<line class="cls-11" x1="-70.96" y1="25" x2="2.48" y2="25">
</line>
<line class="cls-11" x1="-70.96" y1="21" x2="2.48" y2="21">
</line>
<line class="cls-11" x1="-70.96" y1="17" x2="2.48" y2="17">
</line>
<line class="cls-11" x1="-70.96" y1="13" x2="2.48" y2="13">
</line>
<line class="cls-11" x1="-70.96" y1="9" x2="2.48" y2="9">
</line>
<line class="cls-11" x1="-70.96" y1="5" x2="2.48" y2="5">
</line>
<line class="cls-11" x1="-70.96" y1="1" x2="2.48" y2="1">
</line>
</g>


</g>


</pattern>
</defs>



<g >
<path class="cls-4" d="M17.89,34.06s-.48-1.73-.48-3.08c-2.12-3.17-.29-5.87-.29-5.87,0,0-1.25-2.6,.19-4.81,.38-4.62,3.46-4.42,3.46-4.42,0,0,.87-3.85,5.39-4.23,2.6-2.89,5.77-1.35,5.77-1.35,0,0,.58-2.21,4.04-.67,2.89-1.15,3.94,.48,3.94,.48,0,0,3.94-.87,5.48,1.54,4.14,0,5.39,3.37,5.48,4.23,3.75,.87,3.37,4.33,3.37,4.33,0,0,1.44,2.31,.67,5.1,1.64,3.66-.48,5.87-.48,5.87,0,0-.1,2.21-.87,3.08,1.73,2.12-.38,8.85-3.27,9.62-.67,4.71-.77,5.58-.77,5.58,0,0,5.48,2.79,6.35,5.39,.67,2.79,.29,5,.29,5l6.93,2.6-2.5,11.83-26.74,3.46-25.3-4.33-.87-9.52,8.75-4.81s-.87-2.98,.1-4.52,5.96-4.62,5.96-4.62l-.96-5.96s-2.6-1.35-3.37-3.56-.77-5-.29-6.35Z">
</path>
<path class="cls-1" d="M35.77,41.45v-12.61c0-5.61,5.41-9.8,10.76-8.12,.57,.18,1.11,.38,1.61,.61,2.41,5.65,3.43,9.33,3.3,11.11s-.76,3.68-.76,3.68l-.38,3.93-5.77,9.46-4.82-3.87h0c-2.21-.14-3.93-1.98-3.93-4.2Z">
</path>
<path d="M21.49,39.1l3.9,5.24,1.92,3.71,3.32-3.07,3.9-.96,3.45,.19,3.45,.7,3.2,3.26,2.24-4.22,3.39-4.28s-.26,8.5-1.6,11.57c-3.39,4.66-7.22,8.37-13.1,8.31s-12.72-8.18-12.72-8.18l-1.34-12.27Z">
</path>
<path class="cls-4" d="M36.1,44.03v3.98h3.7l1.65,1.47s-1.99,1.99-5.35,1.84v8.5s9.26-2.83,12.46-7.97c1.57-4.93,1.69-12.16,1.69-12.16l-3.39,4.28-2.24,4.22-3.29-3.05-5.24-1.1Z">
</path>
<path class="cls-1" d="M30.21,49.21s1.55-1.29,2.37-1.51,5.77,.09,7.27,.13c1.33,.86,1.85,1.46,1.85,1.46,0,0-.74,1.86-6.46,1.76-3.08-.05-5.04-1.85-5.04-1.85Z">
</path>
<path class="cls-17" d="M22.72,49.64s-5.49,2.45-6.6,6.45c-.3,2.3,.3,3.56,.3,3.56l-8.97,4.01,1.26,10.24,29,3.86,22.03-3.56,2.23-11.94-5.79-2.42s.54-2.33-.29-5-6.76-5.12-6.76-5.12l-.67,2.89,.07,8.08-12.46,9.05-12.61-9.05,.15-8.16-.89-2.89Z">
</path>
<path class="cls-3" d="M31.9,36.7s-4.36-1.13-6.71,0c.03,.93,1.18,1.76,4.32,2.32,1.62-.99,2.38-2.32,2.38-2.32Z">
</path>
<path class="cls-3" d="M39.9,36.7s4.36-1.13,6.71,0c-.03,.93-1.18,1.76-4.32,2.32-1.62-.99-2.38-2.32-2.38-2.32Z">
</path>
<path class="cls-4" d="M32.44,36.48l.98-2.75-3.9-1.99-3.07,.03-3.69,1.46,1.71,3.8s1.6-.77,3.41-.8,4.56,.24,4.56,.24Z">
</path>
<path class="cls-4" d="M39.5,36.48l-.98-2.75,3.9-1.99,3.07,.03,3.69,1.46-1.71,3.8s-1.6-.77-3.41-.8-4.56,.24-4.56,.24Z">
</path>
<path class="cls-2" d="M33.54,49.48l5.47-.77,.91,.55s-3.06,1.06-6.38,.22Z">
</path>
<path class="cls-1" d="M47.23,55.27s-8.11,7.84-10.9,12.61c5.49-4.14,10.81-7.93,10.81-7.93l.09-4.68Z">
</path>
<path d="M18.19,33.55s-.76,2.32-.38,4.3,1.22,4.38,2.07,5.02,2.02,.89,2.02,.89l-.55-7-3.16-3.2Z">
</path>
<path class="cls-4" d="M22.45,44.4c.66,1.59,1.19,3.41,1.68,5.06,.17,.54,.35,1.11,.53,1.51l-.03-.07c.3,.43,.79,.97,1.3,1.44,.96,.87,2.25,2.12,3.2,2.98,.53,.53,1.07,1.04,1.58,1.61l-.05,.08c-2.42-1.68-5.12-3.22-6.88-5.64-.82-2.25-1.07-4.62-1.43-6.97,0,0,.1-.01,.1-.01h0Z">
</path>
<path d="M41.81,57.95l-13.56,16.33s-13.74-.6-17.36-3.46c-1.73-3.71-2.59-7.17-2.59-7.17l8.13-4s-1.3-3.87,.86-6.02,4.42-3.6,5.23-3.7c.73,2.41,1.94,3.27,3.23,4.65s6.91,4.84,10.37,4.67,5.7-1.3,5.7-1.3Z">
</path>
<path class="cls-15" d="M42.72,67.46c-.29,.05,8.3-7.38,11.26-7.66-2.21,4.71-4.98,6.46-11.26,7.66Z">
</path>
<path class="cls-15" d="M56.37,62.39s-2.49,7.2-14.49,8.03c2.86,6.83,13.01,6,13.01,6l7.2-6.83,.09-4.98s-3.69-1.75-5.81-2.21Z">
</path>
<path class="cls-4" d="M36.6,19.84v1.5c3.86,0,7.42,.43,10.61,1.29,.45,1.48,1.45,4.77,2.12,7.33,.41,1.55,.44,3.21,.08,4.8-.25,1.08-.3,1.51-.31,1.59v.04s0,.04,0,.04c-.19,3.2-.88,11.92-1.83,14.51-2.07,3.15-5.23,5.43-9.16,6.59-.73,.21-1.48,.32-2.23,.32s-1.5-.11-2.22-.32c-3.94-1.16-7.1-3.44-9.17-6.59-.96-2.59-1.65-11.31-1.84-14.51v-.03s0-.03,0-.03c0-.08-.06-.52-.31-1.61-.36-1.6-.33-3.26,.08-4.8,.67-2.54,1.66-5.79,2.11-7.28,1.8-.41,6.49-1.33,12.08-1.33v-1.5m0,0c-7.43,0-13.26,1.57-13.26,1.57,0,0-1.46,4.7-2.38,8.16-.48,1.81-.5,3.7-.09,5.52,.24,1.06,.28,1.43,.28,1.43,0,0,.7,11.93,1.99,15.11,2.24,3.5,5.71,6.05,10.09,7.34,.86,.25,1.75,.38,2.65,.38s1.79-.13,2.66-.39c4.38-1.3,7.84-3.85,10.08-7.34,1.29-3.18,1.99-15.11,1.99-15.11,0,0,.04-.37,.28-1.42,.41-1.82,.39-3.71-.09-5.52-.92-3.46-2.38-8.17-2.38-8.17-3.98-1.18-8.09-1.57-11.81-1.57h0Z">
</path>
<path class="cls-2" d="M41.03,23.13l-1.89,6.25,6.01-.33,3.05,2.3s-.49-8.23-7.16-8.23Z">
</path>
<path class="cls-2" d="M41.69,40.66l5.76-1.89s-.74,3.21-2.88,4.53c-2.96-.82-2.88-2.63-2.88-2.63Z">
</path>
<path class="cls-1" d="M31.61,39.89l-2.15,1.26-4.67-1.79,4.22,4.4s2.06-1.97,2.6-3.86Z">
</path>
<path class="cls-8" d="M48.4,21.41s1.46,4.71,2.38,8.17c.48,1.81,.5,3.7,.09,5.52-.24,1.06-.28,1.42-.28,1.42,0,0-.7,11.93-1.99,15.11-2.24,3.49-5.7,6.04-10.08,7.34-1.73,.51-3.57,.51-5.3,0-4.38-1.29-7.84-3.84-10.09-7.34-1.29-3.18-1.99-15.11-1.99-15.11,0,0-.04-.37-.28-1.43-.41-1.82-.39-3.71,.09-5.52,.92-3.46,2.38-8.16,2.38-8.16,0,0,13.13-3.53,25.07,0Z">
</path>
<path class="cls-8" d="M50.84,36.52s3.49-1.81,3.49-5.43c2.06-2.84,.36-5.97,.36-5.97,0,0,.92-3.2-.43-5.11,0-2.84-2.06-3.98-3.41-4.33-.57-3.2-4.05-4.12-5.26-3.76-2.06-3.05-5.47-1.85-5.47-1.85,0,0-1.85-1.63-4.26-.57-2.41-1.07-4.26,.57-4.26,.57,0,0-3.41-1.21-5.47,1.85-1.21-.36-4.69,.57-5.26,3.76-1.35,.36-3.41,1.49-3.41,4.33-1.35,1.92-.43,5.11-.43,5.11,0,0-1.7,3.12,.36,5.97,0,3.62,3.49,5.43,3.49,5.43">
</path>
<path class="cls-8" d="M17.91,34.01s-.69,1.7-.13,3.96,1.57,5.54,3.84,5.72">
</path>
<path class="cls-8" d="M53.77,34.01s.69,1.7,.13,3.96-1.57,5.54-3.84,5.72">
</path>
<path d="M33.38,30.77s.39,1.62-.06,3.12c-4.07-.89-6.24-1.56-6.24-1.56l-4.35,.89s2.79-2.28,4.18-2.73c4.23-.28,6.46,.28,6.46,.28Z">
</path>
<path d="M38.58,30.77s-.39,1.62,.06,3.12c4.07-.89,6.24-1.56,6.24-1.56l4.35,.89s-2.79-2.28-4.18-2.73c-4.23-.28-6.46,.28-6.46,.28Z">
</path>
<path d="M24.34,37.16c2.26-2.1,5.49-1.47,8.24-1.01,0,0-.12,.49-.12,.49-.39,1.4-1.62,2.23-2.86,2.76-.78-.11-1.54-.31-2.26-.63-.67-.33-1.32-.72-1.8-1.29,1.23,.74,2.63,1.02,4.03,1.08,0,0-.22,.04-.22,.04,.72-.39,1.36-.88,1.82-1.54,.13-.19,.26-.47,.29-.6l.4,.58c-2.53-.45-5.12-1.09-7.54,.11h0Z">
</path>
<path d="M47.59,37.16c-2.42-1.21-5.01-.56-7.54-.11,0,0,.4-.58,.4-.58,.03,.13,.15,.41,.29,.6,.46,.66,1.1,1.14,1.82,1.54,0,0-.22-.04-.22-.04,1.4-.06,2.81-.34,4.03-1.08-.47,.57-1.13,.96-1.8,1.29-.71,.32-1.48,.52-2.26,.63-1.24-.53-2.47-1.37-2.86-2.76,0,0-.12-.49-.12-.49,2.75-.46,5.99-1.09,8.24,1.01h0Z">
</path>
<path d="M32.75,41.71c-.08,.44-.2,.85-.33,1.26l.02-.4c2,1.7,5.19,1.23,7.32-.05,0,0-.03,.41-.03,.41-.15-.42-.28-.85-.4-1.3l.09-.05s.67,1.13,.67,1.13c-1.77,2.33-6.47,2.81-8.12,.03,0,0,.02-.03,.02-.03l.66-1.05,.09,.05h0Z">
</path>
<path class="cls-7" d="M30.38,49.21s1.77,1.75,5.65,1.75,5.54-1.61,5.54-1.61">
</path>
<path d="M29.54,49.96c.84-.97,1.64-1.84,2.77-2.52,2.5-.52,5.04-.23,7.53,.11,0,0,.14,.02,.14,.02,.85,.8,1.69,1.62,2.46,2.51-1-.57-1.95-1.2-2.88-1.87l.2,.08c-1.96-.06-5.59-.23-7.15-.14-.88,.38-2.21,1.3-3.08,1.8h0Z">
</path>
<path class="cls-12" d="M21.51,38.79s1.86,3.53,3.77,5.29c1.86,3.53,2.16,4.12,2.16,4.12l3.24-3.24,4.17-.83">
</path>
<path class="cls-12" d="M50.59,38.79s-1.86,3.53-3.77,5.29c-1.86,3.53-2.16,4.12-2.16,4.12l-3.24-3.24-4.17-.83">
</path>
<line class="cls-8" x1="23.63" y1="52.61" x2="23.63" y2="60.55">
</line>
<polyline class="cls-8" points="22.06 59.76 36.13 69.77 36.36 69.93">
</polyline>
<path class="cls-8" d="M36.16,69.97s-.02,0-.03,0c-.08,0-.15-.03-.23-.04-3.58-.54-8.81-1.44-12.12-2.44-5.44-1.65-8.16-8.08-7.51-11.8,.64-3.72,6.08-5.8,6.08-5.8">
</path>
<line class="cls-8" x1="48.62" y1="51.63" x2="48.62" y2="60.55">
</line>
<polyline class="cls-8" points="50.2 59.76 36.13 69.77 35.9 69.93">
</polyline>
<path class="cls-8" d="M36.13,69.97s.02,0,.03,0c.06-.02,.13-.03,.2-.04,3.58-.54,8.81-1.44,12.12-2.44,5.44-1.65,8.15-8.08,7.51-11.8s-6.61-6.03-6.61-6.03">
</path>
<line class="cls-8" x1="16.52" y1="59.26" x2="6.98" y2="64.23">
</line>
<line class="cls-8" x1="55.73" y1="59.5" x2="65.19" y2="64.23">
</line>
<path d="M21.04,36.73s-3.24-1.62-3.53-5.72c-1.73-1.91-.58-5.72-.58-5.72,0,0-.92-2.66,.35-5.32,.64-3.29,3.41-4.28,3.41-4.28,0,0,1.27-4.22,5.55-3.76,1.62-2.49,3.87-2.2,5.32-1.85,3.35-2.37,4.39-.4,4.39-.4,0,0,2.83-.69,4.1,.29,3.06-.92,5.55,1.91,5.55,1.91,0,0,3.87-.75,5.37,4.16,3.06,.52,3.41,4.05,3.41,4.05,0,0,1.33,2.25,.35,5.14,1.39,2.77-.12,6.07-.12,6.07,0,0,0,3.64-3.93,5.03,.52-3.64,1.04-4.22,.35-5.78s-2.66-9.25-2.66-9.25c0,0-12.43-3.47-25.2,.23-2.02,6.65-2.66,10.29-2.66,11.27s.52,3.93,.52,3.93Z">
</path>
<path class="cls-1" d="M18.14,34.91c.29,2.13,.99,4.11,1.67,6.12,.27,.63,.49,1.29,1.03,1.81l-.03,.07c-1.36-.7-1.89-2.29-2.37-3.64-.36-1.23-.84-3.28-.3-4.36h0Z">
</path>
<path class="cls-15" d="M20.99,51.38c-3.41,2.7-3.65,5.08-3.25,9,0,0-.09,.04-.09,.04-.74-1.68-1.24-3.63-.65-5.43,.6-1.81,2.21-3.09,3.96-3.71,0,0,.03,.1,.03,.1h0Z">
</path>
<polygon class="cls-15" points="8.29 64.1 15.83 60.17 15.88 60.26 8.76 64.99 8.29 64.1 8.29 64.1">
</polygon>
<path class="cls-15" d="M20.63,16.65c-1.52,.69-1.87,2.3-1.71,3.79-1.09,1.04-.84,2.74-.23,3.98,0,0,.2,.39,.2,.39-.64,1.29-1.09,2.89-.74,4.33,.12,.53,.45,1.01,.71,1.49-.29,1.76,.45,3.64,1.11,5.32,0,0-.08,.06-.08,.06-.99-1.48-1.96-3.59-1.83-5.21-1.41-1.57-1.11-4.52-.23-5.93-.69-1.48-.9-3.48,.38-4.69-.14-1.29,.78-3.33,2.41-3.62,0,0,.02,.1,.02,.1h0Z">
</path>
</g>




 <g
     id="g2850">
    <g
       id="g2837">
      <path
         id="path1951"
         d="M 0.056640625 0.04296875 L 0.056640625 79.943359 L 69.308594 79.943359 L 69.308594 0.04296875 L 0.056640625 0.04296875 z M 33.615234 3.5957031 C 34.206332 3.5957038 34.786991 3.6051034 35.421875 3.6152344 C 44.430653 3.7671809 53.471255 5.1336733 61.560547 7.5546875 L 62.064453 7.7070312 L 62.25 8.1640625 C 66.070247 17.605006 66.990234 28.726438 66.990234 40.0625 C 66.990234 51.398562 65.972723 63.025755 61.988281 72.578125 L 61.791016 73.044922 L 61.275391 73.185547 C 53.273669 75.403966 44.691921 76.529297 35.759766 76.529297 C 35.212453 76.529297 34.675812 76.519896 34.150391 76.509766 L 33.943359 76.509766 C 24.901742 76.357819 15.860367 74.989738 7.7929688 72.558594 L 7.2890625 72.40625 L 7.1035156 71.951172 C 3.2942144 62.520359 2.375 51.369168 2.375 40.0625 C 2.375 28.755832 3.3819737 17.127318 7.3554688 7.5546875 L 7.5527344 7.0898438 L 8.0664062 6.9472656 C 15.509867 4.890923 23.785212 3.7371557 32.005859 3.6054688 C 32.542226 3.5953387 33.078867 3.5957031 33.615234 3.5957031 z "
         style="opacity:1;vector-effect:none;fill:#ffffff;fill-opacity:1;fill-rule:nonzero;stroke:none;stroke-width:1.95200002;stroke-linecap:butt;stroke-linejoin:miter;stroke-miterlimit:4;stroke-dasharray:none;stroke-dashoffset:0;stroke-opacity:1" />
    </g>
    <path
       id="path1154-8-2"
       d="m 33.675163,6.6112954 c 0.557696,0 1.115392,0.00956 1.683415,0.019115 8.427403,0.14336 16.803167,1.4049288 24.363042,3.6700176 3.573384,8.830981 4.443772,19.417362 4.443772,29.761551 0,10.344189 -0.95301,21.39888 -4.68131,30.334991 -7.435942,2.064385 -15.429581,3.274388 -23.774362,3.274388 -0.506058,0 -1.012115,-0.0096 -1.518172,-0.01911 h -0.17557 C 25.56792,73.508883 17.192156,72.088619 9.6426089,69.813973 6.0795528,61.002107 5.2088244,50.415411 5.2088244,40.061979 c 0,-10.353432 0.95335,-21.389323 4.6609939,-30.325434 C 16.820359,7.8155201 24.462856,6.7450981 32.177647,6.6208528 c 0.49573,-0.00956 1.001787,-0.00956 1.497516,-0.00956 m 0,-0.9557337 c -0.506057,0 -1.012114,0 -1.518171,0.00956 C 24.40089,5.7893644 16.593149,6.8789009 9.570315,8.8190405 L 9.0849131,8.9528432 8.8990146,9.3924808 C 5.1500599,18.424166 4.1999116,29.394246 4.1999116,40.061979 c 0,10.667733 0.8675267,21.188618 4.461566,30.0865 l 0.1755708,0.430081 0.4750741,0.14336 c 7.6115135,2.293761 16.1421925,3.584001 24.6728715,3.727361 h 0.196227 c 0.495729,0.0096 1.001786,0.01911 1.518171,0.01911 8.427403,0 16.524318,-1.060864 24.073866,-3.153921 l 0.485403,-0.133802 0.185898,-0.439639 c 3.759282,-9.01257 4.719759,-19.983589 4.719759,-30.679055 0,-10.695466 -0.867528,-21.188618 -4.471894,-30.0960578 L 60.516853,9.5358409 60.041779,9.3924808 C 52.409609,7.108277 43.87893,5.8180364 35.379234,5.6746763 34.780227,5.6651187 34.232859,5.6555621 33.675163,5.6555615 Z"
       style="fill:#ff0000;stroke:#ffffff;stroke-width:1.84341729;stroke-miterlimit:4;stroke-dasharray:none" />
    <path
       id="path1154"
       d="m 33.614853,4.6077955 c 0.591098,0 1.182197,0.01013 1.784241,0.02026 8.932155,0.1519464 17.809578,1.4890758 25.822246,3.8898304 3.787408,9.3599041 4.709928,20.5803481 4.709928,31.5440931 0,10.963745 -1.01009,22.680548 -4.961693,32.151879 -7.881312,2.18803 -16.353723,3.302304 -25.198307,3.302304 -0.536368,0 -1.072735,-0.01013 -1.609102,-0.02026 H 33.97608 C 25.022033,75.343956 16.14461,74.006827 8.1428892,71.595943 4.3664269,62.256298 3.443547,51.035521 3.443547,40.061979 c 0,-10.973542 1.01045,-22.670418 4.9401601,-32.1417498 7.3668369,-2.036083 15.4670749,-3.170617 23.6439369,-3.3023039 0.525421,-0.01013 1.061788,-0.01013 1.587209,-0.01013 m 0,-1.0129766 c -0.536367,0 -1.072734,0 -1.609101,0.01013 C 23.785105,3.7366356 15.509726,4.891429 8.0662653,6.9477716 L 7.5517907,7.0895883 7.3547579,7.5555576 C 3.3812628,17.128188 2.3742062,28.755311 2.3742062,40.061979 c 0,11.306668 0.9194864,22.457692 4.7287876,31.888505 l 0.1860865,0.45584 0.5035283,0.151947 c 8.0673984,2.431144 17.1090154,3.798662 26.1506324,3.950608 h 0.207979 c 0.525421,0.01013 1.061788,0.02026 1.609101,0.02026 8.932155,0 17.514028,-1.124404 25.51575,-3.342823 l 0.514475,-0.141816 0.197032,-0.46597 c 3.984442,-9.55237 5.002445,-21.180489 5.002445,-32.516551 0,-11.336062 -0.919487,-22.457692 -4.739734,-31.8986353 L 62.064202,7.7075041 61.560674,7.5555576 C 53.471382,5.1345434 44.429765,3.7670249 35.420987,3.6150784 c -0.634884,-0.01013 -1.215036,-0.020259 -1.806134,-0.02026 z"
       style="fill:#000000;stroke:#000000;stroke-width:1.95382714;stroke-miterlimit:4;stroke-dasharray:none" />
    <g
       id="g1810">
      <path
         d="M 6.5134911,7.7433673 C 5.6489029,6.8479453 4.058602,6.5681013 3.6272194,7.3820013 3.284151,8.0292783 3.3625296,8.5309135 4.395235,8.9201755 3.2963719,9.5187755 1.4857674,9.4447465 1.1893447,7.4467713 0.95320848,5.8551433 2.674739,4.8863543 3.1399725,5.0916244 3.0034432,3.6818714 1.8221094,4.0692802 0.95849208,3.2813384 0.34259068,2.7194046 0.23126071,-0.02624603 0.0561761,0.04378767 -0.0138576,0.21887227 2.7317937,0.33020157 3.2937267,0.94610377 4.0816685,1.8097211 3.6942598,2.9910547 5.1040128,3.1275841 4.8987425,2.6623507 5.8675315,0.94082017 7.4591593,1.1769564 9.4571345,1.4733791 9.5311625,3.2839847 8.9325635,4.3828467 8.5433008,3.3501417 8.041666,3.2717627 7.3943894,3.6148312 6.5804899,4.0462137 6.8603354,5.6365129 7.7557553,6.5011023"
         style="fill:#000000;stroke:#000000;stroke-width:0.1112323px;stroke-linecap:butt;stroke-linejoin:miter;stroke-opacity:1"
         id="path1737-3" />
      <path
         d="m 62.850738,7.7433673 c 0.864588,-0.895422 2.454889,-1.175266 2.886271,-0.361366 0.343069,0.647277 0.26469,1.148912 -0.768015,1.538174 1.098863,0.5986 2.909467,0.524571 3.20589,-1.473404 0.236136,-1.591628 -1.485394,-2.560417 -1.950628,-2.3551469 0.13653,-1.409753 1.317863,-1.0223442 2.181481,-1.810286 0.615901,-0.5619338 0.727231,-3.30758442 0.902316,-3.23755072 0.07003,0.1750846 -2.675618,0.2864139 -3.237551,0.9023161 C 65.28256,1.8097211 65.669969,2.9910547 64.260216,3.1275841 64.465486,2.6623507 63.496697,0.94082018 61.905069,1.1769564 c -1.997975,0.2964227 -2.072003,2.1070283 -1.473404,3.2058903 0.389263,-1.032705 0.890898,-1.111084 1.538174,-0.7680155 0.8139,0.4313825 0.534054,2.0216817 -0.361366,2.8862711"
         style="fill:#000000;stroke:#000000;stroke-width:0.1112323px;stroke-linecap:butt;stroke-linejoin:miter;stroke-opacity:1"
         id="path1737-3-5" />
      <path
         d="m 62.850738,72.244244 c 0.864588,0.895422 2.454889,1.175266 2.886272,0.361366 0.343068,-0.647277 0.264689,-1.148912 -0.768016,-1.538174 1.098863,-0.5986 2.909468,-0.524571 3.20589,1.473404 0.236137,1.591628 -1.485394,2.560417 -1.950628,2.355147 0.13653,1.409753 1.317864,1.022344 2.181481,1.810286 0.615901,0.561934 0.727231,3.307584 0.902316,3.237551 0.07003,-0.175085 -2.675618,-0.286414 -3.237551,-0.902317 -0.787942,-0.863617 -0.400533,-2.04495 -1.810286,-2.18148 0.20527,0.465234 -0.763519,2.186764 -2.355146,1.950628 -1.997976,-0.296423 -2.072004,-2.107028 -1.473405,-3.20589 0.389263,1.032705 0.890898,1.111084 1.538175,0.768015 0.813899,-0.431382 0.534054,-2.021682 -0.361366,-2.886271"
         style="fill:#000000;stroke:#000000;stroke-width:0.1112323px;stroke-linecap:butt;stroke-linejoin:miter;stroke-opacity:1"
         id="path1737-3-7" />
      <path
         d="M 6.513491,72.244245 C 5.648903,73.139667 4.058602,73.419511 3.62722,72.605611 3.284151,71.958334 3.36253,71.456699 4.395235,71.067437 c -1.098863,-0.5986 -2.909467,-0.524571 -3.20589,1.473404 -0.23613599,1.591628 1.485394,2.560417 1.950628,2.355147 -0.13653,1.409753 -1.317863,1.022344 -2.18148099,1.810286 -0.615901,0.561933 -0.727231,3.307584 -0.902316,3.23755 C -0.01385399,79.76874 2.731794,79.65741 3.293727,79.041508 4.081669,78.177891 3.69426,76.996557 5.104013,76.860028 4.898743,77.325261 5.867532,79.046792 7.45916,78.810656 9.457135,78.514233 9.531163,76.703627 8.932564,75.604765 8.543301,76.63747 8.041666,76.715849 7.39439,76.372781 6.58049,75.941398 6.860336,74.351099 7.755756,73.48651"
         style="fill:#000000;stroke:#000000;stroke-width:0.1112323px;stroke-linecap:butt;stroke-linejoin:miter;stroke-opacity:1"
         id="path1737-3-5-5" />
    </g>
    <path
       id="path1154-9"
       d="m 33.712865,7.4258691 c 0.536813,0 1.07363,0.00933 1.620386,0.01865 8.111875,0.1398689 16.174044,1.3707167 23.450873,3.5806479 3.439594,8.615932 4.277395,18.944521 4.277395,29.036812 0,10.092292 -0.917329,20.877786 -4.506039,29.596289 -7.157536,2.014114 -14.851888,3.03982 -22.884234,3.03982 -0.487111,0 -0.974221,-0.0094 -1.461331,-0.01865 H 34.040918 C 25.909161,72.53957 17.846991,71.308722 10.580105,69.089467 7.1504515,60.492184 6.3123238,50.163289 6.3123238,40.061979 c 0,-10.101311 0.9176558,-20.868461 4.4864832,-29.586965 6.690308,-1.8742449 14.046665,-2.9186005 21.472608,-3.0398203 0.47717,-0.00933 0.964281,-0.00933 1.44145,-0.00933 m 0,-0.9324602 c -0.487111,0 -0.974221,0 -1.46133,0.00933 C 24.785826,6.6239532 17.270413,7.686958 10.510517,9.5798526 L 10.043289,9.710397 9.8643508,10.139328 c -3.6085914,8.811751 -4.5231655,19.514693 -4.5231655,29.922651 0,10.407958 0.8350459,20.672644 4.294522,29.353849 l 0.1689973,0.419608 0.4572874,0.13987 c 7.326533,2.237904 15.537818,3.496724 23.749103,3.636593 h 0.188879 c 0.47717,0.0094 0.96428,0.01865 1.461331,0.01865 8.111875,0 15.905636,-1.035031 23.172525,-3.077119 l 0.467228,-0.130544 0.178938,-0.428932 c 3.618533,-8.793101 4.543048,-19.496959 4.543048,-29.931975 0,-10.435016 -0.835047,-20.672644 -4.304463,-29.363174 l -0.168997,-0.419609 -0.457288,-0.13987 C 51.74588,7.9107484 43.534594,6.6519271 35.353133,6.512058 34.776554,6.502738 34.249678,6.493409 33.712865,6.493409 Z"
       style="fill:#000000;stroke:none;stroke-width:1.78642213;stroke-miterlimit:4;stroke-dasharray:none" />
    <path
       id="path1154-9-3"
       d="m 33.712865,7.4258686 c 0.536813,0 1.07363,0.00933 1.620386,0.01865 8.111875,0.1398689 16.174044,1.3707167 23.450873,3.5806484 3.439594,8.615932 4.277395,18.944521 4.277395,29.036812 0,10.092292 -0.917329,20.877786 -4.506039,29.596288 -7.157536,2.014114 -14.851888,3.03982 -22.884234,3.03982 -0.487111,0 -0.974221,-0.0094 -1.461331,-0.01865 H 34.040918 C 25.909161,72.539569 17.846991,71.308722 10.580105,69.089466 7.1504515,60.492184 6.3123238,50.163288 6.3123238,40.061979 c 0,-10.101312 0.9176558,-20.868461 4.4864832,-29.586965 6.690308,-1.8742454 14.046665,-2.918601 21.472608,-3.0398208 0.47717,-0.00933 0.964281,-0.00933 1.44145,-0.00933 m 0,-0.9324602 c -0.487111,0 -0.974221,0 -1.46133,0.00933 C 24.785826,6.6239527 17.270413,7.6869575 10.510517,9.5798521 L 10.043289,9.7103965 9.8643508,10.139328 C 6.2557594,18.951079 5.3411853,29.65402 5.3411853,40.061979 c 0,10.407958 0.8350459,20.672643 4.294522,29.353849 l 0.1689973,0.419608 0.4572874,0.13987 c 7.326533,2.237904 15.537818,3.496724 23.749103,3.636593 h 0.188879 c 0.47717,0.0094 0.96428,0.01865 1.461331,0.01865 8.111875,0 15.905636,-1.035032 23.172525,-3.077119 l 0.467228,-0.130544 0.178938,-0.428932 c 3.618533,-8.793101 4.543048,-19.49696 4.543048,-29.931975 0,-10.435016 -0.835047,-20.672644 -4.304463,-29.363175 l -0.168997,-0.419609 -0.457288,-0.13987 C 51.74588,7.9107479 43.534594,6.6519266 35.353133,6.5120575 34.776554,6.5027375 34.249678,6.4934085 33.712865,6.4934085 Z"
       style="fill:#000000;stroke:none;stroke-width:1.78642213;stroke-miterlimit:4;stroke-dasharray:none" />
  </g>
</svg>
