<?xml version="1.0" encoding="UTF-8"?><svg id="Capa_2" xmlns="http://www.w3.org/2000/svg" xmlns:xlink="http://www.w3.org/1999/xlink" viewBox="0 0 69.02 80"><defs><style>.cls-1{fill:#c89aed;}.cls-2{fill:#fff;}.cls-3{fill:#f8ffbf;}.cls-4{fill:#7b7be8;}.cls-5{fill:#a88347;}.cls-6{fill:#782ab5;}.cls-7,.cls-8{stroke:#000;stroke-miterlimit:10;}.cls-7,.cls-8,.cls-9,.cls-10,.cls-11{fill:none;}.cls-8,.cls-9{stroke-linecap:round;}.cls-12{fill:#1c46ff;}.cls-9{stroke:#deb778;stroke-dasharray:0 0 0 4.06;stroke-linejoin:round;}.cls-13{fill:#deb778;}.cls-14{fill:url(#USGS_19_Inundación_de_tierra_2);}.cls-11{stroke:#1d1d1b;stroke-dasharray:0 0 2 2;stroke-width:.3px;}.cls-15{fill:#cf5f2b;}.cls-16{fill:#fcf0c5;}</style><pattern id="USGS_19_Inundación_de_tierra_2" x="0" y="0" width="72" height="72" patternTransform="translate(51.52 -17071) rotate(-90)" patternUnits="userSpaceOnUse" viewBox="0 0 72 72"><g><rect class="cls-10" width="72" height="72"/><g><line class="cls-11" x1="71" y1="71" x2="144.44" y2="71"/><line class="cls-11" x1="71" y1="67" x2="144.44" y2="67"/><line class="cls-11" x1="71" y1="63" x2="144.44" y2="63"/><line class="cls-11" x1="71" y1="59" x2="144.44" y2="59"/><line class="cls-11" x1="71" y1="55" x2="144.44" y2="55"/><line class="cls-11" x1="71" y1="51" x2="144.44" y2="51"/><line class="cls-11" x1="71" y1="47" x2="144.44" y2="47"/><line class="cls-11" x1="71" y1="43" x2="144.44" y2="43"/><line class="cls-11" x1="71" y1="39" x2="144.44" y2="39"/><line class="cls-11" x1="71" y1="35" x2="144.44" y2="35"/><line class="cls-11" x1="71" y1="31" x2="144.44" y2="31"/><line class="cls-11" x1="71" y1="27" x2="144.44" y2="27"/><line class="cls-11" x1="71" y1="23" x2="144.44" y2="23"/><line class="cls-11" x1="71" y1="19" x2="144.44" y2="19"/><line class="cls-11" x1="71" y1="15" x2="144.44" y2="15"/><line class="cls-11" x1="71" y1="11" x2="144.44" y2="11"/><line class="cls-11" x1="71" y1="7" x2="144.44" y2="7"/><line class="cls-11" x1="71" y1="3" x2="144.44" y2="3"/></g>
<g><line class="cls-11" x1="-1" y1="71" x2="72.44" y2="71"/><line class="cls-11" x1="-1" y1="67" x2="72.44" y2="67"/><line class="cls-11" x1="-1" y1="63" x2="72.44" y2="63"/><line class="cls-11" x1="-1" y1="59" x2="72.44" y2="59"/><line class="cls-11" x1="-1" y1="55" x2="72.44" y2="55"/><line class="cls-11" x1="-1" y1="51" x2="72.44" y2="51"/><line class="cls-11" x1="-1" y1="47" x2="72.44" y2="47"/><line class="cls-11" x1="-1" y1="43" x2="72.44" y2="43"/><line class="cls-11" x1="-1" y1="39" x2="72.44" y2="39"/><line class="cls-11" x1="-1" y1="35" x2="72.44" y2="35"/><line class="cls-11" x1="-1" y1="31" x2="72.44" y2="31"/><line class="cls-11" x1="-1" y1="27" x2="72.44" y2="27"/><line class="cls-11" x1="-1" y1="23" x2="72.44" y2="23"/><line class="cls-11" x1="-1" y1="19" x2="72.44" y2="19"/><line class="cls-11" x1="-1" y1="15" x2="72.44" y2="15"/><line class="cls-11" x1="-1" y1="11" x2="72.44" y2="11"/><line class="cls-11" x1="-1" y1="7" x2="72.44" y2="7"/><line class="cls-11" x1="-1" y1="3" x2="72.44" y2="3"/><line class="cls-11" x1="1.04" y1="69" x2="74.48" y2="69"/><line class="cls-11" x1="1.04" y1="65" x2="74.48" y2="65"/><line class="cls-11" x1="1.04" y1="61" x2="74.48" y2="61"/><line class="cls-11" x1="1.04" y1="57" x2="74.48" y2="57"/><line class="cls-11" x1="1.04" y1="53" x2="74.48" y2="53"/><line class="cls-11" x1="1.04" y1="49" x2="74.48" y2="49"/><line class="cls-11" x1="1.04" y1="45" x2="74.48" y2="45"/><line class="cls-11" x1="1.04" y1="41" x2="74.48" y2="41"/><line class="cls-11" x1="1.04" y1="37" x2="74.48" y2="37"/><line class="cls-11" x1="1.04" y1="33" x2="74.48" y2="33"/><line class="cls-11" x1="1.04" y1="29" x2="74.48" y2="29"/><line class="cls-11" x1="1.04" y1="25" x2="74.48" y2="25"/><line class="cls-11" x1="1.04" y1="21" x2="74.48" y2="21"/><line class="cls-11" x1="1.04" y1="17" x2="74.48" y2="17"/><line class="cls-11" x1="1.04" y1="13" x2="74.48" y2="13"/><line class="cls-11" x1="1.04" y1="9" x2="74.48" y2="9"/><line class="cls-11" x1="1.04" y1="5" x2="74.48" y2="5"/><line class="cls-11" x1="1.04" y1="1" x2="74.48" y2="1"/></g>
<g><line class="cls-11" x1="-73" y1="71" x2=".44" y2="71"/><line class="cls-11" x1="-73" y1="67" x2=".44" y2="67"/><line class="cls-11" x1="-73" y1="63" x2=".44" y2="63"/><line class="cls-11" x1="-73" y1="59" x2=".44" y2="59"/><line class="cls-11" x1="-73" y1="55" x2=".44" y2="55"/><line class="cls-11" x1="-73" y1="51" x2=".44" y2="51"/><line class="cls-11" x1="-73" y1="47" x2=".44" y2="47"/><line class="cls-11" x1="-73" y1="43" x2=".44" y2="43"/><line class="cls-11" x1="-73" y1="39" x2=".44" y2="39"/><line class="cls-11" x1="-73" y1="35" x2=".44" y2="35"/><line class="cls-11" x1="-73" y1="31" x2=".44" y2="31"/><line class="cls-11" x1="-73" y1="27" x2=".44" y2="27"/><line class="cls-11" x1="-73" y1="23" x2=".44" y2="23"/><line class="cls-11" x1="-73" y1="19" x2=".44" y2="19"/><line class="cls-11" x1="-73" y1="15" x2=".44" y2="15"/><line class="cls-11" x1="-73" y1="11" x2=".44" y2="11"/><line class="cls-11" x1="-73" y1="7" x2=".44" y2="7"/><line class="cls-11" x1="-73" y1="3" x2=".44" y2="3"/><line class="cls-11" x1="-70.96" y1="69" x2="2.48" y2="69"/><line class="cls-11" x1="-70.96" y1="65" x2="2.48" y2="65"/><line class="cls-11" x1="-70.96" y1="61" x2="2.48" y2="61"/><line class="cls-11" x1="-70.96" y1="57" x2="2.48" y2="57"/><line class="cls-11" x1="-70.96" y1="53" x2="2.48" y2="53"/><line class="cls-11" x1="-70.96" y1="49" x2="2.48" y2="49"/><line class="cls-11" x1="-70.96" y1="45" x2="2.48" y2="45"/><line class="cls-11" x1="-70.96" y1="41" x2="2.48" y2="41"/><line class="cls-11" x1="-70.96" y1="37" x2="2.48" y2="37"/><line class="cls-11" x1="-70.96" y1="33" x2="2.48" y2="33"/><line class="cls-11" x1="-70.96" y1="29" x2="2.48" y2="29"/><line class="cls-11" x1="-70.96" y1="25" x2="2.48" y2="25"/><line class="cls-11" x1="-70.96" y1="21" x2="2.48" y2="21"/><line class="cls-11" x1="-70.96" y1="17" x2="2.48" y2="17"/><line class="cls-11" x1="-70.96" y1="13" x2="2.48" y2="13"/><line class="cls-11" x1="-70.96" y1="9" x2="2.48" y2="9"/><line class="cls-11" x1="-70.96" y1="5" x2="2.48" y2="5"/><line class="cls-11" x1="-70.96" y1="1" x2="2.48" y2="1"/></g>
</g>
</pattern></defs><g id="Frame"><path class="cls-6" d="M64.02,40c0,11.47-1.89,22.39-5.5,31.74-7.2,2.16-14.94,3.26-23.02,3.26-.49,0-.98-.01-1.47-.02h-.17c-8.18-.15-16.29-1.47-23.6-3.85-3.45-9.22-5.26-19.93-5.26-31.13s1.89-22.38,5.48-31.73c6.73-2.01,14.13-3.13,21.6-3.26,.48-.01,.97-.01,1.45-.01,.54,0,1.08,.01,1.63,.02,8.16,.15,16.27,1.47,23.59,3.84,3.46,9.24,5.27,19.95,5.27,31.14Z"/><path class="cls-14" d="M34.03,5.59V74.98h-.17c-8.18-.15-16.29-1.47-23.6-3.85-3.45-9.22-5.26-19.93-5.26-31.13s1.89-22.38,5.48-31.73c6.73-2.01,14.13-3.13,21.6-3.26,.65,.16,1.3,.36,1.95,.58Z"/></g>
<g><path class="cls-4" d="M60.17,73.05l-25.18,4.27-24.42-3.73-1.32-.2-.02-1-.1-4.96,8.66-4.5,4.05-4.5,2.92-.33-.22-4.16s-.23-.34-1.24-1.24c-1.35-.9-1.8-3.26-3.26-9.67-6.41,.34-7.42-9.1-5.85-11.58,1.11-1.73,2.21-1.14,2.77-.64,.24,.22,.38,.42,.38,.42-1.12-3.6-.9-7.87,1.01-11.13,3.26-6.97,12.37-9.22,24.17-7.08,9.78,3.37,10.91,10.68,9.9,18.21,.39-.47,.86-.76,1.33-.86,1.72-.36,3.51,1.72,1.93,6.82-2.36,7.08-5.74,5.62-5.74,5.62,0,0-1.91,6.18-2.58,8.2-.68,2.03-3.49,3.83-3.49,3.83l.12,1.64,.11,1.62,3.14,.33,3.49,4.5,8.77,4.27,.67,5.85Z"/><path class="cls-1" d="M34.64,54.36V31.87c0-6.04,4.36-11.19,10.31-12.2l5.09-.86s3.52,7.03,1.76,14.65c-1.67,8.88-3.94,16.5-5.28,18.84-.9,1.57-4.2,3.9-7.45,5.11-2.15,.8-4.44-.76-4.44-3.05Z"/><path d="M53.75,30.37l-1.86,2.13s-.31-11.05-3.15-12.72c-5.74,2.47-18.03,1.98-21.92,1.61-3.88-.37-6.11-1.67-6.11-1.67,0,0-2.84,6.98-2.65,14.45-.51-1.35-.74-1.92-.74-1.92l-.36-1.44c.24,.22,.38,.42,.38,.42-1.12-3.6-.9-7.87,1.01-11.13,3.26-6.97,12.37-9.22,24.17-7.08,9.78,3.37,10.91,10.68,9.9,18.21,.39-.47,.86-.76,1.33-.86Z"/><path class="cls-12" d="M60.17,73.05l-25.18,4.27-24.42-3.73-1.34-1.2-.1-4.96,8.66-4.5,4.05-4.5,2.92-.33c.57,4.58,1.33,8.41,9.36,14.54,6.76-2.64,9.82-11.52,9.82-11.52l-.1-4.64h.15l.11,1.62,3.14,.33,3.49,4.5,8.77,4.27,.67,5.85Z"/><path class="cls-3" d="M32.51,33.27s-5.77-4.13-12.66-.17c-.17,4.39,2.15,7.75,6.2,7.83s6.8-2.93,6.46-7.66Z"/><path class="cls-3" d="M36.68,33.21s3.05-2.08,7.15-2.01,5.43,1.94,5.43,1.94c0,0,1.11,6.7-5.21,7.82-4.32,.6-7.89-2.9-7.37-7.74Z"/><path d="M18.1,31.79s-2.37-2.72-4.22-.53c-1.93,2.72,1.05,9.32,2.99,10.81,1.76,1.32,3.17,.95,3.17,.95,0,0-2.38-8.95-1.94-11.24Z"/><path d="M43.64,55.21l-16.69,19.86-16.48-3.59-1.34-4.04,7.99-3.56,4.22-5.18,3.06-.74,.13-4.01s5.89,3.91,8.22,4.22,4.26,.95,10.88-2.96Z"/><path class="cls-1" d="M42.81,57.27l-10.16,12.65,1.68,1.41s6.06-4.44,8.35-10.23c.2-2.96,.13-3.84,.13-3.84Z"/><path class="cls-4" d="M21.37,21.57c2.8,1.15,6.79,1.41,9.79,1.41,1.29,0,2.27-.05,2.68-.07h2.08c.83,.05,1.76,.07,2.69,.07,3,0,6.99-.26,9.8-1.4,1.24,2.82,1.69,9.68,1.68,13.72,0,.04,0,.08,0,.11-.92,4.67-2.36,10.06-3.77,14.12-.53,1.52-1.55,2.83-2.9,3.67-1.36,.85-2.83,1.72-4.38,2.58-1.29,.71-2.73,1.09-4.18,1.09s-2.89-.37-4.16-1.08c-1.75-.98-3.18-1.83-4.38-2.58-1.34-.85-2.38-2.16-2.91-3.69-1.17-3.38-2.8-9.04-3.9-14.85,.06-4.12,.67-10.44,1.88-13.1m27.45-1.3c-2.69,1.45-7.3,1.7-10.21,1.7-1.49,0-2.54-.07-2.67-.07h-2.13c-.11,0-1.16,.07-2.65,.07-2.91,0-7.52-.25-10.2-1.7-1.9,2.6-2.43,11.23-2.47,14.47h0c1.02,5.41,2.61,11.19,3.96,15.1,.61,1.75,1.79,3.24,3.32,4.21,1.32,.83,2.81,1.7,4.43,2.61,1.46,.8,3.05,1.21,4.65,1.21s3.21-.41,4.67-1.22c1.6-.89,3.09-1.77,4.43-2.61,1.53-.96,2.71-2.45,3.31-4.19,1.3-3.75,2.82-9.22,3.84-14.43-.01-.04-.02-.08-.02-.13,.01-3.38-.38-12.39-2.26-15.02h0Z"/><path class="cls-2" d="M39.25,42.7s3.57,1.31,8.07-1.13c-5.45,5.35-6.1,4.88-8.07,1.13Z"/><path class="cls-2" d="M46.47,23.76s1.06,4.51,1.24,6.82c-3.01-1.42-6.46-.62-6.46-.62,0,0,2.92-.62,5.22-6.2Z"/><path class="cls-1" d="M22.55,42.42s3.32,1.61,6.96-.43c-3,4.71-3.43,4.5-6.96,.43Z"/><path class="cls-4" d="M47.17,15.82c.45,.47,.11,1.26-.54,1.26-5.72,.05-26.43,.05-19.9-2.77s16.96-2.07,20.44,1.51Z"/><path class="cls-1" d="M53.03,31.35s3.05,3.86,.16,9.8c4.02-6.67,3.45-12.21-.16-9.8Z"/><path class="cls-8" d="M49.57,17.45c-1.95-2.43-4.73-4.03-7.8-4.58-2.16-.38-4.62-.64-7.33-.64-2.35,0-4.41,.19-6.2,.5-3.14,.53-5.98,2.14-7.99,4.61-1.73,2.13-3.06,4.54-3.25,7.05-.49,6.68,2.86,19.47,4.98,25.62,.64,1.85,1.87,3.43,3.52,4.46,1.45,.91,2.97,1.79,4.45,2.62,3.05,1.69,6.75,1.69,9.8,0,1.49-.83,3.01-1.71,4.45-2.63,1.65-1.04,2.88-2.61,3.52-4.45,2.13-6.15,5.47-18.94,4.98-25.62-.18-2.47-1.46-4.84-3.14-6.94Z"/><path class="cls-8" d="M17.34,31.44s-1.5-1.9-2.92-.55-.87,5.93,.63,8.61,2.92,3.87,4.66,3.4"/><path class="cls-8" d="M52.34,31.44s1.5-1.9,2.92-.55,.87,5.93-.63,8.61-2.92,3.87-4.66,3.4"/><path class="cls-8" d="M51.58,35.3s.05-12.89-2.64-15.67c-3.79,2.39-12.96,1.77-12.96,1.77h-2.16s-9.18,.62-12.96-1.77c-2.69,2.78-2.86,15.1-2.86,15.1"/><path class="cls-8" d="M20.03,32.82s5.85-3.81,12.35,.2c.18,6.63-3.54,7.94-6.5,7.94s-7.09-2.69-5.85-8.14Z"/><path class="cls-8" d="M49.09,32.82s-5.85-3.81-12.35,.2c-.18,6.63,3.54,7.94,6.5,7.94s7.09-2.69,5.85-8.14Z"/><path class="cls-8" d="M32.59,33.5s2.33-1.09,4.14,.29"/><line class="cls-8" x1="20.03" y1="32.82" x2="17.55" y2="32.82"/><line class="cls-8" x1="49.26" y1="32.82" x2="51.73" y2="32.82"/><path d="M36.57,39.54c.89,.53,2.54,2.1,1.16,2.99-1.09,.56-2.16,.77-3.3,1.07,0,0-.11-.03-.11-.03-2.81-.67-5.67-1.37-2.04-4.04-.41,.63-.97,1.3-1.02,2.02,.02,.18,.05,.21,.23,.28,.43,.15,.97,.29,1.49,.4l1.57,.36h-.22c.86-.21,2.27-.48,3.06-.76,.17-.07,.2-.09,.22-.28-.06-.73-.61-1.4-1.03-2.02h0Z"/><path d="M41.2,50.56l-6.58-1.01-6.58,1.01s2.66-3.21,4.52-3.38c.81-.05,1.52,.26,2.07,.65,.55-.39,1.26-.71,2.06-.65,1.86,.17,4.51,3.38,4.51,3.38Z"/><path d="M31.85,51.99c1.7,.81,3.68,.7,5.41,.03,0,0,.04,.09,.04,.09-.62,.97-1.64,1.39-2.74,1.44-1.1-.01-2.2-.46-2.75-1.48,0,0,.05-.09,.05-.09h0Z"/><path class="cls-7" d="M24.33,57.91l-2.96,.61-7.9,9.78s6.21,.8,9.36,.85c-.85,1.93-.89,2.54-.89,2.54l2.59,3.1"/><line class="cls-7" x1="17.7" y1="63.08" x2="8.67" y2="67.55"/><path class="cls-7" d="M44.07,54.79v6.32s-2.18,7.2-9.75,12.02c-7.58-4.82-9.75-12.02-9.75-12.02v-6.87"/><path class="cls-7" d="M44.3,57.91l2.96,.61,7.9,9.78s-6.21,.8-9.36,.85c.85,1.93,.89,2.54,.89,2.54l-2.59,3.1"/><line class="cls-7" x1="50.93" y1="63.08" x2="59.96" y2="67.55"/><line class="cls-7" x1="34.32" y1="73.13" x2="34.32" y2="74.89"/><path class="cls-15" d="M24.66,58.51c-.89,.45-1.81,.84-2.74,1.19,0,0,.31-.2,.31-.2-1,1.72-2.15,3.32-3.34,4.91-2.75,1.29-5.81,2.56-8.78,3.23,0,0-.04-.09-.04-.09,0,.01,8.33-4.03,8.17-3.92,0,0,3.51-4.51,3.51-4.51v-.02s.04,0,.04,0l2.86-.68,.02,.1h0Z"/><path class="cls-15" d="M16.06,31.09c-3.12-.58-.5,7.12,.17,8.49,.5,1.01,1.09,1.95,2.03,2.78,0,0-.04,.09-.04,.09-3.32-1.7-4.56-5.95-4.42-9.46,.05-1.27,.85-2.77,2.31-1.99,0,0-.05,.09-.05,.09h0Z"/></g>
<g id="BG"><path class="cls-5" d="M62.56,4.88C54.4,1.94,45.12,.2,35.25,.02,34.68,.01,34.1,0,33.53,0,23.88,0,14.77,1.52,6.72,4.21,2.49,14.22,0,26.6,0,40s2.39,25.22,6.45,35.11c8.16,2.94,17.45,4.69,27.32,4.87,.58,.01,1.15,.02,1.73,.02,9.63,0,18.73-1.51,26.78-4.2,4.24-10.01,6.74-22.39,6.74-35.8s-2.4-25.24-6.46-35.12Zm-4.04,66.86c-7.2,2.16-14.94,3.26-23.02,3.26-.49,0-.98-.01-1.47-.02h-.17c-8.18-.15-16.29-1.47-23.6-3.85-3.45-9.22-5.26-19.93-5.26-31.13s1.89-22.38,5.48-31.73c6.73-2.01,14.13-3.13,21.6-3.26,.48-.01,.97-.01,1.45-.01,.54,0,1.08,.01,1.63,.02,8.16,.15,16.27,1.47,23.59,3.84,3.46,9.24,5.27,19.95,5.27,31.14s-1.89,22.39-5.5,31.74Z"/><path class="cls-13" d="M17.21,2.06h0c1.63,.63,2.06,2.75,.81,3.97l-1.26,1.22s8.35-2.37,18.84-1.69h0c-1-1.49-.45-3.52,1.14-4.34l1-.51S28.26-.43,17.21,2.06Z"/><path class="cls-16" d="M21.81,1.66s.7,2.18-.22,3.1c3.77-.41,7.98-.74,11.12-.74-.33-1.33,1.26-3.4,1.26-3.4,0,0-6.17-.26-12.16,1.03Z"/><path class="cls-13" d="M36.25,79.21h0c-1.52-.87-1.62-3.03-.2-4.04l1.43-1.02s-8.61,1.07-18.88-1.19h0c.76,1.63-.09,3.55-1.79,4.11l-1.07,.36s9.19,2.56,20.5,1.78Z"/><path class="cls-16" d="M19.28,77.8s1.76-1.83,1.3-3.09c4.43,.69,9.11,1.14,12.25,1.14-.33,1.33,.44,3.4,.44,3.4,0,0-8-.16-13.99-1.45Z"/><polygon points="47.48 1.77 47.48 6.73 54.49 8.44 54.49 2.62 47.48 1.77"/><line class="cls-7" x1="45.5" y1="1.23" x2="45.5" y2="6.29"/><line class="cls-7" x1="56.47" y1="3.67" x2="56.47" y2="8.73"/><polygon points="47.48 78.74 47.48 73.78 54.49 72.07 54.49 77.88 47.48 78.74"/><line class="cls-7" x1="45.5" y1="79.28" x2="45.5" y2="74.21"/><line class="cls-7" x1="56.47" y1="76.84" x2="56.47" y2="71.77"/><path d="M33.53,1c.56,0,1.14,.01,1.7,.02,9.39,.17,18.33,1.74,26.57,4.65,4.07,10.08,6.22,21.94,6.22,34.33s-2.24,24.79-6.49,34.99c-8.12,2.66-16.87,4.01-26.03,4.01-.56,0-1.12,0-1.71-.02-9.25-.17-18.42-1.78-26.58-4.66C3.15,64.25,1,52.39,1,40S3.23,15.21,7.47,5.02C15.6,2.35,24.37,1,33.53,1m0-1C23.88,0,14.77,1.52,6.72,4.21,2.49,14.22,0,26.6,0,40s2.39,25.22,6.45,35.11c8.16,2.94,17.45,4.69,27.32,4.87,.58,.01,1.15,.02,1.73,.02,9.63,0,18.73-1.51,26.78-4.2,4.24-10.01,6.74-22.39,6.74-35.8s-2.4-25.24-6.46-35.12C54.4,1.94,45.12,.2,35.25,.02c-.57-.01-1.15-.02-1.72-.02h0Z"/><path class="cls-13" d="M33.53,6c.52,0,1.05,0,1.61,.02,7.87,.14,15.75,1.4,22.84,3.64,3.3,9,5.04,19.47,5.04,30.34s-1.82,21.82-5.26,30.92c-6.98,2.04-14.47,3.08-22.26,3.08-.48,0-.97,0-1.47-.02h-.15c-7.89-.14-15.78-1.41-22.85-3.65-3.29-8.99-5.03-19.46-5.03-30.33s1.81-21.79,5.24-30.91c6.5-1.89,13.7-2.95,20.86-3.08,.47,0,.96,0,1.43,0m0-1c-.48,0-.97,0-1.45,.01-7.47,.13-14.87,1.25-21.6,3.26-3.59,9.35-5.48,20.26-5.48,31.73s1.81,21.91,5.26,31.13c7.31,2.38,15.42,3.7,23.6,3.85h.17c.49,.01,.98,.02,1.47,.02,8.08,0,15.82-1.1,23.02-3.26,3.61-9.35,5.5-20.27,5.5-31.74s-1.81-21.9-5.27-31.14c-7.32-2.37-15.43-3.69-23.59-3.84-.55-.01-1.09-.02-1.63-.02h0Z"/><path d="M33.53,5c.54,0,1.08,.01,1.63,.02,8.16,.15,16.27,1.47,23.59,3.84,3.46,9.24,5.27,19.95,5.27,31.14s-1.89,22.39-5.5,31.74c-7.2,2.16-14.94,3.26-23.02,3.26-.49,0-.98-.01-1.47-.02h-.17c-8.18-.15-16.29-1.47-23.6-3.85-3.45-9.22-5.26-19.93-5.26-31.13s1.89-22.38,5.48-31.73c6.73-2.01,14.13-3.13,21.6-3.26,.48-.01,.97-.01,1.45-.01m0-1c-.49,0-.98,0-1.47,.01-7.51,.13-15.07,1.27-21.87,3.3l-.47,.14-.18,.46c-3.63,9.45-5.55,20.55-5.55,32.09s1.84,22.17,5.32,31.48l.17,.45,.46,.15c7.37,2.4,15.63,3.75,23.89,3.9h.19c.48,.01,.97,.02,1.47,.02,8.16,0,16-1.11,23.31-3.3l.47-.14,.18-.46c3.64-9.43,5.57-20.53,5.57-32.1s-1.84-22.17-5.33-31.49l-.17-.45-.46-.15c-7.39-2.39-15.65-3.74-23.88-3.89-.58-.01-1.11-.02-1.65-.02h0Z"/><path class="cls-9" d="M8.14,7.1s-12.66,32.94,0,66.06"/><path class="cls-9" d="M60.88,7.58s12.66,32.94,0,66.06"/></g>
</svg>