<svg id="Capa_2" xmlns="http://www.w3.org/2000/svg" xmlns:xlink="http://www.w3.org/1999/xlink" viewBox="0 0 69.02 80">
<defs >
<style >
.cls-1{fill:#000000;}.cls-2{fill:#000;}.cls-3{fill:#000000;}.cls-4{fill:#000000;}.cls-5{fill:#000000;}.cls-6{fill:#000000;}.cls-7,.cls-8{stroke:#000;stroke-miterlimit:10;}.cls-7,.cls-8,.cls-9,.cls-10,.cls-11{fill:none;}.cls-8,.cls-9{stroke-linecap:round;}.cls-9{stroke:#000000;stroke-dasharray:0 0 0 4.06;stroke-linejoin:round;}.cls-12{fill:#000000;}.cls-13{fill:url(#USGS_19_Inundación_de_tierra_2);}.cls-11{stroke:#000000;stroke-dasharray:0 0 2 2;stroke-width:.3px;}.cls-14{fill:#000000;}.cls-15{fill:#000000;}.cls-16{fill:#000000;}
</style>
<pattern id="USGS_19_Inundación_de_tierra_2" x="0" y="0" width="72" height="72" patternTransform="translate(-92.48 -17071) rotate(-90)" patternUnits="userSpaceOnUse" viewBox="0 0 72 72">
<g >
<rect class="cls-10" width="72" height="72">
</rect>
<g >
<line class="cls-11" x1="71" y1="71" x2="144.44" y2="71">
</line>
<line class="cls-11" x1="71" y1="67" x2="144.44" y2="67">
</line>
<line class="cls-11" x1="71" y1="63" x2="144.44" y2="63">
</line>
<line class="cls-11" x1="71" y1="59" x2="144.44" y2="59">
</line>
<line class="cls-11" x1="71" y1="55" x2="144.44" y2="55">
</line>
<line class="cls-11" x1="71" y1="51" x2="144.44" y2="51">
</line>
<line class="cls-11" x1="71" y1="47" x2="144.44" y2="47">
</line>
<line class="cls-11" x1="71" y1="43" x2="144.44" y2="43">
</line>
<line class="cls-11" x1="71" y1="39" x2="144.44" y2="39">
</line>
<line class="cls-11" x1="71" y1="35" x2="144.44" y2="35">
</line>
<line class="cls-11" x1="71" y1="31" x2="144.44" y2="31">
</line>
<line class="cls-11" x1="71" y1="27" x2="144.44" y2="27">
</line>
<line class="cls-11" x1="71" y1="23" x2="144.44" y2="23">
</line>
<line class="cls-11" x1="71" y1="19" x2="144.44" y2="19">
</line>
<line class="cls-11" x1="71" y1="15" x2="144.44" y2="15">
</line>
<line class="cls-11" x1="71" y1="11" x2="144.44" y2="11">
</line>
<line class="cls-11" x1="71" y1="7" x2="144.44" y2="7">
</line>
<line class="cls-11" x1="71" y1="3" x2="144.44" y2="3">
</line>
</g>


<g >
<line class="cls-11" x1="-1" y1="71" x2="72.44" y2="71">
</line>
<line class="cls-11" x1="-1" y1="67" x2="72.44" y2="67">
</line>
<line class="cls-11" x1="-1" y1="63" x2="72.44" y2="63">
</line>
<line class="cls-11" x1="-1" y1="59" x2="72.44" y2="59">
</line>
<line class="cls-11" x1="-1" y1="55" x2="72.44" y2="55">
</line>
<line class="cls-11" x1="-1" y1="51" x2="72.44" y2="51">
</line>
<line class="cls-11" x1="-1" y1="47" x2="72.44" y2="47">
</line>
<line class="cls-11" x1="-1" y1="43" x2="72.44" y2="43">
</line>
<line class="cls-11" x1="-1" y1="39" x2="72.44" y2="39">
</line>
<line class="cls-11" x1="-1" y1="35" x2="72.44" y2="35">
</line>
<line class="cls-11" x1="-1" y1="31" x2="72.44" y2="31">
</line>
<line class="cls-11" x1="-1" y1="27" x2="72.44" y2="27">
</line>
<line class="cls-11" x1="-1" y1="23" x2="72.44" y2="23">
</line>
<line class="cls-11" x1="-1" y1="19" x2="72.44" y2="19">
</line>
<line class="cls-11" x1="-1" y1="15" x2="72.44" y2="15">
</line>
<line class="cls-11" x1="-1" y1="11" x2="72.44" y2="11">
</line>
<line class="cls-11" x1="-1" y1="7" x2="72.44" y2="7">
</line>
<line class="cls-11" x1="-1" y1="3" x2="72.44" y2="3">
</line>
<line class="cls-11" x1="1.04" y1="69" x2="74.48" y2="69">
</line>
<line class="cls-11" x1="1.04" y1="65" x2="74.48" y2="65">
</line>
<line class="cls-11" x1="1.04" y1="61" x2="74.48" y2="61">
</line>
<line class="cls-11" x1="1.04" y1="57" x2="74.48" y2="57">
</line>
<line class="cls-11" x1="1.04" y1="53" x2="74.48" y2="53">
</line>
<line class="cls-11" x1="1.04" y1="49" x2="74.48" y2="49">
</line>
<line class="cls-11" x1="1.04" y1="45" x2="74.48" y2="45">
</line>
<line class="cls-11" x1="1.04" y1="41" x2="74.48" y2="41">
</line>
<line class="cls-11" x1="1.04" y1="37" x2="74.48" y2="37">
</line>
<line class="cls-11" x1="1.04" y1="33" x2="74.48" y2="33">
</line>
<line class="cls-11" x1="1.04" y1="29" x2="74.48" y2="29">
</line>
<line class="cls-11" x1="1.04" y1="25" x2="74.48" y2="25">
</line>
<line class="cls-11" x1="1.04" y1="21" x2="74.48" y2="21">
</line>
<line class="cls-11" x1="1.04" y1="17" x2="74.48" y2="17">
</line>
<line class="cls-11" x1="1.04" y1="13" x2="74.48" y2="13">
</line>
<line class="cls-11" x1="1.04" y1="9" x2="74.48" y2="9">
</line>
<line class="cls-11" x1="1.04" y1="5" x2="74.48" y2="5">
</line>
<line class="cls-11" x1="1.04" y1="1" x2="74.48" y2="1">
</line>
</g>


<g >
<line class="cls-11" x1="-73" y1="71" x2=".44" y2="71">
</line>
<line class="cls-11" x1="-73" y1="67" x2=".44" y2="67">
</line>
<line class="cls-11" x1="-73" y1="63" x2=".44" y2="63">
</line>
<line class="cls-11" x1="-73" y1="59" x2=".44" y2="59">
</line>
<line class="cls-11" x1="-73" y1="55" x2=".44" y2="55">
</line>
<line class="cls-11" x1="-73" y1="51" x2=".44" y2="51">
</line>
<line class="cls-11" x1="-73" y1="47" x2=".44" y2="47">
</line>
<line class="cls-11" x1="-73" y1="43" x2=".44" y2="43">
</line>
<line class="cls-11" x1="-73" y1="39" x2=".44" y2="39">
</line>
<line class="cls-11" x1="-73" y1="35" x2=".44" y2="35">
</line>
<line class="cls-11" x1="-73" y1="31" x2=".44" y2="31">
</line>
<line class="cls-11" x1="-73" y1="27" x2=".44" y2="27">
</line>
<line class="cls-11" x1="-73" y1="23" x2=".44" y2="23">
</line>
<line class="cls-11" x1="-73" y1="19" x2=".44" y2="19">
</line>
<line class="cls-11" x1="-73" y1="15" x2=".44" y2="15">
</line>
<line class="cls-11" x1="-73" y1="11" x2=".44" y2="11">
</line>
<line class="cls-11" x1="-73" y1="7" x2=".44" y2="7">
</line>
<line class="cls-11" x1="-73" y1="3" x2=".44" y2="3">
</line>
<line class="cls-11" x1="-70.96" y1="69" x2="2.48" y2="69">
</line>
<line class="cls-11" x1="-70.96" y1="65" x2="2.48" y2="65">
</line>
<line class="cls-11" x1="-70.96" y1="61" x2="2.48" y2="61">
</line>
<line class="cls-11" x1="-70.96" y1="57" x2="2.48" y2="57">
</line>
<line class="cls-11" x1="-70.96" y1="53" x2="2.48" y2="53">
</line>
<line class="cls-11" x1="-70.96" y1="49" x2="2.48" y2="49">
</line>
<line class="cls-11" x1="-70.96" y1="45" x2="2.48" y2="45">
</line>
<line class="cls-11" x1="-70.96" y1="41" x2="2.48" y2="41">
</line>
<line class="cls-11" x1="-70.96" y1="37" x2="2.48" y2="37">
</line>
<line class="cls-11" x1="-70.96" y1="33" x2="2.48" y2="33">
</line>
<line class="cls-11" x1="-70.96" y1="29" x2="2.48" y2="29">
</line>
<line class="cls-11" x1="-70.96" y1="25" x2="2.48" y2="25">
</line>
<line class="cls-11" x1="-70.96" y1="21" x2="2.48" y2="21">
</line>
<line class="cls-11" x1="-70.96" y1="17" x2="2.48" y2="17">
</line>
<line class="cls-11" x1="-70.96" y1="13" x2="2.48" y2="13">
</line>
<line class="cls-11" x1="-70.96" y1="9" x2="2.48" y2="9">
</line>
<line class="cls-11" x1="-70.96" y1="5" x2="2.48" y2="5">
</line>
<line class="cls-11" x1="-70.96" y1="1" x2="2.48" y2="1">
</line>
</g>


</g>


</pattern>
</defs>
  <path
     id="circle1849"
     style="fill:#AA00DD;stroke:#000000;stroke-width:2"
     d="M 34.875,3.84375 C 30.2026,3.8566827 25.91896,6.4477515 23.738281,10.580078 21.63936,9.1446679 19.156089,8.3761337 16.613281,8.375 9.636905,8.3755251 3.9818685,14.031436 3.9824219,21.007812 c 0.012178,4.019812 1.9368978,7.79383 5.1835937,10.164063 -1.8357739,2.246976 -2.8420262,5.057448 -2.8496094,7.958984 0.00713,1.935325 0.4588528,3.843134 1.3203126,5.576172 -2.4145566,2.364898 -3.7807042,5.598771 -3.7929688,8.978516 0.00466,4.996359 2.9538661,9.520462 7.523438,11.541015 0.767283,6.336372 6.140784,11.10481 12.523437,11.113282 3.186693,-0.0091 6.252191,-1.222333 8.582031,-3.396485 1.867081,1.045968 3.9693,1.600422 6.109375,1.611329 2.723791,-0.01118 5.371006,-0.902492 7.546875,-2.541016 1.56279,0.673484 3.245549,1.024252 4.947266,1.03125 6.977139,5.53e-4 12.633366,-5.655674 12.632812,-12.632813 -0.0013,-2.652818 -0.837669,-5.237911 -2.390625,-7.388671 2.480721,-2.37284 3.888874,-5.653124 3.900391,-9.085938 -9.13e-4,-3.96978 -1.867955,-7.708203 -5.041016,-10.09375 2.59288,-2.385063 4.071919,-5.744584 4.080078,-9.267578 C 64.257287,17.599796 58.601376,11.944759 51.625,11.945312 50.032147,11.955601 48.455612,12.267065 46.978516,12.863281 45.38146,7.5117456 40.459758,3.8440964 34.875,3.84375 Z"/>





<g >
<path class="cls-1" d="M62.84,62.96l-1.97,10.89-31.35,4.13-20.38-4.78-1.59-11.18,14.73-3.78,.29-6.07-2.07-2.82-.75-6.85s-2.63-.1-3.85-2.07c-1.69-3.66-1.5-9.2-1.31-9.48,1.41-.56,3.26-.74,3.26-.74,0,0-.06-.92,.06-2.49,.18-2.55,.81-6.81,2.88-11.51,6.19-6.01,20.18-7.98,29.19,.28,1.51,4.45,2.36,10.06,2.68,12.45,.09,.74,.14,1.17,.14,1.17,0,0,2.53,.37,3.1,1.03,.47,5.82-2.16,10.7-2.16,10.7l-2.91,1.03-1.22,6.76-2.07,2.91,.85,5.07,14.45,5.35Z">
</path>
<path class="cls-2" d="M35.13,54.37v-21.5c0-7.58,5.92-13.84,13.49-14.26h0s4.11,10.89,4.11,10.89c0,0-1.5,6.93-2.49,10.63s-.37,10.14-.37,10.14c0,0-4.43,4.97-7.95,7.05-.09,1.9-.54,2.08-.54,2.08,0,0,0,0,0,0-3.2,.7-6.23-1.75-6.23-5.02Z">
</path>
<path d="M52.66,28.94l-.1,.3-4.11-10.89s-.82,1.44-2.98,1.65c-6.88-1.24-17.67-.21-20.55-.21s-2.98-1.85-2.98-1.85l-4.03,9.78c.18-2.55,.81-6.81,2.88-11.51,6.19-6.01,20.18-7.98,29.19,.28,1.51,4.45,2.36,10.06,2.68,12.45Z">
</path>
<path class="cls-3" d="M39.82,35.38s3.19-1.38,4.79-1.28c2.45,.32,3.19,.85,3.19,.85,0,0-1.28,1.49-5.85,2.34-2.66-.85-2.13-1.91-2.13-1.91Z">
</path>
<path class="cls-3" d="M30.45,35.38s-3.19-1.38-4.79-1.28c-2.45,.32-3.19,.85-3.19,.85,0,0,1.28,1.49,5.85,2.34,2.66-.85,2.13-1.91,2.13-1.91Z">
</path>
<path class="cls-2" d="M29.31,47.99s7.93-1.4,11.3,0c-2.81,3.23-8.14,3.09-11.3,0Z">
</path>
<path d="M18.14,29.6s-2.1,.45-3.8,1.95c-.2,6.07,2.46,10.1,2.46,10.1,0,0,1.5,1.04,3.61,1.19-.49-8.11-1.62-12.65-2.26-13.24Z">
</path>
<path class="cls-2" d="M22.54,37.96s3.97,.76,5.84,1.05c2.04-.93,2.74-1.52,2.74-1.52,0,0-1.46,2.86-4.73,4.44-2.98-2.16-3.85-3.97-3.85-3.97Z">
</path>
<path d="M41.67,59.37l-18.7,15.56-13.8-3.06-1.62-9.85,14.77-4.59,.37-4.91,5.83,4.54,.65,2.22s7.31,.83,12.5,.09Z">
</path>
<path class="cls-1" d="M35.74,20.48c3.05,0,8.7,.86,9.35,.97h0s.03,0,.04,0c.06,0,.24,.04,.5,.04,.5,0,1.32-.11,2.17-.7,.84,2.11,1.93,5.46,3.1,9.55-.01,.49-.04,.96-.06,1.34-.17,1.7-.36,3.12-.61,4.35l-.03,.16c-.01,.07-.03,.13-.03,.22-.13,.66-.29,1.31-.47,1.94-.18,.37-.28,.84-.3,1.2h-.01s-1.16,9.62-1.16,9.62l-.07,.09c-1.54,1.84-4.4,5.27-7.05,6.56-.22,.11-.4,.3-.49,.53-.02,.06-.03,.07-.23,.74-.07,.23-.15,.49-.22,.73-1.67,.46-3.35,.7-4.98,.7s-3.37-.24-4.95-.71c-.03-.11-.07-.22-.1-.34-.12-.4-.24-.8-.28-.94-.05-.29-.23-.54-.5-.69-2.45-1.36-4.75-3.54-7.22-6.84-.08-1.5-.39-3.86-.7-6.15-.19-1.45-.37-2.81-.5-3.96-.02-.17-.07-.33-.14-.48-.21-1.18-.66-3.14-1.02-4.63-.17-1.26-.26-2.57-.28-3.9,.37-1.32,1.7-6.06,2.89-9.09,.85,.58,1.66,.69,2.15,.69,.13,0,.34,0,.53-.05,.48-.08,6.21-.97,9.36-.97h1.31m12.41-1.39c-.95,1.23-1.99,1.41-2.53,1.41-.2,0-.33-.03-.35-.03-.03-.01-6.14-.99-9.53-.99h-1.31c-3.39,0-9.5,.98-9.56,.99-.01,0-.14,.03-.34,.03-.52,0-1.56-.18-2.51-1.41-1.3,2.78-3.02,8.83-3.53,10.68,.02,1.66,.15,3.09,.3,4.21,.39,1.64,.86,3.69,1.05,4.81,.05,.06,.09,.14,.1,.23,.34,3.14,1.12,8.09,1.2,10.35,2.1,2.84,4.61,5.63,7.72,7.36,0,.06,.4,1.34,.56,1.89,1.85,.61,3.81,.91,5.76,.91s3.91-.32,5.78-.89c.17-.55,.55-1.86,.57-1.91,3-1.46,6.13-5.33,7.64-7.13,0,0,.92-7.6,1.2-9.92,0,0,0,0,0,0-.03,0,.16-.91,.26-.98,.2-.68,.38-1.41,.53-2.17v-.05s.02-.09,.05-.24c.3-1.53,.49-3.12,.62-4.45,.03-.49,.06-1.02,.07-1.57-.33-1.15-2.32-8.1-3.75-11.13h0Z">
</path>
<path class="cls-16" d="M30.44,67.48s12.88,2.06,17.77-5.32c-.48-3.75-.12-4.66-.12-4.66l15.11,5.44-2.9,11.06-21.1,4.9-16.75-5.44,7.98-5.99Z">
</path>
<path class="cls-2" d="M46.27,55.6l-2.79,2.14-.11,1.84-7.58,6.38s5.9,.54,10.98-4.22c-.26-2.65-.51-6.14-.51-6.14Z">
</path>
<path class="cls-5" d="M48.22,16.57s-12.91-4.87-25.57-.57c5.11-4.87,19.72-7.71,25.57,.57Z">
</path>
<path class="cls-4" d="M21.16,35.3s-1.41-3.09,1.69-5.12c2.14-.9,2.64-1.01,2.64-1.01l6.58,1.69-1.61,4.52s-2.81-1.57-4.79-1.28-4.51,1.19-4.51,1.19Z">
</path>
<path class="cls-4" d="M49.19,35.3s1.77-3.02-1.69-5.12c-2.14-.9-2.64-1.01-2.64-1.01l-6.58,1.69,1.61,4.52s2.81-1.57,4.79-1.28,4.51,1.19,4.51,1.19Z">
</path>
<path class="cls-14" d="M49.61,63.16s-2.3,3.84-9.91,5.53c4.07,2.76,8.52,7.68,8.52,7.68l12.13-2.76,1.31-7.83s-6.07-.08-12.06-2.61Z">
</path>
<path class="cls-2" d="M52.95,30.57l1.6,1.85s-.51,7.08-1.1,9.02c3.12-6.66,2.45-10.31,2.45-10.31,0,0-1.86-.65-2.95-.57Z">
</path>
<path class="cls-7" d="M18.01,30.45s-1.84-.74-3.68,.74c-.09,6.34,2.21,10.2,2.21,10.2,0,0,1.56,1.29,3.12,1.38">
</path>
<path class="cls-8" d="M51.64,36.61s2.67-10.18-1.88-19.97c-4.27-4.49-10.23-5.42-13.12-5.6-.15,0-.29-.01-.44-.01h-2.12c-.15,0-.3,0-.45,.02-2.93,.2-8.79,1.17-13,5.6-4.55,9.79-1.88,19.97-1.88,19.97">
</path>
<path class="cls-7" d="M52.38,30.45s1.84-.74,3.68,.74c.09,6.34-2.21,10.2-2.21,10.2,0,0-1.56,1.29-3.12,1.38">
</path>
<path d="M19.94,39.02c.34,3.14,1.12,8.08,1.2,10.35,2.1,2.84,4.62,5.63,7.72,7.36,0,.07,.61,2,.64,2.13,0,0-.31-.31-.31-.31,1.91,.67,3.96,.99,6,.98,2.04,0,4.07-.34,6.02-.96l-.32,.31c.05-.12,.62-2.1,.64-2.16,3-1.46,6.13-5.33,7.63-7.13,0,0,1.28-10.57,1.28-10.57,.07-.64,1.08-.54,.99,.12,0,0-1.28,10.58-1.28,10.58,0,0-.02,.13-.02,.13-2.2,3-4.69,5.78-7.95,7.66,0,0,.25-.32,.25-.32l-.6,2.02-.07,.23c-4.15,1.38-8.75,1.5-12.91,.04,0,0-.24-.08-.24-.08,0,0-.07-.23-.07-.23l-.59-1.98s.24,.32,.24,.32c-3.22-1.86-5.69-4.61-7.88-7.56,0,0-.07-.1-.07-.1l-.02-.13c-.44-3.52-.89-7.05-1.28-10.58-.06-.63,.9-.77,.99-.12h0Z">
</path>
<path d="M21.49,31.35c.9-1.16,2.23-2.34,3.85-2.55,0,0,6.96,1.02,6.96,1.02l-.53,2.11-6.63-2.31c-.58-.02-2.76,.74-3.66,1.74h0Z">
</path>
<path d="M30.74,35.47c-1.5-.64-3.19-1.22-4.81-1.03-1.03,.26-2.67,.62-3.7,1.23,0,0-.02-.77-.02-.77,1.93,1.23,4.29,1.76,6.52,2.28,0,0-.08,.01-.08,.01,.49-.14,.96-.37,1.4-.67-.34,.42-.78,.74-1.27,1-2.69-.02-5.5-.58-7.73-2.21,1.38-1.15,3.11-1.4,4.79-1.7,1.84-.05,3.5,.77,4.89,1.87h0Z">
</path>
<path d="M48.88,31.35c-.89-.99-3.07-1.76-3.66-1.74,0,0-6.63,2.31-6.63,2.31l-.53-2.11,6.96-1.02c1.63,.21,2.95,1.39,3.85,2.55h0Z">
</path>
<path d="M39.63,35.47c1.39-1.09,3.05-1.92,4.89-1.87,1.69,.3,3.41,.55,4.79,1.7-2.23,1.63-5.03,2.2-7.73,2.21-.49-.25-.94-.58-1.27-1,.44,.3,.91,.53,1.4,.67,0,0-.08-.01-.08-.01,2.23-.52,4.59-1.05,6.52-2.28,0,0-.02,.77-.02,.77-1.02-.6-2.67-.96-3.7-1.23-1.62-.2-3.3,.39-4.81,1.03h0Z">
</path>
<path d="M38.2,40.31c.47,.52,.68,1.25,.74,1.96-1.25,.98-2.55,1.85-3.88,2.68-1.33-.83-2.64-1.7-3.89-2.68,0,0,.01-.13,.01-.13,.07-.66,.28-1.34,.72-1.83-.2,.61-.2,1.23-.14,1.83l-.14-.25c1.28,.61,2.51,1.31,3.72,2.05h-.55c1.21-.74,2.44-1.44,3.72-2.05l-.14,.25c.06-.6,.05-1.22-.16-1.83h0Z">
</path>
<path class="cls-7" d="M52.43,30.27s-2.64-9.46-4.23-12.17c-1.23,2.23-2.82,1.88-2.82,1.88,0,0-6.17-1-9.64-1h-1.32c-3.47,0-9.64,1-9.64,1,0,0-1.59,.35-2.82-1.88-1.59,2.7-4.11,12.11-4.11,12.11">
</path>
<path d="M29.8,45.02c-.79,1.21-2,1.38-3.04,2.43,.03-1.33,1.6-3.02,3.04-2.43h0Z">
</path>
<path d="M40.27,45.02c1.45-.59,3.01,1.1,3.04,2.43-1.05-1.06-2.25-1.22-3.04-2.43h0Z">
</path>
<path class="cls-7" d="M42.53,46.17l-1.57,1.76s-2.72-.61-5.66-.61h-.23c-2.94,0-5.66,.61-5.66,.61l-1.57-1.76">
</path>
<path class="cls-7" d="M29.41,47.93s2,2.61,5.75,2.61,5.8-2.61,5.8-2.61">
</path>
<path d="M30.69,51.34c1.21,1.14,2.98,.92,4.52,.97,1.2-.02,2.4,0,3.54-.34,.36-.12,.73-.28,.91-.67,.04,.45-.33,.86-.69,1.11-1.93,1.27-7.35,1.5-8.28-1.07h0Z">
</path>
<path class="cls-7" d="M47.73,52.14l.34,10.01s-3.16,5.42-12.48,5.42h-.79c-9.32,0-12.48-5.42-12.48-5.42l.34-10.01">
</path>
<line class="cls-7" x1="22.43" y1="57.42" x2="5.11" y2="63.38">
</line>
<line class="cls-7" x1="47.68" y1="57.42" x2="65" y2="63.38">
</line>
<path class="cls-14" d="M15.02,31.84c1.18,2.7,1.59,5.74,2.36,8.55,0,0-.18-.24-.18-.24,.62,.68,1.22,1.35,1.97,1.91,0,0-.02,.1-.02,.1-.93-.27-1.74-.84-2.47-1.45-1.21-2.79-1.5-5.86-1.76-8.87,0,0,.1,0,.1,0h0Z">
</path>
<path class="cls-14" d="M9.7,62.57c3.75-1.28,8.98-3.2,12.71-4.36,0,0,.03,.09,.03,.09-.74,1.29-1.84,1.53-2.91,1.88-3.16,.95-6.66,2.2-9.84,2.39h0Z">
</path>
</g>





</svg>
