<svg id="Capa_2" xmlns="http://www.w3.org/2000/svg" xmlns:xlink="http://www.w3.org/1999/xlink" viewBox="0 0 69.02 80">
<defs >
<style >
.cls-1{fill:#c89aed;}.cls-2{fill:#fff;}.cls-3{fill:#f8ffbf;}.cls-4{fill:#7b7be8;}.cls-5{fill:#a88347;}.cls-6{fill:#782ab5;}.cls-7,.cls-8,.cls-9,.cls-10,.cls-11,.cls-12,.cls-13{fill:none;}.cls-7,.cls-8,.cls-12,.cls-13{stroke:#000;stroke-miterlimit:10;}.cls-8,.cls-9,.cls-12,.cls-13{stroke-linecap:round;}.cls-9{stroke:#deb778;stroke-dasharray:0 0 0 4.06;stroke-linejoin:round;}.cls-14{fill:#deb778;}.cls-15{fill:url(#USGS_19_Inundación_de_tierra_2);}.cls-11{stroke:#1d1d1b;stroke-dasharray:0 0 2 2;stroke-width:.3px;}.cls-16{fill:#cf5f2b;}.cls-12{stroke-width:.75px;}.cls-17{fill:#fcf0c5;}.cls-13{stroke-width:.73px;}.cls-18{fill:#b83521;}
</style>
<pattern id="USGS_19_Inundación_de_tierra_2" x="0" y="0" width="72" height="72" patternTransform="translate(339.52 -16207) rotate(-90)" patternUnits="userSpaceOnUse" viewBox="0 0 72 72">
<g >
<rect class="cls-10" width="72" height="72">
</rect>
<g >
<line class="cls-11" x1="71" y1="71" x2="144.44" y2="71">
</line>
<line class="cls-11" x1="71" y1="67" x2="144.44" y2="67">
</line>
<line class="cls-11" x1="71" y1="63" x2="144.44" y2="63">
</line>
<line class="cls-11" x1="71" y1="59" x2="144.44" y2="59">
</line>
<line class="cls-11" x1="71" y1="55" x2="144.44" y2="55">
</line>
<line class="cls-11" x1="71" y1="51" x2="144.44" y2="51">
</line>
<line class="cls-11" x1="71" y1="47" x2="144.44" y2="47">
</line>
<line class="cls-11" x1="71" y1="43" x2="144.44" y2="43">
</line>
<line class="cls-11" x1="71" y1="39" x2="144.44" y2="39">
</line>
<line class="cls-11" x1="71" y1="35" x2="144.44" y2="35">
</line>
<line class="cls-11" x1="71" y1="31" x2="144.44" y2="31">
</line>
<line class="cls-11" x1="71" y1="27" x2="144.44" y2="27">
</line>
<line class="cls-11" x1="71" y1="23" x2="144.44" y2="23">
</line>
<line class="cls-11" x1="71" y1="19" x2="144.44" y2="19">
</line>
<line class="cls-11" x1="71" y1="15" x2="144.44" y2="15">
</line>
<line class="cls-11" x1="71" y1="11" x2="144.44" y2="11">
</line>
<line class="cls-11" x1="71" y1="7" x2="144.44" y2="7">
</line>
<line class="cls-11" x1="71" y1="3" x2="144.44" y2="3">
</line>
</g>
<g >
<line class="cls-11" x1="-1" y1="71" x2="72.44" y2="71">
</line>
<line class="cls-11" x1="-1" y1="67" x2="72.44" y2="67">
</line>
<line class="cls-11" x1="-1" y1="63" x2="72.44" y2="63">
</line>
<line class="cls-11" x1="-1" y1="59" x2="72.44" y2="59">
</line>
<line class="cls-11" x1="-1" y1="55" x2="72.44" y2="55">
</line>
<line class="cls-11" x1="-1" y1="51" x2="72.44" y2="51">
</line>
<line class="cls-11" x1="-1" y1="47" x2="72.44" y2="47">
</line>
<line class="cls-11" x1="-1" y1="43" x2="72.44" y2="43">
</line>
<line class="cls-11" x1="-1" y1="39" x2="72.44" y2="39">
</line>
<line class="cls-11" x1="-1" y1="35" x2="72.44" y2="35">
</line>
<line class="cls-11" x1="-1" y1="31" x2="72.44" y2="31">
</line>
<line class="cls-11" x1="-1" y1="27" x2="72.44" y2="27">
</line>
<line class="cls-11" x1="-1" y1="23" x2="72.44" y2="23">
</line>
<line class="cls-11" x1="-1" y1="19" x2="72.44" y2="19">
</line>
<line class="cls-11" x1="-1" y1="15" x2="72.44" y2="15">
</line>
<line class="cls-11" x1="-1" y1="11" x2="72.44" y2="11">
</line>
<line class="cls-11" x1="-1" y1="7" x2="72.44" y2="7">
</line>
<line class="cls-11" x1="-1" y1="3" x2="72.44" y2="3">
</line>
<line class="cls-11" x1="1.04" y1="69" x2="74.48" y2="69">
</line>
<line class="cls-11" x1="1.04" y1="65" x2="74.48" y2="65">
</line>
<line class="cls-11" x1="1.04" y1="61" x2="74.48" y2="61">
</line>
<line class="cls-11" x1="1.04" y1="57" x2="74.48" y2="57">
</line>
<line class="cls-11" x1="1.04" y1="53" x2="74.48" y2="53">
</line>
<line class="cls-11" x1="1.04" y1="49" x2="74.48" y2="49">
</line>
<line class="cls-11" x1="1.04" y1="45" x2="74.48" y2="45">
</line>
<line class="cls-11" x1="1.04" y1="41" x2="74.48" y2="41">
</line>
<line class="cls-11" x1="1.04" y1="37" x2="74.48" y2="37">
</line>
<line class="cls-11" x1="1.04" y1="33" x2="74.48" y2="33">
</line>
<line class="cls-11" x1="1.04" y1="29" x2="74.48" y2="29">
</line>
<line class="cls-11" x1="1.04" y1="25" x2="74.48" y2="25">
</line>
<line class="cls-11" x1="1.04" y1="21" x2="74.48" y2="21">
</line>
<line class="cls-11" x1="1.04" y1="17" x2="74.48" y2="17">
</line>
<line class="cls-11" x1="1.04" y1="13" x2="74.48" y2="13">
</line>
<line class="cls-11" x1="1.04" y1="9" x2="74.48" y2="9">
</line>
<line class="cls-11" x1="1.04" y1="5" x2="74.48" y2="5">
</line>
<line class="cls-11" x1="1.04" y1="1" x2="74.48" y2="1">
</line>
</g>
<g >
<line class="cls-11" x1="-73" y1="71" x2=".44" y2="71">
</line>
<line class="cls-11" x1="-73" y1="67" x2=".44" y2="67">
</line>
<line class="cls-11" x1="-73" y1="63" x2=".44" y2="63">
</line>
<line class="cls-11" x1="-73" y1="59" x2=".44" y2="59">
</line>
<line class="cls-11" x1="-73" y1="55" x2=".44" y2="55">
</line>
<line class="cls-11" x1="-73" y1="51" x2=".44" y2="51">
</line>
<line class="cls-11" x1="-73" y1="47" x2=".44" y2="47">
</line>
<line class="cls-11" x1="-73" y1="43" x2=".44" y2="43">
</line>
<line class="cls-11" x1="-73" y1="39" x2=".44" y2="39">
</line>
<line class="cls-11" x1="-73" y1="35" x2=".44" y2="35">
</line>
<line class="cls-11" x1="-73" y1="31" x2=".44" y2="31">
</line>
<line class="cls-11" x1="-73" y1="27" x2=".44" y2="27">
</line>
<line class="cls-11" x1="-73" y1="23" x2=".44" y2="23">
</line>
<line class="cls-11" x1="-73" y1="19" x2=".44" y2="19">
</line>
<line class="cls-11" x1="-73" y1="15" x2=".44" y2="15">
</line>
<line class="cls-11" x1="-73" y1="11" x2=".44" y2="11">
</line>
<line class="cls-11" x1="-73" y1="7" x2=".44" y2="7">
</line>
<line class="cls-11" x1="-73" y1="3" x2=".44" y2="3">
</line>
<line class="cls-11" x1="-70.96" y1="69" x2="2.48" y2="69">
</line>
<line class="cls-11" x1="-70.96" y1="65" x2="2.48" y2="65">
</line>
<line class="cls-11" x1="-70.96" y1="61" x2="2.48" y2="61">
</line>
<line class="cls-11" x1="-70.96" y1="57" x2="2.48" y2="57">
</line>
<line class="cls-11" x1="-70.96" y1="53" x2="2.48" y2="53">
</line>
<line class="cls-11" x1="-70.96" y1="49" x2="2.48" y2="49">
</line>
<line class="cls-11" x1="-70.96" y1="45" x2="2.48" y2="45">
</line>
<line class="cls-11" x1="-70.96" y1="41" x2="2.48" y2="41">
</line>
<line class="cls-11" x1="-70.96" y1="37" x2="2.48" y2="37">
</line>
<line class="cls-11" x1="-70.96" y1="33" x2="2.48" y2="33">
</line>
<line class="cls-11" x1="-70.96" y1="29" x2="2.48" y2="29">
</line>
<line class="cls-11" x1="-70.96" y1="25" x2="2.48" y2="25">
</line>
<line class="cls-11" x1="-70.96" y1="21" x2="2.48" y2="21">
</line>
<line class="cls-11" x1="-70.96" y1="17" x2="2.48" y2="17">
</line>
<line class="cls-11" x1="-70.96" y1="13" x2="2.48" y2="13">
</line>
<line class="cls-11" x1="-70.96" y1="9" x2="2.48" y2="9">
</line>
<line class="cls-11" x1="-70.96" y1="5" x2="2.48" y2="5">
</line>
<line class="cls-11" x1="-70.96" y1="1" x2="2.48" y2="1">
</line>
</g>
</g>
</pattern>
</defs>

<g id="Capa_10">
<g >
<path class="cls-1" d="M62.15,72.7l-26.11,5.42-28.2-4.97-1.63-11.48,17.17-4.88s-.27-.81-.45-2.44c-1.08-.9-1.9-4.42-1.99-9.48-1.62-1.18-5.24-5.25-5.6-8.14-.29-2.35,1.03-4.11,1.53-4.68,.12-.13,.19-.2,.19-.2,.64-1.36-1.86-1.89-1.09-6.96-.99-4.42,3.26-6.68,3.26-6.68,0,0,2.17-3.62,6.86-3.53,2.54-1.17,8.59-.81,8.59-.81,0,0,3.71-1.45,7.95,.72,2.98,.18,6.06,3.62,6.06,3.62,0,0,4.43,3.25,2.89,6.96,.81,3.16-.9,6.5-.9,6.5,0,0,.03,.02,.08,.05,.37,.24,1.84,1.34,2.08,3.48,.28,2.44-2.17,5.66-3.07,7.32-.9,1.66-2.71,2.71-2.71,2.71,0,0,0,3.16-.09,5.15-.09,1.99-2.08,3.88-2.08,3.88v2.81l16.63,4.79,.63,10.84Z">
</path>
<path class="cls-2" d="M34.34,40.78V23.58l10.85-2.84s1.43,1.84,1.9,4.12,.14,8.7-1.41,11.56c2.62,2.86,1.34,5.68-.2,8.09s-2.55,3.69-2.55,3.69c0,0-1.81-3.69-3.22-4.02s-3.31-.34-3.31-.34l1.63-1.75-3.69-1.3Z">
</path>
<path class="cls-18" d="M23.38,56.79l-17.17,4.88,2.4,12.04,25.8,4.08,25.9-4.46,1.52-11.95-16.94-4.32-.23-1.75s-.28,2.28-3.7,3.7c-1.14,2.37-10.72,2.66-13.38,.76l-.36-.63-3.62-2.98-.22,.63Z">
</path>
<path class="cls-4" d="M21.06,42.88l4.11,4.86,2.33-3.01s2.74-1.03,3.63-.96c2.33,1.44,2.94,1.58,2.94,1.58l2.33-1.51s3.36-.07,4.18,.96,1.92,2.94,1.92,2.94l4.04-4.66s.48,5.34,.27,6.92-2.05,4.73-2.05,4.73c0,0-1.49,2.83-3.79,4.29-3.33,2.76-10.52,2.28-13.12,.78-2.26-1.51-4.31-4.25-4.79-5.89-1.64-1.51-2.33-4.93-1.99-11.03Z">
</path>
<path d="M38.99,60.4c-5.39,1.1-5.61,.77-5.61,.77,0,0-.01-.08-.03-.24-1.19,.06-4.62,.07-6.12-1.78-3.16-1.94-3.95-3.99-4.08-4.84-2.04-1.85-2.11-4.35-2.04-5.8,.06-1.45,.13-6,.13-6l3.89,5.73s1.18-3.16,2.3-3.89c1.13-.72,4.03-.39,4.03-.39l2.3,1.18v2.11s-4.15,.6-4.81,.79l-1.13,1.11s.44,.58,1.28,.64c.84,.05,4.66,0,4.66,0v2.56c.22,2.93,1.2,7.75,5.23,8.05Z">
</path>
<path class="cls-1" d="M27.82,49.15s1.48-1.41,2.4-1.48,6.01-.49,8.62,.42c.99,.78,.92,.99,.92,.99,0,0-.71,.57-4.31,.78s-6.36-.07-6.36-.07l-1.27-.64Z">
</path>
<path class="cls-2" d="M31.09,47.74s4.44,.9,6.55,2.02c1.88-.22,1.97-1.03,1.97-1.03,0,0-1.26-2.38-8.53-.99Z">
</path>
<path class="cls-4" d="M50.68,31.67s.03,.02,.08,.05l-.41,.51s-2.02,4.81-3.28,6.21c-.83-1.47-1.39-2.02-1.39-2.02,0,0,2.23-5.02,1.88-8.65-.35-3.62-2.37-7.03-2.37-7.03,0,0-7.52,3.2-11.43,2.64-4.04-.55-10.24-2.92-11.14-2.71-2.44,4.46-2.79,11.56-.28,15.68l-1.88,2.16s-2.07-3.61-3.59-6.46c.12-.13,.19-.2,.19-.2,.64-1.36-1.86-1.89-1.09-6.96-.99-4.42,3.26-6.68,3.26-6.68,0,0,2.17-3.62,6.86-3.53,2.54-1.17,8.59-.81,8.59-.81,0,0,3.71-1.45,7.95,.72,2.98,.18,6.06,3.62,6.06,3.62,0,0,4.43,3.25,2.89,6.96,.81,3.16-.9,6.5-.9,6.5Z">
</path>
<path class="cls-3" d="M30.61,36.92s-3.6-.42-6.18,.42c1.38,1.86,2.34,2.34,3.36,1.98s2.76-.72,2.82-2.4Z">
</path>
<path class="cls-3" d="M37.31,36.92s3.6-.42,6.18,.42c-1.38,1.86-2.34,2.34-3.36,1.98s-2.76-.72-2.82-2.4Z">
</path>
<path d="M16.27,25.36s1.64,3.72,4.29,1.2c-.82,5.48,1.79,9.79,1.79,9.79l-1.72,1.93s-3.03-3.15-3.34-6.87c-2.27-3.97-1.01-6.05-1.01-6.05Z">
</path>
<path d="M51.18,25.36s-1.64,3.72-4.29,1.2c.82,5.48-1.79,9.79-1.79,9.79l1.72,1.93s3.03-3.15,3.34-6.87c2.27-3.97,1.01-6.05,1.01-6.05Z">
</path>
<path class="cls-4" d="M21.36,45.04c.61,1.33,1.11,2.78,1.29,4.23,.2,1.26,.62,2.59,1.62,3.36,0,0,.19,.16,.19,.16l.06,.27c.43,1.8,1.62,3.91,3.38,4.62,.46,.76,1.24,1.32,2.12,1.78,.83,.43,1.74,.76,2.71,.97-.99,.17-2.01,.05-3-.22-.98-.28-1.97-.75-2.74-1.63l.35,.23c-.75-.21-1.19-.58-1.67-.95-1.34-1.16-2.25-2.78-2.57-4.52,0,0,.25,.42,.25,.42-1.99-1.65-1.61-4.28-1.77-6.54,0,0-.22-2.17-.22-2.17h0Z">
</path>
<path class="cls-4" d="M28.23,48.47c.88-1.93,3.68-2.56,5.61-2.34,0,0,0,1.5,0,1.5-1.88,.37-3.92-.22-5.61,.84h0Z">
</path>
<path d="M17.35,31.84s-1.83,.82-1.96,4.05,4.36,8.03,5.63,8.73c-.13-3.73-.19-7.46-.19-7.46l-3.48-5.31Z">
</path>
<path class="cls-1" d="M23.49,22.12c.93,.26,1.85,.66,2.72,1.05h.03s.03,.02,.03,.02c2.18,.84,5.09,1.81,8.27,1.81,3.17-.02,6.07-1,8.24-1.85h.03s.02-.02,.02-.02c.57-.26,1.17-.53,1.78-.75,.91,1.89,2.54,6.78-.32,13.58l-.13,.32-.26,.64,.51,.47,.27,.25c.43,.4,1.09,1,1.13,2.08,.04,1.07-.47,2.95-2.98,5.96-1.67-2.87-3.73-3.22-7.29-3.22-.5,0-1.04,0-1.63,.02-.1,0-.2,0-.31,0-.32,0-.65,0-.99-.02-.38,0-.77-.02-1.16-.02-2.13,0-4.49,.27-5.84,2.28-.19,.26-.37,.52-.56,.81-2.42-2.93-2.9-4.76-2.85-5.81,.04-1.07,.69-1.67,1.13-2.09l.26-.24,.51-.47-.26-.64-.13-.33c-3.01-7.15-1.09-12.12-.19-13.82m-.49-1.15c-.47,.71-3.97,6.5-.24,15.36l.13,.32-.26,.24c-.48,.45-1.39,1.28-1.45,2.78-.09,1.97,1.27,4.52,4,7.55,.37-.66,.77-1.31,1.23-1.93,1.07-1.62,3.08-1.85,5.02-1.85,.75,0,1.49,.03,2.16,.03,.11,0,.22,0,.33,0,.58-.01,1.11-.02,1.61-.02,3.96,0,5.52,.48,7.06,4,2.87-3.14,4.29-5.76,4.21-7.78-.06-1.5-.97-2.33-1.46-2.78l-.26-.24,.13-.32c3.5-8.31,.64-13.91-.12-15.17-.89,.27-1.78,.65-2.68,1.06-2.48,.97-5.12,1.76-7.88,1.78-2.76,0-5.41-.78-7.9-1.74-1.23-.56-2.41-1.04-3.62-1.29h0Z">
</path>
<path d="M40.44,60.15l-13.64,14.57-16.81-3.03-1.88-10.61,15.01-4.11,.43-1.08s2.37,2.48,3.67,3.26c1.74,2.66,11.05,1.5,13.21,1Z">
</path>
<path class="cls-2" d="M50.31,19.58c-.38-.15-6.27-2.33-14.14,2.01,.95-.91,1.89-1.63,2.69-2.19-2.14,.97-5.61,1.82-9.71,.08-3.61-1.53-8.61-1.48-11.3-.16,1.48-1.32,1.69-1.53,1.69-1.53,0,0,1.11-2.01,4.06-2.53,2.96-.53,6.02,.1,9.25,2.32,2.69,1.53,6.02-2.85,10.51-2.48,4.49,.37,5.07,3.01,5.07,3.01l1.88,1.47Z">
</path>
<path class="cls-16" d="M46.5,59.99l.29,2.55s-2.84,4.59-10.57,4.88c-3.86,3.94-7.14,8.02-7.14,8.02,0,0,23.62-.66,27.19-1.97,4.3-3.5,5.83-9.26,5.83-9.26l-15.6-4.23Z">
</path>
<path class="cls-4" d="M36.54,34.14l.78,2.79s4.36-.26,6.51,.29c.4-1.48,.52-2.77,.52-2.77,0,0-1.75-1.75-3.08-2.06-3.04,.62-4.74,1.75-4.74,1.75Z">
</path>
<path class="cls-4" d="M30.61,36.92l.89-2.83s-4.37-1.86-5.62-1.58c-1.86,.98-2.42,1.86-2.42,1.86,0,0,.37,2.14,.65,2.88,2.42-.65,5.19-.39,6.5-.33Z">
</path>
<path class="cls-7" d="M17.17,31.97s-.75-.55-1.5,1.37-.64,4.44,1.62,7.52c1.98,2.67,2.65,3.83,3.81,3.9">
</path>
<path d="M20.37,39.21c-1.32-1.82-2.55-3.69-3.29-5.83-.22-.73-.44-1.53-.18-2.46l.12,.51c-2.65-2.29-2.05-7.25,1-8.89-.53,.61-.89,1.3-1.14,2.02-.82,2.14-.63,4.74,1.05,6.38-.26,.64-.17,1.34,.09,2.12,.69,1.99,1.9,3.83,3.14,5.54,0,0-.8,.61-.8,.61h0Z">
</path>
<path d="M15.77,25.46c-2.09-5.06,2.68-8.59,7.39-8.07-4.2,.36-7.97,3.22-6.46,7.7,0,0-.93,.37-.93,.37h0Z">
</path>
<path d="M18.63,18.22c1.24-2.14,3.52-3.72,6.05-3.78,2.37-.02,5.15,1.03,6.01,3.39-1.31-1.93-3.79-2.52-5.96-2.42-2.21,.19-4.14,1.53-5.63,3.12l-.46-.31h0Z">
</path>
<path d="M46.54,38.6c1.24-1.71,2.45-3.54,3.14-5.54,.26-.78,.35-1.48,.09-2.12,1.68-1.64,1.87-4.24,1.05-6.38-.25-.72-.6-1.41-1.14-2.02,.75,.34,1.34,1,1.78,1.71,1.35,2.19,1.26,5.42-.78,7.18,0,0,.12-.51,.12-.51,.27,.92,.04,1.73-.18,2.46-.74,2.14-1.98,4.02-3.29,5.83,0,0-.8-.61-.8-.61h0Z">
</path>
<path d="M51.01,25.09c.55-1.81,.43-3.9-.96-5.32-1.38-1.39-3.42-2.15-5.5-2.38,1.05-.09,2.13-.01,3.17,.27,2.13,.52,4.26,2.11,4.61,4.43,.19,1.16,.04,2.28-.4,3.37l-.93-.37h0Z">
</path>
<path d="M48.61,18.53c-1.49-1.59-3.42-2.94-5.63-3.12-2.17-.1-4.65,.49-5.96,2.42,.85-2.35,3.63-3.4,6.01-3.39,2.52,.06,4.81,1.64,6.05,3.78,0,0-.46,.31-.46,.31h0Z">
</path>
<path class="cls-7" d="M43.44,15.04s-3.85-2.54-8.86-1.07h0c-5.02-1.48-8.87,1.07-8.87,1.07">
</path>
<path d="M49.84,21.08c-2.68-.83-4.99,.02-7.44,1.14-2.48,.97-5.12,1.76-7.88,1.78-2.76,0-5.41-.78-7.9-1.74-2.47-1.12-4.73-1.93-7.42-1.18,1.64-1.24,4.08-1.35,5.96-.55,3.01,1.11,6.17,2.44,9.36,2.47,2.55-.03,5.07-.82,7.51-1.74l1.86-.68c1.88-.79,4.29-.69,5.95,.51h0Z">
</path>
<path class="cls-7" d="M22.65,20.6s-4.49,6.1-.35,15.93c-1.21,1.11-4.08,3.93,2.87,11.44">
</path>
<path class="cls-7" d="M20.75,40.66s.6,4.51,.41,7.09,.28,5.43,2.12,6.59">
</path>
<path class="cls-7" d="M50.44,31.83s1.1-.41,1.85,1.51,.64,4.44-1.62,7.52c-1.98,2.67-2.65,3.83-3.81,3.9">
</path>
<path class="cls-7" d="M45.31,20.6s4.49,6.1,.35,15.93c1.21,1.11,4.08,3.93-2.87,11.44">
</path>
<path class="cls-7" d="M47.21,40.66s-.6,4.51-.41,7.09-.28,5.43-2.12,6.59">
</path>
<path d="M27.75,27.42c4.14,.02,8.24,.25,12.35,.1-3.61,1.18-8.73,.96-12.35-.1h0Z">
</path>
<path d="M23.15,51.57l.5,2.24c.33,2.16,1.96,3.81,3.77,4.88,0,0-.38,.92-.38,.92-3.12-1.24-5.06-4.8-3.89-8.04h0Z">
</path>
<path d="M44.88,51.57c1.17,3.24-.77,6.8-3.89,8.04,0,0-.38-.92-.38-.92,1.81-1.07,3.44-2.71,3.77-4.88,0,0,.5-2.24,.5-2.24h0Z">
</path>
<path d="M41.76,53.75c.18,1.63,.16,3.3-.28,4.9-.16,.52-.39,1.16-1,1.58-1.96,1.22-4.25,1.46-6.47,1.47-2.35-.01-5-.15-6.9-1.78-1.18-1.78-1.01-4.14-.85-6.17,.44,1.74,.5,4.44,1.8,5.67,1.74,.96,3.92,1.28,5.94,1.28,2.03,.02,4.22-.25,5.97-1.23,.33-.17,.55-.6,.72-1.07,.54-1.49,.75-3.07,1.05-4.64h0Z">
</path>
<path d="M24.45,49.53c.2-1.7,1.14-3.07,2.12-4.44,.49-.71,1.4-1.21,2.25-1.39,.85-.2,1.68-.23,2.53-.15,.2,.02,.35,.2,.33,.4-.02,.19-.17,.32-.35,.33-4.55-.1-4.38,2.5-6.87,5.26h0Z">
</path>
<path d="M43.38,49.53c-2.49-2.76-2.32-5.36-6.87-5.26-.2,0-.36-.17-.36-.37,0-.19,.15-.34,.33-.36,.85-.08,1.69-.05,2.53,.15,1.81,.31,2.79,2.04,3.58,3.49,.39,.72,.71,1.48,.78,2.34h0Z">
</path>
<path class="cls-12" d="M35.92,37.11l-.13,2.51s1.38,1.25,2.21,2.21c-.64,1.44-2.23,2.67-4.09,3.41-1.86-.74-3.45-1.97-4.09-3.41,.83-.96,2.22-2.21,2.22-2.21l-.14-2.51">
</path>
<path class="cls-13" d="M40.61,49.67s-1.13-1.34-1.86-1.69-3.06-.67-4.33-.67h-1c-1.26,0-3.59,.32-4.33,.67s-1.86,1.69-1.86,1.69">
</path>
<path class="cls-13" d="M39.5,48.98s-.48,.87-1.9,.87h-2.43s-2.8,0-2.8,0h-2.43c-1.43,0-1.9-.87-1.9-.87">
</path>
<path d="M32.17,33.83s-.45,.58-1.78,.99c-2.62-1.65-3.8-1.91-4.4-1.88-2.2,1.07-2.54,1.57-2.54,1.57,0,0,.92-2.49,3.87-2.88,2.2-.03,4.84,2.2,4.84,2.2Z">
</path>
<path d="M35.68,33.83s.45,.58,1.78,.99c2.62-1.65,3.8-1.91,4.4-1.88,2.2,1.07,2.54,1.57,2.54,1.57,0,0-.92-2.49-3.87-2.88-2.2-.03-4.84,2.2-4.84,2.2Z">
</path>
<path d="M30.75,36.95c-2.17-.09-4.37,.05-6.45,.65,0,0,.18-.55,.18-.55,.73,.85,1.61,1.71,2.65,1.9,.86-.05,1.78-.28,2.49-.79,.14-.12,.35-.09,.46,.06,.08,.11,.08,.26,0,.37-.7,.94-1.58,1.75-2.7,2.15-.69-.04-1.42-.26-1.92-.74,.56,.36,1.24,.44,1.87,.43,.66-.38,1.75-1.31,2.22-2.2,0,0,.46,.43,.46,.43-.47,.37-1.01,.63-1.56,.79-1.83,.75-3.47-.6-4.51-1.98-.17-.18-.07-.5,.18-.55,2.17-.52,4.47-.49,6.63,.02h0Z">
</path>
<path d="M37.23,36.95c2.16-.51,4.46-.54,6.63-.02,.84,.32-.67,1.44-.99,1.79-.67,.55-1.54,1.12-2.49,.92-.87-.12-1.71-.42-2.41-.97,0,0,.46-.43,.46-.43,.47,.88,1.56,1.82,2.22,2.2,.63,0,1.31-.07,1.87-.43-.5,.48-1.24,.7-1.92,.74-1.12-.4-2-1.22-2.7-2.15-.1-.14-.07-.34,.07-.44,.12-.09,.28-.08,.39,.01,.7,.51,1.62,.73,2.49,.79,1.04-.19,1.92-1.05,2.65-1.9,0,0,.18,.55,.18,.55-2.08-.6-4.28-.73-6.45-.65h0Z">
</path>
<path class="cls-8" d="M23.25,54.34v7.27c1.54,2.09,4.58,4.33,10.58,4.33h.37c5.8,0,8.85-2.1,10.43-4.13v-6.91">
</path>
<line class="cls-8" x1="23.23" y1="56.72" x2="6.81" y2="61.39">
</line>
<line class="cls-8" x1="44.63" y1="56.72" x2="61.05" y2="61.39">
</line>
<polyline class="cls-12" points="29.09 60.75 29.09 65.48 21.26 74.08">
</polyline>
<path class="cls-18" d="M22.84,57.81c-.47,1.31-2.04,1.46-3.14,1.8-3.37,.86-7.06,2-10.4,2.14,0,0,6.75-2.04,6.75-2.04l3.38-1.02c1.12-.34,2.25-.69,3.39-.97l.03,.1h0Z">
</path>
<path class="cls-2" d="M23.48,39.84s2.82,1.94,4.65,1.29c-2.76,3.41-4.35,2.65-4.65-1.29Z">
</path>
<path class="cls-4" d="M16.74,32.76c-.97,2.92,.9,5.63,1.48,8.32-1.64-2.2-3.51-6.01-1.48-8.32h0Z">
</path>
</g>
</g>
 <g
     id="g2850">
    <g
       id="g2837">
      <path
         id="path1951"
         d="M 0.056640625 0.04296875 L 0.056640625 79.943359 L 69.308594 79.943359 L 69.308594 0.04296875 L 0.056640625 0.04296875 z M 33.615234 3.5957031 C 34.206332 3.5957038 34.786991 3.6051034 35.421875 3.6152344 C 44.430653 3.7671809 53.471255 5.1336733 61.560547 7.5546875 L 62.064453 7.7070312 L 62.25 8.1640625 C 66.070247 17.605006 66.990234 28.726438 66.990234 40.0625 C 66.990234 51.398562 65.972723 63.025755 61.988281 72.578125 L 61.791016 73.044922 L 61.275391 73.185547 C 53.273669 75.403966 44.691921 76.529297 35.759766 76.529297 C 35.212453 76.529297 34.675812 76.519896 34.150391 76.509766 L 33.943359 76.509766 C 24.901742 76.357819 15.860367 74.989738 7.7929688 72.558594 L 7.2890625 72.40625 L 7.1035156 71.951172 C 3.2942144 62.520359 2.375 51.369168 2.375 40.0625 C 2.375 28.755832 3.3819737 17.127318 7.3554688 7.5546875 L 7.5527344 7.0898438 L 8.0664062 6.9472656 C 15.509867 4.890923 23.785212 3.7371557 32.005859 3.6054688 C 32.542226 3.5953387 33.078867 3.5957031 33.615234 3.5957031 z "
         style="opacity:1;vector-effect:none;fill:#ffffff;fill-opacity:1;fill-rule:nonzero;stroke:none;stroke-width:1.95200002;stroke-linecap:butt;stroke-linejoin:miter;stroke-miterlimit:4;stroke-dasharray:none;stroke-dashoffset:0;stroke-opacity:1" />
    </g>
    <path
       id="path1154-8-2"
       d="m 33.675163,6.6112954 c 0.557696,0 1.115392,0.00956 1.683415,0.019115 8.427403,0.14336 16.803167,1.4049288 24.363042,3.6700176 3.573384,8.830981 4.443772,19.417362 4.443772,29.761551 0,10.344189 -0.95301,21.39888 -4.68131,30.334991 -7.435942,2.064385 -15.429581,3.274388 -23.774362,3.274388 -0.506058,0 -1.012115,-0.0096 -1.518172,-0.01911 h -0.17557 C 25.56792,73.508883 17.192156,72.088619 9.6426089,69.813973 6.0795528,61.002107 5.2088244,50.415411 5.2088244,40.061979 c 0,-10.353432 0.95335,-21.389323 4.6609939,-30.325434 C 16.820359,7.8155201 24.462856,6.7450981 32.177647,6.6208528 c 0.49573,-0.00956 1.001787,-0.00956 1.497516,-0.00956 m 0,-0.9557337 c -0.506057,0 -1.012114,0 -1.518171,0.00956 C 24.40089,5.7893644 16.593149,6.8789009 9.570315,8.8190405 L 9.0849131,8.9528432 8.8990146,9.3924808 C 5.1500599,18.424166 4.1999116,29.394246 4.1999116,40.061979 c 0,10.667733 0.8675267,21.188618 4.461566,30.0865 l 0.1755708,0.430081 0.4750741,0.14336 c 7.6115135,2.293761 16.1421925,3.584001 24.6728715,3.727361 h 0.196227 c 0.495729,0.0096 1.001786,0.01911 1.518171,0.01911 8.427403,0 16.524318,-1.060864 24.073866,-3.153921 l 0.485403,-0.133802 0.185898,-0.439639 c 3.759282,-9.01257 4.719759,-19.983589 4.719759,-30.679055 0,-10.695466 -0.867528,-21.188618 -4.471894,-30.0960578 L 60.516853,9.5358409 60.041779,9.3924808 C 52.409609,7.108277 43.87893,5.8180364 35.379234,5.6746763 34.780227,5.6651187 34.232859,5.6555621 33.675163,5.6555615 Z"
       style="fill:#ff0000;stroke:#ffffff;stroke-width:1.84341729;stroke-miterlimit:4;stroke-dasharray:none" />
    <path
       id="path1154"
       d="m 33.614853,4.6077955 c 0.591098,0 1.182197,0.01013 1.784241,0.02026 8.932155,0.1519464 17.809578,1.4890758 25.822246,3.8898304 3.787408,9.3599041 4.709928,20.5803481 4.709928,31.5440931 0,10.963745 -1.01009,22.680548 -4.961693,32.151879 -7.881312,2.18803 -16.353723,3.302304 -25.198307,3.302304 -0.536368,0 -1.072735,-0.01013 -1.609102,-0.02026 H 33.97608 C 25.022033,75.343956 16.14461,74.006827 8.1428892,71.595943 4.3664269,62.256298 3.443547,51.035521 3.443547,40.061979 c 0,-10.973542 1.01045,-22.670418 4.9401601,-32.1417498 7.3668369,-2.036083 15.4670749,-3.170617 23.6439369,-3.3023039 0.525421,-0.01013 1.061788,-0.01013 1.587209,-0.01013 m 0,-1.0129766 c -0.536367,0 -1.072734,0 -1.609101,0.01013 C 23.785105,3.7366356 15.509726,4.891429 8.0662653,6.9477716 L 7.5517907,7.0895883 7.3547579,7.5555576 C 3.3812628,17.128188 2.3742062,28.755311 2.3742062,40.061979 c 0,11.306668 0.9194864,22.457692 4.7287876,31.888505 l 0.1860865,0.45584 0.5035283,0.151947 c 8.0673984,2.431144 17.1090154,3.798662 26.1506324,3.950608 h 0.207979 c 0.525421,0.01013 1.061788,0.02026 1.609101,0.02026 8.932155,0 17.514028,-1.124404 25.51575,-3.342823 l 0.514475,-0.141816 0.197032,-0.46597 c 3.984442,-9.55237 5.002445,-21.180489 5.002445,-32.516551 0,-11.336062 -0.919487,-22.457692 -4.739734,-31.8986353 L 62.064202,7.7075041 61.560674,7.5555576 C 53.471382,5.1345434 44.429765,3.7670249 35.420987,3.6150784 c -0.634884,-0.01013 -1.215036,-0.020259 -1.806134,-0.02026 z"
       style="fill:#000000;stroke:#000000;stroke-width:1.95382714;stroke-miterlimit:4;stroke-dasharray:none" />
    <g
       id="g1810">
      <path
         d="M 6.5134911,7.7433673 C 5.6489029,6.8479453 4.058602,6.5681013 3.6272194,7.3820013 3.284151,8.0292783 3.3625296,8.5309135 4.395235,8.9201755 3.2963719,9.5187755 1.4857674,9.4447465 1.1893447,7.4467713 0.95320848,5.8551433 2.674739,4.8863543 3.1399725,5.0916244 3.0034432,3.6818714 1.8221094,4.0692802 0.95849208,3.2813384 0.34259068,2.7194046 0.23126071,-0.02624603 0.0561761,0.04378767 -0.0138576,0.21887227 2.7317937,0.33020157 3.2937267,0.94610377 4.0816685,1.8097211 3.6942598,2.9910547 5.1040128,3.1275841 4.8987425,2.6623507 5.8675315,0.94082017 7.4591593,1.1769564 9.4571345,1.4733791 9.5311625,3.2839847 8.9325635,4.3828467 8.5433008,3.3501417 8.041666,3.2717627 7.3943894,3.6148312 6.5804899,4.0462137 6.8603354,5.6365129 7.7557553,6.5011023"
         style="fill:#000000;stroke:#000000;stroke-width:0.1112323px;stroke-linecap:butt;stroke-linejoin:miter;stroke-opacity:1"
         id="path1737-3" />
      <path
         d="m 62.850738,7.7433673 c 0.864588,-0.895422 2.454889,-1.175266 2.886271,-0.361366 0.343069,0.647277 0.26469,1.148912 -0.768015,1.538174 1.098863,0.5986 2.909467,0.524571 3.20589,-1.473404 0.236136,-1.591628 -1.485394,-2.560417 -1.950628,-2.3551469 0.13653,-1.409753 1.317863,-1.0223442 2.181481,-1.810286 0.615901,-0.5619338 0.727231,-3.30758442 0.902316,-3.23755072 0.07003,0.1750846 -2.675618,0.2864139 -3.237551,0.9023161 C 65.28256,1.8097211 65.669969,2.9910547 64.260216,3.1275841 64.465486,2.6623507 63.496697,0.94082018 61.905069,1.1769564 c -1.997975,0.2964227 -2.072003,2.1070283 -1.473404,3.2058903 0.389263,-1.032705 0.890898,-1.111084 1.538174,-0.7680155 0.8139,0.4313825 0.534054,2.0216817 -0.361366,2.8862711"
         style="fill:#000000;stroke:#000000;stroke-width:0.1112323px;stroke-linecap:butt;stroke-linejoin:miter;stroke-opacity:1"
         id="path1737-3-5" />
      <path
         d="m 62.850738,72.244244 c 0.864588,0.895422 2.454889,1.175266 2.886272,0.361366 0.343068,-0.647277 0.264689,-1.148912 -0.768016,-1.538174 1.098863,-0.5986 2.909468,-0.524571 3.20589,1.473404 0.236137,1.591628 -1.485394,2.560417 -1.950628,2.355147 0.13653,1.409753 1.317864,1.022344 2.181481,1.810286 0.615901,0.561934 0.727231,3.307584 0.902316,3.237551 0.07003,-0.175085 -2.675618,-0.286414 -3.237551,-0.902317 -0.787942,-0.863617 -0.400533,-2.04495 -1.810286,-2.18148 0.20527,0.465234 -0.763519,2.186764 -2.355146,1.950628 -1.997976,-0.296423 -2.072004,-2.107028 -1.473405,-3.20589 0.389263,1.032705 0.890898,1.111084 1.538175,0.768015 0.813899,-0.431382 0.534054,-2.021682 -0.361366,-2.886271"
         style="fill:#000000;stroke:#000000;stroke-width:0.1112323px;stroke-linecap:butt;stroke-linejoin:miter;stroke-opacity:1"
         id="path1737-3-7" />
      <path
         d="M 6.513491,72.244245 C 5.648903,73.139667 4.058602,73.419511 3.62722,72.605611 3.284151,71.958334 3.36253,71.456699 4.395235,71.067437 c -1.098863,-0.5986 -2.909467,-0.524571 -3.20589,1.473404 -0.23613599,1.591628 1.485394,2.560417 1.950628,2.355147 -0.13653,1.409753 -1.317863,1.022344 -2.18148099,1.810286 -0.615901,0.561933 -0.727231,3.307584 -0.902316,3.23755 C -0.01385399,79.76874 2.731794,79.65741 3.293727,79.041508 4.081669,78.177891 3.69426,76.996557 5.104013,76.860028 4.898743,77.325261 5.867532,79.046792 7.45916,78.810656 9.457135,78.514233 9.531163,76.703627 8.932564,75.604765 8.543301,76.63747 8.041666,76.715849 7.39439,76.372781 6.58049,75.941398 6.860336,74.351099 7.755756,73.48651"
         style="fill:#000000;stroke:#000000;stroke-width:0.1112323px;stroke-linecap:butt;stroke-linejoin:miter;stroke-opacity:1"
         id="path1737-3-5-5" />
    </g>
    <path
       id="path1154-9"
       d="m 33.712865,7.4258691 c 0.536813,0 1.07363,0.00933 1.620386,0.01865 8.111875,0.1398689 16.174044,1.3707167 23.450873,3.5806479 3.439594,8.615932 4.277395,18.944521 4.277395,29.036812 0,10.092292 -0.917329,20.877786 -4.506039,29.596289 -7.157536,2.014114 -14.851888,3.03982 -22.884234,3.03982 -0.487111,0 -0.974221,-0.0094 -1.461331,-0.01865 H 34.040918 C 25.909161,72.53957 17.846991,71.308722 10.580105,69.089467 7.1504515,60.492184 6.3123238,50.163289 6.3123238,40.061979 c 0,-10.101311 0.9176558,-20.868461 4.4864832,-29.586965 6.690308,-1.8742449 14.046665,-2.9186005 21.472608,-3.0398203 0.47717,-0.00933 0.964281,-0.00933 1.44145,-0.00933 m 0,-0.9324602 c -0.487111,0 -0.974221,0 -1.46133,0.00933 C 24.785826,6.6239532 17.270413,7.686958 10.510517,9.5798526 L 10.043289,9.710397 9.8643508,10.139328 c -3.6085914,8.811751 -4.5231655,19.514693 -4.5231655,29.922651 0,10.407958 0.8350459,20.672644 4.294522,29.353849 l 0.1689973,0.419608 0.4572874,0.13987 c 7.326533,2.237904 15.537818,3.496724 23.749103,3.636593 h 0.188879 c 0.47717,0.0094 0.96428,0.01865 1.461331,0.01865 8.111875,0 15.905636,-1.035031 23.172525,-3.077119 l 0.467228,-0.130544 0.178938,-0.428932 c 3.618533,-8.793101 4.543048,-19.496959 4.543048,-29.931975 0,-10.435016 -0.835047,-20.672644 -4.304463,-29.363174 l -0.168997,-0.419609 -0.457288,-0.13987 C 51.74588,7.9107484 43.534594,6.6519271 35.353133,6.512058 34.776554,6.502738 34.249678,6.493409 33.712865,6.493409 Z"
       style="fill:#000000;stroke:none;stroke-width:1.78642213;stroke-miterlimit:4;stroke-dasharray:none" />
    <path
       id="path1154-9-3"
       d="m 33.712865,7.4258686 c 0.536813,0 1.07363,0.00933 1.620386,0.01865 8.111875,0.1398689 16.174044,1.3707167 23.450873,3.5806484 3.439594,8.615932 4.277395,18.944521 4.277395,29.036812 0,10.092292 -0.917329,20.877786 -4.506039,29.596288 -7.157536,2.014114 -14.851888,3.03982 -22.884234,3.03982 -0.487111,0 -0.974221,-0.0094 -1.461331,-0.01865 H 34.040918 C 25.909161,72.539569 17.846991,71.308722 10.580105,69.089466 7.1504515,60.492184 6.3123238,50.163288 6.3123238,40.061979 c 0,-10.101312 0.9176558,-20.868461 4.4864832,-29.586965 6.690308,-1.8742454 14.046665,-2.918601 21.472608,-3.0398208 0.47717,-0.00933 0.964281,-0.00933 1.44145,-0.00933 m 0,-0.9324602 c -0.487111,0 -0.974221,0 -1.46133,0.00933 C 24.785826,6.6239527 17.270413,7.6869575 10.510517,9.5798521 L 10.043289,9.7103965 9.8643508,10.139328 C 6.2557594,18.951079 5.3411853,29.65402 5.3411853,40.061979 c 0,10.407958 0.8350459,20.672643 4.294522,29.353849 l 0.1689973,0.419608 0.4572874,0.13987 c 7.326533,2.237904 15.537818,3.496724 23.749103,3.636593 h 0.188879 c 0.47717,0.0094 0.96428,0.01865 1.461331,0.01865 8.111875,0 15.905636,-1.035032 23.172525,-3.077119 l 0.467228,-0.130544 0.178938,-0.428932 c 3.618533,-8.793101 4.543048,-19.49696 4.543048,-29.931975 0,-10.435016 -0.835047,-20.672644 -4.304463,-29.363175 l -0.168997,-0.419609 -0.457288,-0.13987 C 51.74588,7.9107479 43.534594,6.6519266 35.353133,6.5120575 34.776554,6.5027375 34.249678,6.4934085 33.712865,6.4934085 Z"
       style="fill:#000000;stroke:none;stroke-width:1.78642213;stroke-miterlimit:4;stroke-dasharray:none" />
  </g>
</svg>
