<svg id="Capa_2" xmlns="http://www.w3.org/2000/svg" xmlns:xlink="http://www.w3.org/1999/xlink" viewBox="0 0 69.02 80">
<defs >
<style >
.cls-1{fill:#c89aed;}.cls-2{fill:#fff;}.cls-3{fill:#f8ffbf;}.cls-4{fill:#7b7be8;}.cls-5{fill:#a88347;}.cls-6{stroke:#c89aed;stroke-width:1.2px;}.cls-6,.cls-7,.cls-8,.cls-9,.cls-10,.cls-11,.cls-12{fill:none;}.cls-6,.cls-7,.cls-11,.cls-12{stroke-miterlimit:10;}.cls-13{fill:#782ab5;}.cls-7,.cls-11,.cls-12{stroke:#000;}.cls-8{stroke:#deb778;stroke-dasharray:0 0 0 4.06;stroke-linecap:round;stroke-linejoin:round;}.cls-14{fill:#deb778;}.cls-15{fill:url(#USGS_19_Inundación_de_tierra_2);}.cls-10{stroke:#1d1d1b;stroke-dasharray:0 0 2 2;stroke-width:.3px;}.cls-16{fill:#fcf0c5;}.cls-11{stroke-width:.5px;}.cls-12{stroke-width:.52px;}
</style>
<pattern id="USGS_19_Inundación_de_tierra_2" x="0" y="0" width="72" height="72" patternTransform="translate(267.52 -16351) rotate(-90)" patternUnits="userSpaceOnUse" viewBox="0 0 72 72">
<g >
<rect class="cls-9" width="72" height="72">
</rect>
<g >
<line class="cls-10" x1="71" y1="71" x2="144.44" y2="71">
</line>
<line class="cls-10" x1="71" y1="67" x2="144.44" y2="67">
</line>
<line class="cls-10" x1="71" y1="63" x2="144.44" y2="63">
</line>
<line class="cls-10" x1="71" y1="59" x2="144.44" y2="59">
</line>
<line class="cls-10" x1="71" y1="55" x2="144.44" y2="55">
</line>
<line class="cls-10" x1="71" y1="51" x2="144.44" y2="51">
</line>
<line class="cls-10" x1="71" y1="47" x2="144.44" y2="47">
</line>
<line class="cls-10" x1="71" y1="43" x2="144.44" y2="43">
</line>
<line class="cls-10" x1="71" y1="39" x2="144.44" y2="39">
</line>
<line class="cls-10" x1="71" y1="35" x2="144.44" y2="35">
</line>
<line class="cls-10" x1="71" y1="31" x2="144.44" y2="31">
</line>
<line class="cls-10" x1="71" y1="27" x2="144.44" y2="27">
</line>
<line class="cls-10" x1="71" y1="23" x2="144.44" y2="23">
</line>
<line class="cls-10" x1="71" y1="19" x2="144.44" y2="19">
</line>
<line class="cls-10" x1="71" y1="15" x2="144.44" y2="15">
</line>
<line class="cls-10" x1="71" y1="11" x2="144.44" y2="11">
</line>
<line class="cls-10" x1="71" y1="7" x2="144.44" y2="7">
</line>
<line class="cls-10" x1="71" y1="3" x2="144.44" y2="3">
</line>
</g>
<g >
<line class="cls-10" x1="-1" y1="71" x2="72.44" y2="71">
</line>
<line class="cls-10" x1="-1" y1="67" x2="72.44" y2="67">
</line>
<line class="cls-10" x1="-1" y1="63" x2="72.44" y2="63">
</line>
<line class="cls-10" x1="-1" y1="59" x2="72.44" y2="59">
</line>
<line class="cls-10" x1="-1" y1="55" x2="72.44" y2="55">
</line>
<line class="cls-10" x1="-1" y1="51" x2="72.44" y2="51">
</line>
<line class="cls-10" x1="-1" y1="47" x2="72.44" y2="47">
</line>
<line class="cls-10" x1="-1" y1="43" x2="72.44" y2="43">
</line>
<line class="cls-10" x1="-1" y1="39" x2="72.44" y2="39">
</line>
<line class="cls-10" x1="-1" y1="35" x2="72.44" y2="35">
</line>
<line class="cls-10" x1="-1" y1="31" x2="72.44" y2="31">
</line>
<line class="cls-10" x1="-1" y1="27" x2="72.44" y2="27">
</line>
<line class="cls-10" x1="-1" y1="23" x2="72.44" y2="23">
</line>
<line class="cls-10" x1="-1" y1="19" x2="72.44" y2="19">
</line>
<line class="cls-10" x1="-1" y1="15" x2="72.44" y2="15">
</line>
<line class="cls-10" x1="-1" y1="11" x2="72.44" y2="11">
</line>
<line class="cls-10" x1="-1" y1="7" x2="72.44" y2="7">
</line>
<line class="cls-10" x1="-1" y1="3" x2="72.44" y2="3">
</line>
<line class="cls-10" x1="1.04" y1="69" x2="74.48" y2="69">
</line>
<line class="cls-10" x1="1.04" y1="65" x2="74.48" y2="65">
</line>
<line class="cls-10" x1="1.04" y1="61" x2="74.48" y2="61">
</line>
<line class="cls-10" x1="1.04" y1="57" x2="74.48" y2="57">
</line>
<line class="cls-10" x1="1.04" y1="53" x2="74.48" y2="53">
</line>
<line class="cls-10" x1="1.04" y1="49" x2="74.48" y2="49">
</line>
<line class="cls-10" x1="1.04" y1="45" x2="74.48" y2="45">
</line>
<line class="cls-10" x1="1.04" y1="41" x2="74.48" y2="41">
</line>
<line class="cls-10" x1="1.04" y1="37" x2="74.48" y2="37">
</line>
<line class="cls-10" x1="1.04" y1="33" x2="74.48" y2="33">
</line>
<line class="cls-10" x1="1.04" y1="29" x2="74.48" y2="29">
</line>
<line class="cls-10" x1="1.04" y1="25" x2="74.48" y2="25">
</line>
<line class="cls-10" x1="1.04" y1="21" x2="74.48" y2="21">
</line>
<line class="cls-10" x1="1.04" y1="17" x2="74.48" y2="17">
</line>
<line class="cls-10" x1="1.04" y1="13" x2="74.48" y2="13">
</line>
<line class="cls-10" x1="1.04" y1="9" x2="74.48" y2="9">
</line>
<line class="cls-10" x1="1.04" y1="5" x2="74.48" y2="5">
</line>
<line class="cls-10" x1="1.04" y1="1" x2="74.48" y2="1">
</line>
</g>
<g >
<line class="cls-10" x1="-73" y1="71" x2=".44" y2="71">
</line>
<line class="cls-10" x1="-73" y1="67" x2=".44" y2="67">
</line>
<line class="cls-10" x1="-73" y1="63" x2=".44" y2="63">
</line>
<line class="cls-10" x1="-73" y1="59" x2=".44" y2="59">
</line>
<line class="cls-10" x1="-73" y1="55" x2=".44" y2="55">
</line>
<line class="cls-10" x1="-73" y1="51" x2=".44" y2="51">
</line>
<line class="cls-10" x1="-73" y1="47" x2=".44" y2="47">
</line>
<line class="cls-10" x1="-73" y1="43" x2=".44" y2="43">
</line>
<line class="cls-10" x1="-73" y1="39" x2=".44" y2="39">
</line>
<line class="cls-10" x1="-73" y1="35" x2=".44" y2="35">
</line>
<line class="cls-10" x1="-73" y1="31" x2=".44" y2="31">
</line>
<line class="cls-10" x1="-73" y1="27" x2=".44" y2="27">
</line>
<line class="cls-10" x1="-73" y1="23" x2=".44" y2="23">
</line>
<line class="cls-10" x1="-73" y1="19" x2=".44" y2="19">
</line>
<line class="cls-10" x1="-73" y1="15" x2=".44" y2="15">
</line>
<line class="cls-10" x1="-73" y1="11" x2=".44" y2="11">
</line>
<line class="cls-10" x1="-73" y1="7" x2=".44" y2="7">
</line>
<line class="cls-10" x1="-73" y1="3" x2=".44" y2="3">
</line>
<line class="cls-10" x1="-70.96" y1="69" x2="2.48" y2="69">
</line>
<line class="cls-10" x1="-70.96" y1="65" x2="2.48" y2="65">
</line>
<line class="cls-10" x1="-70.96" y1="61" x2="2.48" y2="61">
</line>
<line class="cls-10" x1="-70.96" y1="57" x2="2.48" y2="57">
</line>
<line class="cls-10" x1="-70.96" y1="53" x2="2.48" y2="53">
</line>
<line class="cls-10" x1="-70.96" y1="49" x2="2.48" y2="49">
</line>
<line class="cls-10" x1="-70.96" y1="45" x2="2.48" y2="45">
</line>
<line class="cls-10" x1="-70.96" y1="41" x2="2.48" y2="41">
</line>
<line class="cls-10" x1="-70.96" y1="37" x2="2.48" y2="37">
</line>
<line class="cls-10" x1="-70.96" y1="33" x2="2.48" y2="33">
</line>
<line class="cls-10" x1="-70.96" y1="29" x2="2.48" y2="29">
</line>
<line class="cls-10" x1="-70.96" y1="25" x2="2.48" y2="25">
</line>
<line class="cls-10" x1="-70.96" y1="21" x2="2.48" y2="21">
</line>
<line class="cls-10" x1="-70.96" y1="17" x2="2.48" y2="17">
</line>
<line class="cls-10" x1="-70.96" y1="13" x2="2.48" y2="13">
</line>
<line class="cls-10" x1="-70.96" y1="9" x2="2.48" y2="9">
</line>
<line class="cls-10" x1="-70.96" y1="5" x2="2.48" y2="5">
</line>
<line class="cls-10" x1="-70.96" y1="1" x2="2.48" y2="1">
</line>
</g>
</g>
</pattern>
</defs>

  <path
     id="path7641-4"
     style="fill:#782ab5;fill-opacity:1;stroke:#4d4d4d;stroke-width:1.62226;stop-color:#000000"
     d="M 34.900259,1.6936052 C 14.323312,9.5265586 1.6299002,23.954051 1.5689773,39.580572 V 79.197446 H 67.963672 V 39.580572 C 67.958188,23.990066 55.374427,9.5708664 34.900259,1.6936052 Z"/>
  <path
     id="path7641-7"
     style="fill:#808080;stroke:#4d4d4d;stroke-width:1.48325;stop-color:#000000"
     d="M 34.629293,5.0425238 C 15.815619,12.204258 4.1542243,25.395327 4.1542243,39.682894 V 76.559207 H 64.859448 V 39.682894 c 0,-14.254531 -11.510452,-27.438125 -30.230155,-34.6403702 z m -0.01233,3.4358455 C 51.537073,14.988239 61.941622,26.904418 61.941622,39.788613 v 33.82806 H 7.07205 v -33.82806 c 0,-12.914055 10.539857,-24.836991 27.544909,-31.3102437 z"/>
  <path
     id="path7641-7-8"
     style="fill:#808080;stroke:#4d4d4d;stroke-width:1.35027;stop-color:#000000"
     d="M 34.618314,8.2461803 C 17.491429,14.76581 6.8755673,26.7742 6.8755673,39.780777 v 33.57007 H 62.138105 v -33.57007 c 0,-12.976504 -10.478452,-24.978088 -27.519791,-31.5345967 z m -0.01123,3.1277957 c 15.403093,5.926211 24.874795,16.774013 24.874795,28.503041 V 70.672134 H 9.5317874 V 39.877017 c 0,-11.75621 9.5948786,-22.610165 25.0752986,-28.503041 z"/>
  <path
     id="path7641-7-8-0"
     style="fill:#808080;stroke:#4d4d4d;stroke-width:1.21411;stop-color:#000000"
     d="M 34.607073,11.526302 C 19.207238,17.388502 9.6618637,28.185984 9.6618637,39.880997 V 70.06591 H 59.351809 V 39.880997 c 0,-11.667973 -9.421821,-22.459335 -24.744736,-28.354695 z m -0.0101,2.812393 c 13.849868,5.328621 22.366458,15.082547 22.366458,25.628837 V 67.657315 H 12.050234 V 39.967532 c 0,-10.570731 8.627346,-20.33019 22.546743,-25.628837 z"/>


<g id="Capa_9">
<g >
<g >
<path class="cls-1" d="M6.18,60.95s6.16-11.17,8.38-20.37c-1.19-6.97-1.48-8.75-1.48-8.75l3.12,1.93,2.52-15.43s3.86-7.27,16.32-6.97c9.2,.45,14.24,6.38,14.24,6.38l2.82,16.02,2.37-2.23s.59,3.86-.74,7.42c1.63,8.6,6.68,19.73,9.05,23.44-1.48,8.75-3.71,10.98-3.71,10.98,0,0-19.14,5.19-29.07,2.97s-20.92-4.6-20.92-4.6l-2.89-10.78Z">
</path>
<path d="M19.04,20.15s-4.67,23.92-8.87,32.8c-2.38,5.86-3.56,7.45-3.56,7.45l1.11,2.69s8.79-3.8,11.01-3.56c.87-10.3,1.43-23.05,1.11-25.11s-.79-14.26-.79-14.26Z">
</path>
<path class="cls-4" d="M32.07,40.03s-6.06-1.15-7.8-1.15c-2.11,.52-3.07,.89-3.55,1.29,.85,2.25,2.25,6.13,4.43,6.5s5.85-3.98,5.85-3.98l1.06-2.67Z">
</path>
<path class="cls-2" d="M33.62,75.07V10.99s10.26,.83,15.65,6.75c-1.8,10.97-1.13,27.76-1.13,27.76,0,0,1.65,12.92,.93,15.85s-6.53,14.12-6.53,14.12l-8.93-.4Z">
</path>
<path class="cls-4" d="M36.16,40.03s6.06-1.15,7.8-1.15c2.11,.52,3.07,.89,3.55,1.29-.85,2.25-2.25,6.13-4.43,6.5s-5.85-3.98-5.85-3.98l-1.06-2.67Z">
</path>
<path class="cls-4" d="M19.49,50.25l4.88,9.77,.58-5.03,3.13-5.39s1.97,.15,2.77,1.17,2.33,1.53,3.86,1.39,2.41-2.19,3.43-2.26l2.04-.15s2.84,4.37,3.13,5.69,.51,4.3,.51,4.3l4.59-9.11s1.31,7.22,.87,9.4-1.75,7.8-4.08,11.08c-2.48,3.64-3.5,4.74-3.5,4.74l-17.06-1.17s-2.99-4.96-3.79-6.93-2.62-6.56-2.19-8.89c.51-3.94,.8-8.6,.8-8.6Z">
</path>
<path d="M34.05,52.12v24.87l-8.54-1.67s-3.68-5.78-4.94-8.71-1.85-7.08-1.85-7.08l.84-9.35,4.94,9.49,.46-4.67,3.13-5.39s1.85,.02,2.69,.69,3.27,1.84,3.27,1.84Z">
</path>
<path class="cls-3" d="M31.02,42.7s-2.01-.73-3.67-.93-4.43,.07-4.43,.07c0,0,2.53,1.52,4.64,1.66s3.46-.8,3.46-.8Z">
</path>
<path class="cls-3" d="M36.76,42.7s2.01-.73,3.67-.93,4.43,.07,4.43,.07c0,0-2.53,1.52-4.64,1.66s-3.46-.8-3.46-.8Z">
</path>
<path class="cls-4" d="M29.57,29.53V11.65s-6.06,2.16-9.25,4.93c.62,5.44,.82,15,.82,15,0,0,4.42-1.44,8.42-2.05Z">
</path>
<path class="cls-4" d="M19.75,40.67s-1.66-4.75-2.93-5.78c-1.74-1.66-3.74-3.06-3.74-3.06,0,0,.65,4.25,1.12,6.23s.32,5.78,.79,6.97,2.46,3.41,4.2,4.12c.95-5.7,.55-8.48,.55-8.48Z">
</path>
<path class="cls-1" d="M29.24,58s2.02-1.6,3.38-1.6c1.92,.03,3.57,0,3.57,0,0,0,2.49,1.17,2.86,1.64-1.74,.61-2.11,.84-2.11,.84l-5.54-.05-2.16-.84Z">
</path>
<path class="cls-2" d="M49.6,60.88s8.28,1.87,11.23,4.43c-2.32,6.42-3.15,8.97-3.15,8.97l-15.96,1.55s6.3-8.35,7.88-14.95Z">
</path>
<path class="cls-6" d="M32.46,29.98s7.73-.81,15.18,2.3c-.13,7.89,.54,17.53,.54,17.53,0,0-3.45,8.04-4.12,8.78-.14-3.8-.35-4.17-1.32-5.83-.83-1.42-2.26-3.3-2.26-3.3,0,0-2.21-.43-3.16,.45s-2.76,2.43-3.98,1.75">
</path>
<path class="cls-2" d="M39.05,58.05h-9.79s2.15-1.35,3.06-1.6,3.87,0,3.87,0c0,0,2.46,1.14,2.86,1.6Z">
</path>
<path d="M18.63,60.72s-6.5,1.3-10.47,4.03c1.49,6.13,2.91,8.67,2.91,8.67l14.99,1.11-7.43-13.81Z">
</path>
<path class="cls-2" d="M22.77,46.3s1.52,2.28,4.56,.46c-2.84,3.55-3.85,2.63-4.56-.46Z">
</path>
<path class="cls-7" d="M14.48,39.86c-3.94,14.91-8.26,21.33-8.26,21.33">
</path>
<path class="cls-7" d="M52.1,33.82c-1.01-4.63-1.96-9.9-2.75-15.88,0,0-5.41-6.42-14.7-6.77h-1.27c-9.29,.36-14.7,6.77-14.7,6.77-.8,6.08-1.77,11.43-2.8,16.12">
</path>
<path class="cls-7" d="M61.82,61.19s-4.37-6.34-8.35-21.64">
</path>
<path class="cls-7" d="M18.68,17.94s1.52,12.61,1.04,25.22-1.85,16.63-.16,21.13,3.78,8.59,7.55,12.61">
</path>
<path class="cls-7" d="M49.24,17.94s-1.52,12.61-1.04,25.22c.48,12.61,1.85,16.63,.16,21.13s-3.78,8.59-7.55,12.61">
</path>
<path class="cls-7" d="M19.75,40.34c-.97-1.13-1.54-4.15-3.22-5.73s-3.28-3.28-3.28-3.28c0,0-.36,3.38,.56,5.78s.82,5.02,1.23,7.12,2.35,4.66,4.3,4.91">
</path>
<path d="M15.1,35.74c1.46,.91,1.75,2.79,2.19,4.27,.5,1.36,1.29,3,2.5,3.74,0,0-.51,.86-.51,.86-.82-.59-1.24-1.34-1.63-2.09-1.3-2.14-.56-5.07-2.55-6.78h0Z">
</path>
<path d="M17.83,45.53c-.58-.97-.85-2.21-.25-3.3l.8,.6c-.7,.63-.77,1.79-.55,2.71h0Z">
</path>
<path class="cls-7" d="M48.12,40.34c.97-1.13,1.54-4.15,3.22-5.73s3.28-3.28,3.28-3.28c0,0,.36,3.38-.56,5.78s-.82,5.02-1.23,7.12-2.35,4.66-4.3,4.91">
</path>
<path d="M52.77,35.74c-1.99,1.71-1.24,4.64-2.55,6.78-.39,.75-.81,1.51-1.63,2.09l-.51-.86c1.22-.75,2.01-2.38,2.5-3.74,.44-1.48,.73-3.37,2.19-4.27h0Z">
</path>
<path d="M50.04,45.53c.22-.92,.15-2.08-.55-2.71,0,0,.8-.6,.8-.6,.6,1.09,.33,2.33-.25,3.3h0Z">
</path>
<path class="cls-11" d="M19.87,32.14s5.74-2.57,14.11-2.57,14.04,2.49,14.04,2.49">
</path>
<path class="cls-11" d="M19.41,49.48s3.12,7.3,4.99,10.35">
</path>
<path d="M28.21,49.88c-1.5,2.19-3.08,4.52-3.19,7.25-.08,.81-.25,2.45-.34,3.26-.05,.54-.12,1.09-.41,1.61-.33-.96-.01-2.31,.02-3.29,0,0,.13-1.64,.13-1.64,.05-2.84,1.72-5.33,3.4-7.49,0,0,.39,.31,.39,.31h0Z">
</path>
<path class="cls-11" d="M48.84,49.48s-3.12,7.3-4.99,10.35">
</path>
<path d="M40.42,49.57c1.68,2.16,3.35,4.66,3.4,7.49,.06,.81,.2,2.46,.26,3.28,.18,1.97-.34,2.04-.53,.05-.08-.81-.25-2.45-.34-3.26-.11-2.73-1.69-5.06-3.19-7.25,0,0,.39-.31,.39-.31h0Z">
</path>
<path class="cls-11" d="M34.74,58.84h2.27c.44-.27,2.16-.82,2.16-.82,0,0-2.16-1.59-3.27-1.59h-1.35s-.72,0-.72,0h-1.35c-1.11,0-3.27,1.59-3.27,1.59,0,0,1.72,.56,2.16,.82h3.39Z">
</path>
<path d="M21.63,46.48c.39,2.02,1.38,3.52,2.87,4.73,.41,1.08,.75,2.17,.95,3.33l-.49,.08c-.25-1.08-.62-2.16-.98-3.22l.1,.13c-1.56-1.17-2.49-3.13-2.44-5.06h0Z">
</path>
<path d="M46.58,46.48c.06,1.93-.88,3.89-2.44,5.06,0,0,.1-.13,.1-.13-.37,1.06-.73,2.15-.98,3.22l-.49-.08c.2-1.16,.54-2.25,.95-3.33,1.49-1.22,2.48-2.71,2.87-4.73h0Z">
</path>
<path d="M37.89,45.77c.76,.68,1.62,1.14,2.37,1.83,.91,1.04,.61,2.57-.96,2.65-.42,.02-.9,.02-1.26,.23-.7,.46-1.49,1.37-2.29,1.84-1.23,.73-2.93,.5-3.95-.47-.48-.38-1.22-1.09-1.64-1.37-.66-.37-1.45-.07-2.12-.49-1.2-.69-.45-2.43,.52-2.89,.61-.41,1.18-.87,1.75-1.34-.54,.76-1.42,1.46-1.98,2.13-.48,.71-.42,1.62,.62,1.57,.24,0,.52-.03,.76,0,1.12,.1,1.87,1.05,2.67,1.61,.78,.73,1.96,.89,2.9,.38,.86-.53,1.41-1.2,2.37-1.76,.5-.26,1.07-.27,1.61-.23,1.04,.04,1.1-.87,.62-1.58-.56-.67-1.44-1.36-1.99-2.12h0Z">
</path>
<path d="M20.67,40.3c-.09,.07,1.68-2.26,3.45-2.78,3.03-.06,8.3,.97,8.3,.97,0,0-.03,1.52-.9,2.39-4-.84-8.46-2.29-10.85-.58Z">
</path>
<path d="M22.81,41.87c2.85-.68,6.06-.65,8.68,.84,0,0-.29,.24-.29,.24-1.8,1.28-5.43,5.65-7.51,2.86,.95,1.41,2.83,.68,3.87-.23,1.16-.92,2.16-2.03,3.32-3.01l.05,.41c-2.61-.94-5.37-1-8.13-1.11h0Z">
</path>
<path d="M24.83,42.72c.76,.22,1.5,.48,2.27,.59,1.26,.03,2.5-.48,3.73-.78,0,0,.16,.47,.16,.47-1.26,.44-2.61,.95-3.98,.77-.79-.2-1.52-.58-2.18-1.06h0Z">
</path>
<path d="M47.6,40.3c.09,.07-1.68-2.26-3.45-2.78-3.03-.06-8.3,.97-8.3,.97,0,0,.03,1.52,.9,2.39,4-.84,8.46-2.29,10.85-.58Z">
</path>
<path d="M45.46,41.87c-2.76,.23-5.53,.01-8.13,1.11,0,0,.05-.42,.05-.42,1.18,.94,2.23,2.02,3.38,2.93,1.07,.89,2.75,1.56,3.81,.32-.75,1.65-3.01,.96-4.09,.06-1.35-.98-2.47-2.14-3.73-3.17,2.65-1.3,5.86-1.62,8.7-.82h0Z">
</path>
<path d="M43.44,42.72c-.65,.48-1.39,.85-2.18,1.06-1.37,.18-2.73-.33-3.98-.77,0,0,.16-.47,.16-.47,1.23,.3,2.47,.81,3.73,.78,.77-.11,1.51-.37,2.27-.59h0Z">
</path>
<path d="M25.42,34.81c5.63,1.16,11.45,1.26,17.1,.13-5.49,1.8-11.63,1.69-17.1-.13h0Z">
</path>
<path d="M28.54,33.08c3.61,.61,7.24,.67,10.85,.09-3.45,1.27-7.42,1.2-10.85-.09h0Z">
</path>
<path d="M30.9,31.54c2.08,.2,4.07,.23,6.14,.05-1.91,.87-4.24,.82-6.14-.05h0Z">
</path>
<path class="cls-7" d="M8.26,63.03s4.54-2.46,10.35-3.5">
</path>
<path class="cls-7" d="M59.92,63.03s-4.54-2.46-10.35-3.5">
</path>
<path class="cls-12" d="M14.72,60.46s-1.15,5.6,2.14,12.43">
</path>
<path class="cls-12" d="M53.56,60.46s1.15,5.6-2.14,12.43">
</path>
</g>
<path class="cls-4" d="M19.55,55.17c-.02,3.45,.2,7.09,1.67,10.22,1.57,3.04,3.86,5.82,6.16,8.37,0,0-.7,.71-.7,.71-5.69-5.54-8.75-11.22-7.12-19.3h0Z">
</path>
</g>
</g>
  <g
     id="g20645">
    <path
       style="fill:#808080;stroke:#4d4d4d;stroke-width:0.937908;stop-color:#000000;fill-opacity:1"
       d="m 9.541565,65.883425 a 5.4759801,5.4759801 0 0 1 5.47598,5.475981 5.4759801,5.4759801 0 0 1 -5.47598,5.47598 5.4759801,5.4759801 0 0 1 -5.4759806,-5.47598 5.4759801,5.4759801 0 0 1 5.4759806,-5.475981 z"/>
    <path
       style="fill:#808080;stroke:#4d4d4d;stroke-width:0.937908;stop-color:#000000;fill-opacity:1"
       d="m 59.472108,65.883425 a 5.4759801,5.4759801 0 0 1 5.47598,5.475981 5.4759801,5.4759801 0 0 1 -5.47598,5.47598 5.4759801,5.4759801 0 0 1 -5.475981,-5.47598 5.4759801,5.4759801 0 0 1 5.475981,-5.475981 z"/>
    <path
       id="path7641"
       style="fill:#808080;stroke:#4d4d4d;stroke-width:1.64416;stop-color:#000000"
       d="M 34.642578,1.1660156 C 13.787845,9.1047124 0.86132813,23.726855 0.86132812,39.564453 V 79.340489 H 68.152344 V 39.564453 c 0,-15.800978 -12.759199,-30.4148342 -33.509766,-38.3984374 z m -0.01367,3.8085938 C 53.384648,12.190722 64.917969,25.399665 64.917969,39.681641 v 26.507812 c -1.368656,-1.44106 -3.300993,-2.341797 -5.445313,-2.341797 -4.14856,0 -7.511718,3.363159 -7.511718,7.511719 0,2.347008 1.075662,4.442843 2.761718,5.820313 H 14.269531 c 1.756069,-1.422629 2.778281,-3.560307 2.783203,-5.820313 4.8e-5,-4.148627 -3.363091,-7.511766 -7.5117184,-7.511719 -2.0622939,0.0062 -4.0313164,0.860092 -5.4453125,2.361328 V 39.681641 c 0,-14.315076 11.6833059,-27.531508 30.5332029,-34.7070316 z"/>
    <circle
       style="fill:#4d4d4d;fill-opacity:1;stroke:#4d4d4d;stop-color:#000000"
       id="path16431"
       cx="9.6010828"
       cy="71.229652"
       r="5.06003" />
    <circle
       style="fill:#4d4d4d;fill-opacity:1;stroke:#4d4d4d;stop-color:#000000"
       id="path16431-3"
       cx="59.42292"
       cy="71.229652"
       r="5.06003" />
  </g>
</svg>
