<svg id="Capa_2" xmlns="http://www.w3.org/2000/svg" xmlns:xlink="http://www.w3.org/1999/xlink" viewBox="0 0 69.02 80">
<defs >
<style >
.cls-1{fill:#c89aed;}.cls-2{fill:#fff;}.cls-3{fill:#f8ffbf;}.cls-4{fill:#7b7be8;}.cls-5,.cls-6{stroke:#000;}.cls-5,.cls-6,.cls-7,.cls-8,.cls-9{fill:none;}.cls-5,.cls-7{stroke-linejoin:round;}.cls-10{fill:#a88347;}.cls-11{fill:#782ab5;}.cls-6{stroke-miterlimit:10;}.cls-12{fill:#1c46ff;}.cls-7{stroke:#deb778;stroke-dasharray:0 0 0 4.06;stroke-linecap:round;}.cls-13{fill:#deb778;}.cls-14{fill:url(#USGS_19_Inundación_de_tierra_2);}.cls-9{stroke:#1d1d1b;stroke-dasharray:0 0 2 2;stroke-width:.3px;}.cls-15{fill:#fcf0c5;}.cls-16{fill:#b83521;}
</style>
<pattern id="USGS_19_Inundación_de_tierra_2" x="0" y="0" width="72" height="72" patternTransform="translate(-92.48 -16351) rotate(-90)" patternUnits="userSpaceOnUse" viewBox="0 0 72 72">
<g >
<rect class="cls-8" width="72" height="72">
</rect>
<g >
<line class="cls-9" x1="71" y1="71" x2="144.44" y2="71">
</line>
<line class="cls-9" x1="71" y1="67" x2="144.44" y2="67">
</line>
<line class="cls-9" x1="71" y1="63" x2="144.44" y2="63">
</line>
<line class="cls-9" x1="71" y1="59" x2="144.44" y2="59">
</line>
<line class="cls-9" x1="71" y1="55" x2="144.44" y2="55">
</line>
<line class="cls-9" x1="71" y1="51" x2="144.44" y2="51">
</line>
<line class="cls-9" x1="71" y1="47" x2="144.44" y2="47">
</line>
<line class="cls-9" x1="71" y1="43" x2="144.44" y2="43">
</line>
<line class="cls-9" x1="71" y1="39" x2="144.44" y2="39">
</line>
<line class="cls-9" x1="71" y1="35" x2="144.44" y2="35">
</line>
<line class="cls-9" x1="71" y1="31" x2="144.44" y2="31">
</line>
<line class="cls-9" x1="71" y1="27" x2="144.44" y2="27">
</line>
<line class="cls-9" x1="71" y1="23" x2="144.44" y2="23">
</line>
<line class="cls-9" x1="71" y1="19" x2="144.44" y2="19">
</line>
<line class="cls-9" x1="71" y1="15" x2="144.44" y2="15">
</line>
<line class="cls-9" x1="71" y1="11" x2="144.44" y2="11">
</line>
<line class="cls-9" x1="71" y1="7" x2="144.44" y2="7">
</line>
<line class="cls-9" x1="71" y1="3" x2="144.44" y2="3">
</line>
</g>
<g >
<line class="cls-9" x1="-1" y1="71" x2="72.44" y2="71">
</line>
<line class="cls-9" x1="-1" y1="67" x2="72.44" y2="67">
</line>
<line class="cls-9" x1="-1" y1="63" x2="72.44" y2="63">
</line>
<line class="cls-9" x1="-1" y1="59" x2="72.44" y2="59">
</line>
<line class="cls-9" x1="-1" y1="55" x2="72.44" y2="55">
</line>
<line class="cls-9" x1="-1" y1="51" x2="72.44" y2="51">
</line>
<line class="cls-9" x1="-1" y1="47" x2="72.44" y2="47">
</line>
<line class="cls-9" x1="-1" y1="43" x2="72.44" y2="43">
</line>
<line class="cls-9" x1="-1" y1="39" x2="72.44" y2="39">
</line>
<line class="cls-9" x1="-1" y1="35" x2="72.44" y2="35">
</line>
<line class="cls-9" x1="-1" y1="31" x2="72.44" y2="31">
</line>
<line class="cls-9" x1="-1" y1="27" x2="72.44" y2="27">
</line>
<line class="cls-9" x1="-1" y1="23" x2="72.44" y2="23">
</line>
<line class="cls-9" x1="-1" y1="19" x2="72.44" y2="19">
</line>
<line class="cls-9" x1="-1" y1="15" x2="72.44" y2="15">
</line>
<line class="cls-9" x1="-1" y1="11" x2="72.44" y2="11">
</line>
<line class="cls-9" x1="-1" y1="7" x2="72.44" y2="7">
</line>
<line class="cls-9" x1="-1" y1="3" x2="72.44" y2="3">
</line>
<line class="cls-9" x1="1.04" y1="69" x2="74.48" y2="69">
</line>
<line class="cls-9" x1="1.04" y1="65" x2="74.48" y2="65">
</line>
<line class="cls-9" x1="1.04" y1="61" x2="74.48" y2="61">
</line>
<line class="cls-9" x1="1.04" y1="57" x2="74.48" y2="57">
</line>
<line class="cls-9" x1="1.04" y1="53" x2="74.48" y2="53">
</line>
<line class="cls-9" x1="1.04" y1="49" x2="74.48" y2="49">
</line>
<line class="cls-9" x1="1.04" y1="45" x2="74.48" y2="45">
</line>
<line class="cls-9" x1="1.04" y1="41" x2="74.48" y2="41">
</line>
<line class="cls-9" x1="1.04" y1="37" x2="74.48" y2="37">
</line>
<line class="cls-9" x1="1.04" y1="33" x2="74.48" y2="33">
</line>
<line class="cls-9" x1="1.04" y1="29" x2="74.48" y2="29">
</line>
<line class="cls-9" x1="1.04" y1="25" x2="74.48" y2="25">
</line>
<line class="cls-9" x1="1.04" y1="21" x2="74.48" y2="21">
</line>
<line class="cls-9" x1="1.04" y1="17" x2="74.48" y2="17">
</line>
<line class="cls-9" x1="1.04" y1="13" x2="74.48" y2="13">
</line>
<line class="cls-9" x1="1.04" y1="9" x2="74.48" y2="9">
</line>
<line class="cls-9" x1="1.04" y1="5" x2="74.48" y2="5">
</line>
<line class="cls-9" x1="1.04" y1="1" x2="74.48" y2="1">
</line>
</g>
<g >
<line class="cls-9" x1="-73" y1="71" x2=".44" y2="71">
</line>
<line class="cls-9" x1="-73" y1="67" x2=".44" y2="67">
</line>
<line class="cls-9" x1="-73" y1="63" x2=".44" y2="63">
</line>
<line class="cls-9" x1="-73" y1="59" x2=".44" y2="59">
</line>
<line class="cls-9" x1="-73" y1="55" x2=".44" y2="55">
</line>
<line class="cls-9" x1="-73" y1="51" x2=".44" y2="51">
</line>
<line class="cls-9" x1="-73" y1="47" x2=".44" y2="47">
</line>
<line class="cls-9" x1="-73" y1="43" x2=".44" y2="43">
</line>
<line class="cls-9" x1="-73" y1="39" x2=".44" y2="39">
</line>
<line class="cls-9" x1="-73" y1="35" x2=".44" y2="35">
</line>
<line class="cls-9" x1="-73" y1="31" x2=".44" y2="31">
</line>
<line class="cls-9" x1="-73" y1="27" x2=".44" y2="27">
</line>
<line class="cls-9" x1="-73" y1="23" x2=".44" y2="23">
</line>
<line class="cls-9" x1="-73" y1="19" x2=".44" y2="19">
</line>
<line class="cls-9" x1="-73" y1="15" x2=".44" y2="15">
</line>
<line class="cls-9" x1="-73" y1="11" x2=".44" y2="11">
</line>
<line class="cls-9" x1="-73" y1="7" x2=".44" y2="7">
</line>
<line class="cls-9" x1="-73" y1="3" x2=".44" y2="3">
</line>
<line class="cls-9" x1="-70.96" y1="69" x2="2.48" y2="69">
</line>
<line class="cls-9" x1="-70.96" y1="65" x2="2.48" y2="65">
</line>
<line class="cls-9" x1="-70.96" y1="61" x2="2.48" y2="61">
</line>
<line class="cls-9" x1="-70.96" y1="57" x2="2.48" y2="57">
</line>
<line class="cls-9" x1="-70.96" y1="53" x2="2.48" y2="53">
</line>
<line class="cls-9" x1="-70.96" y1="49" x2="2.48" y2="49">
</line>
<line class="cls-9" x1="-70.96" y1="45" x2="2.48" y2="45">
</line>
<line class="cls-9" x1="-70.96" y1="41" x2="2.48" y2="41">
</line>
<line class="cls-9" x1="-70.96" y1="37" x2="2.48" y2="37">
</line>
<line class="cls-9" x1="-70.96" y1="33" x2="2.48" y2="33">
</line>
<line class="cls-9" x1="-70.96" y1="29" x2="2.48" y2="29">
</line>
<line class="cls-9" x1="-70.96" y1="25" x2="2.48" y2="25">
</line>
<line class="cls-9" x1="-70.96" y1="21" x2="2.48" y2="21">
</line>
<line class="cls-9" x1="-70.96" y1="17" x2="2.48" y2="17">
</line>
<line class="cls-9" x1="-70.96" y1="13" x2="2.48" y2="13">
</line>
<line class="cls-9" x1="-70.96" y1="9" x2="2.48" y2="9">
</line>
<line class="cls-9" x1="-70.96" y1="5" x2="2.48" y2="5">
</line>
<line class="cls-9" x1="-70.96" y1="1" x2="2.48" y2="1">
</line>
</g>
</g>
</pattern>
</defs>

  <path
     id="path7641-4"
     style="fill:#782ab5;fill-opacity:1;stroke:#4d4d4d;stroke-width:1.62226;stop-color:#000000"
     d="M 34.900259,1.6936052 C 14.323312,9.5265586 1.6299002,23.954051 1.5689773,39.580572 V 79.197446 H 67.963672 V 39.580572 C 67.958188,23.990066 55.374427,9.5708664 34.900259,1.6936052 Z"/>
  <path
     id="path7641-7"
     style="fill:#808080;stroke:#4d4d4d;stroke-width:1.48325;stop-color:#000000"
     d="M 34.629293,5.0425238 C 15.815619,12.204258 4.1542243,25.395327 4.1542243,39.682894 V 76.559207 H 64.859448 V 39.682894 c 0,-14.254531 -11.510452,-27.438125 -30.230155,-34.6403702 z m -0.01233,3.4358455 C 51.537073,14.988239 61.941622,26.904418 61.941622,39.788613 v 33.82806 H 7.07205 v -33.82806 c 0,-12.914055 10.539857,-24.836991 27.544909,-31.3102437 z"/>
  <path
     id="path7641-7-8"
     style="fill:#808080;stroke:#4d4d4d;stroke-width:1.35027;stop-color:#000000"
     d="M 34.618314,8.2461803 C 17.491429,14.76581 6.8755673,26.7742 6.8755673,39.780777 v 33.57007 H 62.138105 v -33.57007 c 0,-12.976504 -10.478452,-24.978088 -27.519791,-31.5345967 z m -0.01123,3.1277957 c 15.403093,5.926211 24.874795,16.774013 24.874795,28.503041 V 70.672134 H 9.5317874 V 39.877017 c 0,-11.75621 9.5948786,-22.610165 25.0752986,-28.503041 z"/>
  <path
     id="path7641-7-8-0"
     style="fill:#808080;stroke:#4d4d4d;stroke-width:1.21411;stop-color:#000000"
     d="M 34.607073,11.526302 C 19.207238,17.388502 9.6618637,28.185984 9.6618637,39.880997 V 70.06591 H 59.351809 V 39.880997 c 0,-11.667973 -9.421821,-22.459335 -24.744736,-28.354695 z m -0.0101,2.812393 c 13.849868,5.328621 22.366458,15.082547 22.366458,25.628837 V 67.657315 H 12.050234 V 39.967532 c 0,-10.570731 8.627346,-20.33019 22.546743,-25.628837 z"/>


<g id="Capa_9">
<g >
<g >
<path class="cls-1" d="M60.89,65.7l-.77,8.35-26.75,2.81-24.28-4.43-.26-6.9,12.53-5.11s-2.22-5.63,2.3-6.56c-1.96-2.22-2.56-4.01-2.56-4.01,0,0-5.36-7.15-.76-8.6-.12-1.02-.21-1.6-.28-1.93h0c-.11-.57-.15-.37-.15-.37,0,0-1.45-.43-2.04-2.99-2.13-6.21-3.5-12.6-2.99-14.56,.52-1.96,4.43-11.25,15.6-11.42,3.32-.17,4.6,1.11,4.6,1.11,0,0,.76-1.71,4.09-1.28,3.32,.42,11.24,1.53,14.48,7.84,2.98,6.13-.12,14.44-.77,16.53-.48,1.54-.99,3.18-1.68,4.13-.24,.34-.5,.59-.79,.72l-.34,2.13s1.33-.07,1.53,1.11c.21,1.18,.35,6.73-4.34,9.12-.34,2.81-.34,3.4-.34,3.4,0,0,1.7,.86,1.62,2.3-.09,1.45,.25,3.58,.25,3.58l12.1,5.03Z">
</path>
<path class="cls-2" d="M35.24,58.76v-25.41c0-2.52,2.13-4.51,4.65-4.37,1.47,.08,2.92,.25,3.7,.58,2,.83,5.97,4.39,6.55,6.97s-.71,6.71-.71,6.71c0,0-2.25,6.76-2.59,9.43s-1,4.42-2.75,5.92c-.88,.75-2.4,1.96-4.05,2.94-2.12,1.26-4.8-.32-4.8-2.78Z">
</path>
<path class="cls-10" d="M52.88,34.18c-.48,1.54-.99,3.18-1.68,4.13l-.61,.41s-.19-4.44-1.48-6.62c-1.48-2-7.46-2.9-13.87-3.29-6.42-.39-10.71,.91-13.41,2.71-2.7,1.8-1.61,7.72-1.61,7.72-.05,.03-.1,.05-.16,.07-.11-.56-.15-.36-.15-.36,0,0-1.45-.43-2.04-2.99-2.13-6.21-3.5-12.6-2.99-14.56,.52-1.96,4.43-11.25,15.6-11.42,3.32-.17,4.6,1.11,4.6,1.11,0,0,.76-1.71,4.09-1.28,3.32,.42,11.24,1.53,14.48,7.84,2.98,6.13-.12,14.44-.77,16.53Z">
</path>
<polygon class="cls-16" points="35.18 22.63 32.81 23.29 33.26 20.56 31.78 19.15 33.99 18.71 35.1 17.16 36.29 18.86 38.8 19.45 36.95 21 37.1 23.44 35.18 22.63">
</polygon>
<path class="cls-3" d="M31.24,42.06s-1-2.11-2.9-2.32c-2.38,.16-3.96,2.17-3.96,2.17,0,0,4.44,4.38,6.87,.16Z">
</path>
<path class="cls-3" d="M39.06,42.06s1-2.11,2.9-2.32c2.38,.16,3.96,2.17,3.96,2.17,0,0-4.44,4.38-6.87,.16Z">
</path>
<path class="cls-4" d="M21.87,39.13l2.04,2.9s2.39-2.39,4.09-2.27c1.87,.17,3.23,2.31,3.23,2.31,0,0,1.31-3.45,1.37-3.96-3.98-1.08-5.06-.97-5.06-.97,0,0-3.46-.51-5.68,1.99Z">
</path>
<path class="cls-4" d="M48.48,39.13l-2.04,2.9s-2.39-2.39-4.09-2.27c-1.87,.17-3.23,2.31-3.23,2.31,0,0-1.31-3.45-1.37-3.96,3.98-1.08,5.06-.97,5.06-.97,0,0,3.46-.51,5.68,1.99Z">
</path>
<path class="cls-10" d="M23.77,54.83s-2.39,.72-2.23,2.63,.08,2.87,.08,2.87c0,0-8.93,4.79-13.08,5.26,.56,5.74,2.07,7.74,2.07,7.74l27.6,4.39,21.7-4.87,.32-7.58-11.65-4.87s.4-3.59-.32-4.31-1.44-1.04-1.44-1.04l-2.07,3.43,.08,1.2s-2.31,3.75-8.14,5.9c-.8,1.6-1.68,2.71-1.68,2.71l-1.36-2.31s-6.62-3.11-8.22-6.38c-.08-1.04,.08-1.52,.08-1.52,0,0-1.75-2.55-1.75-3.27Z">
</path>
<path class="cls-1" d="M36.38,30.08c4.09,0,9.61,.61,11.73,2.33,1.24,1.15,1.31,5.33,.18,10.2-.32,1.41-.73,2.64-1.13,3.82-.62,1.86-1.21,3.63-1.45,5.92-.31,2.97-1.45,6.07-7.58,8.66-.7,.29-1.67,.55-2.9,.78-1.22-.23-2.2-.5-2.89-.78-6.15-2.6-7.28-5.7-7.59-8.66-.24-2.3-.83-4.07-1.46-5.93-.4-1.19-.81-2.41-1.13-3.82-1.14-4.95-1.06-9.04,.18-10.19,2.13-1.72,7.64-2.33,11.73-2.33h.25s1.83,0,1.83,0h.23m0-1.3c-.16,0-.25,0-.25,0h-1.81s-.09,0-.25,0c-1.52,0-9.51,.12-12.58,2.64-2.19,1.96-1.43,7.85-.6,11.47,.83,3.63,2.19,5.97,2.56,9.59,.38,3.62,1.97,7.02,8.38,9.73,.94,.38,2.14,.67,3.4,.9,1.26-.23,2.46-.52,3.39-.9,6.42-2.71,8-6.11,8.38-9.73,.38-3.62,1.73-5.96,2.56-9.59,.84-3.62,1.59-9.51-.6-11.47-3.06-2.52-11.05-2.64-12.58-2.64h0Z">
</path>
<path d="M42.69,60.06l-7.87,7.69s-1.53-1.16-6.18,7.32c-7.94,.91-18.33-2.93-18.33-2.93l-1.49-6.6s10.75-2.96,12.53-5.11c-.52-3.69,1.92-5.36,2.75-5.57,.56,3.34,3.28,5.23,4.39,5.64s6.73,2.61,6.73,2.61c0,0,1.98-.22,7.46-3.05Z">
</path>
<path d="M35.22,12.32s0-1.83-1.83-2.38-7.55,.4-11.45,2.23-6.2,6.76-7,10.02,1.27,7.87,1.67,9.78,1.18,5.96,3.29,6.99c-.03-3.73,.6-6.99,1.48-7.79-2.62-5.96-1.59-11.21-.87-13.12s4.29-4.85,8.51-5.41,6.2-.32,6.2-.32Z">
</path>
<path class="cls-2" d="M29.82,44.88c-.98,.36-2.55,.75-4.08,.35-.5-.13-.9,.41-.61,.83,1.79,2.56,4.3,2.5,5.38-.47,.16-.44-.25-.87-.69-.7Z">
</path>
<path class="cls-13" d="M48.21,56.55s-.43,3.73-3.26,6.55c-1.88,1.88-4.08,3.44-5.33,4.27-.48,.32-.53,1.01-.09,1.39,1.24,1.07,3.37,3.23,4.12,5.93,4.92-.24,15.91-2.82,15.91-2.82l.67-6.58-11.65-4.87-.37-3.87Z">
</path>
<path class="cls-13" d="M28.72,12.94s15.23-1.14,18.57,5.7c1.79,4.48-1.3,11.73-1.3,11.73,0,0,3.67,1.38,4.07,4.07s.73,4.64,.73,4.64c0,0,1.06-1.47,1.63-4.15,2.36-6.11,3.83-10.51,2.61-14.01s-5.62-8.71-9.61-9.77-9.61-2.77-10.34,.81c-4.07-.08-6.35,.98-6.35,.98Z">
</path>
<path d="M20.59,41.03s-1.35-.23-1.99,1.46,.18,3.87,.94,5.16,2.34,2.99,3.52,2.99c-.76-3.22-2.52-7.68-2.46-9.61Z">
</path>
<path class="cls-4" d="M30.41,53.79s.78,1.79,2.56,1.97c2.39-.04,4.49,.05,4.49,.05,0,0,1.88-.5,2.01-2.11-3.39-.96-9.07,.09-9.07,.09Z">
</path>
<path d="M48.82,49.87s-.45,1.09,2.18,3.47,3.13,5.21,1.98,6.85c-.2-1.59-1.24-2.28-1.24-2.28,0,0,.5,2.93-.2,3.82-2.23-1.34-3.27-1.89-3.27-1.89,0,0,.79-2.88-.05-3.67s-1.54-1.29-1.54-1.29l.35-3.72,1.79-1.29Z">
</path>
<path class="cls-6" d="M20.59,41.24s-1.89-.49-2.05,2.21,2.46,7.22,4.67,7.63">
</path>
<path class="cls-6" d="M47.13,51.08c2.21-.41,4.84-4.92,4.67-7.63s-2.05-2.21-2.05-2.21">
</path>
<path class="cls-6" d="M36.13,28.78s9.44-.15,12.83,2.64c2.19,1.96,1.44,7.85,.6,11.47-.83,3.63-2.18,5.97-2.56,9.59s-1.96,7.02-8.38,9.73c-.93,.38-2.13,.67-3.39,.9-1.26-.23-2.46-.52-3.4-.9-6.41-2.71-8-6.11-8.38-9.73-.37-3.62-1.73-5.96-2.56-9.59-.83-3.62-1.59-9.51,.6-11.47,3.4-2.79,12.83-2.64,12.83-2.64h1.81Z">
</path>
<path d="M32.77,38.05s-1.24,.69-3.37,.15-3.87-.5-4.91-.25-1.98,1.19-2.58,1.09c1.54-1.64,2.58-2.28,3.62-2.33s4.81-.2,5.46,.05,1.79,1.29,1.79,1.29Z">
</path>
<path d="M31.11,41.73c-2.07-2.36-4.46-1.72-6.37,.4,0,0,.05-.57,.05-.57,1.19,2.08,3.35,2.73,5.56,1.62-.43,.41-.96,.71-1.53,.94-2.03,.85-4.09-.59-5.07-2.34,2.04-2.61,5.72-3.54,7.37-.04h0Z">
</path>
<path d="M32.99,39.86c.45,.62,.96,1.43,.83,2.24-.17,1.28-.4,2.58-.83,3.81-.03-1.05,.08-2.08,.23-3.1l.13-.76c.17-.75-.19-1.44-.36-2.18h0Z">
</path>
<path d="M37.67,38.05s1.24,.69,3.37,.15,3.87-.5,4.91-.25,1.98,1.19,2.58,1.09c-1.54-1.64-2.58-2.28-3.62-2.33s-4.81-.2-5.46,.05-1.79,1.29-1.79,1.29Z">
</path>
<path d="M39.33,41.73c1.65-3.5,5.32-2.57,7.37,.04-.98,1.75-3.04,3.2-5.07,2.34-.57-.22-1.1-.52-1.53-.94,2.21,1.11,4.37,.46,5.56-1.62,0,0,.05,.57,.05,.57-1.91-2.12-4.31-2.76-6.37-.4h0Z">
</path>
<path d="M37.45,39.86c-.18,.75-.53,1.43-.36,2.18,0,0,.13,.76,.13,.76,.15,1.02,.26,2.04,.23,3.1-.43-1.23-.66-2.53-.83-3.81-.12-.81,.38-1.62,.83-2.24h0Z">
</path>
<path d="M37.55,47.69c.48,.42,.54,1.11-.11,1.48-.73,.56-1.53,1.04-2.33,1.5-.91-.56-2.06-1.11-2.76-1.91-.19-.5,.08-.84,.31-1.07-.1,.6-.07,.81,.48,.94,.76,.29,1.51,.65,2.22,1.03,0,0-.49,0-.49,0,.8-.45,1.74-.86,2.59-1.18,.16-.09,.17-.48,.1-.8h0Z">
</path>
<path d="M35.36,53.58c1.33,0,2.78,.28,4.68,.41s1.64-.44,1.64-.44c0,0-.79,.19-1.8-.41s-2.75-1.23-4.55-1.23h-.25c-1.8,0-3.54,.63-4.55,1.23s-1.8,.41-1.8,.41c0,0-.25,.57,1.64,.44s3.35-.41,4.68-.41h.32Z">
</path>
<path d="M38.93,54.94c-.64,1.4-2.54,1.23-3.83,1.29-1.29-.05-3.19,.11-3.83-1.29,1.24,.75,2.5,.21,3.83,.29,1.33-.08,2.59,.47,3.83-.29h0Z">
</path>
<path d="M20.91,42.21s.4-2.96,.28-4.62,3.7-7.81,11.57-8.66c-5.81-1.14-10.94,1.88-11.97,3.36s-.74,7.3,.11,9.92Z">
</path>
<path d="M49.52,42.21s-.4-2.96-.28-4.62-3.7-7.81-11.57-8.66c5.81-1.14,10.94,1.88,11.97,3.36s.74,7.3-.11,9.92Z">
</path>
<path d="M20.63,49.54s-.44,.75-1.99,2.55-2.24,3.79,.12,4.6c-.75,1.99-2.8,1.62-3.61,1.06,.99,2.36,3.54,1.8,4.79,1.31-.25,1.74,.44,2.05,.44,2.05l1.74-1.12s-.19-1.62-.12-2.8,1.31-2.11,1.86-1.93c-.44-1.99-.31-3.73-.31-3.73l-2.92-1.99Z">
</path>
<path d="M23.88,55.34c-1.06,.34-1.76,1.32-1.62,2.41,0,0,.05,.77,.05,.77,.21,2.02,.2,4.31-.19,6.28,.21,4.46,3.25,8.49,6.42,11.48,0,0-.88,.28-.88,.28,1.02-3.21,2.7-6.57,5.68-8.31-2.2,2.72-4.07,6.01-4.84,9.42-4.02-3.49-8.48-8.84-7.35-14.53,.19-1.43,.1-3.09,.03-4.56-.12-1.15-.05-2.49,.88-3.33,.46-.44,.96-.72,1.58-.9l.24,.97h0Z">
</path>
<path class="cls-6" d="M21.84,60.06s-7.86,4.25-13.5,5.76">
</path>
<path d="M46.56,54.37c1.55,.38,2.65,1.86,2.5,3.45-.01,.48-.09,1.83-.11,2.33-.25,2.13,.61,4.17,.2,6.29-.98,4.58-3.98,8.31-7.45,11.26-.77-3.41-2.64-6.71-4.84-9.42,2.98,1.73,4.66,5.09,5.68,8.31,0,0-.88-.28-.88-.28,2.93-2.68,5.43-6.2,6.3-10.08,.25-1.04,.05-1.82-.1-2.9-.21-1.56-.08-3.23,.03-4.78,.02-.37,.11-1.07,.03-1.42-.09-.82-.8-1.5-1.6-1.76l.24-.97h0Z">
</path>
<path class="cls-6" d="M48.35,60.06s7.86,4.25,13.5,5.76">
</path>
<path class="cls-6" d="M35.32,75.01s.76-8.36-2.48-9.57c-6.33-2.74-7.55-5.98-7.55-5.98v-1.87">
</path>
<path class="cls-6" d="M35.11,69.16c.33-1.71,.99-3.25,2.24-3.72,6.33-2.74,7.55-5.98,7.55-5.98v-1.54">
</path>
<path class="cls-5" d="M50.1,39.23s1.82-.91,2.13-2.96,3.57-9.96,2.96-13.83c-.61-3.88-3.27-9.5-10.72-11.55s-9.04-.91-9.35,.3h-.15c-.3-1.22-1.9-2.36-9.35-.3s-10.11,7.68-10.72,11.55,2.66,11.78,2.96,13.83,2.13,2.96,2.13,2.96">
</path>
<path class="cls-5" d="M48.77,31.42s2.34-5.6,1.76-10.52-3.51-8.7-15.06-8.7h-.69c-11.56,0-14.49,3.77-15.06,8.7s1.76,10.52,1.76,10.52">
</path>
<polygon class="cls-5" points="35.12 16.53 36.26 18.83 38.8 19.2 36.96 20.99 37.4 23.53 35.12 22.33 32.85 23.53 33.28 20.99 31.44 19.2 33.98 18.83 35.12 16.53">
</polygon>
</g>
<path class="cls-12" d="M23.48,57.38c-1.95,.96-1.42,3.51-2.03,5.28-.18,.68-.41,1.35-.8,1.97,.05-2.14-.33-7.42,2.83-7.24h0Z">
</path>
<path class="cls-12" d="M19.88,61.69c-1.82,2.03-4.29,3.25-6.89,3.92-.87,.21-1.77,.34-2.71,.27l-.03-.1c3.29-1.01,6.6-2.9,9.63-4.1h0Z">
</path>
<path class="cls-12" d="M21.9,13.06c-3.82,2.91-6.3,7.64-5.46,12.5,.16,1.35,.52,2.64,.98,3.97,.82,2.4,.98,4.93,1.38,7.39,.09,.32,.2,.65,.49,.84l-.04,.09c-.69-.35-.8-1.2-.99-1.86,0,0-.46-2.08-.46-2.08-.54-2.81-1.91-5.37-2.32-8.2-.95-4.92,2.01-10.66,6.42-12.64h0Z">
</path>
</g>
</g>
  <g
     id="g20645">
    <path
       style="fill:#808080;stroke:#4d4d4d;stroke-width:0.937908;stop-color:#000000;fill-opacity:1"
       d="m 9.541565,65.883425 a 5.4759801,5.4759801 0 0 1 5.47598,5.475981 5.4759801,5.4759801 0 0 1 -5.47598,5.47598 5.4759801,5.4759801 0 0 1 -5.4759806,-5.47598 5.4759801,5.4759801 0 0 1 5.4759806,-5.475981 z"/>
    <path
       style="fill:#808080;stroke:#4d4d4d;stroke-width:0.937908;stop-color:#000000;fill-opacity:1"
       d="m 59.472108,65.883425 a 5.4759801,5.4759801 0 0 1 5.47598,5.475981 5.4759801,5.4759801 0 0 1 -5.47598,5.47598 5.4759801,5.4759801 0 0 1 -5.475981,-5.47598 5.4759801,5.4759801 0 0 1 5.475981,-5.475981 z"/>
    <path
       id="path7641"
       style="fill:#808080;stroke:#4d4d4d;stroke-width:1.64416;stop-color:#000000"
       d="M 34.642578,1.1660156 C 13.787845,9.1047124 0.86132813,23.726855 0.86132812,39.564453 V 79.340489 H 68.152344 V 39.564453 c 0,-15.800978 -12.759199,-30.4148342 -33.509766,-38.3984374 z m -0.01367,3.8085938 C 53.384648,12.190722 64.917969,25.399665 64.917969,39.681641 v 26.507812 c -1.368656,-1.44106 -3.300993,-2.341797 -5.445313,-2.341797 -4.14856,0 -7.511718,3.363159 -7.511718,7.511719 0,2.347008 1.075662,4.442843 2.761718,5.820313 H 14.269531 c 1.756069,-1.422629 2.778281,-3.560307 2.783203,-5.820313 4.8e-5,-4.148627 -3.363091,-7.511766 -7.5117184,-7.511719 -2.0622939,0.0062 -4.0313164,0.860092 -5.4453125,2.361328 V 39.681641 c 0,-14.315076 11.6833059,-27.531508 30.5332029,-34.7070316 z"/>
    <circle
       style="fill:#4d4d4d;fill-opacity:1;stroke:#4d4d4d;stop-color:#000000"
       id="path16431"
       cx="9.6010828"
       cy="71.229652"
       r="5.06003" />
    <circle
       style="fill:#4d4d4d;fill-opacity:1;stroke:#4d4d4d;stop-color:#000000"
       id="path16431-3"
       cx="59.42292"
       cy="71.229652"
       r="5.06003" />
  </g>
</svg>
