<?xml version="1.0" encoding="UTF-8"?><svg id="Capa_2" xmlns="http://www.w3.org/2000/svg" xmlns:xlink="http://www.w3.org/1999/xlink" viewBox="0 0 69.02 80"><defs><style>.cls-1{fill:#c89aed;}.cls-2{fill:#fff;}.cls-3{fill:#f8ffbf;}.cls-4{fill:#7b7be8;}.cls-5,.cls-6{stroke:#000;}.cls-5,.cls-6,.cls-7,.cls-8,.cls-9{fill:none;}.cls-5,.cls-7{stroke-linejoin:round;}.cls-10{fill:#a88347;}.cls-11{fill:#782ab5;}.cls-6{stroke-miterlimit:10;}.cls-12{fill:#1c46ff;}.cls-7{stroke:#deb778;stroke-dasharray:0 0 0 4.06;stroke-linecap:round;}.cls-13{fill:#deb778;}.cls-14{fill:url(#USGS_19_Inundación_de_tierra_2);}.cls-9{stroke:#1d1d1b;stroke-dasharray:0 0 2 2;stroke-width:.3px;}.cls-15{fill:#cf5f2b;}.cls-16{fill:#fcf0c5;}.cls-17{fill:#b83521;}</style><pattern id="USGS_19_Inundación_de_tierra_2" x="0" y="0" width="72" height="72" patternTransform="translate(-164.48 -16351) rotate(-90)" patternUnits="userSpaceOnUse" viewBox="0 0 72 72"><g><rect class="cls-8" width="72" height="72"/><g><line class="cls-9" x1="71" y1="71" x2="144.44" y2="71"/><line class="cls-9" x1="71" y1="67" x2="144.44" y2="67"/><line class="cls-9" x1="71" y1="63" x2="144.44" y2="63"/><line class="cls-9" x1="71" y1="59" x2="144.44" y2="59"/><line class="cls-9" x1="71" y1="55" x2="144.44" y2="55"/><line class="cls-9" x1="71" y1="51" x2="144.44" y2="51"/><line class="cls-9" x1="71" y1="47" x2="144.44" y2="47"/><line class="cls-9" x1="71" y1="43" x2="144.44" y2="43"/><line class="cls-9" x1="71" y1="39" x2="144.44" y2="39"/><line class="cls-9" x1="71" y1="35" x2="144.44" y2="35"/><line class="cls-9" x1="71" y1="31" x2="144.44" y2="31"/><line class="cls-9" x1="71" y1="27" x2="144.44" y2="27"/><line class="cls-9" x1="71" y1="23" x2="144.44" y2="23"/><line class="cls-9" x1="71" y1="19" x2="144.44" y2="19"/><line class="cls-9" x1="71" y1="15" x2="144.44" y2="15"/><line class="cls-9" x1="71" y1="11" x2="144.44" y2="11"/><line class="cls-9" x1="71" y1="7" x2="144.44" y2="7"/><line class="cls-9" x1="71" y1="3" x2="144.44" y2="3"/></g><g><line class="cls-9" x1="-1" y1="71" x2="72.44" y2="71"/><line class="cls-9" x1="-1" y1="67" x2="72.44" y2="67"/><line class="cls-9" x1="-1" y1="63" x2="72.44" y2="63"/><line class="cls-9" x1="-1" y1="59" x2="72.44" y2="59"/><line class="cls-9" x1="-1" y1="55" x2="72.44" y2="55"/><line class="cls-9" x1="-1" y1="51" x2="72.44" y2="51"/><line class="cls-9" x1="-1" y1="47" x2="72.44" y2="47"/><line class="cls-9" x1="-1" y1="43" x2="72.44" y2="43"/><line class="cls-9" x1="-1" y1="39" x2="72.44" y2="39"/><line class="cls-9" x1="-1" y1="35" x2="72.44" y2="35"/><line class="cls-9" x1="-1" y1="31" x2="72.44" y2="31"/><line class="cls-9" x1="-1" y1="27" x2="72.44" y2="27"/><line class="cls-9" x1="-1" y1="23" x2="72.44" y2="23"/><line class="cls-9" x1="-1" y1="19" x2="72.44" y2="19"/><line class="cls-9" x1="-1" y1="15" x2="72.44" y2="15"/><line class="cls-9" x1="-1" y1="11" x2="72.44" y2="11"/><line class="cls-9" x1="-1" y1="7" x2="72.44" y2="7"/><line class="cls-9" x1="-1" y1="3" x2="72.44" y2="3"/><line class="cls-9" x1="1.04" y1="69" x2="74.48" y2="69"/><line class="cls-9" x1="1.04" y1="65" x2="74.48" y2="65"/><line class="cls-9" x1="1.04" y1="61" x2="74.48" y2="61"/><line class="cls-9" x1="1.04" y1="57" x2="74.48" y2="57"/><line class="cls-9" x1="1.04" y1="53" x2="74.48" y2="53"/><line class="cls-9" x1="1.04" y1="49" x2="74.48" y2="49"/><line class="cls-9" x1="1.04" y1="45" x2="74.48" y2="45"/><line class="cls-9" x1="1.04" y1="41" x2="74.48" y2="41"/><line class="cls-9" x1="1.04" y1="37" x2="74.48" y2="37"/><line class="cls-9" x1="1.04" y1="33" x2="74.48" y2="33"/><line class="cls-9" x1="1.04" y1="29" x2="74.48" y2="29"/><line class="cls-9" x1="1.04" y1="25" x2="74.48" y2="25"/><line class="cls-9" x1="1.04" y1="21" x2="74.48" y2="21"/><line class="cls-9" x1="1.04" y1="17" x2="74.48" y2="17"/><line class="cls-9" x1="1.04" y1="13" x2="74.48" y2="13"/><line class="cls-9" x1="1.04" y1="9" x2="74.48" y2="9"/><line class="cls-9" x1="1.04" y1="5" x2="74.48" y2="5"/><line class="cls-9" x1="1.04" y1="1" x2="74.48" y2="1"/></g><g><line class="cls-9" x1="-73" y1="71" x2=".44" y2="71"/><line class="cls-9" x1="-73" y1="67" x2=".44" y2="67"/><line class="cls-9" x1="-73" y1="63" x2=".44" y2="63"/><line class="cls-9" x1="-73" y1="59" x2=".44" y2="59"/><line class="cls-9" x1="-73" y1="55" x2=".44" y2="55"/><line class="cls-9" x1="-73" y1="51" x2=".44" y2="51"/><line class="cls-9" x1="-73" y1="47" x2=".44" y2="47"/><line class="cls-9" x1="-73" y1="43" x2=".44" y2="43"/><line class="cls-9" x1="-73" y1="39" x2=".44" y2="39"/><line class="cls-9" x1="-73" y1="35" x2=".44" y2="35"/><line class="cls-9" x1="-73" y1="31" x2=".44" y2="31"/><line class="cls-9" x1="-73" y1="27" x2=".44" y2="27"/><line class="cls-9" x1="-73" y1="23" x2=".44" y2="23"/><line class="cls-9" x1="-73" y1="19" x2=".44" y2="19"/><line class="cls-9" x1="-73" y1="15" x2=".44" y2="15"/><line class="cls-9" x1="-73" y1="11" x2=".44" y2="11"/><line class="cls-9" x1="-73" y1="7" x2=".44" y2="7"/><line class="cls-9" x1="-73" y1="3" x2=".44" y2="3"/><line class="cls-9" x1="-70.96" y1="69" x2="2.48" y2="69"/><line class="cls-9" x1="-70.96" y1="65" x2="2.48" y2="65"/><line class="cls-9" x1="-70.96" y1="61" x2="2.48" y2="61"/><line class="cls-9" x1="-70.96" y1="57" x2="2.48" y2="57"/><line class="cls-9" x1="-70.96" y1="53" x2="2.48" y2="53"/><line class="cls-9" x1="-70.96" y1="49" x2="2.48" y2="49"/><line class="cls-9" x1="-70.96" y1="45" x2="2.48" y2="45"/><line class="cls-9" x1="-70.96" y1="41" x2="2.48" y2="41"/><line class="cls-9" x1="-70.96" y1="37" x2="2.48" y2="37"/><line class="cls-9" x1="-70.96" y1="33" x2="2.48" y2="33"/><line class="cls-9" x1="-70.96" y1="29" x2="2.48" y2="29"/><line class="cls-9" x1="-70.96" y1="25" x2="2.48" y2="25"/><line class="cls-9" x1="-70.96" y1="21" x2="2.48" y2="21"/><line class="cls-9" x1="-70.96" y1="17" x2="2.48" y2="17"/><line class="cls-9" x1="-70.96" y1="13" x2="2.48" y2="13"/><line class="cls-9" x1="-70.96" y1="9" x2="2.48" y2="9"/><line class="cls-9" x1="-70.96" y1="5" x2="2.48" y2="5"/><line class="cls-9" x1="-70.96" y1="1" x2="2.48" y2="1"/></g></g></pattern></defs><g id="BG"><g><path class="cls-11" d="M64.02,40c0,11.47-1.89,22.39-5.5,31.74-7.2,2.16-14.94,3.26-23.02,3.26-.49,0-.98-.01-1.47-.02h-.17c-8.18-.15-16.29-1.47-23.6-3.85-3.45-9.22-5.26-19.93-5.26-31.13s1.89-22.38,5.48-31.73c6.73-2.01,14.13-3.13,21.6-3.26,.48-.01,.97-.01,1.45-.01,.54,0,1.08,.01,1.63,.02,8.16,.15,16.27,1.47,23.59,3.84,3.46,9.24,5.27,19.95,5.27,31.14Z"/><path class="cls-14" d="M34.03,5.59V74.98h-.17c-8.18-.15-16.29-1.47-23.6-3.85-3.45-9.22-5.26-19.93-5.26-31.13s1.89-22.38,5.48-31.73c6.73-2.01,14.13-3.13,21.6-3.26,.65,.16,1.3,.36,1.95,.58Z"/></g></g><g id="Capa_9"><g><g><path class="cls-1" d="M62.96,65.35l-2.5,8.98s-27.38,4.54-27.26,4.2l-24.2-6.13-1.25-7.61,15.79-3.98,.34-4.54-1.02-1.14-1.71-7.04s-3.52,.45-4.43-8.18c0-4.32,1.82-3.75,1.82-3.75l-.04-.13-.04-.1-3.67-10.68s4.21-2.84,5.57-3.4c2.16-7.16,6.47-11.02,15.22-11.14,8.75-.11,13.18,3.86,15.22,10.68,4.43,2.5,5.46,3.98,5.46,3.98l-2.52,7.71-.39,1.2-.5,1.54s2.04,.79,1.82,3.07c-.23,2.27-2.16,9.08-4.66,9.88-.91,4.54-1.82,6.25-1.82,6.25l-.79,.9v5.23l.13,.03,15.43,4.17Z"/><path class="cls-1" d="M54.67,38.89c-.23,2.27-2.16,9.08-4.66,9.88-.91,4.54-1.82,6.25-1.82,6.25l-.79,.9v5.23l.13,.03c-2.75,5.02-9.77,6.61-9.77,6.61l-2.08,5.68s-.94-1.99-2.74-5.58c-5.89-1.23-8.74-5.87-9.4-7.08l.34-4.54-1.02-1.14-1.71-7.04s-3.52,.45-4.43-8.18c0-4.32,1.82-3.75,1.82-3.75l-.04-.13-.04-.1c.75,.09,1.34,.75,1.34,.75v-3.99s5.49-4.6,15.55-5.15,15.55,4.82,15.55,4.82c0,0,.29,1.87,.29,2.16s1.79-.67,1.79-.67l.37,.43-.5,1.54s2.04,.79,1.82,3.07Z"/><path class="cls-2" d="M35.35,63.11V27.22s12.4,.17,15.95,5.63c-.43,11.01-2.25,20.98-3.12,22.63-3.9,3.47-5.98,5.2-5.98,5.2,0,0-1.99,2.34-2.95,2.95-2.6,.35-3.9-.52-3.9-.52Z"/><path class="cls-4" d="M32,43.46l1.68-5.51-7.75-.27-3.68,1.74s2.27,4.81,3.94,5.55,5.19-.75,5.8-1.51Z"/><path class="cls-4" d="M39.2,43.46l-1.68-5.51,7.75-.27,3.68,1.74s-2.27,4.81-3.94,5.55-5.19-.75-5.8-1.51Z"/><path d="M56.26,25.37l-2.52,7.71-1.35,2.69-1.33,1-.16-4.41s-4.66-4.57-15.55-4.82c-10.81-.25-15.55,5.15-15.55,5.15v3.99l-1.3-.65-3.71-10.78s4.21-2.84,5.57-3.4c2.16-7.16,6.47-11.02,15.22-11.14,8.75-.11,13.18,3.86,15.22,10.68,4.43,2.5,5.46,3.98,5.46,3.98Z"/><path class="cls-3" d="M32,43.46l-.36-2.72s-3.81-.3-4.35-.18c-1.03,.3-1.93,1.51-2.18,1.87,2.18,1.03,5.68,1.21,6.89,1.03Z"/><path class="cls-3" d="M39.03,43.46l.36-2.72s3.81-.3,4.35-.18c1.03,.3,1.93,1.51,2.18,1.87-2.18,1.03-5.68,1.21-6.89,1.03Z"/><path d="M20.18,37.29s-1.67-1.87-2.87-.87-.6,4.14-.27,6.02,2.21,5.55,3.88,5.68c-.87-4.95-.74-10.83-.74-10.83Z"/><path d="M40.32,63.43l-15.08,13.16-15.95-4.07-.56-7.98,14.81-3.74,.34-4.54s3.99,3.01,4.87,4.21,2.39,2.71,2.39,2.71l9.17,.24Z"/><path class="cls-1" d="M35.29,29.46c8.8,0,12.86,2.89,14.04,3.93,.02,1.81-.02,6.09-.6,10.77,0,0,0,0,0,0-.1-.02-.2-.04-.3-.04-.57,0-1.09,.38-1.25,.96-.49,1.78-2,3.09-3.51,4.27-.25,.2-.42,.47-.47,.79-.13,.68-.24,1.38-.35,2.1-.41,2.61-.83,5.31-2.06,7.34-.1,.11-.17,.23-.22,.34-.45,.67-.99,1.22-1.64,1.68-1.13-.01-2.25-.02-3.38-.02s-2.25,0-3.38,.02c-2.74-1.92-3.34-5.7-3.91-9.37-.11-.73-.23-1.44-.35-2.13-.06-.32-.23-.6-.49-.8-1.52-1.16-3-2.47-3.5-4.25-.16-.57-.68-.95-1.25-.95-.1,0-.2,.01-.31,.04,0,0-.01,0-.02,0-.6-4.86-.62-9.26-.61-10.83,1.01-1.01,4.65-3.87,13.57-3.87m-12.06,20.06c.48,.61,1.04,1.17,1.67,1.69,.02,.21,.05,.42,.07,.63,.11,1.01,.22,2.03,.37,3.05-.23-.21-.48-.42-.72-.63-.57-1.47-1.02-3.09-1.39-4.74m24.58,.04c-.37,1.64-.82,3.24-1.39,4.7-.24,.2-.47,.41-.69,.61,.15-1.01,.26-2.01,.36-3.01,.02-.22,.05-.43,.07-.65,.62-.51,1.17-1.06,1.64-1.65m-12.52-21.4c-10.62,0-14.29,3.95-14.86,4.66-.03,1.54-.19,13.98,3.1,22.22,1.58,1.36,3,2.69,4.04,3.7-.92-2.63-1.12-5.49-1.43-8.21-1.7-1.27-3.06-3.06-3.48-5.11,.6,2.14,2.29,3.66,3.96,4.93,.81,4.38,1.01,10,5.16,12.56,1.26-.01,2.51-.02,3.76-.02s2.5,0,3.76,.02c1.04-.65,1.84-1.48,2.45-2.44h-.01s.02-.04,.06-.07c1.79-2.86,2.06-6.78,2.66-10.03,1.64-1.29,3.37-2.8,3.96-4.95-.42,2.05-1.78,3.84-3.48,5.11-.31,2.7-.51,5.55-1.42,8.17,1.04-1,2.44-2.32,4-3.66,3.28-8.21,3.13-20.59,3.1-22.21-.67-.72-4.79-4.67-15.33-4.67h0Z"/><path class="cls-2" d="M46.03,58.41l-5.51,7.23s3.67-1.03,5.57-4.71c0-1.72-.06-2.53-.06-2.53Z"/><path class="cls-17" d="M47.55,60.9s-2.52,6.12-9.79,6.89c-1.25,3.92-2.11,5.43-2.11,5.43l-2.15-5.02-6.02,5.95s4.8,.93,11.82,1,19.92-3.22,19.92-3.22l1.72-7.31-13.4-3.73Z"/><path class="cls-15" d="M39.2,69.61s6.48-1.48,9.32-6.82c7.72,2.16,12.72,3.75,12.72,3.75l-3.07,7.27-21.36,.91,2.39-5.11Z"/><path class="cls-5" d="M20.06,21.86c1.08-6.37,7.57-11.26,15.41-11.26s14.42,4.97,15.43,11.4"/><path class="cls-5" d="M52.59,35.94l3.55-10.72s-5.1-6.32-20.45-6.32h-.34c-15.35,0-20.45,6.32-20.45,6.32l3.55,10.72"/><path class="cls-5" d="M28.95,60.8s-2.59-2.66-5.84-5.47c-3.62-8.94-3.18-22.69-3.18-22.69,0,0,3.35-4.98,15.35-4.98s15.83,4.98,15.83,4.98c0,0,.44,13.75-3.18,22.69-3.25,2.81-5.84,5.47-5.84,5.47"/><path class="cls-5" d="M20,37.27s-1.13-1.87-2.48-1.04-1.03,4.18-.26,6.69,2.32,5.66,3.93,5.47"/><path class="cls-5" d="M51.05,37.27s1.13-1.87,2.48-1.04,1.03,4.18,.26,6.69-2.32,5.66-3.93,5.47"/><path d="M48.42,45.42c-.43,2.1-1.84,3.92-3.58,5.19l.11-.18c-.42,3.6-.61,7.47-2.54,10.7-.71,1.09-1.69,2.26-2.97,2.73-2.6,.03-5.21,.03-7.81,0-1.27-.48-2.24-1.63-2.96-2.73-1.94-3.22-2.12-7.09-2.54-10.7,0,0,.11,.18,.11,.18-1.74-1.27-3.15-3.09-3.58-5.19,.61,2.14,2.3,3.67,3.97,4.94,.81,4.41,1,10.08,5.24,12.61,0,0-.22-.06-.22-.06,2.6-.03,5.2-.03,7.8,0l-.22,.06c4.23-2.53,4.43-8.19,5.24-12.6,1.65-1.29,3.37-2.8,3.97-4.95h0Z"/><path d="M22.33,39.31s2.6-2.95,5.4-2.75c3.05,.3,6.05,1.3,6.05,1.3,0,0-1.1,1.6-3.25,1.1s-5.5-.85-8.19,.35Z"/><path d="M48.41,39.31s-2.6-2.95-5.4-2.75c-3.05,.3-6.05,1.3-6.05,1.3,0,0,1.1,1.6,3.25,1.1s5.5-.85,8.19,.35Z"/><path d="M37.91,47.22c.94,.56,1.34,1.76,1.41,2.81,0,.16-.1,.31-.25,.34-1.15,.31-2.28,.97-3.17,1.76-.19,.18-.48,.17-.67,0-.88-.77-1.99-1.43-3.13-1.74-.18-.03-.32-.18-.3-.36,.07-1.05,.48-2.25,1.41-2.81-.63,.81-.75,1.83-.69,2.81,0,0-.3-.36-.3-.36,1.39,.17,2.61,.82,3.67,1.72,0,0-.67,0-.67,0,1.06-.9,2.28-1.55,3.67-1.72,0,0-.3,.36-.3,.36,.06-.98-.05-2-.69-2.81h0Z"/><path d="M25.07,42.5c.56-1.11,1.6-2.27,2.96-2.21,1.29-.03,2.54,.19,3.79,.4,.11,.02,.18,.1,.19,.21,.09,.8,.14,1.6,.21,2.4,.01,.12-.07,.22-.19,.24-1,.13-1.98,.11-2.97,0-.98-.1-1.94-.32-2.87-.63,.96,.17,1.93,.28,2.89,.32,.96,.03,1.94,0,2.87-.14l-.19,.25c-.08-.79-.18-1.58-.25-2.38l.2,.22c-1.22-.25-2.46-.45-3.69-.51-1.28-.13-2.25,.89-2.96,1.84h0Z"/><path d="M32.14,43.52c-1.77,1.04-4.36,2.86-6.29,1.22,2.18,.76,4.06-.69,6.03-1.65,0,0,.26,.42,.26,.42h0Z"/><path d="M46.01,42.5c-.71-.95-1.68-1.97-2.96-1.84-1.23,.06-2.47,.26-3.69,.51l.2-.22c-.07,.79-.17,1.58-.25,2.38l-.19-.25c.93,.13,1.91,.16,2.87,.14,.96-.04,1.93-.14,2.89-.32-.92,.31-1.89,.53-2.87,.63-.98,.11-1.96,.13-2.97,0-.12-.02-.2-.12-.19-.24,.07-.8,.13-1.6,.21-2.4,.01-.11,.09-.19,.19-.21,1.25-.21,2.5-.43,3.79-.4,1.35-.06,2.39,1.1,2.96,2.21h0Z"/><path d="M39.21,43.1c1.97,.96,3.85,2.4,6.03,1.65-1.94,1.64-4.52-.18-6.29-1.22,0,0,.26-.42,.26-.42h0Z"/><path d="M41.96,53.7c-1.53-.18-3.33-.43-4.76-.31,0,0-1.62,.95-1.62,.95-.03,.02-.07,.02-.1,0,.03,0-1.72-.99-1.59-.94-1.58-.14-3.21,.13-4.79,.3,0,0-.01-.1-.01-.1,1.64-.69,3.3-1.28,5.12-1.07,.61,.29,1.2,.64,1.79,.95,0,0-.93,0-.93,0,.56-.3,1.12-.63,1.69-.91,1-.3,1.92,.04,2.87,.21,.8,.2,1.59,.45,2.35,.82v.1h-.01Z"/><path d="M31.87,55.31c2.34,.86,5.09,1.12,7.37-.04,0,0,.05,.09,.05,.09-1.47,2.29-6.1,2.15-7.41-.05h0Z"/><polyline class="cls-5" points="23.68 56.13 23.68 60.72 9.02 64.98"/><polyline class="cls-5" points="47.31 56.13 47.31 60.72 61.97 64.98"/><path class="cls-5" d="M47.35,60.72s-1.36,5.62-9.43,7.25c-.72,1.82-1.68,3.98-2.4,5.58-.73-1.6-1.69-3.76-2.41-5.58-8.07-1.63-9.43-7.25-9.43-7.25"/><path class="cls-5" d="M21.09,61.73s-.65,6.35,1.88,12.7"/><path class="cls-5" d="M49.98,61.73s.65,6.35-1.88,12.7"/></g><path class="cls-12" d="M54.92,24.88c-10.13-5.67-22.27-4.28-33.33-2.82,0,0-.03-.1-.03-.1l4.21-.98c7.05-1.35,14.44-1.81,21.43,.13,2.45,.76,6.07,1.99,7.71,3.77h0Z"/><path class="cls-12" d="M49.59,20.39s-2.46-9.27-15.34-9.02c-6.48,2.79,3.03,3.94,15.34,9.02Z"/><path class="cls-15" d="M8.03,65.74c4.31-1.2,10.84-3.12,15.22-4.31,0,0,.03,.1,.03,.1-.58,.37-1.19,.63-1.79,.95-1.77,.78-3.74,1.54-5.59,2.05-2.32,.57-5.65,1.55-7.87,1.22h0Z"/></g></g><g id="Frame"><path class="cls-10" d="M62.56,4.88C54.4,1.94,45.12,.2,35.25,.02c-.57-.01-1.15-.02-1.72-.02C23.88,0,14.77,1.52,6.72,4.21,2.49,14.22,0,26.6,0,40s2.39,25.22,6.45,35.11c8.16,2.94,17.45,4.69,27.32,4.87,.58,.01,1.15,.02,1.73,.02,9.63,0,18.73-1.51,26.78-4.2,4.24-10.01,6.74-22.39,6.74-35.8s-2.4-25.24-6.46-35.12Zm-4.04,66.86c-7.2,2.16-14.94,3.26-23.02,3.26-.49,0-.98-.01-1.47-.02h-.17c-8.18-.15-16.29-1.47-23.6-3.85-3.45-9.22-5.26-19.93-5.26-31.13s1.89-22.38,5.48-31.73c6.73-2.01,14.13-3.13,21.6-3.26,.48-.01,.97-.01,1.45-.01,.54,0,1.08,.01,1.63,.02,8.16,.15,16.27,1.47,23.59,3.84,3.46,9.24,5.27,19.95,5.27,31.14s-1.89,22.39-5.5,31.74Z"/><path class="cls-13" d="M17.21,2.06h0c1.63,.63,2.06,2.75,.81,3.97l-1.26,1.22s8.35-2.37,18.84-1.69h0c-1-1.49-.45-3.52,1.14-4.34l1-.51S28.26-.43,17.21,2.06Z"/><path class="cls-16" d="M21.81,1.66s.7,2.18-.22,3.1c3.77-.41,7.98-.74,11.12-.74-.33-1.33,1.26-3.4,1.26-3.4,0,0-6.17-.26-12.16,1.03Z"/><path class="cls-13" d="M36.25,79.21h0c-1.52-.87-1.62-3.03-.2-4.04l1.43-1.02s-8.61,1.07-18.88-1.19h0c.76,1.63-.09,3.55-1.79,4.11l-1.07,.36s9.19,2.56,20.5,1.78Z"/><path class="cls-16" d="M19.28,77.8s1.76-1.83,1.3-3.09c4.43,.69,9.11,1.14,12.25,1.14-.33,1.33,.44,3.4,.44,3.4,0,0-8-.16-13.99-1.45Z"/><polygon points="47.48 1.77 47.48 6.73 54.49 8.44 54.49 2.62 47.48 1.77"/><line class="cls-6" x1="45.5" y1="1.23" x2="45.5" y2="6.29"/><line class="cls-6" x1="56.47" y1="3.67" x2="56.47" y2="8.73"/><polygon points="47.48 78.74 47.48 73.78 54.49 72.07 54.49 77.88 47.48 78.74"/><line class="cls-6" x1="45.5" y1="79.28" x2="45.5" y2="74.21"/><line class="cls-6" x1="56.47" y1="76.84" x2="56.47" y2="71.77"/><path d="M33.53,1c.56,0,1.14,0,1.7,.02,9.39,.17,18.33,1.74,26.57,4.65,4.07,10.08,6.22,21.94,6.22,34.33s-2.24,24.79-6.49,34.99c-8.12,2.66-16.87,4.01-26.03,4.01-.56,0-1.12,0-1.71-.02-9.25-.17-18.42-1.78-26.58-4.66C3.15,64.25,1,52.39,1,40S3.23,15.21,7.47,5.02C15.6,2.35,24.37,1,33.53,1m0-1C23.88,0,14.77,1.52,6.72,4.21,2.49,14.22,0,26.6,0,40s2.39,25.22,6.45,35.11c8.16,2.94,17.45,4.69,27.32,4.87,.58,.01,1.15,.02,1.73,.02,9.63,0,18.73-1.51,26.78-4.2,4.24-10.01,6.74-22.39,6.74-35.8s-2.4-25.24-6.46-35.12C54.4,1.94,45.12,.2,35.25,.02c-.57,0-1.15-.02-1.72-.02h0Z"/><path class="cls-13" d="M33.53,6c.52,0,1.04,0,1.61,.02,7.87,.14,15.75,1.4,22.84,3.64,3.3,9,5.04,19.47,5.04,30.34s-1.82,21.82-5.26,30.92c-6.98,2.04-14.47,3.08-22.26,3.08-.48,0-.97,0-1.47-.02h-.15c-7.89-.14-15.78-1.41-22.85-3.65-3.29-8.99-5.03-19.46-5.03-30.33s1.81-21.79,5.24-30.91c6.5-1.89,13.7-2.95,20.86-3.08,.47,0,.96,0,1.43,0m0-1c-.48,0-.97,0-1.45,.01-7.47,.13-14.87,1.25-21.6,3.26-3.59,9.35-5.48,20.26-5.48,31.73s1.81,21.91,5.26,31.13c7.31,2.38,15.42,3.7,23.6,3.85h.17c.49,.01,.98,.02,1.47,.02,8.08,0,15.82-1.1,23.02-3.26,3.61-9.35,5.5-20.27,5.5-31.74s-1.81-21.9-5.27-31.14c-7.32-2.37-15.43-3.69-23.59-3.84-.55,0-1.09-.02-1.63-.02h0Z"/><path d="M33.53,5c.54,0,1.08,.01,1.63,.02,8.16,.15,16.27,1.47,23.59,3.84,3.46,9.24,5.27,19.95,5.27,31.14s-1.89,22.39-5.5,31.74c-7.2,2.16-14.94,3.26-23.02,3.26-.49,0-.98-.01-1.47-.02h-.17c-8.18-.15-16.29-1.47-23.6-3.85-3.45-9.22-5.26-19.93-5.26-31.13s1.89-22.38,5.48-31.73c6.73-2.01,14.13-3.13,21.6-3.26,.48-.01,.97-.01,1.45-.01m0-1c-.49,0-.98,0-1.47,.01-7.51,.13-15.07,1.27-21.87,3.3l-.47,.14-.18,.46c-3.63,9.45-5.55,20.55-5.55,32.09s1.84,22.17,5.32,31.48l.17,.45,.46,.15c7.37,2.4,15.63,3.75,23.89,3.9h.19c.48,.01,.97,.02,1.47,.02,8.16,0,16-1.11,23.31-3.3l.47-.14,.18-.46c3.64-9.43,5.57-20.53,5.57-32.1s-1.84-22.17-5.33-31.49l-.17-.45-.46-.15c-7.39-2.39-15.65-3.74-23.88-3.89-.58-.01-1.12-.02-1.65-.02h0Z"/><path class="cls-7" d="M8.14,7.1s-12.66,32.94,0,66.06"/><path class="cls-7" d="M60.88,7.58s12.66,32.94,0,66.06"/></g></svg>