<svg id="Capa_2" xmlns="http://www.w3.org/2000/svg" xmlns:xlink="http://www.w3.org/1999/xlink" viewBox="0 0 69.02 80">
<defs >
<style >
.cls-1{fill:#000000;}.cls-2{fill:#000;}.cls-3{fill:#000000;}.cls-4{fill:#000000;}.cls-5,.cls-6{stroke:#000;}.cls-5,.cls-6,.cls-7,.cls-8,.cls-9{fill:none;}.cls-5,.cls-7{stroke-linejoin:round;}.cls-10{fill:#000000;}.cls-11{fill:#000000;}.cls-6{stroke-miterlimit:10;}.cls-12{fill:#000000;}.cls-7{stroke:#000000;stroke-dasharray:0 0 0 4.06;stroke-linecap:round;}.cls-13{fill:#000000;}.cls-14{fill:url(#USGS_19_Inundación_de_tierra_2);}.cls-9{stroke:#000000;stroke-dasharray:0 0 2 2;stroke-width:.3px;}.cls-15{fill:#000000;}.cls-16{fill:#000000;}.cls-17{fill:#000000;}
</style>
<pattern id="USGS_19_Inundación_de_tierra_2" x="0" y="0" width="72" height="72" patternTransform="translate(-164.48 -16351) rotate(-90)" patternUnits="userSpaceOnUse" viewBox="0 0 72 72">
<g >
<rect class="cls-8" width="72" height="72">
</rect>
<g >
<line class="cls-9" x1="71" y1="71" x2="144.44" y2="71">
</line>
<line class="cls-9" x1="71" y1="67" x2="144.44" y2="67">
</line>
<line class="cls-9" x1="71" y1="63" x2="144.44" y2="63">
</line>
<line class="cls-9" x1="71" y1="59" x2="144.44" y2="59">
</line>
<line class="cls-9" x1="71" y1="55" x2="144.44" y2="55">
</line>
<line class="cls-9" x1="71" y1="51" x2="144.44" y2="51">
</line>
<line class="cls-9" x1="71" y1="47" x2="144.44" y2="47">
</line>
<line class="cls-9" x1="71" y1="43" x2="144.44" y2="43">
</line>
<line class="cls-9" x1="71" y1="39" x2="144.44" y2="39">
</line>
<line class="cls-9" x1="71" y1="35" x2="144.44" y2="35">
</line>
<line class="cls-9" x1="71" y1="31" x2="144.44" y2="31">
</line>
<line class="cls-9" x1="71" y1="27" x2="144.44" y2="27">
</line>
<line class="cls-9" x1="71" y1="23" x2="144.44" y2="23">
</line>
<line class="cls-9" x1="71" y1="19" x2="144.44" y2="19">
</line>
<line class="cls-9" x1="71" y1="15" x2="144.44" y2="15">
</line>
<line class="cls-9" x1="71" y1="11" x2="144.44" y2="11">
</line>
<line class="cls-9" x1="71" y1="7" x2="144.44" y2="7">
</line>
<line class="cls-9" x1="71" y1="3" x2="144.44" y2="3">
</line>
</g>
<g >
<line class="cls-9" x1="-1" y1="71" x2="72.44" y2="71">
</line>
<line class="cls-9" x1="-1" y1="67" x2="72.44" y2="67">
</line>
<line class="cls-9" x1="-1" y1="63" x2="72.44" y2="63">
</line>
<line class="cls-9" x1="-1" y1="59" x2="72.44" y2="59">
</line>
<line class="cls-9" x1="-1" y1="55" x2="72.44" y2="55">
</line>
<line class="cls-9" x1="-1" y1="51" x2="72.44" y2="51">
</line>
<line class="cls-9" x1="-1" y1="47" x2="72.44" y2="47">
</line>
<line class="cls-9" x1="-1" y1="43" x2="72.44" y2="43">
</line>
<line class="cls-9" x1="-1" y1="39" x2="72.44" y2="39">
</line>
<line class="cls-9" x1="-1" y1="35" x2="72.44" y2="35">
</line>
<line class="cls-9" x1="-1" y1="31" x2="72.44" y2="31">
</line>
<line class="cls-9" x1="-1" y1="27" x2="72.44" y2="27">
</line>
<line class="cls-9" x1="-1" y1="23" x2="72.44" y2="23">
</line>
<line class="cls-9" x1="-1" y1="19" x2="72.44" y2="19">
</line>
<line class="cls-9" x1="-1" y1="15" x2="72.44" y2="15">
</line>
<line class="cls-9" x1="-1" y1="11" x2="72.44" y2="11">
</line>
<line class="cls-9" x1="-1" y1="7" x2="72.44" y2="7">
</line>
<line class="cls-9" x1="-1" y1="3" x2="72.44" y2="3">
</line>
<line class="cls-9" x1="1.04" y1="69" x2="74.48" y2="69">
</line>
<line class="cls-9" x1="1.04" y1="65" x2="74.48" y2="65">
</line>
<line class="cls-9" x1="1.04" y1="61" x2="74.48" y2="61">
</line>
<line class="cls-9" x1="1.04" y1="57" x2="74.48" y2="57">
</line>
<line class="cls-9" x1="1.04" y1="53" x2="74.48" y2="53">
</line>
<line class="cls-9" x1="1.04" y1="49" x2="74.48" y2="49">
</line>
<line class="cls-9" x1="1.04" y1="45" x2="74.48" y2="45">
</line>
<line class="cls-9" x1="1.04" y1="41" x2="74.48" y2="41">
</line>
<line class="cls-9" x1="1.04" y1="37" x2="74.48" y2="37">
</line>
<line class="cls-9" x1="1.04" y1="33" x2="74.48" y2="33">
</line>
<line class="cls-9" x1="1.04" y1="29" x2="74.48" y2="29">
</line>
<line class="cls-9" x1="1.04" y1="25" x2="74.48" y2="25">
</line>
<line class="cls-9" x1="1.04" y1="21" x2="74.48" y2="21">
</line>
<line class="cls-9" x1="1.04" y1="17" x2="74.48" y2="17">
</line>
<line class="cls-9" x1="1.04" y1="13" x2="74.48" y2="13">
</line>
<line class="cls-9" x1="1.04" y1="9" x2="74.48" y2="9">
</line>
<line class="cls-9" x1="1.04" y1="5" x2="74.48" y2="5">
</line>
<line class="cls-9" x1="1.04" y1="1" x2="74.48" y2="1">
</line>
</g>
<g >
<line class="cls-9" x1="-73" y1="71" x2=".44" y2="71">
</line>
<line class="cls-9" x1="-73" y1="67" x2=".44" y2="67">
</line>
<line class="cls-9" x1="-73" y1="63" x2=".44" y2="63">
</line>
<line class="cls-9" x1="-73" y1="59" x2=".44" y2="59">
</line>
<line class="cls-9" x1="-73" y1="55" x2=".44" y2="55">
</line>
<line class="cls-9" x1="-73" y1="51" x2=".44" y2="51">
</line>
<line class="cls-9" x1="-73" y1="47" x2=".44" y2="47">
</line>
<line class="cls-9" x1="-73" y1="43" x2=".44" y2="43">
</line>
<line class="cls-9" x1="-73" y1="39" x2=".44" y2="39">
</line>
<line class="cls-9" x1="-73" y1="35" x2=".44" y2="35">
</line>
<line class="cls-9" x1="-73" y1="31" x2=".44" y2="31">
</line>
<line class="cls-9" x1="-73" y1="27" x2=".44" y2="27">
</line>
<line class="cls-9" x1="-73" y1="23" x2=".44" y2="23">
</line>
<line class="cls-9" x1="-73" y1="19" x2=".44" y2="19">
</line>
<line class="cls-9" x1="-73" y1="15" x2=".44" y2="15">
</line>
<line class="cls-9" x1="-73" y1="11" x2=".44" y2="11">
</line>
<line class="cls-9" x1="-73" y1="7" x2=".44" y2="7">
</line>
<line class="cls-9" x1="-73" y1="3" x2=".44" y2="3">
</line>
<line class="cls-9" x1="-70.96" y1="69" x2="2.48" y2="69">
</line>
<line class="cls-9" x1="-70.96" y1="65" x2="2.48" y2="65">
</line>
<line class="cls-9" x1="-70.96" y1="61" x2="2.48" y2="61">
</line>
<line class="cls-9" x1="-70.96" y1="57" x2="2.48" y2="57">
</line>
<line class="cls-9" x1="-70.96" y1="53" x2="2.48" y2="53">
</line>
<line class="cls-9" x1="-70.96" y1="49" x2="2.48" y2="49">
</line>
<line class="cls-9" x1="-70.96" y1="45" x2="2.48" y2="45">
</line>
<line class="cls-9" x1="-70.96" y1="41" x2="2.48" y2="41">
</line>
<line class="cls-9" x1="-70.96" y1="37" x2="2.48" y2="37">
</line>
<line class="cls-9" x1="-70.96" y1="33" x2="2.48" y2="33">
</line>
<line class="cls-9" x1="-70.96" y1="29" x2="2.48" y2="29">
</line>
<line class="cls-9" x1="-70.96" y1="25" x2="2.48" y2="25">
</line>
<line class="cls-9" x1="-70.96" y1="21" x2="2.48" y2="21">
</line>
<line class="cls-9" x1="-70.96" y1="17" x2="2.48" y2="17">
</line>
<line class="cls-9" x1="-70.96" y1="13" x2="2.48" y2="13">
</line>
<line class="cls-9" x1="-70.96" y1="9" x2="2.48" y2="9">
</line>
<line class="cls-9" x1="-70.96" y1="5" x2="2.48" y2="5">
</line>
<line class="cls-9" x1="-70.96" y1="1" x2="2.48" y2="1">
</line>
</g>
</g>
</pattern>
</defs>
  <path
     id="circle1849"
     style="fill:#AA00DD;stroke:#000000;stroke-width:2"
     d="M 34.875,3.84375 C 30.2026,3.8566827 25.91896,6.4477515 23.738281,10.580078 21.63936,9.1446679 19.156089,8.3761337 16.613281,8.375 9.636905,8.3755251 3.9818685,14.031436 3.9824219,21.007812 c 0.012178,4.019812 1.9368978,7.79383 5.1835937,10.164063 -1.8357739,2.246976 -2.8420262,5.057448 -2.8496094,7.958984 0.00713,1.935325 0.4588528,3.843134 1.3203126,5.576172 -2.4145566,2.364898 -3.7807042,5.598771 -3.7929688,8.978516 0.00466,4.996359 2.9538661,9.520462 7.523438,11.541015 0.767283,6.336372 6.140784,11.10481 12.523437,11.113282 3.186693,-0.0091 6.252191,-1.222333 8.582031,-3.396485 1.867081,1.045968 3.9693,1.600422 6.109375,1.611329 2.723791,-0.01118 5.371006,-0.902492 7.546875,-2.541016 1.56279,0.673484 3.245549,1.024252 4.947266,1.03125 6.977139,5.53e-4 12.633366,-5.655674 12.632812,-12.632813 -0.0013,-2.652818 -0.837669,-5.237911 -2.390625,-7.388671 2.480721,-2.37284 3.888874,-5.653124 3.900391,-9.085938 -9.13e-4,-3.96978 -1.867955,-7.708203 -5.041016,-10.09375 2.59288,-2.385063 4.071919,-5.744584 4.080078,-9.267578 C 64.257287,17.599796 58.601376,11.944759 51.625,11.945312 50.032147,11.955601 48.455612,12.267065 46.978516,12.863281 45.38146,7.5117456 40.459758,3.8440964 34.875,3.84375 Z"/>



<g id="Capa_9">
<g >
<g >
<path class="cls-1" d="M62.96,65.35l-2.5,8.98s-27.38,4.54-27.26,4.2l-24.2-6.13-1.25-7.61,15.79-3.98,.34-4.54-1.02-1.14-1.71-7.04s-3.52,.45-4.43-8.18c0-4.32,1.82-3.75,1.82-3.75l-.04-.13-.04-.1-3.67-10.68s4.21-2.84,5.57-3.4c2.16-7.16,6.47-11.02,15.22-11.14,8.75-.11,13.18,3.86,15.22,10.68,4.43,2.5,5.46,3.98,5.46,3.98l-2.52,7.71-.39,1.2-.5,1.54s2.04,.79,1.82,3.07c-.23,2.27-2.16,9.08-4.66,9.88-.91,4.54-1.82,6.25-1.82,6.25l-.79,.9v5.23l.13,.03,15.43,4.17Z">
</path>
<path class="cls-1" d="M54.67,38.89c-.23,2.27-2.16,9.08-4.66,9.88-.91,4.54-1.82,6.25-1.82,6.25l-.79,.9v5.23l.13,.03c-2.75,5.02-9.77,6.61-9.77,6.61l-2.08,5.68s-.94-1.99-2.74-5.58c-5.89-1.23-8.74-5.87-9.4-7.08l.34-4.54-1.02-1.14-1.71-7.04s-3.52,.45-4.43-8.18c0-4.32,1.82-3.75,1.82-3.75l-.04-.13-.04-.1c.75,.09,1.34,.75,1.34,.75v-3.99s5.49-4.6,15.55-5.15,15.55,4.82,15.55,4.82c0,0,.29,1.87,.29,2.16s1.79-.67,1.79-.67l.37,.43-.5,1.54s2.04,.79,1.82,3.07Z">
</path>
<path class="cls-2" d="M35.35,63.11V27.22s12.4,.17,15.95,5.63c-.43,11.01-2.25,20.98-3.12,22.63-3.9,3.47-5.98,5.2-5.98,5.2,0,0-1.99,2.34-2.95,2.95-2.6,.35-3.9-.52-3.9-.52Z">
</path>
<path class="cls-4" d="M32,43.46l1.68-5.51-7.75-.27-3.68,1.74s2.27,4.81,3.94,5.55,5.19-.75,5.8-1.51Z">
</path>
<path class="cls-4" d="M39.2,43.46l-1.68-5.51,7.75-.27,3.68,1.74s-2.27,4.81-3.94,5.55-5.19-.75-5.8-1.51Z">
</path>
<path d="M56.26,25.37l-2.52,7.71-1.35,2.69-1.33,1-.16-4.41s-4.66-4.57-15.55-4.82c-10.81-.25-15.55,5.15-15.55,5.15v3.99l-1.3-.65-3.71-10.78s4.21-2.84,5.57-3.4c2.16-7.16,6.47-11.02,15.22-11.14,8.75-.11,13.18,3.86,15.22,10.68,4.43,2.5,5.46,3.98,5.46,3.98Z">
</path>
<path class="cls-3" d="M32,43.46l-.36-2.72s-3.81-.3-4.35-.18c-1.03,.3-1.93,1.51-2.18,1.87,2.18,1.03,5.68,1.21,6.89,1.03Z">
</path>
<path class="cls-3" d="M39.03,43.46l.36-2.72s3.81-.3,4.35-.18c1.03,.3,1.93,1.51,2.18,1.87-2.18,1.03-5.68,1.21-6.89,1.03Z">
</path>
<path d="M20.18,37.29s-1.67-1.87-2.87-.87-.6,4.14-.27,6.02,2.21,5.55,3.88,5.68c-.87-4.95-.74-10.83-.74-10.83Z">
</path>
<path d="M40.32,63.43l-15.08,13.16-15.95-4.07-.56-7.98,14.81-3.74,.34-4.54s3.99,3.01,4.87,4.21,2.39,2.71,2.39,2.71l9.17,.24Z">
</path>
<path class="cls-1" d="M35.29,29.46c8.8,0,12.86,2.89,14.04,3.93,.02,1.81-.02,6.09-.6,10.77,0,0,0,0,0,0-.1-.02-.2-.04-.3-.04-.57,0-1.09,.38-1.25,.96-.49,1.78-2,3.09-3.51,4.27-.25,.2-.42,.47-.47,.79-.13,.68-.24,1.38-.35,2.1-.41,2.61-.83,5.31-2.06,7.34-.1,.11-.17,.23-.22,.34-.45,.67-.99,1.22-1.64,1.68-1.13-.01-2.25-.02-3.38-.02s-2.25,0-3.38,.02c-2.74-1.92-3.34-5.7-3.91-9.37-.11-.73-.23-1.44-.35-2.13-.06-.32-.23-.6-.49-.8-1.52-1.16-3-2.47-3.5-4.25-.16-.57-.68-.95-1.25-.95-.1,0-.2,.01-.31,.04,0,0-.01,0-.02,0-.6-4.86-.62-9.26-.61-10.83,1.01-1.01,4.65-3.87,13.57-3.87m-12.06,20.06c.48,.61,1.04,1.17,1.67,1.69,.02,.21,.05,.42,.07,.63,.11,1.01,.22,2.03,.37,3.05-.23-.21-.48-.42-.72-.63-.57-1.47-1.02-3.09-1.39-4.74m24.58,.04c-.37,1.64-.82,3.24-1.39,4.7-.24,.2-.47,.41-.69,.61,.15-1.01,.26-2.01,.36-3.01,.02-.22,.05-.43,.07-.65,.62-.51,1.17-1.06,1.64-1.65m-12.52-21.4c-10.62,0-14.29,3.95-14.86,4.66-.03,1.54-.19,13.98,3.1,22.22,1.58,1.36,3,2.69,4.04,3.7-.92-2.63-1.12-5.49-1.43-8.21-1.7-1.27-3.06-3.06-3.48-5.11,.6,2.14,2.29,3.66,3.96,4.93,.81,4.38,1.01,10,5.16,12.56,1.26-.01,2.51-.02,3.76-.02s2.5,0,3.76,.02c1.04-.65,1.84-1.48,2.45-2.44h-.01s.02-.04,.06-.07c1.79-2.86,2.06-6.78,2.66-10.03,1.64-1.29,3.37-2.8,3.96-4.95-.42,2.05-1.78,3.84-3.48,5.11-.31,2.7-.51,5.55-1.42,8.17,1.04-1,2.44-2.32,4-3.66,3.28-8.21,3.13-20.59,3.1-22.21-.67-.72-4.79-4.67-15.33-4.67h0Z">
</path>
<path class="cls-2" d="M46.03,58.41l-5.51,7.23s3.67-1.03,5.57-4.71c0-1.72-.06-2.53-.06-2.53Z">
</path>
<path class="cls-17" d="M47.55,60.9s-2.52,6.12-9.79,6.89c-1.25,3.92-2.11,5.43-2.11,5.43l-2.15-5.02-6.02,5.95s4.8,.93,11.82,1,19.92-3.22,19.92-3.22l1.72-7.31-13.4-3.73Z">
</path>
<path class="cls-15" d="M39.2,69.61s6.48-1.48,9.32-6.82c7.72,2.16,12.72,3.75,12.72,3.75l-3.07,7.27-21.36,.91,2.39-5.11Z">
</path>
<path class="cls-5" d="M20.06,21.86c1.08-6.37,7.57-11.26,15.41-11.26s14.42,4.97,15.43,11.4">
</path>
<path class="cls-5" d="M52.59,35.94l3.55-10.72s-5.1-6.32-20.45-6.32h-.34c-15.35,0-20.45,6.32-20.45,6.32l3.55,10.72">
</path>
<path class="cls-5" d="M28.95,60.8s-2.59-2.66-5.84-5.47c-3.62-8.94-3.18-22.69-3.18-22.69,0,0,3.35-4.98,15.35-4.98s15.83,4.98,15.83,4.98c0,0,.44,13.75-3.18,22.69-3.25,2.81-5.84,5.47-5.84,5.47">
</path>
<path class="cls-5" d="M20,37.27s-1.13-1.87-2.48-1.04-1.03,4.18-.26,6.69,2.32,5.66,3.93,5.47">
</path>
<path class="cls-5" d="M51.05,37.27s1.13-1.87,2.48-1.04,1.03,4.18,.26,6.69-2.32,5.66-3.93,5.47">
</path>
<path d="M48.42,45.42c-.43,2.1-1.84,3.92-3.58,5.19l.11-.18c-.42,3.6-.61,7.47-2.54,10.7-.71,1.09-1.69,2.26-2.97,2.73-2.6,.03-5.21,.03-7.81,0-1.27-.48-2.24-1.63-2.96-2.73-1.94-3.22-2.12-7.09-2.54-10.7,0,0,.11,.18,.11,.18-1.74-1.27-3.15-3.09-3.58-5.19,.61,2.14,2.3,3.67,3.97,4.94,.81,4.41,1,10.08,5.24,12.61,0,0-.22-.06-.22-.06,2.6-.03,5.2-.03,7.8,0l-.22,.06c4.23-2.53,4.43-8.19,5.24-12.6,1.65-1.29,3.37-2.8,3.97-4.95h0Z">
</path>
<path d="M22.33,39.31s2.6-2.95,5.4-2.75c3.05,.3,6.05,1.3,6.05,1.3,0,0-1.1,1.6-3.25,1.1s-5.5-.85-8.19,.35Z">
</path>
<path d="M48.41,39.31s-2.6-2.95-5.4-2.75c-3.05,.3-6.05,1.3-6.05,1.3,0,0,1.1,1.6,3.25,1.1s5.5-.85,8.19,.35Z">
</path>
<path d="M37.91,47.22c.94,.56,1.34,1.76,1.41,2.81,0,.16-.1,.31-.25,.34-1.15,.31-2.28,.97-3.17,1.76-.19,.18-.48,.17-.67,0-.88-.77-1.99-1.43-3.13-1.74-.18-.03-.32-.18-.3-.36,.07-1.05,.48-2.25,1.41-2.81-.63,.81-.75,1.83-.69,2.81,0,0-.3-.36-.3-.36,1.39,.17,2.61,.82,3.67,1.72,0,0-.67,0-.67,0,1.06-.9,2.28-1.55,3.67-1.72,0,0-.3,.36-.3,.36,.06-.98-.05-2-.69-2.81h0Z">
</path>
<path d="M25.07,42.5c.56-1.11,1.6-2.27,2.96-2.21,1.29-.03,2.54,.19,3.79,.4,.11,.02,.18,.1,.19,.21,.09,.8,.14,1.6,.21,2.4,.01,.12-.07,.22-.19,.24-1,.13-1.98,.11-2.97,0-.98-.1-1.94-.32-2.87-.63,.96,.17,1.93,.28,2.89,.32,.96,.03,1.94,0,2.87-.14l-.19,.25c-.08-.79-.18-1.58-.25-2.38l.2,.22c-1.22-.25-2.46-.45-3.69-.51-1.28-.13-2.25,.89-2.96,1.84h0Z">
</path>
<path d="M32.14,43.52c-1.77,1.04-4.36,2.86-6.29,1.22,2.18,.76,4.06-.69,6.03-1.65,0,0,.26,.42,.26,.42h0Z">
</path>
<path d="M46.01,42.5c-.71-.95-1.68-1.97-2.96-1.84-1.23,.06-2.47,.26-3.69,.51l.2-.22c-.07,.79-.17,1.58-.25,2.38l-.19-.25c.93,.13,1.91,.16,2.87,.14,.96-.04,1.93-.14,2.89-.32-.92,.31-1.89,.53-2.87,.63-.98,.11-1.96,.13-2.97,0-.12-.02-.2-.12-.19-.24,.07-.8,.13-1.6,.21-2.4,.01-.11,.09-.19,.19-.21,1.25-.21,2.5-.43,3.79-.4,1.35-.06,2.39,1.1,2.96,2.21h0Z">
</path>
<path d="M39.21,43.1c1.97,.96,3.85,2.4,6.03,1.65-1.94,1.64-4.52-.18-6.29-1.22,0,0,.26-.42,.26-.42h0Z">
</path>
<path d="M41.96,53.7c-1.53-.18-3.33-.43-4.76-.31,0,0-1.62,.95-1.62,.95-.03,.02-.07,.02-.1,0,.03,0-1.72-.99-1.59-.94-1.58-.14-3.21,.13-4.79,.3,0,0-.01-.1-.01-.1,1.64-.69,3.3-1.28,5.12-1.07,.61,.29,1.2,.64,1.79,.95,0,0-.93,0-.93,0,.56-.3,1.12-.63,1.69-.91,1-.3,1.92,.04,2.87,.21,.8,.2,1.59,.45,2.35,.82v.1h-.01Z">
</path>
<path d="M31.87,55.31c2.34,.86,5.09,1.12,7.37-.04,0,0,.05,.09,.05,.09-1.47,2.29-6.1,2.15-7.41-.05h0Z">
</path>
<polyline class="cls-5" points="23.68 56.13 23.68 60.72 9.02 64.98">
</polyline>
<polyline class="cls-5" points="47.31 56.13 47.31 60.72 61.97 64.98">
</polyline>
<path class="cls-5" d="M47.35,60.72s-1.36,5.62-9.43,7.25c-.72,1.82-1.68,3.98-2.4,5.58-.73-1.6-1.69-3.76-2.41-5.58-8.07-1.63-9.43-7.25-9.43-7.25">
</path>
<path class="cls-5" d="M21.09,61.73s-.65,6.35,1.88,12.7">
</path>
<path class="cls-5" d="M49.98,61.73s.65,6.35-1.88,12.7">
</path>
</g>
<path class="cls-12" d="M54.92,24.88c-10.13-5.67-22.27-4.28-33.33-2.82,0,0-.03-.1-.03-.1l4.21-.98c7.05-1.35,14.44-1.81,21.43,.13,2.45,.76,6.07,1.99,7.71,3.77h0Z">
</path>
<path class="cls-12" d="M49.59,20.39s-2.46-9.27-15.34-9.02c-6.48,2.79,3.03,3.94,15.34,9.02Z">
</path>
<path class="cls-15" d="M8.03,65.74c4.31-1.2,10.84-3.12,15.22-4.31,0,0,.03,.1,.03,.1-.58,.37-1.19,.63-1.79,.95-1.77,.78-3.74,1.54-5.59,2.05-2.32,.57-5.65,1.55-7.87,1.22h0Z">
</path>
</g>
</g>

</svg>
