<svg id="Capa_2" xmlns="http://www.w3.org/2000/svg" xmlns:xlink="http://www.w3.org/1999/xlink" viewBox="0 0 69.02 80">
<defs >
<style >
.cls-1{fill:#c89aed;}.cls-2{fill:#fff;}.cls-3{fill:#f8ffbf;}.cls-4{fill:#7b7be8;}.cls-5,.cls-6{stroke:#000;}.cls-5,.cls-6,.cls-7,.cls-8,.cls-9{fill:none;}.cls-5,.cls-7{stroke-linejoin:round;}.cls-10{fill:#a88347;}.cls-11{fill:#782ab5;}.cls-6{stroke-miterlimit:10;}.cls-12{fill:#1c46ff;}.cls-7{stroke:#deb778;stroke-dasharray:0 0 0 4.06;stroke-linecap:round;}.cls-13{fill:#deb778;}.cls-14{fill:url(#USGS_19_Inundación_de_tierra_2);}.cls-9{stroke:#1d1d1b;stroke-dasharray:0 0 2 2;stroke-width:.3px;}.cls-15{fill:#cf5f2b;}.cls-16{fill:#fcf0c5;}.cls-17{fill:#b83521;}
</style>
<pattern id="USGS_19_Inundación_de_tierra_2" x="0" y="0" width="72" height="72" patternTransform="translate(-164.48 -16351) rotate(-90)" patternUnits="userSpaceOnUse" viewBox="0 0 72 72">
<g >
<rect class="cls-8" width="72" height="72">
</rect>
<g >
<line class="cls-9" x1="71" y1="71" x2="144.44" y2="71">
</line>
<line class="cls-9" x1="71" y1="67" x2="144.44" y2="67">
</line>
<line class="cls-9" x1="71" y1="63" x2="144.44" y2="63">
</line>
<line class="cls-9" x1="71" y1="59" x2="144.44" y2="59">
</line>
<line class="cls-9" x1="71" y1="55" x2="144.44" y2="55">
</line>
<line class="cls-9" x1="71" y1="51" x2="144.44" y2="51">
</line>
<line class="cls-9" x1="71" y1="47" x2="144.44" y2="47">
</line>
<line class="cls-9" x1="71" y1="43" x2="144.44" y2="43">
</line>
<line class="cls-9" x1="71" y1="39" x2="144.44" y2="39">
</line>
<line class="cls-9" x1="71" y1="35" x2="144.44" y2="35">
</line>
<line class="cls-9" x1="71" y1="31" x2="144.44" y2="31">
</line>
<line class="cls-9" x1="71" y1="27" x2="144.44" y2="27">
</line>
<line class="cls-9" x1="71" y1="23" x2="144.44" y2="23">
</line>
<line class="cls-9" x1="71" y1="19" x2="144.44" y2="19">
</line>
<line class="cls-9" x1="71" y1="15" x2="144.44" y2="15">
</line>
<line class="cls-9" x1="71" y1="11" x2="144.44" y2="11">
</line>
<line class="cls-9" x1="71" y1="7" x2="144.44" y2="7">
</line>
<line class="cls-9" x1="71" y1="3" x2="144.44" y2="3">
</line>
</g>
<g >
<line class="cls-9" x1="-1" y1="71" x2="72.44" y2="71">
</line>
<line class="cls-9" x1="-1" y1="67" x2="72.44" y2="67">
</line>
<line class="cls-9" x1="-1" y1="63" x2="72.44" y2="63">
</line>
<line class="cls-9" x1="-1" y1="59" x2="72.44" y2="59">
</line>
<line class="cls-9" x1="-1" y1="55" x2="72.44" y2="55">
</line>
<line class="cls-9" x1="-1" y1="51" x2="72.44" y2="51">
</line>
<line class="cls-9" x1="-1" y1="47" x2="72.44" y2="47">
</line>
<line class="cls-9" x1="-1" y1="43" x2="72.44" y2="43">
</line>
<line class="cls-9" x1="-1" y1="39" x2="72.44" y2="39">
</line>
<line class="cls-9" x1="-1" y1="35" x2="72.44" y2="35">
</line>
<line class="cls-9" x1="-1" y1="31" x2="72.44" y2="31">
</line>
<line class="cls-9" x1="-1" y1="27" x2="72.44" y2="27">
</line>
<line class="cls-9" x1="-1" y1="23" x2="72.44" y2="23">
</line>
<line class="cls-9" x1="-1" y1="19" x2="72.44" y2="19">
</line>
<line class="cls-9" x1="-1" y1="15" x2="72.44" y2="15">
</line>
<line class="cls-9" x1="-1" y1="11" x2="72.44" y2="11">
</line>
<line class="cls-9" x1="-1" y1="7" x2="72.44" y2="7">
</line>
<line class="cls-9" x1="-1" y1="3" x2="72.44" y2="3">
</line>
<line class="cls-9" x1="1.04" y1="69" x2="74.48" y2="69">
</line>
<line class="cls-9" x1="1.04" y1="65" x2="74.48" y2="65">
</line>
<line class="cls-9" x1="1.04" y1="61" x2="74.48" y2="61">
</line>
<line class="cls-9" x1="1.04" y1="57" x2="74.48" y2="57">
</line>
<line class="cls-9" x1="1.04" y1="53" x2="74.48" y2="53">
</line>
<line class="cls-9" x1="1.04" y1="49" x2="74.48" y2="49">
</line>
<line class="cls-9" x1="1.04" y1="45" x2="74.48" y2="45">
</line>
<line class="cls-9" x1="1.04" y1="41" x2="74.48" y2="41">
</line>
<line class="cls-9" x1="1.04" y1="37" x2="74.48" y2="37">
</line>
<line class="cls-9" x1="1.04" y1="33" x2="74.48" y2="33">
</line>
<line class="cls-9" x1="1.04" y1="29" x2="74.48" y2="29">
</line>
<line class="cls-9" x1="1.04" y1="25" x2="74.48" y2="25">
</line>
<line class="cls-9" x1="1.04" y1="21" x2="74.48" y2="21">
</line>
<line class="cls-9" x1="1.04" y1="17" x2="74.48" y2="17">
</line>
<line class="cls-9" x1="1.04" y1="13" x2="74.48" y2="13">
</line>
<line class="cls-9" x1="1.04" y1="9" x2="74.48" y2="9">
</line>
<line class="cls-9" x1="1.04" y1="5" x2="74.48" y2="5">
</line>
<line class="cls-9" x1="1.04" y1="1" x2="74.48" y2="1">
</line>
</g>
<g >
<line class="cls-9" x1="-73" y1="71" x2=".44" y2="71">
</line>
<line class="cls-9" x1="-73" y1="67" x2=".44" y2="67">
</line>
<line class="cls-9" x1="-73" y1="63" x2=".44" y2="63">
</line>
<line class="cls-9" x1="-73" y1="59" x2=".44" y2="59">
</line>
<line class="cls-9" x1="-73" y1="55" x2=".44" y2="55">
</line>
<line class="cls-9" x1="-73" y1="51" x2=".44" y2="51">
</line>
<line class="cls-9" x1="-73" y1="47" x2=".44" y2="47">
</line>
<line class="cls-9" x1="-73" y1="43" x2=".44" y2="43">
</line>
<line class="cls-9" x1="-73" y1="39" x2=".44" y2="39">
</line>
<line class="cls-9" x1="-73" y1="35" x2=".44" y2="35">
</line>
<line class="cls-9" x1="-73" y1="31" x2=".44" y2="31">
</line>
<line class="cls-9" x1="-73" y1="27" x2=".44" y2="27">
</line>
<line class="cls-9" x1="-73" y1="23" x2=".44" y2="23">
</line>
<line class="cls-9" x1="-73" y1="19" x2=".44" y2="19">
</line>
<line class="cls-9" x1="-73" y1="15" x2=".44" y2="15">
</line>
<line class="cls-9" x1="-73" y1="11" x2=".44" y2="11">
</line>
<line class="cls-9" x1="-73" y1="7" x2=".44" y2="7">
</line>
<line class="cls-9" x1="-73" y1="3" x2=".44" y2="3">
</line>
<line class="cls-9" x1="-70.96" y1="69" x2="2.48" y2="69">
</line>
<line class="cls-9" x1="-70.96" y1="65" x2="2.48" y2="65">
</line>
<line class="cls-9" x1="-70.96" y1="61" x2="2.48" y2="61">
</line>
<line class="cls-9" x1="-70.96" y1="57" x2="2.48" y2="57">
</line>
<line class="cls-9" x1="-70.96" y1="53" x2="2.48" y2="53">
</line>
<line class="cls-9" x1="-70.96" y1="49" x2="2.48" y2="49">
</line>
<line class="cls-9" x1="-70.96" y1="45" x2="2.48" y2="45">
</line>
<line class="cls-9" x1="-70.96" y1="41" x2="2.48" y2="41">
</line>
<line class="cls-9" x1="-70.96" y1="37" x2="2.48" y2="37">
</line>
<line class="cls-9" x1="-70.96" y1="33" x2="2.48" y2="33">
</line>
<line class="cls-9" x1="-70.96" y1="29" x2="2.48" y2="29">
</line>
<line class="cls-9" x1="-70.96" y1="25" x2="2.48" y2="25">
</line>
<line class="cls-9" x1="-70.96" y1="21" x2="2.48" y2="21">
</line>
<line class="cls-9" x1="-70.96" y1="17" x2="2.48" y2="17">
</line>
<line class="cls-9" x1="-70.96" y1="13" x2="2.48" y2="13">
</line>
<line class="cls-9" x1="-70.96" y1="9" x2="2.48" y2="9">
</line>
<line class="cls-9" x1="-70.96" y1="5" x2="2.48" y2="5">
</line>
<line class="cls-9" x1="-70.96" y1="1" x2="2.48" y2="1">
</line>
</g>
</g>
</pattern>
</defs>

<g id="Capa_9">
<g >
<g >
<path class="cls-1" d="M62.96,65.35l-2.5,8.98s-27.38,4.54-27.26,4.2l-24.2-6.13-1.25-7.61,15.79-3.98,.34-4.54-1.02-1.14-1.71-7.04s-3.52,.45-4.43-8.18c0-4.32,1.82-3.75,1.82-3.75l-.04-.13-.04-.1-3.67-10.68s4.21-2.84,5.57-3.4c2.16-7.16,6.47-11.02,15.22-11.14,8.75-.11,13.18,3.86,15.22,10.68,4.43,2.5,5.46,3.98,5.46,3.98l-2.52,7.71-.39,1.2-.5,1.54s2.04,.79,1.82,3.07c-.23,2.27-2.16,9.08-4.66,9.88-.91,4.54-1.82,6.25-1.82,6.25l-.79,.9v5.23l.13,.03,15.43,4.17Z">
</path>
<path class="cls-1" d="M54.67,38.89c-.23,2.27-2.16,9.08-4.66,9.88-.91,4.54-1.82,6.25-1.82,6.25l-.79,.9v5.23l.13,.03c-2.75,5.02-9.77,6.61-9.77,6.61l-2.08,5.68s-.94-1.99-2.74-5.58c-5.89-1.23-8.74-5.87-9.4-7.08l.34-4.54-1.02-1.14-1.71-7.04s-3.52,.45-4.43-8.18c0-4.32,1.82-3.75,1.82-3.75l-.04-.13-.04-.1c.75,.09,1.34,.75,1.34,.75v-3.99s5.49-4.6,15.55-5.15,15.55,4.82,15.55,4.82c0,0,.29,1.87,.29,2.16s1.79-.67,1.79-.67l.37,.43-.5,1.54s2.04,.79,1.82,3.07Z">
</path>
<path class="cls-2" d="M35.35,63.11V27.22s12.4,.17,15.95,5.63c-.43,11.01-2.25,20.98-3.12,22.63-3.9,3.47-5.98,5.2-5.98,5.2,0,0-1.99,2.34-2.95,2.95-2.6,.35-3.9-.52-3.9-.52Z">
</path>
<path class="cls-4" d="M32,43.46l1.68-5.51-7.75-.27-3.68,1.74s2.27,4.81,3.94,5.55,5.19-.75,5.8-1.51Z">
</path>
<path class="cls-4" d="M39.2,43.46l-1.68-5.51,7.75-.27,3.68,1.74s-2.27,4.81-3.94,5.55-5.19-.75-5.8-1.51Z">
</path>
<path d="M56.26,25.37l-2.52,7.71-1.35,2.69-1.33,1-.16-4.41s-4.66-4.57-15.55-4.82c-10.81-.25-15.55,5.15-15.55,5.15v3.99l-1.3-.65-3.71-10.78s4.21-2.84,5.57-3.4c2.16-7.16,6.47-11.02,15.22-11.14,8.75-.11,13.18,3.86,15.22,10.68,4.43,2.5,5.46,3.98,5.46,3.98Z">
</path>
<path class="cls-3" d="M32,43.46l-.36-2.72s-3.81-.3-4.35-.18c-1.03,.3-1.93,1.51-2.18,1.87,2.18,1.03,5.68,1.21,6.89,1.03Z">
</path>
<path class="cls-3" d="M39.03,43.46l.36-2.72s3.81-.3,4.35-.18c1.03,.3,1.93,1.51,2.18,1.87-2.18,1.03-5.68,1.21-6.89,1.03Z">
</path>
<path d="M20.18,37.29s-1.67-1.87-2.87-.87-.6,4.14-.27,6.02,2.21,5.55,3.88,5.68c-.87-4.95-.74-10.83-.74-10.83Z">
</path>
<path d="M40.32,63.43l-15.08,13.16-15.95-4.07-.56-7.98,14.81-3.74,.34-4.54s3.99,3.01,4.87,4.21,2.39,2.71,2.39,2.71l9.17,.24Z">
</path>
<path class="cls-1" d="M35.29,29.46c8.8,0,12.86,2.89,14.04,3.93,.02,1.81-.02,6.09-.6,10.77,0,0,0,0,0,0-.1-.02-.2-.04-.3-.04-.57,0-1.09,.38-1.25,.96-.49,1.78-2,3.09-3.51,4.27-.25,.2-.42,.47-.47,.79-.13,.68-.24,1.38-.35,2.1-.41,2.61-.83,5.31-2.06,7.34-.1,.11-.17,.23-.22,.34-.45,.67-.99,1.22-1.64,1.68-1.13-.01-2.25-.02-3.38-.02s-2.25,0-3.38,.02c-2.74-1.92-3.34-5.7-3.91-9.37-.11-.73-.23-1.44-.35-2.13-.06-.32-.23-.6-.49-.8-1.52-1.16-3-2.47-3.5-4.25-.16-.57-.68-.95-1.25-.95-.1,0-.2,.01-.31,.04,0,0-.01,0-.02,0-.6-4.86-.62-9.26-.61-10.83,1.01-1.01,4.65-3.87,13.57-3.87m-12.06,20.06c.48,.61,1.04,1.17,1.67,1.69,.02,.21,.05,.42,.07,.63,.11,1.01,.22,2.03,.37,3.05-.23-.21-.48-.42-.72-.63-.57-1.47-1.02-3.09-1.39-4.74m24.58,.04c-.37,1.64-.82,3.24-1.39,4.7-.24,.2-.47,.41-.69,.61,.15-1.01,.26-2.01,.36-3.01,.02-.22,.05-.43,.07-.65,.62-.51,1.17-1.06,1.64-1.65m-12.52-21.4c-10.62,0-14.29,3.95-14.86,4.66-.03,1.54-.19,13.98,3.1,22.22,1.58,1.36,3,2.69,4.04,3.7-.92-2.63-1.12-5.49-1.43-8.21-1.7-1.27-3.06-3.06-3.48-5.11,.6,2.14,2.29,3.66,3.96,4.93,.81,4.38,1.01,10,5.16,12.56,1.26-.01,2.51-.02,3.76-.02s2.5,0,3.76,.02c1.04-.65,1.84-1.48,2.45-2.44h-.01s.02-.04,.06-.07c1.79-2.86,2.06-6.78,2.66-10.03,1.64-1.29,3.37-2.8,3.96-4.95-.42,2.05-1.78,3.84-3.48,5.11-.31,2.7-.51,5.55-1.42,8.17,1.04-1,2.44-2.32,4-3.66,3.28-8.21,3.13-20.59,3.1-22.21-.67-.72-4.79-4.67-15.33-4.67h0Z">
</path>
<path class="cls-2" d="M46.03,58.41l-5.51,7.23s3.67-1.03,5.57-4.71c0-1.72-.06-2.53-.06-2.53Z">
</path>
<path class="cls-17" d="M47.55,60.9s-2.52,6.12-9.79,6.89c-1.25,3.92-2.11,5.43-2.11,5.43l-2.15-5.02-6.02,5.95s4.8,.93,11.82,1,19.92-3.22,19.92-3.22l1.72-7.31-13.4-3.73Z">
</path>
<path class="cls-15" d="M39.2,69.61s6.48-1.48,9.32-6.82c7.72,2.16,12.72,3.75,12.72,3.75l-3.07,7.27-21.36,.91,2.39-5.11Z">
</path>
<path class="cls-5" d="M20.06,21.86c1.08-6.37,7.57-11.26,15.41-11.26s14.42,4.97,15.43,11.4">
</path>
<path class="cls-5" d="M52.59,35.94l3.55-10.72s-5.1-6.32-20.45-6.32h-.34c-15.35,0-20.45,6.32-20.45,6.32l3.55,10.72">
</path>
<path class="cls-5" d="M28.95,60.8s-2.59-2.66-5.84-5.47c-3.62-8.94-3.18-22.69-3.18-22.69,0,0,3.35-4.98,15.35-4.98s15.83,4.98,15.83,4.98c0,0,.44,13.75-3.18,22.69-3.25,2.81-5.84,5.47-5.84,5.47">
</path>
<path class="cls-5" d="M20,37.27s-1.13-1.87-2.48-1.04-1.03,4.18-.26,6.69,2.32,5.66,3.93,5.47">
</path>
<path class="cls-5" d="M51.05,37.27s1.13-1.87,2.48-1.04,1.03,4.18,.26,6.69-2.32,5.66-3.93,5.47">
</path>
<path d="M48.42,45.42c-.43,2.1-1.84,3.92-3.58,5.19l.11-.18c-.42,3.6-.61,7.47-2.54,10.7-.71,1.09-1.69,2.26-2.97,2.73-2.6,.03-5.21,.03-7.81,0-1.27-.48-2.24-1.63-2.96-2.73-1.94-3.22-2.12-7.09-2.54-10.7,0,0,.11,.18,.11,.18-1.74-1.27-3.15-3.09-3.58-5.19,.61,2.14,2.3,3.67,3.97,4.94,.81,4.41,1,10.08,5.24,12.61,0,0-.22-.06-.22-.06,2.6-.03,5.2-.03,7.8,0l-.22,.06c4.23-2.53,4.43-8.19,5.24-12.6,1.65-1.29,3.37-2.8,3.97-4.95h0Z">
</path>
<path d="M22.33,39.31s2.6-2.95,5.4-2.75c3.05,.3,6.05,1.3,6.05,1.3,0,0-1.1,1.6-3.25,1.1s-5.5-.85-8.19,.35Z">
</path>
<path d="M48.41,39.31s-2.6-2.95-5.4-2.75c-3.05,.3-6.05,1.3-6.05,1.3,0,0,1.1,1.6,3.25,1.1s5.5-.85,8.19,.35Z">
</path>
<path d="M37.91,47.22c.94,.56,1.34,1.76,1.41,2.81,0,.16-.1,.31-.25,.34-1.15,.31-2.28,.97-3.17,1.76-.19,.18-.48,.17-.67,0-.88-.77-1.99-1.43-3.13-1.74-.18-.03-.32-.18-.3-.36,.07-1.05,.48-2.25,1.41-2.81-.63,.81-.75,1.83-.69,2.81,0,0-.3-.36-.3-.36,1.39,.17,2.61,.82,3.67,1.72,0,0-.67,0-.67,0,1.06-.9,2.28-1.55,3.67-1.72,0,0-.3,.36-.3,.36,.06-.98-.05-2-.69-2.81h0Z">
</path>
<path d="M25.07,42.5c.56-1.11,1.6-2.27,2.96-2.21,1.29-.03,2.54,.19,3.79,.4,.11,.02,.18,.1,.19,.21,.09,.8,.14,1.6,.21,2.4,.01,.12-.07,.22-.19,.24-1,.13-1.98,.11-2.97,0-.98-.1-1.94-.32-2.87-.63,.96,.17,1.93,.28,2.89,.32,.96,.03,1.94,0,2.87-.14l-.19,.25c-.08-.79-.18-1.58-.25-2.38l.2,.22c-1.22-.25-2.46-.45-3.69-.51-1.28-.13-2.25,.89-2.96,1.84h0Z">
</path>
<path d="M32.14,43.52c-1.77,1.04-4.36,2.86-6.29,1.22,2.18,.76,4.06-.69,6.03-1.65,0,0,.26,.42,.26,.42h0Z">
</path>
<path d="M46.01,42.5c-.71-.95-1.68-1.97-2.96-1.84-1.23,.06-2.47,.26-3.69,.51l.2-.22c-.07,.79-.17,1.58-.25,2.38l-.19-.25c.93,.13,1.91,.16,2.87,.14,.96-.04,1.93-.14,2.89-.32-.92,.31-1.89,.53-2.87,.63-.98,.11-1.96,.13-2.97,0-.12-.02-.2-.12-.19-.24,.07-.8,.13-1.6,.21-2.4,.01-.11,.09-.19,.19-.21,1.25-.21,2.5-.43,3.79-.4,1.35-.06,2.39,1.1,2.96,2.21h0Z">
</path>
<path d="M39.21,43.1c1.97,.96,3.85,2.4,6.03,1.65-1.94,1.64-4.52-.18-6.29-1.22,0,0,.26-.42,.26-.42h0Z">
</path>
<path d="M41.96,53.7c-1.53-.18-3.33-.43-4.76-.31,0,0-1.62,.95-1.62,.95-.03,.02-.07,.02-.1,0,.03,0-1.72-.99-1.59-.94-1.58-.14-3.21,.13-4.79,.3,0,0-.01-.1-.01-.1,1.64-.69,3.3-1.28,5.12-1.07,.61,.29,1.2,.64,1.79,.95,0,0-.93,0-.93,0,.56-.3,1.12-.63,1.69-.91,1-.3,1.92,.04,2.87,.21,.8,.2,1.59,.45,2.35,.82v.1h-.01Z">
</path>
<path d="M31.87,55.31c2.34,.86,5.09,1.12,7.37-.04,0,0,.05,.09,.05,.09-1.47,2.29-6.1,2.15-7.41-.05h0Z">
</path>
<polyline class="cls-5" points="23.68 56.13 23.68 60.72 9.02 64.98">
</polyline>
<polyline class="cls-5" points="47.31 56.13 47.31 60.72 61.97 64.98">
</polyline>
<path class="cls-5" d="M47.35,60.72s-1.36,5.62-9.43,7.25c-.72,1.82-1.68,3.98-2.4,5.58-.73-1.6-1.69-3.76-2.41-5.58-8.07-1.63-9.43-7.25-9.43-7.25">
</path>
<path class="cls-5" d="M21.09,61.73s-.65,6.35,1.88,12.7">
</path>
<path class="cls-5" d="M49.98,61.73s.65,6.35-1.88,12.7">
</path>
</g>
<path class="cls-12" d="M54.92,24.88c-10.13-5.67-22.27-4.28-33.33-2.82,0,0-.03-.1-.03-.1l4.21-.98c7.05-1.35,14.44-1.81,21.43,.13,2.45,.76,6.07,1.99,7.71,3.77h0Z">
</path>
<path class="cls-12" d="M49.59,20.39s-2.46-9.27-15.34-9.02c-6.48,2.79,3.03,3.94,15.34,9.02Z">
</path>
<path class="cls-15" d="M8.03,65.74c4.31-1.2,10.84-3.12,15.22-4.31,0,0,.03,.1,.03,.1-.58,.37-1.19,.63-1.79,.95-1.77,.78-3.74,1.54-5.59,2.05-2.32,.57-5.65,1.55-7.87,1.22h0Z">
</path>
</g>
</g>
 <g
     id="g2850">
    <g
       id="g2837">
      <path
         id="path1951"
         d="M 0.056640625 0.04296875 L 0.056640625 79.943359 L 69.308594 79.943359 L 69.308594 0.04296875 L 0.056640625 0.04296875 z M 33.615234 3.5957031 C 34.206332 3.5957038 34.786991 3.6051034 35.421875 3.6152344 C 44.430653 3.7671809 53.471255 5.1336733 61.560547 7.5546875 L 62.064453 7.7070312 L 62.25 8.1640625 C 66.070247 17.605006 66.990234 28.726438 66.990234 40.0625 C 66.990234 51.398562 65.972723 63.025755 61.988281 72.578125 L 61.791016 73.044922 L 61.275391 73.185547 C 53.273669 75.403966 44.691921 76.529297 35.759766 76.529297 C 35.212453 76.529297 34.675812 76.519896 34.150391 76.509766 L 33.943359 76.509766 C 24.901742 76.357819 15.860367 74.989738 7.7929688 72.558594 L 7.2890625 72.40625 L 7.1035156 71.951172 C 3.2942144 62.520359 2.375 51.369168 2.375 40.0625 C 2.375 28.755832 3.3819737 17.127318 7.3554688 7.5546875 L 7.5527344 7.0898438 L 8.0664062 6.9472656 C 15.509867 4.890923 23.785212 3.7371557 32.005859 3.6054688 C 32.542226 3.5953387 33.078867 3.5957031 33.615234 3.5957031 z "
         style="opacity:1;vector-effect:none;fill:#ffffff;fill-opacity:1;fill-rule:nonzero;stroke:none;stroke-width:1.95200002;stroke-linecap:butt;stroke-linejoin:miter;stroke-miterlimit:4;stroke-dasharray:none;stroke-dashoffset:0;stroke-opacity:1" />
    </g>
    <path
       id="path1154-8-2"
       d="m 33.675163,6.6112954 c 0.557696,0 1.115392,0.00956 1.683415,0.019115 8.427403,0.14336 16.803167,1.4049288 24.363042,3.6700176 3.573384,8.830981 4.443772,19.417362 4.443772,29.761551 0,10.344189 -0.95301,21.39888 -4.68131,30.334991 -7.435942,2.064385 -15.429581,3.274388 -23.774362,3.274388 -0.506058,0 -1.012115,-0.0096 -1.518172,-0.01911 h -0.17557 C 25.56792,73.508883 17.192156,72.088619 9.6426089,69.813973 6.0795528,61.002107 5.2088244,50.415411 5.2088244,40.061979 c 0,-10.353432 0.95335,-21.389323 4.6609939,-30.325434 C 16.820359,7.8155201 24.462856,6.7450981 32.177647,6.6208528 c 0.49573,-0.00956 1.001787,-0.00956 1.497516,-0.00956 m 0,-0.9557337 c -0.506057,0 -1.012114,0 -1.518171,0.00956 C 24.40089,5.7893644 16.593149,6.8789009 9.570315,8.8190405 L 9.0849131,8.9528432 8.8990146,9.3924808 C 5.1500599,18.424166 4.1999116,29.394246 4.1999116,40.061979 c 0,10.667733 0.8675267,21.188618 4.461566,30.0865 l 0.1755708,0.430081 0.4750741,0.14336 c 7.6115135,2.293761 16.1421925,3.584001 24.6728715,3.727361 h 0.196227 c 0.495729,0.0096 1.001786,0.01911 1.518171,0.01911 8.427403,0 16.524318,-1.060864 24.073866,-3.153921 l 0.485403,-0.133802 0.185898,-0.439639 c 3.759282,-9.01257 4.719759,-19.983589 4.719759,-30.679055 0,-10.695466 -0.867528,-21.188618 -4.471894,-30.0960578 L 60.516853,9.5358409 60.041779,9.3924808 C 52.409609,7.108277 43.87893,5.8180364 35.379234,5.6746763 34.780227,5.6651187 34.232859,5.6555621 33.675163,5.6555615 Z"
       style="fill:#ff0000;stroke:#ffffff;stroke-width:1.84341729;stroke-miterlimit:4;stroke-dasharray:none" />
    <path
       id="path1154"
       d="m 33.614853,4.6077955 c 0.591098,0 1.182197,0.01013 1.784241,0.02026 8.932155,0.1519464 17.809578,1.4890758 25.822246,3.8898304 3.787408,9.3599041 4.709928,20.5803481 4.709928,31.5440931 0,10.963745 -1.01009,22.680548 -4.961693,32.151879 -7.881312,2.18803 -16.353723,3.302304 -25.198307,3.302304 -0.536368,0 -1.072735,-0.01013 -1.609102,-0.02026 H 33.97608 C 25.022033,75.343956 16.14461,74.006827 8.1428892,71.595943 4.3664269,62.256298 3.443547,51.035521 3.443547,40.061979 c 0,-10.973542 1.01045,-22.670418 4.9401601,-32.1417498 7.3668369,-2.036083 15.4670749,-3.170617 23.6439369,-3.3023039 0.525421,-0.01013 1.061788,-0.01013 1.587209,-0.01013 m 0,-1.0129766 c -0.536367,0 -1.072734,0 -1.609101,0.01013 C 23.785105,3.7366356 15.509726,4.891429 8.0662653,6.9477716 L 7.5517907,7.0895883 7.3547579,7.5555576 C 3.3812628,17.128188 2.3742062,28.755311 2.3742062,40.061979 c 0,11.306668 0.9194864,22.457692 4.7287876,31.888505 l 0.1860865,0.45584 0.5035283,0.151947 c 8.0673984,2.431144 17.1090154,3.798662 26.1506324,3.950608 h 0.207979 c 0.525421,0.01013 1.061788,0.02026 1.609101,0.02026 8.932155,0 17.514028,-1.124404 25.51575,-3.342823 l 0.514475,-0.141816 0.197032,-0.46597 c 3.984442,-9.55237 5.002445,-21.180489 5.002445,-32.516551 0,-11.336062 -0.919487,-22.457692 -4.739734,-31.8986353 L 62.064202,7.7075041 61.560674,7.5555576 C 53.471382,5.1345434 44.429765,3.7670249 35.420987,3.6150784 c -0.634884,-0.01013 -1.215036,-0.020259 -1.806134,-0.02026 z"
       style="fill:#000000;stroke:#000000;stroke-width:1.95382714;stroke-miterlimit:4;stroke-dasharray:none" />
    <g
       id="g1810">
      <path
         d="M 6.5134911,7.7433673 C 5.6489029,6.8479453 4.058602,6.5681013 3.6272194,7.3820013 3.284151,8.0292783 3.3625296,8.5309135 4.395235,8.9201755 3.2963719,9.5187755 1.4857674,9.4447465 1.1893447,7.4467713 0.95320848,5.8551433 2.674739,4.8863543 3.1399725,5.0916244 3.0034432,3.6818714 1.8221094,4.0692802 0.95849208,3.2813384 0.34259068,2.7194046 0.23126071,-0.02624603 0.0561761,0.04378767 -0.0138576,0.21887227 2.7317937,0.33020157 3.2937267,0.94610377 4.0816685,1.8097211 3.6942598,2.9910547 5.1040128,3.1275841 4.8987425,2.6623507 5.8675315,0.94082017 7.4591593,1.1769564 9.4571345,1.4733791 9.5311625,3.2839847 8.9325635,4.3828467 8.5433008,3.3501417 8.041666,3.2717627 7.3943894,3.6148312 6.5804899,4.0462137 6.8603354,5.6365129 7.7557553,6.5011023"
         style="fill:#000000;stroke:#000000;stroke-width:0.1112323px;stroke-linecap:butt;stroke-linejoin:miter;stroke-opacity:1"
         id="path1737-3" />
      <path
         d="m 62.850738,7.7433673 c 0.864588,-0.895422 2.454889,-1.175266 2.886271,-0.361366 0.343069,0.647277 0.26469,1.148912 -0.768015,1.538174 1.098863,0.5986 2.909467,0.524571 3.20589,-1.473404 0.236136,-1.591628 -1.485394,-2.560417 -1.950628,-2.3551469 0.13653,-1.409753 1.317863,-1.0223442 2.181481,-1.810286 0.615901,-0.5619338 0.727231,-3.30758442 0.902316,-3.23755072 0.07003,0.1750846 -2.675618,0.2864139 -3.237551,0.9023161 C 65.28256,1.8097211 65.669969,2.9910547 64.260216,3.1275841 64.465486,2.6623507 63.496697,0.94082018 61.905069,1.1769564 c -1.997975,0.2964227 -2.072003,2.1070283 -1.473404,3.2058903 0.389263,-1.032705 0.890898,-1.111084 1.538174,-0.7680155 0.8139,0.4313825 0.534054,2.0216817 -0.361366,2.8862711"
         style="fill:#000000;stroke:#000000;stroke-width:0.1112323px;stroke-linecap:butt;stroke-linejoin:miter;stroke-opacity:1"
         id="path1737-3-5" />
      <path
         d="m 62.850738,72.244244 c 0.864588,0.895422 2.454889,1.175266 2.886272,0.361366 0.343068,-0.647277 0.264689,-1.148912 -0.768016,-1.538174 1.098863,-0.5986 2.909468,-0.524571 3.20589,1.473404 0.236137,1.591628 -1.485394,2.560417 -1.950628,2.355147 0.13653,1.409753 1.317864,1.022344 2.181481,1.810286 0.615901,0.561934 0.727231,3.307584 0.902316,3.237551 0.07003,-0.175085 -2.675618,-0.286414 -3.237551,-0.902317 -0.787942,-0.863617 -0.400533,-2.04495 -1.810286,-2.18148 0.20527,0.465234 -0.763519,2.186764 -2.355146,1.950628 -1.997976,-0.296423 -2.072004,-2.107028 -1.473405,-3.20589 0.389263,1.032705 0.890898,1.111084 1.538175,0.768015 0.813899,-0.431382 0.534054,-2.021682 -0.361366,-2.886271"
         style="fill:#000000;stroke:#000000;stroke-width:0.1112323px;stroke-linecap:butt;stroke-linejoin:miter;stroke-opacity:1"
         id="path1737-3-7" />
      <path
         d="M 6.513491,72.244245 C 5.648903,73.139667 4.058602,73.419511 3.62722,72.605611 3.284151,71.958334 3.36253,71.456699 4.395235,71.067437 c -1.098863,-0.5986 -2.909467,-0.524571 -3.20589,1.473404 -0.23613599,1.591628 1.485394,2.560417 1.950628,2.355147 -0.13653,1.409753 -1.317863,1.022344 -2.18148099,1.810286 -0.615901,0.561933 -0.727231,3.307584 -0.902316,3.23755 C -0.01385399,79.76874 2.731794,79.65741 3.293727,79.041508 4.081669,78.177891 3.69426,76.996557 5.104013,76.860028 4.898743,77.325261 5.867532,79.046792 7.45916,78.810656 9.457135,78.514233 9.531163,76.703627 8.932564,75.604765 8.543301,76.63747 8.041666,76.715849 7.39439,76.372781 6.58049,75.941398 6.860336,74.351099 7.755756,73.48651"
         style="fill:#000000;stroke:#000000;stroke-width:0.1112323px;stroke-linecap:butt;stroke-linejoin:miter;stroke-opacity:1"
         id="path1737-3-5-5" />
    </g>
    <path
       id="path1154-9"
       d="m 33.712865,7.4258691 c 0.536813,0 1.07363,0.00933 1.620386,0.01865 8.111875,0.1398689 16.174044,1.3707167 23.450873,3.5806479 3.439594,8.615932 4.277395,18.944521 4.277395,29.036812 0,10.092292 -0.917329,20.877786 -4.506039,29.596289 -7.157536,2.014114 -14.851888,3.03982 -22.884234,3.03982 -0.487111,0 -0.974221,-0.0094 -1.461331,-0.01865 H 34.040918 C 25.909161,72.53957 17.846991,71.308722 10.580105,69.089467 7.1504515,60.492184 6.3123238,50.163289 6.3123238,40.061979 c 0,-10.101311 0.9176558,-20.868461 4.4864832,-29.586965 6.690308,-1.8742449 14.046665,-2.9186005 21.472608,-3.0398203 0.47717,-0.00933 0.964281,-0.00933 1.44145,-0.00933 m 0,-0.9324602 c -0.487111,0 -0.974221,0 -1.46133,0.00933 C 24.785826,6.6239532 17.270413,7.686958 10.510517,9.5798526 L 10.043289,9.710397 9.8643508,10.139328 c -3.6085914,8.811751 -4.5231655,19.514693 -4.5231655,29.922651 0,10.407958 0.8350459,20.672644 4.294522,29.353849 l 0.1689973,0.419608 0.4572874,0.13987 c 7.326533,2.237904 15.537818,3.496724 23.749103,3.636593 h 0.188879 c 0.47717,0.0094 0.96428,0.01865 1.461331,0.01865 8.111875,0 15.905636,-1.035031 23.172525,-3.077119 l 0.467228,-0.130544 0.178938,-0.428932 c 3.618533,-8.793101 4.543048,-19.496959 4.543048,-29.931975 0,-10.435016 -0.835047,-20.672644 -4.304463,-29.363174 l -0.168997,-0.419609 -0.457288,-0.13987 C 51.74588,7.9107484 43.534594,6.6519271 35.353133,6.512058 34.776554,6.502738 34.249678,6.493409 33.712865,6.493409 Z"
       style="fill:#000000;stroke:none;stroke-width:1.78642213;stroke-miterlimit:4;stroke-dasharray:none" />
    <path
       id="path1154-9-3"
       d="m 33.712865,7.4258686 c 0.536813,0 1.07363,0.00933 1.620386,0.01865 8.111875,0.1398689 16.174044,1.3707167 23.450873,3.5806484 3.439594,8.615932 4.277395,18.944521 4.277395,29.036812 0,10.092292 -0.917329,20.877786 -4.506039,29.596288 -7.157536,2.014114 -14.851888,3.03982 -22.884234,3.03982 -0.487111,0 -0.974221,-0.0094 -1.461331,-0.01865 H 34.040918 C 25.909161,72.539569 17.846991,71.308722 10.580105,69.089466 7.1504515,60.492184 6.3123238,50.163288 6.3123238,40.061979 c 0,-10.101312 0.9176558,-20.868461 4.4864832,-29.586965 6.690308,-1.8742454 14.046665,-2.918601 21.472608,-3.0398208 0.47717,-0.00933 0.964281,-0.00933 1.44145,-0.00933 m 0,-0.9324602 c -0.487111,0 -0.974221,0 -1.46133,0.00933 C 24.785826,6.6239527 17.270413,7.6869575 10.510517,9.5798521 L 10.043289,9.7103965 9.8643508,10.139328 C 6.2557594,18.951079 5.3411853,29.65402 5.3411853,40.061979 c 0,10.407958 0.8350459,20.672643 4.294522,29.353849 l 0.1689973,0.419608 0.4572874,0.13987 c 7.326533,2.237904 15.537818,3.496724 23.749103,3.636593 h 0.188879 c 0.47717,0.0094 0.96428,0.01865 1.461331,0.01865 8.111875,0 15.905636,-1.035032 23.172525,-3.077119 l 0.467228,-0.130544 0.178938,-0.428932 c 3.618533,-8.793101 4.543048,-19.49696 4.543048,-29.931975 0,-10.435016 -0.835047,-20.672644 -4.304463,-29.363175 l -0.168997,-0.419609 -0.457288,-0.13987 C 51.74588,7.9107479 43.534594,6.6519266 35.353133,6.5120575 34.776554,6.5027375 34.249678,6.4934085 33.712865,6.4934085 Z"
       style="fill:#000000;stroke:none;stroke-width:1.78642213;stroke-miterlimit:4;stroke-dasharray:none" />
  </g>
</svg>
