<?xml version="1.0" encoding="UTF-8"?><svg id="Capa_2" xmlns="http://www.w3.org/2000/svg" xmlns:xlink="http://www.w3.org/1999/xlink" viewBox="0 0 69.02 80"><defs><style>.cls-1{fill:#c89aed;}.cls-2{fill:#fff;}.cls-3{fill:#f8ffbf;}.cls-4{fill:#7b7be8;}.cls-5{fill:#a88347;}.cls-6{fill:#782ab5;}.cls-7,.cls-8,.cls-9,.cls-10,.cls-11,.cls-12{fill:none;}.cls-7,.cls-8,.cls-12{stroke-miterlimit:10;}.cls-7,.cls-12{stroke:#000;}.cls-8{stroke:#c89aed;stroke-width:2px;}.cls-13{fill:#1c46ff;}.cls-9{stroke:#deb778;stroke-dasharray:0 0 0 4.06;stroke-linecap:round;stroke-linejoin:round;}.cls-14{fill:#deb778;}.cls-15{fill:url(#USGS_19_Inundación_de_tierra_2);}.cls-11{stroke:#1d1d1b;stroke-dasharray:0 0 2 2;stroke-width:.3px;}.cls-16{fill:#fcf0c5;}.cls-12{stroke-width:.5px;}.cls-17{fill:#b83521;}</style><pattern id="USGS_19_Inundación_de_tierra_2" x="0" y="0" width="72" height="72" patternTransform="translate(-308.48 -16351) rotate(-90)" patternUnits="userSpaceOnUse" viewBox="0 0 72 72"><g><rect class="cls-10" width="72" height="72"/><g><line class="cls-11" x1="71" y1="71" x2="144.44" y2="71"/><line class="cls-11" x1="71" y1="67" x2="144.44" y2="67"/><line class="cls-11" x1="71" y1="63" x2="144.44" y2="63"/><line class="cls-11" x1="71" y1="59" x2="144.44" y2="59"/><line class="cls-11" x1="71" y1="55" x2="144.44" y2="55"/><line class="cls-11" x1="71" y1="51" x2="144.44" y2="51"/><line class="cls-11" x1="71" y1="47" x2="144.44" y2="47"/><line class="cls-11" x1="71" y1="43" x2="144.44" y2="43"/><line class="cls-11" x1="71" y1="39" x2="144.44" y2="39"/><line class="cls-11" x1="71" y1="35" x2="144.44" y2="35"/><line class="cls-11" x1="71" y1="31" x2="144.44" y2="31"/><line class="cls-11" x1="71" y1="27" x2="144.44" y2="27"/><line class="cls-11" x1="71" y1="23" x2="144.44" y2="23"/><line class="cls-11" x1="71" y1="19" x2="144.44" y2="19"/><line class="cls-11" x1="71" y1="15" x2="144.44" y2="15"/><line class="cls-11" x1="71" y1="11" x2="144.44" y2="11"/><line class="cls-11" x1="71" y1="7" x2="144.44" y2="7"/><line class="cls-11" x1="71" y1="3" x2="144.44" y2="3"/></g><g><line class="cls-11" x1="-1" y1="71" x2="72.44" y2="71"/><line class="cls-11" x1="-1" y1="67" x2="72.44" y2="67"/><line class="cls-11" x1="-1" y1="63" x2="72.44" y2="63"/><line class="cls-11" x1="-1" y1="59" x2="72.44" y2="59"/><line class="cls-11" x1="-1" y1="55" x2="72.44" y2="55"/><line class="cls-11" x1="-1" y1="51" x2="72.44" y2="51"/><line class="cls-11" x1="-1" y1="47" x2="72.44" y2="47"/><line class="cls-11" x1="-1" y1="43" x2="72.44" y2="43"/><line class="cls-11" x1="-1" y1="39" x2="72.44" y2="39"/><line class="cls-11" x1="-1" y1="35" x2="72.44" y2="35"/><line class="cls-11" x1="-1" y1="31" x2="72.44" y2="31"/><line class="cls-11" x1="-1" y1="27" x2="72.44" y2="27"/><line class="cls-11" x1="-1" y1="23" x2="72.44" y2="23"/><line class="cls-11" x1="-1" y1="19" x2="72.44" y2="19"/><line class="cls-11" x1="-1" y1="15" x2="72.44" y2="15"/><line class="cls-11" x1="-1" y1="11" x2="72.44" y2="11"/><line class="cls-11" x1="-1" y1="7" x2="72.44" y2="7"/><line class="cls-11" x1="-1" y1="3" x2="72.44" y2="3"/><line class="cls-11" x1="1.04" y1="69" x2="74.48" y2="69"/><line class="cls-11" x1="1.04" y1="65" x2="74.48" y2="65"/><line class="cls-11" x1="1.04" y1="61" x2="74.48" y2="61"/><line class="cls-11" x1="1.04" y1="57" x2="74.48" y2="57"/><line class="cls-11" x1="1.04" y1="53" x2="74.48" y2="53"/><line class="cls-11" x1="1.04" y1="49" x2="74.48" y2="49"/><line class="cls-11" x1="1.04" y1="45" x2="74.48" y2="45"/><line class="cls-11" x1="1.04" y1="41" x2="74.48" y2="41"/><line class="cls-11" x1="1.04" y1="37" x2="74.48" y2="37"/><line class="cls-11" x1="1.04" y1="33" x2="74.48" y2="33"/><line class="cls-11" x1="1.04" y1="29" x2="74.48" y2="29"/><line class="cls-11" x1="1.04" y1="25" x2="74.48" y2="25"/><line class="cls-11" x1="1.04" y1="21" x2="74.48" y2="21"/><line class="cls-11" x1="1.04" y1="17" x2="74.48" y2="17"/><line class="cls-11" x1="1.04" y1="13" x2="74.48" y2="13"/><line class="cls-11" x1="1.04" y1="9" x2="74.48" y2="9"/><line class="cls-11" x1="1.04" y1="5" x2="74.48" y2="5"/><line class="cls-11" x1="1.04" y1="1" x2="74.48" y2="1"/></g><g><line class="cls-11" x1="-73" y1="71" x2=".44" y2="71"/><line class="cls-11" x1="-73" y1="67" x2=".44" y2="67"/><line class="cls-11" x1="-73" y1="63" x2=".44" y2="63"/><line class="cls-11" x1="-73" y1="59" x2=".44" y2="59"/><line class="cls-11" x1="-73" y1="55" x2=".44" y2="55"/><line class="cls-11" x1="-73" y1="51" x2=".44" y2="51"/><line class="cls-11" x1="-73" y1="47" x2=".44" y2="47"/><line class="cls-11" x1="-73" y1="43" x2=".44" y2="43"/><line class="cls-11" x1="-73" y1="39" x2=".44" y2="39"/><line class="cls-11" x1="-73" y1="35" x2=".44" y2="35"/><line class="cls-11" x1="-73" y1="31" x2=".44" y2="31"/><line class="cls-11" x1="-73" y1="27" x2=".44" y2="27"/><line class="cls-11" x1="-73" y1="23" x2=".44" y2="23"/><line class="cls-11" x1="-73" y1="19" x2=".44" y2="19"/><line class="cls-11" x1="-73" y1="15" x2=".44" y2="15"/><line class="cls-11" x1="-73" y1="11" x2=".44" y2="11"/><line class="cls-11" x1="-73" y1="7" x2=".44" y2="7"/><line class="cls-11" x1="-73" y1="3" x2=".44" y2="3"/><line class="cls-11" x1="-70.96" y1="69" x2="2.48" y2="69"/><line class="cls-11" x1="-70.96" y1="65" x2="2.48" y2="65"/><line class="cls-11" x1="-70.96" y1="61" x2="2.48" y2="61"/><line class="cls-11" x1="-70.96" y1="57" x2="2.48" y2="57"/><line class="cls-11" x1="-70.96" y1="53" x2="2.48" y2="53"/><line class="cls-11" x1="-70.96" y1="49" x2="2.48" y2="49"/><line class="cls-11" x1="-70.96" y1="45" x2="2.48" y2="45"/><line class="cls-11" x1="-70.96" y1="41" x2="2.48" y2="41"/><line class="cls-11" x1="-70.96" y1="37" x2="2.48" y2="37"/><line class="cls-11" x1="-70.96" y1="33" x2="2.48" y2="33"/><line class="cls-11" x1="-70.96" y1="29" x2="2.48" y2="29"/><line class="cls-11" x1="-70.96" y1="25" x2="2.48" y2="25"/><line class="cls-11" x1="-70.96" y1="21" x2="2.48" y2="21"/><line class="cls-11" x1="-70.96" y1="17" x2="2.48" y2="17"/><line class="cls-11" x1="-70.96" y1="13" x2="2.48" y2="13"/><line class="cls-11" x1="-70.96" y1="9" x2="2.48" y2="9"/><line class="cls-11" x1="-70.96" y1="5" x2="2.48" y2="5"/><line class="cls-11" x1="-70.96" y1="1" x2="2.48" y2="1"/></g></g></pattern></defs><g id="BG"><g><path class="cls-6" d="M64.02,40c0,11.47-1.89,22.39-5.5,31.74-7.2,2.16-14.94,3.26-23.02,3.26-.49,0-.98-.01-1.47-.02h-.17c-8.18-.15-16.29-1.47-23.6-3.85-3.45-9.22-5.26-19.93-5.26-31.13s1.89-22.38,5.48-31.73c6.73-2.01,14.13-3.13,21.6-3.26,.48-.01,.97-.01,1.45-.01,.54,0,1.08,.01,1.63,.02,8.16,.15,16.27,1.47,23.59,3.84,3.46,9.24,5.27,19.95,5.27,31.14Z"/><path class="cls-15" d="M34.03,5.59V74.98h-.17c-8.18-.15-16.29-1.47-23.6-3.85-3.45-9.22-5.26-19.93-5.26-31.13s1.89-22.38,5.48-31.73c6.73-2.01,14.13-3.13,21.6-3.26,.65,.16,1.3,.36,1.95,.58Z"/></g></g><g id="Capa_9"><g><g><path class="cls-5" d="M61.58,67.59l-1.17,6.57-28.93,3.5-22.89-5.2,.1-5.4,14.14-4.16,.28-.08,.53-7.63s-3.29-3.71-4.14-7.74c-1.69-.95-2.12-3.81-2.12-3.81,0,0-.04-.03-.12-.09h-.01c-.67-.5-3.51-2.75-2.94-5-3.21-5.49-1.87-12.59,6.3-17.95,.19-.14,.39-.27,.59-.39,6.99-6.04,16.74-12.61,23.21-10.6,2.65,1.06,2.44,2.33,2.44,2.33,0,0,3.71-1.58,3.49,2.97-.18,3.87,1.4,11.65,1.89,13.9,.08,.39,.13,.62,.13,.62,0,0,6.89,7.32,1.06,13.57,1.66,2.53-2.51,5.71-4.03,6.76-.08,.05-.15,.1-.21,.13-.2,.13-.32,.21-.32,.21,0,0-1.8,4.03-3.6,5.3,.63,5.94,.63,7.31,.63,7.31l15.69,4.88Z"/><path class="cls-1" d="M50.31,39.59c-.24,6.23-1.24,10.1-1.24,10.1l.11,.2c-.2,.13-.32,.21-.32,.21,0,0-1.8,4.03-3.6,5.3,.63,5.94,.63,7.31,.63,7.31-.78,3.07-3.42,9.78-12.15,9.86-7.65-.29-10.43-8.12-10.91-9.67l.28-.08,.53-7.63s-3.29-3.71-4.14-7.74c-1.69-.95-2.12-3.81-2.12-3.81,0,0-.04-.03-.12-.09l2.06,.92s-2.23-10.94-.53-16.27c1.69-5.34,7.31-5.76,7.31-5.76,0,0,1.98,.82,8.21,6.4,5.66,5.34,14.71,1.86,14.71,1.86,0,0,1.53,2.67,1.29,8.89Z"/><path class="cls-17" d="M26.1,22.44s-4.16,.3-6.7,4.54c-2.54,4.24-.85,11.48-.46,13.72,.38,2.23,.38,3.77,.38,3.77l-2.06-.92h-.01c-.67-.5-3.51-2.75-2.94-5-3.21-5.49-1.87-12.59,6.3-17.95l1.03-.09s3.39,.23,4.46,1.93Z"/><path class="cls-17" d="M53.42,43c1.66,2.53-2.51,5.71-4.03,6.76l-.32-.07s.55-2.76,1.2-8.39c.55-4.71-.92-10.98-.92-10.98l2.67-1.48,.21-.03c.08,.39,.13,.62,.13,.62,0,0,6.89,7.32,1.06,13.57Z"/><path class="cls-5" d="M52.23,28.81s-5.78,3.47-10.37,3c-4.58-.47-10.57-4.12-13.75-7.67-3.18-3.56-6.91-3.93-6.91-3.93,6.99-6.04,16.74-12.61,23.21-10.6,2.65,1.06,2.44,2.33,2.44,2.33,0,0,3.71-1.58,3.49,2.97-.18,3.87,1.4,11.65,1.89,13.9Z"/><path class="cls-4" d="M30.63,40l1.17-3.16s-3.65-2.65-6.2-2.91c-3.28,.21-4.71,2.07-4.71,2.07,0,0,1.48,3.71,2.17,4.29,.74,.69,5.08,1.94,7.57-.29Z"/><path class="cls-2" d="M34.39,62.68V29.13s4.55,3.46,9.37,2.64c4.64-.64,5.59-1.44,5.59-1.44,0,0,1.68,7.63,.77,13.72s-2.27,8.82-3.55,10.28-4,3.55-5.55,5.27-3.18,3.36-6.64,3.09Z"/><path class="cls-3" d="M30.63,40s-2.35-2.47-4.15-2.23-3.13,2.29-3.13,2.29c0,0,1.27,2.29,3.61,2.11,2-.15,3.37-1.14,3.67-2.17Z"/><path class="cls-4" d="M38.77,40l-1.17-3.16s3.65-2.65,6.2-2.91c3.28,.21,4.49,2.05,4.49,2.05,0,0-1.26,3.72-1.94,4.3-.74,.69-5.08,1.94-7.57-.29Z"/><path class="cls-3" d="M38.77,40s2.35-2.47,4.15-2.23,3.13,2.29,3.13,2.29c0,0-1.27,2.29-3.61,2.11-2-.15-3.37-1.14-3.67-2.17Z"/><path class="cls-4" d="M29.13,52.3s.83,0,1.9-.54,2.39,.54,3.55,.33,2.81-.58,3.71-.29,2.23,.5,2.23,.5c-1.32,.66-2.72,1.73-3.26,2.27s-3.51,1.03-4.87,.29-2.27-2.52-3.26-2.56Z"/><path class="cls-14" d="M49.33,12.9s-.38,5.2-2.45,4.36c-1.15,3.67-6.81,12.01-12.31,11.62,6.5,4.13,14.1,3.44,17.45-.04-.78-9.83-1.85-16.02-2.69-15.94Z"/><path class="cls-2" d="M44.18,58.36s-2.16,2.02-2.99,3.13-7.24,9.78-7.24,9.78c0,0,7.69,.07,10.6-8.51-.07-3.13-.37-4.4-.37-4.4Z"/><path class="cls-14" d="M46.05,63.21s-1.72,6.64-9.63,9.26c2.99,3.81,5.67,4.7,5.67,4.7l16.87-4.18,.6-6.42-13.51-3.36Z"/><path d="M39.27,61.89l-11.95,15.15-17.72-2.81-1.02-7.5,14.53-3.91,.53-7.63s4.46,4.12,5.4,5.06,1.56,1.95,3.75,2.26,5.15,.08,6.48-.62Z"/><path class="cls-2" d="M28.98,43.22c-1.19,.39-3.2,.79-4.9-.11-.4-.21-.84,.16-.72,.59,1.08,4.02,4.12,5.36,6.25,.21,.16-.4-.21-.82-.63-.69Z"/><path d="M18.88,22.16s-1.67,3.65,1.67,3.19c-3.34,6-2.58,9.42-2.28,12.38s1.14,9.11,1.14,9.11c0,0-1.22-.53-1.75-3.11-3.72-3.11-3.72-4.25-3.42-5.62-3.65-4.48-.76-9.65,.46-11.7s4.18-4.25,4.18-4.25Z"/><path class="cls-8" d="M48.55,30.74s1.67,4.3,1.18,10.76-1.59,10.34-5.34,13.95c-3.89,3.68-5.42,5.9-6.94,6.31s-4.65,.28-4.65,.28"/><path class="cls-7" d="M19.28,44.62c-6.33-3.36-4.89-6.62-4.89-6.62,0,0-2.4-1.92-1.53-7.39,.86-5.47,8.06-10.26,8.06-10.26,0,0,13.04-12.31,23.26-10.91,2.66,.61,2.47,2.47,2.47,2.47,0,0,3.3-.78,3.69,2.88,.4,3.66,1.68,14.55,1.68,14.55,0,0,6.83,8.11,1.39,13.56,1.48,3.46-4.45,6.93-4.45,6.93"/><path class="cls-7" d="M20.91,20.35s3.52-.16,8.22,4.29c5.64,5.33,12.6,10.13,22.65,4.45"/><path class="cls-7" d="M26.52,22.47s-4.53-.23-7.35,4.93c-2.74,5.08,0,12.74,.31,18.53s5.63,11.02,8.83,13.6c2.19,1.8,2.42,3.13,6.1,3.13s4.14-.55,6.1-2.66,7.74-5.79,9.07-12.59,.94-13.84-.39-17.04"/><path class="cls-7" d="M17.31,43.52s.56,3.03,2.13,3.48"/><path d="M20.87,36.02s3.22-2.96,5.05-3.03,5.84,.66,6.1,2.93c-.06,1.32-.32,1.07-.32,1.07,0,0-4.39-2.11-6.16-2.49-2.33,0-4.67,1.51-4.67,1.51Z"/><path d="M30.11,39.51c-2.49-1.85-4.47-1.73-6.34,.8,0,0,0-.55,0-.55,.53,.74,1.29,1.44,2.15,1.81,.92,.42,1.94,.36,2.92,.09-.88,.64-2.08,.91-3.15,.59-1.22-.34-2.22-1.17-2.92-2.22,1.92-3.04,5.15-3.65,7.34-.53h0Z"/><path d="M48.42,36.02s-3.22-2.96-5.05-3.03-5.84,.66-6.1,2.93c.06,1.32,.32,1.07,.32,1.07,0,0,4.39-2.11,6.16-2.49,2.33,0,4.67,1.51,4.67,1.51Z"/><path d="M39.17,39.51c2.19-3.12,5.42-2.51,7.34,.53-.71,1.06-1.7,1.88-2.92,2.22-1.08,.32-2.27,.04-3.15-.59,.98,.27,2,.33,2.92-.09,.86-.37,1.62-1.07,2.15-1.81v.55c-1.87-2.54-3.85-2.65-6.33-.8h0Z"/><path d="M31.53,46.7c.82,.31,2.25,1.04,3.09,1.02,.45,0,.97-.16,1.49-.34l1.64-.62c-1.62,2.55-4.67,2.57-6.22-.05h0Z"/><path d="M35.05,52.69c1.15-.17,1.99-.84,3.48-.51s2.16,.14,2.16,.14c0,0-.61,0-1.49-.68s-2.5-1.96-4.39-.47h-.34c-1.89-1.49-3.51-.2-4.39,.47s-1.49,.68-1.49,.68c0,0,.68,.2,2.16-.14s2.33,.34,3.48,.51h.81Z"/><path d="M39.3,53.21c-.38,.19-.81,.4-.95,.69-.72,1.25-2.33,1.78-3.66,1.72-1.33,.06-2.95-.47-3.66-1.71-.14-.29-.57-.51-.95-.69,.44,0,.91,0,1.34,.39,1.45,1.29,3.85,1.27,5.58,.64,.35-.16,.69-.37,.98-.64,.43-.38,.9-.4,1.34-.39h0Z"/><path class="cls-12" d="M33.71,11.56s8.75-2.37,10.11,13.12c4.23-1.22,7.03-5.16,7.03-5.16"/><polyline class="cls-7" points="23.46 54.69 23.19 62.74 7.06 67.75"/><polyline class="cls-7" points="45.49 55.23 45.76 62.74 61.89 67.75"/><path class="cls-7" d="M23.19,62.74s1.36,9.77,10.63,9.77c10.25,0,11.93-9.77,11.93-9.77"/><path d="M44.98,10.94c1.73,1.31,1.93,3.66,2.12,5.64,.28,1.48,1.43,.03,1.45-.8,.16,.39,.17,.86,0,1.3-.26,.8-1.36,1.32-2.02,.44-.44-.57-.5-1.35-.55-1.99-.08-1.59-.34-3.11-1-4.59h0Z"/><path class="cls-7" d="M16.51,64.87s.59,7.64,9.76,12.74c3.4-2.21,6.54-5.01,6.54-5.01"/><path class="cls-7" d="M52,64.87s-.59,7.64-9.76,12.74c-3.4-2.21-6.54-5.01-6.54-5.01"/></g><path class="cls-13" d="M15.48,26.73c-1.33,3.36-1.56,7.1,.14,10.34-.23,1.9,.34,3.72,1.77,5.1,0,0-.05,.09-.05,.09-1.76-.94-2.79-3.26-2.64-5.03-1.95-3.27-1.45-7.51,.7-10.56,0,0,.08,.06,.08,.06h0Z"/><path class="cls-13" d="M24.34,57.97c.35,1.94,.45,3.91,.51,5.87-3.28,1.29-6.63,2.37-10.09,3.04-1.09,.24-2.2,.41-3.32,.52,0,0-.03-.1-.03-.1,4.21-1.36,8.4-2.76,12.63-4.06l-.05,.07,.26-5.35h.1Z"/><path d="M27.03,22.93s-1.88-3.26,2.67-6.82,16.21-3.16,14.43-6.33c-7.71-.49-10.87,1.78-18.98,7.02-2.77,2.17-4.15,3.46-4.15,3.46,0,0,3.85,.4,6.03,2.67Z"/></g></g><g id="Frame"><path class="cls-5" d="M62.56,4.88C54.4,1.94,45.12,.2,35.25,.02c-.57-.01-1.15-.02-1.72-.02C23.88,0,14.77,1.52,6.72,4.21,2.49,14.22,0,26.6,0,40s2.39,25.22,6.45,35.11c8.16,2.94,17.45,4.69,27.32,4.87,.58,.01,1.15,.02,1.73,.02,9.63,0,18.73-1.51,26.78-4.2,4.24-10.01,6.74-22.39,6.74-35.8s-2.4-25.24-6.46-35.12Zm-4.04,66.86c-7.2,2.16-14.94,3.26-23.02,3.26-.49,0-.98-.01-1.47-.02h-.17c-8.18-.15-16.29-1.47-23.6-3.85-3.45-9.22-5.26-19.93-5.26-31.13s1.89-22.38,5.48-31.73c6.73-2.01,14.13-3.13,21.6-3.26,.48-.01,.97-.01,1.45-.01,.54,0,1.08,.01,1.63,.02,8.16,.15,16.27,1.47,23.59,3.84,3.46,9.24,5.27,19.95,5.27,31.14s-1.89,22.39-5.5,31.74Z"/><path class="cls-14" d="M17.21,2.06h0c1.63,.63,2.06,2.75,.81,3.97l-1.26,1.22s8.35-2.37,18.84-1.69h0c-1-1.49-.45-3.52,1.14-4.34l1-.51S28.26-.43,17.21,2.06Z"/><path class="cls-16" d="M21.81,1.66s.7,2.18-.22,3.1c3.77-.41,7.98-.74,11.12-.74-.33-1.33,1.26-3.4,1.26-3.4,0,0-6.17-.26-12.16,1.03Z"/><path class="cls-14" d="M36.25,79.21h0c-1.52-.87-1.62-3.03-.2-4.04l1.43-1.02s-8.61,1.07-18.88-1.19h0c.76,1.63-.09,3.55-1.79,4.11l-1.07,.36s9.19,2.56,20.5,1.78Z"/><path class="cls-16" d="M19.28,77.8s1.76-1.83,1.3-3.09c4.43,.69,9.11,1.14,12.25,1.14-.33,1.33,.44,3.4,.44,3.4,0,0-8-.16-13.99-1.45Z"/><polygon points="47.48 1.77 47.48 6.73 54.49 8.44 54.49 2.62 47.48 1.77"/><line class="cls-7" x1="45.5" y1="1.23" x2="45.5" y2="6.29"/><line class="cls-7" x1="56.47" y1="3.67" x2="56.47" y2="8.73"/><polygon points="47.48 78.74 47.48 73.78 54.49 72.07 54.49 77.88 47.48 78.74"/><line class="cls-7" x1="45.5" y1="79.28" x2="45.5" y2="74.21"/><line class="cls-7" x1="56.47" y1="76.84" x2="56.47" y2="71.77"/><path d="M33.53,1c.56,0,1.14,0,1.7,.02,9.39,.17,18.33,1.74,26.57,4.65,4.07,10.08,6.22,21.94,6.22,34.33s-2.24,24.79-6.49,34.99c-8.12,2.66-16.87,4.01-26.03,4.01-.56,0-1.12,0-1.71-.02-9.25-.17-18.42-1.78-26.58-4.66C3.15,64.25,1,52.39,1,40S3.23,15.21,7.47,5.02C15.6,2.35,24.37,1,33.53,1m0-1C23.88,0,14.77,1.52,6.72,4.21,2.49,14.22,0,26.6,0,40s2.39,25.22,6.45,35.11c8.16,2.94,17.45,4.69,27.32,4.87,.58,.01,1.15,.02,1.73,.02,9.63,0,18.73-1.51,26.78-4.2,4.24-10.01,6.74-22.39,6.74-35.8s-2.4-25.24-6.46-35.12C54.4,1.94,45.12,.2,35.25,.02c-.57,0-1.15-.02-1.72-.02h0Z"/><path class="cls-14" d="M33.53,6c.52,0,1.04,0,1.61,.02,7.87,.14,15.75,1.4,22.84,3.64,3.3,9,5.04,19.47,5.04,30.34s-1.82,21.82-5.26,30.92c-6.98,2.04-14.47,3.08-22.26,3.08-.48,0-.97,0-1.47-.02h-.15c-7.89-.14-15.78-1.41-22.85-3.65-3.29-8.99-5.03-19.46-5.03-30.33s1.81-21.79,5.24-30.91c6.5-1.89,13.7-2.95,20.86-3.08,.47,0,.96,0,1.43,0m0-1c-.48,0-.97,0-1.45,.01-7.47,.13-14.87,1.25-21.6,3.26-3.59,9.35-5.48,20.26-5.48,31.73s1.81,21.91,5.26,31.13c7.31,2.38,15.42,3.7,23.6,3.85h.17c.49,.01,.98,.02,1.47,.02,8.08,0,15.82-1.1,23.02-3.26,3.61-9.35,5.5-20.27,5.5-31.74s-1.81-21.9-5.27-31.14c-7.32-2.37-15.43-3.69-23.59-3.84-.55,0-1.09-.02-1.63-.02h0Z"/><path d="M33.53,5c.54,0,1.08,.01,1.63,.02,8.16,.15,16.27,1.47,23.59,3.84,3.46,9.24,5.27,19.95,5.27,31.14s-1.89,22.39-5.5,31.74c-7.2,2.16-14.94,3.26-23.02,3.26-.49,0-.98-.01-1.47-.02h-.17c-8.18-.15-16.29-1.47-23.6-3.85-3.45-9.22-5.26-19.93-5.26-31.13s1.89-22.38,5.48-31.73c6.73-2.01,14.13-3.13,21.6-3.26,.48-.01,.97-.01,1.45-.01m0-1c-.49,0-.98,0-1.47,.01-7.51,.13-15.07,1.27-21.87,3.3l-.47,.14-.18,.46c-3.63,9.45-5.55,20.55-5.55,32.09s1.84,22.17,5.32,31.48l.17,.45,.46,.15c7.37,2.4,15.63,3.75,23.89,3.9h.19c.48,.01,.97,.02,1.47,.02,8.16,0,16-1.11,23.31-3.3l.47-.14,.18-.46c3.64-9.43,5.57-20.53,5.57-32.1s-1.84-22.17-5.33-31.49l-.17-.45-.46-.15c-7.39-2.39-15.65-3.74-23.88-3.89-.58-.01-1.12-.02-1.65-.02h0Z"/><path class="cls-9" d="M8.14,7.1s-12.66,32.94,0,66.06"/><path class="cls-9" d="M60.88,7.58s12.66,32.94,0,66.06"/></g></svg>