<?xml version="1.0" encoding="UTF-8"?><svg id="Capa_2" xmlns="http://www.w3.org/2000/svg" xmlns:xlink="http://www.w3.org/1999/xlink" viewBox="0 0 69.02 80"><defs><style>.cls-1{fill:#c89aed;}.cls-2{fill:#fff;}.cls-3{fill:#f8ffbf;}.cls-4{fill:#7b7be8;}.cls-5,.cls-6{stroke:#000;}.cls-5,.cls-6,.cls-7,.cls-8,.cls-9,.cls-10{fill:none;}.cls-5,.cls-7{stroke-linejoin:round;}.cls-11{fill:#a88347;}.cls-12{fill:#782ab5;}.cls-6,.cls-8{stroke-miterlimit:10;}.cls-13{fill:#1c46ff;}.cls-7{stroke:#deb778;stroke-dasharray:0 0 0 4.06;stroke-linecap:round;}.cls-8{stroke:#c89aed;}.cls-14{fill:#deb778;}.cls-15{fill:url(#USGS_19_Inundación_de_tierra_2);}.cls-10{stroke:#1d1d1b;stroke-dasharray:0 0 2 2;stroke-width:.3px;}.cls-16{fill:#fcf0c5;}</style><pattern id="USGS_19_Inundación_de_tierra_2" x="0" y="0" width="72" height="72" patternTransform="translate(-452.48 -16351) rotate(-90)" patternUnits="userSpaceOnUse" viewBox="0 0 72 72"><g><rect class="cls-9" width="72" height="72"/><g><line class="cls-10" x1="71" y1="71" x2="144.44" y2="71"/><line class="cls-10" x1="71" y1="67" x2="144.44" y2="67"/><line class="cls-10" x1="71" y1="63" x2="144.44" y2="63"/><line class="cls-10" x1="71" y1="59" x2="144.44" y2="59"/><line class="cls-10" x1="71" y1="55" x2="144.44" y2="55"/><line class="cls-10" x1="71" y1="51" x2="144.44" y2="51"/><line class="cls-10" x1="71" y1="47" x2="144.44" y2="47"/><line class="cls-10" x1="71" y1="43" x2="144.44" y2="43"/><line class="cls-10" x1="71" y1="39" x2="144.44" y2="39"/><line class="cls-10" x1="71" y1="35" x2="144.44" y2="35"/><line class="cls-10" x1="71" y1="31" x2="144.44" y2="31"/><line class="cls-10" x1="71" y1="27" x2="144.44" y2="27"/><line class="cls-10" x1="71" y1="23" x2="144.44" y2="23"/><line class="cls-10" x1="71" y1="19" x2="144.44" y2="19"/><line class="cls-10" x1="71" y1="15" x2="144.44" y2="15"/><line class="cls-10" x1="71" y1="11" x2="144.44" y2="11"/><line class="cls-10" x1="71" y1="7" x2="144.44" y2="7"/><line class="cls-10" x1="71" y1="3" x2="144.44" y2="3"/></g><g><line class="cls-10" x1="-1" y1="71" x2="72.44" y2="71"/><line class="cls-10" x1="-1" y1="67" x2="72.44" y2="67"/><line class="cls-10" x1="-1" y1="63" x2="72.44" y2="63"/><line class="cls-10" x1="-1" y1="59" x2="72.44" y2="59"/><line class="cls-10" x1="-1" y1="55" x2="72.44" y2="55"/><line class="cls-10" x1="-1" y1="51" x2="72.44" y2="51"/><line class="cls-10" x1="-1" y1="47" x2="72.44" y2="47"/><line class="cls-10" x1="-1" y1="43" x2="72.44" y2="43"/><line class="cls-10" x1="-1" y1="39" x2="72.44" y2="39"/><line class="cls-10" x1="-1" y1="35" x2="72.44" y2="35"/><line class="cls-10" x1="-1" y1="31" x2="72.44" y2="31"/><line class="cls-10" x1="-1" y1="27" x2="72.44" y2="27"/><line class="cls-10" x1="-1" y1="23" x2="72.44" y2="23"/><line class="cls-10" x1="-1" y1="19" x2="72.44" y2="19"/><line class="cls-10" x1="-1" y1="15" x2="72.44" y2="15"/><line class="cls-10" x1="-1" y1="11" x2="72.44" y2="11"/><line class="cls-10" x1="-1" y1="7" x2="72.44" y2="7"/><line class="cls-10" x1="-1" y1="3" x2="72.44" y2="3"/><line class="cls-10" x1="1.04" y1="69" x2="74.48" y2="69"/><line class="cls-10" x1="1.04" y1="65" x2="74.48" y2="65"/><line class="cls-10" x1="1.04" y1="61" x2="74.48" y2="61"/><line class="cls-10" x1="1.04" y1="57" x2="74.48" y2="57"/><line class="cls-10" x1="1.04" y1="53" x2="74.48" y2="53"/><line class="cls-10" x1="1.04" y1="49" x2="74.48" y2="49"/><line class="cls-10" x1="1.04" y1="45" x2="74.48" y2="45"/><line class="cls-10" x1="1.04" y1="41" x2="74.48" y2="41"/><line class="cls-10" x1="1.04" y1="37" x2="74.48" y2="37"/><line class="cls-10" x1="1.04" y1="33" x2="74.48" y2="33"/><line class="cls-10" x1="1.04" y1="29" x2="74.48" y2="29"/><line class="cls-10" x1="1.04" y1="25" x2="74.48" y2="25"/><line class="cls-10" x1="1.04" y1="21" x2="74.48" y2="21"/><line class="cls-10" x1="1.04" y1="17" x2="74.48" y2="17"/><line class="cls-10" x1="1.04" y1="13" x2="74.48" y2="13"/><line class="cls-10" x1="1.04" y1="9" x2="74.48" y2="9"/><line class="cls-10" x1="1.04" y1="5" x2="74.48" y2="5"/><line class="cls-10" x1="1.04" y1="1" x2="74.48" y2="1"/></g><g><line class="cls-10" x1="-73" y1="71" x2=".44" y2="71"/><line class="cls-10" x1="-73" y1="67" x2=".44" y2="67"/><line class="cls-10" x1="-73" y1="63" x2=".44" y2="63"/><line class="cls-10" x1="-73" y1="59" x2=".44" y2="59"/><line class="cls-10" x1="-73" y1="55" x2=".44" y2="55"/><line class="cls-10" x1="-73" y1="51" x2=".44" y2="51"/><line class="cls-10" x1="-73" y1="47" x2=".44" y2="47"/><line class="cls-10" x1="-73" y1="43" x2=".44" y2="43"/><line class="cls-10" x1="-73" y1="39" x2=".44" y2="39"/><line class="cls-10" x1="-73" y1="35" x2=".44" y2="35"/><line class="cls-10" x1="-73" y1="31" x2=".44" y2="31"/><line class="cls-10" x1="-73" y1="27" x2=".44" y2="27"/><line class="cls-10" x1="-73" y1="23" x2=".44" y2="23"/><line class="cls-10" x1="-73" y1="19" x2=".44" y2="19"/><line class="cls-10" x1="-73" y1="15" x2=".44" y2="15"/><line class="cls-10" x1="-73" y1="11" x2=".44" y2="11"/><line class="cls-10" x1="-73" y1="7" x2=".44" y2="7"/><line class="cls-10" x1="-73" y1="3" x2=".44" y2="3"/><line class="cls-10" x1="-70.96" y1="69" x2="2.48" y2="69"/><line class="cls-10" x1="-70.96" y1="65" x2="2.48" y2="65"/><line class="cls-10" x1="-70.96" y1="61" x2="2.48" y2="61"/><line class="cls-10" x1="-70.96" y1="57" x2="2.48" y2="57"/><line class="cls-10" x1="-70.96" y1="53" x2="2.48" y2="53"/><line class="cls-10" x1="-70.96" y1="49" x2="2.48" y2="49"/><line class="cls-10" x1="-70.96" y1="45" x2="2.48" y2="45"/><line class="cls-10" x1="-70.96" y1="41" x2="2.48" y2="41"/><line class="cls-10" x1="-70.96" y1="37" x2="2.48" y2="37"/><line class="cls-10" x1="-70.96" y1="33" x2="2.48" y2="33"/><line class="cls-10" x1="-70.96" y1="29" x2="2.48" y2="29"/><line class="cls-10" x1="-70.96" y1="25" x2="2.48" y2="25"/><line class="cls-10" x1="-70.96" y1="21" x2="2.48" y2="21"/><line class="cls-10" x1="-70.96" y1="17" x2="2.48" y2="17"/><line class="cls-10" x1="-70.96" y1="13" x2="2.48" y2="13"/><line class="cls-10" x1="-70.96" y1="9" x2="2.48" y2="9"/><line class="cls-10" x1="-70.96" y1="5" x2="2.48" y2="5"/><line class="cls-10" x1="-70.96" y1="1" x2="2.48" y2="1"/></g></g></pattern></defs><g id="BG"><g><path class="cls-12" d="M64.02,40c0,11.47-1.89,22.39-5.5,31.74-7.2,2.16-14.94,3.26-23.02,3.26-.49,0-.98-.01-1.47-.02h-.17c-8.18-.15-16.29-1.47-23.6-3.85-3.45-9.22-5.26-19.93-5.26-31.13s1.89-22.38,5.48-31.73c6.73-2.01,14.13-3.13,21.6-3.26,.48-.01,.97-.01,1.45-.01,.54,0,1.08,.01,1.63,.02,8.16,.15,16.27,1.47,23.59,3.84,3.46,9.24,5.27,19.95,5.27,31.14Z"/><path class="cls-15" d="M34.03,5.59V74.98h-.17c-8.18-.15-16.29-1.47-23.6-3.85-3.45-9.22-5.26-19.93-5.26-31.13s1.89-22.38,5.48-31.73c6.73-2.01,14.13-3.13,21.6-3.26,.65,.16,1.3,.36,1.95,.58Z"/></g></g><g id="Capa_9"><g><g><path class="cls-1" d="M17.36,30.74s-4.5,0-5.03,4.17,1.39,9.2,6.1,10.28c.43,3.96,1.82,6.21,1.82,6.21l.21,8.67-13.49,4.39,.43,8.99,26.76,4.39,26.12-4.6,1.18-7.92-13.91-5.46,.11-9.42s1.5-2.35,1.39-5.14c4.71-.43,6.21-6.42,6.31-8.78s-.96-5.35-4.5-5.35c-1.18-5.46-1.18-7.49-1.18-7.49l-10.49-10.28s-2.68-3.43-7.06-2.03-7.28,4.39-7.28,4.39l-6.64,8.24-.86,6.74Z"/><path class="cls-2" d="M33.59,61.04V27.72s4.77-.24,6.97-3.13c4.68-.22,8.78,3.13,8.78,3.13l-.57,14.7s.38,7.54-2.67,10.31c-4.39,5.16-7.92,9.45-12.51,8.31Z"/><path class="cls-4" d="M41.63,20c-.19,4.28-3.47,7.76-7.76,7.76s-7.94-3.84-7.94-8.12,3.66-8.16,7.94-8.16,7.98,3.31,7.76,8.53Z"/><path class="cls-2" d="M37.72,12.33s-2.96,3.52-3.03,5.49c-1.76-.21-2.81,.63-2.81,.63,0,0-.07-4.64-2.74-5.49,3.45-1.76,5.91-2.04,8.59-.63Z"/><path class="cls-2" d="M34.46,21.38s.33,4.56,3.78,5.15c-4.56,2.41-8.22,.85-10.24-1.24,1.96-.46,4.17-3.52,4.24-4.76,1.17,.98,2.22,.85,2.22,.85Z"/><path class="cls-11" d="M27.22,24.71s-5.54,.33-9.69,3.14c.13-2.47,.47-3.87,.47-3.87,0,0,5.14-2.2,7.82-1.94,1.14,1.74,1.4,2.67,1.4,2.67Z"/><path class="cls-11" d="M40.35,24.71s5.54,.33,9.69,3.14c-.13-2.47-.47-3.87-.47-3.87,0,0-5.14-2.2-7.82-1.94-1.14,1.74-1.4,2.67-1.4,2.67Z"/><polygon class="cls-4" points="45.58 22.34 45.07 25.33 40.56 24.59 42.15 21.6 45.58 22.34"/><ellipse class="cls-2" cx="34.75" cy="19.36" rx=".72" ry="1.29"/><polygon class="cls-2" points="44.44 22.33 43.49 24.99 45.39 25.37 45.77 22.52 44.44 22.33"/><path class="cls-14" d="M48.66,25.3l.02,.39-.07-.03,.05-.36m-.76-1.82l-.39,2.77,2.27,1.05-.21-3.33-1.67-.49h0Z"/><polygon class="cls-14" points="19.12 24.07 18.79 26.78 17.36 27.31 18.12 24.31 19.12 24.07"/><path d="M17.44,31.28s-1.69-1.13-4.02,.94-.94,6.97,.06,9.23,3.14,3.39,4.77,3.26c.13-5.21,.31-7.28,.31-7.28l-1.13-6.15Z"/><circle class="cls-3" cx="27.47" cy="36.59" r="4.23"/><circle class="cls-3" cx="40.24" cy="36.59" r="4.23"/><path d="M40.52,59.33l-14.18,16.21-16.01-3.76-1.83-7.43,11.96-4.82v-7.81s7.04,8.39,9.07,9.26,4.73,.29,4.73,.29c0,0,2.7,.19,6.27-1.93Z"/><path class="cls-4" d="M47.54,59.85s1.47,5.18-.71,8.19c-2.39,3.63-5.08,6.64-5.08,6.64l3.32-.31s3.11-4.05,4.05-6.33,1.14-5.71,.31-7.26c-.93-.52-1.88-.93-1.88-.93Z"/><path class="cls-2" d="M48.12,62.57s1.11,.98,1.83,.59c.07,4.06-2.42,7.13-2.42,7.13,0,0-.26-1.37-1.18-1.18,1.44-2.88,1.7-4.51,1.77-6.54Z"/><path class="cls-13" d="M38.31,74.77s5.15-4.57,6.51-7.67c1.65-3.69,2.82-6.31,2.82-6.31,0,0,1.09,3.52-.1,5.93s-5.25,8.45-5.25,8.45l-3.98-.39Z"/><path class="cls-13" d="M45.42,73.99s3.21-4.52,3.95-6.58,.58-6.25,.41-6.83c9.95,3.54,11.43,4.11,11.43,4.11l-1.56,9.21-14.23,.08Z"/><path class="cls-8" d="M48.5,43.34c-.06,1.95-.32,4.22-1.05,6.24-3.25,5.55-7.74,9.42-9.41,10.41-1.75,1.06-3.99,.79-4.07,.78h-.65s-2.25,.28-4.01-.78c-1.66-.99-6.16-4.86-9.37-10.33-.76-2.1-.98-4.54-1-6.61,.55,1.33,1.41,2.49,2.71,3.22,.12,.4,1.08,3.39,1.08,3.39l-.17-3.79v-.11s-.3-.26-.3-.26c-2.54-1.34-3.2-4.63-3.01-7.29-.79-3.24-2.63-6.66-1.51-9.97,.58-.45,4.02-2.89,9.57-2.97,1.61,1.84,3.97,3,6.59,3s4.98-1.16,6.59-3c5.54,.08,8.8,2.52,9.34,2.96,1.13,3.31-.72,6.74-1.51,9.98,.02,.16,.01,.33,.02,.5h-.03s.02,.11,.04,.28c0,2.49-.74,5.29-3.03,6.51l-.3,.26v.11s-.18,3.79-.18,3.79c0,0,.96-2.99,1.08-3.39,1.21-.67,2.02-1.72,2.58-2.93Z"/><path d="M19.25,38.11s-.75-4.68-.55-7.02,1-4.43,1-4.43c0,0-1.74,.8-2.49,1.54-1,2.74,.3,7.57,2.04,9.91Z"/><path d="M18.06,23.97s-.4-1.34,.15-3.88,4.68-6.37,9.96-6.82c-3.34,4.13-2.44,8.91-2.44,8.91,0,0-3.29-.55-7.67,1.79Z"/><path d="M41.86,21.73s.75-1.54,.25-3.78-1.94-4.38-1.94-4.38c0,0,3.63-.05,6.22,2.39s4.18,5.43,3.04,8.07c-2.49-1.84-7.57-2.29-7.57-2.29Z"/><path d="M48.48,26.76s.84,5.56-.25,11.75c2.44-3.49,2.59-7.57,2.49-8.56s-.65-2.14-.65-2.14l-1.59-1.05Z"/><path class="cls-6" d="M18.37,45.01s-2.56,.38-4.36-2.85-1.99-6.83-1.23-8.73,2.66-3.04,4.17-2.09"/><path class="cls-6" d="M49.11,45.01s2.56,.38,4.36-2.85,1.99-6.83,1.23-8.73-2.66-3.04-4.17-2.09"/><path d="M22.73,49.66l-1.16-3.61,.3,.37c-1.52-.75-2.47-2.1-3.05-3.61-.55-1.44-.65-3.04-.58-4.57-.7-2.51-2.8-7.22-1.38-10.51,0,0-.03,.11-.03,.11,.18-1.17,.5-3.03,.56-4.19-1.19-4,2.59-8.31,6.66-9.82,1.33-.54,2.7-.89,4.2-.92l-.02,1c-2.57,.08-5.19,1.23-7.17,2.89-2.03,1.57-3.38,4.3-2.65,6.8-.02,.71-.15,1.57-.24,2.27,0,0-.33,2.14-.33,2.14-1.29,3.37,.62,6.88,1.43,10.19-.19,2.66,.47,5.95,3.01,7.29,0,0,.3,.26,.3,.26v.11s.18,3.79,.18,3.79h0Z"/><path d="M44.84,49.66l.17-3.79v-.11s.3-.26,.3-.26c2.54-1.34,3.19-4.63,3.01-7.29,.81-3.31,2.72-6.82,1.43-10.19,0,0-.33-2.14-.33-2.14-.09-.69-.22-1.55-.24-2.27,.72-2.5-.62-5.23-2.65-6.8-1.98-1.66-4.6-2.81-7.17-2.89,0,0-.02-1-.02-1,1.5,.04,2.87,.39,4.2,.92,4.05,1.49,7.85,5.85,6.66,9.82,.07,1.15,.38,3.02,.56,4.19,0,0-.03-.11-.03-.11,1.42,3.28-.68,8.01-1.38,10.51,.07,1.52-.03,3.13-.58,4.57-.58,1.51-1.53,2.85-3.05,3.61,0,0,.3-.37,.3-.37l-1.16,3.61h0Z"/><path class="cls-6" d="M48.81,38.65s.86,6.23-.92,11.18c-3.17,5.41-7.65,9.43-9.59,10.59s-4.33,.85-4.33,.85h-.58s-2.4,.31-4.33-.85-6.42-5.18-9.59-10.59c-1.78-4.95-.72-11.56-.72-11.56"/><path d="M39.49,51.82c-1.45-.25-2.71-.88-4.17-.79-.73,.03-2.2,.03-2.93,0-1.46-.09-2.72,.54-4.17,.79,1.21-.83,2.65-1.73,4.17-1.74,0,0,1.46-.03,1.46-.03l1.46,.03c1.52,0,2.95,.91,4.17,1.74h0Z"/><path d="M30.77,52.64c.89,.2,2.09,.08,2.99,.1,1.03-.01,1.99,.09,3.04,.05-1.31,1.27-4.87,1.36-6.03-.15h0Z"/><path d="M30.9,56.4c1.27-1.85,4.49-1.67,5.78,.08-2.09-.41-3.7-.6-5.78-.08h0Z"/><circle class="cls-6" cx="33.9" cy="19.49" r="8.28"/><circle class="cls-6" cx="33.9" cy="19.49" r="1.72"/><polyline class="cls-6" points="20.25 51.32 20.62 59.6 7.17 64.48"/><path class="cls-6" d="M17.32,27.93s3.73-3.17,10.26-3.17"/><path class="cls-6" d="M50.25,27.93s-3.5-3.17-10.02-3.17"/><path class="cls-6" d="M17.83,24.5s3.36-2.57,8.02-2.57"/><path class="cls-6" d="M49.67,24.34s-3.06-2.41-7.72-2.41"/><line class="cls-6" x1="45.7" y1="22.62" x2="45.26" y2="25.24"/><path class="cls-5" d="M36.22,37.9s.23,4.01,1.77,5.89c-.19,2.22-1.15,3.14-1.15,3.14,0,0,0-1.59-.68-1.64-.38-.03-1.45,1.11-2.31,2.11-.87-1-1.94-2.14-2.32-2.11-.68,.05-.68,1.64-.68,1.64,0,0-.96-.92-1.16-3.14,1.55-1.88,1.78-5.64,1.78-5.64"/><circle class="cls-5" cx="27.5" cy="36.67" r="4.22"/><circle class="cls-5" cx="40.24" cy="36.67" r="4.22"/><path class="cls-5" d="M31.74,37.35s1-.76,2.16-.76,2.03,.69,2.03,.69"/><path d="M22.32,32.73c1.45-2.34,4.6-2.94,7.14-2.34,.88,.19,1.69,.47,2.51,.96l-.64,1.08c-1.33-.62-2.97-1.01-4.46-1.01-1.6,.02-3.01,.73-4.54,1.3h0Z"/><path d="M45.43,32.73c-1.53-.57-2.95-1.29-4.54-1.3-1.49,0-3.13,.39-4.46,1.01l-.64-1.08c.83-.49,1.63-.77,2.51-.96,2.53-.6,5.69,0,7.14,2.34h0Z"/><path class="cls-5" d="M20.62,59.6s1.2,10.76,10.54,16.21"/><polyline class="cls-6" points="47.62 50.32 47.25 59.6 60.7 64.48"/><path class="cls-5" d="M47.25,59.6s-1.2,10.76-10.54,16.21"/><path class="cls-5" d="M25.07,77.66c-.11-.12-2.82-3.06-5.77-7.9-3.16-5.18-1.15-9.1-1.07-9.29l1.72-.45c-.06,.15-1.56,4.41,1.05,8.7,2.83,4.65,5.5,7.55,5.52,7.58l-1.47,1.36Z"/><path class="cls-5" d="M42.42,77.66c.11-.12,2.82-3.06,5.77-7.9,3.16-5.18,1.15-9.1,1.07-9.29l-1.72-.45c.06,.15,1.56,4.41-1.05,8.7-2.83,4.65-5.5,7.55-5.52,7.58l1.47,1.36Z"/></g><path class="cls-13" d="M21.28,55.68c.39,1.6,.6,3.3,.73,4.94l-.52,.24c-3.68,1.61-7.81,3.33-11.73,3.56,0,0,5.71-2.19,5.71-2.19,1.8-.64,4.12-1.66,5.68-2.07,0,0,.03-4.49,.03-4.49h.1Z"/><path class="cls-13" d="M16.06,31.89c-4.06,1.84-2.18,7.99-.17,10.77,.35,.5,.8,.91,1.32,1.32l-.03,.09c-4.36-1.45-6.81-11.55-1.11-12.18h0Z"/><path class="cls-13" d="M48.83,20.93s-2.43-3.21-5.99-3.57c-.86-1.78-1.71-3.28-1.71-3.28,0,0,6.35,1.36,7.71,6.85Z"/></g></g><g id="Frame"><path class="cls-11" d="M62.56,4.88C54.4,1.94,45.12,.2,35.25,.02c-.57-.01-1.15-.02-1.72-.02C23.88,0,14.77,1.52,6.72,4.21,2.49,14.22,0,26.6,0,40s2.39,25.22,6.45,35.11c8.16,2.94,17.45,4.69,27.32,4.87,.58,.01,1.15,.02,1.73,.02,9.63,0,18.73-1.51,26.78-4.2,4.24-10.01,6.74-22.39,6.74-35.8s-2.4-25.24-6.46-35.12Zm-4.04,66.86c-7.2,2.16-14.94,3.26-23.02,3.26-.49,0-.98-.01-1.47-.02h-.17c-8.18-.15-16.29-1.47-23.6-3.85-3.45-9.22-5.26-19.93-5.26-31.13s1.89-22.38,5.48-31.73c6.73-2.01,14.13-3.13,21.6-3.26,.48-.01,.97-.01,1.45-.01,.54,0,1.08,.01,1.63,.02,8.16,.15,16.27,1.47,23.59,3.84,3.46,9.24,5.27,19.95,5.27,31.14s-1.89,22.39-5.5,31.74Z"/><path class="cls-14" d="M17.21,2.06h0c1.63,.63,2.06,2.75,.81,3.97l-1.26,1.22s8.35-2.37,18.84-1.69h0c-1-1.49-.45-3.52,1.14-4.34l1-.51S28.26-.43,17.21,2.06Z"/><path class="cls-16" d="M21.81,1.66s.7,2.18-.22,3.1c3.77-.41,7.98-.74,11.12-.74-.33-1.33,1.26-3.4,1.26-3.4,0,0-6.17-.26-12.16,1.03Z"/><path class="cls-14" d="M36.25,79.21h0c-1.52-.87-1.62-3.03-.2-4.04l1.43-1.02s-8.61,1.07-18.88-1.19h0c.76,1.63-.09,3.55-1.79,4.11l-1.07,.36s9.19,2.56,20.5,1.78Z"/><path class="cls-16" d="M19.28,77.8s1.76-1.83,1.3-3.09c4.43,.69,9.11,1.14,12.25,1.14-.33,1.33,.44,3.4,.44,3.4,0,0-8-.16-13.99-1.45Z"/><polygon points="47.48 1.77 47.48 6.73 54.49 8.44 54.49 2.62 47.48 1.77"/><line class="cls-6" x1="45.5" y1="1.23" x2="45.5" y2="6.29"/><line class="cls-6" x1="56.47" y1="3.67" x2="56.47" y2="8.73"/><polygon points="47.48 78.74 47.48 73.78 54.49 72.07 54.49 77.88 47.48 78.74"/><line class="cls-6" x1="45.5" y1="79.28" x2="45.5" y2="74.21"/><line class="cls-6" x1="56.47" y1="76.84" x2="56.47" y2="71.77"/><path d="M33.53,1c.56,0,1.14,0,1.7,.02,9.39,.17,18.33,1.74,26.57,4.65,4.07,10.08,6.22,21.94,6.22,34.33s-2.24,24.79-6.49,34.99c-8.12,2.66-16.87,4.01-26.03,4.01-.56,0-1.12,0-1.71-.02-9.25-.17-18.42-1.78-26.58-4.66C3.15,64.25,1,52.39,1,40S3.23,15.21,7.47,5.02C15.6,2.35,24.37,1,33.53,1m0-1C23.88,0,14.77,1.52,6.72,4.21,2.49,14.22,0,26.6,0,40s2.39,25.22,6.45,35.11c8.16,2.94,17.45,4.69,27.32,4.87,.58,.01,1.15,.02,1.73,.02,9.63,0,18.73-1.51,26.78-4.2,4.24-10.01,6.74-22.39,6.74-35.8s-2.4-25.24-6.46-35.12C54.4,1.94,45.12,.2,35.25,.02c-.57,0-1.15-.02-1.72-.02h0Z"/><path class="cls-14" d="M33.53,6c.52,0,1.04,0,1.61,.02,7.87,.14,15.75,1.4,22.84,3.64,3.3,9,5.04,19.47,5.04,30.34s-1.82,21.82-5.26,30.92c-6.98,2.04-14.47,3.08-22.26,3.08-.48,0-.97,0-1.47-.02h-.15c-7.89-.14-15.78-1.41-22.85-3.65-3.29-8.99-5.03-19.46-5.03-30.33s1.81-21.79,5.24-30.91c6.5-1.89,13.7-2.95,20.86-3.08,.47,0,.96,0,1.43,0m0-1c-.48,0-.97,0-1.45,.01-7.47,.13-14.87,1.25-21.6,3.26-3.59,9.35-5.48,20.26-5.48,31.73s1.81,21.91,5.26,31.13c7.31,2.38,15.42,3.7,23.6,3.85h.17c.49,.01,.98,.02,1.47,.02,8.08,0,15.82-1.1,23.02-3.26,3.61-9.35,5.5-20.27,5.5-31.74s-1.81-21.9-5.27-31.14c-7.32-2.37-15.43-3.69-23.59-3.84-.55,0-1.09-.02-1.63-.02h0Z"/><path d="M33.53,5c.54,0,1.08,.01,1.63,.02,8.16,.15,16.27,1.47,23.59,3.84,3.46,9.24,5.27,19.95,5.27,31.14s-1.89,22.39-5.5,31.74c-7.2,2.16-14.94,3.26-23.02,3.26-.49,0-.98-.01-1.47-.02h-.17c-8.18-.15-16.29-1.47-23.6-3.85-3.45-9.22-5.26-19.93-5.26-31.13s1.89-22.38,5.48-31.73c6.73-2.01,14.13-3.13,21.6-3.26,.48-.01,.97-.01,1.45-.01m0-1c-.49,0-.98,0-1.47,.01-7.51,.13-15.07,1.27-21.87,3.3l-.47,.14-.18,.46c-3.63,9.45-5.55,20.55-5.55,32.09s1.84,22.17,5.32,31.48l.17,.45,.46,.15c7.37,2.4,15.63,3.75,23.89,3.9h.19c.48,.01,.97,.02,1.47,.02,8.16,0,16-1.11,23.31-3.3l.47-.14,.18-.46c3.64-9.43,5.57-20.53,5.57-32.1s-1.84-22.17-5.33-31.49l-.17-.45-.46-.15c-7.39-2.39-15.65-3.74-23.88-3.89-.58-.01-1.12-.02-1.65-.02h0Z"/><path class="cls-7" d="M8.14,7.1s-12.66,32.94,0,66.06"/><path class="cls-7" d="M60.88,7.58s12.66,32.94,0,66.06"/></g></svg>