<svg id="Capa_2" xmlns="http://www.w3.org/2000/svg" xmlns:xlink="http://www.w3.org/1999/xlink" viewBox="0 0 69.02 80">
<defs >
<style >
.cls-1{fill:#c89aed;}.cls-2{fill:#fff;}.cls-3{fill:#f8ffbf;}.cls-4{fill:#7b7be8;}.cls-5,.cls-6,.cls-7{stroke:#000;}.cls-5,.cls-6,.cls-7,.cls-8,.cls-9,.cls-10,.cls-11{fill:none;}.cls-5,.cls-8{stroke-linejoin:round;}.cls-12{fill:#a88347;}.cls-13{fill:#782ab5;}.cls-6,.cls-7,.cls-9{stroke-miterlimit:10;}.cls-14{fill:#1c46ff;}.cls-7{stroke-width:.75px;}.cls-8{stroke:#deb778;stroke-dasharray:0 0 0 4.06;stroke-linecap:round;}.cls-9{stroke:#c89aed;}.cls-15{fill:#deb778;}.cls-16{fill:url(#USGS_19_Inundación_de_tierra_2);}.cls-11{stroke:#1d1d1b;stroke-dasharray:0 0 2 2;stroke-width:.3px;}.cls-17{fill:#fcf0c5;}
</style>
<pattern id="USGS_19_Inundación_de_tierra_2" x="0" y="0" width="72" height="72" patternTransform="translate(339.52 -16423) rotate(-90)" patternUnits="userSpaceOnUse" viewBox="0 0 72 72">
<g >
<rect class="cls-10" width="72" height="72">
</rect>
<g >
<line class="cls-11" x1="71" y1="71" x2="144.44" y2="71">
</line>
<line class="cls-11" x1="71" y1="67" x2="144.44" y2="67">
</line>
<line class="cls-11" x1="71" y1="63" x2="144.44" y2="63">
</line>
<line class="cls-11" x1="71" y1="59" x2="144.44" y2="59">
</line>
<line class="cls-11" x1="71" y1="55" x2="144.44" y2="55">
</line>
<line class="cls-11" x1="71" y1="51" x2="144.44" y2="51">
</line>
<line class="cls-11" x1="71" y1="47" x2="144.44" y2="47">
</line>
<line class="cls-11" x1="71" y1="43" x2="144.44" y2="43">
</line>
<line class="cls-11" x1="71" y1="39" x2="144.44" y2="39">
</line>
<line class="cls-11" x1="71" y1="35" x2="144.44" y2="35">
</line>
<line class="cls-11" x1="71" y1="31" x2="144.44" y2="31">
</line>
<line class="cls-11" x1="71" y1="27" x2="144.44" y2="27">
</line>
<line class="cls-11" x1="71" y1="23" x2="144.44" y2="23">
</line>
<line class="cls-11" x1="71" y1="19" x2="144.44" y2="19">
</line>
<line class="cls-11" x1="71" y1="15" x2="144.44" y2="15">
</line>
<line class="cls-11" x1="71" y1="11" x2="144.44" y2="11">
</line>
<line class="cls-11" x1="71" y1="7" x2="144.44" y2="7">
</line>
<line class="cls-11" x1="71" y1="3" x2="144.44" y2="3">
</line>
</g>
<g >
<line class="cls-11" x1="-1" y1="71" x2="72.44" y2="71">
</line>
<line class="cls-11" x1="-1" y1="67" x2="72.44" y2="67">
</line>
<line class="cls-11" x1="-1" y1="63" x2="72.44" y2="63">
</line>
<line class="cls-11" x1="-1" y1="59" x2="72.44" y2="59">
</line>
<line class="cls-11" x1="-1" y1="55" x2="72.44" y2="55">
</line>
<line class="cls-11" x1="-1" y1="51" x2="72.44" y2="51">
</line>
<line class="cls-11" x1="-1" y1="47" x2="72.44" y2="47">
</line>
<line class="cls-11" x1="-1" y1="43" x2="72.44" y2="43">
</line>
<line class="cls-11" x1="-1" y1="39" x2="72.44" y2="39">
</line>
<line class="cls-11" x1="-1" y1="35" x2="72.44" y2="35">
</line>
<line class="cls-11" x1="-1" y1="31" x2="72.44" y2="31">
</line>
<line class="cls-11" x1="-1" y1="27" x2="72.44" y2="27">
</line>
<line class="cls-11" x1="-1" y1="23" x2="72.44" y2="23">
</line>
<line class="cls-11" x1="-1" y1="19" x2="72.44" y2="19">
</line>
<line class="cls-11" x1="-1" y1="15" x2="72.44" y2="15">
</line>
<line class="cls-11" x1="-1" y1="11" x2="72.44" y2="11">
</line>
<line class="cls-11" x1="-1" y1="7" x2="72.44" y2="7">
</line>
<line class="cls-11" x1="-1" y1="3" x2="72.44" y2="3">
</line>
<line class="cls-11" x1="1.04" y1="69" x2="74.48" y2="69">
</line>
<line class="cls-11" x1="1.04" y1="65" x2="74.48" y2="65">
</line>
<line class="cls-11" x1="1.04" y1="61" x2="74.48" y2="61">
</line>
<line class="cls-11" x1="1.04" y1="57" x2="74.48" y2="57">
</line>
<line class="cls-11" x1="1.04" y1="53" x2="74.48" y2="53">
</line>
<line class="cls-11" x1="1.04" y1="49" x2="74.48" y2="49">
</line>
<line class="cls-11" x1="1.04" y1="45" x2="74.48" y2="45">
</line>
<line class="cls-11" x1="1.04" y1="41" x2="74.48" y2="41">
</line>
<line class="cls-11" x1="1.04" y1="37" x2="74.48" y2="37">
</line>
<line class="cls-11" x1="1.04" y1="33" x2="74.48" y2="33">
</line>
<line class="cls-11" x1="1.04" y1="29" x2="74.48" y2="29">
</line>
<line class="cls-11" x1="1.04" y1="25" x2="74.48" y2="25">
</line>
<line class="cls-11" x1="1.04" y1="21" x2="74.48" y2="21">
</line>
<line class="cls-11" x1="1.04" y1="17" x2="74.48" y2="17">
</line>
<line class="cls-11" x1="1.04" y1="13" x2="74.48" y2="13">
</line>
<line class="cls-11" x1="1.04" y1="9" x2="74.48" y2="9">
</line>
<line class="cls-11" x1="1.04" y1="5" x2="74.48" y2="5">
</line>
<line class="cls-11" x1="1.04" y1="1" x2="74.48" y2="1">
</line>
</g>
<g >
<line class="cls-11" x1="-73" y1="71" x2=".44" y2="71">
</line>
<line class="cls-11" x1="-73" y1="67" x2=".44" y2="67">
</line>
<line class="cls-11" x1="-73" y1="63" x2=".44" y2="63">
</line>
<line class="cls-11" x1="-73" y1="59" x2=".44" y2="59">
</line>
<line class="cls-11" x1="-73" y1="55" x2=".44" y2="55">
</line>
<line class="cls-11" x1="-73" y1="51" x2=".44" y2="51">
</line>
<line class="cls-11" x1="-73" y1="47" x2=".44" y2="47">
</line>
<line class="cls-11" x1="-73" y1="43" x2=".44" y2="43">
</line>
<line class="cls-11" x1="-73" y1="39" x2=".44" y2="39">
</line>
<line class="cls-11" x1="-73" y1="35" x2=".44" y2="35">
</line>
<line class="cls-11" x1="-73" y1="31" x2=".44" y2="31">
</line>
<line class="cls-11" x1="-73" y1="27" x2=".44" y2="27">
</line>
<line class="cls-11" x1="-73" y1="23" x2=".44" y2="23">
</line>
<line class="cls-11" x1="-73" y1="19" x2=".44" y2="19">
</line>
<line class="cls-11" x1="-73" y1="15" x2=".44" y2="15">
</line>
<line class="cls-11" x1="-73" y1="11" x2=".44" y2="11">
</line>
<line class="cls-11" x1="-73" y1="7" x2=".44" y2="7">
</line>
<line class="cls-11" x1="-73" y1="3" x2=".44" y2="3">
</line>
<line class="cls-11" x1="-70.96" y1="69" x2="2.48" y2="69">
</line>
<line class="cls-11" x1="-70.96" y1="65" x2="2.48" y2="65">
</line>
<line class="cls-11" x1="-70.96" y1="61" x2="2.48" y2="61">
</line>
<line class="cls-11" x1="-70.96" y1="57" x2="2.48" y2="57">
</line>
<line class="cls-11" x1="-70.96" y1="53" x2="2.48" y2="53">
</line>
<line class="cls-11" x1="-70.96" y1="49" x2="2.48" y2="49">
</line>
<line class="cls-11" x1="-70.96" y1="45" x2="2.48" y2="45">
</line>
<line class="cls-11" x1="-70.96" y1="41" x2="2.48" y2="41">
</line>
<line class="cls-11" x1="-70.96" y1="37" x2="2.48" y2="37">
</line>
<line class="cls-11" x1="-70.96" y1="33" x2="2.48" y2="33">
</line>
<line class="cls-11" x1="-70.96" y1="29" x2="2.48" y2="29">
</line>
<line class="cls-11" x1="-70.96" y1="25" x2="2.48" y2="25">
</line>
<line class="cls-11" x1="-70.96" y1="21" x2="2.48" y2="21">
</line>
<line class="cls-11" x1="-70.96" y1="17" x2="2.48" y2="17">
</line>
<line class="cls-11" x1="-70.96" y1="13" x2="2.48" y2="13">
</line>
<line class="cls-11" x1="-70.96" y1="9" x2="2.48" y2="9">
</line>
<line class="cls-11" x1="-70.96" y1="5" x2="2.48" y2="5">
</line>
<line class="cls-11" x1="-70.96" y1="1" x2="2.48" y2="1">
</line>
</g>
</g>
</pattern>
</defs>

<g id="Capa_9">
<g >
<g >
<path class="cls-1" d="M61.37,64.05l-1.36,9.47-23.36,3.85-27.46-4.01-1.76-7.79,16.93-6.34,.41-3.37s-.57-.73-2.01-6.83c-4.5-2.08-7.79-9.95-7.23-14.85,.97,.08,5.3,3.05,5.3,3.05,0,0-.16-.88-.72-3.53,0,0-.01,0-.02-.01-1.54-1.06-5.6-4.33-5.6-6.09s5.86-8.83,12.52-13.89c6.67-5.06,9.48-3.85,9.48-3.85,5.46-.16,20.63,14.53,20.55,17.74-.08,3.13-5.38,5.86-5.38,5.86,0,0-.48,.56-.24,2.49,1.44-1.04,4.17-1.53,4.17-1.53,0,0-.16,2.49-.64,5.94-.48,3.46-3.29,8.19-6.74,8.99-.16,1.29-1.53,6.35-1.53,6.35l.48,3.77,14.21,4.58Z">
</path>
<path class="cls-14" d="M57.04,27.6c-.08,3.13-5.38,5.86-5.38,5.86l-2.39-.24s-3.21,3.01-13.5,2.91c-10.3-.09-14.09-3.3-14.09-3.3l-1.57,.87s-.01,0-.02-.01c-1.54-1.06-5.6-4.33-5.6-6.09s5.86-8.83,12.52-13.89c6.67-5.06,9.48-3.85,9.48-3.85,5.46-.16,20.63,14.53,20.55,17.74Z">
</path>
<path d="M48.17,31.44s-13.41,7.38-26.56,.93c2.38-1.78,16.46-5.52,26.56-.93Z">
</path>
<path d="M45.69,30.93s-4.73-4.68-20.42-2.6c-4.26,1.6-5.33,3.02-5.33,3.02l.18,1.6s14.73-4.38,25.56-2.01Z">
</path>
<path d="M47.7,28.63s-2.9-5.74-18.94-4.73c-5.03,1.01-9.23,3.79-9.23,3.79l.41,3.08s9.88-7.57,27.75-2.13Z">
</path>
<path class="cls-14" d="M21.49,26.3s-.81,3.22-.05,4.88c-1.28,1.42-1.47,1.47-1.47,1.47l-.44-4.98,1.96-1.38Z">
</path>
<path class="cls-12" d="M35.53,21.21c-.92-.43-2.27-1.11-3.44-1.9-.64-.73-.86-3.57-.94-5.17,.53,.22,1.19,.31,1.73-.14,1.11-.9,1.53-1.56,2.47-1.56h.42c.93,0,1.35,.66,2.46,1.56,.53,.42,1.15,.37,1.66,.18-.07,1.6-.29,4.41-.93,5.14-1.17,.78-2.52,1.47-3.44,1.9Z">
</path>
<path class="cls-15" d="M35.73,12.76c-.16-.02,0,8.46,0,8.46l2.41-1.42s-.26-4.21-.1-5.7c-.82-.82-1.39-1.23-2.31-1.33Z">
</path>
<path class="cls-17" d="M36.44,12.99s.12,6.96-.2,7.63c1.1-.63,1.45-.83,1.45-.83,0,0-.63-3.89-.39-6.17-.16-.75-.86-.63-.86-.63Z">
</path>
<path class="cls-14" d="M24.26,59.73l-16.48,5.87,1.55,8.35,28.95,4.12,21.95-5.25,.41-8.65-13.47-4.69s2.14,10.89-4.76,15.71c-11.95,2.06-14.63-1.13-14.63-1.13,0,0-5.15-4.02-3.5-14.32Z">
</path>
<path class="cls-17" d="M24.49,60.93s1.41,6.74,7.52,8.62,12.54-.94,15.28-8.38c1.1,6.42-1.33,11.6-4.47,14.18-8.15,2.82-15.04-1.02-15.04-1.02,0,0-5.17-7.29-3.29-13.4Z">
</path>
<path class="cls-2" d="M35.83,36.67v27.4s4.37-.17,7.02-2.56c3.47-5.28,4.7-8.17,4.79-8.58s.66-4.13,.66-4.13l1.82-12.71s-.74-2.31-2.15-2.06c-4.62,1.82-9.99,2.64-12.13,2.64Z">
</path>
<path d="M43.17,62l-15.42,13.44-18.01-3.07-.89-7.84,15.5-5.3,.53-2.48,3.75,5.12s4.71,2.73,7.16,2.59c2.73-.14,7.37-2.46,7.37-2.46Z">
</path>
<path d="M22.44,40.07s-3.88-6.07-6.78-5.65c-.07,6.36,3.11,12.22,4.87,13.63s2.68,1.41,2.68,1.41l-.78-9.39Z">
</path>
<path class="cls-2" d="M26.11,46.43c.12,.04,2.03,1.27,3.3,1.83,2.11-1.03,2.9-2.3,2.9-2.3,0,0-1.03,3.42-4.05,5.32-3.34-1.75-2.15-4.85-2.15-4.85Z">
</path>
<path class="cls-4" d="M45.7,43.81l.52-3.61s-3.97-.79-4.13-.87-4.57,1.59-4.57,1.59c0,0,.79,2.46,1.87,3.5,1.27,1.07,3.06,.72,3.06,.72l3.26-1.31Z">
</path>
<path class="cls-4" d="M25.83,43.81l-.52-3.61s3.97-.79,4.13-.87,4.57,1.59,4.57,1.59c0,0-.79,2.46-1.87,3.5-1.27,1.07-3.06,.72-3.06,.72l-3.26-1.31Z">
</path>
<path class="cls-3" d="M32.72,43.72s-2.85-1-3.72-1.03c-2.16,.6-2.79,1.09-2.79,1.09,0,0,1.82,1.15,2.87,1.34,2.31-.08,3.27-.91,3.63-1.4Z">
</path>
<path class="cls-3" d="M38.78,43.72s2.85-1,3.72-1.03c2.16,.6,2.79,1.09,2.79,1.09,0,0-1.82,1.15-2.87,1.34-2.31-.08-3.27-.91-3.63-1.4Z">
</path>
<path d="M25.51,15.34s-3.38,6.95,3.83,8.19c-8.11,1.34-9.81,4.15-9.81,4.15l.28,4.14s-5.34-3.47-3.92-6.59c4.1-4.99,9.62-9.89,9.62-9.89Z">
</path>
<path d="M23.31,42.77s-1.28-5.82-1.07-6.73,1.22-1.73,1.22-1.73l-1.94-1.84s-1.22,.26-1.53,.82-.36,2.35-.36,2.35c0,0,2.65,4.03,3.67,7.14Z">
</path>
<path d="M47.95,42.77s1.28-5.82,1.07-6.73-1.22-1.73-1.22-1.73l1.94-1.84s1.22,.26,1.53,.82,.36,2.35,.36,2.35c0,0-2.65,4.03-3.67,7.14Z">
</path>
<path class="cls-6" d="M21.41,32.42s3.74,3.86,14.04,3.86,13.9-2.85,14.44-3.86">
</path>
<path d="M51.55,32.79c.56,.84,.71,1.84,.59,2.82,0,0-.06,.09-.06,.09-1.63,2.7-2.88,5.64-3.45,8.72-.37,3.18-.88,7.13-4.2,8.61-.03,.02,.23-.24,.23-.24-.7,1.18-1.36,2.39-1.91,3.66,.23-1.37,.59-2.73,1-4.07,.05-.2,.06-.14,.23-.25,3.04-1.38,3.27-4.98,3.67-7.9,.59-3.23,1.9-6.28,3.57-9.05l-.07,.2c.08-.67-.04-1.43-.41-2,0,0,.8-.6,.8-.6h0Z">
</path>
<path class="cls-6" d="M49.29,40.23s-.73,12.07-3.17,16.37c-2.37,4.16-3.3,5.03-3.3,5.03,0,0-3.96,2.55-6.79,2.55h-.79c-2.84,0-6.79-2.55-6.79-2.55,0,0-.92-.87-3.3-5.03-2.44-4.29-3.17-16.37-3.17-16.37">
</path>
<path class="cls-9" d="M43.75,52.38c-.41,1.34-.77,2.69-1,4.07,.52-1.22,1.15-2.37,1.81-3.49,1.74-.83,2.68-2.34,3.24-4.06-.48,2.89-1.17,5.79-2.11,7.45-2.2,3.86-3.14,4.85-3.14,4.86-.12,.09-3.89,2.47-6.52,2.47h-.79c-2.63,0-6.43-2.41-6.44-2.41-.01,0-.25-.24-.77-.97-.51-.74-1.31-1.96-2.44-3.95-1-1.75-1.71-4.89-2.19-7.94,.53,1.91,1.48,3.64,3.38,4.55,.66,1.12,1.3,2.27,1.82,3.49-.23-1.38-.6-2.73-1-4.07l-.04-.14-.2-.11c-3.03-1.37-3.26-4.97-3.67-7.9-.15-.82-.35-1.63-.58-2.42-.36-1.7-1.02-5.09-.87-5.77,.18-.79,.95-1.5,1.17-1.69,2.18,1.12,6,2.43,12.05,2.43,6.38,0,10.34-1.09,12.59-2.25,.31,.3,.83,.88,.98,1.51,.2,.92-1.08,6.73-1.08,6.73,.03-.09,.07-.18,.1-.27-.15,.57-.29,1.15-.4,1.73-.4,2.93-.63,6.53-3.67,7.9-.18,.11-.19,.05-.23,.25Z">
</path>
<path d="M23.31,42.77s-1.28-5.82-1.07-6.73,1.22-1.73,1.22-1.73l-1.94-1.84s-1.22,.26-1.53,.82-.36,2.35-.36,2.35c0,0,2.65,4.03,3.67,7.14Z">
</path>
<path d="M47.95,42.77s1.28-5.82,1.07-6.73-1.22-1.73-1.22-1.73l1.94-1.84s1.22,.26,1.53,.82,.36,2.35,.36,2.35c0,0-2.65,4.03-3.67,7.14Z">
</path>
<path class="cls-6" d="M35.53,21.21c-.92-.43-2.27-1.11-3.44-1.9-.64-.73-.86-3.57-.94-5.17,.53,.22,1.19,.31,1.73-.14,1.11-.9,1.53-1.56,2.47-1.56h.42c.93,0,1.35,.66,2.46,1.56,.53,.42,1.15,.37,1.66,.18-.07,1.6-.29,4.41-.93,5.14-1.17,.78-2.52,1.47-3.44,1.9Z">
</path>
<path class="cls-6" d="M51.53,33.36s6.84-3.57,5.09-6.92-14.06-16.64-20.59-16.64h-.64c-6.54,0-18.85,13.3-20.59,16.64s5.09,6.92,5.09,6.92">
</path>
<path class="cls-6" d="M21.22,38.45c.05-.19-1.98-3.46-5.59-4.2,.56,10.68,4.13,13.32,7.49,14.97">
</path>
<path class="cls-6" d="M49.98,38.45c-.05-.19,1.98-3.46,5.59-4.2-.56,10.68-4.13,13.32-7.49,14.97">
</path>
<path class="cls-6" d="M51.43,33.32l.39-5.55s-3.57-4.57-15.4-4.57h-1.34c-11.83,0-15.4,4.57-15.4,4.57l.39,5.55s4.07-4.13,15.53-4.13,15.82,4.13,15.82,4.13Z">
</path>
<path class="cls-7" d="M19.92,31.11c.94-.95,5-4.32,15.17-4.32h1.34c10.12,0,14.2,3.35,15.16,4.31">
</path>
<path class="cls-6" d="M21.41,32.42s3.74,3.86,14.04,3.86,13.9-2.85,14.44-3.86">
</path>
<path d="M20.59,33.39c-.36,.56-.49,1.32-.41,2,0,0-.07-.2-.07-.2,1.67,2.77,2.98,5.83,3.57,9.05,.4,2.92,.63,6.53,3.67,7.9,0,0,.19,.1,.19,.1l.04,.14c.41,1.34,.77,2.7,1,4.07-.55-1.27-1.22-2.48-1.91-3.66l.23,.24c-3.33-1.48-3.84-5.43-4.21-8.61-.54-3.17-1.96-6.12-3.51-8.92-.1-.94,.06-1.9,.6-2.71,0,0,.8,.6,.8,.6h0Z">
</path>
<path d="M51.55,32.79c.56,.84,.71,1.84,.59,2.82,0,0-.06,.09-.06,.09-1.63,2.7-2.88,5.64-3.45,8.72-.37,3.18-.88,7.13-4.2,8.61-.03,.02,.23-.24,.23-.24-.7,1.18-1.36,2.39-1.91,3.66,.23-1.37,.59-2.73,1-4.07,.05-.2,.06-.14,.23-.25,3.04-1.38,3.27-4.98,3.67-7.9,.59-3.23,1.9-6.28,3.57-9.05l-.07,.2c.08-.67-.04-1.43-.41-2,0,0,.8-.6,.8-.6h0Z">
</path>
<path class="cls-6" d="M49.29,40.23s-.73,12.07-3.17,16.37c-2.37,4.16-3.3,5.03-3.3,5.03,0,0-3.96,2.55-6.79,2.55h-.79c-2.84,0-6.79-2.55-6.79-2.55,0,0-.92-.87-3.3-5.03-2.44-4.29-3.17-16.37-3.17-16.37">
</path>
<path d="M37.26,45.05c.92,2,1.97,4.06,3.59,5.55-.29,.47-.65,1.01-.84,1.52,0,0-.16,.65-.16,.65-.33-.26-1.21-.95-1.55-1.22,0,0,.42,.09,.42,.09-1.12,.36-2.21,1.03-2.98,1.93-.46-.5-.96-.96-1.57-1.3-.44-.26-.95-.47-1.42-.63l.42-.09-1.01,.79-.54,.42-.16-.65c-.19-.51-.55-1.05-.84-1.52,1.63-1.49,2.68-3.55,3.6-5.55-.5,2.13-1.36,4.19-2.82,5.89,0,0,.04-.5,.04-.5,.35,.47,.66,.88,.87,1.45,0,0-.7-.22-.7-.22,.13-.12,1.05-.9,1.15-.99,0,0,.24,.06,.24,.06,1.18,.34,2.22,.9,3.1,1.77,0,0-.72,0-.72,0,.88-.86,1.92-1.42,3.09-1.77,0,0,.24-.07,.24-.07,.11,.09,1.02,.88,1.15,.99l-.7,.22c.21-.57,.52-.98,.87-1.45,0,0,.04,.49,.04,.49-1.46-1.69-2.31-3.75-2.82-5.88h0Z">
</path>
<path d="M34.21,39.15s0,1.53-.5,2.52c-2.85-1.57-5.04-1.86-5.04-1.86l-3.39,.41s2.89-1.78,4.42-1.86c2.6,.21,4.5,.78,4.5,.78Z">
</path>
<path d="M37.26,39.15s0,1.53,.5,2.52c2.85-1.57,5.04-1.86,5.04-1.86l3.39,.41s-2.89-1.78-4.42-1.86c-2.6,.21-4.5,.78-4.5,.78Z">
</path>
<path d="M32.62,43.69c-1.02-.4-2.63-.83-3.44-.85-.94,.33-2.09,.71-2.94,1.17,0,0-.03-.53-.03-.53,.9,.58,1.9,1.11,2.93,1.35h-.14c.98-.17,2.03-.37,2.91-.82,.16-.11,.39-.07,.49,.1,.07,.11,.06,.25-.01,.36-.79,1.1-1.57,2.16-2.72,2.93-1-.07-1.92-.86-2.55-1.57,.73,.61,1.59,1.06,2.48,1.21l-.15,.03c.97-.76,1.67-1.93,2.36-2.96,0,0,.48,.46,.48,.46-1.03,.58-2.17,.86-3.32,.99-1.17-.3-2.2-.84-3.16-1.53-.46-.35,.16-.68,.43-.78,.91-.38,1.88-.62,2.84-.86,1.3,.09,2.45,.68,3.55,1.3h0Z">
</path>
<path d="M38.8,43.69c1.1-.62,2.26-1.21,3.55-1.3,.95,.25,1.92,.48,2.84,.86,.26,.09,.89,.42,.43,.78-.99,.69-2.08,1.33-3.3,1.53-1.1-.21-2.18-.4-3.17-.99,0,0,.48-.46,.48-.46,.69,1.03,1.39,2.2,2.36,2.96,0,0-.15-.03-.15-.03,.9-.15,1.76-.6,2.48-1.21-.62,.71-1.55,1.5-2.54,1.57-1.15-.77-1.93-1.83-2.72-2.93-.1-.15-.06-.36,.09-.46,.12-.08,.27-.07,.39,0,.88,.44,1.93,.65,2.91,.81,0,0-.14,0-.14,0,1.02-.24,2.03-.77,2.93-1.35l-.03,.53c-.85-.46-2.01-.84-2.94-1.17-.81,.02-2.42,.44-3.44,.85h0Z">
</path>
<path d="M29.53,57.61c.8-.28,1.5-.71,2.06-1.25,.09-.09,.23-.1,.34-.05,2.65,1.08,5.19,.9,7.87,.1,.1-.04,.21-.03,.29,.04,.54,.46,1.12,.91,1.85,1.12-.77,.07-1.54-.23-2.21-.63l.29,.04c-2.59,1.36-5.82,1.52-8.34-.06,0,0,.34-.05,.34-.05-.75,.5-1.62,.77-2.47,.74h0Z">
</path>
<path d="M40.18,58.72c-1.41,2-7.48,2.01-8.89,0,1.42,.62,2.93,.43,4.45,.47,1.51-.03,3.03,.15,4.45-.47h0Z">
</path>
<polyline class="cls-5" points="24.74 55.59 24.48 59.3 6.92 65.56">
</polyline>
<polyline class="cls-5" points="46.78 55.09 47.1 59.3 64.65 65.56">
</polyline>
<path class="cls-5" d="M40.35,69.36s2.04,3.25,1.82,5.89c7.43-4.51,4.9-16.3,4.9-16.3,0,0-.17,10.79-10.63,10.79h-1.31c-10.46,0-10.63-10.79-10.63-10.79,0,0-2.53,11.78,4.9,16.3-.22-2.64,1.82-5.89,1.82-5.89">
</path>
<path d="M37.18,76.89l3.98-4.72-1.16-2.9s-1.7,.46-3.98,.54h-.66c-2.28-.08-3.98-.54-3.98-.54l-1.16,2.9,3.98,4.72">
</path>
</g>
<path class="cls-14" d="M25.37,57.76c.02,.17,.23,2.57,.24,2.64l-.39,.15-17.15,6.45-.33-.94,17.23-6.22-.13,.16,.43-2.25h.1Z">
</path>
<path class="cls-14" d="M16.16,35.19c1.32,3.37,2.2,6.77,3.88,9.95,.56,1.01,1.19,1.97,1.98,2.99l-.06,.09c-3.95-2.72-5.82-8.63-5.79-13.04h0Z">
</path>
</g>
</g>
 <g
     id="g2850">
    <g
       id="g2837">
      <path
         id="path1951"
         d="M 0.056640625 0.04296875 L 0.056640625 79.943359 L 69.308594 79.943359 L 69.308594 0.04296875 L 0.056640625 0.04296875 z M 33.615234 3.5957031 C 34.206332 3.5957038 34.786991 3.6051034 35.421875 3.6152344 C 44.430653 3.7671809 53.471255 5.1336733 61.560547 7.5546875 L 62.064453 7.7070312 L 62.25 8.1640625 C 66.070247 17.605006 66.990234 28.726438 66.990234 40.0625 C 66.990234 51.398562 65.972723 63.025755 61.988281 72.578125 L 61.791016 73.044922 L 61.275391 73.185547 C 53.273669 75.403966 44.691921 76.529297 35.759766 76.529297 C 35.212453 76.529297 34.675812 76.519896 34.150391 76.509766 L 33.943359 76.509766 C 24.901742 76.357819 15.860367 74.989738 7.7929688 72.558594 L 7.2890625 72.40625 L 7.1035156 71.951172 C 3.2942144 62.520359 2.375 51.369168 2.375 40.0625 C 2.375 28.755832 3.3819737 17.127318 7.3554688 7.5546875 L 7.5527344 7.0898438 L 8.0664062 6.9472656 C 15.509867 4.890923 23.785212 3.7371557 32.005859 3.6054688 C 32.542226 3.5953387 33.078867 3.5957031 33.615234 3.5957031 z "
         style="opacity:1;vector-effect:none;fill:#ffffff;fill-opacity:1;fill-rule:nonzero;stroke:none;stroke-width:1.95200002;stroke-linecap:butt;stroke-linejoin:miter;stroke-miterlimit:4;stroke-dasharray:none;stroke-dashoffset:0;stroke-opacity:1" />
    </g>
    <path
       id="path1154-8-2"
       d="m 33.675163,6.6112954 c 0.557696,0 1.115392,0.00956 1.683415,0.019115 8.427403,0.14336 16.803167,1.4049288 24.363042,3.6700176 3.573384,8.830981 4.443772,19.417362 4.443772,29.761551 0,10.344189 -0.95301,21.39888 -4.68131,30.334991 -7.435942,2.064385 -15.429581,3.274388 -23.774362,3.274388 -0.506058,0 -1.012115,-0.0096 -1.518172,-0.01911 h -0.17557 C 25.56792,73.508883 17.192156,72.088619 9.6426089,69.813973 6.0795528,61.002107 5.2088244,50.415411 5.2088244,40.061979 c 0,-10.353432 0.95335,-21.389323 4.6609939,-30.325434 C 16.820359,7.8155201 24.462856,6.7450981 32.177647,6.6208528 c 0.49573,-0.00956 1.001787,-0.00956 1.497516,-0.00956 m 0,-0.9557337 c -0.506057,0 -1.012114,0 -1.518171,0.00956 C 24.40089,5.7893644 16.593149,6.8789009 9.570315,8.8190405 L 9.0849131,8.9528432 8.8990146,9.3924808 C 5.1500599,18.424166 4.1999116,29.394246 4.1999116,40.061979 c 0,10.667733 0.8675267,21.188618 4.461566,30.0865 l 0.1755708,0.430081 0.4750741,0.14336 c 7.6115135,2.293761 16.1421925,3.584001 24.6728715,3.727361 h 0.196227 c 0.495729,0.0096 1.001786,0.01911 1.518171,0.01911 8.427403,0 16.524318,-1.060864 24.073866,-3.153921 l 0.485403,-0.133802 0.185898,-0.439639 c 3.759282,-9.01257 4.719759,-19.983589 4.719759,-30.679055 0,-10.695466 -0.867528,-21.188618 -4.471894,-30.0960578 L 60.516853,9.5358409 60.041779,9.3924808 C 52.409609,7.108277 43.87893,5.8180364 35.379234,5.6746763 34.780227,5.6651187 34.232859,5.6555621 33.675163,5.6555615 Z"
       style="fill:#ff0000;stroke:#ffffff;stroke-width:1.84341729;stroke-miterlimit:4;stroke-dasharray:none" />
    <path
       id="path1154"
       d="m 33.614853,4.6077955 c 0.591098,0 1.182197,0.01013 1.784241,0.02026 8.932155,0.1519464 17.809578,1.4890758 25.822246,3.8898304 3.787408,9.3599041 4.709928,20.5803481 4.709928,31.5440931 0,10.963745 -1.01009,22.680548 -4.961693,32.151879 -7.881312,2.18803 -16.353723,3.302304 -25.198307,3.302304 -0.536368,0 -1.072735,-0.01013 -1.609102,-0.02026 H 33.97608 C 25.022033,75.343956 16.14461,74.006827 8.1428892,71.595943 4.3664269,62.256298 3.443547,51.035521 3.443547,40.061979 c 0,-10.973542 1.01045,-22.670418 4.9401601,-32.1417498 7.3668369,-2.036083 15.4670749,-3.170617 23.6439369,-3.3023039 0.525421,-0.01013 1.061788,-0.01013 1.587209,-0.01013 m 0,-1.0129766 c -0.536367,0 -1.072734,0 -1.609101,0.01013 C 23.785105,3.7366356 15.509726,4.891429 8.0662653,6.9477716 L 7.5517907,7.0895883 7.3547579,7.5555576 C 3.3812628,17.128188 2.3742062,28.755311 2.3742062,40.061979 c 0,11.306668 0.9194864,22.457692 4.7287876,31.888505 l 0.1860865,0.45584 0.5035283,0.151947 c 8.0673984,2.431144 17.1090154,3.798662 26.1506324,3.950608 h 0.207979 c 0.525421,0.01013 1.061788,0.02026 1.609101,0.02026 8.932155,0 17.514028,-1.124404 25.51575,-3.342823 l 0.514475,-0.141816 0.197032,-0.46597 c 3.984442,-9.55237 5.002445,-21.180489 5.002445,-32.516551 0,-11.336062 -0.919487,-22.457692 -4.739734,-31.8986353 L 62.064202,7.7075041 61.560674,7.5555576 C 53.471382,5.1345434 44.429765,3.7670249 35.420987,3.6150784 c -0.634884,-0.01013 -1.215036,-0.020259 -1.806134,-0.02026 z"
       style="fill:#000000;stroke:#000000;stroke-width:1.95382714;stroke-miterlimit:4;stroke-dasharray:none" />
    <g
       id="g1810">
      <path
         d="M 6.5134911,7.7433673 C 5.6489029,6.8479453 4.058602,6.5681013 3.6272194,7.3820013 3.284151,8.0292783 3.3625296,8.5309135 4.395235,8.9201755 3.2963719,9.5187755 1.4857674,9.4447465 1.1893447,7.4467713 0.95320848,5.8551433 2.674739,4.8863543 3.1399725,5.0916244 3.0034432,3.6818714 1.8221094,4.0692802 0.95849208,3.2813384 0.34259068,2.7194046 0.23126071,-0.02624603 0.0561761,0.04378767 -0.0138576,0.21887227 2.7317937,0.33020157 3.2937267,0.94610377 4.0816685,1.8097211 3.6942598,2.9910547 5.1040128,3.1275841 4.8987425,2.6623507 5.8675315,0.94082017 7.4591593,1.1769564 9.4571345,1.4733791 9.5311625,3.2839847 8.9325635,4.3828467 8.5433008,3.3501417 8.041666,3.2717627 7.3943894,3.6148312 6.5804899,4.0462137 6.8603354,5.6365129 7.7557553,6.5011023"
         style="fill:#000000;stroke:#000000;stroke-width:0.1112323px;stroke-linecap:butt;stroke-linejoin:miter;stroke-opacity:1"
         id="path1737-3" />
      <path
         d="m 62.850738,7.7433673 c 0.864588,-0.895422 2.454889,-1.175266 2.886271,-0.361366 0.343069,0.647277 0.26469,1.148912 -0.768015,1.538174 1.098863,0.5986 2.909467,0.524571 3.20589,-1.473404 0.236136,-1.591628 -1.485394,-2.560417 -1.950628,-2.3551469 0.13653,-1.409753 1.317863,-1.0223442 2.181481,-1.810286 0.615901,-0.5619338 0.727231,-3.30758442 0.902316,-3.23755072 0.07003,0.1750846 -2.675618,0.2864139 -3.237551,0.9023161 C 65.28256,1.8097211 65.669969,2.9910547 64.260216,3.1275841 64.465486,2.6623507 63.496697,0.94082018 61.905069,1.1769564 c -1.997975,0.2964227 -2.072003,2.1070283 -1.473404,3.2058903 0.389263,-1.032705 0.890898,-1.111084 1.538174,-0.7680155 0.8139,0.4313825 0.534054,2.0216817 -0.361366,2.8862711"
         style="fill:#000000;stroke:#000000;stroke-width:0.1112323px;stroke-linecap:butt;stroke-linejoin:miter;stroke-opacity:1"
         id="path1737-3-5" />
      <path
         d="m 62.850738,72.244244 c 0.864588,0.895422 2.454889,1.175266 2.886272,0.361366 0.343068,-0.647277 0.264689,-1.148912 -0.768016,-1.538174 1.098863,-0.5986 2.909468,-0.524571 3.20589,1.473404 0.236137,1.591628 -1.485394,2.560417 -1.950628,2.355147 0.13653,1.409753 1.317864,1.022344 2.181481,1.810286 0.615901,0.561934 0.727231,3.307584 0.902316,3.237551 0.07003,-0.175085 -2.675618,-0.286414 -3.237551,-0.902317 -0.787942,-0.863617 -0.400533,-2.04495 -1.810286,-2.18148 0.20527,0.465234 -0.763519,2.186764 -2.355146,1.950628 -1.997976,-0.296423 -2.072004,-2.107028 -1.473405,-3.20589 0.389263,1.032705 0.890898,1.111084 1.538175,0.768015 0.813899,-0.431382 0.534054,-2.021682 -0.361366,-2.886271"
         style="fill:#000000;stroke:#000000;stroke-width:0.1112323px;stroke-linecap:butt;stroke-linejoin:miter;stroke-opacity:1"
         id="path1737-3-7" />
      <path
         d="M 6.513491,72.244245 C 5.648903,73.139667 4.058602,73.419511 3.62722,72.605611 3.284151,71.958334 3.36253,71.456699 4.395235,71.067437 c -1.098863,-0.5986 -2.909467,-0.524571 -3.20589,1.473404 -0.23613599,1.591628 1.485394,2.560417 1.950628,2.355147 -0.13653,1.409753 -1.317863,1.022344 -2.18148099,1.810286 -0.615901,0.561933 -0.727231,3.307584 -0.902316,3.23755 C -0.01385399,79.76874 2.731794,79.65741 3.293727,79.041508 4.081669,78.177891 3.69426,76.996557 5.104013,76.860028 4.898743,77.325261 5.867532,79.046792 7.45916,78.810656 9.457135,78.514233 9.531163,76.703627 8.932564,75.604765 8.543301,76.63747 8.041666,76.715849 7.39439,76.372781 6.58049,75.941398 6.860336,74.351099 7.755756,73.48651"
         style="fill:#000000;stroke:#000000;stroke-width:0.1112323px;stroke-linecap:butt;stroke-linejoin:miter;stroke-opacity:1"
         id="path1737-3-5-5" />
    </g>
    <path
       id="path1154-9"
       d="m 33.712865,7.4258691 c 0.536813,0 1.07363,0.00933 1.620386,0.01865 8.111875,0.1398689 16.174044,1.3707167 23.450873,3.5806479 3.439594,8.615932 4.277395,18.944521 4.277395,29.036812 0,10.092292 -0.917329,20.877786 -4.506039,29.596289 -7.157536,2.014114 -14.851888,3.03982 -22.884234,3.03982 -0.487111,0 -0.974221,-0.0094 -1.461331,-0.01865 H 34.040918 C 25.909161,72.53957 17.846991,71.308722 10.580105,69.089467 7.1504515,60.492184 6.3123238,50.163289 6.3123238,40.061979 c 0,-10.101311 0.9176558,-20.868461 4.4864832,-29.586965 6.690308,-1.8742449 14.046665,-2.9186005 21.472608,-3.0398203 0.47717,-0.00933 0.964281,-0.00933 1.44145,-0.00933 m 0,-0.9324602 c -0.487111,0 -0.974221,0 -1.46133,0.00933 C 24.785826,6.6239532 17.270413,7.686958 10.510517,9.5798526 L 10.043289,9.710397 9.8643508,10.139328 c -3.6085914,8.811751 -4.5231655,19.514693 -4.5231655,29.922651 0,10.407958 0.8350459,20.672644 4.294522,29.353849 l 0.1689973,0.419608 0.4572874,0.13987 c 7.326533,2.237904 15.537818,3.496724 23.749103,3.636593 h 0.188879 c 0.47717,0.0094 0.96428,0.01865 1.461331,0.01865 8.111875,0 15.905636,-1.035031 23.172525,-3.077119 l 0.467228,-0.130544 0.178938,-0.428932 c 3.618533,-8.793101 4.543048,-19.496959 4.543048,-29.931975 0,-10.435016 -0.835047,-20.672644 -4.304463,-29.363174 l -0.168997,-0.419609 -0.457288,-0.13987 C 51.74588,7.9107484 43.534594,6.6519271 35.353133,6.512058 34.776554,6.502738 34.249678,6.493409 33.712865,6.493409 Z"
       style="fill:#000000;stroke:none;stroke-width:1.78642213;stroke-miterlimit:4;stroke-dasharray:none" />
    <path
       id="path1154-9-3"
       d="m 33.712865,7.4258686 c 0.536813,0 1.07363,0.00933 1.620386,0.01865 8.111875,0.1398689 16.174044,1.3707167 23.450873,3.5806484 3.439594,8.615932 4.277395,18.944521 4.277395,29.036812 0,10.092292 -0.917329,20.877786 -4.506039,29.596288 -7.157536,2.014114 -14.851888,3.03982 -22.884234,3.03982 -0.487111,0 -0.974221,-0.0094 -1.461331,-0.01865 H 34.040918 C 25.909161,72.539569 17.846991,71.308722 10.580105,69.089466 7.1504515,60.492184 6.3123238,50.163288 6.3123238,40.061979 c 0,-10.101312 0.9176558,-20.868461 4.4864832,-29.586965 6.690308,-1.8742454 14.046665,-2.918601 21.472608,-3.0398208 0.47717,-0.00933 0.964281,-0.00933 1.44145,-0.00933 m 0,-0.9324602 c -0.487111,0 -0.974221,0 -1.46133,0.00933 C 24.785826,6.6239527 17.270413,7.6869575 10.510517,9.5798521 L 10.043289,9.7103965 9.8643508,10.139328 C 6.2557594,18.951079 5.3411853,29.65402 5.3411853,40.061979 c 0,10.407958 0.8350459,20.672643 4.294522,29.353849 l 0.1689973,0.419608 0.4572874,0.13987 c 7.326533,2.237904 15.537818,3.496724 23.749103,3.636593 h 0.188879 c 0.47717,0.0094 0.96428,0.01865 1.461331,0.01865 8.111875,0 15.905636,-1.035032 23.172525,-3.077119 l 0.467228,-0.130544 0.178938,-0.428932 c 3.618533,-8.793101 4.543048,-19.49696 4.543048,-29.931975 0,-10.435016 -0.835047,-20.672644 -4.304463,-29.363175 l -0.168997,-0.419609 -0.457288,-0.13987 C 51.74588,7.9107479 43.534594,6.6519266 35.353133,6.5120575 34.776554,6.5027375 34.249678,6.4934085 33.712865,6.4934085 Z"
       style="fill:#000000;stroke:none;stroke-width:1.78642213;stroke-miterlimit:4;stroke-dasharray:none" />
  </g>
</svg>
