<?xml version="1.0" encoding="UTF-8"?><svg id="Capa_2" xmlns="http://www.w3.org/2000/svg" xmlns:xlink="http://www.w3.org/1999/xlink" viewBox="0 0 69.02 80"><defs><style>.cls-1{fill:#c89aed;}.cls-2{fill:#fff;}.cls-3{fill:#f8ffbf;}.cls-4{fill:#7b7be8;}.cls-5{fill:#a88347;}.cls-6{fill:#782ab5;}.cls-7,.cls-8,.cls-9,.cls-10,.cls-11,.cls-12{fill:none;}.cls-7,.cls-11,.cls-12{stroke-miterlimit:10;}.cls-7,.cls-12{stroke:#000;}.cls-13{fill:#1c46ff;}.cls-8{stroke:#deb778;stroke-dasharray:0 0 0 4.06;stroke-linecap:round;stroke-linejoin:round;}.cls-14{fill:#deb778;}.cls-15{fill:url(#USGS_19_Inundación_de_tierra_2);}.cls-10{stroke:#1d1d1b;stroke-dasharray:0 0 2 2;stroke-width:.3px;}.cls-16{fill:#cf5f2b;}.cls-11{stroke:#c89aed;stroke-width:1.3px;}.cls-17{fill:#fcf0c5;}.cls-12{stroke-width:.5px;}.cls-18{fill:#b83521;}</style><pattern id="USGS_19_Inundación_de_tierra_2" x="0" y="0" width="72" height="72" patternTransform="translate(123.52 -16423) rotate(-90)" patternUnits="userSpaceOnUse" viewBox="0 0 72 72"><g><rect class="cls-9" width="72" height="72"/><g><line class="cls-10" x1="71" y1="71" x2="144.44" y2="71"/><line class="cls-10" x1="71" y1="67" x2="144.44" y2="67"/><line class="cls-10" x1="71" y1="63" x2="144.44" y2="63"/><line class="cls-10" x1="71" y1="59" x2="144.44" y2="59"/><line class="cls-10" x1="71" y1="55" x2="144.44" y2="55"/><line class="cls-10" x1="71" y1="51" x2="144.44" y2="51"/><line class="cls-10" x1="71" y1="47" x2="144.44" y2="47"/><line class="cls-10" x1="71" y1="43" x2="144.44" y2="43"/><line class="cls-10" x1="71" y1="39" x2="144.44" y2="39"/><line class="cls-10" x1="71" y1="35" x2="144.44" y2="35"/><line class="cls-10" x1="71" y1="31" x2="144.44" y2="31"/><line class="cls-10" x1="71" y1="27" x2="144.44" y2="27"/><line class="cls-10" x1="71" y1="23" x2="144.44" y2="23"/><line class="cls-10" x1="71" y1="19" x2="144.44" y2="19"/><line class="cls-10" x1="71" y1="15" x2="144.44" y2="15"/><line class="cls-10" x1="71" y1="11" x2="144.44" y2="11"/><line class="cls-10" x1="71" y1="7" x2="144.44" y2="7"/><line class="cls-10" x1="71" y1="3" x2="144.44" y2="3"/></g><g><line class="cls-10" x1="-1" y1="71" x2="72.44" y2="71"/><line class="cls-10" x1="-1" y1="67" x2="72.44" y2="67"/><line class="cls-10" x1="-1" y1="63" x2="72.44" y2="63"/><line class="cls-10" x1="-1" y1="59" x2="72.44" y2="59"/><line class="cls-10" x1="-1" y1="55" x2="72.44" y2="55"/><line class="cls-10" x1="-1" y1="51" x2="72.44" y2="51"/><line class="cls-10" x1="-1" y1="47" x2="72.44" y2="47"/><line class="cls-10" x1="-1" y1="43" x2="72.44" y2="43"/><line class="cls-10" x1="-1" y1="39" x2="72.44" y2="39"/><line class="cls-10" x1="-1" y1="35" x2="72.44" y2="35"/><line class="cls-10" x1="-1" y1="31" x2="72.44" y2="31"/><line class="cls-10" x1="-1" y1="27" x2="72.44" y2="27"/><line class="cls-10" x1="-1" y1="23" x2="72.44" y2="23"/><line class="cls-10" x1="-1" y1="19" x2="72.44" y2="19"/><line class="cls-10" x1="-1" y1="15" x2="72.44" y2="15"/><line class="cls-10" x1="-1" y1="11" x2="72.44" y2="11"/><line class="cls-10" x1="-1" y1="7" x2="72.44" y2="7"/><line class="cls-10" x1="-1" y1="3" x2="72.44" y2="3"/><line class="cls-10" x1="1.04" y1="69" x2="74.48" y2="69"/><line class="cls-10" x1="1.04" y1="65" x2="74.48" y2="65"/><line class="cls-10" x1="1.04" y1="61" x2="74.48" y2="61"/><line class="cls-10" x1="1.04" y1="57" x2="74.48" y2="57"/><line class="cls-10" x1="1.04" y1="53" x2="74.48" y2="53"/><line class="cls-10" x1="1.04" y1="49" x2="74.48" y2="49"/><line class="cls-10" x1="1.04" y1="45" x2="74.48" y2="45"/><line class="cls-10" x1="1.04" y1="41" x2="74.48" y2="41"/><line class="cls-10" x1="1.04" y1="37" x2="74.48" y2="37"/><line class="cls-10" x1="1.04" y1="33" x2="74.48" y2="33"/><line class="cls-10" x1="1.04" y1="29" x2="74.48" y2="29"/><line class="cls-10" x1="1.04" y1="25" x2="74.48" y2="25"/><line class="cls-10" x1="1.04" y1="21" x2="74.48" y2="21"/><line class="cls-10" x1="1.04" y1="17" x2="74.48" y2="17"/><line class="cls-10" x1="1.04" y1="13" x2="74.48" y2="13"/><line class="cls-10" x1="1.04" y1="9" x2="74.48" y2="9"/><line class="cls-10" x1="1.04" y1="5" x2="74.48" y2="5"/><line class="cls-10" x1="1.04" y1="1" x2="74.48" y2="1"/></g><g><line class="cls-10" x1="-73" y1="71" x2=".44" y2="71"/><line class="cls-10" x1="-73" y1="67" x2=".44" y2="67"/><line class="cls-10" x1="-73" y1="63" x2=".44" y2="63"/><line class="cls-10" x1="-73" y1="59" x2=".44" y2="59"/><line class="cls-10" x1="-73" y1="55" x2=".44" y2="55"/><line class="cls-10" x1="-73" y1="51" x2=".44" y2="51"/><line class="cls-10" x1="-73" y1="47" x2=".44" y2="47"/><line class="cls-10" x1="-73" y1="43" x2=".44" y2="43"/><line class="cls-10" x1="-73" y1="39" x2=".44" y2="39"/><line class="cls-10" x1="-73" y1="35" x2=".44" y2="35"/><line class="cls-10" x1="-73" y1="31" x2=".44" y2="31"/><line class="cls-10" x1="-73" y1="27" x2=".44" y2="27"/><line class="cls-10" x1="-73" y1="23" x2=".44" y2="23"/><line class="cls-10" x1="-73" y1="19" x2=".44" y2="19"/><line class="cls-10" x1="-73" y1="15" x2=".44" y2="15"/><line class="cls-10" x1="-73" y1="11" x2=".44" y2="11"/><line class="cls-10" x1="-73" y1="7" x2=".44" y2="7"/><line class="cls-10" x1="-73" y1="3" x2=".44" y2="3"/><line class="cls-10" x1="-70.96" y1="69" x2="2.48" y2="69"/><line class="cls-10" x1="-70.96" y1="65" x2="2.48" y2="65"/><line class="cls-10" x1="-70.96" y1="61" x2="2.48" y2="61"/><line class="cls-10" x1="-70.96" y1="57" x2="2.48" y2="57"/><line class="cls-10" x1="-70.96" y1="53" x2="2.48" y2="53"/><line class="cls-10" x1="-70.96" y1="49" x2="2.48" y2="49"/><line class="cls-10" x1="-70.96" y1="45" x2="2.48" y2="45"/><line class="cls-10" x1="-70.96" y1="41" x2="2.48" y2="41"/><line class="cls-10" x1="-70.96" y1="37" x2="2.48" y2="37"/><line class="cls-10" x1="-70.96" y1="33" x2="2.48" y2="33"/><line class="cls-10" x1="-70.96" y1="29" x2="2.48" y2="29"/><line class="cls-10" x1="-70.96" y1="25" x2="2.48" y2="25"/><line class="cls-10" x1="-70.96" y1="21" x2="2.48" y2="21"/><line class="cls-10" x1="-70.96" y1="17" x2="2.48" y2="17"/><line class="cls-10" x1="-70.96" y1="13" x2="2.48" y2="13"/><line class="cls-10" x1="-70.96" y1="9" x2="2.48" y2="9"/><line class="cls-10" x1="-70.96" y1="5" x2="2.48" y2="5"/><line class="cls-10" x1="-70.96" y1="1" x2="2.48" y2="1"/></g></g></pattern></defs><g id="BG"><g><path class="cls-6" d="M64.02,40c0,11.47-1.89,22.39-5.5,31.74-7.2,2.16-14.94,3.26-23.02,3.26-.49,0-.98-.01-1.47-.02h-.17c-8.18-.15-16.29-1.47-23.6-3.85-3.45-9.22-5.26-19.93-5.26-31.13s1.89-22.38,5.48-31.73c6.73-2.01,14.13-3.13,21.6-3.26,.48-.01,.97-.01,1.45-.01,.54,0,1.08,.01,1.63,.02,8.16,.15,16.27,1.47,23.59,3.84,3.46,9.24,5.27,19.95,5.27,31.14Z"/><path class="cls-15" d="M34.03,5.59V74.98h-.17c-8.18-.15-16.29-1.47-23.6-3.85-3.45-9.22-5.26-19.93-5.26-31.13s1.89-22.38,5.48-31.73c6.73-2.01,14.13-3.13,21.6-3.26,.65,.16,1.3,.36,1.95,.58Z"/></g></g><g id="Capa_9"><g><g><path class="cls-1" d="M21.06,5.43s-4.98,3.28-5.61,8.47,5.08,26.48,5.08,26.48l-2.12-2.12s-1.59,2.12-1.06,6.14,2.75,5.93,4.13,6.25c.85,4.34,1.48,6.89,2.33,7.41-.32,4.77-.53,6.04-.53,6.04l-13.66,4.77,.74,3.5,27.43,4.45,22.67-3.28v-4.45l-13.77-4.77-.42-6.36s1.81-3.4,2.22-7.31c3.39-.42,4.13-6.14,4.34-7.63s-1.06-5.3-1.06-5.3l-2.33,2.44,.95-4.98s4.66-17.8,4.24-20.76-3.18-8.16-4.34-9.11c-6.78-3.5-23.3-2.44-29.24,.11Z"/><path class="cls-2" d="M34.89,61.52v-25.3c0-3.45,3.17-6.01,6.55-5.32s6.81,2.22,8.35,5.79c-.84,6.04-1.03,12.9-1.29,13.97s-1.48,6.82-2.96,8.13c-3.14,2.62-6.29,5.15-8.03,5.24h0c-1.43,.06-2.62-1.08-2.62-2.51Z"/><path class="cls-18" d="M19.83,37.73s2.16-5.73,9.39-7.14,16.15,1.31,16.15,1.31c0,0,3.66,3.47,4.41,4.79,2.25-7.42,4.79-19.43,4.79-21.69s-2.25-7.14-4.13-8.45c-3.94-1.97-21.87-5.35-31.17,.38-4.32,4.79-3.76,7.98-3.1,13.24s3.66,17.56,3.66,17.56Z"/><path class="cls-2" d="M22.93,64.05s2.45,7.9,11.21,7.68,11.57-4.88,12.56-7.4c6.65,2.07,14.34,4.52,14.34,4.52l-.64,5.44-29.14,3.74-21.56-4.7,.96-4.8,12.27-4.48Z"/><path class="cls-5" d="M32.95,24.61s-5.04,.51-11.71,4.1c-2.99-10.09-2.99-13.68-1.88-17.18s5.81-6.58,10.86-8.12c2.56,.17,2.74,2.48,2.74,2.48V24.61Z"/><path class="cls-5" d="M36.99,24.84V3.41s10.04,2.25,13.12,6.37c1.8,3.6,1.5,6.6,1.5,6.6l-2.92,12.82s-5.85-4.72-11.69-4.35Z"/><path class="cls-14" d="M42.65,5.6s-1.51,18.85-1.74,19.88c4.44,1.43,5.86,2.54,5.86,2.54,0,0,1.43-15.21,2.69-18.85-3.01-3.64-6.81-3.56-6.81-3.56Z"/><path class="cls-17" d="M42.51,25.83l2.35-19.72s2.95,1.07,3.82,2.28c-1.34,3.69-3.22,18.51-3.22,18.51l-2.95-1.07Z"/><path d="M25.02,5.59s1.2,19.58,2.56,20.43c-3.59,1.28-4.45,1.97-4.45,1.97,0,0-2.14-15.73-3.16-17.61,2.22-3.08,5.04-4.79,5.04-4.79Z"/><path d="M17.22,9.6s2.63-.73,1.81,2.63c-.73,2.63-.73,6.08-.27,7.8s2.54,9.25,2.54,9.25l3.81-2.27s.09,3.26,.91,4.9c-3.17,.73-6.18,5.82-6.18,5.82,0,0-3.88-18.97-4.16-21.05s0-5.8,1.54-7.07Z"/><path d="M20.84,40.72l-2.67-2.81s-1.15,2.74-1.01,5.84,2.72,6.48,4.32,6.92c-.93-5.84-.64-9.95-.64-9.95Z"/><path d="M41.48,62.5l-15.01,13.78-15.94-3.32,.51-4.69,12.25-4.16,.53-6.04s4.1,3.41,5.69,4.71,5.41,.51,5.41,.51c0,0,2.67,1.08,6.57-.79Z"/><polygon class="cls-4" points="37.24 43.64 36.7 40.89 41.23 38.95 45.28 40.07 47.55 41.98 45.13 45 43.01 46.32 40.46 45.73 37.24 43.64"/><polygon class="cls-4" points="32.57 43.64 33.11 40.89 28.58 38.95 24.53 40.07 22.26 41.98 24.68 45 26.8 46.32 29.35 45.73 32.57 43.64"/><path class="cls-3" d="M37.59,43.65l3.23-.97,3.52,1.04s-2.29,1.1-3.67,1.26c-2.07-.47-3.08-1.32-3.08-1.32Z"/><path class="cls-3" d="M32.01,43.65l-3.23-.97-3.52,1.04s2.29,1.1,3.67,1.26c2.07-.47,3.08-1.32,3.08-1.32Z"/><path class="cls-2" d="M35.46,70.24l9.44-9.51,.15,3.58s-1.98,5.56-9.58,5.93Z"/><path class="cls-2" d="M24.73,46.66c.93,.56,2.59,1.33,4.24,.96,.33-.07,.55,.34,.32,.58-2.67,2.89-4.04,2.52-5.08-1.13-.09-.31,.24-.58,.52-.41Z"/><path class="cls-11" d="M49.42,37.4c-.38,1.9-.65,3.6-.7,4.93-.07,1.54-.16,3-.28,4.35h-.03c-.36,1.79-1.26,3.6-2.64,4.84-.51,.49-1.14,.83-1.75,1.17-.24,1.45-.49,2.91-.63,4.38,.44-1.27,.95-2.49,1.48-3.72,1.31-.7,2.36-1.76,3.14-3.01-.59,4.01-1.49,6.67-2.6,7.49-.52,.39-1.11,.94-1.74,1.52-2.33,2.15-5.24,4.83-8.39,3.47l-.5-.04-.2,.04c-3.16,1.36-6.06-1.32-8.39-3.47-.63-.58-1.22-1.13-1.75-1.52-1.72-1.28-2.96-7.07-3.3-15.5-.04-1.07-.22-2.38-.49-3.84h.01s-.05-2.18,1.9-4.18c2.3-2.38,6.5-3.64,12.14-3.64,14.15,0,14.69,6.66,14.7,6.73h.02Z"/><path class="cls-16" d="M40.91,25.48l-.52,5.24s4.55,.94,5.6,2c-.22-2.88,.61-5.16,.61-5.16,0,0-3.73-1.84-5.69-2.08Z"/><path class="cls-7" d="M48.71,5.8s5,1.76,5.75,9.08c-.13,6.93-5,21.3-5.25,27.48s-1.13,14.12-3.5,15.88-6.25,6.93-10.63,5.04h-.31c-4.38,1.89-8.25-3.28-10.63-5.04s-3.25-9.71-3.5-15.88-5.13-20.54-5.25-27.48c.75-7.31,5.75-9.08,5.75-9.08"/><path class="cls-7" d="M20.16,38.51s-.33-8.34,14.55-8.34,15.19,7.2,15.19,7.2"/><path class="cls-7" d="M44.43,5.51s5.78,1.46,7.02,9.3c-.19,6.49-2.66,14.14-2.66,14.14,0,0-5.14-3.62-11.85-4.14V5.11h-3.9V24.81c-6.71,.52-11.85,4.14-11.85,4.14,0,0-2.46-7.65-2.65-14.14,1.23-7.84,7.01-9.3,7.01-9.3"/><path d="M21.42,46.53c.47,2.54,1.98,5.03,4.37,6.16,.24,1.45,.49,2.91,.63,4.38-.46-1.33-1.01-2.62-1.56-3.92l.26,.31c-2.59-1.3-4.16-3.99-4.69-6.78,0,0,.99-.15,.99-.15h0Z"/><path d="M49.4,46.83c-.55,2.75-2.16,5.35-4.71,6.62,0,0,.26-.31,.26-.31-.55,1.29-1.1,2.59-1.56,3.92,.14-1.47,.39-2.92,.63-4.38,.61-.34,1.24-.68,1.75-1.17,1.38-1.24,2.28-3.05,2.64-4.84,0,0,.99,.16,.99,.16h0Z"/><path class="cls-7" d="M20.55,40.91l-2.44-3.03s-1.43,2.57-.83,6.21,2.39,6.53,3.91,6.39"/><path class="cls-7" d="M49.28,40.91l2.44-3.03s1.43,2.57,.83,6.21-2.39,6.53-3.91,6.39"/><polyline class="cls-7" points="23.63 57.68 23.31 63.96 8.84 69.04"/><polyline class="cls-7" points="46.33 57.59 46.59 63.96 61.06 69.04"/><path class="cls-7" d="M23.31,63.96s1,7.69,11.38,7.69,11.91-7.69,11.91-7.69"/><path d="M22.44,41.98s.72-1.92,3.58-3.15,5.54-.72,5.54-.72c0,0,1.75,1.06,1.66,2.81-2.56,0-4.35-1.36-6.52-.89s-2.9,1.92-4.26,1.96Z"/><path d="M47.41,41.98s-.72-1.92-3.58-3.15-5.54-.72-5.54-.72c0,0-1.75,1.06-1.66,2.81,2.56,0,4.35-1.36,6.52-.89s2.9,1.92,4.26,1.96Z"/><path class="cls-12" d="M32.28,43.68l-3.24-.98-3.62,.89s2.34,1.28,3.83,1.32c1.96-.34,3.02-1.24,3.02-1.24Z"/><path d="M24.71,44.8c.81,.72,1.83,1.22,2.85,1.31,1.39-.24,3.55-1.29,4.64-2.65,0,0,.39,.31,.39,.31-1.32,1.5-3.12,2.5-5.07,2.84-1.14-.28-2.1-.97-2.81-1.81h0Z"/><path class="cls-12" d="M37.73,43.68l3.24-.98,3.62,.89s-2.34,1.28-3.83,1.32c-1.96-.34-3.02-1.24-3.02-1.24Z"/><path d="M45.3,44.8c-.71,.84-1.66,1.53-2.81,1.81-1.96-.34-3.75-1.34-5.07-2.84,0,0,.39-.31,.39-.31,1.08,1.35,3.25,2.41,4.64,2.65,1.02-.09,2.04-.59,2.85-1.31h0Z"/><path d="M36.97,46.23c.22,.9,.6,1.77,1.18,2.42,.42,.68,.32,1.63-.29,2.18-.42-.28-1-.24-1.47-.01-.53,.22-1.01,.64-1.44,1.05-.6-.56-1.27-1.13-2.09-1.23-.34-.04-.57,.07-.82,.2-.61-.56-.71-1.51-.28-2.19,.57-.65,.95-1.51,1.17-2.42,0,.47-.07,.93-.19,1.39-.18,.96-1.22,1.66-.39,2.59,0,0-.41-.04-.41-.04,.62-.34,1.25-.25,1.84-.02,.55,.22,1,.56,1.42,.93h-.5c.85-.75,2.1-1.53,3.26-.91,0,0-.4,.04-.4,.04,.38-.32,.34-1.04,.23-1.29-.57-.78-.8-1.75-.81-2.7h0Z"/><path d="M41.61,54.99c-3.06-.92-4.72-.51-5.66,0-.57,.31-1.25,.3-1.83,0-.95-.49-2.68-.9-5.67,0,0,0,3.13-2.82,6.58-1.19,3.45-1.63,6.58,1.19,6.58,1.19Z"/><path d="M30.91,55.85c2.58,1.09,5.72,.68,8.2,.15-1.85,2-6.71,2.15-8.2-.15h0Z"/></g><path class="cls-13" d="M23.6,60.88c.21,1.26,.27,2.53,.27,3.8-3.78,1.93-7.83,3.4-12.08,3.78,0,0-.04-.1-.04-.1,3.25-1.18,8.33-3.22,11.32-4.13,0,0,.43-3.36,.43-3.36,0,0,.11,.01,.11,.01h0Z"/></g></g><g id="Frame"><g><path class="cls-5" d="M62.56,4.88C54.4,1.94,45.12,.2,35.25,.02c-.57-.01-1.15-.02-1.72-.02C23.88,0,14.77,1.52,6.72,4.21,2.49,14.22,0,26.6,0,40s2.39,25.22,6.45,35.11c8.16,2.94,17.45,4.69,27.32,4.87,.58,.01,1.15,.02,1.73,.02,9.63,0,18.73-1.51,26.78-4.2,4.24-10.01,6.74-22.39,6.74-35.8s-2.4-25.24-6.46-35.12Zm-4.04,66.86c-7.2,2.16-14.94,3.26-23.02,3.26-.49,0-.98-.01-1.47-.02h-.17c-8.18-.15-16.29-1.47-23.6-3.85-3.45-9.22-5.26-19.93-5.26-31.13s1.89-22.38,5.48-31.73c6.73-2.01,14.13-3.13,21.6-3.26,.48-.01,.97-.01,1.45-.01,.54,0,1.08,.01,1.63,.02,8.16,.15,16.27,1.47,23.59,3.84,3.46,9.24,5.27,19.95,5.27,31.14s-1.89,22.39-5.5,31.74Z"/><path class="cls-14" d="M17.21,2.06h0c1.63,.63,2.06,2.75,.81,3.97l-1.26,1.22s8.35-2.37,18.84-1.69h0c-1-1.49-.45-3.52,1.14-4.34l1-.51S28.26-.43,17.21,2.06Z"/><path class="cls-17" d="M21.81,1.66s.7,2.18-.22,3.1c3.77-.41,7.98-.74,11.12-.74-.33-1.33,1.26-3.4,1.26-3.4,0,0-6.17-.26-12.16,1.03Z"/><path class="cls-14" d="M36.25,79.21h0c-1.52-.87-1.62-3.03-.2-4.04l1.43-1.02s-8.61,1.07-18.88-1.19h0c.76,1.63-.09,3.55-1.79,4.11l-1.07,.36s9.19,2.56,20.5,1.78Z"/><path class="cls-17" d="M19.28,77.8s1.76-1.83,1.3-3.09c4.43,.69,9.11,1.14,12.25,1.14-.33,1.33,.44,3.4,.44,3.4,0,0-8-.16-13.99-1.45Z"/><polygon points="47.48 1.77 47.48 6.73 54.49 8.44 54.49 2.62 47.48 1.77"/><line class="cls-7" x1="45.5" y1="1.23" x2="45.5" y2="6.29"/><line class="cls-7" x1="56.47" y1="3.67" x2="56.47" y2="8.73"/><polygon points="47.48 78.74 47.48 73.78 54.49 72.07 54.49 77.88 47.48 78.74"/><line class="cls-7" x1="45.5" y1="79.28" x2="45.5" y2="74.21"/><line class="cls-7" x1="56.47" y1="76.84" x2="56.47" y2="71.77"/><path d="M33.53,1c.56,0,1.14,0,1.7,.02,9.39,.17,18.33,1.74,26.57,4.65,4.07,10.08,6.22,21.94,6.22,34.33s-2.24,24.79-6.49,34.99c-8.12,2.66-16.87,4.01-26.03,4.01-.56,0-1.12,0-1.71-.02-9.25-.17-18.42-1.78-26.58-4.66C3.15,64.25,1,52.39,1,40S3.23,15.21,7.47,5.02C15.6,2.35,24.37,1,33.53,1m0-1C23.88,0,14.77,1.52,6.72,4.21,2.49,14.22,0,26.6,0,40s2.39,25.22,6.45,35.11c8.16,2.94,17.45,4.69,27.32,4.87,.58,.01,1.15,.02,1.73,.02,9.63,0,18.73-1.51,26.78-4.2,4.24-10.01,6.74-22.39,6.74-35.8s-2.4-25.24-6.46-35.12C54.4,1.94,45.12,.2,35.25,.02c-.57,0-1.15-.02-1.72-.02h0Z"/><path class="cls-14" d="M33.53,6c.52,0,1.04,0,1.61,.02,7.87,.14,15.75,1.4,22.84,3.64,3.3,9,5.04,19.47,5.04,30.34s-1.82,21.82-5.26,30.92c-6.98,2.04-14.47,3.08-22.26,3.08-.48,0-.97,0-1.47-.02h-.15c-7.89-.14-15.78-1.41-22.85-3.65-3.29-8.99-5.03-19.46-5.03-30.33s1.81-21.79,5.24-30.91c6.5-1.89,13.7-2.95,20.86-3.08,.47,0,.96,0,1.43,0m0-1c-.48,0-.97,0-1.45,.01-7.47,.13-14.87,1.25-21.6,3.26-3.59,9.35-5.48,20.26-5.48,31.73s1.81,21.91,5.26,31.13c7.31,2.38,15.42,3.7,23.6,3.85h.17c.49,.01,.98,.02,1.47,.02,8.08,0,15.82-1.1,23.02-3.26,3.61-9.35,5.5-20.27,5.5-31.74s-1.81-21.9-5.27-31.14c-7.32-2.37-15.43-3.69-23.59-3.84-.55,0-1.09-.02-1.63-.02h0Z"/><path class="cls-8" d="M8.14,7.1s-12.66,32.94,0,66.06"/><path class="cls-8" d="M60.88,7.58s12.66,32.94,0,66.06"/></g><path d="M33.53,5c.54,0,1.08,.01,1.63,.02,8.16,.15,16.27,1.47,23.59,3.84,3.46,9.24,5.27,19.95,5.27,31.14s-1.89,22.39-5.5,31.74c-7.2,2.16-14.94,3.26-23.02,3.26-.49,0-.98-.01-1.47-.02h-.17c-8.18-.15-16.29-1.47-23.6-3.85-3.45-9.22-5.26-19.93-5.26-31.13s1.89-22.38,5.48-31.73c6.73-2.01,14.13-3.13,21.6-3.26,.48-.01,.97-.01,1.45-.01m0-1c-.49,0-.98,0-1.47,.01-7.51,.13-15.07,1.27-21.87,3.3l-.47,.14-.18,.46c-3.63,9.45-5.55,20.55-5.55,32.09s1.84,22.17,5.32,31.48l.17,.45,.46,.15c7.37,2.4,15.63,3.75,23.89,3.9h.19c.48,.01,.97,.02,1.47,.02,8.16,0,16-1.11,23.31-3.3l.47-.14,.18-.46c3.64-9.43,5.57-20.53,5.57-32.1s-1.84-22.17-5.33-31.49l-.17-.45-.46-.15c-7.39-2.39-15.65-3.74-23.88-3.89-.58-.01-1.12-.02-1.65-.02h0Z"/></g></svg>