<svg id="Capa_2" xmlns="http://www.w3.org/2000/svg" xmlns:xlink="http://www.w3.org/1999/xlink" viewBox="0 0 69.02 80">
<defs >
<style >
.cls-1{fill:#c89aed;}.cls-2{fill:#fff;}.cls-3{fill:#f8ffbf;}.cls-4{fill:#7b7be8;}.cls-5{fill:#a88347;}.cls-6{fill:#782ab5;}.cls-7{stroke:#000;stroke-miterlimit:10;}.cls-7,.cls-8,.cls-9,.cls-10{fill:none;}.cls-11{fill:#1c46ff;}.cls-8{stroke:#deb778;stroke-dasharray:0 0 0 4.06;stroke-linecap:round;stroke-linejoin:round;}.cls-12{fill:#deb778;}.cls-13{fill:url(#USGS_19_Inundación_de_tierra_2);}.cls-10{stroke:#1d1d1b;stroke-dasharray:0 0 2 2;stroke-width:.3px;}.cls-14{fill:#cf5f2b;}.cls-15{fill:#fcf0c5;}.cls-16{fill:#b83521;}
</style>
<pattern id="USGS_19_Inundación_de_tierra_2" x="0" y="0" width="72" height="72" patternTransform="translate(-92.48 -16423) rotate(-90)" patternUnits="userSpaceOnUse" viewBox="0 0 72 72">
<g >
<rect class="cls-9" width="72" height="72">
</rect>
<g >
<line class="cls-10" x1="71" y1="71" x2="144.44" y2="71">
</line>
<line class="cls-10" x1="71" y1="67" x2="144.44" y2="67">
</line>
<line class="cls-10" x1="71" y1="63" x2="144.44" y2="63">
</line>
<line class="cls-10" x1="71" y1="59" x2="144.44" y2="59">
</line>
<line class="cls-10" x1="71" y1="55" x2="144.44" y2="55">
</line>
<line class="cls-10" x1="71" y1="51" x2="144.44" y2="51">
</line>
<line class="cls-10" x1="71" y1="47" x2="144.44" y2="47">
</line>
<line class="cls-10" x1="71" y1="43" x2="144.44" y2="43">
</line>
<line class="cls-10" x1="71" y1="39" x2="144.44" y2="39">
</line>
<line class="cls-10" x1="71" y1="35" x2="144.44" y2="35">
</line>
<line class="cls-10" x1="71" y1="31" x2="144.44" y2="31">
</line>
<line class="cls-10" x1="71" y1="27" x2="144.44" y2="27">
</line>
<line class="cls-10" x1="71" y1="23" x2="144.44" y2="23">
</line>
<line class="cls-10" x1="71" y1="19" x2="144.44" y2="19">
</line>
<line class="cls-10" x1="71" y1="15" x2="144.44" y2="15">
</line>
<line class="cls-10" x1="71" y1="11" x2="144.44" y2="11">
</line>
<line class="cls-10" x1="71" y1="7" x2="144.44" y2="7">
</line>
<line class="cls-10" x1="71" y1="3" x2="144.44" y2="3">
</line>
</g>
<g >
<line class="cls-10" x1="-1" y1="71" x2="72.44" y2="71">
</line>
<line class="cls-10" x1="-1" y1="67" x2="72.44" y2="67">
</line>
<line class="cls-10" x1="-1" y1="63" x2="72.44" y2="63">
</line>
<line class="cls-10" x1="-1" y1="59" x2="72.44" y2="59">
</line>
<line class="cls-10" x1="-1" y1="55" x2="72.44" y2="55">
</line>
<line class="cls-10" x1="-1" y1="51" x2="72.44" y2="51">
</line>
<line class="cls-10" x1="-1" y1="47" x2="72.44" y2="47">
</line>
<line class="cls-10" x1="-1" y1="43" x2="72.44" y2="43">
</line>
<line class="cls-10" x1="-1" y1="39" x2="72.44" y2="39">
</line>
<line class="cls-10" x1="-1" y1="35" x2="72.44" y2="35">
</line>
<line class="cls-10" x1="-1" y1="31" x2="72.44" y2="31">
</line>
<line class="cls-10" x1="-1" y1="27" x2="72.44" y2="27">
</line>
<line class="cls-10" x1="-1" y1="23" x2="72.44" y2="23">
</line>
<line class="cls-10" x1="-1" y1="19" x2="72.44" y2="19">
</line>
<line class="cls-10" x1="-1" y1="15" x2="72.44" y2="15">
</line>
<line class="cls-10" x1="-1" y1="11" x2="72.44" y2="11">
</line>
<line class="cls-10" x1="-1" y1="7" x2="72.44" y2="7">
</line>
<line class="cls-10" x1="-1" y1="3" x2="72.44" y2="3">
</line>
<line class="cls-10" x1="1.04" y1="69" x2="74.48" y2="69">
</line>
<line class="cls-10" x1="1.04" y1="65" x2="74.48" y2="65">
</line>
<line class="cls-10" x1="1.04" y1="61" x2="74.48" y2="61">
</line>
<line class="cls-10" x1="1.04" y1="57" x2="74.48" y2="57">
</line>
<line class="cls-10" x1="1.04" y1="53" x2="74.48" y2="53">
</line>
<line class="cls-10" x1="1.04" y1="49" x2="74.48" y2="49">
</line>
<line class="cls-10" x1="1.04" y1="45" x2="74.48" y2="45">
</line>
<line class="cls-10" x1="1.04" y1="41" x2="74.48" y2="41">
</line>
<line class="cls-10" x1="1.04" y1="37" x2="74.48" y2="37">
</line>
<line class="cls-10" x1="1.04" y1="33" x2="74.48" y2="33">
</line>
<line class="cls-10" x1="1.04" y1="29" x2="74.48" y2="29">
</line>
<line class="cls-10" x1="1.04" y1="25" x2="74.48" y2="25">
</line>
<line class="cls-10" x1="1.04" y1="21" x2="74.48" y2="21">
</line>
<line class="cls-10" x1="1.04" y1="17" x2="74.48" y2="17">
</line>
<line class="cls-10" x1="1.04" y1="13" x2="74.48" y2="13">
</line>
<line class="cls-10" x1="1.04" y1="9" x2="74.48" y2="9">
</line>
<line class="cls-10" x1="1.04" y1="5" x2="74.48" y2="5">
</line>
<line class="cls-10" x1="1.04" y1="1" x2="74.48" y2="1">
</line>
</g>
<g >
<line class="cls-10" x1="-73" y1="71" x2=".44" y2="71">
</line>
<line class="cls-10" x1="-73" y1="67" x2=".44" y2="67">
</line>
<line class="cls-10" x1="-73" y1="63" x2=".44" y2="63">
</line>
<line class="cls-10" x1="-73" y1="59" x2=".44" y2="59">
</line>
<line class="cls-10" x1="-73" y1="55" x2=".44" y2="55">
</line>
<line class="cls-10" x1="-73" y1="51" x2=".44" y2="51">
</line>
<line class="cls-10" x1="-73" y1="47" x2=".44" y2="47">
</line>
<line class="cls-10" x1="-73" y1="43" x2=".44" y2="43">
</line>
<line class="cls-10" x1="-73" y1="39" x2=".44" y2="39">
</line>
<line class="cls-10" x1="-73" y1="35" x2=".44" y2="35">
</line>
<line class="cls-10" x1="-73" y1="31" x2=".44" y2="31">
</line>
<line class="cls-10" x1="-73" y1="27" x2=".44" y2="27">
</line>
<line class="cls-10" x1="-73" y1="23" x2=".44" y2="23">
</line>
<line class="cls-10" x1="-73" y1="19" x2=".44" y2="19">
</line>
<line class="cls-10" x1="-73" y1="15" x2=".44" y2="15">
</line>
<line class="cls-10" x1="-73" y1="11" x2=".44" y2="11">
</line>
<line class="cls-10" x1="-73" y1="7" x2=".44" y2="7">
</line>
<line class="cls-10" x1="-73" y1="3" x2=".44" y2="3">
</line>
<line class="cls-10" x1="-70.96" y1="69" x2="2.48" y2="69">
</line>
<line class="cls-10" x1="-70.96" y1="65" x2="2.48" y2="65">
</line>
<line class="cls-10" x1="-70.96" y1="61" x2="2.48" y2="61">
</line>
<line class="cls-10" x1="-70.96" y1="57" x2="2.48" y2="57">
</line>
<line class="cls-10" x1="-70.96" y1="53" x2="2.48" y2="53">
</line>
<line class="cls-10" x1="-70.96" y1="49" x2="2.48" y2="49">
</line>
<line class="cls-10" x1="-70.96" y1="45" x2="2.48" y2="45">
</line>
<line class="cls-10" x1="-70.96" y1="41" x2="2.48" y2="41">
</line>
<line class="cls-10" x1="-70.96" y1="37" x2="2.48" y2="37">
</line>
<line class="cls-10" x1="-70.96" y1="33" x2="2.48" y2="33">
</line>
<line class="cls-10" x1="-70.96" y1="29" x2="2.48" y2="29">
</line>
<line class="cls-10" x1="-70.96" y1="25" x2="2.48" y2="25">
</line>
<line class="cls-10" x1="-70.96" y1="21" x2="2.48" y2="21">
</line>
<line class="cls-10" x1="-70.96" y1="17" x2="2.48" y2="17">
</line>
<line class="cls-10" x1="-70.96" y1="13" x2="2.48" y2="13">
</line>
<line class="cls-10" x1="-70.96" y1="9" x2="2.48" y2="9">
</line>
<line class="cls-10" x1="-70.96" y1="5" x2="2.48" y2="5">
</line>
<line class="cls-10" x1="-70.96" y1="1" x2="2.48" y2="1">
</line>
</g>
</g>
</pattern>
</defs>

<g id="Capa_9">
<g >
<g >
<path class="cls-1" d="M59.77,72.79s-11.19,3.62-20.4,3.73c-9.21,.11-28.07-4.28-28.07-4.28l14.91-4.61-.18-4.72-.04-1.09s-2.74-2.74-3.18-3.95c-1.64-.33-2.41-1.97-2.41-1.97,0,0-6.14,.77-6.58-5.26-2.52-2.31-3.51-6.69,2.08-10.2-1.09-2.74-.66-4.28,.99-5.38,.23-.15,.46-.32,.68-.51,1.36-1.12,2.5-2.67,2.5-2.67,0,0-2.96-14.14-2.96-16.45,5.37-3.72,21.27-10.19,35.2,.55-1.66,10.52-2.7,15.14-2.99,16.34-.05,.23-.08,.33-.08,.33,0,0,4.17,2.52,4.6,4.06,.44,1.53-.43,3.4-.43,3.4,0,0,4.16,2.96,4.05,6.8-.55,3.4-2.3,3.73-2.3,3.73,0,0-.22,3.18-1.75,4.16-1.87,1.1-4.83,.99-4.83,.99,0,0-.55,1.75-2.19,1.86-.6,2.72-3.05,3.87-3.45,4.04-.04,.01-.06,.02-.06,.02l-.11,5.48,17,5.6Z">
</path>
<path class="cls-2" d="M34.64,63.49v-30.36s3.16,3.57,7.03,3.35c-.11,2.46,2.81,4.35,5.18,4.51,1.27,2.19,2.08,2.59,2.08,2.59,0,0-3.03,11.69-6.54,16.03-4.06,4.24-7.75,3.88-7.75,3.88Z">
</path>
<path class="cls-4" d="M30.87,46.69s3.41-1.49,1.36-6.27c-2.96,.32-6.69,.68-9.01,2.82,.32,2.09,.91,3.09,2.05,3.5s5.6-.05,5.6-.05Z">
</path>
<path class="cls-4" d="M38.25,46.71s-3.41-1.49-1.36-6.27c2.96,.32,6.69,.68,9.01,2.82-.32,2.09-.91,3.09-2.05,3.5s-5.6-.05-5.6-.05Z">
</path>
<path class="cls-16" d="M57.46,46.91c-.55,3.4-2.3,3.73-2.3,3.73,0,0-.22,3.18-1.75,4.16-1.87,1.1-4.83,.99-4.83,.99,0,0-.55,1.75-2.19,1.86-.6,2.72-3.05,3.87-3.45,4.04-.13-.68-.19-1.53-.1-2.58,.83-2.17,5.26-9.68,6.09-15.52-.58-.25-2.08-2.59-2.08-2.59,0,0-4.42-.23-5.18-4.51-6.51,0-7.34-4.17-7.34-4.17,0,0-1.25,3.42-6.34,4.26-1.59,4.25-5.76,4.59-5.76,4.59,0,0-.25,.58-1.92,2.58,.83,8.35,6.01,15.36,6.01,15.36l.08,3.59-.37,.21-.04-1.09s-2.74-2.74-3.18-3.95c-1.64-.33-2.41-1.97-2.41-1.97,0,0-6.14,.77-6.58-5.26-2.52-2.31-3.51-6.69,2.08-10.2-1.09-2.74-.66-4.28,.99-5.38,.23-.15,.46-.32,.68-.51l1.57-.81s-.25-.92,2.34-3.25c4.5-2.67,13.35-2.92,13.35-2.92,0,0,10.6,0,14.27,4.5,.07,.08,.15,.17,.22,.25-.05,.23-.08,.33-.08,.33,0,0,4.17,2.52,4.6,4.06,.44,1.53-.43,3.4-.43,3.4,0,0,4.16,2.96,4.05,6.8Z">
</path>
<path class="cls-2" d="M19.55,31.67l-2.27-15.54s8.29-6.63,18.07-5.59c9.78,.96,16.67,5.41,16.67,5.41l-2.78,16.69s-2.46-4.47-12.06-4.82-13.53,1.05-17.63,3.84Z">
</path>
<path class="cls-2" d="M26.21,67.63s4.43,3.83,8.93,3.74c4.67-.18,7.67-3.79,7.67-3.79l16.67,5.03s-17.46,5.38-27.96,4.06-18.96-4.94-18.96-4.94l13.65-4.09Z">
</path>
<path d="M42.46,60.23l-16.24,15.13-13.65-2.67,1.48-1.48,12.15-3.58,.38-8.44s4.45,4.08,6.01,4.67c3.86,.22,4.08-.15,4.08-.15l5.79-3.49Z">
</path>
<path class="cls-3" d="M30.87,46.69s-.46-2.22-1.75-2.94c-1.91-.41-2.68-.1-3.14,.41s-1.39,2.01-1.39,2.01c0,0,1.37,1.39,3.07,1.7,1.86,.31,3.22-1.18,3.22-1.18Z">
</path>
<path class="cls-3" d="M38.11,46.69s.46-2.22,1.75-2.94c1.91-.41,2.68-.1,3.14,.41s1.39,2.01,1.39,2.01c0,0-1.37,1.39-3.07,1.7-1.86,.31-3.22-1.18-3.22-1.18Z">
</path>
<path class="cls-1" d="M34.6,34.6c1.4,1.72,3.64,2.82,6.04,2.93,.66,2.57,2.97,4.47,5.65,4.6,.4,.59,.87,1.15,1.4,1.64-.5,2.74-3.21,15.44-11.27,18.55-.17,.06-.81,.16-1.87,.16s-1.7-.1-1.85-.15c-8.13-3.13-10.82-15.96-11.27-18.48,.55-.49,1.04-1.05,1.46-1.66,2.69-.12,5.03-2.02,5.72-4.59,2.41-.15,4.53-1.17,5.86-2.84,.04-.05,.09-.1,.13-.16m-.02-1.35c-.19,.37-.41,.71-.68,1.02-1.41,1.77-3.67,2.6-5.9,2.6-.42,2.62-2.74,4.58-5.38,4.58-.05,0-.09,0-.14,0-.49,.79-1.13,1.52-1.86,2.11,.18,1.16,2.74,15.98,11.81,19.47,.37,.14,1.24,.2,2.12,.2s1.76-.07,2.13-.2c9.38-3.62,11.79-19.38,11.82-19.54-.71-.6-1.33-1.32-1.8-2.1-.04,0-.08,0-.12,0-2.65,0-4.95-1.97-5.33-4.6-.08,0-.16,0-.23,0-2.59,0-5.17-1.28-6.44-3.54h0Z">
</path>
<path class="cls-2" d="M25.75,49.1c.79,.16,2.03,.3,3.41,0,.59-.12,1.08,.47,.84,1.02-1.21,2.78-1.77,3.19-2.81,3.19-.98,0-2.1-1.79-2.32-3.41-.07-.5,.39-.92,.88-.81Z">
</path>
<path class="cls-14" d="M41.67,36.49s2.72,1.62,4.39-.75,3.97,1.81,4.88,.77-.14-2.51-.14-2.51c3.55,1.74,3.14,4.74,2.37,6.34,2.37,1.32,2.86,2.37,2.86,2.37,0,0-4.25-2.93-7.8,.07-1.11-1.32-1.37-1.78-1.37-1.78,0,0-4.7,.35-5.18-4.51Z">
</path>
<path class="cls-14" d="M27.79,36.22s-3.07,1.39-3.95-.44c-2.63,1.68-5.56-.66-4.97-2.19-3.88,2.19-4.54,4.39-3.15,6.51,2.19-.88,2.34,1.39,4.24,1.61s2.78-.66,2.78-.66c0,0,4.46-.66,5.05-4.83Z">
</path>
<path d="M20.61,44.57s-3.77,3.58-9.1,1.5c.33,1.43,.39,1.69,.39,1.69,0,0,5.14,.07,7.93-.98-1.69,2.21-6.7,2.6-6.7,2.6l.98,.98s-.78,3.25,1.17,4.49,5.12,1.05,5.12,1.05c0,0,.66,1.87,2.35,2.2,1.76,2.93,3.71,4.16,3.71,4.16l-.26-3.51s-4.49-7.74-5.59-14.17Z">
</path>
<path d="M48.89,43.92s2.73,1.82,7.54,.39c1.11,1.43,.85,2.34,.85,2.34,0,0-4.94,.07-7.28-1.17,1.82,3.06,5.16,5.16,5.16,5.16,0,0,.2,5.96-6.58,5.15-.21,1.85-2.19,1.86-2.19,1.86,0,0-1.01,3.67-3.45,4.04,.03-2.36,.1-3.01,.1-3.01,0,0,4.81-7.54,5.85-14.76Z">
</path>
<path class="cls-1" d="M29.97,10.92l1.19,17.03s-5.44,.01-9.69,2.54c-1.66-10.51-2.76-15.39-2.76-15.39,0,0,4.18-3.78,11.25-4.18Z">
</path>
<path class="cls-7" d="M19.85,32.45s-1.64-6.65-2.69-16.73c18.37-12.4,34.95,.07,34.95,.07,0,0-1.49,12.92-2.69,16.58">
</path>
<path class="cls-7" d="M42.49,61.85c2.87-.82,3.82-4.03,3.82-4.03,0,0,1.57,0,2.25-2.18,2.18,.61,7.1-.41,6.48-5.12,3.28-2.73,3.41-6.42-1.91-10.24,2.53-4.98-2.05-5.26-3.62-7.37-3.48-5.66-13.67-5.12-13.67-5.12h-2.49s-10.38-.55-13.86,5.12c-1.57,2.12-6.14,2.39-3.62,7.37-5.32,3.82-5.19,7.51-1.91,10.24-.61,4.71,4.3,5.73,6.48,5.12,.68,2.18,2.25,2.18,2.25,2.18,0,0,.96,3.21,3.82,4.03">
</path>
<path d="M54.48,44.63c-3.1,1.37-6.36-.73-7.91-3.44,0,0,.37,.21,.37,.21-2.9,.2-5.51-2.01-5.75-4.93,0,0,.37,.32,.37,.32-3.15,.23-6.42-1.51-7.45-4.58,0,0,.94,0,.94,0-.29,.73-.62,1.46-1.15,2.07-1.5,1.88-3.96,2.71-6.31,2.6,0,0,.46-.4,.46-.4-.25,2.95-2.9,5.19-5.84,4.97,0,0,.41-.23,.41-.23-1.56,2.71-4.86,4.81-7.95,3.42,3.27,1.04,5.97-1.26,7.27-4.07,2.95,.13,5.08-1.58,5.27-4.56,2.85,.16,5.98-1.24,6.89-4.12,0,0,.48-1.18,.48-1.18l.46,1.18c.83,2.75,3.73,4.22,6.47,4.22,0,0,.34,0,.34,0,.1,2.66,2.39,4.71,5.06,4.49,0,0,.26,.02,.26,.02l.11,.19c1.23,2.69,4.12,4.88,7.19,3.84h0Z">
</path>
<path class="cls-7" d="M48.99,43.56s-2.36,16.17-12.14,19.94c-.85,.31-3.75,.31-4.6,0-9.78-3.77-12.14-19.94-12.14-19.94">
</path>
<path d="M23.09,43.27s1.31-1.81,2.62-2.2,4.51-1.19,6.51-.65c-1.66,1.43-3.51,.89-5.24,1.19s-3.16,1.5-3.89,1.66Z">
</path>
<path d="M46.02,43.27s-1.31-1.81-2.62-2.2-4.51-1.19-6.51-.65c1.66,1.43,3.51,.89,5.24,1.19s3.16,1.5,3.89,1.66Z">
</path>
<path d="M30.88,46.63c-.43-1.04-1.06-1.98-2.03-2.5l.23,.07c-.77,.02-1.77-.1-2.42,.21-.34,.19-.58,.65-.89,.9-.36,.33-.76,.6-1.2,.78,.41-.57,.78-1.1,1.07-1.72,.64-1.39,2.4-1.18,3.62-1.13,1.15,.7,1.82,2.08,1.63,3.38h0Z">
</path>
<path d="M25.5,46.83c1.54,.53,2.68,.71,4.32,.61-1.2,1.18-3.48,.84-4.32-.61h0Z">
</path>
<path d="M38.11,46.63c-.19-1.31,.49-2.68,1.63-3.38,1.22-.06,2.98-.27,3.62,1.13,.29,.62,.67,1.14,1.07,1.72-.44-.19-.84-.46-1.2-.78-.32-.25-.55-.71-.89-.9-.65-.31-1.65-.19-2.42-.21,0,0,.23-.07,.23-.07-.97,.52-1.6,1.46-2.03,2.5h0Z">
</path>
<path d="M43.49,46.83c-.83,1.44-3.12,1.79-4.32,.61,1.63,.11,2.78-.07,4.32-.61h0Z">
</path>
<path d="M36.33,48.86c1.75,1.41-.65,2.76-1.89,3.38-.73-.32-1.41-.79-1.97-1.31-.14-.13-.34-.28-.43-.46-.33-.58,.05-1.29,.5-1.61-.1,.34-.18,.68-.12,.95,.02,.13,.08,.23,.16,.29,.64,.38,1.42,.84,2.07,1.14,0,0-.42,0-.42,0,.65-.3,1.42-.76,2.06-1.14,.31-.31,.16-.8,.04-1.24h0Z">
</path>
<path class="cls-16" d="M30.95,56.58s.51,3.54,3.5,3.54,3.84-3.44,3.84-3.44l-2.33-1.88-2.56-.09-2.45,1.86Z">
</path>
<path class="cls-2" d="M32.01,56.1s.86,1.93,2.46,1.93,2.65-1.74,2.65-1.74c0,0-.66-.97-2.37-1.16s-2.73,.97-2.73,.97Z">
</path>
<path d="M37.5,56.62c-.92-.64-1.59-1.19-2.93-.74h-.1c-1.34-.45-2.01,.1-2.92,.74-.84,.59-1.55-.11-1.67-.25,.11,.06,.65,.33,1.03-.41,.43-.83,1.82-3.08,3.61-1.98,1.8-1.1,3.19,1.15,3.61,1.98,.38,.74,.92,.47,1.03,.41-.12,.14-.83,.84-1.66,.25Z">
</path>
<path d="M32.5,41.65c1.24,1.27,.75,3.22,.41,4.77-.37-1.62,.18-3.21-.41-4.77h0Z">
</path>
<path d="M36.56,41.65c-.59,1.56-.04,3.16-.41,4.77-.34-1.55-.83-3.5,.41-4.77h0Z">
</path>
<polyline class="cls-7" points="26.33 59.05 26.33 67.57 9.71 72.37">
</polyline>
<polyline class="cls-7" points="42.81 59.05 42.81 67.57 59.43 72.37">
</polyline>
<path class="cls-7" d="M26.33,67.57s3.48,3.78,8.56,3.78,7.93-3.78,7.93-3.78">
</path>
<rect class="cls-16" x="32.77" y="15.55" width="3.52" height="8.08">
</rect>
<path class="cls-16" d="M39.63,19.3c-4.49-2.56-10.21-.27-10.21-.27v2.86s5.72-2.29,10.21,.27v-2.86Z">
</path>
</g>
<path class="cls-11" d="M27.25,63.68c.39,1.59,.59,3.2,.72,4.83-2.59,1.03-5.26,1.85-7.98,2.44-1.5,.27-3.12,.59-4.66,.64,0,0-.03-.1-.03-.1,3.84-1.1,8.23-2.62,11.82-3.47,0,0,.03-4.35,.03-4.35h.1Z">
</path>
<path class="cls-11" d="M14.54,50.8c.94,3.29,3.93,3.58,6.86,3.43,.12,.74,.33,1.74,1.03,2.05,0,0,.7,.46,.7,.46,.73,1.57,1.43,3.32,2.95,4.31,0,0-.02,.1-.02,.1-.93-.26-1.63-.95-2.22-1.67-.59-.72-1.09-1.52-1.51-2.35l.07,.05c-1.01-.12-1.61-1.1-1.82-2.01,0,0,.1,.08,.1,.08-1.41,.03-2.93-.11-4.16-.86-1.24-.74-2.05-2.13-2.07-3.58h.1Z">
</path>
</g>
</g>
 <g
     id="g2850">
    <g
       id="g2837">
      <path
         id="path1951"
         d="M 0.056640625 0.04296875 L 0.056640625 79.943359 L 69.308594 79.943359 L 69.308594 0.04296875 L 0.056640625 0.04296875 z M 33.615234 3.5957031 C 34.206332 3.5957038 34.786991 3.6051034 35.421875 3.6152344 C 44.430653 3.7671809 53.471255 5.1336733 61.560547 7.5546875 L 62.064453 7.7070312 L 62.25 8.1640625 C 66.070247 17.605006 66.990234 28.726438 66.990234 40.0625 C 66.990234 51.398562 65.972723 63.025755 61.988281 72.578125 L 61.791016 73.044922 L 61.275391 73.185547 C 53.273669 75.403966 44.691921 76.529297 35.759766 76.529297 C 35.212453 76.529297 34.675812 76.519896 34.150391 76.509766 L 33.943359 76.509766 C 24.901742 76.357819 15.860367 74.989738 7.7929688 72.558594 L 7.2890625 72.40625 L 7.1035156 71.951172 C 3.2942144 62.520359 2.375 51.369168 2.375 40.0625 C 2.375 28.755832 3.3819737 17.127318 7.3554688 7.5546875 L 7.5527344 7.0898438 L 8.0664062 6.9472656 C 15.509867 4.890923 23.785212 3.7371557 32.005859 3.6054688 C 32.542226 3.5953387 33.078867 3.5957031 33.615234 3.5957031 z "
         style="opacity:1;vector-effect:none;fill:#ffffff;fill-opacity:1;fill-rule:nonzero;stroke:none;stroke-width:1.95200002;stroke-linecap:butt;stroke-linejoin:miter;stroke-miterlimit:4;stroke-dasharray:none;stroke-dashoffset:0;stroke-opacity:1" />
    </g>
    <path
       id="path1154-8-2"
       d="m 33.675163,6.6112954 c 0.557696,0 1.115392,0.00956 1.683415,0.019115 8.427403,0.14336 16.803167,1.4049288 24.363042,3.6700176 3.573384,8.830981 4.443772,19.417362 4.443772,29.761551 0,10.344189 -0.95301,21.39888 -4.68131,30.334991 -7.435942,2.064385 -15.429581,3.274388 -23.774362,3.274388 -0.506058,0 -1.012115,-0.0096 -1.518172,-0.01911 h -0.17557 C 25.56792,73.508883 17.192156,72.088619 9.6426089,69.813973 6.0795528,61.002107 5.2088244,50.415411 5.2088244,40.061979 c 0,-10.353432 0.95335,-21.389323 4.6609939,-30.325434 C 16.820359,7.8155201 24.462856,6.7450981 32.177647,6.6208528 c 0.49573,-0.00956 1.001787,-0.00956 1.497516,-0.00956 m 0,-0.9557337 c -0.506057,0 -1.012114,0 -1.518171,0.00956 C 24.40089,5.7893644 16.593149,6.8789009 9.570315,8.8190405 L 9.0849131,8.9528432 8.8990146,9.3924808 C 5.1500599,18.424166 4.1999116,29.394246 4.1999116,40.061979 c 0,10.667733 0.8675267,21.188618 4.461566,30.0865 l 0.1755708,0.430081 0.4750741,0.14336 c 7.6115135,2.293761 16.1421925,3.584001 24.6728715,3.727361 h 0.196227 c 0.495729,0.0096 1.001786,0.01911 1.518171,0.01911 8.427403,0 16.524318,-1.060864 24.073866,-3.153921 l 0.485403,-0.133802 0.185898,-0.439639 c 3.759282,-9.01257 4.719759,-19.983589 4.719759,-30.679055 0,-10.695466 -0.867528,-21.188618 -4.471894,-30.0960578 L 60.516853,9.5358409 60.041779,9.3924808 C 52.409609,7.108277 43.87893,5.8180364 35.379234,5.6746763 34.780227,5.6651187 34.232859,5.6555621 33.675163,5.6555615 Z"
       style="fill:#ff0000;stroke:#ffffff;stroke-width:1.84341729;stroke-miterlimit:4;stroke-dasharray:none" />
    <path
       id="path1154"
       d="m 33.614853,4.6077955 c 0.591098,0 1.182197,0.01013 1.784241,0.02026 8.932155,0.1519464 17.809578,1.4890758 25.822246,3.8898304 3.787408,9.3599041 4.709928,20.5803481 4.709928,31.5440931 0,10.963745 -1.01009,22.680548 -4.961693,32.151879 -7.881312,2.18803 -16.353723,3.302304 -25.198307,3.302304 -0.536368,0 -1.072735,-0.01013 -1.609102,-0.02026 H 33.97608 C 25.022033,75.343956 16.14461,74.006827 8.1428892,71.595943 4.3664269,62.256298 3.443547,51.035521 3.443547,40.061979 c 0,-10.973542 1.01045,-22.670418 4.9401601,-32.1417498 7.3668369,-2.036083 15.4670749,-3.170617 23.6439369,-3.3023039 0.525421,-0.01013 1.061788,-0.01013 1.587209,-0.01013 m 0,-1.0129766 c -0.536367,0 -1.072734,0 -1.609101,0.01013 C 23.785105,3.7366356 15.509726,4.891429 8.0662653,6.9477716 L 7.5517907,7.0895883 7.3547579,7.5555576 C 3.3812628,17.128188 2.3742062,28.755311 2.3742062,40.061979 c 0,11.306668 0.9194864,22.457692 4.7287876,31.888505 l 0.1860865,0.45584 0.5035283,0.151947 c 8.0673984,2.431144 17.1090154,3.798662 26.1506324,3.950608 h 0.207979 c 0.525421,0.01013 1.061788,0.02026 1.609101,0.02026 8.932155,0 17.514028,-1.124404 25.51575,-3.342823 l 0.514475,-0.141816 0.197032,-0.46597 c 3.984442,-9.55237 5.002445,-21.180489 5.002445,-32.516551 0,-11.336062 -0.919487,-22.457692 -4.739734,-31.8986353 L 62.064202,7.7075041 61.560674,7.5555576 C 53.471382,5.1345434 44.429765,3.7670249 35.420987,3.6150784 c -0.634884,-0.01013 -1.215036,-0.020259 -1.806134,-0.02026 z"
       style="fill:#000000;stroke:#000000;stroke-width:1.95382714;stroke-miterlimit:4;stroke-dasharray:none" />
    <g
       id="g1810">
      <path
         d="M 6.5134911,7.7433673 C 5.6489029,6.8479453 4.058602,6.5681013 3.6272194,7.3820013 3.284151,8.0292783 3.3625296,8.5309135 4.395235,8.9201755 3.2963719,9.5187755 1.4857674,9.4447465 1.1893447,7.4467713 0.95320848,5.8551433 2.674739,4.8863543 3.1399725,5.0916244 3.0034432,3.6818714 1.8221094,4.0692802 0.95849208,3.2813384 0.34259068,2.7194046 0.23126071,-0.02624603 0.0561761,0.04378767 -0.0138576,0.21887227 2.7317937,0.33020157 3.2937267,0.94610377 4.0816685,1.8097211 3.6942598,2.9910547 5.1040128,3.1275841 4.8987425,2.6623507 5.8675315,0.94082017 7.4591593,1.1769564 9.4571345,1.4733791 9.5311625,3.2839847 8.9325635,4.3828467 8.5433008,3.3501417 8.041666,3.2717627 7.3943894,3.6148312 6.5804899,4.0462137 6.8603354,5.6365129 7.7557553,6.5011023"
         style="fill:#000000;stroke:#000000;stroke-width:0.1112323px;stroke-linecap:butt;stroke-linejoin:miter;stroke-opacity:1"
         id="path1737-3" />
      <path
         d="m 62.850738,7.7433673 c 0.864588,-0.895422 2.454889,-1.175266 2.886271,-0.361366 0.343069,0.647277 0.26469,1.148912 -0.768015,1.538174 1.098863,0.5986 2.909467,0.524571 3.20589,-1.473404 0.236136,-1.591628 -1.485394,-2.560417 -1.950628,-2.3551469 0.13653,-1.409753 1.317863,-1.0223442 2.181481,-1.810286 0.615901,-0.5619338 0.727231,-3.30758442 0.902316,-3.23755072 0.07003,0.1750846 -2.675618,0.2864139 -3.237551,0.9023161 C 65.28256,1.8097211 65.669969,2.9910547 64.260216,3.1275841 64.465486,2.6623507 63.496697,0.94082018 61.905069,1.1769564 c -1.997975,0.2964227 -2.072003,2.1070283 -1.473404,3.2058903 0.389263,-1.032705 0.890898,-1.111084 1.538174,-0.7680155 0.8139,0.4313825 0.534054,2.0216817 -0.361366,2.8862711"
         style="fill:#000000;stroke:#000000;stroke-width:0.1112323px;stroke-linecap:butt;stroke-linejoin:miter;stroke-opacity:1"
         id="path1737-3-5" />
      <path
         d="m 62.850738,72.244244 c 0.864588,0.895422 2.454889,1.175266 2.886272,0.361366 0.343068,-0.647277 0.264689,-1.148912 -0.768016,-1.538174 1.098863,-0.5986 2.909468,-0.524571 3.20589,1.473404 0.236137,1.591628 -1.485394,2.560417 -1.950628,2.355147 0.13653,1.409753 1.317864,1.022344 2.181481,1.810286 0.615901,0.561934 0.727231,3.307584 0.902316,3.237551 0.07003,-0.175085 -2.675618,-0.286414 -3.237551,-0.902317 -0.787942,-0.863617 -0.400533,-2.04495 -1.810286,-2.18148 0.20527,0.465234 -0.763519,2.186764 -2.355146,1.950628 -1.997976,-0.296423 -2.072004,-2.107028 -1.473405,-3.20589 0.389263,1.032705 0.890898,1.111084 1.538175,0.768015 0.813899,-0.431382 0.534054,-2.021682 -0.361366,-2.886271"
         style="fill:#000000;stroke:#000000;stroke-width:0.1112323px;stroke-linecap:butt;stroke-linejoin:miter;stroke-opacity:1"
         id="path1737-3-7" />
      <path
         d="M 6.513491,72.244245 C 5.648903,73.139667 4.058602,73.419511 3.62722,72.605611 3.284151,71.958334 3.36253,71.456699 4.395235,71.067437 c -1.098863,-0.5986 -2.909467,-0.524571 -3.20589,1.473404 -0.23613599,1.591628 1.485394,2.560417 1.950628,2.355147 -0.13653,1.409753 -1.317863,1.022344 -2.18148099,1.810286 -0.615901,0.561933 -0.727231,3.307584 -0.902316,3.23755 C -0.01385399,79.76874 2.731794,79.65741 3.293727,79.041508 4.081669,78.177891 3.69426,76.996557 5.104013,76.860028 4.898743,77.325261 5.867532,79.046792 7.45916,78.810656 9.457135,78.514233 9.531163,76.703627 8.932564,75.604765 8.543301,76.63747 8.041666,76.715849 7.39439,76.372781 6.58049,75.941398 6.860336,74.351099 7.755756,73.48651"
         style="fill:#000000;stroke:#000000;stroke-width:0.1112323px;stroke-linecap:butt;stroke-linejoin:miter;stroke-opacity:1"
         id="path1737-3-5-5" />
    </g>
    <path
       id="path1154-9"
       d="m 33.712865,7.4258691 c 0.536813,0 1.07363,0.00933 1.620386,0.01865 8.111875,0.1398689 16.174044,1.3707167 23.450873,3.5806479 3.439594,8.615932 4.277395,18.944521 4.277395,29.036812 0,10.092292 -0.917329,20.877786 -4.506039,29.596289 -7.157536,2.014114 -14.851888,3.03982 -22.884234,3.03982 -0.487111,0 -0.974221,-0.0094 -1.461331,-0.01865 H 34.040918 C 25.909161,72.53957 17.846991,71.308722 10.580105,69.089467 7.1504515,60.492184 6.3123238,50.163289 6.3123238,40.061979 c 0,-10.101311 0.9176558,-20.868461 4.4864832,-29.586965 6.690308,-1.8742449 14.046665,-2.9186005 21.472608,-3.0398203 0.47717,-0.00933 0.964281,-0.00933 1.44145,-0.00933 m 0,-0.9324602 c -0.487111,0 -0.974221,0 -1.46133,0.00933 C 24.785826,6.6239532 17.270413,7.686958 10.510517,9.5798526 L 10.043289,9.710397 9.8643508,10.139328 c -3.6085914,8.811751 -4.5231655,19.514693 -4.5231655,29.922651 0,10.407958 0.8350459,20.672644 4.294522,29.353849 l 0.1689973,0.419608 0.4572874,0.13987 c 7.326533,2.237904 15.537818,3.496724 23.749103,3.636593 h 0.188879 c 0.47717,0.0094 0.96428,0.01865 1.461331,0.01865 8.111875,0 15.905636,-1.035031 23.172525,-3.077119 l 0.467228,-0.130544 0.178938,-0.428932 c 3.618533,-8.793101 4.543048,-19.496959 4.543048,-29.931975 0,-10.435016 -0.835047,-20.672644 -4.304463,-29.363174 l -0.168997,-0.419609 -0.457288,-0.13987 C 51.74588,7.9107484 43.534594,6.6519271 35.353133,6.512058 34.776554,6.502738 34.249678,6.493409 33.712865,6.493409 Z"
       style="fill:#000000;stroke:none;stroke-width:1.78642213;stroke-miterlimit:4;stroke-dasharray:none" />
    <path
       id="path1154-9-3"
       d="m 33.712865,7.4258686 c 0.536813,0 1.07363,0.00933 1.620386,0.01865 8.111875,0.1398689 16.174044,1.3707167 23.450873,3.5806484 3.439594,8.615932 4.277395,18.944521 4.277395,29.036812 0,10.092292 -0.917329,20.877786 -4.506039,29.596288 -7.157536,2.014114 -14.851888,3.03982 -22.884234,3.03982 -0.487111,0 -0.974221,-0.0094 -1.461331,-0.01865 H 34.040918 C 25.909161,72.539569 17.846991,71.308722 10.580105,69.089466 7.1504515,60.492184 6.3123238,50.163288 6.3123238,40.061979 c 0,-10.101312 0.9176558,-20.868461 4.4864832,-29.586965 6.690308,-1.8742454 14.046665,-2.918601 21.472608,-3.0398208 0.47717,-0.00933 0.964281,-0.00933 1.44145,-0.00933 m 0,-0.9324602 c -0.487111,0 -0.974221,0 -1.46133,0.00933 C 24.785826,6.6239527 17.270413,7.6869575 10.510517,9.5798521 L 10.043289,9.7103965 9.8643508,10.139328 C 6.2557594,18.951079 5.3411853,29.65402 5.3411853,40.061979 c 0,10.407958 0.8350459,20.672643 4.294522,29.353849 l 0.1689973,0.419608 0.4572874,0.13987 c 7.326533,2.237904 15.537818,3.496724 23.749103,3.636593 h 0.188879 c 0.47717,0.0094 0.96428,0.01865 1.461331,0.01865 8.111875,0 15.905636,-1.035032 23.172525,-3.077119 l 0.467228,-0.130544 0.178938,-0.428932 c 3.618533,-8.793101 4.543048,-19.49696 4.543048,-29.931975 0,-10.435016 -0.835047,-20.672644 -4.304463,-29.363175 l -0.168997,-0.419609 -0.457288,-0.13987 C 51.74588,7.9107479 43.534594,6.6519266 35.353133,6.5120575 34.776554,6.5027375 34.249678,6.4934085 33.712865,6.4934085 Z"
       style="fill:#000000;stroke:none;stroke-width:1.78642213;stroke-miterlimit:4;stroke-dasharray:none" />
  </g>
</svg>
