<svg id="Capa_2" xmlns="http://www.w3.org/2000/svg" xmlns:xlink="http://www.w3.org/1999/xlink" viewBox="0 0 69.02 80">
<defs >
<style >
.cls-1{fill:#c89aed;}.cls-2{fill:#fff;}.cls-3{fill:#f8ffbf;}.cls-4{fill:#7b7be8;}.cls-5{fill:#a88347;}.cls-6{fill:#782ab5;}.cls-7{stroke:#000;stroke-miterlimit:10;}.cls-7,.cls-8,.cls-9,.cls-10{fill:none;}.cls-8{stroke:#deb778;stroke-dasharray:0 0 0 4.06;stroke-linecap:round;stroke-linejoin:round;}.cls-11{fill:#deb778;}.cls-12{fill:url(#USGS_19_Inundación_de_tierra_2);}.cls-10{stroke:#1d1d1b;stroke-dasharray:0 0 2 2;stroke-width:.3px;}.cls-13{fill:#fcf0c5;}.cls-14{fill:#b83521;}
</style>
<pattern id="USGS_19_Inundación_de_tierra_2" x="0" y="0" width="72" height="72" patternTransform="translate(-236.48 -16423) rotate(-90)" patternUnits="userSpaceOnUse" viewBox="0 0 72 72">
<g >
<rect class="cls-9" width="72" height="72">
</rect>
<g >
<line class="cls-10" x1="71" y1="71" x2="144.44" y2="71">
</line>
<line class="cls-10" x1="71" y1="67" x2="144.44" y2="67">
</line>
<line class="cls-10" x1="71" y1="63" x2="144.44" y2="63">
</line>
<line class="cls-10" x1="71" y1="59" x2="144.44" y2="59">
</line>
<line class="cls-10" x1="71" y1="55" x2="144.44" y2="55">
</line>
<line class="cls-10" x1="71" y1="51" x2="144.44" y2="51">
</line>
<line class="cls-10" x1="71" y1="47" x2="144.44" y2="47">
</line>
<line class="cls-10" x1="71" y1="43" x2="144.44" y2="43">
</line>
<line class="cls-10" x1="71" y1="39" x2="144.44" y2="39">
</line>
<line class="cls-10" x1="71" y1="35" x2="144.44" y2="35">
</line>
<line class="cls-10" x1="71" y1="31" x2="144.44" y2="31">
</line>
<line class="cls-10" x1="71" y1="27" x2="144.44" y2="27">
</line>
<line class="cls-10" x1="71" y1="23" x2="144.44" y2="23">
</line>
<line class="cls-10" x1="71" y1="19" x2="144.44" y2="19">
</line>
<line class="cls-10" x1="71" y1="15" x2="144.44" y2="15">
</line>
<line class="cls-10" x1="71" y1="11" x2="144.44" y2="11">
</line>
<line class="cls-10" x1="71" y1="7" x2="144.44" y2="7">
</line>
<line class="cls-10" x1="71" y1="3" x2="144.44" y2="3">
</line>
</g>
<g >
<line class="cls-10" x1="-1" y1="71" x2="72.44" y2="71">
</line>
<line class="cls-10" x1="-1" y1="67" x2="72.44" y2="67">
</line>
<line class="cls-10" x1="-1" y1="63" x2="72.44" y2="63">
</line>
<line class="cls-10" x1="-1" y1="59" x2="72.44" y2="59">
</line>
<line class="cls-10" x1="-1" y1="55" x2="72.44" y2="55">
</line>
<line class="cls-10" x1="-1" y1="51" x2="72.44" y2="51">
</line>
<line class="cls-10" x1="-1" y1="47" x2="72.44" y2="47">
</line>
<line class="cls-10" x1="-1" y1="43" x2="72.44" y2="43">
</line>
<line class="cls-10" x1="-1" y1="39" x2="72.44" y2="39">
</line>
<line class="cls-10" x1="-1" y1="35" x2="72.44" y2="35">
</line>
<line class="cls-10" x1="-1" y1="31" x2="72.44" y2="31">
</line>
<line class="cls-10" x1="-1" y1="27" x2="72.44" y2="27">
</line>
<line class="cls-10" x1="-1" y1="23" x2="72.44" y2="23">
</line>
<line class="cls-10" x1="-1" y1="19" x2="72.44" y2="19">
</line>
<line class="cls-10" x1="-1" y1="15" x2="72.44" y2="15">
</line>
<line class="cls-10" x1="-1" y1="11" x2="72.44" y2="11">
</line>
<line class="cls-10" x1="-1" y1="7" x2="72.44" y2="7">
</line>
<line class="cls-10" x1="-1" y1="3" x2="72.44" y2="3">
</line>
<line class="cls-10" x1="1.04" y1="69" x2="74.48" y2="69">
</line>
<line class="cls-10" x1="1.04" y1="65" x2="74.48" y2="65">
</line>
<line class="cls-10" x1="1.04" y1="61" x2="74.48" y2="61">
</line>
<line class="cls-10" x1="1.04" y1="57" x2="74.48" y2="57">
</line>
<line class="cls-10" x1="1.04" y1="53" x2="74.48" y2="53">
</line>
<line class="cls-10" x1="1.04" y1="49" x2="74.48" y2="49">
</line>
<line class="cls-10" x1="1.04" y1="45" x2="74.48" y2="45">
</line>
<line class="cls-10" x1="1.04" y1="41" x2="74.48" y2="41">
</line>
<line class="cls-10" x1="1.04" y1="37" x2="74.48" y2="37">
</line>
<line class="cls-10" x1="1.04" y1="33" x2="74.48" y2="33">
</line>
<line class="cls-10" x1="1.04" y1="29" x2="74.48" y2="29">
</line>
<line class="cls-10" x1="1.04" y1="25" x2="74.48" y2="25">
</line>
<line class="cls-10" x1="1.04" y1="21" x2="74.48" y2="21">
</line>
<line class="cls-10" x1="1.04" y1="17" x2="74.48" y2="17">
</line>
<line class="cls-10" x1="1.04" y1="13" x2="74.48" y2="13">
</line>
<line class="cls-10" x1="1.04" y1="9" x2="74.48" y2="9">
</line>
<line class="cls-10" x1="1.04" y1="5" x2="74.48" y2="5">
</line>
<line class="cls-10" x1="1.04" y1="1" x2="74.48" y2="1">
</line>
</g>
<g >
<line class="cls-10" x1="-73" y1="71" x2=".44" y2="71">
</line>
<line class="cls-10" x1="-73" y1="67" x2=".44" y2="67">
</line>
<line class="cls-10" x1="-73" y1="63" x2=".44" y2="63">
</line>
<line class="cls-10" x1="-73" y1="59" x2=".44" y2="59">
</line>
<line class="cls-10" x1="-73" y1="55" x2=".44" y2="55">
</line>
<line class="cls-10" x1="-73" y1="51" x2=".44" y2="51">
</line>
<line class="cls-10" x1="-73" y1="47" x2=".44" y2="47">
</line>
<line class="cls-10" x1="-73" y1="43" x2=".44" y2="43">
</line>
<line class="cls-10" x1="-73" y1="39" x2=".44" y2="39">
</line>
<line class="cls-10" x1="-73" y1="35" x2=".44" y2="35">
</line>
<line class="cls-10" x1="-73" y1="31" x2=".44" y2="31">
</line>
<line class="cls-10" x1="-73" y1="27" x2=".44" y2="27">
</line>
<line class="cls-10" x1="-73" y1="23" x2=".44" y2="23">
</line>
<line class="cls-10" x1="-73" y1="19" x2=".44" y2="19">
</line>
<line class="cls-10" x1="-73" y1="15" x2=".44" y2="15">
</line>
<line class="cls-10" x1="-73" y1="11" x2=".44" y2="11">
</line>
<line class="cls-10" x1="-73" y1="7" x2=".44" y2="7">
</line>
<line class="cls-10" x1="-73" y1="3" x2=".44" y2="3">
</line>
<line class="cls-10" x1="-70.96" y1="69" x2="2.48" y2="69">
</line>
<line class="cls-10" x1="-70.96" y1="65" x2="2.48" y2="65">
</line>
<line class="cls-10" x1="-70.96" y1="61" x2="2.48" y2="61">
</line>
<line class="cls-10" x1="-70.96" y1="57" x2="2.48" y2="57">
</line>
<line class="cls-10" x1="-70.96" y1="53" x2="2.48" y2="53">
</line>
<line class="cls-10" x1="-70.96" y1="49" x2="2.48" y2="49">
</line>
<line class="cls-10" x1="-70.96" y1="45" x2="2.48" y2="45">
</line>
<line class="cls-10" x1="-70.96" y1="41" x2="2.48" y2="41">
</line>
<line class="cls-10" x1="-70.96" y1="37" x2="2.48" y2="37">
</line>
<line class="cls-10" x1="-70.96" y1="33" x2="2.48" y2="33">
</line>
<line class="cls-10" x1="-70.96" y1="29" x2="2.48" y2="29">
</line>
<line class="cls-10" x1="-70.96" y1="25" x2="2.48" y2="25">
</line>
<line class="cls-10" x1="-70.96" y1="21" x2="2.48" y2="21">
</line>
<line class="cls-10" x1="-70.96" y1="17" x2="2.48" y2="17">
</line>
<line class="cls-10" x1="-70.96" y1="13" x2="2.48" y2="13">
</line>
<line class="cls-10" x1="-70.96" y1="9" x2="2.48" y2="9">
</line>
<line class="cls-10" x1="-70.96" y1="5" x2="2.48" y2="5">
</line>
<line class="cls-10" x1="-70.96" y1="1" x2="2.48" y2="1">
</line>
</g>
</g>
</pattern>
</defs>

<g id="Capa_9">
<g >
<g >
<path class="cls-1" d="M62.36,65.66l-2.39,8.13-27.38,2.75-24.04-3.46,.24-8.26,16.5-5.98,.12-1.79s-2.63-2.63-3.11-6.1c-4.06-1.19-5.5-7.17-5.38-8.49,.12-1.31,.84-3.11,2.15-2.99l-6.1-3.71s0-.05,0-.14c.08-1.51,1.04-14.91,8.48-20.66,6.7-4.43,16.63-4.31,22.85-1.92,6.21,2.39,11.95,11.48,11.24,22.49-3.98,3.13-5.03,3.8-5.23,3.92l-.04,.02s1.92,1.32,1.44,4.19c-.41,2.47-2.41,5.81-2.96,6.7,0,0-.01,0-.01,.01-.09,.14-.14,.22-.14,.22,0,0,4.54,1.08,5.5,1.56,.96,.48,2.87,3.47,.24,5.86,2.83,2.83,2.23,5.23,2.16,5.48v.02s5.85,2.15,5.85,2.15Z">
</path>
<path class="cls-2" d="M34.5,64.14V29.64s2.54,3.02,7.15,4.05,6.44,2.54,7,4.85c-1.19,7.63-2.28,13.99-3.5,16.3s-5.8,7.15-6.92,8.27-3.74,1.03-3.74,1.03Z">
</path>
<path class="cls-2" d="M34.91,75.09l2.6-4.8s3.07-2.52,4.09-4.48,1.89-5.19,1.89-5.19l13.01,2.89,6.97,1.99-3.3,9.28-25.25,.31Z">
</path>
<path class="cls-4" d="M42.62,63.28s1.61,1.68,2.11,1.89c-1.26,4.07,2.03,5.19,2.03,5.19,0,0-1.61,3.72-.7,4.42,2.74-.7,4.91-1.54,4.91-1.54l-.28-10.24-6.95-2.88-1.12,3.16Z">
</path>
<path class="cls-2" d="M55.55,35.53c-3.98,3.13-5.03,3.8-5.23,3.92l-.04,.02-1.8,.37s.42-7.53-2.97-12.72-8.26-6.78-13.14-5.83-11.98,4.24-11.87,18.02c-.74,0-1.43,.16-1.43,.16l-6.09-3.85c.08-1.51,1.04-14.91,8.48-20.66,6.7-4.43,16.63-4.31,22.85-1.92,6.21,2.39,11.95,11.48,11.24,22.49Z">
</path>
<path class="cls-5" d="M20.5,37.44s0-6.23,2.51-10.11,6.47-6.47,11.32-6.39,10.76,3.4,12.78,8.25c1.7,5.18,1.29,9.3,1.29,9.3,0,0-.32-3.15-4.04-4.04s-8.49-2.51-9.79-5.34c-2.51,4.21-8.98,5.18-10.27,5.5s-3.8,2.83-3.8,2.83Z">
</path>
<path class="cls-5" d="M57.88,72.05l-8.86,1.96s-.94-1.57-.31-2.98c.63-1.41,1.26-2.35,1.26-2.35,0,0-2.75,.39-3.53-1.26-.79-1.64,.7-4.7,.7-4.7,0,0-2.51-.71-3.37-1.88-.86-1.18,.16-3.69,.16-3.69,0,0,2.04-4,2.43-5.56,1.55-.54,2.23-1.08,2.39-1.22-.09,.14-.14,.22-.14,.22,0,0,4.54,1.08,5.5,1.56,.96,.48,2.87,3.47,.24,5.86,2.83,2.83,2.23,5.23,2.16,5.48v.02s-.9,3.68-.9,3.68l2.27,4.86Z">
</path>
<path class="cls-2" d="M24.99,59.19s.99,8.12,6.63,11.27c1.41,3.31,2.15,4.56,2.15,4.56l-12.84,.83-6.96-.83-5.88-3.48,1.24-6.71,15.66-5.64Z">
</path>
<path class="cls-4" d="M32.3,44.6l.53-4.33s-5.7-.44-7.16-.24-2.99,1.58-2.99,1.58l1.54,2.71,8.09,.28Z">
</path>
<path class="cls-4" d="M36.82,44.6l-.53-4.33s5.7-.44,7.16-.24,2.99,1.58,2.99,1.58l-1.54,2.71-8.09,.28Z">
</path>
<path class="cls-3" d="M31.58,44.55s-3.25-2.37-7.54-.22c3.19,1.38,6.17,.99,7.76,.33">
</path>
<path class="cls-3" d="M37.31,44.55s3.25-2.37,7.54-.22c-3.19,1.38-6.17,.99-7.76,.33">
</path>
<path d="M43.26,58.39l-14.69,19.09-19.65-3.84,.09-7.95,16.28-6.85v-1.47s3.46,3.27,4.96,5.05,3.09,2.06,4.77,1.96,3.46-2.06,4.21-2.62,4.02-3.37,4.02-3.37Z">
</path>
<path class="cls-4" d="M27.23,23.2l-7.17-6.55s-3.58,3.38-5.32,8.6c-1.74,5.63-1.76,10.37-1.76,10.37l6.09,3.85,1.43-.16s-1.15-11.91,6.73-16.11Z">
</path>
<path d="M20.5,39.31s-1.68-.5-2.88,1.62,.26,5.82,.66,6.68,2.47,3.5,4.01,3.34c-.97-6.85-1.8-11.64-1.8-11.64Z">
</path>
<path class="cls-2" d="M41.84,61.29l-5.84,7.71s4.94-1.39,5.84-7.71Z">
</path>
<path class="cls-1" d="M34.55,31.34c2.04,2.18,6.23,3.56,9.56,4.35,2.5,.61,3,2.5,3.1,3.01-.07,2.32-.42,4.84-1.02,7.52-.19,.85-.35,1.69-.46,2.31-.62,3.25-1.2,6.32-4.37,9.33-.84,.78-1.5,1.5-2.16,2.22-1.59,1.73-2.56,2.79-4.7,3.14-2.18-.36-3.15-1.41-4.73-3.14-.66-.73-1.32-1.45-2.16-2.22-3.18-3-3.73-5.93-4.38-9.33-.17-.93-.32-1.64-.47-2.32-.59-2.63-.93-5.15-1.01-7.51h0s.37-2.32,3.24-3.02c3.34-.79,7.52-2.17,9.56-4.35m0-1.22c-1.56,2.51-6.54,4.08-9.73,4.84-3.35,.81-3.8,3.53-3.81,3.65h-.01c.08,2.76,.51,5.46,1.03,7.77,.17,.77,.32,1.54,.46,2.29,.64,3.38,1.24,6.57,4.6,9.74,.84,.78,1.52,1.52,2.12,2.18,1.66,1.81,2.77,3.01,5.28,3.39,2.47-.37,3.58-1.57,5.25-3.39,.6-.66,1.28-1.4,2.12-2.18,3.35-3.17,3.96-6.36,4.6-9.74,.14-.75,.29-1.52,.46-2.29,.52-2.3,.96-4.98,1.04-7.73-.07-.47-.59-2.94-3.67-3.69-3.19-.76-8.17-2.33-9.74-4.84h0Z">
</path>
<path class="cls-2" d="M25.6,46.61c1.02,.34,2.51,.62,4.16,.22,.76-.19,1.36,.64,.95,1.31-1.32,2.17-2.56,2.99-3.26,3.3-.34,.15-.73,.08-.99-.18-.54-.54-1.48-1.7-1.99-3.58-.18-.67,.46-1.28,1.12-1.06Z">
</path>
<path class="cls-11" d="M41.62,23.17s.22,7.84-6.04,7.48c3.67,2.73,7.48,3.59,9.42,3.95-1.73-2.37,1.73-4.82,.22-8.34-2.52-2.66-3.59-3.09-3.59-3.09Z">
</path>
<path class="cls-2" d="M38.31,32.53s5.88-3.48,4.68-8.41c1.44,1.26,1.74,1.62,1.74,1.62,0,0-.54,5.46-3.3,7.68-2.1-.66-3.12-.9-3.12-.9Z">
</path>
<path d="M26.2,24.17s-2,7.36,1.92,9.37c-3.83,1.07-6.37,1.65-7.63,3.9-.3-5.43,1.63-11.67,5.71-13.27Z">
</path>
<path class="cls-11" d="M49.92,51.13s2.2,4.11,.14,6.38c3.55,3.33,1.63,7.94,1.63,7.94,2.69,2.27,.64,7.44,.64,7.44l4.96-1.06s-1.42-3.62-2.34-4.89c2.84-4.89,.35-7.37-.85-8.37,2.91-2.06,1.91-4.68,.99-5.88s-4.02-.79-5.18-1.56Z">
</path>
<polygon points="13.76 28.9 21.32 33.38 20.02 39.99 12.98 35.62 13.76 28.9">
</polygon>
<path class="cls-14" d="M38.51,55.33s-.87,.41-1.3,1.33-1.06,1.3-2.52,1.3h-.38c-1.47,0-2.09-.38-2.52-1.3s-1.3-1.33-1.3-1.33h8.03Z">
</path>
<path class="cls-7" d="M49.83,39.62l5.77-3.83s.98-24.45-20.36-24.45h-1.74c-21.34,0-20.36,24.45-20.36,24.45l5.77,3.83">
</path>
<path class="cls-7" d="M20.61,39.99s-1.45-1.45-2.89,.41,.31,9.81,4.65,10.64">
</path>
<path class="cls-7" d="M48.33,40.17s1.45-1.45,2.89,.41-.31,9.81-4.65,10.64">
</path>
<path class="cls-7" d="M34.46,64.48c-3.7-.54-4.62-2.8-7.71-5.71-4.23-3.99-4.23-7.97-5.21-12.28-.97-4.31-2.35-13.02,1.55-19.28s11.31-6.18,11.31-6.18h.16s7.4-.08,11.3,6.18c3.91,6.26,2.53,14.97,1.55,19.28s-.98,8.29-5.21,12.28c-3.09,2.91-4.01,5.17-7.71,5.71h-.03Z">
</path>
<path class="cls-7" d="M20.51,38.53s.45-3.15,4.2-4.05,9.85-2.91,9.85-5.96v-7.48">
</path>
<path class="cls-7" d="M48.46,38.68s-.32-3.3-4.06-4.2-9.85-2.91-9.85-5.96v-7.48">
</path>
<path d="M22.64,41.69s1.47-1.94,3.83-2.3,6.42,.82,6.42,.82c0,0-.88,1.41-1.77,1.47s-4.48-2.65-8.49,0Z">
</path>
<path d="M46.45,41.69s-1.47-1.94-3.83-2.3-6.42,.82-6.42,.82c0,0,.88,1.41,1.77,1.47s4.48-2.65,8.49,0Z">
</path>
<path d="M24,44.44c2.39-2.28,5.89-1.91,8.36,.09,0,0-.71,.38-.71,.38-1.87,.99-4.17,.93-6.04,.07,1.93,.16,3.88,.03,5.57-.92,0,0-.04,.83-.04,.83-2.13-1.45-4.77-1.53-7.14-.45h0Z">
</path>
<path d="M45.17,44.44c-2.37-1.08-5-1.01-7.14,.45,0,0-.04-.83-.04-.83,1.69,.94,3.64,1.07,5.57,.92-1.87,.86-4.17,.92-6.04-.07,0,0-.71-.38-.71-.38,2.47-2,5.97-2.37,8.36-.09h0Z">
</path>
<path d="M36.42,47.16c.57,.84,2.59,3.28,1.01,3.89-1.08,.3-2.17,.51-2.97,1.32,0,0-.32-.26-.32-.26-.74-.64-1.73-.78-2.66-1.06-1.6-.59,.44-3.07,1-3.89-.23,.82-.86,2.32-.86,3.08,.9,.11,2.33,.37,3.14,1.09,0,0-.63,0-.63,0,.81-.71,2.24-.98,3.13-1.09,0-.78-.63-2.26-.86-3.09h0Z">
</path>
<path d="M34.45,56.38c.44-.56,1-1.02,2.5-.86,1.86,.2,2.38-.34,2.38-.34,0,0-.4-.06-1.3-.65-.87-.56-1.63-1.68-3.58-.36-1.96-1.32-2.71-.2-3.58,.36-.91,.59-1.31,.65-1.31,.65,0,0,.52,.54,2.39,.34,1.49-.16,2.06,.3,2.5,.86Z">
</path>
<polyline class="cls-7" points="25.1 57.08 25.29 58.96 8.34 65.37">
</polyline>
<path class="cls-7" d="M25.29,58.96s.51,8.67,6.33,11.58c1.42,3.04,2.39,5.56,2.39,5.56">
</path>
<path class="cls-7" d="M21.12,60.73s-2.82,8.14,4.09,13.78c4.8-2.49,6.41-3.97,6.41-3.97">
</path>
<path class="cls-7" d="M34.57,76.11s.97-2.52,2.39-5.56c5.82-2.91,6.59-11.46,6.59-11.46v-.2s.1-1.8,.1-1.8">
</path>
<path class="cls-7" d="M47.68,68.4c-.62,1.97-1.89,4.14-4.31,6.12-4.8-2.49-6.41-3.97-6.41-3.97">
</path>
<path class="cls-7" d="M48.52,50.37s2.54,.95,4.77,1.6c2.41,.7,3.8,4.62,.53,6.45">
</path>
<path class="cls-7" d="M43.48,59.62s.48,3.29,4.05,2.88">
</path>
<path class="cls-7" d="M54.77,67.18c1.86-1.58,2.51-5.89,.51-7.79s-6.4-1.76-6.4-1.76c0,0-.09,2.78-1.99,5.89-1.72,3.43,.28,5.43,2.74,5.29">
</path>
<path class="cls-7" d="M48.88,73.77s-1.02-1.95,.23-3.62,2.27-4.78,2.27-4.78c0,0,5.71,1.02,6.22,7.28">
</path>
<line class="cls-7" x1="56.58" y1="63.43" x2="60.82" y2="65.02">
</line>
</g>
<path class="cls-2" d="M10.2,65.7c4.78-2.28,9.69-4.23,14.65-6.06,.32,2.26,.99,4.54,2.01,6.6,.96,1.9,2.31,3.62,4.16,4.74-4.16-1.76-6.24-6.39-7.04-10.61,0,0,.66,.39,.66,.39-4.75,1.83-9.54,3.54-14.43,4.94h0Z">
</path>
</g>
</g>
 <g
     id="g2850">
    <g
       id="g2837">
      <path
         id="path1951"
         d="M 0.056640625 0.04296875 L 0.056640625 79.943359 L 69.308594 79.943359 L 69.308594 0.04296875 L 0.056640625 0.04296875 z M 33.615234 3.5957031 C 34.206332 3.5957038 34.786991 3.6051034 35.421875 3.6152344 C 44.430653 3.7671809 53.471255 5.1336733 61.560547 7.5546875 L 62.064453 7.7070312 L 62.25 8.1640625 C 66.070247 17.605006 66.990234 28.726438 66.990234 40.0625 C 66.990234 51.398562 65.972723 63.025755 61.988281 72.578125 L 61.791016 73.044922 L 61.275391 73.185547 C 53.273669 75.403966 44.691921 76.529297 35.759766 76.529297 C 35.212453 76.529297 34.675812 76.519896 34.150391 76.509766 L 33.943359 76.509766 C 24.901742 76.357819 15.860367 74.989738 7.7929688 72.558594 L 7.2890625 72.40625 L 7.1035156 71.951172 C 3.2942144 62.520359 2.375 51.369168 2.375 40.0625 C 2.375 28.755832 3.3819737 17.127318 7.3554688 7.5546875 L 7.5527344 7.0898438 L 8.0664062 6.9472656 C 15.509867 4.890923 23.785212 3.7371557 32.005859 3.6054688 C 32.542226 3.5953387 33.078867 3.5957031 33.615234 3.5957031 z "
         style="opacity:1;vector-effect:none;fill:#ffffff;fill-opacity:1;fill-rule:nonzero;stroke:none;stroke-width:1.95200002;stroke-linecap:butt;stroke-linejoin:miter;stroke-miterlimit:4;stroke-dasharray:none;stroke-dashoffset:0;stroke-opacity:1" />
    </g>
    <path
       id="path1154-8-2"
       d="m 33.675163,6.6112954 c 0.557696,0 1.115392,0.00956 1.683415,0.019115 8.427403,0.14336 16.803167,1.4049288 24.363042,3.6700176 3.573384,8.830981 4.443772,19.417362 4.443772,29.761551 0,10.344189 -0.95301,21.39888 -4.68131,30.334991 -7.435942,2.064385 -15.429581,3.274388 -23.774362,3.274388 -0.506058,0 -1.012115,-0.0096 -1.518172,-0.01911 h -0.17557 C 25.56792,73.508883 17.192156,72.088619 9.6426089,69.813973 6.0795528,61.002107 5.2088244,50.415411 5.2088244,40.061979 c 0,-10.353432 0.95335,-21.389323 4.6609939,-30.325434 C 16.820359,7.8155201 24.462856,6.7450981 32.177647,6.6208528 c 0.49573,-0.00956 1.001787,-0.00956 1.497516,-0.00956 m 0,-0.9557337 c -0.506057,0 -1.012114,0 -1.518171,0.00956 C 24.40089,5.7893644 16.593149,6.8789009 9.570315,8.8190405 L 9.0849131,8.9528432 8.8990146,9.3924808 C 5.1500599,18.424166 4.1999116,29.394246 4.1999116,40.061979 c 0,10.667733 0.8675267,21.188618 4.461566,30.0865 l 0.1755708,0.430081 0.4750741,0.14336 c 7.6115135,2.293761 16.1421925,3.584001 24.6728715,3.727361 h 0.196227 c 0.495729,0.0096 1.001786,0.01911 1.518171,0.01911 8.427403,0 16.524318,-1.060864 24.073866,-3.153921 l 0.485403,-0.133802 0.185898,-0.439639 c 3.759282,-9.01257 4.719759,-19.983589 4.719759,-30.679055 0,-10.695466 -0.867528,-21.188618 -4.471894,-30.0960578 L 60.516853,9.5358409 60.041779,9.3924808 C 52.409609,7.108277 43.87893,5.8180364 35.379234,5.6746763 34.780227,5.6651187 34.232859,5.6555621 33.675163,5.6555615 Z"
       style="fill:#ff0000;stroke:#ffffff;stroke-width:1.84341729;stroke-miterlimit:4;stroke-dasharray:none" />
    <path
       id="path1154"
       d="m 33.614853,4.6077955 c 0.591098,0 1.182197,0.01013 1.784241,0.02026 8.932155,0.1519464 17.809578,1.4890758 25.822246,3.8898304 3.787408,9.3599041 4.709928,20.5803481 4.709928,31.5440931 0,10.963745 -1.01009,22.680548 -4.961693,32.151879 -7.881312,2.18803 -16.353723,3.302304 -25.198307,3.302304 -0.536368,0 -1.072735,-0.01013 -1.609102,-0.02026 H 33.97608 C 25.022033,75.343956 16.14461,74.006827 8.1428892,71.595943 4.3664269,62.256298 3.443547,51.035521 3.443547,40.061979 c 0,-10.973542 1.01045,-22.670418 4.9401601,-32.1417498 7.3668369,-2.036083 15.4670749,-3.170617 23.6439369,-3.3023039 0.525421,-0.01013 1.061788,-0.01013 1.587209,-0.01013 m 0,-1.0129766 c -0.536367,0 -1.072734,0 -1.609101,0.01013 C 23.785105,3.7366356 15.509726,4.891429 8.0662653,6.9477716 L 7.5517907,7.0895883 7.3547579,7.5555576 C 3.3812628,17.128188 2.3742062,28.755311 2.3742062,40.061979 c 0,11.306668 0.9194864,22.457692 4.7287876,31.888505 l 0.1860865,0.45584 0.5035283,0.151947 c 8.0673984,2.431144 17.1090154,3.798662 26.1506324,3.950608 h 0.207979 c 0.525421,0.01013 1.061788,0.02026 1.609101,0.02026 8.932155,0 17.514028,-1.124404 25.51575,-3.342823 l 0.514475,-0.141816 0.197032,-0.46597 c 3.984442,-9.55237 5.002445,-21.180489 5.002445,-32.516551 0,-11.336062 -0.919487,-22.457692 -4.739734,-31.8986353 L 62.064202,7.7075041 61.560674,7.5555576 C 53.471382,5.1345434 44.429765,3.7670249 35.420987,3.6150784 c -0.634884,-0.01013 -1.215036,-0.020259 -1.806134,-0.02026 z"
       style="fill:#000000;stroke:#000000;stroke-width:1.95382714;stroke-miterlimit:4;stroke-dasharray:none" />
    <g
       id="g1810">
      <path
         d="M 6.5134911,7.7433673 C 5.6489029,6.8479453 4.058602,6.5681013 3.6272194,7.3820013 3.284151,8.0292783 3.3625296,8.5309135 4.395235,8.9201755 3.2963719,9.5187755 1.4857674,9.4447465 1.1893447,7.4467713 0.95320848,5.8551433 2.674739,4.8863543 3.1399725,5.0916244 3.0034432,3.6818714 1.8221094,4.0692802 0.95849208,3.2813384 0.34259068,2.7194046 0.23126071,-0.02624603 0.0561761,0.04378767 -0.0138576,0.21887227 2.7317937,0.33020157 3.2937267,0.94610377 4.0816685,1.8097211 3.6942598,2.9910547 5.1040128,3.1275841 4.8987425,2.6623507 5.8675315,0.94082017 7.4591593,1.1769564 9.4571345,1.4733791 9.5311625,3.2839847 8.9325635,4.3828467 8.5433008,3.3501417 8.041666,3.2717627 7.3943894,3.6148312 6.5804899,4.0462137 6.8603354,5.6365129 7.7557553,6.5011023"
         style="fill:#000000;stroke:#000000;stroke-width:0.1112323px;stroke-linecap:butt;stroke-linejoin:miter;stroke-opacity:1"
         id="path1737-3" />
      <path
         d="m 62.850738,7.7433673 c 0.864588,-0.895422 2.454889,-1.175266 2.886271,-0.361366 0.343069,0.647277 0.26469,1.148912 -0.768015,1.538174 1.098863,0.5986 2.909467,0.524571 3.20589,-1.473404 0.236136,-1.591628 -1.485394,-2.560417 -1.950628,-2.3551469 0.13653,-1.409753 1.317863,-1.0223442 2.181481,-1.810286 0.615901,-0.5619338 0.727231,-3.30758442 0.902316,-3.23755072 0.07003,0.1750846 -2.675618,0.2864139 -3.237551,0.9023161 C 65.28256,1.8097211 65.669969,2.9910547 64.260216,3.1275841 64.465486,2.6623507 63.496697,0.94082018 61.905069,1.1769564 c -1.997975,0.2964227 -2.072003,2.1070283 -1.473404,3.2058903 0.389263,-1.032705 0.890898,-1.111084 1.538174,-0.7680155 0.8139,0.4313825 0.534054,2.0216817 -0.361366,2.8862711"
         style="fill:#000000;stroke:#000000;stroke-width:0.1112323px;stroke-linecap:butt;stroke-linejoin:miter;stroke-opacity:1"
         id="path1737-3-5" />
      <path
         d="m 62.850738,72.244244 c 0.864588,0.895422 2.454889,1.175266 2.886272,0.361366 0.343068,-0.647277 0.264689,-1.148912 -0.768016,-1.538174 1.098863,-0.5986 2.909468,-0.524571 3.20589,1.473404 0.236137,1.591628 -1.485394,2.560417 -1.950628,2.355147 0.13653,1.409753 1.317864,1.022344 2.181481,1.810286 0.615901,0.561934 0.727231,3.307584 0.902316,3.237551 0.07003,-0.175085 -2.675618,-0.286414 -3.237551,-0.902317 -0.787942,-0.863617 -0.400533,-2.04495 -1.810286,-2.18148 0.20527,0.465234 -0.763519,2.186764 -2.355146,1.950628 -1.997976,-0.296423 -2.072004,-2.107028 -1.473405,-3.20589 0.389263,1.032705 0.890898,1.111084 1.538175,0.768015 0.813899,-0.431382 0.534054,-2.021682 -0.361366,-2.886271"
         style="fill:#000000;stroke:#000000;stroke-width:0.1112323px;stroke-linecap:butt;stroke-linejoin:miter;stroke-opacity:1"
         id="path1737-3-7" />
      <path
         d="M 6.513491,72.244245 C 5.648903,73.139667 4.058602,73.419511 3.62722,72.605611 3.284151,71.958334 3.36253,71.456699 4.395235,71.067437 c -1.098863,-0.5986 -2.909467,-0.524571 -3.20589,1.473404 -0.23613599,1.591628 1.485394,2.560417 1.950628,2.355147 -0.13653,1.409753 -1.317863,1.022344 -2.18148099,1.810286 -0.615901,0.561933 -0.727231,3.307584 -0.902316,3.23755 C -0.01385399,79.76874 2.731794,79.65741 3.293727,79.041508 4.081669,78.177891 3.69426,76.996557 5.104013,76.860028 4.898743,77.325261 5.867532,79.046792 7.45916,78.810656 9.457135,78.514233 9.531163,76.703627 8.932564,75.604765 8.543301,76.63747 8.041666,76.715849 7.39439,76.372781 6.58049,75.941398 6.860336,74.351099 7.755756,73.48651"
         style="fill:#000000;stroke:#000000;stroke-width:0.1112323px;stroke-linecap:butt;stroke-linejoin:miter;stroke-opacity:1"
         id="path1737-3-5-5" />
    </g>
    <path
       id="path1154-9"
       d="m 33.712865,7.4258691 c 0.536813,0 1.07363,0.00933 1.620386,0.01865 8.111875,0.1398689 16.174044,1.3707167 23.450873,3.5806479 3.439594,8.615932 4.277395,18.944521 4.277395,29.036812 0,10.092292 -0.917329,20.877786 -4.506039,29.596289 -7.157536,2.014114 -14.851888,3.03982 -22.884234,3.03982 -0.487111,0 -0.974221,-0.0094 -1.461331,-0.01865 H 34.040918 C 25.909161,72.53957 17.846991,71.308722 10.580105,69.089467 7.1504515,60.492184 6.3123238,50.163289 6.3123238,40.061979 c 0,-10.101311 0.9176558,-20.868461 4.4864832,-29.586965 6.690308,-1.8742449 14.046665,-2.9186005 21.472608,-3.0398203 0.47717,-0.00933 0.964281,-0.00933 1.44145,-0.00933 m 0,-0.9324602 c -0.487111,0 -0.974221,0 -1.46133,0.00933 C 24.785826,6.6239532 17.270413,7.686958 10.510517,9.5798526 L 10.043289,9.710397 9.8643508,10.139328 c -3.6085914,8.811751 -4.5231655,19.514693 -4.5231655,29.922651 0,10.407958 0.8350459,20.672644 4.294522,29.353849 l 0.1689973,0.419608 0.4572874,0.13987 c 7.326533,2.237904 15.537818,3.496724 23.749103,3.636593 h 0.188879 c 0.47717,0.0094 0.96428,0.01865 1.461331,0.01865 8.111875,0 15.905636,-1.035031 23.172525,-3.077119 l 0.467228,-0.130544 0.178938,-0.428932 c 3.618533,-8.793101 4.543048,-19.496959 4.543048,-29.931975 0,-10.435016 -0.835047,-20.672644 -4.304463,-29.363174 l -0.168997,-0.419609 -0.457288,-0.13987 C 51.74588,7.9107484 43.534594,6.6519271 35.353133,6.512058 34.776554,6.502738 34.249678,6.493409 33.712865,6.493409 Z"
       style="fill:#000000;stroke:none;stroke-width:1.78642213;stroke-miterlimit:4;stroke-dasharray:none" />
    <path
       id="path1154-9-3"
       d="m 33.712865,7.4258686 c 0.536813,0 1.07363,0.00933 1.620386,0.01865 8.111875,0.1398689 16.174044,1.3707167 23.450873,3.5806484 3.439594,8.615932 4.277395,18.944521 4.277395,29.036812 0,10.092292 -0.917329,20.877786 -4.506039,29.596288 -7.157536,2.014114 -14.851888,3.03982 -22.884234,3.03982 -0.487111,0 -0.974221,-0.0094 -1.461331,-0.01865 H 34.040918 C 25.909161,72.539569 17.846991,71.308722 10.580105,69.089466 7.1504515,60.492184 6.3123238,50.163288 6.3123238,40.061979 c 0,-10.101312 0.9176558,-20.868461 4.4864832,-29.586965 6.690308,-1.8742454 14.046665,-2.918601 21.472608,-3.0398208 0.47717,-0.00933 0.964281,-0.00933 1.44145,-0.00933 m 0,-0.9324602 c -0.487111,0 -0.974221,0 -1.46133,0.00933 C 24.785826,6.6239527 17.270413,7.6869575 10.510517,9.5798521 L 10.043289,9.7103965 9.8643508,10.139328 C 6.2557594,18.951079 5.3411853,29.65402 5.3411853,40.061979 c 0,10.407958 0.8350459,20.672643 4.294522,29.353849 l 0.1689973,0.419608 0.4572874,0.13987 c 7.326533,2.237904 15.537818,3.496724 23.749103,3.636593 h 0.188879 c 0.47717,0.0094 0.96428,0.01865 1.461331,0.01865 8.111875,0 15.905636,-1.035032 23.172525,-3.077119 l 0.467228,-0.130544 0.178938,-0.428932 c 3.618533,-8.793101 4.543048,-19.49696 4.543048,-29.931975 0,-10.435016 -0.835047,-20.672644 -4.304463,-29.363175 l -0.168997,-0.419609 -0.457288,-0.13987 C 51.74588,7.9107479 43.534594,6.6519266 35.353133,6.5120575 34.776554,6.5027375 34.249678,6.4934085 33.712865,6.4934085 Z"
       style="fill:#000000;stroke:none;stroke-width:1.78642213;stroke-miterlimit:4;stroke-dasharray:none" />
  </g>
</svg>
