<svg id="Capa_2" xmlns="http://www.w3.org/2000/svg" xmlns:xlink="http://www.w3.org/1999/xlink" viewBox="0 0 69.02 80">
<defs >
<style >
.cls-1{fill:#c89aed;}.cls-2{fill:#fff;}.cls-3{fill:#f8ffbf;}.cls-4{fill:#7b7be8;}.cls-5{fill:#a88347;}.cls-6{fill:#782ab5;}.cls-7{stroke:#000;stroke-miterlimit:10;}.cls-7,.cls-8,.cls-9,.cls-10{fill:none;}.cls-11{fill:#1c46ff;}.cls-8{stroke:#deb778;stroke-dasharray:0 0 0 4.06;stroke-linecap:round;stroke-linejoin:round;}.cls-12{fill:#deb778;}.cls-13{fill:url(#USGS_19_Inundación_de_tierra_2);}.cls-10{stroke:#1d1d1b;stroke-dasharray:0 0 2 2;stroke-width:.3px;}.cls-14{fill:#fcf0c5;}
</style>
<pattern id="USGS_19_Inundación_de_tierra_2" x="0" y="0" width="72" height="72" patternTransform="translate(-308.48 -16423) rotate(-90)" patternUnits="userSpaceOnUse" viewBox="0 0 72 72">
<g >
<rect class="cls-9" width="72" height="72">
</rect>
<g >
<line class="cls-10" x1="71" y1="71" x2="144.44" y2="71">
</line>
<line class="cls-10" x1="71" y1="67" x2="144.44" y2="67">
</line>
<line class="cls-10" x1="71" y1="63" x2="144.44" y2="63">
</line>
<line class="cls-10" x1="71" y1="59" x2="144.44" y2="59">
</line>
<line class="cls-10" x1="71" y1="55" x2="144.44" y2="55">
</line>
<line class="cls-10" x1="71" y1="51" x2="144.44" y2="51">
</line>
<line class="cls-10" x1="71" y1="47" x2="144.44" y2="47">
</line>
<line class="cls-10" x1="71" y1="43" x2="144.44" y2="43">
</line>
<line class="cls-10" x1="71" y1="39" x2="144.44" y2="39">
</line>
<line class="cls-10" x1="71" y1="35" x2="144.44" y2="35">
</line>
<line class="cls-10" x1="71" y1="31" x2="144.44" y2="31">
</line>
<line class="cls-10" x1="71" y1="27" x2="144.44" y2="27">
</line>
<line class="cls-10" x1="71" y1="23" x2="144.44" y2="23">
</line>
<line class="cls-10" x1="71" y1="19" x2="144.44" y2="19">
</line>
<line class="cls-10" x1="71" y1="15" x2="144.44" y2="15">
</line>
<line class="cls-10" x1="71" y1="11" x2="144.44" y2="11">
</line>
<line class="cls-10" x1="71" y1="7" x2="144.44" y2="7">
</line>
<line class="cls-10" x1="71" y1="3" x2="144.44" y2="3">
</line>
</g>
<g >
<line class="cls-10" x1="-1" y1="71" x2="72.44" y2="71">
</line>
<line class="cls-10" x1="-1" y1="67" x2="72.44" y2="67">
</line>
<line class="cls-10" x1="-1" y1="63" x2="72.44" y2="63">
</line>
<line class="cls-10" x1="-1" y1="59" x2="72.44" y2="59">
</line>
<line class="cls-10" x1="-1" y1="55" x2="72.44" y2="55">
</line>
<line class="cls-10" x1="-1" y1="51" x2="72.44" y2="51">
</line>
<line class="cls-10" x1="-1" y1="47" x2="72.44" y2="47">
</line>
<line class="cls-10" x1="-1" y1="43" x2="72.44" y2="43">
</line>
<line class="cls-10" x1="-1" y1="39" x2="72.44" y2="39">
</line>
<line class="cls-10" x1="-1" y1="35" x2="72.44" y2="35">
</line>
<line class="cls-10" x1="-1" y1="31" x2="72.44" y2="31">
</line>
<line class="cls-10" x1="-1" y1="27" x2="72.44" y2="27">
</line>
<line class="cls-10" x1="-1" y1="23" x2="72.44" y2="23">
</line>
<line class="cls-10" x1="-1" y1="19" x2="72.44" y2="19">
</line>
<line class="cls-10" x1="-1" y1="15" x2="72.44" y2="15">
</line>
<line class="cls-10" x1="-1" y1="11" x2="72.44" y2="11">
</line>
<line class="cls-10" x1="-1" y1="7" x2="72.44" y2="7">
</line>
<line class="cls-10" x1="-1" y1="3" x2="72.44" y2="3">
</line>
<line class="cls-10" x1="1.04" y1="69" x2="74.48" y2="69">
</line>
<line class="cls-10" x1="1.04" y1="65" x2="74.48" y2="65">
</line>
<line class="cls-10" x1="1.04" y1="61" x2="74.48" y2="61">
</line>
<line class="cls-10" x1="1.04" y1="57" x2="74.48" y2="57">
</line>
<line class="cls-10" x1="1.04" y1="53" x2="74.48" y2="53">
</line>
<line class="cls-10" x1="1.04" y1="49" x2="74.48" y2="49">
</line>
<line class="cls-10" x1="1.04" y1="45" x2="74.48" y2="45">
</line>
<line class="cls-10" x1="1.04" y1="41" x2="74.48" y2="41">
</line>
<line class="cls-10" x1="1.04" y1="37" x2="74.48" y2="37">
</line>
<line class="cls-10" x1="1.04" y1="33" x2="74.48" y2="33">
</line>
<line class="cls-10" x1="1.04" y1="29" x2="74.48" y2="29">
</line>
<line class="cls-10" x1="1.04" y1="25" x2="74.48" y2="25">
</line>
<line class="cls-10" x1="1.04" y1="21" x2="74.48" y2="21">
</line>
<line class="cls-10" x1="1.04" y1="17" x2="74.48" y2="17">
</line>
<line class="cls-10" x1="1.04" y1="13" x2="74.48" y2="13">
</line>
<line class="cls-10" x1="1.04" y1="9" x2="74.48" y2="9">
</line>
<line class="cls-10" x1="1.04" y1="5" x2="74.48" y2="5">
</line>
<line class="cls-10" x1="1.04" y1="1" x2="74.48" y2="1">
</line>
</g>
<g >
<line class="cls-10" x1="-73" y1="71" x2=".44" y2="71">
</line>
<line class="cls-10" x1="-73" y1="67" x2=".44" y2="67">
</line>
<line class="cls-10" x1="-73" y1="63" x2=".44" y2="63">
</line>
<line class="cls-10" x1="-73" y1="59" x2=".44" y2="59">
</line>
<line class="cls-10" x1="-73" y1="55" x2=".44" y2="55">
</line>
<line class="cls-10" x1="-73" y1="51" x2=".44" y2="51">
</line>
<line class="cls-10" x1="-73" y1="47" x2=".44" y2="47">
</line>
<line class="cls-10" x1="-73" y1="43" x2=".44" y2="43">
</line>
<line class="cls-10" x1="-73" y1="39" x2=".44" y2="39">
</line>
<line class="cls-10" x1="-73" y1="35" x2=".44" y2="35">
</line>
<line class="cls-10" x1="-73" y1="31" x2=".44" y2="31">
</line>
<line class="cls-10" x1="-73" y1="27" x2=".44" y2="27">
</line>
<line class="cls-10" x1="-73" y1="23" x2=".44" y2="23">
</line>
<line class="cls-10" x1="-73" y1="19" x2=".44" y2="19">
</line>
<line class="cls-10" x1="-73" y1="15" x2=".44" y2="15">
</line>
<line class="cls-10" x1="-73" y1="11" x2=".44" y2="11">
</line>
<line class="cls-10" x1="-73" y1="7" x2=".44" y2="7">
</line>
<line class="cls-10" x1="-73" y1="3" x2=".44" y2="3">
</line>
<line class="cls-10" x1="-70.96" y1="69" x2="2.48" y2="69">
</line>
<line class="cls-10" x1="-70.96" y1="65" x2="2.48" y2="65">
</line>
<line class="cls-10" x1="-70.96" y1="61" x2="2.48" y2="61">
</line>
<line class="cls-10" x1="-70.96" y1="57" x2="2.48" y2="57">
</line>
<line class="cls-10" x1="-70.96" y1="53" x2="2.48" y2="53">
</line>
<line class="cls-10" x1="-70.96" y1="49" x2="2.48" y2="49">
</line>
<line class="cls-10" x1="-70.96" y1="45" x2="2.48" y2="45">
</line>
<line class="cls-10" x1="-70.96" y1="41" x2="2.48" y2="41">
</line>
<line class="cls-10" x1="-70.96" y1="37" x2="2.48" y2="37">
</line>
<line class="cls-10" x1="-70.96" y1="33" x2="2.48" y2="33">
</line>
<line class="cls-10" x1="-70.96" y1="29" x2="2.48" y2="29">
</line>
<line class="cls-10" x1="-70.96" y1="25" x2="2.48" y2="25">
</line>
<line class="cls-10" x1="-70.96" y1="21" x2="2.48" y2="21">
</line>
<line class="cls-10" x1="-70.96" y1="17" x2="2.48" y2="17">
</line>
<line class="cls-10" x1="-70.96" y1="13" x2="2.48" y2="13">
</line>
<line class="cls-10" x1="-70.96" y1="9" x2="2.48" y2="9">
</line>
<line class="cls-10" x1="-70.96" y1="5" x2="2.48" y2="5">
</line>
<line class="cls-10" x1="-70.96" y1="1" x2="2.48" y2="1">
</line>
</g>
</g>
</pattern>
</defs>

<g id="Capa_9">
<g >
<g >
<path class="cls-1" d="M62.49,63.27l-1.45,10.75-23.91,3-29.33-5.23-.58-9.87,8.91-3.1,3.87-2.91,.19-3.87s-1.64-2.9-1.64-4.16-.39-4.36-.39-4.36c0,0-3.19-1.54-2.71-8.13-.43-.43-.65-.73-.73-.98-.11-.38,.09-.64,.44-1.05,.58-.68,2.61-2.71,2.61-2.71,0,0-1.25-9.29,1.55-14.23,5.42-5.42,14.43-6.1,20.52-3.97,6.1,2.13,7.75,3.78,8.14,4.84,.38,1.07,1.06,11.81,1.06,14.04,3.33,2.32,3.13,2.59,2,3.81-.06,.05-.11,.1-.16,.16,0,3.97-.58,7.64-2.81,8.51-.29,5.52-1.93,8.14-1.93,8.14l.29,3.77,4.06,3.39,12,4.16Z">
</path>
<path class="cls-2" d="M33.32,61.24V31.77s12.4-.16,14.64,1.38l.59,.89s-.79,12.26-.99,13.84-.49,4.35-5.24,8.31-9,5.04-9,5.04Z">
</path>
<path class="cls-2" d="M7.84,61.72l6.73-2.39,5.43-3.42s.38,6.04,.72,7.41,3.99,9.58,11.29,11.97c6.16-1.25,11.74-4.67,14.02-14.02,.34-3.65,.34-5.02,.34-5.02l4.12,2.86,12.75,4.33-3.42,11.29-27.7,3.19-23.82-4.45-.46-11.74Z">
</path>
<path class="cls-11" d="M51.04,35.14c-1.6-.47-5.21-3.65-7.45-5.06-2.5-1.56-5.42-3.22-10.1-3.33-4.69-.1-13.03,4.79-13.03,4.79l-5.01,3.85-.73-.98c-.11-.38,.09-.64,.44-1.05,.58-.68,2.61-2.71,2.61-2.71,0,0-1.25-9.29,1.55-14.23,5.42-5.42,14.43-6.1,20.52-3.97,6.1,2.13,7.75,3.78,8.14,4.84,.38,1.07,1.06,11.81,1.06,14.04,3.33,2.32,3.13,2.59,2,3.81Z">
</path>
<path class="cls-4" d="M19.94,36.75s2.55-1.83,3.94-2.46c3.17-.63,6.75,.27,6.75,.27l-1.48,4.96-7-.5-2.21-2.27Z">
</path>
<path class="cls-4" d="M46.7,36.75s-2.55-1.83-3.94-2.46c-3.17-.63-6.75,.27-6.75,.27l1.48,4.96,7-.5,2.21-2.27Z">
</path>
<polygon class="cls-3" points="37.42 38 42.61 37.83 44.32 39.02 39.72 40.47 37.24 39.28 37.42 38">
</polygon>
<polygon class="cls-3" points="29.05 38 23.85 37.83 22.15 39.02 26.75 40.47 29.22 39.28 29.05 38">
</polygon>
<path class="cls-4" d="M29.83,51.06s1.67,.49,3.73,.44,3.68-.69,3.68-.69c0,0-.93,2.5-3.83,2.5s-3.58-2.26-3.58-2.26Z">
</path>
<path d="M46.07,52.97l-19.19,22.28-16.86-1.67-2.17-11.86,8.1-2.58,4.06-3.23,.2-3.11s6.01,5.84,7.84,6.93,5.09,1.92,7.51,.92,10.51-7.68,10.51-7.68Z">
</path>
<path d="M18.15,33.53l-1.93,1.6h-.8s-.2,5.4,.87,6.79,1.88,1.59,1.88,1.59v-9.99Z">
</path>
<path d="M48.52,33.18s-21.32-3.31-30.07,4.84c.22-2.16-.3-4.49-.3-4.49,0,0,9.38-6.84,13.71-7.17s16.67,6.82,16.67,6.82Z">
</path>
<path class="cls-1" d="M38.72,32.52v.75c3.62,0,6.69,.29,8.32,.48,.07,.05,.15,.11,.22,.16-.18,1.77-.56,5.9-.6,9.07-.13-.13-.3-.21-.49-.22-.01,0-.03,0-.04,0-.38,0-.7,.28-.74,.66-.26,2.11-1.15,3.98-2.43,5.12-.02,.02-.07,.07-.08,.08-.22,.23-.27,.4-.3,.67-.24,1.82-.48,3.77-.68,5.74-4.16,3.97-7.1,4.81-8.84,4.81-2.28,0-4.98-1.41-8.02-4.2-.22-1.63-.85-6.33-.85-6.33h0c-.03-.28-.08-.45-.33-.72-.02-.02-.03-.03-.05-.05-1.27-1.14-2.16-3.01-2.43-5.12-.05-.38-.37-.66-.74-.66-.01,0-.03,0-.04,0-.39,.02-.7,.34-.71,.73-.04,1.74,.25,4.24,1.86,6.43l.37,2.73c-2.13-2.62-2.54-5.15-2.48-8.61,.03-1.84-.08-4.14-.19-5.87,4.8-4.04,13.11-4.9,19.3-4.9v-.75m7.86,13.91c-.17,1.97-.66,3.7-1.81,5.4,.08-.61,.15-1.25,.24-1.91,.83-1.13,1.31-2.34,1.57-3.49m-7.86-13.91c-6.69,0-15.21,.98-20.07,5.33,.13,2,.24,4.34,.21,6.18-.07,4.13,.54,7.17,3.91,10.47l.27,.28s.07,.07,.11,.1l-.71-5.25c-1.35-1.75-1.88-3.96-1.83-6.12,.27,2.14,1.16,4.24,2.67,5.59,.12,.13,.12,.11,.14,.29,0,0,.71,5.33,.89,6.62,1.99,1.85,5.39,4.58,8.73,4.58h0c3.81,0,7.67-3.39,9.55-5.21,.2-2.01,.45-4,.71-5.99,.02-.18,.02-.16,.14-.29,1.55-1.39,2.41-3.51,2.67-5.59,.05,2.16-.48,4.37-1.83,6.12-.2,1.54-.39,3.09-.56,4.63,3.14-3.2,3.73-6.19,3.67-10.23-.06-3.59,.52-9.31,.64-10.46-.22-.17-.46-.35-.72-.54-1.64-.2-4.84-.51-8.6-.51h0Z">
</path>
<path class="cls-2" d="M48.93,26.47s-7.13-14.27-22.45-13.95c7.13-1.68,16.15-.84,20.98,3.99,1.47,4.41,1.47,9.96,1.47,9.96Z">
</path>
<path class="cls-2" d="M44.52,56.31l-13.35,15.84s1,1.75,3.12,1.12,12.22-8.61,10.23-16.96Z">
</path>
<path class="cls-2" d="M23.38,42.44c.81,.37,1.86,.79,2.95,1.1,.67,.19,.98,.97,.59,1.55-.63,.96-1.15,1.77-1.54,2.37s-1.29,.63-1.7,.02c-.63-.93-1.4-2.32-1.72-3.9-.16-.82,.65-1.5,1.41-1.16Z">
</path>
<path class="cls-7" d="M48.91,31.44s1.1-10.79-1.65-15.1c-.68-.58-1.46-1.15-2.31-1.68-7.11-4.43-16.25-4.43-23.36,0-.86,.54-1.64,1.1-2.33,1.69-2.74,4.31-1.64,15.1-1.64,15.1">
</path>
<path class="cls-7" d="M15.59,35.26c-.26,0-.53-.1-.72-.31-.38-.4-.36-1.03,.04-1.41,.38-.36,9.31-8.75,18.37-8.75s17.91,8.1,18.29,8.45c.4,.38,.43,1.01,.05,1.41-.38,.41-1.01,.43-1.41,.06-.09-.08-8.66-7.92-16.93-7.92s-16.9,8.12-16.99,8.2c-.19,.18-.44,.28-.69,.28Z">
</path>
<path class="cls-7" d="M48.56,33.41s-.73,6.62-.66,10.61c.06,3.99-.47,7.32-4.06,10.84-1.17,1.15-5.99,6.24-10.8,6.23s-9.47-5.09-10.62-6.23c-3.59-3.52-4.13-6.85-4.06-10.84s-.53-10.32-.53-10.32">
</path>
<path d="M20.61,43.51c.28,2.14,1.17,4.24,2.68,5.59,.12,.13,.12,.11,.14,.28,0,0,.93,6.9,.93,6.9l-.99,.14-.93-6.91,.14,.28c-1.45-1.78-2.01-4.06-1.96-6.28h0Z">
</path>
<path d="M46.12,43.51c.05,2.22-.51,4.51-1.96,6.28,0,0,.14-.28,.14-.28-.27,2.1-.54,4.21-.74,6.3l-1-.08c.2-2.14,.47-4.24,.75-6.35,.02-.18,.02-.16,.14-.28,1.55-1.39,2.41-3.51,2.68-5.59h0Z">
</path>
<path d="M19.84,36.9s2.53-1.76,3.78-1.91c5.48,.36,6.83,.36,6.83,.36l.36-1.4s-2.84-1.09-5.33-.72-4.29,1.6-5.64,3.67Z">
</path>
<path d="M46.62,36.9s-2.53-1.76-3.78-1.91c-5.48,.36-6.83,.36-6.83,.36l-.36-1.4s2.84-1.09,5.33-.72,4.29,1.6,5.64,3.67Z">
</path>
<path d="M29.15,37.93c-1.78,.15-3.56,.24-5.32,.34l.15-.03c-.5,.26-1.17,.6-1.55,.94,0,0-.15-.67-.15-.67,1.44,.68,3.06,1.33,4.65,1.42,0,0-.19,.03-.19,.03,.32-.12,1.15-.42,1.46-.54,0,0,.45-.18,.45-.18l.06-.02c.38-.17,.75,.32,.5,.64-.74,.98-1.5,1.93-2.58,2.56-.84-.01-1.71-.48-2.45-.87,.78,.23,1.57,.4,2.36,.45l-.16,.03c.84-.69,1.5-1.7,2.11-2.64l.56,.61c-.31,.16-.68,.32-.99,.46-2,1.08-4.43-.27-6.28-1.17-.56-.37,.14-.91,.42-1.07,.51-.29,1.04-.58,1.59-.73,1.8,.03,3.56,.2,5.34,.44h0Z">
</path>
<path d="M37.34,37.93c1.78-.24,3.54-.41,5.34-.44,.56,.15,1.08,.44,1.59,.73,.29,.15,.99,.69,.43,1.06-1.81,.89-4.32,2.25-6.28,1.17-.31-.14-.68-.29-.99-.46,0,0,.56-.61,.56-.61,.6,.95,1.26,1.95,2.11,2.64l-.16-.03c.79-.05,1.58-.22,2.36-.45-.74,.39-1.61,.86-2.45,.87-.56-.19-3.97-3.34-2.08-3.2,0,0,.06,.02,.06,.02l.45,.18c.3,.12,1.14,.42,1.46,.54l-.19-.03c1.59-.09,3.21-.74,4.65-1.42,0,0-.15,.67-.15,.67-.38-.34-1.04-.68-1.55-.94l.15,.03c-1.75-.1-3.54-.19-5.32-.34h0Z">
</path>
<path d="M35.82,37.09c.46,1.77,.77,3.58,.54,5.43,0,0-.02-.22-.02-.22,.2,.43,.41,.86,.54,1.37,.06,.25,.14,.53,.05,.91-.08,.42-.53,.71-.76,.78-.79,.33-1.89,.63-2.7,.89-.14,.05-.13,.05-.28,0-2.52-.92-4.6-.6-2.88-3.95,0,0-.02,.22-.02,.22-.13-.94-.08-1.86,.02-2.77,.13-.9,.27-1.79,.52-2.66-.07,1.79-.14,3.65,.24,5.39-.19,.59-.54,1.3-.48,1.87,.03,.05,.01,.06,.23,.14,.84,.29,1.76,.55,2.65,.81h-.28c.92-.31,2.09-.51,2.87-.95,.07-.57-.29-1.28-.48-1.87,.38-1.73,.31-3.6,.24-5.39h0Z">
</path>
<path d="M26.19,49.85c.09-.75,.31-1.45,.64-2.12,.33-.64,.69-1.37,1.53-1.61-.42,1.49-1.32,2.48-2.17,3.72h0Z">
</path>
<path d="M40.39,49.85c-.85-1.25-1.75-2.23-2.17-3.72,.84,.24,1.2,.97,1.53,1.61,.32,.66,.55,1.37,.64,2.12h0Z">
</path>
<polyline class="cls-7" points="27.35 47.62 28.85 48.58 37.41 48.58 39.18 47.69">
</polyline>
<path d="M37.71,50.51c-1.21,2.09-7.28,2.1-8.49,0,1.35,.69,2.77,.51,4.25,.53,1.47-.01,2.9,.16,4.25-.53h0Z">
</path>
<path class="cls-7" d="M15.42,35.2s-.51,6.68,2.72,8.43">
</path>
<path class="cls-7" d="M50.91,35.2s.51,6.68-2.72,8.43">
</path>
<polyline class="cls-7" points="20.01 51.91 19.97 56.01 16.04 58.89 5.31 62.72">
</polyline>
<polyline class="cls-7" points="46.35 51.91 46.38 56.01 50.31 58.89 61.05 62.72">
</polyline>
<path class="cls-7" d="M19.99,55.47l.28,5.75s1.82,10.93,12.44,14.02">
</path>
<path class="cls-7" d="M14.47,59.29s-2.59,6.14,3.96,13.99">
</path>
<path class="cls-7" d="M46.33,55.47l-.28,5.75s-1.82,10.93-12.44,14.02">
</path>
<path class="cls-7" d="M51.85,59.29s2.59,6.14-3.96,13.99">
</path>
</g>
<path class="cls-11" d="M20.25,56.66c-1.03,1.17-2.15,2.33-3.42,3.24-2.76,1.14-6.23,2.4-9.09,3.2-1.03,.31-2.08,.56-3.14,.78,0,0-.03-.07-.03-.07,3.98-1.49,8.08-3.09,12.01-4.52,0,0,3.62-2.68,3.62-2.68,0,0,.04,.06,.04,.06h0Z">
</path>
</g>
</g>
 <g
     id="g2850">
    <g
       id="g2837">
      <path
         id="path1951"
         d="M 0.056640625 0.04296875 L 0.056640625 79.943359 L 69.308594 79.943359 L 69.308594 0.04296875 L 0.056640625 0.04296875 z M 33.615234 3.5957031 C 34.206332 3.5957038 34.786991 3.6051034 35.421875 3.6152344 C 44.430653 3.7671809 53.471255 5.1336733 61.560547 7.5546875 L 62.064453 7.7070312 L 62.25 8.1640625 C 66.070247 17.605006 66.990234 28.726438 66.990234 40.0625 C 66.990234 51.398562 65.972723 63.025755 61.988281 72.578125 L 61.791016 73.044922 L 61.275391 73.185547 C 53.273669 75.403966 44.691921 76.529297 35.759766 76.529297 C 35.212453 76.529297 34.675812 76.519896 34.150391 76.509766 L 33.943359 76.509766 C 24.901742 76.357819 15.860367 74.989738 7.7929688 72.558594 L 7.2890625 72.40625 L 7.1035156 71.951172 C 3.2942144 62.520359 2.375 51.369168 2.375 40.0625 C 2.375 28.755832 3.3819737 17.127318 7.3554688 7.5546875 L 7.5527344 7.0898438 L 8.0664062 6.9472656 C 15.509867 4.890923 23.785212 3.7371557 32.005859 3.6054688 C 32.542226 3.5953387 33.078867 3.5957031 33.615234 3.5957031 z "
         style="opacity:1;vector-effect:none;fill:#ffffff;fill-opacity:1;fill-rule:nonzero;stroke:none;stroke-width:1.95200002;stroke-linecap:butt;stroke-linejoin:miter;stroke-miterlimit:4;stroke-dasharray:none;stroke-dashoffset:0;stroke-opacity:1" />
    </g>
    <path
       id="path1154-8-2"
       d="m 33.675163,6.6112954 c 0.557696,0 1.115392,0.00956 1.683415,0.019115 8.427403,0.14336 16.803167,1.4049288 24.363042,3.6700176 3.573384,8.830981 4.443772,19.417362 4.443772,29.761551 0,10.344189 -0.95301,21.39888 -4.68131,30.334991 -7.435942,2.064385 -15.429581,3.274388 -23.774362,3.274388 -0.506058,0 -1.012115,-0.0096 -1.518172,-0.01911 h -0.17557 C 25.56792,73.508883 17.192156,72.088619 9.6426089,69.813973 6.0795528,61.002107 5.2088244,50.415411 5.2088244,40.061979 c 0,-10.353432 0.95335,-21.389323 4.6609939,-30.325434 C 16.820359,7.8155201 24.462856,6.7450981 32.177647,6.6208528 c 0.49573,-0.00956 1.001787,-0.00956 1.497516,-0.00956 m 0,-0.9557337 c -0.506057,0 -1.012114,0 -1.518171,0.00956 C 24.40089,5.7893644 16.593149,6.8789009 9.570315,8.8190405 L 9.0849131,8.9528432 8.8990146,9.3924808 C 5.1500599,18.424166 4.1999116,29.394246 4.1999116,40.061979 c 0,10.667733 0.8675267,21.188618 4.461566,30.0865 l 0.1755708,0.430081 0.4750741,0.14336 c 7.6115135,2.293761 16.1421925,3.584001 24.6728715,3.727361 h 0.196227 c 0.495729,0.0096 1.001786,0.01911 1.518171,0.01911 8.427403,0 16.524318,-1.060864 24.073866,-3.153921 l 0.485403,-0.133802 0.185898,-0.439639 c 3.759282,-9.01257 4.719759,-19.983589 4.719759,-30.679055 0,-10.695466 -0.867528,-21.188618 -4.471894,-30.0960578 L 60.516853,9.5358409 60.041779,9.3924808 C 52.409609,7.108277 43.87893,5.8180364 35.379234,5.6746763 34.780227,5.6651187 34.232859,5.6555621 33.675163,5.6555615 Z"
       style="fill:#ff0000;stroke:#ffffff;stroke-width:1.84341729;stroke-miterlimit:4;stroke-dasharray:none" />
    <path
       id="path1154"
       d="m 33.614853,4.6077955 c 0.591098,0 1.182197,0.01013 1.784241,0.02026 8.932155,0.1519464 17.809578,1.4890758 25.822246,3.8898304 3.787408,9.3599041 4.709928,20.5803481 4.709928,31.5440931 0,10.963745 -1.01009,22.680548 -4.961693,32.151879 -7.881312,2.18803 -16.353723,3.302304 -25.198307,3.302304 -0.536368,0 -1.072735,-0.01013 -1.609102,-0.02026 H 33.97608 C 25.022033,75.343956 16.14461,74.006827 8.1428892,71.595943 4.3664269,62.256298 3.443547,51.035521 3.443547,40.061979 c 0,-10.973542 1.01045,-22.670418 4.9401601,-32.1417498 7.3668369,-2.036083 15.4670749,-3.170617 23.6439369,-3.3023039 0.525421,-0.01013 1.061788,-0.01013 1.587209,-0.01013 m 0,-1.0129766 c -0.536367,0 -1.072734,0 -1.609101,0.01013 C 23.785105,3.7366356 15.509726,4.891429 8.0662653,6.9477716 L 7.5517907,7.0895883 7.3547579,7.5555576 C 3.3812628,17.128188 2.3742062,28.755311 2.3742062,40.061979 c 0,11.306668 0.9194864,22.457692 4.7287876,31.888505 l 0.1860865,0.45584 0.5035283,0.151947 c 8.0673984,2.431144 17.1090154,3.798662 26.1506324,3.950608 h 0.207979 c 0.525421,0.01013 1.061788,0.02026 1.609101,0.02026 8.932155,0 17.514028,-1.124404 25.51575,-3.342823 l 0.514475,-0.141816 0.197032,-0.46597 c 3.984442,-9.55237 5.002445,-21.180489 5.002445,-32.516551 0,-11.336062 -0.919487,-22.457692 -4.739734,-31.8986353 L 62.064202,7.7075041 61.560674,7.5555576 C 53.471382,5.1345434 44.429765,3.7670249 35.420987,3.6150784 c -0.634884,-0.01013 -1.215036,-0.020259 -1.806134,-0.02026 z"
       style="fill:#000000;stroke:#000000;stroke-width:1.95382714;stroke-miterlimit:4;stroke-dasharray:none" />
    <g
       id="g1810">
      <path
         d="M 6.5134911,7.7433673 C 5.6489029,6.8479453 4.058602,6.5681013 3.6272194,7.3820013 3.284151,8.0292783 3.3625296,8.5309135 4.395235,8.9201755 3.2963719,9.5187755 1.4857674,9.4447465 1.1893447,7.4467713 0.95320848,5.8551433 2.674739,4.8863543 3.1399725,5.0916244 3.0034432,3.6818714 1.8221094,4.0692802 0.95849208,3.2813384 0.34259068,2.7194046 0.23126071,-0.02624603 0.0561761,0.04378767 -0.0138576,0.21887227 2.7317937,0.33020157 3.2937267,0.94610377 4.0816685,1.8097211 3.6942598,2.9910547 5.1040128,3.1275841 4.8987425,2.6623507 5.8675315,0.94082017 7.4591593,1.1769564 9.4571345,1.4733791 9.5311625,3.2839847 8.9325635,4.3828467 8.5433008,3.3501417 8.041666,3.2717627 7.3943894,3.6148312 6.5804899,4.0462137 6.8603354,5.6365129 7.7557553,6.5011023"
         style="fill:#000000;stroke:#000000;stroke-width:0.1112323px;stroke-linecap:butt;stroke-linejoin:miter;stroke-opacity:1"
         id="path1737-3" />
      <path
         d="m 62.850738,7.7433673 c 0.864588,-0.895422 2.454889,-1.175266 2.886271,-0.361366 0.343069,0.647277 0.26469,1.148912 -0.768015,1.538174 1.098863,0.5986 2.909467,0.524571 3.20589,-1.473404 0.236136,-1.591628 -1.485394,-2.560417 -1.950628,-2.3551469 0.13653,-1.409753 1.317863,-1.0223442 2.181481,-1.810286 0.615901,-0.5619338 0.727231,-3.30758442 0.902316,-3.23755072 0.07003,0.1750846 -2.675618,0.2864139 -3.237551,0.9023161 C 65.28256,1.8097211 65.669969,2.9910547 64.260216,3.1275841 64.465486,2.6623507 63.496697,0.94082018 61.905069,1.1769564 c -1.997975,0.2964227 -2.072003,2.1070283 -1.473404,3.2058903 0.389263,-1.032705 0.890898,-1.111084 1.538174,-0.7680155 0.8139,0.4313825 0.534054,2.0216817 -0.361366,2.8862711"
         style="fill:#000000;stroke:#000000;stroke-width:0.1112323px;stroke-linecap:butt;stroke-linejoin:miter;stroke-opacity:1"
         id="path1737-3-5" />
      <path
         d="m 62.850738,72.244244 c 0.864588,0.895422 2.454889,1.175266 2.886272,0.361366 0.343068,-0.647277 0.264689,-1.148912 -0.768016,-1.538174 1.098863,-0.5986 2.909468,-0.524571 3.20589,1.473404 0.236137,1.591628 -1.485394,2.560417 -1.950628,2.355147 0.13653,1.409753 1.317864,1.022344 2.181481,1.810286 0.615901,0.561934 0.727231,3.307584 0.902316,3.237551 0.07003,-0.175085 -2.675618,-0.286414 -3.237551,-0.902317 -0.787942,-0.863617 -0.400533,-2.04495 -1.810286,-2.18148 0.20527,0.465234 -0.763519,2.186764 -2.355146,1.950628 -1.997976,-0.296423 -2.072004,-2.107028 -1.473405,-3.20589 0.389263,1.032705 0.890898,1.111084 1.538175,0.768015 0.813899,-0.431382 0.534054,-2.021682 -0.361366,-2.886271"
         style="fill:#000000;stroke:#000000;stroke-width:0.1112323px;stroke-linecap:butt;stroke-linejoin:miter;stroke-opacity:1"
         id="path1737-3-7" />
      <path
         d="M 6.513491,72.244245 C 5.648903,73.139667 4.058602,73.419511 3.62722,72.605611 3.284151,71.958334 3.36253,71.456699 4.395235,71.067437 c -1.098863,-0.5986 -2.909467,-0.524571 -3.20589,1.473404 -0.23613599,1.591628 1.485394,2.560417 1.950628,2.355147 -0.13653,1.409753 -1.317863,1.022344 -2.18148099,1.810286 -0.615901,0.561933 -0.727231,3.307584 -0.902316,3.23755 C -0.01385399,79.76874 2.731794,79.65741 3.293727,79.041508 4.081669,78.177891 3.69426,76.996557 5.104013,76.860028 4.898743,77.325261 5.867532,79.046792 7.45916,78.810656 9.457135,78.514233 9.531163,76.703627 8.932564,75.604765 8.543301,76.63747 8.041666,76.715849 7.39439,76.372781 6.58049,75.941398 6.860336,74.351099 7.755756,73.48651"
         style="fill:#000000;stroke:#000000;stroke-width:0.1112323px;stroke-linecap:butt;stroke-linejoin:miter;stroke-opacity:1"
         id="path1737-3-5-5" />
    </g>
    <path
       id="path1154-9"
       d="m 33.712865,7.4258691 c 0.536813,0 1.07363,0.00933 1.620386,0.01865 8.111875,0.1398689 16.174044,1.3707167 23.450873,3.5806479 3.439594,8.615932 4.277395,18.944521 4.277395,29.036812 0,10.092292 -0.917329,20.877786 -4.506039,29.596289 -7.157536,2.014114 -14.851888,3.03982 -22.884234,3.03982 -0.487111,0 -0.974221,-0.0094 -1.461331,-0.01865 H 34.040918 C 25.909161,72.53957 17.846991,71.308722 10.580105,69.089467 7.1504515,60.492184 6.3123238,50.163289 6.3123238,40.061979 c 0,-10.101311 0.9176558,-20.868461 4.4864832,-29.586965 6.690308,-1.8742449 14.046665,-2.9186005 21.472608,-3.0398203 0.47717,-0.00933 0.964281,-0.00933 1.44145,-0.00933 m 0,-0.9324602 c -0.487111,0 -0.974221,0 -1.46133,0.00933 C 24.785826,6.6239532 17.270413,7.686958 10.510517,9.5798526 L 10.043289,9.710397 9.8643508,10.139328 c -3.6085914,8.811751 -4.5231655,19.514693 -4.5231655,29.922651 0,10.407958 0.8350459,20.672644 4.294522,29.353849 l 0.1689973,0.419608 0.4572874,0.13987 c 7.326533,2.237904 15.537818,3.496724 23.749103,3.636593 h 0.188879 c 0.47717,0.0094 0.96428,0.01865 1.461331,0.01865 8.111875,0 15.905636,-1.035031 23.172525,-3.077119 l 0.467228,-0.130544 0.178938,-0.428932 c 3.618533,-8.793101 4.543048,-19.496959 4.543048,-29.931975 0,-10.435016 -0.835047,-20.672644 -4.304463,-29.363174 l -0.168997,-0.419609 -0.457288,-0.13987 C 51.74588,7.9107484 43.534594,6.6519271 35.353133,6.512058 34.776554,6.502738 34.249678,6.493409 33.712865,6.493409 Z"
       style="fill:#000000;stroke:none;stroke-width:1.78642213;stroke-miterlimit:4;stroke-dasharray:none" />
    <path
       id="path1154-9-3"
       d="m 33.712865,7.4258686 c 0.536813,0 1.07363,0.00933 1.620386,0.01865 8.111875,0.1398689 16.174044,1.3707167 23.450873,3.5806484 3.439594,8.615932 4.277395,18.944521 4.277395,29.036812 0,10.092292 -0.917329,20.877786 -4.506039,29.596288 -7.157536,2.014114 -14.851888,3.03982 -22.884234,3.03982 -0.487111,0 -0.974221,-0.0094 -1.461331,-0.01865 H 34.040918 C 25.909161,72.539569 17.846991,71.308722 10.580105,69.089466 7.1504515,60.492184 6.3123238,50.163288 6.3123238,40.061979 c 0,-10.101312 0.9176558,-20.868461 4.4864832,-29.586965 6.690308,-1.8742454 14.046665,-2.918601 21.472608,-3.0398208 0.47717,-0.00933 0.964281,-0.00933 1.44145,-0.00933 m 0,-0.9324602 c -0.487111,0 -0.974221,0 -1.46133,0.00933 C 24.785826,6.6239527 17.270413,7.6869575 10.510517,9.5798521 L 10.043289,9.7103965 9.8643508,10.139328 C 6.2557594,18.951079 5.3411853,29.65402 5.3411853,40.061979 c 0,10.407958 0.8350459,20.672643 4.294522,29.353849 l 0.1689973,0.419608 0.4572874,0.13987 c 7.326533,2.237904 15.537818,3.496724 23.749103,3.636593 h 0.188879 c 0.47717,0.0094 0.96428,0.01865 1.461331,0.01865 8.111875,0 15.905636,-1.035032 23.172525,-3.077119 l 0.467228,-0.130544 0.178938,-0.428932 c 3.618533,-8.793101 4.543048,-19.49696 4.543048,-29.931975 0,-10.435016 -0.835047,-20.672644 -4.304463,-29.363175 l -0.168997,-0.419609 -0.457288,-0.13987 C 51.74588,7.9107479 43.534594,6.6519266 35.353133,6.5120575 34.776554,6.5027375 34.249678,6.4934085 33.712865,6.4934085 Z"
       style="fill:#000000;stroke:none;stroke-width:1.78642213;stroke-miterlimit:4;stroke-dasharray:none" />
  </g>
</svg>
