<?xml version="1.0" encoding="UTF-8" standalone="no"?>
<!-- Created with Inkscape (http://www.inkscape.org/) -->

<svg
   xmlns:dc="http://purl.org/dc/elements/1.1/"
   xmlns:cc="http://creativecommons.org/ns#"
   xmlns:rdf="http://www.w3.org/1999/02/22-rdf-syntax-ns#"
   xmlns:svg="http://www.w3.org/2000/svg"
   xmlns="http://www.w3.org/2000/svg"
   xmlns:sodipodi="http://sodipodi.sourceforge.net/DTD/sodipodi-0.dtd"
   xmlns:inkscape="http://www.inkscape.org/namespaces/inkscape"
   width="12"
   height="12"
   viewBox="0 0 3.1749999 3.1750001"
   version="1.1"
   id="svg3639"
   inkscape:version="0.92.3 (2405546, 2018-03-11)"
   sodipodi:docname="mini_template_power.svg">
  <defs
     id="defs3633" />
  <sodipodi:namedview
     id="base"
     pagecolor="#ffffff"
     bordercolor="#666666"
     borderopacity="1.0"
     inkscape:pageopacity="0.0"
     inkscape:pageshadow="2"
     inkscape:zoom="22.866601"
     inkscape:cx="1.9535891"
     inkscape:cy="11.248057"
     inkscape:document-units="mm"
     inkscape:current-layer="layer1"
     showgrid="false"
     units="px"
     inkscape:window-width="1920"
     inkscape:window-height="1017"
     inkscape:window-x="-8"
     inkscape:window-y="-8"
     inkscape:window-maximized="1" />
  <metadata
     id="metadata3636">
    <rdf:RDF>
      <cc:Work
         rdf:about="">
        <dc:format>image/svg+xml</dc:format>
        <dc:type
           rdf:resource="http://purl.org/dc/dcmitype/StillImage" />
        <dc:title></dc:title>
      </cc:Work>
    </rdf:RDF>
  </metadata>
  <g
     inkscape:label="Layer 1"
     inkscape:groupmode="layer"
     id="layer1"
     transform="translate(0,-293.82498)">
    <circle
       style="fill:#999999;fill-opacity:1;stroke:none;stroke-width:0.31373331"
       id="path16431"
       cx="1.5875"
       cy="295.41248"
       r="1.5875" />
    <path
       inkscape:connector-curvature="0"
       id="path2566"
       d="m 3.037303,295.02391 a 0.27257692,0.27257692 0 0 0 -0.3333712,-0.19251 0.27257692,0.27257692 0 0 0 -0.00973,0.003 0.51516748,0.51516748 0 0 0 -0.4353395,-0.14084 0.27837593,0.27837593 0 0 1 -0.034255,0.17817 0.27837593,0.27837593 0 0 1 -0.3566616,0.11397 0.51516748,0.51516748 0 0 0 -0.030902,0.35024 0.51516748,0.51516748 0 0 0 0.2072708,0.29141 0.27837593,0.27837593 0 0 1 0.362557,-0.0753 0.27837593,0.27837593 0 0 1 0.1158638,0.13001 0.51516748,0.51516748 0 0 0 0.3014884,-0.31986 0.27257692,0.27257692 0 0 0 0.020642,-0.005 0.27257692,0.27257692 0 0 0 0.1923652,-0.33387 z m -0.7417105,1.04569 a 0.27837593,0.27837593 0 0 1 -0.1670363,-0.0352 0.27837593,0.27837593 0 0 1 -0.1258137,-0.32466 0.51516748,0.51516748 0 0 0 -0.3428559,-0.0274 0.51516748,0.51516748 0 0 0 -0.2892215,0.20424 0.27837593,0.27837593 0 0 1 0.06404,0.35412 0.27837593,0.27837593 0 0 1 -0.1260771,0.11382 0.51516748,0.51516748 0 0 0 0.3342518,0.31799 0.27257692,0.27257692 0 0 0 0.3332232,0.19007 0.27257692,0.27257692 0 0 0 0.1934489,-0.33166 0.51516748,0.51516748 0 0 0 0.1259375,-0.4612 z m -0.4270157,-1.58993 a 0.51516748,0.51516748 0 0 0 -0.334252,-0.31798 0.27257692,0.27257692 0 0 0 -8.69e-4,-0.007 0.27257692,0.27257692 0 0 0 -0.3339762,-0.19284 0.27257692,0.27257692 0 0 0 -0.1928265,0.33398 0.27257692,0.27257692 0 0 0 0.00162,0.006 0.51516748,0.51516748 0 0 0 -0.13151907,0.44032 0.27837593,0.27837593 0 0 1 0.18586037,0.0332 0.27837593,0.27837593 0 0 1 0.1166546,0.34997 0.51516748,0.51516748 0 0 0 0.3385224,0.0261 0.51516748,0.51516748 0 0 0 0.2892215,-0.20424 0.27837593,0.27837593 0 0 1 -0.064522,-0.354 0.27837593,0.27837593 0 0 1 0.1260771,-0.11382 z m -0.5355726,0.99146 a 0.51516748,0.51516748 0 0 0 -0.1916436,-0.28117 0.27837593,0.27837593 0 0 1 -0.35708483,0.0679 0.27837593,0.27837593 0 0 1 -0.11976396,-0.13886 0.51516748,0.51516748 0 0 0 -0.3242209,0.34633 0.27257692,0.27257692 0 0 0 -0.0101915,0.003 0.27257692,0.27257692 0 0 0 -0.19248953,0.3334 0.27257692,0.27257692 0 0 0 0.33352377,0.19295 0.27257692,0.27257692 0 0 0 0.0203116,-0.006 0.51516748,0.51516748 0 0 0 0.4238094,0.12551 0.27837593,0.27837593 0 0 1 0.0370524,-0.15108 0.27837593,0.27837593 0 0 1 0.33976904,-0.12136 0.51516748,0.51516748 0 0 0 0.040586,-0.36973 z"
       style="opacity:1;vector-effect:none;fill:none;fill-opacity:1;fill-rule:nonzero;stroke:#666666;stroke-width:0.09290542;stroke-linecap:butt;stroke-linejoin:miter;stroke-miterlimit:4;stroke-dasharray:none;stroke-dashoffset:0;stroke-opacity:1" />
    <path
       inkscape:connector-curvature="0"
       id="path2568"
       d="m 2.887263,294.66192 a 0.27257692,0.27257692 0 0 0 -0.3718385,-0.0997 0.27257692,0.27257692 0 0 0 -0.00862,0.005 0.51516748,0.51516748 0 0 0 -0.4569586,-0.0234 0.27837593,0.27837593 45 0 1 0.013028,0.18097 0.27837593,0.27837593 45 0 1 -0.3150136,0.20239 0.51516748,0.51516748 0 0 0 0.0608,0.3463 0.51516748,0.51516748 0 0 0 0.2756324,0.22784 0.27837593,0.27837593 45 0 1 0.3307184,-0.16655 0.27837593,0.27837593 45 0 1 0.1455638,0.0956 0.51516748,0.51516748 0 0 0 0.2084295,-0.38699 0.27257692,0.27257692 0 0 0 0.018766,-0.01 0.27257692,0.27257692 0 0 0 0.0994,-0.37228 z m -0.4457939,1.20202 a 0.27837593,0.27837593 45 0 1 -0.1704634,0.009 0.27837593,0.27837593 45 0 1 -0.2055528,-0.28102 0.51516748,0.51516748 0 0 0 -0.338269,0.0622 0.51516748,0.51516748 0 0 0 -0.2265054,0.27214 0.27837593,0.27837593 45 0 1 0.1535121,0.32548 0.27837593,0.27837593 45 0 1 -0.092324,0.14257 0.51516748,0.51516748 0 0 0 0.405164,0.22064 0.27257692,0.27257692 0 0 0 0.3710643,0.0974 0.27257692,0.27257692 0 0 0 0.1010166,-0.37043 0.51516748,0.51516748 0 0 0 0.00228,-0.47808 z M 1.617501,294.43871 a 0.51516748,0.51516748 0 0 0 -0.405164,-0.22064 0.27257692,0.27257692 0 0 0 -0.00253,-0.006 0.27257692,0.27257692 0 0 0 -0.37250634,-0.0998 0.27257692,0.27257692 0 0 0 -0.0998151,0.37251 0.27257692,0.27257692 0 0 0 0.003088,0.005 0.51516748,0.51516748 0 0 0 -0.013075,0.45936 0.27837593,0.27837593 45 0 1 0.18811543,-0.0161 0.27837593,0.27837593 45 0 1 0.20325898,0.30786 0.51516748,0.51516748 0 0 0 0.3337412,-0.0624 0.51516748,0.51516748 0 0 0 0.2265054,-0.27214 0.27837593,0.27837593 45 0 1 -0.1539444,-0.32524 0.27837593,0.27837593 45 0 1 0.092323,-0.14256 z M 1.3567846,295.535 a 0.51516748,0.51516748 0 0 0 -0.2578841,-0.22198 0.27837593,0.27837593 45 0 1 -0.32735809,0.15795 0.27837593,0.27837593 45 0 1 -0.15162164,-0.10313 0.51516748,0.51516748 0 0 0 -0.22353694,0.41845 0.27257692,0.27257692 0 0 0 -0.009188,0.005 0.27257692,0.27257692 0 0 0 -0.0996404,0.37186 0.27257692,0.27257692 0 0 0 0.3720986,0.10006 0.27257692,0.27257692 0 0 0 0.0180685,-0.0111 0.51516748,0.51516748 0 0 0 0.44185261,0.0115 0.27837593,0.27837593 45 0 1 -0.00331,-0.15552 0.27837593,0.27837593 45 0 1 0.2967805,-0.20516 0.51516748,0.51516748 0 0 0 -0.056491,-0.36764 z"
       style="opacity:1;vector-effect:none;fill:none;fill-opacity:1;fill-rule:nonzero;stroke:#666666;stroke-width:0.09290542;stroke-linecap:butt;stroke-linejoin:miter;stroke-miterlimit:4;stroke-dasharray:none;stroke-dashoffset:0;stroke-opacity:1" />
    <path
       inkscape:connector-curvature="0"
       id="path2570"
       d="m 2.6486449,294.35109 a 0.27257692,0.27257692 0 0 0 -0.3849656,-3e-5 0.27257692,0.27257692 0 0 0 -0.00693,0.007 0.51516748,0.51516748 45 0 0 -0.4474368,0.0957 0.27837593,0.27837593 0 0 1 0.059422,0.17143 0.27837593,0.27837593 0 0 1 -0.2518979,0.27703 0.51516748,0.51516748 45 0 0 0.1483591,0.31877 0.51516748,0.51516748 45 0 0 0.3252101,0.14874 0.27837593,0.27837593 0 0 1 0.2763418,-0.24648 0.27837593,0.27837593 0 0 1 0.165344,0.0547 0.51516748,0.51516748 45 0 0 0.1011663,-0.42775 0.27257692,0.27257692 0 0 0 0.015611,-0.0143 0.27257692,0.27257692 0 0 0 -3.387e-4,-0.38532 z m -0.1194972,1.27645 a 0.27837593,0.27837593 0 0 1 -0.1622736,0.053 0.27837593,0.27837593 0 0 1 -0.2712839,-0.21825 0.51516748,0.51516748 45 0 0 -0.3106296,0.14768 0.51516748,0.51516748 45 0 0 -0.1483532,0.32149 0.27837593,0.27837593 0 0 1 0.2325222,0.27466 0.27837593,0.27837593 0 0 1 -0.052278,0.16161 0.51516748,0.51516748 45 0 0 0.4484648,0.10826 0.27257692,0.27257692 0 0 0 0.383618,-0.002 0.27257692,0.27257692 0 0 0 0.0017,-0.38396 0.51516748,0.51516748 45 0 0 -0.1215357,-0.46238 z m -1.1647683,-1.16341 a 0.51516748,0.51516748 45 0 0 -0.44846491,-0.10826 0.27257692,0.27257692 0 0 0 -0.004016,-0.005 0.27257692,0.27257692 0 0 0 -0.38565078,-2e-5 0.27257692,0.27257692 0 0 0 -1.5e-6,0.38565 0.27257692,0.27257692 0 0 0 0.004341,0.004 0.51516748,0.51516748 45 0 0 0.10626019,0.44709 0.27837593,0.27837593 0 0 1 0.17755075,-0.0642 0.27837593,0.27837593 0 0 1 0.27601159,0.24476 0.51516748,0.51516748 45 0 0 0.3062162,-0.14666 0.51516748,0.51516748 45 0 0 0.1483531,-0.32149 0.27837593,0.27837593 0 0 1 -0.232876,-0.27431 0.27837593,0.27837593 0 0 1 0.052278,-0.16161 z m 0.031907,1.12641 a 0.51516748,0.51516748 45 0 0 -0.30655,-0.14767 0.27837593,0.27837593 0 0 1 -0.27532253,0.2373 0.27837593,0.27837593 0 0 1 -0.17314655,-0.0604 0.51516748,0.51516748 45 0 0 -0.10761931,0.46204 0.27257692,0.27257692 0 0 0 -0.007558,0.007 0.27257692,0.27257692 0 0 0 -8.5e-7,0.38498 0.27257692,0.27257692 0 0 0 0.38531553,3.4e-4 0.27257692,0.27257692 0 0 0 0.014594,-0.0154 0.51516748,0.51516748 45 0 0 0.42978441,-0.10321 0.27837593,0.27837593 0 0 1 -0.043452,-0.14937 0.27837593,0.27837593 0 0 1 0.2335668,-0.27499 0.51516748,0.51516748 45 0 0 -0.1497179,-0.34049 z"
       style="opacity:1;vector-effect:none;fill:none;fill-opacity:1;fill-rule:nonzero;stroke:#666666;stroke-width:0.09290542;stroke-linecap:butt;stroke-linejoin:miter;stroke-miterlimit:4;stroke-dasharray:none;stroke-dashoffset:0;stroke-opacity:1" />
    <path
       style="opacity:1;vector-effect:none;fill:none;fill-opacity:1;fill-rule:nonzero;stroke:#666666;stroke-width:0.09290542;stroke-linecap:butt;stroke-linejoin:miter;stroke-miterlimit:4;stroke-dasharray:none;stroke-dashoffset:0;stroke-opacity:1"
       d="m 2.3377102,294.11262 a 0.27257692,0.27257692 0 0 0 -0.371858,0.0996 0.27257692,0.27257692 0 0 0 -0.00476,0.009 0.51516748,0.51516748 45 0 0 -0.4074229,0.20824 0.27837593,0.27837593 0 0 1 0.1017666,0.15021 0.27837593,0.27837593 0 0 1 -0.1716157,0.33278 0.51516748,0.51516748 45 0 0 0.2258076,0.26951 0.51516748,0.51516748 45 0 0 0.3526252,0.0595 0.27837593,0.27837593 0 0 1 0.203133,-0.3096 0.27837593,0.27837593 0 0 1 0.1738562,0.01 0.51516748,0.51516748 45 0 0 -0.012991,-0.43936 0.27257692,0.27257692 0 0 0 0.011392,-0.0178 0.27257692,0.27257692 0 0 0 -0.1000545,-0.3721 z m 0.214943,1.26388 a 0.27837593,0.27837593 0 0 1 -0.1430251,0.0932 0.27837593,0.27837593 0 0 1 -0.3185274,-0.1406 0.51516748,0.51516748 45 0 0 -0.2618214,0.22305 0.51516748,0.51516748 45 0 0 -0.060091,0.34893 0.27837593,0.27837593 0 0 1 0.2956865,0.20512 0.27837593,0.27837593 0 0 1 -0.00867,0.16963 0.51516748,0.51516748 45 0 0 0.4612035,-0.0115 0.27257692,0.27257692 0 0 0 0.3700288,-0.10122 0.27257692,0.27257692 0 0 0 -0.097732,-0.37131 0.51516748,0.51516748 45 0 0 -0.2370674,-0.41517 z m -1.4261915,-0.8223 a 0.51516748,0.51516748 45 0 0 -0.46120358,0.0115 0.27257692,0.27257692 0 0 0 -0.005229,-0.004 0.27257692,0.27257692 0 0 0 -0.37251374,0.0998 0.27257692,0.27257692 0 0 0 0.0998122,0.37251 0.27257692,0.27257692 0 0 0 0.005298,0.003 0.51516748,0.51516748 45 0 0 0.2183539,0.40435 0.27837593,0.27837593 0 0 1 0.15488626,-0.10796 0.27837593,0.27837593 0 0 1 0.32995445,0.16498 0.51516748,0.51516748 45 0 0 0.257823,-0.22092 0.51516748,0.51516748 45 0 0 0.060091,-0.34893 0.27837593,0.27837593 0 0 1 -0.2959375,-0.20469 0.27837593,0.27837593 0 0 1 0.00867,-0.16963 z m 0.3223561,1.07977 a 0.51516748,0.51516748 45 0 0 -0.3343251,-0.0633 0.27837593,0.27837593 0 0 1 -0.20452416,0.30047 0.27837593,0.27837593 0 0 1 -0.18287181,-0.0135 0.51516748,0.51516748 45 0 0 0.0156324,0.47415 0.27257692,0.27257692 0 0 0 -0.005413,0.009 0.27257692,0.27257692 0 0 0 0.0996387,0.37186 0.27257692,0.27257692 0 0 0 0.37227384,-0.0994 0.27257692,0.27257692 0 0 0 0.010125,-0.0186 0.51516748,0.51516748 45 0 0 0.388427,-0.21093 0.27837593,0.27837593 0 0 1 -0.08063,-0.13303 0.27837593,0.27837593 0 0 1 0.154436,-0.32607 0.51516748,0.51516748 45 0 0 -0.2327422,-0.29014 z"
       id="circle4296-5"
       inkscape:connector-curvature="0" />
    <path
       style="color:#000000;font-style:normal;font-variant:normal;font-weight:normal;font-stretch:normal;font-size:medium;line-height:normal;font-family:sans-serif;font-variant-ligatures:normal;font-variant-position:normal;font-variant-caps:normal;font-variant-numeric:normal;font-variant-alternates:normal;font-feature-settings:normal;text-indent:0;text-align:start;text-decoration:none;text-decoration-line:none;text-decoration-style:solid;text-decoration-color:#000000;letter-spacing:normal;word-spacing:normal;text-transform:none;writing-mode:lr-tb;direction:ltr;text-orientation:mixed;dominant-baseline:auto;baseline-shift:baseline;text-anchor:start;white-space:normal;shape-padding:0;clip-rule:nonzero;display:inline;overflow:visible;visibility:visible;opacity:1;isolation:auto;mix-blend-mode:normal;color-interpolation:sRGB;color-interpolation-filters:linearRGB;solid-color:#000000;solid-opacity:1;vector-effect:none;fill:#ff0000;fill-opacity:1;fill-rule:nonzero;stroke:none;stroke-width:0.17982258;stroke-linecap:butt;stroke-linejoin:miter;stroke-miterlimit:4;stroke-dasharray:none;stroke-dashoffset:0;stroke-opacity:1;color-rendering:auto;image-rendering:auto;shape-rendering:auto;text-rendering:auto;enable-background:accumulate"
       d="m 1.5878906,293.81758 c -0.87960649,0 -1.59452052,0.71493 -1.59452052,1.59453 0,0.8796 0.71491403,1.59453 1.59452052,1.59453 0.8796063,0 1.5945208,-0.71493 1.5945208,-1.59453 0,-0.8796 -0.7149145,-1.59453 -1.5945208,-1.59453 z m 0,0.17911 c 0.782423,0 1.4154003,0.63298 1.4154003,1.41541 0,0.78241 -0.6329773,1.41539 -1.4154003,1.41539 -0.78242306,0 -1.41540039,-0.63298 -1.41540039,-1.41539 0,-0.78243 0.63297733,-1.41541 1.41540039,-1.41541 z"
       id="path16431-8-9-6"
       inkscape:connector-curvature="0" />
    <path
       style="opacity:1;vector-effect:none;fill:#ff0000;fill-opacity:1;fill-rule:nonzero;stroke:#666666;stroke-width:0.09290542;stroke-linecap:butt;stroke-linejoin:miter;stroke-miterlimit:4;stroke-dasharray:none;stroke-dashoffset:0;stroke-opacity:1"
       d="m 1.5872597,293.91167 a 0.27257693,0.27257693 0 0 0 -0.2722179,0.27222 0.27257693,0.27257693 0 0 0 4.801e-4,0.0101 0.51516749,0.51516749 0 0 0 -0.2486929,0.38408 0.27837593,0.27837593 0 0 1 0.1632348,0.0792 0.27837593,0.27837593 0 0 1 0.017764,0.374 0.51516749,0.51516749 0 0 0 0.3303102,0.1205 0.51516749,0.51516749 0 0 0 0.3351113,-0.12482 0.27837593,0.27837593 0 0 1 0.021124,-0.36968 0.27837593,0.27837593 0 0 1 0.1555531,-0.0783 0.51516749,0.51516749 0 0 0 -0.2309291,-0.374 0.27257693,0.27257693 0 0 0 9.602e-4,-0.0211 0.27257693,0.27257693 0 0 0 -0.2726979,-0.27222 z m 0.8180939,0.98709 a 0.27837593,0.27837593 0 0 1 -0.077297,0.15219 0.27837593,0.27837593 0 0 1 -0.3461535,0.0375 0.51516749,0.51516749 0 0 0 -0.1152245,0.32407 0.51516749,0.51516749 0 0 0 0.122426,0.33223 0.27837593,0.27837593 0 0 1 0.3586362,0.0298 0.27837593,0.27837593 0 0 1 0.077297,0.15123 0.51516749,0.51516749 0 0 0 0.3936835,-0.24053 0.27257693,0.27257693 0 0 0 0.2698176,-0.2727 0.27257693,0.27257693 0 0 0 -0.2702976,-0.2727 0.51516749,0.51516749 0 0 0 -0.4128877,-0.24101 z m -1.64626992,9.6e-4 a 0.51516749,0.51516749 0 0 0 -0.39368369,0.24053 0.27257693,0.27257693 0 0 0 -0.006241,-4.8e-4 0.27257693,0.27257693 0 0 0 -0.27269796,0.2727 0.27257693,0.27257693 0 0 0 0.27269796,0.2727 0.27257693,0.27257693 0 0 0 0.005761,-4.8e-4 0.51516749,0.51516749 0 0 0 0.39128318,0.24101 0.27837593,0.27837593 0 0 1 0.080177,-0.17092 0.27837593,0.27837593 0 0 1 0.36823823,-0.0221 0.51516749,0.51516749 0 0 0 0.112824,-0.32023 0.51516749,0.51516749 0 0 0 -0.122426,-0.33223 0.27837593,0.27837593 0 0 1 -0.35863623,-0.0293 0.27837593,0.27837593 0 0 1 -0.0772964,-0.15123 z m 0.81905402,0.77393 a 0.51516749,0.51516749 0 0 0 -0.3211882,0.11234 0.27837593,0.27837593 0 0 1 -0.026886,0.36248 0.27837593,0.27837593 0 0 1 -0.1651551,0.0797 0.51516749,0.51516749 0 0 0 0.2506132,0.40281 0.27257693,0.27257693 0 0 0 -4.801e-4,0.0101 0.27257693,0.27257693 0 0 0 0.2722179,0.27222 0.27257693,0.27257693 0 0 0 0.2726979,-0.27222 0.27257693,0.27257693 0 0 0 -4.801e-4,-0.0211 0.51516749,0.51516749 0 0 0 0.2309291,-0.37688 0.27837593,0.27837593 0 0 1 -0.136349,-0.0749 0.27837593,0.27837593 0 0 1 -0.029286,-0.3596 0.51516749,0.51516749 0 0 0 -0.3466337,-0.1349 z"
       id="circle4296"
       inkscape:connector-curvature="0" />
  </g>
</svg>
