<?xml version="1.0" encoding="UTF-8" standalone="no"?>
<!-- Created with Inkscape (http://www.inkscape.org/) -->

<svg
   xmlns:dc="http://purl.org/dc/elements/1.1/"
   xmlns:cc="http://creativecommons.org/ns#"
   xmlns:rdf="http://www.w3.org/1999/02/22-rdf-syntax-ns#"
   xmlns:svg="http://www.w3.org/2000/svg"
   xmlns="http://www.w3.org/2000/svg"
   xmlns:sodipodi="http://sodipodi.sourceforge.net/DTD/sodipodi-0.dtd"
   xmlns:inkscape="http://www.inkscape.org/namespaces/inkscape"
   width="100"
   height="100"
   viewBox="0 0 26.458333 26.458334"
   version="1.1"
   id="svg8"
   inkscape:version="0.92.3 (2405546, 2018-03-11)"
   sodipodi:docname="pedestalFlame2.svg">
  <defs
     id="defs2" />
  <sodipodi:namedview
     id="base"
     pagecolor="#ffffff"
     bordercolor="#666666"
     borderopacity="1.0"
     inkscape:pageopacity="0.0"
     inkscape:pageshadow="2"
     inkscape:zoom="3.3642815"
     inkscape:cx="8.5830273"
     inkscape:cy="14.676032"
     inkscape:document-units="mm"
     inkscape:current-layer="layer1"
     showgrid="false"
     units="px"
     inkscape:window-width="1920"
     inkscape:window-height="1017"
     inkscape:window-x="-8"
     inkscape:window-y="-8"
     inkscape:window-maximized="1" />
  <metadata
     id="metadata5">
    <rdf:RDF>
      <cc:Work
         rdf:about="">
        <dc:format>image/svg+xml</dc:format>
        <dc:type
           rdf:resource="http://purl.org/dc/dcmitype/StillImage" />
        <dc:title></dc:title>
      </cc:Work>
    </rdf:RDF>
  </metadata>
  <g
     inkscape:label="Layer 1"
     inkscape:groupmode="layer"
     id="layer1"
     transform="translate(0,-270.54165)">
    <path
       sodipodi:type="star"
       style="opacity:1;vector-effect:none;fill:#ff0000;fill-opacity:0.34418604;fill-rule:nonzero;stroke:none;stroke-width:1.78426683;stroke-linecap:butt;stroke-linejoin:miter;stroke-miterlimit:4;stroke-dasharray:none;stroke-dashoffset:0;stroke-opacity:1"
       id="path907"
       sodipodi:sides="45"
       sodipodi:cx="13.168938"
       sodipodi:cy="283.71811"
       sodipodi:r1="13.178519"
       sodipodi:r2="11.465311"
       sodipodi:arg1="0.52359878"
       sodipodi:arg2="0.59341195"
       inkscape:flatsided="false"
       inkscape:rounded="-0.01"
       inkscape:randomized="0"
       d="m 24.58187,290.30737 c 0.0096,-0.0166 -1.918473,-0.16206 -1.907759,-0.17794 0.01072,-0.0159 0.867845,1.71728 0.879642,1.70219 0.0118,-0.0151 -1.87725,-0.42748 -1.864429,-0.44172 0.01282,-0.0142 0.6204,1.82135 0.634182,1.80804 0.01378,-0.0133 -1.799486,-0.68458 -1.784808,-0.69689 0.01468,-0.0123 0.360878,1.88997 0.376379,1.87871 0.0155,-0.0113 -1.686699,-0.92836 -1.67045,-0.93852 0.01625,-0.0102 0.09433,1.92181 0.111251,1.91281 0.01692,-0.009 -1.541082,-1.15406 -1.523578,-1.16186 0.0175,-0.008 -0.174048,1.91623 -0.156043,1.90968 0.018,-0.007 -1.365469,-1.35732 -1.347051,-1.3626 0.01842,-0.005 -0.439042,1.87336 -0.4203,1.86938 0.01874,-0.004 -1.163279,-1.53414 -1.144305,-1.53681 0.01897,-0.003 -0.69549,1.79402 -0.676376,1.79269 0.01911,-0.001 -0.938448,-1.68111 -0.919287,-1.68111 0.01916,0 -0.938401,1.67977 -0.919287,1.68111 0.01911,0.001 -0.69535,-1.79536 -0.676376,-1.79269 0.01897,0.003 -1.163047,1.53282 -1.144306,1.53681 0.01874,0.004 -0.4387175,-1.87466 -0.420299,-1.86938 0.01842,0.005 -1.3650563,1.35604 -1.3470514,1.3626 0.018005,0.007 -0.173547,-1.91747 -0.1560431,-1.90968 0.017504,0.008 -1.5404955,1.15287 -1.5235779,1.16186 0.016918,0.009 0.095002,-1.92296 0.1112508,-1.91281 0.016249,0.0102 -1.6859511,0.92725 -1.67045,0.93852 0.015501,0.0113 0.3617016,-1.89103 0.3763794,-1.87871 0.014678,0.0123 -1.7985917,0.68358 -1.7848089,0.69689 0.013783,0.0133 0.6213614,-1.82228 0.6341822,-1.80804 0.012821,0.0142 -1.8762247,0.42662 -1.8644283,0.44172 0.011796,0.0151 0.8689269,-1.71808 0.8796412,-1.70219 0.010714,0.0159 -1.917339,0.16135 -1.9077588,0.17794 0.00958,0.0166 1.0995798,-1.58042 1.1079792,-1.5632 0.0084,0.0172 -1.92113462,-0.10707 -1.91395701,-0.0893 0.007178,0.0178 1.30883061,-1.41201 1.31475151,-1.39378 0.00592,0.0182 -1.88753745,-0.3734 -1.88290214,-0.35481 0.004635,0.0186 1.49260654,-1.21611 1.49593374,-1.19724 0.00333,0.0189 -1.81720157,-0.63246 -1.81519876,-0.6134 0.0020028,0.019 1.64733056,-0.99655 1.64799926,-0.9774 6.687e-4,0.0191 -1.71149587788,-0.8792 -1.71216457,-0.86005 -6.6868e-4,0.0191 1.76999117,-0.75759 1.76798837,-0.73853 -0.002,0.019 -1.57247787,-1.10885 -1.57580504,-1.08998 -0.003327,0.0189 1.85820094,-0.50387 1.85356564,-0.48528 -0.00464,0.0186 -1.40285342,-1.3169 -1.40877431,-1.29868 -0.005921,0.0182 1.91024291,-0.24036 1.90306531,-0.22259 -0.00718,0.0178 -1.205924,-1.49932 -1.2143233,-1.4821 -0.0084,0.0172 1.9251042,0.0278 1.915524,0.0444 -0.00958,0.0166 -0.9855226,-1.65256 -0.996237,-1.63668 -0.010714,0.0159 1.9024955,0.29549 1.8906992,0.31059 -0.011796,0.0151 -0.7459392,-1.77364 -0.75876,-1.7594 -0.012821,0.0142 1.842857,0.55738 1.8290741,0.57069 -0.013783,0.0133 -0.4918368,-1.86019 -0.5065146,-1.84787 -0.014678,0.0123 1.7473493,0.80844 1.7318482,0.8197 -0.015501,0.0113 -0.2281616,-1.91054 -0.2444105,-1.90039 -0.016249,0.0102 1.6178314,1.04376 1.6009137,1.05275 -0.016918,0.009 0.039955,-1.9237 0.022451,-1.91591 -0.017504,0.008 1.4568242,1.25876 1.4388193,1.26531 -0.018005,0.007 0.3072933,-1.89942 0.2888751,-1.89414 -0.018418,0.005 1.2674615,1.44926 1.2487205,1.45324 -0.01874,0.004 0.56865,-1.83816 0.549676,-1.8355 -0.01897,0.003 1.05343,1.61155 1.034316,1.61289 -0.01911,0.001 0.81894,-1.74114 0.79978,-1.74114 -0.01916,0 0.818893,1.74247 0.799779,1.74114 -0.01911,-0.001 1.05329,-1.61022 1.034316,-1.61289 -0.01897,-0.003 0.568419,1.83949 0.549677,1.8355 -0.01874,-0.004 1.267138,-1.44796 1.24872,-1.45324 -0.01842,-0.005 0.30688,1.90069 0.288875,1.89414 -0.01801,-0.007 1.456323,-1.25751 1.438819,-1.26531 -0.0175,-0.008 0.03937,1.92491 0.02245,1.91591 -0.01692,-0.009 1.617163,-1.0426 1.600914,-1.05275 -0.01625,-0.0101 -0.228909,1.91165 -0.244411,1.90039 -0.0155,-0.0113 1.746526,-0.80739 1.731849,-0.8197 -0.01468,-0.0123 -0.492732,1.86118 -0.506515,1.84787 -0.01378,-0.0133 1.841895,-0.55645 1.829074,-0.57069 -0.01282,-0.0142 -0.746964,1.7745 -0.75876,1.7594 -0.0118,-0.0151 1.901414,-0.2947 1.890699,-0.31059 -0.01071,-0.0159 -0.986656,1.65328 -0.996237,1.63668 -0.0096,-0.0166 1.923924,-0.0272 1.915524,-0.0444 -0.0084,-0.0172 -1.207145,1.49986 -1.214323,1.4821 -0.0072,-0.0178 1.908986,0.24082 1.903065,0.22259 -0.0059,-0.0182 -1.404139,1.31727 -1.408774,1.29868 -0.0046,-0.0186 1.856893,0.50415 1.853566,0.48528 -0.0033,-0.0189 -1.573803,1.10903 -1.575805,1.08998 -0.002,-0.0191 1.768657,0.75767 1.767988,0.73853 -6.69e-4,-0.0192 -1.712833,0.8792 -1.712165,0.86005 6.69e-4,-0.0192 1.645997,0.99645 1.648,0.9774 0.002,-0.0191 -1.818526,0.63227 -1.815199,0.6134 0.0033,-0.0189 1.491298,1.21583 1.495934,1.19724 0.0046,-0.0186 -1.888823,0.37303 -1.882903,0.35481 0.0059,-0.0182 1.307574,1.41154 1.314752,1.39378 0.0072,-0.0178 -1.922356,0.10652 -1.913957,0.0893 0.0084,-0.0172 1.098399,1.57979 1.107979,1.5632 z"
       inkscape:transform-center-y="-0.016142263"
       transform="matrix(1.0044551,0,0,1.0050673,-0.0586683,-1.4376028)" />
  </g>
</svg>
