<?xml version="1.0" encoding="UTF-8" standalone="no"?>
<!-- Created with Inkscape (http://www.inkscape.org/) -->

<svg
   xmlns:dc="http://purl.org/dc/elements/1.1/"
   xmlns:cc="http://creativecommons.org/ns#"
   xmlns:rdf="http://www.w3.org/1999/02/22-rdf-syntax-ns#"
   xmlns:svg="http://www.w3.org/2000/svg"
   xmlns="http://www.w3.org/2000/svg"
   xmlns:sodipodi="http://sodipodi.sourceforge.net/DTD/sodipodi-0.dtd"
   xmlns:inkscape="http://www.inkscape.org/namespaces/inkscape"
   width="100"
   height="100"
   viewBox="0 0 26.458333 26.458333"
   version="1.1"
   id="svg5178"
   inkscape:version="0.92.3 (2405546, 2018-03-11)"
   sodipodi:docname="template6.svg">
  <defs
     id="defs5172" />
  <sodipodi:namedview
     id="base"
     pagecolor="#ffffff"
     bordercolor="#666666"
     borderopacity="1.0"
     inkscape:pageopacity="0.0"
     inkscape:pageshadow="2"
     inkscape:zoom="1.979899"
     inkscape:cx="-72.81172"
     inkscape:cy="63.672144"
     inkscape:document-units="mm"
     inkscape:current-layer="layer1"
     showgrid="false"
     units="px"
     inkscape:window-width="1920"
     inkscape:window-height="1017"
     inkscape:window-x="-8"
     inkscape:window-y="-8"
     inkscape:window-maximized="1"
     inkscape:snap-global="false"
     showguides="true"
     inkscape:guide-bbox="true">
    <sodipodi:guide
       position="7.8430059,-2.9293154"
       orientation="0,1"
       id="guide7436"
       inkscape:locked="false" />
  </sodipodi:namedview>
  <metadata
     id="metadata5175">
    <rdf:RDF>
      <cc:Work
         rdf:about="">
        <dc:format>image/svg+xml</dc:format>
        <dc:type
           rdf:resource="http://purl.org/dc/dcmitype/StillImage" />
        <dc:title></dc:title>
      </cc:Work>
    </rdf:RDF>
  </metadata>
  <g
     inkscape:label="Layer 1"
     inkscape:groupmode="layer"
     id="layer1"
     transform="translate(0,-270.54167)">
    <circle
       style="opacity:1;vector-effect:none;fill:#000000;fill-opacity:1;fill-rule:nonzero;stroke:none;stroke-width:0.24100003;stroke-linecap:butt;stroke-linejoin:miter;stroke-miterlimit:4;stroke-dasharray:none;stroke-dashoffset:0;stroke-opacity:1"
       id="path5798-6-7"
       cx="13.229167"
       cy="283.77084"
       r="13.229167" />
    <circle
       style="opacity:1;vector-effect:none;fill:#000000;fill-opacity:1;fill-rule:nonzero;stroke:none;stroke-width:0.24100003;stroke-linecap:butt;stroke-linejoin:miter;stroke-miterlimit:4;stroke-dasharray:none;stroke-dashoffset:0;stroke-opacity:1"
       id="path5798-6-7-1"
       cx="13.229167"
       cy="283.77084"
       r="13.229167" />
    <path
       sodipodi:nodetypes="czc"
       inkscape:connector-curvature="0"
       id="path4549"
       d="m 6.2462065,279.56201 c 0,0 0.2526959,1.64101 -0.4894488,1.85479 -0.7421448,0.21379 -1.9835854,-1.85479 -1.9835854,-1.85479"
       style="fill:#00ffff;stroke:#000000;stroke-width:0.28852156px;stroke-linecap:butt;stroke-linejoin:miter;stroke-opacity:1" />
    <path
       sodipodi:nodetypes="czc"
       inkscape:connector-curvature="0"
       id="path4567"
       d="m 5.215762,278.32549 c 0,0 0.2526958,1.64101 -0.4894489,1.85479 -0.7421447,0.21378 -1.9835853,-1.85479 -1.9835853,-1.85479"
       style="fill:#00ffff;stroke:#000000;stroke-width:0.28852156px;stroke-linecap:butt;stroke-linejoin:miter;stroke-opacity:1" />
    <path
       sodipodi:nodetypes="czc"
       inkscape:connector-curvature="0"
       id="path4551"
       d="m 8.3070738,279.51049 c 0,0 0.2526959,1.641 -0.4894489,1.85479 -0.7421447,0.21379 -1.9835853,-1.85479 -1.9835853,-1.85479"
       style="fill:#00ffff;stroke:#000000;stroke-width:0.28852156px;stroke-linecap:butt;stroke-linejoin:miter;stroke-opacity:1" />
    <path
       sodipodi:nodetypes="czc"
       inkscape:connector-curvature="0"
       id="path4569"
       d="m 7.2766293,278.27397 c 0,0 0.2526958,1.641 -0.4894489,1.85479 -0.7421447,0.21378 -1.9835853,-1.85479 -1.9835853,-1.85479"
       style="fill:#00ffff;stroke:#000000;stroke-width:0.28852156px;stroke-linecap:butt;stroke-linejoin:miter;stroke-opacity:1" />
    <path
       sodipodi:nodetypes="czc"
       inkscape:connector-curvature="0"
       id="path4587"
       d="m 5.9370677,276.77983 c 0,0 0.2526959,1.641 -0.4894489,1.85479 -0.7421447,0.21379 -1.9835853,-1.85479 -1.9835853,-1.85479"
       style="fill:#00ffff;stroke:#000000;stroke-width:0.28852156px;stroke-linecap:butt;stroke-linejoin:miter;stroke-opacity:1" />
    <path
       sodipodi:nodetypes="czc"
       inkscape:connector-curvature="0"
       id="path4553"
       d="m 10.419466,279.56201 c 0,0 0.252695,1.64101 -0.4894488,1.85479 -0.7421447,0.21379 -1.9835853,-1.85479 -1.9835853,-1.85479"
       style="fill:#00ffff;stroke:#000000;stroke-width:0.28852156px;stroke-linecap:butt;stroke-linejoin:miter;stroke-opacity:1" />
    <path
       sodipodi:nodetypes="czc"
       inkscape:connector-curvature="0"
       id="path4571"
       d="m 9.3890215,278.32549 c 0,0 0.2526958,1.64101 -0.4894488,1.85479 -0.7421448,0.21378 -1.9835854,-1.85479 -1.9835854,-1.85479"
       style="fill:#00ffff;stroke:#000000;stroke-width:0.28852156px;stroke-linecap:butt;stroke-linejoin:miter;stroke-opacity:1" />
    <path
       sodipodi:nodetypes="czc"
       inkscape:connector-curvature="0"
       id="path4589"
       d="m 8.0494599,276.83136 c 0,0 0.2526959,1.641 -0.4894488,1.85478 -0.7421447,0.21379 -1.9835853,-1.85478 -1.9835853,-1.85478"
       style="fill:#00ffff;stroke:#000000;stroke-width:0.28852156px;stroke-linecap:butt;stroke-linejoin:miter;stroke-opacity:1" />
    <path
       sodipodi:nodetypes="czc"
       inkscape:connector-curvature="0"
       id="path4607"
       d="m 6.8129374,275.4918 c 0,0 0.2526958,1.641 -0.4894489,1.85478 -0.7421446,0.21379 -1.9835852,-1.85478 -1.9835852,-1.85478"
       style="fill:#00ffff;stroke:#000000;stroke-width:0.28852156px;stroke-linecap:butt;stroke-linejoin:miter;stroke-opacity:1" />
    <path
       sodipodi:nodetypes="czc"
       inkscape:connector-curvature="0"
       id="path4555"
       d="m 12.712179,279.66505 c 0,0 0.252696,1.64101 -0.489448,1.85479 -0.742145,0.21379 -1.983586,-1.85479 -1.983586,-1.85479"
       style="fill:#00ffff;stroke:#000000;stroke-width:0.28852156px;stroke-linecap:butt;stroke-linejoin:miter;stroke-opacity:1" />
    <path
       sodipodi:nodetypes="czc"
       inkscape:connector-curvature="0"
       id="path4573"
       d="m 11.681735,278.42853 c 0,0 0.252696,1.641 -0.489449,1.85479 -0.742145,0.21379 -1.9835855,-1.85479 -1.9835855,-1.85479"
       style="fill:#00ffff;stroke:#000000;stroke-width:0.28852156px;stroke-linecap:butt;stroke-linejoin:miter;stroke-opacity:1" />
    <path
       sodipodi:nodetypes="czc"
       inkscape:connector-curvature="0"
       id="path4591"
       d="m 10.342173,276.9344 c 0,0 0.252696,1.64099 -0.4894487,1.85479 C 9.1105796,279.00297 7.869139,276.9344 7.869139,276.9344"
       style="fill:#00ffff;stroke:#000000;stroke-width:0.28852156px;stroke-linecap:butt;stroke-linejoin:miter;stroke-opacity:1" />
    <path
       sodipodi:nodetypes="czc"
       inkscape:connector-curvature="0"
       id="path4609"
       d="m 9.1056506,275.59483 c 0,0 0.2526958,1.641 -0.4894489,1.8548 -0.7421446,0.21378 -1.9835852,-1.8548 -1.9835852,-1.8548"
       style="fill:#00ffff;stroke:#000000;stroke-width:0.28852156px;stroke-linecap:butt;stroke-linejoin:miter;stroke-opacity:1" />
    <path
       sodipodi:nodetypes="czc"
       inkscape:connector-curvature="0"
       id="path4627"
       d="m 7.920653,274.20375 c 0,0 0.2526959,1.641 -0.4894489,1.85478 -0.7421447,0.2138 -1.9835853,-1.85478 -1.9835853,-1.85478"
       style="fill:#00ffff;stroke:#000000;stroke-width:0.28852156px;stroke-linecap:butt;stroke-linejoin:miter;stroke-opacity:1" />
    <path
       sodipodi:nodetypes="csc"
       inkscape:connector-curvature="0"
       id="path4645"
       d="m 6.7356555,272.76114 c 0,0 0.2527008,1.64101 -0.489449,1.8548 -0.3290691,0.0947 -0.7563027,-0.25914 -1.1299511,-0.68251"
       style="fill:#00ffff;stroke:#000000;stroke-width:0.28852156px;stroke-linecap:butt;stroke-linejoin:miter;stroke-opacity:1" />
    <path
       sodipodi:nodetypes="czc"
       inkscape:connector-curvature="0"
       id="path4557"
       d="m 14.850328,279.71658 c 0,0 0.252696,1.641 -0.489449,1.85478 -0.742144,0.2138 -1.983585,-1.85478 -1.983585,-1.85478"
       style="fill:#00ffff;stroke:#000000;stroke-width:0.28852156px;stroke-linecap:butt;stroke-linejoin:miter;stroke-opacity:1" />
    <path
       sodipodi:nodetypes="czc"
       inkscape:connector-curvature="0"
       id="path4575"
       d="m 13.819884,278.48006 c 0,0 0.252696,1.641 -0.489449,1.85479 -0.742145,0.21378 -1.983585,-1.85479 -1.983585,-1.85479"
       style="fill:#00ffff;stroke:#000000;stroke-width:0.28852156px;stroke-linecap:butt;stroke-linejoin:miter;stroke-opacity:1" />
    <path
       sodipodi:nodetypes="czc"
       inkscape:connector-curvature="0"
       id="path4593"
       d="m 12.480323,276.98592 c 0,0 0.252695,1.64101 -0.48945,1.85479 -0.742145,0.21378 -1.983585,-1.85479 -1.983585,-1.85479"
       style="fill:#00ffff;stroke:#000000;stroke-width:0.28852156px;stroke-linecap:butt;stroke-linejoin:miter;stroke-opacity:1" />
    <path
       sodipodi:nodetypes="czc"
       inkscape:connector-curvature="0"
       id="path4611"
       d="m 11.2438,275.64636 c 0,0 0.252696,1.641 -0.489449,1.85479 -0.742145,0.21378 -1.9835853,-1.85479 -1.9835853,-1.85479"
       style="fill:#00ffff;stroke:#000000;stroke-width:0.28852156px;stroke-linecap:butt;stroke-linejoin:miter;stroke-opacity:1" />
    <path
       sodipodi:nodetypes="czc"
       inkscape:connector-curvature="0"
       id="path4629"
       d="m 10.058802,274.25527 c 0,0 0.252696,1.641 -0.4894486,1.8548 -0.7421447,0.21378 -1.9835853,-1.8548 -1.9835853,-1.8548"
       style="fill:#00ffff;stroke:#000000;stroke-width:0.28852156px;stroke-linecap:butt;stroke-linejoin:miter;stroke-opacity:1" />
    <path
       sodipodi:nodetypes="czc"
       inkscape:connector-curvature="0"
       id="path4647"
       d="m 8.8738047,272.81266 c 0,0 0.2526958,1.641 -0.4894489,1.85479 -0.7421448,0.21378 -1.9835853,-1.85479 -1.9835853,-1.85479"
       style="fill:#00ffff;stroke:#000000;stroke-width:0.28852156px;stroke-linecap:butt;stroke-linejoin:miter;stroke-opacity:1" />
    <path
       sodipodi:nodetypes="czc"
       inkscape:connector-curvature="0"
       id="path4559"
       d="m 17.297605,279.79386 c 0,0 0.252696,1.641 -0.489448,1.85479 -0.742145,0.21379 -1.983586,-1.85479 -1.983586,-1.85479"
       style="fill:#00ffff;stroke:#000000;stroke-width:0.28852156px;stroke-linecap:butt;stroke-linejoin:miter;stroke-opacity:1" />
    <path
       sodipodi:nodetypes="czc"
       inkscape:connector-curvature="0"
       id="path4577"
       d="m 16.267161,278.55734 c 0,0 0.252696,1.641 -0.489449,1.85478 -0.742145,0.2138 -1.983585,-1.85478 -1.983585,-1.85478"
       style="fill:#00ffff;stroke:#000000;stroke-width:0.28852156px;stroke-linecap:butt;stroke-linejoin:miter;stroke-opacity:1" />
    <path
       sodipodi:nodetypes="czc"
       inkscape:connector-curvature="0"
       id="path4595"
       d="m 14.927599,277.0632 c 0,0 0.252696,1.641 -0.489449,1.85479 -0.742144,0.21379 -1.983585,-1.85479 -1.983585,-1.85479"
       style="fill:#00ffff;stroke:#000000;stroke-width:0.28852156px;stroke-linecap:butt;stroke-linejoin:miter;stroke-opacity:1" />
    <path
       sodipodi:nodetypes="czc"
       inkscape:connector-curvature="0"
       id="path4613"
       d="m 13.691077,275.72364 c 0,0 0.252696,1.641 -0.489449,1.85479 -0.742145,0.21379 -1.983585,-1.85479 -1.983585,-1.85479"
       style="fill:#00ffff;stroke:#000000;stroke-width:0.28852156px;stroke-linecap:butt;stroke-linejoin:miter;stroke-opacity:1" />
    <path
       sodipodi:nodetypes="czc"
       inkscape:connector-curvature="0"
       id="path4631"
       d="m 12.370135,274.42317 c 0,0 0.252696,1.64101 -0.489448,1.8548 -0.742145,0.21379 -1.9835862,-1.8548 -1.9835862,-1.8548"
       style="fill:#00ffff;stroke:#000000;stroke-width:0.28852156px;stroke-linecap:butt;stroke-linejoin:miter;stroke-opacity:1" />
    <path
       sodipodi:nodetypes="czc"
       inkscape:connector-curvature="0"
       id="path4649"
       d="m 11.321082,272.88994 c 0,0 0.252695,1.641 -0.489449,1.85479 -0.742145,0.21379 -1.9835853,-1.85479 -1.9835853,-1.85479"
       style="fill:#00ffff;stroke:#000000;stroke-width:0.28852156px;stroke-linecap:butt;stroke-linejoin:miter;stroke-opacity:1" />
    <path
       sodipodi:nodetypes="czc"
       inkscape:connector-curvature="0"
       id="path4561"
       d="m 19.435766,279.84539 c 0,0 0.252696,1.641 -0.48946,1.85478 -0.742134,0.2138 -1.983574,-1.85478 -1.983574,-1.85478"
       style="fill:#00ffff;stroke:#000000;stroke-width:0.28852156px;stroke-linecap:butt;stroke-linejoin:miter;stroke-opacity:1" />
    <path
       sodipodi:nodetypes="czc"
       inkscape:connector-curvature="0"
       id="path4579"
       d="m 18.405321,278.60887 c 0,0 0.252696,1.64099 -0.489459,1.85479 -0.742134,0.21378 -1.983575,-1.85479 -1.983575,-1.85479"
       style="fill:#00ffff;stroke:#000000;stroke-width:0.28852156px;stroke-linecap:butt;stroke-linejoin:miter;stroke-opacity:1" />
    <path
       sodipodi:nodetypes="czc"
       inkscape:connector-curvature="0"
       id="path4597"
       d="m 17.065759,277.11473 c 0,0 0.252696,1.64099 -0.489459,1.85479 -0.742134,0.21378 -1.983575,-1.85479 -1.983575,-1.85479"
       style="fill:#00ffff;stroke:#000000;stroke-width:0.28852156px;stroke-linecap:butt;stroke-linejoin:miter;stroke-opacity:1" />
    <path
       sodipodi:nodetypes="czc"
       inkscape:connector-curvature="0"
       id="path4615"
       d="m 15.829237,275.77517 c 0,0 0.252696,1.64099 -0.489459,1.85479 -0.742134,0.21378 -1.983575,-1.85479 -1.983575,-1.85479"
       style="fill:#00ffff;stroke:#000000;stroke-width:0.28852156px;stroke-linecap:butt;stroke-linejoin:miter;stroke-opacity:1" />
    <path
       sodipodi:nodetypes="czc"
       inkscape:connector-curvature="0"
       id="path4633"
       d="m 14.64424,274.38408 c 0,0 0.252696,1.641 -0.48946,1.85478 -0.742134,0.2138 -1.983574,-1.85478 -1.983574,-1.85478"
       style="fill:#00ffff;stroke:#000000;stroke-width:0.28852156px;stroke-linecap:butt;stroke-linejoin:miter;stroke-opacity:1" />
    <path
       sodipodi:nodetypes="czc"
       inkscape:connector-curvature="0"
       id="path4651"
       d="m 13.459242,272.94147 c 0,0 0.252695,1.641 -0.48946,1.85479 -0.742134,0.21379 -1.983575,-1.85479 -1.983575,-1.85479"
       style="fill:#00ffff;stroke:#000000;stroke-width:0.28852156px;stroke-linecap:butt;stroke-linejoin:miter;stroke-opacity:1" />
    <path
       sodipodi:nodetypes="czc"
       inkscape:connector-curvature="0"
       id="path4563"
       d="m 21.625429,279.84539 c 0,0 0.252696,1.641 -0.489449,1.85478 -0.742145,0.2138 -1.983585,-1.85478 -1.983585,-1.85478"
       style="fill:#00ffff;stroke:#000000;stroke-width:0.28852156px;stroke-linecap:butt;stroke-linejoin:miter;stroke-opacity:1" />
    <path
       sodipodi:nodetypes="czc"
       inkscape:connector-curvature="0"
       id="path4581"
       d="m 20.594984,278.60887 c 0,0 0.252696,1.64099 -0.489449,1.85479 -0.742144,0.21378 -1.983585,-1.85479 -1.983585,-1.85479"
       style="fill:#00ffff;stroke:#000000;stroke-width:0.28852156px;stroke-linecap:butt;stroke-linejoin:miter;stroke-opacity:1" />
    <path
       sodipodi:nodetypes="czc"
       inkscape:connector-curvature="0"
       id="path4599"
       d="m 19.255423,277.11473 c 0,0 0.252695,1.64099 -0.489449,1.85479 -0.742145,0.21378 -1.983586,-1.85479 -1.983586,-1.85479"
       style="fill:#00ffff;stroke:#000000;stroke-width:0.28852156px;stroke-linecap:butt;stroke-linejoin:miter;stroke-opacity:1" />
    <path
       sodipodi:nodetypes="czc"
       inkscape:connector-curvature="0"
       id="path4617"
       d="m 18.0189,275.77517 c 0,0 0.252696,1.64099 -0.489449,1.85479 -0.742144,0.21378 -1.983585,-1.85479 -1.983585,-1.85479"
       style="fill:#00ffff;stroke:#000000;stroke-width:0.28852156px;stroke-linecap:butt;stroke-linejoin:miter;stroke-opacity:1" />
    <path
       sodipodi:nodetypes="czc"
       inkscape:connector-curvature="0"
       id="path4635"
       d="m 16.833903,274.38408 c 0,0 0.252696,1.641 -0.489449,1.85478 -0.742145,0.2138 -1.983585,-1.85478 -1.983585,-1.85478"
       style="fill:#00ffff;stroke:#000000;stroke-width:0.28852156px;stroke-linecap:butt;stroke-linejoin:miter;stroke-opacity:1" />
    <path
       sodipodi:nodetypes="czc"
       inkscape:connector-curvature="0"
       id="path4653"
       d="m 15.648906,272.94147 c 0,0 0.252695,1.641 -0.489449,1.85479 -0.742145,0.21379 -1.983586,-1.85479 -1.983586,-1.85479"
       style="fill:#00ffff;stroke:#000000;stroke-width:0.28852156px;stroke-linecap:butt;stroke-linejoin:miter;stroke-opacity:1" />
    <path
       style="fill:#00ffff;stroke:#000000;stroke-width:0.28852156px;stroke-linecap:butt;stroke-linejoin:miter;stroke-opacity:1"
       d="m 23.634782,279.92266 c 0,0 0.252696,1.64101 -0.489449,1.8548 -0.742144,0.21378 -1.983585,-1.8548 -1.983585,-1.8548"
       id="path4565"
       inkscape:connector-curvature="0"
       sodipodi:nodetypes="czc" />
    <path
       style="fill:#00ffff;stroke:#000000;stroke-width:0.28852156px;stroke-linecap:butt;stroke-linejoin:miter;stroke-opacity:1"
       d="m 22.604338,278.68614 c 0,0 0.252696,1.64101 -0.489449,1.85479 -0.742145,0.2138 -1.983585,-1.85479 -1.983585,-1.85479"
       id="path4583"
       inkscape:connector-curvature="0"
       sodipodi:nodetypes="czc" />
    <path
       style="fill:#00ffff;stroke:#000000;stroke-width:0.28852156px;stroke-linecap:butt;stroke-linejoin:miter;stroke-opacity:1"
       d="m 21.264776,277.19201 c 0,0 0.252696,1.641 -0.489449,1.85479 -0.742144,0.21379 -1.983585,-1.85479 -1.983585,-1.85479"
       id="path4601"
       inkscape:connector-curvature="0"
       sodipodi:nodetypes="czc" />
    <path
       style="fill:#00ffff;stroke:#000000;stroke-width:0.28852156px;stroke-linecap:butt;stroke-linejoin:miter;stroke-opacity:1"
       d="m 20.028254,275.85245 c 0,0 0.252696,1.641 -0.489449,1.85478 -0.742145,0.2138 -1.983585,-1.85478 -1.983585,-1.85478"
       id="path4619"
       inkscape:connector-curvature="0"
       sodipodi:nodetypes="czc" />
    <path
       style="fill:#00ffff;stroke:#000000;stroke-width:0.28852156px;stroke-linecap:butt;stroke-linejoin:miter;stroke-opacity:1"
       d="m 18.843256,274.46136 c 0,0 0.252696,1.641 -0.489448,1.85479 -0.742145,0.21379 -1.983586,-1.85479 -1.983586,-1.85479"
       id="path4637"
       inkscape:connector-curvature="0"
       sodipodi:nodetypes="czc" />
    <path
       style="fill:#00ffff;stroke:#000000;stroke-width:0.28852156px;stroke-linecap:butt;stroke-linejoin:miter;stroke-opacity:1"
       d="m 17.658258,273.01875 c 0,0 0.252696,1.641 -0.489449,1.85479 -0.742144,0.21379 -1.983585,-1.85479 -1.983585,-1.85479"
       id="path4655"
       inkscape:connector-curvature="0"
       sodipodi:nodetypes="czc" />
    <path
       style="fill:#00ffff;stroke:#000000;stroke-width:0.28852156px;stroke-linecap:butt;stroke-linejoin:miter;stroke-opacity:1"
       d="m 6.894702,272.73412 a 12.688141,12.688141 0 0 0 -1.5795742,1.05024 c 1.148433,-0.0222 2.4749697,-0.14069 1.5795742,-1.05024 z m -1.94188,1.36645 a 12.688141,12.688141 0 0 0 -1.0665968,1.02744 c 0.089354,0.10783 0.1828105,0.21357 0.2785443,0.31225 H 3.5952899 a 12.688141,12.688141 0 0 0 -0.7211422,0.92138 c 0.1301455,0.1635 0.268338,0.32513 0.4138515,0.46985 h -0.698839 c 0.00942,-0.0305 0.016566,-0.0624 0.024286,-0.0942 a 12.688141,12.688141 0 0 0 -0.5912872,0.97937 c 0.418427,0.5323 0.9622424,1.08532 1.3644709,0.96945 0.4930624,-0.14203 0.5456892,-0.90737 0.5263593,-1.40957 0.1049713,0.0361 0.2051061,0.0451 0.2978742,0.0183 0.4915368,-0.14159 0.5451738,-0.9028 0.5263594,-1.40511 0.1419592,0.0696 0.2788965,0.10122 0.4014608,0.0659 0.7421446,-0.21379 0.4891872,-1.85515 0.4891872,-1.85515 z"
       id="path4684"
       inkscape:connector-curvature="0" />
    <path
       style="fill:#00ffff;stroke:#000000;stroke-width:0.28852156px;stroke-linecap:butt;stroke-linejoin:miter;stroke-opacity:1"
       d="m 22.101836,277.00406 c 0,0 1.758456,1.7463 1.847799,2.51342 0.259598,2.22955 -0.93361,0.41741 -1.856501,-0.5116"
       id="path4703"
       inkscape:connector-curvature="0"
       sodipodi:nodetypes="csc" />
    <path
       style="fill:#00ffff;stroke:#000000;stroke-width:0.28852156px;stroke-linecap:butt;stroke-linejoin:miter;stroke-opacity:1"
       d="m 20.972463,275.72897 c 0,0 1.758457,1.7463 1.8478,2.51341 0.259598,2.22956 -0.842523,0.45385 -1.765415,-0.47517"
       id="path4705"
       inkscape:connector-curvature="0"
       sodipodi:nodetypes="csc" />
    <path
       style="fill:#00ffff;stroke:#000000;stroke-width:0.28852156px;stroke-linecap:butt;stroke-linejoin:miter;stroke-opacity:1"
       d="m 19.952378,274.59959 c 0,0 1.758457,1.74631 1.847799,2.51343 0.259599,2.22955 -0.878955,0.36276 -1.801846,-0.56626"
       id="path4707"
       inkscape:connector-curvature="0"
       sodipodi:nodetypes="csc" />
    <path
       style="fill:#00ffff;stroke:#000000;stroke-width:0.28852156px;stroke-linecap:butt;stroke-linejoin:miter;stroke-opacity:1"
       d="m 18.932304,273.32448 c 0,0 1.758457,1.74631 1.8478,2.51343 0.259598,2.22955 -0.988255,0.5085 -1.911146,-0.42052"
       id="path4709"
       inkscape:connector-curvature="0"
       sodipodi:nodetypes="csc" />
    <path
       sodipodi:nodetypes="csc"
       inkscape:connector-curvature="0"
       id="path4674-6"
       d="m 18.021518,272.12226 c 0,0 1.758456,1.7463 1.847799,2.51342 0.259598,2.22955 -1.243273,0.69065 -2.166163,-0.23836"
       style="fill:#00ffff;stroke:#000000;stroke-width:0.28852156px;stroke-linecap:butt;stroke-linejoin:miter;stroke-opacity:1" />
    <path
       sodipodi:nodetypes="csc"
       inkscape:connector-curvature="0"
       id="path4674"
       d="m 14.763406,271.93834 c 0,0 2.477931,-0.0401 3.089589,0.43138 1.777683,1.37046 -0.373324,1.37235 -1.682766,1.38468"
       style="fill:#00ffff;stroke:#000000;stroke-width:0.28852156px;stroke-linecap:butt;stroke-linejoin:miter;stroke-opacity:1" />
    <path
       sodipodi:nodetypes="csc"
       inkscape:connector-curvature="0"
       id="path4676"
       d="m 12.796113,271.97478 c 0,0 2.477931,-0.0401 3.089589,0.43137 1.777682,1.37045 -0.373324,1.37235 -1.682767,1.38469"
       style="fill:#00ffff;stroke:#000000;stroke-width:0.28852156px;stroke-linecap:butt;stroke-linejoin:miter;stroke-opacity:1" />
    <path
       sodipodi:nodetypes="csc"
       inkscape:connector-curvature="0"
       id="path4678"
       d="m 10.173052,271.9019 c 0,0 2.47793,-0.0401 3.089589,0.43139 1.777681,1.37045 -0.373325,1.37235 -1.682768,1.38468"
       style="fill:#00ffff;stroke:#000000;stroke-width:0.28852156px;stroke-linecap:butt;stroke-linejoin:miter;stroke-opacity:1" />
    <path
       sodipodi:nodetypes="csc"
       inkscape:connector-curvature="0"
       id="path4680"
       d="m 8.6832928,271.98654 c 0.7802204,0.0293 1.9001032,0.12357 2.2841702,0.41961 1.777786,1.37032 -0.373325,1.37235 -1.6827672,1.38469"
       style="fill:#00ffff;stroke:#000000;stroke-width:0.28852156px;stroke-linecap:butt;stroke-linejoin:miter;stroke-opacity:1" />
    <path
       sodipodi:nodetypes="csc"
       inkscape:connector-curvature="0"
       id="path4682"
       d="m 7.9438385,272.19384 c 0.2809686,0.0608 0.5165199,0.14155 0.6555917,0.24875 1.7777738,1.37034 -0.3733241,1.37235 -1.6827668,1.38468"
       style="fill:#00ffff;stroke:#000000;stroke-width:0.28852156px;stroke-linecap:butt;stroke-linejoin:miter;stroke-opacity:1" />
    <rect
       y="284.98798"
       x="6.2916937"
       height="2.6115425"
       width="7.2806649"
       id="rect4807"
       style="opacity:1;vector-effect:none;fill:#00ff00;fill-opacity:1;fill-rule:nonzero;stroke:#000000;stroke-width:0.38943198;stroke-linecap:butt;stroke-linejoin:miter;stroke-miterlimit:4;stroke-dasharray:none;stroke-dashoffset:0;stroke-opacity:1" />
    <rect
       y="287.87653"
       x="6.2916937"
       height="2.6115425"
       width="7.2806649"
       id="rect4815"
       style="opacity:1;vector-effect:none;fill:#00ffff;fill-opacity:1;fill-rule:nonzero;stroke:#000000;stroke-width:0.38943198;stroke-linecap:butt;stroke-linejoin:miter;stroke-miterlimit:4;stroke-dasharray:none;stroke-dashoffset:0;stroke-opacity:1" />
    <rect
       style="opacity:1;vector-effect:none;fill:#ff0000;fill-opacity:1;fill-rule:nonzero;stroke:#000000;stroke-width:0.38943198;stroke-linecap:butt;stroke-linejoin:miter;stroke-miterlimit:4;stroke-dasharray:none;stroke-dashoffset:0;stroke-opacity:1"
       id="rect4781"
       width="7.2806649"
       height="2.6115425"
       x="6.2916937"
       y="290.72546" />
    <rect
       y="287.12473"
       x="8.863658"
       height="0.3956846"
       width="2.2752063"
       id="rect4809"
       style="opacity:1;vector-effect:none;fill:#000000;fill-opacity:1;fill-rule:nonzero;stroke:none;stroke-width:0.38943198;stroke-linecap:butt;stroke-linejoin:miter;stroke-miterlimit:4;stroke-dasharray:none;stroke-dashoffset:0;stroke-opacity:1" />
    <rect
       y="290.01321"
       x="8.863658"
       height="0.3956846"
       width="2.2752063"
       id="rect4817"
       style="opacity:1;vector-effect:none;fill:#000000;fill-opacity:1;fill-rule:nonzero;stroke:none;stroke-width:0.38943198;stroke-linecap:butt;stroke-linejoin:miter;stroke-miterlimit:4;stroke-dasharray:none;stroke-dashoffset:0;stroke-opacity:1" />
    <rect
       style="opacity:1;vector-effect:none;fill:#000000;fill-opacity:1;fill-rule:nonzero;stroke:none;stroke-width:0.38943198;stroke-linecap:butt;stroke-linejoin:miter;stroke-miterlimit:4;stroke-dasharray:none;stroke-dashoffset:0;stroke-opacity:1"
       id="rect4783"
       width="2.2752063"
       height="0.3956846"
       x="8.863658"
       y="292.86221" />
    <rect
       y="282.21817"
       x="13.651482"
       height="2.6115425"
       width="7.2806649"
       id="rect4803"
       style="opacity:1;vector-effect:none;fill:#00ff00;fill-opacity:1;fill-rule:nonzero;stroke:#000000;stroke-width:0.38943198;stroke-linecap:butt;stroke-linejoin:miter;stroke-miterlimit:4;stroke-dasharray:none;stroke-dashoffset:0;stroke-opacity:1" />
    <rect
       y="284.98798"
       x="13.651482"
       height="2.6115425"
       width="7.2806649"
       id="rect4811"
       style="opacity:1;vector-effect:none;fill:#ff0000;fill-opacity:1;fill-rule:nonzero;stroke:#000000;stroke-width:0.38943198;stroke-linecap:butt;stroke-linejoin:miter;stroke-miterlimit:4;stroke-dasharray:none;stroke-dashoffset:0;stroke-opacity:1" />
    <rect
       y="287.87653"
       x="13.651482"
       height="2.6115425"
       width="7.2806649"
       id="rect4819"
       style="opacity:1;vector-effect:none;fill:#000000;fill-opacity:1;fill-rule:nonzero;stroke:#000000;stroke-width:0.38943198;stroke-linecap:butt;stroke-linejoin:miter;stroke-miterlimit:4;stroke-dasharray:none;stroke-dashoffset:0;stroke-opacity:1" />
    <rect
       style="opacity:1;vector-effect:none;fill:#00ffff;fill-opacity:1;fill-rule:nonzero;stroke:#000000;stroke-width:0.38943198;stroke-linecap:butt;stroke-linejoin:miter;stroke-miterlimit:4;stroke-dasharray:none;stroke-dashoffset:0;stroke-opacity:1"
       id="rect4781-8"
       width="7.2806649"
       height="2.6115425"
       x="13.651482"
       y="290.72546" />
    <rect
       y="284.35489"
       x="16.223442"
       height="0.3956846"
       width="2.2752063"
       id="rect4805"
       style="opacity:1;vector-effect:none;fill:#000000;fill-opacity:1;fill-rule:nonzero;stroke:none;stroke-width:0.38943198;stroke-linecap:butt;stroke-linejoin:miter;stroke-miterlimit:4;stroke-dasharray:none;stroke-dashoffset:0;stroke-opacity:1" />
    <rect
       y="287.12473"
       x="16.223442"
       height="0.3956846"
       width="2.2752063"
       id="rect4813"
       style="opacity:1;vector-effect:none;fill:#000000;fill-opacity:1;fill-rule:nonzero;stroke:none;stroke-width:0.38943198;stroke-linecap:butt;stroke-linejoin:miter;stroke-miterlimit:4;stroke-dasharray:none;stroke-dashoffset:0;stroke-opacity:1" />
    <rect
       y="290.01321"
       x="16.223442"
       height="0.3956846"
       width="2.2752063"
       id="rect4821"
       style="opacity:1;vector-effect:none;fill:#000000;fill-opacity:1;fill-rule:nonzero;stroke:none;stroke-width:0.38943198;stroke-linecap:butt;stroke-linejoin:miter;stroke-miterlimit:4;stroke-dasharray:none;stroke-dashoffset:0;stroke-opacity:1" />
    <rect
       style="opacity:1;vector-effect:none;fill:#000000;fill-opacity:1;fill-rule:nonzero;stroke:none;stroke-width:0.38943198;stroke-linecap:butt;stroke-linejoin:miter;stroke-miterlimit:4;stroke-dasharray:none;stroke-dashoffset:0;stroke-opacity:1"
       id="rect4783-5"
       width="2.2752063"
       height="0.3956846"
       x="16.223442"
       y="292.86221" />
    <rect
       y="282.17856"
       x="6.2916937"
       height="2.6115425"
       width="7.2806649"
       id="rect4807-0"
       style="opacity:1;vector-effect:none;fill:#ff0000;fill-opacity:1;fill-rule:nonzero;stroke:#000000;stroke-width:0.38943198;stroke-linecap:butt;stroke-linejoin:miter;stroke-miterlimit:4;stroke-dasharray:none;stroke-dashoffset:0;stroke-opacity:1" />
    <rect
       y="284.31531"
       x="8.863658"
       height="0.3956846"
       width="2.2752063"
       id="rect4809-1"
       style="opacity:1;vector-effect:none;fill:#000000;fill-opacity:1;fill-rule:nonzero;stroke:none;stroke-width:0.38943198;stroke-linecap:butt;stroke-linejoin:miter;stroke-miterlimit:4;stroke-dasharray:none;stroke-dashoffset:0;stroke-opacity:1" />
    <path
       style="fill:#00ff00;fill-opacity:1;stroke:#000000;stroke-width:0.25376278px;stroke-linecap:butt;stroke-linejoin:miter;stroke-opacity:1"
       d="m 1.5978992,278.59445 a 12.688141,12.688141 0 0 0 -1.09683025,5.1382 12.688141,12.688141 0 0 0 4.79869425,9.92054 l -0.085744,-11.37075 z"
       id="path4841"
       inkscape:connector-curvature="0" />
    <rect
       y="286.90469"
       x="0.90890205"
       height="0.31720349"
       width="4.712738"
       id="rect4947"
       style="opacity:1;vector-effect:none;fill:#000000;fill-opacity:1;fill-rule:nonzero;stroke:none;stroke-width:0.44598311;stroke-linecap:butt;stroke-linejoin:miter;stroke-miterlimit:4;stroke-dasharray:none;stroke-dashoffset:0;stroke-opacity:1" />
    <rect
       style="opacity:1;vector-effect:none;fill:#000000;fill-opacity:1;fill-rule:nonzero;stroke:none;stroke-width:0.44598311;stroke-linecap:butt;stroke-linejoin:miter;stroke-miterlimit:4;stroke-dasharray:none;stroke-dashoffset:0;stroke-opacity:1"
       id="rect4945"
       width="4.712738"
       height="0.31720349"
       x="0.41043937"
       y="283.37012" />
    <rect
       style="opacity:1;vector-effect:none;fill:#ff0000;fill-opacity:1;fill-rule:nonzero;stroke:none;stroke-width:0.69749993;stroke-linecap:butt;stroke-linejoin:miter;stroke-miterlimit:4;stroke-dasharray:none;stroke-dashoffset:0;stroke-opacity:1"
       id="rect5106"
       width="0.85044646"
       height="9.260417"
       x="21.828125"
       y="282.6369" />
  </g>
</svg>
