<svg id="Capa_2" xmlns="http://www.w3.org/2000/svg" xmlns:xlink="http://www.w3.org/1999/xlink" viewBox="0 0 69.02 80">
<defs >
<style >
.cls-1{fill:#c89aed;}.cls-2{fill:#fff;}.cls-3{fill:#f8ffbf;}.cls-4{fill:#7b7be8;}.cls-5,.cls-6,.cls-7{stroke:#000;}.cls-5,.cls-6,.cls-7,.cls-8,.cls-9,.cls-10{fill:none;}.cls-5,.cls-8{stroke-linejoin:round;}.cls-11{fill:#a88347;}.cls-12{fill:#782ab5;}.cls-6,.cls-7{stroke-miterlimit:10;}.cls-7,.cls-8{stroke-linecap:round;}.cls-13{fill:#1c46ff;}.cls-8{stroke:#deb778;stroke-dasharray:0 0 0 4.06;}.cls-14{fill:url(#USGS_19_Inundación_de_tierra);}.cls-15{fill:#deb778;}.cls-10{stroke:#1d1d1b;stroke-dasharray:0 0 2 2;stroke-width:.3px;}.cls-16{fill:#fcf0c5;}
</style>
<pattern id="USGS_19_Inundación_de_tierra" x="0" y="0" width="72" height="72" patternTransform="translate(-236.48 -16063) rotate(-90)" patternUnits="userSpaceOnUse" viewBox="0 0 72 72">
<g >
<rect class="cls-9" width="72" height="72">
</rect>
<g >
<line class="cls-10" x1="71" y1="71" x2="144.44" y2="71">
</line>
<line class="cls-10" x1="71" y1="67" x2="144.44" y2="67">
</line>
<line class="cls-10" x1="71" y1="63" x2="144.44" y2="63">
</line>
<line class="cls-10" x1="71" y1="59" x2="144.44" y2="59">
</line>
<line class="cls-10" x1="71" y1="55" x2="144.44" y2="55">
</line>
<line class="cls-10" x1="71" y1="51" x2="144.44" y2="51">
</line>
<line class="cls-10" x1="71" y1="47" x2="144.44" y2="47">
</line>
<line class="cls-10" x1="71" y1="43" x2="144.44" y2="43">
</line>
<line class="cls-10" x1="71" y1="39" x2="144.44" y2="39">
</line>
<line class="cls-10" x1="71" y1="35" x2="144.44" y2="35">
</line>
<line class="cls-10" x1="71" y1="31" x2="144.44" y2="31">
</line>
<line class="cls-10" x1="71" y1="27" x2="144.44" y2="27">
</line>
<line class="cls-10" x1="71" y1="23" x2="144.44" y2="23">
</line>
<line class="cls-10" x1="71" y1="19" x2="144.44" y2="19">
</line>
<line class="cls-10" x1="71" y1="15" x2="144.44" y2="15">
</line>
<line class="cls-10" x1="71" y1="11" x2="144.44" y2="11">
</line>
<line class="cls-10" x1="71" y1="7" x2="144.44" y2="7">
</line>
<line class="cls-10" x1="71" y1="3" x2="144.44" y2="3">
</line>
</g>
<g >
<line class="cls-10" x1="-1" y1="71" x2="72.44" y2="71">
</line>
<line class="cls-10" x1="-1" y1="67" x2="72.44" y2="67">
</line>
<line class="cls-10" x1="-1" y1="63" x2="72.44" y2="63">
</line>
<line class="cls-10" x1="-1" y1="59" x2="72.44" y2="59">
</line>
<line class="cls-10" x1="-1" y1="55" x2="72.44" y2="55">
</line>
<line class="cls-10" x1="-1" y1="51" x2="72.44" y2="51">
</line>
<line class="cls-10" x1="-1" y1="47" x2="72.44" y2="47">
</line>
<line class="cls-10" x1="-1" y1="43" x2="72.44" y2="43">
</line>
<line class="cls-10" x1="-1" y1="39" x2="72.44" y2="39">
</line>
<line class="cls-10" x1="-1" y1="35" x2="72.44" y2="35">
</line>
<line class="cls-10" x1="-1" y1="31" x2="72.44" y2="31">
</line>
<line class="cls-10" x1="-1" y1="27" x2="72.44" y2="27">
</line>
<line class="cls-10" x1="-1" y1="23" x2="72.44" y2="23">
</line>
<line class="cls-10" x1="-1" y1="19" x2="72.44" y2="19">
</line>
<line class="cls-10" x1="-1" y1="15" x2="72.44" y2="15">
</line>
<line class="cls-10" x1="-1" y1="11" x2="72.44" y2="11">
</line>
<line class="cls-10" x1="-1" y1="7" x2="72.44" y2="7">
</line>
<line class="cls-10" x1="-1" y1="3" x2="72.44" y2="3">
</line>
<line class="cls-10" x1="1.04" y1="69" x2="74.48" y2="69">
</line>
<line class="cls-10" x1="1.04" y1="65" x2="74.48" y2="65">
</line>
<line class="cls-10" x1="1.04" y1="61" x2="74.48" y2="61">
</line>
<line class="cls-10" x1="1.04" y1="57" x2="74.48" y2="57">
</line>
<line class="cls-10" x1="1.04" y1="53" x2="74.48" y2="53">
</line>
<line class="cls-10" x1="1.04" y1="49" x2="74.48" y2="49">
</line>
<line class="cls-10" x1="1.04" y1="45" x2="74.48" y2="45">
</line>
<line class="cls-10" x1="1.04" y1="41" x2="74.48" y2="41">
</line>
<line class="cls-10" x1="1.04" y1="37" x2="74.48" y2="37">
</line>
<line class="cls-10" x1="1.04" y1="33" x2="74.48" y2="33">
</line>
<line class="cls-10" x1="1.04" y1="29" x2="74.48" y2="29">
</line>
<line class="cls-10" x1="1.04" y1="25" x2="74.48" y2="25">
</line>
<line class="cls-10" x1="1.04" y1="21" x2="74.48" y2="21">
</line>
<line class="cls-10" x1="1.04" y1="17" x2="74.48" y2="17">
</line>
<line class="cls-10" x1="1.04" y1="13" x2="74.48" y2="13">
</line>
<line class="cls-10" x1="1.04" y1="9" x2="74.48" y2="9">
</line>
<line class="cls-10" x1="1.04" y1="5" x2="74.48" y2="5">
</line>
<line class="cls-10" x1="1.04" y1="1" x2="74.48" y2="1">
</line>
</g>
<g >
<line class="cls-10" x1="-73" y1="71" x2=".44" y2="71">
</line>
<line class="cls-10" x1="-73" y1="67" x2=".44" y2="67">
</line>
<line class="cls-10" x1="-73" y1="63" x2=".44" y2="63">
</line>
<line class="cls-10" x1="-73" y1="59" x2=".44" y2="59">
</line>
<line class="cls-10" x1="-73" y1="55" x2=".44" y2="55">
</line>
<line class="cls-10" x1="-73" y1="51" x2=".44" y2="51">
</line>
<line class="cls-10" x1="-73" y1="47" x2=".44" y2="47">
</line>
<line class="cls-10" x1="-73" y1="43" x2=".44" y2="43">
</line>
<line class="cls-10" x1="-73" y1="39" x2=".44" y2="39">
</line>
<line class="cls-10" x1="-73" y1="35" x2=".44" y2="35">
</line>
<line class="cls-10" x1="-73" y1="31" x2=".44" y2="31">
</line>
<line class="cls-10" x1="-73" y1="27" x2=".44" y2="27">
</line>
<line class="cls-10" x1="-73" y1="23" x2=".44" y2="23">
</line>
<line class="cls-10" x1="-73" y1="19" x2=".44" y2="19">
</line>
<line class="cls-10" x1="-73" y1="15" x2=".44" y2="15">
</line>
<line class="cls-10" x1="-73" y1="11" x2=".44" y2="11">
</line>
<line class="cls-10" x1="-73" y1="7" x2=".44" y2="7">
</line>
<line class="cls-10" x1="-73" y1="3" x2=".44" y2="3">
</line>
<line class="cls-10" x1="-70.96" y1="69" x2="2.48" y2="69">
</line>
<line class="cls-10" x1="-70.96" y1="65" x2="2.48" y2="65">
</line>
<line class="cls-10" x1="-70.96" y1="61" x2="2.48" y2="61">
</line>
<line class="cls-10" x1="-70.96" y1="57" x2="2.48" y2="57">
</line>
<line class="cls-10" x1="-70.96" y1="53" x2="2.48" y2="53">
</line>
<line class="cls-10" x1="-70.96" y1="49" x2="2.48" y2="49">
</line>
<line class="cls-10" x1="-70.96" y1="45" x2="2.48" y2="45">
</line>
<line class="cls-10" x1="-70.96" y1="41" x2="2.48" y2="41">
</line>
<line class="cls-10" x1="-70.96" y1="37" x2="2.48" y2="37">
</line>
<line class="cls-10" x1="-70.96" y1="33" x2="2.48" y2="33">
</line>
<line class="cls-10" x1="-70.96" y1="29" x2="2.48" y2="29">
</line>
<line class="cls-10" x1="-70.96" y1="25" x2="2.48" y2="25">
</line>
<line class="cls-10" x1="-70.96" y1="21" x2="2.48" y2="21">
</line>
<line class="cls-10" x1="-70.96" y1="17" x2="2.48" y2="17">
</line>
<line class="cls-10" x1="-70.96" y1="13" x2="2.48" y2="13">
</line>
<line class="cls-10" x1="-70.96" y1="9" x2="2.48" y2="9">
</line>
<line class="cls-10" x1="-70.96" y1="5" x2="2.48" y2="5">
</line>
<line class="cls-10" x1="-70.96" y1="1" x2="2.48" y2="1">
</line>
</g>
</g>
</pattern>
</defs>

  <path
     id="path7641-4"
     style="fill:#782ab5;fill-opacity:1;stroke:#4d4d4d;stroke-width:1.62226;stop-color:#000000"
     d="M 34.900259,1.6936052 C 14.323312,9.5265586 1.6299002,23.954051 1.5689773,39.580572 V 79.197446 H 67.963672 V 39.580572 C 67.958188,23.990066 55.374427,9.5708664 34.900259,1.6936052 Z"/>
  <path
     id="path7641-7"
     style="fill:#808080;stroke:#4d4d4d;stroke-width:1.48325;stop-color:#000000"
     d="M 34.629293,5.0425238 C 15.815619,12.204258 4.1542243,25.395327 4.1542243,39.682894 V 76.559207 H 64.859448 V 39.682894 c 0,-14.254531 -11.510452,-27.438125 -30.230155,-34.6403702 z m -0.01233,3.4358455 C 51.537073,14.988239 61.941622,26.904418 61.941622,39.788613 v 33.82806 H 7.07205 v -33.82806 c 0,-12.914055 10.539857,-24.836991 27.544909,-31.3102437 z"/>
  <path
     id="path7641-7-8"
     style="fill:#808080;stroke:#4d4d4d;stroke-width:1.35027;stop-color:#000000"
     d="M 34.618314,8.2461803 C 17.491429,14.76581 6.8755673,26.7742 6.8755673,39.780777 v 33.57007 H 62.138105 v -33.57007 c 0,-12.976504 -10.478452,-24.978088 -27.519791,-31.5345967 z m -0.01123,3.1277957 c 15.403093,5.926211 24.874795,16.774013 24.874795,28.503041 V 70.672134 H 9.5317874 V 39.877017 c 0,-11.75621 9.5948786,-22.610165 25.0752986,-28.503041 z"/>
  <path
     id="path7641-7-8-0"
     style="fill:#808080;stroke:#4d4d4d;stroke-width:1.21411;stop-color:#000000"
     d="M 34.607073,11.526302 C 19.207238,17.388502 9.6618637,28.185984 9.6618637,39.880997 V 70.06591 H 59.351809 V 39.880997 c 0,-11.667973 -9.421821,-22.459335 -24.744736,-28.354695 z m -0.0101,2.812393 c 13.849868,5.328621 22.366458,15.082547 22.366458,25.628837 V 67.657315 H 12.050234 V 39.967532 c 0,-10.570731 8.627346,-20.33019 22.546743,-25.628837 z"/>


<g id="Characters">
<g >
<path d="M25.32,52.34s-3.05,2.51-3.95,6.82c-4.4-7.72-9.06-14.09-6.28-22.97-2.42,1.79-3.32,4.49-3.32,4.49,0,0-3.41-6.73,1.26-13.55s7.9-8.71,7.9-8.71l-7.81,.63s4.76-6.73,12.03-8.44,13.55,1.35,16.87,5.38c-1.08-5.21-3.5-7.45-3.5-7.45,0,0,10.05,1.53,10.32,8.35,7,1.79,8.35,7.54,9.51,8.71-2.96-.45-4.58-1.97-4.58-1.97,0,0,1.26,4.13,4.58,9.6,2.24,7.99-1.35,14.18-1.35,14.18l-.72-3.77s-4.31,11.76-14.9,15.17c-.27-2.33-.27-3.41-.27-3.41,0,0,4.94-8.44,4.49-12.74s.27-13.82,.27-13.82c0,0-2.96-4.58-3.05-5.38-3.32,6.91-6.1,7.72-10.14,8.17,4.58-2.96,5.38-6.19,5.29-7.9-5.47,5.65-7.9,7.99-14.63,9.51-1.88,8.35,.09,15.08,1.97,19.12Z">
</path>
<path class="cls-13" d="M54.34,26.52s-2.63-4.64-7.26-7.74c.54,5.36-5.99,5.16-13.35,.83-7.35-4.33-14.98-.72-17.25,2.17,6.45-1.96,8.81-5.78,18.88,1.55,10.08,7.32,18.97,3.2,18.97,3.2Z">
</path>
<path class="cls-1" d="M42.82,23.44s-.49,6.59-11.05,8.37c6.13-1.93,6.2-8.1,6.2-8.1,0,0-5.15,7.29-14.34,9.47-2.02,8.14-.56,13.54,.24,15.56s3.63,7.09,3.63,7.09c0,0-.24,5.32-1.61,7.33,3.47,4.43,6.61,3.95,6.61,3.95l1.85,4.43,1.37-4.43s5.56-1.05,6.69-4.11c-1.77-4.35-1.3-7.61-1.3-7.61,0,0,4.68-8.59,4.68-13.11v-13.86l-2.98-4.98Z">
</path>
<path class="cls-2" d="M34.11,57v-14.36c0-5.56,2.34-10.8,6.28-14.72,1.02-1.02,1.99-2.29,2.73-3.88,1.73,3.45,2.4,4.03,2.4,4.03v16.87s-3.16,9.47-7.76,14.27c-.02,.01-.04,.02-.06,.03-1.63,.85-3.58-.39-3.58-2.23Z">
</path>
<path class="cls-4" d="M31.32,41.24l1.08-3.02-4.89-2.2s-2.69,.04-3.55,.32c-.71,2.52-.43,4.04-.43,4.04,0,0,2.84-1.56,4.75-1.1s2.95,.83,3.03,1.96Z">
</path>
<path class="cls-3" d="M31.57,41.15s-.24-1.77-3.48-1.95-4.03,1.16-4.03,1.16c0,0,3.48,1.77,7.51,.79Z">
</path>
<path class="cls-3" d="M44.44,40.25s-1.59-1.19-4.12-1.04-3.57,1.29-3.52,2.03c2.83,.5,6.2,.35,7.64-.99Z">
</path>
<path d="M32.5,67.11s-4.38-.51-6.61-3.95c-6.7,4.7-13.27,8.38-13.27,8.38,0,0,11.43,4.07,22.86,3.68s21.42-2.63,21.42-2.63l-14.49-9.59s-2.51,2.7-6.69,4.11c-1.29,3.25-1.81,4.83-1.81,4.83l-1.41-4.83Z">
</path>
<path class="cls-11" d="M42.35,64.6s-1.83,1.55-5.11,3.2c1.37,4.47,2.19,7.4,2.19,7.4l15.52-2.74-12.6-7.85Z">
</path>
<path class="cls-11" d="M25.13,64.43c-.85,1.94-2.59,2.64-4.22,3.66-1.61,.93-3.29,1.76-5.06,2.36,0,0-.05-.08-.05-.08l4.62-3.04c1.53-1.02,3.09-2.01,4.66-2.98,0,0,.05,.08,.05,.08h0Z">
</path>
<path class="cls-13" d="M16.65,37.07c-.56,3.19-.89,6.63,.42,9.65,1.1,2.09,2.45,4.64,3.4,6.86,.31,.81,.66,1.6,.93,2.44,0,0-.09,.05-.09,.05-1.51-2.66-3.73-6.27-5.15-8.93-1.3-3.11-.98-7.27,.49-10.06h0Z">
</path>
<path class="cls-13" d="M12.42,37.32c-1.64-4.97,.98-10.83,5.29-13.58,0,0,.07,.07,.07,.07-3.46,3.59-5.43,8.71-5.36,13.51h0Z">
</path>
<path class="cls-4" d="M36.8,41.24l-1.08-3.02,4.89-2.2s2.69,.04,3.55,.32c.71,2.52,.43,4.04,.43,4.04,0,0-2.84-1.56-4.75-1.1s-2.95,.83-3.03,1.96Z">
</path>
<path d="M38.27,59.64l-6.26,7.4s-3.84,.07-5.83-4.48c.78-1.57,1.07-7.04,1.07-7.04l3.49,4.2s3.7,1.21,7.54-.07Z">
</path>
<path class="cls-1" d="M42.88,26.84c.34,.62,.7,1.21,1.1,1.77,0,.05,0,.1,0,.15,.2,2.62,.68,13.27-.58,17.58-1.02,3.49-3.48,8.69-6.26,12.02-.84,.3-1.74,.46-2.65,.46-1.21,0-2.28-.26-3.21-.52-3.13-3.54-5.58-8.65-6.54-11.95-1.19-4.07-.44-10.22-.16-12.09,.61-.22,1.22-.39,1.82-.5h.04s.04-.02,.04-.02c.2-.05,.39-.11,.59-.17l2.37-.17,2.51-.18c4.36-.23,8.53-2.72,10.93-6.38m.07-2.19c-1.94,4.28-6.35,7.32-11.05,7.57l-2.53,.18,2.29-1.13c2.31-1.21,4.4-3.3,5.48-5.76-.86,1.01-1.84,1.9-2.84,2.75-2.4,1.93-5.06,3.7-8.07,4.51-.88,.16-1.73,.42-2.55,.76v.04c-.01,.08-1.38,7.95,.11,13.05,1.02,3.49,3.63,8.89,6.95,12.55,.95,.28,2.26,.64,3.76,.64,1.01,0,2.1-.16,3.25-.61,2.94-3.42,5.55-8.9,6.62-12.58,1.5-5.13,.63-17.82,.62-17.94-.01-.11,.03-.2,.08-.29-.87-1.15-1.58-2.42-2.12-3.74h0Z">
</path>
<path class="cls-2" d="M35.02,64.8l4.67-5.03,.95,2.7s-1.17,2.26-5.61,2.33Z">
</path>
<path class="cls-7" d="M25.37,52.37c-.44,0-3.27,2.51-3.92,6.97-.33-1.74-3.38-5.99-4.58-8.39s-3.7-5.12-1.42-14.93c-3.7,1.09-3.49,5.78-3.49,5.78,0,0-2.4-5.34-.65-11.33,1.74-5.88,9.48-12.2,9.48-12.2,0,0-3.49-.11-8.06,1.09,15.36-18.63,29.31-3.49,29.31-3.49,0,0-1.2-5.34-4.47-7.63,7.85,2.18,11.22,4.14,11.11,8.83,7.08,1.09,8.06,6.97,9.48,8.39-3.27-.65-4.9-2.4-4.9-2.4,0,0,2.51,7.19,5.01,10.03,2.51,5.88-1.53,14.93-1.53,14.93,0,0-.11-3.16-.76-5.12-1.5,5.04-3.74,11.03-14.73,16">
</path>
<path d="M19.04,37.48c.63-1.95,2.16-3.59,4-4.6,1.83-1.01,3.84-1.15,5.65-2.15,3.45-1.76,6.9-4.24,9.14-7.4,0,0,.84-1.25,.84-1.25-.06,4.32-2.86,8.08-6.58,10.08,0,0-.24-.95-.24-.95,1.16-.08,2.31-.29,3.41-.68,3.63-1.36,6.62-4.54,7.68-8.26,1.34,4,3.8,7.95,7.91,9.46,0,0,.02,0,.02,0l-.45,.71c-1.67-1.92-3.24-4.24-3.36-6.85,.52,3.27,3.24,5.61,5.58,7.71,0,0-2.06-.76-2.06-.76-4.01-1.33-6.69-5.05-8.02-8.9,0,0,.8-.03,.8-.03-1.67,4.81-6.4,8.33-11.47,8.59,0,0-2.53,.19-2.53,.19l2.29-1.14c2.93-1.53,5.54-4.48,6.13-7.8,0,0,.71,.22,.68,.23-1.09,1.85-2.62,3.23-4.18,4.56-2.39,1.93-5.05,3.7-8.07,4.5-2.91,.54-5.65,2.03-7.18,4.71h0Z">
</path>
<path class="cls-7" d="M23.19,33.48s-1.42,8,.12,13.28c1.16,3.96,3.97,9.39,7.16,12.85,1.81,.53,4.52,1.26,7.58,0,3.04-3.49,5.69-9.04,6.8-12.85,1.54-5.28,.64-18.12,.64-18.12">
</path>
<path d="M24.26,36.31c1.04-.51,2.15-.93,3.35-.89,1.92,.3,3.61,1.21,5.28,2.13,0,0-.45,.89-.45,.89-1.36-.55-2.69-1.2-4.01-1.75-1.12-.61-2.95-.36-4.17-.39h0Z">
</path>
<path d="M44.02,36.31c-1.23,.03-3.05-.22-4.17,.39-1.32,.56-2.65,1.21-4.01,1.75l-.45-.89c1.68-.92,3.36-1.83,5.28-2.13,1.2-.04,2.3,.37,3.35,.89h0Z">
</path>
<path d="M31.03,40.3c-2.32-1.08-4.76-.77-6.99,.26,0,0,.08-.54,.08-.54,1.86,1.57,4.8,1.35,7.1,1.04,.23-.06,.38,.26,.18,.39-1.48,1.04-3.62,2.33-5.37,1.16,1.78,1,3.73-.39,5.09-1.51,0,0,.18,.39,.18,.39-1.93,.37-3.92,.38-5.84-.07-.64-.17-1.29-.42-1.85-.93-.13-.12-.14-.33-.02-.46,.57-.41,1.21-.73,1.88-.94,1.86-.63,4.2-.3,5.55,1.21h0Z">
</path>
<path d="M37.21,40.3c1.87-2.06,5.23-1.84,7.37-.32,.15,.1,.2,.3,.1,.45-1.06,1.02-2.5,1.15-3.86,1.3-1.3,.09-2.61,.03-3.89-.23,0,0,.18-.39,.18-.39,1.36,1.12,3.31,2.52,5.09,1.51-1.75,1.16-3.89-.12-5.37-1.16-.2-.13-.04-.45,.18-.39,2.29,.31,5.24,.53,7.1-1.04,0,0,.08,.54,.08,.54-2.23-1.03-4.67-1.35-6.99-.26h0Z">
</path>
<path d="M35.03,39.69c.26,2.97,.8,6,2.11,8.67,.08,.15,.06,.33-.03,.46-.65,1.05-1.67,1.81-2.77,2.27-.12,.05-.26,.05-.38,0-1.11-.46-2.14-1.23-2.79-2.28-.09-.14-.09-.31-.02-.45,.65-1.31,1.11-2.73,1.43-4.19,.33-1.46,.56-2.96,.68-4.48,.31,3.06,0,6.22-1.27,9.07,0,0-.03-.46-.03-.46,.57,.84,1.42,1.47,2.38,1.85,0,0-.38,0-.38,0,.96-.37,1.8-1.02,2.37-1.85l-.03,.46c-1.27-2.85-1.59-6.01-1.27-9.07h0Z">
</path>
<path d="M39.52,53.97c-1.37,.17-2.77-.25-3.98-.87,0,0,.47-.01,.47-.01-.5,.41-1.03,.78-1.54,1.16-.19,.14-.44,.13-.62,0-.52-.38-1.05-.75-1.55-1.16h.47c-1.22,.63-2.62,1.05-3.99,.88,1.3-.38,2.45-.96,3.53-1.65,.14-.09,.31-.08,.45,0,.58,.36,1.14,.76,1.71,1.15,0,0-.63,0-.63,0,.57-.39,1.13-.79,1.71-1.16,.14-.09,.32-.08,.45,0,1.08,.69,2.24,1.27,3.54,1.65h0Z">
</path>
<path d="M31.76,54.55c1.75,.86,3.04,.9,4.72,.08-.74,2.19-4.01,2.06-4.72-.08h0Z">
</path>
<path d="M24.15,43.18c.54,2.13,1.39,4.11,2.51,5.95,.2,.83,.23,1.7,.21,2.55-.15-.7-.46-1.92-.55-2.32-1.29-1.78-2.16-3.96-2.17-6.18h0Z">
</path>
<path d="M44.01,43.18c0,2.22-.88,4.4-2.17,6.18-.09,.4-.41,1.62-.55,2.32-.02-.85,.02-1.72,.21-2.55,1.12-1.84,1.97-3.82,2.51-5.95h0Z">
</path>
<path class="cls-5" d="M26.95,54.99s.71,4.77-1.14,8.11c-4.84,3.34-14.23,8.75-14.23,8.75">
</path>
<path class="cls-5" d="M41.25,54.99s-.71,4.77,1.14,8.11c4.84,3.34,14.23,8.75,14.23,8.75">
</path>
<path class="cls-7" d="M26.24,62.88s1.72,4.27,6.37,4.27l1.53,4.5,1.55-4.5s4.5-.75,6.45-4.05">
</path>
<path d="M28.2,33.65c3.82-1.14,8.02-1.2,11.85-.09-4-.08-7.85-.03-11.85,.09h0Z">
</path>
<path class="cls-2" d="M25.68,44.1s2.24,1.8,5.4,.16c-1.96,4.25-3.17,3.21-5.4-.16Z">
</path>
</g>
</g>
  <g
     id="g20645">
    <path
       style="fill:#808080;stroke:#4d4d4d;stroke-width:0.937908;stop-color:#000000;fill-opacity:1"
       d="m 9.541565,65.883425 a 5.4759801,5.4759801 0 0 1 5.47598,5.475981 5.4759801,5.4759801 0 0 1 -5.47598,5.47598 5.4759801,5.4759801 0 0 1 -5.4759806,-5.47598 5.4759801,5.4759801 0 0 1 5.4759806,-5.475981 z"/>
    <path
       style="fill:#808080;stroke:#4d4d4d;stroke-width:0.937908;stop-color:#000000;fill-opacity:1"
       d="m 59.472108,65.883425 a 5.4759801,5.4759801 0 0 1 5.47598,5.475981 5.4759801,5.4759801 0 0 1 -5.47598,5.47598 5.4759801,5.4759801 0 0 1 -5.475981,-5.47598 5.4759801,5.4759801 0 0 1 5.475981,-5.475981 z"/>
    <path
       id="path7641"
       style="fill:#808080;stroke:#4d4d4d;stroke-width:1.64416;stop-color:#000000"
       d="M 34.642578,1.1660156 C 13.787845,9.1047124 0.86132813,23.726855 0.86132812,39.564453 V 79.340489 H 68.152344 V 39.564453 c 0,-15.800978 -12.759199,-30.4148342 -33.509766,-38.3984374 z m -0.01367,3.8085938 C 53.384648,12.190722 64.917969,25.399665 64.917969,39.681641 v 26.507812 c -1.368656,-1.44106 -3.300993,-2.341797 -5.445313,-2.341797 -4.14856,0 -7.511718,3.363159 -7.511718,7.511719 0,2.347008 1.075662,4.442843 2.761718,5.820313 H 14.269531 c 1.756069,-1.422629 2.778281,-3.560307 2.783203,-5.820313 4.8e-5,-4.148627 -3.363091,-7.511766 -7.5117184,-7.511719 -2.0622939,0.0062 -4.0313164,0.860092 -5.4453125,2.361328 V 39.681641 c 0,-14.315076 11.6833059,-27.531508 30.5332029,-34.7070316 z"/>
    <circle
       style="fill:#4d4d4d;fill-opacity:1;stroke:#4d4d4d;stop-color:#000000"
       id="path16431"
       cx="9.6010828"
       cy="71.229652"
       r="5.06003" />
    <circle
       style="fill:#4d4d4d;fill-opacity:1;stroke:#4d4d4d;stop-color:#000000"
       id="path16431-3"
       cx="59.42292"
       cy="71.229652"
       r="5.06003" />
  </g>
</svg>
