<?xml version="1.0" encoding="UTF-8"?><svg id="Capa_2" xmlns="http://www.w3.org/2000/svg" xmlns:xlink="http://www.w3.org/1999/xlink" viewBox="0 0 69.02 80"><defs><style>.cls-1{fill:#c89aed;}.cls-2{fill:#fff;}.cls-3{fill:#f8ffbf;}.cls-4{fill:#7b7be8;}.cls-5{fill:#a88347;}.cls-6{fill:#782ab5;}.cls-7{stroke:#000;stroke-miterlimit:10;}.cls-7,.cls-8,.cls-9,.cls-10{fill:none;}.cls-11{fill:#1c46ff;}.cls-8{stroke:#deb778;stroke-dasharray:0 0 0 4.06;stroke-linecap:round;stroke-linejoin:round;}.cls-12{fill:url(#USGS_19_Inundación_de_tierra);}.cls-13{fill:#deb778;}.cls-10{stroke:#1d1d1b;stroke-dasharray:0 0 2 2;stroke-width:.3px;}.cls-14{fill:#fcf0c5;}.cls-15{fill:#b83521;}</style><pattern id="USGS_19_Inundación_de_tierra" x="0" y="0" width="72" height="72" patternTransform="translate(-236.48 -16207) rotate(-90)" patternUnits="userSpaceOnUse" viewBox="0 0 72 72"><g><rect class="cls-9" width="72" height="72"/><g><line class="cls-10" x1="71" y1="71" x2="144.44" y2="71"/><line class="cls-10" x1="71" y1="67" x2="144.44" y2="67"/><line class="cls-10" x1="71" y1="63" x2="144.44" y2="63"/><line class="cls-10" x1="71" y1="59" x2="144.44" y2="59"/><line class="cls-10" x1="71" y1="55" x2="144.44" y2="55"/><line class="cls-10" x1="71" y1="51" x2="144.44" y2="51"/><line class="cls-10" x1="71" y1="47" x2="144.44" y2="47"/><line class="cls-10" x1="71" y1="43" x2="144.44" y2="43"/><line class="cls-10" x1="71" y1="39" x2="144.44" y2="39"/><line class="cls-10" x1="71" y1="35" x2="144.44" y2="35"/><line class="cls-10" x1="71" y1="31" x2="144.44" y2="31"/><line class="cls-10" x1="71" y1="27" x2="144.44" y2="27"/><line class="cls-10" x1="71" y1="23" x2="144.44" y2="23"/><line class="cls-10" x1="71" y1="19" x2="144.44" y2="19"/><line class="cls-10" x1="71" y1="15" x2="144.44" y2="15"/><line class="cls-10" x1="71" y1="11" x2="144.44" y2="11"/><line class="cls-10" x1="71" y1="7" x2="144.44" y2="7"/><line class="cls-10" x1="71" y1="3" x2="144.44" y2="3"/></g><g><line class="cls-10" x1="-1" y1="71" x2="72.44" y2="71"/><line class="cls-10" x1="-1" y1="67" x2="72.44" y2="67"/><line class="cls-10" x1="-1" y1="63" x2="72.44" y2="63"/><line class="cls-10" x1="-1" y1="59" x2="72.44" y2="59"/><line class="cls-10" x1="-1" y1="55" x2="72.44" y2="55"/><line class="cls-10" x1="-1" y1="51" x2="72.44" y2="51"/><line class="cls-10" x1="-1" y1="47" x2="72.44" y2="47"/><line class="cls-10" x1="-1" y1="43" x2="72.44" y2="43"/><line class="cls-10" x1="-1" y1="39" x2="72.44" y2="39"/><line class="cls-10" x1="-1" y1="35" x2="72.44" y2="35"/><line class="cls-10" x1="-1" y1="31" x2="72.44" y2="31"/><line class="cls-10" x1="-1" y1="27" x2="72.44" y2="27"/><line class="cls-10" x1="-1" y1="23" x2="72.44" y2="23"/><line class="cls-10" x1="-1" y1="19" x2="72.44" y2="19"/><line class="cls-10" x1="-1" y1="15" x2="72.44" y2="15"/><line class="cls-10" x1="-1" y1="11" x2="72.44" y2="11"/><line class="cls-10" x1="-1" y1="7" x2="72.44" y2="7"/><line class="cls-10" x1="-1" y1="3" x2="72.44" y2="3"/><line class="cls-10" x1="1.04" y1="69" x2="74.48" y2="69"/><line class="cls-10" x1="1.04" y1="65" x2="74.48" y2="65"/><line class="cls-10" x1="1.04" y1="61" x2="74.48" y2="61"/><line class="cls-10" x1="1.04" y1="57" x2="74.48" y2="57"/><line class="cls-10" x1="1.04" y1="53" x2="74.48" y2="53"/><line class="cls-10" x1="1.04" y1="49" x2="74.48" y2="49"/><line class="cls-10" x1="1.04" y1="45" x2="74.48" y2="45"/><line class="cls-10" x1="1.04" y1="41" x2="74.48" y2="41"/><line class="cls-10" x1="1.04" y1="37" x2="74.48" y2="37"/><line class="cls-10" x1="1.04" y1="33" x2="74.48" y2="33"/><line class="cls-10" x1="1.04" y1="29" x2="74.48" y2="29"/><line class="cls-10" x1="1.04" y1="25" x2="74.48" y2="25"/><line class="cls-10" x1="1.04" y1="21" x2="74.48" y2="21"/><line class="cls-10" x1="1.04" y1="17" x2="74.48" y2="17"/><line class="cls-10" x1="1.04" y1="13" x2="74.48" y2="13"/><line class="cls-10" x1="1.04" y1="9" x2="74.48" y2="9"/><line class="cls-10" x1="1.04" y1="5" x2="74.48" y2="5"/><line class="cls-10" x1="1.04" y1="1" x2="74.48" y2="1"/></g><g><line class="cls-10" x1="-73" y1="71" x2=".44" y2="71"/><line class="cls-10" x1="-73" y1="67" x2=".44" y2="67"/><line class="cls-10" x1="-73" y1="63" x2=".44" y2="63"/><line class="cls-10" x1="-73" y1="59" x2=".44" y2="59"/><line class="cls-10" x1="-73" y1="55" x2=".44" y2="55"/><line class="cls-10" x1="-73" y1="51" x2=".44" y2="51"/><line class="cls-10" x1="-73" y1="47" x2=".44" y2="47"/><line class="cls-10" x1="-73" y1="43" x2=".44" y2="43"/><line class="cls-10" x1="-73" y1="39" x2=".44" y2="39"/><line class="cls-10" x1="-73" y1="35" x2=".44" y2="35"/><line class="cls-10" x1="-73" y1="31" x2=".44" y2="31"/><line class="cls-10" x1="-73" y1="27" x2=".44" y2="27"/><line class="cls-10" x1="-73" y1="23" x2=".44" y2="23"/><line class="cls-10" x1="-73" y1="19" x2=".44" y2="19"/><line class="cls-10" x1="-73" y1="15" x2=".44" y2="15"/><line class="cls-10" x1="-73" y1="11" x2=".44" y2="11"/><line class="cls-10" x1="-73" y1="7" x2=".44" y2="7"/><line class="cls-10" x1="-73" y1="3" x2=".44" y2="3"/><line class="cls-10" x1="-70.96" y1="69" x2="2.48" y2="69"/><line class="cls-10" x1="-70.96" y1="65" x2="2.48" y2="65"/><line class="cls-10" x1="-70.96" y1="61" x2="2.48" y2="61"/><line class="cls-10" x1="-70.96" y1="57" x2="2.48" y2="57"/><line class="cls-10" x1="-70.96" y1="53" x2="2.48" y2="53"/><line class="cls-10" x1="-70.96" y1="49" x2="2.48" y2="49"/><line class="cls-10" x1="-70.96" y1="45" x2="2.48" y2="45"/><line class="cls-10" x1="-70.96" y1="41" x2="2.48" y2="41"/><line class="cls-10" x1="-70.96" y1="37" x2="2.48" y2="37"/><line class="cls-10" x1="-70.96" y1="33" x2="2.48" y2="33"/><line class="cls-10" x1="-70.96" y1="29" x2="2.48" y2="29"/><line class="cls-10" x1="-70.96" y1="25" x2="2.48" y2="25"/><line class="cls-10" x1="-70.96" y1="21" x2="2.48" y2="21"/><line class="cls-10" x1="-70.96" y1="17" x2="2.48" y2="17"/><line class="cls-10" x1="-70.96" y1="13" x2="2.48" y2="13"/><line class="cls-10" x1="-70.96" y1="9" x2="2.48" y2="9"/><line class="cls-10" x1="-70.96" y1="5" x2="2.48" y2="5"/><line class="cls-10" x1="-70.96" y1="1" x2="2.48" y2="1"/></g></g></pattern></defs><g id="BG"><g><path class="cls-6" d="M64.02,40c0,11.47-1.89,22.39-5.5,31.74-7.2,2.16-14.94,3.26-23.02,3.26-.49,0-.98-.01-1.47-.02h-.17c-8.18-.15-16.29-1.47-23.6-3.85-3.45-9.22-5.26-19.93-5.26-31.13s1.89-22.38,5.48-31.73c6.73-2.01,14.13-3.13,21.6-3.26,.48-.01,.97-.01,1.45-.01,.54,0,1.08,.01,1.63,.02,8.16,.15,16.27,1.47,23.59,3.84,3.46,9.24,5.27,19.95,5.27,31.14Z"/><path class="cls-12" d="M34.03,5.59V74.98h-.17c-8.18-.15-16.29-1.47-23.6-3.85-3.45-9.22-5.26-19.93-5.26-31.13s1.89-22.38,5.48-31.73c6.73-2.01,14.13-3.13,21.6-3.26,.65,.16,1.3,.36,1.95,.58Z"/></g></g><g id="Characters"><g><g><path class="cls-1" d="M61.18,63.53l-2.57,8.38s-27.83,7.83-48.63-.95c-1.22-4.32-1.49-6.48-1.49-6.48l17.84-7.43,.27-6.62s-2.71-4.46-3.65-7.57c-2.43,1.08-8.38-1.89-5.94-12.16,2.65,1.53,3.29,1.98,3.36,2.02-.02-.09-.15-.54-.33-1.21-.51-1.96-1.4-5.76-1.01-7.43,.54-2.29,2.7-4.86,2.7-4.86,0,0-3.64-.54-6.21,.81,8.37-8.64,18.37-10.94,28.91-2.56,.13-4.33-2.97-6.08-2.97-6.08,0,0,5.53-.95,9.32,5.13,1.21,3.78-.68,6.35-.68,6.35,0,0,3.92,.81,4.46,2.57,.52,1.7-2.77,6.72-2.96,7.01l.34-.16,2.75-1.32s1.63,2.84,.14,7.3c-1.49,4.46-4.05,5.94-5.94,4.19-2.03,5.67-3.79,8.51-3.79,8.51l.27,5.94,15.81,6.62Z"/><path class="cls-2" d="M36.26,55.2V25.42s7.22-3.9,12.68-.55c2.48,6.51,2.22,9.4,2.22,9.4,0,0-1.66,13.05-7.62,18.22-3.33,2.63-7.27,2.72-7.27,2.72Z"/><path class="cls-2" d="M31.35,62.12s2.72,2.06,6.34,.91,7.69-6.12,7.69-6.12l2.85,1.02s-2.63,12.67-6.58,16.54c-8.39,1.23-11.93-.33-11.93-.33l-3.87-8.07,5.51-3.95Z"/><path d="M51.6,32.45l.34-.16-.77,1.33-2.23-8.75s-7-2.13-13.61,.78c.49-1.17,3.01-3.3,3.01-3.3,0,0-1.55-.39-7.77,.29-8.36,1.65-10.4,8.94-10.4,8.94l-.13-.07c-.51-1.96-1.4-5.76-1.01-7.43,.54-2.29,2.7-4.86,2.7-4.86,0,0-3.64-.54-6.21,.81,8.37-8.64,18.37-10.94,28.91-2.56,.13-4.33-2.97-6.08-2.97-6.08,0,0,5.53-.95,9.32,5.13,1.21,3.78-.68,6.35-.68,6.35,0,0,3.92,.81,4.46,2.57,.52,1.7-2.77,6.72-2.96,7.01Z"/><path class="cls-11" d="M21.24,23.51s5.25-6.03,10.21-5.15,11.27,3.5,13.61,.68c-5.35-4.37-8.84-5.25-8.84-5.25,0,0-.39,3.21-6.51,2.43s-8.46,7.29-8.46,7.29Z"/><path class="cls-3" d="M32.62,35.62s-3.84-.05-7.8,.75c1.03,1.63,6.84,2.21,7.8-.75Z"/><path class="cls-3" d="M39.22,35.62s3.84-.05,7.8,.75c-1.03,1.63-6.84,2.21-7.8-.75Z"/><path d="M20.66,32.89l-3.65-2.19s-1.31,4.09,.22,7.95,3.43,5.21,5.58,3.86c-1.96-5.52-2.15-9.62-2.15-9.62Z"/><path d="M42.51,53.54l-22.84,19.93-9.83-2.09-1.18-7.19,17.67-7.14,.44-6.15s2.18,3.82,6.82,3.91,6.82-.09,8.92-1.27Z"/><path class="cls-15" d="M30.3,65.48l2.52-3.05s3.66,.84,5.72,.31c2.14,1.53,2.67,2.44,2.67,2.44l-2.97,3.89,1.6,5.41-7.7-.08,1.68-4.96-3.51-3.97Z"/><path d="M48.56,58.45s-2.91,12.17-6.93,16.01c13.03-1,17.29-3.13,17.29-3.13l1.74-8.52-12.11-4.36Z"/><polygon points="25.02 65.23 30.25 74.43 19.11 72.69 25.02 65.23"/><path class="cls-2" d="M43.78,54.64l-7.82,6.64s4.91,.35,8.1-4.64c-.28-1.18-.28-2.01-.28-2.01Z"/><path class="cls-1" d="M34.04,23.83c-1.05,1-1.53,1.81-1.66,2.05l-.89,1.66-1.79,3.34,3.21-2.02,1.59-1c.41-.25,4.14-2.4,8.97-2.4,1.56,0,3.07,.23,4.52,.68,1.02,2.7,1.5,6.31,1.63,7.39,0,.02,0,.03,0,.05l.02,.22c-.69,6.36-4.71,15.75-7.85,18.32-1.16,.94-3.3,1.53-5.59,1.53s-4.24-.54-5.65-1.5c-5.44-3.94-7.86-15.2-8.49-18.68l-.02-.53v-.06c0-.33,.07-3.15,2.51-5.54,2.08-2.03,5.27-3.2,9.49-3.5m2.31-1.08c-5.65,0-9.86,1.29-12.5,3.87-2.91,2.85-2.82,6.31-2.81,6.34l.02,.59h0c.65,3.64,3.12,15.22,8.9,19.4,1.71,1.17,4.01,1.69,6.23,1.69,2.47,0,4.85-.64,6.22-1.75,3.4-2.78,7.55-12.49,8.23-19.09l-.03-.33s-.51-4.87-1.87-8.14c-1.83-.63-3.61-.87-5.27-.87-5.36,0-9.44,2.51-9.5,2.54l-1.6,1.01,.89-1.66c.05-.09,1.04-1.9,3.85-3.59-.26,0-.51,0-.76,0h0Z"/><path class="cls-2" d="M52.76,32.41s2.23,4-.09,9.48c3.25-4.18,3.58-8.45,2.02-10.91-1.37,.42-1.93,1.44-1.93,1.44Z"/><polygon class="cls-4" points="33.51 33.66 32.62 35.62 24.84 36.09 23.45 35.88 22.25 32.78 27.88 31.64 33.51 33.66"/><polygon class="cls-4" points="39 33.66 40.19 35.64 47.29 36.09 48.41 35.94 49.62 32.97 44.63 31.64 39 33.66"/><path class="cls-7" d="M54.31,25.2c-.61-2.42-4.22-2.13-4.22-2.13,0,0,3.48-3.48,.1-7.87s-9.51-4.29-9.51-4.29c0,0,3.99,1.84,4.09,6.95-5.83-5.93-18.91-10.02-30.37,2.86,5.11-2.45,7.46-1.64,7.46-1.64,0,0-3.27,3.68-3.07,6.34s1.74,7.57,1.74,7.57c0,0-.51-11.86,18.45-10.64-3.98,1.82-5.28,4.24-5.28,4.24,0,0,7.27-4.59,15.41-1.64,1.47,3.38,1.99,8.48,1.99,8.48,0,0,3.81-5.8,3.2-8.22Z"/><path class="cls-7" d="M20.38,32.53s2.18,15.67,9.29,20.82c3.92,2.68,10.37,2.1,13.06-.07,3.55-2.9,8.05-13.35,8.49-20.24"/><path class="cls-7" d="M20.73,33.34s-1.93-1.93-3.61-2.43c-2.12,4.55,.56,9.76,1.93,11.09,2.24,2.18,3.61,.5,3.61,.5"/><path class="cls-7" d="M51.13,33.34s1.93-1.93,3.61-2.43c2.12,4.55-.56,9.76-1.93,11.09-2.24,2.18-3.61,.5-3.61,.5"/><path d="M22.23,32.97s3.8-1.74,6.91-1.87c4.05,1.37,4.86,2.06,4.86,2.06l-.75,1.37s-3.55-1.87-5.48-2.06c-3.67,.31-5.54,.5-5.54,.5Z"/><path d="M31.65,35.64c-2.35,.23-4.87,.4-7.1,1.07,0,0,.22-.84,.22-.84,2.02,2.43,4.42,2.15,6.91,.6,0,0,.73-.4,.73-.4-.49,.75-1.01,1.56-1.66,2.17-.46,.44-1,.84-1.62,.98,.6-.2,1.07-.65,1.47-1.12,.4-.48,.73-1.01,1.01-1.56,0,0,.28,.27,.28,.27-3.38,2.37-5.7,2.04-8.57-.91,2.78-.57,5.54-.39,8.32-.27h0Z"/><path d="M49.62,32.97s-3.8-1.74-6.91-1.87c-4.05,1.37-4.86,2.06-4.86,2.06l.75,1.37s3.55-1.87,5.48-2.06c3.67,.31,5.54,.5,5.54,.5Z"/><path d="M40.19,35.64c2.78-.12,5.54-.3,8.32,.27-1.27,1.19-2.76,2.59-4.65,2.49-1.52-.08-2.77-.83-3.92-1.59,0,0,.28-.27,.28-.27,.58,1.07,1.3,2.23,2.49,2.68-1.53-.41-2.46-1.9-3.28-3.15,2.79,1.67,5.22,2.63,7.64-.2,0,0,.22,.84,.22,.84-2.23-.66-4.75-.84-7.1-1.07h0Z"/><path d="M37.46,39.72c.67,.42,1.29,.89,1.91,1.38-.18,.84-.8,1.43-1.5,1.73-1.84,.75-4.77,.54-5.39-1.73,.61-.49,1.23-.96,1.91-1.38-.4,.61-.85,1.18-1.31,1.73l.09-.32c.21,.37,.67,.7,1.15,.86,1.36,.38,3.49,.44,4.36-.86,0,0,.09,.32,.09,.32-.46-.55-.9-1.12-1.31-1.73h0Z"/><path d="M36.11,44.04h1.56c1.82,.67,3.7,2.9,3.7,2.9,0,0-2.49-1.24-3.32-1.4h-2.01s-.26,0-.26,0h-2.01c-.83,.16-3.32,1.4-3.32,1.4,0,0,1.88-2.23,3.7-2.9h1.95Z"/><path d="M39.26,47.41c-.18,.4-.4,.78-.61,1.16-.93,.16-1.88,.26-2.83,.3-.95-.04-1.9-.14-2.83-.3-.22-.38-.43-.76-.61-1.16,.32,.26,.62,.55,.92,.83l-.15-.08c.9-.07,1.79-.07,2.68-.04,.89-.03,1.78-.03,2.68,.04l-.15,.08c.29-.29,.59-.57,.92-.83h0Z"/><path d="M39.83,54.42l-2.08-4.3h-1.49s-.77,0-.77,0h-1.49l-2.08,4.3s4.13,1.68,7.91,0Z"/><polyline class="cls-7" points="26.66 50.27 26.58 56.85 7.63 64.52"/><polyline class="cls-7" points="45.25 50.27 45.33 56.85 64.27 64.52"/><path class="cls-7" d="M26.58,56.85s2.63,6.09,9.17,6.09,9.58-6.09,9.58-6.09"/><path class="cls-7" d="M23.41,58.43s3.77,12.24,6.89,16.45"/><path class="cls-7" d="M27.57,69.14s2.97-4.71,5.35-6.49"/><path class="cls-7" d="M48.39,58.43s-3.77,12.24-6.89,16.45"/><path class="cls-7" d="M44.23,69.14s-2.97-4.71-5.35-6.49"/><polyline class="cls-7" points="30.49 65.62 33.81 69.68 32.08 75.68 40.2 75.68 38.07 69.38 41.54 65.22"/></g><path class="cls-1" d="M33.24,54.21c1.79-.72,3.57-.72,5.34,.06,0,0,.02,.1,.02,.1-.88,.2-1.79,.31-2.7,.32-.91-.03-1.81-.14-2.69-.38l.03-.1h0Z"/><path class="cls-1" d="M17.42,31.92s-1.51,3.29,1.16,8.29"/><path class="cls-11" d="M10.41,64.89c5.17-2.43,10.7-5.18,16.02-6.76-2.41,1.55-5.12,2.85-7.73,4.01-2.63,1.02-5.52,2.43-8.29,2.74h0Z"/></g></g><g id="Frame"><path class="cls-5" d="M62.56,4.88C54.4,1.94,45.12,.2,35.25,.02c-.57-.01-1.15-.02-1.72-.02C23.88,0,14.77,1.52,6.72,4.21,2.49,14.22,0,26.6,0,40s2.39,25.22,6.45,35.11c8.16,2.94,17.45,4.69,27.32,4.87,.58,.01,1.15,.02,1.73,.02,9.63,0,18.73-1.51,26.78-4.2,4.24-10.01,6.74-22.39,6.74-35.8s-2.4-25.24-6.46-35.12Zm-4.04,66.86c-7.2,2.16-14.94,3.26-23.02,3.26-.49,0-.98-.01-1.47-.02h-.17c-8.18-.15-16.29-1.47-23.6-3.85-3.45-9.22-5.26-19.93-5.26-31.13s1.89-22.38,5.48-31.73c6.73-2.01,14.13-3.13,21.6-3.26,.48-.01,.97-.01,1.45-.01,.54,0,1.08,.01,1.63,.02,8.16,.15,16.27,1.47,23.59,3.84,3.46,9.24,5.27,19.95,5.27,31.14s-1.89,22.39-5.5,31.74Z"/><path class="cls-13" d="M17.21,2.06h0c1.63,.63,2.06,2.75,.81,3.97l-1.26,1.22s8.35-2.37,18.84-1.69h0c-1-1.49-.45-3.52,1.14-4.34l1-.51S28.26-.43,17.21,2.06Z"/><path class="cls-14" d="M21.81,1.66s.7,2.18-.22,3.1c3.77-.41,7.98-.74,11.12-.74-.33-1.33,1.26-3.4,1.26-3.4,0,0-6.17-.26-12.16,1.03Z"/><path class="cls-13" d="M36.25,79.21h0c-1.52-.87-1.62-3.03-.2-4.04l1.43-1.02s-8.61,1.07-18.88-1.19h0c.76,1.63-.09,3.55-1.79,4.11l-1.07,.36s9.19,2.56,20.5,1.78Z"/><path class="cls-14" d="M19.28,77.8s1.76-1.83,1.3-3.09c4.43,.69,9.11,1.14,12.25,1.14-.33,1.33,.44,3.4,.44,3.4,0,0-8-.16-13.99-1.45Z"/><polygon points="47.48 1.77 47.48 6.73 54.49 8.44 54.49 2.62 47.48 1.77"/><line class="cls-7" x1="45.5" y1="1.23" x2="45.5" y2="6.29"/><line class="cls-7" x1="56.47" y1="3.67" x2="56.47" y2="8.73"/><polygon points="47.48 78.74 47.48 73.78 54.49 72.07 54.49 77.88 47.48 78.74"/><line class="cls-7" x1="45.5" y1="79.28" x2="45.5" y2="74.21"/><line class="cls-7" x1="56.47" y1="76.84" x2="56.47" y2="71.77"/><path d="M33.53,1c.56,0,1.14,0,1.7,.02,9.39,.17,18.33,1.74,26.57,4.65,4.07,10.08,6.22,21.94,6.22,34.33s-2.24,24.79-6.49,34.99c-8.12,2.66-16.87,4.01-26.03,4.01-.56,0-1.12,0-1.71-.02-9.25-.17-18.42-1.78-26.58-4.66C3.15,64.25,1,52.39,1,40S3.23,15.21,7.47,5.02C15.6,2.35,24.37,1,33.53,1m0-1C23.88,0,14.77,1.52,6.72,4.21,2.49,14.22,0,26.6,0,40s2.39,25.22,6.45,35.11c8.16,2.94,17.45,4.69,27.32,4.87,.58,.01,1.15,.02,1.73,.02,9.63,0,18.73-1.51,26.78-4.2,4.24-10.01,6.74-22.39,6.74-35.8s-2.4-25.24-6.46-35.12C54.4,1.94,45.12,.2,35.25,.02c-.57,0-1.15-.02-1.72-.02h0Z"/><path class="cls-13" d="M33.53,6c.52,0,1.04,0,1.61,.02,7.87,.14,15.75,1.4,22.84,3.64,3.3,9,5.04,19.47,5.04,30.34s-1.82,21.82-5.26,30.92c-6.98,2.04-14.47,3.08-22.26,3.08-.48,0-.97,0-1.47-.02h-.15c-7.89-.14-15.78-1.41-22.85-3.65-3.29-8.99-5.03-19.46-5.03-30.33s1.81-21.79,5.24-30.91c6.5-1.89,13.7-2.95,20.86-3.08,.47,0,.96,0,1.43,0m0-1c-.48,0-.97,0-1.45,.01-7.47,.13-14.87,1.25-21.6,3.26-3.59,9.35-5.48,20.26-5.48,31.73s1.81,21.91,5.26,31.13c7.31,2.38,15.42,3.7,23.6,3.85h.17c.49,.01,.98,.02,1.47,.02,8.08,0,15.82-1.1,23.02-3.26,3.61-9.35,5.5-20.27,5.5-31.74s-1.81-21.9-5.27-31.14c-7.32-2.37-15.43-3.69-23.59-3.84-.55,0-1.09-.02-1.63-.02h0Z"/><path d="M33.53,5c.54,0,1.08,.01,1.63,.02,8.16,.15,16.27,1.47,23.59,3.84,3.46,9.24,5.27,19.95,5.27,31.14s-1.89,22.39-5.5,31.74c-7.2,2.16-14.94,3.26-23.02,3.26-.49,0-.98-.01-1.47-.02h-.17c-8.18-.15-16.29-1.47-23.6-3.85-3.45-9.22-5.26-19.93-5.26-31.13s1.89-22.38,5.48-31.73c6.73-2.01,14.13-3.13,21.6-3.26,.48-.01,.97-.01,1.45-.01m0-1c-.49,0-.98,0-1.47,.01-7.51,.13-15.07,1.27-21.87,3.3l-.47,.14-.18,.46c-3.63,9.45-5.55,20.55-5.55,32.09s1.84,22.17,5.32,31.48l.17,.45,.46,.15c7.37,2.4,15.63,3.75,23.89,3.9h.19c.48,.01,.97,.02,1.47,.02,8.16,0,16-1.11,23.31-3.3l.47-.14,.18-.46c3.64-9.43,5.57-20.53,5.57-32.1s-1.84-22.17-5.33-31.49l-.17-.45-.46-.15c-7.39-2.39-15.65-3.74-23.88-3.89-.58-.01-1.12-.02-1.65-.02h0Z"/><path class="cls-8" d="M8.14,7.1s-12.66,32.94,0,66.06"/><path class="cls-8" d="M60.88,7.58s12.66,32.94,0,66.06"/></g></svg>