<?xml version="1.0" encoding="UTF-8" standalone="no"?>
<svg
   xmlns:dc="http://purl.org/dc/elements/1.1/"
   xmlns:cc="http://creativecommons.org/ns#"
   xmlns:rdf="http://www.w3.org/1999/02/22-rdf-syntax-ns#"
   xmlns:svg="http://www.w3.org/2000/svg"
   xmlns="http://www.w3.org/2000/svg"
   xmlns:sodipodi="http://sodipodi.sourceforge.net/DTD/sodipodi-0.dtd"
   xmlns:inkscape="http://www.inkscape.org/namespaces/inkscape"
   id="Capa_2"
   viewBox="0 0 69.02 80"
   version="1.1"
   sodipodi:docname="22t.svg"
   inkscape:version="0.92.3 (2405546, 2018-03-11)">
  <metadata
     id="metadata300">
    <rdf:RDF>
      <cc:Work
         rdf:about="">
        <dc:format>image/svg+xml</dc:format>
        <dc:type
           rdf:resource="http://purl.org/dc/dcmitype/StillImage" />
      </cc:Work>
    </rdf:RDF>
  </metadata>
  <sodipodi:namedview
     pagecolor="#ffffff"
     bordercolor="#666666"
     borderopacity="1"
     objecttolerance="10"
     gridtolerance="10"
     guidetolerance="10"
     inkscape:pageopacity="0"
     inkscape:pageshadow="2"
     inkscape:window-width="732"
     inkscape:window-height="480"
     id="namedview298"
     showgrid="false"
     inkscape:zoom="5.9"
     inkscape:cx="34.455393"
     inkscape:cy="53.347702"
     inkscape:window-x="453"
     inkscape:window-y="69"
     inkscape:window-maximized="0"
     inkscape:current-layer="Capa_2" />
  <defs
     id="defs195">
    <style
       id="style2">
.cls-1{fill:#c89aed;}.cls-2{stroke-width:.99px;}.cls-2,.cls-3,.cls-4,.cls-5{stroke:#000;}.cls-2,.cls-3,.cls-4,.cls-5,.cls-6,.cls-7,.cls-8{fill:none;}.cls-2,.cls-4,.cls-5,.cls-6{stroke-linecap:round;}.cls-2,.cls-5,.cls-6{stroke-linejoin:round;}.cls-9{fill:#fff;}.cls-10{fill:#f8ffbf;}.cls-11{fill:#7b7be8;}.cls-12{fill:#a88347;}.cls-13{fill:#782ab5;}.cls-3,.cls-4{stroke-miterlimit:10;}.cls-14{fill:#1c46ff;}.cls-6{stroke:#deb778;stroke-dasharray:0 0 0 4.06;}.cls-15{fill:#deb778;}.cls-16{fill:url(#USGS_19_Inundación_de_tierra_2);}.cls-8{stroke:#1d1d1b;stroke-dasharray:0 0 2 2;stroke-width:.3px;}.cls-17{fill:#cf5f2b;}.cls-18{fill:#fcf0c5;}.cls-19{fill:#b83521;}
</style>
    <pattern
       id="USGS_19_Inundación_de_tierra_2"
       x="0"
       y="0"
       width="72"
       height="72"
       patternTransform="translate(267.52 -16063) rotate(-90)"
       patternUnits="userSpaceOnUse"
       viewBox="0 0 72 72">
      <g
         id="g192">
        <rect
           class="cls-7"
           width="72"
           height="72"
           id="rect4" />
        <g
           id="g42">
          <line
             class="cls-8"
             x1="71"
             y1="71"
             x2="144.44"
             y2="71"
             id="line6" />
          <line
             class="cls-8"
             x1="71"
             y1="67"
             x2="144.44"
             y2="67"
             id="line8" />
          <line
             class="cls-8"
             x1="71"
             y1="63"
             x2="144.44"
             y2="63"
             id="line10" />
          <line
             class="cls-8"
             x1="71"
             y1="59"
             x2="144.44"
             y2="59"
             id="line12" />
          <line
             class="cls-8"
             x1="71"
             y1="55"
             x2="144.44"
             y2="55"
             id="line14" />
          <line
             class="cls-8"
             x1="71"
             y1="51"
             x2="144.44"
             y2="51"
             id="line16" />
          <line
             class="cls-8"
             x1="71"
             y1="47"
             x2="144.44"
             y2="47"
             id="line18" />
          <line
             class="cls-8"
             x1="71"
             y1="43"
             x2="144.44"
             y2="43"
             id="line20" />
          <line
             class="cls-8"
             x1="71"
             y1="39"
             x2="144.44"
             y2="39"
             id="line22" />
          <line
             class="cls-8"
             x1="71"
             y1="35"
             x2="144.44"
             y2="35"
             id="line24" />
          <line
             class="cls-8"
             x1="71"
             y1="31"
             x2="144.44"
             y2="31"
             id="line26" />
          <line
             class="cls-8"
             x1="71"
             y1="27"
             x2="144.44"
             y2="27"
             id="line28" />
          <line
             class="cls-8"
             x1="71"
             y1="23"
             x2="144.44"
             y2="23"
             id="line30" />
          <line
             class="cls-8"
             x1="71"
             y1="19"
             x2="144.44"
             y2="19"
             id="line32" />
          <line
             class="cls-8"
             x1="71"
             y1="15"
             x2="144.44"
             y2="15"
             id="line34" />
          <line
             class="cls-8"
             x1="71"
             y1="11"
             x2="144.44"
             y2="11"
             id="line36" />
          <line
             class="cls-8"
             x1="71"
             y1="7"
             x2="144.44"
             y2="7"
             id="line38" />
          <line
             class="cls-8"
             x1="71"
             y1="3"
             x2="144.44"
             y2="3"
             id="line40" />
        </g>
        <g
           id="g116">
          <line
             class="cls-8"
             x1="-1"
             y1="71"
             x2="72.44"
             y2="71"
             id="line44" />
          <line
             class="cls-8"
             x1="-1"
             y1="67"
             x2="72.44"
             y2="67"
             id="line46" />
          <line
             class="cls-8"
             x1="-1"
             y1="63"
             x2="72.44"
             y2="63"
             id="line48" />
          <line
             class="cls-8"
             x1="-1"
             y1="59"
             x2="72.44"
             y2="59"
             id="line50" />
          <line
             class="cls-8"
             x1="-1"
             y1="55"
             x2="72.44"
             y2="55"
             id="line52" />
          <line
             class="cls-8"
             x1="-1"
             y1="51"
             x2="72.44"
             y2="51"
             id="line54" />
          <line
             class="cls-8"
             x1="-1"
             y1="47"
             x2="72.44"
             y2="47"
             id="line56" />
          <line
             class="cls-8"
             x1="-1"
             y1="43"
             x2="72.44"
             y2="43"
             id="line58" />
          <line
             class="cls-8"
             x1="-1"
             y1="39"
             x2="72.44"
             y2="39"
             id="line60" />
          <line
             class="cls-8"
             x1="-1"
             y1="35"
             x2="72.44"
             y2="35"
             id="line62" />
          <line
             class="cls-8"
             x1="-1"
             y1="31"
             x2="72.44"
             y2="31"
             id="line64" />
          <line
             class="cls-8"
             x1="-1"
             y1="27"
             x2="72.44"
             y2="27"
             id="line66" />
          <line
             class="cls-8"
             x1="-1"
             y1="23"
             x2="72.44"
             y2="23"
             id="line68" />
          <line
             class="cls-8"
             x1="-1"
             y1="19"
             x2="72.44"
             y2="19"
             id="line70" />
          <line
             class="cls-8"
             x1="-1"
             y1="15"
             x2="72.44"
             y2="15"
             id="line72" />
          <line
             class="cls-8"
             x1="-1"
             y1="11"
             x2="72.44"
             y2="11"
             id="line74" />
          <line
             class="cls-8"
             x1="-1"
             y1="7"
             x2="72.44"
             y2="7"
             id="line76" />
          <line
             class="cls-8"
             x1="-1"
             y1="3"
             x2="72.44"
             y2="3"
             id="line78" />
          <line
             class="cls-8"
             x1="1.04"
             y1="69"
             x2="74.48"
             y2="69"
             id="line80" />
          <line
             class="cls-8"
             x1="1.04"
             y1="65"
             x2="74.48"
             y2="65"
             id="line82" />
          <line
             class="cls-8"
             x1="1.04"
             y1="61"
             x2="74.48"
             y2="61"
             id="line84" />
          <line
             class="cls-8"
             x1="1.04"
             y1="57"
             x2="74.48"
             y2="57"
             id="line86" />
          <line
             class="cls-8"
             x1="1.04"
             y1="53"
             x2="74.48"
             y2="53"
             id="line88" />
          <line
             class="cls-8"
             x1="1.04"
             y1="49"
             x2="74.48"
             y2="49"
             id="line90" />
          <line
             class="cls-8"
             x1="1.04"
             y1="45"
             x2="74.48"
             y2="45"
             id="line92" />
          <line
             class="cls-8"
             x1="1.04"
             y1="41"
             x2="74.48"
             y2="41"
             id="line94" />
          <line
             class="cls-8"
             x1="1.04"
             y1="37"
             x2="74.48"
             y2="37"
             id="line96" />
          <line
             class="cls-8"
             x1="1.04"
             y1="33"
             x2="74.48"
             y2="33"
             id="line98" />
          <line
             class="cls-8"
             x1="1.04"
             y1="29"
             x2="74.48"
             y2="29"
             id="line100" />
          <line
             class="cls-8"
             x1="1.04"
             y1="25"
             x2="74.48"
             y2="25"
             id="line102" />
          <line
             class="cls-8"
             x1="1.04"
             y1="21"
             x2="74.48"
             y2="21"
             id="line104" />
          <line
             class="cls-8"
             x1="1.04"
             y1="17"
             x2="74.48"
             y2="17"
             id="line106" />
          <line
             class="cls-8"
             x1="1.04"
             y1="13"
             x2="74.48"
             y2="13"
             id="line108" />
          <line
             class="cls-8"
             x1="1.04"
             y1="9"
             x2="74.48"
             y2="9"
             id="line110" />
          <line
             class="cls-8"
             x1="1.04"
             y1="5"
             x2="74.48"
             y2="5"
             id="line112" />
          <line
             class="cls-8"
             x1="1.04"
             y1="1"
             x2="74.48"
             y2="1"
             id="line114" />
        </g>
        <g
           id="g190">
          <line
             class="cls-8"
             x1="-73"
             y1="71"
             x2=".44"
             y2="71"
             id="line118" />
          <line
             class="cls-8"
             x1="-73"
             y1="67"
             x2=".44"
             y2="67"
             id="line120" />
          <line
             class="cls-8"
             x1="-73"
             y1="63"
             x2=".44"
             y2="63"
             id="line122" />
          <line
             class="cls-8"
             x1="-73"
             y1="59"
             x2=".44"
             y2="59"
             id="line124" />
          <line
             class="cls-8"
             x1="-73"
             y1="55"
             x2=".44"
             y2="55"
             id="line126" />
          <line
             class="cls-8"
             x1="-73"
             y1="51"
             x2=".44"
             y2="51"
             id="line128" />
          <line
             class="cls-8"
             x1="-73"
             y1="47"
             x2=".44"
             y2="47"
             id="line130" />
          <line
             class="cls-8"
             x1="-73"
             y1="43"
             x2=".44"
             y2="43"
             id="line132" />
          <line
             class="cls-8"
             x1="-73"
             y1="39"
             x2=".44"
             y2="39"
             id="line134" />
          <line
             class="cls-8"
             x1="-73"
             y1="35"
             x2=".44"
             y2="35"
             id="line136" />
          <line
             class="cls-8"
             x1="-73"
             y1="31"
             x2=".44"
             y2="31"
             id="line138" />
          <line
             class="cls-8"
             x1="-73"
             y1="27"
             x2=".44"
             y2="27"
             id="line140" />
          <line
             class="cls-8"
             x1="-73"
             y1="23"
             x2=".44"
             y2="23"
             id="line142" />
          <line
             class="cls-8"
             x1="-73"
             y1="19"
             x2=".44"
             y2="19"
             id="line144" />
          <line
             class="cls-8"
             x1="-73"
             y1="15"
             x2=".44"
             y2="15"
             id="line146" />
          <line
             class="cls-8"
             x1="-73"
             y1="11"
             x2=".44"
             y2="11"
             id="line148" />
          <line
             class="cls-8"
             x1="-73"
             y1="7"
             x2=".44"
             y2="7"
             id="line150" />
          <line
             class="cls-8"
             x1="-73"
             y1="3"
             x2=".44"
             y2="3"
             id="line152" />
          <line
             class="cls-8"
             x1="-70.96"
             y1="69"
             x2="2.48"
             y2="69"
             id="line154" />
          <line
             class="cls-8"
             x1="-70.96"
             y1="65"
             x2="2.48"
             y2="65"
             id="line156" />
          <line
             class="cls-8"
             x1="-70.96"
             y1="61"
             x2="2.48"
             y2="61"
             id="line158" />
          <line
             class="cls-8"
             x1="-70.96"
             y1="57"
             x2="2.48"
             y2="57"
             id="line160" />
          <line
             class="cls-8"
             x1="-70.96"
             y1="53"
             x2="2.48"
             y2="53"
             id="line162" />
          <line
             class="cls-8"
             x1="-70.96"
             y1="49"
             x2="2.48"
             y2="49"
             id="line164" />
          <line
             class="cls-8"
             x1="-70.96"
             y1="45"
             x2="2.48"
             y2="45"
             id="line166" />
          <line
             class="cls-8"
             x1="-70.96"
             y1="41"
             x2="2.48"
             y2="41"
             id="line168" />
          <line
             class="cls-8"
             x1="-70.96"
             y1="37"
             x2="2.48"
             y2="37"
             id="line170" />
          <line
             class="cls-8"
             x1="-70.96"
             y1="33"
             x2="2.48"
             y2="33"
             id="line172" />
          <line
             class="cls-8"
             x1="-70.96"
             y1="29"
             x2="2.48"
             y2="29"
             id="line174" />
          <line
             class="cls-8"
             x1="-70.96"
             y1="25"
             x2="2.48"
             y2="25"
             id="line176" />
          <line
             class="cls-8"
             x1="-70.96"
             y1="21"
             x2="2.48"
             y2="21"
             id="line178" />
          <line
             class="cls-8"
             x1="-70.96"
             y1="17"
             x2="2.48"
             y2="17"
             id="line180" />
          <line
             class="cls-8"
             x1="-70.96"
             y1="13"
             x2="2.48"
             y2="13"
             id="line182" />
          <line
             class="cls-8"
             x1="-70.96"
             y1="9"
             x2="2.48"
             y2="9"
             id="line184" />
          <line
             class="cls-8"
             x1="-70.96"
             y1="5"
             x2="2.48"
             y2="5"
             id="line186" />
          <line
             class="cls-8"
             x1="-70.96"
             y1="1"
             x2="2.48"
             y2="1"
             id="line188" />
        </g>
      </g>
    </pattern>
  </defs>
  <path
     style="opacity:1;vector-effect:none;fill:#cccccc;fill-opacity:1;fill-rule:nonzero;stroke:none;stroke-width:4.49546146;stroke-linecap:butt;stroke-linejoin:miter;stroke-miterlimit:4;stroke-dasharray:none;stroke-dashoffset:0;stroke-opacity:1"
     d="M -0.08007812,0.36132812 V 80.361328 H 68.919922 V 0.36132812 Z"
     id="rect4304" />
  <g
     id="Characters">
    <g
       id="g292">
      <path
         class="cls-1"
         d="M60.44,68.08c-.95,6.39-1.9,6.74-1.9,6.74,0,0-40.26,6.39-50.71-3.46,.77-2.96,2.16-3.36,2.16-3.36,0,0,8.12-3.63,13.04-4.41,1.73-5.96,1.99-7.78,1.99-7.78,0,0-4.67-3.02-6.05-6.91-1.73,1.21-3.8-.17-4.15-1.81-.34-1.64,2.6-2.59,2.6-2.59,0,0-2.23-3.26-3.02-7.47,0-.02-.01-.03-.01-.05-.55-.27-1.06-.59-1.52-.95-2.3-1.76-3.56-4.29-3.65-4.48,.04,.02,.19,.1,.43,.21,.94,.44,3.26,1.28,5.26,.21,.61-2.25,1.3-2.59,1.3-2.59l1.03,1.12,1.3-.86s1.21-7.51,8.36-13.9c-.44,.11-7.12,1.78-8.97-1.48-1.9-3.37,4.58-8.29,4.58-8.29,0,0,15.64-.35,18.92,.17,1.56,2.51,.26,4.32,.26,4.32,0,0,2.59-3.02,3.03-3.97,.6,3.19-1.39,5.35-6.4,7.25,7,2.33,9.25,6.22,10.97,9.51,.22,.41,.41,.82,.58,1.23,.01,.02,.02,.04,.02,.06,.7,1.64,1.07,3.2,1.32,4.29,.17,.79,.29,1.35,.42,1.5,.07-.03,.14-.05,.21-.08,1.48-.54,2.03-.7,2.03-.7,0,0,.85,2.02,1.3,4.37,.01,.08,.02,.16,.04,.24,.15,.84,.24,1.72,.22,2.56-.09,3.29-3.2,7.86-3.2,7.86,0,0,2.42-.34,3.11,1.39,.69,1.72-1.21,4.92-4.32,2.93-2.42,3.72-6.13,6.91-6.13,6.91l2.42,7.61s9.67,1.72,13.13,4.66Z"
         id="path198" />
      <path
         class="cls-19"
         d="m 43.84,28.53 c 0.09,0.35 0.88,3.13 3.46,4.89 -6.29,-0.5 -8.23,-7.07 -8.32,-7.38 0,0.22 -0.06,3.14 -3.41,7.52 -4.19,4.93 -10.13,4.93 -10.13,4.93 0,0 9.77,-5.51 8.98,-10.86 -3.99,8.03 -11.51,10.57 -14.55,10.49 -1.75,-0.04 -3.9,-0.39 -5.47,-1.09 -0.62,-0.28 -1.15,-0.61 -1.53,-1 -0.33,-0.34 -0.55,-0.73 -0.61,-1.16 -0.5,-0.29 -2.67,-2.68 -2.67,-2.68 l 0.06,-0.43 c 0.94,0.44 3.26,1.28 5.26,0.21 0.61,-2.25 1.3,-2.59 1.3,-2.59 l 1.03,1.12 1.3,-0.86 c 0,0 1.21,-7.51 8.36,-13.9 -0.44,0.11 -7.12,1.78 -8.97,-1.48 -1.9,-3.37 8.817288,-11.1713559 8.817288,-11.1713559 0,0 8.351865,-0.35 11.631865,0.17 1.56,2.51 3.310847,7.2013559 3.310847,7.2013559 0,0 2.59,-3.02 3.03,-3.97 0.6,3.19 -1.39,5.35 -6.4,7.25 7,2.33 9.25,6.22 10.97,9.51 0.22,0.41 0.41,0.82 0.58,1.23 0.01,0.02 0.02,0.04 0.02,0.06 0.29,1.14 0.69,2.73 1.32,4.29 0.18,0.48 0.39,0.96 0.63,1.42 0.8,1.58 1.87,2.98 3.33,3.67 0.17,0.09 0.35,0.16 0.53,0.22 -0.16,0 -0.33,0.02 -0.49,0.02 -6.48,0.06 -11.09,-5.31 -11.37,-5.63 z"
         id="path200"
         inkscape:connector-curvature="0"
         style="fill:#b83521"
         sodipodi:nodetypes="cccccccccccccccccccccccccccccccc" />
      <path
         class="cls-17"
         d="M25.42,23.19s-1.86,4.69,4.02,3.5c2.75-.52,4.61,.74,4.61,.74l-2.9,4.76s.52-3.05-4.47-1.79-4.54-3.87-4.54-3.87c0,0,2.01-2.83,3.27-3.35Z"
         id="path202" />
      <path
         class="cls-17"
         d="M35.05,27.49s1.47,1.41,3.51-.19c-.45,2.88-3,5.75-3,5.75,0,0-1.02-1.47-2.04-1.15,1.34-2.04,1.53-4.41,1.53-4.41Z"
         id="path204" />
      <path
         class="cls-17"
         d="M39.72,27.56s2.04,.83,3.45-.32c1.21,2.81,2.94,4.54,2.94,4.54,0,0-2.3-.38-3,.26-2.62-2.62-3.39-4.47-3.39-4.47Z"
         id="path206" />
      <path
         class="cls-17"
         d="M44.06,27.62s6.77,1.47,6.39-1.47c1.66,4.54,2.11,4.86,2.11,4.86,0,0-2.88,1.66-6.65-.77-1.85-1.66-1.85-2.62-1.85-2.62Z"
         id="path208" />
      <path
         class="cls-17"
         d="M41.3,10.36s-.56-4.51-6.53-1.69-13.54,.97-16.28,6.29c-1.45-2.02,.64-5.8,.64-5.8,0,0,2.26,2.98,14.75-2.34,3.71-1.93,7.34-.97,7.34-.97,0,0,1.21,2.1,.08,4.51Z"
         id="path210" />
      <path
         class="cls-17"
         d="M48.23,21.65s-10.24-9.43-25.15-1.77c3.22-3.47,18.38-10.96,25.15,1.77Z"
         id="path212" />
      <path
         d="M23.66,18.59s-1.34,5.26,3.59,3.59c-5.76,6.09-8.85,7.76-8.85,7.76,0,0,1.67-7.84,5.26-11.35Z"
         id="path214" />
      <path
         class="cls-10"
         d="M31.25,41.39s-3.96-3.3-8.67-2.23c1.82,2.81,7.1,2.73,8.67,2.23Z"
         id="path216" />
      <path
         class="cls-9"
         d="M34.89,59.44v-25.51s3.22-3.18,4.09-7.89c2.21,5.6,5.36,7.8,8.42,7.7-3.73-3.34-3.56-5.21-3.56-5.21,0,0,4.42,4.35,7.57,4.92,.48,7.07,.96,14.04-1.43,17.39s-8.12,7.64-15.09,8.6Z"
         id="path218" />
      <path
         class="cls-10"
         d="M38.81,41.4s4-3.4,9.06-2.19c-3.77,3.7-9.06,2.19-9.06,2.19Z"
         id="path220" />
      <path
         class="cls-9"
         d="M32.1,51.06h6.04s.23,2.26-1.96,3.4-4.6-1.81-4.08-3.4"
         id="path222" />
      <path
         d="M18.03,44.79s-2.78-.51-3.1,2.09c-.25,2.59,2.83,2.78,4.04,2.02-.88-2.21-.94-4.11-.94-4.11Z"
         id="path224" />
      <path
         class="cls-19"
         d="M51.93,44.79s2.78-.51,3.1,2.09c.25,2.59-2.83,2.78-4.04,2.02,.88-2.21,.94-4.11,.94-4.11Z"
         id="path226" />
      <path
         d="M19.74,64.59s-7.46,1.31-10.54,3.36c.56,5.13,1.77,5.87,1.77,5.87,0,0,29.46,6.06,49.41-.47,0-4.1-.28-5.41-.28-5.41,0,0-8.39-3.17-9.42-2.98-2.8,4.85-6.15,7.74-17.81,7.55s-13.15-7.92-13.15-7.92Z"
         id="path228" />
      <path
         class="cls-14"
         d="M51.25,65.16s-3.55,5.66-10.64,9.2c13.8-.58,17.73-2.3,17.73-2.3l1.05-3.93s-2.97-2.2-8.15-2.97Z"
         id="path230" />
      <path
         d="M44.89,55.81l-19.99,18.03-7.08-9.09,5.21-1.16,1.99-7.78s6.02,4.22,10.74,3.28,9.13-3.28,9.13-3.28Z"
         id="path232" />
      <path
         class="cls-11"
         d="M37.83,34.56l.54,6.94s3.95-3.21,9.49-2.28c.1-1.59,.24-3.02-2.42-4.18s-6.05-1.16-7.62-.48Z"
         id="path234" />
      <polygon
         class="cls-14"
         points="25.04 59.15 23.66 64.18 11.14 67.72 12.03 69.6 25.34 65.36 25.04 59.15"
         id="polygon236" />
      <path
         class="cls-9"
         d="M22.6,42.49s4.05,1.45,8.11,.87c-4.63,3.33-6.66,1.45-8.11-.87Z"
         id="path238" />
      <path
         d="M30.99,50.73s1.63-1.63,3.95-1.63,4.08,1.17,4.54,1.78c-3.45,.66-7.31,.36-8.49-.15Z"
         id="path240" />
      <path
         class="cls-19"
         d="M39.55,51.19s-.43,4.26-4.18,4.39h-.82c-3.75-.13-4.18-4.39-4.18-4.39l1.39,.1s1.31,1.87,3.2,1.87c1.89,0,3.2-1.87,3.2-1.87l1.39-.1Z"
         id="path242" />
      <path
         class="cls-1"
         d="M39.3,29.87c1.93,3.14,5.2,5.22,8.67,5.38h.08s.04,0,.04,0c.61,0,1.16-.39,1.37-.98,.28,.12,.56,.24,.84,.35v3.61s0,.05,0,.05v.05c.01,.09,.86,9.17-2.58,12.9-3.71,4.04-9.42,6.55-12.57,6.55h-.46c-3.15,0-8.86-2.5-12.57-6.55-2.7-2.93-2.74-9.26-2.65-11.71,1.07-.04,2.16-.2,3.24-.45,.06,.13,.14,.26,.23,.37,.25,.3,.6,.48,.98,.52,.51,.07,1.04,.11,1.57,.11,1.53,0,3.1-.32,4.56-.93,4.15-1.86,7.52-5.29,9.23-9.27m-.16-2.63c-1.2,4.82-5.02,8.99-9.48,10.99-1.3,.55-2.72,.85-4.15,.85-.48,0-.97-.03-1.45-.11-.27-.02-.47-.26-.45-.53,.02-.23,.18-.39,.39-.45,4.22-1.22,8.51-3.81,9.95-8.19,.12-.34,.23-.7,.31-1.06-.66,1.38-1.48,2.67-2.46,3.85-2.76,3.42-8.06,5.94-12.92,5.94-.11,0-.22,0-.34,0-.12,1.58-.54,9.69,2.86,13.38,3.95,4.3,9.87,6.87,13.31,6.87h.46c3.44,0,9.36-2.57,13.31-6.87,3.76-4.08,2.85-13.58,2.84-13.68v-4.31c-2.48-.81-4.73-2.29-6.48-4.24,.89,1.47,2.11,2.76,3.53,3.69,.38,.26,.16,.89-.27,.89-.01,0-.03,0-.04,0-4.16-.2-7.57-3.23-8.92-7.02h0Z"
         id="path244" />
      <path
         d="M17.96,44.79s-3.53-3.59-3.23-7.55c1.58,.73,3.23,1.03,3.23,1.03v6.51Z"
         id="path246" />
      <path
         d="M15.08,31.87l1-2.36,1.42,1.31s-1.26,.63-2.41,1.05Z"
         id="path248" />
      <path
         class="cls-9"
         d="M30.85,70.53l13.13-12.23,1.47,6.23,3.17,1.36s-4.08,6.11-17.77,4.64Z"
         id="path250" />
      <path
         class="cls-4"
         d="M37.81,13.65c8.66-1.88,7.03-7.93,7.03-7.93,0,0-.74,3.11-3.51,4.9,1.63-3.84,.16-5.88-7.11-7.03s-17.98,4.41-16.26,10.13c1.39,4.41,9.32,1.8,9.32,1.8"
         id="path252" />
      <path
         d="M29.98,29.78c-2.89,2.8-6.42,5.12-10.44,5.91-4.42,.93-9.84-.4-11.73-4.96,0,0,1.24,.43,1.24,.43,12.64,4.21,13.93-17.13,29.2-8.46,0,0-.57,.01-.57,.01,3.09-2.01,7.51-2.41,10.35,.22,.9,.82,1.63,1.78,2.18,2.83-1.35-1.86-3.24-3.49-5.55-3.83-2.34-.37-4.78,.48-6.66,1.81-5.32-3.13-10.42-2.53-14.55,2.14-3.81,4.06-8.66,8.65-14.73,6.22,0,0,.61-.7,.61-.7,.86,1.58,2.59,2.64,4.38,3.14,5.72,1.58,11.56-1.52,15.58-5.47,.47-.46,1.17,.26,.7,.72h0Z"
         id="path254" />
      <path
         d="M11.37,34.03c2.9,4.39,9.19,3.93,13.59,2.27,4.74-1.82,8.3-6.19,9.55-11.04,.07-.26,.34-.42,.6-.35,.2,.05,.35,.23,.37,.43,.18,1.68-.06,3.27-.59,4.8-.53,1.53-1.38,2.93-2.45,4.12-2.15,2.35-5.16,3.78-8.16,4.7,0,0-.06-.97-.06-.97,1.71,.26,3.47,.02,5.09-.63,4.68-2.04,8.76-6.81,9.35-11.94,0-.22,.2-.4,.42-.39,.18,0,.34,.14,.38,.31,.79,4.13,4.3,7.76,8.6,7.93,0,0-.27,.93-.28,.91-2.76-1.84-4.81-4.75-5.29-8.08-.09-.56,.76-.78,.96-.25,2.22,4.55,7.01,7.76,12.12,7.77,0,0-.25,.94-.25,.94-2.75-1.53-4.42-4.64-5.15-7.44-1.08-3.68-2.92-7.19-5.82-9.66-5.76-5.05-15.51-4.6-20.23,1.66-2.43,2.93-4.04,6.57-4.94,10.25-.05,.28-.33,.47-.61,.4-.27-.07-.43-.33-.37-.6,.46-1.97,1.13-3.82,1.98-5.63,2.43-5.43,7.35-10.32,13.6-10.52,4-.14,8.16,.99,11.22,3.69,3.09,2.64,5.01,6.35,6.12,10.13,.71,2.69,2.22,5.48,4.7,6.87,.45,.24,.24,.97-.27,.93-5.5-.03-10.62-3.43-13.01-8.37,0,0,.96-.25,.96-.25,.44,2.99,2.37,5.71,4.88,7.37,.39,.27,.16,.93-.31,.89-4.77-.24-8.57-4.2-9.39-8.76-.02-.02,.8-.08,.8-.09-.58,5.58-4.79,10.57-9.81,12.82-1.74,.72-3.7,1.02-5.6,.74-.27-.02-.47-.26-.45-.53,.02-.23,.18-.39,.39-.45,4.22-1.23,8.51-3.82,9.95-8.19,.49-1.38,.69-2.92,.55-4.32l.98,.03c-.69,2.64-1.96,5.01-3.68,7.08-4.63,5.75-16.46,8.97-21.31,1.9-.34-.61,.58-1.1,.89-.46h0Z"
         id="path256" />
      <path
         class="cls-5"
         d="M17.21,30.37l-1.02-1.09s-.86,1.17-1.02,2.42"
         id="path258" />
      <path
         class="cls-5"
         d="M14.56,37.48s.31,5.08,3.59,7.27"
         id="path260" />
      <path
         class="cls-2"
         d="M51.81,33.81v4.38s.99,9.77-2.96,14.06-10.03,7.03-13.68,7.03h-.46c-3.65,0-9.73-2.73-13.68-7.03s-2.96-14.06-2.96-14.06"
         id="path262" />
      <path
         class="cls-5"
         d="M52.14,30.51l1.54-1.08s4.14,8.91-1.25,14.69"
         id="path264" />
      <path
         class="cls-5"
         d="M18.97,48.9c-.45,.45-.91,.61-1.6,.61-1.38,0-2.5-1.12-2.5-2.5s1.12-2.5,2.5-2.5c.29,0,.56,.05,.82,.14"
         id="path266" />
      <path
         class="cls-5"
         d="M51.17,48.78c.45,.45,1.08,.73,1.77,.73,1.38,0,2.5-1.12,2.5-2.5s-1.12-2.5-2.5-2.5c-.29,0-.56,.05-.82,.14"
         id="path268" />
      <path
         class="cls-5"
         d="M25.12,55.65l-2.11,8s-7.03,1.41-14.42,4.75"
         id="path270" />
      <path
         class="cls-5"
         d="M45,55.65l2.11,8s7.03,1.41,14.42,4.75"
         id="path272" />
      <path
         class="cls-5"
         d="M19.6,64.56s.63,7.93,15.23,7.93,15.8-7.62,15.8-7.62"
         id="path274" />
      <path
         d="M28.89,50.51c4.19,.43,8.28,.32,12.48,.15-3.86,1.76-8.69,1.84-12.48-.15h0Z"
         id="path276" />
      <path
         class="cls-5"
         d="M37.5,44.97c.18,.2,.28,.43,.28,.67,0,.83-1.17,1.49-2.61,1.49s-2.61-.67-2.61-1.49c0-.21,.07-.4,.21-.58"
         id="path278" />
      <path
         d="M37.58,33.35s0,1.25,.37,1.93c3.24-.64,5.3-.71,6.62-.24s3.14,1.93,3.14,1.93c0,0-1.62-3.11-4.26-3.58s-5.88-.03-5.88-.03Z"
         id="path280" />
      <polygon
         points="32.58 33.29 30.69 33.22 28.93 34.97 30.99 35.11 32.58 33.29"
         id="polygon282" />
      <path
         d="M47.84,39.53c-2.99-.32-6.57-.16-8.71,2.19,0,0-.18-.63-.18-.63,3.02,.93,6.28-.08,8.67-2.04,.17-.14-.07,.04-.03,.2,0,.14,.14,.27,.27,.28h0Zm.13-1.07c.56,.04,.9,.79,.52,1.23-.57,.54-1.21,.91-1.9,1.31-2.38,1.3-5.27,1.62-7.86,.84,0,0-.58-.17-.58-.17l.4-.46c2.35-2.61,6.12-3.09,9.43-2.75h0Z"
         id="path284" />
      <path
         d="M39.66,39.41c.39-.66,.79-1.26,1.44-1.72,1.61-.39,3.36-.33,4.89,.3,0,0-1.21-.04-1.21-.04-1.08-.04-2.67,.1-3.48,.17-.5,.24-1.19,.92-1.65,1.29h0Z"
         id="path286" />
      <path
         d="M22.21,38.46c3.3-.34,7.07,.14,9.43,2.75,0,0,.4,.46,.4,.46l-.58,.17c-2.59,.78-5.48,.47-7.86-.84-.69-.4-1.33-.77-1.9-1.31-.38-.44-.05-1.19,.52-1.23h0Zm.13,1.07c.13,0,.26-.14,.27-.28,.04-.16-.2-.34-.03-.2,2.38,1.97,5.65,2.97,8.67,2.04,0,0-.18,.63-.18,.63-2.15-2.35-5.72-2.51-8.71-2.19h0Z"
         id="path288" />
      <path
         d="M30.51,39.41c-.46-.37-1.15-1.04-1.65-1.29-.81-.07-2.39-.21-3.48-.17,0,0-1.21,.04-1.21,.04,1.54-.63,3.28-.69,4.89-.3,.66,.46,1.05,1.06,1.44,1.72h0Z"
         id="path290" />
    </g>
  </g>
  <path
     style="opacity:1;vector-effect:none;fill:#8d5fd3;fill-opacity:1;fill-rule:nonzero;stroke:none;stroke-width:2.35769176;stroke-linecap:butt;stroke-linejoin:miter;stroke-miterlimit:4;stroke-dasharray:none;stroke-dashoffset:0;stroke-opacity:0.44186048"
     d="M 0,1.2e-7 V 80 H 69 V 1.2e-7 Z M 35.240234,4.658203 c 6.067554,0.1120422 16.269844,1.4698438 23.589844,3.8398438 3.46,9.2400002 5.269531,19.9506252 5.269531,31.1406252 0,11.47 -1.89,22.390234 -5.5,31.740234 -7.2,2.16 -14.940375,3.376539 -23.019531,3.259766 -8.580486,-0.124019 -18.036001,-1.572896 -25.240234,-3.86914 -3.4500003,-9.22 -5.2597659,-19.930859 -5.2597659,-31.130859 0,-11.2 1.8904687,-22.380469 5.4804689,-31.730469 C 17.682894,5.1336941 29.17268,4.5461608 35.240234,4.658203 Z"
     id="path295" />
</svg>
