<svg id="Capa_2" xmlns="http://www.w3.org/2000/svg" xmlns:xlink="http://www.w3.org/1999/xlink" viewBox="0 0 69.02 80">
<defs >
<style >
.cls-1{fill:#fff;}.cls-2{fill:#f8ffbf;}.cls-3{fill:#7b7be8;}.cls-4{fill:#a88347;}.cls-5{fill:#782ab5;}.cls-6,.cls-7,.cls-8,.cls-9,.cls-10{stroke:#000;stroke-miterlimit:10;}.cls-6,.cls-7,.cls-11,.cls-9,.cls-10,.cls-12,.cls-13{fill:none;}.cls-7{stroke-width:1.01px;}.cls-7,.cls-8,.cls-11,.cls-9{stroke-linecap:round;}.cls-8{fill:#b83521;}.cls-8,.cls-9{stroke-width:1.1px;}.cls-11{stroke:#deb778;stroke-dasharray:0 0 0 4.06;stroke-linejoin:round;}.cls-14{fill:#deb778;}.cls-10{stroke-width:1.09px;}.cls-15{fill:url(#USGS_19_Inundación_de_tierra_2);}.cls-13{stroke:#1d1d1b;stroke-dasharray:0 0 2 2;stroke-width:.3px;}.cls-16{fill:#ddb3f5;}.cls-17{fill:#fcf0c5;}
</style>
<pattern id="USGS_19_Inundación_de_tierra_2" x="0" y="0" width="72" height="72" patternTransform="translate(-236.48 -16063) rotate(-90)" patternUnits="userSpaceOnUse" viewBox="0 0 72 72">
<g >
<rect class="cls-12" width="72" height="72">
</rect>
<g >
<line class="cls-13" x1="71" y1="71" x2="144.44" y2="71">
</line>
<line class="cls-13" x1="71" y1="67" x2="144.44" y2="67">
</line>
<line class="cls-13" x1="71" y1="63" x2="144.44" y2="63">
</line>
<line class="cls-13" x1="71" y1="59" x2="144.44" y2="59">
</line>
<line class="cls-13" x1="71" y1="55" x2="144.44" y2="55">
</line>
<line class="cls-13" x1="71" y1="51" x2="144.44" y2="51">
</line>
<line class="cls-13" x1="71" y1="47" x2="144.44" y2="47">
</line>
<line class="cls-13" x1="71" y1="43" x2="144.44" y2="43">
</line>
<line class="cls-13" x1="71" y1="39" x2="144.44" y2="39">
</line>
<line class="cls-13" x1="71" y1="35" x2="144.44" y2="35">
</line>
<line class="cls-13" x1="71" y1="31" x2="144.44" y2="31">
</line>
<line class="cls-13" x1="71" y1="27" x2="144.44" y2="27">
</line>
<line class="cls-13" x1="71" y1="23" x2="144.44" y2="23">
</line>
<line class="cls-13" x1="71" y1="19" x2="144.44" y2="19">
</line>
<line class="cls-13" x1="71" y1="15" x2="144.44" y2="15">
</line>
<line class="cls-13" x1="71" y1="11" x2="144.44" y2="11">
</line>
<line class="cls-13" x1="71" y1="7" x2="144.44" y2="7">
</line>
<line class="cls-13" x1="71" y1="3" x2="144.44" y2="3">
</line>
</g>
<g >
<line class="cls-13" x1="-1" y1="71" x2="72.44" y2="71">
</line>
<line class="cls-13" x1="-1" y1="67" x2="72.44" y2="67">
</line>
<line class="cls-13" x1="-1" y1="63" x2="72.44" y2="63">
</line>
<line class="cls-13" x1="-1" y1="59" x2="72.44" y2="59">
</line>
<line class="cls-13" x1="-1" y1="55" x2="72.44" y2="55">
</line>
<line class="cls-13" x1="-1" y1="51" x2="72.44" y2="51">
</line>
<line class="cls-13" x1="-1" y1="47" x2="72.44" y2="47">
</line>
<line class="cls-13" x1="-1" y1="43" x2="72.44" y2="43">
</line>
<line class="cls-13" x1="-1" y1="39" x2="72.44" y2="39">
</line>
<line class="cls-13" x1="-1" y1="35" x2="72.44" y2="35">
</line>
<line class="cls-13" x1="-1" y1="31" x2="72.44" y2="31">
</line>
<line class="cls-13" x1="-1" y1="27" x2="72.44" y2="27">
</line>
<line class="cls-13" x1="-1" y1="23" x2="72.44" y2="23">
</line>
<line class="cls-13" x1="-1" y1="19" x2="72.44" y2="19">
</line>
<line class="cls-13" x1="-1" y1="15" x2="72.44" y2="15">
</line>
<line class="cls-13" x1="-1" y1="11" x2="72.44" y2="11">
</line>
<line class="cls-13" x1="-1" y1="7" x2="72.44" y2="7">
</line>
<line class="cls-13" x1="-1" y1="3" x2="72.44" y2="3">
</line>
<line class="cls-13" x1="1.04" y1="69" x2="74.48" y2="69">
</line>
<line class="cls-13" x1="1.04" y1="65" x2="74.48" y2="65">
</line>
<line class="cls-13" x1="1.04" y1="61" x2="74.48" y2="61">
</line>
<line class="cls-13" x1="1.04" y1="57" x2="74.48" y2="57">
</line>
<line class="cls-13" x1="1.04" y1="53" x2="74.48" y2="53">
</line>
<line class="cls-13" x1="1.04" y1="49" x2="74.48" y2="49">
</line>
<line class="cls-13" x1="1.04" y1="45" x2="74.48" y2="45">
</line>
<line class="cls-13" x1="1.04" y1="41" x2="74.48" y2="41">
</line>
<line class="cls-13" x1="1.04" y1="37" x2="74.48" y2="37">
</line>
<line class="cls-13" x1="1.04" y1="33" x2="74.48" y2="33">
</line>
<line class="cls-13" x1="1.04" y1="29" x2="74.48" y2="29">
</line>
<line class="cls-13" x1="1.04" y1="25" x2="74.48" y2="25">
</line>
<line class="cls-13" x1="1.04" y1="21" x2="74.48" y2="21">
</line>
<line class="cls-13" x1="1.04" y1="17" x2="74.48" y2="17">
</line>
<line class="cls-13" x1="1.04" y1="13" x2="74.48" y2="13">
</line>
<line class="cls-13" x1="1.04" y1="9" x2="74.48" y2="9">
</line>
<line class="cls-13" x1="1.04" y1="5" x2="74.48" y2="5">
</line>
<line class="cls-13" x1="1.04" y1="1" x2="74.48" y2="1">
</line>
</g>
<g >
<line class="cls-13" x1="-73" y1="71" x2=".44" y2="71">
</line>
<line class="cls-13" x1="-73" y1="67" x2=".44" y2="67">
</line>
<line class="cls-13" x1="-73" y1="63" x2=".44" y2="63">
</line>
<line class="cls-13" x1="-73" y1="59" x2=".44" y2="59">
</line>
<line class="cls-13" x1="-73" y1="55" x2=".44" y2="55">
</line>
<line class="cls-13" x1="-73" y1="51" x2=".44" y2="51">
</line>
<line class="cls-13" x1="-73" y1="47" x2=".44" y2="47">
</line>
<line class="cls-13" x1="-73" y1="43" x2=".44" y2="43">
</line>
<line class="cls-13" x1="-73" y1="39" x2=".44" y2="39">
</line>
<line class="cls-13" x1="-73" y1="35" x2=".44" y2="35">
</line>
<line class="cls-13" x1="-73" y1="31" x2=".44" y2="31">
</line>
<line class="cls-13" x1="-73" y1="27" x2=".44" y2="27">
</line>
<line class="cls-13" x1="-73" y1="23" x2=".44" y2="23">
</line>
<line class="cls-13" x1="-73" y1="19" x2=".44" y2="19">
</line>
<line class="cls-13" x1="-73" y1="15" x2=".44" y2="15">
</line>
<line class="cls-13" x1="-73" y1="11" x2=".44" y2="11">
</line>
<line class="cls-13" x1="-73" y1="7" x2=".44" y2="7">
</line>
<line class="cls-13" x1="-73" y1="3" x2=".44" y2="3">
</line>
<line class="cls-13" x1="-70.96" y1="69" x2="2.48" y2="69">
</line>
<line class="cls-13" x1="-70.96" y1="65" x2="2.48" y2="65">
</line>
<line class="cls-13" x1="-70.96" y1="61" x2="2.48" y2="61">
</line>
<line class="cls-13" x1="-70.96" y1="57" x2="2.48" y2="57">
</line>
<line class="cls-13" x1="-70.96" y1="53" x2="2.48" y2="53">
</line>
<line class="cls-13" x1="-70.96" y1="49" x2="2.48" y2="49">
</line>
<line class="cls-13" x1="-70.96" y1="45" x2="2.48" y2="45">
</line>
<line class="cls-13" x1="-70.96" y1="41" x2="2.48" y2="41">
</line>
<line class="cls-13" x1="-70.96" y1="37" x2="2.48" y2="37">
</line>
<line class="cls-13" x1="-70.96" y1="33" x2="2.48" y2="33">
</line>
<line class="cls-13" x1="-70.96" y1="29" x2="2.48" y2="29">
</line>
<line class="cls-13" x1="-70.96" y1="25" x2="2.48" y2="25">
</line>
<line class="cls-13" x1="-70.96" y1="21" x2="2.48" y2="21">
</line>
<line class="cls-13" x1="-70.96" y1="17" x2="2.48" y2="17">
</line>
<line class="cls-13" x1="-70.96" y1="13" x2="2.48" y2="13">
</line>
<line class="cls-13" x1="-70.96" y1="9" x2="2.48" y2="9">
</line>
<line class="cls-13" x1="-70.96" y1="5" x2="2.48" y2="5">
</line>
<line class="cls-13" x1="-70.96" y1="1" x2="2.48" y2="1">
</line>
</g>
</g>
</pattern>
</defs>
  <path
     style="opacity:1;vector-effect:none;fill:#cccccc;fill-opacity:1;fill-rule:nonzero;stroke:none;stroke-width:4.49546146;stroke-linecap:butt;stroke-linejoin:miter;stroke-miterlimit:4;stroke-dasharray:none;stroke-dashoffset:0;stroke-opacity:1"
     d="M -0.08007812,0.36132812 V 80.361328 H 68.919922 V 0.36132812 Z"
     id="rect4304"/>

<g id="Characters">
<g >
<path class="cls-3" d="M46.64,49.88c-.85,1.33-3.51,4.84-3.51,4.84,0,0,0,2.66,.12,5.32,.24,2.05,3.99,3.63,3.99,3.63l13.79,4.11-.73,5.92s-11,3.39-23.82,3.63c-12.82,.24-26.96-3.51-26.96-3.51l-.12-5.8s11.36-3.63,14.26-4.72c2.91-1.08,2.79-2.66,2.79-2.66l-.25-6.89s-.72-.72-2.66-3.87c-.1,0-.21,0-.31-.02-12.96-.41-18.31-12.43-18.31-12.43,0,0-1.33-17.05,3.51-30.47,18.5-11,52.35-.85,52.35-.85,0,0,7.62,25.52,3.39,32.65-4.23,7.13-8.58,9.67-17.52,11.12h-.01Z">
</path>
<path d="M64.17,38.76c-4.23,7.13-8.58,9.67-17.52,11.12,.46-1.47,1.65-5.24,1.97-5.78,3.26,1.08,5.16-5.29,4.88-10.44-2.57,5.02-3.79,5.15-3.79,5.15,0,0,1.08-10.3-1.36-13.69s-9.35-6.51-18.16-4.34c-8.81,2.17-10.85,5.43-9.49,18.44-2.98-2.44-3.8-5.42-3.8-5.42,0,0-.68,4.61,.82,8.13,1.49,2.71,3.66,2.58,3.66,2.58,0,0,1.04,3.05,1.85,5.35-12.96-.41-18.31-12.43-18.31-12.43,0,0-1.33-17.05,3.51-30.47,18.5-11,52.35-.85,52.35-.85,0,0,7.62,25.52,3.39,32.65Z">
</path>
<path class="cls-16" d="M34.84,59.17V29.31c0-6.92,8.89-10.27,13.1-4.77,.14,.19,.28,.38,.41,.59,2.85,5.72,.56,18.32-1.53,24.16s-9.17,9.9-11.98,9.9Z">
</path>
<path class="cls-3" d="M37.6,34.38l1.55,5.65s3.16-2.36,6.87-.4c1.35-2.63,1.95-5.25,1.95-5.25,0,0-1.41-2.22-4.11-1.68s-6.26,1.68-6.26,1.68Z">
</path>
<path class="cls-2" d="M30.92,40.04s-2.95-2.54-6.66-.46c2.19,1.57,4.35,1.7,6.66,.46Z">
</path>
<path class="cls-2" d="M39.17,40.04s2.95-2.54,6.66-.46c-2.19,1.57-4.35,1.7-6.66,.46Z">
</path>
<path class="cls-1" d="M30.84,51.16l2.64-1.56h3.48l1.44,1.56s-1.32,2.16-3.96,2.4-3.6-2.4-3.6-2.4Z">
</path>
<path class="cls-16" d="M24.58,42.28s3.18,.99,5.56-.1c-1.86,4.79-4.66,3.92-5.56,.1Z">
</path>
<path class="cls-16" d="M41.47,57.66l-11.78,13.17s9.32,3.11,18.96-5.25c-6.96-.86-7.39-4.28-7.18-7.93Z">
</path>
<path d="M39.97,57.45l-16.92,16.28-12.32-2.57-1.07-3.64,12.85-3.96s3.8-.37,3.94-2.92,.35-6.4,.35-6.4c0,0,4.28,3.75,6.21,4.18s4.61-.11,4.61-.11l2.36-.86Z">
</path>
<path class="cls-1" d="M50.66,64.67l3.14,1.05-5.85,7.84s-15.37,3.45-26.13-.21c2.4-2.09,3.66-2.61,3.66-2.61,0,0,5.02,2.82,11.71,1.88s11.71-3.76,13.48-7.94Z">
</path>
<path class="cls-1" d="M24.17,56.45s-2.57-3.96-4.33-4.7c-3.6,2.86-4.33,4.7-4.33,4.7,0,0,2.79,4.18,4.7,4.48,3.16-1.98,3.96-4.48,3.96-4.48Z">
</path>
<path class="cls-1" d="M49.57,51.68s-3.16,2.13-4.26,4.92c2.35,3.45,3.96,4.26,3.96,4.26,0,0,3.67-2.57,4.18-4.7-1.98-3.3-3.89-4.48-3.89-4.48Z">
</path>
<path class="cls-4" d="M49.21,52.06v8.8s-3.62-2.87-3.89-4.26c2.23-3.8,3.89-4.54,3.89-4.54Z">
</path>
<path class="cls-4" d="M20.17,52.06v8.8s-3.62-2.87-3.89-4.26c2.23-3.8,3.89-4.54,3.89-4.54Z">
</path>
<path class="cls-3" d="M35.29,22.21c2.3,0,8.72,.64,10.84,3.48,2.3,3.06,1.86,10.79,1.49,13.51l-.2,1.46-.07-.05-.6,2.98c-1.06,5.29-4.1,9.5-9.05,12.52-.79,.48-1.71,.74-2.65,.74s-1.86-.26-2.65-.74c-4.95-3.01-7.99-7.22-9.05-12.52l-.61-2.97-.06,.04-.2-1.46c-.36-2.72-.81-10.44,1.48-13.51,2.12-2.84,8.54-3.47,10.83-3.48h.49m0-2h-.49s-9.24,0-12.43,4.28c-3.29,4.4-1.86,14.97-1.86,14.97,0,0-2.53-3.08-3.63-5.95-1.28,4.4,1.01,10.79,3.54,10.79,.32,0,.65-.1,.97-.32,1.19,5.93,4.6,10.56,9.97,13.83,1.13,.69,2.41,1.03,3.69,1.03s2.56-.34,3.69-1.03c5.38-3.27,8.79-7.9,9.97-13.83,.32,.22,.65,.32,.97,.32,2.53,0,4.82-6.38,3.54-10.79-1.1,2.87-3.63,5.95-3.63,5.95,0,0,1.43-10.57-1.87-14.97-3.18-4.28-12.43-4.28-12.43-4.28h0Z">
</path>
<path class="cls-1" d="M38.04,31.71s4.74-.76,7.39-.57c-1.9-2.65-3.98-2.75-7.39,.57Z">
</path>
<path class="cls-1" d="M38.8,42.23s3.89,1.14,6.83,.28c-1.99,3.51-4.46,3.89-6.83-.28Z">
</path>
<path class="cls-9" d="M35.3,20.21s9.25,0,12.43,4.28c3.3,4.4,1.87,14.97,1.87,14.97,0,0,2.53-3.08,3.63-5.95,1.44,4.96-1.65,12.43-4.51,10.46-1.19,5.93-4.6,10.56-9.97,13.83-2.25,1.37-5.13,1.37-7.38,0-5.38-3.27-8.79-7.9-9.97-13.83-2.87,1.97-5.95-5.5-4.51-10.46,1.1,2.87,3.63,5.95,3.63,5.95,0,0-1.43-10.57,1.86-14.97,3.19-4.28,12.43-4.28,12.43-4.28">
</path>
<path class="cls-9" d="M23.41,49.93S2.58,49.19,2.58,24.48">
</path>
<path class="cls-9" d="M46.82,49.93s20.16-.57,20.16-25.28">
</path>
<path d="M22.11,34.46c.68-1.27,2.15-2.4,3.71-2.36,2.42,.08,4.76,.62,7.05,1.27,0,0-.66,2.07-.66,2.07-2.16-.67-4.3-1.56-6.5-2.04-1.3-.27-2.48,.29-3.61,1.05h0Z">
</path>
<path d="M31.13,40.12c-2.15-1.13-4.59-1.39-6.69-.16,0,0,.13-.8,.13-.8,.5,.58,1.34,.94,2.23,1.17,.91,.21,1.86,.37,2.81,.31-.9,.46-1.94,.52-2.94,.47-1.22-.06-2.52-.61-3.35-1.73,2.43-1.75,5.86-1.59,7.8,.75h0Z">
</path>
<path d="M48.06,34.46c-1.13-.76-2.31-1.33-3.61-1.05-2.19,.48-4.34,1.36-6.5,2.04,0,0-.66-2.07-.66-2.07,2.29-.65,4.63-1.19,7.05-1.27,1.56-.05,3.03,1.08,3.71,2.36h0Z">
</path>
<path d="M39.04,40.12c1.95-2.34,5.37-2.5,7.8-.75-.82,1.12-2.12,1.67-3.35,1.73-1,.05-2.04-.01-2.94-.47,.95,.06,1.9-.1,2.81-.31,.88-.22,1.73-.59,2.23-1.17l.13,.8c-2.1-1.23-4.54-.97-6.69,.16h0Z">
</path>
<path d="M31.67,43.89c.28,1.69,1.82,1.6,3.17,1.62,.95-.07,2.09,.12,2.73-.59,.16-.24,.17-.63,.15-1.03,.25,.3,.47,.69,.42,1.19-.52,2.64-8.02,2.1-6.48-1.19h0Z">
</path>
<path d="M39.94,51.26s-1.42-1.71-2.36-2.34-2.76-.5-2.76-.5c0,0-1.82-.13-2.76,.5s-2.36,2.34-2.36,2.34c0,0,1.69,.75,3.52-.62,1.33,1.03,2.89,0,2.89,0,0,0,1.99,1.46,3.83,.62Z">
</path>
<path d="M29.7,51.26s1.28,4.06,4.95,4.06,5.29-4.06,5.29-4.06l-2.53-.37s-.61,1.9-2.83,1.9-2.56-1.97-2.56-1.97l-2.32,.45Z">
</path>
<path class="cls-7" d="M19.98,60.83c1.46-.87,3.32-2.32,4.23-4.49-1.55-2.71-3.18-4.03-4.22-4.65-1.04,.6-2.67,1.93-4.24,4.65,.92,2.17,2.77,3.62,4.23,4.49Z">
</path>
<circle class="cls-8" cx="19.98" cy="56.26" r="1.6">
</circle>
<path class="cls-7" d="M53.52,56.34c-1.57-2.72-3.2-4.05-4.24-4.65-1.04,.62-2.67,1.94-4.22,4.65,.91,2.17,2.77,3.62,4.23,4.49,1.46-.87,3.31-2.32,4.23-4.49Z">
</path>
<circle class="cls-8" cx="49.29" cy="56.26" r="1.6">
</circle>
<g >
<path class="cls-10" d="M26.59,54.27v4.8c0,1.94-1.25,3.66-3.09,4.27l-11.66,3.84s-3.83,1.2-4.78,4.07">
</path>
<path class="cls-10" d="M43.16,54.27v4.8c0,1.94,1.25,3.66,3.09,4.27l11.66,3.84s3.83,1.2,4.78,4.07">
</path>
</g>
<path class="cls-6" d="M18.71,65.17s4.54,7.69,16.07,7.69,16.26-7.69,16.26-7.69">
</path>
<path d="M16.73,65.81s2.14,3.98,6.56,6.17c-1.09,2.42-1.02,2.73-1.02,2.73l-11.95-3.13-.7-3.28,7.11-2.5Z">
</path>
<path d="M52.56,65.81s-2.14,3.98-6.56,6.17c1.09,2.42,1.02,2.73,1.02,2.73l11.95-3.13,.7-3.28-7.11-2.5Z">
</path>
<path class="cls-1" d="M27.1,61.11c.21,3.38-4.36,3.84-6.71,4.89-2.77,.92-5.57,1.77-8.46,2.33,2.64-1.31,5.36-2.32,8.12-3.27,1.38-.46,2.77-.9,4.18-1.29,1.32-.39,2.71-1.14,2.88-2.66h0Z">
</path>
<path class="cls-1" d="M7.06,39.01c3.67,4.91,9.2,7.81,14.96,9.59-.76-.06-1.53-.15-2.3-.27-5.26-1-10.49-4.28-12.66-9.32h0Z">
</path>
</g>
</g>

  <path
     style="opacity:1;vector-effect:none;fill:#8d5fd3;fill-opacity:1;fill-rule:nonzero;stroke:none;stroke-width:2.35769176;stroke-linecap:butt;stroke-linejoin:miter;stroke-miterlimit:4;stroke-dasharray:none;stroke-dashoffset:0;stroke-opacity:0.44186048"
     d="M 0,1.2e-7 V 80 H 69 V 1.2e-7 Z M 35.240234,4.658203 c 6.067554,0.1120422 16.269844,1.4698438 23.589844,3.8398438 3.46,9.2400002 5.269531,19.9506252 5.269531,31.1406252 0,11.47 -1.89,22.390234 -5.5,31.740234 -7.2,2.16 -14.940375,3.376539 -23.019531,3.259766 -8.580486,-0.124019 -18.036001,-1.572896 -25.240234,-3.86914 -3.4500003,-9.22 -5.2597659,-19.930859 -5.2597659,-31.130859 0,-11.2 1.8904687,-22.380469 5.4804689,-31.730469 C 17.682894,5.1336941 29.17268,4.5461608 35.240234,4.658203 Z"
     id="rect4304" />


</svg>
