<svg id="Capa_2" xmlns="http://www.w3.org/2000/svg" xmlns:xlink="http://www.w3.org/1999/xlink" viewBox="0 0 69.02 80">
<defs >
<style >
.cls-1{fill:#c89aed;}.cls-2{fill:#fff;}.cls-3{fill:#f8ffbf;}.cls-4{fill:#7b7be8;}.cls-5{fill:#a88347;}.cls-6{fill:#782ab5;}.cls-7,.cls-8,.cls-9,.cls-10,.cls-11,.cls-12{fill:none;}.cls-7,.cls-10,.cls-12{stroke:#000;stroke-miterlimit:10;}.cls-8{stroke:#deb778;stroke-dasharray:0 0 0 4.06;stroke-linejoin:round;}.cls-8,.cls-10,.cls-12{stroke-linecap:round;}.cls-13{fill:#deb778;}.cls-14{fill:url(#USGS_19_Inundación_de_tierra_2);}.cls-10{stroke-width:.98px;}.cls-11{stroke:#1d1d1b;stroke-dasharray:0 0 2 2;stroke-width:.3px;}.cls-12{stroke-width:1.07px;}.cls-15{fill:#ddb3f5;}.cls-16{fill:#fcf0c5;}.cls-17{fill:#b83521;}
</style>
<pattern id="USGS_19_Inundación_de_tierra_2" x="0" y="0" width="72" height="72" patternTransform="translate(-308.48 -16063) rotate(-90)" patternUnits="userSpaceOnUse" viewBox="0 0 72 72">
<g >
<rect class="cls-9" width="72" height="72">
</rect>
<g >
<line class="cls-11" x1="71" y1="71" x2="144.44" y2="71">
</line>
<line class="cls-11" x1="71" y1="67" x2="144.44" y2="67">
</line>
<line class="cls-11" x1="71" y1="63" x2="144.44" y2="63">
</line>
<line class="cls-11" x1="71" y1="59" x2="144.44" y2="59">
</line>
<line class="cls-11" x1="71" y1="55" x2="144.44" y2="55">
</line>
<line class="cls-11" x1="71" y1="51" x2="144.44" y2="51">
</line>
<line class="cls-11" x1="71" y1="47" x2="144.44" y2="47">
</line>
<line class="cls-11" x1="71" y1="43" x2="144.44" y2="43">
</line>
<line class="cls-11" x1="71" y1="39" x2="144.44" y2="39">
</line>
<line class="cls-11" x1="71" y1="35" x2="144.44" y2="35">
</line>
<line class="cls-11" x1="71" y1="31" x2="144.44" y2="31">
</line>
<line class="cls-11" x1="71" y1="27" x2="144.44" y2="27">
</line>
<line class="cls-11" x1="71" y1="23" x2="144.44" y2="23">
</line>
<line class="cls-11" x1="71" y1="19" x2="144.44" y2="19">
</line>
<line class="cls-11" x1="71" y1="15" x2="144.44" y2="15">
</line>
<line class="cls-11" x1="71" y1="11" x2="144.44" y2="11">
</line>
<line class="cls-11" x1="71" y1="7" x2="144.44" y2="7">
</line>
<line class="cls-11" x1="71" y1="3" x2="144.44" y2="3">
</line>
</g>
<g >
<line class="cls-11" x1="-1" y1="71" x2="72.44" y2="71">
</line>
<line class="cls-11" x1="-1" y1="67" x2="72.44" y2="67">
</line>
<line class="cls-11" x1="-1" y1="63" x2="72.44" y2="63">
</line>
<line class="cls-11" x1="-1" y1="59" x2="72.44" y2="59">
</line>
<line class="cls-11" x1="-1" y1="55" x2="72.44" y2="55">
</line>
<line class="cls-11" x1="-1" y1="51" x2="72.44" y2="51">
</line>
<line class="cls-11" x1="-1" y1="47" x2="72.44" y2="47">
</line>
<line class="cls-11" x1="-1" y1="43" x2="72.44" y2="43">
</line>
<line class="cls-11" x1="-1" y1="39" x2="72.44" y2="39">
</line>
<line class="cls-11" x1="-1" y1="35" x2="72.44" y2="35">
</line>
<line class="cls-11" x1="-1" y1="31" x2="72.44" y2="31">
</line>
<line class="cls-11" x1="-1" y1="27" x2="72.44" y2="27">
</line>
<line class="cls-11" x1="-1" y1="23" x2="72.44" y2="23">
</line>
<line class="cls-11" x1="-1" y1="19" x2="72.44" y2="19">
</line>
<line class="cls-11" x1="-1" y1="15" x2="72.44" y2="15">
</line>
<line class="cls-11" x1="-1" y1="11" x2="72.44" y2="11">
</line>
<line class="cls-11" x1="-1" y1="7" x2="72.44" y2="7">
</line>
<line class="cls-11" x1="-1" y1="3" x2="72.44" y2="3">
</line>
<line class="cls-11" x1="1.04" y1="69" x2="74.48" y2="69">
</line>
<line class="cls-11" x1="1.04" y1="65" x2="74.48" y2="65">
</line>
<line class="cls-11" x1="1.04" y1="61" x2="74.48" y2="61">
</line>
<line class="cls-11" x1="1.04" y1="57" x2="74.48" y2="57">
</line>
<line class="cls-11" x1="1.04" y1="53" x2="74.48" y2="53">
</line>
<line class="cls-11" x1="1.04" y1="49" x2="74.48" y2="49">
</line>
<line class="cls-11" x1="1.04" y1="45" x2="74.48" y2="45">
</line>
<line class="cls-11" x1="1.04" y1="41" x2="74.48" y2="41">
</line>
<line class="cls-11" x1="1.04" y1="37" x2="74.48" y2="37">
</line>
<line class="cls-11" x1="1.04" y1="33" x2="74.48" y2="33">
</line>
<line class="cls-11" x1="1.04" y1="29" x2="74.48" y2="29">
</line>
<line class="cls-11" x1="1.04" y1="25" x2="74.48" y2="25">
</line>
<line class="cls-11" x1="1.04" y1="21" x2="74.48" y2="21">
</line>
<line class="cls-11" x1="1.04" y1="17" x2="74.48" y2="17">
</line>
<line class="cls-11" x1="1.04" y1="13" x2="74.48" y2="13">
</line>
<line class="cls-11" x1="1.04" y1="9" x2="74.48" y2="9">
</line>
<line class="cls-11" x1="1.04" y1="5" x2="74.48" y2="5">
</line>
<line class="cls-11" x1="1.04" y1="1" x2="74.48" y2="1">
</line>
</g>
<g >
<line class="cls-11" x1="-73" y1="71" x2=".44" y2="71">
</line>
<line class="cls-11" x1="-73" y1="67" x2=".44" y2="67">
</line>
<line class="cls-11" x1="-73" y1="63" x2=".44" y2="63">
</line>
<line class="cls-11" x1="-73" y1="59" x2=".44" y2="59">
</line>
<line class="cls-11" x1="-73" y1="55" x2=".44" y2="55">
</line>
<line class="cls-11" x1="-73" y1="51" x2=".44" y2="51">
</line>
<line class="cls-11" x1="-73" y1="47" x2=".44" y2="47">
</line>
<line class="cls-11" x1="-73" y1="43" x2=".44" y2="43">
</line>
<line class="cls-11" x1="-73" y1="39" x2=".44" y2="39">
</line>
<line class="cls-11" x1="-73" y1="35" x2=".44" y2="35">
</line>
<line class="cls-11" x1="-73" y1="31" x2=".44" y2="31">
</line>
<line class="cls-11" x1="-73" y1="27" x2=".44" y2="27">
</line>
<line class="cls-11" x1="-73" y1="23" x2=".44" y2="23">
</line>
<line class="cls-11" x1="-73" y1="19" x2=".44" y2="19">
</line>
<line class="cls-11" x1="-73" y1="15" x2=".44" y2="15">
</line>
<line class="cls-11" x1="-73" y1="11" x2=".44" y2="11">
</line>
<line class="cls-11" x1="-73" y1="7" x2=".44" y2="7">
</line>
<line class="cls-11" x1="-73" y1="3" x2=".44" y2="3">
</line>
<line class="cls-11" x1="-70.96" y1="69" x2="2.48" y2="69">
</line>
<line class="cls-11" x1="-70.96" y1="65" x2="2.48" y2="65">
</line>
<line class="cls-11" x1="-70.96" y1="61" x2="2.48" y2="61">
</line>
<line class="cls-11" x1="-70.96" y1="57" x2="2.48" y2="57">
</line>
<line class="cls-11" x1="-70.96" y1="53" x2="2.48" y2="53">
</line>
<line class="cls-11" x1="-70.96" y1="49" x2="2.48" y2="49">
</line>
<line class="cls-11" x1="-70.96" y1="45" x2="2.48" y2="45">
</line>
<line class="cls-11" x1="-70.96" y1="41" x2="2.48" y2="41">
</line>
<line class="cls-11" x1="-70.96" y1="37" x2="2.48" y2="37">
</line>
<line class="cls-11" x1="-70.96" y1="33" x2="2.48" y2="33">
</line>
<line class="cls-11" x1="-70.96" y1="29" x2="2.48" y2="29">
</line>
<line class="cls-11" x1="-70.96" y1="25" x2="2.48" y2="25">
</line>
<line class="cls-11" x1="-70.96" y1="21" x2="2.48" y2="21">
</line>
<line class="cls-11" x1="-70.96" y1="17" x2="2.48" y2="17">
</line>
<line class="cls-11" x1="-70.96" y1="13" x2="2.48" y2="13">
</line>
<line class="cls-11" x1="-70.96" y1="9" x2="2.48" y2="9">
</line>
<line class="cls-11" x1="-70.96" y1="5" x2="2.48" y2="5">
</line>
<line class="cls-11" x1="-70.96" y1="1" x2="2.48" y2="1">
</line>
</g>
</g>
</pattern>
</defs>

<g id="Characters">
<g >
<path class="cls-4" d="M34.73,11.07s-7.87-1.07-13.12,6.8c-2.82,5.73-2.92,12.73-2.92,12.73l-1.94-6.9s-1.65,4.57-2.33,6.71,.49,8.84,5.54,9.62c1.94,5.54,3.89,8.07,3.89,8.07l-.1,8.07-15.94,5.93,2.62,10.98s12.15,4.47,24.78,3.98,24.3-3.79,24.3-3.79l2.04-11.08-17.11-5.83,.1-7.97s3.3-5.64,3.98-8.46c4.67-.49,6.22-6.71,5.64-8.84s-2.33-7.48-2.33-7.48l-2.04,6.32s-.19-7.87-3.11-12.54-10.01-6.51-11.95-6.32Z">
</path>
<path class="cls-15" d="M34.22,57.85V27.63c0-5.75,3.9-10.77,9.47-12.2h0s3.47,2.53,3.47,2.53c0,0,2.11,4.42,2.42,10.74s-1.05,13.05-4.95,19.26c-2.6,8.07-10.42,9.89-10.42,9.89Z">
</path>
<path class="cls-3" d="M31.12,36.12s-6.73-.31-8.52-.04c1.06,2.11,6.82,2.1,8.52,.04Z">
</path>
<path class="cls-3" d="M36.83,36.12s6.73-.31,8.52-.04c-1.06,2.11-6.82,2.1-8.52,.04Z">
</path>
<path d="M21.49,18.19s1.6-2.27,4.21-1.34,7.22,1.27,10.16,1.07,5.68-1.4,7.42-1.34,3.4,.81,3.4,.81c0,0-4.2-6.09-10.68-5.95-6.95,.13-11.9,1.94-14.51,6.75Z">
</path>
<path class="cls-15" d="M42.78,54.79v3.92l17.85,5.87-2.88,7.49s-17.62,3.34-29.6,2.07c9.68-12.44,14.63-19.35,14.63-19.35">
</path>
<path class="cls-4" d="M33.4,13.27h.11s.05,0,.05,0h1.39s.04,0,.04,0h.12c1.99,0,11.93,.71,12.59,14.77,.45,9.61-2.23,15.36-4.56,18.49l-.15,.2-.1,.23c-1.16,2.82-2.91,7.08-8.49,8.63-.04,0-.09,0-.14,0s-.1,0-.14,0c-5.58-1.55-7.33-5.81-8.49-8.63l-.1-.23-.15-.2c-2.33-3.13-5.01-8.89-4.56-18.49,.66-14.06,10.6-14.77,12.59-14.77m1.69-2c-.13,0-.2,0-.2,0h-1.29s-.07,0-.2,0c-1.71,0-13.83,.57-14.59,16.67-.48,10.23,2.46,16.42,4.96,19.78,1.32,3.21,3.43,8.05,9.87,9.81,.15,.04,.38,.06,.61,.06s.46-.02,.61-.06c6.43-1.76,8.55-6.6,9.87-9.81,2.5-3.36,5.44-9.55,4.96-19.78-.76-16.1-12.88-16.67-14.59-16.67h0Z">
</path>
<path class="cls-15" d="M23.05,38.65s4.84,.7,6.56,.31c-3.05,3.75-5.55,2.5-6.56-.31Z">
</path>
<path class="cls-17" d="M28.5,20.87c.02,1.55,.06,3.11,.29,4.6-1.02,1.81-1.51,3.98-1.62,6.04-.01,.28-.25,.49-.52,.48s-.49-.25-.48-.52c.12-2.22,.61-4.36,1.66-6.33,0,0-.06,.26-.06,.26,.12-1.56,.41-3.04,.73-4.52h0Z">
</path>
<path class="cls-17" d="M26.5,39.47c.08,1.84,.53,3.75,1.32,5.45-.55-.79-1.02-1.64-1.4-2.53-.39-.9-.7-1.81-.91-2.81l.99-.1h0Z">
</path>
<path class="cls-6" d="M24.39,51.56s.6,2.71,3.11,5.09c.07,2.32,.86,3.9,.86,3.9,0,0-1.19-1.26-1.92-3.18-2.18-1.19-2.71-2.91-2.71-2.91l.66-2.91Z">
</path>
<path class="cls-6" d="M44.03,51.56s-.6,2.71-3.11,5.09c-.07,2.32-.86,3.9-.86,3.9,0,0,1.19-1.26,1.92-3.18,2.18-1.19,2.71-2.91,2.71-2.91l-.66-2.91Z">
</path>
<path class="cls-6" d="M36.04,75.78l-.11-5.6,3.15,5.26,1.72-.17-3.2-6.29,6.01,6.01,13.44-2.4,2.12-6.46s-4.69,.97-7.55,.17c4.92,4.92,1.26,6.12,1.26,6.12,0,0-4-2.86-6.75-2.86,1.43,1.83,1.72,4.63,1.72,4.63l-8.81-6.29s6.35-.29,12.64,1.6c-1.94-3.72-4.52-4.8-4.52-4.8l.34-.17s4.4,1.14,9.27,.34c-8.35-3.77-8.98-6.81-8.98-6.81l-2.12-.8s.57,2.97,3.55,5.32c-5.32-1.6-9.09-.8-10.01-.23,3.26,1.03,4,2.29,4,2.29,0,0-4.98,1.09-8.01-2.23,3.77-.63,3.6-2.8,2.92-3.77-.63,2-4.23,1.94-4.23,1.94,0,0-3.6,.06-4.23-1.94-.69,.97-.86,3.15,2.92,3.77-3.03,3.32-8.01,2.23-8.01,2.23,0,0,.74-1.26,4-2.29-.92-.57-4.69-1.37-10.01,.23,2.97-2.34,3.55-5.32,3.55-5.32l-2.12,.8s-.63,3.03-8.98,6.81c4.86,.8,9.27-.34,9.27-.34l.34,.17s-2.57,1.09-4.52,4.8c6.29-1.89,12.64-1.6,12.64-1.6l-8.81,6.29s.29-2.8,1.72-4.63c-2.75,0-6.75,2.86-6.75,2.86,0,0-3.66-1.2,1.26-6.12-2.86,.8-7.55-.17-7.55-.17l2.12,6.46,13.44,2.4,6.01-6.01-3.2,6.29,1.72,.17,3.15-5.26-.11,5.6h4.35Z">
</path>
<path d="M39.22,56.01l-13.34,17.55-16.19-2.17-1.89-9.3,16.37-5.74,.23-6.84s3.45,7.09,9.82,8.33c2.72-.7,5-1.84,5-1.84Z">
</path>
<path class="cls-2" d="M24.74,51.45c.35,1.87,.56,3.75,.68,5.65-3.22,1.5-6.62,2.75-10.01,3.81-1.92,.53-4.01,1.13-5.98,1.45,0,0-.03-.09-.03-.09,4.98-1.81,10.46-4.04,15.22-5.59,0,0,.02-5.21,.02-5.21,0,0,.1,0,.1,0h0Z">
</path>
<path d="M19.28,32.35l-2.48-8.89s-2.19,5.61-2.55,8.24,.76,7.14,5.7,8.35c-.96-5.36-.67-7.69-.67-7.69Z">
</path>
<path class="cls-2" d="M15.83,28.74c-.14,3.72,.53,7.1,3.13,9.9,0,0-.05,.09-.05,.09-2.57-1.42-4.11-4.29-3.78-7.22,.08-.95,.27-1.9,.61-2.8l.09,.04h0Z">
</path>
<path class="cls-1" d="M51.18,27.48s2.92,4.83,.34,11.02c3.33-3.74,2.79-7.48,2.11-9.18s-1.8-5.71-1.8-5.71l-.65,3.87Z">
</path>
<path class="cls-4" d="M36.03,36.12l.17-4.97s8.37-.11,10.83,2.23c-1.23,2.18-1.68,2.69-1.68,2.69l-9.32,.04Z">
</path>
<path class="cls-2" d="M38.28,38.77s3.27,.77,6.83-.77c-2.31,4.04-5,4.33-6.83,.77Z">
</path>
<path class="cls-2" d="M45.1,30.69s-4.23-2.02-8.36-.96c1.06-2.11,3.85-3.17,6.63-2.02-1.15-2.5-2.88-3.46-2.88-3.46,0,0,1.32-2.08,2.6-3.08,.67,3.17,1.44,6.92,1.44,6.92,0,0,.67,.77,.58,2.6Z">
</path>
<path class="cls-12" d="M34.9,11.27s13.97-.66,14.79,16.67c.48,10.23-2.46,16.42-4.96,19.78-1.32,3.21-3.43,8.05-9.87,9.81-.29,.08-.92,.08-1.22,0-6.43-1.76-8.55-6.6-9.87-9.81-2.5-3.36-5.44-9.55-4.96-19.78,.81-17.33,14.79-16.67,14.79-16.67h1.29Z">
</path>
<path class="cls-12" d="M18.84,32.56l-2.25-9.34s-.69,2.75-1.98,6.56,.92,9.84,5.19,10.14">
</path>
<path class="cls-12" d="M49.75,31.01l2.03-7.79s.69,2.75,1.98,6.56-.92,9.84-5.19,10.14">
</path>
<path d="M31.59,33.24c-3.16-.91-7.21-1.59-10.05,.45,0,0-.63-.7-.63-.7,.73-.7,1.62-1.22,2.55-1.57,2.82-.99,5.8-.88,8.72-.37,0,0-.59,2.2-.59,2.2h0Z">
</path>
<path d="M36.04,31.04c3.79-.61,8.25-.8,11.27,1.95,0,0-.63,.7-.63,.7-1.36-1.03-3.14-1.34-4.88-1.31-1.72,.02-3.55,.36-5.17,.86,0,0-.59-2.2-.59-2.2h0Z">
</path>
<path d="M31.33,46.58c-1.41,.06-3.05-.28-3.05-.28,0,0,.29,.51,1.75,.96,1.2,.37,2.88,.93,3.95,1.8,1.07-.87,2.75-1.43,3.95-1.8,1.47-.45,1.75-.96,1.75-.96,0,0-1.64,.34-3.05,.28-1.12-.04-2.02,.13-2.65,.82-.63-.69-1.53-.86-2.65-.82Z">
</path>
<path d="M37.93,49.19c-1.05,2.97-6.89,2.97-7.9-.03,1.2,.85,2.55,.96,3.94,.99,1.39-.02,2.75-.13,3.96-.96h0Z">
</path>
<path d="M22.88,36.04c2.83-.37,5.83-.76,8.58,.2,0,0-.37,.27-.37,.27-2,1.59-4.89,1.75-7.16,.7,1.19,.33,2.42,.43,3.61,.27,1.19-.15,2.31-.61,3.24-1.36,0,0,.07,.42,.07,.42-2.53-.7-5.34-.46-7.98-.5h0Z">
</path>
<path d="M45.22,36.04c-2.64,.04-5.44-.2-7.98,.5,0,0,.07-.42,.07-.42,.93,.75,2.06,1.21,3.24,1.36,1.19,.16,2.42,.05,3.61-.27-2.27,1.04-5.16,.89-7.16-.7,0,0-.37-.27-.37-.27,2.75-.96,5.76-.57,8.58-.2h0Z">
</path>
<path d="M30.17,40.64c-.31,.53-.43,1.12-.37,1.67l-.18-.24c1.43,.28,2.81,1.09,3.7,2.33l-.33-.2c.59,.07,1.19,.06,1.79,0l-.33,.2c.9-1.23,2.28-2.05,3.71-2.33l-.18,.24c.07-.55-.07-1.14-.38-1.67,.49,.38,.81,1,.88,1.67l.02,.16c-1.32,.53-2.5,1.38-3.26,2.5l-.12,.17c-.75,.12-1.51,.16-2.27,.03,0,0-.22-.04-.22-.04-.74-1.15-1.85-2.01-3.17-2.58,0,0-.2-.08-.2-.08,.05-.71,.36-1.41,.89-1.83h0Z">
</path>
<path d="M22.4,40.62c.95,1.8,2.49,2.97,4.07,4.15,.35,1.02,.66,2.05,.8,3.14-.66-.86-1.15-1.77-1.61-2.69l.18,.21c-1.7-.98-3.49-2.7-3.43-4.81h0Z">
</path>
<path d="M45.26,40.62c.06,2.11-1.73,3.84-3.43,4.81,0,0,.18-.21,.18-.21-.45,.93-.95,1.83-1.61,2.69,.14-1.09,.45-2.12,.8-3.14,1.57-1.19,3.12-2.35,4.07-4.15h0Z">
</path>
<path d="M31.28,53.85c.45-2.56,5.14-2.58,5.62-.03-1.56-1.25-4.09-1.25-5.62,.03h0Z">
</path>
<path d="M23.54,20.18c-.38,2.84-1.09,5.59-1.23,8.42-.84,.74-1.35,1.83-1.7,3.03-.16-1.19,.12-2.49,.97-3.52l-.12,.3c-.12-2.89,.68-5.72,2.07-8.23h0Z">
</path>
<path d="M44.36,20.18c1.39,2.5,2.2,5.34,2.07,8.23,0,0-.12-.3-.12-.3,.84,1.03,1.13,2.33,.97,3.52-.35-1.2-.85-2.29-1.7-3.03-.14-2.83-.85-5.58-1.23-8.42h0Z">
</path>
<path d="M41.2,26.17c-2.3-1.15-4.83-.31-7.27-.46-2.44,.16-4.97-.69-7.27,.46,1.87-1.89,4.86-1.3,7.27-1.46,2.41,.16,5.4-.42,7.27,1.46h0Z">
</path>
<path class="cls-10" d="M46.96,18.11s-2.07-2.21-4.8-1.3-4.69,1.13-7.8,1.13h-.33c-3.11,0-5.07-.23-7.8-1.13s-4.8,1.3-4.8,1.3">
</path>
<path class="cls-10" d="M23.93,48.53v7.79s-7.55,3.44-16.32,5.66">
</path>
<path class="cls-10" d="M44.42,48.53v7.79s7.55,3.44,16.32,5.66">
</path>
<path d="M50.54,64.05c-4.85,1.3-9.76,2.35-14.68,3.34,0,0,.37-.37,.37-.37-.23,1.06-.85,2.26-2.13,2.29-1.28-.03-1.9-1.23-2.13-2.29,0,0,.37,.38,.37,.38-2.45-.52-4.92-.97-7.36-1.56-2.45-.55-4.89-1.13-7.32-1.78,4.99,.61,9.93,1.49,14.86,2.42,0,0,.3,.05,.3,.05,.14,.68,.47,1.78,1.28,1.81,.81-.03,1.13-1.13,1.28-1.81,5.03-.94,10.07-1.84,15.16-2.47h0Z">
</path>
</g>
</g>
 <g
     id="g2850">
    <g
       id="g2837">
      <path
         id="path1951"
         d="M 0.056640625 0.04296875 L 0.056640625 79.943359 L 69.308594 79.943359 L 69.308594 0.04296875 L 0.056640625 0.04296875 z M 33.615234 3.5957031 C 34.206332 3.5957038 34.786991 3.6051034 35.421875 3.6152344 C 44.430653 3.7671809 53.471255 5.1336733 61.560547 7.5546875 L 62.064453 7.7070312 L 62.25 8.1640625 C 66.070247 17.605006 66.990234 28.726438 66.990234 40.0625 C 66.990234 51.398562 65.972723 63.025755 61.988281 72.578125 L 61.791016 73.044922 L 61.275391 73.185547 C 53.273669 75.403966 44.691921 76.529297 35.759766 76.529297 C 35.212453 76.529297 34.675812 76.519896 34.150391 76.509766 L 33.943359 76.509766 C 24.901742 76.357819 15.860367 74.989738 7.7929688 72.558594 L 7.2890625 72.40625 L 7.1035156 71.951172 C 3.2942144 62.520359 2.375 51.369168 2.375 40.0625 C 2.375 28.755832 3.3819737 17.127318 7.3554688 7.5546875 L 7.5527344 7.0898438 L 8.0664062 6.9472656 C 15.509867 4.890923 23.785212 3.7371557 32.005859 3.6054688 C 32.542226 3.5953387 33.078867 3.5957031 33.615234 3.5957031 z "
         style="opacity:1;vector-effect:none;fill:#ffffff;fill-opacity:1;fill-rule:nonzero;stroke:none;stroke-width:1.95200002;stroke-linecap:butt;stroke-linejoin:miter;stroke-miterlimit:4;stroke-dasharray:none;stroke-dashoffset:0;stroke-opacity:1" />
    </g>
    <path
       id="path1154-8-2"
       d="m 33.675163,6.6112954 c 0.557696,0 1.115392,0.00956 1.683415,0.019115 8.427403,0.14336 16.803167,1.4049288 24.363042,3.6700176 3.573384,8.830981 4.443772,19.417362 4.443772,29.761551 0,10.344189 -0.95301,21.39888 -4.68131,30.334991 -7.435942,2.064385 -15.429581,3.274388 -23.774362,3.274388 -0.506058,0 -1.012115,-0.0096 -1.518172,-0.01911 h -0.17557 C 25.56792,73.508883 17.192156,72.088619 9.6426089,69.813973 6.0795528,61.002107 5.2088244,50.415411 5.2088244,40.061979 c 0,-10.353432 0.95335,-21.389323 4.6609939,-30.325434 C 16.820359,7.8155201 24.462856,6.7450981 32.177647,6.6208528 c 0.49573,-0.00956 1.001787,-0.00956 1.497516,-0.00956 m 0,-0.9557337 c -0.506057,0 -1.012114,0 -1.518171,0.00956 C 24.40089,5.7893644 16.593149,6.8789009 9.570315,8.8190405 L 9.0849131,8.9528432 8.8990146,9.3924808 C 5.1500599,18.424166 4.1999116,29.394246 4.1999116,40.061979 c 0,10.667733 0.8675267,21.188618 4.461566,30.0865 l 0.1755708,0.430081 0.4750741,0.14336 c 7.6115135,2.293761 16.1421925,3.584001 24.6728715,3.727361 h 0.196227 c 0.495729,0.0096 1.001786,0.01911 1.518171,0.01911 8.427403,0 16.524318,-1.060864 24.073866,-3.153921 l 0.485403,-0.133802 0.185898,-0.439639 c 3.759282,-9.01257 4.719759,-19.983589 4.719759,-30.679055 0,-10.695466 -0.867528,-21.188618 -4.471894,-30.0960578 L 60.516853,9.5358409 60.041779,9.3924808 C 52.409609,7.108277 43.87893,5.8180364 35.379234,5.6746763 34.780227,5.6651187 34.232859,5.6555621 33.675163,5.6555615 Z"
       style="fill:#ff0000;stroke:#ffffff;stroke-width:1.84341729;stroke-miterlimit:4;stroke-dasharray:none" />
    <path
       id="path1154"
       d="m 33.614853,4.6077955 c 0.591098,0 1.182197,0.01013 1.784241,0.02026 8.932155,0.1519464 17.809578,1.4890758 25.822246,3.8898304 3.787408,9.3599041 4.709928,20.5803481 4.709928,31.5440931 0,10.963745 -1.01009,22.680548 -4.961693,32.151879 -7.881312,2.18803 -16.353723,3.302304 -25.198307,3.302304 -0.536368,0 -1.072735,-0.01013 -1.609102,-0.02026 H 33.97608 C 25.022033,75.343956 16.14461,74.006827 8.1428892,71.595943 4.3664269,62.256298 3.443547,51.035521 3.443547,40.061979 c 0,-10.973542 1.01045,-22.670418 4.9401601,-32.1417498 7.3668369,-2.036083 15.4670749,-3.170617 23.6439369,-3.3023039 0.525421,-0.01013 1.061788,-0.01013 1.587209,-0.01013 m 0,-1.0129766 c -0.536367,0 -1.072734,0 -1.609101,0.01013 C 23.785105,3.7366356 15.509726,4.891429 8.0662653,6.9477716 L 7.5517907,7.0895883 7.3547579,7.5555576 C 3.3812628,17.128188 2.3742062,28.755311 2.3742062,40.061979 c 0,11.306668 0.9194864,22.457692 4.7287876,31.888505 l 0.1860865,0.45584 0.5035283,0.151947 c 8.0673984,2.431144 17.1090154,3.798662 26.1506324,3.950608 h 0.207979 c 0.525421,0.01013 1.061788,0.02026 1.609101,0.02026 8.932155,0 17.514028,-1.124404 25.51575,-3.342823 l 0.514475,-0.141816 0.197032,-0.46597 c 3.984442,-9.55237 5.002445,-21.180489 5.002445,-32.516551 0,-11.336062 -0.919487,-22.457692 -4.739734,-31.8986353 L 62.064202,7.7075041 61.560674,7.5555576 C 53.471382,5.1345434 44.429765,3.7670249 35.420987,3.6150784 c -0.634884,-0.01013 -1.215036,-0.020259 -1.806134,-0.02026 z"
       style="fill:#000000;stroke:#000000;stroke-width:1.95382714;stroke-miterlimit:4;stroke-dasharray:none" />
    <g
       id="g1810">
      <path
         d="M 6.5134911,7.7433673 C 5.6489029,6.8479453 4.058602,6.5681013 3.6272194,7.3820013 3.284151,8.0292783 3.3625296,8.5309135 4.395235,8.9201755 3.2963719,9.5187755 1.4857674,9.4447465 1.1893447,7.4467713 0.95320848,5.8551433 2.674739,4.8863543 3.1399725,5.0916244 3.0034432,3.6818714 1.8221094,4.0692802 0.95849208,3.2813384 0.34259068,2.7194046 0.23126071,-0.02624603 0.0561761,0.04378767 -0.0138576,0.21887227 2.7317937,0.33020157 3.2937267,0.94610377 4.0816685,1.8097211 3.6942598,2.9910547 5.1040128,3.1275841 4.8987425,2.6623507 5.8675315,0.94082017 7.4591593,1.1769564 9.4571345,1.4733791 9.5311625,3.2839847 8.9325635,4.3828467 8.5433008,3.3501417 8.041666,3.2717627 7.3943894,3.6148312 6.5804899,4.0462137 6.8603354,5.6365129 7.7557553,6.5011023"
         style="fill:#000000;stroke:#000000;stroke-width:0.1112323px;stroke-linecap:butt;stroke-linejoin:miter;stroke-opacity:1"
         id="path1737-3" />
      <path
         d="m 62.850738,7.7433673 c 0.864588,-0.895422 2.454889,-1.175266 2.886271,-0.361366 0.343069,0.647277 0.26469,1.148912 -0.768015,1.538174 1.098863,0.5986 2.909467,0.524571 3.20589,-1.473404 0.236136,-1.591628 -1.485394,-2.560417 -1.950628,-2.3551469 0.13653,-1.409753 1.317863,-1.0223442 2.181481,-1.810286 0.615901,-0.5619338 0.727231,-3.30758442 0.902316,-3.23755072 0.07003,0.1750846 -2.675618,0.2864139 -3.237551,0.9023161 C 65.28256,1.8097211 65.669969,2.9910547 64.260216,3.1275841 64.465486,2.6623507 63.496697,0.94082018 61.905069,1.1769564 c -1.997975,0.2964227 -2.072003,2.1070283 -1.473404,3.2058903 0.389263,-1.032705 0.890898,-1.111084 1.538174,-0.7680155 0.8139,0.4313825 0.534054,2.0216817 -0.361366,2.8862711"
         style="fill:#000000;stroke:#000000;stroke-width:0.1112323px;stroke-linecap:butt;stroke-linejoin:miter;stroke-opacity:1"
         id="path1737-3-5" />
      <path
         d="m 62.850738,72.244244 c 0.864588,0.895422 2.454889,1.175266 2.886272,0.361366 0.343068,-0.647277 0.264689,-1.148912 -0.768016,-1.538174 1.098863,-0.5986 2.909468,-0.524571 3.20589,1.473404 0.236137,1.591628 -1.485394,2.560417 -1.950628,2.355147 0.13653,1.409753 1.317864,1.022344 2.181481,1.810286 0.615901,0.561934 0.727231,3.307584 0.902316,3.237551 0.07003,-0.175085 -2.675618,-0.286414 -3.237551,-0.902317 -0.787942,-0.863617 -0.400533,-2.04495 -1.810286,-2.18148 0.20527,0.465234 -0.763519,2.186764 -2.355146,1.950628 -1.997976,-0.296423 -2.072004,-2.107028 -1.473405,-3.20589 0.389263,1.032705 0.890898,1.111084 1.538175,0.768015 0.813899,-0.431382 0.534054,-2.021682 -0.361366,-2.886271"
         style="fill:#000000;stroke:#000000;stroke-width:0.1112323px;stroke-linecap:butt;stroke-linejoin:miter;stroke-opacity:1"
         id="path1737-3-7" />
      <path
         d="M 6.513491,72.244245 C 5.648903,73.139667 4.058602,73.419511 3.62722,72.605611 3.284151,71.958334 3.36253,71.456699 4.395235,71.067437 c -1.098863,-0.5986 -2.909467,-0.524571 -3.20589,1.473404 -0.23613599,1.591628 1.485394,2.560417 1.950628,2.355147 -0.13653,1.409753 -1.317863,1.022344 -2.18148099,1.810286 -0.615901,0.561933 -0.727231,3.307584 -0.902316,3.23755 C -0.01385399,79.76874 2.731794,79.65741 3.293727,79.041508 4.081669,78.177891 3.69426,76.996557 5.104013,76.860028 4.898743,77.325261 5.867532,79.046792 7.45916,78.810656 9.457135,78.514233 9.531163,76.703627 8.932564,75.604765 8.543301,76.63747 8.041666,76.715849 7.39439,76.372781 6.58049,75.941398 6.860336,74.351099 7.755756,73.48651"
         style="fill:#000000;stroke:#000000;stroke-width:0.1112323px;stroke-linecap:butt;stroke-linejoin:miter;stroke-opacity:1"
         id="path1737-3-5-5" />
    </g>
    <path
       id="path1154-9"
       d="m 33.712865,7.4258691 c 0.536813,0 1.07363,0.00933 1.620386,0.01865 8.111875,0.1398689 16.174044,1.3707167 23.450873,3.5806479 3.439594,8.615932 4.277395,18.944521 4.277395,29.036812 0,10.092292 -0.917329,20.877786 -4.506039,29.596289 -7.157536,2.014114 -14.851888,3.03982 -22.884234,3.03982 -0.487111,0 -0.974221,-0.0094 -1.461331,-0.01865 H 34.040918 C 25.909161,72.53957 17.846991,71.308722 10.580105,69.089467 7.1504515,60.492184 6.3123238,50.163289 6.3123238,40.061979 c 0,-10.101311 0.9176558,-20.868461 4.4864832,-29.586965 6.690308,-1.8742449 14.046665,-2.9186005 21.472608,-3.0398203 0.47717,-0.00933 0.964281,-0.00933 1.44145,-0.00933 m 0,-0.9324602 c -0.487111,0 -0.974221,0 -1.46133,0.00933 C 24.785826,6.6239532 17.270413,7.686958 10.510517,9.5798526 L 10.043289,9.710397 9.8643508,10.139328 c -3.6085914,8.811751 -4.5231655,19.514693 -4.5231655,29.922651 0,10.407958 0.8350459,20.672644 4.294522,29.353849 l 0.1689973,0.419608 0.4572874,0.13987 c 7.326533,2.237904 15.537818,3.496724 23.749103,3.636593 h 0.188879 c 0.47717,0.0094 0.96428,0.01865 1.461331,0.01865 8.111875,0 15.905636,-1.035031 23.172525,-3.077119 l 0.467228,-0.130544 0.178938,-0.428932 c 3.618533,-8.793101 4.543048,-19.496959 4.543048,-29.931975 0,-10.435016 -0.835047,-20.672644 -4.304463,-29.363174 l -0.168997,-0.419609 -0.457288,-0.13987 C 51.74588,7.9107484 43.534594,6.6519271 35.353133,6.512058 34.776554,6.502738 34.249678,6.493409 33.712865,6.493409 Z"
       style="fill:#000000;stroke:none;stroke-width:1.78642213;stroke-miterlimit:4;stroke-dasharray:none" />
    <path
       id="path1154-9-3"
       d="m 33.712865,7.4258686 c 0.536813,0 1.07363,0.00933 1.620386,0.01865 8.111875,0.1398689 16.174044,1.3707167 23.450873,3.5806484 3.439594,8.615932 4.277395,18.944521 4.277395,29.036812 0,10.092292 -0.917329,20.877786 -4.506039,29.596288 -7.157536,2.014114 -14.851888,3.03982 -22.884234,3.03982 -0.487111,0 -0.974221,-0.0094 -1.461331,-0.01865 H 34.040918 C 25.909161,72.539569 17.846991,71.308722 10.580105,69.089466 7.1504515,60.492184 6.3123238,50.163288 6.3123238,40.061979 c 0,-10.101312 0.9176558,-20.868461 4.4864832,-29.586965 6.690308,-1.8742454 14.046665,-2.918601 21.472608,-3.0398208 0.47717,-0.00933 0.964281,-0.00933 1.44145,-0.00933 m 0,-0.9324602 c -0.487111,0 -0.974221,0 -1.46133,0.00933 C 24.785826,6.6239527 17.270413,7.6869575 10.510517,9.5798521 L 10.043289,9.7103965 9.8643508,10.139328 C 6.2557594,18.951079 5.3411853,29.65402 5.3411853,40.061979 c 0,10.407958 0.8350459,20.672643 4.294522,29.353849 l 0.1689973,0.419608 0.4572874,0.13987 c 7.326533,2.237904 15.537818,3.496724 23.749103,3.636593 h 0.188879 c 0.47717,0.0094 0.96428,0.01865 1.461331,0.01865 8.111875,0 15.905636,-1.035032 23.172525,-3.077119 l 0.467228,-0.130544 0.178938,-0.428932 c 3.618533,-8.793101 4.543048,-19.49696 4.543048,-29.931975 0,-10.435016 -0.835047,-20.672644 -4.304463,-29.363175 l -0.168997,-0.419609 -0.457288,-0.13987 C 51.74588,7.9107479 43.534594,6.6519266 35.353133,6.5120575 34.776554,6.5027375 34.249678,6.4934085 33.712865,6.4934085 Z"
       style="fill:#000000;stroke:none;stroke-width:1.78642213;stroke-miterlimit:4;stroke-dasharray:none" />
  </g>
</svg>
