<svg id="Capa_2" xmlns="http://www.w3.org/2000/svg" xmlns:xlink="http://www.w3.org/1999/xlink" viewBox="0 0 69.02 80">
<defs >
<style >
.cls-1{fill:#000000;}.cls-2{fill:#000;}.cls-3{fill:#000000;}.cls-4{fill:#000000;}.cls-5{fill:#000000;}.cls-6{fill:#000000;}.cls-7,.cls-8,.cls-9,.cls-10,.cls-11,.cls-12,.cls-13{fill:none;}.cls-7,.cls-8,.cls-12,.cls-13{stroke:#000;stroke-miterlimit:10;}.cls-8,.cls-9,.cls-12,.cls-13{stroke-linecap:round;}.cls-9{stroke:#000000;stroke-dasharray:0 0 0 4.06;stroke-linejoin:round;}.cls-14{fill:#000000;}.cls-15{fill:url(#USGS_19_Inundación_de_tierra_2);}.cls-11{stroke:#000000;stroke-dasharray:0 0 2 2;stroke-width:.3px;}.cls-16{fill:#000000;}.cls-12{stroke-width:1.07px;}.cls-13{stroke-width:.75px;}.cls-17{fill:#000000;}.cls-18{fill:#000000;}
</style>
<pattern id="USGS_19_Inundación_de_tierra_2" x="0" y="0" width="72" height="72" patternTransform="translate(-452.48 -16063) rotate(-90)" patternUnits="userSpaceOnUse" viewBox="0 0 72 72">
<g >
<rect class="cls-10" width="72" height="72">
</rect>
<g >
<line class="cls-11" x1="71" y1="71" x2="144.44" y2="71">
</line>
<line class="cls-11" x1="71" y1="67" x2="144.44" y2="67">
</line>
<line class="cls-11" x1="71" y1="63" x2="144.44" y2="63">
</line>
<line class="cls-11" x1="71" y1="59" x2="144.44" y2="59">
</line>
<line class="cls-11" x1="71" y1="55" x2="144.44" y2="55">
</line>
<line class="cls-11" x1="71" y1="51" x2="144.44" y2="51">
</line>
<line class="cls-11" x1="71" y1="47" x2="144.44" y2="47">
</line>
<line class="cls-11" x1="71" y1="43" x2="144.44" y2="43">
</line>
<line class="cls-11" x1="71" y1="39" x2="144.44" y2="39">
</line>
<line class="cls-11" x1="71" y1="35" x2="144.44" y2="35">
</line>
<line class="cls-11" x1="71" y1="31" x2="144.44" y2="31">
</line>
<line class="cls-11" x1="71" y1="27" x2="144.44" y2="27">
</line>
<line class="cls-11" x1="71" y1="23" x2="144.44" y2="23">
</line>
<line class="cls-11" x1="71" y1="19" x2="144.44" y2="19">
</line>
<line class="cls-11" x1="71" y1="15" x2="144.44" y2="15">
</line>
<line class="cls-11" x1="71" y1="11" x2="144.44" y2="11">
</line>
<line class="cls-11" x1="71" y1="7" x2="144.44" y2="7">
</line>
<line class="cls-11" x1="71" y1="3" x2="144.44" y2="3">
</line>
</g>
<g >
<line class="cls-11" x1="-1" y1="71" x2="72.44" y2="71">
</line>
<line class="cls-11" x1="-1" y1="67" x2="72.44" y2="67">
</line>
<line class="cls-11" x1="-1" y1="63" x2="72.44" y2="63">
</line>
<line class="cls-11" x1="-1" y1="59" x2="72.44" y2="59">
</line>
<line class="cls-11" x1="-1" y1="55" x2="72.44" y2="55">
</line>
<line class="cls-11" x1="-1" y1="51" x2="72.44" y2="51">
</line>
<line class="cls-11" x1="-1" y1="47" x2="72.44" y2="47">
</line>
<line class="cls-11" x1="-1" y1="43" x2="72.44" y2="43">
</line>
<line class="cls-11" x1="-1" y1="39" x2="72.44" y2="39">
</line>
<line class="cls-11" x1="-1" y1="35" x2="72.44" y2="35">
</line>
<line class="cls-11" x1="-1" y1="31" x2="72.44" y2="31">
</line>
<line class="cls-11" x1="-1" y1="27" x2="72.44" y2="27">
</line>
<line class="cls-11" x1="-1" y1="23" x2="72.44" y2="23">
</line>
<line class="cls-11" x1="-1" y1="19" x2="72.44" y2="19">
</line>
<line class="cls-11" x1="-1" y1="15" x2="72.44" y2="15">
</line>
<line class="cls-11" x1="-1" y1="11" x2="72.44" y2="11">
</line>
<line class="cls-11" x1="-1" y1="7" x2="72.44" y2="7">
</line>
<line class="cls-11" x1="-1" y1="3" x2="72.44" y2="3">
</line>
<line class="cls-11" x1="1.04" y1="69" x2="74.48" y2="69">
</line>
<line class="cls-11" x1="1.04" y1="65" x2="74.48" y2="65">
</line>
<line class="cls-11" x1="1.04" y1="61" x2="74.48" y2="61">
</line>
<line class="cls-11" x1="1.04" y1="57" x2="74.48" y2="57">
</line>
<line class="cls-11" x1="1.04" y1="53" x2="74.48" y2="53">
</line>
<line class="cls-11" x1="1.04" y1="49" x2="74.48" y2="49">
</line>
<line class="cls-11" x1="1.04" y1="45" x2="74.48" y2="45">
</line>
<line class="cls-11" x1="1.04" y1="41" x2="74.48" y2="41">
</line>
<line class="cls-11" x1="1.04" y1="37" x2="74.48" y2="37">
</line>
<line class="cls-11" x1="1.04" y1="33" x2="74.48" y2="33">
</line>
<line class="cls-11" x1="1.04" y1="29" x2="74.48" y2="29">
</line>
<line class="cls-11" x1="1.04" y1="25" x2="74.48" y2="25">
</line>
<line class="cls-11" x1="1.04" y1="21" x2="74.48" y2="21">
</line>
<line class="cls-11" x1="1.04" y1="17" x2="74.48" y2="17">
</line>
<line class="cls-11" x1="1.04" y1="13" x2="74.48" y2="13">
</line>
<line class="cls-11" x1="1.04" y1="9" x2="74.48" y2="9">
</line>
<line class="cls-11" x1="1.04" y1="5" x2="74.48" y2="5">
</line>
<line class="cls-11" x1="1.04" y1="1" x2="74.48" y2="1">
</line>
</g>
<g >
<line class="cls-11" x1="-73" y1="71" x2=".44" y2="71">
</line>
<line class="cls-11" x1="-73" y1="67" x2=".44" y2="67">
</line>
<line class="cls-11" x1="-73" y1="63" x2=".44" y2="63">
</line>
<line class="cls-11" x1="-73" y1="59" x2=".44" y2="59">
</line>
<line class="cls-11" x1="-73" y1="55" x2=".44" y2="55">
</line>
<line class="cls-11" x1="-73" y1="51" x2=".44" y2="51">
</line>
<line class="cls-11" x1="-73" y1="47" x2=".44" y2="47">
</line>
<line class="cls-11" x1="-73" y1="43" x2=".44" y2="43">
</line>
<line class="cls-11" x1="-73" y1="39" x2=".44" y2="39">
</line>
<line class="cls-11" x1="-73" y1="35" x2=".44" y2="35">
</line>
<line class="cls-11" x1="-73" y1="31" x2=".44" y2="31">
</line>
<line class="cls-11" x1="-73" y1="27" x2=".44" y2="27">
</line>
<line class="cls-11" x1="-73" y1="23" x2=".44" y2="23">
</line>
<line class="cls-11" x1="-73" y1="19" x2=".44" y2="19">
</line>
<line class="cls-11" x1="-73" y1="15" x2=".44" y2="15">
</line>
<line class="cls-11" x1="-73" y1="11" x2=".44" y2="11">
</line>
<line class="cls-11" x1="-73" y1="7" x2=".44" y2="7">
</line>
<line class="cls-11" x1="-73" y1="3" x2=".44" y2="3">
</line>
<line class="cls-11" x1="-70.96" y1="69" x2="2.48" y2="69">
</line>
<line class="cls-11" x1="-70.96" y1="65" x2="2.48" y2="65">
</line>
<line class="cls-11" x1="-70.96" y1="61" x2="2.48" y2="61">
</line>
<line class="cls-11" x1="-70.96" y1="57" x2="2.48" y2="57">
</line>
<line class="cls-11" x1="-70.96" y1="53" x2="2.48" y2="53">
</line>
<line class="cls-11" x1="-70.96" y1="49" x2="2.48" y2="49">
</line>
<line class="cls-11" x1="-70.96" y1="45" x2="2.48" y2="45">
</line>
<line class="cls-11" x1="-70.96" y1="41" x2="2.48" y2="41">
</line>
<line class="cls-11" x1="-70.96" y1="37" x2="2.48" y2="37">
</line>
<line class="cls-11" x1="-70.96" y1="33" x2="2.48" y2="33">
</line>
<line class="cls-11" x1="-70.96" y1="29" x2="2.48" y2="29">
</line>
<line class="cls-11" x1="-70.96" y1="25" x2="2.48" y2="25">
</line>
<line class="cls-11" x1="-70.96" y1="21" x2="2.48" y2="21">
</line>
<line class="cls-11" x1="-70.96" y1="17" x2="2.48" y2="17">
</line>
<line class="cls-11" x1="-70.96" y1="13" x2="2.48" y2="13">
</line>
<line class="cls-11" x1="-70.96" y1="9" x2="2.48" y2="9">
</line>
<line class="cls-11" x1="-70.96" y1="5" x2="2.48" y2="5">
</line>
<line class="cls-11" x1="-70.96" y1="1" x2="2.48" y2="1">
</line>
</g>
</g>
</pattern>
</defs>
  <path
     id="circle1849"
     style="fill:#AA00DD;stroke:#000000;stroke-width:2"
     d="M 34.875,3.84375 C 30.2026,3.8566827 25.91896,6.4477515 23.738281,10.580078 21.63936,9.1446679 19.156089,8.3761337 16.613281,8.375 9.636905,8.3755251 3.9818685,14.031436 3.9824219,21.007812 c 0.012178,4.019812 1.9368978,7.79383 5.1835937,10.164063 -1.8357739,2.246976 -2.8420262,5.057448 -2.8496094,7.958984 0.00713,1.935325 0.4588528,3.843134 1.3203126,5.576172 -2.4145566,2.364898 -3.7807042,5.598771 -3.7929688,8.978516 0.00466,4.996359 2.9538661,9.520462 7.523438,11.541015 0.767283,6.336372 6.140784,11.10481 12.523437,11.113282 3.186693,-0.0091 6.252191,-1.222333 8.582031,-3.396485 1.867081,1.045968 3.9693,1.600422 6.109375,1.611329 2.723791,-0.01118 5.371006,-0.902492 7.546875,-2.541016 1.56279,0.673484 3.245549,1.024252 4.947266,1.03125 6.977139,5.53e-4 12.633366,-5.655674 12.632812,-12.632813 -0.0013,-2.652818 -0.837669,-5.237911 -2.390625,-7.388671 2.480721,-2.37284 3.888874,-5.653124 3.900391,-9.085938 -9.13e-4,-3.96978 -1.867955,-7.708203 -5.041016,-10.09375 2.59288,-2.385063 4.071919,-5.744584 4.080078,-9.267578 C 64.257287,17.599796 58.601376,11.944759 51.625,11.945312 50.032147,11.955601 48.455612,12.267065 46.978516,12.863281 45.38146,7.5117456 40.459758,3.8440964 34.875,3.84375 Z"/>



<g id="Characters">
<g >
<path class="cls-1" d="M23.47,13.3s-5.28,1.58-5.7,10.03,.21,11.09,.21,11.09c0,0-3.06-2.96-4.44-1.37,0,0-.95,1.8-.21,4.33s3.17,7.29,5.49,7.39c1.06,2.32,1.48,3.49,1.48,3.49l1.8,2.96,.53,6.87s-12.15,3.49-15.53,6.87c2.22,7.39,3.7,8.34,3.7,8.34,0,0,32,5.18,47.95-1.16,1.69-5.7,1.37-8.03,1.37-8.03,0,0-13.52-5.6-15.32-6.02,.63-5.18,.63-6.44,.63-6.44l1.8-3.59,.63-2.75s4.75-1.37,6.23-6.97c1.58-5.81-1.9-7.71-3.91-4.01,.11-10.46,0-19.75-6.65-21.76-6.76-2.01-16.37-1.58-20.07,.74Z">
</path>
<path class="cls-2" d="M33.87,58V21.61c0-5.71,5.67-9.91,11.02-7.9,.89,.33,1.64,.8,2.17,1.43,2.92,3.52,3.42,12.98,2.41,20.53s-2.55,13.25-2.55,13.25l-6.7,9.6-6.34-.5Z">
</path>
<path class="cls-4" d="M31.24,34.11s-7.35-2.65-10.09,.17c-.6,1.62-.26,3.59-.26,3.59,0,0,4.31,1.22,9.25,.22,1.01-2.53,1.09-3.99,1.09-3.99Z">
</path>
<path class="cls-4" d="M36.46,34.11s7.35-2.65,10.09,.17c.6,1.62,.26,3.59,.26,3.59,0,0-4.31,1.22-9.25,.22-1.01-2.53-1.09-3.99-1.09-3.99Z">
</path>
<path class="cls-3" d="M30.15,38.1s-.66-1.84-3.61-1.97c-2.83,.79-4.4,1.84-4.4,1.84,0,0,4.2,1.64,8.02,.13Z">
</path>
<path class="cls-3" d="M37.47,38.1s.66-1.84,3.61-1.97c2.83,.79,4.4,1.84,4.4,1.84,0,0-4.2,1.64-8.02,.13Z">
</path>
<path d="M17.89,35.09s-1.71-3.15-4.35-2.04c-2.43,1.75,1.18,10.77,5.72,11.71-1.01-5.77-1.37-9.67-1.37-9.67Z">
</path>
<path d="M22.71,52.17l4.78,6.79,12.15-.09,5.81-7.22-.18,2.69-16.5,20.77s-15.51-1.27-18.77-4.35c-2-3.9-1.45-6.62-1.45-6.62,0,0,7.89-4.44,14.06-5.71-.09-4.26,.45-5.62,.45-5.62">
</path>
<path class="cls-1" d="M23.71,55.86c.44,.89,.69,1.82,.98,2.75-4.8,3.04-10.12,5.02-15.81,5.6,0,0-.1-.17-.1-.17,3.49-1.96,7.19-3.5,10.98-4.76,1.26-.42,2.53-.83,3.81-1.2l-.09,.12,.03-2.34h.2Z">
</path>
<path d="M49.8,59.83s-1.06,10.32-7.84,15.05c12.29-1.2,17.52-2.83,17.52-2.83l1.48-7.56s-7.14-3.6-11.16-4.66Z">
</path>
<path class="cls-1" d="M33.96,11.22c1.12,0,11,.2,13.92,7.15,3.3,7.85-.68,28.04-1.83,30.05-1.2,2.1-4.3,6.32-5.07,7.36l-4.83,1.82h-4.43l-5.13-1.54c-.82-1.14-3.96-5.55-5.15-7.63-1.15-2.01-5.13-22.2-1.83-30.05,2.92-6.95,12.8-7.15,13.92-7.15,.11,0,.18,0,.18,0,0,0,.02,0,.03,0s.02,0,.03,0c0,0,.07,0,.18,0m0-1c-.14,0-.21,0-.21,0,0,0-.07,0-.21,0-1.6,0-11.7,.3-14.84,7.76-3.41,8.11,.47,28.46,1.88,30.93,1.41,2.47,5.41,8,5.41,8l5.6,1.69h4.76l5.27-1.99s3.9-5.22,5.31-7.69c1.41-2.47,5.29-22.81,1.88-30.93-3.14-7.47-13.24-7.76-14.84-7.76h0Z">
</path>
<path class="cls-2" d="M43.62,59.95l4.41,1.57s-.78,9.82-11.17,13.52c-5.41-.14-5.83-.28-5.83-.28l12.59-14.8Z">
</path>
<path class="cls-1" d="M33.53,12.22h.15s.06,0,.06,0h.06s.16,0,.16,0c1.05,0,10.32,.18,13,6.54,3.15,7.49-.68,27.18-1.77,29.16-1.06,1.85-4.74,7.45-6.34,9.88l-11.67-2.67c-1.06-1.49-3.78-5.33-4.86-7.21-1.1-1.98-4.92-21.67-1.78-29.16,2.67-6.36,11.95-6.54,13-6.54m.43-2c-.14,0-.21,0-.21,0,0,0-.07,0-.21,0-1.6,0-11.7,.3-14.84,7.76-3.41,8.11,.47,28.46,1.88,30.93,1.41,2.47,5.41,8,5.41,8l13.75,3.15s5.77-8.68,7.18-11.15c1.41-2.47,5.29-22.81,1.88-30.93-3.14-7.47-13.24-7.76-14.84-7.76h0Z">
</path>
<path class="cls-2" d="M27.44,41.07s-3.75,2.34-6.8,.16c2.03,3.98,4.86,3.95,6.8-.16Z">
</path>
<path class="cls-2" d="M51.5,33.23s3.53,3.62-.88,10.14c6.09-7.14,3.7-11.82,.88-10.14Z">
</path>
<path class="cls-8" d="M41.6,56.61s3.9-5.22,5.31-7.69,5.29-22.81,1.88-30.93c-3.41-8.11-15.05-7.76-15.05-7.76,0,0-11.64-.35-15.05,7.76s.47,28.46,1.88,30.93,5.41,8,5.41,8">
</path>
<path class="cls-8" d="M17.74,34.88s-1.26-2.84-3.71-2.13,0,11.42,5.13,12.13">
</path>
<path class="cls-8" d="M49.8,34.88s1.26-2.84,3.71-2.13,0,11.42-5.13,12.13">
</path>
<path d="M18.4,37.54s.23-7.55,2.47-11.33c-2.54-2-2.47-7.4-2.47-7.4,0,0-2.54,8.48,0,18.72Z">
</path>
<path d="M49.45,37.54s-.23-7.55-2.47-11.33c2.54-2,2.47-7.4,2.47-7.4,0,0,2.54,8.48,0,18.72Z">
</path>
<path class="cls-18" d="M35.84,52.16l-.81,3.12s.95,1.09,3.03,1.61c2.27-.61,2.83-1.94,2.83-1.94,0,0,1.61,3.31,1.28,6.9-.33,3.6-2.65,6.24-2.65,6.24,0,0,0-4.93-5.62-8.2-5.63,3.27-5.63,8.2-5.63,8.2,0,0-2.31-2.64-2.64-6.24-.33-3.59,1.27-6.9,1.27-6.9,0,0,.57,1.33,2.84,1.94,2.08-.52,3.02-1.61,3.02-1.61l-.8-3.12">
</path>
<path class="cls-16" d="M26.25,57.43s-1.15,4.26-.4,6.07c1.75-2.16,4.36-1.55,5.01-1.25,1.5-1.5,2.36-1.8,2.36-1.8,0,0-4.61,.55-6.97-3.01Z">
</path>
<path class="cls-16" d="M41.55,57.43s1.15,4.26,.4,6.07c-1.75-2.16-4.36-1.55-5.01-1.25-1.5-1.5-2.36-1.8-2.36-1.8,0,0,4.61,.55,6.97-3.01Z">
</path>
<path class="cls-13" d="M35.84,52.16l-.81,3.12s.95,1.09,3.03,1.61c2.27-.61,2.83-1.94,2.83-1.94,0,0,1.61,3.31,1.28,6.9-.33,3.6-2.65,6.24-2.65,6.24,0,0,0-4.93-5.62-8.2-5.63,3.27-5.63,8.2-5.63,8.2,0,0-2.31-2.64-2.64-6.24-.33-3.59,1.27-6.9,1.27-6.9,0,0,.57,1.33,2.84,1.94,2.08-.52,3.02-1.61,3.02-1.61l-.8-3.12">
</path>
<path d="M45.81,14.01s-.92-1-3.49,1.45-5.95,3.13-8.21,3.13h-.12c-2.27,0-5.64-.67-8.21-3.13s-4.05-1.59-4.05-1.59c0,0,4.67-3.71,12.38-3.71s11.71,3.86,11.71,3.86Z">
</path>
<path d="M21.09,34.56c2.51-3.19,7.15-2.14,10.61-1.57,0,0-.52,2.1-.52,2.1-3.28-.77-6.89-2.44-10.08-.52h0Z">
</path>
<path d="M46.73,34.56c-3.19-1.91-6.8-.25-10.08,.52,0,0-.52-2.1-.52-2.1,3.45-.57,8.1-1.62,10.61,1.57h0Z">
</path>
<path d="M29.37,36.96c-.83-.01-1.82-.23-2.62-.27-1.5,.35-3.48,.72-4.96,1.56,0,0-.07-.68-.07-.68,.85,.11,1.69,.29,2.52,.45,2.04,.57,4.04,.49,5.99-.36,0,0,1.95-.91,1.95-.91l-1.64,1.33c-1.51,1.22-3.1,2.37-4.92,3.04,.87-.41,1.66-.96,2.41-1.55,.75-.59,1.48-1.22,2.15-1.88l.31,.42c-2.78,1.59-6.11,1.34-8.97,.16,0,0-.81-.33-.81-.33,.63-.3,1.38-.63,2.02-.86,1.26-.41,2.62-.98,3.94-1.16,1.04,.13,1.81,.55,2.7,1.04h0Z">
</path>
<path d="M38.39,36.96c.89-.49,1.66-.91,2.7-1.04,1.31,.18,2.67,.75,3.94,1.16,.64,.23,1.39,.56,2.02,.86,0,0-.81,.33-.81,.33-2.86,1.18-6.19,1.43-8.97-.16,0,0,.31-.42,.31-.42,1.37,1.31,2.84,2.58,4.56,3.43-1.82-.67-3.41-1.82-4.92-3.04l-1.64-1.33,1.95,.91c1.95,.85,3.95,.93,5.99,.36,.83-.16,1.67-.34,2.52-.45l-.07,.68c-1.48-.84-3.46-1.21-4.96-1.56-.8,.04-1.79,.26-2.62,.27h0Z">
</path>
<path d="M29.9,41.12c-.47,.5-1.4,1.27-1.51,1.74,0-.02-.04-.04-.02-.03,.03,.01,.03,.03,.09,.05,1.03,.4,2.59,.51,3.69,.73,0,0-.03,.53-.03,.53-1.43-.04-3.05,.03-4.28-.83-.72-1.05,1.29-1.96,2.05-2.19h0Z">
</path>
<path d="M37.62,41.12c.75,.22,2.77,1.13,2.05,2.19-1.23,.86-2.84,.79-4.28,.83,0,0-.03-.53-.03-.53,1.11-.21,2.66-.32,3.69-.73,.06-.02,.06-.04,.09-.05,.03-.01-.02,.01-.02,.03-.11-.47-1.03-1.23-1.51-1.74h0Z">
</path>
<path d="M37.9,42.67c-1.59,.71-2.98,1.71-4.14,2.91,0,0-.31-.31-.31-.31-1.06-1.06-2.39-1.95-3.82-2.6,1.55,.34,3.06,.92,4.46,1.82h-.63c1.39-.9,2.91-1.48,4.46-1.82h0Z">
</path>
<path class="cls-8" d="M22.24,51.78l.68,6.39s-10.75,3.46-15.12,5.94">
</path>
<path class="cls-8" d="M45.77,50.73l-.89,7.45s10.75,3.46,15.12,5.94">
</path>
<path class="cls-8" d="M17.97,59.86s.54,10.18,7.83,15.04">
</path>
<path class="cls-8" d="M42,74.9c7.29-4.86,7.83-15.04,7.83-15.04">
</path>
<g >
<path d="M27.28,44.56c-.42,1.47-1.07,2.82-1.78,4.13l.06-.23c.01,1.75-.02,3.49-.1,5.3-.78-1.71-.92-3.6-.88-5.46,.78-1.32,1.61-2.6,2.69-3.75h0Z">
</path>
<path d="M40.21,44.56c1.08,1.15,1.91,2.43,2.69,3.75,.04,1.85-.09,3.75-.88,5.46-.08-1.81-.11-3.55-.1-5.3l.06,.23c-.71-1.31-1.36-2.66-1.78-4.13h0Z">
</path>
<path class="cls-12" d="M30.47,51.28s.23,.85,2.95,.85,3.01-.74,3.01-.74">
</path>
<path class="cls-13" d="M25.29,48.37l1.67,1.87s7.14-.86,12.97-.05c1.27-.71,2.05-2.1,2.05-2.1">
</path>
</g>
<path class="cls-18" d="M42.33,13.55s-9.01,7.38-16.2-.38c6.04-1.63,14.19-.77,16.2,.38Z">
</path>
<path class="cls-1" d="M13.65,34.19c1.11,2.62,1.82,5.23,3.25,7.66,.48,.76,1.01,1.47,1.68,2.26l-.05,.09c-3.4-1.87-5.01-6.5-4.88-10.01h0Z">
</path>
</g>
</g>

</svg>
