<svg id="Capa_2" xmlns="http://www.w3.org/2000/svg" xmlns:xlink="http://www.w3.org/1999/xlink" viewBox="0 0 69.02 80">
<defs >
<style >
.cls-1{fill:#c89aed;}.cls-2{fill:#fff;}.cls-3{fill:#f8ffbf;}.cls-4{fill:#7b7be8;}.cls-5{fill:#a88347;}.cls-6{fill:#782ab5;}.cls-7,.cls-8,.cls-9,.cls-10{stroke:#000;stroke-miterlimit:10;}.cls-7,.cls-8,.cls-10,.cls-11,.cls-12,.cls-13{fill:none;}.cls-8,.cls-11{stroke-linecap:round;}.cls-9{fill:#b83521;}.cls-14{fill:#1c46ff;}.cls-10{stroke-width:.75px;}.cls-11{stroke:#deb778;stroke-dasharray:0 0 0 4.06;stroke-linejoin:round;}.cls-15{fill:#deb778;}.cls-16{fill:url(#USGS_19_Inundación_de_tierra_2);}.cls-13{stroke:#1d1d1b;stroke-dasharray:0 0 2 2;stroke-width:.3px;}.cls-17{fill:#fcf0c5;}
</style>
<pattern id="USGS_19_Inundación_de_tierra_2" x="0" y="0" width="72" height="72" patternTransform="translate(-308.48 -16135) rotate(-90)" patternUnits="userSpaceOnUse" viewBox="0 0 72 72">
<g >
<rect class="cls-12" width="72" height="72">
</rect>
<g >
<line class="cls-13" x1="71" y1="71" x2="144.44" y2="71">
</line>
<line class="cls-13" x1="71" y1="67" x2="144.44" y2="67">
</line>
<line class="cls-13" x1="71" y1="63" x2="144.44" y2="63">
</line>
<line class="cls-13" x1="71" y1="59" x2="144.44" y2="59">
</line>
<line class="cls-13" x1="71" y1="55" x2="144.44" y2="55">
</line>
<line class="cls-13" x1="71" y1="51" x2="144.44" y2="51">
</line>
<line class="cls-13" x1="71" y1="47" x2="144.44" y2="47">
</line>
<line class="cls-13" x1="71" y1="43" x2="144.44" y2="43">
</line>
<line class="cls-13" x1="71" y1="39" x2="144.44" y2="39">
</line>
<line class="cls-13" x1="71" y1="35" x2="144.44" y2="35">
</line>
<line class="cls-13" x1="71" y1="31" x2="144.44" y2="31">
</line>
<line class="cls-13" x1="71" y1="27" x2="144.44" y2="27">
</line>
<line class="cls-13" x1="71" y1="23" x2="144.44" y2="23">
</line>
<line class="cls-13" x1="71" y1="19" x2="144.44" y2="19">
</line>
<line class="cls-13" x1="71" y1="15" x2="144.44" y2="15">
</line>
<line class="cls-13" x1="71" y1="11" x2="144.44" y2="11">
</line>
<line class="cls-13" x1="71" y1="7" x2="144.44" y2="7">
</line>
<line class="cls-13" x1="71" y1="3" x2="144.44" y2="3">
</line>
</g>
<g >
<line class="cls-13" x1="-1" y1="71" x2="72.44" y2="71">
</line>
<line class="cls-13" x1="-1" y1="67" x2="72.44" y2="67">
</line>
<line class="cls-13" x1="-1" y1="63" x2="72.44" y2="63">
</line>
<line class="cls-13" x1="-1" y1="59" x2="72.44" y2="59">
</line>
<line class="cls-13" x1="-1" y1="55" x2="72.44" y2="55">
</line>
<line class="cls-13" x1="-1" y1="51" x2="72.44" y2="51">
</line>
<line class="cls-13" x1="-1" y1="47" x2="72.44" y2="47">
</line>
<line class="cls-13" x1="-1" y1="43" x2="72.44" y2="43">
</line>
<line class="cls-13" x1="-1" y1="39" x2="72.44" y2="39">
</line>
<line class="cls-13" x1="-1" y1="35" x2="72.44" y2="35">
</line>
<line class="cls-13" x1="-1" y1="31" x2="72.44" y2="31">
</line>
<line class="cls-13" x1="-1" y1="27" x2="72.44" y2="27">
</line>
<line class="cls-13" x1="-1" y1="23" x2="72.44" y2="23">
</line>
<line class="cls-13" x1="-1" y1="19" x2="72.44" y2="19">
</line>
<line class="cls-13" x1="-1" y1="15" x2="72.44" y2="15">
</line>
<line class="cls-13" x1="-1" y1="11" x2="72.44" y2="11">
</line>
<line class="cls-13" x1="-1" y1="7" x2="72.44" y2="7">
</line>
<line class="cls-13" x1="-1" y1="3" x2="72.44" y2="3">
</line>
<line class="cls-13" x1="1.04" y1="69" x2="74.48" y2="69">
</line>
<line class="cls-13" x1="1.04" y1="65" x2="74.48" y2="65">
</line>
<line class="cls-13" x1="1.04" y1="61" x2="74.48" y2="61">
</line>
<line class="cls-13" x1="1.04" y1="57" x2="74.48" y2="57">
</line>
<line class="cls-13" x1="1.04" y1="53" x2="74.48" y2="53">
</line>
<line class="cls-13" x1="1.04" y1="49" x2="74.48" y2="49">
</line>
<line class="cls-13" x1="1.04" y1="45" x2="74.48" y2="45">
</line>
<line class="cls-13" x1="1.04" y1="41" x2="74.48" y2="41">
</line>
<line class="cls-13" x1="1.04" y1="37" x2="74.48" y2="37">
</line>
<line class="cls-13" x1="1.04" y1="33" x2="74.48" y2="33">
</line>
<line class="cls-13" x1="1.04" y1="29" x2="74.48" y2="29">
</line>
<line class="cls-13" x1="1.04" y1="25" x2="74.48" y2="25">
</line>
<line class="cls-13" x1="1.04" y1="21" x2="74.48" y2="21">
</line>
<line class="cls-13" x1="1.04" y1="17" x2="74.48" y2="17">
</line>
<line class="cls-13" x1="1.04" y1="13" x2="74.48" y2="13">
</line>
<line class="cls-13" x1="1.04" y1="9" x2="74.48" y2="9">
</line>
<line class="cls-13" x1="1.04" y1="5" x2="74.48" y2="5">
</line>
<line class="cls-13" x1="1.04" y1="1" x2="74.48" y2="1">
</line>
</g>
<g >
<line class="cls-13" x1="-73" y1="71" x2=".44" y2="71">
</line>
<line class="cls-13" x1="-73" y1="67" x2=".44" y2="67">
</line>
<line class="cls-13" x1="-73" y1="63" x2=".44" y2="63">
</line>
<line class="cls-13" x1="-73" y1="59" x2=".44" y2="59">
</line>
<line class="cls-13" x1="-73" y1="55" x2=".44" y2="55">
</line>
<line class="cls-13" x1="-73" y1="51" x2=".44" y2="51">
</line>
<line class="cls-13" x1="-73" y1="47" x2=".44" y2="47">
</line>
<line class="cls-13" x1="-73" y1="43" x2=".44" y2="43">
</line>
<line class="cls-13" x1="-73" y1="39" x2=".44" y2="39">
</line>
<line class="cls-13" x1="-73" y1="35" x2=".44" y2="35">
</line>
<line class="cls-13" x1="-73" y1="31" x2=".44" y2="31">
</line>
<line class="cls-13" x1="-73" y1="27" x2=".44" y2="27">
</line>
<line class="cls-13" x1="-73" y1="23" x2=".44" y2="23">
</line>
<line class="cls-13" x1="-73" y1="19" x2=".44" y2="19">
</line>
<line class="cls-13" x1="-73" y1="15" x2=".44" y2="15">
</line>
<line class="cls-13" x1="-73" y1="11" x2=".44" y2="11">
</line>
<line class="cls-13" x1="-73" y1="7" x2=".44" y2="7">
</line>
<line class="cls-13" x1="-73" y1="3" x2=".44" y2="3">
</line>
<line class="cls-13" x1="-70.96" y1="69" x2="2.48" y2="69">
</line>
<line class="cls-13" x1="-70.96" y1="65" x2="2.48" y2="65">
</line>
<line class="cls-13" x1="-70.96" y1="61" x2="2.48" y2="61">
</line>
<line class="cls-13" x1="-70.96" y1="57" x2="2.48" y2="57">
</line>
<line class="cls-13" x1="-70.96" y1="53" x2="2.48" y2="53">
</line>
<line class="cls-13" x1="-70.96" y1="49" x2="2.48" y2="49">
</line>
<line class="cls-13" x1="-70.96" y1="45" x2="2.48" y2="45">
</line>
<line class="cls-13" x1="-70.96" y1="41" x2="2.48" y2="41">
</line>
<line class="cls-13" x1="-70.96" y1="37" x2="2.48" y2="37">
</line>
<line class="cls-13" x1="-70.96" y1="33" x2="2.48" y2="33">
</line>
<line class="cls-13" x1="-70.96" y1="29" x2="2.48" y2="29">
</line>
<line class="cls-13" x1="-70.96" y1="25" x2="2.48" y2="25">
</line>
<line class="cls-13" x1="-70.96" y1="21" x2="2.48" y2="21">
</line>
<line class="cls-13" x1="-70.96" y1="17" x2="2.48" y2="17">
</line>
<line class="cls-13" x1="-70.96" y1="13" x2="2.48" y2="13">
</line>
<line class="cls-13" x1="-70.96" y1="9" x2="2.48" y2="9">
</line>
<line class="cls-13" x1="-70.96" y1="5" x2="2.48" y2="5">
</line>
<line class="cls-13" x1="-70.96" y1="1" x2="2.48" y2="1">
</line>
</g>
</g>
</pattern>
</defs>

<g id="Characters">
<g >
<path class="cls-1" d="M62.36,60.93l-1.74,13.37s-8.29,2.8-23,4.27c-14.7,1.47-28.87-4.01-28.87-4.01,0,0-.81-.26-1.61-12.83,3.88-2.41,9.76-3.48,9.76-3.48l.26-3.58-.66-.96c-.54-2.14-.4-9.09-.4-9.09,0,0-3.08-.81-2.14-4.42-.94-1.73-.13-3.87-.13-3.87,0,0-2.01-6.55-.81-8.16,1.21-1.6,3.48-.13,3.48-.13l1.34-2.27s-1.07-3.21,1.47-8.56c6.01-9.36,17.64-7.35,17.64-7.35,0,0,.26,.04,.72,.11h.03c1.37,.23,4.43,.81,7.29,1.84,3.78,1.37,6.61,4.62,7.34,8.58,.55,3.03,.48,5.85,.48,5.85l1.66,1.66c3.74-2.54,5.48,1.21,2.81,8.69,.53,1.48-.27,4.68-.27,4.68,0,0,.67,3.08-2.01,3.21,.4,1.74-.8,8.96-.8,8.96l-.57,1.26-.1,.21s.13,.74,.61,3.3c.02,.1,.04,.2,.06,.31,1.74,.4,8.16,2.41,8.16,2.41Z">
</path>
<path class="cls-2" d="M57.01,41.27s.67,3.08-2.01,3.21c.03,.1,.04,.23,.05,.37,.21,2.2-.85,8.59-.85,8.59l-.57,1.26c-.5,.46-1.03,.97-1.61,1.55-8.49,6.7-16.39,6.7-16.39,6.7V9.86l2.04,.11h.03c1.37,.23,4.43,.81,7.29,1.84,3.78,1.37,6.61,4.62,7.34,8.58,.55,3.03,.48,5.85,.48,5.85l1.66,1.66c.08-.05,.16-.1,.23-.15,3.58-2.23,5.19,1.52,2.58,8.84,.53,1.48-.27,4.68-.27,4.68Z">
</path>
<path d="M62.36,60.93l-1.74,13.37s-8.29,2.8-23,4.27c-14.7,1.47-28.87-4.01-28.87-4.01,0,0-.81-.26-1.61-12.83,3.88-2.41,9.76-3.48,9.76-3.48,0,0,2.22,11.01,17.96,11.23,15.4,.11,18.97-10.22,19.28-11.27,.02,.1,.04,.2,.06,.31,1.74,.4,8.16,2.41,8.16,2.41Z">
</path>
<path class="cls-3" d="M21.23,36.09s6.17-.99,9.29-.35c-3.97,1.99-4.68,2.13-4.68,2.13,0,0-3.76-.71-4.61-1.77Z">
</path>
<path class="cls-3" d="M49.89,36.09s-6.17-.99-9.29-.35c3.97,1.99,4.68,2.13,4.68,2.13,0,0,3.76-.71,4.61-1.77Z">
</path>
<path class="cls-2" d="M29.62,52.98s.92-2.34,1.77-2.86c-.11,1.72,.51,2.57,.51,2.57l-2.29,.29Z">
</path>
<path class="cls-2" d="M38.84,52.67l1.01-2.23s1.42,1.17,1.62,2.38c-1.62,0-2.63-.15-2.63-.15Z">
</path>
<path d="M16.33,28.29s-1.71-1.71-3.29-.34c-1.1,2.4,.48,8.97,.48,8.97,0,0-.55,2.94,.41,4.04-.34,3.08,1.03,3.9,1.78,4.04,.48-2.12,.75-2.88,.75-2.88l-.68-1.78s1.37-5.96,2.12-6.92c-1.78-2.74-2.4-4.38-1.58-5.14Z">
</path>
<path d="M53.63,55.66l-16.85,18.87s-21.3-.64-26.29-3.5c-2.33-6.57-2.54-9.96-2.54-9.96l8.95-2.81,.26-3.58,5.41,3.53,.21,1.91s6.15,5.41,18.23,3.39c5.3-1.59,7.21-3.29,7.21-3.29l.21-1.91,5.21-3.49-.02,.84Z">
</path>
<path class="cls-14" d="M9.82,62.37s5.49-2.52,7.7-2.82c-3.58,3.51-7.7,2.82-7.7,2.82Z">
</path>
<path class="cls-1" d="M35.2,11.16c2.85,0,5.64,.51,8.09,1.47,3,1.17,5.05,2.59,6.26,4.33,1.34,2.68,2,6.44,1.65,9.38-.04,.31,.07,.62,.3,.84,.77,.75,1.34,1.5,1.67,2.19-.05,.63-.92,2.46-1.88,3.5-.28,.31-.34,.75-.16,1.12l.17,.35c1.13,2.23,1.79,4.19,2.01,5.98-1.26,2.14-2.63,4.15-4.17,6.12-.3,.39-.28,.94,.06,1.3,.2,.21,.46,.31,.73,.31,.2,0,.4-.06,.57-.18,.98-.68,1.9-1.49,2.79-2.46,.17,1.97,.21,4.71-.39,7.56-.91,1.13-2.01,2.01-2.95,2.64-.19-3.76-.84-6.12-.84-6.14l-.98-3.61c-.12-.44-.52-.74-.96-.74-.04,0-.09,0-.13,0-.5,.07-.87,.49-.87,.99v3.74c0,.05-.04,4.97-1.77,8.03-.14,.03-.33,.05-.58,.05-1.01,0-2.36-.36-3.46-.76l.33-1.58c.11-.51-.2-1.03-.71-1.17l-.46-.13s-.06-.01-.07-.02c-.51-.12-1.91-.41-3.7-.41-1.44,0-2.82,.18-4.1,.53l-.46,.12c-.52,.14-.84,.66-.72,1.18l.1,.45c.1,.48,.18,.87,.24,1.18-.56,.16-1.51,.34-2.98,.34-.47,0-.97-.02-1.49-.05-1.01-2.54-1.54-7.05-1.65-8.02l-.46-4.63c-.05-.51-.48-.9-.99-.9,0,0,0,0,0,0-.51,0-.94,.38-.99,.89l-.53,4.61s-.37,3.17-.56,6.17c-1.11-.72-2.32-1.66-3.24-2.79-.58-2.77-.57-5.43-.4-7.44,.31,.34,.64,.67,.97,.98,.56,.5,1.11,.99,1.74,1.39,.17,.11,.35,.16,.54,.16,.27,0,.54-.11,.74-.33,.33-.36,.35-.9,.05-1.29-1.55-2-2.93-4.01-4.21-6.13,.1-.84,.32-1.76,.66-2.78,.42-1.22,.93-2.4,1.52-3.5,.19-.35,.15-.78-.1-1.09-.57-.72-1.87-2.37-1.88-3.66,.25-.46,1.04-1.61,1.58-2.04,.26-.21,.4-.55,.36-.88-.09-.83-.11-1.71-.06-2.65,.07-2.07,.77-4.81,1.71-6.71,3.02-3.7,8.15-5.82,14.1-5.82m0-1c-5.7,0-11.49,1.97-14.94,6.28-.96,1.9-1.78,4.8-1.86,7.22-.05,.94-.03,1.89,.07,2.79-.73,.6-1.75,2.13-1.93,2.56-.14,1.58,1.1,3.3,2.08,4.54-.62,1.16-1.15,2.39-1.58,3.65-.36,1.09-.64,2.21-.74,3.33,1.35,2.27,2.82,4.42,4.45,6.52-.58-.37-1.1-.83-1.61-1.29-.86-.81-1.63-1.7-2.34-2.65-.32,1.89-.79,5.98,.17,10.3,1.5,1.92,3.71,3.31,5.09,4.06,.11-3.23,.6-7.52,.63-7.75l.53-4.63,.46,4.63c.01,.07,.62,6.08,1.97,8.87,.81,.07,1.54,.1,2.17,.1,2.5,0,3.68-.47,4.11-.71-.06-.35-.18-1-.39-2.01l-.1-.46,.46-.12c1.38-.38,2.71-.5,3.85-.5,1.99,0,3.41,.37,3.5,.39l.46,.13-.51,2.41c1.09,.46,3.09,1.14,4.62,1.14,.48,0,.91-.07,1.25-.23,2.07-3.29,2.1-8.8,2.1-8.86v-3.74l.98,3.61c.04,.14,.82,3.09,.86,7.61,1.18-.63,3.27-1.93,4.83-3.94,.98-4.41,.48-8.57,.16-10.41-1.15,1.54-2.48,2.95-4.06,4.05,1.63-2.09,3.09-4.25,4.41-6.52-.22-2.3-1.11-4.6-2.15-6.65l-.17-.34c1-1.09,2.26-3.41,2.13-4.41-.42-.99-1.19-1.92-1.96-2.67,.4-3.31-.41-7.31-1.78-10.01-1.55-2.26-4.13-3.72-6.76-4.75-2.57-1.01-5.5-1.54-8.46-1.54h0Z">
</path>
<path class="cls-1" d="M57.01,41.27s.67,3.08-2.01,3.21c.03,.1,.04,.23,.05,.37l-.77-2.68,.73-1.91-2.2-6.53,1.98-5.43c-.04-.19-.07-.38-.09-.55,3.58-2.23,5.19,1.52,2.58,8.84,.53,1.48-.27,4.68-.27,4.68Z">
</path>
<path class="cls-2" d="M21.07,38.61s3.31,2.38,7.73,.25c-4.33,5.69-7.13,3.14-7.73-.25Z">
</path>
<path class="cls-4" d="M33.36,32.83s.36,1.72-2.84,2.9c-4.45-1.52-10.48,.43-10.48,.43,0,0-1.76-2.2,1.13-3.83s12.18,.5,12.18,.5Z">
</path>
<path class="cls-4" d="M37.6,32.83s-.36,1.72,2.84,2.9c4.45-1.52,10.48,.43,10.48,.43,0,0,1.76-2.2-1.13-3.83s-12.18,.5-12.18,.5Z">
</path>
<path class="cls-2" d="M51.9,58.67l-6.55,7.54s7.48-3.9,6.55-7.54Z">
</path>
<path d="M49.94,47.05c1.66-2.14,3.15-4.35,4.5-6.68,0,0-.07,.31-.07,.31-.2-2.35-1.11-4.71-2.17-6.81,0,0-.17-.33-.17-.33,1.01-1.09,2.27-3.41,2.13-4.42-.42-.99-1.19-1.92-1.96-2.67,.41-3.31-.4-7.31-1.78-10.02-1.55-2.25-4.13-3.71-6.76-4.74-7.52-2.96-18.16-1.81-23.41,4.74-.96,1.9-1.78,4.8-1.85,7.22-.05,.94-.04,1.89,.07,2.79-.73,.59-1.75,2.13-1.93,2.55-.14,1.59,1.11,3.31,2.08,4.54-.62,1.16-1.15,2.39-1.57,3.65-.38,1.14-.67,2.32-.76,3.49l-.07-.29c1.37,2.32,2.87,4.52,4.53,6.66-.58-.37-1.09-.83-1.61-1.29-1.55-1.45-2.82-3.16-3.89-4.99,.18-2.64,1.1-5.07,2.25-7.42,0,0,.06,.6,.06,.6-1.12-1.49-2.32-3.17-2.13-5.14,.43-1.17,1.19-2.1,2.04-2.99,0,0-.17,.48-.17,.48-.33-3.62,.31-7.29,1.94-10.55,5.49-7.13,16.94-8.51,24.89-5.26,2.75,1.11,5.55,2.65,7.34,5.29,1.6,3.26,2.26,6.91,1.93,10.53,0,0-.18-.5-.18-.5,.84,.86,1.54,1.75,2.02,2.88,.33,2.01-.97,3.77-2.11,5.28,0,0,.07-.63,.07-.63,1.17,2.35,2.09,4.79,2.28,7.44-1.44,2.4-3.22,4.66-5.53,6.27h0Z">
</path>
<path class="cls-7" d="M16.28,28.61s-1.24-2.14-2.99-.85,.4,9.11,.4,9.11c0,0-1,2.09,.3,4.18-1.05,3.09,1.84,3.68,1.84,3.68">
</path>
<path class="cls-7" d="M16.53,41.89s-1.41,5.63-.02,11.74c2.41,3.15,6.62,4.93,6.62,4.93">
</path>
<path class="cls-7" d="M54.53,28.61s1.24-2.14,2.99-.85-.4,9.11-.4,9.11c0,0,1,2.09-.3,4.18,1.05,3.09-1.84,3.68-1.84,3.68">
</path>
<path class="cls-7" d="M54.28,41.89s1.41,5.63,.02,11.74c-2.41,3.15-6.02,4.63-6.02,4.63">
</path>
<path class="cls-7" d="M17.16,54.67l-.3,3.51s-4.91,1.52-10.01,3.71">
</path>
<path class="cls-7" d="M53.6,54.45l.52,3.74s4.91,1.52,10.01,3.71">
</path>
<path class="cls-9" d="M23.18,49.77s-.85,7.39-.6,10.14c3.7,4.25,18.44,6.7,25.88-.1,.3-5.9-.8-9.94-.8-9.94,0,0,0,5.8-2.25,9.24-2.1,1.15-6.8-1-6.8-1l.5-2.35s-3.4-.9-7.09,.1c.35,1.65,.45,2.35,.45,2.35,0,0-1.45,1.4-7.14,.85-1.5-2.8-2.15-9.29-2.15-9.29Z">
</path>
<path d="M25.66,55.72c.77-1.21,1.65-2.35,2.92-3.1,2.28-.38,4.54-.41,6.83-.44,2.28,0,4.56,.07,6.84,.29,.68,.44,1.31,.95,1.84,1.55,.51,.58,.98,1.2,1.32,1.88-.75-1.07-2.78-2.43-3.29-2.75-2.23,0-7.9,.02-10.05,.02-.96-.02-2.67,.07-3.22,.05-1.2,.55-2.23,1.55-3.18,2.5h0Z">
</path>
<path class="cls-10" d="M29.53,52.83s.18-1.41,1.69-2.51c.1,1.13,.82,2.38,.82,2.38">
</path>
<path class="cls-10" d="M41.37,52.83s-.18-1.41-1.69-2.51c-.1,1.13-.82,2.38-.82,2.38">
</path>
<path d="M39.17,40.64c2.74,.81,4.49,2.32,2.02,4.88-1.37-.26-2.8,.44-3.32,1.77-.07,.14-.03,.15-.19,.21-.66,.26-1.56,.18-2.25,.23-.72-.03-1.58,.04-2.26-.21,0,0-.12-.06-.12-.06-.28-.64-.7-1.25-1.31-1.56-.61-.35-1.4-.42-2.08-.31-.72-.64-1.19-1.5-1.24-2.47,.03-1.04,1.02-1.54,1.77-1.94,.49-.23,.99-.42,1.51-.53-.79,.59-1.73,1.19-2.28,1.96-.44,.7,.3,1.72,.65,2.33,0,0-.36-.11-.36-.11,.44-.1,.82-.11,1.24-.08,1.28,.09,2.41,.99,2.92,2.15,0,0-.2-.22-.2-.22-.06-.04,0,0,.07,0l.22,.02c.31,.03,1.16,.04,1.47,.05,.32,0,1.17,0,1.47-.03,0,0,.23-.02,.23-.02,.07,0,.13-.03,.08,0l-.19,.21c.35-.75,.94-1.43,1.71-1.78,.76-.37,1.59-.41,2.42-.23,0,0-.3,.09-.3,.09,.37-.57,.72-1.24,.82-1.92-.16-1.06-1.66-1.79-2.49-2.42h0Z">
</path>
<path d="M19.95,33.35s2.89-1.97,5.82-1.03,6.71,2.33,6.71,2.33c0,0,2-1.46,1.87-4.17-1.65,1.79-5.11-.16-8.01-.05s-5.28,1.54-6.38,2.92Z">
</path>
<path d="M51.11,33.35s-2.89-1.97-5.82-1.03-6.71,2.33-6.71,2.33c0,0-2-1.46-1.87-4.17,1.65,1.79,5.11-.16,8.01-.05s5.28,1.54,6.38,2.92Z">
</path>
<path d="M30.49,35.81c-.02,.13,.15,.27,.2,.26,0,0-.07-.01-.07-.01-2.99-.5-6.3-.57-9.11,.61,0,0,.09-.96,.09-.96,1.2,.8,2.64,1.56,4.08,1.56,1.24-.39,3.28-.98,4.7-1.66,0,0,.07-.03,.07-.03-.07,.05-.03,.19,.05,.24h0Zm.69-.13c-.03,.15-.2,.42-.38,.51-1.56,.84-3.25,1.38-4.92,1.97-2.17,.2-4.09-1.02-5.84-2.13,3.37-1.42,7.06-1.44,10.57-.69,.2,.04,.5,.09,.57,.35h0Z">
</path>
<path d="M39.81,35.68c.08-.26,.37-.31,.57-.35,3.51-.75,7.2-.73,10.57,.7-1.75,1.11-3.66,2.33-5.84,2.13-1.67-.58-3.36-1.13-4.92-1.97-.18-.09-.35-.36-.38-.51h0Zm.69,.13c.08-.05,.12-.19,.05-.24,.12,.06,.23,.12,.36,.17,1.34,.59,3.27,1.17,4.41,1.52,1.45,0,2.88-.76,4.08-1.56,0,0,.09,.96,.09,.96-2.82-1.18-6.12-1.11-9.11-.61,0,0-.07,.01-.07,.01,.06,0,.21-.14,.2-.26h0Z">
</path>
<path d="M47.48,26.23c-3.45-.55-9.02-1.9-11.65,.72,0,0-.35,.39-.35,.39-.11-.12-.41-.45-.51-.56,0,0,.02,.03,.02,.03-.59-.65-1.52-.99-2.46-1.17-2.99-.52-6.07,.04-9.06,.6,3.59-1.31,9.02-2.97,12.26-.1,.02,.02,.09,.1,.11,.12,0,0-.71,0-.71,0l.08-.09c3.18-2.9,8.71-1.24,12.27,.07h0Z">
</path>
<path class="cls-8" d="M16.86,58.18s2.3,11.28,18.62,11.28,18.63-11.28,18.63-11.28">
</path>
</g>
</g>
 <g
     id="g2850">
    <g
       id="g2837">
      <path
         id="path1951"
         d="M 0.056640625 0.04296875 L 0.056640625 79.943359 L 69.308594 79.943359 L 69.308594 0.04296875 L 0.056640625 0.04296875 z M 33.615234 3.5957031 C 34.206332 3.5957038 34.786991 3.6051034 35.421875 3.6152344 C 44.430653 3.7671809 53.471255 5.1336733 61.560547 7.5546875 L 62.064453 7.7070312 L 62.25 8.1640625 C 66.070247 17.605006 66.990234 28.726438 66.990234 40.0625 C 66.990234 51.398562 65.972723 63.025755 61.988281 72.578125 L 61.791016 73.044922 L 61.275391 73.185547 C 53.273669 75.403966 44.691921 76.529297 35.759766 76.529297 C 35.212453 76.529297 34.675812 76.519896 34.150391 76.509766 L 33.943359 76.509766 C 24.901742 76.357819 15.860367 74.989738 7.7929688 72.558594 L 7.2890625 72.40625 L 7.1035156 71.951172 C 3.2942144 62.520359 2.375 51.369168 2.375 40.0625 C 2.375 28.755832 3.3819737 17.127318 7.3554688 7.5546875 L 7.5527344 7.0898438 L 8.0664062 6.9472656 C 15.509867 4.890923 23.785212 3.7371557 32.005859 3.6054688 C 32.542226 3.5953387 33.078867 3.5957031 33.615234 3.5957031 z "
         style="opacity:1;vector-effect:none;fill:#ffffff;fill-opacity:1;fill-rule:nonzero;stroke:none;stroke-width:1.95200002;stroke-linecap:butt;stroke-linejoin:miter;stroke-miterlimit:4;stroke-dasharray:none;stroke-dashoffset:0;stroke-opacity:1" />
    </g>
    <path
       id="path1154-8-2"
       d="m 33.675163,6.6112954 c 0.557696,0 1.115392,0.00956 1.683415,0.019115 8.427403,0.14336 16.803167,1.4049288 24.363042,3.6700176 3.573384,8.830981 4.443772,19.417362 4.443772,29.761551 0,10.344189 -0.95301,21.39888 -4.68131,30.334991 -7.435942,2.064385 -15.429581,3.274388 -23.774362,3.274388 -0.506058,0 -1.012115,-0.0096 -1.518172,-0.01911 h -0.17557 C 25.56792,73.508883 17.192156,72.088619 9.6426089,69.813973 6.0795528,61.002107 5.2088244,50.415411 5.2088244,40.061979 c 0,-10.353432 0.95335,-21.389323 4.6609939,-30.325434 C 16.820359,7.8155201 24.462856,6.7450981 32.177647,6.6208528 c 0.49573,-0.00956 1.001787,-0.00956 1.497516,-0.00956 m 0,-0.9557337 c -0.506057,0 -1.012114,0 -1.518171,0.00956 C 24.40089,5.7893644 16.593149,6.8789009 9.570315,8.8190405 L 9.0849131,8.9528432 8.8990146,9.3924808 C 5.1500599,18.424166 4.1999116,29.394246 4.1999116,40.061979 c 0,10.667733 0.8675267,21.188618 4.461566,30.0865 l 0.1755708,0.430081 0.4750741,0.14336 c 7.6115135,2.293761 16.1421925,3.584001 24.6728715,3.727361 h 0.196227 c 0.495729,0.0096 1.001786,0.01911 1.518171,0.01911 8.427403,0 16.524318,-1.060864 24.073866,-3.153921 l 0.485403,-0.133802 0.185898,-0.439639 c 3.759282,-9.01257 4.719759,-19.983589 4.719759,-30.679055 0,-10.695466 -0.867528,-21.188618 -4.471894,-30.0960578 L 60.516853,9.5358409 60.041779,9.3924808 C 52.409609,7.108277 43.87893,5.8180364 35.379234,5.6746763 34.780227,5.6651187 34.232859,5.6555621 33.675163,5.6555615 Z"
       style="fill:#ff0000;stroke:#ffffff;stroke-width:1.84341729;stroke-miterlimit:4;stroke-dasharray:none" />
    <path
       id="path1154"
       d="m 33.614853,4.6077955 c 0.591098,0 1.182197,0.01013 1.784241,0.02026 8.932155,0.1519464 17.809578,1.4890758 25.822246,3.8898304 3.787408,9.3599041 4.709928,20.5803481 4.709928,31.5440931 0,10.963745 -1.01009,22.680548 -4.961693,32.151879 -7.881312,2.18803 -16.353723,3.302304 -25.198307,3.302304 -0.536368,0 -1.072735,-0.01013 -1.609102,-0.02026 H 33.97608 C 25.022033,75.343956 16.14461,74.006827 8.1428892,71.595943 4.3664269,62.256298 3.443547,51.035521 3.443547,40.061979 c 0,-10.973542 1.01045,-22.670418 4.9401601,-32.1417498 7.3668369,-2.036083 15.4670749,-3.170617 23.6439369,-3.3023039 0.525421,-0.01013 1.061788,-0.01013 1.587209,-0.01013 m 0,-1.0129766 c -0.536367,0 -1.072734,0 -1.609101,0.01013 C 23.785105,3.7366356 15.509726,4.891429 8.0662653,6.9477716 L 7.5517907,7.0895883 7.3547579,7.5555576 C 3.3812628,17.128188 2.3742062,28.755311 2.3742062,40.061979 c 0,11.306668 0.9194864,22.457692 4.7287876,31.888505 l 0.1860865,0.45584 0.5035283,0.151947 c 8.0673984,2.431144 17.1090154,3.798662 26.1506324,3.950608 h 0.207979 c 0.525421,0.01013 1.061788,0.02026 1.609101,0.02026 8.932155,0 17.514028,-1.124404 25.51575,-3.342823 l 0.514475,-0.141816 0.197032,-0.46597 c 3.984442,-9.55237 5.002445,-21.180489 5.002445,-32.516551 0,-11.336062 -0.919487,-22.457692 -4.739734,-31.8986353 L 62.064202,7.7075041 61.560674,7.5555576 C 53.471382,5.1345434 44.429765,3.7670249 35.420987,3.6150784 c -0.634884,-0.01013 -1.215036,-0.020259 -1.806134,-0.02026 z"
       style="fill:#000000;stroke:#000000;stroke-width:1.95382714;stroke-miterlimit:4;stroke-dasharray:none" />
    <g
       id="g1810">
      <path
         d="M 6.5134911,7.7433673 C 5.6489029,6.8479453 4.058602,6.5681013 3.6272194,7.3820013 3.284151,8.0292783 3.3625296,8.5309135 4.395235,8.9201755 3.2963719,9.5187755 1.4857674,9.4447465 1.1893447,7.4467713 0.95320848,5.8551433 2.674739,4.8863543 3.1399725,5.0916244 3.0034432,3.6818714 1.8221094,4.0692802 0.95849208,3.2813384 0.34259068,2.7194046 0.23126071,-0.02624603 0.0561761,0.04378767 -0.0138576,0.21887227 2.7317937,0.33020157 3.2937267,0.94610377 4.0816685,1.8097211 3.6942598,2.9910547 5.1040128,3.1275841 4.8987425,2.6623507 5.8675315,0.94082017 7.4591593,1.1769564 9.4571345,1.4733791 9.5311625,3.2839847 8.9325635,4.3828467 8.5433008,3.3501417 8.041666,3.2717627 7.3943894,3.6148312 6.5804899,4.0462137 6.8603354,5.6365129 7.7557553,6.5011023"
         style="fill:#000000;stroke:#000000;stroke-width:0.1112323px;stroke-linecap:butt;stroke-linejoin:miter;stroke-opacity:1"
         id="path1737-3" />
      <path
         d="m 62.850738,7.7433673 c 0.864588,-0.895422 2.454889,-1.175266 2.886271,-0.361366 0.343069,0.647277 0.26469,1.148912 -0.768015,1.538174 1.098863,0.5986 2.909467,0.524571 3.20589,-1.473404 0.236136,-1.591628 -1.485394,-2.560417 -1.950628,-2.3551469 0.13653,-1.409753 1.317863,-1.0223442 2.181481,-1.810286 0.615901,-0.5619338 0.727231,-3.30758442 0.902316,-3.23755072 0.07003,0.1750846 -2.675618,0.2864139 -3.237551,0.9023161 C 65.28256,1.8097211 65.669969,2.9910547 64.260216,3.1275841 64.465486,2.6623507 63.496697,0.94082018 61.905069,1.1769564 c -1.997975,0.2964227 -2.072003,2.1070283 -1.473404,3.2058903 0.389263,-1.032705 0.890898,-1.111084 1.538174,-0.7680155 0.8139,0.4313825 0.534054,2.0216817 -0.361366,2.8862711"
         style="fill:#000000;stroke:#000000;stroke-width:0.1112323px;stroke-linecap:butt;stroke-linejoin:miter;stroke-opacity:1"
         id="path1737-3-5" />
      <path
         d="m 62.850738,72.244244 c 0.864588,0.895422 2.454889,1.175266 2.886272,0.361366 0.343068,-0.647277 0.264689,-1.148912 -0.768016,-1.538174 1.098863,-0.5986 2.909468,-0.524571 3.20589,1.473404 0.236137,1.591628 -1.485394,2.560417 -1.950628,2.355147 0.13653,1.409753 1.317864,1.022344 2.181481,1.810286 0.615901,0.561934 0.727231,3.307584 0.902316,3.237551 0.07003,-0.175085 -2.675618,-0.286414 -3.237551,-0.902317 -0.787942,-0.863617 -0.400533,-2.04495 -1.810286,-2.18148 0.20527,0.465234 -0.763519,2.186764 -2.355146,1.950628 -1.997976,-0.296423 -2.072004,-2.107028 -1.473405,-3.20589 0.389263,1.032705 0.890898,1.111084 1.538175,0.768015 0.813899,-0.431382 0.534054,-2.021682 -0.361366,-2.886271"
         style="fill:#000000;stroke:#000000;stroke-width:0.1112323px;stroke-linecap:butt;stroke-linejoin:miter;stroke-opacity:1"
         id="path1737-3-7" />
      <path
         d="M 6.513491,72.244245 C 5.648903,73.139667 4.058602,73.419511 3.62722,72.605611 3.284151,71.958334 3.36253,71.456699 4.395235,71.067437 c -1.098863,-0.5986 -2.909467,-0.524571 -3.20589,1.473404 -0.23613599,1.591628 1.485394,2.560417 1.950628,2.355147 -0.13653,1.409753 -1.317863,1.022344 -2.18148099,1.810286 -0.615901,0.561933 -0.727231,3.307584 -0.902316,3.23755 C -0.01385399,79.76874 2.731794,79.65741 3.293727,79.041508 4.081669,78.177891 3.69426,76.996557 5.104013,76.860028 4.898743,77.325261 5.867532,79.046792 7.45916,78.810656 9.457135,78.514233 9.531163,76.703627 8.932564,75.604765 8.543301,76.63747 8.041666,76.715849 7.39439,76.372781 6.58049,75.941398 6.860336,74.351099 7.755756,73.48651"
         style="fill:#000000;stroke:#000000;stroke-width:0.1112323px;stroke-linecap:butt;stroke-linejoin:miter;stroke-opacity:1"
         id="path1737-3-5-5" />
    </g>
    <path
       id="path1154-9"
       d="m 33.712865,7.4258691 c 0.536813,0 1.07363,0.00933 1.620386,0.01865 8.111875,0.1398689 16.174044,1.3707167 23.450873,3.5806479 3.439594,8.615932 4.277395,18.944521 4.277395,29.036812 0,10.092292 -0.917329,20.877786 -4.506039,29.596289 -7.157536,2.014114 -14.851888,3.03982 -22.884234,3.03982 -0.487111,0 -0.974221,-0.0094 -1.461331,-0.01865 H 34.040918 C 25.909161,72.53957 17.846991,71.308722 10.580105,69.089467 7.1504515,60.492184 6.3123238,50.163289 6.3123238,40.061979 c 0,-10.101311 0.9176558,-20.868461 4.4864832,-29.586965 6.690308,-1.8742449 14.046665,-2.9186005 21.472608,-3.0398203 0.47717,-0.00933 0.964281,-0.00933 1.44145,-0.00933 m 0,-0.9324602 c -0.487111,0 -0.974221,0 -1.46133,0.00933 C 24.785826,6.6239532 17.270413,7.686958 10.510517,9.5798526 L 10.043289,9.710397 9.8643508,10.139328 c -3.6085914,8.811751 -4.5231655,19.514693 -4.5231655,29.922651 0,10.407958 0.8350459,20.672644 4.294522,29.353849 l 0.1689973,0.419608 0.4572874,0.13987 c 7.326533,2.237904 15.537818,3.496724 23.749103,3.636593 h 0.188879 c 0.47717,0.0094 0.96428,0.01865 1.461331,0.01865 8.111875,0 15.905636,-1.035031 23.172525,-3.077119 l 0.467228,-0.130544 0.178938,-0.428932 c 3.618533,-8.793101 4.543048,-19.496959 4.543048,-29.931975 0,-10.435016 -0.835047,-20.672644 -4.304463,-29.363174 l -0.168997,-0.419609 -0.457288,-0.13987 C 51.74588,7.9107484 43.534594,6.6519271 35.353133,6.512058 34.776554,6.502738 34.249678,6.493409 33.712865,6.493409 Z"
       style="fill:#000000;stroke:none;stroke-width:1.78642213;stroke-miterlimit:4;stroke-dasharray:none" />
    <path
       id="path1154-9-3"
       d="m 33.712865,7.4258686 c 0.536813,0 1.07363,0.00933 1.620386,0.01865 8.111875,0.1398689 16.174044,1.3707167 23.450873,3.5806484 3.439594,8.615932 4.277395,18.944521 4.277395,29.036812 0,10.092292 -0.917329,20.877786 -4.506039,29.596288 -7.157536,2.014114 -14.851888,3.03982 -22.884234,3.03982 -0.487111,0 -0.974221,-0.0094 -1.461331,-0.01865 H 34.040918 C 25.909161,72.539569 17.846991,71.308722 10.580105,69.089466 7.1504515,60.492184 6.3123238,50.163288 6.3123238,40.061979 c 0,-10.101312 0.9176558,-20.868461 4.4864832,-29.586965 6.690308,-1.8742454 14.046665,-2.918601 21.472608,-3.0398208 0.47717,-0.00933 0.964281,-0.00933 1.44145,-0.00933 m 0,-0.9324602 c -0.487111,0 -0.974221,0 -1.46133,0.00933 C 24.785826,6.6239527 17.270413,7.6869575 10.510517,9.5798521 L 10.043289,9.7103965 9.8643508,10.139328 C 6.2557594,18.951079 5.3411853,29.65402 5.3411853,40.061979 c 0,10.407958 0.8350459,20.672643 4.294522,29.353849 l 0.1689973,0.419608 0.4572874,0.13987 c 7.326533,2.237904 15.537818,3.496724 23.749103,3.636593 h 0.188879 c 0.47717,0.0094 0.96428,0.01865 1.461331,0.01865 8.111875,0 15.905636,-1.035032 23.172525,-3.077119 l 0.467228,-0.130544 0.178938,-0.428932 c 3.618533,-8.793101 4.543048,-19.49696 4.543048,-29.931975 0,-10.435016 -0.835047,-20.672644 -4.304463,-29.363175 l -0.168997,-0.419609 -0.457288,-0.13987 C 51.74588,7.9107479 43.534594,6.6519266 35.353133,6.5120575 34.776554,6.5027375 34.249678,6.4934085 33.712865,6.4934085 Z"
       style="fill:#000000;stroke:none;stroke-width:1.78642213;stroke-miterlimit:4;stroke-dasharray:none" />
  </g>
</svg>
