<svg id="Capa_2" xmlns="http://www.w3.org/2000/svg" xmlns:xlink="http://www.w3.org/1999/xlink" viewBox="0 0 69.02 80">
<defs >
<style >
.cls-1{fill:#c89aed;}.cls-2{fill:#fff;}.cls-3{fill:#f8ffbf;}.cls-4{fill:#7b7be8;}.cls-5{fill:#a88347;}.cls-6{fill:#782ab5;}.cls-7,.cls-8{stroke:#000;stroke-miterlimit:10;}.cls-7,.cls-8,.cls-9,.cls-10,.cls-11{fill:none;}.cls-8,.cls-9{stroke-linecap:round;}.cls-9{stroke:#deb778;stroke-dasharray:0 0 0 4.06;stroke-linejoin:round;}.cls-12{fill:#deb778;}.cls-13{fill:url(#USGS_19_Inundación_de_tierra_2);}.cls-11{stroke:#1d1d1b;stroke-dasharray:0 0 2 2;stroke-width:.3px;}.cls-14{fill:#fcf0c5;}
</style>
<pattern id="USGS_19_Inundación_de_tierra_2" x="0" y="0" width="72" height="72" patternTransform="translate(267.52 -16999) rotate(-90)" patternUnits="userSpaceOnUse" viewBox="0 0 72 72">
<g >
<rect class="cls-10" width="72" height="72">
</rect>
<g >
<line class="cls-11" x1="71" y1="71" x2="144.44" y2="71">
</line>
<line class="cls-11" x1="71" y1="67" x2="144.44" y2="67">
</line>
<line class="cls-11" x1="71" y1="63" x2="144.44" y2="63">
</line>
<line class="cls-11" x1="71" y1="59" x2="144.44" y2="59">
</line>
<line class="cls-11" x1="71" y1="55" x2="144.44" y2="55">
</line>
<line class="cls-11" x1="71" y1="51" x2="144.44" y2="51">
</line>
<line class="cls-11" x1="71" y1="47" x2="144.44" y2="47">
</line>
<line class="cls-11" x1="71" y1="43" x2="144.44" y2="43">
</line>
<line class="cls-11" x1="71" y1="39" x2="144.44" y2="39">
</line>
<line class="cls-11" x1="71" y1="35" x2="144.44" y2="35">
</line>
<line class="cls-11" x1="71" y1="31" x2="144.44" y2="31">
</line>
<line class="cls-11" x1="71" y1="27" x2="144.44" y2="27">
</line>
<line class="cls-11" x1="71" y1="23" x2="144.44" y2="23">
</line>
<line class="cls-11" x1="71" y1="19" x2="144.44" y2="19">
</line>
<line class="cls-11" x1="71" y1="15" x2="144.44" y2="15">
</line>
<line class="cls-11" x1="71" y1="11" x2="144.44" y2="11">
</line>
<line class="cls-11" x1="71" y1="7" x2="144.44" y2="7">
</line>
<line class="cls-11" x1="71" y1="3" x2="144.44" y2="3">
</line>
</g>


<g >
<line class="cls-11" x1="-1" y1="71" x2="72.44" y2="71">
</line>
<line class="cls-11" x1="-1" y1="67" x2="72.44" y2="67">
</line>
<line class="cls-11" x1="-1" y1="63" x2="72.44" y2="63">
</line>
<line class="cls-11" x1="-1" y1="59" x2="72.44" y2="59">
</line>
<line class="cls-11" x1="-1" y1="55" x2="72.44" y2="55">
</line>
<line class="cls-11" x1="-1" y1="51" x2="72.44" y2="51">
</line>
<line class="cls-11" x1="-1" y1="47" x2="72.44" y2="47">
</line>
<line class="cls-11" x1="-1" y1="43" x2="72.44" y2="43">
</line>
<line class="cls-11" x1="-1" y1="39" x2="72.44" y2="39">
</line>
<line class="cls-11" x1="-1" y1="35" x2="72.44" y2="35">
</line>
<line class="cls-11" x1="-1" y1="31" x2="72.44" y2="31">
</line>
<line class="cls-11" x1="-1" y1="27" x2="72.44" y2="27">
</line>
<line class="cls-11" x1="-1" y1="23" x2="72.44" y2="23">
</line>
<line class="cls-11" x1="-1" y1="19" x2="72.44" y2="19">
</line>
<line class="cls-11" x1="-1" y1="15" x2="72.44" y2="15">
</line>
<line class="cls-11" x1="-1" y1="11" x2="72.44" y2="11">
</line>
<line class="cls-11" x1="-1" y1="7" x2="72.44" y2="7">
</line>
<line class="cls-11" x1="-1" y1="3" x2="72.44" y2="3">
</line>
<line class="cls-11" x1="1.04" y1="69" x2="74.48" y2="69">
</line>
<line class="cls-11" x1="1.04" y1="65" x2="74.48" y2="65">
</line>
<line class="cls-11" x1="1.04" y1="61" x2="74.48" y2="61">
</line>
<line class="cls-11" x1="1.04" y1="57" x2="74.48" y2="57">
</line>
<line class="cls-11" x1="1.04" y1="53" x2="74.48" y2="53">
</line>
<line class="cls-11" x1="1.04" y1="49" x2="74.48" y2="49">
</line>
<line class="cls-11" x1="1.04" y1="45" x2="74.48" y2="45">
</line>
<line class="cls-11" x1="1.04" y1="41" x2="74.48" y2="41">
</line>
<line class="cls-11" x1="1.04" y1="37" x2="74.48" y2="37">
</line>
<line class="cls-11" x1="1.04" y1="33" x2="74.48" y2="33">
</line>
<line class="cls-11" x1="1.04" y1="29" x2="74.48" y2="29">
</line>
<line class="cls-11" x1="1.04" y1="25" x2="74.48" y2="25">
</line>
<line class="cls-11" x1="1.04" y1="21" x2="74.48" y2="21">
</line>
<line class="cls-11" x1="1.04" y1="17" x2="74.48" y2="17">
</line>
<line class="cls-11" x1="1.04" y1="13" x2="74.48" y2="13">
</line>
<line class="cls-11" x1="1.04" y1="9" x2="74.48" y2="9">
</line>
<line class="cls-11" x1="1.04" y1="5" x2="74.48" y2="5">
</line>
<line class="cls-11" x1="1.04" y1="1" x2="74.48" y2="1">
</line>
</g>


<g >
<line class="cls-11" x1="-73" y1="71" x2=".44" y2="71">
</line>
<line class="cls-11" x1="-73" y1="67" x2=".44" y2="67">
</line>
<line class="cls-11" x1="-73" y1="63" x2=".44" y2="63">
</line>
<line class="cls-11" x1="-73" y1="59" x2=".44" y2="59">
</line>
<line class="cls-11" x1="-73" y1="55" x2=".44" y2="55">
</line>
<line class="cls-11" x1="-73" y1="51" x2=".44" y2="51">
</line>
<line class="cls-11" x1="-73" y1="47" x2=".44" y2="47">
</line>
<line class="cls-11" x1="-73" y1="43" x2=".44" y2="43">
</line>
<line class="cls-11" x1="-73" y1="39" x2=".44" y2="39">
</line>
<line class="cls-11" x1="-73" y1="35" x2=".44" y2="35">
</line>
<line class="cls-11" x1="-73" y1="31" x2=".44" y2="31">
</line>
<line class="cls-11" x1="-73" y1="27" x2=".44" y2="27">
</line>
<line class="cls-11" x1="-73" y1="23" x2=".44" y2="23">
</line>
<line class="cls-11" x1="-73" y1="19" x2=".44" y2="19">
</line>
<line class="cls-11" x1="-73" y1="15" x2=".44" y2="15">
</line>
<line class="cls-11" x1="-73" y1="11" x2=".44" y2="11">
</line>
<line class="cls-11" x1="-73" y1="7" x2=".44" y2="7">
</line>
<line class="cls-11" x1="-73" y1="3" x2=".44" y2="3">
</line>
<line class="cls-11" x1="-70.96" y1="69" x2="2.48" y2="69">
</line>
<line class="cls-11" x1="-70.96" y1="65" x2="2.48" y2="65">
</line>
<line class="cls-11" x1="-70.96" y1="61" x2="2.48" y2="61">
</line>
<line class="cls-11" x1="-70.96" y1="57" x2="2.48" y2="57">
</line>
<line class="cls-11" x1="-70.96" y1="53" x2="2.48" y2="53">
</line>
<line class="cls-11" x1="-70.96" y1="49" x2="2.48" y2="49">
</line>
<line class="cls-11" x1="-70.96" y1="45" x2="2.48" y2="45">
</line>
<line class="cls-11" x1="-70.96" y1="41" x2="2.48" y2="41">
</line>
<line class="cls-11" x1="-70.96" y1="37" x2="2.48" y2="37">
</line>
<line class="cls-11" x1="-70.96" y1="33" x2="2.48" y2="33">
</line>
<line class="cls-11" x1="-70.96" y1="29" x2="2.48" y2="29">
</line>
<line class="cls-11" x1="-70.96" y1="25" x2="2.48" y2="25">
</line>
<line class="cls-11" x1="-70.96" y1="21" x2="2.48" y2="21">
</line>
<line class="cls-11" x1="-70.96" y1="17" x2="2.48" y2="17">
</line>
<line class="cls-11" x1="-70.96" y1="13" x2="2.48" y2="13">
</line>
<line class="cls-11" x1="-70.96" y1="9" x2="2.48" y2="9">
</line>
<line class="cls-11" x1="-70.96" y1="5" x2="2.48" y2="5">
</line>
<line class="cls-11" x1="-70.96" y1="1" x2="2.48" y2="1">
</line>
</g>


</g>


</pattern>
</defs>

  <path
     id="path7641-4"
     style="fill:#782ab5;fill-opacity:1;stroke:#4d4d4d;stroke-width:1.62226;stop-color:#000000"
     d="M 34.900259,1.6936052 C 14.323312,9.5265586 1.6299002,23.954051 1.5689773,39.580572 V 79.197446 H 67.963672 V 39.580572 C 67.958188,23.990066 55.374427,9.5708664 34.900259,1.6936052 Z"/>
  <path
     id="path7641-7"
     style="fill:#808080;stroke:#4d4d4d;stroke-width:1.48325;stop-color:#000000"
     d="M 34.629293,5.0425238 C 15.815619,12.204258 4.1542243,25.395327 4.1542243,39.682894 V 76.559207 H 64.859448 V 39.682894 c 0,-14.254531 -11.510452,-27.438125 -30.230155,-34.6403702 z m -0.01233,3.4358455 C 51.537073,14.988239 61.941622,26.904418 61.941622,39.788613 v 33.82806 H 7.07205 v -33.82806 c 0,-12.914055 10.539857,-24.836991 27.544909,-31.3102437 z"/>
  <path
     id="path7641-7-8"
     style="fill:#808080;stroke:#4d4d4d;stroke-width:1.35027;stop-color:#000000"
     d="M 34.618314,8.2461803 C 17.491429,14.76581 6.8755673,26.7742 6.8755673,39.780777 v 33.57007 H 62.138105 v -33.57007 c 0,-12.976504 -10.478452,-24.978088 -27.519791,-31.5345967 z m -0.01123,3.1277957 c 15.403093,5.926211 24.874795,16.774013 24.874795,28.503041 V 70.672134 H 9.5317874 V 39.877017 c 0,-11.75621 9.5948786,-22.610165 25.0752986,-28.503041 z"/>
  <path
     id="path7641-7-8-0"
     style="fill:#808080;stroke:#4d4d4d;stroke-width:1.21411;stop-color:#000000"
     d="M 34.607073,11.526302 C 19.207238,17.388502 9.6618637,28.185984 9.6618637,39.880997 V 70.06591 H 59.351809 V 39.880997 c 0,-11.667973 -9.421821,-22.459335 -24.744736,-28.354695 z m -0.0101,2.812393 c 13.849868,5.328621 22.366458,15.082547 22.366458,25.628837 V 67.657315 H 12.050234 V 39.967532 c 0,-10.570731 8.627346,-20.33019 22.546743,-25.628837 z"/>


<g >


<g >
<path class="cls-1" d="M61.3,63.67l-.88,8.37s-8.47,5.02-25.2,5.02-27.75-4.43-27.75-4.43v-8.76l17.91-6.5-.69-6.89-1.97-2.26-1.38-3.05-2.65,.2s-2.96-3.25-4.04-6.2c-1.08-2.96,.2-7.58,.2-7.58,0,0,1.18,.59,4.03,3.84-.06-1.81-.04-5.29,.75-9.51,.38-1.98,.92-4.13,1.71-6.34,4.24-5.41,13.98-6,13.98-6,10.92,.39,14.17,6.4,14.17,6.4,0,0,1.12,4.02,1.65,9,.22,2.12,.34,4.41,.22,6.64,.59-.98,3.94-3.83,3.94-3.83,0,0,.79,2.55,.59,6.39-.4,3.64-4.43,6.99-4.43,6.99l-2.85-.1-1.78,4.23-1.37,1.48-.79,6.99,16.63,5.9Z">
</path>
<path class="cls-2" d="M34.9,52.55v-17.86c0-6.59,3.73-12.45,9.42-15.76,.22-.13,.43-.26,.64-.4,4.36,4.47,6.44,12.44,6.44,12.44,0,0-.33,11.61-4.57,18.33-3.68,3.21-7.76,6.81-7.76,6.81h0c-2.19,.35-4.17-1.34-4.17-3.56Z">
</path>
<path class="cls-4" d="M22.04,36.54l-1.27-5.09s1.59-1.22,3.29-1.64c3.82,1.22,7.79,5.46,7.79,5.46l-1.48,2.23-8.32-.95Z">
</path>
<path class="cls-4" d="M47.84,36.54l1.27-5.09s-1.59-1.22-3.29-1.64c-3.82,1.22-7.79,5.46-7.79,5.46l1.48,2.23,8.32-.95Z">
</path>
<path class="cls-4" d="M51.14,28.98c-1.14-2.84-3.31-7.53-6.18-10.45-5.14,3.74-15.83,3.14-19.5,.07-1.91,.38-4.21,4.16-5.83,7.32,.38-1.98,.92-4.13,1.71-6.34,4.24-5.41,13.98-6,13.98-6,10.92,.39,14.17,6.4,14.17,6.4,0,0,1.12,4.02,1.65,9Z">
</path>
<path d="M44.52,51.85l-23.42,23.03-13.62-2.25,.93-8.87,16.98-6.39-.74-6.5s4.72,3.64,6.4,5.51c6.89,.49,8.46-.3,8.46-.3l5.02-4.23Z">
</path>
<path class="cls-3" d="M30.17,35.93s-2.67-1.22-3.6-1.34c-4.24,1.57-4.3,2.09-4.3,2.09,0,0,1.05,2.15,4.94,2.03,2.62-.46,4.3-1.28,2.96-2.79Z">
</path>
<path class="cls-3" d="M39.83,35.93s2.67-1.22,3.6-1.34c4.24,1.57,4.3,2.09,4.3,2.09,0,0-1.05,2.15-4.94,2.03-2.62-.46-4.3-1.28-2.96-2.79Z">
</path>
<path d="M19.19,35.88s-2.94-3.44-4.04-3.94c-1,4.74-1.1,7.23,.35,9.53s3.19,3.9,3.19,3.9l2.6-.36s-1.75-7.48-2.1-9.13Z">
</path>
<path class="cls-2" d="M22.88,39.55s4.07,1.85,8.02-.99c-2.04,4.94-5.68,5.62-8.02,.99Z">
</path>
<path class="cls-1" d="M25.13,20.46c3.31,2.27,9.24,2.34,9.94,2.34s6.62-.07,9.94-2.34c1.92,1.49,3.9,6.67,4.76,10.17l.09,.36c.07,1.28,.07,2.4-.02,3.41-.6,7.56-3.58,12.84-4.17,13.82l-7.06,6.57c-1.29,.21-2.57,.32-3.82,.32-1.11,0-2.18-.08-3.18-.24l-7.13-6.64c-.59-.98-3.57-6.26-4.17-13.82-.09-1.12-.08-2.32,.03-3.66l.03-.11c.86-3.51,2.84-8.69,4.76-10.17m19.81-1.2c-2.92,2.51-9.58,2.54-9.87,2.54s-6.95-.03-9.87-2.54c-2.83,1.25-5.13,8.41-5.8,11.14h-.03c-.12,1.34-.16,2.72-.05,4.09,.65,8.22,4.02,13.8,4.38,14.38l7.45,6.94c.94,.17,2.17,.31,3.65,.31,1.26,0,2.7-.1,4.28-.38l7.38-6.87c.36-.58,3.73-6.16,4.38-14.38,.11-1.32,.08-2.72-.02-4.11l-.08,.02c-.67-2.73-2.98-9.89-5.8-11.14h0Z">
</path>
<path class="cls-2" d="M24.6,74.71l18.16-18.41-.61,4.9c-.11,.89,.52,1.71,1.41,1.83h0c.81,.11,1.57-.39,1.8-1.17l.58-1.98,14.9,5.46-2.93,9.85s-23.37,4.4-33.31-.49Z">
</path>
<path class="cls-2" d="M51.16,36.33l3-1.8s.37,5.1-1.65,9.29c3.82-4.57,3.37-9.22,2.55-11.84-2.02,1.42-3.9,4.35-3.9,4.35Z">
</path>
<line class="cls-8" x1="8.33" y1="63.69" x2="25.55" y2="57.54">
</line>
<path class="cls-8" d="M25.97,61.16s-.65-7.82-1.58-10.76">
</path>
<line class="cls-8" x1="61.61" y1="63.69" x2="44.39" y2="57.54">
</line>
<path class="cls-8" d="M43.98,61.16s.65-7.82,1.58-10.76">
</path>
<path class="cls-8" d="M49.82,21.45c-.45-1.78-1.49-3.34-2.96-4.43-2.71-2.01-6.5-3.47-11.55-3.47s-8.74,1.91-11.53,3.85c-1.49,1.03-2.58,2.52-3.1,4.26-1.15,3.79-2.22,8.39-1.86,12.87,.7,8.88,4.49,14.66,4.49,14.66l7.61,7.09c1.62,.3,4.59,.61,8.39-.07l7.54-7.02s3.79-5.78,4.49-14.66c.31-4.01-.52-9.11-1.52-13.08Z">
</path>
<path class="cls-8" d="M18.82,35.72s-2.34-3.26-3.85-3.94c-1.57,5.67-.38,10.06,3.79,13.34,1.5,.27,2.46-.14,2.46-.14">
</path>
<path class="cls-8" d="M51.31,35.72s2.34-3.26,3.85-3.94c1.57,5.67,.38,10.06-3.79,13.34-1.5,.27-2.46-.14-2.46-.14">
</path>
<path d="M20.69,31.63c.95-1.08,2.06-2.05,3.54-2.41,3.19,1.14,5.96,3.05,8.54,5.2,0,0-1.39,1.44-1.39,1.44-2.14-2.21-4.59-4.3-7.37-5.66,0,0,.25,.03,.25,.03-1.19,0-2.48,.64-3.57,1.4h0Z">
</path>
<path d="M30.29,35.98c-.94-.3-2.44-.91-3.37-1-.82,.33-3.3,1.1-4.56,1.83,0,0-.14,.07-.14,.07h-.07c-.69-.16-1.32-.46-1.78-.98,.31,.13,.61,.21,.92,.26,.3,.05,.63,.08,.9,.07l-.21,.06c1.44-1.18,3.17-1.91,4.98-2.22,1.34,.28,2.35,1.02,3.32,1.9h0Z">
</path>
<path d="M30.5,37.46c-2.4,2.15-6.88,2.39-8.55-.76,0,0,.45-.28,.45-.28,1.87,2.92,5.33,2.16,8.11,1.04h0Z">
</path>
<path d="M49.03,31.63c-1.09-.77-2.38-1.4-3.57-1.4,0,0,.25-.03,.25-.03-1.39,.67-2.69,1.55-3.92,2.52-1.21,.96-2.4,2.03-3.45,3.14,0,0-1.39-1.44-1.39-1.44,2.58-2.15,5.35-4.06,8.54-5.2,1.47,.36,2.59,1.33,3.54,2.41h0Z">
</path>
<path d="M39.44,35.98c.96-.88,1.98-1.62,3.32-1.9,1.82,.31,3.55,1.04,4.98,2.22,0,0-.21-.06-.21-.06,.28,.01,.6-.02,.9-.07,.31-.05,.61-.14,.92-.26-.46,.51-1.09,.82-1.78,.97,0,0-.07,.01-.07,.01l-.14-.07c-1.26-.73-3.74-1.51-4.56-1.83-.93,.08-2.44,.7-3.37,1h0Z">
</path>
<path d="M39.22,37.46c2.78,1.12,6.24,1.88,8.11-1.04,0,0,.45,.28,.45,.28-1.68,3.15-6.15,2.91-8.55,.76h0Z">
</path>
<path d="M37.45,42.18l.84,1.16,.09,.12c-.21,.12-3.14,1.79-3.33,1.9-.19-.11-3.13-1.78-3.33-1.9,0,0,.09-.12,.09-.12l.84-1.16-.58,1.3-.07-.21,3.26,1.05h-.4l3.26-1.05s-.07,.21-.07,.21l-.58-1.3h0Z">
</path>
<path d="M41.62,46.83c-.22,.22-2.09,1.89-5.89,2.14-.3,.02-.61,.03-.94,.03-.19,0-.38,0-.57-.02-4.11-.16-6.28-2.06-6.48-2.24,.16,.07,1.87,.83,5.41,.29,.68,.37,1.25,.77,1.7,1.14,.43-.45,.93-.79,1.56-1.08,2.34,.63,4.97-.19,5.21-.26Z">
</path>
<path d="M31.13,50.3c2.39,.75,4.74,.76,7.13,.19-1.66,1.93-5.58,1.86-7.13-.19h0Z">
</path>
<path d="M21.72,47.2c.54-2.57,2.4-4.64,4.38-6.22-.75,1-1.42,2.04-2.01,3.13-.54,1.05-1,2.21-1.39,3.29,0,0-.98-.2-.98-.2h0Z">
</path>
<path class="cls-7" d="M51.22,30.29s-2.53-10.42-6.4-11.6c-2.66,2.62-9.76,2.62-9.76,2.62,0,0-7.09,0-9.76-2.62-3.86,1.19-6.4,11.6-6.4,11.6">
</path>
<path class="cls-7" d="M19.61,59.65s-4.95,2.05-1.77,13.19">
</path>
<path class="cls-7" d="M49.76,59.45s4.95,2.05,1.77,13.19">
</path>
<path d="M47.97,65.97c-3.48,2.16-7.27,3.94-11.35,4.59,0,0,.3-.27,.3-.27-.15,.91-.89,1.97-1.95,1.86-1.01,0-1.76-.94-1.99-1.82,0,0,.29,.25,.29,.25-4.16-.65-7.91-2.6-11.44-4.77,0,0,2.82,1.28,2.82,1.28,2.86,1.25,5.83,2.41,8.95,2.82,.18,.75,.68,1.52,1.42,1.5,.83,.07,1.14-.81,1.29-1.51,4.09-.56,7.95-2.19,11.68-3.92h0Z">
</path>
<path class="cls-1" d="M25.91,53.88c.5,1.6,.86,3.24,1.23,4.87-2.74,1.18-5.65,2.22-8.5,3.12-1.2,.4-2.92,.93-4.13,1.24-1.36,.32-2.93,.91-4.23,.94,4.06-1.42,12.22-4.25,16.29-5.63-.06,.36-.71-4.63-.73-4.53,0,0,.07-.01,.07-.01h0Z">
</path>
<path class="cls-1" d="M15.19,32.72c-.34,4.33,.96,8.39,3.45,11.92,0,0-.05,.05-.05,.05-3.21-2.88-4.93-7.98-3.4-11.97h0Z">
</path>
</g>




</g>


  <g
     id="g20645">
    <path
       style="fill:#808080;stroke:#4d4d4d;stroke-width:0.937908;stop-color:#000000;fill-opacity:1"
       d="m 9.541565,65.883425 a 5.4759801,5.4759801 0 0 1 5.47598,5.475981 5.4759801,5.4759801 0 0 1 -5.47598,5.47598 5.4759801,5.4759801 0 0 1 -5.4759806,-5.47598 5.4759801,5.4759801 0 0 1 5.4759806,-5.475981 z"/>
    <path
       style="fill:#808080;stroke:#4d4d4d;stroke-width:0.937908;stop-color:#000000;fill-opacity:1"
       d="m 59.472108,65.883425 a 5.4759801,5.4759801 0 0 1 5.47598,5.475981 5.4759801,5.4759801 0 0 1 -5.47598,5.47598 5.4759801,5.4759801 0 0 1 -5.475981,-5.47598 5.4759801,5.4759801 0 0 1 5.475981,-5.475981 z"/>
    <path
       id="path7641"
       style="fill:#808080;stroke:#4d4d4d;stroke-width:1.64416;stop-color:#000000"
       d="M 34.642578,1.1660156 C 13.787845,9.1047124 0.86132813,23.726855 0.86132812,39.564453 V 79.340489 H 68.152344 V 39.564453 c 0,-15.800978 -12.759199,-30.4148342 -33.509766,-38.3984374 z m -0.01367,3.8085938 C 53.384648,12.190722 64.917969,25.399665 64.917969,39.681641 v 26.507812 c -1.368656,-1.44106 -3.300993,-2.341797 -5.445313,-2.341797 -4.14856,0 -7.511718,3.363159 -7.511718,7.511719 0,2.347008 1.075662,4.442843 2.761718,5.820313 H 14.269531 c 1.756069,-1.422629 2.778281,-3.560307 2.783203,-5.820313 4.8e-5,-4.148627 -3.363091,-7.511766 -7.5117184,-7.511719 -2.0622939,0.0062 -4.0313164,0.860092 -5.4453125,2.361328 V 39.681641 c 0,-14.315076 11.6833059,-27.531508 30.5332029,-34.7070316 z"/>
    <circle
       style="fill:#4d4d4d;fill-opacity:1;stroke:#4d4d4d;stop-color:#000000"
       id="path16431"
       cx="9.6010828"
       cy="71.229652"
       r="5.06003" />
    <circle
       style="fill:#4d4d4d;fill-opacity:1;stroke:#4d4d4d;stop-color:#000000"
       id="path16431-3"
       cx="59.42292"
       cy="71.229652"
       r="5.06003" />
  </g>
</svg>
