<svg id="Capa_2" xmlns="http://www.w3.org/2000/svg" xmlns:xlink="http://www.w3.org/1999/xlink" viewBox="0 0 69.02 80">
<defs >
<style >
.cls-1{fill:#000000;}.cls-2{fill:#000;}.cls-3{fill:#000000;}.cls-4{fill:#000000;}.cls-5{fill:#000000;}.cls-6{fill:#000000;}.cls-7,.cls-8{stroke:#000;stroke-miterlimit:10;}.cls-7,.cls-8,.cls-9,.cls-10,.cls-11{fill:none;}.cls-8,.cls-9{stroke-linecap:round;}.cls-12{fill:#000000;}.cls-9{stroke:#000000;stroke-dasharray:0 0 0 4.06;stroke-linejoin:round;}.cls-13{fill:#000000;}.cls-14{fill:url(#USGS_19_Inundación_de_tierra_2);}.cls-11{stroke:#000000;stroke-dasharray:0 0 2 2;stroke-width:.3px;}.cls-15{fill:#000000;}.cls-16{fill:#000000;}
</style>
<pattern id="USGS_19_Inundación_de_tierra_2" x="0" y="0" width="72" height="72" patternTransform="translate(51.52 -17071) rotate(-90)" patternUnits="userSpaceOnUse" viewBox="0 0 72 72">
<g >
<rect class="cls-10" width="72" height="72">
</rect>
<g >
<line class="cls-11" x1="71" y1="71" x2="144.44" y2="71">
</line>
<line class="cls-11" x1="71" y1="67" x2="144.44" y2="67">
</line>
<line class="cls-11" x1="71" y1="63" x2="144.44" y2="63">
</line>
<line class="cls-11" x1="71" y1="59" x2="144.44" y2="59">
</line>
<line class="cls-11" x1="71" y1="55" x2="144.44" y2="55">
</line>
<line class="cls-11" x1="71" y1="51" x2="144.44" y2="51">
</line>
<line class="cls-11" x1="71" y1="47" x2="144.44" y2="47">
</line>
<line class="cls-11" x1="71" y1="43" x2="144.44" y2="43">
</line>
<line class="cls-11" x1="71" y1="39" x2="144.44" y2="39">
</line>
<line class="cls-11" x1="71" y1="35" x2="144.44" y2="35">
</line>
<line class="cls-11" x1="71" y1="31" x2="144.44" y2="31">
</line>
<line class="cls-11" x1="71" y1="27" x2="144.44" y2="27">
</line>
<line class="cls-11" x1="71" y1="23" x2="144.44" y2="23">
</line>
<line class="cls-11" x1="71" y1="19" x2="144.44" y2="19">
</line>
<line class="cls-11" x1="71" y1="15" x2="144.44" y2="15">
</line>
<line class="cls-11" x1="71" y1="11" x2="144.44" y2="11">
</line>
<line class="cls-11" x1="71" y1="7" x2="144.44" y2="7">
</line>
<line class="cls-11" x1="71" y1="3" x2="144.44" y2="3">
</line>
</g>


<g >
<line class="cls-11" x1="-1" y1="71" x2="72.44" y2="71">
</line>
<line class="cls-11" x1="-1" y1="67" x2="72.44" y2="67">
</line>
<line class="cls-11" x1="-1" y1="63" x2="72.44" y2="63">
</line>
<line class="cls-11" x1="-1" y1="59" x2="72.44" y2="59">
</line>
<line class="cls-11" x1="-1" y1="55" x2="72.44" y2="55">
</line>
<line class="cls-11" x1="-1" y1="51" x2="72.44" y2="51">
</line>
<line class="cls-11" x1="-1" y1="47" x2="72.44" y2="47">
</line>
<line class="cls-11" x1="-1" y1="43" x2="72.44" y2="43">
</line>
<line class="cls-11" x1="-1" y1="39" x2="72.44" y2="39">
</line>
<line class="cls-11" x1="-1" y1="35" x2="72.44" y2="35">
</line>
<line class="cls-11" x1="-1" y1="31" x2="72.44" y2="31">
</line>
<line class="cls-11" x1="-1" y1="27" x2="72.44" y2="27">
</line>
<line class="cls-11" x1="-1" y1="23" x2="72.44" y2="23">
</line>
<line class="cls-11" x1="-1" y1="19" x2="72.44" y2="19">
</line>
<line class="cls-11" x1="-1" y1="15" x2="72.44" y2="15">
</line>
<line class="cls-11" x1="-1" y1="11" x2="72.44" y2="11">
</line>
<line class="cls-11" x1="-1" y1="7" x2="72.44" y2="7">
</line>
<line class="cls-11" x1="-1" y1="3" x2="72.44" y2="3">
</line>
<line class="cls-11" x1="1.04" y1="69" x2="74.48" y2="69">
</line>
<line class="cls-11" x1="1.04" y1="65" x2="74.48" y2="65">
</line>
<line class="cls-11" x1="1.04" y1="61" x2="74.48" y2="61">
</line>
<line class="cls-11" x1="1.04" y1="57" x2="74.48" y2="57">
</line>
<line class="cls-11" x1="1.04" y1="53" x2="74.48" y2="53">
</line>
<line class="cls-11" x1="1.04" y1="49" x2="74.48" y2="49">
</line>
<line class="cls-11" x1="1.04" y1="45" x2="74.48" y2="45">
</line>
<line class="cls-11" x1="1.04" y1="41" x2="74.48" y2="41">
</line>
<line class="cls-11" x1="1.04" y1="37" x2="74.48" y2="37">
</line>
<line class="cls-11" x1="1.04" y1="33" x2="74.48" y2="33">
</line>
<line class="cls-11" x1="1.04" y1="29" x2="74.48" y2="29">
</line>
<line class="cls-11" x1="1.04" y1="25" x2="74.48" y2="25">
</line>
<line class="cls-11" x1="1.04" y1="21" x2="74.48" y2="21">
</line>
<line class="cls-11" x1="1.04" y1="17" x2="74.48" y2="17">
</line>
<line class="cls-11" x1="1.04" y1="13" x2="74.48" y2="13">
</line>
<line class="cls-11" x1="1.04" y1="9" x2="74.48" y2="9">
</line>
<line class="cls-11" x1="1.04" y1="5" x2="74.48" y2="5">
</line>
<line class="cls-11" x1="1.04" y1="1" x2="74.48" y2="1">
</line>
</g>


<g >
<line class="cls-11" x1="-73" y1="71" x2=".44" y2="71">
</line>
<line class="cls-11" x1="-73" y1="67" x2=".44" y2="67">
</line>
<line class="cls-11" x1="-73" y1="63" x2=".44" y2="63">
</line>
<line class="cls-11" x1="-73" y1="59" x2=".44" y2="59">
</line>
<line class="cls-11" x1="-73" y1="55" x2=".44" y2="55">
</line>
<line class="cls-11" x1="-73" y1="51" x2=".44" y2="51">
</line>
<line class="cls-11" x1="-73" y1="47" x2=".44" y2="47">
</line>
<line class="cls-11" x1="-73" y1="43" x2=".44" y2="43">
</line>
<line class="cls-11" x1="-73" y1="39" x2=".44" y2="39">
</line>
<line class="cls-11" x1="-73" y1="35" x2=".44" y2="35">
</line>
<line class="cls-11" x1="-73" y1="31" x2=".44" y2="31">
</line>
<line class="cls-11" x1="-73" y1="27" x2=".44" y2="27">
</line>
<line class="cls-11" x1="-73" y1="23" x2=".44" y2="23">
</line>
<line class="cls-11" x1="-73" y1="19" x2=".44" y2="19">
</line>
<line class="cls-11" x1="-73" y1="15" x2=".44" y2="15">
</line>
<line class="cls-11" x1="-73" y1="11" x2=".44" y2="11">
</line>
<line class="cls-11" x1="-73" y1="7" x2=".44" y2="7">
</line>
<line class="cls-11" x1="-73" y1="3" x2=".44" y2="3">
</line>
<line class="cls-11" x1="-70.96" y1="69" x2="2.48" y2="69">
</line>
<line class="cls-11" x1="-70.96" y1="65" x2="2.48" y2="65">
</line>
<line class="cls-11" x1="-70.96" y1="61" x2="2.48" y2="61">
</line>
<line class="cls-11" x1="-70.96" y1="57" x2="2.48" y2="57">
</line>
<line class="cls-11" x1="-70.96" y1="53" x2="2.48" y2="53">
</line>
<line class="cls-11" x1="-70.96" y1="49" x2="2.48" y2="49">
</line>
<line class="cls-11" x1="-70.96" y1="45" x2="2.48" y2="45">
</line>
<line class="cls-11" x1="-70.96" y1="41" x2="2.48" y2="41">
</line>
<line class="cls-11" x1="-70.96" y1="37" x2="2.48" y2="37">
</line>
<line class="cls-11" x1="-70.96" y1="33" x2="2.48" y2="33">
</line>
<line class="cls-11" x1="-70.96" y1="29" x2="2.48" y2="29">
</line>
<line class="cls-11" x1="-70.96" y1="25" x2="2.48" y2="25">
</line>
<line class="cls-11" x1="-70.96" y1="21" x2="2.48" y2="21">
</line>
<line class="cls-11" x1="-70.96" y1="17" x2="2.48" y2="17">
</line>
<line class="cls-11" x1="-70.96" y1="13" x2="2.48" y2="13">
</line>
<line class="cls-11" x1="-70.96" y1="9" x2="2.48" y2="9">
</line>
<line class="cls-11" x1="-70.96" y1="5" x2="2.48" y2="5">
</line>
<line class="cls-11" x1="-70.96" y1="1" x2="2.48" y2="1">
</line>
</g>


</g>


</pattern>
</defs>
  <path
     id="circle1849"
     style="fill:#AA00DD;stroke:#000000;stroke-width:2"
     d="M 34.875,3.84375 C 30.2026,3.8566827 25.91896,6.4477515 23.738281,10.580078 21.63936,9.1446679 19.156089,8.3761337 16.613281,8.375 9.636905,8.3755251 3.9818685,14.031436 3.9824219,21.007812 c 0.012178,4.019812 1.9368978,7.79383 5.1835937,10.164063 -1.8357739,2.246976 -2.8420262,5.057448 -2.8496094,7.958984 0.00713,1.935325 0.4588528,3.843134 1.3203126,5.576172 -2.4145566,2.364898 -3.7807042,5.598771 -3.7929688,8.978516 0.00466,4.996359 2.9538661,9.520462 7.523438,11.541015 0.767283,6.336372 6.140784,11.10481 12.523437,11.113282 3.186693,-0.0091 6.252191,-1.222333 8.582031,-3.396485 1.867081,1.045968 3.9693,1.600422 6.109375,1.611329 2.723791,-0.01118 5.371006,-0.902492 7.546875,-2.541016 1.56279,0.673484 3.245549,1.024252 4.947266,1.03125 6.977139,5.53e-4 12.633366,-5.655674 12.632812,-12.632813 -0.0013,-2.652818 -0.837669,-5.237911 -2.390625,-7.388671 2.480721,-2.37284 3.888874,-5.653124 3.900391,-9.085938 -9.13e-4,-3.96978 -1.867955,-7.708203 -5.041016,-10.09375 2.59288,-2.385063 4.071919,-5.744584 4.080078,-9.267578 C 64.257287,17.599796 58.601376,11.944759 51.625,11.945312 50.032147,11.955601 48.455612,12.267065 46.978516,12.863281 45.38146,7.5117456 40.459758,3.8440964 34.875,3.84375 Z"/>





<g >
<path class="cls-4" d="M60.17,73.05l-25.18,4.27-24.42-3.73-1.32-.2-.02-1-.1-4.96,8.66-4.5,4.05-4.5,2.92-.33-.22-4.16s-.23-.34-1.24-1.24c-1.35-.9-1.8-3.26-3.26-9.67-6.41,.34-7.42-9.1-5.85-11.58,1.11-1.73,2.21-1.14,2.77-.64,.24,.22,.38,.42,.38,.42-1.12-3.6-.9-7.87,1.01-11.13,3.26-6.97,12.37-9.22,24.17-7.08,9.78,3.37,10.91,10.68,9.9,18.21,.39-.47,.86-.76,1.33-.86,1.72-.36,3.51,1.72,1.93,6.82-2.36,7.08-5.74,5.62-5.74,5.62,0,0-1.91,6.18-2.58,8.2-.68,2.03-3.49,3.83-3.49,3.83l.12,1.64,.11,1.62,3.14,.33,3.49,4.5,8.77,4.27,.67,5.85Z">
</path>
<path class="cls-1" d="M34.64,54.36V31.87c0-6.04,4.36-11.19,10.31-12.2l5.09-.86s3.52,7.03,1.76,14.65c-1.67,8.88-3.94,16.5-5.28,18.84-.9,1.57-4.2,3.9-7.45,5.11-2.15,.8-4.44-.76-4.44-3.05Z">
</path>
<path d="M53.75,30.37l-1.86,2.13s-.31-11.05-3.15-12.72c-5.74,2.47-18.03,1.98-21.92,1.61-3.88-.37-6.11-1.67-6.11-1.67,0,0-2.84,6.98-2.65,14.45-.51-1.35-.74-1.92-.74-1.92l-.36-1.44c.24,.22,.38,.42,.38,.42-1.12-3.6-.9-7.87,1.01-11.13,3.26-6.97,12.37-9.22,24.17-7.08,9.78,3.37,10.91,10.68,9.9,18.21,.39-.47,.86-.76,1.33-.86Z">
</path>
<path class="cls-12" d="M60.17,73.05l-25.18,4.27-24.42-3.73-1.34-1.2-.1-4.96,8.66-4.5,4.05-4.5,2.92-.33c.57,4.58,1.33,8.41,9.36,14.54,6.76-2.64,9.82-11.52,9.82-11.52l-.1-4.64h.15l.11,1.62,3.14,.33,3.49,4.5,8.77,4.27,.67,5.85Z">
</path>
<path class="cls-3" d="M32.51,33.27s-5.77-4.13-12.66-.17c-.17,4.39,2.15,7.75,6.2,7.83s6.8-2.93,6.46-7.66Z">
</path>
<path class="cls-3" d="M36.68,33.21s3.05-2.08,7.15-2.01,5.43,1.94,5.43,1.94c0,0,1.11,6.7-5.21,7.82-4.32,.6-7.89-2.9-7.37-7.74Z">
</path>
<path d="M18.1,31.79s-2.37-2.72-4.22-.53c-1.93,2.72,1.05,9.32,2.99,10.81,1.76,1.32,3.17,.95,3.17,.95,0,0-2.38-8.95-1.94-11.24Z">
</path>
<path d="M43.64,55.21l-16.69,19.86-16.48-3.59-1.34-4.04,7.99-3.56,4.22-5.18,3.06-.74,.13-4.01s5.89,3.91,8.22,4.22,4.26,.95,10.88-2.96Z">
</path>
<path class="cls-1" d="M42.81,57.27l-10.16,12.65,1.68,1.41s6.06-4.44,8.35-10.23c.2-2.96,.13-3.84,.13-3.84Z">
</path>
<path class="cls-4" d="M21.37,21.57c2.8,1.15,6.79,1.41,9.79,1.41,1.29,0,2.27-.05,2.68-.07h2.08c.83,.05,1.76,.07,2.69,.07,3,0,6.99-.26,9.8-1.4,1.24,2.82,1.69,9.68,1.68,13.72,0,.04,0,.08,0,.11-.92,4.67-2.36,10.06-3.77,14.12-.53,1.52-1.55,2.83-2.9,3.67-1.36,.85-2.83,1.72-4.38,2.58-1.29,.71-2.73,1.09-4.18,1.09s-2.89-.37-4.16-1.08c-1.75-.98-3.18-1.83-4.38-2.58-1.34-.85-2.38-2.16-2.91-3.69-1.17-3.38-2.8-9.04-3.9-14.85,.06-4.12,.67-10.44,1.88-13.1m27.45-1.3c-2.69,1.45-7.3,1.7-10.21,1.7-1.49,0-2.54-.07-2.67-.07h-2.13c-.11,0-1.16,.07-2.65,.07-2.91,0-7.52-.25-10.2-1.7-1.9,2.6-2.43,11.23-2.47,14.47h0c1.02,5.41,2.61,11.19,3.96,15.1,.61,1.75,1.79,3.24,3.32,4.21,1.32,.83,2.81,1.7,4.43,2.61,1.46,.8,3.05,1.21,4.65,1.21s3.21-.41,4.67-1.22c1.6-.89,3.09-1.77,4.43-2.61,1.53-.96,2.71-2.45,3.31-4.19,1.3-3.75,2.82-9.22,3.84-14.43-.01-.04-.02-.08-.02-.13,.01-3.38-.38-12.39-2.26-15.02h0Z">
</path>
<path class="cls-2" d="M39.25,42.7s3.57,1.31,8.07-1.13c-5.45,5.35-6.1,4.88-8.07,1.13Z">
</path>
<path class="cls-2" d="M46.47,23.76s1.06,4.51,1.24,6.82c-3.01-1.42-6.46-.62-6.46-.62,0,0,2.92-.62,5.22-6.2Z">
</path>
<path class="cls-1" d="M22.55,42.42s3.32,1.61,6.96-.43c-3,4.71-3.43,4.5-6.96,.43Z">
</path>
<path class="cls-4" d="M47.17,15.82c.45,.47,.11,1.26-.54,1.26-5.72,.05-26.43,.05-19.9-2.77s16.96-2.07,20.44,1.51Z">
</path>
<path class="cls-1" d="M53.03,31.35s3.05,3.86,.16,9.8c4.02-6.67,3.45-12.21-.16-9.8Z">
</path>
<path class="cls-8" d="M49.57,17.45c-1.95-2.43-4.73-4.03-7.8-4.58-2.16-.38-4.62-.64-7.33-.64-2.35,0-4.41,.19-6.2,.5-3.14,.53-5.98,2.14-7.99,4.61-1.73,2.13-3.06,4.54-3.25,7.05-.49,6.68,2.86,19.47,4.98,25.62,.64,1.85,1.87,3.43,3.52,4.46,1.45,.91,2.97,1.79,4.45,2.62,3.05,1.69,6.75,1.69,9.8,0,1.49-.83,3.01-1.71,4.45-2.63,1.65-1.04,2.88-2.61,3.52-4.45,2.13-6.15,5.47-18.94,4.98-25.62-.18-2.47-1.46-4.84-3.14-6.94Z">
</path>
<path class="cls-8" d="M17.34,31.44s-1.5-1.9-2.92-.55-.87,5.93,.63,8.61,2.92,3.87,4.66,3.4">
</path>
<path class="cls-8" d="M52.34,31.44s1.5-1.9,2.92-.55,.87,5.93-.63,8.61-2.92,3.87-4.66,3.4">
</path>
<path class="cls-8" d="M51.58,35.3s.05-12.89-2.64-15.67c-3.79,2.39-12.96,1.77-12.96,1.77h-2.16s-9.18,.62-12.96-1.77c-2.69,2.78-2.86,15.1-2.86,15.1">
</path>
<path class="cls-8" d="M20.03,32.82s5.85-3.81,12.35,.2c.18,6.63-3.54,7.94-6.5,7.94s-7.09-2.69-5.85-8.14Z">
</path>
<path class="cls-8" d="M49.09,32.82s-5.85-3.81-12.35,.2c-.18,6.63,3.54,7.94,6.5,7.94s7.09-2.69,5.85-8.14Z">
</path>
<path class="cls-8" d="M32.59,33.5s2.33-1.09,4.14,.29">
</path>
<line class="cls-8" x1="20.03" y1="32.82" x2="17.55" y2="32.82">
</line>
<line class="cls-8" x1="49.26" y1="32.82" x2="51.73" y2="32.82">
</line>
<path d="M36.57,39.54c.89,.53,2.54,2.1,1.16,2.99-1.09,.56-2.16,.77-3.3,1.07,0,0-.11-.03-.11-.03-2.81-.67-5.67-1.37-2.04-4.04-.41,.63-.97,1.3-1.02,2.02,.02,.18,.05,.21,.23,.28,.43,.15,.97,.29,1.49,.4l1.57,.36h-.22c.86-.21,2.27-.48,3.06-.76,.17-.07,.2-.09,.22-.28-.06-.73-.61-1.4-1.03-2.02h0Z">
</path>
<path d="M41.2,50.56l-6.58-1.01-6.58,1.01s2.66-3.21,4.52-3.38c.81-.05,1.52,.26,2.07,.65,.55-.39,1.26-.71,2.06-.65,1.86,.17,4.51,3.38,4.51,3.38Z">
</path>
<path d="M31.85,51.99c1.7,.81,3.68,.7,5.41,.03,0,0,.04,.09,.04,.09-.62,.97-1.64,1.39-2.74,1.44-1.1-.01-2.2-.46-2.75-1.48,0,0,.05-.09,.05-.09h0Z">
</path>
<path class="cls-7" d="M24.33,57.91l-2.96,.61-7.9,9.78s6.21,.8,9.36,.85c-.85,1.93-.89,2.54-.89,2.54l2.59,3.1">
</path>
<line class="cls-7" x1="17.7" y1="63.08" x2="8.67" y2="67.55">
</line>
<path class="cls-7" d="M44.07,54.79v6.32s-2.18,7.2-9.75,12.02c-7.58-4.82-9.75-12.02-9.75-12.02v-6.87">
</path>
<path class="cls-7" d="M44.3,57.91l2.96,.61,7.9,9.78s-6.21,.8-9.36,.85c.85,1.93,.89,2.54,.89,2.54l-2.59,3.1">
</path>
<line class="cls-7" x1="50.93" y1="63.08" x2="59.96" y2="67.55">
</line>
<line class="cls-7" x1="34.32" y1="73.13" x2="34.32" y2="74.89">
</line>
<path class="cls-15" d="M24.66,58.51c-.89,.45-1.81,.84-2.74,1.19,0,0,.31-.2,.31-.2-1,1.72-2.15,3.32-3.34,4.91-2.75,1.29-5.81,2.56-8.78,3.23,0,0-.04-.09-.04-.09,0,.01,8.33-4.03,8.17-3.92,0,0,3.51-4.51,3.51-4.51v-.02s.04,0,.04,0l2.86-.68,.02,.1h0Z">
</path>
<path class="cls-15" d="M16.06,31.09c-3.12-.58-.5,7.12,.17,8.49,.5,1.01,1.09,1.95,2.03,2.78,0,0-.04,.09-.04,.09-3.32-1.7-4.56-5.95-4.42-9.46,.05-1.27,.85-2.77,2.31-1.99,0,0-.05,.09-.05,.09h0Z">
</path>
</g>





</svg>
