<svg id="Capa_2" xmlns="http://www.w3.org/2000/svg" xmlns:xlink="http://www.w3.org/1999/xlink" viewBox="0 0 69.02 80">
<defs >
<style >
.cls-1{fill:#c89aed;}.cls-2{fill:#fff;}.cls-3{fill:#f8ffbf;}.cls-4{fill:#7b7be8;}.cls-5{fill:#a88347;}.cls-6{fill:#782ab5;}.cls-7,.cls-8,.cls-9,.cls-10,.cls-11{fill:none;}.cls-7,.cls-11{stroke:#000;stroke-miterlimit:10;}.cls-12{fill:#1c46ff;}.cls-8{stroke:#deb778;stroke-dasharray:0 0 0 4.06;stroke-linecap:round;stroke-linejoin:round;}.cls-13{fill:#deb778;}.cls-14{fill:url(#USGS_19_Inundación_de_tierra_2);}.cls-10{stroke:#1d1d1b;stroke-dasharray:0 0 2 2;stroke-width:.3px;}.cls-15{fill:#fcf0c5;}.cls-11{stroke-width:.5px;}
</style>
<pattern id="USGS_19_Inundación_de_tierra_2" x="0" y="0" width="72" height="72" patternTransform="translate(-164.48 -17071) rotate(-90)" patternUnits="userSpaceOnUse" viewBox="0 0 72 72">
<g >
<rect class="cls-9" width="72" height="72">
</rect>
<g >
<line class="cls-10" x1="71" y1="71" x2="144.44" y2="71">
</line>
<line class="cls-10" x1="71" y1="67" x2="144.44" y2="67">
</line>
<line class="cls-10" x1="71" y1="63" x2="144.44" y2="63">
</line>
<line class="cls-10" x1="71" y1="59" x2="144.44" y2="59">
</line>
<line class="cls-10" x1="71" y1="55" x2="144.44" y2="55">
</line>
<line class="cls-10" x1="71" y1="51" x2="144.44" y2="51">
</line>
<line class="cls-10" x1="71" y1="47" x2="144.44" y2="47">
</line>
<line class="cls-10" x1="71" y1="43" x2="144.44" y2="43">
</line>
<line class="cls-10" x1="71" y1="39" x2="144.44" y2="39">
</line>
<line class="cls-10" x1="71" y1="35" x2="144.44" y2="35">
</line>
<line class="cls-10" x1="71" y1="31" x2="144.44" y2="31">
</line>
<line class="cls-10" x1="71" y1="27" x2="144.44" y2="27">
</line>
<line class="cls-10" x1="71" y1="23" x2="144.44" y2="23">
</line>
<line class="cls-10" x1="71" y1="19" x2="144.44" y2="19">
</line>
<line class="cls-10" x1="71" y1="15" x2="144.44" y2="15">
</line>
<line class="cls-10" x1="71" y1="11" x2="144.44" y2="11">
</line>
<line class="cls-10" x1="71" y1="7" x2="144.44" y2="7">
</line>
<line class="cls-10" x1="71" y1="3" x2="144.44" y2="3">
</line>
</g>


<g >
<line class="cls-10" x1="-1" y1="71" x2="72.44" y2="71">
</line>
<line class="cls-10" x1="-1" y1="67" x2="72.44" y2="67">
</line>
<line class="cls-10" x1="-1" y1="63" x2="72.44" y2="63">
</line>
<line class="cls-10" x1="-1" y1="59" x2="72.44" y2="59">
</line>
<line class="cls-10" x1="-1" y1="55" x2="72.44" y2="55">
</line>
<line class="cls-10" x1="-1" y1="51" x2="72.44" y2="51">
</line>
<line class="cls-10" x1="-1" y1="47" x2="72.44" y2="47">
</line>
<line class="cls-10" x1="-1" y1="43" x2="72.44" y2="43">
</line>
<line class="cls-10" x1="-1" y1="39" x2="72.44" y2="39">
</line>
<line class="cls-10" x1="-1" y1="35" x2="72.44" y2="35">
</line>
<line class="cls-10" x1="-1" y1="31" x2="72.44" y2="31">
</line>
<line class="cls-10" x1="-1" y1="27" x2="72.44" y2="27">
</line>
<line class="cls-10" x1="-1" y1="23" x2="72.44" y2="23">
</line>
<line class="cls-10" x1="-1" y1="19" x2="72.44" y2="19">
</line>
<line class="cls-10" x1="-1" y1="15" x2="72.44" y2="15">
</line>
<line class="cls-10" x1="-1" y1="11" x2="72.44" y2="11">
</line>
<line class="cls-10" x1="-1" y1="7" x2="72.44" y2="7">
</line>
<line class="cls-10" x1="-1" y1="3" x2="72.44" y2="3">
</line>
<line class="cls-10" x1="1.04" y1="69" x2="74.48" y2="69">
</line>
<line class="cls-10" x1="1.04" y1="65" x2="74.48" y2="65">
</line>
<line class="cls-10" x1="1.04" y1="61" x2="74.48" y2="61">
</line>
<line class="cls-10" x1="1.04" y1="57" x2="74.48" y2="57">
</line>
<line class="cls-10" x1="1.04" y1="53" x2="74.48" y2="53">
</line>
<line class="cls-10" x1="1.04" y1="49" x2="74.48" y2="49">
</line>
<line class="cls-10" x1="1.04" y1="45" x2="74.48" y2="45">
</line>
<line class="cls-10" x1="1.04" y1="41" x2="74.48" y2="41">
</line>
<line class="cls-10" x1="1.04" y1="37" x2="74.48" y2="37">
</line>
<line class="cls-10" x1="1.04" y1="33" x2="74.48" y2="33">
</line>
<line class="cls-10" x1="1.04" y1="29" x2="74.48" y2="29">
</line>
<line class="cls-10" x1="1.04" y1="25" x2="74.48" y2="25">
</line>
<line class="cls-10" x1="1.04" y1="21" x2="74.48" y2="21">
</line>
<line class="cls-10" x1="1.04" y1="17" x2="74.48" y2="17">
</line>
<line class="cls-10" x1="1.04" y1="13" x2="74.48" y2="13">
</line>
<line class="cls-10" x1="1.04" y1="9" x2="74.48" y2="9">
</line>
<line class="cls-10" x1="1.04" y1="5" x2="74.48" y2="5">
</line>
<line class="cls-10" x1="1.04" y1="1" x2="74.48" y2="1">
</line>
</g>


<g >
<line class="cls-10" x1="-73" y1="71" x2=".44" y2="71">
</line>
<line class="cls-10" x1="-73" y1="67" x2=".44" y2="67">
</line>
<line class="cls-10" x1="-73" y1="63" x2=".44" y2="63">
</line>
<line class="cls-10" x1="-73" y1="59" x2=".44" y2="59">
</line>
<line class="cls-10" x1="-73" y1="55" x2=".44" y2="55">
</line>
<line class="cls-10" x1="-73" y1="51" x2=".44" y2="51">
</line>
<line class="cls-10" x1="-73" y1="47" x2=".44" y2="47">
</line>
<line class="cls-10" x1="-73" y1="43" x2=".44" y2="43">
</line>
<line class="cls-10" x1="-73" y1="39" x2=".44" y2="39">
</line>
<line class="cls-10" x1="-73" y1="35" x2=".44" y2="35">
</line>
<line class="cls-10" x1="-73" y1="31" x2=".44" y2="31">
</line>
<line class="cls-10" x1="-73" y1="27" x2=".44" y2="27">
</line>
<line class="cls-10" x1="-73" y1="23" x2=".44" y2="23">
</line>
<line class="cls-10" x1="-73" y1="19" x2=".44" y2="19">
</line>
<line class="cls-10" x1="-73" y1="15" x2=".44" y2="15">
</line>
<line class="cls-10" x1="-73" y1="11" x2=".44" y2="11">
</line>
<line class="cls-10" x1="-73" y1="7" x2=".44" y2="7">
</line>
<line class="cls-10" x1="-73" y1="3" x2=".44" y2="3">
</line>
<line class="cls-10" x1="-70.96" y1="69" x2="2.48" y2="69">
</line>
<line class="cls-10" x1="-70.96" y1="65" x2="2.48" y2="65">
</line>
<line class="cls-10" x1="-70.96" y1="61" x2="2.48" y2="61">
</line>
<line class="cls-10" x1="-70.96" y1="57" x2="2.48" y2="57">
</line>
<line class="cls-10" x1="-70.96" y1="53" x2="2.48" y2="53">
</line>
<line class="cls-10" x1="-70.96" y1="49" x2="2.48" y2="49">
</line>
<line class="cls-10" x1="-70.96" y1="45" x2="2.48" y2="45">
</line>
<line class="cls-10" x1="-70.96" y1="41" x2="2.48" y2="41">
</line>
<line class="cls-10" x1="-70.96" y1="37" x2="2.48" y2="37">
</line>
<line class="cls-10" x1="-70.96" y1="33" x2="2.48" y2="33">
</line>
<line class="cls-10" x1="-70.96" y1="29" x2="2.48" y2="29">
</line>
<line class="cls-10" x1="-70.96" y1="25" x2="2.48" y2="25">
</line>
<line class="cls-10" x1="-70.96" y1="21" x2="2.48" y2="21">
</line>
<line class="cls-10" x1="-70.96" y1="17" x2="2.48" y2="17">
</line>
<line class="cls-10" x1="-70.96" y1="13" x2="2.48" y2="13">
</line>
<line class="cls-10" x1="-70.96" y1="9" x2="2.48" y2="9">
</line>
<line class="cls-10" x1="-70.96" y1="5" x2="2.48" y2="5">
</line>
<line class="cls-10" x1="-70.96" y1="1" x2="2.48" y2="1">
</line>
</g>


</g>


</pattern>
</defs>



<g >
<path class="cls-1" d="M61.73,69.15c-3.78,5.92-5.72,6.73-5.72,6.73,0,0-14.99,2.25-29.07,.82-14.08-1.43-18.37-5.1-18.37-5.1v-4.08l14.8-6.12,.3-10-3.26-7.14s-2.35-.51-3.88-4.29c-1.53-3.77-1.33-6.73,.92-8.37-1.18-5.54-1.14-9.01-.98-10.67,.02-.23,.04-.45,.07-.65,.03-.19,.05-.32,.07-.41,.01-.04,.01-.07,.02-.1t.02-.02c.16-.19,1.29-1.47,3.34-2.96,.03-.02,.06-.04,.08-.06,3.58-2.59,9.93-5.81,18.8-5.12,5.92,1.32,7.86,4.08,8.06,5,6.33-.11,7.25,5.2,7.55,7.55,.31,2.34-1.63,8.46-1.63,8.46,0,0,.05,.04,.13,.13,.33,.36,1.16,1.49,.99,3.55-.2,2.55-3.16,8.16-5.1,8.06-2.04,4.38-3.26,7.14-3.26,7.14l.3,10.2s13.57,4.8,15.82,7.45Z">
</path>
<path class="cls-2" d="M34.92,53.31v-20.02c0-4.41,2.63-8.4,6.69-10.14l.09-.04c2.46,.39,6.19-.39,6.19-.39,0,0,2.16,7.17,2.16,8.64s-.2,8.94-.2,8.94c0,0-2.75,10.06-8.11,15.72-2.46,2.59-6.82,.87-6.82-2.71Z">
</path>
<path d="M52.98,32.75c-1.1,1.59-2.12,2.99-2.73,3.69-1.67-11.01-2.93-13.51-2.93-13.51,0,0-3.76,.69-5.99,.27-6.13,2.37-10.59,2.09-13.24,3.21,3.01-2.62,7.6-3.63,8.16-3.75-.79,.06-8.68,.69-10.53,.96-3.62,.14-4.18-.14-4.18-.14,0,0-2.65,9.76-2.65,13.52,0,0-2.81-10.7-2.42-16.07,.02-.23,.04-.45,.07-.65,.02-.15,.04-.28,.07-.41,.01-.04,.01-.07,.02-.1t.02-.02c1.13-1.07,2.25-2.05,3.34-2.96,.03-.02,.06-.04,.08-.06,3.58-2.59,9.93-5.81,18.8-5.12,5.92,1.32,7.86,4.08,8.06,5,6.33-.11,7.25,5.2,7.55,7.55,.31,2.34-1.63,8.46-1.63,8.46,0,0,.05,.04,.13,.13Z">
</path>
<path class="cls-5" d="M17.37,19.84s7.99-8.89,20.73-8.01c7.74,1.14,8.1,4.49,8.1,4.49,0,0-14.33-3.6-28.83,3.52Z">
</path>
<path class="cls-5" d="M53.84,26.86s-1.84-8.15-6.38-9.29c2.48-.92,7.94,1.35,6.38,9.29Z">
</path>
<path d="M17.88,32.27s-2.37,.27-2.58,3.66,2.7,8.02,5.11,8.85c-1.04-3.36-1.11-4.11-1.11-4.11v-3.12l-1.42-5.29Z">
</path>
<path d="M40.15,58.6l-18.15,15.85-11.76-2.9-.94-4.17,14.06-5.98,.6-9.79s3.66,5.96,6.99,7.24,5.37,1.36,9.2-.26Z">
</path>
<path class="cls-3" d="M31.06,35.92s-4.98-.57-7.49,.29c1.6,1.89,3.6,2.34,3.6,2.34,0,0,2.86-1.14,3.89-2.63Z">
</path>
<path class="cls-3" d="M45.85,35.95s-5.21-.52-7.52,0c3.05,2.31,3.87,2.68,3.87,2.68,0,0,2.6-1.41,3.65-2.68Z">
</path>
<path class="cls-2" d="M44.17,55.81l-9.34,8.9s5.94,.65,9.48-3.55c-.14-3.91-.14-5.36-.14-5.36Z">
</path>
<path d="M30.62,66.23s9.24,2.47,15.29-4.53c10.45,4.27,15.27,5.74,15.27,5.74l-1.64,5.68s-25.57,7.83-38.14,.34c6.03-5.17,9.21-7.23,9.21-7.23Z">
</path>
<path class="cls-1" d="M46.62,24.78c.44,1.49,1.06,3.71,1.42,5.25,.44,1.93,.44,7.91,.41,10.27-.32,1.24-2.72,10.08-8.33,15.68-.92,.98-2.35,1.76-4.12,2.25-.43,.12-.88,.17-1.32,.17s-.89-.06-1.31-.17c-1.78-.49-3.21-1.27-4.17-2.28-5.57-5.57-7.98-14.4-8.29-15.65-.04-2.36-.03-8.34,.4-10.27,.36-1.54,.98-3.75,1.42-5.24,.59,.15,1.34,.25,2.25,.25,.64,0,1.33-.05,2.06-.15-.4,.26-.77,.54-1.12,.83-.5,.42-.67,1.12-.42,1.73,.24,.56,.78,.92,1.38,.92,.05,0,.09,0,.14,0,.32-.03,.75-.14,1.93-.47,2.12-.58,6.06-1.67,9.39-1.97,.07,0,.15-.02,.22-.04,1.21-.29,2.3-.65,3.26-1.07,.89,.14,1.72,.21,2.49,.21,.95,0,1.71-.1,2.32-.25m.96-2.04s-.82,.79-3.27,.79c-.74,0-1.63-.07-2.7-.26-.92,.44-2.05,.84-3.41,1.17-4.81,.44-10.58,2.37-11.32,2.44,3.33-2.81,9.55-3.92,9.55-3.92,0,0-1.26-.19-3.23-.19-1.47,0-3.33,.11-5.36,.48-1.14,.21-2.09,.3-2.86,.3-2.44,0-3.21-.81-3.21-.81,0,0-1.33,4.36-1.93,6.96-.59,2.59-.44,10.8-.44,10.8,0,0,2.37,10.15,8.73,16.51,1.23,1.31,2.97,2.16,4.83,2.67,.56,.15,1.14,.22,1.71,.22s1.15-.08,1.71-.22c1.86-.51,3.6-1.36,4.83-2.67,6.37-6.36,8.73-16.51,8.73-16.51,0,0,.15-8.21-.44-10.8-.59-2.6-1.92-6.96-1.92-6.96h0Z">
</path>
<path class="cls-2" d="M31.07,38.1s-2.73,1.5-3.73,1.84c-2.56-.5-4.34-2.11-4.34-2.11,0,0,1.84,3.73,4.39,4.62,2.89-1.28,3.67-4.34,3.67-4.34Z">
</path>
<path class="cls-12" d="M46.24,63.04s-1.57,2.54-7.05,3.91c5.87,4.11,12.72,7.14,12.72,7.14l6.75-1.96,.29-3.82-12.72-5.28Z">
</path>
<path class="cls-4" d="M32.59,33.14l-1.53,2.78s-5.08-.27-7.49,.29c-1.91-1.18-2.56-2.7-2.56-2.7,0,0,3.26-2.03,4.34-2.24,3.04-.07,7.24,1.88,7.24,1.88Z">
</path>
<path class="cls-4" d="M38.34,35.95s-1.15-1.74-1.36-2.88c4.17-1.28,7.34-1.82,7.34-1.82,0,0,3.43,1.75,3.84,2.29-1.14,2.09-2.3,2.41-2.3,2.41,0,0-6.03-.28-7.52,0Z">
</path>
<path class="cls-2" d="M52.09,33.39s1.03,5.08-.52,8.77c3.83-6.04,2.21-8.69,1.25-9.8-.52,.37-.74,1.03-.74,1.03Z">
</path>
<path class="cls-7" d="M19.3,37.67s-3.29-9.03-2.79-17.69c3.97-4.68,12.83-9.17,21.59-8.45s8.55,5.4,8.55,5.4c0,0,4.38-1.53,6.93,3.56,2.55,5.09-1.73,14.56-3.67,17.11">
</path>
<path class="cls-7" d="M17.62,31.69s-2.67,.37-2,4.59,3.18,8.07,5.03,8.14">
</path>
<path class="cls-7" d="M52.61,32.03c.72,.48,1.61,1.61,1.19,4.25-.67,4.22-3.18,8.07-5.03,8.14">
</path>
<path class="cls-7" d="M47.58,22.74s1.33,4.36,1.92,6.96c.59,2.59,.44,10.8,.44,10.8,0,0-2.36,10.15-8.73,16.51-1.23,1.31-2.97,2.16-4.83,2.67-1.12,.3-2.3,.3-3.42,0-1.86-.51-3.6-1.36-4.83-2.67-6.36-6.36-8.73-16.51-8.73-16.51,0,0-.15-8.21,.44-10.8,.6-2.6,1.93-6.96,1.93-6.96,0,0,1.33,1.4,6.07,.51,4.74-.88,8.59-.29,8.59-.29,0,0-6.22,1.11-9.55,3.92,.74-.07,6.51-2,11.32-2.44,1.36-.33,2.49-.73,3.41-1.17,4.58,.81,5.97-.53,5.97-.53Z">
</path>
<path class="cls-7" d="M23.91,51.46l-.35,10.03s-13.65,5.21-16.26,6.79">
</path>
<path class="cls-7" d="M45.43,51.32l.36,10.17s13.65,5.21,16.26,6.79">
</path>
<path class="cls-7" d="M23.39,61.49s2.8,4.97,10.85,4.97c9.13,0,11.55-4.98,11.55-4.98">
</path>
<path d="M20.9,33.37c1.34-1.05,2.58-2.09,4.29-2.6,2.68,.15,5.33,.54,7.82,1.64,0,0-.78,1.42-.78,1.42-.45-.26-1.05-.52-1.61-.74-1.52-.65-4.18-1.12-5.28-1.33-1.42,.29-2.86,1.24-4.09,2.05,0,0-.35-.45-.35-.45h0Z">
</path>
<path class="cls-11" d="M30.98,35.94s-3.78-.66-7.27,.16c1.68,2.14,3.49,2.46,3.49,2.46,0,0,2.75-1.15,3.78-2.63Z">
</path>
<path d="M48.2,33.82c-1.23-.81-2.67-1.76-4.09-2.06-1.66,.28-4.97,.93-6.89,2.06,0,0-.78-1.42-.78-1.42,2.49-1.1,5.15-1.49,7.82-1.64,.91,.24,1.63,.69,2.33,1.14,.68,.45,1.33,.94,1.96,1.46,0,0-.35,.45-.35,.45h0Z">
</path>
<path class="cls-11" d="M38.47,35.94s3.78-.66,7.27,.16c-1.68,2.14-3.49,2.46-3.49,2.46,0,0-2.75-1.15-3.78-2.63Z">
</path>
<path d="M26.89,28.49c5.12,.67,10.43,.47,15.48,.19-5.04,.98-10.59,1.14-15.48-.19h0Z">
</path>
<path d="M36.26,36.2c-.29,3.24,1.44,6.23,3.1,8.89,0,0-.19,.25-.19,.25-.99,1.22-1.92,2.44-3.35,3.22,0,0-.11,0-.11,0h-2.06c-.07,0-.12,.01-.19-.04-1.48-.85-2.43-2.14-3.46-3.43,1.65-2.66,3.38-5.65,3.1-8.89,.8,3.13-.69,6.39-2.18,9.09,0,0-.03-.51-.03-.51,.87,1,1.83,2.15,2.95,2.82,0,0-.19-.04-.19-.04h2.06s-.19,.04-.19,.04c1.13-.67,2.09-1.81,2.96-2.82,0,0-.03,.51-.03,.51-1.5-2.71-2.99-5.95-2.19-9.09h0Z">
</path>
<path d="M40.07,52c-1.56-1.1-3.55-.21-5.32-.39-1.78,.18-3.76-.71-5.32,.39,1.07-1.8,3.56-1.22,5.32-1.39,1.76,.17,4.25-.41,5.32,1.39h0Z">
</path>
<path d="M31.34,52.33c1.01,.44,2.21,.39,3.3,.4,1.1,0,2.27,0,3.31-.39,0,0,.05,.09,.05,.09-1.28,1.44-3.4,1.51-5.12,1.04-.57-.19-1.2-.45-1.59-1.06l.06-.08h0Z">
</path>
<path class="cls-1" d="M17.29,32.67c-.68,.66-.64,1.48-.6,2.26,.33,2.59,1.16,5.05,2.11,7.53,0,0-.07,.07-.07,.07-1.86-1.83-4.56-8.37-1.46-9.96,0,0,.02,.1,.02,.1h0Z">
</path>
<path class="cls-12" d="M10.97,67.25c4.32-1.65,9.22-3.82,13.28-5.2,0,0,.33-7.35,.33-7.35h.1c.37,2.61,.48,5.25,.46,7.87-4.45,1.92-9.49,4.06-14.17,4.68h0Z">
</path>
</g>




 <g
     id="g2850">
    <g
       id="g2837">
      <path
         id="path1951"
         d="M 0.056640625 0.04296875 L 0.056640625 79.943359 L 69.308594 79.943359 L 69.308594 0.04296875 L 0.056640625 0.04296875 z M 33.615234 3.5957031 C 34.206332 3.5957038 34.786991 3.6051034 35.421875 3.6152344 C 44.430653 3.7671809 53.471255 5.1336733 61.560547 7.5546875 L 62.064453 7.7070312 L 62.25 8.1640625 C 66.070247 17.605006 66.990234 28.726438 66.990234 40.0625 C 66.990234 51.398562 65.972723 63.025755 61.988281 72.578125 L 61.791016 73.044922 L 61.275391 73.185547 C 53.273669 75.403966 44.691921 76.529297 35.759766 76.529297 C 35.212453 76.529297 34.675812 76.519896 34.150391 76.509766 L 33.943359 76.509766 C 24.901742 76.357819 15.860367 74.989738 7.7929688 72.558594 L 7.2890625 72.40625 L 7.1035156 71.951172 C 3.2942144 62.520359 2.375 51.369168 2.375 40.0625 C 2.375 28.755832 3.3819737 17.127318 7.3554688 7.5546875 L 7.5527344 7.0898438 L 8.0664062 6.9472656 C 15.509867 4.890923 23.785212 3.7371557 32.005859 3.6054688 C 32.542226 3.5953387 33.078867 3.5957031 33.615234 3.5957031 z "
         style="opacity:1;vector-effect:none;fill:#ffffff;fill-opacity:1;fill-rule:nonzero;stroke:none;stroke-width:1.95200002;stroke-linecap:butt;stroke-linejoin:miter;stroke-miterlimit:4;stroke-dasharray:none;stroke-dashoffset:0;stroke-opacity:1" />
    </g>
    <path
       id="path1154-8-2"
       d="m 33.675163,6.6112954 c 0.557696,0 1.115392,0.00956 1.683415,0.019115 8.427403,0.14336 16.803167,1.4049288 24.363042,3.6700176 3.573384,8.830981 4.443772,19.417362 4.443772,29.761551 0,10.344189 -0.95301,21.39888 -4.68131,30.334991 -7.435942,2.064385 -15.429581,3.274388 -23.774362,3.274388 -0.506058,0 -1.012115,-0.0096 -1.518172,-0.01911 h -0.17557 C 25.56792,73.508883 17.192156,72.088619 9.6426089,69.813973 6.0795528,61.002107 5.2088244,50.415411 5.2088244,40.061979 c 0,-10.353432 0.95335,-21.389323 4.6609939,-30.325434 C 16.820359,7.8155201 24.462856,6.7450981 32.177647,6.6208528 c 0.49573,-0.00956 1.001787,-0.00956 1.497516,-0.00956 m 0,-0.9557337 c -0.506057,0 -1.012114,0 -1.518171,0.00956 C 24.40089,5.7893644 16.593149,6.8789009 9.570315,8.8190405 L 9.0849131,8.9528432 8.8990146,9.3924808 C 5.1500599,18.424166 4.1999116,29.394246 4.1999116,40.061979 c 0,10.667733 0.8675267,21.188618 4.461566,30.0865 l 0.1755708,0.430081 0.4750741,0.14336 c 7.6115135,2.293761 16.1421925,3.584001 24.6728715,3.727361 h 0.196227 c 0.495729,0.0096 1.001786,0.01911 1.518171,0.01911 8.427403,0 16.524318,-1.060864 24.073866,-3.153921 l 0.485403,-0.133802 0.185898,-0.439639 c 3.759282,-9.01257 4.719759,-19.983589 4.719759,-30.679055 0,-10.695466 -0.867528,-21.188618 -4.471894,-30.0960578 L 60.516853,9.5358409 60.041779,9.3924808 C 52.409609,7.108277 43.87893,5.8180364 35.379234,5.6746763 34.780227,5.6651187 34.232859,5.6555621 33.675163,5.6555615 Z"
       style="fill:#ff0000;stroke:#ffffff;stroke-width:1.84341729;stroke-miterlimit:4;stroke-dasharray:none" />
    <path
       id="path1154"
       d="m 33.614853,4.6077955 c 0.591098,0 1.182197,0.01013 1.784241,0.02026 8.932155,0.1519464 17.809578,1.4890758 25.822246,3.8898304 3.787408,9.3599041 4.709928,20.5803481 4.709928,31.5440931 0,10.963745 -1.01009,22.680548 -4.961693,32.151879 -7.881312,2.18803 -16.353723,3.302304 -25.198307,3.302304 -0.536368,0 -1.072735,-0.01013 -1.609102,-0.02026 H 33.97608 C 25.022033,75.343956 16.14461,74.006827 8.1428892,71.595943 4.3664269,62.256298 3.443547,51.035521 3.443547,40.061979 c 0,-10.973542 1.01045,-22.670418 4.9401601,-32.1417498 7.3668369,-2.036083 15.4670749,-3.170617 23.6439369,-3.3023039 0.525421,-0.01013 1.061788,-0.01013 1.587209,-0.01013 m 0,-1.0129766 c -0.536367,0 -1.072734,0 -1.609101,0.01013 C 23.785105,3.7366356 15.509726,4.891429 8.0662653,6.9477716 L 7.5517907,7.0895883 7.3547579,7.5555576 C 3.3812628,17.128188 2.3742062,28.755311 2.3742062,40.061979 c 0,11.306668 0.9194864,22.457692 4.7287876,31.888505 l 0.1860865,0.45584 0.5035283,0.151947 c 8.0673984,2.431144 17.1090154,3.798662 26.1506324,3.950608 h 0.207979 c 0.525421,0.01013 1.061788,0.02026 1.609101,0.02026 8.932155,0 17.514028,-1.124404 25.51575,-3.342823 l 0.514475,-0.141816 0.197032,-0.46597 c 3.984442,-9.55237 5.002445,-21.180489 5.002445,-32.516551 0,-11.336062 -0.919487,-22.457692 -4.739734,-31.8986353 L 62.064202,7.7075041 61.560674,7.5555576 C 53.471382,5.1345434 44.429765,3.7670249 35.420987,3.6150784 c -0.634884,-0.01013 -1.215036,-0.020259 -1.806134,-0.02026 z"
       style="fill:#000000;stroke:#000000;stroke-width:1.95382714;stroke-miterlimit:4;stroke-dasharray:none" />
    <g
       id="g1810">
      <path
         d="M 6.5134911,7.7433673 C 5.6489029,6.8479453 4.058602,6.5681013 3.6272194,7.3820013 3.284151,8.0292783 3.3625296,8.5309135 4.395235,8.9201755 3.2963719,9.5187755 1.4857674,9.4447465 1.1893447,7.4467713 0.95320848,5.8551433 2.674739,4.8863543 3.1399725,5.0916244 3.0034432,3.6818714 1.8221094,4.0692802 0.95849208,3.2813384 0.34259068,2.7194046 0.23126071,-0.02624603 0.0561761,0.04378767 -0.0138576,0.21887227 2.7317937,0.33020157 3.2937267,0.94610377 4.0816685,1.8097211 3.6942598,2.9910547 5.1040128,3.1275841 4.8987425,2.6623507 5.8675315,0.94082017 7.4591593,1.1769564 9.4571345,1.4733791 9.5311625,3.2839847 8.9325635,4.3828467 8.5433008,3.3501417 8.041666,3.2717627 7.3943894,3.6148312 6.5804899,4.0462137 6.8603354,5.6365129 7.7557553,6.5011023"
         style="fill:#000000;stroke:#000000;stroke-width:0.1112323px;stroke-linecap:butt;stroke-linejoin:miter;stroke-opacity:1"
         id="path1737-3" />
      <path
         d="m 62.850738,7.7433673 c 0.864588,-0.895422 2.454889,-1.175266 2.886271,-0.361366 0.343069,0.647277 0.26469,1.148912 -0.768015,1.538174 1.098863,0.5986 2.909467,0.524571 3.20589,-1.473404 0.236136,-1.591628 -1.485394,-2.560417 -1.950628,-2.3551469 0.13653,-1.409753 1.317863,-1.0223442 2.181481,-1.810286 0.615901,-0.5619338 0.727231,-3.30758442 0.902316,-3.23755072 0.07003,0.1750846 -2.675618,0.2864139 -3.237551,0.9023161 C 65.28256,1.8097211 65.669969,2.9910547 64.260216,3.1275841 64.465486,2.6623507 63.496697,0.94082018 61.905069,1.1769564 c -1.997975,0.2964227 -2.072003,2.1070283 -1.473404,3.2058903 0.389263,-1.032705 0.890898,-1.111084 1.538174,-0.7680155 0.8139,0.4313825 0.534054,2.0216817 -0.361366,2.8862711"
         style="fill:#000000;stroke:#000000;stroke-width:0.1112323px;stroke-linecap:butt;stroke-linejoin:miter;stroke-opacity:1"
         id="path1737-3-5" />
      <path
         d="m 62.850738,72.244244 c 0.864588,0.895422 2.454889,1.175266 2.886272,0.361366 0.343068,-0.647277 0.264689,-1.148912 -0.768016,-1.538174 1.098863,-0.5986 2.909468,-0.524571 3.20589,1.473404 0.236137,1.591628 -1.485394,2.560417 -1.950628,2.355147 0.13653,1.409753 1.317864,1.022344 2.181481,1.810286 0.615901,0.561934 0.727231,3.307584 0.902316,3.237551 0.07003,-0.175085 -2.675618,-0.286414 -3.237551,-0.902317 -0.787942,-0.863617 -0.400533,-2.04495 -1.810286,-2.18148 0.20527,0.465234 -0.763519,2.186764 -2.355146,1.950628 -1.997976,-0.296423 -2.072004,-2.107028 -1.473405,-3.20589 0.389263,1.032705 0.890898,1.111084 1.538175,0.768015 0.813899,-0.431382 0.534054,-2.021682 -0.361366,-2.886271"
         style="fill:#000000;stroke:#000000;stroke-width:0.1112323px;stroke-linecap:butt;stroke-linejoin:miter;stroke-opacity:1"
         id="path1737-3-7" />
      <path
         d="M 6.513491,72.244245 C 5.648903,73.139667 4.058602,73.419511 3.62722,72.605611 3.284151,71.958334 3.36253,71.456699 4.395235,71.067437 c -1.098863,-0.5986 -2.909467,-0.524571 -3.20589,1.473404 -0.23613599,1.591628 1.485394,2.560417 1.950628,2.355147 -0.13653,1.409753 -1.317863,1.022344 -2.18148099,1.810286 -0.615901,0.561933 -0.727231,3.307584 -0.902316,3.23755 C -0.01385399,79.76874 2.731794,79.65741 3.293727,79.041508 4.081669,78.177891 3.69426,76.996557 5.104013,76.860028 4.898743,77.325261 5.867532,79.046792 7.45916,78.810656 9.457135,78.514233 9.531163,76.703627 8.932564,75.604765 8.543301,76.63747 8.041666,76.715849 7.39439,76.372781 6.58049,75.941398 6.860336,74.351099 7.755756,73.48651"
         style="fill:#000000;stroke:#000000;stroke-width:0.1112323px;stroke-linecap:butt;stroke-linejoin:miter;stroke-opacity:1"
         id="path1737-3-5-5" />
    </g>
    <path
       id="path1154-9"
       d="m 33.712865,7.4258691 c 0.536813,0 1.07363,0.00933 1.620386,0.01865 8.111875,0.1398689 16.174044,1.3707167 23.450873,3.5806479 3.439594,8.615932 4.277395,18.944521 4.277395,29.036812 0,10.092292 -0.917329,20.877786 -4.506039,29.596289 -7.157536,2.014114 -14.851888,3.03982 -22.884234,3.03982 -0.487111,0 -0.974221,-0.0094 -1.461331,-0.01865 H 34.040918 C 25.909161,72.53957 17.846991,71.308722 10.580105,69.089467 7.1504515,60.492184 6.3123238,50.163289 6.3123238,40.061979 c 0,-10.101311 0.9176558,-20.868461 4.4864832,-29.586965 6.690308,-1.8742449 14.046665,-2.9186005 21.472608,-3.0398203 0.47717,-0.00933 0.964281,-0.00933 1.44145,-0.00933 m 0,-0.9324602 c -0.487111,0 -0.974221,0 -1.46133,0.00933 C 24.785826,6.6239532 17.270413,7.686958 10.510517,9.5798526 L 10.043289,9.710397 9.8643508,10.139328 c -3.6085914,8.811751 -4.5231655,19.514693 -4.5231655,29.922651 0,10.407958 0.8350459,20.672644 4.294522,29.353849 l 0.1689973,0.419608 0.4572874,0.13987 c 7.326533,2.237904 15.537818,3.496724 23.749103,3.636593 h 0.188879 c 0.47717,0.0094 0.96428,0.01865 1.461331,0.01865 8.111875,0 15.905636,-1.035031 23.172525,-3.077119 l 0.467228,-0.130544 0.178938,-0.428932 c 3.618533,-8.793101 4.543048,-19.496959 4.543048,-29.931975 0,-10.435016 -0.835047,-20.672644 -4.304463,-29.363174 l -0.168997,-0.419609 -0.457288,-0.13987 C 51.74588,7.9107484 43.534594,6.6519271 35.353133,6.512058 34.776554,6.502738 34.249678,6.493409 33.712865,6.493409 Z"
       style="fill:#000000;stroke:none;stroke-width:1.78642213;stroke-miterlimit:4;stroke-dasharray:none" />
    <path
       id="path1154-9-3"
       d="m 33.712865,7.4258686 c 0.536813,0 1.07363,0.00933 1.620386,0.01865 8.111875,0.1398689 16.174044,1.3707167 23.450873,3.5806484 3.439594,8.615932 4.277395,18.944521 4.277395,29.036812 0,10.092292 -0.917329,20.877786 -4.506039,29.596288 -7.157536,2.014114 -14.851888,3.03982 -22.884234,3.03982 -0.487111,0 -0.974221,-0.0094 -1.461331,-0.01865 H 34.040918 C 25.909161,72.539569 17.846991,71.308722 10.580105,69.089466 7.1504515,60.492184 6.3123238,50.163288 6.3123238,40.061979 c 0,-10.101312 0.9176558,-20.868461 4.4864832,-29.586965 6.690308,-1.8742454 14.046665,-2.918601 21.472608,-3.0398208 0.47717,-0.00933 0.964281,-0.00933 1.44145,-0.00933 m 0,-0.9324602 c -0.487111,0 -0.974221,0 -1.46133,0.00933 C 24.785826,6.6239527 17.270413,7.6869575 10.510517,9.5798521 L 10.043289,9.7103965 9.8643508,10.139328 C 6.2557594,18.951079 5.3411853,29.65402 5.3411853,40.061979 c 0,10.407958 0.8350459,20.672643 4.294522,29.353849 l 0.1689973,0.419608 0.4572874,0.13987 c 7.326533,2.237904 15.537818,3.496724 23.749103,3.636593 h 0.188879 c 0.47717,0.0094 0.96428,0.01865 1.461331,0.01865 8.111875,0 15.905636,-1.035032 23.172525,-3.077119 l 0.467228,-0.130544 0.178938,-0.428932 c 3.618533,-8.793101 4.543048,-19.49696 4.543048,-29.931975 0,-10.435016 -0.835047,-20.672644 -4.304463,-29.363175 l -0.168997,-0.419609 -0.457288,-0.13987 C 51.74588,7.9107479 43.534594,6.6519266 35.353133,6.5120575 34.776554,6.5027375 34.249678,6.4934085 33.712865,6.4934085 Z"
       style="fill:#000000;stroke:none;stroke-width:1.78642213;stroke-miterlimit:4;stroke-dasharray:none" />
  </g>
</svg>
