<svg id="Capa_2" xmlns="http://www.w3.org/2000/svg" xmlns:xlink="http://www.w3.org/1999/xlink" viewBox="0 0 69.02 80">
<defs >
<style >
.cls-1{fill:#c89aed;}.cls-2{fill:#fff;}.cls-3{fill:#f8ffbf;}.cls-4{fill:#7b7be8;}.cls-5{fill:#a88347;}.cls-6{fill:#782ab5;}.cls-7{stroke-miterlimit:10;}.cls-7,.cls-8,.cls-9,.cls-10,.cls-11,.cls-12{fill:none;}.cls-7,.cls-8,.cls-10{stroke:#000;}.cls-8{stroke-width:.99px;}.cls-8,.cls-9,.cls-10{stroke-linecap:round;stroke-linejoin:round;}.cls-13{fill:#1c46ff;}.cls-9{stroke:#deb778;stroke-dasharray:0 0 0 4.06;}.cls-14{fill:#deb778;}.cls-10{stroke-width:.88px;}.cls-15{fill:url(#USGS_19_Inundación_de_tierra_2);}.cls-12{stroke:#1d1d1b;stroke-dasharray:0 0 2 2;stroke-width:.3px;}.cls-16{fill:#fcf0c5;}
</style>
<pattern id="USGS_19_Inundación_de_tierra_2" x="0" y="0" width="72" height="72" patternTransform="translate(-164.48 -16207) rotate(-90)" patternUnits="userSpaceOnUse" viewBox="0 0 72 72">
<g >
<rect class="cls-11" width="72" height="72">
</rect>
<g >
<line class="cls-12" x1="71" y1="71" x2="144.44" y2="71">
</line>
<line class="cls-12" x1="71" y1="67" x2="144.44" y2="67">
</line>
<line class="cls-12" x1="71" y1="63" x2="144.44" y2="63">
</line>
<line class="cls-12" x1="71" y1="59" x2="144.44" y2="59">
</line>
<line class="cls-12" x1="71" y1="55" x2="144.44" y2="55">
</line>
<line class="cls-12" x1="71" y1="51" x2="144.44" y2="51">
</line>
<line class="cls-12" x1="71" y1="47" x2="144.44" y2="47">
</line>
<line class="cls-12" x1="71" y1="43" x2="144.44" y2="43">
</line>
<line class="cls-12" x1="71" y1="39" x2="144.44" y2="39">
</line>
<line class="cls-12" x1="71" y1="35" x2="144.44" y2="35">
</line>
<line class="cls-12" x1="71" y1="31" x2="144.44" y2="31">
</line>
<line class="cls-12" x1="71" y1="27" x2="144.44" y2="27">
</line>
<line class="cls-12" x1="71" y1="23" x2="144.44" y2="23">
</line>
<line class="cls-12" x1="71" y1="19" x2="144.44" y2="19">
</line>
<line class="cls-12" x1="71" y1="15" x2="144.44" y2="15">
</line>
<line class="cls-12" x1="71" y1="11" x2="144.44" y2="11">
</line>
<line class="cls-12" x1="71" y1="7" x2="144.44" y2="7">
</line>
<line class="cls-12" x1="71" y1="3" x2="144.44" y2="3">
</line>
</g>
<g >
<line class="cls-12" x1="-1" y1="71" x2="72.44" y2="71">
</line>
<line class="cls-12" x1="-1" y1="67" x2="72.44" y2="67">
</line>
<line class="cls-12" x1="-1" y1="63" x2="72.44" y2="63">
</line>
<line class="cls-12" x1="-1" y1="59" x2="72.44" y2="59">
</line>
<line class="cls-12" x1="-1" y1="55" x2="72.44" y2="55">
</line>
<line class="cls-12" x1="-1" y1="51" x2="72.44" y2="51">
</line>
<line class="cls-12" x1="-1" y1="47" x2="72.44" y2="47">
</line>
<line class="cls-12" x1="-1" y1="43" x2="72.44" y2="43">
</line>
<line class="cls-12" x1="-1" y1="39" x2="72.44" y2="39">
</line>
<line class="cls-12" x1="-1" y1="35" x2="72.44" y2="35">
</line>
<line class="cls-12" x1="-1" y1="31" x2="72.44" y2="31">
</line>
<line class="cls-12" x1="-1" y1="27" x2="72.44" y2="27">
</line>
<line class="cls-12" x1="-1" y1="23" x2="72.44" y2="23">
</line>
<line class="cls-12" x1="-1" y1="19" x2="72.44" y2="19">
</line>
<line class="cls-12" x1="-1" y1="15" x2="72.44" y2="15">
</line>
<line class="cls-12" x1="-1" y1="11" x2="72.44" y2="11">
</line>
<line class="cls-12" x1="-1" y1="7" x2="72.44" y2="7">
</line>
<line class="cls-12" x1="-1" y1="3" x2="72.44" y2="3">
</line>
<line class="cls-12" x1="1.04" y1="69" x2="74.48" y2="69">
</line>
<line class="cls-12" x1="1.04" y1="65" x2="74.48" y2="65">
</line>
<line class="cls-12" x1="1.04" y1="61" x2="74.48" y2="61">
</line>
<line class="cls-12" x1="1.04" y1="57" x2="74.48" y2="57">
</line>
<line class="cls-12" x1="1.04" y1="53" x2="74.48" y2="53">
</line>
<line class="cls-12" x1="1.04" y1="49" x2="74.48" y2="49">
</line>
<line class="cls-12" x1="1.04" y1="45" x2="74.48" y2="45">
</line>
<line class="cls-12" x1="1.04" y1="41" x2="74.48" y2="41">
</line>
<line class="cls-12" x1="1.04" y1="37" x2="74.48" y2="37">
</line>
<line class="cls-12" x1="1.04" y1="33" x2="74.48" y2="33">
</line>
<line class="cls-12" x1="1.04" y1="29" x2="74.48" y2="29">
</line>
<line class="cls-12" x1="1.04" y1="25" x2="74.48" y2="25">
</line>
<line class="cls-12" x1="1.04" y1="21" x2="74.48" y2="21">
</line>
<line class="cls-12" x1="1.04" y1="17" x2="74.48" y2="17">
</line>
<line class="cls-12" x1="1.04" y1="13" x2="74.48" y2="13">
</line>
<line class="cls-12" x1="1.04" y1="9" x2="74.48" y2="9">
</line>
<line class="cls-12" x1="1.04" y1="5" x2="74.48" y2="5">
</line>
<line class="cls-12" x1="1.04" y1="1" x2="74.48" y2="1">
</line>
</g>
<g >
<line class="cls-12" x1="-73" y1="71" x2=".44" y2="71">
</line>
<line class="cls-12" x1="-73" y1="67" x2=".44" y2="67">
</line>
<line class="cls-12" x1="-73" y1="63" x2=".44" y2="63">
</line>
<line class="cls-12" x1="-73" y1="59" x2=".44" y2="59">
</line>
<line class="cls-12" x1="-73" y1="55" x2=".44" y2="55">
</line>
<line class="cls-12" x1="-73" y1="51" x2=".44" y2="51">
</line>
<line class="cls-12" x1="-73" y1="47" x2=".44" y2="47">
</line>
<line class="cls-12" x1="-73" y1="43" x2=".44" y2="43">
</line>
<line class="cls-12" x1="-73" y1="39" x2=".44" y2="39">
</line>
<line class="cls-12" x1="-73" y1="35" x2=".44" y2="35">
</line>
<line class="cls-12" x1="-73" y1="31" x2=".44" y2="31">
</line>
<line class="cls-12" x1="-73" y1="27" x2=".44" y2="27">
</line>
<line class="cls-12" x1="-73" y1="23" x2=".44" y2="23">
</line>
<line class="cls-12" x1="-73" y1="19" x2=".44" y2="19">
</line>
<line class="cls-12" x1="-73" y1="15" x2=".44" y2="15">
</line>
<line class="cls-12" x1="-73" y1="11" x2=".44" y2="11">
</line>
<line class="cls-12" x1="-73" y1="7" x2=".44" y2="7">
</line>
<line class="cls-12" x1="-73" y1="3" x2=".44" y2="3">
</line>
<line class="cls-12" x1="-70.96" y1="69" x2="2.48" y2="69">
</line>
<line class="cls-12" x1="-70.96" y1="65" x2="2.48" y2="65">
</line>
<line class="cls-12" x1="-70.96" y1="61" x2="2.48" y2="61">
</line>
<line class="cls-12" x1="-70.96" y1="57" x2="2.48" y2="57">
</line>
<line class="cls-12" x1="-70.96" y1="53" x2="2.48" y2="53">
</line>
<line class="cls-12" x1="-70.96" y1="49" x2="2.48" y2="49">
</line>
<line class="cls-12" x1="-70.96" y1="45" x2="2.48" y2="45">
</line>
<line class="cls-12" x1="-70.96" y1="41" x2="2.48" y2="41">
</line>
<line class="cls-12" x1="-70.96" y1="37" x2="2.48" y2="37">
</line>
<line class="cls-12" x1="-70.96" y1="33" x2="2.48" y2="33">
</line>
<line class="cls-12" x1="-70.96" y1="29" x2="2.48" y2="29">
</line>
<line class="cls-12" x1="-70.96" y1="25" x2="2.48" y2="25">
</line>
<line class="cls-12" x1="-70.96" y1="21" x2="2.48" y2="21">
</line>
<line class="cls-12" x1="-70.96" y1="17" x2="2.48" y2="17">
</line>
<line class="cls-12" x1="-70.96" y1="13" x2="2.48" y2="13">
</line>
<line class="cls-12" x1="-70.96" y1="9" x2="2.48" y2="9">
</line>
<line class="cls-12" x1="-70.96" y1="5" x2="2.48" y2="5">
</line>
<line class="cls-12" x1="-70.96" y1="1" x2="2.48" y2="1">
</line>
</g>
</g>
</pattern>
</defs>

<g id="Capa_10">
<g >
<path class="cls-1" d="M64.46,62.2l-3.89,11.41-28.44,3.89-24.82-5.91v-10.06l17.44-5.77,.27-4.56-2.41-5.77s-2.82-.53-4.7-4.42c-1.88-3.9-.4-8.46,1.75-7.79-.1-.27-.2-.53-.29-.79-1.44-4.19-1.32-6.45-1.32-6.45l-1.87,.66c.14-.29,2.43-4.9,3.34-7.23,.94-2.42,3.89-8.05,14.22-8.59,10.33-.54,14.76,4.03,16.64,7.92s1.88,10.33-.4,14.35c.13-.03,.26-.04,.39-.05,3.22-.31,3.06,3.65,2.29,6.49-.81,3.22-2.82,5.5-5.1,5.5-1.61,4.29-2.55,6.31-2.55,6.31l.27,4.83,19.18,6.03Z">
</path>
<path class="cls-2" d="M34.97,52.46V27.92s5.88-.27,7.39-1.46,3.5-2.26,3.5-2.26l2.21,2.43s2.05,5.66,.81,11.7-3.13,13.64-6.85,17.15c-.04,.04-.07,.07-.11,.1-2.65,2.44-6.95,.48-6.95-3.12Z">
</path>
<path d="M49.98,33.09c.13-.03,.26-.04,.39-.05l-1.1,2.45s-1.01-8-1.66-9.37c-1.88,2.02-2.24,1.87-2.24,1.87,0,0,.58-3.39,.51-4.62-4.4,3.97-4.91,3.9-10.75,4.48,.72-1.66,.86-2.24,.86-2.24,0,0-3.17,2.24-6.63,2.02,3.68-3.03,4.33-6.49,4.33-6.49,0,0-5.7,3.46-8.3,4.4,1.59-2.45,.87-3.75,.87-3.75,0,0-5.56,3.82-5.27,13.27l-1.62-2.63c-1.44-4.19-1.32-6.45-1.32-6.45l-1.87,.66c.14-.29,2.43-4.9,3.34-7.23,.94-2.42,3.89-8.05,14.22-8.59,10.33-.54,14.76,4.03,16.64,7.92s1.88,10.33-.4,14.35Z">
</path>
<path class="cls-3" d="M31.71,39.58s-1.98-2.89-6.61-2.05c1.67,1.67,2.89,2.58,2.89,2.58,0,0,2.66,0,3.72-.53Z">
</path>
<path class="cls-3" d="M38.58,39.58s1.98-2.89,6.61-2.05c-1.67,1.67-2.89,2.58-2.89,2.58,0,0-2.66,0-3.72-.53Z">
</path>
<path d="M21.02,33.59s-2.17-1.9-3.16,.54-.36,6.69,1.54,9.04,3.34,1.54,3.34,1.54c0,0-.45-8.68-1.72-11.12Z">
</path>
<path d="M41.73,56.19l-16.37,19.12-16.48-1.9-1.57-11.87,17.44-5.77,.39-4.12s2.22,4.86,6.13,6.13,8.87,.11,10.46-1.58Z">
</path>
<path class="cls-13" d="M45.02,56.3v5.11s-.19,8.08-14.22,6.32c-5.39,5.48-6.5,6.88-6.5,6.88v2.23l37.72-2.79-.09-12.54-16.91-5.2Z">
</path>
<path class="cls-2" d="M43.33,56.23l-7.72,9.54s4.77,.45,7.95-4.09c-.11-3.86-.23-5.45-.23-5.45Z">
</path>
<path class="cls-4" d="M32.06,39.84l1.5-4.62-7.81-.39s-1.76,.64-2.44,1.43c.47,1.04,.82,1.33,.82,1.33,0,0,1.36-.47,2.72-.47s4.3,1.4,5.19,2.72Z">
</path>
<path class="cls-4" d="M38.29,39.84l-1.5-4.62,7.81-.39s1.76,.64,2.44,1.43c-.47,1.04-.78,1.17-.78,1.17,0,0-1.4-.31-2.77-.31s-4.3,1.4-5.19,2.72Z">
</path>
<path class="cls-2" d="M25.27,39.58s1.92,1.55,2.53,1.78c2.49-.23,3.9-.38,3.9-.38,0,0-1.78,3.05-3.66,3.43-2.82-1.78-2.77-4.83-2.77-4.83Z">
</path>
<path class="cls-1" d="M29.1,25.65c-.34,.28-.72,.54-1.14,.77-.58,.31-.89,.95-.77,1.55,.1,.64,.61,1.15,1.23,1.24,.29,.05,.61,.07,.93,.07,1.25,0,2.64-.34,3.91-.79,.05,.18,.13,.35,.24,.51,.28,.38,.74,.6,1.21,.6,.12,0,.24-.02,.38-.05,.8-.22,1.7-.32,2.65-.44h.05c1.74-.2,3.75-.43,5.66-1.46-.23,.5-.15,1.1,.21,1.54,.29,.35,.71,.56,1.16,.56,.17,0,.33-.03,.47-.08,.11-.04,.79-.28,1.66-.87,.57,2.52,1.05,5.62,1.23,6.78,.03,.17,.05,.3,.06,.4-.06,.33-.12,.69-.18,1.07-.86,5.09-2.46,14.56-8.7,18.74-1.01,.68-2.47,1.09-4.32,1.22-1.81-.12-3.29-.54-4.41-1.23-4.98-3.14-7.27-15.88-7.9-20.08,.04-.18,.04-.35,0-.5-.57-3.71,.15-6.49,1.17-8.46,0,0,0,0,0,0,.01,.02,.03,.03,.04,.05,.29,.35,.72,.55,1.17,.55,.17,0,.34-.03,.53-.1,1.18-.46,2.36-1.02,3.45-1.6m3.65-3.35c-1.6,1.07-4.51,2.88-7.46,4.02-.05,.02-.11,.03-.17,.03-.15,0-.3-.07-.4-.19-.13-.18-.13-.42,0-.6,.85-1.15,1.17-2.25,1.28-3-1.7,1.4-5.39,5.38-4.25,12.8,.02,.1,0,.19-.04,.28,.63,4.3,2.96,17.58,8.39,21,1.27,.79,2.93,1.26,4.94,1.39,1.95-.13,3.64-.56,4.88-1.39,7.18-4.81,8.53-16.15,9.34-20.64-.03-.06-.81-5.66-1.72-8.95-1.26,1.24-2.51,1.67-2.57,1.69-.05,.02-.11,.03-.16,.03-.15,0-.29-.07-.38-.19-.13-.16-.15-.39-.04-.56,.01-.02,.8-1.37,1.06-3.32-2.27,2.8-5.17,3.14-7.77,3.43-1.01,.12-1.96,.23-2.85,.47-.04,.01-.08,.01-.12,.01-.16,0-.31-.08-.41-.2-.12-.17-.12-.39,0-.56,.29-.43,.51-.81,.7-1.13-1.43,.66-3.74,1.57-5.64,1.57-.27,0-.53-.02-.77-.06-.2-.03-.37-.2-.4-.4-.04-.21,.06-.42,.25-.52,2.4-1.32,3.7-3.56,4.32-5.01h0Z">
</path>
<path class="cls-13" d="M23.86,15.51s3.19-2.32,7.63-3.09c-1.93,2.9,.29,3.96,4.15,2.99s5.02,5.6,7.24,3.28,6.47,1.16,5.89-1.54c2.41,2.41,2.9,7.91,2.8,8.69-.87-2.22-3.47-7.14-8.59-4.25s-2.41-6.56-9.65-4.44-4.63-3.28-9.46-1.64Z">
</path>
<path class="cls-8" d="M21.19,35.67s-4-7.17-2.79-10.26c-1.13,1.28-1.96,1.06-1.96,1.06,0,0,1.58-3.17,2.49-6.34s6.34-9.36,15.47-9.21,12.6,3.02,14.57,5.58,3.78,8.81,2.31,13.73l-2.01,5.44s-.38-6.34-1.51-9.58c-1.36,1.66-2.94,2.19-2.94,2.19,0,0,1.36-2.26,1.21-5.28-3.02,5.28-7.62,4.15-11.32,5.13,1.06-1.58,1.36-2.49,1.36-2.49,0,0-4.6,2.57-7.4,2.11,4-2.19,5.06-6.72,5.06-6.72,0,0-4.3,3.17-8.6,4.83,1.66-2.26,1.43-4.3,1.43-4.3,0,0-6.79,4.08-5.28,13.89">
</path>
<path class="cls-10" d="M20.7,34.01s-1.53-2.07-2.6-.67c-1.6,2.09-.4,11.7,4.53,11.62">
</path>
<path class="cls-10" d="M49.67,34.01s1.53-2.07,2.6-.67c1.6,2.09,.4,11.7-4.53,11.62">
</path>
<path class="cls-8" d="M49.09,37.42s-2.16,15.39-8.91,19.64c-1.47,.92-3.29,1.34-5.17,1.46-1.88-.12-3.7-.54-5.17-1.46-6.75-4.25-8.39-19.64-8.39-19.64">
</path>
<path d="M23.19,36.39s1.4-1.16,2.97-.99,5.78,.99,6.44,.91c.95-.58,1.2-1.57,1.2-1.57,0,0-4.21-1.07-6.81-.83-2.64,.41-3.8,2.48-3.8,2.48Z">
</path>
<path d="M32.13,40.05c-1.96-1.79-4.54-2.8-7.12-2.02,0,0,.2-.82,.2-.82,.79,.86,2.26,2.04,2.92,2.51,.8,.07,1.59,.16,2.39,.3-.81,.14-1.61,.23-2.42,.3-.41-.12-.74-.29-1.07-.48-1.16-.65-2.17-1.58-3.1-2.52,3.14-1.23,6.53-.24,8.21,2.73h0Z">
</path>
<path d="M32.59,43.15c-.11,.56-.25,1.1-.14,1.5,.16,.45,.54,.85,.89,1.22-1.44-.18-1.89-1.81-.75-2.72h0Z">
</path>
<path d="M33.16,44.71c.51-.53,1.42,.09,1.33,.73-.48-.41-.87-.34-1.33-.73h0Z">
</path>
<path d="M47.11,36.39s-1.4-1.16-2.97-.99-5.78,.99-6.44,.91c-.95-.58-1.2-1.57-1.2-1.57,0,0,4.21-1.07,6.81-.83,2.64,.41,3.8,2.48,3.8,2.48Z">
</path>
<path d="M38.17,40.05c1.68-2.97,5.06-3.96,8.21-2.73-.94,.94-1.94,1.86-3.1,2.52-.34,.18-.68,.39-1.1,.47-.8-.07-1.59-.16-2.39-.3,.8-.14,1.59-.23,2.39-.3,.66-.47,2.13-1.64,2.92-2.51,0,0,.2,.82,.2,.82-2.58-.78-5.16,.23-7.12,2.02h0Z">
</path>
<path d="M37.7,43.15c1.14,.9,.69,2.54-.75,2.72,.35-.37,.74-.77,.89-1.22,.11-.4-.03-.94-.14-1.5h0Z">
</path>
<path d="M37.13,44.71c-.46,.39-.85,.31-1.33,.73-.09-.64,.82-1.26,1.33-.73h0Z">
</path>
<path d="M40.32,49.81c-1.49,.3-3.37,.29-4.66,.19-1.81,.01-3.74,.21-5.68-.19,1.83-.65,3.74-1.06,5.68-1.02,1.59,.16,3.15,.44,4.66,1.02h0Z">
</path>
<path d="M31.77,51.89c.99-.17,2.2-.16,3.05-.1,1.19,0,2.43-.13,3.71,.1-2.22,.82-4.54,.81-6.76,0h0Z">
</path>
<path class="cls-7" d="M45.15,50.73v11.02s-1.7,6.09-9.31,6.09h-1.75c-7.61,0-9.31-6.09-9.31-6.09v-11.02">
</path>
<line class="cls-7" x1="24.73" y1="55.97" x2="6.63" y2="61.76">
</line>
<line class="cls-7" x1="45.06" y1="55.97" x2="63.16" y2="61.76">
</line>
<path class="cls-13" d="M9.96,61.7c4.54-1.53,10.9-3.65,15.4-5.08,0,0-.05,.06-.05,.06,0,0,.02-3.27,.02-3.27h.1c.24,1.2,.44,2.4,.52,3.62-4.95,2.16-10.7,4.32-16,4.67h0Z">
</path>
<path class="cls-13" d="M18.94,33.95c.16,2.85,.61,5.6,1,8.45,0,0-.09,.05-.09,.05-.76-1.27-1.31-2.68-1.5-4.15-.16-1.48-.03-2.99,.5-4.39l.09,.04h0Z">
</path>
</g>
</g>
 <g
     id="g2850">
    <g
       id="g2837">
      <path
         id="path1951"
         d="M 0.056640625 0.04296875 L 0.056640625 79.943359 L 69.308594 79.943359 L 69.308594 0.04296875 L 0.056640625 0.04296875 z M 33.615234 3.5957031 C 34.206332 3.5957038 34.786991 3.6051034 35.421875 3.6152344 C 44.430653 3.7671809 53.471255 5.1336733 61.560547 7.5546875 L 62.064453 7.7070312 L 62.25 8.1640625 C 66.070247 17.605006 66.990234 28.726438 66.990234 40.0625 C 66.990234 51.398562 65.972723 63.025755 61.988281 72.578125 L 61.791016 73.044922 L 61.275391 73.185547 C 53.273669 75.403966 44.691921 76.529297 35.759766 76.529297 C 35.212453 76.529297 34.675812 76.519896 34.150391 76.509766 L 33.943359 76.509766 C 24.901742 76.357819 15.860367 74.989738 7.7929688 72.558594 L 7.2890625 72.40625 L 7.1035156 71.951172 C 3.2942144 62.520359 2.375 51.369168 2.375 40.0625 C 2.375 28.755832 3.3819737 17.127318 7.3554688 7.5546875 L 7.5527344 7.0898438 L 8.0664062 6.9472656 C 15.509867 4.890923 23.785212 3.7371557 32.005859 3.6054688 C 32.542226 3.5953387 33.078867 3.5957031 33.615234 3.5957031 z "
         style="opacity:1;vector-effect:none;fill:#ffffff;fill-opacity:1;fill-rule:nonzero;stroke:none;stroke-width:1.95200002;stroke-linecap:butt;stroke-linejoin:miter;stroke-miterlimit:4;stroke-dasharray:none;stroke-dashoffset:0;stroke-opacity:1" />
    </g>
    <path
       id="path1154-8-2"
       d="m 33.675163,6.6112954 c 0.557696,0 1.115392,0.00956 1.683415,0.019115 8.427403,0.14336 16.803167,1.4049288 24.363042,3.6700176 3.573384,8.830981 4.443772,19.417362 4.443772,29.761551 0,10.344189 -0.95301,21.39888 -4.68131,30.334991 -7.435942,2.064385 -15.429581,3.274388 -23.774362,3.274388 -0.506058,0 -1.012115,-0.0096 -1.518172,-0.01911 h -0.17557 C 25.56792,73.508883 17.192156,72.088619 9.6426089,69.813973 6.0795528,61.002107 5.2088244,50.415411 5.2088244,40.061979 c 0,-10.353432 0.95335,-21.389323 4.6609939,-30.325434 C 16.820359,7.8155201 24.462856,6.7450981 32.177647,6.6208528 c 0.49573,-0.00956 1.001787,-0.00956 1.497516,-0.00956 m 0,-0.9557337 c -0.506057,0 -1.012114,0 -1.518171,0.00956 C 24.40089,5.7893644 16.593149,6.8789009 9.570315,8.8190405 L 9.0849131,8.9528432 8.8990146,9.3924808 C 5.1500599,18.424166 4.1999116,29.394246 4.1999116,40.061979 c 0,10.667733 0.8675267,21.188618 4.461566,30.0865 l 0.1755708,0.430081 0.4750741,0.14336 c 7.6115135,2.293761 16.1421925,3.584001 24.6728715,3.727361 h 0.196227 c 0.495729,0.0096 1.001786,0.01911 1.518171,0.01911 8.427403,0 16.524318,-1.060864 24.073866,-3.153921 l 0.485403,-0.133802 0.185898,-0.439639 c 3.759282,-9.01257 4.719759,-19.983589 4.719759,-30.679055 0,-10.695466 -0.867528,-21.188618 -4.471894,-30.0960578 L 60.516853,9.5358409 60.041779,9.3924808 C 52.409609,7.108277 43.87893,5.8180364 35.379234,5.6746763 34.780227,5.6651187 34.232859,5.6555621 33.675163,5.6555615 Z"
       style="fill:#ff0000;stroke:#ffffff;stroke-width:1.84341729;stroke-miterlimit:4;stroke-dasharray:none" />
    <path
       id="path1154"
       d="m 33.614853,4.6077955 c 0.591098,0 1.182197,0.01013 1.784241,0.02026 8.932155,0.1519464 17.809578,1.4890758 25.822246,3.8898304 3.787408,9.3599041 4.709928,20.5803481 4.709928,31.5440931 0,10.963745 -1.01009,22.680548 -4.961693,32.151879 -7.881312,2.18803 -16.353723,3.302304 -25.198307,3.302304 -0.536368,0 -1.072735,-0.01013 -1.609102,-0.02026 H 33.97608 C 25.022033,75.343956 16.14461,74.006827 8.1428892,71.595943 4.3664269,62.256298 3.443547,51.035521 3.443547,40.061979 c 0,-10.973542 1.01045,-22.670418 4.9401601,-32.1417498 7.3668369,-2.036083 15.4670749,-3.170617 23.6439369,-3.3023039 0.525421,-0.01013 1.061788,-0.01013 1.587209,-0.01013 m 0,-1.0129766 c -0.536367,0 -1.072734,0 -1.609101,0.01013 C 23.785105,3.7366356 15.509726,4.891429 8.0662653,6.9477716 L 7.5517907,7.0895883 7.3547579,7.5555576 C 3.3812628,17.128188 2.3742062,28.755311 2.3742062,40.061979 c 0,11.306668 0.9194864,22.457692 4.7287876,31.888505 l 0.1860865,0.45584 0.5035283,0.151947 c 8.0673984,2.431144 17.1090154,3.798662 26.1506324,3.950608 h 0.207979 c 0.525421,0.01013 1.061788,0.02026 1.609101,0.02026 8.932155,0 17.514028,-1.124404 25.51575,-3.342823 l 0.514475,-0.141816 0.197032,-0.46597 c 3.984442,-9.55237 5.002445,-21.180489 5.002445,-32.516551 0,-11.336062 -0.919487,-22.457692 -4.739734,-31.8986353 L 62.064202,7.7075041 61.560674,7.5555576 C 53.471382,5.1345434 44.429765,3.7670249 35.420987,3.6150784 c -0.634884,-0.01013 -1.215036,-0.020259 -1.806134,-0.02026 z"
       style="fill:#000000;stroke:#000000;stroke-width:1.95382714;stroke-miterlimit:4;stroke-dasharray:none" />
    <g
       id="g1810">
      <path
         d="M 6.5134911,7.7433673 C 5.6489029,6.8479453 4.058602,6.5681013 3.6272194,7.3820013 3.284151,8.0292783 3.3625296,8.5309135 4.395235,8.9201755 3.2963719,9.5187755 1.4857674,9.4447465 1.1893447,7.4467713 0.95320848,5.8551433 2.674739,4.8863543 3.1399725,5.0916244 3.0034432,3.6818714 1.8221094,4.0692802 0.95849208,3.2813384 0.34259068,2.7194046 0.23126071,-0.02624603 0.0561761,0.04378767 -0.0138576,0.21887227 2.7317937,0.33020157 3.2937267,0.94610377 4.0816685,1.8097211 3.6942598,2.9910547 5.1040128,3.1275841 4.8987425,2.6623507 5.8675315,0.94082017 7.4591593,1.1769564 9.4571345,1.4733791 9.5311625,3.2839847 8.9325635,4.3828467 8.5433008,3.3501417 8.041666,3.2717627 7.3943894,3.6148312 6.5804899,4.0462137 6.8603354,5.6365129 7.7557553,6.5011023"
         style="fill:#000000;stroke:#000000;stroke-width:0.1112323px;stroke-linecap:butt;stroke-linejoin:miter;stroke-opacity:1"
         id="path1737-3" />
      <path
         d="m 62.850738,7.7433673 c 0.864588,-0.895422 2.454889,-1.175266 2.886271,-0.361366 0.343069,0.647277 0.26469,1.148912 -0.768015,1.538174 1.098863,0.5986 2.909467,0.524571 3.20589,-1.473404 0.236136,-1.591628 -1.485394,-2.560417 -1.950628,-2.3551469 0.13653,-1.409753 1.317863,-1.0223442 2.181481,-1.810286 0.615901,-0.5619338 0.727231,-3.30758442 0.902316,-3.23755072 0.07003,0.1750846 -2.675618,0.2864139 -3.237551,0.9023161 C 65.28256,1.8097211 65.669969,2.9910547 64.260216,3.1275841 64.465486,2.6623507 63.496697,0.94082018 61.905069,1.1769564 c -1.997975,0.2964227 -2.072003,2.1070283 -1.473404,3.2058903 0.389263,-1.032705 0.890898,-1.111084 1.538174,-0.7680155 0.8139,0.4313825 0.534054,2.0216817 -0.361366,2.8862711"
         style="fill:#000000;stroke:#000000;stroke-width:0.1112323px;stroke-linecap:butt;stroke-linejoin:miter;stroke-opacity:1"
         id="path1737-3-5" />
      <path
         d="m 62.850738,72.244244 c 0.864588,0.895422 2.454889,1.175266 2.886272,0.361366 0.343068,-0.647277 0.264689,-1.148912 -0.768016,-1.538174 1.098863,-0.5986 2.909468,-0.524571 3.20589,1.473404 0.236137,1.591628 -1.485394,2.560417 -1.950628,2.355147 0.13653,1.409753 1.317864,1.022344 2.181481,1.810286 0.615901,0.561934 0.727231,3.307584 0.902316,3.237551 0.07003,-0.175085 -2.675618,-0.286414 -3.237551,-0.902317 -0.787942,-0.863617 -0.400533,-2.04495 -1.810286,-2.18148 0.20527,0.465234 -0.763519,2.186764 -2.355146,1.950628 -1.997976,-0.296423 -2.072004,-2.107028 -1.473405,-3.20589 0.389263,1.032705 0.890898,1.111084 1.538175,0.768015 0.813899,-0.431382 0.534054,-2.021682 -0.361366,-2.886271"
         style="fill:#000000;stroke:#000000;stroke-width:0.1112323px;stroke-linecap:butt;stroke-linejoin:miter;stroke-opacity:1"
         id="path1737-3-7" />
      <path
         d="M 6.513491,72.244245 C 5.648903,73.139667 4.058602,73.419511 3.62722,72.605611 3.284151,71.958334 3.36253,71.456699 4.395235,71.067437 c -1.098863,-0.5986 -2.909467,-0.524571 -3.20589,1.473404 -0.23613599,1.591628 1.485394,2.560417 1.950628,2.355147 -0.13653,1.409753 -1.317863,1.022344 -2.18148099,1.810286 -0.615901,0.561933 -0.727231,3.307584 -0.902316,3.23755 C -0.01385399,79.76874 2.731794,79.65741 3.293727,79.041508 4.081669,78.177891 3.69426,76.996557 5.104013,76.860028 4.898743,77.325261 5.867532,79.046792 7.45916,78.810656 9.457135,78.514233 9.531163,76.703627 8.932564,75.604765 8.543301,76.63747 8.041666,76.715849 7.39439,76.372781 6.58049,75.941398 6.860336,74.351099 7.755756,73.48651"
         style="fill:#000000;stroke:#000000;stroke-width:0.1112323px;stroke-linecap:butt;stroke-linejoin:miter;stroke-opacity:1"
         id="path1737-3-5-5" />
    </g>
    <path
       id="path1154-9"
       d="m 33.712865,7.4258691 c 0.536813,0 1.07363,0.00933 1.620386,0.01865 8.111875,0.1398689 16.174044,1.3707167 23.450873,3.5806479 3.439594,8.615932 4.277395,18.944521 4.277395,29.036812 0,10.092292 -0.917329,20.877786 -4.506039,29.596289 -7.157536,2.014114 -14.851888,3.03982 -22.884234,3.03982 -0.487111,0 -0.974221,-0.0094 -1.461331,-0.01865 H 34.040918 C 25.909161,72.53957 17.846991,71.308722 10.580105,69.089467 7.1504515,60.492184 6.3123238,50.163289 6.3123238,40.061979 c 0,-10.101311 0.9176558,-20.868461 4.4864832,-29.586965 6.690308,-1.8742449 14.046665,-2.9186005 21.472608,-3.0398203 0.47717,-0.00933 0.964281,-0.00933 1.44145,-0.00933 m 0,-0.9324602 c -0.487111,0 -0.974221,0 -1.46133,0.00933 C 24.785826,6.6239532 17.270413,7.686958 10.510517,9.5798526 L 10.043289,9.710397 9.8643508,10.139328 c -3.6085914,8.811751 -4.5231655,19.514693 -4.5231655,29.922651 0,10.407958 0.8350459,20.672644 4.294522,29.353849 l 0.1689973,0.419608 0.4572874,0.13987 c 7.326533,2.237904 15.537818,3.496724 23.749103,3.636593 h 0.188879 c 0.47717,0.0094 0.96428,0.01865 1.461331,0.01865 8.111875,0 15.905636,-1.035031 23.172525,-3.077119 l 0.467228,-0.130544 0.178938,-0.428932 c 3.618533,-8.793101 4.543048,-19.496959 4.543048,-29.931975 0,-10.435016 -0.835047,-20.672644 -4.304463,-29.363174 l -0.168997,-0.419609 -0.457288,-0.13987 C 51.74588,7.9107484 43.534594,6.6519271 35.353133,6.512058 34.776554,6.502738 34.249678,6.493409 33.712865,6.493409 Z"
       style="fill:#000000;stroke:none;stroke-width:1.78642213;stroke-miterlimit:4;stroke-dasharray:none" />
    <path
       id="path1154-9-3"
       d="m 33.712865,7.4258686 c 0.536813,0 1.07363,0.00933 1.620386,0.01865 8.111875,0.1398689 16.174044,1.3707167 23.450873,3.5806484 3.439594,8.615932 4.277395,18.944521 4.277395,29.036812 0,10.092292 -0.917329,20.877786 -4.506039,29.596288 -7.157536,2.014114 -14.851888,3.03982 -22.884234,3.03982 -0.487111,0 -0.974221,-0.0094 -1.461331,-0.01865 H 34.040918 C 25.909161,72.539569 17.846991,71.308722 10.580105,69.089466 7.1504515,60.492184 6.3123238,50.163288 6.3123238,40.061979 c 0,-10.101312 0.9176558,-20.868461 4.4864832,-29.586965 6.690308,-1.8742454 14.046665,-2.918601 21.472608,-3.0398208 0.47717,-0.00933 0.964281,-0.00933 1.44145,-0.00933 m 0,-0.9324602 c -0.487111,0 -0.974221,0 -1.46133,0.00933 C 24.785826,6.6239527 17.270413,7.6869575 10.510517,9.5798521 L 10.043289,9.7103965 9.8643508,10.139328 C 6.2557594,18.951079 5.3411853,29.65402 5.3411853,40.061979 c 0,10.407958 0.8350459,20.672643 4.294522,29.353849 l 0.1689973,0.419608 0.4572874,0.13987 c 7.326533,2.237904 15.537818,3.496724 23.749103,3.636593 h 0.188879 c 0.47717,0.0094 0.96428,0.01865 1.461331,0.01865 8.111875,0 15.905636,-1.035032 23.172525,-3.077119 l 0.467228,-0.130544 0.178938,-0.428932 c 3.618533,-8.793101 4.543048,-19.49696 4.543048,-29.931975 0,-10.435016 -0.835047,-20.672644 -4.304463,-29.363175 l -0.168997,-0.419609 -0.457288,-0.13987 C 51.74588,7.9107479 43.534594,6.6519266 35.353133,6.5120575 34.776554,6.5027375 34.249678,6.4934085 33.712865,6.4934085 Z"
       style="fill:#000000;stroke:none;stroke-width:1.78642213;stroke-miterlimit:4;stroke-dasharray:none" />
  </g>
</svg>
