<svg id="Capa_2" xmlns="http://www.w3.org/2000/svg" xmlns:xlink="http://www.w3.org/1999/xlink" viewBox="0 0 69.02 80">
<defs >
<style >
.cls-1{fill:#000000;}.cls-2{fill:#000;}.cls-3{fill:#000000;}.cls-4{fill:#000000;}.cls-5{fill:#000000;}.cls-6{fill:#000000;}.cls-7{stroke-miterlimit:10;}.cls-7,.cls-8,.cls-9,.cls-10,.cls-11,.cls-12,.cls-13{fill:none;}.cls-7,.cls-8,.cls-9,.cls-13{stroke:#000;}.cls-8{stroke-width:.5px;}.cls-8,.cls-9,.cls-10,.cls-13{stroke-linecap:round;stroke-linejoin:round;}.cls-14{fill:#000000;}.cls-10{stroke:#000000;stroke-dasharray:0 0 0 4.06;}.cls-15{fill:#000000;}.cls-16{fill:url(#USGS_19_Inundación_de_tierra_2);}.cls-12{stroke:#000000;stroke-dasharray:0 0 2 2;stroke-width:.3px;}.cls-17{fill:#000000;}.cls-13{stroke-width:1.02px;}
</style>
<pattern id="USGS_19_Inundación_de_tierra_2" x="0" y="0" width="72" height="72" patternTransform="translate(-236.48 -16207) rotate(-90)" patternUnits="userSpaceOnUse" viewBox="0 0 72 72">
<g >
<rect class="cls-11" width="72" height="72">
</rect>
<g >
<line class="cls-12" x1="71" y1="71" x2="144.44" y2="71">
</line>
<line class="cls-12" x1="71" y1="67" x2="144.44" y2="67">
</line>
<line class="cls-12" x1="71" y1="63" x2="144.44" y2="63">
</line>
<line class="cls-12" x1="71" y1="59" x2="144.44" y2="59">
</line>
<line class="cls-12" x1="71" y1="55" x2="144.44" y2="55">
</line>
<line class="cls-12" x1="71" y1="51" x2="144.44" y2="51">
</line>
<line class="cls-12" x1="71" y1="47" x2="144.44" y2="47">
</line>
<line class="cls-12" x1="71" y1="43" x2="144.44" y2="43">
</line>
<line class="cls-12" x1="71" y1="39" x2="144.44" y2="39">
</line>
<line class="cls-12" x1="71" y1="35" x2="144.44" y2="35">
</line>
<line class="cls-12" x1="71" y1="31" x2="144.44" y2="31">
</line>
<line class="cls-12" x1="71" y1="27" x2="144.44" y2="27">
</line>
<line class="cls-12" x1="71" y1="23" x2="144.44" y2="23">
</line>
<line class="cls-12" x1="71" y1="19" x2="144.44" y2="19">
</line>
<line class="cls-12" x1="71" y1="15" x2="144.44" y2="15">
</line>
<line class="cls-12" x1="71" y1="11" x2="144.44" y2="11">
</line>
<line class="cls-12" x1="71" y1="7" x2="144.44" y2="7">
</line>
<line class="cls-12" x1="71" y1="3" x2="144.44" y2="3">
</line>
</g>
<g >
<line class="cls-12" x1="-1" y1="71" x2="72.44" y2="71">
</line>
<line class="cls-12" x1="-1" y1="67" x2="72.44" y2="67">
</line>
<line class="cls-12" x1="-1" y1="63" x2="72.44" y2="63">
</line>
<line class="cls-12" x1="-1" y1="59" x2="72.44" y2="59">
</line>
<line class="cls-12" x1="-1" y1="55" x2="72.44" y2="55">
</line>
<line class="cls-12" x1="-1" y1="51" x2="72.44" y2="51">
</line>
<line class="cls-12" x1="-1" y1="47" x2="72.44" y2="47">
</line>
<line class="cls-12" x1="-1" y1="43" x2="72.44" y2="43">
</line>
<line class="cls-12" x1="-1" y1="39" x2="72.44" y2="39">
</line>
<line class="cls-12" x1="-1" y1="35" x2="72.44" y2="35">
</line>
<line class="cls-12" x1="-1" y1="31" x2="72.44" y2="31">
</line>
<line class="cls-12" x1="-1" y1="27" x2="72.44" y2="27">
</line>
<line class="cls-12" x1="-1" y1="23" x2="72.44" y2="23">
</line>
<line class="cls-12" x1="-1" y1="19" x2="72.44" y2="19">
</line>
<line class="cls-12" x1="-1" y1="15" x2="72.44" y2="15">
</line>
<line class="cls-12" x1="-1" y1="11" x2="72.44" y2="11">
</line>
<line class="cls-12" x1="-1" y1="7" x2="72.44" y2="7">
</line>
<line class="cls-12" x1="-1" y1="3" x2="72.44" y2="3">
</line>
<line class="cls-12" x1="1.04" y1="69" x2="74.48" y2="69">
</line>
<line class="cls-12" x1="1.04" y1="65" x2="74.48" y2="65">
</line>
<line class="cls-12" x1="1.04" y1="61" x2="74.48" y2="61">
</line>
<line class="cls-12" x1="1.04" y1="57" x2="74.48" y2="57">
</line>
<line class="cls-12" x1="1.04" y1="53" x2="74.48" y2="53">
</line>
<line class="cls-12" x1="1.04" y1="49" x2="74.48" y2="49">
</line>
<line class="cls-12" x1="1.04" y1="45" x2="74.48" y2="45">
</line>
<line class="cls-12" x1="1.04" y1="41" x2="74.48" y2="41">
</line>
<line class="cls-12" x1="1.04" y1="37" x2="74.48" y2="37">
</line>
<line class="cls-12" x1="1.04" y1="33" x2="74.48" y2="33">
</line>
<line class="cls-12" x1="1.04" y1="29" x2="74.48" y2="29">
</line>
<line class="cls-12" x1="1.04" y1="25" x2="74.48" y2="25">
</line>
<line class="cls-12" x1="1.04" y1="21" x2="74.48" y2="21">
</line>
<line class="cls-12" x1="1.04" y1="17" x2="74.48" y2="17">
</line>
<line class="cls-12" x1="1.04" y1="13" x2="74.48" y2="13">
</line>
<line class="cls-12" x1="1.04" y1="9" x2="74.48" y2="9">
</line>
<line class="cls-12" x1="1.04" y1="5" x2="74.48" y2="5">
</line>
<line class="cls-12" x1="1.04" y1="1" x2="74.48" y2="1">
</line>
</g>
<g >
<line class="cls-12" x1="-73" y1="71" x2=".44" y2="71">
</line>
<line class="cls-12" x1="-73" y1="67" x2=".44" y2="67">
</line>
<line class="cls-12" x1="-73" y1="63" x2=".44" y2="63">
</line>
<line class="cls-12" x1="-73" y1="59" x2=".44" y2="59">
</line>
<line class="cls-12" x1="-73" y1="55" x2=".44" y2="55">
</line>
<line class="cls-12" x1="-73" y1="51" x2=".44" y2="51">
</line>
<line class="cls-12" x1="-73" y1="47" x2=".44" y2="47">
</line>
<line class="cls-12" x1="-73" y1="43" x2=".44" y2="43">
</line>
<line class="cls-12" x1="-73" y1="39" x2=".44" y2="39">
</line>
<line class="cls-12" x1="-73" y1="35" x2=".44" y2="35">
</line>
<line class="cls-12" x1="-73" y1="31" x2=".44" y2="31">
</line>
<line class="cls-12" x1="-73" y1="27" x2=".44" y2="27">
</line>
<line class="cls-12" x1="-73" y1="23" x2=".44" y2="23">
</line>
<line class="cls-12" x1="-73" y1="19" x2=".44" y2="19">
</line>
<line class="cls-12" x1="-73" y1="15" x2=".44" y2="15">
</line>
<line class="cls-12" x1="-73" y1="11" x2=".44" y2="11">
</line>
<line class="cls-12" x1="-73" y1="7" x2=".44" y2="7">
</line>
<line class="cls-12" x1="-73" y1="3" x2=".44" y2="3">
</line>
<line class="cls-12" x1="-70.96" y1="69" x2="2.48" y2="69">
</line>
<line class="cls-12" x1="-70.96" y1="65" x2="2.48" y2="65">
</line>
<line class="cls-12" x1="-70.96" y1="61" x2="2.48" y2="61">
</line>
<line class="cls-12" x1="-70.96" y1="57" x2="2.48" y2="57">
</line>
<line class="cls-12" x1="-70.96" y1="53" x2="2.48" y2="53">
</line>
<line class="cls-12" x1="-70.96" y1="49" x2="2.48" y2="49">
</line>
<line class="cls-12" x1="-70.96" y1="45" x2="2.48" y2="45">
</line>
<line class="cls-12" x1="-70.96" y1="41" x2="2.48" y2="41">
</line>
<line class="cls-12" x1="-70.96" y1="37" x2="2.48" y2="37">
</line>
<line class="cls-12" x1="-70.96" y1="33" x2="2.48" y2="33">
</line>
<line class="cls-12" x1="-70.96" y1="29" x2="2.48" y2="29">
</line>
<line class="cls-12" x1="-70.96" y1="25" x2="2.48" y2="25">
</line>
<line class="cls-12" x1="-70.96" y1="21" x2="2.48" y2="21">
</line>
<line class="cls-12" x1="-70.96" y1="17" x2="2.48" y2="17">
</line>
<line class="cls-12" x1="-70.96" y1="13" x2="2.48" y2="13">
</line>
<line class="cls-12" x1="-70.96" y1="9" x2="2.48" y2="9">
</line>
<line class="cls-12" x1="-70.96" y1="5" x2="2.48" y2="5">
</line>
<line class="cls-12" x1="-70.96" y1="1" x2="2.48" y2="1">
</line>
</g>
</g>
</pattern>
</defs>
  <path
     id="circle1849"
     style="fill:#AA00DD;stroke:#000000;stroke-width:2"
     d="M 34.875,3.84375 C 30.2026,3.8566827 25.91896,6.4477515 23.738281,10.580078 21.63936,9.1446679 19.156089,8.3761337 16.613281,8.375 9.636905,8.3755251 3.9818685,14.031436 3.9824219,21.007812 c 0.012178,4.019812 1.9368978,7.79383 5.1835937,10.164063 -1.8357739,2.246976 -2.8420262,5.057448 -2.8496094,7.958984 0.00713,1.935325 0.4588528,3.843134 1.3203126,5.576172 -2.4145566,2.364898 -3.7807042,5.598771 -3.7929688,8.978516 0.00466,4.996359 2.9538661,9.520462 7.523438,11.541015 0.767283,6.336372 6.140784,11.10481 12.523437,11.113282 3.186693,-0.0091 6.252191,-1.222333 8.582031,-3.396485 1.867081,1.045968 3.9693,1.600422 6.109375,1.611329 2.723791,-0.01118 5.371006,-0.902492 7.546875,-2.541016 1.56279,0.673484 3.245549,1.024252 4.947266,1.03125 6.977139,5.53e-4 12.633366,-5.655674 12.632812,-12.632813 -0.0013,-2.652818 -0.837669,-5.237911 -2.390625,-7.388671 2.480721,-2.37284 3.888874,-5.653124 3.900391,-9.085938 -9.13e-4,-3.96978 -1.867955,-7.708203 -5.041016,-10.09375 2.59288,-2.385063 4.071919,-5.744584 4.080078,-9.267578 C 64.257287,17.599796 58.601376,11.944759 51.625,11.945312 50.032147,11.955601 48.455612,12.267065 46.978516,12.863281 45.38146,7.5117456 40.459758,3.8440964 34.875,3.84375 Z"/>



<g id="Capa_10">
<g >
<path class="cls-1" d="M34.94,12.44s-10.17-.62-14.07,6.57c-2.67,6.06-1.03,14.69-1.03,14.69,0,0-1.85-1.13-2.16,.21s1.13,8.01,1.85,9.66,2.57,2.26,2.57,2.26l1.13,3.6,.51,8.63-16.23,5.96,1.85,9.55s26.09,3.9,26.4,3.9,26.2-5.03,26.2-5.03l-1.34-9.35-13.36-4.93-.21-7.81,1.13-1.64,.62-2.98s1.03,.41,2.88-3.08,2.36-9.14,.92-9.45-1.95,1.03-1.95,1.03c0,0,1.44-8.94-.51-14.9-2.47-4.52-6.16-6.57-15.2-6.88Z">
</path>
<path class="cls-2" d="M35.44,57.32V12.72s11.32,.23,14.38,5.77c3.06,6.11,0,21.96,0,21.96l-1.81,8.72-8.83,9.06-3.74-.91Z">
</path>
<path d="M18.92,60.12s2.71,8.49,15.27,8.31,15.91-4.52,16.99-8.4c5.24,1.54,11.12,3.8,11.12,3.8l-1.9,9.58-25.94,3.89-25.66-4.34-.72-9.13,10.84-3.71Z">
</path>
<path class="cls-14" d="M51.53,60.04s-2.16,6.15-8.84,7.66c6.35,3.07,9.62,6.14,9.62,6.14l8.39-2.53,.41-7.3-9.58-3.97Z">
</path>
<path class="cls-4" d="M38.28,37.21s-1.07-.72-1.1-1.86c5.77-.34,8.8,.03,8.8,.03l1.58,1.17-2.41,1.17-6.87-.52Z">
</path>
<path class="cls-4" d="M32.28,37.21s1.07-.72,1.1-1.86c-5.77-.34-8.8,.03-8.8,.03l-1.58,1.17,2.41,1.17,6.87-.52Z">
</path>
<path class="cls-3" d="M45.23,37.42s-3.02-1.11-6.86-.43c1.28,2,3.24,2.34,3.24,2.34,0,0,2.3,.17,3.62-1.92Z">
</path>
<path class="cls-3" d="M25.43,37.42s3.02-1.11,6.86-.43c-1.28,2-3.24,2.34-3.24,2.34,0,0-2.3,.17-3.62-1.92Z">
</path>
<path d="M20.47,34.51s-1.65-1.85-2.36-1.02,.35,6.23,.53,7.17,2.43,4.98,4.03,5.34c-1.16-5.11-2.2-11.49-2.2-11.49Z">
</path>
<polygon points="40.25 58.62 26.85 74.42 10.75 71.03 9.06 63.33 23.74 58.05 23.78 50.04 31.31 58.67 40.25 58.62">
</polygon>
<path class="cls-2" d="M45.39,54.02l-10.17,12.26s9.63,1.2,14.36-5.68c-2.27-.9-4.19-1.68-4.19-1.68v-4.91Z">
</path>
<path class="cls-1" d="M36.04,14c.3,.01,11.03,.49,12.87,6.48,2.08,6.77,.43,17.12,.42,17.21-.79,4.25-2.15,9.6-2.57,10.46-.61,.94-2.47,3.02-5.03,5.89-.94,1.05-1.99,2.23-3.14,3.53-.93,.16-1.94,.23-3.02,.23s-2.13-.07-3.24-.21c-1.84-2.07-6.72-7.62-7.92-9.5-.41-.79-1.43-4.94-2.15-8.38l-.24-2.23s0-.07-.02-.1c-.09-.42-2.06-10.27-.03-16.88,1.85-6.03,12.74-6.48,12.83-6.48h1.25m.01-1h-1.26c-.1,0-11.71,.4-13.79,7.19-2.15,7.01-.01,17.28,.01,17.38l.25,2.28c.42,2.02,1.67,7.64,2.27,8.73,1.14,1.81,5.62,6.95,8.28,9.94,1.05,.15,2.35,.27,3.74,.27,1.15,0,2.36-.08,3.54-.31,4.62-5.22,7.66-8.48,8.52-9.83,.54-1,1.97-6.9,2.69-10.78,.02-.11,1.71-10.67-.44-17.68-2.08-6.79-13.69-7.19-13.81-7.19h0Z">
</path>
<path class="cls-2" d="M25.12,41.71l3.9,1.27,2.23-1.67-2.38,4.93s-2.86-1.27-3.74-4.53Z">
</path>
<path class="cls-9" d="M50.34,37.67s2.21-10.42,0-17.63-14.27-7.55-14.27-7.55h-1.28s-12.06,.33-14.27,7.55,0,17.63,0,17.63">
</path>
<path class="cls-9" d="M20.76,39.9s1.56,7.53,2.33,8.92c1.19,1.89,5.77,7.13,8.47,10.17,2.01,.29,5,.51,7.79-.05,2.7-3.05,7.24-8.24,8.42-10.12,.77-1.39,2.32-8.92,2.32-8.92">
</path>
<path class="cls-9" d="M20.02,34.35s-.75-1.7-1.9-.95,.61,8.23,1.84,10.75c.88,1.84,1.97,1.7,1.97,1.7">
</path>
<path class="cls-9" d="M50.9,34.35s.75-1.7,1.9-.95-.61,8.23-1.84,10.75c-.88,1.84-1.97,1.7-1.97,1.7">
</path>
<polyline class="cls-9" points="23.69 49.85 23.75 58.18 7.55 64.35">
</polyline>
<polyline class="cls-9" points="47 50.05 46.93 58.18 63.13 64.35">
</polyline>
<path d="M25.21,21.58c-.37,2.75-.92,5.79-1.44,8.53-.18,.94-.31,1.9-.8,2.78-.14-1.71,.64-4.01,.91-5.7,.42-1.88,.84-3.75,1.33-5.61h0Z">
</path>
<path d="M45.48,21.58c.71,2.69,1.35,5.7,1.91,8.44,.19,.94,.43,1.87,.32,2.87-.78-1.53-.94-3.95-1.33-5.61-.33-1.89-.65-3.79-.91-5.7h0Z">
</path>
<path d="M29.22,27.34c4.1-.38,8.11-.53,12.15,.09-3.9,.43-8.47,.59-12.15-.09h0Z">
</path>
<path d="M22.93,36.62s1.29-2.66,3.11-3.33c4.84-.75,7.59-.36,7.59-.36,0,0,.04,1.87-.31,2.84-4.04-.36-8.57-.36-10.39,.84Z">
</path>
<path d="M47.55,36.62s-1.29-2.66-3.11-3.33c-4.84-.75-7.59-.36-7.59-.36,0,0-.04,1.87,.31,2.84,4.04-.36,8.57-.36,10.39,.84Z">
</path>
<path class="cls-8" d="M32.29,36.85s-4.15-.71-7.16,.53c2.06,1.84,3.62,1.91,3.62,1.91,0,0,2.23-.32,3.55-2.45Z">
</path>
<path d="M31.78,39.38c-.78,.89-1.61,1.81-2.71,2.31-1.46-.03-2.86-.62-3.97-1.53,1.31,.53,2.63,.99,3.97,1.04,.38-.29,1.92-1.25,2.71-1.82h0Z">
</path>
<path class="cls-8" d="M38.15,36.85s4.15-.71,7.16,.53c-2.06,1.84-3.62,1.91-3.62,1.91,0,0-2.23-.32-3.55-2.45Z">
</path>
<path d="M38.66,39.38c.96,.62,1.87,1.34,2.82,1.85,.74-.08,2.72-.52,3.86-1.07-1.11,.91-2.51,1.5-3.97,1.53-1.1-.5-1.93-1.42-2.71-2.31h0Z">
</path>
<path d="M37.52,42.93c.44,.22,.89,.51,1.3,.79,.15,.13,.52,.29,.46,.56-.43,1.25-1.11,2.36-2,3.35-.08,.09-.18,.13-.29,.13-1.11,.02-2.21,.02-3.32,0-.13,0-.25-.05-.33-.13-.89-.99-1.58-2.1-2-3.35-.06-.27,.32-.42,.46-.56,0,0,.42-.28,.42-.28,.29-.18,.58-.35,.87-.5-.36,.4-1.03,1.02-1.32,1.44l.03-.25c.3,.53,.64,1.03,1,1.51,.37,.47,.77,.95,1.18,1.34l-.33-.13c1.1-.02,2.19-.02,3.29,0l-.33,.13c.84-.82,1.59-1.82,2.18-2.86,0,0,.03,.25,.03,.25-.28-.41-.96-1.04-1.32-1.44h0Z">
</path>
<path d="M41.85,51.86c-1.96-.45-4.77-.61-6.47-.66h-.07c-1.69,.04-4.6,.19-6.62,.66,1.32-1.05,4.22-2.27,4.22-2.27l2.37,.64,2.36-.64s2.9,1.22,4.21,2.27Z">
</path>
<path d="M39.22,52.55c-.27,.4-.49,.89-.87,1.18-1.1,.17-2.2,.23-3.29,.24-1.1,0-2.2-.07-3.29-.24-.37-.28-.59-.78-.87-1.18,.4,.22,.77,.46,1.14,.72l-.19-.08c1.07-.16,2.14-.22,3.21-.23,1.07,0,2.14,.07,3.21,.23l-.19,.08c.36-.26,.73-.51,1.14-.72h0Z">
</path>
<polygon points="36.33 53.68 36.9 56.89 40.65 56.89 38.59 59.07 35.13 59.38 35.23 59.38 31.76 59.07 29.71 56.89 33.46 56.89 34.02 53.68 36.33 53.68">
</polygon>
<path class="cls-9" d="M51.27,59.92s-1.25,8.41-15.2,8.41h-1.77c-13.95,0-15.2-8.41-15.2-8.41">
</path>
<path class="cls-13" d="M22.29,46.62c0,1.37-.48,2.47-1.08,2.47s-1.08-1.11-1.08-2.47,.48-2.47,1.08-2.47">
</path>
<path class="cls-13" d="M48.62,46.62c0,1.37,.48,2.47,1.08,2.47s1.08-1.11,1.08-2.47-.48-2.47-1.08-2.47">
</path>
<path class="cls-14" d="M24.75,53.82c.35,1.68,.56,3.38,.68,5.08-2.87,1.44-5.9,2.64-8.96,3.63-1.72,.5-3.59,1.06-5.36,1.34,0,0-.04-.09-.04-.09,4.43-1.71,9.34-3.84,13.55-5.3,0,0,.02-4.66,.02-4.66,0,0,.1,0,.1,0h0Z">
</path>
</g>
</g>

</svg>
