<?xml version="1.0" encoding="UTF-8"?><svg id="Capa_2" xmlns="http://www.w3.org/2000/svg" xmlns:xlink="http://www.w3.org/1999/xlink" viewBox="0 0 69.02 80"><defs><style>.cls-1{fill:#c89aed;}.cls-2{fill:#fff;}.cls-3{fill:#f8ffbf;}.cls-4{fill:#7b7be8;}.cls-5{fill:#a88347;}.cls-6{fill:#782ab5;}.cls-7,.cls-8{stroke:#000;stroke-miterlimit:10;}.cls-7,.cls-8,.cls-9,.cls-10,.cls-11{fill:none;}.cls-8,.cls-9{stroke-linecap:round;}.cls-12{fill:#1c46ff;}.cls-9{stroke:#deb778;stroke-dasharray:0 0 0 4.06;stroke-linejoin:round;}.cls-13{fill:#deb778;}.cls-14{fill:url(#USGS_19_Inundación_de_tierra_2);}.cls-11{stroke:#1d1d1b;stroke-dasharray:0 0 2 2;stroke-width:.3px;}.cls-15{fill:#fcf0c5;}</style><pattern id="USGS_19_Inundación_de_tierra_2" x="0" y="0" width="72" height="72" patternTransform="translate(-452.48 -16279) rotate(-90)" patternUnits="userSpaceOnUse" viewBox="0 0 72 72"><g><rect class="cls-10" width="72" height="72"/><g><line class="cls-11" x1="71" y1="71" x2="144.44" y2="71"/><line class="cls-11" x1="71" y1="67" x2="144.44" y2="67"/><line class="cls-11" x1="71" y1="63" x2="144.44" y2="63"/><line class="cls-11" x1="71" y1="59" x2="144.44" y2="59"/><line class="cls-11" x1="71" y1="55" x2="144.44" y2="55"/><line class="cls-11" x1="71" y1="51" x2="144.44" y2="51"/><line class="cls-11" x1="71" y1="47" x2="144.44" y2="47"/><line class="cls-11" x1="71" y1="43" x2="144.44" y2="43"/><line class="cls-11" x1="71" y1="39" x2="144.44" y2="39"/><line class="cls-11" x1="71" y1="35" x2="144.44" y2="35"/><line class="cls-11" x1="71" y1="31" x2="144.44" y2="31"/><line class="cls-11" x1="71" y1="27" x2="144.44" y2="27"/><line class="cls-11" x1="71" y1="23" x2="144.44" y2="23"/><line class="cls-11" x1="71" y1="19" x2="144.44" y2="19"/><line class="cls-11" x1="71" y1="15" x2="144.44" y2="15"/><line class="cls-11" x1="71" y1="11" x2="144.44" y2="11"/><line class="cls-11" x1="71" y1="7" x2="144.44" y2="7"/><line class="cls-11" x1="71" y1="3" x2="144.44" y2="3"/></g><g><line class="cls-11" x1="-1" y1="71" x2="72.44" y2="71"/><line class="cls-11" x1="-1" y1="67" x2="72.44" y2="67"/><line class="cls-11" x1="-1" y1="63" x2="72.44" y2="63"/><line class="cls-11" x1="-1" y1="59" x2="72.44" y2="59"/><line class="cls-11" x1="-1" y1="55" x2="72.44" y2="55"/><line class="cls-11" x1="-1" y1="51" x2="72.44" y2="51"/><line class="cls-11" x1="-1" y1="47" x2="72.44" y2="47"/><line class="cls-11" x1="-1" y1="43" x2="72.44" y2="43"/><line class="cls-11" x1="-1" y1="39" x2="72.44" y2="39"/><line class="cls-11" x1="-1" y1="35" x2="72.44" y2="35"/><line class="cls-11" x1="-1" y1="31" x2="72.44" y2="31"/><line class="cls-11" x1="-1" y1="27" x2="72.44" y2="27"/><line class="cls-11" x1="-1" y1="23" x2="72.44" y2="23"/><line class="cls-11" x1="-1" y1="19" x2="72.44" y2="19"/><line class="cls-11" x1="-1" y1="15" x2="72.44" y2="15"/><line class="cls-11" x1="-1" y1="11" x2="72.44" y2="11"/><line class="cls-11" x1="-1" y1="7" x2="72.44" y2="7"/><line class="cls-11" x1="-1" y1="3" x2="72.44" y2="3"/><line class="cls-11" x1="1.04" y1="69" x2="74.48" y2="69"/><line class="cls-11" x1="1.04" y1="65" x2="74.48" y2="65"/><line class="cls-11" x1="1.04" y1="61" x2="74.48" y2="61"/><line class="cls-11" x1="1.04" y1="57" x2="74.48" y2="57"/><line class="cls-11" x1="1.04" y1="53" x2="74.48" y2="53"/><line class="cls-11" x1="1.04" y1="49" x2="74.48" y2="49"/><line class="cls-11" x1="1.04" y1="45" x2="74.48" y2="45"/><line class="cls-11" x1="1.04" y1="41" x2="74.48" y2="41"/><line class="cls-11" x1="1.04" y1="37" x2="74.48" y2="37"/><line class="cls-11" x1="1.04" y1="33" x2="74.48" y2="33"/><line class="cls-11" x1="1.04" y1="29" x2="74.48" y2="29"/><line class="cls-11" x1="1.04" y1="25" x2="74.48" y2="25"/><line class="cls-11" x1="1.04" y1="21" x2="74.48" y2="21"/><line class="cls-11" x1="1.04" y1="17" x2="74.48" y2="17"/><line class="cls-11" x1="1.04" y1="13" x2="74.48" y2="13"/><line class="cls-11" x1="1.04" y1="9" x2="74.48" y2="9"/><line class="cls-11" x1="1.04" y1="5" x2="74.48" y2="5"/><line class="cls-11" x1="1.04" y1="1" x2="74.48" y2="1"/></g><g><line class="cls-11" x1="-73" y1="71" x2=".44" y2="71"/><line class="cls-11" x1="-73" y1="67" x2=".44" y2="67"/><line class="cls-11" x1="-73" y1="63" x2=".44" y2="63"/><line class="cls-11" x1="-73" y1="59" x2=".44" y2="59"/><line class="cls-11" x1="-73" y1="55" x2=".44" y2="55"/><line class="cls-11" x1="-73" y1="51" x2=".44" y2="51"/><line class="cls-11" x1="-73" y1="47" x2=".44" y2="47"/><line class="cls-11" x1="-73" y1="43" x2=".44" y2="43"/><line class="cls-11" x1="-73" y1="39" x2=".44" y2="39"/><line class="cls-11" x1="-73" y1="35" x2=".44" y2="35"/><line class="cls-11" x1="-73" y1="31" x2=".44" y2="31"/><line class="cls-11" x1="-73" y1="27" x2=".44" y2="27"/><line class="cls-11" x1="-73" y1="23" x2=".44" y2="23"/><line class="cls-11" x1="-73" y1="19" x2=".44" y2="19"/><line class="cls-11" x1="-73" y1="15" x2=".44" y2="15"/><line class="cls-11" x1="-73" y1="11" x2=".44" y2="11"/><line class="cls-11" x1="-73" y1="7" x2=".44" y2="7"/><line class="cls-11" x1="-73" y1="3" x2=".44" y2="3"/><line class="cls-11" x1="-70.96" y1="69" x2="2.48" y2="69"/><line class="cls-11" x1="-70.96" y1="65" x2="2.48" y2="65"/><line class="cls-11" x1="-70.96" y1="61" x2="2.48" y2="61"/><line class="cls-11" x1="-70.96" y1="57" x2="2.48" y2="57"/><line class="cls-11" x1="-70.96" y1="53" x2="2.48" y2="53"/><line class="cls-11" x1="-70.96" y1="49" x2="2.48" y2="49"/><line class="cls-11" x1="-70.96" y1="45" x2="2.48" y2="45"/><line class="cls-11" x1="-70.96" y1="41" x2="2.48" y2="41"/><line class="cls-11" x1="-70.96" y1="37" x2="2.48" y2="37"/><line class="cls-11" x1="-70.96" y1="33" x2="2.48" y2="33"/><line class="cls-11" x1="-70.96" y1="29" x2="2.48" y2="29"/><line class="cls-11" x1="-70.96" y1="25" x2="2.48" y2="25"/><line class="cls-11" x1="-70.96" y1="21" x2="2.48" y2="21"/><line class="cls-11" x1="-70.96" y1="17" x2="2.48" y2="17"/><line class="cls-11" x1="-70.96" y1="13" x2="2.48" y2="13"/><line class="cls-11" x1="-70.96" y1="9" x2="2.48" y2="9"/><line class="cls-11" x1="-70.96" y1="5" x2="2.48" y2="5"/><line class="cls-11" x1="-70.96" y1="1" x2="2.48" y2="1"/></g></g></pattern></defs><g id="BG"><g><path class="cls-6" d="M64.02,40c0,11.47-1.89,22.39-5.5,31.74-7.2,2.16-14.94,3.26-23.02,3.26-.49,0-.98-.01-1.47-.02h-.17c-8.18-.15-16.29-1.47-23.6-3.85-3.45-9.22-5.26-19.93-5.26-31.13s1.89-22.38,5.48-31.73c6.73-2.01,14.13-3.13,21.6-3.26,.48-.01,.97-.01,1.45-.01,.54,0,1.08,.01,1.63,.02,8.16,.15,16.27,1.47,23.59,3.84,3.46,9.24,5.27,19.95,5.27,31.14Z"/><path class="cls-14" d="M34.03,5.59V74.98h-.17c-8.18-.15-16.29-1.47-23.6-3.85-3.45-9.22-5.26-19.93-5.26-31.13s1.89-22.38,5.48-31.73c6.73-2.01,14.13-3.13,21.6-3.26,.65,.16,1.3,.36,1.95,.58Z"/></g></g><g id="Characters"><path class="cls-1" d="M61.53,66.31c-.61,6.91-.71,8.64-.71,8.64l-26.13,2.24-25.93-4.98v-7.22s12-4.07,12.61-4.17c-.61-3.15-.51-4.88-.51-4.88l-2.03-1.83-.21-6.1s-3.25-1.93-3.56-6.71c0-3.05,.82-5.29,1.63-5.29v-.04c-.17-.58-2.23-7.92-2.03-11.14,.2-3.36,3.15-7.93,3.15-7.93l.51,2.94s2.13-3.96,3.86-5.38c1.73-1.43,2.44-3.46,2.44-3.46l.92,3.25,3.25-5.08,1.73,4.07,4.17-5.8,3.56,5.8,1.52-4.38,3.36,5.09,1.32-2.95s.81,2.24,2.44,3.56c1.62,1.32,3.66,5.08,3.66,5.08l.71-2.74s3.35,6.3,3.35,8.94c-.1,2.95-2.64,10.48-2.64,10.48,0,0,1.53-.11,1.83,2.94,.31,3.05-1.63,8.54-3.25,9.66-.61,4.48-.51,5.29-.51,5.29l-2.14,2.34-.71,4.57s12.31,3.16,14.34,5.19Z"/><polygon class="cls-2" points="34.5 65.4 34.5 29.23 36.72 25.92 46.06 25.22 49.57 31.29 49.68 42.04 50.04 54.21 38.35 65.63 34.5 65.4"/><path class="cls-1" d="M23.55,27.64c1.17,.26,2.9,.52,5.08,.52,.81,0,1.64-.04,2.47-.11,1.12,.78,1.99,1.63,2.64,2.58l.89,1.29,.8-1.35c.51-.86,1.35-1.51,2.23-2.2,.07-.05,.14-.11,.2-.16,.72,.06,1.45,.1,2.17,.1,2.27,0,4.12-.32,5.37-.63,.35,1.46,.88,3.11,1.65,4.22,.33,.46,1.94,3.08,1.18,9.78v.12s-.03,.22-.03,.22l.07,.21,.04,.11c.73,2,.4,8.07,.1,11.32l-10.74,10.42h-6.42l-10.74-10.42c-.38-4.37-.54-9.53,.11-11.32l.04-.11,.08-.21-.02-.22v-.15c-.77-6.68,.84-9.3,1.18-9.76,.82-1.16,1.35-2.97,1.65-4.25m-.76-1.22c-.21,1.11-.77,3.56-1.71,4.9-.52,.72-2.14,3.62-1.37,10.45v.12s-.03,.11-.03,.11c-.97,2.67-.25,10.8-.13,12.12l11.3,10.96h7.23l11.29-10.96c.13-1.32,.85-9.45-.12-12.12l-.04-.11v-.12c.78-6.83-.84-9.73-1.36-10.45-.94-1.34-1.49-3.76-1.71-4.88-.98,.31-3.14,.88-6.12,.88-.77,0-1.6-.04-2.47-.13-1.08,.86-2.27,1.66-2.99,2.88-.79-1.15-1.82-2.1-3-2.91-.08-.06-.17-.13-.26-.19v.06c-.95,.1-1.84,.14-2.67,.14-2.85,0-4.9-.48-5.84-.75h0Z"/><path d="M54.61,25.84c-.1,2.95-2.64,10.48-2.64,10.48l-2.23,1.25s-.08-3.69-1.81-6.61c-1.42-2.67-1.57-5.35-1.57-5.35,0,0-3.86,1.66-8.82,.87-2.28,1.57-2.99,2.75-2.99,2.75,0,0-2.51-2.59-3.69-2.67-4.8-.39-8.34-.39-8.34-.39l-1.1,3.93s-2.44,3.7-2.44,7.55c-1.26-1.34-2.29-1.64-2.29-1.64v-.04c-.17-.58-2.23-7.92-2.03-11.14,.2-3.36,3.15-7.93,3.15-7.93l.51,2.94s2.13-3.96,3.86-5.38c1.73-1.43,2.44-3.46,2.44-3.46l.92,3.25,3.25-5.08,1.73,4.07,4.17-5.8,3.56,5.8,1.52-4.38,3.36,5.09,1.32-2.95s.81,2.24,2.44,3.56c1.62,1.32,3.66,5.08,3.66,5.08l.71-2.74s3.35,6.3,3.35,8.94Z"/><path class="cls-12" d="M52.08,19.97s2.31,4.21,1.57,8.18c-2.06-.74-4.05,.17-5.45,2.06-.66-4.54-1.14-3.24-1.14-4.64,3.39,1.49,4.69-1.3,5.02-5.6Z"/><path class="cls-3" d="M45.52,41.96s-4.39-1.49-8.04-.07c1.62,1.76,5.4,3.85,8.04,.07Z"/><path class="cls-4" d="M47.86,40.56l-2.16,1.4s-4.19-1.44-8.38-.04c-.97-.38-2.07-2.92-1.95-3.77,4.19-.8,8.21-1.27,8.21-1.27,0,0,3.22,1.44,4.27,3.68Z"/><path class="cls-3" d="M23.3,41.96s4.39-1.49,8.04-.07c-1.62,1.76-5.4,3.85-8.04,.07Z"/><path class="cls-4" d="M20.96,40.56l2.16,1.4s4.19-1.44,8.38-.04c.97-.38,2.07-2.92,1.95-3.77-4.19-.8-8.21-1.27-8.21-1.27,0,0-3.22,1.44-4.27,3.68Z"/><path d="M17.62,36.16s-1.94-.4-2.18,2.18-.08,8.25,3.24,10.19c.08-5.58,.49-7.36,.49-7.36l-.57-4.85-.97-.16Z"/><polygon points="38.35 65.63 27.94 75.84 9.77 75.05 8 65.03 21.37 60.82 20.86 55.94 30.4 65.33 38.35 65.63"/><path class="cls-2" d="M24.24,44.87c.92,.31,2.25,.63,3.63,.54,.63-.04,1,.72,.61,1.22-2.67,3.44-4.28,3.18-5.22-.89-.13-.57,.42-1.05,.97-.87Z"/><path class="cls-2" d="M44.34,62.51l-10.95,10.69s11.78,2.49,16.17-4.32c1.98-3.36,.66-5.63,.66-5.63l-3.36-.59h0c-.63-.78-1.79-.86-2.51-.15Z"/><path class="cls-7" d="M7.31,66.12s8.06-3.81,14.22-5.29"/><line class="cls-8" x1="22.94" y1="68.12" x2="20.61" y2="56.07"/><path class="cls-7" d="M61.38,66.12s-8.06-3.81-14.22-5.29"/><line class="cls-8" x1="45.76" y1="68.12" x2="48.08" y2="56.07"/><path class="cls-7" d="M31.26,26.53c-5.4,.55-8.86-.76-8.86-.76,0,0-.56,3.6-1.73,5.26-1.18,1.66-2.08,5.26-1.46,10.8-1.1,3.04-.14,12.52-.14,12.52l11.58,11.23h7.63l11.57-11.23s.97-9.48-.13-12.52c.62-5.54-.28-9.14-1.46-10.8-1.17-1.66-1.73-5.26-1.73-5.26,0,0-3.55,1.47-8.94,.92"/><path d="M39.83,24.13c-.64,2.76-3.86,3.55-5.26,5.94-.8-1.14-1.82-2.1-3-2.91-1.05-.72-1.99-1.77-2.26-3.03,.67,1.06,1.63,1.81,2.67,2.36,1.13,.6,2.17,1.4,2.99,2.45h-.79c1.51-2.16,4.28-2.53,5.66-4.81h0Z"/><path class="cls-7" d="M18.94,37.92s-1.27-2.08-2.68-1.41-2.01,8.86,2.46,12.28"/><path class="cls-7" d="M49.97,37.92s1.27-2.08,2.68-1.41,2.01,8.86-2.46,12.28"/><path class="cls-7" d="M51.86,36.61s2.94-7.73,2.29-11.92c-.66-4.19-3.08-8.12-3.08-8.12l-.52,3.34s-1.97-3.86-3.73-5.3c-1.77-1.44-2.49-3.54-2.49-3.54l-1.05,3.08-3.27-4.98s-.98,3.61-1.84,4.39c-1.16-2.32-2.74-4.42-3.73-6.05-.98,1.63-2.57,3.73-3.73,6.05-.85-.78-1.83-4.39-1.83-4.39l-3.28,4.98-1.04-3.08s-.72,2.1-2.49,3.54-3.73,5.3-3.73,5.3l-.53-3.34s-2.42,3.93-3.07,8.12c-.66,4.19,2.29,11.92,2.29,11.92"/><path d="M36.32,42.15c.63,2.27,1.09,4.56,.96,6.95,0,0-.16-.37-.16-.37,.55,.38,1.01,.85,1.36,1.43,0,0-.14,.24-.14,.24-.08,.15-.49,.86-.56,.99-.08,0-1.72,.23-1.86,.24,0,0,.29-.14,.29-.14-.26,.27-1.51,1.57-1.75,1.81l-.36-.37-1.39-1.44,.29,.14c-.14-.02-1.78-.23-1.86-.24,0,0-.11-.19-.11-.19-.1-.17-.5-.88-.59-1.04,.35-.58,.8-1.05,1.35-1.43,0,0-.16,.37-.16,.37-.13-2.39,.33-4.68,.96-6.95-.18,2.33-.49,4.76-.13,7.06-.41,.34-.84,.73-1.12,1.18v-.45s.49,.78,.49,.78l-.35-.22s1.84,.19,1.8,.19c0,0,.12,.13,.12,.13l1.41,1.42h-.71s1.41-1.42,1.41-1.42c.13-.14,.1-.13,.29-.14,0,0,1.63-.17,1.63-.17l-.34,.22,.49-.78v.45c-.24-.38-.59-.73-.94-1.02,0,0-.19-.16-.19-.16,.37-2.3,.05-4.73-.13-7.06h0Z"/><path d="M33.37,38.1s-.99,1.13-1.8,1.49c-3.65-.27-5.45-1.76-6.98-1.53s-3.74,2.61-3.74,2.61c0,0,1.13-3.6,4.95-4.86,2.93,.14,7.56,2.3,7.56,2.3Z"/><path d="M27.18,43.99c1.44-.47,2.93-1.13,3.76-2.43,0,0,.2,.64,.2,.64-2.38-.76-5.19-.81-7.55,.05,0,0,.09-.51,.09-.51,.59,.8,1.32,1.54,2.17,2.14-1.15-.37-2.15-1.12-2.98-1.99,2.55-1.57,5.85-1.6,8.59-.49,0,0,.5,.22,.5,.22-1.03,1.65-2.93,2.37-4.78,2.37h0Z"/><path d="M35.32,38.1s.99,1.13,1.8,1.49c3.65-.27,5.45-1.76,6.98-1.53s3.74,2.61,3.74,2.61c0,0-1.13-3.6-4.95-4.86-2.93,.14-7.56,2.3-7.56,2.3Z"/><path d="M41.51,43.99c-1.85,0-3.75-.72-4.78-2.37,0,0,.5-.22,.5-.22,2.74-1.12,6.04-1.08,8.59,.49-.83,.87-1.83,1.62-2.98,1.99,.86-.6,1.58-1.34,2.17-2.14l.09,.51c-2.36-.86-5.17-.81-7.55-.05,0,0,.2-.64,.2-.64,.83,1.3,2.31,1.96,3.76,2.43h0Z"/><path d="M34.56,55.7l1.73-.87s2.17,.31,5.16,1.13c-1.91-1.78-5.03-2.56-5.03-2.56l-1.86,.83-1.86-.83s-3.12,.78-5.03,2.56c2.99-.82,5.16-1.13,5.16-1.13l1.73,.87Z"/><path d="M39.04,56.57c-.29,.5-.62,.97-.96,1.42l-.2-.02c-2.14-.23-4.46-.23-6.6,0,0,0-.2,.02-.2,.02-.34-.45-.67-.92-.96-1.42,.46,.28,.89,.59,1.3,.92l-.27-.08c1.1-.4,2.26-.62,3.43-.62,1.17,0,2.33,.23,3.43,.62l-.27,.08c.41-.33,.84-.64,1.3-.92h0Z"/><path d="M38.58,60.57c-1.12-.99-2.63-.99-4.04-1.01-1.41,.02-2.92,.02-4.04,1.01,1.12-2.39,6.96-2.39,8.08,0h0Z"/><path class="cls-7" d="M17.25,62.21s-4.02,8.89,9.4,14.62"/><path class="cls-7" d="M51.59,62.21s4.02,8.89-9.4,14.62"/><path class="cls-1" d="M21.86,58.72c.47,.96,.8,1.95,1.11,2.95-3.89,1.74-7.88,3-12.13,3.63,3.35-1.76,7.62-2.85,11.4-4.01,0,0-.05,.08-.05,.08l-.43-2.62,.1-.02h0Z"/></g><g id="Frame"><path class="cls-5" d="M62.56,4.88C54.4,1.94,45.12,.2,35.25,.02c-.57-.01-1.15-.02-1.72-.02C23.88,0,14.77,1.52,6.72,4.21,2.49,14.22,0,26.6,0,40s2.39,25.22,6.45,35.11c8.16,2.94,17.45,4.69,27.32,4.87,.58,.01,1.15,.02,1.73,.02,9.63,0,18.73-1.51,26.78-4.2,4.24-10.01,6.74-22.39,6.74-35.8s-2.4-25.24-6.46-35.12Zm-4.04,66.86c-7.2,2.16-14.94,3.26-23.02,3.26-.49,0-.98-.01-1.47-.02h-.17c-8.18-.15-16.29-1.47-23.6-3.85-3.45-9.22-5.26-19.93-5.26-31.13s1.89-22.38,5.48-31.73c6.73-2.01,14.13-3.13,21.6-3.26,.48-.01,.97-.01,1.45-.01,.54,0,1.08,.01,1.63,.02,8.16,.15,16.27,1.47,23.59,3.84,3.46,9.24,5.27,19.95,5.27,31.14s-1.89,22.39-5.5,31.74Z"/><path class="cls-13" d="M17.21,2.06h0c1.63,.63,2.06,2.75,.81,3.97l-1.26,1.22s8.35-2.37,18.84-1.69h0c-1-1.49-.45-3.52,1.14-4.34l1-.51S28.26-.43,17.21,2.06Z"/><path class="cls-15" d="M21.81,1.66s.7,2.18-.22,3.1c3.77-.41,7.98-.74,11.12-.74-.33-1.33,1.26-3.4,1.26-3.4,0,0-6.17-.26-12.16,1.03Z"/><path class="cls-13" d="M36.25,79.21h0c-1.52-.87-1.62-3.03-.2-4.04l1.43-1.02s-8.61,1.07-18.88-1.19h0c.76,1.63-.09,3.55-1.79,4.11l-1.07,.36s9.19,2.56,20.5,1.78Z"/><path class="cls-15" d="M19.28,77.8s1.76-1.83,1.3-3.09c4.43,.69,9.11,1.14,12.25,1.14-.33,1.33,.44,3.4,.44,3.4,0,0-8-.16-13.99-1.45Z"/><polygon points="47.48 1.77 47.48 6.73 54.49 8.44 54.49 2.62 47.48 1.77"/><line class="cls-7" x1="45.5" y1="1.23" x2="45.5" y2="6.29"/><line class="cls-7" x1="56.47" y1="3.67" x2="56.47" y2="8.73"/><polygon points="47.48 78.74 47.48 73.78 54.49 72.07 54.49 77.88 47.48 78.74"/><line class="cls-7" x1="45.5" y1="79.28" x2="45.5" y2="74.21"/><line class="cls-7" x1="56.47" y1="76.84" x2="56.47" y2="71.77"/><path d="M33.53,1c.56,0,1.14,0,1.7,.02,9.39,.17,18.33,1.74,26.57,4.65,4.07,10.08,6.22,21.94,6.22,34.33s-2.24,24.79-6.49,34.99c-8.12,2.66-16.87,4.01-26.03,4.01-.56,0-1.12,0-1.71-.02-9.25-.17-18.42-1.78-26.58-4.66C3.15,64.25,1,52.39,1,40S3.23,15.21,7.47,5.02C15.6,2.35,24.37,1,33.53,1m0-1C23.88,0,14.77,1.52,6.72,4.21,2.49,14.22,0,26.6,0,40s2.39,25.22,6.45,35.11c8.16,2.94,17.45,4.69,27.32,4.87,.58,.01,1.15,.02,1.73,.02,9.63,0,18.73-1.51,26.78-4.2,4.24-10.01,6.74-22.39,6.74-35.8s-2.4-25.24-6.46-35.12C54.4,1.94,45.12,.2,35.25,.02c-.57,0-1.15-.02-1.72-.02h0Z"/><path class="cls-13" d="M33.53,6c.52,0,1.04,0,1.61,.02,7.87,.14,15.75,1.4,22.84,3.64,3.3,9,5.04,19.47,5.04,30.34s-1.82,21.82-5.26,30.92c-6.98,2.04-14.47,3.08-22.26,3.08-.48,0-.97,0-1.47-.02h-.15c-7.89-.14-15.78-1.41-22.85-3.65-3.29-8.99-5.03-19.46-5.03-30.33s1.81-21.79,5.24-30.91c6.5-1.89,13.7-2.95,20.86-3.08,.47,0,.96,0,1.43,0m0-1c-.48,0-.97,0-1.45,.01-7.47,.13-14.87,1.25-21.6,3.26-3.59,9.35-5.48,20.26-5.48,31.73s1.81,21.91,5.26,31.13c7.31,2.38,15.42,3.7,23.6,3.85h.17c.49,.01,.98,.02,1.47,.02,8.08,0,15.82-1.1,23.02-3.26,3.61-9.35,5.5-20.27,5.5-31.74s-1.81-21.9-5.27-31.14c-7.32-2.37-15.43-3.69-23.59-3.84-.55,0-1.09-.02-1.63-.02h0Z"/><path d="M33.53,5c.54,0,1.08,.01,1.63,.02,8.16,.15,16.27,1.47,23.59,3.84,3.46,9.24,5.27,19.95,5.27,31.14s-1.89,22.39-5.5,31.74c-7.2,2.16-14.94,3.26-23.02,3.26-.49,0-.98-.01-1.47-.02h-.17c-8.18-.15-16.29-1.47-23.6-3.85-3.45-9.22-5.26-19.93-5.26-31.13s1.89-22.38,5.48-31.73c6.73-2.01,14.13-3.13,21.6-3.26,.48-.01,.97-.01,1.45-.01m0-1c-.49,0-.98,0-1.47,.01-7.51,.13-15.07,1.27-21.87,3.3l-.47,.14-.18,.46c-3.63,9.45-5.55,20.55-5.55,32.09s1.84,22.17,5.32,31.48l.17,.45,.46,.15c7.37,2.4,15.63,3.75,23.89,3.9h.19c.48,.01,.97,.02,1.47,.02,8.16,0,16-1.11,23.31-3.3l.47-.14,.18-.46c3.64-9.43,5.57-20.53,5.57-32.1s-1.84-22.17-5.33-31.49l-.17-.45-.46-.15c-7.39-2.39-15.65-3.74-23.88-3.89-.58-.01-1.12-.02-1.65-.02h0Z"/><path class="cls-9" d="M8.14,7.1s-12.66,32.94,0,66.06"/><path class="cls-9" d="M60.88,7.58s12.66,32.94,0,66.06"/></g></svg>