<svg id="Capa_2" xmlns="http://www.w3.org/2000/svg" xmlns:xlink="http://www.w3.org/1999/xlink" viewBox="0 0 69.02 80">
<defs >
<style >
.cls-1{fill:#c89aed;}.cls-2{fill:#fff;}.cls-3{fill:#f8ffbf;}.cls-4{fill:#7b7be8;}.cls-5{fill:#a88347;}.cls-6{stroke:#c89aed;stroke-width:1.2px;}.cls-6,.cls-7,.cls-8,.cls-9,.cls-10,.cls-11,.cls-12{fill:none;}.cls-6,.cls-7,.cls-11,.cls-12{stroke-miterlimit:10;}.cls-13{fill:#782ab5;}.cls-7,.cls-11,.cls-12{stroke:#000;}.cls-8{stroke:#deb778;stroke-dasharray:0 0 0 4.06;stroke-linecap:round;stroke-linejoin:round;}.cls-14{fill:#deb778;}.cls-15{fill:url(#USGS_19_Inundación_de_tierra_2);}.cls-10{stroke:#1d1d1b;stroke-dasharray:0 0 2 2;stroke-width:.3px;}.cls-16{fill:#fcf0c5;}.cls-11{stroke-width:.5px;}.cls-12{stroke-width:.52px;}
</style>
<pattern id="USGS_19_Inundación_de_tierra_2" x="0" y="0" width="72" height="72" patternTransform="translate(267.52 -16351) rotate(-90)" patternUnits="userSpaceOnUse" viewBox="0 0 72 72">
<g >
<rect class="cls-9" width="72" height="72">
</rect>
<g >
<line class="cls-10" x1="71" y1="71" x2="144.44" y2="71">
</line>
<line class="cls-10" x1="71" y1="67" x2="144.44" y2="67">
</line>
<line class="cls-10" x1="71" y1="63" x2="144.44" y2="63">
</line>
<line class="cls-10" x1="71" y1="59" x2="144.44" y2="59">
</line>
<line class="cls-10" x1="71" y1="55" x2="144.44" y2="55">
</line>
<line class="cls-10" x1="71" y1="51" x2="144.44" y2="51">
</line>
<line class="cls-10" x1="71" y1="47" x2="144.44" y2="47">
</line>
<line class="cls-10" x1="71" y1="43" x2="144.44" y2="43">
</line>
<line class="cls-10" x1="71" y1="39" x2="144.44" y2="39">
</line>
<line class="cls-10" x1="71" y1="35" x2="144.44" y2="35">
</line>
<line class="cls-10" x1="71" y1="31" x2="144.44" y2="31">
</line>
<line class="cls-10" x1="71" y1="27" x2="144.44" y2="27">
</line>
<line class="cls-10" x1="71" y1="23" x2="144.44" y2="23">
</line>
<line class="cls-10" x1="71" y1="19" x2="144.44" y2="19">
</line>
<line class="cls-10" x1="71" y1="15" x2="144.44" y2="15">
</line>
<line class="cls-10" x1="71" y1="11" x2="144.44" y2="11">
</line>
<line class="cls-10" x1="71" y1="7" x2="144.44" y2="7">
</line>
<line class="cls-10" x1="71" y1="3" x2="144.44" y2="3">
</line>
</g>
<g >
<line class="cls-10" x1="-1" y1="71" x2="72.44" y2="71">
</line>
<line class="cls-10" x1="-1" y1="67" x2="72.44" y2="67">
</line>
<line class="cls-10" x1="-1" y1="63" x2="72.44" y2="63">
</line>
<line class="cls-10" x1="-1" y1="59" x2="72.44" y2="59">
</line>
<line class="cls-10" x1="-1" y1="55" x2="72.44" y2="55">
</line>
<line class="cls-10" x1="-1" y1="51" x2="72.44" y2="51">
</line>
<line class="cls-10" x1="-1" y1="47" x2="72.44" y2="47">
</line>
<line class="cls-10" x1="-1" y1="43" x2="72.44" y2="43">
</line>
<line class="cls-10" x1="-1" y1="39" x2="72.44" y2="39">
</line>
<line class="cls-10" x1="-1" y1="35" x2="72.44" y2="35">
</line>
<line class="cls-10" x1="-1" y1="31" x2="72.44" y2="31">
</line>
<line class="cls-10" x1="-1" y1="27" x2="72.44" y2="27">
</line>
<line class="cls-10" x1="-1" y1="23" x2="72.44" y2="23">
</line>
<line class="cls-10" x1="-1" y1="19" x2="72.44" y2="19">
</line>
<line class="cls-10" x1="-1" y1="15" x2="72.44" y2="15">
</line>
<line class="cls-10" x1="-1" y1="11" x2="72.44" y2="11">
</line>
<line class="cls-10" x1="-1" y1="7" x2="72.44" y2="7">
</line>
<line class="cls-10" x1="-1" y1="3" x2="72.44" y2="3">
</line>
<line class="cls-10" x1="1.04" y1="69" x2="74.48" y2="69">
</line>
<line class="cls-10" x1="1.04" y1="65" x2="74.48" y2="65">
</line>
<line class="cls-10" x1="1.04" y1="61" x2="74.48" y2="61">
</line>
<line class="cls-10" x1="1.04" y1="57" x2="74.48" y2="57">
</line>
<line class="cls-10" x1="1.04" y1="53" x2="74.48" y2="53">
</line>
<line class="cls-10" x1="1.04" y1="49" x2="74.48" y2="49">
</line>
<line class="cls-10" x1="1.04" y1="45" x2="74.48" y2="45">
</line>
<line class="cls-10" x1="1.04" y1="41" x2="74.48" y2="41">
</line>
<line class="cls-10" x1="1.04" y1="37" x2="74.48" y2="37">
</line>
<line class="cls-10" x1="1.04" y1="33" x2="74.48" y2="33">
</line>
<line class="cls-10" x1="1.04" y1="29" x2="74.48" y2="29">
</line>
<line class="cls-10" x1="1.04" y1="25" x2="74.48" y2="25">
</line>
<line class="cls-10" x1="1.04" y1="21" x2="74.48" y2="21">
</line>
<line class="cls-10" x1="1.04" y1="17" x2="74.48" y2="17">
</line>
<line class="cls-10" x1="1.04" y1="13" x2="74.48" y2="13">
</line>
<line class="cls-10" x1="1.04" y1="9" x2="74.48" y2="9">
</line>
<line class="cls-10" x1="1.04" y1="5" x2="74.48" y2="5">
</line>
<line class="cls-10" x1="1.04" y1="1" x2="74.48" y2="1">
</line>
</g>
<g >
<line class="cls-10" x1="-73" y1="71" x2=".44" y2="71">
</line>
<line class="cls-10" x1="-73" y1="67" x2=".44" y2="67">
</line>
<line class="cls-10" x1="-73" y1="63" x2=".44" y2="63">
</line>
<line class="cls-10" x1="-73" y1="59" x2=".44" y2="59">
</line>
<line class="cls-10" x1="-73" y1="55" x2=".44" y2="55">
</line>
<line class="cls-10" x1="-73" y1="51" x2=".44" y2="51">
</line>
<line class="cls-10" x1="-73" y1="47" x2=".44" y2="47">
</line>
<line class="cls-10" x1="-73" y1="43" x2=".44" y2="43">
</line>
<line class="cls-10" x1="-73" y1="39" x2=".44" y2="39">
</line>
<line class="cls-10" x1="-73" y1="35" x2=".44" y2="35">
</line>
<line class="cls-10" x1="-73" y1="31" x2=".44" y2="31">
</line>
<line class="cls-10" x1="-73" y1="27" x2=".44" y2="27">
</line>
<line class="cls-10" x1="-73" y1="23" x2=".44" y2="23">
</line>
<line class="cls-10" x1="-73" y1="19" x2=".44" y2="19">
</line>
<line class="cls-10" x1="-73" y1="15" x2=".44" y2="15">
</line>
<line class="cls-10" x1="-73" y1="11" x2=".44" y2="11">
</line>
<line class="cls-10" x1="-73" y1="7" x2=".44" y2="7">
</line>
<line class="cls-10" x1="-73" y1="3" x2=".44" y2="3">
</line>
<line class="cls-10" x1="-70.96" y1="69" x2="2.48" y2="69">
</line>
<line class="cls-10" x1="-70.96" y1="65" x2="2.48" y2="65">
</line>
<line class="cls-10" x1="-70.96" y1="61" x2="2.48" y2="61">
</line>
<line class="cls-10" x1="-70.96" y1="57" x2="2.48" y2="57">
</line>
<line class="cls-10" x1="-70.96" y1="53" x2="2.48" y2="53">
</line>
<line class="cls-10" x1="-70.96" y1="49" x2="2.48" y2="49">
</line>
<line class="cls-10" x1="-70.96" y1="45" x2="2.48" y2="45">
</line>
<line class="cls-10" x1="-70.96" y1="41" x2="2.48" y2="41">
</line>
<line class="cls-10" x1="-70.96" y1="37" x2="2.48" y2="37">
</line>
<line class="cls-10" x1="-70.96" y1="33" x2="2.48" y2="33">
</line>
<line class="cls-10" x1="-70.96" y1="29" x2="2.48" y2="29">
</line>
<line class="cls-10" x1="-70.96" y1="25" x2="2.48" y2="25">
</line>
<line class="cls-10" x1="-70.96" y1="21" x2="2.48" y2="21">
</line>
<line class="cls-10" x1="-70.96" y1="17" x2="2.48" y2="17">
</line>
<line class="cls-10" x1="-70.96" y1="13" x2="2.48" y2="13">
</line>
<line class="cls-10" x1="-70.96" y1="9" x2="2.48" y2="9">
</line>
<line class="cls-10" x1="-70.96" y1="5" x2="2.48" y2="5">
</line>
<line class="cls-10" x1="-70.96" y1="1" x2="2.48" y2="1">
</line>
</g>
</g>
</pattern>
</defs>

<g id="Capa_9">
<g >
<g >
<path class="cls-1" d="M6.18,60.95s6.16-11.17,8.38-20.37c-1.19-6.97-1.48-8.75-1.48-8.75l3.12,1.93,2.52-15.43s3.86-7.27,16.32-6.97c9.2,.45,14.24,6.38,14.24,6.38l2.82,16.02,2.37-2.23s.59,3.86-.74,7.42c1.63,8.6,6.68,19.73,9.05,23.44-1.48,8.75-3.71,10.98-3.71,10.98,0,0-19.14,5.19-29.07,2.97s-20.92-4.6-20.92-4.6l-2.89-10.78Z">
</path>
<path d="M19.04,20.15s-4.67,23.92-8.87,32.8c-2.38,5.86-3.56,7.45-3.56,7.45l1.11,2.69s8.79-3.8,11.01-3.56c.87-10.3,1.43-23.05,1.11-25.11s-.79-14.26-.79-14.26Z">
</path>
<path class="cls-4" d="M32.07,40.03s-6.06-1.15-7.8-1.15c-2.11,.52-3.07,.89-3.55,1.29,.85,2.25,2.25,6.13,4.43,6.5s5.85-3.98,5.85-3.98l1.06-2.67Z">
</path>
<path class="cls-2" d="M33.62,75.07V10.99s10.26,.83,15.65,6.75c-1.8,10.97-1.13,27.76-1.13,27.76,0,0,1.65,12.92,.93,15.85s-6.53,14.12-6.53,14.12l-8.93-.4Z">
</path>
<path class="cls-4" d="M36.16,40.03s6.06-1.15,7.8-1.15c2.11,.52,3.07,.89,3.55,1.29-.85,2.25-2.25,6.13-4.43,6.5s-5.85-3.98-5.85-3.98l-1.06-2.67Z">
</path>
<path class="cls-4" d="M19.49,50.25l4.88,9.77,.58-5.03,3.13-5.39s1.97,.15,2.77,1.17,2.33,1.53,3.86,1.39,2.41-2.19,3.43-2.26l2.04-.15s2.84,4.37,3.13,5.69,.51,4.3,.51,4.3l4.59-9.11s1.31,7.22,.87,9.4-1.75,7.8-4.08,11.08c-2.48,3.64-3.5,4.74-3.5,4.74l-17.06-1.17s-2.99-4.96-3.79-6.93-2.62-6.56-2.19-8.89c.51-3.94,.8-8.6,.8-8.6Z">
</path>
<path d="M34.05,52.12v24.87l-8.54-1.67s-3.68-5.78-4.94-8.71-1.85-7.08-1.85-7.08l.84-9.35,4.94,9.49,.46-4.67,3.13-5.39s1.85,.02,2.69,.69,3.27,1.84,3.27,1.84Z">
</path>
<path class="cls-3" d="M31.02,42.7s-2.01-.73-3.67-.93-4.43,.07-4.43,.07c0,0,2.53,1.52,4.64,1.66s3.46-.8,3.46-.8Z">
</path>
<path class="cls-3" d="M36.76,42.7s2.01-.73,3.67-.93,4.43,.07,4.43,.07c0,0-2.53,1.52-4.64,1.66s-3.46-.8-3.46-.8Z">
</path>
<path class="cls-4" d="M29.57,29.53V11.65s-6.06,2.16-9.25,4.93c.62,5.44,.82,15,.82,15,0,0,4.42-1.44,8.42-2.05Z">
</path>
<path class="cls-4" d="M19.75,40.67s-1.66-4.75-2.93-5.78c-1.74-1.66-3.74-3.06-3.74-3.06,0,0,.65,4.25,1.12,6.23s.32,5.78,.79,6.97,2.46,3.41,4.2,4.12c.95-5.7,.55-8.48,.55-8.48Z">
</path>
<path class="cls-1" d="M29.24,58s2.02-1.6,3.38-1.6c1.92,.03,3.57,0,3.57,0,0,0,2.49,1.17,2.86,1.64-1.74,.61-2.11,.84-2.11,.84l-5.54-.05-2.16-.84Z">
</path>
<path class="cls-2" d="M49.6,60.88s8.28,1.87,11.23,4.43c-2.32,6.42-3.15,8.97-3.15,8.97l-15.96,1.55s6.3-8.35,7.88-14.95Z">
</path>
<path class="cls-6" d="M32.46,29.98s7.73-.81,15.18,2.3c-.13,7.89,.54,17.53,.54,17.53,0,0-3.45,8.04-4.12,8.78-.14-3.8-.35-4.17-1.32-5.83-.83-1.42-2.26-3.3-2.26-3.3,0,0-2.21-.43-3.16,.45s-2.76,2.43-3.98,1.75">
</path>
<path class="cls-2" d="M39.05,58.05h-9.79s2.15-1.35,3.06-1.6,3.87,0,3.87,0c0,0,2.46,1.14,2.86,1.6Z">
</path>
<path d="M18.63,60.72s-6.5,1.3-10.47,4.03c1.49,6.13,2.91,8.67,2.91,8.67l14.99,1.11-7.43-13.81Z">
</path>
<path class="cls-2" d="M22.77,46.3s1.52,2.28,4.56,.46c-2.84,3.55-3.85,2.63-4.56-.46Z">
</path>
<path class="cls-7" d="M14.48,39.86c-3.94,14.91-8.26,21.33-8.26,21.33">
</path>
<path class="cls-7" d="M52.1,33.82c-1.01-4.63-1.96-9.9-2.75-15.88,0,0-5.41-6.42-14.7-6.77h-1.27c-9.29,.36-14.7,6.77-14.7,6.77-.8,6.08-1.77,11.43-2.8,16.12">
</path>
<path class="cls-7" d="M61.82,61.19s-4.37-6.34-8.35-21.64">
</path>
<path class="cls-7" d="M18.68,17.94s1.52,12.61,1.04,25.22-1.85,16.63-.16,21.13,3.78,8.59,7.55,12.61">
</path>
<path class="cls-7" d="M49.24,17.94s-1.52,12.61-1.04,25.22c.48,12.61,1.85,16.63,.16,21.13s-3.78,8.59-7.55,12.61">
</path>
<path class="cls-7" d="M19.75,40.34c-.97-1.13-1.54-4.15-3.22-5.73s-3.28-3.28-3.28-3.28c0,0-.36,3.38,.56,5.78s.82,5.02,1.23,7.12,2.35,4.66,4.3,4.91">
</path>
<path d="M15.1,35.74c1.46,.91,1.75,2.79,2.19,4.27,.5,1.36,1.29,3,2.5,3.74,0,0-.51,.86-.51,.86-.82-.59-1.24-1.34-1.63-2.09-1.3-2.14-.56-5.07-2.55-6.78h0Z">
</path>
<path d="M17.83,45.53c-.58-.97-.85-2.21-.25-3.3l.8,.6c-.7,.63-.77,1.79-.55,2.71h0Z">
</path>
<path class="cls-7" d="M48.12,40.34c.97-1.13,1.54-4.15,3.22-5.73s3.28-3.28,3.28-3.28c0,0,.36,3.38-.56,5.78s-.82,5.02-1.23,7.12-2.35,4.66-4.3,4.91">
</path>
<path d="M52.77,35.74c-1.99,1.71-1.24,4.64-2.55,6.78-.39,.75-.81,1.51-1.63,2.09l-.51-.86c1.22-.75,2.01-2.38,2.5-3.74,.44-1.48,.73-3.37,2.19-4.27h0Z">
</path>
<path d="M50.04,45.53c.22-.92,.15-2.08-.55-2.71,0,0,.8-.6,.8-.6,.6,1.09,.33,2.33-.25,3.3h0Z">
</path>
<path class="cls-11" d="M19.87,32.14s5.74-2.57,14.11-2.57,14.04,2.49,14.04,2.49">
</path>
<path class="cls-11" d="M19.41,49.48s3.12,7.3,4.99,10.35">
</path>
<path d="M28.21,49.88c-1.5,2.19-3.08,4.52-3.19,7.25-.08,.81-.25,2.45-.34,3.26-.05,.54-.12,1.09-.41,1.61-.33-.96-.01-2.31,.02-3.29,0,0,.13-1.64,.13-1.64,.05-2.84,1.72-5.33,3.4-7.49,0,0,.39,.31,.39,.31h0Z">
</path>
<path class="cls-11" d="M48.84,49.48s-3.12,7.3-4.99,10.35">
</path>
<path d="M40.42,49.57c1.68,2.16,3.35,4.66,3.4,7.49,.06,.81,.2,2.46,.26,3.28,.18,1.97-.34,2.04-.53,.05-.08-.81-.25-2.45-.34-3.26-.11-2.73-1.69-5.06-3.19-7.25,0,0,.39-.31,.39-.31h0Z">
</path>
<path class="cls-11" d="M34.74,58.84h2.27c.44-.27,2.16-.82,2.16-.82,0,0-2.16-1.59-3.27-1.59h-1.35s-.72,0-.72,0h-1.35c-1.11,0-3.27,1.59-3.27,1.59,0,0,1.72,.56,2.16,.82h3.39Z">
</path>
<path d="M21.63,46.48c.39,2.02,1.38,3.52,2.87,4.73,.41,1.08,.75,2.17,.95,3.33l-.49,.08c-.25-1.08-.62-2.16-.98-3.22l.1,.13c-1.56-1.17-2.49-3.13-2.44-5.06h0Z">
</path>
<path d="M46.58,46.48c.06,1.93-.88,3.89-2.44,5.06,0,0,.1-.13,.1-.13-.37,1.06-.73,2.15-.98,3.22l-.49-.08c.2-1.16,.54-2.25,.95-3.33,1.49-1.22,2.48-2.71,2.87-4.73h0Z">
</path>
<path d="M37.89,45.77c.76,.68,1.62,1.14,2.37,1.83,.91,1.04,.61,2.57-.96,2.65-.42,.02-.9,.02-1.26,.23-.7,.46-1.49,1.37-2.29,1.84-1.23,.73-2.93,.5-3.95-.47-.48-.38-1.22-1.09-1.64-1.37-.66-.37-1.45-.07-2.12-.49-1.2-.69-.45-2.43,.52-2.89,.61-.41,1.18-.87,1.75-1.34-.54,.76-1.42,1.46-1.98,2.13-.48,.71-.42,1.62,.62,1.57,.24,0,.52-.03,.76,0,1.12,.1,1.87,1.05,2.67,1.61,.78,.73,1.96,.89,2.9,.38,.86-.53,1.41-1.2,2.37-1.76,.5-.26,1.07-.27,1.61-.23,1.04,.04,1.1-.87,.62-1.58-.56-.67-1.44-1.36-1.99-2.12h0Z">
</path>
<path d="M20.67,40.3c-.09,.07,1.68-2.26,3.45-2.78,3.03-.06,8.3,.97,8.3,.97,0,0-.03,1.52-.9,2.39-4-.84-8.46-2.29-10.85-.58Z">
</path>
<path d="M22.81,41.87c2.85-.68,6.06-.65,8.68,.84,0,0-.29,.24-.29,.24-1.8,1.28-5.43,5.65-7.51,2.86,.95,1.41,2.83,.68,3.87-.23,1.16-.92,2.16-2.03,3.32-3.01l.05,.41c-2.61-.94-5.37-1-8.13-1.11h0Z">
</path>
<path d="M24.83,42.72c.76,.22,1.5,.48,2.27,.59,1.26,.03,2.5-.48,3.73-.78,0,0,.16,.47,.16,.47-1.26,.44-2.61,.95-3.98,.77-.79-.2-1.52-.58-2.18-1.06h0Z">
</path>
<path d="M47.6,40.3c.09,.07-1.68-2.26-3.45-2.78-3.03-.06-8.3,.97-8.3,.97,0,0,.03,1.52,.9,2.39,4-.84,8.46-2.29,10.85-.58Z">
</path>
<path d="M45.46,41.87c-2.76,.23-5.53,.01-8.13,1.11,0,0,.05-.42,.05-.42,1.18,.94,2.23,2.02,3.38,2.93,1.07,.89,2.75,1.56,3.81,.32-.75,1.65-3.01,.96-4.09,.06-1.35-.98-2.47-2.14-3.73-3.17,2.65-1.3,5.86-1.62,8.7-.82h0Z">
</path>
<path d="M43.44,42.72c-.65,.48-1.39,.85-2.18,1.06-1.37,.18-2.73-.33-3.98-.77,0,0,.16-.47,.16-.47,1.23,.3,2.47,.81,3.73,.78,.77-.11,1.51-.37,2.27-.59h0Z">
</path>
<path d="M25.42,34.81c5.63,1.16,11.45,1.26,17.1,.13-5.49,1.8-11.63,1.69-17.1-.13h0Z">
</path>
<path d="M28.54,33.08c3.61,.61,7.24,.67,10.85,.09-3.45,1.27-7.42,1.2-10.85-.09h0Z">
</path>
<path d="M30.9,31.54c2.08,.2,4.07,.23,6.14,.05-1.91,.87-4.24,.82-6.14-.05h0Z">
</path>
<path class="cls-7" d="M8.26,63.03s4.54-2.46,10.35-3.5">
</path>
<path class="cls-7" d="M59.92,63.03s-4.54-2.46-10.35-3.5">
</path>
<path class="cls-12" d="M14.72,60.46s-1.15,5.6,2.14,12.43">
</path>
<path class="cls-12" d="M53.56,60.46s1.15,5.6-2.14,12.43">
</path>
</g>
<path class="cls-4" d="M19.55,55.17c-.02,3.45,.2,7.09,1.67,10.22,1.57,3.04,3.86,5.82,6.16,8.37,0,0-.7,.71-.7,.71-5.69-5.54-8.75-11.22-7.12-19.3h0Z">
</path>
</g>
</g>
 <g
     id="g2850">
    <g
       id="g2837">
      <path
         id="path1951"
         d="M 0.056640625 0.04296875 L 0.056640625 79.943359 L 69.308594 79.943359 L 69.308594 0.04296875 L 0.056640625 0.04296875 z M 33.615234 3.5957031 C 34.206332 3.5957038 34.786991 3.6051034 35.421875 3.6152344 C 44.430653 3.7671809 53.471255 5.1336733 61.560547 7.5546875 L 62.064453 7.7070312 L 62.25 8.1640625 C 66.070247 17.605006 66.990234 28.726438 66.990234 40.0625 C 66.990234 51.398562 65.972723 63.025755 61.988281 72.578125 L 61.791016 73.044922 L 61.275391 73.185547 C 53.273669 75.403966 44.691921 76.529297 35.759766 76.529297 C 35.212453 76.529297 34.675812 76.519896 34.150391 76.509766 L 33.943359 76.509766 C 24.901742 76.357819 15.860367 74.989738 7.7929688 72.558594 L 7.2890625 72.40625 L 7.1035156 71.951172 C 3.2942144 62.520359 2.375 51.369168 2.375 40.0625 C 2.375 28.755832 3.3819737 17.127318 7.3554688 7.5546875 L 7.5527344 7.0898438 L 8.0664062 6.9472656 C 15.509867 4.890923 23.785212 3.7371557 32.005859 3.6054688 C 32.542226 3.5953387 33.078867 3.5957031 33.615234 3.5957031 z "
         style="opacity:1;vector-effect:none;fill:#ffffff;fill-opacity:1;fill-rule:nonzero;stroke:none;stroke-width:1.95200002;stroke-linecap:butt;stroke-linejoin:miter;stroke-miterlimit:4;stroke-dasharray:none;stroke-dashoffset:0;stroke-opacity:1" />
    </g>
    <path
       id="path1154-8-2"
       d="m 33.675163,6.6112954 c 0.557696,0 1.115392,0.00956 1.683415,0.019115 8.427403,0.14336 16.803167,1.4049288 24.363042,3.6700176 3.573384,8.830981 4.443772,19.417362 4.443772,29.761551 0,10.344189 -0.95301,21.39888 -4.68131,30.334991 -7.435942,2.064385 -15.429581,3.274388 -23.774362,3.274388 -0.506058,0 -1.012115,-0.0096 -1.518172,-0.01911 h -0.17557 C 25.56792,73.508883 17.192156,72.088619 9.6426089,69.813973 6.0795528,61.002107 5.2088244,50.415411 5.2088244,40.061979 c 0,-10.353432 0.95335,-21.389323 4.6609939,-30.325434 C 16.820359,7.8155201 24.462856,6.7450981 32.177647,6.6208528 c 0.49573,-0.00956 1.001787,-0.00956 1.497516,-0.00956 m 0,-0.9557337 c -0.506057,0 -1.012114,0 -1.518171,0.00956 C 24.40089,5.7893644 16.593149,6.8789009 9.570315,8.8190405 L 9.0849131,8.9528432 8.8990146,9.3924808 C 5.1500599,18.424166 4.1999116,29.394246 4.1999116,40.061979 c 0,10.667733 0.8675267,21.188618 4.461566,30.0865 l 0.1755708,0.430081 0.4750741,0.14336 c 7.6115135,2.293761 16.1421925,3.584001 24.6728715,3.727361 h 0.196227 c 0.495729,0.0096 1.001786,0.01911 1.518171,0.01911 8.427403,0 16.524318,-1.060864 24.073866,-3.153921 l 0.485403,-0.133802 0.185898,-0.439639 c 3.759282,-9.01257 4.719759,-19.983589 4.719759,-30.679055 0,-10.695466 -0.867528,-21.188618 -4.471894,-30.0960578 L 60.516853,9.5358409 60.041779,9.3924808 C 52.409609,7.108277 43.87893,5.8180364 35.379234,5.6746763 34.780227,5.6651187 34.232859,5.6555621 33.675163,5.6555615 Z"
       style="fill:#ff0000;stroke:#ffffff;stroke-width:1.84341729;stroke-miterlimit:4;stroke-dasharray:none" />
    <path
       id="path1154"
       d="m 33.614853,4.6077955 c 0.591098,0 1.182197,0.01013 1.784241,0.02026 8.932155,0.1519464 17.809578,1.4890758 25.822246,3.8898304 3.787408,9.3599041 4.709928,20.5803481 4.709928,31.5440931 0,10.963745 -1.01009,22.680548 -4.961693,32.151879 -7.881312,2.18803 -16.353723,3.302304 -25.198307,3.302304 -0.536368,0 -1.072735,-0.01013 -1.609102,-0.02026 H 33.97608 C 25.022033,75.343956 16.14461,74.006827 8.1428892,71.595943 4.3664269,62.256298 3.443547,51.035521 3.443547,40.061979 c 0,-10.973542 1.01045,-22.670418 4.9401601,-32.1417498 7.3668369,-2.036083 15.4670749,-3.170617 23.6439369,-3.3023039 0.525421,-0.01013 1.061788,-0.01013 1.587209,-0.01013 m 0,-1.0129766 c -0.536367,0 -1.072734,0 -1.609101,0.01013 C 23.785105,3.7366356 15.509726,4.891429 8.0662653,6.9477716 L 7.5517907,7.0895883 7.3547579,7.5555576 C 3.3812628,17.128188 2.3742062,28.755311 2.3742062,40.061979 c 0,11.306668 0.9194864,22.457692 4.7287876,31.888505 l 0.1860865,0.45584 0.5035283,0.151947 c 8.0673984,2.431144 17.1090154,3.798662 26.1506324,3.950608 h 0.207979 c 0.525421,0.01013 1.061788,0.02026 1.609101,0.02026 8.932155,0 17.514028,-1.124404 25.51575,-3.342823 l 0.514475,-0.141816 0.197032,-0.46597 c 3.984442,-9.55237 5.002445,-21.180489 5.002445,-32.516551 0,-11.336062 -0.919487,-22.457692 -4.739734,-31.8986353 L 62.064202,7.7075041 61.560674,7.5555576 C 53.471382,5.1345434 44.429765,3.7670249 35.420987,3.6150784 c -0.634884,-0.01013 -1.215036,-0.020259 -1.806134,-0.02026 z"
       style="fill:#000000;stroke:#000000;stroke-width:1.95382714;stroke-miterlimit:4;stroke-dasharray:none" />
    <g
       id="g1810">
      <path
         d="M 6.5134911,7.7433673 C 5.6489029,6.8479453 4.058602,6.5681013 3.6272194,7.3820013 3.284151,8.0292783 3.3625296,8.5309135 4.395235,8.9201755 3.2963719,9.5187755 1.4857674,9.4447465 1.1893447,7.4467713 0.95320848,5.8551433 2.674739,4.8863543 3.1399725,5.0916244 3.0034432,3.6818714 1.8221094,4.0692802 0.95849208,3.2813384 0.34259068,2.7194046 0.23126071,-0.02624603 0.0561761,0.04378767 -0.0138576,0.21887227 2.7317937,0.33020157 3.2937267,0.94610377 4.0816685,1.8097211 3.6942598,2.9910547 5.1040128,3.1275841 4.8987425,2.6623507 5.8675315,0.94082017 7.4591593,1.1769564 9.4571345,1.4733791 9.5311625,3.2839847 8.9325635,4.3828467 8.5433008,3.3501417 8.041666,3.2717627 7.3943894,3.6148312 6.5804899,4.0462137 6.8603354,5.6365129 7.7557553,6.5011023"
         style="fill:#000000;stroke:#000000;stroke-width:0.1112323px;stroke-linecap:butt;stroke-linejoin:miter;stroke-opacity:1"
         id="path1737-3" />
      <path
         d="m 62.850738,7.7433673 c 0.864588,-0.895422 2.454889,-1.175266 2.886271,-0.361366 0.343069,0.647277 0.26469,1.148912 -0.768015,1.538174 1.098863,0.5986 2.909467,0.524571 3.20589,-1.473404 0.236136,-1.591628 -1.485394,-2.560417 -1.950628,-2.3551469 0.13653,-1.409753 1.317863,-1.0223442 2.181481,-1.810286 0.615901,-0.5619338 0.727231,-3.30758442 0.902316,-3.23755072 0.07003,0.1750846 -2.675618,0.2864139 -3.237551,0.9023161 C 65.28256,1.8097211 65.669969,2.9910547 64.260216,3.1275841 64.465486,2.6623507 63.496697,0.94082018 61.905069,1.1769564 c -1.997975,0.2964227 -2.072003,2.1070283 -1.473404,3.2058903 0.389263,-1.032705 0.890898,-1.111084 1.538174,-0.7680155 0.8139,0.4313825 0.534054,2.0216817 -0.361366,2.8862711"
         style="fill:#000000;stroke:#000000;stroke-width:0.1112323px;stroke-linecap:butt;stroke-linejoin:miter;stroke-opacity:1"
         id="path1737-3-5" />
      <path
         d="m 62.850738,72.244244 c 0.864588,0.895422 2.454889,1.175266 2.886272,0.361366 0.343068,-0.647277 0.264689,-1.148912 -0.768016,-1.538174 1.098863,-0.5986 2.909468,-0.524571 3.20589,1.473404 0.236137,1.591628 -1.485394,2.560417 -1.950628,2.355147 0.13653,1.409753 1.317864,1.022344 2.181481,1.810286 0.615901,0.561934 0.727231,3.307584 0.902316,3.237551 0.07003,-0.175085 -2.675618,-0.286414 -3.237551,-0.902317 -0.787942,-0.863617 -0.400533,-2.04495 -1.810286,-2.18148 0.20527,0.465234 -0.763519,2.186764 -2.355146,1.950628 -1.997976,-0.296423 -2.072004,-2.107028 -1.473405,-3.20589 0.389263,1.032705 0.890898,1.111084 1.538175,0.768015 0.813899,-0.431382 0.534054,-2.021682 -0.361366,-2.886271"
         style="fill:#000000;stroke:#000000;stroke-width:0.1112323px;stroke-linecap:butt;stroke-linejoin:miter;stroke-opacity:1"
         id="path1737-3-7" />
      <path
         d="M 6.513491,72.244245 C 5.648903,73.139667 4.058602,73.419511 3.62722,72.605611 3.284151,71.958334 3.36253,71.456699 4.395235,71.067437 c -1.098863,-0.5986 -2.909467,-0.524571 -3.20589,1.473404 -0.23613599,1.591628 1.485394,2.560417 1.950628,2.355147 -0.13653,1.409753 -1.317863,1.022344 -2.18148099,1.810286 -0.615901,0.561933 -0.727231,3.307584 -0.902316,3.23755 C -0.01385399,79.76874 2.731794,79.65741 3.293727,79.041508 4.081669,78.177891 3.69426,76.996557 5.104013,76.860028 4.898743,77.325261 5.867532,79.046792 7.45916,78.810656 9.457135,78.514233 9.531163,76.703627 8.932564,75.604765 8.543301,76.63747 8.041666,76.715849 7.39439,76.372781 6.58049,75.941398 6.860336,74.351099 7.755756,73.48651"
         style="fill:#000000;stroke:#000000;stroke-width:0.1112323px;stroke-linecap:butt;stroke-linejoin:miter;stroke-opacity:1"
         id="path1737-3-5-5" />
    </g>
    <path
       id="path1154-9"
       d="m 33.712865,7.4258691 c 0.536813,0 1.07363,0.00933 1.620386,0.01865 8.111875,0.1398689 16.174044,1.3707167 23.450873,3.5806479 3.439594,8.615932 4.277395,18.944521 4.277395,29.036812 0,10.092292 -0.917329,20.877786 -4.506039,29.596289 -7.157536,2.014114 -14.851888,3.03982 -22.884234,3.03982 -0.487111,0 -0.974221,-0.0094 -1.461331,-0.01865 H 34.040918 C 25.909161,72.53957 17.846991,71.308722 10.580105,69.089467 7.1504515,60.492184 6.3123238,50.163289 6.3123238,40.061979 c 0,-10.101311 0.9176558,-20.868461 4.4864832,-29.586965 6.690308,-1.8742449 14.046665,-2.9186005 21.472608,-3.0398203 0.47717,-0.00933 0.964281,-0.00933 1.44145,-0.00933 m 0,-0.9324602 c -0.487111,0 -0.974221,0 -1.46133,0.00933 C 24.785826,6.6239532 17.270413,7.686958 10.510517,9.5798526 L 10.043289,9.710397 9.8643508,10.139328 c -3.6085914,8.811751 -4.5231655,19.514693 -4.5231655,29.922651 0,10.407958 0.8350459,20.672644 4.294522,29.353849 l 0.1689973,0.419608 0.4572874,0.13987 c 7.326533,2.237904 15.537818,3.496724 23.749103,3.636593 h 0.188879 c 0.47717,0.0094 0.96428,0.01865 1.461331,0.01865 8.111875,0 15.905636,-1.035031 23.172525,-3.077119 l 0.467228,-0.130544 0.178938,-0.428932 c 3.618533,-8.793101 4.543048,-19.496959 4.543048,-29.931975 0,-10.435016 -0.835047,-20.672644 -4.304463,-29.363174 l -0.168997,-0.419609 -0.457288,-0.13987 C 51.74588,7.9107484 43.534594,6.6519271 35.353133,6.512058 34.776554,6.502738 34.249678,6.493409 33.712865,6.493409 Z"
       style="fill:#000000;stroke:none;stroke-width:1.78642213;stroke-miterlimit:4;stroke-dasharray:none" />
    <path
       id="path1154-9-3"
       d="m 33.712865,7.4258686 c 0.536813,0 1.07363,0.00933 1.620386,0.01865 8.111875,0.1398689 16.174044,1.3707167 23.450873,3.5806484 3.439594,8.615932 4.277395,18.944521 4.277395,29.036812 0,10.092292 -0.917329,20.877786 -4.506039,29.596288 -7.157536,2.014114 -14.851888,3.03982 -22.884234,3.03982 -0.487111,0 -0.974221,-0.0094 -1.461331,-0.01865 H 34.040918 C 25.909161,72.539569 17.846991,71.308722 10.580105,69.089466 7.1504515,60.492184 6.3123238,50.163288 6.3123238,40.061979 c 0,-10.101312 0.9176558,-20.868461 4.4864832,-29.586965 6.690308,-1.8742454 14.046665,-2.918601 21.472608,-3.0398208 0.47717,-0.00933 0.964281,-0.00933 1.44145,-0.00933 m 0,-0.9324602 c -0.487111,0 -0.974221,0 -1.46133,0.00933 C 24.785826,6.6239527 17.270413,7.6869575 10.510517,9.5798521 L 10.043289,9.7103965 9.8643508,10.139328 C 6.2557594,18.951079 5.3411853,29.65402 5.3411853,40.061979 c 0,10.407958 0.8350459,20.672643 4.294522,29.353849 l 0.1689973,0.419608 0.4572874,0.13987 c 7.326533,2.237904 15.537818,3.496724 23.749103,3.636593 h 0.188879 c 0.47717,0.0094 0.96428,0.01865 1.461331,0.01865 8.111875,0 15.905636,-1.035032 23.172525,-3.077119 l 0.467228,-0.130544 0.178938,-0.428932 c 3.618533,-8.793101 4.543048,-19.49696 4.543048,-29.931975 0,-10.435016 -0.835047,-20.672644 -4.304463,-29.363175 l -0.168997,-0.419609 -0.457288,-0.13987 C 51.74588,7.9107479 43.534594,6.6519266 35.353133,6.5120575 34.776554,6.5027375 34.249678,6.4934085 33.712865,6.4934085 Z"
       style="fill:#000000;stroke:none;stroke-width:1.78642213;stroke-miterlimit:4;stroke-dasharray:none" />
  </g>
</svg>
