<svg id="Capa_2" xmlns="http://www.w3.org/2000/svg" xmlns:xlink="http://www.w3.org/1999/xlink" viewBox="0 0 69.02 80">
<defs >
<style >
.cls-1{fill:#c89aed;}.cls-2{fill:#fff;}.cls-3{fill:#f8ffbf;}.cls-4{fill:#7b7be8;}.cls-5,.cls-6,.cls-7{stroke:#000;}.cls-5,.cls-6,.cls-7,.cls-8,.cls-9,.cls-10,.cls-11{fill:none;}.cls-5,.cls-8{stroke-linejoin:round;}.cls-12{fill:#a88347;}.cls-13{fill:#782ab5;}.cls-6,.cls-7,.cls-9{stroke-miterlimit:10;}.cls-14{fill:#1c46ff;}.cls-7{stroke-width:.75px;}.cls-8{stroke:#deb778;stroke-dasharray:0 0 0 4.06;stroke-linecap:round;}.cls-9{stroke:#c89aed;}.cls-15{fill:#deb778;}.cls-16{fill:url(#USGS_19_Inundación_de_tierra_2);}.cls-11{stroke:#1d1d1b;stroke-dasharray:0 0 2 2;stroke-width:.3px;}.cls-17{fill:#fcf0c5;}
</style>
<pattern id="USGS_19_Inundación_de_tierra_2" x="0" y="0" width="72" height="72" patternTransform="translate(339.52 -16423) rotate(-90)" patternUnits="userSpaceOnUse" viewBox="0 0 72 72">
<g >
<rect class="cls-10" width="72" height="72">
</rect>
<g >
<line class="cls-11" x1="71" y1="71" x2="144.44" y2="71">
</line>
<line class="cls-11" x1="71" y1="67" x2="144.44" y2="67">
</line>
<line class="cls-11" x1="71" y1="63" x2="144.44" y2="63">
</line>
<line class="cls-11" x1="71" y1="59" x2="144.44" y2="59">
</line>
<line class="cls-11" x1="71" y1="55" x2="144.44" y2="55">
</line>
<line class="cls-11" x1="71" y1="51" x2="144.44" y2="51">
</line>
<line class="cls-11" x1="71" y1="47" x2="144.44" y2="47">
</line>
<line class="cls-11" x1="71" y1="43" x2="144.44" y2="43">
</line>
<line class="cls-11" x1="71" y1="39" x2="144.44" y2="39">
</line>
<line class="cls-11" x1="71" y1="35" x2="144.44" y2="35">
</line>
<line class="cls-11" x1="71" y1="31" x2="144.44" y2="31">
</line>
<line class="cls-11" x1="71" y1="27" x2="144.44" y2="27">
</line>
<line class="cls-11" x1="71" y1="23" x2="144.44" y2="23">
</line>
<line class="cls-11" x1="71" y1="19" x2="144.44" y2="19">
</line>
<line class="cls-11" x1="71" y1="15" x2="144.44" y2="15">
</line>
<line class="cls-11" x1="71" y1="11" x2="144.44" y2="11">
</line>
<line class="cls-11" x1="71" y1="7" x2="144.44" y2="7">
</line>
<line class="cls-11" x1="71" y1="3" x2="144.44" y2="3">
</line>
</g>
<g >
<line class="cls-11" x1="-1" y1="71" x2="72.44" y2="71">
</line>
<line class="cls-11" x1="-1" y1="67" x2="72.44" y2="67">
</line>
<line class="cls-11" x1="-1" y1="63" x2="72.44" y2="63">
</line>
<line class="cls-11" x1="-1" y1="59" x2="72.44" y2="59">
</line>
<line class="cls-11" x1="-1" y1="55" x2="72.44" y2="55">
</line>
<line class="cls-11" x1="-1" y1="51" x2="72.44" y2="51">
</line>
<line class="cls-11" x1="-1" y1="47" x2="72.44" y2="47">
</line>
<line class="cls-11" x1="-1" y1="43" x2="72.44" y2="43">
</line>
<line class="cls-11" x1="-1" y1="39" x2="72.44" y2="39">
</line>
<line class="cls-11" x1="-1" y1="35" x2="72.44" y2="35">
</line>
<line class="cls-11" x1="-1" y1="31" x2="72.44" y2="31">
</line>
<line class="cls-11" x1="-1" y1="27" x2="72.44" y2="27">
</line>
<line class="cls-11" x1="-1" y1="23" x2="72.44" y2="23">
</line>
<line class="cls-11" x1="-1" y1="19" x2="72.44" y2="19">
</line>
<line class="cls-11" x1="-1" y1="15" x2="72.44" y2="15">
</line>
<line class="cls-11" x1="-1" y1="11" x2="72.44" y2="11">
</line>
<line class="cls-11" x1="-1" y1="7" x2="72.44" y2="7">
</line>
<line class="cls-11" x1="-1" y1="3" x2="72.44" y2="3">
</line>
<line class="cls-11" x1="1.04" y1="69" x2="74.48" y2="69">
</line>
<line class="cls-11" x1="1.04" y1="65" x2="74.48" y2="65">
</line>
<line class="cls-11" x1="1.04" y1="61" x2="74.48" y2="61">
</line>
<line class="cls-11" x1="1.04" y1="57" x2="74.48" y2="57">
</line>
<line class="cls-11" x1="1.04" y1="53" x2="74.48" y2="53">
</line>
<line class="cls-11" x1="1.04" y1="49" x2="74.48" y2="49">
</line>
<line class="cls-11" x1="1.04" y1="45" x2="74.48" y2="45">
</line>
<line class="cls-11" x1="1.04" y1="41" x2="74.48" y2="41">
</line>
<line class="cls-11" x1="1.04" y1="37" x2="74.48" y2="37">
</line>
<line class="cls-11" x1="1.04" y1="33" x2="74.48" y2="33">
</line>
<line class="cls-11" x1="1.04" y1="29" x2="74.48" y2="29">
</line>
<line class="cls-11" x1="1.04" y1="25" x2="74.48" y2="25">
</line>
<line class="cls-11" x1="1.04" y1="21" x2="74.48" y2="21">
</line>
<line class="cls-11" x1="1.04" y1="17" x2="74.48" y2="17">
</line>
<line class="cls-11" x1="1.04" y1="13" x2="74.48" y2="13">
</line>
<line class="cls-11" x1="1.04" y1="9" x2="74.48" y2="9">
</line>
<line class="cls-11" x1="1.04" y1="5" x2="74.48" y2="5">
</line>
<line class="cls-11" x1="1.04" y1="1" x2="74.48" y2="1">
</line>
</g>
<g >
<line class="cls-11" x1="-73" y1="71" x2=".44" y2="71">
</line>
<line class="cls-11" x1="-73" y1="67" x2=".44" y2="67">
</line>
<line class="cls-11" x1="-73" y1="63" x2=".44" y2="63">
</line>
<line class="cls-11" x1="-73" y1="59" x2=".44" y2="59">
</line>
<line class="cls-11" x1="-73" y1="55" x2=".44" y2="55">
</line>
<line class="cls-11" x1="-73" y1="51" x2=".44" y2="51">
</line>
<line class="cls-11" x1="-73" y1="47" x2=".44" y2="47">
</line>
<line class="cls-11" x1="-73" y1="43" x2=".44" y2="43">
</line>
<line class="cls-11" x1="-73" y1="39" x2=".44" y2="39">
</line>
<line class="cls-11" x1="-73" y1="35" x2=".44" y2="35">
</line>
<line class="cls-11" x1="-73" y1="31" x2=".44" y2="31">
</line>
<line class="cls-11" x1="-73" y1="27" x2=".44" y2="27">
</line>
<line class="cls-11" x1="-73" y1="23" x2=".44" y2="23">
</line>
<line class="cls-11" x1="-73" y1="19" x2=".44" y2="19">
</line>
<line class="cls-11" x1="-73" y1="15" x2=".44" y2="15">
</line>
<line class="cls-11" x1="-73" y1="11" x2=".44" y2="11">
</line>
<line class="cls-11" x1="-73" y1="7" x2=".44" y2="7">
</line>
<line class="cls-11" x1="-73" y1="3" x2=".44" y2="3">
</line>
<line class="cls-11" x1="-70.96" y1="69" x2="2.48" y2="69">
</line>
<line class="cls-11" x1="-70.96" y1="65" x2="2.48" y2="65">
</line>
<line class="cls-11" x1="-70.96" y1="61" x2="2.48" y2="61">
</line>
<line class="cls-11" x1="-70.96" y1="57" x2="2.48" y2="57">
</line>
<line class="cls-11" x1="-70.96" y1="53" x2="2.48" y2="53">
</line>
<line class="cls-11" x1="-70.96" y1="49" x2="2.48" y2="49">
</line>
<line class="cls-11" x1="-70.96" y1="45" x2="2.48" y2="45">
</line>
<line class="cls-11" x1="-70.96" y1="41" x2="2.48" y2="41">
</line>
<line class="cls-11" x1="-70.96" y1="37" x2="2.48" y2="37">
</line>
<line class="cls-11" x1="-70.96" y1="33" x2="2.48" y2="33">
</line>
<line class="cls-11" x1="-70.96" y1="29" x2="2.48" y2="29">
</line>
<line class="cls-11" x1="-70.96" y1="25" x2="2.48" y2="25">
</line>
<line class="cls-11" x1="-70.96" y1="21" x2="2.48" y2="21">
</line>
<line class="cls-11" x1="-70.96" y1="17" x2="2.48" y2="17">
</line>
<line class="cls-11" x1="-70.96" y1="13" x2="2.48" y2="13">
</line>
<line class="cls-11" x1="-70.96" y1="9" x2="2.48" y2="9">
</line>
<line class="cls-11" x1="-70.96" y1="5" x2="2.48" y2="5">
</line>
<line class="cls-11" x1="-70.96" y1="1" x2="2.48" y2="1">
</line>
</g>
</g>
</pattern>
</defs>
  <path
     style="opacity:1;vector-effect:none;fill:#cccccc;fill-opacity:1;fill-rule:nonzero;stroke:none;stroke-width:4.49546146;stroke-linecap:butt;stroke-linejoin:miter;stroke-miterlimit:4;stroke-dasharray:none;stroke-dashoffset:0;stroke-opacity:1"
     d="M -0.08007812,0.36132812 V 80.361328 H 68.919922 V 0.36132812 Z"
     id="rect4304"/>

<g id="Capa_9">
<g >
<g >
<path class="cls-1" d="M61.37,64.05l-1.36,9.47-23.36,3.85-27.46-4.01-1.76-7.79,16.93-6.34,.41-3.37s-.57-.73-2.01-6.83c-4.5-2.08-7.79-9.95-7.23-14.85,.97,.08,5.3,3.05,5.3,3.05,0,0-.16-.88-.72-3.53,0,0-.01,0-.02-.01-1.54-1.06-5.6-4.33-5.6-6.09s5.86-8.83,12.52-13.89c6.67-5.06,9.48-3.85,9.48-3.85,5.46-.16,20.63,14.53,20.55,17.74-.08,3.13-5.38,5.86-5.38,5.86,0,0-.48,.56-.24,2.49,1.44-1.04,4.17-1.53,4.17-1.53,0,0-.16,2.49-.64,5.94-.48,3.46-3.29,8.19-6.74,8.99-.16,1.29-1.53,6.35-1.53,6.35l.48,3.77,14.21,4.58Z">
</path>
<path class="cls-14" d="M57.04,27.6c-.08,3.13-5.38,5.86-5.38,5.86l-2.39-.24s-3.21,3.01-13.5,2.91c-10.3-.09-14.09-3.3-14.09-3.3l-1.57,.87s-.01,0-.02-.01c-1.54-1.06-5.6-4.33-5.6-6.09s5.86-8.83,12.52-13.89c6.67-5.06,9.48-3.85,9.48-3.85,5.46-.16,20.63,14.53,20.55,17.74Z">
</path>
<path d="M48.17,31.44s-13.41,7.38-26.56,.93c2.38-1.78,16.46-5.52,26.56-.93Z">
</path>
<path d="M45.69,30.93s-4.73-4.68-20.42-2.6c-4.26,1.6-5.33,3.02-5.33,3.02l.18,1.6s14.73-4.38,25.56-2.01Z">
</path>
<path d="M47.7,28.63s-2.9-5.74-18.94-4.73c-5.03,1.01-9.23,3.79-9.23,3.79l.41,3.08s9.88-7.57,27.75-2.13Z">
</path>
<path class="cls-14" d="M21.49,26.3s-.81,3.22-.05,4.88c-1.28,1.42-1.47,1.47-1.47,1.47l-.44-4.98,1.96-1.38Z">
</path>
<path class="cls-12" d="M35.53,21.21c-.92-.43-2.27-1.11-3.44-1.9-.64-.73-.86-3.57-.94-5.17,.53,.22,1.19,.31,1.73-.14,1.11-.9,1.53-1.56,2.47-1.56h.42c.93,0,1.35,.66,2.46,1.56,.53,.42,1.15,.37,1.66,.18-.07,1.6-.29,4.41-.93,5.14-1.17,.78-2.52,1.47-3.44,1.9Z">
</path>
<path class="cls-15" d="M35.73,12.76c-.16-.02,0,8.46,0,8.46l2.41-1.42s-.26-4.21-.1-5.7c-.82-.82-1.39-1.23-2.31-1.33Z">
</path>
<path class="cls-17" d="M36.44,12.99s.12,6.96-.2,7.63c1.1-.63,1.45-.83,1.45-.83,0,0-.63-3.89-.39-6.17-.16-.75-.86-.63-.86-.63Z">
</path>
<path class="cls-14" d="M24.26,59.73l-16.48,5.87,1.55,8.35,28.95,4.12,21.95-5.25,.41-8.65-13.47-4.69s2.14,10.89-4.76,15.71c-11.95,2.06-14.63-1.13-14.63-1.13,0,0-5.15-4.02-3.5-14.32Z">
</path>
<path class="cls-17" d="M24.49,60.93s1.41,6.74,7.52,8.62,12.54-.94,15.28-8.38c1.1,6.42-1.33,11.6-4.47,14.18-8.15,2.82-15.04-1.02-15.04-1.02,0,0-5.17-7.29-3.29-13.4Z">
</path>
<path class="cls-2" d="M35.83,36.67v27.4s4.37-.17,7.02-2.56c3.47-5.28,4.7-8.17,4.79-8.58s.66-4.13,.66-4.13l1.82-12.71s-.74-2.31-2.15-2.06c-4.62,1.82-9.99,2.64-12.13,2.64Z">
</path>
<path d="M43.17,62l-15.42,13.44-18.01-3.07-.89-7.84,15.5-5.3,.53-2.48,3.75,5.12s4.71,2.73,7.16,2.59c2.73-.14,7.37-2.46,7.37-2.46Z">
</path>
<path d="M22.44,40.07s-3.88-6.07-6.78-5.65c-.07,6.36,3.11,12.22,4.87,13.63s2.68,1.41,2.68,1.41l-.78-9.39Z">
</path>
<path class="cls-2" d="M26.11,46.43c.12,.04,2.03,1.27,3.3,1.83,2.11-1.03,2.9-2.3,2.9-2.3,0,0-1.03,3.42-4.05,5.32-3.34-1.75-2.15-4.85-2.15-4.85Z">
</path>
<path class="cls-4" d="M45.7,43.81l.52-3.61s-3.97-.79-4.13-.87-4.57,1.59-4.57,1.59c0,0,.79,2.46,1.87,3.5,1.27,1.07,3.06,.72,3.06,.72l3.26-1.31Z">
</path>
<path class="cls-4" d="M25.83,43.81l-.52-3.61s3.97-.79,4.13-.87,4.57,1.59,4.57,1.59c0,0-.79,2.46-1.87,3.5-1.27,1.07-3.06,.72-3.06,.72l-3.26-1.31Z">
</path>
<path class="cls-3" d="M32.72,43.72s-2.85-1-3.72-1.03c-2.16,.6-2.79,1.09-2.79,1.09,0,0,1.82,1.15,2.87,1.34,2.31-.08,3.27-.91,3.63-1.4Z">
</path>
<path class="cls-3" d="M38.78,43.72s2.85-1,3.72-1.03c2.16,.6,2.79,1.09,2.79,1.09,0,0-1.82,1.15-2.87,1.34-2.31-.08-3.27-.91-3.63-1.4Z">
</path>
<path d="M25.51,15.34s-3.38,6.95,3.83,8.19c-8.11,1.34-9.81,4.15-9.81,4.15l.28,4.14s-5.34-3.47-3.92-6.59c4.1-4.99,9.62-9.89,9.62-9.89Z">
</path>
<path d="M23.31,42.77s-1.28-5.82-1.07-6.73,1.22-1.73,1.22-1.73l-1.94-1.84s-1.22,.26-1.53,.82-.36,2.35-.36,2.35c0,0,2.65,4.03,3.67,7.14Z">
</path>
<path d="M47.95,42.77s1.28-5.82,1.07-6.73-1.22-1.73-1.22-1.73l1.94-1.84s1.22,.26,1.53,.82,.36,2.35,.36,2.35c0,0-2.65,4.03-3.67,7.14Z">
</path>
<path class="cls-6" d="M21.41,32.42s3.74,3.86,14.04,3.86,13.9-2.85,14.44-3.86">
</path>
<path d="M51.55,32.79c.56,.84,.71,1.84,.59,2.82,0,0-.06,.09-.06,.09-1.63,2.7-2.88,5.64-3.45,8.72-.37,3.18-.88,7.13-4.2,8.61-.03,.02,.23-.24,.23-.24-.7,1.18-1.36,2.39-1.91,3.66,.23-1.37,.59-2.73,1-4.07,.05-.2,.06-.14,.23-.25,3.04-1.38,3.27-4.98,3.67-7.9,.59-3.23,1.9-6.28,3.57-9.05l-.07,.2c.08-.67-.04-1.43-.41-2,0,0,.8-.6,.8-.6h0Z">
</path>
<path class="cls-6" d="M49.29,40.23s-.73,12.07-3.17,16.37c-2.37,4.16-3.3,5.03-3.3,5.03,0,0-3.96,2.55-6.79,2.55h-.79c-2.84,0-6.79-2.55-6.79-2.55,0,0-.92-.87-3.3-5.03-2.44-4.29-3.17-16.37-3.17-16.37">
</path>
<path class="cls-9" d="M43.75,52.38c-.41,1.34-.77,2.69-1,4.07,.52-1.22,1.15-2.37,1.81-3.49,1.74-.83,2.68-2.34,3.24-4.06-.48,2.89-1.17,5.79-2.11,7.45-2.2,3.86-3.14,4.85-3.14,4.86-.12,.09-3.89,2.47-6.52,2.47h-.79c-2.63,0-6.43-2.41-6.44-2.41-.01,0-.25-.24-.77-.97-.51-.74-1.31-1.96-2.44-3.95-1-1.75-1.71-4.89-2.19-7.94,.53,1.91,1.48,3.64,3.38,4.55,.66,1.12,1.3,2.27,1.82,3.49-.23-1.38-.6-2.73-1-4.07l-.04-.14-.2-.11c-3.03-1.37-3.26-4.97-3.67-7.9-.15-.82-.35-1.63-.58-2.42-.36-1.7-1.02-5.09-.87-5.77,.18-.79,.95-1.5,1.17-1.69,2.18,1.12,6,2.43,12.05,2.43,6.38,0,10.34-1.09,12.59-2.25,.31,.3,.83,.88,.98,1.51,.2,.92-1.08,6.73-1.08,6.73,.03-.09,.07-.18,.1-.27-.15,.57-.29,1.15-.4,1.73-.4,2.93-.63,6.53-3.67,7.9-.18,.11-.19,.05-.23,.25Z">
</path>
<path d="M23.31,42.77s-1.28-5.82-1.07-6.73,1.22-1.73,1.22-1.73l-1.94-1.84s-1.22,.26-1.53,.82-.36,2.35-.36,2.35c0,0,2.65,4.03,3.67,7.14Z">
</path>
<path d="M47.95,42.77s1.28-5.82,1.07-6.73-1.22-1.73-1.22-1.73l1.94-1.84s1.22,.26,1.53,.82,.36,2.35,.36,2.35c0,0-2.65,4.03-3.67,7.14Z">
</path>
<path class="cls-6" d="M35.53,21.21c-.92-.43-2.27-1.11-3.44-1.9-.64-.73-.86-3.57-.94-5.17,.53,.22,1.19,.31,1.73-.14,1.11-.9,1.53-1.56,2.47-1.56h.42c.93,0,1.35,.66,2.46,1.56,.53,.42,1.15,.37,1.66,.18-.07,1.6-.29,4.41-.93,5.14-1.17,.78-2.52,1.47-3.44,1.9Z">
</path>
<path class="cls-6" d="M51.53,33.36s6.84-3.57,5.09-6.92-14.06-16.64-20.59-16.64h-.64c-6.54,0-18.85,13.3-20.59,16.64s5.09,6.92,5.09,6.92">
</path>
<path class="cls-6" d="M21.22,38.45c.05-.19-1.98-3.46-5.59-4.2,.56,10.68,4.13,13.32,7.49,14.97">
</path>
<path class="cls-6" d="M49.98,38.45c-.05-.19,1.98-3.46,5.59-4.2-.56,10.68-4.13,13.32-7.49,14.97">
</path>
<path class="cls-6" d="M51.43,33.32l.39-5.55s-3.57-4.57-15.4-4.57h-1.34c-11.83,0-15.4,4.57-15.4,4.57l.39,5.55s4.07-4.13,15.53-4.13,15.82,4.13,15.82,4.13Z">
</path>
<path class="cls-7" d="M19.92,31.11c.94-.95,5-4.32,15.17-4.32h1.34c10.12,0,14.2,3.35,15.16,4.31">
</path>
<path class="cls-6" d="M21.41,32.42s3.74,3.86,14.04,3.86,13.9-2.85,14.44-3.86">
</path>
<path d="M20.59,33.39c-.36,.56-.49,1.32-.41,2,0,0-.07-.2-.07-.2,1.67,2.77,2.98,5.83,3.57,9.05,.4,2.92,.63,6.53,3.67,7.9,0,0,.19,.1,.19,.1l.04,.14c.41,1.34,.77,2.7,1,4.07-.55-1.27-1.22-2.48-1.91-3.66l.23,.24c-3.33-1.48-3.84-5.43-4.21-8.61-.54-3.17-1.96-6.12-3.51-8.92-.1-.94,.06-1.9,.6-2.71,0,0,.8,.6,.8,.6h0Z">
</path>
<path d="M51.55,32.79c.56,.84,.71,1.84,.59,2.82,0,0-.06,.09-.06,.09-1.63,2.7-2.88,5.64-3.45,8.72-.37,3.18-.88,7.13-4.2,8.61-.03,.02,.23-.24,.23-.24-.7,1.18-1.36,2.39-1.91,3.66,.23-1.37,.59-2.73,1-4.07,.05-.2,.06-.14,.23-.25,3.04-1.38,3.27-4.98,3.67-7.9,.59-3.23,1.9-6.28,3.57-9.05l-.07,.2c.08-.67-.04-1.43-.41-2,0,0,.8-.6,.8-.6h0Z">
</path>
<path class="cls-6" d="M49.29,40.23s-.73,12.07-3.17,16.37c-2.37,4.16-3.3,5.03-3.3,5.03,0,0-3.96,2.55-6.79,2.55h-.79c-2.84,0-6.79-2.55-6.79-2.55,0,0-.92-.87-3.3-5.03-2.44-4.29-3.17-16.37-3.17-16.37">
</path>
<path d="M37.26,45.05c.92,2,1.97,4.06,3.59,5.55-.29,.47-.65,1.01-.84,1.52,0,0-.16,.65-.16,.65-.33-.26-1.21-.95-1.55-1.22,0,0,.42,.09,.42,.09-1.12,.36-2.21,1.03-2.98,1.93-.46-.5-.96-.96-1.57-1.3-.44-.26-.95-.47-1.42-.63l.42-.09-1.01,.79-.54,.42-.16-.65c-.19-.51-.55-1.05-.84-1.52,1.63-1.49,2.68-3.55,3.6-5.55-.5,2.13-1.36,4.19-2.82,5.89,0,0,.04-.5,.04-.5,.35,.47,.66,.88,.87,1.45,0,0-.7-.22-.7-.22,.13-.12,1.05-.9,1.15-.99,0,0,.24,.06,.24,.06,1.18,.34,2.22,.9,3.1,1.77,0,0-.72,0-.72,0,.88-.86,1.92-1.42,3.09-1.77,0,0,.24-.07,.24-.07,.11,.09,1.02,.88,1.15,.99l-.7,.22c.21-.57,.52-.98,.87-1.45,0,0,.04,.49,.04,.49-1.46-1.69-2.31-3.75-2.82-5.88h0Z">
</path>
<path d="M34.21,39.15s0,1.53-.5,2.52c-2.85-1.57-5.04-1.86-5.04-1.86l-3.39,.41s2.89-1.78,4.42-1.86c2.6,.21,4.5,.78,4.5,.78Z">
</path>
<path d="M37.26,39.15s0,1.53,.5,2.52c2.85-1.57,5.04-1.86,5.04-1.86l3.39,.41s-2.89-1.78-4.42-1.86c-2.6,.21-4.5,.78-4.5,.78Z">
</path>
<path d="M32.62,43.69c-1.02-.4-2.63-.83-3.44-.85-.94,.33-2.09,.71-2.94,1.17,0,0-.03-.53-.03-.53,.9,.58,1.9,1.11,2.93,1.35h-.14c.98-.17,2.03-.37,2.91-.82,.16-.11,.39-.07,.49,.1,.07,.11,.06,.25-.01,.36-.79,1.1-1.57,2.16-2.72,2.93-1-.07-1.92-.86-2.55-1.57,.73,.61,1.59,1.06,2.48,1.21l-.15,.03c.97-.76,1.67-1.93,2.36-2.96,0,0,.48,.46,.48,.46-1.03,.58-2.17,.86-3.32,.99-1.17-.3-2.2-.84-3.16-1.53-.46-.35,.16-.68,.43-.78,.91-.38,1.88-.62,2.84-.86,1.3,.09,2.45,.68,3.55,1.3h0Z">
</path>
<path d="M38.8,43.69c1.1-.62,2.26-1.21,3.55-1.3,.95,.25,1.92,.48,2.84,.86,.26,.09,.89,.42,.43,.78-.99,.69-2.08,1.33-3.3,1.53-1.1-.21-2.18-.4-3.17-.99,0,0,.48-.46,.48-.46,.69,1.03,1.39,2.2,2.36,2.96,0,0-.15-.03-.15-.03,.9-.15,1.76-.6,2.48-1.21-.62,.71-1.55,1.5-2.54,1.57-1.15-.77-1.93-1.83-2.72-2.93-.1-.15-.06-.36,.09-.46,.12-.08,.27-.07,.39,0,.88,.44,1.93,.65,2.91,.81,0,0-.14,0-.14,0,1.02-.24,2.03-.77,2.93-1.35l-.03,.53c-.85-.46-2.01-.84-2.94-1.17-.81,.02-2.42,.44-3.44,.85h0Z">
</path>
<path d="M29.53,57.61c.8-.28,1.5-.71,2.06-1.25,.09-.09,.23-.1,.34-.05,2.65,1.08,5.19,.9,7.87,.1,.1-.04,.21-.03,.29,.04,.54,.46,1.12,.91,1.85,1.12-.77,.07-1.54-.23-2.21-.63l.29,.04c-2.59,1.36-5.82,1.52-8.34-.06,0,0,.34-.05,.34-.05-.75,.5-1.62,.77-2.47,.74h0Z">
</path>
<path d="M40.18,58.72c-1.41,2-7.48,2.01-8.89,0,1.42,.62,2.93,.43,4.45,.47,1.51-.03,3.03,.15,4.45-.47h0Z">
</path>
<polyline class="cls-5" points="24.74 55.59 24.48 59.3 6.92 65.56">
</polyline>
<polyline class="cls-5" points="46.78 55.09 47.1 59.3 64.65 65.56">
</polyline>
<path class="cls-5" d="M40.35,69.36s2.04,3.25,1.82,5.89c7.43-4.51,4.9-16.3,4.9-16.3,0,0-.17,10.79-10.63,10.79h-1.31c-10.46,0-10.63-10.79-10.63-10.79,0,0-2.53,11.78,4.9,16.3-.22-2.64,1.82-5.89,1.82-5.89">
</path>
<path d="M37.18,76.89l3.98-4.72-1.16-2.9s-1.7,.46-3.98,.54h-.66c-2.28-.08-3.98-.54-3.98-.54l-1.16,2.9,3.98,4.72">
</path>
</g>
<path class="cls-14" d="M25.37,57.76c.02,.17,.23,2.57,.24,2.64l-.39,.15-17.15,6.45-.33-.94,17.23-6.22-.13,.16,.43-2.25h.1Z">
</path>
<path class="cls-14" d="M16.16,35.19c1.32,3.37,2.2,6.77,3.88,9.95,.56,1.01,1.19,1.97,1.98,2.99l-.06,.09c-3.95-2.72-5.82-8.63-5.79-13.04h0Z">
</path>
</g>
</g>

  <path
     style="opacity:1;vector-effect:none;fill:#8d5fd3;fill-opacity:1;fill-rule:nonzero;stroke:none;stroke-width:2.35769176;stroke-linecap:butt;stroke-linejoin:miter;stroke-miterlimit:4;stroke-dasharray:none;stroke-dashoffset:0;stroke-opacity:0.44186048"
     d="M 0,1.2e-7 V 80 H 69 V 1.2e-7 Z M 35.240234,4.658203 c 6.067554,0.1120422 16.269844,1.4698438 23.589844,3.8398438 3.46,9.2400002 5.269531,19.9506252 5.269531,31.1406252 0,11.47 -1.89,22.390234 -5.5,31.740234 -7.2,2.16 -14.940375,3.376539 -23.019531,3.259766 -8.580486,-0.124019 -18.036001,-1.572896 -25.240234,-3.86914 -3.4500003,-9.22 -5.2597659,-19.930859 -5.2597659,-31.130859 0,-11.2 1.8904687,-22.380469 5.4804689,-31.730469 C 17.682894,5.1336941 29.17268,4.5461608 35.240234,4.658203 Z"
     id="rect4304" />


</svg>
