<?xml version="1.0" encoding="UTF-8"?><svg id="Capa_2" xmlns="http://www.w3.org/2000/svg" xmlns:xlink="http://www.w3.org/1999/xlink" viewBox="0 0 69.02 80"><defs><style>.cls-1{fill:#c89aed;}.cls-2{fill:#fff;}.cls-3{fill:#f8ffbf;}.cls-4{fill:#7b7be8;}.cls-5{fill:#a88347;}.cls-6{fill:#782ab5;}.cls-7,.cls-8{stroke:#000;}.cls-7,.cls-8,.cls-9,.cls-10,.cls-11,.cls-12{fill:none;}.cls-7,.cls-8,.cls-12{stroke-miterlimit:10;}.cls-13{fill:#1c46ff;}.cls-8{stroke-width:.75px;}.cls-9{stroke:#deb778;stroke-dasharray:0 0 0 4.06;stroke-linecap:round;stroke-linejoin:round;}.cls-14{fill:#deb778;}.cls-15{fill:url(#USGS_19_Inundación_de_tierra_2);}.cls-11{stroke:#1d1d1b;stroke-dasharray:0 0 2 2;stroke-width:.3px;}.cls-16{fill:#cf5f2b;}.cls-12{stroke:#c89aed;stroke-width:1.3px;}.cls-17{fill:#fcf0c5;}.cls-18{fill:#b83521;}</style><pattern id="USGS_19_Inundación_de_tierra_2" x="0" y="0" width="72" height="72" patternTransform="translate(195.52 -16423) rotate(-90)" patternUnits="userSpaceOnUse" viewBox="0 0 72 72"><g><rect class="cls-10" width="72" height="72"/><g><line class="cls-11" x1="71" y1="71" x2="144.44" y2="71"/><line class="cls-11" x1="71" y1="67" x2="144.44" y2="67"/><line class="cls-11" x1="71" y1="63" x2="144.44" y2="63"/><line class="cls-11" x1="71" y1="59" x2="144.44" y2="59"/><line class="cls-11" x1="71" y1="55" x2="144.44" y2="55"/><line class="cls-11" x1="71" y1="51" x2="144.44" y2="51"/><line class="cls-11" x1="71" y1="47" x2="144.44" y2="47"/><line class="cls-11" x1="71" y1="43" x2="144.44" y2="43"/><line class="cls-11" x1="71" y1="39" x2="144.44" y2="39"/><line class="cls-11" x1="71" y1="35" x2="144.44" y2="35"/><line class="cls-11" x1="71" y1="31" x2="144.44" y2="31"/><line class="cls-11" x1="71" y1="27" x2="144.44" y2="27"/><line class="cls-11" x1="71" y1="23" x2="144.44" y2="23"/><line class="cls-11" x1="71" y1="19" x2="144.44" y2="19"/><line class="cls-11" x1="71" y1="15" x2="144.44" y2="15"/><line class="cls-11" x1="71" y1="11" x2="144.44" y2="11"/><line class="cls-11" x1="71" y1="7" x2="144.44" y2="7"/><line class="cls-11" x1="71" y1="3" x2="144.44" y2="3"/></g><g><line class="cls-11" x1="-1" y1="71" x2="72.44" y2="71"/><line class="cls-11" x1="-1" y1="67" x2="72.44" y2="67"/><line class="cls-11" x1="-1" y1="63" x2="72.44" y2="63"/><line class="cls-11" x1="-1" y1="59" x2="72.44" y2="59"/><line class="cls-11" x1="-1" y1="55" x2="72.44" y2="55"/><line class="cls-11" x1="-1" y1="51" x2="72.44" y2="51"/><line class="cls-11" x1="-1" y1="47" x2="72.44" y2="47"/><line class="cls-11" x1="-1" y1="43" x2="72.44" y2="43"/><line class="cls-11" x1="-1" y1="39" x2="72.44" y2="39"/><line class="cls-11" x1="-1" y1="35" x2="72.44" y2="35"/><line class="cls-11" x1="-1" y1="31" x2="72.44" y2="31"/><line class="cls-11" x1="-1" y1="27" x2="72.44" y2="27"/><line class="cls-11" x1="-1" y1="23" x2="72.44" y2="23"/><line class="cls-11" x1="-1" y1="19" x2="72.44" y2="19"/><line class="cls-11" x1="-1" y1="15" x2="72.44" y2="15"/><line class="cls-11" x1="-1" y1="11" x2="72.44" y2="11"/><line class="cls-11" x1="-1" y1="7" x2="72.44" y2="7"/><line class="cls-11" x1="-1" y1="3" x2="72.44" y2="3"/><line class="cls-11" x1="1.04" y1="69" x2="74.48" y2="69"/><line class="cls-11" x1="1.04" y1="65" x2="74.48" y2="65"/><line class="cls-11" x1="1.04" y1="61" x2="74.48" y2="61"/><line class="cls-11" x1="1.04" y1="57" x2="74.48" y2="57"/><line class="cls-11" x1="1.04" y1="53" x2="74.48" y2="53"/><line class="cls-11" x1="1.04" y1="49" x2="74.48" y2="49"/><line class="cls-11" x1="1.04" y1="45" x2="74.48" y2="45"/><line class="cls-11" x1="1.04" y1="41" x2="74.48" y2="41"/><line class="cls-11" x1="1.04" y1="37" x2="74.48" y2="37"/><line class="cls-11" x1="1.04" y1="33" x2="74.48" y2="33"/><line class="cls-11" x1="1.04" y1="29" x2="74.48" y2="29"/><line class="cls-11" x1="1.04" y1="25" x2="74.48" y2="25"/><line class="cls-11" x1="1.04" y1="21" x2="74.48" y2="21"/><line class="cls-11" x1="1.04" y1="17" x2="74.48" y2="17"/><line class="cls-11" x1="1.04" y1="13" x2="74.48" y2="13"/><line class="cls-11" x1="1.04" y1="9" x2="74.48" y2="9"/><line class="cls-11" x1="1.04" y1="5" x2="74.48" y2="5"/><line class="cls-11" x1="1.04" y1="1" x2="74.48" y2="1"/></g><g><line class="cls-11" x1="-73" y1="71" x2=".44" y2="71"/><line class="cls-11" x1="-73" y1="67" x2=".44" y2="67"/><line class="cls-11" x1="-73" y1="63" x2=".44" y2="63"/><line class="cls-11" x1="-73" y1="59" x2=".44" y2="59"/><line class="cls-11" x1="-73" y1="55" x2=".44" y2="55"/><line class="cls-11" x1="-73" y1="51" x2=".44" y2="51"/><line class="cls-11" x1="-73" y1="47" x2=".44" y2="47"/><line class="cls-11" x1="-73" y1="43" x2=".44" y2="43"/><line class="cls-11" x1="-73" y1="39" x2=".44" y2="39"/><line class="cls-11" x1="-73" y1="35" x2=".44" y2="35"/><line class="cls-11" x1="-73" y1="31" x2=".44" y2="31"/><line class="cls-11" x1="-73" y1="27" x2=".44" y2="27"/><line class="cls-11" x1="-73" y1="23" x2=".44" y2="23"/><line class="cls-11" x1="-73" y1="19" x2=".44" y2="19"/><line class="cls-11" x1="-73" y1="15" x2=".44" y2="15"/><line class="cls-11" x1="-73" y1="11" x2=".44" y2="11"/><line class="cls-11" x1="-73" y1="7" x2=".44" y2="7"/><line class="cls-11" x1="-73" y1="3" x2=".44" y2="3"/><line class="cls-11" x1="-70.96" y1="69" x2="2.48" y2="69"/><line class="cls-11" x1="-70.96" y1="65" x2="2.48" y2="65"/><line class="cls-11" x1="-70.96" y1="61" x2="2.48" y2="61"/><line class="cls-11" x1="-70.96" y1="57" x2="2.48" y2="57"/><line class="cls-11" x1="-70.96" y1="53" x2="2.48" y2="53"/><line class="cls-11" x1="-70.96" y1="49" x2="2.48" y2="49"/><line class="cls-11" x1="-70.96" y1="45" x2="2.48" y2="45"/><line class="cls-11" x1="-70.96" y1="41" x2="2.48" y2="41"/><line class="cls-11" x1="-70.96" y1="37" x2="2.48" y2="37"/><line class="cls-11" x1="-70.96" y1="33" x2="2.48" y2="33"/><line class="cls-11" x1="-70.96" y1="29" x2="2.48" y2="29"/><line class="cls-11" x1="-70.96" y1="25" x2="2.48" y2="25"/><line class="cls-11" x1="-70.96" y1="21" x2="2.48" y2="21"/><line class="cls-11" x1="-70.96" y1="17" x2="2.48" y2="17"/><line class="cls-11" x1="-70.96" y1="13" x2="2.48" y2="13"/><line class="cls-11" x1="-70.96" y1="9" x2="2.48" y2="9"/><line class="cls-11" x1="-70.96" y1="5" x2="2.48" y2="5"/><line class="cls-11" x1="-70.96" y1="1" x2="2.48" y2="1"/></g></g></pattern></defs><g id="BG"><g><path class="cls-6" d="M64.02,40c0,11.47-1.89,22.39-5.5,31.74-7.2,2.16-14.94,3.26-23.02,3.26-.49,0-.98-.01-1.47-.02h-.17c-8.18-.15-16.29-1.47-23.6-3.85-3.45-9.22-5.26-19.93-5.26-31.13s1.89-22.38,5.48-31.73c6.73-2.01,14.13-3.13,21.6-3.26,.48-.01,.97-.01,1.45-.01,.54,0,1.08,.01,1.63,.02,8.16,.15,16.27,1.47,23.59,3.84,3.46,9.24,5.27,19.95,5.27,31.14Z"/><path class="cls-15" d="M34.03,5.59V74.98h-.17c-8.18-.15-16.29-1.47-23.6-3.85-3.45-9.22-5.26-19.93-5.26-31.13s1.89-22.38,5.48-31.73c6.73-2.01,14.13-3.13,21.6-3.26,.65,.16,1.3,.36,1.95,.58Z"/></g></g><g id="Capa_9"><g><g><path class="cls-1" d="M18.8,33.23s-.61-7.72,.81-11.79,6.6-10.06,15.55-9.65c9.35,.41,14.02,6.5,15.04,10.36,1.32,4.88,.61,13.01,.61,13.01l2.64-4.67s1.22,4.37,1.12,7.42-.91,4.37-3.66,6.71c-1.12,1.83-1.22,2.24-1.22,2.24,0,0-.3,6.6-2.03,8.84l.55,3.52,15,4.81-2.74,9.25-26.62,4.47-25.71-5.28-.41-8.64,14.02-4.47,.61-2.85s-2.24-5.59-2.34-9.86c-1.93-2.74-4.47-5.59-4.67-6.5s.81-9.55,.81-9.55l2.34,4.17,.3-1.52Z"/><path class="cls-2" d="M34.76,57.5V30.46c0-4.21,4.12-7.2,8.11-5.88,2.07,.69,4.14,1.62,5.65,2.88,3.32,8.71,4.14,12.75,3.32,14.96s-2.14,5.04-2.14,5.04c0,0,.16,5.17-1.09,6.94s-6.88,6.15-6.88,6.15l-1.35,1.25s-.01,0-.03,0c-2.82,.76-5.59-1.38-5.59-4.3Z"/><path class="cls-18" d="M20.52,20.03s.07-.05,.1-.08c10.73-8.23,25.43-2.88,29.22,1.32,1.9,5.12,.91,13.13,.91,13.13l-2.23-6.94s-1.16-2.23-8.84-4.21-14.2,.5-17.18-1.49c0,2.31-1.16,6.94-2.31,8.18-.94,1-1.49,3.8-1.67,4.82-.04,.24-.06,.38-.06,.38,0,0-1.25-10.94,2.06-15.11Z"/><path d="M20.19,20.19s4.95-8,14.97-8.4c9.92,.16,14.22,6.9,14.69,9.8-5.24-5.33-17.12-9.45-29.66-1.4Z"/><path class="cls-18" d="M22.12,59.46s4.94,4.52,10.39,5.88c1.45,2.81,2.3,4.09,2.3,4.09h1.02l1.87-3.92s6.67-1.7,10.49-6.3c4.76,1.62,15,4.81,15,4.81l-3.51,10.35-26.92,3.15-24.62-5.62-.42-8.08,14.4-4.36Z"/><path class="cls-3" d="M30.94,40.87s-2.29-1.12-3.08-1.12c-2.29,.48-3.88,1.12-3.88,1.12,0,0,3.62,2.23,6.97,0Z"/><polygon class="cls-4" points="32.85 36.89 31.68 41.01 28.29 39.67 23.77 40.74 21.35 37.48 25.83 35.6 32.85 36.89"/><path class="cls-3" d="M39.07,40.87s2.29-1.12,3.08-1.12c2.29,.48,3.88,1.12,3.88,1.12,0,0-3.62,2.23-6.97,0Z"/><polygon class="cls-4" points="37.16 36.89 38.33 41.01 41.72 39.67 46.24 40.74 48.66 37.48 44.18 35.6 37.16 36.89"/><path class="cls-12" d="M50.16,44.96c-.25,.38-2.69,3.7-3.17,5.14,.7-.96,1.49-1.77,2.27-2.61-.12,2.02-.52,5.72-1.85,7.59-.88,1.22-2.17,2.17-3.66,3.27-1.1,.81-2.34,1.72-3.53,2.85-1.37,.48-3.07,.73-4.95,.73h-1.08c-1.65,0-3.14-.19-4.42-.56-1.25-1.22-2.55-2.18-3.7-3.03-1.49-1.09-2.78-2.04-3.66-3.26-1.36-1.91-1.82-5.77-1.97-7.76,.83,.88,1.68,1.75,2.4,2.78-.68-1.9-2.13-3.51-3.19-5.14-1.57-2.9-1.07-6.47-.34-9.57,0-.16-.02-.33-.03-.49,.13-1.1,.55-3.83,1.7-5.65,1.3-2.07,1.84-5.16,1.79-6.86,1.33,.63,3.43,.6,6.15,.57,5.26-.05,12.45-.14,19.2,4.52,1.17,3.89,2.21,7.38,2.47,8.25,.69,3,1.11,6.45-.43,9.23Z"/><path d="M19.16,35.66l-3-5.07s-.73,6.58-.79,8.26,2.11,4.22,3.07,5c-1.08-3.8,.18-7.53,.72-8.19Z"/><path d="M40.78,61.91l-18.12,13.75-13.26-3.24-1.67-8.6,14.4-4.36,.23-2.96s5.16,2.9,6.53,4.68,7.93,1.38,11.89,.73Z"/><path class="cls-16" d="M49.32,21.12s-3.94-1.59-7.54-.35-11.14,2.56-14.95,1.73c-2.91-.28-4.32-.74-4.32-.74,0,0,7.44,.4,11.1-1.89s8.44-2.49,10.1-2.49c2.98,.62,5.61,3.74,5.61,3.74Z"/><path d="M19.46,22.84s2.3-.21,2.44,1.67c.21,2.3-2.79,7.87-3.07,8.5-.35-5.23,.63-10.17,.63-10.17Z"/><path d="M48.45,27.65s1.32-2.79,2.65-2.86c.56,4.46-.21,9.9-.21,9.9l-2.44-7.04Z"/><path class="cls-2" d="M23.93,42.79c1.04,.3,2.84,.73,4.48,.73,.75,0,1.14,.91,.64,1.46-1.58,1.77-3.15,2.87-4.07,3.43-.44,.27-1.02,.11-1.24-.36-.48-.97-1.14-2.71-.92-4.55,.06-.53,.6-.86,1.11-.71Z"/><path class="cls-16" d="M50.41,63.69s-3.62,6.88-14.54,7.44c-3.1,4.02-3.27,6.08-3.27,6.08l27.49-4.38,.82-6.21-10.5-2.92Z"/><polyline class="cls-7" points="6.76 64.15 21.96 59.21 22.32 55.88"/><polyline class="cls-7" points="63.4 64.15 48.2 59.21 47.81 55.37"/><path class="cls-7" d="M18.79,35.63s-1.25-3.06-2.8-5.47c-.4,4.4-1.09,9.04-.23,10.78s3.18,3.8,3.18,3.8"/><path d="M46.99,50.1c.64-1.92,2.09-3.53,3.17-5.14,1.57-2.85,1.1-6.4,.38-9.45,.21-4.1,.38-8.33-.43-12.4-1.23-6.86-8.83-10.4-15.2-10.74-5.18,.31-10.9,2.55-13.78,7.07-1.49,2.27-1.7,5.06-1.92,7.71-.18,2.74-.12,5.52,.11,8.25-.73,3.09-1.23,6.66,.34,9.57,1.06,1.63,2.51,3.24,3.18,5.14-1.2-1.72-2.74-2.95-4-4.64-1.93-2.79-1.45-7.78-.44-10.05-.23-5.35-.81-11.65,1.96-16.45,3.64-5.68,12.33-8.78,18.73-6.85,7.72,1.99,12.34,6.78,12.43,14.98,.17,2.48,.14,6.38-.12,8.13,1.11,3.28,1.47,7.16-.41,10.25-1.23,1.71-2.77,2.94-4,4.64h0Z"/><path class="cls-7" d="M51.09,35.67s1.19-3.11,2.74-5.52c.4,4.4,1.09,9.04,.23,10.78s-3.25,3.85-3.25,3.85"/><path class="cls-7" d="M19.87,46.08s.14,6.5,2.13,9.29c1.66,2.32,4.69,3.67,7.5,6.44,1.16,.35,2.69,.62,4.68,.62h1.08c2.31,0,4.02-.36,5.22-.79,2.77-2.66,5.7-4,7.33-6.27,2-2.79,1.99-9.15,1.99-9.15"/><path class="cls-8" d="M19.86,20.91s5.13-5.04,15.36-5.08c10.23-.04,15.06,6.14,15.06,6.14"/><path class="cls-8" d="M18.85,35.36s.28-3.88,1.81-6.31,1.95-6.3,1.64-7.4c2.96,2.71,15.19-2.05,26.14,5.61,1.38,4.55,2.58,8.59,2.58,8.59"/><g><path d="M21.31,37.53s2.91-2.75,5.34-3.1c3.5-.1,5.97,.81,5.97,.81l.19,1.73s-3.59,.2-6.41-.36c-2.96-.46-3.55,.81-5.1,.92Z"/><path d="M48.51,37.53s-2.91-2.75-5.34-3.1c-3.5-.1-5.97,.81-5.97,.81l-.19,1.73s3.59,.2,6.41-.36c2.96-.46,3.55,.81,5.1,.92Z"/><path d="M23.86,40.84c1.34-.75,2.66-1.42,4.19-1.72,1.41,.24,2.77,.82,3.75,1.92-1.77,.96-4.26,1.77-6.03,.45,1.74,.51,3.47-.25,4.98-1,0,0-.12,.76-.12,.76-.75-.61-1.75-.96-2.69-1.24,0,0,.14,.01,.14,.01-1.37,.18-2.83,.62-4.22,.82h0Z"/><path d="M46.26,40.84c-1.38-.2-2.85-.64-4.22-.82,0,0,.14-.01,.14-.01-.93,.28-1.94,.63-2.69,1.24,0,0-.12-.76-.12-.76,1.51,.75,3.24,1.51,4.98,1-1.77,1.31-4.26,.5-6.03-.45,.98-1.1,2.34-1.68,3.75-1.92,1.53,.3,2.85,.98,4.19,1.72h0Z"/><path d="M36.9,38.52l.12,1.55-.02-.19,1.25,3.3c.43,1.11,.86,2.24,1.35,3.31,.06,.73-.07,1.5-.4,2.17-.14,.31-.4,.65-.64,.93l-.33-.22-1.26-.85,.57-.03c-.2,.19-2.34,2.09-2.47,2.22,0,0-.33-.29-.33-.29l-2.18-1.9,.61,.03c-.25,.17-1.38,.96-1.61,1.12-.79-.84-1.18-1.96-1.11-3.09,.79-1.91,1.94-4.7,2.69-6.68-.06,.76,.1-1.45,.09-1.37,0,0,.61,1.43,.61,1.43,.05,.08,0,.1-.02,.19-.68,1.71-1.96,5.42-2.56,6.45,0,.75,.27,1.54,.73,2.11l-.63-.07c.24-.18,1.32-.97,1.54-1.13,.09,.07,2.31,2.01,2.48,2.16,0,0-.66,0-.66,0l2.19-1.87,.29-.24,.29,.22,1.21,.91-.56,.06c.49-.58,.77-1.38,.78-2.14,0,0,.03,.13,.03,.13-.87-1.89-1.89-4.63-2.66-6.58,0,0-.05-.12-.05-.12l.03-.07,.6-1.44h0Z"/><path d="M35.37,53.69h1.66c.85,0,3.73,1.18,3.73,1.18,0,0-2.34-2.62-3.29-2.91s-2.27-.25-2.27-.25h-.34s-1.32-.05-2.27,.25-3.29,2.91-3.29,2.91c0,0,2.88-1.18,3.73-1.18h2.34Z"/><path d="M38.27,54.81c-.85,2.07-5.77,2.08-6.61,0,1.08,.6,2.11,.54,3.31,.52,1.2,.02,2.23,.08,3.31-.52h0Z"/></g><path class="cls-7" d="M47.81,55.37l.68,7.89s-3.7,6.26-12.64,6.26h-1.39c-8.95,0-12.64-6.26-12.64-6.26l.54-6.89"/><path class="cls-7" d="M22.13,58.3s1,4.45,10.48,7.17c1.26,2.38,2.09,4.08,2.09,4.08"/><path class="cls-7" d="M48.05,58.38s-.83,4.37-10.3,7.1c-1.26,2.38-2.09,4.08-2.09,4.08"/></g><path class="cls-13" d="M22.97,58.21c.02,.73-.07,1.43-.14,2.14-3.98,2.11-8.33,3.6-12.86,3.84,0,0-.03-.1-.03-.1,3.65-1.25,8.77-2.98,12.39-4.12-.16,.27,.57-1.82,.54-1.78,0,0,.11,.03,.11,.03h0Z"/></g></g><g id="Frame"><g><path class="cls-5" d="M62.56,4.88C54.4,1.94,45.12,.2,35.25,.02c-.57-.01-1.15-.02-1.72-.02C23.88,0,14.77,1.52,6.72,4.21,2.49,14.22,0,26.6,0,40s2.39,25.22,6.45,35.11c8.16,2.94,17.45,4.69,27.32,4.87,.58,.01,1.15,.02,1.73,.02,9.63,0,18.73-1.51,26.78-4.2,4.24-10.01,6.74-22.39,6.74-35.8s-2.4-25.24-6.46-35.12Zm-4.04,66.86c-7.2,2.16-14.94,3.26-23.02,3.26-.49,0-.98-.01-1.47-.02h-.17c-8.18-.15-16.29-1.47-23.6-3.85-3.45-9.22-5.26-19.93-5.26-31.13s1.89-22.38,5.48-31.73c6.73-2.01,14.13-3.13,21.6-3.26,.48-.01,.97-.01,1.45-.01,.54,0,1.08,.01,1.63,.02,8.16,.15,16.27,1.47,23.59,3.84,3.46,9.24,5.27,19.95,5.27,31.14s-1.89,22.39-5.5,31.74Z"/><path class="cls-14" d="M17.21,2.06h0c1.63,.63,2.06,2.75,.81,3.97l-1.26,1.22s8.35-2.37,18.84-1.69h0c-1-1.49-.45-3.52,1.14-4.34l1-.51S28.26-.43,17.21,2.06Z"/><path class="cls-17" d="M21.81,1.66s.7,2.18-.22,3.1c3.77-.41,7.98-.74,11.12-.74-.33-1.33,1.26-3.4,1.26-3.4,0,0-6.17-.26-12.16,1.03Z"/><path class="cls-14" d="M36.25,79.21h0c-1.52-.87-1.62-3.03-.2-4.04l1.43-1.02s-8.61,1.07-18.88-1.19h0c.76,1.63-.09,3.55-1.79,4.11l-1.07,.36s9.19,2.56,20.5,1.78Z"/><path class="cls-17" d="M19.28,77.8s1.76-1.83,1.3-3.09c4.43,.69,9.11,1.14,12.25,1.14-.33,1.33,.44,3.4,.44,3.4,0,0-8-.16-13.99-1.45Z"/><polygon points="47.48 1.77 47.48 6.73 54.49 8.44 54.49 2.62 47.48 1.77"/><line class="cls-7" x1="45.5" y1="1.23" x2="45.5" y2="6.29"/><line class="cls-7" x1="56.47" y1="3.67" x2="56.47" y2="8.73"/><polygon points="47.48 78.74 47.48 73.78 54.49 72.07 54.49 77.88 47.48 78.74"/><line class="cls-7" x1="45.5" y1="79.28" x2="45.5" y2="74.21"/><line class="cls-7" x1="56.47" y1="76.84" x2="56.47" y2="71.77"/><path d="M33.53,1c.56,0,1.14,0,1.7,.02,9.39,.17,18.33,1.74,26.57,4.65,4.07,10.08,6.22,21.94,6.22,34.33s-2.24,24.79-6.49,34.99c-8.12,2.66-16.87,4.01-26.03,4.01-.56,0-1.12,0-1.71-.02-9.25-.17-18.42-1.78-26.58-4.66C3.15,64.25,1,52.39,1,40S3.23,15.21,7.47,5.02C15.6,2.35,24.37,1,33.53,1m0-1C23.88,0,14.77,1.52,6.72,4.21,2.49,14.22,0,26.6,0,40s2.39,25.22,6.45,35.11c8.16,2.94,17.45,4.69,27.32,4.87,.58,.01,1.15,.02,1.73,.02,9.63,0,18.73-1.51,26.78-4.2,4.24-10.01,6.74-22.39,6.74-35.8s-2.4-25.24-6.46-35.12C54.4,1.94,45.12,.2,35.25,.02c-.57,0-1.15-.02-1.72-.02h0Z"/><path class="cls-14" d="M33.53,6c.52,0,1.04,0,1.61,.02,7.87,.14,15.75,1.4,22.84,3.64,3.3,9,5.04,19.47,5.04,30.34s-1.82,21.82-5.26,30.92c-6.98,2.04-14.47,3.08-22.26,3.08-.48,0-.97,0-1.47-.02h-.15c-7.89-.14-15.78-1.41-22.85-3.65-3.29-8.99-5.03-19.46-5.03-30.33s1.81-21.79,5.24-30.91c6.5-1.89,13.7-2.95,20.86-3.08,.47,0,.96,0,1.43,0m0-1c-.48,0-.97,0-1.45,.01-7.47,.13-14.87,1.25-21.6,3.26-3.59,9.35-5.48,20.26-5.48,31.73s1.81,21.91,5.26,31.13c7.31,2.38,15.42,3.7,23.6,3.85h.17c.49,.01,.98,.02,1.47,.02,8.08,0,15.82-1.1,23.02-3.26,3.61-9.35,5.5-20.27,5.5-31.74s-1.81-21.9-5.27-31.14c-7.32-2.37-15.43-3.69-23.59-3.84-.55,0-1.09-.02-1.63-.02h0Z"/><path class="cls-9" d="M8.14,7.1s-12.66,32.94,0,66.06"/><path class="cls-9" d="M60.88,7.58s12.66,32.94,0,66.06"/></g><path d="M33.53,5c.54,0,1.08,.01,1.63,.02,8.16,.15,16.27,1.47,23.59,3.84,3.46,9.24,5.27,19.95,5.27,31.14s-1.89,22.39-5.5,31.74c-7.2,2.16-14.94,3.26-23.02,3.26-.49,0-.98-.01-1.47-.02h-.17c-8.18-.15-16.29-1.47-23.6-3.85-3.45-9.22-5.26-19.93-5.26-31.13s1.89-22.38,5.48-31.73c6.73-2.01,14.13-3.13,21.6-3.26,.48-.01,.97-.01,1.45-.01m0-1c-.49,0-.98,0-1.47,.01-7.51,.13-15.07,1.27-21.87,3.3l-.47,.14-.18,.46c-3.63,9.45-5.55,20.55-5.55,32.09s1.84,22.17,5.32,31.48l.17,.45,.46,.15c7.37,2.4,15.63,3.75,23.89,3.9h.19c.48,.01,.97,.02,1.47,.02,8.16,0,16-1.11,23.31-3.3l.47-.14,.18-.46c3.64-9.43,5.57-20.53,5.57-32.1s-1.84-22.17-5.33-31.49l-.17-.45-.46-.15c-7.39-2.39-15.65-3.74-23.88-3.89-.58-.01-1.12-.02-1.65-.02h0Z"/></g></svg>