<svg id="Capa_2" xmlns="http://www.w3.org/2000/svg" xmlns:xlink="http://www.w3.org/1999/xlink" viewBox="0 0 69.02 80">
<defs >
<style >
.cls-1{fill:#c89aed;}.cls-2{fill:#fff;}.cls-3{fill:#f8ffbf;}.cls-4{fill:#7b7be8;}.cls-5{fill:#a88347;}.cls-6{fill:#782ab5;}.cls-7{stroke:#000;stroke-miterlimit:10;}.cls-7,.cls-8,.cls-9,.cls-10{fill:none;}.cls-11{fill:#1c46ff;}.cls-8{stroke:#deb778;stroke-dasharray:0 0 0 4.06;stroke-linecap:round;stroke-linejoin:round;}.cls-12{fill:#deb778;}.cls-13{fill:url(#USGS_19_Inundación_de_tierra_2);}.cls-10{stroke:#1d1d1b;stroke-dasharray:0 0 2 2;stroke-width:.3px;}.cls-14{fill:#fcf0c5;}
</style>
<pattern id="USGS_19_Inundación_de_tierra_2" x="0" y="0" width="72" height="72" patternTransform="translate(-164.48 -16423) rotate(-90)" patternUnits="userSpaceOnUse" viewBox="0 0 72 72">
<g >
<rect class="cls-9" width="72" height="72">
</rect>
<g >
<line class="cls-10" x1="71" y1="71" x2="144.44" y2="71">
</line>
<line class="cls-10" x1="71" y1="67" x2="144.44" y2="67">
</line>
<line class="cls-10" x1="71" y1="63" x2="144.44" y2="63">
</line>
<line class="cls-10" x1="71" y1="59" x2="144.44" y2="59">
</line>
<line class="cls-10" x1="71" y1="55" x2="144.44" y2="55">
</line>
<line class="cls-10" x1="71" y1="51" x2="144.44" y2="51">
</line>
<line class="cls-10" x1="71" y1="47" x2="144.44" y2="47">
</line>
<line class="cls-10" x1="71" y1="43" x2="144.44" y2="43">
</line>
<line class="cls-10" x1="71" y1="39" x2="144.44" y2="39">
</line>
<line class="cls-10" x1="71" y1="35" x2="144.44" y2="35">
</line>
<line class="cls-10" x1="71" y1="31" x2="144.44" y2="31">
</line>
<line class="cls-10" x1="71" y1="27" x2="144.44" y2="27">
</line>
<line class="cls-10" x1="71" y1="23" x2="144.44" y2="23">
</line>
<line class="cls-10" x1="71" y1="19" x2="144.44" y2="19">
</line>
<line class="cls-10" x1="71" y1="15" x2="144.44" y2="15">
</line>
<line class="cls-10" x1="71" y1="11" x2="144.44" y2="11">
</line>
<line class="cls-10" x1="71" y1="7" x2="144.44" y2="7">
</line>
<line class="cls-10" x1="71" y1="3" x2="144.44" y2="3">
</line>
</g>
<g >
<line class="cls-10" x1="-1" y1="71" x2="72.44" y2="71">
</line>
<line class="cls-10" x1="-1" y1="67" x2="72.44" y2="67">
</line>
<line class="cls-10" x1="-1" y1="63" x2="72.44" y2="63">
</line>
<line class="cls-10" x1="-1" y1="59" x2="72.44" y2="59">
</line>
<line class="cls-10" x1="-1" y1="55" x2="72.44" y2="55">
</line>
<line class="cls-10" x1="-1" y1="51" x2="72.44" y2="51">
</line>
<line class="cls-10" x1="-1" y1="47" x2="72.44" y2="47">
</line>
<line class="cls-10" x1="-1" y1="43" x2="72.44" y2="43">
</line>
<line class="cls-10" x1="-1" y1="39" x2="72.44" y2="39">
</line>
<line class="cls-10" x1="-1" y1="35" x2="72.44" y2="35">
</line>
<line class="cls-10" x1="-1" y1="31" x2="72.44" y2="31">
</line>
<line class="cls-10" x1="-1" y1="27" x2="72.44" y2="27">
</line>
<line class="cls-10" x1="-1" y1="23" x2="72.44" y2="23">
</line>
<line class="cls-10" x1="-1" y1="19" x2="72.44" y2="19">
</line>
<line class="cls-10" x1="-1" y1="15" x2="72.44" y2="15">
</line>
<line class="cls-10" x1="-1" y1="11" x2="72.44" y2="11">
</line>
<line class="cls-10" x1="-1" y1="7" x2="72.44" y2="7">
</line>
<line class="cls-10" x1="-1" y1="3" x2="72.44" y2="3">
</line>
<line class="cls-10" x1="1.04" y1="69" x2="74.48" y2="69">
</line>
<line class="cls-10" x1="1.04" y1="65" x2="74.48" y2="65">
</line>
<line class="cls-10" x1="1.04" y1="61" x2="74.48" y2="61">
</line>
<line class="cls-10" x1="1.04" y1="57" x2="74.48" y2="57">
</line>
<line class="cls-10" x1="1.04" y1="53" x2="74.48" y2="53">
</line>
<line class="cls-10" x1="1.04" y1="49" x2="74.48" y2="49">
</line>
<line class="cls-10" x1="1.04" y1="45" x2="74.48" y2="45">
</line>
<line class="cls-10" x1="1.04" y1="41" x2="74.48" y2="41">
</line>
<line class="cls-10" x1="1.04" y1="37" x2="74.48" y2="37">
</line>
<line class="cls-10" x1="1.04" y1="33" x2="74.48" y2="33">
</line>
<line class="cls-10" x1="1.04" y1="29" x2="74.48" y2="29">
</line>
<line class="cls-10" x1="1.04" y1="25" x2="74.48" y2="25">
</line>
<line class="cls-10" x1="1.04" y1="21" x2="74.48" y2="21">
</line>
<line class="cls-10" x1="1.04" y1="17" x2="74.48" y2="17">
</line>
<line class="cls-10" x1="1.04" y1="13" x2="74.48" y2="13">
</line>
<line class="cls-10" x1="1.04" y1="9" x2="74.48" y2="9">
</line>
<line class="cls-10" x1="1.04" y1="5" x2="74.48" y2="5">
</line>
<line class="cls-10" x1="1.04" y1="1" x2="74.48" y2="1">
</line>
</g>
<g >
<line class="cls-10" x1="-73" y1="71" x2=".44" y2="71">
</line>
<line class="cls-10" x1="-73" y1="67" x2=".44" y2="67">
</line>
<line class="cls-10" x1="-73" y1="63" x2=".44" y2="63">
</line>
<line class="cls-10" x1="-73" y1="59" x2=".44" y2="59">
</line>
<line class="cls-10" x1="-73" y1="55" x2=".44" y2="55">
</line>
<line class="cls-10" x1="-73" y1="51" x2=".44" y2="51">
</line>
<line class="cls-10" x1="-73" y1="47" x2=".44" y2="47">
</line>
<line class="cls-10" x1="-73" y1="43" x2=".44" y2="43">
</line>
<line class="cls-10" x1="-73" y1="39" x2=".44" y2="39">
</line>
<line class="cls-10" x1="-73" y1="35" x2=".44" y2="35">
</line>
<line class="cls-10" x1="-73" y1="31" x2=".44" y2="31">
</line>
<line class="cls-10" x1="-73" y1="27" x2=".44" y2="27">
</line>
<line class="cls-10" x1="-73" y1="23" x2=".44" y2="23">
</line>
<line class="cls-10" x1="-73" y1="19" x2=".44" y2="19">
</line>
<line class="cls-10" x1="-73" y1="15" x2=".44" y2="15">
</line>
<line class="cls-10" x1="-73" y1="11" x2=".44" y2="11">
</line>
<line class="cls-10" x1="-73" y1="7" x2=".44" y2="7">
</line>
<line class="cls-10" x1="-73" y1="3" x2=".44" y2="3">
</line>
<line class="cls-10" x1="-70.96" y1="69" x2="2.48" y2="69">
</line>
<line class="cls-10" x1="-70.96" y1="65" x2="2.48" y2="65">
</line>
<line class="cls-10" x1="-70.96" y1="61" x2="2.48" y2="61">
</line>
<line class="cls-10" x1="-70.96" y1="57" x2="2.48" y2="57">
</line>
<line class="cls-10" x1="-70.96" y1="53" x2="2.48" y2="53">
</line>
<line class="cls-10" x1="-70.96" y1="49" x2="2.48" y2="49">
</line>
<line class="cls-10" x1="-70.96" y1="45" x2="2.48" y2="45">
</line>
<line class="cls-10" x1="-70.96" y1="41" x2="2.48" y2="41">
</line>
<line class="cls-10" x1="-70.96" y1="37" x2="2.48" y2="37">
</line>
<line class="cls-10" x1="-70.96" y1="33" x2="2.48" y2="33">
</line>
<line class="cls-10" x1="-70.96" y1="29" x2="2.48" y2="29">
</line>
<line class="cls-10" x1="-70.96" y1="25" x2="2.48" y2="25">
</line>
<line class="cls-10" x1="-70.96" y1="21" x2="2.48" y2="21">
</line>
<line class="cls-10" x1="-70.96" y1="17" x2="2.48" y2="17">
</line>
<line class="cls-10" x1="-70.96" y1="13" x2="2.48" y2="13">
</line>
<line class="cls-10" x1="-70.96" y1="9" x2="2.48" y2="9">
</line>
<line class="cls-10" x1="-70.96" y1="5" x2="2.48" y2="5">
</line>
<line class="cls-10" x1="-70.96" y1="1" x2="2.48" y2="1">
</line>
</g>
</g>
</pattern>
</defs>

<g id="Capa_9">
<g >
<g >
<path class="cls-2" d="M7.5,62.07l4.54-1.91s.24-13.75,1.2-17.1,2.99-10.88,2.99-10.88c0,0-.36-5.74,1.55-8.37,.24-5.26,.84-7.06,.84-7.06,0,0,13.99-8.37,32.05,.24,.12,5.02,.12,6.34,.12,6.34,0,0,2.39,5.26,1.67,9.57,5.98,13.15,4.07,27.27,4.07,27.27l5.38,2.39-1.08,10.64-26.31,4.66-26.19-6.1-.84-9.69Z">
</path>
<path class="cls-1" d="M19.46,31.88s8.67-3.88,15.96-3.48c7.49,.39,14.12,3.68,14.12,3.68,0,0,.85,12.94-4.34,23.26-3.35,3.15-6.9,5.98-8.87,6.57s-4.93,0-4.93,0c0,0-6.37-4.73-7.75-6.5s-4.4-13.73-4.73-17.21c-.33-4.4,.53-6.31,.53-6.31Z">
</path>
<path class="cls-2" d="M34.3,61.85V28.73s12.41,.7,15.25,3.35c.18,11.12-3.23,21.49-4.34,23.26s-4,3.97-5.69,5.15-4.26,1.56-5.22,1.37Z">
</path>
<path class="cls-2" d="M30.45,54.15s1.51-1.41,3.44-1.41,4,1.22,4,1.22c0,0-1.08,2.31-3.72,2.12s-3.72-1.93-3.72-1.93Z">
</path>
<path class="cls-4" d="M50.98,32.78s2.2,9.07,.38,13.85c-2.29,5.73-8.21,15.86-11.75,20.63-4.78-2.96-7.26-4.78-7.26-4.78,0,0,4.87-.38,7.16-2.01s5.54-4.2,6.11-5.44,3.15-9.93,3.53-12.32,.38-10.64,.38-10.64l1.43,.71Z">
</path>
<path d="M22.98,22.57s-3.42,4.76-.98,7.7c-2.44,.86-3.05,2.32-3.05,2.32,0,0-1.95,3.91-1.59,11.24s4.4,14.29,6.23,16.98,18.94,13.56,19.79,14.54c-17.47,2.93-34.09-3.18-34.09-3.18l-1.1-11,3.84-1.02s-.06-16.21,1.78-20.49c2.32-6.6,2.41-7.5,2.41-7.5,0,0,.02-5.79,1.55-8.37,.19-5.63,.84-7.06,.84-7.06,0,0,5.22-2.49,11.57-2.73-7.21,2.81-8.55,5.62-7.21,8.55Z">
</path>
<path class="cls-4" d="M48.34,22.67s-2.12-3.7-10.81-3.77c-9.59,0-13.58,2.27-14.07,2.97,8-1.24,17.01-1.34,24.88,.8Z">
</path>
<path class="cls-2" d="M17.73,57.45c-.25-.47-.97-.24-.9,.29,.26,2.13,.67,5.14,1.08,6.89,.6,2.58,2.73,8.67,3.22,10.05,.06,.18,.22,.3,.4,.32l6.91,.72c.43,.04,.7-.45,.43-.78-1.75-2.14-6.06-7.56-7.45-10.41-1.06-2.18-2.62-5.11-3.69-7.08Z">
</path>
<path class="cls-4" d="M37.74,39.38l-1.54-4.22h2.52l5.52-1.14,3.9,1.3-.65,2.6s-3.17,2.43-9.74,1.46Z">
</path>
<path class="cls-4" d="M21.67,37.93s-1.17-2.11-1.08-2.53c2.07-1.22,4.37-1.36,4.37-1.36l7.56,1.03-1.17,4.55-9.67-1.69Z">
</path>
<path class="cls-3" d="M31.34,39.62s-2.77-1.78-4.93-1.84c-2.78,.06-3.98,.23-3.98,.23,0,0,1.93,3.12,4.37,3.58s4.52-1.32,4.53-1.97Z">
</path>
<path class="cls-3" d="M37.64,39.62s2.77-1.78,4.93-1.84c2.78,.06,3.98,.23,3.98,.23,0,0-1.93,3.12-4.37,3.58s-4.52-1.32-4.53-1.97Z">
</path>
<path class="cls-1" d="M34.28,29.81h0c2.85,0,5.68,.35,8.43,1.05,1.62,.38,3.13,.95,4.73,1.56,.29,.11,.59,.22,.88,.33,.1,2.11,.2,8.5-1.6,14.39-.37,1.16-.66,2.16-.91,3.01l-.09,.31c-1.24,4.2-1.29,4.37-3.31,5.86-.56,.41-1.12,.88-1.61,1.3-1.92,1.61-3.9,3.28-6.98,3.28-.61,0-1.25-.07-1.92-.2-1.17-.9-2.3-1.79-3.34-2.64-.34-.3-.69-.6-1.04-.9-1.49-1.26-2.9-2.45-3.62-4.17-1-2.17-1.63-4.58-2.17-6.84-.16-.82-.34-1.64-.52-2.48-.81-3.73-1.64-7.58-.61-11.1,.12-.04,.23-.09,.35-.13,.38-.15,.76-.29,1.18-.43,3.88-1.47,7.97-2.22,12.16-2.22m0-.75c-4.23,0-8.46,.76-12.43,2.26-.63,.21-1.24,.46-1.87,.69-1.52,4.61,.11,9.67,1,14.3,.58,2.4,1.21,4.81,2.23,7.01,.95,2.28,3.04,3.71,4.84,5.31,1.15,.94,2.33,1.87,3.52,2.78,.8,.17,1.54,.25,2.24,.25,3.35,0,5.52-1.82,7.46-3.46,.53-.45,1.05-.89,1.57-1.27,2.23-1.65,2.33-1.99,3.59-6.26,.27-.91,.59-2,1-3.3,2.11-6.9,1.65-14.5,1.61-15.15-2.04-.75-4.02-1.59-6.16-2.09-2.81-.72-5.71-1.07-8.6-1.07h0Z">
</path>
<path class="cls-2" d="M23.29,41.95c1.44,.64,3.87,1.33,6.5,.41,.67-.23,1.26,.47,.89,1.08-2.56,4.27-7.03,2.99-8.37-.54-.24-.62,.37-1.22,.98-.95Z">
</path>
<path class="cls-4" d="M38.59,54.5s-1.06,3.13-4.38,3.13c-2.97,0-4.03-3.29-4.03-3.29l.97-.58s.9,1.55,3.13,1.55,3.32-1.42,3.32-1.42l1,.61Z">
</path>
<path class="cls-7" d="M53.36,75.05c7.5-20.74-.88-42.48-.88-42.48,0,0,.44-4.63-1.77-8.94,.22-2.21-.11-6.62-.11-6.62-17.32-8.61-32.44,0-32.44,0,0,0-.55,1.88-.33,6.51-1.77,2.65-1.66,8.72-1.66,8.72,0,0-7.06,14.68-1.99,41.38">
</path>
<line class="cls-7" x1="6.69" y1="62.14" x2="12.42" y2="60.16">
</line>
<line class="cls-7" x1="56.56" y1="60.16" x2="62.19" y2="62.81">
</line>
<path d="M51.04,32.9c-2.8-.87-5.33-2.11-8.16-2.77-6.93-1.77-14.35-1.34-21.03,1.19-1.36,.46-2.66,1.06-4.13,1.36,1.16-.89,2.41-1.72,3.77-2.27,6.79-2.86,14.57-3.4,21.67-1.34,2.79,.87,5.74,1.73,7.88,3.83h0Z">
</path>
<path d="M20.01,31.89c-1.58,4.64,.07,9.75,.97,14.41,.58,2.4,1.21,4.81,2.23,7.01,.96,2.27,3.04,3.71,4.84,5.3,3.81,3.12,7.81,6.16,12.15,8.48,4.29,2.45,9.92,3.33,12.95,7.6,0,0-.83,.56-.83,.56-1.32-1.97-3.52-3.15-5.77-4.13-7.05-2.65-13.44-6.84-19.17-11.71-1.44-1.27-2.95-2.41-4.14-3.96-1.76-2.69-2.48-5.89-3.24-8.92-.93-4.87-2.69-10.17-.58-15,0,0,.59,.35,.59,.35h0Z">
</path>
<path class="cls-7" d="M49.53,32.11s.62,8.04-1.63,15.4c-2.32,7.5-1.91,7.7-4.77,9.81s-5.69,5.86-11.68,4.57">
</path>
<path d="M20.37,35.48s2.84-2.23,4.83-2.17c2.96,.18,7.31,1.75,7.31,1.75,0,0-1.03,1.03-2.23,1.09-2.72-.78-5.74-1.57-5.74-1.57l-4.17,.91Z">
</path>
<path d="M48.14,35.48s-2.84-2.23-4.83-2.17c-2.96,.18-7.31,1.75-7.31,1.75,0,0,1.03,1.03,2.23,1.09,2.72-.78,5.74-1.57,5.74-1.57l4.17,.91Z">
</path>
<path d="M31.37,39.47c-2.18-.78-4.33-1.6-6.67-1.15-.76,.09-1.54,.17-2.29,.29l.35-.74c.83,1.27,2.08,2.46,3.56,2.93,1.49,.47,3.23,.32,4.69-.56-.59,.62-1.39,1.02-2.24,1.28-2.71,.78-5.46-.85-6.87-3.15,0,0-.4-.65-.4-.65l.76-.1c1.61-.19,3.15-.4,4.79-.19,1.62,.35,2.96,1.16,4.33,2.02h0Z">
</path>
<path d="M37.71,39.47c1.36-.86,2.7-1.67,4.33-2.02,1.64-.21,3.18,0,4.79,.19,0,0,.76,.1,.76,.1l-.4,.65c-1.41,2.3-4.17,3.93-6.87,3.15-.84-.26-1.64-.66-2.24-1.28,1.46,.88,3.2,1.03,4.69,.56,1.48-.47,2.73-1.66,3.56-2.93,0,0,.35,.74,.35,.74-1.48-.2-3.07-.45-4.55-.41-1.47,.18-2.99,.79-4.42,1.27h0Z">
</path>
<path d="M31.66,46.31c.06,.77,.03,1.45,.24,2.12l-.41-.32c.76,.11,1.51,.49,1.88,1.2-.9-.07-1.53-.18-2.29-.24-.45-.94-.28-2.13,.57-2.76h0Z">
</path>
<path d="M36.77,46.31c.85,.62,1.02,1.82,.57,2.76-.76,.06-1.39,.17-2.29,.24,.38-.7,1.12-1.08,1.88-1.2,0,0-.41,.32-.41,.32,.21-.68,.19-1.35,.24-2.12h0Z">
</path>
<path d="M34.78,51.61c2.42,0,3.32,1.18,3.63,1.92s.97,.91,.97,.91c0,0-.57,.72-1.52-.11s-2.09-.99-3.49-.99h0c-1.4,0-2.54,.15-3.49,.99s-1.52,.11-1.52,.11c0,0,.66-.16,.97-.91s1.21-1.92,3.63-1.92h.81Z">
</path>
<path d="M16.01,41.93c.82,3.96,1.5,8.42,2.73,12.25,2.63,6.41,5.62,12.83,10.18,18.13-1.06-.93-2.04-1.95-2.95-3.02-3.61-4.38-6.11-9.54-8.12-14.81-1.16-4.09-1.58-8.32-1.84-12.54h0Z">
</path>
<path d="M15.06,46.37c.31,4.45-.15,9.12,.39,13.56,.53,3.89,1.74,9.44,2.52,13.34,0,0-.97,.23-.97,.23-1.32-5.54-2.74-11.17-2.75-16.92,.19-3.3,.44-6.94,.81-10.22h0Z">
</path>
<path d="M39.02,67.15c5.57-6.54,9.65-14.3,12.59-22.34,0,0,.23-.6,.23-.6,.94,.9,1.19,1.99,1.26,3.11,.04,6.09-2.25,12.07-5.2,17.3,2.72-5.29,4.78-11.25,4.54-17.25-.1-.8-.25-1.69-.75-2.19l.62-.13c-2.22,6.13-5.13,12.01-8.79,17.4-1.23,1.8-2.5,3.54-3.96,5.2l-.55-.51h0Z">
</path>
<path d="M48.65,22.75c-8.31-1.98-17.1-1.77-25.42,0,0,0-.74,.15-.74,.15-.28,.03-.51,.18-.85,.04-.56-.22-.59-1.08-.05-1.32,6.32-3.05,13.71-3.88,20.55-2.33-6.7-.84-13.69,.08-19.79,3.01,0,0-.33,.16-.33,.16,.28-.19,.05-.46-.12-.43,0,0,.37-.08,.37-.08,8.63-1.95,17.95-2.1,26.37,.79h0Z">
</path>
<path d="M31.38,56.36c2.14,1.08,4,.85,6.06-.1-1.17,2.3-4.88,2.48-6.06,.1h0Z">
</path>
</g>
<path class="cls-11" d="M19.53,17.12c-.5,1.88-.8,3.96-.29,5.84-1.26,2.8-1.62,6-1.59,9.04,.02,.13-.03,.21-.07,.32-2.92,7.77-3.72,16.39-3.91,24.67-.11,5.07,.48,10.14,.49,15.23,0,0-.1,.01-.1,.01-.17-2.03-1.06-10.86-1.15-12.68-.18-5.93,.1-11.93,1.17-17.77,.62-3.34,1.44-6.66,2.76-9.8,0-1.38,.2-3.14,.47-4.62,.28-1.47,.77-3.22,1.44-4.4-.37-1.97,.02-3.99,.69-5.86,0,0,.09,.04,.09,.04h0Z">
</path>
</g>
</g>
 <g
     id="g2850">
    <g
       id="g2837">
      <path
         id="path1951"
         d="M 0.056640625 0.04296875 L 0.056640625 79.943359 L 69.308594 79.943359 L 69.308594 0.04296875 L 0.056640625 0.04296875 z M 33.615234 3.5957031 C 34.206332 3.5957038 34.786991 3.6051034 35.421875 3.6152344 C 44.430653 3.7671809 53.471255 5.1336733 61.560547 7.5546875 L 62.064453 7.7070312 L 62.25 8.1640625 C 66.070247 17.605006 66.990234 28.726438 66.990234 40.0625 C 66.990234 51.398562 65.972723 63.025755 61.988281 72.578125 L 61.791016 73.044922 L 61.275391 73.185547 C 53.273669 75.403966 44.691921 76.529297 35.759766 76.529297 C 35.212453 76.529297 34.675812 76.519896 34.150391 76.509766 L 33.943359 76.509766 C 24.901742 76.357819 15.860367 74.989738 7.7929688 72.558594 L 7.2890625 72.40625 L 7.1035156 71.951172 C 3.2942144 62.520359 2.375 51.369168 2.375 40.0625 C 2.375 28.755832 3.3819737 17.127318 7.3554688 7.5546875 L 7.5527344 7.0898438 L 8.0664062 6.9472656 C 15.509867 4.890923 23.785212 3.7371557 32.005859 3.6054688 C 32.542226 3.5953387 33.078867 3.5957031 33.615234 3.5957031 z "
         style="opacity:1;vector-effect:none;fill:#ffffff;fill-opacity:1;fill-rule:nonzero;stroke:none;stroke-width:1.95200002;stroke-linecap:butt;stroke-linejoin:miter;stroke-miterlimit:4;stroke-dasharray:none;stroke-dashoffset:0;stroke-opacity:1" />
    </g>
    <path
       id="path1154-8-2"
       d="m 33.675163,6.6112954 c 0.557696,0 1.115392,0.00956 1.683415,0.019115 8.427403,0.14336 16.803167,1.4049288 24.363042,3.6700176 3.573384,8.830981 4.443772,19.417362 4.443772,29.761551 0,10.344189 -0.95301,21.39888 -4.68131,30.334991 -7.435942,2.064385 -15.429581,3.274388 -23.774362,3.274388 -0.506058,0 -1.012115,-0.0096 -1.518172,-0.01911 h -0.17557 C 25.56792,73.508883 17.192156,72.088619 9.6426089,69.813973 6.0795528,61.002107 5.2088244,50.415411 5.2088244,40.061979 c 0,-10.353432 0.95335,-21.389323 4.6609939,-30.325434 C 16.820359,7.8155201 24.462856,6.7450981 32.177647,6.6208528 c 0.49573,-0.00956 1.001787,-0.00956 1.497516,-0.00956 m 0,-0.9557337 c -0.506057,0 -1.012114,0 -1.518171,0.00956 C 24.40089,5.7893644 16.593149,6.8789009 9.570315,8.8190405 L 9.0849131,8.9528432 8.8990146,9.3924808 C 5.1500599,18.424166 4.1999116,29.394246 4.1999116,40.061979 c 0,10.667733 0.8675267,21.188618 4.461566,30.0865 l 0.1755708,0.430081 0.4750741,0.14336 c 7.6115135,2.293761 16.1421925,3.584001 24.6728715,3.727361 h 0.196227 c 0.495729,0.0096 1.001786,0.01911 1.518171,0.01911 8.427403,0 16.524318,-1.060864 24.073866,-3.153921 l 0.485403,-0.133802 0.185898,-0.439639 c 3.759282,-9.01257 4.719759,-19.983589 4.719759,-30.679055 0,-10.695466 -0.867528,-21.188618 -4.471894,-30.0960578 L 60.516853,9.5358409 60.041779,9.3924808 C 52.409609,7.108277 43.87893,5.8180364 35.379234,5.6746763 34.780227,5.6651187 34.232859,5.6555621 33.675163,5.6555615 Z"
       style="fill:#ff0000;stroke:#ffffff;stroke-width:1.84341729;stroke-miterlimit:4;stroke-dasharray:none" />
    <path
       id="path1154"
       d="m 33.614853,4.6077955 c 0.591098,0 1.182197,0.01013 1.784241,0.02026 8.932155,0.1519464 17.809578,1.4890758 25.822246,3.8898304 3.787408,9.3599041 4.709928,20.5803481 4.709928,31.5440931 0,10.963745 -1.01009,22.680548 -4.961693,32.151879 -7.881312,2.18803 -16.353723,3.302304 -25.198307,3.302304 -0.536368,0 -1.072735,-0.01013 -1.609102,-0.02026 H 33.97608 C 25.022033,75.343956 16.14461,74.006827 8.1428892,71.595943 4.3664269,62.256298 3.443547,51.035521 3.443547,40.061979 c 0,-10.973542 1.01045,-22.670418 4.9401601,-32.1417498 7.3668369,-2.036083 15.4670749,-3.170617 23.6439369,-3.3023039 0.525421,-0.01013 1.061788,-0.01013 1.587209,-0.01013 m 0,-1.0129766 c -0.536367,0 -1.072734,0 -1.609101,0.01013 C 23.785105,3.7366356 15.509726,4.891429 8.0662653,6.9477716 L 7.5517907,7.0895883 7.3547579,7.5555576 C 3.3812628,17.128188 2.3742062,28.755311 2.3742062,40.061979 c 0,11.306668 0.9194864,22.457692 4.7287876,31.888505 l 0.1860865,0.45584 0.5035283,0.151947 c 8.0673984,2.431144 17.1090154,3.798662 26.1506324,3.950608 h 0.207979 c 0.525421,0.01013 1.061788,0.02026 1.609101,0.02026 8.932155,0 17.514028,-1.124404 25.51575,-3.342823 l 0.514475,-0.141816 0.197032,-0.46597 c 3.984442,-9.55237 5.002445,-21.180489 5.002445,-32.516551 0,-11.336062 -0.919487,-22.457692 -4.739734,-31.8986353 L 62.064202,7.7075041 61.560674,7.5555576 C 53.471382,5.1345434 44.429765,3.7670249 35.420987,3.6150784 c -0.634884,-0.01013 -1.215036,-0.020259 -1.806134,-0.02026 z"
       style="fill:#000000;stroke:#000000;stroke-width:1.95382714;stroke-miterlimit:4;stroke-dasharray:none" />
    <g
       id="g1810">
      <path
         d="M 6.5134911,7.7433673 C 5.6489029,6.8479453 4.058602,6.5681013 3.6272194,7.3820013 3.284151,8.0292783 3.3625296,8.5309135 4.395235,8.9201755 3.2963719,9.5187755 1.4857674,9.4447465 1.1893447,7.4467713 0.95320848,5.8551433 2.674739,4.8863543 3.1399725,5.0916244 3.0034432,3.6818714 1.8221094,4.0692802 0.95849208,3.2813384 0.34259068,2.7194046 0.23126071,-0.02624603 0.0561761,0.04378767 -0.0138576,0.21887227 2.7317937,0.33020157 3.2937267,0.94610377 4.0816685,1.8097211 3.6942598,2.9910547 5.1040128,3.1275841 4.8987425,2.6623507 5.8675315,0.94082017 7.4591593,1.1769564 9.4571345,1.4733791 9.5311625,3.2839847 8.9325635,4.3828467 8.5433008,3.3501417 8.041666,3.2717627 7.3943894,3.6148312 6.5804899,4.0462137 6.8603354,5.6365129 7.7557553,6.5011023"
         style="fill:#000000;stroke:#000000;stroke-width:0.1112323px;stroke-linecap:butt;stroke-linejoin:miter;stroke-opacity:1"
         id="path1737-3" />
      <path
         d="m 62.850738,7.7433673 c 0.864588,-0.895422 2.454889,-1.175266 2.886271,-0.361366 0.343069,0.647277 0.26469,1.148912 -0.768015,1.538174 1.098863,0.5986 2.909467,0.524571 3.20589,-1.473404 0.236136,-1.591628 -1.485394,-2.560417 -1.950628,-2.3551469 0.13653,-1.409753 1.317863,-1.0223442 2.181481,-1.810286 0.615901,-0.5619338 0.727231,-3.30758442 0.902316,-3.23755072 0.07003,0.1750846 -2.675618,0.2864139 -3.237551,0.9023161 C 65.28256,1.8097211 65.669969,2.9910547 64.260216,3.1275841 64.465486,2.6623507 63.496697,0.94082018 61.905069,1.1769564 c -1.997975,0.2964227 -2.072003,2.1070283 -1.473404,3.2058903 0.389263,-1.032705 0.890898,-1.111084 1.538174,-0.7680155 0.8139,0.4313825 0.534054,2.0216817 -0.361366,2.8862711"
         style="fill:#000000;stroke:#000000;stroke-width:0.1112323px;stroke-linecap:butt;stroke-linejoin:miter;stroke-opacity:1"
         id="path1737-3-5" />
      <path
         d="m 62.850738,72.244244 c 0.864588,0.895422 2.454889,1.175266 2.886272,0.361366 0.343068,-0.647277 0.264689,-1.148912 -0.768016,-1.538174 1.098863,-0.5986 2.909468,-0.524571 3.20589,1.473404 0.236137,1.591628 -1.485394,2.560417 -1.950628,2.355147 0.13653,1.409753 1.317864,1.022344 2.181481,1.810286 0.615901,0.561934 0.727231,3.307584 0.902316,3.237551 0.07003,-0.175085 -2.675618,-0.286414 -3.237551,-0.902317 -0.787942,-0.863617 -0.400533,-2.04495 -1.810286,-2.18148 0.20527,0.465234 -0.763519,2.186764 -2.355146,1.950628 -1.997976,-0.296423 -2.072004,-2.107028 -1.473405,-3.20589 0.389263,1.032705 0.890898,1.111084 1.538175,0.768015 0.813899,-0.431382 0.534054,-2.021682 -0.361366,-2.886271"
         style="fill:#000000;stroke:#000000;stroke-width:0.1112323px;stroke-linecap:butt;stroke-linejoin:miter;stroke-opacity:1"
         id="path1737-3-7" />
      <path
         d="M 6.513491,72.244245 C 5.648903,73.139667 4.058602,73.419511 3.62722,72.605611 3.284151,71.958334 3.36253,71.456699 4.395235,71.067437 c -1.098863,-0.5986 -2.909467,-0.524571 -3.20589,1.473404 -0.23613599,1.591628 1.485394,2.560417 1.950628,2.355147 -0.13653,1.409753 -1.317863,1.022344 -2.18148099,1.810286 -0.615901,0.561933 -0.727231,3.307584 -0.902316,3.23755 C -0.01385399,79.76874 2.731794,79.65741 3.293727,79.041508 4.081669,78.177891 3.69426,76.996557 5.104013,76.860028 4.898743,77.325261 5.867532,79.046792 7.45916,78.810656 9.457135,78.514233 9.531163,76.703627 8.932564,75.604765 8.543301,76.63747 8.041666,76.715849 7.39439,76.372781 6.58049,75.941398 6.860336,74.351099 7.755756,73.48651"
         style="fill:#000000;stroke:#000000;stroke-width:0.1112323px;stroke-linecap:butt;stroke-linejoin:miter;stroke-opacity:1"
         id="path1737-3-5-5" />
    </g>
    <path
       id="path1154-9"
       d="m 33.712865,7.4258691 c 0.536813,0 1.07363,0.00933 1.620386,0.01865 8.111875,0.1398689 16.174044,1.3707167 23.450873,3.5806479 3.439594,8.615932 4.277395,18.944521 4.277395,29.036812 0,10.092292 -0.917329,20.877786 -4.506039,29.596289 -7.157536,2.014114 -14.851888,3.03982 -22.884234,3.03982 -0.487111,0 -0.974221,-0.0094 -1.461331,-0.01865 H 34.040918 C 25.909161,72.53957 17.846991,71.308722 10.580105,69.089467 7.1504515,60.492184 6.3123238,50.163289 6.3123238,40.061979 c 0,-10.101311 0.9176558,-20.868461 4.4864832,-29.586965 6.690308,-1.8742449 14.046665,-2.9186005 21.472608,-3.0398203 0.47717,-0.00933 0.964281,-0.00933 1.44145,-0.00933 m 0,-0.9324602 c -0.487111,0 -0.974221,0 -1.46133,0.00933 C 24.785826,6.6239532 17.270413,7.686958 10.510517,9.5798526 L 10.043289,9.710397 9.8643508,10.139328 c -3.6085914,8.811751 -4.5231655,19.514693 -4.5231655,29.922651 0,10.407958 0.8350459,20.672644 4.294522,29.353849 l 0.1689973,0.419608 0.4572874,0.13987 c 7.326533,2.237904 15.537818,3.496724 23.749103,3.636593 h 0.188879 c 0.47717,0.0094 0.96428,0.01865 1.461331,0.01865 8.111875,0 15.905636,-1.035031 23.172525,-3.077119 l 0.467228,-0.130544 0.178938,-0.428932 c 3.618533,-8.793101 4.543048,-19.496959 4.543048,-29.931975 0,-10.435016 -0.835047,-20.672644 -4.304463,-29.363174 l -0.168997,-0.419609 -0.457288,-0.13987 C 51.74588,7.9107484 43.534594,6.6519271 35.353133,6.512058 34.776554,6.502738 34.249678,6.493409 33.712865,6.493409 Z"
       style="fill:#000000;stroke:none;stroke-width:1.78642213;stroke-miterlimit:4;stroke-dasharray:none" />
    <path
       id="path1154-9-3"
       d="m 33.712865,7.4258686 c 0.536813,0 1.07363,0.00933 1.620386,0.01865 8.111875,0.1398689 16.174044,1.3707167 23.450873,3.5806484 3.439594,8.615932 4.277395,18.944521 4.277395,29.036812 0,10.092292 -0.917329,20.877786 -4.506039,29.596288 -7.157536,2.014114 -14.851888,3.03982 -22.884234,3.03982 -0.487111,0 -0.974221,-0.0094 -1.461331,-0.01865 H 34.040918 C 25.909161,72.539569 17.846991,71.308722 10.580105,69.089466 7.1504515,60.492184 6.3123238,50.163288 6.3123238,40.061979 c 0,-10.101312 0.9176558,-20.868461 4.4864832,-29.586965 6.690308,-1.8742454 14.046665,-2.918601 21.472608,-3.0398208 0.47717,-0.00933 0.964281,-0.00933 1.44145,-0.00933 m 0,-0.9324602 c -0.487111,0 -0.974221,0 -1.46133,0.00933 C 24.785826,6.6239527 17.270413,7.6869575 10.510517,9.5798521 L 10.043289,9.7103965 9.8643508,10.139328 C 6.2557594,18.951079 5.3411853,29.65402 5.3411853,40.061979 c 0,10.407958 0.8350459,20.672643 4.294522,29.353849 l 0.1689973,0.419608 0.4572874,0.13987 c 7.326533,2.237904 15.537818,3.496724 23.749103,3.636593 h 0.188879 c 0.47717,0.0094 0.96428,0.01865 1.461331,0.01865 8.111875,0 15.905636,-1.035032 23.172525,-3.077119 l 0.467228,-0.130544 0.178938,-0.428932 c 3.618533,-8.793101 4.543048,-19.49696 4.543048,-29.931975 0,-10.435016 -0.835047,-20.672644 -4.304463,-29.363175 l -0.168997,-0.419609 -0.457288,-0.13987 C 51.74588,7.9107479 43.534594,6.6519266 35.353133,6.5120575 34.776554,6.5027375 34.249678,6.4934085 33.712865,6.4934085 Z"
       style="fill:#000000;stroke:none;stroke-width:1.78642213;stroke-miterlimit:4;stroke-dasharray:none" />
  </g>
</svg>
