<?xml version="1.0" encoding="UTF-8" standalone="no"?>
<!-- Created with Inkscape (http://www.inkscape.org/) -->

<svg
   xmlns:dc="http://purl.org/dc/elements/1.1/"
   xmlns:cc="http://creativecommons.org/ns#"
   xmlns:rdf="http://www.w3.org/1999/02/22-rdf-syntax-ns#"
   xmlns:svg="http://www.w3.org/2000/svg"
   xmlns="http://www.w3.org/2000/svg"
   xmlns:sodipodi="http://sodipodi.sourceforge.net/DTD/sodipodi-0.dtd"
   xmlns:inkscape="http://www.inkscape.org/namespaces/inkscape"
   width="800"
   height="480"
   viewBox="0 0 211.66667 127"
   version="1.1"
   id="svg8"
   inkscape:version="0.92.3 (2405546, 2018-03-11)"
   sodipodi:docname="overlay1.svg"
   inkscape:export-filename="C:\Users\Narthan\Projects\vdna\assets\tutorialOverlays\overlay0.png"
   inkscape:export-xdpi="96"
   inkscape:export-ydpi="96">
  <defs
     id="defs2" />
  <sodipodi:namedview
     id="base"
     pagecolor="#ffffff"
     bordercolor="#666666"
     borderopacity="1.0"
     inkscape:pageopacity="0"
     inkscape:pageshadow="2"
     inkscape:zoom="1.2142299"
     inkscape:cx="570.42337"
     inkscape:cy="175.95294"
     inkscape:document-units="mm"
     inkscape:current-layer="layer1"
     showgrid="false"
     inkscape:window-width="1920"
     inkscape:window-height="1017"
     inkscape:window-x="-8"
     inkscape:window-y="-8"
     inkscape:window-maximized="1"
     units="px"
     inkscape:snap-global="false"
     inkscape:pagecheckerboard="false" />
  <metadata
     id="metadata5">
    <rdf:RDF>
      <cc:Work
         rdf:about="">
        <dc:format>image/svg+xml</dc:format>
        <dc:type
           rdf:resource="http://purl.org/dc/dcmitype/StillImage" />
        <dc:title />
      </cc:Work>
    </rdf:RDF>
  </metadata>
  <g
     inkscape:label="Layer 1"
     inkscape:groupmode="layer"
     id="layer1"
     transform="translate(0,-169.99999)">
    <rect
       style="opacity:1;vector-effect:none;fill:#333333;fill-opacity:0.66511625;fill-rule:nonzero;stroke:none;stroke-width:1.19591665;stroke-linecap:butt;stroke-linejoin:miter;stroke-miterlimit:4;stroke-dasharray:none;stroke-dashoffset:0;stroke-opacity:1"
       id="rect2125"
       width="229.19308"
       height="134.77589"
       x="-6.8171039"
       y="167.40778"
       rx="0.96089524"
       inkscape:export-xdpi="96"
       inkscape:export-ydpi="96" />
    <path
       style="opacity:1;vector-effect:none;fill:#808080;fill-opacity:1;fill-rule:nonzero;stroke:none;stroke-width:0.4346644;stroke-linecap:butt;stroke-linejoin:miter;stroke-miterlimit:4;stroke-dasharray:none;stroke-dashoffset:0;stroke-opacity:1"
       d="m 49.715827,180.06036 a 7.2763039,7.2763039 0 0 0 -7.276557,7.27604 7.2763039,7.2763039 0 0 0 7.276557,7.27656 7.2763039,7.2763039 0 0 0 7.276042,-7.27656 7.2763039,7.2763039 0 0 0 -7.276042,-7.27604 z"
       id="path1743" />
    <path
       style="opacity:1;vector-effect:none;fill:#808080;fill-opacity:1;fill-rule:nonzero;stroke:none;stroke-width:0.4346644;stroke-linecap:butt;stroke-linejoin:miter;stroke-miterlimit:4;stroke-dasharray:none;stroke-dashoffset:0;stroke-opacity:1"
       d="m 66.49775,180.06036 a 7.2763039,7.2763039 0 0 0 -7.27656,7.27604 7.2763039,7.2763039 0 0 0 7.27656,7.27656 7.2763039,7.2763039 0 0 0 7.276042,-7.27656 7.2763039,7.2763039 0 0 0 -7.276042,-7.27604 z"
       id="path1741" />
    <path
       style="opacity:1;vector-effect:none;fill:#808080;fill-opacity:1;fill-rule:nonzero;stroke:none;stroke-width:0.4346644;stroke-linecap:butt;stroke-linejoin:miter;stroke-miterlimit:4;stroke-dasharray:none;stroke-dashoffset:0;stroke-opacity:1"
       d="m 83.279671,180.06036 a 7.2763039,7.2763039 0 0 0 -7.276558,7.27604 7.2763039,7.2763039 0 0 0 7.276558,7.27656 7.2763039,7.2763039 0 0 0 7.276041,-7.27656 7.2763039,7.2763039 0 0 0 -7.276041,-7.27604 z"
       id="path1739" />
    <path
       style="opacity:1;vector-effect:none;fill:#808080;fill-opacity:1;fill-rule:nonzero;stroke:none;stroke-width:0.4346644;stroke-linecap:butt;stroke-linejoin:miter;stroke-miterlimit:4;stroke-dasharray:none;stroke-dashoffset:0;stroke-opacity:1"
       d="m 100.06159,180.06036 a 7.2763039,7.2763039 0 0 0 -7.276557,7.27604 7.2763039,7.2763039 0 0 0 7.276557,7.27656 7.2763039,7.2763039 0 0 0 7.27604,-7.27656 7.2763039,7.2763039 0 0 0 -7.27604,-7.27604 z"
       id="path1737" />
    <path
       style="opacity:1;vector-effect:none;fill:#808080;fill-opacity:1;fill-rule:nonzero;stroke:none;stroke-width:0.4346644;stroke-linecap:butt;stroke-linejoin:miter;stroke-miterlimit:4;stroke-dasharray:none;stroke-dashoffset:0;stroke-opacity:1"
       d="m 116.84351,180.06036 a 7.2763039,7.2763039 0 0 0 -7.27655,7.27604 7.2763039,7.2763039 0 0 0 7.27655,7.27656 7.2763039,7.2763039 0 0 0 7.27604,-7.27656 7.2763039,7.2763039 0 0 0 -7.27604,-7.27604 z"
       id="path1735" />
    <path
       style="opacity:1;vector-effect:none;fill:#808080;fill-opacity:1;fill-rule:nonzero;stroke:none;stroke-width:0.4346644;stroke-linecap:butt;stroke-linejoin:miter;stroke-miterlimit:4;stroke-dasharray:none;stroke-dashoffset:0;stroke-opacity:1"
       d="m 133.62544,180.06036 a 7.2763039,7.2763039 0 0 0 -7.27656,7.27604 7.2763039,7.2763039 0 0 0 7.27656,7.27656 7.2763039,7.2763039 0 0 0 7.27604,-7.27656 7.2763039,7.2763039 0 0 0 -7.27604,-7.27604 z"
       id="path1733" />
    <path
       style="opacity:1;vector-effect:none;fill:#808080;fill-opacity:1;fill-rule:nonzero;stroke:none;stroke-width:0.4346644;stroke-linecap:butt;stroke-linejoin:miter;stroke-miterlimit:4;stroke-dasharray:none;stroke-dashoffset:0;stroke-opacity:1"
       d="m 150.40736,180.06036 a 7.2763039,7.2763039 0 0 0 -7.27656,7.27604 7.2763039,7.2763039 0 0 0 7.27656,7.27656 7.2763039,7.2763039 0 0 0 7.27604,-7.27656 7.2763039,7.2763039 0 0 0 -7.27604,-7.27604 z"
       id="path1731" />
    <path
       style="opacity:1;vector-effect:none;fill:#808080;fill-opacity:1;fill-rule:nonzero;stroke:none;stroke-width:0.4346644;stroke-linecap:butt;stroke-linejoin:miter;stroke-miterlimit:4;stroke-dasharray:none;stroke-dashoffset:0;stroke-opacity:1"
       d="m 167.18928,180.06036 a 7.2763039,7.2763039 0 0 0 -7.27656,7.27604 7.2763039,7.2763039 0 0 0 7.27656,7.27656 7.2763039,7.2763039 0 0 0 7.27604,-7.27656 7.2763039,7.2763039 0 0 0 -7.27604,-7.27604 z"
       id="path1729" />
    <path
       style="opacity:1;vector-effect:none;fill:#808080;fill-opacity:1;fill-rule:nonzero;stroke:none;stroke-width:0.4346644;stroke-linecap:butt;stroke-linejoin:miter;stroke-miterlimit:4;stroke-dasharray:none;stroke-dashoffset:0;stroke-opacity:1"
       d="m 183.9712,180.06036 a 7.2763039,7.2763039 0 0 0 -7.27656,7.27604 7.2763039,7.2763039 0 0 0 7.27656,7.27656 7.2763039,7.2763039 0 0 0 7.27604,-7.27656 7.2763039,7.2763039 0 0 0 -7.27604,-7.27604 z"
       id="path1727" />
    <path
       style="opacity:1;vector-effect:none;fill:#808080;fill-opacity:1;fill-rule:nonzero;stroke:none;stroke-width:0.4346644;stroke-linecap:butt;stroke-linejoin:miter;stroke-miterlimit:4;stroke-dasharray:none;stroke-dashoffset:0;stroke-opacity:1"
       d="m 200.75312,180.06036 a 7.2763039,7.2763039 0 0 0 -7.27656,7.27604 7.2763039,7.2763039 0 0 0 7.27656,7.27656 7.2763039,7.2763039 0 0 0 7.27604,-7.27656 7.2763039,7.2763039 0 0 0 -7.27604,-7.27604 z"
       id="path1725" />
    <path
       style="opacity:1;vector-effect:none;fill:#8d5fd3;fill-opacity:1;fill-rule:nonzero;stroke:none;stroke-width:2.35769176;stroke-linecap:butt;stroke-linejoin:miter;stroke-miterlimit:4;stroke-dasharray:none;stroke-dashoffset:0;stroke-opacity:0.44186048"
       d="m 224.7168,130.25977 c -0.001,-0.0371 -0.003,-0.0742 -0.004,-0.11133 -3.8e-4,-14.6109 11.84418,-26.45546 26.45508,-26.45508 14.6109,-3.8e-4 26.45546,11.84418 26.45508,26.45508 -0.002,0.0371 -0.004,0.0742 -0.006,0.11133 m 10.41211,0 c -10e-4,-0.0371 -0.003,-0.0742 -0.004,-0.11133 -3.8e-4,-14.6109 11.84418,-26.45546 26.45508,-26.45508 14.6109,-3.8e-4 26.45546,11.84418 26.45508,26.45508 -0.002,0.0371 -0.004,0.0742 -0.006,0.11133 m 10.70898,0 c -0.001,-0.0371 -0.003,-0.0742 -0.004,-0.11133 -3.8e-4,-14.61089 11.84418,-26.45546 26.45507,-26.45508 14.6109,-3.8e-4 26.45546,11.84418 26.45508,26.45508 -0.002,0.0371 -0.004,0.0742 -0.006,0.11133 m 10.70899,0 c -10e-4,-0.0371 -0.003,-0.0742 -0.004,-0.11133 -3.8e-4,-14.6109 11.84418,-26.45546 26.45508,-26.45508 14.6109,-3.8e-4 26.45546,11.84418 26.45508,26.45508 -0.002,0.0371 -0.004,0.0742 -0.006,0.11133 h 10.70898 c -0.001,-0.0371 -0.003,-0.0742 -0.004,-0.11133 -3.8e-4,-14.61089 11.84418,-26.45546 26.45507,-26.45508 14.6109,-3.8e-4 26.45546,11.84418 26.45508,26.45508 -0.002,0.0371 -0.004,0.0742 -0.006,0.11133 h 10.41211 c -0.001,-0.0371 -0.003,-0.0742 -0.004,-0.11133 -3.8e-4,-14.61089 11.84418,-26.45546 26.45507,-26.45508 14.61013,6.9e-4 26.45351,11.84495 26.45313,26.45508 -0.002,0.0371 -0.004,0.0742 -0.006,0.11133 h 10.71094 c -10e-4,-0.0371 -0.003,-0.0742 -0.004,-0.11133 -3.8e-4,-14.6109 11.84418,-26.45546 26.45508,-26.45508 14.61013,7e-4 26.4535,11.84495 26.45312,26.45508 -0.002,0.0371 -0.004,0.0742 -0.006,0.11133 h 10.27149 c 0.10156,-14.53458 11.91038,-26.26491 26.44531,-26.26954 14.5357,0.004 26.3457,11.7342 26.44727,26.26954 h 10.71679 c 0.10156,-14.53458 11.91039,-26.26491 26.44532,-26.26954 14.53569,0.004 26.34569,11.7342 26.44726,26.26954 h 10.91797 c 2.01198,0 3.63086,-1.62084 3.63086,-3.63282 V 3.6308594 C 800,1.6188826 798.38112,0 796.36914,0 H 3.6308594 C 1.6188826,0 0,1.6188826 0,3.6308594 V 155.37584 c 0,2.01198 2.0084584,2.44292 3.6308594,3.63282 0,0 76.5723896,1.79394 132.4309006,-2.47385 l 25.04566,-26.27504 c -10e-4,-0.0371 -0.003,-0.0742 -0.004,-0.11133 -3.8e-4,-14.61089 11.84418,-26.45546 26.45507,-26.45508 14.6109,-3.8e-4 26.45546,11.84418 26.45508,26.45508 -0.002,0.0371 -0.004,0.0742 -0.006,0.11133"
       id="rect815"
       transform="matrix(0.26458333,0,0,0.26458333,0,169.99999)"
       inkscape:connector-curvature="0"
       sodipodi:nodetypes="cccccccccccccccccccccccccccccccccccccccccsssssssscccccc" />
    <path
       style="opacity:1;vector-effect:none;fill:#808080;fill-opacity:1;fill-rule:nonzero;stroke:none;stroke-width:1.64282608;stroke-linecap:butt;stroke-linejoin:miter;stroke-miterlimit:4;stroke-dasharray:none;stroke-dashoffset:0;stroke-opacity:1"
       d="M 160.42773 0 A 27.500991 27.500991 0 0 0 160.40039 0.7890625 A 27.500991 27.500991 0 0 0 187.90234 28.289062 A 27.500991 27.500991 0 0 0 215.40234 0.7890625 A 27.500991 27.500991 0 0 0 215.36328 0 L 210.33789 0 A 11.235545 11.235545 0 0 1 210.36719 0.7890625 A 11.235545 11.235545 0 0 1 199.13672 12.023438 A 11.235545 11.235545 0 0 1 187.90039 23.253906 A 11.235545 11.235545 0 0 1 176.66602 12.023438 A 11.235545 11.235545 0 0 1 165.43555 0.7890625 A 11.235545 11.235545 0 0 1 165.47461 0 L 160.42773 0 z M 223.85547 0 A 27.500991 27.500991 0 0 0 223.82812 0.7890625 A 27.500991 27.500991 0 0 0 251.33008 28.289062 A 27.500991 27.500991 0 0 0 278.83008 0.7890625 A 27.500991 27.500991 0 0 0 278.79102 0 L 273.76562 0 A 11.235545 11.235545 0 0 1 273.79492 0.7890625 A 11.235545 11.235545 0 0 1 262.56445 12.023438 A 11.235545 11.235545 0 0 1 251.32812 23.253906 A 11.235545 11.235545 0 0 1 240.09375 12.023438 A 11.235545 11.235545 0 0 1 228.86328 0.7890625 A 11.235545 11.235545 0 0 1 228.90234 0 L 223.85547 0 z M 287.2832 0 A 27.500991 27.500991 0 0 0 287.25586 0.7890625 A 27.500991 27.500991 0 0 0 314.75781 28.289062 A 27.500991 27.500991 0 0 0 342.25781 0.7890625 A 27.500991 27.500991 0 0 0 342.21875 0 L 337.19336 0 A 11.235545 11.235545 0 0 1 337.22266 0.7890625 A 11.235545 11.235545 0 0 1 325.99219 12.023438 A 11.235545 11.235545 0 0 1 314.75586 23.253906 A 11.235545 11.235545 0 0 1 303.52148 12.023438 A 11.235545 11.235545 0 0 1 292.29102 0.7890625 A 11.235545 11.235545 0 0 1 292.33008 0 L 287.2832 0 z M 350.71094 0 A 27.500991 27.500991 0 0 0 350.68359 0.7890625 A 27.500991 27.500991 0 0 0 378.18555 28.289062 A 27.500991 27.500991 0 0 0 405.68555 0.7890625 A 27.500991 27.500991 0 0 0 405.64648 0 L 400.62109 0 A 11.235545 11.235545 0 0 1 400.65039 0.7890625 A 11.235545 11.235545 0 0 1 389.41992 12.023438 A 11.235545 11.235545 0 0 1 378.18359 23.253906 A 11.235545 11.235545 0 0 1 366.94922 12.023438 A 11.235545 11.235545 0 0 1 355.71875 0.7890625 A 11.235545 11.235545 0 0 1 355.75781 0 L 350.71094 0 z M 414.13867 0 A 27.500991 27.500991 0 0 0 414.11133 0.7890625 A 27.500991 27.500991 0 0 0 441.61328 28.289062 A 27.500991 27.500991 0 0 0 469.11328 0.7890625 A 27.500991 27.500991 0 0 0 469.07422 0 L 464.05078 0 A 11.235545 11.235545 0 0 1 464.07812 0.7890625 A 11.235545 11.235545 0 0 1 452.84766 12.023438 A 11.235545 11.235545 0 0 1 441.61133 23.253906 A 11.235545 11.235545 0 0 1 430.37695 12.023438 A 11.235545 11.235545 0 0 1 419.14648 0.7890625 A 11.235545 11.235545 0 0 1 419.18555 0 L 414.13867 0 z M 477.56641 0 A 27.500991 27.500991 0 0 0 477.53906 0.7890625 A 27.500991 27.500991 0 0 0 505.04102 28.289062 A 27.500991 27.500991 0 0 0 532.54102 0.7890625 A 27.500991 27.500991 0 0 0 532.50195 0 L 527.47852 0 A 11.235545 11.235545 0 0 1 527.50586 0.7890625 A 11.235545 11.235545 0 0 1 516.27539 12.023438 A 11.235545 11.235545 0 0 1 505.03906 23.253906 A 11.235545 11.235545 0 0 1 493.80469 12.023438 A 11.235545 11.235545 0 0 1 482.57422 0.7890625 A 11.235545 11.235545 0 0 1 482.61328 0 L 477.56641 0 z M 540.99414 0 A 27.500991 27.500991 0 0 0 540.9668 0.7890625 A 27.500991 27.500991 0 0 0 568.46875 28.289062 A 27.500991 27.500991 0 0 0 595.96875 0.7890625 A 27.500991 27.500991 0 0 0 595.92969 0 L 590.90625 0 A 11.235545 11.235545 0 0 1 590.93359 0.7890625 A 11.235545 11.235545 0 0 1 579.70312 12.023438 A 11.235545 11.235545 0 0 1 568.46875 23.253906 A 11.235545 11.235545 0 0 1 557.23242 12.023438 A 11.235545 11.235545 0 0 1 546.00391 0.7890625 A 11.235545 11.235545 0 0 1 546.04297 0 L 540.99414 0 z M 604.42188 0 A 27.500991 27.500991 0 0 0 604.39453 0.7890625 A 27.500991 27.500991 0 0 0 631.89648 28.289062 A 27.500991 27.500991 0 0 0 659.39648 0.7890625 A 27.500991 27.500991 0 0 0 659.35742 0 L 654.33398 0 A 11.235545 11.235545 0 0 1 654.36133 0.7890625 A 11.235545 11.235545 0 0 1 643.13086 12.023438 A 11.235545 11.235545 0 0 1 631.89648 23.253906 A 11.235545 11.235545 0 0 1 620.66016 12.023438 A 11.235545 11.235545 0 0 1 609.43164 0.7890625 A 11.235545 11.235545 0 0 1 609.4707 0 L 604.42188 0 z M 667.85156 0 A 27.500991 27.500991 0 0 0 667.82227 0.7890625 A 27.500991 27.500991 0 0 0 695.32422 28.289062 A 27.500991 27.500991 0 0 0 722.82422 0.7890625 A 27.500991 27.500991 0 0 0 722.78516 0 L 717.76172 0 A 11.235545 11.235545 0 0 1 717.78906 0.7890625 A 11.235545 11.235545 0 0 1 706.55859 12.023438 A 11.235545 11.235545 0 0 1 695.32422 23.253906 A 11.235545 11.235545 0 0 1 684.08789 12.023438 A 11.235545 11.235545 0 0 1 672.85938 0.7890625 A 11.235545 11.235545 0 0 1 672.89844 0 L 667.85156 0 z M 731.2793 0 A 27.500991 27.500991 0 0 0 731.25 0.7890625 A 27.500991 27.500991 0 0 0 758.75195 28.289062 A 27.500991 27.500991 0 0 0 786.25195 0.7890625 A 27.500991 27.500991 0 0 0 786.21289 0 L 781.18945 0 A 11.235545 11.235545 0 0 1 781.2168 0.7890625 A 11.235545 11.235545 0 0 1 769.98633 12.023438 A 11.235545 11.235545 0 0 1 758.75195 23.253906 A 11.235545 11.235545 0 0 1 747.51562 12.023438 A 11.235545 11.235545 0 0 1 736.28711 0.7890625 A 11.235545 11.235545 0 0 1 736.32617 0 L 731.2793 0 z M 187.90234 38.023438 A 27.500991 27.500991 0 0 0 160.40039 65.523438 A 27.500991 27.500991 0 0 0 187.90234 93.025391 A 27.500991 27.500991 0 0 0 215.40234 65.523438 A 27.500991 27.500991 0 0 0 187.90234 38.023438 z M 251.33008 38.023438 A 27.500991 27.500991 0 0 0 223.82812 65.523438 A 27.500991 27.500991 0 0 0 251.33008 93.025391 A 27.500991 27.500991 0 0 0 278.83008 65.523438 A 27.500991 27.500991 0 0 0 251.33008 38.023438 z M 314.75781 38.023438 A 27.500991 27.500991 0 0 0 287.25586 65.523438 A 27.500991 27.500991 0 0 0 314.75781 93.025391 A 27.500991 27.500991 0 0 0 342.25781 65.523438 A 27.500991 27.500991 0 0 0 314.75781 38.023438 z M 378.18555 38.023438 A 27.500991 27.500991 0 0 0 350.68359 65.523438 A 27.500991 27.500991 0 0 0 378.18555 93.025391 A 27.500991 27.500991 0 0 0 405.68555 65.523438 A 27.500991 27.500991 0 0 0 378.18555 38.023438 z M 441.61328 38.023438 A 27.500991 27.500991 0 0 0 414.11133 65.523438 A 27.500991 27.500991 0 0 0 441.61328 93.025391 A 27.500991 27.500991 0 0 0 469.11328 65.523438 A 27.500991 27.500991 0 0 0 441.61328 38.023438 z M 505.04102 38.023438 A 27.500991 27.500991 0 0 0 477.53906 65.523438 A 27.500991 27.500991 0 0 0 505.04102 93.025391 A 27.500991 27.500991 0 0 0 532.54102 65.523438 A 27.500991 27.500991 0 0 0 505.04102 38.023438 z M 568.46875 38.023438 A 27.500991 27.500991 0 0 0 540.9668 65.523438 A 27.500991 27.500991 0 0 0 568.46875 93.025391 A 27.500991 27.500991 0 0 0 595.96875 65.523438 A 27.500991 27.500991 0 0 0 568.46875 38.023438 z M 631.89648 38.023438 A 27.500991 27.500991 0 0 0 604.39453 65.523438 A 27.500991 27.500991 0 0 0 631.89648 93.025391 A 27.500991 27.500991 0 0 0 659.39648 65.523438 A 27.500991 27.500991 0 0 0 631.89648 38.023438 z M 695.32422 38.023438 A 27.500991 27.500991 0 0 0 667.82227 65.523438 A 27.500991 27.500991 0 0 0 695.32422 93.025391 A 27.500991 27.500991 0 0 0 722.82422 65.523438 A 27.500991 27.500991 0 0 0 695.32422 38.023438 z M 758.75195 38.023438 A 27.500991 27.500991 0 0 0 731.25 65.523438 A 27.500991 27.500991 0 0 0 758.75195 93.025391 A 27.500991 27.500991 0 0 0 786.25195 65.523438 A 27.500991 27.500991 0 0 0 758.75195 38.023438 z M 187.90039 43.058594 A 11.235545 11.235545 0 0 1 199.13672 54.287109 A 11.235545 11.235545 0 0 1 210.36719 65.523438 A 11.235545 11.235545 0 0 1 199.13672 76.759766 A 11.235545 11.235545 0 0 1 187.90039 87.988281 A 11.235545 11.235545 0 0 1 176.66602 76.759766 A 11.235545 11.235545 0 0 1 165.43555 65.523438 A 11.235545 11.235545 0 0 1 176.66602 54.287109 A 11.235545 11.235545 0 0 1 187.90039 43.058594 z M 251.32812 43.058594 A 11.235545 11.235545 0 0 1 262.56445 54.287109 A 11.235545 11.235545 0 0 1 273.79492 65.523438 A 11.235545 11.235545 0 0 1 262.56445 76.759766 A 11.235545 11.235545 0 0 1 251.32812 87.988281 A 11.235545 11.235545 0 0 1 240.09375 76.759766 A 11.235545 11.235545 0 0 1 228.86328 65.523438 A 11.235545 11.235545 0 0 1 240.09375 54.287109 A 11.235545 11.235545 0 0 1 251.32812 43.058594 z M 314.75586 43.058594 A 11.235545 11.235545 0 0 1 325.99219 54.287109 A 11.235545 11.235545 0 0 1 337.22266 65.523438 A 11.235545 11.235545 0 0 1 325.99219 76.759766 A 11.235545 11.235545 0 0 1 314.75586 87.988281 A 11.235545 11.235545 0 0 1 303.52148 76.759766 A 11.235545 11.235545 0 0 1 292.29102 65.523438 A 11.235545 11.235545 0 0 1 303.52148 54.287109 A 11.235545 11.235545 0 0 1 314.75586 43.058594 z M 378.18359 43.058594 A 11.235545 11.235545 0 0 1 389.41992 54.287109 A 11.235545 11.235545 0 0 1 400.65039 65.523438 A 11.235545 11.235545 0 0 1 389.41992 76.759766 A 11.235545 11.235545 0 0 1 378.18359 87.988281 A 11.235545 11.235545 0 0 1 366.94922 76.759766 A 11.235545 11.235545 0 0 1 355.71875 65.523438 A 11.235545 11.235545 0 0 1 366.94922 54.287109 A 11.235545 11.235545 0 0 1 378.18359 43.058594 z M 441.61133 43.058594 A 11.235545 11.235545 0 0 1 452.84766 54.287109 A 11.235545 11.235545 0 0 1 464.07812 65.523438 A 11.235545 11.235545 0 0 1 452.84766 76.759766 A 11.235545 11.235545 0 0 1 441.61133 87.988281 A 11.235545 11.235545 0 0 1 430.37695 76.759766 A 11.235545 11.235545 0 0 1 419.14648 65.523438 A 11.235545 11.235545 0 0 1 430.37695 54.287109 A 11.235545 11.235545 0 0 1 441.61133 43.058594 z M 505.03906 43.058594 A 11.235545 11.235545 0 0 1 516.27539 54.287109 A 11.235545 11.235545 0 0 1 527.50586 65.523438 A 11.235545 11.235545 0 0 1 516.27539 76.759766 A 11.235545 11.235545 0 0 1 505.03906 87.988281 A 11.235545 11.235545 0 0 1 493.80469 76.759766 A 11.235545 11.235545 0 0 1 482.57422 65.523438 A 11.235545 11.235545 0 0 1 493.80469 54.287109 A 11.235545 11.235545 0 0 1 505.03906 43.058594 z M 568.46875 43.058594 A 11.235545 11.235545 0 0 1 579.70312 54.287109 A 11.235545 11.235545 0 0 1 590.93359 65.523438 A 11.235545 11.235545 0 0 1 579.70312 76.759766 A 11.235545 11.235545 0 0 1 568.46875 87.988281 A 11.235545 11.235545 0 0 1 557.23242 76.759766 A 11.235545 11.235545 0 0 1 546.00391 65.523438 A 11.235545 11.235545 0 0 1 557.23242 54.287109 A 11.235545 11.235545 0 0 1 568.46875 43.058594 z M 631.89648 43.058594 A 11.235545 11.235545 0 0 1 643.13086 54.287109 A 11.235545 11.235545 0 0 1 654.36133 65.523438 A 11.235545 11.235545 0 0 1 643.13086 76.759766 A 11.235545 11.235545 0 0 1 631.89648 87.988281 A 11.235545 11.235545 0 0 1 620.66016 76.759766 A 11.235545 11.235545 0 0 1 609.43164 65.523438 A 11.235545 11.235545 0 0 1 620.66016 54.287109 A 11.235545 11.235545 0 0 1 631.89648 43.058594 z M 695.32422 43.058594 A 11.235545 11.235545 0 0 1 706.55859 54.287109 A 11.235545 11.235545 0 0 1 717.78906 65.523438 A 11.235545 11.235545 0 0 1 706.55859 76.759766 A 11.235545 11.235545 0 0 1 695.32422 87.988281 A 11.235545 11.235545 0 0 1 684.08789 76.759766 A 11.235545 11.235545 0 0 1 672.85938 65.523438 A 11.235545 11.235545 0 0 1 684.08789 54.287109 A 11.235545 11.235545 0 0 1 695.32422 43.058594 z M 758.75195 43.058594 A 11.235545 11.235545 0 0 1 769.98633 54.287109 A 11.235545 11.235545 0 0 1 781.2168 65.523438 A 11.235545 11.235545 0 0 1 769.98633 76.759766 A 11.235545 11.235545 0 0 1 758.75195 87.988281 A 11.235545 11.235545 0 0 1 747.51562 76.759766 A 11.235545 11.235545 0 0 1 736.28711 65.523438 A 11.235545 11.235545 0 0 1 747.51562 54.287109 A 11.235545 11.235545 0 0 1 758.75195 43.058594 z M 187.90234 102.75781 A 27.50099 27.50099 0 0 0 160.40039 130.25977 L 165.43555 130.25977 A 11.235545 11.235545 0 0 1 176.66602 119.02344 A 11.235545 11.235545 0 0 1 187.90039 107.79492 A 11.235545 11.235545 0 0 1 199.13672 119.02344 A 11.235545 11.235545 0 0 1 210.36719 130.25977 L 215.40234 130.25977 A 27.50099 27.50099 0 0 0 187.90234 102.75781 z M 251.33008 102.75781 A 27.50099 27.50099 0 0 0 223.82812 130.25977 L 228.86328 130.25977 A 11.235545 11.235545 0 0 1 240.09375 119.02344 A 11.235545 11.235545 0 0 1 251.32812 107.79492 A 11.235545 11.235545 0 0 1 262.56445 119.02344 A 11.235545 11.235545 0 0 1 273.79492 130.25977 L 278.83008 130.25977 A 27.50099 27.50099 0 0 0 251.33008 102.75781 z M 314.75781 102.75781 A 27.50099 27.50099 0 0 0 287.25586 130.25977 L 292.29102 130.25977 A 11.235545 11.235545 0 0 1 303.52148 119.02344 A 11.235545 11.235545 0 0 1 314.75586 107.79492 A 11.235545 11.235545 0 0 1 325.99219 119.02344 A 11.235545 11.235545 0 0 1 337.22266 130.25977 L 342.25781 130.25977 A 27.50099 27.50099 0 0 0 314.75781 102.75781 z M 378.18555 102.75781 A 27.50099 27.50099 0 0 0 350.68359 130.25977 L 355.71875 130.25977 A 11.235545 11.235545 0 0 1 366.94922 119.02344 A 11.235545 11.235545 0 0 1 378.18359 107.79492 A 11.235545 11.235545 0 0 1 389.41992 119.02344 A 11.235545 11.235545 0 0 1 400.65039 130.25977 L 405.68555 130.25977 A 27.50099 27.50099 0 0 0 378.18555 102.75781 z M 441.61328 102.75781 A 27.50099 27.50099 0 0 0 414.11133 130.25977 L 419.14648 130.25977 A 11.235545 11.235545 0 0 1 430.37695 119.02344 A 11.235545 11.235545 0 0 1 441.61133 107.79492 A 11.235545 11.235545 0 0 1 452.84766 119.02344 A 11.235545 11.235545 0 0 1 464.07812 130.25977 L 469.11328 130.25977 A 27.50099 27.50099 0 0 0 441.61328 102.75781 z M 505.04102 102.75781 A 27.50099 27.50099 0 0 0 477.53906 130.25977 L 482.57422 130.25977 A 11.235545 11.235545 0 0 1 493.80469 119.02344 A 11.235545 11.235545 0 0 1 505.03906 107.79492 A 11.235545 11.235545 0 0 1 516.27539 119.02344 A 11.235545 11.235545 0 0 1 527.50586 130.25977 L 532.54102 130.25977 A 27.50099 27.50099 0 0 0 505.04102 102.75781 z M 568.46875 102.75781 A 27.50099 27.50099 0 0 0 540.9668 130.25977 L 546.00391 130.25977 A 11.235545 11.235545 0 0 1 557.23242 119.02344 A 11.235545 11.235545 0 0 1 568.46875 107.79492 A 11.235545 11.235545 0 0 1 579.70312 119.02344 A 11.235545 11.235545 0 0 1 590.93359 130.25977 L 595.96875 130.25977 A 27.50099 27.50099 0 0 0 568.46875 102.75781 z M 631.89648 102.75781 A 27.50099 27.50099 0 0 0 604.39453 130.25977 L 609.43164 130.25977 A 11.235545 11.235545 0 0 1 620.66016 119.02344 A 11.235545 11.235545 0 0 1 631.89648 107.79492 A 11.235545 11.235545 0 0 1 643.13086 119.02344 A 11.235545 11.235545 0 0 1 654.36133 130.25977 L 659.39648 130.25977 A 27.50099 27.50099 0 0 0 631.89648 102.75781 z M 695.32422 102.75781 A 27.50099 27.50099 0 0 0 667.82227 130.25977 L 672.85938 130.25977 A 11.235545 11.235545 0 0 1 684.08789 119.02344 A 11.235545 11.235545 0 0 1 695.32422 107.79492 A 11.235545 11.235545 0 0 1 706.55859 119.02344 A 11.235545 11.235545 0 0 1 717.78906 130.25977 L 722.82422 130.25977 A 27.50099 27.50099 0 0 0 695.32422 102.75781 z M 758.75195 102.75781 A 27.50099 27.50099 0 0 0 731.25 130.25977 L 736.28711 130.25977 A 11.235545 11.235545 0 0 1 747.51562 119.02344 A 11.235545 11.235545 0 0 1 758.75195 107.79492 A 11.235545 11.235545 0 0 1 769.98633 119.02344 A 11.235545 11.235545 0 0 1 781.2168 130.25977 L 786.25195 130.25977 A 27.50099 27.50099 0 0 0 758.75195 102.75781 z "
       id="path1325-2"
       transform="matrix(0.26458333,0,0,0.26458333,0,169.99999)" />
    <path
       style="opacity:1;vector-effect:none;fill:#808080;fill-opacity:1;fill-rule:nonzero;stroke:none;stroke-width:0.4346644;stroke-linecap:butt;stroke-linejoin:miter;stroke-miterlimit:4;stroke-dasharray:none;stroke-dashoffset:0;stroke-opacity:1"
       d="m 42.446504,169.99999 a 7.2763039,7.2763039 0 0 0 -0.0072,0.20877 7.2763039,7.2763039 0 0 0 7.276558,7.27604 7.2763039,7.2763039 0 0 0 7.276042,-7.27604 7.2763039,7.2763039 0 0 0 -0.01035,-0.20877 H 55.6519 a 2.9727379,2.9727379 0 0 1 0.0078,0.20877 2.9727379,2.9727379 0 0 1 -2.971395,2.97243 2.9727379,2.9727379 0 0 1 -2.972945,2.9714 2.9727379,2.9727379 0 0 1 -2.972428,-2.9714 2.9727379,2.9727379 0 0 1 -2.971395,-2.97243 2.9727379,2.9727379 0 0 1 0.01033,-0.20877 z"
       id="path1763" />
    <path
       style="opacity:1;vector-effect:none;fill:#808080;fill-opacity:1;fill-rule:nonzero;stroke:none;stroke-width:0.4346644;stroke-linecap:butt;stroke-linejoin:miter;stroke-miterlimit:4;stroke-dasharray:none;stroke-dashoffset:0;stroke-opacity:1"
       d="m 59.228427,169.99999 a 7.2763039,7.2763039 0 0 0 -0.0072,0.20877 7.2763039,7.2763039 0 0 0 7.276561,7.27604 7.2763039,7.2763039 0 0 0 7.276041,-7.27604 7.2763039,7.2763039 0 0 0 -0.01035,-0.20877 H 72.43382 a 2.9727379,2.9727379 0 0 1 0.0078,0.20877 2.9727379,2.9727379 0 0 1 -2.971395,2.97243 2.9727379,2.9727379 0 0 1 -2.972946,2.9714 2.9727379,2.9727379 0 0 1 -2.972427,-2.9714 2.9727379,2.9727379 0 0 1 -2.971395,-2.97243 2.9727379,2.9727379 0 0 1 0.01033,-0.20877 z"
       id="path1761" />
    <path
       style="opacity:1;vector-effect:none;fill:#808080;fill-opacity:1;fill-rule:nonzero;stroke:none;stroke-width:0.4346644;stroke-linecap:butt;stroke-linejoin:miter;stroke-miterlimit:4;stroke-dasharray:none;stroke-dashoffset:0;stroke-opacity:1"
       d="m 76.010347,169.99999 a 7.2763039,7.2763039 0 0 0 -0.0072,0.20877 7.2763039,7.2763039 0 0 0 7.276557,7.27604 7.2763039,7.2763039 0 0 0 7.276042,-7.27604 7.2763039,7.2763039 0 0 0 -0.01035,-0.20877 h -1.329635 a 2.9727379,2.9727379 0 0 1 0.0078,0.20877 2.9727379,2.9727379 0 0 1 -2.971396,2.97243 2.9727379,2.9727379 0 0 1 -2.972945,2.9714 2.9727379,2.9727379 0 0 1 -2.97243,-2.9714 2.9727379,2.9727379 0 0 1 -2.971392,-2.97243 2.9727379,2.9727379 0 0 1 0.01033,-0.20877 z"
       id="path1759" />
    <path
       style="opacity:1;vector-effect:none;fill:#808080;fill-opacity:1;fill-rule:nonzero;stroke:none;stroke-width:0.4346644;stroke-linecap:butt;stroke-linejoin:miter;stroke-miterlimit:4;stroke-dasharray:none;stroke-dashoffset:0;stroke-opacity:1"
       d="m 92.79227,169.99999 a 7.2763039,7.2763039 0 0 0 -0.0072,0.20877 7.2763039,7.2763039 0 0 0 7.27656,7.27604 7.2763039,7.2763039 0 0 0 7.27604,-7.27604 7.2763039,7.2763039 0 0 0 -0.0103,-0.20877 h -1.32963 a 2.9727379,2.9727379 0 0 1 0.008,0.20877 2.9727379,2.9727379 0 0 1 -2.9714,2.97243 2.9727379,2.9727379 0 0 1 -2.97294,2.9714 2.9727379,2.9727379 0 0 1 -2.97243,-2.9714 2.9727379,2.9727379 0 0 1 -2.971395,-2.97243 2.9727379,2.9727379 0 0 1 0.01033,-0.20877 z"
       id="path1757" />
    <path
       style="opacity:1;vector-effect:none;fill:#808080;fill-opacity:1;fill-rule:nonzero;stroke:none;stroke-width:0.4346644;stroke-linecap:butt;stroke-linejoin:miter;stroke-miterlimit:4;stroke-dasharray:none;stroke-dashoffset:0;stroke-opacity:1"
       d="m 109.57419,169.99999 a 7.2763039,7.2763039 0 0 0 -0.007,0.20877 7.2763039,7.2763039 0 0 0 7.27656,7.27604 7.2763039,7.2763039 0 0 0 7.27604,-7.27604 7.2763039,7.2763039 0 0 0 -0.0104,-0.20877 h -1.32912 a 2.9727379,2.9727379 0 0 1 0.007,0.20877 2.9727379,2.9727379 0 0 1 -2.97138,2.97243 2.9727379,2.9727379 0 0 1 -2.97295,2.9714 2.9727379,2.9727379 0 0 1 -2.97243,-2.9714 2.9727379,2.9727379 0 0 1 -2.97139,-2.97243 2.9727379,2.9727379 0 0 1 0.0103,-0.20877 z"
       id="path1755" />
    <path
       style="opacity:1;vector-effect:none;fill:#808080;fill-opacity:1;fill-rule:nonzero;stroke:none;stroke-width:0.4346644;stroke-linecap:butt;stroke-linejoin:miter;stroke-miterlimit:4;stroke-dasharray:none;stroke-dashoffset:0;stroke-opacity:1"
       d="m 126.35611,169.99999 a 7.2763039,7.2763039 0 0 0 -0.007,0.20877 7.2763039,7.2763039 0 0 0 7.27656,7.27604 7.2763039,7.2763039 0 0 0 7.27604,-7.27604 7.2763039,7.2763039 0 0 0 -0.0103,-0.20877 h -1.32911 a 2.9727379,2.9727379 0 0 1 0.007,0.20877 2.9727379,2.9727379 0 0 1 -2.97139,2.97243 2.9727379,2.9727379 0 0 1 -2.97294,2.9714 2.9727379,2.9727379 0 0 1 -2.97243,-2.9714 2.9727379,2.9727379 0 0 1 -2.97139,-2.97243 2.9727379,2.9727379 0 0 1 0.0103,-0.20877 z"
       id="path1753" />
    <path
       style="opacity:1;vector-effect:none;fill:#808080;fill-opacity:1;fill-rule:nonzero;stroke:none;stroke-width:0.4346644;stroke-linecap:butt;stroke-linejoin:miter;stroke-miterlimit:4;stroke-dasharray:none;stroke-dashoffset:0;stroke-opacity:1"
       d="m 143.13803,169.99999 a 7.2763039,7.2763039 0 0 0 -0.007,0.20877 7.2763039,7.2763039 0 0 0 7.27656,7.27604 7.2763039,7.2763039 0 0 0 7.27604,-7.27604 7.2763039,7.2763039 0 0 0 -0.0104,-0.20877 h -1.32911 a 2.9727379,2.9727379 0 0 1 0.007,0.20877 2.9727379,2.9727379 0 0 1 -2.97139,2.97243 2.9727379,2.9727379 0 0 1 -2.97242,2.9714 2.9727379,2.9727379 0 0 1 -2.97295,-2.9714 2.9727379,2.9727379 0 0 1 -2.97088,-2.97243 2.9727379,2.9727379 0 0 1 0.0103,-0.20877 z"
       id="path1751" />
    <path
       style="opacity:1;vector-effect:none;fill:#808080;fill-opacity:1;fill-rule:nonzero;stroke:none;stroke-width:0.4346644;stroke-linecap:butt;stroke-linejoin:miter;stroke-miterlimit:4;stroke-dasharray:none;stroke-dashoffset:0;stroke-opacity:1"
       d="m 159.91996,169.99999 a 7.2763039,7.2763039 0 0 0 -0.007,0.20877 7.2763039,7.2763039 0 0 0 7.27656,7.27604 7.2763039,7.2763039 0 0 0 7.27604,-7.27604 7.2763039,7.2763039 0 0 0 -0.0103,-0.20877 h -1.32911 a 2.9727379,2.9727379 0 0 1 0.007,0.20877 2.9727379,2.9727379 0 0 1 -2.97138,2.97243 2.9727379,2.9727379 0 0 1 -2.97243,2.9714 2.9727379,2.9727379 0 0 1 -2.97295,-2.9714 2.9727379,2.9727379 0 0 1 -2.97088,-2.97243 2.9727379,2.9727379 0 0 1 0.0103,-0.20877 z"
       id="path1749" />
    <path
       style="opacity:1;vector-effect:none;fill:#808080;fill-opacity:1;fill-rule:nonzero;stroke:none;stroke-width:0.4346644;stroke-linecap:butt;stroke-linejoin:miter;stroke-miterlimit:4;stroke-dasharray:none;stroke-dashoffset:0;stroke-opacity:1"
       d="m 176.70239,169.99999 a 7.2763039,7.2763039 0 0 0 -0.008,0.20877 7.2763039,7.2763039 0 0 0 7.27656,7.27604 7.2763039,7.2763039 0 0 0 7.27604,-7.27604 7.2763039,7.2763039 0 0 0 -0.0103,-0.20877 h -1.32912 a 2.9727379,2.9727379 0 0 1 0.007,0.20877 2.9727379,2.9727379 0 0 1 -2.97138,2.97243 2.9727379,2.9727379 0 0 1 -2.97243,2.9714 2.9727379,2.9727379 0 0 1 -2.97295,-2.9714 2.9727379,2.9727379 0 0 1 -2.97087,-2.97243 2.9727379,2.9727379 0 0 1 0.0103,-0.20877 z"
       id="path1747" />
    <path
       style="opacity:1;vector-effect:none;fill:#808080;fill-opacity:1;fill-rule:nonzero;stroke:none;stroke-width:0.4346644;stroke-linecap:butt;stroke-linejoin:miter;stroke-miterlimit:4;stroke-dasharray:none;stroke-dashoffset:0;stroke-opacity:1"
       d="m 193.48431,169.99999 a 7.2763039,7.2763039 0 0 0 -0.008,0.20877 7.2763039,7.2763039 0 0 0 7.27656,7.27604 7.2763039,7.2763039 0 0 0 7.27604,-7.27604 7.2763039,7.2763039 0 0 0 -0.0103,-0.20877 h -1.32912 a 2.9727379,2.9727379 0 0 1 0.007,0.20877 2.9727379,2.9727379 0 0 1 -2.97141,2.97243 2.9727379,2.9727379 0 0 1 -2.97243,2.9714 2.9727379,2.9727379 0 0 1 -2.97295,-2.9714 2.9727379,2.9727379 0 0 1 -2.97087,-2.97243 2.9727379,2.9727379 0 0 1 0.0103,-0.20877 z"
       id="path1745" />
    <path
       style="opacity:1;vector-effect:none;fill:#808080;fill-opacity:1;fill-rule:nonzero;stroke:none;stroke-width:0.27818522;stroke-linecap:butt;stroke-linejoin:miter;stroke-miterlimit:4;stroke-dasharray:none;stroke-dashoffset:0;stroke-opacity:1"
       d="m 41.248733,175.06563 a 1.9025522,1.9025522 0 0 1 1.902685,1.90136 1.9025522,1.9025522 0 0 1 1.901693,1.90269 1.9025522,1.9025522 0 0 1 -1.901693,1.90268 1.9025522,1.9025522 0 0 1 -1.902685,1.90137 1.9025522,1.9025522 0 0 1 -1.902354,-1.90137 1.9025522,1.9025522 0 0 1 -1.901693,-1.90268 1.9025522,1.9025522 0 0 1 1.901693,-1.90269 1.9025522,1.9025522 0 0 1 1.902354,-1.90136 z"
       id="path1723"
       inkscape:connector-curvature="0" />
    <path
       style="opacity:1;vector-effect:none;fill:#808080;fill-opacity:1;fill-rule:nonzero;stroke:none;stroke-width:0.27818522;stroke-linecap:butt;stroke-linejoin:miter;stroke-miterlimit:4;stroke-dasharray:none;stroke-dashoffset:0;stroke-opacity:1"
       d="m 58.030653,175.06563 a 1.9025522,1.9025522 0 0 1 1.902686,1.90136 1.9025522,1.9025522 0 0 1 1.901693,1.90269 1.9025522,1.9025522 0 0 1 -1.901693,1.90268 1.9025522,1.9025522 0 0 1 -1.902686,1.90137 1.9025522,1.9025522 0 0 1 -1.902353,-1.90137 1.9025522,1.9025522 0 0 1 -1.901693,-1.90268 1.9025522,1.9025522 0 0 1 1.901693,-1.90269 1.9025522,1.9025522 0 0 1 1.902353,-1.90136 z"
       id="path1721"
       inkscape:connector-curvature="0" />
    <path
       style="opacity:1;vector-effect:none;fill:#808080;fill-opacity:1;fill-rule:nonzero;stroke:none;stroke-width:0.27818522;stroke-linecap:butt;stroke-linejoin:miter;stroke-miterlimit:4;stroke-dasharray:none;stroke-dashoffset:0;stroke-opacity:1"
       d="m 74.812576,175.06563 a 1.9025522,1.9025522 0 0 1 1.902685,1.90136 1.9025522,1.9025522 0 0 1 1.901694,1.90269 1.9025522,1.9025522 0 0 1 -1.901694,1.90268 1.9025522,1.9025522 0 0 1 -1.902685,1.90137 1.9025522,1.9025522 0 0 1 -1.902355,-1.90137 1.9025522,1.9025522 0 0 1 -1.901691,-1.90268 1.9025522,1.9025522 0 0 1 1.901691,-1.90269 1.9025522,1.9025522 0 0 1 1.902355,-1.90136 z"
       id="path1719"
       inkscape:connector-curvature="0" />
    <path
       style="opacity:1;vector-effect:none;fill:#808080;fill-opacity:1;fill-rule:nonzero;stroke:none;stroke-width:0.27818522;stroke-linecap:butt;stroke-linejoin:miter;stroke-miterlimit:4;stroke-dasharray:none;stroke-dashoffset:0;stroke-opacity:1"
       d="m 91.594488,175.06563 a 1.9025522,1.9025522 0 0 1 1.902678,1.90136 1.9025522,1.9025522 0 0 1 1.901685,1.90269 1.9025522,1.9025522 0 0 1 -1.901685,1.90268 1.9025522,1.9025522 0 0 1 -1.902678,1.90137 1.9025522,1.9025522 0 0 1 -1.90235,-1.90137 1.9025522,1.9025522 0 0 1 -1.901693,-1.90268 1.9025522,1.9025522 0 0 1 1.901693,-1.90269 1.9025522,1.9025522 0 0 1 1.90235,-1.90136 z"
       id="path1717"
       inkscape:connector-curvature="0" />
    <path
       style="opacity:1;vector-effect:none;fill:#808080;fill-opacity:1;fill-rule:nonzero;stroke:none;stroke-width:0.27818522;stroke-linecap:butt;stroke-linejoin:miter;stroke-miterlimit:4;stroke-dasharray:none;stroke-dashoffset:0;stroke-opacity:1"
       d="m 108.37637,175.06563 a 1.9025522,1.9025522 0 0 1 1.90268,1.90136 1.9025522,1.9025522 0 0 1 1.9017,1.90269 1.9025522,1.9025522 0 0 1 -1.9017,1.90268 1.9025522,1.9025522 0 0 1 -1.90268,1.90137 1.9025522,1.9025522 0 0 1 -1.90235,-1.90137 1.9025522,1.9025522 0 0 1 -1.9017,-1.90268 1.9025522,1.9025522 0 0 1 1.9017,-1.90269 1.9025522,1.9025522 0 0 1 1.90235,-1.90136 z"
       id="path1715"
       inkscape:connector-curvature="0" />
    <path
       style="opacity:1;vector-effect:none;fill:#808080;fill-opacity:1;fill-rule:nonzero;stroke:none;stroke-width:0.27818522;stroke-linecap:butt;stroke-linejoin:miter;stroke-miterlimit:4;stroke-dasharray:none;stroke-dashoffset:0;stroke-opacity:1"
       d="m 125.15829,175.06563 a 1.9025522,1.9025522 0 0 1 1.90268,1.90136 1.9025522,1.9025522 0 0 1 1.9017,1.90269 1.9025522,1.9025522 0 0 1 -1.9017,1.90268 1.9025522,1.9025522 0 0 1 -1.90268,1.90137 1.9025522,1.9025522 0 0 1 -1.90235,-1.90137 1.9025522,1.9025522 0 0 1 -1.90169,-1.90268 1.9025522,1.9025522 0 0 1 1.90169,-1.90269 1.9025522,1.9025522 0 0 1 1.90235,-1.90136 z"
       id="path1713"
       inkscape:connector-curvature="0" />
    <path
       style="opacity:1;vector-effect:none;fill:#808080;fill-opacity:1;fill-rule:nonzero;stroke:none;stroke-width:0.27818522;stroke-linecap:butt;stroke-linejoin:miter;stroke-miterlimit:4;stroke-dasharray:none;stroke-dashoffset:0;stroke-opacity:1"
       d="m 141.94064,175.06563 a 1.9025522,1.9025522 0 0 1 1.90234,1.90136 1.9025522,1.9025522 0 0 1 1.9017,1.90269 1.9025522,1.9025522 0 0 1 -1.9017,1.90268 1.9025522,1.9025522 0 0 1 -1.90234,1.90137 1.9025522,1.9025522 0 0 1 -1.90269,-1.90137 1.9025522,1.9025522 0 0 1 -1.90137,-1.90268 1.9025522,1.9025522 0 0 1 1.90137,-1.90269 1.9025522,1.9025522 0 0 1 1.90269,-1.90136 z"
       id="path1711"
       inkscape:connector-curvature="0" />
    <path
       style="opacity:1;vector-effect:none;fill:#808080;fill-opacity:1;fill-rule:nonzero;stroke:none;stroke-width:0.27818522;stroke-linecap:butt;stroke-linejoin:miter;stroke-miterlimit:4;stroke-dasharray:none;stroke-dashoffset:0;stroke-opacity:1"
       d="m 158.72256,175.06563 a 1.9025522,1.9025522 0 0 1 1.90235,1.90136 1.9025522,1.9025522 0 0 1 1.90169,1.90269 1.9025522,1.9025522 0 0 1 -1.90169,1.90268 1.9025522,1.9025522 0 0 1 -1.90235,1.90137 1.9025522,1.9025522 0 0 1 -1.90269,-1.90137 1.9025522,1.9025522 0 0 1 -1.90137,-1.90268 1.9025522,1.9025522 0 0 1 1.90137,-1.90269 1.9025522,1.9025522 0 0 1 1.90269,-1.90136 z"
       id="path1709"
       inkscape:connector-curvature="0" />
    <path
       style="opacity:1;vector-effect:none;fill:#808080;fill-opacity:1;fill-rule:nonzero;stroke:none;stroke-width:0.27818522;stroke-linecap:butt;stroke-linejoin:miter;stroke-miterlimit:4;stroke-dasharray:none;stroke-dashoffset:0;stroke-opacity:1"
       d="m 175.50448,175.06563 a 1.9025522,1.9025522 0 0 1 1.90235,1.90136 1.9025522,1.9025522 0 0 1 1.9017,1.90269 1.9025522,1.9025522 0 0 1 -1.9017,1.90268 1.9025522,1.9025522 0 0 1 -1.90235,1.90137 1.9025522,1.9025522 0 0 1 -1.90269,-1.90137 1.9025522,1.9025522 0 0 1 -1.90136,-1.90268 1.9025522,1.9025522 0 0 1 1.90136,-1.90269 1.9025522,1.9025522 0 0 1 1.90269,-1.90136 z"
       id="path1707"
       inkscape:connector-curvature="0" />
    <path
       style="opacity:1;vector-effect:none;fill:#808080;fill-opacity:1;fill-rule:nonzero;stroke:none;stroke-width:0.27818522;stroke-linecap:butt;stroke-linejoin:miter;stroke-miterlimit:4;stroke-dasharray:none;stroke-dashoffset:0;stroke-opacity:1"
       d="m 192.2864,175.06563 a 1.9025522,1.9025522 0 0 1 1.90235,1.90136 1.9025522,1.9025522 0 0 1 1.9017,1.90269 1.9025522,1.9025522 0 0 1 -1.9017,1.90268 1.9025522,1.9025522 0 0 1 -1.90235,1.90137 1.9025522,1.9025522 0 0 1 -1.90269,-1.90137 1.9025522,1.9025522 0 0 1 -1.90136,-1.90268 1.9025522,1.9025522 0 0 1 1.90136,-1.90269 1.9025522,1.9025522 0 0 1 1.90269,-1.90136 z"
       id="path1705"
       inkscape:connector-curvature="0" />
    <path
       style="opacity:1;vector-effect:none;fill:#808080;fill-opacity:1;fill-rule:nonzero;stroke:none;stroke-width:0.4346644;stroke-linecap:butt;stroke-linejoin:miter;stroke-miterlimit:4;stroke-dasharray:none;stroke-dashoffset:0;stroke-opacity:1"
       d="m 49.715827,197.18799 a 7.2763036,7.2763036 0 0 0 -7.276557,7.27656 h 1.332219 a 2.9727379,2.9727379 0 0 1 2.971395,-2.97294 2.9727379,2.9727379 0 0 1 2.972428,-2.97088 2.9727379,2.9727379 0 0 1 2.972945,2.97088 2.9727379,2.9727379 0 0 1 2.971395,2.97294 h 1.332217 a 7.2763036,7.2763036 0 0 0 -7.276042,-7.27656 z"
       id="path1703" />
    <path
       style="opacity:1;vector-effect:none;fill:#808080;fill-opacity:1;fill-rule:nonzero;stroke:none;stroke-width:0.4346644;stroke-linecap:butt;stroke-linejoin:miter;stroke-miterlimit:4;stroke-dasharray:none;stroke-dashoffset:0;stroke-opacity:1"
       d="m 66.49775,197.18799 a 7.2763036,7.2763036 0 0 0 -7.27656,7.27656 h 1.33222 a 2.9727379,2.9727379 0 0 1 2.971395,-2.97294 2.9727379,2.9727379 0 0 1 2.972427,-2.97088 2.9727379,2.9727379 0 0 1 2.972946,2.97088 2.9727379,2.9727379 0 0 1 2.971395,2.97294 h 1.332219 a 7.2763036,7.2763036 0 0 0 -7.276042,-7.27656 z"
       id="path1701" />
    <path
       style="opacity:1;vector-effect:none;fill:#808080;fill-opacity:1;fill-rule:nonzero;stroke:none;stroke-width:0.4346644;stroke-linecap:butt;stroke-linejoin:miter;stroke-miterlimit:4;stroke-dasharray:none;stroke-dashoffset:0;stroke-opacity:1"
       d="m 83.279671,197.18799 a 7.2763036,7.2763036 0 0 0 -7.276558,7.27656 h 1.33222 a 2.9727379,2.9727379 0 0 1 2.971392,-2.97294 2.9727379,2.9727379 0 0 1 2.97243,-2.97088 2.9727379,2.9727379 0 0 1 2.972945,2.97088 2.9727379,2.9727379 0 0 1 2.971396,2.97294 h 1.332216 a 7.2763036,7.2763036 0 0 0 -7.276041,-7.27656 z"
       id="path1699" />
    <path
       style="opacity:1;vector-effect:none;fill:#808080;fill-opacity:1;fill-rule:nonzero;stroke:none;stroke-width:0.4346644;stroke-linecap:butt;stroke-linejoin:miter;stroke-miterlimit:4;stroke-dasharray:none;stroke-dashoffset:0;stroke-opacity:1"
       d="m 100.06159,197.18799 a 7.2763036,7.2763036 0 0 0 -7.276557,7.27656 h 1.33222 a 2.9727379,2.9727379 0 0 1 2.971395,-2.97294 2.9727379,2.9727379 0 0 1 2.972422,-2.97088 2.9727379,2.9727379 0 0 1 2.97295,2.97088 2.9727379,2.9727379 0 0 1 2.9714,2.97294 h 1.33221 a 7.2763036,7.2763036 0 0 0 -7.27604,-7.27656 z"
       id="path1697" />
    <path
       style="opacity:1;vector-effect:none;fill:#808080;fill-opacity:1;fill-rule:nonzero;stroke:none;stroke-width:0.4346644;stroke-linecap:butt;stroke-linejoin:miter;stroke-miterlimit:4;stroke-dasharray:none;stroke-dashoffset:0;stroke-opacity:1"
       d="m 116.84351,197.18799 a 7.2763036,7.2763036 0 0 0 -7.27655,7.27656 h 1.33221 a 2.9727379,2.9727379 0 0 1 2.9714,-2.97294 2.9727379,2.9727379 0 0 1 2.97243,-2.97088 2.9727379,2.9727379 0 0 1 2.97294,2.97088 2.9727379,2.9727379 0 0 1 2.9714,2.97294 h 1.33221 a 7.2763036,7.2763036 0 0 0 -7.27604,-7.27656 z"
       id="path1695" />
    <path
       style="opacity:1;vector-effect:none;fill:#808080;fill-opacity:1;fill-rule:nonzero;stroke:none;stroke-width:0.4346644;stroke-linecap:butt;stroke-linejoin:miter;stroke-miterlimit:4;stroke-dasharray:none;stroke-dashoffset:0;stroke-opacity:1"
       d="m 133.62544,197.18799 a 7.2763036,7.2763036 0 0 0 -7.27656,7.27656 h 1.33222 a 2.9727379,2.9727379 0 0 1 2.97139,-2.97294 2.9727379,2.9727379 0 0 1 2.97243,-2.97088 2.9727379,2.9727379 0 0 1 2.97294,2.97088 2.9727379,2.9727379 0 0 1 2.9714,2.97294 h 1.33222 a 7.2763036,7.2763036 0 0 0 -7.27604,-7.27656 z"
       id="path1693" />
    <path
       style="opacity:1;vector-effect:none;fill:#808080;fill-opacity:1;fill-rule:nonzero;stroke:none;stroke-width:0.4346644;stroke-linecap:butt;stroke-linejoin:miter;stroke-miterlimit:4;stroke-dasharray:none;stroke-dashoffset:0;stroke-opacity:1"
       d="m 150.40736,197.18799 a 7.2763036,7.2763036 0 0 0 -7.27656,7.27656 h 1.33273 a 2.9727379,2.9727379 0 0 1 2.97088,-2.97294 2.9727379,2.9727379 0 0 1 2.97295,-2.97088 2.9727379,2.9727379 0 0 1 2.97242,2.97088 2.9727379,2.9727379 0 0 1 2.9714,2.97294 h 1.33222 a 7.2763036,7.2763036 0 0 0 -7.27604,-7.27656 z"
       id="path1691" />
    <path
       style="opacity:1;vector-effect:none;fill:#808080;fill-opacity:1;fill-rule:nonzero;stroke:none;stroke-width:0.4346644;stroke-linecap:butt;stroke-linejoin:miter;stroke-miterlimit:4;stroke-dasharray:none;stroke-dashoffset:0;stroke-opacity:1"
       d="m 167.18928,197.18799 a 7.2763036,7.2763036 0 0 0 -7.27656,7.27656 h 1.33273 a 2.9727379,2.9727379 0 0 1 2.97088,-2.97294 2.9727379,2.9727379 0 0 1 2.97295,-2.97088 2.9727379,2.9727379 0 0 1 2.97243,2.97088 2.9727379,2.9727379 0 0 1 2.97139,2.97294 h 1.33222 a 7.2763036,7.2763036 0 0 0 -7.27604,-7.27656 z"
       id="path1689" />
    <path
       style="opacity:1;vector-effect:none;fill:#808080;fill-opacity:1;fill-rule:nonzero;stroke:none;stroke-width:0.4346644;stroke-linecap:butt;stroke-linejoin:miter;stroke-miterlimit:4;stroke-dasharray:none;stroke-dashoffset:0;stroke-opacity:1"
       d="m 183.9712,197.18799 a 7.2763036,7.2763036 0 0 0 -7.27656,7.27656 h 1.33274 a 2.9727379,2.9727379 0 0 1 2.97087,-2.97294 2.9727379,2.9727379 0 0 1 2.97295,-2.97088 2.9727379,2.9727379 0 0 1 2.97243,2.97088 2.9727379,2.9727379 0 0 1 2.97139,2.97294 h 1.33222 a 7.2763036,7.2763036 0 0 0 -7.27604,-7.27656 z"
       id="path1687" />
    <path
       style="opacity:1;vector-effect:none;fill:#808080;fill-opacity:1;fill-rule:nonzero;stroke:none;stroke-width:0.4346644;stroke-linecap:butt;stroke-linejoin:miter;stroke-miterlimit:4;stroke-dasharray:none;stroke-dashoffset:0;stroke-opacity:1"
       d="m 200.75312,197.18799 a 7.2763036,7.2763036 0 0 0 -7.27656,7.27656 h 1.33274 a 2.9727379,2.9727379 0 0 1 2.97087,-2.97294 2.9727379,2.9727379 0 0 1 2.97295,-2.97088 2.9727379,2.9727379 0 0 1 2.97243,2.97088 2.9727379,2.9727379 0 0 1 2.9714,2.97294 h 1.33221 a 7.2763036,7.2763036 0 0 0 -7.27604,-7.27656 z"
       id="path1325-2-6" />
    <path
       style="opacity:1;vector-effect:none;fill:#808080;fill-opacity:1;fill-rule:nonzero;stroke:none;stroke-width:0.27818525;stroke-linecap:butt;stroke-linejoin:miter;stroke-miterlimit:4;stroke-dasharray:none;stroke-dashoffset:0;stroke-opacity:1"
       d="m 41.248732,191.74872 a 1.9025522,1.9025522 0 0 1 1.902685,1.90136 1.9025522,1.9025522 0 0 1 1.901693,1.90269 1.9025522,1.9025522 0 0 1 -1.901693,1.90268 1.9025522,1.9025522 0 0 1 -1.902685,1.90137 1.9025522,1.9025522 0 0 1 -1.902354,-1.90137 1.9025522,1.9025522 0 0 1 -1.901693,-1.90268 1.9025522,1.9025522 0 0 1 1.901693,-1.90269 1.9025522,1.9025522 0 0 1 1.902354,-1.90136 z"
       id="path1723-0"
       inkscape:connector-curvature="0" />
    <path
       style="opacity:1;vector-effect:none;fill:#808080;fill-opacity:1;fill-rule:nonzero;stroke:none;stroke-width:0.27818525;stroke-linecap:butt;stroke-linejoin:miter;stroke-miterlimit:4;stroke-dasharray:none;stroke-dashoffset:0;stroke-opacity:1"
       d="m 58.030652,191.74872 a 1.9025522,1.9025522 0 0 1 1.902686,1.90136 1.9025522,1.9025522 0 0 1 1.901693,1.90269 1.9025522,1.9025522 0 0 1 -1.901693,1.90268 1.9025522,1.9025522 0 0 1 -1.902686,1.90137 1.9025522,1.9025522 0 0 1 -1.902353,-1.90137 1.9025522,1.9025522 0 0 1 -1.901693,-1.90268 1.9025522,1.9025522 0 0 1 1.901693,-1.90269 1.9025522,1.9025522 0 0 1 1.902353,-1.90136 z"
       id="path1721-7"
       inkscape:connector-curvature="0" />
    <path
       style="opacity:1;vector-effect:none;fill:#808080;fill-opacity:1;fill-rule:nonzero;stroke:none;stroke-width:0.27818525;stroke-linecap:butt;stroke-linejoin:miter;stroke-miterlimit:4;stroke-dasharray:none;stroke-dashoffset:0;stroke-opacity:1"
       d="m 74.812575,191.74872 a 1.9025522,1.9025522 0 0 1 1.902685,1.90136 1.9025522,1.9025522 0 0 1 1.901695,1.90269 1.9025522,1.9025522 0 0 1 -1.901695,1.90268 1.9025522,1.9025522 0 0 1 -1.902685,1.90137 1.9025522,1.9025522 0 0 1 -1.902354,-1.90137 1.9025522,1.9025522 0 0 1 -1.901693,-1.90268 1.9025522,1.9025522 0 0 1 1.901693,-1.90269 1.9025522,1.9025522 0 0 1 1.902354,-1.90136 z"
       id="path1719-5"
       inkscape:connector-curvature="0" />
    <path
       style="opacity:1;vector-effect:none;fill:#808080;fill-opacity:1;fill-rule:nonzero;stroke:none;stroke-width:0.27818525;stroke-linecap:butt;stroke-linejoin:miter;stroke-miterlimit:4;stroke-dasharray:none;stroke-dashoffset:0;stroke-opacity:1"
       d="m 91.594487,191.74872 a 1.9025522,1.9025522 0 0 1 1.90268,1.90136 1.9025522,1.9025522 0 0 1 1.901685,1.90269 1.9025522,1.9025522 0 0 1 -1.901685,1.90268 1.9025522,1.9025522 0 0 1 -1.90268,1.90137 1.9025522,1.9025522 0 0 1 -1.902349,-1.90137 1.9025522,1.9025522 0 0 1 -1.901692,-1.90268 1.9025522,1.9025522 0 0 1 1.901692,-1.90269 1.9025522,1.9025522 0 0 1 1.902349,-1.90136 z"
       id="path1717-4"
       inkscape:connector-curvature="0" />
    <path
       style="opacity:1;vector-effect:none;fill:#808080;fill-opacity:1;fill-rule:nonzero;stroke:none;stroke-width:0.27818525;stroke-linecap:butt;stroke-linejoin:miter;stroke-miterlimit:4;stroke-dasharray:none;stroke-dashoffset:0;stroke-opacity:1"
       d="m 108.37637,191.74872 a 1.9025522,1.9025522 0 0 1 1.90268,1.90136 1.9025522,1.9025522 0 0 1 1.9017,1.90269 1.9025522,1.9025522 0 0 1 -1.9017,1.90268 1.9025522,1.9025522 0 0 1 -1.90268,1.90137 1.9025522,1.9025522 0 0 1 -1.90235,-1.90137 1.9025522,1.9025522 0 0 1 -1.9017,-1.90268 1.9025522,1.9025522 0 0 1 1.9017,-1.90269 1.9025522,1.9025522 0 0 1 1.90235,-1.90136 z"
       id="path1715-0"
       inkscape:connector-curvature="0" />
    <path
       style="opacity:1;vector-effect:none;fill:#808080;fill-opacity:1;fill-rule:nonzero;stroke:none;stroke-width:0.27818525;stroke-linecap:butt;stroke-linejoin:miter;stroke-miterlimit:4;stroke-dasharray:none;stroke-dashoffset:0;stroke-opacity:1"
       d="m 125.15829,191.74872 a 1.9025522,1.9025522 0 0 1 1.90268,1.90136 1.9025522,1.9025522 0 0 1 1.9017,1.90269 1.9025522,1.9025522 0 0 1 -1.9017,1.90268 1.9025522,1.9025522 0 0 1 -1.90268,1.90137 1.9025522,1.9025522 0 0 1 -1.90235,-1.90137 1.9025522,1.9025522 0 0 1 -1.90169,-1.90268 1.9025522,1.9025522 0 0 1 1.90169,-1.90269 1.9025522,1.9025522 0 0 1 1.90235,-1.90136 z"
       id="path1713-0"
       inkscape:connector-curvature="0" />
    <path
       style="opacity:1;vector-effect:none;fill:#808080;fill-opacity:1;fill-rule:nonzero;stroke:none;stroke-width:0.27818525;stroke-linecap:butt;stroke-linejoin:miter;stroke-miterlimit:4;stroke-dasharray:none;stroke-dashoffset:0;stroke-opacity:1"
       d="m 141.94064,191.74872 a 1.9025522,1.9025522 0 0 1 1.90235,1.90136 1.9025522,1.9025522 0 0 1 1.9017,1.90269 1.9025522,1.9025522 0 0 1 -1.9017,1.90268 1.9025522,1.9025522 0 0 1 -1.90235,1.90137 1.9025522,1.9025522 0 0 1 -1.90269,-1.90137 1.9025522,1.9025522 0 0 1 -1.90137,-1.90268 1.9025522,1.9025522 0 0 1 1.90137,-1.90269 1.9025522,1.9025522 0 0 1 1.90269,-1.90136 z"
       id="path1711-2"
       inkscape:connector-curvature="0" />
    <path
       style="opacity:1;vector-effect:none;fill:#808080;fill-opacity:1;fill-rule:nonzero;stroke:none;stroke-width:0.27818525;stroke-linecap:butt;stroke-linejoin:miter;stroke-miterlimit:4;stroke-dasharray:none;stroke-dashoffset:0;stroke-opacity:1"
       d="m 158.72256,191.74872 a 1.9025522,1.9025522 0 0 1 1.90236,1.90136 1.9025522,1.9025522 0 0 1 1.90169,1.90269 1.9025522,1.9025522 0 0 1 -1.90169,1.90268 1.9025522,1.9025522 0 0 1 -1.90236,1.90137 1.9025522,1.9025522 0 0 1 -1.90269,-1.90137 1.9025522,1.9025522 0 0 1 -1.90137,-1.90268 1.9025522,1.9025522 0 0 1 1.90137,-1.90269 1.9025522,1.9025522 0 0 1 1.90269,-1.90136 z"
       id="path1709-7"
       inkscape:connector-curvature="0" />
    <path
       style="opacity:1;vector-effect:none;fill:#808080;fill-opacity:1;fill-rule:nonzero;stroke:none;stroke-width:0.27818525;stroke-linecap:butt;stroke-linejoin:miter;stroke-miterlimit:4;stroke-dasharray:none;stroke-dashoffset:0;stroke-opacity:1"
       d="m 175.50448,191.74872 a 1.9025522,1.9025522 0 0 1 1.90236,1.90136 1.9025522,1.9025522 0 0 1 1.90169,1.90269 1.9025522,1.9025522 0 0 1 -1.90169,1.90268 1.9025522,1.9025522 0 0 1 -1.90236,1.90137 1.9025522,1.9025522 0 0 1 -1.90269,-1.90137 1.9025522,1.9025522 0 0 1 -1.90135,-1.90268 1.9025522,1.9025522 0 0 1 1.90135,-1.90269 1.9025522,1.9025522 0 0 1 1.90269,-1.90136 z"
       id="path1707-3"
       inkscape:connector-curvature="0" />
    <path
       style="opacity:1;vector-effect:none;fill:#808080;fill-opacity:1;fill-rule:nonzero;stroke:none;stroke-width:0.27818525;stroke-linecap:butt;stroke-linejoin:miter;stroke-miterlimit:4;stroke-dasharray:none;stroke-dashoffset:0;stroke-opacity:1"
       d="m 192.28641,191.74872 a 1.9025522,1.9025522 0 0 1 1.90235,1.90136 1.9025522,1.9025522 0 0 1 1.90169,1.90269 1.9025522,1.9025522 0 0 1 -1.90169,1.90268 1.9025522,1.9025522 0 0 1 -1.90235,1.90137 1.9025522,1.9025522 0 0 1 -1.90269,-1.90137 1.9025522,1.9025522 0 0 1 -1.90136,-1.90268 1.9025522,1.9025522 0 0 1 1.90136,-1.90269 1.9025522,1.9025522 0 0 1 1.90269,-1.90136 z"
       id="path1705-4"
       inkscape:connector-curvature="0" />
    <path
       style="opacity:1;vector-effect:none;fill:#808080;fill-opacity:1;fill-rule:nonzero;stroke:none;stroke-width:0.27818525;stroke-linecap:butt;stroke-linejoin:miter;stroke-miterlimit:4;stroke-dasharray:none;stroke-dashoffset:0;stroke-opacity:1"
       d="m 209.85925,175.06563 a 1.9025522,1.9025522 0 0 1 1.90235,1.90136 1.9025522,1.9025522 0 0 1 1.9017,1.90269 1.9025522,1.9025522 0 0 1 -1.9017,1.90268 1.9025522,1.9025522 0 0 1 -1.90235,1.90137 1.9025522,1.9025522 0 0 1 -1.90269,-1.90137 1.9025522,1.9025522 0 0 1 -1.90136,-1.90268 1.9025522,1.9025522 0 0 1 1.90136,-1.90269 1.9025522,1.9025522 0 0 1 1.90269,-1.90136 z"
       id="path1705-6"
       inkscape:connector-curvature="0" />
    <path
       style="opacity:1;vector-effect:none;fill:#808080;fill-opacity:1;fill-rule:nonzero;stroke:none;stroke-width:0.27818525;stroke-linecap:butt;stroke-linejoin:miter;stroke-miterlimit:4;stroke-dasharray:none;stroke-dashoffset:0;stroke-opacity:1"
       d="m 209.85926,191.74872 a 1.9025522,1.9025522 0 0 1 1.90235,1.90136 1.9025522,1.9025522 0 0 1 1.90169,1.90269 1.9025522,1.9025522 0 0 1 -1.90169,1.90268 1.9025522,1.9025522 0 0 1 -1.90235,1.90137 1.9025522,1.9025522 0 0 1 -1.90269,-1.90137 1.9025522,1.9025522 0 0 1 -1.90136,-1.90268 1.9025522,1.9025522 0 0 1 1.90136,-1.90269 1.9025522,1.9025522 0 0 1 1.90269,-1.90136 z"
       id="path1705-4-9"
       inkscape:connector-curvature="0" />
    <path
       id="rect2123"
       style="opacity:1;vector-effect:none;fill:#808080;fill-opacity:1;fill-rule:nonzero;stroke:none;stroke-width:0.6677143;stroke-linecap:butt;stroke-linejoin:miter;stroke-miterlimit:4;stroke-dasharray:none;stroke-dashoffset:0;stroke-opacity:1"
       d="m 0.43726367,211.05862 31.17695733,-0.008 c 0,0 1.387519,-0.0833 2.012043,-0.32782 0.634665,-0.24848 1.501582,-1.06057 1.501582,-1.06057 l 4.757437,-4.39709 c 0,0 1.100956,-0.98905 1.841611,-1.26773 0.776243,-0.29207 2.38907,-0.37081 2.38907,-0.37081 l 166.764836,0.0272 c 0.53234,9e-5 0.96089,0.42856 0.96089,0.9609 v 0.0906 c 0,0.53234 -0.42855,0.9612 -0.96089,0.9609 L 43.985056,205.5736 c 0,0 -1.060067,0.10553 -1.547754,0.29619 -0.594693,0.23249 -1.430792,1.09558 -1.430792,1.09558 l -4.564693,4.21303 c 0,0 -1.178974,1.21953 -2.041336,1.5568 -0.925892,0.36212 -2.982556,0.32806 -2.982556,0.32806 l -30.98066133,0.008 c -0.53233595,1.4e-4 -0.96089524,-0.42856 -0.96089524,-0.9609 v -0.0906 c 0,-0.53234 0.43709749,-0.86594 0.96089524,-0.9609 z"
       inkscape:connector-curvature="0"
       sodipodi:nodetypes="ccsccscsssscsccscssssc"
       inkscape:export-xdpi="96"
       inkscape:export-ydpi="96" />
    <rect
       style="opacity:1;vector-effect:none;fill:#ffffff;fill-opacity:0.55348837;fill-rule:nonzero;stroke:none;stroke-width:0.61778468;stroke-linecap:butt;stroke-linejoin:miter;stroke-miterlimit:4;stroke-dasharray:none;stroke-dashoffset:0;stroke-opacity:0.44186048"
       id="rect6157"
       width="168.4384"
       height="24.622948"
       x="40.747711"
       y="171.48834"
       rx="4.5086584"
       ry="4.2496314" />
  </g>
</svg>
